<svg width="44" height="44" viewBox="0 0 44 44" fill="none" xmlns="http://www.w3.org/2000/svg">
<path d="M43.5875 13.1984C43.5875 13.1984 43.175 10.1734 41.8 8.79844C40.15 7.01094 38.225 7.01094 37.4 6.87344C31.2125 6.46094 22 6.46094 22 6.46094C22 6.46094 12.7875 6.46094 6.6 6.87344C5.775 7.01094 3.85 7.01094 2.2 8.79844C0.825 10.1734 0.4125 13.1984 0.4125 13.1984C0.4125 13.1984 0 16.7734 0 20.3484V23.6484C0 27.2234 0.4125 30.7984 0.4125 30.7984C0.4125 30.7984 0.825 33.8234 2.2 35.1984C3.85 36.9859 6.05 36.8484 7.0125 37.1234C10.5875 37.3984 22 37.5359 22 37.5359C22 37.5359 31.2125 37.5359 37.4 37.1234C38.225 36.9859 40.15 36.9859 41.8 35.1984C43.175 33.8234 43.5875 30.7984 43.5875 30.7984C43.5875 30.7984 44 27.2234 44 23.6484V20.3484C44 16.7734 43.5875 13.1984 43.5875 13.1984ZM17.4625 27.7734V15.3984L29.2875 21.5859L17.4625 27.7734Z" fill="#DC2217"/>
</svg>
