<svg width="390" height="540" viewBox="0 0 390 540" fill="none" xmlns="http://www.w3.org/2000/svg">
<g clip-path="url(#clip0_1_13)">
<mask id="mask0_1_13" style="mask-type:alpha" maskUnits="userSpaceOnUse" x="-621" y="0" width="1600" height="540">
<rect x="-621" width="1600" height="540" fill="url(#paint0_radial_1_13)"/>
</mask>
<g mask="url(#mask0_1_13)">
<line x1="15.5" y1="42" x2="15.5" y2="623" stroke="#E0E5EB"/>
<line x1="87.5" y1="42" x2="87.5" y2="623" stroke="#E0E5EB"/>
<line x1="159.5" y1="42" x2="159.5" y2="623" stroke="#E0E5EB"/>
<line x1="231.5" y1="42" x2="231.5" y2="623" stroke="#E0E5EB"/>
<line x1="303.5" y1="42" x2="303.5" y2="623" stroke="#E0E5EB"/>
<line x1="375.5" y1="42" x2="375.5" y2="623" stroke="#E0E5EB"/>
<line x1="979" y1="80.5" x2="-621" y2="80.5" stroke="#E0E5EB"/>
<line x1="979" y1="152.5" x2="-621" y2="152.5" stroke="#E0E5EB"/>
<line x1="979" y1="224.5" x2="-621" y2="224.5" stroke="#E0E5EB"/>
<line x1="979" y1="296.5" x2="-621" y2="296.5" stroke="#E0E5EB"/>
<line x1="979" y1="368.5" x2="-621" y2="368.5" stroke="#E0E5EB"/>
<line x1="979" y1="440.5" x2="-621" y2="440.5" stroke="#E0E5EB"/>
<line x1="979" y1="512.5" x2="-621" y2="512.5" stroke="#E0E5EB"/>
</g>
<path d="M69 116L307 116" stroke="#A7B1BE" stroke-width="3" stroke-linecap="round" stroke-linejoin="round" stroke-dasharray="0.01 10"/>
<path d="M-34 116L33 116" stroke="#A7B1BE" stroke-width="3" stroke-linecap="round" stroke-linejoin="round" stroke-dasharray="0.01 10"/>
<path fill-rule="evenodd" clip-rule="evenodd" d="M61 106H41V126H61V106ZM51 121C53.7614 121 56 118.761 56 116C56 113.239 53.7614 111 51 111C48.2386 111 46 113.239 46 116C46 118.761 48.2386 121 51 121Z" fill="#0073E6"/>
<path d="M339 147L339 190L423 190" stroke="#A7B1BE" stroke-width="3" stroke-linecap="round" stroke-linejoin="round" stroke-dasharray="0.01 10"/>
<path d="M78 476H320" stroke="#A7B1BE" stroke-width="3" stroke-linecap="round" stroke-linejoin="round" stroke-dasharray="0.01 10"/>
<path d="M358 476H414" stroke="#A7B1BE" stroke-width="3" stroke-linecap="round" stroke-linejoin="round" stroke-dasharray="0.01 10"/>
<path d="M51 451V401H-16" stroke="#A7B1BE" stroke-width="3" stroke-linecap="round" stroke-linejoin="round" stroke-dasharray="0.01 10"/>
<path d="M32 495L32 457L70 457V495H32Z" fill="#FFBF00"/>
<path d="M66.2 476C66.2 484.395 59.3947 491.2 51 491.2C42.6053 491.2 35.8 484.395 35.8 476C35.8 467.605 42.6053 460.8 51 460.8C59.3947 460.8 66.2 467.605 66.2 476Z" fill="white"/>
<path d="M56.9377 466.797H48.4625C45.9049 466.797 43.7039 468.762 43.5837 471.317C43.5526 471.96 43.6523 472.602 43.8767 473.204C44.1012 473.807 44.4456 474.358 44.8893 474.824C45.3329 475.289 45.8665 475.66 46.4576 475.913C47.0488 476.166 47.6852 476.297 48.3283 476.297H48.9221V484.906C48.9221 484.985 48.9534 485.061 49.009 485.116C49.0647 485.172 49.1402 485.203 49.219 485.203H49.8127C49.8914 485.203 49.967 485.172 50.0226 485.116C50.0783 485.061 50.1096 484.985 50.1096 484.906V467.984H53.6721V484.906C53.6721 484.985 53.7034 485.061 53.759 485.116C53.8147 485.172 53.8902 485.203 53.969 485.203H54.5627C54.6414 485.203 54.717 485.172 54.7726 485.116C54.8283 485.061 54.8596 484.985 54.8596 484.906V467.984H56.9377C57.0164 467.984 57.092 467.953 57.1476 467.897C57.2033 467.842 57.2346 467.766 57.2346 467.688V467.094C57.2346 467.015 57.2033 466.94 57.1476 466.884C57.092 466.828 57.0164 466.797 56.9377 466.797Z" fill="#212121"/>
<path d="M313 116L339 90L365 116L339 142L313 116Z" fill="#00877C" fill-opacity="0.05"/>
<path fill-rule="evenodd" clip-rule="evenodd" d="M339 92.6667L315.667 116L339 139.333L362.333 116L339 92.6667ZM313 116L339 142L365 116L339 90L313 116Z" fill="#00877C"/>
<path fill-rule="evenodd" clip-rule="evenodd" d="M338.474 106.573V113.527C337.688 113.731 337.106 114.452 337.106 115.309C337.106 116.325 337.922 117.149 338.928 117.149C339.934 117.149 340.75 116.325 340.75 115.309C340.75 114.453 340.17 113.733 339.385 113.528V106.574L340.512 106.576C340.643 106.576 340.802 106.665 340.868 106.778C341.154 107.267 342.122 108.943 345.402 114.683C345.612 115.051 345.549 115.515 345.281 115.842C343.727 117.738 342.917 120.416 342.662 121.383C342.605 121.597 342.414 121.749 342.192 121.749H335.663C335.441 121.749 335.25 121.597 335.193 121.383C334.937 120.416 334.128 117.738 332.574 115.842C332.306 115.515 332.243 115.051 332.453 114.684C335.734 108.938 336.701 107.262 336.986 106.773C337.052 106.661 337.211 106.572 337.341 106.572L338.474 106.573Z" fill="#00877C"/>
<path d="M333.919 124.084C333.919 123.303 334.552 122.67 335.333 122.67H342.525C343.306 122.67 343.939 123.303 343.939 124.084V124.958C343.939 125.218 343.728 125.429 343.467 125.429H334.39C334.13 125.429 333.919 125.218 333.919 124.958V124.084Z" fill="#00877C"/>
<circle cx="339" cy="476" r="12" fill="#EB4748"/>
<path d="M344.317 472.91C344.01 472.621 343.645 472.393 343.244 472.237C342.842 472.081 342.412 472 341.978 472C341.543 472 341.113 472.081 340.712 472.237C340.31 472.393 339.945 472.621 339.638 472.91L339.001 473.508L338.363 472.91C337.743 472.328 336.901 472.001 336.024 472.001C335.146 472.001 334.305 472.328 333.684 472.91C333.064 473.492 332.715 474.281 332.715 475.104C332.715 475.927 333.064 476.717 333.684 477.299L334.322 477.897L339.001 482.286L343.68 477.897L344.317 477.299C344.625 477.011 344.868 476.669 345.035 476.292C345.201 475.915 345.287 475.512 345.287 475.104C345.287 474.697 345.201 474.293 345.035 473.916C344.868 473.54 344.625 473.198 344.317 472.91V472.91Z" fill="white"/>
</g>
<defs>
<radialGradient id="paint0_radial_1_13" cx="0" cy="0" r="1" gradientUnits="userSpaceOnUse" gradientTransform="translate(179 270) rotate(90) scale(270 800)">
<stop offset="0.67205" stop-color="#F6F7F8"/>
<stop offset="1" stop-color="#F6F7F8" stop-opacity="0"/>
</radialGradient>
<clipPath id="clip0_1_13">
<rect width="390" height="540" fill="white"/>
</clipPath>
</defs>
</svg>
