<svg width="1600" height="544" viewBox="0 0 1600 544" fill="none" xmlns="http://www.w3.org/2000/svg">
<mask id="mask0_7301_17337" style="mask-type:alpha" maskUnits="userSpaceOnUse" x="0" y="0" width="1600" height="544">
<rect width="1600" height="544" fill="url(#paint0_radial_7301_17337)"/>
</mask>
<g mask="url(#mask0_7301_17337)">
<line x1="60.5" y1="-2.18557e-08" x2="60.5" y2="581" stroke="#E0E5EB"/>
<line x1="132.5" y1="-2.18557e-08" x2="132.5" y2="581" stroke="#E0E5EB"/>
<line x1="204.5" y1="-2.18557e-08" x2="204.5" y2="581" stroke="#E0E5EB"/>
<line x1="276.5" y1="-2.18557e-08" x2="276.5" y2="581" stroke="#E0E5EB"/>
<line x1="348.5" y1="-2.18557e-08" x2="348.5" y2="581" stroke="#E0E5EB"/>
<line x1="420.5" y1="-2.18557e-08" x2="420.5" y2="581" stroke="#E0E5EB"/>
<line x1="492.5" y1="-2.18557e-08" x2="492.5" y2="581" stroke="#E0E5EB"/>
<line x1="564.5" y1="-2.18557e-08" x2="564.5" y2="581" stroke="#E0E5EB"/>
<line x1="636.5" y1="-2.18557e-08" x2="636.5" y2="581" stroke="#E0E5EB"/>
<line x1="708.5" y1="-2.18557e-08" x2="708.5" y2="581" stroke="#E0E5EB"/>
<line x1="780.5" y1="-2.18557e-08" x2="780.5" y2="581" stroke="#E0E5EB"/>
<line x1="852.5" y1="-2.18557e-08" x2="852.5" y2="581" stroke="#E0E5EB"/>
<line x1="924.5" y1="-2.18557e-08" x2="924.5" y2="581" stroke="#E0E5EB"/>
<line x1="996.5" y1="-2.18557e-08" x2="996.5" y2="581" stroke="#E0E5EB"/>
<line x1="1068.5" y1="-2.18557e-08" x2="1068.5" y2="581" stroke="#E0E5EB"/>
<line x1="1140.5" y1="-2.18557e-08" x2="1140.5" y2="581" stroke="#E0E5EB"/>
<line x1="1212.5" y1="-2.18557e-08" x2="1212.5" y2="581" stroke="#E0E5EB"/>
<line x1="1284.5" y1="-2.18557e-08" x2="1284.5" y2="581" stroke="#E0E5EB"/>
<line x1="1356.5" y1="-2.18557e-08" x2="1356.5" y2="581" stroke="#E0E5EB"/>
<line x1="1428.5" y1="-2.18557e-08" x2="1428.5" y2="581" stroke="#E0E5EB"/>
<line x1="1500.5" y1="-2.18557e-08" x2="1500.5" y2="581" stroke="#E0E5EB"/>
<line x1="1572.5" y1="-2.18557e-08" x2="1572.5" y2="581" stroke="#E0E5EB"/>
<line x1="1600" y1="38.5" x2="3.8332e-08" y2="38.5" stroke="#E0E5EB"/>
<line x1="1600" y1="110.5" x2="3.8332e-08" y2="110.5" stroke="#E0E5EB"/>
<line x1="1600" y1="182.5" x2="3.8332e-08" y2="182.5" stroke="#E0E5EB"/>
<line x1="1600" y1="254.5" x2="3.8332e-08" y2="254.5" stroke="#E0E5EB"/>
<line x1="1600" y1="326.5" x2="3.8332e-08" y2="326.5" stroke="#E0E5EB"/>
<line x1="1600" y1="398.5" x2="3.8332e-08" y2="398.5" stroke="#E0E5EB"/>
<line x1="1600" y1="470.5" x2="3.8332e-08" y2="470.5" stroke="#E0E5EB"/>
<line x1="1600" y1="542.5" x2="3.8332e-08" y2="542.5" stroke="#E0E5EB"/>
<path d="M492.5 452.5L492.5 557.5L564.5 698V611H709.5V646.5H996.5V470.5H1322V385.518" stroke="#A7B1BE" stroke-width="1.5" stroke-linecap="round" stroke-linejoin="round" stroke-dasharray="0 10"/>
<circle cx="888" cy="437" r="13" stroke="#D1D7E0" stroke-width="3"/>
<rect x="438" y="219.971" width="24" height="24" transform="rotate(-45 438 219.971)" stroke="#D1D7E0" stroke-width="3"/>
<rect x="655" y="504.971" width="24" height="24" transform="rotate(-45 655 504.971)" stroke="#D1D7E0" stroke-width="3"/>
<g opacity="0.95" filter="url(#filter0_f_7301_17337)">
<ellipse cx="801.5" cy="255.5" rx="400.5" ry="231.5" fill="#F6F7F8"/>
</g>
</g>
<rect x="1389" y="224" width="80" height="80" transform="rotate(-90 1389 224)" fill="#FFBF00"/>
<circle cx="1429" cy="184" r="32" fill="white"/>
<path d="M1441.5 164.625H1423.66C1418.27 164.625 1413.64 168.763 1413.39 174.142C1413.32 175.494 1413.53 176.846 1414 178.115C1414.48 179.383 1415.2 180.543 1416.14 181.523C1417.07 182.504 1418.19 183.284 1419.44 183.817C1420.68 184.35 1422.02 184.625 1423.38 184.625H1424.63V202.75C1424.63 202.916 1424.69 203.075 1424.81 203.192C1424.93 203.309 1425.08 203.375 1425.25 203.375H1426.5C1426.67 203.375 1426.83 203.309 1426.94 203.192C1427.06 203.075 1427.13 202.916 1427.13 202.75V167.125H1434.63V202.75C1434.63 202.916 1434.69 203.075 1434.81 203.192C1434.93 203.309 1435.08 203.375 1435.25 203.375H1436.5C1436.67 203.375 1436.83 203.309 1436.94 203.192C1437.06 203.075 1437.13 202.916 1437.13 202.75V167.125H1441.5C1441.67 167.125 1441.83 167.059 1441.94 166.942C1442.06 166.825 1442.13 166.666 1442.13 166.5V165.25C1442.13 165.084 1442.06 164.925 1441.94 164.808C1441.83 164.691 1441.67 164.625 1441.5 164.625Z" fill="#212121"/>
<rect x="79.8284" y="399.154" width="74" height="74" transform="rotate(-45 79.8284 399.154)" fill="#00877C" fill-opacity="0.05" stroke="#00877C" stroke-width="4"/>
<path fill-rule="evenodd" clip-rule="evenodd" d="M131.039 379.157V393.909C129.37 394.341 128.136 395.87 128.136 397.689C128.136 399.845 129.867 401.592 132.001 401.592C134.136 401.592 135.866 399.845 135.866 397.689C135.866 395.873 134.636 394.346 132.972 393.911V379.16L135.363 379.162C135.639 379.163 135.977 379.352 136.117 379.591C136.723 380.629 138.776 384.184 145.734 396.361C146.179 397.141 146.047 398.125 145.478 398.82C142.182 402.841 140.464 408.521 139.922 410.572C139.802 411.026 139.395 411.349 138.926 411.349H125.075C124.605 411.349 124.198 411.026 124.078 410.572C123.536 408.521 121.819 402.84 118.523 398.82C117.953 398.125 117.821 397.141 118.266 396.362C125.225 384.174 127.277 380.618 127.882 379.581C128.021 379.343 128.359 379.154 128.635 379.155L131.039 379.157Z" fill="#00877C"/>
<path d="M121.375 416.303C121.375 414.646 122.718 413.303 124.375 413.303H139.631C141.288 413.303 142.631 414.646 142.631 416.303V418.156C142.631 418.708 142.183 419.156 141.631 419.156H122.375C121.823 419.156 121.375 418.708 121.375 418.156V416.303Z" fill="#00877C"/>
<rect x="1249.73" y="245.536" width="13" height="13" transform="rotate(45 1249.73 245.536)" fill="white" stroke="#EB4748" stroke-width="5"/>
<path d="M1166 136L1176 146M1186 156L1176 146M1176 146L1186 136M1176 146L1166 156" stroke="#D1D7E0" stroke-width="3"/>
<rect x="198.5" y="176.5" width="12" height="12" fill="#FFBF00"/>
<rect x="1134.5" y="393" width="12" height="12" fill="#00877C"/>
<rect x="1420" y="470" width="12" height="12" transform="rotate(-45 1420 470)" fill="#EB4748"/>
<path d="M471 434.023L480.231 452H503.769L513 434.023L503.769 416H480.231L471 434.023Z" fill="#FFBF00"/>
<circle cx="492" cy="434" r="10" fill="white"/>
<path fill-rule="evenodd" clip-rule="evenodd" d="M1338 344H1302V380H1338V344ZM1320 371C1324.97 371 1329 366.971 1329 362C1329 357.029 1324.97 353 1320 353C1315.03 353 1311 357.029 1311 362C1311 366.971 1315.03 371 1320 371Z" fill="#0073E6"/>
<circle cx="349" cy="188" r="21" fill="#EB4748"/>
<path d="M358.304 182.591C357.766 182.087 357.128 181.687 356.425 181.414C355.723 181.141 354.97 181 354.209 181C353.449 181 352.696 181.141 351.994 181.414C351.291 181.687 350.653 182.087 350.115 182.591L349 183.638L347.884 182.591C346.798 181.573 345.326 181.001 343.79 181.001C342.254 181.001 340.782 181.573 339.696 182.591C338.61 183.61 338 184.991 338 186.432C338 187.872 338.61 189.254 339.696 190.272L340.811 191.319L349 199L357.188 191.319L358.304 190.272C358.841 189.768 359.268 189.169 359.559 188.51C359.85 187.851 360 187.145 360 186.432C360 185.719 359.85 185.012 359.559 184.353C359.268 183.694 358.841 183.096 358.304 182.591Z" fill="white"/>
<rect x="299" y="379" width="32" height="32" rx="2" transform="rotate(-90 299 379)" fill="#0073E6"/>
<path d="M324.133 356.405L321.595 353.868C321.295 353.568 320.888 353.399 320.464 353.399C320.04 353.399 319.633 353.568 319.333 353.868L317.168 356.033L321.968 360.833L324.133 358.668C324.433 358.368 324.601 357.961 324.601 357.537C324.601 357.112 324.433 356.706 324.133 356.405Z" fill="white"/>
<path d="M316.034 357.165L307 366.199L305.4 372.599L311.8 370.999L320.834 361.965L316.034 357.165Z" fill="white"/>
<defs>
<filter id="filter0_f_7301_17337" x="241" y="-136" width="1121" height="783" filterUnits="userSpaceOnUse" color-interpolation-filters="sRGB">
<feFlood flood-opacity="0" result="BackgroundImageFix"/>
<feBlend mode="normal" in="SourceGraphic" in2="BackgroundImageFix" result="shape"/>
<feGaussianBlur stdDeviation="80" result="effect1_foregroundBlur_7301_17337"/>
</filter>
<radialGradient id="paint0_radial_7301_17337" cx="0" cy="0" r="1" gradientUnits="userSpaceOnUse" gradientTransform="translate(800 272) rotate(90) scale(272 800)">
<stop offset="0.590361" stop-color="#F6F7F8"/>
<stop offset="1" stop-color="#F6F7F8" stop-opacity="0"/>
</radialGradient>
</defs>
</svg>
