<svg width="1600" height="581" viewBox="0 0 1600 581" fill="none" xmlns="http://www.w3.org/2000/svg">
<mask id="mask0_1827_5635" style="mask-type:alpha" maskUnits="userSpaceOnUse" x="0" y="0" width="1600" height="581">
<rect width="1600" height="581" fill="url(#paint0_radial_1827_5635)"/>
</mask>
<g mask="url(#mask0_1827_5635)">
<line x1="60.5" y1="-2.18557e-08" x2="60.5" y2="581" stroke="#E0E5EB"/>
<line x1="132.5" y1="-2.18557e-08" x2="132.5" y2="581" stroke="#E0E5EB"/>
<line x1="204.5" y1="-2.18557e-08" x2="204.5" y2="581" stroke="#E0E5EB"/>
<line x1="276.5" y1="-2.18557e-08" x2="276.5" y2="581" stroke="#E0E5EB"/>
<line x1="348.5" y1="-2.18557e-08" x2="348.5" y2="581" stroke="#E0E5EB"/>
<line x1="420.5" y1="-2.18557e-08" x2="420.5" y2="581" stroke="#E0E5EB"/>
<line x1="492.5" y1="-2.18557e-08" x2="492.5" y2="581" stroke="#E0E5EB"/>
<line x1="564.5" y1="-2.18557e-08" x2="564.5" y2="581" stroke="#E0E5EB"/>
<line x1="636.5" y1="-2.18557e-08" x2="636.5" y2="581" stroke="#E0E5EB"/>
<line x1="708.5" y1="-2.18557e-08" x2="708.5" y2="581" stroke="#E0E5EB"/>
<line x1="780.5" y1="-2.18557e-08" x2="780.5" y2="581" stroke="#E0E5EB"/>
<line x1="852.5" y1="-2.18557e-08" x2="852.5" y2="581" stroke="#E0E5EB"/>
<line x1="924.5" y1="-2.18557e-08" x2="924.5" y2="581" stroke="#E0E5EB"/>
<line x1="996.5" y1="-2.18557e-08" x2="996.5" y2="581" stroke="#E0E5EB"/>
<line x1="1068.5" y1="-2.18557e-08" x2="1068.5" y2="581" stroke="#E0E5EB"/>
<line x1="1140.5" y1="-2.18557e-08" x2="1140.5" y2="581" stroke="#E0E5EB"/>
<line x1="1212.5" y1="-2.18557e-08" x2="1212.5" y2="581" stroke="#E0E5EB"/>
<line x1="1284.5" y1="-2.18557e-08" x2="1284.5" y2="581" stroke="#E0E5EB"/>
<line x1="1356.5" y1="-2.18557e-08" x2="1356.5" y2="581" stroke="#E0E5EB"/>
<line x1="1428.5" y1="-2.18557e-08" x2="1428.5" y2="581" stroke="#E0E5EB"/>
<line x1="1500.5" y1="-2.18557e-08" x2="1500.5" y2="581" stroke="#E0E5EB"/>
<line x1="1572.5" y1="-2.18557e-08" x2="1572.5" y2="581" stroke="#E0E5EB"/>
<line x1="1600" y1="38.5" x2="3.8332e-08" y2="38.5" stroke="#E0E5EB"/>
<line x1="1600" y1="110.5" x2="3.8332e-08" y2="110.5" stroke="#E0E5EB"/>
<line x1="1600" y1="182.5" x2="3.8332e-08" y2="182.5" stroke="#E0E5EB"/>
<line x1="1600" y1="254.5" x2="3.8332e-08" y2="254.5" stroke="#E0E5EB"/>
<line x1="1600" y1="326.5" x2="3.8332e-08" y2="326.5" stroke="#E0E5EB"/>
<line x1="1600" y1="398.5" x2="3.8332e-08" y2="398.5" stroke="#E0E5EB"/>
<line x1="1600" y1="470.5" x2="3.8332e-08" y2="470.5" stroke="#E0E5EB"/>
<line x1="1600" y1="542.5" x2="3.8332e-08" y2="542.5" stroke="#E0E5EB"/>
</g>
<rect x="1316" y="222" width="80" height="80" transform="rotate(-90 1316 222)" fill="#FFBF00"/>
<circle cx="1356" cy="182" r="32" fill="white"/>
<g clip-path="url(#clip0_1827_5635)">
<path d="M1368.5 162.625H1350.66C1345.27 162.625 1340.64 166.763 1340.39 172.142C1340.32 173.494 1340.53 174.846 1341 176.115C1341.48 177.383 1342.2 178.543 1343.14 179.523C1344.07 180.504 1345.19 181.284 1346.44 181.817C1347.68 182.35 1349.02 182.625 1350.38 182.625H1351.63V200.75C1351.63 200.916 1351.69 201.075 1351.81 201.192C1351.93 201.309 1352.08 201.375 1352.25 201.375H1353.5C1353.67 201.375 1353.83 201.309 1353.94 201.192C1354.06 201.075 1354.13 200.916 1354.13 200.75V165.125H1361.63V200.75C1361.63 200.916 1361.69 201.075 1361.81 201.192C1361.93 201.309 1362.08 201.375 1362.25 201.375H1363.5C1363.67 201.375 1363.83 201.309 1363.94 201.192C1364.06 201.075 1364.13 200.916 1364.13 200.75V165.125H1368.5C1368.67 165.125 1368.83 165.059 1368.94 164.942C1369.06 164.825 1369.13 164.666 1369.13 164.5V163.25C1369.13 163.084 1369.06 162.925 1368.94 162.808C1368.83 162.691 1368.67 162.625 1368.5 162.625Z" fill="#212121"/>
</g>
<rect x="151.828" y="399.154" width="74" height="74" transform="rotate(-45 151.828 399.154)" fill="#00877C" fill-opacity="0.05" stroke="#00877C" stroke-width="4"/>
<path fill-rule="evenodd" clip-rule="evenodd" d="M203.039 379.158V393.909C201.37 394.341 200.137 395.87 200.137 397.689C200.137 399.845 201.867 401.592 204.001 401.592C206.136 401.592 207.866 399.845 207.866 397.689C207.866 395.873 206.637 394.346 204.972 393.911V379.16L207.363 379.162C207.639 379.163 207.978 379.352 208.117 379.591C208.723 380.629 210.777 384.184 217.734 396.362C218.18 397.141 218.047 398.125 217.478 398.82C214.182 402.841 212.465 408.521 211.923 410.572C211.803 411.026 211.396 411.349 210.926 411.349H197.075C196.605 411.349 196.198 411.026 196.078 410.572C195.536 408.521 193.819 402.84 190.523 398.82C189.954 398.125 189.821 397.142 190.266 396.362C197.225 384.174 199.277 380.618 199.883 379.581C200.022 379.343 200.359 379.155 200.635 379.155L203.039 379.158Z" fill="#00877C"/>
<path d="M193.375 416.303C193.375 414.646 194.718 413.303 196.375 413.303H211.631C213.288 413.303 214.631 414.646 214.631 416.303V418.156C214.631 418.708 214.183 419.156 213.631 419.156H194.375C193.823 419.156 193.375 418.708 193.375 418.156V416.303Z" fill="#00877C"/>
<path d="M1094 136L1104 146M1114 156L1104 146M1104 146L1114 136M1104 146L1094 156" stroke="#D1D7E0" stroke-width="3"/>
<rect x="332" y="326.971" width="24" height="24" transform="rotate(-45 332 326.971)" stroke="#D1D7E0" stroke-width="3"/>
<rect x="991" y="176" width="12" height="12" fill="#00877C"/>
<rect x="127" y="248" width="12" height="12" fill="#EB4748"/>
<rect x="1420.52" y="325" width="12" height="12" transform="rotate(-45 1420.52 325)" fill="#EB4748"/>
<path d="M363 434.023L372.231 452H395.769L405 434.023L395.769 416H372.231L363 434.023Z" fill="#FFBF00"/>
<circle cx="384" cy="434" r="10" fill="white"/>
<path fill-rule="evenodd" clip-rule="evenodd" d="M1338 344H1302V380H1338V344ZM1320 371C1324.97 371 1329 366.971 1329 362C1329 357.029 1324.97 353 1320 353C1315.03 353 1311 357.029 1311 362C1311 366.971 1315.03 371 1320 371Z" fill="#0073E6"/>
<path fill-rule="evenodd" clip-rule="evenodd" d="M1321 383.5C1321.83 383.5 1322.5 384.172 1322.5 385V385.005C1322.5 385.833 1321.83 386.505 1321 386.505C1320.17 386.505 1319.5 385.833 1319.5 385.005V385C1319.5 384.172 1320.17 383.5 1321 383.5ZM1321 393.578C1321.83 393.578 1322.5 394.25 1322.5 395.078V395.088C1322.5 395.917 1321.83 396.588 1321 396.588C1320.17 396.588 1319.5 395.917 1319.5 395.088V395.078C1319.5 394.25 1320.17 393.578 1321 393.578ZM1321 403.662C1321.83 403.662 1322.5 404.333 1322.5 405.162V405.172C1322.5 406 1321.83 406.672 1321 406.672C1320.17 406.672 1319.5 406 1319.5 405.172V405.162C1319.5 404.333 1320.17 403.662 1321 403.662ZM1321 413.745C1321.83 413.745 1322.5 414.417 1322.5 415.245V415.255C1322.5 416.083 1321.83 416.755 1321 416.755C1320.17 416.755 1319.5 416.083 1319.5 415.255V415.245C1319.5 414.417 1320.17 413.745 1321 413.745ZM1321 423.828C1321.83 423.828 1322.5 424.5 1322.5 425.328V425.338C1322.5 426.167 1321.83 426.838 1321 426.838C1320.17 426.838 1319.5 426.167 1319.5 425.338V425.328C1319.5 424.5 1320.17 423.828 1321 423.828ZM887 434C887 433.172 887.672 432.5 888.5 432.5H888.505C889.333 432.5 890.005 433.172 890.005 434C890.005 434.385 889.859 434.736 889.621 435.002C889.346 435.311 888.946 435.505 888.5 435.505C887.672 435.505 887 434.834 887 434.005V434ZM896.195 434C896.195 433.172 896.867 432.5 897.695 432.5H897.705C898.533 432.5 899.205 433.172 899.205 434C899.205 434.828 898.533 435.5 897.705 435.5H897.695C896.867 435.5 896.195 434.828 896.195 434ZM905.395 434C905.395 433.172 906.067 432.5 906.895 432.5H906.905C907.733 432.5 908.405 433.172 908.405 434C908.405 434.828 907.733 435.5 906.905 435.5H906.895C906.067 435.5 905.395 434.828 905.395 434ZM914.595 434C914.595 433.172 915.267 432.5 916.095 432.5H916.105C916.933 432.5 917.605 433.172 917.605 434C917.605 434.828 916.933 435.5 916.105 435.5H916.095C915.267 435.5 914.595 434.828 914.595 434ZM923.795 434C923.795 433.172 924.467 432.5 925.295 432.5H925.305C926.133 432.5 926.805 433.172 926.805 434C926.805 434.828 926.133 435.5 925.305 435.5H925.295C924.467 435.5 923.795 434.828 923.795 434ZM932.995 434C932.995 433.172 933.667 432.5 934.495 432.5H934.5C935.328 432.5 936 433.172 936 434C936 434.828 935.328 435.5 934.5 435.5H934.495C933.667 435.5 932.995 434.828 932.995 434ZM984 434C984 433.172 984.672 432.5 985.5 432.5H985.505C986.333 432.5 987.005 433.172 987.005 434C987.005 434.828 986.333 435.5 985.505 435.5H985.5C984.672 435.5 984 434.828 984 434ZM994.203 434C994.203 433.172 994.875 432.5 995.703 432.5H995.713C996.542 432.5 997.213 433.172 997.213 434C997.213 434.828 996.542 435.5 995.713 435.5H995.703C994.875 435.5 994.203 434.828 994.203 434ZM1004.41 434C1004.41 433.172 1005.08 432.5 1005.91 432.5H1005.92C1006.75 432.5 1007.42 433.172 1007.42 434C1007.42 434.828 1006.75 435.5 1005.92 435.5H1005.91C1005.08 435.5 1004.41 434.828 1004.41 434ZM1014.62 434C1014.62 433.172 1015.29 432.5 1016.12 432.5H1016.13C1016.96 432.5 1017.63 433.172 1017.63 434C1017.63 434.828 1016.96 435.5 1016.13 435.5H1016.12C1015.29 435.5 1014.62 434.828 1014.62 434ZM1024.83 434C1024.83 433.172 1025.5 432.5 1026.33 432.5H1026.34C1027.17 432.5 1027.84 433.172 1027.84 434C1027.84 434.828 1027.17 435.5 1026.34 435.5H1026.33C1025.5 435.5 1024.83 434.828 1024.83 434ZM1035.04 434C1035.04 433.172 1035.71 432.5 1036.54 432.5H1036.55C1037.38 432.5 1038.05 433.172 1038.05 434C1038.05 434.828 1037.38 435.5 1036.55 435.5H1036.54C1035.71 435.5 1035.04 434.828 1035.04 434ZM1045.24 434C1045.24 433.172 1045.92 432.5 1046.74 432.5H1046.76C1047.58 432.5 1048.26 433.172 1048.26 434C1048.26 434.828 1047.58 435.5 1046.76 435.5H1046.74C1045.92 435.5 1045.24 434.828 1045.24 434ZM1055.45 434C1055.45 433.172 1056.12 432.5 1056.95 432.5H1056.96C1057.79 432.5 1058.46 433.172 1058.46 434C1058.46 434.828 1057.79 435.5 1056.96 435.5H1056.95C1056.12 435.5 1055.45 434.828 1055.45 434ZM1065.66 434C1065.66 433.172 1066.33 432.5 1067.16 432.5H1067.17C1068 432.5 1068.67 433.172 1068.67 434C1068.67 434.828 1068 435.5 1067.17 435.5H1067.16C1066.33 435.5 1065.66 434.828 1065.66 434ZM1075.87 434C1075.87 433.172 1076.54 432.5 1077.37 432.5H1077.38C1078.21 432.5 1078.88 433.172 1078.88 434C1078.88 434.828 1078.21 435.5 1077.38 435.5H1077.37C1076.54 435.5 1075.87 434.828 1075.87 434ZM1086.08 434C1086.08 433.172 1086.75 432.5 1087.58 432.5H1087.59C1088.42 432.5 1089.09 433.172 1089.09 434C1089.09 434.828 1088.42 435.5 1087.59 435.5H1087.58C1086.75 435.5 1086.08 434.828 1086.08 434ZM1096.29 434C1096.29 433.172 1096.96 432.5 1097.79 432.5H1097.8C1098.63 432.5 1099.3 433.172 1099.3 434C1099.3 434.828 1098.63 435.5 1097.8 435.5H1097.79C1096.96 435.5 1096.29 434.828 1096.29 434ZM1106.49 434C1106.49 433.172 1107.17 432.5 1107.99 432.5H1108C1108.83 432.5 1109.5 433.172 1109.5 434V434.005C1109.5 434.834 1108.83 435.505 1108 435.505C1107.58 435.505 1107.2 435.333 1106.93 435.056C1106.66 434.785 1106.49 434.412 1106.49 434ZM1321 433.912C1321.83 433.912 1322.5 434.583 1322.5 435.412V435.422C1322.5 436.25 1321.83 436.922 1321 436.922C1320.17 436.922 1319.5 436.25 1319.5 435.422V435.412C1319.5 434.583 1320.17 433.912 1321 433.912ZM1108 442.781C1108.83 442.781 1109.5 443.452 1109.5 444.281V444.291C1109.5 445.119 1108.83 445.791 1108 445.791C1107.17 445.791 1106.5 445.119 1106.5 444.291V444.281C1106.5 443.452 1107.17 442.781 1108 442.781ZM888.5 442.781C889.328 442.781 890 443.452 890 444.281V444.291C890 445.119 889.328 445.791 888.5 445.791C887.672 445.791 887 445.119 887 444.291V444.281C887 443.452 887.672 442.781 888.5 442.781ZM1321 443.995C1321.83 443.995 1322.5 444.667 1322.5 445.495V445.505C1322.5 446.333 1321.83 447.005 1321 447.005C1320.17 447.005 1319.5 446.333 1319.5 445.505V445.495C1319.5 444.667 1320.17 443.995 1321 443.995ZM888.5 453.066C889.328 453.066 890 453.738 890 454.566V454.577C890 455.405 889.328 456.077 888.5 456.077C887.672 456.077 887 455.405 887 454.577V454.566C887 453.738 887.672 453.066 888.5 453.066ZM1108 453.066C1108.83 453.066 1109.5 453.738 1109.5 454.566V454.577C1109.5 455.405 1108.83 456.077 1108 456.077C1107.17 456.077 1106.5 455.405 1106.5 454.577V454.566C1106.5 453.738 1107.17 453.066 1108 453.066ZM1321 454.078C1321.83 454.078 1322.5 454.75 1322.5 455.578V455.588C1322.5 456.417 1321.83 457.088 1321 457.088C1320.17 457.088 1319.5 456.417 1319.5 455.588V455.578C1319.5 454.75 1320.17 454.078 1321 454.078ZM384 457.5C384.828 457.5 385.5 458.172 385.5 459V459.005C385.5 459.833 384.828 460.505 384 460.505C383.172 460.505 382.5 459.833 382.5 459.005V459C382.5 458.172 383.172 457.5 384 457.5ZM888.5 463.352C889.328 463.352 890 464.024 890 464.852V464.862C890 465.691 889.328 466.362 888.5 466.362C887.672 466.362 887 465.691 887 464.862V464.852C887 464.024 887.672 463.352 888.5 463.352ZM1108 463.352C1108.83 463.352 1109.5 464.024 1109.5 464.852V464.862C1109.5 465.691 1108.83 466.362 1108 466.362C1107.17 466.362 1106.5 465.691 1106.5 464.862V464.852C1106.5 464.024 1107.17 463.352 1108 463.352ZM1321 464.162C1321.83 464.162 1322.5 464.833 1322.5 465.662V465.672C1322.5 466.5 1321.83 467.172 1321 467.172C1320.17 467.172 1319.5 466.5 1319.5 465.672V465.662C1319.5 464.833 1320.17 464.162 1321 464.162ZM384 466.895C384.828 466.895 385.5 467.567 385.5 468.395V468.405C385.5 469.233 384.828 469.905 384 469.905C383.172 469.905 382.5 469.233 382.5 468.405V468.395C382.5 467.567 383.172 466.895 384 466.895ZM1108 473.638C1108.83 473.638 1109.5 474.309 1109.5 475.138V475.148C1109.5 475.976 1108.83 476.648 1108 476.648C1107.17 476.648 1106.5 475.976 1106.5 475.148V475.138C1106.5 474.309 1107.17 473.638 1108 473.638ZM888.5 473.638C889.328 473.638 890 474.309 890 475.138V475.148C890 475.976 889.328 476.648 888.5 476.648C887.672 476.648 887 475.976 887 475.148V475.138C887 474.309 887.672 473.638 888.5 473.638ZM1321 474.245C1321.83 474.245 1322.5 474.917 1322.5 475.745V475.755C1322.5 476.583 1321.83 477.255 1321 477.255C1320.17 477.255 1319.5 476.583 1319.5 475.755V475.745C1319.5 474.917 1320.17 474.245 1321 474.245ZM384 476.295C384.828 476.295 385.5 476.967 385.5 477.795V477.805C385.5 478.633 384.828 479.305 384 479.305C383.172 479.305 382.5 478.633 382.5 477.805V477.795C382.5 476.967 383.172 476.295 384 476.295ZM1108 483.923C1108.83 483.923 1109.5 484.595 1109.5 485.423V485.434C1109.5 486.262 1108.83 486.934 1108 486.934C1107.17 486.934 1106.5 486.262 1106.5 485.434V485.423C1106.5 484.595 1107.17 483.923 1108 483.923ZM888.5 483.923C889.328 483.923 890 484.595 890 485.423V485.434C890 486.262 889.328 486.934 888.5 486.934C887.672 486.934 887 486.262 887 485.434V485.423C887 484.595 887.672 483.923 888.5 483.923ZM1321 484.328C1321.83 484.328 1322.5 485 1322.5 485.828V485.838C1322.5 486.667 1321.83 487.338 1321 487.338C1320.17 487.338 1319.5 486.667 1319.5 485.838V485.828C1319.5 485 1320.17 484.328 1321 484.328ZM384 485.695C384.828 485.695 385.5 486.367 385.5 487.195V487.205C385.5 488.033 384.828 488.705 384 488.705C383.172 488.705 382.5 488.033 382.5 487.205V487.195C382.5 486.367 383.172 485.695 384 485.695ZM888.5 494.209C889.328 494.209 890 494.881 890 495.709V495.719C890 496.548 889.328 497.219 888.5 497.219C887.672 497.219 887 496.548 887 495.719V495.709C887 494.881 887.672 494.209 888.5 494.209ZM1108 494.209C1108.83 494.209 1109.5 494.881 1109.5 495.709V495.719C1109.5 496.548 1108.83 497.219 1108 497.219C1107.17 497.219 1106.5 496.548 1106.5 495.719V495.709C1106.5 494.881 1107.17 494.209 1108 494.209ZM1321 494.412C1321.83 494.412 1322.5 495.083 1322.5 495.912V495.922C1322.5 496.75 1321.83 497.422 1321 497.422C1320.17 497.422 1319.5 496.75 1319.5 495.922V495.912C1319.5 495.083 1320.17 494.412 1321 494.412ZM384 495.095C384.828 495.095 385.5 495.767 385.5 496.595V496.605C385.5 497.433 384.828 498.105 384 498.105C383.172 498.105 382.5 497.433 382.5 496.605V496.595C382.5 495.767 383.172 495.095 384 495.095ZM1109.07 504.944C1108.8 504.667 1108.42 504.495 1108 504.495C1107.17 504.495 1106.5 505.166 1106.5 505.995V506C1106.5 506.828 1107.17 507.5 1108 507.5H1108.01C1108.83 507.5 1109.51 506.828 1109.51 506C1109.51 505.588 1109.34 505.215 1109.07 504.944ZM888.5 504.495C889.328 504.495 890 505.166 890 505.995V506C890 506.828 889.328 507.5 888.5 507.5H888.495C887.667 507.5 886.995 506.828 886.995 506C886.995 505.592 887.158 505.222 887.422 504.952C887.695 504.67 888.077 504.495 888.5 504.495ZM1321 504.495C1321.83 504.495 1322.5 505.167 1322.5 505.995V506C1322.5 506.828 1321.83 507.5 1321 507.5H1320.99C1320.17 507.5 1319.49 506.828 1319.49 506C1319.49 505.58 1319.67 505.2 1319.95 504.927C1320.22 504.66 1320.59 504.495 1321 504.495ZM385.025 504.9C384.757 504.649 384.396 504.495 384 504.495C383.172 504.495 382.5 505.167 382.5 505.995V506C382.5 506.828 383.172 507.5 384 507.5H384.005C384.833 507.5 385.505 506.828 385.505 506C385.505 505.566 385.32 505.174 385.025 504.9ZM392.585 506C392.585 505.172 393.257 504.5 394.085 504.5H394.095C394.923 504.5 395.595 505.172 395.595 506C395.595 506.828 394.923 507.5 394.095 507.5H394.085C393.257 507.5 392.585 506.828 392.585 506ZM402.675 506C402.675 505.172 403.347 504.5 404.175 504.5H404.185C405.013 504.5 405.685 505.172 405.685 506C405.685 506.828 405.013 507.5 404.185 507.5H404.175C403.347 507.5 402.675 506.828 402.675 506ZM412.765 506C412.765 505.172 413.437 504.5 414.265 504.5H414.275C415.103 504.5 415.775 505.172 415.775 506C415.775 506.828 415.103 507.5 414.275 507.5H414.265C413.437 507.5 412.765 506.828 412.765 506ZM422.855 506C422.855 505.172 423.527 504.5 424.355 504.5H424.365C425.193 504.5 425.865 505.172 425.865 506C425.865 506.828 425.193 507.5 424.365 507.5H424.355C423.527 507.5 422.855 506.828 422.855 506ZM432.945 506C432.945 505.172 433.617 504.5 434.445 504.5H434.455C435.283 504.5 435.955 505.172 435.955 506C435.955 506.828 435.283 507.5 434.455 507.5H434.445C433.617 507.5 432.945 506.828 432.945 506ZM443.035 506C443.035 505.172 443.707 504.5 444.535 504.5H444.545C445.373 504.5 446.045 505.172 446.045 506C446.045 506.828 445.373 507.5 444.545 507.5H444.535C443.707 507.5 443.035 506.828 443.035 506ZM453.125 506C453.125 505.172 453.797 504.5 454.625 504.5H454.635C455.463 504.5 456.135 505.172 456.135 506C456.135 506.828 455.463 507.5 454.635 507.5H454.625C453.797 507.5 453.125 506.828 453.125 506ZM463.215 506C463.215 505.172 463.887 504.5 464.715 504.5H464.725C465.553 504.5 466.225 505.172 466.225 506C466.225 506.828 465.553 507.5 464.725 507.5H464.715C463.887 507.5 463.215 506.828 463.215 506ZM473.305 506C473.305 505.172 473.977 504.5 474.805 504.5H474.815C475.643 504.5 476.315 505.172 476.315 506C476.315 506.828 475.643 507.5 474.815 507.5H474.805C473.977 507.5 473.305 506.828 473.305 506ZM483.395 506C483.395 505.172 484.067 504.5 484.895 504.5H484.905C485.733 504.5 486.405 505.172 486.405 506C486.405 506.828 485.733 507.5 484.905 507.5H484.895C484.067 507.5 483.395 506.828 483.395 506ZM493.485 506C493.485 505.172 494.157 504.5 494.985 504.5H494.995C495.823 504.5 496.495 505.172 496.495 506C496.495 506.828 495.823 507.5 494.995 507.5H494.985C494.157 507.5 493.485 506.828 493.485 506ZM503.575 506C503.575 505.172 504.247 504.5 505.075 504.5H505.085C505.913 504.5 506.585 505.172 506.585 506C506.585 506.828 505.913 507.5 505.085 507.5H505.075C504.247 507.5 503.575 506.828 503.575 506ZM513.665 506C513.665 505.172 514.337 504.5 515.165 504.5H515.175C516.003 504.5 516.675 505.172 516.675 506C516.675 506.828 516.003 507.5 515.175 507.5H515.165C514.337 507.5 513.665 506.828 513.665 506ZM523.755 506C523.755 505.172 524.427 504.5 525.255 504.5H525.265C526.093 504.5 526.765 505.172 526.765 506C526.765 506.828 526.093 507.5 525.265 507.5H525.255C524.427 507.5 523.755 506.828 523.755 506ZM533.845 506C533.845 505.172 534.517 504.5 535.345 504.5H535.355C536.183 504.5 536.855 505.172 536.855 506C536.855 506.828 536.183 507.5 535.355 507.5H535.345C534.517 507.5 533.845 506.828 533.845 506ZM543.935 506C543.935 505.172 544.607 504.5 545.435 504.5H545.445C546.273 504.5 546.945 505.172 546.945 506C546.945 506.828 546.273 507.5 545.445 507.5H545.435C544.607 507.5 543.935 506.828 543.935 506ZM554.025 506C554.025 505.172 554.697 504.5 555.525 504.5H555.535C556.363 504.5 557.035 505.172 557.035 506C557.035 506.828 556.363 507.5 555.535 507.5H555.525C554.697 507.5 554.025 506.828 554.025 506ZM564.115 506C564.115 505.172 564.787 504.5 565.615 504.5H565.625C566.454 504.5 567.125 505.172 567.125 506C567.125 506.828 566.454 507.5 565.625 507.5H565.615C564.787 507.5 564.115 506.828 564.115 506ZM574.205 506C574.205 505.172 574.877 504.5 575.705 504.5H575.715C576.544 504.5 577.215 505.172 577.215 506C577.215 506.828 576.544 507.5 575.715 507.5H575.705C574.877 507.5 574.205 506.828 574.205 506ZM584.295 506C584.295 505.172 584.967 504.5 585.795 504.5H585.805C586.634 504.5 587.305 505.172 587.305 506C587.305 506.828 586.634 507.5 585.805 507.5H585.795C584.967 507.5 584.295 506.828 584.295 506ZM594.385 506C594.385 505.172 595.057 504.5 595.885 504.5H595.895C596.724 504.5 597.395 505.172 597.395 506C597.395 506.828 596.724 507.5 595.895 507.5H595.885C595.057 507.5 594.385 506.828 594.385 506ZM604.475 506C604.475 505.172 605.147 504.5 605.975 504.5H605.985C606.814 504.5 607.485 505.172 607.485 506C607.485 506.828 606.814 507.5 605.985 507.5H605.975C605.147 507.5 604.475 506.828 604.475 506ZM614.565 506C614.565 505.172 615.237 504.5 616.065 504.5H616.075C616.904 504.5 617.575 505.172 617.575 506C617.575 506.828 616.904 507.5 616.075 507.5H616.065C615.237 507.5 614.565 506.828 614.565 506ZM624.655 506C624.655 505.172 625.327 504.5 626.155 504.5H626.165C626.994 504.5 627.665 505.172 627.665 506C627.665 506.828 626.994 507.5 626.165 507.5H626.155C625.327 507.5 624.655 506.828 624.655 506ZM634.745 506C634.745 505.172 635.417 504.5 636.245 504.5H636.255C637.084 504.5 637.755 505.172 637.755 506C637.755 506.828 637.084 507.5 636.255 507.5H636.245C635.417 507.5 634.745 506.828 634.745 506ZM644.835 506C644.835 505.172 645.507 504.5 646.335 504.5H646.345C647.174 504.5 647.845 505.172 647.845 506C647.845 506.828 647.174 507.5 646.345 507.5H646.335C645.507 507.5 644.835 506.828 644.835 506ZM654.925 506C654.925 505.172 655.597 504.5 656.425 504.5H656.435C657.264 504.5 657.935 505.172 657.935 506C657.935 506.828 657.264 507.5 656.435 507.5H656.425C655.597 507.5 654.925 506.828 654.925 506ZM665.015 506C665.015 505.172 665.687 504.5 666.515 504.5H666.525C667.354 504.5 668.025 505.172 668.025 506C668.025 506.828 667.354 507.5 666.525 507.5H666.515C665.687 507.5 665.015 506.828 665.015 506ZM675.105 506C675.105 505.172 675.777 504.5 676.605 504.5H676.615C677.444 504.5 678.115 505.172 678.115 506C678.115 506.828 677.444 507.5 676.615 507.5H676.605C675.777 507.5 675.105 506.828 675.105 506ZM685.195 506C685.195 505.172 685.867 504.5 686.695 504.5H686.705C687.534 504.5 688.205 505.172 688.205 506C688.205 506.828 687.534 507.5 686.705 507.5H686.695C685.867 507.5 685.195 506.828 685.195 506ZM695.285 506C695.285 505.172 695.957 504.5 696.785 504.5H696.795C697.624 504.5 698.295 505.172 698.295 506C698.295 506.828 697.624 507.5 696.795 507.5H696.785C695.957 507.5 695.285 506.828 695.285 506ZM705.375 506C705.375 505.172 706.047 504.5 706.875 504.5H706.885C707.714 504.5 708.385 505.172 708.385 506C708.385 506.828 707.714 507.5 706.885 507.5H706.875C706.047 507.5 705.375 506.828 705.375 506ZM715.465 506C715.465 505.172 716.137 504.5 716.965 504.5H716.975C717.804 504.5 718.475 505.172 718.475 506C718.475 506.828 717.804 507.5 716.975 507.5H716.965C716.137 507.5 715.465 506.828 715.465 506ZM725.555 506C725.555 505.172 726.227 504.5 727.055 504.5H727.065C727.894 504.5 728.565 505.172 728.565 506C728.565 506.828 727.894 507.5 727.065 507.5H727.055C726.227 507.5 725.555 506.828 725.555 506ZM735.645 506C735.645 505.172 736.317 504.5 737.145 504.5H737.155C737.984 504.5 738.655 505.172 738.655 506C738.655 506.828 737.984 507.5 737.155 507.5H737.145C736.317 507.5 735.645 506.828 735.645 506ZM745.735 506C745.735 505.172 746.407 504.5 747.235 504.5H747.245C748.074 504.5 748.745 505.172 748.745 506C748.745 506.828 748.074 507.5 747.245 507.5H747.235C746.407 507.5 745.735 506.828 745.735 506ZM755.825 506C755.825 505.172 756.497 504.5 757.325 504.5H757.335C758.164 504.5 758.835 505.172 758.835 506C758.835 506.828 758.164 507.5 757.335 507.5H757.325C756.497 507.5 755.825 506.828 755.825 506ZM765.915 506C765.915 505.172 766.587 504.5 767.415 504.5H767.425C768.254 504.5 768.925 505.172 768.925 506C768.925 506.828 768.254 507.5 767.425 507.5H767.415C766.587 507.5 765.915 506.828 765.915 506ZM776.005 506C776.005 505.172 776.677 504.5 777.505 504.5H777.515C778.344 504.5 779.015 505.172 779.015 506C779.015 506.828 778.344 507.5 777.515 507.5H777.505C776.677 507.5 776.005 506.828 776.005 506ZM786.095 506C786.095 505.172 786.767 504.5 787.595 504.5H787.605C788.434 504.5 789.105 505.172 789.105 506C789.105 506.828 788.434 507.5 787.605 507.5H787.595C786.767 507.5 786.095 506.828 786.095 506ZM796.185 506C796.185 505.172 796.857 504.5 797.685 504.5H797.695C798.524 504.5 799.195 505.172 799.195 506C799.195 506.828 798.524 507.5 797.695 507.5H797.685C796.857 507.5 796.185 506.828 796.185 506ZM806.275 506C806.275 505.172 806.947 504.5 807.775 504.5H807.785C808.614 504.5 809.285 505.172 809.285 506C809.285 506.828 808.614 507.5 807.785 507.5H807.775C806.947 507.5 806.275 506.828 806.275 506ZM816.365 506C816.365 505.172 817.037 504.5 817.865 504.5H817.875C818.704 504.5 819.375 505.172 819.375 506C819.375 506.828 818.704 507.5 817.875 507.5H817.865C817.037 507.5 816.365 506.828 816.365 506ZM826.455 506C826.455 505.172 827.127 504.5 827.955 504.5H827.965C828.794 504.5 829.465 505.172 829.465 506C829.465 506.828 828.794 507.5 827.965 507.5H827.955C827.127 507.5 826.455 506.828 826.455 506ZM836.545 506C836.545 505.172 837.217 504.5 838.045 504.5H838.055C838.883 504.5 839.555 505.172 839.555 506C839.555 506.828 838.883 507.5 838.055 507.5H838.045C837.217 507.5 836.545 506.828 836.545 506ZM846.635 506C846.635 505.172 847.307 504.5 848.135 504.5H848.145C848.974 504.5 849.645 505.172 849.645 506C849.645 506.828 848.974 507.5 848.145 507.5H848.135C847.307 507.5 846.635 506.828 846.635 506ZM856.725 506C856.725 505.172 857.397 504.5 858.225 504.5H858.235C859.064 504.5 859.735 505.172 859.735 506C859.735 506.828 859.064 507.5 858.235 507.5H858.225C857.397 507.5 856.725 506.828 856.725 506ZM866.815 506C866.815 505.172 867.487 504.5 868.315 504.5H868.325C869.154 504.5 869.825 505.172 869.825 506C869.825 506.828 869.154 507.5 868.325 507.5H868.315C867.487 507.5 866.815 506.828 866.815 506ZM876.905 506C876.905 505.172 877.577 504.5 878.405 504.5H878.415C879.243 504.5 879.915 505.172 879.915 506C879.915 506.828 879.243 507.5 878.415 507.5H878.405C877.577 507.5 876.905 506.828 876.905 506ZM1116.64 506C1116.64 505.172 1117.31 504.5 1118.14 504.5H1118.15C1118.98 504.5 1119.65 505.172 1119.65 506C1119.65 506.828 1118.98 507.5 1118.15 507.5H1118.14C1117.31 507.5 1116.64 506.828 1116.64 506ZM1126.78 506C1126.78 505.172 1127.45 504.5 1128.28 504.5H1128.29C1129.12 504.5 1129.79 505.172 1129.79 506C1129.79 506.828 1129.12 507.5 1128.29 507.5H1128.28C1127.45 507.5 1126.78 506.828 1126.78 506ZM1136.92 506C1136.92 505.172 1137.6 504.5 1138.42 504.5H1138.43C1139.26 504.5 1139.93 505.172 1139.93 506C1139.93 506.828 1139.26 507.5 1138.43 507.5H1138.42C1137.6 507.5 1136.92 506.828 1136.92 506ZM1147.07 506C1147.07 505.172 1147.74 504.5 1148.57 504.5H1148.58C1149.4 504.5 1150.08 505.172 1150.08 506C1150.08 506.828 1149.4 507.5 1148.58 507.5H1148.57C1147.74 507.5 1147.07 506.828 1147.07 506ZM1157.21 506C1157.21 505.172 1157.88 504.5 1158.71 504.5H1158.72C1159.55 504.5 1160.22 505.172 1160.22 506C1160.22 506.828 1159.55 507.5 1158.72 507.5H1158.71C1157.88 507.5 1157.21 506.828 1157.21 506ZM1167.35 506C1167.35 505.172 1168.02 504.5 1168.85 504.5H1168.86C1169.69 504.5 1170.36 505.172 1170.36 506C1170.36 506.828 1169.69 507.5 1168.86 507.5H1168.85C1168.02 507.5 1167.35 506.828 1167.35 506ZM1177.49 506C1177.49 505.172 1178.17 504.5 1178.99 504.5H1179.01C1179.83 504.5 1180.51 505.172 1180.51 506C1180.51 506.828 1179.83 507.5 1179.01 507.5H1178.99C1178.17 507.5 1177.49 506.828 1177.49 506ZM1187.64 506C1187.64 505.172 1188.31 504.5 1189.14 504.5H1189.15C1189.98 504.5 1190.65 505.172 1190.65 506C1190.65 506.828 1189.98 507.5 1189.15 507.5H1189.14C1188.31 507.5 1187.64 506.828 1187.64 506ZM1197.78 506C1197.78 505.172 1198.45 504.5 1199.28 504.5H1199.29C1200.12 504.5 1200.79 505.172 1200.79 506C1200.79 506.828 1200.12 507.5 1199.29 507.5H1199.28C1198.45 507.5 1197.78 506.828 1197.78 506ZM1207.92 506C1207.92 505.172 1208.6 504.5 1209.42 504.5H1209.43C1210.26 504.5 1210.93 505.172 1210.93 506C1210.93 506.828 1210.26 507.5 1209.43 507.5H1209.42C1208.6 507.5 1207.92 506.828 1207.92 506ZM1218.07 506C1218.07 505.172 1218.74 504.5 1219.57 504.5H1219.58C1220.4 504.5 1221.08 505.172 1221.08 506C1221.08 506.828 1220.4 507.5 1219.58 507.5H1219.57C1218.74 507.5 1218.07 506.828 1218.07 506ZM1228.21 506C1228.21 505.172 1228.88 504.5 1229.71 504.5H1229.72C1230.55 504.5 1231.22 505.172 1231.22 506C1231.22 506.828 1230.55 507.5 1229.72 507.5H1229.71C1228.88 507.5 1228.21 506.828 1228.21 506ZM1238.35 506C1238.35 505.172 1239.02 504.5 1239.85 504.5H1239.86C1240.69 504.5 1241.36 505.172 1241.36 506C1241.36 506.828 1240.69 507.5 1239.86 507.5H1239.85C1239.02 507.5 1238.35 506.828 1238.35 506ZM1248.49 506C1248.49 505.172 1249.17 504.5 1249.99 504.5H1250.01C1250.83 504.5 1251.51 505.172 1251.51 506C1251.51 506.828 1250.83 507.5 1250.01 507.5H1249.99C1249.17 507.5 1248.49 506.828 1248.49 506ZM1258.64 506C1258.64 505.172 1259.31 504.5 1260.14 504.5H1260.15C1260.98 504.5 1261.65 505.172 1261.65 506C1261.65 506.828 1260.98 507.5 1260.15 507.5H1260.14C1259.31 507.5 1258.64 506.828 1258.64 506ZM1268.78 506C1268.78 505.172 1269.45 504.5 1270.28 504.5H1270.29C1271.12 504.5 1271.79 505.172 1271.79 506C1271.79 506.828 1271.12 507.5 1270.29 507.5H1270.28C1269.45 507.5 1268.78 506.828 1268.78 506ZM1278.92 506C1278.92 505.172 1279.6 504.5 1280.42 504.5H1280.43C1281.26 504.5 1281.93 505.172 1281.93 506C1281.93 506.828 1281.26 507.5 1280.43 507.5H1280.42C1279.6 507.5 1278.92 506.828 1278.92 506ZM1289.07 506C1289.07 505.172 1289.74 504.5 1290.57 504.5H1290.58C1291.4 504.5 1292.08 505.172 1292.08 506C1292.08 506.828 1291.4 507.5 1290.58 507.5H1290.57C1289.74 507.5 1289.07 506.828 1289.07 506ZM1299.21 506C1299.21 505.172 1299.88 504.5 1300.71 504.5H1300.72C1301.55 504.5 1302.22 505.172 1302.22 506C1302.22 506.828 1301.55 507.5 1300.72 507.5H1300.71C1299.88 507.5 1299.21 506.828 1299.21 506ZM1309.35 506C1309.35 505.172 1310.02 504.5 1310.85 504.5H1310.86C1311.69 504.5 1312.36 505.172 1312.36 506C1312.36 506.828 1311.69 507.5 1310.86 507.5H1310.85C1310.02 507.5 1309.35 506.828 1309.35 506Z" fill="#A7B1BE"/>
<circle cx="960" cy="434" r="21" fill="#EB4748"/>
<path d="M969.304 428.591C968.766 428.087 968.128 427.687 967.425 427.414C966.723 427.141 965.97 427 965.209 427C964.449 427 963.696 427.141 962.994 427.414C962.291 427.687 961.653 428.087 961.115 428.591L960 429.638L958.884 428.591C957.798 427.573 956.326 427.001 954.79 427.001C953.254 427.001 951.782 427.573 950.696 428.591C949.61 429.61 949 430.991 949 432.432C949 433.872 949.61 435.254 950.696 436.272L951.811 437.319L960 445L968.188 437.319L969.304 436.272C969.841 435.768 970.268 435.169 970.559 434.51C970.85 433.851 971 433.145 971 432.432C971 431.719 970.85 431.012 970.559 430.353C970.268 429.694 969.841 429.096 969.304 428.591V428.591Z" fill="white"/>
<defs>
<radialGradient id="paint0_radial_1827_5635" cx="0" cy="0" r="1" gradientUnits="userSpaceOnUse" gradientTransform="translate(800 290.5) rotate(90) scale(290.5 800)">
<stop offset="0.590361" stop-color="#F6F7F8"/>
<stop offset="1" stop-color="#F6F7F8" stop-opacity="0"/>
</radialGradient>
<clipPath id="clip0_1827_5635">
<rect width="40" height="40" fill="white" transform="translate(1336 162)"/>
</clipPath>
</defs>
</svg>
