<svg width="1600" height="581" viewBox="0 0 1600 581" fill="none" xmlns="http://www.w3.org/2000/svg">
<mask id="mask0_1_79" style="mask-type:alpha" maskUnits="userSpaceOnUse" x="0" y="0" width="1600" height="581">
<rect width="1600" height="581" fill="url(#paint0_radial_1_79)"/>
</mask>
<g mask="url(#mask0_1_79)">
<line x1="60.5" y1="-2.18557e-08" x2="60.5" y2="581" stroke="#E0E5EB"/>
<line x1="132.5" y1="-2.18557e-08" x2="132.5" y2="581" stroke="#E0E5EB"/>
<line x1="204.5" y1="-2.18557e-08" x2="204.5" y2="581" stroke="#E0E5EB"/>
<line x1="276.5" y1="-2.18557e-08" x2="276.5" y2="581" stroke="#E0E5EB"/>
<line x1="348.5" y1="-2.18557e-08" x2="348.5" y2="581" stroke="#E0E5EB"/>
<line x1="420.5" y1="-2.18557e-08" x2="420.5" y2="581" stroke="#E0E5EB"/>
<line x1="492.5" y1="-2.18557e-08" x2="492.5" y2="581" stroke="#E0E5EB"/>
<line x1="564.5" y1="-2.18557e-08" x2="564.5" y2="581" stroke="#E0E5EB"/>
<line x1="636.5" y1="-2.18557e-08" x2="636.5" y2="581" stroke="#E0E5EB"/>
<line x1="708.5" y1="-2.18557e-08" x2="708.5" y2="581" stroke="#E0E5EB"/>
<line x1="780.5" y1="-2.18557e-08" x2="780.5" y2="581" stroke="#E0E5EB"/>
<line x1="852.5" y1="-2.18557e-08" x2="852.5" y2="581" stroke="#E0E5EB"/>
<line x1="924.5" y1="-2.18557e-08" x2="924.5" y2="581" stroke="#E0E5EB"/>
<line x1="996.5" y1="-2.18557e-08" x2="996.5" y2="581" stroke="#E0E5EB"/>
<line x1="1068.5" y1="-2.18557e-08" x2="1068.5" y2="581" stroke="#E0E5EB"/>
<line x1="1140.5" y1="-2.18557e-08" x2="1140.5" y2="581" stroke="#E0E5EB"/>
<line x1="1212.5" y1="-2.18557e-08" x2="1212.5" y2="581" stroke="#E0E5EB"/>
<line x1="1284.5" y1="-2.18557e-08" x2="1284.5" y2="581" stroke="#E0E5EB"/>
<line x1="1356.5" y1="-2.18557e-08" x2="1356.5" y2="581" stroke="#E0E5EB"/>
<line x1="1428.5" y1="-2.18557e-08" x2="1428.5" y2="581" stroke="#E0E5EB"/>
<line x1="1500.5" y1="-2.18557e-08" x2="1500.5" y2="581" stroke="#E0E5EB"/>
<line x1="1572.5" y1="-2.18557e-08" x2="1572.5" y2="581" stroke="#E0E5EB"/>
<line x1="1600" y1="38.5" x2="-6.09968e-05" y2="38.5" stroke="#E0E5EB"/>
<line x1="1600" y1="110.5" x2="-6.09968e-05" y2="110.5" stroke="#E0E5EB"/>
<line x1="1600" y1="182.5" x2="-6.09968e-05" y2="182.5" stroke="#E0E5EB"/>
<line x1="1600" y1="254.5" x2="-6.09968e-05" y2="254.5" stroke="#E0E5EB"/>
<line x1="1600" y1="326.5" x2="-6.09968e-05" y2="326.5" stroke="#E0E5EB"/>
<line x1="1600" y1="398.5" x2="-6.09968e-05" y2="398.5" stroke="#E0E5EB"/>
<line x1="1600" y1="470.5" x2="3.8332e-08" y2="470.5" stroke="#E0E5EB"/>
<line x1="1600" y1="542.5" x2="3.8332e-08" y2="542.5" stroke="#E0E5EB"/>
</g>
<rect x="1316" y="222" width="80" height="80" transform="rotate(-90 1316 222)" fill="#FFBF00"/>
<circle cx="1356" cy="182" r="32" fill="white"/>
<g clip-path="url(#clip0_1_79)">
<path d="M1368.5 162.625H1350.66C1345.27 162.625 1340.64 166.763 1340.39 172.142C1340.32 173.494 1340.53 174.846 1341 176.115C1341.48 177.383 1342.2 178.543 1343.14 179.523C1344.07 180.504 1345.19 181.284 1346.44 181.817C1347.68 182.35 1349.02 182.625 1350.38 182.625H1351.63V200.75C1351.63 200.916 1351.69 201.075 1351.81 201.192C1351.93 201.309 1352.08 201.375 1352.25 201.375H1353.5C1353.67 201.375 1353.83 201.309 1353.94 201.192C1354.06 201.075 1354.13 200.916 1354.13 200.75V165.125H1361.63V200.75C1361.63 200.916 1361.69 201.075 1361.81 201.192C1361.93 201.309 1362.08 201.375 1362.25 201.375H1363.5C1363.67 201.375 1363.83 201.309 1363.94 201.192C1364.06 201.075 1364.13 200.916 1364.13 200.75V165.125H1368.5C1368.67 165.125 1368.83 165.059 1368.94 164.942C1369.06 164.825 1369.13 164.666 1369.13 164.5V163.25C1369.13 163.084 1369.06 162.925 1368.94 162.808C1368.83 162.691 1368.67 162.625 1368.5 162.625Z" fill="#212121"/>
</g>
<rect x="151.828" y="399.154" width="74" height="74" transform="rotate(-45 151.828 399.154)" fill="#00877C" fill-opacity="0.05" stroke="#00877C" stroke-width="4"/>
<path fill-rule="evenodd" clip-rule="evenodd" d="M203.039 379.158V393.909C201.37 394.341 200.137 395.87 200.137 397.689C200.137 399.845 201.867 401.592 204.001 401.592C206.136 401.592 207.866 399.845 207.866 397.689C207.866 395.873 206.637 394.346 204.972 393.911V379.16L207.363 379.162C207.639 379.163 207.978 379.352 208.117 379.591C208.723 380.629 210.777 384.184 217.734 396.362C218.18 397.141 218.047 398.125 217.478 398.82C214.182 402.841 212.465 408.521 211.923 410.572C211.803 411.026 211.396 411.349 210.926 411.349H197.075C196.605 411.349 196.198 411.026 196.078 410.572C195.536 408.521 193.819 402.84 190.523 398.82C189.954 398.125 189.821 397.142 190.266 396.362C197.225 384.174 199.277 380.618 199.883 379.581C200.022 379.343 200.359 379.155 200.635 379.155L203.039 379.158Z" fill="#00877C"/>
<path d="M193.375 416.303C193.375 414.646 194.718 413.303 196.375 413.303H211.631C213.288 413.303 214.631 414.646 214.631 416.303V418.156C214.631 418.708 214.183 419.156 213.631 419.156H194.375C193.823 419.156 193.375 418.708 193.375 418.156V416.303Z" fill="#00877C"/>
<path d="M1094 136L1104 146M1114 156L1104 146M1104 146L1114 136M1104 146L1094 156" stroke="#D1D7E0" stroke-width="3"/>
<rect x="730" y="60" width="28" height="28" stroke="#D1D7E0" stroke-width="3"/>
<rect x="332" y="326.971" width="24" height="24" transform="rotate(-45 332 326.971)" stroke="#D1D7E0" stroke-width="3"/>
<rect x="991" y="176" width="12" height="12" fill="#00877C"/>
<rect x="127" y="248" width="12" height="12" fill="#EB4748"/>
<rect x="1420.52" y="325" width="12" height="12" transform="rotate(-45 1420.52 325)" fill="#EB4748"/>
<path d="M363 434.023L372.231 452H395.769L405 434.023L395.769 416H372.231L363 434.023Z" fill="#FFBF00"/>
<circle cx="384" cy="434" r="10" fill="white"/>
<path fill-rule="evenodd" clip-rule="evenodd" d="M1338 344H1302V380H1338V344ZM1320 371C1324.97 371 1329 366.971 1329 362C1329 357.029 1324.97 353 1320 353C1315.03 353 1311 357.029 1311 362C1311 366.971 1315.03 371 1320 371Z" fill="#0073E6"/>
<path d="M1321 385V506H1108V434H985.5" stroke="#A7B1BE" stroke-width="3" stroke-linecap="round" stroke-linejoin="round" stroke-dasharray="0.01 10"/>
<path d="M384 459V506H888.5V434H934.5" stroke="#A7B1BE" stroke-width="3" stroke-linecap="round" stroke-linejoin="round" stroke-dasharray="0.01 10"/>
<circle cx="960" cy="434" r="21" fill="#EB4748"/>
<path d="M969.304 428.591C968.766 428.087 968.128 427.687 967.425 427.414C966.723 427.141 965.97 427 965.209 427C964.449 427 963.696 427.141 962.994 427.414C962.291 427.687 961.653 428.087 961.115 428.591L960 429.638L958.884 428.591C957.798 427.573 956.326 427.001 954.79 427.001C953.254 427.001 951.782 427.573 950.696 428.591C949.61 429.61 949 430.991 949 432.432C949 433.872 949.61 435.254 950.696 436.272L951.811 437.319L960 445L968.188 437.319L969.304 436.272C969.841 435.768 970.268 435.169 970.559 434.51C970.85 433.851 971 433.145 971 432.432C971 431.719 970.85 431.012 970.559 430.353C970.268 429.694 969.841 429.096 969.304 428.591V428.591Z" fill="white"/>
<defs>
<radialGradient id="paint0_radial_1_79" cx="0" cy="0" r="1" gradientUnits="userSpaceOnUse" gradientTransform="translate(800 290.5) rotate(90) scale(290.5 800)">
<stop offset="0.590361" stop-color="#F6F7F8"/>
<stop offset="1" stop-color="#F6F7F8" stop-opacity="0"/>
</radialGradient>
<clipPath id="clip0_1_79">
<rect width="40" height="40" fill="white" transform="translate(1336 162)"/>
</clipPath>
</defs>
</svg>
