<?xml version="1.0" encoding="UTF-8"?>
<svg xmlns="http://www.w3.org/2000/svg" xmlns:xlink="http://www.w3.org/1999/xlink" width="180px" height="173px" viewBox="0 0 661 130" version="1.1">
<g id="surface1">
<path style=" stroke:none;fill-rule:nonzero;fill:rgb(0%,0%,0%);fill-opacity:1;" d="M 643.644531 79.183594 C 641.925781 76.347656 640.140625 74.570312 638.191406 73.367188 C 646.128906 70.730469 649.691406 66.140625 649.691406 58.0625 C 649.691406 45.8125 642.253906 39.863281 626.953125 39.863281 L 603.722656 39.863281 L 603.722656 101.347656 L 619.347656 101.347656 C 619.347656 101.347656 619.347656 78.300781 619.347656 77.089844 C 620.082031 77.089844 621.332031 77.089844 621.332031 77.089844 C 624.851562 77.089844 626.121094 78.03125 628.871094 82.738281 L 639.734375 101.347656 L 656.785156 101.347656 Z M 619.347656 51.726562 C 620.40625 51.726562 626.460938 51.726562 626.460938 51.726562 C 632.542969 51.726562 634.488281 53.472656 634.488281 58.890625 C 634.488281 64.269531 632.316406 66.273438 626.460938 66.273438 C 626.460938 66.273438 620.40625 66.273438 619.347656 66.273438 L 619.347656 51.726562 M 565.019531 88.878906 L 565.019531 76.003906 C 566.203125 76.003906 585.8125 76.003906 585.8125 76.003906 L 585.8125 64.121094 C 585.8125 64.121094 566.203125 64.121094 565.019531 64.121094 L 565.019531 52.320312 C 566.230469 52.320312 591.359375 52.320312 591.359375 52.320312 L 591.359375 39.863281 L 549.414062 39.863281 L 549.414062 101.347656 L 592.613281 101.347656 L 593.714844 88.878906 C 593.714844 88.878906 566.230469 88.878906 565.019531 88.878906 M 517.390625 68.828125 C 517.984375 68.066406 540.253906 39.863281 540.253906 39.863281 L 524.019531 39.863281 C 524.019531 39.863281 506.105469 63.460938 504.078125 66.105469 C 504.078125 62.867188 504.078125 39.863281 504.078125 39.863281 L 488.46875 39.863281 L 488.46875 101.347656 L 504.078125 101.347656 C 504.078125 101.347656 504.078125 78.617188 504.078125 75.34375 C 506.105469 78.015625 523.703125 101.347656 523.703125 101.347656 L 542.253906 101.347656 C 542.253906 101.347656 517.984375 69.605469 517.390625 68.828125 M 462.035156 39.863281 C 462.035156 39.863281 462.035156 70.070312 462.035156 73.46875 C 459.96875 70.707031 436.886719 39.863281 436.886719 39.863281 L 423.78125 39.863281 L 423.78125 101.347656 L 437.027344 101.347656 C 437.027344 101.347656 437.027344 67.59375 437.027344 64.179688 C 439.113281 66.949219 464.878906 101.347656 464.878906 101.347656 L 475.28125 101.347656 L 475.28125 39.863281 L 462.035156 39.863281 M 385.070312 88.878906 L 385.070312 76.003906 C 386.246094 76.003906 405.875 76.003906 405.875 76.003906 L 405.875 64.121094 C 405.875 64.121094 386.246094 64.121094 385.070312 64.121094 L 385.070312 52.320312 C 386.269531 52.320312 411.414062 52.320312 411.414062 52.320312 L 411.414062 39.863281 L 369.457031 39.863281 L 369.457031 101.347656 L 412.671875 101.347656 L 413.753906 88.878906 C 413.753906 88.878906 386.269531 88.878906 385.070312 88.878906 M 340.660156 39.863281 C 340.660156 39.863281 340.660156 62.503906 340.660156 63.710938 L 319.082031 63.710938 C 319.082031 62.503906 319.082031 39.863281 319.082031 39.863281 L 303.464844 39.863281 L 303.464844 101.347656 L 319.082031 101.347656 C 319.082031 101.347656 319.082031 77.222656 319.082031 76.003906 L 340.660156 76.003906 C 340.660156 77.222656 340.660156 101.347656 340.660156 101.347656 L 356.277344 101.347656 L 356.277344 39.863281 L 340.660156 39.863281 M 292.214844 87.4375 C 286.441406 89.613281 282.6875 90.375 277.824219 90.375 C 267.714844 90.375 263.777344 84.898438 263.777344 70.8125 C 263.777344 56.117188 267.605469 50.660156 277.910156 50.660156 C 282.6875 50.660156 286.867188 51.519531 291.871094 53.507812 L 292.730469 53.855469 L 292.730469 41.132812 L 292.324219 40.972656 C 287.625 39.246094 282.921875 38.453125 277.5 38.453125 C 269.082031 38.453125 261.917969 40.847656 256.777344 45.402344 C 250.347656 51.078125 247.355469 59.171875 247.355469 70.898438 C 247.355469 80.835938 249.390625 87.945312 253.769531 93.253906 C 258.875 99.363281 266.90625 102.582031 277.007812 102.582031 C 282.664062 102.582031 288.09375 101.421875 292.699219 99.210938 L 293.054688 99.050781 L 293.054688 87.121094 L 292.214844 87.4375 M 225.207031 64.503906 C 225.214844 64.515625 224.230469 64.089844 224.230469 64.089844 C 217.941406 61.351562 217.691406 61.25 216.199219 60.183594 C 214.136719 58.714844 213.453125 57.570312 213.453125 55.660156 C 213.453125 52.296875 216.222656 50.578125 221.703125 50.578125 C 226.550781 50.578125 230.09375 51.410156 235.726562 53.925781 L 236.609375 54.308594 L 236.609375 41.457031 L 236.191406 41.296875 C 230.78125 39.304688 226.25 38.453125 221.054688 38.453125 C 207.074219 38.453125 199.066406 45.261719 199.066406 57.144531 C 199.066406 66.089844 203.054688 71.230469 213.3125 75.460938 C 224.207031 80.050781 225.242188 81.203125 225.242188 84.558594 C 225.242188 88.472656 221.988281 90.457031 215.582031 90.457031 C 210.058594 90.457031 205.878906 89.347656 199.640625 86.226562 L 198.722656 85.769531 L 198.722656 98.625 L 199.089844 98.8125 C 204.886719 101.496094 209.949219 102.582031 216.566406 102.582031 C 231.855469 102.582031 240.28125 95.773438 240.28125 83.398438 C 240.28125 74.019531 236.476562 69.253906 225.207031 64.503906 "/>
<path style=" stroke:none;fill-rule:nonzero;fill:rgb(100%,0%,0%);fill-opacity:1;" d="M 51.914062 101.339844 L 25.699219 101.339844 L 25.699219 28.824219 L 51.914062 28.824219 C 70.382812 28.824219 80.277344 40.574219 80.277344 64.746094 C 80.277344 85.734375 73.6875 101.171875 51.914062 101.339844 Z M 63.300781 66.257812 C 63.300781 51.644531 61.808594 40.246094 46.308594 40.246094 L 42.839844 40.246094 L 42.839844 89.582031 L 48.945312 89.582031 C 58.011719 89.582031 63.300781 82.203125 63.300781 66.257812 M 115.566406 101.339844 L 87.867188 101.339844 L 87.867188 28.824219 L 116.894531 28.824219 C 130.582031 28.824219 137.996094 34.539062 137.996094 48.132812 C 137.996094 55.183594 132.226562 60.214844 125.960938 63.402344 C 134.703125 65.914062 140.632812 71.296875 140.632812 80.351562 C 140.632812 95.128906 128.429688 101.339844 115.566406 101.339844 Z M 104.847656 57.527344 L 110.789062 57.527344 C 116.394531 57.527344 120.515625 55.019531 120.515625 48.800781 C 120.515625 41.917969 115.234375 40.070312 109.628906 40.070312 L 104.847656 40.070312 Z M 122.492188 80.019531 C 122.492188 72.632812 117.878906 70.957031 111.121094 70.957031 L 104.847656 70.957031 L 104.847656 89.582031 L 110.953125 89.582031 C 117.0625 89.582031 122.492188 87.570312 122.492188 80.019531 M 144.597656 9.695312 L 19.917969 9.695312 C 11.351562 9.695312 4.261719 16.570312 4.261719 25.46875 L 4.261719 104.527344 C 4.261719 113.421875 11.351562 120.472656 19.917969 120.472656 L 144.597656 120.472656 C 153.003906 120.472656 160.101562 113.421875 160.101562 104.527344 L 160.101562 25.46875 C 160.101562 16.570312 153.003906 9.695312 144.597656 9.695312 Z M 148.71875 104.527344 C 148.71875 107.046875 147.066406 109.066406 144.597656 109.066406 L 19.917969 109.066406 C 17.449219 109.066406 15.636719 107.046875 15.636719 104.527344 L 15.636719 25.46875 C 15.636719 22.949219 17.449219 20.9375 19.917969 20.9375 L 144.597656 20.9375 C 147.066406 20.9375 148.71875 22.949219 148.71875 25.46875 L 148.71875 104.527344 "/>
</g>
</svg>
