<svg width="200" height="40" viewBox="0 0 200 40" fill="none" xmlns="http://www.w3.org/2000/svg">
<path d="M14.9919 10.686C14.9919 8.53719 12.9278 8 11.2982 8V8.32231C12.2759 8.32231 13.0364 8.64463 13.0364 9.39669C13.0364 9.82645 12.7105 10.4711 11.7328 10.4711C10.9723 10.4711 9.34275 10.0413 8.14775 9.61157C6.73547 9.07438 5.43183 8.64463 4.34546 8.64463C2.17273 8.64463 0.65182 10.2562 0.65182 12.0826C0.65182 13.6942 1.84682 14.2314 2.28137 14.4463L2.39001 14.2314C2.17273 14.0165 1.84682 13.8017 1.84682 13.157C1.84682 12.7273 2.28137 11.9752 3.36773 11.9752C4.34546 11.9752 5.6491 12.405 7.38729 12.9421C8.9082 13.3719 10.5378 13.6942 11.4068 13.8017V17.1322L9.77729 18.5289V18.6364L11.4068 20.0331V24.6529C10.5378 25.1901 9.56002 25.2975 8.69093 25.2975C7.06138 25.2975 5.6491 24.8678 4.4541 23.5785L8.9082 21.4298V14.0165L3.47637 16.3802C3.91092 14.9835 5.10592 14.0165 6.30092 13.3719L6.19229 13.0496C2.93319 13.9091 0 16.9174 0 20.5702C0 24.8678 3.58501 28.0909 7.60456 28.0909C11.95 28.0909 14.7746 24.6529 14.7746 21.1074H14.5573C13.9055 22.5041 12.9278 23.7934 11.7328 24.438V20.0331L13.4709 18.6364V18.5289L11.7328 17.1322V13.8017C13.3623 13.8017 14.9919 12.7273 14.9919 10.686ZM5.54047 22.5041L4.23683 23.1488C3.47637 22.1818 3.04182 20.8926 3.04182 19.0661C3.04182 18.314 3.04183 17.4545 3.2591 16.8099L5.54047 15.843V22.5041ZM17.0559 24.9752L15.6437 26.0496L15.8609 26.2645L16.5128 25.7273L18.9028 27.876L22.1619 25.7273L22.0532 25.5124L21.1841 26.0496L20.0978 24.9752V17.6694L20.9669 17.0248L22.8137 18.5289V25.0826C22.8137 29.1653 21.9446 29.8099 20.0978 30.4545V30.7769C23.1396 30.8843 25.9641 29.9174 25.9641 24.6529V17.562L26.9419 16.8099L26.7246 16.595L25.8555 17.2397L23.1396 14.9835L20.0978 17.2397V8.42975H19.8805L16.0782 11.0083V11.2231C16.5128 11.438 17.1646 11.6529 17.1646 12.8347L17.0559 24.9752ZM36.9364 23.7934L34.2205 25.8347L31.5046 23.686V22.3967L36.6105 18.9587V18.8512L34.0033 14.9835L28.3542 17.9917V25.0826L27.2678 25.9422L27.4851 26.157L28.4628 25.405L32.1564 28.0909L37.0451 24.2231L36.9364 23.7934ZM31.5046 21.9669V16.7025L31.7219 16.595L34.1119 20.3554L31.5046 21.9669ZM57.686 9.71901C57.686 9.39669 57.5774 9.07438 57.4688 8.75207H57.2515C56.9256 9.61157 56.491 10.0413 55.4047 10.0413C54.4269 10.0413 53.7751 9.50413 53.3406 9.07438L50.1901 12.6198L50.4074 12.8347L51.4938 11.8678C52.1456 12.405 52.6888 12.8347 54.2097 12.9421V21.8595L47.8001 11.0083C47.2569 10.1488 46.4965 8.96694 44.9756 8.96694C43.2374 8.96694 41.7165 10.4711 41.9337 12.8347H42.2596C42.3683 12.1901 42.6942 11.438 43.4546 11.438C43.9978 11.438 44.541 11.9752 44.8669 12.5124V16.0579C42.9115 16.0579 41.6078 16.9174 41.6078 18.5289C41.6078 19.3884 42.0424 20.6777 43.346 21V20.7851C43.1287 20.5702 43.0201 20.3554 43.0201 20.0331C43.0201 19.4959 43.4546 19.0661 44.2151 19.0661H44.7583V23.5785C42.4769 23.5785 40.6301 24.8678 40.6301 27.0165C40.6301 29.0579 42.3683 30.0248 44.3237 29.9174V29.7025C43.1287 29.595 42.5855 29.0578 42.5855 28.3058C42.5855 27.3388 43.2374 26.9091 44.1065 26.9091C44.9756 26.9091 45.736 27.4463 46.2792 28.0909L49.4297 24.6529L49.2124 24.438L48.4519 25.2975C47.2569 24.2231 46.6051 23.9008 45.1928 23.686V12.9421L53.8838 27.9835H54.5356V12.9421C56.1651 12.8347 57.686 11.5455 57.686 9.71901ZM65.6165 23.7934L62.9006 25.8347L60.1847 23.686V22.3967L65.2906 18.9587V18.8512L62.6833 14.9835L57.0342 17.9917V25.0826L55.9479 25.9422L56.1651 26.157L57.1429 25.405L60.8365 28.0909L65.7251 24.2231L65.6165 23.7934ZM60.1847 21.9669V16.7025L60.402 16.595L62.792 20.3554L60.1847 21.9669ZM83.3243 16.1653L82.5638 16.7025L80.4997 14.9835L78.1097 17.1322L79.0875 18.0992V26.157L76.4802 24.5455V17.8843L77.3493 17.3471L74.8506 14.9835L72.4606 17.1322L73.4383 18.0992V25.8347L73.1124 26.0496L70.8311 24.438V17.9917C70.8311 16.4876 70.0706 16.0579 69.2015 15.5207C68.4411 14.9835 68.0065 14.6612 68.0065 13.9091C68.0065 13.2645 68.6583 12.9421 68.9842 12.7273V12.5124C68.1152 12.5124 65.8338 13.3719 65.8338 15.4132C65.8338 16.4876 66.377 16.9174 66.9202 17.4545C67.4633 17.9917 68.0065 18.4215 68.0065 19.3884V25.6198L66.8115 26.4793L67.0288 26.6942L68.1152 25.8347L70.6138 27.9835L73.3297 26.157L76.3715 27.9835L82.1293 24.6529V17.4545L83.5415 16.3802L83.3243 16.1653ZM103.531 10.2562L102.444 11.2231L100.054 9.07438L96.4693 11.6529V9.28926H96.1434L96.252 26.6942C95.9261 26.6942 94.9484 26.4793 94.1879 26.2645L93.9707 11.7603C93.9707 10.686 93.2102 9.18182 91.2547 9.18182C89.2993 9.18182 87.9957 10.686 87.9957 12.1901H88.3216C88.4302 11.5455 88.7561 11.0083 89.4079 11.0083C90.0597 11.0083 90.6029 11.438 90.6029 12.8347V17.0248C88.6475 17.1322 87.4525 18.2066 87.4525 19.6033C87.4525 20.4628 87.887 21.7521 89.1907 21.7521V21.5372C88.7561 21.3223 88.6475 21 88.6475 20.7851C88.6475 20.1405 89.1907 19.9256 90.0597 19.9256H90.4943V26.5868C88.8647 27.124 88.2129 28.3058 88.2129 29.595C88.2129 31.4215 89.6252 32.7107 91.7979 32.7107C93.3188 32.7107 94.6225 32.4959 95.9261 32.1736C97.0125 31.9587 98.4248 31.6364 99.0766 31.6364C99.9457 31.6364 100.272 32.0661 100.272 32.6033C100.272 33.3554 99.9457 33.6777 99.5111 33.7851V34C101.249 33.6777 102.336 32.6033 102.336 30.9917C102.336 29.3802 100.706 28.4132 98.9679 28.4132C98.0989 28.4132 96.252 28.7355 94.9484 28.9504C93.4275 29.2727 91.9066 29.4876 91.472 29.4876C90.7116 29.4876 89.8425 29.1653 89.8425 28.0909C89.8425 27.2314 90.6029 26.4793 92.4498 26.4793C93.4275 26.4793 94.6225 26.5868 95.8175 26.9091C97.1211 27.2314 98.3161 27.5537 99.4025 27.5537C101.032 27.5537 102.444 27.0165 102.444 24.7603V11.5455L103.748 10.4711L103.531 10.2562ZM99.0766 16.8099C98.7507 17.1322 98.3161 17.4545 97.7729 17.4545C97.2298 17.4545 96.6866 17.1322 96.4693 16.8099V12.0826L97.5557 11.3306L99.0766 12.7273V16.8099ZM99.0766 20.0331C98.8593 19.8182 98.3161 19.4959 97.7729 19.4959C97.2298 19.4959 96.6866 19.8182 96.4693 20.0331V17.2397C96.6866 17.4545 97.2298 17.7769 97.7729 17.7769C98.3161 17.7769 98.8593 17.4545 99.0766 17.2397V20.0331ZM99.0766 25.0826C99.0766 25.9421 98.5334 26.8017 97.3384 26.8017H96.4693V20.4628C96.6866 20.2479 97.2298 19.9256 97.7729 19.9256C98.3161 19.9256 98.7507 20.2479 99.0766 20.4628V25.0826ZM113.96 17.4545L110.483 14.9835L105.16 17.9917V24.9752L104.074 25.8347L104.183 26.0496L105.052 25.405L108.528 27.9835L113.96 24.7603V17.4545ZM108.093 24.2231V16.4876L110.809 18.4215V26.0496L108.093 24.2231ZM124.28 15.1983H124.063C123.737 15.4132 123.411 15.6281 123.085 15.6281C122.651 15.6281 122.108 15.4132 121.89 15.0909H121.673L119.826 17.1322L117.979 15.0909L114.72 17.2397L114.829 17.4545L115.698 16.9174L116.784 18.0992V24.8678L115.372 25.9422L115.589 26.157L116.241 25.6198L118.848 27.7686L122.216 25.5124L122.108 25.2975L121.13 25.8347L119.826 24.7603V17.2397C120.369 17.7769 121.021 18.314 121.782 18.314C123.303 18.4215 124.172 16.9174 124.28 15.1983ZM137.317 25.5124L133.623 27.9835L128.626 20.4628L132.211 14.9835H132.428C132.863 15.4132 133.514 15.843 134.275 15.843C135.035 15.843 135.578 15.4132 135.904 14.9835H136.122C136.013 17.1322 134.492 18.4215 133.406 18.4215C132.319 18.4215 131.776 17.8843 131.124 17.562L130.798 18.0992L136.23 26.0496L137.317 25.405V25.5124ZM125.367 24.9752L123.954 26.0496L124.172 26.2645L124.823 25.7273L127.213 27.876L130.473 25.7273L130.255 25.5124L129.386 26.0496L128.3 24.9752V8.42975H128.191L124.28 11.0083V11.2231C124.715 11.438 125.367 11.5455 125.367 12.8347V24.9752ZM155.35 10.686C155.35 8.53719 153.286 8 151.657 8V8.32231C152.634 8.32231 153.395 8.64463 153.395 9.39669C153.395 9.82645 153.069 10.4711 152.091 10.4711C151.331 10.4711 149.701 10.0413 148.506 9.61157C147.094 9.18182 145.79 8.75207 144.704 8.75207C142.531 8.75207 141.01 10.3636 141.01 12.1901C141.01 13.8017 142.205 14.3388 142.64 14.5537L142.748 14.3388C142.423 14.124 142.097 13.9091 142.097 13.2645C142.097 12.8347 142.531 12.0826 143.618 12.0826C144.595 12.0826 145.899 12.5124 147.637 13.0496C149.158 13.4793 150.788 13.8017 151.657 13.9091V17.2397L150.027 18.6364V18.7438L151.657 20.1405V24.7603C150.788 25.2975 149.81 25.405 148.941 25.405C147.311 25.405 145.899 24.9752 144.704 23.686L149.158 21.5372V14.0165L143.726 16.3802C144.269 14.9835 145.464 14.0165 146.551 13.2645L146.442 13.0496C143.183 13.9091 140.25 16.8099 140.25 20.4628C140.25 24.7603 143.835 27.9835 147.854 27.9835C152.2 27.9835 155.024 24.5455 155.024 21H154.807C154.155 22.3967 153.178 23.686 151.983 24.3306V19.9256L153.721 18.5289V18.4215L152.091 17.0248V13.8017C153.721 13.8017 155.35 12.7273 155.35 10.686ZM145.899 22.5041L144.595 23.1488C143.835 22.1818 143.4 20.8926 143.4 19.0661C143.4 18.314 143.509 17.4545 143.726 16.8099L146.008 15.843L145.899 22.5041ZM159.153 9.61157H159.044L156.871 11.438V11.5455L158.718 13.5868H158.935L161.108 11.7603V11.6529L159.153 9.61157ZM162.412 25.5124L161.543 26.0496L160.456 24.9752V17.562L161.543 16.8099L161.325 16.595L160.565 17.2397L158.609 14.9835L155.459 17.1322L155.676 17.4545L156.437 16.9174L157.414 18.0992V25.0826L156.002 26.157L156.111 26.3719L156.871 25.8347L159.261 27.9835L162.52 25.8347L162.412 25.5124ZM180.554 25.405L179.794 25.9422L178.599 24.8678V17.562L179.685 16.7025L179.468 16.4876L178.599 17.2397L176.1 14.9835L172.841 17.2397L170.342 14.9835L167.3 17.2397L165.345 14.9835L162.194 17.1322L162.303 17.4545L163.064 16.9174L164.15 18.0992V25.0826L163.281 25.9422L165.779 27.9835L168.169 25.8347L167.192 24.8678V17.562L168.169 16.9174L169.799 18.4215V24.8678L168.93 25.7273L171.429 27.7686L173.819 25.6198L172.841 24.6529V17.562L173.71 17.0248L175.448 18.5289V24.9752L174.688 25.7273L177.186 27.9835L180.554 25.7273V25.405ZM190.005 23.7934L187.29 25.8347L184.574 23.686V22.3967L189.68 18.9587V18.8512L187.072 14.9835L181.423 17.9917V25.2975L185.225 27.9835L190.114 24.1157L190.005 23.7934ZM184.574 21.9669V16.7025L184.791 16.595L187.181 20.3554L184.574 21.9669ZM199.891 21L197.827 19.3884C199.24 18.2066 199.783 16.595 199.783 15.5207V14.876H199.565C199.348 15.4132 198.914 15.9504 198.045 15.9504C197.175 15.9504 196.632 15.5207 196.089 14.876L191.2 17.562V21.4298L193.047 22.8264C191.2 24.438 190.875 25.5124 190.875 26.3719C190.875 27.4463 191.418 28.1983 192.287 28.5207L192.395 28.3058C192.178 28.0909 191.961 27.9835 191.961 27.4463C191.961 27.124 192.395 26.5868 193.265 26.5868C194.351 26.5868 195.003 27.3388 195.329 27.6612L200 24.8678V21H199.891ZM198.696 17.7769C197.936 19.0661 196.306 20.3554 195.329 21L194.134 20.0331V16.2727C194.568 17.3471 195.763 18.2066 196.958 18.2066C197.719 18.2066 198.153 18.0992 198.696 17.7769ZM196.85 26.3719C196.306 25.1901 195.003 24.3306 193.699 24.3306C193.373 24.3306 192.504 24.3306 191.635 24.8678C192.178 24.0083 193.59 22.5041 195.437 21.4298L196.741 22.5041L196.85 26.3719Z" fill="black"/>
</svg>
