<?xml version="1.0" encoding="UTF-8" standalone="no"?>
<!-- Created with Inkscape (http://www.inkscape.org/) -->

<svg
   version="1.0"
   width="89.888138"
   height="46.755932"
   id="svg3633"
   xmlns="http://www.w3.org/2000/svg"
   xmlns:svg="http://www.w3.org/2000/svg">
  <defs
     id="defs3635" />
  <g
     transform="matrix(0.12684214,0,0,0.12709165,-84.681459,-53.878785)"
     id="layer1">
    <g
       transform="translate(17.716521,17.668446)"
       id="g20076">
      <path
         d="m 1129.2583,547.45529 c -4.412,-3.24421 -11.4196,-5.32045 -18.1674,-5.19077 -7.3968,0.12979 -14.4043,2.4656 -19.3355,6.35862 v -46.4568 h -22.9689 v 151.5687 h 22.9689 v -79.15828 c 0,-5.45023 4.6716,-11.54939 13.2364,-11.93864 3.7632,-0.12978 9.0837,1.55721 11.8089,5.58002 2.8548,4.15249 2.725,9.86229 2.725,15.96144 l -0.1298,69.55546 h 22.9689 v -70.33406 c 0,-20.76286 -2.5953,-28.15965 -13.1065,-35.94569"
         style="fill:#0078c1;fill-rule:nonzero;stroke:none"
         id="path19828" />
      <path
         d="m 942.39286,599.4921 c 0,14.79358 -0.51914,18.94607 -0.64882,20.24382 -0.77861,8.30507 -4.28238,16.99951 -13.8852,16.99951 -9.47304,0 -13.36606,-9.34326 -13.75541,-17.38887 -0.12968,0 -0.64882,-5.06088 -0.64882,-19.85446 0,-14.79349 0.51914,-21.02232 0.64882,-21.02232 0,-8.43497 4.41216,-16.74005 13.75541,-16.74005 9.47304,0 13.75541,8.30508 13.8852,16.61027 0,0.12978 0.64882,6.35861 0.64882,21.1521 z m 22.19027,-17.9079 c -3.2442,-32.31214 -21.67124,-39.31968 -36.72429,-39.31968 -21.41167,0 -34.38848,13.62563 -36.72429,39.31968 -0.25947,2.07624 -0.51904,5.83948 -0.64882,17.9079 -0.12979,8.82422 0.51914,16.09122 0.64882,17.908 1.42753,24.00695 15.18283,38.67075 36.72429,38.67075 21.54146,0 35.29687,-14.92326 36.85408,-38.67075 0.12968,-1.68699 0.51903,-9.08378 0.51903,-17.908 0,-4.02281 -0.25957,-14.79349 -0.64882,-17.9079"
         style="fill:#0078c1;fill-rule:nonzero;stroke:none"
         id="path19830" />
      <path
         d="m 1180.7761,585.86647 c 0.1298,-5.06088 0.1298,-6.09905 0.2596,-7.52647 0.6488,-9.08379 4.6716,-16.61027 14.0148,-16.61027 11.0303,-0.12978 13.6257,10.6409 14.0149,16.61027 0.2596,3.2442 0.3894,5.32044 0.3894,7.52647 z m 28.4191,30.36567 c 0,0 0,1.687 -0.2596,3.76324 -0.6488,5.32055 -2.725,16.74005 -13.8851,16.74005 -9.6028,0 -13.2362,-8.69444 -13.885,-17.25908 -0.1298,-2.4656 -0.5192,-5.19067 -0.5192,-14.53402 h 51.2583 c 0,0 0,-7.65626 -0.1298,-12.1981 0,-1.81678 -0.1297,-4.80141 -0.5191,-11.16003 -0.7786,-9.73261 -4.4121,-20.3735 -9.9921,-27.12147 -6.3586,-8.04562 -15.4424,-12.19821 -26.2131,-12.19821 -20.7628,0 -33.7395,13.49584 -36.2051,39.31968 -0.2596,2.33581 -0.6489,5.58001 -0.6489,17.9079 0,8.82422 0.5191,16.22101 0.6489,17.908 1.2976,23.6177 15.3125,38.67075 36.2051,38.67075 20.7629,0 34.648,-14.6638 36.2052,-39.83871 h -22.0605"
         style="fill:#0078c1;fill-rule:nonzero;stroke:none"
         id="path19832" />
      <path
         d="m 817.81585,424.82484 h 373.47145 l 142.7445,167.14078 -142.7445,164.80497 H 817.81585 L 674.42255,591.44648 Z M 1200.2412,406.26802 H 808.73206 L 649.89646,590.79767 808.86185,774.15946 H 1200.2412 L 1358.5579,591.44648 1200.2412,406.26802"
         style="fill:#0078c1;fill-rule:nonzero;stroke:none"
         id="path19834" />
      <path
         d="m 822.48747,522.79941 h 10.77068 c 11.80885,0 18.29726,6.22884 18.55683,17.38887 0,0.90839 0.12978,1.81678 0.12978,3.50377 0,2.07624 0,2.72506 -0.12978,3.63345 -0.64882,6.61819 -3.63346,18.16747 -17.38887,18.16747 H 822.48747 Z M 876.8601,644.262 c 0,0 -2.33581,-37.11354 -2.33581,-37.11354 -1.03807,-16.61026 -5.32045,-26.47265 -14.01488,-31.53363 6.22883,-3.76324 14.27445,-12.97671 14.14466,-32.31214 0,-29.3275 -18.29725,-39.70892 -39.83871,-39.96839 h -35.0372 v 150.40074 h 22.57953 l 0.12978,-68.77686 h 12.58746 c 7.26701,0 15.44241,6.35862 16.74005,24.26652 l 2.33581,35.16709 c 0.25957,5.06088 1.16796,9.34325 1.16796,9.34325 h 22.70931 c 0,0 -1.03818,-4.15259 -1.16796,-9.47304"
         style="fill:#0078c1;fill-rule:nonzero;stroke:none"
         id="path19836" />
      <path
         d="m 1031.673,615.19397 c 0,1.68699 -0.1298,3.11452 -0.2596,4.15259 -0.6488,8.43497 -3.5036,17.38887 -13.8851,17.38887 -9.473,0 -13.2362,-9.73251 -14.0148,-16.86973 -0.3894,-4.28238 -0.2596,-7.65636 -0.3894,-20.3736 -0.1298,-14.79349 0.3894,-18.68651 0.6488,-21.02232 0.7786,-9.47304 4.4122,-16.74005 13.7554,-16.74005 9.7326,-0.12978 13.7554,8.30508 13.8851,16.61027 0,0.12978 0.2596,2.07624 0.3894,6.4884 h 22.7093 c 0,-1.55721 -0.1298,-2.85495 -0.1298,-3.50377 -2.5953,-31.40375 -21.8009,-39.06011 -36.854,-39.06011 -21.41164,0 -34.38845,13.62563 -36.72426,39.31968 -0.25946,2.07624 -0.51903,5.83948 -0.64882,17.9079 -0.12978,8.82422 0.51904,16.09122 0.64882,17.908 1.42743,24.00695 15.18284,38.67075 36.72426,38.67075 22.3201,0.12979 34.648,-13.49584 36.854,-38.67075 0,-0.90839 0.1298,-1.55721 0.1298,-2.20613 h -22.8391"
         style="fill:#0078c1;fill-rule:nonzero;stroke:none"
         id="path19838" />
    </g>
  </g>
</svg>
