<?xml version="1.0" encoding="utf-8"?>
<!-- Generator: Adobe Illustrator 16.0.0, SVG Export Plug-In . SVG Version: 6.00 Build 0)  -->
<!DOCTYPE svg PUBLIC "-//W3C//DTD SVG 1.1//EN" "http://www.w3.org/Graphics/SVG/1.1/DTD/svg11.dtd">
<svg version="1.1" id="Layer_1" xmlns="http://www.w3.org/2000/svg" xmlns:xlink="http://www.w3.org/1999/xlink" x="0px" y="0px"
	 width="157px" height="38.717px" viewBox="0 0 157 38.717" enable-background="new 0 0 157 38.717" xml:space="preserve">
<g>
	<path fill="#146E37" d="M23.374,12.07c-0.008,1.588-0.42,2.388-0.931,2.447c-0.334,0.04-0.72-0.237-1.07-0.812
		c-1.146-1.882-2.4-3.677-3.732-5.438c0-0.003,0.002-0.007,0.003-0.011c0.517-2.779,1.344-5.613,2.759-8.078
		C22.173,3.746,23.395,8.102,23.374,12.07 M16.729,11.978c1.251,1.121,1.594,2.017,1.314,2.504c-0.183,0.32-0.64,0.471-1.309,0.392
		c-2.243-0.264-4.48-0.367-6.744-0.384c-0.002-0.003-0.005-0.007-0.007-0.01c-2.138-2.543-4.071-5.409-5.313-8.502
		C8.905,6.981,13.489,9.076,16.729,11.978 M12.457,17.778c1.672-0.353,2.586-0.062,2.791,0.49c0.135,0.361-0.032,0.846-0.506,1.363
		c-1.565,1.708-3,3.503-4.377,5.372h-0.013c-3.371,0.249-6.877,0.11-10.167-0.711C3.537,21.324,8.08,18.701,12.457,17.778
		 M14.367,24.932c0.731-1.556,1.512-2.141,2.049-1.978c0.353,0.106,0.612,0.533,0.707,1.219c0.301,2.166,0.736,4.289,1.267,6.415
		c-0.002,0.002-0.005,0.006-0.007,0.01c-1.833,2.603-3.801,5.107-6.269,7.146C11.821,33.538,12.584,28.727,14.367,24.932
		 M20.699,27.486c-0.651-1.425-0.602-2.39-0.161-2.725c0.29-0.218,0.75-0.176,1.288,0.141c1.639,0.968,3.328,1.871,5.099,2.59
		c0,0.002,0.001,0.006,0.002,0.01c0.637,2.661,1.007,5.453,0.844,8.193C24.823,33.763,22.147,30.655,20.699,27.486 M26.275,23.978
		c-1.349-0.299-1.994-0.903-1.952-1.452c0.027-0.361,0.341-0.707,0.893-0.952c1.695-0.752,3.369-1.58,4.945-2.57
		c0.002,0.002,0.006,0.003,0.008,0.004c2.088,1.066,4.095,2.419,5.708,4.133C32.944,24.283,29.312,24.649,26.275,23.978
		 M27.379,17.361c-1.068,0.935-1.89,1.093-2.25,0.713c-0.236-0.249-0.283-0.729-0.104-1.35c0.566-1.971,1.007-3.96,1.372-5.983
		c0.003,0,0.007-0.002,0.01-0.003c2.151-1.008,4.313-1.932,6.702-2.182C31.98,11.781,29.934,15.127,27.379,17.361"/>
	<path fill="#64C832" d="M20.402,0.179c-1.415,2.464-2.242,5.298-2.759,8.077c-0.001,0.004-0.002,0.007-0.003,0.011
		c-0.355-0.462-0.826-1.018-1.234-1.525c-1.545-1.923-3.252-3.725-4.98-5.492C14.262,0.112,17.377-0.261,20.402,0.179 M0,15.256
		c2.644-0.323,5.3-0.618,7.931-0.708c0.68-0.023,1.451-0.058,2.06-0.059c-0.003-0.003-0.005-0.007-0.008-0.01
		c-2.137-2.543-4.07-5.408-5.313-8.501C2.313,8.583,0.702,11.817,0,15.256 M5.208,33.334c1.244-2.266,2.553-4.512,3.987-6.628
		c0.381-0.562,0.809-1.207,1.168-1.704c-0.004,0.001-0.008,0.001-0.012,0.001c-3.37,0.249-6.876,0.11-10.165-0.71
		C1.028,27.684,2.753,30.841,5.208,33.334 M21.077,38.449c-0.8-2.018-1.568-4.048-2.179-6.095c-0.17-0.569-0.369-1.231-0.509-1.767
		c-0.002,0.004-0.005,0.006-0.007,0.01c-1.833,2.603-3.801,5.107-6.269,7.146C15.093,38.615,17.988,39.026,21.077,38.449
		 M33.446,29.634c-1.719-0.435-3.431-0.929-5.076-1.576c-0.468-0.187-1.013-0.382-1.446-0.565c0,0.002,0.001,0.006,0.002,0.01
		c0.637,2.661,1.007,5.453,0.844,8.191C30.086,34.128,32.028,32.04,33.446,29.634 M35.751,14.974
		c-1.38,1.134-2.799,2.234-4.299,3.195c-0.418,0.269-0.895,0.593-1.292,0.834c0.002,0.002,0.005,0.003,0.008,0.004
		c2.088,1.066,4.094,2.418,5.708,4.131C36.26,20.307,36.229,17.791,35.751,14.974 M27.219,2.685
		c-0.126,2.121-0.279,4.246-0.566,6.321c-0.077,0.563-0.166,1.219-0.254,1.736c0.003-0.001,0.006-0.003,0.009-0.004
		c2.152-1.007,4.312-1.931,6.701-2.182C31.607,6.194,29.596,4.166,27.219,2.685"/>
	<path fill="#64C832" d="M147.643,6.108l-3.665,25.883h-4.664v-2.893c-2.311,2.209-4.71,3.327-7.143,3.327
		c-1.708,0-2.97-0.494-3.859-1.508c-1.373-1.566-1.775-4.331-1.231-8.455c1.074-7.729,3.958-9.28,8.266-9.28
		c1.702,0,3.651,0.153,5.385,0.409l1.061-7.484H147.643z M137.583,17.446c-3.248,0-3.941,0.413-4.583,5.157
		c-0.329,2.432-0.425,3.947,0.057,4.498c0.2,0.229,0.538,0.324,1.052,0.303c1.775-0.035,3.185-0.972,5.005-2.581l1.028-7.376
		H137.583z M84.896,13.183c-3.31,0-5.575,0.688-7.128,2.163c-1.535,1.458-2.442,3.687-2.941,7.224
		c-0.5,3.517-0.073,5.996,1.305,7.582c1.327,1.529,3.581,2.274,6.888,2.274c1.625,0,4.013-0.148,6.164-0.855l0.151-0.05l0.606-4.324
		l-0.387,0.064c-1.495,0.214-3.378,0.322-5.596,0.322c-1.533,0-2.297-0.188-2.723-0.672c-0.529-0.599-0.628-1.764-0.344-4.023
		c0.51-4.188,1.811-4.865,4.728-4.865c1.182,0,5.596,0.077,5.596,0.077l0.574-4.103C91.786,13.998,89.314,13.183,84.896,13.183
		 M124.582,15.215c0.888,1.025,1.187,2.462,0.911,4.395c-0.569,3.896-3.301,4.864-7.525,5.162l-5.021,0.379
		c0.135,2.11,1.235,2.506,3.307,2.506c1.786,0,6.091-0.21,6.794-0.39l0.283-0.072l0.033,0.29c0.174,1.529,0.683,3.218,0.688,3.236
		l0.066,0.219l-0.212,0.089c-2.285,0.961-5.886,1.397-8.267,1.397c-3.373,0-5.694-0.767-7.093-2.34
		c-1.426-1.604-1.916-4.107-1.498-7.655c0.838-6.915,3.508-9.248,10.577-9.248C121.12,13.183,123.395,13.847,124.582,15.215
		 M117.131,21.124c1.705-0.137,2.497-0.47,2.695-2.087c0.048-0.563-0.009-0.907-0.19-1.104c-0.266-0.29-0.894-0.349-1.822-0.349
		c-0.171,0-0.354,0.002-0.547,0.006c-2.74,0-3.417,0.935-3.954,3.898L117.131,21.124z M107.695,13.688h-1.129
		c-2.142,0-4.239,1.061-6.943,3.531v-3.531h-4.628l-2.561,18.303h5.858l1.419-10.527c0.738-0.939,2.79-2.048,4.315-2.048h1.25
		l0.044-0.199c0.005-0.024,0.533-2.376,2.15-5.145L107.695,13.688z M46.204,12.858c-0.49,3.777,0.83,6.01,4.416,7.468l4.735,1.885
		c1.503,0.55,1.835,0.83,1.642,2.317c-0.292,1.919-1.039,2.433-4.35,2.433h-8.043l-0.715,5.025h8.994
		c7.007,0,9.359-1.651,10.07-7.068c0.438-3.419-0.154-5.874-4.457-7.541l-4.476-1.705c-1.734-0.647-2.054-0.907-1.824-2.425
		c0.265-1.691,0.889-2.058,2.188-2.148h9.599l0.716-5.026h-8.568C50.297,6.072,46.989,7.153,46.204,12.858 M64.74,31.991h5.82
		l2.563-18.303h-5.82L64.74,31.991z M73.485,11.098l0.703-5.026h-5.82l-0.703,5.026H73.485z M147.543,31.991h5.82l2.563-18.303
		h-5.821L147.543,31.991z M156.29,11.098l0.703-5.026h-5.82l-0.703,5.026H156.29z"/>
</g>
</svg>
