<svg width="72" height="72" viewBox="0 0 72 72" fill="none" xmlns="http://www.w3.org/2000/svg">
<path d="M2 2L16.5 16.5M62 62L32 32" stroke="#E0E5EB" stroke-width="2" stroke-linejoin="round"/>
<path d="M62 2L2 62" stroke="#E0E5EB" stroke-width="2" stroke-linejoin="round"/>
<path d="M1 6C1 3.23858 3.23858 1 6 1H58C60.7614 1 63 3.23858 63 6V58C63 60.7614 60.7614 63 58 63H6C3.23858 63 1 60.7614 1 58V6Z" stroke="#E0E5EB" stroke-width="2"/>
<path d="M32 1L5.84924 27.1508C2.74432 30.2557 1 34.4668 1 38.8579C1 47.7669 11.7714 52.2286 18.0711 45.9289L32 32V1Z" stroke="#A7B1BE" stroke-width="2" stroke-linejoin="round"/>
<circle cx="56" cy="56" r="15" fill="#FFF5D6" stroke="#FFBF00" stroke-width="2"/>
<path d="M56 48L51 56H61L56 64" stroke="#FFBF00" stroke-width="2" stroke-linecap="round" stroke-linejoin="round"/>
</svg>
