<svg xmlns="http://www.w3.org/2000/svg" xmlns:xlink="http://www.w3.org/1999/xlink" width="72" height="72" viewBox="0 0 72 72"><defs><style>.a,.f{fill:#325476;}.b{clip-path:url(#c);}.c,.d{fill:#dbe4ec;}.c{stroke:#fff;stroke-width:0.75px;}.e{fill:#305375;}.f{opacity:0;}.g{clip-path:url(#a);}.h{fill:#fff;}</style><clipPath id="a"><rect class="a" width="20.322" height="15.242"/></clipPath><clipPath id="c"><rect width="72" height="72"/></clipPath></defs><g id="b" class="b"><rect class="h" width="72" height="72"/><g transform="translate(0 7.719)"><path class="c" d="M195.45,269.92l-.053-.058a35.665,35.665,0,0,0-7.7-6c-1.224-11.909-11.849-20.474-25.546-20.474a29.327,29.327,0,0,0-12.79,2.815,14.432,14.432,0,0,0-2.445-1.276,14.851,14.851,0,0,0-1.716-.591l-.236-.067c-.017-.116-.039-.292-.061-.56a6.43,6.43,0,0,0-4.555-5.864c-4.559-1.466-9.43.677-10.856,4.767a7.645,7.645,0,0,0,4.626,9.758,6.8,6.8,0,0,0,.694.213c4.23,1.276,6.408-.97,7.71-2.311a6.388,6.388,0,0,1,.875-.809l.144.07a2.839,2.839,0,0,1,.406.2l-.155.135a21.463,21.463,0,0,0-7.223,14,35.78,35.78,0,0,0-7.742,6.061,9.723,9.723,0,0,0-2.678,7.213,4.529,4.529,0,0,0,1.71,3.229,5.148,5.148,0,0,0,4.011.957c1.971-.366,3.835-1.877,5.54-4.494l.07-.106c2.276,11.467,7.929,19.215,14.3,19.215a11.493,11.493,0,0,0,6.93-2.289,5.741,5.741,0,0,1,3.217-1.311,6.863,6.863,0,0,1,3.509,1.35,12.4,12.4,0,0,0,6.956,2.25c3.792,0,10.772-4.22,14.158-19.588.106.163.213.319.319.482,1.7,2.614,3.561,4.127,5.529,4.493a5.148,5.148,0,0,0,4.016-.951,4.514,4.514,0,0,0,1.71-3.221,9.732,9.732,0,0,0-2.683-7.223m.043,6.911a2,2,0,0,1-.627,1.375,2.5,2.5,0,0,1-1.972.492c-1.209-.225-2.52-1.382-3.789-3.328-.681-1.048-1.477-2.177-2.167-3.143l-1.851-2.593-.54,3.141c-1.708,9.934-6.545,20.492-12.147,20.492a9.74,9.74,0,0,1-5.575-1.863,9,9,0,0,0-4.854-1.737h-.056a8.17,8.17,0,0,0-4.65,1.744,8.862,8.862,0,0,1-5.477,1.856c-5.416,0-10.666-8.683-12.209-20.2l-.448-3.334-1.953,2.74c-.579.815-1.33,1.88-1.988,2.893-1.276,1.953-2.584,3.1-3.795,3.329a2.491,2.491,0,0,1-1.967-.491,2.02,2.02,0,0,1-.629-1.382c-.086-.744-.059-2.726,2-5.111a33.019,33.019,0,0,1,7.695-5.88l.638-.352.046-.726a18.773,18.773,0,0,1,6.436-12.941l.292-.255a2.425,2.425,0,0,0,.859-2.249,3.182,3.182,0,0,0-2.111-2.209c-1.795-.984-3.134.392-4.023,1.309-1.21,1.247-2.353,2.427-5.1,1.595a4.714,4.714,0,0,1-.5-.148,4.986,4.986,0,0,1-3.012-6.371c.957-2.748,4.336-4.147,7.56-3.112a3.8,3.8,0,0,1,2.691,3.495c.159,1.952.593,2.543,2.21,3.011a12.534,12.534,0,0,1,1.444.5,11.864,11.864,0,0,1,2.552,1.428l.66.486.729-.371a26.71,26.71,0,0,1,12.289-2.886c12.547,0,22.208,7.868,22.966,18.721l.051.721.632.349a33,33,0,0,1,7.669,5.848c2.09,2.437,2.116,4.41,2.03,5.147" transform="translate(-126.14 -237.381)"/></g><circle class="d" cx="16" cy="16" r="16" transform="translate(20 23)"/><path class="e" d="M16,2A14,14,0,0,0,6.1,25.9,14,14,0,0,0,25.9,6.1,13.908,13.908,0,0,0,16,2m0-2A16,16,0,1,1,0,16,16,16,0,0,1,16,0Z" transform="translate(20 23)"/><g transform="translate(25.472 28.672)"><rect class="f" width="20.216" height="20.656" transform="translate(0.184 0)"/><g class="g" transform="translate(0 2.798)"><path class="a" d="M1.27,18.271A1.27,1.27,0,1,1,0,19.541a1.27,1.27,0,0,1,1.27-1.27" transform="translate(0 -16.525)"/><path class="a" d="M84.324,132.885a1.27,1.27,0,1,1-1.27,1.27,1.27,1.27,0,0,1,1.27-1.27" transform="translate(-75.116 -120.184)"/><path class="a" d="M74.357,63.121a1.27,1.27,0,1,1-1.27,1.27,1.27,1.27,0,0,1,1.27-1.27" transform="translate(-66.101 -57.088)"/><path class="a" d="M127.511,96.341a1.27,1.27,0,1,1-1.27,1.27,1.27,1.27,0,0,1,1.27-1.27" transform="translate(-114.175 -87.133)"/><path class="a" d="M172.36,122.919a1.27,1.27,0,1,1-1.27,1.27,1.27,1.27,0,0,1,1.27-1.27" transform="translate(-154.737 -111.17)"/><path class="a" d="M14.559,111.292a1.27,1.27,0,1,1-1.27,1.27,1.27,1.27,0,0,1,1.27-1.27" transform="translate(-12.019 -100.655)"/><path class="a" d="M187.309,43.187a1.27,1.27,0,1,1-1.27,1.27,1.27,1.27,0,0,1,1.27-1.27" transform="translate(-168.257 -39.059)"/><path class="a" d="M147.444,0a1.27,1.27,0,1,1-1.27,1.27A1.27,1.27,0,0,1,147.444,0" transform="translate(-132.203)"/><path class="a" d="M154.823,117.194l1.048.639a1.9,1.9,0,0,1,.323-.547l-1.052-.641a1.9,1.9,0,0,1-.319.549" transform="translate(-140.025 -105.496)"/><path class="a" d="M154.394,35.237l-.721.627-.788-3.967a1.893,1.893,0,0,1-.623.124l.858,4.323L151.441,37.8a1.918,1.918,0,0,1,.44.459l1.381-1.2.6,3.044a1.9,1.9,0,0,1,.62-.138l-.672-3.386.994-.864a1.919,1.919,0,0,1-.415-.48" transform="translate(-136.966 -28.848)"/><path class="a" d="M109.283,120.789l1.238-1.076a1.915,1.915,0,0,1-.4-.5l-1.262,1.1a1.917,1.917,0,0,1,.42.477" transform="translate(-98.458 -107.821)"/><path class="a" d="M102.816,23.484l-4.18,3.56a1.918,1.918,0,0,1,.429.469l4.162-3.545a1.916,1.916,0,0,1-.411-.484" transform="translate(-89.208 -21.239)"/><path class="a" d="M103.442,85.262,101.531,84.1a1.906,1.906,0,0,1-.342.535L103.1,85.8a1.907,1.907,0,0,1,.344-.534" transform="translate(-91.517 -76.059)"/><path class="a" d="M27.926,40.014l3.808,2.321a1.906,1.906,0,0,1,.321-.548l-3.781-2.3a1.91,1.91,0,0,1-.348.532" transform="translate(-25.257 -35.708)"/><path class="a" d="M25.068,50.659l-1.5,1.281a1.916,1.916,0,0,1,.376.514l1.5-1.279,2.092,2.878a1.917,1.917,0,0,1,.51-.379l-2.117-2.912.756-.644a1.916,1.916,0,0,1-.4-.5l-.734.625L22.3,45.773a1.912,1.912,0,0,1-.522.363Z" transform="translate(-19.698 -41.398)"/></g></g></g></svg>