<svg xmlns="http://www.w3.org/2000/svg" xmlns:xlink="http://www.w3.org/1999/xlink" width="72" height="72" viewBox="0 0 72 72"><defs><style>.a{clip-path:url(#b);}.b{fill:#dbe4ec;stroke:#fff;stroke-width:0.75px;}.c{fill:#d3fcef;}.d,.e{fill:#0fac7c;}.e{opacity:0;}.f{fill:#fff;}</style><clipPath id="b"><rect width="72" height="72"/></clipPath></defs><g id="a" class="a"><rect class="f" width="72" height="72"/><g transform="translate(0 7.719)"><path class="b" d="M195.45,269.92l-.053-.058a35.665,35.665,0,0,0-7.7-6c-1.224-11.909-11.849-20.474-25.546-20.474a29.327,29.327,0,0,0-12.79,2.815,14.432,14.432,0,0,0-2.445-1.276,14.851,14.851,0,0,0-1.716-.591l-.236-.067c-.017-.116-.039-.292-.061-.56a6.43,6.43,0,0,0-4.555-5.864c-4.559-1.466-9.43.677-10.856,4.767a7.645,7.645,0,0,0,4.626,9.758,6.8,6.8,0,0,0,.694.213c4.23,1.276,6.408-.97,7.71-2.311a6.388,6.388,0,0,1,.875-.809l.144.07a2.839,2.839,0,0,1,.406.2l-.155.135a21.463,21.463,0,0,0-7.223,14,35.78,35.78,0,0,0-7.742,6.061,9.723,9.723,0,0,0-2.678,7.213,4.529,4.529,0,0,0,1.71,3.229,5.148,5.148,0,0,0,4.011.957c1.971-.366,3.835-1.877,5.54-4.494l.07-.106c2.276,11.467,7.929,19.215,14.3,19.215a11.493,11.493,0,0,0,6.93-2.289,5.741,5.741,0,0,1,3.217-1.311,6.863,6.863,0,0,1,3.509,1.35,12.4,12.4,0,0,0,6.956,2.25c3.792,0,10.772-4.22,14.158-19.588.106.163.213.319.319.482,1.7,2.614,3.561,4.127,5.529,4.493a5.148,5.148,0,0,0,4.016-.951,4.514,4.514,0,0,0,1.71-3.221,9.732,9.732,0,0,0-2.683-7.223m.043,6.911a2,2,0,0,1-.627,1.375,2.5,2.5,0,0,1-1.972.492c-1.209-.225-2.52-1.382-3.789-3.328-.681-1.048-1.477-2.177-2.167-3.143l-1.851-2.593-.54,3.141c-1.708,9.934-6.545,20.492-12.147,20.492a9.74,9.74,0,0,1-5.575-1.863,9,9,0,0,0-4.854-1.737h-.056a8.17,8.17,0,0,0-4.65,1.744,8.862,8.862,0,0,1-5.477,1.856c-5.416,0-10.666-8.683-12.209-20.2l-.448-3.334-1.953,2.74c-.579.815-1.33,1.88-1.988,2.893-1.276,1.953-2.584,3.1-3.795,3.329a2.491,2.491,0,0,1-1.967-.491,2.02,2.02,0,0,1-.629-1.382c-.086-.744-.059-2.726,2-5.111a33.019,33.019,0,0,1,7.695-5.88l.638-.352.046-.726a18.773,18.773,0,0,1,6.436-12.941l.292-.255a2.425,2.425,0,0,0,.859-2.249,3.182,3.182,0,0,0-2.111-2.209c-1.795-.984-3.134.392-4.023,1.309-1.21,1.247-2.353,2.427-5.1,1.595a4.714,4.714,0,0,1-.5-.148,4.986,4.986,0,0,1-3.012-6.371c.957-2.748,4.336-4.147,7.56-3.112a3.8,3.8,0,0,1,2.691,3.495c.159,1.952.593,2.543,2.21,3.011a12.534,12.534,0,0,1,1.444.5,11.864,11.864,0,0,1,2.552,1.428l.66.486.729-.371a26.71,26.71,0,0,1,12.289-2.886c12.547,0,22.208,7.868,22.966,18.721l.051.721.632.349a33,33,0,0,1,7.669,5.848c2.09,2.437,2.116,4.41,2.03,5.147" transform="translate(-126.14 -237.381)"/></g><path class="c" d="M16,0A16,16,0,1,1,0,16,16,16,0,0,1,16,0Z" transform="translate(20 23)"/><path class="d" d="M16,2A14,14,0,0,0,6.1,25.9,14,14,0,0,0,25.9,6.1,13.908,13.908,0,0,0,16,2m0-2A16,16,0,1,1,0,16,16,16,0,0,1,16,0Z" transform="translate(20 23)"/><g transform="translate(26 29)"><rect class="e" width="20" height="20" transform="translate(0 0)"/><path class="d" d="M24.376,12.778H22.392a7.73,7.73,0,0,0-.609-1.477l1.4-1.408a.557.557,0,0,0,0-.786L20.836,6.75a.552.552,0,0,0-.783,0l-1.4,1.408a7.677,7.677,0,0,0-1.472-.611V5.556A.554.554,0,0,0,16.625,5H13.3a.554.554,0,0,0-.554.556V7.547a7.677,7.677,0,0,0-1.472.611L9.876,6.75a.552.552,0,0,0-.783,0L6.744,9.107a.557.557,0,0,0,0,.786l1.4,1.408a7.721,7.721,0,0,0-.609,1.477H5.554A.555.555,0,0,0,5,13.333v3.333a.554.554,0,0,0,.554.556H7.537A7.73,7.73,0,0,0,8.147,18.7l-1.4,1.408a.557.557,0,0,0,0,.786L9.093,23.25a.552.552,0,0,0,.783,0l1.4-1.408a7.677,7.677,0,0,0,1.472.611v1.991A.554.554,0,0,0,13.3,25h3.322a.554.554,0,0,0,.554-.556V22.453a7.677,7.677,0,0,0,1.472-.611l1.4,1.408a.552.552,0,0,0,.783,0l2.349-2.357a.557.557,0,0,0,0-.786l-1.4-1.408a7.721,7.721,0,0,0,.609-1.477h1.984a.554.554,0,0,0,.554-.556V13.333A.554.554,0,0,0,24.376,12.778ZM9.484,22.071,7.919,20.5,9.23,19.183h0L11.709,16.7a.556.556,0,0,0,.13-.579,3.327,3.327,0,0,1,3.126-4.45,3.28,3.28,0,0,1,1.116.2l-1.4.811a.556.556,0,0,0-.277.484L14.412,15a.556.556,0,0,0,.275.477l1.587.929a.551.551,0,0,0,.556,0l1.4-.813a3.308,3.308,0,0,1-4.381,2.54.551.551,0,0,0-.577.131Zm14.338-5.96H21.967a.554.554,0,0,0-.539.428A6.621,6.621,0,0,1,20.62,18.5a.557.557,0,0,0,.079.685L22.011,20.5l-1.566,1.571-1.312-1.316a.552.552,0,0,0-.682-.08,6.579,6.579,0,0,1-1.953.811.555.555,0,0,0-.426.541v1.862H13.857V22.027a.555.555,0,0,0-.426-.541,6.589,6.589,0,0,1-1.326-.474l1.716-1.722a4.348,4.348,0,0,0,1.144.154A4.442,4.442,0,0,0,19.393,15c0-.029,0-.057,0-.085v-.024a.735.735,0,0,0-.383-.616.727.727,0,0,0-.721.008l-1.731,1-1.037-.607-.005-1.2,1.731-1a.74.74,0,0,0,.039-1.254l-.019-.013a4.43,4.43,0,0,0-6.573,4.943L8.973,17.87A6.639,6.639,0,0,1,8.5,16.539a.554.554,0,0,0-.539-.428H6.107V13.889H7.963a.554.554,0,0,0,.539-.428A6.621,6.621,0,0,1,9.31,11.5a.557.557,0,0,0-.079-.685L7.919,9.5,9.484,7.929,10.8,9.245a.552.552,0,0,0,.682.08,6.579,6.579,0,0,1,1.953-.811.555.555,0,0,0,.426-.541V6.111h2.214V7.973a.555.555,0,0,0,.426.541,6.585,6.585,0,0,1,1.953.811.552.552,0,0,0,.682-.08l1.312-1.316L22.011,9.5,20.7,10.817a.557.557,0,0,0-.079.685,6.623,6.623,0,0,1,.808,1.959.554.554,0,0,0,.539.428h1.855Z" transform="translate(-4.985 -5)"/></g></g></svg>