<svg xmlns="http://www.w3.org/2000/svg" xmlns:xlink="http://www.w3.org/1999/xlink" width="72" height="72" viewBox="0 0 72 72"><defs><style>.a{clip-path:url(#b);}.b{fill:#dbe4ec;stroke:#fff;stroke-width:0.75px;}.c{fill:#ddf5ff;}.d,.e{fill:#158bc2;}.e{opacity:0;}.f{fill:#fff;}</style><clipPath id="b"><rect width="72" height="72"/></clipPath></defs><g id="a" class="a"><rect class="f" width="72" height="72"/><g transform="translate(0 7.719)"><path class="b" d="M195.45,269.92l-.053-.058a35.665,35.665,0,0,0-7.7-6c-1.224-11.909-11.849-20.474-25.546-20.474a29.327,29.327,0,0,0-12.79,2.815,14.432,14.432,0,0,0-2.445-1.276,14.851,14.851,0,0,0-1.716-.591l-.236-.067c-.017-.116-.039-.292-.061-.56a6.43,6.43,0,0,0-4.555-5.864c-4.559-1.466-9.43.677-10.856,4.767a7.645,7.645,0,0,0,4.626,9.758,6.8,6.8,0,0,0,.694.213c4.23,1.276,6.408-.97,7.71-2.311a6.388,6.388,0,0,1,.875-.809l.144.07a2.839,2.839,0,0,1,.406.2l-.155.135a21.463,21.463,0,0,0-7.223,14,35.78,35.78,0,0,0-7.742,6.061,9.723,9.723,0,0,0-2.678,7.213,4.529,4.529,0,0,0,1.71,3.229,5.148,5.148,0,0,0,4.011.957c1.971-.366,3.835-1.877,5.54-4.494l.07-.106c2.276,11.467,7.929,19.215,14.3,19.215a11.493,11.493,0,0,0,6.93-2.289,5.741,5.741,0,0,1,3.217-1.311,6.863,6.863,0,0,1,3.509,1.35,12.4,12.4,0,0,0,6.956,2.25c3.792,0,10.772-4.22,14.158-19.588.106.163.213.319.319.482,1.7,2.614,3.561,4.127,5.529,4.493a5.148,5.148,0,0,0,4.016-.951,4.514,4.514,0,0,0,1.71-3.221,9.732,9.732,0,0,0-2.683-7.223m.043,6.911a2,2,0,0,1-.627,1.375,2.5,2.5,0,0,1-1.972.492c-1.209-.225-2.52-1.382-3.789-3.328-.681-1.048-1.477-2.177-2.167-3.143l-1.851-2.593-.54,3.141c-1.708,9.934-6.545,20.492-12.147,20.492a9.74,9.74,0,0,1-5.575-1.863,9,9,0,0,0-4.854-1.737h-.056a8.17,8.17,0,0,0-4.65,1.744,8.862,8.862,0,0,1-5.477,1.856c-5.416,0-10.666-8.683-12.209-20.2l-.448-3.334-1.953,2.74c-.579.815-1.33,1.88-1.988,2.893-1.276,1.953-2.584,3.1-3.795,3.329a2.491,2.491,0,0,1-1.967-.491,2.02,2.02,0,0,1-.629-1.382c-.086-.744-.059-2.726,2-5.111a33.019,33.019,0,0,1,7.695-5.88l.638-.352.046-.726a18.773,18.773,0,0,1,6.436-12.941l.292-.255a2.425,2.425,0,0,0,.859-2.249,3.182,3.182,0,0,0-2.111-2.209c-1.795-.984-3.134.392-4.023,1.309-1.21,1.247-2.353,2.427-5.1,1.595a4.714,4.714,0,0,1-.5-.148,4.986,4.986,0,0,1-3.012-6.371c.957-2.748,4.336-4.147,7.56-3.112a3.8,3.8,0,0,1,2.691,3.495c.159,1.952.593,2.543,2.21,3.011a12.534,12.534,0,0,1,1.444.5,11.864,11.864,0,0,1,2.552,1.428l.66.486.729-.371a26.71,26.71,0,0,1,12.289-2.886c12.547,0,22.208,7.868,22.966,18.721l.051.721.632.349a33,33,0,0,1,7.669,5.848c2.09,2.437,2.116,4.41,2.03,5.147" transform="translate(-126.14 -237.381)"/></g><circle class="c" cx="16" cy="16" r="16" transform="translate(20 23)"/><path class="d" d="M16,2A14,14,0,0,0,6.1,25.9,14,14,0,0,0,25.9,6.1,13.908,13.908,0,0,0,16,2m0-2A16,16,0,1,1,0,16,16,16,0,0,1,16,0Z" transform="translate(20 23)"/><g transform="translate(26.457 28.451)"><rect class="e" width="20" height="20" transform="translate(-0.457 -0.451)"/><g transform="translate(2.503 0.029)"><path class="d" d="M11.588,15.62a1.518,1.518,0,1,0,1.518,1.51A1.518,1.518,0,0,0,11.588,15.62Z" transform="translate(-4.508 -3.332)"/><path class="d" d="M14.6,8.811v-4.4A4.484,4.484,0,0,0,10.458,0H9.75A4.484,4.484,0,0,0,5.6,4.413v4.4H3V18.88H17.16V8.811Zm-1.377-4.4v4.4H6.933v-4.4a3.17,3.17,0,0,1,6.341,0ZM4.369,17.582V10.109H15.831v7.473Z" transform="translate(-3 0)"/></g></g></g></svg>