<svg width="528" height="261" viewBox="0 0 528 261" fill="none" xmlns="http://www.w3.org/2000/svg">
<mask id="mask0_7070_26992" style="mask-type:alpha" maskUnits="userSpaceOnUse" x="0" y="0" width="528" height="261">
<rect width="528" height="261" fill="url(#paint0_radial_7070_26992)"/>
</mask>
<g mask="url(#mask0_7070_26992)">
<g opacity="0.7">
<mask id="mask1_7070_26992" style="mask-type:alpha" maskUnits="userSpaceOnUse" x="0" y="0" width="528" height="261">
<rect width="528" height="261" fill="url(#paint1_radial_7070_26992)"/>
</mask>
<g mask="url(#mask1_7070_26992)">
<line x1="15.9718" y1="-221.993" x2="15.9718" y2="452.175" stroke="#E0E5EB" stroke-width="0.674"/>
<line x1="76.6319" y1="-221.993" x2="76.632" y2="452.175" stroke="#E0E5EB" stroke-width="0.674"/>
<line x1="137.291" y1="-221.993" x2="137.291" y2="452.175" stroke="#E0E5EB" stroke-width="0.674"/>
<line x1="197.951" y1="-221.993" x2="197.951" y2="452.175" stroke="#E0E5EB" stroke-width="0.674"/>
<line x1="258.612" y1="-221.993" x2="258.612" y2="452.175" stroke="#E0E5EB" stroke-width="0.674"/>
<line x1="319.272" y1="-221.993" x2="319.272" y2="452.175" stroke="#E0E5EB" stroke-width="0.674"/>
<line x1="379.932" y1="-221.993" x2="379.932" y2="452.175" stroke="#E0E5EB" stroke-width="0.674"/>
<line x1="440.592" y1="-221.993" x2="440.592" y2="452.175" stroke="#E0E5EB" stroke-width="0.674"/>
<line x1="501.251" y1="-221.993" x2="501.251" y2="452.175" stroke="#E0E5EB" stroke-width="0.674"/>
<line x1="949.121" y1="24.0177" x2="-398.879" y2="24.0176" stroke="#E0E5EB" stroke-width="0.674"/>
<line x1="949.121" y1="84.6773" x2="-398.879" y2="84.6773" stroke="#E0E5EB" stroke-width="0.674"/>
<line x1="949.121" y1="145.338" x2="-398.879" y2="145.338" stroke="#E0E5EB" stroke-width="0.674"/>
<line x1="949.121" y1="205.998" x2="-398.879" y2="205.998" stroke="#E0E5EB" stroke-width="0.674"/>
</g>
</g>
<rect x="137.629" y="85.0142" width="241.966" height="120.646" fill="white"/>
</g>
<g clip-path="url(#clip0_7070_26992)">
<path d="M180.521 156.38L174.3 145.376L180.521 134.371H192.906L199.127 145.376L192.906 156.38H180.521Z" fill="#E83030" stroke="#141A1F" stroke-width="3.1468"/>
<path d="M180.521 183.005L174.3 172.001L180.521 160.996H192.906L199.127 172.001L192.906 183.005H180.521Z" fill="#6B91C7" stroke="#141A1F" stroke-width="3.1468"/>
<path d="M180.521 129.755L174.3 118.75L180.521 107.746H192.906L199.127 118.75L192.906 129.755H180.521Z" fill="#F9C31F" stroke="#141A1F" stroke-width="3.1468"/>
<path d="M203.526 169.689L197.304 158.685L203.526 147.68H215.911L222.132 158.685L215.911 169.689H203.526Z" fill="#795AA5" stroke="#141A1F" stroke-width="3.1468"/>
<path d="M203.526 143.065L197.304 132.061L203.526 121.056H215.911L222.132 132.061L215.911 143.065H203.526Z" fill="#F17423" stroke="#141A1F" stroke-width="3.1468"/>
<path d="M157.527 169.693L151.305 158.688L157.527 147.684H169.912L176.133 158.688L169.912 169.693H157.527Z" fill="#97C639" stroke="#141A1F" stroke-width="3.1468"/>
<path d="M157.527 143.065L151.305 132.061L157.527 121.056H169.912L176.133 132.061L169.912 143.065H157.527Z" fill="#C9DB70" stroke="#141A1F" stroke-width="3.1468"/>
<path d="M253.794 132.355C254.941 132.363 256.083 132.495 257.203 132.748C258.264 132.978 259.161 133.393 260.032 133.831V137.221C259.062 136.863 258.075 136.556 257.074 136.302C256.078 136.072 255.179 135.909 254.181 135.909C253.183 135.909 252.223 136.072 251.223 136.368C250.223 136.665 249.392 137.221 248.556 138.008C247.785 138.794 247.173 139.78 246.661 141.026C246.211 142.272 245.987 143.814 245.987 145.684C245.987 146.973 246.147 148.262 246.535 149.422C246.881 150.501 247.426 151.503 248.141 152.373C248.849 153.226 249.748 153.849 250.714 154.307C251.775 154.767 252.996 154.994 254.377 154.994C255.373 154.994 256.335 154.93 257.43 154.7C258.433 154.454 259.421 154.147 260.388 153.781V157.192C260.099 157.355 259.714 157.585 259.264 157.751C258.813 157.916 258.268 158.045 257.657 158.21C257.11 158.374 256.533 158.44 255.826 158.505L253.931 158.668C252.322 158.69 250.723 158.424 249.204 157.882C247.782 157.347 246.465 156.558 245.314 155.553C244.183 154.412 243.305 153.036 242.741 151.518C242.109 149.879 241.745 148.038 241.745 145.778C241.745 144.139 241.905 142.663 242.293 141.352C242.581 140.063 243.063 138.86 243.676 137.872C244.288 136.884 244.939 136.003 245.733 135.294C246.493 134.619 247.335 134.046 248.238 133.588C249.137 133.129 250.07 132.802 250.971 132.572L253.8 132.31L253.794 132.355ZM266.557 127.238V122.645H270.557V127.238H266.557ZM266.62 158.041V133.045H270.62V158.06L266.62 158.041ZM278.869 158.062V119.955H282.869V158.06L278.869 158.062ZM291.031 127.238V122.645H295.031V127.238H291.031ZM291.094 158.041V133.045H295.094V158.06L291.094 158.041ZM312.88 158.685C311.733 158.687 310.59 158.555 309.472 158.292C308.54 158.022 307.644 157.637 306.804 157.145C306.034 156.586 305.358 156.062 304.846 155.276C304.288 154.586 303.859 153.796 303.583 152.947C303.358 152.303 303.198 151.658 303.036 150.848L302.876 148.356V133.071H306.876V148.356C306.876 149.767 307.036 150.934 307.423 151.836C307.809 152.919 308.484 153.705 309.381 154.328C310.278 154.951 311.504 155.248 312.885 155.248C314.396 155.248 315.617 154.954 316.548 154.232C317.449 153.544 318.154 152.689 318.506 151.51C318.794 150.657 318.956 149.576 318.956 148.33V133.034H322.957V148.386C322.957 149.165 322.904 149.943 322.797 150.715C322.734 151.399 322.582 152.072 322.346 152.715C322.058 153.568 321.575 154.354 321.083 155.11C320.535 155.798 319.862 156.399 319.125 156.979C318.354 157.538 317.453 157.899 316.392 158.225C315.249 158.535 314.071 158.69 312.889 158.685H312.88ZM350.429 158.041H346.429V141.948C346.432 141.004 346.303 140.065 346.044 139.159C345.818 138.373 345.496 137.748 345.048 137.29C344.595 136.816 344.047 136.446 343.442 136.207C342.81 135.977 342.178 135.913 341.385 135.913C339.938 135.913 338.652 136.306 337.494 137.06C336.37 137.846 335.275 138.929 334.378 140.308V158.088H330.393V133.045H333.509L334.279 136.525H334.342L335.789 134.886C336.336 134.426 336.913 133.967 337.526 133.597C338.182 133.195 338.899 132.907 339.648 132.744C340.418 132.514 341.254 132.45 342.174 132.45C344.006 132.45 345.517 132.91 346.739 133.739C347.96 134.658 348.861 135.838 349.568 137.38H349.631C350.692 135.838 351.979 134.592 353.358 133.739C354.737 132.886 356.41 132.45 358.213 132.45C359.048 132.45 359.95 132.613 360.945 132.843C361.941 133.073 362.777 133.53 363.613 134.132C364.449 134.733 365.059 135.674 365.571 136.854C366.118 138.001 366.407 139.479 366.407 141.348V158.112H362.55V142.006C362.553 141.062 362.423 140.123 362.164 139.217C361.939 138.431 361.617 137.806 361.169 137.348C360.715 136.874 360.168 136.504 359.562 136.265C358.931 136.035 358.299 135.971 357.505 135.971C356.059 135.971 354.773 136.364 353.615 137.118C352.49 137.904 351.396 138.987 350.431 140.366L350.429 158.041Z" fill="#141A1F"/>
</g>
<defs>
<radialGradient id="paint0_radial_7070_26992" cx="0" cy="0" r="1" gradientUnits="userSpaceOnUse" gradientTransform="translate(264 130.5) rotate(90) scale(130.5 264)">
<stop offset="0.510417" stop-color="#D9D9D9"/>
<stop offset="1" stop-color="#D9D9D9" stop-opacity="0"/>
</radialGradient>
<radialGradient id="paint1_radial_7070_26992" cx="0" cy="0" r="1" gradientUnits="userSpaceOnUse" gradientTransform="translate(264 130.5) rotate(90) scale(174.935 353.892)">
<stop offset="0.563734" stop-color="#F6F7F8"/>
<stop offset="0.757955" stop-color="#F6F7F8" stop-opacity="0"/>
</radialGradient>
<clipPath id="clip0_7070_26992">
<rect width="217.702" height="82.228" fill="white" transform="translate(149.762 104.223)"/>
</clipPath>
</defs>
</svg>
