<svg width="56" height="32" viewBox="0 0 56 32" fill="none" xmlns="http://www.w3.org/2000/svg">
<path fill-rule="evenodd" clip-rule="evenodd" d="M39.9437 14.8167C40.7548 15.8837 41.3171 17.0557 41.6111 18.4732V0.1573H47.0399V31.495H41.6111V23.2059H27.1178C27.2644 25.4583 28.9011 27.801 32.6126 27.8126C34.505 27.8126 36.1901 27.2313 37.5012 26.2452L40.1066 29.2999C38.2863 30.9338 35.6217 32 31.9361 32C28.9429 32 25.9706 31.1201 23.9205 28.869C22.9145 27.7649 22.1442 26.3099 21.7437 24.5251C20.5773 28.5393 16.9334 31.2125 11.6096 31.4253C9.9276 31.4925 8.12391 31.5035 6.27699 31.495C4.89081 31.4889 3.48073 31.4909 2.0799 31.4929C1.38295 31.4939 0.688284 31.495 0 31.495V0H7.31181C11.0524 0 14.088 0.385459 16.3151 2.27402C17.8332 3.56139 18.74 5.53946 18.74 7.71255C18.74 10.0537 17.7079 12.1046 15.7363 13.5382C18.3557 14.3514 20.8354 16.276 21.7619 19.1289C22.7936 15.083 26.2774 11.2447 31.9436 11.2447C35.5884 11.2447 38.2813 12.628 39.9437 14.8167ZM7.08681 4.25417L5.57833 4.255V12.5485H7.35854C8.34246 12.5485 9.03884 12.4939 9.52228 12.3955C12.4123 11.8068 12.9379 9.65313 12.936 8.28268C12.936 6.66187 12.1584 5.36435 10.5226 4.73123C9.69409 4.41043 8.54356 4.25417 7.08681 4.25417ZM9.52997 27.0344C10.2049 27.0344 11.036 27.0072 11.7155 26.8854C14.8104 26.3291 16.1227 24.28 16.1227 21.847C16.1227 19.4974 14.6976 17.723 12.2168 17.0737C11.4932 16.8847 10.2303 16.7595 9.11425 16.7595H5.57812L5.57791 27.0344H9.52997ZM31.9017 15.3447C29.3962 15.3447 27.6962 16.996 27.2177 19.2901H36.5106C36.0783 16.8242 34.4098 15.3447 31.9017 15.3447Z" fill="#141A1F"/>
<path d="M50.6637 0.157047H56V31.4945H50.6637V0.157047Z" fill="#141A1F"/>
</svg>
