<svg width="66" height="40" viewBox="0 0 66 40" fill="none" xmlns="http://www.w3.org/2000/svg">
<path d="M28.7876 28.6869C28.7876 30.7724 27.9709 31.9562 23.9194 31.9562C23.3868 31.9562 22.924 31.9242 22.4629 31.8602V4.27992C22.4629 2.18698 23.1724 0 27.2596 0C27.794 0 28.2908 0.0470237 28.7876 0.159985V28.6869ZM20.1163 24.5106C20.1163 28.3877 17.5929 31.2241 12.4744 31.7793C8.74279 32.1802 3.34018 31.7115 0.782775 31.4198C0.675536 31.0001 0.604075 30.4787 0.604075 30.059C0.604075 26.6712 2.41623 25.8883 4.15874 25.8883C5.93517 25.8883 8.74278 26.212 10.8409 26.212C13.1142 26.212 13.8255 25.4366 13.8255 24.6913C13.8255 23.7164 12.9016 23.3117 11.1251 22.9748L6.21932 22.0319C2.16781 21.2508 0 18.4484 0 15.4671C0 11.8309 2.55922 8.79503 7.60617 8.2436C11.4092 7.82388 16.0648 8.29257 18.6241 8.60306C18.7295 9.03974 18.7652 9.46318 18.7652 9.89986C18.7652 13.2914 16.9888 14.0235 15.2463 14.0235C13.9685 14.0235 11.9061 13.7788 9.56134 13.7788C7.17904 13.7788 6.18358 14.4395 6.18358 15.2356C6.18358 16.0807 7.14329 16.4194 8.60163 16.6924L13.2929 17.5525C18.0557 18.4276 20.1163 21.1548 20.1163 24.5106ZM45.7764 39.3622C46.3108 39.6426 47.376 39.9626 48.7628 39.9984C51.1075 40.0436 52.3871 39.1552 53.3469 37.0303L66 8.82703C65.5031 8.5523 64.329 8.23984 63.3693 8.22856C61.7698 8.19283 59.5662 8.51655 58.1811 11.8403L54.0939 21.5067L46.0606 8.43558C45.528 8.2756 44.2841 8.05162 43.3602 8.05162C40.5168 8.05162 38.9173 9.0887 37.2821 10.871L29.4989 19.4195L35.754 29.2911C36.9282 31.0961 38.4562 32.0164 40.9082 32.0164C42.5435 32.0164 43.8928 31.6438 44.5326 31.3351L36.9979 19.9484L42.329 14.2588L51.1075 28.0602" fill="#141A1F"/>
</svg>
