<svg width="191" height="72" viewBox="0 0 191 72" fill="none" xmlns="http://www.w3.org/2000/svg">
<path d="M22.3477 36.124L27.3945 27.0928H37.4883L42.5352 36.124L37.4883 45.1553H27.3945L22.3477 36.124Z" fill="#E83030"/>
<path d="M22.3477 59.5L27.3945 50.4688H37.4883L42.5352 59.5L37.4883 68.5312H27.3945L22.3477 59.5Z" fill="#6B91C7"/>
<path d="M22.3477 12.75L27.3945 3.71875H37.4883L42.5352 12.75L37.4883 21.7812H27.3945L22.3477 12.75Z" fill="#F9C31F"/>
<path d="M42.5391 47.8125L47.5859 38.7812H57.6797L62.7266 47.8125L57.6797 56.8438H47.5859L42.5391 47.8125Z" fill="#795AA5"/>
<path d="M42.5391 24.4365L47.5859 15.4053H57.6797L62.7266 24.4365L57.6797 33.4678H47.5859L42.5391 24.4365Z" fill="#F17423"/>
<path d="M2.16016 47.8125L7.20703 38.7812H17.3008L22.3477 47.8125L17.3008 56.8438H7.20703L2.16016 47.8125Z" fill="#97C639"/>
<path d="M2.16016 24.4365L7.20703 15.4053H17.3008L22.3477 24.4365L17.3008 33.4678H7.20703L2.16016 24.4365Z" fill="#C9DB70"/>
<path d="M91.3313 24.6983C92.3379 24.7054 93.3409 24.821 94.3236 25.0435C95.2551 25.2453 96.0425 25.6093 96.8076 25.994V28.9701C95.9564 28.6552 95.0896 28.3858 94.2109 28.1629C93.3367 27.9611 92.5475 27.8177 91.6714 27.8177C90.7954 27.8177 89.9526 27.9611 89.0746 28.2213C88.1967 28.4816 87.4667 28.9701 86.7329 29.6603C86.0565 30.3506 85.5186 31.2163 85.0695 32.3101C84.674 33.404 84.4781 34.7581 84.4781 36.3989C84.4781 37.5305 84.6186 38.6621 84.9586 39.6805C85.2627 40.628 85.7413 41.5076 86.3688 42.2718C86.9898 43.0206 87.779 43.5675 88.6274 43.9692C89.5589 44.3728 90.6309 44.5727 91.8433 44.5727C92.7175 44.5727 93.5622 44.5161 94.5232 44.3143C95.4038 44.0982 96.2709 43.8287 97.12 43.5071V46.5021C96.8668 46.6454 96.5286 46.8472 96.133 46.9924C95.7375 47.1376 95.2588 47.2508 94.7228 47.396C94.2423 47.5393 93.7359 47.5978 93.1149 47.6544L91.4515 47.7977C90.0395 47.8171 88.6351 47.5835 87.3022 47.1075C86.0539 46.638 84.8974 45.9458 83.8867 45.0631C82.8937 44.0613 82.1235 42.8534 81.6281 41.5212C81.0736 40.0822 80.7539 38.4659 80.7539 36.4819C80.7539 35.0429 80.8944 33.7472 81.2345 32.5968C81.4877 31.4652 81.9109 30.4091 82.4487 29.5415C82.9866 28.674 83.5577 27.9007 84.2545 27.2783C84.9223 26.686 85.6614 26.1827 86.4539 25.7809C87.243 25.3773 88.0618 25.0906 88.8529 24.8888L91.3369 24.6587L91.3313 24.6983ZM102.535 20.2059V16.1737H106.047V20.2059H102.535ZM102.591 47.247V25.3037H106.102V47.264L102.591 47.247ZM113.344 47.2659V13.8125H116.855V47.264L113.344 47.2659ZM124.021 20.2059V16.1737H127.533V20.2059H124.021ZM124.076 47.247V25.3037H127.588V47.264L124.076 47.247ZM143.202 47.8128C142.195 47.8143 141.191 47.6985 140.21 47.4677C139.392 47.2305 138.605 46.8923 137.868 46.4606C137.192 45.9702 136.598 45.51 136.149 44.8198C135.658 44.2143 135.282 43.5211 135.04 42.7754C134.842 42.2096 134.702 41.6438 134.56 40.9328L134.419 38.7451V25.3264H137.931V38.7451C137.931 39.9841 138.071 41.0082 138.411 41.8003C138.75 42.7509 139.343 43.4411 140.13 43.9881C140.918 44.535 141.993 44.7953 143.206 44.7953C144.533 44.7953 145.605 44.5369 146.422 43.9032C147.213 43.2997 147.832 42.5491 148.14 41.5137C148.394 40.7649 148.536 39.8163 148.536 38.7224V25.2943H152.048V38.7715C152.048 39.4554 152.001 40.1386 151.907 40.8158C151.852 41.4164 151.719 42.0069 151.512 42.5717C151.258 43.3204 150.835 44.0107 150.403 44.6746C149.922 45.2781 149.331 45.8061 148.684 46.3153C148.007 46.8057 147.216 47.1225 146.285 47.4092C145.282 47.6811 144.247 47.8168 143.209 47.8128H143.202ZM176.165 47.247H172.654V33.1192C172.656 32.2909 172.542 31.4664 172.315 30.6712C172.118 29.9809 171.835 29.4321 171.441 29.0304C171.043 28.614 170.562 28.2899 170.031 28.0799C169.476 27.8781 168.922 27.8215 168.225 27.8215C166.955 27.8215 165.826 28.1666 164.81 28.8286C163.823 29.5189 162.862 30.4694 162.074 31.6802V47.2885H158.576V25.3037H161.311L161.987 28.359H162.043L163.313 26.92C163.793 26.5164 164.3 26.1128 164.837 25.7884C165.414 25.4355 166.043 25.1825 166.7 25.0397C167.377 24.8379 168.111 24.7813 168.918 24.7813C170.526 24.7813 171.853 25.1849 172.925 25.9129C173.997 26.7201 174.788 27.7555 175.409 29.1096H175.465C176.396 27.7555 177.525 26.6616 178.736 25.9129C179.947 25.1642 181.416 24.7813 182.998 24.7813C183.732 24.7813 184.523 24.9246 185.397 25.1264C186.271 25.3282 187.005 25.73 187.739 26.258C188.473 26.7861 189.009 27.6122 189.458 28.6476C189.938 29.6547 190.191 30.9522 190.191 32.593V47.3093H186.805V33.1701C186.808 32.3418 186.694 31.5174 186.467 30.7221C186.269 30.0319 185.987 29.483 185.593 29.0813C185.195 28.665 184.714 28.3408 184.183 28.1308C183.628 27.929 183.074 27.8724 182.377 27.8724C181.107 27.8724 179.978 28.2176 178.962 28.8795C177.975 29.5698 177.014 30.5203 176.167 31.7311L176.165 47.247Z" fill="white"/>
</svg>
