<svg width="592" height="406" viewBox="0 0 592 406" fill="none" xmlns="http://www.w3.org/2000/svg">
<mask id="mask0_5041_14824" style="mask-type:alpha" maskUnits="userSpaceOnUse" x="0" y="0" width="592" height="406">
<rect width="592" height="406" fill="url(#paint0_radial_5041_14824)"/>
</mask>
<g mask="url(#mask0_5041_14824)">
<line x1="4.37114e-08" y1="57.5" x2="592" y2="57.5001" stroke="#E0E5EB"/>
<line x1="4.37114e-08" y1="115.5" x2="592" y2="115.5" stroke="#E0E5EB"/>
<line x1="4.37114e-08" y1="173.5" x2="592" y2="173.5" stroke="#E0E5EB"/>
<line x1="4.37114e-08" y1="231.5" x2="592" y2="231.5" stroke="#E0E5EB"/>
<line x1="4.37114e-08" y1="289.5" x2="592" y2="289.5" stroke="#E0E5EB"/>
<line x1="4.37114e-08" y1="347.5" x2="592" y2="347.5" stroke="#E0E5EB"/>
<line x1="150.5" y1="406" x2="150.5" y2="-3.05394e-05" stroke="#E0E5EB"/>
<line x1="92.5" y1="406" x2="92.5" y2="-3.05394e-05" stroke="#E0E5EB"/>
<line x1="34.5" y1="406" x2="34.5" y2="-3.05394e-05" stroke="#E0E5EB"/>
<line x1="208.5" y1="406" x2="208.5" y2="-3.05394e-05" stroke="#E0E5EB"/>
<line x1="266.5" y1="406" x2="266.5" y2="-3.05394e-05" stroke="#E0E5EB"/>
<line x1="324.5" y1="406" x2="324.5" y2="-3.05394e-05" stroke="#E0E5EB"/>
<line x1="382.5" y1="406" x2="382.5" y2="-3.05394e-05" stroke="#E0E5EB"/>
<line x1="440.5" y1="406" x2="440.5" y2="-3.05394e-05" stroke="#E0E5EB"/>
<line x1="498.5" y1="406" x2="498.5" y2="-3.05394e-05" stroke="#E0E5EB"/>
<line x1="556.5" y1="406" x2="556.5" y2="-3.05394e-05" stroke="#E0E5EB"/>
</g>
<rect x="93.5" y="116.5" width="404" height="172" fill="white" stroke="#0073E6" stroke-width="3"/>
<path d="M209.461 185.203H190.774L181.391 202.176L190.731 218.975H209.458L218.798 202.176L209.461 185.203ZM206.968 214.369H193.215L186.367 202.131L193.221 189.764H206.974L213.827 202.131L206.968 214.369Z" fill="#141A1F"/>
<path d="M186.379 202.173L193.232 214.369H206.985L213.882 202.173L206.985 189.635H193.232L186.379 202.173Z" fill="#E83030"/>
<path d="M209.461 221.273H190.774L181.391 238.201L190.731 255H209.458L218.798 238.201L209.461 221.273ZM206.968 250.568H193.215L186.367 238.33L193.221 225.963H206.974L213.827 238.33L206.968 250.568Z" fill="#141A1F"/>
<path d="M186.379 238.204L193.232 250.571H206.985L213.882 238.204L206.985 225.837H193.232L186.379 238.204Z" fill="#6B91C7"/>
<path d="M209.461 149H190.774L181.391 165.973L190.774 182.771H209.501L218.841 165.973L209.461 149ZM206.968 178.166H193.215L186.367 165.928L193.221 153.435H206.974L213.827 165.802L206.968 178.166Z" fill="#141A1F"/>
<path d="M186.379 165.971L193.232 178.168H206.985L213.882 165.971L206.985 153.434H193.232L186.379 165.971Z" fill="#F9C31F"/>
<path d="M239.87 203.366H221.333L211.992 220.339L221.333 237.138H240.059L249.4 220.339L239.87 203.366ZM237.378 232.604H223.625L216.771 220.366L223.625 207.999H237.378L244.231 220.366L237.378 232.604Z" fill="#141A1F"/>
<path d="M216.726 220.407L223.678 232.645H237.393L244.413 220.407L237.393 207.869H223.678L216.726 220.407Z" fill="#795AA5"/>
<path d="M239.87 167.164H221.333L211.992 183.963L221.333 200.762H240.059L249.4 183.963L239.87 167.164ZM237.378 196.372H223.625L216.771 184.134L223.625 171.767H237.378L244.231 184.134L237.378 196.372Z" fill="#141A1F"/>
<path d="M216.727 184.14L223.568 196.544H237.394L244.413 184.305L237.394 171.768L223.568 171.768L216.727 184.14Z" fill="#F17423"/>
<path d="M178.907 203.366H160.34L151 220.339L160.34 237.138H179.067L188.408 220.339L178.907 203.366ZM176.414 232.577H162.827L155.974 220.339L162.827 207.972H176.58L183.434 220.339L176.414 232.577Z" fill="#141A1F"/>
<path d="M155.969 220.338L162.822 232.576H176.409L183.429 220.338L176.409 207.8H162.822L155.969 220.338Z" fill="#97C639"/>
<path d="M178.907 167.164H160.34L151 183.963L160.34 200.762H179.067L188.408 183.963L178.907 167.164ZM176.414 196.375H162.827L155.974 184.137L162.827 171.77H176.58L183.434 184.137L176.414 196.375Z" fill="#141A1F"/>
<path d="M155.969 184.132L162.822 196.37H176.409L183.429 184.132L176.409 171.594H162.822L155.969 184.132Z" fill="#C9DB70"/>
<path d="M291.298 184.52C292.823 184.531 294.341 184.711 295.83 185.058C297.24 185.373 298.432 185.94 299.591 186.54V191.179C298.302 190.688 296.989 190.268 295.659 189.921C294.335 189.606 293.14 189.383 291.813 189.383C290.487 189.383 289.211 189.606 287.881 190.012C286.552 190.418 285.446 191.179 284.335 192.255C283.311 193.331 282.496 194.681 281.816 196.386C281.217 198.091 280.921 200.202 280.921 202.76C280.921 204.524 281.133 206.288 281.648 207.875C282.109 209.352 282.834 210.723 283.784 211.915C284.724 213.082 285.919 213.934 287.204 214.561C288.614 215.19 290.238 215.501 292.074 215.501C293.397 215.501 294.676 215.413 296.132 215.099C297.465 214.762 298.778 214.342 300.064 213.84V218.509C299.681 218.733 299.168 219.047 298.569 219.273C297.971 219.5 297.246 219.676 296.434 219.903C295.706 220.126 294.94 220.217 293.999 220.305L291.48 220.529C289.342 220.559 287.215 220.195 285.197 219.453C283.307 218.721 281.556 217.642 280.025 216.266C278.522 214.704 277.355 212.821 276.605 210.745C275.765 208.501 275.281 205.982 275.281 202.889C275.281 200.646 275.494 198.626 276.009 196.833C276.392 195.069 277.033 193.422 277.848 192.07C278.662 190.718 279.527 189.512 280.582 188.542C281.593 187.619 282.713 186.834 283.913 186.208C285.108 185.579 286.347 185.132 287.545 184.817L291.307 184.458L291.298 184.52ZM308.264 177.517V171.232H313.582V177.517H308.264ZM308.348 219.67V185.464H313.666V219.697L308.348 219.67ZM324.631 219.7V167.551H329.949V219.697L324.631 219.7ZM340.8 177.517V171.232H346.117V177.517H340.8ZM340.884 219.67V185.464H346.201V219.697L340.884 219.67ZM369.845 220.552C368.32 220.555 366.8 220.374 365.314 220.014C364.075 219.645 362.884 219.117 361.768 218.444C360.743 217.68 359.845 216.963 359.165 215.887C358.422 214.943 357.852 213.862 357.486 212.7C357.186 211.818 356.973 210.936 356.758 209.827L356.545 206.417V185.499H361.863V206.417C361.863 208.349 362.076 209.945 362.59 211.18C363.103 212.661 364.001 213.738 365.193 214.59C366.386 215.443 368.014 215.848 369.85 215.848C371.86 215.848 373.483 215.446 374.72 214.458C375.918 213.517 376.856 212.347 377.323 210.733C377.706 209.566 377.922 208.087 377.922 206.382V185.449H383.24V206.458C383.24 207.524 383.169 208.589 383.027 209.645C382.943 210.581 382.742 211.502 382.428 212.382C382.044 213.549 381.404 214.625 380.749 215.66C380.021 216.601 379.125 217.424 378.146 218.218C377.121 218.982 375.924 219.476 374.513 219.923C372.994 220.347 371.428 220.559 369.856 220.552H369.845ZM419.76 219.67H414.443V197.647C414.447 196.356 414.274 195.071 413.93 193.831C413.631 192.755 413.203 191.9 412.607 191.273C412.004 190.624 411.276 190.119 410.471 189.792C409.632 189.477 408.792 189.389 407.737 189.389C405.814 189.389 404.104 189.927 402.565 190.959C401.07 192.035 399.615 193.516 398.423 195.404V219.735H393.125V185.464H397.267L398.291 190.227H398.375L400.298 187.983C401.025 187.354 401.792 186.725 402.607 186.22C403.479 185.669 404.433 185.275 405.428 185.052C406.452 184.738 407.563 184.65 408.786 184.65C411.221 184.65 413.231 185.279 414.854 186.414C416.477 187.672 417.675 189.286 418.615 191.397H418.699C420.11 189.286 421.82 187.581 423.653 186.414C425.486 185.246 427.711 184.65 430.107 184.65C431.218 184.65 432.416 184.873 433.74 185.188C435.064 185.502 436.175 186.128 437.286 186.952C438.397 187.775 439.209 189.062 439.889 190.676C440.616 192.246 441 194.269 441 196.827V219.767H435.872V197.727C435.877 196.435 435.704 195.15 435.36 193.91C435.061 192.834 434.633 191.979 434.037 191.353C433.434 190.704 432.706 190.198 431.901 189.871C431.061 189.556 430.222 189.468 429.167 189.468C427.244 189.468 425.534 190.006 423.995 191.038C422.5 192.114 421.045 193.596 419.763 195.483L419.76 219.67Z" fill="#141A1F"/>
<rect x="86" y="109" width="14" height="14" fill="white" stroke="#0073E6" stroke-width="3"/>
<rect x="86" y="283" width="14" height="14" fill="white" stroke="#0073E6" stroke-width="3"/>
<rect x="492" y="109" width="14" height="14" fill="white" stroke="#0073E6" stroke-width="3"/>
<rect x="492" y="283" width="14" height="14" fill="white" stroke="#0073E6" stroke-width="3"/>
<defs>
<radialGradient id="paint0_radial_5041_14824" cx="0" cy="0" r="1" gradientUnits="userSpaceOnUse" gradientTransform="translate(296 203) rotate(90) scale(203 296)">
<stop offset="0.655172" stop-color="#F6F7F8"/>
<stop offset="1" stop-color="#F6F7F8" stop-opacity="0"/>
</radialGradient>
</defs>
</svg>
