<svg width="220" height="66" viewBox="0 0 220 66" fill="none" xmlns="http://www.w3.org/2000/svg">
<g clip-path="url(#clip0_7036_18579)">
<path d="M109.792 46.0404V38.7597H103.013V46.0404H96.8477V26.8477H103.013V33.8497H109.792V26.8477H115.957V46.0404H109.792Z" fill="white"/>
<path d="M136.264 44.3114C134.609 45.6881 132.256 46.3759 129.207 46.3759C126.157 46.3759 123.8 45.6881 122.135 44.3114C120.47 42.9347 119.639 40.936 119.639 38.3142V26.8486H125.804V38.2298C125.804 39.3081 126.092 40.1692 126.668 40.8099C127.244 41.4516 128.081 41.773 129.179 41.773C130.277 41.773 131.117 41.4472 131.703 40.7967C132.289 40.1451 132.582 39.2906 132.582 38.2298V26.8486H138.747V38.3142C138.747 40.9371 137.919 42.9358 136.264 44.3114Z" fill="white"/>
<path d="M157.872 27.4477C158.68 27.8481 159.322 28.4097 159.797 29.1349C160.272 29.86 160.508 30.6695 160.508 31.5614C160.508 33.9232 159.438 35.4107 157.3 36.025V36.1369C159.736 36.6952 160.955 38.2946 160.955 40.935C160.955 41.9388 160.708 42.8273 160.216 43.5985C159.723 44.3708 159.049 44.9708 158.193 45.3986C157.337 45.8265 156.398 46.0404 155.376 46.0404H142.432V26.8477H155.208C156.175 26.8477 157.063 27.0473 157.873 27.4477H157.872ZM148.596 34.3236H152.835C153.245 34.3236 153.584 34.1799 153.853 33.8913C154.123 33.6028 154.258 33.2452 154.258 32.8174V32.5388C154.258 32.1296 154.119 31.7808 153.84 31.4923C153.562 31.2048 153.226 31.0601 152.835 31.0601H148.596V34.3236ZM148.596 41.5768H153.282C153.691 41.5768 154.03 41.4331 154.3 41.1446C154.57 40.8561 154.705 40.4985 154.705 40.0706V39.792C154.705 39.3642 154.57 39.0066 154.3 38.718C154.03 38.4306 153.691 38.2858 153.282 38.2858H148.596V41.5768Z" fill="white"/>
<path d="M179.128 27.4477C179.937 27.8481 180.578 28.4097 181.053 29.1349C181.527 29.86 181.764 30.6695 181.764 31.5614C181.764 33.9232 180.694 35.4107 178.556 36.025V36.1369C180.992 36.6952 182.21 38.2946 182.21 40.935C182.21 41.9388 181.963 42.8273 181.471 43.5985C180.978 44.3708 180.304 44.9708 179.448 45.3986C178.592 45.8265 177.653 46.0404 176.631 46.0404H163.687V26.8477H176.463C177.429 26.8477 178.318 27.0473 179.128 27.4477ZM169.852 34.3236H174.091C174.501 34.3236 174.839 34.1799 175.109 33.8913C175.378 33.6028 175.514 33.2452 175.514 32.8174V32.5388C175.514 32.1296 175.375 31.7808 175.096 31.4923C174.818 31.2048 174.483 31.0601 174.091 31.0601H169.852V34.3236ZM169.852 41.5768H174.538C174.947 41.5768 175.286 41.4331 175.556 41.1446C175.826 40.8561 175.961 40.4985 175.961 40.0706V39.792C175.961 39.3642 175.826 39.0066 175.556 38.718C175.286 38.4306 174.946 38.2858 174.538 38.2858H169.852V41.5768Z" fill="white"/>
<path d="M184.943 26.8486H191.108V41.1313H200.956V46.0413H184.943V26.8486Z" fill="white"/>
<path d="M203.104 26.8486H219.703V31.4515H209.27V34.1018H218.197V38.5095H209.27V41.4384H219.898V46.0413H203.104V26.8486Z" fill="white"/>
<path d="M43.5545 19.9648L43.7322 19.7473C44.9759 18.2253 47.0952 17.7942 49.2904 18.1973C51.2352 18.5544 53.2214 19.524 54.9076 20.9023C56.3987 22.1212 57.6359 23.5672 58.4189 25.0481L73.0427 19.36C72.9137 19.0824 72.7987 18.802 72.6994 18.5198C71.9519 16.3983 72.1102 14.289 73.4499 12.7568C74.7892 11.2251 76.8577 10.7851 79.0606 11.242C80.9385 11.6312 82.866 12.6619 84.5153 14.1035C86.177 15.5555 87.4064 17.3376 88.0733 19.1048C88.3183 19.7539 88.5034 20.7315 88.4625 21.7489C88.4218 22.7626 88.1498 23.9543 87.3326 24.889C86.6552 25.6638 85.7719 26.1726 84.7667 26.4132L84.7662 26.4133C83.8249 26.6383 82.7925 26.6256 81.7221 26.4039L81.722 26.4039C79.844 26.0147 77.9164 24.984 76.267 23.5423L76.2669 23.5422C76.2182 23.4996 76.1699 23.4567 76.122 23.4137L59.0461 30.0555C59.041 30.069 59.0358 30.0825 59.0305 30.096L59.174 30.2083L58.5483 31.0176L53.7788 37.1865L54.6393 37.7945L59.5344 31.6084L60.084 30.9138L60.8527 31.3539L81.0083 42.8956L82.0458 43.4897L81.3038 44.4272L65.9853 63.7823L65.3363 64.6022L64.5269 63.9402L46.7473 49.3986L46.2104 48.9595L42.1119 57.4652C41.9293 57.9207 41.6823 58.2942 41.4173 58.5961L41.4168 58.5966C40.9459 59.1323 40.2569 59.6228 39.2876 59.8551L39.2868 59.8553C38.0476 60.1512 36.4601 60.0004 34.4232 59.1806C32.0923 58.2428 29.5019 56.5546 27.109 54.4509C24.716 52.3471 22.7105 49.994 21.4819 47.8021C20.9783 46.9042 20.6341 46.087 20.424 45.3416L15.7785 47.1818C16.2655 48.8107 16.0728 50.4813 15.0085 51.699L15.0082 51.6993C14.4261 52.3647 13.6593 52.8005 12.8025 53.0054L43.5545 19.9648ZM43.5545 19.9648L38.0518 26.3517M43.5545 19.9648L38.0518 26.3517M38.0518 26.3517L37.1122 25.6878L41.1727 20.564L41.9144 19.6281L40.8791 19.0328L23.6177 9.10792L22.8507 8.66688L22.2997 9.35919L13.2766 20.6963L12.6457 21.489L13.4285 22.1322L28.6688 34.6548L28.7068 34.686L23.4087 38.8952L12.9775 43.0272C12.9586 43.0104 12.9396 42.9936 12.9205 42.9768L12.9194 42.9759C11.6517 41.8679 10.1578 41.0687 8.68556 40.7634C6.89646 40.3923 5.12607 40.7789 3.99524 42.0734L38.0518 26.3517ZM6.08431 50.7964C4.81591 49.6882 3.82479 48.3148 3.32504 46.8971C2.71745 45.1736 2.86405 43.3678 3.99504 42.0736L6.08431 50.7964ZM6.08431 50.7964C7.352 51.9044 8.8459 52.7036 10.3182 53.0089L10.3183 53.0089C11.1768 53.1868 12.0224 53.1922 12.8022 53.0055L6.08431 50.7964ZM51.5974 41.6379L46.8363 47.6545C47.0803 47.0854 47.2583 46.398 47.2737 45.5996L50.7821 41.0618L51.5974 41.6379ZM31.2548 33.0777L34.0677 29.5282L34.8425 30.0757L32.4802 32.8175C32.0576 32.8615 31.6474 32.9473 31.2548 33.0777Z" stroke="white" stroke-width="2.05805"/>
<path d="M39.6689 28.2215L45.8513 21.2228C49.9631 18.4579 58.434 25.6847 56.6112 29.5201L50.503 37.4206C51.8685 35.17 44.8753 26.7679 39.6694 28.2215H39.6689Z" fill="white"/>
<path d="M33.5557 35.2463L38.9228 29.0875C43.0346 26.3226 52.6216 33.9428 50.0539 37.9862L44.7762 44.8275C45.3299 43.2525 37.6635 34.195 33.5562 35.2463H33.5557Z" fill="white"/>
<path d="M23.4443 41.9915L31.483 35.6493C35.5947 32.8844 46.9987 42.9568 44.431 47.0002L39.9116 56.724C40.5734 50.2677 27.9082 40.7362 23.4443 41.9915Z" fill="white"/>
<path d="M56.9658 54.5847L69.3164 38.9775L78.3625 44.2011L64.9607 61.1345L56.9658 54.5847Z" fill="#8162AA"/>
<path d="M49.418 48.5607L60.6961 34.085L69.1266 39.2185L56.9275 54.6581L49.418 48.5607Z" fill="#6389C6"/>
<path d="M21.9287 25.9539L30.2152 15.7227L38.2332 20.3325L29.1078 31.8472L21.9287 25.9539Z" fill="#98CA3F"/>
<path d="M16.0605 21.1275L23.455 11.8369L30.0834 15.6477L21.9278 25.9542L16.0605 21.1275Z" fill="#CBDD72"/>
<path d="M39.5796 56.9772C40.997 55.3649 38.4355 50.7958 33.8583 46.7717C29.281 42.7477 24.4214 40.7926 23.004 42.4049C21.5866 44.0172 24.1481 48.5863 28.7253 52.6104C33.3025 56.6344 38.1622 58.5895 39.5796 56.9772Z" fill="#F8C519"/>
<path d="M85.4858 23.274C86.8745 21.6849 85.7176 18.4019 82.9018 15.9412C80.086 13.4805 76.6776 12.7739 75.2889 14.3629C73.9002 15.952 75.0571 19.235 77.8729 21.6958C80.6887 24.1565 84.0971 24.8631 85.4858 23.274Z" fill="#F07525"/>
<path d="M13.1683 50.0858C14.1663 48.9438 13.3348 46.5842 11.3109 44.8156C9.28712 43.047 6.8374 42.539 5.83935 43.6811C4.84131 44.8232 5.67286 47.1828 7.69669 48.9514C9.72052 50.72 12.1702 51.2279 13.1683 50.0858Z" fill="#E8282B"/>
<path d="M87.1116 19.4681C86.5441 17.8567 85.3817 16.2262 83.8392 14.8784C82.2966 13.5301 80.5255 12.5963 78.8526 12.2496C76.8921 11.843 75.2488 12.2639 74.2255 13.4342C73.2023 14.6045 73.0056 16.2896 73.6709 18.1778C73.8735 18.7536 74.1537 19.3314 74.4984 19.8983L57.8921 26.3576C57.8468 26.242 57.7981 26.126 57.7455 26.0094C57.0738 24.5195 55.8352 22.9888 54.2573 21.699C52.6867 20.4151 50.857 19.531 49.1055 19.2094C47.1135 18.8436 45.4461 19.2773 44.53 20.3984L44.5359 20.4033L38.2223 27.7314L35.6314 25.9008L40.3671 19.9249L23.1058 10L14.0827 21.3371L29.3231 33.8597L33.8671 28.1258L36.3626 29.8891L32.9805 33.8145C31.9745 33.847 31.0849 34.1386 30.3636 34.7031L30.3547 34.6917L23.9304 39.7958L12.7482 44.2252C12.5864 44.063 12.4183 43.9041 12.2432 43.7507C11.0837 42.7373 9.74624 42.0341 8.4776 41.771C6.94393 41.4529 5.59268 41.8099 4.77101 42.7505C3.94886 43.6912 3.77577 45.0779 4.2965 46.555C4.72725 47.7769 5.60251 49.0082 6.76248 50.0216C7.92196 51.035 9.25944 51.7382 10.5281 52.0013C11.2612 52.1532 11.9521 52.1513 12.5638 52.0047C13.232 51.8449 13.8054 51.5125 14.2347 51.0218C15.0568 50.0811 15.2299 48.6945 14.7092 47.2173C14.6369 47.0113 14.5503 46.8053 14.4535 46.6002L21.2063 43.9253C21.2731 44.8113 21.6065 45.9192 22.3805 47.299C23.5375 49.3632 25.4582 51.6286 27.7894 53.678C30.1207 55.7275 32.6132 57.3428 34.8082 58.226C36.724 58.997 38.0851 59.0845 39.0488 58.8544C39.7938 58.6759 40.3017 58.3076 40.645 57.9172C40.8466 57.6875 41.0334 57.4028 41.1696 57.0522L45.7451 47.5566C46.0475 46.9808 46.2865 46.2118 46.2412 45.2539L50.5718 39.6527L53.0796 41.4244L47.3997 48.602L65.1794 63.1437L80.4979 43.7886L60.3423 32.2469L54.8424 39.1974L52.3086 37.407L57.7352 30.3882L57.7239 30.3794C57.954 30.0455 58.1168 29.6752 58.2127 29.2759L76.3552 22.2193C76.545 22.4061 76.7417 22.5895 76.9452 22.7675C78.4878 24.1158 80.2589 25.0496 81.9318 25.3963C82.8837 25.5934 83.7605 25.5959 84.5281 25.4125C85.3414 25.2178 86.0322 24.8141 86.5589 24.2117C87.5816 23.0414 87.7788 21.3563 87.1135 19.4681H87.1116ZM12.0986 49.1557C12.0165 49.2496 11.6841 49.345 11.1029 49.2245C10.3161 49.0613 9.41433 48.5735 8.62807 47.8866C7.84181 47.1991 7.23798 46.3706 6.97097 45.6129C6.77379 45.0533 6.82395 44.7105 6.90606 44.6171C6.93655 44.5822 7.00293 44.5468 7.10374 44.5222C7.2724 44.4819 7.53842 44.4725 7.9018 44.5483C8.68855 44.7115 9.59037 45.1993 10.3766 45.8862C11.1629 46.5737 11.7667 47.4022 12.0337 48.16C12.2309 48.7195 12.1807 49.0623 12.0986 49.1557ZM76.2278 44.6127L64.7427 59.1243L58.9384 54.3768L69.6476 40.8441L76.2283 44.6127H76.2278ZM61.0499 35.921L67.1585 39.4191L56.7429 52.5815L51.3541 48.1742L61.0504 35.9215L61.0499 35.921ZM18.0401 20.9182L23.806 13.6736L27.9517 16.0575L21.7152 23.9383L18.0396 20.9182H18.0401ZM28.8928 29.836L23.9068 25.739L30.4373 17.4864L36.0995 20.7416L28.8928 29.8355V29.836ZM38.5138 56.0442C38.4057 56.1332 37.587 56.3161 35.7135 55.5328C33.843 54.751 31.6937 53.3358 29.6609 51.5484C27.6281 49.761 25.9499 47.8103 24.9345 46.0559C23.9127 44.2896 23.9948 43.4542 24.0671 43.345C24.0858 43.3288 24.1276 43.3096 24.1954 43.2934C24.5013 43.2201 25.3284 43.2113 26.8689 43.8554C27.3484 44.0561 27.8465 44.2985 28.3564 44.5778C28.085 45.7078 29.2351 47.744 31.2202 49.4896C33.2519 51.276 35.474 52.1557 36.5327 51.6699C36.961 52.2358 37.3357 52.7934 37.6479 53.3329C38.6648 55.0908 38.5881 55.9262 38.5134 56.0447L38.5138 56.0442ZM34.3131 45.2952C32.123 43.4429 29.8202 41.9844 27.7752 41.1618C27.5382 41.0664 27.31 40.9818 27.0897 40.9066L32.0546 36.9615L32.0644 36.9728C32.5208 36.5775 33.427 36.5426 34.5511 36.8769C35.9313 37.288 37.5358 38.2233 39.0906 39.5204L34.3131 45.2947V45.2952ZM39.3793 36.1753C38.2857 35.4165 37.2103 34.8353 36.1851 34.4385L39.9384 30.0819C40.199 29.868 40.879 29.7352 41.8762 29.9181C42.5415 30.0401 43.2437 30.282 43.9346 30.6208L39.3793 36.1748V36.1753ZM42.4683 27.1458L46.7334 22.1952L46.7271 22.1897C46.8844 22.0029 47.5074 21.7993 48.5921 21.9985C49.2963 22.1278 50.0437 22.3982 50.7724 22.7788L45.9133 28.4621C44.7931 27.8199 43.6154 27.3666 42.4683 27.1458ZM84.4209 22.3456C83.7762 23.0837 81.2689 22.7828 78.8089 20.6325C76.3488 18.4822 75.7154 16.0378 76.3601 15.3003C76.484 15.1586 76.6768 15.0549 76.9246 14.9959C77.9665 14.7466 79.9846 15.2767 81.9721 17.0134C84.4322 19.1637 85.0655 21.608 84.4209 22.3456Z" fill="#333333"/>
<path d="M87.1106 19.4681C86.5431 17.8567 85.3807 16.2262 83.8382 14.8784C82.2957 13.5301 80.5245 12.5963 78.8516 12.2496C76.8912 11.843 75.2478 12.2639 74.2246 13.4342C73.2013 14.6045 73.0046 16.2896 73.6699 18.1778C73.8725 18.7536 74.1528 19.3314 74.4975 19.8983L57.8911 26.3576C57.8458 26.242 57.7972 26.126 57.7445 26.0094C57.0729 24.5195 55.8342 22.9888 54.2563 21.699C52.6857 20.4151 50.856 19.531 49.1045 19.2094C47.1126 18.8436 45.4451 19.2773 44.5291 20.3984L44.535 20.4033L38.2213 27.7314L35.6304 25.9008L40.3662 19.9249L23.1048 10L14.0817 21.3371L29.3221 33.8597L33.8661 28.1258L36.3616 29.8891L32.9795 33.8145C31.9735 33.847 31.084 34.1386 30.3626 34.7031L30.3538 34.6917L23.9294 39.7958L12.7472 44.2252C12.5854 44.0629 12.4173 43.9041 12.2422 43.7507C11.0827 42.7373 9.74527 42.0341 8.47663 41.771C6.94295 41.4529 5.5917 41.8099 4.77004 42.7505C3.94788 43.6912 3.7748 45.0779 4.29553 46.555C4.72628 47.7769 5.60154 49.0082 6.76151 50.0216C7.92098 51.035 9.25846 51.7382 10.5271 52.0013C11.2603 52.1532 11.9511 52.1513 12.5628 52.0047C13.2311 51.8449 13.8044 51.5125 14.2337 51.0218C15.0558 50.0811 15.2289 48.6945 14.7082 47.2173C14.6359 47.0113 14.5494 46.8053 14.4525 46.6002L21.2053 43.9253C21.2722 44.8113 21.6056 45.9192 22.3795 47.299C23.5365 49.3632 25.4572 51.6286 27.7885 53.678C30.1197 55.7275 32.6122 57.3428 34.8073 58.226C36.723 58.997 38.0841 59.0845 39.0479 58.8544C39.7928 58.6759 40.3008 58.3076 40.644 57.9172C40.8456 57.6875 41.0324 57.4028 41.1687 57.0522L45.7441 47.5566C46.0465 46.9808 46.2855 46.2118 46.2403 45.2539L50.5708 39.6527L53.0786 41.4244L47.3988 48.602L65.1784 63.1437L80.4969 43.7886L60.3413 32.2469L54.8414 39.1974L52.3076 37.407L57.7342 30.3882L57.7229 30.3794C57.953 30.0455 58.1158 29.6752 58.2117 29.2759L76.3542 22.2193C76.544 22.4061 76.7407 22.5895 76.9443 22.7675C78.4868 24.1158 80.258 25.0496 81.9308 25.3963C82.8828 25.5934 83.7595 25.5959 84.5271 25.4125C85.3404 25.2178 86.0312 24.8141 86.5579 24.2117C87.5807 23.0414 87.7778 21.3563 87.1125 19.4681H87.1106ZM12.0977 49.1557C12.0155 49.2496 11.6831 49.345 11.1019 49.2245C10.3152 49.0613 9.41335 48.5735 8.62709 47.8866C7.84083 47.1991 7.237 46.3706 6.97 45.6129C6.77282 45.0533 6.82297 44.7105 6.90509 44.6171C6.93557 44.5822 7.00196 44.5468 7.10276 44.5222C7.27142 44.4819 7.53744 44.4725 7.90082 44.5483C8.68757 44.7115 9.58939 45.1993 10.3756 45.8862C11.1619 46.5737 11.7657 47.4022 12.0327 48.16C12.2299 48.7195 12.1798 49.0623 12.0977 49.1557ZM76.2268 44.6127L64.7417 59.1243L58.9375 54.3768L69.6466 40.8441L76.2268 44.6127ZM61.0489 35.921L67.1576 39.4191L56.7419 52.5815L51.3532 48.1742L61.0489 35.921ZM18.0391 20.9182L23.805 13.6736L27.9507 16.0575L21.7142 23.9383L18.0391 20.9182ZM28.8919 29.836L23.9058 25.739L30.4364 17.4864L36.0985 20.7416L28.8919 29.836ZM38.5129 56.0442C38.4047 56.1332 37.586 56.3161 35.7125 55.5328C33.842 54.751 31.6927 53.3358 29.6599 51.5484C27.6272 49.761 25.9489 47.8103 24.9335 46.0559C23.9117 44.2896 23.9938 43.4542 24.0661 43.345C24.0848 43.3288 24.1266 43.3096 24.1945 43.2934C24.5003 43.2201 25.3274 43.2113 26.868 43.8554C27.3474 44.0561 27.8455 44.2985 28.3554 44.5778C28.084 45.7078 29.2341 47.744 31.2192 49.4896C33.251 51.276 35.4731 52.1557 36.5317 51.6699C36.96 52.2358 37.3347 52.7934 37.647 53.3329C38.6638 55.0908 38.5876 55.9257 38.5129 56.0442ZM34.3121 45.2952C32.122 43.4429 29.8193 41.9844 27.7742 41.1618C27.5372 41.0664 27.309 40.9818 27.0887 40.9066L32.0536 36.9615L32.0635 36.9728C32.5198 36.5775 33.426 36.5426 34.5501 36.8769C35.9304 37.288 37.5348 38.2233 39.0897 39.5204L34.3121 45.2952ZM39.3783 36.1753C38.2847 35.4165 37.2093 34.8353 36.1841 34.4385L39.9374 30.0819C40.198 29.868 40.878 29.7352 41.8753 29.9181C42.5406 30.0401 43.2427 30.282 43.9336 30.6208L39.3783 36.1753ZM42.4673 27.1458L46.7325 22.1952L46.7261 22.1897C46.8834 22.0029 47.5064 21.7993 48.5912 21.9985C49.2953 22.1278 50.0427 22.3982 50.7715 22.7788L45.9123 28.4621C44.7921 27.8199 43.6145 27.3666 42.4673 27.1458ZM84.4199 22.3456C83.7752 23.0837 81.268 22.7828 78.8079 20.6325C76.3478 18.4822 75.7145 16.0378 76.3591 15.3003C76.483 15.1586 76.6758 15.0549 76.9236 14.9959C77.9656 14.7466 79.9836 15.2767 81.9711 17.0134C84.4312 19.1637 85.0645 21.608 84.4199 22.3456Z" fill="#333333"/>
</g>
<defs>
<clipPath id="clip0_7036_18579">
<rect width="220" height="66" fill="white"/>
</clipPath>
</defs>
</svg>
