<svg width="228" height="66" viewBox="0 0 228 66" fill="none" xmlns="http://www.w3.org/2000/svg">
<path d="M105.792 46.0404V38.7597H99.0127V46.0404H92.8477V26.8477H99.0127V33.8497H105.792V26.8477H111.957V46.0404H105.792Z" fill="#333333"/>
<path d="M132.264 44.3114C130.609 45.6881 128.256 46.3759 125.207 46.3759C122.157 46.3759 119.8 45.6881 118.135 44.3114C116.47 42.9347 115.639 40.936 115.639 38.3142V26.8486H121.804V38.2298C121.804 39.3081 122.092 40.1692 122.668 40.8099C123.244 41.4516 124.081 41.773 125.179 41.773C126.277 41.773 127.117 41.4472 127.703 40.7967C128.289 40.1451 128.582 39.2906 128.582 38.2298V26.8486H134.747V38.3142C134.747 40.9371 133.919 42.9358 132.264 44.3114Z" fill="#333333"/>
<path d="M153.872 27.4477C154.68 27.8481 155.322 28.4097 155.797 29.1349C156.272 29.86 156.508 30.6695 156.508 31.5614C156.508 33.9232 155.438 35.4107 153.3 36.025V36.1369C155.736 36.6952 156.955 38.2946 156.955 40.935C156.955 41.9388 156.708 42.8273 156.216 43.5985C155.723 44.3708 155.049 44.9708 154.193 45.3986C153.337 45.8265 152.398 46.0404 151.376 46.0404H138.432V26.8477H151.208C152.175 26.8477 153.063 27.0473 153.873 27.4477H153.872ZM144.596 34.3236H148.835C149.245 34.3236 149.584 34.1799 149.853 33.8913C150.123 33.6028 150.258 33.2452 150.258 32.8174V32.5388C150.258 32.1296 150.119 31.7808 149.84 31.4923C149.562 31.2048 149.226 31.0601 148.835 31.0601H144.596V34.3236ZM144.596 41.5768H149.282C149.691 41.5768 150.03 41.4331 150.3 41.1446C150.57 40.8561 150.705 40.4985 150.705 40.0706V39.792C150.705 39.3642 150.57 39.0066 150.3 38.718C150.03 38.4306 149.691 38.2858 149.282 38.2858H144.596V41.5768Z" fill="#333333"/>
<path d="M175.128 27.4477C175.937 27.8481 176.578 28.4097 177.053 29.1349C177.527 29.86 177.764 30.6695 177.764 31.5614C177.764 33.9232 176.694 35.4107 174.556 36.025V36.1369C176.992 36.6952 178.21 38.2946 178.21 40.935C178.21 41.9388 177.963 42.8273 177.471 43.5985C176.978 44.3708 176.304 44.9708 175.448 45.3986C174.592 45.8265 173.653 46.0404 172.631 46.0404H159.687V26.8477H172.463C173.429 26.8477 174.318 27.0473 175.128 27.4477ZM165.852 34.3236H170.091C170.501 34.3236 170.839 34.1799 171.109 33.8913C171.378 33.6028 171.514 33.2452 171.514 32.8174V32.5388C171.514 32.1296 171.375 31.7808 171.096 31.4923C170.818 31.2048 170.483 31.0601 170.091 31.0601H165.852V34.3236ZM165.852 41.5768H170.538C170.947 41.5768 171.286 41.4331 171.556 41.1446C171.826 40.8561 171.961 40.4985 171.961 40.0706V39.792C171.961 39.3642 171.826 39.0066 171.556 38.718C171.286 38.4306 170.946 38.2858 170.538 38.2858H165.852V41.5768Z" fill="#333333"/>
<path d="M180.943 26.8486H187.108V41.1313H196.956V46.0413H180.943V26.8486Z" fill="#333333"/>
<path d="M199.104 26.8486H215.703V31.4515H205.27V34.1018H214.197V38.5095H205.27V41.4384H215.898V46.0413H199.104V26.8486Z" fill="#333333"/>
<path d="M35.625 28.2688L41.7999 21.2787C45.9066 18.5171 54.3672 25.7351 52.5466 29.5659L46.4459 37.4567C47.8097 35.2089 40.825 26.8171 35.6255 28.2688H35.625Z" fill="white"/>
<path d="M29.5195 35.285L34.8801 29.1337C38.9869 26.3721 48.5623 33.983 45.9976 38.0215L40.7264 44.8545C41.2794 43.2814 33.6224 34.235 29.52 35.285H29.5195Z" fill="white"/>
<path d="M19.4209 42.0213L27.4497 35.6868C31.5565 32.9253 42.9466 42.9854 40.382 47.0239L35.8681 56.7358C36.5291 50.2874 23.8793 40.7675 19.4209 42.0213Z" fill="white"/>
<path d="M52.8994 54.5989L65.2349 39.0107L74.2701 44.2279L60.8846 61.1407L52.8994 54.5989Z" fill="white"/>
<path d="M45.3604 48.5821L56.6247 34.124L65.045 39.2513L52.8608 54.6721L45.3604 48.5821Z" fill="white"/>
<path d="M17.9062 26.0029L26.1826 15.7842L34.1908 20.3884L25.0766 31.889L17.9062 26.0029Z" fill="white"/>
<path d="M12.0459 21.1826L19.4314 11.9033L26.0517 15.7095L17.906 26.0034L12.0459 21.1826Z" fill="white"/>
<path d="M35.5358 56.9884C36.9515 55.3781 34.393 50.8145 29.8214 46.7954C25.2497 42.7763 20.396 40.8235 18.9803 42.4339C17.5646 44.0442 20.123 48.6077 24.6947 52.6269C29.2663 56.646 34.12 58.5987 35.5358 56.9884Z" fill="white"/>
<path d="M81.3854 23.3252C82.7724 21.7381 81.6169 18.4591 78.8045 16.0014C75.9921 13.5436 72.5878 12.8379 71.2008 14.425C69.8138 16.0122 70.9693 19.2912 73.7817 21.7489C76.5941 24.2067 79.9984 24.9124 81.3854 23.3252Z" fill="white"/>
<path d="M9.15618 50.105C10.153 48.9643 9.32247 46.6076 7.30111 44.8411C5.27974 43.0747 2.83301 42.5674 1.83618 43.7081C0.839343 44.8487 1.66989 47.2054 3.69125 48.9719C5.71262 50.7383 8.15935 51.2456 9.15618 50.105Z" fill="white"/>
<path d="M83.0093 19.5249C82.4426 17.9155 81.2816 16.2869 79.7409 14.9408C78.2003 13.5941 76.4313 12.6615 74.7605 12.3152C72.8024 11.9091 71.161 12.3295 70.139 13.4984C69.117 14.6672 68.9205 16.3503 69.585 18.2362C69.7874 18.8113 70.0673 19.3884 70.4116 19.9546L53.8254 26.406C53.7803 26.2906 53.7316 26.1747 53.6791 26.0583C53.0082 24.5702 51.7711 23.0413 50.1951 21.7531C48.6264 20.4708 46.799 19.5878 45.0496 19.2666C43.0601 18.9012 41.3947 19.3343 40.4797 20.4541L40.4856 20.459L34.1796 27.7782L31.5919 25.9497L36.3219 19.9812L19.0815 10.0684L10.0695 21.3917L25.2913 33.899L29.8297 28.1721L32.3222 29.9332L28.9442 33.8539C27.9394 33.8863 27.051 34.1775 26.3305 34.7413L26.3217 34.73L19.9052 39.8279L8.73656 44.2519C8.57498 44.0898 8.40702 43.9312 8.23218 43.7779C7.07412 42.7657 5.73827 42.0634 4.47117 41.8007C2.93937 41.4829 1.58976 41.8395 0.7691 42.779C-0.0520548 43.7185 -0.22493 45.1035 0.295168 46.5788C0.72539 47.7992 1.59959 49.029 2.75814 50.0412C3.91621 51.0534 5.25206 51.7557 6.51915 52.0185C7.25141 52.1702 7.94144 52.1683 8.55239 52.0219C9.21983 51.8623 9.79247 51.5303 10.2212 51.0402C11.0424 50.1006 11.2153 48.7157 10.6952 47.2404C10.623 47.0346 10.5365 46.8288 10.4398 46.624L17.1843 43.9523C17.2511 44.8373 17.5841 45.9438 18.3571 47.3219C19.5127 49.3836 21.4311 51.6462 23.7595 53.6932C26.0879 55.7402 28.5774 57.3535 30.7697 58.2356C32.6831 59.0057 34.0426 59.0931 35.0052 58.8632C35.7492 58.685 36.2565 58.3171 36.5993 57.9272C36.8007 57.6978 36.9873 57.4134 37.1234 57.0633L41.6933 47.5792C41.9953 47.0041 42.234 46.236 42.1888 45.2793L46.5141 39.6849L49.0188 41.4545L43.3459 48.6233L61.1039 63.1473L76.4038 43.8158L56.2727 32.2882L50.7795 39.2302L48.2487 37.442L53.6688 30.4317L53.6575 30.4229C53.8873 30.0894 54.0499 29.7196 54.1456 29.3208L72.2661 22.2727C72.4556 22.4594 72.6521 22.6425 72.8554 22.8203C74.396 24.167 76.1651 25.0996 77.8359 25.4459C78.7867 25.6428 79.6624 25.6453 80.429 25.4621C81.2413 25.2676 81.9313 24.8644 82.4573 24.2627C83.4789 23.0939 83.6758 21.4108 83.0113 19.5249H83.0093ZM8.08779 49.1763C8.00577 49.2702 7.67378 49.3654 7.09327 49.2451C6.30748 49.0821 5.40676 48.5949 4.62146 47.9088C3.83615 47.2222 3.23306 46.3946 2.96638 45.6378C2.76944 45.0789 2.81953 44.7366 2.90155 44.6433C2.932 44.6084 2.9983 44.5731 3.09898 44.5485C3.26743 44.5082 3.53313 44.4989 3.89607 44.5745C4.68186 44.7376 5.58258 45.2248 6.36788 45.9109C7.15319 46.5975 7.75628 47.425 8.02296 48.1818C8.2199 48.7407 8.16981 49.083 8.08779 49.1763ZM72.1389 44.6389L60.6677 59.1329L54.8705 54.3911L65.5667 40.8749L72.1394 44.6389H72.1389ZM56.9794 35.9578L63.0806 39.4517L52.6777 52.598L47.2955 48.1961L56.9799 35.9583L56.9794 35.9578ZM14.022 20.9732L19.7809 13.7375L23.9215 16.1185L17.6927 23.9897L14.0215 20.9732H14.022ZM24.8616 29.8802L19.8816 25.7882L26.4042 17.5457L32.0594 20.7969L24.8616 29.8797V29.8802ZM34.4708 56.0565C34.3628 56.1454 33.5451 56.3281 31.6739 55.5457C29.8057 54.7648 27.659 53.3514 25.6287 51.5662C23.5984 49.7809 21.9222 47.8326 20.908 46.0803C19.8875 44.3162 19.9695 43.4818 20.0417 43.3728C20.0603 43.3566 20.1021 43.3374 20.1699 43.3212C20.4753 43.248 21.3014 43.2392 22.8401 43.8826C23.3189 44.0829 23.8164 44.3251 24.3257 44.604C24.0546 45.7326 25.2034 47.7663 27.186 49.5098C29.2153 51.2941 31.4347 52.1727 32.4921 51.6875C32.9199 52.2527 33.2941 52.8097 33.606 53.3484C34.6216 55.1042 34.545 55.9386 34.4703 56.057L34.4708 56.0565ZM30.2752 45.3206C28.0877 43.4705 25.7878 42.0138 23.7452 41.1922C23.5085 41.0969 23.2806 41.0124 23.0606 40.9373L28.0195 36.997L28.0293 37.0083C28.485 36.6135 29.3902 36.5786 30.5129 36.9126C31.8915 37.3231 33.494 38.2572 35.0469 39.5528L30.2752 45.3201V45.3206ZM35.3352 36.2117C34.243 35.4539 33.1689 34.8734 32.1449 34.4771L35.8936 30.1258C36.1539 29.9121 36.8331 29.7795 37.8291 29.9622C38.4936 30.084 39.1949 30.3256 39.885 30.664L35.3352 36.2112V36.2117ZM38.4204 27.1933L42.6804 22.2487L42.674 22.2433C42.8312 22.0566 43.4534 21.8533 44.5369 22.0522C45.2401 22.1814 45.9866 22.4515 46.7145 22.8316L41.8612 28.508C40.7425 27.8666 39.5662 27.4138 38.4204 27.1933ZM80.3219 22.3989C79.6781 23.1361 77.1738 22.8355 74.7168 20.6879C72.2597 18.5402 71.6271 16.0988 72.271 15.3622C72.3947 15.2207 72.5873 15.1171 72.8348 15.0582C73.8755 14.8092 75.891 15.3386 77.8761 17.0732C80.3332 19.2209 80.9658 21.6623 80.3219 22.3989Z" fill="#333333"/>
</svg>
