<svg width="143" height="126" viewBox="0 0 143 126" fill="none" xmlns="http://www.w3.org/2000/svg">
<g clip-path="url(#clip0_7036_18419)">
<path d="M36.9608 124.855V119.337H31.8259V124.855H27.1562V110.309H31.8259V115.616H36.9608V110.309H41.6304V124.855H36.9608Z" fill="#333333"/>
<path d="M57.0129 123.545C55.7591 124.589 53.9769 125.11 51.667 125.11C49.3571 125.11 47.5715 124.589 46.311 123.545C45.0497 122.502 44.4199 120.987 44.4199 119V110.31H49.0895V118.936C49.0895 119.753 49.3081 120.406 49.7443 120.891C50.1805 121.378 50.8145 121.621 51.6462 121.621C52.4779 121.621 53.1144 121.374 53.5581 120.881C54.0018 120.387 54.2236 119.74 54.2236 118.936V110.31H58.8932V119C58.8932 120.988 58.2659 122.503 57.0129 123.545Z" fill="#333333"/>
<path d="M73.3784 110.763C73.9908 111.067 74.4768 111.493 74.8366 112.042C75.1964 112.592 75.375 113.205 75.375 113.881C75.375 115.671 74.5649 116.799 72.9455 117.264V117.349C74.7909 117.772 75.714 118.985 75.714 120.986C75.714 121.747 75.5271 122.42 75.154 123.005C74.781 123.59 74.27 124.045 73.6219 124.369C72.9738 124.693 72.2625 124.855 71.4881 124.855H61.6836V110.309H71.361C72.093 110.309 72.766 110.46 73.3792 110.763H73.3784ZM66.3524 115.975H69.5638C69.8737 115.975 70.1304 115.866 70.3348 115.647C70.5392 115.429 70.6414 115.158 70.6414 114.833V114.622C70.6414 114.312 70.5359 114.048 70.3249 113.829C70.1138 113.611 69.8596 113.501 69.5638 113.501H66.3524V115.975ZM66.3524 121.472H69.9019C70.2119 121.472 70.4686 121.363 70.673 121.145C70.8774 120.926 70.9796 120.655 70.9796 120.331V120.12C70.9796 119.795 70.8774 119.524 70.673 119.306C70.4686 119.088 70.2119 118.978 69.9019 118.978H66.3524V121.472Z" fill="#333333"/>
<path d="M89.4779 110.763C90.0911 111.067 90.5763 111.493 90.9361 112.042C91.295 112.592 91.4745 113.205 91.4745 113.881C91.4745 115.671 90.6644 116.799 89.045 117.264V117.349C90.8904 117.772 91.8127 118.985 91.8127 120.986C91.8127 121.747 91.6257 122.42 91.2527 123.005C90.8796 123.59 90.3686 124.045 89.7205 124.369C89.0724 124.693 88.3611 124.855 87.5868 124.855H77.7822V110.309H87.4596C88.1917 110.309 88.8647 110.46 89.4779 110.763ZM82.4518 115.975H85.6632C85.9732 115.975 86.2299 115.866 86.4343 115.647C86.6379 115.429 86.7409 115.158 86.7409 114.833V114.622C86.7409 114.312 86.6354 114.048 86.4243 113.829C86.2133 113.611 85.9599 113.501 85.6632 113.501H82.4518V115.975ZM82.4518 121.472H86.0014C86.3113 121.472 86.5681 121.363 86.7725 121.145C86.9769 120.926 87.0791 120.655 87.0791 120.331V120.12C87.0791 119.795 86.9769 119.524 86.7725 119.306C86.5681 119.088 86.3105 118.978 86.0014 118.978H82.4518V121.472Z" fill="#333333"/>
<path d="M93.8848 110.31H98.5544V121.135H106.013V124.856H93.8848V110.31Z" fill="#333333"/>
<path d="M107.639 110.31H120.211V113.798H112.308V115.807H119.07V119.148H112.308V121.368H120.359V124.856H107.639V110.31Z" fill="#333333"/>
<path d="M61.2002 31.3402L71.647 19.5064C78.5949 14.8312 92.9087 27.0508 89.8286 33.536L79.5072 46.8946C81.8146 43.0892 69.9977 28.8824 61.201 31.3402H61.2002Z" fill="white"/>
<path d="M50.8711 43.2188L59.9403 32.805C66.8882 28.1299 83.0881 41.0146 78.7492 47.8515L69.8312 59.4193C70.7668 56.7562 57.8124 41.4412 50.8719 43.2188H50.8711Z" fill="white"/>
<path d="M33.7861 54.6232L47.3696 43.8993C54.3175 39.2242 73.5876 56.2553 69.2486 63.0922L61.6119 79.5338C62.7303 68.617 41.329 52.5005 33.7861 54.6232Z" fill="white"/>
<path d="M141.366 16.5386C140.407 13.814 138.443 11.0569 135.837 8.77796C133.23 6.49816 130.237 4.91927 127.411 4.33311C124.098 3.64551 121.321 4.35722 119.592 6.33603C117.863 8.31485 117.53 11.1642 118.655 14.3569C118.997 15.3305 119.47 16.3074 120.053 17.2661L91.9921 28.1878C91.9156 27.9924 91.8334 27.7962 91.7444 27.5991C90.6094 25.0799 88.5164 22.4916 85.8501 20.3108C83.1962 18.1399 80.1045 16.645 77.1448 16.1012C73.7789 15.4826 70.9613 16.216 69.4134 18.1116L69.4233 18.12L58.7547 30.5108L54.3767 27.4154L62.379 17.311L33.2114 0.529297L17.9645 19.6988L43.7172 40.873L51.3955 31.1776L55.6122 34.1591L49.8974 40.7965C48.1974 40.8514 46.6943 41.3444 45.4754 42.2989L45.4604 42.2798L34.6048 50.91L15.7095 58.3996C15.4361 58.1252 15.1519 57.8567 14.8561 57.5973C12.8969 55.8837 10.6369 54.6947 8.49316 54.2499C5.90161 53.712 3.61832 54.3156 2.2299 55.9061C0.840643 57.4967 0.548169 59.8413 1.42808 62.3389C2.15595 64.4051 3.63493 66.487 5.59501 68.2006C7.55426 69.9141 9.81428 71.1031 11.958 71.5479C13.1968 71.8048 14.3642 71.8015 15.3979 71.5537C16.5271 71.2835 17.4959 70.7215 18.2213 69.8917C19.6105 68.3012 19.903 65.9565 19.0231 63.4589C18.9009 63.1105 18.7547 62.7621 18.591 62.4154L30.0016 57.8924C30.1146 59.3907 30.678 61.2639 31.9858 63.5969C33.9409 67.0873 37.1864 70.9177 41.1256 74.3831C45.0649 77.8485 49.2767 80.5798 52.9858 82.073C56.223 83.3767 58.5229 83.5247 60.1514 83.1356C61.4102 82.8338 62.2685 82.2111 62.8485 81.5509C63.1892 81.1626 63.5049 80.6812 63.7351 80.0884L71.4665 64.0326C71.9775 63.059 72.3813 61.7586 72.3049 60.139L79.6225 50.6681L83.8601 53.6638L74.2625 65.8002L104.306 90.3882L130.191 57.6613L96.1324 38.1459L86.8389 49.8982L82.5573 46.8709L91.727 35.0031L91.7079 34.9881C92.0967 34.4235 92.3718 33.7975 92.5338 33.1223L123.19 21.1904C123.511 21.5064 123.843 21.8165 124.187 22.1175C126.794 24.3973 129.787 25.9762 132.614 26.5623C134.222 26.8957 135.704 26.8999 137.001 26.5898C138.375 26.2605 139.542 25.5779 140.432 24.5594C142.161 22.5806 142.494 19.7313 141.37 16.5386H141.366ZM14.6119 66.7364C14.4731 66.8952 13.9114 67.0565 12.9293 66.8528C11.5999 66.5768 10.076 65.752 8.74742 64.5905C7.41882 63.4281 6.39848 62.0272 5.94731 60.7459C5.61412 59.7997 5.69887 59.2202 5.83763 59.0623C5.88915 59.0032 6.00132 58.9434 6.17165 58.9018C6.45665 58.8336 6.90616 58.8178 7.52019 58.9459C8.84962 59.2219 10.3735 60.0467 11.7021 61.2082C13.0307 62.3705 14.051 63.7715 14.5022 65.0527C14.8354 65.9989 14.7506 66.5784 14.6119 66.7364ZM122.975 59.0548L103.568 83.5921L93.7602 75.5646L111.856 52.6827L122.975 59.0548ZM97.328 44.3583L107.65 50.2732L90.0503 72.529L80.9445 65.0769L97.3289 44.3592L97.328 44.3583ZM24.6515 18.9905L34.3946 6.74094L41.3998 10.7717L30.8616 24.0971L24.6515 18.9905ZM42.9902 34.0693L34.5649 27.1418L45.6 13.1879L55.1677 18.692L42.9902 34.0693ZM59.2474 78.384C59.0646 78.5344 57.6812 78.8437 54.5155 77.5193C51.3548 76.1973 47.7229 73.8044 44.288 70.7822C40.8531 67.7599 38.0173 64.4616 36.3015 61.495C34.5749 58.5085 34.7136 57.0959 34.8358 56.9113C34.8674 56.8839 34.938 56.8515 35.0526 56.824C35.5695 56.7002 36.967 56.6852 39.5702 57.7744C40.3803 58.1136 41.222 58.5235 42.0837 58.9957C41.625 60.9064 43.5685 64.3493 46.9228 67.3009C50.356 70.3215 54.1108 71.809 55.8997 70.9875C56.6234 71.9445 57.2566 72.8873 57.7842 73.7994C59.5025 76.7718 59.3729 78.1844 59.2466 78.3848L59.2474 78.384ZM52.1491 60.2088C48.4483 57.0768 44.5572 54.6108 41.1015 53.2198C40.701 53.0585 40.3155 52.9155 39.9433 52.7883L48.3328 46.1177L48.3494 46.1368C49.1205 45.4683 50.6518 45.4093 52.5512 45.9747C54.8836 46.6697 57.5948 48.2511 60.222 50.4444L52.1491 60.2088ZM60.7098 44.7882C58.8619 43.5053 57.0447 42.5225 55.3123 41.8516L61.6545 34.4851C62.0949 34.1234 63.244 33.8989 64.929 34.2082C66.0532 34.4144 67.2398 34.8235 68.4072 35.3963L60.7098 44.7882ZM65.9294 29.5206L73.1366 21.1497L73.1258 21.1405C73.3917 20.8246 74.4444 20.4804 76.2774 20.8171C77.4672 21.0358 78.7302 21.4931 79.9616 22.1366L71.7507 31.7463C69.8579 30.6605 67.8679 29.8939 65.9294 29.5206ZM136.82 21.4041C135.73 22.6521 131.494 22.1433 127.337 18.5074C123.18 14.8715 122.109 10.7385 123.199 9.49133C123.408 9.25187 123.734 9.07644 124.153 8.97667C125.913 8.55513 129.323 9.45142 132.682 12.388C136.839 16.0239 137.909 20.157 136.82 21.4041Z" fill="#333333"/>
</g>
<defs>
<clipPath id="clip0_7036_18419">
<rect width="141.092" height="124.581" fill="white" transform="translate(0.927734 0.529297)"/>
</clipPath>
</defs>
</svg>
