<svg width="162" height="138" viewBox="0 0 162 138" fill="none" xmlns="http://www.w3.org/2000/svg">
<g clip-path="url(#clip0_7036_18453)">
<path d="M45.2651 138.045V132.495H40.0971V138.045H35.3975V123.414H40.0971V128.752H45.2651V123.414H49.9647V138.045H45.2651Z" fill="white"/>
<path d="M65.4455 136.727C64.1836 137.777 62.3899 138.301 60.0652 138.301C57.7404 138.301 55.9433 137.777 54.6748 136.727C53.4054 135.678 52.7715 134.154 52.7715 132.155V123.415H57.4711V132.091C57.4711 132.913 57.6911 133.569 58.1301 134.058C58.5691 134.547 59.2072 134.792 60.0443 134.792C60.8813 134.792 61.5219 134.544 61.9684 134.048C62.415 133.551 62.6383 132.9 62.6383 132.091V123.415H67.3379V132.155C67.3379 134.155 66.7066 135.678 65.4455 136.727Z" fill="white"/>
<path d="M81.9165 123.871C82.5329 124.177 83.0221 124.605 83.3841 125.158C83.7462 125.71 83.926 126.328 83.926 127.007C83.926 128.808 83.1107 129.942 81.4809 130.41V130.495C83.3381 130.921 84.2672 132.14 84.2672 134.153C84.2672 134.918 84.0791 135.596 83.7036 136.183C83.3281 136.772 82.8138 137.23 82.1616 137.556C81.5093 137.882 80.7935 138.045 80.0141 138.045H70.1465V123.414H79.8862C80.6229 123.414 81.3002 123.566 81.9174 123.871H81.9165ZM74.8453 129.113H78.0774C78.3893 129.113 78.6477 129.003 78.8534 128.784C79.0591 128.564 79.162 128.291 79.162 127.965V127.752C79.162 127.441 79.0558 127.175 78.8434 126.955C78.631 126.736 78.3751 126.625 78.0774 126.625H74.8453V129.113ZM74.8453 134.642H78.4177C78.7296 134.642 78.988 134.533 79.1938 134.313C79.3995 134.093 79.5023 133.82 79.5023 133.494V133.282C79.5023 132.956 79.3995 132.683 79.1938 132.463C78.988 132.244 78.7296 132.134 78.4177 132.134H74.8453V134.642Z" fill="white"/>
<path d="M98.1205 123.871C98.7376 124.177 99.226 124.605 99.5881 125.158C99.9494 125.71 100.13 126.328 100.13 127.007C100.13 128.808 99.3147 129.942 97.6848 130.41V130.495C99.5421 130.921 100.47 132.14 100.47 134.153C100.47 134.918 100.282 135.596 99.9067 136.183C99.5312 136.772 99.017 137.23 98.3647 137.556C97.7124 137.882 96.9966 138.045 96.2172 138.045H86.3496V123.414H96.0893C96.826 123.414 97.5034 123.566 98.1205 123.871ZM91.0493 129.113H94.2813C94.5932 129.113 94.8516 129.003 95.0574 128.784C95.2622 128.564 95.3659 128.291 95.3659 127.965V127.752C95.3659 127.441 95.2597 127.175 95.0473 126.955C94.8349 126.736 94.5799 126.625 94.2813 126.625H91.0493V129.113ZM91.0493 134.642H94.6217C94.9336 134.642 95.192 134.533 95.3977 134.313C95.6034 134.093 95.7063 133.82 95.7063 133.494V133.282C95.7063 132.956 95.6034 132.683 95.3977 132.463C95.192 132.244 94.9328 132.134 94.6217 132.134H91.0493V134.642Z" fill="white"/>
<path d="M102.554 123.415H107.253V134.303H114.76V138.046H102.554V123.415Z" fill="white"/>
<path d="M116.398 123.415H129.052V126.924H121.098V128.944H127.903V132.304H121.098V134.537H129.2V138.046H116.398V123.415Z" fill="white"/>
<path d="M76.2678 29.9467L76.5702 29.5766C78.6852 26.9883 82.2893 26.2551 86.0226 26.9407C89.3301 27.548 92.7079 29.1968 95.5754 31.5409C98.1113 33.6137 100.215 36.0729 101.547 38.5914L126.417 28.918C126.197 28.446 126.002 27.969 125.833 27.489C125.833 27.4888 125.833 27.4885 125.833 27.4883L127.483 26.9075C126.352 23.6963 126.686 20.8305 128.427 18.8403C130.167 16.85 132.962 16.1342 136.296 16.8258C139.14 17.4153 142.153 19.0034 144.776 21.2963L144.812 21.3278C145.606 22.0209 148.529 24.5715 150.344 29.1018L76.2678 29.9467ZM76.2678 29.9467L66.9098 40.8083L65.3118 39.6792M76.2678 29.9467L65.3118 39.6792M65.3118 39.6792L72.2172 30.9656L73.4786 29.3739L71.718 28.3615L42.3627 11.4829L41.0582 10.7328L40.1211 11.9102L24.7761 31.1905L23.7032 32.5386L25.0344 33.6324L50.9528 54.9289L51.0173 54.9819L42.0072 62.1404L24.2675 69.1673C24.2353 69.1387 24.203 69.1101 24.1705 69.0817L24.1687 69.0801C22.0128 67.1958 19.4722 65.8367 16.9685 65.3175C13.9258 64.6864 10.915 65.3439 8.99191 67.5452H8.99191C7.06819 69.7462 6.81878 72.8174 7.85214 75.7487C8.70204 78.1596 10.3876 80.4953 12.5447 82.3799L65.3118 39.6792ZM57.4346 51.8044C56.7158 51.8792 56.0182 52.025 55.3506 52.2469L60.1343 46.2105L61.452 47.1416L57.4346 51.8044ZM145.927 19.9785C143.122 17.5268 139.844 15.774 136.651 15.1122L145.927 19.9785Z" stroke="white" stroke-width="3.5"/>
<path d="M69.6602 43.9898L80.1742 32.0876C87.1668 27.3854 101.573 39.6756 98.4728 46.1983L88.085 59.6341C90.4072 55.8066 78.5142 41.5178 69.661 43.9898H69.6602Z" fill="white"/>
<path d="M59.2646 55.9361L68.3922 45.4622C75.3848 40.76 91.689 53.7192 87.3221 60.5956L78.3468 72.2302C79.2884 69.5517 66.2506 54.1482 59.2655 55.9361H59.2646Z" fill="white"/>
<path d="M42.0693 67.4066L55.7402 56.6208C62.7328 51.9186 82.1268 69.0481 77.76 75.9245L70.0741 92.4611C71.1997 81.4813 49.6607 65.2716 42.0693 67.4066Z" fill="white"/>
<path d="M99.0732 88.8225L120.077 62.2803L135.461 71.1636L112.67 99.9612L99.0732 88.8225Z" fill="#8162AA"/>
<path d="M86.2373 78.578L105.417 53.96L119.755 62.6903L99.0083 88.9474L86.2373 78.578Z" fill="#6389C6"/>
<path d="M39.4893 40.132L53.5816 22.7324L67.2173 30.5722L51.6983 50.1544L39.4893 40.132Z" fill="#98CA3F"/>
<path d="M29.5117 31.9239L42.0871 16.124L53.3596 22.6049L39.4897 40.1324L29.5117 31.9239Z" fill="#CBDD72"/>
<path d="M69.5079 92.8917C71.9184 90.1498 67.5622 82.3793 59.778 75.5359C51.9938 68.6925 43.7293 65.3676 41.3188 68.1095C38.9082 70.8515 43.2644 78.6219 51.0487 85.4653C58.8329 92.3087 67.0973 95.6336 69.5079 92.8917Z" fill="#F8C519"/>
<path d="M147.577 35.5738C149.939 32.8713 147.972 27.2881 143.183 23.1033C138.394 18.9185 132.598 17.7168 130.236 20.4193C127.874 23.1217 129.842 28.705 134.631 32.8897C139.419 37.0745 145.216 38.2762 147.577 35.5738Z" fill="#F07525"/>
<path d="M24.5918 81.1712C26.2891 79.229 24.875 75.2162 21.4332 72.2084C17.9914 69.2007 13.8253 68.3369 12.128 70.2791C10.4306 72.2214 11.8448 76.2342 15.2866 79.2419C18.7284 82.2497 22.8945 83.1135 24.5918 81.1712Z" fill="#E8282B"/>
<path d="M150.342 29.1018C149.377 26.3614 147.4 23.5885 144.777 21.2963C142.154 19.0034 139.141 17.4153 136.297 16.8258C132.963 16.1342 130.168 16.85 128.428 18.8403C126.687 20.8305 126.353 23.6963 127.484 26.9075C127.829 27.8867 128.305 28.8693 128.892 29.8335L100.65 40.8183C100.573 40.6218 100.491 40.4244 100.401 40.2263C99.2587 37.6925 97.1523 35.0892 94.4688 32.8958C91.7978 30.7124 88.6862 29.2088 85.7075 28.6619C82.3199 28.0398 79.4842 28.7773 77.9263 30.6839L77.9363 30.6923L67.199 43.1548L62.7929 40.0415L70.8467 29.8786L41.4914 13L26.1464 32.2803L52.0648 53.5768L59.7925 43.8254L64.0364 46.8242L58.2847 53.4999C56.5738 53.5551 55.061 54.051 53.8343 55.011L53.8192 54.9917L42.8937 63.6719L23.8768 71.2047C23.6017 70.9288 23.3157 70.6587 23.018 70.3978C21.0462 68.6743 18.7716 67.4784 16.6141 67.0311C14.0059 66.49 11.7079 67.0971 10.3105 68.6968C8.91234 70.2966 8.61799 72.6548 9.50356 75.1668C10.2361 77.2449 11.7246 79.3388 13.6973 81.0623C15.6692 82.7858 17.9437 83.9816 20.1012 84.429C21.348 84.6874 22.523 84.6841 23.5632 84.4349C24.6997 84.1631 25.6747 83.5978 26.4048 82.7632C27.803 81.1635 28.0973 78.8053 27.2118 76.2932C27.0888 75.9429 26.9417 75.5925 26.7769 75.2438L38.261 70.6946C38.3747 72.2015 38.9417 74.0856 40.2579 76.432C42.2256 79.9426 45.4919 83.7951 49.4565 87.2806C53.4212 90.766 57.66 93.5131 61.393 95.0149C64.651 96.3262 66.9657 96.475 68.6047 96.0837C69.8716 95.7801 70.7355 95.1538 71.3192 94.4898C71.662 94.0993 71.9798 93.6151 72.2114 93.0188L79.9926 76.8702C80.5069 75.891 80.9133 74.5831 80.8364 72.9541L88.2012 63.4285L92.466 66.4415L82.8066 78.6481L113.043 103.378L139.095 70.4621L104.817 50.8339L95.4639 62.6542L91.1548 59.6094L100.383 47.673L100.364 47.6579C100.756 47.0901 101.032 46.4604 101.195 45.7814L132.049 33.7805C132.372 34.0983 132.707 34.4102 133.053 34.7129C135.676 37.0059 138.688 38.5939 141.533 39.1835C143.152 39.5188 144.643 39.523 145.948 39.2111C147.332 38.8799 148.507 38.1934 149.402 37.169C151.142 35.1787 151.477 32.3129 150.345 29.1018H150.342ZM22.7722 79.5897C22.6325 79.7494 22.0672 79.9116 21.0788 79.7068C19.7408 79.4291 18.2071 78.5996 16.87 77.4314C15.5328 76.2623 14.5059 74.8532 14.0519 73.5646C13.7165 72.6129 13.8018 72.0301 13.9415 71.8712C13.9933 71.8118 14.1062 71.7516 14.2777 71.7098C14.5645 71.6412 15.0169 71.6254 15.6349 71.7541C16.9728 72.0318 18.5065 72.8613 19.8437 74.0295C21.1808 75.1986 22.2077 76.6077 22.6618 77.8963C22.9971 78.8479 22.9118 79.4308 22.7722 79.5897ZM131.833 71.8637L112.301 96.5428L102.43 88.4689L120.642 65.4547L131.834 71.8637H131.833ZM106.021 57.0823L116.409 63.0313L98.696 85.4158L89.5316 77.9206L106.021 57.0832L106.021 57.0823ZM32.8764 31.5678L42.6822 19.2475L49.7325 23.3016L39.1265 36.704L32.8756 31.5678H32.8764ZM51.3331 46.7339L42.8536 39.7663L53.9597 25.7317L63.589 31.2676L51.3331 46.733V46.7339ZM67.6949 91.3046C67.5109 91.4559 66.1186 91.767 62.9325 90.4349C59.7515 89.1052 56.0963 86.6986 52.6393 83.6588C49.1823 80.6191 46.3282 77.3017 44.6013 74.318C42.8636 71.3143 43.0033 69.8935 43.1262 69.7079C43.158 69.6803 43.2291 69.6476 43.3445 69.6201C43.8646 69.4955 45.2712 69.4804 47.8911 70.5759C48.7064 70.9171 49.5535 71.3293 50.4207 71.8043C49.9591 73.726 51.9151 77.1889 55.291 80.1575C58.7463 83.1955 62.5253 84.6916 64.3257 83.8654C65.0541 84.8279 65.6913 85.7762 66.2223 86.6935C67.9516 89.6831 67.8212 91.1039 67.6941 91.3054L67.6949 91.3046ZM60.5509 73.0244C56.8263 69.8743 52.9102 67.394 49.4323 65.995C49.0292 65.8327 48.6412 65.6889 48.2666 65.5609L56.7101 58.8518L56.7268 58.871C57.5028 58.1987 59.044 58.1393 60.9557 58.708C63.303 59.4071 66.0316 60.9976 68.6758 63.2036L60.5509 73.0235V73.0244ZM69.1667 57.5147C67.3069 56.2243 65.478 55.2359 63.7345 54.5611L70.1175 47.152C70.5607 46.7882 71.7172 46.5624 73.4131 46.8735C74.5445 47.0809 75.7387 47.4923 76.9136 48.0685L69.1667 57.5138V57.5147ZM74.4199 42.1588L81.6735 33.7396L81.6626 33.7304C81.9302 33.4126 82.9897 33.0664 84.8345 33.4051C86.032 33.625 87.303 34.0849 88.5423 34.7322L80.2786 44.3974C78.3737 43.3053 76.3709 42.5343 74.4199 42.1588ZM145.766 33.9954C144.67 35.2506 140.406 34.7389 136.222 31.082C132.038 27.4251 130.961 23.2682 132.058 22.0138C132.268 21.773 132.596 21.5965 133.018 21.4962C134.79 21.0722 138.222 21.9737 141.602 24.9273C145.785 28.5841 146.862 32.7411 145.766 33.9954Z" fill="#333333"/>
<path d="M150.341 29.1018C149.376 26.3614 147.399 23.5885 144.776 21.2963C142.153 19.0034 139.14 17.4153 136.296 16.8258C132.962 16.1342 130.167 16.85 128.427 18.8403C126.686 20.8305 126.352 23.6963 127.483 26.9075C127.828 27.8867 128.305 28.8693 128.891 29.8335L100.649 40.8183C100.572 40.6218 100.49 40.4244 100.4 40.2263C99.2578 37.6925 97.1513 35.0892 94.4678 32.8958C91.7968 30.7124 88.6852 29.2088 85.7065 28.6619C82.3189 28.0398 79.4832 28.7773 77.9253 30.6839L77.9353 30.6923L67.198 43.1548L62.7919 40.0415L70.8457 29.8786L41.4904 13L26.1454 32.2803L52.0638 53.5768L59.7915 43.8254L64.0354 46.8242L58.2837 53.4999C56.5728 53.5551 55.06 54.051 53.8333 55.011L53.8182 54.9917L42.8928 63.6719L23.8759 71.2047C23.6007 70.9288 23.3147 70.6587 23.017 70.3978C21.0452 68.6743 18.7706 67.4784 16.6131 67.0311C14.0049 66.49 11.7069 67.0971 10.3096 68.6968C8.91137 70.2966 8.61701 72.6548 9.50259 75.1668C10.2351 77.2449 11.7236 79.3388 13.6963 81.0623C15.6682 82.7858 17.9427 83.9816 20.1002 84.429C21.3471 84.6874 22.522 84.6841 23.5623 84.4349C24.6987 84.1631 25.6738 83.5978 26.4038 82.7632C27.802 81.1635 28.0964 78.8053 27.2108 76.2932C27.0879 75.9429 26.9407 75.5925 26.7759 75.2438L38.26 70.6946C38.3737 72.2015 38.9407 74.0856 40.2569 76.432C42.2246 79.9426 45.491 83.7951 49.4556 87.2806C53.4202 90.766 57.6591 93.5131 61.392 95.0149C64.65 96.3262 66.9647 96.475 68.6038 96.0837C69.8707 95.7801 70.7345 95.1538 71.3182 94.4898C71.661 94.0993 71.9788 93.6151 72.2105 93.0188L79.9917 76.8702C80.5059 75.891 80.9124 74.5831 80.8354 72.9541L88.2002 63.4285L92.465 66.4415L82.8056 78.6481L113.042 103.378L139.094 70.4621L104.816 50.8339L95.4629 62.6542L91.1538 59.6094L100.383 47.673L100.363 47.6579C100.755 47.0901 101.031 46.4604 101.194 45.7814L132.048 33.7805C132.371 34.0983 132.706 34.4102 133.052 34.7129C135.675 37.0059 138.687 38.5939 141.532 39.1835C143.151 39.5188 144.642 39.523 145.947 39.2111C147.331 38.8799 148.506 38.1934 149.401 37.169C151.141 35.1787 151.476 32.3129 150.344 29.1018H150.341ZM22.7712 79.5897C22.6315 79.7494 22.0662 79.9116 21.0778 79.7068C19.7398 79.4291 18.2062 78.5996 16.869 77.4314C15.5319 76.2623 14.505 74.8532 14.0509 73.5646C13.7156 72.6129 13.8009 72.0301 13.9405 71.8712C13.9924 71.8118 14.1052 71.7516 14.2767 71.7098C14.5635 71.6412 15.0159 71.6254 15.6339 71.7541C16.9719 72.0318 18.5055 72.8613 19.8427 74.0295C21.1798 75.1986 22.2067 76.6077 22.6608 77.8963C22.9961 78.8479 22.9108 79.4308 22.7712 79.5897ZM131.832 71.8637L112.3 96.5428L102.429 88.4689L120.641 65.4547L131.832 71.8637ZM106.02 57.0823L116.408 63.0313L98.695 85.4158L89.5306 77.9206L106.02 57.0832L106.02 57.0823ZM32.8755 31.5678L42.6812 19.2475L49.7315 23.3016L39.1255 36.704L32.8755 31.5678ZM51.3321 46.7339L42.8526 39.7663L53.9587 25.7317L63.588 31.2676L51.3321 46.7339ZM67.6939 91.3046C67.51 91.4559 66.1176 91.767 62.9315 90.4349C59.7505 89.1052 56.0953 86.6986 52.6383 83.6588C49.1813 80.6191 46.3272 77.3017 44.6004 74.318C42.8627 71.3143 43.0023 69.8935 43.1252 69.7079C43.157 69.6803 43.2281 69.6476 43.3435 69.6201C43.8636 69.4955 45.2702 69.4804 47.8901 70.5759C48.7055 70.9171 49.5526 71.3293 50.4197 71.8043C49.9581 73.726 51.9141 77.1888 55.29 80.1575C58.7453 83.1955 62.5243 84.6916 64.3247 83.8654C65.0531 84.8279 65.6903 85.7762 66.2213 86.6935C67.9507 89.6831 67.8202 91.1039 67.6931 91.3054L67.6939 91.3046ZM60.5499 73.0244C56.8253 69.8743 52.9092 67.394 49.4313 65.995C49.0282 65.8327 48.6402 65.6889 48.2656 65.5609L56.7091 58.8518L56.7258 58.871C57.5018 58.1987 59.043 58.1393 60.9547 58.708C63.302 59.4071 66.0306 60.9976 68.6748 63.2036L60.5499 73.0244ZM69.1657 57.5147C67.3059 56.2243 65.4771 55.2359 63.7335 54.5611L70.1165 47.152C70.5597 46.7882 71.7162 46.5624 73.4121 46.8735C74.5436 47.0809 75.7377 47.4923 76.9126 48.0685L69.1657 57.5147ZM74.419 42.1588L81.6725 33.7396L81.6616 33.7304C81.9292 33.4126 82.9887 33.0664 84.8335 33.4051C86.031 33.625 87.302 34.0849 88.5414 34.7322L80.2776 44.3974C78.3727 43.3053 76.3699 42.5343 74.419 42.1588ZM145.765 33.9954C144.669 35.2506 140.405 34.7389 136.221 31.082C132.037 27.4251 130.96 23.2682 132.057 22.0138C132.267 21.773 132.595 21.5965 133.017 21.4962C134.789 21.0722 138.221 21.9737 141.601 24.9273C145.784 28.5841 146.861 32.7411 145.765 33.9954Z" fill="#333333"/>
</g>
<defs>
<clipPath id="clip0_7036_18453">
<rect width="162" height="138" fill="white"/>
</clipPath>
</defs>
</svg>
