<svg width="151" height="132" viewBox="0 0 151 132" fill="none" xmlns="http://www.w3.org/2000/svg">
<path d="M76.3988 71.6533L69.3437 86.2999C69.0603 87.0186 68.6554 87.6664 68.1493 88.2434C67.1979 89.3264 65.963 90.0552 64.4852 90.4095C63.8171 90.5714 63.0984 90.6524 62.3393 90.6524C60.5173 90.6524 58.422 90.1767 56.1142 89.2455C52.1565 87.6563 47.6825 84.7614 43.5224 81.1073C39.3622 77.4532 35.9207 73.3842 33.8356 69.6592C32.9954 68.1713 32.3881 66.7542 32.0136 65.4282L24.0172 68.5964C24.9079 71.5622 24.4322 74.3761 22.6912 76.3702C21.7194 77.4836 20.4036 78.2529 18.8954 78.6173C18.2375 78.7792 17.539 78.8602 16.8102 78.8602C16.0815 78.8602 15.3628 78.7792 14.6138 78.6274C12.1339 78.1112 9.5426 76.7649 7.32587 74.8215C5.10914 72.8781 3.41876 70.4994 2.57862 68.1106C1.4652 64.9525 1.8802 61.926 3.73254 59.8105C5.12938 58.2112 7.22465 57.3204 9.61346 57.3204C10.322 57.3204 11.0609 57.4014 11.8099 57.5532C14.2899 58.0695 16.871 59.4157 19.0978 61.3591L19.1991 61.4502L37.1556 54.3344L46.2756 47.087L18.6322 24.3731L36.1839 2.29688L68.9996 21.1644L60.7299 31.6003L62.3494 32.7441L71.8945 21.6604L72.1273 21.377C73.6659 19.4943 76.1357 18.4618 79.0812 18.4618C79.9213 18.4618 80.8019 18.5428 81.6927 18.7047C84.9924 19.3121 88.434 20.962 91.3592 23.3609C93.9606 25.4865 96.0761 27.9867 97.4021 30.497L122.576 20.7089C122.353 20.2231 122.151 19.7372 121.989 19.2615C120.622 15.3847 121.078 11.8622 123.284 9.34183C124.944 7.43889 127.323 6.4368 130.177 6.4368C131.068 6.4368 131.999 6.53802 132.941 6.73034C136.109 7.38828 139.449 9.13939 142.334 11.6598C144.844 13.8563 146.818 16.4678 148.002 19.1198H148.053L148.478 20.304C149.845 24.1808 149.389 27.7033 147.182 30.2237C146.039 31.5395 144.551 32.4202 142.769 32.8453C141.99 33.0275 141.16 33.1287 140.299 33.1287C139.439 33.1287 138.477 33.0275 137.526 32.8352C134.348 32.1772 131.017 30.4261 128.133 27.9057L127.88 27.683L98.4852 39.121L98.4649 39.1614L98.6977 39.3436L97.6248 40.781L89.4158 51.399L90.8936 52.4416L100.267 40.5988L138.073 62.2499L109.306 98.5881L76.3786 71.6634L76.3988 71.6533ZM108.03 86.6441L125.41 64.6893L117.191 59.9825L100.783 80.7125L108.03 86.6441ZM40.344 63.7986C40.5364 64.3047 40.84 64.9626 41.3158 65.7724C42.9758 68.6268 45.729 71.8355 49.0895 74.781C52.45 77.7367 55.9725 80.0647 59.0192 81.3401C59.8897 81.7045 60.578 81.9171 61.1044 82.0487C60.9121 81.5426 60.6084 80.8846 60.1327 80.0749C59.7986 79.508 59.4241 78.9108 58.999 78.3035C58.8573 78.3136 58.7055 78.3237 58.5536 78.3237C55.9927 78.3237 52.5816 76.6738 49.4337 73.9004C46.8424 71.6229 44.0892 68.1612 43.8463 65.1549C43.3604 64.912 42.8847 64.6893 42.4292 64.497C41.5587 64.1326 40.8704 63.92 40.344 63.7884V63.7986ZM94.2643 75.3782L109.802 55.7414L102.392 51.5003L87.7254 70.0338L94.2643 75.3782ZM10.8483 66.0153C11.2937 66.8453 12.0124 67.7158 12.8728 68.475C13.7331 69.224 14.6947 69.8212 15.5754 70.1552C15.13 69.3252 14.4113 68.4547 13.5509 67.6956C12.6906 66.9465 11.729 66.3493 10.8483 66.0153ZM78.2309 65.8635C78.2107 67.1085 77.9576 68.2928 77.4819 69.3961L85.6808 59.0412L84.2738 58.0492L78.2309 65.8635ZM46.9537 57.2901C49.7576 58.6161 52.7638 60.5393 55.679 62.8471L61.6206 55.6604C59.5861 54.1522 57.5617 53.0591 55.8207 52.5428C55.1222 52.3303 54.4744 52.229 53.9582 52.229C53.3914 52.229 53.2092 52.3505 53.2092 52.3606L51.8731 53.5145L51.8123 53.4437L46.9537 57.3002V57.2901ZM62.0356 46.004C62.7846 46.3785 63.5337 46.8036 64.2827 47.2794L69.5664 40.8316C69.2425 40.7405 68.9287 40.6595 68.615 40.6089C68.1797 40.5279 67.7748 40.4874 67.4206 40.4874C67.0865 40.4874 66.8537 40.5279 66.7221 40.5583L62.0255 46.004H62.0356ZM50.6584 44.3035C51.3265 44.0808 52.0249 43.9391 52.7638 43.8581L56.8329 39.1412L55.4968 38.1999L50.6584 44.3035ZM46.3161 36.2159L56.3268 23.5836L49.6867 19.7676L40.4756 31.4079L46.3262 36.2159H46.3161ZM73.1193 33.1388C73.9088 33.4222 74.6882 33.7563 75.4575 34.1308L81.3283 27.268C80.9335 27.1466 80.5489 27.0453 80.1743 26.9745C79.7695 26.9036 79.395 26.8631 79.0609 26.8631C78.7775 26.8631 78.5852 26.8935 78.4738 26.9137L73.1193 33.1388ZM33.957 26.0635L42.2976 15.5264L38.2589 13.2085L30.3637 23.118L33.9469 26.0635H33.957ZM129.661 14.909C129.56 15.6884 130.208 18.5226 133.669 21.5491C136.321 23.867 138.872 24.6869 140.249 24.6869C140.502 24.6869 140.684 24.6565 140.785 24.6363C140.886 23.8569 140.239 21.0227 136.777 17.9962C134.125 15.6783 131.574 14.8584 130.198 14.8584C129.945 14.8584 129.772 14.8887 129.671 14.909H129.651H129.661Z" fill="#333333"/>
<path d="M36.6296 4.5853L66.348 21.6714L58.1997 31.9554L62.6636 35.1033L73.5347 22.4912C74.7493 21.0033 76.713 20.2138 79.1221 20.2138C79.8508 20.2138 80.6201 20.2846 81.4096 20.4365C84.426 20.9932 87.574 22.5115 90.2766 24.7181C92.9893 26.9348 95.125 29.5767 96.2789 32.1376C96.37 32.34 96.451 32.5425 96.532 32.7348L125.117 21.6207C124.52 20.649 124.044 19.6469 123.689 18.655C122.546 15.4058 122.88 12.5008 124.641 10.4865C125.967 8.96815 127.89 8.18876 130.198 8.18876C130.957 8.18876 131.767 8.26973 132.607 8.45193C135.482 9.04913 138.539 10.6585 141.191 12.9765C143.843 15.2944 145.847 18.1084 146.829 20.8818C147.972 24.131 147.638 27.0361 145.877 29.0503C144.966 30.0828 143.782 30.7812 142.385 31.1152C141.737 31.2671 141.049 31.3481 140.32 31.3481C139.561 31.3481 138.751 31.2671 137.911 31.0849C135.026 30.4877 131.979 28.8783 129.327 26.5603C128.973 26.2567 128.639 25.9429 128.315 25.619L97.0887 37.7654C96.9268 38.4537 96.6433 39.0914 96.2486 39.6684L96.2688 39.6886L86.9262 51.7744L91.2888 54.8515L100.753 42.8872L135.451 62.7568L109.083 96.0787L78.4742 71.0468L88.2522 58.6878L83.9402 55.641L76.4903 65.2874C76.5713 66.9372 76.1563 68.2632 75.6401 69.2552L67.7651 85.6023C67.5323 86.2097 67.2084 86.6955 66.8642 87.0903C66.2772 87.7584 65.3965 88.396 64.1212 88.6997C63.6151 88.8212 63.0381 88.892 62.3903 88.892C60.9327 88.892 59.1107 88.5378 56.8232 87.6166C53.0476 86.0983 48.7559 83.3148 44.7374 79.7923C40.7291 76.2597 37.4192 72.3627 35.4251 68.8098C34.089 66.4312 33.5222 64.5282 33.4007 62.9998L21.7806 67.6053C21.9425 67.9596 22.0944 68.3139 22.2158 68.6681C23.1167 71.2088 22.813 73.5976 21.3959 75.2171C20.657 76.0572 19.6651 76.6342 18.5213 76.9075C17.9949 77.029 17.4382 77.0998 16.8511 77.0998C16.264 77.0998 15.6466 77.0391 15.019 76.9075C12.8327 76.452 10.535 75.2475 8.54091 73.4964C6.54687 71.7554 5.03868 69.6297 4.29977 67.5243C3.3989 64.9837 3.70257 62.5949 5.11965 60.9754C6.19259 59.7405 7.802 59.0926 9.66446 59.0926C10.2515 59.0926 10.869 59.1534 11.4966 59.285C13.6829 59.7405 15.9806 60.945 17.9747 62.6961C18.2783 62.9593 18.5618 63.2326 18.8452 63.516L38.0973 55.8941L49.1608 47.1081L49.181 47.1284C50.426 46.1566 51.9544 45.6505 53.6853 45.5999L59.5055 38.8384L55.2137 35.8018L47.3894 45.6708L21.153 24.1108L36.6904 4.59542M34.3016 28.5847L45.0411 15.0212L37.905 10.9217L27.9753 23.3921L34.3016 28.5948M140.33 26.4793C141.221 26.4793 141.889 26.2567 142.243 25.8518C143.357 24.5865 142.263 20.3757 138.032 16.671C135.138 14.1405 132.202 13.098 130.279 13.098C129.935 13.098 129.611 13.1283 129.338 13.1992C128.912 13.3004 128.578 13.4826 128.366 13.7255C127.252 14.9908 128.346 19.2016 132.577 22.9062C135.472 25.4368 138.407 26.4793 140.33 26.4793ZM46.6505 38.7473L59.0601 23.0884L49.3126 17.4808L38.067 31.6821L46.6505 38.7372M75.9538 36.3686L84.3147 26.5806C83.0595 25.9226 81.774 25.457 80.5594 25.2343C80.0128 25.1331 79.5371 25.0926 79.1322 25.0926C78.1402 25.0926 77.543 25.3355 77.3507 25.5582H77.3608L70.0223 34.0911C71.9961 34.4758 74.0205 35.2552 75.9538 36.3585M64.7082 49.6386L72.5528 40.0733C71.3686 39.4862 70.1539 39.0712 69.0101 38.8688C68.4433 38.7675 67.9372 38.7169 67.4918 38.7169C66.6011 38.7169 65.9735 38.8991 65.6698 39.1522L59.212 46.6526C60.9732 47.3308 62.8255 48.3329 64.7082 49.6386ZM94.5987 77.8792L112.525 55.226L102.008 49.2034L85.3167 70.2978L94.5886 77.8893M52.1063 51.0254L52.086 51.0051L43.543 57.797C43.9175 57.9286 44.3123 58.0703 44.7273 58.2323C48.2498 59.6494 52.2075 62.1596 55.983 65.3481L64.2021 55.4082C61.5299 53.1712 58.7666 51.5618 56.3879 50.8533C55.5073 50.5901 54.7076 50.4585 54.0193 50.4585C53.1995 50.4585 52.5415 50.6407 52.1063 51.0152M108.355 89.1451L128.123 64.1638L116.796 57.6756L98.3641 80.9664L108.355 89.1349M62.3903 83.9727C62.8761 83.9727 63.1292 83.8917 63.2102 83.831C63.3418 83.6285 63.4733 82.1912 61.7222 79.1647C61.1858 78.2335 60.5379 77.2719 59.799 76.3002C59.465 76.452 59.0601 76.533 58.6046 76.533C56.5802 76.533 53.5031 75.0653 50.6487 72.555C47.2274 69.5487 45.2536 66.0465 45.7192 64.1031C44.8386 63.6273 43.9884 63.2022 43.1584 62.8581C41.1947 62.0382 39.9092 61.8357 39.15 61.8357C38.8869 61.8357 38.6844 61.856 38.5528 61.8965C38.4314 61.9268 38.3605 61.9572 38.3301 61.9876C38.2087 62.1799 38.067 63.6172 39.8282 66.6538C41.5793 69.6702 44.4641 73.0307 47.9663 76.1078C51.4686 79.185 55.1631 81.6244 58.382 82.9706C60.3456 83.7905 61.6311 83.9929 62.3903 83.9929M16.8815 72.2108C17.3572 72.2108 17.6406 72.0995 17.7317 71.9983C17.8735 71.8363 17.9544 71.2493 17.6204 70.2877C17.1649 68.9819 16.1223 67.5547 14.766 66.3704C13.4096 65.1861 11.8609 64.346 10.5046 64.0626C10.1706 63.9917 9.87702 63.9614 9.64422 63.9614C9.44178 63.9614 9.2697 63.9816 9.12799 64.012C8.95592 64.0525 8.84457 64.1132 8.78384 64.1739C8.64213 64.3359 8.56116 64.923 8.89518 65.8846C9.35068 67.1903 10.3932 68.6175 11.7496 69.8018C13.106 70.9861 14.6546 71.8262 16.011 72.1096C16.345 72.1805 16.6386 72.2108 16.8714 72.2108M35.749 0L33.8562 2.37869L18.3188 21.894L16.1426 24.627L18.835 26.8437L43.4418 47.0575L36.245 52.7765L19.5132 59.4064C17.2358 57.5946 14.6546 56.3293 12.1545 55.8131C11.2941 55.6309 10.4337 55.5398 9.60373 55.5398C6.6987 55.5398 4.12769 56.6431 2.3867 58.6372C0.109233 61.2486 -0.437358 64.9128 0.898754 68.6985C1.84011 71.3707 3.70257 74.0227 6.1521 76.1585C8.60164 78.2942 11.4763 79.7923 14.2498 80.3692C15.1101 80.5514 15.9705 80.6425 16.8005 80.6425C17.6305 80.6425 18.501 80.5413 19.2905 80.3591C21.1631 79.9137 22.7928 78.942 24.0074 77.5553C25.8395 75.46 26.5481 72.6765 26.0723 69.7006L30.9309 67.7774C31.2953 68.6782 31.7407 69.5993 32.2771 70.5508C34.4635 74.4478 38.0366 78.6687 42.3385 82.4544C46.6505 86.24 51.2965 89.2463 55.4364 90.9063C57.9568 91.9185 60.2748 92.4347 62.3296 92.4347C63.2203 92.4347 64.0807 92.3335 64.8904 92.1412C66.7124 91.706 68.2915 90.7646 69.4757 89.4184C70.1033 88.6997 70.5993 87.9001 70.9637 87.0194L77.0167 74.4579L106.806 98.8218L109.589 101.099L111.826 98.2752L138.194 64.9533L140.745 61.7244L137.172 59.6797L102.474 39.8101L102.109 39.5975L127.526 29.7083C130.502 32.1679 133.893 33.8786 137.152 34.5567C138.225 34.7794 139.277 34.8908 140.28 34.8908C141.282 34.8908 142.253 34.7794 143.164 34.5669C145.28 34.0608 147.132 32.9575 148.509 31.3885C151.11 28.4127 151.707 24.1614 150.138 19.7178L149.106 17.3492C147.8 14.8288 145.867 12.3995 143.488 10.3245C140.381 7.6118 136.757 5.71897 133.295 5.0003C132.233 4.77762 131.18 4.66627 130.168 4.66627C126.848 4.66627 123.922 5.91129 121.938 8.17863C119.367 11.1242 118.76 15.3147 120.258 19.7077L98.1617 28.3013C96.7446 26.0643 94.7809 23.878 92.4731 21.9953C89.315 19.4141 85.6002 17.6326 82.0068 16.9646C81.0048 16.7824 80.0229 16.6913 79.0714 16.6913C75.6198 16.6913 72.6945 17.9262 70.8118 20.1733L68.089 18.6044L38.3909 1.51831L35.749 0ZM32.844 22.8658L38.7047 15.507L39.6359 16.0435L33.6942 23.5541L32.8541 22.8658H32.844ZM138.255 22.4305C137.294 22.0256 136.109 21.3373 134.834 20.234C133.538 19.1003 132.708 18.0173 132.202 17.1367C133.164 17.5415 134.348 18.2299 135.623 19.3332C136.919 20.4668 137.749 21.5499 138.255 22.4305ZM42.9357 31.1557L50.1223 22.0762L53.6549 24.1108L46.0432 33.7166L42.9357 31.1659V31.1557ZM90.1855 69.7714L102.818 53.8089L107.11 56.2686L93.9711 72.8789L90.1753 69.7816L90.1855 69.7714ZM51.671 55.9953L53.9991 54.0114C54.2218 54.0114 54.6469 54.062 55.315 54.2543C56.4183 54.5782 57.6936 55.2058 59.0196 56.0358L55.4061 60.4085C53.6651 59.1028 51.914 57.959 50.1932 56.9873L51.5799 55.884L51.6811 55.9953H51.671ZM103.243 80.4502L117.626 62.2811L122.738 65.2064L107.757 84.1347L103.253 80.4502H103.243Z" fill="white"/>
<path d="M40.4446 131.161V125.543H35.2115V131.161H30.4541V116.353H35.2115V121.758H40.4446V116.353H45.2019V131.161H40.4446Z" fill="white"/>
<path d="M60.8715 129.825C59.5961 130.888 57.7742 131.414 55.4259 131.414C53.0775 131.414 51.2556 130.888 49.9701 129.825C48.6846 128.762 48.0469 127.224 48.0469 125.199V116.353H52.8042V125.138C52.8042 125.969 53.0269 126.637 53.4723 127.133C53.9177 127.629 54.5655 127.871 55.4056 127.871C56.2457 127.871 56.9037 127.618 57.3491 127.122C57.8045 126.616 58.0272 125.958 58.0272 125.138V116.353H62.7846V125.199C62.7846 127.224 62.1469 128.762 60.8715 129.825Z" fill="white"/>
<path d="M77.5426 116.818C78.1701 117.132 78.6661 117.557 79.0305 118.124C79.3949 118.681 79.5771 119.308 79.5771 119.996C79.5771 121.818 78.7471 122.962 77.0972 123.438V123.519C78.9799 123.954 79.9213 125.189 79.9213 127.224C79.9213 127.993 79.7289 128.681 79.3544 129.278C78.9698 129.876 78.4536 130.341 77.7956 130.665C77.1377 130.999 76.4089 131.161 75.6194 131.161H65.6289V116.353H75.4878C76.2368 116.353 76.915 116.504 77.5426 116.818ZM70.3863 122.122H73.6557C73.9695 122.122 74.2327 122.011 74.4452 121.788C74.6578 121.565 74.759 121.292 74.759 120.958V120.746C74.759 120.432 74.6477 120.158 74.4351 119.936C74.2225 119.713 73.9594 119.602 73.6557 119.602H70.3863V122.122ZM70.3863 127.72H73.9998C74.3136 127.72 74.5768 127.608 74.7894 127.386C75.0019 127.163 75.1032 126.89 75.1032 126.556V126.343C75.1032 126.009 75.0019 125.736 74.7894 125.513C74.5768 125.29 74.3238 125.179 73.9998 125.179H70.3863V127.72Z" fill="white"/>
<path d="M93.9517 116.818C94.5793 117.132 95.0753 117.557 95.4397 118.124C95.8041 118.681 95.9863 119.308 95.9863 119.996C95.9863 121.818 95.1563 122.962 93.5064 123.438V123.519C95.3891 123.954 96.3304 125.189 96.3304 127.224C96.3304 127.993 96.1381 128.681 95.7636 129.278C95.379 129.876 94.8627 130.341 94.2048 130.665C93.5469 130.989 92.8181 131.161 92.0286 131.161H82.0381V116.353H91.897C92.646 116.353 93.3242 116.504 93.9517 116.818ZM86.7955 122.122H90.0649C90.3787 122.122 90.6418 122.011 90.8544 121.788C91.0568 121.565 91.1682 121.292 91.1682 120.958V120.746C91.1682 120.432 91.0568 120.158 90.8443 119.936C90.6317 119.713 90.3685 119.602 90.0649 119.602H86.7955V122.122ZM86.7955 127.72H90.409C90.7228 127.72 90.986 127.608 91.1986 127.386C91.4111 127.163 91.5123 126.89 91.5123 126.556V126.343C91.5123 126.009 91.4111 125.736 91.1986 125.513C90.986 125.29 90.7329 125.179 90.409 125.179H86.7955V127.72Z" fill="white"/>
<path d="M98.4346 116.353H103.192V127.375H110.794V131.161H98.4346V116.353Z" fill="white"/>
<path d="M112.443 116.353H125.248V119.905H117.201V121.95H124.094V125.351H117.201V127.608H125.4V131.161H112.443V116.353Z" fill="white"/>
<path d="M65.1436 35.9543L75.7818 23.9091C82.8572 19.1517 97.4431 31.5917 94.3052 38.1913L83.7884 51.7954C86.1367 47.9186 74.1016 33.4542 65.1436 35.9645V35.9543Z" fill="white"/>
<path d="M54.6162 48.0499L63.8577 37.4521C70.933 32.6947 87.4421 45.8129 83.0187 52.7668L73.9291 64.5387C74.8806 61.826 61.6814 46.2381 54.6162 48.0499Z" fill="white"/>
<path d="M37.2168 59.66L51.0537 48.7383C58.129 43.9809 77.7658 61.32 73.3424 68.2739L65.5586 85.0158C66.7024 73.9018 44.8994 57.4939 37.2168 59.66Z" fill="white"/>
<path d="M94.9125 81.3415L116.169 54.4775L131.737 63.4659L108.668 92.6175L94.9023 81.3415H94.9125Z" fill="#8162AA"/>
<path d="M81.915 70.9664L101.329 46.0459L115.844 54.8825L94.8409 81.463L81.915 70.9664Z" fill="#6389C6"/>
<path d="M34.6055 32.0558L48.8675 14.4434L62.674 22.3791L46.9645 42.1981L34.6055 32.0558Z" fill="#98CA3F"/>
<path d="M24.5029 23.7468L37.2365 7.75391L48.644 14.313L34.6047 32.057L24.5029 23.7468Z" fill="#CBDD72"/>
<path d="M64.9823 85.4602C67.4217 82.6867 63.0085 74.8219 55.1335 67.8883C47.2585 60.9648 38.8876 57.5941 36.4482 60.3676C34.0088 63.141 38.422 71.0059 46.2969 77.9395C54.1719 84.863 62.5428 88.2336 64.9823 85.4602Z" fill="#F8C519"/>
<path d="M144.005 27.4413C146.394 24.7083 144.41 19.0501 139.561 14.819C134.713 10.588 128.852 9.36324 126.453 12.1063C124.064 14.8393 126.058 20.4975 130.907 24.7285C135.755 28.9596 141.626 30.1843 144.015 27.4413H144.005Z" fill="#F07525"/>
<path d="M19.5235 73.5979C21.2443 71.6342 19.807 67.5651 16.325 64.5285C12.843 61.4818 8.62208 60.6113 6.90133 62.575C5.18058 64.5386 6.61791 68.6077 10.0999 71.6443C13.5819 74.6911 17.8028 75.5616 19.5235 73.5979Z" fill="#E8282B"/>
<path d="M146.808 20.8926C145.837 18.1191 143.832 15.3153 141.17 12.9873C138.518 10.6693 135.462 9.05989 132.587 8.46269C129.216 7.76427 126.382 8.48293 124.621 10.4972C122.86 12.5115 122.526 15.4166 123.669 18.6657C124.024 19.6577 124.499 20.6497 125.097 21.6315L96.5119 32.7455C96.4309 32.5431 96.3499 32.3508 96.2588 32.1483C95.1049 29.5875 92.9691 26.9456 90.2564 24.7289C87.5538 22.5222 84.4059 20.9938 81.3895 20.4472C77.9581 19.8197 75.0936 20.5687 73.5145 22.4919H73.5247L62.6536 35.1141L58.1897 31.9661L66.338 21.6821L36.6297 4.58594L21.0924 24.1013L47.3288 45.6613L55.1531 35.7923L59.4449 38.8289L53.6247 45.5904C51.8938 45.6512 50.3654 46.1472 49.1204 47.1189L49.1001 47.0986L38.0367 55.8846L18.7845 63.5065C18.5011 63.2231 18.2177 62.9498 17.914 62.6866C15.92 60.9456 13.6122 59.731 11.4359 59.2755C8.79407 58.7289 6.466 59.3463 5.05903 60.9659C3.64194 62.5854 3.3484 64.9742 4.23915 67.5148C4.97806 69.6202 6.48624 71.7357 8.48029 73.4869C10.4743 75.2279 12.7822 76.4425 14.9584 76.898C16.2237 77.1612 17.4079 77.1612 18.4606 76.898C19.6146 76.6247 20.5964 76.0478 21.3353 75.2076C22.7524 73.5881 23.0459 71.1993 22.1552 68.6586C22.0337 68.3044 21.8819 67.9501 21.7199 67.5958L33.3401 62.9903C33.4514 64.5187 34.0284 66.4217 35.3645 68.8004C37.3585 72.3532 40.6583 76.2502 44.6768 79.7828C48.6851 83.3154 52.9769 86.0889 56.7625 87.6072C60.0623 88.9332 62.4005 89.085 64.0605 88.6902C65.346 88.3866 66.2165 87.7489 66.8036 87.0808C67.1478 86.6861 67.4717 86.2002 67.7045 85.5929L75.5794 69.2457C76.0957 68.2538 76.5107 66.9278 76.4297 65.2779L83.8795 55.6315L88.1915 58.6783L78.4136 71.0373L109.023 96.0692L135.391 62.7474L100.692 42.8777L91.2281 54.842L86.8655 51.7649L96.2082 39.6792L96.1879 39.6589C96.5827 39.082 96.8661 38.4443 97.0281 37.756L128.255 25.6095C128.579 25.9334 128.923 26.2472 129.267 26.5508C131.919 28.8688 134.976 30.4782 137.85 31.0754C139.49 31.4195 140.998 31.4195 142.314 31.1058C143.711 30.7717 144.905 30.0733 145.806 29.0409C147.568 27.0266 147.912 24.1215 146.758 20.8723L146.808 20.8926ZM17.6812 71.9888C17.5395 72.1508 16.9727 72.3127 15.9706 72.1103C14.6143 71.8269 13.0656 70.9867 11.7092 69.8024C10.3529 68.6182 9.32042 67.1909 8.85481 65.8852C8.51066 64.9236 8.60175 64.3365 8.74346 64.1746C8.79407 64.1138 8.90542 64.0531 9.08761 64.0126C9.38115 63.9418 9.83664 63.9316 10.4642 64.0531C11.8206 64.3365 13.3692 65.1767 14.7256 66.3609C16.082 67.5452 17.1144 68.9724 17.58 70.2782C17.9242 71.2398 17.8331 71.8269 17.6914 71.9888H17.6812ZM128.072 64.1644L108.304 89.1457L98.3136 80.9772L116.746 57.6863L128.072 64.1746V64.1644ZM101.947 49.204L112.464 55.2267L94.5381 77.8799L85.2663 70.2883L101.958 49.1939L101.947 49.204ZM27.9045 23.3826L37.8343 10.9122L44.9703 15.0117L34.2308 28.5752L27.9045 23.3725V23.3826ZM46.5899 38.7378L38.0063 31.6827L49.252 17.4815L58.9995 23.0891L46.5899 38.7479V38.7378ZM63.1495 83.8519C62.9673 84.0037 61.5503 84.3175 58.3314 82.9713C55.1126 81.625 51.408 79.1856 47.9158 76.1085C44.4136 73.0314 41.5288 69.6709 39.7777 66.6545C38.0165 63.6179 38.1582 62.1805 38.2796 61.9882C38.31 61.9578 38.3809 61.9275 38.5023 61.8971C39.0287 61.7756 40.4559 61.7554 43.1079 62.8688C43.9379 63.213 44.7881 63.628 45.6687 64.1138C45.2031 66.0573 47.1769 69.5595 50.5982 72.5658C54.1004 75.6429 57.9164 77.1511 59.7384 76.3211C60.4773 77.2928 61.1251 78.2544 61.6616 79.1856C63.4127 82.2121 63.2811 83.6494 63.1495 83.8519ZM55.9224 65.3487C52.157 62.1603 48.1891 59.65 44.6667 58.2329C44.2618 58.071 43.867 57.9191 43.4824 57.7977L52.0254 51.0058L52.0456 51.026C52.8352 50.3478 54.394 50.2871 56.3273 50.864C58.706 51.5726 61.4693 53.182 64.1415 55.419L55.9224 65.3588V65.3487ZM64.6476 49.6494C62.7649 48.3436 60.9126 47.3416 59.1513 46.6634L65.6092 39.1629C66.0546 38.7985 67.2287 38.5657 68.9495 38.8795C70.0933 39.0921 71.3079 39.5071 72.4922 40.084L64.6476 49.6494ZM69.9617 34.1019L77.3002 25.5791H77.2901C77.5633 25.2451 78.6363 24.9009 80.4987 25.2451C81.7134 25.4678 82.9989 25.9334 84.254 26.5913L75.8932 36.3794C73.97 35.2761 71.9355 34.4967 69.9617 34.112V34.1019ZM142.183 25.8423C141.069 27.1177 136.757 26.5913 132.526 22.8968C128.295 19.1921 127.202 14.9914 128.315 13.716C128.528 13.4731 128.862 13.2909 129.287 13.1897C131.079 12.7646 134.551 13.6756 137.972 16.6616C142.203 20.3662 143.296 24.5669 142.183 25.8423Z" fill="#333333"/>
</svg>
