<svg width="592" height="406" viewBox="0 0 592 406" fill="none" xmlns="http://www.w3.org/2000/svg">
<mask id="mask0_5041_14877" style="mask-type:alpha" maskUnits="userSpaceOnUse" x="0" y="0" width="592" height="406">
<rect width="592" height="406" fill="url(#paint0_radial_5041_14877)"/>
</mask>
<g mask="url(#mask0_5041_14877)">
<line x1="4.37114e-08" y1="57.5" x2="592" y2="57.5001" stroke="#E0E5EB"/>
<line x1="4.37114e-08" y1="115.5" x2="592" y2="115.5" stroke="#E0E5EB"/>
<line x1="4.37114e-08" y1="173.5" x2="592" y2="173.5" stroke="#E0E5EB"/>
<line x1="4.37114e-08" y1="231.5" x2="592" y2="231.5" stroke="#E0E5EB"/>
<line x1="4.37114e-08" y1="289.5" x2="592" y2="289.5" stroke="#E0E5EB"/>
<line x1="4.37114e-08" y1="347.5" x2="592" y2="347.5" stroke="#E0E5EB"/>
<line x1="150.5" y1="406" x2="150.5" y2="-3.05394e-05" stroke="#E0E5EB"/>
<line x1="92.5" y1="406" x2="92.5" y2="-3.05394e-05" stroke="#E0E5EB"/>
<line x1="34.5" y1="406" x2="34.5" y2="-3.05394e-05" stroke="#E0E5EB"/>
<line x1="208.5" y1="406" x2="208.5" y2="-3.05394e-05" stroke="#E0E5EB"/>
<line x1="266.5" y1="406" x2="266.5" y2="-3.05394e-05" stroke="#E0E5EB"/>
<line x1="324.5" y1="406" x2="324.5" y2="-3.05394e-05" stroke="#E0E5EB"/>
<line x1="382.5" y1="406" x2="382.5" y2="-3.05394e-05" stroke="#E0E5EB"/>
<line x1="440.5" y1="406" x2="440.5" y2="-3.05394e-05" stroke="#E0E5EB"/>
<line x1="498.5" y1="406" x2="498.5" y2="-3.05394e-05" stroke="#E0E5EB"/>
<line x1="556.5" y1="406" x2="556.5" y2="-3.05394e-05" stroke="#E0E5EB"/>
</g>
<circle cx="296" cy="203" r="121" fill="white" stroke="#0073E6" stroke-width="6"/>
<circle cx="296" cy="203" r="100" fill="white" stroke="#E0E5EB" stroke-width="3" stroke-linecap="round" stroke-dasharray="0.01 10"/>
<path d="M307.126 183.349H284.715L273.461 203.203L284.663 222.854H307.122L318.324 203.203L307.126 183.349ZM304.136 217.466H287.642L279.43 203.15L287.649 188.683H304.143L312.363 203.15L304.136 217.466Z" fill="#141A1F"/>
<path d="M279.414 203.199L287.634 217.466H304.127L312.399 203.199L304.127 188.532H287.634L279.414 203.199Z" fill="#E83030"/>
<path d="M307.126 225.547H284.715L273.461 245.348L284.663 264.999H307.122L318.324 245.348L307.126 225.547ZM304.136 259.815H287.642L279.43 245.499L287.649 231.032H304.143L312.363 245.499L304.136 259.815Z" fill="#141A1F"/>
<path d="M279.414 245.349L287.634 259.815H304.127L312.399 245.349L304.127 230.882H287.634L279.414 245.349Z" fill="#6B91C7"/>
<path d="M307.126 141H284.715L273.461 160.854L284.715 180.505H307.174L318.376 160.854L307.126 141ZM304.136 175.118H287.642L279.43 160.802L287.649 146.188H304.143L312.363 160.654L304.136 175.118Z" fill="#141A1F"/>
<path d="M279.414 160.847L287.634 175.114H304.127L312.399 160.847L304.127 146.181H287.634L279.414 160.847Z" fill="#F9C31F"/>
<path d="M343.571 204.596H321.339L310.137 224.45L321.339 244.101H343.798L355 224.45L343.571 204.596ZM340.582 238.798H324.088L315.868 224.481L324.088 210.015H340.582L348.801 224.481L340.582 238.798Z" fill="#141A1F"/>
<path d="M315.832 224.527L324.17 238.843H340.618L349.037 224.527L340.618 209.86H324.17L315.832 224.527Z" fill="#795AA5"/>
<path d="M343.571 162.251H321.339L310.137 181.902L321.339 201.553H343.798L355 181.902L343.571 162.251ZM340.582 196.418H324.088L315.868 182.102L324.088 167.635H340.582L348.801 182.102L340.582 196.418Z" fill="#141A1F"/>
<path d="M315.832 182.104L324.038 196.613H340.618L349.037 182.297L340.618 167.631L324.038 167.631L315.832 182.104Z" fill="#F17423"/>
<path d="M270.469 204.596H248.202L237 224.45L248.202 244.101H270.661L281.864 224.45L270.469 204.596ZM267.479 238.766H251.185L242.965 224.45L251.185 209.983H267.679L275.898 224.45L267.479 238.766Z" fill="#141A1F"/>
<path d="M242.965 224.45L251.184 238.766H267.479L275.898 224.45L267.479 209.783H251.184L242.965 224.45Z" fill="#97C639"/>
<path d="M270.469 162.247H248.202L237 181.898L248.202 201.549H270.661L281.864 181.898L270.469 162.247ZM267.479 196.417H251.185L242.965 182.101L251.185 167.634H267.679L275.898 182.101L267.479 196.417Z" fill="#141A1F"/>
<path d="M242.965 182.098L251.184 196.414H267.479L275.898 182.098L267.479 167.432H251.184L242.965 182.098Z" fill="#C9DB70"/>
<defs>
<radialGradient id="paint0_radial_5041_14877" cx="0" cy="0" r="1" gradientUnits="userSpaceOnUse" gradientTransform="translate(296 203) rotate(90) scale(203 296)">
<stop offset="0.655172" stop-color="#F6F7F8"/>
<stop offset="1" stop-color="#F6F7F8" stop-opacity="0"/>
</radialGradient>
</defs>
</svg>
