<svg width="191" height="72" viewBox="0 0 191 72" fill="none" xmlns="http://www.w3.org/2000/svg">
<g clip-path="url(#clip0_5041_14530)">
<path d="M26.9685 45.7252L21.5143 36.0772L26.9685 26.4293H37.827L43.2812 36.0772L37.827 45.7252H26.9685Z" stroke="#141A1F" stroke-width="2.75889"/>
<path d="M26.9685 69.0699L21.5143 59.4219L26.9685 49.774H37.827L43.2812 59.4219L37.827 69.0699H26.9685Z" stroke="#141A1F" stroke-width="2.75889"/>
<path d="M26.9685 22.3804L21.5143 12.7325L26.9685 3.08454H37.827L43.2812 12.7325L37.827 22.3804H26.9685Z" stroke="#141A1F" stroke-width="2.75889"/>
<path d="M47.1365 57.3969L41.6823 47.749L47.1365 38.101H57.995L63.4492 47.749L57.995 57.3969H47.1365Z" stroke="#141A1F" stroke-width="2.75889"/>
<path d="M47.1365 34.0523L41.6823 24.4044L47.1365 14.7564H57.995L63.4492 24.4044L57.995 34.0523H47.1365Z" stroke="#141A1F" stroke-width="2.75889"/>
<path d="M6.80834 57.397L1.35415 47.7491L6.80834 38.1011H17.6668L23.121 47.7491L17.6668 57.397H6.80834Z" stroke="#141A1F" stroke-width="2.75889"/>
<path d="M6.80834 34.0523L1.35415 24.4044L6.80834 14.7564H17.6668L23.121 24.4044L17.6668 34.0523H6.80834Z" stroke="#141A1F" stroke-width="2.75889"/>
<path d="M91.2081 24.6646C92.2134 24.6716 93.2151 24.7871 94.1965 25.0093C95.1268 25.2108 95.9131 25.5743 96.6773 25.9585V28.9307C95.8271 28.6163 94.9615 28.3472 94.0839 28.1246C93.2108 27.923 92.4227 27.7799 91.5478 27.7799C90.6729 27.7799 89.8312 27.923 88.9544 28.183C88.0776 28.4429 87.3485 28.9307 86.6157 29.6201C85.9402 30.3094 85.403 31.174 84.9545 32.2664C84.5595 33.3588 84.3638 34.7112 84.3638 36.3498C84.3638 37.48 84.5041 38.6101 84.8438 39.6272C85.1474 40.5735 85.6254 41.4519 86.2521 42.2151C86.8723 42.9628 87.6605 43.5091 88.5077 43.9102C89.438 44.3133 90.5086 44.513 91.7194 44.513C92.5925 44.513 93.436 44.4565 94.3959 44.2549C95.2753 44.0391 96.1413 43.7699 96.9892 43.4488V46.4398C96.7364 46.5829 96.3986 46.7845 96.0036 46.9295C95.6086 47.0745 95.1305 47.1876 94.5952 47.3326C94.1153 47.4757 93.6095 47.5341 92.9893 47.5906L91.3281 47.7338C89.9179 47.7531 88.5154 47.5198 87.1843 47.0444C85.9376 46.5756 84.7826 45.8843 83.7732 45.0027C82.7815 44.0022 82.0123 42.7959 81.5176 41.4655C80.9639 40.0283 80.6445 38.4142 80.6445 36.4327C80.6445 34.9956 80.7848 33.7016 81.1244 32.5527C81.3773 31.4226 81.8 30.3678 82.3371 29.5014C82.8743 28.635 83.4446 27.8628 84.1405 27.2412C84.8075 26.6496 85.5456 26.147 86.337 25.7457C87.1252 25.3426 87.9429 25.0563 88.7329 24.8548L91.2137 24.625L91.2081 24.6646ZM102.397 20.1781V16.1511H105.905V20.1781H102.397ZM102.453 47.1838V25.2692H105.96V47.2007L102.453 47.1838ZM113.192 47.2026V13.793H116.699V47.2007L113.192 47.2026ZM123.855 20.1781V16.1511H127.362V20.1781H123.855ZM123.91 47.1838V25.2692H127.418V47.2007L123.91 47.1838ZM143.011 47.7488C142.005 47.7503 141.003 47.6347 140.023 47.4042C139.206 47.1673 138.42 46.8295 137.684 46.3984C137.008 45.9086 136.416 45.4491 135.967 44.7597C135.477 44.1551 135.102 43.4627 134.86 42.718C134.662 42.1529 134.522 41.5879 134.38 40.8778L134.24 38.6929V25.2918H137.747V38.6929C137.747 39.9304 137.887 40.9531 138.227 41.7442C138.564 42.6935 139.157 43.3829 139.943 43.9291C140.73 44.4753 141.804 44.7352 143.015 44.7352C144.34 44.7352 145.411 44.4772 146.226 43.8443C147.016 43.2416 147.635 42.492 147.943 41.4579C148.196 40.7102 148.338 39.7628 148.338 38.6703V25.2598H151.845V38.7193C151.845 39.4024 151.799 40.0847 151.705 40.761C151.65 41.3608 151.517 41.9505 151.31 42.5146C151.057 43.2623 150.634 43.9517 150.202 44.6147C149.722 45.2174 149.132 45.7448 148.486 46.2533C147.81 46.743 147.02 47.0595 146.09 47.3458C145.088 47.6173 144.055 47.7528 143.018 47.7488H143.011ZM175.931 47.1838H172.424V33.0744C172.427 32.2472 172.313 31.4238 172.086 30.6296C171.889 29.9403 171.606 29.3922 171.213 28.991C170.816 28.5752 170.336 28.2514 169.805 28.0417C169.251 27.8402 168.697 27.7837 168.001 27.7837C166.733 27.7837 165.606 28.1283 164.59 28.7895C163.605 29.4788 162.645 30.4281 161.859 31.6373V47.2252H158.364V25.2692H161.096L161.772 28.3205H161.827L163.095 26.8833C163.575 26.4803 164.081 26.0772 164.618 25.7532C165.194 25.4008 165.822 25.1481 166.479 25.0055C167.154 24.804 167.887 24.7474 168.694 24.7474C170.3 24.7474 171.625 25.1505 172.695 25.8776C173.766 26.6837 174.556 27.7177 175.176 29.0701H175.232C176.162 27.7177 177.29 26.6253 178.499 25.8776C179.708 25.1298 181.175 24.7474 182.755 24.7474C183.488 24.7474 184.278 24.8906 185.151 25.0921C186.024 25.2937 186.757 25.6949 187.49 26.2222C188.222 26.7496 188.758 27.5746 189.206 28.6086C189.686 29.6144 189.939 30.9103 189.939 32.5489V47.2459H186.557V33.1253C186.56 32.298 186.447 31.4747 186.22 30.6805C186.022 29.9911 185.74 29.443 185.347 29.0418C184.949 28.626 184.469 28.3023 183.938 28.0926C183.384 27.891 182.831 27.8345 182.135 27.8345C180.867 27.8345 179.739 28.1792 178.724 28.8403C177.738 29.5297 176.778 30.479 175.933 31.6882L175.931 47.1838Z" fill="#141A1F"/>
</g>
<defs>
<clipPath id="clip0_5041_14530">
<rect width="191" height="72" fill="white"/>
</clipPath>
</defs>
</svg>
