<svg width="112" height="120" viewBox="0 0 112 120" fill="none" xmlns="http://www.w3.org/2000/svg">
<g clip-path="url(#clip0_5041_14572)">
<path d="M44.5898 35.2076L50.115 25.3957H61.1652L66.6903 35.2076L61.1652 45.0195H50.115L44.5898 35.2076Z" fill="#E83030"/>
<path d="M44.5898 60.6031L50.115 50.7913H61.1652L66.6903 60.6031L61.1652 70.415H50.115L44.5898 60.6031Z" fill="#6B91C7"/>
<path d="M44.5898 9.81213L50.115 0.000236511H61.1652L66.6903 9.81213L61.1652 19.624H50.115L44.5898 9.81213Z" fill="#F9C31F"/>
<path d="M66.6953 47.9039L72.2204 38.092H83.2706L88.7957 47.9039L83.2706 57.7158H72.2204L66.6953 47.9039Z" fill="#795AA5"/>
<path d="M66.6953 22.5104L72.2204 12.6985H83.2706L88.7957 22.5104L83.2706 32.3223H72.2204L66.6953 22.5104Z" fill="#F17423"/>
<path d="M22.4922 47.9039L28.0173 38.092H39.0675L44.5926 47.9039L39.0675 57.7158H28.0173L22.4922 47.9039Z" fill="#97C639"/>
<path d="M22.4922 22.5104L28.0173 12.6985H39.0675L44.5926 22.5104L39.0675 32.3223H28.0173L22.4922 22.5104Z" fill="#C9DB70"/>
<path d="M10.6612 96.1281C11.6981 96.1352 12.7313 96.2535 13.7435 96.4809C14.7031 96.6872 15.5141 97.0593 16.3023 97.4526V100.495C15.4254 100.173 14.5326 99.8976 13.6274 99.6697C12.7269 99.4634 11.914 99.3169 11.0115 99.3169C10.1091 99.3169 9.24098 99.4634 8.33666 99.7295C7.43234 99.9955 6.68033 100.495 5.92451 101.2C5.22771 101.906 4.67369 102.791 4.21106 103.909C3.80364 105.027 3.60184 106.412 3.60184 108.089C3.60184 109.246 3.74653 110.403 4.09684 111.444C4.41001 112.412 4.90306 113.311 5.54946 114.093C6.18915 114.858 7.00208 115.417 7.87594 115.828C8.83547 116.24 9.93968 116.445 11.1886 116.445C12.0891 116.445 12.9592 116.387 13.9491 116.181C14.8562 115.96 15.7494 115.684 16.624 115.355V118.417C16.3632 118.564 16.0148 118.77 15.6074 118.918C15.2 119.067 14.7069 119.182 14.1548 119.331C13.6598 119.477 13.1381 119.537 12.4984 119.595L10.785 119.741C9.3305 119.761 7.88385 119.522 6.51089 119.036C5.22504 118.556 4.03373 117.848 2.99261 116.946C1.96981 115.922 1.17638 114.687 0.666135 113.325C0.0949865 111.854 -0.234375 110.202 -0.234375 108.174C-0.234375 106.703 -0.08968 105.378 0.260624 104.202C0.521449 103.046 0.957421 101.966 1.51144 101.079C2.06545 100.192 2.65373 99.4017 3.37148 98.7655C4.05944 98.1599 4.82074 97.6455 5.63703 97.2347C6.44997 96.8221 7.29336 96.5291 8.1082 96.3228L10.667 96.0876L10.6612 96.1281ZM22.2023 91.5357V87.4138H25.8195V91.5357H22.2023ZM22.2594 119.179V96.7469H25.8766V119.196L22.2594 119.179ZM33.3358 119.198V85H36.9531V119.196L33.3358 119.198ZM44.3343 91.5357V87.4138H47.9515V91.5357H44.3343ZM44.3914 119.179V96.7469H48.0086V119.196L44.3914 119.179ZM64.0922 119.757C63.0548 119.758 62.0207 119.64 61.0099 119.404C60.1674 119.162 59.3574 118.816 58.5977 118.375C57.9009 117.873 57.2898 117.403 56.8272 116.697C56.3218 116.078 55.9344 115.37 55.6849 114.607C55.4812 114.029 55.3365 113.451 55.1899 112.724L55.0452 110.487V96.7701H58.6625V110.487C58.6625 111.754 58.8072 112.801 59.1575 113.611C59.5059 114.582 60.117 115.288 60.928 115.847C61.739 116.406 62.8471 116.672 64.096 116.672C65.4629 116.672 66.5672 116.408 67.4086 115.76C68.2235 115.143 68.8613 114.376 69.1792 113.318C69.44 112.552 69.5866 111.582 69.5866 110.464V96.7373H73.2039V110.514C73.2043 111.214 73.156 111.912 73.0592 112.604C73.0025 113.218 72.8655 113.822 72.6518 114.399C72.391 115.165 71.955 115.87 71.5095 116.549C71.0145 117.166 70.4053 117.706 69.7389 118.226C69.0421 118.727 68.2273 119.051 67.2678 119.344C66.2343 119.622 65.1691 119.761 64.0998 119.757H64.0922ZM98.047 119.179H94.4297V104.736C94.4326 103.89 94.3153 103.047 94.0813 102.234C93.8776 101.528 93.5863 100.967 93.1808 100.557C92.771 100.131 92.2756 99.7995 91.7282 99.5849C91.157 99.3786 90.5859 99.3207 89.8681 99.3207C88.5602 99.3207 87.397 99.6735 86.3498 100.35C85.3332 101.056 84.3432 102.028 83.5322 103.265V119.221H79.9282V96.7469H82.7459L83.4427 99.8702H83.4998L84.8077 98.3992C85.3027 97.9866 85.8244 97.574 86.3784 97.2424C86.9719 96.8817 87.6204 96.623 88.2975 96.477C88.9943 96.2707 89.7501 96.2129 90.5821 96.2129C92.2384 96.2129 93.6053 96.6255 94.7096 97.3697C95.8138 98.1948 96.6286 99.2533 97.2683 100.638H97.3254C98.285 99.2533 99.4482 98.1351 100.695 97.3697C101.942 96.6043 103.456 96.2129 105.085 96.2129C105.841 96.2129 106.656 96.3594 107.557 96.5657C108.457 96.772 109.213 97.1827 109.969 97.7225C110.725 98.2623 111.277 99.1067 111.739 100.165C112.234 101.195 112.495 102.521 112.495 104.198V119.242H109.007V104.788C109.01 103.942 108.893 103.099 108.659 102.286C108.455 101.58 108.164 101.019 107.758 100.609C107.349 100.183 106.853 99.8516 106.306 99.6369C105.735 99.4306 105.163 99.3728 104.446 99.3728C103.138 99.3728 101.975 99.7256 100.927 100.402C99.9108 101.108 98.9208 102.08 98.0489 103.317L98.047 119.179Z" fill="white"/>
</g>
<defs>
<clipPath id="clip0_5041_14572">
<rect width="112" height="120" fill="white"/>
</clipPath>
</defs>
</svg>
