<svg width="112" height="120" viewBox="0 0 112 120" fill="none" xmlns="http://www.w3.org/2000/svg">
<path d="M49.7204 45.9228L44.2145 36.2333L49.7204 26.5438H60.6943L66.2002 36.2333L60.6943 45.9228H49.7204Z" stroke="#141A1F" stroke-width="2.77077"/>
<path d="M49.7204 69.3671L44.2145 59.6777L49.7204 49.9882H60.6943L66.2002 59.6777L60.6943 69.3671H49.7204Z" stroke="#141A1F" stroke-width="2.77077"/>
<path d="M49.7204 22.4775L44.2145 12.788L49.7204 3.09851H60.6943L66.2002 12.788L60.6943 22.4775H49.7204Z" stroke="#141A1F" stroke-width="2.77077"/>
<path d="M70.0603 57.6439L64.5544 47.9544L70.0603 38.2649H81.0341L86.54 47.9544L81.0341 57.6439H70.0603Z" stroke="#141A1F" stroke-width="2.77077"/>
<path d="M70.0603 34.1992L64.5544 24.5097L70.0603 14.8202H81.0341L86.54 24.5097L81.0341 34.1992H70.0603Z" stroke="#141A1F" stroke-width="2.77077"/>
<path d="M29.3571 57.6435L23.8512 47.954L29.3571 38.2645H40.331L45.8369 47.954L40.331 57.6435H29.3571Z" stroke="#141A1F" stroke-width="2.77077"/>
<path d="M29.3571 34.1992L23.8512 24.5097L29.3571 14.8202H40.331L45.8369 24.5097L40.331 34.1992H29.3571Z" stroke="#141A1F" stroke-width="2.77077"/>
<path d="M10.7836 95.9474C11.8097 95.9545 12.8323 96.0718 13.8342 96.2974C14.7838 96.5021 15.5865 96.8713 16.3666 97.2615V100.28C15.4987 99.9607 14.6151 99.6874 13.7192 99.4613C12.828 99.2566 12.0234 99.1112 11.1303 99.1112C10.2371 99.1112 9.37791 99.2566 8.48289 99.5206C7.58788 99.7846 6.8436 100.28 6.09555 100.98C5.40592 101.68 4.8576 102.558 4.39972 103.668C3.99649 104.777 3.79676 106.151 3.79676 107.815C3.79676 108.963 3.93997 110.11 4.28667 111.143C4.59663 112.104 5.0846 112.996 5.72436 113.772C6.35747 114.531 7.16204 115.086 8.02691 115.493C8.97657 115.902 10.0694 116.105 11.3055 116.105C12.1968 116.105 13.0579 116.048 14.0377 115.843C14.9354 115.624 15.8194 115.351 16.685 115.024V118.062C16.4269 118.207 16.0821 118.412 15.6788 118.559C15.2756 118.707 14.7876 118.821 14.2412 118.969C13.7513 119.114 13.235 119.173 12.6019 119.231L10.906 119.376C9.46651 119.396 8.03474 119.159 6.6759 118.676C5.40328 118.2 4.22422 117.498 3.1938 116.603C2.18152 115.586 1.39625 114.361 0.89125 113.01C0.325975 111.551 0 109.911 0 107.899C0 106.439 0.143207 105.125 0.489909 103.958C0.748052 102.811 1.17954 101.74 1.72786 100.86C2.27617 99.9797 2.85841 99.1954 3.56877 98.5642C4.24966 97.9633 5.00314 97.4529 5.81103 97.0453C6.6156 96.636 7.45033 96.3452 8.25679 96.1406L10.7892 95.9072L10.7836 95.9474ZM22.2059 91.3909V87.3012H25.786V91.3909H22.2059ZM22.2624 118.818V96.5614H25.8425V118.835L22.2624 118.818ZM33.225 118.837V84.9062H36.8051V118.835L33.225 118.837ZM44.1103 91.3909V87.3012H47.6904V91.3909H44.1103ZM44.1668 118.818V96.5614H47.7469V118.835L44.1668 118.818ZM63.6651 119.392C62.6384 119.393 61.6149 119.276 60.6145 119.041C59.7807 118.801 58.979 118.458 58.2271 118.02C57.5375 117.523 56.9326 117.056 56.4748 116.356C55.9746 115.742 55.5912 115.039 55.3442 114.282C55.1426 113.708 54.9994 113.135 54.8543 112.413L54.7111 110.194V96.5843H58.2912V110.194C58.2912 111.451 58.4344 112.49 58.7811 113.293C59.1259 114.257 59.7307 114.957 60.5334 115.512C61.3361 116.067 62.4328 116.331 63.6688 116.331C65.0217 116.331 66.1146 116.069 66.9474 115.426C67.7539 114.814 68.3851 114.053 68.6998 113.003C68.9579 112.243 69.103 111.281 69.103 110.171V96.5518H72.6831V110.221C72.6835 110.915 72.6357 111.608 72.5399 112.295C72.4838 112.904 72.3482 113.503 72.1367 114.076C71.8785 114.835 71.447 115.535 71.0061 116.208C70.5162 116.821 69.9132 117.356 69.2537 117.873C68.5641 118.37 67.7577 118.691 66.808 118.982C65.7851 119.258 64.7309 119.396 63.6726 119.392H63.6651ZM97.2707 118.818H93.6906V104.488C93.6935 103.648 93.5774 102.812 93.3458 102.005C93.1442 101.305 92.8559 100.749 92.4545 100.341C92.0489 99.9189 91.5586 99.5901 91.0169 99.3771C90.4516 99.1725 89.8863 99.1151 89.1759 99.1151C87.8815 99.1151 86.7302 99.4651 85.6938 100.137C84.6877 100.837 83.7078 101.801 82.9052 103.029V118.86H79.3383V96.5614H82.127L82.8166 99.6602H82.8731L84.1676 98.2007C84.6575 97.7914 85.1738 97.382 85.7221 97.053C86.3095 96.695 86.9513 96.4384 87.6214 96.2936C88.3111 96.0889 89.0591 96.0315 89.8825 96.0315C91.5218 96.0315 92.8747 96.4409 93.9676 97.1792C95.0605 97.998 95.8669 99.0481 96.5 100.422H96.5566C97.5062 99.0481 98.6575 97.9387 99.8917 97.1792C101.126 96.4198 102.624 96.0315 104.237 96.0315C104.985 96.0315 105.791 96.1769 106.683 96.3816C107.574 96.5863 108.322 96.9937 109.07 97.5293C109.818 98.0649 110.364 98.9027 110.822 99.9529C111.312 100.974 111.57 102.29 111.57 103.955V118.881H108.118V104.54C108.121 103.7 108.005 102.864 107.773 102.057C107.572 101.357 107.284 100.8 106.882 100.393C106.477 99.9706 105.986 99.6418 105.445 99.4288C104.879 99.2241 104.314 99.1667 103.604 99.1667C102.309 99.1667 101.158 99.5168 100.122 100.188C99.1154 100.888 98.1355 101.852 97.2726 103.08L97.2707 118.818Z" fill="#141A1F"/>
</svg>
