<svg width="116" height="112" viewBox="0 0 116 112" fill="none" xmlns="http://www.w3.org/2000/svg">
<path d="M12.6108 100.768C12.2741 100.816 11.9489 100.842 11.6439 100.842C11.2065 100.842 10.8286 100.785 10.5199 100.674C10.2137 100.565 9.9588 100.409 9.76417 100.214C9.56954 100.02 9.42499 99.7856 9.33433 99.5193C9.24304 99.2505 9.19676 98.9519 9.19676 98.633V90.4374H13.4368V88.3009H9.19676V84.4189H6.73183V88.3009H4V90.4374H6.73183V98.9912C6.73183 99.5947 6.82376 100.151 7.00508 100.645C7.18766 101.141 7.46789 101.57 7.8375 101.92C8.20711 102.27 8.67626 102.542 9.23163 102.728C9.78446 102.914 10.4457 103.008 11.1963 103.008C11.7657 102.998 12.2621 102.957 12.6722 102.888C13.0837 102.817 13.395 102.741 13.5985 102.659L13.646 102.64V100.55L13.5503 100.576C13.2663 100.655 12.9499 100.719 12.6114 100.768L12.6108 100.768ZM13.57 102.589C13.3709 102.669 13.0672 102.743 12.6596 102.813C12.2513 102.883 11.7638 102.923 11.1963 102.932C10.4501 102.932 9.80284 102.84 9.25572 102.656C8.70795 102.472 8.25276 102.208 7.88948 101.864C7.52621 101.521 7.25487 101.106 7.07608 100.618C7.2555 101.106 7.52621 101.521 7.88948 101.864C8.25276 102.208 8.70795 102.472 9.25572 102.656C9.80284 102.839 10.4501 102.932 11.1963 102.932C11.7638 102.922 12.2513 102.882 12.6596 102.813C13.0672 102.743 13.3709 102.668 13.57 102.589Z" fill="black"/>
<path d="M26.4101 89.5942C25.8978 89.0204 25.2841 88.5944 24.5861 88.3274C23.89 88.0618 23.1324 87.9268 22.3329 87.9268C21.4834 87.9268 20.6573 88.0897 19.8762 88.4105C19.0958 88.7319 18.3952 89.2201 17.7949 89.8623C17.1951 90.5033 16.7088 91.3129 16.3494 92.2683C15.9905 93.2231 15.8086 94.3643 15.8086 95.6614C15.8086 96.9586 15.9963 98.1213 16.3671 99.0558C16.7386 99.9928 17.2598 100.764 17.9172 101.346C18.574 101.928 19.3621 102.356 20.2598 102.616C21.1537 102.876 22.1224 103.007 23.14 103.007C23.9958 103.007 24.8092 102.934 25.558 102.79C26.308 102.645 26.947 102.444 27.458 102.194L27.5005 102.173V100.092L27.3991 100.129C26.779 100.355 26.1476 100.533 25.5218 100.656C24.8986 100.779 24.1981 100.841 23.4386 100.841C22.6791 100.841 22.0261 100.752 21.3991 100.575C20.7746 100.4 20.2243 100.116 19.7621 99.7316C19.3006 99.3481 18.931 98.8402 18.6634 98.2221C18.4029 97.6204 18.2672 96.8806 18.2596 96.0209H28.0502L28.0527 95.948C28.0628 95.6361 28.0679 95.4528 28.0679 95.3711V95.0648C28.0679 93.8089 27.9189 92.7159 27.6248 91.8169C27.33 90.9154 26.921 90.1679 26.4107 89.5954L26.4101 89.5942ZM25.5586 93.9592C25.5586 93.4019 25.4857 92.882 25.3393 92.3989C25.1934 91.9165 24.9792 91.4955 24.697 91.1373C24.4149 90.7791 24.0669 90.4982 23.6541 90.2941C23.2408 90.0899 22.7621 89.9879 22.2182 89.9879C21.6742 89.9879 21.1879 90.0925 20.7289 90.301C20.2706 90.5103 19.8699 90.7937 19.5275 91.1519C19.1846 91.5101 18.9081 91.931 18.6964 92.4135C18.4846 92.8966 18.354 93.4114 18.3033 93.9585C18.3534 93.4114 18.4846 92.896 18.6964 92.4135C18.9081 91.931 19.1852 91.5107 19.5275 91.1519C19.8699 90.7937 20.2706 90.5096 20.7289 90.301C21.1873 90.0918 21.6837 89.9879 22.2182 89.9879C22.7526 89.9879 23.2408 90.0899 23.6541 90.2941C24.0675 90.4982 24.4149 90.7797 24.697 91.1373C24.9792 91.4955 25.1934 91.9165 25.3393 92.3989C25.4851 92.882 25.5586 93.4019 25.5586 93.9592ZM18.3864 93.8837C18.4409 93.3765 18.5683 92.8928 18.7649 92.4446C18.9722 91.9722 19.2467 91.5551 19.5814 91.2051C19.9155 90.8551 20.3118 90.5749 20.76 90.3708C21.2063 90.1673 21.697 90.0639 22.2175 90.0639C22.738 90.0639 23.2192 90.1641 23.6199 90.3619C24.0206 90.5603 24.3629 90.8368 24.6368 91.1842C24.9119 91.5335 25.1237 91.9494 25.2663 92.4211C25.4033 92.8731 25.4756 93.3651 25.4819 93.8837H18.3857H18.3864ZM27.4244 102.126C26.9166 102.375 26.2896 102.571 25.5434 102.715C24.7972 102.859 23.9958 102.931 23.14 102.931C22.125 102.931 21.1715 102.802 20.2813 102.543C19.3906 102.285 18.619 101.866 17.9679 101.289C17.3168 100.712 16.8065 99.9586 16.4375 99.0273C16.0685 98.0966 15.8847 96.9744 15.8847 95.6608C15.8847 96.9744 16.0692 98.0966 16.4375 99.0273C16.8065 99.958 17.3162 100.712 17.9679 101.289C18.619 101.866 19.3906 102.285 20.2813 102.543C21.1721 102.802 22.125 102.931 23.14 102.931C23.9958 102.931 24.7972 102.859 25.5434 102.715C26.2896 102.571 26.9172 102.374 27.4244 102.126ZM27.9918 95.3698C27.9918 95.4547 27.9868 95.6462 27.9766 95.9448C27.9861 95.6462 27.9918 95.4547 27.9918 95.3698Z" fill="black"/>
<path d="M38.4389 100.768C38.1022 100.816 37.777 100.842 37.4721 100.842C37.0346 100.842 36.6567 100.785 36.348 100.674C36.0418 100.565 35.7869 100.409 35.5923 100.214C35.3977 100.02 35.2531 99.7856 35.1625 99.5193C35.0712 99.2505 35.0249 98.9519 35.0249 98.633V90.4374H39.265V88.3009H35.0249V84.4189H32.56V88.3009H29.8281V90.4374H32.56V98.9912C32.56 99.5947 32.6519 100.151 32.8332 100.645C33.0158 101.141 33.296 101.57 33.6656 101.92C34.0352 102.27 34.5044 102.542 35.0597 102.728C35.6126 102.914 36.2738 103.008 37.0245 103.008C37.5938 102.998 38.0902 102.957 38.5004 102.888C38.9118 102.817 39.2231 102.741 39.4266 102.659L39.4742 102.64V100.55L39.3784 100.576C39.0944 100.655 38.7781 100.719 38.4395 100.768L38.4389 100.768ZM39.3981 102.589C39.199 102.669 38.8953 102.743 38.4877 102.813C38.0794 102.883 37.5919 102.923 37.0245 102.932C36.2783 102.932 35.631 102.84 35.0838 102.656C34.5361 102.472 34.0809 102.208 33.7176 101.864C33.3543 101.521 33.083 101.106 32.9042 100.618C33.0836 101.106 33.3543 101.521 33.7176 101.864C34.0809 102.208 34.5361 102.472 35.0838 102.656C35.631 102.839 36.2783 102.932 37.0245 102.932C37.5919 102.922 38.0794 102.882 38.4877 102.813C38.8953 102.743 39.199 102.668 39.3981 102.589Z" fill="black"/>
<path d="M50.0395 87.9344C49.9311 87.9293 49.8271 87.9268 49.7294 87.9268C49.1779 87.9268 48.6441 87.9952 48.142 88.1309C47.6405 88.2659 47.1726 88.4568 46.7504 88.6983C46.3294 88.9392 45.9452 89.2239 45.6086 89.5453C45.3042 89.8363 45.0399 90.1514 44.8205 90.4849L44.3983 88.3617L44.3862 88.3008H42.457V102.635H44.922V92.6969C45.1629 92.3057 45.4672 91.9621 45.8266 91.6743C46.1925 91.3814 46.609 91.1309 47.0642 90.9306C47.5194 90.7303 48.0139 90.5787 48.5331 90.4805C49.0549 90.3822 49.5925 90.3328 50.1314 90.3328H50.3863V87.9661L50.3203 87.9578C50.2392 87.9477 50.1472 87.9401 50.0388 87.935L50.0395 87.9344ZM50.1327 90.2567C49.5855 90.2567 49.0479 90.3068 48.5204 90.4057C47.993 90.5052 47.4978 90.6573 47.035 90.8609C47.4978 90.6567 47.993 90.5052 48.5204 90.4057C49.0479 90.3061 49.5855 90.2567 50.1327 90.2567Z" fill="black"/>
<path d="M62.9171 90.7474C62.5139 89.9004 61.8425 89.2106 60.9219 88.6977C60.0039 88.1861 58.8089 87.9268 57.3691 87.9268C56.9716 87.9268 56.5671 87.9471 56.1671 87.987C55.767 88.0269 55.3822 88.0853 55.0246 88.1601C54.6645 88.2349 54.3177 88.3262 53.9944 88.4308C53.6685 88.536 53.3813 88.6501 53.1404 88.7712L53.0986 88.7922V90.8894L53.2013 90.8501C53.8213 90.6136 54.4534 90.4266 55.0785 90.2934C55.703 90.1609 56.3782 90.0937 57.0857 90.0937C58.0335 90.0937 58.7949 90.2491 59.3484 90.5546C59.9 90.8596 60.307 91.2489 60.5574 91.7117C60.6715 91.931 60.7546 92.1897 60.8034 92.4794C60.8522 92.773 60.8769 93.1153 60.8769 93.497V94.396C60.397 94.2229 59.8448 94.0765 59.2349 93.9598C58.606 93.84 57.9137 93.7747 57.1764 93.7645C56.3947 93.7645 55.6713 93.871 55.0246 94.0822C54.3761 94.2933 53.8125 94.5995 53.3496 94.9919C52.8856 95.385 52.5198 95.8713 52.2624 96.4368C52.005 97.0017 51.875 97.6502 51.875 98.3641C51.875 99.078 51.9923 99.7449 52.2237 100.318C52.4557 100.893 52.7854 101.386 53.2045 101.785C53.6229 102.184 54.1294 102.491 54.7095 102.697C55.2877 102.903 55.9319 103.008 56.6235 103.008C57.1352 103.008 57.6233 102.952 58.0747 102.842C58.5267 102.731 58.949 102.581 59.3287 102.396C59.7098 102.211 60.0515 101.997 60.3437 101.76C60.6068 101.547 60.8325 101.329 61.0151 101.11L61.2522 102.573L61.2624 102.636H63.3431V93.095C63.3431 92.6354 63.3101 92.2068 63.2448 91.8207C63.1789 91.4321 63.0692 91.0713 62.9177 90.7486L62.9171 90.7474ZM60.624 91.6749C60.3653 91.1969 59.9519 90.8013 59.3845 90.4881C58.8171 90.1749 58.0506 90.0177 57.0857 90.0177C58.0513 90.0177 58.8177 90.1743 59.3845 90.4881C59.9513 90.8019 60.3647 91.1975 60.624 91.6749C60.7431 91.9038 60.8281 92.1675 60.8776 92.4661C60.927 92.7647 60.9524 93.1077 60.9524 93.4963C60.9524 93.1083 60.9276 92.7647 60.8776 92.4661C60.8275 92.1675 60.7431 91.9038 60.624 91.6749ZM60.8769 99.1382C60.7685 99.2447 60.6056 99.3912 60.3907 99.575C60.1624 99.7703 59.8809 99.9687 59.5538 100.165C59.2286 100.36 58.8507 100.531 58.4316 100.673C58.0158 100.814 57.5587 100.885 57.0737 100.885C56.7066 100.885 56.3566 100.834 56.0339 100.732C55.7131 100.631 55.4323 100.475 55.199 100.27C54.9657 100.064 54.7799 99.7995 54.6461 99.4837C54.5117 99.1661 54.4439 98.7895 54.4439 98.3635C54.4439 97.5266 54.714 96.899 55.2459 96.4977C55.7848 96.0919 56.5443 95.8859 57.5041 95.8859C58.1996 95.896 58.845 95.9556 59.4219 96.0634C59.9779 96.1673 60.4667 96.2777 60.8763 96.3899V99.1376L60.8769 99.1382ZM59.4365 95.9898C58.852 95.8802 58.2079 95.8206 57.5048 95.811C56.524 95.811 55.7562 96.0196 55.2015 96.4381C54.6468 96.8559 54.3691 97.4981 54.3691 98.3641C54.3691 97.4981 54.6468 96.8565 55.2015 96.4381C55.7562 96.0203 56.524 95.811 57.5048 95.811C58.2085 95.8212 58.852 95.8808 59.4365 95.9898C60.021 96.0995 60.5263 96.2136 60.9524 96.3334C60.5263 96.2143 60.021 96.0995 59.4365 95.9898ZM61.3258 102.559L61.0722 100.991H61.0126C60.8237 101.23 60.5847 101.467 60.2962 101.701C60.0077 101.935 59.6743 102.144 59.2958 102.328C58.9173 102.512 58.5046 102.659 58.0563 102.768C57.6087 102.878 57.1307 102.933 56.6229 102.933C55.9363 102.933 55.3067 102.831 54.7343 102.626C54.1618 102.422 53.6692 102.124 53.2564 101.731C52.8431 101.338 52.5223 100.858 52.2934 100.29C52.0646 99.7228 51.9498 99.0805 51.9498 98.3641C51.9498 99.0805 52.0639 99.7228 52.2934 100.29C52.5223 100.858 52.8431 101.338 53.2564 101.731C53.6692 102.124 54.1618 102.422 54.7343 102.626C55.3067 102.831 55.9363 102.933 56.6229 102.933C57.1307 102.933 57.6081 102.878 58.0563 102.768C58.5039 102.659 58.9173 102.512 59.2958 102.328C59.6736 102.144 60.0071 101.935 60.2962 101.701C60.5847 101.467 60.8237 101.23 61.0126 100.991H61.0722L61.3258 102.559Z" fill="black"/>
<path d="M77.753 88.3002H77.6966L77.6807 88.3541L77.2319 89.868C77.1532 89.7457 77.0341 89.5941 76.8762 89.4154C76.6784 89.1928 76.4102 88.9646 76.0786 88.7389C75.7458 88.5119 75.3426 88.3205 74.8804 88.1696C74.4176 88.0187 73.8673 87.9369 73.246 87.9268C72.4339 87.9268 71.6351 88.0872 70.873 88.4029C70.1097 88.7192 69.4231 89.2049 68.831 89.8471C68.2401 90.4881 67.7576 91.3078 67.3975 92.2835C67.0381 93.258 66.8555 94.4245 66.8555 95.7508C66.8555 96.7088 66.9544 97.564 67.149 98.2931C67.3443 99.0235 67.6055 99.6657 67.9263 100.201C68.2477 100.738 68.6243 101.192 69.0471 101.549C69.4681 101.904 69.9157 102.195 70.3779 102.41C70.8388 102.626 71.3067 102.78 71.7688 102.871C72.2285 102.961 72.6653 103.007 73.0672 103.007C73.9396 103.007 74.7251 102.862 75.4035 102.576C76.0444 102.305 76.6188 101.906 77.1127 101.388V103.141C77.1127 104.703 76.6746 105.879 75.8098 106.637C74.9419 107.397 73.6727 107.783 72.0376 107.783C71.6148 107.783 71.2223 107.767 70.8717 107.738C70.5237 107.709 70.1769 107.662 69.8422 107.598C69.5061 107.533 69.1771 107.453 68.8639 107.36C68.5482 107.267 68.2192 107.149 67.8857 107.012L67.7817 106.969V109.082L67.821 109.104C68.2439 109.335 68.8329 109.536 69.5727 109.701C70.3107 109.866 71.1602 109.949 72.0972 109.949C73.2035 109.949 74.228 109.815 75.1416 109.55C76.0577 109.285 76.8534 108.876 77.5051 108.334C78.1581 107.792 78.6723 107.102 79.0336 106.284C79.3944 105.467 79.5776 104.494 79.5776 103.394V88.2995H77.7555L77.753 88.3002ZM77.1101 99.3183C76.6461 99.7963 76.1034 100.18 75.4966 100.459C74.883 100.742 74.2154 100.885 73.5129 100.885C73.0843 100.885 72.6241 100.814 72.1461 100.672C71.6718 100.532 71.2274 100.267 70.8255 99.8838C70.4229 99.5002 70.085 98.955 69.8212 98.262C69.5569 97.5672 69.4231 96.6574 69.4231 95.5568C69.4231 94.7415 69.5125 93.9871 69.6894 93.3144C69.8656 92.6449 70.13 92.0629 70.4761 91.5855C70.821 91.11 71.254 90.7334 71.7638 90.4659C72.2728 90.199 72.8713 90.0639 73.5427 90.0639C73.9903 90.0639 74.4087 90.1305 74.7872 90.2611C75.1676 90.393 75.5112 90.5559 75.8086 90.7461C76.1053 90.9357 76.3696 91.1455 76.5947 91.3706C76.8115 91.588 76.9846 91.7839 77.1101 91.9539V99.3189V99.3183ZM76.648 91.3167C76.4191 91.0878 76.1528 90.8761 75.8491 90.6821C75.5455 90.4881 75.1999 90.3239 74.8113 90.1895C74.4233 90.0551 73.9998 89.9879 73.5421 89.9879C72.8555 89.9879 72.2507 90.1248 71.7283 90.3987C71.2059 90.6726 70.7678 91.053 70.4146 91.5405C70.0609 92.028 69.7952 92.6132 69.6158 93.2947C69.437 93.9763 69.347 94.7307 69.347 95.5562C69.347 94.7301 69.4364 93.9763 69.6158 93.2947C69.7952 92.6132 70.0609 92.028 70.4146 91.5405C70.7678 91.053 71.2059 90.6719 71.7283 90.3987C72.2507 90.1248 72.8555 89.9879 73.5421 89.9879C73.9998 89.9879 74.4227 90.0551 74.8113 90.1895C75.1999 90.3239 75.5448 90.4881 75.8491 90.6821C76.1528 90.8761 76.4191 91.0878 76.648 91.3167C76.8768 91.5456 77.0556 91.7497 77.1856 91.9285C77.0562 91.7497 76.8768 91.5456 76.648 91.3167ZM75.3718 102.507C74.6997 102.79 73.9313 102.932 73.0653 102.932C72.6672 102.932 72.2392 102.887 71.7815 102.798C71.3238 102.708 70.866 102.557 70.4077 102.342C69.9499 102.128 69.5119 101.845 69.0941 101.492C68.6763 101.138 68.3079 100.695 67.989 100.163C67.6701 99.6302 67.414 99.0006 67.22 98.2741C67.026 97.5475 66.929 96.7069 66.929 95.7508C66.929 96.7062 67.026 97.5475 67.22 98.2741C67.414 99.0006 67.6701 99.6302 67.989 100.163C68.3073 100.695 68.6756 101.138 69.0941 101.492C69.5119 101.845 69.9499 102.129 70.4077 102.342C70.8654 102.557 71.3231 102.708 71.7815 102.798C72.2392 102.887 72.6672 102.932 73.0653 102.932C73.9313 102.932 74.7004 102.79 75.3718 102.507C76.0438 102.223 76.6334 101.802 77.1406 101.245C76.6327 101.802 76.0431 102.223 75.3718 102.507ZM78.962 106.254C78.6038 107.065 78.101 107.74 77.4544 108.277C76.8071 108.815 76.0286 109.215 75.1182 109.479C74.2078 109.743 73.1997 109.875 72.0947 109.875C71.1589 109.875 70.3227 109.793 69.5867 109.628C68.85 109.464 68.2731 109.267 67.8546 109.039C68.2724 109.267 68.85 109.464 69.5867 109.628C70.3234 109.792 71.1589 109.875 72.0947 109.875C73.1997 109.875 74.2071 109.743 75.1182 109.479C76.0292 109.215 76.8077 108.815 77.4544 108.277C78.101 107.74 78.6038 107.066 78.962 106.254Z" fill="black"/>
<path d="M94.8854 90.0132C94.3034 89.3507 93.5807 88.8321 92.7388 88.4707C91.8968 88.11 90.9376 87.9268 89.8871 87.9268C88.8366 87.9268 87.9097 88.11 87.0729 88.4707C86.2354 88.8315 85.5133 89.3507 84.9262 90.0126C84.3398 90.6738 83.8801 91.4758 83.56 92.3964C83.2404 93.3157 83.0781 94.3535 83.0781 95.482C83.0781 96.6105 83.2354 97.6331 83.5447 98.5518C83.8548 99.473 84.31 100.273 84.8964 100.929C85.4835 101.587 86.2056 102.103 87.0431 102.463C87.8793 102.824 88.8417 103.007 89.9023 103.007C90.963 103.007 91.8772 102.824 92.709 102.463C93.5414 102.102 94.2609 101.586 94.848 100.929C95.4338 100.273 95.8935 99.4736 96.2142 98.5524C96.5338 97.6331 96.6961 96.5997 96.6961 95.482C96.6961 94.3643 96.5388 93.3169 96.2295 92.3976C95.9194 91.4771 95.4674 90.6745 94.8861 90.0132H94.8854ZM93.8083 97.7815C93.5984 98.451 93.3011 99.0222 92.9264 99.4806C92.5524 99.937 92.1041 100.29 91.5944 100.527C91.0847 100.765 90.5154 100.886 89.9023 100.886C89.2893 100.886 88.7168 100.766 88.202 100.527C87.6872 100.29 87.2339 99.937 86.8548 99.4799C86.4744 99.0222 86.1751 98.4503 85.9653 97.7815C85.7548 97.1107 85.6477 96.3373 85.6477 95.4826C85.6477 94.628 85.7548 93.84 85.9653 93.1686C86.1751 92.4991 86.4725 91.9247 86.8478 91.4619C87.2218 91.0003 87.672 90.6459 88.1868 90.4082C88.7022 90.1698 89.274 90.0494 89.8871 90.0494C90.5002 90.0494 91.0714 90.1698 91.5874 90.4082C92.1016 90.6459 92.5524 91.001 92.9264 91.4619C93.3017 91.9253 93.5984 92.4991 93.8089 93.1686C94.0194 93.8406 94.1265 94.6191 94.1265 95.4826C94.1265 96.3461 94.0194 97.1101 93.8089 97.7815H93.8083ZM94.2014 95.4826C94.2014 94.6071 94.0942 93.8279 93.8806 93.1464C93.6663 92.4649 93.3677 91.8873 92.9847 91.415C92.6012 90.942 92.146 90.5838 91.6185 90.3397C91.091 90.0963 90.5135 89.9739 89.8865 89.9739C89.2595 89.9739 88.6819 90.0963 88.1544 90.3397C87.627 90.5838 87.1718 90.942 86.7882 91.415C86.4046 91.8879 86.106 92.4649 85.8924 93.1464C85.6781 93.8286 85.5716 94.6071 85.5716 95.4826C85.5716 94.6071 85.6787 93.8279 85.8924 93.1464C86.106 92.4649 86.4046 91.8873 86.7882 91.415C87.1711 90.942 87.6263 90.5838 88.1544 90.3397C88.6819 90.0963 89.2595 89.9739 89.8865 89.9739C90.5135 89.9739 91.0904 90.0963 91.6185 90.3397C92.146 90.5838 92.6012 90.942 92.9847 91.415C93.3677 91.8879 93.6663 92.4649 93.8806 93.1464C94.0942 93.8286 94.2014 94.6071 94.2014 95.4826ZM96.142 98.5283C95.8231 99.4438 95.373 100.228 94.791 100.88C94.209 101.532 93.5046 102.037 92.6785 102.395C91.8524 102.753 90.9268 102.933 89.9017 102.933C88.8765 102.933 87.9034 102.754 87.0729 102.395C86.2417 102.037 85.5354 101.532 84.9528 100.88C84.3708 100.228 83.9251 99.4444 83.6164 98.5283C83.9251 99.4438 84.3702 100.228 84.9528 100.88C85.5348 101.532 86.2417 102.037 87.0729 102.395C87.904 102.753 88.8467 102.933 89.9017 102.933C90.9566 102.933 91.8524 102.754 92.6785 102.395C93.5046 102.037 94.209 101.532 94.791 100.88C95.373 100.228 95.8237 99.4444 96.142 98.5283C96.4602 97.6128 96.62 96.5972 96.62 95.4826C96.62 96.5972 96.4609 97.6128 96.142 98.5283Z" fill="black"/>
<path d="M111.629 90.67C111.382 90.0202 111.042 89.4857 110.618 89.0819C110.193 88.6774 109.686 88.3807 109.11 88.1987C108.537 88.0181 107.917 87.9268 107.266 87.9268C106.715 87.9268 106.198 87.9876 105.731 88.1081C105.265 88.2285 104.829 88.3991 104.437 88.6153C104.046 88.8315 103.687 89.0863 103.371 89.3723C103.081 89.6347 102.811 89.9194 102.567 90.2205L102.144 88.3591L102.13 88.3002H100.203V102.634H102.668V92.5048C103.194 91.7503 103.83 91.1487 104.557 90.7169C105.288 90.2833 106.054 90.0633 106.832 90.0633C107.711 90.0633 108.387 90.3258 108.843 90.8437C109.301 91.3649 109.533 92.2366 109.533 93.4361V102.633H111.998V93.0627C111.998 92.1225 111.873 91.3173 111.627 90.6694L111.629 90.67ZM108.901 90.7943C108.428 90.2567 107.739 89.9879 106.833 89.9879C106.036 89.9879 105.265 90.2091 104.519 90.6523C103.772 91.0954 103.13 91.7047 102.593 92.4813C103.13 91.7047 103.772 91.0954 104.519 90.6523C105.265 90.2098 106.036 89.9879 106.833 89.9879C107.738 89.9879 108.428 90.2567 108.901 90.7943C109.373 91.3319 109.61 92.2125 109.61 93.4368C109.61 92.2125 109.374 91.3319 108.901 90.7943Z" fill="black"/>
<path d="M89.5415 43.0966C88.7814 46.9043 87.618 50.4737 86.0667 53.7533C81.1305 53.9619 76.1791 54.1159 71.2968 54.2117C71.3285 50.7685 71.3538 47.1782 71.3722 43.4858C77.402 43.4104 83.4908 43.2798 89.5415 43.0972M92.65 40.3825C84.6998 40.6481 76.7256 40.8218 68.7697 40.9004C68.7494 45.81 68.7146 51.2744 68.6562 56.8725C75.0075 56.7749 81.3701 56.5815 87.7226 56.2981C90.5743 50.7964 91.9779 45.2211 92.6493 40.3818L92.65 40.3825Z" fill="black"/>
<path d="M71.4084 24.6381C77.7349 24.7516 84.1349 24.9526 90.497 25.2366C90.5077 25.87 90.516 26.4716 90.5223 27.0397C90.5261 27.3954 90.5394 27.8214 90.5546 28.314C90.6073 30.0201 90.6897 32.6632 90.4811 35.8585C84.1235 36.0582 77.726 36.1989 71.4001 36.2788C71.4128 31.4022 71.4122 27.3453 71.4084 24.6375M68.7888 21.9805C68.7951 24.3567 68.8059 30.727 68.7773 38.9226C76.8112 38.8427 84.8634 38.6658 92.8902 38.3951C93.4488 33.0303 93.1559 28.8117 93.1362 27.0105C93.1223 25.7058 93.0963 24.2616 93.062 22.7375C84.9832 22.3488 76.8777 22.0952 68.7888 21.9805Z" fill="black"/>
<path d="M81.5484 61.1395C78.7069 64.8103 75.2048 67.9942 71.0788 70.6582C71.1321 67.752 71.1796 64.6645 71.2202 61.421C74.6367 61.3551 78.0894 61.2612 81.5484 61.1402M86.6044 58.3271C80.6171 58.5833 74.6222 58.7595 68.6367 58.8515C68.5746 64.371 68.4884 69.9704 68.3711 75.2515C77.1942 70.6525 82.9108 64.6043 86.6044 58.3271Z" fill="black"/>
<path d="M44.2787 24.6618C44.2755 27.3652 44.2755 31.4113 44.2888 36.2626C38.0986 36.1776 31.8044 36.035 25.5141 35.8378C25.3074 32.6514 25.3892 30.0165 25.4418 28.3142C25.457 27.821 25.4703 27.395 25.4741 27.0399C25.4805 26.4807 25.4887 25.8886 25.4988 25.2667C31.7956 24.9858 38.0904 24.7829 44.2787 24.6618ZM46.8977 22.001C38.9729 22.1259 30.9701 22.3833 22.9331 22.7681C22.8989 24.2814 22.8735 25.7149 22.8596 27.0114C22.8399 28.8106 22.5483 33.0203 23.1037 38.375C31.088 38.6432 39.0382 38.822 46.9116 38.9101C46.8818 30.7323 46.892 24.3753 46.8977 22.001Z" fill="black"/>
<path d="M26.4476 43.0761C32.4286 43.2574 38.416 43.3893 44.3139 43.4698C44.3329 47.1583 44.3583 50.7461 44.39 54.1867C39.6262 54.0853 34.7731 53.9293 29.9104 53.7214C28.3642 50.4449 27.2046 46.8794 26.447 43.0761M23.3398 40.3613C24.0087 45.1955 25.4079 50.7664 28.2519 56.2656C34.5455 56.5483 40.8124 56.7455 47.0305 56.8526C46.9722 51.2564 46.9367 45.7946 46.9158 40.8875C39.119 40.8007 31.2462 40.6251 23.3398 40.362V40.3613Z" fill="black"/>
<path d="M34.4272 61.1082C37.8013 61.2286 41.1595 61.3244 44.4733 61.3941C44.5139 64.5729 44.5602 67.6015 44.6121 70.4563C40.6079 67.8266 37.2021 64.7003 34.4272 61.1082ZM29.375 58.292C33.0248 64.5076 38.6559 70.5007 47.3199 75.087C47.2045 69.8477 47.1189 64.299 47.0568 58.8283C41.2 58.7282 35.2996 58.5481 29.375 58.292Z" fill="black"/>
<path d="M58.0081 4.61394C69.8528 4.61394 81.0819 5.62261 89.9101 7.46689C90.0648 10.6799 90.2094 14.3907 90.3216 18.0177C82.8152 17.6874 75.2677 17.4731 67.8456 17.378L66.8414 17.3654L64.1831 17.3311L64.1932 19.9901L64.1971 20.9949C64.1983 21.2974 64.3086 50.8368 63.7957 74.5397C61.9559 75.343 60.0153 76.0753 57.9999 76.7264C55.8748 76.0398 53.8308 75.2619 51.8972 74.4034C51.3912 50.911 51.492 21.3145 51.4927 21.0121L51.4965 20.0059L51.5066 17.3432L48.8445 17.3818L47.8384 17.3964C40.5698 17.501 33.1287 17.7204 25.6775 18.0482C25.7897 14.4122 25.9343 10.6901 26.0896 7.46815C34.928 5.62325 46.1634 4.61457 58.0087 4.61457M58.0087 2C45.5966 2 33.1826 3.11455 23.5797 5.34366C23.3457 9.73974 23.1213 15.5731 22.9844 20.7889C31.3352 20.3908 39.6492 20.1295 47.8771 20.011L48.8832 19.9964L48.8794 21.0026C48.8781 21.3893 48.7716 52.2975 49.3206 76.0943C51.9269 77.3426 54.7862 78.4692 57.9251 79.4455L58.0011 79.4696L58.0772 79.4455C61.0924 78.5079 63.8509 77.4314 66.3741 76.242C66.9263 52.4066 66.8148 21.3728 66.8129 20.9854L66.8091 19.9812L67.8133 19.9939C76.2104 20.101 84.6278 20.3584 93.0166 20.7604C92.8797 15.5521 92.6553 9.73213 92.422 5.34493C82.8311 3.11582 70.4215 2.00127 58.01 2.00127L58.0087 2Z" fill="black"/>
</svg>
