<svg width="192" height="64" viewBox="0 0 192 64" fill="none" xmlns="http://www.w3.org/2000/svg">
<path d="M63.2533 40.2832C62.8171 40.3469 62.3964 40.3794 62.001 40.3794C61.4349 40.3794 60.9446 40.3061 60.5455 40.1631C60.1489 40.02 59.8196 39.8205 59.566 39.5669C59.3136 39.3146 59.1261 39.0117 59.0096 38.6668C58.8906 38.3182 58.8305 37.9324 58.8305 37.5178V26.9019H64.323V24.134H58.8305V19.1055H55.6371V24.134H52.0977V26.9019H55.6371V37.9817C55.6371 38.7629 55.7561 39.484 55.9917 40.1234C56.2285 40.7664 56.5914 41.3228 57.0698 41.7759C57.5481 42.229 58.1562 42.5812 58.8749 42.8228C59.5913 43.0631 60.447 43.1857 61.4205 43.1857C62.1584 43.1725 62.8014 43.1196 63.3326 43.0295C63.8651 42.9381 64.2689 42.8396 64.5321 42.7338L64.5934 42.7098V40.0008L64.4696 40.0345C64.1018 40.1366 63.692 40.2195 63.2533 40.2832ZM63.3146 42.9333C62.7858 43.0235 62.1536 43.0751 61.4193 43.0884C60.4518 43.0884 59.6141 42.9694 58.905 42.7302C58.1959 42.4922 57.6058 42.1497 57.1359 41.705C56.6647 41.2603 56.3138 40.7219 56.0818 40.0897C55.8499 39.4588 55.7333 38.7557 55.7333 37.9817C55.7333 38.7557 55.8499 39.4576 56.0818 40.0897C56.3138 40.7219 56.6647 41.2603 57.1359 41.705C57.607 42.1497 58.1959 42.491 58.905 42.7302C59.6141 42.9682 60.4518 43.0884 61.4193 43.0884C62.1536 43.0751 62.7858 43.0235 63.3146 42.9333Z" fill="black"/>
<path d="M81.1294 25.8094C80.466 25.0666 79.6715 24.5138 78.7665 24.1676C77.8651 23.8227 76.8832 23.6484 75.8472 23.6484C74.7463 23.6484 73.6767 23.8588 72.6647 24.2746C71.6539 24.6904 70.7465 25.3238 69.9677 26.1543C69.1913 26.9848 68.5603 28.034 68.0952 29.2707C67.6301 30.5074 67.3945 31.9857 67.3945 33.6658C67.3945 35.346 67.6373 36.8519 68.1181 38.0634C68.5988 39.2773 69.2742 40.276 70.1264 41.0308C70.9773 41.7843 71.9977 42.3384 73.1611 42.6761C74.3184 43.0126 75.5744 43.1833 76.8916 43.1833C78.001 43.1833 79.0538 43.0883 80.0237 42.9009C80.9948 42.7134 81.8229 42.4526 82.4851 42.1281L82.5404 42.1016V39.4059L82.4094 39.4539C81.6065 39.7472 80.7881 39.9768 79.978 40.1366C79.1704 40.2952 78.263 40.377 77.2798 40.377C76.2967 40.377 75.4494 40.2616 74.6369 40.0332C73.8281 39.8061 73.1154 39.4383 72.5169 38.9408C71.9183 38.4432 71.44 37.7858 71.0939 36.9854C70.7561 36.2066 70.5807 35.2475 70.571 34.1346H83.2543L83.2579 34.0396C83.2711 33.6358 83.2771 33.3978 83.2771 33.2921V32.8955C83.2771 31.2682 83.0836 29.8524 82.7026 28.6878C82.3204 27.5196 81.7916 26.5521 81.1294 25.8106V25.8094ZM79.7424 29.4425C79.5538 28.8176 79.2761 28.2719 78.9108 27.808C78.5454 27.3441 78.0947 26.98 77.5599 26.7156C77.0238 26.4511 76.4049 26.3189 75.6994 26.3189C74.9939 26.3189 74.3641 26.4548 73.7704 26.7252C73.1767 26.9956 72.6575 27.3634 72.214 27.8273C71.7705 28.2912 71.4111 28.8368 71.1371 29.4618C70.8631 30.0879 70.6936 30.755 70.6275 31.4629C70.6924 30.7538 70.8619 30.0867 71.1371 29.4618C71.4111 28.8368 71.7705 28.2924 72.214 27.8273C72.6575 27.3634 73.1767 26.9956 73.7704 26.7252C74.3641 26.4548 75.0071 26.3189 75.6994 26.3189C76.3917 26.3189 77.0238 26.4511 77.5599 26.7156C78.0947 26.98 78.5454 27.3441 78.9108 27.808C79.2761 28.2719 79.5538 28.8176 79.7424 29.4425ZM70.7357 31.3667C70.8066 30.7105 70.9713 30.0831 71.2261 29.5026C71.4941 28.8909 71.851 28.3501 72.2837 27.897C72.7164 27.4439 73.2296 27.0809 73.8101 26.8165C74.3882 26.5533 75.0239 26.4187 75.6982 26.4187C76.3724 26.4187 76.995 26.5485 77.5154 26.8045C78.0346 27.0617 78.4781 27.4198 78.8326 27.8705C79.1884 28.3224 79.4636 28.8621 79.6475 29.4726C79.8242 30.0579 79.9179 30.6949 79.9263 31.3679H70.7345L70.7357 31.3667ZM82.4442 42.0427C81.7868 42.3648 80.9744 42.6196 80.0069 42.8071C79.0394 42.9934 78.0021 43.0871 76.8928 43.0871C75.578 43.0871 74.3437 42.9189 73.1899 42.5848C72.0361 42.2494 71.0374 41.7086 70.1937 40.9599C71.0374 41.7074 72.0361 42.2494 73.1899 42.5848C74.3437 42.9201 75.578 43.0871 76.8928 43.0871C78.0009 43.0871 79.0394 42.9934 80.0069 42.8071C80.9744 42.6196 81.7856 42.366 82.4442 42.0427ZM83.1798 33.2921C83.1798 33.4014 83.1726 33.6502 83.1605 34.036C83.1738 33.649 83.1798 33.4014 83.1798 33.2921Z" fill="black"/>
<path d="M96.7104 40.2832C96.2741 40.3469 95.8534 40.3794 95.458 40.3794C94.8919 40.3794 94.4016 40.3061 94.0026 40.1631C93.6059 40.02 93.2766 39.8205 93.0231 39.5669C92.7707 39.3146 92.5832 39.0117 92.4666 38.6668C92.3476 38.3182 92.2875 37.9324 92.2875 37.5178V26.9019H97.78V24.134H92.2875V19.1055H89.0942V24.134H85.5547V26.9019H89.0942V37.9817C89.0942 38.7629 89.2132 39.484 89.4487 40.1234C89.6855 40.7664 90.0484 41.3228 90.5268 41.7759C91.0051 42.229 91.6133 42.5812 92.332 42.8228C93.0483 43.0631 93.904 43.1857 94.8775 43.1857C95.6155 43.1725 96.2585 43.1196 96.7897 43.0295C97.3221 42.9381 97.7259 42.8396 97.9891 42.7338L98.0504 42.7098V40.0008L97.9266 40.0345C97.5589 40.1366 97.149 40.2195 96.7104 40.2832ZM96.7717 42.9333C96.2428 43.0235 95.6107 43.0751 94.8763 43.0884C93.9088 43.0884 93.0711 42.9694 92.362 42.7302C91.6529 42.4922 91.0628 42.1497 90.5929 41.705C90.1218 41.2603 89.7708 40.7219 89.5389 40.0897C89.3069 39.4588 89.1903 38.7557 89.1903 37.9817C89.1903 38.7557 89.3069 39.4576 89.5389 40.0897C89.7708 40.7219 90.1218 41.2603 90.5929 41.705C91.064 42.1497 91.6529 42.491 92.362 42.7302C93.0711 42.9682 93.9088 43.0884 94.8763 43.0884C95.6107 43.0751 96.2428 43.0235 96.7717 42.9333Z" fill="black"/>
<path d="M111.732 23.659C111.591 23.653 111.457 23.6494 111.33 23.6494C110.616 23.6494 109.924 23.7384 109.274 23.9138C108.625 24.0893 108.018 24.3369 107.471 24.6482C106.926 24.9594 106.428 25.3284 105.992 25.7454C105.597 26.1216 105.255 26.5302 104.971 26.9617L104.424 24.2107L104.409 24.1314H101.91V42.6987H105.104V29.8257C105.416 29.3197 105.81 28.8739 106.275 28.5013C106.75 28.1215 107.288 27.7982 107.879 27.5374C108.469 27.2778 109.109 27.0807 109.781 26.9545C110.457 26.8271 111.154 26.7634 111.852 26.7634H112.182V23.6975L112.097 23.6867C111.993 23.6735 111.872 23.6638 111.732 23.6566V23.659ZM111.852 26.6673C111.143 26.6673 110.447 26.7322 109.763 26.8608C109.079 26.9894 108.439 27.1865 107.839 27.4509C108.439 27.1865 109.079 26.9906 109.763 26.8608C110.446 26.7322 111.143 26.6673 111.852 26.6673Z" fill="black"/>
<path d="M128.424 27.3021C127.901 26.2048 127.032 25.3118 125.84 24.6472C124.651 23.985 123.102 23.6484 121.238 23.6484C120.724 23.6484 120.2 23.6749 119.682 23.7266C119.164 23.7782 118.665 23.854 118.202 23.9501C117.736 24.0474 117.286 24.1652 116.867 24.301C116.445 24.4368 116.073 24.5859 115.76 24.7421L115.706 24.7686V27.4847L115.838 27.4343C116.642 27.1278 117.46 26.885 118.27 26.7132C119.078 26.5413 119.953 26.4548 120.869 26.4548C122.098 26.4548 123.083 26.6555 123.801 27.0521C124.516 27.4475 125.042 27.9511 125.367 28.5508C125.514 28.8344 125.623 29.1697 125.685 29.5447C125.749 29.9245 125.78 30.368 125.78 30.8631V32.0277C125.159 31.803 124.444 31.6131 123.653 31.4629C122.838 31.3078 121.941 31.2225 120.986 31.2093C119.974 31.2093 119.036 31.3475 118.199 31.6203C117.359 31.8943 116.628 32.2909 116.028 32.7993C115.427 33.3089 114.954 33.9387 114.62 34.6706C114.287 35.4025 114.117 36.2426 114.117 37.1668C114.117 38.0911 114.27 38.9552 114.569 39.6979C114.87 40.4431 115.297 41.0825 115.839 41.598C116.381 42.1148 117.038 42.5127 117.789 42.7795C118.538 43.0463 119.372 43.1821 120.268 43.1821C120.931 43.1821 121.563 43.11 122.148 42.967C122.733 42.8239 123.28 42.6292 123.773 42.3889C124.267 42.1485 124.709 41.8709 125.088 41.5644C125.429 41.288 125.721 41.0055 125.957 40.7219L126.263 42.616L126.276 42.6977H128.971V30.3391C128.971 29.7442 128.928 29.189 128.844 28.689C128.758 28.1854 128.615 27.7179 128.419 27.3009L128.424 27.3021ZM125.454 28.5039C125.119 27.885 124.584 27.373 123.849 26.9667C123.113 26.5605 122.12 26.3574 120.87 26.3574C119.943 26.3574 119.069 26.4451 118.25 26.6182C117.432 26.7925 116.616 27.034 115.805 27.3441C116.617 27.034 117.432 26.7925 118.25 26.6182C119.069 26.4439 119.943 26.3574 120.87 26.3574C122.12 26.3574 123.114 26.5605 123.849 26.9667C124.584 27.373 125.119 27.885 125.454 28.5039C125.609 28.8008 125.719 29.1421 125.784 29.5291C125.849 29.9161 125.88 30.3608 125.88 30.8631C125.88 30.3608 125.847 29.9161 125.784 29.5291C125.719 29.1421 125.609 28.8008 125.454 28.5039ZM125.782 38.1716C125.642 38.3098 125.43 38.4997 125.153 38.7376C124.857 38.99 124.493 39.2472 124.069 39.502C123.647 39.7544 123.158 39.9768 122.614 40.1606C122.075 40.3433 121.483 40.4359 120.855 40.4359C120.379 40.4359 119.926 40.3686 119.508 40.2376C119.092 40.1066 118.729 39.9058 118.426 39.639C118.124 39.3722 117.883 39.0297 117.71 38.6199C117.535 38.2088 117.448 37.7209 117.448 37.1692C117.448 36.0852 117.797 35.2727 118.487 34.7523C119.185 34.2259 120.169 33.9603 121.412 33.9603C122.313 33.9735 123.149 34.0504 123.897 34.1911C124.617 34.3257 125.25 34.4687 125.781 34.6141V38.174L125.782 38.1716ZM126.363 42.6016L126.034 40.5717H125.957C125.712 40.8805 125.403 41.187 125.029 41.4899C124.655 41.7927 124.222 42.0632 123.733 42.3023C123.243 42.5415 122.708 42.7314 122.128 42.8732C121.547 43.015 120.928 43.0859 120.271 43.0859C119.381 43.0859 118.565 42.9537 117.825 42.6893C117.083 42.4249 116.445 42.0379 115.91 41.5295C115.376 41.02 114.96 40.3986 114.663 39.6631C114.366 38.9275 114.218 38.0971 114.218 37.168C114.218 38.0959 114.366 38.9275 114.663 39.6631C114.96 40.3986 115.376 41.02 115.91 41.5295C116.445 42.0391 117.083 42.4261 117.825 42.6893C118.566 42.9537 119.381 43.0859 120.271 43.0859C120.928 43.0859 121.547 43.015 122.128 42.8732C122.708 42.7314 123.243 42.5415 123.733 42.3023C124.224 42.0644 124.655 41.7927 125.029 41.4899C125.403 41.187 125.712 40.8805 125.957 40.5717H126.034L126.363 42.6016Z" fill="black"/>
<path d="M147.635 24.134H147.562L147.542 24.2037L146.961 26.1639C146.86 26.0053 146.705 25.8082 146.501 25.5774C146.245 25.289 145.897 24.9933 145.467 24.7013C145.037 24.408 144.514 24.1592 143.914 23.9633C143.315 23.7674 142.602 23.6617 141.797 23.6484C140.744 23.6484 139.71 23.8564 138.724 24.265C137.736 24.6748 136.845 25.3046 136.078 26.1363C135.313 26.9667 134.688 28.0292 134.221 29.2923C133.755 30.5543 133.52 32.065 133.52 33.7836C133.52 35.0239 133.647 36.132 133.901 37.0767C134.153 38.0225 134.492 38.8542 134.906 39.5477C135.322 40.2436 135.811 40.8313 136.358 41.2928C136.904 41.7543 137.483 42.1293 138.082 42.4093C138.679 42.6881 139.285 42.8888 139.883 43.0066C140.48 43.1232 141.044 43.1821 141.565 43.1821C142.695 43.1821 143.713 42.9946 144.591 42.6232C145.422 42.2723 146.166 41.7555 146.805 41.0849V43.3552C146.805 45.3791 146.238 46.903 145.117 47.8849C143.994 48.8692 142.35 49.3692 140.231 49.3692C139.683 49.3692 139.175 49.35 138.721 49.3115C138.27 49.2731 137.821 49.2118 137.387 49.1288C136.952 49.0459 136.525 48.9425 136.12 48.8212C135.712 48.6998 135.285 48.5483 134.854 48.3705L134.719 48.3152V51.053L134.769 51.0806C135.318 51.3799 136.081 51.6407 137.039 51.8546C137.994 52.0674 139.095 52.1755 140.309 52.1755C141.741 52.1755 143.068 52.0012 144.252 51.6587C145.44 51.315 146.47 50.785 147.314 50.0831C148.161 49.38 148.826 48.487 149.295 47.427C149.763 46.3682 149.999 45.1086 149.999 43.6845V24.1316H147.639L147.635 24.134ZM146.802 38.4071C146.202 39.0273 145.498 39.5237 144.712 39.8854C143.918 40.252 143.053 40.4371 142.143 40.4371C141.588 40.4371 140.991 40.3445 140.373 40.1606C139.758 39.9792 139.183 39.6354 138.662 39.1391C138.141 38.6427 137.703 37.936 137.362 37.0382C137.019 36.138 136.846 34.959 136.846 33.5336C136.846 32.4772 136.963 31.5001 137.191 30.6288C137.42 29.761 137.762 29.0075 138.21 28.3885C138.656 27.772 139.218 27.284 139.879 26.9379C140.538 26.593 141.314 26.4175 142.183 26.4175C142.762 26.4175 143.304 26.504 143.794 26.6735C144.287 26.8442 144.733 27.0557 145.117 27.3021C145.502 27.5472 145.845 27.8201 146.135 28.1109C146.417 28.3921 146.641 28.6457 146.802 28.8669V38.4071ZM146.204 28.0424C145.907 27.7455 145.562 27.4715 145.169 27.2203C144.776 26.9691 144.328 26.7564 143.825 26.5822C143.323 26.4079 142.775 26.3213 142.181 26.3213C141.292 26.3213 140.508 26.4992 139.832 26.8526C139.155 27.2071 138.588 27.6999 138.13 28.332C138.588 27.7011 139.155 27.2071 139.832 26.8526C140.508 26.498 141.292 26.3213 142.181 26.3213C142.774 26.3213 143.322 26.4079 143.825 26.5822C144.329 26.7564 144.776 26.9691 145.169 27.2203C145.562 27.4715 145.907 27.7455 146.204 28.0424C146.501 28.3393 146.733 28.6037 146.9 28.8356C146.732 28.6037 146.5 28.3393 146.204 28.0424ZM141.562 43.0883C141.047 43.0883 140.492 43.0306 139.899 42.9141C139.305 42.7975 138.713 42.6016 138.12 42.324C137.527 42.0463 136.96 41.6798 136.418 41.2219C135.876 40.764 135.399 40.1907 134.987 39.5008C134.575 38.811 134.242 37.9961 133.991 37.0539C134.242 37.9949 134.574 38.811 134.987 39.5008C135.399 40.1907 135.876 40.764 136.418 41.2219C136.96 41.6798 137.527 42.0475 138.12 42.324C138.713 42.6016 139.306 42.7975 139.899 42.9141C140.492 43.0306 141.047 43.0883 141.562 43.0883ZM149.897 43.6869C149.897 45.105 149.665 46.3393 149.201 47.391C148.737 48.4414 148.086 49.3151 147.248 50.011C146.409 50.7069 145.401 51.2261 144.222 51.5674C143.043 51.9087 141.737 52.0794 140.306 52.0794C139.095 52.0794 138.011 51.9736 137.058 51.7597C138.012 51.9724 139.095 52.0794 140.306 52.0794C141.738 52.0794 143.043 51.9087 144.222 51.5674C145.402 51.2261 146.411 50.7069 147.248 50.011C148.086 49.3151 148.737 48.4414 149.201 47.391C149.665 46.3405 149.897 45.1062 149.897 43.6869Z" fill="black"/>
<path d="M169.833 26.3512C169.078 25.4931 168.143 24.8212 167.052 24.3537C165.962 23.8862 164.719 23.6494 163.358 23.6494C161.998 23.6494 160.797 23.8862 159.713 24.3537C158.628 24.8212 157.693 25.4931 156.932 26.3512C156.172 27.2081 155.577 28.2465 155.163 29.4399C154.748 30.631 154.539 31.9746 154.539 33.4361C154.539 34.8975 154.742 36.222 155.144 37.413C155.545 38.6064 156.134 39.6424 156.895 40.4921C157.655 41.343 158.591 42.0125 159.675 42.48C160.759 42.9475 162.004 43.1843 163.379 43.1843C164.754 43.1843 165.938 42.9475 167.014 42.48C168.092 42.0125 169.025 41.343 169.785 40.4921C170.544 39.6424 171.139 38.6064 171.554 37.413C171.968 36.222 172.178 34.8831 172.178 33.4361C172.178 31.989 171.974 30.6322 171.573 29.4399C171.172 28.2477 170.585 27.2081 169.833 26.3512ZM168.437 36.4143C168.165 37.2808 167.781 38.0223 167.294 38.6148C166.81 39.2061 166.23 39.6628 165.569 39.9705C164.909 40.2782 164.171 40.4356 163.376 40.4356C162.582 40.4356 161.84 40.2794 161.175 39.9705C160.508 39.6628 159.921 39.2061 159.429 38.6136C158.937 38.0199 158.55 37.2796 158.277 36.413C158.004 35.5441 157.866 34.543 157.866 33.4349C157.866 32.3268 158.004 31.3064 158.277 30.4375C158.548 29.5697 158.933 28.8258 159.42 28.2261C159.904 27.6287 160.488 27.1684 161.154 26.8608C161.821 26.5519 162.563 26.3956 163.356 26.3956C164.149 26.3956 164.891 26.5519 165.558 26.8608C166.224 27.1684 166.808 27.6287 167.292 28.2261C167.778 28.8258 168.162 29.5697 168.435 30.4375C168.708 31.3076 168.846 32.3159 168.846 33.4349C168.846 34.5538 168.708 35.5429 168.435 36.413L168.437 36.4143ZM168.947 33.4361C168.947 32.3015 168.809 31.2932 168.531 30.4098C168.253 29.5265 167.866 28.7789 167.37 28.1672C166.874 27.5554 166.284 27.0903 165.601 26.7742C164.917 26.4581 164.17 26.3007 163.357 26.3007C162.545 26.3007 161.797 26.4593 161.113 26.7742C160.429 27.0903 159.84 27.5542 159.344 28.1672C158.848 28.7801 158.461 29.5277 158.183 30.4098C157.905 31.2932 157.767 32.3027 157.767 33.4361C157.767 32.3015 157.905 31.2932 158.183 30.4098C158.461 29.5265 158.847 28.7789 159.344 28.1672C159.84 27.5554 160.431 27.0903 161.113 26.7742C161.796 26.4581 162.545 26.3007 163.357 26.3007C164.17 26.3007 164.917 26.4593 165.601 26.7742C166.284 27.0903 166.874 27.5542 167.37 28.1672C167.866 28.7801 168.253 29.5277 168.531 30.4098C168.809 31.2932 168.947 32.3027 168.947 33.4361ZM171.461 37.3817C171.049 38.568 170.465 39.5835 169.711 40.4272C168.957 41.2721 168.044 41.9259 166.975 42.3898C165.904 42.8538 164.706 43.0857 163.378 43.0857C162.049 43.0857 160.789 42.8538 159.713 42.3898C158.636 41.9259 157.722 41.2709 156.967 40.4272C156.212 39.5835 155.635 38.568 155.236 37.3817C155.635 38.568 156.213 39.5835 156.967 40.4272C157.722 41.2721 158.636 41.9259 159.713 42.3898C160.79 42.8538 162.011 43.0857 163.378 43.0857C164.744 43.0857 165.904 42.8538 166.975 42.3898C168.044 41.9259 168.957 41.2709 169.711 40.4272C170.466 39.5835 171.049 38.568 171.461 37.3817Z" fill="black"/>
<path d="M191.52 27.2023C191.2 26.361 190.759 25.6687 190.21 25.1447C189.659 24.6207 189.003 24.2361 188.257 24.0006C187.515 23.7662 186.711 23.6484 185.867 23.6484C185.153 23.6484 184.485 23.7278 183.879 23.884C183.275 24.0402 182.711 24.2614 182.203 24.5414C181.696 24.8214 181.231 25.1519 180.821 25.5221C180.445 25.8622 180.095 26.2312 179.78 26.6206L179.232 24.2097L179.215 24.134H176.719V42.7013H179.912V29.5808C180.594 28.6037 181.417 27.8249 182.359 27.2648C183.306 26.7023 184.298 26.4175 185.307 26.4175C186.445 26.4175 187.322 26.7576 187.913 27.4282C188.507 28.1025 188.807 29.2334 188.807 30.7862V42.7001H192V30.3031C192 29.0856 191.839 28.0424 191.52 27.2035V27.2023ZM187.986 27.3621C187.373 26.6663 186.48 26.3177 185.307 26.3177C184.276 26.3177 183.276 26.605 182.31 27.1783C181.342 27.7515 180.512 28.5412 179.815 29.5471C180.511 28.5412 181.342 27.7515 182.31 27.1783C183.277 26.605 184.276 26.3177 185.307 26.3177C186.48 26.3177 187.373 26.6663 187.986 27.3621C188.598 28.058 188.904 29.1998 188.904 30.785C188.904 29.1986 188.598 28.058 187.986 27.3621Z" fill="black"/>
<path d="M29.4414 42.2039C33.5169 42.1414 37.5984 42.0176 41.6739 41.8349C43.5032 38.3051 44.4046 34.7284 44.8348 31.624C39.7341 31.7947 34.6178 31.9053 29.5135 31.9569C29.5003 35.107 29.4775 38.6128 29.4414 42.2039Z" fill="#E3262B"/>
<path d="M42.8409 33.3655C42.353 35.8089 41.6066 38.0984 40.6115 40.2028C37.4446 40.3362 34.2681 40.4348 31.136 40.4973C31.1565 38.2883 31.1721 35.9843 31.1841 33.6155C35.0529 33.5674 38.9589 33.4833 42.8409 33.3655ZM44.8348 31.624C39.7341 31.7947 34.6178 31.9053 29.5135 31.9569C29.5003 35.107 29.4775 38.6128 29.4414 42.2039C33.5169 42.1414 37.5984 42.0176 41.6739 41.8349C43.5032 38.3051 44.4046 34.7284 44.8348 31.624Z" fill="black"/>
<path d="M44.9911 30.3519C45.3492 26.9098 45.1617 24.2032 45.1485 23.0483C45.1389 22.2106 45.1233 21.2851 45.1005 20.3068C39.9168 20.0581 34.7164 19.8946 29.5267 19.8213C29.5303 21.3452 29.5376 25.4327 29.5195 30.6908C34.6743 30.6391 39.8399 30.5262 44.9899 30.3519H44.9911Z" fill="#EB7525"/>
<path d="M31.2108 21.5255C35.2695 21.5988 39.3763 21.7274 43.4578 21.9089C43.465 22.3151 43.4698 22.7009 43.4734 23.0663C43.4758 23.2946 43.4842 23.5675 43.4939 23.8835C43.5275 24.9784 43.5804 26.673 43.447 28.7234C39.3679 28.852 35.2635 28.9421 31.2048 28.9938C31.2133 25.8654 31.212 23.2622 31.2108 21.5255ZM29.5306 19.8213C29.5343 21.3452 29.5415 25.4327 29.5234 30.6908C34.6782 30.6391 39.8438 30.5262 44.9938 30.3519C45.3519 26.9098 45.1644 24.2032 45.1512 23.0483C45.1416 22.2106 45.126 21.2851 45.1032 20.3068C39.9195 20.0581 34.7191 19.8946 29.5294 19.8213H29.5306Z" fill="black"/>
<path d="M29.4285 43.474C29.3888 47.0158 29.3335 50.607 29.2578 53.9962C34.9186 51.0456 38.5867 47.1649 40.9555 43.1387C37.1144 43.3033 33.2672 43.4163 29.4273 43.4752L29.4285 43.474Z" fill="#6284C1"/>
<path d="M37.7129 44.9399C35.8897 47.2956 33.6434 49.3375 30.9957 51.0465C31.0294 49.1825 31.0606 47.2006 31.087 45.1202C33.2792 45.0782 35.4943 45.0181 37.7129 44.9399ZM40.9567 43.1348C37.1156 43.2994 33.2684 43.4124 29.4285 43.4713C29.3888 47.0131 29.3335 50.6043 29.2578 53.9935C34.9186 51.0429 38.5867 47.1622 40.9555 43.136L40.9567 43.1348Z" fill="black"/>
<path d="M0.106907 20.3238C0.0852738 21.2949 0.0684478 22.2143 0.0600348 23.046C0.0480162 24.1998 -0.139474 26.9015 0.216277 30.3364C5.33861 30.5083 10.4393 30.6237 15.4907 30.6789C15.4715 25.4329 15.4787 21.3538 15.4823 19.8311C10.3984 19.9116 5.26409 20.0762 0.106907 20.3238Z" fill="#92C53F"/>
<path d="M13.8033 21.5389C13.8009 23.2731 13.8009 25.8691 13.8093 28.9819C9.83717 28.9278 5.80012 28.8365 1.76307 28.7091C1.63087 26.6648 1.68255 24.9738 1.7174 23.8825C1.72702 23.5664 1.73543 23.2924 1.73783 23.0652C1.74144 22.7071 1.74745 22.3261 1.75346 21.9271C5.79291 21.7468 9.83236 21.617 13.8021 21.5389M15.4823 19.8311C10.3984 19.9116 5.26409 20.0762 0.106907 20.3238C0.0852738 21.2949 0.0684478 22.2143 0.0600348 23.046C0.0480162 24.1998 -0.139474 26.9015 0.216277 30.3364C5.33861 30.5083 10.4393 30.6237 15.4907 30.6789C15.4715 25.4329 15.4787 21.3538 15.4823 19.8311Z" fill="black"/>
<path d="M15.4965 31.9471C10.4944 31.8918 5.44294 31.7788 0.371094 31.6094C0.800158 34.7113 1.69795 38.2844 3.52237 41.8131C7.56062 41.9945 11.5808 42.1207 15.5698 42.1892C15.5326 38.5993 15.5097 35.0947 15.4965 31.9471Z" fill="#C6D872"/>
<path d="M2.36378 33.3509C6.20132 33.4674 10.0425 33.5516 13.8271 33.6032C13.8391 35.9697 13.856 38.2712 13.8764 40.479C10.8201 40.4141 7.70605 40.3132 4.58722 40.181C3.59569 38.0789 2.85053 35.7918 2.36498 33.3509M0.371094 31.6094C0.800158 34.7113 1.69795 38.2844 3.52237 41.8131C7.56062 41.9945 11.5808 42.1207 15.5698 42.1892C15.5326 38.5993 15.5097 35.0947 15.4965 31.9471C10.4944 31.8918 5.44294 31.7788 0.371094 31.6094Z" fill="black"/>
<path d="M15.5865 43.459C11.8295 43.3953 8.04367 43.2787 4.24219 43.1152C6.58341 47.103 10.1962 50.9477 15.7548 53.891C15.6803 50.5294 15.6262 46.9696 15.5865 43.4602V43.459Z" fill="#8061A5"/>
<path d="M7.48361 44.9216C9.64816 44.9985 11.8031 45.0598 13.9292 45.1055C13.9556 47.145 13.9845 49.0884 14.0181 50.9188C11.4497 49.2314 9.26356 47.2256 7.48361 44.9216ZM4.24219 43.1152C6.58341 47.103 10.1962 50.9477 15.7548 53.891C15.6803 50.5294 15.6262 46.9696 15.5865 43.4602C11.8295 43.3965 8.04367 43.2799 4.24219 43.1164V43.1152Z" fill="black"/>
<path d="M45.0683 19.0353C44.9805 15.6942 44.8363 11.96 44.6861 9.1453C32.379 6.2849 12.8416 6.2849 0.518909 9.1453C0.368677 11.966 0.224455 15.7086 0.136719 19.0545C5.49461 18.7985 10.8285 18.6315 16.107 18.5558L16.7524 18.5462L16.75 19.1916C16.75 19.4391 16.6815 39.2696 17.0337 54.5367C18.7055 55.3372 20.5395 56.0607 22.5538 56.6868L22.6031 56.7025L22.6524 56.6868C24.5874 56.0847 26.3565 55.3948 27.9754 54.6317C28.33 39.3393 28.2578 19.4295 28.2566 19.1807L28.2542 18.5365L28.8984 18.545C34.2852 18.6135 39.6863 18.7793 45.0683 19.0365V19.0353Z" fill="#F3C018"/>
<path d="M22.6106 8.67658C30.21 8.67658 37.4139 9.32317 43.0783 10.507C43.178 12.5682 43.2706 14.949 43.3427 17.2758C38.5268 17.0643 33.6846 16.9261 28.9228 16.866L28.2786 16.8576L26.5731 16.8359L26.5804 18.5414L26.5828 19.1855C26.5828 19.379 26.6549 38.331 26.3256 53.538C25.1453 54.0536 23.9002 54.5235 22.607 54.9405C21.2441 54.5007 19.9317 54.0007 18.6913 53.4503C18.3668 38.3779 18.4317 19.3899 18.4317 19.1964L18.4341 18.551L18.4402 16.8431L16.7323 16.8684L16.0869 16.878C11.4237 16.9453 6.6499 17.0859 1.8689 17.2962C1.94101 14.9635 2.03356 12.5754 2.13331 10.5082C7.80369 9.32438 15.0124 8.67778 22.6118 8.67778M22.6118 7C14.6483 7 6.68355 7.7151 0.522818 9.1453C0.372585 11.966 0.228361 15.7086 0.140625 19.0545C5.49852 18.7985 10.8324 18.6315 16.1109 18.5558L16.7563 18.5462L16.7539 19.1916C16.7539 19.4391 16.6854 39.2696 17.0376 54.5367C18.7094 55.3372 20.5434 56.0607 22.5577 56.6868L22.607 56.7025L22.6563 56.6868C24.5913 56.0847 26.3604 55.3948 27.9793 54.6317C28.3339 39.3393 28.2618 19.4295 28.2606 19.1807L28.2582 18.5365L28.9023 18.545C34.2903 18.6135 39.6903 18.7793 45.0722 19.0365C44.9844 15.6954 44.8402 11.9612 44.69 9.1465C38.5365 7.7163 30.5753 7.0012 22.6118 7.0012V7Z" fill="black"/>
</svg>
