<svg width="192" height="64" viewBox="0 0 192 64" fill="none" xmlns="http://www.w3.org/2000/svg">
<path d="M62.8902 41.0618C62.4527 41.1257 62.0309 41.1582 61.6343 41.1582C61.0667 41.1582 60.5749 41.0847 60.1748 40.9413C59.7771 40.7979 59.4468 40.5978 59.1925 40.3435C58.9394 40.0904 58.7514 39.7867 58.6345 39.4408C58.5152 39.0912 58.4549 38.7043 58.4549 38.2885V27.6426H63.9629V24.867H58.4549V19.8242H55.2526V24.867H51.7031V27.6426H55.2526V38.7538C55.2526 39.5372 55.3719 40.2603 55.6081 40.9015C55.8455 41.5463 56.2095 42.1043 56.6892 42.5587C57.1689 43.0131 57.7788 43.3662 58.4995 43.6085C59.2178 43.8495 60.0759 43.9725 61.0522 43.9725C61.7922 43.9592 62.437 43.9062 62.9697 43.8158C63.5037 43.7242 63.9086 43.6254 64.1726 43.5193L64.234 43.4952V40.7786L64.1099 40.8123C63.7411 40.9148 63.3301 40.9979 62.8902 41.0618ZM62.9517 43.7194C62.4214 43.8098 61.7874 43.8616 61.051 43.8748C60.0808 43.8748 59.2407 43.7555 58.5296 43.5157C57.8185 43.277 57.2268 42.9335 56.7555 42.4876C56.283 42.0417 55.9311 41.5017 55.6985 40.8678C55.4659 40.235 55.349 39.5299 55.349 38.7538C55.349 39.5299 55.4659 40.2338 55.6985 40.8678C55.9311 41.5017 56.283 42.0417 56.7555 42.4876C57.228 42.9335 57.8185 43.2758 58.5296 43.5157C59.2407 43.7543 60.0808 43.8748 61.051 43.8748C61.7874 43.8616 62.4214 43.8098 62.9517 43.7194Z" fill="white"/>
<path d="M80.8165 26.5469C80.1512 25.8021 79.3545 25.2477 78.447 24.9005C77.543 24.5546 76.5584 24.3799 75.5194 24.3799C74.4154 24.3799 73.3428 24.5908 72.328 25.0078C71.3143 25.4248 70.4044 26.06 69.6234 26.8928C68.8448 27.7256 68.2121 28.7778 67.7456 30.018C67.2792 31.2582 67.043 32.7407 67.043 34.4256C67.043 36.1105 67.2864 37.6207 67.7685 38.8356C68.2506 40.0529 68.928 41.0544 69.7825 41.8113C70.6358 42.567 71.659 43.1226 72.8257 43.4613C73.9864 43.7988 75.2459 43.9699 76.5668 43.9699C77.6792 43.9699 78.735 43.8747 79.7077 43.6867C80.6815 43.4986 81.5119 43.2371 82.176 42.9117L82.2314 42.8852V40.1818L82.1001 40.23C81.295 40.5241 80.4742 40.7543 79.6619 40.9146C78.8519 41.0737 77.942 41.1557 76.9561 41.1557C75.9702 41.1557 75.1205 41.0399 74.3058 40.811C73.4946 40.5832 72.7799 40.2144 72.1797 39.7154C71.5795 39.2164 71.0998 38.5572 70.7527 37.7545C70.414 36.9735 70.2381 36.0117 70.2284 34.8956H82.9473L82.951 34.8004C82.9642 34.3954 82.9702 34.1568 82.9702 34.0507V33.653C82.9702 32.0211 82.7762 30.6013 82.3941 29.4335C82.0109 28.262 81.4806 27.2917 80.8165 26.5481V26.5469ZM79.4256 30.1904C79.2364 29.5636 78.958 29.0164 78.5916 28.5512C78.2252 28.086 77.7732 27.7208 77.2369 27.4557C76.6994 27.1905 76.0787 27.0579 75.3712 27.0579C74.6637 27.0579 74.0322 27.1941 73.4368 27.4653C72.8414 27.7365 72.3207 28.1053 71.876 28.5705C71.4313 29.0357 71.0709 29.5829 70.7961 30.2096C70.5213 30.8376 70.3514 31.5065 70.2851 32.2164C70.3502 31.5053 70.5201 30.8364 70.7961 30.2096C71.0709 29.5829 71.4313 29.0369 71.876 28.5705C72.3207 28.1053 72.8414 27.7365 73.4368 27.4653C74.0322 27.1941 74.677 27.0579 75.3712 27.0579C76.0654 27.0579 76.6994 27.1905 77.2369 27.4557C77.7732 27.7208 78.2252 28.086 78.5916 28.5512C78.958 29.0164 79.2364 29.5636 79.4256 30.1904ZM70.3935 32.12C70.4647 31.4619 70.6298 30.8328 70.8853 30.2506C71.1541 29.6372 71.512 29.0948 71.9459 28.6404C72.3798 28.186 72.8944 27.8221 73.4766 27.5569C74.0563 27.293 74.6938 27.158 75.37 27.158C76.0461 27.158 76.6704 27.2881 77.1923 27.5448C77.713 27.8028 78.1577 28.1619 78.5133 28.6139C78.87 29.0671 79.146 29.6082 79.3304 30.2205C79.5076 30.8074 79.6016 31.4462 79.61 32.1212H70.3923L70.3935 32.12ZM82.135 42.8261C81.4757 43.1491 80.661 43.4046 79.6908 43.5927C78.7206 43.7795 77.6804 43.8735 76.568 43.8735C75.2495 43.8735 74.0117 43.7047 72.8546 43.3697C71.6976 43.0334 70.6961 42.4911 69.85 41.7402C70.6961 42.4899 71.6976 43.0334 72.8546 43.3697C74.0117 43.7059 75.2495 43.8735 76.568 43.8735C77.6792 43.8735 78.7206 43.7795 79.6908 43.5927C80.661 43.4046 81.4745 43.1503 82.135 42.8261ZM82.8726 34.0507C82.8726 34.1604 82.8654 34.4099 82.8533 34.7968C82.8666 34.4087 82.8726 34.1604 82.8726 34.0507Z" fill="white"/>
<path d="M96.441 41.0618C96.0035 41.1257 95.5816 41.1582 95.1851 41.1582C94.6174 41.1582 94.1257 41.0847 93.7256 40.9413C93.3278 40.7979 92.9976 40.5978 92.7433 40.3435C92.4902 40.0904 92.3022 39.7867 92.1853 39.4408C92.0659 39.0912 92.0057 38.7043 92.0057 38.2885V27.6426H97.5136V24.867H92.0057V19.8242H88.8033V24.867H85.2539V27.6426H88.8033V38.7538C88.8033 39.5372 88.9227 40.2603 89.1589 40.9015C89.3963 41.5463 89.7603 42.1043 90.24 42.5587C90.7197 43.0131 91.3295 43.3662 92.0503 43.6085C92.7686 43.8495 93.6267 43.9725 94.603 43.9725C95.343 43.9592 95.9878 43.9062 96.5205 43.8158C97.0544 43.7242 97.4594 43.6254 97.7234 43.5193L97.7848 43.4952V40.7786L97.6607 40.8123C97.2919 40.9148 96.8809 40.9979 96.441 41.0618ZM96.5024 43.7194C95.9721 43.8098 95.3382 43.8616 94.6018 43.8748C93.6315 43.8748 92.7915 43.7555 92.0804 43.5157C91.3693 43.277 90.7775 42.9335 90.3063 42.4876C89.8338 42.0417 89.4819 41.5017 89.2493 40.8678C89.0167 40.235 88.8998 39.5299 88.8998 38.7538C88.8998 39.5299 89.0167 40.2338 89.2493 40.8678C89.4819 41.5017 89.8338 42.0417 90.3063 42.4876C90.7787 42.9335 91.3693 43.2758 92.0804 43.5157C92.7915 43.7543 93.6315 43.8748 94.6018 43.8748C95.3382 43.8616 95.9721 43.8098 96.5024 43.7194Z" fill="white"/>
<path d="M111.509 24.3915C111.368 24.3855 111.233 24.3818 111.107 24.3818C110.391 24.3818 109.697 24.471 109.045 24.647C108.394 24.823 107.785 25.0712 107.237 25.3834C106.69 25.6956 106.191 26.0656 105.753 26.4838C105.358 26.861 105.014 27.2708 104.73 27.7035L104.182 24.9447L104.166 24.8651H101.66V43.4849H104.862V30.5756C105.176 30.0682 105.571 29.621 106.038 29.2474C106.514 28.8665 107.054 28.5423 107.645 28.2808C108.237 28.0205 108.88 27.8228 109.553 27.6963C110.231 27.5685 110.93 27.5046 111.63 27.5046H111.961V24.43L111.876 24.4192C111.771 24.4059 111.65 24.3963 111.509 24.3891V24.3915ZM111.63 27.4082C110.919 27.4082 110.221 27.4733 109.535 27.6022C108.849 27.7312 108.207 27.9289 107.606 28.194C108.207 27.9289 108.849 27.7324 109.535 27.6022C110.22 27.4733 110.919 27.4082 111.63 27.4082Z" fill="white"/>
<path d="M128.242 28.0438C127.717 26.9434 126.846 26.0479 125.65 25.3814C124.458 24.7174 122.905 24.3799 121.036 24.3799C120.52 24.3799 119.994 24.4064 119.475 24.4582C118.955 24.51 118.455 24.586 117.991 24.6824C117.524 24.78 117.073 24.8981 116.652 25.0343C116.229 25.1705 115.855 25.32 115.542 25.4767L115.488 25.5032V28.227L115.62 28.1764C116.427 27.8691 117.246 27.6256 118.059 27.4533C118.87 27.2809 119.747 27.1941 120.666 27.1941C121.897 27.1941 122.886 27.3954 123.605 27.7931C124.322 28.1897 124.85 28.6946 125.176 29.2961C125.324 29.5805 125.432 29.9168 125.495 30.2928C125.559 30.6737 125.59 31.1184 125.59 31.615V32.7828C124.967 32.5575 124.25 32.367 123.457 32.2164C122.64 32.0609 121.741 31.9753 120.782 31.9621C119.768 31.9621 118.828 32.1007 117.988 32.3743C117.145 32.6491 116.412 33.0468 115.811 33.5566C115.208 34.0676 114.733 34.6992 114.398 35.4332C114.064 36.1672 113.895 37.0096 113.895 37.9365C113.895 38.8633 114.048 39.7299 114.348 40.4747C114.649 41.2219 115.078 41.8631 115.622 42.3802C116.165 42.8984 116.823 43.2974 117.577 43.5649C118.327 43.8325 119.164 43.9687 120.063 43.9687C120.727 43.9687 121.361 43.8964 121.948 43.753C122.535 43.6095 123.083 43.4143 123.577 43.1732C124.073 42.9322 124.516 42.6538 124.896 42.3464C125.238 42.0692 125.531 41.786 125.767 41.5016L126.075 43.401L126.088 43.483H128.79V31.0895C128.79 30.4929 128.747 29.9361 128.662 29.4347C128.577 28.9297 128.433 28.4608 128.237 28.0426L128.242 28.0438ZM125.264 29.2491C124.927 28.6284 124.391 28.1149 123.653 27.7076C122.916 27.3002 121.92 27.0965 120.667 27.0965C119.736 27.0965 118.86 27.1845 118.039 27.358C117.219 27.5328 116.4 27.7751 115.587 28.086C116.401 27.7751 117.219 27.5328 118.039 27.358C118.86 27.1833 119.736 27.0965 120.667 27.0965C121.92 27.0965 122.917 27.3002 123.653 27.7076C124.391 28.1149 124.927 28.6284 125.264 29.2491C125.419 29.5468 125.529 29.889 125.594 30.2771C125.659 30.6652 125.69 31.1112 125.69 31.615C125.69 31.1112 125.658 30.6652 125.594 30.2771C125.529 29.889 125.419 29.5468 125.264 29.2491ZM125.593 38.944C125.452 39.0826 125.239 39.2731 124.961 39.5117C124.665 39.7648 124.299 40.0227 123.874 40.2782C123.451 40.5313 122.96 40.7543 122.416 40.9387C121.874 41.1219 121.281 41.2147 120.651 41.2147C120.174 41.2147 119.719 41.1472 119.3 41.0158C118.883 40.8845 118.519 40.6832 118.215 40.4156C117.913 40.1481 117.671 39.8046 117.497 39.3936C117.322 38.9814 117.234 38.4921 117.234 37.9389C117.234 36.8517 117.585 36.037 118.277 35.5151C118.977 34.9872 119.963 34.7209 121.21 34.7209C122.113 34.7341 122.952 34.8113 123.702 34.9523C124.424 35.0873 125.059 35.2307 125.591 35.3765V38.9464L125.593 38.944ZM126.175 43.3866L125.845 41.3509H125.767C125.522 41.6607 125.212 41.968 124.837 42.2717C124.462 42.5754 124.028 42.8466 123.538 43.0865C123.046 43.3263 122.51 43.5167 121.927 43.6589C121.345 43.8012 120.725 43.8723 120.065 43.8723C119.173 43.8723 118.355 43.7397 117.613 43.4745C116.869 43.2094 116.229 42.8213 115.693 42.3115C115.156 41.8005 114.739 41.1774 114.442 40.4397C114.144 39.7021 113.996 38.8693 113.996 37.9377C113.996 38.8681 114.144 39.7021 114.442 40.4397C114.739 41.1774 115.156 41.8005 115.693 42.3115C116.229 42.8225 116.869 43.2106 117.613 43.4745C118.356 43.7397 119.173 43.8723 120.065 43.8723C120.725 43.8723 121.345 43.8012 121.927 43.6589C122.51 43.5167 123.046 43.3263 123.538 43.0865C124.029 42.8478 124.462 42.5754 124.837 42.2717C125.212 41.968 125.522 41.6607 125.767 41.3509H125.845L126.175 43.3866Z" fill="white"/>
<path d="M147.511 24.8658H147.438L147.417 24.9357L146.835 26.9015C146.734 26.7424 146.578 26.5447 146.373 26.3133C146.117 26.0241 145.768 25.7276 145.337 25.4347C144.905 25.1406 144.381 24.8911 143.78 24.6947C143.178 24.4982 142.463 24.3922 141.656 24.3789C140.6 24.3789 139.564 24.5874 138.574 24.9972C137.583 25.4082 136.69 26.0397 135.921 26.8738C135.154 27.7066 134.527 28.772 134.059 30.0387C133.592 31.3042 133.355 32.8192 133.355 34.5427C133.355 35.7865 133.483 36.8978 133.738 37.8451C133.991 38.7936 134.331 39.6276 134.746 40.3231C135.163 41.0209 135.654 41.6103 136.202 42.0731C136.749 42.5359 137.33 42.9119 137.931 43.1927C138.53 43.4724 139.137 43.6736 139.737 43.7918C140.335 43.9087 140.902 43.9677 141.423 43.9677C142.556 43.9677 143.577 43.7797 144.458 43.4073C145.291 43.0553 146.037 42.5371 146.678 41.8646V44.1413C146.678 46.1709 146.109 47.6991 144.986 48.6838C143.859 49.6709 142.21 50.1723 140.086 50.1723C139.536 50.1723 139.027 50.153 138.572 50.1145C138.12 50.0759 137.669 50.0144 137.234 49.9313C136.798 49.8481 136.37 49.7444 135.964 49.6227C135.554 49.501 135.126 49.3491 134.693 49.1707L134.558 49.1153V51.8608L134.609 51.8886C135.159 52.1887 135.924 52.4502 136.884 52.6647C137.843 52.8781 138.947 52.9865 140.164 52.9865C141.601 52.9865 142.931 52.8118 144.118 52.4683C145.309 52.1236 146.342 51.5921 147.189 50.8882C148.038 50.1832 148.705 49.2877 149.175 48.2246C149.644 47.1628 149.882 45.8997 149.882 44.4715V24.8634H147.515L147.511 24.8658ZM146.676 39.1793C146.073 39.8012 145.368 40.299 144.58 40.6617C143.783 41.0293 142.915 41.2149 142.003 41.2149C141.446 41.2149 140.848 41.1221 140.228 40.9377C139.612 40.7557 139.035 40.411 138.513 39.9133C137.99 39.4155 137.551 38.7068 137.209 37.8065C136.865 36.9038 136.692 35.7214 136.692 34.292C136.692 33.2326 136.808 32.2528 137.037 31.379C137.266 30.5088 137.61 29.7531 138.06 29.1324C138.507 28.5141 139.07 28.0248 139.732 27.6777C140.394 27.3318 141.171 27.1558 142.043 27.1558C142.624 27.1558 143.167 27.2426 143.659 27.4125C144.153 27.5836 144.6 27.7958 144.986 28.0428C145.372 28.2887 145.715 28.5623 146.007 28.854C146.289 29.136 146.514 29.3903 146.676 29.6121V39.1793ZM146.076 28.7853C145.778 28.4876 145.432 28.2128 145.038 27.9609C144.644 27.709 144.194 27.4957 143.69 27.3209C143.187 27.1461 142.637 27.0594 142.042 27.0594C141.15 27.0594 140.364 27.2377 139.685 27.5921C139.007 27.9476 138.438 28.4418 137.979 29.0757C138.438 28.443 139.007 27.9476 139.685 27.5921C140.364 27.2365 141.15 27.0594 142.042 27.0594C142.636 27.0594 143.185 27.1461 143.69 27.3209C144.195 27.4957 144.644 27.709 145.038 27.9609C145.432 28.2128 145.778 28.4876 146.076 28.7853C146.373 29.083 146.606 29.3481 146.773 29.5807C146.605 29.3481 146.372 29.083 146.076 28.7853ZM141.421 43.8737C140.904 43.8737 140.347 43.8159 139.753 43.6989C139.158 43.582 138.563 43.3856 137.969 43.1072C137.374 42.8288 136.806 42.4612 136.263 42.002C135.719 41.5428 135.24 40.9679 134.827 40.2761C134.414 39.5842 134.08 38.7671 133.828 37.8222C134.08 38.7659 134.412 39.5842 134.827 40.2761C135.24 40.9679 135.719 41.5428 136.263 42.002C136.806 42.4612 137.374 42.83 137.969 43.1072C138.563 43.3856 139.159 43.582 139.753 43.6989C140.347 43.8159 140.904 43.8737 141.421 43.8737ZM149.779 44.4739C149.779 45.8961 149.547 47.1339 149.081 48.1885C148.616 49.2419 147.963 50.1181 147.123 50.8159C146.282 51.5137 145.271 52.0344 144.088 52.3767C142.906 52.719 141.596 52.8901 140.161 52.8901C138.947 52.8901 137.859 52.7841 136.904 52.5695C137.861 52.7829 138.947 52.8901 140.161 52.8901C141.597 52.8901 142.906 52.719 144.088 52.3767C145.272 52.0344 146.283 51.5137 147.123 50.8159C147.963 50.1181 148.616 49.2419 149.081 48.1885C149.547 47.1351 149.779 45.8973 149.779 44.4739Z" fill="white"/>
<path d="M169.77 27.0912C169.013 26.2307 168.076 25.5569 166.981 25.0881C165.888 24.6193 164.642 24.3818 163.278 24.3818C161.913 24.3818 160.709 24.6193 159.622 25.0881C158.534 25.5569 157.596 26.2307 156.833 27.0912C156.072 27.9506 155.475 28.9919 155.059 30.1887C154.643 31.3831 154.434 32.7306 154.434 34.1961C154.434 35.6617 154.637 36.9899 155.04 38.1843C155.442 39.3811 156.033 40.42 156.796 41.2721C157.559 42.1254 158.496 42.7967 159.584 43.2656C160.671 43.7344 161.919 43.9719 163.298 43.9719C164.677 43.9719 165.864 43.7344 166.944 43.2656C168.025 42.7967 168.96 42.1254 169.722 41.2721C170.484 40.42 171.08 39.3811 171.496 38.1843C171.912 36.9899 172.122 35.6472 172.122 34.1961C172.122 32.745 171.918 31.3843 171.515 30.1887C171.113 28.9931 170.525 27.9506 169.77 27.0912ZM168.371 37.1827C168.097 38.0517 167.713 38.7953 167.225 39.3895C166.739 39.9825 166.157 40.4405 165.494 40.749C164.832 41.0576 164.092 41.2155 163.296 41.2155C162.499 41.2155 161.755 41.0588 161.088 40.749C160.419 40.4405 159.831 39.9825 159.338 39.3883C158.844 38.7929 158.455 38.0505 158.182 37.1815C157.908 36.3101 157.77 35.3062 157.77 34.1949C157.77 33.0837 157.908 32.0604 158.182 31.189C158.454 30.3189 158.84 29.5728 159.328 28.9714C159.814 28.3724 160.4 27.9108 161.067 27.6022C161.736 27.2925 162.48 27.1358 163.275 27.1358C164.071 27.1358 164.814 27.2925 165.483 27.6022C166.151 27.9108 166.737 28.3724 167.222 28.9714C167.709 29.5728 168.095 30.3189 168.369 31.189C168.642 32.0616 168.781 33.0728 168.781 34.1949C168.781 35.317 168.642 36.3089 168.369 37.1815L168.371 37.1827ZM168.882 34.1961C168.882 33.0584 168.743 32.0472 168.465 31.1613C168.187 30.2755 167.799 29.5258 167.301 28.9123C166.803 28.2989 166.211 27.8324 165.527 27.5155C164.841 27.1985 164.091 27.0406 163.276 27.0406C162.462 27.0406 161.712 27.1997 161.026 27.5155C160.34 27.8324 159.75 28.2977 159.252 28.9123C158.754 29.527 158.366 30.2767 158.088 31.1613C157.809 32.0472 157.671 33.0596 157.671 34.1961C157.671 33.0584 157.809 32.0472 158.088 31.1613C158.366 30.2755 158.753 29.5258 159.252 28.9123C159.75 28.2989 160.342 27.8324 161.026 27.5155C161.711 27.1985 162.462 27.0406 163.276 27.0406C164.091 27.0406 164.841 27.1997 165.527 27.5155C166.211 27.8324 166.803 28.2977 167.301 28.9123C167.799 29.527 168.187 30.2767 168.465 31.1613C168.743 32.0472 168.882 33.0596 168.882 34.1961ZM171.403 38.1529C170.99 39.3425 170.404 40.3609 169.649 41.207C168.892 42.0543 167.977 42.71 166.904 43.1752C165.83 43.6404 164.629 43.873 163.297 43.873C161.965 43.873 160.701 43.6404 159.622 43.1752C158.542 42.71 157.625 42.0531 156.868 41.207C156.111 40.3609 155.533 39.3425 155.133 38.1529C155.533 39.3425 156.113 40.3609 156.868 41.207C157.625 42.0543 158.542 42.71 159.622 43.1752C160.702 43.6404 161.927 43.873 163.297 43.873C164.667 43.873 165.83 43.6404 166.904 43.1752C167.977 42.71 168.892 42.0531 169.649 41.207C170.405 40.3609 170.99 39.3425 171.403 38.1529Z" fill="white"/>
<path d="M191.518 27.9438C191.198 27.1001 190.755 26.4059 190.205 25.8804C189.653 25.3549 188.995 24.9692 188.246 24.733C187.502 24.498 186.696 24.3799 185.85 24.3799C185.134 24.3799 184.464 24.4594 183.857 24.6161C183.25 24.7728 182.685 24.9946 182.175 25.2754C181.667 25.5562 181.2 25.8876 180.789 26.2589C180.412 26.5999 180.061 26.9699 179.746 27.3604L179.196 24.9427L179.179 24.8668H176.676V43.4866H179.878V30.329C180.561 29.3491 181.387 28.5681 182.332 28.0065C183.282 27.4424 184.276 27.1568 185.288 27.1568C186.43 27.1568 187.308 27.4978 187.901 28.1704C188.497 28.8465 188.798 29.9806 188.798 31.5378V43.4854H192V31.0533C192 29.8324 191.839 28.7862 191.518 27.945V27.9438ZM187.975 28.1041C187.36 27.4062 186.465 27.0567 185.288 27.0567C184.254 27.0567 183.252 27.3448 182.283 27.9197C181.312 28.4946 180.48 29.2864 179.78 30.2952C180.478 29.2864 181.312 28.4946 182.283 27.9197C183.253 27.3448 184.254 27.0567 185.288 27.0567C186.465 27.0567 187.36 27.4062 187.975 28.1041C188.588 28.8019 188.896 29.9469 188.896 31.5366C188.896 29.9457 188.588 28.8019 187.975 28.1041Z" fill="white"/>
<path d="M43.758 32.5735C43.2446 36.0675 42.2382 39.2951 40.7654 42.1732C36.858 42.3468 32.9277 42.4649 29.0781 42.5264C29.1095 39.4867 29.1324 36.2471 29.1468 32.8892C33.9871 32.8398 38.8997 32.7326 43.758 32.5723" fill="#E3262B"/>
<path d="M29.1611 20.9084C34.0893 20.9807 39.0995 21.1374 44.0639 21.3737C44.0832 22.2788 44.0976 23.1116 44.1061 23.854C44.1085 24.065 44.1169 24.3289 44.1266 24.6326C44.1675 25.9608 44.2362 28.1628 43.9735 30.83C39.0404 30.9951 34.058 31.1036 29.1562 31.1542C29.1719 26.326 29.1671 22.5379 29.1635 20.9072" fill="#EB7525"/>
<path d="M39.7715 43.9502C38.5807 45.8979 37.1393 47.6889 35.4845 49.2774C33.5971 51.0876 31.3854 52.6786 28.9062 54.0092C28.9689 51.0852 29.022 47.8094 29.0629 44.2599C32.5883 44.2045 36.1871 44.0996 39.7727 43.9502" fill="#6284C1"/>
<path d="M14.8076 20.9199C14.804 22.5506 14.7992 26.3339 14.8161 31.1452C10.012 31.0898 5.09337 30.9789 0.191651 30.8162C-0.0698867 28.1538 -0.00118906 25.9578 0.0397892 24.6309C0.0494311 24.3259 0.0578676 24.0632 0.0602781 23.8523C0.0687148 23.1159 0.0819739 22.2891 0.101258 21.3912C5.03432 21.1574 9.97943 20.9983 14.8076 20.9199Z" fill="#92C53F"/>
<path d="M0.403548 32.5596C5.23055 32.7187 10.078 32.8259 14.8219 32.8802C14.8363 36.2368 14.8604 39.4753 14.8906 42.5125C11.1254 42.445 7.25656 42.3244 3.38652 42.1509C1.91733 39.2752 0.914572 36.05 0.402344 32.5596" fill="#C6D872"/>
<path d="M4.38281 43.9287C7.92502 44.0782 11.4636 44.1842 14.9118 44.2457C14.9528 47.7578 15.0046 51.0035 15.0673 53.9021C12.6351 52.5763 10.4633 50.9963 8.60839 49.2029C6.9789 47.6276 5.55913 45.8547 4.38402 43.9287" fill="#8061A5"/>
<path d="M22.0884 8.00241V8.24346C30.1707 8.24346 37.8216 8.97866 43.661 10.3153C43.802 13.0078 43.9358 16.456 44.0214 19.6354C38.7798 19.3871 33.4924 19.228 28.3038 19.1618L27.6675 19.1533L27.4228 19.1497V19.3944L27.4264 20.0307C27.4264 20.226 27.4999 39.7111 27.1516 54.8851C25.5727 55.6215 23.8697 56.276 22.0836 56.8328C20.2275 56.2543 18.4582 55.5685 16.8215 54.7935C16.478 39.7485 16.5443 20.238 16.5455 20.0416L16.5479 19.404V19.1581L16.3032 19.1618L15.6656 19.1714C10.5795 19.2449 5.35962 19.4064 0.144531 19.6523C0.230103 16.468 0.363884 13.0126 0.504898 10.3129C6.35153 8.97625 14.006 8.24105 22.0884 8.24105V8" fill="#F3C018"/>
</svg>
