<svg width="192" height="64" viewBox="0 0 192 64" fill="none" xmlns="http://www.w3.org/2000/svg">
<path d="M63.2532 40.2832C62.8169 40.3469 62.3963 40.3794 62.0009 40.3794C61.4348 40.3794 60.9445 40.3061 60.5455 40.1631C60.1488 40.02 59.8195 39.8205 59.5659 39.5669C59.3136 39.3146 59.1261 39.0117 59.0095 38.6668C58.8905 38.3182 58.8304 37.9324 58.8304 37.5178V26.9019H64.3229V24.134H58.8304V19.1055H55.6371V24.134H52.0977V26.9019H55.6371V37.9817C55.6371 38.7629 55.7561 39.484 55.9916 40.1234C56.2284 40.7664 56.5914 41.3228 57.0697 41.7759C57.548 42.229 58.1562 42.5812 58.8749 42.8227C59.5912 43.0631 60.4469 43.1857 61.4204 43.1857C62.1583 43.1725 62.8013 43.1196 63.3325 43.0295C63.865 42.9381 64.2688 42.8396 64.532 42.7338L64.5933 42.7098V40.0008L64.4695 40.0345C64.1017 40.1366 63.6919 40.2195 63.2532 40.2832ZM63.3145 42.9333C62.7857 43.0235 62.1535 43.0751 61.4192 43.0884C60.4517 43.0884 59.614 42.9694 58.9049 42.7302C58.1958 42.4922 57.6057 42.1497 57.1358 41.705C56.6647 41.2603 56.3137 40.7219 56.0818 40.0897C55.8498 39.4588 55.7332 38.7557 55.7332 37.9817C55.7332 38.7557 55.8498 39.4576 56.0818 40.0897C56.3137 40.7219 56.6647 41.2603 57.1358 41.705C57.6069 42.1497 58.1958 42.491 58.9049 42.7302C59.614 42.9682 60.4517 43.0884 61.4192 43.0884C62.1535 43.0751 62.7857 43.0235 63.3145 42.9333Z" fill="black"/>
<path d="M81.1292 25.8103C80.4658 25.0676 79.6714 24.5147 78.7664 24.1686C77.865 23.8237 76.8831 23.6494 75.8471 23.6494C74.7462 23.6494 73.6766 23.8597 72.6646 24.2756C71.6539 24.6914 70.7465 25.3248 69.9677 26.1553C69.1913 26.9857 68.5603 28.035 68.0952 29.2717C67.6301 30.5084 67.3945 31.9866 67.3945 33.6668C67.3945 35.347 67.6373 36.8529 68.118 38.0644C68.5988 39.2782 69.2742 40.277 70.1263 41.0317C70.9772 41.7853 71.9976 42.3394 73.161 42.6771C74.3184 43.0136 75.5743 43.1843 76.8915 43.1843C78.0008 43.1843 79.0537 43.0893 80.0236 42.9018C80.9946 42.7143 81.8227 42.4535 82.4849 42.129L82.5402 42.1026V39.4068L82.4092 39.4549C81.6064 39.7482 80.7879 39.9777 79.9779 40.1376C79.1702 40.2962 78.2628 40.3779 77.2797 40.3779C76.2966 40.3779 75.4493 40.2626 74.6369 40.0342C73.828 39.8071 73.1153 39.4393 72.5168 38.9417C71.9183 38.4442 71.4399 37.7868 71.0938 36.9863C70.7561 36.2075 70.5806 35.2485 70.571 34.1355H83.2541L83.2577 34.0406C83.2709 33.6368 83.277 33.3988 83.277 33.293V32.8964C83.277 31.2691 83.0835 29.8534 82.7025 28.6888C82.3203 27.5206 81.7915 26.5531 81.1292 25.8115V25.8103ZM79.7423 29.4435C79.5536 28.8186 79.276 28.2729 78.9106 27.809C78.5453 27.3451 78.0946 26.9809 77.5598 26.7165C77.0237 26.4521 76.4048 26.3199 75.6993 26.3199C74.9938 26.3199 74.364 26.4557 73.7703 26.7261C73.1766 26.9966 72.6574 27.3643 72.2139 27.8282C71.7705 28.2922 71.4111 28.8378 71.1371 29.4628C70.8631 30.0889 70.6936 30.7559 70.6275 31.4638C70.6924 30.7547 70.8619 30.0877 71.1371 29.4628C71.4111 28.8378 71.7705 28.2934 72.2139 27.8282C72.6574 27.3643 73.1766 26.9966 73.7703 26.7261C74.364 26.4557 75.007 26.3199 75.6993 26.3199C76.3916 26.3199 77.0237 26.4521 77.5598 26.7165C78.0946 26.9809 78.5453 27.3451 78.9106 27.809C79.276 28.2729 79.5536 28.8186 79.7423 29.4435ZM70.7357 31.3677C70.8066 30.7115 70.9712 30.0841 71.226 29.5036C71.494 28.8919 71.851 28.351 72.2836 27.8979C72.7163 27.4449 73.2295 27.0819 73.81 26.8175C74.3881 26.5543 75.0239 26.4197 75.6981 26.4197C76.3723 26.4197 76.9949 26.5495 77.5153 26.8055C78.0345 27.0627 78.478 27.4208 78.8325 27.8715C79.1883 28.3234 79.4635 28.863 79.6474 29.4736C79.824 30.0589 79.9178 30.6958 79.9262 31.3689H70.7345L70.7357 31.3677ZM82.4441 42.0437C81.7867 42.3658 80.9742 42.6206 80.0067 42.8081C79.0392 42.9944 78.002 43.0881 76.8927 43.0881C75.5779 43.0881 74.3436 42.9198 73.1898 42.5857C72.0361 42.2504 71.0373 41.7096 70.1936 40.9608C71.0373 41.7084 72.0361 42.2504 73.1898 42.5857C74.3436 42.921 75.5779 43.0881 76.8927 43.0881C78.0008 43.0881 79.0392 42.9944 80.0067 42.8081C80.9742 42.6206 81.7855 42.367 82.4441 42.0437ZM83.1796 33.293C83.1796 33.4024 83.1724 33.6512 83.1604 34.037C83.1736 33.65 83.1796 33.4024 83.1796 33.293Z" fill="black"/>
<path d="M96.7102 40.2832C96.274 40.3469 95.8533 40.3794 95.4579 40.3794C94.8918 40.3794 94.4015 40.3061 94.0025 40.1631C93.6059 40.02 93.2766 39.8205 93.023 39.5669C92.7706 39.3146 92.5831 39.0117 92.4665 38.6668C92.3475 38.3182 92.2874 37.9324 92.2874 37.5178V26.9019H97.7799V24.134H92.2874V19.1055H89.0941V24.134H85.5547V26.9019H89.0941V37.9817C89.0941 38.7629 89.2131 39.484 89.4487 40.1234C89.6854 40.7664 90.0484 41.3228 90.5267 41.7759C91.0051 42.229 91.6132 42.5812 92.3319 42.8227C93.0482 43.0631 93.9039 43.1857 94.8774 43.1857C95.6154 43.1725 96.2583 43.1196 96.7896 43.0295C97.322 42.9381 97.7258 42.8396 97.989 42.7338L98.0503 42.7098V40.0008L97.9265 40.0345C97.5587 40.1366 97.1489 40.2195 96.7102 40.2832ZM96.7715 42.9333C96.2427 43.0235 95.6106 43.0751 94.8762 43.0884C93.9087 43.0884 93.071 42.9694 92.362 42.7302C91.6529 42.4922 91.0628 42.1497 90.5928 41.705C90.1217 41.2603 89.7708 40.7219 89.5388 40.0897C89.3069 39.4588 89.1903 38.7557 89.1903 37.9817C89.1903 38.7557 89.3069 39.4576 89.5388 40.0897C89.7708 40.7219 90.1217 41.2603 90.5928 41.705C91.064 42.1497 91.6529 42.491 92.362 42.7302C93.071 42.9682 93.9087 43.0884 94.8762 43.0884C95.6106 43.0751 96.2427 43.0235 96.7715 42.9333Z" fill="black"/>
<path d="M111.736 23.66C111.595 23.654 111.46 23.6504 111.334 23.6504C110.62 23.6504 109.928 23.7393 109.278 23.9148C108.629 24.0903 108.022 24.3379 107.475 24.6491C106.929 24.9604 106.432 25.3294 105.996 25.7464C105.601 26.1226 105.259 26.5312 104.975 26.9627L104.428 24.2117L104.413 24.1323H101.914V42.6997H105.107V29.8267C105.42 29.3207 105.814 28.8748 106.279 28.5023C106.754 28.1225 107.292 27.7992 107.882 27.5384C108.473 27.2788 109.113 27.0817 109.785 26.9555C110.46 26.8281 111.157 26.7644 111.856 26.7644H112.186V23.6985L112.101 23.6877C111.996 23.6744 111.876 23.6648 111.736 23.6576V23.66ZM111.856 26.6682C111.147 26.6682 110.451 26.7331 109.767 26.8617C109.083 26.9903 108.442 27.1874 107.843 27.4518C108.442 27.1874 109.083 26.9915 109.767 26.8617C110.45 26.7331 111.147 26.6682 111.856 26.6682Z" fill="black"/>
<path d="M128.424 27.303C127.901 26.2057 127.032 25.3128 125.84 24.6481C124.651 23.9859 123.102 23.6494 121.238 23.6494C120.724 23.6494 120.2 23.6759 119.682 23.7275C119.164 23.7792 118.665 23.8549 118.202 23.9511C117.736 24.0484 117.286 24.1662 116.867 24.302C116.445 24.4378 116.073 24.5869 115.76 24.7431L115.706 24.7695V27.4857L115.838 27.4352C116.642 27.1288 117.46 26.886 118.27 26.7141C119.078 26.5423 119.953 26.4557 120.869 26.4557C122.097 26.4557 123.083 26.6564 123.8 27.053C124.516 27.4485 125.042 27.952 125.366 28.5518C125.514 28.8354 125.622 29.1707 125.685 29.5457C125.749 29.9255 125.78 30.3689 125.78 30.8641V32.0287C125.159 31.804 124.443 31.6141 123.653 31.4638C122.838 31.3088 121.941 31.2235 120.986 31.2102C119.974 31.2102 119.036 31.3485 118.199 31.6213C117.359 31.8953 116.628 32.2919 116.028 32.8003C115.427 33.3099 114.954 33.9396 114.62 34.6716C114.287 35.4035 114.117 36.2436 114.117 37.1678C114.117 38.092 114.27 38.9562 114.569 39.6989C114.87 40.444 115.297 41.0834 115.839 41.599C116.381 42.1158 117.038 42.5136 117.789 42.7804C118.538 43.0472 119.372 43.1831 120.268 43.1831C120.93 43.1831 121.563 43.1109 122.148 42.9679C122.733 42.8249 123.28 42.6302 123.773 42.3898C124.267 42.1495 124.709 41.8718 125.088 41.5654C125.429 41.2889 125.721 41.0065 125.957 40.7229L126.263 42.617L126.276 42.6987H128.971V30.3401C128.971 29.7452 128.928 29.1899 128.843 28.69C128.758 28.1864 128.615 27.7189 128.419 27.3018L128.424 27.303ZM125.454 28.5049C125.119 27.8859 124.584 27.3739 123.849 26.9677C123.113 26.5615 122.12 26.3584 120.87 26.3584C119.943 26.3584 119.069 26.4461 118.25 26.6192C117.432 26.7934 116.616 27.035 115.805 27.3451C116.617 27.035 117.432 26.7934 118.25 26.6192C119.069 26.4449 119.943 26.3584 120.87 26.3584C122.12 26.3584 123.114 26.5615 123.849 26.9677C124.584 27.3739 125.119 27.8859 125.454 28.5049C125.609 28.8017 125.719 29.1431 125.784 29.5301C125.848 29.9171 125.88 30.3617 125.88 30.8641C125.88 30.3617 125.847 29.9171 125.784 29.5301C125.719 29.1431 125.609 28.8017 125.454 28.5049ZM125.782 38.1725C125.642 38.3108 125.43 38.5007 125.153 38.7386C124.857 38.991 124.493 39.2482 124.068 39.503C123.647 39.7554 123.157 39.9777 122.614 40.1616C122.075 40.3443 121.483 40.4368 120.855 40.4368C120.379 40.4368 119.926 40.3695 119.507 40.2385C119.092 40.1075 118.729 39.9068 118.426 39.64C118.124 39.3732 117.883 39.0307 117.71 38.6208C117.535 38.2098 117.448 37.7219 117.448 37.1702C117.448 36.0861 117.797 35.2737 118.487 34.7533C119.185 34.2269 120.168 33.9613 121.412 33.9613C122.313 33.9745 123.149 34.0514 123.897 34.192C124.617 34.3266 125.25 34.4697 125.781 34.6151V38.1749L125.782 38.1725ZM126.363 42.6026L126.034 40.5726H125.957C125.711 40.8815 125.403 41.188 125.029 41.4908C124.655 41.7937 124.222 42.0641 123.733 42.3033C123.243 42.5425 122.708 42.7324 122.128 42.8742C121.547 43.016 120.928 43.0869 120.271 43.0869C119.381 43.0869 118.565 42.9547 117.825 42.6903C117.083 42.4259 116.445 42.0389 115.91 41.5305C115.376 41.0209 114.96 40.3996 114.663 39.664C114.366 38.9285 114.218 38.098 114.218 37.169C114.218 38.0968 114.366 38.9285 114.663 39.664C114.96 40.3996 115.376 41.0209 115.91 41.5305C116.445 42.0401 117.083 42.4271 117.825 42.6903C118.566 42.9547 119.381 43.0869 120.271 43.0869C120.928 43.0869 121.547 43.016 122.128 42.8742C122.708 42.7324 123.243 42.5425 123.733 42.3033C124.224 42.0653 124.655 41.7937 125.029 41.4908C125.403 41.188 125.711 40.8815 125.957 40.5726H126.034L126.363 42.6026Z" fill="black"/>
<path d="M147.635 24.134H147.562L147.542 24.2037L146.961 26.1639C146.86 26.0053 146.705 25.8082 146.501 25.5774C146.245 25.289 145.897 24.9933 145.467 24.7013C145.037 24.408 144.514 24.1592 143.914 23.9633C143.315 23.7674 142.602 23.6617 141.797 23.6484C140.744 23.6484 139.71 23.8564 138.724 24.265C137.736 24.6748 136.845 25.3046 136.078 26.1363C135.313 26.9667 134.688 28.0292 134.221 29.2923C133.755 30.5543 133.52 32.065 133.52 33.7836C133.52 35.0239 133.647 36.132 133.901 37.0767C134.153 38.0225 134.492 38.8542 134.906 39.5477C135.322 40.2436 135.811 40.8313 136.358 41.2928C136.904 41.7543 137.483 42.1293 138.082 42.4093C138.679 42.6881 139.285 42.8888 139.883 43.0066C140.479 43.1232 141.044 43.1821 141.565 43.1821C142.694 43.1821 143.712 42.9946 144.591 42.6232C145.421 42.2723 146.165 41.7555 146.805 41.0849V43.3551C146.805 45.3791 146.237 46.903 145.117 47.8849C143.994 48.8692 142.35 49.3692 140.231 49.3692C139.683 49.3692 139.175 49.35 138.721 49.3115C138.27 49.273 137.821 49.2118 137.387 49.1288C136.952 49.0459 136.525 48.9425 136.12 48.8211C135.712 48.6998 135.285 48.5483 134.854 48.3705L134.719 48.3152V51.053L134.769 51.0806C135.317 51.3799 136.081 51.6407 137.039 51.8546C137.994 52.0673 139.095 52.1755 140.309 52.1755C141.741 52.1755 143.068 52.0012 144.252 51.6587C145.439 51.315 146.469 50.785 147.314 50.0831C148.16 49.38 148.826 48.487 149.295 47.427C149.763 46.3682 149.999 45.1086 149.999 43.6844V24.1316H147.639L147.635 24.134ZM146.802 38.4071C146.201 39.0273 145.498 39.5237 144.712 39.8854C143.918 40.252 143.053 40.4371 142.143 40.4371C141.588 40.4371 140.991 40.3445 140.372 40.1606C139.758 39.9792 139.183 39.6354 138.662 39.1391C138.141 38.6427 137.703 37.936 137.362 37.0382C137.019 36.138 136.846 34.959 136.846 33.5336C136.846 32.4772 136.963 31.5001 137.191 30.6288C137.42 29.761 137.762 29.0075 138.21 28.3885C138.656 27.772 139.217 27.284 139.879 26.9379C140.538 26.593 141.314 26.4175 142.182 26.4175C142.762 26.4175 143.304 26.504 143.794 26.6735C144.287 26.8442 144.733 27.0557 145.117 27.3021C145.502 27.5472 145.844 27.8201 146.135 28.1109C146.417 28.3921 146.641 28.6457 146.802 28.8669V38.4071ZM146.204 28.0424C145.907 27.7455 145.562 27.4715 145.169 27.2203C144.776 26.9691 144.328 26.7564 143.825 26.5821C143.323 26.4079 142.775 26.3213 142.181 26.3213C141.292 26.3213 140.508 26.4992 139.832 26.8526C139.155 27.2071 138.588 27.6999 138.13 28.332C138.588 27.7011 139.155 27.2071 139.832 26.8526C140.508 26.498 141.292 26.3213 142.181 26.3213C142.774 26.3213 143.322 26.4079 143.825 26.5821C144.329 26.7564 144.776 26.9691 145.169 27.2203C145.562 27.4715 145.907 27.7455 146.204 28.0424C146.501 28.3393 146.733 28.6037 146.9 28.8356C146.731 28.6037 146.499 28.3393 146.204 28.0424ZM141.562 43.0883C141.047 43.0883 140.491 43.0306 139.899 42.9141C139.305 42.7975 138.713 42.6016 138.12 42.324C137.526 42.0463 136.96 41.6798 136.418 41.2219C135.876 40.764 135.399 40.1907 134.987 39.5008C134.575 38.811 134.242 37.9961 133.991 37.0539C134.242 37.9949 134.574 38.811 134.987 39.5008C135.399 40.1907 135.876 40.764 136.418 41.2219C136.96 41.6798 137.526 42.0475 138.12 42.324C138.713 42.6016 139.306 42.7975 139.899 42.9141C140.491 43.0306 141.047 43.0883 141.562 43.0883ZM149.897 43.6869C149.897 45.105 149.665 46.3393 149.201 47.3909C148.737 48.4414 148.086 49.3151 147.248 50.011C146.409 50.7069 145.401 51.226 144.222 51.5674C143.043 51.9087 141.737 52.0794 140.306 52.0794C139.095 52.0794 138.011 51.9736 137.058 51.7597C138.012 51.9724 139.095 52.0794 140.306 52.0794C141.738 52.0794 143.043 51.9087 144.222 51.5674C145.402 51.226 146.411 50.7069 147.248 50.011C148.086 49.3151 148.737 48.4414 149.201 47.3909C149.665 46.3405 149.897 45.1062 149.897 43.6869Z" fill="black"/>
<path d="M169.833 26.3521C169.078 25.494 168.143 24.8222 167.052 24.3547C165.961 23.8872 164.719 23.6504 163.358 23.6504C161.998 23.6504 160.797 23.8872 159.713 24.3547C158.628 24.8222 157.693 25.494 156.932 26.3521C156.172 27.2091 155.577 28.2475 155.163 29.4409C154.748 30.6319 154.539 31.9756 154.539 33.437C154.539 34.8985 154.742 36.2229 155.144 37.414C155.545 38.6074 156.134 39.6434 156.895 40.4931C157.655 41.344 158.59 42.0134 159.675 42.481C160.759 42.9485 162.004 43.1852 163.379 43.1852C164.754 43.1852 165.937 42.9485 167.014 42.481C168.092 42.0134 169.025 41.344 169.785 40.4931C170.544 39.6434 171.139 38.6074 171.554 37.414C171.968 36.2229 172.177 34.8841 172.177 33.437C172.177 31.99 171.974 30.6331 171.573 29.4409C171.171 28.2487 170.585 27.2091 169.833 26.3521ZM168.437 36.4152C168.164 37.2818 167.781 38.0233 167.294 38.6158C166.81 39.2071 166.229 39.6638 165.568 39.9715C164.909 40.2792 164.171 40.4366 163.376 40.4366C162.582 40.4366 161.84 40.2804 161.174 39.9715C160.507 39.6638 159.921 39.2071 159.429 38.6146C158.937 38.0209 158.55 37.2806 158.277 36.414C158.004 35.5451 157.866 34.5439 157.866 33.4358C157.866 32.3277 158.004 31.3074 158.277 30.4384C158.548 29.5707 158.933 28.8268 159.42 28.227C159.904 27.6297 160.488 27.1694 161.154 26.8617C161.821 26.5529 162.563 26.3966 163.356 26.3966C164.149 26.3966 164.891 26.5529 165.558 26.8617C166.223 27.1694 166.808 27.6297 167.292 28.227C167.777 28.8268 168.162 29.5707 168.435 30.4384C168.708 31.3086 168.846 32.3169 168.846 33.4358C168.846 34.5548 168.708 35.5439 168.435 36.414L168.437 36.4152ZM168.947 33.437C168.947 32.3025 168.809 31.2941 168.531 30.4108C168.253 29.5274 167.866 28.7799 167.37 28.1681C166.874 27.5564 166.284 27.0913 165.601 26.7752C164.917 26.4591 164.169 26.3017 163.357 26.3017C162.545 26.3017 161.797 26.4603 161.113 26.7752C160.429 27.0913 159.84 27.5552 159.344 28.1681C158.848 28.7811 158.461 29.5286 158.183 30.4108C157.905 31.2941 157.767 32.3037 157.767 33.437C157.767 32.3025 157.905 31.2941 158.183 30.4108C158.461 29.5274 158.846 28.7799 159.344 28.1681C159.84 27.5564 160.431 27.0913 161.113 26.7752C161.796 26.4591 162.545 26.3017 163.357 26.3017C164.169 26.3017 164.917 26.4603 165.601 26.7752C166.284 27.0913 166.874 27.5552 167.37 28.1681C167.866 28.7811 168.253 29.5286 168.531 30.4108C168.809 31.2941 168.947 32.3037 168.947 33.437ZM171.461 37.3827C171.049 38.5689 170.465 39.5845 169.711 40.4282C168.956 41.2731 168.044 41.9269 166.975 42.3908C165.904 42.8547 164.706 43.0867 163.377 43.0867C162.049 43.0867 160.789 42.8547 159.713 42.3908C158.636 41.9269 157.722 41.2719 156.967 40.4282C156.212 39.5845 155.635 38.5689 155.236 37.3827C155.635 38.5689 156.213 39.5845 156.967 40.4282C157.722 41.2731 158.636 41.9269 159.713 42.3908C160.79 42.8547 162.011 43.0867 163.377 43.0867C164.744 43.0867 165.904 42.8547 166.975 42.3908C168.044 41.9269 168.956 41.2719 169.711 40.4282C170.466 39.5845 171.049 38.5689 171.461 37.3827Z" fill="black"/>
<path d="M191.52 27.2033C191.2 26.362 190.759 25.6697 190.209 25.1457C189.659 24.6217 189.003 24.2371 188.256 24.0016C187.515 23.7672 186.711 23.6494 185.867 23.6494C185.153 23.6494 184.485 23.7287 183.879 23.885C183.275 24.0412 182.711 24.2624 182.203 24.5424C181.696 24.8224 181.23 25.1529 180.821 25.5231C180.444 25.8632 180.095 26.2322 179.78 26.6216L179.232 24.2107L179.215 24.135H176.719V42.7023H179.912V29.5817C180.594 28.6046 181.417 27.8258 182.359 27.2658C183.306 26.7033 184.298 26.4185 185.307 26.4185C186.445 26.4185 187.321 26.7586 187.913 27.4292C188.506 28.1035 188.807 29.2344 188.807 30.7872V42.7011H192V30.304C192 29.0866 191.839 28.0434 191.52 27.2045V27.2033ZM187.986 27.3631C187.373 26.6673 186.48 26.3187 185.307 26.3187C184.276 26.3187 183.276 26.606 182.31 27.1792C181.342 27.7525 180.512 28.5421 179.815 29.5481C180.511 28.5421 181.342 27.7525 182.31 27.1792C183.277 26.606 184.276 26.3187 185.307 26.3187C186.48 26.3187 187.373 26.6673 187.986 27.3631C188.598 28.059 188.904 29.2008 188.904 30.786C188.904 29.1995 188.598 28.059 187.986 27.3631Z" fill="black"/>
<path d="M42.8408 33.3655C42.3529 35.8089 41.6065 38.0984 40.6114 40.2028C37.4445 40.3362 34.268 40.4348 31.136 40.4973C31.1564 38.2883 31.1721 35.9843 31.1841 33.6155C35.0528 33.5674 38.9588 33.4833 42.8408 33.3655ZM44.8347 31.624C39.734 31.7947 34.6178 31.9053 29.5135 31.9569C29.5003 35.107 29.4775 38.6128 29.4414 42.2039C33.5169 42.1414 37.5984 42.0176 41.6738 41.8349C43.503 38.3051 44.4044 34.7284 44.8347 31.624Z" fill="black"/>
<path d="M31.2069 21.5245C35.2656 21.5978 39.3723 21.7264 43.4538 21.9079C43.461 22.3141 43.4658 22.6999 43.4694 23.0653C43.4718 23.2937 43.4802 23.5665 43.4898 23.8826C43.5235 24.9774 43.5763 26.672 43.4429 28.7224C39.3639 28.851 35.2596 28.9411 31.2009 28.9928C31.2093 25.8644 31.2081 23.2612 31.2069 21.5245ZM29.5267 19.8203C29.5303 21.3443 29.5376 25.4317 29.5195 30.6898C34.6743 30.6381 39.8398 30.5252 44.9897 30.3509C45.3479 26.9088 45.1604 24.2022 45.1472 23.0473C45.1375 22.2096 45.1219 21.2842 45.0991 20.3059C39.9155 20.0571 34.7151 19.8936 29.5255 19.8203H29.5267Z" fill="black"/>
<path d="M37.7128 44.9409C35.8896 47.2965 33.6434 49.3385 30.9957 51.0475C31.0293 49.1834 31.0606 47.2016 31.087 45.1212C33.2792 45.0791 35.4942 45.019 37.7128 44.9409ZM40.9566 43.1357C37.1155 43.3004 33.2684 43.4134 29.4285 43.4723C29.3888 47.0141 29.3335 50.6052 29.2578 53.9944C34.9185 51.0439 38.5866 47.1631 40.9554 43.1369L40.9566 43.1357Z" fill="black"/>
<path d="M13.8032 21.5399C13.8008 23.2741 13.8008 25.8701 13.8092 28.9829C9.83707 28.9288 5.80006 28.8375 1.76305 28.7101C1.63085 26.6657 1.68253 24.9747 1.71738 23.8835C1.727 23.5674 1.73541 23.2934 1.73782 23.0662C1.74142 22.7081 1.74743 22.3271 1.75344 21.9281C5.79285 21.7478 9.83226 21.618 13.802 21.5399M15.4821 19.832C10.3983 19.9126 5.26404 20.0772 0.106906 20.3248C0.0852729 21.2959 0.0684471 22.2153 0.0600342 23.047C0.0480157 24.2007 -0.139472 26.9025 0.216275 30.3374C5.33855 30.5093 10.4392 30.6246 15.4906 30.6799C15.4713 25.4338 15.4785 21.3548 15.4821 19.832Z" fill="black"/>
<path d="M2.36376 33.3528C6.20126 33.4694 10.0424 33.5535 13.827 33.6052C13.839 35.9716 13.8558 38.2732 13.8763 40.481C10.82 40.4161 7.70597 40.3151 4.58718 40.1829C3.59565 38.0809 2.85051 35.7938 2.36496 33.3528M0.371094 31.6113C0.800154 34.7133 1.69793 38.2864 3.52234 41.815C7.56055 41.9965 11.5807 42.1227 15.5697 42.1912C15.5324 38.6013 15.5096 35.0967 15.4964 31.949C10.4943 31.8938 5.44289 31.7808 0.371094 31.6113Z" fill="black"/>
<path d="M7.48357 44.9216C9.6481 44.9985 11.803 45.0598 13.9291 45.1055C13.9555 47.145 13.9844 49.0884 14.018 50.9188C11.4497 49.2314 9.26351 47.2256 7.48357 44.9216ZM4.24219 43.1152C6.58339 47.103 10.1961 50.9477 15.7547 53.891C15.6802 50.5294 15.6261 46.9696 15.5864 43.4602C11.8295 43.3965 8.04363 43.2799 4.24219 43.1164V43.1152Z" fill="black"/>
<path d="M22.6104 8.67658C30.2097 8.67658 37.4135 9.32317 43.0779 10.507C43.1776 12.5682 43.2701 14.949 43.3423 17.2758C38.5265 17.0643 33.6842 16.9261 28.9225 16.866L28.2783 16.8576L26.5729 16.8359L26.5801 18.5414L26.5825 19.1855C26.5825 19.379 26.6546 38.331 26.3253 53.538C25.1451 54.0536 23.9 54.5235 22.6068 54.9405C21.2439 54.5007 19.9315 54.0007 18.6912 53.4502C18.3667 38.3779 18.4316 19.3899 18.4316 19.1964L18.434 18.551L18.44 16.8431L16.7321 16.8684L16.0867 16.878C11.4236 16.9453 6.64984 17.0859 1.86888 17.2962C1.94099 14.9634 2.03354 12.5754 2.13329 10.5082C7.80361 9.32437 15.0123 8.67778 22.6116 8.67778M22.6116 7C14.6481 7 6.68349 7.7151 0.522814 9.1453C0.372583 11.966 0.22836 15.7086 0.140625 19.0545C5.49846 18.7985 10.8323 18.6315 16.1108 18.5558L16.7562 18.5462L16.7538 19.1915C16.7538 19.4391 16.6853 39.2696 17.0374 54.5367C18.7092 55.3371 20.5432 56.0607 22.5575 56.6868L22.6068 56.7024L22.656 56.6868C24.591 56.0847 26.3601 55.3948 27.979 54.6317C28.3336 39.3393 28.2615 19.4295 28.2603 19.1807L28.2579 18.5365L28.9021 18.545C34.2899 18.6135 39.6898 18.7793 45.0717 19.0365C44.984 15.6954 44.8398 11.9612 44.6895 9.1465C38.5361 7.7163 30.575 7.0012 22.6116 7.0012V7Z" fill="black"/>
</svg>
