<svg width="116" height="112" viewBox="0 0 116 112" fill="none" xmlns="http://www.w3.org/2000/svg">
<path d="M12.6108 100.767C12.2742 100.815 11.9489 100.841 11.644 100.841C11.2065 100.841 10.8287 100.784 10.5199 100.673C10.2137 100.564 9.95884 100.408 9.7642 100.213C9.56957 100.018 9.42502 99.7845 9.33436 99.5182C9.24306 99.2494 9.19678 98.9508 9.19678 98.6319V90.4364H13.4369V88.2999H9.19678V84.418H6.73185V88.2999H4V90.4364H6.73185V98.9901C6.73185 99.5937 6.82377 100.15 7.00509 100.644C7.18768 101.14 7.4679 101.569 7.83752 101.919C8.20713 102.268 8.67628 102.54 9.23165 102.727C9.78449 102.913 10.4457 103.007 11.1964 103.007C11.7657 102.997 12.2621 102.956 12.6723 102.887C13.0838 102.816 13.395 102.74 13.5985 102.658L13.6461 102.639V100.548L13.5504 100.575C13.2663 100.654 12.95 100.718 12.6114 100.767L12.6108 100.767ZM13.57 102.588C13.3709 102.668 13.0673 102.742 12.6596 102.812C12.2513 102.882 11.7638 102.921 11.1964 102.931C10.4502 102.931 9.80287 102.839 9.25574 102.655C8.70798 102.471 8.25278 102.207 7.8895 101.863C7.52623 101.52 7.25488 101.104 7.0761 100.617C7.25552 101.104 7.52623 101.52 7.8895 101.863C8.25278 102.207 8.70798 102.471 9.25574 102.655C9.80287 102.838 10.4502 102.931 11.1964 102.931C11.7638 102.921 12.2513 102.881 12.6596 102.812C13.0673 102.742 13.3709 102.667 13.57 102.588Z" fill="black"/>
<path d="M26.4101 89.5941C25.8978 89.0204 25.2842 88.5943 24.5861 88.3274C23.89 88.0618 23.1324 87.9268 22.3329 87.9268C21.4834 87.9268 20.6573 88.0897 19.8762 88.4105C19.0958 88.7319 18.3953 89.2201 17.7949 89.8623C17.1951 90.5033 16.7089 91.3129 16.3494 92.2683C15.9905 93.2231 15.8086 94.3643 15.8086 95.6614C15.8086 96.9585 15.9963 98.1213 16.3671 99.0558C16.7387 99.9928 17.2598 100.764 17.9172 101.346C18.574 101.928 19.3621 102.356 20.2598 102.616C21.1537 102.876 22.1225 103.007 23.14 103.007C23.9959 103.007 24.8093 102.934 25.558 102.79C26.308 102.645 26.9471 102.444 27.4581 102.194L27.5006 102.173V100.092L27.3991 100.129C26.7791 100.355 26.1476 100.533 25.5219 100.656C24.8987 100.779 24.1981 100.841 23.4386 100.841C22.6791 100.841 22.0261 100.752 21.3991 100.575C20.7746 100.4 20.2243 100.116 19.7621 99.7316C19.3006 99.348 18.931 98.8402 18.6634 98.2221C18.4029 97.6204 18.2672 96.8805 18.2596 96.0209H28.0502L28.0528 95.948C28.0629 95.636 28.068 95.4528 28.068 95.371V95.0648C28.068 93.8089 27.919 92.7159 27.6248 91.8169C27.33 90.9154 26.9211 90.1679 26.4107 89.5954L26.4101 89.5941ZM25.5587 93.9591C25.5587 93.4019 25.4858 92.882 25.3393 92.3989C25.1935 91.9164 24.9792 91.4955 24.6971 91.1373C24.415 90.7791 24.0669 90.4982 23.6542 90.2941C23.2408 90.0899 22.7622 89.9878 22.2182 89.9878C21.6742 89.9878 21.188 90.0925 20.729 90.301C20.2706 90.5102 19.8699 90.7936 19.5276 91.1518C19.1846 91.51 18.9082 91.931 18.6964 92.4135C18.4846 92.8966 18.354 93.4114 18.3033 93.9585C18.3534 93.4114 18.4846 92.8959 18.6964 92.4135C18.9082 91.931 19.1852 91.5107 19.5276 91.1518C19.8699 90.7936 20.2706 90.5096 20.729 90.301C21.1873 90.0918 21.6837 89.9878 22.2182 89.9878C22.7526 89.9878 23.2408 90.0899 23.6542 90.2941C24.0675 90.4982 24.415 90.7797 24.6971 91.1373C24.9792 91.4955 25.1935 91.9164 25.3393 92.3989C25.4851 92.882 25.5587 93.4019 25.5587 93.9591ZM18.3864 93.8837C18.4409 93.3765 18.5683 92.8928 18.7649 92.4445C18.9722 91.9722 19.2467 91.5551 19.5814 91.2051C19.9156 90.8551 20.3118 90.5749 20.76 90.3708C21.2064 90.1673 21.6971 90.0639 22.2176 90.0639C22.7381 90.0639 23.2193 90.1641 23.6199 90.3619C24.0206 90.5603 24.363 90.8368 24.6368 91.1842C24.912 91.5335 25.1238 91.9494 25.2664 92.4211C25.4033 92.8731 25.4756 93.3651 25.482 93.8837H18.3857H18.3864ZM27.4245 102.126C26.9167 102.375 26.2897 102.571 25.5434 102.715C24.7972 102.859 23.9959 102.931 23.14 102.931C22.125 102.931 21.1715 102.802 20.2814 102.543C19.3906 102.285 18.6191 101.866 17.968 101.289C17.3168 100.712 16.8065 99.9585 16.4375 99.0272C16.0685 98.0965 15.8847 96.9744 15.8847 95.6608C15.8847 96.9744 16.0692 98.0965 16.4375 99.0272C16.8065 99.9579 17.3162 100.712 17.968 101.289C18.6191 101.866 19.3906 102.285 20.2814 102.543C21.1721 102.802 22.125 102.931 23.14 102.931C23.9959 102.931 24.7972 102.859 25.5434 102.715C26.2897 102.571 26.9173 102.374 27.4245 102.126ZM27.9919 95.3698C27.9919 95.4547 27.9868 95.6462 27.9767 95.9448C27.9862 95.6462 27.9919 95.4547 27.9919 95.3698Z" fill="black"/>
<path d="M38.4389 100.767C38.1023 100.815 37.777 100.841 37.4721 100.841C37.0346 100.841 36.6568 100.784 36.348 100.673C36.0418 100.564 35.787 100.408 35.5923 100.213C35.3977 100.018 35.2531 99.7845 35.1625 99.5182C35.0712 99.2494 35.0249 98.9508 35.0249 98.6319V90.4364H39.265V88.2999H35.0249V84.418H32.56V88.2999H29.8281V90.4364H32.56V98.9901C32.56 99.5937 32.6519 100.15 32.8332 100.644C33.0158 101.14 33.296 101.569 33.6656 101.919C34.0353 102.268 34.5044 102.54 35.0598 102.727C35.6126 102.913 36.2739 103.007 37.0245 103.007C37.5938 102.997 38.0902 102.956 38.5004 102.887C38.9119 102.816 39.2232 102.74 39.4267 102.658L39.4742 102.639V100.548L39.3785 100.575C39.0945 100.654 38.7781 100.718 38.4396 100.767L38.4389 100.767ZM39.3981 102.588C39.1991 102.668 38.8954 102.742 38.4877 102.812C38.0795 102.882 37.5919 102.921 37.0245 102.931C36.2783 102.931 35.631 102.839 35.0839 102.655C34.5361 102.471 34.0809 102.207 33.7176 101.863C33.3544 101.52 33.083 101.104 32.9042 100.617C33.0836 101.104 33.3544 101.52 33.7176 101.863C34.0809 102.207 34.5361 102.471 35.0839 102.655C35.631 102.838 36.2783 102.931 37.0245 102.931C37.5919 102.921 38.0795 102.881 38.4877 102.812C38.8954 102.742 39.1991 102.667 39.3981 102.588Z" fill="black"/>
<path d="M50.0356 87.9344C49.9272 87.9293 49.8232 87.9268 49.7256 87.9268C49.174 87.9268 48.6402 87.9952 48.1381 88.1309C47.6366 88.2659 47.1687 88.4568 46.7465 88.6983C46.3255 88.9392 45.9413 89.2239 45.6047 89.5453C45.3004 89.8363 45.036 90.1514 44.8166 90.4849L44.3944 88.3617L44.3823 88.3008H42.4531V102.635H44.9181V92.6969C45.159 92.3057 45.4633 91.9621 45.8228 91.6742C46.1886 91.3813 46.6051 91.1309 47.0603 90.9306C47.5155 90.7302 48.01 90.5787 48.5292 90.4805C49.051 90.3822 49.5886 90.3327 50.1275 90.3327H50.3824V87.9661L50.3165 87.9578C50.2353 87.9477 50.1434 87.9401 50.035 87.935L50.0356 87.9344ZM50.1288 90.2567C49.5817 90.2567 49.044 90.3067 48.5166 90.4056C47.9891 90.5052 47.4939 90.6573 47.0311 90.8608C47.4939 90.6567 47.9891 90.5052 48.5166 90.4056C49.044 90.3061 49.5817 90.2567 50.1288 90.2567Z" fill="black"/>
<path d="M62.9171 90.7474C62.5139 89.9004 61.8425 89.2106 60.922 88.6977C60.004 88.1861 58.8089 87.9268 57.3691 87.9268C56.9716 87.9268 56.5671 87.9471 56.1671 87.987C55.767 88.0269 55.3822 88.0853 55.0246 88.1601C54.6645 88.2349 54.3177 88.3262 53.9944 88.4308C53.6685 88.536 53.3814 88.6501 53.1404 88.7712L53.0986 88.7922V90.8894L53.2013 90.8501C53.8213 90.6136 54.4534 90.4266 55.0785 90.2934C55.703 90.1609 56.3782 90.0937 57.0857 90.0937C58.0335 90.0937 58.795 90.2491 59.3484 90.5546C59.9 90.8596 60.307 91.2488 60.5574 91.7117C60.6716 91.931 60.7546 92.1897 60.8034 92.4794C60.8522 92.773 60.877 93.1153 60.877 93.497V94.396C60.397 94.2229 59.8448 94.0764 59.2349 93.9598C58.606 93.8399 57.9137 93.7747 57.1764 93.7645C56.3947 93.7645 55.6713 93.871 55.0246 94.0821C54.3761 94.2932 53.8125 94.5995 53.3497 94.9919C52.8856 95.385 52.5198 95.8712 52.2624 96.4368C52.005 97.0016 51.875 97.6502 51.875 98.3641C51.875 99.0779 51.9923 99.7449 52.2237 100.318C52.4557 100.893 52.7854 101.386 53.2045 101.785C53.6229 102.184 54.1295 102.491 54.7096 102.697C55.2877 102.903 55.9319 103.008 56.6236 103.008C57.1352 103.008 57.6233 102.952 58.0747 102.842C58.5268 102.731 58.949 102.581 59.3288 102.396C59.7098 102.21 60.0515 101.997 60.3438 101.76C60.6069 101.547 60.8326 101.329 61.0152 101.11L61.2523 102.572L61.2624 102.636H63.3432V93.095C63.3432 92.6354 63.3102 92.2068 63.2449 91.8207C63.179 91.4321 63.0693 91.0713 62.9178 90.7486L62.9171 90.7474ZM60.624 91.6749C60.3653 91.1969 59.952 90.8013 59.3846 90.4881C58.8171 90.1749 58.0507 90.0176 57.0857 90.0176C58.0513 90.0176 58.8178 90.1742 59.3846 90.4881C59.9513 90.8019 60.3647 91.1975 60.624 91.6749C60.7432 91.9038 60.8281 92.1675 60.8776 92.4661C60.927 92.7647 60.9524 93.1077 60.9524 93.4963C60.9524 93.1083 60.9277 92.7647 60.8776 92.4661C60.8275 92.1675 60.7432 91.9038 60.624 91.6749ZM60.877 99.1382C60.7686 99.2447 60.6056 99.3911 60.3907 99.575C60.1625 99.7703 59.881 99.9687 59.5538 100.165C59.2286 100.36 58.8507 100.531 58.4317 100.673C58.0158 100.814 57.5587 100.885 57.0737 100.885C56.7066 100.885 56.3566 100.834 56.0339 100.732C55.7131 100.631 55.4323 100.475 55.199 100.27C54.9657 100.064 54.7799 99.7994 54.6462 99.4837C54.5117 99.1661 54.4439 98.7895 54.4439 98.3634C54.4439 97.5266 54.714 96.8989 55.2459 96.4976C55.7848 96.0919 56.5443 95.8858 57.5042 95.8858C58.1996 95.896 58.845 95.9556 59.422 96.0633C59.978 96.1673 60.4668 96.2776 60.8763 96.3898V99.1375L60.877 99.1382ZM59.4366 95.9898C58.852 95.8801 58.2079 95.8205 57.5048 95.811C56.524 95.811 55.7563 96.0196 55.2015 96.438C54.6468 96.8558 54.3691 97.498 54.3691 98.3641C54.3691 97.498 54.6468 96.8565 55.2015 96.438C55.7563 96.0202 56.524 95.811 57.5048 95.811C58.2085 95.8212 58.852 95.8808 59.4366 95.9898C60.0211 96.0995 60.5264 96.2136 60.9524 96.3334C60.5264 96.2142 60.0211 96.0995 59.4366 95.9898ZM61.3258 102.559L61.0722 100.991H61.0126C60.8237 101.23 60.5847 101.467 60.2962 101.701C60.0078 101.935 59.6743 102.144 59.2958 102.328C58.9173 102.512 58.5046 102.659 58.0564 102.768C57.6088 102.878 57.1307 102.933 56.6229 102.933C55.9363 102.933 55.3068 102.831 54.7343 102.626C54.1618 102.422 53.6692 102.124 53.2565 101.731C52.8431 101.337 52.5223 100.858 52.2934 100.29C52.0646 99.7227 51.9498 99.0805 51.9498 98.3641C51.9498 99.0805 52.0639 99.7227 52.2934 100.29C52.5223 100.858 52.8431 101.338 53.2565 101.731C53.6692 102.124 54.1618 102.422 54.7343 102.626C55.3068 102.831 55.9363 102.933 56.6229 102.933C57.1307 102.933 57.6081 102.878 58.0564 102.768C58.504 102.659 58.9173 102.512 59.2958 102.328C59.6737 102.144 60.0071 101.935 60.2962 101.701C60.5847 101.467 60.8237 101.23 61.0126 100.991H61.0722L61.3258 102.559Z" fill="black"/>
<path d="M77.7491 88.3002H77.6927L77.6769 88.3541L77.228 89.868C77.1494 89.7457 77.0302 89.5941 76.8723 89.4154C76.6745 89.1928 76.4064 88.9646 76.0748 88.7389C75.7419 88.5119 75.3387 88.3205 74.8766 88.1696C74.4137 88.0187 73.8634 87.9369 73.2421 87.9268C72.43 87.9268 71.6312 88.0872 70.8691 88.4029C70.1058 88.7192 69.4192 89.2049 68.8271 89.8471C68.2362 90.4881 67.7537 91.3078 67.3936 92.2835C67.0341 93.2579 66.8516 94.4245 66.8516 95.7508C66.8516 96.7087 66.9505 97.564 67.1451 98.2931C67.3404 99.0234 67.6016 99.6656 67.9224 100.201C68.2438 100.738 68.6204 101.192 69.0432 101.549C69.4642 101.904 69.9118 102.195 70.374 102.41C70.8349 102.626 71.3028 102.78 71.765 102.871C72.2246 102.961 72.6614 103.007 73.0634 103.007C73.9357 103.007 74.7212 102.862 75.3996 102.576C76.0406 102.305 76.6149 101.906 77.1088 101.388V103.141C77.1088 104.703 76.6707 105.879 75.806 106.637C74.9381 107.397 73.6688 107.783 72.0338 107.783C71.6109 107.783 71.2185 107.767 70.8679 107.738C70.5198 107.709 70.173 107.661 69.8383 107.597C69.5023 107.533 69.1732 107.453 68.86 107.36C68.5443 107.267 68.2153 107.149 67.8818 107.012L67.7778 106.969V109.082L67.8171 109.104C68.24 109.335 68.829 109.536 69.5688 109.701C70.3068 109.866 71.1563 109.949 72.0934 109.949C73.1997 109.949 74.2242 109.814 75.1378 109.55C76.0539 109.284 76.8495 108.876 77.5013 108.334C78.1543 107.791 78.6684 107.102 79.0298 106.284C79.3905 105.467 79.5738 104.494 79.5738 103.394V88.2995H77.7517L77.7491 88.3002ZM77.1063 99.3182C76.6422 99.7962 76.0995 100.18 75.4928 100.459C74.8791 100.742 74.2115 100.885 73.509 100.885C73.0805 100.885 72.6202 100.814 72.1422 100.672C71.668 100.532 71.2235 100.267 70.8216 99.8837C70.419 99.5002 70.0811 98.9549 69.8173 98.262C69.553 97.5672 69.4192 96.6574 69.4192 95.5568C69.4192 94.7415 69.5086 93.987 69.6855 93.3144C69.8617 92.6449 70.1261 92.0629 70.4723 91.5855C70.8171 91.11 71.2502 90.7334 71.7599 90.4659C72.269 90.199 72.8675 90.0639 73.5388 90.0639C73.9864 90.0639 74.4049 90.1305 74.7834 90.2611C75.1638 90.393 75.5074 90.5559 75.8047 90.7461C76.1014 90.9357 76.3658 91.1455 76.5909 91.3706C76.8077 91.588 76.9808 91.7839 77.1063 91.9538V99.3189V99.3182ZM76.6441 91.3167C76.4152 91.0878 76.149 90.8761 75.8453 90.6821C75.5416 90.4881 75.1961 90.3239 74.8075 90.1895C74.4195 90.0551 73.9959 89.9878 73.5382 89.9878C72.8516 89.9878 72.2468 90.1248 71.7244 90.3987C71.202 90.6726 70.7639 91.0529 70.4108 91.5405C70.057 92.028 69.7914 92.6132 69.6119 93.2947C69.4331 93.9763 69.3431 94.7307 69.3431 95.5561C69.3431 94.7301 69.4325 93.9763 69.6119 93.2947C69.7914 92.6132 70.057 92.028 70.4108 91.5405C70.7639 91.0529 71.202 90.6719 71.7244 90.3987C72.2468 90.1248 72.8516 89.9878 73.5382 89.9878C73.9959 89.9878 74.4188 90.0551 74.8075 90.1895C75.1961 90.3239 75.541 90.4881 75.8453 90.6821C76.149 90.8761 76.4152 91.0878 76.6441 91.3167C76.873 91.5455 77.0518 91.7497 77.1817 91.9285C77.0524 91.7497 76.873 91.5455 76.6441 91.3167ZM75.3679 102.507C74.6959 102.79 73.9275 102.932 73.0615 102.932C72.6633 102.932 72.2354 102.887 71.7776 102.798C71.3199 102.708 70.8622 102.557 70.4038 102.342C69.946 102.128 69.508 101.845 69.0902 101.492C68.6724 101.138 68.304 100.695 67.9851 100.163C67.6662 99.6301 67.4101 99.0006 67.2161 98.274C67.0221 97.5475 66.9251 96.7068 66.9251 95.7508C66.9251 96.7062 67.0221 97.5475 67.2161 98.274C67.4101 99.0006 67.6662 99.6301 67.9851 100.163C68.3034 100.695 68.6717 101.138 69.0902 101.492C69.508 101.845 69.946 102.129 70.4038 102.342C70.8615 102.557 71.3193 102.708 71.7776 102.798C72.2354 102.887 72.6633 102.932 73.0615 102.932C73.9275 102.932 74.6965 102.79 75.3679 102.507C76.0399 102.223 76.6295 101.802 77.1367 101.245C76.6289 101.802 76.0393 102.223 75.3679 102.507ZM78.9582 106.254C78.6 107.065 78.0972 107.739 77.4505 108.277C76.8032 108.815 76.0247 109.215 75.1143 109.479C74.2039 109.743 73.1959 109.875 72.0908 109.875C71.1551 109.875 70.3188 109.793 69.5828 109.628C68.8461 109.464 68.2692 109.267 67.8507 109.038C68.2685 109.267 68.8461 109.464 69.5828 109.628C70.3195 109.792 71.1551 109.875 72.0908 109.875C73.1959 109.875 74.2033 109.743 75.1143 109.479C76.0253 109.215 76.8039 108.815 77.4505 108.277C78.0972 107.739 78.6 107.066 78.9582 106.254Z" fill="black"/>
<path d="M94.8894 90.0132C94.3074 89.3507 93.5846 88.8321 92.7427 88.4707C91.9008 88.11 90.9416 87.9268 89.891 87.9268C88.8405 87.9268 87.9136 88.11 87.0768 88.4707C86.2393 88.8315 85.5172 89.3507 84.9301 90.0126C84.3437 90.6738 83.884 91.4758 83.5639 92.3964C83.2443 93.3156 83.082 94.3535 83.082 95.482C83.082 96.6105 83.2393 97.6331 83.5486 98.5517C83.8587 99.4729 84.3139 100.273 84.9003 100.929C85.4874 101.587 86.2095 102.103 87.047 102.463C87.8832 102.824 88.8456 103.007 89.9063 103.007C90.9669 103.007 91.8811 102.824 92.7129 102.463C93.5453 102.102 94.2649 101.586 94.852 100.929C95.4378 100.273 95.8974 99.4735 96.2182 98.5524C96.5378 97.6331 96.7001 96.5997 96.7001 95.482C96.7001 94.3643 96.5428 93.3169 96.2334 92.3976C95.9234 91.4771 95.4714 90.6745 94.89 90.0132H94.8894ZM93.8122 97.7814C93.6024 98.4509 93.3051 99.0221 92.9304 99.4805C92.5563 99.937 92.1081 100.289 91.5984 100.527C91.0886 100.765 90.5193 100.886 89.9063 100.886C89.2932 100.886 88.7207 100.766 88.2059 100.527C87.6911 100.289 87.2378 99.937 86.8587 99.4799C86.4783 99.0221 86.1791 98.4503 85.9692 97.7814C85.7587 97.1107 85.6516 96.3372 85.6516 95.4826C85.6516 94.628 85.7587 93.8399 85.9692 93.1686C86.1791 92.4991 86.4764 91.9247 86.8517 91.4619C87.2258 91.0003 87.6759 90.6459 88.1907 90.4082C88.7061 90.1698 89.278 90.0493 89.891 90.0493C90.5041 90.0493 91.0753 90.1698 91.5914 90.4082C92.1056 90.6459 92.5563 91.001 92.9304 91.4619C93.3057 91.9253 93.6024 92.4991 93.8129 93.1686C94.0234 93.8406 94.1305 94.6191 94.1305 95.4826C94.1305 96.3461 94.0234 97.11 93.8129 97.7814H93.8122ZM94.2053 95.4826C94.2053 94.6071 94.0982 93.8279 93.8845 93.1464C93.6702 92.4648 93.3716 91.8873 92.9887 91.4149C92.6051 90.942 92.1499 90.5838 91.6225 90.3397C91.095 90.0963 90.5174 89.9739 89.8904 89.9739C89.2634 89.9739 88.6858 90.0963 88.1584 90.3397C87.6309 90.5838 87.1757 90.942 86.7921 91.4149C86.4086 91.8879 86.1099 92.4648 85.8963 93.1464C85.682 93.8285 85.5755 94.6071 85.5755 95.4826C85.5755 94.6071 85.6826 93.8279 85.8963 93.1464C86.1099 92.4648 86.4086 91.8873 86.7921 91.4149C87.175 90.942 87.6303 90.5838 88.1584 90.3397C88.6858 90.0963 89.2634 89.9739 89.8904 89.9739C90.5174 89.9739 91.0944 90.0963 91.6225 90.3397C92.1499 90.5838 92.6051 90.942 92.9887 91.4149C93.3716 91.8879 93.6702 92.4648 93.8845 93.1464C94.0982 93.8285 94.2053 94.6071 94.2053 95.4826ZM96.146 98.5283C95.8271 99.4437 95.3769 100.228 94.7949 100.88C94.2129 101.531 93.5086 102.037 92.6825 102.395C91.8564 102.753 90.9308 102.933 89.9056 102.933C88.8805 102.933 87.9073 102.754 87.0768 102.395C86.2456 102.037 85.5394 101.531 84.9567 100.88C84.3747 100.228 83.929 99.4444 83.6203 98.5283C83.929 99.4437 84.3741 100.228 84.9567 100.88C85.5387 101.531 86.2456 102.037 87.0768 102.395C87.9079 102.753 88.8507 102.933 89.9056 102.933C90.9606 102.933 91.8564 102.754 92.6825 102.395C93.5086 102.037 94.2129 101.531 94.7949 100.88C95.3769 100.228 95.8277 99.4444 96.146 98.5283C96.4642 97.6128 96.624 96.5972 96.624 95.4826C96.624 96.5972 96.4648 97.6128 96.146 98.5283Z" fill="black"/>
<path d="M111.629 90.67C111.382 90.0202 111.042 89.4857 110.618 89.0819C110.193 88.6774 109.686 88.3807 109.11 88.1987C108.538 88.0181 107.917 87.9268 107.266 87.9268C106.715 87.9268 106.198 87.9876 105.731 88.1081C105.265 88.2285 104.829 88.3991 104.438 88.6153C104.046 88.8315 103.687 89.0863 103.371 89.3722C103.081 89.6347 102.811 89.9194 102.567 90.2205L102.144 88.3591L102.13 88.3002H100.203V102.634H102.668V92.5048C103.194 91.7503 103.83 91.1487 104.557 90.7169C105.288 90.2833 106.054 90.0633 106.832 90.0633C107.711 90.0633 108.387 90.3258 108.843 90.8437C109.301 91.3649 109.534 92.2366 109.534 93.4361V102.633H111.998V93.0627C111.998 92.1225 111.874 91.3173 111.628 90.6694L111.629 90.67ZM108.901 90.7943C108.428 90.2567 107.739 89.9878 106.833 89.9878C106.036 89.9878 105.265 90.2091 104.519 90.6523C103.772 91.0954 103.13 91.7047 102.593 92.4813C103.13 91.7047 103.772 91.0954 104.519 90.6523C105.265 90.2097 106.036 89.9878 106.833 89.9878C107.738 89.9878 108.428 90.2567 108.901 90.7943C109.373 91.3319 109.61 92.2125 109.61 93.4367C109.61 92.2125 109.374 91.3319 108.901 90.7943Z" fill="black"/>
<path d="M68.6569 56.8734C75.0082 56.7758 81.3708 56.5824 87.7234 56.299C90.5751 50.7973 91.9787 45.222 92.6501 40.3828C84.6999 40.6485 76.7256 40.8222 68.7697 40.9008C68.7494 45.8104 68.7146 51.2747 68.6562 56.8728L68.6569 56.8734Z" fill="#E3262B"/>
<path d="M89.5417 43.0975C88.7815 46.9053 87.6181 50.4746 86.0668 53.7542C81.1306 53.9628 76.1791 54.1169 71.2968 54.2126C71.3285 50.7694 71.3539 47.1791 71.3722 43.4868C77.4021 43.4114 83.4909 43.2808 89.5417 43.0982M92.6501 40.3834C84.6999 40.6491 76.7256 40.8228 68.7697 40.9014C68.7494 45.811 68.7146 51.2753 68.6562 56.8734C75.0075 56.7758 81.3702 56.5824 87.7227 56.299C90.5744 50.7973 91.9781 45.222 92.6495 40.3828L92.6501 40.3834Z" fill="black"/>
<path d="M92.8943 38.3989C93.4528 33.0341 93.1599 28.8156 93.1403 27.0144C93.1263 25.7097 93.1003 24.2655 93.0661 22.7414C84.9872 22.3527 76.8817 22.0991 68.7927 21.9844C68.799 24.3606 68.8098 30.7308 68.7812 38.9264C76.8151 38.8465 84.8674 38.6696 92.8943 38.3989Z" fill="#EB7525"/>
<path d="M71.4123 24.6391C77.7388 24.7526 84.1389 24.9536 90.501 25.2376C90.5118 25.8709 90.52 26.4726 90.5263 27.0407C90.5301 27.3963 90.5435 27.8224 90.5587 28.315C90.6113 30.021 90.6937 32.6641 90.4851 35.8594C84.1275 36.0591 77.73 36.1998 71.4041 36.2797C71.4167 31.4031 71.4161 27.3462 71.4123 24.6385M68.7927 21.9814C68.799 24.3576 68.8098 30.7279 68.7812 38.9235C76.8151 38.8436 84.8674 38.6667 92.8943 38.396C93.4528 33.0312 93.1599 28.8126 93.1403 27.0115C93.1263 25.7067 93.1003 24.2625 93.0661 22.7384C84.9872 22.3498 76.8817 22.0962 68.7927 21.9814Z" fill="black"/>
<path d="M68.6367 58.8495C68.5746 64.369 68.4884 69.9684 68.3711 75.2495C77.1943 70.6505 82.9109 64.6023 86.6045 58.3252C80.6172 58.5813 74.6222 58.7576 68.6367 58.8495Z" fill="#6284C1"/>
<path d="M81.5485 61.1385C78.707 64.8093 75.2048 67.9932 71.0789 70.6572C71.1321 67.751 71.1797 64.6635 71.2202 61.42C74.6368 61.3541 78.0895 61.2603 81.5485 61.1392M86.6045 58.3262C80.6172 58.5823 74.6222 58.7586 68.6367 58.8505C68.5746 64.37 68.4884 69.9693 68.3711 75.2504C77.1943 70.6515 82.9109 64.6033 86.6045 58.3262Z" fill="black"/>
<path d="M22.9331 22.7691C22.8989 24.2824 22.8735 25.7158 22.8596 27.0123C22.8399 28.8116 22.5483 33.0213 23.1037 38.3759C31.0881 38.6441 39.0383 38.8229 46.9117 38.911C46.8819 30.7332 46.8921 24.3762 46.8978 22.002C38.973 22.1268 30.9702 22.3842 22.9331 22.7691Z" fill="#92C53F"/>
<path d="M44.2788 24.6628C44.2756 27.3661 44.2756 31.4122 44.2889 36.2635C38.0987 36.1785 31.8045 36.0359 25.5141 35.8387C25.3074 32.6523 25.3892 30.0174 25.4418 28.3152C25.457 27.8219 25.4703 27.3959 25.4741 27.0409C25.4805 26.4817 25.4887 25.8896 25.4989 25.2676C31.7956 24.9868 38.0905 24.7839 44.2788 24.6628ZM46.8978 22.002C38.973 22.1268 30.9702 22.3842 22.9331 22.7691C22.8989 24.2824 22.8735 25.7158 22.8596 27.0123C22.8399 28.8116 22.5483 33.0213 23.1037 38.3759C31.0881 38.6441 39.0383 38.8229 46.9117 38.911C46.8819 30.7332 46.8921 24.3762 46.8978 22.002Z" fill="black"/>
<path d="M46.9198 40.8869C39.123 40.8 31.2502 40.6244 23.3438 40.3613C24.0126 45.1955 25.4118 50.7663 28.2559 56.2655C34.5495 56.5483 40.8164 56.7454 47.0345 56.8526C46.9762 51.2564 46.9407 45.7946 46.9198 40.8875V40.8869Z" fill="#C6D872"/>
<path d="M26.4516 43.0761C32.4326 43.2574 38.4199 43.3892 44.3179 43.4698C44.3369 47.1583 44.3623 50.746 44.394 54.1867C39.6302 54.0852 34.7771 53.9293 29.9144 53.7213C28.3681 50.4449 27.2085 46.8793 26.4509 43.0761M23.3438 40.3613C24.0126 45.1955 25.4118 50.7663 28.2559 56.2655C34.5495 56.5483 40.8164 56.7454 47.0345 56.8526C46.9762 51.2564 46.9407 45.7946 46.9198 40.8875C39.123 40.8007 31.2502 40.6251 23.3438 40.362V40.3613Z" fill="black"/>
<path d="M47.0569 58.8293C41.2001 58.7291 35.2996 58.5491 29.375 58.293C33.0249 64.5086 38.6559 70.5016 47.32 75.0879C47.2046 69.8486 47.119 64.3 47.0569 58.8293Z" fill="#8061A5"/>
<path d="M34.4272 61.1091C37.8013 61.2296 41.1595 61.3253 44.4734 61.3951C44.514 64.5739 44.5602 67.6024 44.6122 70.4573C40.608 67.8275 37.2022 64.7013 34.4272 61.1091ZM29.375 58.293C33.0249 64.5086 38.6559 70.5016 47.32 75.0879C47.2046 69.8486 47.119 64.3 47.0569 58.8293C41.2001 58.7291 35.2996 58.5491 29.375 58.293Z" fill="black"/>
<path d="M93.0158 20.7593C92.8788 15.5511 92.6544 9.73106 92.4211 5.34388C73.2392 0.88569 42.7857 0.885056 23.5797 5.34388C23.3457 9.73994 23.1213 15.5732 22.9844 20.789C31.3352 20.3909 39.6493 20.1297 47.8772 20.0111L48.8833 19.9966L48.8795 21.0027C48.8783 21.3894 48.7718 52.2975 49.3208 76.0942C51.9271 77.3425 54.7864 78.4691 57.9253 79.4454L58.0013 79.4702L58.0774 79.4454C61.0926 78.5078 63.8511 77.4313 66.3744 76.2419C66.9266 52.4066 66.815 21.3729 66.8131 20.9856L66.8093 19.9813L67.8135 19.994C76.2107 20.1012 84.6281 20.3586 93.017 20.7605L93.0158 20.7593Z" fill="#F3C018"/>
<path d="M58.0083 4.61393C69.8531 4.61393 81.0822 5.6226 89.9105 7.46686C90.0652 10.6799 90.2097 14.3906 90.3219 18.0177C82.8155 17.6874 75.2679 17.4731 67.8459 17.378L66.8416 17.3653L64.1833 17.3311L64.1935 19.99L64.1973 20.9949C64.1985 21.2973 64.3089 50.8366 63.796 74.5394C61.9561 75.3427 60.0155 76.0749 58.0001 76.726C55.8749 76.0394 53.831 75.2615 51.8973 74.4031C51.3914 50.9108 51.4922 21.3144 51.4928 21.012L51.4966 20.0058L51.5068 17.3431L48.8447 17.3818L47.8385 17.3964C40.5699 17.501 33.1288 17.7203 25.6775 18.0481C25.7898 14.4122 25.9343 10.69 26.0896 7.46813C34.928 5.62323 46.1635 4.61456 58.0089 4.61456M58.0089 2C45.5968 2 33.1827 3.11455 23.5797 5.34364C23.3457 9.7397 23.1213 15.573 22.9844 20.7888C31.3352 20.3907 39.6493 20.1295 47.8772 20.0109L48.8833 19.9963L48.8795 21.0025C48.8783 21.3892 48.7718 52.2973 49.3208 76.0939C51.9271 77.3423 54.7864 78.4689 57.9253 79.4452L58.0013 79.4693L58.0774 79.4452C61.0926 78.5075 63.8511 77.431 66.3744 76.2417C66.9266 52.4063 66.815 21.3727 66.8131 20.9853L66.8093 19.9811L67.8135 19.9938C76.2107 20.1009 84.6281 20.3583 93.017 20.7603C92.8801 15.5521 92.6556 9.73209 92.4223 5.34491C82.8314 3.11582 70.4217 2.00127 58.0102 2.00127L58.0089 2Z" fill="black"/>
</svg>
