<?xml version="1.0" encoding="UTF-8" standalone="no"?>
<svg
   id="svg1"
   version="1.1"
   height="326.4"
   viewBox="0 0 400.92 90"
   class="ml-0.5 h-10 w-auto md:m-0 md:h-14 md:w-40"
   xmlns="http://www.w3.org/2000/svg"
   xmlns:svg="http://www.w3.org/2000/svg">
  <defs
     id="defs1" />
  <g
     id="g1"
     transform="matrix(0.39264127,0,0,0.35119623,-35.908536,-20.648635)">
    <path
       id="path1"
       d="M 170.9552,255.27537 167.04,251.35075 V 166.61723 81.883708 l -0.67854,0.475264 c -0.37319,0.261395 -2.46119,2.089846 -4.64,4.063223 L 157.76,90.010154 v 75.794916 c 0,41.68721 -0.10908,75.79493 -0.2424,75.79493 -0.13332,0 -3.80493,-3.56467 -8.15914,-7.92149 l -7.91673,-7.92149 -0.0809,-58.19916 -0.0809,-58.19916 -3.23641,4.92065 c -13.11667,19.94265 -21.50333,42.37444 -24.43278,65.35037 -0.9793,7.68071 -1.29081,15.19234 -1.29081,31.12577 V 225.6 h -8 -8.000002 l 0.0032,-16.72 c 0.0031,-16.62645 0.218887,-22.35682 1.129458,-30 3.712904,-31.16556 16.136974,-60.89083 35.777654,-85.600002 6.14366,-7.729102 15.55709,-17.42325 22.60972,-23.28397 l 3.36,-2.792151 h 15.84 15.84 l 3.36,2.789424 c 4.60508,3.823071 13.71672,12.818545 18.07716,17.846697 21.77575,25.110252 36.06834,57.080442 40.12806,89.760002 1.0821,8.71055 1.31479,14.29311 1.31479,31.54545 V 225.6 h -7.96328 -7.96328 l -0.16723,-18.48 c -0.092,-10.164 -0.3259,-19.992 -0.51981,-21.84 -2.07892,-19.81211 -7.11099,-37.40087 -15.5439,-54.33101 -3.13527,-6.29447 -7.85383,-14.37458 -11.05943,-18.93835 L 208.64,109.30128 v 58.23176 58.23176 l -7.92236,7.9176 c -4.35729,4.35468 -8.02929,7.9176 -8.16,7.9176 -0.1307,0 -0.23764,-34.10077 -0.23764,-75.77947 V 90.041056 l -3.94922,-3.594827 c -2.17206,-1.977156 -4.26006,-3.812559 -4.64,-4.078675 L 183.04,81.883708 v 84.742942 84.74295 l -3.92462,3.9152 c -2.15855,2.15336 -3.99671,3.9152 -4.08481,3.9152 -0.0881,0 -1.92202,-1.76608 -4.07537,-3.92463 z m 393.95738,-28.73125 c -21.08863,-1.20105 -32.41961,-8.54403 -35.52859,-23.02412 -0.48932,-2.27906 -0.58279,-4.19847 -0.57653,-11.84 0.007,-8.39064 0.0653,-9.35033 0.73032,-12 2.08329,-8.30031 7.25644,-14.27599 15.39172,-17.77949 6.02697,-2.59555 12.07441,-3.69671 23.0047,-4.18887 9.52992,-0.4291 21.92344,0.0283 27.58579,1.01804 10.7061,1.87139 17.76144,5.95845 21.71688,12.58031 1.23784,2.07228 2.82846,6.47006 3.12644,8.64404 l 0.20367,1.48597 h -8.76838 -8.76839 l -0.57626,-1.62249 c -1.04814,-2.95111 -3.42633,-5.02061 -7.42408,-6.46042 -4.01271,-1.4452 -7.61669,-1.89284 -16.67822,-2.07156 -12.41076,-0.24477 -18.94527,0.58228 -24.25325,3.06969 -4.42253,2.07247 -6.67884,4.82923 -7.8978,9.64955 -0.60468,2.39119 -0.65667,3.30927 -0.5235,9.24503 0.12305,5.48472 0.25695,6.92376 0.79825,8.57874 1.68417,5.14922 4.64318,7.81274 10.38566,9.34855 4.73686,1.26686 7.09074,1.45341 18.33898,1.45341 11.24824,0 13.60212,-0.18655 18.33898,-1.45341 4.88261,-1.30584 7.78045,-3.54428 9.03201,-6.97679 l 0.71476,-1.9603 h 8.75713 c 5.21638,0 8.75712,0.12092 8.75712,0.29908 0,0.91099 -1.04498,5.03208 -1.75285,6.91272 -3.39503,9.01977 -11.1222,14.21386 -24.26503,16.31061 -6.19106,0.98769 -19.93652,1.34742 -29.86953,0.78171 z M 333.90517,222.8 c 0.53384,-6.76722 2.34158,-12.97272 5.75837,-19.76691 1.80674,-3.59264 4.98988,-8.48826 15.97138,-24.56364 l 13.71492,-20.07673 12.65642,0.0836 12.65643,0.0836 10.7093,15.68 c 16.68321,24.42669 17.20144,25.21817 19.22936,29.36825 3.12282,6.39078 4.92101,12.78559 5.36868,19.0924 l 0.2058,2.89935 h -8.6409 -8.64091 l -0.18506,-2.96 c -0.29486,-4.71627 -1.97958,-9.73874 -5.0035,-14.9164 l -1.33601,-2.28757 -24.51584,0.082 -24.51583,0.082 -1.70479,3.2 c -2.88599,5.41717 -4.16884,9.44257 -4.49865,14.11614 L 350.94493,225.6 h -8.63031 -8.63032 z m 63.74837,-30.93584 c -0.20538,-0.53523 -14.80054,-21.58242 -15.40308,-22.21227 -0.33682,-0.35209 -1.80895,1.58825 -8.29,10.92658 -4.33426,6.24508 -7.88047,11.44173 -7.88047,11.54811 0,0.10638 7.14341,0.19342 15.87424,0.19342 13.605,0 15.84923,-0.0652 15.69931,-0.45584 z m 40.42645,0.11161 v -33.62423 l 30.16,0.1316 c 32.31599,0.14101 33.06527,0.17663 38.63947,1.8367 7.49023,2.23069 12.27965,7.01624 13.96356,13.9523 0.70122,2.88834 0.80577,12.88297 0.16201,15.48786 -1.31493,5.32073 -4.92413,9.87985 -9.80504,12.38569 -1.408,0.72286 -3.19454,1.48342 -3.97008,1.69012 l -1.41009,0.37583 4.60951,4.69418 c 2.53523,2.5818 7.27235,7.39418 10.52693,10.69418 l 5.91741,6 -10.23684,-0.006 -10.23684,-0.006 L 496.10901,215.51424 485.81803,205.44 h -15.70902 -15.70902 v 10.08 10.08 h -8.16 -8.16 z m 61.02919,-0.66013 c 2.34853,-0.69826 4.11882,-1.96929 4.9528,-3.556 0.59779,-1.13732 0.73492,-1.99737 0.83868,-5.25966 0.15378,-4.83514 -0.31989,-6.59299 -2.21328,-8.21365 -2.65789,-2.27506 -2.40104,-2.25221 -26.60739,-2.36794 l -21.68,-0.10366 v 10.10921 10.10921 l 21.52,-0.11062 c 18.2842,-0.094 21.77098,-0.18524 23.18919,-0.60689 z M 628.47999,192 v -33.6 h 8.16 8.16 v 13.44195 13.44195 l 25.04,-0.0819 25.04,-0.082 0.0835,-13.36 0.0835,-13.36 h 8.15649 8.15649 v 33.6 33.6 h -8.15653 -8.15653 l -0.0835,-13.52 -0.0835,-13.52 -25.04,-0.082 -25.04,-0.082 V 211.99805 225.6 h -8.16 -8.16 z m 94.4,0 v -33.6 h 38.58156 c 36.59707,0 38.57265,0.0288 38.40817,0.56 -0.0954,0.308 -0.83085,3.08 -1.63439,6.16 -0.80355,3.08 -1.53693,5.852 -1.62974,6.16 -0.15906,0.5279 -1.80913,0.56 -28.78717,0.56 h -28.61843 v 6.72 6.72 h 26.4 c 14.67604,0 26.4,0.12314 26.4,0.27729 0,0.15251 -0.72,3.03752 -1.6,6.41114 -0.88,3.37362 -1.6,6.20083 -1.6,6.28271 0,0.0819 -11.16,0.14886 -24.8,0.14886 h -24.8 v 6.72 6.72 h 29.76 29.76 v 6.88 6.88 h -37.92 -37.92 z m 86.08,-0.0254 v -33.62543 l 30.16,0.13424 c 26.06351,0.11601 30.58609,0.20568 33.29711,0.66018 6.56534,1.10066 12.09707,3.66084 15.08109,6.97979 1.84239,2.04918 3.57232,5.54044 4.18039,8.43665 0.65032,3.09747 0.64376,12.71111 -0.0106,15.487 -1.47863,6.27281 -6.49011,11.4458 -13.197,13.6223 l -1.68899,0.5481 3.18764,3.4113 c 1.7532,1.87621 6.36524,6.57807 10.24898,10.44857 3.88375,3.8705 7.06135,7.1465 7.06135,7.28 0,0.1335 -4.51149,0.24273 -10.02554,0.24273 H 877.2289 l -10.34691,-10.08299 -10.34692,-10.08298 -15.70754,0.083 -15.70754,0.083 -0.0846,10 -0.0846,10 h -7.99544 -7.99544 z m 61.47959,-0.86264 c 1.60538,-0.53979 2.43205,-1.05167 3.40758,-2.10999 1.64549,-1.78515 2.11747,-3.75188 1.94297,-8.09636 -0.16067,-4.00035 -0.98162,-5.86779 -3.17593,-7.22443 -2.8364,-1.75361 -3.94364,-1.82952 -26.77421,-1.8356 l -20.88,-0.006 v 9.86666 c 0,5.42667 0.10338,9.97006 0.22974,10.09641 0.12636,0.12636 9.88236,0.1829 21.68,0.12565 21.19358,-0.10286 21.47562,-0.11264 23.56985,-0.81679 z"
       style="fill:#000000" />
  </g>
</svg>
