<svg width="58" height="40" viewBox="0 0 58 40" fill="none" xmlns="http://www.w3.org/2000/svg">
<g clip-path="url(#clip0_3108_7558)">
<path d="M43.0975 22.4742C42.793 21.0563 42.2105 19.8839 41.3703 18.8167C39.6485 16.628 36.8594 15.2447 33.0845 15.2447C27.2159 15.2447 23.6077 19.083 22.5392 23.1289C21.5795 20.276 19.0112 18.3514 16.2983 17.5382C18.3403 16.1046 19.4093 14.0537 19.4093 11.7126C19.4093 9.53947 18.4701 7.56138 16.8978 6.27402C14.5912 4.38546 11.4471 4 7.57294 4C4.59907 4 3.47716 4 0 4V35.495C2.14569 35.495 4.35119 35.4858 6.50118 35.495C8.41405 35.5035 10.2822 35.4925 12.0242 35.4253C17.5382 35.2125 21.3123 32.5393 22.5202 28.5251C22.9351 30.3099 23.7329 31.7649 24.7748 32.8691C26.8981 35.1201 29.9766 36 33.0767 36C36.8939 36 39.6536 34.9338 41.539 33.2999L38.8405 30.2452C37.4826 31.2313 35.7373 31.8126 33.7773 31.8126C29.9333 31.8009 28.2382 29.4583 28.0863 27.2059H43.0972V35.495H48.7199V4.15729H43.0972V22.4742H43.0975ZM5.77756 8.25501L7.33991 8.25418C8.84869 8.25418 10.0403 8.41043 10.8984 8.73124C12.5927 9.36435 13.3981 10.6619 13.3981 12.2827C13.4 13.6531 12.8556 15.8068 9.86236 16.3955C9.36166 16.494 8.64041 16.5485 7.62136 16.5485C6.18229 16.5485 5.77756 16.5485 5.77756 16.5485V8.25501ZM12.1339 30.8854C11.4301 31.0072 10.5694 31.0344 9.87033 31.0344C7.75541 31.0344 5.77713 31.0344 5.77713 31.0344L5.77734 20.7595C5.77734 20.7595 7.92582 20.7595 9.43977 20.7595C10.5957 20.7595 11.9037 20.8847 12.6531 21.0737C15.2225 21.723 16.6986 23.4973 16.6986 25.847C16.6986 28.28 15.3393 30.3291 12.1339 30.8854ZM28.1898 23.2901C28.6853 20.996 30.4461 19.3447 33.041 19.3447C35.6388 19.3447 37.3668 20.8242 37.8146 23.2901H28.1898Z" fill="#0067A4"/>
<path d="M58.0035 4.15625H52.4766V35.4937H58.0035V4.15625Z" fill="#0067A4"/>
</g>
<defs>
<clipPath id="clip0_3108_7558">
<rect width="58" height="40" fill="white"/>
</clipPath>
</defs>
</svg>
