<svg width="60" height="60" viewBox="0 0 60 60" fill="none" xmlns="http://www.w3.org/2000/svg">
<path d="M15.5366 5.5349C21.7702 10.8509 28.4762 21.6281 30.9375 27.4116V42.6873C30.9375 42.3622 30.8271 42.7296 30.5892 43.5212C29.3046 47.8071 24.2868 64.5342 12.8128 51.1619C6.77121 44.1214 9.56812 37.0808 20.5655 34.9552C14.2741 36.1709 7.20111 34.1617 5.26061 26.2843C4.70156 24.0183 3.75 10.0603 3.75 8.17511C3.75 -1.26809 11.0388 1.7001 15.5366 5.5349ZM46.3384 5.5349C40.1048 10.8509 33.3988 21.6281 30.9375 27.4116V42.6873C30.9375 42.3622 31.0479 42.7296 31.2858 43.5212C32.5704 47.8071 37.5882 64.5342 49.0622 51.1619C55.1038 44.1214 52.3069 37.0808 41.3095 34.9552C47.6009 36.1709 54.6739 34.1617 56.6144 26.2843C57.1734 24.0183 58.125 10.0603 58.125 8.17511C58.125 -1.26809 50.837 1.7001 46.3384 5.5349Z" fill="#0085FF"/>
</svg>
