<svg width="186" height="40" viewBox="0 0 186 40" fill="none" xmlns="http://www.w3.org/2000/svg">
<path d="M0 5.25879L5.68073 6.89532V29.5549L0 31.1915V5.25879Z" fill="#3259B4"/>
<path d="M8.96094 16.8418L14.5154 18.2266V30.4376L8.96094 31.5706V16.8418Z" fill="#3C8CFF"/>
<path d="M18.4297 14.4502L23.6055 13.0654V28.046L18.4297 26.5353V14.4502Z" fill="#00C8D2"/>
<path d="M27.0156 4.00098L32.6964 5.6375V31.0666L27.0156 32.4514V4.00098Z" fill="#78E6DD"/>
<path d="M173.018 21.1423H183.042C182.874 19.8776 182.332 18.8529 181.416 18.0682C180.5 17.2835 179.388 16.8911 178.079 16.8911C176.752 16.8911 175.612 17.2927 174.659 18.0959C173.715 18.8898 173.168 19.9053 173.018 21.1423ZM173.018 23.2472C173.112 24.6135 173.654 25.7213 174.645 26.5706C175.645 27.4199 176.902 27.8446 178.416 27.8446C179.388 27.8446 180.294 27.6415 181.135 27.2353C181.976 26.8291 182.747 26.229 183.448 25.4351L185.369 26.9583C184.406 28.0661 183.35 28.8831 182.201 29.4093C181.061 29.9355 179.771 30.1986 178.332 30.1986C177.145 30.1986 176.037 29.9863 175.009 29.5617C173.981 29.137 173.098 28.5323 172.36 27.7476C171.715 27.0552 171.219 26.2567 170.874 25.352C170.528 24.4381 170.355 23.4826 170.355 22.4855C170.355 20.1222 171.07 18.2113 172.5 16.7527C173.93 15.294 175.799 14.5647 178.107 14.5647C180.462 14.5647 182.364 15.3448 183.813 16.905C185.271 18.4559 186 20.5053 186 23.0533V23.2472H173.018ZM167.141 18.4005C166.676 17.8835 166.146 17.505 165.548 17.265C164.961 17.0158 164.288 16.8911 163.53 16.8911C162.061 16.8911 160.852 17.4081 159.904 18.4421C158.966 19.4668 158.497 20.7823 158.497 22.3886C158.497 23.9949 158.961 25.3058 159.89 26.3213C160.828 27.3368 162.042 27.8446 163.53 27.8446C164.335 27.8446 165.046 27.7061 165.662 27.4291C166.288 27.1522 166.818 26.7414 167.254 26.1967L169.003 28.1492C168.207 28.86 167.368 29.3816 166.487 29.714C165.615 30.0371 164.629 30.1986 163.53 30.1986C162.402 30.1986 161.359 30.014 160.402 29.6447C159.445 29.2755 158.615 28.74 157.914 28.0384C157.165 27.2999 156.596 26.4552 156.208 25.5043C155.829 24.5442 155.639 23.5057 155.639 22.3886C155.639 21.2716 155.829 20.233 156.208 19.2729C156.596 18.3128 157.165 17.4635 157.914 16.725C158.625 16.0141 159.454 15.4787 160.402 15.1186C161.35 14.7494 162.392 14.5647 163.53 14.5647C164.61 14.5647 165.586 14.7217 166.458 15.0356C167.34 15.3494 168.141 15.8249 168.861 16.4619L167.141 18.4005ZM141.257 29.8248V14.9386H143.918V16.6419C144.588 15.968 145.291 15.4695 146.027 15.1463C146.773 14.814 147.57 14.6478 148.42 14.6478C150.165 14.6478 151.543 15.2294 152.553 16.3926C153.562 17.5558 154.067 19.1575 154.067 21.1977V29.8248H151.378V21.4608C151.378 19.9007 151.099 18.7606 150.543 18.0405C149.995 17.3112 149.132 16.9465 147.952 16.9465C146.612 16.9465 145.603 17.3343 144.923 18.1097C144.253 18.876 143.918 20.0299 143.918 21.5716V29.8248H141.257ZM131.02 27.7476C132.52 27.7476 133.753 27.2445 134.72 26.2382C135.686 25.232 136.17 23.9395 136.17 22.3609C136.17 20.7915 135.686 19.5037 134.72 18.4975C133.753 17.482 132.52 16.9742 131.02 16.9742C129.519 16.9742 128.286 17.4773 127.319 18.4836C126.353 19.4899 125.87 20.7823 125.87 22.3609C125.87 23.9488 126.353 25.2458 127.319 26.2521C128.286 27.2491 129.519 27.7476 131.02 27.7476ZM138.655 29.8248H136.032V27.3876C135.406 28.2646 134.642 28.9247 133.74 29.3678C132.847 29.8017 131.82 30.0186 130.661 30.0186C129.63 30.0186 128.645 29.8248 127.706 29.437C126.776 29.0401 125.948 28.4677 125.221 27.7199C124.53 26.9999 124.01 26.1875 123.661 25.2828C123.311 24.3781 123.136 23.3949 123.136 22.3332C123.136 20.0345 123.822 18.179 125.193 16.7665C126.574 15.3541 128.396 14.6478 130.661 14.6478C131.802 14.6478 132.847 14.8832 133.795 15.3541C134.743 15.8156 135.553 16.4896 136.225 17.3758V14.9386H138.655V29.8248ZM107.578 10.7151V27.2768H109.642C112.652 27.2768 114.919 26.5798 116.442 25.1858C117.974 23.7918 118.74 21.7285 118.74 18.996C118.74 16.2541 117.974 14.1909 116.442 12.8061C114.919 11.4121 112.652 10.7151 109.642 10.7151H107.578ZM109.216 8.15332C113.253 8.15332 116.323 9.07649 118.424 10.9228C120.534 12.7599 121.59 15.451 121.59 18.996C121.59 22.5317 120.534 25.2228 118.424 27.0691C116.323 28.9062 113.253 29.8248 109.216 29.8248H104.756V8.15332H109.216ZM87.9911 21.1423H97.8526C97.6871 19.8776 97.1538 18.8529 96.2527 18.0682C95.3516 17.2835 94.2574 16.8911 92.9701 16.8911C91.6644 16.8911 90.5427 17.2927 89.6048 18.0959C88.6761 18.8898 88.1382 19.9053 87.9911 21.1423ZM87.9911 23.2472C88.083 24.6135 88.6163 25.7213 89.591 26.5706C90.5748 27.4199 91.8115 27.8446 93.3011 27.8446C94.2574 27.8446 95.1493 27.6415 95.9768 27.2353C96.8044 26.8291 97.563 26.229 98.2526 25.4351L100.142 26.9583C99.1951 28.0661 98.156 28.8831 97.0251 29.4093C95.9033 29.9355 94.6344 30.1986 93.2184 30.1986C92.0506 30.1986 90.961 29.9863 89.9496 29.5617C88.9381 29.137 88.0692 28.5323 87.3428 27.7476C86.7084 27.0552 86.2211 26.2567 85.8808 25.352C85.5406 24.4381 85.3705 23.4826 85.3705 22.4855C85.3705 20.1222 86.0739 18.2113 87.4807 16.7527C88.8876 15.294 90.7265 14.5647 92.9977 14.5647C95.3148 14.5647 97.186 15.3448 98.6112 16.905C100.046 18.4559 100.763 20.5053 100.763 23.0533V23.2472H87.9911ZM78.0284 11.3106V14.9387H75.7966H72.8129L68.8014 24.3551C68.7348 24.512 68.6062 24.8626 68.4159 25.4073C68.2351 25.9427 68.0115 26.6029 67.7451 27.3876C67.5071 26.5568 67.3024 25.8781 67.1311 25.3519C66.9693 24.8257 66.8551 24.4935 66.7884 24.3551L62.834 14.9387H59.7934L66.2032 29.8247L63.5051 36.0008H66.2603L74.8362 17.0597L78.0284 17.1542V26.7367C78.0284 27.983 78.3503 28.8738 78.994 29.4092C79.6377 29.9354 80.7193 30.1986 82.2388 30.1986H83.9326V27.6923H82.3497C81.8959 27.6923 81.5636 27.5907 81.3525 27.3876C81.152 27.1845 81.0517 26.8614 81.0517 26.4182V17.1542H83.9326V14.9387H81.0517V11.3106H78.0284ZM43.4336 29.8248V8.15332H47.644C49.269 8.15332 50.5511 8.22717 51.4903 8.37488C52.44 8.51336 53.2261 8.74415 53.8487 9.06726C54.9145 9.62116 55.7217 10.3228 56.2705 11.1721C56.8297 12.0122 57.1094 12.963 57.1094 14.0247C57.1094 14.9017 56.8509 15.7049 56.3338 16.4342C55.8273 17.1635 55.1044 17.7589 54.1653 18.2205C55.7059 18.6636 56.8719 19.356 57.6634 20.2976C58.4654 21.23 58.8663 22.384 58.8663 23.7595C58.8663 25.4674 58.096 26.9075 56.5554 28.08C55.0253 29.2432 53.1153 29.8248 50.8255 29.8248H43.4336ZM46.6468 17.4866H49.306C50.7833 17.4866 51.9229 17.1865 52.7249 16.5865C53.5374 15.9864 53.9437 15.1417 53.9437 14.0524C53.9437 12.9077 53.5374 12.0445 52.7249 11.4629C51.9124 10.8813 50.6989 10.5905 49.0844 10.5905H46.6468V17.4866ZM46.6468 27.2768H49.9233C51.7699 27.2768 53.1681 26.9675 54.1178 26.349C55.0781 25.7305 55.5582 24.8166 55.5582 23.6072C55.5582 22.4163 55.0939 21.5162 54.1653 20.9069C53.2367 20.2884 51.8649 19.9791 50.0499 19.9791H46.6468V27.2768Z" fill="#3259B4"/>
</svg>
