<svg width="112" height="40" viewBox="0 0 112 40" fill="none" xmlns="http://www.w3.org/2000/svg">
<path d="M76.011 28.9287C76.0047 28.9349 75.9984 28.9349 75.9984 28.9412C71.2272 32.3006 65.5787 35.8295 59.501 39.5343L59.2612 39.6724C59.1791 39.7289 59.1602 39.8419 59.2171 39.9236C59.2738 40.0052 59.3874 40.024 59.4695 39.9676L59.6714 39.8608C64.8276 37.1858 70.7475 34.0086 76.7052 30.7497C76.7368 30.7308 76.7683 30.712 76.7998 30.6994C76.4717 30.1594 76.2003 29.5692 76.011 28.9287ZM107.314 3.71766C99.7978 -4.53323 51.4228 2.88883 30.8547 7.3596L30.3751 7.46006C30.2741 7.47889 30.211 7.5731 30.2299 7.66732C30.2489 7.76778 30.3435 7.83057 30.4382 7.81168L30.9115 7.71752C47.9516 4.6972 83.395 0.515265 91.0189 8.03778C93.3477 10.336 92.7924 13.2872 90.0912 16.7784C91.5427 17.7078 92.5778 19.1708 93.0448 20.998C103.584 14.0407 110.659 7.39102 107.314 3.71766Z" fill="#D03027"/>
<path d="M79.0537 26.763C79.1483 29.664 80.9975 32.0438 83.402 32.0438C88.066 32.0438 90.054 26.3424 89.9151 22.5371C89.8142 19.6298 87.9208 17.2563 85.5163 17.2563C81.5087 17.25 78.9148 22.9264 79.0537 26.763ZM76.5923 26.6061C76.4219 21.6518 80.3222 16.5844 85.9896 16.5844C89.7763 16.5844 92.2566 19.0961 92.3954 22.9452C92.5785 28.1696 88.9306 32.9669 83.0045 32.9669C79.2051 32.9669 76.7248 30.4614 76.5923 26.6061ZM22.9178 25.3C22.7159 25.3753 22.4572 25.4507 22.129 25.5197C21.8071 25.5951 21.2139 25.6955 20.3556 25.8337C19.7623 25.9278 19.3521 26.0472 19.1185 26.2167C18.8977 26.38 18.7652 26.5746 18.7273 26.8196C18.6831 27.077 18.7651 27.2779 18.986 27.4412C19.2132 27.5981 19.5919 27.6798 20.1284 27.6798C20.5322 27.6798 20.9236 27.617 21.3022 27.4914C21.6872 27.3658 22.0154 27.1963 22.2615 26.9828C22.4445 26.8258 22.5771 26.6249 22.678 26.38C22.7411 26.2167 22.8232 25.8588 22.9179 25.3H22.9178ZM27.8406 22.2545C27.8216 22.7067 27.7396 23.1085 27.6197 23.8055L26.7866 28.4584C26.7172 28.8728 26.8686 29.1931 27.2536 29.4191L27.2284 29.6012L22.4572 29.5949L22.4129 28.4144C21.7188 28.8289 20.8794 29.1805 20.122 29.3877C19.3647 29.5824 18.7525 29.664 17.8374 29.664C16.2975 29.664 15.4139 29.507 14.8018 28.9733C14.1832 28.427 13.8803 28.0628 13.9119 27.3093C13.9371 26.8761 14.1643 26.3172 14.4862 25.9279C14.8144 25.5323 15.2688 25.2749 15.7547 25.0426C16.247 24.8102 16.8277 24.6406 17.667 24.5088C18.5127 24.3706 19.6866 24.2388 21.2581 24.1069C22.0848 24.0378 22.5897 23.8495 22.8232 23.7553C23.1514 23.6297 23.2839 23.4853 23.3281 23.2215C23.4164 22.7443 23.265 22.468 22.6213 22.3424C20.9046 22.0034 17.6796 22.5622 16.0198 22.9704L16.9223 20.5466C19.1123 20.2263 21.1634 20.0254 23.3281 20.0254C26.7803 20.0254 27.8784 20.9987 27.8405 22.2545H27.8406ZM41.6746 29.5949L43.3282 20.2954H47.8974L46.2439 29.5949H41.6746ZM43.5806 18.1417C43.7195 17.3756 44.9312 16.7602 46.2817 16.7602C47.6386 16.7602 48.6295 17.3819 48.497 18.1417C48.3518 18.9078 47.1464 19.5294 45.7832 19.5294C44.4326 19.5294 43.448 18.9077 43.5806 18.1417ZM64.1215 25.3188C63.9132 25.3879 63.6482 25.4632 63.3263 25.5386C63.0044 25.6139 62.4112 25.7081 61.5529 25.8463C60.9659 25.9404 60.5494 26.0598 60.3222 26.2293C60.1013 26.3863 59.9751 26.5872 59.9246 26.8258C59.8741 27.0832 59.9688 27.2905 60.1833 27.4474C60.4168 27.6044 60.7955 27.6798 61.332 27.6798C61.7295 27.6798 62.1209 27.6233 62.5058 27.504C62.8971 27.3721 63.219 27.2089 63.4714 26.9953C63.6481 26.8383 63.7807 26.6311 63.8753 26.3926C63.9385 26.2355 64.0205 25.8776 64.1215 25.3188ZM69.0442 22.2671C69.0252 22.7255 68.9432 23.1274 68.817 23.8181L67.9902 28.4772C67.9208 28.8854 68.0723 29.2119 68.4573 29.4379L68.432 29.6012L63.6607 29.6075L63.6229 28.4207C62.9287 28.8414 62.083 29.1931 61.332 29.394C60.5746 29.5949 59.9624 29.6766 59.0347 29.6766C57.4948 29.6766 56.6175 29.5259 56.0053 28.9859C55.3805 28.4333 55.0839 28.0753 55.1155 27.3218C55.1344 26.8823 55.3616 26.3235 55.6898 25.9404C56.0179 25.5386 56.4724 25.2874 56.9647 25.0551C57.4569 24.8228 58.0376 24.6532 58.8706 24.515C59.7163 24.3832 60.8965 24.245 62.468 24.1132C63.2884 24.0441 63.7933 23.862 64.0268 23.7678C64.3613 23.6422 64.4875 23.4978 64.538 23.2278C64.6201 22.7569 64.4749 22.4806 63.8375 22.3487C62.1082 22.0096 58.8959 22.5685 57.236 22.9767L58.1322 20.5529C60.3285 20.2326 62.3733 20.0317 64.538 20.0317C67.9776 20.038 69.0757 21.0176 69.0442 22.2671V22.2671ZM13.2933 26.2544C11.8039 26.5495 10.9709 26.6626 9.50039 26.6626C7.31674 26.6626 5.58115 25.5825 5.67584 23.6046C5.74528 22.2859 7.31041 19.5106 11.2928 19.5106C12.5487 19.5106 13.5269 19.7303 14.8459 20.4775L15.4265 17.25C13.6342 16.5781 12.4477 16.4776 10.9078 16.4902C5.68211 16.5467 0.67105 18.9078 0.0462629 23.7113C-0.584852 28.5903 5.40441 29.8147 8.06148 29.8022C9.59503 29.7959 11.1917 29.7331 12.6812 29.5824L13.2933 26.2544ZM50.4156 20.2452L50.7437 18.3489L55.5213 17.3128L55.0101 20.2389H57.3515L56.9097 22.1101L54.6377 22.1039L53.2556 29.5824C53.2556 29.5824 48.6548 29.551 48.6358 29.5824L50.0116 22.1227H48.2824L48.6358 20.2389H50.4156V20.2452ZM69.0336 29.5947L71.3751 16.6218L75.9065 16.7474L73.685 29.5884L69.0336 29.5947ZM35.6285 22.4743C35.029 22.4743 34.4862 22.6564 34.0066 23.0143C33.5269 23.3785 33.224 23.906 33.1041 24.603C32.9589 25.413 33.0472 25.997 33.3691 26.3549C33.6973 26.7128 34.1643 26.8949 34.7828 26.8949C35.1994 26.8949 35.6285 26.8195 35.9441 26.6626C36.3354 26.4553 36.6067 26.2418 36.8403 25.8965C37.0927 25.5386 37.2568 25.1367 37.3452 24.672C37.4777 23.9374 37.3641 23.3911 37.0233 23.0269C36.6888 22.6627 36.2281 22.4743 35.6285 22.4743ZM27.3104 32.8035L29.5383 20.3456H33.5521L33.2429 21.9343C33.59 21.4571 34.1454 21.0677 34.9154 20.7537C35.6917 20.4398 36.5626 20.2075 37.5093 20.2075C38.5569 20.2075 39.2006 20.264 39.9832 20.6658C40.7595 21.074 41.3086 21.6643 41.5988 22.4303C41.9018 23.1838 41.965 24.0378 41.8008 24.9608C41.5294 26.4993 40.7784 27.7048 39.5415 28.5965C38.3171 29.4881 37.2126 29.7205 35.6411 29.7267C35.0858 29.7267 34.6188 29.6702 34.2338 29.5761C33.8551 29.4755 33.5521 29.3563 33.3249 29.2118C33.1041 29.0674 32.8706 28.8602 32.5739 28.5337L31.8292 32.8035H27.3104ZM110.25 23.6171C110.224 22.8699 109.846 22.3613 109.069 22.3613C107.195 22.3613 105.201 26.0158 104.86 27.4851C107.933 27.4914 110.325 25.6705 110.25 23.6171ZM110.654 29.3438L111.013 29.5887C110.098 31.441 108.236 32.9292 106.053 32.9292C104.267 32.9292 102.796 31.7424 102.72 29.5196C102.575 25.5323 106.33 21.8339 109.404 21.8339C110.723 21.8339 111.947 22.4052 111.998 23.8181C112.111 26.9891 107.637 27.9561 104.69 28.0251C104.595 28.3579 104.557 28.6907 104.576 29.1931C104.626 30.5054 105.422 31.6106 107.075 31.6106C108.501 31.6106 109.928 30.4677 110.654 29.3438H110.654Z" fill="#004977"/>
<path d="M92.3279 23.5163C92.6434 23.4724 93.1546 23.4159 93.3755 23.4159C93.71 23.4159 94.0256 23.4787 94.0445 23.8115C94.0508 24.0062 93.6974 25.4189 93.6217 25.7455L92.9085 28.8725C92.6182 30.1534 92.309 31.4909 92.0312 32.5521H93.8615L94.8902 27.5978C98.0268 24.3452 99.2386 23.284 99.977 23.284C100.311 23.284 100.539 23.4598 100.558 23.8554C100.577 24.4268 100.217 25.7266 100.097 26.1034L99.0492 29.7139C98.8094 30.5239 98.6327 31.2585 98.6516 31.7797C98.6832 32.5709 99.1629 32.9226 99.8823 32.9226C101.22 32.9226 102.192 31.5348 103.038 30.1723L102.792 29.7264C102.451 30.2727 101.656 31.4721 101.031 31.4721C100.835 31.4721 100.646 31.3402 100.64 31.0137C100.621 30.593 100.797 29.9587 100.924 29.538L102.091 25.3058C102.407 24.1379 102.552 23.3907 102.546 22.9888C102.514 22.1977 102.053 21.8271 101.34 21.8271C100.135 21.8271 98.5381 22.7063 95.149 26.5806H95.0985L95.5276 24.6905C95.7612 23.6545 95.9884 22.5744 96.2029 21.8272C95.029 22.2479 93.3503 22.7188 92.3152 22.9198L92.3279 23.5163Z" fill="#004977"/>
</svg>
