<?xml version="1.0" encoding="UTF-8"?>
<svg xmlns="http://www.w3.org/2000/svg" xmlns:xlink="http://www.w3.org/1999/xlink" width="24px" height="24px" viewBox="0 0 24 24" version="1.1">
<g id="surface1">
<path style=" stroke:none;fill-rule:nonzero;fill:rgb(50.588235%,38.431373%,66.666667%);fill-opacity:1;" d="M 23.921875 22.625 L 0.078125 22.625 L 1.273438 20.261719 L 0.078125 18.128906 L 23.921875 18.128906 L 22.726562 20.261719 Z M 23.921875 22.625 "/>
<path style=" stroke:none;fill-rule:nonzero;fill:rgb(11.764706%,13.72549%,13.333333%);fill-opacity:1;" d="M 21.847656 19.441406 L 2.179688 19.441406 L 5.902344 17.617188 L 18.128906 17.617188 Z M 21.847656 19.441406 "/>
<path style=" stroke:none;fill-rule:nonzero;fill:rgb(90.980392%,15.686275%,16.862745%);fill-opacity:1;" d="M 17.890625 20.375 L 23.777344 10.230469 L 22.675781 10.230469 L 17.339844 19.421875 "/>
<path style=" stroke:none;fill-rule:nonzero;fill:rgb(59.607843%,79.215686%,24.705882%);fill-opacity:1;" d="M 11.308594 19.421875 L 6.660156 19.421875 L 1.324219 10.230469 L 0.222656 10.230469 L 6.109375 20.375 L 11.347656 20.375 "/>
<path style=" stroke:none;fill-rule:nonzero;fill:rgb(79.607843%,86.666667%,44.705882%);fill-opacity:1;" d="M 1.324219 10.230469 L 6.65625 1.035156 L 6.109375 0.078125 L 0.222656 10.230469 Z M 1.324219 10.230469 "/>
<path style=" stroke:none;fill-rule:nonzero;fill:rgb(94.117647%,45.882353%,14.509804%);fill-opacity:1;" d="M 17.339844 1.035156 L 22.675781 10.230469 L 23.777344 10.230469 L 17.890625 0.078125 L 17.878906 0.078125 L 17.332031 1.035156 Z M 17.339844 1.035156 "/>
<path style=" stroke:none;fill-rule:nonzero;fill:rgb(97.254902%,77.254902%,9.803922%);fill-opacity:1;" d="M 6.660156 1.035156 L 17.332031 1.035156 L 17.878906 0.078125 L 6.109375 0.078125 L 6.65625 1.035156 Z M 6.660156 1.035156 "/>
<path style=" stroke:none;fill-rule:nonzero;fill:rgb(87.843137%,88.235294%,88.627451%);fill-opacity:1;" d="M 6.660156 19.421875 L 17.339844 19.421875 L 22.675781 10.230469 L 1.324219 10.230469 Z M 6.660156 19.421875 "/>
<path style=" stroke:none;fill-rule:nonzero;fill:rgb(87.843137%,88.235294%,88.627451%);fill-opacity:1;" d="M 17.339844 1.035156 L 17.332031 1.035156 L 16.539062 2.417969 L 17.332031 1.035156 L 6.65625 1.035156 L 6.945312 1.539062 L 6.65625 1.035156 L 1.324219 10.230469 L 22.675781 10.230469 Z M 17.339844 1.035156 "/>
<path style=" stroke:none;fill-rule:nonzero;fill:rgb(38.823529%,53.72549%,77.647059%);fill-opacity:1;" d="M 2.195312 19.421875 L 21.804688 19.421875 L 21.804688 23.921875 L 2.195312 23.921875 Z M 2.195312 19.421875 "/>
<path style=" stroke:none;fill-rule:nonzero;fill:rgb(11.764706%,13.72549%,13.333333%);fill-opacity:1;" d="M 7.132812 13.953125 C 7.242188 13.953125 7.351562 13.964844 7.460938 13.988281 C 7.554688 14.007812 7.640625 14.042969 7.726562 14.089844 L 7.726562 14.410156 C 7.632812 14.375 7.535156 14.34375 7.441406 14.324219 C 7.355469 14.304688 7.261719 14.292969 7.171875 14.292969 C 7.078125 14.292969 6.980469 14.3125 6.886719 14.34375 C 6.792969 14.375 6.707031 14.425781 6.636719 14.5 C 6.558594 14.578125 6.496094 14.675781 6.457031 14.785156 C 6.40625 14.925781 6.382812 15.074219 6.386719 15.222656 C 6.386719 15.34375 6.402344 15.460938 6.4375 15.574219 C 6.46875 15.679688 6.519531 15.773438 6.589844 15.855469 C 6.65625 15.933594 6.742188 15.996094 6.839844 16.035156 C 6.949219 16.082031 7.070312 16.105469 7.1875 16.105469 C 7.285156 16.105469 7.382812 16.09375 7.476562 16.074219 C 7.578125 16.050781 7.671875 16.023438 7.765625 15.984375 L 7.765625 16.304688 C 7.726562 16.324219 7.691406 16.339844 7.652344 16.355469 C 7.605469 16.371094 7.554688 16.386719 7.503906 16.398438 C 7.445312 16.410156 7.390625 16.421875 7.332031 16.429688 C 7.273438 16.433594 7.210938 16.441406 7.148438 16.441406 C 6.996094 16.441406 6.84375 16.414062 6.699219 16.367188 C 6.5625 16.324219 6.4375 16.246094 6.332031 16.148438 C 6.222656 16.042969 6.136719 15.910156 6.082031 15.769531 C 6.015625 15.597656 5.984375 15.414062 5.988281 15.230469 C 5.984375 15.089844 6.003906 14.945312 6.035156 14.808594 C 6.066406 14.695312 6.109375 14.585938 6.167969 14.480469 C 6.222656 14.390625 6.289062 14.308594 6.363281 14.242188 C 6.507812 14.113281 6.679688 14.027344 6.867188 13.988281 C 6.953125 13.964844 7.042969 13.953125 7.132812 13.953125 Z M 8.363281 13.457031 L 8.363281 13.03125 L 8.761719 13.03125 L 8.761719 13.457031 Z M 8.375 16.367188 L 8.375 14.007812 L 8.773438 14.007812 L 8.773438 16.367188 Z M 9.5625 16.367188 L 9.5625 12.773438 L 9.9375 12.773438 L 9.9375 16.367188 Z M 10.742188 13.457031 L 10.742188 13.03125 L 11.125 13.03125 L 11.125 13.457031 Z M 10.753906 16.367188 L 10.753906 14.007812 L 11.136719 14.007812 L 11.136719 16.367188 Z M 12.839844 16.433594 C 12.726562 16.4375 12.617188 16.421875 12.507812 16.394531 C 12.414062 16.371094 12.328125 16.335938 12.246094 16.285156 C 12.175781 16.238281 12.109375 16.179688 12.058594 16.109375 C 12.007812 16.042969 11.964844 15.96875 11.9375 15.890625 C 11.914062 15.828125 11.898438 15.761719 11.886719 15.695312 C 11.878906 15.617188 11.871094 15.539062 11.871094 15.460938 L 11.871094 14.007812 L 12.257812 14.007812 L 12.257812 15.457031 C 12.257812 15.570312 12.273438 15.679688 12.3125 15.785156 C 12.351562 15.878906 12.417969 15.964844 12.507812 16.019531 C 12.609375 16.078125 12.726562 16.109375 12.847656 16.105469 C 12.972656 16.113281 13.097656 16.078125 13.199219 16.011719 C 13.289062 15.949219 13.355469 15.863281 13.390625 15.757812 C 13.421875 15.660156 13.4375 15.558594 13.433594 15.457031 L 13.433594 14.007812 L 13.820312 14.007812 L 13.820312 15.460938 C 13.820312 15.535156 13.8125 15.609375 13.804688 15.683594 C 13.796875 15.75 13.78125 15.8125 13.761719 15.875 C 13.730469 15.957031 13.691406 16.03125 13.636719 16.101562 C 13.585938 16.171875 13.515625 16.230469 13.441406 16.277344 C 13.359375 16.332031 13.269531 16.371094 13.171875 16.394531 C 13.066406 16.421875 12.957031 16.4375 12.839844 16.433594 Z M 16.46875 16.367188 L 16.082031 16.367188 L 16.082031 14.855469 C 16.085938 14.765625 16.074219 14.679688 16.046875 14.59375 C 16.03125 14.53125 15.996094 14.46875 15.953125 14.417969 C 15.910156 14.371094 15.859375 14.335938 15.800781 14.316406 C 15.738281 14.292969 15.671875 14.28125 15.605469 14.28125 C 15.472656 14.28125 15.339844 14.320312 15.230469 14.394531 C 15.109375 14.472656 15.007812 14.578125 14.929688 14.695312 L 14.929688 16.367188 L 14.542969 16.367188 L 14.542969 14.015625 L 14.839844 14.015625 L 14.914062 14.34375 L 14.921875 14.34375 C 14.964844 14.289062 15.011719 14.238281 15.0625 14.191406 C 15.113281 14.144531 15.171875 14.101562 15.230469 14.070312 C 15.296875 14.03125 15.363281 14.003906 15.433594 13.984375 C 15.511719 13.964844 15.59375 13.953125 15.675781 13.957031 C 15.832031 13.953125 15.988281 13.996094 16.113281 14.082031 C 16.234375 14.167969 16.324219 14.289062 16.378906 14.425781 L 16.390625 14.425781 C 16.484375 14.289062 16.605469 14.167969 16.746094 14.078125 C 16.890625 13.996094 17.050781 13.953125 17.21875 13.953125 C 17.304688 13.953125 17.394531 13.964844 17.480469 13.988281 C 17.574219 14.011719 17.660156 14.054688 17.738281 14.113281 C 17.824219 14.183594 17.890625 14.269531 17.933594 14.371094 C 17.988281 14.503906 18.015625 14.648438 18.007812 14.792969 L 18.007812 16.367188 L 17.625 16.367188 L 17.625 14.855469 C 17.625 14.765625 17.613281 14.679688 17.589844 14.59375 C 17.570312 14.53125 17.535156 14.46875 17.492188 14.417969 C 17.449219 14.371094 17.398438 14.335938 17.339844 14.316406 C 17.277344 14.292969 17.210938 14.28125 17.144531 14.28125 C 17.011719 14.28125 16.878906 14.320312 16.769531 14.394531 C 16.648438 14.472656 16.546875 14.574219 16.464844 14.695312 L 16.464844 16.367188 Z M 16.46875 16.367188 "/>
<path style=" stroke:none;fill-rule:nonzero;fill:rgb(79.607843%,86.666667%,44.705882%);fill-opacity:1;" d="M 8.523438 4.847656 L 9.945312 4.847656 L 10.65625 6.078125 L 9.945312 7.308594 L 8.523438 7.308594 L 7.8125 6.078125 Z M 8.523438 4.847656 "/>
<path style=" stroke:none;fill-rule:nonzero;fill:rgb(59.607843%,79.215686%,24.705882%);fill-opacity:1;" d="M 8.523438 8.015625 L 9.945312 8.015625 L 10.65625 9.238281 L 9.945312 10.464844 L 8.523438 10.464844 L 7.8125 9.238281 Z M 8.523438 8.015625 "/>
<path style=" stroke:none;fill-rule:nonzero;fill:rgb(38.823529%,53.72549%,77.647059%);fill-opacity:1;" d="M 11.300781 9.574219 L 12.71875 9.574219 L 13.429688 10.796875 L 12.71875 12.023438 L 11.300781 12.023438 L 10.589844 10.796875 Z M 11.300781 9.574219 "/>
<path style=" stroke:none;fill-rule:nonzero;fill:rgb(90.980392%,15.686275%,16.862745%);fill-opacity:1;" d="M 11.300781 6.40625 L 12.71875 6.40625 L 13.429688 7.636719 L 12.71875 8.871094 L 11.300781 8.871094 L 10.589844 7.640625 Z M 11.300781 6.40625 "/>
<path style=" stroke:none;fill-rule:nonzero;fill:rgb(97.254902%,77.254902%,9.803922%);fill-opacity:1;" d="M 11.300781 3.257812 L 12.71875 3.257812 L 13.429688 4.480469 L 12.71875 5.703125 L 11.300781 5.703125 L 10.589844 4.480469 Z M 11.300781 3.257812 "/>
<path style=" stroke:none;fill-rule:nonzero;fill:rgb(94.117647%,45.882353%,14.509804%);fill-opacity:1;" d="M 14.050781 4.847656 L 15.496094 4.847656 L 16.21875 6.078125 L 15.496094 7.308594 L 14.050781 7.308594 L 13.328125 6.078125 Z M 14.050781 4.847656 "/>
<path style=" stroke:none;fill-rule:nonzero;fill:rgb(50.588235%,38.431373%,66.666667%);fill-opacity:1;" d="M 14.050781 8.015625 L 15.496094 8.015625 L 16.21875 9.238281 L 15.496094 10.464844 L 14.050781 10.464844 L 13.328125 9.238281 Z M 14.050781 8.015625 "/>
<path style=" stroke:none;fill-rule:nonzero;fill:rgb(21.568627%,21.568627%,21.568627%);fill-opacity:1;" d="M 12.84375 6.183594 L 11.148438 6.183594 L 10.296875 7.652344 L 11.148438 9.109375 L 12.84375 9.109375 L 13.703125 7.652344 Z M 12.625 8.71875 L 11.378906 8.71875 L 10.746094 7.652344 L 11.375 6.574219 L 12.625 6.574219 L 13.253906 7.652344 Z M 12.84375 9.332031 L 11.148438 9.332031 L 10.296875 10.800781 L 11.148438 12.257812 L 12.84375 12.257812 L 13.703125 10.800781 Z M 12.625 11.867188 L 11.378906 11.867188 L 10.746094 10.800781 L 11.375 9.722656 L 12.625 9.722656 L 13.253906 10.800781 Z M 12.84375 3.035156 L 11.148438 3.035156 L 10.296875 4.503906 L 11.148438 5.960938 L 12.84375 5.960938 L 13.703125 4.503906 Z M 12.625 5.570312 L 11.378906 5.570312 L 10.746094 4.503906 L 11.375 3.425781 L 12.625 3.425781 L 13.25 4.503906 Z M 15.617188 7.757812 L 13.921875 7.757812 L 13.070312 9.226562 L 13.921875 10.6875 L 15.617188 10.6875 L 16.472656 9.226562 Z M 15.394531 10.292969 L 14.152344 10.292969 L 13.523438 9.226562 L 14.152344 8.148438 L 15.394531 8.148438 L 16.023438 9.226562 Z M 15.617188 4.609375 L 13.921875 4.609375 L 13.070312 6.085938 L 13.921875 7.550781 L 15.617188 7.550781 L 16.472656 6.085938 Z M 15.394531 7.160156 L 14.152344 7.160156 L 13.523438 6.089844 L 14.152344 5.003906 L 15.394531 5.003906 L 16.023438 6.089844 Z M 10.078125 7.757812 L 8.386719 7.757812 L 7.539062 9.226562 L 8.386719 10.6875 L 10.078125 10.6875 L 10.933594 9.226562 Z M 9.855469 10.292969 L 8.617188 10.292969 L 7.988281 9.226562 L 8.617188 8.148438 L 9.855469 8.148438 L 10.480469 9.226562 Z M 10.078125 4.609375 L 8.386719 4.609375 L 7.539062 6.085938 L 8.386719 7.550781 L 10.078125 7.550781 L 10.933594 6.085938 Z M 9.855469 7.160156 L 8.617188 7.160156 L 7.988281 6.085938 L 8.617188 5 L 9.855469 5 L 10.480469 6.085938 Z M 9.855469 7.160156 "/>
<path style=" stroke:none;fill-rule:nonzero;fill:rgb(100%,100%,100%);fill-opacity:1;" d="M 7.246094 20.453125 L 7.09375 20.636719 C 7.015625 20.546875 6.898438 20.488281 6.792969 20.488281 C 6.59375 20.488281 6.4375 20.640625 6.4375 20.839844 C 6.4375 21.042969 6.59375 21.199219 6.792969 21.199219 C 6.894531 21.199219 7.011719 21.144531 7.09375 21.0625 L 7.246094 21.230469 C 7.125 21.355469 6.949219 21.4375 6.78125 21.4375 C 6.433594 21.4375 6.171875 21.179688 6.171875 20.84375 C 6.171875 20.511719 6.4375 20.257812 6.789062 20.257812 C 6.957031 20.261719 7.128906 20.335938 7.246094 20.453125 Z M 7.246094 20.453125 "/>
<path style=" stroke:none;fill-rule:nonzero;fill:rgb(100%,100%,100%);fill-opacity:1;" d="M 8.0625 20.488281 L 8.0625 20.738281 L 8.621094 20.738281 L 8.621094 20.953125 L 8.0625 20.953125 L 8.0625 21.210938 L 8.699219 21.210938 L 8.699219 21.425781 L 7.800781 21.425781 L 7.800781 20.269531 L 8.683594 20.269531 L 8.683594 20.484375 L 8.0625 20.484375 Z M 8.0625 20.488281 "/>
<path style=" stroke:none;fill-rule:nonzero;fill:rgb(100%,100%,100%);fill-opacity:1;" d="M 9.832031 21.097656 L 9.5625 21.097656 L 9.5625 21.425781 L 9.300781 21.425781 L 9.300781 20.269531 L 9.804688 20.269531 C 10.109375 20.269531 10.28125 20.414062 10.28125 20.671875 C 10.28125 20.851562 10.203125 20.976562 10.066406 21.046875 L 10.3125 21.425781 L 10.019531 21.425781 Z M 9.804688 20.878906 C 9.949219 20.878906 10.035156 20.808594 10.035156 20.679688 C 10.035156 20.546875 9.953125 20.484375 9.804688 20.484375 L 9.5625 20.484375 L 9.5625 20.875 L 9.804688 20.875 Z M 9.804688 20.878906 "/>
<path style=" stroke:none;fill-rule:nonzero;fill:rgb(100%,100%,100%);fill-opacity:1;" d="M 11.398438 20.492188 L 11.398438 21.425781 L 11.136719 21.425781 L 11.136719 20.492188 L 10.785156 20.492188 L 10.785156 20.269531 L 11.753906 20.269531 L 11.753906 20.492188 Z M 11.398438 20.492188 "/>
<path style=" stroke:none;fill-rule:nonzero;fill:rgb(100%,100%,100%);fill-opacity:1;" d="M 12.289062 21.425781 L 12.289062 20.269531 L 12.550781 20.269531 L 12.550781 21.425781 Z M 12.289062 21.425781 "/>
<path style=" stroke:none;fill-rule:nonzero;fill:rgb(100%,100%,100%);fill-opacity:1;" d="M 13.46875 20.488281 L 13.46875 20.773438 L 13.992188 20.773438 L 13.992188 20.992188 L 13.46875 20.992188 L 13.46875 21.429688 L 13.207031 21.429688 L 13.207031 20.269531 L 14.039062 20.269531 L 14.039062 20.488281 Z M 13.46875 20.488281 "/>
<path style=" stroke:none;fill-rule:nonzero;fill:rgb(100%,100%,100%);fill-opacity:1;" d="M 14.589844 21.425781 L 14.589844 20.269531 L 14.851562 20.269531 L 14.851562 21.425781 Z M 14.589844 21.425781 "/>
<path style=" stroke:none;fill-rule:nonzero;fill:rgb(100%,100%,100%);fill-opacity:1;" d="M 15.765625 20.488281 L 15.765625 20.738281 L 16.324219 20.738281 L 16.324219 20.953125 L 15.765625 20.953125 L 15.765625 21.210938 L 16.402344 21.210938 L 16.402344 21.425781 L 15.503906 21.425781 L 15.503906 20.269531 L 16.386719 20.269531 L 16.386719 20.484375 L 15.765625 20.484375 Z M 15.765625 20.488281 "/>
<path style=" stroke:none;fill-rule:nonzero;fill:rgb(100%,100%,100%);fill-opacity:1;" d="M 17.5 20.269531 C 17.859375 20.269531 18.109375 20.503906 18.109375 20.847656 C 18.109375 21.1875 17.855469 21.425781 17.492188 21.425781 L 17.007812 21.425781 L 17.007812 20.265625 L 17.5 20.265625 Z M 17.269531 21.207031 L 17.507812 21.207031 C 17.703125 21.207031 17.84375 21.058594 17.84375 20.847656 C 17.84375 20.636719 17.695312 20.488281 17.496094 20.488281 L 17.269531 20.488281 Z M 17.269531 21.207031 "/>
<path style=" stroke:none;fill-rule:nonzero;fill:rgb(100%,100%,100%);fill-opacity:1;" d="M 6.121094 22.875 L 6.03125 23.101562 L 5.761719 23.101562 L 6.265625 21.941406 L 6.535156 21.941406 L 7.03125 23.101562 L 6.75 23.101562 L 6.65625 22.875 Z M 6.394531 22.210938 L 6.207031 22.664062 L 6.574219 22.664062 Z M 6.394531 22.210938 "/>
<path style=" stroke:none;fill-rule:nonzero;fill:rgb(100%,100%,100%);fill-opacity:1;" d="M 8.40625 22.054688 L 8.304688 22.269531 C 8.183594 22.199219 8.039062 22.148438 7.945312 22.148438 C 7.859375 22.148438 7.800781 22.179688 7.800781 22.242188 C 7.800781 22.457031 8.417969 22.335938 8.417969 22.753906 C 8.417969 22.980469 8.21875 23.105469 7.964844 23.105469 C 7.773438 23.105469 7.582031 23.03125 7.453125 22.921875 L 7.554688 22.707031 C 7.675781 22.8125 7.84375 22.878906 7.964844 22.878906 C 8.074219 22.878906 8.136719 22.839844 8.136719 22.769531 C 8.136719 22.550781 7.523438 22.675781 7.523438 22.265625 C 7.523438 22.054688 7.703125 21.925781 7.96875 21.925781 C 8.128906 21.929688 8.289062 21.976562 8.40625 22.054688 Z M 8.40625 22.054688 "/>
<path style=" stroke:none;fill-rule:nonzero;fill:rgb(100%,100%,100%);fill-opacity:1;" d="M 9.855469 22.054688 L 9.757812 22.269531 C 9.632812 22.199219 9.488281 22.148438 9.394531 22.148438 C 9.308594 22.148438 9.25 22.179688 9.25 22.242188 C 9.25 22.457031 9.867188 22.335938 9.867188 22.753906 C 9.867188 22.980469 9.667969 23.105469 9.414062 23.105469 C 9.222656 23.105469 9.03125 23.03125 8.902344 22.921875 L 9.003906 22.707031 C 9.125 22.8125 9.292969 22.878906 9.414062 22.878906 C 9.523438 22.878906 9.589844 22.839844 9.589844 22.769531 C 9.589844 22.550781 8.972656 22.675781 8.972656 22.265625 C 8.972656 22.054688 9.152344 21.925781 9.421875 21.925781 C 9.582031 21.929688 9.742188 21.976562 9.855469 22.054688 Z M 9.855469 22.054688 "/>
<path style=" stroke:none;fill-rule:nonzero;fill:rgb(100%,100%,100%);fill-opacity:1;" d="M 11.609375 22.519531 C 11.609375 22.851562 11.339844 23.109375 10.988281 23.109375 C 10.632812 23.109375 10.367188 22.855469 10.367188 22.519531 C 10.367188 22.179688 10.632812 21.929688 10.988281 21.929688 C 11.339844 21.929688 11.609375 22.183594 11.609375 22.519531 Z M 10.632812 22.519531 C 10.632812 22.722656 10.796875 22.882812 10.988281 22.882812 C 11.183594 22.882812 11.339844 22.722656 11.339844 22.519531 C 11.339844 22.316406 11.179688 22.160156 10.988281 22.160156 C 10.792969 22.160156 10.632812 22.316406 10.632812 22.519531 Z M 10.632812 22.519531 "/>
<path style=" stroke:none;fill-rule:nonzero;fill:rgb(100%,100%,100%);fill-opacity:1;" d="M 13.140625 22.125 L 12.988281 22.308594 C 12.910156 22.21875 12.792969 22.15625 12.6875 22.15625 C 12.488281 22.15625 12.332031 22.308594 12.332031 22.511719 C 12.332031 22.714844 12.488281 22.871094 12.6875 22.871094 C 12.789062 22.871094 12.90625 22.816406 12.988281 22.734375 L 13.140625 22.902344 C 13.019531 23.027344 12.84375 23.105469 12.675781 23.105469 C 12.328125 23.105469 12.066406 22.851562 12.066406 22.515625 C 12.066406 22.179688 12.332031 21.929688 12.683594 21.929688 C 12.847656 21.929688 13.023438 22.003906 13.140625 22.125 Z M 13.140625 22.125 "/>
<path style=" stroke:none;fill-rule:nonzero;fill:rgb(100%,100%,100%);fill-opacity:1;" d="M 13.695312 23.097656 L 13.695312 21.9375 L 13.957031 21.9375 L 13.957031 23.097656 Z M 13.695312 23.097656 "/>
<path style=" stroke:none;fill-rule:nonzero;fill:rgb(100%,100%,100%);fill-opacity:1;" d="M 14.835938 22.875 L 14.746094 23.101562 L 14.476562 23.101562 L 14.980469 21.941406 L 15.25 21.941406 L 15.742188 23.101562 L 15.464844 23.101562 L 15.371094 22.875 Z M 15.109375 22.210938 L 14.921875 22.664062 L 15.289062 22.664062 Z M 15.109375 22.210938 "/>
<path style=" stroke:none;fill-rule:nonzero;fill:rgb(100%,100%,100%);fill-opacity:1;" d="M 16.640625 22.160156 L 16.640625 23.097656 L 16.378906 23.097656 L 16.378906 22.160156 L 16.027344 22.160156 L 16.027344 21.941406 L 16.996094 21.941406 L 16.996094 22.160156 Z M 16.640625 22.160156 "/>
<path style=" stroke:none;fill-rule:nonzero;fill:rgb(100%,100%,100%);fill-opacity:1;" d="M 17.796875 22.15625 L 17.796875 22.410156 L 18.355469 22.410156 L 18.355469 22.625 L 17.796875 22.625 L 17.796875 22.882812 L 18.433594 22.882812 L 18.433594 23.097656 L 17.535156 23.097656 L 17.535156 21.9375 L 18.417969 21.9375 L 18.417969 22.15625 Z M 17.796875 22.15625 "/>
</g>
</svg>
