<svg width="315" height="60" viewBox="0 0 315 60" fill="none" xmlns="http://www.w3.org/2000/svg">
<path d="M78.1506 27.0637C79.3338 27.0637 80.438 26.8272 81.5423 26.3542C82.5677 25.8812 83.5142 25.0929 84.2241 24.1469L87.458 27.4579C84.934 30.2959 82.0156 31.7149 78.545 31.7149C76.9675 31.7937 75.4688 31.5572 73.9702 30.9266C72.5504 30.3747 71.2095 29.5076 70.0264 28.4827C68.9221 27.4579 68.0545 26.1177 67.5023 24.7776C66.9502 23.3586 66.6347 21.8607 66.7136 20.3629C66.6347 18.8651 66.9502 17.2884 67.5023 15.8694C68.0545 14.4504 68.9221 13.1891 70.0264 12.0854C71.2095 10.9817 72.6293 10.1146 74.1279 9.56275C75.6266 9.01091 77.283 8.77441 78.9394 8.85325C80.5958 8.93208 82.1733 9.32625 83.672 10.0357C85.1706 10.7452 86.4326 11.7701 87.5369 13.0314L84.4607 16.5789C83.7508 15.6329 82.8832 14.9234 81.8578 14.4504C80.8324 13.9774 79.7281 13.6621 78.545 13.6621C76.8097 13.6621 75.0744 14.2927 73.7336 15.4752C73.0237 16.1059 72.5504 16.8942 72.156 17.7614C71.8405 18.6286 71.6828 19.5746 71.6828 20.4417C71.6039 21.3877 71.7616 22.2549 72.0771 23.1221C72.3926 23.9892 72.8659 24.7776 73.5758 25.4082C74.8378 26.4331 76.4942 27.0637 78.1506 27.0637ZM91.2441 31.3996V9.16858H96.2133V26.9849H105.757V31.3996H91.2441ZM127.527 28.3251C125.24 30.4536 122.321 31.6361 119.166 31.6361C116.011 31.6361 113.093 30.4536 110.805 28.3251C109.701 27.3002 108.833 26.0389 108.281 24.6199C107.729 23.2009 107.414 21.7031 107.414 20.2052C107.335 18.7074 107.65 17.1307 108.202 15.7906C108.755 14.3716 109.622 13.1102 110.726 12.0854C113.014 9.95691 115.932 8.77441 119.087 8.77441C122.242 8.77441 125.161 9.95691 127.448 12.0854C128.553 13.1102 129.42 14.3716 129.972 15.7906C130.524 17.2096 130.84 18.7074 130.761 20.2052C130.84 21.7031 130.524 23.2797 129.972 24.6199C129.499 26.0389 128.631 27.3002 127.527 28.3251ZM125.792 20.2052C125.792 18.3132 125.082 16.5001 123.82 15.0811C123.189 14.4504 122.479 13.8986 121.69 13.5044C120.902 13.1102 119.955 12.9526 119.087 12.9526C118.22 12.9526 117.352 13.1102 116.484 13.5044C115.696 13.8986 114.907 14.3716 114.355 15.0811C113.093 16.5001 112.383 18.3132 112.383 20.2052C112.383 22.0972 113.093 23.9104 114.355 25.3294C114.986 25.9601 115.696 26.5119 116.484 26.9061C117.273 27.3002 118.22 27.4579 119.087 27.4579C119.955 27.4579 120.823 27.3002 121.69 26.9061C122.479 26.5119 123.268 26.0389 123.82 25.3294C124.451 24.6199 125.003 23.8316 125.319 22.9644C125.713 22.0184 125.871 21.1512 125.792 20.2052ZM141.015 25.7236C141.409 26.2754 141.961 26.6696 142.514 26.9061C143.066 27.1426 143.776 27.3002 144.407 27.3002C145.038 27.3002 145.669 27.2214 146.221 26.9061C146.773 26.6696 147.325 26.1966 147.641 25.7236C148.508 24.4622 148.903 23.0432 148.824 21.5454V9.24741H153.793V21.7031C153.793 24.9352 152.925 27.3791 151.111 29.1134C150.165 29.9806 149.139 30.6901 147.956 31.0842C146.773 31.5572 145.511 31.7149 144.249 31.7149C142.987 31.7149 141.725 31.5572 140.542 31.0842C139.359 30.6112 138.254 29.9806 137.387 29.1134C135.572 27.3791 134.705 24.9352 134.705 21.7031V9.24741H139.674V21.5454C139.674 23.0432 140.147 24.5411 141.015 25.7236ZM176.115 12.0854C178.245 14.0562 179.349 16.7366 179.349 20.2052C179.349 23.6739 178.323 26.4331 176.273 28.4827C174.222 30.5324 170.988 31.4784 166.807 31.4784H159.078V9.16858H166.965C170.909 9.16858 173.985 10.1146 176.115 12.0854ZM172.487 25.3294C173.67 24.2257 174.301 22.4914 174.301 20.2841C174.301 18.0767 173.67 16.4212 172.487 15.2387C171.303 14.0562 169.41 13.4256 166.886 13.4256H164.126V26.9849H167.281C169.174 27.1426 171.067 26.5907 172.487 25.3294ZM207.665 9.16858H212.635V31.4784H207.665L197.017 17.5249V31.4784H192.048V9.16858H196.702L207.665 23.5162V9.16858ZM234.01 31.3996L231.88 26.5907H222.494L220.364 31.3996H215.001L224.624 9.08975H229.435L239.137 31.3996H234.01ZM227.306 15.7906L224.545 22.2549H230.066L227.306 15.7906ZM249.785 13.5044V31.4784H244.816V13.5044H238.506V9.24741H256.174V13.5044H249.785ZM259.645 9.16858H264.614V31.4784H259.645V9.16858ZM278.417 23.3586L284.096 9.16858H289.539L280.626 31.4784H276.445L267.532 9.16858H272.975L278.417 23.3586ZM308.154 9.16858V13.5832H297.032V18.1556H307.049V22.4126H297.032V27.0637H308.548V31.4784H292.142V9.24741L308.154 9.16858ZM72.3927 50.3984C73.0237 50.3984 73.6547 50.2407 74.2857 50.0042C74.8378 49.6889 75.3899 49.2947 75.7843 48.7429L77.5985 50.6349C76.9675 51.3444 76.2576 51.975 75.3111 52.3692C74.4434 52.7634 73.4969 52.9999 72.5504 52.9999C71.6828 52.9999 70.8151 52.9211 70.0264 52.6057C69.2376 52.2904 68.4488 51.8174 67.8178 51.1867C67.1868 50.6349 66.7136 49.9254 66.3981 49.1371C66.0826 48.3487 65.9248 47.4816 65.9248 46.6144C65.9248 45.7472 66.0826 44.8801 66.3981 44.0917C66.7136 43.3034 67.1868 42.5939 67.8178 41.9632C68.4488 41.3326 69.1587 40.8596 69.9475 40.5442C70.7363 40.2289 71.6039 40.0712 72.4715 40.0712C73.418 40.0712 74.4434 40.2289 75.3111 40.6231C76.1787 41.0172 76.9675 41.6479 77.6774 42.3574L75.9421 44.3282C75.5477 43.7764 75.0744 43.3822 74.5223 43.0669C73.9702 42.7516 73.3392 42.6727 72.6293 42.6727C71.6039 42.6727 70.6574 43.0669 69.9475 43.6976C69.5531 44.0129 69.2376 44.4859 69.0799 44.9589C68.9221 45.4319 68.7643 45.9837 68.8432 46.4567C68.8432 46.9297 68.9221 47.4816 69.0799 47.9546C69.2376 48.4276 69.5531 48.9006 69.8686 49.2159C70.1841 49.5312 70.5785 49.8466 71.0518 50.0042C71.525 50.1619 71.9194 50.3984 72.3927 50.3984ZM89.982 51.1079C88.72 52.2904 87.0636 52.9999 85.3283 52.9999C84.4607 52.9999 83.5931 52.8422 82.8043 52.5269C82.0156 52.2115 81.3057 51.7386 80.6747 51.1079C79.4915 49.9254 78.7816 48.2699 78.7816 46.5356C78.7816 44.8012 79.4915 43.1457 80.6747 41.9632C81.9367 40.7807 83.5931 40.0712 85.3283 40.0712C86.196 40.0712 87.0636 40.2289 87.8524 40.5442C88.6411 40.8596 89.351 41.3326 89.982 41.9632C91.1652 43.1457 91.8751 44.8012 91.8751 46.5356C91.8751 48.2699 91.1652 49.9254 89.982 51.1079ZM89.1144 46.5356C89.1144 45.5107 88.7989 44.4859 88.089 43.6976C87.7735 43.3034 87.3791 43.0669 86.9059 42.8304C86.4326 42.5939 85.9594 42.5151 85.4861 42.5151C85.0128 42.5151 84.4607 42.5939 84.0663 42.8304C83.5931 43.0669 83.1987 43.3822 82.8832 43.7764C82.4888 44.1706 82.2522 44.5647 82.0944 45.1166C81.9367 45.5896 81.8578 46.1414 81.8578 46.6144C81.8578 47.6392 82.2522 48.6641 82.8832 49.4524C83.1987 49.8465 83.5931 50.0831 84.0663 50.3196C84.5396 50.5561 85.0128 50.6349 85.4861 50.6349C85.9594 50.6349 86.5115 50.5561 86.9059 50.3196C87.3791 50.0831 87.7735 49.7677 88.089 49.3736C88.72 48.6641 89.1144 47.6392 89.1144 46.5356ZM105.442 44.9589L102.05 51.8174H100.394L97.002 44.9589V52.8422H94.2414V40.3866H98.0274L101.261 47.2451L104.495 40.3866H108.281V52.921H105.521L105.442 44.9589ZM119.955 41.5691C120.428 41.9632 120.823 42.5151 121.059 43.1457C121.296 43.7764 121.375 44.4071 121.296 45.0377C121.296 46.6144 120.823 47.7181 119.955 48.4276C119.087 49.2159 117.668 49.4524 115.853 49.4524H114.197V52.921H111.357V40.3866H115.775C117.668 40.3866 119.008 40.7807 119.955 41.5691ZM117.904 46.4567C118.299 45.9837 118.456 45.4319 118.456 44.8012C118.456 44.4859 118.456 44.2494 118.299 43.9341C118.141 43.6976 117.983 43.4611 117.746 43.3034C117.115 42.9881 116.406 42.8304 115.696 42.8304H114.118V47.0086H116.011C116.327 47.0086 116.721 47.0086 117.037 46.9297C117.352 46.7721 117.668 46.6144 117.904 46.4567ZM126.817 49.6101C127.054 49.9254 127.29 50.083 127.685 50.2407C128 50.3984 128.395 50.4772 128.71 50.4772C129.105 50.4772 129.42 50.3984 129.736 50.2407C130.051 50.083 130.367 49.8466 130.603 49.6101C131.077 48.9006 131.313 48.0334 131.313 47.2451V40.3077H134.074V47.2451C134.153 48.0334 133.995 48.7429 133.758 49.5312C133.522 50.2407 133.127 50.9502 132.575 51.5021C131.55 52.448 130.13 52.921 128.71 52.921C127.29 52.921 125.95 52.3692 124.924 51.4232C124.372 50.8714 123.978 50.1619 123.741 49.4524C123.504 48.7429 123.347 47.9546 123.426 47.1662V40.2289H126.186V47.1662C126.028 48.0334 126.265 48.9006 126.817 49.6101ZM142.198 42.8304V52.8422H139.437V42.8304H135.888V40.4654H145.826V42.8304H142.198ZM147.798 40.3866H150.559V52.921H147.798V40.3866ZM162.39 40.3866H165.151V52.921H162.39L156.475 45.1166V52.921H153.714V40.3866H156.317L162.469 48.4276L162.39 40.3866ZM176.43 46.5356H179.191V50.9502C178.56 51.6597 177.692 52.2115 176.825 52.5269C175.957 52.921 174.932 53.0787 173.985 52.9999C172.25 52.9999 170.594 52.3692 169.332 51.1867C168.701 50.6349 168.227 49.9254 167.912 49.1371C167.596 48.3487 167.438 47.4816 167.438 46.6144C167.438 45.7472 167.596 44.8801 167.912 44.0917C168.227 43.3034 168.701 42.5939 169.332 41.9632C169.963 41.3326 170.672 40.8596 171.461 40.5442C172.25 40.2289 173.118 40.0712 173.985 40.0712C175.72 40.0712 177.377 40.7019 178.639 41.8844L177.219 44.0129C176.825 43.5399 176.273 43.2246 175.642 43.0669C175.168 42.9092 174.616 42.7516 174.143 42.7516C173.118 42.7516 172.171 43.1457 171.461 43.7764C171.067 44.1706 170.751 44.5647 170.594 45.1166C170.436 45.6684 170.278 46.1414 170.357 46.6932C170.357 47.7181 170.672 48.7429 171.382 49.5312C171.698 49.8466 172.092 50.1619 172.487 50.3196C172.881 50.4772 173.354 50.5561 173.827 50.5561C174.695 50.6349 175.484 50.3984 176.194 50.0042V46.4567H176.43V46.5356ZM194.966 40.3866V42.8304H189.208V45.5107H194.651V48.0334H189.208V52.921H186.448V40.3866H194.966ZM207.902 51.1079C206.64 52.2904 204.984 52.9999 203.248 52.9999C202.381 52.9999 201.513 52.8422 200.724 52.5269C199.935 52.2115 199.226 51.7386 198.595 51.1079C197.411 49.9254 196.702 48.2699 196.702 46.5356C196.702 44.8012 197.411 43.1457 198.595 41.9632C199.857 40.7807 201.513 40.0712 203.248 40.0712C204.116 40.0712 204.984 40.2289 205.772 40.5442C206.561 40.8596 207.271 41.3326 207.902 41.9632C209.085 43.1457 209.795 44.8012 209.795 46.5356C209.795 48.2699 209.085 49.9254 207.902 51.1079ZM206.877 46.5356C206.877 45.5107 206.561 44.4859 205.851 43.6976C205.536 43.3034 205.141 43.0669 204.668 42.8304C204.195 42.5939 203.722 42.5151 203.248 42.5151C202.775 42.5151 202.223 42.5939 201.828 42.8304C201.355 43.0669 200.961 43.3822 200.645 43.7764C200.251 44.1706 200.014 44.5647 199.857 45.1166C199.699 45.6684 199.62 46.1414 199.62 46.6144C199.62 47.6392 200.014 48.6641 200.645 49.4524C200.961 49.8465 201.355 50.0831 201.828 50.3196C202.302 50.5561 202.775 50.6349 203.248 50.6349C203.722 50.6349 204.274 50.5561 204.668 50.3196C205.141 50.0831 205.536 49.7677 205.851 49.3736C206.246 48.9794 206.482 48.5852 206.64 48.0334C206.798 47.4816 206.955 47.0874 206.877 46.5356ZM215.474 49.6101C215.711 49.9254 215.947 50.083 216.342 50.2407C216.657 50.3984 217.052 50.4772 217.367 50.4772C217.683 50.4772 218.077 50.3984 218.393 50.2407C218.708 50.083 219.024 49.8466 219.26 49.6101C219.733 48.9006 219.97 48.0334 219.97 47.2451V40.3077H222.731V47.2451C222.81 48.0334 222.652 48.7429 222.415 49.5312C222.179 50.2407 221.784 50.9502 221.232 51.5021C220.207 52.448 218.787 52.921 217.367 52.921C215.947 52.921 214.606 52.3692 213.581 51.4232C213.029 50.8714 212.635 50.1619 212.398 49.4524C212.161 48.7429 212.004 47.9546 212.082 47.1662V40.2289H214.843V47.1662C214.685 48.0334 214.922 48.9794 215.474 49.6101ZM234.325 40.3866H237.086V52.921H234.325L228.41 45.1166V52.921H225.649V40.3866H228.252L234.404 48.4276L234.325 40.3866ZM249.706 42.0421C250.337 42.5939 250.811 43.3822 251.126 44.1706C251.442 44.9589 251.599 45.8261 251.521 46.6144C251.599 47.4816 251.442 48.2699 251.126 49.0582C250.811 49.8465 250.337 50.556 249.785 51.1867C248.681 52.2904 246.867 52.921 244.422 52.921H240.162V40.3866H244.579C246.867 40.3866 248.602 40.9384 249.706 42.0421ZM247.656 49.5312C247.971 49.1371 248.287 48.7429 248.444 48.2699C248.602 47.7969 248.681 47.2451 248.681 46.7721C248.681 46.2202 248.602 45.7472 248.444 45.2742C248.287 44.8012 247.971 44.3282 247.656 43.9341C247.182 43.5399 246.709 43.3034 246.157 43.1457C245.605 42.9881 245.053 42.9092 244.501 42.9881H242.923V50.5561H244.737C245.763 50.4772 246.867 50.1619 247.656 49.5312ZM262.484 52.8422L261.38 50.1619H256.095L254.991 52.8422H251.994L257.436 40.3077H260.118L265.56 52.8422H262.484ZM258.698 44.0917L257.121 47.7181H260.276L258.698 44.0917ZM271.318 42.8304V52.8422H268.558V42.8304H264.929V40.4654H274.868V42.8304H271.318ZM276.84 40.3866H279.6V52.921H276.84V40.3866ZM293.246 51.1079C291.984 52.2904 290.328 52.9999 288.592 52.9999C287.725 52.9999 286.857 52.8422 286.068 52.5269C285.28 52.2115 284.57 51.7386 283.939 51.1079C282.755 49.9254 282.046 48.2699 282.046 46.5356C282.046 44.8012 282.755 43.1457 283.939 41.9632C285.201 40.7807 286.857 40.0712 288.592 40.0712C289.46 40.0712 290.328 40.2289 291.116 40.5442C291.905 40.8596 292.615 41.3326 293.246 41.9632C294.429 43.1457 295.139 44.8012 295.139 46.5356C295.139 48.2699 294.429 49.9254 293.246 51.1079ZM292.378 46.5356C292.378 45.5107 291.984 44.4859 291.353 43.6976C291.038 43.3034 290.643 43.0669 290.17 42.8304C289.697 42.5939 289.223 42.5151 288.75 42.5151C288.277 42.5151 287.725 42.5939 287.33 42.8304C286.857 43.0669 286.463 43.3822 286.147 43.7764C285.753 44.1706 285.516 44.5647 285.358 45.1166C285.201 45.6684 285.122 46.1414 285.122 46.6144C285.122 47.6392 285.516 48.6641 286.147 49.4524C286.463 49.8465 286.857 50.0831 287.33 50.3196C287.804 50.5561 288.277 50.6349 288.75 50.6349C289.223 50.6349 289.775 50.5561 290.17 50.3196C290.643 50.0831 291.038 49.7677 291.353 49.3736C291.984 48.6641 292.378 47.6392 292.378 46.5356ZM306.261 40.3866H309.021V52.921H306.261L300.345 45.1166V52.921H297.505V40.3866H300.108L306.261 48.4276C306.339 48.4276 306.261 40.3866 306.261 40.3866Z" fill="black"/>
<path d="M12.9198 38.0212H6.05762V54.0244H22.0695V47.1659H12.9198V38.0212ZM47.3099 38.1001V47.1659H38.1602V54.0244H54.1721V38.0212L47.3099 38.1001ZM6.05762 22.0969H12.9987L12.9198 22.0181V12.9522H22.0695V6.09375H6.05762V22.0969ZM38.1602 6.09375V12.9522H47.3099V22.0969H54.1721V6.09375H38.1602Z" fill="#0086FF"/>
<path d="M37.2137 22.0969L28.0641 12.9522H38.0814V6.09375H22.0695V12.9522L31.2191 22.0969H37.2137ZM29.0106 38.0212H23.016L30.5881 45.5892L32.0868 47.1659H22.0695V54.0244H38.1602V47.0871L33.5854 42.5936L29.0106 38.0212ZM47.3099 22.0969V32.0299L45.7323 30.4532L38.1602 22.8852V28.9554L42.6562 33.4489L47.231 38.0212H54.1721V22.0969H47.3099ZM22.0695 31.1627L12.9987 22.0969H6.05762V38.0212H12.9198V28.0882L22.0695 37.2329V31.1627Z" fill="#93EAFF"/>
</svg>
