<svg width="128" height="40" viewBox="0 0 128 40" fill="none" xmlns="http://www.w3.org/2000/svg">
<g clip-path="url(#clip0_3102_7265)">
<path d="M34.7553 21.0731L35.7368 33.6359L18.3591 36.7621L16.8581 24.1993L19.3406 23.852C19.7447 24.0257 20.0334 24.0835 20.4953 24.1993C21.2458 24.373 22.1118 24.6046 23.3819 23.9099C23.6706 23.7362 24.3056 23.2151 24.5366 22.8678L34.7553 21.0731ZM7.90943 36.0095C7.62077 35.5464 7.10117 35.0253 6.29291 34.3885C5.13825 33.4622 5.54238 31.8412 6.23517 30.857C7.10117 29.1781 11.6621 26.9782 11.4312 24.2572C11.3157 23.273 11.2002 21.9994 10.2765 21.0731C10.2429 21.3035 10.2429 21.5375 10.2765 21.7678C10.2765 21.7678 9.87236 21.3047 9.69916 20.61C9.52596 20.3784 9.35276 20.2626 9.17956 19.9152C9.0641 20.3205 9.0641 20.7257 9.0641 20.7257C9.0641 20.7257 8.77543 19.9731 8.7177 19.3942C8.5445 19.6837 8.48677 20.2047 8.48677 20.2047C8.48677 20.2047 8.08263 19.0468 8.1981 18.41C8.0249 17.889 7.44757 16.789 7.62077 14.3575C8.60223 15.0522 10.7961 14.8785 11.6621 13.6049C11.9508 13.1996 12.124 12.0418 11.5466 9.78394C11.1425 8.33661 10.161 6.19457 9.75689 5.38406L9.69916 5.44196C9.93009 6.07878 10.3342 7.46821 10.5074 8.16293C10.9693 10.1892 11.1425 10.8839 10.9116 11.8102C10.7384 12.6207 10.2765 13.1417 9.0641 13.7207C7.90943 14.2996 6.29291 12.8523 6.23517 12.7944C5.08051 11.8681 4.21452 10.3629 4.09905 9.66815C3.98358 8.85765 4.56091 8.3945 4.84958 7.75768C4.44545 7.87347 3.98358 8.10504 3.98358 8.10504C3.98358 8.10504 4.50318 7.52611 5.19598 7.06296C5.48464 6.88928 5.65784 6.7735 5.94651 6.54192H5.19598C5.19598 6.54192 5.88878 6.13667 6.63931 5.9051H5.60011L8.3713 4.68934C9.2373 4.34199 10.0456 4.45777 10.5074 5.0946C11.1425 5.96299 11.7776 6.42614 13.1054 6.7735C13.9137 6.42614 14.2023 6.19457 15.2415 5.9051C16.1653 4.86302 16.9158 4.74724 16.9158 4.74724C16.9158 4.74724 16.3962 5.21038 16.3385 5.73142C16.8581 5.32617 17.4354 4.97881 17.4354 4.97881C17.4354 4.97881 17.2045 5.26828 17.0313 5.67353L17.089 5.73142C17.7241 5.38406 18.4169 5.0946 18.4169 5.0946C18.4169 5.0946 18.1859 5.32617 17.955 5.67353C18.4169 5.67353 19.3406 5.67353 19.687 5.73142C21.8231 5.78931 22.285 3.47359 23.0932 3.12623C24.1324 2.77887 24.5943 2.5473 26.3263 4.28409C27.8274 5.78931 28.982 8.39451 28.4047 8.97344C27.9428 9.43658 26.9614 8.79976 25.8644 7.46821C25.2871 6.7735 24.883 5.9051 24.652 4.86302C24.5366 3.99463 23.9015 3.47359 23.9015 3.47359C23.9015 3.47359 24.3056 4.34199 24.3056 5.0946C24.3056 5.49985 24.3634 7.00507 24.9984 7.87347C24.9407 7.98925 24.883 8.51029 24.8252 8.56818C24.0747 7.64189 22.4004 7.00507 22.1695 6.7735C23.0932 7.52611 25.1716 9.20501 25.9799 10.826C26.7304 12.3891 26.2686 13.7786 26.6727 14.1259C26.7882 14.2417 28.2892 16.0943 28.5779 17.0785C29.0975 18.7574 28.6356 20.4942 27.9428 21.5362L26.0954 21.8257C25.8067 21.7678 25.6335 21.7099 25.4026 21.5941C25.518 21.3626 25.8067 20.7836 25.8067 20.6679L25.6912 20.4942C25.1139 21.3047 24.1324 22.1152 23.3242 22.5783C22.285 23.1573 21.0726 23.0994 20.2643 22.8099C18.0127 22.1152 15.8766 20.61 15.4147 20.2047C15.4147 20.2047 15.4147 20.4942 15.4725 20.61C16.0498 21.2468 17.3199 22.4046 18.5901 23.2151L15.9343 23.5046L17.2045 33.3464C16.6271 33.4043 16.5694 33.4622 15.9343 33.578C15.4147 31.6675 14.3755 30.4518 13.2209 29.6992C12.2394 29.0624 10.8538 28.8887 9.52596 29.1781L9.46823 29.2939C10.392 29.1781 11.4889 29.3518 12.5858 30.0465C13.6827 30.7413 14.5487 32.5359 14.8951 33.578C15.2993 34.9675 15.5879 36.4148 14.491 37.9779C13.6827 39.0779 11.3734 39.7147 9.52596 38.3832C10.0456 39.1937 10.6806 39.8305 11.6044 39.9463C12.9322 40.1199 14.2023 39.8884 15.1261 39.02C15.8766 38.2674 16.2807 36.6464 16.1653 34.9096L17.3777 34.7359L17.7818 37.8042L37.4688 35.4306L35.7368 19.6837L34.7553 19.8573L32.7924 0L0 3.82095L4.04132 36.5885L7.90943 36.0095Z" fill="#632CA6"/>
<path d="M23.5034 18.7858C24.3692 19.4223 25.1195 19.818 25.8709 19.7699C26.333 19.7125 26.7951 18.959 27.0833 18.2651C27.3143 17.8018 27.3143 17.2811 26.9689 17.1182C26.7974 17.0609 26.1031 17.0609 25.5965 17.1182C24.6151 17.2329 23.6338 17.5816 23.4028 17.7548C23.0562 17.9864 23.2312 18.5656 23.5172 18.787L23.5034 18.7858ZM23.7459 12.0019V12.0593L23.8031 12.174C24.0341 12.6373 24.2652 13.1007 24.7272 13.3209C24.8416 13.3209 24.9583 13.2635 25.0738 13.2635C25.3479 13.2553 25.6215 13.2945 25.8824 13.3793V13.0318C25.8252 12.4527 25.9968 11.4113 24.853 10.8321C24.391 10.6004 23.8237 10.7174 23.5949 10.9468H23.7093C23.9975 11.0615 23.8237 11.1785 23.7665 11.2943C23.7093 11.526 23.6521 11.5833 23.7665 11.9893" fill="#632CA6"/>
<path d="M18.5451 12.1279C18.8333 11.8962 17.2183 11.5487 15.9465 12.3595C15.0224 12.9961 15.0224 14.3276 15.8893 15.08C16.0037 15.1373 16.0609 15.1947 16.1204 15.252C16.3514 15.1373 16.6979 15.0203 16.9862 14.9045C17.5637 14.7325 18.0155 14.6155 18.4295 14.557C18.6011 14.3253 18.8333 13.9778 18.7761 13.3413C18.7189 12.4731 18.0258 12.6463 18.5451 12.1256V12.1279ZM31.2473 28.3966L27.9568 26.1968L25.1855 30.828L21.9522 29.844L19.1238 34.1861L19.2382 35.5624L34.7105 32.7261L33.7863 23.0578L31.2473 28.3966Z" fill="#632CA6"/>
<path d="M109.014 24.4299C106.372 24.4299 104.95 22.9017 104.95 19.9471C104.95 16.9926 106.271 15.4644 109.014 15.4644C111.656 15.4644 112.976 16.9926 112.976 19.9471C112.976 22.9017 111.656 24.4299 109.014 24.4299ZM109.014 13.4268C104.747 13.4268 102.512 15.5663 102.512 19.9471C102.715 24.328 104.95 26.4675 109.014 26.4675C113.281 26.4675 115.415 24.328 115.415 19.9471C115.516 15.5663 113.383 13.4268 109.014 13.4268Z" fill="#632CA6"/>
<path d="M124.245 15.4644C125.566 15.4644 126.785 15.6681 127.902 16.1775V14.038C126.785 13.6305 125.566 13.4268 124.143 13.4268C119.47 13.4268 117.133 15.5663 117.133 19.8453C117.133 24.328 119.47 26.5694 124.042 26.5694C125.667 26.5694 126.886 26.3657 128.004 25.8562V19.0302H124.042L123.229 21.1697H125.566V24.2262C125.058 24.328 124.55 24.4299 124.042 24.4299C121.095 24.4299 119.571 22.9017 119.571 19.7434C119.571 16.8907 121.197 15.4644 124.245 15.4644Z" fill="#632CA6"/>
<path d="M94.5019 24.2808H91.6571V15.5191H94.5019C97.1435 15.5191 98.5659 16.8435 98.5659 19.5943C98.4643 22.7526 97.1435 24.2808 94.5019 24.2808ZM94.8067 13.4814H89.2188V26.4203H94.8067C98.8707 26.4203 100.903 24.179 100.903 19.5943C100.903 15.5191 98.8707 13.4814 94.8067 13.4814Z" fill="#632CA6"/>
<path d="M46.4472 24.2974H43.6024V15.5357H46.4472C49.1904 15.5357 50.5112 16.8601 50.5112 19.6109C50.5112 22.7692 49.0888 24.2974 46.4472 24.2974ZM46.752 13.498H41.1641V26.4369H46.752C50.816 26.4369 52.848 24.1956 52.848 19.6109C52.848 15.5357 50.816 13.498 46.752 13.498Z" fill="#632CA6"/>
<path d="M83.433 22.8545L85.0585 26.4203H87.5985L82.0106 13.4814H79.369L73.8826 26.4203H76.321L80.6898 15.9266L82.7218 20.8169H80.0802L79.2674 22.8545H83.433ZM62.4019 22.8545L64.0275 26.4203H66.6691L60.9795 13.4814H58.4395L52.9531 26.4203H55.3915L59.6587 15.9266L61.7923 20.8169H59.0491L58.2363 22.8545H62.4019ZM65.2467 15.5191H69.0058V26.4203H71.4442V15.5191H75.1018V13.4814H65.2467V15.5191Z" fill="#632CA6"/>
</g>
<defs>
<clipPath id="clip0_3102_7265">
<rect width="128" height="40" fill="white"/>
</clipPath>
</defs>
</svg>
