<svg width="248" height="41" viewBox="0 0 248 41" fill="none" xmlns="http://www.w3.org/2000/svg">
<path d="M21.8059 4.17699C18.7074 2.08586 14.8339 1.00861 10.3137 1.00861H0.5V31.6902H10.3137C14.8339 31.6902 18.7074 30.5479 21.8059 28.3301C23.4843 27.1261 24.8402 25.4769 25.7452 23.3857C26.6486 21.2929 27.1653 18.885 27.1653 16.1585C27.1653 13.432 26.7127 11.024 25.7452 8.9946C24.8402 6.90347 23.5501 5.25591 21.8059 4.17699ZM6.24944 6.14306H9.34789C12.7705 6.14306 15.6107 6.77673 17.7416 8.10745C20.1308 9.50321 21.3567 12.228 21.3567 16.0951C21.3567 20.0889 20.1308 22.8788 17.7416 24.3996C15.6748 25.7303 12.8989 26.429 9.41206 26.429H6.31361V6.14306H6.24944ZM34.0747 0.563368C33.1055 0.563368 32.3322 0.881874 31.6855 1.51555C31.0404 2.14923 30.6521 2.90964 30.6521 3.86015C30.6521 4.81067 30.9763 5.57275 31.6213 6.26979C32.2663 6.90347 33.1055 7.22031 34.0747 7.22031C35.0439 7.22031 35.8173 6.90347 36.5282 6.26979C37.1732 5.63612 37.4974 4.81067 37.4974 3.86015C37.4974 2.90964 37.1732 2.14923 36.5282 1.51555C35.8173 0.945242 34.9781 0.563368 34.0747 0.563368ZM31.2329 10.0085H36.7848V31.6252H31.2329V10.0085ZM56.8597 11.8478C55.1813 10.3904 53.3088 9.56491 51.3079 9.56491C48.2736 9.56491 45.6901 10.5805 43.7534 12.6716C41.7525 14.701 40.7833 17.2991 40.7833 20.4058C40.7833 23.4491 41.7525 26.0472 43.6892 28.14C45.626 30.1677 48.2094 31.1816 51.2437 31.1816C53.3746 31.1816 55.1814 30.6113 56.7314 29.4707V29.9776C56.7314 31.7519 56.2147 33.1477 55.3114 34.0982C54.3421 35.0487 52.9863 35.5557 51.372 35.5557C48.7903 35.5557 47.2402 34.5418 45.2393 32.0071L41.4941 35.5557L41.6224 35.6824C42.4633 36.8247 43.6892 37.9019 45.3034 38.9158C46.9177 39.9297 49.0486 40.5 51.4379 40.5C54.7305 40.5 57.3764 39.4861 59.3132 37.5217C61.2516 35.5557 62.2833 32.8942 62.2833 29.6608V10.0102H56.8597V11.8478ZM55.3772 24.5897C54.408 25.667 53.1821 26.1739 51.5679 26.1739C49.9537 26.1739 48.7261 25.667 47.8227 24.5897C46.8535 23.5125 46.4027 22.1167 46.4027 20.3424C46.4027 18.5681 46.8535 17.1724 47.8227 16.0951C48.792 15.0179 50.0178 14.5109 51.5679 14.5109C53.1821 14.5109 54.408 15.0179 55.3772 16.0951C56.3447 17.1724 56.7973 18.6315 56.7973 20.3424C56.8614 22.1167 56.3447 23.5125 55.3772 24.5897ZM66.9994 10.0085H72.5512V31.6252H66.9994V10.0085ZM69.8445 0.563368C68.8753 0.563368 68.1003 0.881874 67.4553 1.51555C66.8103 2.14923 66.4219 2.90964 66.4219 3.86015C66.4219 4.81067 66.7444 5.57275 67.3911 6.26979C68.0361 6.90347 68.8753 7.22031 69.8445 7.22031C70.8121 7.22031 71.5871 6.90347 72.298 6.26979C72.943 5.63612 73.2655 4.81067 73.2655 3.86015C73.2655 2.90964 72.943 2.14923 72.298 1.51555C71.5871 0.945242 70.8121 0.563368 69.8445 0.563368ZM84.6918 4.17699H79.2682V10.0102H76.1039V14.9545H79.2682V23.8927C79.2682 26.6808 79.8491 28.7103 80.9466 29.8509C82.11 30.9915 84.1109 31.6252 86.8869 31.6252C87.7902 31.6252 88.6953 31.6252 89.5986 31.5618H89.857V26.6175L87.9844 26.7442C86.6927 26.7442 85.7893 26.4907 85.3368 26.0472C84.886 25.6036 84.6918 24.6531 84.6918 23.1956V15.0179H89.857V10.0735H84.6918V4.17699ZM115.811 0.943574H121.363V31.6269H115.811V0.943574ZM177.213 23.8927C176.244 24.9699 175.21 25.9204 174.435 26.4274C173.662 26.9343 172.693 27.1244 171.595 27.1244C169.981 27.1244 168.625 26.5541 167.592 25.3501C166.558 24.1461 165.978 22.6236 165.978 20.786C165.978 18.9483 166.494 17.4258 167.528 16.2218C168.561 15.0179 169.917 14.4476 171.531 14.4476C173.338 14.4476 175.21 15.5248 176.825 17.4258L180.506 14.0023C178.116 10.9607 175.082 9.56491 171.465 9.56491C168.431 9.56491 165.785 10.6438 163.654 12.7983C161.523 14.9545 160.426 17.6159 160.426 20.8494C160.426 24.0828 161.523 26.8076 163.654 28.9004C165.785 31.0549 168.431 32.1338 171.465 32.1338C175.469 32.1338 178.697 30.4212 180.892 27.3145L177.213 23.8927ZM199.939 13.0518C199.164 11.9745 198.066 11.0874 196.775 10.4537C195.483 9.82005 193.933 9.50321 192.19 9.50321C189.092 9.50321 186.573 10.6438 184.702 12.7983C182.829 15.0179 181.924 17.7427 181.924 20.9127C181.924 24.2095 182.957 26.8726 184.958 28.9638C186.961 30.9915 189.673 32.0704 192.965 32.0704C196.711 32.0704 199.745 30.6113 202.068 27.6964L202.198 27.5697L198.583 24.1461C198.259 24.5263 197.742 24.9699 197.356 25.4135C196.839 25.9204 196.322 26.3006 195.741 26.5541C194.875 26.9657 193.927 27.1827 192.965 27.1895C191.415 27.1895 190.189 26.7459 189.22 25.8571C188.317 25.0333 187.8 23.956 187.67 22.562H202.327L202.392 20.5959C202.392 19.2018 202.198 17.8694 201.81 16.6021C201.295 15.2713 200.712 14.1307 199.939 13.0518ZM187.866 18.1245C188.1 17.1684 188.59 16.2921 189.286 15.5882C190.061 14.8911 191.029 14.5109 192.192 14.5109C193.548 14.5109 194.58 14.8911 195.29 15.6515C195.935 16.3486 196.324 17.1724 196.388 18.1879H187.866V18.1245ZM221.182 11.6577C219.504 10.2636 217.181 9.56491 214.275 9.56491C212.402 9.56491 210.724 9.94678 209.174 10.7072C207.606 11.4815 206.304 12.6934 205.428 14.1924L205.494 14.2558L209.045 17.6159C210.529 15.3347 212.144 14.5109 214.275 14.5109C215.436 14.5109 216.406 14.8278 217.115 15.3981C217.826 15.9684 218.212 16.7288 218.212 17.7427V18.8216C216.856 18.4397 215.5 18.1862 214.145 18.1862C211.369 18.1862 209.174 18.8216 207.495 20.0889C205.817 21.3563 204.978 23.1956 204.978 25.4769C204.978 27.5063 205.687 29.1539 207.108 30.3578C208.529 31.5618 210.335 32.1338 212.466 32.1338C214.597 32.1338 216.534 31.3084 218.342 29.8509V31.6252H223.766V17.7427C223.7 15.0812 222.861 13.0518 221.182 11.6577ZM211.367 23.3841C212.014 22.9405 212.853 22.7504 214.015 22.7504C215.447 22.762 216.867 23.0198 218.211 23.5125V25.6036C216.985 26.6808 215.37 27.2512 213.434 27.2512C212.465 27.2512 211.755 27.0611 211.239 26.6175C210.722 26.2373 210.464 25.7303 210.464 25.0333C210.464 24.3362 210.722 23.7659 211.367 23.3841ZM245.006 12.0379C243.456 10.327 241.325 9.50321 238.549 9.50321C236.354 9.50321 234.547 10.1369 233.255 11.3409V10.0102H227.832V31.6269H233.384V19.7087C233.384 18.0612 233.772 16.7922 234.547 15.8416C235.32 14.8911 236.418 14.4476 237.84 14.4476C239.066 14.4476 240.035 14.8278 240.744 15.6515C241.455 16.4753 241.777 17.6159 241.777 19.0751V31.5635H247.329V19.0751C247.329 16.0951 246.556 13.7505 245.006 12.0379ZM108.843 11.6577C107.164 10.2636 104.839 9.56491 101.935 9.56491C100.062 9.56491 98.3841 9.94678 96.834 10.7072C95.2665 11.481 93.9641 12.6931 93.0888 14.1924L93.153 14.2558L96.704 17.6159C98.1899 15.3347 99.8041 14.5109 101.935 14.5109C103.097 14.5109 104.064 14.8278 104.775 15.3981C105.486 15.9684 105.873 16.7288 105.873 17.7427V18.8216C104.517 18.4397 103.161 18.1862 101.805 18.1862C99.0291 18.1862 96.834 18.8216 95.1556 20.0889C93.4772 21.3563 92.6363 23.1956 92.6363 25.4769C92.6363 27.5063 93.3472 29.1539 94.7672 30.3578C96.1873 31.5618 97.9957 32.1338 100.127 32.1338C102.258 32.1338 104.194 31.3084 106.003 29.8509V31.6252H111.425V17.7427C111.36 15.0812 110.521 13.0518 108.843 11.6577ZM99.0274 23.3841C99.6741 22.9405 100.513 22.7504 101.675 22.7504C103.108 22.762 104.528 23.0198 105.871 23.5125V25.6036C104.645 26.6808 103.031 27.2512 101.094 27.2512C100.125 27.2512 99.4158 27.0611 98.8991 26.6175C98.3824 26.2373 98.124 25.7303 98.124 25.0333C98.124 24.3362 98.3824 23.7659 99.0274 23.3841ZM141.379 32.0704C132.535 32.0704 125.303 24.9699 125.303 16.2852C125.303 7.60051 132.535 0.5 141.379 0.5C150.225 0.5 157.456 7.60051 157.456 16.2852C157.456 24.9699 150.289 32.0704 141.379 32.0704ZM141.377 6.01632C135.631 6.01632 130.983 10.5805 130.983 16.2218C130.983 21.8632 135.631 26.429 141.377 26.429C147.123 26.429 151.772 21.8632 151.772 16.2218C151.772 10.5805 147.123 6.01632 141.377 6.01632Z" fill="#0080FF"/>
</svg>
