<?xml version="1.0" encoding="UTF-8" standalone="no"?>
<svg
   version="1.1"
   width="106.56762"
   height="40.587833"
   id="svg1"
   xmlns="http://www.w3.org/2000/svg"
   xmlns:svg="http://www.w3.org/2000/svg">
  <defs
     id="defs1" />
  <path
     id="e"
     d="M 13.780015,8.8553273 C 6.2635039,8.8553273 0,11.886498 0,21.031403 c 0,7.244776 4.211753,11.807101 13.9741,11.807101 11.490739,0 12.227337,-7.194953 12.227337,-7.194953 h -5.567806 c 0,0 -1.193784,3.874206 -6.999179,3.874206 -4.7283369,0 -8.1291419,-3.03616 -8.1291419,-7.291779 H 26.783692 v -2.670464 c 0,-4.210145 -2.811733,-10.7001867 -13.003677,-10.7001867 z m -0.194084,3.4129907 c 4.500886,0 7.569302,2.62097 7.569302,6.549252 H 5.6284568 c 0,-4.170351 4.0050665,-6.549252 7.9574742,-6.549252 z"
     style="fill:#e53238;fill-opacity:1;stroke:none;stroke-width:0.346561" />
  <path
     id="b"
     d="m 26.779741,0 v 28.24597 c 0,1.603331 -0.120383,3.85459 -0.120383,3.85459 h 5.310512 c 0,0 0.190613,-1.616886 0.190613,-3.094564 0,0 2.623737,3.90169 9.757871,3.90169 7.512531,0 12.615507,-4.957754 12.615507,-12.06077 0,-6.607834 -4.68725,-11.9224066 -12.60338,-11.9224066 -7.412894,0 -9.716363,3.8050236 -9.716363,3.8050236 V 0 Z m 13.780016,12.418212 c 5.101592,0 8.345644,3.59901 8.345644,8.428704 0,5.17897 -3.746772,8.567068 -8.309254,8.567068 -5.444919,0 -8.382033,-4.041114 -8.382033,-8.520947 0,-4.174331 2.635558,-8.474825 8.345643,-8.474825 z"
     style="fill:#0064d2;fill-opacity:1;stroke:none;stroke-width:0.346561" />
  <path
     id="a"
     d="m 67.731617,8.8553273 c -11.308023,0 -12.033251,5.8854997 -12.033251,6.8259807 h 5.628455 c 0,0 0.295155,-3.436052 6.016626,-3.436052 3.717907,0 6.598883,1.617583 6.598883,4.727454 v 1.106916 h -6.598883 c -8.760484,0 -13.391845,2.436042 -13.391845,7.379439 0,4.865013 4.279231,7.512038 10.062081,7.512038 7.881127,0 10.419922,-4.139404 10.419922,-4.139404 0,1.646429 0.133546,3.268861 0.133546,3.268861 h 5.003641 c 0,0 -0.194085,-2.011055 -0.194085,-3.297687 V 17.681829 c 0,-7.291918 -6.187716,-8.8265017 -11.645084,-8.8265017 z M 73.94233,21.400374 v 1.475887 c 0,1.92496 -1.249639,6.710679 -8.606444,6.710679 -4.028562,0 -5.755825,-1.911116 -5.755825,-4.127875 0,-4.03272 5.816709,-4.058691 14.362269,-4.058691 z"
     style="fill:#f5af02;fill-opacity:1;stroke:none;stroke-width:0.346561" />
  <path
     id="y"
     d="m 76.345861,9.7786867 h 6.332014 L 91.765197,27.08413 100.83172,9.7786867 h 5.7359 L 90.053094,40.587834 h -6.016628 l 4.765476,-8.588469 z"
     style="fill:#86b817;fill-opacity:1;stroke:none;stroke-width:0.346561" />
</svg>
