<svg aria-labelledby="logoTitle" class="brand-logo" fill="none" height="20" role="img" viewBox="0 0 107 29" width="74" xmlns="http://www.w3.org/2000/svg">
<title id="logoTitle">ECCO US Home</title>
<path clip-rule="evenodd" d="M39.7926 3.04053C38.1765 3.04053 36.7295 3.30015 35.3076 3.83473C32.6423 4.83501 30.2998 6.71028 28.804 9.07164C27.5482 11.0599 26.8151 13.4088 26.8151 15.9192C26.8151 23.0482 32.6276 28.8198 39.7926 28.8198C43.8901 28.8198 47.5238 26.9424 49.9026 23.9978C50.2163 23.6151 50.4017 23.1296 50.4017 22.6023C50.4017 21.3761 49.3969 20.3816 48.1624 20.3816C47.4545 20.3816 46.8269 20.708 46.4158 21.225C44.8572 23.123 42.4512 24.3829 39.7926 24.3829C37.8835 24.3829 36.1286 23.7617 34.7111 22.7086C33.5209 21.8256 32.5832 20.6391 31.989 19.2662C31.5445 18.2409 31.281 17.1108 31.281 15.9192C31.281 14.2984 31.7535 12.7788 32.5537 11.4889C33.5393 9.91283 35.0759 8.66976 36.8469 8.00688C37.7808 7.65414 38.7325 7.47584 39.7926 7.47584C41.6398 7.47584 43.357 8.06116 44.7516 9.0519C45.3769 9.50001 45.9269 10.0097 46.4098 10.603C46.8203 11.1083 47.4501 11.428 48.1536 11.428C48.6512 11.428 49.1185 11.2681 49.4898 10.996L49.515 10.9492C50.0664 10.5465 50.3869 9.94362 50.3869 9.21035C50.3869 8.68446 50.1809 8.18657 49.8686 7.80369C47.4943 4.8967 43.8583 3.04053 39.7926 3.04053ZM66.6487 3.0502C65.0326 3.0502 63.5871 3.31272 62.1614 3.84655C59.4985 4.84394 57.1618 6.71846 55.6617 9.08357C54.4044 11.068 53.6713 13.4192 53.6713 15.9457C53.6713 23.0607 59.4837 28.8323 66.6487 28.8323C70.7417 28.8323 74.382 26.9505 76.7623 24.0068C77.0724 23.6299 77.2599 23.1399 77.2599 22.6126C77.2599 21.3843 76.2655 20.3905 75.0222 20.3905C74.3164 20.3905 73.6865 20.7206 73.2761 21.234C71.7133 23.1378 69.3131 24.3933 66.6487 24.3933C64.7484 24.3933 62.9868 23.7743 61.5716 22.7176C60.3792 21.836 59.4432 20.6517 58.8518 19.2773C58.4074 18.2535 58.1371 17.1278 58.1371 15.9457C58.1371 14.3109 58.6133 12.7908 59.4121 11.5037C60.3955 9.92476 61.9377 8.68459 63.7074 8.0216C64.6406 7.67325 65.5907 7.48702 66.6487 7.48702C68.5003 7.48702 70.2153 8.07073 71.6121 9.06887C72.233 9.50743 72.7897 10.0223 73.2717 10.6119C73.6807 11.1179 74.3017 11.4406 75.0075 11.4406C75.5072 11.4406 75.9746 11.2807 76.3474 11.0079L76.3733 10.9639C76.9211 10.5555 77.2407 9.95329 77.2407 9.22507C77.2407 8.69189 77.0363 8.20054 76.7292 7.81926C74.3504 4.90777 70.7166 3.0502 66.6487 3.0502ZM83.4502 23.9978C85.8282 26.9424 89.4627 28.8198 93.566 28.8198C100.729 28.8198 106.535 23.0482 106.535 15.9192C106.535 13.4088 105.812 11.0599 104.557 9.07164C104.159 8.44909 103.455 8.01642 102.653 8.01642C101.426 8.01642 100.424 9.01156 100.424 10.2378C100.424 10.6726 100.583 11.1457 100.799 11.4889C101.607 12.7788 102.071 14.2984 102.071 15.9192C102.071 17.1108 101.807 18.2409 101.361 19.2662C100.763 20.6391 99.8274 21.8256 98.6476 22.7086C97.219 23.7617 95.4642 24.3829 93.566 24.3829C90.8993 24.3829 88.4934 23.123 86.9385 21.225C85.7396 19.7686 85.0471 17.952 85.0471 15.9192C85.0471 13.0964 86.4476 10.5898 88.5989 9.0519C89.9892 8.06116 91.7099 7.47584 93.566 7.47584C94.6152 7.47584 95.58 7.65414 96.5117 8.00688C96.7494 8.0912 97.0107 8.13744 97.2721 8.13744C98.5065 8.13744 99.5069 7.14445 99.5069 5.91823C99.5069 4.96407 98.8987 4.14638 98.0452 3.83473C96.6277 3.30015 95.1739 3.04053 93.566 3.04053C89.4922 3.04053 85.8554 4.8967 83.4732 7.80369C81.6635 10.0221 80.5805 12.8478 80.5805 15.9192C80.5805 18.9794 81.6635 21.7883 83.4502 23.9978ZM7.0342 5.92413C7.0342 4.96483 7.64331 4.14864 8.49229 3.83473C9.91864 3.30155 11.3679 3.04053 12.9832 3.04053C17.0474 3.04053 20.6834 4.89885 23.06 7.81174C23.3693 8.18797 23.5781 8.68887 23.5781 9.2154C23.5781 9.94663 23.2386 10.5472 22.6893 10.9586L7.90456 22.705C9.32205 23.7529 11.0769 24.3851 12.9832 24.3851C15.6402 24.3851 18.0456 23.1274 19.607 21.2272C20.0116 20.708 20.648 20.386 21.353 20.386C22.586 20.386 23.5885 21.3761 23.5885 22.6045C23.5885 23.134 23.4076 23.6173 23.0954 23.9978C20.7174 26.9445 17.0748 28.8234 12.9832 28.8234C5.81229 28.8234 0 23.0518 0 15.9419C0 13.4103 0.73299 11.0599 1.99107 9.0739C2.38462 8.45274 3.08813 8.02373 3.88483 8.02373C5.12132 8.02373 6.11793 9.01307 6.11793 10.2392C6.11793 10.677 5.95561 11.1501 5.73626 11.494C4.93383 12.7825 4.47235 14.3058 4.47235 15.9419C4.47235 17.1175 4.72712 18.2453 5.17002 19.2706L17.9599 9.09514C16.5631 8.1 14.8245 7.4796 12.9832 7.4796C11.9237 7.4796 10.9633 7.65919 10.0279 8.00903C9.7939 8.09635 9.5347 8.14474 9.26751 8.14474C8.03308 8.14474 7.0342 7.151 7.0342 5.92413Z" fill="black" fill-rule="evenodd"></path>
<path clip-rule="evenodd" d="M104.194 0.521218C102.992 0.521218 102.011 1.49996 102.011 2.70224C102.011 3.90609 102.992 4.8841 104.194 4.8841C105.396 4.8841 106.374 3.90609 106.374 2.70224C106.374 1.49996 105.396 0.521218 104.194 0.521218ZM104.194 5.40484C102.703 5.40484 101.491 4.19309 101.491 2.70237C101.491 1.21311 102.703 0 104.194 0C105.685 0 106.896 1.21311 106.896 2.70237C106.896 4.19309 105.685 5.40484 104.194 5.40484ZM103.904 1.35536H103.328V4.01306H103.861V2.90916H104.034C104.262 2.90916 104.331 2.98551 104.403 3.18262L104.727 4.01306H105.324L104.896 2.97475C104.842 2.85766 104.764 2.71205 104.61 2.70056V2.69418C104.953 2.64916 105.164 2.39 105.164 2.07434C105.164 1.3544 104.511 1.3549 103.946 1.35534C103.932 1.35535 103.918 1.35536 103.904 1.35536ZM104.038 2.49456H103.861V1.77193H104.038C104.305 1.77193 104.606 1.79982 104.606 2.12186C104.606 2.45456 104.3 2.49456 104.038 2.49456Z" fill="black" fill-rule="evenodd"></path>
</svg>