<svg width="28" height="28" viewBox="0 0 28 28" fill="none" xmlns="http://www.w3.org/2000/svg">
<path fill-rule="evenodd" clip-rule="evenodd" d="M6 27H22C23.1046 27 24 26.1046 24 25V8.82843C24 8.29799 23.7893 7.78929 23.4142 7.41421L17.5858 1.58579C17.2107 1.21071 16.702 1 16.1716 1H6C4.89543 1 4 1.89543 4 3V25C4 26.1046 4.89543 27 6 27ZM8 22C8 21.4477 8.44772 21 9 21H19C19.5523 21 20 21.4477 20 22C20 22.5523 19.5523 23 19 23H9C8.44771 23 8 22.5523 8 22ZM9 16C8.44772 16 8 16.4477 8 17C8 17.5523 8.44771 18 9 18H19C19.5523 18 20 17.5523 20 17C20 16.4477 19.5523 16 19 16H9Z" fill="#0080FF"/>
</svg>
