<svg width="64" height="64" viewBox="0 0 64 64" fill="none" xmlns="http://www.w3.org/2000/svg">
<circle cx="32" cy="32" r="32" fill="#141A1F"/>
<path fill-rule="evenodd" clip-rule="evenodd" d="M32.1055 11C26.8577 10.9948 21.7796 12.8119 17.7811 16.1256C13.7826 19.4392 11.1252 24.033 10.2849 29.0835C9.44472 34.134 10.4767 39.3112 13.1958 43.6873C15.915 48.0633 20.1437 51.3522 25.124 52.9646C26.2356 53.1629 26.6288 52.4888 26.6288 51.9205C26.6288 51.3521 26.6288 50.0568 26.6288 48.2593C20.4607 49.5678 19.1593 45.3647 19.1593 45.3647C18.7501 44.0621 17.8808 42.9429 16.7057 42.2058C14.7129 40.8841 16.8683 40.8841 16.8683 40.8841C17.5669 40.9803 18.2338 41.2302 18.8186 41.6149C19.4035 41.9996 19.8908 42.509 20.2438 43.1046C20.5438 43.6349 20.9482 44.1022 21.4338 44.4797C21.9194 44.8572 22.4767 45.1375 23.0737 45.3045C23.6707 45.4715 24.2957 45.522 24.9127 45.4529C25.5298 45.3839 26.1268 45.1967 26.6694 44.9021C26.7545 43.8148 27.2353 42.7929 28.0251 42.0208C23.1177 41.4789 17.9664 39.6285 17.9664 31.447C17.9327 29.3098 18.7433 27.2417 20.2303 25.6711C19.568 23.8128 19.6454 21.7798 20.4472 19.9745C20.4472 19.9745 22.3044 19.3929 26.5203 22.1818C30.1406 21.2126 33.9619 21.2126 37.5821 22.1818C41.7981 19.3929 43.6417 19.9745 43.6417 19.9745C44.4547 21.7607 44.5514 23.7791 43.9129 25.6314C45.3999 27.2021 46.2104 29.2701 46.1767 31.4074C46.1767 39.6813 41.0118 41.4921 36.091 41.9811C36.6186 42.4983 37.0261 43.12 37.2857 43.8041C37.5453 44.4883 37.651 45.2188 37.5957 45.9463C37.5957 48.8276 37.5957 51.1539 37.5957 51.8544C37.5957 52.5549 37.9888 53.0968 39.114 52.8853C44.0376 51.2304 48.203 47.9321 50.8741 43.5731C53.5453 39.214 54.5504 34.0748 53.7118 29.0633C52.8732 24.0517 50.245 19.4904 46.2914 16.1852C42.3378 12.8799 37.3133 11.0433 32.1055 11Z" fill="white"/>
</svg>
