<svg width="28" height="28" viewBox="0 0 28 28" fill="none" xmlns="http://www.w3.org/2000/svg">
<rect width="28" height="28" fill="white"/>
<path fill-rule="evenodd" clip-rule="evenodd" d="M14.0649 1.11842C10.9258 1.11523 7.88814 2.22969 5.49632 4.26208C3.1045 6.29447 1.51485 9.11195 1.01225 12.2096C0.509638 15.3073 1.12693 18.4826 2.75349 21.1666C4.38005 23.8506 6.90956 25.8678 9.88873 26.8567C10.5537 26.9783 10.7888 26.5649 10.7888 26.2163C10.7888 25.8677 10.7888 25.0733 10.7888 23.9708C7.09921 24.7733 6.32075 22.1954 6.32075 22.1954C6.07597 21.3965 5.55597 20.71 4.85301 20.258C3.66098 19.4473 4.95032 19.4473 4.95032 19.4473C5.36818 19.5063 5.76712 19.6596 6.11695 19.8956C6.46678 20.1315 6.75831 20.444 6.96947 20.8092C7.14889 21.1344 7.39079 21.4211 7.68128 21.6526C7.97178 21.8842 8.30515 22.0561 8.66227 22.1585C9.01939 22.2609 9.39322 22.2919 9.76233 22.2495C10.1314 22.2072 10.4885 22.0924 10.8132 21.9117C10.864 21.2448 11.1516 20.6181 11.6241 20.1445C8.68859 19.8121 5.60715 18.6772 5.60715 13.6592C5.58699 12.3484 6.07186 11.08 6.96136 10.1167C6.5652 8.97692 6.6115 7.73002 7.0911 6.62276C7.0911 6.62276 8.20204 6.26607 10.724 7.97655C12.8895 7.38215 15.1753 7.38215 17.3409 7.97655C19.8628 6.26607 20.9657 6.62276 20.9657 6.62276C21.452 7.7183 21.5098 8.95626 21.1279 10.0924C22.0174 11.0557 22.5022 12.3241 22.4821 13.6349C22.4821 18.7096 19.3925 19.8202 16.4489 20.1202C16.7646 20.4373 17.0083 20.8187 17.1636 21.2383C17.3189 21.6579 17.3821 22.1059 17.349 22.5521C17.349 24.3194 17.349 25.7461 17.349 26.1758C17.349 26.6054 17.5842 26.9378 18.2573 26.8081C21.2025 25.7931 23.6941 23.7701 25.292 21.0966C26.8898 18.423 27.491 15.271 26.9894 12.1972C26.4878 9.12347 24.9156 6.32587 22.5507 4.29864C20.1857 2.2714 17.1801 1.145 14.0649 1.11842Z" fill="#141A1F"/>
</svg>
