<svg width="384" height="128" viewBox="0 0 384 128" fill="none" xmlns="http://www.w3.org/2000/svg">
<mask id="mask0_1616:6477" style="mask-type:alpha" maskUnits="userSpaceOnUse" x="0" y="0" width="384" height="128">
<rect width="384" height="128" fill="#C4C4C4"/>
</mask>
<g mask="url(#mask0_1616:6477)">
<path d="M192 108.001C233.421 108.001 267 106.642 267 104.965C267 103.289 233.421 101.93 192 101.93C150.579 101.93 117 103.289 117 104.965C117 106.642 150.579 108.001 192 108.001Z" fill="#F4F4F4"/>
<path d="M168.029 97.1068C169.685 102.601 173.234 105.413 175.263 105.57C178.43 105.803 179.084 103.847 178.707 102.709C178.463 101.978 173.375 98.1159 171.971 96.1641" fill="#F6D2A2"/>
<path d="M145.568 100.665C145.568 100.665 143.386 105.088 140.061 105.91C136.737 106.733 134.426 104.943 136.074 102.933C137.722 100.923 140.028 99.5607 141.241 98.0781" fill="#F6D2A2"/>
<path d="M145.568 100.566C145.568 100.566 142.757 105.213 140.132 105.856C136.82 106.687 134.497 104.893 136.145 102.879C137.793 100.865 139.809 99.6603 141.026 98.1777" stroke="black" stroke-width="2" stroke-miterlimit="10"/>
<path d="M137.012 105.8C137.046 105.467 137.153 105.146 137.325 104.859C137.497 104.572 137.729 104.326 138.005 104.139" stroke="black" stroke-width="2" stroke-miterlimit="10"/>
<path d="M143.975 27.3089C142.021 24.3603 136.796 21.9558 134.142 25.1037C131.778 27.911 134.142 30.4775 139.313 31.1295" fill="#71C2FF"/>
<path d="M140.96 29.9047C140.231 30.32 137.963 29.0243 136.82 27.9197C136.141 27.1099 137.876 26.3956 138.815 26.8275C139.755 27.2594 141.867 29.4064 140.96 29.9047Z" fill="#64B6F4"/>
<path d="M143.973 27.3089C142.019 24.3603 136.794 21.9558 134.14 25.1037C131.776 27.911 134.769 30.9177 138.881 30.9177" stroke="black" stroke-width="2" stroke-miterlimit="10"/>
<path d="M176.623 63.7516C176.623 63.7516 182.801 66.4883 184.829 65.7242C186.858 64.96 187.852 63.4152 186.345 62.3188C184.838 61.2224 183.173 61.3678 177.824 58.7266" fill="#F6D2A2"/>
<path d="M176.645 63.6051C176.645 63.6051 181.692 65.7522 184.056 65.7065C186.42 65.6608 187.65 63.4639 186.254 62.3053C184.859 61.1466 182.396 61.4041 177.502 58.4805" stroke="black" stroke-width="2" stroke-miterlimit="10"/>
<path d="M169.17 27.1937C170.437 25.0678 172.417 23.4633 174.755 22.667C176.084 22.1977 181.608 22.1354 180.188 26.3299C179.144 29.3988 175.091 30.6987 173.563 30.6945" fill="#8FCFFF"/>
<path d="M172.066 28.2623C172.066 27.4317 174.273 26.0488 175.793 25.5629C176.828 25.3552 176.621 27.224 175.793 27.847C174.965 28.4699 172.066 29.3005 172.066 28.2623Z" fill="#71C2FF"/>
<path d="M168.756 27.442C169.981 25.2362 171.956 23.5457 174.321 22.6787C175.65 22.1845 181.173 22.118 179.753 26.5325C178.709 29.7635 174.656 31.1339 173.128 31.1298" stroke="black" stroke-width="2" stroke-miterlimit="10"/>
<path d="M175.951 25.7305C175.951 25.7305 173.546 26.5195 172.188 28.2471" stroke="black" stroke-width="2" stroke-miterlimit="10"/>
<path d="M138.018 27.0067C138.018 27.0067 139.964 26.7908 140.187 28.3066" stroke="black" stroke-width="2" stroke-miterlimit="10"/>
<path d="M175.38 27.4457C174.881 27.0859 174.285 26.885 173.67 26.8691" stroke="black" stroke-width="2" stroke-miterlimit="10"/>
<path d="M137.802 94.2658C143.425 103.817 164.624 106.201 176.362 93.3979C181.496 86.4542 179.985 77.5587 179.985 65.8434C179.985 54.1282 181.103 42.5125 176.362 33.7748C173.364 28.2515 166.011 22.7282 154.074 23.023C142.137 23.3179 135.545 31.6278 134.138 39.3273C133.173 44.6014 132.067 49.9877 132.134 63.9913C132.2 77.9948 132.179 84.7225 137.802 94.2658Z" fill="#8FCFFF"/>
<path d="M182.626 45.8443C181.798 51.9864 176.681 56.6044 171.116 56.6044C164.491 56.6044 159.328 52.1525 159.328 45.8443C159.328 39.536 164.487 33.6016 171.116 33.6016C177.745 33.6016 183.359 40.4081 182.626 45.8443Z" fill="#71C2FF"/>
<path d="M151.891 46.7369C151.063 52.879 145.945 57.4928 140.381 57.4928C133.756 57.4928 133.756 53.0409 133.756 46.7369C133.756 40.4328 133.756 34.4941 140.381 34.4941C147.005 34.4941 152.607 41.3007 151.891 46.7369Z" fill="#71C2FF"/>
<path d="M136.874 92.4252C140.808 98.9992 153.022 106.96 150.331 89.5182C147.64 72.0761 147.018 77.6825 146.397 63.899C145.776 50.1156 148.741 36.843 147.018 27.8478C145.983 22.4491 140.601 28.0555 138.738 29.9243C136.874 31.7931 133.74 39.0606 132.941 46.7435C132.394 52.0259 132.295 49.8996 132.32 63.899C132.345 77.8984 132.941 85.8512 136.874 92.4252Z" fill="#71C2FF"/>
<path d="M137.802 94.2658C143.425 103.817 163.543 104.681 173.062 96.6537C182.581 88.6262 179.985 77.5504 179.985 65.8434C179.985 54.1365 181.103 42.5125 176.362 33.7748C173.364 28.2515 166.011 22.7282 154.074 23.023C142.137 23.3179 135.545 31.6278 134.138 39.3273C133.173 44.6014 132.067 49.9877 132.134 63.9913C132.2 77.9948 132.179 84.7225 137.802 94.2658Z" stroke="black" stroke-width="2" stroke-miterlimit="10"/>
<path d="M157.75 51.0176C154.888 50.4611 152.326 51.2377 152.019 52.7826C151.837 53.7087 152.528 54.7054 153.737 55.4737C153.551 56.3998 153.195 58.2976 153.092 58.796C152.677 60.7769 155.539 61.7653 156.28 59.7761C156.151 61.6324 158.971 62.0518 159.472 59.7761C159.886 57.9903 160.031 57.0601 160.105 56.5866C161.348 56.3001 162.213 55.6772 162.383 54.8175C162.685 53.2893 160.611 51.5824 157.75 51.0176Z" fill="#71C2FF"/>
<path d="M155.544 53.8926C155.544 53.8926 155.034 57.1526 154.922 57.8503C154.562 59.9683 157.187 60.9899 157.655 58.5604C158.272 55.3669 158.351 54.3785 158.351 54.3785" fill="white"/>
<path d="M155.544 53.8926C155.544 53.8926 155.034 57.1526 154.922 57.8503C154.562 59.9683 157.187 60.9899 157.655 58.5604C158.272 55.3669 158.351 54.3785 158.351 54.3785" stroke="black" stroke-width="2" stroke-miterlimit="10"/>
<path d="M158.142 54.3281C158.142 54.3281 157.637 57.4968 157.517 58.1737C157.157 60.2501 159.869 60.7817 160.337 58.4229C160.954 55.3124 160.946 54.8016 160.946 54.8016" fill="white"/>
<path d="M158.142 54.3281C158.142 54.3281 157.637 57.4968 157.517 58.1737C157.157 60.2501 159.869 60.7817 160.337 58.4229C160.954 55.3124 160.946 54.8016 160.946 54.8016" stroke="black" stroke-width="2" stroke-miterlimit="10"/>
<path d="M176.995 105.448C177.037 105.049 176.989 104.646 176.853 104.27C176.717 103.893 176.499 103.551 176.213 103.271" stroke="black" stroke-width="2" stroke-miterlimit="10"/>
<path d="M168.756 99.0725C171.24 104.471 173.381 105.331 175.381 105.48C178.54 105.717 179.107 103.819 178.469 102.532C177.832 101.244 173.733 99.384 172.466 96.9961" stroke="black" stroke-width="2" stroke-miterlimit="10"/>
<path d="M162.715 52.2212C162.715 50.8175 160.698 49.6672 158.189 49.6506C155.68 49.634 153.635 50.7552 153.635 52.1423C153.635 53.5294 155.651 54.6963 158.16 54.7171C160.669 54.7379 162.702 53.6373 162.715 52.2212Z" fill="#F6D2A2"/>
<path d="M162.929 52.23C162.929 50.6602 160.859 49.3687 158.259 49.3479C155.659 49.3271 153.555 50.5938 153.543 52.1511C153.531 53.7084 155.613 55.0124 158.213 55.0332C160.814 55.054 162.913 53.7998 162.929 52.23Z" stroke="black" stroke-width="2" stroke-miterlimit="10"/>
<path d="M134.596 66.4696C134.596 66.4696 130.394 70.1449 128.224 70.1241C125.628 70.5394 124.577 69.061 125.628 67.5202C127.57 64.6797 129.21 64.5426 133.354 60.2402" fill="#F6D2A2"/>
<path d="M185.111 42.9361C184.283 49.0782 179.165 53.6962 173.6 53.6962C166.976 53.6962 161.812 49.2443 161.812 42.9361C161.812 36.6278 166.971 30.6934 173.6 30.6934C180.229 30.6934 185.844 37.4999 185.111 42.9361Z" fill="white" stroke="black" stroke-width="2" stroke-miterlimit="10"/>
<path d="M152.662 43.6032C151.78 49.8574 146.497 54.5585 140.725 54.5585C133.852 54.5585 128.498 50.0236 128.498 43.6032C128.498 37.1828 133.852 31.1445 140.725 31.1445C147.598 31.1445 153.436 38.0632 152.662 43.6032Z" fill="white" stroke="black" stroke-width="2" stroke-miterlimit="10"/>
<path d="M135.74 40.4918C135.371 41.9536 135.988 43.3697 137.114 43.6563C138.24 43.9428 139.458 42.9877 139.826 41.5258C140.195 40.064 139.578 38.6479 138.447 38.3613C137.317 38.0748 136.108 39.0299 135.74 40.4918Z" fill="black"/>
<path d="M137.122 39.211C136.899 39.229 136.686 39.3129 136.511 39.4521C136.336 39.5912 136.205 39.7794 136.137 39.9929C136.068 40.2063 136.064 40.4354 136.125 40.6511C136.186 40.8668 136.31 41.0595 136.48 41.2048C136.65 41.3501 136.86 41.4414 137.082 41.4673C137.304 41.4931 137.529 41.4523 137.728 41.35C137.927 41.2478 138.091 41.0886 138.2 40.8926C138.309 40.6967 138.357 40.4728 138.339 40.2492C138.328 40.1007 138.287 39.956 138.219 39.8233C138.152 39.6906 138.059 39.5726 137.946 39.4761C137.833 39.3796 137.702 39.3065 137.56 39.261C137.419 39.2155 137.27 39.1985 137.122 39.211Z" fill="white"/>
<path d="M179.079 41.3956C178.943 39.9462 177.895 38.8623 176.74 38.9703C175.585 39.0783 174.765 40.3491 174.902 41.7943C175.038 43.2395 176.09 44.3275 177.241 44.2196C178.392 44.1116 179.22 42.8408 179.079 41.3956Z" fill="black"/>
<path d="M178.364 41.8605C178.549 41.7541 178.699 41.5955 178.796 41.4043C178.892 41.2131 178.93 40.9978 178.905 40.7851C178.88 40.5724 178.793 40.3718 178.656 40.2081C178.518 40.0445 178.335 39.925 178.13 39.8646C177.926 39.8043 177.708 39.8056 177.504 39.8685C177.299 39.9314 177.118 40.053 176.983 40.2184C176.847 40.3837 176.763 40.5854 176.74 40.7983C176.718 41.0113 176.759 41.2261 176.857 41.4161C176.927 41.5447 177.021 41.6582 177.135 41.7501C177.248 41.842 177.379 41.9106 177.519 41.9518C177.659 41.9931 177.805 42.0063 177.951 41.9906C178.096 41.9749 178.236 41.9307 178.364 41.8605Z" fill="white"/>
<path d="M161.169 49.5435C161.128 48.58 159.753 47.8824 158.101 47.9322C156.449 47.982 155.149 48.8458 155.203 49.8093C155.257 50.7728 156.619 51.4954 158.267 51.4206C159.915 51.3459 161.211 50.507 161.169 49.5435Z" fill="black"/>
<path d="M134.771 66.2805C134.771 66.2805 131.376 69.1875 129.297 69.798C127.219 70.4085 125.819 70.1219 125.252 68.8844C124.838 67.9873 125.252 67.1485 127.848 65.1925C130.444 63.2364 130.879 62.8087 133.475 60.209" stroke="black" stroke-width="2" stroke-miterlimit="10"/>
<path d="M227.551 73.5293V104.676" stroke="black" stroke-width="2"/>
<path d="M212.85 102.808L227.548 97.6172" stroke="black" stroke-width="2"/>
<path d="M241.835 102.808L227.551 97.6172" stroke="black" stroke-width="2"/>
<path d="M258.392 21.6602H198.604C198.355 21.6602 198.152 25.4933 198.152 30.2234V66.1542C198.152 70.8843 198.355 74.7174 198.604 74.7174H258.392C258.644 74.7174 258.843 70.8843 258.843 66.1542V30.2234C258.843 25.4933 258.644 21.6602 258.392 21.6602Z" fill="white"/>
<path d="M258.391 22.4902H198.603C198.474 22.4998 198.355 22.5597 198.271 22.6569C198.186 22.754 198.143 22.8807 198.151 23.0093V25.1938C198.143 25.3224 198.186 25.4491 198.271 25.5463C198.355 25.6434 198.474 25.7033 198.603 25.7129H258.391C258.454 25.7087 258.517 25.6919 258.574 25.6635C258.631 25.6351 258.682 25.5956 258.724 25.5474C258.766 25.4991 258.798 25.4431 258.818 25.3824C258.838 25.3217 258.846 25.2576 258.842 25.1938V23.0093C258.846 22.9455 258.838 22.8814 258.818 22.8207C258.798 22.76 258.766 22.704 258.724 22.6557C258.682 22.6075 258.631 22.568 258.574 22.5396C258.517 22.5112 258.454 22.4945 258.391 22.4902Z" fill="#ECECEC"/>
<path d="M258.392 21.6602H198.604C198.355 21.6602 198.152 25.4933 198.152 30.2234V66.1542C198.152 70.8843 198.355 74.7174 198.604 74.7174H258.392C258.644 74.7174 258.843 70.8843 258.843 66.1542V30.2234C258.843 25.4933 258.644 21.6602 258.392 21.6602Z" stroke="black" stroke-width="2" stroke-miterlimit="10"/>
<path d="M260.431 20H196.155C196.089 20.0021 196.024 20.0173 195.964 20.0445C195.904 20.0718 195.85 20.1106 195.805 20.1588C195.76 20.2071 195.725 20.2637 195.702 20.3255C195.679 20.3873 195.668 20.4531 195.67 20.5191V22.7035C195.668 22.7695 195.679 22.8353 195.702 22.8971C195.725 22.9589 195.76 23.0156 195.805 23.0638C195.85 23.112 195.904 23.1508 195.964 23.1781C196.024 23.2054 196.089 23.2205 196.155 23.2226H260.431C260.497 23.2205 260.561 23.2054 260.621 23.1781C260.681 23.1508 260.735 23.112 260.78 23.0638C260.825 23.0156 260.86 22.9589 260.884 22.8971C260.907 22.8353 260.918 22.7695 260.915 22.7035V20.5191C260.918 20.4531 260.907 20.3873 260.884 20.3255C260.86 20.2637 260.825 20.2071 260.78 20.1588C260.735 20.1106 260.681 20.0718 260.621 20.0445C260.561 20.0173 260.497 20.0021 260.431 20Z" fill="#B86B0F" stroke="black" stroke-width="2" stroke-miterlimit="10"/>
<path d="M260.431 72.2832H196.155C196.089 72.2853 196.024 72.3005 195.964 72.3277C195.904 72.355 195.85 72.3938 195.805 72.4421C195.76 72.4903 195.725 72.5469 195.702 72.6087C195.679 72.6705 195.668 72.7363 195.67 72.8023V74.9867C195.668 75.0527 195.679 75.1185 195.702 75.1803C195.725 75.2422 195.76 75.2988 195.805 75.347C195.85 75.3952 195.904 75.4341 195.964 75.4613C196.024 75.4886 196.089 75.5037 196.155 75.5058H260.431C260.497 75.5037 260.561 75.4886 260.621 75.4613C260.681 75.4341 260.735 75.3952 260.78 75.347C260.825 75.2988 260.86 75.2422 260.884 75.1803C260.907 75.1185 260.918 75.0527 260.915 74.9867V72.8023C260.918 72.7363 260.907 72.6705 260.884 72.6087C260.86 72.5469 260.825 72.4903 260.78 72.4421C260.735 72.3938 260.681 72.355 260.621 72.3277C260.561 72.3005 260.497 72.2853 260.431 72.2832Z" fill="#B86B0F" stroke="black" stroke-width="2" stroke-miterlimit="10"/>
<path d="M183.248 68.7555L205.606 38.4395" stroke="black" stroke-width="2"/>
<path d="M246.596 32.416H208.09V33.2457H246.596V32.416Z" fill="#C4C4C4"/>
<path d="M246.596 45.707H208.09V46.5367H246.596V45.707Z" fill="#C4C4C4"/>
<path d="M246.596 58.9961H208.09V59.8257H246.596V58.9961Z" fill="#C4C4C4"/>
<path d="M238.315 36.5703H208.09V37.3999H238.315V36.5703Z" fill="#C4C4C4"/>
<path d="M238.315 49.8594H208.09V50.689H238.315V49.8594Z" fill="#C4C4C4"/>
<path d="M238.315 63.1484H208.09V63.9781H238.315V63.1484Z" fill="#C4C4C4"/>
</g>
</svg>
