<svg width="24" height="24" viewBox="0 0 24 24" fill="none" xmlns="http://www.w3.org/2000/svg">
<path fill-rule="evenodd" clip-rule="evenodd" d="M2 20C2 21.1046 2.89543 22 4 22H20C21.1046 22 22 21.1046 22 20V4C22 2.89543 21.1046 2 20 2H4C2.89543 2 2 2.89543 2 4V20ZM8 7C8 6.44772 8.44772 6 9 6H15C15.5523 6 16 6.44772 16 7C16 7.55229 15.5523 8 15 8H9C8.44772 8 8 7.55229 8 7ZM14.1268 9V12L16.7319 15.668C16.8922 15.8939 16.9842 16.1564 16.9981 16.4276C17.0121 16.6988 16.9475 16.9684 16.8111 17.2078C16.6748 17.4471 16.4719 17.6472 16.2241 17.7868C15.9762 17.9263 15.6927 18 15.4038 18H8.59299C8.30434 17.9994 8.02127 17.9253 7.77388 17.7856C7.52649 17.6459 7.32406 17.4457 7.18812 17.2064C7.05218 16.9672 6.98782 16.6978 7.0019 16.4268C7.01598 16.1559 7.10796 15.8937 7.26806 15.668L9.87002 12V9H14.1268Z" fill="#00877C"/>
</svg>
