<svg width="24" height="24" viewBox="0 0 24 24" fill="none" xmlns="http://www.w3.org/2000/svg">
<rect x="2" y="22" width="20" height="20" rx="2" transform="rotate(-90 2 22)" fill="#FFBF00"/>
<path fill-rule="evenodd" clip-rule="evenodd" d="M9 6C8.44772 6 8 6.44772 8 7C8 7.55228 8.44772 8 9 8H15C15.5523 8 16 7.55228 16 7C16 6.44772 15.5523 6 15 6H9ZM14.1268 12V9H9.87002V12L7.26806 15.668C7.10796 15.8937 7.01598 16.1559 7.0019 16.4268C6.98782 16.6978 7.05218 16.9672 7.18812 17.2064C7.32406 17.4457 7.52649 17.6459 7.77388 17.7856C8.02126 17.9253 8.30434 17.9994 8.59298 18H15.4038C15.6927 18 15.9762 17.9263 16.2241 17.7868C16.4719 17.6472 16.6748 17.4471 16.8111 17.2078C16.9475 16.9684 17.0121 16.6988 16.9981 16.4276C16.9842 16.1564 16.8922 15.8939 16.7319 15.668L14.1268 12Z" fill="white"/>
</svg>
