<?xml version="1.0" encoding="utf-8"?>
<!-- Generator: Adobe Illustrator 26.5.0, SVG Export Plug-In . SVG Version: 6.00 Build 0)  -->
<svg version="1.1" id="Layer_1" xmlns="http://www.w3.org/2000/svg" xmlns:xlink="http://www.w3.org/1999/xlink" x="0px" y="0px"
	 viewBox="0 0 992.2 159.8" style="enable-background:new 0 0 992.2 159.8;" xml:space="preserve">
<style type="text/css">
	.st0{fill:#003778;}
	.st1{fill:#0094FF;}
</style>
<g>
	<g>
		<path class="st0" d="M186.6,0.6h28v2.9h-12.3V36H199V3.5h-12.3L186.6,0.6L186.6,0.6z"/>
		<path class="st0" d="M218,0.6h3.4V16h21V0.6h3.4V36h-3.4V18.8h-21V36H218V0.6z"/>
		<path class="st0" d="M252.9,0.6h24.4v2.9h-21v12.8H276v2.9h-19.7v14h21.3V36h-24.7L252.9,0.6L252.9,0.6z"/>
	</g>
	<path class="st0" d="M186.6,124.4h22.5v2.9H190v12.8h17v2.9h-17v16.9h-3.4V124.4z"/>
	<path class="st0" d="M228.7,124.2c10.7,0,16.1,8.4,16.1,17.8c0,9.4-5.4,17.8-16.1,17.8c-10.8,0-16.1-8.4-16.1-17.8
		C212.5,132.6,217.9,124.2,228.7,124.2z M228.7,157c9,0,12.8-7.6,12.8-15c0-7.5-3.8-15-12.8-15s-12.9,7.6-12.9,15
		C215.8,149.5,219.6,157,228.7,157z"/>
	<path class="st0" d="M250.2,124.4h3.3v21.5c0,8,3.7,11.1,10.2,11.1s10.2-3.1,10.2-11.1v-21.5h3.3v22.2c0,7.1-3.8,13.2-13.5,13.2
		c-9.6,0-13.5-6.1-13.5-13.2L250.2,124.4L250.2,124.4z"/>
	<path class="st0" d="M283.9,124.4h3.8l20.6,29.9h0.1v-29.9h3.4v35.4H308l-20.6-29.9h-0.1v29.9h-3.4V124.4z"/>
	<path class="st0" d="M318.9,124.4h12.2c10.7,0.2,16.3,6,16.3,17.7c0,11.7-5.6,17.5-16.3,17.7h-12.2V124.4z M322.3,156.9h7.2
		c10.2,0,14.6-4.2,14.6-14.8s-4.4-14.8-14.6-14.8h-7.2V156.9z"/>
	<path class="st0" d="M363.2,124.4h3.8l13.9,35.4h-3.6l-4.3-11h-16.1l-4.3,11H349L363.2,124.4z M357.9,145.9h13.9l-6.8-18.1
		L357.9,145.9z"/>
	<path class="st0" d="M376.9,124.4H405v2.9h-12.3v32.5h-3.4v-32.5H377v-2.9H376.9z"/>
	<path class="st0" d="M408.5,124.4h3.4v35.4h-3.4V124.4z"/>
	<path class="st0" d="M433.4,124.4c10.7,0,16,8.4,16,17.7s-5.3,17.7-16,17.7s-16-8.4-16-17.7S422.7,124.4,433.4,124.4z M433.4,157
		c8.9,0,12.7-7.5,12.7-14.9s-3.8-14.9-12.7-14.9c-9,0-12.8,7.5-12.8,14.9S424.5,157,433.4,157z"/>
	<path class="st0" d="M456,124.4h3.8l20.6,29.9h0.1v-29.9h3.4v35.4h-3.8l-20.6-29.9h-0.1v29.9H456V124.4z"/>
	<g>
		<path class="st0" d="M186.6,46.5h19.5v47h28v16.2h-47.5V46.5z"/>
		<path class="st0" d="M246.9,46.5h19.5v63.3h-19.5V46.5z"/>
		<path class="st0" d="M280.9,46.5h19.9l18.4,33.8h0.2V46.5h18.4v63.3h-19l-19.4-34.6h-0.2v34.6h-18.4V46.5H280.9z"/>
		<path class="st0" d="M408.5,84.3c0,17.2-9.1,25.3-28.1,25.3s-28.2-8.1-28.2-25.3V46.5h19v33.6c0,6.2-0.1,14.2,9.2,14.2
			c9,0,9-8,9-14.2V46.5h19v37.8H408.5z"/>
		<path class="st0" d="M440.9,76.1l-20.8-29.6H443l9.6,17.2l9.4-17.2h21.6l-20.3,29.8l22.6,33.5h-23.5l-10.8-18.9l-11.2,18.9h-22.3
			L440.9,76.1z"/>
	</g>
	<g>
		<polygon class="st1" points="32,127.6 32,63.8 0,63.8 0,159.5 95.7,159.5 95.7,127.6 		"/>
		<polygon class="st0" points="159.5,0 0,0 0,47.8 31.9,47.8 31.9,32 127.6,32 127.6,127.6 111.7,127.6 111.7,159.5 159.5,159.5 		
			"/>
	</g>
</g>
<rect x="526" y="0.3" class="st0" width="2.6" height="159.2"/>
<g>
	<polygon class="st1" points="587.8,67.2 593.4,67.2 593.4,12.8 614,12.8 614,8 567.1,8 567.1,12.8 587.8,12.8 	"/>
	<path class="st1" d="M611.8,24.4v42.8h5.2V44.4c0-8.9,6.5-15.7,15.9-15.3v-5.2c-7.7-0.3-13.5,3.6-16.2,10.6h-0.2v-10h-4.7V24.4z"/>
	<path class="st1" d="M676,62.5c-0.6,0.2-1.1,0.3-1.7,0.3c-2.1,0-3.1-1.1-3.1-3.1V36.9c0-11.5-8.2-13.8-15.7-13.8
		c-9.9,0-16.7,4.3-17.3,14.3h5.2c0.2-7,4.9-9.9,11.4-9.9c6.2,0,11.2,1.7,11.2,8.8c0,4.6-2.4,5.4-6.7,5.8c-11.3,1.3-23,1.8-23,13.8
		c0,8.6,6.4,12.5,14.3,12.5c8.3,0,11.8-3.1,15.6-8.7h0.2c0,4.4,0.8,7.5,6.1,7.5c1.4,0,2.2-0.1,3.4-0.3L676,62.5L676,62.5z
		 M666.1,50.6c0,8.4-6.9,13.4-14.9,13.4c-5,0-9.5-3.2-9.5-8.5c0-8.3,11-8.3,19.9-9.9c1.4-0.2,3.7-0.7,4.4-1.9h0.2v6.9H666.1z"/>
	<rect x="682.6" y="8" class="st1" width="5.2" height="8.4"/>
	<rect x="682.6" y="24.4" class="st1" width="5.2" height="42.8"/>
	<path class="st1" d="M717.7,23.2c-6,0-11.7,3.5-13.7,8.6h-0.2v-7.4h-5.2v42.8h5.2v-25c0.2-8.4,5.1-14.7,13.4-14.7
		c8.5,0,10.9,5.6,10.9,12.9v26.7h5.2V39.7C733.3,29.5,729.7,23.2,717.7,23.2z"/>
	<rect x="744.1" y="8" class="st1" width="5.2" height="8.4"/>
	<rect x="744.1" y="24.4" class="st1" width="5.2" height="42.8"/>
	<path class="st1" d="M789.6,40.5v26.7h5.2V39.7c0-10.2-3.6-16.5-15.7-16.5c-6,0-11.7,3.5-13.7,8.6h-0.2v-7.4H760v42.8h5.2v-25
		c0.2-8.4,5.1-14.7,13.4-14.7C787.2,27.6,789.6,33.2,789.6,40.5z"/>
	<path class="st1" d="M841.6,63.7V24.4h-5.2v7.4h-0.2c-2.1-4.7-7.3-8.6-13.6-8.6c-12.3,0-19.3,9.8-19.3,21.5c0,12.3,5.6,22,19.3,22
		c6.2,0,11.2-3.5,13.6-8.8h0.2v5.8c0,10.5-4.1,16.2-13.8,16.2c-5.7,0-11.4-2.2-12.5-8.5h-5.2c0.7,9,9.2,12.9,17.7,12.9
		C836.5,84.2,841.6,76.5,841.6,63.7z M822.6,62.3c-9.7,0-14.1-8.4-14.1-17c0-8.9,4.1-17.7,14.1-17.7c9.9,0,13.8,9.4,13.8,17.7
		C836.4,53.9,831.7,62.3,822.6,62.3z"/>
	<path class="st1" d="M916.1,67.2h6.5l-9.9-12c2.7-5.1,3.5-10.9,3.5-14.2H911c0,4.6-0.3,7-1.7,9.9l-12.9-15.6
		c5.9-3.7,11.6-8,11.6-15.3c0-7.2-5.9-12-13.1-12c-7.2,0-13.1,4.8-13.1,12c0,5.7,4.1,10.1,7.3,14.3c-6.6,3.6-14.5,9.2-14.5,17.6
		c0,10.7,7.7,16.6,17.9,16.6c7,0,13.1-3.6,17.4-8.9L916.1,67.2z M886.9,20c0-5,3.6-7.6,7.9-7.6s7.9,2.7,7.9,7.6
		c0,5.8-5,9.3-9.1,11.9C890.9,28.8,886.9,24.2,886.9,20z M892.6,64c-6.6,0-12.8-4.7-12.8-11.7c0-7.1,6.4-11.6,12.1-14.7l14.8,17.9
		C903.2,60.3,898.5,64,892.6,64z"/>
	<path class="st1" d="M598.6,147c-15.7,0-22.3-13.1-22.3-26s6.6-26,22.3-26c8.6,0,16.2,5.2,18.1,14.3h5.6
		c-1.6-12.3-12.5-19.1-23.8-19.1c-18.6,0-27.9,14.6-27.9,30.8s9.3,30.8,27.9,30.8c13.8,0,23-9.2,24.6-23.8h-5.6
		C616.5,138.5,609.6,147,598.6,147z"/>
	<path class="st1" d="M648.8,106.6c-13.6,0-19.3,11.4-19.3,22.6c0,12.2,5.7,22.6,19.3,22.6c10.9,0,16.4-5.6,18.6-15.3h-5.2
		c-1.7,6.5-5.8,10.9-13.4,10.9c-9.9,0-14.1-9.2-14.1-16.8h32.9C668,118.6,662.5,106.6,648.8,106.6z M634.7,126.2
		c0.9-7.8,5.5-15.2,14.1-15.2c8.4,0,13.3,7.4,13.6,15.2H634.7z"/>
	<path class="st1" d="M680.5,117.8h-0.2v-10h-4.8v42.8h5.2v-22.8c0-8.9,6.5-15.7,15.9-15.3v-5.2
		C688.9,106.9,683.1,110.9,680.5,117.8z"/>
	<path class="st1" d="M710.7,95h-5.2v12.8H698v4.4h7.5v29.3c-0.1,7.3,2.3,9.6,9.3,9.6c1.6,0,3.1-0.2,4.6-0.2v-4.5
		c-1.5,0.2-3,0.2-4.5,0.2c-3.7-0.2-4.2-2.2-4.2-5.6v-28.8h8.7v-4.4h-8.7L710.7,95L710.7,95z"/>
	<rect x="727.9" y="91.4" class="st1" width="5.2" height="8.4"/>
	<rect x="727.9" y="107.8" class="st1" width="5.2" height="42.8"/>
	<path class="st1" d="M746.7,103.9v3.9h-7.3v4.4h7.3v38.4h5.2v-38.4h8.5v-4.4H752v-3.7c0-4.6,0-8.3,5.7-8.3c1.2,0,2.4,0.2,3.8,0.4
		v-4.5c-1.7-0.2-2.8-0.3-4.4-0.3C748.6,91.4,746.7,96.5,746.7,103.9z"/>
	<rect x="765.5" y="91.4" class="st1" width="5.2" height="8.4"/>
	<rect x="765.5" y="107.8" class="st1" width="5.2" height="42.8"/>
	<path class="st1" d="M799.6,147.4c-9.9,0-15-9.2-15-18.2s5.1-18.2,15-18.2c6.9,0,10.7,3.9,12.1,10.3h5.2
		c-1.2-9.9-8.1-14.7-17.3-14.7c-13,0-20.2,10.4-20.2,22.6s7.2,22.6,20.2,22.6c9.6,0,16.2-6.2,17.6-16.6H812
		C811.4,142.3,806,147.4,799.6,147.4z"/>
	<path class="st1" d="M857.9,143v-22.7c0-11.5-8.2-13.8-15.7-13.8c-9.9,0-16.7,4.3-17.3,14.3h5.2c0.2-7,4.9-9.9,11.4-9.9
		c6.2,0,11.2,1.7,11.2,8.8c0,4.6-2.4,5.4-6.7,5.8c-11.3,1.3-23,1.8-23,13.8c0,8.6,6.4,12.5,14.3,12.5c8.3,0,11.8-3.1,15.6-8.7h0.2
		c0,4.4,0.8,7.5,6.1,7.5c1.4,0,2.2-0.1,3.4-0.3v-4.4c-0.6,0.2-1.1,0.3-1.7,0.3C858.9,146.2,857.9,145.1,857.9,143z M852.7,134
		c0,8.4-6.9,13.4-14.9,13.4c-5,0-9.5-3.2-9.5-8.5c0-8.3,11-8.3,19.9-9.9c1.4-0.2,3.7-0.7,4.4-1.9h0.2v6.9H852.7z"/>
	<path class="st1" d="M877.5,95h-5.2v12.8h-7.5v4.4h7.5v29.3c-0.1,7.3,2.3,9.6,9.3,9.6c1.6,0,3.1-0.2,4.6-0.2v-4.5
		c-1.5,0.2-3,0.2-4.5,0.2c-3.7-0.2-4.2-2.2-4.2-5.6v-28.8h8.7v-4.4h-8.7L877.5,95L877.5,95z"/>
	<rect x="894.6" y="91.4" class="st1" width="5.2" height="8.4"/>
	<rect x="894.6" y="107.8" class="st1" width="5.2" height="42.8"/>
	<path class="st1" d="M928.8,106.6c-13,0-20.2,10.4-20.2,22.6s7.2,22.6,20.2,22.6s20.2-10.4,20.2-22.6S941.8,106.6,928.8,106.6z
		 M928.8,147.4c-9.9,0-15-9.2-15-18.2s5.1-18.2,15-18.2s15,9.2,15,18.2S938.7,147.4,928.8,147.4z"/>
	<path class="st1" d="M976.6,106.6c-6,0-11.7,3.5-13.7,8.6h-0.2v-7.4h-5.2v42.8h5.2v-24.9c0.2-8.4,5.1-14.7,13.4-14.7
		c8.5,0,10.9,5.6,10.9,12.9v26.7h5.2V123C992.2,112.9,988.6,106.6,976.6,106.6z"/>
</g>
</svg>
