<svg width="32" height="32" viewBox="0 0 32 32" fill="none" xmlns="http://www.w3.org/2000/svg">
<path d="M4.625 4.06704C4.625 2.4429 5.9429 1.125 7.56704 1.125C9.19017 1.125 10.5081 2.4429 10.5091 4.06704C10.5091 5.69119 9.19119 7.03665 7.56704 7.03665C5.9429 7.03665 4.625 5.69119 4.625 4.06704Z" fill="#2A67BC"/>
<path d="M29.1189 25.625V25.624H29.125V16.6386C29.125 12.2429 28.1787 8.85679 23.0398 8.85679C20.5694 8.85679 18.9116 10.2125 18.2347 11.4977H18.1633V9.26716H13.2909V25.624H18.3644V17.5247C18.3644 15.3922 18.7686 13.3301 21.4095 13.3301C24.0116 13.3301 24.0504 15.7637 24.0504 17.6615V25.625H29.1189Z" fill="#2A67BC"/>
<path d="M5.02925 9.26819H10.1089V25.625H5.02925V9.26819Z" fill="#2A67BC"/>
</svg>
