<svg width="26" height="25" viewBox="0 0 26 25" fill="none" xmlns="http://www.w3.org/2000/svg">
<path d="M0.625 3.06704C0.625 1.4429 1.9429 0.125 3.56704 0.125C5.19017 0.125 6.50806 1.4429 6.50908 3.06704C6.50908 4.69119 5.19119 6.03665 3.56704 6.03665C1.9429 6.03665 0.625 4.69119 0.625 3.06704Z" fill="#2A67BC"/>
<path d="M25.1189 24.625V24.624H25.125V15.6386C25.125 11.2429 24.1787 7.85679 19.0398 7.85679C16.5694 7.85679 14.9116 9.21246 14.2347 10.4977H14.1633V8.26716H9.29085V24.624H14.3644V16.5247C14.3644 14.3922 14.7686 12.3301 17.4095 12.3301C20.0116 12.3301 20.0504 14.7637 20.0504 16.6615V24.625H25.1189Z" fill="#2A67BC"/>
<path d="M1.02925 8.26819H6.10892V24.625H1.02925V8.26819Z" fill="#2A67BC"/>
</svg>
