<svg width="123" height="40" viewBox="0 0 123 40" fill="none" xmlns="http://www.w3.org/2000/svg">
<g clip-path="url(#clip0_3108_7445)">
<path d="M29.2052 6.08787C29.6016 5.93411 30.0936 5.98307 30.4198 6.26438C30.8478 6.61533 31.0256 7.25173 30.7909 7.75644C30.6693 8.01982 30.4324 8.21426 30.1667 8.3301C28.9902 8.8741 27.8115 9.41398 26.6335 9.95592C26.242 10.1441 25.7353 10.078 25.4176 9.78285C25.0078 9.43949 24.8377 8.83273 25.0465 8.34044C25.154 8.07981 25.3775 7.87779 25.6312 7.75506C26.8219 7.19726 28.0153 6.64636 29.2052 6.08787Z" fill="#404548"/>
<path d="M81.1213 6.06468C81.576 5.90955 82.1214 6.03641 82.4243 6.41357C82.8882 6.91345 82.8615 7.81668 82.2564 8.19797C81.784 8.46618 81.2724 8.65924 80.7846 8.8978C80.0199 9.24944 79.2538 9.59833 78.4905 9.95342C78.1327 10.1237 77.6787 10.0913 77.3596 9.85482C76.8831 9.52179 76.6568 8.84954 76.9091 8.31863C77.0279 8.0449 77.2732 7.84081 77.5459 7.72153C78.74 7.17339 79.9243 6.60524 81.1213 6.06468Z" fill="#404548"/>
<path d="M0 13.1115C0.0983993 12.282 0.832879 11.5615 1.69036 11.5112C2.18868 11.5015 2.71652 11.4601 3.17759 11.6863C3.69068 11.9338 3.9929 12.4427 4.21922 12.935C5.52512 15.8274 6.83242 18.7191 8.13481 21.6136C9.49131 18.6391 10.8274 15.6564 12.1762 12.6785C12.309 12.4123 12.4749 12.1572 12.6984 11.9552C13.0386 11.6353 13.5201 11.5008 13.9832 11.5056C14.3276 11.5084 14.6833 11.4753 15.0136 11.5925C15.5675 11.7745 16.0194 12.2289 16.2014 12.7722C16.3181 13.1142 16.2851 13.4783 16.2886 13.8334C16.2886 19.6485 16.2886 25.4637 16.2886 31.2789C16.2907 31.7326 16.1614 32.2069 15.8338 32.54C15.5323 32.8585 15.098 33.0185 14.6664 33.0702H14.2363C13.7555 33.0081 13.2691 32.8034 12.9768 32.4097C12.7265 32.087 12.6331 31.6753 12.6338 31.2761C12.6324 27.5674 12.6366 23.8586 12.6317 20.1498C11.7447 22.1362 10.8731 24.1289 9.98823 26.1167C9.75277 26.6531 9.28538 27.1088 8.69357 27.2426C8.2318 27.3364 7.73348 27.3253 7.29349 27.1454C6.85632 26.9613 6.52106 26.5938 6.32004 26.1766C5.4225 24.1744 4.55659 22.1576 3.6464 20.1608C3.6239 23.9358 3.6471 27.7108 3.63445 31.4857C3.61196 31.8732 3.46717 32.2621 3.18673 32.5413C2.8838 32.8578 2.44944 33.0274 2.01437 33.0702H1.56174C1.13792 33.0033 0.714097 32.8371 0.425225 32.5145C0.165873 32.2469 0.0414683 31.8822 0 31.5209V13.1115Z" fill="#404548"/>
<path d="M26.259 11.5414C26.7826 11.4815 27.347 11.4615 27.8333 11.6924C28.4308 11.9965 28.7232 12.6439 28.9115 13.2452C30.7825 19.0886 32.6549 24.9321 34.5259 30.7755C34.6819 31.2768 34.6623 31.8601 34.3509 32.302C34.0388 32.7619 33.4892 33.0177 32.9389 33.0701H32.5087C31.8783 33.0136 31.3012 32.5895 31.1178 31.9876C30.7136 30.701 30.3109 29.4144 29.9152 28.1258C27.8572 28.1175 25.7993 28.1299 23.742 28.1196C23.3962 29.1952 23.068 30.2763 22.7292 31.354C22.595 31.7897 22.4797 32.2593 22.1423 32.5944C21.8844 32.8612 21.5238 32.9984 21.1626 33.0701H20.6094C20.2011 32.9998 19.7899 32.8564 19.4905 32.5647C19.1503 32.2551 18.9788 31.7966 18.9908 31.3457C18.9662 30.9975 19.1306 30.681 19.2241 30.3542C21.0424 24.7073 22.8621 19.061 24.681 13.4141C24.8301 12.937 24.9833 12.4412 25.3206 12.0551C25.554 11.7759 25.897 11.5973 26.259 11.5414ZM26.8198 18.1578C26.1732 20.3028 25.5146 22.4444 24.8673 24.5887C26.1725 24.5901 27.4777 24.5887 28.7829 24.5894C28.1271 22.4457 27.484 20.2987 26.8198 18.1578Z" fill="#404548"/>
<path d="M41.5946 11.6016C42.6833 11.4306 43.8121 11.4747 44.8811 11.7401C46.0816 12.0463 47.2273 12.662 48.0299 13.6025C48.7391 14.4243 49.1355 15.5096 49.073 16.5886C49.0512 16.9996 48.8691 17.405 48.5557 17.6815C48.0805 18.1228 47.365 18.2503 46.7409 18.1041C46.2215 17.9876 45.745 17.6291 45.5685 17.1258C45.4638 16.8713 45.4849 16.5921 45.4441 16.3259C45.3893 16.0102 45.1644 15.7516 44.91 15.5654C44.4412 15.2317 43.8557 15.1021 43.2871 15.0635C42.7501 15.049 42.1984 15.0283 41.6818 15.1973C41.2052 15.3427 40.7526 15.6261 40.4982 16.0577C40.2156 16.5045 40.2346 17.0541 40.2704 17.5588C40.3702 18.1 40.8313 18.4772 41.2551 18.7923C42.1049 19.3907 43.0474 19.8444 43.9513 20.3567C45.125 21.0083 46.2833 21.7143 47.2631 22.6313C47.9948 23.3236 48.6175 24.1468 48.976 25.0859C49.3836 26.1305 49.4518 27.2854 49.2627 28.3824C49.0329 29.6814 48.3174 30.8963 47.2575 31.7113C46.1688 32.569 44.7792 32.9889 43.3981 33.0702H42.2799C40.7449 32.9799 39.2091 32.407 38.1162 31.3245C37.1252 30.3695 36.5531 29.045 36.4265 27.697C36.3879 27.2254 36.3352 26.7331 36.4996 26.2781C36.6557 25.8278 37.0324 25.4665 37.4808 25.2955C38.086 25.0673 38.8085 25.1356 39.3406 25.5051C39.6456 25.7141 39.8614 26.0361 39.9626 26.3856C40.0863 26.8097 40.0041 27.2592 40.1144 27.686C40.2501 28.3569 40.6943 28.9698 41.3275 29.2698C41.9334 29.5711 42.6313 29.5773 43.2948 29.5449C43.9478 29.498 44.6267 29.3008 45.0969 28.8326C45.636 28.3141 45.8005 27.5109 45.6747 26.7993C45.5334 26.0567 45.007 25.4548 44.4313 24.9846C43.5324 24.2668 42.4985 23.74 41.4948 23.1802C40.2978 22.5128 39.0812 21.8295 38.1099 20.8566C37.4042 20.1664 36.875 19.2859 36.6943 18.3179C36.5798 17.7732 36.629 17.2147 36.617 16.6624C36.6149 15.4999 37.1167 14.3678 37.9173 13.5204C38.883 12.5048 40.2093 11.8511 41.5946 11.6016Z" fill="#404548"/>
<path d="M53.6463 11.6438C54.0364 11.4645 54.4757 11.5066 54.8939 11.5079C55.3304 11.5128 55.7725 11.6617 56.0887 11.963C56.5175 12.3684 56.7234 12.9304 56.9645 13.4502C58.1931 16.1724 59.4217 18.8945 60.6517 21.6159C61.9983 18.64 63.3401 15.6621 64.6846 12.6856C64.958 12.0885 65.5084 11.5728 66.2 11.521C66.6891 11.5038 67.2079 11.4459 67.6689 11.6472C68.3162 11.9203 68.7991 12.576 68.7921 13.2758C68.7893 19.3233 68.7921 25.3709 68.7907 31.4184C68.7822 31.8452 68.6234 32.2796 68.3043 32.5767C68.0035 32.8732 67.586 33.029 67.1671 33.0704H66.7145C66.292 33.0015 65.8668 32.8387 65.58 32.5154C65.2834 32.2023 65.1485 31.7687 65.1527 31.3474C65.1548 27.9682 65.1527 24.589 65.1534 21.2105C65.1506 20.8526 65.1618 20.4948 65.1429 20.1376C64.2798 22.1047 63.4061 24.0663 62.5409 26.0314C62.3188 26.5554 61.9112 27.0394 61.339 27.2035C60.717 27.3807 59.9868 27.3366 59.4547 26.9457C59.1229 26.7085 58.9016 26.3541 58.7434 25.9886C57.8901 24.0388 57.0151 22.0978 56.1689 20.1452C56.1386 23.9043 56.171 27.6641 56.1527 31.4225C56.14 31.9148 55.9194 32.4126 55.5096 32.7091C55.2523 32.9105 54.9304 33.0008 54.6149 33.0704H54.0638C53.5585 32.9897 53.0503 32.7533 52.7755 32.312C52.5028 31.9066 52.488 31.4032 52.5014 30.9337C52.5028 25.073 52.5021 19.2123 52.5014 13.3516C52.481 12.6222 52.9639 11.923 53.6463 11.6438Z" fill="#404548"/>
<path d="M75.531 12.2894C76.5185 11.7461 77.6571 11.4799 78.788 11.5034C79.8521 11.4841 80.9268 11.7033 81.8763 12.1818C83.294 12.8762 84.4101 14.1421 84.893 15.6245C85.1186 16.2905 85.2015 16.9952 85.2029 17.6957C85.2029 20.6584 85.2022 23.6219 85.2036 26.5846C85.2085 27.2796 85.1776 27.9836 84.9871 28.6565C84.6582 29.9204 83.8766 31.0622 82.8111 31.842C81.8067 32.5873 80.5655 32.9914 79.3137 33.0686H78.2658C77.7175 33.0238 77.1728 32.9355 76.6492 32.7687C74.7353 32.1798 73.1441 30.6312 72.6127 28.7241C72.3091 27.763 72.3836 26.7473 72.3759 25.7559C72.3759 23.3881 72.3759 21.0211 72.3759 18.6534C72.3815 17.8446 72.3316 17.0241 72.5221 16.2298C72.8791 14.5695 74.0184 13.1051 75.531 12.2894ZM78.0472 15.1129C77.3528 15.2515 76.7146 15.6762 76.361 16.2829C76.1326 16.6663 76.0173 17.1117 76.0293 17.555C76.0321 20.7495 76.03 23.9439 76.0307 27.1376C76.0419 28.0229 76.5909 28.8751 77.4013 29.2654C77.9783 29.5667 78.6516 29.5894 79.2884 29.5322C80.0847 29.4412 80.8403 28.9841 81.2318 28.2904C81.4722 27.8788 81.5671 27.3975 81.5488 26.9259C81.5467 23.7791 81.5488 20.6322 81.5481 17.4854C81.5446 16.6863 81.1144 15.8968 80.4207 15.4721C79.7284 15.0177 78.8442 14.9832 78.0472 15.1129Z" fill="#404548"/>
<path d="M87.8647 12.4544C88.3911 11.4174 90.0295 11.1589 90.8356 12.02C91.1948 12.3744 91.2791 12.8847 91.3874 13.3521C92.3292 17.2622 93.2556 21.1765 94.203 25.0852C95.1308 21.2316 96.0501 17.3767 96.9758 13.5231C97.1072 13.0108 97.1641 12.4372 97.5528 12.0352C98.2374 11.3002 99.5342 11.3485 100.229 12.0456C100.648 12.4434 100.808 13.0619 100.68 13.6148C99.201 19.6286 97.725 25.6437 96.2462 31.6575C96.1527 32.036 95.9384 32.3856 95.6298 32.6317C95.2967 32.9054 94.863 33.0268 94.4378 33.0688H93.9423C93.2092 33.0178 92.4775 32.591 92.2308 31.8877C92.0635 31.3465 91.9518 30.7901 91.8098 30.2419C90.4624 24.7529 89.1115 19.2645 87.7663 13.7748C87.6503 13.3397 87.6461 12.8612 87.8647 12.4544Z" fill="#404548"/>
<path d="M111.767 12.1199C112.507 11.2422 114.12 11.3036 114.747 12.2778C115.088 12.7763 115.021 13.3989 115.024 13.9678C115.025 19.099 115.023 24.2308 115.025 29.362C116.981 29.3627 118.938 29.3627 120.894 29.362C121.313 29.3607 121.755 29.3827 122.129 29.5916C122.639 29.864 122.943 30.4114 123.001 30.9665V31.3209C122.959 31.7139 122.81 32.1076 122.523 32.3924C122.202 32.7392 121.719 32.9122 121.248 32.9143C118.552 32.9136 115.855 32.9136 113.158 32.9143C112.306 32.9115 111.537 32.2276 111.399 31.4119C111.354 31.1609 111.371 30.9051 111.369 30.6521C111.369 24.8845 111.369 19.1169 111.369 13.3493C111.37 12.9135 111.476 12.4605 111.767 12.1199Z" fill="#404548"/>
<path d="M105.121 12.4685C105.804 12.363 106.548 12.4926 107.103 12.9118C107.598 13.2828 107.89 13.8847 107.905 14.4928C107.905 18.1437 107.904 21.7953 107.906 25.4468C107.916 26.0115 107.703 26.5934 107.268 26.9754C106.469 27.6697 105.216 27.7518 104.29 27.2602C103.67 26.9382 103.269 26.2728 103.249 25.5895C103.248 21.8897 103.249 18.1892 103.248 14.4894C103.254 13.9523 103.488 13.42 103.89 13.0539C104.223 12.7353 104.666 12.545 105.121 12.4685Z" fill="#FFE200"/>
<path d="M103.769 30.3751C104.261 29.9076 104.969 29.7173 105.642 29.729C106.266 29.7483 106.921 29.9228 107.373 30.3668C107.713 30.6764 107.908 31.1294 107.904 31.5844C107.905 32.0692 107.951 32.5911 107.681 33.0227C107.299 33.6598 106.531 33.9411 105.813 34.0004H105.32C104.575 33.9404 103.773 33.6164 103.422 32.9283C103.192 32.518 103.253 32.0388 103.247 31.59C103.232 31.1349 103.432 30.6854 103.769 30.3751Z" fill="#FFE200"/>
</g>
<defs>
<clipPath id="clip0_3108_7445">
<rect width="123" height="40" fill="white"/>
</clipPath>
</defs>
</svg>
