<svg width="210" height="49" viewBox="0 0 210 49" fill="none" xmlns="http://www.w3.org/2000/svg">
<mask id="mask0_7546_8222" style="mask-type:luminance" maskUnits="userSpaceOnUse" x="0" y="1" width="209" height="48">
<path d="M208.552 1H0V49H208.552V1Z" fill="white"/>
</mask>
<g mask="url(#mask0_7546_8222)">
<path d="M83.8026 23.9925C83.4993 32.41 76.8273 38.9236 68.5378 38.9236C59.7428 38.9236 53.2729 31.909 53.2729 23.3912C53.2729 14.8735 60.3494 7.85889 68.9421 7.85889C72.7836 7.85889 76.6251 9.56243 79.86 12.4685L77.3327 15.4748C74.9065 13.3704 71.8738 11.9674 68.9421 11.9674C62.6745 11.9674 57.5188 17.0781 57.5188 23.3912C57.5188 29.8046 62.3712 34.7148 68.6388 34.7148C74.1989 34.7148 78.6469 30.7065 79.4556 25.4956H66.8192V21.7879H83.9037L83.8026 23.9925Z" fill="#0A0A0A"/>
<path d="M98.3595 21.9903H96.0344C93.5071 21.9903 91.3842 24.0947 91.3842 26.5999V38.625H87.2394V18.0822H90.6766V19.7857C91.7886 18.6834 93.6082 18.0822 95.63 18.0822H100.179L98.3595 21.9903Z" fill="#0A0A0A"/>
<path d="M121.004 38.7197H117.465V36.1143C114.736 38.7197 110.389 40.0225 106.042 38.1185C102.807 36.7156 100.381 33.8095 99.7745 30.3022C98.5614 23.5882 103.717 17.6759 110.288 17.6759C113.119 17.6759 115.545 18.7782 117.364 20.582V18.0767H120.903L121.004 38.7197ZM116.758 29.8012C117.769 25.5924 114.534 21.7845 110.389 21.7845C106.75 21.7845 103.818 24.6905 103.818 28.298C103.818 32.3064 107.356 35.4129 111.501 34.7114C114.028 34.3106 116.151 32.3064 116.758 29.8012Z" fill="#0A0A0A"/>
<path d="M129.395 16.8754V18.0779H136.067V21.6855H129.395V38.7209H125.251V16.9757C125.251 12.4663 128.587 9.76062 132.63 9.76062H137.584L135.865 13.6688H132.731C130.912 13.6688 129.395 15.0717 129.395 16.8754Z" fill="#0A0A0A"/>
<path d="M158.104 38.7197H154.566V36.1143C151.836 38.7197 147.489 40.0225 143.143 38.1185C139.908 36.7156 137.481 33.8095 136.875 30.3022C135.662 23.5882 140.817 17.6759 147.388 17.6759C150.219 17.6759 152.645 18.7782 154.465 20.582V18.0767H158.003L158.104 38.7197ZM153.858 29.8012C154.869 25.5924 151.634 21.7845 147.489 21.7845C143.85 21.7845 140.919 24.6905 140.919 28.298C140.919 32.3064 144.457 35.4129 148.601 34.7114C151.129 34.3106 153.252 32.3064 153.858 29.8012Z" fill="#0A0A0A"/>
<path d="M180.343 26.4986V38.7241H176.199V26.4986C176.199 23.8932 174.076 21.889 171.548 21.889C168.92 21.889 166.797 23.9934 166.797 26.4986V38.7241H162.652V18.0811H166.09V19.8848C167.606 18.5821 169.628 17.7804 171.65 17.7804C176.502 17.6802 180.343 21.5884 180.343 26.4986Z" fill="#0A0A0A"/>
<path d="M204.912 38.7197H201.374V36.1143C198.645 38.7197 194.298 40.0225 189.951 38.1185C186.716 36.7156 184.29 33.8095 183.683 30.3022C182.47 23.5882 187.626 17.6759 194.196 17.6759C197.027 17.6759 199.453 18.7782 201.273 20.582V18.0767H204.811L204.912 38.7197ZM200.565 29.8012C201.576 25.5924 198.341 21.7845 194.196 21.7845C190.557 21.7845 187.626 24.6905 187.626 28.298C187.626 32.3064 191.164 35.4129 195.308 34.7114C197.937 34.3106 200.06 32.3064 200.565 29.8012Z" fill="#0A0A0A"/>
<path d="M43.5274 21.7437C43.4287 20.961 43.33 20.0804 43.0339 19.0042C42.7378 18.0258 42.343 16.9495 41.8495 15.7755C41.2573 14.6014 40.5663 13.4273 39.5793 12.3511C39.1845 11.8619 38.7897 11.4705 38.2962 10.9813C38.9871 8.33966 37.5066 6.08936 37.5066 6.08936C34.9404 5.89368 33.3612 6.87208 32.7689 7.26343C32.6702 7.26343 32.5715 7.1656 32.4728 7.1656C32.078 6.96992 31.5845 6.87208 31.091 6.6764C30.5975 6.57856 30.2027 6.38288 29.7092 6.28504C29.2157 6.1872 28.7222 6.08936 28.2287 5.99152C28.13 5.99152 28.0313 5.99152 27.9326 5.99152C26.8469 2.4693 23.5897 1.00171 23.5897 1.00171C20.0365 3.25202 19.3456 6.38288 19.3456 6.38288C19.3456 6.38288 19.3456 6.48071 19.3456 6.57855C19.1482 6.67639 18.9508 6.6764 18.7534 6.77424C18.4573 6.87208 18.2599 6.96991 17.9638 7.06775C17.6676 7.16559 17.4702 7.26343 17.1741 7.36127C16.6806 7.55695 16.0884 7.85047 15.5949 8.14399C15.1014 8.43751 14.6079 8.73102 14.1144 9.02454C14.0157 9.02454 14.0157 8.9267 14.0157 8.9267C9.08064 7.06775 4.73778 9.31806 4.73778 9.31806C4.34297 14.5036 6.7118 17.7323 7.20531 18.4171C7.10661 18.7107 7.00791 19.102 6.90921 19.3955C6.5144 20.5696 6.317 21.7437 6.1196 23.0156C6.1196 23.2113 6.11959 23.4069 6.02089 23.6026C1.48063 25.8529 0.0988159 30.3535 0.0988159 30.3535C3.84946 34.6585 8.29102 34.952 8.29102 34.952C8.88323 35.9304 9.47544 36.9088 10.265 37.7893C10.5612 38.1807 10.8573 38.4742 11.2521 38.8656C9.87024 42.7791 11.4495 46.0079 11.4495 46.0079C15.6936 46.2035 18.4573 44.1489 19.0495 43.7575C19.4443 43.8554 19.9378 44.0511 20.3326 44.1489C21.6157 44.4424 22.9975 44.6381 24.2806 44.7359C24.5767 44.7359 24.9715 44.7359 25.2676 44.7359H25.465H25.5637H25.7612H25.9586C27.9326 47.5733 31.4858 47.9646 31.4858 47.9646C33.9534 45.323 34.1508 42.7792 34.1508 42.1921V42.0943V41.9964C34.6443 41.6051 35.1378 41.2137 35.6313 40.8224C36.6183 39.9418 37.5066 38.8656 38.1975 37.7893C38.2962 37.6915 38.2962 37.5937 38.3949 37.4958C41.2573 37.6915 43.2313 35.7347 43.2313 35.7347C42.7378 32.7995 41.0598 31.4298 40.7637 31.1363C40.7637 31.1363 40.7637 31.1363 40.665 31.1363C40.665 30.9406 40.665 30.7449 40.665 30.6471C40.665 30.3535 40.665 30.06 40.665 29.6687V29.3751V29.2773V29.1795C40.665 29.0816 40.665 29.0816 40.665 29.0816V28.886V28.5924C40.665 28.4946 40.665 28.3968 40.665 28.2989C40.665 28.2011 40.665 28.1032 40.665 28.1032V27.9076V27.7119C40.665 27.4184 40.5663 27.1248 40.4676 26.7335C40.1715 25.4616 39.678 24.2875 38.9871 23.2113C38.2962 22.135 37.5066 21.1566 36.6183 20.3739C35.73 19.5912 34.6443 18.9063 33.5585 18.4171C32.4728 17.9279 31.3871 17.6344 30.2027 17.5366C29.6105 17.4387 29.117 17.4387 28.5248 17.4387H28.3274H28.2287H28.13H28.0313H27.8339C27.7352 17.4387 27.6365 17.4387 27.6365 17.4387C27.3404 17.4387 27.0443 17.5366 26.7482 17.5366C25.6624 17.7323 24.5767 18.1236 23.6884 18.7106C22.8001 19.2977 21.9118 19.9826 21.3196 20.7653C20.6287 21.548 20.1352 22.4286 19.8391 23.3091C19.4443 24.1897 19.2469 25.1681 19.2469 26.0486C19.2469 26.2443 19.2469 26.5378 19.2469 26.7335C19.2469 26.8313 19.2469 26.8313 19.2469 26.9292V27.1248C19.2469 27.2227 19.2469 27.3205 19.2469 27.4184C19.2469 27.9076 19.3456 28.2989 19.543 28.6903C19.7404 29.5708 20.1352 30.2557 20.6287 30.9406C21.1222 31.6255 21.7144 32.1146 22.3066 32.506C22.8988 32.8974 23.5897 33.1909 24.1819 33.3866C24.8728 33.5822 25.465 33.6801 26.0573 33.6801C26.156 33.6801 26.2547 33.6801 26.2547 33.6801H26.3534H26.4521C26.5508 33.6801 26.5508 33.6801 26.6495 33.6801C26.6495 33.6801 26.6495 33.6801 26.7482 33.6801H26.8469H26.9456C27.0443 33.6801 27.0443 33.6801 27.143 33.6801C27.2417 33.6801 27.2417 33.6801 27.3404 33.6801C27.4391 33.6801 27.6365 33.5822 27.7352 33.5822C28.0313 33.4844 28.2287 33.3866 28.5248 33.2887C28.7222 33.1909 29.0183 32.9952 29.2157 32.8974C29.3144 32.8974 29.3144 32.7995 29.4131 32.7995C29.6105 32.6038 29.7092 32.3103 29.5118 32.1147C29.4131 31.919 29.117 31.919 28.9196 32.0168C28.8209 32.0168 28.8209 32.1147 28.7222 32.1147C28.5248 32.2125 28.3274 32.3103 28.13 32.3103C27.9326 32.4082 27.7352 32.4082 27.5378 32.506C27.4391 32.506 27.3404 32.506 27.2417 32.506C27.143 32.506 27.143 32.506 27.0443 32.506C26.9456 32.506 26.9456 32.506 26.8469 32.506C26.7482 32.506 26.7482 32.506 26.6495 32.506C26.5508 32.506 26.5508 32.506 26.4521 32.506H26.3534C26.2547 32.506 26.2547 32.506 26.156 32.506C25.6625 32.4082 25.1689 32.3103 24.7741 32.1147C24.2806 31.919 23.8858 31.6255 23.491 31.2341C23.0962 30.8427 22.7014 30.4514 22.504 29.9622C22.2079 29.473 22.0105 28.886 21.9118 28.3968C21.9118 28.1032 21.8131 27.8097 21.8131 27.5162C21.8131 27.4184 21.8131 27.3205 21.8131 27.3205V27.2227V27.1248C21.8131 26.9292 21.8131 26.8313 21.9118 26.6356C22.1092 25.3637 22.8001 24.1897 23.6884 23.3091C23.8858 23.1134 24.1819 22.8199 24.478 22.7221C24.7741 22.5264 25.0702 22.3307 25.3663 22.2329C25.6625 22.135 25.9586 21.9394 26.3534 21.8415C26.6495 21.7437 27.0443 21.7437 27.3404 21.6458C27.5378 21.6458 27.7352 21.6458 27.8339 21.6458H27.9326H28.0313H28.13H28.2287C28.6235 21.6458 29.0183 21.7437 29.3144 21.8415C30.0053 22.0372 30.7949 22.2329 31.3871 22.6242C32.6702 23.3091 33.8547 24.4832 34.5456 25.8529C34.9404 26.5378 35.1378 27.3205 35.2365 28.0054C35.2365 28.2011 35.3352 28.3968 35.3352 28.5924V28.6903V28.7881C35.3352 28.886 35.3352 28.886 35.3352 28.886C35.3352 28.9838 35.3352 28.9838 35.3352 28.9838V29.0816V29.1795C35.3352 29.2773 35.3352 29.473 35.3352 29.5708C35.3352 29.7665 35.3352 29.9622 35.2365 30.1579C35.2365 30.3535 35.1378 30.5492 35.1378 30.7449C35.1378 30.9406 35.0391 31.1363 35.0391 31.3319C34.9404 31.7233 34.8417 32.1146 34.6443 32.506C34.3482 33.2887 33.9534 34.0714 33.4599 34.7563C32.4728 36.1261 31.091 37.2023 29.5118 37.985C28.7222 38.3764 27.9326 38.5721 27.0443 38.7677C26.6495 38.8656 26.156 38.8656 25.7612 38.8656H25.6625H25.5637H25.465H25.2676H25.1689C24.9715 38.8656 24.6754 38.8656 24.478 38.8656C23.5897 38.7677 22.7014 38.6699 21.8131 38.3764C20.9248 38.0829 20.1352 37.7893 19.2469 37.398C17.6676 36.5174 16.1871 35.3433 15.1014 33.9736C14.5092 33.2887 14.0157 32.506 13.6209 31.7233C13.2261 30.9406 12.93 30.06 12.6339 29.2773C12.4365 28.3968 12.2391 27.5162 12.2391 26.6356V26.44V26.3421V26.2443V26.1464V26.0486V25.8529V25.7551C12.2391 25.6573 12.2391 25.5594 12.2391 25.4616C12.2391 25.0702 12.3378 24.581 12.3378 24.0918C12.4365 23.6026 12.4365 23.2113 12.5352 22.7221C12.6339 22.2329 12.7326 21.8415 12.8313 21.4502C13.1274 20.5696 13.4235 19.7869 13.7196 19.0042C14.4105 17.4387 15.3975 16.069 16.5819 14.8949C16.878 14.6014 17.1741 14.3079 17.4702 14.1122C17.7663 13.8187 18.0625 13.623 18.4573 13.4273C18.7534 13.2316 19.1482 13.036 19.4443 12.8403C19.6417 12.7424 19.8391 12.6446 19.9378 12.5468C20.0365 12.5468 20.1352 12.4489 20.2339 12.4489C20.3326 12.4489 20.4313 12.3511 20.53 12.3511C20.9248 12.1554 21.3196 12.0576 21.6157 11.9597C21.7144 11.9597 21.8131 11.8619 21.9118 11.8619C22.0105 11.8619 22.1092 11.764 22.2079 11.764C22.4053 11.6662 22.6027 11.6662 22.8001 11.6662C22.8988 11.6662 22.9975 11.6662 23.0962 11.5684C23.1949 11.4705 23.2936 11.5684 23.3923 11.4705C23.491 11.4705 23.5897 11.4705 23.6884 11.3727H23.7871H23.8858C23.9845 11.3727 24.0832 11.3727 24.1819 11.3727C24.2806 11.3727 24.3793 11.3727 24.478 11.3727C24.5767 11.3727 24.6754 11.3727 24.7741 11.3727C24.8728 11.3727 24.8728 11.3727 24.9715 11.3727H25.0702H25.1689H25.2676C25.3663 11.3727 25.465 11.3727 25.5637 11.3727H25.7612H25.8599C25.9586 11.3727 26.0573 11.3727 26.156 11.3727C26.5508 11.3727 26.9456 11.3727 27.3404 11.3727C28.13 11.3727 28.8209 11.4705 29.6105 11.6662C31.091 11.9597 32.3741 12.3511 33.6573 13.036C34.8417 13.623 36.0261 14.4057 36.9144 15.1884C37.0131 15.2863 37.0131 15.2863 37.1118 15.3841C37.2105 15.4819 37.2105 15.4819 37.3092 15.5798C37.4079 15.6776 37.5066 15.7755 37.6053 15.8733C37.704 15.9711 37.8027 16.069 37.9014 16.1668C38.0001 16.2647 38.0988 16.3625 38.1975 16.4603C38.5923 16.8517 38.9871 17.3409 39.2832 17.7323C39.9741 18.6128 40.4676 19.4934 40.9611 20.2761C40.9611 20.3739 41.0599 20.3739 41.0599 20.4718C41.0599 20.5696 41.1586 20.5696 41.1586 20.6674C41.2573 20.7653 41.2573 20.8631 41.2573 20.961C41.2573 21.0588 41.356 21.1566 41.356 21.2545C41.356 21.3523 41.4547 21.4502 41.4547 21.548C41.6521 21.9394 41.7508 22.3307 41.8495 22.6242C42.0469 23.2113 42.2443 23.7005 42.343 24.0918C42.343 24.2875 42.5404 24.3853 42.7378 24.3853C42.9352 24.3853 43.0339 24.1897 43.0339 23.994C43.5274 22.9177 43.5274 22.4285 43.5274 21.7437Z" fill="url(#paint0_linear_7546_8222)"/>
</g>
<defs>
<linearGradient id="paint0_linear_7546_8222" x1="21.801" y1="58.511" x2="21.801" y2="15.675" gradientUnits="userSpaceOnUse">
<stop stop-color="#FFF100"/>
<stop offset="1" stop-color="#F05A28"/>
</linearGradient>
</defs>
</svg>
