<svg width="91" height="48" viewBox="0 0 91 48" fill="none" xmlns="http://www.w3.org/2000/svg">
<path fill-rule="evenodd" clip-rule="evenodd" d="M2.67761 9.29118C1.18386 7.54711 -0.0213178 6.09346 0.000285977 6.06179C0.0226612 6.03012 17.4592 6.00309 77.4591 6L77.6226 6.17533C77.7122 6.27266 80.759 10.4444 84.393 15.4464C88.0263 20.4485 91 24.5762 91 24.6187C91 24.6611 89.119 27.5028 86.8196 30.933C84.5204 34.3632 81.9078 38.2569 79.388 42L47.2717 41.9984C29.6074 41.9984 15.1407 41.9713 15.1229 41.9396C15.1044 41.908 16.9585 38.4577 23.3957 26.6655L17.5472 26.6269L16.1005 24.9415C15.305 24.0146 12.5706 20.8277 10.0244 17.8594C7.47828 14.8919 4.17214 11.036 2.67761 9.29118ZM16.5827 17.8447C14.5882 15.526 12.2851 12.8519 11.4649 11.9019L9.97275 10.1748L18.2802 10.1833L20.2477 12.8465C21.3294 14.3118 22.226 15.4657 22.2391 15.4109C22.253 15.3561 21.9667 14.1812 21.6041 12.801C21.2414 11.4199 20.9444 10.2644 20.9436 10.2327C20.9428 10.2011 22.3918 10.174 27.3845 10.1717L29.3521 12.7909C30.4338 14.2314 31.3451 15.3877 31.376 15.3607C31.4075 15.3337 31.1607 14.2338 30.8289 12.9168C30.4964 11.5999 30.2015 10.4444 30.1237 10.1748L35.2461 10.2134L36.385 16.045C37.0115 19.252 37.526 21.9199 37.5275 21.9732C37.53 22.0489 36.7383 22.069 30.085 22.0612L28.2719 19.8692C27.2743 18.6635 26.4334 17.7011 26.4016 17.7304C26.3701 17.759 26.5351 18.7384 26.769 19.907C27.002 21.0749 27.1925 22.0396 27.1925 22.0504C27.1918 22.0612 25.6209 22.0674 20.2091 22.0597L16.5827 17.8447ZM39.7543 16.9719C38.2737 14.189 36.8525 11.5219 36.5963 11.0438L36.1319 10.1748H43.7033L46.7847 15.9871C48.48 19.1841 49.8857 21.8604 49.9096 21.9346C49.9505 22.062 49.7437 22.069 42.4471 22.0311L39.7543 16.9719ZM48.8726 16.1887C47.1536 12.9554 45.7354 10.2799 45.72 10.242C45.7046 10.2026 47.2447 10.1818 53.0537 10.2134L57.6578 18.8643L63.9567 18.9415L64.7421 20.4091C65.1743 21.2162 65.5298 21.9199 65.533 21.9732C65.5377 22.0497 64.1364 22.0697 51.9974 22.0667L48.8726 16.1887ZM64.0068 16.856C62.4924 14.0098 61.0717 11.3419 60.8513 10.9279L60.4493 10.1748L66.2151 10.174C69.6841 10.174 72.3034 10.2057 72.7911 10.2551C73.2362 10.2992 73.9653 10.4173 74.4114 10.5162C74.8566 10.6158 75.4994 10.8128 75.8388 10.9542C76.1782 11.0955 76.6991 11.3736 76.9961 11.5721C77.2932 11.7714 77.8448 12.2587 78.2229 12.6573C78.6003 13.0551 79.1626 13.7626 79.4721 14.2299C79.7815 14.6972 80.226 15.4789 80.459 15.9678C80.692 16.456 80.9627 17.0993 81.0615 17.3967C81.2058 17.8355 81.2397 18.1043 81.2397 18.8257C81.2397 19.6336 81.2212 19.7487 81.0376 20.1001C80.9265 20.3125 80.6488 20.6547 80.4203 20.8602C80.192 21.0664 79.7969 21.3329 79.5423 21.4526C79.2876 21.5731 78.8711 21.7252 78.6164 21.7917C78.3617 21.8573 77.7885 21.9485 77.3433 21.9933C76.8434 22.0427 74.6623 22.0659 66.7614 22.0311L64.0068 16.856ZM69.1757 13.2366C69.1716 13.2729 69.856 14.5891 70.6963 16.1609L72.2247 19.0188C73.4298 19.0188 73.7679 18.9794 73.9407 18.9029C74.085 18.8388 74.2323 18.709 74.2687 18.6133C74.3065 18.5129 74.3018 18.3174 74.2578 18.1498C74.2162 17.9907 73.7733 17.087 73.274 16.1423C72.775 15.1977 72.2263 14.2592 72.055 14.0569C71.8661 13.8337 71.5627 13.5988 71.2834 13.4583C70.8769 13.2536 70.7287 13.2235 70.0027 13.1987C69.5522 13.1825 69.1795 13.2003 69.1757 13.2366ZM26.225 32.4971C27.6146 29.8841 29.014 27.2518 29.3344 26.6462L29.9175 25.5455H33.5694C37.0137 25.5455 37.2197 25.5533 37.1781 25.6807C37.1542 25.7549 36.1295 27.7013 34.902 30.0061C33.6745 32.3109 32.6699 34.2311 32.6699 34.2736C32.6699 34.3238 33.7601 34.3578 38.8268 34.3896L37.2221 37.4404H30.4322C25.0366 37.4404 23.6486 37.4205 23.671 37.3439C23.6864 37.2906 24.8361 35.1094 26.225 32.4971ZM38.4566 37.4019C38.4566 37.3802 39.8676 34.7038 41.593 31.4543L44.7293 25.5455H48.4599C51.3942 25.5455 52.1895 25.5664 52.1879 25.6421C52.1866 25.6954 50.7876 28.3625 45.9731 37.4019L42.2148 37.4211C40.1478 37.4319 38.4566 37.4227 38.4566 37.4019ZM51.381 30.991C52.9396 28.0597 54.2288 25.6351 54.2474 25.6035C54.266 25.5718 57.3698 25.5455 61.1444 25.5455C64.9188 25.5455 68.0065 25.5718 68.0052 25.6035C68.0043 25.6351 67.6132 26.3913 66.2699 28.9056L59.6359 28.9479L59.1923 29.7565C58.9486 30.2024 58.7487 30.6008 58.7487 30.6434C58.7487 30.6935 59.8111 30.7275 64.7399 30.7593L63.1504 33.7716L57.0226 33.8488L55.0836 37.4419L47.9467 37.4404L48.2477 36.8806C48.4127 36.5724 49.8233 33.9222 51.381 30.991ZM66.388 31.493C67.7968 28.8375 69.0869 26.4137 69.255 26.1055L69.5591 25.5455H76.6148C80.4952 25.5455 83.6692 25.5718 83.6679 25.6035C83.667 25.6351 83.3229 26.304 82.1408 28.5192L74.8666 28.5964L74.4901 29.2529C74.2833 29.6137 74.129 29.9358 74.1467 29.9676C74.1652 29.9992 75.6552 30.0254 77.4591 30.0254C79.2621 30.0254 80.7374 30.0518 80.7374 30.0833C80.7367 30.1151 80.3979 30.777 79.2337 32.9651L72.521 32.9629L71.7339 34.3896L75.426 34.4088C78.3193 34.4243 79.1172 34.4489 79.1157 34.5246C79.1141 34.5781 78.776 35.2554 77.6134 37.4381L63.2238 37.4404L63.5247 36.8806C63.6897 36.5724 64.9782 34.1476 66.388 31.493Z" fill="#141A1F"/>
</svg>
