<svg width="173" height="62" viewBox="0 0 173 62" fill="none" xmlns="http://www.w3.org/2000/svg">
<mask id="mask0_1409_1411" style="mask-type:luminance" maskUnits="userSpaceOnUse" x="0" y="0" width="173" height="62">
<path d="M0 0H173V62H0V0Z" fill="white"/>
</mask>
<g mask="url(#mask0_1409_1411)">
<path d="M46.9736 32.6632L48.3008 52.1358L24.8133 56.9811L22.786 37.5084L26.1406 36.9706C26.6866 37.2403 27.0759 37.3302 27.7003 37.5084C28.7139 37.7781 29.8857 38.1377 31.6022 37.0589C31.9928 36.7908 32.8511 35.9832 33.1633 35.4454L46.9736 32.6632ZM10.6909 55.8155C10.3016 55.0963 9.5988 54.2887 8.50673 53.3029C6.94568 51.8661 7.49306 49.3535 8.42834 47.8284C9.5988 45.2259 15.7633 41.8159 15.4511 37.5984C15.2956 36.0732 15.1402 34.0984 13.8914 32.6632C13.8454 33.0196 13.8454 33.3839 13.8914 33.7404C13.8914 33.7404 13.344 33.0228 13.1102 31.9455C12.8763 31.5859 12.6425 31.4076 12.4073 30.8682C12.2519 31.496 12.2519 32.1237 12.2519 32.1237C12.2519 32.1237 11.8613 30.9581 11.7843 30.0623C11.5491 30.5102 11.4721 31.3177 11.4721 31.3177C11.4721 31.3177 10.926 29.5228 11.0815 28.5355C10.8476 27.7279 10.0678 26.0229 10.3016 22.2533C11.6275 23.3306 14.5928 23.0624 15.7633 21.0877C16.1539 20.46 16.3877 18.6651 15.6078 15.1652C15.0605 12.9223 13.7346 9.6007 13.1885 8.3452L13.1102 8.4351C13.4224 9.42245 13.9684 11.5754 14.2022 12.6511C14.8266 15.7929 15.0618 16.8702 14.7496 18.3055C14.5144 19.561 13.89 20.3701 12.2519 21.266C10.6909 22.165 8.50673 19.9206 8.42834 19.8307C6.86864 18.3954 5.69819 16.0627 5.54141 14.9854C5.38598 13.7299 6.16583 13.0122 6.55508 12.0249C6.15381 12.1691 5.76293 12.349 5.38598 12.5627C5.38598 12.5627 6.08879 11.6653 7.02407 10.9476C7.41467 10.6779 7.64849 10.4981 8.03774 10.1401H7.02407C7.02407 10.1401 7.9607 9.51235 8.97437 9.15275H7.56875L11.3139 7.2695C12.4844 6.73165 13.5778 6.91145 14.2009 7.8988C15.0605 9.2442 15.9174 9.96185 17.7122 10.5013C18.8056 9.96185 19.1949 9.60225 20.5992 9.1543C21.848 7.5392 22.863 7.3594 22.863 7.3594C22.863 7.3594 22.1602 8.07705 22.0818 8.8846C22.7846 8.25685 23.5645 7.719 23.5645 7.719C23.5645 7.719 23.2536 8.1685 23.0185 8.79625L23.0969 8.8846C23.9551 8.34675 24.8917 7.8988 24.8917 7.8988C24.8917 7.8988 24.5795 8.25685 24.2673 8.79625C24.8917 8.79625 26.1406 8.79625 26.6082 8.8846C29.4951 8.9745 30.1196 5.38625 31.2116 4.84685C32.6173 4.309 33.2403 3.9494 35.5812 6.64175C37.6099 8.9745 39.171 13.0122 38.3911 13.9113C37.7667 14.6289 36.4395 13.6415 34.9582 11.5769C34.177 10.5012 33.6309 9.1543 33.3187 7.5392C33.1633 6.1938 32.305 5.3847 32.305 5.3847C32.305 5.3847 32.8511 6.73165 32.8511 7.8988C32.8511 8.52655 32.9281 10.8593 33.7864 12.2047C33.7093 12.3845 33.6309 13.192 33.5525 13.2819C32.5389 11.8467 30.275 10.8593 29.9641 10.5013C31.2116 11.6669 34.0215 14.2693 35.1136 16.7818C36.1273 19.2045 35.5042 21.359 36.0502 21.8968C36.2057 22.0766 38.2344 24.9473 38.625 26.4725C39.3278 29.0765 38.7033 31.7673 37.7667 33.3824L35.269 33.8318C34.9433 33.7665 34.628 33.6452 34.3337 33.4722C34.4892 33.1142 34.8798 32.2168 34.8798 32.0369L34.723 31.7673C33.9431 33.0228 32.6159 34.2798 31.5238 34.9974C30.1196 35.8965 28.4815 35.805 27.3881 35.3571C24.3457 34.2798 21.4588 31.947 20.833 31.3193C20.833 31.3193 20.833 31.7688 20.9127 31.947C21.6926 32.9344 23.4091 34.7293 25.1255 35.9848L21.5358 36.4343L23.2523 51.6878C22.4724 51.7777 22.394 51.8676 21.5358 52.0474C20.833 49.0869 19.4301 47.2021 17.869 46.035C16.5418 45.0476 14.6699 44.7795 12.875 45.229L12.7966 45.4072C14.0454 45.2274 15.5268 45.4972 17.0108 46.5744C18.4934 47.6501 19.6639 50.4323 20.1329 52.0474C20.6776 54.2019 21.0682 56.4448 19.5855 58.8674C18.4934 60.5724 15.3713 61.5598 12.875 59.4952C13.5778 60.7507 14.436 61.738 15.6835 61.9178C17.4784 62.1875 19.1949 61.8279 20.4437 60.4825C21.4574 59.3154 22.0048 56.8028 21.8494 54.112L23.4875 53.8423L24.0335 58.5977L50.6417 54.9196L48.3008 30.5117L46.9736 30.7799L44.3204 0L0 5.92255L5.46166 56.7114L10.6909 55.8155Z" fill="#632CA6"/>
<path d="M31.7657 29.1183C32.9362 30.1041 33.9498 30.7179 34.9662 30.6435C35.5906 30.5536 36.2151 29.3864 36.6043 28.3107C36.9165 27.5931 36.9165 26.7855 36.4502 26.5329C36.2178 26.4445 35.2798 26.4445 34.5945 26.5329C33.27 26.7111 31.9428 27.2521 31.6306 27.5202C31.1616 27.8783 31.3981 28.7757 31.7846 29.1198L31.7657 29.1183ZM32.0941 18.6031V18.6914L32.1712 18.8697C32.4834 19.5873 32.7956 20.3065 33.42 20.6475C33.5755 20.6475 33.7322 20.5592 33.889 20.5592C34.2594 20.5452 34.6283 20.6057 34.9811 20.7374V20.1996C34.904 19.3006 35.1365 17.6886 33.5903 16.7896C32.9659 16.43 32.1982 16.6113 31.8901 16.9678H32.0441C32.4334 17.1461 32.1996 17.3274 32.1225 17.5057C32.0441 17.8653 31.9671 17.9552 32.1225 18.5829M25.0647 18.7984C25.4539 18.4388 23.2711 17.8994 21.552 19.158C20.3031 20.1438 20.3031 22.2084 21.4749 23.374C21.6304 23.4623 21.7074 23.5522 21.7871 23.6406C22.0993 23.4623 22.5683 23.281 22.9576 23.1012C23.7388 22.8361 24.3497 22.6548 24.9092 22.5633C25.1404 22.2037 25.4539 21.6643 25.3769 20.6785C25.2998 19.3331 24.3632 19.6013 25.066 18.7953L25.0647 18.7984ZM42.2322 44.0153L37.7856 40.6053L34.0404 47.7833L29.6694 46.2582L25.8472 52.9883L26.0013 55.1211L46.914 50.7253L45.6638 35.7399L42.2322 44.0153ZM147.339 37.8665C143.768 37.8665 141.846 35.4981 141.846 30.9178C141.846 26.3391 143.632 23.9692 147.339 23.9692C150.91 23.9692 152.694 26.3391 152.694 30.9178C152.694 35.4981 150.91 37.8665 147.339 37.8665ZM147.339 20.8118C141.572 20.8118 138.551 24.1288 138.551 30.9178C138.826 37.7084 141.846 41.0238 147.339 41.0238C153.106 41.0238 155.991 37.7084 155.991 30.9178C156.127 24.1288 153.244 20.8118 147.339 20.8118ZM167.925 23.9692C169.71 23.9692 171.358 24.2854 172.867 25.0743V21.7589C171.358 21.1265 169.71 20.8118 167.787 20.8118C161.471 20.8118 158.313 24.1288 158.313 30.7597C158.313 37.7084 161.471 41.1819 167.65 41.1819C169.847 41.1819 171.494 40.8673 173.005 40.0768V29.4965H167.65L166.552 32.8135H169.71V37.5503C169.024 37.7084 168.337 37.8665 167.65 37.8665C163.667 37.8665 161.608 35.4981 161.608 30.6016C161.608 26.181 163.805 23.9692 167.925 23.9692ZM127.725 37.634H123.88V24.056H127.725C131.296 24.056 133.218 26.1066 133.218 30.3707C133.08 35.2671 131.296 37.634 127.725 37.634ZM128.138 20.8955H120.585V40.9525H128.138C133.63 40.9525 136.377 37.4774 136.377 30.3707C136.377 24.0544 133.63 20.8955 128.138 20.8955ZM62.776 37.6603H58.9308V24.0808H62.776C66.4833 24.0808 68.2687 26.133 68.2687 30.397C68.2687 35.2919 66.3468 37.6603 62.776 37.6603ZM63.1882 20.9219H55.6357V40.9773H63.1882C68.6809 40.9773 71.4273 37.5038 71.4273 30.397C71.4273 24.0808 68.6809 20.9219 63.1882 20.9219ZM112.765 35.4252L114.961 40.951H118.394L110.843 20.8955H107.272L99.8574 40.9525H103.153L109.058 24.6868L111.804 32.2663H108.233L107.134 35.4252H112.765ZM84.3401 35.4252L86.5378 40.951H90.1073L82.4169 20.8955H78.9839L71.5692 40.9525H74.8643L80.6328 24.6868L83.5157 32.2663H79.8097L78.7109 35.4252H84.3401ZM88.1853 24.0544H93.2659V40.951H96.561V24.056H101.505V20.894H88.1853V24.0529V24.0544Z" fill="#632CA6"/>
</g>
</svg>
