<svg width="155" height="40" viewBox="0 0 155 40" fill="none" xmlns="http://www.w3.org/2000/svg">
<g clip-path="url(#clip0)">
<path d="M49.9008 13.2564L49.3527 9.92938C49.1783 8.85451 48.7797 7.98438 48.4558 7.98438C48.1319 7.98438 47.8578 8.8801 47.8578 9.95498V10.8251C47.8578 11.9 46.9858 12.7957 45.9394 12.7957H45.0924C45.0425 12.7957 44.9678 12.7957 44.918 12.7957V15.2014C44.9678 15.2014 45.0425 15.2014 45.0924 15.2014H48.2814C49.3527 15.2014 50.0752 14.3312 49.9008 13.2564Z" fill="black"/>
<path d="M42.252 10.4412H37.0699C37.0201 10.4412 36.9951 10.4412 36.9453 10.4412H31.6386C31.5639 10.4412 31.514 10.4412 31.4642 10.4668V9.95498C31.4642 8.8801 31.1901 7.98438 30.8663 7.98438C30.5424 7.98438 30.1437 8.85451 29.9693 9.92938L29.4212 13.2564C29.2468 14.3312 29.9693 15.2014 31.0157 15.2014H34.2048C34.5286 15.2014 34.8525 15.1502 35.1017 15.0478C35.002 15.6109 34.5286 16.0203 33.9556 16.0203H29.4711C28.7485 16.0203 28.2004 15.3549 28.325 14.6128L28.7735 11.8232C28.898 11.081 28.3499 10.4156 27.6274 10.4156H5.40393C4.93056 10.4156 4.53193 10.6972 4.33262 11.1322L0.147028 17.7094C0.0722849 17.8118 0.0722849 17.9653 0.171942 18.0677L0.994111 19.0402C1.09377 19.1682 1.26817 19.1938 1.39274 19.0914L4.23296 16.7881V30.8126C4.23296 31.478 4.75616 32.0155 5.40393 32.0155H11.7321C12.3799 32.0155 12.9031 31.478 12.9031 30.8126V25.9501C12.9031 25.2847 13.4263 24.7473 14.0741 24.7473H29.8448C30.4925 24.7473 31.0157 25.2847 31.0157 25.9501V30.8126C31.0157 31.478 31.5389 32.0155 32.1867 32.0155H38.5149C39.1627 32.0155 39.6859 31.478 39.6859 30.8126V25.5406H36.3225C35.2761 25.5406 34.4041 24.6449 34.4041 23.57V20.2175C34.4041 19.5777 34.703 19.0146 35.1764 18.6563V22.6743C35.1764 23.7492 36.0484 24.6449 37.0948 24.6449H42.277C43.3234 24.6449 44.1954 23.7492 44.1954 22.6743V12.4374C44.1704 11.337 43.3234 10.4412 42.252 10.4412Z" fill="black"/>
<path d="M54.1616 11.1055H61.2871C64.6754 11.1055 66.9426 12.7946 66.9426 16.0448C66.9426 18.7064 65.1737 20.2931 63.4546 20.8561C63.9778 21.2912 64.3515 21.9054 64.6505 22.5452C65.373 24.0551 65.8464 25.693 67.3661 25.693C67.7399 25.693 68.0637 25.5651 68.0637 25.5651L67.7149 28.7129C67.7149 28.7129 66.7931 28.9432 65.9959 28.9432C63.9529 28.9432 62.7819 28.1243 61.5611 25.3092C61.0379 24.0551 60.3403 21.8286 59.3936 21.8286H58.422V28.8409H54.1367V11.1055H54.1616ZM58.422 14.3045V18.6552H59.9666C61.1874 18.6552 62.6325 18.2713 62.6325 16.3775C62.6325 14.8163 61.6608 14.3045 60.4898 14.3045H58.422Z" fill="black"/>
<path d="M72.6996 11.1055H77.0347L82.8646 28.8409H78.5295L77.4582 25.4883H71.6781L70.6317 28.8409H66.8945L72.6996 11.1055ZM72.6996 22.2381H76.4118L75.2408 18.5016C74.8422 17.2476 74.6429 15.4561 74.6429 15.4561H74.5432C74.5432 15.4561 74.2941 17.2732 73.8955 18.476L72.6996 22.2381Z" fill="black"/>
<path d="M83.0371 11.1055H87.6213L92.1557 19.9092C92.5295 20.677 93.0527 22.0078 93.4513 23.057H93.5509C93.5011 22.0589 93.3765 20.6514 93.3765 19.6021V11.1055H96.8895V28.8409H92.4049L87.6961 20.0883C87.2725 19.295 86.7992 18.1433 86.4504 17.1964H86.3507C86.4255 18.1945 86.55 19.3718 86.55 20.3443V28.8665H83.0371V11.1055Z" fill="black"/>
<path d="M97.8105 19.8839C97.8105 13.4602 100.9 10.8242 105.683 10.8242C110.716 10.8242 112.734 13.665 112.186 17.5038L108.2 17.8621C108.623 15.0469 107.552 13.9209 105.609 13.9209C103.74 13.9209 102.22 15.3284 102.22 19.9095C102.22 24.7464 103.865 25.9748 105.733 25.9748C107.502 25.9748 108.922 24.8488 108.623 22.5199L112.36 22.9037C112.634 26.5122 110.118 29.1482 105.509 29.1482C100.825 29.1738 97.8105 26.3331 97.8105 19.8839Z" fill="black"/>
<path d="M113.234 11.1055H117.495V17.8106H122.752V11.1055H127.012V28.8665H122.752V21.3424H117.495V28.8665H113.234V11.1055Z" fill="black"/>
<path d="M128.73 11.1055H140.166V14.3813H133.016V18.1945H139.02V21.4447H133.016V25.5907H140.44V28.8665H128.73V11.1055Z" fill="black"/>
<path d="M141.236 11.1055H148.362C151.75 11.1055 154.017 12.7946 154.017 16.0448C154.017 18.7064 152.248 20.2931 150.529 20.8561C151.053 21.2912 151.426 21.9054 151.725 22.5452C152.448 24.0551 152.921 25.693 154.441 25.693C154.815 25.693 155.138 25.5651 155.138 25.5651L154.815 28.7129C154.815 28.7129 153.893 28.9432 153.096 28.9432C151.053 28.9432 149.882 28.1243 148.661 25.3092C148.138 24.0551 147.44 21.8286 146.493 21.8286H145.522V28.8409H141.236V11.1055ZM145.522 14.3045V18.6552H147.066C148.287 18.6552 149.732 18.2713 149.732 16.3775C149.732 14.8163 148.76 14.3045 147.589 14.3045H145.522Z" fill="black"/>
</g>
<defs>
<clipPath id="clip0">
<rect width="155" height="40" fill="white"/>
</clipPath>
</defs>
</svg>
