<svg width="150" height="50" viewBox="0 0 150 50" fill="none" xmlns="http://www.w3.org/2000/svg">
<g clip-path="url(#clip0)">
<path d="M64.4093 35.8232L57.8669 17.8694C57.7596 17.6594 57.6523 17.3445 57.6523 17.0295C57.6523 16.2945 58.2959 15.4546 59.3684 15.4546C60.1192 15.4546 60.7627 15.9796 61.0844 16.8195L66.4471 32.2534L71.917 16.7145C72.1315 15.9796 72.6677 15.3496 73.5258 15.3496H73.7403C74.5983 15.3496 75.2418 15.8746 75.4563 16.7145L80.8189 32.2534L86.2888 16.7145C86.5033 16.0846 86.9324 15.4546 87.8976 15.4546C88.8629 15.4546 89.5064 16.0846 89.5064 16.9245C89.5064 17.2395 89.3992 17.5545 89.2919 17.7644L82.6422 35.7182C82.3205 36.6631 81.677 37.1881 80.8189 37.1881H80.7117C79.9609 37.1881 79.2102 36.7681 78.8884 35.7182L73.5258 20.4942L68.1631 35.7182C67.8414 36.6631 67.3051 37.1881 66.3398 37.1881H66.2326C65.3745 37.2931 64.731 36.6631 64.4093 35.8232Z" fill="#141A1F"/>
<path d="M112.244 17.133C112.244 16.2931 112.887 15.4531 113.853 15.4531C114.711 15.4531 115.569 16.0831 115.569 17.133V20.8077C117.178 17.238 120.717 15.6631 122.969 15.6631C123.935 15.6631 124.578 16.2931 124.578 17.343C124.578 18.1829 124.042 18.8129 123.077 19.0229C118.894 19.4428 115.462 22.5926 115.462 28.6822V35.8217C115.462 36.6616 114.818 37.5016 113.853 37.5016C112.995 37.5016 112.137 36.8716 112.137 35.8217V17.133" fill="#141A1F"/>
<path d="M134.983 37.3966C129.192 37.3966 124.473 32.9869 124.473 26.4773V26.3724C124.473 20.2828 128.763 15.4531 134.662 15.4531C140.99 15.4531 144.529 20.4928 144.529 26.1624C144.529 27.0023 143.885 27.6323 143.027 27.6323H127.583C128.012 32.1469 131.337 34.7718 135.091 34.7718C137.665 34.7718 139.703 33.8268 141.204 32.3569C141.419 32.147 141.74 32.042 142.062 32.042C142.813 32.042 143.456 32.6719 143.456 33.4069C143.456 33.7218 143.349 34.1418 143.027 34.3518C140.99 36.1367 138.63 37.3966 134.983 37.3966ZM141.311 25.2174C140.99 21.3327 138.737 18.0779 134.554 18.0779C130.801 18.0779 128.012 21.1227 127.69 25.2174H141.311Z" fill="#141A1F"/>
<path d="M89.3984 30.887C89.3984 26.3724 93.1523 23.9575 98.6222 23.9575C101.411 23.9575 103.341 24.2725 105.272 24.7975V24.0625C105.272 20.1778 102.912 18.3929 98.8367 18.3929C96.6916 18.3929 95.4046 18.6029 93.7958 19.3379C93.5813 19.4428 93.3668 19.4428 93.2595 19.4428C92.5088 19.4428 91.758 18.8129 91.758 18.0779C91.758 17.343 92.0798 17.028 92.616 16.713C94.7611 15.8731 96.3699 15.4531 99.1584 15.4531C102.162 15.4531 104.521 16.1881 106.13 17.763C107.631 19.2329 108.382 21.3327 108.382 23.9575V35.6117C108.382 36.4517 107.739 37.1866 106.773 37.1866C105.915 37.1866 105.165 36.5567 105.165 35.7167V33.6169C103.663 35.6117 101.089 37.2916 97.3351 37.2916C93.474 37.3966 89.3984 35.1917 89.3984 30.887ZM105.272 29.2072V27.1073C103.663 26.6873 101.518 26.2674 98.8367 26.2674C94.7611 26.2674 92.5088 28.0522 92.5088 30.6771V30.7821C92.5088 33.4069 94.9756 34.9818 97.8714 34.9818C102.054 34.9818 105.272 32.5669 105.272 29.2072Z" fill="#141A1F"/>
<path d="M5.85119 16.8182C5.20768 15.2434 3.38438 14.6134 1.77559 15.2434C0.166794 15.8733 -0.476723 17.7632 0.3813 19.2331L7.24548 33.827C8.31801 36.1369 9.49779 37.3968 11.6428 37.3968C13.8952 37.3968 14.8604 36.0319 16.0402 33.827C16.0402 33.827 22.0464 21.0179 22.1536 20.913C22.2609 20.808 22.3681 20.388 23.0116 20.388C23.5479 20.388 23.8697 20.808 23.8697 21.3329V33.7221C23.8697 35.6119 24.9422 37.2918 26.98 37.2918C29.1251 37.2918 30.1976 35.7169 30.1976 33.7221V23.6428C30.1976 21.6479 31.6991 20.388 33.5224 20.388C35.453 20.388 36.74 21.7529 36.74 23.6428V33.827C36.74 35.7169 37.8125 37.3968 39.8503 37.3968C41.9954 37.3968 43.0679 35.8219 43.0679 33.827V23.6428C43.0679 21.6479 44.5695 20.388 46.3928 20.388C48.3233 20.388 49.6103 21.7529 49.6103 23.6428V33.827C49.6103 35.7169 50.6829 37.3968 52.7207 37.3968C54.8657 37.3968 55.9383 35.8219 55.9383 33.827V22.2779C55.9383 17.9732 52.5062 15.0334 48.216 15.0334C43.9259 15.0334 41.3519 17.8682 41.3519 17.8682C39.8503 16.0833 38.027 15.0334 34.7022 15.0334C31.2701 15.0334 28.1598 17.8682 28.1598 17.8682C26.7655 16.0833 24.2987 15.0334 22.4754 15.0334C19.4723 15.0334 17.0055 16.3983 15.5039 19.653L11.1066 29.7323L5.85119 16.8182Z" fill="#141A1F"/>
<path d="M144.637 18.0779C144.637 16.608 145.924 15.4531 147.318 15.4531C148.82 15.4531 149.999 16.713 149.999 18.0779C149.999 19.5478 148.712 20.7028 147.318 20.7028C145.816 20.7028 144.637 19.5478 144.637 18.0779ZM149.463 18.0779C149.463 16.818 148.605 15.9781 147.318 15.9781C146.031 15.9781 145.173 16.923 145.173 18.0779C145.173 19.3379 146.031 20.1778 147.318 20.1778C148.605 20.1778 149.463 19.2329 149.463 18.0779Z" fill="#141A1F"/>
</g>
<defs>
<clipPath id="clip0">
<rect width="150" height="50" fill="white"/>
</clipPath>
</defs>
</svg>
