<svg xmlns="http://www.w3.org/2000/svg" width="164" height="40" viewBox="0 0 164 40" fill="none">
  <path fill="#141A1F"
    d="M81.59 19.129a6.807 6.807 0 0 0-1.012-.283c-.858-.171-1.716-.3-2.574-.488a6.877 6.877 0 0 1-1.536-.497 1.295 1.295 0 0 1-.679-1.558c.063-.198.172-.377.318-.524.218-.24.488-.428.79-.548a4.178 4.178 0 0 1 3.037 0 1.888 1.888 0 0 1 1.28 1.585c.003.02.003.04 0 .06a.112.112 0 0 0 .102.094l2.248-.677a.368.368 0 0 0 .258-.436 3.675 3.675 0 0 0-1.442-2.202 6.667 6.667 0 0 0-6.367-.788 4.65 4.65 0 0 0-2.356 1.902 4.636 4.636 0 0 0-.682 2.946 3.425 3.425 0 0 0 2.574 2.776c1.039.317 2.129.48 3.193.745.651.13 1.287.327 1.896.59a1.434 1.434 0 0 1 .801 1.137 1.428 1.428 0 0 1-.543 1.28 2.49 2.49 0 0 1-.859.48 4.298 4.298 0 0 1-2.686.068 2.319 2.319 0 0 1-1.776-1.67c0-.06-.06-.18-.06-.18a.094.094 0 0 0-.094-.095l-2.326.694a.369.369 0 0 0-.249.454 4.222 4.222 0 0 0 2 2.613 7.529 7.529 0 0 0 6.736.368 4.17 4.17 0 0 0 2.678-3.067 4.053 4.053 0 0 0-.407-2.906 4.066 4.066 0 0 0-2.262-1.873ZM106.315 13.569a5.533 5.533 0 0 0-7.629.925l-.352.437c-1.716-3.092-6.221-3.426-8.924-.377-.18-.617-.352-1.208-.507-1.773h-2.06v14.425h2.944V19.41a4.404 4.404 0 0 1 1.528-3.64 2.765 2.765 0 0 1 4.565 1.644c.1.54.148 1.087.146 1.636v8.146h2.909V24.68c0-2.013 0-4.017.06-5.996a3.79 3.79 0 0 1 1.09-2.57 2.988 2.988 0 0 1 3.149-.856 2.568 2.568 0 0 1 1.828 2.244c.093.508.139 1.024.137 1.542v8.189h2.927a1.716 1.716 0 0 0 0-.249v-9.422a5.058 5.058 0 0 0-1.811-3.992ZM63.753 12.387a7.52 7.52 0 0 0-5.526 2.131 7.496 7.496 0 0 0-2.258 5.467 7.771 7.771 0 0 0 2.37 5.332 7.8 7.8 0 0 0 10.836 0 7.771 7.771 0 0 0 2.37-5.332 7.5 7.5 0 0 0-2.267-5.464 7.527 7.527 0 0 0-5.525-2.134Zm-.077 12.37a4.607 4.607 0 0 1-3.377-1.405 4.59 4.59 0 0 1-1.283-3.419 4.722 4.722 0 0 1 2.876-4.69 4.746 4.746 0 0 1 5.377 1.198 4.726 4.726 0 0 1 1.186 3.612 4.558 4.558 0 0 1-1.36 3.394 4.576 4.576 0 0 1-3.42 1.31ZM118.045 12.387a7.513 7.513 0 0 0-5.55 2.115 7.49 7.49 0 0 0-2.268 5.483 7.773 7.773 0 0 0 2.346 5.344 7.8 7.8 0 0 0 10.837.047 7.776 7.776 0 0 0 2.393-5.323 7.516 7.516 0 0 0-7.758-7.667Zm-.043 12.369a4.602 4.602 0 0 1-4.42-2.928 4.585 4.585 0 0 1-.308-1.843 4.714 4.714 0 0 1 1.231-3.6 4.734 4.734 0 0 1 3.489-1.53 4.74 4.74 0 0 1 4.483 3.2c.212.62.292 1.277.237 1.93a4.573 4.573 0 0 1-4.712 4.771ZM139.577 14.443a5.673 5.673 0 0 0-6.007-1.825 6.003 6.003 0 0 0-3.321 2.133c-.215-.694-.404-1.336-.601-1.979h-2.043v14.434h2.97V19.17a3.905 3.905 0 0 1 .904-2.663 3.923 3.923 0 0 1 2.46-1.371 3.067 3.067 0 0 1 3.707 2.526c.101.54.148 1.088.137 1.637v7.897h2.969a.884.884 0 0 0 0-.162v-9.037a5.996 5.996 0 0 0-1.175-3.555ZM50.828 22.366a4.2 4.2 0 0 1-1.914 1.901 4.608 4.608 0 0 1-5.758-1.328 5.03 5.03 0 0 1 .403-6.381 4.679 4.679 0 0 1 3.893-1.298 4.682 4.682 0 0 1 3.418 2.266c.086.146.232.36.36.368h2.73c-.172-2.92-3.673-5.56-7.277-5.533a7.473 7.473 0 0 0-5.28 2.122 7.445 7.445 0 0 0-2.246 5.219 7.422 7.422 0 0 0 1.917 5.418 7.45 7.45 0 0 0 5.214 2.436 7.174 7.174 0 0 0 4.935-1.333 7.151 7.151 0 0 0 2.788-4.277h-2.488a.636.636 0 0 0-.696.42ZM161.467 21.964a.603.603 0 0 0-.653.377 4.216 4.216 0 0 1-1.896 1.927 4.598 4.598 0 0 1-5.818-1.37 5.013 5.013 0 0 1 .506-6.34 4.693 4.693 0 0 1 7.277 1.02c.086.146.24.351.369.36h2.729a7.048 7.048 0 0 0-2.774-4.22 7.072 7.072 0 0 0-4.889-1.288 7.446 7.446 0 0 0-5.205 2.392 7.424 7.424 0 0 0-1.952 5.377 7.459 7.459 0 0 0 2.198 5.237 7.489 7.489 0 0 0 5.251 2.181c3.595.103 7.148-2.57 7.388-5.628-.867-.017-1.699-.008-2.531-.025ZM143.945 27.198h2.944V12.765h-2.944v14.433ZM146.888 8.036h-2.935v2.93h2.935v-2.93Z" />
  <path fill="#685BC7"
    d="M14.992 29.734c-1.81-4.832-4.188-7.179-9.054-8.986a.798.798 0 0 1 0-1.5c4.866-1.806 7.243-4.162 9.054-8.993a.797.797 0 0 1 1.22-.39.797.797 0 0 1 .29.39c1.459 4.882 3.15 8.197 14.263 8.411a.798.798 0 0 0 .806-.796v-5.448a2.865 2.865 0 0 0-1.416-2.467L17.223 2.39a2.836 2.836 0 0 0-2.875 0L1.416 9.955A2.871 2.871 0 0 0 0 12.43v15.154a2.849 2.849 0 0 0 1.416 2.466l12.932 7.564a2.87 2.87 0 0 0 2.875 0l12.932-7.563a2.854 2.854 0 0 0 1.416-2.467v-5.5a.793.793 0 0 0-.504-.74.8.8 0 0 0-.311-.056c-11.156.214-12.795 3.529-14.254 8.403a.787.787 0 0 1-1.214.439.788.788 0 0 1-.296-.396Z" />
</svg>
