<svg width="135" height="48" viewBox="0 0 135 48" fill="none" xmlns="http://www.w3.org/2000/svg">
<path d="M91.2132 34.7144C91.2057 34.7219 91.1981 34.7219 91.1981 34.7295C85.4726 38.7607 78.6944 42.9954 71.4013 47.4411L71.1134 47.6069C71.015 47.6747 70.9923 47.8103 71.0605 47.9083C71.1286 48.0062 71.2649 48.0288 71.3634 47.9611L71.6058 47.8329C77.7932 44.623 84.897 40.8103 92.0463 36.8996C92.0842 36.8769 92.122 36.8543 92.1598 36.8393C91.7661 36.1913 91.4404 35.483 91.2132 34.7144ZM128.777 4.46119C119.757 -5.43987 61.7073 3.46659 37.0257 8.83152L36.4502 8.95207C36.3289 8.97467 36.2533 9.08772 36.2759 9.20078C36.2987 9.32133 36.4123 9.39668 36.5259 9.37402L37.0939 9.26102C57.542 5.63665 100.074 0.618318 109.223 9.64533C112.017 12.4031 111.351 15.9446 108.109 20.1341C109.851 21.2493 111.093 23.005 111.654 25.1976C124.301 16.8488 132.791 8.86923 128.777 4.46119Z" fill="#D03027"/>
<path d="M94.8644 32.1156C94.978 35.5968 97.197 38.4525 100.082 38.4525C105.679 38.4525 108.065 31.6108 107.898 27.0445C107.777 23.5558 105.505 20.7076 102.619 20.7076C97.8104 20.7001 94.6978 27.5117 94.8644 32.1156ZM91.9108 31.9273C91.7063 25.9821 96.3866 19.9013 103.188 19.9013C107.732 19.9013 110.708 22.9153 110.874 27.5343C111.094 33.8035 106.717 39.5603 99.6053 39.5603C95.0461 39.5603 92.0698 36.5537 91.9108 31.9273ZM27.5014 30.36C27.2591 30.4503 26.9486 30.5408 26.5547 30.6236C26.1686 30.7141 25.4566 30.8347 24.4267 31.0004C23.7148 31.1134 23.2225 31.2566 22.9422 31.4601C22.6772 31.656 22.5182 31.8896 22.4727 32.1835C22.4197 32.4924 22.5181 32.7335 22.7832 32.9294C23.0559 33.1178 23.5103 33.2157 24.154 33.2157C24.6387 33.2157 25.1083 33.1404 25.5627 32.9897C26.0246 32.839 26.4185 32.6355 26.7138 32.3793C26.9334 32.191 27.0925 31.9499 27.2136 31.656C27.2894 31.4601 27.3878 31.0306 27.5015 30.36H27.5014ZM33.4087 26.7054C33.386 27.248 33.2875 27.7302 33.1436 28.5666L32.1439 34.1501C32.0606 34.6474 32.2424 35.0317 32.7044 35.3029L32.6741 35.5214L26.9486 35.5139L26.8955 34.0973C26.0625 34.5946 25.0553 35.0166 24.1464 35.2653C23.2376 35.4988 22.503 35.5968 21.4049 35.5968C19.557 35.5968 18.4967 35.4084 17.7621 34.7679C17.0199 34.1124 16.6564 33.6754 16.6942 32.7712C16.7245 32.2513 16.9972 31.5806 17.3834 31.1135C17.7772 30.6388 18.3225 30.3299 18.9056 30.0511C19.4964 29.7723 20.1932 29.5687 21.2004 29.4106C22.2152 29.2447 23.6239 29.0866 25.5097 28.9283C26.5018 28.8454 27.1077 28.6194 27.3879 28.5063C27.7817 28.3556 27.9407 28.1823 27.9937 27.8658C28.0997 27.2932 27.918 26.9616 27.1455 26.8109C25.0856 26.404 21.2155 27.0747 19.2238 27.5644L20.3067 24.6559C22.9347 24.2716 25.396 24.0305 27.9937 24.0305C32.1363 24.0305 33.4541 25.1984 33.4086 26.7054H33.4087ZM50.0095 35.5139L51.9938 24.3545H57.4769L55.4927 35.5139H50.0095ZM52.2967 21.77C52.4634 20.8507 53.9174 20.1123 55.5381 20.1123C57.1663 20.1123 58.3554 20.8582 58.1964 21.77C58.0222 22.6893 56.5756 23.4353 54.9398 23.4353C53.3191 23.4353 52.1376 22.6892 52.2967 21.77ZM76.9457 30.3826C76.6958 30.4655 76.3778 30.5559 75.9915 30.6463C75.6053 30.7367 74.8934 30.8497 73.8634 31.0155C73.159 31.1285 72.6592 31.2717 72.3866 31.4752C72.1216 31.6635 71.9701 31.9046 71.9095 32.191C71.8489 32.4999 71.9625 32.7486 72.2199 32.9369C72.5002 33.1253 72.9546 33.2157 73.5983 33.2157C74.0754 33.2157 74.545 33.1479 75.007 33.0048C75.4766 32.8465 75.8628 32.6506 76.1657 32.3944C76.3778 32.206 76.5368 31.9574 76.6504 31.6711C76.7261 31.4827 76.8246 31.0532 76.9457 30.3826ZM82.853 26.7205C82.8303 27.2706 82.7318 27.7528 82.5803 28.5817L81.5883 34.1727C81.505 34.6625 81.6867 35.0543 82.1487 35.3255L82.1184 35.5214L76.3929 35.529L76.3475 34.1049C75.5144 34.6097 74.4995 35.0317 73.5983 35.2728C72.6895 35.5139 71.9549 35.6119 70.8416 35.6119C68.9937 35.6119 67.941 35.431 67.2064 34.783C66.4566 34.1199 66.1007 33.6904 66.1386 32.7862C66.1613 32.2588 66.4339 31.5882 66.8277 31.1285C67.2215 30.6463 67.7668 30.3449 68.3576 30.0661C68.9483 29.7873 69.6451 29.5839 70.6447 29.418C71.6596 29.2599 73.0758 29.094 74.9615 28.9359C75.9461 28.8529 76.552 28.6344 76.8322 28.5214C77.2336 28.3707 77.385 28.1974 77.4456 27.8734C77.5441 27.3082 77.3699 26.9767 76.605 26.8185C74.5299 26.4116 70.675 27.0822 68.6832 27.572L69.7586 24.6635C72.3942 24.2792 74.848 24.0381 77.4456 24.0381C81.5731 24.0456 82.8909 25.2211 82.853 26.7205V26.7205ZM15.952 31.5053C14.1647 31.8594 13.1651 31.9951 11.4005 31.9951C8.78009 31.9951 6.69738 30.699 6.81101 28.3255C6.89434 26.7431 8.7725 23.4127 13.5513 23.4127C15.0584 23.4127 16.2322 23.6764 17.8151 24.573L18.5118 20.7001C16.361 19.8937 14.9372 19.7732 13.0893 19.7883C6.81854 19.8561 0.80526 22.6893 0.0555155 28.4536C-0.701822 34.3083 6.48529 35.7776 9.67377 35.7626C11.514 35.755 13.4301 35.6797 15.2175 35.4988L15.952 31.5053ZM60.4987 24.2942L60.8925 22.0186L66.6255 20.7754L66.0121 24.2867H68.8218L68.2917 26.5321L65.5652 26.5246L63.9067 35.4988C63.9067 35.4988 58.3857 35.4612 58.3629 35.4988L60.014 26.5472H57.9388L58.3629 24.2867H60.4987V24.2942ZM82.8403 35.5136L85.6501 19.9462L91.0878 20.0969L88.422 35.5061L82.8403 35.5136ZM42.7542 26.9692C42.0347 26.9692 41.3834 27.1877 40.8079 27.6172C40.2323 28.0542 39.8688 28.6872 39.7249 29.5235C39.5507 30.4956 39.6567 31.1964 40.043 31.6259C40.4367 32.0553 40.9972 32.2739 41.7394 32.2739C42.2392 32.2739 42.7543 32.1834 43.1329 31.9951C43.6024 31.7464 43.9281 31.4902 44.2083 31.0758C44.5112 30.6463 44.7081 30.1641 44.8142 29.6064C44.9732 28.7248 44.8369 28.0694 44.4279 27.6323C44.0265 27.1952 43.4737 26.9692 42.7542 26.9692ZM32.7725 39.3642L35.4459 24.4148H40.2626L39.8915 26.3211C40.3081 25.7485 40.9745 25.2813 41.8985 24.9045C42.83 24.5277 43.8751 24.2489 45.0111 24.2489C46.2683 24.2489 47.0408 24.3168 47.9799 24.799C48.9114 25.2888 49.5703 25.9971 49.9186 26.9164C50.2821 27.8206 50.3579 28.8453 50.161 29.953C49.8353 31.7991 48.9341 33.2458 47.4497 34.3158C45.9805 35.3858 44.6551 35.6646 42.7694 35.6721C42.103 35.6721 41.5425 35.6043 41.0805 35.4913C40.6261 35.3707 40.2626 35.2275 39.9899 35.0542C39.7249 34.8809 39.4447 34.6323 39.0887 34.2404L38.195 39.3642H32.7725ZM132.3 28.3405C132.269 27.4439 131.815 26.8335 130.883 26.8335C128.634 26.8335 126.241 31.219 125.832 32.9822C129.52 32.9897 132.39 30.8046 132.3 28.3405ZM132.784 35.2125L133.216 35.5064C132.118 37.7293 129.884 39.515 127.263 39.515C125.12 39.515 123.355 38.0909 123.265 35.4235C123.09 30.6388 127.597 26.2006 131.285 26.2006C132.868 26.2006 134.337 26.8863 134.397 28.5817C134.534 32.3869 129.164 33.5473 125.627 33.6302C125.514 34.0295 125.468 34.4289 125.491 35.0317C125.552 36.6065 126.506 37.9327 128.49 37.9327C130.202 37.9327 131.913 36.5613 132.784 35.2125H132.784Z" fill="#004977"/>
<path d="M110.793 28.2197C111.172 28.1669 111.786 28.0991 112.051 28.0991C112.452 28.0991 112.831 28.1745 112.853 28.5738C112.861 28.8074 112.437 30.5028 112.346 30.8946L111.49 34.647C111.142 36.1842 110.771 37.7891 110.438 39.0625H112.634L113.868 33.1174C117.632 29.2143 119.086 27.9408 119.972 27.9408C120.374 27.9408 120.646 28.1518 120.669 28.6265C120.692 29.3122 120.26 30.872 120.116 31.3241L118.859 35.6567C118.571 36.6287 118.359 37.5103 118.382 38.1357C118.42 39.0851 118.995 39.5071 119.859 39.5071C121.464 39.5071 122.631 37.8419 123.645 36.2068L123.35 35.6717C122.941 36.3273 121.987 37.7665 121.237 37.7665C121.002 37.7665 120.775 37.6083 120.768 37.2165C120.745 36.7116 120.957 35.9505 121.108 35.4457L122.509 30.3671C122.888 28.9656 123.062 28.0689 123.055 27.5866C123.017 26.6372 122.464 26.1926 121.608 26.1926C120.162 26.1926 118.246 27.2476 114.179 31.8967H114.118L114.633 29.6287C114.913 28.3854 115.186 27.0893 115.444 26.1927C114.035 26.6975 112.02 27.2626 110.778 27.5038L110.793 28.2197Z" fill="#004977"/>
</svg>
