<svg width="168" height="48" viewBox="0 0 168 48" fill="none" xmlns="http://www.w3.org/2000/svg">
<path fill-rule="evenodd" clip-rule="evenodd" d="M162.614 11.9908L157.622 19.8744L160.061 23.9005L167.998 12.197V11.9908H162.614Z" fill="#08B09C"/>
<path fill-rule="evenodd" clip-rule="evenodd" d="M156.318 21.9367L150.967 13.1072L150.291 11.9908H144.975V12.197L154.083 26.1274V36.0733H158.552L158.556 25.6304L156.318 21.9367Z" fill="#141A1F"/>
<path fill-rule="evenodd" clip-rule="evenodd" d="M59.0824 16.2166C61.8932 16.2166 63.146 18.1461 63.146 20.0813C63.146 22.0166 61.9262 23.9469 59.0824 23.9469H52.277V16.2166H59.0824ZM67.6153 19.9787C67.6153 15.8043 64.6695 12.0259 59.0824 11.9908C55.3239 12.0251 51.5655 11.9908 47.8078 11.9908V36.0733H52.277V28.0341H56.5768L63.4841 36.0733H68.7998V35.7637L61.6218 27.5534C66.1247 26.6261 67.6153 23.2942 67.6153 19.9787Z" fill="#141A1F"/>
<path fill-rule="evenodd" clip-rule="evenodd" d="M78.9615 27.313L83.3633 17.0534L87.765 27.313H78.9615ZM80.9259 11.9908L70.2938 36.0733H75.1356L77.1674 31.5387H89.5591L91.5572 36.0733H96.4328L85.8007 11.9908H80.9259Z" fill="#141A1F"/>
<path fill-rule="evenodd" clip-rule="evenodd" d="M100.195 12.0598V36.073H104.665V27.175H116.549V22.9843H104.665V16.4224H117.226V12.0598H100.195Z" fill="#141A1F"/>
<path fill-rule="evenodd" clip-rule="evenodd" d="M128.645 27.313L133.047 17.0534L137.449 27.313H128.645ZM130.609 11.9908L119.977 36.0733H124.818L126.85 31.5387H139.243L141.241 36.0733H146.116L135.484 11.9908H130.609Z" fill="#141A1F"/>
<path fill-rule="evenodd" clip-rule="evenodd" d="M29.6565 16.2876L25.8758 22.8729H33.4366L29.6565 16.2876ZM14.4464 24.9651L18.482 31.577L18.51 31.5275V31.5283L22.278 24.9651H14.4464ZM16.6536 32.571L12.7972 26.2541L9.17145 32.571H16.6536ZM9.17145 34.6631L12.9507 41.2492L16.7164 34.6631H9.17145ZM11.1564 42.2888L7.37482 35.7012L3.59327 42.2888H11.1564ZM29.6656 35.7058L25.8758 42.307H33.4404L29.6656 35.7058ZM30.8626 33.6151L30.8641 33.6174L30.8626 33.6205L36.1308 42.8341L37.0261 44.4H23.4802L23.1785 43.8729L18.51 35.7066L13.8506 43.8539L13.5496 44.381H0L0.898317 42.8158L11.7462 23.9186L0.979982 5.16511L0.0816652 3.59998H24.765L25.0674 4.12701L36.1308 23.4007L36.4287 23.9186L36.1308 24.438L30.8626 33.6151ZM25.8969 24.9651L29.6671 31.5321L33.4366 24.9651H25.8969ZM27.8667 32.571L24.0874 25.9872L20.3082 32.571H27.8667ZM24.0769 41.2651L27.8667 34.6631H20.3029L24.0769 41.2651ZM22.0473 22.8729L18.2393 16.2389L14.4313 22.8729H22.0473ZM20.16 15.4092L23.9619 22.0325L27.7631 15.4092H20.16ZM12.7882 21.5686L16.324 15.4092H9.25236L12.7882 21.5686ZM21.9014 5.69215H13.9179L18.1818 12.1725L21.9014 5.69215ZM19.9165 13.317H27.9507L23.9332 6.31881L19.9165 13.317ZM9.60624 13.317H16.4457L12.7693 7.72956L9.60624 13.317ZM3.67418 5.69215L7.63267 12.587L11.5352 5.69215H3.67418Z" fill="#08B09C"/>
</svg>
