<svg width="69" height="40" viewBox="0 0 69 40" fill="none" xmlns="http://www.w3.org/2000/svg">
<path d="M38.6854 25.0938H38.6853C37.3621 25.0938 36.4968 24.0054 36.4968 22.6782C36.4968 21.3509 37.3619 20.2629 38.6853 20.2629L38.6853 20.2629M38.6854 25.0938L38.6853 20.2629M38.6854 25.0938L41.8211 25.0899L41.8484 25.0899L41.8632 25.0669L42.3539 24.3001L42.4031 24.2232H42.3118H38.7083C38.2888 24.2232 37.9585 24.0514 37.7321 23.7744C37.505 23.4963 37.3804 23.1095 37.3804 22.6782C37.3804 22.247 37.5049 21.8601 37.7321 21.5821C37.9584 21.305 38.2887 21.1333 38.7083 21.1333H41.9183H41.9463L41.9609 21.1094L42.4347 20.3367L42.4814 20.2605L42.392 20.2605L38.6853 20.2629M38.6854 25.0938L38.6853 20.2629M42.9599 20.2614H42.9099V20.3114V25.045V25.095H42.9599H46.5456H46.5733L46.588 25.0716L47.0738 24.298L47.1219 24.2214H47.0315H43.7731V20.3114V20.2614H43.7231H42.9599ZM36.9678 25.095H37.0581L37.0102 25.0185L34.1882 20.5085C34.1881 20.5084 34.188 20.5082 34.1879 20.508C33.9934 20.1807 33.4852 20.1861 33.2704 20.5187L33.2699 20.5194L30.4706 25.0186L30.423 25.095H30.513H31.4385H31.4663L31.4809 25.0714L32.3108 23.7358H34.0875H34.1155L34.1301 23.7119L34.6046 22.9385L34.637 22.8857L36.0004 25.0715L36.015 25.095H36.0428H36.9678ZM34.562 22.8624H32.8481L33.7405 21.4484L34.6225 22.8624H34.562ZM49.189 24.2232C48.4972 24.2232 48.0441 23.7548 47.9076 23.1033L51.8902 23.1035L51.9179 23.1035L51.9326 23.0801L52.4184 22.3067L52.4665 22.2301H52.3761H47.9088C48.0532 21.5932 48.5076 21.1335 49.1892 21.1335H52.3991H52.4271L52.4418 21.1096L52.9151 20.3369L52.9618 20.2607L52.8725 20.2608L49.1659 20.2629C49.1659 20.2629 49.1659 20.2629 49.1659 20.2629C47.8424 20.2629 46.9775 21.3509 46.9775 22.6782C46.9775 24.0054 47.8421 25.0938 49.1659 25.0938H49.166L52.3013 25.0899L52.3287 25.0899L52.3434 25.0669L52.8345 24.3001L52.8838 24.2232H52.7924H49.189ZM28.8764 23.1718L28.8771 23.1717C29.254 23.1651 29.6131 23.0088 29.8771 22.7367C30.141 22.4646 30.2888 22.0985 30.2888 21.7173C30.2888 21.3361 30.141 20.9701 29.8771 20.698C29.6131 20.4259 29.254 20.2696 28.8771 20.2629V20.2629L28.8763 20.2629L24.9837 20.2612L24.9337 20.2612V20.3112V25.0448V25.0948H24.9837H25.8398H25.8898V25.0448V21.1335H28.8763C29.0288 21.1335 29.1751 21.1949 29.2832 21.3043C29.3912 21.4137 29.452 21.5623 29.452 21.7173C29.452 21.8724 29.3912 22.0209 29.2832 22.1304C29.1751 22.2398 29.0288 22.3011 28.8763 22.3011H26.4413H26.3187L26.4063 22.3869L29.1532 25.0752L29.1678 25.0895H29.1882H30.2933H30.4162L30.3281 25.0037L28.4494 23.1731L28.8764 23.1718ZM19.1133 21.1333H22.4215C22.8413 21.1333 23.1716 21.305 23.398 21.5821C23.6251 21.8601 23.7496 22.247 23.7496 22.6782C23.7496 23.1095 23.6252 23.4963 23.398 23.7744C23.1717 24.0514 22.8414 24.2232 22.4215 24.2232H19.1133C18.6935 24.2232 18.3633 24.0514 18.137 23.7744C17.9099 23.4963 17.7854 23.1095 17.7854 22.6782C17.7854 22.247 17.9099 21.8601 18.137 21.5821C18.3633 21.305 18.6935 21.1333 19.1133 21.1333ZM19.1133 20.2629C17.7897 20.2629 16.9246 21.3508 16.9246 22.6782C16.9246 24.0054 17.7897 25.0938 19.1133 25.0938H22.4215C23.7451 25.0938 24.6102 24.0054 24.6102 22.6782C24.6102 21.3508 23.7451 20.2629 22.4215 20.2629H19.1133Z" fill="#141A1F" stroke="black" stroke-width="0.1"/>
<path fill-rule="evenodd" clip-rule="evenodd" d="M44.5221 6.69657C42.5853 4.58275 39.575 2.97991 35.0345 3.31917C30.4717 3.66009 27.5683 5.48174 25.7794 7.5902C23.9797 9.71148 23.2897 12.1455 23.2034 13.7154L23.1801 14.1382L22.7565 14.128C19.2324 14.0432 17.0732 15.1365 15.7885 16.4795C14.4914 17.8355 14.0446 19.4885 14.0279 20.5758L14.0199 21.0951L13.5094 20.9981C11.742 20.6625 9.03118 20.6027 6.65481 21.4936C4.30707 22.3739 2.28663 24.1758 1.78861 27.6182C1.2869 31.0861 2.53399 33.3874 4.2787 34.8824C6.03817 36.39 8.32598 37.0923 9.90132 37.2717H61.045C63.6607 36.4705 65.2873 35.3904 66.224 34.2202C67.1604 33.0506 67.4369 31.7547 67.2851 30.4585C66.9765 27.8245 64.8921 25.1957 62.941 23.8783L62.7599 23.756L62.7492 23.5379C62.6215 20.9426 61.9301 18.9876 60.9139 17.5236C59.8975 16.0593 58.5389 15.0617 57.0384 14.4082C54.0228 13.095 50.4569 13.1844 48.0914 13.6821L47.6228 13.7807L47.5673 13.3053C47.3574 11.5041 46.4751 8.82805 44.5221 6.69657ZM48.37 12.7385C48.0563 10.82 47.1046 8.22183 45.1666 6.10678C43.0507 3.79744 39.7797 2.08883 34.9693 2.44825C30.1812 2.80601 27.0582 4.73251 25.1129 7.0254C23.3274 9.12987 22.5493 11.5244 22.3648 13.2501C18.8693 13.2526 16.5823 14.3858 15.1568 15.8761C13.8716 17.2196 13.3171 18.822 13.1854 20.0578C11.322 19.7796 8.70301 19.7929 6.34784 20.6759C3.75066 21.6497 1.47436 23.6868 0.923685 27.4932C0.376693 31.2741 1.75135 33.8672 3.70986 35.5454C5.64474 37.2033 8.12742 37.9535 9.82857 38.1424L9.85262 38.1451H61.1748L61.2368 38.1263C63.9924 37.2918 65.816 36.1281 66.9065 34.7658C68.0047 33.3939 68.329 31.8582 68.1531 30.357C67.8161 27.4808 65.6502 24.7284 63.6101 23.2792C63.4486 20.651 62.7255 18.6012 61.632 17.0258C60.5089 15.408 59.0122 14.3151 57.3875 13.6076C54.3466 12.2833 50.8378 12.2988 48.37 12.7385Z" fill="#141A1F" stroke="black"/>
<path fill-rule="evenodd" clip-rule="evenodd" d="M54.3405 27.6656H17.0898V27.4473H54.3405V27.6656Z" fill="#141A1F" stroke="black" stroke-width="0.357447"/>
<path d="M30.0944 31.8326H30.1282L30.1242 31.799C30.0699 31.3493 29.8721 30.9934 29.5737 30.7502C29.2755 30.5072 28.8789 30.3782 28.4293 30.3782C27.9155 30.3782 27.4606 30.5597 27.1343 30.9017C26.808 31.2438 26.6126 31.744 26.6126 32.3772C26.6126 33.0085 26.8046 33.5087 27.1293 33.8513C27.454 34.1939 27.909 34.3763 28.4293 34.3763C29.428 34.3763 30.0343 33.7116 30.1241 32.9911L30.1283 32.9576L30.0945 32.9574L29.2742 32.9537L29.2492 32.9536L29.2445 32.9782C29.2074 33.1763 29.1114 33.331 28.9735 33.4364C28.8353 33.542 28.6534 33.5994 28.4425 33.5994C28.1592 33.5994 27.9238 33.4947 27.7585 33.2918C27.5925 33.0882 27.4948 32.7827 27.4948 32.3772C27.4948 31.9831 27.5911 31.6774 27.7572 31.471C27.9226 31.2652 28.1596 31.1551 28.4481 31.1551C28.6642 31.1551 28.8483 31.2174 28.9854 31.3292C29.1224 31.4408 29.2144 31.6032 29.2444 31.807L29.2481 31.8326H29.274H30.0944ZM30.6459 34.2939V34.3239H30.6759H33.1313H33.1613V34.2939V33.6257V33.5957H33.1313H31.5169V30.4606V30.4306H31.4869H30.6759H30.6459V30.4606V34.2939ZM40.0139 30.4306H39.9839V30.4606V32.8807C39.9839 33.0925 39.9097 33.2731 39.7802 33.4008C39.6507 33.5284 39.4638 33.605 39.2347 33.605C39.0066 33.605 38.8196 33.5284 38.6899 33.4007C38.5602 33.2731 38.4856 33.0925 38.4856 32.8807V30.4606V30.4306H38.4556H37.6446H37.6146V30.4606V32.95C37.6146 33.3773 37.7761 33.7352 38.0609 33.986C38.3454 34.2365 38.7504 34.3782 39.2347 34.3782C39.7171 34.3782 40.1222 34.2365 40.4071 33.9861C40.6923 33.7353 40.8548 33.3773 40.8548 32.95V30.4606V30.4306H40.8248H40.0139ZM41.4921 30.4306H41.4621V30.4606V34.2939V34.3239H41.4921H42.8518C43.4424 34.3239 43.92 34.1412 44.2498 33.8039C44.5796 33.4667 44.7585 32.9783 44.7585 32.3735C44.7585 31.7705 44.5796 31.2841 44.2513 30.9483C43.9228 30.6124 43.4481 30.4306 42.863 30.4306H41.4921ZM37.0739 32.3772C37.0739 31.7439 36.877 31.2437 36.5488 30.9017C36.2206 30.5596 35.7634 30.3782 35.2477 30.3782C34.7292 30.3782 34.272 30.5596 33.9445 30.9017C33.617 31.2438 33.4216 31.744 33.4216 32.3772C33.4216 33.0077 33.617 33.5079 33.9445 33.8507C34.272 34.1934 34.7292 34.3763 35.2477 34.3763C35.7634 34.3763 36.2206 34.1949 36.5488 33.8528C36.877 33.5108 37.0739 33.0106 37.0739 32.3772ZM36.1916 32.3772C36.1916 32.7791 36.0962 33.0847 35.9318 33.2892C35.7681 33.4929 35.5336 33.5994 35.2477 33.5994C34.9609 33.5994 34.7264 33.4929 34.5629 33.2892C34.3988 33.0847 34.3038 32.7791 34.3038 32.3772C34.3038 31.9754 34.3988 31.6698 34.5629 31.4653C34.7264 31.2616 34.9609 31.1551 35.2477 31.1551C35.5336 31.1551 35.7681 31.2616 35.9318 31.4653C36.0962 31.6698 36.1916 31.9754 36.1916 32.3772ZM42.333 33.5695V31.185H42.82C43.1748 31.185 43.4402 31.2754 43.6174 31.4654C43.7951 31.6557 43.8894 31.9515 43.8894 32.3735C43.8894 32.7974 43.7951 33.0951 43.6171 33.2868C43.4396 33.4781 43.1738 33.5695 42.8181 33.5695H42.333Z" fill="#141A1F" stroke="black" stroke-width="0.06"/>
</svg>
