<svg width="272" height="34" viewBox="0 0 272 34" fill="none" xmlns="http://www.w3.org/2000/svg">
<path d="M259.991 20.9514C262.457 20.5282 264.781 19.5091 266.758 17.9838C267.659 17.0465 268.349 15.9291 268.782 14.7061C269.214 13.4832 269.38 12.1826 269.267 10.8912C269.274 8.76492 268.684 6.67878 267.564 4.86691C266.75 3.48808 265.602 2.33297 264.225 1.50639C262.848 0.679814 261.284 0.207926 259.677 0.133543H258.049L254.24 0H237.002C235.956 0 235.508 0.430306 235.508 1.48381V31.4865C235.508 32.5252 235.941 32.9703 237.002 32.9703H241.483C242.529 32.9703 242.977 32.54 242.977 31.4865V21.545H248.459C249.664 21.6075 250.81 22.0849 251.7 22.8952L260.394 31.5755C261.187 32.3806 262.25 32.8667 263.382 32.9406H270.059C271.104 32.9406 271.358 32.3323 270.626 31.5904L259.991 20.9514ZM258.855 14.571H242.947V7.0036H258.855C259.635 7.09878 260.352 7.47736 260.868 8.0664C261.384 8.65543 261.662 9.41324 261.649 10.1938V11.366C261.662 12.1482 261.385 12.9079 260.869 13.4994C260.354 14.0908 259.637 14.4725 258.855 14.571Z" fill="#D50C2D"/>
<path d="M228.547 25.9964H203.855V19.8089H223.558C224.604 19.8089 225.052 19.3786 225.052 18.3251V14.7194C225.052 13.6808 224.619 13.2356 223.558 13.2356H203.84V7.06295H228.547C229.593 7.06295 230.041 6.63264 230.041 5.57914V1.48381C230.041 0.445144 229.608 0 228.547 0H197.746C196.7 0 196.252 0.430306 196.252 1.48381V31.5162C196.252 32.5549 196.685 33 197.746 33H228.547C229.593 33 230.041 32.5697 230.041 31.5162V27.4654C230.041 26.4267 229.548 25.9964 228.547 25.9964Z" fill="#D50C2D"/>
<path d="M190.8 10.8318C190.832 8.73217 190.246 6.66895 189.112 4.89658C188.292 3.48355 187.131 2.29581 185.733 1.44084C184.335 0.585869 182.744 0.0906518 181.105 0L158.46 0C157.399 0 156.966 0.430306 156.966 1.48381V31.4865C156.966 32.5252 157.399 32.9703 158.46 32.9703H163.329C164.375 32.9703 164.823 32.5549 164.823 31.4865V7.01844H177.938C180.732 7.01844 183.45 8.85836 183.45 11.6331V31.5162C183.45 32.5549 183.884 33 184.944 33H189.351C190.411 33 190.845 32.5697 190.845 31.5162L190.8 10.8318Z" fill="#D50C2D"/>
<path d="M150.079 25.8035H128.793L150.124 7.18166C150.552 6.85623 150.906 6.44494 151.164 5.97454C151.421 5.50414 151.576 4.98518 151.618 4.45144V1.48381C151.618 0.445144 151.17 0 150.124 0H119.248C118.202 0 117.754 0.430306 117.754 1.48381V5.59398C117.754 6.63264 118.187 7.07779 119.248 7.07779H139.04L119.188 25.5809C118.763 25.9095 118.412 26.3216 118.155 26.7913C117.898 27.2611 117.741 27.7785 117.694 28.3112V31.531C117.694 32.5697 118.128 33.0148 119.188 33.0148H150.034C151.08 33.0148 151.528 32.5845 151.528 31.531V27.2725C151.558 26.2338 151.125 25.8035 150.079 25.8035Z" fill="#D50C2D"/>
<path d="M110.823 0H79.9918C78.9312 0 78.498 0.415468 78.498 1.48381V5.57914C78.498 6.61781 78.9163 7.06295 79.9918 7.06295H91.6134V31.5162C91.6134 32.5549 92.0466 33 93.1071 33H98.0366C99.0822 33 99.5303 32.5697 99.5303 31.5162V7.04811H110.838C111.884 7.04811 112.332 6.61781 112.332 5.5643V1.48381C112.302 0.47482 111.869 0 110.823 0Z" fill="#D50C2D"/>
<path d="M71.5666 25.9964H46.9194V19.8089H66.6223C67.6679 19.8089 68.116 19.3786 68.116 18.3251V14.7194C68.116 13.6808 67.6978 13.2356 66.6223 13.2356H46.9194V7.06295H71.5666C72.6123 7.06295 73.0604 6.63264 73.0604 5.57914V1.48381C73.0604 0.445144 72.6272 0 71.5666 0H40.8248C39.7792 0 39.3311 0.430306 39.3311 1.48381V31.5162C39.3311 32.5549 39.7642 33 40.8248 33H71.5666C72.6123 33 73.0604 32.5697 73.0604 31.5162V27.4654C73.0455 26.4267 72.6123 25.9964 71.5666 25.9964Z" fill="#D50C2D"/>
<path d="M32.3103 0H27.6646C26.619 0 26.1709 0.430306 26.1709 1.48381V13.1614H7.66305V1.48381C7.66305 0.445144 7.22985 0 6.16928 0H1.49377C0.433194 0 0 0.430306 0 1.48381V31.531C0 32.5845 0.433194 33.0148 1.49377 33.0148H6.16928C7.21492 33.0148 7.66305 32.5994 7.66305 31.531V19.6605H26.1858V31.531C26.1858 32.5697 26.619 33.0148 27.6796 33.0148H32.3252C33.3709 33.0148 33.819 32.5845 33.819 31.531V1.48381C33.7891 0.47482 33.3559 0 32.3103 0Z" fill="#D50C2D"/>
</svg>
