<svg width="181" height="31" viewBox="0 0 181 31" fill="none" xmlns="http://www.w3.org/2000/svg">
<g clip-path="url(#clip0_1466_1926)">
<path d="M62.3012 15.213L62.0252 15.092C61.2307 14.8255 60.4725 14.4611 59.7682 14.007C59.5339 13.8915 59.3369 13.7123 59.1998 13.49C59.0627 13.2676 58.9911 13.0112 58.9932 12.75C58.9932 11.82 59.7682 11.337 61.3192 11.337C62.6954 11.3341 64.0531 11.654 65.2832 12.271L65.5242 12.371V8.80396L65.4022 8.75096C64.0379 8.22944 62.5898 7.96138 61.1292 7.95996C57.1842 7.95996 54.9292 9.85996 54.9292 13.146C54.9292 15.626 56.0492 17.057 58.9442 18.228C62.0082 19.504 62.3012 19.831 62.3012 20.761C62.3012 21.847 61.3832 22.398 59.5832 22.398C58.0081 22.3944 56.4597 21.9907 55.0832 21.225L54.8242 21.104V24.688L54.9242 24.741C56.4654 25.4641 58.1521 25.8237 59.8542 25.792C64.1612 25.792 66.5392 23.892 66.5392 20.469C66.5572 17.869 65.4722 16.54 62.3012 15.213ZM80.7542 21.588C79.4642 22.1235 78.081 22.3985 76.6842 22.397C73.8442 22.397 72.7242 20.881 72.7242 16.97C72.7242 12.887 73.8092 11.37 76.7042 11.37C78.0535 11.3713 79.389 11.6409 80.6332 12.163L80.8742 12.263V8.73496L80.7542 8.68296C79.4123 8.19788 77.994 7.95873 76.5672 7.97696C74.4508 7.88982 72.3749 8.57504 70.7262 9.90496C68.9172 11.491 68.0732 13.732 68.0732 16.988C68.0732 19.744 68.6412 21.725 69.8822 23.188C70.7156 24.075 71.7347 24.7668 72.8668 25.2139C73.9988 25.661 75.2156 25.8522 76.4302 25.774C77.9559 25.7859 79.4662 25.4686 80.8582 24.844L80.9582 24.793V21.484L80.7542 21.588ZM93.9862 8.37296V14.988H87.8862V8.37296H83.4762V25.447H87.8862V18.4H93.9692V25.447H98.3792V8.37296H93.9862ZM106.062 21.984V18.4H111.921V15.095H106.062V11.818H113.489V8.35496H101.651V25.43H113.832L114.143 21.967C114.16 21.984 106.407 21.984 106.062 21.984ZM127.323 8.37296V17.711C126.737 16.953 120.226 8.37296 120.226 8.37296H116.538V25.447H120.277V15.127C120.862 15.902 128.133 25.447 128.133 25.447H131.062V8.37296H127.323ZM142.502 16.419C142.674 16.21 148.946 8.37296 148.946 8.37296H144.358C144.358 8.37296 139.315 14.921 138.747 15.661V8.37296H134.352V25.447H138.747V18.228L144.277 25.446H149.514C149.514 25.446 142.674 16.626 142.502 16.419ZM155.493 21.984V18.4H161.368V15.095H155.493V11.818H162.92V8.35496H151.082V25.43H163.263L163.574 21.967C163.591 21.984 155.838 21.984 155.493 21.984ZM170.379 11.664H172.394C174.099 11.664 174.651 12.146 174.651 13.645C174.651 15.144 174.031 15.695 172.394 15.695H170.379V11.664ZM177.219 19.297C176.847 18.6405 176.321 18.0842 175.686 17.676C177.926 16.952 178.924 15.676 178.924 13.422C178.924 10.022 176.824 8.37296 172.515 8.37296H165.968V25.447H170.379V18.711H170.931C171.931 18.711 172.274 18.97 173.049 20.279L176.117 25.447H180.923L177.219 19.297Z" fill="black"/>
<path d="M40.7299 26.3261C40.7362 26.4886 40.7097 26.6507 40.652 26.8027C40.5943 26.9547 40.5065 27.0935 40.3939 27.2108C40.2814 27.3282 40.1463 27.4216 39.9968 27.4856C39.8473 27.5495 39.6865 27.5827 39.5239 27.5831H4.41589C4.25369 27.5813 4.09349 27.5472 3.94463 27.4828C3.79578 27.4183 3.66127 27.3249 3.54898 27.2078C3.43668 27.0908 3.34885 26.9525 3.29063 26.8011C3.23241 26.6497 3.20496 26.4882 3.20989 26.3261V4.37712C3.20343 4.21451 3.22982 4.05228 3.28747 3.9001C3.34512 3.74792 3.43285 3.60892 3.54542 3.49141C3.65799 3.37389 3.79308 3.28027 3.94264 3.21613C4.0922 3.152 4.25315 3.11866 4.41589 3.11812H39.5239C39.6866 3.1188 39.8475 3.15223 39.997 3.21642C40.1465 3.2806 40.2815 3.37423 40.394 3.49171C40.5066 3.6092 40.5943 3.74814 40.652 3.90026C40.7097 4.05237 40.7362 4.21455 40.7299 4.37712V26.3261ZM39.5239 0.000116936H4.41589C3.83831 -0.00410394 3.2656 0.10598 2.73075 0.32403C2.1959 0.54208 1.70946 0.863786 1.29947 1.27062C0.889471 1.67746 0.56401 2.16139 0.341828 2.69454C0.119646 3.22769 0.00513404 3.79952 0.00488566 4.37712V26.3261C0.00355664 27.498 0.467317 28.6224 1.29434 29.4526C2.12136 30.2829 3.24405 30.7509 4.41589 30.7541H39.5239C40.6957 30.7509 41.8184 30.2829 42.6454 29.4526C43.4725 28.6224 43.9362 27.498 43.9349 26.3261V4.37712C43.9346 3.79952 43.8201 3.22769 43.5979 2.69454C43.3758 2.16139 43.0503 1.67746 42.6403 1.27062C42.2303 0.863786 41.7439 0.54208 41.209 0.32403C40.6742 0.10598 40.1015 -0.00410394 39.5239 0.000116936Z" fill="#E01E5A"/>
<path d="M16.6443 15.7091C16.6443 11.6601 16.2313 8.49108 11.8543 8.49108H10.8703V22.1911H12.5943C15.1453 22.1911 16.6433 20.1411 16.6433 15.7131M13.4223 25.4481H6.03027V5.30908H13.4223C18.6223 5.30908 21.5033 8.56508 21.5033 15.2851C21.5193 21.1091 19.5703 25.3961 13.4223 25.4481ZM30.4103 22.1911H28.4243V17.0231H30.5473C33.0633 17.0231 33.6663 18.4871 33.6663 19.6121C33.6663 22.1961 31.1663 22.1961 30.4103 22.1961M28.4243 8.42508H29.9443C32.1153 8.42508 32.9773 9.18308 32.9773 10.8541C32.9813 11.1922 32.9141 11.5274 32.7802 11.8379C32.6463 12.1483 32.4486 12.4272 32.1999 12.6564C31.9513 12.8855 31.6572 13.0598 31.3368 13.1679C31.0165 13.2761 30.6769 13.3156 30.3403 13.2841H28.4243V8.42508ZM34.2863 14.9201C35.2959 14.6168 36.1819 13.9983 36.8146 13.1551C37.4473 12.3119 37.7934 11.2882 37.8023 10.2341C37.8023 9.82108 37.7163 5.32408 32.0473 5.32408H23.6243V25.4481H30.7373C32.6153 25.4481 38.4913 25.4481 38.4913 19.7791C38.5083 18.3661 37.9393 15.7131 34.2913 14.9201" fill="#E01E5A"/>
</g>
<defs>
<clipPath id="clip0_1466_1926">
<rect width="180.924" height="30.754" fill="white"/>
</clipPath>
</defs>
</svg>
