<svg width="168" height="125" viewBox="0 0 432 125" fill="none" xmlns="http://www.w3.org/2000/svg">
<g clip-path="url(#clip0_1255_1277)">
<path d="M0.100098 124.6H432.1V0.200195H0.100098V124.6Z" fill="#FFD402"/>
<path d="M18.5999 75.8003L14.3999 96.1003H358.9L363.1 75.8003H18.5999Z" fill="white"/>
<path d="M400.4 48.0002C400.4 48.0002 405 26.4002 405.1 26.2002H375.7C375.7 26.3002 369.7 54.8002 369.7 55.0002H377.2C377.3 55.0002 381.8 33.5002 381.8 33.5002H396C396 33.5002 391.5 55.1002 391.4 55.2002H413.1L410.3 68.5002H388.7C388.7 68.6002 384.3 88.8002 384.3 88.8002H368C368 88.9002 366.5 96.1002 366.5 96.1002H390.5C390.5 96.0002 394.8 75.7002 394.8 75.7002H416.4C416.4 75.6002 422.1 48.1002 422.1 47.9002H400.4V48.0002Z" fill="#E30B17"/>
<path d="M347.2 54.4001C350.3 54.4001 352.4 56.6001 352.4 60.1001C352.4 60.7001 352.3 61.3001 352.3 61.9001H338.9C340.3 57.4001 343.3 54.4001 347.2 54.4001ZM353.9 81.2001L355.6 73.2001C352.7 74.2001 349.9 75.0001 346.2 75.0001C342 75.0001 338.3 73.5001 338.1 68.3001H359.9C360.7 65.7001 361.1 63.1001 361.1 60.6001C361.1 53.2001 356.9 47.1001 347.8 47.1001C336.1 47.1001 328.9 56.9001 328.9 67.8001C328.9 77.0001 335 82.5001 344.4 82.5001C348.4 82.6001 351.4 82.0001 353.9 81.2001ZM318.1 74.4001C313.8 74.4001 310.9 72.5001 310.9 67.1001C310.9 60.7001 314.9 55.4001 321.1 55.4001C323.1 55.4001 325.3 56.0001 327.6 56.9001L329.2 49.2001C326.6 48.3001 323.6 47.6001 320.6 47.6001C310.2 47.6001 301.4 55.5001 301.4 67.6001C301.4 77.5001 307.4 82.2001 316 82.2001C318.9 82.2001 321.3 81.7001 323.1 80.9001L324.8 73.0001C322.8 73.8001 320.7 74.4001 318.1 74.4001ZM272.5 81.6001L276.1 64.6001C277.5 57.7001 280.9 55.4001 284.3 55.4001C288.7 55.4001 289.2 58.7001 288.4 62.6001L284.4 81.6001H293.8L298 62.1001C300.1 52.4001 295.6 47.2001 288.7 47.2001C284.9 47.2001 281.2 48.8001 278 52.2001L278.9 48.2001H270.1L263.1 81.6001H272.5ZM238.6 71.9001C238.6 68.5001 241.5 66.7001 246.3 66.7001C247.2 66.7001 249.3 66.8001 251.1 67.0001L250.7 68.9001C249.6 72.9001 246.4 75.6001 242.7 75.6001C240 75.6001 238.6 74.2001 238.6 71.9001ZM247.7 47.4001C243.3 47.4001 238.9 48.4001 237.5 48.9001L235.9 56.6001C238 56.0001 242.2 54.8001 245.9 54.8001C250.8 54.8001 252.6 56.4001 252.6 59.0001C252.6 59.5001 252.6 60.0001 252.5 60.5001L252.4 61.2001C250 60.9001 247.8 60.7001 246.7 60.7001C237.3 60.7001 229.8 64.4001 229.8 73.1001C229.8 78.8001 234.2 82.2001 239.8 82.2001C243.8 82.2001 247.3 80.6001 249.5 77.9001L248.8 81.4001H257.2L261.3 62.3001C261.6 60.9001 261.8 59.4001 261.8 58.0001C261.7 52.4001 258.6 47.4001 247.7 47.4001ZM202 81.6001L205.6 64.6001C207.1 57.7001 210.4 55.4001 213.8 55.4001C218.2 55.4001 218.7 58.7001 217.9 62.6001L213.9 81.6001H223.3L227.5 62.1001C229.5 52.4001 225.1 47.2001 218.2 47.2001C214.4 47.2001 210.7 48.8001 207.5 52.2001L208.3 48.2001H199.5L192.4 81.6001H202ZM185.1 39.0001C184.9 42.0001 187.1 44.4001 190 44.4001C193.3 44.4001 195.5 42.1001 195.7 39.0001C195.9 36.0001 193.7 33.6001 190.8 33.6001C187.6 33.6001 185.3 36.0001 185.1 39.0001ZM183.8 48.2001L176.7 81.6001H186.1L193.1 48.2001H183.8ZM157.1 81.6001L160.8 64.2001H175L176.7 55.7001H162.5L164.7 45.0001H179.7L181.5 36.5001H156.8L147.4 81.7001H157.1V81.6001ZM147.8 55.6001L149.3 48.3001H139.2L141.2 39.0001L131.4 41.2001L125.3 69.7001C123.6 77.8001 127.9 82.2001 135.8 82.2001C137.5 82.2001 140.2 81.9001 142.2 81.2001L143.8 73.9001C142.2 74.3001 140.2 74.7001 138.5 74.7001C135.8 74.7001 133.9 73.8001 134.5 70.4001L137.6 55.6001H147.8ZM112.1 71.7001C112.1 74.4001 108.9 74.9001 106.2 74.9001C102.8 74.9001 99.0002 74.0001 96.9002 73.3001L95.3002 80.8001C98.3002 81.5001 102.1 82.1001 105.6 82.1001C114 82.1001 120.9 78.9001 120.9 70.8001C120.9 60.4001 108.6 62.2001 108.6 57.6001C108.6 55.5001 110.6 54.8001 113.7 54.8001C116.7 54.8001 120.9 56.0001 122.2 56.4001L123.8 48.8001C120.9 48.0001 117.6 47.5001 114.6 47.5001C105.4 47.5001 99.9002 51.7001 99.9002 58.6001C99.8002 68.8001 112.1 67.1001 112.1 71.7001ZM76.6002 82.6001C87.0002 82.6001 94.0002 74.9001 95.5002 64.9001C97.1002 54.9001 91.7002 47.2001 81.3002 47.2001C71.0002 47.2001 63.9002 54.9001 62.4002 64.9001C60.7002 74.9001 66.2002 82.6001 76.6002 82.6001ZM77.4002 74.8001C73.6002 74.8001 70.7002 71.8001 72.0002 64.9001C73.4002 58.0001 76.7002 55.0001 80.4002 55.0001C84.1002 55.0001 87.1002 58.1001 85.7002 64.9001C84.4002 71.7001 81.2002 74.8001 77.4002 74.8001ZM37.6002 67.8001H41.8002C55.1002 67.8001 62.5002 61.1001 62.5002 50.1001C62.5002 41.8001 56.8002 36.5001 46.9002 36.5001H34.6002L25.2002 81.7001H34.7002L37.6002 67.8001ZM39.3002 59.5001L42.4002 44.7001H46.4002C50.8002 44.7001 52.9002 46.5001 52.9002 50.7001C52.9002 56.1001 49.5002 59.5001 43.3002 59.5001H39.3002Z" fill="#1D1D1B"/>
<path d="M0.100098 124.6H432.1V0.200195H0.100098V124.6Z" fill="#FFD402"/>
<path d="M18.5999 75.8003L14.3999 96.1003H358.9L363.1 75.8003H18.5999Z" fill="white"/>
<path d="M400.4 48.0002C400.4 48.0002 405 26.4002 405.1 26.2002H375.7C375.7 26.3002 369.7 54.8002 369.7 55.0002H377.2C377.3 55.0002 381.8 33.5002 381.8 33.5002H396C396 33.5002 391.5 55.1002 391.4 55.2002H413.1L410.3 68.5002H388.7C388.7 68.6002 384.3 88.8002 384.3 88.8002H368C368 88.9002 366.5 96.1002 366.5 96.1002H390.5C390.5 96.0002 394.8 75.7002 394.8 75.7002H416.4C416.4 75.6002 422.1 48.1002 422.1 47.9002H400.4V48.0002Z" fill="#E30B17"/>
<path d="M347.2 54.4001C350.3 54.4001 352.4 56.6001 352.4 60.1001C352.4 60.7001 352.3 61.3001 352.3 61.9001H338.9C340.3 57.4001 343.3 54.4001 347.2 54.4001ZM353.9 81.2001L355.6 73.2001C352.7 74.2001 349.9 75.0001 346.2 75.0001C342 75.0001 338.3 73.5001 338.1 68.3001H359.9C360.7 65.7001 361.1 63.1001 361.1 60.6001C361.1 53.2001 356.9 47.1001 347.8 47.1001C336.1 47.1001 328.9 56.9001 328.9 67.8001C328.9 77.0001 335 82.5001 344.4 82.5001C348.4 82.6001 351.4 82.0001 353.9 81.2001ZM318.1 74.4001C313.8 74.4001 310.9 72.5001 310.9 67.1001C310.9 60.7001 314.9 55.4001 321.1 55.4001C323.1 55.4001 325.3 56.0001 327.6 56.9001L329.2 49.2001C326.6 48.3001 323.6 47.6001 320.6 47.6001C310.2 47.6001 301.4 55.5001 301.4 67.6001C301.4 77.5001 307.4 82.2001 316 82.2001C318.9 82.2001 321.3 81.7001 323.1 80.9001L324.8 73.0001C322.8 73.8001 320.7 74.4001 318.1 74.4001ZM272.5 81.6001L276.1 64.6001C277.5 57.7001 280.9 55.4001 284.3 55.4001C288.7 55.4001 289.2 58.7001 288.4 62.6001L284.4 81.6001H293.8L298 62.1001C300.1 52.4001 295.6 47.2001 288.7 47.2001C284.9 47.2001 281.2 48.8001 278 52.2001L278.9 48.2001H270.1L263.1 81.6001H272.5ZM238.6 71.9001C238.6 68.5001 241.5 66.7001 246.3 66.7001C247.2 66.7001 249.3 66.8001 251.1 67.0001L250.7 68.9001C249.6 72.9001 246.4 75.6001 242.7 75.6001C240 75.6001 238.6 74.2001 238.6 71.9001ZM247.7 47.4001C243.3 47.4001 238.9 48.4001 237.5 48.9001L235.9 56.6001C238 56.0001 242.2 54.8001 245.9 54.8001C250.8 54.8001 252.6 56.4001 252.6 59.0001C252.6 59.5001 252.6 60.0001 252.5 60.5001L252.4 61.2001C250 60.9001 247.8 60.7001 246.7 60.7001C237.3 60.7001 229.8 64.4001 229.8 73.1001C229.8 78.8001 234.2 82.2001 239.8 82.2001C243.8 82.2001 247.3 80.6001 249.5 77.9001L248.8 81.4001H257.2L261.3 62.3001C261.6 60.9001 261.8 59.4001 261.8 58.0001C261.7 52.4001 258.6 47.4001 247.7 47.4001ZM202 81.6001L205.6 64.6001C207.1 57.7001 210.4 55.4001 213.8 55.4001C218.2 55.4001 218.7 58.7001 217.9 62.6001L213.9 81.6001H223.3L227.5 62.1001C229.5 52.4001 225.1 47.2001 218.2 47.2001C214.4 47.2001 210.7 48.8001 207.5 52.2001L208.3 48.2001H199.5L192.4 81.6001H202ZM185.1 39.0001C184.9 42.0001 187.1 44.4001 190 44.4001C193.3 44.4001 195.5 42.1001 195.7 39.0001C195.9 36.0001 193.7 33.6001 190.8 33.6001C187.6 33.6001 185.3 36.0001 185.1 39.0001ZM183.8 48.2001L176.7 81.6001H186.1L193.1 48.2001H183.8ZM157.1 81.6001L160.8 64.2001H175L176.7 55.7001H162.5L164.7 45.0001H179.7L181.5 36.5001H156.8L147.4 81.7001H157.1V81.6001ZM147.8 55.6001L149.3 48.3001H139.2L141.2 39.0001L131.4 41.2001L125.3 69.7001C123.6 77.8001 127.9 82.2001 135.8 82.2001C137.5 82.2001 140.2 81.9001 142.2 81.2001L143.8 73.9001C142.2 74.3001 140.2 74.7001 138.5 74.7001C135.8 74.7001 133.9 73.8001 134.5 70.4001L137.6 55.6001H147.8ZM112.1 71.7001C112.1 74.4001 108.9 74.9001 106.2 74.9001C102.8 74.9001 99.0002 74.0001 96.9002 73.3001L95.3002 80.8001C98.3002 81.5001 102.1 82.1001 105.6 82.1001C114 82.1001 120.9 78.9001 120.9 70.8001C120.9 60.4001 108.6 62.2001 108.6 57.6001C108.6 55.5001 110.6 54.8001 113.7 54.8001C116.7 54.8001 120.9 56.0001 122.2 56.4001L123.8 48.8001C120.9 48.0001 117.6 47.5001 114.6 47.5001C105.4 47.5001 99.9002 51.7001 99.9002 58.6001C99.8002 68.8001 112.1 67.1001 112.1 71.7001ZM76.6002 82.6001C87.0002 82.6001 94.0002 74.9001 95.5002 64.9001C97.1002 54.9001 91.7002 47.2001 81.3002 47.2001C71.0002 47.2001 63.9002 54.9001 62.4002 64.9001C60.7002 74.9001 66.2002 82.6001 76.6002 82.6001ZM77.4002 74.8001C73.6002 74.8001 70.7002 71.8001 72.0002 64.9001C73.4002 58.0001 76.7002 55.0001 80.4002 55.0001C84.1002 55.0001 87.1002 58.1001 85.7002 64.9001C84.4002 71.7001 81.2002 74.8001 77.4002 74.8001ZM37.6002 67.8001H41.8002C55.1002 67.8001 62.5002 61.1001 62.5002 50.1001C62.5002 41.8001 56.8002 36.5001 46.9002 36.5001H34.6002L25.2002 81.7001H34.7002L37.6002 67.8001ZM39.3002 59.5001L42.4002 44.7001H46.4002C50.8002 44.7001 52.9002 46.5001 52.9002 50.7001C52.9002 56.1001 49.5002 59.5001 43.3002 59.5001H39.3002Z" fill="#1D1D1B"/>
</g>
<defs>
<clipPath id="clip0_1255_1277">
<rect width="432" height="125" fill="white"/>
</clipPath>
</defs>
</svg>
