<svg width="54" height="40" viewBox="0 0 54 40" fill="none" xmlns="http://www.w3.org/2000/svg">
<g clip-path="url(#clip0)">
<path d="M15.2177 16.622C15.2177 17.2805 15.2895 17.8144 15.4152 18.206C15.5589 18.5975 15.7385 19.0247 15.99 19.4874C16.0798 19.6298 16.1157 19.7722 16.1157 19.8968C16.1157 20.0747 16.0079 20.2527 15.7744 20.4307L14.6429 21.1782C14.4813 21.285 14.3197 21.3384 14.176 21.3384C13.9964 21.3384 13.8168 21.2494 13.6372 21.0892C13.3857 20.8223 13.1702 20.5375 12.9906 20.2527C12.811 19.9502 12.6314 19.612 12.4338 19.2027C11.0329 20.8401 9.27283 21.6588 7.15352 21.6588C5.64487 21.6588 4.44153 21.2316 3.56148 20.3773C2.68143 19.523 2.23242 18.384 2.23242 16.9601C2.23242 15.4473 2.77123 14.2193 3.8668 13.2938C4.96238 12.3683 6.41715 11.9056 8.26706 11.9056C8.87771 11.9056 9.50631 11.9589 10.1708 12.0479C10.8354 12.1369 11.5179 12.2793 12.2363 12.4395V11.1402C12.2363 9.78761 11.9489 8.84433 11.3921 8.2926C10.8174 7.74086 9.84756 7.4739 8.46462 7.4739C7.83601 7.4739 7.18944 7.54509 6.52492 7.70527C5.86039 7.86545 5.21382 8.06122 4.58521 8.31039C4.29785 8.43498 4.08233 8.50617 3.9566 8.54176C3.83088 8.57736 3.74108 8.59516 3.66924 8.59516C3.4178 8.59516 3.29208 8.41718 3.29208 8.04343V7.17133C3.29208 6.88657 3.328 6.67299 3.4178 6.54841C3.5076 6.42383 3.66924 6.29924 3.92068 6.17466C4.54929 5.8543 5.30362 5.58733 6.18367 5.37375C7.06372 5.14238 7.99765 5.0356 8.98547 5.0356C11.1227 5.0356 12.6853 5.51614 13.691 6.47722C14.6789 7.4383 15.1817 8.89772 15.1817 10.8555V16.622H15.2177ZM7.92581 19.3272C8.5185 19.3272 9.12915 19.2205 9.77572 19.0069C10.4223 18.7933 10.997 18.4018 11.4819 17.8678C11.7693 17.5297 11.9848 17.1559 12.0926 16.7288C12.2003 16.3016 12.2722 15.7855 12.2722 15.1804V14.4328C11.7513 14.3083 11.1946 14.2015 10.6198 14.1303C10.0451 14.0591 9.48835 14.0235 8.93159 14.0235C7.72825 14.0235 6.8482 14.2549 6.25551 14.7354C5.66283 15.2159 5.37546 15.8923 5.37546 16.7822C5.37546 17.6187 5.59098 18.2416 6.03999 18.6687C6.47104 19.1137 7.09964 19.3272 7.92581 19.3272ZM22.3479 21.2494C22.0246 21.2494 21.8091 21.196 21.6654 21.0714C21.5217 20.9646 21.396 20.7155 21.2882 20.3773L17.0676 6.6196C16.9598 6.26364 16.9059 6.03227 16.9059 5.90769C16.9059 5.62292 17.0496 5.46274 17.337 5.46274H19.0971C19.4383 5.46274 19.6718 5.51614 19.7975 5.64072C19.9412 5.74751 20.049 5.99668 20.1567 6.33484L23.174 18.117L25.9758 6.33484C26.0656 5.97888 26.1734 5.74751 26.3171 5.64072C26.4608 5.53393 26.7122 5.46274 27.0355 5.46274H28.4723C28.8136 5.46274 29.047 5.51614 29.1907 5.64072C29.3344 5.74751 29.4601 5.99668 29.532 6.33484L32.3697 18.2594L35.4768 6.33484C35.5846 5.97888 35.7103 5.74751 35.836 5.64072C35.9797 5.53393 36.2132 5.46274 36.5365 5.46274H38.2068C38.4941 5.46274 38.6558 5.60513 38.6558 5.90769C38.6558 5.99668 38.6378 6.08567 38.6198 6.19245C38.6019 6.29924 38.566 6.44162 38.4941 6.6374L34.1657 20.3951C34.0579 20.7511 33.9322 20.9824 33.7885 21.0892C33.6449 21.196 33.4114 21.2672 33.1061 21.2672H31.5615C31.2202 21.2672 30.9867 21.2138 30.8431 21.0892C30.6994 20.9646 30.5737 20.7333 30.5018 20.3773L27.718 8.89772L24.9521 20.3595C24.8623 20.7155 24.7545 20.9468 24.6109 21.0714C24.4672 21.196 24.2157 21.2494 23.8925 21.2494H22.3479ZM45.4268 21.7299C44.4928 21.7299 43.5589 21.6232 42.6609 21.4096C41.7629 21.196 41.0624 20.9646 40.5955 20.6977C40.3081 20.5375 40.1105 20.3595 40.0387 20.1993C39.9669 20.0392 39.9309 19.8612 39.9309 19.701V18.7933C39.9309 18.4196 40.0746 18.2416 40.344 18.2416C40.4518 18.2416 40.5595 18.2594 40.6673 18.295C40.7751 18.3306 40.9367 18.4018 41.1163 18.4729C41.727 18.7399 42.3915 18.9535 43.0919 19.0959C43.8103 19.2383 44.5108 19.3094 45.2292 19.3094C46.3607 19.3094 47.2408 19.1137 47.8514 18.7221C48.462 18.3306 48.7853 17.761 48.7853 17.0313C48.7853 16.533 48.6237 16.1236 48.3004 15.7855C47.9771 15.4473 47.3665 15.1448 46.4864 14.86L43.8822 14.0591C42.5711 13.6497 41.6012 13.0446 41.0086 12.2437C40.4159 11.4606 40.1105 10.5885 40.1105 9.66303C40.1105 8.91552 40.2722 8.257 40.5955 7.68747C40.9188 7.11794 41.3498 6.6196 41.8886 6.22805C42.4274 5.8187 43.0381 5.51614 43.7565 5.30256C44.4749 5.08899 45.2292 5 46.0195 5C46.4146 5 46.8277 5.0178 47.2228 5.07119C47.6359 5.12458 48.013 5.19578 48.3902 5.26697C48.7494 5.35596 49.0907 5.44495 49.4139 5.55173C49.7372 5.65852 49.9887 5.76531 50.1683 5.87209C50.4197 6.01448 50.5993 6.15686 50.7071 6.31704C50.8148 6.45942 50.8687 6.6552 50.8687 6.90437V7.74086C50.8687 8.11462 50.725 8.31039 50.4556 8.31039C50.312 8.31039 50.0785 8.2392 49.7731 8.09682C48.7494 7.63408 47.6 7.4027 46.3248 7.4027C45.301 7.4027 44.4928 7.56289 43.9361 7.90104C43.3793 8.2392 43.0919 8.75534 43.0919 9.48505C43.0919 9.98339 43.2715 10.4105 43.6307 10.7487C43.99 11.0869 44.6545 11.425 45.6064 11.7276L48.1567 12.5285C49.4499 12.9378 50.3838 13.5074 50.9406 14.2371C51.4973 14.9668 51.7667 15.8033 51.7667 16.7288C51.7667 17.4941 51.6051 18.1882 51.2998 18.7933C50.9765 19.3984 50.5454 19.9324 49.9887 20.3595C49.4319 20.8045 48.7674 21.1248 47.9951 21.3562C47.1869 21.6054 46.3427 21.7299 45.4268 21.7299Z" fill="#141A1F"/>
<path fill-rule="evenodd" clip-rule="evenodd" d="M48.8217 30.3804C42.9127 34.7053 34.3278 37.0012 26.9461 37.0012C16.601 37.0012 7.27964 33.2102 0.239233 26.9098C-0.317534 26.4115 0.185353 25.7352 0.849881 26.1267C8.46502 30.505 17.8582 33.1568 27.5747 33.1568C34.1302 33.1568 41.3322 31.8042 47.9596 29.0278C48.9474 28.5828 49.7915 29.6685 48.8217 30.3804Z" fill="#141A1F"/>
<path fill-rule="evenodd" clip-rule="evenodd" d="M51.2809 27.6044C50.5266 26.6433 46.288 27.1417 44.3662 27.3731C43.7915 27.4442 43.7017 26.9459 44.2226 26.5722C47.5991 24.2228 53.1488 24.8992 53.7954 25.6823C54.4419 26.4832 53.6158 31.9827 50.4548 34.6168C49.9698 35.0261 49.5029 34.8125 49.7184 34.2786C50.4368 32.5166 52.0353 28.5477 51.2809 27.6044Z" fill="#141A1F"/>
</g>
<defs>
<clipPath id="clip0">
<rect width="54" height="40" fill="white"/>
</clipPath>
</defs>
</svg>
