<svg width="202" height="36" viewBox="0 0 202 36" fill="none" xmlns="http://www.w3.org/2000/svg">
<g clip-path="url(#clip0_4141_12666)">
<path d="M94.0107 19.2559H95.8691L96.7982 20.793L95.8691 22.3301H94.0107L93.082 20.793L94.0107 19.2559Z" fill="#0101D7"/>
<path d="M0 27.3829V8.56416H2.49745V27.3829H0ZM25.4391 12.5134C24.9765 12.0187 24.2641 11.5681 23.302 11.1617C22.3404 10.7553 21.2672 10.5521 20.0833 10.5521C18.5662 10.5521 17.4472 10.8259 16.7255 11.3737C16.0043 11.9215 15.6435 12.6725 15.6435 13.6267C15.6435 14.2981 15.8283 14.8283 16.1985 15.217C16.5687 15.6057 17.1326 15.9238 17.8912 16.1712C18.668 16.4186 19.6487 16.6748 20.8326 16.9399C22.2013 17.2225 23.3856 17.5671 24.3846 17.9735C25.3835 18.38 26.151 18.9278 26.6873 19.6169C27.2242 20.2884 27.4921 21.1895 27.4921 22.3204C27.4921 23.522 27.1775 24.5115 26.5487 25.289C25.9199 26.0665 25.0596 26.6408 23.9681 27.0119C22.8954 27.3829 21.6836 27.5685 20.3331 27.5685C17.2624 27.5685 14.5889 26.685 12.3137 24.9179L13.5069 22.9036C13.9139 23.2923 14.4597 23.681 15.144 24.0698C15.847 24.4585 16.6425 24.7854 17.5303 25.0505C18.4369 25.2978 19.3897 25.4215 20.3886 25.4215C21.7947 25.4215 22.8861 25.183 23.6628 24.7059C24.4396 24.2111 24.8285 23.4955 24.8285 22.559C24.8285 21.8522 24.6063 21.2867 24.1623 20.8626C23.7371 20.4385 23.0985 20.0852 22.248 19.8024C21.397 19.5197 20.3606 19.237 19.1399 18.9542C17.8081 18.6362 16.6887 18.2916 15.7821 17.9206C14.876 17.5318 14.1912 17.0282 13.7291 16.4097C13.2852 15.7913 13.0629 14.9873 13.0629 13.9977C13.0629 12.7962 13.3682 11.7801 13.9788 10.9496C14.5889 10.1191 15.4306 9.49185 16.5038 9.06776C17.5765 8.64366 18.7884 8.43164 20.1389 8.43164C21.4525 8.43164 22.6457 8.62601 23.7184 9.01474C24.8098 9.40347 25.7719 9.92477 26.6042 10.5785L25.4391 12.5134ZM45.428 27.5155C44.0407 27.5155 42.7826 27.2504 41.6543 26.7203C40.5261 26.1902 39.5458 25.4745 38.7129 24.5734C37.8988 23.6545 37.27 22.6297 36.8261 21.4987C36.3821 20.3502 36.1604 19.1751 36.1604 17.9735C36.1604 16.719 36.3915 15.5262 36.8541 14.3953C37.3349 13.2468 37.9917 12.2307 38.8241 11.3472C39.6751 10.446 40.6647 9.73923 41.793 9.22676C42.9212 8.69668 44.1518 8.43164 45.4836 8.43164C46.8714 8.43164 48.129 8.70551 49.2578 9.25329C50.3861 9.80108 51.357 10.5344 52.1712 11.4532C52.9853 12.3721 53.6141 13.3969 54.058 14.5279C54.5019 15.6587 54.7242 16.8162 54.7242 18.0001C54.7242 19.2546 54.4926 20.4562 54.0305 21.6048C53.5679 22.7357 52.911 23.7517 52.06 24.6529C51.2277 25.5364 50.2469 26.2344 49.1187 26.7468C47.9904 27.2593 46.7603 27.5155 45.428 27.5155ZM38.6854 17.9735C38.6854 18.9278 38.8422 19.8554 39.1569 20.7566C39.4902 21.6401 39.9523 22.4264 40.5447 23.1156C41.1367 23.8047 41.8485 24.3525 42.6813 24.7589C43.5136 25.1653 44.4384 25.3686 45.4561 25.3686C46.5106 25.3686 47.454 25.1565 48.2863 24.7324C49.1187 24.3083 49.8217 23.7429 50.3954 23.0361C50.9873 22.3292 51.4313 21.5341 51.7272 20.6506C52.0414 19.7671 52.1992 18.8747 52.1992 17.9735C52.1992 17.0194 52.0325 16.1005 51.6997 15.217C51.3851 14.3335 50.9224 13.5472 50.3118 12.858C49.7199 12.1512 49.008 11.6034 48.1752 11.2147C47.3611 10.8083 46.455 10.6051 45.4561 10.6051C44.4015 10.6051 43.4581 10.8171 42.6258 11.2412C41.793 11.6476 41.0811 12.2042 40.4892 12.911C39.9155 13.6178 39.4715 14.413 39.1569 15.2965C38.8422 16.1623 38.6854 17.0547 38.6854 17.9735ZM64.6496 8.56416L71.1705 24.3879L77.6638 8.56416H80.2999L72.3081 27.3829H70.0328L62.0135 8.56416H64.6496ZM94.0098 8.56416H96.1184L104.166 27.3829H101.327L99.1709 21.8698L95.0639 11.3207L88.5985 27.3829H85.9349L94.0098 8.56416ZM113.455 27.3829V8.56416H115.952V25.2625H126.94V27.3829H113.455ZM149.694 25.2625V27.3829H136.319V8.56416H149.444V10.6846H138.816V16.7808H148.057V18.7687H138.816V25.2625H149.694ZM162.277 12.9641V27.3829H159.78V8.56416H161.889L173.932 23.2746V8.59065H176.429V27.3829H174.153L162.277 12.9641ZM202 10.6846H195.202V27.3829H192.704V10.6846H185.906V8.56416H202V10.6846Z" fill="black"/>
</g>
<defs>
<clipPath id="clip0_4141_12666">
<rect width="202" height="36" fill="white"/>
</clipPath>
</defs>
</svg>
