<svg width="183" height="40" viewBox="0 0 183 40" fill="none" xmlns="http://www.w3.org/2000/svg">
<path fill-rule="evenodd" clip-rule="evenodd" d="M34.9411 0.285156H11.6471L0 20L11.6471 39.7147H34.9411L46.5885 20L34.9411 0.285156ZM28.9519 10.4233H17.6365L11.9788 20L17.6365 29.5768H28.9519L34.6095 20L28.9519 10.4233Z" fill="#0078FB"/>
<path d="M19.8976 14.248H26.6498L30.026 19.9627L26.6498 25.6775H19.8976L16.5215 19.9627L19.8976 14.248Z" fill="#737373"/>
<path d="M26.6507 25.6776L23.318 19.9629L19.8984 25.6776H26.6507Z" fill="#464646"/>
<path d="M26.6507 14.248H19.8984L23.318 19.9627L26.6507 14.248Z" fill="#C7C7C7"/>
<path d="M26.6498 14.248L23.3172 19.9628H30.0435L26.6498 14.248ZM23.3172 19.9627L19.8976 14.248L16.5215 19.9627H23.3172Z" fill="#989898"/>
<path d="M34.9404 39.7148L46.5878 20H34.6088L28.9512 29.5768L34.9404 39.7148Z" fill="#0058FB"/>
<path d="M34.9404 39.7141L40.9299 29.5762H28.9512L34.9404 39.7141Z" fill="#0078FB"/>
<path d="M40.9542 10.4238H28.9512L34.6088 20.0005L40.9542 10.4238Z" fill="#4CBAFB"/>
<path d="M40.9548 10.4375L34.6094 20.0002H46.5883L40.9548 10.4375Z" fill="#9DDAFB"/>
<path d="M23.293 39.7141L28.9507 29.5762L34.9399 39.7141H23.293Z" fill="#0069E4"/>
<path d="M0 20H11.9788L5.6577 29.5768H17.6365L23.4669 39.7148H11.6471L5.6577 29.5768L0 20Z" fill="#0101D7"/>
<path fill-rule="evenodd" clip-rule="evenodd" d="M11.9788 20.0005L5.67988 10.4238L0 20.0005H11.9788L17.6365 29.5773H5.67988L11.9788 20.0005Z" fill="#0035FB"/>
<path d="M28.9521 10.4233L23.4671 0.285156L17.6367 10.4233H28.9521Z" fill="#0027FB"/>
<path d="M34.9404 0.285156L28.9512 10.4233H40.9542L34.9404 0.285156Z" fill="#37A0FB"/>
<path d="M117.857 20.8438H118.978L119.539 21.7925L118.978 22.7413H117.857L117.297 21.7925L117.857 20.8438Z" fill="#0101D7"/>
<path d="M61.1328 25.8596V14.2439H62.6395V25.8596H61.1328ZM76.4802 16.6816C76.2011 16.3762 75.7713 16.0981 75.1909 15.8472C74.6108 15.5963 73.9633 15.4709 73.2491 15.4709C72.3338 15.4709 71.6587 15.64 71.2233 15.9781C70.7882 16.3162 70.5705 16.7797 70.5705 17.3687C70.5705 17.7832 70.682 18.1104 70.9054 18.3503C71.1287 18.5903 71.4689 18.7866 71.9266 18.9393C72.3952 19.092 72.9869 19.2501 73.7011 19.4137C74.5268 19.5882 75.2413 19.8009 75.844 20.0518C76.4467 20.3026 76.9097 20.6407 77.2333 21.0661C77.5571 21.4806 77.7188 22.0368 77.7188 22.7348C77.7188 23.4765 77.529 24.0873 77.1496 24.5672C76.7703 25.0471 76.2512 25.4016 75.5928 25.6306C74.9456 25.8596 74.2145 25.9742 73.3997 25.9742C71.5472 25.9742 69.9343 25.4288 68.5617 24.3381L69.2815 23.0948C69.5271 23.3347 69.8563 23.5747 70.2692 23.8146C70.6933 24.0546 71.1732 24.2563 71.7088 24.4199C72.2558 24.5726 72.8306 24.649 73.4333 24.649C74.2815 24.649 74.94 24.5018 75.4086 24.2073C75.8772 23.9019 76.1118 23.4601 76.1118 22.8821C76.1118 22.4458 75.9778 22.0968 75.7099 21.835C75.4534 21.5733 75.0681 21.3552 74.555 21.1806C74.0416 21.0061 73.4164 20.8316 72.6799 20.6571C71.8764 20.4608 71.2011 20.2481 70.6542 20.0191C70.1075 19.7791 69.6944 19.4683 69.4156 19.0865C69.1477 18.7048 69.0137 18.2085 69.0137 17.5977C69.0137 16.8561 69.1979 16.2289 69.5662 15.7163C69.9343 15.2037 70.4421 14.8165 71.0896 14.5547C71.7367 14.293 72.4678 14.1621 73.2826 14.1621C74.0751 14.1621 74.7949 14.2821 75.4421 14.522C76.1006 14.762 76.681 15.0837 77.1831 15.4873L76.4802 16.6816ZM88.5395 25.9414C87.7025 25.9414 86.9435 25.7779 86.2628 25.4506C85.5822 25.1234 84.9907 24.6817 84.4883 24.1255C83.9971 23.5583 83.6178 22.9257 83.35 22.2277C83.0821 21.5187 82.9484 20.7934 82.9484 20.0518C82.9484 19.2774 83.0878 18.5412 83.3669 17.8432C83.6569 17.1342 84.0532 16.5071 84.5553 15.9617C85.0688 15.4055 85.6658 14.9692 86.3465 14.6529C87.0272 14.3257 87.7696 14.1621 88.573 14.1621C89.4103 14.1621 90.169 14.3312 90.85 14.6693C91.5307 15.0074 92.1165 15.46 92.6076 16.0272C93.0988 16.5943 93.4782 17.2269 93.746 17.925C94.0138 18.623 94.1479 19.3374 94.1479 20.0681C94.1479 20.8425 94.0082 21.5842 93.7294 22.2931C93.4503 22.9912 93.054 23.6183 92.5406 24.1745C92.0385 24.7199 91.4468 25.1507 90.7661 25.467C90.0854 25.7833 89.3433 25.9414 88.5395 25.9414ZM84.4717 20.0518C84.4717 20.6407 84.5663 21.2134 84.7561 21.7696C84.9572 22.3149 85.236 22.8003 85.5934 23.2256C85.9505 23.651 86.38 23.9891 86.8824 24.24C87.3846 24.4908 87.9425 24.6163 88.5564 24.6163C89.1926 24.6163 89.7618 24.4854 90.2639 24.2236C90.7661 23.9619 91.1902 23.6129 91.5363 23.1766C91.8934 22.7403 92.1613 22.2495 92.3398 21.7042C92.5293 21.1588 92.6245 20.608 92.6245 20.0518C92.6245 19.4628 92.524 18.8956 92.3232 18.3503C92.1334 17.805 91.8543 17.3196 91.4859 16.8943C91.1288 16.458 90.6993 16.1199 90.1969 15.8799C89.7057 15.6291 89.1591 15.5036 88.5564 15.5036C87.9202 15.5036 87.3511 15.6345 86.8489 15.8963C86.3465 16.1471 85.917 16.4907 85.5599 16.927C85.2138 17.3632 84.946 17.8541 84.7561 18.3994C84.5663 18.9338 84.4717 19.4846 84.4717 20.0518ZM100.136 14.2439L104.07 24.011L107.987 14.2439H109.578L104.756 25.8596H103.384L98.5455 14.2439H100.136ZM117.849 14.2439H119.121L123.976 25.8596H122.263L120.963 22.4567L118.485 15.9454L114.584 25.8596H112.977L117.849 14.2439ZM129.58 25.8596V14.2439H131.087V24.5508H137.716V25.8596H129.58ZM151.443 24.5508V25.8596H143.374V14.2439H151.292V15.5527H144.881V19.3156H150.455V20.5426H144.881V24.5508H151.443ZM159.035 16.9597V25.8596H157.528V14.2439H158.8L166.066 23.3238V14.2603H167.572V25.8596H166.199L159.035 16.9597ZM182.999 15.5527H178.898V25.8596H177.391V15.5527H173.29V14.2439H182.999V15.5527Z" fill="black"/>
</svg>
