<svg width="390" height="74" viewBox="0 0 390 74" fill="none" xmlns="http://www.w3.org/2000/svg">
<path d="M97.0626 33.3065C100.117 33.3065 102.524 32.1061 104.468 29.7053L108.356 33.7682C105.209 37.2771 101.598 39.0315 97.3403 39.0315C93.0821 39.0315 89.6571 37.7387 86.88 35.0609C84.1029 32.3831 82.807 29.0589 82.807 24.996C82.807 20.9332 84.1955 17.5166 86.9726 14.8388C89.7496 12.161 93.1747 10.7759 97.2477 10.7759C101.784 10.7759 105.579 12.5304 108.541 15.9469L104.746 20.2868C102.802 17.886 100.395 16.6856 97.5254 16.6856C95.2112 16.6856 93.2673 17.4243 91.601 18.9017C89.9348 20.3791 89.1016 22.4106 89.1016 24.996C89.1016 27.5815 89.8422 29.613 91.4159 31.1827C92.9895 32.4755 94.8409 33.3065 97.0626 33.3065V33.3065ZM113.262 38.6621V11.2376H119.372V33.2142H131.128V38.6621H113.262ZM157.973 34.8763C155.196 37.5541 151.771 38.9391 147.698 38.9391C143.625 38.9391 140.2 37.5541 137.423 34.8763C134.646 32.1984 133.257 28.7819 133.257 24.8114C133.257 20.8408 134.646 17.4243 137.423 14.7465C140.2 12.0687 143.625 10.6836 147.698 10.6836C151.771 10.6836 155.196 12.0687 157.973 14.7465C160.75 17.4243 162.139 20.8408 162.139 24.8114C162.139 28.7819 160.75 32.1984 157.973 34.8763ZM155.844 24.8114C155.844 22.4106 155.011 20.2868 153.53 18.5324C151.956 16.7779 150.012 15.9469 147.698 15.9469C145.384 15.9469 143.44 16.7779 141.866 18.5324C140.292 20.2868 139.459 22.3182 139.459 24.8114C139.459 27.3045 140.292 29.336 141.866 31.0904C143.44 32.8448 145.384 33.6759 147.698 33.6759C150.012 33.6759 151.956 32.8448 153.53 31.0904C155.103 29.336 155.844 27.3045 155.844 24.8114ZM174.635 31.6444C175.654 32.9371 177.042 33.5835 178.801 33.5835C180.56 33.5835 181.948 32.9371 182.874 31.6444C183.892 30.3517 184.355 28.5972 184.355 26.4735V11.2376H190.465V26.5658C190.465 30.5364 189.354 33.5835 187.132 35.7073C184.911 37.8311 182.133 38.9391 178.708 38.9391C175.283 38.9391 172.414 37.8311 170.192 35.7073C167.97 33.5835 166.86 30.5364 166.86 26.5658V11.2376H172.969V26.3811C173.062 28.5972 173.617 30.3517 174.635 31.6444V31.6444ZM217.865 14.8388C220.457 17.2396 221.846 20.5638 221.846 24.8114C221.846 29.0589 220.55 32.4755 218.05 34.9686C215.458 37.4617 211.57 38.6621 206.387 38.6621H196.852V11.2376H206.572C211.478 11.2376 215.273 12.438 217.865 14.8388ZM213.422 31.1827C214.903 29.7976 215.643 27.6739 215.643 24.996C215.643 22.3182 214.903 20.1944 213.422 18.8094C211.941 17.332 209.626 16.5933 206.479 16.5933H203.054V33.3065H206.942C209.719 33.3065 211.848 32.5678 213.422 31.1827ZM256.744 11.2376H262.946V38.6621H256.744L243.692 21.4872V38.6621H237.49V11.2376H243.322L256.744 28.9666V11.2376ZM289.236 38.6621L286.644 32.7525H275.073L272.481 38.6621H265.908L277.757 11.2376H283.682L295.53 38.6621H289.236V38.6621ZM280.997 19.4557L277.572 27.3968H284.422L280.997 19.4557ZM308.675 16.5933V38.6621H302.473V16.5933H294.697V11.2376H316.451V16.5933H308.675ZM320.894 11.2376H327.004V38.6621H320.894V11.2376ZM343.944 28.6896L350.979 11.2376H357.644L346.536 38.6621H341.352L330.336 11.2376H337.001L343.944 28.6896ZM380.694 11.2376V16.6856H366.994V22.4106H379.305V27.5815H366.994V33.3065H381.157V38.6621H360.884V11.2376H380.694ZM90.0273 62.0237C91.6936 62.0237 93.0821 61.3774 94.1929 59.9923L96.4146 62.3008C94.6558 64.2399 92.6193 65.2556 90.2125 65.2556C87.8057 65.2556 85.8617 64.5169 84.3806 63.0395C82.807 61.562 82.0664 59.6229 82.0664 57.4068C82.0664 55.0984 82.807 53.2516 84.3806 51.6818C85.9543 50.1121 87.8982 49.3734 90.1199 49.3734C92.6193 49.3734 94.7484 50.2968 96.5072 52.2359L94.3781 54.6367C93.2673 53.2516 91.9713 52.6052 90.305 52.6052C89.0091 52.6052 87.8983 53.0669 86.9726 53.898C86.0469 54.729 85.584 55.8371 85.584 57.3145C85.584 58.7919 86.0469 59.9 86.88 60.731C87.7131 61.6544 88.8239 62.0237 90.0273 62.0237V62.0237ZM111.688 62.9471C110.115 64.4245 108.171 65.2556 105.949 65.2556C103.728 65.2556 101.784 64.5169 100.21 62.9471C98.6363 61.4697 97.8957 59.5306 97.8957 57.3145C97.8957 55.0984 98.6363 53.1593 100.21 51.6818C101.784 50.2044 103.728 49.3734 105.949 49.3734C108.171 49.3734 110.115 50.1121 111.688 51.6818C113.262 53.1593 114.003 55.0984 114.003 57.3145C114.003 59.5306 113.262 61.4697 111.688 62.9471ZM110.578 57.3145C110.578 55.9294 110.115 54.729 109.282 53.8056C108.356 52.8822 107.338 52.3282 106.042 52.3282C104.746 52.3282 103.635 52.7899 102.802 53.8056C101.876 54.729 101.506 55.9294 101.506 57.3145C101.506 58.6996 101.969 59.8076 102.802 60.8233C103.728 61.7467 104.746 62.3008 106.042 62.3008C107.338 62.3008 108.449 61.8391 109.282 60.8233C110.115 59.9 110.578 58.6996 110.578 57.3145ZM130.758 55.3754L126.592 63.8705H124.556L120.39 55.3754V65.0709H116.965V49.7427H121.593L125.574 58.1455L129.554 49.7427H134.183V65.0709H130.758V55.3754ZM148.624 51.1278C149.734 52.0512 150.29 53.4363 150.29 55.3754C150.29 57.3145 149.734 58.6996 148.624 59.5306C147.513 60.454 145.846 60.8233 143.532 60.8233H141.496V65.0709H138.071V49.7427H143.532C145.846 49.7427 147.513 50.2044 148.624 51.1278V51.1278ZM146.124 57.1298C146.494 56.6681 146.772 56.0217 146.772 55.0984C146.772 54.175 146.494 53.6209 145.939 53.2516C145.384 52.8822 144.55 52.6976 143.44 52.6976H141.496V57.8685H143.81C144.921 57.8685 145.661 57.5915 146.124 57.1298ZM157.047 61.1004C157.603 61.8391 158.436 62.2084 159.362 62.2084C160.287 62.2084 161.12 61.8391 161.676 61.1004C162.231 60.3617 162.509 59.4383 162.509 58.1455V49.6504H165.934V58.2379C165.934 60.454 165.286 62.2084 164.083 63.4088C162.879 64.6092 161.305 65.1633 159.362 65.1633C157.418 65.1633 155.844 64.5169 154.64 63.3165C153.437 62.1161 152.789 60.3617 152.789 58.1455V49.5581H156.214V58.2379C156.214 59.4383 156.492 60.454 157.047 61.1004V61.1004ZM176.024 52.6976V65.0709H172.599V52.6976H168.248V49.7427H180.375V52.6976H176.024ZM182.967 49.7427H186.392V65.1633H182.967V49.7427ZM200.925 49.7427H204.35V65.0709H200.925L193.612 55.4677V65.0709H190.187V49.7427H193.334L200.925 59.6229V49.7427ZM218.235 57.3145H221.66V62.7625C220.087 64.4245 218.05 65.3479 215.273 65.3479C213.052 65.3479 211.108 64.6092 209.534 63.1318C207.96 61.6544 207.22 59.7153 207.22 57.4992C207.22 55.1907 207.96 53.3439 209.534 51.7742C211.108 50.2044 212.959 49.4657 215.181 49.4657C217.402 49.4657 219.346 50.2044 220.92 51.6818L219.161 54.2673C218.513 53.621 217.865 53.2516 217.217 53.0669C216.662 52.8822 216.014 52.6976 215.366 52.6976C214.07 52.6976 212.959 53.1593 212.033 53.9903C211.108 54.9137 210.645 56.0217 210.645 57.4992C210.645 58.9766 211.108 60.0846 211.941 61.008C212.774 61.8391 213.792 62.3008 214.995 62.3008C216.199 62.3008 217.217 62.1161 217.958 61.6544L218.235 57.3145V57.3145ZM241.1 49.7427V52.6976H233.972V56.0217H240.822V59.0689H233.972V65.0709H230.547V49.7427H241.1ZM257.022 62.9471C255.448 64.4245 253.504 65.2556 251.283 65.2556C248.968 65.2556 247.117 64.5169 245.543 62.9471C243.97 61.4697 243.229 59.5306 243.229 57.3145C243.229 55.0984 243.97 53.1593 245.543 51.6818C247.117 50.2044 249.061 49.3734 251.283 49.3734C253.597 49.3734 255.448 50.1121 257.022 51.6818C258.595 53.1593 259.336 55.0984 259.336 57.3145C259.336 59.5306 258.595 61.4697 257.022 62.9471ZM255.818 57.3145C255.818 55.9294 255.356 54.729 254.522 53.8056C253.597 52.8822 252.578 52.3282 251.283 52.3282C249.987 52.3282 248.876 52.7899 248.043 53.8056C247.117 54.729 246.747 55.9294 246.747 57.3145C246.747 58.6996 247.209 59.8076 248.043 60.8233C248.968 61.7467 249.987 62.3008 251.283 62.3008C252.578 62.3008 253.689 61.8391 254.522 60.8233C255.448 59.9 255.818 58.6996 255.818 57.3145ZM266.371 61.1004C266.927 61.8391 267.76 62.2084 268.685 62.2084C269.611 62.2084 270.444 61.8391 271 61.1004C271.555 60.3617 271.833 59.4383 271.833 58.1455V49.6504H275.258V58.2379C275.258 60.454 274.61 62.2084 273.407 63.4088C272.203 64.6092 270.629 65.1633 268.685 65.1633C266.742 65.1633 265.168 64.5169 263.964 63.3165C262.761 62.1161 262.113 60.3617 262.113 58.1455V49.5581H265.538V58.2379C265.446 59.4383 265.816 60.454 266.371 61.1004V61.1004ZM289.606 49.7427H293.031V65.0709H289.606L282.293 55.4677V65.0709H278.868V49.7427H282.015L289.606 59.6229V49.7427ZM308.583 51.7742C310.064 53.1593 310.804 55.006 310.804 57.4068C310.804 59.8076 310.064 61.6544 308.675 63.0395C307.287 64.4245 305.065 65.1633 302.103 65.1633H296.826V49.7427H302.288C305.065 49.7427 307.194 50.3891 308.583 51.7742ZM306.083 60.9157C306.916 60.0846 307.379 58.9766 307.379 57.4992C307.379 56.0217 306.916 54.8214 306.083 53.9903C305.25 53.1593 303.954 52.7899 302.195 52.7899H300.252V62.1161H302.473C304.047 62.0237 305.25 61.6544 306.083 60.9157V60.9157ZM324.319 65.0709L322.931 61.7467H316.451L315.063 65.0709H311.36L318.025 49.6504H321.357L328.022 65.0709H324.319ZM319.691 54.2673L317.747 58.6996H321.635L319.691 54.2673V54.2673ZM335.243 52.6976V65.0709H331.725V52.6976H327.374V49.7427H339.593V52.6976H335.243ZM342.093 49.7427H345.518V65.1633H342.093V49.7427ZM362.273 62.9471C360.699 64.4245 358.755 65.2556 356.533 65.2556C354.219 65.2556 352.368 64.5169 350.794 62.9471C349.22 61.4697 348.48 59.5306 348.48 57.3145C348.48 55.0984 349.22 53.1593 350.794 51.6818C352.368 50.2044 354.312 49.3734 356.533 49.3734C358.848 49.3734 360.699 50.1121 362.273 51.6818C363.846 53.1593 364.587 55.0984 364.587 57.3145C364.587 59.5306 363.846 61.4697 362.273 62.9471ZM361.162 57.3145C361.162 55.9294 360.699 54.729 359.866 53.8056C358.94 52.8822 357.922 52.3282 356.626 52.3282C355.33 52.3282 354.219 52.7899 353.386 53.8056C352.46 54.729 352.09 55.9294 352.09 57.3145C352.09 58.6996 352.553 59.8076 353.386 60.8233C354.312 61.7467 355.33 62.3008 356.626 62.3008C357.922 62.3008 359.033 61.8391 359.866 60.8233C360.699 59.9 361.162 58.6996 361.162 57.3145ZM378.287 49.7427H381.805V65.0709H378.287L370.974 55.4677V65.0709H367.549V49.7427H370.789L378.287 59.6229V49.7427Z" fill="black"/>
<path d="M16.8046 46.8797H8.38086V66.6401H28.0981V58.145H16.8046V46.8797ZM59.2012 46.972V58.145H47.9078V58.0526V66.6401H67.625V46.8797H59.1087L59.2012 46.972ZM8.38086 27.2116H16.8972L16.8046 27.1193V15.9463H28.0981V7.45117H8.38086V27.2116ZM47.9078 7.45117V15.9463H59.2012V27.2116H67.625V7.45117H47.9078Z" fill="#446CA9"/>
<path d="M46.797 27.2116L35.5036 15.9463H47.9078V7.45117H28.0981V15.9463L39.3915 27.2116H46.797ZM36.6144 46.8797H29.2089L38.5583 56.2059L40.4097 58.145H28.0981V66.6401H47.9078V58.0526L42.2611 52.5123L36.6144 46.8797ZM59.2012 27.2116V39.4926L57.2573 37.5535L47.9078 28.2273V35.7067L53.462 41.247L59.1087 46.8797H67.625V27.2116H59.2012ZM28.0981 38.3845L16.8972 27.2116H8.38086V46.8797H16.8046V34.5987L28.0981 45.8639V38.3845Z" fill="#76C4D5"/>
</svg>
