<svg width="61" height="40" viewBox="0 0 61 40" fill="none" xmlns="http://www.w3.org/2000/svg">
<path d="M17.192 15.0747C17.192 15.8156 17.2731 16.4162 17.4151 16.8567C17.5774 17.2972 17.7803 17.7778 18.0644 18.2983C18.1658 18.4585 18.2064 18.6187 18.2064 18.7589C18.2064 18.9591 18.0846 19.1593 17.8209 19.3595L16.5427 20.2005C16.3601 20.3206 16.1775 20.3807 16.0152 20.3807C15.8123 20.3807 15.6095 20.2806 15.4066 20.1004C15.1225 19.8 14.8791 19.4797 14.6762 19.1593C14.4733 18.8189 14.2704 18.4385 14.0473 17.978C12.4648 19.8201 10.4765 20.7411 8.08246 20.7411C6.37823 20.7411 5.01891 20.2606 4.02478 19.2995C3.03065 18.3384 2.52344 17.057 2.52344 15.4551C2.52344 13.7532 3.13209 12.3717 4.36968 11.3305C5.60728 10.2893 7.25064 9.76875 9.34034 9.76875C10.0301 9.76875 10.7402 9.82881 11.4909 9.92893C12.2416 10.029 13.0125 10.1892 13.8241 10.3694V8.90778C13.8241 7.38606 13.4995 6.32487 12.8705 5.70417C12.2213 5.08347 11.1257 4.78313 9.56351 4.78313C8.85342 4.78313 8.12304 4.86322 7.37237 5.04343C6.6217 5.22363 5.89131 5.44388 5.18122 5.72419C4.8566 5.86435 4.61314 5.94444 4.47112 5.98449C4.32911 6.02453 4.22766 6.04455 4.14651 6.04455C3.86247 6.04455 3.72045 5.84433 3.72045 5.42385V4.44275C3.72045 4.12239 3.76103 3.88212 3.86247 3.74196C3.96391 3.6018 4.14651 3.46165 4.43055 3.32149C5.14064 2.96108 5.99275 2.66074 6.98689 2.42047C7.98102 2.16018 9.03602 2.04005 10.1519 2.04005C12.5662 2.04005 14.3313 2.58065 15.4674 3.66187C16.5833 4.74309 17.1514 6.38494 17.1514 8.58742V15.0747H17.192ZM8.95486 18.1181C9.62438 18.1181 10.3142 17.998 11.0446 17.7577C11.775 17.5175 12.4242 17.077 12.972 16.4763C13.2966 16.0959 13.54 15.6754 13.6618 15.1949C13.7835 14.7143 13.8647 14.1337 13.8647 13.4529V12.6119C13.2763 12.4718 12.6474 12.3517 11.9981 12.2716C11.3489 12.1915 10.72 12.1514 10.091 12.1514C8.73169 12.1514 7.73756 12.4117 7.06804 12.9523C6.39852 13.4929 6.07391 14.2538 6.07391 15.2549C6.07391 16.196 6.31737 16.8968 6.82458 17.3773C7.3115 17.8779 8.0216 18.1181 8.95486 18.1181ZM25.2465 20.2806C24.8813 20.2806 24.6378 20.2205 24.4755 20.0804C24.3132 19.9602 24.1712 19.6799 24.0494 19.2995L19.2817 3.82205C19.1599 3.4216 19.0991 3.16131 19.0991 3.02115C19.0991 2.70079 19.2614 2.52059 19.586 2.52059H21.5742C21.9597 2.52059 22.2235 2.58065 22.3655 2.72081C22.5278 2.84095 22.6495 3.12126 22.7713 3.50169L26.1797 16.7566L29.3447 3.50169C29.4461 3.10124 29.5679 2.84095 29.7302 2.72081C29.8925 2.60068 30.1765 2.52059 30.5417 2.52059H32.1648C32.5503 2.52059 32.814 2.58065 32.9763 2.72081C33.1386 2.84095 33.2807 3.12126 33.3618 3.50169L36.5674 16.9168L40.0773 3.50169C40.199 3.10124 40.341 2.84095 40.483 2.72081C40.6453 2.60068 40.9091 2.52059 41.2743 2.52059H43.1611C43.4857 2.52059 43.6683 2.68077 43.6683 3.02115C43.6683 3.12126 43.648 3.22138 43.6277 3.34151C43.6075 3.46165 43.5669 3.62183 43.4857 3.84207L38.5962 19.3195C38.4745 19.7199 38.3325 19.9802 38.1702 20.1004C38.0079 20.2205 37.7441 20.3006 37.3992 20.3006H35.6544C35.2689 20.3006 35.0052 20.2405 34.8429 20.1004C34.6806 19.9602 34.5385 19.6999 34.4574 19.2995L31.3127 6.38494L28.1883 19.2795C28.0868 19.6799 27.9651 19.9402 27.8028 20.0804C27.6405 20.2205 27.3564 20.2806 26.9913 20.2806H25.2465ZM51.3171 20.8212C50.2621 20.8212 49.2071 20.7011 48.1926 20.4608C47.1782 20.2205 46.387 19.9602 45.8595 19.6599C45.5349 19.4797 45.3117 19.2795 45.2305 19.0993C45.1494 18.919 45.1088 18.7188 45.1088 18.5386V17.5175C45.1088 17.097 45.2711 16.8968 45.5754 16.8968C45.6972 16.8968 45.8189 16.9168 45.9406 16.9568C46.0624 16.9969 46.2449 17.077 46.4478 17.1571C47.1376 17.4574 47.8883 17.6977 48.6796 17.8579C49.4911 18.018 50.2823 18.0981 51.0939 18.0981C52.372 18.0981 53.3662 17.8779 54.056 17.4374C54.7458 16.9969 55.111 16.3562 55.111 15.5352C55.111 14.9746 54.9284 14.5141 54.5632 14.1337C54.198 13.7532 53.5082 13.4128 52.5141 13.0925L49.5722 12.1915C48.0912 11.731 46.9956 11.0502 46.3261 10.1492C45.6566 9.26818 45.3117 8.28708 45.3117 7.24591C45.3117 6.40496 45.4943 5.66413 45.8595 5.0234C46.2247 4.38268 46.7116 3.82205 47.3202 3.38156C47.9289 2.92104 48.6187 2.58065 49.4302 2.34038C50.2418 2.10011 51.0939 2 51.9866 2C52.4329 2 52.8995 2.02002 53.3459 2.08009C53.8125 2.14016 54.2386 2.22025 54.6646 2.30034C55.0704 2.40045 55.4559 2.50056 55.8211 2.6207C56.1863 2.74083 56.4703 2.86097 56.6732 2.9811C56.9572 3.14128 57.1601 3.30147 57.2818 3.48167C57.4036 3.64185 57.4644 3.8621 57.4644 4.14241V5.08347C57.4644 5.50394 57.3021 5.72419 56.9978 5.72419C56.8355 5.72419 56.5717 5.6441 56.2268 5.48392C55.0704 4.96334 53.7719 4.70304 52.3315 4.70304C51.175 4.70304 50.2621 4.88325 49.6331 5.26367C49.0042 5.6441 48.6796 6.22476 48.6796 7.04568C48.6796 7.60631 48.8824 8.08685 49.2882 8.46728C49.694 8.84771 50.4446 9.22814 51.5199 9.56852L54.4009 10.4695C55.8616 10.9301 56.9166 11.5708 57.5456 12.3917C58.1745 13.2126 58.4789 14.1537 58.4789 15.1949C58.4789 16.0558 58.2963 16.8367 57.9514 17.5175C57.5862 18.1982 57.0992 18.7989 56.4703 19.2795C55.8414 19.78 55.0907 20.1404 54.2183 20.4007C53.3053 20.681 52.3518 20.8212 51.3171 20.8212Z" fill="#252F3E"/>
<path fill-rule="evenodd" clip-rule="evenodd" d="M55.1504 30.5517C48.4755 35.4172 38.7776 38.0001 30.4391 38.0001C18.753 38.0001 8.2233 33.7353 0.270245 26.6473C-0.358696 26.0867 0.20938 25.3258 0.960051 25.7663C9.56234 30.6919 20.1732 33.6752 31.1492 33.6752C38.5545 33.6752 46.6901 32.1535 54.1766 29.03C55.2924 28.5294 56.246 29.7508 55.1504 30.5517Z" fill="#FF9900"/>
<path fill-rule="evenodd" clip-rule="evenodd" d="M57.9279 27.4332C57.0758 26.3519 52.2878 26.9126 50.1169 27.1729C49.4677 27.253 49.3662 26.6923 49.9546 26.2718C53.7688 23.6289 60.0379 24.3897 60.7683 25.2707C61.4987 26.1717 60.5654 32.3587 56.9947 35.322C56.4469 35.7826 55.9194 35.5423 56.1629 34.9416C56.9744 32.9594 58.7801 28.4943 57.9279 27.4332Z" fill="#FF9900"/>
</svg>
