<svg width="111" height="83" viewBox="0 0 111 83" fill="none" xmlns="http://www.w3.org/2000/svg">
<g clip-path="url(#clip0_176_849)">
<path d="M38.1894 34.0441L43.6818 39.5372L49.1748 34.0441L43.6818 28.5523L38.1894 34.0441ZM52.1999 20.0343L57.6923 25.5267L63.1853 20.0343L57.6923 14.5418L52.1999 20.0343ZM45.3537 13.1881L50.8467 18.6805L56.3392 13.1881L50.8467 7.69568L45.3537 13.1881ZM45.1946 27.0395L50.6871 32.5313L56.1801 27.0395L50.6871 21.5471L45.1946 27.0395ZM38.3491 20.1933L43.8415 25.6858L49.3345 20.1933L43.8415 14.7009L38.3491 20.1933ZM59.2051 13.029L64.6976 18.5214L70.1906 13.029L64.6976 7.53659L59.2051 13.029ZM52.359 6.18285L57.8514 11.6759L63.345 6.18285L57.8514 0.69043L52.359 6.18285ZM45.0355 40.8903L50.528 46.3827L56.021 40.8903L50.528 35.3979L45.0355 40.8903ZM59.046 26.8804L64.5385 32.3722L70.0309 26.8804L64.5385 21.3874L59.046 26.8804ZM52.0408 33.8851L57.5332 39.3775L63.0262 33.8851L57.5332 28.3926L52.0408 33.8851ZM66.0513 19.8752L71.5431 25.3676L77.0361 19.8752L71.5431 14.3827L66.0513 19.8752ZM0.501917 63.886C0.501917 67.6619 3.96778 68.2433 6.46493 69.1389C7.8947 69.6466 8.98586 70.2526 8.98586 71.5592C8.98586 73.1089 8.04038 73.9074 5.78645 73.9074C3.55606 73.9074 1.22854 73.1573 1.22854 73.1573C0.768196 73.8591 0.477486 74.8029 0.501917 75.6258C0.501917 75.6258 2.58663 76.6911 5.90728 76.6911C10.0523 76.6911 12.1612 74.8512 12.1612 71.4871C12.1612 68.3887 9.97965 67.2269 7.79787 66.4278C5.68921 65.6777 3.58048 65.2667 3.58048 63.7412C3.58048 62.1681 4.69535 61.3937 7.04658 61.3937C9.08244 61.3937 10.6584 61.9258 10.6584 61.9258C11.2156 61.3209 11.4823 60.3526 11.4823 59.5054C11.4823 59.5054 9.61565 58.779 6.61037 58.779C2.48957 58.779 0.501917 60.8365 0.501917 63.886Z" fill="#99D420"/>
<path d="M0.501429 63.8858C0.501429 67.6616 3.96729 68.2431 6.46444 69.1387C7.89421 69.6463 8.98537 70.2524 8.98537 71.559C8.98537 73.1087 8.03989 73.9072 5.78596 73.9072C3.55557 73.9072 1.22805 73.1571 1.22805 73.1571C0.767708 73.8588 0.476998 74.8026 0.501429 75.6256C0.501429 75.6256 2.58614 76.6909 5.9068 76.6909C10.0518 76.6909 12.1608 74.851 12.1608 71.4869C12.1608 68.3885 9.97916 67.2266 7.79738 66.4276C5.68872 65.6775 3.58 65.2664 3.58 63.741C3.58 62.1679 4.69487 61.3935 7.04609 61.3935C9.08195 61.3935 10.6579 61.9256 10.6579 61.9256C11.2151 61.3206 11.4818 60.3524 11.4818 59.5052C11.4818 59.5052 9.61516 58.7788 6.60988 58.7788C2.48908 58.7788 0.501429 60.8363 0.501429 63.8858Z" stroke="#99D420" stroke-width="0.238191"/>
<path d="M25.3939 63.9102C25.3939 63.9102 24.8363 63.7166 23.9637 63.7166C22.9699 63.7166 22.4851 63.9102 22.4851 63.9102L20.5218 70.3971C19.9639 72.2363 19.7461 73.4471 19.7461 73.4471H19.6488C19.6488 73.4471 19.4307 72.2126 18.8009 70.3971L16.5225 63.9102C16.5225 63.9102 15.9893 63.7166 14.9465 63.7166C13.9527 63.7166 13.3711 63.9102 13.3711 63.9102C13.3711 63.9102 18.1217 77.1003 18.2958 77.6221C17.5652 79.7369 17.1286 79.9822 15.9404 79.9822C15.4316 79.9822 14.8255 79.8852 14.8255 79.8852C14.8255 79.8852 14.6077 80.4184 14.6077 81.0959C14.6077 81.7257 14.8255 82.2334 14.8255 82.2334C14.8255 82.2334 15.3832 82.5003 16.2311 82.5003C19.2852 82.5003 20.1822 80.8296 21.1277 77.8283L25.3939 63.9102Z" fill="#99D420"/>
<path d="M25.3939 63.9102C25.3939 63.9102 24.8363 63.7166 23.9637 63.7166C22.9699 63.7166 22.4851 63.9102 22.4851 63.9102L20.5218 70.3971C19.9639 72.2363 19.7461 73.4471 19.7461 73.4471H19.6488C19.6488 73.4471 19.4307 72.2126 18.8009 70.3971L16.5225 63.9102C16.5225 63.9102 15.9893 63.7166 14.9465 63.7166C13.9527 63.7166 13.3711 63.9102 13.3711 63.9102C13.3711 63.9102 18.1217 77.1003 18.2958 77.6221C17.5652 79.7369 17.1286 79.9822 15.9404 79.9822C15.4316 79.9822 14.8255 79.8852 14.8255 79.8852C14.8255 79.8852 14.6077 80.4184 14.6077 81.0959C14.6077 81.7257 14.8255 82.2334 14.8255 82.2334C14.8255 82.2334 15.3832 82.5003 16.2311 82.5003C19.2852 82.5003 20.1822 80.8296 21.1277 77.8283L25.3939 63.9102Z" stroke="#99D420" stroke-width="0.238191"/>
<path d="M27.4799 67.3959C27.4799 69.8896 29.2496 70.5669 30.8494 71.0508C32.1584 71.4381 33.3459 71.705 33.3459 72.7459C33.3459 73.6415 32.7638 74.1009 31.4553 74.1009C29.8067 74.1009 28.2313 73.52 28.2313 73.52C27.6736 74.0521 27.4072 74.8755 27.4072 75.7709C27.4072 75.7709 28.9588 76.691 31.6007 76.691C34.7753 76.691 36.3513 75.2384 36.3513 72.6733C36.3513 70.3972 34.9213 69.5498 33.4669 69.0417C31.9397 68.5097 30.3888 68.3397 30.3888 67.2994C30.3888 66.4277 31.0674 65.9445 32.473 65.9445C33.8065 65.9445 34.9457 66.3311 34.9457 66.3311C35.479 65.8223 35.7215 64.9519 35.7215 64.1766C35.7215 64.1766 34.7509 63.4749 32.1584 63.4749C28.9826 63.4749 27.4799 65.0489 27.4799 67.3959Z" fill="#99D420"/>
<path d="M27.4799 67.3959C27.4799 69.8896 29.2496 70.5669 30.8494 71.0508C32.1584 71.4381 33.3459 71.705 33.3459 72.7459C33.3459 73.6415 32.7638 74.1009 31.4553 74.1009C29.8067 74.1009 28.2313 73.52 28.2313 73.52C27.6736 74.0521 27.4072 74.8755 27.4072 75.7709C27.4072 75.7709 28.9588 76.691 31.6007 76.691C34.7753 76.691 36.3513 75.2384 36.3513 72.6733C36.3513 70.3972 34.9213 69.5498 33.4669 69.0417C31.9397 68.5097 30.3888 68.3397 30.3888 67.2994C30.3888 66.4277 31.0674 65.9445 32.473 65.9445C33.8065 65.9445 34.9457 66.3311 34.9457 66.3311C35.479 65.8223 35.7215 64.9519 35.7215 64.1766C35.7215 64.1766 34.7509 63.4749 32.1584 63.4749C28.9826 63.4749 27.4799 65.0489 27.4799 67.3959Z" stroke="#99D420" stroke-width="0.238191"/>
<path d="M39.8174 59.0208V76.4482H50.5543C50.7242 76.0372 50.7969 75.6015 50.7969 75.1653C50.7969 74.7543 50.7003 74.3426 50.5543 73.956H42.9199V68.8967H49.0999C49.2697 68.485 49.3424 68.05 49.3424 67.6131C49.3424 67.2028 49.2459 66.7903 49.0999 66.403H42.9199V61.5142H50.3124C50.4817 61.1031 50.5543 60.6425 50.5543 60.183C50.5543 59.7708 50.4578 59.384 50.3124 59.0208H39.8174Z" fill="#231F20"/>
<path d="M39.8174 59.0208V76.4482H50.5543C50.7242 76.0372 50.7969 75.6015 50.7969 75.1653C50.7969 74.7543 50.7003 74.3426 50.5543 73.956H42.9199V68.8967H49.0999C49.2697 68.485 49.3424 68.05 49.3424 67.6131C49.3424 67.2028 49.2459 66.7903 49.0999 66.403H42.9199V61.5142H50.3124C50.4817 61.1031 50.5543 60.6425 50.5543 60.183C50.5543 59.7708 50.4578 59.384 50.3124 59.0208H39.8174Z" stroke="#231F20" stroke-width="0.238191"/>
<path d="M57.1714 58.489C57.1714 58.489 56.6388 58.2952 55.6443 58.2952C54.5784 58.2952 54.1172 58.489 54.1172 58.489V76.2557C54.1172 76.2557 54.5784 76.4486 55.6443 76.4486C56.6388 76.4486 57.1714 76.2557 57.1714 76.2557V58.489Z" fill="#231F20"/>
<path d="M57.1714 58.489C57.1714 58.489 56.6388 58.2952 55.6443 58.2952C54.5784 58.2952 54.1172 58.489 54.1172 58.489V76.2557C54.1172 76.2557 54.5784 76.4486 55.6443 76.4486C56.6388 76.4486 57.1714 76.2557 57.1714 76.2557V58.489Z" stroke="#231F20" stroke-width="0.238191"/>
<path d="M71.1088 68.4852C71.1088 65.0244 69.1455 63.4749 66.1396 63.4749C62.7945 63.4749 60.6138 65.4357 60.6138 70.0104C60.6138 74.391 62.3584 76.691 66.3094 76.691C69.0002 76.691 70.4302 75.699 70.4302 75.699C70.4057 74.8516 70.0179 74.0281 69.509 73.5438C69.509 73.5438 68.3698 74.1247 66.7461 74.1247C65.0492 74.1247 63.9582 73.4956 63.7407 71.0264H70.8425C70.8425 71.0264 71.1088 70.0348 71.1088 68.4852ZM68.079 68.1228C68.079 68.3879 68.0546 68.6544 68.0301 68.9214H63.764C63.9826 66.6696 64.9032 65.8468 66.1396 65.8468C67.6673 65.8468 68.079 66.8639 68.079 68.1228Z" fill="#231F20"/>
<path d="M71.1088 68.4852C71.1088 65.0244 69.1455 63.4749 66.1396 63.4749C62.7945 63.4749 60.6138 65.4357 60.6138 70.0104C60.6138 74.391 62.3584 76.691 66.3094 76.691C69.0002 76.691 70.4302 75.699 70.4302 75.699C70.4057 74.8516 70.0179 74.0281 69.509 73.5438C69.509 73.5438 68.3698 74.1247 66.7461 74.1247C65.0492 74.1247 63.9582 73.4956 63.7407 71.0264H70.8425C70.8425 71.0264 71.1088 70.0348 71.1088 68.4852ZM68.079 68.1228C68.079 68.3879 68.0546 68.6544 68.0301 68.9214H63.764C63.9826 66.6696 64.9032 65.8468 66.1396 65.8468C67.6673 65.8468 68.079 66.8639 68.079 68.1228Z" stroke="#231F20" stroke-width="0.238191"/>
<path d="M76.1274 63.9102C76.1274 63.9102 75.618 63.7166 74.5515 63.7166C73.5576 63.7166 72.9761 63.9102 72.9761 63.9102L77.0969 76.2547C77.0969 76.2547 77.8238 76.4484 78.9875 76.4484C80.0784 76.4484 80.8781 76.2547 80.8781 76.2547L84.9017 63.9102C84.9017 63.9102 84.4412 63.7166 83.4956 63.7166C82.6233 63.7166 82.1144 63.9102 82.1144 63.9102L79.8598 70.9059C79.3992 72.3336 79.109 73.6414 79.109 73.6414H79.0119C79.0119 73.6414 78.7932 72.3092 78.3571 70.9303L76.1274 63.9102Z" fill="#231F20"/>
<path d="M76.1274 63.9102C76.1274 63.9102 75.618 63.7166 74.5515 63.7166C73.5576 63.7166 72.9761 63.9102 72.9761 63.9102L77.0969 76.2547C77.0969 76.2547 77.8238 76.4484 78.9875 76.4484C80.0784 76.4484 80.8781 76.2547 80.8781 76.2547L84.9017 63.9102C84.9017 63.9102 84.4412 63.7166 83.4956 63.7166C82.6233 63.7166 82.1144 63.9102 82.1144 63.9102L79.8598 70.9059C79.3992 72.3336 79.109 73.6414 79.109 73.6414H79.0119C79.0119 73.6414 78.7932 72.3092 78.3571 70.9303L76.1274 63.9102Z" stroke="#231F20" stroke-width="0.238191"/>
<path d="M97.3116 68.4852C97.3116 65.0244 95.3483 63.4749 92.3423 63.4749C88.9973 63.4749 86.8159 65.4357 86.8159 70.0104C86.8159 74.391 88.5611 76.691 92.5121 76.691C95.2029 76.691 96.6329 75.699 96.6329 75.699C96.6085 74.8516 96.2206 74.0281 95.7117 73.5438C95.7117 73.5438 94.5725 74.1247 92.9483 74.1247C91.2519 74.1247 90.1609 73.4956 89.9429 71.0264H97.0446C97.0446 71.0264 97.3116 70.0348 97.3116 68.4852ZM94.2817 68.1228C94.2817 68.3879 94.2573 68.6544 94.2329 68.9214H89.9667C90.1848 66.6696 91.1059 65.8468 92.3423 65.8468C93.8694 65.8468 94.2817 66.8639 94.2817 68.1228Z" fill="#231F20"/>
<path d="M97.3116 68.4852C97.3116 65.0244 95.3483 63.4749 92.3423 63.4749C88.9973 63.4749 86.8159 65.4357 86.8159 70.0104C86.8159 74.391 88.5611 76.691 92.5121 76.691C95.2029 76.691 96.6329 75.699 96.6329 75.699C96.6085 74.8516 96.2206 74.0281 95.7117 73.5438C95.7117 73.5438 94.5725 74.1247 92.9483 74.1247C91.2519 74.1247 90.1609 73.4956 89.9429 71.0264H97.0446C97.0446 71.0264 97.3116 70.0348 97.3116 68.4852ZM94.2817 68.1228C94.2817 68.3879 94.2573 68.6544 94.2329 68.9214H89.9667C90.1848 66.6696 91.1059 65.8468 92.3423 65.8468C93.8694 65.8468 94.2817 66.8639 94.2817 68.1228Z" stroke="#231F20" stroke-width="0.238191"/>
<path d="M110.741 67.1541C110.741 64.9756 109.431 63.4749 106.935 63.4749C105.602 63.4749 104.463 63.8621 103.615 64.6367V63.9103C103.615 63.9103 103.081 63.7166 102.087 63.7166C101.021 63.7166 100.561 63.9103 100.561 63.9103V76.2548C100.561 76.2548 101.021 76.4485 102.087 76.4485C103.081 76.4485 103.615 76.2548 103.615 76.2548V66.8394C104.196 66.2829 104.947 65.9438 105.747 65.9438C107.128 65.9438 107.687 66.6458 107.687 67.6866V76.2548C107.687 76.2548 108.147 76.4485 109.213 76.4485C110.207 76.4485 110.741 76.2548 110.741 76.2548V67.1541Z" fill="#231F20"/>
<path d="M110.741 67.1541C110.741 64.9756 109.431 63.4749 106.935 63.4749C105.602 63.4749 104.463 63.8621 103.615 64.6367V63.9103C103.615 63.9103 103.081 63.7166 102.087 63.7166C101.021 63.7166 100.561 63.9103 100.561 63.9103V76.2548C100.561 76.2548 101.021 76.4485 102.087 76.4485C103.081 76.4485 103.615 76.2548 103.615 76.2548V66.8394C104.196 66.2829 104.947 65.9438 105.747 65.9438C107.128 65.9438 107.687 66.6458 107.687 67.6866V76.2548C107.687 76.2548 108.147 76.4485 109.213 76.4485C110.207 76.4485 110.741 76.2548 110.741 76.2548V67.1541Z" stroke="#231F20" stroke-width="0.238191"/>
</g>
<defs>
<clipPath id="clip0_176_849">
<rect width="110.241" height="81.8101" fill="white" transform="translate(0.5 0.689941)"/>
</clipPath>
</defs>
</svg>
