<svg xmlns="http://www.w3.org/2000/svg" width="165.955" height="61.837" viewBox="0 0 165.955 61.837"><path data-name="Path 4161" d="M155.731 40.602a5.828 5.828 0 004.336-1.832 6.125 6.125 0 001.8-4.445 6.15 6.15 0 00-1.8-4.469 5.828 5.828 0 00-4.336-1.832 5.816 5.816 0 00-4.335 1.832 6.163 6.163 0 00-1.8 4.469 6.137 6.137 0 001.8 4.445 5.818 5.818 0 004.335 1.832m-39.175 0a5.827 5.827 0 004.336-1.832 6.125 6.125 0 001.8-4.445 6.152 6.152 0 00-1.8-4.469 5.829 5.829 0 00-4.336-1.832 5.817 5.817 0 00-4.335 1.832 6.168 6.168 0 00-1.8 4.469 6.139 6.139 0 001.8 4.445 5.819 5.819 0 004.336 1.832zm-30.22 0a5.825 5.825 0 004.336-1.832 6.124 6.124 0 001.8-4.445 6.152 6.152 0 00-1.8-4.469 5.827 5.827 0 00-4.336-1.832A5.818 5.818 0 0082 29.856a6.166 6.166 0 00-1.8 4.469A6.141 6.141 0 0082 38.77a5.82 5.82 0 004.337 1.832zm45.8-.937a2.524 2.524 0 011.218.319 2.388 2.388 0 01.95.94 2.529 2.529 0 01.34 1.255 2.549 2.549 0 01-.332 1.239 2.385 2.385 0 01-.935.935 2.507 2.507 0 01-1.241.334 2.5 2.5 0 01-1.249-.334 2.4 2.4 0 01-.932-.935 2.537 2.537 0 01-.333-1.239 2.577 2.577 0 01.332-1.25 2.317 2.317 0 01.953-.945 2.565 2.565 0 011.225-.314zm23.6-15.744a9.794 9.794 0 017.226 3.061 10.1 10.1 0 013 7.343 10.057 10.057 0 01-3 7.325 9.807 9.807 0 01-7.226 3.037 9.778 9.778 0 01-7.22-3.037 10.074 10.074 0 01-3-7.325 10.12 10.12 0 013-7.343 9.764 9.764 0 017.215-3.061zm-15.044 0a1.953 1.953 0 011.434.6 1.954 1.954 0 01.614 1.451v16.682a1.936 1.936 0 01-.609 1.44 1.967 1.967 0 01-1.44.591 1.981 1.981 0 01-1.444-.589 1.97 1.97 0 01-.61-1.441v-16.68a1.972 1.972 0 01.606-1.443 1.967 1.967 0 011.445-.611zm0-6.734a2.524 2.524 0 011.219.319 2.39 2.39 0 01.949.941 2.525 2.525 0 01.34 1.255 2.535 2.535 0 01-.333 1.239 2.376 2.376 0 01-.934.935 2.508 2.508 0 01-1.242.334 2.5 2.5 0 01-1.249-.334 2.4 2.4 0 01-.933-.935 2.54 2.54 0 01-.332-1.239 2.582 2.582 0 01.331-1.25 2.326 2.326 0 01.954-.946 2.564 2.564 0 011.226-.319zm-24.131 6.734a9.791 9.791 0 017.226 3.061 10.1 10.1 0 013 7.343 10.055 10.055 0 01-3 7.325 9.8 9.8 0 01-7.226 3.037 9.777 9.777 0 01-7.22-3.037 10.071 10.071 0 01-3-7.325 10.119 10.119 0 013-7.343 9.766 9.766 0 017.216-3.061zm-15.1-6.771a1.974 1.974 0 011.447.61 1.987 1.987 0 01.59 1.444v23.453a2 2 0 01-.6 1.445 2.01 2.01 0 01-1.44.586 2.032 2.032 0 01-1.458-.591 1.967 1.967 0 01-.59-1.44V19.204a1.97 1.97 0 01.59-1.445 2 2 0 011.453-.609zm-15.116 6.771a9.792 9.792 0 017.226 3.061 10.1 10.1 0 013 7.343 10.055 10.055 0 01-3 7.325 9.8 9.8 0 01-7.226 3.037 9.779 9.779 0 01-7.22-3.037 10.07 10.07 0 01-3-7.325 10.117 10.117 0 013-7.343 9.764 9.764 0 017.212-3.061zM68.282 44.687a7.133 7.133 0 01-4.026-1.269 8.484 8.484 0 01-2.539-2.617 1.935 1.935 0 01-.242-1.527 2.018 2.018 0 01.9-1.29 2 2 0 011.546-.24 1.973 1.973 0 011.269.918 4.417 4.417 0 001.3 1.317 3.185 3.185 0 001.786.623 2.552 2.552 0 001.772-.652 1.866 1.866 0 00.718-1.479 1.486 1.486 0 00-.535-1.272 9.618 9.618 0 00-2.516-.948 12.526 12.526 0 01-3.846-1.615 5.242 5.242 0 01-2.179-4.5 5.846 5.846 0 011.948-4.406 6.541 6.541 0 014.638-1.811 6.763 6.763 0 013.608 1.013 6.207 6.207 0 012.416 2.719 1.985 1.985 0 01.066 1.571 1.972 1.972 0 01-1.072 1.142 2 2 0 01-1.55.06 2.008 2.008 0 01-1.157-1.069 2.209 2.209 0 00-.887-.98 2.806 2.806 0 00-1.424-.373 2.609 2.609 0 00-1.786.649 1.9 1.9 0 00-.7 1.484 1.465 1.465 0 00.492 1.23 10.512 10.512 0 002.524.935 12.677 12.677 0 013.863 1.622 5.328 5.328 0 012.178 4.546 5.857 5.857 0 01-1.93 4.412 6.554 6.554 0 01-4.644 1.808z" fill="#35393b"/><path data-name="Path 4162" d="M15.607 1.687C16.732.078 17.819-.483 18.526.455a11.855 11.855 0 008.917 4.8 11.855 11.855 0 008.917-4.8c.707-.938 1.793-.377 2.919 1.232 5.172 7.4 5.873 14.705 2.625 19.722 6.381 6.479 4.608 15.352 2.314 19.631-.985 1.838-1.37 1.7-2.459.713-.339-.305-.73-.662-1.171-1.064a29.04 29.04 0 01-2.1 5.814c-1.325 2.8-4.226 3.27-4.389-.026h-13.31c-.163 3.3-3.064 2.822-4.389.026a29.037 29.037 0 01-2.1-5.814c-.441.4-.833.759-1.171 1.064-1.089.985-1.474 1.125-2.459-.713-2.293-4.279-4.066-13.151 2.315-19.631-3.249-5.017-2.548-12.321 2.624-19.722" fill="#0eb1e4"/><path data-name="Path 4163" d="M27.442 5.258a11.855 11.855 0 008.917-4.8c.707-.938 1.793-.377 2.919 1.232 5.172 7.4 5.873 14.705 2.625 19.722 6.381 6.479 4.608 15.352 2.314 19.631-.985 1.838-1.37 1.7-2.459.713-.339-.305-.73-.662-1.171-1.064a29.036 29.036 0 01-2.1 5.814c-1.325 2.8-4.226 3.27-4.389-.026h-6.655V27.264c0-.569.347-1.01-1.721-1.26-4.865-.59-9.419-3.588-10.954-7.866a7.952 7.952 0 01-.471-2.691 5.5 5.5 0 012.292-4.515 5.958 5.958 0 018.533 1.611c.984 1.658 1.126 3.712 1.329 5.582.076.7.132 1.434.254 2.121.056.323.145.774.474.928.179.084.063.056.265.056z" fill="#158bc2"/><path data-name="Path 4164" d="M24.684 56.312c-.152.339-.571 2.54-1.083 2.87-1.852 1.192-7.25-12.066-7.6-13.542a143.821 143.821 0 0122.892-.013c-.346 1.45-5.733 14.763-7.607 13.556-.512-.33-.932-2.531-1.083-2.87-.27.812-1.405 5.852-2.9 5.508-1.461-.336-2.268-4.461-2.617-5.508" fill="#0eb1e4"/><path data-name="Path 4165" d="M27.442 45.177c4.1 0 8.2.145 11.449.449a36.028 36.028 0 01-1.289 3.431l-.008.021-.009.022-.009.022-.009.022-.009.022-.009.023-.009.022-.019.046-.009.023-.009.022-.009.023-.01.022-.006.015v.008l-.01.023-.009.023-.009.023-.009.023-.01.023-.01.023-.009.023-.019.046-.01.023-.01.023-.009.023v.008l-.006.015-.01.023-.01.023-.019.046-.01.023-.02.047-.011.023-.009.023-.011.023-.01.024-.01.023-.009.022-.01.023-.01.024-.092.214-.008.019v.006l-.011.024-.01.024-.042.1-.011.024-.042.1-.01.024c-1.836 4.21-4.481 9.408-5.684 8.633-.512-.33-.932-2.531-1.084-2.87-.261.786-1.334 5.535-2.759 5.524V50.394c0-.719-.085-1.7-1.848-1.66a81.377 81.377 0 00-8.135.739c-.228-.522-.634-1.572-.833-2.05a93.2 93.2 0 0110.8-.616h.017z" fill="#158bc2"/><path data-name="Path 4166" d="M27.442 24.59a14.923 14.923 0 002.1-.15c5.112-.73 11.046-4.468 11.046-10.211a5.5 5.5 0 00-2.291-4.515 5.958 5.958 0 00-8.533 1.611c-.984 1.658-1.127 3.711-1.33 5.582-.075.7-.132 1.434-.253 2.122-.057.322-.145.773-.474.928-.179.084-.063.056-.265.056s-.086.028-.265-.056c-.329-.155-.418-.606-.474-.928-.122-.688-.178-1.426-.254-2.122-.2-1.871-.345-3.924-1.329-5.582a5.958 5.958 0 00-8.533-1.611 5.5 5.5 0 00-2.292 4.515 7.952 7.952 0 00.471 2.691c1.761 4.905 7.721 7.671 12.675 7.671" fill="#fff"/><path data-name="Path 4167" d="M27.443 24.59a14.922 14.922 0 002.1-.15c5.112-.731 11.046-4.468 11.046-10.211a5.5 5.5 0 00-2.292-4.515 5.957 5.957 0 00-8.533 1.611c-.984 1.658-1.127 3.711-1.33 5.582-.075.7-.132 1.434-.253 2.122-.057.322-.145.773-.474.928-.179.084-.063.056-.265.056z" fill="#ddf4f9"/><path data-name="Path 4168" d="M21.444 12.023a2.514 2.514 0 012.514 2.514 2.514 2.514 0 01-2.514 2.514 2.514 2.514 0 01-2.514-2.514 2.514 2.514 0 012.514-2.514m12 0a2.514 2.514 0 012.514 2.514 2.514 2.514 0 01-2.514 2.514 2.514 2.514 0 01-2.514-2.514 2.514 2.514 0 012.511-2.514z" fill="#35393b"/><path data-name="Path 4169" d="M22.246 13.105a.729.729 0 01.729.728.728.728 0 01-.729.728.728.728 0 01-.728-.728.728.728 0 01.728-.728" fill="#fff"/><path data-name="Path 4170" d="M34.282 13.105a.728.728 0 01.728.728.728.728 0 01-.728.728.728.728 0 01-.728-.728.728.728 0 01.728-.728" fill="#fff"/><path data-name="Path 4171" d="M27.442 27.179a6.808 6.808 0 00-6.8 6.622c-.1-.006-.207-.01-.312-.01a4.863 4.863 0 00-4.864 4.863 4.864 4.864 0 004.864 4.864h14.234a4.864 4.864 0 004.864-4.864 4.863 4.863 0 00-4.864-4.863 4.762 4.762 0 00-3.344 1.242 5.631 5.631 0 012.818-2.756 6.811 6.811 0 00-6.591-5.1" fill="#fff"/><path data-name="Path 4172" d="M1.6 41.885a3.714 3.714 0 012.583-3.105c.778.585 1.564 1.16 2.371 1.7a42.78 42.78 0 003.867 2.3c2.15 1.14 2.82 1.814 5.387 1.416a76.373 76.373 0 0111.7-.886 75.011 75.011 0 0114.646 1.408 57.6 57.6 0 0112.7 4.016 3.524 3.524 0 01-1.666 3.674 53.589 53.589 0 00-11.826-3.726 71 71 0 00-13.857-1.328 71 71 0 00-13.857 1.328 53.6 53.6 0 00-11.839 3.732C.166 51.7-.259 50.44.136 48.744a52.894 52.894 0 016.753-2.538l.886-.268-.8-.47a55.9 55.9 0 01-5.378-3.583" fill="#c18e2e"/><path data-name="Path 4173" d="M1.6 41.925a4.087 4.087 0 01.718-1.781 53.924 53.924 0 007.912 5.224l-2.454.61-.8-.469a55.922 55.922 0 01-5.378-3.584" fill="#a96c25"/><path data-name="Path 4174" d="M54.438 51.168a3.006 3.006 0 01-1.249 1.241 53.587 53.587 0 00-11.826-3.726 71 71 0 00-13.857-1.328 71 71 0 00-13.857 1.328A53.593 53.593 0 001.81 52.415a3.008 3.008 0 01-1.461-1.191c6.232-3.266 16.05-5.374 27.1-5.374 10.985 0 20.755 2.084 26.992 5.319" fill="#a96c25"/></svg>