<svg width="174" height="38" viewBox="0 0 174 38" fill="none" xmlns="http://www.w3.org/2000/svg">
<path fill-rule="evenodd" clip-rule="evenodd" d="M33.2227 0.269531H11.0743L0 18.9986L11.0743 37.7276H33.2227L44.2972 18.9986L33.2227 0.269531ZM27.528 9.90077H16.7691L11.3896 18.9986L16.7691 28.0966H27.528L32.9074 18.9986L27.528 9.90077Z" fill="#0078FB"/>
<path d="M18.9191 13.5352H25.3392L28.5494 18.9641L25.3392 24.3931H18.9191L15.709 18.9641L18.9191 13.5352Z" fill="#737373"/>
<path d="M25.3401 24.3938L22.1713 18.9648L18.9199 24.3938H25.3401Z" fill="#464646"/>
<path d="M25.3401 13.5352H18.9199L22.1713 18.9641L25.3401 13.5352Z" fill="#C7C7C7"/>
<path d="M25.3392 13.5352L22.1704 18.9641H28.566L25.3392 13.5352ZM22.1704 18.9641L18.9191 13.5352L15.709 18.9641H22.1704Z" fill="#989898"/>
<path d="M33.2221 37.7291L44.2966 19H32.9068L27.5273 28.098L33.2221 37.7291Z" fill="#0058FB"/>
<path d="M33.2221 37.7287L38.917 28.0977H27.5273L33.2221 37.7287Z" fill="#0078FB"/>
<path d="M38.9401 9.90234H27.5273L32.9068 19.0002L38.9401 9.90234Z" fill="#4CBAFB"/>
<path d="M38.9396 9.91406L32.9062 18.9987H44.296L38.9396 9.91406Z" fill="#9DDAFB"/>
<path d="M22.1484 37.7287L27.5279 28.0977L33.2226 37.7287H22.1484Z" fill="#0069E4"/>
<path d="M0 19H11.3896L5.37945 28.098H16.7691L22.3128 37.7291H11.0743L5.37945 28.098L0 19Z" fill="#0101D7"/>
<path fill-rule="evenodd" clip-rule="evenodd" d="M11.3896 19.0002L5.40054 9.90234L0 19.0002H11.3896L16.7691 28.0982H5.40054L11.3896 19.0002Z" fill="#0035FB"/>
<path d="M27.5284 9.90077L22.3132 0.269531L16.7695 9.90077H27.5284Z" fill="#0027FB"/>
<path d="M33.2221 0.269531L27.5273 9.90077H38.9401L33.2221 0.269531Z" fill="#37A0FB"/>
<path d="M112.06 19.8008H113.126L113.659 20.7021L113.126 21.6035H112.06L111.527 20.7021L112.06 19.8008Z" fill="#0101D7"/>
<path d="M58.127 24.5658V13.5308H59.5596V24.5658H58.127ZM72.7195 15.8466C72.4542 15.5565 72.0455 15.2923 71.4936 15.054C70.942 14.8156 70.3264 14.6965 69.6473 14.6965C68.7771 14.6965 68.1352 14.8571 67.7212 15.1783C67.3075 15.4995 67.1005 15.9399 67.1005 16.4994C67.1005 16.8931 67.2065 17.204 67.4189 17.4319C67.6312 17.6599 67.9547 17.8464 68.3899 17.9914C68.8354 18.1365 69.398 18.2867 70.0771 18.4422C70.8622 18.6079 71.5416 18.81 72.1146 19.0483C72.6877 19.2866 73.1279 19.6078 73.4356 20.0119C73.7435 20.4057 73.8972 20.9341 73.8972 21.5972C73.8972 22.3018 73.7167 22.8821 73.356 23.3379C72.9953 23.7939 72.5018 24.1306 71.8758 24.3482C71.2604 24.5658 70.5653 24.6746 69.7906 24.6746C68.0292 24.6746 66.4956 24.1565 65.1905 23.1204L65.8749 21.9392C66.1084 22.1671 66.4214 22.3951 66.814 22.623C67.2173 22.851 67.6735 23.0427 68.1829 23.1981C68.7029 23.3431 69.2494 23.4157 69.8225 23.4157C70.629 23.4157 71.2551 23.2758 71.7006 22.996C72.1462 22.7059 72.3693 22.2863 72.3693 21.7371C72.3693 21.3227 72.2418 20.9911 71.9872 20.7424C71.7432 20.4937 71.3769 20.2865 70.889 20.1207C70.4009 19.9549 69.8064 19.7892 69.1062 19.6234C68.3422 19.4369 67.7001 19.2348 67.18 19.0172C66.6603 18.7893 66.2674 18.494 66.0024 18.1313C65.7477 17.7687 65.6202 17.2972 65.6202 16.717C65.6202 16.0124 65.7954 15.4166 66.1456 14.9296C66.4956 14.4426 66.9784 14.0748 67.594 13.8261C68.2094 13.5775 68.9045 13.4531 69.6792 13.4531C70.4327 13.4531 71.1172 13.5671 71.7325 13.795C72.3586 14.023 72.9105 14.3287 73.3879 14.712L72.7195 15.8466ZM84.1858 24.6435C83.3899 24.6435 82.6683 24.4881 82.0211 24.1772C81.3739 23.8664 80.8115 23.4467 80.3338 22.9183C79.8668 22.3795 79.5061 21.7786 79.2515 21.1154C78.9968 20.4419 78.8696 19.7529 78.8696 19.0483C78.8696 18.3126 79.0022 17.6132 79.2675 16.9501C79.5433 16.2766 79.9201 15.6808 80.3975 15.1628C80.8857 14.6343 81.4534 14.2199 82.1006 13.9194C82.7478 13.6085 83.4537 13.4531 84.2176 13.4531C85.0138 13.4531 85.7351 13.6137 86.3826 13.9349C87.0299 14.2561 87.5868 14.6861 88.0538 15.2249C88.5208 15.7637 88.8815 16.3647 89.1362 17.0278C89.3908 17.691 89.5183 18.3696 89.5183 19.0639C89.5183 19.7995 89.3855 20.5041 89.1204 21.1776C88.855 21.8407 88.4782 22.4365 87.9901 22.9649C87.5126 23.483 86.95 23.8923 86.3028 24.1928C85.6556 24.4933 84.95 24.6435 84.1858 24.6435ZM80.318 19.0483C80.318 19.6078 80.408 20.1518 80.5885 20.6802C80.7797 21.1983 81.0448 21.6594 81.3846 22.0635C81.7241 22.4676 82.1325 22.7888 82.6102 23.0271C83.0876 23.2654 83.6181 23.3846 84.2019 23.3846C84.8068 23.3846 85.3479 23.2602 85.8254 23.0116C86.3028 22.7629 86.7061 22.4313 87.0352 22.0169C87.3747 21.6024 87.6294 21.1362 87.7992 20.6181C87.9794 20.1 88.0699 19.5767 88.0699 19.0483C88.0699 18.4888 87.9743 17.95 87.7834 17.4319C87.6029 16.9139 87.3375 16.4528 86.9873 16.0487C86.6477 15.6342 86.2394 15.313 85.7617 15.085C85.2946 14.8467 84.7749 14.7276 84.2019 14.7276C83.5969 14.7276 83.0558 14.8519 82.5783 15.1006C82.1006 15.3389 81.6923 15.6653 81.3527 16.0798C81.0236 16.4942 80.769 16.9605 80.5885 17.4785C80.408 17.9863 80.318 18.5095 80.318 19.0483ZM95.2118 13.5308L98.9524 22.8095L102.677 13.5308H104.189L99.6049 24.5658H98.2998L93.6997 13.5308H95.2118ZM112.054 13.5308H113.263L117.879 24.5658H116.251L115.014 21.333L112.658 15.1472L108.95 24.5658H107.422L112.054 13.5308ZM123.208 24.5658V13.5308H124.64V23.3224H130.944V24.5658H123.208ZM143.996 23.3224V24.5658H136.323V13.5308H143.852V14.7742H137.756V18.3489H143.056V19.5146H137.756V23.3224H143.996ZM151.214 16.1108V24.5658H149.781V13.5308H150.991L157.899 22.1568V13.5464H159.332V24.5658H158.026L151.214 16.1108ZM174 14.7742H170.1V24.5658H168.668V14.7742H164.768V13.5308H174V14.7742Z" fill="black"/>
</svg>
