<svg width="108" height="48" viewBox="0 0 108 48" fill="none" xmlns="http://www.w3.org/2000/svg">
<path d="M68.9943 15.4551C68.823 15.5493 68.6516 15.5888 68.4984 15.5888C67.8903 15.5888 67.4505 15.0207 67.4505 14.4738C67.4505 14.1153 67.6219 13.7567 68.0602 13.5501L71.1068 12.1161C71.26 12.034 71.4313 11.9945 71.6042 12.0006C72.2123 12.0006 72.6521 12.5688 72.6521 13.1157C72.6521 13.298 72.6066 13.4803 72.505 13.6413C72.4079 13.7993 72.2578 13.939 72.0425 14.0393L68.9943 15.4551Z" fill="#141A1F"/>
<path d="M23.4601 15.4551C23.31 15.5402 23.1402 15.5858 22.9673 15.5888C22.6503 15.5888 22.3789 15.4369 22.1923 15.2121C22.021 15.0024 21.9194 14.7351 21.9194 14.4738C21.9194 14.1153 22.0907 13.7567 22.529 13.5501L25.5772 12.1161C25.6803 12.0583 25.7849 12.028 25.885 12.0128C25.9487 12.0036 26.0109 12.0006 26.07 12.0006C26.6812 12.0006 27.1194 12.5688 27.1194 13.1157C27.1194 13.4742 26.9465 13.8327 26.5098 14.0393L23.4601 15.4551Z" fill="#141A1F"/>
<path d="M85.2996 18.0802C85.4922 17.2386 86.1519 16.8831 86.8116 16.8831C87.1134 16.8831 87.4182 16.9652 87.6805 17.1171C88.1142 17.3693 88.4342 17.8128 88.4342 18.4083C88.4342 18.5998 88.4054 18.7365 88.3781 18.8155L84.5035 34.7482C84.3928 35.1918 84.1319 35.5443 83.7437 35.76C83.4647 35.9149 83.1189 36 82.7155 36C81.7556 36 81.1232 35.5108 80.9306 34.7482L77.0545 18.8155L77.0287 18.6423C77.0135 18.539 76.9999 18.46 76.9999 18.4083C76.9999 17.4543 77.7991 16.8831 78.6498 16.8831C79.2807 16.8831 79.9434 17.2386 80.1329 18.0802L82.7155 28.9755L85.2996 18.0802Z" fill="#141A1F"/>
<path d="M100.994 32.7338H106.408C107.48 32.7338 108 33.5208 108 34.3138C108 35.0733 107.478 35.8663 106.408 35.8663H99.3985C98.5462 35.8663 97.8046 35.128 97.8046 34.2864V18.463C97.8046 17.3996 98.6008 16.8831 99.3985 16.8831C100.195 16.8831 100.994 17.3996 100.994 18.463V32.7338Z" fill="#141A1F"/>
<path fill-rule="evenodd" clip-rule="evenodd" d="M69.0595 16.8831H69.3052C72.3852 16.8831 74.8025 19.1953 74.8025 22.2214V30.6648C74.8025 33.7426 72.3852 36 69.3052 36H69.0595C66.0645 36 63.5607 33.7122 63.5607 30.6891V22.2214C63.5607 19.1953 66.0645 16.8831 69.0595 16.8831ZM69.3052 32.8949C70.5988 32.8949 71.6148 31.9682 71.6148 30.6891V22.2214C71.6148 20.9423 70.5988 20.0126 69.3052 20.0126H69.0595C67.7675 20.0126 66.7499 20.9423 66.7499 22.2214V30.6648C66.7499 31.6613 67.3656 32.4574 68.2482 32.7612C68.4999 32.8493 68.7729 32.8949 69.0595 32.8949H69.3052Z" fill="#141A1F"/>
<path fill-rule="evenodd" clip-rule="evenodd" d="M23.5496 16.8831C24.2381 16.8831 24.8674 17.0199 25.3102 18.2169L30.3071 33.9856C30.3647 34.174 30.392 34.3381 30.392 34.5021C30.392 34.9093 30.2449 35.2435 30.0099 35.4926C29.699 35.8207 29.2304 36 28.7436 36C28.1127 36 27.5092 35.6992 27.2878 34.9093L26.2717 31.6158H20.829L19.813 34.9093C19.6173 35.5351 19.1942 35.8572 18.7135 35.9605C18.5892 35.9878 18.4603 36 18.3298 36C17.4776 36 16.6799 35.4531 16.6799 34.5021C16.6799 34.3107 16.6799 34.174 16.7603 33.9826L21.7905 18.2169C22.2045 16.9925 22.8626 16.8831 23.5496 16.8831ZM23.5496 22.7379L21.8193 28.4833H25.2814L23.5496 22.7379Z" fill="#141A1F"/>
<path d="M12.2836 16.8831H12.693C13.5468 16.8831 14.2869 17.6214 14.2869 18.4661V34.4474C14.2869 35.5108 13.4937 36 12.693 36C11.8999 36 11.1007 35.5108 11.1007 34.4474V24.4819L8.76532 29.8201C8.35435 30.7164 7.66738 30.8805 7.14419 30.8805C6.621 30.8805 5.93403 30.7164 5.52155 29.8201L3.18615 24.4819V34.4474C3.18615 35.5108 2.38847 36 1.59383 36C0.793125 36 0 35.5108 0 34.4474V18.463C0 17.6184 0.740048 16.8831 1.59232 16.8831H2.00329C2.65234 16.8831 3.04512 17.1383 3.33022 17.5151C3.49096 17.7278 3.61683 17.9799 3.73512 18.2443L7.14268 25.8704L10.5533 18.2443C10.8535 17.5121 11.266 16.8831 12.2836 16.8831Z" fill="#141A1F"/>
<path d="M35.3403 21.7049V22.109C35.3388 22.9475 36.5141 23.5947 37.9639 24.3938C40.2962 25.6759 43.3368 27.35 43.3368 30.8258C43.3368 33.9583 40.9195 36 37.7318 36H37.4831C34.5154 36 31.9601 34.013 31.9601 30.5827C31.9601 29.9204 32.2679 29.4707 32.691 29.2246C32.9488 29.0758 33.2506 29.0028 33.5524 29.0028C34.3501 29.0028 35.1477 29.5163 35.1477 30.5827C35.1477 32.0806 36.0819 32.8949 37.4831 32.8949H37.7318C39.1331 32.8949 40.1491 32.2173 40.1491 30.8258C40.1491 29.2854 38.5113 28.3739 36.7188 27.3774C34.5487 26.1742 32.1511 24.8404 32.1511 22.112V21.5408C32.1511 18.5998 35.0947 16.8831 37.4831 16.8831H37.7318C39.7366 16.8831 41.5898 17.7582 42.4982 19.1983C42.8727 19.7908 43.0881 20.4774 43.0881 21.24C43.0881 22.4523 41.9446 22.9445 41.0348 22.7166C40.4312 22.5678 39.9292 22.1029 39.9292 21.3221C39.9292 20.9666 39.723 20.6476 39.3605 20.4136C38.9738 20.1675 38.4112 20.0156 37.7318 20.0156H37.4831C36.276 20.0156 35.3403 20.6415 35.3403 21.7049Z" fill="#141A1F"/>
<path d="M58.3956 16.8831H58.8096C59.6588 16.8831 60.4019 17.6214 60.4019 18.4661V34.4474C60.4019 34.9731 60.2062 35.3589 59.912 35.6141C59.6133 35.8754 59.2114 36 58.8096 36C58.0119 36 57.2142 35.5108 57.2142 34.4474V24.4819L54.8773 29.8201C54.4678 30.7164 53.7809 30.8805 53.2592 30.8805C52.7375 30.8805 52.0475 30.7164 51.635 29.8201L49.2996 24.4819V34.4474C49.2996 35.5108 48.502 36 47.7073 36C46.9112 36 46.1135 35.5108 46.1135 34.4474V18.463C46.1135 17.6184 46.8535 16.8831 47.7073 16.8831H48.1198C48.7825 16.8831 49.1768 17.1505 49.4619 17.5424C49.6135 17.749 49.7349 17.9921 49.8486 18.2443L53.2592 25.8673L56.6652 18.2443C56.967 17.5121 57.3765 16.8831 58.3956 16.8831Z" fill="#141A1F"/>
<path d="M90.4314 33.8945C90.4314 32.8007 91.5324 32.2234 92.5409 32.2234C93.751 32.2234 94.6761 32.9131 94.6761 33.8945V34.3502C94.6761 35.4896 93.563 35.997 92.5409 35.997C91.5658 35.997 90.4314 35.4835 90.4314 34.3502V33.8945Z" fill="#141A1F"/>
<path d="M90.4314 18.8033C90.4314 17.5424 91.5324 16.8831 92.5409 16.8831C93.751 16.8831 94.6761 17.6731 94.6761 18.8033V28.3982C94.6761 29.7077 93.563 30.2941 92.5409 30.2941C91.5658 30.2941 90.4314 29.6986 90.4314 28.3982V18.8033Z" fill="#141A1F"/>
</svg>
