<svg width="193" height="50" viewBox="0 0 193 50" fill="none" xmlns="http://www.w3.org/2000/svg">
<path d="M32.7277 17.9222C32.5462 17.3543 32.1106 16.8929 31.5662 16.609L20.4948 11.4275C20.2044 11.2855 19.8777 11.25 19.5873 11.25C19.2969 11.25 18.9703 11.25 18.6799 11.321L7.60853 16.538C7.06404 16.7865 6.66474 17.2478 6.51955 17.8512L3.79709 29.5275C3.68819 30.1308 3.83339 30.7341 4.19638 31.231L11.8556 40.4939C12.2912 40.9198 12.9082 41.2038 13.5253 41.2392H25.7219C26.3753 41.3102 26.9924 41.0263 27.3917 40.4939L35.0509 31.231C35.4139 30.7341 35.5591 30.1308 35.4865 29.5275L32.7277 17.9222Z" fill="#141A1F" stroke="#141A1F" stroke-width="6.40823" stroke-miterlimit="10"/>
<path d="M32.7277 17.9222C32.5462 17.3543 32.1106 16.8929 31.5662 16.609L20.4948 11.4275C20.2044 11.2855 19.8777 11.25 19.5873 11.25C19.2969 11.25 18.9703 11.25 18.6799 11.321L7.60853 16.538C7.06404 16.7865 6.66474 17.2478 6.51955 17.8512L3.79709 29.5275C3.68819 30.1308 3.83339 30.7341 4.19638 31.231L11.8556 40.4939C12.2912 40.9198 12.9082 41.2038 13.5253 41.2392H25.7219C26.3753 41.3102 26.9924 41.0263 27.3917 40.4939L35.0509 31.231C35.4139 30.7341 35.5591 30.1308 35.4865 29.5275L32.7277 17.9222Z" fill="#141A1F"/>
<path d="M31.0204 29.0665C30.9841 29.0665 30.9478 29.0665 30.9478 29.031C30.9478 28.9955 30.8752 28.9955 30.8026 28.9955C30.6574 28.96 30.5122 28.96 30.367 28.96C30.2944 28.96 30.2218 28.96 30.1492 28.9245H30.1129C29.7136 28.889 29.278 28.818 28.8787 28.7116C28.7698 28.6761 28.6609 28.5696 28.6246 28.4631C28.6609 28.4631 28.6246 28.4631 28.6246 28.4631L28.3342 28.3921C28.4794 27.3629 28.4068 26.2982 28.189 25.269C27.9349 24.2398 27.4993 23.2461 26.9186 22.3588L27.1364 22.1459V22.1104C27.1364 22.0039 27.1726 21.8619 27.2452 21.791C27.5719 21.507 27.8986 21.2941 28.2616 21.0812C28.3342 21.0457 28.4068 21.0102 28.4794 20.9747C28.6246 20.9037 28.7335 20.8327 28.8787 20.7617C28.915 20.7263 28.9513 20.7263 28.9876 20.6908C29.0239 20.6553 28.9876 20.6553 28.9876 20.6198C29.3143 20.3713 29.3869 19.9455 29.1328 19.6261C29.0239 19.4841 28.8061 19.3776 28.6246 19.3776C28.4431 19.3776 28.2616 19.4486 28.1164 19.5551L28.0801 19.5906C28.0438 19.6261 28.0075 19.6615 27.9712 19.6615C27.8623 19.768 27.7534 19.8745 27.6808 19.981C27.6445 20.0519 27.5719 20.0874 27.5356 20.1229C27.2815 20.4068 26.9549 20.6908 26.6282 20.9037C26.5556 20.9392 26.483 20.9747 26.4104 20.9747C26.3741 20.9747 26.3015 20.9747 26.2652 20.9392H26.2289L25.9385 21.1166C25.6481 20.8327 25.3214 20.5488 25.031 20.2649C23.6879 19.2357 22.0181 18.5968 20.3121 18.4194L20.2758 18.1355V18.171C20.1669 18.1 20.1306 17.9935 20.0943 17.887C20.0943 17.4966 20.0943 17.1062 20.1669 16.6804V16.6449C20.1669 16.5739 20.2032 16.5029 20.2032 16.4319C20.2395 16.29 20.2395 16.148 20.2758 16.0061V15.7931C20.3121 15.4382 20.0217 15.0833 19.6587 15.0478C19.4409 15.0123 19.2231 15.1188 19.0416 15.2962C18.8964 15.4382 18.8238 15.6157 18.8238 15.7931V15.9706C18.8238 16.1125 18.8601 16.2545 18.8964 16.3964C18.9327 16.4674 18.9327 16.5384 18.9327 16.6094V16.6449C19.0053 17.0353 19.0053 17.4257 19.0053 17.8515C18.969 17.958 18.9327 18.0645 18.8238 18.1355V18.2064L18.7875 18.4904C18.3882 18.5259 17.9889 18.5968 17.5533 18.6678C15.8472 19.0227 14.2864 19.91 13.0885 21.1521L12.8707 21.0102H12.8344C12.7981 21.0102 12.7618 21.0457 12.6892 21.0457C12.6166 21.0457 12.544 21.0102 12.4714 20.9747C12.1447 20.7263 11.818 20.4423 11.5639 20.1584C11.5276 20.0874 11.455 20.0519 11.4187 20.0164C11.3098 19.91 11.2372 19.8035 11.1283 19.697C11.092 19.6615 11.0557 19.6615 11.0194 19.6261C10.9831 19.5906 10.9831 19.5906 10.9831 19.5906C10.8379 19.4841 10.6564 19.4131 10.4749 19.4131C10.2571 19.4131 10.0756 19.4841 9.96672 19.6615C9.74892 19.981 9.82152 20.4068 10.1119 20.6553C10.1482 20.6553 10.1482 20.6908 10.1482 20.6908C10.1482 20.6908 10.2208 20.7617 10.2571 20.7617C10.366 20.8327 10.5112 20.9037 10.6564 20.9747C10.729 21.0102 10.8016 21.0457 10.8742 21.0812C11.2372 21.2941 11.6002 21.507 11.8906 21.791C11.9632 21.8619 12.0358 22.0039 11.9995 22.1104V22.0749L12.2173 22.2878C12.181 22.3588 12.1447 22.3943 12.1084 22.4653C10.9831 24.2043 10.5112 26.2627 10.8379 28.2857L10.5475 28.3567C10.5475 28.3921 10.5112 28.3921 10.5112 28.3921C10.4749 28.4986 10.366 28.5696 10.2571 28.6406C9.85782 28.747 9.45853 28.818 9.02293 28.8535C8.95033 28.8535 8.87773 28.8535 8.80514 28.889C8.65994 28.889 8.51474 28.9245 8.36954 28.9245C8.33324 28.9245 8.29694 28.96 8.22434 28.96C8.18805 28.96 8.18805 28.96 8.15175 28.9955C7.75245 29.0665 7.49836 29.4214 7.57095 29.8118C7.64355 30.1312 7.97025 30.3441 8.29694 30.3086C8.36954 30.3086 8.40584 30.3086 8.47844 30.2731C8.51474 30.2731 8.51474 30.2731 8.51474 30.2376C8.51474 30.2021 8.62364 30.2376 8.65994 30.2376C8.80514 30.2021 8.95033 30.1312 9.05923 30.0957C9.13183 30.0602 9.20443 30.0247 9.27703 30.0247H9.31333C9.71262 29.8827 10.0756 29.7763 10.5112 29.7053H10.5475C10.6564 29.7053 10.7653 29.7408 10.8379 29.8118C10.8742 29.8118 10.8742 29.8472 10.8742 29.8472L11.2009 29.8118C11.7454 31.4443 12.7618 32.8994 14.1775 33.9641C14.5041 34.2125 14.7945 34.4255 15.1575 34.6029L14.976 34.8514C14.976 34.8869 15.0123 34.8869 15.0123 34.8869C15.0849 34.9933 15.0849 35.1353 15.0486 35.2418C14.9034 35.5967 14.6856 35.9516 14.4678 36.271V36.3065C14.4315 36.3774 14.3952 36.4129 14.3226 36.4839C14.2501 36.5549 14.1775 36.6969 14.0686 36.8388C14.0323 36.8743 14.0323 36.9098 13.996 36.9453C13.996 36.9453 13.996 36.9808 13.9597 36.9808C13.7782 37.3357 13.9234 37.7616 14.2501 37.939C14.3226 37.9745 14.4315 38.01 14.5041 38.01C14.7945 38.01 15.0486 37.8325 15.1938 37.5841C15.1938 37.5841 15.1938 37.5486 15.2301 37.5486C15.2301 37.5131 15.2664 37.4776 15.3027 37.4422C15.339 37.3002 15.4116 37.1937 15.4479 37.0518L15.5205 36.8388C15.6294 36.4484 15.8109 36.0935 15.9924 35.7386C16.065 35.6321 16.1739 35.5612 16.2828 35.5257C16.3191 35.5257 16.3191 35.5257 16.3191 35.4902L16.4643 35.2063C17.4807 35.5967 18.5334 35.7741 19.6224 35.7741C20.2758 35.7741 20.9291 35.7031 21.5825 35.5257C21.9818 35.4547 22.3811 35.3127 22.7441 35.2063L22.8893 35.4547C22.9256 35.4547 22.9256 35.4547 22.9256 35.4902C23.0345 35.5257 23.1434 35.5967 23.216 35.7031C23.3975 36.058 23.579 36.4129 23.6879 36.8033V36.8388L23.7605 37.0518C23.7968 37.1937 23.8331 37.3357 23.9057 37.4422C23.942 37.4776 23.942 37.5131 23.9783 37.5486C23.9783 37.5486 23.9783 37.5841 24.0146 37.5841C24.1598 37.8325 24.4139 38.01 24.7043 38.01C24.8132 38.01 24.8858 37.9745 24.9947 37.939C25.1399 37.868 25.2851 37.7261 25.3214 37.5486C25.3577 37.3712 25.3577 37.1937 25.2851 37.0163C25.2851 36.9808 25.2488 36.9808 25.2488 36.9808C25.2488 36.9453 25.2125 36.9098 25.1762 36.8743C25.1036 36.7323 25.031 36.6259 24.9221 36.5194C24.8858 36.4484 24.8495 36.4129 24.7769 36.342V36.271C24.5228 35.9516 24.3413 35.5967 24.1961 35.2418C24.1598 35.1353 24.1598 34.9933 24.2324 34.8869C24.2324 34.8514 24.2687 34.8514 24.2687 34.8514L24.1598 34.5674C26.0111 33.4672 27.4267 31.7637 28.0801 29.7408L28.3705 29.7763C28.4068 29.7763 28.4068 29.7408 28.4068 29.7408C28.4794 29.6698 28.5883 29.6343 28.6972 29.6343H28.7335C29.1328 29.7053 29.5321 29.8118 29.8951 29.9537H29.9314C30.004 29.9892 30.0766 30.0247 30.1492 30.0247C30.2944 30.0957 30.4033 30.1667 30.5485 30.2021C30.5848 30.2021 30.6211 30.2376 30.6937 30.2376C30.73 30.2376 30.73 30.2376 30.7663 30.2731C30.8389 30.3086 30.8752 30.3086 30.9478 30.3086C31.2745 30.3086 31.5649 30.0957 31.6738 29.8118C31.6375 29.4214 31.3471 29.1374 31.0204 29.0665ZM20.5299 27.9663L19.5498 28.4276L18.5697 27.9663L18.3156 26.937L19.0053 26.0853H20.0943L20.7839 26.937L20.5299 27.9663ZM26.4467 25.6594C26.6282 26.4047 26.6645 27.15 26.5919 27.8953L23.1434 26.937C22.8167 26.8661 22.6352 26.5467 22.7078 26.2272C22.7441 26.1208 22.7804 26.0498 22.853 25.9788L25.5755 23.5655C25.9748 24.2043 26.2652 24.9141 26.4467 25.6594ZM24.4865 22.2523L21.5099 24.3108C21.2558 24.4527 20.8928 24.4172 20.7114 24.1688C20.6388 24.0978 20.6025 24.0268 20.6025 23.9204L20.3847 20.3359C21.9818 20.5133 23.3975 21.1876 24.4865 22.2523ZM17.9163 20.4423L18.6423 20.3004L18.4608 23.8494C18.4608 24.1688 18.1704 24.4172 17.8437 24.4172C17.7348 24.4172 17.6622 24.3817 17.5533 24.3463L14.5404 22.2523C15.4842 21.3651 16.6458 20.7263 17.9163 20.4423ZM13.4878 23.5655L16.1739 25.9078C16.428 26.1208 16.4643 26.4757 16.2465 26.7241C16.1739 26.8306 16.1013 26.8661 15.9561 26.9016L12.4351 27.8953C12.3262 26.4047 12.6892 24.8786 13.4878 23.5655ZM12.8707 29.5633L16.4643 28.96C16.7547 28.96 17.0451 29.1374 17.0814 29.4214C17.1177 29.5278 17.1177 29.6698 17.0451 29.7763L15.6657 33.0414C14.3952 32.2251 13.3789 30.9829 12.8707 29.5633ZM21.1106 33.9641C20.6025 34.0706 20.0943 34.1416 19.5498 34.1416C18.7875 34.1416 17.9889 33.9996 17.2629 33.7867L19.0416 30.628C19.2231 30.4151 19.5135 30.3441 19.7676 30.4861C19.8765 30.557 19.9491 30.628 20.058 30.7345L21.8003 33.8221C21.5825 33.8576 21.3647 33.8931 21.1106 33.9641ZM25.5392 30.8765C24.9947 31.7282 24.2324 32.4735 23.3612 33.0059L21.9455 29.6698C21.8729 29.3859 22.0181 29.1019 22.2722 28.9955C22.3811 28.96 22.49 28.9245 22.5989 28.9245L26.2289 29.5278C26.0474 30.0247 25.8296 30.4861 25.5392 30.8765Z" fill="white"/>
<path d="M49.3539 27.5343C49.7532 27.1084 50.1162 26.6825 50.5518 26.2566C50.9511 25.7953 51.3504 25.3694 51.7497 24.9435C52.149 24.4821 52.512 24.0917 52.8387 23.7013C53.1654 23.3109 53.4921 22.956 53.7462 22.6721H58.3925C57.4487 23.7013 56.5412 24.7305 55.67 25.6888C54.7626 26.647 53.8188 27.6407 52.7661 28.6345C53.3469 29.1668 53.8914 29.6992 54.3996 30.3025C54.9441 30.9413 55.4886 31.5802 56.033 32.29C56.5412 32.9643 57.0494 33.6741 57.485 34.3484C57.9206 35.0227 58.2836 35.6615 58.574 36.2294H54.0729C53.7825 35.768 53.4558 35.3066 53.0928 34.7743C52.7298 34.2419 52.3305 33.7096 51.9675 33.1417C51.5682 32.6094 51.1326 32.077 50.6607 31.5802C50.2614 31.1188 49.8258 30.6929 49.3539 30.338V36.2649H45.4336V16.8162L49.3539 16.2129V27.5343Z" fill="#141A1F"/>
<path d="M72.2238 35.6991C71.3889 35.912 70.5177 36.0895 69.6465 36.1959C68.5575 36.3734 67.4322 36.4444 66.3432 36.4444C65.3269 36.4799 64.3468 36.3024 63.403 35.983C62.677 35.6991 62.0599 35.2732 61.5517 34.7053C61.0798 34.102 60.7531 33.4277 60.5716 32.6824C60.3538 31.8661 60.2812 30.9789 60.2812 30.1271V22.6387H64.2016V29.7012C64.2016 30.9434 64.3831 31.8306 64.7098 32.363C65.0365 32.8953 65.6536 33.1793 66.561 33.1793C66.8514 33.1793 67.1418 33.1793 67.4685 33.1438C67.7952 33.1083 68.0493 33.1083 68.3034 33.0373V22.6387H72.2238V35.6991Z" fill="#141A1F"/>
<path d="M84.7817 29.3088C84.7817 26.8245 83.8379 25.6178 81.9867 25.6178C81.5874 25.6178 81.1881 25.6533 80.7888 25.7598C80.4621 25.8307 80.1354 25.9727 79.845 26.1502V33.1062C80.0265 33.1417 80.2806 33.1772 80.571 33.2127C80.8614 33.2482 81.1881 33.2482 81.5511 33.2482C82.4948 33.3192 83.4023 32.9288 83.9831 32.1835C84.5276 31.3317 84.818 30.338 84.7817 29.3088ZM88.7747 29.4507C88.7747 30.4445 88.6295 31.4382 88.2665 32.3964C87.9761 33.2482 87.5042 33.9935 86.8871 34.6323C86.2337 35.2711 85.4714 35.768 84.6365 36.0874C83.6564 36.4423 82.64 36.5843 81.5874 36.5843C81.1155 36.5843 80.6073 36.5488 80.0991 36.5133C79.5909 36.4778 79.0827 36.4068 78.5745 36.3713C78.1026 36.3004 77.6307 36.2294 77.1588 36.1229C76.6869 36.0519 76.2876 35.9455 75.9609 35.8035V16.8162L79.8813 16.2129V22.956C80.3169 22.7786 80.7888 22.6366 81.2607 22.5302C81.7689 22.4237 82.277 22.3882 82.7852 22.3882C83.6927 22.3882 84.5639 22.5302 85.3988 22.9205C86.1248 23.24 86.7782 23.7368 87.2864 24.3402C87.8309 25.0145 88.2302 25.7598 88.448 26.576C88.6658 27.4633 88.7747 28.457 88.7747 29.4507Z" fill="#141A1F"/>
<path d="M91.1328 29.5268C91.0965 28.4621 91.3143 27.3974 91.6773 26.4036C92.004 25.5519 92.5122 24.8066 93.1656 24.1323C93.7827 23.5289 94.4724 23.0676 95.271 22.7836C96.0696 22.4642 96.9045 22.3223 97.7393 22.3223C99.6995 22.3223 101.26 22.9256 102.386 24.0968C103.511 25.268 104.092 27.007 104.092 29.2429C104.092 29.4558 104.092 29.7042 104.055 29.9882C104.019 30.2721 104.019 30.485 104.019 30.698H95.1258C95.1984 31.4432 95.5977 32.1531 96.2511 32.5789C97.0496 33.0758 97.9934 33.3242 98.9372 33.2887C99.6269 33.2887 100.353 33.2178 101.043 33.1113C101.623 33.0048 102.204 32.8274 102.749 32.6144L103.293 35.7376C103.039 35.8795 102.749 35.9505 102.458 36.057C102.059 36.1634 101.66 36.2699 101.26 36.3054C100.825 36.3764 100.389 36.4474 99.881 36.5183C99.4091 36.5538 98.9009 36.5893 98.3927 36.5893C97.2675 36.6248 96.1785 36.4474 95.1258 36.057C94.2546 35.7376 93.4923 35.2407 92.8389 34.6019C92.2218 33.9631 91.7862 33.1823 91.4958 32.366C91.278 31.4078 91.1328 30.485 91.1328 29.5268ZM100.353 28.0717C100.353 27.7523 100.28 27.4329 100.171 27.1134C100.099 26.794 99.9173 26.5456 99.7358 26.2972C99.518 26.0487 99.2639 25.8358 98.9735 25.6938C98.6105 25.5164 98.2475 25.4454 97.8482 25.4454C97.449 25.4454 97.086 25.5164 96.723 25.6938C96.4326 25.8358 96.1422 26.0132 95.9244 26.2617C95.7066 26.5101 95.5251 26.794 95.4162 27.1134C95.3073 27.4329 95.2347 27.7523 95.1984 28.0717H100.353Z" fill="#141A1F"/>
<path d="M115.486 26.0512C115.123 25.9802 114.723 25.8737 114.251 25.8027C113.743 25.6963 113.235 25.6608 112.727 25.6608C112.436 25.6608 112.146 25.6963 111.819 25.7317C111.565 25.7672 111.311 25.8027 111.057 25.8737V36.2014H107.137V23.3539C107.935 23.07 108.77 22.857 109.605 22.6796C110.658 22.4312 111.747 22.3247 112.799 22.3602C113.054 22.3602 113.308 22.3957 113.562 22.3957C113.852 22.3957 114.143 22.4312 114.469 22.5021C114.76 22.5376 115.05 22.5731 115.377 22.6441C115.631 22.6796 115.885 22.7506 116.139 22.857L115.486 26.0512Z" fill="#141A1F"/>
<path d="M118.246 23.1017C119.081 22.8887 119.952 22.7113 120.823 22.5693C121.912 22.3919 123.038 22.3209 124.127 22.3209C125.107 22.2854 126.087 22.4628 127.031 22.7823C127.757 23.0307 128.41 23.4566 128.882 24.0244C129.354 24.5923 129.68 25.2666 129.862 25.9764C130.08 26.7927 130.152 27.6444 130.152 28.4962V36.1266H126.268V28.993C126.268 27.7509 126.087 26.8991 125.76 26.3668C125.433 25.8699 124.816 25.586 123.909 25.586C123.618 25.586 123.328 25.586 123.001 25.6215C122.675 25.6215 122.421 25.657 122.166 25.6925V36.1266H118.246V23.1017Z" fill="#141A1F"/>
<path d="M133.134 29.5268C133.098 28.4621 133.316 27.3974 133.679 26.4036C134.006 25.5519 134.514 24.8066 135.167 24.1323C135.784 23.5289 136.474 23.0676 137.273 22.7836C138.071 22.4642 138.906 22.3223 139.741 22.3223C141.701 22.3223 143.262 22.9256 144.387 24.0968C145.513 25.268 146.093 27.007 146.093 29.2783C146.093 29.4913 146.093 29.7397 146.057 30.0236C146.021 30.3076 146.021 30.5205 146.021 30.7334H137.127C137.2 31.4787 137.599 32.1885 138.253 32.6144C139.051 33.1113 139.995 33.3597 140.939 33.3242C141.628 33.3242 142.354 33.2532 143.044 33.1468C143.625 33.0403 144.206 32.8629 144.787 32.6144L145.331 35.7376C145.077 35.8795 144.787 35.9505 144.496 36.057C144.097 36.1634 143.698 36.2699 143.298 36.3054C142.863 36.3764 142.427 36.4474 141.919 36.5183C141.447 36.5538 140.939 36.5893 140.431 36.5893C139.305 36.6248 138.216 36.4474 137.164 36.057C136.292 35.7376 135.53 35.2407 134.877 34.6019C134.26 33.9631 133.824 33.1823 133.534 32.366C133.243 31.4078 133.098 30.4495 133.134 29.5268ZM142.318 28.0717C142.318 27.7523 142.246 27.4329 142.137 27.1134C142.064 26.794 141.883 26.5456 141.701 26.2972C141.483 26.0487 141.229 25.8358 140.939 25.6938C140.576 25.5164 140.213 25.4454 139.813 25.4454C139.414 25.4454 139.051 25.5164 138.688 25.6938C138.398 25.8358 138.144 26.0132 137.926 26.2617C137.708 26.5101 137.527 26.794 137.418 27.1134C137.309 27.4329 137.236 27.7523 137.2 28.0717H142.318Z" fill="#141A1F"/>
<path d="M148.993 19.2674L152.914 18.6641V22.639H157.633V25.8331H152.914V30.5888C152.877 31.2631 153.023 31.9374 153.349 32.5053C153.64 32.9666 154.221 33.2151 155.128 33.2151C155.564 33.2151 155.999 33.1796 156.399 33.1086C156.834 33.0376 157.233 32.9311 157.633 32.7892L158.177 35.7704C157.669 35.9833 157.125 36.1253 156.58 36.2672C155.89 36.4092 155.164 36.4802 154.438 36.4802C153.531 36.5156 152.623 36.3737 151.788 36.0543C151.135 35.8058 150.554 35.38 150.119 34.8831C149.683 34.3507 149.393 33.7119 149.211 33.0376C149.03 32.2568 148.957 31.4405 148.993 30.6598V19.2674Z" fill="#141A1F"/>
<path d="M159.629 29.5268C159.593 28.4621 159.81 27.3974 160.173 26.4036C160.5 25.5519 161.008 24.8066 161.662 24.1323C162.279 23.5289 162.968 23.0676 163.767 22.7836C164.566 22.4642 165.401 22.3223 166.235 22.3223C168.196 22.3223 169.756 22.9256 170.882 24.0968C172.007 25.268 172.588 27.007 172.588 29.2783C172.588 29.4913 172.588 29.7397 172.552 30.0236C172.552 30.3076 172.515 30.5205 172.515 30.7334H163.658C163.731 31.4787 164.13 32.1885 164.783 32.6144C165.582 33.1113 166.526 33.3597 167.47 33.3242C168.159 33.3242 168.885 33.2532 169.575 33.1468C170.156 33.0403 170.737 32.8629 171.281 32.6144L171.826 35.7376C171.571 35.8795 171.281 35.9505 170.991 36.057C170.591 36.1634 170.192 36.2699 169.793 36.3054C169.357 36.3764 168.922 36.4474 168.413 36.5183C167.941 36.5538 167.433 36.5893 166.925 36.5893C165.8 36.6248 164.711 36.4474 163.658 36.057C162.787 35.7376 162.025 35.2407 161.371 34.6019C160.754 33.9631 160.319 33.1823 160.028 32.366C159.774 31.4078 159.629 30.4495 159.629 29.5268ZM168.813 28.0717C168.813 27.7523 168.74 27.4329 168.631 27.1134C168.559 26.794 168.377 26.5456 168.196 26.2972C167.978 26.0487 167.724 25.8358 167.433 25.6938C167.07 25.5164 166.707 25.4454 166.308 25.4454C165.909 25.4454 165.546 25.5164 165.183 25.6938C164.892 25.8358 164.602 26.0132 164.384 26.2617C164.166 26.5101 163.985 26.794 163.876 27.1134C163.767 27.4329 163.694 27.7523 163.658 28.0717H168.813Z" fill="#141A1F"/>
<path d="M179.633 33.4307C180.141 33.4662 180.685 33.3952 181.157 33.2178C181.447 33.0758 181.629 32.7564 181.593 32.437C181.556 32.0821 181.339 31.7627 181.012 31.6562C180.467 31.3368 179.85 31.0529 179.233 30.8754C178.616 30.6625 178.072 30.414 177.563 30.1656C177.092 29.9527 176.692 29.6687 176.293 29.3138C175.93 28.9589 175.676 28.5685 175.494 28.1072C175.277 27.5748 175.204 27.007 175.204 26.4391C175.168 25.268 175.712 24.1323 176.656 23.4225C177.636 22.6772 178.943 22.3223 180.613 22.3223C181.411 22.3223 182.246 22.3932 183.045 22.5707C183.662 22.6772 184.279 22.8191 184.896 23.0321L184.206 26.0487C183.698 25.8713 183.226 25.7648 182.718 25.6229C182.137 25.4809 181.52 25.4454 180.939 25.4454C179.705 25.4454 179.088 25.7648 179.088 26.4391C179.088 26.5811 179.124 26.7231 179.161 26.865C179.233 27.007 179.342 27.1134 179.487 27.2199C179.633 27.3264 179.85 27.4329 180.104 27.5748C180.359 27.7168 180.722 27.8587 181.157 28.0007C181.883 28.2491 182.609 28.5685 183.262 28.9234C183.771 29.1719 184.206 29.4913 184.569 29.9172C184.896 30.2366 185.114 30.627 185.259 31.0883C185.404 31.5852 185.477 32.0821 185.477 32.5789C185.549 33.7856 184.969 34.9568 183.916 35.6311C182.899 36.3054 181.447 36.6603 179.56 36.6603C178.507 36.6958 177.491 36.5893 176.474 36.3409C175.894 36.1989 175.349 36.0215 174.805 35.844L175.458 32.7209C176.111 32.9693 176.801 33.1823 177.491 33.3242C178.217 33.3597 178.907 33.4307 179.633 33.4307Z" fill="#141A1F"/>
</svg>
