<svg width="163" height="40" viewBox="0 0 163 40" fill="none" xmlns="http://www.w3.org/2000/svg">
<g clip-path="url(#clip0)">
<path d="M55.1094 28.4251V26.8145H57.3743V13.9297H55.1094V12.3191H61.5903V13.9297H59.3269V26.8145H61.5919V28.4251H55.1094ZM65.1335 12.3191H71.7714C74.44 12.3191 76.077 13.9521 76.077 16.4798C76.077 18.8733 74.5297 19.7234 73.4533 19.9023V20.0365C74.6194 20.1037 76.6152 21.0879 76.6152 23.7722C76.6152 26.4342 74.8436 28.4251 72.4441 28.4251H65.1095L65.1335 12.3191ZM67.0621 19.276H71.5247C73.0496 19.276 73.9691 18.4707 73.9691 17.0391V16.2401C73.9691 14.8085 73.0496 14.0032 71.5247 14.0032H67.0637L67.0621 19.276ZM67.0621 26.7026H71.8611C73.5206 26.7026 74.5521 25.8302 74.5521 24.2196V23.4207C74.5521 21.8101 73.543 20.9377 71.8611 20.9377H67.0637L67.0621 26.7026ZM92.7839 14.8469H92.6718L91.3038 17.5535L87.4467 24.5775L83.6119 17.5535L82.244 14.8692H82.1319V28.4251H80.2097V12.3191H82.7454L87.365 20.9984H87.4547L92.0967 12.3191H94.6308V28.4251H92.7695L92.7839 14.8469ZM102.516 20.4839C102.516 15.0482 105.32 12.0283 109.67 12.0283C112.63 12.0283 114.536 13.2363 115.703 15.8087L112.659 17.3746C112.233 16.0324 111.381 15.1377 109.654 15.1377C107.591 15.1377 106.223 16.5246 106.223 19.0523V21.6471C106.223 24.1749 107.591 25.5618 109.654 25.5618C111.381 25.5618 112.39 24.488 112.861 23.1683L115.731 24.8236C114.52 27.2618 112.614 28.6711 109.654 28.6711C105.304 28.6935 102.5 25.9197 102.5 20.4839H102.516ZM121.421 28.4251C119.089 28.4251 118.012 27.2395 118.012 25.092V11.3508H121.443V25.7791H122.968V28.441L121.421 28.4251ZM124.269 22.3406C124.269 18.4483 126.399 16.0101 129.965 16.0101C133.531 16.0101 135.661 18.426 135.661 22.3406C135.661 26.2329 133.531 28.6935 129.965 28.6935C126.399 28.6935 124.269 26.2552 124.269 22.3406ZM132.095 23.5933V21.1326C132.095 19.6115 131.295 18.7391 129.965 18.7391C128.636 18.7391 127.835 19.6115 127.835 21.1326V23.5933C127.835 25.1144 128.636 25.9868 129.965 25.9868C131.295 25.9868 132.095 25.1144 132.095 23.5933ZM145.259 26.3894H145.147C144.721 27.6198 143.734 28.6935 141.738 28.6935C139.272 28.6935 137.948 26.971 137.948 23.9064V16.3009H141.38V23.6156C141.38 25.092 141.873 25.9197 143.106 25.9197C144.16 25.9197 145.259 25.3157 145.259 24.1749V16.3009H148.69V28.4251H145.259V26.3894ZM159.32 26.3894H159.208C158.887 27.7092 157.526 28.6935 155.956 28.6935C152.884 28.6935 151.292 26.4565 151.292 22.3406C151.292 18.2246 152.884 16.0101 155.956 16.0101C157.526 16.0101 158.871 16.9719 159.208 18.3141H159.32V11.3125H162.751V28.3803H159.32V26.3894ZM159.32 24.1525V20.5734C159.32 19.4549 158.378 18.8062 157.077 18.8062C155.777 18.8062 154.835 19.7905 154.835 21.3116V23.3983C154.835 24.9195 155.777 25.9037 157.077 25.9037C158.378 25.9037 159.32 25.2326 159.32 24.1365V24.1525Z" fill="black"/>
<path d="M1.35771 22.6536L-0.242188 22.6313C-0.219654 18.179 2.49583 15.1799 6.93498 14.4453L7.20539 16.0036C3.53238 16.6269 1.38024 18.9804 1.35771 22.6536Z" fill="#141A1F"/>
<path d="M10.4347 28.3486C4.82383 22.8055 4.82383 13.8118 10.4347 8.26867C16.0457 2.72555 25.1493 2.72555 30.7602 8.26867C31.1667 8.67036 31.5504 9.09398 31.9094 9.53758C32.1573 9.84925 32.3826 10.1609 32.608 10.4948L31.2785 11.363C31.0757 11.0736 30.8729 10.7842 30.6475 10.5171C30.3321 10.1164 29.9941 9.73794 29.6335 9.38175C24.4264 4.23751 16.5639 4.46195 11.5614 9.38175C6.58147 14.3016 6.58147 22.2935 11.5614 27.2355L10.4347 28.3486Z" fill="#141A1F"/>
<path d="M31.1027 31.8901H8.97452C3.83682 31.8455 -0.294702 27.6943 -0.249635 22.6187L1.35398 22.6515C1.33145 26.8367 4.73818 30.2872 8.97452 30.3318H31.0802C36.2629 30.3318 40.4542 26.1911 40.4767 21.0709C40.4767 18.8003 39.6205 16.5964 38.0882 14.8822L39.2824 13.8359C43.316 18.3105 42.9329 25.1671 38.4262 29.1519C36.3981 30.9106 33.8067 31.8901 31.1027 31.8901Z" fill="#141A1F"/>
<path d="M21.7073 20.9573L20.1074 20.9351C20.1525 14.9467 25.1099 10.1159 31.1715 10.1605C34.2586 10.1827 37.2191 11.5621 39.2922 13.8328L38.0886 14.8858C34.6409 11.079 28.6928 10.6725 24.8395 14.0785C22.8791 15.8594 21.7299 18.3527 21.7073 20.9573Z" fill="#141A1F"/>
</g>
<defs>
<clipPath id="clip0">
<rect width="163" height="40" fill="white"/>
</clipPath>
</defs>
</svg>
