<svg width="231" height="40" viewBox="0 0 231 40" fill="none" xmlns="http://www.w3.org/2000/svg">
<g clip-path="url(#clip0_1417_1666)">
<path d="M149.854 31.0334C147.957 31.0774 146.071 30.7349 144.312 30.027C142.552 29.3191 140.956 28.2605 139.619 26.9159C138.283 25.5714 137.236 23.9691 136.541 22.2069C135.846 20.4447 135.519 18.5596 135.578 16.6667C135.529 14.7861 135.863 12.9152 136.561 11.1675C137.258 9.41983 138.304 7.83188 139.635 6.50006C140.962 5.14581 142.554 4.07963 144.312 3.36837C146.071 2.65711 147.957 2.3161 149.854 2.36673C151.753 2.32001 153.639 2.69844 155.372 3.47426C157.106 4.25007 158.643 5.40357 159.872 6.85006L157.418 9.30006C156.517 8.16406 155.366 7.25108 154.054 6.63239C152.742 6.01369 151.305 5.70603 149.854 5.7334C148.44 5.69893 147.034 5.95316 145.722 6.4805C144.409 7.00783 143.219 7.79716 142.223 8.80006C141.206 9.83523 140.412 11.0671 139.89 12.4199C139.367 13.7727 139.127 15.218 139.185 16.6667C139.123 18.121 139.36 19.5726 139.883 20.9315C140.406 22.2904 141.202 23.5277 142.223 24.5667C143.217 25.5728 144.407 26.3643 145.719 26.8918C147.032 27.4194 148.439 27.6718 149.854 27.6334C151.459 27.6256 153.042 27.2593 154.486 26.5614C155.931 25.8635 157.201 24.8516 158.202 23.6001L160.774 26.1001C159.472 27.6532 157.833 28.89 155.982 29.7167C154.06 30.5971 151.968 31.0465 149.854 31.0334ZM167.168 2.9834V30.4334H163.629V2.9834H167.168ZM170.207 21.0334C170.169 19.7177 170.391 18.4074 170.861 17.1776C171.331 15.9478 172.039 14.8226 172.946 13.8667C173.843 12.9388 174.924 12.2076 176.12 11.7198C177.315 11.232 178.6 10.9982 179.891 11.0334C181.178 10.9967 182.458 11.2299 183.649 11.718C184.84 12.206 185.914 12.938 186.804 13.8667C187.719 14.817 188.435 15.9407 188.908 17.1717C189.381 18.4026 189.603 19.7157 189.559 21.0334C189.607 22.3517 189.388 23.6661 188.915 24.8977C188.441 26.1293 187.723 27.2526 186.804 28.2001C185.917 29.1321 184.843 29.8664 183.651 30.3547C182.46 30.843 181.179 31.0743 179.891 31.0334C178.599 31.0727 177.314 30.8408 176.117 30.3528C174.921 29.8647 173.84 29.1313 172.946 28.2001C172.039 27.2442 171.331 26.119 170.861 24.8892C170.391 23.6594 170.169 22.3491 170.207 21.0334ZM173.747 21.0334C173.666 22.8359 174.302 24.5974 175.517 25.9334C176.079 26.5287 176.757 27.0029 177.509 27.3271C178.261 27.6513 179.072 27.8185 179.891 27.8185C180.711 27.8185 181.522 27.6513 182.274 27.3271C183.026 27.0029 183.704 26.5287 184.266 25.9334C185.481 24.5974 186.117 22.8359 186.036 21.0334C186.114 19.2414 185.477 17.4916 184.266 16.1667C183.709 15.5626 183.033 15.0804 182.28 14.7506C181.527 14.4208 180.714 14.2504 179.891 14.2504C179.069 14.2504 178.256 14.4208 177.503 14.7506C176.75 15.0804 176.074 15.5626 175.517 16.1667C174.306 17.4916 173.669 19.2414 173.747 21.0334ZM209.094 30.4334H205.755V27.8167H205.588C204.991 28.7949 204.136 29.5906 203.117 30.1167C202.058 30.716 200.861 31.0317 199.644 31.0334C198.667 31.0965 197.689 30.9541 196.771 30.6153C195.854 30.2765 195.018 29.7489 194.317 29.0667C192.994 27.5046 192.33 25.4912 192.464 23.4501V11.6667H195.987V23.2334C195.913 23.8596 195.984 24.4943 196.193 25.0893C196.401 25.6844 196.743 26.2241 197.192 26.6675C197.641 27.1109 198.186 27.4463 198.784 27.6484C199.382 27.8504 200.019 27.9137 200.646 27.8334C201.322 27.8451 201.991 27.7008 202.602 27.4117C203.214 27.1226 203.75 26.6966 204.169 26.1667C205.121 25.0218 205.625 23.5711 205.588 22.0834V11.6667H209.127L209.094 30.4334ZM221.049 31.0334C219.847 31.0331 218.66 30.7739 217.568 30.2734C216.475 29.7729 215.504 29.0429 214.721 28.1334C212.967 26.1868 212.013 23.6514 212.049 21.0334C211.992 18.429 212.922 15.899 214.654 13.9501C215.432 13.0323 216.401 12.2956 217.494 11.7917C218.588 11.2878 219.778 11.029 220.982 11.0334C222.299 11.0111 223.601 11.3146 224.772 11.9167C225.845 12.4447 226.756 13.2505 227.41 14.2501H227.561L227.477 11.6667V2.9834H231V30.4334H227.661V27.8167H227.511C226.856 28.8163 225.945 29.6221 224.873 30.1501C223.692 30.7576 222.377 31.0612 221.049 31.0334ZM221.633 27.8167C222.439 27.8427 223.241 27.6869 223.978 27.3608C224.715 27.0347 225.369 26.5468 225.891 25.9334C227.059 24.5756 227.657 22.8204 227.561 21.0334C227.641 19.2587 227.045 17.5195 225.891 16.1667C225.371 15.5491 224.718 15.0562 223.981 14.7244C223.244 14.3927 222.442 14.2306 221.633 14.2501C220.826 14.2376 220.026 14.4029 219.29 14.7342C218.554 15.0655 217.901 15.5546 217.376 16.1667C216.222 17.5195 215.625 19.2587 215.706 21.0334C215.613 22.8098 216.212 24.5533 217.376 25.9001C217.901 26.5122 218.554 27.0013 219.29 27.3326C220.026 27.6639 220.826 27.8292 221.633 27.8167Z" fill="#5F6368"/>
<path d="M15.8452 31.0334C11.6905 31.0471 7.69762 29.4262 4.73175 26.5218C1.76588 23.6174 0.0658567 19.6635 0 15.5168C0.0658567 11.37 1.76588 7.41611 4.73175 4.51174C7.69762 1.60737 11.6905 -0.0135674 15.8452 0.000105729C17.825 -0.0328036 19.7914 0.329106 21.6292 1.06462C23.467 1.80014 25.1393 2.89446 26.5479 4.28344L23.5258 7.26677C21.4652 5.28624 18.7055 4.19635 15.8452 4.23344C14.3642 4.22891 12.8971 4.51841 11.5293 5.0851C10.1614 5.65178 8.92005 6.48433 7.87749 7.53432C6.83493 8.5843 6.01196 9.83075 5.45645 11.2012C4.90094 12.5716 4.62399 14.0385 4.64171 15.5168C4.62399 16.995 4.90094 18.462 5.45645 19.8324C6.01196 21.2028 6.83493 22.4492 7.87749 23.4992C8.92005 24.5492 10.1614 25.3818 11.5293 25.9484C12.8971 26.5151 14.3642 26.8046 15.8452 26.8001C17.3042 26.8599 18.7595 26.6134 20.117 26.0765C21.4745 25.5397 22.7041 24.7244 23.7261 23.6834C25.0885 22.2166 25.9075 20.3288 26.047 18.3334H15.8452V14.1168H30.2045C30.3611 14.9912 30.4338 15.8786 30.4215 16.7668C30.5346 20.4243 29.2034 23.9798 26.7149 26.6668C25.3143 28.119 23.6217 29.2589 21.7483 30.0116C19.8749 30.7642 17.8631 31.1124 15.8452 31.0334Z" fill="#4285F4"/>
<path d="M52.6282 21.0334C52.683 22.3666 52.4673 23.697 51.9941 24.9449C51.5208 26.1927 50.7997 27.3322 49.8741 28.2948C48.9485 29.2574 47.8375 30.0234 46.6079 30.5466C45.3783 31.0698 44.0554 31.3395 42.7187 31.3395C41.382 31.3395 40.0591 31.0698 38.8295 30.5466C37.5998 30.0234 36.4889 29.2574 35.5633 28.2948C34.6377 27.3322 33.9166 26.1927 33.4433 24.9449C32.97 23.697 32.7543 22.3666 32.8091 21.0334C32.7543 19.7003 32.97 18.3698 33.4433 17.122C33.9166 15.8741 34.6377 14.7347 35.5633 13.772C36.4889 12.8094 37.5998 12.0435 38.8295 11.5202C40.0591 10.997 41.382 10.7273 42.7187 10.7273C44.0554 10.7273 45.3783 10.997 46.6079 11.5202C47.8375 12.0435 48.9485 12.8094 49.8741 13.772C50.7997 14.7347 51.5208 15.8741 51.9941 17.122C52.4673 18.3698 52.683 19.7003 52.6282 21.0334ZM48.287 21.0334C48.3607 20.2592 48.2715 19.4781 48.0251 18.7403C47.7788 18.0025 47.3808 17.3242 46.8565 16.7489C46.3323 16.1735 45.6934 15.7139 44.9809 15.3993C44.2683 15.0848 43.4978 14.9223 42.7187 14.9223C41.9395 14.9223 41.169 15.0848 40.4565 15.3993C39.7439 15.7139 39.105 16.1735 38.5808 16.7489C38.0566 17.3242 37.6585 18.0025 37.4122 18.7403C37.1659 19.4781 37.0766 20.2592 37.1503 21.0334C37.0766 21.8076 37.1659 22.5887 37.4122 23.3265C37.6585 24.0643 38.0566 24.7426 38.5808 25.318C39.105 25.8933 39.7439 26.353 40.4565 26.6675C41.169 26.982 41.9395 27.1445 42.7187 27.1445C43.4978 27.1445 44.2683 26.982 44.9809 26.6675C45.6934 26.353 46.3323 25.8933 46.8565 25.318C47.3808 24.7426 47.7788 24.0643 48.0251 23.3265C48.2715 22.5887 48.3607 21.8076 48.287 21.0334Z" fill="#EA4335"/>
<path d="M74.8518 21.0334C74.9067 22.3666 74.691 23.697 74.2177 24.9449C73.7444 26.1927 73.0233 27.3322 72.0977 28.2948C71.1721 29.2574 70.0611 30.0234 68.8315 30.5466C67.6019 31.0698 66.279 31.3395 64.9423 31.3395C63.6056 31.3395 62.2827 31.0698 61.0531 30.5466C59.8235 30.0234 58.7125 29.2574 57.7869 28.2948C56.8613 27.3322 56.1402 26.1927 55.6669 24.9449C55.1936 23.697 54.9779 22.3666 55.0328 21.0334C54.9779 19.7003 55.1936 18.3698 55.6669 17.122C56.1402 15.8741 56.8613 14.7347 57.7869 13.772C58.7125 12.8094 59.8235 12.0435 61.0531 11.5202C62.2827 10.997 63.6056 10.7273 64.9423 10.7273C66.279 10.7273 67.6019 10.997 68.8315 11.5202C70.0611 12.0435 71.1721 12.8094 72.0977 13.772C73.0233 14.7347 73.7444 15.8741 74.2177 17.122C74.691 18.3698 74.9067 19.7003 74.8518 21.0334ZM70.5107 21.0334C70.5702 20.2662 70.4702 19.4949 70.2169 18.7681C69.9637 18.0413 69.5626 17.3745 69.0389 16.8098C68.5153 16.245 67.8803 15.7944 67.1739 15.4862C66.4675 15.1781 65.7049 15.019 64.934 15.019C64.163 15.019 63.4004 15.1781 62.694 15.4862C61.9876 15.7944 61.3526 16.245 60.829 16.8098C60.3053 17.3745 59.9042 18.0413 59.651 18.7681C59.3977 19.4949 59.2977 20.2662 59.3572 21.0334C59.2977 21.8007 59.3977 22.5719 59.651 23.2987C59.9042 24.0256 60.3053 24.6923 60.829 25.257C61.3526 25.8218 61.9876 26.2724 62.694 26.5806C63.4004 26.8888 64.163 27.0478 64.934 27.0478C65.7049 27.0478 66.4675 26.8888 67.1739 26.5806C67.8803 26.2724 68.5153 25.8218 69.0389 25.257C69.5626 24.6923 69.9637 24.0256 70.2169 23.2987C70.4702 22.5719 70.5702 21.8007 70.5107 21.0334Z" fill="#FBBC04"/>
<path d="M96.5079 11.6668V29.6001C96.5079 36.9668 92.1166 40.0001 86.9406 40.0001C85.0357 40.0106 83.1708 39.4551 81.5831 38.4045C79.9954 37.3539 78.7566 35.8555 78.0245 34.1001L81.8815 32.4334C82.2701 33.4553 82.9533 34.3394 83.8448 34.9742C84.7362 35.6089 85.796 35.9659 86.8905 36.0001C90.2299 36.0001 92.2669 33.9501 92.2669 30.1334V28.7001H92.1667C91.4988 29.4524 90.675 30.0507 89.7524 30.4536C88.8298 30.8565 87.8305 31.0544 86.8237 31.0334C84.1668 31.0334 81.6186 29.9799 79.7399 28.1045C77.8611 26.2291 76.8057 23.6856 76.8057 21.0334C76.8057 18.3813 77.8611 15.8377 79.7399 13.9624C81.6186 12.087 84.1668 11.0334 86.8237 11.0334C87.827 11.0149 88.8227 11.2105 89.7442 11.6072C90.6656 12.0038 91.4916 12.5924 92.1667 13.3334H92.317V11.6668H96.5079ZM92.6175 21.1001C92.6788 20.3445 92.5872 19.5842 92.348 18.8647C92.1089 18.1452 91.7271 17.481 91.2254 16.9119C90.7238 16.3427 90.1125 15.8801 89.428 15.5517C88.7435 15.2232 87.9998 15.0356 87.2412 15.0001C86.4706 15.0278 85.7133 15.2083 85.0133 15.5311C84.3133 15.8539 83.6847 16.3126 83.1641 16.8803C82.6435 17.4481 82.2413 18.1136 81.981 18.838C81.7206 19.5625 81.6074 20.3315 81.6477 21.1001C81.6119 21.8635 81.7289 22.6264 81.9919 23.3441C82.2549 24.0618 82.6586 24.7201 83.1794 25.2803C83.7002 25.8404 84.3276 26.2914 85.025 26.6067C85.7224 26.9221 86.4758 27.0954 87.2412 27.1168C87.9968 27.09 88.7391 26.9105 89.4233 26.5893C90.1075 26.268 90.7194 25.8117 91.2219 25.2477C91.7244 24.6838 92.1072 24.024 92.347 23.3083C92.5869 22.5925 92.6789 21.8357 92.6175 21.0834V21.1001Z" fill="#4285F4"/>
<path d="M104.238 1.06665V30.4333H99.8301V1.06665H104.238Z" fill="#34A853"/>
<path d="M121.603 24.3335L125.042 26.6668C124.124 28.0348 122.882 29.1552 121.425 29.9286C119.969 30.702 118.344 31.1044 116.694 31.1001C115.382 31.1189 114.079 30.8716 112.866 30.3734C111.652 29.8751 110.552 29.1362 109.633 28.2013C108.713 27.2665 107.993 26.1551 107.517 24.9345C107.04 23.7139 106.817 22.4095 106.86 21.1001C106.664 18.8492 107.305 16.6052 108.661 14.7958C110.017 12.9865 111.992 11.7383 114.21 11.2893C116.428 10.8402 118.735 11.2217 120.689 12.361C122.644 13.5003 124.11 15.3177 124.809 17.4668L125.259 18.6168L111.902 24.1335C112.318 25.0673 113.005 25.8554 113.874 26.396C114.743 26.9366 115.754 27.2051 116.778 27.1668C117.757 27.1446 118.715 26.8726 119.559 26.3767C120.404 25.8808 121.108 25.1774 121.603 24.3335ZM111.067 20.7335L120.05 17.0335C119.691 16.3697 119.146 15.8243 118.482 15.4634C117.818 15.1025 117.064 14.9416 116.31 15.0001C115.588 15.0322 114.88 15.2061 114.226 15.5117C113.572 15.8174 112.984 16.2488 112.497 16.7814C112.01 17.3139 111.633 17.9371 111.388 18.6152C111.143 19.2934 111.034 20.0132 111.067 20.7335Z" fill="#EA4335"/>
</g>
<defs>
<clipPath id="clip0_1417_1666">
<rect width="231" height="40" fill="white"/>
</clipPath>
</defs>
</svg>
