<svg width="108" height="40" viewBox="0 0 108 40" fill="none" xmlns="http://www.w3.org/2000/svg">
<path fill-rule="evenodd" clip-rule="evenodd" d="M28.2129 7.00001C28.6221 7.00107 29.0134 7.07718 29.3203 7.2167C29.5808 7.33615 29.9076 7.53699 30.0461 7.66383C30.1842 7.79173 30.4098 8.13316 30.5458 8.42384C30.6926 8.73461 30.7946 9.14791 30.7946 9.42803C30.7946 9.70286 30.6914 10.1267 30.55 10.4322C30.416 10.7229 30.143 11.0992 29.9446 11.2673C29.7464 11.4364 29.4174 11.6436 29.2148 11.7292C29.0113 11.8148 28.5609 11.8846 28.2129 11.8846C27.8648 11.8846 27.4134 11.8148 27.2109 11.7292C27.0074 11.6436 26.6794 11.4364 26.4811 11.2673C26.2828 11.0992 26.0097 10.7229 25.8757 10.4322C25.7333 10.1236 25.631 9.70497 25.6321 9.42803C25.6331 9.16588 25.7302 8.73778 25.8483 8.4767C25.9675 8.21455 26.1679 7.88792 26.2944 7.74945C26.422 7.61098 26.7627 7.38477 27.0527 7.24842C27.4261 7.07189 27.7657 6.99895 28.2129 7.00001ZM0 8.15958L15.3457 8.15218L15.5567 8.37839C15.7486 8.58451 15.7676 8.74941 15.7676 11.9121L10.0195 11.9649V26.9749H5.6953V11.9649H0V8.15958ZM23.915 12.7714C23.9878 12.7936 24.1175 12.8106 24.2051 12.8106C24.3401 12.8106 24.3633 13.1076 24.3633 16.8801L23.5459 16.8442C22.9194 16.8167 22.5925 16.859 22.1484 17.0229C21.8289 17.1402 21.331 17.4478 21.041 17.7046C20.751 17.9626 20.3956 18.4055 19.9863 19.2057L19.9336 26.9749H15.7148V13.2334L17.5869 13.2355C19.3799 13.2376 19.4695 13.2482 19.6994 13.4733C19.8313 13.6033 19.9378 13.7925 19.9368 13.894C19.9336 14.0484 20.0359 14.0166 20.54 13.7059C20.8733 13.5008 21.407 13.2365 21.7266 13.1182C22.0451 12.9998 22.6389 12.8645 23.0449 12.818C23.451 12.7714 23.8423 12.7503 23.915 12.7714ZM41.6603 12.7894C41.9786 12.8106 42.5252 12.8951 42.873 12.9776C43.2212 13.0611 43.9089 13.3274 44.4023 13.5706C45.1004 13.9152 45.4877 14.2006 46.153 14.8644C46.6858 15.3971 47.1605 15.9954 47.4156 16.4573C47.6402 16.8643 47.9377 17.5778 48.077 18.0429C48.2742 18.7014 48.3312 19.1454 48.3363 20.0513C48.3404 20.8197 48.2826 21.4476 48.1644 21.9011C48.0675 22.2785 47.7995 22.9687 47.5707 23.4338C47.3419 23.8989 46.9505 24.5257 46.7016 24.827C46.4516 25.1282 45.9391 25.6208 45.5626 25.9221C45.1849 26.2223 44.5921 26.6017 44.2442 26.7656C43.896 26.9294 43.3265 27.1355 42.9786 27.2233C42.6305 27.311 42.0368 27.4136 41.6603 27.4506C41.2826 27.4886 40.6423 27.4664 40.2363 27.4019C39.8302 27.3374 39.2132 27.1926 38.8654 27.0795C38.5172 26.9654 37.9593 26.7053 37.0195 26.1292V33H32.8007V13.2334H34.6993C36.4575 13.2334 36.6135 13.2492 36.8086 13.4448C36.9247 13.5611 37.0195 13.7513 37.0195 13.8676C37.0195 14.061 37.0703 14.0484 37.6261 13.7164C37.9593 13.5166 38.5289 13.2545 38.8916 13.1351C39.2544 13.0146 39.8947 12.8793 40.3153 12.8338C40.7363 12.7894 41.3407 12.7693 41.6603 12.7894ZM38.459 17.5894C38.1503 17.8643 37.8263 18.2934 37.6398 18.6771C37.3886 19.1951 37.3316 19.4477 37.3328 20.0513C37.3328 20.4582 37.4035 21.0047 37.4888 21.2669C37.5733 21.528 37.8707 22.0004 38.1491 22.3154C38.4519 22.659 38.8654 22.9856 39.1816 23.1336C39.5751 23.3165 39.8968 23.3788 40.4472 23.3788C41.0158 23.3788 41.3133 23.3186 41.7393 23.1156C42.0439 22.9708 42.4712 22.6706 42.6883 22.4486C42.9058 22.2266 43.2 21.8102 43.3414 21.5237C43.5461 21.1083 43.5986 20.8303 43.6052 20.157C43.6102 19.4614 43.5628 19.2077 43.3402 18.73C43.1917 18.4097 42.8835 17.9657 42.6546 17.7416C42.427 17.5175 42.0505 17.2364 41.8184 17.1159C41.5305 16.9668 41.1456 16.8876 40.6056 16.8643C40.1014 16.8432 39.6617 16.8865 39.3926 16.9837C39.1604 17.0683 38.7407 17.341 38.459 17.5894ZM64.8104 12.7736C64.9847 12.7894 65.3642 12.8285 65.6542 12.8602C65.9444 12.892 66.5381 13.0347 66.9725 13.1774C67.4081 13.3201 68.1203 13.6689 68.5546 13.9511C68.9902 14.2344 69.4046 14.5452 69.4774 14.6424C69.5556 14.747 69.5726 14.8728 69.5198 14.9511C69.4691 15.024 68.9237 15.7375 68.3067 16.5366C67.6889 17.3357 67.136 17.9901 67.0781 17.9901C67.0203 17.9901 66.8186 17.8421 66.6297 17.6602C66.4412 17.4795 66.0972 17.2343 65.8654 17.1159C65.6279 16.9954 65.1428 16.8791 64.7579 16.8495C64.2928 16.8146 63.9026 16.8527 63.5449 16.9668C63.2465 17.063 62.796 17.3326 62.506 17.5894C62.197 17.8643 61.8733 18.2934 61.6865 18.6771C61.4356 19.1951 61.3786 19.4477 61.3795 20.0513C61.3795 20.4582 61.4502 21.0047 61.5358 21.2669C61.6203 21.528 61.8974 21.9804 62.1495 22.2711C62.407 22.567 62.8626 22.9285 63.1833 23.0913C63.6463 23.327 63.8972 23.3841 64.4942 23.3841C65.0963 23.3852 65.3484 23.3281 65.8654 23.0765C66.2132 22.9063 66.6288 22.6199 66.7882 22.4402C66.9475 22.2594 67.1372 22.1157 67.21 22.1199C67.2828 22.1241 67.9231 22.7901 68.6337 23.5997C69.3447 24.4095 69.9142 25.1134 69.8993 25.1652C69.8847 25.216 69.6114 25.4792 69.293 25.7487C68.9735 26.0193 68.404 26.402 68.0275 26.6007C67.6498 26.7983 66.9621 27.0668 66.4982 27.1969C65.8863 27.3681 65.3633 27.4336 64.5995 27.4357C64.0195 27.4368 63.2603 27.3744 62.9121 27.2973C62.5639 27.2191 61.9944 27.0383 61.6465 26.8956C61.2984 26.7529 60.7047 26.4337 60.3281 26.1853C59.9504 25.9369 59.3663 25.4295 59.0277 25.0595C58.6891 24.6885 58.2397 24.0754 58.03 23.6981C57.82 23.3196 57.5321 22.6537 57.391 22.2182C57.1821 21.5755 57.1314 21.195 57.1239 20.2098C57.1177 19.3631 57.1714 18.786 57.2991 18.3072C57.4002 17.9287 57.646 17.2871 57.8465 16.8801C58.0467 16.4732 58.4265 15.8664 58.6891 15.5324C58.9528 15.1984 59.4412 14.71 59.7744 14.449C60.1077 14.1868 60.6888 13.8105 61.0665 13.6128C61.4431 13.4141 62.0368 13.1699 62.3846 13.0706C62.7328 12.9702 63.3498 12.856 63.7558 12.8169C64.1618 12.7767 64.6365 12.7577 64.8104 12.7736ZM78.627 12.7863C78.917 12.8063 79.4865 12.8909 79.8926 12.9755C80.2986 13.059 80.963 13.2873 81.3691 13.4828C81.7751 13.6784 82.4124 14.0705 82.7856 14.3549C83.1579 14.6392 83.6726 15.1329 83.9288 15.4531C84.1851 15.7724 84.5291 16.2723 84.6926 16.563C84.8561 16.8537 85.0891 17.3886 85.2102 17.7522C85.3304 18.1158 85.4814 18.7818 85.5459 19.2321C85.6279 19.8134 85.6291 20.2965 85.5509 20.8969C85.4898 21.362 85.3442 22.0512 85.2272 22.4296C85.1091 22.807 84.8337 23.419 84.6156 23.7889C84.396 24.1579 83.9554 24.7466 83.6368 25.0965C83.3172 25.4464 82.7477 25.9326 82.3712 26.1768C81.9935 26.4221 81.4007 26.7423 81.0528 26.8903C80.7046 27.0383 80.1351 27.2222 79.7872 27.2983C79.4391 27.3755 78.6798 27.4368 78.0995 27.4357C77.3361 27.4336 76.8128 27.3681 76.2012 27.1969C75.7372 27.0668 75.0484 26.7973 74.6719 26.5986C74.2942 26.3988 73.7246 26.0204 73.4063 25.7572C73.0868 25.4929 72.6237 25.0289 72.377 24.7255C72.13 24.4221 71.7651 23.864 71.5646 23.4867C71.3653 23.1082 71.104 22.419 70.9846 21.9539C70.8391 21.3906 70.7674 20.7732 70.7674 20.1041C70.7674 19.435 70.8391 18.8177 70.9846 18.2543C71.104 17.7892 71.3761 17.0757 71.59 16.6687C71.8507 16.1719 72.2735 15.6307 72.8767 15.0219C73.3714 14.5219 74.0358 13.9659 74.3556 13.7841C74.674 13.6033 75.2921 13.3296 75.7265 13.1774C76.1621 13.0241 76.8739 12.8655 77.3086 12.8253C77.7442 12.7841 78.337 12.7672 78.627 12.7863ZM76.3235 17.4351C76.1009 17.5947 75.7593 17.9636 75.5642 18.2543C75.3691 18.545 75.1528 19.0207 75.0833 19.3114C75.0135 19.602 74.9809 20.101 75.0114 20.4212C75.0409 20.7405 75.1665 21.2288 75.29 21.5047C75.4144 21.7806 75.7414 22.2341 76.0165 22.512C76.3626 22.8619 76.697 23.0786 77.0977 23.2139C77.5216 23.3577 77.8761 23.3979 78.4161 23.364C78.9549 23.3302 79.283 23.2435 79.6288 23.0459C79.8893 22.8958 80.2574 22.6008 80.4463 22.3905C80.6351 22.1791 80.8956 21.8049 81.0263 21.5575C81.2235 21.1834 81.2626 20.9413 81.2626 20.1041C81.2626 19.2669 81.2235 19.0249 81.0263 18.6507C80.8956 18.4034 80.6351 18.0302 80.4463 17.822C80.2574 17.6137 79.8189 17.303 79.4707 17.1328C78.976 16.8907 78.6998 16.8241 78.2051 16.8294C77.857 16.8336 77.3823 16.9055 77.1505 16.9901C76.9184 17.0746 76.546 17.2744 76.3235 17.4351ZM95.8184 12.7883C96.1084 12.8095 96.6063 12.8993 96.9258 12.9881C97.2442 13.0769 97.7188 13.2609 97.9805 13.3972C98.2409 13.5325 98.5921 13.7545 99.0638 14.1319L99.7619 13.6752C100.145 13.4236 100.767 13.1245 101.144 13.0093C101.582 12.8761 102.154 12.7979 102.727 12.7936C103.275 12.7883 103.869 12.856 104.256 12.966C104.604 13.0653 105.167 13.2968 105.508 13.4807C105.848 13.6646 106.378 14.0758 106.684 14.3961C107.001 14.728 107.391 15.2956 107.947 16.4573L108 26.9749H103.781L103.729 18.1328L103.438 17.6919C103.268 17.4319 102.964 17.1582 102.7 17.026C102.37 16.8611 102.111 16.8114 101.718 16.841C101.325 16.8696 101.076 16.9636 100.775 17.1973C100.55 17.3717 100.281 17.7046 100.177 17.9372C100.007 18.3209 99.9886 18.7627 99.9844 26.9749H95.6603L95.6582 22.6675C95.6561 18.7627 95.6379 18.3209 95.4672 17.9372C95.3637 17.7046 95.0949 17.3717 94.8691 17.1973C94.5716 16.9668 94.3144 16.8685 93.9263 16.8368C93.4991 16.8019 93.2977 16.8463 92.9179 17.0588C92.6565 17.2047 92.3254 17.5102 91.9161 18.1486L91.8633 26.9749H87.6444V13.2334L89.5165 13.2302C91.3295 13.2281 91.396 13.2355 91.6124 13.468C91.7356 13.6012 91.8549 13.7661 91.8761 13.837C91.9023 13.9215 92.0784 13.856 92.3907 13.6477C92.6512 13.4733 93.1258 13.2334 93.4454 13.1139C93.7637 12.9955 94.3103 12.8655 94.6581 12.8243C95.0063 12.7831 95.5284 12.7672 95.8184 12.7883ZM26.0508 13.2334H29.953L30.1672 13.5241C30.3781 13.8095 30.3823 13.9405 30.3749 26.9749H26.0508V13.2334Z" fill="#047BC1"/>
<path d="M51.9016 21.4758C51.7062 21.5476 51.3903 21.7238 51.1979 21.8674C51.0051 22.0109 50.7196 22.3181 50.5627 22.5503C50.4058 22.7826 50.2303 23.2101 50.1736 23.5004C50.1026 23.8624 50.1038 24.1854 50.1757 24.5296C50.2333 24.8051 50.3956 25.221 50.5343 25.4532C50.674 25.6854 50.981 26.0106 51.2178 26.1752C51.455 26.3399 51.8074 26.5309 52.0031 26.5996C52.1973 26.6671 52.5622 26.7231 52.8134 26.7231C53.0634 26.7231 53.4736 26.6513 53.7248 26.5647C53.9751 26.4782 54.3812 26.228 54.6252 26.0095C54.8693 25.791 55.1652 25.4216 55.2807 25.1893C55.4355 24.879 55.4913 24.5707 55.4913 24.0282C55.4913 23.4761 55.4367 23.1827 55.2756 22.867C55.156 22.6348 54.9069 22.2928 54.7216 22.108C54.5351 21.9223 54.1777 21.6742 53.9274 21.556C53.6288 21.4145 53.2621 21.3417 52.8638 21.3438C52.5297 21.3449 52.0962 21.404 51.9016 21.4758Z" fill="#FCAF17"/>
</svg>
