<svg width="215" height="64" viewBox="0 0 215 64" fill="none" xmlns="http://www.w3.org/2000/svg">
<path opacity="0.991" fill-rule="evenodd" clip-rule="evenodd" d="M173.021 1.65293C176.6 1.53396 179.162 3.06285 180.708 6.23959C182.072 10.6056 180.728 13.8589 176.676 15.9996C172.927 17.2429 169.863 16.3007 167.485 13.1729C165.515 9.4913 166.034 6.20242 169.044 3.30626C170.234 2.40966 171.559 1.85855 173.021 1.65293Z" fill="#FF4500"/>
<path opacity="0.994" fill-rule="evenodd" clip-rule="evenodd" d="M102.931 2.40039C107.016 2.40039 111.101 2.40039 115.186 2.40039C115.186 22.0982 115.186 41.7959 115.186 61.4937C111.281 61.4937 107.374 61.4937 103.469 61.4937C103.469 59.8582 103.469 58.2226 103.469 56.5871C102.681 57.2072 101.929 57.9006 101.211 58.6671C98.1022 61.0346 94.5725 62.1902 90.6224 62.1337C82.5202 61.9475 76.7869 58.2142 73.4224 50.9337C70.9436 44.694 70.8003 38.4007 72.9924 32.0537C76.2221 24.1731 82.1346 20.0131 90.7299 19.5737C95.3582 19.4623 99.3537 20.9556 102.716 24.0537C102.86 16.8367 102.932 9.61888 102.931 2.40039ZM92.2887 30.1337C96.7534 29.8678 100.068 31.6455 102.232 35.4671C102.866 36.7489 103.26 38.1 103.415 39.5204C103.469 43.538 103.487 47.5558 103.469 51.5737C103.356 51.5896 103.248 51.5719 103.146 51.5204C102.231 50.5944 101.299 49.6878 100.351 48.8004C97.1077 51.6302 93.4527 52.288 89.3862 50.7737C86.4634 49.4722 84.5821 47.2855 83.7424 44.2137C82.7113 40.3247 83.3921 36.7691 85.7849 33.5471C87.5463 31.6334 89.7142 30.4955 92.2887 30.1337Z" fill="#FF4500"/>
<path opacity="0.995" fill-rule="evenodd" clip-rule="evenodd" d="M149.479 2.40039C153.564 2.40039 157.649 2.40039 161.734 2.40039C161.734 22.0982 161.734 41.7959 161.734 61.4937C157.864 61.4937 153.994 61.4937 150.124 61.4937C150.124 59.8582 150.124 58.2226 150.124 56.5871C150.011 56.5712 149.903 56.5889 149.801 56.6404C147.32 59.5432 144.167 61.2854 140.341 61.8671C134.653 62.7497 129.565 61.4341 125.076 57.9204C120.875 53.9379 118.564 49.0489 118.142 43.2537C117.517 36.9146 119.129 31.2257 122.98 26.1871C128.259 20.4983 134.728 18.4895 142.384 20.1604C144.985 20.8635 147.243 22.1435 149.156 24.0004C149.258 24.0519 149.366 24.0696 149.479 24.0537C149.479 16.8359 149.479 9.61817 149.479 2.40039ZM138.836 30.1337C145.324 30.1523 149.033 33.3523 149.962 39.7337C150.016 43.6802 150.034 47.6268 150.016 51.5737C149.903 51.5896 149.796 51.5719 149.694 51.5204C148.779 50.5944 147.847 49.6878 146.899 48.8004C143.739 51.5642 140.155 52.2576 136.149 50.8804C132.34 49.1241 130.244 46.1553 129.86 41.9737C129.603 38.9002 130.391 36.1269 132.225 33.6537C134.003 31.6786 136.207 30.5052 138.836 30.1337Z" fill="#FF4500"/>
<path opacity="0.995" fill-rule="evenodd" clip-rule="evenodd" d="M191.296 9.01367C195.381 9.01367 199.466 9.01367 203.551 9.01367C203.551 12.747 203.551 16.4803 203.551 20.2137C206.526 20.2137 209.499 20.2137 212.474 20.2137C212.474 23.6625 212.474 27.1115 212.474 30.5603C209.499 30.5603 206.526 30.5603 203.551 30.5603C203.551 40.8715 203.551 51.1825 203.551 61.4937C199.466 61.4937 195.381 61.4937 191.296 61.4937C191.296 51.1825 191.296 40.8715 191.296 30.5603C188.322 30.5603 185.348 30.5603 182.374 30.5603C182.374 27.1115 182.374 23.6625 182.374 20.2137C185.348 20.2137 188.322 20.2137 191.296 20.2137C191.296 16.4803 191.296 12.747 191.296 9.01367Z" fill="#FE4500"/>
<path opacity="0.992" fill-rule="evenodd" clip-rule="evenodd" d="M25.7462 19.5732C27.189 19.5229 28.6224 19.6118 30.0462 19.8398C30.6972 19.9484 31.3064 20.1618 31.8737 20.4798C30.1957 24.3075 28.5474 28.1475 26.9287 31.9998C23.4876 30.8818 20.3343 31.4151 17.4687 33.5998C15.8779 35.1748 14.9642 37.077 14.7275 39.3065C14.6737 46.702 14.6557 54.0976 14.6737 61.4932C10.5887 61.4932 6.5037 61.4932 2.4187 61.4932C2.4187 47.7332 2.4187 33.9732 2.4187 20.2132C6.3962 20.2132 10.3737 20.2132 14.3512 20.2132C14.3154 22.1345 14.3512 24.0545 14.4587 25.9732C17.3193 22.261 21.0818 20.1276 25.7462 19.5732Z" fill="#FE4500"/>
<path opacity="0.994" fill-rule="evenodd" clip-rule="evenodd" d="M48.4287 19.5732C53.6356 19.2637 58.2939 20.6682 62.4037 23.7865C67.0102 27.9888 69.2677 33.2155 69.1762 39.4665C69.157 41.2167 68.942 42.941 68.5312 44.6398C59.2147 44.7287 49.8981 44.782 40.5812 44.7998C42.3939 49.7232 45.9594 52.2655 51.2774 52.4265C53.8252 52.3401 56.2798 51.8245 58.6412 50.8798C59.5534 50.4809 60.4134 50.0009 61.2212 49.4398C62.5109 52.461 63.8009 55.4832 65.0912 58.5065C61.7434 60.5821 58.0884 61.7376 54.1262 61.9731C48.9828 62.5094 44.1094 61.6204 39.5062 59.3065C33.4203 55.6794 30.0698 50.3282 29.4549 43.2531C28.9314 37.5797 30.2572 32.3886 33.4324 27.6798C37.1836 22.7338 42.1824 20.0316 48.4287 19.5732ZM48.4287 29.1732C51.6929 28.7578 54.3624 29.7889 56.4374 32.2665C57.3878 33.7629 57.8358 35.3984 57.7812 37.1732C51.9757 37.2087 46.1707 37.1732 40.3662 37.0665C41.3635 32.6988 44.051 30.0678 48.4287 29.1732Z" fill="#FF4500"/>
<path opacity="0.994" fill-rule="evenodd" clip-rule="evenodd" d="M167.646 20.2129C171.731 20.2129 175.816 20.2129 179.901 20.2129C179.901 33.9729 179.901 47.7329 179.901 61.4929C175.816 61.4929 171.731 61.4929 167.646 61.4929C167.646 47.7329 167.646 33.9729 167.646 20.2129Z" fill="#FE4500"/>
</svg>
