<svg width="100" height="48" viewBox="0 0 100 48" fill="none" xmlns="http://www.w3.org/2000/svg">
<path fill-rule="evenodd" clip-rule="evenodd" d="M17.0671 0.0327102C16.5699 0.089216 15.6919 0.28433 15.1996 0.447714C14.4277 0.703921 13.3804 1.27729 12.625 1.85731C12.1781 2.20045 11.3343 3.04572 10.9067 3.57876C8.96479 5.99914 7.69964 9.54128 7.24973 13.8174C7.20783 14.2158 7.16804 14.5611 7.16137 14.5846C7.15465 14.6082 6.85862 14.6866 6.50346 14.7589C3.31476 15.4082 1.2322 17.2994 0.768572 19.9668C0.617916 20.8338 0.690052 22.1847 0.939531 23.1679C1.17226 24.0852 1.74023 25.422 2.29841 26.3662C2.42138 26.5742 2.52202 26.7622 2.52202 26.7838C2.52202 26.8055 2.37977 26.9938 2.20593 27.2024C1.23398 28.3685 0.452621 29.9038 0.175065 31.1927C-0.590216 34.7471 1.17307 38.0788 5.08098 40.4623C8.22936 42.3827 12.3722 43.5471 17.4485 43.9385C18.6563 44.0316 21.9751 44.0162 23.3039 43.9114C23.8978 43.8645 24.5026 43.8112 24.6477 43.7928L24.9117 43.7595L24.3927 43.6492C19.27 42.5609 15.0966 38.7884 13.4566 33.7635C13.2342 33.0819 13.006 32.0927 12.883 31.2762C12.7843 30.6218 12.7704 30.3575 12.7722 29.1754C12.774 28.0447 12.7909 27.7161 12.8757 27.1705C13.3042 24.4117 14.3237 22.0429 15.9832 19.9503C16.4903 19.3108 17.5847 18.2139 18.2404 17.688C21.4266 15.1325 25.5619 13.9957 29.5047 14.5915C32.4039 15.0297 35.0027 16.2549 37.2013 18.22C37.7023 18.6678 37.7037 18.6487 37.2194 17.9692C37.0611 17.747 36.7293 17.138 36.4432 16.5445C34.2696 12.0355 31.6473 8.24788 28.6665 5.31218C25.6408 2.33225 22.6981 0.636018 19.6563 0.118386C19.0102 0.00846588 17.6707 -0.0358694 17.0671 0.0327102ZM19.2792 1.57681C21.8843 1.84196 24.6081 3.17361 27.4817 5.58684C28.2325 6.21734 29.7995 7.76231 30.5885 8.64979C32.3099 10.5862 34.0622 13.0403 35.4681 15.4836C35.6744 15.8422 35.8878 16.2117 35.9423 16.3046C36.0081 16.417 35.8394 16.2782 35.4386 15.8902C33.1229 13.6488 30.3401 12.1758 27.2875 11.5758C25.5621 11.2367 23.5066 11.1918 21.7218 11.4541C19.1208 11.8365 16.4663 12.9758 14.3093 14.6356L13.8818 14.9646L13.1814 14.8377C12.186 14.6573 11.5206 14.5756 10.5107 14.5098L9.62856 14.4524L9.65025 14.1832C9.6622 14.0351 9.69537 13.6206 9.72397 13.262C10.2033 7.25516 12.5971 3.07567 16.2347 1.8947C17.2425 1.56754 18.2029 1.46723 19.2792 1.57681ZM12.352 15.4857C12.7397 15.5134 13.0867 15.5464 13.1232 15.559C13.1658 15.5738 12.9691 15.8096 12.5708 16.221C12.2306 16.5725 11.7704 17.0882 11.5481 17.3671C11.0981 17.9316 10.3601 19.0353 10.0645 19.5857C9.8957 19.9001 9.86829 19.9302 9.84492 19.8272C9.77058 19.4991 9.66422 17.9216 9.63945 16.7794L9.61152 15.4914L9.75042 15.4706C10.037 15.4277 11.6732 15.4372 12.352 15.4857ZM7.06711 17.5241C7.07013 19.2582 7.11482 20.1688 7.27757 21.8103C7.33156 22.3549 7.3797 22.8412 7.3846 22.8911C7.39127 22.9591 7.24277 23.0747 6.79359 23.3515C5.97287 23.857 5.52896 24.1615 4.82991 24.6983C4.1456 25.2238 4.26405 25.2407 3.84222 24.5576C2.57923 22.5123 2.23074 20.6065 2.83567 19.0531C3.34826 17.737 4.63491 16.6844 6.4893 16.0643C6.80184 15.9598 7.05905 15.8733 7.06087 15.8721C7.06274 15.8709 7.06553 16.6143 7.06711 17.5241ZM26.6635 20.2222C24.5265 20.4376 22.5286 21.4352 21.2401 22.9304C19.828 24.5691 19.0777 26.6928 19.0813 29.0407C19.0875 33.1547 21.8826 36.6547 25.8476 37.5135C26.2928 37.6099 26.4915 37.6229 27.5514 37.6248C28.5107 37.6267 28.8428 37.6097 29.2073 37.5405C30.6015 37.2758 32.1674 36.4828 33.1357 35.5512C33.5321 35.1698 34.0087 34.6095 34.0048 34.5293C34.0037 34.5065 33.5015 34.1115 32.8889 33.6516L31.775 32.8152L31.655 32.9742C30.6054 34.3647 29.4943 34.985 27.8874 35.0772C26.9345 35.1318 25.8898 34.9244 25.0557 34.5149C23.4555 33.7294 22.4158 32.2937 22.0239 30.3284C21.8944 29.6791 21.9064 28.2809 22.047 27.6228C22.1634 27.0783 22.431 26.2678 22.6178 25.8939C22.9904 25.148 23.6656 24.3254 24.3093 23.833C24.7471 23.4981 25.5875 23.0912 26.1596 22.9371C26.5943 22.82 26.7232 22.8075 27.5275 22.8041C28.3009 22.8009 28.4648 22.814 28.7993 22.9065C29.8736 23.2035 30.7342 23.7669 31.3549 24.5795L31.4595 24.7166L32.5429 23.8838C33.1388 23.4258 33.6379 23.0322 33.652 23.0093C33.689 22.9491 33.2454 22.404 32.8782 22.0583C32.4224 21.6293 31.9437 21.3022 31.3431 21.0093C29.9362 20.3234 28.3339 20.0539 26.6635 20.2222ZM74.5386 20.2217C71.432 20.5504 68.9163 22.3693 67.6764 25.1833C67.1572 26.3616 66.9314 27.4937 66.9314 28.9181C66.9314 31.916 68.1504 34.438 70.3744 36.0412C71.5101 36.8598 72.8903 37.3917 74.3706 37.5808C75.2298 37.6907 76.9258 37.6574 77.8641 37.5123C79.3435 37.2835 80.8121 36.8197 81.7499 36.285L82.0978 36.0866V31.8945V27.7024H78.9782H75.8585V28.9816V30.2608L77.6223 30.2735L79.3861 30.2862L79.3987 32.3219L79.4112 34.3577L79.0627 34.5025C77.9242 34.9755 76.0762 35.2037 74.8506 35.0227C72.2147 34.6333 70.2763 32.6656 69.8285 29.9246C69.7302 29.3228 69.765 28.1074 69.8983 27.485C70.2252 25.9588 70.9812 24.7294 72.1171 23.8772C73.1288 23.1181 74.2003 22.776 75.5648 22.7764C77.2417 22.7769 78.5499 23.2558 79.666 24.2778L79.9939 24.578L80.1755 24.3894C80.7388 23.8045 81.8579 22.5741 81.8579 22.5396C81.8579 22.5174 81.6905 22.3384 81.4859 22.1417C80.5749 21.266 79.2075 20.5949 77.8627 20.3636C76.8063 20.1819 75.4589 20.1244 74.5386 20.2217ZM36.0226 28.9339V37.2649H41.662H47.3014V35.9609V34.6569H43.0054H38.7094L38.7218 32.3508L38.7343 30.0447L42.5379 30.0323L46.3415 30.02V28.7407V27.4615L42.5379 27.4491L38.7343 27.4368V25.3117V23.1867L42.8259 23.1744L46.9175 23.1621V21.8825V20.6029H41.47H36.0226V28.9339ZM49.8932 28.9333V37.2649H51.2368H52.5805L52.5927 30.9195L52.6049 24.574L56.8738 30.9195L61.1427 37.2649H62.7172H64.2917V28.9339V20.6029H62.948H61.6043L61.5921 26.9325L61.58 33.2621L57.3739 26.9446L53.1678 20.6271L51.5305 20.6144L49.8932 20.6017V28.9333ZM85.5535 28.9333V37.2649H86.8972H88.2409L88.253 30.9114L88.2652 24.558L92.5368 30.9104L96.8083 37.2628L98.4042 37.2639L100 37.2649V28.9339V20.6029H98.6323H97.2646L97.2525 26.923L97.2403 33.243L93.0388 26.9351L88.8374 20.6271L87.1954 20.6144L85.5535 20.6017V28.9333ZM7.60744 24.4304C7.63878 24.6495 7.74077 25.2309 7.83412 25.7223C7.98924 26.5388 8.00508 26.703 8.01789 27.6299C8.02557 28.1877 8.04765 28.7496 8.06689 28.8786C8.09972 29.0986 8.09632 29.1099 8.01165 29.0618C7.52652 28.7864 5.10737 26.4359 4.98249 26.1186C4.95821 26.0569 5.22069 25.7983 5.83368 25.2803C6.37612 24.8218 7.44061 24.0319 7.51596 24.0319C7.53492 24.0319 7.5761 24.2112 7.60744 24.4304ZM27.2826 26.1027C27.065 26.519 26.9516 26.6882 26.8904 26.6882C26.8431 26.6882 26.697 26.6334 26.566 26.5666C26.4348 26.4998 26.3276 26.4569 26.3276 26.4713C26.3276 26.4858 26.3924 26.8586 26.4716 27.2997C26.6257 28.1587 26.643 28.3558 26.5679 28.4024C26.4921 28.4496 26.4095 28.3791 26.058 27.9669C25.8763 27.7538 25.7083 27.569 25.6847 27.5564C25.661 27.5437 25.6118 27.6366 25.5753 27.7627C25.4975 28.0311 25.4742 28.0363 24.9126 27.9122C24.7136 27.8681 24.5375 27.8455 24.5213 27.8618C24.5051 27.8782 24.551 28.1317 24.6233 28.4252C24.7699 29.0195 24.7622 29.0575 24.4758 29.1525L24.3115 29.2071L25.1217 29.9016C25.5672 30.2836 25.9438 30.6275 25.9584 30.6659C25.973 30.7042 25.9541 30.8391 25.9163 30.9656C25.8784 31.0921 25.8586 31.2068 25.8723 31.2206C25.886 31.2344 26.2303 31.2062 26.6375 31.1581C27.0446 31.1099 27.4117 31.0836 27.4532 31.0996C27.5196 31.1253 27.5248 31.2356 27.4963 32.0279L27.4641 32.927L27.5798 32.9106L27.6954 32.8941L27.6781 32.0133C27.6629 31.24 27.6702 31.1288 27.7376 31.1028C27.7799 31.0864 28.1609 31.1146 28.5844 31.1652C29.1555 31.2335 29.3486 31.2423 29.3322 31.1993C29.2342 30.9422 29.1975 30.7346 29.2358 30.6529C29.2597 30.6018 29.6319 30.2608 30.063 29.8949L30.8467 29.2297L30.6629 29.1355C30.5618 29.0837 30.4658 29.0206 30.4495 28.9952C30.4332 28.9697 30.4813 28.7065 30.5565 28.4101C30.6316 28.1139 30.6935 27.8579 30.6941 27.8413C30.6946 27.8248 30.5174 27.8529 30.3 27.9038C29.7455 28.0338 29.6881 28.0198 29.5928 27.7322L29.5147 27.4963L29.1193 27.9616C28.9017 28.2174 28.7056 28.4268 28.6834 28.4268C28.6612 28.4268 28.6175 28.3958 28.5863 28.3579C28.5419 28.3041 28.5651 28.0902 28.6924 27.38C28.782 26.88 28.8499 26.4635 28.8431 26.4545C28.8364 26.4455 28.7355 26.4944 28.6189 26.5632C28.264 26.7724 28.245 26.7603 27.8978 26.1027L27.5888 25.5173L27.2826 26.1027ZM3.8788 28.6321C5.15475 30.2208 6.75432 31.7555 8.54579 33.1097L9.17016 33.5817L9.39727 34.1072C10.3686 36.3547 12.1082 38.6318 14.0168 40.154C14.36 40.4278 14.7056 40.7042 14.7848 40.7683L14.9287 40.8849L14.7368 40.8621C14.6312 40.8496 14.2316 40.8054 13.8489 40.7639C11.7974 40.5414 9.48548 39.9841 7.72949 39.289C6.93431 38.9741 5.66944 38.3228 5.06725 37.9179C1.72468 35.6707 0.779947 32.6488 2.40184 29.392C2.67575 28.8422 3.23931 27.9439 3.31049 27.9439C3.31908 27.9439 3.57484 28.2536 3.8788 28.6321Z" fill="#141A1F"/>
</svg>
