<svg width="108" height="48" viewBox="0 0 108 48" fill="none" xmlns="http://www.w3.org/2000/svg">
<path d="M29.3203 13.2167C29.0134 13.0772 28.6221 13.0011 28.2129 13C27.7657 12.999 27.4261 13.0719 27.0527 13.2484C26.7627 13.3848 26.422 13.611 26.2944 13.7495C26.1679 13.8879 25.9675 14.2145 25.8483 14.4767C25.7302 14.7378 25.6331 15.1659 25.6321 15.428C25.631 15.705 25.7333 16.1236 25.8757 16.4322C26.0097 16.7229 26.2828 17.0992 26.4811 17.2673C26.6794 17.4364 27.0074 17.6436 27.2109 17.7292C27.4134 17.8148 27.8648 17.8846 28.2129 17.8846C28.5609 17.8846 29.0113 17.8148 29.2148 17.7292C29.4174 17.6436 29.7464 17.4364 29.9446 17.2673C30.143 17.0992 30.416 16.7229 30.55 16.4322C30.6914 16.1267 30.7946 15.7029 30.7946 15.428C30.7946 15.1479 30.6926 14.7346 30.5458 14.4238C30.4098 14.1332 30.1842 13.7917 30.0461 13.6638C29.9076 13.537 29.5808 13.3362 29.3203 13.2167Z" fill="#141A1F"/>
<path d="M15.3457 14.1522L0 14.1596V17.9649H5.6953V32.9749H10.0195V17.9649L15.7676 17.9121C15.7676 14.7494 15.7486 14.5845 15.5567 14.3784L15.3457 14.1522Z" fill="#141A1F"/>
<path d="M24.2051 18.8106C24.1175 18.8106 23.9878 18.7936 23.915 18.7714C23.8423 18.7503 23.451 18.7714 23.0449 18.818C22.6389 18.8645 22.0451 18.9998 21.7266 19.1182C21.407 19.2365 20.8733 19.5008 20.54 19.7059C20.0359 20.0166 19.9336 20.0484 19.9368 19.894C19.9378 19.7925 19.8313 19.6033 19.6994 19.4733C19.4695 19.2482 19.3799 19.2376 17.5869 19.2355L15.7148 19.2334V32.9749H19.9336L19.9863 25.2057C20.3956 24.4055 20.751 23.9626 21.041 23.7046C21.331 23.4478 21.8289 23.1402 22.1484 23.0229C22.5925 22.859 22.9194 22.8167 23.5459 22.8442L24.3633 22.8801C24.3633 19.1076 24.3401 18.8106 24.2051 18.8106Z" fill="#141A1F"/>
<path fill-rule="evenodd" clip-rule="evenodd" d="M42.873 18.9776C42.5252 18.8951 41.9786 18.8106 41.6603 18.7894C41.3407 18.7693 40.7363 18.7894 40.3153 18.8338C39.8947 18.8793 39.2544 19.0146 38.8916 19.1351C38.5289 19.2545 37.9593 19.5166 37.6261 19.7164C37.0703 20.0484 37.0195 20.061 37.0195 19.8676C37.0195 19.7513 36.9247 19.5611 36.8086 19.4448C36.6135 19.2492 36.4575 19.2334 34.6993 19.2334H32.8007V39H37.0195V32.1292C37.9593 32.7053 38.5172 32.9654 38.8654 33.0795C39.2132 33.1926 39.8302 33.3374 40.2363 33.4019C40.6423 33.4664 41.2826 33.4886 41.6603 33.4506C42.0368 33.4136 42.6305 33.311 42.9786 33.2233C43.3265 33.1355 43.896 32.9294 44.2442 32.7656C44.5921 32.6017 45.1849 32.2223 45.5626 31.9221C45.9391 31.6208 46.4516 31.1282 46.7016 30.827C46.9505 30.5257 47.3419 29.8989 47.5707 29.4338C47.7995 28.9687 48.0675 28.2785 48.1644 27.9011C48.2826 27.4476 48.3404 26.8197 48.3363 26.0513C48.3312 25.1454 48.2742 24.7014 48.077 24.0429C47.9377 23.5778 47.6402 22.8643 47.4156 22.4573C47.1605 21.9954 46.6858 21.3971 46.153 20.8644C45.4877 20.2006 45.1004 19.9152 44.4023 19.5706C43.9089 19.3274 43.2212 19.0611 42.873 18.9776ZM37.6398 24.6771C37.8263 24.2934 38.1503 23.8643 38.459 23.5894C38.7407 23.341 39.1604 23.0683 39.3926 22.9837C39.6617 22.8865 40.1014 22.8432 40.6056 22.8643C41.1456 22.8876 41.5305 22.9668 41.8184 23.1159C42.0505 23.2364 42.427 23.5175 42.6546 23.7416C42.8835 23.9657 43.1917 24.4097 43.3402 24.73C43.5628 25.2077 43.6102 25.4614 43.6052 26.157C43.5986 26.8303 43.5461 27.1083 43.3414 27.5237C43.2 27.8102 42.9058 28.2266 42.6883 28.4486C42.4712 28.6706 42.0439 28.9708 41.7393 29.1156C41.3133 29.3186 41.0158 29.3788 40.4472 29.3788C39.8968 29.3788 39.5751 29.3165 39.1816 29.1336C38.8654 28.9856 38.4519 28.659 38.1491 28.3154C37.8707 28.0004 37.5733 27.528 37.4888 27.2669C37.4035 27.0047 37.3328 26.4582 37.3328 26.0513C37.3316 25.4477 37.3886 25.1951 37.6398 24.6771Z" fill="#141A1F"/>
<path d="M65.6542 18.8602C65.3642 18.8285 64.9847 18.7894 64.8104 18.7736C64.6365 18.7577 64.1618 18.7767 63.7558 18.8169C63.3498 18.856 62.7328 18.9702 62.3846 19.0706C62.0368 19.1699 61.4431 19.4141 61.0665 19.6128C60.6888 19.8105 60.1077 20.1868 59.7744 20.449C59.4412 20.71 58.9528 21.1984 58.6891 21.5324C58.4265 21.8664 58.0467 22.4732 57.8465 22.8801C57.646 23.2871 57.4002 23.9287 57.2991 24.3072C57.1714 24.786 57.1177 25.3631 57.1239 26.2098C57.1314 27.195 57.1821 27.5755 57.391 28.2182C57.5321 28.6537 57.82 29.3196 58.03 29.6981C58.2397 30.0754 58.6891 30.6885 59.0277 31.0595C59.3663 31.4295 59.9504 31.9369 60.3281 32.1853C60.7047 32.4337 61.2984 32.7529 61.6465 32.8956C61.9944 33.0383 62.5639 33.2191 62.9121 33.2973C63.2603 33.3744 64.0195 33.4368 64.5995 33.4357C65.3633 33.4336 65.8863 33.3681 66.4982 33.1969C66.9621 33.0668 67.6498 32.7983 68.0275 32.6007C68.404 32.402 68.9735 32.0193 69.293 31.7487C69.6114 31.4792 69.8847 31.216 69.8993 31.1652C69.9142 31.1134 69.3447 30.4095 68.6337 29.5997C67.9231 28.7901 67.2828 28.1241 67.21 28.1199C67.1372 28.1157 66.9475 28.2594 66.7882 28.4402C66.6288 28.6199 66.2132 28.9063 65.8654 29.0765C65.3484 29.3281 65.0963 29.3852 64.4942 29.3841C63.8972 29.3841 63.6463 29.327 63.1833 29.0913C62.8626 28.9285 62.407 28.567 62.1495 28.2711C61.8974 27.9804 61.6203 27.528 61.5358 27.2669C61.4502 27.0047 61.3795 26.4582 61.3795 26.0513C61.3786 25.4477 61.4356 25.1951 61.6865 24.6771C61.8733 24.2934 62.197 23.8643 62.506 23.5894C62.796 23.3326 63.2465 23.063 63.5449 22.9668C63.9026 22.8527 64.2928 22.8146 64.7579 22.8495C65.1428 22.8791 65.6279 22.9954 65.8654 23.1159C66.0972 23.2343 66.4412 23.4795 66.6297 23.6602C66.8186 23.8421 67.0203 23.9901 67.0781 23.9901C67.136 23.9901 67.6889 23.3357 68.3067 22.5366C68.9237 21.7375 69.4691 21.024 69.5198 20.9511C69.5726 20.8728 69.5556 20.747 69.4774 20.6424C69.4046 20.5452 68.9902 20.2344 68.5546 19.9511C68.1203 19.6689 67.4081 19.3201 66.9725 19.1774C66.5381 19.0347 65.9444 18.892 65.6542 18.8602Z" fill="#141A1F"/>
<path fill-rule="evenodd" clip-rule="evenodd" d="M79.8926 18.9755C79.4865 18.8909 78.917 18.8063 78.627 18.7863C78.337 18.7672 77.7442 18.7841 77.3086 18.8253C76.8739 18.8655 76.1621 19.0241 75.7265 19.1774C75.2921 19.3296 74.674 19.6033 74.3556 19.7841C74.0358 19.9659 73.3714 20.5219 72.8767 21.0219C72.2735 21.6307 71.8507 22.1719 71.59 22.6687C71.3761 23.0757 71.104 23.7892 70.9846 24.2543C70.8391 24.8177 70.7674 25.435 70.7674 26.1041C70.7674 26.7732 70.8391 27.3906 70.9846 27.9539C71.104 28.419 71.3653 29.1082 71.5646 29.4867C71.7651 29.864 72.13 30.4221 72.377 30.7255C72.6237 31.0289 73.0868 31.4929 73.4063 31.7572C73.7246 32.0204 74.2942 32.3988 74.6719 32.5986C75.0484 32.7973 75.7372 33.0668 76.2012 33.1969C76.8128 33.3681 77.3361 33.4336 78.0995 33.4357C78.6798 33.4368 79.4391 33.3755 79.7872 33.2983C80.1351 33.2222 80.7046 33.0383 81.0528 32.8903C81.4007 32.7423 81.9935 32.4221 82.3712 32.1768C82.7477 31.9326 83.3172 31.4464 83.6368 31.0965C83.9554 30.7466 84.396 30.1579 84.6156 29.7889C84.8337 29.419 85.1091 28.807 85.2272 28.4296C85.3442 28.0512 85.4898 27.362 85.5509 26.8969C85.6291 26.2965 85.6279 25.8134 85.5459 25.2321C85.4814 24.7818 85.3304 24.1158 85.2102 23.7522C85.0891 23.3886 84.8561 22.8537 84.6926 22.563C84.5291 22.2723 84.1851 21.7724 83.9288 21.4531C83.6726 21.1329 83.1579 20.6392 82.7856 20.3549C82.4124 20.0705 81.7751 19.6784 81.3691 19.4828C80.963 19.2873 80.2986 19.059 79.8926 18.9755ZM75.5642 24.2543C75.7593 23.9636 76.1009 23.5947 76.3235 23.4351C76.546 23.2744 76.9184 23.0746 77.1505 22.9901C77.3823 22.9055 77.857 22.8336 78.2051 22.8294C78.6998 22.8241 78.976 22.8907 79.4707 23.1328C79.8189 23.303 80.2574 23.6137 80.4463 23.822C80.6351 24.0302 80.8956 24.4034 81.0263 24.6507C81.2235 25.0249 81.2626 25.2669 81.2626 26.1041C81.2626 26.9413 81.2235 27.1834 81.0263 27.5575C80.8956 27.8049 80.6351 28.1791 80.4463 28.3905C80.2574 28.6008 79.8893 28.8958 79.6288 29.0459C79.283 29.2435 78.9549 29.3302 78.4161 29.364C77.8761 29.3979 77.5216 29.3577 77.0977 29.2139C76.697 29.0786 76.3626 28.8619 76.0165 28.512C75.7414 28.2341 75.4144 27.7806 75.29 27.5047C75.1665 27.2288 75.0409 26.7405 75.0114 26.4212C74.9809 26.101 75.0135 25.602 75.0833 25.3114C75.1528 25.0207 75.3691 24.545 75.5642 24.2543Z" fill="#141A1F"/>
<path d="M96.9258 18.9881C96.6063 18.8993 96.1084 18.8095 95.8184 18.7883C95.5284 18.7672 95.0063 18.7831 94.6581 18.8243C94.3103 18.8655 93.7637 18.9955 93.4454 19.1139C93.1258 19.2334 92.6512 19.4733 92.3907 19.6477C92.0784 19.856 91.9023 19.9215 91.8761 19.837C91.8549 19.7661 91.7356 19.6012 91.6124 19.468C91.396 19.2355 91.3295 19.2281 89.5165 19.2302L87.6444 19.2334V32.9749H91.8633L91.9161 24.1486C92.3254 23.5102 92.6565 23.2047 92.9179 23.0588C93.2977 22.8463 93.4991 22.8019 93.9263 22.8368C94.3144 22.8685 94.5716 22.9668 94.8691 23.1973C95.0949 23.3717 95.3637 23.7046 95.4672 23.9372C95.6379 24.3209 95.6561 24.7627 95.6582 28.6675L95.6603 32.9749H99.9844C99.9886 24.7627 100.007 24.3209 100.177 23.9372C100.281 23.7046 100.55 23.3717 100.775 23.1973C101.076 22.9636 101.325 22.8696 101.718 22.841C102.111 22.8114 102.37 22.8611 102.7 23.026C102.964 23.1582 103.268 23.4319 103.438 23.6919L103.729 24.1328L103.781 32.9749H108L107.947 22.4573C107.391 21.2956 107.001 20.728 106.684 20.3961C106.378 20.0758 105.848 19.6646 105.508 19.4807C105.167 19.2968 104.604 19.0653 104.256 18.966C103.869 18.856 103.275 18.7883 102.727 18.7936C102.154 18.7979 101.582 18.8761 101.144 19.0093C100.767 19.1245 100.145 19.4236 99.7619 19.6752L99.0638 20.1319C98.5921 19.7545 98.2409 19.5325 97.9805 19.3972C97.7188 19.2609 97.2442 19.0769 96.9258 18.9881Z" fill="#141A1F"/>
<path d="M29.953 19.2334H26.0508V32.9749H30.3749C30.3823 19.9405 30.3781 19.8095 30.1672 19.5241L29.953 19.2334Z" fill="#141A1F"/>
<path d="M51.1979 27.8683C51.3903 27.7248 51.7062 27.5485 51.9016 27.4767C52.0962 27.4049 52.5297 27.3458 52.8638 27.3448C53.2621 27.3427 53.6287 27.4155 53.9274 27.5569C54.1777 27.6752 54.5351 27.9232 54.7216 28.109C54.9069 28.2938 55.156 28.6358 55.2756 28.868C55.4367 29.1836 55.4913 29.4771 55.4913 30.0291C55.4913 30.5717 55.4355 30.8799 55.2807 31.1903C55.1652 31.4225 54.8693 31.792 54.6252 32.0105C54.3812 32.229 53.9751 32.4791 53.7248 32.5657C53.4736 32.6523 53.0634 32.724 52.8134 32.724C52.5622 32.724 52.1973 32.6681 52.0031 32.6005C51.8074 32.5319 51.455 32.3409 51.2178 32.1762C50.981 32.0115 50.674 31.6864 50.5343 31.4542C50.3956 31.2219 50.2333 30.806 50.1757 30.5305C50.1038 30.1864 50.1026 29.8634 50.1736 29.5013C50.2303 29.2111 50.4058 28.7835 50.5627 28.5513C50.7196 28.3191 51.0051 28.0119 51.1979 27.8683Z" fill="#141A1F"/>
</svg>
