<svg width="104" height="45" viewBox="35 0 104 63" fill="none" xmlns="http://www.w3.org/2000/svg">
<path d="M77.0657 36.2784C76.5213 33.5303 75.4797 31.2582 73.9772 29.1897C70.8983 24.9479 65.911 22.267 59.1608 22.267C48.6667 22.267 42.2146 29.7058 40.3039 37.5472C38.5879 32.0181 33.9953 28.288 29.1442 26.712C32.7956 23.9334 34.7071 19.9587 34.7071 15.4213C34.7071 11.2096 33.0277 7.37592 30.2162 4.8809C26.0915 1.22069 20.4694 0.473633 13.5417 0.473633C8.22392 0.473633 6.21777 0.473633 0 0.473633V61.5138C3.83686 61.5138 7.78067 61.4961 11.6252 61.5138C15.0458 61.5303 18.3863 61.509 21.5013 61.3789C31.3613 60.9664 38.11 55.7855 40.2701 48.0057C41.0119 51.4646 42.4386 54.2846 44.3016 56.4246C48.0984 60.7872 53.6032 62.4926 59.1469 62.4926C65.9726 62.4926 70.9076 60.4262 74.2789 57.2596L69.4535 51.3393C67.0253 53.2503 63.9045 54.377 60.3997 54.377C53.5259 54.3545 50.4947 49.8143 50.2231 45.4488H77.0653V61.5138H87.1195V0.778482H77.0653V36.2784H77.0657ZM10.3313 8.72023L13.125 8.71863C15.823 8.71863 17.9538 9.02147 19.4882 9.64322C22.5179 10.8702 23.958 13.385 23.958 16.5262C23.9615 19.1823 22.988 23.3562 17.6356 24.4973C16.7403 24.6881 15.4505 24.7937 13.6283 24.7937C11.055 24.7937 10.3313 24.7937 10.3313 24.7937V8.72023ZM21.6975 52.58C20.439 52.8162 18.8999 52.8688 17.6498 52.8688C13.868 52.8688 10.3305 52.8688 10.3305 52.8688L10.3309 32.9552C10.3309 32.9552 14.1727 32.9552 16.8799 32.9552C18.9469 32.9552 21.2859 33.1978 22.626 33.5641C27.2204 34.8224 29.8599 38.2613 29.8599 42.8152C29.8599 47.5305 27.4294 51.502 21.6975 52.58ZM50.4082 37.8597C51.2943 33.4134 54.4428 30.2131 59.083 30.2131C63.7283 30.2131 66.8183 33.0805 67.619 37.8597H50.4082Z" fill="#0067A4"/>
<path d="M103.714 0.77832H93.8311V61.5132H103.714V0.77832Z" fill="#0067A4"/>
</svg>
