<svg width="142" height="24" viewBox="0 0 142 24" fill="none" xmlns="http://www.w3.org/2000/svg">
<path d="M120.395 4.26855H124.634V23.5493H120.395V4.26855Z" fill="#231F20"/>
<path d="M127.051 13.9089L136.769 23.5493H142L132.269 13.9089L142 4.26855H136.769L127.051 13.9089Z" fill="#231F20"/>
<path d="M22.0156 17.8029H27.0481L33.2458 7.78933L39.4435 17.8029H44.4884L33.2458 0.450195L22.0156 17.8029Z" fill="#231F20"/>
<path d="M65.9181 17.8029H70.9506L77.1483 7.78933L83.3459 17.8029H88.3908L77.1483 0.450195L65.9181 17.8029Z" fill="#231F20"/>
<path d="M113.8 23.5503L108.458 17.3307C109.918 16.7522 111.132 15.6804 111.889 14.3003C112.646 12.9201 112.9 11.318 112.606 9.77029C112.312 8.22257 111.489 6.82623 110.28 5.82205C109.07 4.81787 107.549 4.26881 105.979 4.26953H92.877V23.5503H97.1162V8.16301H105.991C107.578 8.16301 108.855 9.44425 108.855 11.0365C108.855 12.6287 107.578 13.9099 105.991 13.9099H101.083L99.0126 17.8034H103.996L108.929 23.5503H113.813H113.8Z" fill="#231F20"/>
<path d="M13.1019 4.26978H0V23.5506H4.2392V8.16325H13.1143C14.7009 8.16325 15.9776 9.44449 15.9776 11.0367C15.9776 12.6289 14.7009 13.9102 13.1143 13.9102H8.2057L6.13568 17.8036H13.1143C16.8328 17.8036 19.8573 14.7685 19.8573 11.0367C19.8573 7.30494 16.8328 4.26978 13.1143 4.26978H13.1019Z" fill="#231F20"/>
<path d="M49.4238 4.26953V23.5503H61.9059L64.4222 19.6568H53.6506V4.26953H49.4238Z" fill="#231F20"/>
</svg>
