<svg width="180" height="44" viewBox="0 0 180 44" fill="none" xmlns="http://www.w3.org/2000/svg">
<g clip-path="url(#clip0_1523_1413)">
<path d="M14.688 40.6099C18.262 40.6129 21.832 40.2699 25.344 39.5939L25.922 42.6679C25.922 42.6679 21.699 43.9529 14.942 43.9529C5.003 43.9529 0 42.1529 0 28.5899C0 24.5399 0.586 20.7459 1.559 18.4959C3.316 14.4459 7.215 13.2229 14.168 13.2229C19.563 13.2229 23.461 13.8049 25.473 16.2459C27.098 18.3009 27.746 21.1329 27.746 26.1449C27.746 27.3009 27.684 28.3949 27.617 29.6049C26.512 29.6679 22.418 30.1169 17.543 30.1169C12.852 30.1169 8.578 29.8709 8.578 29.8709L6.563 28.5199C6.172 28.2729 5.914 28.0699 5.391 28.0699C4.156 28.0699 4.289 29.2269 4.289 30.0619C4.289 32.7619 4.352 36.1719 6.239 38.2189C7.801 39.9689 10.656 40.6089 14.687 40.6089L14.688 40.6099ZM14.566 16.4379C5.016 16.4379 4.754 18.1089 4.363 26.4019C8.84 27.1089 14.102 26.9879 14.102 26.9879C14.102 26.9879 19.496 27.1129 23.395 26.7379C23.395 17.4019 21.575 16.4379 14.566 16.4379ZM49.969 3.45288C48.6096 3.29857 47.2431 3.21645 45.875 3.20688C43.863 3.20688 41.848 3.33588 40.937 4.30088C39.965 5.39088 39.836 7.44888 39.836 9.63688V13.6089H49.379V16.7579H39.836V39.4489C39.836 40.2849 39.965 40.4799 40.742 40.6089L42.434 40.9289V43.5039H33.14V40.9959L34.827 40.6759C35.608 40.4799 35.737 40.2889 35.737 39.5199V16.7579H30.02V13.6089H35.738V9.55988C35.738 6.34888 35.934 3.25887 38.664 1.40287C40.29 0.237875 42.891 0.046875 45.293 0.046875C46.945 0.077875 48.598 0.229875 50.23 0.496875L49.969 3.45288ZM53.082 43.5039V40.9959L54.77 40.6759C55.55 40.4799 55.68 40.2889 55.68 39.5199V17.6599C55.68 16.8239 55.55 16.6329 54.77 16.5039L53.082 16.1799V13.6099H59.773V39.4529C59.773 40.2889 59.906 40.4799 60.683 40.6089L62.375 40.9289V43.5039H53.082ZM54.445 5.57387V0.687875H59.578V5.57387H54.445ZM89.352 14.5079L88.828 17.5309C85.7061 16.8904 82.5306 16.5465 79.344 16.5039C71.09 16.5039 69.27 18.3039 69.27 28.5899C69.27 38.8789 71.09 40.6759 79.344 40.6759C82.5308 40.6348 85.7064 40.2906 88.828 39.6479L89.352 42.6679C85.8578 43.4932 82.2822 43.9242 78.692 43.9529C68.555 43.9529 64.98 41.2529 64.98 28.5899C64.98 15.9259 68.555 13.2269 78.691 13.2269C82.281 13.2569 85.855 13.6869 89.351 14.5069L89.352 14.5079ZM105.855 43.9529C94.223 43.9529 92.145 41.2529 92.145 28.5899C92.145 15.9259 94.223 13.2269 105.855 13.2269C117.488 13.2269 119.566 15.9259 119.566 28.5899C119.566 41.2539 117.487 43.9529 105.855 43.9529ZM105.855 16.4409C97.277 16.4409 96.43 17.7269 96.43 28.5899C96.43 39.4569 97.277 40.7419 105.855 40.7419C114.434 40.7419 115.277 39.4569 115.277 28.5899C115.277 17.7269 114.434 16.4379 105.855 16.4379V16.4409ZM145.04 43.5039L144.777 41.8979C144.715 41.5119 144.586 40.8709 143.672 40.8709C143.219 40.8709 142.762 41.1909 142.375 41.4489L139.242 43.5039C137.418 43.8039 135.57 43.9539 133.722 43.9539C123.844 43.9539 122.219 37.6519 122.219 28.5899C122.219 19.8479 123.777 13.2269 134.242 13.2269C137.73 13.2469 141.211 13.5899 144.637 14.2539V4.74188C144.637 3.90588 144.512 3.71488 143.73 3.58588L142.05 3.25787V0.687875H148.746V39.4529C148.746 40.2889 148.875 40.4799 149.652 40.6089L151.34 40.9289V43.5039H145.04ZM144.648 17.2769C141.658 16.8085 138.639 16.5502 135.613 16.5039C128.078 16.5039 126.516 19.0119 126.516 28.5899C126.516 38.2299 128.078 40.6129 135.613 40.6129C140.164 40.6129 144.648 39.3279 144.648 39.3279V17.2769ZM166.938 40.6099C170.516 40.6129 174.082 40.2699 177.594 39.5939L178.18 42.6759C178.18 42.6759 173.957 43.9609 167.2 43.9609C157.258 43.9609 152.254 42.1639 152.254 28.5979C152.254 24.5469 152.836 20.7539 153.813 18.5079C155.566 14.4569 159.465 13.2339 166.418 13.2339C171.812 13.2339 175.711 13.8129 177.727 16.2539C179.352 18.3119 180 21.1409 180 26.1519C180 27.3089 179.937 28.4019 179.871 29.6129C178.761 29.6799 174.668 30.1289 169.797 30.1289C165.105 30.1289 160.828 29.8789 160.828 29.8789L158.812 28.5309C158.422 28.2849 158.164 28.0819 157.641 28.0819C156.406 28.0819 156.539 29.2379 156.539 30.0739C156.539 32.7739 156.602 36.1799 158.489 38.2299C160.051 39.9689 162.906 40.6099 166.937 40.6099H166.938ZM166.805 16.4379C157.254 16.4379 156.992 18.1089 156.605 26.4019C161.09 27.1089 166.352 26.9879 166.352 26.9879C166.352 26.9879 171.746 27.1129 175.645 26.7379C175.645 17.4019 173.825 16.4379 166.809 16.4379H166.805Z" fill="#231F20"/>
</g>
<defs>
<clipPath id="clip0_1523_1413">
<rect width="180" height="44" fill="white"/>
</clipPath>
</defs>
</svg>
