<svg width="241" height="43" viewBox="0 0 241 43" fill="none" xmlns="http://www.w3.org/2000/svg">
<path d="M15.3029 21.1323C16.5967 22.8326 18.1491 24.459 19.7016 26.0114C22.3999 28.7097 25.4678 31.1493 28.5727 32.9975H19.4798C14.7855 29.5969 10.6825 25.0504 7.94727 20.5039C10.6456 16.0314 14.7855 11.4849 19.4798 8.08428H28.5727C25.4678 9.9694 22.3999 12.372 19.7016 15.0703C18.1491 16.6228 16.5967 18.3231 15.3029 19.9495C15.1551 20.0973 15.0812 20.2821 15.0812 20.5039C15.0812 20.7996 15.1551 21.0214 15.3029 21.1323ZM61.1743 21.1323C59.8805 22.8326 58.3281 24.459 56.7756 26.0114C54.0773 28.7097 51.0094 31.1493 47.9045 32.9975H56.9974C61.6917 29.5969 65.7947 25.0504 68.5299 20.5039C65.8316 15.9574 61.6917 11.411 56.9974 8.01034H47.9045C51.0094 9.96939 54.0773 12.335 56.7756 15.0703C58.3281 16.6228 59.8805 18.3231 61.1743 19.9495C61.3221 20.0973 61.396 20.2821 61.396 20.5039C61.396 20.7996 61.3221 21.0214 61.1743 21.1323ZM38.2201 25.9375C41.2141 25.9375 43.5798 23.5718 43.5798 20.5778C43.5798 17.5838 41.2141 15.2182 38.2201 15.2182C35.2261 15.2182 32.8605 17.5838 32.8605 20.5778C32.9344 23.4979 35.3 25.9375 38.2201 25.9375ZM38.2201 8.12124C45.1322 8.12124 50.7137 13.6657 50.7137 20.6148C50.7137 27.5639 45.1692 33.1084 38.2201 33.1084C31.271 33.1084 25.7266 27.5639 25.7266 20.6148C25.8005 13.6657 31.345 8.12124 38.2201 8.12124ZM164.302 16.3271H167.776L161.012 33.0714H158.646L153.952 21.3541L149.258 33.0714H146.892L140.128 16.3271H143.602L148.223 27.7857L152.843 16.3271H155.209L159.829 27.7857L164.302 16.3271ZM204.518 22.5739C205.072 20.393 207.031 18.9145 209.212 18.9145C211.171 18.9145 213.13 20.393 213.61 22.5739H204.518ZM217.122 25.42C217.196 25.0873 217.196 24.8656 217.196 24.6807C217.196 19.7277 213.795 15.9205 209.138 15.9205C204.407 15.9205 201.006 19.6538 201.006 24.6807C201.006 29.7077 204.813 33.441 209.692 33.441C213.093 33.441 215.533 31.8886 216.752 30.3361L214.498 28.2292C213.537 29.3011 212.206 30.5209 209.692 30.5209C206.772 30.5209 204.481 28.2662 204.259 25.42H217.122ZM223.443 18.2861C224.256 17.1403 226.03 15.9944 228.47 15.9944C228.802 15.9944 229.431 16.0683 229.763 16.1422L229.357 19.395C228.95 19.2472 228.544 19.2472 228.063 19.2472C226.289 19.2472 224.478 20.4669 223.517 22.0194V33.0714H220.116V16.3271H223.369V18.2861M181.342 27.8596C180.196 29.412 178.422 30.2252 176.721 30.2252C173.468 30.2252 171.177 27.7117 171.177 24.7177C171.177 21.7976 173.358 19.2102 176.536 19.2102C178.569 19.2102 180.27 20.2452 181.268 21.5758V27.8226H181.342V27.8596ZM181.452 17.8795C179.9 16.5858 178.126 15.9944 176.241 15.9944C174.688 15.9944 173.247 16.401 172.175 17.0663C169.661 18.5449 167.85 21.391 167.85 24.7177C167.85 28.0444 169.624 30.8166 172.138 32.2952C173.284 32.9605 174.836 33.3671 176.352 33.3671C178.311 33.3671 180.159 32.7018 181.489 31.482V33.0344H184.742V16.2901H181.489L181.452 17.8795ZM105.197 22.5739C105.752 20.393 107.711 18.9145 109.892 18.9145C111.851 18.9145 113.81 20.393 114.29 22.5739H105.197ZM117.802 24.6807C117.802 19.7277 114.401 15.9205 109.744 15.9205C105.013 15.9205 101.612 19.6538 101.612 24.6807C101.612 29.7077 105.419 33.441 110.298 33.441C113.699 33.441 116.139 31.8886 117.358 30.3361L115.104 28.2292C114.143 29.3011 112.812 30.5209 110.298 30.5209C107.378 30.5209 105.087 28.2662 104.865 25.42H117.765C117.802 25.0873 117.802 24.8656 117.802 24.6807ZM124.307 33.0714H120.907V7.78857H124.307V33.0714ZM96.1045 8.12124H98.618V33.0714H95.0325V16.3271L87.7138 27.7857H85.2743L77.9555 16.3271V33.0714H74.3701V8.12124H76.8836L86.568 23.387L96.1045 8.12124ZM133.179 11.7067V16.3271H138.538V19.395H133.179V27.2682C133.179 28.1553 133.252 28.8945 133.659 29.449C134.14 30.0034 135.101 30.3361 135.951 30.3361C136.431 30.3361 137.318 30.2622 137.799 30.1143L138.464 33.1823C137.836 33.4041 136.764 33.5149 135.803 33.5149C133.696 33.5149 132.144 32.7757 131.072 31.5559C130.037 30.484 129.704 28.8945 129.704 27.0834V19.432H127.264V16.364H129.704V11.7436C129.741 11.7067 133.179 11.7067 133.179 11.7067ZM190.361 11.7067V16.3271H187.921V19.395H190.361V27.0464C190.361 28.8945 190.693 30.3731 191.728 31.5189C192.8 32.7387 194.39 33.478 196.46 33.478C197.421 33.478 198.419 33.3301 199.121 33.1453L198.456 30.0774C197.975 30.2252 197.088 30.2992 196.607 30.2992C195.72 30.2992 194.759 29.9665 194.316 29.412C193.909 28.9315 193.835 28.1922 193.835 27.2312V19.432H199.195V16.364H193.761V11.6697H190.361V11.7067Z" fill="#202020"/>
</svg>
