<svg width="85" height="85" viewBox="0 0 85 85" fill="none" xmlns="http://www.w3.org/2000/svg">
<path d="M55.3893 38.0975C54.9311 37.7555 54.2105 37.5496 53.51 37.5596C52.7529 37.5695 52.0258 37.8119 51.5211 38.2137V33.4258H49.1504V49.0379H51.5211V40.8898C51.5211 40.3221 51.9992 39.6979 52.8824 39.658C53.2742 39.6414 53.8187 39.8107 54.0943 40.2225C54.3898 40.6607 54.3699 41.2418 54.3699 41.8793V49.0379H56.7373V41.7896C56.7373 39.6547 56.4584 38.891 55.3859 38.0975" fill="#006FB9"/>
<path d="M38.4121 41.6137C38.0767 38.2768 36.1808 37.5596 34.6269 37.5596C32.4222 37.5596 31.0775 38.9607 30.8384 41.6104C30.8218 41.8229 30.7853 42.2113 30.772 43.4564C30.7654 44.3662 30.8218 45.11 30.8318 45.2992C30.9845 47.7695 32.4023 49.2936 34.6269 49.2936C36.8515 49.2936 38.266 47.743 38.4187 45.2992C38.4287 45.1232 38.4785 44.3662 38.4785 43.4564C38.4785 43.0447 38.4419 41.9291 38.4121 41.6137ZM36.121 43.4564C36.121 44.9871 36.0746 45.4154 36.0613 45.5482C35.9816 46.3949 35.6197 47.2947 34.6302 47.2947C33.6408 47.2947 33.2423 46.3352 33.2025 45.5084C33.2025 45.5051 33.1427 44.9871 33.1427 43.4564C33.1427 41.9258 33.2025 41.2883 33.2025 41.285C33.2158 40.4217 33.6607 39.5617 34.6302 39.5617C35.5998 39.5617 36.048 40.425 36.058 41.2783C36.058 41.2916 36.1177 41.9291 36.1177 43.4598" fill="#006FB9"/>
<path d="M63.6166 45.1793C63.6166 45.1793 63.6199 45.352 63.5967 45.5645C63.5303 46.1156 63.3111 47.2943 62.159 47.2943C61.1762 47.2943 60.801 46.4012 60.7346 45.5113C60.7213 45.259 60.6748 44.9768 60.6781 44.0172H65.9607C65.9607 44.0172 65.9707 43.2336 65.9541 42.7588C65.9475 42.5729 65.9375 42.2641 65.8943 41.6133C65.8213 40.6139 65.4461 39.5182 64.875 38.8109C64.2109 37.9908 63.2713 37.5625 62.159 37.5625C60.0273 37.5625 58.6926 38.9504 58.4303 41.6133C58.407 41.8523 58.3672 42.1844 58.3672 43.4561C58.3672 44.3658 58.417 45.1229 58.427 45.2988C58.573 47.7293 60.0074 49.2932 62.159 49.2932C64.3106 49.2932 65.7449 47.7691 65.891 45.1793H63.6166ZM60.6914 42.0516C60.708 41.5336 60.708 41.4273 60.718 41.2746C60.7877 40.3383 61.2027 39.5646 62.1623 39.558C63.3012 39.548 63.5668 40.6637 63.6066 41.2813C63.6299 41.6066 63.6531 41.8225 63.6498 42.0516H60.6914Z" fill="#006FB9"/>
<path d="M62.7074 23.5479H22.3523L5.97656 42.5633L22.3523 61.4559H62.7041L79.0234 42.6264L62.7074 23.5479ZM23.282 25.4604H61.7777L76.4967 42.6795L61.7811 59.6629H23.2787L8.50332 42.6197L23.282 25.457" fill="#006FB9"/>
<path d="M29.3682 48.0748L29.1225 44.2398C29.0162 42.5232 28.5713 41.5172 27.6848 40.9992C28.3256 40.6141 29.1523 39.6611 29.1457 37.6689C29.1324 34.6375 27.2531 33.575 25.0352 33.5518H21.416V49.041H23.7535V41.9555H25.0551C25.8088 41.9555 26.6555 42.6129 26.785 44.4623L27.0307 48.0881C27.0506 48.6027 27.1469 49.041 27.1469 49.041H29.4844C29.4844 49.041 29.3848 48.616 29.3648 48.0748H29.3682ZM23.7568 35.5473H24.8758C26.0943 35.5473 26.7551 36.1947 26.785 37.3469C26.785 37.4332 26.7982 37.5295 26.7982 37.7088C26.7982 37.918 26.7949 37.991 26.785 38.074C26.7186 38.758 26.4164 39.9566 24.9887 39.9566H23.7535V35.5473" fill="#006FB9"/>
<path d="M45.332 45.0697C45.322 45.2424 45.3121 45.3951 45.3021 45.5047C45.2357 46.3713 44.9302 47.291 43.8711 47.291C42.8849 47.291 42.4931 46.2916 42.4234 45.5578C42.3802 45.1129 42.3902 44.7676 42.3802 43.4527C42.3703 41.9221 42.4201 41.5303 42.44 41.2813C42.523 40.315 42.8982 39.5646 43.8711 39.558C44.8705 39.5514 45.2888 40.4213 45.3021 41.2746C45.3021 41.2813 45.322 41.4904 45.3386 41.942H47.6795C47.6728 41.7859 47.6662 41.6564 47.6595 41.5801C47.3939 38.3461 45.4216 37.5625 43.8677 37.5625C41.663 37.5625 40.3216 38.9637 40.0793 41.6133C40.0627 41.8258 40.0261 42.2143 40.0162 43.4594C40.0095 44.3691 40.066 45.1129 40.0759 45.3022C40.2287 47.7725 41.6464 49.2898 43.8677 49.2965C46.172 49.3031 47.4404 47.902 47.6595 45.3022C47.6662 45.2059 47.6794 45.1428 47.6728 45.0764H45.3287" fill="#006FB9"/>
</svg>
