<svg width="148" height="36" viewBox="0 0 148 36" fill="none" xmlns="http://www.w3.org/2000/svg">
<path d="M108.397 12.3543C107.507 11.4182 106.407 10.7013 105.185 10.2611C103.853 9.78503 102.445 9.54871 101.028 9.56331C99.7084 9.52806 98.3942 9.74225 97.1562 10.1944C96.2297 10.5449 95.3556 11.0178 94.5578 11.6001C93.7923 12.2122 93.1232 12.9332 92.5726 13.7395H92.4686V10.0712H87.1055V35.2107H92.453V21.8303C92.4337 20.7664 92.6098 19.7078 92.9727 18.7059C93.3069 17.8211 93.8177 17.0116 94.4746 16.3253C95.1188 15.6664 95.8913 15.1428 96.7457 14.7862C97.6389 14.4168 98.5992 14.2317 99.5676 14.2423C101.245 14.1588 102.887 14.7386 104.13 15.8533C105.263 16.9273 105.832 18.5879 105.835 20.835V35.2004H111.209V20.2553C111.236 18.7089 110.986 17.17 110.471 15.7096C110.013 14.4647 109.306 13.3235 108.392 12.3543" fill="#36735C"/>
<path d="M136.51 26.0834C136.13 27.0516 135.569 27.9409 134.857 28.7051C134.166 29.4395 133.322 30.0172 132.383 30.3982C131.395 30.8007 130.334 31.0015 129.265 30.9882C128.223 30.9983 127.19 30.7975 126.23 30.3982C125.303 30.0126 124.47 29.4353 123.788 28.7051C123.075 27.9452 122.521 27.0544 122.156 26.0834C121.38 23.8541 121.38 21.4328 122.156 19.2034C122.522 18.2315 123.076 17.3393 123.788 16.5766C125.198 15.0702 127.188 14.2239 129.265 14.2474C130.336 14.2358 131.398 14.4437 132.383 14.8579C133.314 15.2538 134.155 15.8294 134.857 16.551C135.576 17.314 136.137 18.2079 136.51 19.1829C136.93 20.2879 137.138 21.4606 137.123 22.6409C137.14 23.8163 136.932 24.9843 136.51 26.0834ZM147.714 5.24337V0H137.123V13.8934H136.972C136.424 13.0622 135.743 12.3242 134.956 11.7078C134.113 11.1141 133.198 10.6279 132.233 10.261C130.965 9.77932 129.615 9.5475 128.257 9.57863C126.648 9.56809 125.055 9.88964 123.58 10.5226C122.121 11.1489 120.804 12.0578 119.708 13.1956C118.563 14.3874 117.67 15.7934 117.084 17.3308C116.443 19.0058 116.122 20.7837 116.138 22.5742C116.115 24.3998 116.434 26.2139 117.078 27.9253C117.661 29.4555 118.554 30.8521 119.703 32.0297C120.807 33.1593 122.122 34.0686 123.575 34.7078C125.047 35.3523 126.641 35.681 128.252 35.6723C130.651 35.7236 133.002 35.0033 134.951 33.6201C135.738 33.0038 136.419 32.2657 136.967 31.4345H137.118V35.1541H147.709V29.921H142.418V5.24337H147.714Z" fill="#36735C"/>
<path d="M37.2978 16.5766C38.0032 15.8577 38.8433 15.2809 39.7715 14.8784C41.8754 14.024 44.2435 14.0668 46.3144 14.9964C47.1274 15.4044 47.868 15.9397 48.5075 16.5817C48.9075 17.0223 49.2562 17.5059 49.5468 18.0234L53.247 14.3653C53.2106 14.314 53.1795 14.2576 53.1379 14.2063C52.6321 13.6023 52.0796 13.0379 51.4853 12.5183C50.8111 11.9371 50.0676 11.4392 49.2714 11.0356C48.3616 10.5908 47.4047 10.2467 46.4183 10.0095C45.2282 9.72185 44.0057 9.58564 42.7805 9.60421C40.9993 9.5959 39.2338 9.93231 37.5836 10.5944C36.0031 11.2227 34.5664 12.1578 33.3586 13.3443C32.155 14.5345 31.2029 15.9488 30.5575 17.5052C29.1996 20.8243 29.1996 24.5342 30.5575 27.8534C31.2042 29.4091 32.1562 30.8231 33.3586 32.0142C34.5664 33.2007 36.0031 34.1358 37.5836 34.7642C39.2338 35.4262 40.9993 35.7626 42.7805 35.7543C44.0158 35.7691 45.2481 35.633 46.4495 35.349C47.4655 35.1085 48.448 34.7467 49.3753 34.2716C50.1858 33.853 50.94 33.3359 51.6204 32.7325C52.2052 32.2016 52.7282 31.608 53.1795 30.9625L49.5416 27.3711C49.2844 27.8182 48.9833 28.2392 48.6426 28.6281C47.9821 29.2967 47.217 29.8562 46.3768 30.2852C45.2629 30.8304 44.0279 31.0898 42.7857 31.0394C41.7604 31.0473 40.7452 30.8392 39.8079 30.4289C38.8824 30.024 38.043 29.4495 37.3342 28.7358C36.6028 27.9824 36.0242 27.0977 35.6296 26.1295C35.1882 25.0368 34.9709 23.8684 34.9904 22.6921C34.978 21.5271 35.186 20.37 35.6036 19.2803C35.984 18.2973 36.5541 17.3965 37.2822 16.6279" fill="#36735C"/>
<path d="M62.2321 20.1731C63.0116 16.7818 65.714 14.2474 69.383 14.2474C73.052 14.2474 75.3906 16.7818 76.1701 20.1731H62.2321ZM69.5077 9.56836C61.8735 9.56836 56.4844 15.2889 56.4844 22.3946C56.4844 22.4818 56.4844 22.5639 56.4844 22.646C56.4844 23.0616 56.4844 23.4669 56.5363 23.8722C56.5363 23.9132 56.5363 23.9594 56.5363 24.0056C56.5623 24.3031 56.6039 24.6007 56.6507 24.8931C56.6507 24.965 56.6767 25.0368 56.6871 25.1035C56.7916 25.6798 56.934 26.2487 57.1132 26.8068C57.1392 26.8735 57.16 26.9402 57.1808 27.012C57.2795 27.284 57.3782 27.5559 57.4926 27.8227C58.7886 30.9715 61.3244 33.4656 64.5187 34.7334C66.1689 35.3955 67.9344 35.7319 69.7156 35.7236C70.9509 35.7384 72.1832 35.6023 73.3846 35.3183C74.4006 35.0778 75.3831 34.716 76.3104 34.2409C77.122 33.824 77.8764 33.3068 78.5555 32.7018C79.1387 32.1694 79.6615 31.5759 80.1146 30.9317L76.4767 27.3404C76.2201 27.7862 75.9189 28.2056 75.5777 28.5922C74.9159 29.2594 74.1511 29.8187 73.3118 30.2494C72.1971 30.7921 70.9628 31.0513 69.7208 31.0036C68.6955 31.0115 67.6803 30.8033 66.743 30.393C65.8174 29.9881 64.9781 29.4136 64.2693 28.7C63.539 27.9476 62.9605 27.0648 62.5647 26.0988C62.4764 25.8885 62.4036 25.673 62.3361 25.4524C62.3049 25.3549 62.2737 25.2523 62.2477 25.1497L62.1853 24.8983C62.123 24.611 62.0658 24.3185 62.0242 24.0158H81.9283V22.528C81.9283 14.7758 76.7314 9.58375 69.5077 9.58375" fill="#36735C"/>
<path d="M17.9454 22.8819C17.9454 27.9354 14.0062 30.9727 10.4048 30.9727C8.04021 30.9727 6.17453 29.6952 6.17453 27.3813C6.17453 24.1081 11.2883 22.1585 17.9454 22.1585V22.8819ZM23.293 29.9825V10.0557H2.10018V15.2888H17.9454V17.9566C5.47295 17.9566 0.603481 21.5018 0.411197 27.5353C0.244897 32.6144 4.29326 35.7184 9.24588 35.7184C12.4368 35.7184 15.8927 34.4768 17.8051 31.5011H17.9714V35.2259H27.2634V29.9928L23.293 29.9825Z" fill="#36735C"/>
</svg>
