<svg width="203" height="71" viewBox="0 0 203 71" fill="none" xmlns="http://www.w3.org/2000/svg">
<g clip-path="url(#clip0_344_21)">
<path d="M60.54 20.51L60.24 20.39C53.57 17.71 43.52 15.79 30.54 15.79C25.78 15.79 21.25 16.25 17.05 17.1L17.44 30.51C17.64 40.41 27.2 47.77 30.54 49.99C33.84 48 41.58 43.08 42.16 36.97C42.21 36.42 42.5 34.97 39.71 34.37C37.61 33.91 33.28 33.9 30.63 33.84V19.28C40.19 19.28 52.89 20.47 60.42 23.96L60.25 30.56C59.6 52.57 30.54 70.88 30.54 70.88C30.54 70.88 1.8 52.58 1.01 30.56L0 5.32C7.23 1.78 20.34 0 30.55 0C40.76 0 53.78 1.78 61.1 5.32L60.55 20.51H60.54Z" fill="#E2001A"/>
<path d="M73.21 21.67C73.21 14.69 78.01 10.73 83.58 10.73C86.65 10.73 88.89 12.01 90.36 13.48L87.48 17C86.46 16.1 85.43 15.46 83.77 15.46C80.95 15.46 78.84 17.7 78.84 21.48C78.84 25.26 80.57 27.56 84.28 27.56C84.86 27.56 85.5 27.43 85.88 27.18V24.3H82.81V19.82H90.75V29.74C89.28 31.15 86.65 32.3 83.71 32.3C77.89 32.3 73.21 28.78 73.21 21.68V21.67ZM101.18 11.11H107.32C113.66 11.11 118.01 14.05 118.01 21.41C118.01 28.77 113.66 31.91 107.64 31.91H101.18V11.11ZM107 27.49C110.01 27.49 112.38 26.27 112.38 21.41C112.38 16.55 110.01 15.52 107 15.52H106.68V27.49H107Z" fill="black"/>
<path d="M124.48 11.11H131.14L137.48 31.91H131.66L130.64 27.49H124.82L123.8 31.91H118.17L124.51 11.11H124.48ZM125.79 23.24H129.63L129.28 21.8L127.74 15.21H127.61L126.14 21.8L125.79 23.24Z" fill="black"/>
<path d="M140.86 15.72H135.36V11.11H151.87V15.72H146.37V31.91H140.87V15.72H140.86Z" fill="black"/>
<path d="M156.09 11.11H162.75L169.09 31.91H163.27L162.25 27.49H156.43L155.41 31.91H149.78L156.12 11.11H156.09ZM157.4 23.24H161.24L160.89 21.8L159.35 15.21H159.22L157.75 21.8L157.4 23.24Z" fill="black"/>
<path d="M73.05 50.04C73.05 44.98 76.03 41.88 80.03 41.88C81.95 41.88 83.44 42.79 84.35 43.82L83.27 45.12C82.43 44.23 81.4 43.63 80.05 43.63C77.07 43.63 75.11 46.08 75.11 49.99C75.11 53.9 77.01 56.45 79.98 56.45C81.49 56.45 82.62 55.78 83.63 54.67L84.73 55.92C83.48 57.36 81.95 58.2 79.9 58.2C75.96 58.2 73.04 55.18 73.04 50.04H73.05ZM85.12 62.69L85.5 61.13C85.74 61.2 86.1 61.3 86.39 61.3C87.71 61.3 88.55 60.24 89.03 58.8L89.29 57.94L84.61 46.25H86.65L89.03 52.71L90.16 56H90.26L91.24 52.71L93.33 46.25H95.25L90.86 58.87C90.04 61.17 88.84 62.93 86.49 62.93C85.96 62.93 85.51 62.83 85.12 62.69ZM98.73 56.71H98.66L98.49 57.91H96.91V40.82H98.88V45.48L98.83 47.59C99.89 46.65 101.18 45.96 102.48 45.96C105.5 45.96 107.11 48.29 107.11 51.89C107.11 55.87 104.73 58.2 102.07 58.2C100.99 58.2 99.77 57.65 98.73 56.71ZM105.07 51.91C105.07 49.34 104.21 47.61 102 47.61C101.02 47.61 99.98 48.16 98.88 49.19V55.31C99.91 56.2 100.97 56.53 101.74 56.53C103.66 56.53 105.08 54.78 105.08 51.9L105.07 51.91Z" fill="black"/>
<path d="M108.79 52.1C108.79 48.28 111.36 45.96 114.02 45.96C117 45.96 118.68 48.1 118.68 51.43C118.68 51.84 118.66 52.27 118.61 52.56H110.74C110.88 55.03 112.4 56.62 114.63 56.62C115.73 56.62 116.67 56.26 117.53 55.71L118.23 57.01C117.22 57.66 115.97 58.21 114.39 58.21C111.27 58.21 108.8 55.93 108.8 52.11L108.79 52.1ZM116.95 51.14C116.95 48.79 115.89 47.52 114.07 47.52C112.44 47.52 110.95 48.84 110.71 51.14H116.95Z" fill="black"/>
<path d="M120.96 46.25H122.59L122.76 48.36H122.83C123.62 46.9 124.82 45.96 126.14 45.96C126.64 45.96 127 46.03 127.39 46.2L127.01 47.93C126.647 47.8004 126.265 47.7361 125.88 47.74C124.9 47.74 123.72 48.46 122.93 50.43V57.92H120.96V46.25ZM129.01 42.17H132.95C137.8 42.17 140.39 44.98 140.39 49.97C140.39 54.96 137.8 57.91 133.05 57.91H129.02V42.16L129.01 42.17ZM132.8 56.28C136.47 56.28 138.32 53.95 138.32 49.97C138.32 45.99 136.47 43.8 132.8 43.8H131V56.28H132.8Z" fill="black"/>
<path d="M142.14 52.1C142.14 48.28 144.71 45.96 147.37 45.96C150.35 45.96 152.03 48.1 152.03 51.43C152.03 51.84 152.01 52.27 151.96 52.56H144.09C144.23 55.03 145.75 56.62 147.98 56.62C149.08 56.62 150.02 56.26 150.88 55.71L151.58 57.01C150.57 57.66 149.32 58.21 147.74 58.21C144.62 58.21 142.15 55.93 142.15 52.11L142.14 52.1ZM150.3 51.14C150.3 48.79 149.24 47.52 147.42 47.52C145.79 47.52 144.3 48.84 144.06 51.14H150.3Z" fill="black"/>
<path d="M154.59 47.85H153.01V46.36L154.59 46.24V44.39C154.59 42.01 155.67 40.52 158 40.52C158.72 40.52 159.42 40.69 159.94 40.9L159.51 42.41C159.08 42.22 158.62 42.12 158.19 42.12C157.09 42.12 156.56 42.89 156.56 44.38V46.23H159.03V47.84H156.56V57.9H154.59V47.84V47.85Z" fill="black"/>
<path d="M159.62 52.1C159.62 48.28 162.19 45.96 164.85 45.96C167.83 45.96 169.51 48.1 169.51 51.43C169.51 51.84 169.49 52.27 169.44 52.56H161.57C161.71 55.03 163.23 56.62 165.46 56.62C166.56 56.62 167.5 56.26 168.36 55.71L169.06 57.01C168.05 57.66 166.8 58.21 165.22 58.21C162.1 58.21 159.63 55.93 159.63 52.11L159.62 52.1ZM167.78 51.14C167.78 48.79 166.72 47.52 164.9 47.52C163.27 47.52 161.78 48.84 161.54 51.14H167.78Z" fill="black"/>
<path d="M171.79 46.25H173.42L173.59 47.93H173.66C174.76 46.83 175.96 45.96 177.57 45.96C180.02 45.96 181.12 47.54 181.12 50.52V57.91H179.15V50.78C179.15 48.6 178.48 47.66 176.94 47.66C175.74 47.66 174.92 48.28 173.75 49.46V57.91H171.78V46.24L171.79 46.25ZM182.9 56.59L183.88 55.27C184.89 56.09 185.92 56.66 187.31 56.66C188.85 56.66 189.61 55.84 189.61 54.84C189.61 53.64 188.22 53.11 186.95 52.63C185.29 52.03 183.47 51.24 183.47 49.27C183.47 47.3 184.96 45.96 187.48 45.96C188.94 45.96 190.22 46.56 191.1 47.28L190.16 48.53C189.37 47.93 188.53 47.5 187.5 47.5C186.04 47.5 185.36 48.29 185.36 49.18C185.36 50.28 186.63 50.69 187.95 51.2C189.63 51.82 191.5 52.52 191.5 54.73C191.5 56.63 189.99 58.21 187.23 58.21C185.57 58.21 183.99 57.51 182.89 56.6L182.9 56.59Z" fill="black"/>
<path d="M192.88 52.1C192.88 48.28 195.45 45.96 198.11 45.96C201.09 45.96 202.77 48.1 202.77 51.43C202.77 51.84 202.75 52.27 202.7 52.56H194.83C194.97 55.03 196.49 56.62 198.72 56.62C199.82 56.62 200.76 56.26 201.62 55.71L202.32 57.01C201.31 57.66 200.06 58.21 198.48 58.21C195.36 58.21 192.89 55.93 192.89 52.11L192.88 52.1ZM201.04 51.14C201.04 48.79 199.98 47.52 198.16 47.52C196.53 47.52 195.04 48.84 194.8 51.14H201.04Z" fill="black"/>
</g>
<defs>
<clipPath id="clip0_344_21">
<rect width="202.77" height="70.87" fill="white"/>
</clipPath>
</defs>
</svg>
