<svg width="96" height="40" viewBox="0 0 96 40" fill="none" xmlns="http://www.w3.org/2000/svg">
<path fill-rule="evenodd" clip-rule="evenodd" d="M15.6163 0.0297366C15.1613 0.0811054 14.358 0.258482 13.9075 0.407012C13.2012 0.639929 12.2429 1.16117 11.5517 1.68847C11.1428 2.00041 10.3708 2.76884 9.9795 3.25342C8.2027 5.45376 7.0451 8.67389 6.63344 12.5613C6.5951 12.9235 6.55869 13.2374 6.55259 13.2588C6.54644 13.2801 6.27557 13.3514 5.9506 13.4172C3.03297 14.0074 1.12746 15.7267 0.703237 18.1517C0.565387 18.9398 0.631392 20.1679 0.859662 21.0617C1.07261 21.8956 1.5923 23.1109 2.10303 23.9693C2.21554 24.1584 2.30763 24.3292 2.30763 24.3489C2.30763 24.3686 2.17747 24.5398 2.0184 24.7295C1.12908 25.7896 0.414144 27.1853 0.160183 28.357C-0.540042 31.5882 1.07335 34.6171 4.64905 36.784C7.52979 38.5297 11.3205 39.5883 15.9652 39.9441C17.0703 40.0287 20.1071 40.0147 21.3228 39.9194C21.8663 39.8768 22.4196 39.8283 22.5525 39.8116L22.794 39.7813L22.3191 39.6811C17.6319 38.6918 13.8133 35.2622 12.3127 30.6941C12.1092 30.0744 11.9004 29.1752 11.7878 28.4329C11.6975 27.838 11.6848 27.5977 11.6864 26.5231C11.6881 25.4952 11.7036 25.1965 11.7811 24.7005C12.1732 22.1924 13.1061 20.039 14.6244 18.1367C15.0884 17.5553 16.0899 16.5581 16.6898 16.08C19.6051 13.7568 23.3889 12.7233 26.9965 13.265C29.6493 13.6634 32.0271 14.7772 34.0388 16.5636C34.4973 16.9707 34.4985 16.9533 34.0554 16.3356C33.9106 16.1336 33.6069 15.58 33.3452 15.0404C31.3564 10.9413 28.957 7.49807 26.2296 4.82926C23.4611 2.12023 20.7686 0.578198 17.9853 0.107624C17.3941 0.00769625 16.1685 -0.0326086 15.6163 0.0297366ZM17.6403 1.43347C20.0239 1.67451 22.5162 2.8851 25.1455 5.07895C25.8324 5.65213 27.2663 7.05665 27.9882 7.86345C29.5633 9.62382 31.1666 11.8548 32.453 14.076C32.6418 14.402 32.837 14.7379 32.8869 14.8224C32.9471 14.9246 32.7927 14.7983 32.426 14.4456C30.3071 12.408 27.7609 11.0689 24.9678 10.5235C23.3891 10.2152 21.5083 10.1743 19.8753 10.4128C17.4954 10.7605 15.0665 11.7962 13.0929 13.3051L12.7017 13.6042L12.0609 13.4888C11.1501 13.3248 10.5413 13.2505 9.6172 13.1908L8.81004 13.1385L8.82989 12.8938C8.84083 12.7592 8.87117 12.3824 8.89735 12.0564C9.33593 6.5956 11.5263 2.79606 14.8546 1.72245C15.7768 1.42504 16.6555 1.33385 17.6403 1.43347ZM11.302 14.0779C11.6567 14.1031 11.9743 14.1331 12.0076 14.1445C12.0466 14.158 11.8666 14.3723 11.5022 14.7463C11.1909 15.0659 10.7698 15.5348 10.5664 15.7883C10.1547 16.3015 9.4794 17.3048 9.20892 17.8052C9.05447 18.091 9.0294 18.1184 9.00801 18.0247C8.93999 17.7265 8.84267 16.2923 8.82001 15.254L8.79445 14.0831L8.92154 14.0642C9.18376 14.0252 10.6809 14.0338 11.302 14.0779ZM6.46634 15.931C6.46911 17.5074 6.50999 18.3352 6.65891 19.8276C6.70831 20.3226 6.75236 20.7648 6.75684 20.8101C6.76294 20.8719 6.62707 20.977 6.21607 21.2286C5.46512 21.6882 5.05895 21.965 4.41933 22.453C3.79319 22.9308 3.90157 22.9461 3.5156 22.3251C2.35998 20.4658 2.04111 18.7331 2.59461 17.321C3.06363 16.1245 4.2409 15.1677 5.93765 14.6039C6.22362 14.5089 6.45896 14.4302 6.46063 14.4292C6.46235 14.4281 6.46489 15.104 6.46634 15.931ZM24.3969 18.3838C22.4415 18.5796 20.6135 19.4866 19.4345 20.8458C18.1425 22.3355 17.4559 24.2661 17.4592 26.4006C17.4649 30.1406 20.0223 33.3224 23.6503 34.1031C24.0577 34.1908 24.2395 34.2026 25.2093 34.2044C26.087 34.2061 26.3909 34.1907 26.7244 34.1277C28.0001 33.8871 29.4329 33.1662 30.3188 32.3192C30.6816 31.9725 31.1176 31.4632 31.1141 31.3903C31.1131 31.3696 30.6536 31.0105 30.0931 30.5923L29.0739 29.832L28.9641 29.9765C28.0037 31.2407 26.9871 31.8045 25.5167 31.8883C24.6448 31.938 23.6889 31.7494 22.9257 31.3772C21.4615 30.6631 20.5102 29.3579 20.1516 27.5713C20.0332 26.981 20.0441 25.7099 20.1728 25.1116C20.2793 24.6166 20.5242 23.8798 20.6951 23.5399C21.036 22.8618 21.6538 22.114 22.2428 21.6664C22.6434 21.3619 23.4124 20.992 23.9358 20.8519C24.3336 20.7455 24.4514 20.7341 25.1874 20.731C25.8951 20.7281 26.0451 20.74 26.3511 20.8241C27.3341 21.094 28.1215 21.6062 28.6894 22.345L28.7852 22.4696L29.7765 21.7126C30.3217 21.2962 30.7784 20.9384 30.7913 20.9175C30.8251 20.8628 30.4192 20.3672 30.0832 20.053C29.6662 19.663 29.2282 19.3656 28.6786 19.0994C27.3914 18.4758 25.9253 18.2308 24.3969 18.3838ZM68.2022 18.3834C65.3596 18.6822 63.0578 20.3358 61.9233 22.8939C61.4482 23.9651 61.2416 24.9943 61.2416 26.2892C61.2416 29.0145 62.357 31.3072 64.392 32.7647C65.4311 33.5089 66.694 33.9924 68.0485 34.1644C68.8346 34.2643 70.3864 34.234 71.245 34.1021C72.5985 33.8941 73.9423 33.4724 74.8004 32.9863L75.1188 32.806V28.995V25.184H72.2643H69.4098V26.3469V27.5098L71.0237 27.5214L72.6376 27.5329L72.6491 29.3836L72.6605 31.2343L72.3416 31.3659C71.3 31.7959 69.609 32.0034 68.4876 31.8388C66.0758 31.4848 64.3022 29.696 63.8925 27.2041C63.8025 26.6571 63.8343 25.5522 63.9563 24.9864C64.2554 23.5989 64.9471 22.4813 65.9865 21.7066C66.9122 21.0165 67.8926 20.7055 69.1411 20.7058C70.6754 20.7063 71.8724 21.1416 72.8937 22.0707L73.1937 22.3436L73.3598 22.1722C73.8752 21.6405 74.8992 20.5219 74.8992 20.4905C74.8992 20.4704 74.7461 20.3076 74.5589 20.1288C73.7253 19.3327 72.4741 18.7227 71.2436 18.5123C70.2771 18.3472 69.0442 18.2949 68.2022 18.3834ZM32.9603 26.3036V33.8772H38.1204H43.2804V32.6917V31.5063H39.3495H35.4187L35.4301 29.4098L35.4415 27.3134L38.9218 27.3021L42.4021 27.2909V26.1279V24.965L38.9218 24.9537L35.4415 24.9425V23.0107V21.0789L39.1853 21.0676L42.9291 21.0564V19.8932V18.7299H37.9447H32.9603V26.3036ZM45.6518 26.303V33.8772H46.8812H48.1107L48.1218 28.1086L48.133 22.34L52.039 28.1086L55.945 33.8772H57.3857H58.8263V26.3036V18.7299H57.5969H56.3674L56.3563 24.4841L56.3451 30.2383L52.4966 24.4951L48.648 18.7519L47.1499 18.7403L45.6518 18.7288V26.303ZM78.2807 26.303V33.8772H79.5101H80.7396L80.7507 28.1013L80.7619 22.3255L84.6703 28.1004L88.5788 33.8753L90.0389 33.8763L91.4991 33.8772V26.3036V18.7299H90.2477H88.9963L88.9851 24.4754L88.974 30.2209L85.1297 24.4864L81.2854 18.7519L79.7831 18.7403L78.2807 18.7288V26.303ZM6.96074 22.2094C6.98941 22.4087 7.08273 22.9371 7.16815 23.3839C7.31008 24.1262 7.32457 24.2755 7.3363 25.1181C7.34333 25.6252 7.36353 26.136 7.38114 26.2532C7.41117 26.4533 7.40806 26.4635 7.33059 26.4198C6.8867 26.1695 4.6732 24.0327 4.55893 23.7442C4.53671 23.688 4.77689 23.453 5.33777 22.9821C5.8341 22.5653 6.80809 21.8472 6.87704 21.8472C6.89438 21.8472 6.93206 22.0102 6.96074 22.2094ZM3.54906 26.0292C4.71655 27.4734 6.18015 28.8687 7.81932 30.0998L8.39061 30.5288L8.59842 31.0066C9.48721 33.0497 11.0789 35.1198 12.8253 36.5037C13.1393 36.7525 13.4555 37.0038 13.5279 37.0621L13.6597 37.1681L13.484 37.1474C13.3874 37.136 13.0218 37.0959 12.6716 37.0581C10.7945 36.8558 8.67913 36.3492 7.07241 35.7172C6.34483 35.431 5.18749 34.8389 4.63649 34.4708C1.57807 32.4279 0.713645 29.6807 2.19767 26.72C2.44829 26.2201 2.96394 25.4035 3.02907 25.4035C3.03693 25.4035 3.27095 25.6851 3.54906 26.0292Z" fill="black"/>
<path d="M24.6058 24.2637C24.6618 24.2637 24.7655 24.1099 24.9647 23.7314L25.2448 23.1992L25.5276 23.7314C25.8452 24.3292 25.8626 24.3403 26.1873 24.15C26.294 24.0875 26.3863 24.0431 26.3925 24.0512C26.3987 24.0594 26.3366 24.438 26.2546 24.8925C26.1381 25.5382 26.1169 25.7327 26.1575 25.7816C26.1861 25.816 26.2261 25.8442 26.2464 25.8442C26.2667 25.8442 26.4461 25.6539 26.6452 25.4213L27.007 24.9983L27.0785 25.2127C27.1656 25.4742 27.2182 25.4869 27.7255 25.3688C27.9244 25.3225 28.0866 25.297 28.0861 25.312C28.0856 25.327 28.0289 25.5597 27.9602 25.8291C27.8914 26.0985 27.8474 26.3378 27.8623 26.3609C27.8772 26.384 27.9651 26.4414 28.0576 26.4885L28.2257 26.5742L27.5087 27.1789C27.1143 27.5115 26.7736 27.8215 26.7518 27.8679C26.7168 27.9422 26.7503 28.131 26.84 28.3647C26.855 28.4038 26.6784 28.3957 26.1557 28.3336C25.7683 28.2876 25.4196 28.2621 25.381 28.2769C25.3193 28.3006 25.3126 28.4017 25.3265 29.1047L25.3424 29.9054L25.2365 29.9204L25.1307 29.9353L25.1602 29.118C25.1862 28.3977 25.1815 28.2974 25.1207 28.2741C25.0827 28.2595 24.7469 28.2834 24.3743 28.3272C24.0018 28.371 23.6867 28.3966 23.6742 28.3841C23.6617 28.3715 23.6798 28.2672 23.7144 28.1522C23.749 28.0372 23.7664 27.9146 23.753 27.8798C23.7396 27.8449 23.3951 27.5322 22.9874 27.185L22.2461 26.5536L22.3964 26.504C22.6585 26.4175 22.6655 26.383 22.5314 25.8427C22.4652 25.5759 22.4232 25.3455 22.438 25.3306C22.4529 25.3158 22.614 25.3363 22.7961 25.3764C23.3099 25.4893 23.3312 25.4845 23.4024 25.2405C23.4358 25.1259 23.4809 25.0414 23.5025 25.0529C23.5242 25.0644 23.6779 25.2324 23.8442 25.4261C24.1658 25.8009 24.2413 25.865 24.3107 25.8221C24.3794 25.7796 24.3636 25.6005 24.2225 24.8196C24.1501 24.4186 24.0908 24.0796 24.0908 24.0665C24.0908 24.0534 24.1889 24.0924 24.3089 24.1531C24.4288 24.2139 24.5625 24.2637 24.6058 24.2637Z" fill="#EB2028"/>
</svg>
