<svg width="142" height="48" viewBox="0 0 142 48" fill="none" xmlns="http://www.w3.org/2000/svg">
<path d="M11.9268 31.3307V36C19.7609 36 25.9014 28.4309 23.3604 20.153C22.8034 18.3749 21.8259 16.7581 20.511 15.4401C19.196 14.1222 17.5827 13.1423 15.8084 12.5838C7.55203 10.0361 0 16.1909 0 23.9731H4.6582C4.6652 22.7844 4.95879 21.6151 5.51396 20.5646C6.06913 19.5141 6.86945 18.6136 7.84674 17.9398C8.82403 17.2661 9.94935 16.839 11.1268 16.695C12.3043 16.5509 13.4991 16.6942 14.6095 17.1126C15.5661 17.4599 16.4349 18.0136 17.1544 18.7346C17.8739 19.4556 18.4265 20.3262 18.773 21.2849C20.6684 26.4248 16.9038 31.2834 11.9985 31.3304V26.7325H7.34032V31.3307H3.81162V28.3599H0.851172V31.3307H3.81162V34.9393H7.34032V31.3307H11.9268Z" fill="#141A1F"/>
<path fill-rule="evenodd" clip-rule="evenodd" d="M37.4762 17.5301C39.4531 17.5301 41.2174 18.03 42.5581 18.9502C43.3347 19.4459 43.8987 20.1531 44.3239 21.2082C44.7477 22.0575 44.9587 23.1893 44.9587 24.3921C44.9587 25.595 44.749 26.7268 44.3239 27.647C43.9391 28.5211 43.3305 29.2776 42.5596 29.8397C41.148 30.8299 39.454 31.3252 37.4775 31.3252H33.1722V17.5301H37.4762ZM37.0539 19.8705H35.7132V29.0685H37.1233C38.6764 29.0685 39.8768 28.7164 40.7938 28.1483C41.7857 27.4411 42.3526 26.1616 42.3526 24.3992C42.3526 22.6369 41.8524 21.4269 40.7938 20.7907C39.8059 20.1545 38.5363 19.8705 37.0539 19.8705Z" fill="#141A1F"/>
<path d="M47.4195 17.4273C47.6016 17.3541 47.7967 17.319 47.9929 17.3242H47.9873C48.4124 17.3242 48.768 17.4662 48.9793 17.7502C49.1187 17.8886 49.2282 18.0541 49.3013 18.2366C49.3744 18.419 49.4095 18.6145 49.4043 18.8111C49.4043 19.205 49.2482 19.5829 48.9702 19.8614C48.6923 20.14 48.3151 20.2965 47.922 20.2965C47.5288 20.2965 47.1518 20.14 46.8738 19.8614C46.5959 19.5829 46.4396 19.205 46.4396 18.8111C46.4318 18.6076 46.4726 18.4051 46.5586 18.2206C46.6447 18.036 46.7735 17.8748 46.9343 17.7502C47.0724 17.6105 47.2374 17.5006 47.4195 17.4273Z" fill="#141A1F"/>
<path d="M49.1819 21.5689H46.7217V31.2611H49.1819V21.5689Z" fill="#141A1F"/>
<path fill-rule="evenodd" clip-rule="evenodd" d="M57.8732 22.2993C57.1939 21.7312 56.3953 21.3602 55.5435 21.3602C54.9215 21.3464 54.3038 21.466 53.7315 21.711C53.1594 21.9559 52.6462 22.3205 52.2259 22.7803C51.3444 23.716 50.8633 24.9602 50.8854 26.2468C50.8854 27.5916 51.3104 28.793 52.1608 29.7133C53.0111 30.6334 54.1363 31.0582 55.4784 31.0582C56.3419 31.0717 57.1857 30.798 57.8775 30.2799V30.4915C57.8775 31.2697 57.6664 31.9117 57.2427 32.3377C56.8189 32.7637 56.2507 32.9739 55.4784 32.9739C54.3446 32.9739 53.6431 32.5477 52.7971 31.3464L51.0964 32.9739L51.1673 33.0449C51.5202 33.5405 52.0843 34.039 52.79 34.5304C53.4958 35.0217 54.4125 35.2403 55.4713 35.2403C56.9537 35.2403 58.083 34.8143 58.929 33.8954C59.7751 32.9767 60.2698 31.8435 60.2698 30.358V21.5689H57.8732V22.2993ZM55.6796 28.8612C56.3881 28.8612 56.955 28.6468 57.3802 28.1512L57.3958 28.1469C57.8194 27.6569 58.0306 27.0108 58.0306 26.2368C58.0306 25.4629 57.8209 24.8253 57.3958 24.3268C56.9706 23.8283 56.4037 23.6167 55.6952 23.6167C54.9867 23.6167 54.4198 23.8312 53.9945 24.3268C53.5694 24.8224 53.3441 25.4671 53.3441 26.2411C53.3441 27.0151 53.5539 27.6527 53.9789 28.1512C54.4042 28.6496 54.9711 28.8612 55.6796 28.8612Z" fill="#141A1F"/>
<path d="M65.0172 21.5675H62.5471L62.5315 21.5689V31.2598H65.0172V21.5675Z" fill="#141A1F"/>
<path d="M63.1589 17.4274C63.3406 17.3545 63.5355 17.3194 63.7311 17.3242C63.9269 17.3192 64.1217 17.3542 64.3038 17.4269C64.4861 17.4998 64.6515 17.609 64.7903 17.7479C64.9292 17.8869 65.0383 18.0526 65.1111 18.2351C65.184 18.4177 65.2191 18.6131 65.2141 18.8097C65.2141 19.2036 65.058 19.5814 64.7799 19.86C64.5021 20.1386 64.1249 20.2951 63.7318 20.2951C63.3386 20.2951 62.9616 20.1386 62.6837 19.86C62.4057 19.5814 62.2496 19.2036 62.2496 18.8097C62.2446 18.6132 62.2796 18.4179 62.3524 18.2355C62.4252 18.0531 62.5341 17.8874 62.6728 17.7484C62.8114 17.6095 62.9768 17.5003 63.1589 17.4274Z" fill="#141A1F"/>
<path d="M67.8954 18.9502H70.2919L70.3656 21.6385H72.6174V23.8326H70.3584V27.505C70.3584 28.1469 70.4308 28.5715 70.6418 28.7831C70.7836 28.9961 71.2087 29.0671 71.7756 29.0671L72.6259 28.9961V31.1902H72.4843C72.0869 31.2492 71.6852 31.2728 71.2839 31.2611C70.0892 31.2611 69.1652 30.9787 68.672 30.483C68.1788 29.9874 67.8954 29.0728 67.8954 27.7947V23.7616H66.4784V21.5689H67.8954V18.9502Z" fill="#141A1F"/>
<path d="M86.4531 17.5301H83.983L83.9858 17.5386V31.3252H86.4531V17.5301Z" fill="#141A1F"/>
<path d="M109.887 29.0032C110.325 28.666 110.727 28.2854 111.088 27.8671V27.8586L112.71 29.4861C111.722 30.9004 110.311 31.6788 108.547 31.6788C107.898 31.6899 107.255 31.5633 106.659 31.3073C106.063 31.0513 105.528 30.6716 105.089 30.1933C104.166 29.273 103.672 28.0049 103.672 26.5848C103.656 25.2427 104.164 23.9476 105.089 22.9763C106.076 21.9864 107.206 21.4908 108.547 21.4908C110.171 21.4908 111.511 22.127 112.57 23.4719L110.947 25.034C110.242 24.1848 109.396 23.6892 108.619 23.6892C108.285 23.6739 107.952 23.7361 107.646 23.8711C107.34 24.0061 107.069 24.2102 106.855 24.4674C106.357 25.034 106.146 25.6702 106.146 26.5194C106.146 27.3687 106.36 28.0035 106.855 28.5715C107.078 28.8164 107.349 29.0125 107.651 29.1476C107.954 29.2827 108.281 29.3539 108.612 29.3568C109.061 29.3592 109.503 29.2368 109.887 29.0032Z" fill="#141A1F"/>
<path fill-rule="evenodd" clip-rule="evenodd" d="M119.622 21.8416C120.181 22.0971 120.667 22.4874 121.039 22.9777L121.015 22.9663C121.376 23.3913 121.62 23.9033 121.723 24.4518C121.927 25.0454 122.022 25.6705 122.007 26.2979V27.2181H115.513C115.587 27.8515 115.797 28.35 116.222 28.7036C116.708 29.0803 117.308 29.2805 117.923 29.2716C118.341 29.2873 118.756 29.1891 119.123 28.9876C119.39 28.8721 119.631 28.7035 119.831 28.492C119.906 28.4175 119.98 28.3517 120.051 28.2888C120.184 28.1705 120.306 28.062 120.398 27.9239L122.021 29.4861L121.95 29.5571C120.891 30.9019 119.549 31.5382 117.927 31.5382C116.444 31.5382 115.313 31.0382 114.398 30.118C113.482 29.1978 113.057 27.9949 113.057 26.5095C113.032 25.2042 113.456 23.9299 114.258 22.901C115.105 21.9112 116.235 21.4156 117.575 21.4156C118.281 21.3985 118.981 21.5443 119.622 21.8416ZM116.381 24.1109C116.073 24.4269 115.854 24.8189 115.746 25.247H119.491C119.422 24.821 119.28 24.395 118.997 24.1109C118.715 23.7573 118.223 23.6153 117.656 23.6153C117.421 23.6049 117.186 23.6436 116.966 23.7289C116.747 23.8143 116.547 23.9443 116.381 24.1109Z" fill="#141A1F"/>
<path fill-rule="evenodd" clip-rule="evenodd" d="M127.392 21.4255C128.662 21.4255 129.718 21.7095 130.426 22.3457L130.43 22.3472C131.211 22.9834 131.564 23.8993 131.564 25.0354V31.2611H129.165V30.483C128.317 31.1235 127.464 31.4771 126.553 31.4771C125.642 31.4771 124.858 31.2641 124.225 30.6988C123.591 30.1336 123.308 29.4264 123.308 28.5062C123.308 27.5206 123.665 26.6686 124.441 26.1005C125.218 25.5325 126.206 25.2484 127.406 25.2484C128.006 25.2443 128.602 25.3403 129.171 25.5325V25.0369C129.178 24.8333 129.137 24.6309 129.052 24.4463C128.965 24.2618 128.837 24.1006 128.676 23.976C128.314 23.6885 127.862 23.5377 127.4 23.55C126.413 23.55 125.707 23.9093 125.072 24.9701L123.513 23.4847C123.86 22.7746 124.501 22.2761 125.136 21.9225C125.85 21.6162 126.615 21.4475 127.392 21.4255ZM127.259 27.2977C126.76 27.2977 126.408 27.3701 126.125 27.5817L126.126 27.5774C125.995 27.6663 125.884 27.7813 125.799 27.9151C125.714 28.049 125.657 28.1989 125.632 28.3557C125.632 28.6397 125.769 28.8527 125.985 29.0657C126.2 29.2787 126.552 29.3497 126.977 29.3497C127.755 29.3642 128.51 29.0866 129.094 28.5715V27.6513C128.504 27.4381 127.885 27.3188 127.259 27.2977Z" fill="#141A1F"/>
<path d="M138.118 21.3517C139.319 21.3517 140.233 21.7095 140.941 22.4877C141.576 23.266 141.929 24.3273 142 25.6716V31.3393H139.541V25.6802C139.552 25.1192 139.378 24.5702 139.047 24.118C138.893 23.93 138.698 23.7807 138.476 23.682C138.255 23.5834 138.013 23.5382 137.771 23.55C137.502 23.5416 137.235 23.5946 136.99 23.7048C136.744 23.815 136.527 23.9796 136.354 24.1862C136.001 24.6094 135.859 25.2442 135.859 25.9542V31.328H133.389V21.6357H135.79V22.2037C136.354 21.6357 137.13 21.3517 138.118 21.3517Z" fill="#141A1F"/>
<path fill-rule="evenodd" clip-rule="evenodd" d="M77.9176 21.4255C79.1874 21.4255 80.2432 21.7095 80.9517 22.3457L80.9532 22.3472C81.6617 22.9834 82.0868 23.8993 82.0868 25.0354V31.2598H79.6876V30.4816C78.8401 31.122 77.987 31.4756 77.0758 31.4756C76.1646 31.4756 75.3809 31.2626 74.7474 30.6975C74.1138 30.1322 73.8304 29.425 73.8304 28.5048C73.8304 27.5192 74.1875 26.6671 74.9642 26.0991C75.7408 25.531 76.729 25.247 77.9289 25.247C78.5286 25.2429 79.125 25.3389 79.6932 25.531V25.0354C79.7012 24.8319 79.6603 24.6295 79.5744 24.4449C79.4883 24.2604 79.3594 24.0991 79.1987 23.9746C78.8366 23.6871 78.3851 23.5363 77.9233 23.5486C76.9354 23.5486 76.2297 23.9079 75.5949 24.9687L74.0361 23.4832C74.3832 22.7732 75.0237 22.2747 75.6586 21.9211C76.3738 21.6149 77.1402 21.4467 77.9176 21.4255ZM77.7106 27.2977C77.2118 27.2977 76.8605 27.3701 76.577 27.5817L76.5783 27.5774C76.3582 27.797 76.1892 28.0628 76.0838 28.3557C76.0838 28.6397 76.2212 28.8527 76.4367 29.0657C76.652 29.2787 77.0036 29.3497 77.4286 29.3497C78.2066 29.3642 78.9618 29.0866 79.5458 28.5715V27.6513C78.9563 27.4381 78.3371 27.3188 77.7106 27.2977Z" fill="#141A1F"/>
<path fill-rule="evenodd" clip-rule="evenodd" d="M91.3616 30.3486C92.523 31.1256 93.8883 31.54 95.2849 31.5395C97.1548 31.532 98.9459 30.7843 100.268 29.4589C101.59 28.1336 102.335 26.3384 102.342 24.4645C102.342 23.0651 101.928 21.6971 101.152 20.5336C100.376 19.37 99.2735 18.4632 97.9832 17.9278C96.693 17.3924 95.2732 17.2525 93.9035 17.5257C92.534 17.7989 91.2759 18.473 90.2886 19.4628C89.3012 20.4525 88.6291 21.7134 88.357 23.086C88.0849 24.4586 88.2252 25.8813 88.76 27.174C89.2947 28.4667 90.2002 29.5715 91.3616 30.3486ZM92.7339 20.5679C93.4894 20.0637 94.377 19.7952 95.2849 19.7966L95.2791 19.7995C95.882 19.7983 96.4792 19.9165 97.0364 20.1472C97.5934 20.3779 98.0996 20.7166 98.526 21.1439C98.9522 21.5711 99.29 22.0785 99.52 22.6369C99.75 23.1953 99.8678 23.7937 99.8665 24.3978C99.866 25.3074 99.5961 26.1965 99.0912 26.9524C98.5863 27.7084 97.8691 28.2974 97.0303 28.6447C96.1913 28.9921 95.2684 29.0824 94.3781 28.9041C93.4881 28.7257 92.6706 28.2869 92.0295 27.6429C91.3883 26.999 90.9521 26.179 90.7762 25.2866C90.6 24.3943 90.6921 23.4696 91.0407 22.6297C91.3891 21.7897 91.9782 21.0722 92.7339 20.5679Z" fill="#141A1F"/>
</svg>
