<svg width="148" height="34" viewBox="0 0 148 34" fill="none" xmlns="http://www.w3.org/2000/svg">
<path fill-rule="evenodd" clip-rule="evenodd" d="M24.7306 1.51647C24.7306 2.35441 24.057 3.03368 23.226 3.03368C22.3949 3.03368 21.7202 2.35441 21.7202 1.51647C21.7202 0.678903 22.3949 0 23.226 0C24.057 0 24.7306 0.678903 24.7306 1.51647Z" fill="#0D318F"/>
<mask id="mask0_773_8034" style="mask-type:luminance" maskUnits="userSpaceOnUse" x="0" y="0" width="31" height="32">
<path fill-rule="evenodd" clip-rule="evenodd" d="M0 0.303711H30.8882V31.1468H0V0.303711Z" fill="#0D318F"/>
</mask>
<g mask="url(#mask0_773_8034)">
<path fill-rule="evenodd" clip-rule="evenodd" d="M12.1506 2.65332C14.3017 2.75605 16.4753 3.04852 18.5952 3.56401C20.7176 4.08425 22.8106 4.81543 24.8064 5.90562C25.8025 6.45328 26.7743 7.09379 27.6841 7.88566C28.5881 8.67863 29.4456 9.6299 30.0746 10.8367C30.3869 11.4378 30.6336 12.105 30.7689 12.8102C30.8371 13.1626 30.8773 13.5231 30.8857 13.8843C30.8886 13.9742 30.8886 14.0649 30.8871 14.1548L30.8839 14.3106L30.8781 14.4049C30.8668 14.6111 30.8491 14.7825 30.8237 14.9606C30.7243 15.6717 30.5034 16.3498 30.2055 16.9556C29.9088 17.5636 29.5385 18.101 29.1358 18.5774C28.3254 19.5294 27.3925 20.2452 26.4352 20.8349C25.4743 21.4217 24.4803 21.8805 23.4737 22.2567C21.4594 23.0054 19.3965 23.4346 17.3353 23.665C16.3037 23.7779 15.2721 23.839 14.2429 23.8514C13.2135 23.8668 12.1855 23.8254 11.177 23.7542C10.1646 23.684 9.14311 23.5823 8.12996 23.4149C7.11609 23.2493 6.1189 23.0157 5.14384 22.7451L5.72315 22.4581L-0.000244141 33.4964L4.78654 22.0125L4.93164 21.6542L5.36512 21.7255C6.33873 21.886 7.30871 22.0048 8.27869 22.0574C9.24867 22.1123 10.223 22.1042 11.2042 22.0666C12.1902 22.0275 13.1587 21.9712 14.1211 21.8567C15.0831 21.7463 16.0367 21.5906 16.9762 21.3891C18.8516 20.9841 20.6802 20.3944 22.3416 19.5733C23.1705 19.1631 23.9554 18.6925 24.6534 18.1599C25.3491 17.6287 25.9578 17.0284 26.3833 16.3988C26.8128 15.7678 27.0351 15.128 27.0417 14.553C27.0507 13.9706 26.8737 13.4335 26.5074 12.8881C26.1439 12.3455 25.5914 11.8213 24.9388 11.3643C24.2848 10.9054 23.5339 10.5088 22.7381 10.1743C21.1427 9.50487 19.3787 9.07493 17.5875 8.82962C16.6907 8.70715 15.7832 8.63184 14.8734 8.59893C14.4185 8.58248 13.9629 8.57736 13.5073 8.58175C13.2791 8.58431 13.051 8.58943 12.8235 8.59711L12.1314 8.62745L12.1506 2.65332Z" fill="#0D318F"/>
</g>
<mask id="mask1_773_8034" style="mask-type:luminance" maskUnits="userSpaceOnUse" x="0" y="0" width="20" height="24">
<path fill-rule="evenodd" clip-rule="evenodd" d="M0 0.327148H19.2378V23.0319H0V0.327148Z" fill="#0D318F"/>
</mask>
<g mask="url(#mask1_773_8034)">
<path fill-rule="evenodd" clip-rule="evenodd" d="M2.61793 28.0791C2.92409 28.1018 3.30352 28.063 3.70508 27.9665C4.51436 27.7749 5.40672 27.3596 6.27259 26.82C7.14245 26.2793 7.99599 25.6154 8.81725 24.8842C9.63923 24.1516 10.4315 23.3495 11.195 22.5068C12.7218 20.8181 14.1351 18.9686 15.4664 17.0474C16.7976 15.1247 18.0477 13.1261 19.2378 11.085C18.4967 13.3319 17.6856 15.5638 16.765 17.768C15.8422 19.971 14.8149 22.1485 13.5892 24.2675C12.9754 25.3262 12.3108 26.37 11.5676 27.3856C10.8232 28.4008 10.0027 29.3912 9.04686 30.3213C8.08776 31.247 6.99844 32.1269 5.63778 32.8179C4.95582 33.1594 4.20458 33.4518 3.35176 33.6306C2.92554 33.7191 2.47428 33.7783 1.98458 33.7886C1.73936 33.7929 1.48508 33.7853 1.21084 33.7567C1.07336 33.7421 0.930804 33.7227 0.774824 33.6931C0.696833 33.6781 0.615216 33.6606 0.524529 33.6379C0.431304 33.6138 0.165775 33.5553 0 33.4953C0 33.4953 2.4663 28.0681 2.61793 28.0791Z" fill="#0D318F"/>
</g>
<path fill-rule="evenodd" clip-rule="evenodd" d="M42.6844 9.68373H43.3823C44.7462 9.68373 45.7485 9.43184 46.3876 8.92659C47.0275 8.42207 47.3471 7.82872 47.3471 7.14762C47.3471 6.76338 47.2462 6.41498 47.0446 6.10203C46.8432 5.78945 46.5313 5.54304 46.1083 5.3639C45.6861 5.18366 45.0096 5.09373 44.0802 5.09373H42.6844V9.68373ZM39.0464 14.3958V3.20801H45.1768C46.9593 3.20801 48.2126 3.35205 48.9374 3.64014C49.6621 3.92786 50.2091 4.33549 50.577 4.86194C50.9452 5.38839 51.1294 6.05085 51.1294 6.85003C51.1294 8.38624 50.5019 9.55687 49.2457 10.3619C47.9902 11.1677 46.3067 11.5698 44.1963 11.5698H42.6844V17.8284L39.0464 14.3958Z" fill="#0D318F"/>
<path fill-rule="evenodd" clip-rule="evenodd" d="M53.559 17.1059V6.90439H57.1247V8.8274C57.5506 8.17117 58.1321 7.64727 58.8717 7.25755C59.6103 6.86674 60.4333 6.67188 61.3409 6.67188C61.5579 6.67188 61.7788 6.69052 62.004 6.72744V9.1802C61.506 9.03835 61.0355 8.96669 60.5944 8.96669C59.8878 8.96669 59.2454 9.10452 58.6671 9.38018C58.0882 9.65583 57.5746 10.0726 57.1247 10.6298V17.1059H53.559Z" fill="#0D318F"/>
<path fill-rule="evenodd" clip-rule="evenodd" d="M66.3818 10.8541H71.0677C71.0677 9.91893 70.8679 9.2499 70.4677 8.84738C70.0665 8.44487 69.5493 8.24306 68.9152 8.24306C68.2253 8.24306 67.6586 8.46534 67.2143 8.9077C66.7699 9.3508 66.4924 9.99936 66.3818 10.8541ZM74.5733 16.6147C72.8891 16.9986 71.293 17.1905 69.784 17.1905C68.3548 17.1905 67.1036 16.9847 66.0296 16.5731C64.9562 16.161 64.1302 15.5169 63.5513 14.6402C62.9727 13.7639 62.6836 12.8115 62.6836 11.7834C62.6836 10.8296 62.9284 9.94818 63.4196 9.14022C63.9108 8.3319 64.6246 7.69394 65.5627 7.22635C66.5008 6.75876 67.6565 6.52441 69.0295 6.52441C70.7133 6.52441 72.0587 6.93973 73.065 7.76962C74.0709 8.59951 74.5733 10.1456 74.5733 12.4057H66.442C66.5214 13.0934 66.7224 13.6352 67.0449 14.0315C67.3674 14.4281 67.803 14.7425 68.3522 14.9747C68.9018 15.2068 69.6381 15.3235 70.561 15.3235C71.7471 15.3235 73.0849 15.1096 74.5733 14.6822V16.6147Z" fill="#0D318F"/>
<path fill-rule="evenodd" clip-rule="evenodd" d="M77.9288 16.9586V8.47581H76.1093V6.75717H77.9288V6.02306C77.9288 4.59872 78.3525 3.58128 79.1998 2.97074C80.0472 2.36093 81.2494 2.05566 82.8081 2.05566C83.8604 2.05566 84.9443 2.17375 86.0608 2.40883V4.26676C85.0484 3.93919 84.1408 3.77467 83.338 3.77467C82.9604 3.77467 82.6372 3.83207 82.3681 3.94614C82.0989 4.0613 81.8863 4.25323 81.73 4.52231C81.5733 4.79248 81.4946 5.25824 81.4946 5.92106V6.75717H84.8434V8.47581H81.4946V16.9586H77.9288Z" fill="#0D318F"/>
<path fill-rule="evenodd" clip-rule="evenodd" d="M89.5366 10.8541H94.2225C94.2225 9.91893 94.0226 9.2499 93.6225 8.84738C93.2213 8.44487 92.7041 8.24306 92.07 8.24306C91.38 8.24306 90.8134 8.46534 90.3691 8.9077C89.9247 9.3508 89.6479 9.99936 89.5366 10.8541ZM97.7281 16.6147C96.0438 16.9986 94.4478 17.1905 92.9388 17.1905C91.5095 17.1905 90.2584 16.9847 89.1851 16.5731C88.111 16.161 87.285 15.5169 86.7061 14.6402C86.1275 13.7639 85.8384 12.8115 85.8384 11.7834C85.8384 10.8296 86.0832 9.94818 86.5744 9.14022C87.0655 8.3319 87.7794 7.69394 88.7175 7.22635C89.6555 6.75876 90.8112 6.52441 92.1842 6.52441C93.8688 6.52441 95.2135 6.93973 96.2198 7.76962C97.2257 8.59951 97.7281 10.1456 97.7281 12.4057H89.5968C89.6762 13.0934 89.8772 13.6352 90.1997 14.0315C90.5221 14.4281 90.9578 14.7425 91.5077 14.9747C92.0566 15.2068 92.7929 15.3235 93.7158 15.3235C94.9019 15.3235 96.2397 15.1096 97.7281 14.6822V16.6147Z" fill="#0D318F"/>
<path fill-rule="evenodd" clip-rule="evenodd" d="M100.71 16.9594V6.75791H104.276V8.68092C104.702 8.02468 105.284 7.50115 106.023 7.11107C106.761 6.72062 107.585 6.52539 108.493 6.52539C108.71 6.52539 108.93 6.54404 109.155 6.58096V9.03371C108.657 8.89186 108.187 8.82021 107.746 8.82021C107.039 8.82021 106.396 8.95804 105.818 9.23369C105.239 9.50935 104.726 9.92612 104.276 10.4833V16.9594H100.71Z" fill="#0D318F"/>
<path fill-rule="evenodd" clip-rule="evenodd" d="M111.161 16.9594V6.75791H114.727V8.68092C115.153 8.02468 115.735 7.50115 116.474 7.11107C117.213 6.72062 118.036 6.52539 118.944 6.52539C119.161 6.52539 119.381 6.54404 119.606 6.58096V9.03371C119.108 8.89186 118.638 8.82021 118.197 8.82021C117.49 8.82021 116.847 8.95804 116.269 9.23369C115.691 9.50935 115.177 9.92612 114.727 10.4833V16.9594H111.161Z" fill="#0D318F"/>
<path fill-rule="evenodd" clip-rule="evenodd" d="M124.13 10.8541H128.817C128.817 9.91893 128.616 9.2499 128.216 8.84738C127.815 8.44487 127.297 8.24306 126.663 8.24306C125.973 8.24306 125.407 8.46534 124.962 8.9077C124.519 9.3508 124.241 9.99936 124.13 10.8541ZM132.322 16.6147C130.638 16.9986 129.041 17.1905 127.533 17.1905C126.104 17.1905 124.852 16.9847 123.778 16.5731C122.705 16.161 121.878 15.5169 121.299 14.6402C120.721 13.7639 120.432 12.8115 120.432 11.7834C120.432 10.8296 120.677 9.94818 121.168 9.14022C121.659 8.3319 122.373 7.69394 123.311 7.22635C124.25 6.75876 125.405 6.52441 126.778 6.52441C128.462 6.52441 129.807 6.93973 130.813 7.76962C131.819 8.59951 132.322 10.1456 132.322 12.4057H124.19C124.269 13.0934 124.47 13.6352 124.793 14.0315C125.115 14.4281 125.552 14.7425 126.101 14.9747C126.65 15.2068 127.386 15.3235 128.31 15.3235C129.496 15.3235 130.833 15.1096 132.322 14.6822V16.6147Z" fill="#0D318F"/>
<path fill-rule="evenodd" clip-rule="evenodd" d="M143.508 9.42187C143.02 8.98865 142.561 8.69544 142.128 8.54043C141.696 8.38579 141.256 8.30865 140.808 8.30865C139.865 8.30865 139.159 8.66619 138.692 9.38019C138.224 10.0949 137.99 10.9347 137.99 11.8991C137.99 12.8519 138.208 13.6108 138.645 14.1771C139.08 14.7431 139.712 15.026 140.537 15.026C141.064 15.026 141.584 14.8827 142.098 14.5946C142.614 14.3069 143.083 13.9278 143.508 13.458V9.42187ZM143.508 16.9585V15.026C143.056 15.7477 142.475 16.2888 141.765 16.6496C141.056 17.0101 140.213 17.1907 139.238 17.1907C137.636 17.1907 136.396 16.7279 135.515 15.8018C134.635 14.8761 134.195 13.654 134.195 12.1364C134.195 10.5325 134.687 9.19594 135.67 8.12731C136.653 7.05905 138.025 6.52456 139.785 6.52456C140.261 6.52456 140.697 6.56368 141.093 6.64082C141.49 6.71832 141.87 6.83787 142.235 6.99873C142.6 7.15996 143.024 7.42282 143.508 7.78841V2.28809H147.073V16.9585H143.508Z" fill="#0D318F"/>
<path fill-rule="evenodd" clip-rule="evenodd" d="M39.0463 30.946L39.0286 15.8672L50.5635 26.5885V17.1954H53.5391V30.946H50.2105L42.0219 22.9275V30.946H39.0463Z" fill="#0D318F"/>
<path fill-rule="evenodd" clip-rule="evenodd" d="M59.2927 24.842H63.9793C63.9793 23.9068 63.7787 23.2382 63.3786 22.8357C62.9774 22.4328 62.4602 22.2313 61.8261 22.2313C61.1361 22.2313 60.5695 22.4529 60.1252 22.8956C59.6808 23.3387 59.404 23.9873 59.2927 24.842ZM67.4849 30.6027C65.8 30.9865 64.2039 31.1785 62.6949 31.1785C61.2656 31.1785 60.0145 30.973 58.9412 30.561C57.8671 30.149 57.0411 29.5048 56.4622 28.6285C55.8836 27.7518 55.5945 26.7994 55.5945 25.7714C55.5945 24.8179 55.8393 23.9361 56.3305 23.1285C56.8216 22.3194 57.5355 21.6815 58.4743 21.2139C59.4116 20.7463 60.5681 20.5127 61.9411 20.5127C63.6249 20.5127 64.9696 20.9276 65.9759 21.7572C66.9818 22.5878 67.4849 24.1331 67.4849 26.3936H59.3529C59.4323 27.0813 59.6333 27.6231 59.9558 28.0194C60.2782 28.4164 60.7139 28.7305 61.2638 28.9626C61.8127 29.1948 62.549 29.3114 63.4726 29.3114C64.6588 29.3114 65.9958 29.0975 67.4849 28.6701V30.6027Z" fill="#0D318F"/>
<path fill-rule="evenodd" clip-rule="evenodd" d="M76.8165 30.8904C75.9647 31.0823 75.294 31.1781 74.8043 31.1781C73.6403 31.1781 72.7363 31.0509 72.0943 30.7975C71.4511 30.5434 70.9694 30.1976 70.6484 29.7614C70.3273 29.3245 70.1666 28.6822 70.1666 27.8337V22.4631H68.6844V20.7445H70.1666L73.7324 18.71V20.7445H76.5636V22.4631H73.7324V27.4644C73.7324 28.2007 73.9011 28.6968 74.2384 28.9538C74.5754 29.2101 75.0702 29.3388 75.7206 29.3388C76.025 29.3388 76.3906 29.3015 76.8165 29.2273V30.8904Z" fill="#0D318F"/>
<path fill-rule="evenodd" clip-rule="evenodd" d="M81.1091 30.9456L77.4265 20.7441H80.7427L83.3472 27.8896L86.1161 20.7441H89.1965L91.6962 27.9258L94.5031 20.7441H96.9904L93.0543 30.9456H89.6365L87.2261 23.9485L84.5269 30.9456H81.1091Z" fill="#0D318F"/>
<path fill-rule="evenodd" clip-rule="evenodd" d="M104.466 29.4598C105.479 29.4598 106.24 29.1176 106.75 28.4329C107.259 27.7488 107.514 26.8864 107.514 25.8456C107.514 24.8113 107.259 23.9504 106.75 23.2627C106.24 22.575 105.479 22.2317 104.466 22.2317C103.462 22.2317 102.706 22.575 102.196 23.2627C101.686 23.9504 101.431 24.8113 101.431 25.8456C101.431 26.8864 101.686 27.7488 102.196 28.4329C102.706 29.1176 103.462 29.4598 104.466 29.4598ZM104.466 31.1785C103.037 31.1785 101.81 30.9635 100.786 30.5332C99.762 30.1025 98.9814 29.469 98.4431 28.6328C97.9051 27.7967 97.636 26.8678 97.636 25.8456C97.636 24.83 97.9008 23.9054 98.4308 23.0726C98.9615 22.2394 99.7403 21.6047 100.768 21.1675C101.796 20.7313 103.029 20.5127 104.466 20.5127C105.912 20.5127 107.148 20.7313 108.171 21.1675C109.196 21.6047 109.974 22.2394 110.508 23.0726C111.043 23.9054 111.31 24.83 111.31 25.8456C111.31 26.8678 111.041 27.7967 110.502 28.6328C109.964 29.469 109.183 30.1025 108.159 30.5332C107.135 30.9635 105.904 31.1785 104.466 31.1785Z" fill="#0D318F"/>
<path fill-rule="evenodd" clip-rule="evenodd" d="M113.341 30.9463V20.7448H116.907V22.6679C117.332 22.0116 117.914 21.4881 118.653 21.098C119.392 20.7076 120.215 20.5127 121.123 20.5127C121.34 20.5127 121.561 20.5313 121.785 20.5683V23.021C121.287 22.8792 120.818 22.8075 120.377 22.8075C119.669 22.8075 119.027 22.9453 118.449 23.221C117.87 23.4967 117.357 23.9131 116.907 24.4706V30.9463H113.341Z" fill="#0D318F"/>
<path fill-rule="evenodd" clip-rule="evenodd" d="M123.323 30.9459V18.5146H126.889V25.5011H127.118L131.828 20.7444H134.811L130.45 25.118L136.143 30.9459H131.816L127.118 25.8451H126.889V30.9459H123.323Z" fill="#0D318F"/>
<path fill-rule="evenodd" clip-rule="evenodd" d="M137.353 30.6209V28.6047C139.119 29.1747 140.63 29.4594 141.882 29.4594C142.549 29.4594 143.081 29.3509 143.479 29.1348C143.876 28.9176 144.075 28.642 144.075 28.3075C144.075 28.0165 143.926 27.7715 143.63 27.5737C143.332 27.3818 142.878 27.1924 142.268 27.0067L141.064 26.6353C139.819 26.2514 138.899 25.8269 138.305 25.3623C137.71 24.9038 137.413 24.3064 137.413 23.569C137.413 22.6836 137.86 21.9524 138.756 21.3766C139.651 20.8004 141.019 20.5127 142.859 20.5127C143.935 20.5127 145.215 20.6333 146.701 20.8746V22.8075C145.272 22.4233 144.087 22.2313 143.148 22.2313C142.409 22.2313 141.854 22.329 141.485 22.5238C141.116 22.719 140.931 22.9717 140.931 23.281C140.931 23.5226 141.051 23.7365 141.292 23.9222C141.525 24.1079 141.95 24.2911 142.569 24.4706L143.605 24.777C145.316 25.2789 146.437 25.7651 146.966 26.2357C147.488 26.7128 147.749 27.2824 147.749 27.9452C147.749 28.8061 147.269 29.5604 146.31 30.2078C145.35 30.8549 143.955 31.1781 142.123 31.1781C140.565 31.1781 138.975 30.9927 137.353 30.6209Z" fill="#0D318F"/>
</svg>
