<svg width="174" height="40" viewBox="0 0 174 40" fill="none" xmlns="http://www.w3.org/2000/svg">
<path d="M12.8893 26.5938L5.95655 25.0872C5.64314 25.0158 5.36202 24.8438 5.15654 24.5976C4.95105 24.3515 4.8326 24.0449 4.81946 23.7251V16.291C4.83292 15.971 4.95142 15.6642 5.15681 15.4177C5.3622 15.1712 5.64314 14.9985 5.95655 14.9262L12.8893 13.4276L13.6339 10.5H5.55333C4.19504 10.4993 2.89162 11.0335 1.92764 11.9861C0.963665 12.9388 0.417433 14.2324 0.408203 15.5845L0.408203 24.4021C0.413893 25.7566 0.958564 27.0536 1.92292 28.0091C2.88728 28.9646 4.19272 29.5007 5.55333 29.5H13.6339L12.8893 26.5938ZM18.7898 26.5938L25.7252 25.0872C26.0381 25.0153 26.3187 24.843 26.5236 24.5969C26.7286 24.3508 26.8467 24.0445 26.8596 23.7251V16.291C26.8463 15.9714 26.7282 15.6649 26.5234 15.4184C26.3185 15.1719 26.0382 14.999 25.7252 14.9262L18.7898 13.4276L18.0479 10.5H26.1258C27.4841 10.4993 28.7875 11.0335 29.7515 11.9861C30.7154 12.9388 31.2617 14.2324 31.2709 15.5845V24.4021C31.2652 25.7566 30.7205 27.0536 29.7562 28.0091C28.7918 28.9646 27.4864 29.5007 26.1258 29.5H18.0613L18.7898 26.5938Z" fill="#373C41"/>
<path d="M12.8867 19.6444H18.7872V20.3776H12.8867V19.6444ZM145.303 29.0989H143.472C142.369 29.0975 141.311 28.6606 140.531 27.884C139.751 27.1074 139.312 26.0546 139.311 24.9563V19.6042C139.309 19.0593 139.416 18.5195 139.624 18.0157C139.833 17.5118 140.139 17.0539 140.526 16.6681C140.912 16.2823 141.371 15.9762 141.877 15.7673C142.382 15.5585 142.924 15.451 143.472 15.451H145.303C146.406 15.451 147.464 15.887 148.245 16.6632C149.026 17.4394 149.465 18.4924 149.466 19.5908V24.943C149.467 25.488 149.36 26.0279 149.151 26.5317C148.942 27.0356 148.636 27.4935 148.249 27.8794C147.862 28.2653 147.403 28.5717 146.898 28.7809C146.392 28.9901 145.85 29.0982 145.303 29.0989ZM143.472 17.8327C143.002 17.8334 142.551 18.0197 142.218 18.3508C141.886 18.6818 141.698 19.1307 141.698 19.5989V24.951C141.698 25.419 141.886 25.8675 142.218 26.1982C142.551 26.5288 143.002 26.7145 143.472 26.7145H145.303C145.535 26.7149 145.766 26.6695 145.982 26.5811C146.197 26.4927 146.393 26.3629 146.558 26.1991C146.723 26.0353 146.854 25.8408 146.943 25.6267C147.033 25.4125 147.079 25.1829 147.079 24.951V19.5989C147.079 19.1302 146.891 18.681 146.558 18.3498C146.225 18.0187 145.773 17.8327 145.303 17.8327H143.472ZM53.7117 10.9418H56.0961V28.7858H53.7117V10.9418ZM58.8918 15.7614H61.2789V28.7858H58.8918V15.7614ZM60.0853 10.9418C59.7658 10.9392 59.4526 11.0311 59.1856 11.2059C58.9186 11.3807 58.7098 11.6305 58.5857 11.9237C58.4615 12.2168 58.4277 12.5401 58.4884 12.8524C58.5491 13.1648 58.7016 13.4521 58.9266 13.678C59.1517 13.9039 59.439 14.0582 59.7522 14.1212C60.0655 14.1842 60.3905 14.1532 60.686 14.0321C60.9815 13.911 61.2342 13.7052 61.412 13.4409C61.5898 13.1766 61.6848 12.8656 61.6848 12.5475C61.6848 12.1239 61.5167 11.7176 61.2171 11.4168C60.9176 11.1161 60.5108 10.9454 60.0853 10.9418ZM45.1526 10.9418H42.2467C41.1473 12.8793 38.521 18.1913 35.8274 28.7858H38.3113C38.7333 27.1801 39.1446 25.6842 39.5559 24.3221H48.2682C48.6732 25.6816 49.0872 27.1694 49.5101 28.7858H51.994C49.3058 18.1913 46.6768 12.8793 45.5747 10.9418H45.1526ZM40.314 21.9137C41.2326 18.9826 42.3609 16.1209 43.6903 13.3503H44.1499C45.4846 16.1189 46.614 18.981 47.529 21.9137H40.314ZM134.719 10.9258H137.101V28.7885H134.719V10.9258ZM64.0746 10.9418H66.4589V28.7858H64.0746V10.9418Z" fill="#373C41"/>
<path d="M69.5424 29.0986C68.0458 29.0703 66.5568 28.88 65.1016 28.5313L65.6607 26.2218C69.3784 27.1156 71.0935 26.6259 71.5746 26.254C72.0558 25.882 72.0881 25.2504 72.0881 24.5252V20.4844H74.4725V24.5172C74.4725 25.32 74.4725 26.9952 73.0531 28.1138C72.2198 28.7694 71.0585 29.0959 69.5585 29.0959" fill="#373C41"/>
<path d="M74.4667 23.8599H72.0823V19.8217C72.0823 19.1367 72.0501 18.5854 71.6361 18.2616C71.2651 17.9699 69.9775 17.3972 66.0259 18.3472L65.4668 16.0378C69.1711 15.1467 71.6711 15.2644 73.1146 16.3964C74.4721 17.4668 74.4587 19.0724 74.4587 19.8271L74.4667 23.8599ZM131.862 25.9312C130.187 26.5895 126.939 27.0819 124.187 26.4048C122.665 26.0275 122.552 24.85 122.55 24.6333V15.3875C122.55 15.1707 122.665 13.9933 124.187 13.6186C126.98 12.9336 130.27 13.4474 131.926 14.1191L132.512 11.8016C130.773 11.2049 128.943 10.909 127.103 10.9265C125.927 10.9166 124.754 11.0469 123.609 11.3145C120.87 11.9862 120.155 14.2769 120.157 15.3929V24.6279C120.157 25.7465 120.87 28.0345 123.609 28.7089C124.754 28.9766 125.927 29.1069 127.103 29.0969C128.921 29.1119 130.728 28.8252 132.45 28.2486L131.862 25.9312ZM159.025 15.7622H161.412V28.7865H159.025V15.7622Z" fill="#373C41"/>
<path d="M156.376 29.1004C154.863 29.1004 153.704 28.7739 152.882 28.1183C151.452 26.9997 151.457 25.3245 151.457 24.5217V15.7469H153.844V24.5243C153.844 25.2469 153.879 25.8784 154.358 26.2531C154.836 26.6277 156.183 27.1148 159.898 26.221L160.46 28.5277C159.126 28.8773 157.755 29.0695 156.376 29.1004ZM170.925 10.9434H173.309V28.7873H170.925V10.9434Z" fill="#373C41"/>
<path d="M168.317 29.0986C166.804 29.0986 165.645 28.7721 164.822 28.1192C163.395 26.9979 163.4 25.3227 163.4 24.5199V20.4844H165.787V24.5225C165.787 25.2451 165.822 25.8766 166.298 26.2513C166.774 26.6259 168.126 27.113 171.841 26.2192L172.4 28.5286C171.066 28.8763 169.696 29.0676 168.317 29.0986Z" fill="#373C41"/>
<path d="M165.782 23.8608H163.395V19.828C163.395 19.0626 163.395 17.4677 164.739 16.3972C166.183 15.2653 168.685 15.1502 172.387 16.0387L171.828 18.3481C167.876 17.4008 166.589 17.9734 166.218 18.2651C165.804 18.5916 165.771 19.1402 165.774 19.8226L165.782 23.8608ZM85.0489 16.3063C82.6887 14.6257 78.2801 15.8754 77.2129 16.218L77.7989 18.5247C79.186 18.0537 82.436 17.366 83.6591 18.2384C83.8795 18.3963 84.1376 18.6692 84.1376 19.3944V28.7874H86.522V19.3944C86.522 17.7085 85.7155 16.7853 85.0489 16.3063Z" fill="#373C41"/>
<path d="M80.7182 29.1005C78.2989 29.1005 76.6645 27.9685 76.2451 25.9989C76.1119 25.4743 76.0892 24.9279 76.1785 24.3941C76.2678 23.8603 76.4671 23.3507 76.7639 22.8974C77.4171 21.9394 78.53 21.3265 80.0623 21.0723C81.893 20.7593 83.7718 20.8766 85.5488 21.4149L84.7612 23.6547C83.3634 23.2565 81.8937 23.1751 80.4601 23.4165C79.866 23.5129 79.0865 23.735 78.7397 24.2381C78.5235 24.6245 78.4684 25.0801 78.5865 25.5065C78.6591 25.841 78.8553 26.7215 80.737 26.7215C82.03 26.7215 84.0596 26.4779 84.7182 26.2558L85.487 28.501C84.4816 28.8329 82.1698 29.1005 80.7182 29.1005ZM110.293 16.3063C107.938 14.6257 103.527 15.8754 102.46 16.218L103.046 18.5247C104.433 18.0537 107.683 17.366 108.906 18.2384C109.127 18.3963 109.382 18.6692 109.382 19.3944V28.7874H111.769V19.3944C111.769 17.7085 110.963 16.7853 110.293 16.3063Z" fill="#373C41"/>
<path d="M105.963 29.1004C103.544 29.1004 101.912 27.9684 101.493 25.9989C101.359 25.4744 101.336 24.9281 101.425 24.3943C101.514 23.8605 101.713 23.3508 102.009 22.8973C102.665 21.9393 103.778 21.3265 105.31 21.0722C107.141 20.7594 109.019 20.8767 110.796 21.4148L110.006 23.6546C108.608 23.2561 107.139 23.1747 105.705 23.4165C105.111 23.5128 104.329 23.7349 103.985 24.238C103.767 24.624 103.712 25.0801 103.831 25.5065C103.901 25.841 104.1 26.7214 105.969 26.7214C107.264 26.7214 109.294 26.4779 109.95 26.2558L110.719 28.501C109.729 28.8328 107.415 29.1004 105.963 29.1004ZM89.3262 10.9434H91.7106V28.7873H89.3262V10.9434Z" fill="#373C41"/>
<path d="M94.7846 29.0986C93.288 29.0699 91.7991 28.8797 90.3438 28.5313L90.9056 26.2218C94.6233 27.1156 96.3383 26.6259 96.8195 26.254C97.3007 25.882 97.3356 25.2504 97.3356 24.5252V20.4844H99.7227V24.5172C99.7227 25.32 99.7227 26.9952 98.3007 28.1138C97.4674 28.7694 96.3088 29.0959 94.8061 29.0959" fill="#373C41"/>
<path d="M99.7155 23.8612H97.3284V19.823C97.3284 19.138 97.2962 18.5867 96.8822 18.2629C96.5112 17.9712 95.2236 17.3985 91.272 18.3485L90.7129 16.0391C94.4172 15.148 96.9172 15.2657 98.358 16.3977C99.7182 17.4681 99.7021 19.0737 99.7021 19.8284L99.7155 23.8612Z" fill="#373C41"/>
</svg>
