<svg width="160" height="40" viewBox="0 0 160 40" fill="none" xmlns="http://www.w3.org/2000/svg">
<path d="M15.7409 5.78911C14.8414 5.93193 13.947 6.10023 13.0577 6.29406C12.4707 6.41648 11.8761 6.53891 11.2968 6.68428C10.7174 6.82965 10.2067 6.93678 9.6807 7.10511C9.15472 7.27343 8.66685 7.4341 8.15611 7.62538C7.18332 7.99965 6.27721 8.5293 5.47285 9.19386C4.97943 9.59449 4.53428 10.0515 4.14644 10.5558C3.88369 10.9212 3.64681 11.3047 3.43751 11.7034C3.22216 12.093 3.10199 12.5283 3.08686 12.9735C3.13195 13.5956 3.31229 14.2002 3.6152 14.7448C3.91811 15.2894 4.33621 15.7608 4.84013 16.1258C5.15267 16.3859 5.48047 16.6231 5.80826 16.8909C6.81176 17.5722 7.86695 18.1734 8.96414 18.689C10.0923 19.2245 11.2307 19.7346 12.3792 20.2192C13.4693 20.6783 14.5746 21.0685 15.6952 21.4434L16.6633 21.7647C17.6772 22.1014 18.7139 22.4151 19.7125 22.7747C20.3376 23.0042 21.0084 23.2108 21.6335 23.4939C22.3019 23.7633 22.9406 24.1017 23.5392 24.5038C23.9252 24.7799 24.2519 25.1312 24.4997 25.5367C24.747 25.9351 24.8862 26.3914 24.9037 26.8604C24.9143 27.3079 24.7894 27.7481 24.5454 28.1228C23.8427 29.0802 22.8752 29.8092 21.7631 30.2192C20.1804 30.8839 18.5618 31.4586 16.9149 31.9407C15.9772 32.2162 15.0396 32.4916 14.0944 32.7059C13.1491 32.9201 12.1734 33.2108 11.2205 33.471C10.2677 33.7311 9.30717 33.93 8.34668 34.1366L6.6925 34.4809L5.70916 34.6875L3.64332 35.1313L1.28784 35.6439L0.60178 35.8046C0.39596 35.8505 -0.358702 36.0265 0.205395 35.9959C0.967689 35.95 3.08686 35.774 7.56152 35.1696C9.18521 34.9018 10.8165 34.6722 12.4402 34.4044C14.473 34.078 16.4854 33.6801 18.4776 33.2109C19.0493 33.0731 19.6134 32.9354 20.1851 32.7747L21.298 32.4457C22.8684 31.9637 25.3839 31.1068 25.9861 30.8466C28.273 29.852 29.6833 29.1022 30.4227 27.3195C30.6849 26.6807 30.787 25.9871 30.72 25.2995C30.6428 24.6667 30.4351 24.057 30.1102 23.5092C29.7806 23.0005 29.3802 22.5419 28.921 22.1473C28.0863 21.4025 27.1587 20.7699 26.1615 20.2651C25.8769 20.1172 25.5898 19.9769 25.3001 19.8443L24.21 19.3699C23.7018 19.1608 23.1936 18.9669 22.6854 18.7884C21.3209 18.3217 19.9335 17.9085 18.5538 17.4571C17.7762 17.2072 17.0139 16.9266 16.2669 16.6155C15.9467 16.4829 15.6317 16.3426 15.3217 16.1947C14.9558 16.0187 14.6051 15.8274 14.2545 15.6208C13.9038 15.4142 13.1186 14.9169 13.3168 14.3048C13.454 13.8764 13.9267 13.708 14.3154 13.5397C14.6763 13.4018 15.0455 13.2868 15.4208 13.1954C16.5566 12.9047 17.7077 12.7057 18.8587 12.4303L19.8649 12.2084C20.7702 12.0394 21.6619 11.8041 22.533 11.5045C23.2952 11.2214 24.2024 10.7394 24.4768 9.97429C24.6214 9.39077 24.6342 8.78215 24.5142 8.19303C24.3941 7.60391 24.1444 7.04921 23.7831 6.56952C23.5494 6.21756 23.3105 5.8707 23.0666 5.52895C22.7312 5.06223 22.3576 4.61847 21.9917 4.1747C21.9306 4.09561 21.845 4.03915 21.7484 4.01422C21.6518 3.98929 21.5497 3.99731 21.4581 4.03698C21.2371 4.1135 20.6196 4.8021 15.7257 5.7585" fill="#CC0000"/>
<path d="M90.8198 16.0038L90.8885 15.8508L90.9647 15.7207L91.0333 15.5983L91.1019 15.4912L91.1477 15.3917L91.1934 15.3152L91.2315 15.2387L91.2849 15.1927L91.4068 14.9862L91.4754 14.8638L91.5593 14.7413L91.7422 14.4429L91.849 14.2823L91.9633 14.1139H92.0014H92.0853H92.131L92.1844 14.1828L92.2987 14.3435L92.4131 14.5577L92.5426 14.8485L92.6798 15.2004L92.8323 15.6212V15.6977L92.878 15.8201L92.939 15.9808L93.0229 16.1874V16.2333V16.3251V16.4016V16.4782V16.6847L92.9695 16.7612L92.9314 16.8072H92.8399H92.7104H92.5503H92.3597L91.4297 16.8837H90.5149H90.4082H90.3396H90.2863V16.8377V16.7689V16.7077V16.6235L90.3396 16.5317L90.4082 16.4093L90.4692 16.3022L90.5226 16.2104L90.5759 16.1338L90.6217 16.0573L90.6598 16.0038V15.9502L90.8198 16.0038ZM84.8435 20.4568H84.9807C85.4914 20.6021 85.743 20.9388 85.3466 21.3902C85.2289 21.5352 85.122 21.6887 85.0264 21.8492L84.9426 21.987C84.8546 22.1171 84.7996 22.2668 84.7825 22.4231V22.5073C84.8463 22.7475 84.955 22.9733 85.1026 23.1729C85.3351 23.5621 85.5896 23.9376 85.8649 24.2976C86.1184 23.9911 86.3453 23.6635 86.5434 23.3183C86.7568 23.0199 87.0084 22.7597 87.2295 22.469C87.4892 22.0934 87.8209 21.7735 88.2052 21.5279C88.6134 21.3108 89.0629 21.1831 89.524 21.153C89.9813 21.0994 90.4311 21.0841 90.8885 21.0612C91.8185 21.0153 92.7485 20.9082 93.6709 20.8164C94.0726 20.7277 94.4904 20.7461 94.8829 20.8699C95.1709 21.0676 95.4278 21.3075 95.6452 21.5815C95.9348 21.8875 96.2169 22.1936 96.4913 22.5149C96.7657 22.8363 97.1088 23.28 97.4671 23.6396C97.6933 23.8588 97.9353 24.0608 98.1912 24.2441L98.3285 24.3283C98.7858 24.5578 99.0907 24.2594 99.2051 23.7927C99.2482 23.1058 99.0484 22.4257 98.641 21.8722C98.4682 21.556 98.3081 21.2346 98.1607 20.9082C98.0311 20.6404 97.9092 20.2272 98.1607 19.9671C98.4123 19.7069 98.6943 19.7605 98.923 19.6993C99.1517 19.6381 99.4872 19.5386 99.7692 19.4851C100.333 19.3703 100.897 19.2173 101.477 19.1484C101.797 19.1484 102.33 18.873 102.605 19.1484C102.879 19.4238 102.605 20.1966 102.483 20.5868C102.229 21.2322 102.05 21.9049 101.949 22.5914C101.874 23.2316 102.049 23.8762 102.437 24.3894C102.561 24.5977 102.756 24.7546 102.985 24.8317C103.214 24.9089 103.463 24.9013 103.687 24.8103C104.051 24.5471 104.329 24.1826 104.488 23.762C104.793 23.0428 105.006 22.2854 105.25 21.5432C105.494 20.8011 105.7 20.2043 105.951 19.5386C106.134 19.0566 106.348 18.5822 106.538 18.1002C106.66 17.7865 106.82 17.4958 106.95 17.1897C107.08 16.8837 107.087 16.5929 107.346 16.4246C107.606 16.2563 108.048 16.7995 108.2 16.9984C108.49 17.3657 108.741 17.7635 109.008 18.1461C109.247 18.6253 109.598 19.0398 110.03 19.355C110.838 19.7681 111.554 18.8041 112.019 18.2838C112.332 17.9319 112.652 17.5646 112.98 17.2127L114.024 16.0726C114.245 15.8278 114.542 15.3534 114.908 15.3075C115.274 15.2616 115.297 15.6518 115.328 15.8967C115.465 17.0826 115.518 18.2915 115.701 19.4851C115.77 19.9288 115.861 20.3649 115.937 20.8087L116.052 21.4284C116.108 21.7243 116.169 22.0202 116.235 22.316C116.372 22.9281 116.517 23.5325 116.7 24.1293C116.821 24.6597 117.084 25.1466 117.462 25.5371C117.594 25.6364 117.746 25.7074 117.906 25.7459C118.067 25.7844 118.234 25.7894 118.397 25.7607C118.56 25.7321 118.715 25.6703 118.853 25.5792C118.991 25.4881 119.109 25.3697 119.2 25.2311C119.261 25.1001 119.302 24.9608 119.322 24.8179C119.363 24.5209 119.363 24.2197 119.322 23.9227C119.238 22.8745 118.941 21.8493 118.926 20.7934C118.926 20.3573 118.926 19.9212 118.994 19.4927C119.07 18.4827 119.2 17.4728 119.253 16.4322C119.412 15.1767 119.352 13.9031 119.078 12.6679C118.976 12.3189 118.83 11.9846 118.644 11.6732C118.479 11.3957 118.282 11.1388 118.057 10.9081C117.835 10.6661 117.578 10.4596 117.294 10.296C116.997 10.1358 116.67 10.0394 116.334 10.0129C115.542 10.043 114.781 10.3333 114.169 10.8392C113.663 11.218 113.191 11.6405 112.759 12.1017C111.953 12.9156 111.189 13.7711 110.472 14.6648C110.274 14.925 110.03 15.4299 109.626 15.3534C109.222 15.2769 108.863 14.5883 108.749 14.2058C108.635 13.8232 108.444 13.5018 108.276 13.1575C108.109 12.8132 107.842 12.2853 107.628 11.8415C107.474 11.4635 107.268 11.1084 107.019 10.7857C106.709 10.4617 106.316 10.2311 105.883 10.12C105.554 9.96701 105.179 9.95051 104.838 10.0741C104.434 10.3113 104.511 10.9158 104.488 11.306C104.465 11.6962 104.427 11.9869 104.396 12.3389C104.338 13.1864 104.229 14.0296 104.068 14.8638C104.017 15.2651 103.831 15.6371 103.543 15.9196C103.286 16.0596 102.994 16.1183 102.704 16.0879C102.475 16.0879 102.239 16.0879 102.003 16.0879C101.469 16.0879 100.935 16.0879 100.402 16.0879L99.0831 16.1798C98.6791 16.1798 98.2675 16.241 97.8558 16.241C97.372 16.3224 96.8758 16.2883 96.4075 16.1415C96.0935 15.944 95.8566 15.6441 95.7366 15.2922C95.5156 14.8331 95.2411 14.397 94.9743 13.9609C94.7075 13.5248 94.5094 13.1958 94.273 12.7903C93.93 12.2318 93.587 11.6732 93.2363 11.1223C93.0077 10.7551 92.7713 10.3955 92.5274 10.0435C92.3407 9.71557 92.0624 9.44961 91.727 9.27841C91.6539 9.25418 91.5765 9.24586 91.5 9.25401C91.4235 9.26217 91.3496 9.28662 91.2832 9.32572C91.2168 9.36482 91.1595 9.41767 91.1151 9.48076C91.0707 9.54385 91.0402 9.61571 91.0257 9.69156C90.9799 9.89814 91.0257 10.1047 90.9876 10.3113C90.9365 10.5303 90.8625 10.7432 90.7665 10.9464C90.5794 11.351 90.3602 11.7399 90.1109 12.1093C89.2953 13.3641 88.693 14.7566 87.9689 16.065L87.5496 16.7918C87.3667 17.1285 87.2447 17.4116 86.8331 17.557C86.4214 17.7023 86.0708 17.6029 85.7049 17.6947C85.339 17.7865 85.1179 18.1997 85.0417 18.6205C84.9655 19.0413 84.9654 19.3397 84.9121 19.7069C84.8521 19.9755 84.8265 20.2506 84.8359 20.5256L84.8435 20.4568ZM35.1496 27.8019C34.776 27.8019 34.3873 27.886 34.029 27.8631C33.8345 27.8519 33.6478 27.7825 33.4929 27.6639C33.338 27.5452 33.2221 27.3828 33.16 27.1974C32.9859 26.7241 32.8483 26.2381 32.7484 25.7437C32.6261 25.3008 32.5796 24.8403 32.6111 24.3818C32.6112 24.2661 32.6357 24.1517 32.683 24.0462C32.7303 23.9407 32.7993 23.8465 32.8856 23.7697C33.2133 23.5019 33.6479 23.6779 34.0138 23.4866C34.1526 23.3883 34.2654 23.2574 34.3425 23.1054C34.4195 22.9534 34.4584 22.7849 34.4559 22.6144C34.4938 22.0565 34.4938 21.4966 34.4559 20.9388C34.372 19.5309 34.4559 18.0925 34.2882 16.7C34.2882 16.3787 34.1433 16.0038 33.7851 15.9349C33.0685 15.7436 33.0609 15.0397 33.0228 14.4047C32.9717 14.0052 33.0134 13.5993 33.1447 13.2188C33.2764 12.9894 33.4554 12.7908 33.6697 12.6364C33.8839 12.482 34.1286 12.3754 34.3873 12.3236C34.8599 12.1782 35.3325 12.0481 35.8128 11.9181C36.293 11.788 36.7961 11.7191 37.2916 11.635L38.8162 11.3978C39.3117 11.3213 39.8148 11.2524 40.3408 11.1988C40.8668 11.1453 41.286 11.0917 41.7586 11.0611C42.2313 11.0305 42.8716 10.9923 43.4281 10.977C43.9845 10.9617 44.4267 10.977 44.9527 10.977C45.4786 10.977 45.936 10.977 46.4315 11.0152C46.927 11.0535 47.4454 11.0764 47.9561 11.1453C48.6756 11.1968 49.374 11.4113 49.999 11.7727C50.647 12.2011 51.0815 13.0657 50.4335 13.7084C49.7856 14.3511 48.7412 14.2517 47.9027 14.2517C47.2116 14.2517 46.523 14.2517 45.8369 14.2517C45.1737 14.2517 44.5105 14.3435 43.8473 14.3817L41.995 14.5118C41.3546 14.5577 40.7143 14.6189 40.074 14.6878C39.5632 14.7337 39.0525 14.7872 38.5494 14.879C38.1029 14.9124 37.6749 15.0715 37.3145 15.3381C37.209 15.4601 37.1389 15.6088 37.112 15.7681C37.0851 15.9273 37.1024 16.0909 37.162 16.241C37.3526 16.8148 38.2292 16.6694 38.6866 16.6618C39.7386 16.6618 40.7753 16.4552 41.8273 16.3863L43.268 16.3098C43.8495 16.2788 44.4322 16.2788 45.0137 16.3098C45.5258 16.3314 46.0355 16.3928 46.5382 16.4935C47.1442 16.6327 47.7323 16.8407 48.2915 17.1132C49.0157 17.3657 48.9013 18.2685 48.7794 18.85C48.7662 19.0023 48.7198 19.1498 48.6433 19.2821C48.5669 19.4143 48.4624 19.528 48.3372 19.6151C47.6322 19.9013 46.8671 20.0065 46.1114 19.9212C45.4177 19.9212 44.7163 19.9977 44.0303 20.0666C42.9402 20.166 41.8501 20.2731 40.76 20.4109C40.0968 20.495 39.426 20.6098 38.7628 20.6786C38.2743 20.6486 37.7874 20.7601 37.3602 21L37.2916 21.0612H37.2459V21.13L37.2001 21.2142C37.1544 21.4897 36.8647 22.4078 37.1544 22.6297H37.2154H37.3069C37.6728 22.6297 38.0692 22.6297 38.3969 22.6297C38.9534 22.6297 39.5023 22.5838 40.0587 22.5379L43.2528 22.2701C43.9464 22.2089 44.663 22.1706 45.3643 22.1094C46.4163 22.0227 47.4682 21.9589 48.5202 21.9181C49.1495 21.9463 49.7784 21.8528 50.3726 21.6427C51.0663 21.3366 51.6456 20.8011 52.324 20.4491C53.1854 20.0053 54.0621 19.6151 54.9311 19.202C55.9983 18.6893 57.035 18.1079 58.1175 17.6717L60.6254 16.5853C61.0368 16.4214 61.4389 16.235 61.8298 16.0267C62.0966 15.8737 62.7827 15.5371 62.5921 15.1239C62.5007 14.9097 62.2262 14.879 62.0204 14.8561C60.6718 14.8056 59.3214 14.8851 57.9879 15.0933C55.9983 15.4376 55.701 15.6977 55.1674 15.1545C55.0075 14.9187 54.902 14.65 54.8584 14.3681C54.8149 14.0862 54.8345 13.7981 54.9158 13.5248C54.977 12.9461 55.156 12.3862 55.4418 11.8798C56.0135 11.1147 57.9116 11.0458 58.7959 10.9846C59.2533 10.9846 59.7183 10.9387 60.1757 10.9311C60.8236 10.9311 61.4639 10.9693 62.1043 10.9693C62.7446 10.9693 63.2172 11.0305 63.7661 11.0841C64.4191 11.1094 65.0679 11.2017 65.7023 11.3595C65.9024 11.421 66.0985 11.4951 66.2893 11.5814C66.9271 11.8526 67.4914 12.2723 67.9358 12.8056C68.1891 13.128 68.364 13.5052 68.4465 13.9074C68.497 14.0968 68.5125 14.2938 68.4923 14.4889C68.4783 14.6808 68.4265 14.868 68.3398 15.0397L68.3017 15.0856C68.1983 15.2769 68.0584 15.4459 67.8901 15.583C67.0455 16.148 66.1165 16.5741 65.1382 16.8454C64.6884 17.029 64.2463 17.2433 63.8042 17.4422C62.5616 18.0007 61.3344 18.5899 60.0689 19.0948C59.0322 19.5157 57.9879 19.9518 57.0198 20.4644C56.6937 20.5986 56.4057 20.8115 56.1812 21.0841C56.0212 21.3749 56.3718 21.3749 56.6081 21.3825C56.862 21.3961 57.1165 21.3961 57.3704 21.3825C58.1378 21.3213 58.9001 21.2499 59.6573 21.1683C60.4196 21.0842 61.2353 21.0153 62.0204 20.9158C62.8056 20.8164 63.4993 20.7246 64.2311 20.648C65.0264 20.5684 65.8254 20.53 66.6247 20.5333C67.4252 20.5156 68.2257 20.5642 69.0183 20.6786H69.1402H69.3537C69.5188 20.7057 69.6881 20.6839 69.8411 20.616C69.994 20.5481 70.124 20.4369 70.2151 20.2961C70.4704 19.7196 70.6869 19.1266 70.863 18.521C71.1222 17.7559 71.389 17.029 71.6253 16.2869L71.7397 15.9808C72.0446 15.1392 72.3495 14.2976 72.6849 13.4712C72.8221 13.1346 72.9593 12.8056 73.066 12.4613C73.1267 12.2001 73.2082 11.9442 73.31 11.6962C73.5158 11.2983 73.8817 11.0458 74.2933 11.3366C74.6175 11.6045 74.8779 11.9417 75.0556 12.3236C75.2625 12.6828 75.4189 13.069 75.5206 13.4712C75.5883 13.8684 75.5434 14.2767 75.391 14.6495C75.2615 15.055 75.0938 15.4605 74.987 15.8813C74.7507 16.7765 75.635 17.4958 76.3134 17.9013C76.9496 18.2461 77.6094 18.5453 78.2878 18.7965C78.7767 19.024 79.2876 19.2009 79.8123 19.3244C80.1376 19.4283 80.4903 19.4009 80.7957 19.2479C81.1978 18.8573 81.4649 18.3479 81.558 17.7941C81.741 17.182 81.8781 16.5547 82.0154 15.9349C82.1315 15.4304 82.2181 14.9194 82.2746 14.4047C82.3203 13.9915 82.3584 13.5707 82.3813 13.1575C82.3813 12.6143 82.3813 12.094 82.3813 11.5584C82.3579 11.1757 82.4684 10.7969 82.6938 10.4873C82.7764 10.4178 82.8728 10.3666 82.9765 10.3373C83.0802 10.3079 83.189 10.3009 83.2956 10.3168C83.4022 10.3327 83.5043 10.3711 83.595 10.4295C83.6858 10.4879 83.7631 10.565 83.822 10.6556L83.9211 10.778C84.0812 11.0521 84.2067 11.3451 84.2946 11.6503C84.4468 12.1931 84.5489 12.7489 84.5995 13.3106C84.6453 13.7696 84.6834 14.2364 84.6986 14.6954C84.7442 16.2969 84.6524 17.8994 84.4242 19.4851C84.3023 20.342 84.1193 21.1683 83.9364 22.0176C83.8543 22.4864 83.724 22.9453 83.5476 23.3871C83.4091 23.6658 83.232 23.9234 83.0216 24.1522C82.9213 24.2647 82.8058 24.3626 82.6785 24.443C82.207 24.6788 81.6718 24.754 81.154 24.6572C80.4653 24.5841 79.7889 24.4221 79.1415 24.1752C78.7299 24.0324 78.3259 23.8666 77.9295 23.6779C77.5255 23.4866 77.1214 23.2953 76.7327 23.0735C76.3392 22.854 75.9576 22.6139 75.5892 22.3542C75.2345 22.1126 74.9028 21.8385 74.5983 21.5356C74.3315 21.2678 74.1409 20.9235 73.8893 20.6404C73.6378 20.3573 73.4243 20.2425 73.249 20.6404C73.1543 20.9124 73.0804 21.1911 73.0279 21.4743C72.9212 21.964 72.7764 22.4537 72.6239 22.9357C72.4715 23.4178 71.8616 24.7261 71.1527 24.114C70.9316 23.9151 70.7715 23.6626 70.4285 23.6626C70.0868 23.7001 69.7497 23.7718 69.4223 23.8768C69.0716 23.9533 68.7057 23.9992 68.3474 24.0681L66.3197 24.4966C65.87 24.5807 65.4202 24.6419 64.9781 24.7184C64.536 24.7949 64.1091 24.8485 63.6746 24.9097C63.2401 24.9709 62.7827 25.0474 62.333 25.101L60.2366 25.3458C59.6726 25.4223 59.1237 25.4759 58.5596 25.5371L57.1646 25.6825C56.3871 25.7641 55.607 25.8202 54.8244 25.8508C53.6344 25.9475 52.4374 25.9064 51.2568 25.7284C50.9582 25.7112 50.6693 25.6163 50.4183 25.453C50.2811 25.3152 50.4183 25.0857 50.2811 24.925L50.2354 24.8791H50.1896H50.1439H50.0524H50.0067H49.9533H49.9076L49.8085 24.948L49.7475 25.0245L49.7017 25.1086V25.2081C49.5365 25.5697 49.2711 25.8759 48.9373 26.0902C48.6034 26.3046 48.2152 26.418 47.8189 26.417L35.3706 27.8707M151.346 21.5356C149.744 21.7511 148.128 21.8304 146.513 21.7727C145.856 21.7683 145.206 21.6358 144.6 21.3825C143.273 20.5179 147.916 18.9724 148.487 18.7735C150.096 18.2073 153.336 17.2433 153.336 17.2433C153.336 17.2433 156.385 16.4781 156.476 14.8638C156.591 12.8898 154.54 11.9946 152.977 11.5049C152.331 11.3589 151.677 11.2516 151.018 11.1835C150.571 11.1427 150.124 11.1172 149.677 11.107C148.838 11.0928 147.999 11.144 147.169 11.2601C146.307 11.3595 144.47 11.4131 144.211 12.4919C144.074 13.0428 143.449 14.1675 143.975 14.6648C144.501 15.1621 145.431 14.9709 146.109 14.9097C147.047 14.8178 147.977 14.6419 148.914 14.5501C149.608 14.4812 150.507 14.3282 151.072 14.8331C151.765 15.4605 149.92 16.0497 149.547 16.2027C148.152 16.7918 146.688 17.2203 145.286 17.7941C143.883 18.368 142.656 18.8577 141.368 19.4621C140.788 19.7518 140.223 20.071 139.675 20.4185L139.408 20.2349L137.792 20.4032L136.176 20.5333C135.094 20.6251 133.996 20.6557 132.906 20.7016C132.276 20.7978 131.631 20.6707 131.084 20.342C130.147 19.4621 130.673 18.2456 131.29 17.3886C132.002 16.4898 132.886 15.7432 133.889 15.1927C134.555 14.7954 135.267 14.4819 136.009 14.2593C136.508 14.1053 137.017 13.9877 137.533 13.9074C137.609 14.0527 137.693 14.1904 137.77 14.3282C138.241 14.2184 138.698 14.0567 139.134 13.8462C139.508 13.6549 140.026 13.2723 140.033 12.8056C140.002 12.5142 139.902 12.2346 139.742 11.9898C139.582 11.7449 139.365 11.542 139.111 11.3978C138.613 11.1038 138.042 10.9578 137.465 10.977C136.83 10.9698 136.196 11.0082 135.566 11.0917C135.126 11.152 134.69 11.244 134.263 11.3672C133.552 11.5722 132.867 11.8571 132.22 12.2165C131.341 12.7036 130.539 13.3199 129.842 14.0451C129.518 14.3854 129.231 14.76 128.988 15.1622C128.682 15.6797 128.439 16.2319 128.264 16.8072C127.778 18.4704 127.911 20.2539 128.637 21.8263C129.124 22.8556 129.897 23.7218 130.863 24.3206C132.119 25.0768 133.607 25.3487 135.048 25.0857C135.614 24.9819 136.169 24.8204 136.702 24.6037C137.275 24.4063 137.833 24.1686 138.372 23.8921C138.786 23.6348 139.228 23.4268 139.69 23.2724C139.873 23.5019 139.973 23.785 140.171 24.0375C140.366 24.2512 140.583 24.4435 140.819 24.6113C141.288 24.9362 141.836 25.1291 142.404 25.1699C143.857 25.3382 145.318 25.4301 146.78 25.4453C147.948 25.4505 149.116 25.3944 150.279 25.277C151.041 25.2081 151.803 25.1086 152.527 25.0168C154.436 24.7914 156.3 24.2754 158.054 23.4866C158.8 23.1428 159.463 22.6418 159.998 22.0176C159.772 21.8799 159.535 21.7622 159.289 21.6656C157.751 21.127 156.102 20.9823 154.494 21.2448C153.732 21.3366 153.031 21.4055 152.299 21.4743L151.338 21.5509M125.984 23.2341C126.006 22.9755 125.975 22.7151 125.893 22.469C125.771 22.1692 125.582 21.9019 125.34 21.6881C125.098 21.4744 124.81 21.32 124.498 21.2372C124.221 21.1841 123.935 21.1872 123.659 21.2463C123.383 21.3054 123.121 21.4194 122.89 21.5815C122.471 21.9013 122.191 22.3696 122.106 22.8903C122.021 23.4111 122.138 23.9447 122.432 24.3818C122.695 24.6793 123.039 24.8936 123.421 24.9986C123.803 25.1036 124.208 25.0947 124.585 24.9731C124.962 24.8514 125.296 24.6223 125.546 24.3135C125.796 24.0047 125.951 23.6297 125.992 23.2341" fill="#1A1919"/>
</svg>
