<svg width="124" height="40" viewBox="0 0 124 40" fill="none" xmlns="http://www.w3.org/2000/svg">
<path d="M47.3081 24.3017L45.4325 29.5177C45.4325 29.7273 45.224 29.7273 45.224 29.7273H42.3062C42.0977 29.7273 42.0977 29.7273 42.0977 29.5177C43.7645 25.137 46.2657 17.6261 48.1413 12.6182C48.1413 12.4104 48.3501 11.9928 48.3501 10.9496C48.3501 10.7408 48.3501 10.7408 48.5586 10.7408H52.5182C52.7269 10.532 52.7269 10.7408 52.7269 10.7408C54.8099 16.7909 57.3113 23.2587 59.3953 29.3098C59.3953 29.5179 59.3953 29.5179 59.1877 29.5179H55.8518C55.6443 29.5179 55.6443 29.5179 55.6443 29.3098L53.7679 24.0942H47.3081V24.3017ZM53.1428 21.3813C52.5182 19.5038 51.0589 15.54 50.6426 13.4537C50.2255 15.3312 48.9747 18.6694 48.1413 21.3813H53.1428ZM61.2719 22.6333C61.2719 18.4605 64.3978 15.1222 69.3983 15.1222C70.0251 15.1222 70.65 15.1222 71.0673 15.3311V9.0721C71.0673 8.86328 71.0673 8.86328 71.2749 8.86328H74.401C74.6085 8.86328 74.6085 8.86328 74.6085 9.0721V28.0569C74.6085 28.2665 74.6085 28.2665 74.401 28.2665C72.5246 29.0998 70.4402 29.7273 68.5661 29.7273C64.1882 29.9353 61.2719 27.6411 61.2719 22.6333ZM70.8576 18.2517C70.4402 18.0429 69.8156 18.0429 69.1905 18.0429C66.4819 18.0429 64.8149 19.7126 64.8149 22.6333C64.8149 25.9705 66.6895 27.2234 68.9832 27.2234C69.608 27.2234 70.4402 27.0136 71.0671 27.0136V18.2517H70.8576ZM92.1155 22.4255C92.1155 27.0138 89.1969 29.9353 85.0289 29.9353C80.0281 29.9353 77.9442 26.1803 77.9442 22.6333C77.9442 18.2517 80.8608 15.3311 85.2384 15.3311C89.6142 15.1222 92.1155 18.4605 92.1155 22.4255ZM81.4876 22.4255C81.4876 25.3451 82.7373 27.2236 85.029 27.2236C86.9054 27.2236 88.3647 25.9705 88.3647 22.4255C88.3647 19.7126 87.3227 17.6262 84.8215 17.6262C82.9447 17.8341 81.4876 19.5038 81.4876 22.4255ZM98.3677 9.0721C98.5755 9.0721 98.5755 9.0721 98.5755 9.28092V15.9565C99.6174 15.5399 100.659 15.3311 101.701 15.3311C105.662 15.3311 108.163 18.2517 108.163 22.0078C108.163 27.0136 104.203 30.1431 99.6175 30.1431C98.16 30.1431 96.7009 29.9351 95.2416 29.5177C95.0341 29.5177 95.0341 29.3096 95.0341 29.3096V9.28092C95.0341 9.0721 95.0341 9.0721 95.2416 9.0721H98.3677ZM101.077 18.0429C100.244 18.0429 99.4099 18.2517 98.785 18.4605V27.0136C99.2021 27.2234 99.827 27.2234 100.452 27.2234C102.536 27.2234 105.037 25.5548 105.037 22.2153C104.828 19.5038 103.161 18.0429 101.077 18.0429ZM114.833 23.2587C114.833 25.5549 116.29 27.0136 119.209 27.0136C120.25 27.0136 121.5 26.8058 122.752 26.3881C122.752 26.3881 122.959 26.3881 122.959 26.598V28.8922C122.959 29.0998 122.959 29.0998 122.752 29.3096C121.71 29.9351 120.25 30.1431 118.374 30.1431C113.164 30.1431 111.08 26.598 111.08 22.8408C111.08 18.6692 113.581 15.3309 117.959 15.3309C122.334 15.3309 124.001 18.6692 124.001 21.381C124.001 22.6331 123.794 23.2586 123.794 23.2586L114.833 23.2587ZM119.416 20.9635C120.458 20.9635 120.668 20.7559 120.668 20.7559V20.3381C120.668 19.5038 120.043 17.6262 117.749 17.6262C115.875 17.6262 114.833 19.086 114.623 20.9635H119.416Z" fill="#2D2E2D"/>
<path d="M31.8305 34L20.0414 6H31.8305V34Z" fill="#ED2224"/>
<path d="M0 34V6H11.7891L0 34Z" fill="#ED2224"/>
<path d="M16.1681 28.3004H10.7784L15.831 16.227L23.4098 34H18.5258L16.1681 28.3004Z" fill="#ED2224"/>
</svg>
