<svg width="160" height="40" viewBox="0 0 160 40" fill="none" xmlns="http://www.w3.org/2000/svg">
<path d="M0 9.7373H9.51895L15.0617 22.5207L20.6764 9.7373H29.9447L15.9887 39.9998H6.66175L10.482 31.9807L0 9.7373Z" fill="#5F01D1"/>
<path d="M39.5999 9.22852C32.4478 9.22852 27.9265 15.0108 27.9265 20.769C27.9265 27.2487 32.8836 32.386 39.4642 32.386C44.3731 32.386 46.2239 29.6898 46.2239 29.6898V31.7901H54.5263V9.73755H46.2239V11.7423C46.2239 11.7423 44.159 9.22852 39.5999 9.22852ZM41.3658 16.3153C44.6658 16.3153 46.3687 18.6693 46.3687 20.7932C46.3687 23.0804 44.5443 25.3249 41.3658 25.3249C38.7315 25.3249 36.3509 23.3842 36.3509 20.8906C36.3509 18.3617 38.2658 16.3153 41.3658 16.3153Z" fill="#5F01D1"/>
<path d="M57.3855 31.79V0H66.0692V11.8187C66.0692 11.8187 68.1318 9.2313 72.4517 9.2313C77.7357 9.2313 80.8316 12.7805 80.8316 17.852V31.79H72.2114V19.7613C72.2114 18.045 71.3045 16.387 69.2502 16.387C67.1591 16.387 66.0692 18.0701 66.0692 19.7613V31.79H57.3855Z" fill="#5F01D1"/>
<path d="M95.6372 9.23145C87.4468 9.23145 82.5698 14.8458 82.5698 20.8611C82.5698 27.7065 88.4748 32.3863 95.6683 32.3863C102.641 32.3863 108.741 27.9189 108.741 20.9759C108.741 13.379 102.354 9.23145 95.6372 9.23145ZM95.7154 16.3805C98.6086 16.3805 100.61 18.5528 100.61 20.8693C100.61 22.845 98.7451 25.2819 95.7154 25.2819C92.9394 25.2819 90.8561 23.2745 90.8561 20.8477C90.8561 18.5098 92.5882 16.3805 95.7154 16.3805Z" fill="#5F01D1"/>
<path d="M123.208 9.23145C115.018 9.23145 110.141 14.8458 110.141 20.8611C110.141 27.7065 116.046 32.3863 123.239 32.3863C130.211 32.3863 136.312 27.9189 136.312 20.9759C136.312 13.379 129.924 9.23145 123.208 9.23145ZM123.286 16.3805C126.179 16.3805 128.181 18.5528 128.181 20.8693C128.181 22.845 126.316 25.2819 123.286 25.2819C120.51 25.2819 118.427 23.2745 118.427 20.8477C118.427 18.5098 120.159 16.3805 123.286 16.3805Z" fill="#5F01D1"/>
<path d="M143.165 32.2587C146.349 32.2587 148.931 29.9314 148.931 27.0605C148.931 24.1896 146.349 21.8623 143.165 21.8623C139.98 21.8623 137.398 24.1896 137.398 27.0605C137.398 29.9314 139.98 32.2587 143.165 32.2587Z" fill="#5F01D1"/>
<path d="M150.825 19.9523H140.445L149.658 0H160L150.825 19.9523Z" fill="#5F01D1"/>
</svg>
