<svg width="156" height="40" viewBox="0 0 156 40" fill="none" xmlns="http://www.w3.org/2000/svg">
<g clip-path="url(#clip0_660_2824)">
<path d="M43.0374 10.9365C41.4443 7.43815 38.7139 4.58478 35.2924 2.84292C31.8709 1.10106 27.9608 0.573771 24.2014 1.34725C20.4421 2.12073 17.0558 4.14923 14.5963 7.10109C12.1367 10.053 10.7495 13.7535 10.6612 17.5978C9.88313 17.3619 9.07452 17.2424 8.26156 17.2431C6.02112 17.393 3.92129 18.3905 2.38734 20.0335C0.853395 21.6765 0 23.8422 0 26.092C0 28.3418 0.853395 30.5075 2.38734 32.1505C3.92129 33.7935 6.02112 34.791 8.26156 34.9409H9.79578C9.95099 34.9459 10.1054 34.9167 10.2481 34.8554C10.3909 34.7941 10.5185 34.7022 10.6219 34.5861L26.869 18.3467L29.7801 15.43V19.0562C29.7486 19.2268 29.755 19.4023 29.7988 19.5701C29.8425 19.738 29.9226 19.8942 30.0334 20.0275C30.1442 20.1609 30.2828 20.2682 30.4396 20.3419C30.5964 20.4155 30.7674 20.4537 30.9406 20.4537C31.1138 20.4537 31.2848 20.4155 31.4416 20.3419C31.5984 20.2682 31.737 20.1609 31.8478 20.0275C31.9586 19.8942 32.0387 19.738 32.0824 19.5701C32.1262 19.4023 32.1326 19.2268 32.1011 19.0562V12.592C32.0995 12.287 31.9877 11.993 31.7864 11.7643C31.6725 11.651 31.5375 11.5614 31.3889 11.5005C31.2404 11.4396 31.0814 11.4087 30.9209 11.4095H24.5086C24.3537 11.4095 24.2002 11.4401 24.057 11.4995C23.9138 11.559 23.7837 11.6461 23.6741 11.7559C23.5645 11.8657 23.4776 11.996 23.4183 12.1395C23.359 12.2829 23.3285 12.4367 23.3285 12.592C23.323 12.7488 23.3497 12.905 23.4071 13.0509C23.4645 13.1969 23.5512 13.3295 23.6619 13.4404C23.7726 13.5513 23.9049 13.6382 24.0506 13.6957C24.1963 13.7532 24.3522 13.78 24.5086 13.7745H28.1278L22.9351 18.938L9.52041 32.6153H8.45825C6.73674 32.6153 5.08574 31.9301 3.86845 30.7105C2.65115 29.4908 1.96729 27.8366 1.96729 26.1117C1.96729 24.3868 2.65115 22.7326 3.86845 21.5129C5.08574 20.2933 6.73674 19.608 8.45825 19.608C9.52607 19.6087 10.5782 19.8655 11.5267 20.357C11.709 20.4692 11.9191 20.5279 12.133 20.5262C12.347 20.5246 12.5562 20.4626 12.7367 20.3475C12.9172 20.2324 13.0617 20.0688 13.1539 19.8753C13.246 19.6818 13.2819 19.4663 13.2576 19.2533C13.2576 18.8986 13.2576 18.4256 13.2576 17.9526C13.2525 14.5473 14.4336 11.247 16.5973 8.62088C18.761 5.99481 21.7715 4.20765 25.1096 3.56769C28.4477 2.92773 31.9041 3.47509 34.8825 5.11535C37.8609 6.75561 40.1746 9.38592 41.4245 12.5526C41.516 12.787 41.6799 12.9861 41.8921 13.1208C42.1044 13.2555 42.354 13.3188 42.6047 13.3015H43.2341C45.689 13.4585 47.992 14.5464 49.6751 16.3438C51.3581 18.1413 52.2949 20.5135 52.2949 22.9781C52.2949 25.4428 51.3581 27.815 49.6751 29.6124C47.992 31.4099 45.689 32.4977 43.2341 32.6548H19.6306C19.4603 32.6232 19.2852 32.6296 19.1177 32.6735C18.9501 32.7173 18.7943 32.7976 18.6612 32.9085C18.5281 33.0195 18.421 33.1585 18.3474 33.3156C18.2739 33.4727 18.2358 33.644 18.2358 33.8175C18.2358 33.991 18.2739 34.1624 18.3474 34.3195C18.421 34.4766 18.5281 34.6155 18.6612 34.7265C18.7943 34.8375 18.9501 34.9177 19.1177 34.9616C19.2852 35.0055 19.4603 35.0118 19.6306 34.9803H43.2341C46.4111 34.9803 49.4579 33.7158 51.7044 31.4649C53.9508 29.2141 55.2129 26.1613 55.2129 22.9781C55.2129 19.7949 53.9508 16.7421 51.7044 14.4913C49.4579 12.2405 46.4111 10.9759 43.2341 10.9759L43.0374 10.9365Z" fill="#EA4E52"/>
<path d="M67.0751 34.5471L66.1703 29.3442H62.2364L61.2923 34.5471H58.6172L62.8265 12.0011H65.8163L69.9862 34.5471H67.0751ZM64.2034 17.2829L62.6298 26.9398H65.7376L64.2034 17.2829ZM76.3985 34.9412C75.7153 34.9915 75.0292 34.897 74.3849 34.6639C73.7406 34.4308 73.1524 34.0643 72.6589 33.5884C72.1653 33.1124 71.7773 32.5376 71.5201 31.9014C71.263 31.2653 71.1425 30.5819 71.1664 29.896V27.8464H73.9201V29.5807C73.9201 31.4726 74.8249 32.5763 76.3985 32.5763C76.7409 32.6021 77.0847 32.5516 77.4052 32.4283C77.7257 32.3049 78.0149 32.1119 78.252 31.863C78.489 31.6142 78.6681 31.3158 78.7761 30.9893C78.8842 30.6627 78.9186 30.3163 78.8769 29.9748C78.8286 28.8488 78.519 27.7495 77.9727 26.7643C77.4264 25.779 76.6584 24.9349 75.7297 24.2989C74.5428 23.4241 73.5468 22.3156 72.8026 21.0414C72.0585 19.7671 71.582 18.354 71.4024 16.8887C71.3405 16.2031 71.4251 15.5121 71.6504 14.8617C71.8758 14.2113 72.2368 13.6165 72.7095 13.1168C73.1821 12.6172 73.7556 12.2241 74.3917 11.9637C75.0277 11.7034 75.7119 11.5818 76.3985 11.607C77.0702 11.5667 77.7428 11.6697 78.372 11.909C79.0011 12.1484 79.5724 12.5186 80.0482 12.9954C80.524 13.4721 80.8936 14.0446 81.1324 14.6749C81.3713 15.3052 81.474 15.9792 81.4339 16.6522V18.7807H78.7589V16.9675C78.7589 15.2332 78.0114 14.0507 76.3592 14.0507C76.0483 14.019 75.7343 14.0577 75.4403 14.1639C75.1464 14.2702 74.88 14.4413 74.661 14.6645C74.4419 14.8878 74.2757 15.1576 74.1747 15.4539C74.0737 15.7501 74.0405 16.0654 74.0775 16.3763C74.0775 18.5836 74.9823 19.8449 77.5787 22.2493C78.7379 23.0735 79.6945 24.1514 80.3761 25.4012C81.0577 26.6509 81.4464 28.0398 81.5126 29.4624C81.5734 30.1672 81.4856 30.8769 81.2549 31.5455C81.0242 32.214 80.6558 32.8265 80.1735 33.3432C79.6913 33.8598 79.106 34.2691 78.4556 34.5444C77.8053 34.8197 77.1044 34.9549 76.3985 34.9412ZM88.9084 34.9412C88.1967 34.9765 87.4856 34.8601 86.8221 34.5996C86.1587 34.339 85.5579 33.9404 85.0597 33.43C84.5614 32.9196 84.1769 32.309 83.9317 31.6386C83.6864 30.9683 83.5859 30.2534 83.6369 29.5412V17.0069C83.5859 16.2948 83.6864 15.5799 83.9317 14.9096C84.1769 14.2392 84.5614 13.6286 85.0597 13.1182C85.5579 12.6078 86.1587 12.2092 86.8221 11.9486C87.4856 11.6881 88.1967 11.5717 88.9084 11.607C89.6007 11.5521 90.2966 11.6497 90.9473 11.8929C91.598 12.1362 92.1877 12.5191 92.675 13.0149C93.1623 13.5106 93.5354 14.1073 93.7682 14.7628C94.001 15.4184 94.0878 16.1171 94.0225 16.8099V19.8843H91.5441V16.731C91.5741 16.387 91.5286 16.0406 91.4107 15.7161C91.2928 15.3916 91.1054 15.0969 90.8617 14.8527C90.618 14.6085 90.3239 14.4207 90 14.3026C89.6761 14.1845 89.3304 14.1389 88.987 14.169C88.6493 14.1335 88.3079 14.1726 87.987 14.2837C87.666 14.3948 87.3733 14.5751 87.1294 14.8119C86.8856 15.0487 86.6966 15.3363 86.5757 15.6542C86.4549 15.9722 86.4051 16.3129 86.43 16.6522V29.896C86.43 30.5755 86.6994 31.2272 87.1789 31.7076C87.6585 32.1881 88.3089 32.458 88.987 32.458C89.6652 32.458 90.3156 32.1881 90.7952 31.7076C91.2747 31.2272 91.5441 30.5755 91.5441 29.896V26.7033H94.0225V29.8172C94.0757 30.5036 93.9798 31.1935 93.7416 31.8394C93.5034 32.4852 93.1285 33.0718 92.6426 33.5586C92.1566 34.0455 91.5713 34.4212 90.9267 34.6599C90.2821 34.8985 89.5935 34.9945 88.9084 34.9412ZM96.5008 34.5471V12.0011H105.313V14.5632H99.2939V21.5792H103.661V24.0624H99.2939V31.9456H105.313V34.5471H96.5008ZM116.485 34.5471L111.804 23.3529L110.309 19.4113V34.4288H107.634V12.0011H110.034L114.479 23.3529L115.856 27.2945V12.0011H118.531V34.5471H116.485ZM126.91 34.5471H121.521V12.0011H126.91C130.451 12.0011 131.945 14.2084 131.945 17.5194V29.1077C131.945 32.3398 130.451 34.5471 126.91 34.5471ZM129.152 17.5194C129.152 15.6274 128.444 14.642 126.753 14.642H124.353V31.9062H126.753C128.444 31.9062 129.152 30.9208 129.152 29.0682V17.5194ZM134.424 34.5471V30.9602H136.824V34.5471H134.424ZM139.774 34.5471V12.0011H142.606V34.5471H139.774ZM150.71 34.9412C149.981 34.9852 149.251 34.8696 148.57 34.6025C147.89 34.3353 147.276 33.923 146.771 33.3942C146.265 32.8654 145.881 32.2328 145.644 31.5402C145.407 30.8477 145.324 30.1117 145.399 29.3836V17.2829C145.336 16.5482 145.426 15.8085 145.663 15.1104C145.9 14.4124 146.28 13.7714 146.777 13.2281C147.275 12.6847 147.879 12.2509 148.553 11.9542C149.227 11.6574 149.955 11.5042 150.691 11.5042C151.427 11.5042 152.154 11.6574 152.828 11.9542C153.502 12.2509 154.107 12.6847 154.604 13.2281C155.102 13.7714 155.481 14.4124 155.718 15.1104C155.955 15.8085 156.045 16.5482 155.982 17.2829V29.5412C156.033 30.2534 155.932 30.9683 155.687 31.6386C155.442 32.309 155.057 32.9196 154.559 33.43C154.061 33.9404 153.46 34.339 152.797 34.5996C152.133 34.8601 151.422 34.9765 150.71 34.9412ZM153.189 16.8493C153.233 16.4942 153.202 16.1337 153.097 15.7918C152.992 15.4498 152.815 15.1341 152.579 14.8658C152.342 14.5974 152.052 14.3825 151.726 14.2353C151.401 14.0881 151.048 14.0119 150.691 14.0119C150.333 14.0119 149.98 14.0881 149.655 14.2353C149.329 14.3825 149.039 14.5974 148.803 14.8658C148.566 15.1341 148.39 15.4498 148.285 15.7918C148.179 16.1337 148.148 16.4942 148.193 16.8493V29.6989C148.148 30.054 148.179 30.4144 148.285 30.7564C148.39 31.0984 148.566 31.4141 148.803 31.6824C149.039 31.9508 149.329 32.1657 149.655 32.3129C149.98 32.4601 150.333 32.5362 150.691 32.5362C151.048 32.5362 151.401 32.4601 151.726 32.3129C152.052 32.1657 152.342 31.9508 152.579 31.6824C152.815 31.4141 152.992 31.0984 153.097 30.7564C153.202 30.4144 153.233 30.054 153.189 29.6989V16.8493Z" fill="#333333"/>
</g>
<defs>
<clipPath id="clip0_660_2824">
<rect width="156" height="40" fill="white"/>
</clipPath>
</defs>
</svg>
