<svg width="144" height="40" viewBox="0 0 144 40" fill="none" xmlns="http://www.w3.org/2000/svg">
<g clip-path="url(#clip0_5342_13994)">
<path d="M18.5893 32.8139L0 22.106V17.5173L18.476 6.75195L18.407 11.5201L3.92259 19.8963L18.6097 28.1111L18.5893 32.8139Z" fill="#444444"/>
<path d="M41.43 6.15998V10.4948C41.43 10.4948 36.811 7.1091 31.2181 7.1091C25.1677 7.10345 18.4062 11.5173 18.4062 11.5173V6.75924C23.083 4.26625 27.2321 3 31.2691 3C36.2006 3 41.43 6.15998 41.43 6.15998Z" fill="#4081CB"/>
<path d="M31.3688 30.9404C33.5984 30.9404 35.7779 30.2815 37.6317 29.047C39.4855 27.8125 40.9304 26.0578 41.7836 24.0049C42.4931 22.298 42.7692 20.443 42.5876 18.6043C42.4059 16.7656 41.772 14.9999 40.7421 13.4637C39.7121 11.9274 38.3179 10.6681 36.6829 9.79715C35.0479 8.92623 33.2226 8.47062 31.3688 8.4707C25.127 8.4707 20.0664 13.5007 20.0664 19.7044C20.0682 21.1818 20.3619 22.6444 20.9309 24.0087C21.4999 25.3729 22.3329 26.6121 23.3825 27.6555C24.432 28.6989 25.6775 29.526 27.0478 30.0896C28.4181 30.6533 29.8864 30.9424 31.3688 30.9404Z" fill="#4081CB"/>
<path d="M44.1532 7.15527L62.7425 17.8631V22.4518L44.2664 33.2172L44.3344 28.449L58.8199 20.0728L44.1328 11.858L44.1532 7.15527Z" fill="#444444"/>
<path d="M21.3047 33.84V29.5052C21.3047 29.5052 25.9248 32.8965 31.5177 32.8965C37.5681 32.8965 44.3284 28.4805 44.3284 28.4805V33.2407C39.6528 35.7337 35.5026 37 31.4667 37C26.5352 37 21.3047 33.84 21.3047 33.84Z" fill="#4081CB"/>
<path d="M70.5703 11.1387H75.5891L80.0484 24.0122L84.5327 11.1387H89.3227L82.3415 28.9395H77.5005L70.5703 11.1387ZM100.265 15.1293C99.1869 14.7742 98.281 14.5963 97.5472 14.5955C96.9697 14.5955 96.5167 14.7013 96.1883 14.9126C96.03 15.009 95.9006 15.1459 95.8134 15.3091C95.7261 15.4722 95.6843 15.6556 95.6923 15.8403C95.6888 16.0248 95.7257 16.2078 95.8004 16.3766C95.8751 16.5454 95.9859 16.6959 96.1249 16.8177C96.4382 17.0946 96.8013 17.3098 97.195 17.4519C97.62 17.6129 98.2485 17.8206 99.0805 18.0749C100.126 18.3622 101.152 18.7185 102.15 19.1414C102.968 19.5036 103.682 20.0643 104.227 20.7721C104.805 21.508 105.093 22.4687 105.093 23.6545C105.093 24.8403 104.779 25.8515 104.151 26.6881C103.522 27.5269 102.66 28.1574 101.565 28.5795C100.396 29.0158 99.1563 29.2313 97.9084 29.2149C96.4029 29.2091 94.9093 28.9473 93.4921 28.4407C92.1044 27.9693 90.8141 27.2508 89.6839 26.3202L91.4957 22.6896C92.4444 23.5149 93.5254 24.1756 94.6936 24.6442C95.9241 25.1521 97.0153 25.406 97.9673 25.406C98.6634 25.406 99.211 25.2788 99.6104 25.0246C99.8016 24.9092 99.958 24.7447 100.063 24.5483C100.169 24.3519 100.219 24.1309 100.209 23.9084C100.214 23.717 100.176 23.5269 100.099 23.3515C100.022 23.176 99.9074 23.0194 99.7633 22.8927C99.4369 22.6041 99.0557 22.3838 98.6422 22.2449C98.1893 22.0832 97.5566 21.8928 96.7443 21.6739C95.7114 21.4004 94.6985 21.0565 93.7129 20.6446C92.9094 20.2935 92.2048 19.7509 91.661 19.0646C91.0926 18.3627 90.8084 17.4274 90.8084 16.259C90.7874 15.2259 91.095 14.2126 91.6871 13.3642C92.2722 12.5367 93.1026 11.8971 94.1783 11.4457C95.2541 10.9943 96.5069 10.7686 97.9367 10.7686C99.2302 10.7689 100.517 10.9528 101.759 11.3148C102.927 11.6402 104.043 12.1321 105.071 12.7751L103.312 16.4825C102.348 15.9245 101.326 15.4709 100.265 15.1293ZM107.468 11.1387H112.13V18.4022H119.341V11.1387H124.001V28.9395H119.339V22.1084H112.128V28.9395H107.468V11.1387ZM139.668 11.1387H143.999V28.9395H139.922L131.82 18.2995V28.9395H127.464V11.1387H131.565L139.694 21.8601L139.668 11.1387Z" fill="#444444"/>
</g>
<defs>
<clipPath id="clip0_5342_13994">
<rect width="144" height="40" fill="white"/>
</clipPath>
</defs>
</svg>
