<svg width="128" height="40" viewBox="0 0 128 40" fill="none" xmlns="http://www.w3.org/2000/svg">
<path d="M84.3988 11.0068H81.8281L81.8399 29.8194H92.2525V27.4925H84.4106L84.3988 11.0068Z" fill="#8C929D"/>
<path d="M102.167 26.5185C101.518 27.1784 100.445 27.8383 98.9828 27.8383C97.0253 27.8383 96.2352 26.889 96.2352 25.6503C96.2352 23.7864 97.556 22.895 100.363 22.895C100.893 22.895 101.742 22.9528 102.179 23.0339V26.5185H102.167ZM99.5017 15.1152C97.4262 15.1152 95.5159 15.833 94.0301 17.0486L94.9381 18.5999C95.9876 17.9979 97.2729 17.3959 99.1243 17.3959C101.235 17.3959 102.167 18.461 102.167 20.2438V21.1584C101.754 21.0774 100.905 21.0195 100.386 21.0195C95.8815 21.0195 93.5938 22.5708 93.5938 25.8124C93.5938 28.7182 95.4098 30.1769 98.1574 30.1769C100.009 30.1769 101.789 29.3433 102.403 27.9888L102.874 29.8296H104.69V20.1975C104.678 17.1528 103.334 15.1152 99.5017 15.1152Z" fill="#8C929D"/>
<path d="M112.984 27.9228C112.017 27.9228 111.168 27.807 110.531 27.5176V19.7263V18.8233C111.404 18.1055 112.489 17.5845 113.869 17.5845C116.357 17.5845 117.312 19.3095 117.312 22.0995C117.312 26.0589 115.767 27.9228 112.984 27.9228ZM114.069 15.1186C111.77 15.1186 110.531 16.6584 110.531 16.6584V14.2272L110.52 11.0088H109.364H108.008L108.02 29.3583C109.281 29.8793 111.003 30.1571 112.878 30.1571C117.678 30.1571 119.989 27.1471 119.989 21.949C119.977 17.8392 117.843 15.1186 114.069 15.1186Z" fill="#8C929D"/>
<path d="M56.4128 13.047C58.6887 13.047 60.1627 13.7879 61.1179 14.5404L62.2264 12.6534C60.7287 11.3567 58.7005 10.6621 56.5307 10.6621C51.0591 10.6621 47.2266 13.9384 47.2266 20.5489C47.2266 27.4719 51.3657 30.1693 56.0944 30.1693C58.4646 30.1693 60.4811 29.6252 61.8018 29.0811L61.7429 21.6834V20.8151V19.3564H54.7265V21.6834H59.2075L59.2665 27.2982C58.6769 27.5877 57.6627 27.8192 56.283 27.8192C52.4859 27.8192 49.9388 25.4691 49.9388 20.5257C49.927 15.4897 52.5567 13.047 56.4128 13.047Z" fill="#8C929D"/>
<path d="M74.5196 11.002H72.0078L72.0196 14.1625V15.4591V16.2116V17.5314V25.0564V25.0796C72.0196 28.1243 73.3639 30.1619 77.1964 30.1619C77.7271 30.1619 78.2459 30.1155 78.7412 30.0229V27.8117C78.3756 27.8696 77.9865 27.8928 77.5738 27.8928C75.463 27.8928 74.5314 26.8277 74.5314 25.0448V17.5198H78.7412V15.4591H74.5314L74.5196 11.002Z" fill="#8C929D"/>
<path d="M65.6172 29.8174H68.1289V15.4619H65.6172V29.8174Z" fill="#8C929D"/>
<path d="M65.6172 13.4815H68.1289V11.0156H65.6172V13.4815Z" fill="#8C929D"/>
<path fill-rule="evenodd" clip-rule="evenodd" d="M19.909 38L27.2399 15.8535H12.5781L19.909 38Z" fill="#E24329"/>
<path fill-rule="evenodd" clip-rule="evenodd" d="M19.9097 38L12.5788 15.8535H2.30469L19.9097 38Z" fill="#FC6D26"/>
<path fill-rule="evenodd" clip-rule="evenodd" d="M2.30201 15.8535L0.0742783 22.5836C-0.0247607 22.8828 -0.0247594 23.2051 0.0742819 23.5043C0.173323 23.8036 0.36632 24.0643 0.625614 24.2492L19.9072 38L2.30201 15.8535Z" fill="#FCA326"/>
<path fill-rule="evenodd" clip-rule="evenodd" d="M2.30469 15.8537H12.5788L8.16334 2.51476C7.93624 1.82832 6.94722 1.82851 6.71993 2.51476L2.30469 15.8537Z" fill="#E24329"/>
<path fill-rule="evenodd" clip-rule="evenodd" d="M19.9062 38L27.2372 15.8535H37.5112L19.9062 38Z" fill="#FC6D26"/>
<path fill-rule="evenodd" clip-rule="evenodd" d="M37.5112 15.8535L39.739 22.5836C39.838 22.8828 39.838 23.2051 39.739 23.5043C39.6399 23.8036 39.4469 24.0643 39.1876 24.2492L19.9062 38L37.5112 15.8535Z" fill="#FCA326"/>
<path fill-rule="evenodd" clip-rule="evenodd" d="M37.5124 15.8537H27.2383L31.6537 2.51476C31.8808 1.82832 32.87 1.82851 33.0971 2.51476L37.5124 15.8537Z" fill="#E24329"/>
</svg>
