<svg width="114" height="40" viewBox="0 0 114 40" fill="none" xmlns="http://www.w3.org/2000/svg">
<path d="M34.2109 25.7898H37.5765C37.7682 27.583 38.671 28.2177 40.724 28.2177C42.7214 28.2177 43.5145 27.583 43.5145 26.5071C43.5145 25.4858 42.8853 24.9884 40.7518 24.6298L39.1364 24.3496C36.1 23.8256 34.5123 22.4737 34.5123 20.0444C34.5123 17.3672 36.5959 15.7393 40.3684 15.7393C44.7188 15.7393 46.4981 17.6432 46.6078 20.5684H43.3506C43.2687 18.7471 42.1463 18.2232 40.3684 18.2232C38.7016 18.2232 37.9057 18.8578 37.9057 19.8791C37.9057 20.927 38.7266 21.3417 40.2587 21.6177L42.038 21.8979C45.4299 22.5045 46.9356 23.7752 46.9356 26.2311C46.9356 29.1017 44.609 30.703 40.6698 30.703C36.6473 30.703 34.4304 29.239 34.2109 25.7898Z" fill="#141423"/>
<path d="M69.7505 16.0731L65.0987 30.3153H61.4873L59.708 24.4593C59.2913 23.0513 58.8871 21.6167 58.5037 20.2088C58.1204 21.6167 57.737 23.0513 57.3272 24.4593L55.5757 30.3153H51.9643L47.3125 16.0731H51.0059L52.5935 21.3968C53.0852 23.0261 53.5505 24.7087 53.9825 26.338C54.3992 24.682 54.8312 23.0261 55.3243 21.3702L56.8842 16.0703H60.1678L61.7332 21.3772C62.2249 23.0331 62.6638 24.689 63.0736 26.345C63.5111 24.7157 63.9764 23.0331 64.4695 21.4038L66.0558 16.0801L69.7505 16.0731Z" fill="#141423"/>
<path d="M71.0938 16.0729H74.5412V30.3151H71.0938V16.0729ZM71.1215 10.9678H74.5134V14.2236H71.1215V10.9678Z" fill="#141423"/>
<path d="M81.9057 18.7217V26.427C81.9057 27.3657 82.371 27.6683 83.5211 27.6683H84.6976V30.3147C84.0684 30.3693 83.4392 30.424 82.8919 30.424C79.9083 30.424 78.486 29.4041 78.486 26.7815V18.7217H76.2969V16.0725H78.486V11.9326H81.9057V16.0725H84.6976V18.7217H81.9057Z" fill="#141423"/>
<path d="M85.8164 23.1988C85.8164 18.6443 88.5805 15.7471 92.7948 15.7471C96.4881 15.7471 98.9509 17.8723 99.362 21.2108H95.9145C95.5853 19.4456 94.3269 18.6443 92.7948 18.6443C90.7418 18.6443 89.3473 20.0803 89.3473 23.1988C89.3473 26.3174 90.7974 27.7533 92.7948 27.7533C94.3546 27.7533 95.695 26.8974 95.9687 25.0201H99.4162C99.0342 28.4973 96.4062 30.6505 92.7948 30.6505C88.6083 30.6463 85.8164 27.7491 85.8164 23.1988Z" fill="#141423"/>
<path d="M114 20.8757V30.3154H110.552V21.4557C110.552 19.6344 109.65 18.7504 107.898 18.7504C106.394 18.7504 104.752 19.7998 104.752 22.3383V30.3154H101.309V10.6641H104.757V17.9771C105.239 17.2789 105.881 16.7098 106.63 16.3191C107.379 15.9285 108.211 15.7282 109.054 15.7356C112.004 15.7426 114 17.4812 114 20.8757Z" fill="#141423"/>
<path d="M0 6V35H28.7525V6H0ZM22.5311 22.9181C22.5311 28.0246 19.3836 30.7299 14.3762 30.7299C9.47859 30.7299 6.22137 28.0246 6.22137 22.9181V10.6624H9.91196V22.9447C9.91196 26.0352 11.5788 27.4992 14.3721 27.4992C17.1654 27.4992 18.8322 26.0352 18.8322 22.9447V10.6624H22.5269L22.5311 22.9181Z" fill="#141423"/>
</svg>
