<svg width="226" height="48" viewBox="0 0 226 48" fill="none" xmlns="http://www.w3.org/2000/svg">
<g clip-path="url(#clip0_7538_17994)">
<path d="M28.3955 3.59998V14.7978L13.8337 22.0782V10.9174L28.3955 3.59998ZM46.5977 10.9174V22.0782L32.0359 14.7978V3.59998L46.5977 10.9174ZM28.3955 32.8695V44.0674L13.8337 36.7869V25.5891L28.3955 32.8695ZM46.5977 25.5891V36.7869L32.0359 44.0674V32.8695L46.5977 25.5891ZM10.1933 10.9913L0 3.7478V44.4L10.1933 37.1195V10.9913Z" fill="#00517D"/>
<path d="M77.1048 31.6873C76.7408 31.096 76.3039 30.4677 75.7943 29.8395C75.2846 29.1743 74.775 28.546 74.2289 27.9547C73.6828 27.3634 73.1004 26.7721 72.5179 26.2177C71.9354 25.6634 71.3529 25.183 70.8069 24.8134V31.7243H68.0765V16.3134H70.8433V22.6699C71.3165 22.1895 71.8262 21.6721 72.3359 21.1177C72.8455 20.5634 73.3916 20.009 73.9013 19.4177C74.4109 18.8634 74.9206 18.309 75.3574 17.7547C75.8307 17.2373 76.2311 16.7569 76.6316 16.3134H79.9444C79.4711 16.8677 78.9615 17.459 78.4154 18.0503C77.8693 18.6416 77.3233 19.2699 76.7408 19.8982C76.1583 20.5264 75.6123 21.1177 75.0298 21.709C74.4473 22.3003 73.9013 22.8916 73.3552 23.446C73.9741 23.9264 74.5929 24.4808 75.2118 25.109C75.8307 25.7373 76.486 26.4025 77.0684 27.1416C77.6873 27.8438 78.2698 28.6199 78.8159 29.396C79.3619 30.1721 79.8716 30.9482 80.3448 31.7243H77.1048V31.6873ZM90.174 31.8351C89.1547 31.8351 88.2446 31.6873 87.5165 31.3916C86.7884 31.096 86.1696 30.6525 85.6599 30.0982C85.1866 29.5438 84.8226 28.9156 84.5678 28.1764C84.3493 27.4373 84.2037 26.6243 84.2037 25.7373V16.1286H86.9705V25.4786C86.9705 26.1808 87.0433 26.7721 87.1889 27.2525C87.3345 27.733 87.5529 28.1395 87.8442 28.4721C88.1354 28.8047 88.463 29.0264 88.8635 29.1743C89.2639 29.3221 89.7008 29.396 90.174 29.396C90.6473 29.396 91.0842 29.3221 91.4846 29.1743C91.8851 29.0264 92.2127 28.8047 92.5039 28.4721C92.7952 28.1764 93.0136 27.7699 93.1592 27.2525C93.3048 26.7721 93.3776 26.1808 93.3776 25.4786V16.1656H96.1444V25.7743C96.1444 26.6612 96.0352 27.4743 95.7803 28.2134C95.5255 28.9525 95.1615 29.5808 94.6882 30.1351C94.2149 30.6895 93.5597 31.096 92.8316 31.4286C92.1035 31.6873 91.1934 31.8351 90.174 31.8351ZM106.738 31.8351C105.937 31.8351 105.136 31.7982 104.299 31.7612C103.498 31.7243 102.77 31.6134 102.151 31.4286V16.5351C102.479 16.4612 102.806 16.4243 103.17 16.3873C103.534 16.3503 103.899 16.2764 104.299 16.2764C104.663 16.2395 105.063 16.2395 105.428 16.2025C105.792 16.2025 106.156 16.1656 106.483 16.1656C107.393 16.1656 108.267 16.2395 109.032 16.3873C109.832 16.5351 110.488 16.7569 111.07 17.0895C111.653 17.4221 112.09 17.8286 112.417 18.3829C112.745 18.9003 112.89 19.5656 112.89 20.3416C112.89 21.0808 112.708 21.6721 112.381 22.1895C112.053 22.7069 111.543 23.1134 110.961 23.446C111.871 23.7416 112.563 24.2221 113 24.8134C113.437 25.4047 113.655 26.1808 113.655 27.1047C113.655 28.6938 113.072 29.8764 111.944 30.6525C110.815 31.4656 109.068 31.8351 106.738 31.8351ZM104.881 22.559H106.811C107.867 22.559 108.668 22.4112 109.286 22.1156C109.869 21.8199 110.197 21.2656 110.197 20.4895C110.197 19.7503 109.869 19.2329 109.286 18.9003C108.668 18.6047 107.867 18.4199 106.884 18.4199C106.447 18.4199 106.083 18.4199 105.755 18.4569C105.428 18.4938 105.136 18.4938 104.918 18.5308V22.559H104.881ZM104.881 24.7395V29.4329C105.173 29.4699 105.5 29.4699 105.864 29.5069C106.228 29.5069 106.52 29.5438 106.811 29.5438C107.393 29.5438 107.903 29.5069 108.413 29.4329C108.886 29.359 109.323 29.2482 109.687 29.0634C110.051 28.8786 110.342 28.6199 110.524 28.3243C110.743 28.0286 110.852 27.6221 110.852 27.1416C110.852 26.2547 110.524 25.6634 109.905 25.3308C109.286 24.9982 108.413 24.8134 107.321 24.8134H104.881V24.7395ZM119.006 31.6873V16.3134H128.726V18.6786H121.773V22.4851H127.962V24.8134H121.773V29.3221H129.236V31.6873H119.006ZM138.883 16.2395C141.067 16.2395 142.742 16.646 143.907 17.459C145.072 18.2721 145.654 19.5286 145.654 21.1916C145.654 23.2612 144.635 24.7025 142.633 25.4416C142.924 25.7743 143.215 26.1808 143.579 26.6982C143.943 27.1786 144.271 27.7329 144.635 28.2873C144.999 28.8416 145.363 29.433 145.691 30.0243C146.019 30.6156 146.31 31.2069 146.601 31.7982H143.507C143.215 31.2808 142.924 30.7264 142.596 30.209C142.269 29.6547 141.941 29.1373 141.614 28.6199C141.286 28.1025 140.958 27.6221 140.631 27.1786C140.303 26.7351 140.012 26.3286 139.721 25.959C139.502 25.959 139.356 25.996 139.211 25.996H137.463V31.7612H134.697V16.609C135.352 16.4612 136.08 16.3503 136.845 16.3134C137.609 16.2764 138.301 16.2395 138.883 16.2395ZM139.102 18.6416C138.519 18.6416 137.973 18.6786 137.5 18.7156V23.6677H138.701C139.356 23.6677 139.975 23.6308 140.485 23.5569C140.995 23.4829 141.432 23.3351 141.759 23.1503C142.087 22.9656 142.378 22.7069 142.524 22.3743C142.706 22.0416 142.779 21.6351 142.779 21.1177C142.779 20.6373 142.706 20.2308 142.524 19.9351C142.342 19.6025 142.087 19.3438 141.759 19.159C141.432 18.9743 141.031 18.8264 140.594 18.7525C140.157 18.6786 139.611 18.6416 139.102 18.6416ZM155.411 16.3134C155.738 16.8677 156.103 17.5699 156.467 18.3829C156.867 19.196 157.267 20.046 157.668 20.9329C158.068 21.8199 158.469 22.7438 158.869 23.6677C159.27 24.5916 159.634 25.4416 159.961 26.2177C160.289 25.4416 160.653 24.5916 161.054 23.6677C161.454 22.7438 161.854 21.8199 162.255 20.9329C162.655 20.046 163.056 19.196 163.456 18.3829C163.857 17.5699 164.221 16.8677 164.512 16.3134H166.987C167.133 17.4221 167.242 18.6416 167.352 19.8982C167.461 21.1547 167.57 22.4482 167.679 23.7786C167.788 25.109 167.861 26.4395 167.934 27.7699C168.007 29.1003 168.08 30.4308 168.152 31.6873H165.458C165.386 29.9134 165.313 28.0656 165.24 26.1808C165.167 24.296 165.022 22.4482 164.876 20.6743C164.73 21.0069 164.512 21.4134 164.294 21.8938C164.075 22.3743 163.857 22.8916 163.602 23.446C163.347 24.0003 163.092 24.5547 162.837 25.146C162.583 25.7373 162.328 26.3286 162.109 26.8829C161.854 27.4373 161.636 27.9547 161.454 28.4351C161.272 28.9156 161.09 29.3221 160.944 29.6547H158.906C158.76 29.3221 158.578 28.9156 158.396 28.3982C158.178 27.9177 157.959 27.4003 157.741 26.846C157.522 26.2916 157.267 25.7373 157.013 25.146C156.758 24.5547 156.503 24.0003 156.248 23.446C155.993 22.8916 155.775 22.3743 155.556 21.8938C155.338 21.4134 155.156 21.0069 154.974 20.6743C154.828 22.4482 154.683 24.296 154.61 26.1808C154.537 28.0656 154.464 29.9134 154.392 31.6873H151.698C151.77 30.4308 151.843 29.1003 151.916 27.7329C151.989 26.3656 152.098 25.0351 152.171 23.6677C152.244 22.3003 152.389 21.0438 152.499 19.7873C152.608 18.5308 152.753 17.3851 152.863 16.3134H155.411ZM183.952 31.6873C183.734 31.096 183.552 30.4677 183.333 29.8764C183.115 29.2851 182.896 28.6938 182.714 28.0656H176.307C176.089 28.6938 175.907 29.2851 175.688 29.9134C175.47 30.5416 175.251 31.096 175.069 31.6873H172.193C172.776 30.0612 173.285 28.546 173.795 27.1416C174.305 25.7373 174.814 24.4438 175.288 23.1873C175.761 21.9308 176.271 20.7482 176.744 19.6395C177.217 18.5308 177.727 17.4221 178.236 16.3134H180.858C181.367 17.4221 181.877 18.5308 182.35 19.6395C182.823 20.7482 183.297 21.9308 183.806 23.1873C184.28 24.4438 184.789 25.7373 185.299 27.1416C185.809 28.546 186.355 30.0612 186.937 31.6873H183.952ZM179.474 19.3069C179.147 20.0829 178.746 21.0438 178.309 22.1525C177.872 23.2612 177.436 24.4808 176.962 25.8112H181.95C181.476 24.4808 181.04 23.2612 180.603 22.1156C180.202 21.0069 179.802 20.046 179.474 19.3069ZM200.662 16.3134V18.7156H196.002V31.6503H193.235V18.7156H188.575V16.3134H200.662ZM205.249 16.3134H208.015V31.6873H205.249V16.3134ZM220.757 32.0199C219.628 32.0199 218.609 31.8351 217.699 31.5025C216.789 31.1699 216.024 30.6156 215.405 29.9503C214.787 29.2482 214.313 28.4351 213.949 27.4373C213.622 26.4395 213.44 25.2938 213.44 24.0373C213.44 22.7438 213.622 21.5982 214.022 20.6373C214.423 19.6395 214.932 18.7895 215.624 18.1243C216.279 17.4221 217.08 16.9047 217.99 16.5721C218.9 16.2025 219.847 16.0547 220.902 16.0547C221.521 16.0547 222.104 16.0916 222.614 16.2025C223.123 16.3134 223.56 16.4243 223.96 16.5351C224.325 16.646 224.652 16.7938 224.907 16.9047C225.162 17.0525 225.344 17.1264 225.417 17.2003L224.616 19.4916C224.252 19.2699 223.778 19.0482 223.123 18.8634C222.468 18.6786 221.776 18.5677 221.012 18.5677C220.356 18.5677 219.738 18.6786 219.191 18.9003C218.609 19.1221 218.136 19.4547 217.735 19.9351C217.335 20.3786 217.007 20.9699 216.752 21.6721C216.534 22.3743 216.388 23.1873 216.388 24.0743C216.388 24.8873 216.498 25.6264 216.68 26.3286C216.862 26.9938 217.153 27.5851 217.517 28.1025C217.881 28.5829 218.391 28.9895 218.973 29.2482C219.556 29.5069 220.247 29.6547 221.085 29.6547C222.067 29.6547 222.868 29.5438 223.451 29.359C224.033 29.1743 224.543 28.9895 224.871 28.8047L225.599 31.096C225.417 31.2069 225.198 31.3177 224.907 31.4656C224.616 31.5764 224.252 31.6873 223.851 31.7982C223.451 31.909 222.978 31.983 222.468 32.0569C221.885 31.983 221.339 32.0199 220.757 32.0199Z" fill="black"/>
</g>
<defs>
<clipPath id="clip0_7538_17994">
<rect width="225.6" height="48" fill="white"/>
</clipPath>
</defs>
</svg>
