<svg width="224" height="48" viewBox="0 0 224 48" fill="none" xmlns="http://www.w3.org/2000/svg">
<path d="M0 36.5626H4.17261V40.7996H0V36.5626Z" fill="#E52421"/>
<path d="M29.2574 7.19995V40.7999H25.0848V7.19995H29.2574ZM20.9122 7.19995V40.7999H16.7395V7.19995H20.9122ZM37.6517 20.8469V27.153H33.4791V20.8469H37.6517ZM12.5178 7.19995V40.7999H8.34523V7.19995H12.5178ZM4.17261 7.19995V36.6123H0V7.19995H4.17261Z" fill="#FFCC03"/>
<path d="M199.011 18.5313C200.091 18.5313 201.171 18.6298 202.202 18.8269C202.939 18.9747 203.675 19.221 204.362 19.5166L203.626 22.0292C203.037 21.7336 202.448 21.4873 201.809 21.2902C200.926 20.9946 199.993 20.8468 199.11 20.8961C198.128 20.8468 197.195 21.0439 196.311 21.438C195.575 21.8321 195.182 22.5711 195.281 23.4087C195.281 23.8028 195.379 24.1969 195.624 24.4925C195.87 24.7881 196.164 25.0838 196.508 25.2808C196.9 25.5272 197.342 25.7242 197.784 25.872L199.306 26.3154L201.368 27.0052C202.006 27.2515 202.644 27.5964 203.233 27.9905C204.46 28.8773 205.148 30.306 205.049 31.784C205.098 32.6708 204.902 33.5577 204.46 34.2967C204.068 34.9864 203.528 35.5283 202.889 35.9717C202.202 36.4151 201.466 36.76 200.68 36.9571C199.797 37.0556 198.913 37.1049 198.03 37.0063C197.244 37.0556 196.508 37.0556 195.722 37.0063C195.133 36.9078 194.593 36.8093 194.004 36.6615C193.562 36.5629 193.121 36.4151 192.679 36.2181C192.335 36.0703 191.992 35.8732 191.648 35.6761L192.63 33.1635C192.875 33.3606 193.072 33.5084 193.366 33.6562C193.759 33.8533 194.102 34.0503 194.544 34.1981C195.035 34.3952 195.575 34.543 196.115 34.6415C196.753 34.7401 197.391 34.8386 198.03 34.8386C199.06 34.8879 200.091 34.6415 200.975 34.0996C201.613 33.6069 202.006 32.8187 201.957 31.9811C202.006 31.2914 201.662 30.6016 201.122 30.1582C200.239 29.567 199.306 29.1236 198.275 28.8773L196.066 28.1383C195.379 27.892 194.79 27.5964 194.201 27.153C193.661 26.7588 193.219 26.2662 192.875 25.675C192.532 24.9852 192.335 24.197 192.384 23.4579C192.286 21.9799 192.973 20.6005 194.151 19.7137C195.624 18.8761 197.293 18.4327 199.011 18.5313ZM176.43 18.7776V30.7987C176.43 31.3899 176.479 31.9811 176.676 32.5723C176.823 33.0157 177.068 33.4099 177.412 33.7055C177.706 34.0011 178.099 34.1981 178.492 34.2967C178.934 34.3952 179.376 34.4937 179.817 34.4937C180.995 34.543 182.125 34.1981 183.057 33.5084C183.941 32.8186 184.677 31.9811 185.168 30.9958V18.7776H188.212V36.5137H185.512L185.217 33.3113C184.726 34.3952 183.892 35.282 182.861 35.9717C181.683 36.7107 180.308 37.0556 178.885 37.0063C177.363 37.0556 175.939 36.5137 174.81 35.4791C173.681 34.1981 173.141 32.523 173.288 30.7987V18.7776H176.43ZM70.1512 12.0773C71.2312 12.3729 72.2621 12.767 73.2439 13.2597L72.3112 16.1172C71.4275 15.526 70.4948 15.0826 69.5131 14.6884C68.3349 14.2943 67.1077 14.0972 65.8313 14.1465C63.5241 14.1465 61.3151 15.0826 59.7933 16.8562C58.9588 17.7923 58.3697 18.8761 57.9279 20.0585C57.437 21.4873 57.1916 22.9653 57.2407 24.4433C57.2407 25.872 57.437 27.35 57.8788 28.7295C58.2715 29.9119 58.8606 30.9465 59.646 31.8826C60.3824 32.7201 61.3151 33.4099 62.346 33.8533C63.475 34.2967 64.6532 34.543 65.8804 34.543C67.0095 34.543 68.0895 34.3952 69.1203 34.0503C70.1021 33.7055 71.0839 33.2621 72.0166 32.7201L72.9002 34.8879C72.0166 35.5283 71.0839 36.021 70.0039 36.3659C68.6294 36.8585 67.1568 37.0556 65.6841 37.0556C64.015 37.0556 62.3951 36.8093 60.8733 36.2181C59.4497 35.6269 58.1243 34.7893 57.0934 33.7055C55.9643 32.5723 55.0807 31.2421 54.5407 29.7641C53.3135 26.3154 53.3135 22.5219 54.5407 19.0732C55.6698 16.0679 58.1243 13.7031 61.1678 12.57C62.7387 11.9788 64.4077 11.6832 66.1259 11.7324C67.5004 11.5846 68.8258 11.7324 70.1512 12.0773ZM101.323 18.4327C102.305 18.4327 103.287 18.5313 104.219 18.7776C105.005 18.9254 105.692 19.2703 106.379 19.6644L105.398 22.3248C104.759 21.8321 104.072 21.438 103.385 21.1424C102.649 20.8468 101.814 20.699 101.029 20.7483C100.243 20.7483 99.5068 20.8961 98.7704 21.1917C98.0341 21.4873 97.3959 21.9307 96.905 22.5219C96.3651 23.1623 95.9232 23.9014 95.6287 24.6896C95.2851 25.675 95.1378 26.7096 95.1378 27.7442C94.9905 29.567 95.6287 31.3899 96.8069 32.8187C98.0341 34.0011 99.7031 34.5923 101.421 34.4937C102.894 34.4445 104.367 34.0011 105.594 33.1635L106.281 35.3805C105.594 35.8732 104.808 36.2673 104.023 36.5137C103.041 36.8585 102.059 37.0063 101.029 37.0556C99.8504 37.0556 98.6232 36.8585 97.4941 36.4151C96.4141 36.021 95.4324 35.3805 94.6469 34.5923C93.8124 33.7547 93.1742 32.7694 92.7324 31.6855C91.7997 29.1729 91.7997 26.414 92.7324 23.9013C93.1742 22.8175 93.8124 21.8321 94.696 20.9946C95.5305 20.1571 96.5614 19.5166 97.6905 19.1225C98.8686 18.6298 100.096 18.4327 101.323 18.4327ZM160.672 18.4327C161.801 18.4327 162.98 18.6298 164.01 19.0732C165.041 19.4673 166.023 20.1078 166.809 20.8961C167.643 21.7336 168.281 22.7189 168.723 23.8028C169.656 26.3647 169.656 29.1729 168.723 31.7348C168.33 32.8187 167.692 33.804 166.907 34.6415C166.121 35.4298 165.14 36.021 164.109 36.4644C162.98 36.9078 161.801 37.1049 160.623 37.1049C159.494 37.1049 158.365 36.9078 157.285 36.4644C156.254 36.0703 155.322 35.4298 154.536 34.6415C153.702 33.804 153.064 32.8187 152.671 31.7348C151.738 29.1729 151.738 26.3647 152.671 23.8028C153.113 22.7189 153.751 21.7336 154.536 20.8961C155.322 20.1078 156.254 19.5166 157.285 19.0732C158.414 18.6298 159.543 18.4327 160.672 18.4327ZM216.045 18.3342C217.174 18.3342 218.304 18.5313 219.334 18.9747C220.267 19.3688 221.102 20.0093 221.74 20.8468C222.427 21.7336 222.869 22.7682 223.016 23.9013C223.262 25.2808 223.262 26.7096 223.016 28.089H210.793C210.94 32.326 212.953 34.4445 216.88 34.4445C217.813 34.4445 218.745 34.2967 219.629 34.0011C220.414 33.7055 221.2 33.3606 221.887 32.8679L222.771 35.0849C222.034 35.6761 221.151 36.1688 220.218 36.4151C219.089 36.8093 217.911 36.9571 216.684 36.9571C214.229 37.1049 211.824 36.1688 210.057 34.4445C208.437 32.5231 207.602 30.0597 207.749 27.5964C207.749 26.2662 207.946 24.9852 208.387 23.7043C208.78 22.6204 209.369 21.6351 210.155 20.7975C210.891 20.0093 211.726 19.3688 212.707 18.9747C213.787 18.5313 214.916 18.3342 216.045 18.3342ZM79.9691 10.8949V36.6122H76.9256V10.8949H79.9691ZM113.105 10.8949V36.6122H110.012V10.8949H113.105ZM124.15 18.7776L116.786 26.7588L124.641 36.6615H121.057L113.497 27.153L120.959 18.8269H124.15V18.7776ZM131.513 11.9788V23.2116H144.326V11.9788H147.615V36.6615H144.326V25.7242H131.513V36.6122H128.224V11.9788H131.513ZM88.0689 18.7776V36.5137H85.0254V18.7776H88.0689ZM160.672 20.7483C159.985 20.7483 159.298 20.8961 158.611 21.1424C157.923 21.3887 157.334 21.8321 156.843 22.3741C156.303 23.0145 155.862 23.7535 155.567 24.5418C155.223 25.5764 155.076 26.6603 155.125 27.7442C155.076 28.828 155.273 29.9119 155.567 30.9465C155.813 31.7348 156.254 32.4738 156.843 33.1143C157.334 33.6562 157.923 34.0503 158.611 34.3459C159.249 34.5923 159.985 34.7401 160.672 34.7401C161.409 34.7401 162.096 34.5923 162.783 34.3459C163.47 34.0996 164.109 33.6562 164.6 33.1143C165.189 32.4738 165.63 31.7348 165.876 30.9465C166.22 29.9119 166.367 28.828 166.367 27.7442C166.416 26.6603 166.22 25.5764 165.876 24.5418C165.581 23.7535 165.14 23.0145 164.6 22.3741C164.109 21.8321 163.47 21.3887 162.783 21.1424C162.096 20.8468 161.409 20.7483 160.672 20.7483ZM216.144 20.5512C214.916 20.5512 213.689 21.0439 212.855 21.9307C211.824 23.0638 211.235 24.4926 211.087 26.0198H220.267C220.513 24.5911 220.169 23.0638 219.334 21.8814C218.5 20.9946 217.322 20.5019 216.144 20.5512ZM87.9216 12.8163C88.2653 13.2104 88.4616 13.7031 88.4616 14.1958C88.4616 14.6884 88.2653 15.1811 87.9216 15.526C87.5289 15.8708 87.038 16.0679 86.5471 16.0679C86.0072 16.1172 85.5163 15.9201 85.1235 15.5752C84.7308 15.2304 84.5345 14.7377 84.5836 14.1958C84.5836 13.7031 84.7308 13.1612 85.0745 12.8163C85.909 12.0773 87.1362 12.0773 87.9216 12.8163Z" fill="#221F20"/>
</svg>
