<svg width="155" height="50" viewBox="0 0 155 50" fill="none" xmlns="http://www.w3.org/2000/svg">
<g clip-path="url(#clip0)">
<path d="M12.0106 34.8499C5.27883 34.8499 0 29.6594 0 23.0622C0 16.4651 5.27883 11.2715 12.0106 11.2715C18.7424 11.2715 24.0656 16.4651 24.0656 23.0622C24.0656 29.6594 18.7392 34.8499 12.0106 34.8499ZM12.0106 14.4398C7.22666 14.4398 3.53085 18.1638 3.53085 23.0622C3.53085 27.9607 7.22666 31.6816 12.0106 31.6816C16.7945 31.6816 20.5221 27.9136 20.5221 23.0622C20.5221 18.2109 16.8263 14.4398 12.0106 14.4398Z" fill="#141A1F"/>
<path d="M27.3486 17.8651H30.6035V19.4665C32.029 18.2385 33.8627 17.5753 35.7522 17.6044C40.5108 17.6044 44.2288 21.3725 44.2288 26.161C44.2288 30.9495 40.5013 34.7489 35.6856 34.7489C33.869 34.7537 32.0987 34.1814 30.6352 33.1161V41.2488H27.3359L27.3486 17.8651ZM30.6479 22.4369V29.9478C31.7043 31.1567 33.4523 31.9072 35.3335 31.9072C38.5693 31.9072 41.0089 29.458 41.0089 26.1924C41.0089 22.9268 38.5344 20.4461 35.3335 20.4461C33.4205 20.4461 31.7392 21.1652 30.6479 22.4369Z" fill="#141A1F"/>
<path d="M55.4933 34.7814C50.5444 34.7814 46.6836 31.0133 46.6836 26.162C46.6836 21.3609 50.3794 17.6055 55.0967 17.6055C59.7157 17.6055 63.2116 21.3923 63.2116 26.2908V27.2328H49.9543C50.1595 28.5716 50.8471 29.7917 51.8903 30.6678C52.9335 31.544 54.2617 32.0169 55.6297 31.9993C57.1752 32.0307 58.6817 31.5176 59.8807 30.5518L61.9935 32.6116C60.1518 34.0687 57.8503 34.837 55.4933 34.7814ZM49.9829 24.7898H59.9473C59.4524 22.2433 57.4728 20.3498 55.0301 20.3498C52.4922 20.3498 50.4777 22.1459 49.9829 24.7898Z" fill="#141A1F"/>
<path d="M66.3477 17.8679H69.6469V19.5352C70.309 18.8815 71.0983 18.3677 71.967 18.025C72.8357 17.6822 73.7656 17.5177 74.7005 17.5413C78.5613 17.5413 81.2673 20.1883 81.2673 24.0411V34.4911H77.968V24.5875C77.968 21.975 76.3501 20.3736 73.8122 20.3736C72.99 20.3462 72.1747 20.5302 71.4457 20.9077C70.7168 21.2852 70.0992 21.8434 69.6533 22.5276V34.4817H66.354L66.3477 17.8679Z" fill="#141A1F"/>
<path d="M85.4846 28.2862C87.9908 30.7008 90.5604 31.8783 93.4377 31.8783C96.7687 31.8783 99.0433 30.3083 99.0433 28.0569C99.0433 26.0316 97.7236 25.0206 94.3609 24.4648L90.5001 23.8368C86.2777 23.1522 84.1966 21.1929 84.1966 17.8927C84.1966 13.9112 87.5625 11.3301 92.7113 11.3301C96.0704 11.3394 99.3357 12.4281 102.016 14.4324L100.112 17.0449C97.6062 15.1609 95.1318 14.2377 92.559 14.2377C89.5548 14.2377 87.5435 15.6068 87.5435 17.6321C87.5435 19.4941 88.6982 20.3765 91.6676 20.8663L95.3792 21.4472C100.261 22.2322 102.473 24.223 102.473 27.7838C102.473 31.9945 98.7768 34.8048 93.2728 34.8048C91.4297 34.8019 89.6056 34.4365 87.9065 33.7298C86.2074 33.0231 84.667 31.9892 83.375 30.6883L85.4846 28.2862Z" fill="#141A1F"/>
<path d="M105.277 11.6292L108.577 10.9102V19.5326C109.238 18.8797 110.026 18.3664 110.894 18.0237C111.761 17.6809 112.69 17.516 113.624 17.5387C117.485 17.5387 120.191 20.1858 120.191 24.0386V34.4885H116.891V24.5849C116.891 21.9724 115.273 20.371 112.732 20.371C111.911 20.3441 111.096 20.5284 110.368 20.9059C109.639 21.2834 109.022 21.8413 108.577 22.5251V34.4791H105.277V11.6292Z" fill="#141A1F"/>
<path d="M123.621 13.1647C123.619 12.901 123.67 12.6394 123.77 12.395C123.87 12.1505 124.018 11.9281 124.205 11.7402C124.392 11.5524 124.615 11.403 124.86 11.3004C125.106 11.1979 125.369 11.1442 125.636 11.1426C126.164 11.1632 126.664 11.3854 127.03 11.7627C127.397 12.14 127.601 12.643 127.601 13.1663C127.601 13.6897 127.397 14.1927 127.03 14.57C126.664 14.9472 126.164 15.1695 125.636 15.1901C125.369 15.1884 125.105 15.1347 124.859 15.0319C124.614 14.9292 124.391 14.7794 124.204 14.5913C124.017 14.4031 123.869 14.1803 123.769 13.9355C123.669 13.6907 123.619 13.4288 123.621 13.1647ZM127.285 34.4917H123.986V17.8685H127.285V34.4917Z" fill="#141A1F"/>
<path d="M133.682 17.8666V15.3546C133.682 11.9006 135.693 10.0009 139.392 10.0009C140.194 9.98948 140.993 10.0877 141.768 10.2929V13.1346C141.096 12.9267 140.394 12.8271 139.69 12.8395C137.875 12.8395 136.984 13.6559 136.984 15.4206V17.8698H141.768V20.6141H136.981V34.493H133.682V20.6141H129.789V17.8666H133.682Z" fill="#141A1F"/>
<path d="M146.778 20.6145H143.219V17.8702H146.784V13.6248L150.049 12.8398V17.8639H154.998V20.6082H150.049V29.6138C150.049 31.3126 150.744 31.9343 152.523 31.9343C153.345 31.9549 154.163 31.8217 154.934 31.5418V34.283C153.919 34.5967 152.863 34.7617 151.8 34.7729C148.532 34.7729 146.784 33.2405 146.784 30.3768L146.778 20.6145Z" fill="#141A1F"/>
</g>
<defs>
<clipPath id="clip0">
<rect width="155" height="50" fill="white"/>
</clipPath>
</defs>
</svg>
