<svg width="97" height="48" viewBox="0 0 97 48" fill="none" xmlns="http://www.w3.org/2000/svg">
<path d="M41.5103 24.84C41.5103 29.444 37.9165 32.8364 33.5062 32.8364C29.0957 32.8364 25.5019 29.444 25.5019 24.84C25.5019 20.2037 29.0957 16.8436 33.5062 16.8436C37.9165 16.8436 41.5103 20.2037 41.5103 24.84ZM38.0064 24.84C38.0064 21.963 35.9235 19.9946 33.5062 19.9946C31.0887 19.9946 29.0058 21.963 29.0058 24.84C29.0058 27.6881 31.0887 29.6854 33.5062 29.6854C35.9235 29.6854 38.0064 27.6846 38.0064 24.84ZM58.7777 24.84C58.7777 29.444 55.184 32.8364 50.7736 32.8364C46.3631 32.8364 42.7694 29.444 42.7694 24.84C42.7694 20.2073 46.3631 16.8436 50.7736 16.8436C55.184 16.8436 58.7777 20.2037 58.7777 24.84ZM55.2739 24.84C55.2739 21.963 53.1909 19.9946 50.7736 19.9946C48.3562 19.9946 46.2732 21.963 46.2732 24.84C46.2732 27.6881 48.3562 29.6854 50.7736 29.6854C53.1909 29.6854 55.2739 27.6846 55.2739 24.84ZM75.3257 17.3267V31.6828C75.3257 37.5881 71.8507 40 67.7424 40C63.8752 40 61.5478 37.4078 60.67 35.288L63.7205 34.0154C64.2638 35.3168 65.5947 36.8527 67.7389 36.8527C70.3685 36.8527 71.9981 35.2267 71.9981 32.1659V31.0158H71.8758C71.0916 31.9856 69.5808 32.8329 67.674 32.8329C63.6845 32.8329 60.0297 29.3502 60.0297 24.8689C60.0297 20.3551 63.6845 16.8436 67.674 16.8436C69.5771 16.8436 71.088 17.6908 71.8758 18.6318H71.9981V17.3303H75.3257V17.3267ZM72.2463 24.8689C72.2463 22.0532 70.3721 19.9946 67.987 19.9946C65.5697 19.9946 63.5443 22.0532 63.5443 24.8689C63.5443 27.6557 65.5697 29.6854 67.987 29.6854C70.3721 29.6854 72.2463 27.6557 72.2463 24.8689ZM80.8118 8.91212V32.3461H77.3942V8.91212H80.8118ZM94.1294 27.4719L96.849 29.2888C95.9712 30.5904 93.8559 32.8329 90.2009 32.8329C85.6683 32.8329 82.2831 29.3213 82.2831 24.8365C82.2831 20.0811 85.697 16.84 89.8088 16.84C93.9495 16.84 95.9747 20.1424 96.6368 21.927L97 22.8355L86.3338 27.2627C87.1504 28.8671 88.4203 29.6854 90.2009 29.6854C91.9854 29.6854 93.2227 28.8057 94.1294 27.4719ZM85.7582 24.5948L92.8882 21.6278C92.4961 20.6291 91.3162 19.9333 89.9276 19.9333C88.1468 19.9333 85.6683 21.5088 85.7582 24.5948ZM12.5657 22.7598V19.3673H23.973C24.0845 19.9585 24.1421 20.658 24.1421 21.4151C24.1421 23.9604 23.4478 27.1077 21.2102 29.3502C19.0339 31.6214 16.253 32.8329 12.5693 32.8329C5.74144 32.8329 0 27.2592 0 20.4164C0 13.5737 5.74144 8 12.5693 8C16.3466 8 19.0373 9.48535 21.0591 11.4214L18.6705 13.8152C17.2207 12.4525 15.2565 11.3925 12.5657 11.3925C7.57971 11.3925 3.68014 15.4196 3.68014 20.4164C3.68014 25.4133 7.57971 29.4403 12.5657 29.4403C15.7997 29.4403 17.6417 28.1387 18.8215 26.9562C19.7784 25.9974 20.4079 24.6273 20.6562 22.7562L12.5657 22.7598Z" fill="#141A1F"/>
</svg>
