<svg width="284" height="65" viewBox="0 0 284 65" fill="none" xmlns="http://www.w3.org/2000/svg">
<path d="M101.549 35.5478H69.3881C70.8721 41.5789 75.7589 46.1278 82.1297 46.1278C85.7117 46.1278 89.2425 44.5944 91.5964 41.9367L99.3744 42.1156C95.9459 48.6067 89.4216 52.7722 81.8483 52.7722C70.7953 52.7722 62.0962 43.1889 62.0962 32.3533C62.0962 21.16 70.6418 11.9856 82.0018 11.9856C93.0036 11.9856 101.779 21.0322 101.779 31.9444C101.754 33.12 101.677 34.3978 101.549 35.5478ZM81.8995 18.6044C75.6054 18.6044 69.7719 23.5622 69.3625 29.9511H94.4364C94.0526 23.6133 88.2447 18.6044 81.8995 18.6044ZM133.761 51.8011V30.7433C133.761 24.1756 131.791 18.63 124.065 18.63C116.926 18.63 113.83 24.15 113.83 30.6922V51.8267H106.564V13.0333H113.37V17.1478H113.498C116.312 13.4422 120.38 11.96 124.858 11.96C130.384 11.96 135.578 14.1322 138.597 18.8856C140.465 21.8244 141.053 25.3767 141.053 28.8267V51.8011H133.761ZM179.79 51.8011V46.2811H179.662C176.438 50.7789 171.321 52.7722 165.923 52.7722C154.281 52.7722 145.735 44.1089 145.735 32.5578C145.735 20.93 154.153 11.96 165.923 11.96C170.809 11.96 176.003 13.8256 179.099 17.7611H179.227V0H186.493V51.8011H179.79ZM166.332 18.6044C158.631 18.6044 153.027 24.8911 153.027 32.4811C153.027 39.7389 158.861 46.1533 166.281 46.1533C173.854 46.1533 179.79 39.9944 179.79 32.4811C179.79 24.7122 174.263 18.6044 166.332 18.6044ZM207.601 64.7578H200.054L205.708 51.0344L190.229 13.0333H198.084L209.52 43.1378L221.213 13.0333H229.068L207.601 64.7578ZM249.792 52.7722C238.355 52.7722 228.837 43.5978 228.837 32.1233C228.837 20.7 238.586 11.96 249.792 11.96C261.152 11.96 270.747 20.7767 270.747 32.2511C270.747 43.3167 261.561 52.7722 249.792 52.7722ZM249.792 18.6044C242.219 18.6044 236.104 24.7633 236.104 32.3278C236.104 39.8922 242.193 46.1278 249.792 46.1278C257.442 46.1278 263.48 39.8411 263.48 32.2767C263.455 24.7122 257.34 18.6044 249.792 18.6044ZM276.683 51.8011V0H284V51.8011H276.683ZM7.21513 44.16C7.52216 45.3867 7.93153 46.4089 8.39207 47.1756C8.85261 47.9422 9.46667 48.6067 10.1575 49.2456C12.4602 51.2644 15.3769 52.2867 18.831 52.2867C22.2595 52.2867 25.4577 51.4433 28.3744 49.8333V42.8567C25.3553 44.62 22.4641 45.54 19.7521 45.54C16.0677 45.54 14.1488 43.2911 14.1488 38.8444V19.8567H26.3787V13.1356H14.2256V0.690001H7.01045V13.11H0V19.8311H6.70342V37.0556C6.70342 40.5567 6.88252 42.9333 7.21513 44.16ZM51.2991 19.5244C53.5506 19.5244 56.0324 20.7511 58.6677 23.23L62.6335 16.6622C59.4097 13.7233 55.5207 12.3689 53.2436 12.3689H52.7319C50.1222 12.3689 45.747 12.3689 42.2162 18.1189L42.0883 18.3489L42.1139 13.1356H34.5661V51.5711H42.1139V31.4844C42.1139 28.2644 43.0094 25.4533 44.8259 23.0767C46.6425 20.7256 48.8173 19.5244 51.2991 19.5244Z" fill="#231F20"/>
</svg>
