<svg width="166" height="28" viewBox="0 0 166 28" fill="none" xmlns="http://www.w3.org/2000/svg">
<path fill-rule="evenodd" clip-rule="evenodd" d="M13.9146 22.5535V28C23.0544 28 30.2183 19.1694 27.2538 9.51187C26.6039 7.43743 25.4636 5.55108 23.9295 4.01351C22.3954 2.47595 20.5131 1.33269 18.4431 0.681134C8.8107 -2.29116 0 4.8894 0 13.9687H5.43457C5.44273 12.5819 5.78526 11.2176 6.43296 9.99199C7.08066 8.76642 8.01436 7.71587 9.15453 6.92982C10.2947 6.14378 11.6076 5.64549 12.9813 5.47744C14.3551 5.30939 15.749 5.47655 17.0444 5.96467C18.1605 6.36985 19.1741 7.01587 20.0135 7.85703C20.8529 8.69816 21.4976 9.71391 21.9019 10.8323C24.1133 16.8292 19.7207 22.4979 13.9974 22.5521V17.1888H8.56287V22.5535H4.44604V19.0875H0.992188V22.5535H4.44604V26.7634H8.56287V22.5535H13.9146ZM43.7214 6.45275C46.0277 6.45275 48.0861 7.03595 49.6503 8.10956C50.5564 8.68779 51.2142 9.51287 51.7104 10.7439C52.2048 11.7346 52.451 13.0551 52.451 14.4584C52.451 15.8617 52.2063 17.1822 51.7104 18.2558C51.2615 19.2756 50.5514 20.1582 49.652 20.8139C48.0051 21.9691 46.0288 22.547 43.7229 22.547H38.7001V6.45275H43.7214ZM43.2287 9.18316H41.6645V19.9142H43.3097C45.1217 19.9142 46.5221 19.5034 47.5919 18.8406C48.7492 18.0156 49.4106 16.5228 49.4106 14.4667C49.4106 12.4106 48.8269 10.999 47.5919 10.2568C46.4394 9.51452 44.9582 9.18316 43.2287 9.18316ZM55.3219 6.33281C55.5343 6.24733 55.7619 6.20639 55.9908 6.21251H55.9843C56.4802 6.21251 56.8952 6.37819 57.1416 6.70956C57.3042 6.87098 57.432 7.06408 57.5173 7.27694C57.6027 7.48978 57.6436 7.7179 57.6375 7.94718C57.6375 8.4068 57.4554 8.8476 57.131 9.1726C56.8068 9.49762 56.3668 9.6802 55.9081 9.6802C55.4494 9.6802 55.0096 9.49762 54.6852 9.1726C54.361 8.8476 54.1787 8.4068 54.1787 7.94718C54.1696 7.70975 54.2172 7.47353 54.3175 7.25826C54.418 7.04298 54.5683 6.85486 54.7558 6.70956C54.9169 6.54653 55.1094 6.41832 55.3219 6.33281ZM57.3781 11.1647H54.5079V22.4722H57.3781V11.1647ZM67.5179 12.0168C66.7254 11.354 65.7937 10.9212 64.7999 10.9212C64.0742 10.9051 63.3535 11.0446 62.6859 11.3304C62.0185 11.6161 61.4197 12.0415 60.9294 12.5779C59.901 13.6696 59.3397 15.1211 59.3654 16.6222C59.3654 18.1912 59.8613 19.5928 60.8534 20.6664C61.8454 21.74 63.1582 22.2355 64.7239 22.2355C65.7313 22.2513 66.7158 21.932 67.5229 21.3275V21.5744C67.5229 22.4822 67.2767 23.2312 66.7823 23.7283C66.2879 24.2253 65.625 24.4705 64.7239 24.4705C63.4012 24.4705 62.5828 23.9733 61.5957 22.5717L59.6117 24.4705L59.6944 24.5533C60.1061 25.1316 60.7642 25.7131 61.5875 26.2864C62.4109 26.8596 63.4804 27.1147 64.7157 27.1147C66.4451 27.1147 67.7626 26.6176 68.7497 25.5456C69.7367 24.4738 70.3139 23.1517 70.3139 21.4186V11.1647H67.5179V12.0168ZM64.9586 19.6724C65.7852 19.6724 66.4466 19.4222 66.9427 18.844L66.9609 18.839C67.4551 18.2674 67.7016 17.5135 67.7016 16.6106C67.7016 15.7076 67.4568 14.9637 66.9609 14.3822C66.4648 13.8007 65.8034 13.5538 64.9768 13.5538C64.1502 13.5538 63.4889 13.804 62.9927 14.3822C62.4968 14.9604 62.2339 15.7126 62.2339 16.6156C62.2339 17.5185 62.4786 18.2624 62.9746 18.844C63.4707 19.4255 64.132 19.6724 64.9586 19.6724ZM75.8525 11.163H72.9708L72.9526 11.1647V22.4707H75.8525V11.163ZM73.6846 6.33286C73.8966 6.24786 74.1239 6.20693 74.3521 6.21249C74.5806 6.20669 74.8079 6.24747 75.0203 6.33236C75.2329 6.41734 75.4259 6.54474 75.5879 6.70684C75.7499 6.86894 75.8772 7.06234 75.9621 7.27527C76.0472 7.48822 76.0881 7.71625 76.0823 7.94553C76.0823 8.40515 75.9002 8.84595 75.5758 9.17095C75.2516 9.49595 74.8115 9.67855 74.3529 9.67855C73.8942 9.67855 73.4544 9.49595 73.1302 9.17095C72.8058 8.84595 72.6237 8.40515 72.6237 7.94553C72.6178 7.7164 72.6587 7.4885 72.7436 7.27566C72.8285 7.06284 72.9556 6.86953 73.1174 6.70745C73.2792 6.54537 73.4721 6.41795 73.6846 6.33286ZM79.2104 8.10956H82.0064L82.0924 11.2459H84.7194V13.8056H82.0839V18.0901C82.0839 18.839 82.1684 19.3344 82.4146 19.5812C82.5801 19.8297 83.076 19.9126 83.7373 19.9126L84.7294 19.8297V22.3895H84.5641C84.1005 22.4583 83.6319 22.4859 83.1637 22.4722C81.7699 22.4722 80.6919 22.1427 80.1165 21.5644C79.5411 20.9862 79.2104 19.9192 79.2104 18.4281V13.7228H77.5573V11.1647H79.2104V8.10956ZM100.861 6.45275H97.9794L97.9826 6.4627V22.547H100.861V6.45275ZM128.201 19.838C128.711 19.4447 129.18 19.0006 129.601 18.5126V18.5027L131.494 20.4013C130.342 22.0515 128.695 22.9595 126.637 22.9595C125.88 22.9725 125.13 22.8248 124.434 22.5261C123.739 22.2274 123.115 21.7845 122.603 21.2264C121.526 20.1528 120.949 18.6733 120.949 17.0165C120.931 15.4507 121.524 13.9398 122.603 12.8066C123.755 11.6518 125.073 11.0736 126.637 11.0736C128.532 11.0736 130.096 11.8158 131.331 13.3848L129.438 15.2073C128.614 14.2165 127.627 13.6383 126.721 13.6383C126.331 13.6204 125.943 13.6931 125.586 13.8506C125.229 14.0081 124.913 14.2462 124.663 14.5462C124.082 15.2073 123.836 15.9495 123.836 16.9403C123.836 17.9311 124.086 18.6716 124.663 19.3344C124.923 19.62 125.24 19.8488 125.592 20.0065C125.945 20.1641 126.327 20.2472 126.713 20.2506C127.237 20.2533 127.752 20.1105 128.201 19.838ZM139.558 11.4828C140.21 11.7809 140.778 12.2363 141.211 12.8082L141.183 12.795C141.604 13.2907 141.889 13.8881 142.01 14.528C142.247 15.2205 142.359 15.9499 142.34 16.6818V17.7554H134.765C134.851 18.4944 135.095 19.0759 135.591 19.4884C136.159 19.9279 136.858 20.1616 137.575 20.1512C138.064 20.1694 138.547 20.0549 138.976 19.8198C139.288 19.6851 139.569 19.4884 139.802 19.2416C139.889 19.1547 139.976 19.078 140.058 19.0045C140.214 18.8665 140.356 18.74 140.464 18.5789L142.357 20.4013L142.274 20.4842C141.039 22.0532 139.474 22.7955 137.58 22.7955C135.851 22.7955 134.531 22.2122 133.463 21.1386C132.395 20.065 131.899 18.6617 131.899 16.9287C131.87 15.4058 132.364 13.9191 133.3 12.7188C134.289 11.564 135.606 10.9858 137.17 10.9858C137.994 10.9659 138.81 11.136 139.558 11.4828ZM135.776 14.1304C135.417 14.499 135.162 14.9563 135.036 15.4558H139.406C139.325 14.9588 139.159 14.4617 138.829 14.1304C138.5 13.7178 137.926 13.5521 137.265 13.5521C136.99 13.54 136.716 13.5852 136.46 13.6847C136.204 13.7842 135.971 13.936 135.776 14.1304ZM148.623 10.9974C150.105 10.9974 151.336 11.3287 152.163 12.071L152.168 12.0726C153.079 12.8149 153.491 13.8835 153.491 15.2089V22.4722H150.691V21.5644C149.703 22.3117 148.707 22.7242 147.644 22.7242C146.581 22.7242 145.667 22.4757 144.928 21.8162C144.189 21.1568 143.858 20.3318 143.858 19.2582C143.858 18.1083 144.275 17.1143 145.181 16.4515C146.087 15.7888 147.24 15.4575 148.64 15.4575C149.339 15.4527 150.035 15.5646 150.698 15.7888V15.2106C150.707 14.9731 150.66 14.737 150.559 14.5217C150.459 14.3064 150.309 14.1183 150.121 13.973C149.698 13.6375 149.172 13.4616 148.633 13.4759C147.481 13.4759 146.657 13.8951 145.917 15.1327L144.098 13.3997C144.503 12.5713 145.25 11.9898 145.991 11.5772C146.824 11.2198 147.717 11.0231 148.623 10.9974ZM148.468 17.8482C147.886 17.8482 147.476 17.9327 147.145 18.1796L147.147 18.1746C146.994 18.2783 146.864 18.4125 146.764 18.5686C146.665 18.7248 146.599 18.8997 146.57 19.0825C146.57 19.4139 146.73 19.6624 146.981 19.9109C147.233 20.1595 147.643 20.2423 148.139 20.2423C149.046 20.2591 149.927 19.9353 150.609 19.3344V18.2608C149.921 18.0121 149.198 17.8729 148.468 17.8482ZM161.137 10.9112C162.538 10.9112 163.604 11.3287 164.431 12.2366C165.171 13.1446 165.583 14.3827 165.666 15.9512V22.5635H162.797V15.9611C162.81 15.3066 162.607 14.6662 162.22 14.1386C162.041 13.9193 161.813 13.7451 161.555 13.63C161.296 13.5149 161.015 13.4621 160.732 13.4759C160.418 13.4662 160.107 13.5279 159.82 13.6565C159.534 13.7851 159.28 13.9771 159.079 14.2182C158.667 14.7119 158.502 15.4525 158.502 16.2809V22.5502H155.62V11.2426H158.421V11.9053C159.079 11.2426 159.984 10.9112 161.137 10.9112ZM90.903 10.9974C92.3844 10.9974 93.6162 11.3287 94.4428 12.071L94.4445 12.0726C95.2711 12.8149 95.767 13.8835 95.767 15.2089V22.4707H92.968V21.5628C91.9793 22.31 90.984 22.7225 89.9209 22.7225C88.8578 22.7225 87.9435 22.474 87.2044 21.8147C86.4653 21.1552 86.1346 20.3301 86.1346 19.2565C86.1346 18.1067 86.5513 17.1126 87.4573 16.4499C88.3634 15.7872 89.5164 15.4558 90.9162 15.4558C91.6159 15.451 92.3117 15.563 92.9745 15.7872V15.2089C92.9839 14.9715 92.9362 14.7353 92.836 14.52C92.7355 14.3047 92.5852 14.1166 92.3976 13.9713C91.9751 13.6359 91.4485 13.46 90.9097 13.4743C89.7572 13.4743 88.9338 13.8934 88.1932 15.1311L86.3746 13.3981C86.7795 12.5696 87.5269 11.9881 88.2675 11.5756C89.1019 11.2183 89.996 11.0221 90.903 10.9974ZM90.6615 17.8482C90.0796 17.8482 89.6697 17.9327 89.339 18.1796L89.3405 18.1746C89.0837 18.4308 88.8866 18.7409 88.7636 19.0825C88.7636 19.4139 88.9239 19.6624 89.1753 19.9109C89.4265 20.1595 89.8366 20.2423 90.3326 20.2423C91.2402 20.2591 92.1213 19.9353 92.8026 19.3344V18.2608C92.1148 18.0121 91.3924 17.8729 90.6615 17.8482ZM106.588 21.4076C107.943 22.3141 109.535 22.7976 111.165 22.797C113.346 22.7883 115.436 21.9159 116.979 20.3696C118.521 18.8235 119.391 16.7291 119.399 14.5429C119.399 12.9102 118.915 11.3143 118.01 9.95678C117.105 8.59933 115.818 7.54138 114.313 6.91673C112.808 6.29208 111.151 6.12881 109.553 6.44758C107.955 6.76634 106.488 7.5528 105.336 8.70749C104.184 9.8622 103.4 11.3333 103.082 12.9346C102.765 14.536 102.929 16.1957 103.552 17.7039C104.176 19.2121 105.233 20.501 106.588 21.4076ZM108.189 9.99686C109.07 9.40853 110.106 9.09538 111.165 9.097L111.158 9.10033C111.862 9.099 112.558 9.23688 113.208 9.50605C113.858 9.7752 114.449 10.1703 114.946 10.6688C115.443 11.1672 115.837 11.7592 116.106 12.4106C116.374 13.0621 116.512 13.7602 116.51 14.465C116.509 15.5263 116.195 16.5635 115.606 17.4455C115.017 18.3274 114.18 19.0145 113.201 19.4198C112.222 19.8251 111.146 19.9304 110.107 19.7223C109.069 19.5143 108.115 19.0023 107.367 18.251C106.619 17.4998 106.11 16.5431 105.905 15.502C105.699 14.4609 105.807 13.3822 106.213 12.4022C106.62 11.4223 107.307 10.5852 108.189 9.99686Z" fill="#0080FF"/>
</svg>
