<?xml version="1.0" encoding="utf-8"?>
<!-- Generator: Adobe Illustrator 26.5.0, SVG Export Plug-In . SVG Version: 6.00 Build 0)  -->
<svg version="1.1" id="Layer_1" xmlns="http://www.w3.org/2000/svg" xmlns:xlink="http://www.w3.org/1999/xlink" x="0px" y="0px"
	 viewBox="0 0 555.9 165.5" style="enable-background:new 0 0 555.9 165.5;" xml:space="preserve">
<style type="text/css">
	.st0{fill:#FFFFFF;}
	.st1{fill-rule:evenodd;clip-rule:evenodd;fill:#168BC2;}
	.st2{fill-rule:evenodd;clip-rule:evenodd;fill:#FFFFFF;}
	.st3{fill:#35393B;}
	.st4{fill-rule:evenodd;clip-rule:evenodd;fill:#35393B;}
	.st5{fill:none;}
</style>
<g>
	<path class="st3" d="M467.8,34.9c1.5,0,2.9,0.4,4.2,1.1c1.4,0.8,2.5,1.9,3.3,3.3c0.8,1.4,1.2,2.8,1.2,4.4c0,1.5-0.4,3-1.2,4.3
		c-0.8,1.4-1.9,2.5-3.3,3.3c-1.3,0.8-2.8,1.2-4.3,1.2c-1.6,0-3-0.4-4.4-1.2c-1.4-0.8-2.5-1.9-3.3-3.3c-0.7-1.3-1.2-2.8-1.2-4.3
		c0-1.5,0.4-3,1.2-4.4c0.8-1.4,1.9-2.5,3.3-3.3C464.9,35.3,466.3,34.9,467.8,34.9z M520.3,116.5c5.9,0,11-2.1,15.1-6.4
		c4.2-4.3,6.3-9.5,6.3-15.5c0-6.1-2-11.2-6.3-15.6c-4.2-4.2-9.2-6.4-15.1-6.4c-5.9,0-11,2.1-15.1,6.4c-4.2,4.3-6.3,9.5-6.3,15.6
		c0,6,2.1,11.2,6.3,15.5C509.3,114.4,514.3,116.5,520.3,116.5 M383.7,116.5c5.9,0,11-2.1,15.1-6.4c4.2-4.3,6.3-9.5,6.3-15.5
		c0-6.1-2-11.2-6.3-15.6c-4.2-4.2-9.2-6.4-15.1-6.4c-5.9,0-11,2.1-15.1,6.4c-4.2,4.3-6.3,9.5-6.3,15.6c0,6,2.1,11.2,6.3,15.5
		C372.8,114.4,377.8,116.5,383.7,116.5z M278.4,116.5c5.9,0,11-2.1,15.1-6.4c4.2-4.3,6.3-9.5,6.3-15.5c0-6.1-2-11.2-6.3-15.6
		c-4.2-4.2-9.2-6.4-15.1-6.4c-5.9,0-11,2.1-15.1,6.4c-4.2,4.3-6.3,9.5-6.3,15.6c0,6,2.1,11.2,6.3,15.5
		C267.4,114.4,272.4,116.5,278.4,116.5z M438,113.2c1.5,0,2.9,0.4,4.2,1.1c1.4,0.8,2.5,1.9,3.3,3.3c0.8,1.4,1.2,2.8,1.2,4.4
		c0,1.5-0.4,3-1.2,4.3c-0.8,1.4-1.9,2.5-3.3,3.3c-1.3,0.8-2.8,1.2-4.3,1.2c-1.6,0-3-0.4-4.4-1.2c-1.4-0.8-2.5-1.9-3.3-3.3
		c-0.7-1.3-1.2-2.8-1.2-4.3c0-1.5,0.4-3,1.2-4.4c0.8-1.4,1.9-2.5,3.3-3.3C435.1,113.6,436.5,113.2,438,113.2z M520.3,58.3
		c9.9,0,18.3,3.6,25.2,10.7c7,7.1,10.4,15.7,10.4,25.6c0,9.9-3.5,18.5-10.4,25.5c-6.9,7-15.3,10.6-25.2,10.6
		c-9.9,0-18.3-3.6-25.2-10.6c-7-7.1-10.5-15.6-10.5-25.5c0-10,3.5-18.5,10.5-25.6C502,62,510.4,58.3,520.3,58.3z M467.8,58.3
		c2,0,3.7,0.7,5,2.1c1.4,1.4,2.1,3.1,2.1,5.1v58.1c0,2-0.7,3.7-2.1,5c-1.4,1.4-3.1,2.1-5,2.1c-2,0-3.6-0.7-5-2.1
		c-1.4-1.4-2.1-3.1-2.1-5V65.5c0-2,0.7-3.7,2.1-5C464.2,59.1,465.9,58.3,467.8,58.3z M383.7,58.3c9.9,0,18.3,3.6,25.2,10.7
		c7,7.1,10.4,15.7,10.4,25.6c0,9.9-3.5,18.5-10.5,25.5c-6.9,7-15.3,10.6-25.2,10.6c-9.9,0-18.3-3.6-25.2-10.6
		c-7-7.1-10.5-15.6-10.5-25.5c0-10,3.5-18.5,10.5-25.6C365.5,62,373.8,58.3,383.7,58.3z M278.4,58.3c9.9,0,18.3,3.6,25.2,10.7
		c7,7.1,10.4,15.7,10.4,25.6c0,9.9-3.5,18.5-10.4,25.5c-6.9,7-15.3,10.6-25.2,10.6c-9.9,0-18.3-3.6-25.2-10.6
		c-7-7.1-10.5-15.6-10.5-25.5c0-10,3.5-18.5,10.5-25.6C260.1,62,268.5,58.3,278.4,58.3z M331.1,34.7c2,0,3.7,0.7,5,2.1
		c1.4,1.4,2.1,3.1,2.1,5v81.8c0,1.9-0.7,3.6-2.1,5c-1.4,1.3-3.1,2-5,2c-2,0-3.7-0.7-5.1-2.1c-1.4-1.4-2.1-3.1-2.1-5V41.9
		c0-2,0.7-3.7,2.1-5C327.4,35.5,329.1,34.7,331.1,34.7z M215.4,130.7c-5.1,0-9.8-1.6-14-4.4c-3.6-2.4-6.6-5.4-8.9-9.1
		c-1-1.7-1.3-3.5-0.8-5.3c0.4-1.9,1.5-3.4,3.1-4.5c1.7-1,3.5-1.3,5.4-0.8c1.9,0.5,3.4,1.5,4.4,3.2c1.1,1.9,2.7,3.4,4.5,4.6
		c1.9,1.3,3.9,2.2,6.2,2.2c2.3,0,4.4-0.7,6.2-2.3c1.6-1.4,2.5-3,2.5-5.2c0-1.7-0.4-3.4-1.9-4.4c-1.9-1.4-6.5-2.7-8.8-3.3
		c-4.4-1.2-9.7-3-13.4-5.6c-5.3-3.8-7.6-9.2-7.6-15.7c0-6.1,2.4-11.2,6.8-15.4c4.5-4.3,10-6.3,16.2-6.3c4.5,0,8.7,1.2,12.6,3.5
		c3.8,2.3,6.6,5.5,8.4,9.5c0.8,1.8,0.9,3.6,0.2,5.5c-0.7,1.8-2,3.2-3.7,4c-1.7,0.8-3.6,0.9-5.4,0.2c-1.8-0.7-3.2-1.9-4-3.7
		c-0.7-1.5-1.8-2.6-3.1-3.4c-1.5-0.9-3.2-1.3-5-1.3c-2.4,0-4.4,0.7-6.2,2.3c-1.6,1.4-2.4,3.1-2.4,5.2c0,1.7,0.4,3.3,1.7,4.3
		c1.9,1.4,6.5,2.6,8.8,3.3c4.3,1.2,9.8,3,13.5,5.6c5.3,3.9,7.6,9.4,7.6,15.8c0,6.1-2.3,11.2-6.7,15.4
		C227.1,128.7,221.6,130.7,215.4,130.7z"/>
	<g>
		
			<ellipse transform="matrix(0.1616 -0.9869 0.9869 0.1616 -12.2817 151.0041)" class="st1" cx="82.7" cy="82.7" rx="82.7" ry="82.7"/>
		<g>
			<path class="st2" d="M65.5,131.6c9.5,0,11.3-6.2,17.6-6.2c6.3,0.1,8.1,6.2,17.6,6.2c10.7,0,20.1-15.3,23.2-35.4
				c1.4,2.4,2.7,4.9,3.8,7.1c4.5,9,9.6,8.7,12.6,7c3-1.7,4.4-7.9-0.4-14.9c-2.9-4.2-9.5-10.2-14.9-13.8
				c-0.4-21.8-18.9-36.4-41.8-36.6c-7.4,0.1-14.4,1.6-20.5,4.5c-0.9,0.4-2.4,0.4-3-0.4c-1.7-2.3-3.7-3.7-5.6-4.7
				c-1.3-0.7-2.4-1.2-2.4-2.4c0-1.1-0.1-2.3-0.5-3.4c-1.8-5.3-7.8-8.3-13.1-6.5c-5.3,1.8-7.8,7.6-6,12.9c1.8,5.3,7.5,8.1,12.8,6.4
				c1.1-0.4,2.1-0.9,3-1.6c0.9-0.7,1.5-0.9,2.8-0.9c1.8,0,6.2,3.7,3.7,5.9c-7.5,6.6-12.6,15.4-12.9,26.3
				c-5.5,3.4-12.6,9.8-15.6,14.2c-4.8,7-3.3,13.2-0.4,14.9c3,1.7,8,2,12.6-7c1.3-2.5,2.8-5.3,4.3-8C45,115.8,54.7,131.6,65.5,131.6"
				/>
		</g>
		<path class="st1" d="M118.1,69.5c0.8-0.1,1.7,0.5,2,1.5c0.3,1-0.1,1.9-1,2c-0.8,0.1-1.8-0.5-2-1.5
			C116.8,70.6,117.3,69.7,118.1,69.5 M84.4,57.9c-7.4,1.5-9.7-5.6-0.3-7.9c11.8-2.8,28.5,4.8,33.5,15.4c1.3,2.8-0.8,3.9-3,1
			C108.2,58.6,96.9,55.3,84.4,57.9z"/>
	</g>
</g>
</svg>
