<svg width="163" height="40" viewBox="0 0 163 40" fill="none" xmlns="http://www.w3.org/2000/svg">
<path d="M145.225 13.3435V14.6826H149.107V26.5418H150.577V14.6826H154.461V13.3435H145.225ZM136.312 14.6815V19.056H139.929V20.3951H136.312V26.5407H134.842V13.3447H142.588V14.6815H136.312ZM129.588 13.3451H131.057V26.5434H129.588V13.3451ZM124.335 26.5418V20.3193H117.777V26.5418H116.307V13.3435H117.777V18.9825H124.335V13.3435H125.805V26.5418H124.335ZM108.661 26.7492C106.87 26.7492 105.267 25.9757 104.232 24.9216L105.213 23.8269C106.21 24.7882 107.361 25.4125 108.717 25.4125C110.469 25.4125 111.563 24.5439 111.563 23.1483C111.563 21.9223 110.829 21.2256 108.416 20.3571C105.57 19.3392 104.609 18.4163 104.609 16.5118C104.609 14.3992 106.266 13.1348 108.735 13.1348C110.508 13.1348 111.638 13.6641 112.75 14.5507L111.808 15.6998C110.847 14.9081 109.961 14.4738 108.642 14.4738C106.832 14.4738 106.079 15.3786 106.079 16.4168C106.079 17.5116 106.569 18.1313 109.208 19.0768C112.129 20.1309 113.033 21.1125 113.033 23.0736C113.033 25.1478 111.412 26.7492 108.661 26.7492ZM98.2765 26.5418L93.434 19.3399C93.113 18.849 92.6789 18.1886 92.5093 17.8493C92.5093 18.3401 92.5477 19.9981 92.5477 20.7332V26.5418H89.9456V13.3435H92.4708L97.146 20.3193C97.4671 20.8101 97.8989 21.4706 98.0684 21.8099C98.0684 21.3191 98.0323 19.6611 98.0323 18.9237V13.3435H100.632V26.5418H98.2764H98.2765ZM77.4756 26.5418V13.3435H86.6339V15.9266H80.1139V18.2089H83.9029V20.7717H80.1139V23.9587H86.9165V26.5418H77.4756ZM69.9794 21.8667H67.0766V26.5421H64.4383V13.3438H70.2055C72.6923 13.3438 74.7473 14.7213 74.7473 17.5283C74.7473 20.5842 72.7127 21.8667 69.9794 21.8667ZM70.1129 15.9088H67.0767V19.3017H70.1491C71.3744 19.3017 72.0345 18.7339 72.0345 17.5849C72.0345 16.4358 71.2794 15.9088 70.1129 15.9088ZM55.7372 26.7492C52.2873 26.7492 49.9316 24.2227 49.9316 19.9612C49.9316 15.6998 52.3258 13.1348 55.7757 13.1348C59.2052 13.1348 61.5609 15.6636 61.5609 19.925C61.5609 24.1865 59.1668 26.7492 55.7372 26.7492ZM55.7192 15.7563C53.8721 15.7563 52.6468 17.2469 52.6468 19.925C52.6468 22.6032 53.9286 24.1277 55.7757 24.1277C57.6227 24.1277 58.8458 22.6393 58.8458 19.9612C58.8458 17.2831 57.5662 15.7563 55.7192 15.7563Z" fill="#241F21"/>
<path d="M37.9658 11.7246C37.5503 10.8674 37.0695 10.04 36.5116 9.25977L30.5516 11.4265C31.2447 12.1351 31.8271 12.9317 32.3033 13.7835L37.9658 11.7246ZM11.62 18.3097L5.6582 20.4764C5.7344 21.4315 5.89951 22.3749 6.13083 23.2992L11.7942 21.2394C11.61 20.2825 11.5447 19.2965 11.62 18.3097Z" fill="#141A1F"/>
<path d="M24.879 9.97413C26.121 10.5499 27.1967 11.335 28.1043 12.2555L34.0735 10.0978C32.42 7.79294 30.1677 5.86713 27.4084 4.58838C18.8744 0.635692 8.69315 4.31584 4.7146 12.7915C3.42628 15.5341 2.94747 18.4471 3.17279 21.2682L9.14288 19.1104C9.24191 17.8254 9.55718 16.5376 10.1359 15.303C12.7217 9.79635 19.335 7.40669 24.879 9.97413Z" fill="#141A1F"/>
<path d="M31.2746 20.886C31.1792 22.1704 30.8529 23.4584 30.2722 24.6941C27.6866 30.2027 21.0704 32.5928 15.5257 30.0249C14.2816 29.4481 13.1974 28.6692 12.2931 27.7467L6.33398 29.9003C7.98439 32.2056 10.2346 34.1326 12.9965 35.4125C21.533 39.365 31.7154 35.6842 35.696 27.206C36.9856 24.4648 37.4609 21.5512 37.2337 18.7324L31.2746 20.886Z" fill="#141A1F"/>
<path d="M32.736 13.6543L27.0464 15.7026C28.1036 17.5761 28.603 19.7326 28.439 21.9017L34.4147 19.7515C34.2434 17.6302 33.6719 15.5593 32.736 13.6543ZM6.44344 23.1199L0.753906 25.1701C1.27611 27.222 2.1829 29.1721 3.42962 30.9076L9.40441 28.7555C7.87061 27.1977 6.85082 25.226 6.44344 23.1199Z" fill="#141A1F"/>
<path d="M37.12 10.1555C36.9322 9.85116 36.737 9.55139 36.5292 9.25977L30.5659 11.4252C30.8282 11.6933 31.0696 11.9777 31.3002 12.2693L37.12 10.1555ZM11.6006 19.4993C11.5861 19.1026 11.5924 18.7041 11.6233 18.3047L5.6582 20.4702C5.68906 20.8515 5.73717 21.23 5.79435 21.6077L11.6006 19.4993H11.6006Z" fill="#141A1F"/>
<path d="M37.2348 18.7324L31.2753 20.8901C31.2126 21.7437 31.0454 22.5992 30.7718 23.4402L37.2585 21.0872C37.3048 20.2987 37.2975 19.5119 37.2348 18.7324ZM6.33398 29.9221C6.79297 30.5651 7.30103 31.1782 7.85271 31.7569L14.3403 29.4031C13.5823 28.931 12.897 28.3803 12.2926 27.7636L6.33398 29.9221Z" fill="#141A1F"/>
</svg>
