<svg width="143" height="50" viewBox="0 0 143 50" fill="none" xmlns="http://www.w3.org/2000/svg">
<g clip-path="url(#clip0)">
<path d="M22.4477 41.7474C28.6818 40.6486 33.8307 39.7393 33.8898 39.7268L33.9974 39.704L28.1118 32.7189C24.8748 28.8771 22.2263 25.7189 22.2263 25.7007C22.2263 25.6663 28.3036 8.96784 28.3378 8.90843C28.3492 8.88857 32.485 16.013 38.3632 26.1786C43.8665 35.6958 48.4037 43.5428 48.4459 43.6163L48.5226 43.75L29.8179 43.7476L11.1132 43.7452L22.4477 41.7474V41.7474ZM94.1781 40.0581C91.3309 39.8759 89.6749 38.2582 89.2361 35.2303C89.1194 34.4249 89.1189 34.404 89.107 29.1748L89.0954 24.1139H90.3555H91.6156L91.6255 29.0091C91.6345 33.421 91.6401 33.9383 91.6824 34.2487C91.8539 35.5083 92.1955 36.3553 92.777 36.9633C93.2424 37.4499 93.7872 37.7348 94.5414 37.886C94.8972 37.9573 95.9094 37.9575 96.2338 37.8863C96.9983 37.7184 97.6112 37.3864 98.1517 36.8473C98.7679 36.2327 99.2237 35.3608 99.4443 34.3748L99.5186 34.0425L99.5269 29.1058L99.5352 24.1692H100.822H102.108V31.9297V39.6903H100.835H99.5617V38.459C99.5617 37.6224 99.5525 37.2308 99.533 37.2372C99.5173 37.2425 99.4519 37.3423 99.3877 37.4591C98.9489 38.2575 98.2179 38.9876 97.4169 39.4275C96.4567 39.9548 95.4937 40.1423 94.1781 40.0581V40.0581ZM123.078 40.0455C122.073 39.9701 121.014 39.6254 120.149 39.0915C118.326 37.9663 117.247 36.1115 116.932 33.5591C116.822 32.6759 116.809 31.4895 116.9 30.7389C117.104 29.062 117.765 27.4157 118.705 26.2405C118.946 25.9392 119.493 25.3934 119.795 25.1529C120.61 24.5033 121.564 24.0491 122.577 23.8281C123.167 23.6993 124.206 23.6388 124.833 23.6968C126.407 23.8424 127.851 24.5822 128.831 25.7465C129.828 26.9294 130.376 28.5824 130.446 30.6178C130.457 30.9368 130.459 31.4961 130.452 31.8606L130.438 32.5235L124.923 32.5304L119.408 32.5374V32.783C119.408 33.5305 119.59 34.3819 119.905 35.1064C120.176 35.7311 120.644 36.4132 121.026 36.7433C121.811 37.4202 122.771 37.8253 123.822 37.9228C124.212 37.959 125.205 37.9209 125.649 37.8528C126.916 37.6586 128.121 37.1628 129.093 36.4351C129.208 36.3495 129.317 36.2695 129.337 36.2574C129.365 36.2396 129.372 36.4633 129.371 37.4035L129.37 38.5717L129.11 38.7325C128.009 39.4116 126.749 39.8476 125.414 40.0108C125.016 40.0595 123.554 40.0812 123.078 40.0455L123.078 40.0455ZM127.877 30.1927C127.877 28.9405 127.348 27.5495 126.6 26.8332C126.066 26.322 125.42 26.0096 124.653 25.891C124.29 25.8349 123.524 25.8565 123.141 25.9337C122.332 26.0969 121.663 26.4519 121.079 27.0276C120.464 27.6334 120.004 28.3693 119.714 29.2077C119.61 29.5092 119.488 30.0042 119.45 30.2795L119.432 30.4107H123.655H127.877V30.1927ZM53.0666 39.6557C53.0731 39.6367 54.9459 34.7277 57.2284 28.7468L61.3784 17.8725L62.7118 17.8724L64.0452 17.8723L64.1558 18.1554C64.4939 19.0205 72.4638 39.6666 72.4638 39.6774C72.4638 39.6844 71.8255 39.6901 71.0453 39.69L69.6267 39.6897L68.4781 36.6382L67.3294 33.5868L62.7042 33.5867L58.0791 33.5867L58.0389 33.6902C58.0168 33.7472 57.5261 35.1203 56.9483 36.7415L55.8979 39.6892L54.4764 39.6897C53.3512 39.6901 53.0573 39.683 53.0666 39.6556V39.6557ZM66.4852 31.2581C66.4852 31.2532 65.7121 29.1622 64.7673 26.6114C62.9998 21.8392 62.9009 21.5521 62.7613 20.786C62.6958 20.4267 62.6626 20.4167 62.6238 20.7446C62.596 20.9789 62.4755 21.5032 62.3826 21.794C62.3365 21.9383 61.5406 24.1181 60.6138 26.638C59.687 29.1579 58.9288 31.2302 58.9288 31.2432C58.9288 31.2562 60.629 31.2669 62.707 31.2669C64.785 31.2669 66.4852 31.2629 66.4852 31.2581V31.2581ZM73.3219 39.2928V38.8954L77.9299 32.5748L82.538 26.2543L78.3659 26.2405L74.1938 26.2266L74.1865 25.1703L74.1793 24.1139H80.2137H86.248V24.4707V24.8275L81.6395 31.1825C79.1048 34.6778 77.0309 37.5434 77.0309 37.5506C77.0309 37.5578 79.0798 37.5637 81.5841 37.5637H86.1373V38.6269V39.6902H79.7296H73.3219V39.2928ZM107.137 39.6718C107.126 39.6617 107.118 36.157 107.118 31.8836V24.1139H108.377H109.637V25.7157C109.637 26.5967 109.648 27.3175 109.661 27.3175C109.674 27.3175 109.735 27.1733 109.797 26.9971C110.08 26.1894 110.571 25.4347 111.204 24.8349C111.774 24.2946 112.425 23.9714 113.194 23.8478C113.41 23.813 113.592 23.8064 114.024 23.8176C114.566 23.8317 114.85 23.8713 115.18 23.9788L115.283 24.0127V25.317V26.6214L114.986 26.4728C114.46 26.2102 113.942 26.1063 113.318 26.1387C112.912 26.1597 112.646 26.2117 112.322 26.3332C111.654 26.5831 111.113 27.0243 110.735 27.6264C110.187 28.4982 109.796 29.6187 109.681 30.6486C109.661 30.8334 109.648 32.3386 109.644 35.3059L109.636 39.6902H108.396C107.713 39.6902 107.147 39.6819 107.137 39.6718ZM0 39.6172C0 39.6074 2.77324 34.804 6.16274 28.943L12.3255 18.2866L19.5074 12.2728C23.4575 8.9653 26.7 6.25508 26.713 6.25014C26.726 6.24519 26.6741 6.37569 26.5976 6.54012C26.5211 6.70455 23.0117 14.2151 18.799 23.2301L11.1395 39.6212L5.56974 39.6281C2.50638 39.632 0 39.6271 0 39.6172V39.6172Z" fill="#141A1F"/>
</g>
<defs>
<clipPath id="clip0">
<rect width="143" height="50" fill="white"/>
</clipPath>
</defs>
</svg>
