<svg width="34" height="40" viewBox="0 0 34 40" fill="none" xmlns="http://www.w3.org/2000/svg">
<path d="M16.4459 10.1647C16.4459 10.2929 16.3181 10.2929 16.3181 10.2929H16.1903C16.0624 10.2929 16.0624 10.1647 15.9346 10.0365C15.9346 10.0365 15.8068 9.90825 15.8068 9.78005C15.8068 9.65184 15.8068 9.65184 15.9346 9.65184L16.1903 9.78005C16.3181 9.90825 16.4459 10.0365 16.4459 10.1647ZM14.1451 8.88261C14.1451 8.24158 13.8895 7.85697 13.5061 7.85697C13.5061 7.85697 13.5061 7.98517 13.3782 7.98517V8.24158H13.7617C13.7617 8.49799 13.8895 8.6262 13.8895 8.88261H14.1451ZM18.6188 8.24158C18.8745 8.24158 19.0023 8.49799 19.1301 8.88261H19.3857C19.2579 8.75441 19.2579 8.6262 19.2579 8.49799C19.2579 8.36979 19.2579 8.24158 19.1301 8.11338C19.0023 7.98517 18.8745 7.85697 18.7467 7.85697C18.7467 7.85697 18.6188 7.98517 18.491 7.98517C18.491 8.11338 18.6188 8.11338 18.6188 8.24158ZM14.7842 10.2929C14.6564 10.2929 14.6564 10.2929 14.6564 10.1647C14.6564 10.0365 14.6564 9.90825 14.7842 9.78005C15.0399 9.78005 15.1677 9.65184 15.1677 9.65184C15.2955 9.65184 15.2955 9.78005 15.2955 9.78005C15.2955 9.90825 15.1677 10.0365 14.9121 10.2929H14.7842ZM13.3782 10.1647C12.867 9.90825 12.7391 9.52364 12.7391 8.88261C12.7391 8.49799 12.7391 8.24158 12.9948 7.98517C13.1226 7.72876 13.3782 7.60056 13.6339 7.60056C13.8895 7.60056 14.0173 7.72876 14.273 7.98517C14.4008 8.36979 14.5286 8.75441 14.5286 9.13902V9.26723V9.39543H14.6564V9.26723C14.7842 9.26723 14.7842 9.01082 14.7842 8.49799C14.7842 8.11338 14.7842 7.72876 14.5286 7.34415C14.273 6.95953 14.0173 6.70312 13.5061 6.70312C13.1226 6.70312 12.7391 6.95953 12.6113 7.34415C12.3557 7.85697 12.3045 8.24158 12.3045 8.88261C12.3045 9.39543 12.4835 9.90825 12.9948 10.4211C13.1226 10.2929 13.2504 10.2929 13.3782 10.1647ZM29.3557 28.2416C29.4835 28.2416 29.4835 28.1903 29.4835 28.0749C29.4835 27.7929 29.3557 27.4595 28.9722 27.0877C28.5888 26.7031 27.9497 26.4595 27.1827 26.357C27.0549 26.3441 26.9271 26.3441 26.9271 26.3441C26.7993 26.3185 26.7993 26.3185 26.6715 26.3185C26.5436 26.3057 26.288 26.28 26.1602 26.2544C26.5436 25.0621 26.6715 24.0108 26.6715 23.0877C26.6715 21.8057 26.4158 20.9083 25.9045 20.139C25.3933 19.3698 24.882 18.9852 24.2429 18.857C24.1151 18.9852 24.1151 18.9852 24.1151 19.1134C24.7542 19.3698 25.3933 19.8826 25.7767 20.6518C26.1602 21.5493 26.288 22.3185 26.288 23.2159C26.288 23.9339 26.1602 24.998 25.6489 26.357C25.1376 26.5621 24.6263 27.0365 24.2429 27.78C24.2429 27.8954 24.2429 27.9595 24.3707 27.9595C24.3707 27.9595 24.4985 27.8441 24.6263 27.6262C24.882 27.4082 25.0098 27.1903 25.2654 26.9724C25.6489 26.7544 25.9045 26.639 26.288 26.639C26.9271 26.639 27.5662 26.7288 27.9497 26.9083C28.4609 27.0749 28.7166 27.2544 28.8444 27.4595C28.9722 27.6518 29.1 27.8313 29.2279 27.998C29.2279 28.1647 29.3557 28.2416 29.3557 28.2416ZM17.5963 9.65184C17.4685 9.52364 17.4685 9.26723 17.4685 9.01082C17.4685 8.49799 17.4685 8.24158 17.7241 7.85697C17.9797 7.60056 18.2354 7.47235 18.491 7.47235C18.8745 7.47235 19.1301 7.72876 19.3857 7.98517C19.5136 8.36979 19.6414 8.6262 19.6414 9.01082C19.6414 9.65184 19.3857 10.0365 18.8745 10.1647C18.8745 10.1647 19.0023 10.2929 19.1301 10.2929C19.3857 10.2929 19.5136 10.4211 19.7692 10.5493C19.897 9.78005 20.0248 9.26723 20.0248 8.6262C20.0248 7.85697 19.897 7.34415 19.6414 6.95953C19.2579 6.57492 18.8745 6.44671 18.3632 6.44671C17.9797 6.44671 17.5963 6.57492 17.2128 6.83133C16.9572 7.21594 16.8294 7.47235 16.8294 7.85697C16.8294 8.49799 16.9572 9.01082 17.2128 9.52364C17.3406 9.52364 17.4685 9.65184 17.5963 9.65184ZM19.1301 11.7031C17.4685 12.857 16.1903 13.3698 15.1677 13.3698C14.273 13.3698 13.3782 12.9852 12.6113 12.3441C12.7391 12.6006 12.867 12.857 12.9948 12.9852L13.7617 13.7544C14.273 14.2672 14.9121 14.5236 15.5512 14.5236C16.4459 14.5236 17.4685 14.0108 18.7467 13.1134L19.897 12.3441C20.1527 12.0877 20.4083 11.8313 20.4083 11.4467C20.4083 11.3185 20.4083 11.1903 20.2805 11.1903C20.1527 10.9339 19.5136 10.5493 18.2354 10.1647C17.085 9.65184 16.1903 9.39543 15.679 9.39543C15.2955 9.39543 14.6564 9.65184 13.7617 10.1647C12.9948 10.6775 12.4835 11.1903 12.4835 11.7031C12.4835 11.7031 12.6113 11.8313 12.7391 12.0877C13.5061 12.7288 14.273 13.1134 15.0399 13.1134C16.0624 13.1134 17.3406 12.6006 19.0023 11.3185V11.5749C19.1301 11.5749 19.1301 11.7031 19.1301 11.7031ZM22.07 37.6006C22.5812 38.5647 23.476 39.0493 24.4985 39.0493C24.7542 39.0493 25.0098 39.0108 25.2654 38.9339C25.5211 38.8826 25.7767 38.7929 25.9045 38.6903C26.0324 38.6006 26.1602 38.5108 26.288 38.4082C26.5436 38.3185 26.5436 38.2544 26.6715 38.1903L28.8444 36.3057C29.3557 35.8967 29.8669 35.539 30.506 35.2288C31.0173 34.9211 31.5286 34.7159 31.7842 34.6006C32.1677 34.498 32.4233 34.3441 32.679 34.139C32.8068 33.9467 32.9346 33.7031 32.9346 33.3954C32.9346 33.0236 32.679 32.7416 32.4233 32.5365C32.1677 32.3313 31.9121 32.1903 31.6564 32.1006C31.4008 32.0108 31.1451 31.8057 30.7617 31.4595C30.506 31.1262 30.2504 30.6647 30.1226 30.0621L29.9948 29.3185C29.8669 28.9724 29.8669 28.7159 29.7391 28.5749C29.7391 28.5365 29.7391 28.5236 29.6113 28.5236C29.4835 28.5236 29.2279 28.639 29.1 28.857C28.8444 29.0749 28.5888 29.3185 28.3331 29.5749C28.2053 29.8313 27.8218 30.0621 27.5662 30.28C27.1827 30.498 26.7993 30.6134 26.5436 30.6134C25.5211 30.6134 25.0098 30.3313 24.6263 29.78C24.3707 29.3698 24.2429 28.8954 24.1151 28.357C23.8594 28.139 23.7316 28.0236 23.476 28.0236C22.8369 28.0236 22.5812 28.6903 22.5812 30.0365V30.4595V31.9467V33.0877V33.639V34.0236C22.5812 34.139 22.4534 34.3954 22.4534 34.7929C22.3256 35.1903 22.3256 35.6416 22.3256 36.1518L22.07 37.5749V37.5967V37.6006ZM3.53613 36.9185C4.72485 37.0929 6.09252 37.4659 7.63913 38.0352C9.18575 38.5993 10.1316 38.8941 10.4767 38.8941C11.3715 38.8941 12.1128 38.4967 12.7264 37.7288C12.8542 37.48 12.8542 37.1877 12.8542 36.8518C12.8542 35.6403 12.1256 34.1082 10.6685 32.2493L9.79928 31.0826C9.62034 30.839 9.40304 30.4672 9.12184 29.9672C8.85342 29.4672 8.61056 29.0826 8.41883 28.8134C8.25267 28.5185 7.98425 28.2236 7.63913 27.9288C7.3068 27.6339 6.92334 27.4416 6.50154 27.339C5.9647 27.4416 5.59402 27.6211 5.41507 27.8647C5.23613 28.1082 5.13387 28.3775 5.10831 28.6595C5.06996 28.9288 4.99327 29.1082 4.86545 29.198C4.73763 29.2749 4.52034 29.339 4.22635 29.4031C4.16244 29.4031 4.0474 29.4031 3.88124 29.4159H3.53613C2.85868 29.4159 2.39853 29.4929 2.15567 29.6211C1.83613 29.9929 1.66996 30.4159 1.66996 30.8647C1.66996 31.0698 1.72109 31.4159 1.82334 31.9031C1.9256 32.3775 1.97673 32.7621 1.97673 33.0313C1.97673 33.557 1.82334 34.0826 1.5038 34.6082C1.18425 35.1595 1.01808 35.5698 1.01808 35.8621C1.1459 36.3595 1.98951 36.7095 3.53613 36.9147V36.9185ZM7.79252 25.2608C7.79252 24.3762 8.02259 23.4018 8.49552 22.248C8.95568 21.0941 9.41582 20.3249 9.86319 19.8121C9.83763 19.6839 9.77372 19.6839 9.67146 19.6839L9.54364 19.5557C9.17297 19.9403 8.7256 20.8377 8.18876 22.1198C7.65192 23.2736 7.37071 24.3377 7.37071 25.1198C7.37071 25.6967 7.51131 26.1967 7.76695 26.6326C8.04816 27.0557 8.7256 27.6711 9.79928 28.4531L11.1542 29.3377C12.5985 30.5941 13.3654 31.4659 13.3654 31.9788C13.3654 32.248 13.2376 32.5172 12.8542 32.8121C12.5985 33.1198 12.2534 33.2736 11.9594 33.2736C11.9339 33.2736 11.9211 33.2993 11.9211 33.3634C11.9211 33.3762 12.0489 33.6326 12.3173 34.1326C12.8542 34.8634 14.0045 35.2224 15.5384 35.2224C18.3504 35.2224 20.5233 34.0685 22.185 31.7608C22.185 31.1198 22.185 30.7224 22.0572 30.5557V30.0813C22.0572 29.248 22.185 28.6198 22.4406 28.2095C22.6963 27.7993 22.9519 27.607 23.3354 27.607C23.591 27.607 23.8466 27.6967 24.1023 27.889C24.2301 26.9018 24.2301 26.0429 24.2301 25.2736C24.2301 24.107 24.2301 23.1454 23.9745 22.248C23.8466 21.4788 23.591 20.8377 23.3354 20.3249C23.0797 19.9403 22.8241 19.5557 22.5685 19.1711C22.3128 18.7865 22.185 18.4018 21.9294 18.0172C21.8015 17.5044 21.6737 17.1198 21.6737 16.4788C21.2903 15.8377 21.0346 15.1967 20.6512 14.5557C20.3955 13.9147 20.1399 13.2736 19.8842 12.7608L18.7339 13.6583C17.4557 14.5557 16.4331 14.9403 15.5384 14.9403C14.7715 14.9403 14.1324 14.8121 13.7489 14.2993L12.982 13.6583C12.982 14.0429 12.8542 14.5557 12.5985 15.0685L11.7933 16.607C11.4354 17.5044 11.2436 18.0172 11.2053 18.4018C11.1542 18.6583 11.1158 18.9147 11.0903 18.9147L10.1316 20.8377C9.09628 22.7608 8.57222 24.5429 8.57222 26.0172C8.57222 26.3121 8.59778 26.6198 8.64891 26.9275C8.07372 26.53 7.79252 25.9788 7.79252 25.2608ZM16.9444 37.389C15.2827 37.389 14.0045 37.6147 13.1098 38.0621V38.0236C12.4707 38.7929 11.7549 39.1903 10.7579 39.1903C10.1316 39.1903 9.1474 38.9467 7.81808 38.4595C6.47598 37.998 5.28725 37.6441 4.25191 37.4108C4.14966 37.3813 3.91958 37.3377 3.54891 37.2788C3.19101 37.2211 2.85868 37.1621 2.5647 37.1031C2.29628 37.0454 1.98951 36.9583 1.65718 36.8403C1.33763 36.739 1.08199 36.607 0.890261 36.4467C0.71387 36.2852 0.626953 36.1031 0.626953 35.8993C0.626953 35.6941 0.670412 35.4749 0.757329 35.2416C0.839134 35.1006 0.928607 34.9595 1.01808 34.8313C1.10755 34.6903 1.18425 34.5621 1.23537 34.4339C1.31207 34.3185 1.36319 34.2031 1.41432 34.0749C1.46545 33.9595 1.51658 33.8441 1.54214 33.7031C1.5677 33.5749 1.59327 33.4467 1.59327 33.3185C1.59327 33.1903 1.54214 32.8057 1.43989 32.1262C1.33763 31.4595 1.2865 31.0365 1.2865 30.857C1.2865 30.2929 1.41432 29.8441 1.69552 29.5236C1.97673 29.2031 2.24515 29.0365 2.52635 29.0365H3.99628C4.11131 29.0365 4.29026 28.9724 4.55868 28.8185C4.64816 28.6134 4.72485 28.4467 4.77598 28.2929C4.83988 28.139 4.86545 28.0236 4.89101 27.9724C4.91658 27.8954 4.94214 27.8185 4.9677 27.7544C5.01883 27.6647 5.08274 27.5621 5.17222 27.4595C5.06996 27.3313 5.01883 27.1647 5.01883 26.9595C5.01883 26.8185 5.01883 26.6903 5.0444 26.6134C5.0444 26.1518 5.26169 25.498 5.72184 24.639L6.16921 23.8313C6.53989 23.139 6.82109 22.6262 7.0256 22.1134C7.24289 21.6006 7.47297 20.8313 7.72861 19.8057C7.93312 18.9083 8.41883 18.0108 9.18575 17.1134L10.1444 15.9595C10.8091 15.1903 11.2436 14.5493 11.4865 14.0365C11.7294 13.5236 11.8572 12.8826 11.8572 12.3698C11.8572 12.1134 11.7933 11.3441 11.6527 10.0621C11.5248 8.78005 11.4609 7.49799 11.4609 6.34415C11.4609 5.44671 11.5376 4.80569 11.7038 4.16466C11.87 3.52364 12.1639 2.88261 12.5985 2.36979C12.982 1.85697 13.4933 1.34415 14.2602 1.08774C15.0271 0.83133 15.9218 0.703125 16.9444 0.703125C17.3279 0.703125 17.7113 0.703125 18.0948 0.83133C18.4782 0.83133 18.9895 0.959535 19.6286 1.21595C20.1399 1.47236 20.6512 1.72877 21.0346 2.11338C21.5459 2.498 21.9294 3.13902 22.3128 3.78005C22.5685 4.54928 22.8241 5.31851 22.9519 6.34415C23.0797 6.98517 23.0797 7.6262 23.2076 8.52364C23.2076 9.29287 23.3354 9.80569 23.3354 10.1903C23.4632 10.5749 23.4632 11.0877 23.591 11.7288C23.7188 12.2416 23.8466 12.7544 24.1023 13.139C24.3579 13.6518 24.6136 14.1647 24.997 14.6775C25.3805 15.3185 25.8918 15.9595 26.403 16.7288C27.5534 18.0108 28.4482 19.4211 28.9594 20.8313C29.5985 22.1134 29.982 23.78 29.982 25.5621C29.982 26.4467 29.8542 27.3057 29.5985 28.139C29.8542 28.139 29.982 28.2416 30.1098 28.4211C30.2376 28.6006 30.3654 28.9852 30.4933 29.5877L30.6211 30.5365C30.7489 30.8185 30.8767 31.0877 31.2602 31.3185C31.5158 31.5493 31.7715 31.7416 32.1549 31.8954C32.4106 32.0236 32.794 32.2031 33.0497 32.4339C33.3053 32.6903 33.4331 32.9595 33.4331 33.2416C33.4331 33.6775 33.3053 33.998 33.0497 34.2288C32.794 34.4852 32.5384 34.6647 32.1549 34.78C31.8993 34.9082 31.388 35.1647 30.6211 35.5262C29.982 35.9057 29.3429 36.3659 28.7038 36.9108L27.4256 38.0018C26.9143 38.5018 26.403 38.8608 26.0196 39.0788C25.6361 39.3095 25.1248 39.4249 24.6136 39.4249L23.7188 39.3223C22.6963 39.0531 22.0572 38.5403 21.6737 37.7583C19.6286 37.5095 17.967 37.3865 16.9444 37.3865" fill="black"/>
</svg>
