            <svg xmlns="http://www.w3.org/2000/svg" aria-hidden="true" width="118" height="45" fill="none" viewBox="0 0 118 45">
                <path fill="#E8003D" fill-rule="evenodd" d="m117.658 17.264-5.363 8.435-.861 1.414-.054.082-.91-1.496-1.165-1.851 4.186-6.584h4.167Zm-17.229 0 8.615 13.144-2.052 3.112-.004-.007-.116.19-7.07 10.728h-4.167l9.242-14.024-8.614-13.143h4.166Zm9.812 17.749-1.176 1.85 4.769 7.568H118l-5.933-9.418-.913-1.5-.913 1.5Zm-23.287-6.468c0-5.951-3.253-8.487-7.417-8.487-4.792 0-7.074 2.64-7.074 8.487V44.43h-4.279V27.872c0-7.814 4.165-11.178 10.497-11.178h2.12c6.332 0 10.497 3.364 10.497 11.178v16.56h-4.343l-.001-15.887Zm-37.355-11.85c-7.302 0-13.12 4.968-13.12 14.178C36.478 40.084 42.069 45 49.37 45s13.12-5.123 13.12-14.334c0-9.21-5.59-13.971-12.892-13.971Zm-.114 24.942c-5.191 0-8.67-3.726-8.67-10.867 0-7.142 3.479-10.712 8.67-10.712s8.728 3.57 8.728 10.712c0 7.141-3.537 10.867-8.728 10.867ZM30.022 17.264l-4.279 2.389V44.43h4.279V17.264ZM27.954 6.863c-1.483 0-2.632 1.242-2.632 2.794 0 1.5 1.149 2.743 2.632 2.743 1.34 0 2.49-1.242 2.49-2.743 0-1.552-1.15-2.794-2.49-2.794ZM17.194 0l-4.279 2.174V44.43h4.279V0ZM4.787 17.264.508 19.653V44.43h4.279V17.264ZM2.722 6.863C1.188 6.863 0 8.105 0 9.657c0 1.5 1.188 2.743 2.722 2.743 1.385 0 2.573-1.242 2.573-2.743 0-1.552-1.188-2.794-2.573-2.794Z" clip-rule="evenodd"/>
            </svg>