<svg width="167" height="40" viewBox="0 0 167 40" fill="none" xmlns="http://www.w3.org/2000/svg">
<g clip-path="url(#clip0)">
<path d="M60.5984 19.3897L54.6808 11.4668H51.9434V29.8096H54.47V15.3468L60.5984 23.5642L66.7669 15.3468V29.8096H69.2935V11.4668H66.557L60.5984 19.3897Z" fill="#141A1F"/>
<path d="M75.6058 11.4668H73.0801V29.8096H75.6058V11.4668Z" fill="#141A1F"/>
<path d="M91.4086 20.591C92.222 19.5873 92.636 18.3107 92.5691 17.0126C92.6131 16.238 92.4789 15.4637 92.1771 14.751C91.8752 14.0383 91.414 13.4068 90.8301 12.9064C89.4551 11.8771 87.769 11.3681 86.0635 11.4673H79.3984V29.8092H81.9242V22.8265H85.9851L90.3488 29.8092H93.3243L88.5228 22.4141C89.6408 22.1084 90.6455 21.4756 91.412 20.5945L91.4086 20.591ZM85.9543 20.4359H81.9208V13.7226H85.846C88.6408 13.7226 90.0382 14.8461 90.0382 17.0932C90.0745 17.9823 89.7632 18.85 89.1721 19.5071C88.5947 20.1275 87.5213 20.4374 85.9518 20.4368L85.9543 20.4359Z" fill="#141A1F"/>
<path d="M101.798 11.4668L94.5898 29.8096H97.2991L99.2429 24.6664H106.782L108.726 29.8096H111.437L104.255 11.4668H101.798ZM100.144 22.2758L103.016 14.6614L105.888 22.275L100.144 22.2758Z" fill="#141A1F"/>
<path d="M126.31 26.064L116.206 11.4668H113.336V29.8096H115.863V15.118L126.045 29.8096H128.835V11.4668H126.31V26.064Z" fill="#141A1F"/>
<path d="M131.738 13.8565H137.797V29.8096H140.323V13.8565H146.418V11.4668H131.742L131.738 13.8565Z" fill="#141A1F"/>
<path d="M151.844 11.4668H149.318V29.8096H151.844V11.4668Z" fill="#141A1F"/>
<path d="M166.282 22.3426C165.847 21.6155 165.236 21.0135 164.508 20.5941C163.758 20.1739 162.984 19.7979 162.192 19.4677C161.353 19.1147 160.582 18.8277 159.879 18.6064C159.24 18.4181 158.64 18.1175 158.104 17.7183C157.889 17.5766 157.712 17.3844 157.587 17.1581C157.462 16.9318 157.392 16.6781 157.384 16.4186C157.384 14.5656 158.748 13.639 161.476 13.639C163.01 13.6266 164.517 14.0491 165.828 14.859V12.3688C164.383 11.6331 162.788 11.2506 161.171 11.252C159.018 11.252 157.427 11.7548 156.399 12.7605C155.903 13.2268 155.51 13.7937 155.244 14.4243C154.978 15.055 154.846 15.7353 154.855 16.4212C154.831 17.279 155.083 18.1214 155.573 18.8204C156.024 19.458 156.636 19.961 157.343 20.277C158.047 20.5889 158.821 20.8939 159.665 21.1919L161.989 21.9925C162.666 22.2102 163.275 22.6025 163.758 23.1311C164.229 23.6458 164.485 24.3267 164.47 25.0295C164.462 26.7624 163.054 27.6288 160.246 27.6288C158.42 27.6079 156.635 27.0676 155.096 26.0692V28.705C156.765 29.5555 158.604 30.0053 160.472 30.0194C162.167 30.1185 163.849 29.6544 165.262 28.6972C165.825 28.2764 166.278 27.7216 166.581 27.0814C166.883 26.4413 167.026 25.7354 166.997 25.026C167.017 24.0804 166.769 23.1488 166.282 22.3426Z" fill="#141A1F"/>
<path d="M30.6326 21.9817C29.612 21.5055 28.6568 20.8965 27.7911 20.1699C25.8473 21.2651 23.9273 22.4132 22.0091 23.4902C21.5648 23.7391 21.1217 23.978 20.6797 24.2067C21.203 24.6066 21.7461 24.9791 22.3069 25.3227C29.5361 29.7209 39.5001 27.3043 45.3614 21.5346C40.9106 24.3168 35.2925 24.0612 30.6326 21.9817Z" fill="#141A1F"/>
<path d="M42.7316 14.3938C36.7237 14.0296 30.7284 15.2949 25.361 18.0598C24.9343 17.682 24.4983 17.3112 24.0511 16.9602C21.6818 15.0633 18.8066 13.9315 15.7972 13.711C12.8582 13.5459 9.91724 13.996 7.15674 15.0332C4.39625 16.0705 1.87517 17.6728 -0.25 19.7407C1.57728 18.6698 3.60259 17.9935 5.69915 17.754C7.79572 17.5146 9.91838 17.7172 11.9343 18.3492C14.252 19.132 16.3729 20.4205 18.148 22.1243C13.1494 24.9611 8.00739 27.4963 2.35683 27.5752C9.04523 27.9698 15.7012 26.3683 21.504 22.9682C28.2502 19.1862 35.0186 14.5073 42.7316 14.3938Z" fill="#141A1F"/>
</g>
<defs>
<clipPath id="clip0">
<rect width="167" height="40" fill="white"/>
</clipPath>
</defs>
</svg>
