<svg width="175" height="40" viewBox="0 0 175 40" fill="none" xmlns="http://www.w3.org/2000/svg">
<g clip-path="url(#clip0)">
<path d="M22.1846 30.0448H11.2073L4.48996 21.4167L7.05754 10.8557L16.7398 5.99252L26.6099 10.8559L29.0713 21.4078L22.1846 30.0448Z" stroke="#141A1F" stroke-width="1.54644"/>
<path d="M17.4219 1.1244C17.4219 1.06709 17.4821 1.0297 17.5335 1.05507L29.7558 7.08924C29.8046 7.11336 29.8139 7.17911 29.7736 7.21578L28.6222 8.26283C28.5985 8.2844 28.5639 8.2891 28.5353 8.27464L17.4643 2.67968C17.4383 2.66653 17.4219 2.63984 17.4219 2.61067L17.4219 1.1244Z" fill="#141A1F"/>
<path d="M16.0879 1.1244C16.0879 1.06709 16.0277 1.0297 15.9763 1.05507L3.75399 7.08924C3.70513 7.11336 3.69588 7.17911 3.7362 7.21578L4.88758 8.26283C4.9113 8.2844 4.94587 8.2891 4.97448 8.27464L16.0454 2.67968C16.0715 2.66653 16.0879 2.63984 16.0879 2.61067L16.0879 1.1244Z" fill="#141A1F"/>
<path d="M3.11596 8.26388C3.07236 8.22684 3.00534 8.24859 2.99152 8.30425L-0.308903 21.5986C-0.322121 21.6519 -0.277693 21.7018 -0.223652 21.6944L1.31348 21.4839C1.34494 21.4796 1.37054 21.4563 1.37795 21.4252L4.26944 9.2995C4.27624 9.27097 4.26646 9.241 4.24416 9.22206L3.11596 8.26388Z" fill="#141A1F"/>
<path d="M30.5227 8.26388C30.5663 8.22684 30.6333 8.24859 30.6472 8.30425L33.9476 21.5986C33.9608 21.6519 33.9164 21.7018 33.8623 21.6944L32.3252 21.4839C32.2937 21.4796 32.2681 21.4563 32.2607 21.4252L29.3692 9.2995C29.3624 9.27097 29.3722 9.241 29.3945 9.22206L30.5227 8.26388Z" fill="#141A1F"/>
<path d="M0.105219 22.8368C0.0494079 22.849 0.025552 22.9155 0.0608883 22.9604L8.52276 33.6948C8.55669 33.7379 8.62344 33.7327 8.6506 33.685L9.4212 32.33C9.43691 32.3024 9.43419 32.268 9.41433 32.2433L1.62382 22.5471C1.60548 22.5243 1.5758 22.5139 1.54718 22.5201L0.105219 22.8368Z" fill="#141A1F"/>
<path d="M33.3948 22.8368C33.4506 22.849 33.4744 22.9155 33.4391 22.9604L24.9772 33.6948C24.9433 33.7379 24.8766 33.7327 24.8494 33.685L24.0788 32.33C24.0631 32.3024 24.0658 32.268 24.0857 32.2433L31.8762 22.5471C31.8945 22.5243 31.9242 22.5139 31.9528 22.5201L33.3948 22.8368Z" fill="#141A1F"/>
<path d="M9.76928 34.3766C9.7442 34.4281 9.78172 34.4883 9.83888 34.4883L23.4522 34.4864C23.5066 34.4864 23.5438 34.4312 23.5236 34.3804L22.9477 32.9302C22.9359 32.9004 22.907 32.8809 22.8751 32.8812L10.4876 32.9989C10.4584 32.9992 10.432 33.0159 10.4192 33.0422L9.76928 34.3766Z" fill="#141A1F"/>
<path d="M56.8023 13.668L51.5466 26.4066H49.5584L44.3027 13.668H46.2909L50.5439 24.1791L54.7968 13.668H56.8023Z" fill="black"/>
<path d="M71.479 26.4066H69.6464V16.8526L65.4626 24.2661H64.6846L60.5008 16.8352V26.4066H58.6855V13.668H60.6737L65.0822 21.4643L69.4908 13.668H71.479V26.4066Z" fill="black"/>
<path d="M75.2955 16.5394L77.6986 24.005L80.0499 16.5394H81.554L83.9052 24.005L86.3083 16.5394H88.1409L84.9079 26.4066H83.0408L80.8106 19.1846L78.5458 26.4066H76.6786L73.4457 16.5394H75.2955Z" fill="black"/>
<path d="M96.3126 25.0666C95.9553 25.5887 95.477 25.9715 94.8777 26.2152C94.2784 26.4472 93.6387 26.5632 92.9587 26.5632C91.8407 26.5632 90.9301 26.2906 90.2271 25.7453C89.5355 25.2 89.1898 24.4401 89.1898 23.4656C89.1898 22.8159 89.3742 22.2474 89.743 21.7601C90.1118 21.2729 90.6074 20.8958 91.2298 20.629C91.8637 20.3621 92.5668 20.2287 93.339 20.2287C94.2841 20.2287 95.258 20.3679 96.2608 20.6464C96.2838 19.7182 96.0821 19.0279 95.6557 18.5755C95.2292 18.1114 94.5492 17.8794 93.6156 17.8794C93.0739 17.8794 92.5092 17.9548 91.9214 18.1056C91.3335 18.2448 90.8091 18.4247 90.3481 18.6451L89.8813 17.2877C91.1722 16.6496 92.4861 16.3305 93.8231 16.3305C96.6123 16.3305 98.0069 17.7924 98.0069 20.716V26.4066H96.3126V25.0666ZM93.339 25.1884C93.8116 25.1884 94.2726 25.1072 94.7221 24.9448C95.1716 24.7824 95.5404 24.5271 95.8285 24.1791C96.1167 23.831 96.2608 23.396 96.2608 22.8739V21.9167C95.3848 21.6383 94.5146 21.4991 93.6502 21.4991C92.878 21.4991 92.2383 21.6673 91.7312 22.0038C91.2241 22.3402 90.9705 22.7927 90.9705 23.3612C90.9705 23.9528 91.1895 24.4053 91.6275 24.7186C92.077 25.0318 92.6475 25.1884 93.339 25.1884Z" fill="black"/>
<path d="M102.552 18.8365C103.382 17.2355 104.644 16.435 106.338 16.435V18.3318H106.096C105.485 18.3318 104.909 18.4653 104.367 18.7321C103.837 18.9989 103.399 19.4456 103.053 20.0721C102.719 20.687 102.552 21.4875 102.552 22.4736V26.4066H100.806V16.5394H102.552V18.8365Z" fill="black"/>
<path d="M112.85 26.598C111.755 26.598 110.81 26.3892 110.015 25.9715C109.22 25.5539 108.609 24.9622 108.182 24.1965C107.767 23.4308 107.56 22.5316 107.56 21.4991C107.56 20.3969 107.791 19.4572 108.252 18.6799C108.724 17.9026 109.329 17.3225 110.067 16.9396C110.804 16.5452 111.588 16.348 112.418 16.348C113.363 16.348 114.199 16.551 114.925 16.957C115.663 17.3515 116.233 17.9432 116.636 18.7321C117.051 19.5094 117.259 20.4607 117.259 21.5861C117.259 21.7949 117.247 22.0618 117.224 22.3866H109.358C109.45 23.1291 109.796 23.7614 110.395 24.2835C111.006 24.8056 111.836 25.0666 112.885 25.0666C113.45 25.0666 113.98 24.9738 114.475 24.7882C114.971 24.5909 115.38 24.3589 115.703 24.0921L116.654 25.084C116.262 25.5017 115.732 25.8613 115.063 26.163C114.406 26.453 113.669 26.598 112.85 26.598ZM112.418 17.9838C111.807 17.9838 111.265 18.123 110.793 18.4014C110.332 18.6683 109.975 19.0337 109.721 19.4978C109.479 19.9503 109.358 20.4375 109.358 20.9596H115.426C115.426 20.4259 115.305 19.9329 115.063 19.4804C114.833 19.0279 114.487 18.6683 114.026 18.4014C113.576 18.123 113.04 17.9838 112.418 17.9838Z" fill="black"/>
<path d="M129.342 15.3038V26.4066H127.509V15.3038H123.775V13.668H133.076V15.3038H129.342Z" fill="black"/>
<path d="M140.277 25.0666C139.919 25.5887 139.441 25.9715 138.842 26.2152C138.242 26.4472 137.603 26.5632 136.923 26.5632C135.805 26.5632 134.894 26.2906 134.191 25.7453C133.5 25.2 133.154 24.4401 133.154 23.4656C133.154 22.8159 133.338 22.2474 133.707 21.7601C134.076 21.2729 134.571 20.8958 135.194 20.629C135.828 20.3621 136.531 20.2287 137.303 20.2287C138.248 20.2287 139.222 20.3679 140.225 20.6464C140.248 19.7182 140.046 19.0279 139.62 18.5755C139.193 18.1114 138.513 17.8794 137.58 17.8794C137.038 17.8794 136.473 17.9548 135.885 18.1056C135.298 18.2448 134.773 18.4247 134.312 18.6451L133.845 17.2877C135.136 16.6496 136.45 16.3305 137.787 16.3305C140.576 16.3305 141.971 17.7924 141.971 20.716V26.4066H140.277V25.0666ZM137.303 25.1884C137.776 25.1884 138.237 25.1072 138.686 24.9448C139.136 24.7824 139.504 24.5271 139.793 24.1791C140.081 23.831 140.225 23.396 140.225 22.8739V21.9167C139.349 21.6383 138.479 21.4991 137.614 21.4991C136.842 21.4991 136.202 21.6673 135.695 22.0038C135.188 22.3402 134.934 22.7927 134.934 23.3612C134.934 23.9528 135.153 24.4053 135.591 24.7186C136.041 25.0318 136.611 25.1884 137.303 25.1884Z" fill="black"/>
<path d="M150.181 16.3654C150.919 16.3654 151.564 16.5336 152.117 16.87C152.682 17.2065 153.12 17.6879 153.431 18.3144C153.742 18.9293 153.898 19.6544 153.898 20.4897V26.4066H152.169V20.8726C152.169 19.9329 151.933 19.2136 151.46 18.7147C150.999 18.2158 150.371 17.9664 149.576 17.9664C149 17.9664 148.475 18.094 148.003 18.3492C147.542 18.6045 147.178 18.9583 146.913 19.4108C146.648 19.8517 146.516 20.3447 146.516 20.89V26.4066H144.77V16.5394H146.516V18.1926C146.954 17.6705 147.478 17.2355 148.089 16.8874C148.711 16.5394 149.409 16.3654 150.181 16.3654Z" fill="black"/>
<path d="M156.084 25.0318L161.322 18.123H156.084V16.5394H163.552V17.8794L158.297 24.823H163.552V26.4066H156.084V25.0318Z" fill="black"/>
<path d="M175.002 16.5394V26.4066H173.255V24.7186C172.817 25.2406 172.287 25.6815 171.665 26.0411C171.043 26.4008 170.345 26.5806 169.573 26.5806C168.847 26.5806 168.201 26.4124 167.637 26.0759C167.083 25.7395 166.651 25.258 166.34 24.6315C166.029 24.005 165.873 23.2741 165.873 22.4388V16.5394H167.602V22.0734C167.602 23.0247 167.833 23.7498 168.294 24.2487C168.755 24.736 169.389 24.9796 170.195 24.9796C170.772 24.9796 171.29 24.852 171.751 24.5967C172.224 24.3415 172.593 23.9934 172.858 23.5526C173.123 23.1001 173.255 22.6012 173.255 22.056V16.5394H175.002Z" fill="black"/>
</g>
<defs>
<clipPath id="clip0">
<rect width="175" height="40" fill="white"/>
</clipPath>
</defs>
</svg>
