<svg viewBox="0 0 200 40" width="200" height="40" fill="currentColor" xmlns="http://www.w3.org/2000/svg" class="h-12" aria-label="theNewYorkTimes logo"><path d="M14.992 10.686C14.992 8.537 12.928 8 11.298 8v.322c.978 0 1.738.323 1.738 1.075 0 .43-.325 1.074-1.303 1.074-.76 0-2.39-.43-3.585-.86-1.413-.537-2.716-.966-3.803-.966-2.172 0-3.693 1.611-3.693 3.438 0 1.611 1.195 2.148 1.63 2.363l.108-.215c-.217-.214-.543-.43-.543-1.074 0-.43.434-1.182 1.52-1.182.978 0 2.282.43 4.02.967 1.521.43 3.15.752 4.02.86v3.33l-1.63 1.397v.107l1.63 1.397v4.62c-.87.537-1.847.645-2.716.645-1.63 0-3.042-.43-4.237-1.72l4.454-2.148v-7.413L3.476 16.38c.435-1.396 1.63-2.363 2.825-3.008l-.109-.322C2.933 13.91 0 16.917 0 20.57c0 4.298 3.585 7.52 7.605 7.52 4.345 0 7.17-3.437 7.17-6.983h-.218c-.652 1.397-1.63 2.686-2.824 3.331v-4.405l1.738-1.397v-.107l-1.738-1.397v-3.33c1.63 0 3.259-1.075 3.259-3.116ZM5.54 22.504l-1.303.645c-.76-.967-1.195-2.256-1.195-4.083 0-.752 0-1.611.217-2.256l2.281-.967v6.661Zm11.516 2.471-1.412 1.075.217.215.652-.538 2.39 2.149 3.259-2.149-.109-.215-.869.538-1.086-1.075V17.67l.869-.644 1.847 1.504v6.554c0 4.082-.87 4.727-2.716 5.372v.322c3.042.107 5.866-.86 5.866-6.124v-7.091l.978-.752-.217-.215-.87.645-2.715-2.256-3.042 2.256V8.43h-.217l-3.803 2.578v.215c.435.215 1.087.43 1.087 1.612l-.11 12.14Zm19.88-1.182-2.715 2.042-2.716-2.149v-1.29l5.106-3.437v-.108l-2.608-3.867-5.649 3.008v7.09l-1.086.86.217.215.978-.752 3.693 2.686 4.89-3.868-.11-.43Zm-5.431-1.826v-5.264l.217-.108 2.39 3.76-2.607 1.612ZM57.686 9.719c0-.322-.109-.645-.217-.967h-.218c-.325.86-.76 1.29-1.846 1.29-.978 0-1.63-.538-2.064-.968l-3.15 3.546.216.215 1.087-.967c.652.537 1.195.967 2.716 1.074v8.918L47.8 11.008c-.543-.86-1.303-2.041-2.824-2.041-1.739 0-3.26 1.504-3.042 3.868h.326c.108-.645.434-1.397 1.195-1.397.543 0 1.086.537 1.412 1.074v3.546c-1.956 0-3.26.86-3.26 2.47 0 .86.435 2.15 1.739 2.472v-.215c-.217-.215-.326-.43-.326-.752 0-.537.435-.967 1.195-.967h.543v4.512c-2.281 0-4.128 1.29-4.128 3.439 0 2.04 1.738 3.008 3.694 2.9v-.215c-1.195-.107-1.738-.644-1.738-1.396 0-.967.651-1.397 1.52-1.397.87 0 1.63.537 2.173 1.182l3.15-3.438-.217-.215-.76.86c-1.195-1.075-1.847-1.397-3.26-1.612V12.942l8.692 15.041h.652v-15.04c1.63-.108 3.15-1.397 3.15-3.224Zm7.93 14.074-2.715 2.042-2.716-2.149v-1.29l5.106-3.437v-.108l-2.608-3.867-5.649 3.008v7.09l-1.086.86.217.215.978-.752 3.694 2.686 4.888-3.868-.108-.43Zm-5.431-1.826v-5.264l.217-.108 2.39 3.76-2.607 1.612Zm23.14-5.802-.761.538-2.064-1.72-2.39 2.15.978.966v8.058l-2.608-1.611v-6.662l.87-.537-2.5-2.364-2.39 2.15.978.966v7.736l-.326.215-2.28-1.612v-6.446c0-1.504-.761-1.934-1.63-2.471-.76-.538-1.195-.86-1.195-1.612 0-.645.651-.967.977-1.182v-.215c-.869 0-3.15.86-3.15 2.901 0 1.075.543 1.504 1.086 2.041.543.538 1.087.968 1.087 1.934v6.232l-1.196.86.218.214 1.086-.86 2.499 2.15 2.716-1.827 3.041 1.826 5.758-3.33v-7.198l1.412-1.075-.217-.215Zm20.206-5.909-1.087.967-2.39-2.149-3.585 2.579V9.289h-.326l.109 17.405c-.326 0-1.304-.215-2.064-.43L93.97 11.76c0-1.074-.76-2.578-2.716-2.578-1.956 0-3.26 1.504-3.26 3.008h.327c.108-.644.434-1.182 1.086-1.182.652 0 1.195.43 1.195 1.827v4.19c-1.956.107-3.15 1.182-3.15 2.578 0 .86.434 2.15 1.738 2.15v-.216c-.435-.215-.544-.537-.544-.752 0-.645.544-.86 1.413-.86h.434v6.662c-1.63.537-2.281 1.719-2.281 3.008 0 1.827 1.412 3.116 3.585 3.116 1.52 0 2.825-.215 4.128-.537 1.087-.215 2.499-.538 3.15-.538.87 0 1.196.43 1.196.967 0 .752-.326 1.075-.76 1.182V34c1.737-.322 2.824-1.397 2.824-3.008 0-1.612-1.63-2.579-3.368-2.579-.87 0-2.716.322-4.02.537-1.52.323-3.041.538-3.476.538-.76 0-1.63-.323-1.63-1.397 0-.86.76-1.612 2.608-1.612.977 0 2.172.108 3.367.43 1.304.322 2.5.645 3.586.645 1.629 0 3.041-.537 3.041-2.794V11.545l1.304-1.074-.217-.215Zm-4.454 6.554c-.326.322-.76.645-1.304.645-.543 0-1.086-.323-1.304-.645v-4.727l1.087-.752 1.52 1.396v4.083Zm0 3.223c-.218-.215-.76-.537-1.304-.537-.543 0-1.086.322-1.304.537V17.24c.218.215.76.537 1.304.537.543 0 1.086-.323 1.304-.537v2.793Zm0 5.05c0 .86-.544 1.719-1.739 1.719h-.869v-6.34c.218-.214.76-.536 1.304-.536.543 0 .978.322 1.304.537v4.62Zm14.883-7.628-3.477-2.471-5.323 3.008v6.983l-1.086.86.109.215.869-.645 3.476 2.578 5.432-3.223v-7.306Zm-5.867 6.768v-7.735l2.716 1.934v7.628l-2.716-1.827Zm16.187-9.025h-.217c-.326.215-.652.43-.978.43-.434 0-.977-.215-1.195-.537h-.217l-1.847 2.041-1.847-2.041-3.259 2.149.109.215.869-.538 1.086 1.182v6.769l-1.412 1.074.217.215.652-.537 2.607 2.149 3.368-2.257-.108-.215-.978.538-1.304-1.075v-7.52c.543.537 1.195 1.074 1.956 1.074 1.521.108 2.39-1.397 2.498-3.116Zm13.037 10.314-3.694 2.471-4.997-7.52 3.585-5.48h.217c.435.43 1.086.86 1.847.86.76 0 1.303-.43 1.629-.86h.218c-.109 2.15-1.63 3.439-2.716 3.439-1.087 0-1.63-.538-2.282-.86l-.326.537 5.432 7.95 1.087-.644v.107Zm-11.95-.537-1.413 1.075.218.215.651-.538 2.39 2.149 3.26-2.149-.218-.215-.869.538-1.086-1.075V8.43h-.109l-3.911 2.578v.215c.435.215 1.087.322 1.087 1.612v12.14Zm29.983-14.289c0-2.149-2.064-2.686-3.693-2.686v.322c.977 0 1.738.323 1.738 1.075 0 .43-.326 1.074-1.304 1.074-.76 0-2.39-.43-3.585-.86-1.412-.43-2.716-.859-3.802-.859-2.173 0-3.694 1.612-3.694 3.438 0 1.612 1.195 2.149 1.63 2.364l.108-.215c-.325-.215-.651-.43-.651-1.075 0-.43.434-1.181 1.521-1.181.977 0 2.281.43 4.019.967 1.521.43 3.151.752 4.02.86v3.33l-1.63 1.396v.108l1.63 1.396v4.62c-.869.537-1.847.645-2.716.645-1.63 0-3.042-.43-4.237-1.719l4.454-2.149v-7.52l-5.432 2.363c.543-1.396 1.738-2.363 2.825-3.115l-.109-.215c-3.259.86-6.192 3.76-6.192 7.413 0 4.297 3.585 7.52 7.604 7.52 4.346 0 7.17-3.438 7.17-6.983h-.217c-.652 1.397-1.629 2.686-2.824 3.33v-4.404l1.738-1.397v-.107l-1.63-1.397v-3.223c1.63 0 3.259-1.075 3.259-3.116Zm-9.451 11.818-1.304.645c-.76-.967-1.195-2.256-1.195-4.083 0-.752.109-1.611.326-2.256l2.282-.967-.109 6.661Zm13.254-12.892h-.109l-2.173 1.826v.107l1.847 2.042h.217l2.173-1.827v-.107l-1.955-2.041Zm3.259 15.9-.869.538-1.087-1.075v-7.413l1.087-.752-.218-.215-.76.645-1.956-2.256-3.15 2.148.217.322.761-.537.977 1.182v6.984l-1.412 1.074.109.215.76-.537 2.39 2.148 3.259-2.148-.108-.323Zm18.142-.107-.76.537-1.195-1.074v-7.306l1.086-.86-.217-.214-.869.752-2.499-2.256-3.259 2.256-2.499-2.256-3.042 2.256-1.955-2.256-3.151 2.148.109.322.761-.537 1.086 1.182v6.984l-.869.86 2.498 2.04 2.39-2.148-.977-.967v-7.306l.977-.645 1.63 1.505v6.446l-.869.86 2.499 2.04 2.39-2.148-.978-.967v-7.091l.869-.537 1.738 1.504v6.446l-.76.752 2.498 2.256 3.368-2.256v-.322Zm9.451-1.612-2.715 2.042-2.716-2.149v-1.29l5.106-3.437v-.108l-2.608-3.867-5.649 3.008v7.305l3.802 2.686 4.889-3.867-.109-.323Zm-5.431-1.826v-5.264l.217-.108 2.39 3.76-2.607 1.612ZM199.891 21l-2.064-1.612c1.413-1.181 1.956-2.793 1.956-3.867v-.645h-.218c-.217.537-.651 1.074-1.52 1.074-.87 0-1.413-.43-1.956-1.074l-4.889 2.686v3.868l1.847 1.396c-1.847 1.612-2.172 2.686-2.172 3.546 0 1.074.543 1.826 1.412 2.149l.108-.215c-.217-.215-.434-.323-.434-.86 0-.322.434-.86 1.304-.86 1.086 0 1.738.753 2.064 1.075L200 24.868V21h-.109Zm-1.195-3.223c-.76 1.29-2.39 2.578-3.367 3.223l-1.195-.967v-3.76c.434 1.074 1.629 1.934 2.824 1.934.761 0 1.195-.108 1.738-.43Zm-1.846 8.595c-.544-1.182-1.847-2.041-3.151-2.041-.326 0-1.195 0-2.064.537.543-.86 1.955-2.364 3.802-3.438l1.304 1.074.109 3.868Z" fill="currentColor"/></svg>