<svg width="183" height="40" viewBox="0 0 183 40" fill="none" xmlns="http://www.w3.org/2000/svg">
<path d="M13.138 26.9408L5.84037 25.3549C5.51047 25.2798 5.21455 25.0987 4.99825 24.8396C4.78194 24.5805 4.65726 24.2577 4.64343 23.9211V16.0958C4.65759 15.7589 4.78233 15.436 4.99853 15.1765C5.21473 14.917 5.51046 14.7353 5.84037 14.6592L13.138 13.0817L13.9218 10H5.41592C3.98614 9.99922 2.61412 10.5616 1.59941 11.5644C0.584697 12.5671 0.00971602 13.9288 0 15.3521L0 24.6338C0.00598921 26.0596 0.579327 27.4249 1.59444 28.4306C2.60956 29.4364 3.98371 30.0008 5.41592 30H13.9218L13.138 26.9408ZM19.3491 26.9408L26.6495 25.3549C26.9789 25.2793 27.2742 25.0979 27.4899 24.8389C27.7057 24.5798 27.8299 24.2574 27.8436 23.9211V16.0958C27.8296 15.7593 27.7053 15.4367 27.4896 15.1772C27.274 14.9178 26.9789 14.7358 26.6495 14.6592L19.3491 13.0817L18.5681 10H27.0711C28.5009 9.99922 29.8729 10.5616 30.8876 11.5644C31.9024 12.5671 32.4773 13.9288 32.487 15.3521V24.6338C32.4811 26.0596 31.9077 27.4249 30.8926 28.4306C29.8775 29.4364 28.5033 30.0008 27.0711 30H18.5822L19.3491 26.9408Z" fill="#FF6A00"/>
<path d="M13.1328 19.6257H19.3439V20.3975H13.1328V19.6257ZM152.518 29.5778H150.591C149.43 29.5763 148.316 29.1164 147.495 28.299C146.674 27.4815 146.212 26.3733 146.211 25.2173V19.5835C146.209 19.0099 146.321 18.4416 146.541 17.9113C146.76 17.3809 147.083 16.8989 147.49 16.4928C147.896 16.0867 148.38 15.7645 148.912 15.5446C149.444 15.3248 150.015 15.2116 150.591 15.2116H152.518C153.679 15.2116 154.793 15.6706 155.615 16.4876C156.437 17.3047 156.899 18.4131 156.901 19.5694V25.2032C156.902 25.7769 156.789 26.3452 156.569 26.8755C156.349 27.4059 156.027 27.888 155.619 28.2942C155.212 28.7004 154.729 29.0228 154.197 29.2431C153.665 29.4633 153.094 29.5771 152.518 29.5778ZM150.591 17.7187C150.096 17.7194 149.621 17.9155 149.271 18.264C148.921 18.6125 148.724 19.085 148.723 19.5778V25.2116C148.724 25.7042 148.921 26.1764 149.271 26.5244C149.621 26.8725 150.096 27.068 150.591 27.068H152.518C152.763 27.0683 153.006 27.0206 153.233 26.9275C153.459 26.8344 153.666 26.6978 153.839 26.5254C154.013 26.353 154.151 26.1483 154.245 25.9229C154.339 25.6975 154.388 25.4558 154.388 25.2116V19.5778C154.387 19.0845 154.19 18.6116 153.839 18.263C153.489 17.9144 153.013 17.7187 152.518 17.7187H150.591ZM56.1065 10.4651H58.6164V29.2482H56.1065V10.4651ZM61.5592 15.5384H64.0719V29.2482H61.5592V15.5384ZM62.8155 10.4651C62.4792 10.4624 62.1495 10.5591 61.8685 10.7431C61.5874 10.9271 61.3676 11.1901 61.2369 11.4987C61.1063 11.8073 61.0706 12.1475 61.1345 12.4763C61.1984 12.8051 61.359 13.1075 61.5959 13.3453C61.8327 13.5831 62.1352 13.7455 62.4649 13.8118C62.7947 13.8782 63.1367 13.8456 63.4478 13.7181C63.7589 13.5906 64.0249 13.374 64.212 13.0957C64.3992 12.8175 64.4992 12.4902 64.4992 12.1553C64.4992 11.7095 64.3223 11.2817 64.0069 10.9651C63.6916 10.6486 63.2634 10.4689 62.8155 10.4651ZM47.0969 10.4651H44.0381C42.8808 12.5046 40.1162 18.0961 37.2809 29.2482H39.8955C40.3398 27.5581 40.7727 25.9834 41.2056 24.5496H50.3765C50.8028 25.9806 51.2386 27.5468 51.6838 29.2482H54.2984C51.4687 18.0961 48.7013 12.5046 47.5412 10.4651H47.0969ZM42.0036 22.0144C42.9706 18.9291 44.1583 15.9167 45.5576 13.0004H46.0415C47.4464 15.9146 48.6352 18.9274 49.5983 22.0144H42.0036ZM141.378 10.4482H143.885V29.2511H141.378V10.4482ZM67.0147 10.4651H69.5246V29.2482H67.0147V10.4651Z" fill="#FF6A00"/>
<path d="M72.7722 29.5774C71.1969 29.5476 69.6295 29.3473 68.0977 28.9802L68.6862 26.5492C72.5996 27.49 74.4049 26.9746 74.9114 26.583C75.4179 26.1915 75.4519 25.5267 75.4519 24.7633V20.5098H77.9618V24.7548C77.9618 25.5999 77.9618 27.3633 76.4677 28.5407C75.5905 29.2309 74.3681 29.5746 72.7892 29.5746" fill="#FF6A00"/>
<path d="M77.958 24.0631H75.4481V19.8124C75.4481 19.0913 75.4142 18.511 74.9784 18.1701C74.5879 17.8631 73.2325 17.2603 69.0729 18.2603L68.4844 15.8293C72.3836 14.8913 75.0152 15.0152 76.5347 16.2068C77.9637 17.3335 77.9495 19.0237 77.9495 19.818L77.958 24.0631ZM138.374 26.2434C136.611 26.9363 133.192 27.4546 130.295 26.742C128.693 26.3448 128.575 25.1054 128.572 24.8772V15.1448C128.572 14.9166 128.693 13.6772 130.295 13.2828C133.235 12.5617 136.698 13.1025 138.441 13.8096L139.058 11.3701C137.227 10.7421 135.302 10.4306 133.365 10.449C132.127 10.4386 130.892 10.5757 129.687 10.8575C126.803 11.5645 126.05 13.9758 126.053 15.1504V24.8715C126.053 26.049 126.803 28.4575 129.687 29.1673C130.892 29.4491 132.127 29.5862 133.365 29.5758C135.278 29.5915 137.18 29.2897 138.993 28.6828L138.374 26.2434ZM166.967 15.5392H169.48V29.249H166.967V15.5392Z" fill="#FF6A00"/>
<path d="M164.178 29.5795C162.585 29.5795 161.366 29.2358 160.5 28.5457C158.994 27.3682 159 25.6048 159 24.7598V15.5231H161.513V24.7626C161.513 25.5231 161.549 26.1879 162.053 26.5823C162.557 26.9767 163.974 27.4893 167.885 26.5485L168.476 28.9767C167.072 29.3446 165.63 29.547 164.178 29.5795ZM179.492 10.4668H182.002V29.2499H179.492V10.4668Z" fill="#FF6A00"/>
<path d="M176.746 29.5774C175.153 29.5774 173.933 29.2337 173.067 28.5464C171.565 27.3661 171.57 25.6027 171.57 24.7577V20.5098H174.083V24.7605C174.083 25.521 174.12 26.1858 174.621 26.5802C175.122 26.9746 176.545 27.4872 180.455 26.5464L181.044 28.9774C179.64 29.3434 178.197 29.5448 176.746 29.5774Z" fill="#FF6A00"/>
<path d="M174.078 24.0642H171.566V19.8192C171.566 19.0135 171.566 17.3346 172.981 16.2079C174.5 15.0163 177.134 14.8952 181.031 15.8304L180.442 18.2614C176.283 17.2642 174.927 17.867 174.537 18.1741C174.101 18.5177 174.067 19.0952 174.07 19.8135L174.078 24.0642ZM89.096 16.1121C86.6116 14.3431 81.971 15.6586 80.8477 16.0192L81.4645 18.4473C82.9246 17.9515 86.3456 17.2276 87.6331 18.1459C87.8652 18.3121 88.1368 18.5994 88.1368 19.3628V29.2501H90.6467V19.3628C90.6467 17.5882 89.7978 16.6163 89.096 16.1121Z" fill="#FF6A00"/>
<path d="M84.5381 29.5797C81.9914 29.5797 80.271 28.3882 79.8296 26.3149C79.6893 25.7627 79.6654 25.1875 79.7594 24.6256C79.8534 24.0638 80.0632 23.5273 80.3757 23.0501C81.0633 22.0417 82.2347 21.3966 83.8476 21.129C85.7747 20.7995 87.7524 20.9229 89.6229 21.4896L88.7938 23.8473C87.3225 23.4281 85.7754 23.3424 84.2664 23.5966C83.6411 23.698 82.8205 23.9318 82.4555 24.4614C82.2278 24.8682 82.1699 25.3477 82.2942 25.7966C82.3706 26.1487 82.5771 27.0755 84.5579 27.0755C85.9189 27.0755 88.0553 26.8192 88.7486 26.5853L89.5578 28.9487C88.4996 29.298 86.0661 29.5797 84.5381 29.5797ZM115.67 16.1121C113.191 14.3431 108.548 15.6586 107.424 16.0192L108.041 18.4473C109.501 17.9515 112.922 17.2276 114.21 18.1459C114.442 18.3121 114.71 18.5994 114.71 19.3628V29.2501H117.223V19.3628C117.223 17.5882 116.374 16.6163 115.67 16.1121Z" fill="#FF6A00"/>
<path d="M111.11 29.5795C108.564 29.5795 106.846 28.3879 106.405 26.3147C106.264 25.7626 106.24 25.1876 106.333 24.6257C106.427 24.0638 106.636 23.5273 106.948 23.0499C107.638 22.0414 108.81 21.3964 110.423 21.1288C112.35 20.7994 114.327 20.9229 116.198 21.4893L115.366 23.8471C113.895 23.4276 112.348 23.3419 110.839 23.5964C110.213 23.6978 109.39 23.9316 109.028 24.4612C108.799 24.8674 108.741 25.3476 108.866 25.7964C108.94 26.1485 109.149 27.0752 111.116 27.0752C112.48 27.0752 114.616 26.8189 115.307 26.5851L116.116 28.9485C115.075 29.2978 112.638 29.5795 111.11 29.5795ZM93.5977 10.4668H96.1076V29.2499H93.5977V10.4668Z" fill="#FF6A00"/>
<path d="M99.3464 29.5774C97.7711 29.5472 96.2038 29.3469 94.6719 28.9802L95.2633 26.5492C99.1767 27.49 100.982 26.9746 101.488 26.583C101.995 26.1915 102.032 25.5267 102.032 24.7633V20.5098H104.544V24.7548C104.544 25.5999 104.544 27.3633 103.048 28.5407C102.17 29.2309 100.951 29.5746 99.3691 29.5746" fill="#FF6A00"/>
<path d="M104.531 24.0647H102.018V19.814C102.018 19.0929 101.984 18.5126 101.549 18.1717C101.158 17.8647 99.8028 17.2619 95.6433 18.2619L95.0547 15.8309C98.9539 14.8929 101.585 15.0168 103.102 16.2084C104.534 17.3351 104.517 19.0253 104.517 19.8196L104.531 24.0647Z" fill="#FF6A00"/>
</svg>
