<svg width="105" height="40" viewBox="0 0 105 40" fill="none" xmlns="http://www.w3.org/2000/svg">
<path d="M13.8046 3H14.7294C17.9402 3.06991 21.0985 4.36318 23.367 6.65262C22.5294 7.50897 21.6744 8.33038 20.8542 9.18673C19.5804 8.03327 18.0449 7.14196 16.3697 6.82738C13.8918 6.30309 11.2221 6.77495 9.14556 8.19056C6.87711 9.67608 5.34155 12.1927 5.01001 14.8841C4.64357 17.5406 5.3939 20.3368 7.12141 22.3991C8.77912 24.4089 11.3093 25.6672 13.9267 25.7546C16.3697 25.8944 18.9173 25.1429 20.6972 23.4302C22.0932 22.2243 22.7388 20.3893 22.9482 18.6066C20.0516 18.6066 17.1549 18.6241 14.2583 18.6066V15.0065H26.4556C27.0837 18.8688 26.1764 23.2205 23.2448 25.9818C21.2905 27.9392 18.5858 29.0926 15.8288 29.3198C13.159 29.582 10.4019 29.0751 8.02879 27.7819C5.1845 26.2614 2.91606 23.6923 1.79928 20.6689C0.752307 17.8901 0.734858 14.7443 1.71203 11.948C2.60196 9.39645 4.31202 7.14196 6.51067 5.56907C8.62207 4.01365 11.1872 3.15729 13.8046 3Z" fill="#3780FF"/>
<path d="M83.7754 3.90918H87.5096V28.8658C86.2707 28.8658 85.0143 28.8833 83.7754 28.8483C83.7928 20.5469 83.7754 12.2281 83.7754 3.90918Z" fill="#38B137"/>
<path d="M34.7611 12.5593C37.0645 12.1224 39.5597 12.6118 41.4618 13.9924C43.1893 15.2158 44.3933 17.1382 44.7597 19.2354C45.2309 21.6647 44.6376 24.3211 43.0671 26.2435C41.3745 28.3932 38.6 29.5466 35.8953 29.3719C33.4175 29.232 31.0094 27.9912 29.5437 25.9639C27.886 23.7269 27.4846 20.651 28.392 18.0295C29.2994 15.2158 31.8645 13.0662 34.7611 12.5593ZM35.2846 15.8799C34.3423 16.1246 33.4698 16.6663 32.8417 17.4353C31.149 19.4626 31.2537 22.7657 33.1208 24.6532C34.1853 25.7367 35.7906 26.2435 37.2738 25.9464C38.6524 25.7018 39.8564 24.7755 40.5195 23.5521C41.6711 21.4724 41.3396 18.6062 39.5772 16.9809C38.443 15.9323 36.7853 15.4954 35.2846 15.8799Z" fill="#FA3913"/>
<path d="M53.2595 12.5596C55.8944 12.0528 58.7736 12.7868 60.7454 14.6394C63.9561 17.523 64.3051 22.9233 61.5655 26.2438C59.9078 28.341 57.2206 29.4945 54.5683 29.3722C52.0381 29.3023 49.5428 28.0439 48.0421 25.9642C46.3495 23.6748 45.9831 20.529 46.9428 17.8551C47.9025 15.1287 50.4152 13.049 53.2595 12.5596ZM53.783 15.8802C52.8407 16.1249 51.9683 16.6666 51.3401 17.4181C49.6649 19.4105 49.7347 22.6611 51.532 24.5661C52.5964 25.7021 54.2542 26.2613 55.7897 25.9467C57.1508 25.6846 58.3723 24.7758 59.0353 23.5524C60.1696 21.4552 59.838 18.5891 58.0582 16.9638C56.9239 15.9152 55.2662 15.4957 53.783 15.8802Z" fill="#FCBD06"/>
<path d="M68.9454 13.5728C70.9521 12.3145 73.6219 11.965 75.7857 13.0486C76.4662 13.3457 77.0246 13.8525 77.5655 14.3593C77.583 13.8874 77.5655 13.3981 77.583 12.9087C78.7521 12.9262 79.9212 12.9087 81.1078 12.9262V28.3406C81.0904 30.665 80.4971 33.1292 78.8219 34.8244C76.9897 36.6944 74.1803 37.2712 71.6501 36.8867C68.9454 36.4847 66.5897 34.5099 65.5428 32.0107C66.5897 31.5039 67.6891 31.1019 68.7709 30.6301C69.3817 32.0631 70.6206 33.2865 72.1736 33.5661C73.7266 33.8458 75.5239 33.4613 76.536 32.168C77.6179 30.8398 77.6179 29.0222 77.5655 27.3969C76.7629 28.1833 75.838 28.8824 74.7213 29.1445C72.2958 29.8261 69.626 28.9872 67.7589 27.3444C65.8743 25.7016 64.7575 23.1675 64.8622 20.6509C64.9146 17.8022 66.5199 15.0584 68.9454 13.5728ZM72.5575 15.8099C71.4931 15.9846 70.4985 16.5788 69.8179 17.4002C68.1777 19.3576 68.1777 22.4859 69.8354 24.4084C70.7776 25.5443 72.2958 26.1735 73.7615 26.0162C75.14 25.8764 76.4139 25.0026 77.0944 23.7967C78.2461 21.7519 78.0541 18.9731 76.5011 17.1905C75.5414 16.0895 74.0058 15.5477 72.5575 15.8099Z" fill="#3780FF"/>
<path d="M91.9973 14.4653C94.0912 12.5079 97.3194 11.8438 100.007 12.8749C102.554 13.8361 104.177 16.2654 104.997 18.7646C101.211 20.3375 97.4416 21.8929 93.655 23.4658C94.1785 24.4619 94.9812 25.3707 96.063 25.7377C97.5811 26.2795 99.3959 26.0873 100.67 25.0736C101.176 24.6891 101.577 24.1823 101.961 23.693C102.921 24.3396 103.88 24.9688 104.84 25.6154C103.479 27.6602 101.193 29.0933 98.7328 29.3204C96.0107 29.6525 93.1141 28.6039 91.3516 26.4718C88.455 23.1162 88.7342 17.4888 91.9973 14.4653ZM93.8644 17.6985C93.2711 18.5548 93.0268 19.6034 93.0443 20.6346C95.5744 19.586 98.1046 18.5374 100.635 17.4713C100.216 16.4926 99.204 15.8984 98.1744 15.7411C96.5167 15.444 94.7892 16.3353 93.8644 17.6985Z" fill="#FA3913"/>
</svg>
