<svg width="34" height="34" viewBox="0 0 34 34" fill="none" xmlns="http://www.w3.org/2000/svg">
<circle cx="17" cy="17" r="16" stroke="#0080FF" stroke-width="2"/>
<path d="M23.4583 15.2706L19.1764 14.6485L17.2622 10.7685C17.2354 10.7229 17.1972 10.6852 17.1513 10.6589C17.1055 10.6327 17.0535 10.6189 17.0007 10.6189C16.9479 10.6189 16.8959 10.6327 16.8501 10.6589C16.8042 10.6852 16.766 10.7229 16.7392 10.7685L14.8241 14.6476L10.541 15.2706C10.4872 15.2784 10.4365 15.3011 10.3949 15.3361C10.3533 15.3712 10.3223 15.4172 10.3054 15.4689C10.2885 15.5206 10.2865 15.5761 10.2994 15.6289C10.3124 15.6817 10.3399 15.7299 10.3788 15.7679L13.4781 18.7884L12.7466 23.0532C12.7374 23.1068 12.7435 23.1619 12.764 23.2122C12.7845 23.2626 12.8186 23.3062 12.8626 23.3382C12.9066 23.3702 12.9586 23.3892 13.0129 23.3932C13.0671 23.3971 13.1214 23.3858 13.1695 23.3606L16.9997 21.3472L20.8298 23.3597C20.878 23.385 20.9323 23.3963 20.9865 23.3923C21.0407 23.3883 21.0928 23.3693 21.1368 23.3373C21.1807 23.3054 21.2149 23.2617 21.2354 23.2114C21.2559 23.161 21.2619 23.1059 21.2528 23.0523L20.5213 18.7884L23.6205 15.7679C23.6594 15.7299 23.6869 15.6818 23.6999 15.629C23.7129 15.5761 23.7109 15.5207 23.6941 15.469C23.6772 15.4173 23.6463 15.3713 23.6047 15.3362C23.563 15.3012 23.5125 15.2785 23.4586 15.2706H23.4583Z" fill="#0080FF"/>
</svg>
