<?xml version="1.0" encoding="UTF-8"?>
<svg xmlns="http://www.w3.org/2000/svg" xmlns:xlink="http://www.w3.org/1999/xlink" width="174px" height="30px" viewBox="0 0 153 32" version="1.1">
<g id="surface1">
<path style="fill-rule:evenodd;fill:rgb(13.333333%,12.54902%,37.254902%);fill-opacity:1;stroke-width:1;stroke-linecap:butt;stroke-linejoin:miter;stroke:rgb(13.333333%,12.54902%,37.254902%);stroke-opacity:1;stroke-miterlimit:10;" d="M 0.553597 8.805706 C 45.955387 -2.324 39.170647 -2.186718 84.621532 8.805706 C 81.617002 35.399329 71.268064 57.413593 51.777892 73.750236 C 42.194815 81.751857 43.107957 81.869528 33.544517 73.867906 C 13.995433 57.521458 3.538489 35.46797 0.553597 8.805706 Z M 55.607195 31.084729 C 53.270339 40.233641 52.504478 50.314115 52.190279 59.688563 C 52.190279 61.355568 52.10191 63.032378 52.082273 64.689576 C 65.494653 51.735972 73.172897 35.693506 76.668363 17.631023 C 68.941026 21.004255 60.388915 26.270028 55.607195 31.084729 Z M 45.523363 70.533898 C 45.523363 66.846876 45.523363 63.169661 45.651007 59.482639 C 45.984844 49.304106 46.868529 38.478384 49.499948 28.584222 L 49.71596 27.789944 L 50.275627 27.191783 C 55.175171 22.004458 63.874563 16.356255 72.191024 12.473115 C 67.193293 11.247377 62.283929 10.051056 57.315654 8.982212 C 52.48484 7.805503 47.526384 7.138701 42.548289 7.001418 C 37.580014 7.138701 32.641194 7.805503 27.810381 9.001824 C 22.812649 10.060862 17.893467 11.266989 12.944829 12.502533 C 21.280928 16.375867 29.941045 21.994652 34.938776 27.231007 L 35.498444 27.829167 L 35.714456 28.623446 C 38.345874 38.478384 39.239379 49.34333 39.573215 59.521863 C 39.69104 63.208884 39.720496 66.876294 39.700859 70.524092 C 40.702369 71.357594 41.792247 72.289155 42.69557 72.887316 C 43.549799 72.289155 44.639678 71.377206 45.621551 70.543704 Z M 29.518839 31.084729 C 24.776395 26.270028 16.234103 21.004255 8.487127 17.631023 C 12.002232 35.742535 19.690294 51.745778 33.092856 64.689576 C 33.092856 63.032378 33.033943 61.355568 32.98485 59.688563 C 32.670651 50.314115 31.885152 40.233641 29.558114 31.084729 Z M 29.518839 31.084729 " transform="matrix(0.397837,0,0,0.398357,0.350071,0)"/>
<path style="fill-rule:nonzero;fill:rgb(13.333333%,12.54902%,37.254902%);fill-opacity:1;stroke-width:1;stroke-linecap:butt;stroke-linejoin:miter;stroke:rgb(13.333333%,12.54902%,37.254902%);stroke-opacity:1;stroke-miterlimit:10;" d="M 108.824692 60.188665 L 108.824692 25.191378 L 94.823189 25.191378 L 94.823189 21.190568 L 127.823928 21.190568 L 127.823928 25.191378 L 113.822424 25.191378 L 113.822424 60.188665 Z M 108.824692 60.188665 " transform="matrix(0.397837,0,0,0.398357,0.350071,0)"/>
<path style="fill-rule:nonzero;fill:rgb(13.333333%,12.54902%,37.254902%);fill-opacity:1;stroke-width:1;stroke-linecap:butt;stroke-linejoin:miter;stroke:rgb(13.333333%,12.54902%,37.254902%);stroke-opacity:1;stroke-miterlimit:10;" d="M 132.82166 60.188665 L 132.82166 21.190568 L 154.815607 21.190568 L 154.815607 25.191378 L 137.819391 25.191378 L 137.819391 37.19381 L 151.820895 37.19381 L 151.820895 42.194823 L 137.819391 42.194823 L 137.819391 56.187854 L 155.817117 56.187854 L 155.817117 60.188665 Z M 132.82166 60.188665 " transform="matrix(0.397837,0,0,0.398357,0.350071,0)"/>
<path style="fill-rule:nonzero;fill:rgb(13.333333%,12.54902%,37.254902%);fill-opacity:1;stroke-width:1;stroke-linecap:butt;stroke-linejoin:miter;stroke:rgb(13.333333%,12.54902%,37.254902%);stroke-opacity:1;stroke-miterlimit:10;" d="M 159.823157 59.100209 L 159.823157 53.697153 C 164.153216 55.697559 167.717413 56.697761 170.51575 56.697761 C 172.391127 56.786014 174.21741 56.178048 175.670582 55.001339 C 176.976472 53.903077 177.712877 52.275297 177.673602 50.569069 C 177.703058 49.17663 177.251397 47.823414 176.387349 46.725153 C 175.022546 45.29349 173.422093 44.097169 171.654723 43.204832 L 169.003666 41.67511 C 166.372248 40.341506 164.005935 38.556831 162.002914 36.399531 C 160.677386 34.781556 159.970438 32.741927 159.999894 30.653269 C 159.921344 27.848779 161.099592 25.16196 163.220437 23.31845 C 165.488562 21.357268 168.424362 20.327648 171.419073 20.445319 C 174.60034 20.484542 177.752152 20.984644 180.786138 21.926011 L 180.786138 26.927024 C 176.740823 25.338467 173.726474 24.544188 171.733272 24.544188 C 170.064089 24.465741 168.414543 24.985454 167.089015 25.995463 C 165.910768 26.897606 165.223457 28.309657 165.252913 29.790349 C 165.243094 31.055311 165.724212 32.271244 166.598078 33.192999 C 168.070887 34.595244 169.730252 35.781759 171.527079 36.723126 L 174.276322 38.282266 C 176.927379 39.615869 179.293692 41.420156 181.277074 43.61668 C 182.62224 45.352325 183.329188 47.480208 183.280095 49.666925 C 183.368463 52.765592 182.00366 55.726976 179.588253 57.668546 C 177.133572 59.668951 173.873755 60.669154 169.808802 60.669154 C 166.421341 60.590707 163.063337 60.061188 159.823157 59.100209 Z M 159.823157 59.100209 " transform="matrix(0.397837,0,0,0.398357,0.350071,0)"/>
<path style="fill-rule:nonzero;fill:rgb(13.333333%,12.54902%,37.254902%);fill-opacity:1;stroke-width:1;stroke-linecap:butt;stroke-linejoin:miter;stroke:rgb(13.333333%,12.54902%,37.254902%);stroke-opacity:1;stroke-miterlimit:10;" d="M 199.824649 60.188665 L 199.824649 25.191378 L 185.823145 25.191378 L 185.823145 21.190568 L 218.823884 21.190568 L 218.823884 25.191378 L 204.82238 25.191378 L 204.82238 60.188665 Z M 199.824649 60.188665 " transform="matrix(0.397837,0,0,0.398357,0.350071,0)"/>
<path style="fill-rule:nonzero;fill:rgb(13.333333%,12.54902%,37.254902%);fill-opacity:1;stroke-width:1;stroke-linecap:butt;stroke-linejoin:miter;stroke:rgb(13.333333%,12.54902%,37.254902%);stroke-opacity:1;stroke-miterlimit:10;" d="M 224.823126 60.188665 L 224.823126 21.190568 L 229.820858 21.190568 L 229.820858 60.188665 Z M 224.823126 60.188665 " transform="matrix(0.397837,0,0,0.398357,0.350071,0)"/>
<path style="fill-rule:nonzero;fill:rgb(13.333333%,12.54902%,37.254902%);fill-opacity:1;stroke-width:1;stroke-linecap:butt;stroke-linejoin:miter;stroke:rgb(13.333333%,12.54902%,37.254902%);stroke-opacity:1;stroke-miterlimit:10;" d="M 240.817831 60.188665 L 240.817831 21.190568 L 261.820087 21.190568 L 261.820087 25.191378 L 245.815563 25.191378 L 245.815563 38.194012 L 259.817067 38.194012 L 259.817067 42.194823 L 245.815563 42.194823 L 245.815563 60.188665 Z M 240.817831 60.188665 " transform="matrix(0.397837,0,0,0.398357,0.350071,0)"/>
<path style="fill-rule:nonzero;fill:rgb(13.333333%,12.54902%,37.254902%);fill-opacity:1;stroke-width:1;stroke-linecap:butt;stroke-linejoin:miter;stroke:rgb(13.333333%,12.54902%,37.254902%);stroke-opacity:1;stroke-miterlimit:10;" d="M 277.824611 60.188665 L 277.824611 43.910857 L 266.061777 21.190568 L 271.766457 21.190568 L 280.91751 38.821591 L 290.775511 21.190568 L 295.419769 21.190568 L 282.822343 43.802992 L 282.822343 60.188665 Z M 277.824611 60.188665 " transform="matrix(0.397837,0,0,0.398357,0.350071,0)"/>
<path style="fill-rule:nonzero;fill:rgb(13.333333%,12.54902%,37.254902%);fill-opacity:1;stroke-width:3;stroke-linecap:butt;stroke-linejoin:miter;stroke:rgb(13.333333%,12.54902%,37.254902%);stroke-opacity:1;stroke-miterlimit:10;" d="M 299.317803 57.001744 L 299.317803 52.079178 C 303.235475 53.893271 306.465836 54.795415 308.999067 54.795415 C 310.687888 54.883668 312.347253 54.334537 313.662962 53.255887 C 314.831391 52.265491 315.489245 50.794604 315.430333 49.264883 C 315.469608 47.999921 315.057221 46.764376 314.271723 45.783785 C 313.044382 44.4796 311.60103 43.40095 310.000577 42.587059 L 307.604808 41.204426 C 305.248314 39.988494 303.127469 38.370519 301.340461 36.419143 C 300.132757 34.958063 299.49454 33.114552 299.523996 31.222012 C 299.455265 28.682281 300.515688 26.250416 302.430339 24.583412 C 304.482453 22.818348 307.133509 21.896593 309.843478 22.004458 C 312.720364 22.033876 315.577614 22.484948 318.317039 23.338062 L 318.317039 27.848779 C 314.664472 26.407311 311.934866 25.691479 310.128221 25.691479 C 308.606318 25.613032 307.113872 26.07391 305.89635 26.995665 C 304.835927 27.819362 304.217347 29.084324 304.227166 30.427733 C 304.227166 31.575024 304.65919 32.673286 305.454507 33.496982 C 306.780035 34.77175 308.2823 35.8504 309.922027 36.703514 L 312.396347 38.105759 C 314.782297 39.331498 316.922779 40.988696 318.699969 42.998907 C 319.907672 44.567853 320.536071 46.499617 320.477158 48.470604 C 320.565527 51.2849 319.338186 53.981525 317.14861 55.746588 C 314.615379 57.688158 311.473386 58.658943 308.292119 58.502048 C 305.248314 58.394183 302.233965 57.894082 299.317803 57.001744 Z M 299.317803 57.001744 " transform="matrix(0.397837,0,0,0.398357,0.350071,0)"/>
<path style="fill-rule:nonzero;fill:rgb(13.333333%,12.54902%,37.254902%);fill-opacity:1;stroke-width:3;stroke-linecap:butt;stroke-linejoin:miter;stroke:rgb(13.333333%,12.54902%,37.254902%);stroke-opacity:1;stroke-miterlimit:10;" d="M 328.322321 57.688158 L 328.322321 22.690872 L 348.323066 22.690872 L 348.323066 26.691682 L 333.320052 26.691682 L 333.320052 37.693911 L 345.318536 37.693911 L 345.318536 41.694722 L 333.320052 41.694722 L 333.320052 54.68755 L 349.324576 54.68755 L 349.324576 57.688158 Z M 328.322321 57.688158 " transform="matrix(0.397837,0,0,0.398357,0.350071,0)"/>
<path style="fill-rule:nonzero;fill:rgb(13.333333%,12.54902%,37.254902%);fill-opacity:1;stroke-width:3;stroke-linecap:butt;stroke-linejoin:miter;stroke:rgb(13.333333%,12.54902%,37.254902%);stroke-opacity:1;stroke-miterlimit:10;" d="M 381.323806 56.129019 C 377.739971 57.933306 373.792843 58.855061 369.786802 58.825643 C 364.288315 58.825643 360.036807 57.217474 357.042095 54.001136 C 354.037565 50.784799 352.5353 46.195634 352.5353 40.263059 C 352.5353 34.340291 354.067021 29.760931 357.120645 26.515176 C 360.174269 23.279226 364.48469 21.661251 370.051908 21.651445 C 373.527737 21.680863 376.983929 22.200576 380.322296 23.200779 L 380.322296 27.917421 C 377.062478 26.446534 373.567012 25.59342 370.002814 25.397302 C 366.153873 25.397302 363.178799 26.701488 361.067773 29.300054 C 358.966566 31.898619 357.915962 35.566029 357.915962 40.302283 C 357.915962 44.832612 359.045116 48.392157 361.293604 50.990723 C 363.610823 53.628512 367.008103 55.060175 370.523207 54.893474 C 374.332873 54.756191 378.05417 53.706959 381.363081 51.814419 Z M 381.323806 56.129019 " transform="matrix(0.397837,0,0,0.398357,0.350071,0)"/>
</g>
</svg>
