<svg width="28" height="28" viewBox="0 0 28 28" fill="none" xmlns="http://www.w3.org/2000/svg">
<path d="M27.5088 5.77534C26.5374 6.20962 25.4939 6.50306 24.3969 6.63569C25.516 5.95962 26.3746 4.88681 26.7794 3.60977C25.7324 4.23655 24.5725 4.69197 23.3382 4.93611C22.3494 3.87504 20.9417 3.21069 19.3828 3.21069C16.3907 3.21069 13.9639 5.65914 13.9639 8.68037C13.9639 9.10761 14.0128 9.52312 14.1035 9.92454C9.59786 9.69566 5.6064 7.51835 2.93301 4.21073C2.46767 5.02062 2.2001 5.95962 2.2001 6.95965C2.2001 8.85643 3.15754 10.5314 4.61057 11.5115C3.72176 11.4821 2.88648 11.2368 2.15589 10.8272V10.8976C2.15589 13.5467 4.02307 15.7569 6.50334 16.2593C6.04731 16.3837 5.56917 16.4494 5.07591 16.4494C4.7269 16.4494 4.38604 16.4166 4.05565 16.3532C4.74551 18.5246 6.74648 20.1068 9.11856 20.1491C7.26301 21.6163 4.92583 22.4907 2.3874 22.4907C1.94998 22.4907 1.51837 22.4649 1.09375 22.4144C3.49258 23.9673 6.34047 24.8711 9.40009 24.8711C19.37 24.8711 24.8203 16.5398 24.8203 9.31419C24.8203 9.07944 24.8145 8.84234 24.804 8.60759C25.8627 7.83527 26.7817 6.87397 27.5065 5.77886L27.5088 5.77534Z" fill="#00ACEE"/>
</svg>
