<svg xmlns="http://www.w3.org/2000/svg" width="390" height="74" fill="none" viewBox="0 0 390 74" class="h-auto max-w-[200px] sm:max-w-[296px]"><path fill="#ffff" d="M97.063 33.307c3.054 0 5.461-1.2 7.405-3.602l3.888 4.063c-3.147 3.51-6.758 5.264-11.016 5.264s-7.683-1.293-10.46-3.971-4.073-6.002-4.073-10.065 1.388-7.48 4.166-10.157c2.777-2.678 6.202-4.063 10.275-4.063 4.536 0 8.331 1.754 11.293 5.17l-3.795 4.34q-2.916-3.6-7.22-3.6c-2.315 0-4.259.738-5.925 2.216q-2.5 2.216-2.5 6.094c0 2.585.741 4.617 2.315 6.187 1.574 1.292 3.425 2.124 5.647 2.124m16.199 5.355V11.238h6.11v21.976h11.756v5.448zm44.711-3.786c-2.777 2.678-6.202 4.063-10.275 4.063s-7.498-1.385-10.275-4.063-4.166-6.094-4.166-10.065 1.389-7.387 4.166-10.064 6.202-4.063 10.275-4.063 7.498 1.385 10.275 4.063 4.166 6.094 4.166 10.064-1.389 7.387-4.166 10.065m-2.129-10.065c0-2.4-.833-4.524-2.314-6.279-1.574-1.754-3.518-2.585-5.832-2.585s-4.258.83-5.832 2.585-2.407 3.786-2.407 6.28c0 2.492.833 4.524 2.407 6.278 1.574 1.755 3.518 2.586 5.832 2.586s4.258-.831 5.832-2.586 2.314-3.785 2.314-6.279m18.791 6.833q1.528 1.94 4.166 1.94c1.759 0 3.147-.647 4.073-1.94 1.018-1.292 1.481-3.047 1.481-5.17V11.238h6.11v15.328q0 5.956-3.333 9.141c-2.221 2.124-4.999 3.232-8.424 3.232s-6.294-1.108-8.516-3.232q-3.333-3.184-3.332-9.141V11.238h6.109V26.38q.14 3.324 1.666 5.263m43.23-16.805c2.592 2.4 3.981 5.725 3.981 9.972 0 4.248-1.296 7.664-3.796 10.158-2.592 2.493-6.48 3.693-11.663 3.693h-9.535V11.238h9.72c4.906 0 8.701 1.2 11.293 3.6m-4.443 16.344c1.481-1.385 2.221-3.51 2.221-6.187s-.74-4.802-2.221-6.187q-2.222-2.216-6.943-2.216h-3.425v16.714h3.888c2.777 0 4.906-.74 6.48-2.124m43.322-19.945h6.202v27.424h-6.202l-13.052-17.175v17.175h-6.202V11.238h5.832l13.422 17.729zm32.492 27.424-2.592-5.91h-11.571l-2.592 5.91h-6.573l11.849-27.424h5.925l11.848 27.424zm-8.239-19.206-3.425 7.94h6.85zm27.678-2.863v22.07h-6.202v-22.07h-7.776v-5.355h21.754v5.355zm12.219-5.355h6.11v27.424h-6.11zm23.05 17.452 7.035-17.452h6.665l-11.108 27.424h-5.184l-11.016-27.424h6.665zm36.75-17.452v5.448h-13.7v5.725h12.311v5.17h-12.311v5.726h14.163v5.355h-20.273V11.238zM90.027 62.024c1.667 0 3.055-.647 4.166-2.032l2.222 2.309c-1.76 1.939-3.796 2.955-6.203 2.955q-3.61 0-5.831-2.217c-1.574-1.477-2.315-3.416-2.315-5.632 0-2.309.741-4.155 2.315-5.725s3.517-2.309 5.739-2.309c2.5 0 4.628.924 6.387 2.863l-2.129 2.4c-1.11-1.384-2.407-2.03-4.073-2.03-1.296 0-2.407.46-3.332 1.292-.926.831-1.389 1.94-1.389 3.416 0 1.478.463 2.586 1.296 3.417.833.923 1.944 1.293 3.147 1.293m21.661.923c-1.573 1.477-3.517 2.309-5.739 2.309s-4.165-.74-5.739-2.309c-1.574-1.477-2.314-3.416-2.314-5.632 0-2.217.74-4.156 2.314-5.633s3.518-2.309 5.739-2.309 4.166.74 5.739 2.309c1.574 1.477 2.315 3.416 2.315 5.633s-.741 4.155-2.315 5.632m-1.11-5.632c0-1.386-.463-2.586-1.296-3.51-.926-.923-1.944-1.477-3.24-1.477s-2.407.462-3.24 1.478c-.926.923-1.296 2.123-1.296 3.509s.463 2.493 1.296 3.508c.926.924 1.944 1.478 3.24 1.478s2.407-.462 3.24-1.478c.833-.923 1.296-2.123 1.296-3.508m20.18-1.94-4.166 8.496h-2.036l-4.166-8.496v9.696h-3.425V49.743h4.628l3.981 8.402 3.98-8.402h4.629V65.07h-3.425zm17.866-4.247c1.11.923 1.666 2.308 1.666 4.247q0 2.91-1.666 4.156c-1.111.923-2.778 1.292-5.092 1.292h-2.036v4.248h-3.425V49.743h5.461c2.314 0 3.981.461 5.092 1.385m-2.5 6.002c.37-.462.648-1.108.648-2.032s-.278-1.477-.833-1.846q-.833-.554-2.499-.554h-1.944v5.17h2.314c1.111 0 1.851-.276 2.314-.738m10.923 3.97c.556.74 1.389 1.108 2.315 1.108s1.758-.369 2.314-1.108c.555-.738.833-1.662.833-2.955V49.65h3.425v8.588c0 2.216-.648 3.97-1.851 5.17-1.204 1.201-2.778 1.755-4.721 1.755s-3.518-.646-4.722-1.846c-1.203-1.2-1.851-2.955-1.851-5.172v-8.587h3.425v8.68c0 1.2.278 2.216.833 2.862m18.977-8.402V65.07h-3.425V52.698h-4.351v-2.955h12.127v2.955zm6.943-2.955h3.425v15.42h-3.425zm17.958 0h3.425V65.07h-3.425l-7.313-9.603v9.603h-3.425V49.743h3.147l7.591 9.88zm17.31 7.572h3.425v5.448c-1.573 1.661-3.61 2.585-6.387 2.585-2.221 0-4.165-.739-5.739-2.216s-2.314-3.417-2.314-5.633c0-2.308.74-4.155 2.314-5.725s3.425-2.308 5.647-2.308c2.221 0 4.165.738 5.739 2.216l-1.759 2.585c-.648-.646-1.296-1.015-1.944-1.2-.555-.185-1.203-.37-1.851-.37-1.296 0-2.407.462-3.333 1.293-.925.924-1.388 2.032-1.388 3.51s.463 2.585 1.296 3.508c.833.831 1.851 1.293 3.054 1.293 1.204 0 2.222-.185 2.963-.647zm22.865-7.572v2.955h-7.128v3.324h6.85v3.047h-6.85v6.002h-3.425V49.743zm15.922 13.204c-1.574 1.477-3.518 2.309-5.739 2.309-2.315 0-4.166-.74-5.74-2.309-1.573-1.477-2.314-3.416-2.314-5.632 0-2.217.741-4.156 2.314-5.633 1.574-1.478 3.518-2.309 5.74-2.309 2.314 0 4.165.74 5.739 2.309 1.573 1.477 2.314 3.416 2.314 5.633s-.741 4.155-2.314 5.632m-1.204-5.632c0-1.386-.462-2.586-1.296-3.51-.925-.923-1.944-1.477-3.239-1.477-1.296 0-2.407.462-3.24 1.478-.926.923-1.296 2.123-1.296 3.509s.462 2.493 1.296 3.508c.925.924 1.944 1.478 3.24 1.478 1.295 0 2.406-.462 3.239-1.478.926-.923 1.296-2.123 1.296-3.508m10.553 3.785c.556.74 1.389 1.108 2.314 1.108.926 0 1.759-.369 2.315-1.108.555-.738.833-1.662.833-2.955V49.65h3.425v8.588c0 2.216-.648 3.97-1.851 5.17-1.204 1.201-2.778 1.755-4.722 1.755-1.943 0-3.517-.646-4.721-1.846-1.203-1.2-1.851-2.955-1.851-5.172v-8.587h3.425v8.68c-.092 1.2.278 2.216.833 2.862m23.235-11.357h3.425V65.07h-3.425l-7.313-9.603v9.603h-3.425V49.743h3.147l7.591 9.88zm18.977 2.031c1.481 1.385 2.221 3.232 2.221 5.633s-.74 4.247-2.129 5.633c-1.388 1.384-3.61 2.123-6.572 2.123h-5.277v-15.42h5.462c2.777 0 4.906.646 6.295 2.031m-2.5 9.142c.833-.831 1.296-1.94 1.296-3.417s-.463-2.678-1.296-3.509c-.833-.83-2.129-1.2-3.888-1.2h-1.943v9.326h2.221c1.574-.092 2.777-.462 3.61-1.2m18.236 4.155-1.388-3.324h-6.48l-1.388 3.324h-3.703l6.665-15.42h3.332l6.665 15.42zm-4.628-10.804-1.944 4.433h3.888zm15.552-1.57v12.374h-3.518V52.698h-4.351v-2.955h12.219v2.955zm6.85-2.954h3.425v15.42h-3.425zm20.18 13.204c-1.574 1.477-3.518 2.309-5.74 2.309-2.314 0-4.165-.74-5.739-2.309-1.574-1.477-2.314-3.416-2.314-5.632 0-2.217.74-4.156 2.314-5.633s3.518-2.309 5.739-2.309c2.315 0 4.166.74 5.74 2.309 1.573 1.477 2.314 3.416 2.314 5.633s-.741 4.155-2.314 5.632m-1.111-5.632c0-1.386-.463-2.586-1.296-3.51-.926-.923-1.944-1.477-3.24-1.477s-2.407.462-3.24 1.478c-.926.923-1.296 2.123-1.296 3.509s.463 2.493 1.296 3.508c.926.924 1.944 1.478 3.24 1.478s2.407-.462 3.24-1.478c.833-.923 1.296-2.123 1.296-3.508m17.125-7.572h3.518V65.07h-3.518l-7.313-9.603v9.603h-3.425V49.743h3.24l7.498 9.88z"></path><path fill="#446CA9" d="M16.805 46.88H8.38v19.76h19.717v-8.495H16.805zm42.396.092v11.173H47.908v-.092 8.587h19.717V46.88h-8.516zm-50.82-19.76h8.516l-.092-.093V15.946h11.293V7.451H8.381zm39.527-19.76v8.494H59.2v11.266h8.424V7.452z"></path><path fill="#76C4D5" d="M46.797 27.212 35.504 15.946h12.404V7.451h-19.81v8.495l11.294 11.266zM36.614 46.88H29.21l9.35 9.326 1.85 1.939H28.1v8.495h19.809v-8.587l-5.647-5.54zm22.587-19.668v12.28l-1.944-1.938-9.35-9.327v7.48l5.555 5.54 5.647 5.633h8.516V27.212zM28.098 38.385l-11.2-11.173H8.38V46.88h8.424V34.599l11.293 11.265z"></path></svg>