<svg width="40" height="40" viewBox="0 0 40 40" fill="none" xmlns="http://www.w3.org/2000/svg">
<path d="M39.625 12C39.625 12 39.25 9.25 38 8C36.5 6.375 34.75 6.375 34 6.25C28.375 5.875 20 5.875 20 5.875C20 5.875 11.625 5.875 6 6.25C5.25 6.375 3.5 6.375 2 8C0.75 9.25 0.375 12 0.375 12C0.375 12 0 15.25 0 18.5V21.5C0 24.75 0.375 28 0.375 28C0.375 28 0.75 30.75 2 32C3.5 33.625 5.5 33.5 6.375 33.75C9.625 34 20 34.125 20 34.125C20 34.125 28.375 34.125 34 33.75C34.75 33.625 36.5 33.625 38 32C39.25 30.75 39.625 28 39.625 28C39.625 28 40 24.75 40 21.5V18.5C40 15.25 39.625 12 39.625 12ZM15.875 25.25V14L26.625 19.625L15.875 25.25Z" fill="#DC2217"/>
</svg>
