<svg width="141" height="36" viewBox="0 0 141 36" fill="none" xmlns="http://www.w3.org/2000/svg">
<g clip-path="url(#clip0_1600:2594)">
<path d="M3.12813 14.6552H0V22H7.32188V18.8424H3.12813V14.6552ZM18.8719 14.6895V18.8424H14.6781V18.8081V22H22V14.6552H18.8375L18.8719 14.6895ZM0 7.34477H3.1625L3.12813 7.31045V3.15757H7.32188V0H0V7.34477ZM14.6781 0V3.15757H18.8719V7.34477H22V0H14.6781Z" fill="#446CA9"/>
<path d="M14.2656 7.34477L10.0719 3.15757H14.6781V0H7.32188V3.15757L11.5156 7.34477H14.2656ZM10.4844 14.6552H7.73438L11.2062 18.1217L11.8937 18.8424H7.32188V22H14.6781V18.8081L12.5812 16.7488L10.4844 14.6552ZM18.8719 7.34477V11.9095L18.15 11.1888L14.6781 7.72231V10.5023L16.7406 12.5616L18.8375 14.6552H22V7.34477H18.8719ZM7.32188 11.4977L3.1625 7.34477H0V14.6552H3.12813V10.0905L7.32188 14.2777V11.4977Z" fill="#76C4D5"/>
<rect y="26" width="141" height="10" fill="#76C4D5"/>
<mask id="path-4-outside-1_1600:2594" maskUnits="userSpaceOnUse" x="30" y="27.5" width="82" height="7" fill="black">
<rect fill="white" x="30" y="27.5" width="82" height="7"/>
<path d="M31.7602 33.3933V28.5801H31V33.3933H31.7602Z"/>
<path d="M33.9589 33.3933V29.8476H33.9894L36.528 33.3933H37.2135V28.5801H36.4737V32.1291H36.4465L33.908 28.5801H33.219V33.3933H33.9589Z"/>
<path d="M40.7426 33.4733C41.8693 33.4733 42.6363 32.8896 42.823 31.8956H42.0661C41.9134 32.476 41.4281 32.8195 40.746 32.8195C39.8466 32.8195 39.2764 32.1091 39.2764 30.985C39.2764 29.8709 39.8534 29.1538 40.7426 29.1538C41.4078 29.1538 41.9304 29.5574 42.0661 30.1744H42.8196C42.6906 29.1704 41.8523 28.5 40.7426 28.5C39.3749 28.5 38.4992 29.4606 38.4992 30.985C38.4992 32.5193 39.3681 33.4733 40.7426 33.4733Z"/>
<path d="M44.8248 28.5801H44.0646V31.7021C44.0646 32.7395 44.818 33.4733 46.0466 33.4733C47.2751 33.4733 48.0285 32.7395 48.0285 31.7021V28.5801H47.2717V31.6388C47.2717 32.3259 46.8271 32.8095 46.0466 32.8095C45.266 32.8095 44.8248 32.3259 44.8248 31.6388V28.5801Z"/>
<path d="M51.4524 33.3933C52.4943 33.3933 53.1221 32.8796 53.1221 32.0324C53.1221 31.3919 52.6741 30.9283 52.0089 30.8549V30.8282C52.4977 30.7482 52.8812 30.2912 52.8812 29.7809C52.8812 29.0537 52.311 28.5801 51.4422 28.5801H49.4873V33.3933H51.4524ZM50.2476 29.1905H51.2589C51.8087 29.1905 52.1209 29.4373 52.1209 29.8843C52.1209 30.3612 51.7578 30.6281 51.0994 30.6281H50.2476V29.1905ZM50.2476 32.7829V31.1985H51.2521C51.9716 31.1985 52.3449 31.4653 52.3449 31.9857C52.3449 32.506 51.9818 32.7829 51.2962 32.7829H50.2476Z"/>
<path d="M57.5234 33.3933H58.3277L56.5595 28.5801H55.7382L53.97 33.3933H54.7608L55.2088 32.0924H57.0754L57.5234 33.3933ZM56.1319 29.3806H56.1523L56.8819 31.492H55.4022L56.1319 29.3806Z"/>
<path d="M60.7266 33.3933V29.2238H62.2232V28.5801H58.4663V29.2238H59.9664V33.3933H60.7266Z"/>
<path d="M64.1606 33.3933V28.5801H63.4004V33.3933H64.1606Z"/>
<path d="M66.3592 33.3933V29.8476H66.3898L68.9283 33.3933H69.6139V28.5801H68.874V32.1291H68.8469L66.3083 28.5801H65.6194V33.3933H66.3592Z"/>
<path d="M75.2946 31.3919V30.9016H73.2787V31.5053H74.5446V31.5887C74.5344 32.3192 73.9846 32.8195 73.1904 32.8195C72.2571 32.8195 71.6768 32.1091 71.6768 30.9583C71.6768 29.8276 72.2402 29.1538 73.1769 29.1538C73.8149 29.1538 74.2934 29.4973 74.4767 30.0944H75.2573C75.0876 29.1338 74.2629 28.5 73.1735 28.5C71.7786 28.5 70.8996 29.4473 70.8996 30.965C70.8996 32.5093 71.782 33.4733 73.1837 33.4733C74.5106 33.4733 75.2946 32.6961 75.2946 31.3919Z"/>
<path d="M78.5618 28.5801V33.3933H79.322V31.7488H80.3741C81.3345 31.7488 82.0099 31.1017 82.0099 30.1611C82.0099 29.2238 81.3481 28.5801 80.3978 28.5801H78.5618ZM79.322 29.2105H80.1976C80.856 29.2105 81.2327 29.5574 81.2327 30.1644C81.2327 30.7715 80.856 31.1217 80.1942 31.1217H79.322V29.2105Z"/>
<path d="M83.9913 29.2071H85.0366C85.6238 29.2071 85.9801 29.534 85.9801 30.071C85.9801 30.6214 85.6441 30.9383 85.057 30.9383H83.9913V29.2071ZM83.9913 31.542H85.0366L86.0344 33.3933H86.91L85.8138 31.4253C86.4111 31.2285 86.7641 30.7015 86.7641 30.051C86.7641 29.1538 86.1362 28.5801 85.1283 28.5801H83.2311V33.3933H83.9913V31.542Z"/>
<path d="M90.1743 28.5C88.7625 28.5 87.8801 29.4573 87.8801 30.9883C87.8801 32.5193 88.7625 33.4733 90.1743 33.4733C91.5828 33.4733 92.4685 32.5193 92.4685 30.9883C92.4685 29.4573 91.5828 28.5 90.1743 28.5ZM90.1743 29.1571C91.1042 29.1571 91.688 29.8642 91.688 30.9883C91.688 32.1091 91.1042 32.8162 90.1743 32.8162C89.2444 32.8162 88.6573 32.1091 88.6573 30.9883C88.6573 29.8642 89.2444 29.1571 90.1743 29.1571Z"/>
<path d="M93.4284 32.1591C93.4284 32.9596 94.0292 33.5 94.9115 33.5C95.8652 33.5 96.4354 32.9463 96.4354 31.9923V28.5801H95.6752V31.989C95.6752 32.5394 95.4036 32.8329 94.9048 32.8329C94.4805 32.8329 94.1853 32.5594 94.1751 32.1591H93.4284Z"/>
<path d="M101.013 32.7462H98.6646V31.2518H100.888V30.6314H98.6646V29.2238H101.013V28.5801H97.9044V33.3933H101.013V32.7462Z"/>
<path d="M104.417 33.4733C105.543 33.4733 106.31 32.8896 106.497 31.8956H105.74C105.587 32.476 105.102 32.8195 104.42 32.8195C103.521 32.8195 102.95 32.1091 102.95 30.985C102.95 29.8709 103.527 29.1538 104.417 29.1538C105.082 29.1538 105.604 29.5574 105.74 30.1744H106.494C106.365 29.1704 105.526 28.5 104.417 28.5C103.049 28.5 102.173 29.4606 102.173 30.985C102.173 32.5193 103.042 33.4733 104.417 33.4733Z"/>
<path d="M109.503 33.3933V29.2238H111V28.5801H107.243V29.2238H108.743V33.3933H109.503Z"/>
</mask>
<path d="M31.7602 33.3933V28.5801H31V33.3933H31.7602Z" fill="white"/>
<path d="M33.9589 33.3933V29.8476H33.9894L36.528 33.3933H37.2135V28.5801H36.4737V32.1291H36.4465L33.908 28.5801H33.219V33.3933H33.9589Z" fill="white"/>
<path d="M40.7426 33.4733C41.8693 33.4733 42.6363 32.8896 42.823 31.8956H42.0661C41.9134 32.476 41.4281 32.8195 40.746 32.8195C39.8466 32.8195 39.2764 32.1091 39.2764 30.985C39.2764 29.8709 39.8534 29.1538 40.7426 29.1538C41.4078 29.1538 41.9304 29.5574 42.0661 30.1744H42.8196C42.6906 29.1704 41.8523 28.5 40.7426 28.5C39.3749 28.5 38.4992 29.4606 38.4992 30.985C38.4992 32.5193 39.3681 33.4733 40.7426 33.4733Z" fill="white"/>
<path d="M44.8248 28.5801H44.0646V31.7021C44.0646 32.7395 44.818 33.4733 46.0466 33.4733C47.2751 33.4733 48.0285 32.7395 48.0285 31.7021V28.5801H47.2717V31.6388C47.2717 32.3259 46.8271 32.8095 46.0466 32.8095C45.266 32.8095 44.8248 32.3259 44.8248 31.6388V28.5801Z" fill="white"/>
<path d="M51.4524 33.3933C52.4943 33.3933 53.1221 32.8796 53.1221 32.0324C53.1221 31.3919 52.6741 30.9283 52.0089 30.8549V30.8282C52.4977 30.7482 52.8812 30.2912 52.8812 29.7809C52.8812 29.0537 52.311 28.5801 51.4422 28.5801H49.4873V33.3933H51.4524ZM50.2476 29.1905H51.2589C51.8087 29.1905 52.1209 29.4373 52.1209 29.8843C52.1209 30.3612 51.7578 30.6281 51.0994 30.6281H50.2476V29.1905ZM50.2476 32.7829V31.1985H51.2521C51.9716 31.1985 52.3449 31.4653 52.3449 31.9857C52.3449 32.506 51.9818 32.7829 51.2962 32.7829H50.2476Z" fill="white"/>
<path d="M57.5234 33.3933H58.3277L56.5595 28.5801H55.7382L53.97 33.3933H54.7608L55.2088 32.0924H57.0754L57.5234 33.3933ZM56.1319 29.3806H56.1523L56.8819 31.492H55.4022L56.1319 29.3806Z" fill="white"/>
<path d="M60.7266 33.3933V29.2238H62.2232V28.5801H58.4663V29.2238H59.9664V33.3933H60.7266Z" fill="white"/>
<path d="M64.1606 33.3933V28.5801H63.4004V33.3933H64.1606Z" fill="white"/>
<path d="M66.3592 33.3933V29.8476H66.3898L68.9283 33.3933H69.6139V28.5801H68.874V32.1291H68.8469L66.3083 28.5801H65.6194V33.3933H66.3592Z" fill="white"/>
<path d="M75.2946 31.3919V30.9016H73.2787V31.5053H74.5446V31.5887C74.5344 32.3192 73.9846 32.8195 73.1904 32.8195C72.2571 32.8195 71.6768 32.1091 71.6768 30.9583C71.6768 29.8276 72.2402 29.1538 73.1769 29.1538C73.8149 29.1538 74.2934 29.4973 74.4767 30.0944H75.2573C75.0876 29.1338 74.2629 28.5 73.1735 28.5C71.7786 28.5 70.8996 29.4473 70.8996 30.965C70.8996 32.5093 71.782 33.4733 73.1837 33.4733C74.5106 33.4733 75.2946 32.6961 75.2946 31.3919Z" fill="white"/>
<path d="M78.5618 28.5801V33.3933H79.322V31.7488H80.3741C81.3345 31.7488 82.0099 31.1017 82.0099 30.1611C82.0099 29.2238 81.3481 28.5801 80.3978 28.5801H78.5618ZM79.322 29.2105H80.1976C80.856 29.2105 81.2327 29.5574 81.2327 30.1644C81.2327 30.7715 80.856 31.1217 80.1942 31.1217H79.322V29.2105Z" fill="white"/>
<path d="M83.9913 29.2071H85.0366C85.6238 29.2071 85.9801 29.534 85.9801 30.071C85.9801 30.6214 85.6441 30.9383 85.057 30.9383H83.9913V29.2071ZM83.9913 31.542H85.0366L86.0344 33.3933H86.91L85.8138 31.4253C86.4111 31.2285 86.7641 30.7015 86.7641 30.051C86.7641 29.1538 86.1362 28.5801 85.1283 28.5801H83.2311V33.3933H83.9913V31.542Z" fill="white"/>
<path d="M90.1743 28.5C88.7625 28.5 87.8801 29.4573 87.8801 30.9883C87.8801 32.5193 88.7625 33.4733 90.1743 33.4733C91.5828 33.4733 92.4685 32.5193 92.4685 30.9883C92.4685 29.4573 91.5828 28.5 90.1743 28.5ZM90.1743 29.1571C91.1042 29.1571 91.688 29.8642 91.688 30.9883C91.688 32.1091 91.1042 32.8162 90.1743 32.8162C89.2444 32.8162 88.6573 32.1091 88.6573 30.9883C88.6573 29.8642 89.2444 29.1571 90.1743 29.1571Z" fill="white"/>
<path d="M93.4284 32.1591C93.4284 32.9596 94.0292 33.5 94.9115 33.5C95.8652 33.5 96.4354 32.9463 96.4354 31.9923V28.5801H95.6752V31.989C95.6752 32.5394 95.4036 32.8329 94.9048 32.8329C94.4805 32.8329 94.1853 32.5594 94.1751 32.1591H93.4284Z" fill="white"/>
<path d="M101.013 32.7462H98.6646V31.2518H100.888V30.6314H98.6646V29.2238H101.013V28.5801H97.9044V33.3933H101.013V32.7462Z" fill="white"/>
<path d="M104.417 33.4733C105.543 33.4733 106.31 32.8896 106.497 31.8956H105.74C105.587 32.476 105.102 32.8195 104.42 32.8195C103.521 32.8195 102.95 32.1091 102.95 30.985C102.95 29.8709 103.527 29.1538 104.417 29.1538C105.082 29.1538 105.604 29.5574 105.74 30.1744H106.494C106.365 29.1704 105.526 28.5 104.417 28.5C103.049 28.5 102.173 29.4606 102.173 30.985C102.173 32.5193 103.042 33.4733 104.417 33.4733Z" fill="white"/>
<path d="M109.503 33.3933V29.2238H111V28.5801H107.243V29.2238H108.743V33.3933H109.503Z" fill="white"/>
<path d="M31.7602 33.3933V28.5801H31V33.3933H31.7602Z" stroke="white" stroke-width="0.4" mask="url(#path-4-outside-1_1600:2594)"/>
<path d="M33.9589 33.3933V29.8476H33.9894L36.528 33.3933H37.2135V28.5801H36.4737V32.1291H36.4465L33.908 28.5801H33.219V33.3933H33.9589Z" stroke="white" stroke-width="0.4" mask="url(#path-4-outside-1_1600:2594)"/>
<path d="M40.7426 33.4733C41.8693 33.4733 42.6363 32.8896 42.823 31.8956H42.0661C41.9134 32.476 41.4281 32.8195 40.746 32.8195C39.8466 32.8195 39.2764 32.1091 39.2764 30.985C39.2764 29.8709 39.8534 29.1538 40.7426 29.1538C41.4078 29.1538 41.9304 29.5574 42.0661 30.1744H42.8196C42.6906 29.1704 41.8523 28.5 40.7426 28.5C39.3749 28.5 38.4992 29.4606 38.4992 30.985C38.4992 32.5193 39.3681 33.4733 40.7426 33.4733Z" stroke="white" stroke-width="0.4" mask="url(#path-4-outside-1_1600:2594)"/>
<path d="M44.8248 28.5801H44.0646V31.7021C44.0646 32.7395 44.818 33.4733 46.0466 33.4733C47.2751 33.4733 48.0285 32.7395 48.0285 31.7021V28.5801H47.2717V31.6388C47.2717 32.3259 46.8271 32.8095 46.0466 32.8095C45.266 32.8095 44.8248 32.3259 44.8248 31.6388V28.5801Z" stroke="white" stroke-width="0.4" mask="url(#path-4-outside-1_1600:2594)"/>
<path d="M51.4524 33.3933C52.4943 33.3933 53.1221 32.8796 53.1221 32.0324C53.1221 31.3919 52.6741 30.9283 52.0089 30.8549V30.8282C52.4977 30.7482 52.8812 30.2912 52.8812 29.7809C52.8812 29.0537 52.311 28.5801 51.4422 28.5801H49.4873V33.3933H51.4524ZM50.2476 29.1905H51.2589C51.8087 29.1905 52.1209 29.4373 52.1209 29.8843C52.1209 30.3612 51.7578 30.6281 51.0994 30.6281H50.2476V29.1905ZM50.2476 32.7829V31.1985H51.2521C51.9716 31.1985 52.3449 31.4653 52.3449 31.9857C52.3449 32.506 51.9818 32.7829 51.2962 32.7829H50.2476Z" stroke="white" stroke-width="0.4" mask="url(#path-4-outside-1_1600:2594)"/>
<path d="M57.5234 33.3933H58.3277L56.5595 28.5801H55.7382L53.97 33.3933H54.7608L55.2088 32.0924H57.0754L57.5234 33.3933ZM56.1319 29.3806H56.1523L56.8819 31.492H55.4022L56.1319 29.3806Z" stroke="white" stroke-width="0.4" mask="url(#path-4-outside-1_1600:2594)"/>
<path d="M60.7266 33.3933V29.2238H62.2232V28.5801H58.4663V29.2238H59.9664V33.3933H60.7266Z" stroke="white" stroke-width="0.4" mask="url(#path-4-outside-1_1600:2594)"/>
<path d="M64.1606 33.3933V28.5801H63.4004V33.3933H64.1606Z" stroke="white" stroke-width="0.4" mask="url(#path-4-outside-1_1600:2594)"/>
<path d="M66.3592 33.3933V29.8476H66.3898L68.9283 33.3933H69.6139V28.5801H68.874V32.1291H68.8469L66.3083 28.5801H65.6194V33.3933H66.3592Z" stroke="white" stroke-width="0.4" mask="url(#path-4-outside-1_1600:2594)"/>
<path d="M75.2946 31.3919V30.9016H73.2787V31.5053H74.5446V31.5887C74.5344 32.3192 73.9846 32.8195 73.1904 32.8195C72.2571 32.8195 71.6768 32.1091 71.6768 30.9583C71.6768 29.8276 72.2402 29.1538 73.1769 29.1538C73.8149 29.1538 74.2934 29.4973 74.4767 30.0944H75.2573C75.0876 29.1338 74.2629 28.5 73.1735 28.5C71.7786 28.5 70.8996 29.4473 70.8996 30.965C70.8996 32.5093 71.782 33.4733 73.1837 33.4733C74.5106 33.4733 75.2946 32.6961 75.2946 31.3919Z" stroke="white" stroke-width="0.4" mask="url(#path-4-outside-1_1600:2594)"/>
<path d="M78.5618 28.5801V33.3933H79.322V31.7488H80.3741C81.3345 31.7488 82.0099 31.1017 82.0099 30.1611C82.0099 29.2238 81.3481 28.5801 80.3978 28.5801H78.5618ZM79.322 29.2105H80.1976C80.856 29.2105 81.2327 29.5574 81.2327 30.1644C81.2327 30.7715 80.856 31.1217 80.1942 31.1217H79.322V29.2105Z" stroke="white" stroke-width="0.4" mask="url(#path-4-outside-1_1600:2594)"/>
<path d="M83.9913 29.2071H85.0366C85.6238 29.2071 85.9801 29.534 85.9801 30.071C85.9801 30.6214 85.6441 30.9383 85.057 30.9383H83.9913V29.2071ZM83.9913 31.542H85.0366L86.0344 33.3933H86.91L85.8138 31.4253C86.4111 31.2285 86.7641 30.7015 86.7641 30.051C86.7641 29.1538 86.1362 28.5801 85.1283 28.5801H83.2311V33.3933H83.9913V31.542Z" stroke="white" stroke-width="0.4" mask="url(#path-4-outside-1_1600:2594)"/>
<path d="M90.1743 28.5C88.7625 28.5 87.8801 29.4573 87.8801 30.9883C87.8801 32.5193 88.7625 33.4733 90.1743 33.4733C91.5828 33.4733 92.4685 32.5193 92.4685 30.9883C92.4685 29.4573 91.5828 28.5 90.1743 28.5ZM90.1743 29.1571C91.1042 29.1571 91.688 29.8642 91.688 30.9883C91.688 32.1091 91.1042 32.8162 90.1743 32.8162C89.2444 32.8162 88.6573 32.1091 88.6573 30.9883C88.6573 29.8642 89.2444 29.1571 90.1743 29.1571Z" stroke="white" stroke-width="0.4" mask="url(#path-4-outside-1_1600:2594)"/>
<path d="M93.4284 32.1591C93.4284 32.9596 94.0292 33.5 94.9115 33.5C95.8652 33.5 96.4354 32.9463 96.4354 31.9923V28.5801H95.6752V31.989C95.6752 32.5394 95.4036 32.8329 94.9048 32.8329C94.4805 32.8329 94.1853 32.5594 94.1751 32.1591H93.4284Z" stroke="white" stroke-width="0.4" mask="url(#path-4-outside-1_1600:2594)"/>
<path d="M101.013 32.7462H98.6646V31.2518H100.888V30.6314H98.6646V29.2238H101.013V28.5801H97.9044V33.3933H101.013V32.7462Z" stroke="white" stroke-width="0.4" mask="url(#path-4-outside-1_1600:2594)"/>
<path d="M104.417 33.4733C105.543 33.4733 106.31 32.8896 106.497 31.8956H105.74C105.587 32.476 105.102 32.8195 104.42 32.8195C103.521 32.8195 102.95 32.1091 102.95 30.985C102.95 29.8709 103.527 29.1538 104.417 29.1538C105.082 29.1538 105.604 29.5574 105.74 30.1744H106.494C106.365 29.1704 105.526 28.5 104.417 28.5C103.049 28.5 102.173 29.4606 102.173 30.985C102.173 32.5193 103.042 33.4733 104.417 33.4733Z" stroke="white" stroke-width="0.4" mask="url(#path-4-outside-1_1600:2594)"/>
<path d="M109.503 33.3933V29.2238H111V28.5801H107.243V29.2238H108.743V33.3933H109.503Z" stroke="white" stroke-width="0.4" mask="url(#path-4-outside-1_1600:2594)"/>
<path d="M33.6535 9.69088C34.8051 9.69088 35.7125 9.22973 36.4453 8.30743L37.9111 9.86824C36.7245 11.2162 35.3635 11.8902 33.7582 11.8902C32.1529 11.8902 30.8616 11.3936 29.8147 10.3649C28.7678 9.33615 28.2792 8.05912 28.2792 6.49831C28.2792 4.9375 28.8027 3.625 29.8496 2.59628C30.8965 1.56757 32.1878 1.03547 33.7233 1.03547C35.4333 1.03547 36.8641 1.70946 37.9809 3.02196L36.55 4.68919C35.8172 3.76689 34.9098 3.30574 33.828 3.30574C32.9555 3.30574 32.2227 3.58953 31.5945 4.15709C30.9663 4.72466 30.6523 5.50507 30.6523 6.49831C30.6523 7.49155 30.9314 8.27196 31.5247 8.875C32.118 9.37162 32.8159 9.69088 33.6535 9.69088ZM39.7607 11.7483V1.21284H42.0639V9.65541H46.496V11.7483H39.7607ZM56.6164 10.2939C55.5695 11.3226 54.2783 11.8547 52.7427 11.8547C51.2072 11.8547 49.916 11.3226 48.8691 10.2939C47.8221 9.2652 47.2986 7.9527 47.2986 6.42737C47.2986 4.90203 47.8221 3.58953 48.8691 2.56081C49.916 1.53209 51.2072 1 52.7427 1C54.2783 1 55.5695 1.53209 56.6164 2.56081C57.6634 3.58953 58.1868 4.90203 58.1868 6.42737C58.1868 7.9527 57.6634 9.2652 56.6164 10.2939ZM55.8138 6.42737C55.8138 5.50507 55.4997 4.68919 54.9413 4.0152C54.3481 3.34122 53.6152 3.02196 52.7427 3.02196C51.8703 3.02196 51.1374 3.34122 50.5442 4.0152C49.9509 4.68919 49.6368 5.46959 49.6368 6.42737C49.6368 7.38514 49.9509 8.16554 50.5442 8.83953C51.1374 9.51351 51.8703 9.83277 52.7427 9.83277C53.6152 9.83277 54.3481 9.51351 54.9413 8.83953C55.5346 8.16554 55.8138 7.38514 55.8138 6.42737ZM62.8981 9.05237C63.282 9.54899 63.8054 9.7973 64.4685 9.7973C65.1316 9.7973 65.655 9.54899 66.004 9.05237C66.3879 8.55574 66.5624 7.88176 66.5624 7.06588V1.21284H68.8657V7.10135C68.8657 8.62669 68.4469 9.7973 67.6093 10.6132C66.7718 11.4291 65.7248 11.8547 64.4336 11.8547C63.1424 11.8547 62.0605 11.4291 61.223 10.6132C60.3854 9.7973 59.9666 8.62669 59.9666 7.10135V1.21284H62.2699V7.03041C62.3048 7.88176 62.5142 8.55574 62.8981 9.05237ZM79.1955 2.59628C80.1726 3.51858 80.6961 4.79561 80.6961 6.42737C80.6961 8.05912 80.2075 9.37162 79.2653 10.3294C78.2881 11.2872 76.8224 11.7483 74.8681 11.7483H71.2736V1.21284H74.9379C76.7875 1.21284 78.2183 1.67399 79.1955 2.59628ZM77.5204 8.875C78.0788 8.34291 78.3579 7.52703 78.3579 6.49831C78.3579 5.46959 78.0788 4.65372 77.5204 4.12162C76.962 3.55405 76.0896 3.27027 74.903 3.27027H73.6118V9.69088H75.0775C76.1245 9.69088 76.9271 9.4071 77.5204 8.875ZM93.8527 1.21284H96.1909V11.7483H93.8527L88.9321 5.15034V11.7483H86.5939V1.21284H88.7925L93.8527 8.02365V1.21284ZM106.102 11.7483L105.125 9.47804H100.763L99.7854 11.7483H97.3076L101.775 1.21284H104.008L108.475 11.7483H106.102ZM102.996 4.36993L101.705 7.42061H104.287L102.996 4.36993ZM113.431 3.27027V11.7483H111.092V3.27027H108.161V1.21284H116.362V3.27027H113.431ZM118.037 1.21284H120.34V11.7483H118.037V1.21284ZM126.727 7.91723L129.379 1.21284H131.892L127.704 11.7483H125.75L121.597 1.21284H124.109L126.727 7.91723ZM140.581 1.21284V3.30574H135.416V5.50507H140.058V7.49155H135.416V9.69088H140.756V11.7483H133.113V1.21284H140.581ZM31.0012 20.723C31.6294 20.723 32.1529 20.4747 32.5716 19.9426L33.4092 20.8294C32.7461 21.5743 31.9784 21.9645 31.071 21.9645C30.1637 21.9645 29.4308 21.6807 28.8725 21.1132C28.2792 20.5456 28 19.8007 28 18.9493C28 18.0625 28.2792 17.353 28.8725 16.75C29.4657 16.147 30.1986 15.8632 31.0361 15.8632C31.9784 15.8632 32.781 16.2179 33.4441 16.9628L32.6414 17.8851C32.2227 17.353 31.7341 17.1047 31.1059 17.1047C30.6174 17.1047 30.1986 17.2821 29.8496 17.6014C29.5006 17.9206 29.3261 18.3463 29.3261 18.9139C29.3261 19.4814 29.5006 19.9071 29.8147 20.2264C30.1288 20.5811 30.5476 20.723 31.0012 20.723ZM39.1674 21.0777C38.5741 21.6453 37.8413 21.9645 37.0037 21.9645C36.1662 21.9645 35.4333 21.6807 34.84 21.0777C34.2468 20.5101 33.9676 19.7652 33.9676 18.9139C33.9676 18.0625 34.2468 17.3176 34.84 16.75C35.4333 16.1824 36.1662 15.8632 37.0037 15.8632C37.8413 15.8632 38.5741 16.147 39.1674 16.75C39.7607 17.3176 40.0398 18.0625 40.0398 18.9139C40.0398 19.7652 39.7607 20.5101 39.1674 21.0777ZM38.7486 18.9139C38.7486 18.3818 38.5741 17.9206 38.26 17.5659C37.9111 17.2112 37.5272 16.9983 37.0386 16.9983C36.55 16.9983 36.1313 17.1757 35.8172 17.5659C35.4682 17.9206 35.3286 18.3818 35.3286 18.9139C35.3286 19.4459 35.5031 19.8716 35.8172 20.2618C36.1662 20.6166 36.55 20.8294 37.0386 20.8294C37.5272 20.8294 37.946 20.652 38.26 20.2618C38.5741 19.9071 38.7486 19.4459 38.7486 18.9139ZM46.3564 18.1689L44.786 21.4324H44.0182L42.4478 18.1689V21.8936H41.1566V16.0051H42.9015L44.4021 19.2331L45.9027 16.0051H47.6476V21.8936H46.3564V18.1689ZM53.0917 16.5372C53.5105 16.8919 53.7199 17.424 53.7199 18.1689C53.7199 18.9139 53.5105 19.4459 53.0917 19.7652C52.6729 20.1199 52.0448 20.2618 51.1723 20.2618H50.4046V21.8936H49.1133V16.0051H51.1723C52.0448 16.0051 52.6729 16.1824 53.0917 16.5372ZM52.1495 18.8429C52.2891 18.6655 52.3938 18.4172 52.3938 18.0625C52.3938 17.7078 52.2891 17.4949 52.0797 17.353C51.8703 17.2111 51.5562 17.1402 51.1374 17.1402H50.4046V19.1267H51.277C51.6958 19.1267 51.975 19.0203 52.1495 18.8429ZM56.2675 20.3682C56.4768 20.652 56.7909 20.7939 57.1399 20.7939C57.4889 20.7939 57.803 20.652 58.0124 20.3682C58.2217 20.0845 58.3264 19.7297 58.3264 19.2331V15.9696H59.6177V19.2686C59.6177 20.1199 59.3734 20.7939 58.9197 21.2551C58.466 21.7162 57.8728 21.9291 57.1399 21.9291C56.407 21.9291 55.8138 21.6807 55.3601 21.2196C54.9064 20.7584 54.6621 20.0845 54.6621 19.2331V15.9341H55.9534V19.2686C55.9534 19.7297 56.0581 20.1199 56.2675 20.3682ZM63.4216 17.1402V21.8936H62.1303V17.1402H60.4901V16.0051H65.0618V17.1402H63.4216ZM66.0389 16.0051H67.3301V21.9291H66.0389V16.0051ZM72.8091 16.0051H74.1004V21.8936H72.8091L70.0522 18.2044V21.8936H68.761V16.0051H69.9475L72.8091 19.8007V16.0051ZM79.3351 18.9139H80.6263V21.0068C80.033 21.6453 79.2653 22 78.2183 22C77.3808 22 76.6479 21.7162 76.0547 21.1487C75.4614 20.5811 75.1822 19.8362 75.1822 18.9848C75.1822 18.098 75.4614 17.3885 76.0547 16.7855C76.6479 16.1824 77.3459 15.8987 78.1834 15.8987C79.021 15.8987 79.7539 16.1824 80.3471 16.75L79.6841 17.7432C79.4398 17.4949 79.1955 17.353 78.9512 17.2821C78.7418 17.2112 78.4975 17.1402 78.2532 17.1402C77.7647 17.1402 77.3459 17.3176 76.9969 17.6368C76.6479 17.9916 76.4734 18.4172 76.4734 18.9848C76.4734 19.5524 76.6479 19.978 76.962 20.3328C77.2761 20.652 77.66 20.8294 78.1137 20.8294C78.5673 20.8294 78.9512 20.7584 79.2304 20.5811L79.3351 18.9139ZM87.9549 16.0051V17.1402H85.2678V18.4172H87.8502V19.5878H85.2678V21.8936H83.9765V16.0051H87.9549ZM93.9574 21.0777C93.3641 21.6453 92.6312 21.9645 91.7937 21.9645C90.9212 21.9645 90.2233 21.6807 89.63 21.0777C89.0368 20.5101 88.7576 19.7652 88.7576 18.9139C88.7576 18.0625 89.0368 17.3176 89.63 16.75C90.2233 16.1824 90.9561 15.8632 91.7937 15.8632C92.6661 15.8632 93.3641 16.147 93.9574 16.75C94.5507 17.3176 94.8298 18.0625 94.8298 18.9139C94.8298 19.7652 94.5507 20.5101 93.9574 21.0777ZM93.5037 18.9139C93.5037 18.3818 93.3292 17.9206 93.0151 17.5659C92.6661 17.2112 92.2823 16.9983 91.7937 16.9983C91.3051 16.9983 90.8863 17.1757 90.5723 17.5659C90.2233 17.9206 90.0837 18.3818 90.0837 18.9139C90.0837 19.4459 90.2582 19.8716 90.5723 20.2618C90.9212 20.6166 91.3051 20.8294 91.7937 20.8294C92.2823 20.8294 92.701 20.652 93.0151 20.2618C93.3641 19.9071 93.5037 19.4459 93.5037 18.9139ZM97.4821 20.3682C97.6915 20.652 98.0056 20.7939 98.3545 20.7939C98.7035 20.7939 99.0176 20.652 99.227 20.3682C99.4364 20.0845 99.5411 19.7297 99.5411 19.2331V15.9696H100.832V19.2686C100.832 20.1199 100.588 20.7939 100.134 21.2551C99.6807 21.7162 99.0874 21.9291 98.3545 21.9291C97.6217 21.9291 97.0284 21.6807 96.5747 21.2196C96.1211 20.7584 95.8768 20.0845 95.8768 19.2331V15.9341H97.168V19.2686C97.1331 19.7297 97.2727 20.1199 97.4821 20.3682ZM106.242 16.0051H107.533V21.8936H106.242L103.485 18.2044V21.8936H102.193V16.0051H103.38L106.242 19.8007V16.0051ZM113.396 16.7855C113.954 17.3176 114.233 18.027 114.233 18.9493C114.233 19.8716 113.954 20.5811 113.431 21.1132C112.907 21.6453 112.069 21.9291 110.953 21.9291H108.964V16.0051H111.023C112.069 16.0051 112.872 16.2534 113.396 16.7855ZM112.453 20.2973C112.767 19.978 112.942 19.5524 112.942 18.9848C112.942 18.4172 112.767 17.9561 112.453 17.6368C112.139 17.3176 111.651 17.1757 110.988 17.1757H110.255V20.7584H111.092C111.686 20.723 112.139 20.5811 112.453 20.2973ZM119.328 21.8936L118.805 20.6166H116.362L115.838 21.8936H114.443L116.955 15.9696H118.212L120.724 21.8936H119.328ZM117.583 17.7432L116.851 19.4459H118.316L117.583 17.7432ZM123.446 17.1402V21.8936H122.12V17.1402H120.48V16.0051H125.086V17.1402H123.446ZM126.029 16.0051H127.32V21.9291H126.029V16.0051ZM133.637 21.0777C133.043 21.6453 132.31 21.9645 131.473 21.9645C130.6 21.9645 129.902 21.6807 129.309 21.0777C128.716 20.5101 128.437 19.7652 128.437 18.9139C128.437 18.0625 128.716 17.3176 129.309 16.75C129.902 16.1824 130.635 15.8632 131.473 15.8632C132.345 15.8632 133.043 16.147 133.637 16.75C134.23 17.3176 134.509 18.0625 134.509 18.9139C134.509 19.7652 134.23 20.5101 133.637 21.0777ZM133.218 18.9139C133.218 18.3818 133.043 17.9206 132.729 17.5659C132.38 17.2112 131.996 16.9983 131.508 16.9983C131.019 16.9983 130.6 17.1757 130.286 17.5659C129.937 17.9206 129.798 18.3818 129.798 18.9139C129.798 19.4459 129.972 19.8716 130.286 20.2618C130.635 20.6166 131.019 20.8294 131.508 20.8294C131.996 20.8294 132.415 20.652 132.729 20.2618C133.043 19.9071 133.218 19.4459 133.218 18.9139ZM139.674 16.0051H141V21.8936H139.674L136.917 18.2044V21.8936H135.626V16.0051H136.847L139.674 19.8007V16.0051Z" fill="black"/>
</g>
<defs>
<clipPath id="clip0_1600:2594">
<rect width="141" height="36" fill="white"/>
</clipPath>
</defs>
</svg>
