<svg width="761" height="555" viewBox="0 0 761 555" fill="none" xmlns="http://www.w3.org/2000/svg">
<g clip-path="url(#clip0_3751_8167)">
<g clip-path="url(#clip1_3751_8167)">
<g opacity="0.6">
<mask id="mask0_3751_8167" style="mask-type:alpha" maskUnits="userSpaceOnUse" x="32" y="126" width="684" height="396">
<circle r="278.94" transform="matrix(0.866025 0.5 -0.866025 0.5 373.76 323.949)" fill="#C4C4C4"/>
</mask>
<g mask="url(#mask0_3751_8167)">
<path d="M-113.986 445.853L627.316 17.8613" stroke="#E0E5EB" stroke-width="1.06466"/>
<path d="M-160.088 419.236L581.215 -8.75488" stroke="#E0E5EB" stroke-width="1.06466"/>
<path d="M-206.189 392.619L535.113 -35.3721" stroke="#E0E5EB" stroke-width="1.06466"/>
<path d="M-252.291 366.003L489.012 -61.9883" stroke="#E0E5EB" stroke-width="1.06466"/>
<path d="M-298.391 339.387L442.912 -88.6045" stroke="#E0E5EB" stroke-width="1.06466"/>
<path d="M-67.8867 472.469L673.416 44.4775" stroke="#E0E5EB" stroke-width="1.06466"/>
<path d="M-21.7871 499.085L719.516 71.0938" stroke="#E0E5EB" stroke-width="1.06466"/>
<path d="M24.3164 525.701L765.619 97.71" stroke="#E0E5EB" stroke-width="1.06466"/>
<path d="M70.416 552.318L811.719 124.326" stroke="#E0E5EB" stroke-width="1.06466"/>
<path d="M116.518 578.935L857.82 150.943" stroke="#E0E5EB" stroke-width="1.06466"/>
<path d="M162.617 605.551L903.92 177.56" stroke="#E0E5EB" stroke-width="1.06466"/>
<path d="M208.721 632.167L950.023 204.176" stroke="#E0E5EB" stroke-width="1.06466"/>
<path d="M254.82 658.783L996.123 230.792" stroke="#E0E5EB" stroke-width="1.06466"/>
<path d="M300.92 685.4L1042.22 257.408" stroke="#E0E5EB" stroke-width="1.06466"/>
<path d="M347.021 712.017L1088.32 284.025" stroke="#E0E5EB" stroke-width="1.06466"/>
<path d="M393.123 738.633L1134.43 310.642" stroke="#E0E5EB" stroke-width="1.06466"/>
<path d="M642.598 583.498L-145.387 128.555" stroke="#E0E5EB" stroke-width="1.06466"/>
<path d="M596.498 610.116L-191.486 155.173" stroke="#E0E5EB" stroke-width="1.06466"/>
<path d="M550.396 636.731L-237.588 181.788" stroke="#E0E5EB" stroke-width="1.06466"/>
<path d="M504.297 663.348L-283.688 208.405" stroke="#E0E5EB" stroke-width="1.06466"/>
<path d="M458.195 689.964L-329.789 235.021" stroke="#E0E5EB" stroke-width="1.06466"/>
<path d="M688.701 556.882L-99.2832 101.939" stroke="#E0E5EB" stroke-width="1.06466"/>
<path d="M734.799 530.265L-53.1855 75.3223" stroke="#E0E5EB" stroke-width="1.06466"/>
<path d="M780.902 503.65L-7.08203 48.707" stroke="#E0E5EB" stroke-width="1.06466"/>
<path d="M827 477.033L39.0156 22.0898" stroke="#E0E5EB" stroke-width="1.06466"/>
<path d="M855.975 440.528L85.168 -4.49805" stroke="#E0E5EB" stroke-width="1.06466"/>
<path d="M919.203 423.799L131.219 -31.1436" stroke="#E0E5EB" stroke-width="1.06466"/>
<path d="M965.305 397.183L177.32 -57.7598" stroke="#E0E5EB" stroke-width="1.06466"/>
<path d="M1011.41 370.568L223.422 -84.375" stroke="#E0E5EB" stroke-width="1.06466"/>
<path d="M1057.51 343.951L269.521 -110.992" stroke="#E0E5EB" stroke-width="1.06466"/>
<path d="M1103.61 317.335L315.625 -137.607" stroke="#E0E5EB" stroke-width="1.06466"/>
<path d="M1059.4 238.579L271.416 -216.364" stroke="#E0E5EB" stroke-width="1.06466"/>
<circle r="203.349" transform="matrix(0.866025 0.5 -0.866025 0.5 373.76 323.95)" stroke="white" stroke-width="4.25862" stroke-linecap="round" stroke-linejoin="round"/>
</g>
</g>
<rect width="211.866" height="211.866" transform="matrix(0.866025 0.5 -0.866025 0.5 375.605 216.952)" fill="#F6F7F9"/>
<circle r="6.38793" transform="matrix(0.866025 0.5 -0.866025 0.5 124.816 325.015)" fill="#0073E6" stroke="#F6F7F8" stroke-width="2.12931"/>
<circle r="5.8556" transform="matrix(0.866025 0.5 -0.866025 0.5 622.707 323.95)" fill="#EB4748" stroke="#F6F7F8" stroke-width="1.06466"/>
<circle r="6.92026" transform="matrix(0.866025 0.5 -0.866025 0.5 374.684 468.211)" fill="#FFBF00" stroke="#F6F7F8" stroke-width="3.19397"/>
<g opacity="0.18" filter="url(#filter0_f_3751_8167)">
<path d="M585.827 408.057L547.494 400.192L512.432 412.105L509.667 435.418L538.419 452.018L578.817 450.432L599.453 430.188L585.827 408.057Z" fill="#0A53A5"/>
</g>
<path d="M580.558 406.444L544.765 399.194L511.867 410.437L509.085 432.253L535.84 447.7L573.642 446.103L593.117 427.108L580.558 406.444Z" fill="#0073E6"/>
<path d="M565.578 436.205C565.521 436.172 565.463 436.139 565.521 436.106C565.578 436.073 565.464 436.007 565.349 435.941C565.177 435.775 564.948 435.643 564.718 435.51C564.604 435.444 564.489 435.378 564.432 435.279L564.375 435.245C563.802 434.848 563.229 434.385 562.77 433.921C562.656 433.789 562.656 433.59 562.771 433.457C562.829 433.491 562.771 433.457 562.771 433.457L562.428 433.126C564.323 432.297 565.931 431.236 567.253 430.076C568.517 428.882 569.438 427.557 569.957 426.198L570.645 426.198L570.703 426.165C570.875 426.065 571.162 425.966 571.392 425.965C572.367 425.998 573.227 426.097 574.145 426.229C574.317 426.262 574.489 426.295 574.661 426.328C575.006 426.394 575.292 426.427 575.637 426.493C575.751 426.493 575.809 426.526 575.923 426.526C576.038 426.526 575.981 426.493 576.038 426.46C576.956 426.525 577.76 426.194 577.876 425.663C577.934 425.431 577.762 425.133 577.476 424.968C577.189 424.802 576.787 424.703 576.386 424.67L576.271 424.671C576.156 424.671 576.042 424.671 575.984 424.638C575.64 424.638 575.296 424.638 575.009 424.671C574.837 424.704 574.664 424.671 574.55 424.672C573.689 424.705 572.714 424.673 571.853 424.574C571.681 424.541 571.509 424.508 571.394 424.442C571.337 424.408 571.222 424.342 571.222 424.276L571.165 424.243L570.419 424.144C570.42 423.614 570.364 423.051 570.365 422.521C569.91 420.335 568.307 418.215 565.9 416.494L566.302 416.196L566.245 416.229C566.188 416.063 566.303 415.931 566.418 415.798C567.049 415.433 567.681 415.068 568.485 414.737L568.543 414.704C568.657 414.637 568.83 414.604 568.945 414.538C569.232 414.438 569.461 414.305 569.748 414.206L570.093 414.007C570.725 413.708 570.841 413.112 570.325 412.748C570.038 412.516 569.522 412.417 568.948 412.417C568.489 412.418 568.087 412.517 567.8 412.683L567.513 412.849C567.283 412.982 567.111 413.147 566.938 413.313C566.881 413.413 566.766 413.479 566.651 413.545L566.594 413.578C566.076 414.009 565.445 414.374 564.755 414.772C564.526 414.838 564.296 414.905 564.009 414.872L563.894 414.938L563.378 415.17C562.69 414.84 561.944 414.542 561.141 414.211C557.873 412.987 553.972 412.393 550.07 412.462L549.956 412.131L549.899 412.097C549.842 412.064 549.727 412.064 549.612 411.998C549.497 411.932 549.44 411.833 549.383 411.733C549.269 411.203 549.213 410.64 549.271 410.143C549.329 410.044 549.271 409.945 549.272 409.878C549.272 409.679 549.33 409.514 549.33 409.315C549.33 409.249 549.273 409.216 549.273 409.149C549.273 409.083 549.273 409.083 549.273 409.083C549.216 408.851 549.044 408.62 548.758 408.454C548.414 408.255 548.012 408.156 547.553 408.223C546.692 408.323 546.118 408.787 546.174 409.284C546.231 409.317 546.174 409.35 546.174 409.35C546.174 409.35 546.174 409.483 546.231 409.516C546.288 409.681 546.403 409.88 546.517 410.079C546.574 410.178 546.631 410.277 546.689 410.377C546.917 410.907 547.146 411.437 547.145 411.967C547.145 412.099 547.03 412.298 546.8 412.364L546.857 412.331L546.857 412.729C546.684 412.762 546.57 412.762 546.397 412.795C541.806 413.394 537.729 414.887 534.971 417.076L534.398 416.877C534.34 416.91 534.283 416.877 534.283 416.877C534.053 416.944 533.767 416.911 533.48 416.878C532.677 416.613 531.932 416.315 531.186 415.951C531.072 415.885 530.957 415.819 530.785 415.786C530.556 415.654 530.269 415.554 530.04 415.422C529.982 415.389 529.868 415.389 529.753 415.323C529.696 415.29 529.696 415.29 529.581 415.29C528.835 414.992 527.86 415.092 527.343 415.523C526.94 415.888 527.112 416.385 527.685 416.649C527.799 416.715 527.857 416.748 528.029 416.782C528.086 416.815 528.086 416.815 528.144 416.781C528.201 416.748 528.316 416.881 528.373 416.914C528.66 417.013 529.004 417.079 529.233 417.145C529.405 417.178 529.577 417.211 529.692 417.277L529.749 417.311C530.61 417.542 531.355 417.773 532.158 418.104L532.215 418.137C532.387 418.237 532.502 418.369 532.501 418.502C532.559 418.535 532.501 418.568 532.501 418.568L533.075 418.832C531.292 420.854 530.542 423.141 531.055 425.426C531.168 425.956 531.282 426.42 531.568 426.917L530.88 426.983C530.822 427.016 530.88 427.05 530.88 427.05C530.822 427.215 530.592 427.348 530.363 427.414C529.559 427.614 528.641 427.747 527.78 427.846L527.722 427.88C527.55 427.913 527.435 427.913 527.206 427.913C526.976 427.913 526.632 427.98 526.23 428.013C526.115 428.013 526.058 428.046 525.943 428.046C525.943 428.046 525.886 428.079 525.828 428.046C524.967 428.213 524.507 428.743 524.736 429.207C524.793 429.306 524.908 429.438 525.023 429.505C525.481 429.769 526.17 429.835 526.801 429.735C526.801 429.735 526.858 429.702 526.916 429.735C526.973 429.702 527.088 429.702 527.203 429.702C527.49 429.602 527.777 429.569 528.064 429.47L528.523 429.337C529.327 429.071 530.188 428.905 531.049 428.739C531.336 428.706 531.623 428.739 531.852 428.805C531.909 428.838 531.909 428.838 531.967 428.805L532.655 428.672C533.629 429.963 535.004 431.089 536.723 432.082C537.755 432.677 538.902 433.207 540.221 433.636C540.966 433.934 541.826 434.166 542.572 434.397L542.399 434.762C542.456 434.795 542.456 434.795 542.399 434.828C542.514 434.96 542.571 435.126 542.513 435.292C542.225 435.789 541.937 436.286 541.478 436.75L541.42 436.783L541.19 437.048C541.018 437.214 540.845 437.38 540.788 437.545C540.787 437.612 540.73 437.645 540.73 437.711C540.73 437.711 540.672 437.744 540.73 437.777C540.557 438.142 540.671 438.539 541.13 438.804C541.302 438.903 541.474 438.936 541.703 439.002C542.047 439.068 542.506 439.068 542.851 438.935C543.195 438.803 543.482 438.637 543.655 438.405C543.712 438.372 543.655 438.339 543.655 438.339C543.713 438.305 543.713 438.239 543.713 438.173C543.828 437.974 543.886 437.808 543.886 437.61C543.944 437.51 543.944 437.444 543.944 437.312L544.059 437.245C544.174 436.715 544.462 436.218 544.807 435.754C544.922 435.621 545.152 435.489 545.439 435.455C545.496 435.422 545.554 435.455 545.554 435.455L545.841 435.091C550.545 435.751 555.538 435.449 559.844 434.155L560.245 434.453C560.302 434.486 560.36 434.453 560.36 434.453C560.589 434.453 560.818 434.519 560.99 434.618L561.048 434.651C561.563 435.081 562.022 435.545 562.365 436.009L562.422 436.042C562.48 436.141 562.537 436.24 562.651 436.307C562.766 436.505 562.823 436.671 562.995 436.836C563.052 436.87 563.052 436.936 563.167 437.002C563.224 437.035 563.224 437.035 563.224 437.101C563.281 437.201 563.338 437.234 563.453 437.3C563.969 437.598 564.772 437.664 565.404 437.498C565.978 437.1 565.979 436.57 565.578 436.205ZM550.793 425.613L548.498 425.151L547.698 423.826L548.962 422.633L551.43 422.466L553.149 423.458L552.86 424.883L550.793 425.613ZM563.87 428.852C562.95 429.714 561.801 430.443 560.48 431.074L556.586 427.034C556.185 426.67 556.415 426.206 557.047 425.974C557.276 425.908 557.448 425.874 557.678 425.874L565.883 426.101C565.479 427.062 564.789 427.99 563.87 428.852ZM566.288 423.881L558.257 423.091C557.626 422.992 557.11 422.628 557.225 422.23C557.226 422.098 557.283 421.998 557.456 421.899L562.913 418.351C565.148 419.973 566.292 421.894 566.288 423.881ZM558.843 416.2L560.219 416.729L554.188 419.88C553.672 420.179 552.811 420.146 552.295 419.848C552.123 419.749 552.066 419.649 551.951 419.517L550.583 414.814C553.509 414.845 556.377 415.307 558.843 416.2ZM546.795 415.081L547.246 419.719C547.302 420.149 546.785 420.514 546.039 420.547C545.752 420.581 545.58 420.548 545.294 420.448L538.125 418.167C540.366 416.675 543.409 415.58 546.795 415.081ZM536.113 420.123L542.765 422.835C543.223 423.1 543.395 423.531 542.992 423.829C542.877 423.962 542.648 424.094 542.361 424.127L534.898 425.921C534.213 424 534.618 421.912 536.113 420.123ZM542.003 431.747C541.028 431.383 540.111 430.986 539.251 430.49C538.047 429.795 537.016 428.934 536.214 428.073L544.135 426.744C544.766 426.71 545.339 426.908 545.511 427.273C545.568 427.438 545.568 427.571 545.567 427.77L543.322 432.243C542.92 432.078 542.519 431.912 542.003 431.747ZM553.993 432.9C551.755 433.199 549.345 433.2 547.108 432.904L550.271 428.496C550.616 428.164 551.305 428.031 551.879 428.163C552.108 428.23 552.337 428.296 552.509 428.395L557.265 432.268C556.174 432.567 555.084 432.799 553.993 432.9Z" fill="white"/>
<path d="M509.102 435.456L509.102 432.262L535.84 447.699L535.84 450.893L509.102 435.456Z" fill="#1A8CFF"/>
<path d="M535.841 450.894L535.841 447.7L573.643 446.103L573.643 449.297L535.841 450.894Z" fill="#0073E6"/>
<path d="M593.13 430.362L593.109 427.1L573.643 446.103L573.643 449.297L593.13 430.362Z" fill="#0059B3"/>
<g opacity="0.12" filter="url(#filter1_f_3751_8167)">
<path d="M269.638 278.738C273.711 276.386 280.316 276.386 284.39 278.738L352.619 318.13C356.693 320.482 356.693 324.296 352.619 326.648L284.39 366.04C280.316 368.392 273.711 368.392 269.638 366.04L201.408 326.648C197.334 324.296 197.334 320.482 201.408 318.13L269.638 278.738Z" fill="#141A1F"/>
</g>
<path d="M269.638 274.48C273.711 272.128 280.316 272.128 284.39 274.48L352.619 313.873C356.693 316.225 356.693 320.038 352.619 322.39L284.39 361.782C280.316 364.134 273.711 364.134 269.638 361.782L201.408 322.39C197.334 320.038 197.334 316.225 201.408 313.873L269.638 274.48Z" fill="white"/>
<path d="M245.553 319.581L237.506 324.227L236.563 323.682L238.496 317.503L238.418 317.458L232.1 321.105L231.125 320.543L239.172 315.897L240.115 316.441L238.182 322.639L238.26 322.684L244.594 319.027L245.553 319.581ZM241.735 326.813C241.153 326.477 240.78 326.114 240.615 325.722C240.455 325.33 240.493 324.935 240.729 324.536C240.97 324.136 241.399 323.758 242.018 323.401C242.636 323.045 243.293 322.795 243.99 322.653C244.692 322.511 245.378 322.48 246.049 322.562C246.725 322.644 247.335 322.842 247.88 323.156C248.194 323.338 248.452 323.547 248.654 323.785C248.856 324.022 248.964 324.282 248.98 324.563C248.998 324.843 248.89 325.137 248.654 325.445C248.418 325.754 248.019 326.071 247.455 326.396L247.063 326.623L242.411 323.937L243.212 323.474L246.921 325.615C247.262 325.419 247.497 325.204 247.628 324.971C247.762 324.74 247.782 324.508 247.687 324.275C247.596 324.043 247.382 323.831 247.047 323.637C246.678 323.424 246.266 323.293 245.813 323.243C245.365 323.193 244.924 323.21 244.489 323.295C244.054 323.379 243.67 323.518 243.338 323.71L242.803 324.018C242.348 324.282 242.04 324.55 241.88 324.824C241.726 325.097 241.707 325.364 241.825 325.622C241.946 325.879 242.193 326.116 242.568 326.332C242.811 326.473 243.065 326.58 243.33 326.654C243.6 326.728 243.876 326.767 244.159 326.77C244.444 326.772 244.731 326.735 245.019 326.659L245.664 327.321C245.266 327.442 244.84 327.505 244.387 327.51C243.936 327.513 243.483 327.457 243.027 327.342C242.574 327.225 242.143 327.049 241.735 326.813ZM254.43 327.029L253.644 327.482L250.516 325.677L251.302 325.223L254.43 327.029ZM253.659 324.914L254.587 325.45L248.835 328.771C248.573 328.922 248.414 329.057 248.359 329.177C248.309 329.296 248.322 329.404 248.398 329.499C248.48 329.594 248.588 329.681 248.725 329.76C248.827 329.819 248.916 329.864 248.992 329.896C249.07 329.926 249.133 329.95 249.18 329.969L248.536 330.558C248.45 330.536 248.338 330.499 248.202 330.447C248.063 330.397 247.907 330.322 247.734 330.223C247.472 330.071 247.272 329.891 247.133 329.68C246.997 329.472 246.962 329.253 247.027 329.025C247.095 328.798 247.305 328.583 247.656 328.381L253.659 324.914ZM251.157 332.108L255.353 327.562L256.327 328.124L253.011 331.545L253.074 331.581L258.983 329.658L259.973 330.229L256.642 333.623L256.704 333.659L262.614 331.754L263.588 332.316L255.714 334.739L254.803 334.213L258.119 330.774L258.025 330.719L252.068 332.634L251.157 332.108ZM260.9 337.878C260.355 337.563 260.006 337.213 259.855 336.825C259.705 336.44 259.748 336.046 259.984 335.644C260.223 335.243 260.653 334.863 261.277 334.503C261.906 334.14 262.568 333.889 263.265 333.749C263.964 333.612 264.648 333.586 265.316 333.672C265.987 333.76 266.594 333.961 267.139 334.276C267.684 334.59 268.031 334.94 268.18 335.326C268.332 335.713 268.288 336.108 268.047 336.51C267.808 336.914 267.375 337.297 266.746 337.66C266.123 338.02 265.463 338.268 264.766 338.404C264.072 338.542 263.389 338.567 262.719 338.479C262.051 338.393 261.445 338.193 260.9 337.878ZM261.733 337.397C262.147 337.636 262.593 337.771 263.072 337.803C263.552 337.835 264.029 337.788 264.503 337.663C264.977 337.537 265.415 337.358 265.819 337.125C266.222 336.892 266.534 336.638 266.754 336.363C266.974 336.087 267.058 335.811 267.005 335.532C266.953 335.254 266.72 334.996 266.306 334.757C265.892 334.518 265.444 334.383 264.962 334.353C264.48 334.323 264.001 334.371 263.524 334.498C263.048 334.625 262.608 334.805 262.204 335.038C261.801 335.271 261.49 335.524 261.273 335.798C261.056 336.072 260.974 336.347 261.029 336.624C261.084 336.9 261.319 337.158 261.733 337.397ZM265.175 340.201L271.211 336.717L272.106 337.234L271.195 337.761L271.258 337.797C271.666 337.688 272.108 337.663 272.582 337.722C273.056 337.781 273.474 337.915 273.835 338.124C273.903 338.163 273.987 338.213 274.087 338.273C274.186 338.334 274.259 338.381 274.307 338.414L273.364 338.958C273.34 338.936 273.28 338.887 273.183 338.813C273.091 338.739 272.984 338.667 272.861 338.595C272.567 338.426 272.244 338.31 271.89 338.248C271.542 338.186 271.193 338.179 270.845 338.226C270.502 338.273 270.194 338.375 269.922 338.532L266.103 340.737L265.175 340.201ZM272.357 341.807L273.488 341.136L273.677 341.244L279.005 341.217L280.152 341.88L274.494 341.898L274.416 341.852L272.357 341.807ZM269.292 342.578L277.339 337.932L278.266 338.468L270.219 343.114L269.292 342.578ZM273.127 344.792L273.756 341.707L275.06 341.716L274.306 345.473L273.127 344.792Z" fill="#141A1F"/>
<circle r="19.1638" transform="matrix(0.866025 0.5 -0.866025 0.5 286.172 313.837)" fill="#EB4748"/>
<path d="M295.393 308.513L286.172 313.836" stroke="white" stroke-width="2.12931" stroke-linecap="round"/>
<path d="M272.342 312.239L286.172 313.836" stroke="white" stroke-width="2.12931" stroke-linecap="round"/>
<path d="M286.172 313.837L288.938 321.822" stroke="white" stroke-width="2.12931" stroke-linecap="round"/>
<circle r="3.19397" transform="matrix(0.866025 0.5 -0.866025 0.5 288.937 321.821)" fill="white"/>
<circle r="3.19397" transform="matrix(0.866025 0.5 -0.866025 0.5 295.393 308.513)" fill="white"/>
<circle r="3.19397" transform="matrix(0.866025 0.5 -0.866025 0.5 272.342 312.24)" fill="white"/>
<circle r="4.25862" transform="matrix(0.866025 0.5 -0.866025 0.5 286.172 313.837)" fill="white"/>
<g opacity="0.12" filter="url(#filter2_f_3751_8167)">
<path d="M465.104 278.739C469.178 276.387 475.783 276.387 479.857 278.739L548.086 318.131C552.16 320.483 552.16 324.297 548.086 326.649L479.857 366.041C475.783 368.393 469.178 368.393 465.104 366.041L396.875 326.649C392.801 324.297 392.801 320.483 396.875 318.131L465.104 278.739Z" fill="#141A1F"/>
</g>
<path d="M465.104 274.48C469.178 272.128 475.783 272.128 479.857 274.48L548.086 313.873C552.16 316.225 552.16 320.038 548.086 322.39L479.857 361.782C475.783 364.134 469.178 364.134 465.104 361.782L396.875 322.39C392.801 320.038 392.801 316.225 396.875 313.873L465.104 274.48Z" fill="white"/>
<path d="M441.692 329.261L440.67 328.671L451.672 325.731L452.678 326.312L447.586 332.664L446.564 332.074L450.933 326.775L450.87 326.739L441.692 329.261ZM445.212 327.664L449.33 330.041L448.466 330.54L444.348 328.163L445.212 327.664ZM448.839 333.387L456.886 328.742L459.605 330.311C460.236 330.676 460.638 331.04 460.811 331.402C460.989 331.765 460.982 332.114 460.791 332.448C460.6 332.782 460.267 333.086 459.793 333.36C459.319 333.634 458.791 333.827 458.21 333.939C457.631 334.052 457.026 334.06 456.395 333.961C455.766 333.861 455.139 333.631 454.513 333.269L452.564 332.144L453.428 331.645L455.345 332.752C455.778 333.002 456.199 333.159 456.611 333.224C457.022 333.289 457.413 333.282 457.785 333.204C458.163 333.125 458.512 332.993 458.834 332.807C459.157 332.621 459.385 332.419 459.518 332.203C459.654 331.988 459.662 331.763 459.542 331.527C459.424 331.29 459.146 331.045 458.709 330.792L456.996 329.803L449.813 333.95L448.839 333.387ZM464.883 333.359L456.837 338.005L455.862 337.442L463.909 332.796L464.883 333.359Z" fill="#141A1F"/>
<circle r="19.1638" transform="matrix(0.866025 0.5 -0.866025 0.5 481.639 313.837)" fill="#00877C"/>
<path d="M487.157 320.103L486.709 318.146C487.177 317.96 487.615 317.751 488.017 317.519C488.418 317.286 488.781 317.033 489.101 316.762L492.492 317.022C492.591 317.029 492.692 317.016 492.776 316.983C492.86 316.951 492.921 316.902 492.947 316.846L494.091 314.429C494.117 314.373 494.107 314.314 494.063 314.262C494.019 314.21 493.944 314.17 493.851 314.149L490.679 313.414C490.601 312.763 490.315 312.128 489.835 311.54L491.953 309.972C492.015 309.926 492.046 309.869 492.04 309.812C492.034 309.754 491.992 309.7 491.922 309.659L488.878 307.902C488.808 307.861 488.714 307.837 488.614 307.834C488.514 307.83 488.415 307.848 488.336 307.884L485.621 309.107C484.603 308.829 483.502 308.664 482.375 308.619L481.102 306.788C481.065 306.734 480.996 306.691 480.906 306.665C480.817 306.64 480.714 306.634 480.617 306.649L476.428 307.31C476.331 307.325 476.246 307.36 476.19 307.409C476.134 307.457 476.111 307.516 476.124 307.573L476.575 309.53C475.635 309.901 474.823 310.37 474.181 310.913L470.789 310.653C470.69 310.645 470.589 310.659 470.505 310.691C470.421 310.723 470.36 310.772 470.334 310.828L469.189 313.246C469.163 313.302 469.173 313.361 469.217 313.413C469.261 313.465 469.336 313.505 469.429 313.526L472.601 314.261C472.679 314.912 472.966 315.548 473.447 316.135L471.329 317.703C471.267 317.749 471.236 317.806 471.242 317.863C471.247 317.921 471.289 317.975 471.36 318.016L474.404 319.773C474.474 319.814 474.568 319.838 474.668 319.841C474.768 319.845 474.867 319.827 474.946 319.791L477.661 318.568C478.679 318.846 479.78 319.011 480.907 319.056L482.18 320.888C482.217 320.941 482.287 320.985 482.376 321.01C482.465 321.035 482.568 321.041 482.665 321.026L486.853 320.365C486.95 320.35 487.034 320.315 487.09 320.267C487.146 320.218 487.169 320.16 487.157 320.103ZM478.429 315.692C477.801 315.329 477.376 314.866 477.207 314.361C477.037 313.856 477.132 313.331 477.479 312.854C477.825 312.376 478.408 311.967 479.154 311.678C479.899 311.389 480.774 311.233 481.667 311.23C482.56 311.227 483.432 311.377 484.172 311.661C484.911 311.945 485.486 312.351 485.823 312.826C486.16 313.301 486.245 313.825 486.065 314.332C485.886 314.838 485.451 315.304 484.816 315.671C483.964 316.162 482.813 316.441 481.615 316.445C480.417 316.449 479.271 316.178 478.429 315.692Z" fill="white"/>
<g opacity="0.12" filter="url(#filter3_f_3751_8167)">
<path d="M367.37 335.166C371.444 332.814 378.049 332.814 382.122 335.166L450.352 374.558C454.425 376.91 454.425 380.723 450.352 383.075L382.122 422.468C378.049 424.82 371.444 424.82 367.37 422.468L299.141 383.075C295.067 380.723 295.067 376.91 299.141 374.558L367.37 335.166Z" fill="#141A1F"/>
</g>
<path d="M367.37 330.907C371.444 328.555 378.049 328.555 382.122 330.907L450.352 370.299C454.425 372.651 454.425 376.465 450.352 378.817L382.122 418.209C378.049 420.561 371.444 420.561 367.37 418.209L299.141 378.817C295.067 376.465 295.067 372.651 299.141 370.299L367.37 330.907Z" fill="white"/>
<path d="M334.97 380.499L343.017 375.853L343.991 376.416L339.999 378.721L340.093 378.775L347.7 378.557L348.973 379.292L341.964 379.437L340.926 383.938L339.748 383.257L340.691 379.483L338.553 379.555L335.944 381.062L334.97 380.499ZM344.023 385.871C343.442 385.536 343.069 385.172 342.904 384.78C342.744 384.388 342.782 383.993 343.018 383.594C343.259 383.195 343.688 382.816 344.306 382.46C344.924 382.103 345.582 381.853 346.279 381.711C346.981 381.569 347.667 381.539 348.338 381.62C349.013 381.702 349.624 381.9 350.168 382.215C350.483 382.396 350.741 382.605 350.942 382.843C351.144 383.08 351.253 383.34 351.269 383.621C351.287 383.901 351.178 384.195 350.942 384.503C350.707 384.812 350.307 385.129 349.744 385.454L349.351 385.681L344.699 382.995L345.501 382.532L349.21 384.674C349.55 384.477 349.786 384.262 349.917 384.029C350.051 383.798 350.07 383.566 349.976 383.333C349.884 383.102 349.671 382.889 349.335 382.695C348.966 382.482 348.555 382.351 348.102 382.301C347.654 382.251 347.212 382.268 346.778 382.353C346.343 382.438 345.959 382.576 345.626 382.768L345.092 383.077C344.636 383.34 344.329 383.608 344.169 383.882C344.014 384.156 343.996 384.422 344.114 384.68C344.234 384.937 344.482 385.174 344.856 385.39C345.1 385.531 345.354 385.638 345.619 385.713C345.888 385.787 346.165 385.825 346.448 385.828C346.733 385.83 347.02 385.793 347.308 385.717L347.952 386.379C347.554 386.5 347.129 386.563 346.676 386.568C346.225 386.571 345.772 386.515 345.316 386.4C344.863 386.283 344.432 386.107 344.023 385.871ZM348.059 388.056L354.094 384.571L354.989 385.089L354.078 385.615L354.141 385.651C354.549 385.542 354.991 385.517 355.465 385.576C355.939 385.635 356.357 385.769 356.718 385.978C356.786 386.017 356.87 386.067 356.97 386.128C357.069 386.188 357.143 386.235 357.19 386.268L356.247 386.813C356.223 386.79 356.163 386.742 356.066 386.668C355.974 386.593 355.867 386.521 355.744 386.45C355.45 386.28 355.127 386.165 354.773 386.103C354.425 386.041 354.077 386.033 353.728 386.08C353.385 386.127 353.077 386.229 352.805 386.386L348.986 388.591L348.059 388.056ZM356.733 388.872L353.102 390.968L352.175 390.433L358.21 386.948L359.106 387.465L358.163 388.01L358.242 388.055C358.69 387.96 359.151 387.942 359.625 388.001C360.101 388.058 360.568 388.219 361.023 388.482C361.432 388.718 361.706 388.972 361.845 389.246C361.986 389.518 361.973 389.801 361.805 390.095C361.64 390.386 361.301 390.681 360.788 390.977L356.953 393.191L356.026 392.656L359.798 390.478C360.272 390.204 360.518 389.92 360.536 389.625C360.557 389.329 360.353 389.056 359.923 388.808C359.627 388.637 359.299 388.522 358.937 388.461C358.578 388.402 358.209 388.405 357.829 388.47C357.449 388.535 357.084 388.669 356.733 388.872ZM361.052 395.703C360.47 395.367 360.097 395.003 359.932 394.612C359.772 394.22 359.81 393.824 360.046 393.425C360.287 393.026 360.717 392.648 361.335 392.291C361.953 391.934 362.61 391.685 363.307 391.542C364.009 391.4 364.695 391.37 365.366 391.452C366.042 391.533 366.652 391.731 367.197 392.046C367.511 392.227 367.769 392.437 367.971 392.674C368.173 392.912 368.281 393.171 368.297 393.452C368.315 393.732 368.207 394.026 367.971 394.335C367.735 394.643 367.336 394.96 366.773 395.285L366.38 395.512L361.728 392.826L362.529 392.364L366.238 394.505C366.579 394.308 366.815 394.094 366.946 393.861C367.079 393.629 367.099 393.397 367.004 393.164C366.913 392.933 366.699 392.72 366.364 392.527C365.995 392.314 365.583 392.182 365.13 392.132C364.682 392.082 364.241 392.1 363.806 392.184C363.371 392.269 362.988 392.407 362.655 392.599L362.121 392.908C361.665 393.171 361.357 393.44 361.197 393.713C361.043 393.987 361.024 394.253 361.142 394.512C361.263 394.769 361.51 395.006 361.885 395.222C362.128 395.362 362.383 395.47 362.647 395.544C362.917 395.618 363.193 395.657 363.476 395.66C363.762 395.661 364.048 395.624 364.337 395.548L364.981 396.211C364.583 396.332 364.157 396.395 363.704 396.399C363.254 396.402 362.8 396.346 362.345 396.231C361.891 396.115 361.461 395.939 361.052 395.703ZM374.061 393.777L366.014 398.423L365.087 397.887L373.134 393.241L374.061 393.777Z" fill="#141A1F"/>
<circle r="19.1638" transform="matrix(0.866025 0.5 -0.866025 0.5 383.904 370.263)" fill="#0073E6"/>
<rect width="16.4261" height="13.6884" rx="1.7041" transform="matrix(0.866025 0.5 -0.866025 0.5 382.717 362.735)" fill="white"/>
<rect width="21.2931" height="17.0345" rx="1.7041" transform="matrix(0.866025 0.5 -0.866025 0.5 382.059 360.682)" fill="white"/>
<path d="M382.981 366.537L378.371 367.07L377.449 369.731" stroke="#0073E6" stroke-width="2.13012" stroke-linecap="round" stroke-linejoin="round"/>
<path d="M390.355 370.796L389.433 373.457L384.823 373.99" stroke="#0073E6" stroke-width="2.13012" stroke-linecap="round" stroke-linejoin="round"/>
<path d="M388.512 368.666L379.292 371.86" stroke="#0073E6" stroke-width="2.13012" stroke-linecap="round" stroke-linejoin="round"/>
<g opacity="0.14" filter="url(#filter4_f_3751_8167)">
<circle r="36.1983" transform="matrix(0.866025 0.5 -0.866025 0.5 201.346 425.625)" fill="#00332F"/>
</g>
<path d="M240.421 426.997L240.421 422.633L229.553 422.633C229.104 422.349 228.642 422.069 228.165 421.794C211.826 412.36 185.334 412.36 168.994 421.794C168.518 422.068 168.055 422.348 167.607 422.633L156.74 422.633L156.74 425.924C156.739 426.017 156.739 426.11 156.74 426.203L156.74 426.997L156.77 426.997C157.161 432.865 161.236 438.666 168.994 443.145C185.334 452.579 211.826 452.579 228.166 443.145C235.924 438.666 239.999 432.865 240.389 426.997L240.421 426.997Z" fill="#00665E"/>
<circle r="34.069" transform="matrix(0.866025 0.5 -0.866025 0.5 198.58 422.963)" fill="#00877C"/>
<path d="M213.394 426.548C213.192 426.431 212.977 426.325 212.761 426.22C214.298 424.504 214.912 422.603 214.519 420.779C214.126 418.956 212.745 417.3 210.567 416.043C208.389 414.785 205.522 413.988 202.364 413.761C199.205 413.534 195.912 413.889 192.939 414.776C192.759 414.651 192.575 414.527 192.372 414.411C190.514 413.338 187.922 412.776 185.167 412.849C182.412 412.922 179.72 413.624 177.682 414.801C175.644 415.977 174.428 417.532 174.301 419.123C174.174 420.713 175.147 422.21 177.006 423.283L198.028 435.42C199.886 436.493 202.478 437.054 205.233 436.981C207.988 436.908 210.681 436.206 212.718 435.029C214.756 433.853 215.972 432.298 216.099 430.708C216.226 429.117 215.253 427.621 213.394 426.548Z" fill="white"/>
<path d="M203.189 420.302L205.033 430.948" stroke="#00877C" stroke-width="2.12931" stroke-linecap="round"/>
<path d="M184.75 419.237L203.19 420.302" stroke="#00877C" stroke-width="2.12931" stroke-linecap="round"/>
<circle r="3.19397" transform="matrix(0.866025 0.5 -0.866025 0.5 203.189 420.302)" fill="#00877C" stroke="white" stroke-width="2.12931"/>
<circle r="3.19397" transform="matrix(0.866025 0.5 -0.866025 0.5 184.75 419.237)" fill="#00877C" stroke="white" stroke-width="2.12931"/>
<circle r="3.19397" transform="matrix(0.866025 0.5 -0.866025 0.5 205.035 430.949)" fill="#00877C" stroke="white" stroke-width="2.12931"/>
<path d="M366.848 113.414C371.177 110.915 378.194 110.915 382.523 113.414L546.642 208.168C550.97 210.667 550.97 214.719 546.642 217.218L382.523 311.972C378.194 314.471 371.177 314.471 366.848 311.972L202.729 217.218C198.401 214.719 198.401 210.667 202.729 208.168L366.848 113.414Z" fill="#FFF5D6" stroke="#FFBF00" stroke-width="3.19397" stroke-linejoin="round"/>
<path d="M383.906 278.702L489.016 218.017" stroke="white" stroke-width="3.19397" stroke-linecap="round" stroke-linejoin="round" stroke-dasharray="0.01 6.39"/>
<path d="M260.355 207.37L365.465 146.685" stroke="white" stroke-width="3.19397" stroke-linecap="round" stroke-linejoin="round" stroke-dasharray="0.01 6.39"/>
<path d="M489.016 207.37L383.906 146.685" stroke="white" stroke-width="3.19397" stroke-linecap="round" stroke-linejoin="round" stroke-dasharray="0.01 6.39"/>
<path d="M365.464 278.701L355.322 272.846" stroke="white" stroke-width="3.19397" stroke-linecap="round" stroke-linejoin="round" stroke-dasharray="0.01 7.45"/>
<path d="M270.498 223.872L260.355 218.017" stroke="white" stroke-width="3.19397" stroke-linecap="round" stroke-linejoin="round" stroke-dasharray="0.01 7.45"/>
<rect width="10.6466" height="10.6466" rx="5.32328" transform="matrix(0.866025 0.5 -0.866025 0.5 251.135 207.369)" fill="white" stroke="#FFBF00" stroke-width="3.19397"/>
<rect width="10.6466" height="10.6466" rx="5.32328" transform="matrix(0.866025 0.5 -0.866025 0.5 374.686 278.701)" fill="white" stroke="#FFBF00" stroke-width="3.19397"/>
<rect width="10.6466" height="10.6466" rx="5.32328" transform="matrix(0.866025 -0.5 0.866025 0.5 489.016 212.692)" fill="white" stroke="#FFBF00" stroke-width="3.19397"/>
<path d="M323.042 254.835C322.979 254.318 322.663 253.826 322.13 253.414C322.751 253.604 323.437 253.715 324.142 253.742C324.746 253.752 325.35 253.686 325.91 253.548C326.47 253.409 326.973 253.202 327.384 252.941C329.534 251.7 329.307 250.079 326.736 248.594L320.38 244.924C320.38 244.924 318.952 245.749 318.083 246.25L312.974 249.201C311.78 249.344 310.565 249.412 309.351 249.404C307.281 249.404 305.259 249.087 303.492 248.484C302.702 248.207 302.041 247.826 301.561 247.37C301.149 246.976 300.936 246.522 300.946 246.058C300.956 245.593 301.188 245.137 301.616 244.739C301.712 244.626 301.779 244.645 301.932 244.693C302.084 244.741 302.464 244.911 302.752 245.008C304.2 245.524 305.814 245.872 307.503 246.032C308.625 246.138 309.774 246.133 310.901 246.017C311.571 245.962 312.214 245.821 312.781 245.603C313.257 245.423 313.64 245.173 313.889 244.878C314.137 244.583 314.242 244.256 314.19 243.933C314.114 243.359 313.685 242.823 312.982 242.421C312.291 242.01 311.43 241.708 310.477 241.541C309.027 241.274 307.479 241.215 305.967 241.371C304.722 241.483 303.525 241.742 302.454 242.134C301.385 242.546 300.467 243.076 299.752 243.693C299.475 243.935 299.239 244.192 299.049 244.459C298.553 245.101 298.359 245.804 298.487 246.497C298.616 247.189 299.062 247.845 299.78 248.398C300.485 248.965 301.398 249.434 302.456 249.774C304.4 250.429 306.631 250.758 308.902 250.724C309.508 250.693 310.109 250.635 310.702 250.551L309.179 251.43C308.044 252.086 306.831 252.786 306.831 252.786L313.381 256.568C316.154 258.169 319.166 258.309 321.506 256.958C322.014 256.688 322.416 256.358 322.681 255.991C322.947 255.624 323.07 255.229 323.042 254.835ZM303.236 243.629C303.74 243.397 304.3 243.212 304.898 243.078C306.397 242.717 308.041 242.627 309.611 242.819C310.196 242.888 310.745 243.029 311.222 243.233L311.525 243.408C311.788 243.561 311.983 243.749 312.095 243.955C312.192 244.123 312.173 244.307 312.042 244.47C311.91 244.633 311.677 244.761 311.39 244.83C311.094 244.909 310.78 244.962 310.459 244.987C309.42 245.071 308.368 245.046 307.352 244.912C305.989 244.74 304.698 244.422 303.545 243.976L303.199 243.835C303.055 243.753 303.022 243.733 303.21 243.643L303.236 243.629ZM320.798 248.275L323.572 249.876C324.482 250.402 324.515 250.947 323.724 251.404C323.55 251.513 323.339 251.599 323.104 251.656C322.869 251.714 322.617 251.742 322.364 251.738C322.111 251.735 321.863 251.7 321.638 251.635C321.413 251.571 321.215 251.479 321.059 251.366L318.252 249.745L320.798 248.275ZM315.559 254.687L312.626 252.993L315.654 251.245L318.571 252.929C318.801 253.036 318.99 253.17 319.123 253.323C319.256 253.476 319.332 253.644 319.345 253.817C319.358 253.989 319.308 254.162 319.198 254.323C319.088 254.485 318.921 254.633 318.707 254.756C318.494 254.879 318.238 254.976 317.958 255.039C317.678 255.103 317.379 255.132 317.08 255.124C316.782 255.117 316.491 255.073 316.226 254.996C315.961 254.919 315.728 254.81 315.543 254.677L315.559 254.687Z" fill="black"/>
<path d="M338.733 255.549L333.043 252.264C333.043 252.264 331.598 253.098 330.72 253.605L321.929 258.681C320.974 259.232 319.52 260.071 319.52 260.071L322.681 261.896L327.223 259.274L329.752 260.734C332.837 262.515 336.379 262.573 339.269 260.904C342.16 259.236 341.852 257.35 338.733 255.549ZM332.353 259.047L329.985 257.68L333.426 255.693L335.794 257.061C336.065 257.174 336.285 257.322 336.438 257.494C336.592 257.666 336.674 257.856 336.679 258.051C336.683 258.246 336.611 258.44 336.466 258.617C336.321 258.795 336.108 258.952 335.844 259.076C335.621 259.221 335.346 259.336 335.04 259.414C334.734 259.493 334.403 259.532 334.071 259.529C333.739 259.526 333.413 259.482 333.116 259.399C332.82 259.315 332.559 259.195 332.353 259.047Z" fill="black"/>
<path d="M349.109 264.839L351.772 266.377L354.628 264.728L345.221 259.297L331.698 267.104L334.85 268.925L340.072 265.91L345.602 269.103L348.381 267.498L342.817 264.286L345.484 262.747L349.109 264.839Z" fill="black"/>
<path d="M285.104 239.897C285.625 238.902 286.556 237.99 287.817 237.242C289.079 236.493 290.632 235.93 292.341 235.602L292.667 234.509L291.85 233.52C290.06 233.503 288.313 233.233 286.762 232.734C285.211 232.235 283.902 231.522 282.95 230.657C278.793 231.734 277.013 232.722 276.624 235.945C278.462 238.943 280.622 239.574 285.104 239.897Z" fill="#FFE100"/>
<path d="M295.851 231.974C296.092 230.861 292.649 227.145 287.454 225.715C280.718 223.813 280.011 230.129 285.982 232.474C289.787 233.966 295.426 233.884 295.851 231.974Z" fill="#D9F1FD"/>
<path d="M288.974 229.476L289.142 229.136C288.838 229.091 288.522 229.073 288.206 229.082C287.666 228.819 287.102 228.573 286.516 228.345L286.602 228.295C286.413 227.91 286.361 227.505 286.452 227.104C286.542 226.704 286.773 226.317 287.129 225.967L286.587 225.783L286.028 225.599C285.353 226.288 285.029 227.069 285.094 227.852C284.043 227.523 282.923 227.271 281.761 227.099L281.416 227.824C283.265 228.101 284.99 228.591 286.492 229.264C285.092 229.585 283.871 230.127 282.973 230.828L283.97 231.285C284.859 230.548 286.196 230.029 287.708 229.837C289.603 230.823 291.204 231.983 292.45 233.27L293.58 232.93C292.353 231.642 290.785 230.475 288.932 229.471L288.974 229.476Z" fill="#00AEEF"/>
<path d="M296.891 236.4C297.631 237.423 295.957 241.572 291.668 243.864C286.071 246.861 282.523 240.928 287.187 237.642C290.162 235.545 295.61 234.638 296.891 236.4Z" fill="#D9F1FD"/>
<path d="M290.398 244.224L291.31 243.698C290.809 243.423 290.412 243.092 290.143 242.723C289.875 242.355 289.74 241.957 289.747 241.554L289.62 241.54C290.085 241.221 290.517 240.887 290.915 240.539C291.218 240.489 291.511 240.418 291.787 240.328L291.477 240.029C292.797 238.743 293.769 237.351 294.359 235.903L293.102 235.762C292.488 237.216 291.478 238.607 290.109 239.885C288.57 239.962 287.051 239.697 285.864 239.143L285.155 239.727C286.335 240.249 287.758 240.56 289.253 240.623C288.112 241.526 286.681 242.296 285.04 242.889L285.66 243.505C286.708 243.135 287.677 242.694 288.544 242.19C288.828 242.934 289.471 243.612 290.4 244.146L290.398 244.224Z" fill="#00AEEF"/>
<path d="M310.655 236.359C310.656 236.287 310.631 236.215 310.582 236.148C310.517 236.087 310.427 236.035 310.321 235.997C310.231 235.946 310.125 235.905 310.008 235.876C309.892 235.85 309.767 235.839 309.642 235.844C307.612 235.877 305.633 235.526 304.006 234.845C304.096 234.406 304.092 233.963 303.995 233.527C303.857 232.962 303.565 232.414 303.129 231.905C304.382 230.898 306.191 230.167 308.249 229.835C308.37 229.81 308.485 229.776 308.591 229.734C308.697 229.693 308.787 229.641 308.858 229.58C308.927 229.518 308.969 229.447 308.981 229.373C309.004 229.299 308.996 229.223 308.959 229.152C308.925 229.082 308.865 229.017 308.784 228.961C308.72 228.899 308.63 228.848 308.523 228.81C308.414 228.774 308.292 228.751 308.166 228.744C308.041 228.736 307.913 228.743 307.791 228.766C305.54 229.13 303.531 229.892 302.048 230.943C301.408 230.485 300.575 230.13 299.626 229.91C298.678 229.691 297.644 229.614 296.62 229.686C296.298 229.717 295.981 229.764 295.672 229.825C293.941 227.879 291.236 226.286 287.901 225.249C285.3 224.522 283.013 224.791 281.8 225.978C280.683 227.061 280.687 228.762 281.784 230.309C280.144 230.645 278.719 231.268 277.71 232.09C276.7 232.912 276.158 233.892 276.16 234.89L272.61 236.316L276.666 237.079C277.068 237.864 277.791 238.578 278.776 239.161C279.111 239.353 279.475 239.527 279.865 239.681C281.129 240.175 282.613 240.454 284.151 240.487C283.95 241.214 284.017 241.954 284.348 242.659C284.679 243.364 285.267 244.017 286.072 244.576L286.173 244.634C287.911 245.578 290.204 245.432 292.396 244.254C295.133 242.674 297.009 240.669 297.785 238.495C298.106 238.502 298.429 238.492 298.748 238.464C299.629 238.377 300.47 238.176 301.206 237.878C301.942 237.579 302.556 237.189 303.002 236.738C303.255 236.493 303.471 236.235 303.645 235.968C305.469 236.626 307.598 236.957 309.768 236.92C309.895 236.918 310.02 236.902 310.136 236.871C310.252 236.841 310.357 236.798 310.444 236.744C310.535 236.691 310.608 236.629 310.657 236.56C310.706 236.491 310.732 236.418 310.732 236.344L310.655 236.359ZM294.039 236.024C293.513 237.098 292.799 238.14 291.907 239.134C291.122 239.39 290.237 239.522 289.343 239.516C288.45 239.51 287.58 239.366 286.824 239.099C287.101 238.706 287.475 238.336 287.933 238.002C288.673 237.453 289.597 236.994 290.646 236.654C291.696 236.314 292.85 236.1 294.039 236.024ZM291.456 235.208C289.89 235.55 288.463 236.082 287.273 236.767C286.385 236.365 285.816 235.772 285.693 235.119C285.605 234.802 285.627 234.476 285.758 234.162C285.89 233.847 286.127 233.549 286.458 233.286C287.925 233.736 289.55 233.997 291.221 234.049C291.231 234.436 291.319 234.82 291.482 235.193L291.456 235.208ZM289.849 230.218C291.132 231.026 292.272 231.907 293.252 232.848C292.078 232.986 290.873 232.985 289.71 232.845C288.547 232.705 287.45 232.428 286.488 232.032C285.886 231.795 285.347 231.51 284.885 231.186C285.497 230.79 286.281 230.497 287.153 230.337C288.025 230.176 288.951 230.156 289.831 230.277L289.849 230.218ZM290.693 227.784C293.449 229.376 295.049 231.382 294.92 231.933C294.889 232.079 294.803 232.219 294.666 232.343C294.532 232.468 294.349 232.574 294.132 232.651C293.271 231.822 292.284 231.04 291.185 230.313C290.028 229.547 288.723 228.861 287.295 228.266C286.951 227.65 287.011 226.979 287.464 226.377C288.657 226.759 289.747 227.238 290.701 227.799L290.693 227.784ZM283.477 226.519C284.118 225.895 285.184 225.786 286.676 226.151C286.279 226.694 286.117 227.282 286.204 227.864C285.223 227.523 284.173 227.25 283.076 227.052C283.154 226.874 283.275 226.703 283.434 226.543L283.477 226.519ZM282.965 227.515C285.205 227.98 287.236 228.719 288.922 229.682C288.091 229.68 287.265 229.776 286.495 229.966C285.725 230.156 285.029 230.435 284.449 230.785C283.322 229.826 282.79 228.669 282.94 227.5L282.965 227.515ZM281.032 238.706C280.23 238.362 279.565 237.924 279.08 237.42C278.595 236.916 278.3 236.356 278.214 235.777C277.786 233.931 279.039 231.923 282.696 231.243C282.855 231.394 283.039 231.541 283.224 231.687C282.497 232.221 281.964 232.834 281.66 233.487C281.355 234.14 281.286 234.819 281.455 235.483C281.692 236.567 282.538 237.568 283.865 238.335C284.182 238.518 284.523 238.685 284.887 238.836C284.773 238.998 284.677 239.161 284.589 239.329C283.312 239.327 282.073 239.108 281.023 238.701L281.032 238.706ZM286.509 242.941C285.854 241.845 285.869 240.645 286.552 239.539C287.261 239.767 288.046 239.908 288.859 239.954C289.673 240 290.497 239.95 291.282 239.806C290.08 241.039 288.441 242.114 286.475 242.961L286.509 242.941ZM287.499 243.791C287.28 243.666 287.083 243.529 286.91 243.381C287.868 242.99 288.748 242.538 289.531 242.033C289.712 242.604 290.129 243.138 290.747 243.59C289.476 244.197 288.376 244.267 287.499 243.791ZM291.392 243.247C290.685 242.749 290.318 242.118 290.359 241.468C291.465 240.647 292.406 239.758 293.164 238.817C293.896 237.93 294.488 237.008 294.933 236.063C295.177 236.098 295.404 236.165 295.594 236.26C295.784 236.354 295.933 236.473 296.03 236.607C296.529 237.292 295.229 241.022 291.392 243.247Z" fill="black"/>
<rect x="-9.51876e-08" y="1.59698" width="207.608" height="207.608" rx="9.04957" transform="matrix(0.866025 0.5 -0.866025 0.5 376.071 38.8893)" fill="white" stroke="#E0E5EB" stroke-width="3.19397"/>
<path opacity="0.8" d="M374.686 41.2842L374.686 245.698" stroke="#E0E5EB" stroke-width="1.06466"/>
<path opacity="0.8" d="M551.713 143.491L197.658 143.491" stroke="#E0E5EB" stroke-width="1.06466"/>
<circle r="80.9138" transform="matrix(0.866025 0.5 -0.866025 0.5 374.686 143.491)" fill="white"/>
<circle r="80.3815" transform="matrix(0.866025 0.5 -0.866025 0.5 374.686 143.491)" stroke="#E0E5EB" stroke-opacity="0.8" stroke-width="1.06466"/>
<circle r="63.8793" transform="matrix(0.866025 0.5 -0.866025 0.5 374.686 143.492)" fill="white" stroke="#E0E5EB" stroke-opacity="0.8" stroke-width="2.12931" stroke-linecap="round" stroke-dasharray="0.01 5.32"/>
<circle r="5.32328" transform="matrix(0.866025 0.5 -0.866025 0.5 374.687 214.823)" fill="white" stroke="#0073E5" stroke-width="3.19397" stroke-linejoin="round"/>
<circle r="5.32328" transform="matrix(0.866025 0.5 -0.866025 0.5 498.238 143.491)" fill="white" stroke="#0073E5" stroke-width="3.19397" stroke-linejoin="round"/>
<circle r="5.32328" transform="matrix(0.866025 0.5 -0.866025 0.5 374.687 72.1592)" fill="white" stroke="#0073E5" stroke-width="3.19397" stroke-linejoin="round"/>
<circle r="5.32328" transform="matrix(0.866025 0.5 -0.866025 0.5 251.137 143.491)" fill="white" stroke="#0073E5" stroke-width="3.19397" stroke-linejoin="round"/>
<path d="M393.198 140.424L379.89 132.74L361.397 135.7L356.36 146.29L369.697 153.99L388.038 151.082L393.198 140.424ZM371.128 151.116L361.334 145.461L364.973 137.729L378.459 135.578L388.254 141.233L384.529 149.02L371.128 151.116Z" fill="#141A1F"/>
<path d="M364.938 137.742L361.332 145.46L371.127 151.115L384.525 149.051L388.338 141.178L378.543 135.523L364.938 137.742Z" fill="#E83030"/>
<path d="M368.097 154.916L354.788 147.232L336.326 150.175L331.289 160.764L344.626 168.464L362.968 165.556L368.097 154.916ZM345.937 165.66L336.142 160.005L339.781 152.273L353.268 150.122L363.063 155.777L359.338 163.564L345.937 165.66Z" fill="#141A1F"/>
<path d="M339.867 152.216L336.143 160.003L345.937 165.658L359.455 163.525L363.148 155.721L353.354 150.066L339.867 152.216Z" fill="#6B91C7"/>
<path d="M418.39 125.88L405.081 118.196L386.588 121.157L381.582 131.764L394.919 139.464L413.26 136.556L418.39 125.88ZM396.32 136.572L386.525 130.917L390.164 123.185L403.738 120.984L413.533 126.639L409.808 134.426L396.32 136.572Z" fill="#141A1F"/>
<path d="M390.131 123.196L386.525 130.914L396.32 136.569L409.719 134.505L413.531 126.632L403.737 120.977L390.131 123.196Z" fill="#F9C31F"/>
<path d="M402.206 160.219L389.004 152.597L370.541 155.575L365.504 166.164L378.841 173.864L397.183 170.956L402.206 160.219ZM380.086 170.94L370.291 165.285L373.926 157.55L387.413 155.4L397.208 161.055L393.483 168.842L380.086 170.94Z" fill="#141A1F"/>
<path d="M373.881 157.553L370.316 165.328L380.084 170.967L393.599 168.937L397.324 161.014L387.557 155.374L373.881 157.553Z" fill="#795AA5"/>
<path d="M427.396 145.676L414.193 138.054L395.852 140.962L390.814 151.551L404.152 159.252L422.493 156.343L427.396 145.676ZM405.296 156.385L395.502 150.73L399.137 142.995L412.623 140.845L422.418 146.5L418.693 154.287L405.296 156.385Z" fill="#141A1F"/>
<path d="M399.113 142.984L395.355 150.781L405.201 156.465L418.717 154.435L422.442 146.512L412.595 140.827L399.113 142.984Z" fill="#F17423"/>
<path d="M358.795 135.156L345.572 127.521L327.11 130.499L322.073 141.089L335.41 148.789L353.751 145.881L358.795 135.156ZM336.694 145.866L327.017 140.279L330.652 132.545L344.139 130.394L353.933 136.049L350.209 143.836L336.694 145.866Z" fill="#141A1F"/>
<path d="M330.655 132.544L327.02 140.279L336.696 145.865L350.211 143.835L353.936 135.912L344.26 130.325L330.655 132.544Z" fill="#97C639"/>
<path d="M383.986 120.611L370.764 112.976L352.422 115.885L347.385 126.474L360.722 134.174L379.064 131.266L383.986 120.611ZM361.885 131.321L352.209 125.734L355.844 118L369.33 115.849L379.125 121.504L375.4 129.291L361.885 131.321Z" fill="#141A1F"/>
<path d="M355.846 117.999L352.211 125.734L361.887 131.32L375.403 129.29L379.128 121.367L369.451 115.78L355.846 117.999Z" fill="#C9DB70"/>
<path d="M239.15 117.939L202.731 138.966C198.402 141.465 198.402 145.517 202.731 148.016L239.15 169.043" stroke="#0073E5" stroke-width="3.19397" stroke-linecap="round" stroke-linejoin="round"/>
<path d="M418.943 221.743L382.524 242.77C378.195 245.269 371.178 245.269 366.849 242.77L330.43 221.743" stroke="#0073E5" stroke-width="3.19397" stroke-linecap="round" stroke-linejoin="round"/>
<path d="M510.225 169.043L546.644 148.016C550.973 145.517 550.973 141.465 546.644 138.966L510.225 117.94" stroke="#0073E5" stroke-width="3.19397" stroke-linecap="round" stroke-linejoin="round"/>
<path d="M330.432 65.2393L366.851 44.2123C371.18 41.7134 378.197 41.7133 382.526 44.2123L418.945 65.2393" stroke="#0073E5" stroke-width="3.19397" stroke-linecap="round" stroke-linejoin="round"/>
</g>
<path opacity="0.4" d="M198 313L198 148" stroke="#A7B1BE" stroke-linecap="round" stroke-linejoin="round" stroke-dasharray="0.01 6"/>
<path opacity="0.4" d="M375 416L375 249" stroke="#A7B1BE" stroke-linecap="round" stroke-linejoin="round" stroke-dasharray="0.01 6"/>
<path opacity="0.4" d="M551 312L551 149" stroke="#A7B1BE" stroke-linecap="round" stroke-linejoin="round" stroke-dasharray="0.01 6"/>
</g>
<defs>
<filter id="filter0_f_3751_8167" x="496.892" y="387.416" width="115.337" height="77.3789" filterUnits="userSpaceOnUse" color-interpolation-filters="sRGB">
<feFlood flood-opacity="0" result="BackgroundImageFix"/>
<feBlend mode="normal" in="SourceGraphic" in2="BackgroundImageFix" result="shape"/>
<feGaussianBlur stdDeviation="6.38793" result="effect1_foregroundBlur_3751_8167"/>
</filter>
<filter id="filter1_f_3751_8167" x="190.901" y="269.522" width="172.225" height="105.734" filterUnits="userSpaceOnUse" color-interpolation-filters="sRGB">
<feFlood flood-opacity="0" result="BackgroundImageFix"/>
<feBlend mode="normal" in="SourceGraphic" in2="BackgroundImageFix" result="shape"/>
<feGaussianBlur stdDeviation="3.72629" result="effect1_foregroundBlur_3751_8167"/>
</filter>
<filter id="filter2_f_3751_8167" x="386.368" y="269.523" width="172.225" height="105.734" filterUnits="userSpaceOnUse" color-interpolation-filters="sRGB">
<feFlood flood-opacity="0" result="BackgroundImageFix"/>
<feBlend mode="normal" in="SourceGraphic" in2="BackgroundImageFix" result="shape"/>
<feGaussianBlur stdDeviation="3.72629" result="effect1_foregroundBlur_3751_8167"/>
</filter>
<filter id="filter3_f_3751_8167" x="288.633" y="325.95" width="172.225" height="105.734" filterUnits="userSpaceOnUse" color-interpolation-filters="sRGB">
<feFlood flood-opacity="0" result="BackgroundImageFix"/>
<feBlend mode="normal" in="SourceGraphic" in2="BackgroundImageFix" result="shape"/>
<feGaussianBlur stdDeviation="3.72629" result="effect1_foregroundBlur_3751_8167"/>
</filter>
<filter id="filter4_f_3751_8167" x="144.236" y="387.253" width="114.22" height="76.7431" filterUnits="userSpaceOnUse" color-interpolation-filters="sRGB">
<feFlood flood-opacity="0" result="BackgroundImageFix"/>
<feBlend mode="normal" in="SourceGraphic" in2="BackgroundImageFix" result="shape"/>
<feGaussianBlur stdDeviation="6.38793" result="effect1_foregroundBlur_3751_8167"/>
</filter>
<clipPath id="clip0_3751_8167">
<rect width="761" height="555" fill="white"/>
</clipPath>
<clipPath id="clip1_3751_8167">
<rect width="1348.92" height="995.453" fill="white" transform="matrix(0.866025 0.5 -0.866025 0.5 145.102 -297.809)"/>
</clipPath>
</defs>
</svg>
