<svg xmlns="http://www.w3.org/2000/svg" width="486" height="486" viewBox="0 0 486 486" fill="none"><circle opacity=".3" cx="243" cy="243" r="185" stroke="#000" stroke-width="3" stroke-linecap="round" stroke-linejoin="round" stroke-dasharray="0.01 10"/><circle cx="75" cy="321" r="4" fill="#000"/><circle cx="415" cy="174" r="4" fill="#000"/><circle cx="414" cy="316" r="28" fill="#0073E6"/><g clip-path="url(#illustration_svg__a)" fill="#fff"><path d="M414.001 305.5c1.62.003 3.218.383 4.666 1.109a4.664 4.664 0 0 0-4.66-4.433 4.668 4.668 0 0 0-4.661 4.433 10.463 10.463 0 0 1 4.655-1.109Z"/><path d="M428 310.167V309h-2.333v1.167a2.335 2.335 0 0 1-2.334 2.333h-.687a9.32 9.32 0 0 0-13.861-4.239 9.316 9.316 0 0 0-3.431 4.239h-.687a2.334 2.334 0 0 1-2.334-2.333V309H400v1.167a4.666 4.666 0 0 0 4.667 4.666h.08a9.3 9.3 0 0 0-.08 1.167v1.167H400v2.333h4.667v1.167c.002.39.029.779.08 1.166h-.08A4.667 4.667 0 0 0 400 326.5v1.167h2.333V326.5a2.333 2.333 0 0 1 2.334-2.333h.687a9.322 9.322 0 0 0 13.861 4.239 9.322 9.322 0 0 0 3.431-4.239h.687a2.33 2.33 0 0 1 2.334 2.333v1.167H428V326.5a4.667 4.667 0 0 0-4.667-4.667h-.08c.051-.387.078-.776.08-1.166V319.5H428v-2.333h-4.667V316a9.3 9.3 0 0 0-.08-1.167h.08a4.666 4.666 0 0 0 4.667-4.666Z"/></g><circle cx="72" cy="171" r="28" fill="#0073E6"/><circle cx="70" cy="169" r="10" stroke="#fff" stroke-width="3" stroke-miterlimit="10" stroke-linecap="square"/><path d="m84 183-6-6" stroke="#fff" stroke-width="4" stroke-miterlimit="10" stroke-linecap="round" stroke-linejoin="round"/><circle cx="243" cy="243" r="125" stroke="#E0A66C" stroke-width="2"/><circle opacity=".15" cx="243" cy="243" r="112" stroke="#000" stroke-linecap="round" stroke-linejoin="round"/><path d="m300.1 196.23-56-17.067a3.799 3.799 0 0 0-2.2 0l-56 17.067a4 4 0 0 0-2.094 1.534 4.454 4.454 0 0 0-.806 2.57c0 83.11 58.068 106.197 58.656 106.414a3.71 3.71 0 0 0 2.688 0c11.189-4.961 21.257-12.411 29.532-21.853C287.164 270.222 303 243.632 303 200.334c0-.927-.282-1.83-.806-2.57a4 4 0 0 0-2.094-1.534Z" fill="url(#illustration_svg__b)"/><path d="M259 235h-32a6 6 0 0 0-6 6v18a6 6 0 0 0 6 6h32a6 6 0 0 0 6-6v-18a6 6 0 0 0-6-6Z" fill="#824C17"/><path d="M233 235v-10.182c0-5.422 4.396-9.818 9.818-9.818h.364c5.422 0 9.818 4.396 9.818 9.818V235" stroke="#824C17" stroke-width="6" stroke-miterlimit="10" stroke-linecap="square"/><circle opacity=".15" cx="243" cy="243" r="242" stroke="#000" stroke-linecap="round" stroke-linejoin="round"/><defs><linearGradient id="illustration_svg__b" x1="303" y1="179" x2="183.421" y2="307.392" gradientUnits="userSpaceOnUse"><stop stop-color="#E0A66C"/><stop offset=".283" stop-color="#E0A66C"/><stop offset=".499" stop-color="#F0CCA8"/><stop offset=".698" stop-color="#E0A66C"/><stop offset="1" stop-color="#E0A66C"/></linearGradient><clipPath id="illustration_svg__a"><path fill="#fff" transform="translate(400 302)" d="M0 0h28v28H0z"/></clipPath></defs></svg>