<svg width="30" height="8" viewBox="0 0 45 8" fill="none" xmlns="http://www.w3.org/2000/svg">
<g clip-path="url(#clip0_461_6226)">
<mask id="mask0_461_6226" style="mask-type:luminance" maskUnits="userSpaceOnUse" x="0" y="0" width="45" height="8">
<path d="M45 0H0V8H45V0Z" fill="white"/>
</mask>
<g mask="url(#mask0_461_6226)">
<path d="M7.70918 4.01096V7.99638H6.01985V3.98176C6.02661 2.88649 5.26186 1.95013 4.21958 1.77751C3.17729 1.60489 2.16967 2.24772 1.84757 3.29075L1.211 3.6168L1.74558 4.07666C1.80303 5.17155 2.17582 7.00367 5.26254 8.00002H3.84404C1.71522 7.99395 -0.00580025 6.19821 1.46923e-05 3.98906C0.00585916 1.77994 1.73633 -0.00601362 3.86514 1.52188e-05C5.99395 0.00607466 7.71499 1.80183 7.70918 4.01096Z" fill="#6C7993"/>
<path d="M3.4062 4.0025C3.40489 4.25937 3.20316 4.4665 2.95561 4.46515C2.70809 4.46379 2.50848 4.25445 2.50977 3.99758C2.51108 3.74071 2.71281 3.53355 2.96034 3.53492C3.07921 3.53558 3.19298 3.5852 3.27658 3.67287C3.3602 3.76057 3.40681 3.87913 3.4062 4.0025Z" fill="#6C7993"/>
<path d="M13.9834 8.00017V1.30249H15.2384V8.00017H13.9834Z" fill="#6C7993"/>
<path d="M25.2776 5.87072C25.295 6.62529 24.923 7.33042 24.3059 7.71303C23.6888 8.09567 22.9235 8.09567 22.3064 7.71303C21.6893 7.33042 21.3173 6.62529 21.3346 5.87072V3.90698H22.4507V5.84305C22.4498 6.10475 22.5326 6.35912 22.6859 6.56501C22.8448 6.75075 23.0685 6.86061 23.3055 6.86945C23.5404 6.86237 23.7618 6.75197 23.916 6.56501C24.0759 6.36239 24.1625 6.10658 24.1602 5.84305V3.90698H25.2776V5.87072Z" fill="#6C7993"/>
<path d="M29.6158 7.38904C28.8189 8.21438 27.5458 8.20222 26.7629 7.36177C25.9801 6.52132 25.9801 5.16666 26.7629 4.32622C27.5458 3.48577 28.8189 3.47361 29.6158 4.29895V1.30249H30.658V7.86956H29.6158V7.38904ZM27.6473 6.62638C27.8278 6.82993 28.079 6.94575 28.342 6.94673C28.6095 6.94732 28.8655 6.83161 29.0507 6.62638C29.2366 6.41398 29.3397 6.13429 29.339 5.84401C29.3374 5.55506 29.2341 5.27723 29.0496 5.0653C28.8644 4.86008 28.6084 4.74436 28.3409 4.74497C28.0779 4.74594 27.8266 4.86175 27.646 5.0653C27.4601 5.27749 27.3558 5.55633 27.3543 5.84645C27.3538 6.13572 27.4565 6.41441 27.6414 6.62638H27.6473Z" fill="#6C7993"/>
<path d="M35.6772 5.95348C35.6772 4.82162 34.7602 3.90698 33.6115 3.90698C32.4628 3.90698 31.5537 4.82162 31.5537 5.95348C31.5537 7.08531 32.4707 7.99999 33.6115 7.99999C34.0179 8.00183 34.4165 7.88331 34.7602 7.6583V7.89312H35.6772V5.95348ZM34.3114 6.70726C34.1305 6.90282 33.8806 7.0131 33.6194 7.01254C33.3621 7.01399 33.116 6.90324 32.941 6.70726C32.7484 6.50806 32.6421 6.23583 32.6471 5.95348C32.6418 5.67385 32.7484 5.40444 32.941 5.20908C33.1127 5.00701 33.36 4.89218 33.6194 4.89442C33.8826 4.89298 34.1339 5.00731 34.3114 5.20908C34.4914 5.40792 34.5902 5.67129 34.5873 5.94409C34.5906 6.22538 34.4923 6.49776 34.3114 6.70726Z" fill="#6C7993"/>
<path d="M20.4379 5.95348C20.4379 4.82162 19.5219 3.90698 18.3717 3.90698C17.2215 3.90698 16.3145 4.82162 16.3145 5.95348C16.3145 7.08531 17.2305 7.99997 18.3717 7.99997C18.7786 8.00197 19.1776 7.88345 19.5219 7.65828V7.8931H20.4379V5.95348ZM19.0729 6.70724C18.8919 6.9027 18.6419 7.01296 18.3807 7.01254C18.1232 7.01428 17.877 6.90348 17.7021 6.70724C17.5093 6.50804 17.4031 6.23583 17.4081 5.95348C17.403 5.67383 17.5094 5.40444 17.7021 5.20908C17.8735 5.00675 18.1212 4.89188 18.3807 4.89442C18.6439 4.89329 18.8952 5.00755 19.0729 5.20908C19.2536 5.40755 19.3533 5.67096 19.3511 5.94407C19.3539 6.22569 19.2546 6.49811 19.0729 6.70724Z" fill="#6C7993"/>
<path d="M13.2671 5.95348C13.2671 4.82162 12.351 3.90698 11.2019 3.90698C10.0528 3.90698 9.14355 4.82162 9.14355 5.95348C9.14355 7.08531 10.0608 7.99999 11.2019 7.99999C11.6084 8.00183 12.007 7.88331 12.351 7.6583V7.89312H13.2671V5.95348ZM11.902 6.70726C11.7219 6.90195 11.4732 7.01216 11.2132 7.01256C10.9558 7.0143 10.7095 6.9035 10.5346 6.70726C10.3418 6.50806 10.2356 6.23583 10.2406 5.95348C10.2354 5.67385 10.3419 5.40444 10.5346 5.20908C10.706 5.00675 10.9537 4.89188 11.2132 4.89442C11.4764 4.89298 11.7279 5.00731 11.9054 5.20908C12.0853 5.40792 12.1842 5.67129 12.1813 5.94409C12.1838 6.22585 12.0841 6.49828 11.902 6.70726Z" fill="#6C7993"/>
<path d="M44.9454 5.54014C44.9454 5.53075 44.9454 5.52134 44.9386 5.51077C44.6948 4.5647 43.8719 3.90698 42.9319 3.90698C41.9919 3.90698 41.169 4.5647 40.9254 5.51077C40.9254 5.52134 40.9198 5.53075 40.9187 5.54014C40.9175 5.54952 40.9187 5.56362 40.913 5.57421C40.7588 6.39223 41.1084 7.22399 41.7899 7.66051C41.8652 7.70957 41.943 7.7539 42.0233 7.79326L42.0651 7.81322L42.1778 7.86021L42.2151 7.87312C42.2888 7.89988 42.3641 7.92223 42.4405 7.94009L42.4844 7.95183L42.5859 7.97063L42.6705 7.98355L42.7585 7.99296C42.8091 7.99296 42.8586 7.99999 42.9106 7.99999H42.9387H42.9669C43.0187 7.99999 43.0683 7.99999 43.1191 7.99296L43.2071 7.98355L43.2914 7.97063L43.3918 7.95183L43.4371 7.94009C43.5133 7.92223 43.5886 7.89988 43.6625 7.87312L43.6996 7.86021L43.8124 7.81322L43.8541 7.79326C43.9343 7.7539 44.0123 7.70957 44.0874 7.66051C44.769 7.22399 45.1186 6.39223 44.9644 5.57421C44.9488 5.56362 44.9476 5.55423 44.9454 5.54014ZM43.6252 6.70781C43.4454 6.90352 43.1965 7.0139 42.9364 7.01324H42.9274C42.6673 7.0139 42.4186 6.90352 42.2386 6.70781C42.0577 6.49863 41.9591 6.22592 41.9625 5.94423C41.9591 5.67098 42.0581 5.40715 42.2386 5.20887C42.4152 5.00705 42.6655 4.89265 42.9274 4.89402H42.9364C43.1985 4.89265 43.4488 5.00705 43.6252 5.20887C43.8057 5.40715 43.9047 5.67098 43.9013 5.94423C43.9049 6.22592 43.8063 6.49863 43.6252 6.70781Z" fill="#6C7993"/>
<path d="M38.9043 7.99999V3.90698H40.1593V7.99999H38.9043Z" fill="#6C7993"/>
<path d="M40.1593 2.6987C40.1586 3.05818 39.8773 3.34915 39.5311 3.34872C39.1847 3.3483 38.9041 3.05665 38.9043 2.69717C38.9045 2.33769 39.1854 2.04639 39.5318 2.04639C39.6985 2.04608 39.8583 2.11475 39.9762 2.23718C40.094 2.35962 40.1598 2.52571 40.1593 2.6987Z" fill="#6C7993"/>
<path d="M38.008 7.34984C38.0073 7.70932 37.7262 8.00026 37.3798 7.99984C37.0333 7.99942 36.7527 7.70777 36.7529 7.34831C36.7532 6.98883 37.034 6.69751 37.3804 6.69751C37.5471 6.6972 37.7072 6.76589 37.825 6.88831C37.9426 7.01073 38.0086 7.17685 38.008 7.34984Z" fill="#6C7993"/>
</g>
</g>
<defs>
<clipPath id="clip0_461_6226">
<rect width="45" height="8" fill="white"/>
</clipPath>
</defs>
</svg>
