<svg width="212" height="64" viewBox="0 0 212 64" fill="none" xmlns="http://www.w3.org/2000/svg">
<g clip-path="url(#clip0_2690_8018)">
<path d="M15.3036 39.482L6.80307 37.6582C6.41879 37.5718 6.0741 37.3635 5.82214 37.0655C5.57018 36.7676 5.42495 36.3964 5.40884 36.0093V27.0101C5.42533 26.6228 5.57064 26.2514 5.82247 25.953C6.07431 25.6546 6.41878 25.4456 6.80307 25.358L15.3036 23.5439L16.2166 20H6.30866C4.6432 19.9991 3.04502 20.6458 1.86305 21.799C0.681076 22.9522 0.0113176 24.5181 0 26.1549L0 36.8289C0.00697645 38.4685 0.674821 40.0386 1.85726 41.1952C3.03971 42.3519 4.64036 43.0009 6.30866 43H16.2166L15.3036 39.482ZM22.5385 39.482L31.0423 37.6582C31.426 37.5711 31.7699 37.3626 32.0213 37.0647C32.2726 36.7668 32.4173 36.396 32.4333 36.0093V27.0101C32.417 26.6232 32.2721 26.2522 32.0209 25.9538C31.7697 25.6555 31.426 25.4462 31.0423 25.358L22.5385 23.5439L21.6288 20H31.5334C33.1989 19.9991 34.7971 20.6458 35.979 21.799C37.161 22.9522 37.8308 24.5181 37.8421 26.1549V36.8289C37.8351 38.4685 37.1673 40.0386 35.9848 41.1952C34.8024 42.3519 33.2017 43.0009 31.5334 43H21.6452L22.5385 39.482Z" fill="currentColor"/>
<path d="M15.2988 31.0697H22.5337V31.9573H15.2988V31.0697ZM177.66 42.5146H175.415C174.062 42.5129 172.766 41.984 171.809 41.044C170.853 40.1039 170.314 38.8294 170.313 37.5V31.0211C170.311 30.3615 170.442 29.708 170.697 29.0981C170.953 28.4882 171.328 27.9339 171.802 27.4668C172.276 26.9998 172.839 26.6293 173.459 26.3765C174.079 26.1236 174.744 25.9935 175.415 25.9935H177.66C179.013 25.9935 180.31 26.5213 181.267 27.4609C182.225 28.4006 182.763 29.6752 182.765 31.0049V37.4838C182.766 38.1436 182.635 38.7971 182.379 39.407C182.122 40.0169 181.747 40.5713 181.273 41.0385C180.798 41.5056 180.235 41.8764 179.615 42.1297C178.996 42.383 178.331 42.5138 177.66 42.5146ZM175.415 28.8766C174.838 28.8775 174.285 29.103 173.878 29.5038C173.47 29.9045 173.24 30.4479 173.24 31.0146V37.4935C173.24 38.06 173.47 38.603 173.878 39.0032C174.286 39.4035 174.839 39.6283 175.415 39.6283H177.66C177.945 39.6287 178.228 39.5738 178.492 39.4668C178.756 39.3597 178.996 39.2026 179.199 39.0044C179.401 38.8061 179.562 38.5707 179.671 38.3114C179.781 38.0522 179.838 37.7743 179.838 37.4935V31.0146C179.837 30.4473 179.607 29.9035 179.199 29.5026C178.79 29.1018 178.237 28.8766 177.66 28.8766H175.415ZM65.3561 20.5351H68.2797V42.1356H65.3561V20.5351ZM71.7076 26.3693H74.6345V42.1356H71.7076V26.3693ZM73.1711 20.5351C72.7793 20.5319 72.3953 20.6431 72.0679 20.8547C71.7405 21.0663 71.4845 21.3688 71.3323 21.7236C71.1801 22.0785 71.1386 22.4698 71.213 22.8479C71.2874 23.226 71.4745 23.5738 71.7504 23.8473C72.0263 24.1207 72.3786 24.3074 72.7627 24.3838C73.1468 24.4601 73.5452 24.4226 73.9076 24.2759C74.2699 24.1293 74.5797 23.8802 74.7978 23.5602C75.0158 23.2403 75.1322 22.8638 75.1323 22.4787C75.1323 21.966 74.9262 21.4741 74.5589 21.11C74.1915 20.746 73.6927 20.5393 73.1711 20.5351ZM54.8615 20.5351H51.2984C49.9503 22.8804 46.7301 29.3107 43.4274 42.1356H46.473C46.9905 40.192 47.4948 38.3811 47.9991 36.7322H58.6816C59.1782 38.3779 59.6858 40.179 60.2044 42.1356H63.25C59.9539 29.3107 56.7303 22.8804 55.3789 20.5351H54.8615ZM48.9286 33.8167C50.055 30.2687 51.4385 26.8044 53.0684 23.4506H53.632C55.2685 26.802 56.6533 30.2666 57.7752 33.8167H48.9286ZM164.683 20.5156H167.603V42.1389H164.683V20.5156ZM78.0625 20.5351H80.9861V42.1356H78.0625V20.5351Z" fill="currentColor"/>
<path d="M84.7713 42.5137C82.9363 42.4794 81.1105 42.2491 79.3262 41.8269L80.0118 39.0313C84.5702 40.1133 86.6731 39.5204 87.2631 39.0702C87.8531 38.6199 87.8926 37.8554 87.8926 36.9775V32.0859H90.8162V36.9678C90.8162 37.9396 90.8162 39.9675 89.0759 41.3216C88.0541 42.1152 86.6302 42.5104 84.791 42.5104" fill="currentColor"/>
<path d="M90.8047 36.1727H87.8811V31.2844C87.8811 30.4551 87.8416 29.7878 87.334 29.3958C86.8791 29.0427 85.3003 28.3495 80.4551 29.4995L79.7695 26.7038C84.3115 25.6251 87.3768 25.7676 89.1468 27.1379C90.8113 28.4337 90.7949 30.3774 90.7949 31.2909L90.8047 36.1727ZM161.179 38.68C159.126 39.4769 155.144 40.073 151.769 39.2534C149.903 38.7967 149.765 37.3713 149.761 37.1089V25.9167C149.761 25.6543 149.903 24.2289 151.769 23.7754C155.193 22.9461 159.228 23.5681 161.258 24.3812L161.977 21.5758C159.844 20.8535 157.601 20.4953 155.345 20.5165C153.903 20.5045 152.464 20.6622 151.06 20.9862C147.701 21.7993 146.825 24.5723 146.828 25.9231V37.1024C146.828 38.4565 147.701 41.2262 151.06 42.0426C152.464 42.3666 153.903 42.5243 155.345 42.5123C157.573 42.5304 159.789 42.1833 161.901 41.4854L161.179 38.68ZM194.486 26.3702H197.413V42.1365H194.486V26.3702Z" fill="currentColor"/>
<path d="M191.239 42.5167C189.383 42.5167 187.963 42.1215 186.954 41.3278C185.2 39.9737 185.207 37.9458 185.207 36.974V26.3519H188.134V36.9772C188.134 37.8519 188.177 38.6164 188.763 39.0699C189.35 39.5234 191.001 40.113 195.557 39.031L196.246 41.8234C194.61 42.2466 192.93 42.4793 191.239 42.5167ZM209.077 20.5371H212.001V42.1377H209.077V20.5371Z" fill="currentColor"/>
<path d="M205.876 42.5137C204.02 42.5137 202.6 42.1185 201.591 41.328C199.841 39.9707 199.848 37.9428 199.848 36.971V32.0859H202.775V36.9742C202.775 37.8489 202.817 38.6134 203.401 39.0669C203.984 39.5204 205.642 40.11 210.197 39.028L210.883 41.8237C209.247 42.2446 207.567 42.4762 205.876 42.5137Z" fill="currentColor"/>
<path d="M202.771 36.1736H199.844V31.2918C199.844 30.3653 199.844 28.4346 201.492 27.1388C203.262 25.7685 206.33 25.6292 210.869 26.7047L210.183 29.5004C205.338 28.3536 203.759 29.0469 203.305 29.4C202.797 29.7952 202.757 30.4592 202.761 31.2853L202.771 36.1736ZM103.78 27.0287C100.886 24.9943 95.4804 26.5071 94.1719 26.9218L94.8904 29.7142C96.5912 29.144 100.576 28.3115 102.076 29.3676C102.346 29.5587 102.663 29.8891 102.663 30.767V42.1374H105.586V30.767C105.586 28.7261 104.597 27.6085 103.78 27.0287Z" fill="currentColor"/>
<path d="M98.4698 42.5164C95.5034 42.5164 93.4993 41.1461 92.9852 38.7619C92.8218 38.1268 92.794 37.4654 92.9035 36.8192C93.013 36.1731 93.2574 35.5562 93.6213 35.0074C94.4222 33.8477 95.7868 33.1059 97.6656 32.7981C99.9102 32.4192 102.214 32.5611 104.393 33.2128L103.427 35.9242C101.713 35.4421 99.9111 35.3436 98.1534 35.6359C97.425 35.7525 96.4691 36.0214 96.0439 36.6304C95.7787 37.0982 95.7113 37.6496 95.856 38.1659C95.945 38.5708 96.1856 39.6366 98.4929 39.6366C100.078 39.6366 102.567 39.3418 103.374 39.0729L104.317 41.7908C103.084 42.1925 100.25 42.5164 98.4698 42.5164ZM134.733 27.0287C131.846 24.9943 126.437 26.5071 125.128 26.9218L125.847 29.7142C127.548 29.144 131.533 28.3115 133.032 29.3676C133.303 29.5587 133.616 29.8891 133.616 30.767V42.1374H136.543V30.767C136.543 28.7261 135.554 27.6085 134.733 27.0287Z" fill="currentColor"/>
<path d="M129.427 42.5167C126.46 42.5167 124.46 41.1464 123.945 38.7622C123.782 38.1273 123.753 37.466 123.862 36.8198C123.971 36.1737 124.215 35.5567 124.578 35.0077C125.382 33.848 126.747 33.1061 128.626 32.7984C130.87 32.4197 133.174 32.5616 135.353 33.213L134.384 35.9244C132.67 35.442 130.868 35.3435 129.11 35.6361C128.382 35.7527 127.423 36.0216 127.001 36.6306C126.734 37.0979 126.666 37.65 126.813 38.1661C126.899 38.571 127.143 39.6368 129.433 39.6368C131.022 39.6368 133.511 39.342 134.315 39.0732L135.257 41.791C134.044 42.1927 131.207 42.5167 129.427 42.5167ZM109.027 20.5371H111.951V42.1377H109.027V20.5371Z" fill="currentColor"/>
<path d="M115.72 42.5137C113.886 42.4789 112.06 42.2487 110.275 41.8269L110.964 39.0313C115.523 40.1133 117.626 39.5204 118.216 39.0702C118.806 38.6199 118.848 37.8554 118.848 36.9775V32.0859H121.775V36.9678C121.775 37.9396 121.775 39.9675 120.032 41.3216C119.01 42.1152 117.589 42.5104 115.747 42.5104" fill="currentColor"/>
<path d="M121.763 36.1742H118.836V31.2858C118.836 30.4565 118.797 29.7892 118.289 29.3972C117.834 29.0442 116.255 28.3509 111.41 29.5009L110.725 26.7053C115.267 25.6265 118.332 25.7691 120.099 27.1394C121.766 28.4351 121.747 30.3788 121.747 31.2923L121.763 36.1742Z" fill="currentColor"/>
</g>
<defs>
<clipPath id="clip0_2690_8018">
<rect width="212" height="64" fill="white"/>
</clipPath>
</defs>
</svg>
