<svg width="170" height="64" viewBox="0 0 170 64" fill="none" xmlns="http://www.w3.org/2000/svg">
<path d="M54.1957 33.8948H59.19L56.6811 26.632L54.1957 33.8948ZM61.1423 39.8636L59.8258 35.9145H53.5375L52.2663 39.8636H49.4961L55.2503 24.1357H58.2469L63.912 39.8636H61.1423Z" fill="#6C7993"/>
<path d="M79.8978 39.863V32.0336C79.8978 31.3376 79.7611 30.838 79.4888 30.5348C79.2165 30.2327 78.7699 30.0816 78.1493 30.0816C77.6797 30.0816 77.18 30.1605 76.6508 30.3192C76.1205 30.4783 75.6596 30.679 75.2659 30.9206V39.863H72.5876V32.0336C72.5876 31.3376 72.4509 30.838 72.1786 30.5348C71.9063 30.2327 71.4597 30.0816 70.8386 30.0816C70.4001 30.0816 69.9272 30.1531 69.4198 30.2972C68.913 30.4402 68.4243 30.6491 67.9557 30.9206V39.863H65.2773V28.3112H67.5014L67.7513 29.4684C68.5079 28.9539 69.223 28.576 69.8966 28.3336C70.5696 28.0918 71.2475 27.9707 71.9293 27.9707C73.336 27.9707 74.3048 28.4921 74.8346 29.536C76.3484 28.4921 77.8011 27.9707 79.1936 27.9707C80.2679 27.9707 81.1005 28.2617 81.6905 28.8439C82.2809 29.4267 82.5756 30.2705 82.5756 31.3749V39.863H79.8978Z" fill="#6C7993"/>
<path d="M88.9846 38.2966C89.4127 38.2966 89.8632 38.2031 90.335 38.0133C90.8063 37.8237 91.2639 37.5557 91.7067 37.2077V35.0289C90.9249 34.8628 90.2311 34.7792 89.6265 34.7792C88.0918 34.7792 87.3253 35.3919 87.3253 36.6174C87.3253 37.1473 87.4724 37.5593 87.7682 37.854C88.0629 38.1499 88.4685 38.2966 88.9846 38.2966ZM92.0474 39.863L91.8429 38.7513C91.3126 39.2044 90.727 39.5609 90.0841 39.8178C89.44 40.075 88.8009 40.2035 88.1651 40.2035C87.1055 40.2035 86.2466 39.8861 85.5884 39.2503C84.9301 38.614 84.6016 37.7902 84.6016 36.7765C84.6016 35.6571 85.0056 34.7646 85.8153 34.0981C86.6255 33.4324 87.7108 33.0994 89.0732 33.0994C89.8752 33.0994 90.7533 33.2132 91.7067 33.4399V32.1015C91.7067 31.329 91.5405 30.7931 91.207 30.49C90.8746 30.1872 90.2913 30.0359 89.4592 30.0359C88.2783 30.0359 86.924 30.2854 85.3959 30.7846V28.9009C85.9656 28.6133 86.6627 28.3864 87.4872 28.2205C88.3116 28.0546 89.1393 27.9707 89.9715 27.9707C91.4815 27.9707 92.5941 28.2739 93.3108 28.8785C94.027 29.4837 94.3857 30.4298 94.3857 31.7154V39.863H92.0474Z" fill="#6C7993"/>
<path d="M96.1055 39.8624V37.8875L102.553 30.3526H96.3335V28.3105H105.436V30.2848L98.9894 37.8198H105.505V39.8624H96.1055Z" fill="#6C7993"/>
<path d="M112.218 38.0927C114.125 38.0927 115.078 36.7534 115.078 34.075C115.078 31.4127 114.125 30.0816 112.218 30.0816C110.311 30.0816 109.357 31.4127 109.357 34.075C109.357 36.7534 110.311 38.0927 112.218 38.0927ZM112.218 40.2035C110.462 40.2035 109.092 39.663 108.108 38.5805C107.124 37.4987 106.633 35.9978 106.633 34.075C106.633 32.1547 107.124 30.6559 108.108 29.582C109.092 28.5076 110.462 27.9707 112.218 27.9707C113.974 27.9707 115.343 28.5076 116.327 29.582C117.31 30.6559 117.802 32.1547 117.802 34.075C117.802 35.9978 117.31 37.4987 116.327 38.5805C115.343 39.663 113.974 40.2035 112.218 40.2035Z" fill="#6C7993"/>
<path d="M127.693 39.863V32.2144C127.693 31.4732 127.543 30.9323 127.239 30.5918C126.937 30.2513 126.453 30.0816 125.787 30.0816C124.788 30.0816 123.766 30.4138 122.722 31.0797V39.863H120.043V28.3112H122.268L122.54 29.582C123.963 28.5076 125.446 27.9707 126.99 27.9707C128.095 27.9707 128.935 28.2617 129.509 28.8439C130.085 29.4267 130.372 30.2705 130.372 31.3749V39.863H127.693Z" fill="#6C7993"/>
<path d="M135.742 39.8636V24.1357H145.028V25.3384H137.082V31.1257H143.892V32.3287H137.082V38.6607H145.028V39.8636H135.742Z" fill="#6C7993"/>
<path d="M147.699 39.8636V24.1357H149.039V31.421L156.259 24.1357H157.985L150.356 31.8061L158.62 39.8636H156.78L149.039 32.3287V39.8636H147.699Z" fill="#6C7993"/>
<path d="M162.965 31.9192C161.8 31.466 160.944 30.9248 160.399 30.2971C159.854 29.669 159.582 28.8933 159.582 27.9706C159.582 26.7145 160.032 25.6974 160.932 24.9179C161.833 24.1387 163.017 23.749 164.486 23.749C165.151 23.749 165.851 23.8281 166.586 23.9873C167.319 24.1457 168.012 24.3699 168.663 24.6571V25.8142C167.119 25.2698 165.749 24.9969 164.554 24.9969C163.388 24.9969 162.496 25.2512 161.874 25.7581C161.253 26.2647 160.944 26.9874 160.944 27.9247C160.944 28.4546 161.039 28.8822 161.228 29.2072C161.417 29.5334 161.728 29.828 162.159 30.0921C162.59 30.3575 163.206 30.6414 164.009 30.9435L166.438 31.8744C167.528 32.2976 168.322 32.8153 168.822 33.4287C169.321 34.0414 169.571 34.8094 169.571 35.7323C169.571 37.0789 169.075 38.1688 168.084 39.0003C167.093 39.8326 165.787 40.2482 164.168 40.2482C162.488 40.2482 160.989 39.9308 159.673 39.2956V38.1378C161.262 38.7132 162.722 39.0003 164.054 39.0003C165.31 39.0003 166.313 38.7053 167.062 38.1156C167.812 37.5251 168.186 36.7234 168.186 35.7093C168.186 35.0897 167.982 34.5596 167.573 34.1208C167.165 33.6821 166.506 33.2892 165.598 32.9402L162.965 31.9192Z" fill="#6C7993"/>
<path d="M15.5 25.102H17.3212V30.4301L22.5655 25.102H24.9697L19.2154 30.9724L25.3336 37.7461H23.0029L17.3212 31.4242V37.7461H15.5V25.102Z" fill="#6C7993"/>
<path d="M21.2009 20.0846L30.1701 25.221C30.323 25.3089 30.4172 25.4709 30.4172 25.6459V35.9188C30.4172 36.0939 30.5122 36.256 30.665 36.3437L38.669 40.9276C38.9989 41.1167 39.4111 40.8802 39.4111 40.5027V20.495C39.4111 20.3198 39.3169 20.158 39.1639 20.0701L21.6959 10.0665C21.366 9.87773 20.9531 10.1139 20.9531 10.4915V19.6598C20.9531 19.8347 21.0476 19.9968 21.2009 20.0846Z" fill="#6C7993"/>
<path d="M28.9257 38.4957L19.9565 43.6321C19.8036 43.72 19.6147 43.72 19.4618 43.6321L9.24105 37.779C9.08817 37.6911 8.99326 37.529 8.99326 37.3541V25.6476C8.99326 25.4724 9.08817 25.3106 9.24105 25.2227L18.2102 20.0861C18.3635 19.9985 18.4578 19.8364 18.4578 19.6615V10.4936C18.4578 10.116 18.0452 9.87985 17.7153 10.0687L0.247199 20.0722C0.094268 20.1601 0 20.322 0 20.4971V42.5046C0 42.6795 0.094268 42.8416 0.247199 42.9295L19.4618 53.9331C19.6147 54.021 19.8036 54.021 19.9565 53.9331L37.4246 43.9298C37.7545 43.7408 37.7545 43.2686 37.4246 43.0797L29.4206 38.4957C29.2671 38.4079 29.0786 38.4079 28.9257 38.4957Z" fill="#6C7993"/>
</svg>
