<svg width="108" height="64" viewBox="0 0 108 64" fill="none" xmlns="http://www.w3.org/2000/svg">
<path d="M85.8732 49.6765H85.6163L85.4667 49.8853L80.0512 57.4437V50.1765V49.6765H79.5512H7.99999C3.85786 49.6765 0.5 46.3186 0.5 42.1765V17C0.5 12.8579 3.85786 9.5 8 9.5H100C104.142 9.5 107.5 12.8579 107.5 17V42.1765C107.5 46.3186 104.142 49.6765 100 49.6765H85.8732Z" stroke="currentColor"/>
<path fill-rule="evenodd" clip-rule="evenodd" d="M11.2078 28.438L14.3673 20.5489L17.5214 28.438H11.2078ZM12.9249 15.797L5.00773 35.1628H8.60044L10.1485 31.3004H18.5755L20.1341 35.1628H23.7004L15.8043 15.797H12.9249ZM32.7323 25.2441H29.0604V18.9371H32.7323C34.0928 18.9371 35.6963 19.9128 35.6963 22.1067C35.6963 24.263 34.0928 25.2603 32.7323 25.2603V25.2441ZM32.8908 15.8267H25.6579V35.2059H29.0577V28.3841H32.8934C36.0371 28.3841 39.0486 25.802 39.0486 22.1041C39.0486 18.1905 35.8786 15.797 32.867 15.797L32.8908 15.8267ZM44.5962 18.9398H48.2681C49.6154 18.9398 51.2268 19.9101 51.2268 22.1067C51.2268 24.263 49.6154 25.2603 48.2681 25.2603H44.5962V18.9505V18.9398ZM44.5962 28.3841H48.4266C51.5702 28.3841 54.5818 25.802 54.5818 22.1041C54.5818 18.1905 51.4117 15.797 48.4002 15.797H41.162V35.1628H44.5697V28.3841H44.5962ZM71.9641 15.797H68.5827V27.3869C68.5827 30.8288 66.8656 32.33 64.3032 32.33C61.7143 32.33 59.9972 30.8288 59.9972 27.3842V15.7943H56.6159V27.7345C56.6159 32.8826 59.9972 35.4431 64.3032 35.4431C68.5563 35.4431 71.9641 32.8826 71.9641 27.7076V15.797ZM74.9756 35.1628H78.254V21.1607H75.0047L74.9756 35.1628ZM76.6373 15.5814C75.5806 15.5814 74.6824 16.4385 74.6824 17.549C74.6824 18.6621 75.5806 19.5219 76.6373 19.5219C77.6675 19.5219 78.5657 18.6594 78.5657 17.549C78.5657 16.4385 77.6675 15.5814 76.6373 15.5814ZM90.5775 18.6055C94.3551 18.6055 97.2425 21.662 97.2425 25.5244C97.2425 29.4056 94.363 32.3974 90.5854 32.3974C86.8078 32.3974 83.9178 29.4056 83.9178 25.4974C83.9178 21.5892 86.7972 18.5705 90.5828 18.5705L90.5775 18.6055ZM90.5828 35.497C96.1567 35.497 100.621 31.1576 100.621 25.4705C100.621 19.7564 96.1567 15.417 90.5828 15.417C85.0352 15.417 80.5707 19.7834 80.5707 25.4705C80.5707 31.1576 85.0352 35.497 90.5828 35.497ZM5.29832 41.6962C5.50437 42.1005 5.88742 42.397 6.43425 42.397C7.06297 42.397 7.20034 42.0197 7.20034 41.8041C7.20034 41.3728 6.8305 41.2111 6.27575 40.9955C5.55192 40.699 4.98132 40.4025 4.98132 39.5939C4.98132 38.8392 5.61532 38.3541 6.38142 38.3541C7.06826 38.3541 7.50942 38.6775 7.77623 39.0818L7.19506 39.4861C7.03655 39.2166 6.7988 39.0818 6.40255 39.0818C6.05913 39.0818 5.79496 39.2705 5.79496 39.5669C5.79496 39.9793 6.1648 40.0521 6.82522 40.3297C7.64414 40.672 8.0404 41.0305 8.0404 41.7313C8.0404 42.5129 7.53848 43.1059 6.45538 43.1059C5.61004 43.1059 5.00245 42.6881 4.73828 42.0547L5.34587 41.6612L5.29832 41.6962ZM8.32834 38.4619H9.12085L10.0375 41.5615L10.9727 38.4619H11.5803L12.5313 41.5615L13.4559 38.4619H14.2484L12.9011 43.0708H12.2407L11.287 39.9739L10.336 43.0735H9.70202L8.32834 38.4619ZM14.9062 43.0735H15.7198V38.4646H14.9009L14.9062 43.0735ZM17.0406 41.7151C17.252 42.1329 17.6218 42.4159 18.1766 42.4159C18.8106 42.4159 18.9427 42.0385 18.9427 41.8148C18.9427 41.3944 18.5728 41.2353 18.0181 41.0224C17.289 40.7259 16.7236 40.4294 16.7236 39.6209C16.7236 38.8662 17.3577 38.381 18.1237 38.381C18.8106 38.381 19.2491 38.7044 19.5238 39.1087L18.9427 39.513C18.7842 39.2435 18.52 39.0818 18.137 39.0818C17.7671 39.0818 17.5135 39.2759 17.5135 39.5669C17.5135 39.9982 17.8833 40.0629 18.5438 40.3486C19.3627 40.6801 19.7457 41.0494 19.7457 41.7501C19.7457 42.5318 19.2174 43.1113 18.1607 43.1113C17.2969 43.1113 16.6999 42.707 16.4172 42.0601L17.0248 41.6747L17.0406 41.7151ZM20.8711 41.7151C21.0824 42.1329 21.4523 42.4159 22.007 42.4159C22.641 42.4159 22.7731 42.0385 22.7731 41.8148C22.7731 41.3944 22.4033 41.2353 21.8485 41.0224C21.1168 40.7259 20.5541 40.4294 20.5541 39.6209C20.5541 38.8662 21.1881 38.381 21.9542 38.381C22.641 38.381 23.0769 38.7044 23.3543 39.1087L22.7731 39.513C22.6146 39.2435 22.3505 39.0818 21.9621 39.0818C21.6187 39.0818 21.3545 39.2759 21.3545 39.5669C21.3545 39.9982 21.7244 40.0629 22.3848 40.3486C23.2037 40.6801 23.6 41.0494 23.6 41.7501C23.6 42.5318 23.0716 43.1113 22.015 43.1113C21.1432 43.1113 20.562 42.707 20.2714 42.0601L20.879 41.6747L20.8711 41.7151ZM29.2717 38.3837C29.9849 38.3837 30.619 38.7018 31.068 39.2112L30.5133 39.6963C30.2069 39.3459 29.7736 39.1303 29.2717 39.1303C28.3735 39.1303 27.6867 39.8311 27.6867 40.7744C27.6867 41.7178 28.3735 42.4186 29.2717 42.4186C29.7736 42.4186 30.2227 42.203 30.5212 41.8364L31.076 42.3216C30.6533 42.8606 30.0193 43.1571 29.2796 43.1571C27.9588 43.1571 26.8757 42.1598 26.8757 40.7852C26.8757 39.4106 27.9588 38.4134 29.2796 38.4134L29.2717 38.3837ZM33.8497 42.4563C34.7479 42.4563 35.4348 41.7555 35.4348 40.8122C35.4348 39.8958 34.7479 39.168 33.8497 39.168C32.9516 39.168 32.2647 39.8958 32.2647 40.8122C32.2647 41.7286 32.9516 42.4563 33.8682 42.4563H33.8497ZM33.8682 38.4134C35.1891 38.4134 36.259 39.4376 36.259 40.8122C36.259 42.1598 35.1944 43.184 33.8656 43.184C32.5447 43.184 31.4881 42.1598 31.4881 40.8122C31.4881 39.4484 32.5447 38.4134 33.8656 38.4134H33.8682ZM37.1017 38.4942H37.8149L40.2189 41.7016V38.4942H41.0008V43.1032H40.3404L37.8361 39.7853V43.0466H37.0436V38.4376L37.1017 38.4942ZM42.8104 39.1869H41.5846V38.4403H44.8339V39.195H43.5923V43.0762H42.7734V39.2219L42.8104 39.1869ZM47.6341 41.513L46.868 39.6262L46.1019 41.513H47.6077H47.6341ZM46.5246 38.4942H47.2114L49.087 43.1301H48.2153L47.8454 42.2137H45.8377L45.4679 43.1301H44.5962L46.4823 38.5104L46.5246 38.4942ZM49.7475 43.1301H50.54V38.5212H49.729L49.7475 43.1301ZM51.6468 38.5212H52.3601L54.764 41.7286V38.5212H55.5486V43.1301H54.8882L52.4446 39.8688V43.1301H51.6521V38.5212H51.6468ZM56.6449 38.5212H59.5244V39.2489H57.4533V40.354H59.4081V41.1087H57.4665V42.3755H59.5798V43.1301H56.6476L56.6449 38.5212ZM62.1687 40.7313C62.6072 40.7313 62.9084 40.4079 62.9084 39.9766C62.9084 39.5454 62.6178 39.2489 62.2295 39.2489H61.3471V40.7313H62.2083H62.1687ZM60.4912 38.4942H62.2532C63.051 38.4942 63.7141 39.1141 63.7141 39.9497C63.7141 40.5426 63.3707 41.0548 62.8952 41.2434L63.9888 43.087H63.1963L62.2295 41.4429H61.4264V43.087H60.6154V38.478L60.4912 38.4942ZM69.1031 40.7313C69.4202 40.7313 69.8164 40.4887 69.8164 39.9766C69.8164 39.451 69.436 39.2219 69.1031 39.2219H68.2155V40.7313H69.0873H69.1031ZM67.4125 38.4673H69.1507C69.8719 38.4673 70.6301 39.0333 70.6301 39.9766C70.6301 40.8553 69.9062 41.4725 69.1507 41.4725H68.2261V43.0897H67.423V38.4807L67.4125 38.4673ZM71.3222 38.4673H72.1411V42.3431H73.9374V43.0978H71.3856L71.3222 38.4673ZM77.4879 41.4941L76.7482 39.6074L76.0006 41.4941H77.5064H77.4879ZM76.4048 38.4753H77.0916L78.9857 43.1005H78.1272L77.7573 42.1841H75.7496L75.3798 43.1005H74.5556L76.4444 38.4753H76.4048ZM80.0688 39.23H78.8378V38.4753H82.1135V39.23H80.8957V43.1032H80.1032V39.2489L80.0688 39.23ZM82.7818 38.4996H85.5186V39.2354H83.5902V40.3944H85.3496V41.1491H83.5928V43.1167H82.8003L82.7818 38.4996ZM88.4536 42.4698C89.3517 42.4698 90.0386 41.769 90.0386 40.8257C90.0386 39.9093 89.3517 39.1815 88.4536 39.1815C87.5554 39.1815 86.8685 39.9093 86.8685 40.8257C86.8685 41.7421 87.5554 42.4698 88.48 42.4698H88.4536ZM88.48 38.4268C89.8008 38.4268 90.8839 39.478 90.8839 40.8257C90.8839 42.1733 89.8272 43.2245 88.5064 43.2245C87.1855 43.2245 86.1209 42.1922 86.1209 40.8337C86.1209 39.4753 87.1776 38.4349 88.4985 38.4349L88.48 38.4268ZM93.4041 40.7529C93.8532 40.7529 94.1438 40.4402 94.1438 39.9982C94.1438 39.5669 93.8532 39.2705 93.4569 39.2705H92.5191V40.7529H93.3909H93.4041ZM91.7345 38.5158H93.5045C94.297 38.5158 94.9574 39.1465 94.9574 39.9793C94.9574 40.5831 94.614 41.0844 94.1306 41.2839L95.2321 43.1301H94.3075L93.3301 41.486H92.5376V43.1301H91.7187V38.5212L91.7345 38.5158ZM95.9348 38.5158H96.6481L98.2701 41.1033L99.8815 38.5158H100.579V43.1248H99.8128V39.9739L98.2727 42.4132L96.73 39.982V43.1005H95.9533" fill="currentColor"/>
</svg>
