<svg width="86" height="64" viewBox="0 0 86 64" fill="none" xmlns="http://www.w3.org/2000/svg">
<g clip-path="url(#clip0_2690_7980)">
<path d="M26.2353 26.2063C26.2353 27.153 26.337 27.9205 26.5149 28.4833C26.7183 29.0462 26.9725 29.6602 27.3284 30.3254C27.4555 30.53 27.5064 30.7347 27.5064 30.9138C27.5064 31.1696 27.3538 31.4255 27.0233 31.6813L25.4218 32.7558C25.193 32.9094 24.9642 32.9861 24.7608 32.9861C24.5066 32.9861 24.2524 32.8582 23.9982 32.6279C23.6423 32.2442 23.3372 31.8348 23.083 31.4255C22.8288 30.9906 22.5746 30.5045 22.2949 29.916C20.312 32.2698 17.8207 33.4466 14.821 33.4466C12.6856 33.4466 10.9823 32.8326 9.73667 31.6046C8.49101 30.3765 7.85547 28.7392 7.85547 26.6924C7.85547 24.5178 8.61812 22.7525 10.1688 21.4221C11.7195 20.0918 13.7787 19.4266 16.3971 19.4266C17.2615 19.4266 18.1512 19.5033 19.0918 19.6313C20.0324 19.7592 20.9984 19.9639 22.0153 20.1941V18.3265C22.0153 16.3821 21.6085 15.0261 20.8205 14.233C20.007 13.4399 18.6342 13.0562 16.6768 13.0562C15.787 13.0562 14.8718 13.1585 13.9312 13.3888C12.9906 13.619 12.0755 13.9004 11.1857 14.2586C10.779 14.4377 10.4739 14.54 10.2959 14.5912C10.118 14.6424 9.99088 14.668 9.8892 14.668C9.53329 14.668 9.35534 14.4121 9.35534 13.8749V12.6212C9.35534 12.2119 9.40619 11.9049 9.53329 11.7258C9.6604 11.5467 9.8892 11.3676 10.2451 11.1885C11.1349 10.728 12.2026 10.3443 13.4482 10.0373C14.6939 9.70467 16.0158 9.55117 17.414 9.55117C20.4392 9.55117 22.6508 10.2419 24.0744 11.6235C25.4726 13.005 26.1844 15.1029 26.1844 17.9171V26.2063H26.2353ZM15.9141 30.0951C16.753 30.0951 17.6174 29.9416 18.5325 29.6346C19.4477 29.3276 20.2612 28.7647 20.9476 27.9972C21.3543 27.5111 21.6594 26.9739 21.8119 26.3598C21.9644 25.7458 22.0661 25.0039 22.0661 24.134V23.0595C21.3289 22.8804 20.5408 22.7269 19.7273 22.6246C18.9139 22.5223 18.1258 22.4711 17.3377 22.4711C15.6345 22.4711 14.3888 22.8037 13.5499 23.4944C12.711 24.1852 12.3042 25.1574 12.3042 26.4366C12.3042 27.6391 12.6093 28.5345 13.2448 29.1485C13.855 29.7881 14.7447 30.0951 15.9141 30.0951ZM36.3276 32.8582C35.8701 32.8582 35.565 32.7814 35.3616 32.6023C35.1582 32.4488 34.9803 32.0907 34.8278 31.6046L28.8537 11.8281C28.7012 11.3165 28.6249 10.9839 28.6249 10.8048C28.6249 10.3954 28.8283 10.1652 29.235 10.1652H31.7263C32.2093 10.1652 32.5398 10.2419 32.7178 10.421C32.9211 10.5745 33.0737 10.9327 33.2262 11.4188L37.497 28.3554L41.4628 11.4188C41.5899 10.9071 41.7424 10.5745 41.9458 10.421C42.1492 10.2675 42.5051 10.1652 42.9627 10.1652H44.9964C45.4794 10.1652 45.8099 10.2419 46.0133 10.421C46.2166 10.5745 46.3946 10.9327 46.4963 11.4188L50.5129 28.5601L54.9108 11.4188C55.0633 10.9071 55.2413 10.5745 55.4192 10.421C55.6226 10.2675 55.9531 10.1652 56.4107 10.1652H58.7749C59.1816 10.1652 59.4104 10.3699 59.4104 10.8048C59.4104 10.9327 59.385 11.0606 59.3596 11.2141C59.3342 11.3676 59.2833 11.5723 59.1816 11.8537L53.055 31.6302C52.9025 32.1418 52.7246 32.4744 52.5212 32.6279C52.3178 32.7814 51.9873 32.8838 51.5552 32.8838H49.3689C48.8859 32.8838 48.5554 32.807 48.352 32.6279C48.1487 32.4488 47.9707 32.1162 47.869 31.6046L43.9287 15.1029L40.0138 31.579C39.8867 32.0907 39.7341 32.4233 39.5308 32.6023C39.3274 32.7814 38.9715 32.8582 38.5139 32.8582H36.3276ZM68.9944 33.549C67.6724 33.549 66.3505 33.3954 65.0794 33.0884C63.8084 32.7814 62.8169 32.4488 62.156 32.0651C61.7492 31.8348 61.4696 31.579 61.3679 31.3487C61.2662 31.1185 61.2154 30.8626 61.2154 30.6324V29.3276C61.2154 28.7903 61.4187 28.5345 61.8001 28.5345C61.9526 28.5345 62.1051 28.5601 62.2577 28.6112C62.4102 28.6624 62.639 28.7647 62.8932 28.8671C63.7575 29.2508 64.6981 29.5578 65.6896 29.7625C66.7064 29.9672 67.6979 30.0695 68.7147 30.0695C70.3163 30.0695 71.562 29.7881 72.4263 29.2253C73.2906 28.6624 73.7482 27.8437 73.7482 26.7948C73.7482 26.0784 73.5194 25.49 73.0618 25.0039C72.6042 24.5178 71.7399 24.0829 70.4942 23.6735L66.8081 22.5223C64.9523 21.9338 63.5796 21.064 62.7407 19.9127C61.9017 18.787 61.4696 17.5334 61.4696 16.203C61.4696 15.1285 61.6984 14.1819 62.156 13.3632C62.6136 12.5445 63.2237 11.8281 63.9863 11.2653C64.749 10.6769 65.6133 10.2419 66.6302 9.93493C67.647 9.62792 68.7147 9.5 69.8333 9.5C70.3926 9.5 70.9773 9.52558 71.5365 9.60234C72.1212 9.67909 72.6551 9.78142 73.1889 9.88376C73.6974 10.0117 74.1804 10.1396 74.638 10.2931C75.0955 10.4466 75.4514 10.6001 75.7057 10.7536C76.0616 10.9583 76.3158 11.163 76.4683 11.3932C76.6208 11.5979 76.6971 11.8793 76.6971 12.2375V13.4399C76.6971 13.9772 76.4937 14.2586 76.1124 14.2586C75.909 14.2586 75.5786 14.1563 75.1464 13.9516C73.6974 13.2864 72.0704 12.9538 70.2654 12.9538C68.8164 12.9538 67.6724 13.1841 66.8844 13.6702C66.0963 14.1563 65.6896 14.8982 65.6896 15.9472C65.6896 16.6635 65.9438 17.2775 66.4522 17.7636C66.9606 18.2497 67.9012 18.7358 69.2486 19.1707L72.8584 20.322C74.6888 20.9105 76.0107 21.7291 76.7988 22.7781C77.5869 23.827 77.9682 25.0295 77.9682 26.3598C77.9682 27.46 77.7394 28.4577 77.3072 29.3276C76.8496 30.1974 76.2395 30.965 75.4514 31.579C74.6634 32.2186 73.7228 32.6791 72.6297 33.0117C71.4857 33.3699 70.2909 33.549 68.9944 33.549Z" fill="currentColor"/>
<path fill-rule="evenodd" clip-rule="evenodd" d="M73.7993 45.9829C65.4356 52.1998 53.2841 55.5001 42.8358 55.5001C28.193 55.5001 14.9992 50.0507 5.03393 40.994C4.24586 40.2776 4.95767 39.3054 5.89827 39.8683C16.677 46.162 29.9725 49.974 43.7256 49.974C53.0044 49.974 63.1985 48.0296 72.579 44.0385C73.9772 43.3989 75.172 44.9595 73.7993 45.9829Z" fill="currentColor"/>
<path fill-rule="evenodd" clip-rule="evenodd" d="M77.2818 41.9917C76.2141 40.6102 70.2146 41.3265 67.4945 41.6591C66.681 41.7615 66.5539 41.0451 67.2911 40.5079C72.0703 37.1308 79.9256 38.103 80.8408 39.2287C81.756 40.3799 80.5866 48.2854 76.1124 52.0718C75.426 52.6603 74.765 52.3533 75.0701 51.5857C76.0869 49.0529 78.3495 43.3477 77.2818 41.9917Z" fill="currentColor"/>
</g>
<defs>
<clipPath id="clip0_2690_7980">
<rect width="78" height="46" fill="white" transform="translate(4 9.5)"/>
</clipPath>
</defs>
</svg>
