<svg width="234" height="64" viewBox="0 0 234 64" fill="none" xmlns="http://www.w3.org/2000/svg">
<g clip-path="url(#clip0_5204_15726)">
<path d="M72.7056 26H69.9045L74.1726 13.6364H77.5412L81.8033 26H79.0021L75.9052 16.4616H75.8086L72.7056 26ZM72.5305 21.1403H79.147V23.1808H72.5305V21.1403ZM83.1948 26V24.4666L87.7346 18.8462V18.7798H83.3517V16.7273H90.8315V18.3995L86.5694 23.881V23.9474H90.9885V26H83.1948ZM98.9014 22.0518V16.7273H101.473V26H99.004V24.3157H98.9074C98.6981 24.859 98.35 25.2957 97.863 25.6257C97.3801 25.9557 96.7905 26.1207 96.0942 26.1207C95.4744 26.1207 94.9291 25.9799 94.4582 25.6982C93.9873 25.4164 93.6191 25.016 93.3534 24.4968C93.0918 23.9776 92.959 23.3558 92.955 22.6314V16.7273H95.5267V22.1726C95.5307 22.7199 95.6776 23.1526 95.9674 23.4705C96.2572 23.7885 96.6456 23.9474 97.1325 23.9474C97.4424 23.9474 97.7322 23.877 98.0019 23.7362C98.2715 23.5913 98.4888 23.378 98.6539 23.0962C98.8229 22.8145 98.9054 22.4664 98.9014 22.0518ZM103.53 26V16.7273H106.023V18.3452H106.12C106.289 17.7696 106.573 17.335 106.971 17.0412C107.37 16.7434 107.828 16.5945 108.348 16.5945C108.476 16.5945 108.615 16.6025 108.764 16.6186C108.913 16.6347 109.044 16.6568 109.157 16.685V18.967C109.036 18.9308 108.869 18.8986 108.656 18.8704C108.442 18.8422 108.247 18.8281 108.07 18.8281C107.692 18.8281 107.354 18.9106 107.056 19.0756C106.762 19.2366 106.529 19.462 106.355 19.7518C106.186 20.0415 106.102 20.3756 106.102 20.7539V26H103.53ZM114.28 26.1811C113.327 26.1811 112.506 25.9879 111.817 25.6016C111.133 25.2112 110.606 24.6598 110.236 23.9474C109.865 23.2311 109.68 22.3839 109.68 21.4059C109.68 20.4521 109.865 19.6149 110.236 18.8945C110.606 18.1741 111.127 17.6127 111.799 17.2102C112.475 16.8078 113.268 16.6065 114.178 16.6065C114.79 16.6065 115.359 16.7051 115.886 16.9023C116.418 17.0955 116.88 17.3873 117.275 17.7777C117.673 18.1681 117.983 18.6591 118.204 19.2507C118.426 19.8383 118.536 20.5265 118.536 21.3153V22.0217H110.707V20.4279H116.116C116.116 20.0576 116.035 19.7296 115.874 19.4439C115.713 19.1581 115.49 18.9348 115.204 18.7738C114.922 18.6088 114.594 18.5263 114.22 18.5263C113.83 18.5263 113.484 18.6168 113.182 18.7979C112.884 18.975 112.65 19.2145 112.481 19.5163C112.312 19.8142 112.226 20.1462 112.222 20.5124V22.0277C112.222 22.4865 112.306 22.8829 112.475 23.217C112.648 23.551 112.892 23.8086 113.206 23.9897C113.52 24.1708 113.892 24.2614 114.323 24.2614C114.608 24.2614 114.87 24.2211 115.108 24.1406C115.345 24.0601 115.548 23.9394 115.717 23.7784C115.886 23.6174 116.015 23.4202 116.104 23.1868L118.482 23.3438C118.361 23.9152 118.114 24.4143 117.74 24.8409C117.369 25.2635 116.89 25.5935 116.303 25.831C115.719 26.0644 115.045 26.1811 114.28 26.1811ZM70.5746 47V34.6364H73.1886V40.0877H73.3516L77.8008 34.6364H80.9339L76.3459 40.1722L80.9883 47H77.8612L74.4744 41.9169L73.1886 43.4865V47H70.5746ZM87.6123 43.0518V37.7273H90.184V47H87.7149V45.3157H87.6183C87.4091 45.859 87.0609 46.2957 86.574 46.6257C86.091 46.9557 85.5014 47.1207 84.8051 47.1207C84.1853 47.1207 83.64 46.9799 83.1691 46.6982C82.6982 46.4164 82.33 46.016 82.0644 45.4968C81.8028 44.9776 81.67 44.3558 81.6659 43.6314V37.7273H84.2377V43.1726C84.2417 43.7199 84.3886 44.1526 84.6784 44.4705C84.9681 44.7885 85.3565 44.9474 85.8435 44.9474C86.1534 44.9474 86.4432 44.877 86.7128 44.7362C86.9825 44.5913 87.1998 44.378 87.3648 44.0962C87.5338 43.8145 87.6163 43.4664 87.6123 43.0518ZM92.2894 47V34.6364H94.8612V39.2848H94.9396C95.0523 39.0353 95.2153 38.7817 95.4286 38.5241C95.646 38.2625 95.9277 38.0452 96.2738 37.8722C96.6239 37.6951 97.0586 37.6065 97.5778 37.6065C98.2539 37.6065 98.8777 37.7836 99.4492 38.1378C100.021 38.4879 100.478 39.0172 100.82 39.7255C101.162 40.4298 101.333 41.3132 101.333 42.3757C101.333 43.41 101.166 44.2834 100.832 44.9957C100.502 45.7041 100.051 46.2414 99.4794 46.6076C98.9119 46.9698 98.276 47.1509 97.5717 47.1509C97.0727 47.1509 96.6481 47.0684 96.2979 46.9034C95.9518 46.7384 95.6681 46.5311 95.4467 46.2816C95.2254 46.0281 95.0563 45.7725 94.9396 45.5149H94.8249V47H92.2894ZM94.8068 42.3636C94.8068 42.915 94.8833 43.396 95.0362 43.8065C95.1892 44.217 95.4105 44.5369 95.7003 44.7663C95.9901 44.9917 96.3422 45.1044 96.7567 45.1044C97.1753 45.1044 97.5295 44.9897 97.8192 44.7603C98.109 44.5269 98.3284 44.2049 98.4773 43.7944C98.6302 43.3799 98.7067 42.9029 98.7067 42.3636C98.7067 41.8284 98.6322 41.3575 98.4833 40.951C98.3344 40.5445 98.1151 40.2266 97.8253 39.9972C97.5355 39.7678 97.1793 39.6531 96.7567 39.6531C96.3382 39.6531 95.984 39.7637 95.6942 39.9851C95.4085 40.2064 95.1892 40.5204 95.0362 40.9268C94.8833 41.3333 94.8068 41.8123 94.8068 42.3636ZM107.275 47.1811C106.321 47.1811 105.5 46.9879 104.812 46.6016C104.127 46.2112 103.6 45.6598 103.23 44.9474C102.86 44.2311 102.674 43.3839 102.674 42.4059C102.674 41.4521 102.86 40.6149 103.23 39.8945C103.6 39.1741 104.121 38.6127 104.793 38.2102C105.47 37.8078 106.262 37.6065 107.172 37.6065C107.784 37.6065 108.353 37.7051 108.88 37.9023C109.412 38.0955 109.874 38.3873 110.269 38.7777C110.667 39.1681 110.977 39.6591 111.199 40.2507C111.42 40.8383 111.531 41.5265 111.531 42.3153V43.0217H103.701V41.4279H109.11C109.11 41.0576 109.029 40.7296 108.868 40.4439C108.707 40.1581 108.484 39.9348 108.198 39.7738C107.917 39.6088 107.589 39.5263 107.214 39.5263C106.824 39.5263 106.478 39.6168 106.176 39.7979C105.878 39.975 105.645 40.2145 105.476 40.5163C105.307 40.8142 105.22 41.1462 105.216 41.5124V43.0277C105.216 43.4865 105.301 43.8829 105.47 44.217C105.643 44.551 105.886 44.8086 106.2 44.9897C106.514 45.1708 106.886 45.2614 107.317 45.2614C107.603 45.2614 107.864 45.2211 108.102 45.1406C108.339 45.0601 108.542 44.9394 108.711 44.7784C108.88 44.6174 109.009 44.4202 109.098 44.1868L111.476 44.3438C111.356 44.9152 111.108 45.4143 110.734 45.8409C110.363 46.2635 109.885 46.5935 109.297 46.831C108.713 47.0644 108.039 47.1811 107.275 47.1811ZM113.209 47V37.7273H115.702V39.3452H115.799C115.968 38.7696 116.252 38.335 116.65 38.0412C117.048 37.7434 117.507 37.5945 118.026 37.5945C118.155 37.5945 118.294 37.6025 118.443 37.6186C118.592 37.6347 118.723 37.6568 118.835 37.685V39.967C118.715 39.9308 118.548 39.8986 118.334 39.8704C118.121 39.8422 117.926 39.8281 117.749 39.8281C117.37 39.8281 117.032 39.9106 116.734 40.0756C116.441 40.2366 116.207 40.462 116.034 40.7518C115.865 41.0415 115.781 41.3756 115.781 41.7539V47H113.209ZM122.737 41.6392V47H120.165V37.7273H122.616V39.3633H122.725C122.93 38.824 123.274 38.3974 123.757 38.0835C124.24 37.7655 124.825 37.6065 125.514 37.6065C126.158 37.6065 126.719 37.7474 127.198 38.0291C127.677 38.3108 128.049 38.7133 128.315 39.2365C128.58 39.7557 128.713 40.3755 128.713 41.0959V47H126.142V41.5547C126.146 40.9872 126.001 40.5445 125.707 40.2266C125.413 39.9046 125.009 39.7436 124.493 39.7436C124.147 39.7436 123.841 39.8181 123.576 39.967C123.314 40.1159 123.109 40.3332 122.96 40.619C122.815 40.9007 122.741 41.2408 122.737 41.6392ZM134.966 47.1811C134.012 47.1811 133.191 46.9879 132.503 46.6016C131.819 46.2112 131.292 45.6598 130.921 44.9474C130.551 44.2311 130.366 43.3839 130.366 42.4059C130.366 41.4521 130.551 40.6149 130.921 39.8945C131.292 39.1741 131.813 38.6127 132.485 38.2102C133.161 37.8078 133.954 37.6065 134.863 37.6065C135.475 37.6065 136.045 37.7051 136.572 37.9023C137.103 38.0955 137.566 38.3873 137.96 38.7777C138.359 39.1681 138.669 39.6591 138.89 40.2507C139.111 40.8383 139.222 41.5265 139.222 42.3153V43.0217H131.392V41.4279H136.801C136.801 41.0576 136.721 40.7296 136.56 40.4439C136.399 40.1581 136.175 39.9348 135.89 39.7738C135.608 39.6088 135.28 39.5263 134.906 39.5263C134.515 39.5263 134.169 39.6168 133.867 39.7979C133.569 39.975 133.336 40.2145 133.167 40.5163C132.998 40.8142 132.911 41.1462 132.907 41.5124V43.0277C132.907 43.4865 132.992 43.8829 133.161 44.217C133.334 44.551 133.578 44.8086 133.891 44.9897C134.205 45.1708 134.578 45.2614 135.008 45.2614C135.294 45.2614 135.556 45.2211 135.793 45.1406C136.031 45.0601 136.234 44.9394 136.403 44.7784C136.572 44.6174 136.701 44.4202 136.789 44.1868L139.168 44.3438C139.047 44.9152 138.799 45.4143 138.425 45.8409C138.055 46.2635 137.576 46.5935 136.988 46.831C136.405 47.0644 135.731 47.1811 134.966 47.1811ZM145.832 37.7273V39.6591H140.248V37.7273H145.832ZM141.516 35.5057H144.088V44.1506C144.088 44.388 144.124 44.5732 144.196 44.706C144.269 44.8348 144.37 44.9253 144.498 44.9776C144.631 45.0299 144.784 45.0561 144.957 45.0561C145.078 45.0561 145.199 45.046 145.319 45.0259C145.44 45.0018 145.533 44.9837 145.597 44.9716L146.002 46.8853C145.873 46.9255 145.692 46.9718 145.458 47.0241C145.225 47.0805 144.941 47.1147 144.607 47.1268C143.987 47.1509 143.444 47.0684 142.977 46.8793C142.514 46.6901 142.154 46.3963 141.896 45.9979C141.639 45.5994 141.512 45.0964 141.516 44.4886V35.5057ZM151.634 47.1811C150.68 47.1811 149.859 46.9879 149.171 46.6016C148.487 46.2112 147.959 45.6598 147.589 44.9474C147.219 44.2311 147.034 43.3839 147.034 42.4059C147.034 41.4521 147.219 40.6149 147.589 39.8945C147.959 39.1741 148.481 38.6127 149.153 38.2102C149.829 37.8078 150.622 37.6065 151.531 37.6065C152.143 37.6065 152.713 37.7051 153.24 37.9023C153.771 38.0955 154.234 38.3873 154.628 38.7777C155.027 39.1681 155.337 39.6591 155.558 40.2507C155.779 40.8383 155.89 41.5265 155.89 42.3153V43.0217H148.06V41.4279H153.469C153.469 41.0576 153.389 40.7296 153.228 40.4439C153.067 40.1581 152.843 39.9348 152.558 39.7738C152.276 39.6088 151.948 39.5263 151.574 39.5263C151.183 39.5263 150.837 39.6168 150.535 39.7979C150.237 39.975 150.004 40.2145 149.835 40.5163C149.666 40.8142 149.579 41.1462 149.575 41.5124V43.0277C149.575 43.4865 149.66 43.8829 149.829 44.217C150.002 44.551 150.245 44.8086 150.559 44.9897C150.873 45.1708 151.246 45.2614 151.676 45.2614C151.962 45.2614 152.224 45.2211 152.461 45.1406C152.698 45.0601 152.902 44.9394 153.071 44.7784C153.24 44.6174 153.369 44.4202 153.457 44.1868L155.836 44.3438C155.715 44.9152 155.467 45.4143 155.093 45.8409C154.723 46.2635 154.244 46.5935 153.656 46.831C153.073 47.0644 152.399 47.1811 151.634 47.1811ZM165.283 40.3714L162.929 40.5163C162.889 40.3151 162.802 40.134 162.669 39.973C162.537 39.808 162.362 39.6772 162.144 39.5806C161.931 39.48 161.675 39.4297 161.378 39.4297C160.979 39.4297 160.643 39.5142 160.369 39.6832C160.096 39.8482 159.959 40.0696 159.959 40.3473C159.959 40.5687 160.047 40.7558 160.225 40.9087C160.402 41.0617 160.705 41.1844 161.136 41.277L162.814 41.6151C163.716 41.8002 164.388 42.098 164.831 42.5085C165.273 42.919 165.495 43.4583 165.495 44.1264C165.495 44.7341 165.316 45.2674 164.957 45.7262C164.603 46.185 164.116 46.5432 163.497 46.8008C162.881 47.0543 162.17 47.1811 161.366 47.1811C160.138 47.1811 159.16 46.9255 158.432 46.4144C157.707 45.8993 157.283 45.199 157.158 44.3136L159.687 44.1808C159.764 44.555 159.949 44.8408 160.243 45.038C160.536 45.2312 160.913 45.3278 161.372 45.3278C161.822 45.3278 162.185 45.2412 162.458 45.0682C162.736 44.8911 162.877 44.6637 162.881 44.386C162.877 44.1526 162.778 43.9614 162.585 43.8125C162.392 43.6596 162.094 43.5429 161.691 43.4624L160.086 43.1424C159.18 42.9613 158.506 42.6474 158.063 42.2006C157.625 41.7539 157.405 41.1844 157.405 40.4922C157.405 39.8965 157.566 39.3834 157.888 38.9528C158.214 38.5221 158.671 38.1901 159.259 37.9567C159.85 37.7232 160.542 37.6065 161.335 37.6065C162.506 37.6065 163.428 37.854 164.1 38.3491C164.776 38.8441 165.171 39.5182 165.283 40.3714ZM177.804 38.1921C177.756 37.7051 177.549 37.3268 177.182 37.0572C176.816 36.7875 176.319 36.6527 175.691 36.6527C175.265 36.6527 174.904 36.7131 174.611 36.8338C174.317 36.9505 174.091 37.1135 173.934 37.3228C173.781 37.5321 173.705 37.7695 173.705 38.0352C173.697 38.2565 173.743 38.4497 173.844 38.6147C173.948 38.7797 174.091 38.9226 174.272 39.0433C174.454 39.16 174.663 39.2627 174.9 39.3512C175.138 39.4357 175.391 39.5082 175.661 39.5685L176.772 39.8342C177.311 39.9549 177.806 40.1159 178.257 40.3171C178.708 40.5183 179.098 40.7659 179.428 41.0597C179.758 41.3535 180.014 41.6996 180.195 42.098C180.38 42.4964 180.474 42.9532 180.478 43.4684C180.474 44.225 180.281 44.881 179.899 45.4364C179.521 45.9878 178.973 46.4164 178.257 46.7223C177.544 47.0241 176.685 47.1751 175.679 47.1751C174.681 47.1751 173.812 47.0221 173.071 46.7163C172.335 46.4104 171.759 45.9576 171.345 45.358C170.934 44.7543 170.719 44.0077 170.699 43.1183H173.228C173.256 43.5328 173.375 43.8789 173.584 44.1566C173.798 44.4303 174.081 44.6375 174.435 44.7784C174.794 44.9152 175.198 44.9837 175.649 44.9837C176.092 44.9837 176.476 44.9193 176.802 44.7905C177.132 44.6617 177.388 44.4826 177.569 44.2532C177.75 44.0238 177.84 43.7602 177.84 43.4624C177.84 43.1847 177.758 42.9512 177.593 42.7621C177.432 42.5729 177.194 42.4119 176.88 42.2791C176.571 42.1463 176.19 42.0256 175.739 41.9169L174.393 41.5788C173.351 41.3253 172.528 40.9289 171.924 40.3896C171.32 39.8503 171.021 39.1238 171.025 38.2102C171.021 37.4616 171.22 36.8076 171.622 36.2482C172.029 35.6888 172.586 35.2521 173.294 34.9382C174.003 34.6243 174.808 34.4673 175.709 34.4673C176.627 34.4673 177.428 34.6243 178.112 34.9382C178.8 35.2521 179.335 35.6888 179.718 36.2482C180.1 36.8076 180.297 37.4556 180.309 38.1921H177.804ZM186.414 47.1811C185.46 47.1811 184.639 46.9879 183.951 46.6016C183.267 46.2112 182.74 45.6598 182.369 44.9474C181.999 44.2311 181.814 43.3839 181.814 42.4059C181.814 41.4521 181.999 40.6149 182.369 39.8945C182.74 39.1741 183.261 38.6127 183.933 38.2102C184.609 37.8078 185.402 37.6065 186.312 37.6065C186.923 37.6065 187.493 37.7051 188.02 37.9023C188.551 38.0955 189.014 38.3873 189.409 38.7777C189.807 39.1681 190.117 39.6591 190.338 40.2507C190.56 40.8383 190.67 41.5265 190.67 42.3153V43.0217H182.84V41.4279H188.249C188.249 41.0576 188.169 40.7296 188.008 40.4439C187.847 40.1581 187.624 39.9348 187.338 39.7738C187.056 39.6088 186.728 39.5263 186.354 39.5263C185.963 39.5263 185.617 39.6168 185.316 39.7979C185.018 39.975 184.784 40.2145 184.615 40.5163C184.446 40.8142 184.36 41.1462 184.356 41.5124V43.0277C184.356 43.4865 184.44 43.8829 184.609 44.217C184.782 44.551 185.026 44.8086 185.34 44.9897C185.654 45.1708 186.026 45.2614 186.456 45.2614C186.742 45.2614 187.004 45.2211 187.241 45.1406C187.479 45.0601 187.682 44.9394 187.851 44.7784C188.02 44.6174 188.149 44.4202 188.237 44.1868L190.616 44.3438C190.495 44.9152 190.248 45.4143 189.873 45.8409C189.503 46.2635 189.024 46.5935 188.437 46.831C187.853 47.0644 187.179 47.1811 186.414 47.1811ZM192.349 47V37.7273H194.842V39.3452H194.938C195.107 38.7696 195.391 38.335 195.79 38.0412C196.188 37.7434 196.647 37.5945 197.166 37.5945C197.295 37.5945 197.434 37.6025 197.583 37.6186C197.731 37.6347 197.862 37.6568 197.975 37.685V39.967C197.854 39.9308 197.687 39.8986 197.474 39.8704C197.261 39.8422 197.065 39.8281 196.888 39.8281C196.51 39.8281 196.172 39.9106 195.874 40.0756C195.58 40.2366 195.347 40.462 195.174 40.7518C195.005 41.0415 194.92 41.3756 194.92 41.7539V47H192.349ZM208.232 37.7273L204.99 47H202.092L198.85 37.7273H201.567L203.493 44.3619H203.589L205.509 37.7273H208.232ZM209.548 47V37.7273H212.119V47H209.548ZM210.84 36.532C210.457 36.532 210.129 36.4052 209.856 36.1516C209.586 35.8941 209.451 35.5862 209.451 35.228C209.451 34.8738 209.586 34.57 209.856 34.3164C210.129 34.0588 210.457 33.93 210.84 33.93C211.222 33.93 211.548 34.0588 211.818 34.3164C212.091 34.57 212.228 34.8738 212.228 35.228C212.228 35.5862 212.091 35.8941 211.818 36.1516C211.548 36.4052 211.222 36.532 210.84 36.532ZM218.369 47.1811C217.419 47.1811 216.602 46.9799 215.918 46.5774C215.238 46.1709 214.715 45.6075 214.349 44.8871C213.986 44.1667 213.805 43.3376 213.805 42.3999C213.805 41.45 213.988 40.617 214.355 39.9006C214.725 39.1802 215.25 38.6187 215.93 38.2163C216.61 37.8098 217.419 37.6065 218.357 37.6065C219.166 37.6065 219.874 37.7534 220.482 38.0472C221.09 38.341 221.571 38.7536 221.925 39.2848C222.279 39.8161 222.474 40.4399 222.511 41.1562H220.084C220.015 40.6934 219.834 40.3211 219.54 40.0394C219.251 39.7537 218.87 39.6108 218.399 39.6108C218.001 39.6108 217.653 39.7195 217.355 39.9368C217.061 40.1501 216.832 40.462 216.667 40.8725C216.502 41.283 216.419 41.7801 216.419 42.3636C216.419 42.9553 216.5 43.4583 216.661 43.8729C216.826 44.2874 217.057 44.6033 217.355 44.8207C217.653 45.038 218.001 45.1467 218.399 45.1467C218.693 45.1467 218.957 45.0863 219.19 44.9656C219.428 44.8448 219.623 44.6697 219.776 44.4403C219.933 44.2069 220.035 43.9272 220.084 43.6012H222.511C222.47 44.3095 222.277 44.9334 221.931 45.4727C221.589 46.0079 221.116 46.4265 220.512 46.7283C219.909 47.0302 219.194 47.1811 218.369 47.1811ZM228.383 47.1811C227.429 47.1811 226.608 46.9879 225.92 46.6016C225.236 46.2112 224.709 45.6598 224.338 44.9474C223.968 44.2311 223.783 43.3839 223.783 42.4059C223.783 41.4521 223.968 40.6149 224.338 39.8945C224.709 39.1741 225.23 38.6127 225.902 38.2102C226.578 37.8078 227.371 37.6065 228.28 37.6065C228.892 37.6065 229.462 37.7051 229.989 37.9023C230.52 38.0955 230.983 38.3873 231.377 38.7777C231.776 39.1681 232.086 39.6591 232.307 40.2507C232.528 40.8383 232.639 41.5265 232.639 42.3153V43.0217H224.809V41.4279H230.218C230.218 41.0576 230.138 40.7296 229.977 40.4439C229.816 40.1581 229.592 39.9348 229.307 39.7738C229.025 39.6088 228.697 39.5263 228.323 39.5263C227.932 39.5263 227.586 39.6168 227.284 39.7979C226.986 39.975 226.753 40.2145 226.584 40.5163C226.415 40.8142 226.328 41.1462 226.324 41.5124V43.0277C226.324 43.4865 226.409 43.8829 226.578 44.217C226.751 44.551 226.994 44.8086 227.308 44.9897C227.622 45.1708 227.995 45.2614 228.425 45.2614C228.711 45.2614 228.973 45.2211 229.21 45.1406C229.448 45.0601 229.651 44.9394 229.82 44.7784C229.989 44.6174 230.118 44.4202 230.206 44.1868L232.585 44.3438C232.464 44.9152 232.216 45.4143 231.842 45.8409C231.472 46.2635 230.993 46.5935 230.405 46.831C229.822 47.0644 229.148 47.1811 228.383 47.1811Z" fill="#6C7993"/>
<path fill-rule="evenodd" clip-rule="evenodd" d="M9.10156 22.0002V12.4047L15.6401 10V24.636L9.10156 22.0002ZM13.1641 11.8598V22.423L14.7357 22.958V11.1963L13.1641 11.8598ZM11.1094 21.729V12.6605L12.4586 12.0908V22.1884L11.1094 21.729ZM9.64844 21.2643V13.2429L10.5951 12.868V21.5935L9.64844 21.2643ZM25.916 13.2638V21.0622L17.1096 24.636V10L25.916 13.2638ZM9.10156 51.3642V41.7687L15.6401 39.364V54L9.10156 51.3642ZM13.1641 41.2237V51.7868L14.7357 52.3219V40.5602L13.1641 41.2237ZM11.1094 51.0929V42.0243L12.4586 41.4547V51.5522L11.1094 51.0929ZM9.64844 50.6282V42.6068L10.5951 42.2319V50.9574L9.64844 50.6282ZM25.916 42.6278V50.4262L17.1096 54V39.364L25.916 42.6278ZM-0.5 27.0423V36.6377L6.03851 39.2736V24.6376L-0.5 27.0423ZM3.56452 37.0615V26.4983L5.13614 25.8348V37.5965L3.56452 37.0615ZM1.50977 27.298V36.3666L2.85901 36.8259V26.7284L1.50977 27.298ZM0.0488281 27.8814V35.9028L0.99546 36.232V27.5065L0.0488281 27.8814ZM16.3145 35.6997V27.9013L7.508 24.6376V39.2736L16.3145 35.6997ZM29.6953 51.3642V41.7687L36.2338 39.364V54L29.6953 51.3642ZM33.7578 41.2237V51.7868L35.3294 52.3219V40.5602L33.7578 41.2237ZM31.7031 51.0929V42.0243L33.0524 41.4547V51.5522L31.7031 51.0929ZM30.2422 50.6282V42.6068L31.1888 42.2319V50.9574L30.2422 50.6282ZM46.5098 42.6278V50.4262L37.7033 54V39.364L46.5098 42.6278ZM29.6953 12.4047V22.0002L36.2338 24.636V10L29.6953 12.4047ZM33.7578 22.423V11.8598L35.3294 11.1963V22.958L33.7578 22.423ZM31.7031 12.6605V21.729L33.0524 22.1884V12.0908L31.7031 12.6605ZM30.2422 13.2429V21.2643L31.1888 21.5935V12.868L30.2422 13.2429ZM46.5098 21.0622V13.2638L37.7033 10V24.636L46.5098 21.0622ZM20.0918 36.6377V27.0423L26.6303 24.6376V39.2736L20.0918 36.6377ZM24.1544 26.4983V37.0615L25.726 37.5965V25.8348L24.1544 26.4983ZM22.0996 36.3666V27.298L23.4489 26.7284V36.8259L22.0996 36.3666ZM20.6387 35.9028V27.8814L21.5853 27.5065V36.232L20.6387 35.9028ZM36.9062 27.9013V35.6997L28.0998 39.2736V24.6376L36.9062 27.9013ZM40.6855 27.0423V36.6377L47.2241 39.2736V24.6376L40.6855 27.0423ZM44.7501 37.0615V26.4983L46.3217 25.8348V37.5965L44.7501 37.0615ZM42.6953 27.298V36.3666L44.0446 36.8259V26.7284L42.6953 27.298ZM41.2344 27.8814V35.9028L42.181 36.232V27.5065L41.2344 27.8814ZM57.5 35.6997V27.9013L48.6935 24.6376V39.2736L57.5 35.6997Z" fill="#6C7993"/>
</g>
<defs>
<clipPath id="clip0_5204_15726">
<rect width="234" height="64" fill="white"/>
</clipPath>
</defs>
</svg>
