<svg width="144" height="64" viewBox="0 0 144 64" fill="none" xmlns="http://www.w3.org/2000/svg">
<path fill-rule="evenodd" clip-rule="evenodd" d="M33.2016 13.4072L25.2909 29.6382L39.2182 46.0829L13.3691 49.0725L53.4797 49.5001L33.2016 13.4072Z" fill="currentColor"/>
<path fill-rule="evenodd" clip-rule="evenodd" d="M31.6427 7L13.4817 22.4837L0 45.6558L11.4762 44.481L31.6427 7Z" fill="currentColor"/>
<path d="M68.6436 23.3877L59.957 45.0876H62.9105L65.1692 39.0043H74.7713L77.172 45.0876H80.1093L71.3912 23.3877H68.6436ZM69.9386 26.0205H70.0015C70.1173 26.6864 70.2331 27.1709 70.3489 27.4735L73.9025 36.7195H66.0533L69.5754 27.4735C69.7123 27.1204 69.8333 26.6359 69.9386 26.0205ZM137.103 29.2289C134.987 29.2289 133.213 29.9904 131.781 31.5137C130.359 33.0269 129.649 34.9895 129.649 37.4006C129.649 39.9529 130.302 41.9349 131.607 43.3473C132.913 44.7496 134.708 45.4508 136.992 45.4508C139.33 45.4508 141.209 44.9567 142.631 43.9681V41.6376C141.104 42.7877 139.43 43.3624 137.609 43.3624C135.987 43.3624 134.713 42.8933 133.787 41.9551C132.86 41.0168 132.376 39.6852 132.334 37.9601H143.752V36.6588C143.752 34.3284 143.173 32.5077 142.015 31.1962C140.857 29.8848 139.219 29.2289 137.103 29.2289ZM125.532 29.3198C124.594 29.3198 123.747 29.6276 122.989 30.2429C122.231 30.8482 121.668 31.6954 121.299 32.7849H121.236V29.592H118.646V45.0876H121.236V37.1886C121.236 35.4635 121.605 34.1015 122.342 33.1028C123.089 32.1041 124.016 31.6046 125.121 31.6046C125.974 31.6046 126.627 31.7709 127.08 32.1038V29.5313C126.722 29.3901 126.205 29.3198 125.532 29.3198ZM82.742 29.592V31.7106H91.4124L81.8417 44.3161V45.0876H95.1237V42.9691H85.6479L95.2186 30.3032V29.592H82.742ZM99.1143 29.592V38.8531C99.1143 43.2516 101.042 45.4508 104.895 45.4508C107.148 45.4508 108.812 44.5125 109.886 42.6361H109.949V45.0876H112.539V29.592H109.949V38.5201C109.949 39.9628 109.538 41.133 108.717 42.0309C107.906 42.9187 106.869 43.3624 105.606 43.3624C102.995 43.3624 101.689 41.7285 101.689 38.4598V29.592H99.1143ZM137.056 31.3173C138.319 31.3173 139.304 31.7157 140.009 32.5126C140.725 33.3096 141.088 34.4241 141.099 35.8567H132.365C132.565 34.5049 133.092 33.4103 133.945 32.5729C134.797 31.7356 135.835 31.3173 137.056 31.3173Z" fill="currentColor"/>
</svg>
