<svg width="78" height="64" viewBox="0 0 78 64" fill="none" xmlns="http://www.w3.org/2000/svg">
<path d="M28 4L18 6.11765V19.8824L28 22L38 17.7647V7.52941L28 4Z" fill="#8994A9"/>
<path d="M18 6.11965V19.8826L28 22V4L18 6.11965ZM22.1379 18.7827L19.3793 18.2107V7.58024L22.1379 7.0727V18.7827ZM26.6207 19.67L23.5172 19.0709V6.82544L26.6207 6.11965V19.67Z" fill="#616D84"/>
<path d="M28 42L18 44.1176V57.8824L28 60L38 55.7647V45.5294L28 42Z" fill="#8994A9"/>
<path d="M18 44.1196V57.8826L28 60V42L18 44.1196ZM22.1379 56.7827L19.3793 56.2107V45.5802L22.1379 45.0727V56.7827ZM26.6207 57.67L23.5172 57.0709V44.8254L26.6207 44.1196V57.67Z" fill="#616D84"/>
<path d="M50 4L40 6.11765V19.8824L50 22L60 17.7647V7.52941L50 4Z" fill="#8994A9"/>
<path d="M40 6.11965V19.8826L50 22V4L40 6.11965ZM44.1379 18.7827L41.3793 18.2107V7.58024L44.1379 7.0727V18.7827ZM48.6207 19.67L45.5172 19.0709V6.82544L48.6207 6.11965V19.67Z" fill="#616D84"/>
<path d="M50 42L40 44.1176V57.8824L50 60L60 55.7647V45.5294L50 42Z" fill="#8994A9"/>
<path d="M40 44.1196V57.8826L50 60V42L40 44.1196ZM44.1379 56.7827L41.3793 56.2107V45.5802L44.1379 45.0727V56.7827ZM48.6207 57.67L45.5172 57.0709V44.8254L48.6207 44.1196V57.67Z" fill="#616D84"/>
<path d="M39 23L29 25.1176V38.8824L39 41L49 36.7647V26.5294L39 23Z" fill="#8994A9"/>
<path d="M29 25.1196V38.8826L39 41V23L29 25.1196ZM33.1379 37.7827L30.3793 37.2107V26.5802L33.1379 26.0727V37.7827ZM37.6207 38.67L34.5172 38.0709V25.8254L37.6207 25.1196V38.67Z" fill="#616D84"/>
<path d="M61 23L51 25.1176V38.8824L61 41L71 36.7647V26.5294L61 23Z" fill="#8994A9"/>
<path d="M51 25.1196V38.8826L61 41V23L51 25.1196ZM55.1379 37.7827L52.3793 37.2107V26.5802L55.1379 26.0727V37.7827ZM59.6207 38.67L56.5172 38.0709V25.8254L59.6207 25.1196V38.67Z" fill="#616D84"/>
<path d="M17 23L7 25.1176V38.8824L17 41L27 36.7647V26.5294L17 23Z" fill="#8994A9"/>
<path d="M7 25.1196V38.8826L17 41V23L7 25.1196ZM11.1379 37.7827L8.37931 37.2107V26.5802L11.1379 26.0727V37.7827ZM15.6207 38.67L12.5172 38.0709V25.8254L15.6207 25.1196V38.67Z" fill="#616D84"/>
</svg>
