<svg xmlns="http://www.w3.org/2000/svg" viewBox="0 0 400 200" clip-rule="evenodd" fill-rule="evenodd" stroke-linejoin="round" stroke-miterlimit="2">
<g transform="matrix(.657775 0 0 .657775 -65 -115)">
<path d="m424.3 186.2c46.6 0 85.4 63.6 85.3 119.8-.2 58-46.9 108.2-109.2 108.2-63.6 0-109.2-41.8-109.2-96 0-45.1 29.3-47.9 67.6-74.6 44.1-30.8 34.7-57.4 65.5-57.4z" fill="#5cfe4f" fill-rule="nonzero"/>
<path d="m198.5 281.9c7.4 6 12.1 14 13.9 24.3h-19.3c-1.1-5.5-3.7-9.7-7.8-12.8s-9.2-4.7-15.4-4.7c-7 0-12.8 2.5-17.6 7.4-4.6 4.9-7 12.1-7 21.6s2.4 16.7 7 21.6 10.6 7.4 17.6 7.4c6.2 0 11.3-1.6 15.4-4.7 4.1-3.2 6.7-7.5 7.8-13h19.3c-1.8 10.3-6.5 18.3-13.9 24.4-7.4 6-16.8 9-28.3 9-8.5 0-16.1-1.8-22.6-5.4-6.6-3.5-11.7-8.8-15.4-15.5-3.7-6.9-5.5-14.8-5.5-24 0-9.1 1.8-17 5.6-23.8 3.7-6.7 8.9-11.9 15.4-15.5 6.6-3.5 14-5.4 22.6-5.4 11.4.1 20.8 3.1 28.2 9.1z" fill-rule="nonzero"/>
<path d="m325.7 244.1h18.1v117.1h-18.1z"/>
<path d="m442.7 293.7c-3.8-6.7-9.2-11.9-16-15.5-6.8-3.5-14.5-5.4-23-5.4s-16.2 1.8-22.9 5.4c-6.8 3.6-12.1 8.8-16 15.5s-5.8 14.7-5.8 23.8 1.9 17 5.8 23.8c3.9 6.9 9.2 12 16 15.6s14.4 5.4 22.9 5.4 16.2-1.8 23-5.4c6.8-3.5 12.1-8.8 16-15.5 3.8-6.7 5.7-14.7 5.7-23.9.2-9.1-1.8-17-5.7-23.8zm-16.5 40c-2.4 4.3-5.5 7.5-9.5 9.6-3.9 2.1-8.2 3.2-13 3.2-4.6 0-9-1.1-13-3.2-3.9-2.1-7.1-5.4-9.5-9.6-2.4-4.3-3.6-9.7-3.6-16.2 0-6.3 1.2-11.7 3.6-16.1s5.5-7.6 9.5-9.7c3.9-2.1 8.2-3.2 13-3.2 4.6 0 9 1.1 13 3.2 3.9 2.1 7.1 5.4 9.5 9.7 2.4 4.4 3.6 9.7 3.6 16.1.1 6.4-1.1 11.8-3.6 16.2z" fill-rule="nonzero"/>
<path d="m565.4 241.1c2.2-2 5-3 8.4-3 3.6 0 6.4 1 8.5 3 2.2 2 3.2 4.5 3.2 7.6s-1.1 5.6-3.2 7.4c-2.2 1.9-5.1 2.9-8.5 2.9-3.6 0-6.4-1-8.4-2.9-2.2-1.9-3.2-4.4-3.2-7.4-.1-3.1 1-5.6 3.2-7.6z" fill-rule="nonzero"/>
<path d="m564.8 273.9h18.1v87.1h-18.1z"/>
<g fill-rule="nonzero">
<path d="m310.2 317.5c0-9.1-1.8-17-5.6-23.8-3.7-6.7-8.9-11.9-15.4-15.5-6.6-3.5-14-5.4-22.6-5.4s-16.1 1.8-22.6 5.4c-6.6 3.6-11.7 8.8-15.4 15.5s-5.6 14.7-5.6 23.8c0 9.2 1.8 17.1 5.6 23.9 3.7 6.7 8.9 11.9 15.4 15.5 6.6 3.6 14 5.4 22.6 5.4s16.1-1.8 22.6-5.4c6.6-3.5 11.7-8.8 15.4-15.5 1.8-3.2 3.1-6.7 4.1-10.6h-17.8c-1.2 4.3-3.2 7.7-6 10.3-4.6 4.3-11.2 6.5-18.1 6.5s-13.5-2.1-18.1-6.5c-4.6-4.3-7.1-10.9-7.4-19.9h69.1c-.3-1.2-.2-2.5-.2-3.7zm-68.9-8.9c1-6.3 3.5-11.2 7.3-14.9 4.8-4.3 10.7-6.5 17.9-6.5s13.1 2.1 17.9 6.5c3.9 3.5 6.4 8.5 7.3 14.9z"/>
<path d="m536.5 282.2c6.2 6.5 9.3 16 9.3 28v51h-18.2v-49c0-7.8-2.1-13.9-6-18.2-4.1-4.3-9.6-6.4-16.6-6.4-7.2 0-13.1 2.2-17.5 6.9-4.4 4.6-6.6 11.3-6.6 20.2v46.5h-18.2v-86.9h18.2v15.7c4.6-8.7 15-17.7 31-17.7 10.2 0 18.4 3.2 24.6 9.9z"/>
<path d="m671.8 299.4h-17.7c0-9.2-9.4-13.7-18.9-13.7-7.2 0-15.5 3.7-15.5 10.7 0 7.3 7.9 9.6 22.1 13.7 18.7 5.2 32.2 10 32.2 27.5 0 16.3-18.9 24.4-36.8 24.4-21.8 0-40.2-10.9-40.2-29.1h18.6c.4 9.7 11.9 14.8 21.1 14.8 9.5 0 19.9-2.8 19.9-10.6 0-9.1-7.7-10.7-22.9-15.3-19.1-5.8-32.3-9.2-32.3-25.1 0-15.8 17.1-24.4 34.4-24.4 21.8 0 36 11.6 36 27.1z"/>
</g>
</g>
</svg>