<svg xmlns="http://www.w3.org/2000/svg" xmlns:xlink="http://www.w3.org/1999/xlink" width="400" zoomAndPan="magnify" viewBox="0 0 300 149.999998" height="200" preserveAspectRatio="xMidYMid meet" version="1.0"><path fill="#5cfe4f" d="M 160.570312 5.609375 C 183.558594 5.609375 202.699219 36.984375 202.652344 64.710938 C 202.554688 93.324219 179.515625 118.085938 148.78125 118.085938 C 117.402344 118.085938 94.90625 97.464844 94.90625 70.726562 C 94.90625 48.480469 109.363281 47.097656 128.257812 33.925781 C 150.011719 18.730469 145.375 5.609375 160.570312 5.609375 Z M 160.570312 5.609375 " fill-opacity="1" fill-rule="nonzero"/><path fill="#000000" d="M 49.175781 52.820312 C 52.828125 55.78125 55.144531 59.726562 56.035156 64.808594 L 46.511719 64.808594 C 45.96875 62.09375 44.6875 60.023438 42.664062 58.492188 C 40.640625 56.964844 38.125 56.175781 35.066406 56.175781 C 31.613281 56.175781 28.753906 57.40625 26.382812 59.824219 C 24.113281 62.242188 22.929688 65.792969 22.929688 70.480469 C 22.929688 75.167969 24.113281 78.71875 26.382812 81.136719 C 28.652344 83.554688 31.613281 84.789062 35.066406 84.789062 C 38.125 84.789062 40.640625 84 42.664062 82.46875 C 44.6875 80.890625 45.96875 78.769531 46.511719 76.054688 L 56.035156 76.054688 C 55.144531 81.136719 52.828125 85.082031 49.175781 88.09375 C 45.527344 91.054688 40.886719 92.535156 35.214844 92.535156 C 31.023438 92.535156 27.273438 91.644531 24.066406 89.871094 C 20.808594 88.144531 18.292969 85.527344 16.46875 82.222656 C 14.644531 78.820312 13.753906 74.921875 13.753906 70.382812 C 13.753906 65.894531 14.644531 61.996094 16.519531 58.640625 C 18.34375 55.335938 20.910156 52.769531 24.113281 50.996094 C 27.371094 49.269531 31.023438 48.332031 35.265625 48.332031 C 40.886719 48.378906 45.527344 49.859375 49.175781 52.820312 Z M 49.175781 52.820312 " fill-opacity="1" fill-rule="nonzero"/><path fill="#000000" d="M 111.929688 34.171875 L 120.855469 34.171875 L 120.855469 91.941406 L 111.929688 91.941406 Z M 111.929688 34.171875 " fill-opacity="1" fill-rule="evenodd"/><path fill="#000000" d="M 169.648438 58.640625 C 167.773438 55.335938 165.109375 52.769531 161.753906 50.996094 C 158.398438 49.269531 154.601562 48.332031 150.40625 48.332031 C 146.214844 48.332031 142.414062 49.21875 139.109375 50.996094 C 135.757812 52.769531 133.140625 55.335938 131.21875 58.640625 C 129.292969 61.945312 128.355469 65.894531 128.355469 70.382812 C 128.355469 74.871094 129.292969 78.769531 131.21875 82.125 C 133.140625 85.527344 135.757812 88.042969 139.109375 89.820312 C 142.464844 91.597656 146.214844 92.484375 150.40625 92.484375 C 154.601562 92.484375 158.398438 91.597656 161.753906 89.820312 C 165.109375 88.09375 167.722656 85.480469 169.648438 82.171875 C 171.523438 78.867188 172.460938 74.921875 172.460938 70.382812 C 172.558594 65.894531 171.570312 61.996094 169.648438 58.640625 Z M 161.507812 78.375 C 160.324219 80.496094 158.792969 82.074219 156.820312 83.109375 C 154.898438 84.148438 152.777344 84.6875 150.40625 84.6875 C 148.136719 84.6875 145.96875 84.148438 143.996094 83.109375 C 142.070312 82.074219 140.492188 80.445312 139.308594 78.375 C 138.125 76.253906 137.53125 73.589844 137.53125 70.382812 C 137.53125 67.273438 138.125 64.609375 139.308594 62.441406 C 140.492188 60.269531 142.019531 58.691406 143.996094 57.65625 C 145.917969 56.617188 148.039062 56.074219 150.40625 56.074219 C 152.675781 56.074219 154.847656 56.617188 156.820312 57.65625 C 158.746094 58.691406 160.324219 60.320312 161.507812 62.441406 C 162.691406 64.609375 163.285156 67.226562 163.285156 70.382812 C 163.332031 73.539062 162.742188 76.203125 161.507812 78.375 Z M 161.507812 78.375 " fill-opacity="1" fill-rule="nonzero"/><path fill="#000000" d="M 230.179688 32.691406 C 231.265625 31.707031 232.644531 31.210938 234.324219 31.210938 C 236.097656 31.210938 237.480469 31.707031 238.515625 32.691406 C 239.601562 33.679688 240.09375 34.914062 240.09375 36.441406 C 240.09375 37.972656 239.554688 39.203125 238.515625 40.09375 C 237.429688 41.03125 236 41.523438 234.324219 41.523438 C 232.546875 41.523438 231.167969 41.03125 230.179688 40.09375 C 229.09375 39.15625 228.601562 37.921875 228.601562 36.441406 C 228.550781 34.914062 229.09375 33.679688 230.179688 32.691406 Z M 230.179688 32.691406 " fill-opacity="1" fill-rule="nonzero"/><path fill="#000000" d="M 229.882812 48.875 L 238.8125 48.875 L 238.8125 91.84375 L 229.882812 91.84375 Z M 229.882812 48.875 " fill-opacity="1" fill-rule="evenodd"/><path fill="#000000" d="M 104.28125 70.382812 C 104.28125 65.894531 103.394531 61.996094 101.519531 58.640625 C 99.695312 55.335938 97.128906 52.769531 93.921875 50.996094 C 90.664062 49.269531 87.015625 48.332031 82.773438 48.332031 C 78.53125 48.332031 74.828125 49.21875 71.621094 50.996094 C 68.367188 52.769531 65.851562 55.335938 64.027344 58.640625 C 62.199219 61.945312 61.261719 65.894531 61.261719 70.382812 C 61.261719 74.921875 62.152344 78.820312 64.027344 82.171875 C 65.851562 85.480469 68.417969 88.042969 71.621094 89.820312 C 74.878906 91.597656 78.53125 92.484375 82.773438 92.484375 C 87.015625 92.484375 90.714844 91.597656 93.921875 89.820312 C 97.175781 88.09375 99.695312 85.480469 101.519531 82.171875 C 102.40625 80.59375 103.046875 78.867188 103.542969 76.945312 L 94.761719 76.945312 C 94.167969 79.066406 93.179688 80.742188 91.800781 82.023438 C 89.53125 84.148438 86.273438 85.230469 82.871094 85.230469 C 79.46875 85.230469 76.210938 84.195312 73.941406 82.023438 C 71.671875 79.902344 70.4375 76.648438 70.289062 72.207031 L 104.378906 72.207031 C 104.230469 71.617188 104.28125 70.976562 104.28125 70.382812 Z M 70.289062 65.992188 C 70.785156 62.882812 72.015625 60.464844 73.890625 58.640625 C 76.261719 56.519531 79.171875 55.433594 82.722656 55.433594 C 86.273438 55.433594 89.183594 56.472656 91.554688 58.640625 C 93.476562 60.367188 94.710938 62.835938 95.15625 65.992188 Z M 70.289062 65.992188 " fill-opacity="1" fill-rule="nonzero"/><path fill="#000000" d="M 215.921875 52.96875 C 218.980469 56.175781 220.511719 60.863281 220.511719 66.78125 L 220.511719 91.941406 L 211.53125 91.941406 L 211.53125 67.769531 C 211.53125 63.921875 210.496094 60.910156 208.570312 58.789062 C 206.550781 56.667969 203.835938 55.632812 200.382812 55.632812 C 196.832031 55.632812 193.917969 56.71875 191.75 59.035156 C 189.578125 61.304688 188.492188 64.609375 188.492188 69 L 188.492188 91.941406 L 179.515625 91.941406 L 179.515625 49.070312 L 188.492188 49.070312 L 188.492188 56.816406 C 190.761719 52.523438 195.894531 48.085938 203.785156 48.085938 C 208.816406 48.085938 212.863281 49.664062 215.921875 52.96875 Z M 215.921875 52.96875 " fill-opacity="1" fill-rule="nonzero"/><path fill="#000000" d="M 282.671875 61.453125 L 273.9375 61.453125 C 273.9375 56.914062 269.300781 54.695312 264.613281 54.695312 C 261.0625 54.695312 256.96875 56.519531 256.96875 59.972656 C 256.96875 63.574219 260.863281 64.710938 267.871094 66.730469 C 277.09375 69.296875 283.753906 71.664062 283.753906 80.296875 C 283.753906 88.339844 274.429688 92.335938 265.601562 92.335938 C 254.847656 92.335938 245.769531 86.957031 245.769531 77.980469 L 254.945312 77.980469 C 255.140625 82.765625 260.816406 85.28125 265.355469 85.28125 C 270.039062 85.28125 275.171875 83.898438 275.171875 80.050781 C 275.171875 75.5625 271.371094 74.773438 263.875 72.503906 C 254.453125 69.644531 247.9375 67.964844 247.9375 60.121094 C 247.9375 52.328125 256.375 48.085938 264.910156 48.085938 C 275.664062 48.085938 282.667969 53.808594 282.667969 61.453125 Z M 282.671875 61.453125 " fill-opacity="1" fill-rule="nonzero"/></svg>