<?xml version="1.0" encoding="UTF-8"?>
<svg xmlns="http://www.w3.org/2000/svg" xmlns:xlink="http://www.w3.org/1999/xlink" width="357px" height="268px" viewBox="0 0 357 268" version="1.1">
<defs>
<linearGradient id="linear0" gradientUnits="userSpaceOnUse" x1="292.645599" y1="315.718994" x2="505.047394" y2="277.949188" gradientTransform="matrix(0.44625,0,0,-0.446667,1.785,266.213333)">
<stop offset="0" style="stop-color:rgb(100%,0%,0%);stop-opacity:1;"/>
<stop offset="0.1839" style="stop-color:rgb(100%,1.568627%,0%);stop-opacity:1;"/>
<stop offset="0.3745" style="stop-color:rgb(100%,6.666667%,0%);stop-opacity:1;"/>
<stop offset="0.5682" style="stop-color:rgb(100%,14.509804%,0%);stop-opacity:1;"/>
<stop offset="0.764" style="stop-color:rgb(100%,25.882353%,0%);stop-opacity:1;"/>
<stop offset="0.9596" style="stop-color:rgb(100%,40.392157%,0%);stop-opacity:1;"/>
<stop offset="1" style="stop-color:rgb(100%,43.921569%,0%);stop-opacity:1;"/>
</linearGradient>
</defs>
<g id="surface1">
<path style=" stroke:none;fill-rule:nonzero;fill:url(#linear0);" d="M 189.34375 83.167969 C 210.140625 83.167969 227.453125 111.578125 227.410156 136.679688 C 227.320312 162.585938 206.480469 185.007812 178.679688 185.007812 C 150.296875 185.007812 129.949219 166.339844 129.949219 142.128906 C 129.949219 121.984375 143.023438 120.734375 160.113281 108.808594 C 179.792969 95.050781 175.597656 83.167969 189.34375 83.167969 Z M 189.34375 83.167969 "/>
<path style=" stroke:none;fill-rule:nonzero;fill:rgb(0%,0%,0%);fill-opacity:1;" d="M 88.582031 125.914062 C 91.882812 128.59375 93.980469 132.167969 94.785156 136.769531 L 86.171875 136.769531 C 85.679688 134.3125 84.519531 132.4375 82.691406 131.050781 C 80.859375 129.667969 78.585938 128.953125 75.816406 128.953125 C 72.695312 128.953125 70.105469 130.070312 67.964844 132.257812 C 65.910156 134.445312 64.839844 137.664062 64.839844 141.90625 C 64.839844 146.148438 65.910156 149.367188 67.964844 151.554688 C 70.015625 153.742188 72.695312 154.859375 75.816406 154.859375 C 78.585938 154.859375 80.859375 154.144531 82.691406 152.761719 C 84.519531 151.332031 85.679688 149.410156 86.171875 146.953125 L 94.785156 146.953125 C 93.980469 151.554688 91.882812 155.128906 88.582031 157.851562 C 85.277344 160.53125 81.082031 161.871094 75.953125 161.871094 C 72.160156 161.871094 68.765625 161.066406 65.867188 159.460938 C 62.921875 157.898438 60.644531 155.53125 58.996094 152.535156 C 57.34375 149.453125 56.539062 145.925781 56.539062 141.816406 C 56.539062 137.753906 57.34375 134.222656 59.039062 131.1875 C 60.691406 128.191406 63.011719 125.871094 65.910156 124.261719 C 68.855469 122.699219 72.160156 121.851562 75.996094 121.851562 C 81.082031 121.894531 85.277344 123.234375 88.582031 125.914062 Z M 88.582031 125.914062 "/>
<path style=" stroke:none;fill-rule:nonzero;fill:rgb(0%,0%,0%);fill-opacity:1;" d="M 153.421875 109.03125 L 145.34375 109.03125 L 145.34375 161.335938 L 153.421875 161.335938 Z M 153.421875 109.03125 "/>
<path style=" stroke:none;fill-rule:nonzero;fill:rgb(0%,0%,0%);fill-opacity:1;" d="M 197.554688 131.1875 C 195.859375 128.191406 193.449219 125.871094 190.414062 124.261719 C 187.378906 122.699219 183.945312 121.851562 180.152344 121.851562 C 176.359375 121.851562 172.921875 122.65625 169.933594 124.261719 C 166.898438 125.871094 164.53125 128.191406 162.792969 131.1875 C 161.050781 134.179688 160.203125 137.753906 160.203125 141.816406 C 160.203125 145.882812 161.050781 149.410156 162.792969 152.449219 C 164.53125 155.53125 166.898438 157.808594 169.933594 159.414062 C 172.964844 161.023438 176.359375 161.828125 180.152344 161.828125 C 183.945312 161.828125 187.378906 161.023438 190.414062 159.414062 C 193.449219 157.851562 195.816406 155.484375 197.554688 152.492188 C 199.25 149.5 200.097656 145.925781 200.097656 141.816406 C 200.1875 137.753906 199.296875 134.222656 197.554688 131.1875 Z M 190.191406 149.050781 C 189.121094 150.972656 187.738281 152.402344 185.953125 153.339844 C 184.210938 154.277344 182.292969 154.769531 180.152344 154.769531 C 178.097656 154.769531 176.136719 154.277344 174.351562 153.339844 C 172.609375 152.402344 171.179688 150.929688 170.109375 149.050781 C 169.039062 147.132812 168.503906 144.71875 168.503906 141.816406 C 168.503906 139.003906 169.039062 136.589844 170.109375 134.625 C 171.179688 132.660156 172.566406 131.230469 174.351562 130.292969 C 176.089844 129.355469 178.007812 128.863281 180.152344 128.863281 C 182.203125 128.863281 184.167969 129.355469 185.953125 130.292969 C 187.691406 131.230469 189.121094 132.703125 190.191406 134.625 C 191.261719 136.589844 191.796875 138.957031 191.796875 141.816406 C 191.84375 144.675781 191.308594 147.085938 190.191406 149.050781 Z M 190.191406 149.050781 "/>
<path style=" stroke:none;fill-rule:nonzero;fill:rgb(0%,0%,0%);fill-opacity:1;" d="M 252.308594 107.691406 C 253.292969 106.796875 254.539062 106.351562 256.058594 106.351562 C 257.664062 106.351562 258.914062 106.796875 259.851562 107.691406 C 260.832031 108.585938 261.28125 109.703125 261.28125 111.085938 C 261.28125 112.46875 260.789062 113.585938 259.851562 114.390625 C 258.871094 115.238281 257.574219 115.6875 256.058594 115.6875 C 254.453125 115.6875 253.203125 115.238281 252.308594 114.390625 C 251.328125 113.542969 250.882812 112.425781 250.882812 111.085938 C 250.835938 109.703125 251.328125 108.585938 252.308594 107.691406 Z M 252.308594 107.691406 "/>
<path style=" stroke:none;fill-rule:nonzero;fill:rgb(0%,0%,0%);fill-opacity:1;" d="M 260.117188 122.34375 L 252.042969 122.34375 L 252.042969 161.246094 L 260.117188 161.246094 Z M 260.117188 122.34375 "/>
<path style=" stroke:none;fill-rule:nonzero;fill:rgb(0%,0%,0%);fill-opacity:1;" d="M 138.425781 141.816406 C 138.425781 137.753906 137.625 134.222656 135.929688 131.1875 C 134.277344 128.191406 131.957031 125.871094 129.054688 124.261719 C 126.109375 122.699219 122.808594 121.851562 118.96875 121.851562 C 115.132812 121.851562 111.785156 122.65625 108.886719 124.261719 C 105.941406 125.871094 103.664062 128.191406 102.011719 131.1875 C 100.363281 134.179688 99.515625 137.753906 99.515625 141.816406 C 99.515625 145.925781 100.316406 149.453125 102.011719 152.492188 C 103.664062 155.484375 105.984375 157.808594 108.886719 159.414062 C 111.832031 161.023438 115.132812 161.828125 118.96875 161.828125 C 122.808594 161.828125 126.15625 161.023438 129.054688 159.414062 C 132 157.851562 134.277344 155.484375 135.929688 152.492188 C 136.730469 151.0625 137.3125 149.5 137.757812 147.757812 L 129.8125 147.757812 C 129.277344 149.679688 128.386719 151.195312 127.136719 152.359375 C 125.082031 154.277344 122.136719 155.261719 119.058594 155.261719 C 115.980469 155.261719 113.035156 154.324219 110.980469 152.359375 C 108.929688 150.4375 107.8125 147.488281 107.679688 143.46875 L 138.515625 143.46875 C 138.382812 142.933594 138.425781 142.351562 138.425781 141.816406 Z M 107.679688 137.839844 C 108.125 135.027344 109.242188 132.839844 110.9375 131.1875 C 113.078125 129.265625 115.710938 128.28125 118.925781 128.28125 C 122.136719 128.28125 124.773438 129.21875 126.914062 131.1875 C 128.652344 132.75 129.769531 134.984375 130.171875 137.839844 Z M 107.679688 137.839844 "/>
<path style=" stroke:none;fill-rule:nonzero;fill:rgb(0%,0%,0%);fill-opacity:1;" d="M 239.414062 126.050781 C 242.179688 128.953125 243.5625 133.195312 243.5625 138.554688 L 243.5625 161.335938 L 235.441406 161.335938 L 235.441406 139.449219 C 235.441406 135.964844 234.503906 133.242188 232.765625 131.320312 C 230.933594 129.398438 228.480469 128.460938 225.355469 128.460938 C 222.144531 128.460938 219.511719 129.445312 217.546875 131.542969 C 215.582031 133.597656 214.601562 136.589844 214.601562 140.566406 L 214.601562 161.335938 L 206.480469 161.335938 L 206.480469 122.519531 L 214.601562 122.519531 L 214.601562 129.535156 C 216.65625 125.648438 221.296875 121.628906 228.433594 121.628906 C 232.988281 121.628906 236.644531 123.058594 239.414062 126.050781 Z M 239.414062 126.050781 "/>
<path style=" stroke:none;fill-rule:nonzero;fill:rgb(0%,0%,0%);fill-opacity:1;" d="M 299.789062 133.730469 L 291.890625 133.730469 C 291.890625 129.621094 287.699219 127.613281 283.457031 127.613281 C 280.246094 127.613281 276.542969 129.265625 276.542969 132.390625 C 276.542969 135.652344 280.066406 136.679688 286.402344 138.511719 C 294.75 140.835938 300.773438 142.976562 300.773438 150.792969 C 300.773438 158.074219 292.339844 161.691406 284.351562 161.691406 C 274.621094 161.691406 266.410156 156.824219 266.410156 148.695312 L 274.710938 148.695312 C 274.890625 153.027344 280.023438 155.304688 284.128906 155.304688 C 288.367188 155.304688 293.007812 154.054688 293.007812 150.570312 C 293.007812 146.507812 289.570312 145.792969 282.789062 143.738281 C 274.265625 141.148438 268.375 139.628906 268.375 132.527344 C 268.375 125.46875 276.003906 121.628906 283.726562 121.628906 C 293.453125 121.628906 299.789062 126.808594 299.789062 133.730469 Z M 299.789062 133.730469 "/>
</g>
</svg>
