<svg xmlns="http://www.w3.org/2000/svg" xmlns:xlink="http://www.w3.org/1999/xlink" version="1.1" width="1000" height="1000" viewBox="0 0 1000 1000" xml:space="preserve">
<desc>Created with Fabric.js 3.5.0</desc>
<defs>
</defs>
<rect x="0" y="0" width="100%" height="100%" fill="rgba(255,255,255,0)"/>
<g transform="matrix(1.7605 0 0 1.7605 500.0094 500.007)" id="405557">
<g style="" vector-effect="non-scaling-stroke">
		<g transform="matrix(1 0 0 1 0.4001 0.2)" id="katman_1">
<linearGradient id="SVGID_3" gradientUnits="userSpaceOnUse" gradientTransform="matrix(1 0 0 -1 4 596)" x1="292.6456" y1="315.719" x2="505.0474" y2="277.9492">
<stop offset="0%" style="stop-color:rgb(255,0,0);stop-opacity: 1"/>
<stop offset="18.39%" style="stop-color:rgb(255,4,0);stop-opacity: 1"/>
<stop offset="37.45%" style="stop-color:rgb(255,17,0);stop-opacity: 1"/>
<stop offset="56.82000000000001%" style="stop-color:rgb(255,37,0);stop-opacity: 1"/>
<stop offset="76.4%" style="stop-color:rgb(255,66,0);stop-opacity: 1"/>
<stop offset="95.96000000000001%" style="stop-color:rgb(255,103,0);stop-opacity: 1"/>
<stop offset="100%" style="stop-color:rgb(255,112,0);stop-opacity: 1"/>
</linearGradient>
<path style="stroke: none; stroke-width: 1; stroke-dasharray: none; stroke-linecap: butt; stroke-dashoffset: 0; stroke-linejoin: miter; stroke-miterlimit: 4; is-custom-font: none; font-file-url: none; fill: url(#SVGID_3); fill-rule: nonzero; opacity: 1;" transform=" translate(-400.4001, -300.2)" d="M 424.3 186.2 c 46.6 0 85.4 63.6 85.3 119.8 c -0.2 58 -46.9 108.2 -109.2 108.2 c -63.6 0 -109.2 -41.8 -109.2 -96 c 0 -45.1 29.3 -47.9 67.6 -74.6 C 402.9 212.8 393.5 186.2 424.3 186.2 z" stroke-linecap="round"/>
</g>
		<g transform="matrix(1 0 0 1 -230.45 17.6)" id="katman_1">
<path style="stroke: none; stroke-width: 1; stroke-dasharray: none; stroke-linecap: butt; stroke-dashoffset: 0; stroke-linejoin: miter; stroke-miterlimit: 4; is-custom-font: none; font-file-url: none; fill: rgb(0,0,0); fill-rule: nonzero; opacity: 1;" transform=" translate(-169.55, -317.6)" d="M 198.5 281.9 c 7.4 6 12.1 14 13.9 24.3 h -19.3 c -1.1 -5.5 -3.7 -9.7 -7.8 -12.8 c -4.1 -3.1 -9.2 -4.7 -15.4 -4.7 c -7 0 -12.8 2.5 -17.6 7.4 c -4.6 4.9 -7 12.1 -7 21.6 c 0 9.5 2.4 16.7 7 21.6 c 4.6 4.9 10.6 7.4 17.6 7.4 c 6.2 0 11.3 -1.6 15.4 -4.7 c 4.1 -3.2 6.7 -7.5 7.8 -13 h 19.3 c -1.8 10.3 -6.5 18.3 -13.9 24.4 c -7.4 6 -16.8 9 -28.3 9 c -8.5 0 -16.1 -1.8 -22.6 -5.4 c -6.6 -3.5 -11.7 -8.8 -15.4 -15.5 c -3.7 -6.9 -5.5 -14.8 -5.5 -24 c 0 -9.1 1.8 -17 5.6 -23.8 c 3.7 -6.7 8.9 -11.9 15.4 -15.5 c 6.6 -3.5 14 -5.4 22.6 -5.4 C 181.7 272.9 191.1 275.9 198.5 281.9 z" stroke-linecap="round"/>
</g>
		<g transform="matrix(1 0 0 1 -65.25 2.65)" id="katman_1">
<path style="stroke: none; stroke-width: 1; stroke-dasharray: none; stroke-linecap: butt; stroke-dashoffset: 0; stroke-linejoin: miter; stroke-miterlimit: 4; is-custom-font: none; font-file-url: none; fill: rgb(0,0,0); fill-rule: nonzero; opacity: 1;" transform=" translate(-334.75, -302.65)" d="M 343.8 244.1 h -18.1 v 117.1 h 18.1 V 244.1 z" stroke-linecap="round"/>
</g>
		<g transform="matrix(1 0 0 1 3.7068 17.55)" id="katman_1">
<path style="stroke: none; stroke-width: 1; stroke-dasharray: none; stroke-linecap: butt; stroke-dashoffset: 0; stroke-linejoin: miter; stroke-miterlimit: 4; is-custom-font: none; font-file-url: none; fill: rgb(0,0,0); fill-rule: nonzero; opacity: 1;" transform=" translate(-403.7068, -317.55)" d="M 442.7 293.7 c -3.8 -6.7 -9.2 -11.9 -16 -15.5 c -6.8 -3.5 -14.5 -5.4 -23 -5.4 c -8.5 0 -16.2 1.8 -22.9 5.4 c -6.8 3.6 -12.1 8.8 -16 15.5 c -3.9 6.7 -5.8 14.7 -5.8 23.8 c 0 9.1 1.9 17 5.8 23.8 c 3.9 6.9 9.2 12 16 15.6 c 6.8 3.6 14.4 5.4 22.9 5.4 c 8.5 0 16.2 -1.8 23 -5.4 c 6.8 -3.5 12.1 -8.8 16 -15.5 c 3.8 -6.7 5.7 -14.7 5.7 -23.9 C 448.6 308.4 446.6 300.5 442.7 293.7 z M 426.2 333.7 c -2.4 4.3 -5.5 7.5 -9.5 9.6 c -3.9 2.1 -8.2 3.2 -13 3.2 c -4.6 0 -9 -1.1 -13 -3.2 c -3.9 -2.1 -7.1 -5.4 -9.5 -9.6 c -2.4 -4.3 -3.6 -9.7 -3.6 -16.2 c 0 -6.3 1.2 -11.7 3.6 -16.1 c 2.4 -4.4 5.5 -7.6 9.5 -9.7 c 3.9 -2.1 8.2 -3.2 13 -3.2 c 4.6 0 9 1.1 13 3.2 c 3.9 2.1 7.1 5.4 9.5 9.7 c 2.4 4.4 3.6 9.7 3.6 16.1 C 429.9 323.9 428.7 329.3 426.2 333.7 z" stroke-linecap="round"/>
</g>
		<g transform="matrix(1 0 0 1 173.8468 -51.45)" id="katman_1">
<path style="stroke: none; stroke-width: 1; stroke-dasharray: none; stroke-linecap: butt; stroke-dashoffset: 0; stroke-linejoin: miter; stroke-miterlimit: 4; is-custom-font: none; font-file-url: none; fill: rgb(0,0,0); fill-rule: nonzero; opacity: 1;" transform=" translate(-573.8469, -248.55)" d="M 565.4 241.1 c 2.2 -2 5 -3 8.4 -3 c 3.6 0 6.4 1 8.5 3 c 2.2 2 3.2 4.5 3.2 7.6 c 0 3.1 -1.1 5.6 -3.2 7.4 c -2.2 1.9 -5.1 2.9 -8.5 2.9 c -3.6 0 -6.4 -1 -8.4 -2.9 c -2.2 -1.9 -3.2 -4.4 -3.2 -7.4 C 562.1 245.6 563.2 243.1 565.4 241.1 z" stroke-linecap="round"/>
</g>
		<g transform="matrix(1 0 0 1 173.85 17.45)" id="katman_1">
<path style="stroke: none; stroke-width: 1; stroke-dasharray: none; stroke-linecap: butt; stroke-dashoffset: 0; stroke-linejoin: miter; stroke-miterlimit: 4; is-custom-font: none; font-file-url: none; fill: rgb(0,0,0); fill-rule: nonzero; opacity: 1;" transform=" translate(-573.85, -317.45)" d="M 582.9 273.9 h -18.1 v 87.1 h 18.1 V 273.9 z" stroke-linecap="round"/>
</g>
		<g transform="matrix(1 0 0 1 -133.3 17.55)" id="katman_1">
<path style="stroke: none; stroke-width: 1; stroke-dasharray: none; stroke-linecap: butt; stroke-dashoffset: 0; stroke-linejoin: miter; stroke-miterlimit: 4; is-custom-font: none; font-file-url: none; fill: rgb(0,0,0); fill-rule: nonzero; opacity: 1;" transform=" translate(-266.7, -317.55)" d="M 310.2 317.5 c 0 -9.1 -1.8 -17 -5.6 -23.8 c -3.7 -6.7 -8.9 -11.9 -15.4 -15.5 c -6.6 -3.5 -14 -5.4 -22.6 -5.4 s -16.1 1.8 -22.6 5.4 c -6.6 3.6 -11.7 8.8 -15.4 15.5 c -3.7 6.7 -5.6 14.7 -5.6 23.8 c 0 9.2 1.8 17.1 5.6 23.9 c 3.7 6.7 8.9 11.9 15.4 15.5 c 6.6 3.6 14 5.4 22.6 5.4 s 16.1 -1.8 22.6 -5.4 c 6.6 -3.5 11.7 -8.8 15.4 -15.5 c 1.8 -3.2 3.1 -6.7 4.1 -10.6 h -17.8 c -1.2 4.3 -3.2 7.7 -6 10.3 c -4.6 4.3 -11.2 6.5 -18.1 6.5 s -13.5 -2.1 -18.1 -6.5 c -4.6 -4.3 -7.1 -10.9 -7.4 -19.9 h 69.1 C 310.1 320 310.2 318.7 310.2 317.5 z M 241.3 308.6 c 1 -6.3 3.5 -11.2 7.3 -14.9 c 4.8 -4.3 10.7 -6.5 17.9 -6.5 s 13.1 2.1 17.9 6.5 c 3.9 3.5 6.4 8.5 7.3 14.9 H 241.3 z" stroke-linecap="round"/>
</g>
		<g transform="matrix(1 0 0 1 104.25 16.75)" id="katman_1">
<path style="stroke: none; stroke-width: 1; stroke-dasharray: none; stroke-linecap: butt; stroke-dashoffset: 0; stroke-linejoin: miter; stroke-miterlimit: 4; is-custom-font: none; font-file-url: none; fill: rgb(0,0,0); fill-rule: nonzero; opacity: 1;" transform=" translate(-504.25, -316.75)" d="M 536.5 282.2 c 6.2 6.5 9.3 16 9.3 28 v 51 h -18.2 v -49 c 0 -7.8 -2.1 -13.9 -6 -18.2 c -4.1 -4.3 -9.6 -6.4 -16.6 -6.4 c -7.2 0 -13.1 2.2 -17.5 6.9 c -4.4 4.6 -6.6 11.3 -6.6 20.2 v 46.5 h -18.2 v -86.9 h 18.2 v 15.7 c 4.6 -8.7 15 -17.7 31 -17.7 C 522.1 272.3 530.3 275.5 536.5 282.2 z" stroke-linecap="round"/>
</g>
		<g transform="matrix(1 0 0 1 235.5 17.15)" id="katman_1">
<path style="stroke: none; stroke-width: 1; stroke-dasharray: none; stroke-linecap: butt; stroke-dashoffset: 0; stroke-linejoin: miter; stroke-miterlimit: 4; is-custom-font: none; font-file-url: none; fill: rgb(0,0,0); fill-rule: nonzero; opacity: 1;" transform=" translate(-635.5, -317.15)" d="M 671.8 299.4 h -17.7 c 0 -9.2 -9.4 -13.7 -18.9 -13.7 c -7.2 0 -15.5 3.7 -15.5 10.7 c 0 7.3 7.9 9.6 22.1 13.7 c 18.7 5.2 32.2 10 32.2 27.5 c 0 16.3 -18.9 24.4 -36.8 24.4 c -21.8 0 -40.2 -10.9 -40.2 -29.1 h 18.6 c 0.4 9.7 11.9 14.8 21.1 14.8 c 9.5 0 19.9 -2.8 19.9 -10.6 c 0 -9.1 -7.7 -10.7 -22.9 -15.3 c -19.1 -5.8 -32.3 -9.2 -32.3 -25.1 c 0 -15.8 17.1 -24.4 34.4 -24.4 C 657.6 272.3 671.8 283.9 671.8 299.4 z" stroke-linecap="round"/>
</g>
</g>
</g>
</svg>