<svg width="88" height="64" viewBox="0 0 88 64" fill="none" xmlns="http://www.w3.org/2000/svg">
<path d="M33.8368 17.0107H30.1969C29.526 17.0107 29.0859 17.5371 29.0859 18.1975V45.7962C29.0859 46.4568 29.526 46.986 30.1969 46.986H33.8368C34.5078 46.986 35.0238 46.4568 35.0238 45.7962V18.1975C35.0238 17.5371 34.5078 17.0107 33.8368 17.0107Z" fill="#6C7993"/>
<path d="M22.4725 38.8041C22.142 38.0662 21.195 37.8629 20.6136 38.4172C19.0739 39.8855 17.0093 40.7874 14.7329 40.7874C8.7681 40.7874 4.21651 34.6275 6.88049 28.2149C7.66787 26.3196 9.16185 24.8028 11.024 24.0024C14.6635 22.438 18.2048 23.3292 20.5538 25.5257C21.1413 26.075 22.0834 25.8801 22.4143 25.1411L23.9908 21.6201C24.243 21.0566 24.0689 20.3958 23.5836 20.0225C19.8904 17.181 14.8492 16.0655 9.59481 17.8882C5.37772 19.3509 2.08941 22.813 0.750304 27.1391C-2.4529 37.4872 5.04892 46.9996 14.7329 46.9996C18.1032 46.9996 21.2009 45.8391 23.6801 43.8971C24.1484 43.5303 24.2952 42.8753 24.0501 42.3276L22.4725 38.8041Z" fill="#6C7993"/>
<path d="M87.2489 27.1394C85.9098 22.8133 82.6215 19.3513 78.4044 17.8885C75.4197 16.8531 72.504 16.7669 69.8647 17.4055C65.4627 18.4063 62.2745 20.5312 59.4723 26.6567L53.8493 39.0748L44.305 17.7141C44.1144 17.2883 43.6975 17.0146 43.2379 17.0138L39.0683 17.0072C38.2127 17.0058 37.6428 17.9067 37.9979 18.6994L50.3763 46.2552C50.5671 46.6813 50.9846 46.9693 51.4444 46.9695L51.6469 46.986H56.328C56.4221 46.986 56.5163 46.9662 56.6056 46.9352C56.9277 46.8235 57.1991 46.5895 57.3401 46.2663C57.3401 46.2663 63.5375 31.905 63.6096 31.7318C65.4954 27.2042 66.6398 25.3184 69.6329 24.0231C71.8976 23.0433 74.5755 22.924 77.1647 24.118C78.967 24.9491 80.3844 26.4678 81.1383 28.33C81.6154 29.4955 81.8559 30.6938 81.8956 31.8744C81.963 36.7853 78.0743 40.788 73.2662 40.788C70.9898 40.788 68.9252 39.886 67.3856 38.4178C66.8042 37.8634 65.8571 38.0667 65.5267 38.8046L63.9489 42.3282C63.7039 42.8758 63.8506 43.5306 64.3192 43.8976C66.7982 45.8395 69.8959 47.0001 73.2662 47.0001C82.9503 46.9999 90.452 37.4876 87.2489 27.1394Z" fill="#6C7993"/>
</svg>
