<?xml version="1.0" encoding="UTF-8"?>
<svg xmlns="http://www.w3.org/2000/svg" xmlns:xlink="http://www.w3.org/1999/xlink" width="181px" height="56px" viewBox="0 0 452 56" version="1.1">
<g id="surface1">
<path style=" stroke:none;fill-rule:nonzero;fill:rgb(42.352942%,47.450981%,57.647061%);fill-opacity:1;" d="M 231.191406 1.617188 C 263.046875 1.617188 263.046875 1.617188 270.386719 6.644531 C 270.492188 6.71875 270.492188 6.71875 270.605469 6.789062 C 271.476562 7.390625 272.265625 8.027344 273.03125 8.761719 C 273.152344 8.867188 273.273438 8.972656 273.390625 9.074219 C 273.472656 9.148438 273.472656 9.148438 273.550781 9.21875 C 273.695312 9.339844 273.832031 9.457031 273.96875 9.578125 C 274.460938 10.019531 274.894531 10.464844 275.300781 10.984375 C 275.5 11.242188 275.71875 11.488281 275.925781 11.738281 C 277.210938 13.277344 278.265625 15.0625 279.113281 16.882812 C 279.152344 16.980469 279.199219 17.074219 279.25 17.179688 C 280.167969 19.242188 280.679688 21.429688 281.03125 23.652344 C 281.039062 23.714844 281.046875 23.773438 281.0625 23.835938 C 281.261719 25.15625 281.324219 26.457031 281.324219 27.792969 C 281.324219 27.871094 281.324219 27.945312 281.324219 28.023438 C 281.316406 30.980469 280.964844 33.816406 280.078125 36.648438 C 280.054688 36.726562 280.03125 36.800781 280.007812 36.878906 C 278.96875 40.148438 277.210938 43 274.964844 45.558594 C 274.902344 45.636719 274.832031 45.71875 274.765625 45.796875 C 273.933594 46.742188 273.066406 47.589844 272.066406 48.339844 C 271.875 48.484375 271.683594 48.628906 271.5 48.769531 C 270.546875 49.488281 269.582031 50.113281 268.542969 50.679688 C 268.460938 50.722656 268.390625 50.761719 268.3125 50.808594 C 263.734375 53.351562 258.628906 54.230469 253.484375 54.652344 C 253.410156 54.652344 253.339844 54.660156 253.265625 54.667969 C 252.835938 54.699219 252.414062 54.726562 251.980469 54.742188 C 251.878906 54.742188 251.78125 54.75 251.675781 54.75 C 247.898438 54.882812 244.113281 54.820312 240.332031 54.691406 C 240.15625 54.691406 240.15625 54.691406 239.980469 54.683594 C 239.421875 54.667969 238.871094 54.644531 238.3125 54.628906 C 235.9375 54.550781 233.574219 54.515625 231.191406 54.46875 C 231.191406 37.03125 231.191406 19.585938 231.191406 1.617188 Z M 243.441406 12.207031 C 243.441406 22.628906 243.441406 33.050781 243.441406 43.792969 C 245.285156 43.871094 245.285156 43.871094 247.132812 43.902344 C 247.195312 43.902344 247.257812 43.902344 247.324219 43.902344 C 247.660156 43.902344 247.996094 43.902344 248.320312 43.902344 C 248.59375 43.902344 248.867188 43.902344 249.136719 43.910156 C 250.75 43.917969 252.324219 43.886719 253.921875 43.617188 C 253.996094 43.609375 254.058594 43.59375 254.128906 43.585938 C 255.910156 43.289062 257.636719 42.519531 259.21875 41.675781 C 259.441406 41.554688 259.675781 41.441406 259.898438 41.332031 C 260.546875 41.019531 261.175781 40.675781 261.808594 40.316406 C 262.183594 40.109375 262.558594 39.90625 262.949219 39.714844 C 263.109375 39.636719 263.269531 39.554688 263.429688 39.46875 C 263.507812 39.4375 263.582031 39.394531 263.660156 39.355469 C 265.761719 38.214844 267.105469 35.265625 267.769531 33.074219 C 268.101562 31.933594 268.351562 30.78125 268.453125 29.589844 C 268.460938 29.496094 268.460938 29.496094 268.472656 29.390625 C 268.804688 25.546875 267.800781 21.558594 265.457031 18.472656 C 265.394531 18.386719 265.339844 18.304688 265.273438 18.226562 C 262.511719 14.652344 258.40625 12.933594 254.027344 12.375 C 250.511719 11.953125 246.972656 12.207031 243.441406 12.207031 Z M 243.441406 12.207031 "/>
<path style=" stroke:none;fill-rule:nonzero;fill:rgb(42.352942%,47.450981%,57.647061%);fill-opacity:1;" d="M 346.574219 1.53125 C 374.023438 1.53125 374.023438 1.53125 376.132812 1.859375 C 376.277344 1.882812 376.277344 1.882812 376.429688 1.90625 C 380.257812 2.523438 383.957031 3.984375 386.824219 6.652344 C 386.96875 6.796875 387.121094 6.925781 387.277344 7.046875 C 387.605469 7.332031 387.871094 7.636719 388.140625 7.972656 C 388.214844 8.042969 388.277344 8.125 388.339844 8.203125 C 390.347656 10.691406 391.511719 13.902344 391.839844 17.058594 C 391.855469 17.171875 391.855469 17.171875 391.871094 17.289062 C 391.945312 18.074219 391.953125 18.855469 391.953125 19.648438 C 391.953125 19.71875 391.953125 19.792969 391.953125 19.863281 C 391.945312 21.6875 391.792969 23.40625 391.3125 25.179688 C 391.296875 25.242188 391.28125 25.308594 391.257812 25.378906 C 390.402344 28.457031 388.492188 31.363281 385.945312 33.289062 C 385.898438 33.332031 385.847656 33.371094 385.792969 33.410156 C 383.90625 34.871094 381.78125 35.785156 379.511719 36.503906 C 379.304688 36.566406 379.097656 36.648438 378.898438 36.734375 C 379.296875 37.320312 379.722656 37.855469 380.207031 38.375 C 380.535156 38.726562 380.847656 39.09375 381.152344 39.476562 C 381.398438 39.78125 381.664062 40.082031 381.925781 40.386719 C 382.582031 41.148438 383.238281 41.90625 383.859375 42.679688 C 384.226562 43.136719 384.609375 43.566406 384.992188 44.007812 C 385.28125 44.34375 385.5625 44.671875 385.832031 45.015625 C 386.082031 45.320312 386.335938 45.621094 386.609375 45.910156 C 386.945312 46.285156 387.261719 46.667969 387.574219 47.0625 C 387.824219 47.355469 388.0625 47.644531 388.308594 47.933594 C 388.773438 48.476562 389.238281 49.019531 389.699219 49.5625 C 389.859375 49.753906 390.019531 49.945312 390.179688 50.136719 C 390.257812 50.234375 390.347656 50.328125 390.425781 50.425781 C 390.625 50.664062 390.835938 50.90625 391.035156 51.144531 C 391.472656 51.671875 391.914062 52.191406 392.34375 52.71875 C 392.496094 52.910156 392.65625 53.09375 392.816406 53.277344 C 392.855469 53.335938 392.902344 53.382812 392.953125 53.4375 C 393.039062 53.535156 393.128906 53.636719 393.214844 53.742188 C 393.519531 54.09375 393.519531 54.09375 393.519531 54.382812 C 392.695312 54.484375 391.871094 54.492188 391.050781 54.5 C 390.890625 54.5 390.730469 54.5 390.578125 54.507812 C 390.15625 54.507812 389.730469 54.515625 389.308594 54.515625 C 389.042969 54.523438 388.789062 54.523438 388.523438 54.523438 C 387.390625 54.539062 386.265625 54.550781 385.128906 54.558594 C 384.898438 54.558594 384.667969 54.566406 384.425781 54.566406 C 383.644531 54.574219 382.851562 54.582031 382.0625 54.582031 C 381.832031 54.582031 381.597656 54.582031 381.367188 54.589844 C 381.046875 54.589844 380.726562 54.589844 380.410156 54.589844 C 380.320312 54.589844 380.222656 54.589844 380.128906 54.597656 C 379.5625 54.589844 379.105469 54.539062 378.652344 54.164062 C 378.617188 54.117188 378.578125 54.070312 378.539062 54.023438 C 378.5 53.964844 378.449219 53.910156 378.410156 53.855469 C 378.28125 53.679688 378.164062 53.492188 378.042969 53.316406 C 377.707031 52.796875 377.300781 52.34375 376.902344 51.878906 C 376.734375 51.671875 376.566406 51.464844 376.390625 51.257812 C 376.046875 50.824219 375.6875 50.410156 375.328125 49.984375 C 375.054688 49.683594 374.800781 49.363281 374.535156 49.042969 C 374.152344 48.570312 373.753906 48.109375 373.355469 47.636719 C 372.800781 46.996094 372.257812 46.355469 371.722656 45.703125 C 371.378906 45.269531 371.019531 44.847656 370.660156 44.429688 C 370.324219 44.039062 370 43.648438 369.679688 43.25 C 369.390625 42.90625 369.101562 42.5625 368.808594 42.226562 C 368.542969 41.914062 368.28125 41.601562 368.023438 41.28125 C 367.707031 40.890625 367.386719 40.515625 367.050781 40.132812 C 366.585938 39.597656 366.132812 39.054688 365.683594 38.5 C 365.621094 38.421875 365.554688 38.339844 365.492188 38.261719 C 365.332031 38.0625 365.332031 38.0625 365.332031 37.886719 C 365.261719 37.886719 365.1875 37.886719 365.117188 37.886719 C 364.429688 37.886719 363.75 37.886719 363.0625 37.886719 C 362.71875 37.886719 362.367188 37.886719 362.015625 37.886719 C 361.671875 37.894531 361.339844 37.894531 360.996094 37.894531 C 360.867188 37.894531 360.738281 37.894531 360.609375 37.894531 C 360.425781 37.894531 360.242188 37.894531 360.066406 37.894531 C 359.964844 37.894531 359.859375 37.894531 359.757812 37.894531 C 359.378906 37.878906 359.011719 37.839844 358.636719 37.796875 C 358.636719 43.273438 358.636719 48.746094 358.636719 54.382812 C 354.660156 54.382812 350.679688 54.382812 346.574219 54.382812 C 346.574219 36.941406 346.574219 19.496094 346.574219 1.53125 Z M 358.636719 11.9375 C 358.636719 17.125 358.636719 22.308594 358.636719 27.648438 C 359.933594 27.71875 359.933594 27.71875 361.21875 27.746094 C 361.320312 27.753906 361.417969 27.753906 361.515625 27.753906 C 361.832031 27.753906 362.152344 27.753906 362.464844 27.753906 C 362.6875 27.753906 362.910156 27.753906 363.136719 27.753906 C 363.605469 27.753906 364.078125 27.753906 364.542969 27.753906 C 365.078125 27.753906 365.613281 27.753906 366.148438 27.753906 C 366.667969 27.753906 367.1875 27.753906 367.714844 27.753906 C 367.929688 27.753906 368.144531 27.753906 368.367188 27.761719 C 371.605469 27.769531 375.113281 27.679688 377.582031 25.265625 C 378.984375 23.714844 379.695312 21.558594 379.625 19.457031 C 379.457031 17.492188 378.835938 15.429688 377.316406 14.054688 C 374.574219 11.921875 371.285156 11.921875 367.960938 11.929688 C 367.664062 11.929688 367.371094 11.929688 367.074219 11.929688 C 366.210938 11.929688 365.347656 11.9375 364.484375 11.9375 C 361.59375 11.9375 361.59375 11.9375 358.636719 11.9375 Z M 358.636719 11.9375 "/>
<path style=" stroke:none;fill-rule:nonzero;fill:rgb(42.352942%,47.450981%,57.647061%);fill-opacity:1;" d="M 144.324219 5.277344 C 144.445312 5.320312 144.445312 5.320312 144.558594 5.359375 C 144.78125 5.429688 144.996094 5.503906 145.210938 5.574219 C 145.277344 5.597656 145.339844 5.621094 145.40625 5.640625 C 146.691406 6.09375 147.707031 7.132812 148.671875 8.058594 C 148.71875 8.109375 148.777344 8.15625 148.832031 8.210938 C 149.558594 8.914062 150.238281 9.632812 150.835938 10.449219 C 150.964844 10.625 151.101562 10.792969 151.230469 10.96875 C 153.433594 13.910156 154.96875 17.21875 155.894531 20.765625 C 155.925781 20.878906 155.925781 20.878906 155.957031 21 C 157.828125 28.167969 156.660156 36.136719 152.945312 42.511719 C 152.019531 44.070312 150.941406 45.535156 149.726562 46.886719 C 149.679688 46.941406 149.628906 46.996094 149.574219 47.050781 C 148.640625 48.089844 147.640625 48.996094 146.53125 49.851562 C 146.386719 49.960938 146.242188 50.082031 146.097656 50.195312 C 141.378906 53.957031 135.066406 55.699219 129.105469 55.667969 C 128.777344 55.667969 128.460938 55.667969 128.132812 55.667969 C 126.460938 55.675781 124.863281 55.570312 123.21875 55.269531 C 123.144531 55.253906 123.074219 55.246094 123.003906 55.226562 C 122.628906 55.15625 122.257812 55.078125 121.890625 54.988281 C 121.78125 54.957031 121.675781 54.933594 121.566406 54.910156 C 119.765625 54.460938 118.023438 53.847656 116.347656 53.0625 C 116.226562 53.007812 116.226562 53.007812 116.109375 52.949219 C 113.757812 51.839844 111.648438 50.386719 109.742188 48.628906 C 109.574219 48.46875 109.574219 48.46875 109.390625 48.386719 C 109.390625 48.324219 109.390625 48.265625 109.390625 48.210938 C 109.332031 48.1875 109.285156 48.164062 109.230469 48.140625 C 109.03125 48.027344 108.902344 47.914062 108.742188 47.757812 C 108.6875 47.707031 108.628906 47.652344 108.574219 47.597656 C 108.519531 47.539062 108.460938 47.476562 108.40625 47.421875 C 108.34375 47.355469 108.285156 47.300781 108.222656 47.238281 C 107.757812 46.765625 107.328125 46.261719 106.921875 45.734375 C 106.855469 45.652344 106.792969 45.574219 106.71875 45.484375 C 102.09375 39.628906 100.21875 32.109375 101.046875 24.722656 C 101.574219 20.34375 102.894531 15.875 105.5 12.257812 C 105.601562 12.113281 105.707031 11.96875 105.808594 11.816406 C 107.144531 9.875 108.765625 8.011719 110.621094 6.558594 C 110.675781 6.519531 110.730469 6.46875 110.785156 6.429688 C 114.328125 3.625 118.34375 1.929688 122.867188 1.53125 C 122.960938 1.515625 123.058594 1.507812 123.164062 1.5 C 130.335938 0.890625 137.597656 3.007812 144.324219 5.277344 Z M 120.484375 14.054688 C 120.414062 14.109375 120.335938 14.167969 120.253906 14.214844 C 116.714844 16.714844 114.679688 20.535156 113.933594 24.753906 C 113.871094 25.132812 113.832031 25.507812 113.789062 25.882812 C 113.78125 25.976562 113.773438 26.074219 113.765625 26.179688 C 113.375 30.675781 114.40625 35.449219 117.273438 39.019531 C 117.410156 39.171875 117.539062 39.324219 117.664062 39.46875 C 117.707031 39.515625 117.746094 39.5625 117.785156 39.605469 C 118.152344 40.035156 118.152344 40.035156 118.550781 40.441406 C 118.609375 40.441406 118.664062 40.441406 118.726562 40.441406 C 118.769531 40.570312 118.769531 40.570312 118.816406 40.707031 C 118.984375 40.867188 119.160156 41.003906 119.34375 41.148438 C 119.398438 41.1875 119.449219 41.234375 119.511719 41.273438 C 121.757812 42.992188 124.289062 44.039062 127.09375 44.414062 C 127.171875 44.421875 127.253906 44.429688 127.332031 44.449219 C 130.976562 44.839844 134.960938 43.816406 137.839844 41.5 C 138.046875 41.324219 138.246094 41.148438 138.445312 40.960938 C 138.613281 40.8125 138.789062 40.660156 138.972656 40.507812 C 141.863281 37.964844 143.261719 34.195312 143.824219 30.46875 C 143.839844 30.375 143.855469 30.277344 143.871094 30.183594 C 143.917969 29.832031 143.933594 29.476562 143.933594 29.125 C 143.933594 29.054688 143.933594 28.984375 143.933594 28.910156 C 143.957031 26.546875 143.742188 24.355469 143.03125 22.085938 C 143.015625 22.023438 142.992188 21.957031 142.976562 21.886719 C 142.335938 19.785156 141.121094 17.914062 139.683594 16.261719 C 139.628906 16.195312 139.628906 16.195312 139.5625 16.125 C 138.695312 15.132812 137.75 14.285156 136.601562 13.613281 C 136.503906 13.558594 136.410156 13.503906 136.304688 13.445312 C 131.4375 10.671875 125.105469 10.875 120.484375 14.054688 Z M 120.484375 14.054688 "/>
<path style=" stroke:none;fill-rule:nonzero;fill:rgb(42.352942%,47.450981%,57.647061%);fill-opacity:1;" d="M 168.574219 1.617188 C 172.617188 1.617188 176.660156 1.617188 180.820312 1.617188 C 180.917969 3.847656 180.917969 3.847656 180.917969 4.832031 C 180.917969 4.953125 180.917969 5.0625 180.917969 5.183594 C 180.917969 5.488281 180.917969 5.796875 180.925781 6.109375 C 180.925781 6.445312 180.925781 6.78125 180.925781 7.117188 C 180.925781 7.699219 180.925781 8.285156 180.925781 8.859375 C 180.925781 9.707031 180.933594 10.546875 180.933594 11.394531 C 180.933594 12.757812 180.941406 14.125 180.941406 15.5 C 180.941406 15.582031 180.941406 15.660156 180.941406 15.75 C 180.941406 16.90625 180.949219 18.066406 180.949219 19.226562 C 180.949219 19.3125 180.949219 19.394531 180.949219 19.472656 C 180.949219 19.550781 180.949219 19.640625 180.949219 19.71875 C 180.949219 21.085938 180.957031 22.453125 180.957031 23.820312 C 180.957031 24.660156 180.964844 25.5 180.964844 26.335938 C 180.964844 26.914062 180.964844 27.488281 180.964844 28.0625 C 180.964844 28.398438 180.964844 28.726562 180.964844 29.054688 C 180.964844 33.484375 181.371094 37.863281 184.519531 41.234375 C 186.53125 43.257812 189.402344 44.304688 192.222656 44.34375 C 195.410156 44.296875 198.207031 43.082031 200.492188 40.859375 C 203.40625 37.734375 203.671875 33.089844 203.660156 29.054688 C 203.660156 28.6875 203.671875 28.320312 203.671875 27.953125 C 203.671875 27.3125 203.671875 26.679688 203.671875 26.042969 C 203.671875 25.121094 203.671875 24.203125 203.679688 23.285156 C 203.679688 21.796875 203.679688 20.304688 203.679688 18.816406 C 203.6875 17.371094 203.6875 15.917969 203.6875 14.46875 C 203.6875 14.34375 203.6875 14.34375 203.6875 14.207031 C 203.6875 13.222656 203.695312 12.246094 203.695312 11.273438 C 203.695312 11.183594 203.695312 11.105469 203.695312 11.015625 C 203.695312 10.671875 203.695312 10.328125 203.695312 9.984375 C 203.695312 8.988281 203.703125 7.980469 203.703125 6.980469 C 203.703125 6.359375 203.703125 5.726562 203.703125 5.101562 C 203.703125 4.742188 203.703125 4.375 203.703125 4.015625 C 203.703125 3.6875 203.703125 3.351562 203.703125 3.027344 C 203.703125 2.847656 203.703125 2.671875 203.703125 2.488281 C 203.703125 2.339844 203.703125 2.339844 203.703125 2.179688 C 203.703125 2.089844 203.703125 2.003906 203.703125 1.90625 C 203.71875 1.707031 203.71875 1.707031 203.804688 1.617188 C 203.964844 1.609375 204.125 1.601562 204.277344 1.601562 C 204.4375 1.601562 204.4375 1.601562 204.597656 1.601562 C 204.765625 1.601562 204.765625 1.601562 204.941406 1.601562 C 205.058594 1.601562 205.179688 1.601562 205.300781 1.601562 C 205.628906 1.601562 205.953125 1.601562 206.28125 1.601562 C 206.625 1.609375 206.96875 1.609375 207.3125 1.609375 C 207.96875 1.609375 208.617188 1.609375 209.261719 1.609375 C 210.003906 1.609375 210.742188 1.609375 211.484375 1.609375 C 213 1.609375 214.527344 1.609375 216.046875 1.617188 C 216.140625 1.890625 216.148438 2.082031 216.148438 2.378906 C 216.148438 2.53125 216.148438 2.53125 216.148438 2.691406 C 216.148438 2.800781 216.148438 2.914062 216.148438 3.035156 C 216.148438 3.152344 216.148438 3.28125 216.148438 3.402344 C 216.148438 3.738281 216.148438 4.074219 216.148438 4.40625 C 216.148438 4.777344 216.148438 5.136719 216.148438 5.503906 C 216.148438 6.214844 216.148438 6.925781 216.148438 7.636719 C 216.148438 8.210938 216.148438 8.796875 216.148438 9.378906 C 216.148438 11.023438 216.148438 12.664062 216.148438 14.308594 C 216.148438 14.445312 216.148438 14.445312 216.148438 14.582031 C 216.148438 14.71875 216.148438 14.71875 216.148438 14.851562 C 216.148438 16.292969 216.148438 17.722656 216.15625 19.160156 C 216.15625 20.640625 216.15625 22.109375 216.15625 23.589844 C 216.15625 24.417969 216.15625 25.242188 216.15625 26.074219 C 216.15625 26.777344 216.15625 27.488281 216.15625 28.191406 C 216.15625 28.550781 216.15625 28.910156 216.15625 29.269531 C 216.164062 31.386719 216.125 33.507812 215.804688 35.601562 C 215.78125 35.753906 215.78125 35.753906 215.757812 35.902344 C 215.109375 40.117188 213.59375 44.199219 210.851562 47.5 C 210.789062 47.570312 210.789062 47.570312 210.734375 47.652344 C 209.550781 49.097656 208.238281 50.394531 206.714844 51.472656 C 206.648438 51.519531 206.585938 51.558594 206.523438 51.609375 C 202.917969 54.179688 198.355469 55.636719 193.929688 55.652344 C 193.8125 55.652344 193.683594 55.652344 193.5625 55.652344 C 193.308594 55.660156 193.042969 55.660156 192.789062 55.660156 C 192.53125 55.660156 192.277344 55.660156 192.015625 55.660156 C 189.34375 55.699219 186.820312 55.355469 184.257812 54.566406 C 184.175781 54.539062 184.097656 54.515625 184.015625 54.484375 C 181.644531 53.742188 179.320312 52.597656 177.386719 51.03125 C 177.304688 50.976562 177.234375 50.914062 177.152344 50.855469 C 176.691406 50.488281 176.242188 50.097656 175.8125 49.699219 C 175.621094 49.523438 175.621094 49.523438 175.355469 49.355469 C 175.355469 49.296875 175.355469 49.234375 175.355469 49.179688 C 175.308594 49.15625 175.261719 49.136719 175.203125 49.113281 C 172.382812 47.523438 170.394531 42.351562 169.554688 39.445312 C 169.269531 38.40625 169.035156 37.359375 168.851562 36.304688 C 168.828125 36.160156 168.828125 36.160156 168.804688 36.007812 C 168.460938 33.898438 168.460938 31.757812 168.46875 29.628906 C 168.46875 29.253906 168.46875 28.878906 168.460938 28.511719 C 168.460938 27.785156 168.460938 27.058594 168.46875 26.328125 C 168.46875 25.484375 168.46875 24.628906 168.46875 23.78125 C 168.46875 22.269531 168.46875 20.757812 168.46875 19.25 C 168.46875 17.777344 168.46875 16.316406 168.46875 14.84375 C 168.46875 14.757812 168.46875 14.660156 168.46875 14.574219 C 168.46875 14.476562 168.46875 14.390625 168.46875 14.292969 C 168.46875 12.625 168.46875 10.953125 168.46875 9.273438 C 168.46875 8.683594 168.46875 8.09375 168.46875 7.5 C 168.46875 6.78125 168.46875 6.0625 168.476562 5.351562 C 168.476562 4.984375 168.476562 4.617188 168.476562 4.25 C 168.476562 3.914062 168.476562 3.578125 168.476562 3.242188 C 168.476562 3.121094 168.476562 3 168.476562 2.882812 C 168.476562 2.714844 168.476562 2.546875 168.476562 2.386719 C 168.476562 2.289062 168.476562 2.203125 168.476562 2.105469 C 168.484375 1.882812 168.484375 1.882812 168.574219 1.617188 Z M 168.574219 1.617188 "/>
<path style=" stroke:none;fill-rule:nonzero;fill:rgb(42.352942%,47.450981%,57.647061%);fill-opacity:1;" d="M 418.628906 1.601562 C 418.757812 1.601562 418.757812 1.601562 418.882812 1.601562 C 418.980469 1.601562 419.066406 1.601562 419.171875 1.601562 C 419.277344 1.601562 419.378906 1.601562 419.492188 1.601562 C 419.59375 1.601562 419.707031 1.601562 419.820312 1.601562 C 420.121094 1.601562 420.425781 1.601562 420.730469 1.601562 C 421.042969 1.609375 421.359375 1.609375 421.671875 1.609375 C 422.273438 1.609375 422.871094 1.609375 423.46875 1.609375 C 424.148438 1.609375 424.835938 1.609375 425.515625 1.609375 C 426.914062 1.609375 428.320312 1.609375 429.71875 1.617188 C 430.917969 4.382812 430.917969 4.382812 431.476562 5.695312 C 431.628906 6.0625 431.777344 6.429688 431.9375 6.796875 C 431.972656 6.878906 432.003906 6.957031 432.035156 7.039062 C 432.480469 8.078125 432.921875 9.125 433.367188 10.164062 C 433.433594 10.3125 433.433594 10.3125 433.496094 10.472656 C 434.089844 11.855469 434.679688 13.246094 435.269531 14.628906 C 435.894531 16.085938 436.515625 17.539062 437.132812 18.992188 C 437.644531 20.199219 438.15625 21.40625 438.675781 22.613281 C 439.167969 23.773438 439.664062 24.929688 440.152344 26.089844 C 440.207031 26.21875 440.207031 26.21875 440.265625 26.34375 C 440.414062 26.707031 440.566406 27.066406 440.71875 27.425781 C 441.820312 30.015625 442.925781 32.601562 444.027344 35.191406 C 444.675781 36.695312 445.3125 38.207031 445.953125 39.707031 C 446 39.804688 446.039062 39.90625 446.078125 40.011719 C 446.464844 40.90625 446.847656 41.808594 447.230469 42.714844 C 448.195312 44.984375 449.164062 47.253906 450.128906 49.523438 C 450.179688 49.625 450.21875 49.730469 450.265625 49.832031 C 450.347656 50.035156 450.433594 50.226562 450.523438 50.425781 C 450.601562 50.617188 450.683594 50.808594 450.761719 50.992188 C 450.960938 51.464844 451.167969 51.9375 451.375 52.398438 C 451.417969 52.488281 451.457031 52.582031 451.503906 52.679688 C 451.578125 52.847656 451.65625 53.023438 451.738281 53.199219 C 451.769531 53.269531 451.808594 53.351562 451.839844 53.429688 C 451.886719 53.535156 451.886719 53.535156 451.9375 53.636719 C 452 53.855469 452 53.855469 452 54.46875 C 447.902344 54.46875 443.804688 54.46875 439.585938 54.46875 C 439.089844 53.476562 439.089844 53.476562 438.898438 53.015625 C 438.859375 52.910156 438.816406 52.808594 438.777344 52.695312 C 438.730469 52.582031 438.691406 52.480469 438.640625 52.367188 C 438.601562 52.246094 438.554688 52.136719 438.507812 52.015625 C 438.164062 51.144531 437.820312 50.273438 437.484375 49.402344 C 437.203125 48.691406 436.925781 47.988281 436.636719 47.277344 C 436.574219 47.109375 436.5 46.941406 436.4375 46.773438 C 436.238281 46.269531 436.039062 45.773438 435.835938 45.277344 C 435.78125 45.160156 435.78125 45.160156 435.734375 45.03125 C 435.671875 44.878906 435.613281 44.734375 435.550781 44.582031 C 435.421875 44.269531 435.351562 44.054688 435.351562 43.703125 C 427.96875 43.703125 420.585938 43.703125 412.980469 43.703125 C 412.957031 43.910156 412.925781 44.113281 412.894531 44.328125 C 412.84375 44.511719 412.84375 44.511719 412.78125 44.664062 C 412.75 44.75 412.75 44.75 412.707031 44.847656 C 412.683594 44.910156 412.660156 44.976562 412.636719 45.039062 C 412.605469 45.101562 412.582031 45.175781 412.550781 45.246094 C 412.460938 45.46875 412.375 45.695312 412.285156 45.925781 C 412.222656 46.085938 412.15625 46.246094 412.09375 46.40625 C 411.894531 46.917969 411.6875 47.429688 411.488281 47.941406 C 411.453125 48.027344 411.414062 48.117188 411.382812 48.203125 C 411.078125 48.96875 410.765625 49.738281 410.464844 50.503906 C 410.167969 51.242188 409.871094 51.976562 409.585938 52.710938 C 409.5625 52.765625 409.546875 52.832031 409.519531 52.894531 C 409.410156 53.160156 409.304688 53.429688 409.203125 53.703125 C 409.167969 53.789062 409.128906 53.878906 409.097656 53.972656 C 409.066406 54.054688 409.035156 54.132812 409 54.214844 C 408.929688 54.382812 408.929688 54.382812 408.84375 54.46875 C 408.683594 54.484375 408.523438 54.484375 408.355469 54.484375 C 408.25 54.484375 408.148438 54.484375 408.035156 54.484375 C 407.921875 54.484375 407.804688 54.484375 407.683594 54.484375 C 407.5625 54.484375 407.4375 54.484375 407.316406 54.484375 C 406.980469 54.484375 406.644531 54.484375 406.308594 54.484375 C 405.957031 54.484375 405.605469 54.484375 405.253906 54.476562 C 404.589844 54.476562 403.929688 54.476562 403.265625 54.476562 C 402.515625 54.476562 401.753906 54.476562 400.996094 54.476562 C 399.445312 54.476562 397.890625 54.476562 396.339844 54.46875 C 396.394531 53.996094 396.507812 53.589844 396.699219 53.140625 C 396.722656 53.070312 396.753906 53 396.785156 52.917969 C 396.898438 52.648438 397.011719 52.367188 397.128906 52.085938 C 397.152344 52.03125 397.179688 51.976562 397.203125 51.910156 C 397.871094 50.3125 398.542969 48.722656 399.222656 47.132812 C 399.863281 45.644531 400.484375 44.160156 401.109375 42.65625 C 401.132812 42.59375 401.164062 42.527344 401.1875 42.457031 C 401.21875 42.394531 401.246094 42.328125 401.277344 42.257812 C 401.78125 41.035156 402.300781 39.8125 402.816406 38.597656 C 403.25 37.582031 403.679688 36.566406 404.105469 35.550781 C 404.542969 34.503906 404.984375 33.457031 405.421875 32.417969 C 405.804688 31.507812 406.191406 30.605469 406.574219 29.703125 C 407.210938 28.160156 407.867188 26.617188 408.515625 25.074219 C 408.769531 24.46875 409.027344 23.867188 409.28125 23.261719 C 409.90625 21.765625 410.535156 20.28125 411.167969 18.792969 C 411.542969 17.898438 411.917969 17.003906 412.292969 16.109375 C 413.226562 13.871094 414.171875 11.625 415.128906 9.394531 C 415.496094 8.523438 415.863281 7.660156 416.230469 6.796875 C 416.265625 6.710938 416.265625 6.710938 416.304688 6.621094 C 416.601562 5.910156 416.894531 5.191406 417.175781 4.472656 C 417.335938 4.089844 417.511719 3.703125 417.695312 3.320312 C 417.871094 2.929688 418.03125 2.53125 418.191406 2.121094 C 418.382812 1.617188 418.382812 1.617188 418.628906 1.601562 Z M 424.164062 15.644531 C 423.703125 16.59375 423.3125 17.570312 422.925781 18.554688 C 422.75 19 422.574219 19.449219 422.40625 19.894531 C 422.367188 19.992188 422.335938 20.089844 422.296875 20.183594 C 421.90625 21.183594 421.511719 22.183594 421.113281 23.179688 C 421.042969 23.363281 420.96875 23.546875 420.898438 23.722656 C 420.714844 24.179688 420.53125 24.636719 420.355469 25.097656 C 420.171875 25.554688 419.988281 26.011719 419.804688 26.464844 C 419.753906 26.601562 419.753906 26.601562 419.699219 26.738281 C 419.410156 27.457031 419.132812 28.167969 418.84375 28.878906 C 418.628906 29.421875 418.414062 29.964844 418.199219 30.507812 C 418.0625 30.859375 417.917969 31.222656 417.773438 31.574219 C 417.710938 31.738281 417.644531 31.90625 417.574219 32.074219 C 417.488281 32.308594 417.390625 32.539062 417.300781 32.761719 C 417.269531 32.835938 417.246094 32.898438 417.222656 32.972656 C 417.109375 33.242188 417.03125 33.441406 417.03125 33.738281 C 421.746094 33.738281 426.449219 33.738281 431.300781 33.738281 C 431.234375 33.402344 431.164062 33.128906 431.042969 32.820312 C 431.011719 32.722656 430.980469 32.628906 430.941406 32.53125 C 430.910156 32.433594 430.867188 32.332031 430.828125 32.226562 C 430.789062 32.125 430.75 32.019531 430.707031 31.90625 C 430.316406 30.859375 429.910156 29.820312 429.484375 28.792969 C 429.285156 28.273438 429.078125 27.761719 428.871094 27.242188 C 428.800781 27.066406 428.726562 26.882812 428.65625 26.707031 C 428.152344 25.457031 427.65625 24.203125 427.167969 22.957031 C 426.960938 22.4375 426.753906 21.917969 426.554688 21.40625 C 426.53125 21.351562 426.507812 21.292969 426.480469 21.230469 C 425.746094 19.367188 425.003906 17.507812 424.253906 15.644531 C 424.230469 15.644531 424.199219 15.644531 424.164062 15.644531 Z M 424.164062 15.644531 "/>
<path style=" stroke:none;fill-rule:nonzero;fill:rgb(42.352942%,47.450981%,57.647061%);fill-opacity:1;" d="M 27.890625 0.347656 C 27.945312 0.347656 28.003906 0.347656 28.066406 0.347656 C 29.863281 0.347656 31.613281 0.386719 33.378906 0.730469 C 33.476562 0.746094 33.570312 0.773438 33.675781 0.789062 C 37.828125 1.546875 41.742188 3.328125 45.003906 6.03125 C 45.050781 6.070312 45.097656 6.109375 45.15625 6.148438 C 45.492188 6.429688 45.820312 6.710938 46.152344 6.996094 C 46.203125 7.046875 46.25 7.085938 46.304688 7.132812 C 46.457031 7.261719 46.601562 7.390625 46.753906 7.523438 C 46.800781 7.566406 46.839844 7.605469 46.890625 7.644531 C 47.015625 7.757812 47.015625 7.757812 47.207031 7.972656 C 47.207031 8.363281 47.207031 8.363281 46.96875 8.613281 C 46.921875 8.667969 46.863281 8.722656 46.816406 8.78125 C 46.761719 8.835938 46.695312 8.890625 46.640625 8.957031 C 46.585938 9.019531 46.519531 9.074219 46.457031 9.140625 C 46.273438 9.339844 46.082031 9.539062 45.890625 9.730469 C 45.828125 9.792969 45.769531 9.859375 45.707031 9.921875 C 44.84375 10.808594 43.972656 11.679688 43.109375 12.550781 C 42.8125 12.855469 42.519531 13.152344 42.222656 13.445312 C 41.863281 13.8125 41.503906 14.175781 41.144531 14.542969 C 41.007812 14.675781 40.871094 14.8125 40.738281 14.957031 C 40.546875 15.148438 40.355469 15.332031 40.171875 15.523438 C 40.113281 15.582031 40.058594 15.644531 40.003906 15.699219 C 39.617188 16.074219 39.617188 16.074219 39.257812 16.132812 C 38.949219 16.074219 38.835938 15.964844 38.613281 15.75 C 35.769531 13.03125 31.765625 11.65625 27.859375 11.746094 C 24.222656 11.878906 20.683594 13.160156 18.023438 15.691406 C 17.832031 15.867188 17.632812 16.042969 17.425781 16.210938 C 14.722656 18.570312 13.253906 22.605469 12.972656 26.105469 C 12.703125 30.308594 13.453125 34.625 16.027344 38.0625 C 16.074219 38.117188 16.113281 38.164062 16.152344 38.222656 C 16.515625 38.699219 16.867188 39.171875 17.289062 39.589844 C 17.527344 39.828125 17.527344 39.828125 17.527344 40.003906 C 17.585938 40.003906 17.640625 40.003906 17.703125 40.003906 C 17.703125 40.058594 17.703125 40.117188 17.703125 40.179688 C 17.753906 40.195312 17.800781 40.21875 17.855469 40.242188 C 18.085938 40.371094 18.246094 40.523438 18.429688 40.707031 C 19 41.21875 19.613281 41.625 20.261719 42.035156 C 20.355469 42.089844 20.453125 42.152344 20.554688 42.21875 C 24.046875 44.328125 28.363281 44.71875 32.277344 43.769531 C 34.601562 43.160156 37 41.875 38.691406 40.148438 C 38.84375 40.003906 38.84375 40.003906 39.019531 40.003906 C 39.019531 39.941406 39.019531 39.882812 39.019531 39.828125 C 39.164062 39.675781 39.164062 39.675781 39.355469 39.515625 C 39.546875 39.355469 39.722656 39.203125 39.898438 39.027344 C 40.921875 39.101562 42.101562 40.785156 42.789062 41.472656 C 42.941406 41.625 43.09375 41.777344 43.238281 41.929688 C 43.636719 42.328125 44.027344 42.722656 44.421875 43.121094 C 44.828125 43.519531 45.226562 43.929688 45.632812 44.328125 C 46.425781 45.125 47.207031 45.917969 48 46.707031 C 47.878906 47.109375 47.75 47.355469 47.464844 47.667969 C 47.351562 47.78125 47.351562 47.78125 47.25 47.898438 C 47.136719 48.003906 47.136719 48.003906 47.03125 48.117188 C 46.976562 48.179688 46.914062 48.242188 46.855469 48.308594 C 46.464844 48.707031 46.050781 49.066406 45.609375 49.417969 C 45.449219 49.546875 45.292969 49.675781 45.132812 49.808594 C 42.964844 51.632812 40.441406 53.0625 37.78125 54.03125 C 37.710938 54.0625 37.644531 54.085938 37.566406 54.109375 C 36.621094 54.453125 35.671875 54.734375 34.699219 54.972656 C 34.601562 54.996094 34.503906 55.019531 34.410156 55.042969 C 32.414062 55.53125 30.40625 55.683594 28.363281 55.667969 C 28.113281 55.667969 27.859375 55.667969 27.609375 55.675781 C 25.285156 55.691406 23.023438 55.445312 20.765625 54.851562 C 20.707031 54.835938 20.652344 54.820312 20.597656 54.8125 C 15.140625 53.398438 9.753906 50.320312 6.253906 45.820312 C 6.175781 45.726562 6.097656 45.628906 6.015625 45.535156 C 5.257812 44.625 4.601562 43.648438 3.960938 42.648438 C 3.921875 42.585938 3.890625 42.527344 3.851562 42.464844 C 2.148438 39.828125 1.117188 36.78125 0.464844 33.730469 C 0.449219 33.660156 0.429688 33.578125 0.414062 33.507812 C 0.0546875 31.765625 -0.0390625 30.023438 -0.03125 28.246094 C -0.03125 27.902344 -0.03125 27.558594 -0.0390625 27.226562 C -0.0390625 25.875 0.0390625 24.5625 0.261719 23.238281 C 0.273438 23.171875 0.289062 23.117188 0.296875 23.054688 C 0.351562 22.703125 0.421875 22.359375 0.503906 22.015625 C 0.527344 21.910156 0.542969 21.8125 0.566406 21.703125 C 1.476562 17.683594 3.257812 13.824219 5.863281 10.617188 C 6.113281 10.3125 6.34375 10.003906 6.574219 9.691406 C 6.613281 9.644531 6.65625 9.601562 6.695312 9.554688 C 6.75 9.554688 6.808594 9.554688 6.871094 9.554688 C 6.894531 9.507812 6.910156 9.457031 6.933594 9.402344 C 7.0625 9.171875 7.207031 9.019531 7.398438 8.828125 C 7.460938 8.761719 7.535156 8.691406 7.605469 8.621094 C 7.6875 8.539062 7.757812 8.46875 7.828125 8.394531 C 7.949219 8.277344 7.949219 8.277344 8.070312 8.164062 C 8.589844 7.652344 9.109375 7.171875 9.691406 6.734375 C 9.828125 6.628906 9.960938 6.527344 10.097656 6.421875 C 10.9375 5.773438 11.785156 5.167969 12.679688 4.617188 C 12.789062 4.550781 12.894531 4.488281 13 4.414062 C 16.027344 2.554688 19.359375 1.363281 22.847656 0.707031 C 22.921875 0.699219 22.992188 0.683594 23.066406 0.667969 C 23.304688 0.628906 23.542969 0.597656 23.785156 0.554688 C 23.878906 0.539062 23.976562 0.523438 24.078125 0.507812 C 25.34375 0.332031 26.613281 0.347656 27.890625 0.347656 Z M 27.890625 0.347656 "/>
<path style=" stroke:none;fill-rule:nonzero;fill:rgb(42.352942%,47.450981%,57.647061%);fill-opacity:1;" d="M 59.625 1.617188 C 63.667969 1.617188 67.707031 1.617188 71.871094 1.617188 C 71.871094 15.476562 71.871094 29.335938 71.871094 43.617188 C 80.035156 43.617188 88.203125 43.617188 96.621094 43.617188 C 96.621094 47.171875 96.621094 50.722656 96.621094 54.382812 C 84.414062 54.382812 72.207031 54.382812 59.625 54.382812 C 59.625 36.96875 59.625 19.5625 59.625 1.617188 Z M 59.625 1.617188 "/>
<path style=" stroke:none;fill-rule:nonzero;fill:rgb(42.352942%,47.450981%,57.647061%);fill-opacity:1;" d="M 294.347656 43.34375 C 294.429688 43.34375 294.5 43.34375 294.578125 43.34375 C 294.660156 43.34375 294.746094 43.34375 294.828125 43.34375 C 294.964844 43.34375 294.964844 43.34375 295.097656 43.34375 C 295.394531 43.34375 295.699219 43.34375 295.992188 43.34375 C 296.210938 43.34375 296.417969 43.34375 296.632812 43.34375 C 297.160156 43.34375 297.6875 43.34375 298.214844 43.34375 C 298.644531 43.34375 299.078125 43.34375 299.507812 43.34375 C 299.574219 43.34375 299.636719 43.34375 299.699219 43.34375 C 299.820312 43.34375 299.949219 43.34375 300.078125 43.34375 C 301.347656 43.34375 302.609375 43.34375 303.878906 43.34375 C 304.78125 43.34375 305.675781 43.34375 306.578125 43.34375 C 313.890625 43.34375 321.199219 43.359375 328.511719 43.410156 C 328.574219 43.410156 328.636719 43.410156 328.703125 43.417969 C 329.933594 43.425781 331.164062 43.433594 332.394531 43.441406 C 332.394531 47.050781 332.394531 50.664062 332.394531 54.382812 C 317.277344 54.382812 302.167969 54.382812 286.597656 54.382812 C 287.125 53.765625 287.125 53.765625 287.375 53.484375 C 289.683594 50.800781 291.582031 47.957031 293.148438 44.78125 C 293.191406 44.703125 293.230469 44.632812 293.261719 44.550781 C 293.339844 44.390625 293.421875 44.230469 293.5 44.070312 C 293.53125 43.992188 293.574219 43.910156 293.613281 43.832031 C 293.652344 43.761719 293.683594 43.6875 293.71875 43.609375 C 293.882812 43.328125 294.050781 43.34375 294.347656 43.34375 Z M 294.347656 43.34375 "/>
<path style=" stroke:none;fill-rule:nonzero;fill:rgb(42.352942%,47.450981%,57.647061%);fill-opacity:1;" d="M 286.160156 1.617188 C 301.332031 1.617188 316.503906 1.617188 332.128906 1.617188 C 332.128906 5.222656 332.128906 8.835938 332.128906 12.558594 C 319.402344 12.558594 306.667969 12.558594 293.558594 12.558594 C 293.238281 11.886719 292.910156 11.21875 292.582031 10.53125 C 292.382812 10.152344 292.175781 9.785156 291.960938 9.417969 C 291.902344 9.332031 291.855469 9.242188 291.800781 9.15625 C 291.648438 8.90625 291.503906 8.660156 291.351562 8.410156 C 291.3125 8.347656 291.28125 8.285156 291.242188 8.21875 C 289.984375 6.175781 288.46875 4.25 286.75 2.570312 C 286.511719 2.320312 286.511719 2.320312 286.511719 2.144531 C 286.390625 2.089844 286.269531 2.027344 286.160156 1.96875 C 286.160156 1.851562 286.160156 1.738281 286.160156 1.617188 Z M 286.160156 1.617188 "/>
<path style=" stroke:none;fill-rule:nonzero;fill:rgb(42.352942%,47.450981%,57.647061%);fill-opacity:1;" d="M 296.371094 22.351562 C 306.109375 22.351562 315.847656 22.351562 325.875 22.351562 C 325.875 25.960938 325.875 29.574219 325.875 33.289062 C 316.199219 33.289062 306.523438 33.289062 296.546875 33.289062 C 296.546875 31.347656 296.546875 31.347656 296.617188 30.675781 C 296.671875 29.925781 296.65625 29.175781 296.65625 28.429688 C 296.65625 28.335938 296.65625 28.246094 296.65625 28.152344 C 296.65625 26.609375 296.578125 25.082031 296.394531 23.546875 C 296.363281 23.148438 296.371094 22.75 296.371094 22.351562 Z M 296.371094 22.351562 "/>
</g>
</svg>
