<svg width="212" height="64" viewBox="0 0 212 64" fill="none" xmlns="http://www.w3.org/2000/svg">
<path fill-rule="evenodd" clip-rule="evenodd" d="M42.1198 32C42.1198 43.598 32.691 53 21.0599 53C9.42884 53 0 43.598 0 32C0 20.402 9.42884 11 21.0599 11C25.114 11 28.9005 12.1423 32.1135 14.1216C31.2828 14.9509 30.7691 16.0961 30.7691 17.3608C30.7691 19.8922 32.827 21.9443 35.3657 21.9443C36.6766 21.9443 37.8595 21.3971 38.6968 20.5191C40.8614 23.8188 42.1198 27.7629 42.1198 32ZM39.9623 17.3608C39.9623 18.585 39.481 19.6971 38.6968 20.5191C37.0017 17.9352 34.7508 15.7464 32.1135 14.1216C32.9455 13.2911 34.0954 12.7773 35.3657 12.7773C37.9043 12.7773 39.9623 14.8294 39.9623 17.3608ZM24.2062 40.8414C27.7429 39.5926 30.0151 36.3759 30.2238 32.862L35.7978 30.8937C36.4515 37.4428 32.585 43.8369 26.0849 46.132C18.4418 48.8308 10.052 44.8402 7.34555 37.2189C4.63909 29.5977 8.64095 21.2316 16.2841 18.5329C22.8157 16.2265 29.8929 18.8056 33.5022 24.3611L27.9433 26.3239C25.5684 23.6696 21.7335 22.5626 18.1628 23.8235C13.45 25.4876 10.9824 30.6462 12.6511 35.3455C14.32 40.0449 19.4933 42.5055 24.2062 40.8414Z" fill="#6C7993"/>
<path d="M67.0986 35.0563H70.9895C70.9114 36.328 70.5601 37.4569 69.9354 38.4432C69.3195 39.4292 68.4563 40.1993 67.3458 40.753C66.244 41.3066 64.9167 41.5835 63.3638 41.5835C62.1493 41.5835 61.0605 41.3758 60.0975 40.9606C59.1346 40.5365 58.3104 39.9311 57.6251 39.1438C56.9484 38.3565 56.4322 37.4051 56.0765 36.2889C55.7208 35.1731 55.543 33.9232 55.543 32.5391V31.2284C55.543 29.8442 55.7251 28.5944 56.0895 27.4782C56.4625 26.3538 56.9917 25.3979 57.6771 24.6106C58.3711 23.8234 59.1996 23.2179 60.1626 22.7939C61.1256 22.37 62.2013 22.1583 63.3899 22.1583C64.9688 22.1583 66.3004 22.4437 67.3849 23.0145C68.478 23.5856 69.3238 24.3728 69.9224 25.3763C70.5297 26.3798 70.894 27.5217 71.0155 28.802H67.1116C67.0682 28.0407 66.9164 27.3963 66.6561 26.8684C66.3959 26.3322 66.0011 25.93 65.4719 25.6617C64.9514 25.3849 64.2574 25.2465 63.3899 25.2465C62.7392 25.2465 62.171 25.3675 61.6851 25.6097C61.1993 25.8519 60.7916 26.2198 60.4619 26.7128C60.1322 27.2058 59.885 27.8287 59.7201 28.5814C59.564 29.3252 59.4859 30.1989 59.4859 31.2026V32.5391C59.4859 33.5166 59.5597 34.3772 59.7072 35.1213C59.8546 35.8565 60.0802 36.4794 60.3838 36.9899C60.6961 37.4915 61.0952 37.8721 61.581 38.1318C62.0755 38.3826 62.6698 38.508 63.3638 38.508C64.1793 38.508 64.8516 38.3781 65.3808 38.1187C65.91 37.8591 66.3134 37.4743 66.5911 36.9638C66.8774 36.4534 67.0465 35.8175 67.0986 35.0563ZM72.7202 34.4464V34.174C72.7202 33.1445 72.8677 32.1972 73.1627 31.3322C73.4576 30.4585 73.8871 29.7017 74.451 29.0614C75.0149 28.4214 75.7088 27.9239 76.533 27.569C77.3573 27.2058 78.3028 27.0243 79.3699 27.0243C80.4371 27.0243 81.3868 27.2058 82.2196 27.569C83.0525 27.9239 83.7509 28.4214 84.3148 29.0614C84.8875 29.7017 85.3211 30.4585 85.6162 31.3322C85.911 32.1972 86.0587 33.1445 86.0587 34.174V34.4464C86.0587 35.4673 85.911 36.4146 85.6162 37.2883C85.3211 38.1533 84.8875 38.9102 84.3148 39.559C83.7509 40.1993 83.0569 40.6965 82.2327 41.0514C81.4087 41.406 80.4629 41.5835 79.396 41.5835C78.3289 41.5835 77.3789 41.406 76.5461 41.0514C75.7218 40.6965 75.0235 40.1993 74.451 39.559C73.8871 38.9102 73.4576 38.1533 73.1627 37.2883C72.8677 36.4146 72.7202 35.4673 72.7202 34.4464ZM76.4681 34.174V34.4464C76.4681 35.0347 76.52 35.5842 76.6241 36.0943C76.7282 36.6048 76.8931 37.0546 77.1188 37.4438C77.3528 37.8245 77.6565 38.1232 78.0296 38.3394C78.4025 38.5556 78.858 38.6638 79.396 38.6638C79.9166 38.6638 80.3632 38.5556 80.7364 38.3394C81.1092 38.1232 81.4087 37.8245 81.6341 37.4438C81.8598 37.0546 82.0245 36.6048 82.1286 36.0943C82.2416 35.5842 82.2979 35.0347 82.2979 34.4464V34.174C82.2979 33.6029 82.2416 33.0667 82.1286 32.5649C82.0245 32.0547 81.8554 31.6048 81.6211 31.2153C81.3957 30.8176 81.0964 30.5061 80.7233 30.2811C80.3502 30.0563 79.8991 29.9439 79.3699 29.9439C78.8408 29.9439 78.3897 30.0563 78.0166 30.2811C77.6521 30.5061 77.3528 30.8176 77.1188 31.2153C76.8931 31.6048 76.7282 32.0547 76.6241 32.5649C76.52 33.0667 76.4681 33.6029 76.4681 34.174ZM92.0316 30.2811V41.3238H88.2838V27.2836H91.7973L92.0316 30.2811ZM91.4852 33.8106H90.47C90.47 32.7725 90.6046 31.8382 90.8734 31.0077C91.1424 30.1687 91.5196 29.455 92.0055 28.8668C92.4913 28.27 93.0685 27.8157 93.7364 27.5043C94.4129 27.1843 95.1678 27.0243 96.0006 27.0243C96.6599 27.0243 97.2629 27.1195 97.8095 27.3097C98.3561 27.4998 98.8245 27.8027 99.2148 28.2179C99.614 28.6331 99.9174 29.1826 100.126 29.8658C100.343 30.5493 100.451 31.3842 100.451 32.3702V41.3238H96.6774V32.3572C96.6774 31.7344 96.5905 31.2499 96.417 30.9039C96.2435 30.5579 95.9875 30.3157 95.6494 30.1773C95.3196 30.0303 94.9118 29.9569 94.426 29.9569C93.9229 29.9569 93.4849 30.0563 93.1118 30.2553C92.7473 30.4541 92.4438 30.7309 92.2009 31.0858C91.9666 31.4318 91.7887 31.8382 91.6673 32.3055C91.5457 32.7725 91.4852 33.2744 91.4852 33.8106ZM110.914 37.4438C110.914 37.1759 110.836 36.9337 110.679 36.7172C110.523 36.501 110.233 36.302 109.808 36.1204C109.391 35.9302 108.788 35.7572 107.999 35.6013C107.287 35.4457 106.624 35.2509 106.008 35.0175C105.4 34.7753 104.871 34.4854 104.42 34.148C103.978 33.8106 103.631 33.4128 103.379 32.9543C103.127 32.4871 103.002 31.955 103.002 31.3582C103.002 30.7699 103.127 30.2163 103.379 29.6972C103.639 29.1782 104.008 28.7198 104.485 28.3217C104.971 27.9151 105.561 27.5995 106.255 27.3744C106.958 27.1411 107.747 27.0243 108.623 27.0243C109.846 27.0243 110.896 27.2189 111.773 27.6081C112.657 27.9973 113.334 28.5338 113.802 29.2172C114.28 29.8919 114.518 30.6617 114.518 31.5268H110.77C110.77 31.1636 110.692 30.8391 110.536 30.5537C110.389 30.2595 110.155 30.0303 109.833 29.8658C109.521 29.6928 109.114 29.6065 108.61 29.6065C108.194 29.6065 107.834 29.6801 107.53 29.8271C107.227 29.9655 106.992 30.1557 106.827 30.3979C106.671 30.6315 106.593 30.8909 106.593 31.1766C106.593 31.3928 106.637 31.5874 106.723 31.7604C106.819 31.9248 106.971 32.0763 107.179 32.2147C107.387 32.3531 107.656 32.4826 107.986 32.6039C108.324 32.7163 108.741 32.8201 109.235 32.9153C110.25 33.1229 111.157 33.3953 111.955 33.7328C112.753 34.0616 113.386 34.5115 113.855 35.0823C114.323 35.6445 114.557 36.3842 114.557 37.3013C114.557 37.9241 114.418 38.4949 114.141 39.014C113.863 39.533 113.464 39.9873 112.944 40.3765C112.423 40.7571 111.798 41.0556 111.07 41.2717C110.35 41.4794 109.539 41.5835 108.636 41.5835C107.326 41.5835 106.216 41.3498 105.305 40.8825C104.403 40.4155 103.717 39.8229 103.249 39.1048C102.789 38.3781 102.559 37.6343 102.559 36.873H106.112C106.129 37.3835 106.259 37.7943 106.502 38.1057C106.754 38.4172 107.07 38.6419 107.452 38.7803C107.842 38.9188 108.263 38.988 108.714 38.988C109.2 38.988 109.604 38.9232 109.925 38.7934C110.246 38.6549 110.489 38.4734 110.653 38.2486C110.827 38.0149 110.914 37.7467 110.914 37.4438ZM123.888 27.2836V29.9309H115.689V27.2836H123.888ZM117.72 23.8192H121.467V37.0937C121.467 37.5003 121.519 37.8115 121.623 38.0279C121.736 38.2441 121.901 38.3956 122.118 38.4819C122.335 38.56 122.608 38.5988 122.938 38.5988C123.172 38.5988 123.38 38.5902 123.562 38.5727C123.753 38.547 123.914 38.521 124.044 38.4949L124.057 41.246C123.736 41.3498 123.389 41.432 123.016 41.4924C122.643 41.553 122.231 41.5835 121.779 41.5835C120.955 41.5835 120.235 41.4492 119.619 41.181C119.012 40.9041 118.544 40.4632 118.214 39.8575C117.884 39.2521 117.72 38.4562 117.72 37.4699V23.8192ZM132.502 41.5835C131.409 41.5835 130.429 41.4102 129.561 41.0641C128.694 40.7095 127.956 40.2209 127.349 39.5981C126.751 38.9752 126.291 38.2527 125.97 37.4311C125.649 36.6006 125.488 35.7181 125.488 34.7839V34.2648C125.488 33.2007 125.64 32.2277 125.944 31.3452C126.247 30.4629 126.681 29.6973 127.245 29.0484C127.817 28.3995 128.511 27.9023 129.327 27.5563C130.143 27.2014 131.062 27.0243 132.086 27.0243C133.084 27.0243 133.969 27.1887 134.741 27.5173C135.513 27.8459 136.159 28.3131 136.679 28.9188C137.209 29.5242 137.608 30.2509 137.877 31.0985C138.146 31.9378 138.28 32.8721 138.28 33.9016V35.4585H127.089V32.9671H134.597V32.6817C134.597 32.1626 134.502 31.6998 134.311 31.2934C134.129 30.8782 133.851 30.5493 133.478 30.3071C133.105 30.0649 132.628 29.9439 132.047 29.9439C131.552 29.9439 131.127 30.0519 130.772 30.2681C130.416 30.4845 130.125 30.7874 129.9 31.1766C129.683 31.5658 129.518 32.0242 129.405 32.5518C129.301 33.0712 129.249 33.642 129.249 34.2648V34.7839C129.249 35.3461 129.327 35.8651 129.483 36.341C129.648 36.8168 129.878 37.2276 130.173 37.5737C130.477 37.9197 130.841 38.1879 131.266 38.3781C131.7 38.5686 132.19 38.6638 132.736 38.6638C133.413 38.6638 134.042 38.534 134.623 38.2743C135.213 38.0064 135.721 37.6039 136.146 37.0676L137.968 39.04C137.673 39.4638 137.269 39.8705 136.758 40.2597C136.254 40.6489 135.647 40.9692 134.936 41.22C134.224 41.4622 133.413 41.5835 132.502 41.5835ZM144.37 21.3926V41.3238H140.61V21.3926H144.37ZM151.423 21.3926V41.3238H147.663V21.3926H151.423ZM162.12 38.1575V31.9032C162.12 31.4534 162.046 31.0684 161.899 30.7483C161.751 30.4195 161.522 30.1645 161.209 29.9827C160.906 29.8011 160.511 29.7103 160.025 29.7103C159.609 29.7103 159.248 29.7836 158.945 29.9309C158.641 30.0693 158.407 30.2725 158.242 30.5407C158.077 30.8001 157.995 31.1074 157.995 31.462H154.247C154.247 30.8652 154.386 30.2985 154.664 29.762C154.941 29.2258 155.345 28.7544 155.874 28.3477C156.403 27.9325 157.032 27.6081 157.761 27.3744C158.498 27.1411 159.322 27.0243 160.233 27.0243C161.326 27.0243 162.298 27.2058 163.148 27.569C163.998 27.9325 164.666 28.4776 165.152 29.2042C165.647 29.9309 165.894 30.8391 165.894 31.929V37.9371C165.894 38.707 165.942 39.3384 166.037 39.8314C166.132 40.3159 166.271 40.74 166.453 41.1032V41.3238H162.667C162.485 40.9432 162.346 40.4673 162.25 39.8965C162.163 39.3168 162.12 38.7372 162.12 38.1575ZM162.615 32.7725L162.641 34.8877H160.545C160.051 34.8877 159.622 34.9439 159.257 35.0563C158.893 35.1689 158.594 35.3289 158.359 35.5365C158.125 35.7353 157.951 35.9689 157.839 36.2372C157.735 36.5054 157.683 36.7994 157.683 37.1194C157.683 37.4397 157.756 37.7295 157.904 37.9889C158.051 38.2397 158.264 38.4387 158.541 38.5857C158.819 38.7242 159.144 38.7934 159.517 38.7934C160.081 38.7934 160.572 38.681 160.988 38.4562C161.404 38.2311 161.725 37.9543 161.951 37.6257C162.185 37.2969 162.307 36.9854 162.315 36.6914L163.304 38.2743C163.166 38.6292 162.975 38.9968 162.732 39.3775C162.497 39.7581 162.198 40.1171 161.834 40.4543C161.469 40.7832 161.031 41.0556 160.519 41.2717C160.008 41.4794 159.4 41.5835 158.698 41.5835C157.804 41.5835 156.993 41.406 156.264 41.0514C155.544 40.6879 154.972 40.1905 154.547 39.559C154.13 38.9188 153.922 38.1924 153.922 37.3791C153.922 36.6438 154.061 35.9905 154.338 35.4197C154.616 34.8486 155.023 34.3686 155.561 33.9794C156.108 33.5813 156.789 33.2829 157.604 33.0839C158.42 32.8763 159.366 32.7725 160.441 32.7725H162.615ZM175.68 27.2836V29.9309H167.482V27.2836H175.68ZM169.512 23.8192H173.259V37.0937C173.259 37.5003 173.311 37.8115 173.415 38.0279C173.528 38.2441 173.693 38.3956 173.91 38.4819C174.127 38.56 174.4 38.5988 174.73 38.5988C174.964 38.5988 175.172 38.5902 175.354 38.5727C175.545 38.547 175.706 38.521 175.836 38.4949L175.849 41.246C175.528 41.3498 175.181 41.432 174.808 41.4924C174.435 41.553 174.023 41.5835 173.572 41.5835C172.747 41.5835 172.027 41.4492 171.411 41.181C170.804 40.9041 170.336 40.4632 170.006 39.8575C169.676 39.2521 169.512 38.4562 169.512 37.4699L169.512 23.8192ZM181.77 27.2836V41.3238H178.009V27.2836H181.77ZM177.775 23.6243C177.775 23.0795 177.966 22.6297 178.347 22.2751C178.729 21.9202 179.241 21.743 179.883 21.743C180.516 21.743 181.024 21.9202 181.406 22.2751C181.796 22.6297 181.991 23.0795 181.991 23.6243C181.991 24.1694 181.796 24.6192 181.406 24.9741C181.024 25.3287 180.516 25.5059 179.883 25.5059C179.241 25.5059 178.729 25.3287 178.347 24.9741C177.966 24.6192 177.775 24.1694 177.775 23.6243ZM184.268 34.4464V34.174C184.268 33.1445 184.416 32.1972 184.711 31.3322C185.006 30.4585 185.435 29.7017 185.999 29.0614C186.563 28.4214 187.257 27.9239 188.081 27.569C188.905 27.2058 189.851 27.0243 190.918 27.0243C191.985 27.0243 192.935 27.2058 193.768 27.569C194.601 27.9239 195.299 28.4214 195.863 29.0614C196.435 29.7017 196.869 30.4585 197.164 31.3322C197.459 32.1972 197.607 33.1445 197.607 34.174V34.4464C197.607 35.4673 197.459 36.4146 197.164 37.2883C196.869 38.1533 196.435 38.9102 195.863 39.559C195.299 40.1993 194.605 40.6965 193.781 41.0514C192.957 41.406 192.011 41.5835 190.944 41.5835C189.877 41.5835 188.927 41.406 188.094 41.0514C187.27 40.6965 186.572 40.1993 185.999 39.559C185.435 38.9102 185.006 38.1533 184.711 37.2883C184.416 36.4146 184.268 35.4673 184.268 34.4464ZM188.016 34.174V34.4464C188.016 35.0347 188.068 35.5842 188.172 36.0943C188.276 36.6048 188.441 37.0546 188.667 37.4438C188.901 37.8245 189.205 38.1232 189.578 38.3394C189.951 38.5556 190.406 38.6638 190.944 38.6638C191.465 38.6638 191.912 38.5556 192.284 38.3394C192.657 38.1232 192.957 37.8245 193.182 37.4438C193.408 37.0546 193.573 36.6048 193.677 36.0943C193.79 35.5842 193.846 35.0347 193.846 34.4464V34.174C193.846 33.6029 193.79 33.0667 193.677 32.5649C193.573 32.0547 193.403 31.6048 193.169 31.2153C192.944 30.8176 192.644 30.5061 192.271 30.2811C191.898 30.0563 191.447 29.9439 190.918 29.9439C190.389 29.9439 189.938 30.0563 189.565 30.2811C189.2 30.5061 188.901 30.8176 188.667 31.2153C188.441 31.6048 188.276 32.0547 188.172 32.5649C188.068 33.0667 188.016 33.6029 188.016 34.174ZM203.58 30.2811V41.3238H199.832V27.2836H203.346L203.58 30.2811ZM203.033 33.8106H202.018C202.018 32.7725 202.153 31.8382 202.422 31.0077C202.691 30.1687 203.068 29.455 203.554 28.8668C204.04 28.27 204.616 27.8157 205.284 27.5043C205.961 27.1843 206.716 27.0243 207.549 27.0243C208.208 27.0243 208.811 27.1195 209.357 27.3097C209.904 27.4998 210.373 27.8027 210.763 28.2179C211.162 28.6331 211.466 29.1826 211.674 29.8658C211.891 30.5493 211.999 31.3842 211.999 32.3702V41.3238H208.225V32.3572C208.225 31.7344 208.139 31.2499 207.965 30.9039C207.792 30.5579 207.536 30.3157 207.197 30.1773C206.868 30.0303 206.46 29.9569 205.974 29.9569C205.471 29.9569 205.033 30.0563 204.66 30.2553C204.296 30.4541 203.992 30.7309 203.749 31.0858C203.515 31.4318 203.337 31.8382 203.215 32.3055C203.094 32.7725 203.033 33.2744 203.033 33.8106Z" fill="#6C7993"/>
</svg>
