<svg width="217" height="51" viewBox="0 0 217 51" fill="none" xmlns="http://www.w3.org/2000/svg">
<path fill-rule="evenodd" clip-rule="evenodd" d="M26.4623 31.1486H19.7515C19.3422 31.1486 18.9329 30.8895 18.6861 30.4598L15.5775 24.6113C15.4151 24.1816 15.4151 23.7519 15.5775 23.4074L18.6861 17.5589C18.9329 17.1292 19.3422 16.8701 19.7515 16.8701H23.5973C24.0066 16.8701 24.4159 16.6109 24.6628 16.1812L27.4465 10.933C27.6933 10.5033 27.3653 9.98828 26.956 9.98828H16.6429C15.7432 9.98828 15.0059 10.5033 14.5154 11.2774L8.37628 22.8039C8.17472 23.1878 8.06934 23.6158 8.06934 24.0503C8.06934 24.4849 8.17472 24.9129 8.37628 25.2968L14.5154 36.738C14.7223 37.1264 15.0292 37.4511 15.4037 37.678C15.7781 37.9049 16.2063 38.0255 16.6429 38.0271H29.8209C30.3114 38.0271 30.5582 37.5121 30.3114 37.0824L27.4465 31.7489C27.3653 31.3192 26.956 31.1453 26.4655 31.1453L26.4623 31.1486Z" fill="#6B7892"/>
<path d="M44.632 15.0627L42.014 10.418C41.7671 9.98828 41.1954 9.98828 40.9486 10.418L29.8982 31.0601C29.7358 31.4898 29.7358 31.9195 29.8982 32.2639L32.7631 37.6827C33.0099 38.1124 33.5816 38.1124 33.8285 37.6827L44.632 17.5556C44.8336 17.1717 44.939 16.7437 44.939 16.3092C44.939 15.8746 44.8336 15.4466 44.632 15.0627Z" fill="#6B7892"/>
<path fill-rule="evenodd" clip-rule="evenodd" d="M31.2916 24.5258L34.5658 18.4181C34.7282 18.0737 34.7282 17.5587 34.5658 17.129L30.8011 10.3325C30.5542 9.90283 29.9825 9.90283 29.7357 10.3325L26.5427 16.2663C26.3803 16.6108 26.3803 17.1258 26.5427 17.4702L30.2262 24.4372C30.473 24.9522 31.1259 24.9522 31.2916 24.5225V24.5258Z" fill="#6B7892"/>
<path d="M54.2892 15.0627L51.6712 10.418C51.4243 9.98828 50.8526 9.98828 50.6058 10.418L39.5554 31.0601C39.393 31.4898 39.393 31.9195 39.5554 32.2639L42.5015 37.6827C42.7484 38.1124 43.3201 38.1124 43.5669 37.6827L54.3704 17.5556C54.7797 16.7815 54.7797 15.8368 54.2892 15.0627ZM146.636 13.895H148.191C148.601 13.895 148.848 14.2394 148.763 14.6691L144.508 34.8814C144.427 35.3111 144.099 35.5703 143.689 35.5703H141.643C141.234 35.5703 140.906 35.3111 140.825 34.8814L137.141 20.0026C137.06 19.5729 136.404 19.5729 136.323 20.0026L132.558 34.8814C132.477 35.3111 132.149 35.5703 131.739 35.5703H129.693C129.284 35.5703 128.956 35.3111 128.874 34.8814L124.619 14.6691C124.538 14.3247 124.782 13.895 125.191 13.895H126.909C127.318 13.895 127.647 14.2394 127.728 14.6691L130.511 29.2068C130.593 29.7217 131.249 29.7217 131.33 29.2068L135.095 14.5838C135.176 14.1541 135.504 13.895 135.913 13.895H137.469C137.878 13.895 138.206 14.1541 138.288 14.5838L142.052 29.2068C142.134 29.6365 142.79 29.6365 142.871 29.2068L145.655 14.6691C145.901 14.1541 146.226 13.895 146.636 13.895ZM68.721 25.7626C68.721 27.2255 68.8022 28.3441 68.9678 29.2888C69.1303 30.1482 69.3771 30.9223 69.7864 31.4406C70.1957 31.9555 70.7673 32.3 71.4235 32.4738C72.1608 32.6444 73.0606 32.7329 74.126 32.7329C74.6977 32.7329 77.0721 32.7329 78.2187 32.6477C78.5468 32.6477 78.8749 32.9068 79.0373 33.2512L79.5277 34.7142C79.6902 35.1439 79.3653 35.4883 78.9561 35.4883C77.4814 35.4883 74.3728 35.5736 74.0448 35.5736C72.4077 35.5736 71.0175 35.403 69.8708 35.0586C68.8054 34.7142 67.9057 34.1139 67.2528 33.3398C66.5999 32.5656 66.1062 31.5324 65.8626 30.3286C65.6157 29.1248 65.4533 27.5765 65.4533 25.7691V23.5321C65.4533 21.6394 65.6157 20.0912 65.9438 18.8874C66.2718 17.6835 66.7623 16.6503 67.4185 15.8762C68.0746 15.1021 68.9743 14.5871 70.0365 14.2427C71.1019 13.8982 72.4921 13.7277 74.048 13.7277C74.5385 13.7277 77.4846 13.7277 78.9593 13.8129C79.3686 13.8129 79.6154 14.2427 79.531 14.6724L79.0405 16.1353C78.8781 16.4797 78.55 16.7389 78.222 16.7389C76.9941 16.7389 74.2949 16.6536 74.048 16.6536C72.9014 16.6536 72.0017 16.7389 71.3455 16.9127C70.6082 17.0833 70.1177 17.4277 69.7084 17.8574C69.2992 18.3724 69.0523 19.0612 68.8899 19.9206C68.7275 20.78 68.7275 21.9838 68.7275 23.4468V25.7691L68.721 25.7626ZM88.3628 19.3138C89.5907 19.3138 90.6561 19.3991 91.5558 19.6582C92.4556 19.9173 93.1929 20.2618 93.6834 20.862C94.2551 21.4656 94.6644 22.2397 94.9112 23.1844C95.1581 24.1291 95.3205 25.3362 95.3205 26.7958V28.4294C95.3205 29.8923 95.1581 31.0961 94.9112 32.0408C94.6644 32.9855 94.2551 33.7596 93.6834 34.3632C93.1117 34.9667 92.3744 35.3079 91.5558 35.567C90.6561 35.8261 89.5907 35.9114 88.3628 35.9114C87.135 35.9114 86.0696 35.8261 85.1699 35.567C84.2701 35.3079 83.5328 34.9634 83.0423 34.3632C82.4706 33.7596 82.0613 32.9855 81.8145 32.0408C81.5676 31.0961 81.4052 29.889 81.4052 28.4294V26.7958C81.4052 25.3329 81.5676 24.1291 81.8145 23.1844C82.0613 22.2397 82.4706 21.4656 83.0423 20.862C83.614 20.2585 84.3513 19.9173 85.1699 19.6582C86.0696 19.3991 87.135 19.3138 88.3628 19.3138ZM92.2899 26.7958C92.2899 25.7626 92.2087 24.9032 92.1275 24.2144C92.0463 23.6108 91.7994 23.0958 91.5558 22.7514C91.309 22.407 90.8997 22.1478 90.4092 22.0626C89.9187 21.9773 89.2626 21.892 88.4441 21.892C87.6255 21.892 86.9694 21.9773 86.4789 22.0626C85.9884 22.1478 85.5791 22.407 85.3323 22.7514C85.0854 23.0958 84.8418 23.6108 84.7606 24.2144C84.6794 24.8179 84.5982 25.6773 84.5982 26.7958V28.4294C84.5982 29.4626 84.6794 30.322 84.7606 31.0109C84.8418 31.6144 85.0887 32.1294 85.3323 32.4738C85.5791 32.8182 85.9852 33.0774 86.4789 33.1626C86.9726 33.2479 87.6255 33.3332 88.4441 33.3332C89.2626 33.3332 89.9187 33.2479 90.4092 33.1626C90.8997 33.0774 91.309 32.8182 91.5558 32.4738C91.8027 32.1294 92.0463 31.6144 92.1275 31.0109C92.2087 30.4073 92.2899 29.5479 92.2899 28.4294V26.7958ZM98.9195 35.4817C98.5914 35.4817 98.3478 35.2226 98.3478 34.8782V24.7293C98.3478 23.7846 98.5102 23.0105 98.7571 22.407C99.0039 21.8034 99.4132 21.2884 99.9037 20.8587C100.394 20.429 100.969 20.1699 101.703 19.9993C102.356 19.8288 103.178 19.7402 103.993 19.7402H107.021C107.43 19.7402 107.677 20.1699 107.592 20.5996L107.102 21.8034C106.939 22.1478 106.611 22.407 106.283 22.407H104.318C103.662 22.407 103.09 22.4923 102.762 22.5775C102.353 22.6628 102.106 22.922 101.862 23.1811C101.7 23.4402 101.534 23.7846 101.534 24.1258C101.453 24.4702 101.453 24.8999 101.453 25.4149V34.8749C101.453 35.2193 101.206 35.4784 100.881 35.4784H98.9162L98.9195 35.4817ZM112.179 28.8591C111.851 28.8591 111.607 29.1182 111.607 29.4626C111.607 30.0662 111.688 30.4959 111.688 30.9256C111.769 31.4406 111.935 31.8703 112.179 32.1294C112.426 32.4738 112.835 32.6444 113.244 32.7329C113.735 32.8182 114.309 32.9035 115.128 32.9035C115.537 32.9035 118.73 32.9035 120.12 32.8182C120.449 32.8182 120.858 33.0774 120.939 33.4218L121.348 34.6256C121.511 35.0553 121.186 35.3997 120.777 35.485C119.14 35.485 115.456 35.5703 115.128 35.5703C113.738 35.5703 112.672 35.3997 111.773 35.0553C110.873 34.7109 110.217 34.2812 109.726 33.5923C109.236 32.9888 108.908 32.2147 108.745 31.3553C108.583 30.4959 108.498 29.4626 108.498 28.4294V26.7106C108.498 25.592 108.58 24.5588 108.745 23.6141C108.908 22.6694 109.236 21.8953 109.726 21.2917C110.217 20.6882 110.873 20.1732 111.773 19.8288C112.672 19.4844 113.819 19.3138 115.209 19.3138C116.518 19.3138 117.584 19.4844 118.402 19.7435C119.221 20.0879 119.877 20.5176 120.367 21.0326C120.858 21.5476 121.186 22.1511 121.348 22.9252C121.511 23.6141 121.595 24.3882 121.595 25.077V25.592C121.595 26.2809 121.514 26.8811 121.514 27.3108C121.433 27.7405 121.352 28.0849 121.105 28.2555C120.942 28.5146 120.695 28.6852 120.449 28.6852C120.202 28.7705 119.877 28.7705 119.468 28.7705L112.182 28.8558L112.179 28.8591ZM115.209 21.8067C114.472 21.8067 113.819 21.892 113.325 21.9773C112.835 22.0626 112.507 22.3217 112.263 22.6661C112.019 23.0105 111.854 23.4402 111.773 24.0438C111.691 24.4735 111.691 25.077 111.691 25.6773C111.691 26.0217 111.938 26.2809 112.263 26.2809H118.318C118.646 26.2809 118.889 26.0217 118.889 25.6773V25.2476C118.889 24.5588 118.808 24.0438 118.727 23.5288C118.646 23.0991 118.399 22.7547 118.155 22.4955C117.908 22.2364 117.502 22.0658 117.009 21.9806C116.518 21.8953 115.943 21.81 115.209 21.81V21.8067ZM153.593 28.8591C153.265 28.8591 153.021 29.1182 153.021 29.4626C153.021 30.0662 153.103 30.4959 153.184 30.9256C153.265 31.4406 153.431 31.8703 153.674 32.1294C153.921 32.4738 154.331 32.6444 154.74 32.7329C155.23 32.8182 155.802 32.9035 156.62 32.9035C157.03 32.9035 160.223 32.9035 161.613 32.8182C161.941 32.8182 162.269 33.0774 162.432 33.4218L162.841 34.6256C163.003 35.0553 162.678 35.3997 162.269 35.485C160.632 35.485 156.949 35.5703 156.62 35.5703C155.23 35.5703 154.165 35.3997 153.265 35.0553C152.447 34.7109 151.709 34.2812 151.219 33.5923C150.728 32.9888 150.4 32.2147 150.238 31.3553C150.075 30.4959 149.991 29.4626 149.991 28.4294V26.7106C149.991 25.592 150.072 24.5588 150.238 23.6141C150.4 22.6694 150.728 21.8953 151.219 21.2917C151.709 20.6882 152.365 20.1732 153.265 19.8288C154.165 19.4844 155.311 19.3138 156.702 19.3138C158.011 19.3138 159.076 19.4844 159.895 19.7435C160.713 20.0879 161.369 20.5176 161.86 21.0326C162.35 21.5476 162.678 22.1511 162.841 22.9252C163.003 23.6994 163.088 24.3882 163.088 25.077V25.592C163.088 26.2809 163.088 26.8811 163.006 27.3108C162.925 27.7405 162.844 28.0849 162.597 28.2555C162.435 28.5146 162.188 28.6852 161.941 28.6852C161.694 28.7705 161.369 28.7705 161.041 28.7705L153.593 28.8558V28.8591ZM156.539 21.8067C155.802 21.8067 155.149 21.892 154.655 21.9773C154.165 22.0626 153.837 22.3217 153.59 22.6661C153.343 23.0105 153.181 23.4402 153.099 24.0438C153.018 24.4735 153.018 25.077 152.937 25.6773C152.937 26.0217 153.184 26.2809 153.509 26.2809H159.567C159.895 26.2809 160.138 26.0217 160.138 25.6773V25.2476C160.138 24.5588 160.057 24.0438 159.976 23.5288C159.895 23.0991 159.648 22.7547 159.404 22.4955C159.157 22.2364 158.748 22.0658 158.258 21.9806C157.848 21.8953 157.277 21.81 156.539 21.81V21.8067ZM199.263 28.8591C198.935 28.8591 198.691 29.1182 198.691 29.4626C198.691 30.0662 198.772 30.4959 198.772 30.9256C198.854 31.4406 199.019 31.8703 199.263 32.1294C199.51 32.4738 199.919 32.6444 200.328 32.7329C200.819 32.8182 201.39 32.9035 202.209 32.9035C202.618 32.9035 205.811 32.9035 207.201 32.8182C207.53 32.8182 207.939 33.0774 208.02 33.4218L208.429 34.6256C208.592 35.0553 208.267 35.3997 207.858 35.485C206.221 35.485 202.537 35.5703 202.209 35.5703C200.819 35.5703 199.753 35.3997 198.854 35.0553C197.954 34.7109 197.298 34.2812 196.807 33.5923C196.317 32.9888 195.989 32.2147 195.826 31.3553C195.664 30.4959 195.579 29.4626 195.579 28.4294V26.7106C195.579 25.592 195.661 24.5588 195.826 23.6141C195.989 22.6694 196.317 21.8953 196.807 21.2917C197.298 20.6882 197.954 20.1732 198.854 19.8288C199.753 19.4844 200.9 19.3138 202.29 19.3138C203.599 19.3138 204.665 19.4844 205.483 19.7435C206.302 20.0879 206.958 20.5176 207.448 21.0326C207.939 21.5476 208.267 22.1511 208.429 22.9252C208.592 23.6141 208.676 24.3882 208.676 25.077V25.592C208.676 26.2809 208.595 26.8811 208.595 27.3108C208.514 27.7405 208.433 28.0849 208.186 28.2555C208.023 28.5146 207.776 28.6852 207.53 28.6852C207.283 28.7705 206.958 28.7705 206.549 28.7705L199.266 28.8558L199.263 28.8591ZM202.29 21.8067C201.553 21.8067 200.9 21.892 200.406 21.9773C199.916 22.0626 199.588 22.3217 199.341 22.6661C199.094 23.0105 198.932 23.4402 198.85 24.0438C198.769 24.4735 198.769 25.077 198.769 25.6773C198.769 26.0217 199.016 26.2809 199.341 26.2809H205.399C205.727 26.2809 205.97 26.0217 205.97 25.6773V25.2476C205.97 24.5588 205.889 24.0438 205.808 23.5288C205.727 23.0991 205.48 22.7547 205.236 22.4955C204.989 22.2364 204.58 22.0658 204.09 21.9806C203.518 21.8953 202.943 21.81 202.29 21.81V21.8067ZM178.393 32.9035C178.393 33.8482 178.146 34.537 177.737 34.9667C177.328 35.3964 176.509 35.5703 175.447 35.5703H171.111C169.064 35.5703 167.674 35.1406 166.771 34.3665C165.871 33.5923 165.462 32.3885 165.462 30.8403V30.1514C165.462 28.4326 165.953 27.2255 166.937 26.54C167.918 25.8512 169.392 25.4215 171.439 25.4215C172.585 25.4215 173.485 25.5067 174.141 25.6806C174.469 25.7659 174.797 25.8512 174.96 26.025C175.207 26.1103 175.532 25.9397 175.532 25.5953V25.4247C175.532 24.9097 175.532 24.48 175.45 24.1356C175.369 23.7912 175.203 23.4468 174.96 23.1909C174.713 22.9318 174.304 22.7612 173.813 22.5874C173.323 22.5021 172.667 22.4168 171.767 22.4168C171.114 22.4168 168.249 22.4168 166.937 22.5021C166.609 22.5021 166.281 22.243 166.118 21.8986L165.709 20.6947C165.547 20.265 165.871 19.9206 166.199 19.9206C167.755 19.9206 171.111 19.8353 171.682 19.8353C174.057 19.8353 175.694 20.265 176.756 21.1244C177.822 21.9838 178.312 23.2762 178.312 24.9097L178.393 32.9101V32.9035ZM168.243 30.837C168.243 31.5258 168.405 32.0408 168.814 32.4705C169.224 32.8149 169.961 32.9855 171.023 32.9855H174.869C175.197 32.9855 175.441 32.7264 175.441 32.382V30.2302C175.441 29.8858 175.359 29.5413 175.359 29.1969C175.278 28.9378 175.113 28.6819 174.869 28.5081C174.622 28.3375 174.297 28.1637 173.888 28.1637C173.479 28.0784 172.823 28.0784 172.088 28.0784H171.432C170.776 28.0784 170.286 28.0784 169.876 28.1637C169.467 28.249 169.139 28.3342 168.895 28.5081C168.649 28.6787 168.486 28.9378 168.405 29.1969C168.324 29.4561 168.243 29.8005 168.243 30.2302V30.8337V30.837ZM183.139 20.429L186.575 30.837C186.738 31.2667 187.232 31.2667 187.394 30.837L190.996 20.429C191.077 20.0846 191.487 19.8255 191.815 19.8255H193.533C193.942 19.8255 194.189 20.2552 194.105 20.6849L188.865 34.9634C188.703 35.3079 188.375 35.567 188.047 35.567H186C185.672 35.567 185.344 35.3079 185.182 34.9634L179.943 20.6849C179.78 20.2552 180.105 19.8255 180.514 19.8255H182.395C182.723 19.8255 183.051 20.0846 183.132 20.429H183.139Z" fill="#6B7892"/>
</svg>
