<svg width="148" height="64" viewBox="0 0 148 64" fill="none" xmlns="http://www.w3.org/2000/svg">
<path d="M12.3009 13.0624C5.06021 16.1544 0 23.2166 0 31.4342C0 41.0082 6.86878 49.0141 16.0521 51C14.1088 49.4986 12.8617 47.174 12.8617 44.5647C12.8617 42.7282 13.4817 41.0279 14.5277 39.6601C15.1444 38.8537 16.3131 38.6886 17.1382 39.2914C17.9632 39.8943 18.1321 41.0367 17.5154 41.8432C16.9349 42.6023 16.5918 43.5417 16.5918 44.5647C16.5918 47.0786 18.6767 49.1165 21.2484 49.1165C23.8202 49.1165 25.905 47.0786 25.905 44.5647C25.905 42.7902 24.8662 41.2493 23.3429 40.4978C23.3135 40.4864 23.2843 40.4742 23.2552 40.4612C22.1043 39.9473 20.9078 39.3183 20.0208 38.3392C19.0616 37.2804 18.6017 35.9751 18.6017 34.3937C18.6017 34.3682 18.6022 34.3428 18.6033 34.3176L9.8594 27.3348C9.48659 27.0371 9.31597 26.5602 9.41769 26.1003L12.3009 13.0624Z" fill="#6C7993"/>
<path d="M27.1412 50.3981C28.6809 48.9117 29.6351 46.8472 29.6351 44.5647C29.6351 41.2873 27.6675 38.4627 24.8322 37.1512C24.7831 37.1285 24.7335 37.1081 24.6835 37.0899C23.694 36.6399 23.1405 36.283 22.8133 35.9218C22.5451 35.6257 22.3318 35.2214 22.3318 34.3937C22.3318 34.3101 22.3261 34.2278 22.3149 34.1471L31.1248 27.3479C31.5121 27.0489 31.6894 26.5591 31.5805 26.0886L28.5515 13C35.8709 16.0586 41 23.1609 41 31.4342C41 40.2292 35.2035 47.7009 27.1412 50.3981Z" fill="#6C7993"/>
<path d="M14.7969 13.6309L12.0881 25.8801L20.3463 32.475L28.9029 25.8712L26.0702 13.6309H14.7969Z" fill="#6C7993"/>
<path d="M59.1354 32.3329C59.1354 32.951 59.2171 33.4828 59.3803 33.9283C59.5436 34.3739 59.7811 34.7404 60.0928 35.0279C60.4119 35.3154 60.7978 35.5274 61.2505 35.6639C61.7106 35.8005 62.2338 35.8687 62.82 35.8687C63.5176 35.8687 64.3414 35.7861 65.2913 35.6208C66.2412 35.4555 67.2913 35.2004 68.4416 34.8554V39.9004C67.2468 40.2885 66.0816 40.5688 64.9462 40.7413C63.8182 40.9138 62.705 41 61.6067 41C60.2635 41 59.0056 40.8383 57.833 40.5149C56.6679 40.1915 55.6512 39.6705 54.7829 38.9518C53.9221 38.226 53.243 37.3133 52.7458 36.2137C52.2486 35.1141 52 33.8205 52 32.3329C52 30.8812 52.2263 29.6307 52.679 28.5815C53.1391 27.5322 53.7848 26.6698 54.616 25.9943C55.4545 25.3116 56.4564 24.8085 57.6215 24.4851C58.7941 24.1617 60.0928 24 61.5176 24C62.3933 24 63.18 24.0431 63.8776 24.1294C64.5826 24.2156 65.2171 24.3234 65.7811 24.4528C66.3451 24.5821 66.8423 24.7294 67.2727 24.8947C67.7106 25.0528 68.1002 25.2074 68.4416 25.3583V30.3171H65.0909C64.7124 29.7996 64.2894 29.4187 63.8219 29.1744C63.3618 28.93 62.8868 28.8079 62.397 28.8079C61.9814 28.8079 61.577 28.8869 61.1837 29.045C60.7978 29.2031 60.4527 29.4331 60.1484 29.7349C59.8442 30.0368 59.5993 30.4069 59.4137 30.8453C59.2282 31.2765 59.1354 31.7724 59.1354 32.3329Z" fill="#6C7993"/>
<path d="M89.1354 40.806H82.0557C81.833 40.3963 81.603 39.9615 81.3655 39.5016C81.128 39.0416 80.898 38.5637 80.6753 38.0679C80.4527 37.572 80.2449 37.0581 80.0519 36.5263C79.859 35.9945 79.6957 35.4483 79.5622 34.8878H79.1725V40.806H70.6234V36.1275L72.0482 35.858V29.1959L70.6234 28.9264V24.2479H80.3191C81.603 24.2479 82.7124 24.3054 83.6475 24.4204C84.5826 24.5354 85.3766 24.7007 86.0297 24.9163C86.6827 25.1247 87.2096 25.3834 87.6104 25.6925C88.0186 25.9943 88.334 26.3393 88.5566 26.7273C88.7866 27.1082 88.9388 27.5286 89.013 27.9886C89.0946 28.4413 89.1354 28.9228 89.1354 29.4331C89.1354 29.9505 89.0835 30.4213 88.9796 30.8453C88.8831 31.2621 88.7087 31.6466 88.4564 31.9987C88.2041 32.3509 87.859 32.6743 87.4212 32.9689C86.9833 33.2564 86.4267 33.5295 85.7514 33.7882C85.8924 34.0757 86.1039 34.4134 86.3859 34.8015C86.6679 35.1824 86.9722 35.5741 87.2987 35.9765C87.6252 36.3718 87.9518 36.7599 88.2783 37.1408C88.6122 37.5145 88.898 37.8343 89.1354 38.1002V40.806ZM79.1725 31.7077C79.603 31.7077 79.9926 31.6897 80.3414 31.6538C80.6976 31.6178 80.9981 31.5352 81.243 31.4058C81.4954 31.2765 81.6883 31.086 81.8219 30.8345C81.9555 30.583 82.0223 30.2452 82.0223 29.8212C82.0223 29.4044 81.9555 29.0738 81.8219 28.8294C81.6883 28.5779 81.4954 28.3839 81.243 28.2473C80.9981 28.1108 80.6976 28.0209 80.3414 27.9778C79.9926 27.9347 79.603 27.9131 79.1725 27.9131V31.7077Z" fill="#6C7993"/>
<path d="M102.783 40.806L102.182 38.0247H97.5288L96.9388 40.806H90.6048V35.3729L91.974 35.1034L95.2579 24.2479H104.453L107.748 35.1034L109.117 35.3729V40.806H102.783ZM98.4861 34.3272H101.224L99.8553 28.0856L98.4861 34.3272Z" fill="#6C7993"/>
<path d="M116.597 32.7318V35.858L118.022 36.1167V40.806H110.898V36.1275L112.323 35.858V29.1959L110.898 28.9264V24.2479H119.447L125.147 32.7318V29.2175L123.722 28.9264V24.2479H130.846V28.9264L129.421 29.1959V35.858L130.846 36.1275V40.806H122.286L116.597 32.7318Z" fill="#6C7993"/>
<path d="M141.666 36.6665C142.171 36.6665 142.646 36.6269 143.091 36.5479C143.536 36.4616 143.944 36.3538 144.315 36.2245C144.694 36.0951 145.035 35.9478 145.34 35.7825C145.644 35.6172 145.911 35.4519 146.141 35.2866H148V40.806H133.117V36.1275L134.542 35.858V29.2175L133.117 28.948V24.2479H148V29.7673H146.208C145.97 29.6092 145.696 29.4475 145.384 29.2822C145.072 29.1169 144.724 28.9696 144.338 28.8402C143.959 28.7037 143.547 28.5959 143.102 28.5168C142.657 28.4306 142.178 28.3874 141.666 28.3874V31.3304L145.006 30.6297V34.4458L141.666 33.7451V36.6665Z" fill="#6C7993"/>
</svg>
