<svg width="164" height="64" viewBox="0 0 164 64" fill="none" xmlns="http://www.w3.org/2000/svg">
<path fill-rule="evenodd" clip-rule="evenodd" d="M18.4662 20.4262L9.37109 15.9262L18.4662 12L27.4475 15.9262L18.4662 20.4262ZM0 20.0105L0.799931 27.0627L9.17114 32.5719L8.7744 25.2822L15.3891 21.9898L6.01734 17.3555L0 20.0105ZM36.9648 20.0105L36.1649 27.0627L27.7937 32.5719L28.1904 25.2822L21.5757 21.9898L30.9475 17.3555L36.9648 20.0105ZM9.9992 45.6839L9.41668 36.145L1.28125 30.6621L2.28015 39.9573L9.9992 45.6839ZM27.513 36.145L26.9305 45.6839L34.6495 39.9573L35.6484 30.6621L27.513 36.145ZM12.3477 38.0548L18.5003 42.1619L24.5713 38.0527L23.939 47.9277L18.4707 52.0002L12.8989 47.8579L12.3477 38.0548ZM115.75 40.7619V18.2871H112.003V40.7619H115.75ZM103.238 37.7652C104.676 37.7652 106.205 37.3157 107.823 36.3868L109.382 39.2036C107.494 40.5221 105.396 41.1814 103.088 41.1814C100.96 41.1814 99.192 40.5821 97.8434 39.3535C96.4948 38.1248 95.8355 36.4767 95.8355 34.3491V26.1683C95.8355 24.0706 96.4948 22.4225 97.8434 21.1938C99.192 19.9652 100.96 19.3659 103.088 19.3659C105.396 19.3659 107.494 20.0252 109.382 21.3437L107.823 24.1605C106.205 23.2316 104.676 22.7821 103.268 22.7821C101.11 22.7821 99.7615 24.2504 99.7615 26.5578V33.9595C99.7615 36.3568 101.11 37.7652 103.238 37.7652ZM47.0703 40.7619V19.7854H54.7125C58.9981 19.7854 61.6354 22.3925 61.6354 26.5878V33.9595C61.6354 38.1548 58.9981 40.7619 54.7125 40.7619H47.0703ZM54.7125 37.2858C56.7205 37.2858 57.7095 36.0572 57.7095 33.57V26.9774C57.7095 24.4901 56.7205 23.2615 54.7125 23.2615H50.9663V37.2858H54.7125ZM65.1965 26.3068C66.8448 25.258 68.5418 24.8797 70.5797 24.8797C74.5656 24.8797 76.8958 26.7676 76.8958 30.5733V40.7619H73.3968L73.217 39.2935C72.3778 40.3424 70.6696 41.0615 69.0213 41.0615C66.1442 41.0615 63.9216 39.4357 63.9216 36.529C63.9216 33.5024 65.6211 31.5265 68.9535 30.512C70.0409 30.181 71.4337 29.8942 72.8574 29.8535V29.7089C72.8574 28.2939 70.3786 27.8389 69.8483 27.8389C68.5297 27.8389 67.3992 27.9046 66.188 28.4657L65.1965 26.3068ZM67.7576 36.2127C67.7576 37.4114 68.6719 38.2224 69.9307 38.2224C71.1594 38.2224 72.2046 37.5543 72.8574 36.4943V32.3107C71.9851 32.3107 70.4408 32.6525 69.6042 33.183C68.6963 33.7587 67.7576 35.044 67.7576 36.2127ZM79.7845 34.7386C79.7845 38.6942 82.242 41.0615 86.2879 41.0615C90.3337 41.0615 92.7912 38.6942 92.7912 34.7386V31.2026C92.7912 27.2471 90.3337 24.8797 86.2879 24.8797C82.242 24.8797 79.7845 27.2471 79.7845 31.2026V34.7386ZM83.5307 31.5023C83.5307 29.2248 84.4597 28.0861 86.2879 28.0861C88.116 28.0861 89.0451 29.2248 89.0451 31.5023V34.439C89.0451 36.7164 88.116 37.8551 86.2879 37.8551C84.4597 37.8551 83.5307 36.7164 83.5307 34.439V31.5023ZM125.585 41.0615C121.539 41.0615 119.082 38.6942 119.082 34.7386V31.2026C119.082 27.2471 121.539 24.8797 125.585 24.8797C129.631 24.8797 132.089 27.2471 132.089 31.2026V34.7386C132.089 38.6942 129.631 41.0615 125.585 41.0615ZM125.585 28.0861C123.757 28.0861 122.828 29.2248 122.828 31.5023V34.439C122.828 36.7164 123.757 37.8551 125.585 37.8551C127.413 37.8551 128.342 36.7164 128.342 34.439V31.5023C128.342 29.2248 127.413 28.0861 125.585 28.0861ZM144.094 36.0572C143.404 37.2558 142.385 37.8551 141.097 37.8551C139.568 37.8551 139.089 36.9262 139.089 34.6188V25.1794H135.343V34.9784C135.343 39.0838 136.631 41.0615 140.108 41.0615C141.636 41.0615 143.045 40.4622 144.274 39.2935L144.603 40.7619H147.84V25.1794H144.094V36.0572ZM156.957 24.8797C158.216 24.8797 159.325 25.1194 160.254 25.5689V18.2871H164V40.7619H160.973L160.764 39.3834C159.655 40.4922 158.246 41.0615 156.598 41.0615C153.091 41.0615 151.173 38.8141 151.173 34.8285V30.9629C151.173 27.0972 153.391 24.8797 156.957 24.8797ZM154.919 34.439C154.919 36.7464 155.669 37.8252 157.437 37.8252C158.726 37.8252 159.685 37.2858 160.254 36.177V28.7753C159.415 28.3558 158.516 28.146 157.587 28.146C155.819 28.146 154.919 29.1649 154.919 31.2026V34.439Z" fill="#6C7993"/>
</svg>
