<svg width="232" height="64" viewBox="0 0 232 64" fill="none" xmlns="http://www.w3.org/2000/svg">
<g clip-path="url(#clip0_4512_18727)">
<path d="M27.034 39.0901H19.9414V24.9082H27.034C30.9401 24.9082 34.1266 28.094 34.1266 31.9992C34.1266 35.9043 30.9401 39.0901 27.034 39.0901Z" fill="#6C7993"/>
<path d="M13.8769 25.7321L10.0736 21.9297L0 32.0009L10.0736 42.0721L13.8769 38.167L11.9238 36.3171V27.6847L13.8769 25.7321Z" fill="#6C7993"/>
<path d="M41.94 21.9297L38.1367 25.7321L39.987 27.6847V36.3171L38.1367 38.167L41.94 42.0721L52.0136 32.0009L41.94 21.9297Z" fill="#6C7993"/>
<path d="M15.9336 16.0712L19.7369 19.8736L21.6899 17.921H30.3244L32.1747 19.8736L36.0808 16.0712L26.0072 6L15.9336 16.0712Z" fill="#6C7993"/>
<path d="M34.1277 45.9768L32.1747 44.127L30.3244 45.9768H21.6899L19.7369 44.127L17.8867 45.9768L15.9336 47.9294L26.0072 58.0006L36.0808 47.9294L34.1277 45.9768Z" fill="#6C7993"/>
<path d="M66.1951 10.0088V10.8309H64.3447V11.9614H65.7838V12.6808H64.3447V14.4278H63.3164V10.0088H66.1951Z" fill="#6C7993"/>
<path d="M68.5635 10.0088V13.6057H70.3104V14.4278H67.5352V10.0088H68.5635Z" fill="#6C7993"/>
<path d="M74.4198 10.0088L75.8588 14.4278H74.8311L74.5226 13.4001H72.8779L72.5694 14.4278H71.6445L73.0836 10.0088H74.4198ZM74.2141 12.6808L73.5977 10.7282L72.9807 12.6808H74.2141Z" fill="#6C7993"/>
<path d="M78.4293 10.0088L80.0734 12.8863V10.0088H80.9989V14.4278H79.9712L78.1208 11.242V14.4278H77.1953V10.0088H78.4293Z" fill="#6C7993"/>
<path d="M82.3359 10.7282V10.0088H85.7275V10.8309H84.4942V14.4278H83.4665V10.7282H82.3359Z" fill="#6C7993"/>
<path d="M73.4931 27.5819C73.4931 30.8705 71.0264 33.3369 67.6341 33.3369H63.3164V21.9297H67.6341C71.0264 21.9297 73.4931 24.2933 73.4931 27.5819ZM70.9235 27.5819C70.9235 25.5265 69.5867 24.1906 67.5313 24.1906H65.7838V31.076H67.6341C69.5867 31.076 70.9235 29.6373 70.9235 27.5819Z" fill="#6C7993"/>
<path d="M83.9804 29.6371H77.2988C77.5044 30.8703 78.3271 31.4869 79.4576 31.4869C80.2797 31.4869 80.9995 31.0758 81.308 30.4593H83.8776C83.2606 32.4118 81.5137 33.645 79.4576 33.645C76.7852 33.645 74.832 31.5897 74.832 28.9177C74.832 26.2458 76.7852 24.1904 79.4576 24.1904C82.2329 24.1904 84.0832 26.2458 84.0832 28.815C83.9804 29.1233 83.9804 29.4316 83.9804 29.6371ZM77.2988 27.9929H81.6159C81.308 26.8624 80.4853 26.3486 79.4576 26.3486C78.3271 26.3486 77.6073 26.9652 77.2988 27.9929Z" fill="#6C7993"/>
<path d="M89.8378 33.6448C87.1654 33.6448 85.1094 31.5894 85.1094 28.9175C85.1094 26.2456 87.1654 24.293 89.8378 24.293C92.0995 24.293 93.9499 25.7317 94.3606 27.8898H91.9967C91.5853 26.9649 90.7633 26.5539 89.8378 26.5539C88.5016 26.5539 87.5767 27.5815 87.5767 29.0203C87.5767 30.459 88.6044 31.4867 89.8378 31.4867C90.7633 31.4867 91.5853 30.9729 91.9967 30.0479H94.4634C93.9499 32.1033 92.0995 33.6448 89.8378 33.6448Z" fill="#6C7993"/>
<path d="M101.352 33.4391L98.4739 29.2256V33.4391H96.1094V21.3125H98.4739V28.5062L101.146 24.601H103.922L100.941 28.8145L104.23 33.4391H101.352Z" fill="#6C7993"/>
<path d="M113.681 27.9924V33.4391H111.317V28.4035C111.317 27.0675 110.802 26.4509 109.775 26.4509C108.541 26.4509 107.822 27.273 107.822 28.8145V33.4391H105.457V21.3125H107.822V25.3204C108.541 24.7039 109.466 24.2928 110.494 24.2928C112.447 24.2928 113.681 25.7315 113.681 27.9924Z" fill="#6C7993"/>
<path d="M115.227 28.9177C115.227 26.2458 117.282 24.1904 120.058 24.1904C122.833 24.1904 124.888 26.143 124.888 28.9177C124.888 31.5897 122.833 33.645 120.058 33.645C117.282 33.645 115.227 31.5897 115.227 28.9177ZM122.422 28.9177C122.422 27.479 121.394 26.4513 120.058 26.4513C118.721 26.4513 117.693 27.479 117.693 28.9177C117.693 30.3565 118.721 31.3841 120.058 31.3841C121.394 31.3841 122.422 30.3565 122.422 28.9177Z" fill="#6C7993"/>
<path d="M126.434 29.6354V24.4971H128.797V29.3271C128.797 30.5603 129.517 31.3825 130.545 31.3825C131.676 31.3825 132.293 30.6631 132.293 29.3271V24.4971H134.656V29.6354C134.656 31.9991 133.012 33.6434 130.442 33.6434C128.078 33.6434 126.434 31.9991 126.434 29.6354Z" fill="#6C7993"/>
<path d="M140.107 33.6448C137.845 33.6448 136.406 32.4116 136.406 30.459H138.771C138.771 31.2812 139.387 31.6922 140.21 31.6922C140.826 31.6922 141.443 31.3839 141.443 30.7673C141.443 30.1507 140.621 29.9452 139.696 29.8424C138.257 29.6368 136.509 29.2258 136.509 27.1704C136.509 25.5262 137.948 24.293 140.107 24.293C142.265 24.293 143.704 25.5262 143.704 27.2733H141.443C141.443 26.5539 140.929 26.2456 140.107 26.2456C139.387 26.2456 138.874 26.5539 138.874 27.0677C138.874 27.6843 139.593 27.7871 140.518 27.9926C141.957 28.3009 143.807 28.6092 143.807 30.7673C143.807 32.5144 142.265 33.6448 140.107 33.6448Z" fill="#6C7993"/>
<path d="M154.082 29.6371H147.4C147.606 30.8703 148.428 31.4869 149.559 31.4869C150.381 31.4869 151.101 31.0758 151.409 30.4593H153.979C153.362 32.4118 151.615 33.645 149.559 33.645C146.886 33.645 144.934 31.5897 144.934 28.9177C144.934 26.2458 146.886 24.1904 149.559 24.1904C152.334 24.1904 154.185 26.2458 154.185 28.815C154.185 29.1233 154.185 29.4316 154.082 29.6371ZM147.503 27.9929H151.82C151.512 26.8624 150.69 26.3486 149.662 26.3486C148.531 26.3486 147.709 26.9652 147.503 27.9929Z" fill="#6C7993"/>
<path d="M69.8952 53.1701L65.7838 47.5179V53.1701H63.3164V41.6602H65.7838V47.004L69.5867 41.6602H72.4654L68.559 47.1068L72.8761 53.0673H69.8952V53.1701Z" fill="#6C7993"/>
<path d="M73.2852 49.3669V44.2285H75.6491V49.0586C75.6491 50.2918 76.3689 51.114 77.3966 51.114C78.5278 51.114 79.1441 50.3946 79.1441 49.0586V44.2285H81.5087V49.3669C81.5087 51.7305 79.864 53.3748 77.2938 53.3748C74.9299 53.3748 73.2852 51.7305 73.2852 49.3669Z" fill="#6C7993"/>
<path d="M93.2336 48.6487C93.2336 51.3207 91.281 53.376 88.608 53.376C87.4775 53.376 86.5526 52.965 85.8327 52.3483L85.5243 53.0677H83.7773V41.0439H86.1412V44.7436C86.8611 44.2297 87.6831 44.0242 88.608 44.0242C91.281 44.0242 93.2336 45.9768 93.2336 48.6487ZM90.7668 48.6487C90.7668 47.21 89.7391 46.1823 88.3001 46.1823C86.8611 46.1823 85.8327 47.21 85.8327 48.6487C85.8327 49.9847 86.8611 51.1151 88.3001 51.1151C89.7391 51.1151 90.7668 50.0874 90.7668 48.6487Z" fill="#6C7993"/>
<path d="M103.614 49.3675H96.9322C97.1379 50.6007 97.9599 51.2174 99.0904 51.2174C99.9131 51.2174 100.632 50.8063 100.941 50.1897H103.511C102.894 52.1422 101.146 53.3755 99.0904 53.3755C96.418 53.3755 94.4648 51.3201 94.4648 48.6482C94.4648 45.9762 96.418 43.9209 99.0904 43.9209C101.866 43.9209 103.716 45.9762 103.716 48.5454C103.614 48.8537 103.614 49.162 103.614 49.3675ZM96.9322 47.7233H101.249C100.941 46.5928 100.119 46.079 99.0904 46.079C97.9599 46.079 97.2407 46.6956 96.9322 47.7233Z" fill="#6C7993"/>
<path d="M110.602 44.2285V46.4894H109.574C108.237 46.4894 107.724 47.1061 107.724 48.5448V53.1693H105.359V44.3313H106.901L107.313 45.4618C107.93 44.6396 108.752 44.3313 109.882 44.3313H110.602V44.2285Z" fill="#6C7993"/>
<path d="M120.161 47.7241V53.068H117.797V48.1352C117.797 46.7992 117.283 46.1826 116.255 46.1826C115.022 46.1826 114.302 47.1075 114.302 48.5462V53.1708H111.938V44.3327H113.582L114.096 45.4632C114.816 44.6411 115.844 44.1272 117.077 44.1272C118.928 44.0245 120.161 45.4632 120.161 47.7241Z" fill="#6C7993"/>
<path d="M130.953 49.3675H124.271C124.477 50.6007 125.3 51.2174 126.43 51.2174C127.252 51.2174 127.972 50.8063 128.281 50.1897H130.85C130.233 52.1422 128.486 53.3755 126.43 53.3755C123.758 53.3755 121.805 51.3201 121.805 48.6482C121.805 45.9762 123.758 43.9209 126.43 43.9209C129.206 43.9209 131.056 45.9762 131.056 48.5454C130.953 48.8537 130.953 49.162 130.953 49.3675ZM124.271 47.7233H128.589C128.281 46.5928 127.458 46.079 126.43 46.079C125.3 46.079 124.58 46.6956 124.271 47.7233Z" fill="#6C7993"/>
<path d="M138.042 51.0113V53.1695H136.295C134.342 53.1695 133.108 51.9362 133.108 49.9837V46.1813H131.566V45.6674L135.061 41.9678H135.473V44.3314H137.94V46.284H135.575V49.7781C135.575 50.6003 136.089 51.1141 136.912 51.1141H138.042V51.0113Z" fill="#6C7993"/>
<path d="M148.223 49.3675H141.541C141.747 50.6007 142.569 51.2174 143.7 51.2174C144.522 51.2174 145.242 50.8063 145.55 50.1897H148.12C147.503 52.1422 145.756 53.3755 143.7 53.3755C141.027 53.3755 139.074 51.3201 139.074 48.6482C139.074 45.9762 141.027 43.9209 143.7 43.9209C146.475 43.9209 148.325 45.9762 148.325 48.5454C148.223 48.8537 148.223 49.162 148.223 49.3675ZM141.541 47.7233H145.858C145.55 46.5928 144.728 46.079 143.7 46.079C142.569 46.079 141.849 46.6956 141.541 47.7233Z" fill="#6C7993"/>
<path d="M153.056 53.3752C150.794 53.3752 149.355 52.142 149.355 50.1894H151.72C151.72 51.0116 152.336 51.4227 153.159 51.4227C153.776 51.4227 154.392 51.1144 154.392 50.4978C154.392 49.8811 153.673 49.6756 152.645 49.5729C151.206 49.3673 149.458 48.9562 149.458 46.9009C149.458 45.2566 150.897 44.0234 153.056 44.0234C155.215 44.0234 156.654 45.2566 156.654 47.0037H154.392C154.392 46.2843 153.878 45.976 153.056 45.976C152.336 45.976 151.823 46.2843 151.823 46.7982C151.823 47.4147 152.542 47.5175 153.468 47.723C154.907 48.0314 156.757 48.3397 156.757 50.4978C156.86 52.2448 155.318 53.3752 153.056 53.3752Z" fill="#6C7993"/>
<path d="M171.149 45.5653C171.149 47.8262 169.402 49.5733 167.037 49.5733H165.084V53.1701H162.617V41.6602H167.037C169.402 41.6602 171.149 43.3044 171.149 45.5653ZM168.682 45.5653C168.682 44.6404 168.065 43.9211 167.037 43.9211H165.187V47.2096H167.037C167.962 47.2096 168.682 46.4902 168.682 45.5653Z" fill="#6C7993"/>
<path d="M172.582 41.0439H174.947V53.1705H172.582V41.0439Z" fill="#6C7993"/>
<path d="M186.259 44.2294V53.0674H184.409L184.203 52.2453C183.483 52.8619 182.455 53.273 181.325 53.273C178.652 53.273 176.699 51.2176 176.699 48.5457C176.699 45.8737 178.652 43.8184 181.325 43.8184C182.455 43.8184 183.483 44.2294 184.203 44.9488L184.511 44.1267L186.259 44.2294ZM183.894 48.6484C183.894 47.2097 182.867 46.182 181.428 46.182C179.989 46.182 178.96 47.2097 178.96 48.6484C178.96 50.0872 179.989 51.1148 181.428 51.1148C182.867 51.1148 183.894 50.0872 183.894 48.6484Z" fill="#6C7993"/>
<path d="M200.132 46.3875H197.871V53.1702H195.507V46.3875H191.498V49.6762C191.498 50.4983 192.012 51.0121 192.834 51.0121H193.76V53.1702H192.218C190.265 53.1702 189.031 51.937 189.031 49.9844V46.3875H187.387V45.8737L190.881 41.9686H191.292V44.435H195.404V43.5101C195.404 41.7631 196.329 40.7354 198.18 40.7354H199.927V42.5852H198.59C197.974 42.5852 197.666 42.8935 197.666 43.5101V44.3322H199.927V46.3875H200.132Z" fill="#6C7993"/>
<path d="M200.852 48.6482C200.852 45.9762 202.908 43.9209 205.683 43.9209C208.458 43.9209 210.514 45.8735 210.514 48.6482C210.514 51.3201 208.458 53.3755 205.683 53.3755C202.908 53.3755 200.852 51.3201 200.852 48.6482ZM208.047 48.6482C208.047 47.2094 207.019 46.1817 205.683 46.1817C204.347 46.1817 203.319 47.2094 203.319 48.6482C203.319 50.0869 204.347 51.1146 205.683 51.1146C207.019 51.1146 208.047 50.0869 208.047 48.6482Z" fill="#6C7993"/>
<path d="M217.504 44.2285V46.4894H216.477C215.14 46.4894 214.626 47.1061 214.626 48.5448V53.1693H212.262V44.3313H213.804L214.215 45.4618C214.832 44.6396 215.654 44.3313 216.785 44.3313H217.504V44.2285Z" fill="#6C7993"/>
<path d="M232.002 47.5175V53.0669H229.638V47.9286C229.638 46.6953 229.124 46.0788 228.302 46.0788C227.274 46.0788 226.554 46.9009 226.554 48.2369V53.0669H224.19V47.9286C224.19 46.6953 223.778 46.0788 222.854 46.0788C221.723 46.0788 221.106 46.9009 221.106 48.2369V53.0669H218.742V44.2289H220.387L220.798 45.3594C221.415 44.5373 222.442 44.0234 223.471 44.0234C224.601 44.0234 225.526 44.5373 226.04 45.4621C226.657 44.64 227.685 44.0234 228.815 44.0234C230.666 44.0234 232.002 45.4621 232.002 47.5175Z" fill="#6C7993"/>
</g>
<defs>
<clipPath id="clip0_4512_18727">
<rect width="232" height="64" fill="white"/>
</clipPath>
</defs>
</svg>
