<svg width="176" height="64" viewBox="0 0 176 64" fill="none" xmlns="http://www.w3.org/2000/svg">
<path fill-rule="evenodd" clip-rule="evenodd" d="M14.7825 41.1634V47C24.4923 47 32.103 37.5386 28.9537 27.1913C28.2633 24.9687 27.0518 22.9476 25.422 21.3002C23.7922 19.6528 21.7926 18.4279 19.5934 17.7298C9.36024 14.5452 0 22.2386 0 31.9664H5.77353C5.7822 30.4806 6.14609 29.0188 6.83419 27.7057C7.52228 26.3926 8.51423 25.267 9.72551 24.4248C10.9368 23.5826 12.3315 23.0487 13.791 22.8687C15.2504 22.6886 16.7313 22.8677 18.1074 23.3907C19.2932 23.8248 20.37 24.517 21.2618 25.4182C22.1535 26.3195 22.8384 27.4078 23.2679 28.6061C25.6172 35.0311 20.951 41.1044 14.8711 41.163V35.4153H9.09756V41.1631H4.72396V37.4496H1.05469V41.1631H4.72396V45.6737H9.09756V41.1631H14.8536C14.8299 41.1633 14.8062 41.1634 14.7825 41.1634ZM46.449 23.9123C48.8991 23.9123 51.0859 24.5372 52.7476 25.6875C53.7102 26.307 54.4091 27.191 54.9362 28.51C55.4615 29.5715 55.723 30.9863 55.723 32.4898C55.723 33.9934 55.4631 35.4082 54.9362 36.5585C54.4593 37.6511 53.7049 38.5967 52.7495 39.2993C50.9998 40.537 48.9003 41.1561 46.4506 41.1561H41.1145V23.9123H46.449ZM45.9256 26.8378H44.2638V38.3354H46.0116C47.9366 38.3354 49.4244 37.8951 50.5609 37.1851C51.7903 36.3011 52.493 34.7017 52.493 32.4987C52.493 30.2958 51.8729 28.7833 50.5609 27.9881C49.3365 27.1928 47.7629 26.8378 45.9256 26.8378ZM58.773 23.7838C58.9987 23.6922 59.2405 23.6484 59.4837 23.6549H59.4767C60.0036 23.6549 60.4444 23.8325 60.7062 24.1875C60.879 24.3604 61.0147 24.5673 61.1054 24.7954C61.196 25.0234 61.2395 25.2678 61.2331 25.5135C61.2331 26.006 61.0396 26.4782 60.6949 26.8265C60.3505 27.1747 59.883 27.3703 59.3958 27.3703C58.9085 27.3703 58.4412 27.1747 58.0966 26.8265C57.7522 26.4782 57.5585 26.006 57.5585 25.5135C57.5488 25.2591 57.5994 25.006 57.706 24.7754C57.8127 24.5447 57.9724 24.3432 58.1716 24.1875C58.3428 24.0128 58.5473 23.8754 58.773 23.7838ZM60.9574 28.9608H57.9082V41.0761H60.9574V28.9608ZM71.7297 29.8739C70.8878 29.1637 69.8979 28.6999 68.8422 28.6999C68.0712 28.6827 67.3056 28.8322 66.5963 29.1384C65.8872 29.4445 65.2511 29.9003 64.7302 30.475C63.6377 31.6447 63.0414 33.1999 63.0687 34.8082C63.0687 36.4892 63.5956 37.991 64.6495 39.1413C65.7034 40.2915 67.0981 40.8224 68.7614 40.8224C69.8317 40.8394 70.8775 40.4972 71.735 39.8496V40.1141C71.735 41.0868 71.4734 41.8893 70.9482 42.4218C70.4229 42.9543 69.7187 43.2171 68.7614 43.2171C67.3562 43.2171 66.4868 42.6844 65.4382 41.1827L63.3303 43.2171L63.4182 43.3058C63.8555 43.9254 64.5547 44.5484 65.4294 45.1626C66.3041 45.7769 67.4404 46.0501 68.7527 46.0501C70.59 46.0501 71.9897 45.5176 73.0383 44.369C74.0869 43.2206 74.7 41.8041 74.7 39.9472V28.9608H71.7297V29.8739ZM69.0108 38.0762C69.889 38.0762 70.5916 37.8081 71.1186 37.1886L71.138 37.1833C71.663 36.5709 71.9248 35.7632 71.9248 34.7957C71.9248 33.8283 71.6648 33.0313 71.138 32.4082C70.6109 31.7851 69.9083 31.5206 69.0301 31.5206C68.152 31.5206 67.4494 31.7886 66.9223 32.4082C66.3954 33.0277 66.1161 33.8336 66.1161 34.8011C66.1161 35.7685 66.3761 36.5656 66.903 37.1886C67.43 37.8117 68.1327 38.0762 69.0108 38.0762ZM80.5841 28.9591H77.5227L77.5034 28.9608V41.0744H80.5841V28.9591ZM78.281 23.7839C78.5062 23.6928 78.7477 23.649 78.9902 23.6549C79.2328 23.6487 79.4743 23.6924 79.7 23.7833C79.9259 23.8744 80.1309 24.0109 80.303 24.1846C80.4751 24.3583 80.6104 24.5655 80.7005 24.7936C80.791 25.0218 80.8344 25.2661 80.8282 25.5117C80.8282 26.0042 80.6348 26.4765 80.2901 26.8247C79.9457 27.1729 79.4782 27.3686 78.9909 27.3686C78.5037 27.3686 78.0364 27.1729 77.692 26.8247C77.3474 26.4765 77.1539 26.0042 77.1539 25.5117C77.1477 25.2662 77.1912 25.0221 77.2813 24.794C77.3715 24.566 77.5066 24.3589 77.6784 24.1852C77.8503 24.0116 78.0553 23.875 78.281 23.7839ZM84.1515 25.6875H87.1218L87.2132 29.0478H90.0041V31.7904H87.2042V36.3809C87.2042 37.1833 87.2939 37.7141 87.5555 37.9786C87.7313 38.2448 88.2581 38.3336 88.9607 38.3336L90.0146 38.2448V40.9874H89.8391C89.3465 41.0612 88.8487 41.0907 88.3513 41.0761C86.8706 41.0761 85.7254 40.723 85.1141 40.1034C84.5028 39.4839 84.1515 38.3407 84.1515 36.7431V31.7017H82.3952V28.9608H84.1515V25.6875ZM107.153 23.9123H104.091L104.095 23.923V41.1561H107.153V23.9123ZM136.198 38.2537C136.74 37.8322 137.238 37.3564 137.685 36.8336V36.823L139.696 38.8573C138.472 40.6252 136.723 41.5981 134.536 41.5981C133.732 41.6121 132.935 41.4538 132.196 41.1338C131.457 40.8138 130.794 40.3392 130.25 39.7413C129.107 38.591 128.494 37.0058 128.494 35.2306C128.474 33.553 129.104 31.9342 130.25 30.72C131.474 29.4827 132.874 28.8632 134.536 28.8632C136.549 28.8632 138.21 29.6585 139.523 31.3395L137.511 33.2922C136.637 32.2307 135.588 31.6111 134.626 31.6111C134.211 31.592 133.799 31.6698 133.419 31.8386C133.04 32.0073 132.704 32.2624 132.439 32.5839C131.822 33.2922 131.56 34.0875 131.56 35.149C131.56 36.2105 131.826 37.004 132.439 37.7141C132.716 38.0202 133.052 38.2653 133.426 38.4342C133.801 38.6031 134.206 38.6921 134.617 38.6957C135.174 38.6986 135.721 38.5456 136.198 38.2537ZM148.263 29.3017C148.955 29.621 149.559 30.109 150.019 30.7218L149.989 30.7076C150.437 31.2388 150.74 31.8788 150.868 32.5644C151.119 33.3064 151.238 34.0879 151.219 34.8721V36.0224H143.171C143.262 36.8141 143.522 37.4371 144.049 37.8792C144.652 38.35 145.395 38.6003 146.157 38.5892C146.675 38.6088 147.189 38.4861 147.645 38.2342C147.976 38.0898 148.274 37.8791 148.523 37.6147C148.615 37.5215 148.707 37.4393 148.794 37.3606C148.959 37.2128 149.111 37.0772 149.225 36.9046L151.237 38.8573L151.149 38.946C149.837 40.6271 148.173 41.4224 146.162 41.4224C144.325 41.4224 142.923 40.7975 141.788 39.6472C140.654 38.4969 140.127 36.9934 140.127 35.1366C140.095 33.5049 140.621 31.912 141.614 30.6259C142.665 29.3887 144.065 28.7691 145.726 28.7691C146.601 28.7479 147.469 28.9301 148.263 29.3017ZM144.246 32.1383C143.864 32.5333 143.593 33.0233 143.459 33.5585H148.101C148.015 33.0259 147.839 32.4934 147.488 32.1383C147.139 31.6963 146.529 31.5188 145.827 31.5188C145.535 31.5059 145.244 31.5542 144.972 31.6609C144.7 31.7675 144.452 31.9301 144.246 32.1383ZM157.893 28.7816C159.467 28.7816 160.776 29.1366 161.654 29.9318L161.659 29.9336C162.627 30.7289 163.065 31.8738 163.065 33.294V41.0761H160.091V40.1034C159.041 40.9041 157.983 41.3461 156.854 41.3461C155.724 41.3461 154.753 41.0798 153.968 40.3732C153.183 39.6667 152.831 38.7827 152.831 37.6324C152.831 36.4005 153.274 35.3354 154.237 34.6253C155.199 33.9153 156.424 33.5602 157.911 33.5602C158.654 33.5551 159.393 33.6751 160.098 33.9153V33.2957C160.108 33.0413 160.057 32.7883 159.95 32.5576C159.844 32.3269 159.684 32.1254 159.485 31.9697C159.036 31.6103 158.476 31.4218 157.904 31.4372C156.68 31.4372 155.805 31.8863 155.018 33.2123L153.086 31.3555C153.516 30.4679 154.31 29.8449 155.097 29.4028C155.982 29.0199 156.931 28.8091 157.893 28.7816ZM157.728 36.1218C157.11 36.1218 156.675 36.2123 156.323 36.4768L156.325 36.4715C156.162 36.5826 156.024 36.7263 155.919 36.8936C155.813 37.0609 155.743 37.2483 155.712 37.4442C155.712 37.7993 155.882 38.0655 156.149 38.3318C156.416 38.5981 156.852 38.6868 157.379 38.6868C158.343 38.7049 159.279 38.3579 160.003 37.7141V36.5638C159.272 36.2974 158.505 36.1482 157.728 36.1218ZM171.188 28.6892C172.676 28.6892 173.809 29.1366 174.687 30.1094C175.474 31.0821 175.911 32.4087 175.999 34.0892V41.1738H172.952V34.0999C172.965 33.3986 172.75 32.7125 172.339 32.1472C172.148 31.9122 171.906 31.7256 171.632 31.6022C171.357 31.4789 171.058 31.4224 170.758 31.4372C170.425 31.4267 170.093 31.4929 169.789 31.6307C169.485 31.7684 169.216 31.9742 169.001 32.2324C168.564 32.7614 168.388 33.5549 168.388 34.4425V41.1596H165.327V29.0443H168.302V29.7543C169.001 29.0443 169.963 28.6892 171.188 28.6892ZM96.5733 28.7816C98.1472 28.7816 99.4558 29.1366 100.334 29.9318L100.336 29.9336C101.214 30.7289 101.741 31.8738 101.741 33.294V41.0744H98.7672V40.1016C97.7167 40.9022 96.6593 41.3442 95.53 41.3442C94.4006 41.3442 93.4293 41.0779 92.6441 40.3715C91.8588 39.665 91.5075 38.7809 91.5075 37.6306C91.5075 36.3987 91.9502 35.3336 92.9128 34.6235C93.8753 33.9135 95.1002 33.5585 96.5873 33.5585C97.3307 33.5533 98.0699 33.6733 98.7741 33.9135V33.294C98.784 33.0396 98.7334 32.7865 98.6268 32.5558C98.5201 32.3252 98.3604 32.1236 98.1612 31.9679C97.7123 31.6086 97.1528 31.4201 96.5804 31.4354C95.356 31.4354 94.4813 31.8845 93.6945 33.2105L91.7624 31.3537C92.1927 30.4662 92.9866 29.8431 93.7734 29.4011C94.6599 29.0183 95.6098 28.8081 96.5733 28.7816ZM96.3168 36.1218C95.6986 36.1218 95.2631 36.2123 94.9118 36.4768L94.9134 36.4715C94.6405 36.746 94.4312 37.0782 94.3005 37.4442C94.3005 37.7993 94.4707 38.0655 94.7378 38.3318C95.0047 38.5981 95.4405 38.6868 95.9673 38.6868C96.9315 38.7049 97.8676 38.3579 98.5914 37.7141V36.5638C97.8607 36.2974 97.0932 36.1482 96.3168 36.1218ZM113.236 39.9354C114.676 40.9066 116.368 41.4247 118.099 41.424C120.417 41.4147 122.636 40.48 124.275 38.8233C125.914 37.1667 126.838 34.9227 126.846 32.5804C126.846 30.8311 126.333 29.1211 125.371 27.6667C124.409 26.2122 123.043 25.0787 121.443 24.4095C119.844 23.7402 118.084 23.5653 116.387 23.9068C114.689 24.2483 113.13 25.091 111.906 26.3281C110.683 27.5653 109.85 29.1415 109.512 30.8572C109.175 32.573 109.349 34.3513 110.012 35.9672C110.675 37.5831 111.797 38.9641 113.236 39.9354ZM114.937 27.7096C115.874 27.0792 116.974 26.7437 118.099 26.7455L118.092 26.749C118.839 26.7476 119.579 26.8953 120.27 27.1837C120.96 27.4721 121.588 27.8955 122.116 28.4295C122.644 28.9636 123.063 29.5978 123.348 30.2958C123.633 30.9938 123.779 31.7418 123.778 32.4969C123.777 33.634 123.442 34.7453 122.817 35.6902C122.191 36.6352 121.302 37.3714 120.262 37.8056C119.222 38.2398 118.078 38.3527 116.975 38.1298C115.872 37.9068 114.859 37.3582 114.064 36.5534C113.269 35.7485 112.729 34.7235 112.511 33.608C112.292 32.4925 112.406 31.3367 112.839 30.2868C113.27 29.2368 114.001 28.34 114.937 27.7096Z" fill="currentColor"/>
</svg>
