<svg width="302" height="64" viewBox="0 0 302 64" fill="none" xmlns="http://www.w3.org/2000/svg">
<g clip-path="url(#clip0_4269_11157)">
<path d="M228.449 26.0752H230.873L234.772 31.843L238.67 26.0752H241.094V38.1351H238.881V29.5359L234.877 35.1988H234.772L230.767 29.5359V38.1351H228.555V26.0752H228.449Z" fill="#6C7993"/>
<path d="M245.836 26.0752H255.319V27.9628H248.049V31.1089H254.476V32.9965H248.049V36.2475H255.319V38.1351H245.73V26.0752H245.836Z" fill="#6C7993"/>
<path d="M262.59 28.0677H258.586V26.0752H268.913V28.0677H264.908V38.24H262.695V28.0677H262.59Z" fill="#6C7993"/>
<path d="M275.655 26.0752H277.763L283.347 38.24H280.924L279.659 35.3037H273.653L272.389 38.24H270.07L275.655 26.0752ZM278.816 33.416L276.603 28.592L274.391 33.416H278.816Z" fill="#6C7993"/>
<path d="M287.039 26.0752H289.252V36.2475H295.996V38.1351H287.039V26.0752Z" fill="#6C7993"/>
<path d="M296.733 25.9699H295.68V25.6553H298.209V25.9699H297.155V28.9062H296.733V25.9699Z" fill="#6C7993"/>
<path d="M298.84 25.6553H299.261L300.42 27.438L301.58 25.6553H302.001V28.9062H301.685V26.2845L300.526 27.9624L299.261 26.2845V28.9062H298.945V25.6553H298.84Z" fill="#6C7993"/>
<path d="M63.2248 32.4723H69.5472V30.6895H63.2248V27.0191H72.6031V25.2363H61.3281V38.5547H72.9192V36.7719H63.2248V32.4723Z" fill="#6C7993"/>
<path d="M112.538 33.2064C112.538 35.6184 110.958 37.1914 108.745 37.1914C106.532 37.1914 105.162 35.6184 105.162 33.2064V25.2363H103.266V33.3112C103.266 36.9816 105.795 38.8693 108.745 38.8693C113.065 38.8693 114.435 35.8281 114.435 33.3112V25.2363H112.538V33.2064Z" fill="#6C7993"/>
<path d="M126.764 25.2363H124.867V38.5547H126.764V25.2363Z" fill="#6C7993"/>
<path d="M148.896 35.6184L139.729 25.2363H137.832V38.5547H139.729V28.0678L148.896 38.5547H150.688V25.2363H148.896V35.6184Z" fill="#6C7993"/>
<path d="M163.858 25.2363H161.961V38.5547H163.858V25.2363Z" fill="#6C7993"/>
<path d="M181.875 31.3187L187.249 25.2363H184.93L180.715 29.9554L176.501 25.2363H174.077L179.346 31.3187L172.812 38.5547H175.236L180.505 32.5772L185.563 38.5547H188.197L181.875 31.3187Z" fill="#6C7993"/>
<path d="M91.9893 31.843C91.9893 33.7306 91.3571 34.9891 90.3033 36.0378L89.2496 34.8842H87.1421L88.9335 36.9816C88.512 37.1913 87.7744 37.4011 87.1421 37.4011C84.4024 37.4011 82.1896 35.0939 82.1896 32.0527C82.1896 28.9067 84.2971 26.5996 87.0368 26.5996C89.7765 26.3898 91.9893 28.6969 91.9893 31.843ZM87.0368 24.7119C83.138 24.7119 80.1875 27.7531 80.1875 31.9479C80.1875 36.1426 83.2433 39.079 87.0368 38.9741C87.9851 38.9741 89.1442 38.6595 90.0926 38.24L91.1463 39.4984H93.2538L91.3571 37.2962C92.8323 36.1426 93.7807 34.1501 93.7807 31.7381V31.6333C93.886 27.6482 90.8302 24.7119 87.0368 24.7119Z" fill="#6C7993"/>
<path d="M21.0747 18L16.8597 19.4682V41.4906L14.0147 40.4419V20.412L5.58479 23.3483V37.5056L2.84508 36.5618V24.397L0 25.3408V38.5543L8.42987 41.4906V25.3408L11.2749 24.397V42.4345L19.5994 45.3708V21.4607L21.0747 20.9363L22.4445 21.4607V45.3708L30.8744 42.4345V24.397L33.7195 25.3408V41.4906L42.1493 38.5543V25.3408L39.3043 24.397V36.5618L36.4592 37.5056V23.3483L28.0293 20.412V40.4419L25.2896 41.4906V19.4682L21.0747 18Z" fill="#6C7993"/>
<path d="M49.8415 37.6109C51.2113 37.6109 52.3704 36.4573 52.3704 35.094C52.3704 33.7307 51.3167 32.5771 49.8415 32.5771C48.4716 32.5771 47.3125 33.7307 47.3125 35.094C47.3125 36.4573 48.4716 37.6109 49.8415 37.6109ZM49.8415 37.4011C48.577 37.4011 47.6286 36.3524 47.6286 35.1989C47.6286 33.9404 48.577 32.8918 49.8415 32.8918C51.1059 32.8918 52.0543 33.9404 52.0543 35.094C52.1597 36.3524 51.1059 37.4011 49.8415 37.4011ZM48.7877 36.3524H49.42V35.5135H49.8415L50.3683 36.3524H51.1059L50.5791 35.4086C50.8952 35.3037 51.2113 34.9891 51.2113 34.5697C51.2113 33.9404 50.7898 33.7307 50.1576 33.7307H48.8931V36.3524H48.7877ZM49.42 34.9891V34.2551H49.9468C50.263 34.2551 50.3683 34.3599 50.3683 34.5697C50.3683 34.7794 50.1576 34.8843 49.9468 34.8843H49.42V34.9891Z" fill="#6C7993"/>
<path d="M208.218 18H207.797V46H208.218V18Z" fill="#6C7993"/>
</g>
<defs>
<clipPath id="clip0_4269_11157">
<rect width="302" height="28" fill="white" transform="translate(0 18)"/>
</clipPath>
</defs>
</svg>
