<svg width="158" height="64" viewBox="0 0 158 64" fill="none" xmlns="http://www.w3.org/2000/svg">
<path d="M22.0721 13L0 51H3.06226L22.0721 18.4371V23.7943L6.2308 51H9.39934L22.0721 29.2571V34.7186L12.5679 51H15.7364L22.0735 40.1814V45.5386L18.905 51H44.1456L22.0721 13Z" fill="#6C7993"/>
<path d="M44.9062 31.3274H54.8701V33.4446H47.292V36.9017H54.0399V39.0189H47.292V42.5803H54.9735V44.6974H44.9192L44.9062 31.3274ZM70.1828 31.3274L65.5118 37.8317L70.3911 44.646H67.5902L64.0626 39.536L60.5335 44.646H57.8332L62.6593 37.8317L57.9883 31.2603H60.7892L64.1114 36.0603L67.4868 31.2603H70.1871L70.1828 31.3274ZM72.3114 38.0389C72.3114 34.2189 75.2186 31.1217 79.3695 31.1217C83.4703 31.1217 86.376 34.2189 86.376 37.9874C86.376 41.756 83.4688 44.9046 79.3178 44.9046C75.2171 44.9046 72.3114 41.8074 72.3114 38.0389ZM83.8854 38.0389C83.8854 35.406 81.965 33.2903 79.3178 33.2903C76.6707 33.2903 74.802 35.4074 74.802 37.9874C74.802 40.5674 76.7224 42.736 79.3695 42.736C82.0167 42.736 83.8854 40.6189 83.8854 38.0389ZM89.2831 42.736L90.685 41.0332C91.982 42.1189 93.2804 42.7903 94.9408 42.7903C96.3944 42.7903 97.328 42.1189 97.328 41.0874V41.036C97.328 40.1074 96.8109 39.5903 94.3174 38.9717C91.4635 38.3003 89.8533 37.4232 89.8533 34.9974V34.946C89.8533 32.6603 91.7737 31.0889 94.4209 31.0889C96.3929 31.0889 97.9499 31.656 99.3001 32.7917L98.0548 34.5489C96.8626 33.6717 95.6159 33.1546 94.4209 33.1546C93.019 33.1546 92.2405 33.8774 92.2405 34.7546V34.806C92.2405 35.8389 92.8639 36.3032 95.4579 36.9232C98.3119 37.5946 99.7669 38.626 99.7669 40.846V40.8974C99.7669 43.3746 97.7948 44.8717 94.9925 44.8717C92.8927 44.8864 90.8607 44.1329 89.2831 42.7546V42.736ZM102.933 38.0389C102.933 34.2189 105.787 31.1217 109.836 31.1217C112.326 31.1217 113.831 31.9989 115.13 33.186L113.625 34.9432C112.533 33.9617 111.393 33.2917 109.836 33.2917C107.293 33.2917 105.426 35.356 105.426 37.9889C105.426 40.6217 107.293 42.7374 109.836 42.7374C111.496 42.7374 112.536 42.066 113.676 41.0346L115.196 42.5846C113.794 44.0303 112.237 44.9589 109.746 44.9589C105.868 44.9074 102.947 41.8617 102.947 38.0417L102.933 38.0389ZM123.537 31.2246H125.717L131.635 44.646H129.128L127.778 41.446H121.458L120.056 44.646H117.618L123.537 31.2246ZM126.912 39.3674L124.577 34.0503L122.278 39.3674H126.912ZM135.009 31.3146H137.344V42.5146H144.402V44.6317H135.009V31.3146ZM147.933 31.3146H157.898V33.4317H150.32V36.8889H157.068V39.006H150.32V42.5674H157.999V44.7132H147.944L147.933 31.3146Z" fill="#6C7993"/>
</svg>
