<?xml version="1.0" encoding="UTF-8"?>
<svg version="1.1" xmlns="http://www.w3.org/2000/svg" width="2400" height="633">
<path d="M0 0 C0.78428838 -0.0050486 1.56857677 -0.0100972 2.37663147 -0.01529878 C5.02082972 -0.03105473 7.6650033 -0.03971548 10.30923367 -0.04837227 C12.21815023 -0.05811264 14.12706479 -0.0682517 16.0359773 -0.07875645 C21.29529061 -0.10630308 26.55461301 -0.12739665 31.81396019 -0.14727235 C36.32272743 -0.16506698 40.83147479 -0.1864841 45.34022648 -0.20781206 C87.48873429 -0.40611613 129.63771702 -0.51019475 171.78659874 -0.5922576 C178.0667224 -0.60452587 184.34684508 -0.61726912 190.62696743 -0.6301899 C191.3208457 -0.63160688 192.01472397 -0.63302386 192.72962885 -0.63448378 C215.15734372 -0.68059837 237.5845895 -0.77150031 260.0120458 -0.88703606 C283.7609688 -1.00915435 307.50956943 -1.08242661 331.25880617 -1.10445988 C344.18848682 -1.11780286 357.11728474 -1.15307055 370.04666233 -1.24569511 C381.07454824 -1.32468618 392.10144791 -1.35842558 403.12961204 -1.33567022 C408.74277202 -1.3254637 414.3537972 -1.33513197 419.96659374 -1.40376854 C448.03700599 -1.72976032 476.16036674 -0.13422479 500.29664516 16.15936089 C500.89791775 18.26646233 500.89791775 18.26646233 500.86427212 20.72259331 C500.86389446 21.6433213 500.86351681 22.5640493 500.86312771 23.51267815 C500.83732128 24.50338814 500.81151485 25.49409813 500.78492641 26.51482964 C500.77785168 27.53160286 500.77077694 28.54837608 500.76348782 29.59596062 C500.73547435 32.84700573 500.67272102 36.09633542 500.60914516 39.34686089 C500.58407138 41.54930999 500.56125661 43.75178606 500.54078579 45.95428276 C500.48562526 51.35656184 500.40193008 56.75783884 500.29664516 62.15936089 C500.9150729 62.46623833 501.53350063 62.77311577 502.1706686 63.08929253 C509.79616163 66.927434 516.80788408 71.7992327 523.7956686 76.67278862 C524.41860806 77.10663872 525.04154751 77.54048882 525.68336391 77.98748589 C526.32522333 78.45728963 526.96708275 78.92709337 527.62839246 79.41113359 C529.74404992 80.79730294 531.6967644 81.85544742 533.96381259 82.93272847 C543.95930938 88.0308118 543.95930938 88.0308118 546.1680482 93.19791187 C547.58077964 99.29210895 547.26602691 105.53673876 547.13410854 111.74989128 C547.14423634 113.86531959 547.16094046 115.98072488 547.18363643 118.09605569 C547.22683096 123.89882449 547.17661241 129.69758414 547.11092472 135.50000322 C547.05639017 141.76129467 547.08850627 148.02221944 547.10984707 154.28362846 C547.134761 165.13132265 547.10481575 175.97740706 547.03542233 186.82482147 C546.96269484 198.20707728 546.91898586 209.58880604 546.91449642 220.97130203 C546.91403822 222.03423485 546.91403822 222.03423485 546.91357075 223.11864106 C546.91242311 225.99532573 546.91148725 228.87201035 546.91083006 231.74869517 C546.90477517 257.95844214 546.82633205 284.16745352 546.70289516 310.37689018 C546.58647617 335.10155754 546.51556735 359.82577884 546.49781704 384.55071831 C546.49725946 385.31217391 546.49670189 386.0736295 546.49612742 386.85815951 C546.49388307 389.92814664 546.49167317 392.9981338 546.48946528 396.06812096 C546.48836336 397.59814469 546.4872569 399.12816842 546.48614588 400.65819215 C546.48503908 402.18453747 546.48394522 403.71088281 546.48286437 405.23722815 C546.46527142 429.567683 546.40796278 453.89805435 546.34383269 478.22842527 C546.3252587 485.34592386 546.3089294 492.46341686 546.29758835 499.58093095 C546.27351186 514.54881417 546.23720298 529.51636185 546.15685001 544.48407785 C546.12387762 550.67299482 546.09849569 556.86167627 546.09454632 563.05068588 C546.09059779 568.72030632 546.06343229 574.38933157 546.01794884 580.05876663 C546.00545787 582.1057574 546.00122157 584.1528194 546.00624278 586.19984213 C546.03348011 599.96601514 545.52628731 612.94184298 535.31227016 623.44451714 C526.15379316 631.23632219 517.00500447 633.4670483 505.26205921 633.42500973 C504.27438932 633.42941459 503.28671944 633.43381946 502.26912016 633.4383578 C498.9573147 633.45067591 495.64567174 633.44880479 492.33384609 633.4469738 C489.93628335 633.45285859 487.53872259 633.45959789 485.14116442 633.46711868 C479.24150885 633.4832962 473.34188419 633.49013521 467.44221115 633.4929667 C460.37389888 633.49684974 453.30562306 633.51222271 446.23732842 633.52772781 C429.15587069 633.5645933 412.07441144 633.58099907 394.99292208 633.59460616 C386.91006739 633.60115281 378.82721564 633.60997714 370.74436337 633.61898607 C343.06785834 633.64970661 315.39135378 633.67542229 287.71483326 633.68630886 C285.97811921 633.68700525 284.24140515 633.68770292 282.5046911 633.68840187 C281.21283602 633.68892017 281.21283602 633.68892017 279.89488285 633.68944894 C275.53157054 633.69120234 271.16825824 633.69297369 266.80494595 633.69476128 C265.93904122 633.69511082 265.07313649 633.69546036 264.18099222 633.69582049 C236.10419725 633.70734462 208.02753639 633.7467003 179.95079687 633.80250758 C150.25575904 633.86142355 120.56079889 633.89483419 90.86570132 633.89932102 C87.60491631 633.89991 84.34413134 633.90060499 81.08334637 633.90137863 C80.28046871 633.90155759 79.47759106 633.90173655 78.65038378 633.90192094 C65.73999936 633.90540099 52.82976287 633.93206658 39.91942997 633.96710753 C26.93915134 634.00175817 13.95905507 634.01043069 0.97874038 633.99289692 C-6.72817838 633.9832377 -14.43449728 633.99290978 -22.1413327 634.0306701 C-27.90293941 634.05672825 -33.66401813 634.04600406 -39.42560892 634.02122771 C-41.75131943 634.01688991 -44.07708892 634.02432096 -46.40271242 634.04490072 C-60.4879454 634.16172154 -71.6689912 633.68448039 -82.91170561 624.31992823 C-84.80147454 622.37265734 -86.24918855 620.44750351 -87.70335484 618.15936089 C-88.15206023 617.46340575 -88.60076562 616.76745061 -89.06306815 616.05040592 C-94.07836784 606.73365583 -93.38231181 597.17975147 -93.29789829 586.89741325 C-93.29936382 584.82994436 -93.30303255 582.76247605 -93.30870605 580.69501442 C-93.31792423 575.03066019 -93.29605 569.36679121 -93.2690239 563.70250976 C-93.24533859 557.58722176 -93.2506535 551.47195051 -93.25245762 545.35662651 C-93.2516693 534.76432554 -93.23285533 524.17219852 -93.20143986 513.57995605 C-93.1685848 502.4665616 -93.14658667 491.35322941 -93.13880253 480.23978806 C-93.13831371 479.54772595 -93.13782488 478.85566385 -93.13732125 478.14263016 C-93.1349015 474.62749566 -93.13268532 471.11236106 -93.13055453 467.59722637 C-93.11517277 442.71091158 -93.07737306 417.82467731 -93.02562046 392.93841362 C-92.97549536 368.79584312 -92.93296526 344.65328319 -92.90257359 320.51067924 C-92.90163289 319.76700078 -92.9006922 319.02332232 -92.899723 318.25710814 C-92.87918825 301.99409002 -92.86045848 285.73107003 -92.8428334 269.46804852 C-92.83815157 265.1518098 -92.83343043 260.83557112 -92.82870268 256.51933245 C-92.82481216 252.96513771 -92.82095393 249.41094294 -92.81716594 245.8567481 C-92.79929327 229.15803306 -92.77573349 212.45934549 -92.74220583 195.7606542 C-92.72118327 185.28566235 -92.70315776 174.8106682 -92.68741944 164.33566684 C-92.67635362 157.13392971 -92.66107294 149.93221886 -92.64245208 142.73049751 C-92.63220583 138.35448586 -92.62618733 133.97847607 -92.62139234 129.60245537 C-92.61835089 127.60325329 -92.61357636 125.60405291 -92.60686556 123.60485978 C-92.55510404 109.96029046 -92.55510404 109.96029046 -93.58530593 96.36053127 C-93.70335484 94.15936089 -93.70335484 94.15936089 -92.70335484 91.15936089 C-90.68821812 89.55633354 -90.68821812 89.55633354 -88.02366734 87.82342339 C-87.04019321 87.17703911 -86.05671909 86.53065483 -85.04344273 85.86468315 C-83.98246372 85.1781768 -82.92148472 84.49167046 -81.82835484 83.78436089 C-79.64151073 82.34914709 -77.45532183 80.91293449 -75.26976109 79.47576714 C-73.62064732 78.39512993 -73.62064732 78.39512993 -71.93821812 77.29266167 C-67.17864002 74.15385462 -62.46758386 70.94645345 -57.76585484 67.72186089 C-56.9622855 67.17288139 -56.15871616 66.6239019 -55.33079624 66.05828667 C-51.85875023 63.80561223 -51.85875023 63.80561223 -48.70335484 61.15936089 C-48.61754823 59.76801424 -48.59922889 58.37240766 -48.60911655 56.97845268 C-48.61176517 56.09050514 -48.6144138 55.2025576 -48.61714268 54.28770256 C-48.62238956 53.321092 -48.62763645 52.35448143 -48.63304234 51.35857964 C-48.62445739 49.32927418 -48.61398121 47.29997601 -48.60179234 45.27068901 C-48.58508551 42.05732813 -48.57836491 38.84558518 -48.60374546 35.63226128 C-48.62467598 32.54001426 -48.60150034 29.45068668 -48.57054234 26.35857964 C-48.58793461 25.39804176 -48.60532688 24.43750389 -48.62324619 23.44785881 C-48.5760384 20.84311395 -48.45727178 18.65354071 -47.70335484 16.15936089 C-45.10186001 14.10662999 -43.67456787 13.22936399 -40.70335484 12.15936089 C-39.58356236 11.68152153 -38.46376987 11.20368217 -37.31004429 10.71136284 C-36.15721958 10.27783501 -35.00439487 9.84430717 -33.81663609 9.39764214 C-33.19234211 9.16151711 -32.56804813 8.92539207 -31.92483616 8.68211174 C-30.61922686 8.1895672 -29.31255615 7.69982748 -28.00486851 7.21282768 C-26.00803171 6.46894654 -24.01468075 5.71627666 -22.02171421 4.96209526 C-14.37335758 2.08412363 -8.21436802 0.01224869 0 0 Z " fill="#F9DA1C" transform="translate(1854.7033548355103,-0.1593608856201172)"/>
<path d="M0 0 C1.67917771 -0.01653244 3.35828583 -0.04378702 5.03710938 -0.08203125 C17.90949875 -0.37206353 29.65985442 0.37186909 40.34179688 8.53759766 C53.83811946 22.00520466 57.05887792 48.93960997 57.17773438 67.04541016 C56.6011125 71.82797981 54.98961216 75.13978237 51.59179688 78.53759766 C41.72326994 84.89731502 30.77052569 84.46270055 19.41247559 84.68029785 C-1.72334816 85.12418039 -19.87727916 86.99940439 -37.22070312 100.35009766 C-38.25195312 101.09259766 -39.28320312 101.83509766 -40.34570312 102.60009766 C-46.77185404 108.7468507 -51.34069285 116.12700095 -55.40820312 123.97509766 C-55.71677246 124.55235596 -56.0253418 125.12961426 -56.34326172 125.72436523 C-63.03830461 139.19791706 -65.41960868 154.53970236 -67.90820312 169.22509766 C-68.20481633 170.93358972 -68.50233984 172.641924 -68.80078125 174.35009766 C-69.34961818 177.49613736 -69.89271653 180.64305594 -70.43041992 183.79101562 C-71.32220648 188.9843138 -72.27076609 194.16717095 -73.22070312 199.35009766 C-72.53467514 199.34121521 -71.84864716 199.33233276 -71.14183044 199.32318115 C-63.98778635 199.23453945 -56.83389883 199.1742931 -49.67944336 199.13037109 C-47.01083502 199.11254526 -44.3430879 199.08301091 -41.67456055 199.04833984 C-37.83436236 198.99970258 -33.99474737 198.97710026 -30.15429688 198.95947266 C-28.96549423 198.93882751 -27.77669159 198.91818237 -26.55186462 198.89691162 C-19.85280117 198.89510555 -15.63470754 199.28809622 -10.22070312 203.35009766 C-4.39752423 209.17327655 -3.13509892 214.43904415 -2.97070312 222.47509766 C-3.28426691 239.64271469 -6.80966682 260.48992833 -18.42773438 273.89697266 C-26.96137072 281.86363827 -34.01110774 282.78837908 -45.37304688 282.64306641 C-46.6283168 282.63882156 -47.88358673 282.63457672 -49.17689514 282.63020325 C-52.4929965 282.61630394 -55.80846365 282.58941267 -59.12438965 282.55609131 C-62.51646482 282.52524686 -65.90860586 282.51166741 -69.30078125 282.49658203 C-75.94092866 282.46357404 -82.58077932 282.41341981 -89.22070312 282.35009766 C-89.27938568 282.92174652 -89.33806824 283.49339539 -89.39852905 284.08236694 C-89.89839773 288.78668593 -90.52177759 293.4223194 -91.38476562 298.07666016 C-91.61631348 299.33631592 -91.84786133 300.59597168 -92.08642578 301.89379883 C-92.20979309 302.55689056 -92.3331604 303.2199823 -92.46026611 303.90316772 C-92.99508677 306.77811459 -93.52289335 309.65433722 -94.05111694 312.53050232 C-94.33335598 314.06715417 -94.61593431 315.60374373 -94.89883423 317.14027405 C-96.57775852 326.26732754 -98.21116894 335.40251015 -99.84570312 344.53759766 C-102.2810791 358.14601965 -104.74766468 371.74838622 -107.22070312 385.35009766 C-145.83070313 385.35009766 -184.44070313 385.35009766 -224.22070312 385.35009766 C-223.54814768 376.60687681 -222.69033831 368.34252035 -221.11132812 359.77978516 C-220.79829742 358.03896164 -220.79829742 358.03896164 -220.47894287 356.26296997 C-219.81558325 352.5825541 -219.14327109 348.90384059 -218.47070312 345.22509766 C-218.03522597 342.81504637 -217.60032644 340.40489065 -217.16601562 337.99462891 C-216.08252556 331.99301933 -214.98736435 325.99361456 -213.88745117 319.99499512 C-213.20331929 316.25506579 -212.5252748 312.51406363 -211.84765625 308.77294922 C-211.40450541 306.34289816 -210.96115345 303.91288377 -210.51757812 301.48291016 C-210.31618225 300.36544403 -210.11478638 299.24797791 -209.9072876 298.09664917 C-209.71519714 297.04994049 -209.52310669 296.00323181 -209.32519531 294.92480469 C-209.15961121 294.0140921 -208.9940271 293.10337952 -208.82342529 292.16506958 C-208.11205017 288.84264161 -207.18300471 285.60774686 -206.22070312 282.35009766 C-207.19056656 282.35453888 -208.16042999 282.3589801 -209.15968323 282.36355591 C-251.54339987 282.5510686 -293.91423136 282.68858589 -336.28320312 281.41259766 C-337.38927351 281.37977566 -337.38927351 281.37977566 -338.51768875 281.34629059 C-352.27246627 280.93696846 -366.01628347 280.47829358 -379.75024414 279.59790039 C-390.70604766 278.94687151 -401.68995209 278.71061281 -412.65820312 278.35009766 C-422.51255009 278.02202524 -432.36676292 277.69018073 -442.22070312 277.35009766 C-443.41979309 277.30884766 -444.61888306 277.26759766 -445.85430908 277.22509766 C-449.34245725 277.10349609 -452.83041951 276.9775208 -456.31835938 276.85009766 C-457.34376328 276.81464844 -458.36916718 276.77919922 -459.42564392 276.74267578 C-466.3785764 276.48248778 -473.29188276 275.98179809 -480.22070312 275.35009766 C-480.22070312 275.02009766 -480.22070312 274.69009766 -480.22070312 274.35009766 C-440.80684877 272.09880919 -401.3915415 269.90839333 -361.9644165 267.90048218 C-347.67395491 267.17152467 -333.38486138 266.41658212 -319.09570312 265.66259766 C-316.57503287 265.52969775 -314.05436231 265.39680368 -311.53369141 265.26391602 C-305.76268032 264.95959334 -299.99168618 264.65495142 -294.22070312 264.35009766 C-295.21070313 261.05009766 -296.20070313 257.75009766 -297.22070312 254.35009766 C-307.80356553 252.32267429 -318.39008514 250.77005735 -329.08789062 249.48242188 C-338.83027515 248.30195095 -348.52498076 246.86237294 -358.22070312 245.35009766 C-358.22070312 244.69009766 -358.22070312 244.03009766 -358.22070312 243.35009766 C-351.08599972 242.77655973 -343.95096018 242.20735235 -336.81567383 241.64111328 C-334.38981353 241.44809376 -331.96403105 241.25409353 -329.53833008 241.05908203 C-326.04593726 240.77848806 -322.55327715 240.50145533 -319.06054688 240.22509766 C-317.98111313 240.13760254 -316.90167938 240.05010742 -315.78953552 239.95996094 C-310.58135932 239.5512649 -305.44493366 239.24658349 -300.22070312 239.35009766 C-302.20070313 232.91509766 -302.20070313 232.91509766 -304.22070312 226.35009766 C-309.88976094 225.46653647 -315.55889058 224.58343773 -321.22808838 223.70077515 C-323.26288753 223.3839595 -325.29767759 223.06708542 -327.3324585 222.75015259 C-338.38849295 221.0283867 -349.44523301 219.3116737 -360.50585938 217.61962891 C-361.38820755 217.48451904 -362.27055573 217.34940918 -363.17964172 217.21020508 C-367.34155025 216.57305866 -371.50369331 215.93752111 -375.66625977 215.3046875 C-383.54022127 214.10303499 -391.3959351 212.84503906 -399.22070312 211.35009766 C-399.22070312 211.02009766 -399.22070312 210.69009766 -399.22070312 210.35009766 C-386.74866652 208.73494313 -386.74866652 208.73494313 -381.27078247 208.03276062 C-374.52576154 207.16758002 -367.78239537 206.2952132 -361.04394531 205.37988281 C-353.73642234 204.3972429 -346.42135831 203.49927581 -339.09570312 202.66259766 C-338.08880684 202.54750917 -338.08880684 202.54750917 -337.06156921 202.43009567 C-288.73158222 196.97397941 -239.78402883 198.2294967 -191.22070312 198.35009766 C-191.12127411 197.79982407 -191.02184509 197.24955048 -190.91940308 196.68260193 C-189.8585604 190.82167031 -188.78509153 184.96314135 -187.70507812 179.10571289 C-187.30649392 176.93537718 -186.91086462 174.76449619 -186.51855469 172.59301758 C-176.48346618 117.10412431 -156.22413598 65.69485865 -108.46923828 32.11865234 C-104.47225001 29.38476203 -100.38316126 26.82364243 -96.22070312 24.35009766 C-95.64803711 24.00881836 -95.07537109 23.66753906 -94.48535156 23.31591797 C-73.45995571 10.99312567 -50.21492169 4.62594218 -26.22070312 1.35009766 C-25.17946289 1.20652832 -25.17946289 1.20652832 -24.1171875 1.06005859 C-16.10892932 0.10998482 -8.05477905 0.05780194 0 0 Z " fill="#107BD3" transform="translate(2293.220703125,247.64990234375)"/>
<path d="M0 0 C5.59136047 0.05327372 11.18245044 0.02350856 16.77395046 0.00505757 C27.6637813 -0.01840454 38.55203639 0.03136344 49.44157995 0.10708474 C62.14917439 0.19232806 74.85649048 0.20023744 87.56432747 0.20512344 C110.23531142 0.21619795 132.90546122 0.29221353 155.57608974 0.40767598 C177.53869523 0.51948892 199.50090219 0.59014104 221.46378505 0.61275411 C222.14237295 0.61346322 222.82096086 0.61417233 223.52011203 0.61490293 C226.93846608 0.61846903 230.35682019 0.62197559 233.77517432 0.62547291 C234.78720337 0.6265115 234.78720337 0.6265115 235.81967745 0.62757107 C237.18031257 0.62896219 238.54094771 0.63034004 239.90158287 0.6317046 C261.58321442 0.65369502 283.26477343 0.70826105 304.94632598 0.76971563 C311.27627921 0.78755019 317.60622941 0.80392117 323.93619454 0.81693721 C337.22238588 0.84443102 350.50836129 0.88257535 363.79438628 0.95636462 C369.28273481 0.98668747 374.77091976 1.01104935 380.25935161 1.01831746 C385.28754852 1.02526141 390.31530329 1.05080281 395.3433417 1.09093739 C397.15666171 1.10229796 398.9700378 1.10711246 400.78339154 1.10451923 C411.20193702 1.09413091 420.03093787 1.88607131 429.89029872 5.68355489 C430.61433834 5.93775413 431.33837795 6.19195338 432.08435816 6.45385563 C433.8896003 7.08839963 435.67977212 7.7653687 437.46842372 8.44527364 C438.09134304 8.68139867 438.71426235 8.9175237 439.356058 9.16080403 C440.64019176 9.64860204 441.92358914 10.13834328 443.20621669 10.63008809 C445.17835939 11.38563632 447.15327028 12.133596 449.12857997 12.88082051 C458.75041231 16.54366847 458.75041231 16.54366847 459.89029872 17.68355489 C459.95533902 19.05452848 459.95235982 20.42882794 459.92106044 21.80098653 C459.90550106 22.6760233 459.88994167 23.55106008 459.87391078 24.45261312 C459.85611568 25.40667546 459.83832057 26.36073781 459.81998622 27.34371114 C459.80907768 29.35476444 459.80136936 31.36583716 459.79654872 33.37691426 C459.78871043 36.55607848 459.76567538 39.730613 459.68815029 42.90889668 C458.93087591 55.01651071 458.93087591 55.01651071 463.2543124 65.78755879 C466.06331739 67.83239235 468.72834149 69.2657661 471.89029872 70.68355489 C473.433971 71.73408858 474.95931048 72.81282388 476.45279872 73.93355489 C482.80513036 78.36279739 489.2682061 82.62929126 495.71842372 86.91402364 C496.42805263 87.39274922 497.13768154 87.87147481 497.86881435 88.36470723 C499.83848054 89.68447479 499.83848054 89.68447479 501.7711581 90.72505879 C503.43717372 91.67183614 503.43717372 91.67183614 505.89029872 93.68355489 C505.89029872 95.66355489 505.89029872 97.64355489 505.89029872 99.68355489 C296.01029872 99.68355489 86.13029872 99.68355489 -130.10970128 99.68355489 C-130.10970128 93.68355489 -130.10970128 93.68355489 -128.33626378 91.76949239 C-127.47774815 91.20488301 -126.61923253 90.64027364 -125.73470128 90.05855489 C-124.22843174 89.04341817 -124.22843174 89.04341817 -122.69173253 88.00777364 C-122.12406163 87.63958516 -121.55639073 87.27139668 -120.97151768 86.89205098 C-118.94586347 85.57720855 -116.93928199 84.23616348 -114.93392003 82.89058614 C-112.74675623 81.4244237 -110.55834048 79.96083648 -108.36018956 78.51119161 C-106.87126952 77.52912349 -105.39791509 76.52321852 -103.93733799 75.49947286 C-101.63910144 74.02353749 -99.42966206 72.83720579 -96.98909581 71.63716817 C-89.05303007 67.53455935 -89.05303007 67.53455935 -84.30711949 60.32793355 C-83.23422619 53.62504034 -83.8336065 46.91453704 -84.35970128 40.18355489 C-84.5299764 37.15034887 -84.67718272 34.11761251 -84.80568516 31.0823586 C-84.89227614 29.20327443 -85.00688839 27.32522522 -85.15248692 25.44979024 C-85.20443211 24.60460835 -85.2563773 23.75942647 -85.30989659 22.88863301 C-85.36703831 22.14681783 -85.42418004 21.40500264 -85.48305333 20.64070821 C-85.10970128 18.68355489 -85.10970128 18.68355489 -83.52850348 17.26731789 C-58.51014821 0.88600922 -28.79979053 -0.35660712 0 0 Z " fill="#F7C515" transform="translate(1893.1097012758255,-0.6835548877716064)"/>
<path d="M0 0 C1.45781415 1.226248 2.89526726 2.47706732 4.3125 3.75 C5.06273437 4.40742188 5.81296875 5.06484375 6.5859375 5.7421875 C23.11765285 21.14545812 31.47901746 45.37544631 32.48950195 67.65209961 C32.51570168 69.06875265 32.53584608 70.48552717 32.55078125 71.90234375 C32.5605751 72.67108322 32.57036896 73.43982269 32.58045959 74.2318573 C32.8933303 105.19671197 28.95880067 133.63585792 15.3125 161.75 C15.01649902 162.37181152 14.72049805 162.99362305 14.41552734 163.63427734 C9.28897003 174.28344692 2.68044667 183.53715161 -4.6875 192.75 C-5.11409912 193.29132568 -5.54069824 193.83265137 -5.98022461 194.39038086 C-10.23474684 199.67165556 -15.351839 203.61776254 -20.6875 207.75 C-21.863125 208.66652344 -21.863125 208.66652344 -23.0625 209.6015625 C-59.48164965 236.54681174 -105.69277863 237.18621229 -148.6875 231.75 C-148.84307373 232.98637207 -148.99864746 234.22274414 -149.15893555 235.49658203 C-154.38228568 276.86832252 -154.38228568 276.86832252 -157.3125 295.125 C-157.49385498 296.30852051 -157.67520996 297.49204102 -157.86206055 298.71142578 C-159.10759133 306.18461049 -160.58498759 312.7250504 -166.1875 318.1875 C-169.7911118 320.43975738 -172.86762593 320.8719705 -177.06958008 320.92700195 C-177.9275972 320.93983719 -178.78561432 320.95267242 -179.66963196 320.96589661 C-181.04939461 320.97697701 -181.04939461 320.97697701 -182.45703125 320.98828125 C-183.41139572 320.996353 -184.36576019 321.00442474 -185.3490448 321.01274109 C-187.36719966 321.02655765 -189.38537766 321.03729064 -191.40356445 321.04516602 C-193.46255359 321.05669233 -195.5215127 321.07715434 -197.58032227 321.10668945 C-200.56026453 321.14943404 -203.53932019 321.16554418 -206.51953125 321.17578125 C-207.89018486 321.20204338 -207.89018486 321.20204338 -209.28852844 321.22883606 C-215.28600068 321.2086095 -218.79063758 320.27651766 -223.6875 316.75 C-228.01817818 311.81878201 -228.05799195 307.03733861 -227.6875 300.75 C-227.28724497 297.06955911 -226.71825963 293.42524921 -226.12666321 289.77119446 C-225.95868184 288.69844668 -225.79070047 287.6256989 -225.61762875 286.52044362 C-225.05545519 282.94135009 -224.48341649 279.36390581 -223.91137695 275.78637695 C-223.50510984 273.21316202 -223.09945015 270.63985112 -222.6943512 268.06645203 C-221.7077475 261.80622366 -220.71382037 255.54717923 -219.71747933 249.28849409 C-218.55303341 241.97175691 -217.39628747 234.65380863 -216.23991909 227.33579125 C-214.17141455 214.24682642 -212.09654164 201.15887933 -210.01782227 188.0715332 C-208.01104375 175.4370496 -206.00779788 162.80201371 -204.0090332 150.16625977 C-203.8864064 149.39104555 -203.76377961 148.61583133 -203.63743684 147.81712577 C-203.14419091 144.69889221 -202.65095707 141.58065673 -202.1577424 138.46241822 C-200.01014729 124.88526946 -197.85975116 111.3085641 -195.70882556 97.73194262 C-195.36434434 95.55749175 -195.01991407 93.38303281 -194.67549157 91.20857263 C-193.35925245 82.89924803 -192.04153359 74.59016002 -190.72189903 66.28137398 C-190.32529929 63.78327904 -189.92907524 61.28512442 -189.53329468 58.78689957 C-188.63132977 53.0945803 -187.72399234 47.40324705 -186.80407143 41.71380043 C-186.10293602 37.37467089 -185.42206093 33.03317323 -184.76035211 28.6879116 C-184.33971362 25.94228834 -183.90744897 23.19856465 -183.47320994 20.45506319 C-183.16965854 18.51249173 -182.88048383 16.5676908 -182.59173423 14.62286407 C-180.45675524 1.26464219 -180.45675524 1.26464219 -175.036026 -3.78991699 C-170.62772586 -6.14522363 -167.07711628 -6.76371952 -161.99609375 -6.78125 C-161.28775894 -6.7850769 -160.57942413 -6.78890381 -159.84962463 -6.79284668 C-158.36303269 -6.79555045 -156.87639191 -6.78829742 -155.38989258 -6.77148438 C-153.12668098 -6.75001595 -150.86663105 -6.77135022 -148.60351562 -6.796875 C-147.15103473 -6.79423207 -145.69855579 -6.7891078 -144.24609375 -6.78125 C-142.93954834 -6.77673828 -141.63300293 -6.77222656 -140.28686523 -6.76757812 C-134.99082966 -6.0060238 -131.9485431 -3.61328983 -128.375 0.25 C-125.67127407 4.2555199 -125.56447077 7.6205049 -125.58984375 12.390625 C-125.59467773 13.99550781 -125.59467773 13.99550781 -125.59960938 15.6328125 C-125.61217773 17.29957031 -125.61217773 17.29957031 -125.625 19 C-125.62951172 20.12664062 -125.63402344 21.25328125 -125.63867188 22.4140625 C-125.65044603 25.19276217 -125.6668916 27.97135409 -125.6875 30.75 C-124.97207031 29.99976563 -124.25664063 29.24953125 -123.51953125 28.4765625 C-94.11898299 -1.91316309 -39.40843933 -29.45405846 0 0 Z M-109.6875 79.75 C-111.77796234 82.50766119 -113.80589353 85.3058526 -115.8125 88.125 C-116.29122559 88.79595703 -116.76995117 89.46691406 -117.26318359 90.15820312 C-118.77896173 92.33083569 -120.24074537 94.5307907 -121.6875 96.75 C-122.29223145 97.66346191 -122.89696289 98.57692383 -123.52001953 99.51806641 C-128.02713865 106.70286841 -130.09974755 113.02258755 -131.3125 121.375 C-131.50142822 122.55054443 -131.69035645 123.72608887 -131.88500977 124.93725586 C-132.39724946 128.16673919 -132.88559101 131.39887816 -133.36663818 134.63311768 C-133.82332034 137.6460732 -134.31029367 140.6539355 -134.7958374 143.66235352 C-135.29672728 146.78018181 -135.78458532 149.89994176 -136.26849365 153.02044678 C-136.50552671 154.54438146 -136.74546141 156.06786774 -136.98834229 157.59088135 C-137.32610186 159.72690174 -137.64771078 161.86473909 -137.96484375 164.00390625 C-138.15296631 165.23439697 -138.34108887 166.4648877 -138.53491211 167.73266602 C-138.99715936 170.93119465 -138.99715936 170.93119465 -136.6875 173.75 C-133.74565809 174.91333375 -130.6052315 175.3652925 -127.5 175.9375 C-126.57106934 176.10894531 -125.64213867 176.28039062 -124.68505859 176.45703125 C-105.00686418 179.77014633 -83.58756673 179.7477573 -66.6875 167.75 C-59.4985545 161.72568484 -54.25629121 154.89730255 -49.6875 146.75 C-49.16414063 145.83734375 -48.64078125 144.9246875 -48.1015625 143.984375 C-36.78456883 122.95889437 -32.64733154 95.25149761 -38.578125 72.00390625 C-41.92162856 62.19708068 -45.76456827 54.26435708 -54.65234375 48.46875 C-75.88274605 40.9708728 -97.7729485 65.02976379 -109.6875 79.75 Z " fill="#0F7AD4" transform="translate(686.6875,271.25)"/>
<path d="M0 0 C0.92145813 -0.01283524 1.84291626 -0.02567047 2.79229736 -0.03889465 C4.29068146 -0.04997505 4.29068146 -0.04997505 5.81933594 -0.0612793 C6.84549011 -0.06935104 7.87164429 -0.07742279 8.92889404 -0.08573914 C11.10443427 -0.09958694 13.2799963 -0.11030597 15.45556641 -0.11816406 C18.77646335 -0.13535698 22.09635979 -0.17923526 25.41699219 -0.22338867 C27.53026611 -0.23351724 29.64354851 -0.24203283 31.75683594 -0.2487793 C33.24307465 -0.27504143 33.24307465 -0.27504143 34.75933838 -0.30183411 C40.54593034 -0.28371006 44.0088791 0.22206377 48.55371094 4.17700195 C52.81477817 9.35938102 53.82082827 13.94654576 53.27070713 20.59958553 C53.0780524 21.80252538 52.88539766 23.00546522 52.68690491 24.24485779 C52.58158697 24.92054135 52.47626903 25.59622491 52.36775964 26.29238373 C52.0150886 28.53870956 51.6478337 30.78239341 51.28051758 33.02636719 C51.0236262 34.6430024 50.76764281 36.25978211 50.51249695 37.87669373 C49.81918842 42.25368153 49.11322669 46.62854383 48.40494847 51.00313067 C47.66618851 55.57969249 46.93911965 60.15811065 46.21080017 64.73634338 C44.83071171 73.40019027 43.44014128 82.06232047 42.04578251 90.72388083 C40.45849813 100.58712869 38.88293038 110.45223672 37.30833638 120.31751716 C34.0698129 140.6061066 30.81660762 160.89231904 27.55371094 181.17700195 C30.60128345 180.40341922 33.6460404 179.61926045 36.69042969 178.83325195 C37.54793823 178.61572266 38.40544678 178.39819336 39.28894043 178.17407227 C51.33567304 175.04880894 60.04155665 169.92312308 67.67871094 159.98950195 C68.14462646 159.38783203 68.61054199 158.78616211 69.09057617 158.16625977 C81.70104133 141.63771531 92.80367611 123.9768483 100.26464844 104.5324707 C101.43784825 101.47859604 102.64244996 98.46982864 103.99121094 95.48950195 C104.48427734 94.36995117 104.48427734 94.36995117 104.98730469 93.2277832 C107.79977694 89.54561878 111.42326455 87.50517401 115.95655823 86.80686951 C118.74794117 86.66620661 121.5128657 86.64864466 124.30761719 86.6809082 C125.32669662 86.67945297 126.34577606 86.67799774 127.39573669 86.67649841 C129.54144156 86.67815227 131.68715892 86.68965566 133.83276367 86.71044922 C137.10940086 86.7394417 140.384422 86.73103892 143.66113281 86.71801758 C145.75163543 86.7242546 147.84213297 86.73264525 149.93261719 86.7434082 C150.90775772 86.74047256 151.88289825 86.73753693 152.8875885 86.73451233 C159.39584692 86.82444515 163.90500508 87.67544642 168.80371094 92.30200195 C172.00004973 97.55312998 173.07633366 101.41818745 171.90917969 107.5793457 C162.40984436 143.02876034 135.61585426 181.96428531 107.60058594 205.48168945 C106.31791924 207.20553296 106.31791924 207.20553296 106.65527344 209.71606445 C107.89148996 214.4781855 109.4936775 219.05662829 111.17871094 223.67700195 C111.75782227 225.27584229 111.75782227 225.27584229 112.34863281 226.90698242 C117.87036635 241.97759435 123.87097877 256.86680601 129.8046875 271.77856445 C132.19274975 277.78112321 134.56589902 283.78945426 136.92871094 289.80200195 C137.29158203 290.71868652 137.65445313 291.63537109 138.02832031 292.57983398 C138.35380859 293.40854004 138.67929687 294.23724609 139.01464844 295.09106445 C139.29099121 295.79183105 139.56733398 296.49259766 139.85205078 297.21459961 C141.70067034 302.38481673 142.6890525 307.7914955 140.90527344 313.1105957 C138.57515703 317.74095522 135.40014116 320.25757422 130.55371094 322.17700195 C126.83005488 322.74692142 123.15904673 322.73829681 119.39746094 322.70825195 C118.33636108 322.71207886 117.27526123 322.71590576 116.18200684 322.71984863 C113.94636075 322.7225615 111.71068258 322.71524435 109.47509766 322.69848633 C106.06438034 322.67706895 102.65576943 322.69831058 99.24511719 322.72387695 C97.06672715 322.72123357 94.88833841 322.71610837 92.70996094 322.70825195 C91.69623413 322.71634888 90.68250732 322.7244458 89.63806152 322.73278809 C83.42142788 322.65095932 79.53288509 322.01729452 74.55371094 318.17700195 C72.68823242 315.609375 72.68823242 315.609375 71.23730469 312.5012207 C70.95841904 311.90790451 70.67953339 311.31458832 70.39219666 310.70329285 C65.65129165 300.34601143 61.7081635 289.61356228 57.61621094 278.98950195 C55.90245894 274.55707363 54.18463735 270.12624142 52.46386719 265.6965332 C52.05053131 264.63145538 51.63719543 263.56637756 51.21133423 262.46902466 C47.50460721 252.96113294 43.58291738 243.55218121 39.55371094 234.17700195 C38.36487305 234.18658936 37.17603516 234.19617676 35.95117188 234.20605469 C35.24246948 234.2116037 34.53376709 234.21715271 33.80358887 234.22286987 C32.32997399 234.23512526 30.85638266 234.25029744 29.3828125 234.26708984 C25.92477956 234.28059098 22.87521394 234.11077079 19.55371094 233.17700195 C18.96013367 236.71704273 18.36740371 240.25722322 17.77587891 243.79760742 C17.24709742 246.9623592 16.71575768 250.12666907 16.18310547 253.29077148 C14.80407843 261.50868394 13.45677871 269.72959788 12.19258118 277.96604919 C11.59241292 281.87447476 10.98189265 285.78126043 10.37136841 289.68807983 C10.07733364 291.59043718 9.78861627 293.49362435 9.50534058 295.39761353 C9.10517117 298.08414557 8.68672553 300.76727487 8.26464844 303.45043945 C8.1512059 304.24587662 8.03776337 305.04131378 7.92088318 305.8608551 C6.90218799 312.15345606 4.78004405 316.15933499 -0.03027344 320.51879883 C-4.78214143 322.82545173 -8.88475341 322.75143807 -14.10253906 322.70825195 C-15.12303345 322.71207886 -16.14352783 322.71590576 -17.19494629 322.71984863 C-19.34660838 322.7225634 -21.49830371 322.71523279 -23.64990234 322.69848633 C-26.93564724 322.67707131 -30.2192056 322.69830365 -33.50488281 322.72387695 C-35.5999397 322.7212336 -37.69499524 322.71610847 -39.79003906 322.70825195 C-40.76831665 322.71634888 -41.74659424 322.7244458 -42.7545166 322.73278809 C-49.87255932 322.63535741 -53.64249973 320.98079128 -58.75878906 315.86450195 C-62.02534875 310.6622032 -61.56280412 305.24455312 -60.65769958 299.36231995 C-60.56153496 298.71961194 -60.46537034 298.07690394 -60.36629164 297.41471994 C-60.04653562 295.29552831 -59.71229841 293.17890415 -59.37768555 291.06201172 C-59.14536476 289.54552643 -58.91381893 288.02892224 -58.6829977 286.51220798 C-58.07288826 282.52418983 -57.44940475 278.53839422 -56.82088232 274.5532403 C-56.45858661 272.25501162 -56.09850624 269.9564475 -55.73915482 267.65775681 C-54.16676617 257.61033172 -52.56105109 247.56836942 -50.94716382 237.5275383 C-50.25038051 233.18892617 -49.55635963 228.84987206 -48.86204529 224.51086426 C-47.53447017 216.21663698 -46.20491813 207.9227281 -44.87449545 199.62895715 C-42.13039021 182.52214332 -39.38965583 165.4147894 -36.65121984 148.30706716 C-36.35053025 146.42864929 -36.04980654 144.55023688 -35.74904871 142.67182994 C-32.00784086 119.30547556 -28.29212199 95.93576714 -24.66113281 72.55200195 C-24.32458699 70.38846766 -23.98800458 68.22493905 -23.65138245 66.06141663 C-22.32812895 57.55006833 -21.00907635 49.03817436 -19.71124363 40.52290916 C-19.21146414 37.25382573 -18.70514785 33.98577933 -18.19709969 30.7179718 C-17.97306504 29.26647225 -17.75203702 27.81450435 -17.53451347 26.36201477 C-14.76422365 7.86713627 -14.76422365 7.86713627 -9.38378906 3.23950195 C-5.82722975 0.74234329 -4.24782531 0.05147204 0 0 Z " fill="#0F7AD4" transform="translate(794.4462890625,177.822998046875)"/>
<path d="M0 0 C1.18770996 0.21245361 1.18770996 0.21245361 2.39941406 0.42919922 C8.68483221 1.69042708 13.01450076 3.92242207 16.9375 9.1875 C20.26731646 15.6447887 18.52434336 23.57406844 17.4058075 30.46937561 C17.28133407 31.27179717 17.15686064 32.07421873 17.0286153 32.90095609 C16.61377244 35.56403222 16.18912766 38.22544615 15.7644043 40.88696289 C15.46328729 42.80623089 15.16275542 44.72559077 14.86276245 46.64503479 C14.04888634 51.84013525 13.22622855 57.03380884 12.40149283 62.22719502 C11.71293383 66.56830627 11.02871302 70.91009665 10.3444894 75.25189298 C8.7301391 85.49550351 7.10869955 95.73797434 5.48266602 105.97973633 C3.80674718 116.53641108 2.14204656 127.09481081 0.48298138 137.65414625 C-0.94357829 146.73136604 -2.37672064 155.8075294 -3.81521291 164.88286585 C-4.67354493 170.29829154 -5.52947988 175.71406744 -6.37923622 181.13084602 C-7.17846965 186.22348926 -7.98594977 191.31475808 -8.79973221 196.40509605 C-9.09652003 198.27023026 -9.39044343 200.13582293 -9.6812458 202.00189972 C-10.07960859 204.55512254 -10.48843805 207.10646119 -10.89985657 209.65760803 C-11.01173744 210.39079209 -11.12361831 211.12397615 -11.23888952 211.8793779 C-12.47939905 219.42446813 -14.31535685 225.9492319 -20.4375 231 C-23.99047315 232.18432438 -27.2561601 232.19974446 -30.95703125 232.23828125 C-31.69322189 232.246353 -32.42941254 232.25442474 -33.18791199 232.26274109 C-34.74544942 232.27656035 -36.30301687 232.28729215 -37.8605957 232.29516602 C-39.44825148 232.3066837 -41.0358686 232.32713247 -42.62329102 232.35668945 C-44.92230429 232.3994896 -47.22016839 232.41555128 -49.51953125 232.42578125 C-50.22286087 232.44328934 -50.92619049 232.46079742 -51.65083313 232.47883606 C-56.72347472 232.45670508 -59.51431498 231.14411282 -63.4375 228 C-68.77293477 222.46761965 -68.10110254 215.87453227 -68.1875 208.625 C-68.21714844 207.41199219 -68.24679687 206.19898438 -68.27734375 204.94921875 C-68.3478116 201.96607979 -68.4006248 198.98371205 -68.4375 196 C-68.88407959 196.45528076 -69.33065918 196.91056152 -69.79077148 197.37963867 C-91.26670508 219.09619898 -118.79248285 236.90643 -150.17675781 237.38037109 C-170.10363947 237.344822 -187.10271191 233.35830911 -201.68359375 218.91015625 C-222.47504277 197.37590039 -226.97899136 167.21288858 -226.78857422 138.44824219 C-226.30684353 113.74185835 -221.47803957 89.21030684 -210.4375 67 C-210.11442871 66.32308105 -209.79135742 65.64616211 -209.45849609 64.94873047 C-194.87598571 34.47855032 -170.73859875 12.02265433 -138.92382812 0.51757812 C-94.80188073 -14.62646146 -44.88833287 -8.45145958 0 0 Z M-132.578125 62.8828125 C-150.46848177 83.25376496 -158.8726885 111.15001515 -157.4375 138 C-156.30060272 150.9890514 -153.79413089 165.48983818 -143.625 174.62890625 C-138.62164399 178.16958762 -133.53830417 179.44353027 -127.4375 179 C-114.77694024 176.19265849 -104.70496648 167.95937679 -95.875 158.875 C-95.0514502 158.03751221 -94.22790039 157.20002441 -93.37939453 156.3371582 C-83.20542827 145.85437172 -75.09532566 134.40285874 -67.4375 122 C-66.94451416 121.34193359 -66.45152832 120.68386719 -65.94360352 120.00585938 C-63.67188496 115.47199669 -63.17278736 110.79744758 -62.4296875 105.8125 C-62.17325974 104.1713623 -62.17325974 104.1713623 -61.91165161 102.49707031 C-61.55203569 100.1812896 -61.19765676 97.86469043 -60.84814453 95.54736328 C-60.3183465 92.03871906 -59.77196962 88.53297977 -59.22265625 85.02734375 C-58.87400871 82.76838194 -58.52632253 80.5092715 -58.1796875 78.25 C-58.01926971 77.21721924 -57.85885193 76.18443848 -57.693573 75.12036133 C-56.59147216 67.76406887 -55.92190958 60.42166914 -55.4375 53 C-58.10295164 52.3487817 -60.76969056 51.70392839 -63.4375 51.0625 C-64.55318359 50.78889648 -64.55318359 50.78889648 -65.69140625 50.50976562 C-87.97687831 45.180631 -115.12268746 46.09873795 -132.578125 62.8828125 Z " fill="#0F7AD4" transform="translate(1194.4375,268)"/>
<path d="M0 0 C0.74068198 -0.00367669 1.48136397 -0.00735338 2.24449086 -0.01114148 C4.73943718 -0.02220069 7.23434189 -0.02602594 9.72930908 -0.02983093 C11.51295098 -0.03609391 13.29659157 -0.04274056 15.08023071 -0.04974365 C19.93572765 -0.06716909 24.79121472 -0.07770968 29.64673519 -0.08594918 C32.67905537 -0.09109621 35.71137248 -0.09717208 38.74369049 -0.10346031 C48.22746427 -0.12251694 57.71123023 -0.13674691 67.19501948 -0.14507228 C78.14912881 -0.15484658 89.10303616 -0.18116919 100.05707431 -0.22157317 C108.51913589 -0.25171628 116.98113952 -0.26653945 125.44325376 -0.26985329 C130.49943826 -0.2722059 135.55540712 -0.28119361 140.61153412 -0.30631447 C145.36890135 -0.32956853 150.12591055 -0.33383916 154.88331985 -0.32355309 C156.62882553 -0.32305696 158.37434866 -0.32939998 160.11980057 -0.34310913 C162.50461322 -0.36079085 164.88813579 -0.35374116 167.27294922 -0.34057617 C168.30691617 -0.35703004 168.30691617 -0.35703004 169.36177135 -0.37381631 C175.5413843 -0.29156512 179.0661652 2.27488704 183.26544189 6.58467102 C187.37603792 15.5963623 184.58897452 26.49601077 183.20294189 35.95967102 C183.05469971 37.03321838 182.90645752 38.10676575 182.75372314 39.21284485 C181.58538811 46.55316073 179.76858688 52.53121357 174.21913147 57.70549011 C171.12766742 59.61940115 168.8588452 59.65707019 165.22833252 59.8285675 C164.53853554 59.8617253 163.84873856 59.8948831 163.13803864 59.92904568 C152.26259695 60.38368159 141.36633233 60.26972948 130.48419189 60.24482727 C128.06325307 60.24295824 125.64231386 60.24153663 123.22137451 60.24053955 C116.90208867 60.23675254 110.58282643 60.22695559 104.2635498 60.21583557 C97.79413166 60.20553866 91.32470965 60.20102432 84.85528564 60.19599915 C72.20032776 60.18532927 59.54538609 60.16849655 46.89044189 60.14717102 C45.93777784 66.80617821 44.98555504 73.46524839 44.03361511 80.12435913 C43.71085708 82.38179903 43.38800419 84.63922537 43.06504822 86.89663696 C38.24626323 113.42825266 38.24626323 113.42825266 35.89044189 140.14717102 C37.06506485 140.13828857 38.23968781 140.12940613 39.4499054 140.12025452 C50.52892788 140.03910712 61.60788993 139.97917593 72.68714237 139.93992233 C78.38288336 139.91906308 84.07838409 139.89077533 89.77398682 139.84541321 C95.27235203 139.80189687 100.77048639 139.77802141 106.26901054 139.76766205 C108.36495026 139.76028113 110.46087759 139.74586787 112.55671883 139.72425079 C115.49644223 139.69514032 118.43521628 139.69121827 121.37506104 139.69306946 C122.23821426 139.67868835 123.10136749 139.66430725 123.99067688 139.64949036 C130.98498438 139.69703159 135.2856111 141.54234022 140.32794189 146.58467102 C144.23724187 155.49787497 141.65377891 165.80087432 140.14044189 175.08467102 C139.9838208 176.0797467 139.82719971 177.07482239 139.66583252 178.10005188 C138.43198033 185.08774449 136.54283504 190.47780277 130.89044189 195.14717102 C128.13385318 196.06603393 126.46383009 196.28113726 123.61940002 196.3053894 C122.31322723 196.32007263 122.31322723 196.32007263 120.98066711 196.33505249 C119.55215675 196.34368568 119.55215675 196.34368568 118.0947876 196.35249329 C117.08973175 196.36239288 116.0846759 196.37229248 115.04916382 196.38249207 C111.72154103 196.4141218 108.39390395 196.43887041 105.06622314 196.46357727 C102.76122157 196.48414552 100.45622378 196.50514195 98.15122986 196.52655029 C92.08003806 196.58178428 86.00881214 196.63118775 79.93756104 196.67939758 C73.74408934 196.72960288 67.55066728 196.78529402 61.35723877 196.8405304 C49.20168219 196.94812822 37.04608255 197.04956963 24.89044189 197.14717102 C24.78476898 198.11726608 24.67909607 199.08736115 24.57022095 200.08685303 C23.21518697 212.21129435 21.42954852 224.25369994 19.55450439 236.30732727 C19.31651186 237.84110425 19.31651186 237.84110425 19.0737114 239.40586662 C18.236553 244.79737844 17.39522005 250.18822012 16.55059814 255.5785675 C15.68307983 261.12115356 14.83121433 266.66603189 13.98261452 272.21154118 C13.32232396 276.50672113 12.65016242 280.7999833 11.97480392 285.09281731 C11.65536663 287.13694668 11.34041735 289.18178293 11.03017044 291.22732735 C10.5959733 294.08303622 10.14489059 296.93560349 9.6897583 299.78804016 C9.56702042 300.62089035 9.44428253 301.45374054 9.31782532 302.31182861 C8.22687952 308.96632932 6.2961757 314.80158056 1.39044189 319.58467102 C-2.28044212 321.87897353 -5.39500127 322.27117753 -9.67523193 322.30830383 C-10.57329056 322.31791138 -11.47134918 322.32751892 -12.3966217 322.3374176 C-13.84200569 322.34379242 -13.84200569 322.34379242 -15.31658936 322.35029602 C-16.8147242 322.35884613 -16.8147242 322.35884613 -18.34312439 322.36756897 C-20.45544377 322.37700831 -22.5677778 322.38354871 -24.68011475 322.3874054 C-27.89969789 322.39710367 -31.11864052 322.42813452 -34.33807373 322.45967102 C-36.39340849 322.46620228 -38.44874781 322.47145227 -40.50408936 322.47529602 C-41.46160599 322.48764282 -42.41912262 322.49998962 -43.40565491 322.51271057 C-49.08872365 322.493917 -53.09953834 321.89860554 -58.10955811 319.14717102 C-63.18250939 313.67372359 -63.33423997 310.14738366 -63.27172279 302.87775803 C-63.00099166 296.64960784 -62.02620672 290.55803549 -61.02435303 284.4132843 C-60.79780228 282.97670854 -60.57213461 281.53999329 -60.3472662 280.10315323 C-59.73497056 276.20715444 -59.11034309 272.31322381 -58.48347139 268.41954756 C-57.81350367 264.24410835 -57.15522931 260.06682424 -56.49551392 255.88975525 C-55.2173669 247.80873519 -53.9287155 239.72942589 -52.63622284 231.65068924 C-51.14550278 222.33065196 -49.66485309 213.0090239 -48.18482053 203.68728447 C-45.79382394 188.62940047 -43.39594358 173.57262525 -40.99303591 158.5166378 C-38.07101026 140.20699988 -35.16987705 121.89416835 -32.28507513 103.57863128 C-30.86218369 94.54589679 -29.43364374 85.51405544 -28.00405979 76.48237801 C-26.99070835 70.07915969 -25.9794552 63.67562759 -24.97341919 57.27125549 C-24.04290017 51.34955754 -23.1050437 45.42906892 -22.16135025 39.50945663 C-21.82287025 37.37827453 -21.48699579 35.2466766 -21.1540184 33.11462784 C-20.70366431 30.23334565 -20.24386989 27.35372274 -19.78167725 24.47431946 C-19.65558673 23.65277941 -19.52949621 22.83123936 -19.39958477 21.98480415 C-17.0135343 7.35377397 -17.0135343 7.35377397 -12.04705811 3.14717102 C-7.7592813 0.22783362 -5.06017057 -0.00133609 0 0 Z " fill="#0F7AD3" transform="translate(63.10955810546875,177.8528289794922)"/>
<path d="M0 0 C0.84055435 -0.0038269 1.6811087 -0.00765381 2.5471344 -0.01159668 C4.31797489 -0.01430842 6.08885593 -0.006999 7.85961914 0.00976562 C10.5551179 0.0311604 13.24794357 0.00995427 15.94335938 -0.015625 C17.67057875 -0.01298107 19.39779647 -0.00785473 21.125 0 C21.92312607 -0.00809692 22.72125214 -0.01619385 23.54356384 -0.02453613 C29.18044366 0.06886911 32.46108338 1.34982044 37.12890625 4.53125 C40.1397803 7.64543836 41.12052763 11.15807393 41.14672852 15.45214844 C40.39761239 24.85733258 39.08722293 34.09931758 37.56640625 43.40625 C37.32952692 44.88402633 37.09319602 46.36189068 36.85742188 47.83984375 C36.28753928 51.40467816 35.71034754 54.96828029 35.12890625 58.53125 C36.06162354 58.51030273 36.99434082 58.48935547 37.95532227 58.46777344 C41.44240351 58.39927604 44.92876166 58.34929554 48.41625977 58.31152344 C49.92060687 58.29150637 51.42487714 58.26428373 52.92895508 58.22949219 C55.10126787 58.18053055 57.27254531 58.15818347 59.4453125 58.140625 C60.74927979 58.11967773 62.05324707 58.09873047 63.39672852 58.07714844 C68.2909212 58.67263469 72.20450025 60.24733127 75.48851013 64.14485168 C79.71016607 70.3091351 78.41980995 77.5258535 77.140625 84.484375 C76.70862449 86.58528935 76.26705331 88.68425625 75.81640625 90.78125 C75.60306641 91.8434375 75.38972656 92.905625 75.16992188 94 C74.84604492 95.53914063 74.84604492 95.53914063 74.515625 97.109375 C74.22498169 98.49237793 74.22498169 98.49237793 73.9284668 99.90332031 C72.5101704 104.56485999 70.98174784 106.91329307 66.98999023 109.80566406 C62.82609312 111.97343912 58.9767883 112.13327539 54.3515625 112.140625 C53.54021347 112.15716125 52.72886444 112.17369751 51.89292908 112.19073486 C49.32567579 112.23895084 46.75901362 112.260526 44.19140625 112.28125 C42.44072589 112.30943192 40.69007275 112.33936244 38.93945312 112.37109375 C34.66931957 112.44470206 30.39950909 112.49443719 26.12890625 112.53125 C26.07120056 113.39625374 26.07120056 113.39625374 26.0123291 114.2787323 C25.34570322 122.80679491 24.00518327 131.19908351 22.64619446 139.63762856 C22.21357586 142.32595756 21.78601331 145.01504926 21.35974121 147.70439148 C20.14804536 155.34335685 18.92761018 162.98091668 17.70361328 170.61791992 C16.95176583 175.3112153 16.20581191 180.00541897 15.46321106 184.70018578 C15.1816431 186.47248537 14.89784112 188.24443173 14.61161804 190.01598549 C9.9722424 212.27015215 9.9722424 212.27015215 15.12890625 233.53125 C21.90856767 237.51061648 28.06467374 237.77292666 35.75390625 237.87304688 C42.21426118 238.11844905 45.89340594 240.29574969 50.50390625 244.90625 C54.36010889 253.50854819 52.11767971 263.93803715 50.87890625 273.03125 C50.7698999 273.87961426 50.66089355 274.72797852 50.54858398 275.60205078 C49.76407871 280.77968282 48.73000183 284.53003269 45.12890625 288.53125 C39.82556749 292.13393363 33.7181583 293.69185863 27.56640625 295.21875 C26.75494141 295.43080078 25.94347656 295.64285156 25.10742188 295.86132812 C3.20667977 301.46466569 -19.75095454 300.14910585 -39.8046875 289.44921875 C-51.07767876 282.39821402 -56.46348069 272.05923917 -59.87109375 259.53125 C-65.00196122 234.88282318 -58.54214112 208.18605146 -54.55609131 183.83380127 C-53.72787124 178.751999 -52.91973885 173.66701625 -52.11132812 168.58203125 C-51.79404211 166.58679116 -51.4767509 164.59155189 -51.15945435 162.59631348 C-51.00482853 161.62362015 -50.85020271 160.65092682 -50.69089127 159.64875793 C-50.23226537 156.77016937 -49.7707091 153.89206341 -49.30856323 151.01403809 C-47.25861621 138.21336781 -45.38160384 125.4085084 -43.87109375 112.53125 C-44.80759766 112.49563965 -45.74410156 112.4600293 -46.70898438 112.42333984 C-57.94636231 111.93758866 -57.94636231 111.93758866 -62.87109375 107.53125 C-63.46921875 107.015625 -64.06734375 106.5 -64.68359375 105.96875 C-68.30710337 101.58239625 -67.18680527 94.82634137 -66.87109375 89.53125 C-66.51741068 86.41222032 -66.05845757 83.31746054 -65.55859375 80.21875 C-65.4409668 79.46650146 -65.32333984 78.71425293 -65.20214844 77.93920898 C-63.80882702 69.87950385 -61.68425652 64.35724029 -54.87109375 59.53125 C-52.14607467 58.62291031 -50.24875404 58.34765015 -47.421875 58.21484375 C-46.57431641 58.17294922 -45.72675781 58.13105469 -44.85351562 58.08789062 C-43.97244141 58.04857422 -43.09136719 58.00925781 -42.18359375 57.96875 C-40.84458008 57.90397461 -40.84458008 57.90397461 -39.47851562 57.83789062 C-37.27619267 57.73189647 -35.07375902 57.62982949 -32.87109375 57.53125 C-32.70458313 56.95575409 -32.53807251 56.38025818 -32.36651611 55.787323 C-30.62656082 49.78130061 -28.87213888 43.77964015 -27.109375 37.78027344 C-26.45398367 35.54274671 -25.80224987 33.3041452 -25.15429688 31.06445312 C-24.22061524 27.83952821 -23.27371275 24.61873725 -22.32421875 21.3984375 C-22.03863098 20.40133759 -21.75304321 19.40423767 -21.45880127 18.37692261 C-19.49827472 11.79122608 -17.49074696 6.80710486 -12.17553711 2.18945312 C-7.94400488 0.06602742 -4.66691622 -0.04722571 0 0 Z " fill="#0F7AD4" transform="translate(1477.87109375,206.46875)"/>
<path d="M0 0 C0.99592667 -0.00524185 1.99185333 -0.0104837 3.01795959 -0.0158844 C5.11832754 -0.0222905 7.21873142 -0.02098595 9.3190918 -0.01245117 C12.52132458 -0.003943 15.72177139 -0.03272037 18.92382812 -0.06445312 C20.97005155 -0.06606544 23.01627812 -0.06548703 25.0625 -0.0625 C26.48936378 -0.07935097 26.48936378 -0.07935097 27.9450531 -0.09654236 C34.02503911 -0.0332435 37.63799784 0.84822542 42.59765625 4.43359375 C47.4032596 10.59462369 47.11108625 16.19105522 46.36967862 23.7614311 C46.05695805 26.11182727 45.69547485 28.44908554 45.31361389 30.78923035 C45.17547868 31.67488294 45.03734346 32.56053554 44.89502233 33.4730261 C44.43476667 36.41184394 43.9636217 39.34880579 43.49243164 42.28588867 C43.15842119 44.40395355 42.82509051 46.52212573 42.49238586 48.64039612 C41.59011174 54.37259643 40.67840405 60.1032605 39.76499867 65.83369613 C38.80963308 71.83798234 37.86309622 77.8436599 36.91563416 83.84919739 C35.12027043 95.22064982 33.31716719 106.59086056 31.51118988 117.96063167 C29.25806439 132.14784791 27.01469325 146.33660365 24.77148438 160.52539062 C22.48201053 175.00549889 20.19165059 189.4854625 17.89479065 203.96440125 C17.54239796 206.18656823 17.19001134 208.40873617 16.83763123 210.63090515 C16.18558747 214.74272738 15.53287016 218.85444189 14.87976074 222.96609497 C14.58937449 224.79702843 14.29901346 226.62796589 14.00868225 228.45890808 C13.87930285 229.27214183 13.74992345 230.08537557 13.61662346 230.92325276 C10.46051814 247.88553091 10.46051814 247.88553091 13.59765625 264.43359375 C18.04343636 268.59203439 22.74688323 270.04514177 28.44140625 271.89453125 C32.2107606 273.732558 34.7560462 275.66492294 36.59765625 279.43359375 C37.22893087 282.83542173 37.1667319 286.11026655 37.03515625 289.55859375 C37.01485352 290.49131104 36.99455078 291.42402832 36.97363281 292.38500977 C36.37487831 312.65637169 36.37487831 312.65637169 30.59765625 318.43359375 C15.16055708 328.45286485 -5.24948621 330.03428423 -23.01416016 326.30175781 C-35.8254005 323.16342341 -47.54478125 316.91119271 -54.71484375 305.55859375 C-63.68628159 289.49289393 -62.28026532 271.46839815 -59.43115234 253.8984375 C-59.2176898 252.52548676 -59.0053088 251.15236751 -58.79390335 249.77909851 C-58.22162535 246.08146648 -57.63453728 242.38632869 -57.04462481 238.69147491 C-56.41457263 234.72783997 -55.79873365 230.7619945 -55.1812439 226.79638672 C-54.13402682 220.08262063 -53.07849462 213.37020921 -52.01696777 206.65869141 C-50.56851533 197.49969268 -49.13514197 188.33839318 -47.70704508 179.17620087 C-44.88719663 161.08634052 -42.04814751 142.99952502 -39.2035892 124.91353607 C-37.74639198 115.64829284 -36.29116233 106.38274069 -34.8359375 97.1171875 C-34.31319585 93.78889749 -33.79044144 90.46060949 -33.26766968 87.13232422 C-33.14046583 86.32246441 -33.01326197 85.5126046 -32.88220346 84.67820358 C-32.15197143 80.02937967 -31.42149038 75.38059504 -30.69049156 70.73189163 C-30.46164493 69.27612369 -30.23295487 67.82033113 -30.00442517 66.3645134 C-29.45242128 62.84898562 -28.89806096 59.33386659 -28.33820534 55.81958008 C-27.32841813 49.46302559 -26.34454678 43.10562215 -25.45027173 36.73164845 C-25.03648073 33.79107032 -24.60936506 30.85249025 -24.18145061 27.91393852 C-23.98398116 26.53054109 -23.79316007 25.14617484 -23.60969281 23.76085091 C-22.59788712 16.12938725 -21.63289146 9.369482 -16.40234375 3.43359375 C-11.34759562 -0.31215771 -6.05170645 -0.01863657 0 0 Z " fill="#0F7AD4" transform="translate(303.40234375,177.56640625)"/>
<path d="M0 0 C3.46236126 2.39067801 5.74528805 5.0530761 7.625 8.8125 C8.57015025 18.4316904 6.67247201 27.80118011 4.85400391 37.19628906 C4.37246297 39.70069461 3.91782301 42.20903969 3.46484375 44.71875 C3.16045387 46.331032 2.85451892 47.94302324 2.546875 49.5546875 C2.41440369 50.29540497 2.28193237 51.03612244 2.14544678 51.79928589 C1.19534235 56.56588712 -0.28450924 59.93745554 -3.375 63.8125 C-8.80752751 67.29751765 -14.37849139 68.66858446 -20.6027832 70.25366211 C-41.14512236 75.57776113 -57.38429423 87.79333282 -72.3125 102.4375 C-73.2715625 103.36973389 -73.2715625 103.36973389 -74.25 104.32080078 C-75.16072266 105.23321533 -75.16072266 105.23321533 -76.08984375 106.1640625 C-76.62730225 106.69854004 -77.16476074 107.23301758 -77.71850586 107.78369141 C-82.97940723 114.2270356 -84.29014304 120.08419415 -85.453125 128.171875 C-85.62558243 129.2899202 -85.79803986 130.40796539 -85.97572327 131.55989075 C-86.34558957 133.97012593 -86.70890309 136.38137403 -87.0663147 138.79348755 C-87.63018069 142.59745007 -88.21161781 146.39836162 -88.79760742 150.19897461 C-90.39364591 160.58123247 -91.94958865 170.96940414 -93.50439453 181.35791016 C-94.38750906 187.25606168 -95.28236243 193.15233953 -96.18371582 199.04772949 C-96.67892221 202.31834752 -97.15773148 205.59108917 -97.63574219 208.86425781 C-97.9399962 210.86925595 -98.24496918 212.87414516 -98.55078125 214.87890625 C-98.73943504 216.21898491 -98.73943504 216.21898491 -98.93190002 217.58613586 C-100.02584592 224.58025815 -101.74287573 230.28638073 -106.9453125 235.27929688 C-111.76584278 237.43426058 -116.02434838 237.3860553 -121.25 237.34375 C-122.29269043 237.3475769 -123.33538086 237.35140381 -124.40966797 237.35534668 C-126.60840829 237.35806178 -128.80718114 237.35072885 -131.00585938 237.33398438 C-134.36401647 237.31257004 -137.72003415 237.33380079 -141.078125 237.359375 C-143.2187547 237.35673165 -145.35938308 237.35160654 -147.5 237.34375 C-148.50015137 237.35184692 -149.50030273 237.35994385 -150.53076172 237.36828613 C-156.32855603 237.29061495 -159.80569829 236.74195487 -164.375 232.8125 C-168.76722675 228.18910342 -168.66769229 224.41274315 -168.5784359 218.3798008 C-168.19177413 211.59958716 -167.063255 204.94009419 -165.97583008 198.24487305 C-165.71714274 196.6088187 -165.45927229 194.97263502 -165.20214844 193.33633423 C-164.50557836 188.91846739 -163.79764805 184.50248987 -163.08757234 180.08677649 C-162.33987181 175.42453198 -161.60275418 170.76061418 -160.86442566 166.09687805 C-159.46120226 157.24360224 -158.04849716 148.39186679 -156.63237923 139.54064542 C-155.04031314 129.58664445 -153.45907584 119.63093354 -151.8786751 109.67507493 C-149.9423747 97.47894416 -148.00337847 85.28324249 -146.05805969 73.08854675 C-145.92076936 72.22754708 -145.78347903 71.36654741 -145.64202839 70.47945684 C-144.97375578 66.29104142 -144.30322094 62.10301036 -143.62792683 57.91572094 C-142.50113015 50.92113027 -141.38267785 43.92655106 -140.34016567 36.91882223 C-139.91038619 34.03550868 -139.47066095 31.15375277 -139.03004968 28.2720772 C-138.73601092 26.32009479 -138.45701594 24.36586444 -138.17859364 22.41159344 C-137.05820667 15.11931598 -135.98160727 9.09123388 -130.3125 3.9375 C-126.32892094 1.62445409 -122.57792946 1.62244979 -118.109375 1.57421875 C-117.39775208 1.566147 -116.68612915 1.55807526 -115.95294189 1.54975891 C-114.44667989 1.53593952 -112.94038685 1.52520778 -111.43408203 1.51733398 C-109.90176141 1.50583105 -108.36948032 1.48540565 -106.83740234 1.45581055 C-104.6152849 1.41290235 -102.39435655 1.39693299 -100.171875 1.38671875 C-99.15743317 1.36045662 -99.15743317 1.36045662 -98.12249756 1.33366394 C-92.9821796 1.35678304 -89.26677385 2.52124226 -85.375 5.8125 C-81.52813682 10.34425666 -80.80801725 14.8573148 -80.984375 20.71484375 C-80.99003479 21.4374086 -80.99569458 22.15997345 -81.00152588 22.9044342 C-81.02371743 25.18699586 -81.07387451 27.46792198 -81.125 29.75 C-81.14508756 31.30791986 -81.16333436 32.8658646 -81.1796875 34.42382812 C-81.2235247 38.2206715 -81.29242579 42.01630957 -81.375 45.8125 C-80.87274902 45.29453857 -80.37049805 44.77657715 -79.85302734 44.24291992 C-27.3899977 -9.63722141 -27.3899977 -9.63722141 0 0 Z " fill="#0F7AD4" transform="translate(1390.375,263.1875)"/>
<path d="M0 0 C1.36427124 -0.00855011 1.36427124 -0.00855011 2.75610352 -0.01727295 C4.67235157 -0.02668566 6.58861554 -0.03324203 8.50488281 -0.03710938 C11.42802075 -0.04684343 14.3504634 -0.07791346 17.2734375 -0.109375 C19.14062085 -0.11590333 21.0078092 -0.12115447 22.875 -0.125 C23.74390869 -0.1373468 24.61281738 -0.1496936 25.50805664 -0.16241455 C31.74128438 -0.13963094 35.91625382 1.02258777 40.75 5.203125 C45.05882054 10.30987526 43.79504306 17.89752979 43.4375 24.203125 C42.83295415 29.84086732 41.95055004 35.41881466 41.03833008 41.01367188 C40.77951289 42.65162337 40.52164715 44.28972545 40.26464844 45.92796326 C39.56948031 50.34174703 38.86107025 54.75331035 38.15007234 59.16456795 C37.40133017 63.82443386 36.6648537 68.48623883 35.92692566 73.14782715 C34.68383953 80.98982395 33.43300765 88.83055091 32.17651367 96.67041016 C30.42149019 107.62084745 28.67980156 118.57337245 26.9411751 129.52642345 C20.67089891 169.01647967 20.67089891 169.01647967 17.53796047 188.34048128 C16.8051996 192.87544724 16.09419036 197.41313812 15.40266567 201.95457125 C14.97410179 204.75731789 14.53434988 207.55824058 14.09254968 210.35892773 C13.79835799 212.25073471 13.51943929 214.14489735 13.24109364 216.03910065 C12.04231958 223.56708894 10.52474731 229.1745294 4.4375 234.203125 C1.61173913 235.14504529 -0.1908867 235.3445087 -3.12231445 235.38012695 C-4.50438835 235.39937981 -4.50438835 235.39937981 -5.91438293 235.41902161 C-6.90814438 235.42640854 -7.90190582 235.43379547 -8.92578125 235.44140625 C-9.95052048 235.449478 -10.9752597 235.45754974 -12.03105164 235.46586609 C-14.20061555 235.47969942 -16.37020116 235.49042493 -18.53979492 235.49829102 C-21.85182059 235.51550453 -25.16284819 235.55939824 -28.47460938 235.60351562 C-30.583326 235.61364275 -32.6920511 235.62215879 -34.80078125 235.62890625 C-35.78847 235.64641434 -36.77615875 235.66392242 -37.79377747 235.68196106 C-43.58263178 235.66376706 -46.99815288 235.12924668 -51.5625 231.203125 C-55.92270353 226.61343707 -55.87508933 222.88241009 -55.78567123 216.88981628 C-55.33334591 209.41759953 -54.04179264 202.06348697 -52.84033203 194.68164062 C-52.54721688 192.8374221 -52.25492195 190.99307305 -51.96337891 189.14860535 C-51.17407873 184.17003927 -50.37336539 179.19337047 -49.57049036 174.21697807 C-48.72929621 168.99064212 -47.89867185 163.76262654 -47.06686401 158.53479004 C-45.49010588 148.6353479 -43.90381494 138.73745806 -42.31410587 128.84008837 C-40.51183847 117.61619838 -38.72065913 106.39054781 -36.9302237 95.16476536 C-34.28669946 78.59242584 -31.63887577 62.02077503 -28.98075867 45.45076942 C-28.69444567 43.66588003 -28.40824617 41.88097243 -28.12217331 40.09604454 C-27.49059862 36.15602684 -26.85737855 32.21630069 -26.21893692 28.27738953 C-25.8020952 25.70419444 -25.39709182 23.13018632 -24.99990463 20.55378723 C-24.83275074 19.49016464 -24.66559685 18.42654205 -24.49337769 17.33068848 C-24.35640409 16.43699806 -24.2194305 15.54330765 -24.0783062 14.62253571 C-23.05286489 9.81266002 -21.10446684 5.79649073 -17.6875 2.265625 C-12.28113579 -0.4375571 -5.90886505 0.02890057 0 0 Z " fill="#0F7AD4" transform="translate(421.5625,264.796875)"/>
<path d="M0 0 C2.93396629 1.51195691 5.04808477 3.33699981 7 6 C7.89864237 9.67943098 7.78577605 13.2299959 7.6875 17 C7.95233625 42.06724118 19.23415393 62.79361423 36.84814453 80.27294922 C42.73584499 85.90562367 49.17020978 90.58155208 56 95 C56.97453125 95.63550781 57.9490625 96.27101563 58.953125 96.92578125 C73.18636035 105.69516533 88.71160667 110.64914587 105 114 C106.33285034 114.28145874 106.33285034 114.28145874 107.69262695 114.56860352 C116.31059451 116.21147898 124.82678886 116.35435884 133.5625 116.3125 C134.68460373 116.31076279 134.68460373 116.31076279 135.82937622 116.30899048 C147.45105975 116.27343307 158.6421226 115.58406734 170 113 C170.96035156 112.79503906 171.92070312 112.59007812 172.91015625 112.37890625 C175.66428886 111.71010482 178.3103369 110.89537933 181 110 C181.67466309 109.77860352 182.34932617 109.55720703 183.04443359 109.32910156 C210.66660596 100.13551496 233.62918478 84.68442905 247.1875 58.1875 C250.58917732 51.33739244 253.08932769 44.41567868 255 37 C255.53367187 35.21142578 255.53367187 35.21142578 256.078125 33.38671875 C257.68567428 26.93042005 257.35865718 20.19342171 257.390625 13.58007812 C257.56594675 5.79287061 257.56594675 5.79287061 259.7578125 1.7890625 C262.2833732 -0.22610614 263.31416599 -0.60661105 266.5 -0.4375 C267.2528125 -0.41558594 268.005625 -0.39367187 268.78125 -0.37109375 C272.8228081 0.30487107 274.52003826 1.44438755 277.23046875 4.58203125 C279.45141253 8.8719337 279.49722137 11.94864811 279.3125 16.6875 C279.28712158 17.87907715 279.28712158 17.87907715 279.26123047 19.09472656 C279.04697999 27.39144978 278.7534389 35.11946798 276 43 C275.56436924 44.36612722 275.13232164 45.73340023 274.703125 47.1015625 C264.92418336 77.77648724 245.2602976 102.81417492 216.71044922 118.23681641 C191.04958123 131.4451602 163.2229798 137.43589496 134.375 137.3125 C133.33501358 137.30926727 133.33501358 137.30926727 132.27401733 137.30596924 C92.54586395 137.10908958 52.10749991 124.08064477 23.4375 95.625 C22.28820161 94.41996196 21.14248776 93.21149709 20 92 C18.80117187 90.81083984 18.80117187 90.81083984 17.578125 89.59765625 C3.698134 75.6125138 -5.64403867 58.94954857 -11 40 C-11.19287598 39.31784424 -11.38575195 38.63568848 -11.58447266 37.93286133 C-13.19383369 31.57208754 -13.36691322 25.35066543 -13.375 18.8125 C-13.41173828 17.23178711 -13.41173828 17.23178711 -13.44921875 15.61914062 C-13.47254814 9.44851652 -13.20776015 5.65356374 -9 1 C-5.79745853 -0.60127074 -3.54685436 -0.40701607 0 0 Z " fill="#FDFDFA" transform="translate(1948,126)"/>
<path d="M0 0 C0.78428838 -0.0050486 1.56857677 -0.0100972 2.37663147 -0.01529878 C5.02082972 -0.03105473 7.6650033 -0.03971548 10.30923367 -0.04837227 C12.21815023 -0.05811264 14.12706479 -0.0682517 16.0359773 -0.07875645 C21.29529061 -0.10630308 26.55461301 -0.12739665 31.81396019 -0.14727235 C36.32272743 -0.16506698 40.83147479 -0.1864841 45.34022648 -0.20781206 C87.48873429 -0.40611613 129.63771702 -0.51019475 171.78659874 -0.5922576 C178.0667224 -0.60452587 184.34684508 -0.61726912 190.62696743 -0.6301899 C191.3208457 -0.63160688 192.01472397 -0.63302386 192.72962885 -0.63448378 C215.15734372 -0.68059837 237.5845895 -0.77150031 260.0120458 -0.88703606 C283.7609688 -1.00915435 307.50956943 -1.08242661 331.25880617 -1.10445988 C344.18848682 -1.11780286 357.11728474 -1.15307055 370.04666233 -1.24569511 C381.07454824 -1.32468618 392.10144791 -1.35842558 403.12961204 -1.33567022 C408.74277202 -1.3254637 414.3537972 -1.33513197 419.96659374 -1.40376854 C448.03700599 -1.72976032 476.16036674 -0.13422479 500.29664516 16.15936089 C500.89791775 18.26646233 500.89791775 18.26646233 500.86427212 20.72259331 C500.86389446 21.6433213 500.86351681 22.5640493 500.86312771 23.51267815 C500.83732128 24.50338814 500.81151485 25.49409813 500.78492641 26.51482964 C500.77785168 27.53160286 500.77077694 28.54837608 500.76348782 29.59596062 C500.73547435 32.84700573 500.67272102 36.09633542 500.60914516 39.34686089 C500.58407138 41.54930999 500.56125661 43.75178606 500.54078579 45.95428276 C500.48562526 51.35656184 500.40193008 56.75783884 500.29664516 62.15936089 C500.9150729 62.46623833 501.53350063 62.77311577 502.1706686 63.08929253 C509.87728063 66.96826364 516.98413265 71.88733197 524.02418423 76.8463726 C527.5007449 79.28654013 530.98779735 81.60432667 534.65992641 83.74139214 C544.76967686 89.72507215 544.76967686 89.72507215 546.26539516 93.79607964 C546.29732923 96.46656607 545.96273096 98.57827844 545.29664516 101.15936089 C544.95477824 103.1579199 544.62051677 105.15780692 544.29664516 107.15936089 C483.67648288 107.17649143 423.05632032 107.19239213 362.43615627 107.20170403 C361.53970125 107.20184208 360.64324623 107.20198014 359.71962591 107.20212238 C340.2396795 107.20511493 320.75973306 107.20788516 301.27978659 107.21042622 C291.72754478 107.21167361 282.17530298 107.21297015 272.62306118 107.21429253 C271.19717739 107.21448866 271.19717739 107.21448866 269.74248787 107.21468877 C238.90232587 107.21895407 208.06216569 107.22646831 177.2220048 107.23565811 C145.54347009 107.24508063 113.86493639 107.25124399 82.18640031 107.25327588 C77.71735979 107.25356405 73.24831927 107.25388969 68.77927876 107.25423813 C67.89966247 107.25430555 67.02004619 107.25437297 66.11377487 107.25444244 C51.92471732 107.25562655 37.73566288 107.26027103 23.54660661 107.26619292 C9.2997902 107.27206567 -4.9470231 107.27433251 -19.19384068 107.27286226 C-27.66974451 107.27209868 -36.14563702 107.27415607 -44.62153883 107.28015843 C-50.93280781 107.28432459 -57.24406572 107.28333602 -63.55533511 107.28025978 C-66.12195805 107.27983383 -68.68858191 107.28113177 -71.255203 107.28424407 C-74.71937454 107.28820354 -78.18348882 107.2861271 -81.6476593 107.28240871 C-82.66539599 107.28503573 -83.68313268 107.28766274 -84.73170987 107.29036936 C-85.6456105 107.28812207 -86.55951113 107.28587478 -87.50110573 107.28355938 C-88.69131588 107.28379335 -88.69131588 107.28379335 -89.90557068 107.28403205 C-91.70335484 107.15936089 -91.70335484 107.15936089 -92.70335484 106.15936089 C-92.96554401 104.20750816 -93.16363801 102.24684416 -93.32835484 100.28436089 C-93.42374546 99.21443901 -93.51913609 98.14451714 -93.61741734 97.04217339 C-93.70335484 94.15936089 -93.70335484 94.15936089 -92.70335484 91.15936089 C-90.68821812 89.55633354 -90.68821812 89.55633354 -88.02366734 87.82342339 C-87.04019321 87.17703911 -86.05671909 86.53065483 -85.04344273 85.86468315 C-83.98246372 85.1781768 -82.92148472 84.49167046 -81.82835484 83.78436089 C-79.64151073 82.34914709 -77.45532183 80.91293449 -75.26976109 79.47576714 C-73.62064732 78.39512993 -73.62064732 78.39512993 -71.93821812 77.29266167 C-67.17864002 74.15385462 -62.46758386 70.94645345 -57.76585484 67.72186089 C-56.9622855 67.17288139 -56.15871616 66.6239019 -55.33079624 66.05828667 C-51.85875023 63.80561223 -51.85875023 63.80561223 -48.70335484 61.15936089 C-48.61754823 59.76801424 -48.59922889 58.37240766 -48.60911655 56.97845268 C-48.61176517 56.09050514 -48.6144138 55.2025576 -48.61714268 54.28770256 C-48.62238956 53.321092 -48.62763645 52.35448143 -48.63304234 51.35857964 C-48.62445739 49.32927418 -48.61398121 47.29997601 -48.60179234 45.27068901 C-48.58508551 42.05732813 -48.57836491 38.84558518 -48.60374546 35.63226128 C-48.62467598 32.54001426 -48.60150034 29.45068668 -48.57054234 26.35857964 C-48.58793461 25.39804176 -48.60532688 24.43750389 -48.62324619 23.44785881 C-48.5760384 20.84311395 -48.45727178 18.65354071 -47.70335484 16.15936089 C-45.10186001 14.10662999 -43.67456787 13.22936399 -40.70335484 12.15936089 C-39.58356236 11.68152153 -38.46376987 11.20368217 -37.31004429 10.71136284 C-36.15721958 10.27783501 -35.00439487 9.84430717 -33.81663609 9.39764214 C-33.19234211 9.16151711 -32.56804813 8.92539207 -31.92483616 8.68211174 C-30.61922686 8.1895672 -29.31255615 7.69982748 -28.00486851 7.21282768 C-26.00803171 6.46894654 -24.01468075 5.71627666 -22.02171421 4.96209526 C-14.37335758 2.08412363 -8.21436802 0.01224869 0 0 Z M-31.80747998 10.8262229 C-35.40189052 12.48093709 -39.06714145 13.8963348 -42.76976675 15.28841805 C-44.88324473 16.10303662 -44.88324473 16.10303662 -46.70335484 18.15936089 C-46.88505783 20.06581326 -46.88505783 20.06581326 -46.67649937 22.25091362 C-46.59880817 23.51879974 -46.59880817 23.51879974 -46.51954746 24.81229973 C-46.4287743 26.18872391 -46.4287743 26.18872391 -46.33616734 27.59295464 C-46.25233496 29.54133779 -46.17305785 31.48992125 -46.09788609 33.43865776 C-45.9750631 36.51143451 -45.83006896 39.57337731 -45.60618687 42.64056206 C-44.45225147 59.06348792 -44.45225147 59.06348792 -48.07826328 64.05023003 C-51.74887415 67.49296685 -56.02545451 69.75920706 -60.49705601 72.00277519 C-63.98460607 73.83101824 -67.13958548 76.09303492 -70.35569859 78.35467339 C-71.57336376 79.18275252 -72.7927534 80.00830189 -74.01390171 80.83123589 C-74.60936802 81.23406792 -75.20483433 81.63689995 -75.81834507 82.05193901 C-77.06008798 82.89163335 -78.301955 83.73114417 -79.54393101 84.5704937 C-81.3776629 85.81010683 -83.21048991 87.05104818 -85.04319859 88.29217339 C-86.64215977 89.37329399 -86.64215977 89.37329399 -88.27342319 90.47625542 C-90.54875836 91.94521302 -90.54875836 91.94521302 -91.70335484 93.15936089 C-91.70335484 95.13936089 -91.70335484 97.11936089 -91.70335484 99.15936089 C118.17664516 99.15936089 328.05664516 99.15936089 544.29664516 99.15936089 C544.97837076 93.53857725 544.97837076 93.53857725 542.85523891 91.61248589 C542.15527798 91.21545464 541.45531704 90.81842339 540.73414516 90.40936089 C539.91559048 89.91693901 539.09703579 89.42451714 538.25367641 88.91717339 C536.78994595 88.0470562 536.78994595 88.0470562 535.29664516 87.15936089 C532.81999651 85.56165903 530.37069599 83.92396394 527.92164516 82.28436089 C526.9504977 81.63841972 526.9504977 81.63841972 525.9597311 80.97942924 C521.26990154 77.84876232 516.68091905 74.60196278 512.15211391 71.24139214 C509.48142677 69.11057522 509.48142677 69.11057522 506.7878561 68.17034721 C503.34252197 66.51907492 501.58955323 65.25522259 499.29664516 62.15936089 C497.41074 54.75827899 498.03693174 46.79310383 498.17164516 39.22186089 C498.17358808 37.08579247 498.17103194 34.94971492 498.16383266 32.81365776 C498.15602429 27.59432658 498.20452035 22.3778339 498.29664516 17.15936089 C491.12414827 13.91733989 483.86292653 10.99788792 476.50221157 8.21282768 C474.5347083 7.46733799 472.56994706 6.71491594 470.60523891 5.96209526 C469.34107546 5.48185758 468.07675792 5.00202527 466.81227016 4.52264214 C465.68079556 4.09249809 464.54932095 3.66235405 463.38355923 3.21917534 C458.07151892 1.39541965 453.16949852 1.00962252 447.5812149 1.00558662 C446.80778168 1.00113722 446.03434846 0.99668781 445.23747787 0.99210358 C442.63627321 0.97838917 440.03509909 0.97173438 437.43386745 0.96508598 C435.55352302 0.95677511 433.67318033 0.94806115 431.79283947 0.93897796 C426.61734167 0.91534649 421.44183934 0.89810306 416.2663132 0.88204575 C411.82841115 0.86750715 407.39052679 0.84933489 402.95263816 0.83121434 C361.48861262 0.66269257 320.02418349 0.57763805 278.55988118 0.51061733 C272.38465161 0.5006073 266.20942268 0.49021191 260.03419399 0.47967339 C259.01075834 0.47794019 259.01075834 0.47794019 257.96664722 0.47617198 C235.89874574 0.43853154 213.83119014 0.36260618 191.76347614 0.26555838 C168.39934424 0.16299803 145.03548975 0.10159637 121.67110771 0.08371711 C108.94906855 0.07285089 96.22766758 0.04342615 83.50584507 -0.034235 C72.6590617 -0.10043008 61.81299751 -0.12854236 50.96601654 -0.10866746 C45.4428101 -0.09971131 39.92115506 -0.10776349 34.39820766 -0.16535759 C10.42317512 -0.40259247 -9.82393389 0.56861248 -31.80747998 10.8262229 Z " fill="#F8F2B4" transform="translate(1854.7033548355103,-0.1593608856201172)"/>
<path d="M0 0 C0.33 0.66 0.66 1.32 1 2 C0.1105957 4.16040039 0.1105957 4.16040039 -1.32421875 6.84765625 C-1.85241211 7.83749512 -2.38060547 8.82733398 -2.92480469 9.84716797 C-3.50649414 10.90822754 -4.08818359 11.96928711 -4.6875 13.0625 C-5.27821289 14.14418457 -5.86892578 15.22586914 -6.47753906 16.34033203 C-13.89448531 29.69281312 -22.32546803 42.03816179 -33 53 C-33.86625 53.9075 -34.7325 54.815 -35.625 55.75 C-47.79627376 67.28068041 -62.02868077 77.10005742 -77.82421875 82.82421875 C-80.04371512 83.64595111 -82.23343054 84.55071467 -84.39453125 85.515625 C-88.23600323 87.09716276 -91.96044596 88.14576167 -96 89.0625 C-97.11411255 89.31628418 -97.11411255 89.31628418 -98.25073242 89.57519531 C-134.19671766 97.52320526 -166.88864385 91.2660874 -198.01318359 71.73681641 C-218.85551422 58.07523235 -237.99031966 39.06578514 -248 16 C-247.67 15.34 -247.34 14.68 -247 14 C-246.360625 14.639375 -245.72125 15.27875 -245.0625 15.9375 C-244.5984375 16.39640625 -244.134375 16.8553125 -243.65625 17.328125 C-242.46887139 18.52670529 -241.3046438 19.74839185 -240.15625 20.984375 C-214.28061091 48.21172658 -174.30328143 62.03745071 -137.46484375 63.3203125 C-115.30761355 63.85459409 -93.1814576 61.89122764 -72 55 C-71.37544922 54.79681152 -70.75089844 54.59362305 -70.10742188 54.38427734 C-41.35047796 44.82480666 -15.45460718 26.45705931 0 0 Z " fill="#BEA827" transform="translate(2211,199)"/>
<path d="M0 0 C1.03382813 -0.02900391 2.06765625 -0.05800781 3.1328125 -0.08789062 C12.52072677 -0.16474383 20.81367168 2.01024084 27.79443359 8.56835938 C32.83244559 14.60518556 33.92008193 21.49645573 33.75 29.125 C33.73791504 29.99866211 33.72583008 30.87232422 33.71337891 31.77246094 C33.35246136 43.5886828 29.8366903 52.50414224 21.625 60.9921875 C11.48314809 70.42974413 -1.70093697 71.78889387 -15.03125 71.55859375 C-24.28813617 70.94600569 -32.03199162 68.94937301 -38.75 62.3125 C-45.45656103 54.19403138 -45.61147825 44.4133325 -44.75 34.3125 C-42.36044908 22.22897546 -36.92022203 12.44462292 -26.75 5.3125 C-18.08438128 0.47211195 -9.75366837 0.08986795 0 0 Z " fill="#0F7AD3" transform="translate(448.75,174.6875)"/>
<path d="M0 0 C1.67917771 -0.01653244 3.35828583 -0.04378702 5.03710938 -0.08203125 C29.48848648 -0.63295374 29.48848648 -0.63295374 37.44671631 6.9359436 C37.8864679 7.40261444 38.32621948 7.86928528 38.77929688 8.35009766 C37.49949951 8.18928711 36.21970215 8.02847656 34.90112305 7.86279297 C29.86867887 7.30642077 24.88979528 7.17172158 19.83007812 7.14697266 C18.42921211 7.13842255 18.42921211 7.13842255 17.00004578 7.12969971 C15.02762971 7.12030232 13.05519832 7.11373681 11.08276367 7.10986328 C8.14471875 7.10027045 5.20740922 7.06924357 2.26953125 7.03759766 C-43.84924155 6.77929089 -87.36465064 20.5660479 -120.78808594 52.96435547 C-122.07338922 54.20760384 -123.37643389 55.43244869 -124.68164062 56.65478516 C-134.62853251 66.18286054 -142.43213669 77.4148355 -149.22070312 89.35009766 C-149.58550781 89.98931152 -149.9503125 90.62852539 -150.32617188 91.28710938 C-170.82695741 127.60953357 -175.23321407 167.58974481 -182.22070312 208.35009766 C-245.91070313 208.35009766 -309.60070313 208.35009766 -375.22070312 208.35009766 C-375.22070312 208.02009766 -375.22070312 207.69009766 -375.22070312 207.35009766 C-366.49529669 206.27742194 -357.76610883 205.24528265 -349.03178406 204.24828339 C-344.92476204 203.77875014 -340.81867314 203.30436011 -336.71510315 202.80548096 C-306.77811375 199.18779249 -277.00688292 198.68732157 -246.87719727 198.61187744 C-240.57299857 198.59190911 -234.26894331 198.54999312 -227.96484375 198.51025391 C-215.71684236 198.43611538 -203.46887472 198.38513239 -191.22070312 198.35009766 C-191.12127411 197.79982407 -191.02184509 197.24955048 -190.91940308 196.68260193 C-189.8585604 190.82167031 -188.78509153 184.96314135 -187.70507812 179.10571289 C-187.30649392 176.93537718 -186.91086462 174.76449619 -186.51855469 172.59301758 C-176.48346618 117.10412431 -156.22413598 65.69485865 -108.46923828 32.11865234 C-104.47225001 29.38476203 -100.38316126 26.82364243 -96.22070312 24.35009766 C-95.64803711 24.00881836 -95.07537109 23.66753906 -94.48535156 23.31591797 C-73.45995571 10.99312567 -50.21492169 4.62594218 -26.22070312 1.35009766 C-25.17946289 1.20652832 -25.17946289 1.20652832 -24.1171875 1.06005859 C-16.10892932 0.10998482 -8.05477905 0.05780194 0 0 Z " fill="#106AB1" transform="translate(2293.220703125,247.64990234375)"/>
<path d="M0 0 C5.26281357 3.29215651 10.4804439 6.63932216 15.6328125 10.1015625 C16.43541504 10.64071289 17.23801758 11.17986328 18.06494141 11.73535156 C19.67604895 12.82019197 21.28513591 13.90803981 22.89208984 14.99902344 C23.6392627 15.50208008 24.38643555 16.00513672 25.15625 16.5234375 C25.82462891 16.97638184 26.49300781 17.42932617 27.18164062 17.89599609 C29.11416248 19.1614088 29.11416248 19.1614088 32 20 C32.72960938 20.73605469 33.45921875 21.47210938 34.2109375 22.23046875 C37.43136765 25.42834686 40.8604715 27.8068377 44.625 30.3125 C46.06207211 31.28256037 47.49826795 32.25392011 48.93359375 33.2265625 C49.63081543 33.69868164 50.32803711 34.17080078 51.04638672 34.65722656 C53.63962612 36.43963305 56.16451583 38.30733801 58.6875 40.1875 C61.5614408 42.31780315 64.45262854 44.30523077 67.52734375 46.12890625 C68.12522705 46.48380127 68.72311035 46.83869629 69.33911133 47.2043457 C71.03346195 48.19640363 72.73910956 49.16909297 74.4453125 50.140625 C77 52 77 52 78 56 C51.93 56 25.86 56 -1 56 C-1.020625 46.945625 -1.04125 37.89125 -1.0625 28.5625 C-1.07615601 24.26907593 -1.07615601 24.26907593 -1.09008789 19.88891602 C-1.09300682 17.63557991 -1.09555543 15.38224327 -1.09765625 13.12890625 C-1.10277222 11.94647339 -1.10788818 10.76404053 -1.11315918 9.54577637 C-1.11328003 8.42924683 -1.11340088 7.31271729 -1.11352539 6.16235352 C-1.115746 5.18750504 -1.11796661 4.21265656 -1.12025452 3.20826721 C-1 1 -1 1 0 0 Z " fill="#F7E52C" transform="translate(2321,40)"/>
<path d="M0 0 C0 4.14453733 -2.21171325 6.02301794 -4.8125 9 C-5.31096436 9.57596924 -5.80942871 10.15193848 -6.32299805 10.74536133 C-29.60437646 37.3594524 -59.63442937 52.61650898 -95 55 C-100.31367786 55.2145829 -105.61986669 55.29795404 -110.9375 55.3125 C-112.20408447 55.31805908 -113.47066895 55.32361816 -114.77563477 55.3293457 C-149.12225658 55.06784022 -177.89131903 42.0472684 -203 19 C-205.46353377 16.42688565 -207.79546962 13.79774946 -210 11 C-209.67 10.34 -209.34 9.68 -209 9 C-208.01 9.804375 -207.02 10.60875 -206 11.4375 C-171.44773554 37.15503484 -126.21573594 44.52400415 -84.25610352 38.76635742 C-74.01185157 37.17240518 -63.87017972 35.21118861 -54 32 C-53.37544922 31.79681152 -52.75089844 31.59362305 -52.10742188 31.38427734 C-32.10584783 24.73529332 -15.44759661 14.31633322 0 0 Z " fill="#F8DF26" transform="translate(2193,222)"/>
<path d="M0 0 C0 18.48 0 36.96 0 56 C-25.74 56 -51.48 56 -78 56 C-76.75995546 51.03982186 -75.51334901 50.60020537 -71.33984375 47.83984375 C-70.76274658 47.45335663 -70.18564941 47.06686951 -69.59106445 46.66867065 C-67.71334243 45.41437371 -65.82558549 44.17612866 -63.9375 42.9375 C-62.64640569 42.07828461 -61.35612331 41.21784796 -60.06665039 40.35620117 C-57.52810871 38.66129089 -54.98632926 36.97144535 -52.44140625 35.28613281 C-48.24458139 32.50344299 -44.08294263 29.67110087 -39.9375 26.8125 C-39.31077393 26.38179199 -38.68404785 25.95108398 -38.03833008 25.50732422 C-34.52342581 23.08269339 -31.06117613 20.59713067 -27.625 18.0625 C-20.53565876 12.8484738 -13.16023849 8.04963674 -5.81835938 3.20166016 C-0.97358797 0 -0.97358797 0 0 0 Z " fill="#F6E52D" transform="translate(1841,40)"/>
<path d="M0 0 C4.95431569 2.13936359 8.58887014 6.17774027 11 11 C11.81262128 17.54093522 10.85964688 21.67994619 7 27 C2.10297501 31.43064166 -0.9161504 32.37227643 -7.3984375 32.26953125 C-12.2903273 31.76271384 -15.33299599 29.91240054 -18.5390625 26.234375 C-21.31172444 22.2999832 -22.77673998 18.86405024 -22.4140625 14.015625 C-21.4898538 9.51664681 -19.95788274 5.5131076 -16.24609375 2.64453125 C-14.375 1.5625 -14.375 1.5625 -11 0 C-7.51411793 -1.74294103 -3.72882431 -0.71982522 0 0 Z " fill="#BDA726" transform="translate(1954,34)"/>
<path d="M0 0 C2.31 0 4.62 0 7 0 C6.29449951 8.9598562 4.67037864 17.68345964 3 26.5 C2.36867604 29.86152879 1.74058247 33.22365591 1.11328125 36.5859375 C0.94661453 37.47771698 0.77994781 38.36949646 0.60823059 39.28829956 C-0.76716325 46.67721126 -2.08675116 54.07541746 -3.39453125 61.4765625 C-3.80009111 63.76367881 -4.20568994 66.05078821 -4.61132812 68.33789062 C-5.21152169 71.72329298 -5.80970171 75.10898842 -6.40161133 78.49584961 C-6.9562347 81.66750665 -7.51841761 84.83774263 -8.08203125 88.0078125 C-8.24637161 88.96031891 -8.41071198 89.91282532 -8.58003235 90.89419556 C-8.81655769 92.21331436 -8.81655769 92.21331436 -9.05786133 93.55908203 C-9.1921907 94.32382843 -9.32652008 95.08857483 -9.46492004 95.87649536 C-10.03176949 98.12607961 -10.89042282 99.96923828 -12 102 C-13.98 102 -15.96 102 -18 102 C-19.25768418 97.54906971 -18.69150756 93.72679105 -17.8828125 89.265625 C-17.6842717 88.10983444 -17.6842717 88.10983444 -17.48171997 86.93069458 C-17.0387961 84.36874119 -16.58236062 81.80941268 -16.125 79.25 C-15.80911203 77.45011292 -15.49369181 75.6501437 -15.17871094 73.85009766 C-14.31787115 68.95102896 -13.44279526 64.05459228 -12.56481934 59.15856934 C-11.98229645 55.90099861 -11.40510997 52.64251764 -10.82910156 49.38378906 C-9.84158139 43.80160401 -8.84361948 38.22137757 -7.83782959 32.64245605 C-7.4475454 30.4730579 -7.05970718 28.30321821 -6.67437744 26.13293457 C-6.12982101 23.07402172 -5.57419645 20.01731807 -5.015625 16.9609375 C-4.85643585 16.0553006 -4.6972467 15.1496637 -4.53323364 14.21658325 C-3.58346648 9.09655592 -2.24589874 4.70329825 0 0 Z " fill="#126BB0" transform="translate(2088,530)"/>
<path d="M0 0 C4.51359981 2.62731929 7.77447465 5.2084315 9.90625 10.09375 C10.64351247 15.67697722 10.65669766 20.41274723 8.34375 25.59375 C3.84449024 30.20837539 0.23761748 32.30530485 -6.15625 32.59375 C-10.82940056 32.38810301 -13.52547615 31.23722935 -17.09375 28.09375 C-21.62897058 23.0682353 -22.4576142 19.20205087 -22.37109375 12.59765625 C-21.95640651 8.85378972 -20.59697623 6.86047373 -18.09375 4.09375 C-12.57824729 -0.07101735 -6.86761895 -2.97255149 0 0 Z " fill="#BDA726" transform="translate(2219.09375,33.90625)"/>
<path d="M0 0 C0 12.54 0 25.08 0 38 C-4.56597498 37.086805 -6.08466769 36.54409724 -9.65234375 33.98046875 C-10.51150391 33.37009766 -11.37066406 32.75972656 -12.25585938 32.13085938 C-13.14080078 31.48955078 -14.02574219 30.84824219 -14.9375 30.1875 C-16.69626679 28.93050281 -18.45537303 27.67398043 -20.21484375 26.41796875 C-21.03839355 25.82677246 -21.86194336 25.23557617 -22.71044922 24.62646484 C-25.43652638 22.68989777 -28.20170095 20.830189 -31 19 C-30.73893401 15.25805415 -30.31006749 13.37105503 -27.875 10.45703125 C-24.69729315 7.7413008 -22.14723022 6.65852887 -18.1875 5.375 C-16.34285156 4.76205078 -16.34285156 4.76205078 -14.4609375 4.13671875 C-12.74777344 3.57404297 -12.74777344 3.57404297 -11 3 C-9.43357511 2.40608361 -7.87010643 1.80417318 -6.3125 1.1875 C-3 0 -3 0 0 0 Z " fill="#F7B402" transform="translate(2353,22)"/>
<path d="M0 0 C5.18596484 1.03719297 9.99713075 2.50900111 15 4.1875 C15.88945313 4.46658203 16.77890625 4.74566406 17.6953125 5.03320312 C23.50234076 6.99632537 26.69801539 8.76076233 30 14 C30.38208895 15.65616935 30.72463312 17.32278148 31 19 C26.74779958 21.85123024 22.49362139 24.69947484 18.23754883 27.54492188 C16.78875287 28.51414669 15.34050926 29.48419768 13.89282227 30.45507812 C11.81670082 31.84720883 9.73863719 33.23639536 7.66015625 34.625 C6.68357811 35.28121338 6.68357811 35.28121338 5.68727112 35.95068359 C1.11387171 39 1.11387171 39 0 39 C0 26.13 0 13.26 0 0 Z " fill="#F7B402" transform="translate(1809,22)"/>
<path d="M0 0 C0.33 0.66 0.66 1.32 1 2 C2.02904198 1.98667633 2.02904198 1.98667633 3.07887268 1.9730835 C10.23291677 1.88444179 17.38680429 1.82419544 24.54125977 1.78027344 C27.2098681 1.7624476 29.87761523 1.73291325 32.54614258 1.69824219 C36.38634076 1.64960492 40.22595575 1.62700261 44.06640625 1.609375 C45.25520889 1.58872986 46.44401154 1.56808472 47.6688385 1.54681396 C54.35785411 1.5450106 58.59918468 1.92933655 64 6 C68 10.41025641 68 10.41025641 68 12 C44.9 12 21.8 12 -2 12 C-0.875 3 -0.875 3 0 0 Z " fill="#0D69B2" transform="translate(2219,445)"/>
<path d="M0 0 C4.42083165 0.7468201 8.58156741 2.11710006 12.8125 3.5625 C13.85180664 3.91344727 13.85180664 3.91344727 14.91210938 4.27148438 C16.60900114 4.84491676 18.30463078 5.42208169 20 6 C19.44392959 11.01741692 18.31880666 15.25835268 16.4375 19.9375 C15.98246094 21.08089844 15.52742188 22.22429687 15.05859375 23.40234375 C14.70925781 24.25957031 14.35992188 25.11679688 14 26 C9.42619624 25.43084601 5.81896167 24.21978812 1.6875 22.1875 C0.63949219 21.68605469 -0.40851562 21.18460938 -1.48828125 20.66796875 C-4 19 -4 19 -4.97265625 17.109375 C-5.00824049 14.36430526 -4.24287142 12.56421914 -3.125 10.0625 C-1.63906832 6.70096925 -0.61046173 3.63029899 0 0 Z " fill="#FEFEFB" transform="translate(2203,163)"/>
<path d="M0 0 C5.852795 0.51482919 11.3297637 1.45357192 17 3 C16.52047576 5.71730403 15.92618019 8.20761822 15 10.8125 C13.8189946 14.57695471 13.40559252 18.07927226 13 22 C6.66606918 22.34548714 1.89738492 21.29342747 -4 19 C-3.63176001 12.09232563 -2.76081837 6.3618858 0 0 Z " fill="#FEFEFB" transform="translate(2040,238)"/>
<path d="M0 0 C0 3 0 3 -1.953125 5.6640625 C-4.46696355 9.76104365 -4.65654732 12.67687906 -4.75 17.375 C-4.77964844 18.11105469 -4.80929687 18.84710938 -4.83984375 19.60546875 C-4.90988033 21.4030743 -4.95728119 23.2015379 -5 25 C-8.9875744 22.71952444 -11.13252967 21.29518177 -13 17 C-14.02012256 12.68409688 -14.5290674 9.28090002 -12.8125 5.125 C-8.73303047 0.34217366 -6.38442849 -0.36833241 0 0 Z " fill="#FBD313" transform="translate(1939,125)"/>
<path d="M0 0 C4.09307991 0.77627378 6.28147251 1.81333391 9.3125 4.62109375 C11.84854525 8.61385546 11.13361 13.15037591 10.625 17.6875 C10.295 17.6875 9.965 17.6875 9.625 17.6875 C9.625 15.3775 9.625 13.0675 9.625 10.6875 C3.355 10.6875 -2.915 10.6875 -9.375 10.6875 C-8.13846926 4.50484629 -6.41551219 1.30686359 0 0 Z " fill="#F5F4EA" transform="translate(1944.375,125.3125)"/>
<path d="M0 0 C1.16402344 0.00773437 1.16402344 0.00773437 2.3515625 0.015625 C3.12242187 0.01046875 3.89328125 0.0053125 4.6875 0 C7.24358849 0.29661095 8.80394477 0.89801931 10.9765625 2.265625 C13.2890625 5.203125 13.2890625 5.203125 14.9765625 8.265625 C14.6465625 9.255625 14.3165625 10.245625 13.9765625 11.265625 C13.9765625 10.605625 13.9765625 9.945625 13.9765625 9.265625 C12.81640625 9.17474609 12.81640625 9.17474609 11.6328125 9.08203125 C5.72406707 8.60669901 -0.14851891 8.05647943 -6.0234375 7.265625 C-3.51671104 0.46165319 -3.51671104 0.46165319 0 0 Z " fill="#FDFDF5" transform="translate(2212.0234375,125.734375)"/>
<path d="M0 0 C-8.27509719 5.51673146 -19.4868319 2.94456988 -29 2 C-29 1.67 -29 1.34 -29 1 C-19.31629705 0.30386731 -9.71614177 -0.14973506 0 0 Z " fill="#2B84BC" transform="translate(1842,521)"/>
<path d="M0 0 C2.95970455 0.28102245 5.917288 0.5742918 8.875 0.875 C10.13763672 0.99294922 10.13763672 0.99294922 11.42578125 1.11328125 C12.23144531 1.19707031 13.03710938 1.28085938 13.8671875 1.3671875 C14.61081543 1.44050293 15.35444336 1.51381836 16.12060547 1.58935547 C18 2 18 2 20 4 C19.67 4.99 19.34 5.98 19 7 C19 6.34 19 5.68 19 5 C18.2265625 4.93941406 17.453125 4.87882813 16.65625 4.81640625 C10.74750457 4.34107401 4.87491859 3.79085443 -1 3 C-0.67 2.01 -0.34 1.02 0 0 Z " fill="#DFDED7" transform="translate(2207,130)"/>
<path d="M0 0 C7.23589973 0.60299164 13.99370876 2.1150587 21 4 C21 4.66 21 5.32 21 6 C13.84404654 5.29843593 6.98144819 3.69214979 0 2 C0 1.34 0 0.68 0 0 Z " fill="#DBDAD9" transform="translate(2206,146)"/>
<path d="M0 0 C0.94875 0.86625 1.8975 1.7325 2.875 2.625 C7.21781379 6.37034249 12.02584651 9.17764329 17 12 C16.67 12.99 16.34 13.98 16 15 C15.67 14.34 15.34 13.68 15 13 C13.339092 12.31911319 11.67141958 11.65465932 10 11 C7.66993744 9.51866175 5.43581706 7.93630707 3.18359375 6.33984375 C1.07607746 5.0466808 -0.58548082 4.44348312 -3 4 C-2.01 2.68 -1.02 1.36 0 0 Z " fill="#DFDDCE" transform="translate(2188,196)"/>
<path d="M0 0 C-0.33 0.99 -0.66 1.98 -1 3 C-8.26 3 -15.52 3 -23 3 C-23 2.67 -23 2.34 -23 2 C-20.47980028 1.66114962 -17.95901484 1.32879665 -15.4375 1 C-14.73302734 0.90460938 -14.02855469 0.80921875 -13.30273438 0.7109375 C-8.82632145 0.13333583 -4.51338762 -0.09489383 0 0 Z " fill="#2075AE" transform="translate(1941,453)"/>
<path d="M0 0 C0.99 0 1.98 0 3 0 C2.71125 0.680625 2.4225 1.36125 2.125 2.0625 C-0.15215349 8.00840077 -1.33715428 13.70296564 -2 20 C-2.66 20 -3.32 20 -4 20 C-4.4946164 12.45709983 -2.90617391 6.941085 0 0 Z " fill="#DBDAD5" transform="translate(2057,241)"/>
<path d="M0 0 C0.66 0 1.32 0 2 0 C2.03738281 0.68964844 2.07476563 1.37929687 2.11328125 2.08984375 C2.56078148 8.48646465 3.65649801 14.03070248 6 20 C3 19 3 19 1.3125 16.1875 C-0.76949627 11.00419677 -0.24310673 5.48340739 0 0 Z " fill="#DAD9D6" transform="translate(2121,238)"/>
<path d="M0 0 C0.33 0 0.66 0 1 0 C1.25394531 0.85722656 1.50789063 1.71445313 1.76953125 2.59765625 C3.56381284 8.55843442 5.37328057 14.35255322 8 20 C7.01 20 6.02 20 5 20 C3.98855432 17.77542155 2.99079735 15.54625709 2 13.3125 C1.71382812 12.68666016 1.42765625 12.06082031 1.1328125 11.41601562 C-0.44883199 7.81965731 -1.46799357 4.94138338 -1 1 C-0.67 0.67 -0.34 0.34 0 0 Z " fill="#DADAD6" transform="translate(2162,221)"/>
<path d="M0 0 C0.66 0 1.32 0 2 0 C0.60154344 2.8749665 -0.94310931 5.61961882 -2.5625 8.375 C-4.55546069 11.9212977 -5.68358875 14.88665381 -6 19 C-7.32 18.34 -8.64 17.68 -10 17 C-9.34 17 -8.68 17 -8 17 C-7.9071875 15.7934375 -7.9071875 15.7934375 -7.8125 14.5625 C-6.57096987 9.1188679 -3.97206526 3.97206526 0 0 Z " fill="#DBDAD5" transform="translate(2024,232)"/>
<path d="M0 0 C-0.5775 0.268125 -1.155 0.53625 -1.75 0.8125 C-4.05747896 1.95053246 -4.05747896 1.95053246 -6.125 3.625 C-8 5 -8 5 -10 5 C-10.4021875 5.8353125 -10.4021875 5.8353125 -10.8125 6.6875 C-12.10122647 9.19712523 -13.52926478 11.59334236 -15 14 C-15.66 13.34 -16.32 12.68 -17 12 C-7.03384739 -2.11015422 -7.03384739 -2.11015422 0 0 Z " fill="#D9D9D6" transform="translate(1994,214)"/>
<path d="M0 0 C0.66 0.66 1.32 1.32 2 2 C1.41992188 2.35191406 0.83984375 2.70382813 0.2421875 3.06640625 C-5.18561655 6.49685007 -9.05132765 9.93759955 -13 15 C-13.99 13.68 -14.98 12.36 -16 11 C-15.360625 10.649375 -14.72125 10.29875 -14.0625 9.9375 C-10.50676002 7.68795022 -7.27673488 5.14314678 -3.98828125 2.5234375 C-2 1 -2 1 0 0 Z " fill="#DBDAD3" transform="translate(1967,186)"/>
<path d="M0 0 C1.29773572 3.89320717 0.31681963 5.1188474 -1 9 C-1.74968497 12.65282745 -2.38487465 16.32233566 -3 20 C-3.66 20 -4.32 20 -5 20 C-4.7201206 12.513226 -3.52350129 6.63729312 0 0 Z " fill="#DADAD9" transform="translate(2039,237)"/>
<path d="M0 0 C0.99 0.33 1.98 0.66 3 1 C2.01 2.485 2.01 2.485 1 4 C0.85754103 6.76655324 0.81230555 9.42653306 0.875 12.1875 C0.88402344 12.93708984 0.89304687 13.68667969 0.90234375 14.45898438 C0.92587422 16.30612654 0.96174439 18.15310412 1 20 C0.34 20 -0.32 20 -1 20 C-2.08749814 16.45910606 -2.16650005 13.1292914 -2.1875 9.4375 C-2.20167969 8.30183594 -2.21585938 7.16617188 -2.23046875 5.99609375 C-2 3 -2 3 0 0 Z " fill="#DADAD9" transform="translate(2076,243)"/>
<path d="M0 0 C0.515625 0.66 1.03125 1.32 1.5625 2 C5.50072258 6.84704317 9.53359062 11.62862061 14 16 C9.69082039 16 8.0524142 13.89146969 4.94140625 11.08984375 C2.07321792 8.00235732 0.6293607 4.86973167 -1 1 C-0.67 0.67 -0.34 0.34 0 0 Z " fill="#D9D9D6" transform="translate(2176,210)"/>
<path d="M0 0 C4.13822218 1.62996896 8.22768778 3.36655355 12.3125 5.125 C13.28026367 5.54072266 13.28026367 5.54072266 14.26757812 5.96484375 C15.84529005 6.64267554 17.42267826 7.32126074 19 8 C18.67 8.99 18.34 9.98 18 11 C12 8 6 5 0 2 C0 1.34 0 0.68 0 0 Z " fill="#D9D8D6" transform="translate(2197,181)"/>
<path d="M0 0 C0.66 0 1.32 0 2 0 C2.06058594 0.85722656 2.12117188 1.71445313 2.18359375 2.59765625 C2.61143536 8.43604873 3.059163 14.22057272 4 20 C3.34 20 2.68 20 2 20 C0.2120463 13.1834265 -0.23668569 7.03482474 0 0 Z " fill="#D8D8D6" transform="translate(2099,242)"/>
<path d="M0 0 C0 0.66 0 1.32 0 2 C-0.65226562 2.31453125 -1.30453125 2.6290625 -1.9765625 2.953125 C-7.90453043 5.84224506 -7.90453043 5.84224506 -13.5 9.3125 C-16 11 -16 11 -18 11 C-18 10.34 -18 9.68 -18 9 C-15.92047027 7.54937227 -13.86232119 6.2294501 -11.6875 4.9375 C-11.09259766 4.57333984 -10.49769531 4.20917969 -9.88476562 3.83398438 C-3.54203732 0 -3.54203732 0 0 0 Z " fill="#D9D8D7" transform="translate(1960,169)"/>
<path d="M0 0 C0 0.66 0 1.32 0 2 C-0.845625 2.495 -1.69125 2.99 -2.5625 3.5 C-7.33766445 6.46310921 -10.01265633 11.36873348 -13 16 C-13.33 15.01 -13.66 14.02 -14 13 C-11.5492566 8.44180799 -5.63697213 0 0 0 Z " fill="#D7D7D5" transform="translate(2009,224)"/>
<path d="M0 0 C0.33 0.66 0.66 1.32 1 2 C-0.2578125 4.71484375 -0.2578125 4.71484375 -2.125 7.9375 C-2.72570313 8.99839844 -3.32640625 10.05929688 -3.9453125 11.15234375 C-6.06656291 14.09225163 -7.78523213 15.40373983 -11 17 C-9.4785708 13.72132006 -7.5944185 10.87944802 -5.5 7.9375 C-3.63418777 5.30876031 -1.78832004 2.68248007 0 0 Z " fill="#C7B33B" transform="translate(2211,199)"/>
<path d="M0 0 C3.63 0 7.26 0 11 0 C11 0.99 11 1.98 11 3 C7.37 2.67 3.74 2.34 0 2 C0 1.34 0 0.68 0 0 Z " fill="#408DAB" transform="translate(1935,491)"/>
<path d="M0 0 C2.92879371 0.62759865 5.36095629 1.58622659 8 3 C7.67 3.99 7.34 4.98 7 6 C6.67 5.34 6.34 4.68 6 4 C4.7625 3.505 4.7625 3.505 3.5 3 C1 2 1 2 0 0 Z " fill="#D9D8D4" transform="translate(2197,205)"/>
</svg>
