<svg width="171" height="64" viewBox="0 0 171 64" fill="none" xmlns="http://www.w3.org/2000/svg">
<g clip-path="url(#clip0_3954_8812)">
<path d="M59.6833 42C62.9149 42 64.7415 40.25 65.5564 38.582H65.6126V41.6172H67.7764V31.9375H60.6106V33.9609H65.3878C65.3316 37.707 63.1397 39.8398 59.9081 39.8398C56.2268 39.8398 53.501 36.9961 53.501 31.3359C53.501 25.6484 56.564 23.2148 59.8238 23.2148C62.7182 23.2148 64.2637 24.582 65.2473 27.8359L67.5516 27.2617C66.4556 23.0234 63.786 21 59.8519 21C54.6531 21 51 24.9922 51 31.418C51 37.543 54.063 42 59.6833 42Z" fill="#6C7993"/>
<path d="M75.405 41.8359C77.625 41.8359 79.4796 41.125 81.1376 39.6211C81.1376 40.4414 81.2781 41.0156 81.4748 41.6172H83.9477C83.6386 40.8789 83.5262 39.8125 83.5262 38.0625V31.6914C83.5262 28.6836 82.1211 26.8789 78.5804 26.8789C75.6298 26.8789 73.4098 28.0273 71.6956 29.5586L72.9602 31.0352C74.4214 29.8047 76.0794 28.8477 78.3275 28.8477C80.1541 28.8477 81.1376 29.7227 81.1376 31.5273V32.1836C73.7751 33.1953 71.2179 35.2734 71.2179 38.1992C71.2179 40.5234 72.8478 41.8359 75.405 41.8359ZM76.1075 39.9766C74.5619 39.9766 73.6065 39.2383 73.6065 37.8438C73.6065 36.0391 75.4893 34.6992 81.1376 33.8242V37.8711C79.7606 39.1836 78.0746 39.9766 76.1075 39.9766Z" fill="#6C7993"/>
<path d="M87.6496 41.6172H90.0663V32.293C91.1622 30.2422 92.9326 29.0391 95.2931 29.0391C95.3774 29.0391 95.9113 29.0391 95.9956 29.0664L96.1642 26.8789H95.8551C92.9607 26.8789 91.2184 28.1914 90.1225 29.8594H90.0663V27.1797H87.6496V41.6172Z" fill="#6C7993"/>
<path d="M103.359 41.8359C105.579 41.8359 107.069 40.8242 108.249 39.5664C108.249 40.3047 108.418 41.1523 108.586 41.6172H111.115C110.778 40.8789 110.666 39.8125 110.666 38.0625V21.3828H108.249V29.0117C107.125 27.7539 105.439 26.8789 103.64 26.8789C100.015 26.8789 97.3177 29.3945 97.3177 34.4258C97.3177 39.457 99.9592 41.8359 103.359 41.8359ZM103.95 39.8945C101.561 39.8945 99.7344 38.1445 99.7344 34.4531C99.7344 30.6523 101.392 28.875 103.978 28.875C105.551 28.875 106.956 29.6406 108.249 31.0625V37.6797C107.013 38.9922 105.664 39.8945 103.95 39.8945Z" fill="#6C7993"/>
<path d="M120.828 41.918C123.61 41.918 125.493 40.7695 126.87 38.8555L125.465 37.6523C124.341 39.1562 123.132 40.0039 120.997 40.0039C118.552 40.0039 116.613 38.2539 116.529 35H127.01V34.5078C127.01 29.2852 124.341 26.8789 120.828 26.8789C117.709 26.8789 114.112 29.1484 114.112 34.3984C114.112 39.4297 117.315 41.918 120.828 41.918ZM116.585 33.168C116.922 30.1875 118.805 28.8477 120.8 28.8477C123.245 28.8477 124.509 30.5977 124.706 33.168H116.585Z" fill="#6C7993"/>
<path d="M130.46 41.6172H132.905V31.2266C134.45 29.8047 135.94 28.9023 137.71 28.9023C139.593 28.9023 140.436 29.8047 140.436 31.7188V41.6172H142.853V31.1992C142.853 28.4648 141.307 26.8789 138.469 26.8789C136.052 26.8789 134.197 28.1094 132.905 29.3398V27.1797H130.46V41.6172Z" fill="#6C7993"/>
<path d="M152.853 41.918C155.635 41.918 157.518 40.7695 158.895 38.8555L157.49 37.6523C156.366 39.1562 155.158 40.0039 153.022 40.0039C150.577 40.0039 148.638 38.2539 148.554 35H159.036V34.5078C159.036 29.2852 156.366 26.8789 152.853 26.8789C149.734 26.8789 146.137 29.1484 146.137 34.3984C146.137 39.4297 149.341 41.918 152.853 41.918ZM148.61 33.168C148.947 30.1875 150.83 28.8477 152.825 28.8477C155.27 28.8477 156.535 30.5977 156.731 33.168H148.61Z" fill="#6C7993"/>
<path d="M162.485 41.6172H164.902V32.293C165.998 30.2422 167.768 29.0391 170.129 29.0391C170.213 29.0391 170.747 29.0391 170.831 29.0664L171 26.8789H170.691C167.796 26.8789 166.054 28.1914 164.958 29.8594H164.902V27.1797H162.485V41.6172Z" fill="#6C7993"/>
<path fill-rule="evenodd" clip-rule="evenodd" d="M19.11 13.0889C19.3565 12.9704 19.6435 12.9704 19.89 13.0889L34.8069 20.2598C35.0534 20.3783 35.2324 20.6023 35.2933 20.8685L38.9775 36.9815C39.0383 37.2477 38.9744 37.5271 38.8039 37.7406L28.481 50.6621C28.3104 50.8756 28.0518 51 27.7783 51H11.2217C10.9481 51 10.6895 50.8756 10.519 50.6621L0.196092 37.7406C0.0255574 37.5271 -0.0383227 37.2477 0.022543 36.9815L3.70674 20.8685C3.76761 20.6023 3.94659 20.3783 4.193 20.2598L19.11 13.0889ZM24.8658 23.5762C24.9284 23.7326 24.9618 23.9014 24.9618 24.0748V30.3097C24.9618 30.4213 24.948 30.5311 24.9214 30.6368L28.7881 28.4365C28.8488 28.5908 28.8814 28.7573 28.8814 28.9283V38.1407C28.8814 38.2923 28.8558 38.4403 28.8078 38.5794L28.8101 38.5808C28.7057 38.8825 28.4952 39.1425 28.2098 39.307L20.2176 43.9131C19.8759 44.1101 19.4691 44.1457 19.1039 44.0199C19.0224 43.992 18.943 43.9562 18.8669 43.9123L10.8747 39.3062C10.6914 39.2005 10.539 39.0555 10.4258 38.8853L10.4272 38.8845C10.2835 38.6678 10.2031 38.4103 10.2031 38.1415V28.9292C10.2031 28.7213 10.2511 28.5205 10.3392 28.3398L13.3477 30.0078V24.5211C13.3477 24.3473 13.3812 24.1781 13.4439 24.0215L18.576 27.3331L24.8658 23.5762Z" fill="#6C7993"/>
</g>
<defs>
<clipPath id="clip0_3954_8812">
<rect width="171" height="64" fill="white"/>
</clipPath>
</defs>
</svg>
