<?xml version="1.0" encoding="UTF-8" standalone="no"?>
<svg
   _ngcontent-aik-c46=""
   width="28.725382"
   height="8.0212193"
   viewBox="0 0 37.725 8.021"
   fill="none"
   class="logo-variant_orange"
   version="1.1"
   id="svg8"
   xmlns="http://www.w3.org/2000/svg"
   xmlns:svg="http://www.w3.org/2000/svg">
  <defs
     id="defs8" />
  <path
     _ngcontent-aik-c46=""
     fill-rule="evenodd"
     clip-rule="evenodd"
     d="m 6.1564044,4.010609 c 0,2.214881 -1.6044029,4.010611 -3.5833465,4.010611 -0.7994142,0 -1.5378641,-0.293129 -2.13384841,-0.788185 C 0.54123977,7.297085 0.64637205,7.35486 0.75462246,7.407096 1.164593,7.604848 1.606294,7.707189 2.0529714,7.707189 c 0.831755,0 1.6324422,-0.352329 2.2420873,-0.984534 0.6096651,-0.632242 0.9841864,-1.499118 1.0476444,-2.427266 0.00875,-0.08771 0.013653,-0.175465 0.014927,-0.263195 0,-0.112124 -0.00807,-0.241616 -0.018676,-0.35998 -7.302e-4,-0.01112 -0.00141,-0.02299 -0.00214,-0.03412 0,-0.01323 -7.302e-4,-0.02647 -0.00219,-0.03902 l -0.00329,0.0034 C 5.3164014,3.44859 5.3008423,3.330228 5.3008423,3.330228 H 2.7018329 L 2.4996579,3.753693 2.035551,4.735466 H 4.0001796 C 3.9273856,4.978485 3.8185206,5.206842 3.6785451,5.41015 3.487548,5.690061 3.241827,5.916361 2.9593835,6.072355 2.6775682,6.228288 2.3671341,6.309784 2.0523474,6.309062 1.8115893,6.309062 1.5727004,6.260322 1.3468736,6.167006 0.95183213,6.005487 0.610916,5.712359 0.37015748,5.326591 0.12939923,4.940169 0,4.481305 0,4.010609 0,3.709111 0.05287977,3.409721 0.15615022,3.131209 0.25942026,2.852696 0.4105925,2.599225 0.60096286,2.385476 0.79132676,2.172413 1.0177775,2.002517 1.2672429,1.887633 1.5167104,1.772747 1.7835962,1.712865 2.0529714,1.712865 2.4878286,1.712159 2.912111,1.866745 3.2629712,2.154312 L 3.5323513,1.58962 3.8533577,0.91074402 c -0.5356393,-0.390619 -1.1614686,-0.598112 -1.8010103,-0.597415 -0.5654999,0 -1.1160702,0.16293 -1.60318293,0.46512 C 1.0445267,0.28965502 1.7786176,1.6479492e-8 2.5730579,1.6479492e-8 4.5520015,1.6479492e-8 6.1564044,1.79572 6.1564044,4.010609 Z"
     fill="#FF4C00"
     id="path1"
     style="fill:#6c7993;fill-opacity:1;stroke-width:0.237204" />
  <path
     _ngcontent-aik-c46=""
     d="m 15.888172,4.922044 c -0.126396,0.169378 -0.284958,0.305432 -0.46473,0.395846 -0.160156,0.07899 -0.33443,0.118492 -0.509512,0.117618 -0.223724,0.0042 -0.445136,-0.05618 -0.642167,-0.17642 -0.0071,-0.0043 -0.01333,-0.0097 -0.02042,-0.01488 C 14.075475,5.130947 13.930221,4.965964 13.831345,4.766736 13.72376,4.546423 13.669594,4.299748 13.673546,4.04876 c -0.004,-0.250165 0.05023,-0.497669 0.157799,-0.717974 0.09888,-0.198375 0.243342,-0.363389 0.419998,-0.477491 0.0071,-0.0046 0.01333,-0.01054 0.02042,-0.01492 0.197031,-0.120242 0.417637,-0.180802 0.642167,-0.176413 0.175846,-0.0018 0.349356,0.03775 0.510275,0.115854 l 0.36507,-0.767113 c 0,0 -0.0055,-0.0036 -0.0087,-0.0052 C 15.492496,1.871219 15.182376,1.803633 14.869921,1.80802 14.52452,1.80362 14.18378,1.88877 13.872134,2.055537 c -0.02594,0.01405 -0.05338,0.02458 -0.07928,0.04038 -0.311669,0.183443 -0.572292,0.459918 -0.752877,0.798711 -0.184488,0.349324 -0.279461,0.74868 -0.27398,1.154207 -0.0054,0.405473 0.08949,0.804824 0.27398,1.154149 0.180585,0.33795 0.441208,0.614452 0.752877,0.797891 0.02591,0.01574 0.05335,0.0263 0.07928,0.04036 0.309313,0.165885 0.64843,0.251045 0.991528,0.247478 0.313216,0.0053 0.624122,-0.06227 0.913005,-0.19832 0.0039,-0.0019 0.0071,-0.0037 0.01098,-0.0061 0.262219,-0.127285 0.493802,-0.322124 0.675148,-0.56963 L 15.887354,4.920461 Z"
     fill="#FF4C00"
     id="path2"
     style="fill:#6c7993;fill-opacity:1;stroke-width:0.237204" />
  <path
     _ngcontent-aik-c46=""
     d="M 17.773092,5.998151 C 17.459066,5.813805 17.19687,5.536444 17.014715,5.19677 16.83023,4.850103 16.73526,4.452506 16.740731,4.048735 c -0.0054,-0.403742 0.0895,-0.801344 0.273984,-1.148036 0.182155,-0.339674 0.444351,-0.617029 0.758377,-0.801346 0.335212,-0.197487 0.70888,-0.296666 1.088089,-0.291401 0.377614,-0.0071 0.751283,0.09304 1.084927,0.290524 0.31324,0.185194 0.575456,0.462549 0.758354,0.801344 0.186081,0.346693 0.281835,0.744294 0.277147,1.148038 0.0046,0.403742 -0.09107,0.80137 -0.277147,1.148065 -0.182898,0.338789 -0.445114,0.616153 -0.758354,0.801321 -0.333644,0.197519 -0.707313,0.297587 -1.084927,0.291393 -0.3784,0.0062 -0.752877,-0.09387 -1.088089,-0.291393 z M 19.480567,5.258239 C 19.663507,5.142357 19.814235,4.972102 19.91549,4.765808 20.023032,4.545525 20.077217,4.2989 20.073288,4.047858 20.077288,3.797745 20.023028,3.550216 19.91549,3.329909 19.814235,3.123638 19.663507,2.953362 19.480567,2.837506 19.291363,2.719017 19.077855,2.65758 18.860396,2.66109 18.64372,2.65769 18.429402,2.71814 18.240198,2.837506 c -0.182935,0.115856 -0.333665,0.286132 -0.434916,0.492403 -0.107543,0.220307 -0.161727,0.466935 -0.157801,0.717949 -0.004,0.250163 0.05026,0.497667 0.157801,0.71795 0.101251,0.206294 0.251981,0.376549 0.434916,0.492431 0.189204,0.119386 0.402719,0.179926 0.620198,0.176439 0.216655,0.004 0.430967,-0.05705 0.620171,-0.176439 z"
     fill="#FF4C00"
     id="path3"
     style="fill:#6c7993;fill-opacity:1;stroke-width:0.237204" />
  <path
     _ngcontent-aik-c46=""
     d="M 24.125658,6.214941 23.378411,5.008074 H 22.553286 V 6.214941 H 21.656727 V 1.882543 h 1.676794 c 0.307069,-0.0079 0.611665,0.05705 0.894267,0.19222 0.237935,0.114099 0.441299,0.303686 0.584058,0.545066 0.140513,0.250138 0.211894,0.540657 0.204937,0.835561 0.0069,0.294931 -0.0651,0.584548 -0.207182,0.832074 -0.145231,0.23964 -0.350166,0.425705 -0.589667,0.535394 l 0.869128,1.392933 H 24.125658 Z M 23.898725,2.894532 C 23.720723,2.751477 23.503217,2.682145 23.284817,2.699691 h -0.73086 V 4.20936 h 0.73086 c 0.219074,0.01664 0.43748,-0.0527 0.613908,-0.198374 0.07071,-0.06846 0.126594,-0.154483 0.16341,-0.251015 0.03614,-0.09656 0.05252,-0.201007 0.0478,-0.305458 0.0056,-0.105327 -0.01006,-0.210632 -0.04691,-0.307188 -0.03614,-0.09743 -0.09271,-0.183433 -0.16341,-0.252793 z"
     fill="#FF4C00"
     id="path4"
     style="fill:#6c7993;fill-opacity:1;stroke-width:0.237204" />
  <path
     _ngcontent-aik-c46=""
     d="M 28.725381,5.410935 V 6.215791 H 25.724744 V 1.882543 h 2.928358 V 2.68741 h -2.037238 v 0.940889 h 1.79931 v 0.780286 h -1.79931 v 1.00235 h 2.108621 z"
     fill="#FF4C00"
     id="path5"
     style="fill:#6c7993;fill-opacity:1;stroke-width:0.237202" />
  <path
     _ngcontent-aik-c46=""
     d="M 11.037812,4.921137 C 10.911439,5.090567 10.752855,5.226602 10.5731,5.317014 10.412922,5.396024 10.238652,5.43548 10.063569,5.43463 9.839845,5.43883 9.6184545,5.37843 9.4214218,5.258189 c -0.00706,-0.0043 -0.013355,-0.0097 -0.02044,-0.0149 C 9.2251321,5.13009 9.0798834,4.965079 8.9810097,4.765825 8.8734181,4.545521 8.8192562,4.29889 8.8231868,4.047876 8.8191968,3.797689 8.8734158,3.550184 8.9810097,3.329903 9.0798837,3.131525 9.2243476,2.966516 9.4009833,2.852413 c 0.00706,-0.0046 0.013348,-0.01055 0.02044,-0.01492 C 9.6184568,2.71725 9.8390421,2.65669 10.06357,2.661076 c 0.175867,-0.0018 0.349353,0.03773 0.510298,0.115857 l 0.36507,-0.76712 c 0,0 -0.0055,-0.0036 -0.0087,-0.0052 C 10.64214,1.870318 10.332046,1.802737 10.019589,1.808003 9.6741844,1.803603 9.3334503,1.888753 9.021799,2.055516 8.995863,2.069576 8.968423,2.080096 8.942519,2.095896 8.63085,2.279336 8.3702036,2.555816 8.189645,2.894612 8.0051557,3.243059 7.9101643,3.643295 7.9156639,4.048791 c -0.00553,0.405502 0.089492,0.804882 0.2739811,1.154205 0.1805586,0.337893 0.441205,0.614372 0.752874,0.797807 0.025913,0.0158 0.053353,0.02631 0.07928,0.04039 0.3093118,0.165888 0.6484309,0.251008 0.991524,0.247528 0.313221,0.0053 0.624102,-0.06234 0.913012,-0.198349 0.0039,-0.0019 0.0071,-0.0043 0.01098,-0.0062 0.262221,-0.127258 0.493798,-0.322099 0.675147,-0.569628 L 11.037016,4.920316 Z"
     fill="#FF4C00"
     id="path6"
     style="fill:#6c7993;fill-opacity:1;stroke-width:0.237204" />
  <path
     _ngcontent-aik-c46=""
     d="m 12.113352,3.924107 -0.783489,0.0034 c 0.011,0.220304 -0.02271,0.440586 -0.0989,0.64425 -0.06989,0.17993 -0.172726,0.341408 -0.301456,0.473935 -0.06359,0.06845 -0.131917,0.130795 -0.206483,0.182557 0.09811,0.278261 0.184485,0.53717 0.231601,0.833826 0.17351,-0.104426 0.33912,-0.186914 0.483585,-0.33967 0.232388,-0.2352 0.394095,-0.534512 0.522822,-0.854007 0.0018,-0.0044 0.0028,-0.0088 0.004,-0.01228 0.114612,-0.293126 0.165654,-0.611742 0.147584,-0.93124 z"
     fill="#FF4C00"
     id="path7"
     style="fill:#6c7993;fill-opacity:1;stroke-width:0.237204" />
  <path
     _ngcontent-aik-c46=""
     d="m 12.117284,3.817901 -0.004,0.106206 -0.38388,0.771491 H 9.7008173 L 10.111417,3.817899 Z"
     fill="#FF4C00"
     id="path8"
     style="fill:#6c7993;fill-opacity:1;stroke-width:0.237204" />
</svg>
