<svg width="219" height="64" viewBox="0 0 219 64" fill="none" xmlns="http://www.w3.org/2000/svg">
<path fill-rule="evenodd" clip-rule="evenodd" d="M0.589727 34.2205L10.6386 51.7799H10.639C11.4253 53.1535 12.8785 54 14.4511 54H34.5489C36.1219 54 37.5751 53.1539 38.3614 51.7799L48.4103 34.2205C49.1966 32.8465 49.1966 31.1539 48.4103 29.7799L38.3614 12.2205C37.5747 10.8465 36.1215 10 34.5489 10H14.4511C12.8781 10 11.4249 10.8465 10.6386 12.2205L0.589727 29.7799C-0.196576 31.1539 -0.196576 32.8465 0.589727 34.2205ZM25.0155 20.54L34.0791 25.819C34.3987 26.0051 34.5955 26.3492 34.5955 26.7215V37.2791C34.5955 37.6514 34.3987 37.9955 34.0791 38.1816L25.0155 43.4606C24.6959 43.6467 24.302 43.6467 23.9823 43.4606L14.9188 38.1816C14.5991 37.9955 14.4023 37.6514 14.4023 37.2791V26.7215C14.4023 26.3492 14.5991 26.0051 14.9188 25.819L23.9823 20.54C24.302 20.3538 24.6959 20.3538 25.0155 20.54ZM29.6736 34.4272L32.8357 36.2689V27.1459L25.0037 22.5844V26.2677L29.1683 28.6933L24.4987 31.4119L19.8291 28.6933L23.9942 26.2677V22.5844L16.1621 27.1459V36.2689L19.3242 34.4272V29.5757L23.9938 32.2944V37.7356L19.8288 35.31L16.6667 37.1517L24.4987 41.7132L32.3307 37.1517L29.1687 35.31L25.004 37.7356V32.2944L29.6736 29.5757V34.4272Z" fill="#6C7993"/>
<path d="M70.2727 19.6328C70.1882 19.339 70.0695 19.0794 69.9165 18.854C69.7636 18.6246 69.5765 18.4315 69.3551 18.2745C69.1378 18.1135 68.8883 17.9908 68.6065 17.9062C68.3288 17.8217 68.021 17.7795 67.6829 17.7795C67.051 17.7795 66.4956 17.9364 66.0167 18.2504C65.5418 18.5643 65.1715 19.0211 64.9059 19.6207C64.6403 20.2164 64.5075 20.9448 64.5075 21.8061C64.5075 22.6674 64.6383 23.3999 64.8999 24.0036C65.1615 24.6072 65.5317 25.0681 66.0107 25.386C66.4896 25.6999 67.055 25.8569 67.707 25.8569C68.2987 25.8569 68.8037 25.7522 69.2223 25.543C69.6449 25.3297 69.9669 25.0298 70.1882 24.6435C70.4136 24.2571 70.5263 23.8003 70.5263 23.2731L71.0575 23.3516H67.87V21.3835H73.0437V22.9411C73.0437 24.0277 72.8143 24.9614 72.3555 25.7422C71.8967 26.5189 71.2648 27.1186 70.4599 27.5412C69.6549 27.9598 68.7333 28.169 67.695 28.169C66.5359 28.169 65.5176 27.9135 64.6403 27.4023C63.7629 26.8872 63.0787 26.1567 62.5877 25.2109C62.1007 24.2611 61.8572 23.1342 61.8572 21.8303C61.8572 20.8281 62.0021 19.9347 62.2919 19.1499C62.5857 18.361 62.9962 17.6929 63.5234 17.1456C64.0507 16.5982 64.6644 16.1817 65.3647 15.896C66.065 15.6102 66.8236 15.4673 67.6406 15.4673C68.3409 15.4673 68.9929 15.57 69.5966 15.7752C70.2003 15.9764 70.7356 16.2622 71.2024 16.6325C71.6733 17.0027 72.0576 17.4434 72.3555 17.9545C72.6533 18.4616 72.8445 19.0211 72.929 19.6328H70.2727ZM79.1485 28.1811C78.2108 28.1811 77.3998 27.9819 76.7156 27.5835C76.0355 27.181 75.5103 26.6216 75.14 25.9052C74.7697 25.1848 74.5846 24.3497 74.5846 23.3999C74.5846 22.442 74.7697 21.6049 75.14 20.8885C75.5103 20.1681 76.0355 19.6087 76.7156 19.2102C77.3998 18.8078 78.2108 18.6065 79.1485 18.6065C80.0863 18.6065 80.8952 18.8078 81.5754 19.2102C82.2596 19.6087 82.7868 20.1681 83.157 20.8885C83.5273 21.6049 83.7124 22.442 83.7124 23.3999C83.7124 24.3497 83.5273 25.1848 83.157 25.9052C82.7868 26.6216 82.2596 27.181 81.5754 27.5835C80.8952 27.9819 80.0863 28.1811 79.1485 28.1811ZM79.1606 26.1889C79.5872 26.1889 79.9434 26.0682 80.2291 25.8267C80.5149 25.5812 80.7302 25.2472 80.8751 24.8246C81.024 24.402 81.0985 23.921 81.0985 23.3817C81.0985 22.8424 81.024 22.3615 80.8751 21.9389C80.7302 21.5163 80.5149 21.1823 80.2291 20.9368C79.9434 20.6913 79.5872 20.5685 79.1606 20.5685C78.73 20.5685 78.3677 20.6913 78.074 20.9368C77.7842 21.1823 77.5648 21.5163 77.4159 21.9389C77.271 22.3615 77.1986 22.8424 77.1986 23.3817C77.1986 23.921 77.271 24.402 77.4159 24.8246C77.5648 25.2472 77.7842 25.5812 78.074 25.8267C78.3677 26.0682 78.73 26.1889 79.1606 26.1889ZM89.5743 28.1811C88.6366 28.1811 87.8256 27.9819 87.1414 27.5835C86.4613 27.181 85.9361 26.6216 85.5658 25.9052C85.1955 25.1848 85.0104 24.3497 85.0104 23.3999C85.0104 22.442 85.1955 21.6049 85.5658 20.8885C85.9361 20.1681 86.4613 19.6087 87.1414 19.2102C87.8256 18.8078 88.6366 18.6065 89.5743 18.6065C90.512 18.6065 91.321 18.8078 92.0012 19.2102C92.6853 19.6087 93.2126 20.1681 93.5828 20.8885C93.9531 21.6049 94.1382 22.442 94.1382 23.3999C94.1382 24.3497 93.9531 25.1848 93.5828 25.9052C93.2126 26.6216 92.6853 27.181 92.0012 27.5835C91.321 27.9819 90.512 28.1811 89.5743 28.1811ZM89.5864 26.1889C90.013 26.1889 90.3692 26.0682 90.6549 25.8267C90.9407 25.5812 91.156 25.2472 91.3009 24.8246C91.4498 24.402 91.5242 23.921 91.5242 23.3817C91.5242 22.8424 91.4498 22.3615 91.3009 21.9389C91.156 21.5163 90.9407 21.1823 90.6549 20.9368C90.3692 20.6913 90.013 20.5685 89.5864 20.5685C89.1557 20.5685 88.7935 20.6913 88.4997 20.9368C88.21 21.1823 87.9906 21.5163 87.8417 21.9389C87.6968 22.3615 87.6244 22.8424 87.6244 23.3817C87.6244 23.921 87.6968 24.402 87.8417 24.8246C87.9906 25.2472 88.21 25.5812 88.4997 25.8267C88.7935 26.0682 89.1557 26.1889 89.5864 26.1889ZM99.988 31.6705C99.1549 31.6705 98.4405 31.5558 97.8449 31.3263C97.2533 31.101 96.7824 30.7931 96.4323 30.4027C96.0821 30.0123 95.8547 29.5736 95.7501 29.0866L98.1286 28.7667C98.2011 28.9518 98.3158 29.1249 98.4727 29.2859C98.6297 29.4469 98.837 29.5756 99.0945 29.6722C99.3561 29.7728 99.6741 29.8232 100.048 29.8232C100.608 29.8232 101.069 29.6863 101.431 29.4126C101.797 29.143 101.98 28.6902 101.98 28.0543V26.358H101.872C101.759 26.6155 101.59 26.859 101.364 27.0884C101.139 27.3178 100.849 27.505 100.495 27.6499C100.141 27.7947 99.7184 27.8672 99.2274 27.8672C98.5311 27.8672 97.8972 27.7062 97.3257 27.3842C96.7583 27.0582 96.3055 26.5612 95.9674 25.8931C95.6334 25.221 95.4664 24.3718 95.4664 23.3455C95.4664 22.2951 95.6374 21.4177 95.9795 20.7134C96.3216 20.0091 96.7764 19.4819 97.3438 19.1317C97.9153 18.7816 98.5412 18.6065 99.2213 18.6065C99.7405 18.6065 100.175 18.6951 100.525 18.8722C100.875 19.0452 101.157 19.2625 101.37 19.5241C101.588 19.7817 101.755 20.0353 101.872 20.2848H101.968V18.7273H104.522V28.0906C104.522 28.8794 104.329 29.5394 103.942 30.0707C103.556 30.6019 103.021 31.0004 102.336 31.266C101.656 31.5356 100.873 31.6705 99.988 31.6705ZM100.042 25.9354C100.457 25.9354 100.807 25.8327 101.093 25.6275C101.383 25.4182 101.604 25.1204 101.757 24.734C101.914 24.3436 101.992 23.8768 101.992 23.3335C101.992 22.7901 101.916 22.3192 101.763 21.9208C101.61 21.5183 101.389 21.2064 101.099 20.9851C100.809 20.7637 100.457 20.6531 100.042 20.6531C99.6198 20.6531 99.2636 20.7678 98.9738 20.9972C98.684 21.2225 98.4647 21.5365 98.3158 21.9389C98.1669 22.3414 98.0924 22.8062 98.0924 23.3335C98.0924 23.8687 98.1669 24.3316 98.3158 24.7219C98.4687 25.1083 98.6881 25.4081 98.9738 25.6214C99.2636 25.8307 99.6198 25.9354 100.042 25.9354ZM109.14 15.6364V28H106.568V15.6364H109.14ZM115.426 28.1811C114.472 28.1811 113.651 27.9879 112.963 27.6016C112.279 27.2112 111.751 26.6598 111.381 25.9474C111.011 25.2311 110.826 24.3839 110.826 23.4059C110.826 22.4521 111.011 21.6149 111.381 20.8945C111.751 20.1741 112.273 19.6127 112.945 19.2102C113.621 18.8078 114.414 18.6065 115.323 18.6065C115.935 18.6065 116.505 18.7051 117.032 18.9023C117.563 19.0955 118.026 19.3873 118.42 19.7777C118.819 20.1681 119.129 20.6591 119.35 21.2507C119.571 21.8383 119.682 22.5265 119.682 23.3153V24.0217H111.852V22.4279H117.261C117.261 22.0576 117.181 21.7296 117.02 21.4439C116.859 21.1581 116.635 20.9348 116.35 20.7738C116.068 20.6088 115.74 20.5263 115.366 20.5263C114.975 20.5263 114.629 20.6168 114.327 20.7979C114.029 20.975 113.796 21.2145 113.627 21.5163C113.458 21.8142 113.371 22.1462 113.367 22.5124V24.0277C113.367 24.4865 113.452 24.8829 113.621 25.217C113.794 25.551 114.037 25.8086 114.351 25.9897C114.665 26.1708 115.038 26.2614 115.468 26.2614C115.754 26.2614 116.016 26.2211 116.253 26.1406C116.49 26.0601 116.694 25.9394 116.863 25.7784C117.032 25.6174 117.161 25.4202 117.249 25.1868L119.628 25.3438C119.507 25.9152 119.259 26.4143 118.885 26.8409C118.515 27.2635 118.036 27.5935 117.448 27.831C116.865 28.0644 116.191 28.1811 115.426 28.1811ZM62.0746 49V36.6364H64.6886V42.0877H64.8516L69.3008 36.6364H72.4339L67.8459 42.1722L72.4883 49H69.3612L65.9744 43.9169L64.6886 45.4865V49H62.0746ZM79.1123 45.0518V39.7273H81.684V49H79.2149V47.3157H79.1183C78.9091 47.859 78.5609 48.2957 78.074 48.6257C77.591 48.9557 77.0014 49.1207 76.3051 49.1207C75.6853 49.1207 75.14 48.9799 74.6691 48.6982C74.1982 48.4164 73.83 48.016 73.5644 47.4968C73.3028 46.9776 73.17 46.3558 73.1659 45.6314V39.7273H75.7377V45.1726C75.7417 45.7199 75.8886 46.1526 76.1784 46.4705C76.4681 46.7885 76.8565 46.9474 77.3435 46.9474C77.6534 46.9474 77.9432 46.877 78.2128 46.7362C78.4825 46.5913 78.6998 46.378 78.8648 46.0962C79.0338 45.8145 79.1163 45.4664 79.1123 45.0518ZM83.7894 49V36.6364H86.3612V41.2848H86.4396C86.5523 41.0353 86.7153 40.7817 86.9286 40.5241C87.146 40.2625 87.4277 40.0452 87.7738 39.8722C88.1239 39.6951 88.5586 39.6065 89.0778 39.6065C89.7539 39.6065 90.3777 39.7836 90.9492 40.1378C91.5207 40.4879 91.9775 41.0172 92.3196 41.7255C92.6617 42.4298 92.8327 43.3132 92.8327 44.3757C92.8327 45.41 92.6657 46.2834 92.3317 46.9957C92.0017 47.7041 91.5509 48.2414 90.9794 48.6076C90.4119 48.9698 89.776 49.1509 89.0717 49.1509C88.5727 49.1509 88.1481 49.0684 87.7979 48.9034C87.4518 48.7384 87.1681 48.5311 86.9467 48.2816C86.7254 48.0281 86.5563 47.7725 86.4396 47.5149H86.3249V49H83.7894ZM86.3068 44.3636C86.3068 44.915 86.3833 45.396 86.5362 45.8065C86.6892 46.217 86.9105 46.5369 87.2003 46.7663C87.4901 46.9917 87.8422 47.1044 88.2567 47.1044C88.6753 47.1044 89.0295 46.9897 89.3192 46.7603C89.609 46.5269 89.8284 46.2049 89.9773 45.7944C90.1302 45.3799 90.2067 44.9029 90.2067 44.3636C90.2067 43.8284 90.1322 43.3575 89.9833 42.951C89.8344 42.5445 89.6151 42.2266 89.3253 41.9972C89.0355 41.7678 88.6793 41.6531 88.2567 41.6531C87.8382 41.6531 87.484 41.7637 87.1942 41.9851C86.9085 42.2064 86.6892 42.5204 86.5362 42.9268C86.3833 43.3333 86.3068 43.8123 86.3068 44.3636ZM98.7746 49.1811C97.8208 49.1811 96.9997 48.9879 96.3115 48.6016C95.6273 48.2112 95.1001 47.6598 94.7298 46.9474C94.3596 46.2311 94.1744 45.3839 94.1744 44.4059C94.1744 43.4521 94.3596 42.6149 94.7298 41.8945C95.1001 41.1741 95.6213 40.6127 96.2934 40.2102C96.9695 39.8078 97.7624 39.6065 98.672 39.6065C99.2837 39.6065 99.8532 39.7051 100.38 39.9023C100.912 40.0955 101.374 40.3873 101.769 40.7777C102.167 41.1681 102.477 41.6591 102.699 42.2507C102.92 42.8383 103.031 43.5265 103.031 44.3153V45.0217H95.2007V43.4279H100.61C100.61 43.0576 100.529 42.7296 100.368 42.4439C100.207 42.1581 99.984 41.9348 99.6982 41.7738C99.4165 41.6088 99.0885 41.5263 98.7142 41.5263C98.3238 41.5263 97.9777 41.6168 97.6759 41.7979C97.378 41.975 97.1446 42.2145 96.9756 42.5163C96.8066 42.8142 96.72 43.1462 96.716 43.5124V45.0277C96.716 45.4865 96.8005 45.8829 96.9695 46.217C97.1426 46.551 97.3861 46.8086 97.7 46.9897C98.0139 47.1708 98.3862 47.2614 98.8169 47.2614C99.1026 47.2614 99.3642 47.2211 99.6017 47.1406C99.8391 47.0601 100.042 46.9394 100.211 46.7784C100.38 46.6174 100.509 46.4202 100.598 46.1868L102.976 46.3438C102.856 46.9152 102.608 47.4143 102.234 47.8409C101.863 48.2635 101.385 48.5935 100.797 48.831C100.213 49.0644 99.5393 49.1811 98.7746 49.1811ZM104.709 49V39.7273H107.202V41.3452H107.299C107.468 40.7696 107.752 40.335 108.15 40.0412C108.548 39.7434 109.007 39.5945 109.526 39.5945C109.655 39.5945 109.794 39.6025 109.943 39.6186C110.092 39.6347 110.223 39.6568 110.335 39.685V41.967C110.215 41.9308 110.048 41.8986 109.834 41.8704C109.621 41.8422 109.426 41.8281 109.249 41.8281C108.87 41.8281 108.532 41.9106 108.234 42.0756C107.941 42.2366 107.707 42.462 107.534 42.7518C107.365 43.0415 107.281 43.3756 107.281 43.7539V49H104.709ZM114.237 43.6392V49H111.665V39.7273H114.116V41.3633H114.225C114.43 40.824 114.774 40.3974 115.257 40.0835C115.74 39.7655 116.325 39.6065 117.014 39.6065C117.658 39.6065 118.219 39.7474 118.698 40.0291C119.177 40.3108 119.549 40.7133 119.815 41.2365C120.08 41.7557 120.213 42.3755 120.213 43.0959V49H117.642V43.5547C117.646 42.9872 117.501 42.5445 117.207 42.2266C116.913 41.9046 116.509 41.7436 115.993 41.7436C115.647 41.7436 115.341 41.8181 115.076 41.967C114.814 42.1159 114.609 42.3332 114.46 42.619C114.315 42.9007 114.241 43.2408 114.237 43.6392ZM126.466 49.1811C125.512 49.1811 124.691 48.9879 124.003 48.6016C123.319 48.2112 122.792 47.6598 122.421 46.9474C122.051 46.2311 121.866 45.3839 121.866 44.4059C121.866 43.4521 122.051 42.6149 122.421 41.8945C122.792 41.1741 123.313 40.6127 123.985 40.2102C124.661 39.8078 125.454 39.6065 126.363 39.6065C126.975 39.6065 127.545 39.7051 128.072 39.9023C128.603 40.0955 129.066 40.3873 129.46 40.7777C129.859 41.1681 130.169 41.6591 130.39 42.2507C130.611 42.8383 130.722 43.5265 130.722 44.3153V45.0217H122.892V43.4279H128.301C128.301 43.0576 128.221 42.7296 128.06 42.4439C127.899 42.1581 127.675 41.9348 127.39 41.7738C127.108 41.6088 126.78 41.5263 126.406 41.5263C126.015 41.5263 125.669 41.6168 125.367 41.7979C125.069 41.975 124.836 42.2145 124.667 42.5163C124.498 42.8142 124.411 43.1462 124.407 43.5124V45.0277C124.407 45.4865 124.492 45.8829 124.661 46.217C124.834 46.551 125.078 46.8086 125.391 46.9897C125.705 47.1708 126.078 47.2614 126.508 47.2614C126.794 47.2614 127.056 47.2211 127.293 47.1406C127.531 47.0601 127.734 46.9394 127.903 46.7784C128.072 46.6174 128.201 46.4202 128.289 46.1868L130.668 46.3438C130.547 46.9152 130.299 47.4143 129.925 47.8409C129.555 48.2635 129.076 48.5935 128.488 48.831C127.905 49.0644 127.231 49.1811 126.466 49.1811ZM137.332 39.7273V41.6591H131.748V39.7273H137.332ZM133.016 37.5057H135.588V46.1506C135.588 46.388 135.624 46.5732 135.696 46.706C135.769 46.8348 135.87 46.9253 135.998 46.9776C136.131 47.0299 136.284 47.0561 136.457 47.0561C136.578 47.0561 136.699 47.046 136.819 47.0259C136.94 47.0018 137.033 46.9837 137.097 46.9716L137.502 48.8853C137.373 48.9255 137.192 48.9718 136.958 49.0241C136.725 49.0805 136.441 49.1147 136.107 49.1268C135.487 49.1509 134.944 49.0684 134.477 48.8793C134.014 48.6901 133.654 48.3963 133.396 47.9979C133.139 47.5994 133.012 47.0964 133.016 46.4886V37.5057ZM143.134 49.1811C142.18 49.1811 141.359 48.9879 140.671 48.6016C139.987 48.2112 139.459 47.6598 139.089 46.9474C138.719 46.2311 138.534 45.3839 138.534 44.4059C138.534 43.4521 138.719 42.6149 139.089 41.8945C139.459 41.1741 139.981 40.6127 140.653 40.2102C141.329 39.8078 142.122 39.6065 143.031 39.6065C143.643 39.6065 144.213 39.7051 144.74 39.9023C145.271 40.0955 145.734 40.3873 146.128 40.7777C146.527 41.1681 146.837 41.6591 147.058 42.2507C147.279 42.8383 147.39 43.5265 147.39 44.3153V45.0217H139.56V43.4279H144.969C144.969 43.0576 144.889 42.7296 144.728 42.4439C144.567 42.1581 144.343 41.9348 144.058 41.7738C143.776 41.6088 143.448 41.5263 143.074 41.5263C142.683 41.5263 142.337 41.6168 142.035 41.7979C141.737 41.975 141.504 42.2145 141.335 42.5163C141.166 42.8142 141.079 43.1462 141.075 43.5124V45.0277C141.075 45.4865 141.16 45.8829 141.329 46.217C141.502 46.551 141.745 46.8086 142.059 46.9897C142.373 47.1708 142.746 47.2614 143.176 47.2614C143.462 47.2614 143.724 47.2211 143.961 47.1406C144.198 47.0601 144.402 46.9394 144.571 46.7784C144.74 46.6174 144.869 46.4202 144.957 46.1868L147.336 46.3438C147.215 46.9152 146.967 47.4143 146.593 47.8409C146.223 48.2635 145.744 48.5935 145.156 48.831C144.573 49.0644 143.899 49.1811 143.134 49.1811ZM156.783 42.3714L154.429 42.5163C154.389 42.3151 154.302 42.134 154.169 41.973C154.037 41.808 153.862 41.6772 153.644 41.5806C153.431 41.48 153.175 41.4297 152.878 41.4297C152.479 41.4297 152.143 41.5142 151.869 41.6832C151.596 41.8482 151.459 42.0696 151.459 42.3473C151.459 42.5687 151.547 42.7558 151.725 42.9087C151.902 43.0617 152.205 43.1844 152.636 43.277L154.314 43.6151C155.216 43.8002 155.888 44.098 156.331 44.5085C156.773 44.919 156.995 45.4583 156.995 46.1264C156.995 46.7341 156.816 47.2674 156.457 47.7262C156.103 48.185 155.616 48.5432 154.997 48.8008C154.381 49.0543 153.67 49.1811 152.866 49.1811C151.638 49.1811 150.66 48.9255 149.932 48.4144C149.207 47.8993 148.783 47.199 148.658 46.3136L151.187 46.1808C151.264 46.555 151.449 46.8408 151.743 47.038C152.036 47.2312 152.413 47.3278 152.872 47.3278C153.322 47.3278 153.685 47.2412 153.958 47.0682C154.236 46.8911 154.377 46.6637 154.381 46.386C154.377 46.1526 154.278 45.9614 154.085 45.8125C153.892 45.6596 153.594 45.5429 153.191 45.4624L151.586 45.1424C150.68 44.9613 150.006 44.6474 149.563 44.2006C149.125 43.7539 148.905 43.1844 148.905 42.4922C148.905 41.8965 149.066 41.3834 149.388 40.9528C149.714 40.5221 150.171 40.1901 150.759 39.9567C151.35 39.7232 152.042 39.6065 152.835 39.6065C154.006 39.6065 154.928 39.854 155.6 40.3491C156.276 40.8441 156.671 41.5182 156.783 42.3714ZM162.597 49V36.6364H170.928V38.7915H165.211V41.7376H170.499V43.8928H165.211V46.8448H170.952V49H162.597ZM175.53 43.6392V49H172.958V39.7273H175.409V41.3633H175.518C175.723 40.824 176.067 40.3974 176.55 40.0835C177.033 39.7655 177.618 39.6065 178.307 39.6065C178.951 39.6065 179.512 39.7474 179.991 40.0291C180.47 40.3108 180.842 40.7133 181.108 41.2365C181.373 41.7557 181.506 42.3755 181.506 43.0959V49H178.934V43.5547C178.939 42.9872 178.794 42.5445 178.5 42.2266C178.206 41.9046 177.802 41.7436 177.286 41.7436C176.94 41.7436 176.634 41.8181 176.369 41.967C176.107 42.1159 175.902 42.3332 175.753 42.619C175.608 42.9007 175.534 43.2408 175.53 43.6392ZM187.711 52.6705C186.878 52.6705 186.163 52.5558 185.568 52.3263C184.976 52.101 184.505 51.7931 184.155 51.4027C183.805 51.0123 183.577 50.5736 183.473 50.0866L185.851 49.7667C185.924 49.9518 186.038 50.1249 186.195 50.2859C186.352 50.4469 186.56 50.5756 186.817 50.6722C187.079 50.7728 187.397 50.8232 187.771 50.8232C188.33 50.8232 188.791 50.6863 189.153 50.4126C189.52 50.143 189.703 49.6902 189.703 49.0543V47.358H189.594C189.482 47.6155 189.312 47.859 189.087 48.0884C188.862 48.3178 188.572 48.505 188.218 48.6499C187.864 48.7947 187.441 48.8672 186.95 48.8672C186.254 48.8672 185.62 48.7062 185.048 48.3842C184.481 48.0582 184.028 47.5612 183.69 46.8931C183.356 46.221 183.189 45.3718 183.189 44.3455C183.189 43.2951 183.36 42.4177 183.702 41.7134C184.044 41.0091 184.499 40.4819 185.066 40.1317C185.638 39.7816 186.264 39.6065 186.944 39.6065C187.463 39.6065 187.898 39.6951 188.248 39.8722C188.598 40.0452 188.88 40.2625 189.093 40.5241C189.31 40.7817 189.477 41.0353 189.594 41.2848H189.691V39.7273H192.244V49.0906C192.244 49.8794 192.051 50.5394 191.665 51.0707C191.278 51.6019 190.743 52.0004 190.059 52.266C189.379 52.5356 188.596 52.6705 187.711 52.6705ZM187.765 46.9354C188.18 46.9354 188.53 46.8327 188.815 46.6275C189.105 46.4182 189.327 46.1204 189.479 45.734C189.636 45.3436 189.715 44.8768 189.715 44.3335C189.715 43.7901 189.638 43.3192 189.486 42.9208C189.333 42.5183 189.111 42.2064 188.821 41.9851C188.532 41.7637 188.18 41.6531 187.765 41.6531C187.342 41.6531 186.986 41.7678 186.696 41.9972C186.407 42.2225 186.187 42.5365 186.038 42.9389C185.89 43.3414 185.815 43.8062 185.815 44.3335C185.815 44.8687 185.89 45.3316 186.038 45.7219C186.191 46.1083 186.411 46.4081 186.696 46.6214C186.986 46.8307 187.342 46.9354 187.765 46.9354ZM194.291 49V39.7273H196.863V49H194.291ZM195.583 38.532C195.2 38.532 194.872 38.4052 194.599 38.1516C194.329 37.8941 194.194 37.5862 194.194 37.228C194.194 36.8738 194.329 36.57 194.599 36.3164C194.872 36.0588 195.2 35.93 195.583 35.93C195.965 35.93 196.291 36.0588 196.561 36.3164C196.834 36.57 196.971 36.8738 196.971 37.228C196.971 37.5862 196.834 37.8941 196.561 38.1516C196.291 38.4052 195.965 38.532 195.583 38.532ZM201.494 43.6392V49H198.923V39.7273H201.374V41.3633H201.482C201.688 40.824 202.032 40.3974 202.515 40.0835C202.998 39.7655 203.583 39.6065 204.271 39.6065C204.915 39.6065 205.477 39.7474 205.956 40.0291C206.435 40.3108 206.807 40.7133 207.073 41.2365C207.338 41.7557 207.471 42.3755 207.471 43.0959V49H204.899V43.5547C204.903 42.9872 204.758 42.5445 204.465 42.2266C204.171 41.9046 203.766 41.7436 203.251 41.7436C202.905 41.7436 202.599 41.8181 202.334 41.967C202.072 42.1159 201.867 42.3332 201.718 42.619C201.573 42.9007 201.499 43.2408 201.494 43.6392ZM213.724 49.1811C212.77 49.1811 211.949 48.9879 211.261 48.6016C210.577 48.2112 210.049 47.6598 209.679 46.9474C209.309 46.2311 209.124 45.3839 209.124 44.4059C209.124 43.4521 209.309 42.6149 209.679 41.8945C210.049 41.1741 210.571 40.6127 211.243 40.2102C211.919 39.8078 212.712 39.6065 213.621 39.6065C214.233 39.6065 214.802 39.7051 215.33 39.9023C215.861 40.0955 216.324 40.3873 216.718 40.7777C217.117 41.1681 217.426 41.6591 217.648 42.2507C217.869 42.8383 217.98 43.5265 217.98 44.3153V45.0217H210.15V43.4279H215.559C215.559 43.0576 215.479 42.7296 215.318 42.4439C215.157 42.1581 214.933 41.9348 214.647 41.7738C214.366 41.6088 214.038 41.5263 213.663 41.5263C213.273 41.5263 212.927 41.6168 212.625 41.7979C212.327 41.975 212.094 42.2145 211.925 42.5163C211.756 42.8142 211.669 43.1462 211.665 43.5124V45.0277C211.665 45.4865 211.75 45.8829 211.919 46.217C212.092 46.551 212.335 46.8086 212.649 46.9897C212.963 47.1708 213.335 47.2614 213.766 47.2614C214.052 47.2614 214.313 47.2211 214.551 47.1406C214.788 47.0601 214.992 46.9394 215.161 46.7784C215.33 46.6174 215.458 46.4202 215.547 46.1868L217.926 46.3438C217.805 46.9152 217.557 47.4143 217.183 47.8409C216.813 48.2635 216.334 48.5935 215.746 48.831C215.163 49.0644 214.488 49.1811 213.724 49.1811Z" fill="#6C7993"/>
</svg>
