<svg width="62" height="64" viewBox="0 0 62 64" fill="none" xmlns="http://www.w3.org/2000/svg">
<g clip-path="url(#clip0_5204_15626)">
<path fill-rule="evenodd" clip-rule="evenodd" d="M0.746186 34.8261L13.4611 57.1744H13.4616C14.4565 58.9226 16.2952 60 18.2851 60H43.7149C45.7053 60 47.544 58.9231 48.5389 57.1744L61.2538 34.8261C62.2487 33.0774 62.2487 30.9231 61.2538 29.1744L48.5389 6.8261C47.5435 5.07736 45.7048 4 43.7149 4H18.2851C16.2947 4 14.456 5.07736 13.4611 6.8261L0.746186 29.1744C-0.248729 30.9231 -0.248729 33.0774 0.746186 34.8261ZM31.6555 17.414L43.1236 24.1327C43.5281 24.3696 43.7771 24.8076 43.7771 25.2814V38.7184C43.7771 39.1922 43.5281 39.6301 43.1236 39.867L31.6555 46.5857C31.251 46.8226 30.7526 46.8226 30.3481 46.5857L18.88 39.867C18.4755 39.6301 18.2266 39.1922 18.2266 38.7184V25.2814C18.2266 24.8076 18.4755 24.3696 18.88 24.1327L30.3481 17.414C30.7526 17.1771 31.251 17.1771 31.6555 17.414ZM37.5494 35.0887L41.5504 37.4326V25.8215L31.6405 20.016V24.7039L36.91 27.7909L31.0016 31.2511L25.0931 27.7909L30.3632 24.7039V20.016L20.4533 25.8215V37.4326L24.4542 35.0887V28.914L30.3627 32.3741V39.2993L25.0926 36.2122L21.0917 38.5562L31.0016 44.3617L40.9115 38.5562L36.9105 36.2122L31.6409 39.2993V32.3741L37.5494 28.914V35.0887Z" fill="#6C7993"/>
</g>
<defs>
<clipPath id="clip0_5204_15626">
<rect width="62" height="64" fill="white"/>
</clipPath>
</defs>
</svg>
