<svg width="210" height="64" viewBox="0 0 210 64" fill="none" xmlns="http://www.w3.org/2000/svg">
<g clip-path="url(#clip0_2690_7999)">
<path d="M26.2781 24.3012L27.6007 24.3246L31.1938 20.6834L31.3673 19.1404C28.5117 16.5664 24.7543 15 20.642 15C13.1967 15 6.91211 20.1339 5.05078 27.0884C5.44386 26.8107 6.28204 27.0181 6.28204 27.0181L13.4638 25.8208C13.4638 25.8208 13.8337 25.1998 14.0187 25.2385C15.5603 23.5295 17.6872 22.4809 19.9656 22.3067C22.244 22.1325 24.5021 22.8459 26.2792 24.3012H26.2781Z" fill="#141A1F"/>
<path d="M36.256 27.1017C35.4304 24.0236 33.7365 21.2565 31.3818 19.1396L26.2927 24.297C27.3371 25.1476 28.1799 26.2248 28.7592 27.4493C29.3384 28.6737 29.6393 30.0143 29.6396 31.3722V32.2825C32.116 32.2825 34.1253 34.3245 34.1253 36.8282C34.1253 39.3319 32.1102 41.374 29.6396 41.374H20.6659L19.7676 42.2878V47.745L20.6659 48.6507H29.6396C32.7301 48.6423 35.6915 47.3939 37.8761 45.1786C40.0607 42.9632 41.2905 39.9613 41.2966 36.8294C41.292 32.8038 39.2896 29.2375 36.2444 27.1017H36.256Z" fill="#141A1F"/>
<path d="M11.6718 48.6581H20.6432V41.3802H11.6718C11.0347 41.3805 10.4051 41.2418 9.82553 40.9736L8.53069 41.3755L4.93751 45.0168L4.62305 46.2469C6.64468 47.8199 9.12419 48.6688 11.673 48.6604L11.6718 48.6581Z" fill="#141A1F"/>
<path d="M11.6698 25.0068C8.57624 25.0118 5.61084 26.2593 3.4234 28.4761C1.23595 30.6928 0.0048919 33.6979 5.6787e-10 36.8328C-1.77812e-05 38.6583 0.417561 40.4589 1.21994 42.0933C2.02232 43.7276 3.18765 45.1513 4.62443 46.2523L9.82691 40.9802C9.03887 40.6209 8.37001 40.0386 7.90075 39.3032C7.43149 38.5679 7.18182 37.7109 7.18174 36.8351C7.18174 34.3256 9.19683 32.2894 11.6674 32.2894C12.5313 32.2909 13.3764 32.5445 14.1017 33.0199C14.8271 33.4953 15.402 34.1723 15.7577 34.97L20.9602 29.6979C18.8261 26.8509 15.4572 25.0115 11.6651 25.0115L11.6698 25.0068Z" fill="#141A1F"/>
<path d="M66.6563 42.7529C63.7279 42.7529 61.2139 41.7024 59.095 39.6013C56.9761 37.5002 55.918 34.9733 55.918 32.0261C55.918 29.079 56.9747 26.5521 59.095 24.451C61.2153 22.3499 63.7321 21.298 66.6563 21.298C67.9978 21.2782 69.3297 21.5293 70.5745 22.0367C71.8194 22.5442 72.9521 23.2977 73.9069 24.2535L71.8667 26.3224C70.4706 24.9534 68.5968 24.2006 66.655 24.2283C64.5415 24.2283 62.7458 24.9847 61.2733 26.5073C60.557 27.2286 59.9922 28.0896 59.6131 29.0384C59.2339 29.9872 59.0483 31.004 59.0674 32.0275C59.0674 34.1931 59.7995 36.0294 61.2733 37.5464C61.966 38.2833 62.8019 38.8664 63.7283 39.2587C64.6546 39.651 65.6512 39.844 66.655 39.8254C68.807 39.8254 70.5848 39.125 72.0007 37.6767C72.8294 36.8363 73.382 35.5756 73.5754 33.9858H66.6605V31.0554H76.3905C76.4941 31.5765 76.5286 32.176 76.5286 32.8764C76.5286 35.7563 75.6957 38.0395 74.0243 39.733C72.1291 41.743 69.6731 42.7445 66.6411 42.7445L66.6563 42.7529ZM89.2685 40.7919C87.9424 42.1086 86.3263 42.7529 84.4173 42.7529C82.5083 42.7529 80.8894 42.0946 79.5661 40.7919C78.2428 39.4892 77.5798 37.8322 77.5798 35.8613C77.5798 33.8905 78.2428 32.2475 79.5661 30.9308C80.8894 29.6141 82.5083 28.9698 84.4173 28.9698C86.3263 28.9698 87.9452 29.6281 89.2685 30.9308C90.5918 32.2335 91.2548 33.8947 91.2548 35.8613C91.2548 37.828 90.5918 39.4752 89.2685 40.7919ZM81.7072 38.8589C82.0518 39.2387 82.4712 39.5408 82.9383 39.7456C83.4055 39.9505 83.9098 40.0536 84.4187 40.0481C85.4685 40.0481 86.3719 39.6531 87.1302 38.8575C87.8886 38.0619 88.2657 37.0646 88.2657 35.8599C88.2657 34.6413 87.8927 33.6356 87.1427 32.8484C86.3926 32.0612 85.4878 31.6718 84.4187 31.6718C83.9088 31.6638 83.4029 31.7644 82.9337 31.9671C82.4645 32.1698 82.0424 32.47 81.6947 32.8484C80.9447 33.6328 80.5717 34.6357 80.5717 35.8599C80.5717 37.0618 80.9488 38.0633 81.7072 38.8575V38.8589ZM104.185 40.7919C102.859 42.1086 101.243 42.7529 99.3342 42.7529C97.4252 42.7529 95.8063 42.0946 94.483 40.7919C93.1597 39.4892 92.4967 37.8322 92.4967 35.8613C92.4967 33.8905 93.1597 32.2475 94.483 30.9308C95.8063 29.6141 97.4252 28.9698 99.3342 28.9698C101.243 28.9698 102.862 29.6281 104.185 30.9308C105.509 32.2335 106.172 33.8947 106.172 35.8613C106.172 37.828 105.509 39.4752 104.185 40.7919ZM96.624 38.8589C96.9686 39.2387 97.3881 39.5408 97.8552 39.7456C98.3223 39.9505 98.8267 40.0536 99.3356 40.0481C100.385 40.0481 101.289 39.6531 102.047 38.8575C102.805 38.0619 103.183 37.0646 103.183 35.8599C103.183 34.6413 102.81 33.6356 102.06 32.8484C101.309 32.0612 100.405 31.6718 99.3356 31.6718C98.8256 31.6638 98.3197 31.7644 97.8505 31.9671C97.3813 32.1698 96.9593 32.47 96.6116 32.8484C95.8615 33.6328 95.4886 34.6357 95.4886 35.8599C95.4886 37.0618 95.8657 38.0633 96.624 38.8575V38.8589ZM113.991 48.9722C112.479 48.9722 111.205 48.5604 110.173 47.7395C109.142 46.9187 108.403 45.969 107.955 44.8848L110.563 43.7881C110.836 44.452 111.254 45.0277 111.852 45.5166C112.45 46.0054 113.15 46.2478 113.995 46.2478C115.131 46.2478 116.023 45.8976 116.666 45.2014C117.308 44.5052 117.632 43.4981 117.632 42.1898V41.2093H117.529C116.7 42.2557 115.489 42.781 113.943 42.781C112.205 42.781 110.683 42.1086 109.375 40.7667C108.74 40.1324 108.238 39.3737 107.901 38.5366C107.564 37.6996 107.398 36.8018 107.414 35.8978C107.398 34.9881 107.563 34.0845 107.9 33.2413C108.237 32.3981 108.739 31.6327 109.375 30.991C110.68 29.6421 112.207 28.9642 113.943 28.9642C114.717 28.9642 115.418 29.1112 116.045 29.4096C116.672 29.7079 117.168 30.0735 117.529 30.5064H117.632V29.3942H120.472V41.8004C120.472 44.2097 119.867 46.0082 118.652 47.2073C117.436 48.3979 115.887 49.0002 113.993 49.0002L113.991 48.9722ZM114.199 40.0467C114.691 40.0555 115.179 39.9534 115.628 39.7478C116.077 39.5422 116.475 39.2381 116.794 38.8575C117.49 38.0633 117.838 37.0744 117.838 35.8852C117.838 34.6833 117.49 33.6776 116.794 32.8736C116.477 32.4899 116.079 32.183 115.63 31.975C115.181 31.7671 114.692 31.6635 114.199 31.6718C113.149 31.6718 112.254 32.0752 111.516 32.8736C110.778 33.672 110.405 34.6777 110.405 35.8852C110.405 37.0702 110.774 38.0633 111.516 38.8575C112.258 39.6517 113.15 40.0481 114.199 40.0481V40.0467ZM125.528 22.0263V42.3369H122.535V22.0263H125.528ZM133.733 42.7515C131.805 42.7515 130.197 42.0876 128.907 40.7625C127.617 39.4374 126.97 37.7986 126.97 35.8431C126.97 33.8205 127.592 32.1592 128.841 30.8705C129.426 30.2454 130.134 29.7504 130.918 29.4167C131.702 29.083 132.546 28.9179 133.396 28.9319C134.221 28.9319 134.989 29.0832 135.693 29.39C136.348 29.6621 136.944 30.0619 137.448 30.5666C137.867 30.9903 138.24 31.4595 138.558 31.9659C138.821 32.3987 139.046 32.8543 139.229 33.3274L139.54 34.1118L130.432 37.9386C131.122 39.3338 132.228 40.0327 133.736 40.0327C135.112 40.0327 136.232 39.3982 137.09 38.1235L139.41 39.6951C138.892 40.4796 138.163 41.1869 137.217 41.8144C136.271 42.442 135.106 42.7529 133.73 42.7529L133.733 42.7515ZM129.94 35.6358L136.018 33.0725C135.844 32.6355 135.529 32.2825 135.051 32.0135C134.57 31.7405 134.027 31.6014 133.476 31.6101C132.598 31.6101 131.777 31.9743 131.013 32.7069C130.249 33.4395 129.881 34.4186 129.915 35.6372L129.94 35.6358ZM155.26 42.7515C152.538 42.7515 150.259 41.8186 148.419 39.9501C146.579 38.0815 145.657 35.7549 145.657 32.9632C145.657 30.1716 146.577 27.8422 148.419 25.9764C150.262 24.1106 152.54 23.1749 155.26 23.1749C158.046 23.1749 160.31 24.1975 162.046 26.2355L160.395 27.8604C159.152 26.272 157.426 25.4791 155.257 25.4791C153.24 25.4791 151.547 26.1683 150.146 27.548C148.745 28.9277 148.068 30.7305 148.068 32.9632C148.068 35.196 148.759 37.0029 150.146 38.3841C151.533 39.7652 153.23 40.4529 155.257 40.4529C157.475 40.4529 159.369 39.5453 160.92 37.7327L162.571 39.4066C161.706 40.4532 160.62 41.2895 159.394 41.8537C158.093 42.4604 156.676 42.7675 155.244 42.7529L155.26 42.7515ZM167.078 42.3369H164.702V23.5994H167.078V42.3369ZM170.95 31.047C172.172 29.7486 173.713 29.0958 175.622 29.0958C177.531 29.0958 179.071 29.7472 180.293 31.047C181.516 32.3469 182.126 33.9886 182.126 35.9286C182.126 37.8686 181.518 39.5102 180.293 40.8101C179.068 42.11 177.531 42.7613 175.622 42.7613C173.713 42.7613 172.172 42.11 170.95 40.8101C169.728 39.5102 169.117 37.8686 169.117 35.9286C169.117 33.9886 169.725 32.3469 170.95 31.047ZM172.718 39.2875C173.547 40.1322 174.506 40.5566 175.619 40.5566C176.732 40.5566 177.691 40.1322 178.52 39.2875C179.348 38.4429 179.746 37.3195 179.746 35.9258C179.746 34.5321 179.336 33.4073 178.52 32.564C177.703 31.7208 176.732 31.295 175.619 31.295C174.506 31.295 173.547 31.7194 172.718 32.564C171.889 33.4087 171.491 34.5321 171.491 35.9258C171.491 37.3195 171.902 38.4443 172.718 39.2875ZM195.261 42.3369H192.989V40.558H192.885C192.526 41.1673 191.974 41.6884 191.235 42.0988C190.496 42.5092 189.715 42.7431 188.886 42.7431C187.302 42.7431 186.104 42.2557 185.288 41.2766C184.472 40.2975 184.061 38.9892 184.061 37.3503V29.4978H186.437V36.9553C186.437 39.3478 187.477 40.5412 189.559 40.5412C190.025 40.5512 190.486 40.4471 190.904 40.2379C191.322 40.0287 191.684 39.7205 191.96 39.3394C192.574 38.5497 192.902 37.57 192.888 36.5645V29.4978H195.264V42.3243L195.261 42.3369ZM203.312 42.7529C201.677 42.7529 200.264 42.0974 199.079 40.7891C197.894 39.4808 197.3 37.8588 197.3 35.9202C197.3 33.9816 197.894 32.3595 199.079 31.0512C200.264 29.743 201.679 29.0874 203.312 29.0874C204.273 29.0874 205.14 29.2975 205.908 29.7135C206.676 30.1296 207.248 30.6548 207.625 31.2852H207.729L207.625 29.5062V23.5952H210.001V42.3369H207.729V40.558H207.625C207.248 41.1841 206.676 41.7094 205.908 42.1296C205.142 42.5414 204.274 42.7515 203.312 42.7515V42.7529ZM203.698 40.5538C204.234 40.5612 204.766 40.453 205.258 40.2364C205.749 40.0198 206.19 39.6997 206.551 39.2973C207.334 38.4611 207.725 37.3335 207.725 35.9356C207.725 34.5377 207.335 33.3961 206.551 32.5738C206.19 32.1715 205.749 31.8514 205.258 31.6348C204.766 31.4182 204.234 31.31 203.698 31.3174C202.596 31.3174 201.65 31.7418 200.858 32.5864C200.067 33.4311 199.673 34.5545 199.673 35.9482C199.673 37.3419 200.067 38.4667 200.858 39.3099C201.216 39.7137 201.654 40.0357 202.144 40.2545C202.633 40.4733 203.163 40.5839 203.698 40.579V40.5538Z" fill="#141A1F"/>
</g>
<defs>
<clipPath id="clip0_2690_7999">
<rect width="210" height="64" fill="white"/>
</clipPath>
</defs>
</svg>
