<svg xmlns="http://www.w3.org/2000/svg" fill="none" viewBox="0 0 94 29"><path fill="#6C7993" fill-rule="evenodd" d="M13.513.073c-.094.035-.363.066-.598.068-.25.002-.427.024-.427.052 0 .027-.137.048-.313.048-.214 0-.337.023-.387.072-.044.044-.163.073-.296.073-.123 0-.223.021-.223.048 0 .026-.086.048-.192.048-.105 0-.224.033-.265.072-.04.04-.151.073-.247.073s-.174.018-.174.042c0 .023-.088.055-.195.072C10.088.758 10 .794 10 .82c0 .026-.077.047-.171.047-.094 0-.171.022-.171.049 0 .026-.053.048-.119.048a.312.312 0 0 0-.191.072.324.324 0 0 1-.199.072c-.069 0-.125.021-.125.047s-.055.061-.122.078-.122.05-.122.073c0 .024-.075.043-.166.043-.102 0-.176.028-.193.072-.016.04-.073.073-.127.073-.055 0-.1.016-.1.036 0 .02-.1.079-.22.13-.12.053-.219.113-.219.133 0 .021-.043.038-.097.038-.054 0-.098.032-.098.072 0 .045-.046.072-.122.072-.067 0-.122.02-.122.043 0 .024-.055.057-.122.073-.067.017-.122.052-.122.078 0 .026-.032.047-.073.047-.04 0-.073.02-.073.043 0 .024-.055.057-.122.073-.067.017-.122.052-.122.078 0 .026-.023.047-.052.047-.029 0-.083.027-.12.06-.162.143-.217.18-.265.18-.028 0-.05.022-.05.048 0 .026-.056.061-.123.078-.067.016-.122.05-.122.073 0 .023-.033.043-.073.043-.04 0-.073.023-.073.051 0 .067-.124.19-.192.19-.028 0-.052.02-.052.045 0 .024-.048.06-.107.078-.126.04-.234.137-.234.21a.053.053 0 0 1-.054.052c-.03 0-.183.13-.34.29-.158.158-.31.288-.337.288a.049.049 0 0 0-.05.048c0 .026-.186.231-.415.456-.228.226-.414.432-.414.459 0 .027-.033.049-.073.049-.04 0-.074.023-.074.051 0 .029-.027.082-.06.12-.145.158-.183.213-.183.26 0 .028-.033.05-.074.05a.073.073 0 0 0-.073.073c0 .04-.022.072-.049.072-.026 0-.048.033-.048.075 0 .04-.055.124-.122.186-.067.061-.122.136-.122.166s-.02.055-.046.055c-.025 0-.06.047-.079.105a.77.77 0 0 1-.15.228c-.063.068-.116.15-.116.184 0 .033-.02.06-.043.06-.024 0-.057.055-.074.121-.017.066-.052.12-.079.12-.026 0-.047.033-.047.073 0 .04-.02.072-.044.072-.024 0-.057.054-.074.12-.017.067-.052.121-.079.121-.026 0-.047.054-.047.12 0 .067-.02.12-.044.12-.024 0-.057.055-.074.121-.017.066-.052.12-.078.12-.027 0-.048.053-.048.116s-.033.128-.073.143c-.04.015-.074.072-.074.126 0 .053-.022.097-.048.097-.027 0-.05.052-.05.116 0 .063-.032.127-.072.143-.04.015-.074.082-.074.15 0 .066-.022.121-.048.121-.027 0-.05.076-.05.169 0 .118-.021.169-.072.169-.05 0-.073.048-.073.144 0 .08-.022.145-.05.145-.026 0-.048.066-.048.147 0 .082-.033.181-.073.22a.344.344 0 0 0-.073.214c0 .078-.022.141-.05.141-.026 0-.048.072-.048.16a.489.489 0 0 1-.072.252c-.039.052-.072.197-.073.323 0 .126-.02.229-.044.229-.023 0-.057.13-.075.289-.019.159-.054.289-.08.289-.025 0-.046.162-.046.36 0 .2-.019.362-.042.362-.023 0-.057.298-.076.663-.02.364-.055.67-.08.678-.075.026-.052.153.027.153.04 0 .073.021.073.048 0 .03.422.048 1.168.048.972 0 1.179.012 1.24.072.04.04.097.072.125.072.03 0 .053.078.053.173 0 .126-.038.21-.143.313l-.142.14H1.293c-.935 0-1.167.014-1.223.07-.08.079-.09.156-.024.18.025.008.06.314.08.678.019.364.053.662.076.662s.042.161.042.358c0 .226.02.364.056.375.03.01.066.142.08.293.012.152.041.275.065.275.023 0 .043.096.043.213 0 .126.03.244.073.286.04.04.073.15.073.244 0 .095.022.172.049.172.027 0 .049.067.049.148 0 .082.033.18.073.22.04.04.073.136.073.214 0 .077.022.14.049.14.027 0 .048.054.048.118s.033.15.074.19c.04.039.073.127.073.195s.022.124.049.124c.026 0 .048.053.048.117s.033.15.074.19c.04.04.073.117.073.171 0 .055.02.1.043.1.024 0 .058.054.074.12.017.067.053.121.079.121.026 0 .048.052.048.115 0 .064.033.128.073.143.04.016.073.072.073.126 0 .054.02.098.044.098.023 0 .056.049.07.11.016.06.073.156.128.214.055.058.1.15.1.204 0 .055.032.098.073.098.045 0 .073.046.073.12 0 .067.022.12.049.12.026 0 .048.033.048.073 0 .04.033.072.074.072.041 0 .073.044.073.1 0 .107.105.238.191.238.03 0 .053.054.053.12s.022.12.048.12c.027 0 .05.033.05.073 0 .04.032.072.072.072.04 0 .074.023.074.052 0 .028.027.081.06.118.145.16.184.214.184.262 0 .027.032.05.073.05.04 0 .073.023.073.052 0 .029.077.126.17.216.095.09.171.186.171.213 0 .027.11.158.244.29.134.131.244.261.244.288 0 .027.024.049.052.049.068 0 .192.122.192.189 0 .028.024.051.054.051s.16.109.292.241c.132.133.256.241.276.241.02 0 .097.054.17.12.072.067.154.121.182.121.028 0 .05.023.05.052 0 .066.125.189.192.189.029 0 .053.02.053.045 0 .025.048.06.107.079.126.039.234.136.234.21 0 .028.033.051.073.051.04 0 .073.02.073.043 0 .024.055.057.122.074.067.016.122.051.122.077 0 .026.033.047.073.047.04 0 .074.021.074.047s.054.061.122.078c.067.017.122.05.122.073 0 .024.023.043.052.043.029 0 .083.027.12.06.173.153.22.18.308.18.052 0 .107.034.123.073.015.04.072.072.127.072.054 0 .099.022.099.049 0 .026.033.048.073.048.04 0 .073.021.073.047s.055.06.122.078c.067.016.122.05.122.073 0 .023.046.043.101.043.056 0 .134.032.174.072.04.04.116.072.168.072.051 0 .094.022.094.048 0 .027.04.048.088.048.049 0 .13.032.183.071a.411.411 0 0 0 .204.072c.06.001.11.024.11.05 0 .027.046.048.101.048.056 0 .134.033.174.073.04.04.128.072.196.072.067 0 .154.032.195.072.04.04.126.072.191.072.066 0 .119.022.119.049 0 .026.086.048.19.048.106 0 .2.024.21.053.01.029.121.064.248.078.126.014.23.045.23.068 0 .023.086.042.192.042.105 0 .224.032.264.072.048.047.169.072.345.072.15 0 .272.022.272.048 0 .027.144.05.33.05.192.001.38.03.45.07.09.05.304.07.791.071l.668.002.015-1.196c.013-1.06.024-1.205.1-1.28.123-.121.392-.153.488-.058.043.043.102.077.13.077.03 0 .053.054.053.12 0 .067.022.121.049.121.03 0 .048.402.048 1.108V29h.677c.542 0 .69-.014.738-.072.045-.053.163-.073.445-.073.224 0 .384-.02.384-.048 0-.026.106-.048.235-.048.13 0 .276-.031.33-.07a.625.625 0 0 1 .301-.073c.114 0 .208-.02.208-.043 0-.023.092-.054.206-.07.113-.014.214-.05.224-.078.009-.028.092-.051.183-.051.092 0 .167-.02.167-.042 0-.023.088-.056.195-.073.108-.017.195-.052.195-.079 0-.026.077-.047.171-.047.094 0 .17-.02.17-.044 0-.025.067-.06.147-.076.08-.018.147-.052.147-.077 0-.024.076-.044.17-.044.12 0 .171-.022.171-.072 0-.045.046-.073.122-.073.067 0 .122-.021.122-.048 0-.026.055-.048.122-.048.076 0 .122-.027.122-.072s.046-.072.122-.072c.067 0 .122-.022.122-.049 0-.026.055-.048.122-.048.076 0 .122-.027.122-.072s.046-.072.122-.072c.067 0 .122-.02.122-.043 0-.024.055-.057.122-.073.067-.017.122-.052.122-.078 0-.026.032-.047.073-.047.04 0 .073-.02.073-.043 0-.024.055-.057.122-.073.067-.017.122-.052.122-.078 0-.026.047-.047.104-.047.057 0 .155-.054.217-.12.062-.067.137-.12.167-.12s.104-.055.166-.121c.062-.066.138-.12.169-.12.03 0 .055-.02.055-.046 0-.024.048-.06.107-.078a.862.862 0 0 0 .262-.196c.085-.09.174-.162.198-.162.024 0 .103-.055.175-.12.073-.067.155-.121.183-.121.028 0 .05-.033.05-.072 0-.04.024-.073.053-.073.067 0 .192-.122.192-.189 0-.028.023-.052.052-.052.067 0 .191-.122.191-.189 0-.028.024-.052.053-.052.067 0 .435-.365.435-.431 0-.028.033-.05.073-.05.04 0 .074-.023.074-.052 0-.067.124-.19.191-.19a.052.052 0 0 0 .053-.05c0-.067.124-.19.191-.19.029 0 .052-.032.052-.072 0-.04.021-.072.046-.072.025 0 .06-.048.08-.106a.852.852 0 0 1 .198-.258c.09-.085.164-.178.164-.208s.022-.055.048-.055c.027 0 .06-.05.076-.11a.438.438 0 0 1 .148-.2c.065-.049.119-.129.119-.178 0-.05.021-.09.048-.09s.05-.032.05-.072c0-.04.032-.072.072-.072.043 0 .073-.044.073-.103 0-.057.055-.153.122-.215.067-.061.122-.146.122-.19 0-.042.028-.107.061-.144.146-.161.183-.214.183-.265 0-.03.028-.084.061-.12.156-.172.183-.218.183-.31 0-.054.02-.098.045-.098.025 0 .06-.066.077-.145.018-.08.052-.145.077-.145s.045-.052.045-.117c0-.064.033-.149.073-.189a.279.279 0 0 0 .073-.172c0-.055.022-.1.05-.1.026 0 .048-.051.048-.115 0-.063.033-.128.073-.143.046-.017.073-.09.073-.198 0-.093.022-.17.05-.17.026 0 .048-.052.048-.117 0-.064.033-.15.073-.189.04-.04.073-.15.073-.244 0-.095.022-.172.05-.172.026 0 .048-.053.048-.117 0-.065.033-.15.073-.19.044-.043.073-.16.073-.292 0-.121.02-.22.043-.22.023 0 .053-.113.067-.251.013-.138.049-.26.08-.27.032-.01.054-.139.054-.322 0-.168.022-.313.05-.322.027-.009.063-.227.08-.485.017-.259.05-.47.073-.47.023 0 .041-.217.041-.482v-.481h-1.244c-1.073 0-1.244-.01-1.244-.073 0-.04-.02-.072-.043-.072-.06 0-.099-.232-.069-.414.033-.198.086-.206 1.402-.216.662-.004 1.053-.026 1.11-.061.074-.046.088-.122.088-.477 0-.232-.019-.421-.042-.421-.023 0-.053-.21-.067-.468-.015-.284-.046-.475-.08-.486-.033-.01-.055-.14-.055-.327 0-.17-.02-.31-.046-.31s-.061-.13-.08-.288c-.018-.16-.05-.29-.07-.29-.021 0-.05-.091-.064-.204-.035-.282-.144-.662-.19-.662-.02 0-.038-.087-.038-.193 0-.14-.02-.193-.073-.193-.051 0-.073-.05-.073-.168 0-.093-.022-.169-.049-.169-.027 0-.05-.049-.05-.108-.001-.06-.034-.15-.073-.202a.396.396 0 0 1-.072-.205c0-.061-.022-.111-.049-.111-.027 0-.049-.054-.049-.12 0-.076-.027-.121-.073-.121-.045 0-.073-.046-.073-.12 0-.067-.022-.12-.049-.12-.027 0-.048-.055-.048-.121 0-.075-.028-.12-.074-.12-.045 0-.073-.046-.073-.121 0-.066-.02-.12-.043-.12-.024 0-.058-.055-.074-.121-.017-.066-.052-.12-.079-.12-.026 0-.048-.055-.048-.12 0-.067-.022-.121-.049-.121-.026 0-.048-.033-.048-.073a.073.073 0 0 0-.073-.072c-.046 0-.074-.045-.074-.12 0-.067-.021-.12-.047-.12-.027 0-.062-.055-.079-.121s-.05-.12-.074-.12c-.024 0-.044-.033-.044-.073 0-.04-.02-.072-.045-.072-.025 0-.061-.049-.08-.109a.616.616 0 0 0-.15-.214c-.063-.058-.115-.14-.115-.18 0-.042-.022-.075-.049-.075-.026 0-.048-.033-.048-.072a.073.073 0 0 0-.073-.073c-.04 0-.074-.023-.074-.051 0-.029-.027-.082-.06-.12-.136-.148-.184-.212-.184-.243 0-.017-.076-.104-.17-.191-.094-.087-.171-.182-.171-.21 0-.029-.033-.052-.073-.052-.04 0-.073-.027-.073-.06 0-.034-.055-.12-.122-.191-.067-.072-.122-.153-.122-.18a.051.051 0 0 0-.053-.05c-.067 0-.191-.123-.191-.19a.052.052 0 0 0-.052-.051c-.068 0-.192-.123-.192-.19a.052.052 0 0 0-.053-.051c-.029 0-.14-.087-.246-.193-.106-.106-.215-.193-.243-.193-.066 0-.19-.123-.19-.189 0-.028-.025-.051-.055-.051s-.125-.074-.21-.163a.862.862 0 0 0-.262-.196c-.06-.018-.107-.054-.107-.078 0-.025-.025-.045-.055-.045-.031 0-.107-.054-.169-.12-.062-.067-.137-.121-.166-.121-.03 0-.105-.054-.167-.12-.062-.067-.16-.12-.217-.12-.06-.001-.104-.032-.104-.073a.073.073 0 0 0-.073-.072c-.04 0-.074-.022-.074-.049 0-.026-.044-.048-.099-.048-.054 0-.111-.032-.127-.072-.015-.04-.07-.072-.12-.072-.051 0-.093-.017-.093-.037 0-.037-.144-.124-.305-.184-.046-.017-.085-.05-.085-.074 0-.023-.053-.043-.117-.043s-.129-.032-.145-.072c-.015-.04-.07-.072-.123-.072-.052 0-.102-.016-.11-.036-.028-.06-.335-.205-.436-.205-.051 0-.093-.022-.093-.048 0-.027-.045-.048-.1-.048-.054 0-.111-.033-.127-.073-.017-.044-.091-.072-.193-.072-.091 0-.166-.02-.166-.044 0-.025-.066-.059-.146-.076-.08-.018-.146-.052-.146-.076 0-.025-.077-.045-.171-.045-.094 0-.171-.021-.171-.047s-.088-.062-.195-.079c-.107-.017-.195-.05-.195-.072 0-.024-.085-.042-.19-.042-.108 0-.214-.031-.25-.073-.034-.041-.14-.072-.25-.072-.103 0-.188-.022-.188-.048 0-.027-.108-.048-.24-.048-.15 0-.27-.028-.314-.073-.052-.05-.177-.072-.418-.072-.198 0-.345-.02-.345-.048s-.152-.048-.359-.048c-.197 0-.465-.032-.597-.072-.318-.095-.8-.098-.8-.004 0 .037-.028.08-.062.096-.049.022-.049.034 0 .056.078.036.09 1.995.012 1.995-.026 0-.048.053-.048.117 0 .128-.115.269-.22.269a.106.106 0 0 0-.09.06c-.017.043-.036.045-.065.006a.351.351 0 0 0-.15-.087c-.06-.019-.11-.054-.11-.079s-.032-.045-.073-.045c-.063 0-.073-.169-.073-1.228V0l-.33.004a1.859 1.859 0 0 0-.5.069Zm25.318 5.25c-.034.042-.14.073-.25.073-.103 0-.189.021-.189.048 0 .026-.064.048-.142.048a.354.354 0 0 0-.216.072.286.286 0 0 1-.175.072c-.055 0-.1.02-.1.043 0 .024-.056.057-.123.074-.067.016-.122.051-.122.077 0 .026-.033.047-.073.047-.04 0-.073.02-.073.045 0 .025-.049.06-.108.079a.9.9 0 0 0-.267.196c-.088.09-.177.162-.197.162-.06 0-.404.327-.404.384 0 .028-.074.122-.164.209a.89.89 0 0 0-.198.264c-.019.058-.055.106-.08.106s-.046.033-.046.073c0 .04-.019.072-.043.072-.024 0-.057.054-.074.12-.017.067-.052.12-.078.12-.027 0-.048.055-.048.121s-.022.12-.049.12c-.026 0-.062.087-.079.193-.017.106-.05.193-.074.193-.023 0-.042.1-.042.22 0 .132-.03.25-.074.293-.107.106-.107 10.429 0 10.615a.73.73 0 0 1 .072.301c0 .1.024.18.05.18.027 0 .05.077.05.17 0 .108.026.181.072.198.04.016.074.08.074.144 0 .063.022.115.048.115.027 0 .05.044.05.098 0 .053.032.11.072.125.04.015.073.072.073.126 0 .053.055.148.122.21.068.06.122.132.122.158 0 .097.919.969 1.02.969.059 0 .102.031.102.072 0 .04.033.072.074.072.04 0 .073.022.073.049 0 .026.044.048.099.048.054 0 .112.032.127.072.015.04.08.072.145.072.064 0 .117.022.117.048 0 .027.045.049.1.049.056 0 .135.032.175.072.04.04.148.072.24.072s.168.019.168.041c0 .023.137.056.304.073.168.017.313.053.322.08.021.063 3.455.064 3.494.001.016-.025.16-.06.32-.079.16-.017.292-.05.292-.074 0-.023.087-.042.195-.042.14 0 .195-.02.195-.072 0-.05.051-.072.17-.072.095 0 .171-.02.171-.043 0-.024.05-.056.111-.07a.608.608 0 0 0 .218-.126.376.376 0 0 1 .206-.099c.056 0 .1-.031.1-.072 0-.04.032-.072.073-.072.04 0 .073-.022.073-.048 0-.027.031-.048.07-.048.065 0 .662-.547.662-.607 0-.015.027-.057.06-.094.145-.16.184-.214.184-.26 0-.029.032-.051.073-.051.04 0 .073-.043.073-.096 0-.053.022-.097.049-.097.027 0 .048-.043.048-.096 0-.053.022-.097.048-.097.027 0 .062-.054.079-.12s.05-.12.074-.12c.024 0 .043-.053.043-.117 0-.065.033-.15.074-.19.04-.04.073-.138.073-.22 0-.081.022-.148.049-.148.026 0 .048-.076.048-.17 0-.093.033-.248.073-.343.063-.148.074-.64.074-3.395v-3.221h-5.22v2.939h2.244v1.658c0 1.41-.011 1.67-.073 1.73a.28.28 0 0 0-.073.173c0 .055-.022.1-.05.1-.026 0-.048.054-.048.12 0 .075-.028.12-.073.12-.04 0-.073.023-.073.052 0 .067-.124.19-.192.19-.029 0-.052.032-.052.071 0 .045-.046.073-.122.073-.067 0-.122.021-.122.048 0 .026-.053.048-.119.048a.313.313 0 0 0-.191.072c-.11.109-3.08.109-3.123 0-.015-.04-.083-.072-.151-.072-.068 0-.124-.022-.124-.048 0-.027-.055-.048-.122-.048-.076 0-.122-.028-.122-.073 0-.04-.023-.072-.052-.072-.068 0-.192-.122-.192-.19a.052.052 0 0 0-.052-.05c-.081 0-.191-.13-.193-.226a.373.373 0 0 0-.073-.181c-.062-.081-.072-.76-.072-4.994 0-4.575.006-4.911.085-5.058.09-.166.144-.244.244-.355.034-.037.061-.09.061-.118 0-.029.024-.052.053-.052.028 0 .083-.027.12-.06.173-.153.22-.18.308-.18.052 0 .107-.034.123-.075.025-.065.238-.072 1.745-.06 1.32.01 1.721.028 1.737.074.011.033.064.06.118.06.1 0 .48.342.48.432 0 .027.033.05.073.05.04 0 .073.032.073.072 0 .04.022.072.049.072.027 0 .049.053.049.117 0 .065.032.15.073.19.047.047.073.166.073.344 0 .171.026.297.07.34.057.057.314.07 1.414.07.864 0 1.345-.018 1.345-.05 0-.026.033-.047.073-.047.06 0 .074-.08.074-.43 0-.28-.02-.436-.056-.448-.031-.01-.067-.142-.08-.293-.012-.15-.042-.274-.066-.274-.023 0-.042-.087-.042-.193 0-.14-.02-.193-.073-.193-.05 0-.074-.048-.074-.144 0-.08-.022-.145-.048-.145-.027 0-.05-.04-.05-.091 0-.05-.032-.104-.072-.119-.04-.015-.074-.072-.074-.126 0-.053-.021-.097-.048-.097s-.05-.033-.05-.073a.073.073 0 0 0-.072-.072c-.042 0-.073-.043-.073-.1 0-.114-.954-1.075-1.118-1.127-.056-.018-.102-.052-.102-.077 0-.024-.033-.045-.073-.045-.04 0-.073-.019-.073-.043 0-.023-.055-.056-.122-.073-.067-.016-.122-.051-.122-.077 0-.026-.075-.048-.166-.048-.102 0-.176-.027-.193-.072-.016-.04-.084-.072-.152-.072-.068 0-.123-.022-.123-.048 0-.027-.094-.05-.208-.05a.625.625 0 0 1-.302-.072c-.143-.107-4.132-.106-4.223.001Zm24.295 8.864v8.936h1.418c1.164 0 1.43-.012 1.488-.069.06-.059.07-1.311.07-8.907 0-8.014-.008-8.84-.078-8.867-.042-.016-.712-.029-1.487-.029h-1.411v8.936Zm5.464 0v8.936h3.722c2.61 0 3.738-.016 3.775-.052.029-.029.187-.065.351-.08.164-.014.298-.045.298-.067 0-.023.065-.042.143-.042a.355.355 0 0 0 .216-.072.286.286 0 0 1 .174-.072c.056 0 .102-.022.102-.049 0-.026.052-.048.116-.048.065 0 .13-.032.145-.072.016-.04.073-.072.127-.072.055 0 .1-.022.1-.048 0-.027.032-.049.073-.049.04 0 .073-.032.073-.072 0-.041.044-.072.101-.072.116 0 1.02-.878 1.02-.99 0-.039.023-.07.05-.07.026 0 .048-.032.048-.072 0-.04.033-.072.073-.072.046 0 .074-.046.074-.12 0-.067.022-.121.049-.121.026 0 .048-.033.048-.073 0-.04.033-.072.073-.072.046 0 .074-.045.074-.12 0-.066.019-.12.042-.12.024 0 .057-.087.074-.193.017-.106.053-.193.08-.193.026 0 .047-.074.047-.165 0-.09.026-.172.056-.183.035-.011.065-.203.08-.51.013-.27.043-.49.066-.49.024 0 .042-1.998.042-4.505 0-2.66-.018-4.504-.044-4.504-.024 0-.052-.22-.06-.49-.012-.337-.037-.496-.079-.51-.036-.012-.06-.104-.06-.227 0-.14-.024-.217-.074-.236-.04-.015-.073-.082-.073-.15 0-.066-.022-.121-.049-.121-.026 0-.048-.054-.048-.12 0-.067-.022-.121-.048-.121-.026 0-.062-.054-.079-.12-.016-.067-.047-.121-.069-.121-.02 0-.051-.054-.068-.12-.017-.067-.052-.12-.079-.12a.05.05 0 0 1-.048-.051c0-.028-.055-.105-.122-.171-.067-.066-.122-.14-.122-.164 0-.072-.518-.566-.629-.6-.056-.019-.102-.053-.102-.078s-.025-.045-.056-.045c-.03 0-.106-.054-.168-.12-.062-.067-.147-.12-.189-.12-.041 0-.075-.02-.075-.044 0-.023-.055-.056-.122-.073-.067-.016-.122-.051-.122-.077 0-.026-.056-.048-.126-.048a.324.324 0 0 1-.198-.072.312.312 0 0 0-.192-.072c-.065 0-.118-.022-.118-.048 0-.027-.084-.048-.186-.048a.562.562 0 0 1-.28-.071c-.082-.061-.64-.071-3.961-.072l-3.867-.002v8.936Zm17.647-8.903c-.047.012-.085.042-.085.067 0 .024-.1.045-.22.045s-.22.021-.22.048c0 .026-.065.048-.146.048-.097 0-.146.024-.146.072 0 .05-.052.072-.17.072-.095 0-.172.022-.172.049 0 .026-.033.048-.073.048a.073.073 0 0 0-.073.072c0 .04-.044.072-.1.072-.055 0-.15.054-.213.12-.062.067-.146.121-.186.121-.04 0-.114.054-.164.12-.05.067-.12.121-.154.121-.033 0-.061.023-.061.052 0 .066-.124.189-.192.189a.052.052 0 0 0-.052.051c0 .067-.124.19-.192.19-.028 0-.052.032-.052.072 0 .04-.021.072-.048.072-.026 0-.061.054-.078.12-.017.067-.05.121-.074.121-.024 0-.044.033-.044.072 0 .04-.021.073-.048.073-.026 0-.061.054-.078.12s-.05.12-.074.12c-.024 0-.044.055-.044.12 0 .076-.027.121-.073.121-.045 0-.073.046-.073.12 0 .067-.022.121-.049.121-.027 0-.049.074-.049.165 0 .09-.024.173-.055.182-.03.01-.066.131-.079.27-.013.137-.044.25-.067.25-.024 0-.043 3.081-.043 7.082v7.081h2.976V20.57h5.468l-.007 1.206c-.005.886.01 1.224.053 1.276.05.06.288.071 1.466.071h1.406l.03-.157c.016-.086.023-3.32.014-7.185-.011-5.57-.027-7.034-.076-7.05-.033-.01-.061-.099-.062-.196a.535.535 0 0 0-.073-.27.396.396 0 0 1-.072-.205c0-.061-.022-.111-.049-.111-.027 0-.049-.054-.049-.12 0-.076-.027-.121-.073-.121-.045 0-.073-.046-.073-.12 0-.067-.02-.121-.043-.121-.024 0-.058-.054-.075-.12-.016-.067-.052-.12-.078-.12-.026 0-.048-.024-.048-.052 0-.067-.124-.19-.191-.19-.03 0-.053-.054-.053-.12 0-.075-.027-.12-.073-.12-.04 0-.073-.024-.073-.052 0-.067-.124-.19-.192-.19a.052.052 0 0 1-.052-.051c0-.074-.108-.17-.234-.21-.06-.019-.108-.054-.108-.079s-.024-.045-.055-.045c-.03 0-.106-.054-.168-.12-.062-.067-.147-.12-.189-.12-.041 0-.075-.02-.075-.045 0-.024-.066-.059-.147-.076-.08-.018-.146-.052-.146-.076 0-.025-.045-.045-.101-.045a.287.287 0 0 1-.174-.072.312.312 0 0 0-.192-.072c-.065 0-.118-.022-.118-.048 0-.027-.086-.048-.192-.048-.109 0-.2-.026-.21-.06-.017-.047-.484-.062-2.09-.068-1.138-.004-2.108.003-2.155.016Zm-36.95 7.325c.012 5.967.026 7.155.084 7.347.038.125.086.229.106.229.021 0 .038.05.038.11 0 .062.032.154.072.205a.37.37 0 0 1 .073.178c0 .047.018.085.038.085s.079.087.13.193c.051.105.11.192.129.192.02 0 .05.054.066.12.017.067.052.12.078.12.027 0 .048.024.048.052 0 .067.124.19.192.19.029 0 .052.023.052.05 0 .079.503.559.625.597.059.018.107.054.107.078 0 .025.033.045.073.045.04 0 .073.017.073.037 0 .037.145.124.305.184.047.017.086.05.086.074 0 .023.053.043.118.043s.151.032.192.072c.04.04.118.072.174.072.056 0 .101.022.101.048 0 .027.071.049.159.049a.78.78 0 0 1 .298.072c.117.06.468.072 2.207.072 1.297 0 2.068-.017 2.068-.047 0-.025.11-.06.244-.078.134-.018.244-.05.244-.074 0-.023.077-.042.17-.042.12 0 .171-.022.171-.072 0-.045.046-.072.122-.072.067 0 .122-.022.122-.049 0-.026.045-.048.1-.048.055 0 .15-.054.213-.12.062-.066.16-.12.217-.12.06 0 .105-.031.105-.073 0-.04.023-.072.052-.072.067 0 .191-.123.191-.19 0-.028.055-.051.122-.051s.122-.023.122-.052c0-.028.028-.081.061-.118.145-.16.183-.214.183-.261 0-.028.033-.05.073-.05.04 0 .074-.024.074-.052 0-.067.124-.19.191-.19.029 0 .053-.044.053-.098 0-.054.044-.146.099-.204a.598.598 0 0 0 .127-.214c.015-.06.048-.11.071-.11.024 0 .044-.053.044-.117s.033-.15.073-.189c.04-.04.073-.148.073-.24 0-.093.024-.176.054-.186.03-.01.065-.12.08-.245.014-.125.044-.227.068-.227.024 0 .042-3.057.042-6.985V5.492h-2.976v6.865c0 4.544-.016 6.864-.048 6.864-.027 0-.05.044-.05.098 0 .054-.032.11-.072.125-.04.016-.073.08-.073.143 0 .064-.024.116-.053.116-.067 0-.191.122-.191.189 0 .028-.033.052-.074.052-.04 0-.073.021-.073.048 0 .026-.044.048-.099.048-.054 0-.112.033-.127.072-.018.047-.094.073-.218.073-.104 0-.19.021-.19.048 0 .03-.504.048-1.415.048-.91 0-1.414-.017-1.414-.048 0-.027-.077-.049-.171-.049-.094 0-.17-.019-.17-.043 0-.023-.056-.056-.123-.073-.067-.016-.122-.051-.122-.077 0-.026-.023-.047-.052-.047-.058 0-.338-.262-.338-.316 0-.02-.055-.085-.122-.146-.091-.084-.122-.16-.122-.307 0-.107-.022-.195-.049-.195-.032 0-.048-2.28-.048-6.744V5.492h-2.88l.016 7.117ZM21.871 7.395c.04.04.097.072.126.072.14 0-.002.695-.155.763-.02.009-.037.058-.037.11 0 .051-.033.106-.073.121-.04.015-.073.08-.073.143 0 .064-.022.115-.05.115-.026 0-.048.044-.048.098 0 .054-.033.11-.073.126-.04.015-.073.08-.073.143 0 .063-.022.115-.048.115-.026 0-.062.054-.078.12-.017.067-.05.121-.075.121-.023 0-.043.054-.043.12 0 .067-.022.12-.048.12-.026 0-.062.055-.078.121-.017.067-.05.12-.075.12-.023 0-.043.055-.043.121 0 .075-.028.12-.073.12-.046 0-.073.046-.073.121 0 .066-.022.12-.05.12-.026 0-.048.055-.048.12 0 .076-.028.121-.073.121-.046 0-.073.046-.073.12 0 .067-.02.121-.044.121-.024 0-.057.054-.074.12-.017.067-.052.121-.078.121-.027 0-.048.054-.048.12 0 .067-.02.12-.044.12-.024 0-.057.055-.074.121-.017.067-.052.12-.078.12-.027 0-.048.033-.048.073 0 .04-.022.072-.049.072-.027 0-.049.055-.049.12 0 .076-.027.121-.073.121-.045 0-.073.046-.073.12 0 .067-.02.121-.044.121-.024 0-.057.054-.074.12-.016.067-.052.12-.078.12-.026 0-.048.055-.048.121 0 .067-.02.12-.044.12-.023 0-.057.055-.074.121-.016.066-.052.12-.078.12-.026 0-.048.053-.048.116s-.033.128-.073.143c-.04.015-.073.072-.073.125 0 .054-.022.098-.049.098-.027 0-.049.052-.049.116 0 .063-.033.127-.073.143-.04.015-.073.071-.073.125 0 .054-.022.098-.049.098-.027 0-.049.04-.049.09 0 .05-.033.118-.073.15a.218.218 0 0 0-.073.147c0 .048-.017.094-.037.103-.053.023-.207.325-.207.405 0 .038-.022.069-.049.069-.027 0-.049.03-.049.066 0 .036-.032.093-.073.126a.222.222 0 0 0-.073.15c0 .05-.022.091-.049.091-.026 0-.048.044-.048.098 0 .054-.033.11-.074.126-.04.015-.073.08-.073.143 0 .063-.021.115-.048.115-.026 0-.061.054-.078.12-.017.067-.05.12-.074.12-.024 0-.044.055-.044.121 0 .075-.027.12-.073.12-.045 0-.073.046-.073.12 0 .067-.022.121-.049.121-.027 0-.049.055-.049.12 0 .076-.027.121-.073.121-.045 0-.073.046-.073.12 0 .089-.026.121-.098.121-.053 0-.097.022-.097.048 0 .027-.034.048-.075.048a.12.12 0 0 0-.103.073c-.015.04-.08.072-.145.072-.064 0-.116.021-.116.047s-.055.061-.122.078c-.067.016-.122.05-.122.073 0 .024-.055.043-.122.043s-.122.021-.122.047-.055.06-.122.078c-.067.016-.122.05-.122.073 0 .023-.044.043-.099.043-.055 0-.112.032-.127.072-.016.04-.08.072-.145.072-.064 0-.117.022-.117.048 0 .027-.055.048-.122.048-.076 0-.122.028-.122.073s-.046.072-.122.072c-.067 0-.122.02-.122.043 0 .024-.055.057-.122.073-.067.017-.121.052-.121.078 0 .026-.055.047-.123.047-.067 0-.121.02-.121.043 0 .024-.055.056-.122.073-.068.017-.122.052-.122.078 0 .026-.055.047-.122.047s-.122.02-.122.043c0 .023-.055.056-.122.073-.067.017-.122.051-.122.077 0 .026-.045.048-.1.048-.055 0-.15.054-.213.12-.062.066-.16.12-.217.12-.058 0-.104.02-.104.043 0 .024-.055.057-.122.074-.067.016-.122.051-.122.077 0 .026-.055.047-.122.047s-.122.022-.122.048c0 .026-.055.06-.122.077s-.122.05-.122.073c0 .024-.055.043-.122.043-.076 0-.122.027-.122.073 0 .044-.046.072-.122.072-.067 0-.122.021-.122.048 0 .026-.055.048-.122.048-.076 0-.122.027-.122.072s-.046.073-.122.073c-.067 0-.122.021-.122.048 0 .026-.055.048-.122.048-.076 0-.122.027-.122.072s-.046.073-.122.073c-.067 0-.122.02-.122.044 0 .024-.066.059-.146.076-.08.017-.146.052-.146.076s-.042.044-.093.044c-.05 0-.105.033-.12.073-.016.04-.084.072-.152.072-.068 0-.123.016-.123.037 0 .036-.145.123-.305.183-.047.018-.085.051-.085.075 0 .023-.055.042-.122.042s-.122.021-.122.047-.055.061-.122.078c-.067.016-.122.05-.122.073 0 .024-.055.043-.122.043-.076 0-.122.027-.122.072s-.046.072-.122.072c-.067 0-.122.022-.122.049 0 .026-.055.048-.122.048-.076 0-.122.027-.122.072s-.046.072-.122.072c-.067 0-.122.022-.122.048 0 .027-.055.049-.122.049-.076 0-.122.027-.122.072 0 .05-.052.072-.174.072-.167 0-.314-.086-.314-.184 0-.026-.033-.059-.073-.074-.04-.015-.073-.081-.073-.146 0-.066.033-.151.073-.191a.28.28 0 0 0 .073-.172c0-.055.02-.1.044-.1.024 0 .057-.054.074-.12.017-.067.052-.12.078-.12.027 0 .048-.055.048-.121s.022-.12.048-.12c.026 0 .062-.055.079-.121.016-.066.05-.12.074-.12.024 0 .043-.052.043-.116 0-.063.033-.128.073-.143.04-.015.073-.072.073-.125 0-.054.022-.098.05-.098.026 0 .048-.055.048-.12 0-.076.028-.121.073-.121.046 0 .073-.046.073-.12 0-.067.02-.121.044-.121.024 0 .057-.054.074-.12.017-.067.052-.12.078-.12.027 0 .048-.055.048-.121s.022-.12.05-.12c.026 0 .048-.033.048-.073 0-.04.021-.072.048-.072.026 0 .061-.054.078-.12.017-.067.05-.121.074-.121.024 0 .044-.052.044-.115 0-.064.033-.128.073-.143.04-.016.073-.072.073-.126 0-.054.022-.098.049-.098.027 0 .049-.055.049-.122s.033-.134.073-.15c.04-.015.073-.068.073-.118 0-.05.02-.091.045-.091.025 0 .06-.066.077-.145.018-.08.052-.145.077-.145s.045-.043.045-.096c0-.053.02-.096.045-.096.025 0 .06-.065.077-.145.018-.08.052-.144.077-.144s.045-.044.045-.098c0-.054.033-.11.073-.126.04-.015.073-.08.073-.143 0-.063.022-.115.049-.115.027 0 .049-.044.049-.098 0-.054.033-.11.073-.125.04-.016.073-.08.073-.143 0-.064.02-.116.044-.116.024 0 .057-.054.074-.12.017-.066.052-.12.078-.12.027 0 .048-.033.048-.073 0-.04.022-.072.049-.072.027 0 .049-.054.049-.12 0-.075.027-.121.073-.121.045 0 .073-.045.073-.12 0-.067.022-.12.049-.12.027 0 .049-.045.049-.099 0-.054.033-.11.073-.125.04-.016.073-.08.073-.143 0-.064.021-.116.048-.116.026 0 .061-.054.078-.12s.05-.12.074-.12c.024 0 .044-.055.044-.12 0-.067.021-.121.048-.121.026 0 .061-.055.078-.12.017-.067.05-.121.074-.121.024 0 .044-.054.044-.12 0-.075.027-.121.073-.121.045 0 .073-.045.073-.12 0-.067.022-.12.049-.12.027 0 .049-.055.049-.121 0-.075.027-.12.073-.12.045 0 .073-.046.073-.121 0-.066.02-.12.043-.12.024 0 .058-.055.075-.121.016-.066.052-.12.078-.12.026 0 .048-.055.048-.12 0-.067.022-.121.049-.121.027 0 .049-.033.049-.073 0-.044.046-.072.122-.072.066 0 .121-.021.121-.047s.055-.06.122-.078c.068-.016.122-.05.122-.073 0-.023.053-.043.117-.043s.13-.032.145-.072c.015-.04.073-.072.127-.072.055 0 .1-.022.1-.048 0-.027.052-.049.116-.049s.13-.032.145-.072c.015-.04.072-.072.127-.072.054 0 .099-.022.099-.048 0-.027.041-.048.092-.048.05 0 .118-.033.152-.073.033-.04.09-.072.128-.072.037 0 .067-.022.067-.048 0-.027.031-.048.07-.048.08 0 .386-.153.41-.205.009-.02.059-.036.111-.036.052 0 .108-.033.123-.072.016-.04.08-.073.145-.073.064 0 .117-.021.117-.048 0-.026.044-.048.099-.048.054 0 .112-.033.127-.072.015-.04.08-.072.145-.072.064 0 .117-.022.117-.048 0-.026.054-.06.121-.077.068-.017.123-.05.123-.073 0-.024.054-.043.121-.043.068 0 .122-.022.122-.048 0-.026.055-.06.122-.077s.122-.05.122-.073c0-.024.055-.043.122-.043.076 0 .122-.028.122-.072 0-.045.046-.073.122-.073.067 0 .122-.021.122-.048 0-.026.055-.048.122-.048.076 0 .122-.027.122-.072s.046-.073.122-.073c.067 0 .122-.019.122-.043 0-.023.055-.056.122-.073.067-.016.122-.051.122-.077 0-.026.055-.047.122-.047s.122-.022.122-.049c0-.026.033-.048.073-.048.04 0 .073-.032.073-.072 0-.045.046-.072.122-.072.067 0 .122-.022.122-.049 0-.026.055-.048.122-.048.076 0 .122-.027.122-.072s.046-.072.122-.072c.067 0 .122-.02.122-.045 0-.024.066-.058.146-.076.08-.017.147-.051.147-.076 0-.024.043-.044.097-.044.054 0 .098-.02.098-.044 0-.025.066-.06.146-.077.08-.017.146-.051.146-.076 0-.024.042-.044.093-.044.05 0 .105-.032.12-.072.016-.04.084-.072.152-.072.068 0 .123-.022.123-.049 0-.026.045-.048.1-.048.054 0 .111-.032.127-.072.015-.04.08-.072.144-.072.065 0 .117-.02.117-.043 0-.024.055-.057.122-.073.067-.017.122-.052.122-.078 0-.026.055-.047.122-.047s.122-.02.122-.043c0-.024.055-.057.122-.073.067-.017.122-.052.122-.078 0-.026.033-.047.073-.047.04 0 .073-.02.073-.045 0-.043.137-.076.375-.092a.266.266 0 0 1 .18.065Zm54.133.842c0 .026.06.062.133.08a.57.57 0 0 1 .194.085c.159.14.209.173.256.173.028 0 .05.023.05.052 0 .066.125.189.192.189.03 0 .053.052.053.116s.027.126.06.137c.049.016.062 1.073.062 5.07 0 3.997-.013 5.054-.061 5.07-.034.011-.061.063-.061.116 0 .103-.107.233-.192.233a.052.052 0 0 0-.052.052c0 .067-.124.19-.192.19-.029 0-.052.032-.052.071 0 .04-.033.073-.073.073-.04 0-.073.021-.073.048 0 .026-.054.048-.119.048a.313.313 0 0 0-.192.072c-.062.062-.377.073-2.223.073h-2.15V8.19h2.22c1.419 0 2.22.017 2.22.047Zm14 0c0 .026.055.06.123.077.067.017.121.047.121.068 0 .021.055.052.122.068.068.017.122.052.122.078 0 .026.033.047.074.047.04 0 .073.023.073.05 0 .047.038.102.183.261a.28.28 0 0 1 .06.163c0 .053.028.105.062.116.048.016.06.905.06 4.231v4.211l-2.72.013-2.719.012v-4.167c0-2.746.017-4.167.049-4.167.027 0 .049-.055.049-.12 0-.067.021-.121.048-.121.026 0 .061-.055.078-.12.017-.067.05-.121.074-.121.024 0 .044-.033.044-.072 0-.04.023-.073.052-.073.028 0 .124-.076.213-.168.088-.093.198-.169.244-.169a.264.264 0 0 0 .156-.072c.062-.062.325-.072 1.753-.072 1.065 0 1.68.017 1.68.047Zm-75.729 5.035a.286.286 0 0 1-.174.072c-.056 0-.101.022-.101.048 0 .027-.033.048-.073.048-.04 0-.074.025-.074.055s-.054.105-.122.166c-.067.062-.122.146-.122.187 0 .04-.02.074-.044.074-.025 0-.06.065-.078.145-.017.08-.052.144-.076.144-.079 0-.054.577.028.657.04.04.073.125.073.19 0 .064.022.117.049.117.027 0 .048.032.048.072 0 .04.02.072.046.072.025 0 .059.042.076.094a.226.226 0 0 0 .134.126.78.78 0 0 1 .228.147.46.46 0 0 0 .26.115c.074 0 .135.021.135.048s.13.048.292.048c.163 0 .293-.021.293-.048s.066-.048.146-.048c.098 0 .147-.024.147-.072 0-.041.043-.073.1-.073.109 0 .241-.104.241-.189 0-.028.033-.052.073-.052.04 0 .073-.032.073-.072 0-.04.022-.072.05-.072.026 0 .048-.044.048-.098 0-.054.033-.11.073-.126.058-.022.073-.125.073-.504 0-.262-.02-.476-.043-.476-.024 0-.057-.055-.074-.12-.017-.067-.052-.121-.079-.121-.026 0-.047-.024-.047-.052 0-.067-.125-.19-.192-.19-.029 0-.052-.032-.052-.071a.073.073 0 0 0-.074-.073c-.04 0-.073-.021-.073-.048 0-.026-.044-.048-.099-.048-.054 0-.112-.032-.127-.072-.022-.057-.121-.072-.458-.072-.318 0-.45.018-.504.072Z" clip-rule="evenodd"/></svg>