<svg width="164" height="64" viewBox="0 0 164 64" fill="none" xmlns="http://www.w3.org/2000/svg">
<path d="M157.31 33.6921C158.802 33.4357 160.208 32.8184 161.404 31.8944C161.95 31.3266 162.367 30.6497 162.629 29.9088C162.891 29.1679 162.991 28.3801 162.923 27.5978C162.927 26.3097 162.57 25.0459 161.892 23.9483C161.4 23.113 160.705 22.4133 159.872 21.9126C159.039 21.4118 158.093 21.126 157.12 21.0809H156.135L153.83 21H143.4C142.767 21 142.496 21.2607 142.496 21.8989V40.0742C142.496 40.7034 142.758 40.973 143.4 40.973H146.111C146.744 40.973 147.015 40.7124 147.015 40.0742V34.0517H150.332C151.062 34.0896 151.755 34.3788 152.294 34.8697L157.554 40.1281C158.034 40.6158 158.677 40.9103 159.362 40.9551H163.402C164.035 40.9551 164.188 40.5865 163.745 40.1371L157.31 33.6921ZM156.623 29.827H146.997V25.2427H156.623C157.095 25.3004 157.529 25.5297 157.841 25.8865C158.153 26.2434 158.321 26.7024 158.313 27.1753V27.8854C158.322 28.3592 158.154 28.8195 157.842 29.1778C157.53 29.5361 157.096 29.7672 156.623 29.827Z" fill="#6C7993"/>
<path d="M138.287 36.7483H123.347V33H135.268C135.901 33 136.172 32.7393 136.172 32.1011V29.9169C136.172 29.2876 135.91 29.018 135.268 29.018H123.338V25.2787H138.287C138.92 25.2787 139.191 25.018 139.191 24.3798V21.8989C139.191 21.2697 138.929 21 138.287 21H119.65C119.017 21 118.746 21.2607 118.746 21.8989V40.0921C118.746 40.7213 119.008 40.991 119.65 40.991H138.287C138.92 40.991 139.191 40.7303 139.191 40.0921V37.6382C139.191 37.009 138.893 36.7483 138.287 36.7483Z" fill="#6C7993"/>
<path d="M115.445 27.5618C115.464 26.2898 115.109 25.04 114.423 23.9663C113.927 23.1103 113.225 22.3908 112.379 21.8728C111.533 21.3549 110.571 21.0549 109.579 21H95.8765C95.2348 21 94.9727 21.2607 94.9727 21.8989V40.0742C94.9727 40.7034 95.2348 40.973 95.8765 40.973H98.823C99.4557 40.973 99.7268 40.7213 99.7268 40.0742V25.2517H107.663C109.353 25.2517 110.998 26.3663 110.998 28.0472V40.0921C110.998 40.7213 111.26 40.991 111.902 40.991H114.568C115.21 40.991 115.472 40.7303 115.472 40.0921L115.445 27.5618Z" fill="#6C7993"/>
<path d="M90.8101 36.6315H77.9304L90.8372 25.3506C91.0962 25.1534 91.3105 24.9043 91.4662 24.6193C91.6219 24.3343 91.7156 24.02 91.741 23.6966V21.8989C91.741 21.2697 91.4699 21 90.8372 21H72.1548C71.5222 21 71.251 21.2607 71.251 21.8989V24.3888C71.251 25.018 71.5131 25.2876 72.1548 25.2876H84.1307L72.1187 36.4966C71.8618 36.6957 71.6489 36.9453 71.4934 37.2299C71.3379 37.5145 71.243 37.8279 71.2148 38.1506V40.1011C71.2148 40.7303 71.477 41 72.1187 41H90.783C91.4157 41 91.6868 40.7393 91.6868 40.1011V37.5213C91.7049 36.8921 91.4428 36.6315 90.8101 36.6315Z" fill="#6C7993"/>
<path d="M67.0591 21H48.4038C47.7621 21 47.5 21.2517 47.5 21.8989V24.3798C47.5 25.009 47.7531 25.2787 48.4038 25.2787H55.4357V40.0921C55.4357 40.7213 55.6978 40.991 56.3396 40.991H59.3222C59.9549 40.991 60.2261 40.7303 60.2261 40.0921V25.2697H67.0681C67.7008 25.2697 67.972 25.009 67.972 24.3708V21.8989C67.9539 21.2876 67.6918 21 67.0591 21Z" fill="#6C7993"/>
<path d="M43.3017 36.7483H28.3884V33H40.31C40.9427 33 41.2139 32.7393 41.2139 32.1011V29.9169C41.2139 29.2876 40.9608 29.018 40.31 29.018H28.3884V25.2787H43.3017C43.9344 25.2787 44.2056 25.018 44.2056 24.3798V21.8989C44.2056 21.2697 43.9435 21 43.3017 21H24.7007C24.068 21 23.7969 21.2607 23.7969 21.8989V40.0921C23.7969 40.7213 24.059 40.991 24.7007 40.991H43.3017C43.9344 40.991 44.2056 40.7303 44.2056 40.0921V37.6382C44.1965 37.009 43.9344 36.7483 43.3017 36.7483Z" fill="#6C7993"/>
<path d="M19.5501 21H16.7391C16.1064 21 15.8353 21.2607 15.8353 21.8989V28.973H4.6367V21.8989C4.6367 21.2697 4.37458 21 3.73286 21H0.90384C0.262114 21 0 21.2607 0 21.8989V40.1011C0 40.7393 0.262114 41 0.90384 41H3.73286C4.36555 41 4.6367 40.7483 4.6367 40.1011V32.9101H15.8443V40.1011C15.8443 40.7303 16.1064 41 16.7482 41H19.5591C20.1918 41 20.4629 40.7393 20.4629 40.1011V21.8989C20.4449 21.2876 20.1827 21 19.5501 21Z" fill="#6C7993"/>
</svg>
