<svg width="79" height="64" viewBox="0 0 79 64" fill="none" xmlns="http://www.w3.org/2000/svg">
<path d="M0.5 16.6995V47.3005H8.12071V16.6995H0.5ZM18.4849 16.6995L5.98691 31.2568L18.8333 47.3005H27.7604L14.7398 31.0383L27.1072 16.6995H18.4849Z" fill="#6C7993"/>
<path d="M31.0795 24.0874C31.0795 25.4863 31.3698 26.7104 31.9504 27.7596C32.5601 28.7796 33.3584 29.6393 34.3455 30.3388C35.3325 31.0091 36.4357 31.5046 37.655 31.8251C38.8744 32.1457 40.1082 32.306 41.3565 32.306C42.6049 32.306 43.8387 32.1457 45.058 31.8251C46.2773 31.5046 47.3805 31.0091 48.3676 30.3388C49.3837 29.6393 50.182 28.7796 50.7627 27.7596C51.3723 26.7104 51.6771 25.4863 51.6771 24.0874C51.6771 22.3679 51.1981 20.9107 50.2401 19.7158C49.3111 18.4918 48.0628 17.5738 46.4951 16.9617C44.9564 16.3206 43.2436 16 41.3565 16C39.4985 16 37.7857 16.3206 36.218 16.9617C34.6793 17.5738 33.431 18.4918 32.473 19.7158C31.544 20.9107 31.0795 22.3679 31.0795 24.0874ZM38.0034 24.7869C38.0034 24.1166 38.1341 23.5191 38.3953 22.9945C38.6857 22.4408 39.0921 22.0182 39.6147 21.7268C40.1372 21.4353 40.7178 21.2896 41.3565 21.2896C42.0533 21.2896 42.6484 21.4353 43.1419 21.7268C43.6645 22.0182 44.0564 22.4408 44.3177 22.9945C44.608 23.5191 44.7532 24.1166 44.7532 24.7869C44.7532 25.4863 44.608 26.0984 44.3177 26.623C44.0274 27.1475 43.621 27.5556 43.0984 27.847C42.6049 28.1384 42.0243 28.2842 41.3565 28.2842C40.7178 28.2842 40.1372 28.1384 39.6147 27.847C39.1211 27.5556 38.7292 27.1475 38.4389 26.623C38.1486 26.0984 38.0034 25.4863 38.0034 24.7869ZM29.9908 38.9945C29.9908 40.3934 30.2956 41.6466 30.9053 42.7541C31.5149 43.8616 32.3568 44.8087 33.431 45.5956C34.5051 46.3825 35.7245 46.98 37.0889 47.388C38.4534 47.796 39.8759 48 41.3565 48C42.8662 48 44.3032 47.796 45.6677 47.388C47.0321 46.98 48.2515 46.3825 49.3256 45.5956C50.3998 44.8087 51.2417 43.8616 51.8513 42.7541C52.461 41.6466 52.7658 40.3934 52.7658 38.9945C52.7658 37.3916 52.4174 36.0219 51.7207 34.8852C51.0239 33.7195 50.0949 32.7869 48.9337 32.0874C47.8015 31.3588 46.5676 30.8342 45.2322 30.5137C43.8968 30.1639 42.6049 29.9891 41.3565 29.9891C40.1082 29.9891 38.8163 30.1639 37.4809 30.5137C36.1454 30.8342 34.9116 31.3588 33.7794 32.0874C32.6471 32.7869 31.7327 33.7195 31.0359 34.8852C30.3392 36.0219 29.9908 37.3916 29.9908 38.9945ZM37.3067 37.8579C37.3067 37.1293 37.4809 36.459 37.8292 35.847C38.2066 35.235 38.7002 34.7541 39.3098 34.4044C39.9485 34.0546 40.6307 33.8798 41.3565 33.8798C42.1113 33.8798 42.7936 34.0546 43.4032 34.4044C44.0419 34.7541 44.5355 35.235 44.8838 35.847C45.2612 36.459 45.4499 37.1293 45.4499 37.8579C45.4499 38.7614 45.2612 39.5191 44.8838 40.1311C44.5355 40.7432 44.0419 41.2095 43.4032 41.5301C42.7936 41.8506 42.1113 42.0109 41.3565 42.0109C40.6307 42.0109 39.9485 41.8506 39.3098 41.5301C38.7002 41.2095 38.2066 40.7432 37.8292 40.1311C37.4809 39.5191 37.3067 38.7614 37.3067 37.8579Z" fill="#6C7993"/>
<path d="M63.1279 47.3005H78.5V41.224H63.1279V47.3005ZM63.1279 22.776H78.5V16.6995H63.1279V22.776ZM63.1279 34.1858H77.6291V28.2404H63.1279V34.1858ZM58.2507 16.6995V47.3005H65.3053V16.6995H58.2507Z" fill="#6C7993"/>
</svg>
