<svg width="146" height="64" viewBox="0 0 146 64" fill="none" xmlns="http://www.w3.org/2000/svg">
<path fill-rule="evenodd" clip-rule="evenodd" d="M29.0029 3.34696L28.9254 3.37254L28.7948 3.39822L28.7162 3.42389L28.6386 3.44947L28.56 3.47505L28.4815 3.50073L28.4294 3.5263L28.4039 3.55198L28.2988 3.57765L28.2213 3.60323L28.1692 3.62891L28.1162 3.65449L28.0641 3.68007L27.9865 3.70574L27.96 3.73132L27.8815 3.757L27.8559 3.78267L27.8294 3.80825L27.7518 3.83393L27.6998 3.8595L27.6212 3.88518L27.5427 3.91076L27.5171 3.93643L27.4386 3.96201L27.412 3.98769L27.36 4.01327L27.2824 4.03894L27.2559 4.06452L27.2039 4.0902L27.1518 4.11578L27.0998 4.14145L27.0212 4.16703L26.9691 4.1927L26.9171 4.21828L26.865 4.24396L26.7865 4.26954L26.76 4.29521L26.7079 4.32079L26.6559 4.34647L26.6038 4.37205L26.5262 4.39772L26.4997 4.4233L26.4212 4.44898L26.3691 4.47455L26.3171 4.50023L26.2385 4.52581L26.1865 4.55149L26.1609 4.57706L26.1089 4.60274L26.0568 4.62832L26.0038 4.65399L25.9518 4.67967L25.8997 4.70525L25.8221 4.73083L25.7691 4.7565L25.6915 4.78208L25.6395 4.80776L25.613 4.83343L25.5344 4.85901L25.5089 4.88469L25.4303 4.91026L25.4048 4.93584L25.3262 4.96152L25.2997 4.9871L25.2221 5.01277L25.1701 5.03845L25.118 5.06403L25.065 5.0897L24.9874 5.11528L24.9609 5.14096L24.9088 5.16654L24.8568 5.19221L24.7782 5.21779L24.7527 5.24346L24.6741 5.26904L24.6476 5.29472L24.57 5.3203L24.518 5.34597L24.4394 5.37155L24.4129 5.39723L24.3353 5.42281L24.3088 5.44848L24.2302 5.47406L24.2047 5.49974L24.1261 5.52531L24.1006 5.55099L24.0486 5.57657L23.97 5.60225L23.8914 5.62782L23.8659 5.6535L23.7874 5.67908L23.7618 5.70475L23.7088 5.73033L23.6312 5.75601L23.5792 5.78159L23.5271 5.80726L23.5006 5.83284L23.4486 5.85851L23.3445 5.88409L23.3179 5.90977L23.2394 5.93545L23.2138 5.96102L23.1353 5.9866L23.1098 6.01228L23.0312 6.03786L23.0047 6.06353L22.9271 6.08911L22.9006 6.11479L22.8485 6.14046L22.77 6.16604L22.6924 6.19162L22.6403 6.2173L22.5873 6.24287L22.5618 6.26855L22.4832 6.29422L22.4312 6.3198L22.3791 6.34548L22.3271 6.37106L22.3006 6.39673L22.2485 6.42231L22.1444 6.44799L22.1189 6.47357L22.0403 6.49924L22.0138 6.52482L21.9362 6.5505L21.9097 6.57607L21.8311 6.60175L21.7791 6.62733L21.7536 6.65301L21.7015 6.67858L21.6495 6.70426L21.5709 6.72984L21.4923 6.75551L21.4403 6.78109L21.3882 6.80677L21.3362 6.83235L21.2841 6.85802L21.2321 6.8836L21.1791 6.90927L21.1535 6.93485L21.1015 6.96053L21.0229 6.98611L20.9709 7.01178L20.8923 7.03736L20.8403 7.06304L20.8147 7.08862L20.7362 7.11429L20.6841 7.13987L20.6321 7.16555L20.58 7.19122L20.5535 7.2168L20.475 7.24238L20.4494 7.26806L20.3709 7.29363L20.2933 7.31931L20.2402 7.34489L20.1882 7.37056L20.1362 7.39624L20.0841 7.42182L20.0321 7.44749L20.0055 7.47307L19.928 7.49865L19.9014 7.52433L19.8229 7.55L19.7708 7.57558L19.7188 7.60126L19.6412 7.62683L19.5882 7.65251L19.5361 7.67809L19.4841 7.70376L19.432 7.72934L19.38 7.75502L19.3544 7.7806L19.2759 7.80627L19.2494 7.83185L19.1718 7.85753L19.0932 7.88311L19.0412 7.90878L18.9891 7.93436L18.9371 7.96003L18.9106 7.98561L18.832 8.01129L18.8065 8.03687L18.7279 8.06254L18.7024 8.08812L18.6238 8.1138L18.5973 8.13938L18.4932 8.16505L18.4412 8.19063L18.3891 8.21631L18.3371 8.24188L18.285 8.26756L18.2585 8.29314L18.1799 8.31882L18.1279 8.34439L18.0758 8.37007L18.0238 8.39565L17.9717 8.42132L17.9197 8.447L17.8411 8.47258L17.8156 8.49816L17.737 8.52383L17.685 8.54941L17.6329 8.57509L17.6064 8.60067L17.5288 8.62634L17.4758 8.65202L17.4238 8.67759L17.3717 8.70327L17.2941 8.72885L17.2411 8.75443L17.1891 8.7801L17.137 8.80578L17.085 8.83136L17.0594 8.85703L16.9809 8.88261L16.9288 8.90829L16.8768 8.93387L16.8247 8.95954L16.7717 8.98512L16.7196 9.01079L16.6421 9.03638L16.59 9.06205L16.537 9.08763L16.5115 9.1133L16.4329 9.13888L16.3808 9.16456L16.3288 9.19014L16.2767 9.21581L16.2247 9.24139L16.1727 9.26707L16.0941 9.29264L16.042 9.31832L15.99 9.3439L15.9379 9.36958L15.8859 9.39515L15.8329 9.42083L15.7808 9.44641L15.7288 9.47208L15.6767 9.49766L15.6247 9.52334L15.5982 9.54892L15.5206 9.57459L15.442 9.60017L15.39 9.62585L15.3379 9.65142L15.2859 9.6771L15.2338 9.70278L15.1818 9.72835L15.1287 9.75393L15.0767 9.77961L15.0512 9.80519L14.9726 9.83086L14.9206 9.85644L14.842 9.88212L14.7899 9.90779L14.7379 9.93337L14.6859 9.95905L14.6338 9.98463L14.5818 10.0102L14.5297 10.0359L14.4777 10.0616L14.4246 10.0871L14.3991 10.1128L14.3205 10.1384L14.2429 10.1641L14.1899 10.1896L14.1379 10.2153L14.0858 10.2409L14.0338 10.2666L13.9817 10.2922L13.9297 10.3178L13.8776 10.3434L13.8511 10.3691L13.7726 10.3947L13.747 10.4203L13.6429 10.4459L13.5909 10.4716L13.5379 10.4972L13.4858 10.5228L13.4338 10.5484L13.3817 10.5741L13.3297 10.5997L13.3031 10.6254L13.2256 10.6509L13.1735 10.6766L13.1215 10.7022L13.0429 10.7279L12.9909 10.7534L12.9388 10.7791L12.8868 10.8047L12.8337 10.8304L12.7817 10.8559L12.7296 10.8816L12.6776 10.9072L12.6255 10.9329L12.5735 10.9586L12.5214 10.9841L12.4429 11.0097L12.3908 11.0354L12.3388 11.061L12.2867 11.0866L12.2347 11.1122L12.1826 11.1379L12.1296 11.1636L12.0776 11.1891L12.0255 11.2148L11.9735 11.2404L11.9214 11.266L11.8694 11.2917L11.7908 11.3173L11.7388 11.3429L11.6602 11.3686L11.6347 11.3942L11.5826 11.4198L11.5306 11.4454L11.452 11.4711L11.4255 11.4967L11.3479 11.5224L11.3214 11.5479L11.2438 11.5736L11.1908 11.5992L11.1387 11.6249L11.0867 11.6504L11.0346 11.6761L10.9826 11.7017L10.9305 11.7274L10.8785 11.7529L10.8265 11.7786L10.7744 11.8042L10.7214 11.8299L10.6693 11.8555L10.5917 11.8811L10.5397 11.9067L10.4611 11.9324L10.4346 11.958L10.3826 11.9836L10.3305 12.0092L10.252 12.0349L10.2264 12.0605L10.1744 12.0861L10.1223 12.1117L10.0693 12.1374L9.99172 12.163L9.91316 12.1887L9.88762 12.2143L9.83557 12.2399L9.78254 12.2655L9.70497 12.2912L9.67845 12.3167L9.59989 12.3424L9.57435 12.368L9.5223 12.3937L9.47025 12.4193L9.3917 12.4449L9.33965 12.4706L9.2876 12.4962L9.23555 12.5218L9.1835 12.5474L9.13047 12.5731L9.05289 12.5987L9.02638 12.6244L8.97433 12.6499L8.92228 12.6756L8.87023 12.7012L8.79167 12.7269L8.71409 12.7524L8.68758 12.7781L8.60901 12.8037L8.58348 12.8294L8.53143 12.855L8.45287 12.8806L8.42636 12.9062L8.37431 12.9319L8.34877 12.9575L8.27021 12.9831L8.19165 13.0087L8.1396 13.0344L8.08755 13.06L8.0355 13.0857L7.95694 13.1112L7.9314 13.1369L7.87936 13.1625L7.82731 13.1882L7.77526 13.2137L7.72223 13.2394L7.67018 13.265L7.59261 13.2907L7.54056 13.3162L7.48753 13.3419L7.43548 13.3675L7.38343 13.3932L7.33139 13.4188L7.27934 13.4444L7.25282 13.47L7.22729 13.4957L7.20077 13.5214L7.12319 13.5469L7.09668 13.5725L7.04463 13.5982L6.99258 13.6238L6.96607 13.6494L6.94054 13.6751L6.91402 13.7007L6.86197 13.7264L6.83644 13.752L6.80992 13.7775L6.75787 13.8032V13.8545H6.70583L6.67931 13.8801L6.65378 13.9057L6.62727 13.9314L6.60075 13.957L6.57522 13.9826L6.52317 14.0082L6.49665 14.0339L6.47112 14.0595L6.4446 14.0852L6.41908 14.1107L6.39256 14.1364L6.36604 14.1877L6.34051 14.2132L6.314 14.2389L6.28846 14.2645L6.26195 14.2902L6.23641 14.3158L6.2099 14.367L6.18436 14.3927L6.15785 14.4183L6.13134 14.4439L6.10581 14.4695L6.07929 14.4952L6.05376 14.5464L6.02724 14.5977L6.00171 14.6233L5.97519 14.6745L5.94966 14.7258L5.92314 14.7515L5.89663 14.7771L5.87109 14.8283L5.84458 14.8795L5.81905 14.9052L5.79254 14.9565L5.767 15.0077L5.74049 15.0847L5.71495 15.1102L5.68844 15.1872L5.66192 15.2127L5.63639 15.2897L5.60987 15.3409L5.58434 15.4178L5.55782 15.4434L5.5323 15.5203L5.50578 15.5972L5.48025 15.6997L5.45373 15.8278L5.42722 15.9303L5.40168 16.0072L5.37517 16.161L5.34963 16.2123L5.32312 16.366L5.29759 16.443L5.27107 16.5455L5.24456 16.648L5.21903 16.7505L5.19251 16.853L5.16698 17.058L5.14046 17.1348L5.11493 17.263L5.08841 17.3398L5.06288 17.468L5.03637 17.5705L5.00985 17.673L4.98432 17.7756L4.9578 17.8525L4.93227 17.9806L4.90576 18.0575L4.88022 18.2625L4.85371 18.3906L4.82818 18.4675L4.80166 18.5956L4.77613 18.6726L4.74961 18.7751L4.7231 18.8776L4.69756 18.9801L4.67105 19.1083L4.64552 19.1851L4.619 19.3389L4.59347 19.467L4.56696 19.5951L4.54142 19.7233L4.51491 19.8002L4.48839 19.9027L4.46286 20.0053L4.43634 20.1078L4.41081 20.2103L4.38429 20.2871L4.35877 20.4409L4.33225 20.5178L4.30672 20.6716L4.2802 20.8509L4.25369 20.9278L4.22815 21.0303L4.20164 21.1329L4.1761 21.2098L4.14959 21.3379L4.12405 21.4404L4.09754 21.5686L4.07201 21.6454L4.0455 21.7736L4.01898 21.8761L3.99345 22.0554L3.96693 22.1836L3.9414 22.2605L3.91488 22.3374L3.88935 22.4656L3.86283 22.5424L3.8373 22.6962L3.81078 22.773L3.78427 22.9012L3.75874 22.9781L3.73223 23.1319L3.70669 23.3112L3.68018 23.3881L3.65464 23.465L3.62813 23.5932L3.60161 23.67L3.57608 23.8237L3.54956 23.8751L3.52403 24.0288L3.49751 24.1057L3.47199 24.2339L3.44547 24.3107L3.41994 24.4902L3.39342 24.5927L3.36789 24.7207L3.34137 24.7977L3.31486 24.9258L3.28932 25.0028L3.26281 25.1312L3.23728 25.2335L3.21076 25.3619L3.18523 25.4381L3.15872 25.5925L3.13318 25.6949L3.10667 25.8483L3.08015 25.9256L3.05462 26.0539L3.0281 26.1302L3.00257 26.2586L2.97605 26.3348L2.95052 26.4632L2.92401 26.5665L2.89847 26.6939L2.87196 26.7711L2.84545 26.9757L2.81991 27.053L2.7934 27.1813L2.76787 27.2576L2.74135 27.386L2.71582 27.4632L2.6893 27.5916L2.66279 27.6678L2.63725 27.8223L2.61074 27.8985L2.58521 28.0008L2.55869 28.1804L2.53316 28.3087L2.50665 28.386L2.48111 28.5134L2.4546 28.5906L2.42808 28.719L2.40255 28.7962L2.37603 28.9497L2.3505 29.0259L2.32398 29.1292L2.29846 29.2315L2.27194 29.411L2.24641 29.5134L2.21989 29.6157L2.19338 29.718L2.16784 29.8464L2.14133 29.9236L2.11579 30.052L2.08928 30.1282L2.06374 30.2305L2.03723 30.3589L2.01169 30.4361L1.98519 30.5635L1.95867 30.7431L1.93314 30.8463L1.90662 30.9738L1.88109 31.051L1.85457 31.1794L1.82904 31.2556L1.80252 31.3589L1.77699 31.4612L1.75047 31.5635L1.72396 31.6919L1.69843 31.7942L1.67192 31.9477L1.64638 32.1021L1.61987 32.1784L1.59433 32.3068L1.56782 32.384L1.54228 32.4863L1.51577 32.5886L1.48925 32.6909L1.46372 32.8193L1.4372 32.8965L1.41167 33.05L1.38516 33.2295L1.35963 33.2807L1.33311 33.4342L1.30758 33.5114L1.28106 33.5886L1.25455 33.716L1.22901 33.7932L1.2025 33.9216L1.17697 33.9979L1.15045 34.1523L1.12492 34.2546L1.09841 34.4081L1.07287 34.5616L1.04636 34.6388L1.01984 34.7411L0.99431 34.8444L0.967794 34.9206L0.94226 35.049L0.915745 35.1262L0.890211 35.2797L0.863696 35.3569L0.83718 35.4843L0.811646 35.6639L0.785138 35.7662L0.759605 35.8695L0.733089 35.9718L0.707555 36.048L0.68104 36.1764L0.655506 36.2536L0.628991 36.4071L0.602475 36.4583L0.576941 36.6127L0.550426 36.6889L0.524892 36.8685L0.498384 36.9969L0.47285 37.0731L0.446335 37.1764L0.420801 37.3038L0.394286 37.381L0.368752 37.5094L0.342237 37.5866L0.315721 37.7401L0.290187 37.8424L0.263672 38.0219V39.047L0.290187 39.2266L0.315721 39.3289L0.342237 39.4823L0.368752 39.5335L0.394286 39.6619L0.420801 39.713L0.446335 39.7903L0.47285 39.8414L0.498384 39.9186L0.524892 39.9949L0.550426 40.0721L0.576941 40.1233L0.602475 40.2005L0.628991 40.2516L0.655506 40.3028L0.68104 40.354L0.707555 40.38L0.733089 40.4312L0.759605 40.4563L0.785138 40.5074L0.811646 40.5335L0.83718 40.6107L0.863696 40.6619L0.890211 40.687L0.915745 40.7381L0.94226 40.7642L0.967794 40.8153L0.99431 40.8404L1.01984 40.8665L1.04636 40.8926L1.07287 40.9177L1.09841 40.9688L1.12492 40.9949L1.15045 41.02L1.17697 41.0711L1.2025 41.0972L1.22901 41.1233L1.25455 41.1744L1.28106 41.1995L1.30758 41.2256L1.33311 41.2507L1.35963 41.2767L1.38516 41.3018L1.41167 41.354L1.4372 41.379L1.46372 41.4302L1.48925 41.4563L1.51577 41.4814L1.54228 41.5074L1.56782 41.5325L1.59433 41.5586L1.61987 41.5837L1.64638 41.6358L1.67192 41.6609L1.69843 41.687L1.72396 41.7381L1.75047 41.7632L1.77699 41.8144L1.82904 41.8404L1.85457 41.8916L1.88109 41.9176L1.90662 41.9427L1.93314 41.9939L1.95867 42.02L1.98519 42.0451L2.01169 42.0711L2.03723 42.1223L2.06374 42.1483L2.08928 42.1734L2.11579 42.1995L2.14133 42.2507L2.16784 42.2758L2.19338 42.3018L2.21989 42.3269L2.24641 42.379H2.29846V42.4302L2.32398 42.4813L2.3505 42.5064L2.37603 42.5325L2.40255 42.5837H2.4546V42.6348L2.48111 42.6609L2.50665 42.686L2.53316 42.712L2.55869 42.7371L2.58521 42.7883L2.61074 42.8144L2.63725 42.8395L2.66279 42.8906L2.6893 42.9167L2.71582 42.9427L2.74135 42.9678L2.76787 42.9939L2.7934 43.045L2.81991 43.0701L2.84545 43.0962L2.87196 43.1474L2.89847 43.1734L2.92401 43.1985L2.95052 43.2246L2.97605 43.2497L3.00257 43.3008L3.0281 43.3269L3.05462 43.352L3.08015 43.3781L3.10667 43.4041L3.13318 43.4553L3.15872 43.4804L3.18523 43.5315L3.21076 43.5576L3.23728 43.5827L3.26281 43.6087L3.28932 43.6599H3.34137V43.7111L3.36789 43.7371L3.39342 43.7622L3.41994 43.7883L3.44547 43.8394L3.47199 43.8655L3.49751 43.9167L3.52403 43.9418L3.54956 43.9678L3.57608 43.9929L3.60161 44.0441L3.62813 44.0701L3.65464 44.0952L3.68018 44.1213H3.73223V44.1724L3.75874 44.2236L3.78427 44.2497L3.81078 44.3008L3.8373 44.3259L3.86283 44.352L3.88935 44.378L3.91488 44.4031L3.9414 44.4292L3.96693 44.4543L3.99345 44.5055L4.01898 44.5315L4.0455 44.5827L4.07201 44.6078L4.09754 44.6338L4.12405 44.6599L4.14959 44.685L4.1761 44.7361L4.20164 44.7622L4.22815 44.7873L4.25369 44.8134L4.2802 44.8385L4.30672 44.8906L4.33225 44.9157L4.35877 44.9417L4.38429 44.9929L4.41081 45.018L4.43634 45.0441L4.46286 45.0692L4.48839 45.0952L4.51491 45.1464L4.54142 45.1724L4.56696 45.1975L4.59347 45.2236L4.619 45.2747L4.64552 45.2998L4.67105 45.351L4.69756 45.3771L4.7231 45.4031L4.74961 45.4282L4.77613 45.4794H4.82818V45.5305H4.88022V45.5817L4.90576 45.6338L4.93227 45.6589L4.9578 45.685L4.98432 45.7361H5.03637V45.7873L5.06288 45.8124L5.08841 45.8384L5.11493 45.8635L5.14046 45.8896L5.16698 45.9408L5.19251 45.9668L5.21903 46.018L5.24456 46.0431L5.27107 46.0691L5.29759 46.0942L5.32312 46.1203L5.34963 46.1715L5.37517 46.1975L5.40168 46.2226L5.42722 46.2487L5.45373 46.2998L5.48025 46.3249L5.50578 46.351L5.5323 46.3771L5.55782 46.4282L5.58434 46.4533L5.60987 46.4794L5.63639 46.5045L5.66192 46.5556L5.68844 46.5817L5.71495 46.6068L5.74049 46.6328L5.767 46.6589L5.79254 46.7101L5.81905 46.7352L5.84458 46.7612L5.87109 46.8124L5.89663 46.8375L5.92314 46.8635L5.94966 46.8896L5.97519 46.9408H6.02724V46.9919L6.05376 47.017L6.07929 47.0682L6.10581 47.0942L6.13134 47.1193L6.15785 47.1454L6.18436 47.1965L6.2099 47.2226L6.23641 47.2477L6.26195 47.2738L6.28846 47.2989L6.314 47.3249L6.34051 47.3761L6.36604 47.4021L6.39256 47.4533L6.41908 47.4784L6.4446 47.5045L6.47112 47.5296L6.49665 47.5807L6.52317 47.6068L6.5487 47.6328L6.57522 47.6579L6.60075 47.684L6.62727 47.7091L6.65378 47.7602L6.67931 47.7863L6.70583 47.8375H6.75787V47.8886L6.78341 47.9147L6.80992 47.9398L6.83644 47.9658L6.86197 48.017L6.88849 48.0421L6.91402 48.0682L6.94054 48.0933L6.96607 48.1454L6.99258 48.1705L7.01812 48.2216H7.07114V48.2728L7.09668 48.2988L7.12319 48.3239L7.14872 48.35L7.17524 48.3751L7.20077 48.4272L7.22729 48.4784L7.25282 48.5035L7.27934 48.5295L7.30585 48.5546L7.33139 48.6058L7.3579 48.6319L7.38343 48.6579L7.40994 48.683H7.46199V48.7342L7.48753 48.7602L7.51404 48.8114L7.54056 48.8365L7.56609 48.8886L7.59261 48.9137L7.61814 48.9398L7.64465 48.9649L7.67018 48.9909L7.6967 49.016L7.72223 49.0672L7.74875 49.0932L7.77526 49.1183L7.8008 49.1705L7.82731 49.1956L7.85285 49.2216L7.87936 49.2467L7.9049 49.2979L7.9314 49.3239L7.95694 49.349L7.98345 49.3751L8.00899 49.4002L8.0355 49.4523L8.06202 49.4774L8.08755 49.5035L8.11407 49.5546L8.1396 49.5797L8.16612 49.6058L8.19165 49.6569H8.24467V49.7081L8.27021 49.7342L8.29672 49.7593L8.32226 49.7853L8.34877 49.8104L8.37431 49.8616L8.40082 49.9137L8.42636 49.9388L8.45287 49.9649L8.47939 49.9899L8.50492 50.016L8.53143 50.0411L8.55696 50.0923H8.60901V50.1444L8.63553 50.1695L8.66106 50.2206L8.68758 50.2467L8.71409 50.2979H8.76614V50.349L8.79167 50.3741L8.81819 50.4002L8.84372 50.4262L8.87023 50.4774L8.89577 50.5025L8.92228 50.5285L8.94781 50.5536L8.97433 50.6048L9.00084 50.6309L9.02638 50.6569L9.05289 50.682L9.07843 50.7332L9.10494 50.7592L9.13047 50.7843L9.15699 50.8104L9.1835 50.8616H9.23555V50.9127L9.26108 50.9388L9.2876 50.9899L9.31313 51.015L9.33965 51.0411L9.36518 51.0662L9.3917 51.1173L9.41821 51.1434L9.44374 51.1695L9.47025 51.1946L9.49579 51.2206L9.5223 51.2457L9.54784 51.2969L9.57435 51.3229L9.59989 51.3741L9.6264 51.3992L9.65292 51.4253L9.67845 51.4513L9.70497 51.4764L9.73049 51.5025L9.75701 51.5536L9.78254 51.5787L9.80906 51.6048L9.83557 51.6559L9.86111 51.681L9.88762 51.7071L9.91316 51.7583L9.93967 51.7843L9.96521 51.8094L9.99172 51.8355L10.0172 51.8606L10.0438 51.8866L10.0693 51.9378L10.0958 51.9639L10.1223 51.989L10.1479 52.0401L10.1744 52.0662L10.1999 52.0913L10.2264 52.1173L10.252 52.1424L10.2785 52.1946L10.304 52.2197L10.3305 52.2457L10.357 52.2708L10.3826 52.2969L10.4091 52.348L10.4346 52.3731L10.4611 52.3992L10.4867 52.4503L10.5132 52.4764L10.5397 52.5015L10.5652 52.5527L10.5917 52.5787L10.6173 52.6038L10.6438 52.6299L10.6693 52.6559L10.6958 52.7071L10.7214 52.7322L10.7479 52.7583L10.7744 52.8094L10.7999 52.8345L10.8265 52.8606L10.852 52.8857L10.8785 52.9117L10.904 52.9378L10.9305 52.9629L10.9561 52.9889L10.9826 53.0401L11.0081 53.0913L11.0346 53.1164L11.0612 53.1685L11.0867 53.1936L11.1132 53.2196H11.1653V53.2708L11.1908 53.2959L11.2173 53.322L11.2438 53.3731L11.2693 53.3982L11.2959 53.4494L11.3214 53.4754L11.3479 53.5015L11.3734 53.5266L11.4 53.5526L11.4255 53.5777L11.452 53.6289L11.4785 53.655L11.504 53.6801L11.5306 53.7061L11.5561 53.7573L11.5826 53.7833L11.6081 53.8084L11.6347 53.8345L11.6602 53.8857L11.6867 53.9117L11.7132 53.9368L11.7388 53.9629L11.7653 54.014L11.7908 54.0391L11.8173 54.0652L11.8429 54.0903L11.8694 54.1414L11.8949 54.1675L11.9214 54.2187H11.9735V54.2698L12 54.2959L12.0255 54.321L12.052 54.347L12.0776 54.3721L12.1041 54.3982L12.1296 54.4494L12.1561 54.4754L12.1826 54.5266L12.2082 54.5517L12.2347 54.5777L12.2602 54.6028L12.2867 54.654H12.3388V54.7061L12.3643 54.7312L12.3908 54.7824H12.4429V54.8335L12.4694 54.8596L12.4949 54.9107L12.5214 54.9368L12.547 54.9619L12.5735 54.988L12.599 55.0391H12.6511V55.0903L12.6776 55.1154L12.7041 55.1414L12.7296 55.1926L12.7561 55.2187L12.7817 55.2437L12.8082 55.2949H12.8602V55.3461L12.8868 55.3721L12.9123 55.3972L12.9388 55.4493L12.9643 55.4744L12.9909 55.5005L13.0164 55.5256L13.0429 55.5517L13.0684 55.6028L13.0949 55.6279L13.1215 55.654L13.147 55.7051L13.1735 55.7312L13.199 55.7563L13.2256 55.7823L13.2511 55.8074L13.2776 55.8335L13.3031 55.8847L13.3297 55.9358L13.3562 55.9609L13.3817 55.987L13.4082 56.013L13.4338 56.0381L13.4603 56.0642L13.4858 56.1154H13.5379V56.1665L13.5644 56.1926L13.5909 56.2177L13.6164 56.2688L13.6429 56.32L13.6685 56.3461L13.695 56.3711H13.747V56.4223L13.7726 56.4484L13.7991 56.4995L13.8256 56.5256L13.8511 56.5507L13.8776 56.5767L13.9032 56.6279L13.9297 56.653L13.9552 56.6791L13.9817 56.7051L14.0073 56.7563L14.0338 56.7814L14.0603 56.8074L14.0858 56.8325L14.1123 56.8586L14.1379 56.9097L14.1644 56.9358L14.1899 56.9609L14.2164 57.0121L14.2429 57.0381L14.2685 57.0632L14.295 57.1144L14.3205 57.1404L14.347 57.1655L14.3726 57.1916L14.3991 57.2177L14.4246 57.2428L14.4511 57.2688L14.4777 57.32L14.5032 57.3451L14.5297 57.3962L14.5552 57.4223L14.5818 57.4484L14.6073 57.4734L14.6338 57.4995L14.6593 57.5246L14.6859 57.5758L14.7114 57.6018L14.7379 57.6269L14.7644 57.6781L14.7899 57.7041L14.8165 57.7302L14.842 57.7814H14.894V57.8325L14.9206 57.8576L14.9471 57.8837L14.9726 57.9348H15.0247V57.986L15.0512 58.0121L15.0767 58.0632L15.1032 58.0883L15.1287 58.1144L15.1553 58.1395L15.1818 58.1906H15.2338V58.2427L15.2594 58.2678L15.2859 58.319L15.3114 58.3451L15.3379 58.3702L15.3634 58.3962L15.39 58.4474H15.442V58.4985L15.4685 58.5246L15.4941 58.5497L15.5206 58.5757L15.5461 58.6008L15.5726 58.6269L15.5982 58.652L15.6247 58.6781L15.6512 58.7041L15.6767 58.7292L15.7032 58.7553L15.7288 58.7804L15.7553 58.8064L15.7808 58.8315L15.8073 58.8576L15.8329 58.8827L15.8594 58.9088L15.9114 58.9339L15.9379 58.9599L15.9635 58.986L15.99 59.0111L16.042 59.0371L16.0676 59.0622L16.0941 59.0883L16.1206 59.1134L16.1727 59.1395L16.1982 59.1645L16.2502 59.1906L16.2767 59.2167L16.3553 59.2418L16.3808 59.2678L16.4329 59.2929L16.4594 59.319L16.5115 59.3441L16.537 59.3701L16.59 59.3952L16.6421 59.4213L16.6941 59.4474L16.7717 59.4725L16.7982 59.4985L16.8768 59.5236L16.9543 59.5497L17.0064 59.5748L17.0594 59.6008L17.137 59.6259L17.2156 59.652L17.2941 59.6771L17.3717 59.7031L17.5023 59.7292L17.5809 59.7543L17.737 59.7804H41.9904L42.1475 59.7543L42.2251 59.7292L42.3557 59.7031L42.4077 59.6771L42.5128 59.652L42.5648 59.6259L42.6424 59.6008L42.721 59.5748L42.773 59.5497L42.8251 59.5236L42.9292 59.4985L42.9557 59.4725L43.0343 59.4474L43.0863 59.4213L43.1384 59.3952L43.1904 59.3701L43.2169 59.3441L43.269 59.319L43.2945 59.2929L43.3466 59.2678L43.3731 59.2418L43.4516 59.2167L43.4772 59.1906L43.5292 59.1645L43.5557 59.1395L43.5813 59.1134L43.6333 59.0883L43.6598 59.0622L43.6863 59.0371L43.7384 59.0111L43.7639 58.986L43.7904 58.9599L43.816 58.9339L43.869 58.9088L43.8945 58.8827L43.9211 58.8576L43.9466 58.8315L43.9731 58.8064L43.9986 58.7804L44.0251 58.7553L44.0507 58.7292L44.0772 58.7041L44.1037 58.6781L44.1292 58.652L44.1558 58.6269L44.1813 58.6008L44.2078 58.5757L44.2333 58.5497L44.2598 58.5246L44.2854 58.4985V58.4474H44.3374L44.3639 58.3962L44.3905 58.3702L44.416 58.3451L44.4425 58.319L44.468 58.2678L44.4946 58.2427L44.5201 58.2167L44.5466 58.1906L44.5721 58.1395L44.5986 58.1144L44.6252 58.0883L44.6507 58.0632L44.6772 58.0121L44.7027 57.986V57.9348H44.7548L44.7813 57.8837L44.8068 57.8576L44.8334 57.8325V57.7814H44.8854L44.9119 57.7302L44.9374 57.7041L44.964 57.6781L44.9895 57.6269L45.016 57.6018L45.0425 57.5758L45.0681 57.5246L45.0946 57.4995L45.1201 57.4734L45.1466 57.4484L45.1722 57.4223L45.1987 57.3962L45.2242 57.3451L45.2507 57.32L45.2772 57.2688L45.3028 57.2428L45.3293 57.2177L45.3548 57.1916L45.3813 57.1655L45.4069 57.1404L45.4334 57.1144L45.4589 57.0632L45.4854 57.0381L45.5119 57.0121L45.5375 56.9609L45.564 56.9358L45.5895 56.9097L45.616 56.8586L45.6416 56.8325L45.6681 56.8074L45.6936 56.7814L45.7201 56.7563L45.7467 56.7051L45.7722 56.6791L45.7987 56.653L45.8242 56.6279L45.8507 56.5767L45.8763 56.5507L45.9028 56.5256L45.9283 56.4995L45.9548 56.4484L45.9804 56.4223V56.3711H46.0334L46.0589 56.3461L46.0855 56.32L46.111 56.2688L46.1375 56.2177L46.163 56.1926L46.1896 56.1665V56.1154H46.2416L46.2681 56.0642L46.2937 56.0381L46.3202 56.013L46.3457 55.987L46.3722 55.9609L46.3977 55.9358L46.4243 55.8847L46.4508 55.8335L46.4763 55.8074L46.5028 55.7823L46.5284 55.7563L46.5549 55.7312L46.5804 55.7051L46.6069 55.654L46.6324 55.6279L46.659 55.6028L46.6855 55.5517L46.711 55.5256L46.7375 55.5005L46.7631 55.4744L46.7896 55.4493L46.8151 55.3972L46.8416 55.3721L46.8672 55.3461V55.2949H46.9202L46.9457 55.2437L46.9722 55.2187L46.9978 55.1926L47.0243 55.1414L47.0498 55.1154L47.0763 55.0903V55.0391H47.1284L47.1549 54.988L47.1804 54.9619L47.2069 54.9368L47.2325 54.9107L47.259 54.8596L47.2845 54.8335L47.311 54.7824L47.3366 54.7573L47.3631 54.7312L47.3896 54.7061V54.654H47.4416L47.4672 54.6028L47.4937 54.5777L47.5192 54.5517L47.5457 54.5266L47.5713 54.4754L47.5978 54.4494L47.6243 54.3982L47.6498 54.3721L47.6763 54.347L47.7019 54.321L47.7284 54.2959L47.7539 54.2698L47.7804 54.2187L47.807 54.1936L47.8325 54.1675L47.859 54.1414L47.8845 54.0903L47.911 54.0652L47.9366 54.0391L47.9631 54.014L47.9886 53.9629L48.0151 53.9368L48.0417 53.9117L48.0672 53.8857L48.0937 53.8345L48.1192 53.8084L48.1458 53.7833L48.1713 53.7573L48.1978 53.7061L48.2233 53.6801L48.2499 53.655L48.2764 53.6289L48.3019 53.5777L48.3284 53.5526L48.354 53.5266L48.3805 53.5015L48.406 53.4754L48.4325 53.4494L48.458 53.3982L48.4846 53.3731L48.5111 53.322L48.5366 53.2959L48.5631 53.2447L48.6152 53.2196L48.6407 53.1936L48.6672 53.1424L48.6928 53.1164L48.7193 53.0913L48.7458 53.0401L48.7713 52.9889L48.7978 52.9629L48.8234 52.9378L48.8499 52.9117L48.8754 52.8857L48.9019 52.8606L48.9275 52.8345L48.954 52.7834L48.9795 52.7583L49.006 52.7322L49.0325 52.7071L49.0581 52.6559L49.0846 52.6299L49.1101 52.6038L49.1366 52.5787L49.1622 52.5276L49.1887 52.5015L49.2142 52.4764L49.2407 52.4503L49.2673 52.3992L49.2928 52.3731L49.3193 52.348L49.3448 52.2969L49.3713 52.2708L49.3969 52.2457L49.4234 52.2197L49.4499 52.1946L49.4754 52.1424L49.502 52.1173L49.5275 52.0913L49.554 52.0662L49.5795 52.0401L49.606 51.989V51.9378H49.6581L49.6846 51.8866L49.7101 51.8606L49.7367 51.8355L49.7622 51.8094L49.7887 51.7843L49.8142 51.7583L49.8408 51.7071L49.8663 51.681L49.8928 51.6559L49.9193 51.6048L49.9448 51.5787L49.9714 51.5276L49.9969 51.5025L50.0234 51.4764L50.0489 51.4513L50.0755 51.4253L50.101 51.3992L50.1275 51.3741L50.154 51.3229L50.1796 51.2969L50.2061 51.2457L50.2316 51.2206L50.2581 51.1946L50.2836 51.1695V51.1173H50.3357L50.3622 51.0662L50.3877 51.0411L50.4143 51.015L50.4408 50.9899L50.4663 50.9388L50.4928 50.9127V50.8616H50.5449L50.5704 50.8104L50.5969 50.7843L50.6234 50.7592L50.649 50.7332L50.6755 50.682L50.701 50.6569L50.7275 50.6309L50.7531 50.6048L50.7796 50.5536L50.8061 50.5285L50.8316 50.5025L50.8581 50.4513L50.8837 50.4262L50.9102 50.4002L50.9357 50.3741L50.9622 50.349L50.9878 50.2979L51.0143 50.2718L51.0398 50.2467L51.0663 50.2206L51.0928 50.1695L51.1184 50.1444V50.0923H51.1704L51.1969 50.0411L51.2225 50.016L51.249 49.9899L51.2755 49.9649L51.301 49.9388L51.3276 49.8876L51.3531 49.8616L51.3796 49.8104L51.4051 49.7853L51.4317 49.7593L51.4572 49.7342L51.4837 49.7081L51.5102 49.6569L51.5358 49.6309L51.5623 49.6058L51.5878 49.5797L51.6143 49.5546L51.6399 49.5035L51.6664 49.4774L51.6919 49.4523L51.7184 49.4002L51.7439 49.3751L51.7705 49.349L51.797 49.3239L51.8225 49.2979L51.849 49.2467L51.8746 49.2216L51.9011 49.1956L51.9266 49.1705L51.9531 49.1183L51.9786 49.0932L52.0052 49.0672L52.0317 49.016L52.0572 48.9909L52.0837 48.9649L52.1093 48.9398L52.1358 48.9137L52.1613 48.8886L52.1878 48.8365L52.2143 48.8114L52.2399 48.7602L52.2664 48.7342V48.683H52.3184V48.6319H52.3705L52.396 48.5807L52.4225 48.5546L52.449 48.5295L52.4746 48.4784L52.5011 48.4523L52.5266 48.4012L52.5531 48.3751L52.5787 48.35L52.6052 48.3239L52.6307 48.2988L52.6572 48.2728V48.2216H52.7093L52.7358 48.1705L52.7613 48.1454L52.7878 48.0933L52.8134 48.0682L52.8399 48.0421L52.8654 48.017L52.8919 47.9658L52.9184 47.9398L52.944 47.9147L52.9705 47.8886L52.996 47.8375L53.0225 47.8114L53.0481 47.7863L53.0746 47.7602L53.1001 47.7091L53.1266 47.684L53.1522 47.6579L53.1787 47.6328L53.2052 47.5807L53.2307 47.5556L53.2573 47.5296L53.2828 47.5045L53.3093 47.4784L53.3348 47.4533L53.3614 47.4021L53.3869 47.3761L53.4134 47.3249L53.4399 47.2989L53.4655 47.2738L53.492 47.2477L53.5175 47.2226L53.544 47.1965L53.5695 47.1454L53.5961 47.1193L53.6216 47.0942L53.6481 47.0682L53.6746 47.017L53.7002 46.9659L53.7267 46.9408L53.7522 46.9147L53.7787 46.8896L53.8043 46.8635V46.8124H53.8573L53.8828 46.7612L53.9093 46.7352L53.9349 46.7101L53.9614 46.6589L53.9869 46.6328L54.0134 46.6068V46.5556H54.0655L54.092 46.5045L54.1175 46.4794L54.144 46.4533L54.1696 46.4021L54.1961 46.3771L54.2216 46.351L54.2481 46.3249L54.2737 46.2738L54.3002 46.2487L54.3267 46.2226L54.3522 46.1975L54.3787 46.1464L54.4043 46.1203L54.4308 46.0942L54.4563 46.0691L54.4828 46.0431L54.5094 46.018L54.5349 45.9668L54.5614 45.9157L54.5869 45.8896L54.6135 45.8635L54.639 45.8384L54.6655 45.8124L54.691 45.7873V45.7361H54.7431L54.7696 45.685L54.7961 45.6589L54.8216 45.6338L54.8482 45.5817V45.5305H54.9002L54.9257 45.4794L54.9522 45.4543L54.9778 45.4282L55.0043 45.4031L55.0308 45.3771L55.0563 45.3259L55.0829 45.2998L55.1084 45.2747L55.1349 45.2236L55.1604 45.1975L55.187 45.1724L55.2135 45.1464L55.239 45.0952L55.2655 45.0692L55.291 45.0441L55.3176 45.018L55.3431 44.9929L55.3696 44.9417L55.3951 44.9157L55.4217 44.8906L55.4482 44.8385L55.4737 44.8134L55.5002 44.7873L55.5258 44.7622L55.5523 44.7361L55.5778 44.685L55.6043 44.6599L55.6298 44.6338L55.6564 44.6078L55.6829 44.5827L55.7084 44.5315L55.7349 44.5055L55.7605 44.4543L55.787 44.4292L55.8125 44.4031L55.839 44.378L55.8646 44.352L55.8911 44.3259L55.9176 44.2748L55.9431 44.2497L55.9696 44.2236L55.9952 44.1724L56.0217 44.1213L56.0737 44.0952L56.0993 44.0701L56.1258 44.019L56.1523 43.9929L56.1778 43.9678V43.9167H56.2299L56.2564 43.8655L56.2819 43.8394L56.3084 43.7883L56.334 43.7622L56.3605 43.7371L56.386 43.7111V43.6599H56.4391L56.4646 43.6087L56.4911 43.5827L56.5166 43.5315L56.5432 43.5064L56.5687 43.4804L56.5952 43.4553L56.6217 43.4041L56.6473 43.3781L56.6738 43.352L56.6993 43.3269L56.7258 43.2757L56.7513 43.2497L56.7779 43.2246L56.8034 43.1985L56.8299 43.1734L56.8564 43.1474L56.882 43.0962L56.9085 43.0701L56.934 43.019L56.9605 42.9939L56.9861 42.9678L57.0126 42.9427L57.0381 42.9167L57.0646 42.8906L57.0911 42.8395L57.1167 42.8144L57.1432 42.7883L57.1687 42.7371V42.686H57.2208V42.6348H57.2728L57.2993 42.5837L57.3258 42.5576L57.3514 42.5325L57.3779 42.5064L57.4034 42.4553L57.4299 42.4302L57.4555 42.379L57.482 42.353L57.5075 42.3269L57.534 42.3018L57.5605 42.2758L57.5861 42.2507L57.6126 42.1995L57.6381 42.1734L57.6646 42.1483L57.6902 42.0962L57.7167 42.0711L57.7422 42.0451L57.7687 42.02L57.7943 41.9688L57.8208 41.9427L57.8473 41.9176L57.8728 41.8665L57.8993 41.8404L57.9249 41.8144L57.9514 41.7893L57.9769 41.7632L58.0034 41.7381L58.0299 41.687L58.0555 41.6609L58.082 41.6097L58.1075 41.5837L58.134 41.5586L58.1596 41.5325L58.1861 41.5074L58.2126 41.4814L58.2381 41.4563L58.2646 41.4051L58.2902 41.379L58.3167 41.354V41.2767H58.3687L58.3943 41.2507L58.4208 41.2256L58.4473 41.1744L58.4728 41.1484L58.4994 41.1233L58.5249 41.0972L58.5514 41.0711L58.5769 41.02L58.6035 40.9949L58.629 40.9437L58.6555 40.9177L58.682 40.8926L58.7076 40.8404L58.7341 40.8153L58.7596 40.7893L58.7861 40.7642L58.8116 40.713L58.8382 40.687L58.8637 40.6358L58.8902 40.6107L58.9167 40.5335L58.9423 40.5074L58.9688 40.4563L58.9943 40.4051L59.0208 40.38L59.0464 40.3279L59.0729 40.3028L59.0984 40.2256L59.1249 40.2005L59.1505 40.1233L59.177 40.0721L59.2035 39.9698L59.229 39.9186L59.2555 39.8414L59.2811 39.7903L59.3076 39.713L59.3331 39.6358L59.3596 39.5335L59.3852 39.4572L59.4117 39.3289L59.4382 39.2266L59.4637 39.021V38.047L59.4382 37.8424L59.4117 37.7401L59.3852 37.5866L59.3596 37.5094L59.3331 37.381L59.3076 37.3038L59.2811 37.1764L59.2555 37.0992L59.229 36.9969L59.2035 36.8685L59.177 36.6889L59.1505 36.6127L59.1249 36.4583L59.0984 36.4071L59.0729 36.2536L59.0464 36.1764L59.0208 36.048L58.9943 35.9718L58.9688 35.8695L58.9423 35.7662L58.9167 35.6899L58.8902 35.4843L58.8637 35.3569L58.8382 35.2797L58.8116 35.1262L58.7861 35.049L58.7596 34.9206L58.7341 34.8444L58.7076 34.7411L58.682 34.6388L58.6555 34.5616L58.629 34.4341L58.6035 34.2546L58.5769 34.1523L58.5514 34.0239L58.5249 33.9216L58.4994 33.8183L58.4728 33.716L58.4473 33.6137L58.4208 33.5114L58.3943 33.4342L58.3687 33.3058L58.3422 33.2295L58.3167 33.05L58.2902 32.8965L58.2646 32.8193L58.2381 32.6909L58.2126 32.5886L58.1861 32.5114L58.1596 32.384L58.134 32.3068L58.1075 32.1784L58.082 32.1021L58.0555 31.9737L58.0299 31.7942L58.0034 31.6919L57.9769 31.5635L57.9514 31.4863L57.9249 31.384L57.8993 31.2817L57.8728 31.1794L57.8473 31.051L57.8208 30.9738L57.7943 30.8463L57.7687 30.7691L57.7422 30.5896L57.7167 30.4612L57.6902 30.3589L57.6646 30.2566L57.6381 30.1543L57.6126 30.0771L57.5861 29.9236L57.5605 29.8464L57.534 29.718L57.5075 29.6417L57.482 29.5134L57.4555 29.411L57.4299 29.2315L57.4034 29.1292L57.3779 29.0259L57.3514 28.9497L57.3258 28.7962L57.2993 28.7441L57.2728 28.5906L57.2473 28.5134L57.2208 28.386L57.1952 28.3087L57.1687 28.1804L57.1432 28.0269L57.1167 27.8985L57.0911 27.8223L57.0646 27.6939L57.0381 27.6167L57.0126 27.4883L56.9861 27.412L56.9605 27.2576L56.934 27.1813L56.9085 27.053L56.882 26.9757L56.8564 26.7972L56.8299 26.7199L56.8034 26.5665L56.7779 26.4893L56.7513 26.3609L56.7258 26.2846L56.6993 26.1562L56.6738 26.0539L56.6473 25.9256L56.6217 25.8483L56.5952 25.72L56.5687 25.5925L56.5432 25.4381L56.5166 25.3619L56.4911 25.2335L56.4646 25.1563L56.4391 25.0279L56.4125 24.9514L56.386 24.8234L56.3605 24.7207L56.334 24.5927L56.3084 24.5157L56.2819 24.3364L56.2564 24.2595L56.2299 24.1057L56.2043 24.0288L56.1778 23.9007L56.1523 23.8237L56.1258 23.6957L56.0993 23.6187L56.0737 23.4906L56.0472 23.3881L56.0217 23.3112L55.9952 23.1319L55.9696 23.0037L55.9431 22.9012L55.9176 22.773L55.8911 22.6962L55.8646 22.568L55.839 22.4911L55.8125 22.363L55.787 22.2861L55.7605 22.2092L55.7349 22.0811L55.7084 21.9017L55.6829 21.7992L55.6564 21.6454L55.6298 21.5941L55.6043 21.4404L55.5778 21.3635L55.5523 21.2354L55.5258 21.1584L55.5002 21.056L55.4737 20.9534L55.4482 20.8766L55.4217 20.6971L55.3951 20.5434L55.3696 20.4665L55.3431 20.3128L55.3176 20.2359L55.291 20.1333L55.2655 20.0308L55.239 19.9283L55.2135 19.8258L55.187 19.7489L55.1604 19.6208L55.1349 19.4926L55.1084 19.3389L55.0829 19.2108L55.0563 19.1338L55.0308 19.0057L55.0043 18.9032L54.9778 18.8006L54.9522 18.6982L54.9257 18.6213L54.9002 18.4931L54.8737 18.4163L54.8482 18.2881L54.8216 18.0831L54.7961 18.0063L54.7696 17.8781L54.7431 17.8012L54.7175 17.6987L54.691 17.5705L54.6655 17.4937L54.639 17.3655L54.6135 17.2887L54.5869 17.1605L54.5614 17.0836L54.5349 16.8786L54.5094 16.7761L54.4828 16.6735L54.4563 16.571L54.4308 16.4685L54.4043 16.3917L54.3787 16.2379L54.3522 16.161L54.3267 16.0329L54.3002 15.956L54.2737 15.8278L54.2481 15.6997L54.2216 15.6228L54.1961 15.5459L54.1696 15.469L54.144 15.4178L54.1175 15.3409L54.092 15.2897L54.0655 15.2384L54.039 15.1872L54.0134 15.1359L53.9869 15.0847L53.9614 15.0077L53.9349 14.9565L53.9093 14.9052L53.8828 14.8795L53.8573 14.8283L53.8308 14.7771L53.8043 14.7515L53.7787 14.7258L53.7522 14.6745L53.7267 14.649L53.7002 14.5977L53.6746 14.572L53.6481 14.5208L53.6216 14.4695L53.5961 14.4439L53.5695 14.4183L53.544 14.3927L53.5175 14.367L53.492 14.3158L53.4655 14.2902L53.4399 14.2645L53.4134 14.2389L53.3869 14.2132L53.3614 14.1877L53.3348 14.162L53.3093 14.1364L53.2828 14.0852H53.2307V14.0339L53.2052 14.0082L53.1522 13.9826L53.1266 13.957L53.1001 13.9314L53.0746 13.9057L53.0481 13.8801L53.0225 13.8545H52.9705V13.8032L52.9184 13.7775L52.8919 13.752L52.8654 13.7264L52.8134 13.7007L52.7878 13.6751L52.7613 13.6494L52.7358 13.6238L52.6837 13.5982L52.6307 13.5725L52.6052 13.5469L52.5266 13.5214L52.5011 13.4957L52.4746 13.47L52.449 13.4444L52.396 13.4188L52.344 13.3932L52.2919 13.3675L52.2399 13.3419L52.1878 13.3162L52.1358 13.2907L52.0572 13.265L52.0052 13.2394L51.9531 13.2137L51.9266 13.1882L51.849 13.1625L51.797 13.1369L51.7705 13.1112L51.6919 13.0857L51.6664 13.06L51.5878 13.0344L51.5358 13.0087L51.4572 12.9831L51.3796 12.9575L51.3531 12.9319L51.301 12.9062L51.2755 12.8806L51.2225 12.855L51.1449 12.8294L51.1184 12.8037L51.0398 12.7781L51.0143 12.7524L50.9357 12.7269L50.8581 12.7012L50.8061 12.6756L50.7531 12.6499L50.701 12.6244L50.6755 12.5987L50.5969 12.5731L50.5704 12.5474L50.4928 12.5218L50.4663 12.4962L50.3877 12.4706L50.3357 12.4449L50.2581 12.4193L50.2061 12.3937L50.154 12.368L50.1275 12.3424L50.0489 12.3167L50.0234 12.2912L49.9448 12.2655L49.8928 12.2399L49.8408 12.2143L49.8142 12.1887L49.7367 12.163L49.6581 12.1374L49.606 12.1117L49.554 12.0861L49.502 12.0605L49.4754 12.0349L49.3969 12.0092L49.3448 11.9836L49.2928 11.958L49.2673 11.9324L49.1887 11.9067L49.1366 11.8811L49.0581 11.8555L49.006 11.8299L48.954 11.8042L48.9275 11.7786L48.8499 11.7529L48.7978 11.7274L48.7458 11.7017L48.6928 11.6761L48.6407 11.6504L48.5887 11.6249L48.5366 11.5992L48.4846 11.5736L48.406 11.5479L48.3805 11.5224L48.3019 11.4967L48.2764 11.4711L48.1978 11.4454L48.1458 11.4198L48.0937 11.3942L48.0672 11.3686L47.9886 11.3429L47.9366 11.3173L47.8845 11.2917L47.807 11.266L47.7539 11.2404L47.7019 11.2148L47.6498 11.1891L47.5978 11.1636L47.5457 11.1379L47.4937 11.1122L47.4416 11.0866L47.3896 11.061L47.3366 11.0354L47.2845 11.0097L47.2069 10.9841L47.1549 10.9586L47.1028 10.9329L47.0498 10.9072L46.9978 10.8816L46.9457 10.8559L46.8937 10.8304L46.8416 10.8047L46.7896 10.7791L46.7375 10.7534L46.6855 10.7279L46.6069 10.7022L46.5549 10.6766L46.5028 10.6509L46.4243 10.6254L46.3977 10.5997L46.3457 10.5741L46.2937 10.5484L46.2416 10.5228L46.1896 10.4972L46.1375 10.4716L46.0855 10.4459L45.9804 10.4203L45.9548 10.3947L45.8763 10.3691L45.8507 10.3434L45.7987 10.3178L45.7467 10.2922L45.6936 10.2666L45.6416 10.2409L45.5895 10.2153L45.5375 10.1896L45.4854 10.1641L45.4069 10.1384L45.3293 10.1128L45.3028 10.0871L45.2507 10.0616L45.1987 10.0359L45.1466 10.0102L45.0946 9.98463L45.0425 9.95905L44.9895 9.93337L44.9374 9.90779L44.8854 9.88212L44.8068 9.85644L44.7548 9.83086L44.6772 9.80519L44.6507 9.77961L44.5986 9.75393L44.5466 9.72835L44.4946 9.70278L44.4425 9.6771L44.3905 9.65142L44.3374 9.62585L44.2854 9.60017L44.2078 9.57459L44.1292 9.54892L44.0772 9.52334L44.0507 9.49766L43.9986 9.47208L43.9466 9.44641L43.8945 9.42083L43.8425 9.39515L43.7904 9.36958L43.7384 9.3439L43.6863 9.31832L43.6333 9.29264L43.5292 9.26707L43.5037 9.24139L43.4516 9.21581L43.3996 9.19014L43.3466 9.16456L43.2945 9.13888L43.2169 9.1133L43.1904 9.08763L43.1384 9.06205L43.0863 9.03638L43.0078 9.01079L42.9557 8.98512L42.9037 8.95954L42.8516 8.93387L42.7996 8.90829L42.7475 8.88261L42.6689 8.85703L42.6424 8.83136L42.5904 8.80578L42.5383 8.7801L42.4598 8.75443L42.4342 8.72885L42.3301 8.70327L42.3036 8.67759L42.2516 8.65202L42.1995 8.62634L42.121 8.60067L42.0954 8.57509L42.0434 8.54941L41.9904 8.52383L41.9128 8.49816L41.8863 8.47258L41.8077 8.447L41.7557 8.42132L41.7036 8.39565L41.6516 8.37007L41.573 8.34439L41.5475 8.31882L41.4689 8.29314L41.4434 8.26756L41.3913 8.24188L41.3393 8.21631L41.2862 8.19063L41.2087 8.16505L41.1301 8.13938L41.1046 8.1138L41.026 8.08812L40.9995 8.06254L40.9219 8.03687L40.8954 8.01129L40.8168 7.98561L40.7913 7.96003L40.7127 7.93436L40.6872 7.90878L40.6086 7.88311L40.5566 7.85753L40.478 7.83185L40.4525 7.80627L40.3739 7.7806L40.3474 7.75502L40.2954 7.72934L40.2433 7.70376L40.1913 7.67809L40.1392 7.65251L40.0872 7.62683L40.0086 7.60126L39.93 7.57558L39.9045 7.55L39.826 7.52433L39.8004 7.49865L39.7219 7.47307L39.6963 7.44749L39.6178 7.42182L39.5912 7.39624L39.5392 7.37056L39.4606 7.34489L39.4351 7.31931L39.3565 7.29363L39.279 7.26806L39.2259 7.24238L39.1739 7.2168L39.1484 7.19122L39.0963 7.16555L39.0433 7.13987L38.9912 7.11429L38.9137 7.08862L38.8871 7.06304L38.8086 7.03736L38.7565 7.01178L38.6789 6.98611L38.6004 6.96053L38.5739 6.93485L38.5218 6.90927L38.4963 6.8836L38.4442 6.85802L38.3657 6.83235L38.3401 6.80677L38.2616 6.78109L38.2351 6.75551L38.1575 6.72984L38.0789 6.70426L38.0269 6.67858L37.9748 6.65301L37.9228 6.62733L37.8963 6.60175L37.8177 6.57607L37.7922 6.5505L37.7136 6.52482L37.6881 6.49924L37.6095 6.47357L37.5574 6.44799L37.4789 6.42231L37.4268 6.39673L37.3748 6.37106L37.3483 6.34548L37.2707 6.3198L37.2442 6.29422L37.1656 6.26855L37.1136 6.24287L37.0615 6.2173L37.036 6.19162L36.9574 6.16604L36.8789 6.14046L36.8268 6.11479L36.8013 6.08911L36.7227 6.06353L36.6972 6.03786L36.6186 6.01228L36.5666 5.9866L36.5145 5.96102L36.488 5.93545L36.4095 5.90977L36.3574 5.88409L36.2798 5.85851L36.2268 5.83284L36.1748 5.80726L36.1492 5.78159L36.0707 5.75601L36.0186 5.73033L35.9666 5.70475L35.94 5.67908L35.8625 5.6535L35.8104 5.62782L35.7574 5.60225L35.6798 5.57657L35.6278 5.55099L35.6012 5.52531L35.5227 5.49974L35.4971 5.47406L35.4186 5.44848L35.3665 5.42281L35.3145 5.39723L35.288 5.37155L35.2104 5.34597L35.1583 5.3203L35.0798 5.29472L35.0277 5.26904L34.9757 5.24346L34.9236 5.21779L34.8716 5.19221L34.8186 5.16654L34.7665 5.14096L34.7145 5.11528L34.6624 5.0897L34.6104 5.06403L34.5583 5.03845L34.5063 5.01277L34.4277 4.9871L34.3757 4.96152L34.3236 4.93584L34.2716 4.91026L34.2195 4.88469L34.1665 4.85901L34.1144 4.83343L34.0624 4.80776L34.0103 4.78208L33.9583 4.7565L33.9062 4.73083L33.8277 4.70525L33.7756 4.67967L33.7236 4.65399L33.6715 4.62832L33.6195 4.60274L33.5675 4.57706L33.5154 4.55149L33.4634 4.52581L33.4103 4.50023L33.3583 4.47455L33.3062 4.44898L33.2021 4.4233L33.1756 4.39772L33.098 4.37205L33.0715 4.34647L33.0195 4.32079L32.9674 4.29521L32.9154 4.26954L32.8633 4.24396L32.8113 4.21828L32.7583 4.1927L32.7062 4.16703L32.6286 4.14145L32.5501 4.11578L32.5235 4.0902L32.4715 4.06452L32.4194 4.03894L32.3674 4.01327L32.3153 3.98769L32.2633 3.96201L32.2112 3.93643L32.1592 3.91076L32.1072 3.88518L32.0021 3.8595L31.9765 3.83393L31.898 3.80825L31.8724 3.78267L31.8194 3.757L31.7674 3.73132L31.7153 3.70574L31.6633 3.68007L31.6112 3.65449L31.5592 3.62891L31.5071 3.60323L31.4021 3.57765L31.3245 3.55198L31.298 3.5263L31.2459 3.50073L31.1418 3.47505L31.0898 3.44947L30.9857 3.42389L30.9336 3.39822L30.803 3.37254L30.7245 3.34696L30.5683 3.32129H29.1601L29.0029 3.34696Z" fill="#FEFEFE"/>
<path fill-rule="evenodd" clip-rule="evenodd" d="M6.23365 18.8015L5.94679 20.2367L5.91822 20.242L4.54366 26.1009L4.17716 27.8L4.12119 27.8739C4.12119 28.1756 3.89159 28.8213 3.8362 29.1315C3.75754 29.5711 3.6394 29.9564 3.53629 30.4001C3.33959 31.2472 3.11195 32.1196 2.9455 32.9462C2.77669 33.7845 2.48973 34.656 2.35411 35.466C2.22399 36.2431 1.82617 37.2449 1.82617 38.0738V38.0995C1.82617 39.6067 2.58745 40.437 3.3064 41.258C3.66543 41.668 4.00894 42.1116 4.35118 42.5378C4.70265 42.9752 5.0666 43.3827 5.40953 43.8299C6.07888 44.7026 6.82562 45.5387 7.51618 46.3984C8.19683 47.2458 8.90478 48.1581 9.61755 48.9721C9.97854 49.3842 10.3185 49.8236 10.6624 50.2518C11.0062 50.6799 11.3843 51.0956 11.7103 51.5286C12.0315 51.9553 12.417 52.38 12.7581 52.8054C13.0752 53.2012 13.4758 53.7435 13.8163 54.0977C14.1759 54.4716 14.5077 54.9773 14.8595 55.3791C15.23 55.8021 15.5522 56.2427 15.9162 56.6729C16.3558 57.1925 16.5413 57.4029 17.1403 57.7764C17.5641 58.0406 18.3028 58.2945 18.9864 58.2945L40.6344 58.3114L41.571 58.192C41.638 58.1478 41.8629 58.0908 41.9721 58.0478C42.1484 57.9785 42.2197 57.9387 42.3711 57.8761C42.6544 57.7592 42.8435 57.6068 43.0733 57.4385C43.4045 57.1958 43.9024 56.5794 44.1529 56.2442C44.7821 55.4025 45.559 54.5986 46.1871 53.7583C46.8174 52.9152 47.5948 52.1125 48.2215 51.2725C48.8439 50.4382 49.5884 49.6064 50.2507 48.7818C51.594 47.1095 52.9748 45.4835 54.3191 43.81C54.6522 43.3953 54.9858 42.9804 55.3341 42.5778C55.6818 42.1756 55.9964 41.706 56.3513 41.322C56.6703 40.9769 57.0808 40.4615 57.3442 40.0681C57.5749 39.7234 57.8967 38.9104 57.8967 38.3558V37.7407C57.8967 37.7371 57.7645 37.2052 57.7505 37.1411C57.7056 36.9355 57.6454 36.701 57.6149 36.5311C57.5629 36.24 57.4137 35.5547 57.3228 35.3061C57.2829 35.1971 57.2194 34.8462 57.1822 34.7012C57.1302 34.4991 57.0908 34.2972 57.0323 34.1052C56.926 33.7561 56.8491 33.2429 56.7599 32.8608C56.6597 32.4315 56.5657 32.0928 56.4787 31.6508C56.4338 31.4227 56.371 31.3039 56.332 31.0516C56.3104 30.9121 56.2366 30.5831 56.1911 30.4213C56.0769 30.0152 55.6278 28.3178 55.6315 27.9733L55.5946 27.8951L55.2664 26.41L55.2314 26.3314L54.5846 23.6708C54.5846 23.3565 54.3779 22.9412 54.3501 22.5686C54.3451 22.5029 54.2438 22.1404 54.2213 22.029C54.1792 21.82 54.1194 21.6925 54.0779 21.4778C54.0223 21.1893 53.9192 20.622 53.8276 20.3911C53.731 20.148 53.6545 19.5897 53.5638 19.2921C53.4647 18.9664 53.4172 18.553 53.3167 18.2023C53.2238 17.8776 53.1283 17.4233 53.0554 17.1007C52.8424 16.1587 52.6954 15.8855 52.1805 15.244C51.7483 14.7056 51.2307 14.4363 50.5679 14.1377C50.4296 14.0755 50.2625 13.9852 50.1098 13.9215C50.0295 13.888 49.71 13.7444 49.6497 13.7072C49.3748 13.5379 49.0045 13.4276 48.7177 13.2649C48.4532 13.1149 48.0873 12.9826 47.7952 12.8388C47.4835 12.6854 47.1753 12.5354 46.8702 12.3896C46.244 12.0904 45.6214 11.797 44.9918 11.5189C44.3941 11.2549 43.7441 10.9402 43.1446 10.6432C42.5253 10.3362 41.9126 10.0768 41.2929 9.77176C40.6737 9.46703 40.0603 9.19985 39.4419 8.89985C39.1419 8.7543 38.7988 8.58712 38.5021 8.46521C38.2244 8.35112 37.8185 8.10807 37.56 8.03268C37.3924 7.98375 36.8558 7.69843 36.6415 7.60258C36.3459 7.47034 35.9968 7.31271 35.703 7.16657C35.0891 6.86117 34.4586 6.59438 33.8343 6.28637C33.2144 5.98059 32.6046 5.72064 31.9826 5.41505C31.3498 5.10395 30.7779 4.80859 29.8353 4.80859H29.7832C28.9382 4.80859 28.5348 5.08204 27.9473 5.31099C27.7258 5.39738 27.3434 5.56968 27.155 5.68571C26.9551 5.80877 26.5657 5.94091 26.3312 6.05501C25.2696 6.57112 24.2027 7.03801 23.1418 7.55943C21.028 8.59832 18.8717 9.5262 16.7609 10.5662C15.6959 11.091 14.6362 11.555 13.571 12.0704C13.0369 12.3288 12.5116 12.5656 11.975 12.8084C11.7763 12.8984 11.3687 13.128 11.1838 13.1843C11.082 13.2152 10.4679 13.5035 10.3699 13.5632C10.1808 13.6786 9.79127 13.8383 9.57571 13.9361C9.39472 14.018 8.93218 14.2683 8.78419 14.3115C8.34168 14.4406 7.73371 15.0156 7.45294 15.3355C7.13132 15.702 6.79822 16.345 6.7008 16.9285C6.66829 17.1232 6.2852 18.7258 6.23365 18.8015Z" fill="currentColor"/>
<path fill-rule="evenodd" clip-rule="evenodd" d="M28.6933 12.9067V13.3167C28.6933 13.794 28.8101 14.1813 28.8704 14.578C28.9286 14.962 28.9802 15.5312 28.9802 15.9308V16.4947C28.9802 16.8419 28.722 16.9914 28.589 17.1866C28.589 17.6568 28.6982 17.637 28.3227 17.6937C28.076 17.7311 27.8566 17.7171 27.6127 17.7648C27.3858 17.8092 27.1411 17.8243 26.9405 17.8731C26.7834 17.9115 26.4145 18.0067 26.2648 18.003L26.1897 18.058C25.8017 18.058 24.3547 18.6076 23.9954 18.7463C23.3645 18.9897 22.6242 19.3681 22.0744 19.7033C21.557 20.0188 20.7877 20.4807 20.3677 20.8708C20.1165 21.1041 19.8369 21.2895 19.5852 21.537C19.4437 21.6761 18.9606 22.1529 18.8311 22.2412L18.4178 21.9509L18.1051 21.9791H18.053C17.1424 21.9791 15.4445 19.1856 14.4019 19.1856H14.2193C13.9615 19.1856 13.6827 19.3363 13.5255 19.452C13.4103 19.5369 13.1501 19.9068 13.1501 20.0569V20.467C13.1501 20.4828 13.2662 20.7983 13.2803 20.826C13.3432 20.9501 13.3885 21.0117 13.4734 21.1232C13.5543 21.2296 13.8925 21.4832 14.0157 21.564C14.3998 21.8159 14.8609 22.055 15.2617 22.2874C15.5789 22.4714 16.1778 22.8476 16.4301 23.087C16.6617 23.3069 16.7319 23.314 16.8221 23.6756C16.9433 24.1615 17.009 23.9526 17.2185 24.2599C17.1032 24.474 16.8795 24.8267 16.7333 25.039C16.5599 25.291 16.4352 25.6139 16.28 25.875C15.9588 26.4149 15.7827 27.091 15.5056 27.6767C15.4453 27.8039 15.2405 28.5073 15.2166 28.6485C15.1565 29.003 15.0357 29.3064 14.9727 29.6903C14.8508 30.4353 14.7149 31.1139 14.7149 31.9996L14.69 32.7704L14.8452 34.5881C14.5743 34.6102 14.369 34.7341 14.2265 34.9027C14.0159 35.1517 14.0086 35.1887 13.6452 35.2797C13.1473 35.4044 12.5639 35.5138 11.9768 35.5367C11.5135 35.5548 10.6353 35.613 10.2731 35.7333C10.0179 35.818 9.8306 35.9144 9.6615 36.0805C9.56486 36.1754 9.31641 36.5295 9.31641 36.6896V37.0997C9.31641 37.2938 9.58087 37.6142 9.70068 37.7216C9.85319 37.858 10.1548 37.9967 10.4378 37.9967H10.5422C11.0174 37.9967 12.198 37.5875 12.472 37.4072C12.659 37.4072 13.1362 37.1754 13.36 37.1266C13.6227 37.0693 14.0291 36.9202 14.3236 36.9202C14.6185 36.9202 14.8733 37.1509 14.9496 37.1509C15.1228 37.1509 15.2829 37.074 15.3147 37.074L15.468 37.0745L15.4972 37.3047C15.5478 37.3789 15.7246 37.8296 15.7621 37.9413C15.8414 38.1779 15.936 38.3739 16.0451 38.5858C16.2614 39.0056 16.4131 39.3947 16.6607 39.8005C16.8878 40.1727 17.1138 40.5889 17.3704 40.9227C17.6395 41.2724 17.9036 41.6091 18.1677 41.9588C18.6905 42.6511 19.3923 43.1976 20.0022 43.7951C20.2559 44.0438 20.7314 44.3804 21.0364 44.5984C21.1428 44.6745 22.1474 45.314 22.1474 45.3263C22.1474 45.4411 21.9648 45.7012 21.9648 45.7876C21.9648 45.9144 22.0691 46.0702 22.0691 46.2233V46.4026C22.0691 46.6574 21.2558 47.9248 21.0939 48.1864C20.9202 48.4667 20.7105 48.7139 20.5252 48.9858C20.4375 49.1145 20.0872 49.7811 20.0872 49.9393V50.17C20.0872 50.7492 20.57 51.2976 21.1564 51.2976C22.3956 51.2976 22.5935 49.919 22.9205 48.982C23.0865 48.5064 23.2627 47.9254 23.4857 47.5128C23.6096 47.2837 23.7177 47.0851 23.9692 46.9883C24.1838 46.9058 24.1786 46.9826 24.2909 46.7919C24.3637 46.6685 24.4309 46.6122 24.4685 46.4539C24.6902 46.4587 25.3724 46.7393 25.6428 46.812C25.9695 46.8999 26.5472 47.0773 26.8693 47.1188C27.2935 47.1734 27.7623 47.251 28.2007 47.3225C28.5661 47.3821 29.275 47.4022 29.6843 47.4022H30.4667C31.301 47.4022 32.3031 47.2328 33.0202 47.0923C33.4478 47.0086 33.7864 46.8944 34.172 46.8147C34.4361 46.7601 35.0831 46.4841 35.2913 46.4795C35.3209 46.6043 35.3973 46.69 35.4561 46.8046C35.54 46.968 35.6091 46.9096 35.7746 46.9785C36.0172 47.0795 36.1323 47.2876 36.2476 47.5132C36.4779 47.9641 36.6399 48.4218 36.8136 48.9303C36.974 49.3998 37.1144 50.0006 37.3261 50.4001C37.533 50.7901 37.882 51.272 38.4731 51.272H38.6035C39.1792 51.272 39.6466 50.7198 39.6466 50.1444C39.6466 49.4216 38.9972 48.6873 38.6816 48.2222C38.4955 47.948 37.6646 46.6523 37.6646 46.3257V46.1976C37.6646 46.1081 37.795 45.8413 37.795 45.8388C37.795 45.8376 37.6342 45.4439 37.6124 45.3519C37.9919 45.1022 38.3612 44.8737 38.7446 44.6193C39.1241 44.3673 39.4523 44.0667 39.8079 43.7934C40.4688 43.2855 41.1093 42.5285 41.6611 41.8984C42.1402 41.3513 42.8357 40.3459 43.1762 39.6712C43.3953 39.2369 43.5849 38.8651 43.7975 38.4109C43.899 38.1943 43.9665 37.9707 44.0717 37.7578C44.1701 37.5588 44.2129 37.2375 44.3155 37.0437L44.5756 37.074C44.6226 37.105 44.6215 37.1252 44.6799 37.1252H44.8103C44.8826 37.1252 45.0675 36.8946 45.384 36.8946C45.8341 36.8946 46.8525 37.2397 47.2011 37.3899C47.3369 37.4485 47.4999 37.4636 47.6354 37.5269C47.7736 37.5915 47.8981 37.6699 48.0437 37.7152C48.2122 37.7675 48.7867 37.971 48.9569 37.971H49.1917C49.5423 37.971 49.804 37.8763 50.0052 37.7197C50.1462 37.6099 50.4174 37.2689 50.4174 37.0484V36.7152C50.4174 36.2686 49.9041 35.8712 49.5391 35.733C48.9905 35.5253 48.4763 35.6322 47.872 35.5261C47.6878 35.4937 47.1899 35.4358 47.0266 35.4342C46.8369 35.4325 46.4153 35.3159 46.2388 35.2859C45.9202 35.2315 45.7716 35.1823 45.5943 34.9966C45.5139 34.9123 45.4627 34.815 45.39 34.736C45.3118 34.6509 45.1521 34.6585 45.045 34.5881C44.9844 34.5881 44.8829 34.5987 44.9062 34.5384L45.019 33.0761V32.1791C45.019 31.5864 44.9235 30.251 44.7746 29.8307C44.7136 29.6586 44.7064 29.4871 44.6744 29.2886C44.6468 29.1177 44.5726 28.9414 44.529 28.7651C44.4389 28.4019 44.323 28.0991 44.2217 27.76C44.045 27.1691 43.7178 26.4345 43.4546 25.9254C43.3055 25.6373 43.1441 25.3545 42.9855 25.0792C42.9332 24.9884 42.4893 24.2731 42.4893 24.2599C42.4893 24.1906 42.8144 23.9446 42.8804 23.9012C42.8804 23.2947 43.2225 23.0823 43.5953 22.8354C43.9677 22.5888 44.3202 22.3706 44.6956 22.1226C45.3065 21.7191 46.5577 21.2956 46.5577 20.3645V20.0826C46.5577 19.6116 46.0176 19.1856 45.4884 19.1856H45.2797C44.6044 19.1856 43.7678 20.2742 43.3695 20.6657C43.1184 20.9125 42.7813 21.2805 42.5049 21.4819C41.9958 21.8528 42.1426 21.9534 41.2635 21.9534C41.1957 21.998 40.9155 22.2354 40.8462 22.2354C40.7896 22.2354 39.9931 21.4592 39.8883 21.3572C39.613 21.0894 39.1777 20.7844 38.8599 20.5481C38.1873 20.048 37.3503 19.5432 36.5693 19.1599C35.7932 18.7791 34.8028 18.3981 33.8881 18.1556C33.4159 18.0303 32.9057 17.9148 32.3818 17.8162C32.11 17.765 31.8238 17.7511 31.5641 17.6972C31.0628 17.5929 31.1448 17.8633 31.1448 17.1866C30.8904 16.8133 30.7275 16.9437 30.7275 16.2127C30.7275 15.9289 30.7723 15.712 30.7806 15.4704C30.7862 15.3059 30.8119 14.8789 30.8419 14.7106C30.9265 14.2371 31.0405 13.797 31.0405 13.2655V13.0605C31.0405 12.4223 30.5276 11.8047 29.893 11.8047H29.8669C29.5221 11.8047 29.241 11.9706 29.0645 12.1439C28.9403 12.2658 28.6933 12.691 28.6933 12.9067Z" fill="#FEFEFE"/>
<path fill-rule="evenodd" clip-rule="evenodd" d="M21.416 24.004C21.416 24.0916 23.8368 25.7126 24.1092 25.9191C24.5305 26.2387 25.0228 26.5676 25.469 26.8638C25.796 27.0808 26.4994 27.6945 26.9448 27.6945H27.1273C27.3493 27.6945 27.6462 27.4918 27.7601 27.3681C28.0087 27.0982 27.932 26.8919 28.0505 26.6941L28.3791 21.0312V20.7236C27.7301 20.7767 26.8249 20.9858 26.2763 21.1688C25.9386 21.2813 25.6342 21.3675 25.3241 21.4888C24.9987 21.6161 24.7402 21.7552 24.4251 21.8867C23.989 22.0686 23.1782 22.5699 22.8172 22.8438C22.6412 22.9773 21.416 23.89 21.416 24.004Z" fill="currentColor"/>
<path fill-rule="evenodd" clip-rule="evenodd" d="M33.9844 36.3828V36.6904C33.9844 36.8867 35.0239 39.2218 35.1761 39.5941C35.3797 40.0915 35.5925 40.5569 35.7878 41.0432C35.8777 41.2672 36.3716 42.3657 36.3837 42.5079C36.5792 42.4919 37.7802 41.5353 37.955 41.3611C38.4558 40.8619 38.8167 40.5323 39.2856 39.9778C39.6935 39.4955 40.0715 38.9396 40.3947 38.3767C40.5458 38.1137 41.2345 36.7958 41.2312 36.5299L35.1058 35.5371H34.8972C34.4819 35.5371 33.9844 36.0012 33.9844 36.3828Z" fill="currentColor"/>
<path fill-rule="evenodd" clip-rule="evenodd" d="M17.7876 32.0009L17.7773 32.6678L17.844 33.7328L21.1257 32.8211C21.3323 32.6851 22.6866 32.393 23.0556 32.2572C23.3772 32.1389 23.7071 32.1065 23.9794 31.9349C24.1943 31.7996 24.4639 31.5015 24.4639 31.1809V31.0527C24.4639 30.4851 23.7681 29.9893 23.4276 29.6876C23.2201 29.5038 22.9808 29.3289 22.7883 29.1371C22.6413 28.9906 22.2998 28.6788 22.1428 28.5668C21.7232 28.2675 21.2904 27.7743 20.8601 27.4439C20.4388 27.1204 19.9886 26.593 19.561 26.3115C19.2749 26.4997 18.5228 28.3486 18.351 28.8386C18.0881 29.5892 17.7876 31.0235 17.7876 32.0009Z" fill="currentColor"/>
<path fill-rule="evenodd" clip-rule="evenodd" d="M35.2656 30.9502V31.0784C35.2656 32.084 36.564 32.1794 37.3549 32.4338C37.5609 32.5 37.8157 32.5753 38.0285 32.6175C38.2201 32.6556 38.5328 32.7862 38.6869 32.8162C39.0431 32.8857 39.8102 33.1799 40.0609 33.1911L41.9065 33.7174L41.968 32.6417V32.4879C41.968 31.6078 41.8093 30.8226 41.6833 30.0767C41.6311 29.7677 41.5036 29.2745 41.4019 28.995C41.3353 28.812 41.0552 28.1053 41.0552 27.9773C40.9373 27.8997 40.7438 27.2983 40.633 27.1364C40.4881 26.9246 40.2938 26.5442 40.1685 26.3115C39.9541 26.3607 38.01 28.2322 37.6127 28.5156C37.1987 28.8109 36.7713 29.3178 36.3453 29.6278C36.1905 29.7403 35.8579 30.0474 35.7154 30.1877C35.526 30.3744 35.2656 30.5922 35.2656 30.9502Z" fill="currentColor"/>
<path fill-rule="evenodd" clip-rule="evenodd" d="M26.002 43.7633C26.5342 44.0144 28.4986 44.3785 29.314 44.3785H30.2268C30.8891 44.3785 31.5336 44.3007 32.0888 44.1837C32.378 44.1227 32.6554 44.0854 32.9335 44.0142C33.1673 43.9543 33.5026 43.8207 33.7214 43.7633C33.6881 43.6225 32.9991 42.4287 32.8766 42.2358C32.7211 41.991 32.596 41.7302 32.4524 41.4737C32.3022 41.2054 32.1537 40.9768 32.0142 40.6998C31.7628 40.201 31.3825 39.6716 31.1624 39.1792C30.9713 38.7521 30.5498 37.9971 29.9399 37.9971H29.8355C29.4554 37.9971 29.2025 38.1701 29.0371 38.3913C28.9235 38.5431 28.6699 38.9798 28.5918 39.1582C28.4907 39.3892 28.294 39.6852 28.1658 39.9184C28.0246 40.1752 27.8633 40.4354 27.724 40.6887C27.4406 41.204 27.1359 41.7075 26.8577 42.2208C26.7153 42.4837 26.5887 42.7313 26.44 42.9894C26.3675 43.1155 26.0254 43.6768 26.002 43.7633Z" fill="currentColor"/>
<path fill-rule="evenodd" clip-rule="evenodd" d="M18.603 36.5442L18.5234 36.5364C18.5437 36.7759 19.2259 38.1644 19.3686 38.3712C19.5541 38.6403 19.7032 38.916 19.8899 39.1914C20.0768 39.4669 20.2629 39.6975 20.4637 39.9604C21.1825 40.902 22.3176 41.8212 23.3221 42.4821C23.4108 42.4182 24.4378 39.8996 24.5769 39.5635C24.7805 39.0715 25.7474 37.0016 25.7474 36.562C25.7474 36.0382 25.308 35.5625 24.7824 35.5625L24.4699 35.5643L18.603 36.5442Z" fill="currentColor"/>
<path fill-rule="evenodd" clip-rule="evenodd" d="M32.7305 27.6688C33.2384 27.6688 33.858 27.0991 34.2117 26.8691C34.6742 26.5685 35.122 26.2379 35.5735 25.9265C36.4737 25.3058 37.3763 24.6278 38.2854 24.0296C38.1058 23.7661 37.2033 23.083 36.8928 22.861C36.6359 22.6773 36.3783 22.5352 36.1208 22.3638C35.8595 22.1898 35.5445 22.0713 35.2811 21.9077C34.6818 21.5358 32.2746 20.7236 31.3223 20.7236C31.4304 22.0007 31.4584 23.3518 31.5568 24.6449C31.6064 25.297 31.6356 25.9269 31.6603 26.6191C31.6812 27.2092 32.0946 27.6688 32.7305 27.6688Z" fill="currentColor"/>
<path fill-rule="evenodd" clip-rule="evenodd" d="M27.7754 32.0267L28.1666 33.8207C28.3072 33.8938 29.8336 34.6151 29.8617 34.6151C29.9719 34.6151 31.2069 33.958 31.4497 33.8691C31.5943 33.816 31.582 33.659 31.6251 33.4776C31.6669 33.3015 31.6974 33.1652 31.729 32.9903C31.7802 32.7077 31.8783 32.3464 31.9481 32.0523C31.8446 31.9005 30.8216 30.6172 30.7484 30.6172H28.975C28.9012 30.6172 27.8763 31.8786 27.7754 32.0267Z" fill="currentColor"/>
<path d="M85.3199 40.9518L80.8231 33.5561L78.0588 36.1701V40.225C78.0588 41.207 77.7977 41.9655 77.2818 42.4948C76.7659 43.024 76.1736 43.2853 75.5046 43.2853C74.7213 43.2853 74.1034 43.024 73.6511 42.5012C73.2054 41.9783 72.9824 41.207 72.9824 40.1869V18.4455C72.9824 17.3106 73.199 16.45 73.6383 15.8571C74.0715 15.2639 74.6957 14.9707 75.5046 14.9707C76.288 14.9707 76.9058 15.2386 77.3709 15.774C77.8294 16.3096 78.0588 17.1002 78.0588 18.1458V30.5083L83.7849 24.4961C84.4982 23.7437 85.0397 23.2336 85.4091 22.9595C85.7848 22.6854 86.2371 22.5515 86.7722 22.5515C87.4092 22.5515 87.9377 22.7555 88.3581 23.1572C88.7849 23.5652 88.9951 24.0689 88.9951 24.6809C88.9951 25.427 88.3008 26.4215 86.9249 27.6712L84.2181 30.1514L89.441 38.3698C89.8295 38.9819 90.1033 39.4472 90.2691 39.766C90.441 40.0849 90.5237 40.3845 90.5237 40.6714C90.5237 41.4811 90.3007 42.1187 89.8614 42.584C89.4219 43.0496 88.836 43.2853 88.1162 43.2853C87.492 43.2853 87.0141 43.1196 86.6831 42.7816C86.3454 42.4439 85.8931 41.8382 85.3199 40.9518ZM98.6765 25.4461V40.1869C98.6765 41.207 98.4347 41.9783 97.9504 42.5012C97.4664 43.024 96.8485 43.2853 96.1035 43.2853C95.3518 43.2853 94.7467 43.0176 94.2816 42.482C93.8168 41.9466 93.581 41.1814 93.581 40.1869V25.599C93.581 24.5853 93.8168 23.8268 94.2816 23.3167C94.7467 22.8067 95.3518 22.5515 96.1035 22.5515C96.8485 22.5515 97.4664 22.8067 97.9504 23.3167C98.4347 23.8268 98.6765 24.5408 98.6765 25.4461ZM96.1543 20.1796C95.4473 20.1796 94.8423 19.9629 94.3391 19.5231C93.8359 19.0895 93.581 18.471 93.581 17.6805C93.581 16.9537 93.8423 16.3608 94.3583 15.8952C94.8742 15.4299 95.4729 15.1939 96.1543 15.1939C96.8169 15.1939 97.4028 15.4043 97.9123 15.8315C98.4219 16.2524 98.6765 16.8708 98.6765 17.6805C98.6765 18.4646 98.4283 19.0767 97.9315 19.5167C97.4347 19.9567 96.8422 20.1796 96.1543 20.1796ZM108.568 25.3697V25.9882C109.466 24.8021 110.448 23.9352 111.505 23.3804C112.568 22.8256 113.791 22.5515 115.173 22.5515C116.517 22.5515 117.715 22.8447 118.772 23.4315C119.83 24.0116 120.619 24.8405 121.142 25.9114C121.479 26.5363 121.696 27.2059 121.798 27.9328C121.893 28.6532 121.944 29.5713 121.944 30.6934V40.1869C121.944 41.207 121.708 41.9783 121.244 42.5012C120.778 43.024 120.173 43.2853 119.422 43.2853C118.664 43.2853 118.052 43.0176 117.575 42.482C117.103 41.9466 116.868 41.1814 116.868 40.1869V31.688C116.868 30.0047 116.632 28.7169 116.167 27.8243C115.702 26.9379 114.772 26.4918 113.384 26.4918C112.473 26.4918 111.645 26.7595 110.9 27.3015C110.154 27.8433 109.607 28.5893 109.263 29.5394C109.014 30.2979 108.887 31.7136 108.887 33.7983V40.1869C108.887 41.2198 108.645 41.9911 108.167 42.5076C107.69 43.024 107.072 43.2853 106.314 43.2853C105.575 43.2853 104.976 43.0176 104.498 42.482C104.027 41.9466 103.791 41.1814 103.791 40.1869V25.4461C103.791 24.4769 104.002 23.7501 104.428 23.272C104.849 22.7939 105.428 22.5515 106.161 22.5515C106.607 22.5515 107.014 22.6599 107.377 22.8703C107.734 23.0807 108.027 23.3995 108.244 23.8204C108.46 24.2476 108.568 24.764 108.568 25.3697ZM140.976 40.3717V39.8681C140.294 40.6522 139.619 41.2898 138.951 41.7807C138.288 42.2716 137.562 42.6479 136.785 42.9028C136.008 43.158 135.161 43.2853 134.237 43.2853C133.021 43.2853 131.893 43.024 130.855 42.5076C129.817 41.9911 128.912 41.2579 128.154 40.2953C127.397 39.3388 126.823 38.2103 126.428 36.9161C126.04 35.6217 125.842 34.2191 125.842 32.7145C125.842 29.5266 126.619 27.04 128.173 25.2613C129.728 23.4824 131.779 22.5898 134.314 22.5898C135.785 22.5898 137.021 22.8447 138.027 23.3484C139.033 23.8521 140.021 24.6236 140.976 25.6757V18.1458C140.976 17.1002 141.186 16.3096 141.6 15.774C142.02 15.2386 142.613 14.9707 143.384 14.9707C144.154 14.9707 144.747 15.2195 145.167 15.7104C145.581 16.2012 145.791 16.9281 145.791 17.8846V40.3717C145.791 41.3407 145.568 42.0739 145.122 42.5587C144.67 43.0432 144.091 43.2853 143.384 43.2853C142.689 43.2853 142.11 43.0304 141.658 42.5267C141.205 42.0231 140.976 41.309 140.976 40.3717ZM130.957 32.8802C130.957 34.2638 131.174 35.4432 131.6 36.4125C132.027 37.3814 132.619 38.1147 133.365 38.6056C134.11 39.0964 134.925 39.3452 135.81 39.3452C136.702 39.3452 137.524 39.1092 138.263 38.6439C139.001 38.1784 139.594 37.4643 140.033 36.4953C140.473 35.5325 140.696 34.3275 140.696 32.8802C140.696 31.5285 140.473 30.3555 140.033 29.3799C139.594 28.4045 138.995 27.6584 138.243 27.142C137.492 26.6256 136.664 26.3642 135.772 26.3642C134.836 26.3642 134.001 26.6255 133.269 27.1547C132.536 27.684 131.97 28.4489 131.562 29.4374C131.161 30.4255 130.957 31.5732 130.957 32.8802Z" fill="currentColor"/>
</svg>
