<svg width="125" height="64" viewBox="0 0 125 64" fill="none" xmlns="http://www.w3.org/2000/svg">
<path d="M41.94 40.8975C41.2816 39.7923 39.864 39.4018 38.7164 39.9851L35.3904 36.3013C35.9171 34.7967 36.2051 33.1829 36.2051 31.4988C36.2051 29.8496 35.926 28.2619 35.4172 26.7796L38.2344 23.5034C38.9175 23.7842 39.712 23.7621 40.3954 23.3675C41.5562 22.7051 41.9491 21.2358 41.2703 20.0957C40.5895 18.9554 39.0962 18.5652 37.9329 19.2362C37.2498 19.6265 36.8414 20.302 36.7519 21.0212L32.5284 21.8151C30.3451 19.3416 27.3449 17.5872 23.9339 16.9557L22.3311 12.3813C23.3914 11.6839 23.7398 10.2849 23.0855 9.18415C22.4047 8.04831 20.9112 7.65788 19.7506 8.32893C18.5898 8.99126 18.1946 10.4648 18.8755 11.6051C19.0518 11.9034 19.2861 12.1489 19.5563 12.3331L17.9492 17.0347C14.6431 17.7321 11.7454 19.4952 9.63808 21.938L4.91007 21.0697C4.8878 20.71 4.78962 20.3504 4.59306 20.0171C3.91448 18.8768 2.41871 18.4908 1.25811 19.1576C0.0972995 19.8242 -0.295618 21.2935 0.382964 22.4338C1.00359 23.4775 2.30733 23.8811 3.40998 23.4293L6.72719 27.1615C6.29859 28.5342 6.06861 29.9904 6.06861 31.4992C6.06861 33.1876 6.35655 34.8062 6.88786 36.3147L3.48134 40.2311C2.77801 39.9021 1.92761 39.911 1.20881 40.3231C0.0434667 40.9943 -0.344913 42.459 0.333669 43.6036C1.01225 44.7394 2.50802 45.1298 3.66883 44.4632C4.3899 44.0465 4.8119 43.3229 4.86985 42.5597L10.0824 41.5554C12.1474 43.744 14.8751 45.3182 17.9558 45.9719L19.657 50.7217C18.7059 51.4496 18.4157 52.7654 19.0409 53.8137C19.7195 54.954 21.2152 55.3398 22.3783 54.6732C23.5368 54.0066 23.9298 52.5373 23.2512 51.3927C23.0748 51.1032 22.8448 50.8576 22.5815 50.6692L24.2045 45.994C27.3499 45.3537 30.1381 43.7527 32.2342 41.5116L37.4379 42.4985C37.4849 42.7791 37.5717 43.0555 37.7303 43.314C38.4066 44.4545 39.9001 44.8403 41.0655 44.1737C42.2259 43.5071 42.6165 42.0335 41.94 40.8975ZM21.1346 42.3843C15.0135 42.3843 10.0533 37.5117 10.0533 31.499C10.0533 25.486 15.0135 20.6134 21.1346 20.6134C27.2536 20.6134 32.2161 25.486 32.2161 31.499C32.2161 37.5117 27.2536 42.3843 21.1346 42.3843Z" fill="#6C7993"/>
<path d="M19.0637 32.3411C18.9408 31.9331 18.8939 31.5823 18.9164 31.2861C18.941 30.9551 19.0503 30.6086 19.24 30.2621C19.4341 29.9157 19.6552 29.6349 19.9029 29.4243L26.0999 24.2053C24.2114 22.9686 21.8496 22.4288 19.4432 22.8808C14.5968 23.8017 11.4291 28.4024 12.3622 33.1609C12.3622 33.1609 12.4247 33.5819 12.6436 34.2226C12.6568 34.2617 12.6702 34.3014 12.686 34.3409C12.7106 34.411 12.7374 34.4853 12.764 34.5601C12.8624 34.8059 12.9606 35.0468 13.0722 35.2838L13.081 35.2792C13.7105 36.5686 14.867 38.1739 16.9496 39.2528C16.9832 39.2657 17.0166 39.2834 17.05 39.301C17.1527 39.3537 17.2554 39.4017 17.3581 39.4499C17.4295 39.4805 17.5009 39.5115 17.5679 39.5421C17.5993 39.5551 17.6304 39.5684 17.6618 39.5858V39.5816C19.24 40.2395 21.0237 40.4565 22.8297 40.1169C23.6892 39.9544 24.4973 39.6695 25.2429 39.2965L19.8406 33.5819C19.4432 33.1745 19.1819 32.7534 19.0637 32.3411Z" fill="#6C7993"/>
<path d="M28.3095 26.2715L23.0523 30.5214C22.8582 30.6748 22.6773 30.8239 22.5075 30.9862C22.3737 31.109 22.2998 31.28 22.2842 31.4994C22.2664 31.7934 22.3287 32.0368 22.4896 32.2406C22.6748 32.4728 22.8691 32.6969 23.0655 32.9031L27.6373 37.5167C29.5304 35.5344 30.468 32.7145 29.9053 29.8419C29.6444 28.5038 29.0865 27.2932 28.3095 26.2715Z" fill="#6C7993"/>
<path d="M58.7832 29.5013L63.9074 23.924H69.3604L63.4151 30.4085L69.7215 39.4467H64.4661L60.3582 33.6801H57.8311V39.4467H53.2656V16.4424H57.8311V29.5013H58.7832ZM85.3989 25.544C87.009 27.0689 87.8302 29.0791 87.8302 31.5751C87.8302 34.102 87.009 36.1388 85.3989 37.6951C83.7888 39.2515 81.6548 40.0273 78.9938 40.0273C76.3325 40.0273 74.1985 39.2515 72.5562 37.6951C70.914 36.1388 70.0931 34.102 70.0931 31.5751C70.0931 29.0791 70.914 27.0689 72.5214 25.544C74.1661 24.0247 76.3325 23.2435 78.9935 23.2435C81.6548 23.2437 83.789 24.0247 85.3989 25.544ZM78.994 27.2641C76.3997 27.2641 74.6237 28.9789 74.6237 31.5751C74.6237 34.1973 76.3997 36.0121 78.994 36.0121C81.5881 36.0121 83.3292 34.1973 83.3292 31.5751C83.3292 28.9789 81.5881 27.2641 78.994 27.2641ZM108.105 31.6065C108.105 34.0021 107.383 35.9487 105.971 37.4368C104.559 38.8932 102.719 39.6422 100.518 39.6422C98.6456 39.6422 97.1025 39.5737 95.8215 39.447V46.9289H91.256V24.1883C95.1634 23.6973 98.1534 23.439 100.221 23.439C105.182 23.4387 107.974 26.5836 108.105 31.6065ZM103.671 31.733C103.671 28.6886 102.291 27.1637 99.4989 27.1637C98.4477 27.1637 97.2334 27.2322 95.8215 27.3589V35.6216C96.9712 35.7851 98.2846 35.8802 99.7956 35.8802C102.061 35.8802 103.671 34.0652 103.671 31.733ZM111.667 34.9727C114.064 35.8802 116.198 36.3338 118.038 36.3338C119.843 36.3338 120.731 35.9487 120.731 35.1365C120.731 34.4238 120.041 34.0652 118.99 33.8383C118.431 33.6803 118.137 33.6484 117.38 33.5166L116.527 33.3532C112.817 32.6724 111.106 31.3113 111.106 28.6888C111.106 25.4492 113.767 23.5075 118.003 23.5075C120.335 23.5075 122.536 23.8926 124.606 24.6736L123.587 28.0714C121.06 27.3589 119.153 27.0055 117.84 27.0055C116.396 27.0055 115.575 27.5225 115.575 28.3352C115.575 29.0474 116.099 29.306 117.019 29.5963C117.578 29.7284 117.84 29.7596 118.632 29.9183L119.549 30.0816C123.39 30.8572 125 31.9602 125 34.7143C125 38.1809 122.242 39.9325 117.872 39.9325C115.441 39.9325 113.077 39.4787 110.745 38.5712L111.667 34.9727Z" fill="#6C7993"/>
</svg>
