<svg width="157" height="64" viewBox="0 0 157 64" fill="none" xmlns="http://www.w3.org/2000/svg">
<path d="M52.4524 44.4906C51.629 43.0984 49.856 42.6067 48.4208 43.3414L44.261 38.7013C44.9198 36.8062 45.2799 34.7735 45.2799 32.6522C45.2799 30.5749 44.9309 28.5751 44.2946 26.708L47.818 22.5814C48.6723 22.9351 49.6659 22.9073 50.5205 22.4102C51.9723 21.5759 52.4637 19.7252 51.6148 18.2892C50.7633 16.8529 48.8957 16.3614 47.4408 17.2066C46.5865 17.6981 46.0757 18.549 45.9638 19.4549L40.6816 20.4548C37.9512 17.3393 34.199 15.1295 29.933 14.334L27.9284 8.57233C29.2545 7.69392 29.6902 5.93175 28.872 4.54523C28.0205 3.11456 26.1526 2.62279 24.7011 3.46802C23.2494 4.30228 22.7551 6.15837 23.6066 7.59465C23.8272 7.9703 24.1202 8.27961 24.4581 8.51159L22.4481 14.4336C18.3134 15.312 14.6894 17.5327 12.0539 20.6097L6.14079 19.5159C6.11293 19.0629 5.99015 18.61 5.74432 18.1901C4.89565 16.7539 3.02496 16.2677 1.57345 17.1076C0.121688 17.9472 -0.369715 19.7979 0.478955 21.2342C1.25514 22.5487 2.88567 23.0571 4.26469 22.488L8.41337 27.1891C7.87734 28.9181 7.58972 30.7522 7.58972 32.6527C7.58972 34.7793 7.94983 36.8181 8.61432 38.7181L4.35394 43.6512C3.47432 43.2367 2.41077 43.248 1.5118 43.7671C0.0543618 44.6125 -0.431366 46.4574 0.417303 47.899C1.26597 49.3297 3.13666 49.8215 4.58842 48.9819C5.49023 48.4569 6.01801 47.5456 6.09049 46.5842L12.6095 45.3192C15.1922 48.0759 18.6036 50.0588 22.4564 50.8821L24.584 56.8648C23.3946 57.7818 23.0316 59.439 23.8135 60.7595C24.6622 62.1957 26.5329 62.6817 27.9875 61.842C29.4364 61.0024 29.9278 59.1517 29.0791 57.7101C28.8586 57.3454 28.571 57.0361 28.2415 56.7987L30.2714 50.9099C34.2052 50.1035 37.6922 48.0869 40.3138 45.2641L46.8217 46.5072C46.8805 46.8606 46.9891 47.2087 47.1875 47.5344C48.0333 48.9709 49.9012 49.4568 51.3586 48.6172C52.8099 47.7776 53.2985 45.9215 52.4524 44.4906ZM26.432 46.3632C18.7767 46.3632 12.5731 40.2259 12.5731 32.6525C12.5731 25.0786 18.7767 18.9412 26.432 18.9412C34.0847 18.9412 40.2911 25.0786 40.2911 32.6525C40.2911 40.2259 34.0847 46.3632 26.432 46.3632Z" fill="currentColor"/>
<path d="M23.8429 33.7128C23.6891 33.1989 23.6306 32.7571 23.6587 32.384C23.6894 31.967 23.8261 31.5306 24.0634 31.0942C24.3061 30.6578 24.5827 30.3041 24.8925 30.0389L32.6427 23.4652C30.2809 21.9074 27.3271 21.2276 24.3175 21.7969C18.2563 22.9568 14.2947 28.7517 15.4617 34.7454C15.4617 34.7454 15.5398 35.2757 15.8135 36.0826C15.83 36.1319 15.8468 36.1819 15.8667 36.2317C15.8974 36.32 15.9309 36.4136 15.9642 36.5078C16.0872 36.8174 16.21 37.1208 16.3495 37.4194L16.3606 37.4135C17.1479 39.0376 18.5943 41.0596 21.1988 42.4186C21.2409 42.4349 21.2827 42.4571 21.3245 42.4793C21.4529 42.5456 21.5814 42.6061 21.7098 42.6669C21.7991 42.7054 21.8883 42.7444 21.9722 42.783C22.0114 42.7993 22.0503 42.8162 22.0895 42.8381V42.8327C24.0634 43.6614 26.2942 43.9347 28.5529 43.507C29.6277 43.3023 30.6384 42.9435 31.5709 42.4737L24.8146 35.2757C24.3175 34.7625 23.9907 34.2322 23.8429 33.7128Z" fill="currentColor"/>
<path d="M35.4084 26.0674L28.8334 31.4205C28.5907 31.6137 28.3645 31.8015 28.1522 32.0059C27.9848 32.1606 27.8924 32.376 27.8728 32.6524C27.8506 33.0227 27.9285 33.3292 28.1297 33.5859C28.3614 33.8784 28.6044 34.1606 28.8499 34.4204L34.5677 40.2316C36.9352 37.7347 38.1079 34.1828 37.4042 30.5646C37.0779 28.8792 36.3801 27.3544 35.4084 26.0674Z" fill="currentColor"/>
<path d="M73.5197 30.1361L79.9283 23.1112H86.7481L79.3126 31.2789L87.1997 42.6632H80.627L75.4895 35.3997H72.329V42.6632H66.6191V13.6875H72.329V30.1361H73.5197ZM106.807 25.1517C108.82 27.0724 109.847 29.6044 109.847 32.7483C109.847 35.9311 108.82 38.4966 106.807 40.4569C104.793 42.4173 102.124 43.3945 98.7961 43.3945C95.4677 43.3945 92.7988 42.4173 90.745 40.4569C88.6911 38.4966 87.6645 35.9311 87.6645 32.7483C87.6645 29.6044 88.6911 27.0724 90.7014 25.1517C92.7584 23.238 95.4677 22.254 98.7958 22.254C102.124 22.2543 104.793 23.238 106.807 25.1517ZM98.7964 27.3183C95.5518 27.3183 93.3307 29.4782 93.3307 32.7483C93.3307 36.0512 95.5518 38.337 98.7964 38.337C102.041 38.337 104.218 36.0512 104.218 32.7483C104.218 29.4782 102.041 27.3183 98.7964 27.3183ZM135.204 32.7879C135.204 35.8053 134.301 38.2571 132.535 40.1315C130.769 41.9659 128.468 42.9094 125.715 42.9094C123.374 42.9094 121.444 42.8231 119.842 42.6635V52.0875H114.132V23.444C119.019 22.8257 122.758 22.5002 125.344 22.5002C131.548 22.4999 135.041 26.4611 135.204 32.7879ZM129.659 32.9472C129.659 29.1125 127.933 27.1918 124.441 27.1918C123.126 27.1918 121.608 27.2781 119.842 27.4377V37.8451C121.28 38.0511 122.922 38.1709 124.812 38.1709C127.645 38.1709 129.659 35.8848 129.659 32.9472ZM139.659 37.0278C142.656 38.1709 145.326 38.7422 147.627 38.7422C149.885 38.7422 150.995 38.2571 150.995 37.2341C150.995 36.3364 150.132 35.8848 148.817 35.5989C148.118 35.4 147.75 35.3598 146.804 35.1937L145.737 34.988C141.097 34.1305 138.957 32.4161 138.957 29.1128C138.957 25.0322 142.285 22.5865 147.583 22.5865C150.5 22.5865 153.253 23.0716 155.841 24.0553L154.567 28.3351C151.406 27.4377 149.022 26.9925 147.379 26.9925C145.573 26.9925 144.546 27.6437 144.546 28.6673C144.546 29.5645 145.201 29.8902 146.352 30.2559C147.051 30.4223 147.379 30.4616 148.369 30.6614L149.516 30.8671C154.32 31.8441 156.333 33.2334 156.333 36.7024C156.333 41.0688 152.885 43.2751 147.419 43.2751C144.379 43.2751 141.422 42.7034 138.505 41.5604L139.659 37.0278Z" fill="currentColor"/>
</svg>
