<svg width="158" height="64" viewBox="0 0 158 64" fill="none" xmlns="http://www.w3.org/2000/svg">
<path d="M60.8147 43.9451C58.4077 43.9451 53.6992 40.7599 53.6992 38.1768V20.8425C53.7094 20.6304 53.8025 20.4303 53.959 20.2838C54.1156 20.1373 54.3237 20.0557 54.54 20.0559H56.4722C56.5799 20.0533 56.687 20.0716 56.7874 20.1098C56.8879 20.148 56.9796 20.2053 57.0574 20.2784C57.1353 20.3515 57.1976 20.4389 57.2409 20.5357C57.2842 20.6325 57.3076 20.7368 57.3097 20.8425V37.7139C57.3097 38.9698 59.6837 40.6822 60.8147 40.6822C61.9457 40.6822 64.3197 38.9698 64.3197 37.7139V20.8425C64.3166 20.7411 64.3341 20.6401 64.3712 20.5454C64.4084 20.4508 64.4643 20.3643 64.5358 20.2911C64.6073 20.2178 64.693 20.1593 64.7878 20.119C64.8826 20.0786 64.9846 20.0571 65.0879 20.0559H67.1059C67.3222 20.0557 67.5302 20.1373 67.6868 20.2838C67.8434 20.4303 67.9365 20.6304 67.9467 20.8425V38.1768C67.9302 40.6822 63.225 43.9451 60.8147 43.9451Z" fill="#6C7993"/>
<path d="M135.926 41.1895C135.924 40.9777 135.838 40.775 135.686 40.6249C135.534 40.4748 135.328 40.3893 135.112 40.3868H126.453V33.8059H135.115C135.223 33.8081 135.33 33.7888 135.43 33.7493C135.53 33.7097 135.621 33.6505 135.697 33.5755C135.773 33.5005 135.833 33.4111 135.873 33.3127C135.913 33.2143 135.932 33.109 135.929 33.0031V30.9962C135.928 30.7838 135.841 30.5806 135.688 30.4304C135.535 30.2802 135.328 30.1951 135.112 30.1934H126.453V23.6125H135.112C135.22 23.6147 135.327 23.5955 135.427 23.5559C135.528 23.5163 135.619 23.4573 135.695 23.3823C135.771 23.3073 135.832 23.2179 135.872 23.1195C135.912 23.0211 135.932 22.9158 135.929 22.8097V20.8028C135.928 20.5904 135.841 20.3872 135.688 20.237C135.535 20.0868 135.328 20.0017 135.112 20H123.591C123.375 20.0017 123.168 20.0868 123.015 20.237C122.862 20.3872 122.775 20.5904 122.773 20.8028V43.1965C122.775 43.4089 122.862 43.6121 123.015 43.7623C123.168 43.9125 123.375 43.9976 123.591 43.9993H135.112C135.22 44.0015 135.327 43.9822 135.427 43.9426C135.527 43.903 135.618 43.8439 135.694 43.7689C135.77 43.6939 135.83 43.6044 135.87 43.5061C135.91 43.4077 135.929 43.3024 135.926 43.1965V41.1895Z" fill="#6C7993"/>
<path d="M101.246 41.1895C101.245 40.9772 101.158 40.774 101.005 40.6238C100.852 40.4736 100.645 40.3885 100.429 40.3868H91.7702V33.8059H100.429C100.537 33.8086 100.644 33.7896 100.745 33.7502C100.845 33.7108 100.937 33.6518 101.013 33.5767C101.09 33.5016 101.15 33.4121 101.19 33.3135C101.23 33.2149 101.249 33.1093 101.246 33.0031V30.9962C101.245 30.7838 101.158 30.5806 101.005 30.4304C100.852 30.2802 100.645 30.1951 100.429 30.1934H91.7702V23.6125H100.429C100.537 23.6143 100.644 23.5947 100.744 23.555C100.844 23.5153 100.935 23.4562 101.011 23.3813C101.087 23.3064 101.147 23.2172 101.188 23.119C101.228 23.0208 101.248 22.9156 101.246 22.8097V20.8028C101.244 20.5907 101.157 20.3879 101.004 20.2379C100.851 20.0879 100.645 20.0025 100.429 20H88.9115C88.6951 20.0017 88.4881 20.0868 88.3352 20.237C88.1822 20.3872 88.0955 20.5904 88.0938 20.8028V43.1965C88.0955 43.4089 88.1822 43.6121 88.3352 43.7623C88.4881 43.9125 88.6951 43.9976 88.9115 43.9993H100.432C100.54 44.0015 100.647 43.9822 100.747 43.9426C100.847 43.903 100.938 43.8439 101.014 43.7689C101.09 43.6939 101.15 43.6044 101.19 43.5061C101.23 43.4077 101.249 43.3024 101.246 43.1965V41.1895Z" fill="#6C7993"/>
<path d="M81.8009 31.5921C83.4858 30.5045 85.1806 28.3875 85.1806 26.633C85.1806 23.9139 81.4118 20.0586 78.7147 20.0586H72.9313C72.1169 20.0586 71.1211 20.8937 71.1211 21.7257V43.1353C71.1228 43.2424 71.1461 43.3481 71.1898 43.4463C71.2334 43.5445 71.2965 43.6332 71.3753 43.7073C71.4541 43.7814 71.5472 43.8393 71.649 43.8779C71.7508 43.9164 71.8594 43.9346 71.9685 43.9316H78.84C81.5371 43.9316 85.1806 39.4775 85.1806 36.7584C85.1806 35.0007 83.4858 32.7024 81.8009 31.5921ZM74.7777 23.1758H78.2366C79.7137 23.1758 81.5602 25.2508 81.5602 26.6297C81.5602 28.0087 79.7863 30.3556 78.2629 30.3556H74.7679L74.7777 23.1758ZM78.2366 40.8014H74.7777V32.8351H78.2728C79.7863 32.8351 81.5701 35.3438 81.5701 36.7584C81.5701 38.173 79.7137 40.8144 78.2366 40.8144V40.8014Z" fill="#6C7993"/>
<path d="M110.585 32.1329L118.673 22.9365C118.746 22.8581 118.801 22.7661 118.837 22.666C118.872 22.566 118.886 22.46 118.878 22.3544C118.87 22.2488 118.841 22.1458 118.792 22.0517C118.742 21.9576 118.674 21.8743 118.591 21.8068L117.045 20.512C116.881 20.3762 116.671 20.308 116.457 20.3219C116.244 20.3358 116.044 20.4307 115.9 20.5864L108.818 28.6175V20.8033C108.82 20.6962 108.8 20.5897 108.759 20.4904C108.718 20.3911 108.657 20.3011 108.579 20.226C108.501 20.1508 108.408 20.092 108.307 20.0532C108.205 20.0145 108.096 19.9966 107.987 20.0005H105.943C105.727 20.0031 105.52 20.0885 105.367 20.2385C105.215 20.3885 105.128 20.5912 105.125 20.8033V43.1971C105.128 43.4092 105.215 43.6119 105.367 43.7619C105.52 43.9119 105.727 43.9973 105.943 43.9998H107.987C108.095 44.002 108.202 43.9828 108.303 43.9432C108.403 43.9037 108.494 43.8446 108.57 43.7696C108.647 43.6946 108.707 43.6052 108.747 43.5069C108.787 43.4085 108.807 43.3031 108.805 43.1971V35.6483L115.9 43.6891C116.043 43.8484 116.244 43.9464 116.46 43.9621C116.676 43.9778 116.889 43.91 117.054 43.7732L118.601 42.4784C118.684 42.4107 118.752 42.3271 118.802 42.2327C118.851 42.1383 118.881 42.0351 118.888 41.9292C118.896 41.8234 118.882 41.7171 118.847 41.6168C118.811 41.5165 118.756 41.4242 118.683 41.3455L110.585 32.1329Z" fill="#6C7993"/>
<path d="M42.042 32.1325L50.1302 22.9361C50.2024 22.8575 50.2577 22.7653 50.2926 22.6651C50.3275 22.5649 50.3414 22.4588 50.3334 22.3532C50.3254 22.2476 50.2957 22.1447 50.246 22.0507C50.1963 21.9568 50.1278 21.8736 50.0445 21.8064L48.4981 20.5116C48.334 20.3738 48.1212 20.305 47.9058 20.3201C47.6904 20.3353 47.4897 20.4331 47.3473 20.5925L40.2813 28.6171V20.8029C40.2831 20.697 40.2631 20.5918 40.2227 20.4936C40.1822 20.3954 40.1221 20.3062 40.0458 20.2313C39.9695 20.1564 39.8786 20.0974 39.7786 20.0576C39.6786 20.0179 39.5715 19.9984 39.4636 20.0001H37.4259C37.2087 20.0009 37.0005 20.0856 36.8463 20.2358C36.692 20.386 36.6042 20.5896 36.6016 20.8029V43.1966C36.6042 43.4098 36.692 43.6135 36.8463 43.7637C37.0005 43.9139 37.2087 43.9986 37.4259 43.9994H39.4702C39.578 44.0011 39.6852 43.9816 39.7852 43.9418C39.8852 43.9021 39.9761 43.8431 40.0524 43.7682C40.1287 43.6933 40.1888 43.6041 40.2293 43.5059C40.2697 43.4077 40.2897 43.3025 40.2879 43.1966V35.6479L47.3605 43.6886C47.5029 43.8477 47.7032 43.9456 47.9184 43.9614C48.1335 43.9771 48.3464 43.9094 48.5112 43.7728L50.0577 42.478C50.1407 42.4102 50.2089 42.3267 50.2584 42.2324C50.3078 42.1381 50.3374 42.0351 50.3454 41.9294C50.3534 41.8236 50.3396 41.7174 50.3049 41.617C50.2702 41.5166 50.2153 41.4241 50.1434 41.345L42.042 32.1325Z" fill="#6C7993"/>
<path d="M147.655 31.2646H145.611C145.159 31.2646 144.793 31.6241 144.793 32.0674V43.0701C144.793 43.5134 145.159 43.8729 145.611 43.8729H147.655C148.107 43.8729 148.473 43.5134 148.473 43.0701V32.0674C148.473 31.6241 148.107 31.2646 147.655 31.2646Z" fill="#6C7993"/>
<path d="M152.771 20.1289H150.701C150.48 20.128 150.268 20.2131 150.111 20.3653C149.954 20.5176 149.865 20.7248 149.863 20.9414V25.852C149.863 27.1176 148.096 30.141 146.678 30.2608C145.26 30.141 143.496 27.1176 143.496 25.852V20.9414C143.493 20.7261 143.405 20.5205 143.25 20.3686C143.094 20.2166 142.884 20.1306 142.665 20.1289H140.594C140.377 20.1323 140.169 20.2192 140.015 20.371C139.862 20.5228 139.775 20.7275 139.773 20.9414V26.412C139.773 28.2247 141.636 31.2869 143.001 32.1415C143.78 32.6335 144.907 33.3975 146.595 33.4363H146.78C148.468 33.3813 149.596 32.6173 150.377 32.1415C151.739 31.2869 153.602 28.2247 153.602 26.412V20.9414C153.6 20.7259 153.512 20.5197 153.357 20.3676C153.201 20.2155 152.991 20.1298 152.771 20.1289Z" fill="#6C7993"/>
<path d="M27 25.8281V41.4843L19.2168 46L15.8237 35.4221C16.7361 34.8807 17.4446 34.0513 17.8387 33.0633C18.2329 32.0752 18.2906 30.9839 18.0028 29.9595C17.715 28.9351 17.098 28.035 16.2478 27.3996C15.3976 26.7641 14.362 26.429 13.3024 26.4464C12.2428 26.4637 11.2187 26.8326 10.3896 27.4956C9.5605 28.1586 8.97303 29.0784 8.71871 30.1117C8.46439 31.145 8.5575 32.2338 8.98354 33.2084C9.40958 34.183 10.1446 34.9887 11.0741 35.5L7.71982 45.9575L0 41.4843V25.8281L13.4982 18L27 25.8281Z" fill="#6C7993"/>
</svg>
