<svg width="179" height="64" viewBox="0 0 179 64" fill="none" xmlns="http://www.w3.org/2000/svg">
<g clip-path="url(#clip0_3954_8790)">
<path fill-rule="evenodd" clip-rule="evenodd" d="M29.7688 11V22.5272L14.5027 30.0217V18.5326L29.7688 11ZM48.8513 18.5326V30.0217L33.5853 22.5272V11L48.8513 18.5326ZM29.7688 41.1304V52.6576L14.5027 45.163V33.6359L29.7688 41.1304ZM48.8513 33.6359V45.163L33.5853 52.6576V41.1304L48.8513 33.6359ZM10.6862 18.6087L0 11.1522V53L10.6862 45.5054V18.6087ZM71.7915 43.1484L69.578 45.3169V50.9473H68.2422V35.2734H69.578V43.719L77.6308 35.2734H79.3101L72.7075 42.2734L79.8062 50.9854H78.2033L71.7915 43.1484ZM89.1948 49.4636C88.4315 50.6049 87.1721 51.1375 85.4546 51.1375C84.1952 51.1375 83.2792 50.7951 82.6304 50.0723C81.9816 49.3495 81.6381 48.2843 81.6381 46.8767V39.306H82.9357V46.7245C82.9357 48.931 83.8517 50.0723 85.6455 50.0723C87.5156 50.0723 88.6987 49.3114 89.1948 47.7517V39.306H90.4924V50.9473H89.233L89.1948 49.4636ZM103.24 45.2027C103.24 47.0288 102.82 48.4745 102.018 49.5397C101.217 50.6049 100.11 51.1375 98.7743 51.1375C97.1332 51.1375 95.9119 50.5288 95.0722 49.3114L95.0341 50.9093H93.8128V34.3604H95.1104V40.9419C95.95 39.6864 97.1332 39.0397 98.7743 39.0397C100.148 39.0397 101.255 39.5723 102.056 40.5995C102.858 41.6647 103.278 43.1104 103.278 44.9745V45.2027H103.24ZM101.942 44.9745C101.942 43.4527 101.637 42.2354 101.026 41.3984C100.415 40.5614 99.5757 40.143 98.5071 40.143C97.6675 40.143 96.9805 40.3332 96.408 40.7517C95.8355 41.1701 95.3776 41.7408 95.1104 42.5397V47.7897C95.7592 49.2734 96.9042 49.9962 98.5453 49.9962C99.6139 49.9962 100.454 49.5777 101.064 48.7408C101.675 47.9038 101.942 46.6484 101.942 44.9745ZM110.605 51.1375C109.613 51.1375 108.697 50.9093 107.896 50.4147C107.094 49.9201 106.484 49.2354 106.026 48.3604C105.568 47.4854 105.339 46.4962 105.339 45.431V44.9745C105.339 43.8712 105.568 42.844 105.987 41.931C106.407 41.018 107.018 40.3332 107.819 39.8006C108.583 39.268 109.422 39.0397 110.338 39.0397C111.75 39.0397 112.895 39.5343 113.697 40.4854C114.536 41.4364 114.956 42.768 114.956 44.4419V45.1647H106.598V45.431C106.598 46.7625 106.98 47.8658 107.743 48.7408C108.506 49.6158 109.46 50.0723 110.605 50.0723C111.292 50.0723 111.903 49.9582 112.437 49.6919C112.972 49.4256 113.43 49.0451 113.888 48.4745L114.689 49.0832C113.811 50.4527 112.437 51.1375 110.605 51.1375ZM110.376 40.143C109.422 40.143 108.583 40.4854 107.934 41.2082C107.285 41.931 106.865 42.8821 106.713 44.0614H113.735V43.9093C113.697 42.806 113.391 41.893 112.781 41.1701C112.17 40.4473 111.369 40.143 110.376 40.143ZM129.459 43.9473C129.459 45.393 129.192 46.6484 128.696 47.7517C128.2 48.8549 127.474 49.6919 126.558 50.2625C125.642 50.8332 124.574 51.1375 123.353 51.1375C121.521 51.1375 120.032 50.4908 118.887 49.1593C117.742 47.8658 117.208 46.0777 117.208 43.8712V42.2734C117.208 40.8277 117.475 39.5723 117.971 38.469C118.467 37.3658 119.193 36.5288 120.147 35.9201C121.063 35.3114 122.131 35.0451 123.353 35.0451C124.574 35.0451 125.642 35.3495 126.558 35.9201C127.474 36.4908 128.2 37.3277 128.696 38.393C129.192 39.4582 129.459 40.6756 129.497 42.0832V43.9473H129.459ZM128.123 42.2354C128.123 40.3332 127.703 38.8495 126.826 37.7843C125.986 36.719 124.803 36.1864 123.314 36.1864C121.864 36.1864 120.681 36.719 119.803 37.7843C118.925 38.8495 118.506 40.3712 118.506 42.2734V43.9093C118.506 45.7734 118.925 47.2571 119.803 48.3223C120.681 49.4256 121.826 49.9582 123.314 49.9582C124.803 49.9582 125.986 49.4256 126.826 48.3604C127.665 47.2951 128.085 45.7734 128.085 43.8712V42.2354H128.123ZM133.733 39.268L133.772 41.2462C134.23 40.5234 134.764 39.9908 135.413 39.6103C136.062 39.2299 136.787 39.0397 137.588 39.0397C138.848 39.0397 139.764 39.3821 140.374 40.1049C140.985 40.8277 141.29 41.8549 141.29 43.2625V50.9093H139.993V43.2625C139.993 42.2354 139.764 41.4364 139.344 40.9419C138.924 40.4473 138.199 40.181 137.245 40.181C136.443 40.181 135.718 40.4473 135.107 40.9419C134.497 41.4364 134.039 42.1212 133.733 42.9582V50.9473H132.436V39.306L133.733 39.268ZM149.19 51.1375C148.198 51.1375 147.282 50.9093 146.481 50.4147C145.679 49.9201 145.068 49.2354 144.611 48.3604C144.153 47.4854 143.924 46.4962 143.924 45.431V44.9745C143.924 43.8712 144.153 42.844 144.572 41.931C144.992 41.018 145.603 40.3332 146.404 39.8006C147.168 39.268 148.007 39.0397 148.923 39.0397C150.335 39.0397 151.48 39.5343 152.282 40.4854C153.121 41.4364 153.541 42.768 153.541 44.4419V45.1647H145.183V45.431C145.183 46.7625 145.565 47.8658 146.328 48.7408C147.091 49.6158 148.045 50.0723 149.19 50.0723C149.877 50.0723 150.488 49.9582 151.022 49.6919C151.557 49.4256 152.015 49.0451 152.473 48.4745L153.274 49.0832C152.396 50.4527 150.984 51.1375 149.19 51.1375ZM148.961 40.143C148.007 40.143 147.168 40.4854 146.519 41.2082C145.87 41.931 145.45 42.8821 145.297 44.0614H152.32V43.9093C152.282 42.806 151.976 41.893 151.366 41.1701C150.755 40.4473 149.915 40.143 148.961 40.143ZM73.7026 22.3751C74.0461 22.8317 74.3514 23.2501 74.6186 23.6686L76.8703 23.6306C76.565 23.098 76.1834 22.5653 75.8017 22.0327C75.4201 21.5001 75.0003 21.0056 74.5804 20.511C74.1606 20.0164 73.7408 19.5599 73.2828 19.1414C72.9363 18.7646 72.5639 18.4656 72.2083 18.1801C72.133 18.1197 72.0585 18.0599 71.9852 18.0001L73.1683 16.8208C73.3592 16.6115 73.5595 16.4023 73.7599 16.1931C73.9603 15.9838 74.1606 15.7746 74.3514 15.5653L75.4964 14.3099C75.7016 14.0849 75.8957 13.86 76.0848 13.6409C76.2474 13.4525 76.4062 13.2684 76.565 13.0925H74.2751C74.008 13.3969 73.7408 13.7012 73.3973 14.0816L72.3669 15.223C72.176 15.4132 71.9947 15.6034 71.8134 15.7937C71.6321 15.9839 71.4509 16.1741 71.2601 16.3643L70.1915 17.4295V13.0925H68.2832V23.6306H70.1915V18.9132C70.6113 19.2175 70.9929 19.5219 71.4127 19.9023C71.8326 20.2827 72.2142 20.6632 72.5959 21.0817L72.5961 21.0819C72.9777 21.5003 73.3592 21.9187 73.7026 22.3751ZM82.2516 23.5925C82.7859 23.7827 83.3966 23.8969 84.1217 23.8969C84.8468 23.8969 85.4575 23.7827 85.9918 23.5545C86.5261 23.3643 86.9459 23.0599 87.2894 22.6795C87.6329 22.299 87.9 21.8425 88.0527 21.348C88.2435 20.8534 88.3199 20.2827 88.3199 19.674V13.0925H86.3735V19.4838C86.3735 19.9403 86.3353 20.3588 86.2208 20.7012C86.1063 21.0436 85.9536 21.3099 85.7628 21.5382C85.5338 21.7284 85.3048 21.8806 85.0377 21.9947C84.7705 22.1088 84.4652 22.1469 84.1217 22.1469C83.7782 22.1469 83.4729 22.1088 83.2057 21.9947C82.9386 21.9186 82.7096 21.7664 82.5188 21.5382C82.3279 21.3099 82.1753 21.0436 82.0608 20.7012C81.9463 20.3588 81.9081 19.9784 81.9081 19.4838V13.0925H79.9617V19.7121C79.9617 20.3208 80.038 20.8914 80.1907 21.386C80.3434 21.9186 80.6105 22.3371 80.954 22.7175C81.2975 23.098 81.7173 23.4023 82.2516 23.5925ZM94.121 23.7447C94.6934 23.7827 95.2277 23.7827 95.8002 23.7827C97.4413 23.7827 98.6626 23.5164 99.5022 23.0219C100.304 22.4893 100.685 21.6903 100.685 20.5871C100.685 19.9403 100.533 19.4077 100.227 18.9893C99.9221 18.5708 99.4641 18.2664 98.8153 18.0382C99.2351 17.848 99.5786 17.5436 99.8076 17.2012C100.037 16.8208 100.151 16.4023 100.151 15.9077C100.151 15.3371 100.037 14.9186 99.8076 14.5382C99.5786 14.1958 99.2733 13.8914 98.8534 13.6632C98.4718 13.4349 97.9756 13.2827 97.4413 13.1686C96.8688 13.0545 96.2964 13.0164 95.6476 13.0164H94.9224C94.6553 13.0164 94.3881 13.0164 94.121 13.0545C93.8839 13.0545 93.6768 13.0844 93.4465 13.1178C93.4173 13.122 93.3877 13.1263 93.3577 13.1306C93.0905 13.1686 92.8615 13.2066 92.6325 13.2447V23.5164C93.0523 23.6306 93.5485 23.7067 94.121 23.7447ZM95.8765 17.3914H94.5026V14.6523C94.5712 14.6523 94.6476 14.6446 94.7316 14.6362C94.8345 14.6258 94.949 14.6143 95.0751 14.6143H95.8765C96.5635 14.6143 97.136 14.7284 97.5558 14.9186C97.9756 15.1088 98.2046 15.4893 98.2046 15.9838C98.2046 16.5164 98.0138 16.8969 97.594 17.0871C97.1742 17.2773 96.6017 17.3914 95.8765 17.3914ZM94.5026 22.1088V18.9132L96.22 18.8751C97.0215 18.8751 97.6321 18.9893 98.052 19.2175C98.4718 19.4458 98.7008 19.8643 98.7008 20.473C98.7008 20.8153 98.6244 21.0817 98.4718 21.3099C98.3191 21.5001 98.0901 21.6903 97.8611 21.8045C97.6321 21.9186 97.3268 22.0327 96.9833 22.0708C96.6399 22.1088 96.2582 22.1469 95.8765 22.1469H95.1896C94.9606 22.1469 94.7316 22.1469 94.5026 22.1088ZM104.502 13.0925V23.6686L111.639 23.6306V21.9947H106.41V18.9132H110.761V17.3153H106.41V14.7284H111.295V13.0925H104.502ZM121.791 13.8534C120.989 13.2827 119.806 13.0164 118.279 13.0164C117.86 13.0164 117.402 13.0164 116.867 13.0545C116.333 13.0925 115.837 13.1306 115.379 13.2447V23.6686H117.287V19.674H118.89L118.89 19.6746C119.081 19.9407 119.272 20.2068 119.501 20.511C119.73 20.8153 119.959 21.1577 120.188 21.5001C120.417 21.8425 120.646 22.1849 120.875 22.5653C120.97 22.7556 121.075 22.9363 121.18 23.117C121.285 23.2977 121.39 23.4784 121.485 23.6686H123.623C123.497 23.3248 123.32 23.0066 123.134 22.672C123.094 22.5993 123.053 22.5259 123.012 22.4512C122.783 22.0327 122.554 21.6143 122.287 21.2338C122.13 20.9879 121.973 20.7683 121.824 20.5595C121.719 20.413 121.618 20.2718 121.523 20.1306C121.295 19.8262 121.066 19.5219 120.875 19.2936C122.287 18.799 123.012 17.848 123.012 16.4023C123.012 15.261 122.592 14.424 121.791 13.8534ZM117.287 14.6903C117.631 14.6523 118.012 14.6523 118.432 14.6523C118.814 14.6523 119.157 14.6903 119.424 14.7664C119.73 14.8045 119.997 14.9186 120.226 15.0327C120.455 15.1469 120.646 15.3371 120.76 15.5653C120.875 15.7936 120.951 16.0599 120.951 16.4023C120.951 16.7447 120.875 17.011 120.76 17.2393C120.646 17.4675 120.455 17.6577 120.226 17.7719C119.997 17.886 119.692 18.0001 119.348 18.0382C119.005 18.0762 118.585 18.1143 118.127 18.1143H117.287V14.6903ZM129.825 13.758C129.697 13.513 129.579 13.2877 129.462 13.0925L127.592 13.1306C127.477 13.8534 127.401 14.6523 127.325 15.5273C127.248 16.3623 127.172 17.2729 127.096 18.1838L127.096 18.1903C127.019 19.1034 126.943 20.0164 126.905 20.9675C126.832 21.8426 126.794 22.7176 126.757 23.5592L126.752 23.6686H128.66C128.679 23.0547 128.707 22.4409 128.735 21.8225C128.764 21.1763 128.794 20.5253 128.813 19.8643C128.889 18.5708 128.966 17.3153 129.08 16.098C129.171 16.2785 129.261 16.4829 129.371 16.7298C129.4 16.7951 129.43 16.8633 129.462 16.9349C129.614 17.2773 129.767 17.6197 129.958 18.0001C130.08 18.2434 130.186 18.4866 130.297 18.7398C130.36 18.8826 130.423 19.0286 130.492 19.1795C130.553 19.3129 130.614 19.4425 130.674 19.5694C130.801 19.8406 130.923 20.0997 131.027 20.3588C131.179 20.7389 131.332 21.081 131.484 21.4231L131.485 21.424C131.566 21.5872 131.637 21.7503 131.703 21.9017C131.76 22.0328 131.813 22.1551 131.866 22.261H133.316C133.407 22.0805 133.498 21.8761 133.607 21.6291C133.636 21.5639 133.666 21.4956 133.698 21.424C133.851 21.0817 134.003 20.7393 134.156 20.3588C134.278 20.1156 134.385 19.8723 134.495 19.6191C134.558 19.4763 134.622 19.3304 134.69 19.1795C134.759 19.0286 134.823 18.8826 134.886 18.7398C134.996 18.4866 135.103 18.2434 135.225 18.0001C135.416 17.6197 135.568 17.2773 135.721 16.9349C135.753 16.8635 135.783 16.7953 135.812 16.7301C135.921 16.483 136.012 16.2786 136.103 16.098C136.217 17.3153 136.332 18.5708 136.37 19.8643C136.444 21.1523 136.482 22.3692 136.519 23.5493L136.522 23.6686H138.431C138.412 23.2454 138.385 22.8132 138.357 22.3765C138.328 21.9103 138.298 21.4389 138.278 20.9675C138.24 20.5111 138.211 20.0547 138.183 19.5982C138.154 19.1416 138.125 18.685 138.087 18.2284C138.011 17.3195 137.935 16.4483 137.859 15.5773L137.858 15.5653C137.813 15.0472 137.754 14.5423 137.698 14.0587C137.66 13.7257 137.622 13.4028 137.591 13.0925H135.874C135.645 13.473 135.377 13.9295 135.11 14.5001L135.11 14.5007C134.843 15.0331 134.538 15.6416 134.271 16.2501C134.162 16.4973 134.047 16.7444 133.931 16.9941C133.762 17.3593 133.59 17.7301 133.431 18.1143C133.164 18.723 132.897 19.3317 132.668 19.8643C132.58 19.6592 132.486 19.4486 132.388 19.2301C132.233 18.881 132.069 18.512 131.904 18.1143C131.771 17.81 131.628 17.4963 131.485 17.1825C131.342 16.8686 131.198 16.5546 131.065 16.2501C130.905 15.8856 130.731 15.5347 130.56 15.1892C130.446 14.9579 130.332 14.729 130.225 14.5001C130.076 14.2408 129.946 13.9905 129.825 13.758ZM149.308 22.4512C149.46 22.8317 149.613 23.2501 149.766 23.6686H151.903C151.785 23.3493 151.671 23.039 151.56 22.7368C151.273 21.9586 151.005 21.2341 150.758 20.549C150.59 20.131 150.43 19.7202 150.274 19.3201C150.074 18.8099 149.882 18.317 149.689 17.848L149.689 17.8467C149.345 17.0102 149.002 16.1737 148.659 15.4132L147.628 13.1306H145.796L144.766 15.4132C144.423 16.174 144.079 17.011 143.736 17.848C143.392 18.6849 143.049 19.598 142.705 20.549C142.323 21.5001 141.942 22.5273 141.56 23.6686H143.545C143.659 23.2882 143.812 22.8697 143.965 22.4512C144.079 22.0327 144.232 21.6143 144.384 21.1958H148.85L149.308 22.4512ZM145.873 17.1251C146.178 16.3262 146.445 15.6795 146.674 15.1469C146.787 15.4621 146.927 15.8173 147.085 16.2204C147.195 16.4983 147.313 16.7991 147.438 17.1251C147.665 17.6915 147.892 18.3001 148.135 18.9508C148.219 19.1743 148.304 19.4026 148.392 19.636H144.919C145.006 19.403 145.092 19.1749 145.175 18.9519C145.418 18.3007 145.645 17.6918 145.873 17.1251ZM161.368 14.7664V13.0925H152.933V14.7664H156.177V23.6686H158.124V14.7664H161.368ZM166.596 13.0925H164.688V23.6306H166.596V13.0925ZM173.542 23.5164C174.191 23.7827 174.878 23.8969 175.68 23.8969C176.061 23.8969 176.481 23.8969 176.825 23.8588C177.168 23.8208 177.512 23.7447 177.779 23.6686C178.046 23.5925 178.313 23.5164 178.504 23.4403C178.695 23.3643 178.886 23.2882 179 23.2121L178.466 21.6523C178.285 21.7426 178.032 21.8329 177.726 21.9421C177.645 21.9709 177.561 22.001 177.473 22.0327C177.016 22.1469 176.481 22.223 175.794 22.223C175.222 22.223 174.764 22.1469 174.344 21.9567C173.962 21.7664 173.619 21.5001 173.352 21.1577C173.085 20.8153 172.894 20.3969 172.779 19.9403C172.665 19.4838 172.588 18.9893 172.588 18.4186C172.588 17.7719 172.665 17.2393 172.817 16.7447C172.97 16.2882 173.199 15.8697 173.504 15.5653C173.81 15.223 174.115 14.9947 174.535 14.8425C174.955 14.6903 175.374 14.6143 175.832 14.6143C176.367 14.6143 176.863 14.6523 177.321 14.8045C177.741 14.9186 178.122 15.0708 178.351 15.223L178.924 13.6632C178.902 13.6525 178.878 13.6388 178.85 13.623C178.777 13.5824 178.679 13.5277 178.542 13.473C178.389 13.3588 178.16 13.2827 177.893 13.2066C177.626 13.1306 177.321 13.0545 176.977 12.9784C176.634 12.9023 176.214 12.8643 175.794 12.8643C175.069 12.8643 174.382 13.0164 173.771 13.2447C173.161 13.473 172.588 13.8534 172.13 14.3099C171.672 14.7664 171.291 15.3371 171.024 16.0219C170.756 16.7066 170.604 17.5056 170.604 18.3806C170.604 19.2936 170.718 20.0545 170.947 20.7393C171.176 21.386 171.52 21.9947 171.94 22.4512C172.359 22.9077 172.894 23.2882 173.542 23.5164Z" fill="#6C7993"/>
</g>
<defs>
<clipPath id="clip0_3954_8790">
<rect width="179" height="64" fill="white"/>
</clipPath>
</defs>
</svg>
