<svg width="236" height="64" viewBox="0 0 236 64" fill="none" xmlns="http://www.w3.org/2000/svg">
<g clip-path="url(#clip0_2690_8068)">
<path d="M50.2183 4.66246C50.8167 4.99203 51.8744 5.57394 52.4723 5.90236C52.7179 6.03776 53.1171 6.03776 53.3627 5.90236L55.6167 4.66246C55.8623 4.52879 55.8623 4.3081 55.6167 4.1727L53.3627 2.93281C53.1171 2.79798 52.7179 2.79798 52.4723 2.93281L50.2183 4.1727C49.9715 4.3081 49.9715 4.52879 50.2183 4.66246Z" fill="currentColor"/>
<path d="M53.1445 7.05591V9.49424C53.1445 9.77713 53.3438 9.8964 53.5895 9.75985L55.8434 8.51995C56.0897 8.38513 56.2884 8.04634 56.2884 7.76402V5.32625C56.2884 5.04393 56.0897 4.92466 55.8434 5.05948C55.245 5.38904 54.1879 5.97099 53.5895 6.29941C53.3438 6.43481 53.1445 6.77359 53.1445 7.05591Z" fill="currentColor"/>
<path d="M53.962 10.6078C54.5604 10.9373 55.6175 11.5181 56.216 11.8477C56.4616 11.9831 56.8613 11.9831 57.1064 11.8477L59.3609 10.6078C59.606 10.473 59.606 10.2534 59.3609 10.118L57.1064 8.87812C56.8613 8.7433 56.4616 8.7433 56.216 8.87812L53.962 10.118C53.7158 10.2534 53.7158 10.473 53.962 10.6078Z" fill="currentColor"/>
<path d="M56.8828 12.998V15.4363C56.8822 15.7181 57.0821 15.8373 57.3283 15.702L59.5823 14.4621C59.8279 14.3261 60.0272 13.9884 60.0272 13.7061V11.2672C60.0272 10.986 59.8279 10.8668 59.5823 11.0016C58.9839 11.3311 57.9267 11.9119 57.3283 12.2415C57.0821 12.3769 56.8828 12.7157 56.8828 12.998Z" fill="currentColor"/>
<path d="M57.5401 16.6751C58.1386 17.0047 59.1957 17.5866 59.7941 17.9151C60.0397 18.0505 60.4395 18.0505 60.6845 17.9151L62.9391 16.6751C63.1841 16.5415 63.1841 16.3208 62.9391 16.1854L60.6845 14.9455C60.4395 14.8107 60.0397 14.8107 59.7941 14.9455L57.5401 16.1854C57.2939 16.3208 57.2939 16.5415 57.5401 16.6751Z" fill="currentColor"/>
<path d="M60.4609 19.0676V21.506C60.4604 21.7889 60.6602 21.9081 60.9065 21.7716L63.1604 20.5316C63.4061 20.3968 63.6053 20.0581 63.6053 19.7757V17.338C63.6053 17.0556 63.4061 16.9364 63.1604 17.0712C62.562 17.4008 61.5049 17.9827 60.9065 18.3111C60.6602 18.4465 60.4609 18.7853 60.4609 19.0676Z" fill="currentColor"/>
<path d="M51.1339 16.6751C51.7323 17.0047 52.79 17.5866 53.3878 17.9151C53.6335 18.0505 54.0332 18.0505 54.2789 17.9151L56.5328 16.6751C56.7785 16.5415 56.7785 16.3208 56.5328 16.1854L54.2789 14.9455C54.0332 14.8107 53.6335 14.8107 53.3878 14.9455L51.1339 16.1854C50.8877 16.3208 50.8877 16.5415 51.1339 16.6751Z" fill="currentColor"/>
<path d="M54.0645 19.0676V21.506C54.0639 21.7889 54.2637 21.9081 54.5094 21.7716L56.7633 20.5316C57.0096 20.3968 57.2083 20.0581 57.2083 19.7757V17.338C57.2083 17.0556 57.0096 16.9364 56.7633 17.0712C56.1649 17.4008 55.1078 17.9827 54.5094 18.3111C54.2637 18.4465 54.0645 18.7853 54.0645 19.0676Z" fill="currentColor"/>
<path d="M47.5148 10.6078C48.1132 10.9373 49.1708 11.5181 49.7687 11.8477C50.0144 11.9831 50.4141 11.9831 50.6597 11.8477L52.9137 10.6078C53.1593 10.473 53.1593 10.2534 52.9137 10.118L50.6597 8.87812C50.4141 8.7433 50.0144 8.7433 49.7687 8.87812L47.5148 10.118C47.2685 10.2534 47.2685 10.473 47.5148 10.6078Z" fill="currentColor"/>
<path d="M50.4434 12.998V15.4363C50.4428 15.7181 50.6426 15.8373 50.8883 15.702L53.1422 14.4621C53.3885 14.3261 53.5872 13.9884 53.5872 13.7061V11.2672C53.5872 10.986 53.3885 10.8668 53.1422 11.0016C52.5438 11.3311 51.4867 11.9119 50.8883 12.2415C50.6426 12.3769 50.4434 12.7157 50.4434 12.998Z" fill="currentColor"/>
<path d="M44.6066 16.6751C45.205 17.0047 46.2621 17.5866 46.8605 17.9151C47.1062 18.0505 47.5059 18.0505 47.751 17.9151L50.0055 16.6751C50.2506 16.5415 50.2506 16.3208 50.0055 16.1854L47.751 14.9455C47.5059 14.8107 47.1062 14.8107 46.8605 14.9455L44.6066 16.1854C44.3603 16.3208 44.3603 16.5415 44.6066 16.6751Z" fill="currentColor"/>
<path d="M47.5371 19.0676V21.506C47.5365 21.7889 47.7364 21.9081 47.9826 21.7716L50.2366 20.5316C50.4822 20.3968 50.6815 20.0581 50.6815 19.7757V17.338C50.6815 17.0556 50.4822 16.9364 50.2366 17.0712C49.6382 17.4008 48.581 17.9827 47.9826 18.3111C47.7364 18.4465 47.5371 18.7853 47.5371 19.0676Z" fill="currentColor"/>
<path d="M20.6486 20.3793C21.8598 19.6746 23.8228 19.6746 25.0357 20.3793L32.1611 24.5184C32.4079 24.6613 32.6416 24.8549 32.8632 25.071L40.9896 20.6022C42.6554 19.6861 42.6554 18.2019 40.9896 17.2858L25.7349 8.894C24.0702 7.97847 21.3702 7.97847 19.7055 8.894L4.44961 17.2858C2.78493 18.2019 2.78493 19.6861 4.45019 20.6022C6.63311 21.8018 9.71739 23.4986 12.7324 25.1562C12.978 24.9022 13.2432 24.6815 13.5238 24.5184L20.6486 20.3793Z" fill="currentColor"/>
<path d="M42.5303 23.2755C40.3617 24.4682 37.3015 26.1518 34.3054 27.8007C34.3346 27.984 34.35 28.1649 34.35 28.3418V36.6207C34.35 38.0282 33.3691 39.7377 32.1568 40.4412L25.0314 44.5804C24.8006 44.7141 24.5366 44.8143 24.2623 44.8973L24.2617 53.2903C24.2617 55.1997 25.6114 56.0046 27.2756 55.0885L42.5309 46.6944C44.1955 45.7788 45.5458 43.4874 45.5458 41.5792V25.0738C45.5458 23.1655 44.1955 22.3594 42.5303 23.2755Z" fill="currentColor"/>
<path d="M13.5218 40.4416C12.3112 39.7381 11.3303 38.0286 11.3303 36.6211V28.3422C11.3303 28.1935 11.3469 28.0397 11.3681 27.8852C8.31131 26.204 5.16748 24.4744 2.95306 23.2558C1.2878 22.3397 -0.0625 23.1451 -0.0625 25.054V41.5548C-0.0625 43.4642 1.2878 45.7544 2.95248 46.6705L18.2078 55.0653C19.8719 55.9814 21.2216 55.1753 21.2216 53.2671L21.2205 44.8383C21.0183 44.7663 20.8231 44.6828 20.6467 44.5808L13.5218 40.4416Z" fill="currentColor"/>
<path d="M29.7978 37.7157C28.4589 36.9799 26.2456 35.7619 24.6543 34.8878C24.388 34.7403 24.1343 34.6021 23.9104 34.4782C23.2673 34.125 22.2257 34.125 21.5826 34.4782L20.829 34.8924L15.6952 37.7157C15.0521 38.0689 15.0521 38.6416 15.6952 38.9965L21.2149 42.0323L21.5826 42.2351C22.2257 42.5883 23.2673 42.5883 23.9104 42.2351L24.2586 42.0438L29.7983 38.9965C30.4409 38.6416 30.4409 38.0689 29.7978 37.7157Z" fill="currentColor"/>
<path d="M20.4162 32.2922C21.0582 31.939 21.5793 31.0546 21.5793 30.3183V29.5848V23.947C21.5793 23.2095 21.0587 22.899 20.4162 23.2527L14.8415 26.3202L14.5289 26.4925C13.8858 26.8457 13.3652 27.7301 13.3652 28.467V28.9862V34.8377C13.3652 35.5746 13.8863 35.8851 14.5289 35.532C15.8339 34.8129 17.9693 33.6393 19.5498 32.7692C19.8613 32.597 20.1591 32.4339 20.4162 32.2922Z" fill="currentColor"/>
<path d="M30.9559 26.5026L30.61 26.3124L25.0673 23.2628C24.4254 22.9096 23.9043 23.219 23.9043 23.9571L23.9049 29.5758V30.3266C23.9049 31.0635 24.4266 31.9479 25.0685 32.3011C25.3273 32.4434 25.6268 32.6088 25.9406 32.7805C27.5211 33.6505 29.6519 34.8218 30.9559 35.5403C31.5978 35.8923 32.1189 35.5829 32.1189 34.8449V29.0066V28.4765C32.1189 27.739 31.5978 26.8558 30.9559 26.5026Z" fill="currentColor"/>
<path d="M71.967 22.4516H73.7809C74.4298 22.4516 74.9588 22.9723 74.9588 23.6166V29.2545C74.9588 29.8979 75.3274 30.0477 75.7825 29.5882L82.0373 23.2829C82.4911 22.8234 83.3887 22.4516 84.0398 22.4516H86.8586C87.5092 22.4516 87.6636 22.8208 87.2059 23.2773L80.8191 29.6216C80.361 30.0776 80.2922 30.8733 80.6669 31.3986L87.8747 41.4904C88.2502 42.0158 88.027 42.4414 87.3759 42.4414H84.8453C84.1947 42.4414 83.3649 42.0136 82.9908 41.4878L77.7313 34.0583C77.3588 33.5316 76.6823 33.4726 76.222 33.9261L75.792 34.35C75.3317 34.8035 74.9588 35.6925 74.9588 36.3367V41.2757C74.9588 41.9199 74.4298 42.4414 73.7809 42.4414H71.967C71.3173 42.4414 70.7891 41.9199 70.7891 41.2757V23.6166C70.7891 22.9723 71.3173 22.4516 71.967 22.4516Z" fill="currentColor"/>
<path d="M91.7484 41.0302C90.3879 39.8644 89.707 38.19 89.707 36.0104V23.6158C89.707 22.9715 90.2352 22.4509 90.885 22.4509H92.698C93.3477 22.4509 93.8759 22.9715 93.8759 23.6158V36.0104C93.8759 37.0547 94.1671 37.9034 94.751 38.5545C95.3368 39.2069 96.3283 39.5329 97.7273 39.5329C99.0502 39.5329 100.027 39.1979 100.66 38.5267C101.293 37.8559 101.607 36.9978 101.607 35.9535V23.6158C101.607 22.9715 102.134 22.4509 102.786 22.4509H104.599C105.25 22.4509 105.777 22.9715 105.777 23.6158V36.0104C105.777 38.1532 105.11 39.817 103.778 41.0002C102.447 42.1857 100.458 42.7773 97.8138 42.7773C95.1304 42.7773 93.1089 42.1951 91.7484 41.0302Z" fill="currentColor"/>
<path d="M114.104 39.0875H117.727C118.742 39.0875 119.533 38.8393 120.098 38.3457C120.662 37.8516 120.945 37.194 120.945 36.3752C120.945 35.4242 120.629 34.7077 119.997 34.223C119.365 33.7374 118.569 33.4953 117.612 33.4953H114.104C113.453 33.4953 112.926 34.0163 112.926 34.6597V37.9226C112.926 38.566 113.453 39.0875 114.104 39.0875ZM119.652 29.8881C120.208 29.4787 120.485 28.8823 120.485 28.0999C120.485 27.741 120.424 27.4201 120.302 27.1373C120.084 26.6368 119.281 26.0362 118.665 25.88C118.326 25.7941 117.947 25.7504 117.526 25.7504H114.104C113.453 25.7504 112.926 26.2719 112.926 26.9162V29.3392C112.926 29.9826 113.453 30.5041 114.104 30.5041H117.44C118.359 30.5041 119.096 30.2992 119.652 29.8881ZM109.935 22.4516H117.957C119.067 22.4516 120.04 22.5778 120.874 22.8294C121.707 23.0809 122.391 23.4403 122.929 23.9057C124.022 24.8563 124.568 26.1055 124.568 27.6516C124.568 28.6783 124.276 29.5206 123.691 30.1824C123.341 30.5781 122.92 30.9135 122.428 31.1856C121.86 31.5017 121.348 31.6686 121.348 31.693C121.348 31.7156 121.866 31.8598 122.445 32.1541C123.103 32.4882 123.66 32.9456 124.122 33.5227C124.821 34.4001 125.173 35.4512 125.173 36.6828C125.173 37.6338 125.023 38.4389 124.726 39.1007C124.43 39.7634 123.973 40.3456 123.36 40.8479C122.766 41.351 122.028 41.7428 121.147 42.0226C120.266 42.3028 119.278 42.4414 118.186 42.4414H109.935C109.284 42.4414 108.758 41.9199 108.758 41.2757V23.6166C108.758 22.9723 109.284 22.4516 109.935 22.4516Z" fill="currentColor"/>
<path d="M128.795 22.4516H141.56C142.211 22.4516 142.738 22.9723 142.738 23.6166V24.6976C142.738 25.341 142.211 25.8625 141.56 25.8625H132.964C132.313 25.8625 131.786 26.3827 131.786 27.027V29.1711C131.786 29.8154 132.313 30.3368 132.964 30.3368H140.209C140.861 30.3368 141.387 30.857 141.387 31.5013V32.4981C141.387 33.1415 140.861 33.663 140.209 33.663H132.964C132.313 33.663 131.786 34.1836 131.786 34.8287V37.8926C131.786 38.5369 132.313 39.0571 132.964 39.0571H141.645C142.296 39.0571 142.822 39.5786 142.822 40.2229V41.2757C142.822 41.9199 142.296 42.4414 141.645 42.4414H128.795C128.145 42.4414 127.617 41.9199 127.617 41.2757V23.6166C127.617 22.9723 128.145 22.4516 128.795 22.4516Z" fill="currentColor"/>
<path d="M146.747 41.1704C145.513 40.243 144.754 38.993 144.469 37.4212C144.354 36.7889 144.874 36.2657 145.525 36.2657H147.251C147.902 36.2657 148.471 36.7941 148.691 37.399C148.921 38.033 149.276 38.516 149.751 38.8501C150.479 39.3638 151.581 39.6188 153.056 39.6188C153.592 39.6188 154.101 39.5739 154.58 39.4802C155.059 39.3874 155.481 39.2368 155.845 39.0323C156.209 38.8274 156.502 38.5609 156.721 38.2362C156.942 37.911 157.051 37.5149 157.051 37.0478C157.051 36.5631 156.932 36.1631 156.692 35.8448C156.454 35.5286 156.113 35.2621 155.672 35.0482C155.232 34.8343 154.699 34.6482 154.077 34.4886C153.455 34.3316 152.75 34.1687 151.965 33.9997C151.045 33.7952 150.158 33.5672 149.305 33.3156C148.453 33.0641 147.705 32.724 147.063 32.2945C146.422 31.8658 145.904 31.3161 145.512 30.6449C145.118 29.9741 144.922 29.1168 144.922 28.0734C144.922 27.0856 145.118 26.2193 145.512 25.4724C145.904 24.7276 146.45 24.103 147.15 23.5999C147.85 23.096 148.677 22.719 149.637 22.4666C150.594 22.2151 151.649 22.0906 152.798 22.0906C155.118 22.0906 156.98 22.6215 158.389 23.6842C159.518 24.5346 160.243 25.6978 160.565 27.1707C160.703 27.8 160.204 28.3249 159.554 28.3249H157.915C157.264 28.3249 156.707 27.7885 156.435 27.2045C156.219 26.7365 155.898 26.3554 155.471 26.0597C154.743 25.5567 153.842 25.3051 152.77 25.3051C151.638 25.3051 150.739 25.519 150.067 25.9477C149.396 26.3772 149.061 26.9453 149.061 27.6529C149.061 28.064 149.153 28.4041 149.334 28.674C149.516 28.9448 149.794 29.1822 150.168 29.3867C150.543 29.5916 151.006 29.7696 151.562 29.9181C152.118 30.0669 152.778 30.2256 153.546 30.3938C154.6 30.6167 155.591 30.8648 156.52 31.1339C157.45 31.4055 158.264 31.764 158.963 32.2111C159.663 32.6581 160.214 33.2262 160.617 33.9154C161.019 34.6072 161.22 35.4923 161.22 36.5725C161.22 37.5787 161.019 38.4775 160.617 39.2715C160.214 40.0625 159.659 40.7251 158.95 41.2547C158.24 41.7856 157.397 42.1925 156.42 42.4723C155.442 42.7495 154.379 42.8906 153.229 42.8906C150.432 42.8906 148.27 42.3178 146.747 41.1704Z" fill="currentColor"/>
<path d="M169.213 31.9017H172.347C173.439 31.9017 174.268 31.6318 174.832 31.0906C175.397 30.5507 175.68 29.8239 175.68 28.9097C175.68 27.9596 175.392 27.2327 174.819 26.7288C174.243 26.2257 173.439 25.9746 172.405 25.9746H169.213C168.562 25.9746 168.036 26.4956 168.036 27.1399V30.7368C168.036 31.3802 168.562 31.9017 169.213 31.9017ZM164.9 22.4516H172.75C173.957 22.4516 175 22.6155 175.881 22.9406C176.763 23.267 177.511 23.729 178.124 24.325C178.699 24.9034 179.149 25.5741 179.476 26.3378C179.801 27.1022 179.965 27.9506 179.965 28.8819C179.965 29.832 179.806 30.6953 179.488 31.4679C179.172 32.2418 178.723 32.9045 178.138 33.4533C177.553 34.0031 176.835 34.4326 175.983 34.7393C175.13 35.0469 174.166 35.2013 173.093 35.2013H169.213C168.562 35.2013 168.036 35.7228 168.036 36.3662V41.2757C168.036 41.9199 167.509 42.4414 166.857 42.4414H164.9C164.25 42.4414 163.723 41.9199 163.723 41.2757V23.6165C163.723 22.9723 164.25 22.4516 164.9 22.4516Z" fill="currentColor"/>
<path d="M187.378 31.287H190.626C191.776 31.287 192.628 31.0303 193.185 30.5174C193.741 30.0053 194.018 29.3478 194.018 28.5473C194.018 27.7268 193.75 27.0509 193.213 26.52C192.677 25.9887 191.853 25.7239 190.742 25.7239H187.378C186.727 25.7239 186.201 26.2445 186.201 26.8888V30.1212C186.201 30.7655 186.727 31.287 187.378 31.287ZM183.21 22.4521H191.46C192.456 22.4521 193.362 22.5872 194.177 22.858C194.991 23.128 195.686 23.5057 196.26 23.99C196.835 24.4747 197.28 25.0569 197.597 25.7371C197.913 26.4173 198.072 27.178 198.072 28.016C198.072 29.1899 197.774 30.2008 197.18 31.0487C196.767 31.6395 196.178 32.1092 195.413 32.4591C194.824 32.7299 194.306 32.8711 194.306 32.8938C194.306 32.9165 194.826 33.0593 195.396 33.3682C195.827 33.6013 196.187 33.8914 196.476 34.2366C196.984 34.8424 197.303 35.7498 197.44 36.963C197.515 37.6706 197.568 38.3273 197.597 38.933C197.625 39.5379 197.658 40.1018 197.685 40.5698C197.697 40.7978 197.692 40.9835 197.692 41.2919C197.692 41.9935 197.171 42.4414 196.543 42.4414H195.191C194.54 42.4414 194.048 42.4213 193.888 41.2782C193.869 41.143 193.848 41.0002 193.832 40.8483C193.784 40.4188 193.741 39.9448 193.701 39.422C193.664 38.9014 193.626 38.3692 193.588 37.8293C193.491 36.7281 193.122 35.8867 192.48 35.2993C191.838 34.7119 190.866 34.4185 189.564 34.4185H187.378C186.727 34.4185 186.201 34.9399 186.201 35.5834V41.2761C186.201 41.9199 185.674 42.4414 185.022 42.4414H183.21C182.558 42.4414 182.031 41.9199 182.031 41.2761V23.6165C182.031 22.9723 182.558 22.4521 183.21 22.4521Z" fill="currentColor"/>
<path d="M207.125 35.0901H210.202C210.853 35.0901 211.222 34.5913 211.025 33.9787L209.541 29.3298C209.444 29.0693 209.353 28.7608 209.267 28.4066C209.181 28.0532 209.09 27.7174 208.995 27.4004C208.945 27.2126 208.897 27.0214 208.848 26.828C208.769 26.5106 208.597 26.4999 208.496 26.819C208.434 27.0154 208.381 27.2092 208.333 27.4004C208.238 27.7174 208.146 28.0532 208.06 28.4066C207.974 28.7608 207.883 29.0693 207.786 29.3298L206.302 33.9787C206.106 34.5913 206.474 35.0901 207.125 35.0901ZM207.729 22.4516H209.686C210.335 22.4516 211.041 22.9428 211.26 23.5481L217.708 41.3441C217.93 41.9499 217.58 42.4414 216.928 42.4414H214.944C214.295 42.4414 213.605 41.9447 213.406 41.3334L212.747 39.3014C212.547 38.6888 211.86 38.1908 211.208 38.1908H206.148C205.498 38.1908 204.813 38.6888 204.617 39.3039L203.972 41.3308C203.778 41.9447 203.092 42.4414 202.441 42.4414H200.572C199.921 42.4414 199.57 41.9499 199.787 41.3441L206.158 23.5494C206.376 22.9428 207.079 22.4516 207.729 22.4516Z" fill="currentColor"/>
<path d="M222.05 33.7049L216.346 23.472C216.034 22.9081 216.305 22.4516 216.957 22.4516H219.142C219.793 22.4516 220.562 22.9145 220.862 23.4852L223.425 28.3784C223.578 28.6958 223.735 29.0184 223.899 29.3435C224.061 29.6699 224.21 29.9723 224.344 30.2526C224.42 30.4168 224.492 30.5781 224.563 30.7386C224.682 31.0102 224.912 31.0243 225.052 30.7531C225.138 30.5884 225.215 30.422 225.294 30.2526C225.427 29.9723 225.574 29.6699 225.738 29.3435C225.901 29.0184 226.06 28.6958 226.213 28.3784L228.726 23.4903C229.022 22.9171 229.787 22.4516 230.437 22.4516H232.451C233.103 22.4516 233.374 22.9081 233.061 23.472L227.356 33.7049C227.043 34.2679 226.788 35.2471 226.788 35.8905V41.2757C226.788 41.9199 226.26 42.4414 225.609 42.4414H223.798C223.147 42.4414 222.62 41.9199 222.62 41.2757V35.8905C222.62 35.2471 222.365 34.2679 222.05 33.7049Z" fill="currentColor"/>
</g>
<defs>
<clipPath id="clip0_2690_8068">
<rect width="236" height="64" fill="white"/>
</clipPath>
</defs>
</svg>
