<svg width="116" height="64" viewBox="0 0 116 64" fill="none" xmlns="http://www.w3.org/2000/svg">
<path d="M14.7674 44.6313L4.95463 30.5253L1.97864 33.4587V44.6313H0V19.3526H1.97864V31.1825L13.9631 19.3526H16.537L6.322 29.2429L17.2769 44.6313H14.7835H14.7674ZM30.3392 44.6313V41.8903C29.2292 43.91 27.2184 45 24.8215 45C20.1082 45 18.9338 41.9223 18.9338 37.7386V27.6239H20.8481V38.0271C20.8481 40.5919 21.3307 43.3329 25.0789 43.3329C28.8271 43.3329 30.3392 40.0308 30.3392 36.7448V27.6239H32.2535V44.6313H30.3392ZM46.2327 45C43.6588 45 41.3102 43.894 39.8624 41.4094V44.6313H37.9481V19.3526H39.8624V30.894C41.5193 28.3292 43.8358 27.3354 46.297 27.3354C51.3643 27.3354 54.6781 31.0703 54.6781 36.1356C54.6781 41.201 51.3643 45 46.2166 45H46.2327ZM46.2327 28.9864C42.0824 28.9864 39.7981 32.1763 39.7981 36.1356C39.7981 40.0949 42.0824 43.2848 46.2327 43.2848C50.383 43.2848 52.6673 40.0629 52.6673 36.1356C52.6673 32.2084 50.3508 28.9864 46.2327 28.9864ZM73.5315 36.5684H59.665C59.8419 40.5919 62.1262 43.2688 65.9869 43.2688C69.8477 43.2688 71.9711 41.0728 71.9711 41.0728L72.8881 42.4353C72.8881 42.4353 70.7486 45 65.7939 45C60.8393 45 57.638 41.3292 57.638 36.1356C57.638 30.942 61.3862 27.3354 65.9065 27.3354C70.4268 27.3354 73.6281 30.7016 73.6281 35.2861C73.6281 35.8311 73.5155 36.5684 73.5155 36.5684H73.5315ZM65.81 28.9864C61.5792 28.9864 59.858 32.545 59.7454 34.9174H71.6977C71.6977 32.7213 70.0407 28.9864 65.81 28.9864ZM78.0518 44.6313V19.3526H80.0305V42.836H89.0711V44.6313H78.0358H78.0518ZM93.5432 23.1677C92.6584 23.1677 91.9667 22.4784 91.9667 21.5968C91.9667 20.7152 92.6584 20.0259 93.5432 20.0259C94.4279 20.0259 95.1197 20.7152 95.1197 21.5968C95.1197 22.4784 94.4279 23.1677 93.5432 23.1677ZM92.578 44.6474V27.64H94.4923V44.6474H92.578ZM113.442 45C111.785 45 110.836 44.2947 110.209 43.1726C109.614 42.0345 109.581 40.7842 109.581 38.0432V29.4353H102.664V44.6474H100.75V29.4353H98.1761V27.7201H100.75V25.4118C100.75 23.0234 101.2 21.7411 101.747 20.9396C102.294 20.106 103.517 19 105.351 19C107.185 19 107.748 19.3687 107.748 19.3687L107.555 21.0197C107.555 21.0197 106.638 20.651 105.721 20.651C102.97 20.651 102.664 22.8471 102.664 25.2355V27.7201H109.581V22.3021H111.528V27.7201H115.823V29.4353H111.48V39.1813C111.48 41.0567 111.705 43.2848 113.989 43.2848C115.083 43.2848 115.823 42.8039 115.823 42.8039L116 44.455C115.373 44.8237 114.536 45 113.426 45H113.442Z" fill="#6C7993"/>
</svg>
