<svg width="199" height="64" viewBox="0 0 199 64" fill="none" xmlns="http://www.w3.org/2000/svg">
<path fill-rule="evenodd" clip-rule="evenodd" d="M33.2846 18.927C33.7406 19.9226 34.1223 20.9593 34.4226 22.0298C35.4333 22.5521 36.4151 23.1419 37.3608 23.7983C36.7327 20.0976 35.2524 16.6866 33.1295 13.7747C39.9194 17.263 44.5639 24.3337 44.5639 32.4879C44.5639 32.8648 44.5539 33.2394 44.5343 33.6114C43.9317 32.3982 43.2301 31.2441 42.44 30.1601L42.3697 30.2138C38.5491 25.2244 33.241 22.0437 27.5413 20.8177C26.2334 20.5889 24.8883 20.4697 23.5155 20.4697C19.9303 20.4697 16.5345 21.2829 13.4961 22.7366C13.2074 23.7612 13.017 24.8058 12.9238 25.8561C16.0364 24.0095 19.6561 22.9524 23.5155 22.9524C26.4196 22.9524 29.188 23.551 31.7067 24.634L31.7362 24.5573C34.692 25.6922 37.3472 27.5871 39.3885 30.1014L39.2879 30.183C41.3161 32.5156 42.8516 35.3023 43.7277 38.3763C42.6899 41.9389 40.7342 45.1108 38.1336 47.6194C39.7542 47.2464 41.3157 46.6927 42.7918 45.9774C45.4729 42.159 47.0466 37.5072 47.0466 32.4879C47.0466 19.8507 37.0712 9.54338 24.5623 9C28.2977 11.2653 31.4376 14.6079 33.4601 18.8434L33.2846 18.927ZM22.1058 9.01946C9.77482 9.75201 0 19.9785 0 32.4879C0 36.1085 0.818848 39.5379 2.28152 42.6012C2.71788 38.3661 4.32374 34.1999 7.15903 30.6108L7.29379 30.7171C7.63827 30.2938 7.99845 29.8843 8.37343 29.4894C8.30462 28.3528 8.30875 27.2071 8.38851 26.059C5.96182 28.1292 3.95388 30.6873 2.51083 33.5829C2.49221 33.2203 2.48278 32.8552 2.48278 32.4879C2.48278 24.3424 7.11732 17.2781 13.8953 13.7859C13.02 14.9882 12.2542 16.2753 11.6126 17.6327L11.6799 17.6623C8.69332 24.4402 8.90602 31.8169 11.6628 38.1059C13.4462 41.8312 16.168 45.0221 19.5221 47.3729C20.5292 47.1022 21.5054 46.7407 22.4394 46.2958C16.6405 42.9101 12.5788 36.8762 11.9146 29.8542L11.8344 29.8652C11.4052 26.7297 11.7872 23.4914 13.008 20.4923L13.0935 20.5271C14.2909 17.2257 16.2788 14.3026 18.8298 11.9854C20.339 11.6417 21.9099 11.4603 23.5233 11.4603C24.4518 11.4603 25.3662 11.5204 26.2629 11.6369C24.9731 10.6072 23.5772 9.73115 22.1058 9.01946ZM25.8943 45.4743L25.9623 45.5665C23.4148 47.4461 20.3882 48.6635 17.1695 49.0304L17.1597 48.9447C16.07 49.1156 14.9531 49.2043 13.8153 49.2043C12.6568 49.2043 11.5205 49.1124 10.4133 48.9358C7.52641 46.6345 5.25891 43.59 3.90079 40.0922C3.56233 41.5773 3.38121 43.0865 3.35449 44.5945C7.46956 51.4277 14.9627 55.9983 23.5233 55.9983C30.6049 55.9983 36.956 52.8706 41.2686 47.9218C37.6733 49.2574 33.6963 49.7205 29.6366 49.0924L29.6649 48.9095C28.9931 48.7973 28.332 48.6538 27.6829 48.4806C26.7616 49.0947 25.7955 49.6551 24.7878 50.156C27.0993 51.0278 29.5816 51.5515 32.1707 51.6632C29.5329 52.8532 26.6055 53.5155 23.5233 53.5155C20.4417 53.5155 17.5149 52.8534 14.8775 51.6639C16.4819 51.5937 18.0452 51.3654 19.5522 50.994L19.5216 50.8805C25.9811 49.1413 31.1855 45.0662 34.47 39.8091C36.1962 36.8455 37.3022 33.4765 37.6101 29.8797C36.875 29.1035 36.0723 28.4027 35.2152 27.7834L35.2153 27.8175C35.2153 35.1501 31.5227 41.6212 25.8943 45.4743ZM58.2844 44.9431V18.8098H60.2844V44.9431H58.2844ZM71.0106 25.5275V32.7409H66.0226H65.0226V33.7409V44.1942V45.1942H66.0226H72.7591V43.1942H67.0226V34.7409H72.0106H73.0106V33.7409V25.5275H71.0106ZM79.2453 44.1942V25.5275H81.2453V43.1942H92.7182V25.5275H94.7182V44.1942V45.1942H93.7182H80.2453H79.2453V44.1942ZM100.202 18.8098V44.1964V45.1964H101.202H114.675H115.675V44.1964V26.2764V25.2764H114.675H104.945V27.2764H113.675V43.1964H102.202V18.8098H100.202ZM120.417 25.2775H121.417H134.89H135.89V26.2775V33.7442V34.7442H134.89H124.411V32.7442H133.89V27.2775H122.417V43.1975H134.89V45.1975H121.417H120.417V44.1975V26.2775V25.2775ZM141.628 27.2775H154.101V43.1975H143.377V34.7442H152.856V32.7442H142.377H141.377V33.7442V44.1975V45.1975H142.377H155.101H156.101V44.1975V26.2775V25.2775H155.101H141.628V27.2775ZM162.331 25.2775H163.331H176.056V27.2775H164.331V31.9975H176.056H177.056V32.9975V44.1975V45.1975H176.056H163.331V43.1975H175.056V33.9975H163.331H162.331V32.9975V26.2775V25.2775ZM197.011 25.2775H198.011V26.2775V32.9975V33.9975H197.011H185.287V43.1975H197.011V45.1975H184.287H183.287V44.1975V32.9975V31.9975H184.287H196.011V27.2775H184.287V25.2775H197.011Z" fill="#6C7993"/>
</svg>
