<svg xmlns="http://www.w3.org/2000/svg" xml:space="preserve" width="100%" height="100%" style="fill-rule:evenodd;clip-rule:evenodd;stroke-linejoin:round;stroke-miterlimit:2" version="1.1" viewBox="0 0 596 87"><path d="M1018.89 5.746H899.246L694.887 336.211V5.746H581.07v481.465h148.418l175.578-275.809v275.809h113.824V5.746M1490.66 5.746h-348.25v481.465h348.25v-93.129h-224.73V310.98h208.56v-93.113h-208.56V98.871h224.73V5.746M1971.47 394.082h-150.36V5.746h-124.17v388.336h-150.35v93.129h424.88v-93.129M2672.26 483.992 2444.03 8.625h-73.15l-14.04 393.637L2172.38 8.625h-70.31l-19.47 475.367h64.23l12.65-394.598 186.14 394.598h64.2l12.95-398.711 187.52 398.711h61.97M2958.78 194.109l-30.16 233.961-137.73-233.961h167.89Zm86.83-185.484h-64.1l-16.13 133.449h-204.71L2682.74 8.625h-66.86l282.86 475.367h83.64l63.23-475.367M3562.29 483.992l-227.58-266.898L3286.5 8.625h-63.9l46.68 201.77-106.07 273.597h67.81l82.44-213.605 179.61 213.605h69.22M3684.25 0c-30.87 0-60.25 3.254-88.12 9.742-27.89 6.488-55.22 16.446-82.05 29.848l15.32 72.476h4.48c20.43-19.371 45.49-34.214 75.18-44.543 29.69-10.328 58.37-15.472 86.03-15.472 45.34 0 80.09 8.984 104.25 26.969 24.15 17.984 36.23 40.918 36.23 68.8 0 14.684-4.31 26.922-12.93 36.711-8.62 9.789-21.22 17.028-37.84 21.703-13.83 3.84-30.28 7.512-49.31 11.02-19.05 3.516-37.2 7.289-54.44 11.336-33.41 7.445-59.28 20.215-77.57 38.308-18.32 18.098-27.46 40.547-27.46 67.364 0 45.336 19.2 83.051 57.63 113.176 38.41 30.117 88.05 45.167 148.93 45.167 33.19 0 63.36-3.46 90.51-10.375 27.12-6.91 50.47-15.054 70.06-24.421l-14.36-67.996h-4.46c-15.12 13.839-36.67 25.753-64.66 35.753-27.99 10.004-57.41 15.004-88.26 15.004-38.75 0-69.66-8.515-92.75-25.543-23.09-17.023-34.64-38.617-34.64-64.804 0-14.047 4.14-26.387 12.45-37.035 8.31-10.645 23.08-18.629 44.38-23.934 13.61-3.195 31.71-7.09 54.27-11.656 22.56-4.582 41.5-8.887 56.83-12.934 30.22-8.301 53.15-20.652 68.79-37.031 15.65-16.395 23.47-37.031 23.47-61.942 0-20.847-5.12-41.613-15.33-62.25-10.21-20.64-24.48-38.308-42.78-52.992-19.58-15.754-42.52-28.101-68.79-37.035C3751.02 4.477 3720 0 3684.25 0M0 5.973h486.184v477.8H0V5.973M4467.84 249.066l-201.18-117.351L4057.09 5.973v477.8l209.57-117.351 201.18-117.356M4397.52 576.18c0 2.554-.49 4.824-1.48 6.812-1 1.988-2.66 3.613-5 4.895a20.852 20.852 0 0 1-7.03 2.343c-2.49.344-5.6.532-9.36.532h-15.86v-32.887h13.51c4.41 0 8.21.332 11.4 1.016 3.18.668 5.81 1.828 7.86 3.453 2.2 1.773 3.75 3.719 4.63 5.855.9 2.121 1.33 4.793 1.33 7.981Zm37.47-69.485h-23.73l-35.23 37.778h-17.24v-37.778h-17.56v97.371h33.21c6.66 0 12.16-.289 16.5-.859 4.31-.566 8.57-1.949 12.76-4.141 4.47-2.421 7.75-5.351 9.84-8.789 2.1-3.437 3.15-7.742 3.15-12.929 0-6.875-2.01-12.614-6.03-17.192-4-4.566-9.51-8.203-16.54-10.894l40.87-42.567Zm20.43 46.825c0 21.992-7.78 40.855-23.36 56.601-15.58 15.754-34.35 23.633-56.34 23.633-22.01 0-40.78-7.879-56.35-23.633-15.58-15.746-23.36-34.609-23.36-56.601 0-22.008 7.78-40.868 23.36-56.618 15.57-15.75 34.34-23.632 56.35-23.632 21.99 0 40.76 7.882 56.34 23.632 15.58 15.75 23.36 34.61 23.36 56.618Zm12.34 0c0-25.407-8.99-47.098-26.97-65.082-17.99-17.985-39.68-26.977-65.07-26.977-25.41 0-47.1 8.992-65.09 26.977-17.97 17.984-26.97 39.675-26.97 65.082 0 25.39 9 47.085 26.97 65.07 17.99 17.976 39.68 26.976 65.09 26.976 25.39 0 47.08-9 65.07-26.976 17.98-17.985 26.97-39.68 26.97-65.07" style="fill:#6c7993" transform="matrix(.133333 0 0 -.133333 0 86.08)"/></svg>