<svg xmlns="http://www.w3.org/2000/svg" width="164" height="64" fill="none" viewBox="0 0 164 64"><g clip-path="url(#a)"><path fill="#6C7993" fill-rule="evenodd" d="M37.382 43.476h-4.39L25.495 31.35v12.125h-4.176V25.81h5.445l6.442 10.12V25.81h4.176v17.665Zm17.309 0H41.914V25.81H54.69v3.417h-8.245v3.049h7.651v3.416h-7.651v4.366h8.245v3.417Zm17.64-14.248h-5.516v14.248h-4.556V29.228h-5.516v-3.417H72.33v3.417Zm25.711-3.299L89.67 43.37h-2.684l-.515-14.442-6.768 14.442h-2.58l-.714-17.44h2.357l.464 14.477 6.83-14.478h2.355l.475 14.629 6.88-14.629h2.273Zm10.513 10.636-1.107-8.584-5.053 8.584h6.16Zm3.185 6.805h-2.352l-.591-4.896h-7.511l-2.86 4.896h-2.452l10.378-17.44h3.068l2.32 17.44Zm18.957-17.44-8.35 9.792-1.769 7.648h-2.344l1.712-7.403-3.891-10.038h2.488l3.024 7.837 6.59-7.837h2.54Zm4.474 17.757c-1.132 0-2.21-.12-3.233-.358a13.63 13.63 0 0 1-3.01-1.095l.562-2.66h.164c.75.712 1.669 1.256 2.759 1.635 1.089.38 2.141.568 3.156.568 1.663 0 2.938-.33 3.825-.99.886-.66 1.329-1.5 1.329-2.524 0-.539-.158-.988-.474-1.347-.317-.359-.779-.624-1.389-.796a21.273 21.273 0 0 0-1.809-.404 42.334 42.334 0 0 1-1.997-.416c-1.226-.273-2.175-.742-2.846-1.406-.672-.664-1.008-1.487-1.008-2.471 0-1.663.705-3.047 2.115-4.152 1.409-1.105 3.23-1.658 5.464-1.658 1.218 0 2.325.127 3.321.381.995.253 1.851.552 2.57.896l-.527 2.495h-.163c-.555-.508-1.346-.945-2.373-1.312a9.546 9.546 0 0 0-3.238-.55c-1.422 0-2.556.312-3.403.937-.847.624-1.271 1.416-1.271 2.377 0 .516.152.968.457 1.359.305.39.847.684 1.628.878.5.117 1.164.26 1.991.428.828.168 1.523.326 2.085.474 1.109.305 1.95.758 2.524 1.359.574.601.861 1.358.861 2.273 0 .764-.187 1.526-.562 2.283a5.72 5.72 0 0 1-1.57 1.945c-.718.578-1.56 1.03-2.523 1.358-.965.328-2.103.492-3.415.492ZM0 43.467h17.838v-17.53H0v17.53Zm163.92-8.918-7.381 4.305-7.689 4.613v-17.53l7.689 4.306 7.381 4.306Zm-2.58-12.002a.557.557 0 0 0-.054-.25.423.423 0 0 0-.183-.18.773.773 0 0 0-.258-.085 2.584 2.584 0 0 0-.344-.02h-.582v1.207h.496c.162 0 .301-.013.418-.038a.684.684 0 0 0 .289-.126.56.56 0 0 0 .17-.215.757.757 0 0 0 .048-.293Zm1.375 2.55h-.871l-1.292-1.387h-.633v1.386h-.644v-3.572h1.219c.244 0 .446.01.605.031.158.021.314.072.468.152a.923.923 0 0 1 .361.323.896.896 0 0 1 .116.474.92.92 0 0 1-.222.631c-.146.167-.348.3-.606.4l1.499 1.561Zm.75-1.719a2.85 2.85 0 0 0-.857-2.076 2.803 2.803 0 0 0-2.067-.867 2.8 2.8 0 0 0-2.068.867 2.85 2.85 0 0 0-.857 2.076c0 .808.286 1.5.857 2.078a2.8 2.8 0 0 0 2.068.867c.806 0 1.495-.29 2.067-.867a2.85 2.85 0 0 0 .857-2.078Zm.452 0c0 .933-.329 1.728-.989 2.388-.66.66-1.456.99-2.387.99-.933 0-1.728-.33-2.389-.99a3.256 3.256 0 0 1-.989-2.387c0-.932.33-1.728.989-2.388a3.258 3.258 0 0 1 2.389-.99c.931 0 1.727.33 2.387.99.66.66.989 1.456.989 2.387Z" clip-rule="evenodd"/></g><defs><clipPath id="a"><path fill="white" d="M0 20h164v24H0z"/></clipPath></defs></svg>