 <?xml version="1.0" encoding="utf-8"?>
<!-- Generator: Adobe Illustrator 28.0.0, SVG Export Plug-In . SVG Version: 6.00 Build 0)  -->
<svg version="1.1" id="Layer_1" xmlns="http://www.w3.org/2000/svg" xmlns:xlink="http://www.w3.org/1999/xlink" x="0px" y="0px"
	 viewBox="0 0 300 44" style="enable-background:new 0 0 300 44;margin-left:20px;" xml:space="preserve">
<style type="text/css">
	.st0{fill-rule:evenodd;clip-rule:evenodd;fill:#6C7993;}
</style>
<g id="surface1">
	<path class="st0" d="M24.1,29.7h-2.8l-4.9-9.4v9.4h-2.7V15.9h3.5l4.1,7.9v-7.9h2.7L24.1,29.7"/>
	<path class="st0" d="M35.1,29.7H27V15.9h8.1v2.7h-5.2V21h4.9v2.7h-4.9v3.4h5.2V29.7"/>
	<path class="st0" d="M46.4,18.6h-3.5v11.1H40V18.6h-3.5v-2.7h9.9L46.4,18.6"/>
	<path class="st0" d="M62.9,16.1l-5.3,13.6h-1.7l-0.4-11.2l-4.4,11.2h-1.7l-0.4-13.6h1.5l0.2,11.2l4.4-11.2h1.5L57,27.4l4.5-11.3
		H62.9"/>
	<path class="st0" d="M69.6,24.4L69,17.7l-3.3,6.6H69.6z M71.6,29.7h-1.5l-0.4-3.8H65l-1.8,3.8h-1.6l6.7-13.6h1.9L71.6,29.7"/>
	<path class="st0" d="M83.8,16.1l-5.3,7.6l-1.1,6h-1.5L77,24l-2.5-7.8H76l1.9,6.1l4.2-6.1h1.6"/>
	<path class="st0" d="M86.7,30c-0.7,0-1.5-0.1-2.1-0.3s-1.3-0.5-1.9-0.9l0.4-2h0.1c0.5,0.5,1.1,1,1.8,1.3c0.7,0.3,1.3,0.4,2.1,0.4
		c1.1,0,1.8-0.3,2.4-0.8c0.6-0.5,0.8-1.1,0.8-1.9c0-0.4-0.1-0.8-0.4-1c-0.2-0.3-0.5-0.5-0.8-0.6c-0.4-0.1-0.7-0.3-1.2-0.3
		c-0.5-0.1-0.8-0.3-1.3-0.4c-0.7-0.3-1.3-0.6-1.8-1.1c-0.5-0.5-0.6-1.1-0.6-1.9c0-1.3,0.5-2.4,1.3-3.2c0.8-0.9,2.1-1.3,3.5-1.3
		c0.7,0,1.5,0.1,2.2,0.3c0.6,0.3,1.2,0.4,1.7,0.6l-0.4,1.9h-0.1c-0.4-0.4-0.8-0.8-1.6-1c-0.6-0.3-1.3-0.4-2.1-0.4
		c-1,0-1.6,0.3-2.2,0.8c-0.6,0.4-0.8,1-0.8,1.8c0,0.4,0.1,0.8,0.2,1c0.2,0.3,0.5,0.5,1.1,0.6c0.4,0.1,0.7,0.3,1.2,0.4s1,0.3,1.3,0.4
		c0.7,0.3,1.2,0.6,1.6,1c0.4,0.5,0.6,1,0.6,1.8c0,0.6-0.1,1.1-0.4,1.8c-0.2,0.6-0.6,1.1-1,1.5c-0.5,0.5-1,0.8-1.6,1
		C88.3,29.8,87.5,30,86.7,30"/>
	<path class="st0" d="M0.2,29.7h11.4V16.1H0.2V29.7"/>
	<path class="st0" d="M105,22.8l-4.7,3.3l-4.9,3.6V16.1l4.9,3.3L105,22.8"/>
	<path class="st0" d="M103.4,13.4c0-0.1,0-0.1,0-0.3l-0.1-0.1c0,0-0.1,0-0.1-0.1c0,0-0.1,0-0.2,0h-0.4v1h0.4c0.1,0,0.2,0,0.2,0
		c0.1,0,0.1,0,0.2-0.1l0.1-0.1C103.4,13.6,103.4,13.5,103.4,13.4z M104.3,15.4h-0.6l-0.8-1h-0.4v1h-0.4v-2.8h0.7c0.1,0,0.2,0,0.4,0
		c0.1,0,0.2,0,0.2,0.1c0.1,0.1,0.2,0.1,0.2,0.3c0,0.1,0.1,0.3,0.1,0.4c0,0.3,0,0.4-0.1,0.5c-0.1,0.1-0.2,0.3-0.4,0.3L104.3,15.4z
		 M104.8,14c0-0.6-0.1-1.1-0.6-1.7c-0.4-0.5-0.8-0.6-1.3-0.6s-1,0.3-1.3,0.6c-0.4,0.5-0.6,1-0.6,1.7s0.2,1.1,0.6,1.7
		s0.8,0.6,1.3,0.6s1-0.3,1.3-0.6C104.6,15.3,104.8,14.7,104.8,14z M105,14c0,0.8-0.2,1.4-0.6,1.9c-0.4,0.5-1,0.8-1.6,0.8
		s-1.1-0.3-1.6-0.8c-0.4-0.5-0.6-1.1-0.6-1.9c0-0.8,0.2-1.4,0.6-1.9c0.4-0.5,1-0.8,1.6-0.8s1.1,0.3,1.6,0.8
		C104.9,12.7,105,13.4,105,14"/>
</g>
</svg>
