<?xml version="1.0" encoding="UTF-8" standalone="no"?>
<!DOCTYPE svg PUBLIC "-//W3C//DTD SVG 1.1//EN" "http://www.w3.org/Graphics/SVG/1.1/DTD/svg11.dtd">
<svg width="100%" height="100%" viewBox="0 0 596 87" version="1.1" xmlns="http://www.w3.org/2000/svg" xmlns:xlink="http://www.w3.org/1999/xlink" xml:space="preserve" xmlns:serif="http://www.serif.com/" style="fill-rule:evenodd;clip-rule:evenodd;stroke-linejoin:round;stroke-miterlimit:2;">
    <g transform="matrix(0.133333,0,0,-0.133333,0,86.08)">
        <g id="g10">
            <g id="g12">
                <path id="path14" d="M1018.89,5.746L899.246,5.746L694.887,336.211L694.887,5.746L581.07,5.746L581.07,487.211L729.488,487.211L905.066,211.402L905.066,487.211L1018.89,487.211L1018.89,5.746" style="fill:#6C7993;"/>
                <path id="path16" d="M1490.66,5.746L1142.41,5.746L1142.41,487.211L1490.66,487.211L1490.66,394.082L1265.93,394.082L1265.93,310.98L1474.49,310.98L1474.49,217.867L1265.93,217.867L1265.93,98.871L1490.66,98.871L1490.66,5.746" style="fill:#6C7993;"/>
                <path id="path18" d="M1971.47,394.082L1821.11,394.082L1821.11,5.746L1696.94,5.746L1696.94,394.082L1546.59,394.082L1546.59,487.211L1971.47,487.211L1971.47,394.082" style="fill:#6C7993;"/>
                <path id="path20" d="M2672.26,483.992L2444.03,8.625L2370.88,8.625L2356.84,402.262L2172.38,8.625L2102.07,8.625L2082.6,483.992L2146.83,483.992L2159.48,89.394L2345.62,483.992L2409.82,483.992L2422.77,85.281L2610.29,483.992L2672.26,483.992" style="fill:#6C7993;"/>
                <path id="path22" d="M2958.78,194.109L2928.62,428.07L2790.89,194.109L2958.78,194.109ZM3045.61,8.625L2981.51,8.625L2965.38,142.074L2760.67,142.074L2682.74,8.625L2615.88,8.625L2898.74,483.992L2982.38,483.992L3045.61,8.625" style="fill:#6C7993;"/>
                <path id="path24" d="M3562.29,483.992L3334.71,217.094L3286.5,8.625L3222.6,8.625L3269.28,210.395L3163.21,483.992L3231.02,483.992L3313.46,270.387L3493.07,483.992L3562.29,483.992" style="fill:#6C7993;"/>
                <path id="path26" d="M3684.25,0C3653.38,0 3624,3.254 3596.13,9.742C3568.24,16.23 3540.91,26.188 3514.08,39.59L3529.4,112.066L3533.88,112.066C3554.31,92.695 3579.37,77.852 3609.06,67.523C3638.75,57.195 3667.43,52.051 3695.09,52.051C3740.43,52.051 3775.18,61.035 3799.34,79.02C3823.49,97.004 3835.57,119.938 3835.57,147.82C3835.57,162.504 3831.26,174.742 3822.64,184.531C3814.02,194.32 3801.42,201.559 3784.8,206.234C3770.97,210.074 3754.52,213.746 3735.49,217.254C3716.44,220.77 3698.29,224.543 3681.05,228.59C3647.64,236.035 3621.77,248.805 3603.48,266.898C3585.16,284.996 3576.02,307.445 3576.02,334.262C3576.02,379.598 3595.22,417.313 3633.65,447.438C3672.06,477.555 3721.7,492.605 3782.58,492.605C3815.77,492.605 3845.94,489.145 3873.09,482.23C3900.21,475.32 3923.56,467.176 3943.15,457.809L3928.79,389.813L3924.33,389.813C3909.21,403.652 3887.66,415.566 3859.67,425.566C3831.68,435.57 3802.26,440.57 3771.41,440.57C3732.66,440.57 3701.75,432.055 3678.66,415.027C3655.57,398.004 3644.02,376.41 3644.02,350.223C3644.02,336.176 3648.16,323.836 3656.47,313.188C3664.78,302.543 3679.55,294.559 3700.85,289.254C3714.46,286.059 3732.56,282.164 3755.12,277.598C3777.68,273.016 3796.62,268.711 3811.95,264.664C3842.17,256.363 3865.1,244.012 3880.74,227.633C3896.39,211.238 3904.21,190.602 3904.21,165.691C3904.21,144.844 3899.09,124.078 3888.88,103.441C3878.67,82.801 3864.4,65.133 3846.1,50.449C3826.52,34.695 3803.58,22.348 3777.31,13.414C3751.02,4.477 3720,0 3684.25,0" style="fill:#6C7993;"/>
                <path id="path28" d="M0,5.973L486.184,5.973L486.184,483.773L0,483.773L0,5.973" style="fill:#6C7993;"/>
                <path id="path30" d="M4467.84,249.066L4266.66,131.715L4057.09,5.973L4057.09,483.773L4266.66,366.422L4467.84,249.066" style="fill:#6C7993;"/>
                <path id="path32" d="M4397.52,576.18C4397.52,578.734 4397.03,581.004 4396.04,582.992C4395.04,584.98 4393.38,586.605 4391.04,587.887C4388.84,589.086 4386.5,589.867 4384.01,590.23C4381.52,590.574 4378.41,590.762 4374.65,590.762L4358.79,590.762L4358.79,557.875L4372.3,557.875C4376.71,557.875 4380.51,558.207 4383.7,558.891C4386.88,559.559 4389.51,560.719 4391.56,562.344C4393.76,564.117 4395.31,566.063 4396.19,568.199C4397.09,570.32 4397.52,572.992 4397.52,576.18ZM4434.99,506.695L4411.26,506.695L4376.03,544.473L4358.79,544.473L4358.79,506.695L4341.23,506.695L4341.23,604.066L4374.44,604.066C4381.1,604.066 4386.6,603.777 4390.94,603.207C4395.25,602.641 4399.51,601.258 4403.7,599.066C4408.17,596.645 4411.45,593.715 4413.54,590.277C4415.64,586.84 4416.69,582.535 4416.69,577.348C4416.69,570.473 4414.68,564.734 4410.66,560.156C4406.66,555.59 4401.15,551.953 4394.12,549.262L4434.99,506.695ZM4455.42,553.52C4455.42,575.512 4447.64,594.375 4432.06,610.121C4416.48,625.875 4397.71,633.754 4375.72,633.754C4353.71,633.754 4334.94,625.875 4319.37,610.121C4303.79,594.375 4296.01,575.512 4296.01,553.52C4296.01,531.512 4303.79,512.652 4319.37,496.902C4334.94,481.152 4353.71,473.27 4375.72,473.27C4397.71,473.27 4416.48,481.152 4432.06,496.902C4447.64,512.652 4455.42,531.512 4455.42,553.52ZM4467.76,553.52C4467.76,528.113 4458.77,506.422 4440.79,488.438C4422.8,470.453 4401.11,461.461 4375.72,461.461C4350.31,461.461 4328.62,470.453 4310.63,488.438C4292.66,506.422 4283.66,528.113 4283.66,553.52C4283.66,578.91 4292.66,600.605 4310.63,618.59C4328.62,636.566 4350.31,645.566 4375.72,645.566C4401.11,645.566 4422.8,636.566 4440.79,618.59C4458.77,600.605 4467.76,578.91 4467.76,553.52" style="fill:#6C7993;"/>
            </g>
        </g>
    </g>
</svg>
