<?xml version="1.0" encoding="utf-8"?>
<!-- Generator: Adobe Illustrator 28.0.0, SVG Export Plug-In . SVG Version: 6.00 Build 0)  -->
<svg version="1.1" id="Layer_1" xmlns="http://www.w3.org/2000/svg" xmlns:xlink="http://www.w3.org/1999/xlink" x="0px" y="0px"
	 viewBox="0 0 400 93" style="enable-background:new 0 0 400 93;" xml:space="preserve" >
<style type="text/css">
	.st0{fill:#6C7993;}
</style>
<path class="st0" d="M42.7,56.1c0,0-0.5,1.9-0.9,3.2l-5.1,15.3h-1.8l-6.3-20.3h1.5l5.1,16.5c0.3,1,0.6,2.2,0.6,2.2h0.1
	c0,0,0.3-1.2,0.6-2.2L42,54.4h1.6l5.5,16.5c0.3,1,0.6,2.2,0.6,2.2h0.1c0,0,0.3-1.2,0.6-2.2l5.2-16.5h1.5l-6.5,20.3h-1.9l-5.1-15.3
	c-0.4-1.3-0.9-3.2-0.9-3.2L42.7,56.1L42.7,56.1z"/>
<path class="st0" d="M62.3,54.4h13.1v1.2H63.7v8.3h9.5V65h-9.6v8.5H76v1.2H62.3V54.4z"/>
<path class="st0" d="M81.8,54.4h8c3.5,0,6.1,2,6.1,5.1c0,2-1.2,3.7-3.1,4.4v0.1c2.4,0.6,4.1,2.7,4.1,5.1c0,3.4-2.8,5.6-6.7,5.6h-8.4
	V54.4z M89.8,63.4c2.7,0,4.6-1.6,4.6-4s-1.8-3.9-4.6-3.9h-6.5v7.9H89.8z M90,73.5c3.2,0,5.3-1.7,5.3-4.4c0-2.8-2.2-4.5-5.3-4.5h-6.7
	v8.9L90,73.5z"/>
<path class="st0" d="M111.7,71.5c1.8,1.5,4.1,2.3,6.4,2.2c3,0,5.3-1.6,5.3-4c0-5.8-12.3-4.2-12.3-10.5c0-2.7,2.8-5.2,7.2-5.2
	c2.2-0.1,4.3,0.6,6.1,1.9l-0.8,1.1c-1.5-1.1-3.3-1.7-5.2-1.7c-3.6,0-5.7,2-5.7,4c0,5.4,12.3,3.7,12.3,10.5c0,2.9-2.7,5.3-6.9,5.3
	c-2.7,0.1-5.3-0.8-7.3-2.5L111.7,71.5z"/>
<path class="st0" d="M130.6,54.4h13.1v1.2h-11.6v8.3h9.5V65H132v8.5h12.3v1.2h-13.7V54.4z"/>
<path class="st0" d="M150.1,54.4h7c2.2,0,3.4,0.2,4.3,0.6c2,0.8,3.4,2.7,3.3,4.9c0.1,2.7-2,5.1-4.8,5.6v0.1c0.2,0.2,0.4,0.5,0.5,0.7
	l5.4,8.4h-1.7l-5.7-9h-6.9v9h-1.5L150.1,54.4z M158,64.5c3.1,0,5.2-1.9,5.2-4.7c0-1.8-1.1-3.3-2.8-3.9c-0.7-0.3-1.4-0.4-3.4-0.4
	h-5.5v9H158z"/>
<path class="st0" d="M168.2,54.4h1.6l7.2,16.4c0.4,1,0.9,2.4,0.9,2.4h0.1c0,0,0.5-1.5,0.9-2.4l7.2-16.4h1.6l-9,20.3h-1.6L168.2,54.4
	z"/>
<path class="st0" d="M192,54.4h1.5v20.3H192V54.4z"/>
<path class="st0" d="M211.2,54c5.7,0,8.6,2.5,8.6,2.5l-0.9,0.9c-2.2-1.5-4.9-2.3-7.6-2.3c-5.9,0-10.4,3.9-10.4,9.1s4.5,9.4,10.5,9.4
	c3,0.1,5.8-0.9,8.1-2.8l0.9,0.9c0,0-3.2,3.1-9,3.1c-7,0-12-4.7-12-10.6C199.3,58.5,204.4,54,211.2,54z"/>
<path class="st0" d="M226,54.4h13.1v1.2h-11.6v8.3h9.5V65h-9.5v8.5h12.3v1.2H226V54.4z"/>
<path class="st0" d="M244.8,71.5c1.8,1.5,4.1,2.3,6.4,2.2c3,0,5.3-1.6,5.3-4c0-5.8-12.3-4.2-12.3-10.5c0-2.7,2.8-5.2,7.2-5.2
	c2.2-0.1,4.3,0.6,6.1,1.9l-0.8,1.1c-1.5-1.1-3.3-1.7-5.2-1.7c-3.6,0-5.7,2-5.7,4c0,5.4,12.3,3.7,12.3,10.5c0,2.9-2.7,5.3-6.9,5.3
	c-2.7,0.1-5.3-0.8-7.3-2.5L244.8,71.5z"/>
<path class="st0" d="M50.1,47.4h-5.9L34.2,31.6v15.7h-5.6v-23h7.3l8.6,13.2V24.4h5.6L50.1,47.4z"/>
<path class="st0" d="M73.3,47.4H56.2v-23h17.1v4.5H62.3v4h10.3v4.5H62.3V43h11.1V47.4z"/>
<path class="st0" d="M97,28.8h-7.4v18.5h-6.1V28.8h-7.3v-4.5H97L97,28.8z"/>
<path class="st0" d="M131.5,24.5l-11.2,22.7h-3.6L116,28.5l-9.1,18.8h-3.5l-1-22.7h3.2l0.6,18.8l9.2-18.8h3.2l0.6,19l9.2-19H131.5z"
	/>
<path class="st0" d="M149.7,47.2h-3.2l-0.8-6.4h-10.1l-3.9,6.4h-3.3l13.9-22.7h4.1L149.7,47.2z M145.5,38.4L144,27.2l-6.8,11.2
	H145.5z"/>
<path class="st0" d="M175,24.5l-11.2,12.7l-2.3,9.9h-3.1l2.3-9.6l-5.2-13h3.3l4.1,10.2l8.7-10.2H175z"/>
<path class="st0" d="M181.2,47.6c-1.5,0-2.9-0.2-4.3-0.5c-1.4-0.3-2.8-0.8-4-1.4l0.8-3.5h0.2c1.1,1,2.3,1.7,3.7,2.1
	c1.4,0.5,2.8,0.7,4.2,0.7c1.8,0.1,3.6-0.3,5.2-1.3c1.1-0.7,1.8-2,1.8-3.3c0-0.6-0.2-1.3-0.6-1.8c-0.5-0.5-1.2-0.9-1.9-1
	c-0.7-0.2-1.5-0.4-2.4-0.5s-1.8-0.4-2.7-0.5c-1.4-0.2-2.8-0.9-3.9-1.8c-0.9-0.8-1.4-2-1.4-3.2c0-2.1,1-4.2,2.8-5.4
	c2.1-1.5,4.7-2.2,7.3-2.1c2.7,0,5.4,0.5,7.9,1.7l-0.7,3.2H193c-0.9-0.8-2-1.3-3.2-1.7c-1.4-0.5-2.9-0.7-4.3-0.8
	c-1.6-0.1-3.2,0.4-4.6,1.3c-1.1,0.7-1.7,1.8-1.7,3.1c0,0.6,0.2,1.3,0.6,1.8c0.6,0.6,1.3,1,2.2,1.2c0.6,0.2,1.5,0.3,2.7,0.6
	c1.1,0.2,2.1,0.4,2.8,0.6c1.3,0.3,2.4,0.9,3.4,1.8c0.8,0.8,1.2,1.9,1.2,3c0,1-0.3,2.1-0.8,3c-0.5,1-1.2,1.8-2.1,2.5
	c-1,0.8-2.1,1.3-3.4,1.7C184.3,47.4,182.7,47.7,181.2,47.6z"/>
<rect y="24.6" class="st0" width="23.9" height="22.8"/>
<polygon class="st0" points="199.6,35.7 199.6,47.3 209.9,41.3 219.8,35.7 209.9,30.1 199.6,24.6 "/>
<path class="st0" d="M219.8,21.2c0,1.2-0.5,2.3-1.3,3.1c-1.8,1.7-4.6,1.7-6.4,0c0,0,0,0,0,0l0,0c-0.9-0.8-1.3-2-1.3-3.1
	c0-1.2,0.5-2.3,1.3-3.1c1.8-1.7,4.6-1.7,6.4,0c0,0,0,0,0,0C219.4,18.9,219.9,20,219.8,21.2z M219.2,21.2c0-1-0.4-2-1.2-2.7
	c-1.5-1.5-3.9-1.5-5.5-0.1c0,0,0,0,0,0c0,0,0,0,0,0c-0.7,0.7-1.2,1.7-1.1,2.7c0,2.1,1.7,3.8,3.9,3.8c1,0,2-0.4,2.8-1.1l0,0
	C218.8,23.2,219.2,22.2,219.2,21.2z M218.2,23.5h-1.2l-1.7-1.8h-0.9v1.8h-0.9v-4.6h1.6c0.3,0,0.5,0,0.8,0c0.2,0,0.4,0.1,0.6,0.2
	c0.2,0.1,0.4,0.2,0.5,0.4c0.1,0.2,0.2,0.4,0.2,0.6c0,0.3-0.1,0.6-0.3,0.8c-0.2,0.2-0.5,0.4-0.8,0.5L218.2,23.5z M216.4,20.1
	c0-0.1,0-0.2-0.1-0.3c-0.1-0.1-0.1-0.2-0.3-0.2c-0.1-0.1-0.2-0.1-0.3-0.1c-0.2,0-0.3,0-0.5,0h-0.8V21h0.6c0.2,0,0.4,0,0.6-0.1
	c0.1,0,0.3-0.1,0.4-0.2c0.1-0.1,0.2-0.2,0.2-0.3C216.3,20.4,216.4,20.3,216.4,20.1L216.4,20.1z"/>
</svg>
