<svg width="159" height="64" viewBox="0 0 159 64" fill="none" xmlns="http://www.w3.org/2000/svg">
<g clip-path="url(#clip0_4616_12608)">
<path d="M18.9741 9.28252C15.6235 9.83957 11.9041 12.0987 9.72158 14.8839C9.01458 15.7814 8.06166 16.8026 7.56983 17.1431C6.40175 17.9477 5.94066 19.4331 5.94066 22.1565C5.9714 24.3537 5.94066 24.3846 5.1107 24.5703C4.64961 24.6941 4.09631 24.9726 3.88113 25.2202C3.26635 25.9939 2.6823 29.0886 2.46713 32.8332C2.31343 36.0207 2.22122 36.423 1.82161 36.1136C1.45274 35.7731 1.39126 34.9995 1.54495 31.5334L1.69865 27.3556L1.02239 28.1602C0.407605 28.872 0.284649 29.46 0.100214 32.4928C-0.0842215 35.7422 -0.0534823 36.0517 0.530562 36.7944C0.868693 37.2276 1.36052 38.0013 1.60643 38.5584C2.19048 39.8272 3.48152 40.8175 4.52666 40.8175C5.29513 40.8175 5.38735 40.9413 5.60253 42.272C5.69474 43.1076 6.00214 44.0669 6.24805 44.4692C6.49396 44.8406 9.16827 47.2545 12.2114 49.7921C16.2998 53.2272 18.0519 54.4961 19.0355 54.7746C20.7262 55.2079 24.3842 54.9912 25.583 54.3413C26.9048 53.6605 36.895 45.212 37.3254 44.4074C37.5405 44.0669 37.7864 43.1076 37.9094 42.303C38.0938 41.0032 38.2168 40.8175 38.8316 40.8175C40.0611 40.8175 41.0448 40.1676 41.5981 38.9916C41.8748 38.3727 42.4588 37.4752 42.8277 37.011C43.6269 36.0517 43.7191 34.7519 43.2888 30.8216C43.1351 29.2743 42.8891 28.5625 42.3666 28.0364L41.6903 27.3556L41.8748 29.6766C41.967 30.9454 42.1207 32.7094 42.2129 33.5759C42.3358 34.8447 42.2436 35.278 41.7518 35.8969L41.137 36.6397L41.1063 34.133C41.1063 31.4406 40.43 26.7985 39.846 25.5297C39.6001 25.0345 39.139 24.7251 38.432 24.5703C37.3868 24.3846 37.3868 24.3847 37.5713 23.0539C37.6942 22.3421 37.6327 20.9186 37.4483 19.8973C37.2024 18.4738 36.9257 17.9477 36.2802 17.4525C35.8191 17.1121 35.1736 16.4932 34.8047 16.0599C31.5464 12.0987 28.1036 9.90146 24.1997 9.25157C21.925 8.91116 21.3102 8.91116 18.9741 9.28252ZM19.22 16.5551C20.0192 17.1121 20.0499 17.8548 19.4044 20.0521C18.7282 22.404 16.5764 24.5084 14.2095 25.2202C9.84453 26.489 6.98579 24.5703 7.35466 20.6401C7.56983 18.4119 8.67644 17.4216 11.9655 16.5551C14.2402 15.9361 18.3285 15.9361 19.22 16.5551ZM32.8682 16.9574C35.2044 17.8548 36.188 19.0618 36.188 20.9495C36.188 24.1371 34.3437 25.8392 31.2083 25.5297C29.0873 25.3131 27.7655 24.8179 26.4129 23.6419C25.1834 22.5897 23.9538 20.2378 23.7079 18.4119C23.5235 17.2359 23.6157 17.0193 24.2305 16.5551C25.3063 15.7814 30.4398 16.029 32.8682 16.9574ZM28.0114 28.7482C31.2697 29.0576 33.3293 29.6456 33.7904 30.3884C33.9133 30.605 34.0363 32.1833 34.0363 33.9163C34.0363 36.8872 34.0055 37.1039 33.2063 38.0632C32.4071 38.9916 32.3456 39.332 32.1919 42.4886L32.0382 45.9238L28.8106 48.6471C24.3534 52.4226 24.1075 52.5774 21.8021 52.5774C20.7262 52.5774 19.5581 52.4226 19.1892 52.206C18.8204 52.0203 16.8838 50.473 14.9165 48.8018L11.2893 45.7381V42.5505C11.2893 39.4558 11.2585 39.3011 10.3671 38.187C9.5064 37.1039 9.44492 36.8563 9.44492 34.2877C9.44492 30.9145 9.75232 30.0789 11.1356 29.4909C13.3488 28.5625 22.0172 28.1911 28.0114 28.7482Z" fill="#6C7993"/>
<path d="M13.5343 31.9049C11.8744 32.2763 11.8129 32.7714 13.4114 32.7714C14.6409 32.7714 15.5939 33.3904 15.5939 34.164C15.5939 34.8449 16.8849 35.5566 18.1145 35.5566C19.5592 35.5566 20.5121 34.6901 20.5121 33.3594C20.5121 32.5857 20.3277 32.3691 19.4363 31.9668C18.2682 31.4716 15.5324 31.4407 13.5343 31.9049Z" fill="#6C7993"/>
<path d="M23.9872 31.9977C22.7884 32.5238 22.6347 33.5141 23.6184 34.752C24.1102 35.371 24.5098 35.5566 25.4627 35.5566C26.6923 35.5566 26.846 35.4329 28.6288 33.3594C28.9362 32.988 29.5203 32.7714 30.1965 32.7714C31.7028 32.7714 31.5491 32.3072 29.9199 31.8739C28.0448 31.4097 25.1861 31.4716 23.9872 31.9977Z" fill="#6C7993"/>
<path d="M18.5117 41.1274C18.235 41.5606 18.6039 42.0558 19.1879 42.0558C19.4646 42.0558 20.1408 42.4272 20.7249 42.8604L21.77 43.665L22.7537 42.8914C23.307 42.4581 24.014 42.0867 24.3521 42.0248C25.1513 41.8701 25.1513 41.0036 24.3521 40.8489C24.0447 40.787 23.3377 40.9727 22.7844 41.2821C21.893 41.7463 21.7393 41.7773 20.8786 41.3131C19.8027 40.756 18.7883 40.6632 18.5117 41.1274Z" fill="#6C7993"/>
<path d="M16.8227 44.6856C16.5153 45.057 16.5461 45.1498 17.0072 45.1498C17.3453 45.1498 17.9293 45.4283 18.3597 45.7688C18.9745 46.2639 19.62 46.3877 21.741 46.3877C23.862 46.3877 24.5075 46.2639 25.1223 45.7688C25.5527 45.4283 26.1674 45.1498 26.5056 45.1498C27.0281 45.1498 27.0589 45.0879 26.6285 44.6856C26.1982 44.2524 26.0445 44.2524 25.0301 44.6856C23.5854 45.2736 19.8967 45.3046 18.4519 44.6856C17.8679 44.438 17.3146 44.2214 17.2838 44.2214C17.2531 44.2214 17.0379 44.438 16.8227 44.6856Z" fill="#6C7993"/>
<path d="M67.357 21.754C66.4963 21.9706 65.2668 22.4348 64.652 22.8062C63.238 23.6418 63.0535 23.6418 62.8384 22.8681C62.6847 22.2801 62.408 22.2492 57.8894 22.2492H53.0941V23.5489C53.0941 24.2917 53.0018 25.6224 52.9096 26.4889L52.6944 28.1291H53.6781C54.2007 28.1291 54.631 28.2529 54.631 28.3767C54.631 28.6552 52.5715 42.3338 52.3256 43.6954L52.1719 44.5619L56.2294 44.4691L60.287 44.3763L60.5329 42.9836C60.8096 41.5601 62.6232 29.4598 62.6232 29.2432C62.6232 28.9028 65.2668 28.1291 66.4963 28.1291C68.3407 28.1291 69.0784 28.5624 69.0784 29.6145C69.0784 30.0788 68.6481 32.9568 68.1562 36.0206C67.6644 39.0843 67.2341 41.9005 67.2341 42.2719C67.2341 42.6432 67.5722 43.355 67.9718 43.8192C68.6788 44.6548 68.8325 44.6857 71.2916 44.6548C72.6749 44.6548 74.7652 44.4691 75.9333 44.2525L77.9928 43.8502V42.7051C77.9928 42.0862 78.085 40.8483 78.1772 39.9508L78.3924 38.3416H77.255C75.9025 38.3416 75.9025 38.2797 76.7632 32.7711C77.9006 25.6224 77.5317 23.6727 74.7959 22.2801C73.013 21.3826 69.6932 21.1351 67.357 21.754Z" fill="#6C7993"/>
<path d="M111.685 21.7862C110.701 22.0647 109.441 22.5289 108.888 22.8693C107.658 23.643 107.627 23.643 107.412 22.8693C107.258 22.2813 106.982 22.2504 102.463 22.2504H97.6678V23.0859C97.6678 23.5811 97.5755 24.8809 97.4526 26.0259L97.2681 28.1303H98.0674C98.4977 28.1303 98.9281 28.2541 99.0203 28.3779C99.1432 28.5635 97.637 39.2712 96.8993 43.5419L96.7148 44.5631L100.803 44.4703L104.861 44.3775L105.076 43.1086C105.199 42.3969 105.66 39.3331 106.09 36.3003C107.197 28.6564 107.043 29.1825 108.457 28.6254C110.056 27.9756 112.546 27.9756 113.16 28.6254C113.806 29.2444 113.806 29.2134 112.73 35.7123C111.593 42.6135 111.593 42.9848 112.607 43.9442C113.314 44.5941 113.652 44.6869 115.896 44.656C117.279 44.656 119.339 44.4703 120.507 44.2537L122.566 43.8514V42.0564C122.566 41.0661 122.659 39.8282 122.751 39.3022C122.935 38.3737 122.935 38.3428 121.829 38.3428C120.784 38.3428 120.722 38.2809 120.722 37.3215C120.722 36.7954 120.999 34.5982 121.337 32.4629C122.105 27.4804 122.105 25.8712 121.306 24.231C120.845 23.2407 120.323 22.7455 119.339 22.2504C117.556 21.3838 114.113 21.1672 111.685 21.7862Z" fill="#6C7993"/>
<path d="M135.932 21.7225C133.504 22.3414 131.475 23.4865 129.723 25.1267C126.772 27.9119 125.512 31.0375 125.512 35.4011C125.512 37.5673 125.635 38.4957 126.127 39.6098C127.571 42.7664 130.03 44.4376 134.18 45.1494C136.701 45.5826 139.59 45.2112 141.834 44.2209C143.217 43.602 146.23 40.9715 146.23 40.3835C146.23 40.1669 145.4 39.4242 144.386 38.6814L142.51 37.3817L141.588 38.1553C139.775 39.7027 136.547 39.9812 134.887 38.7124C134.057 38.1244 133.135 36.577 133.412 36.2676C133.504 36.1747 135.164 35.989 137.07 35.8343C142.603 35.4011 145.984 34.1013 147.214 31.935C147.982 30.6352 148.228 28.2832 147.767 26.6431C147.306 24.8481 145.277 22.8366 143.279 22.1248C141.281 21.413 137.838 21.2273 135.932 21.7225ZM140.297 27.6334C141.035 28.2832 141.096 28.4689 140.851 29.2426C140.42 30.4495 139.129 31.0066 136.332 31.1613C134.242 31.2851 133.934 31.2232 133.934 30.7899C133.934 29.6449 135.502 27.5405 136.701 27.1073C137.869 26.674 139.467 26.9216 140.297 27.6334Z" fill="#6C7993"/>
<path d="M82.484 22.6196C82.3918 22.8362 82.2688 24.1669 82.1766 25.5595L81.9922 28.1281H82.9144C83.5906 28.1281 83.8365 28.2829 83.8365 28.6542C83.8365 28.9637 83.4062 31.9346 82.9144 35.215C81.6541 43.5397 81.6848 43.8492 83.7136 44.5301C85.7116 45.2109 92.2898 44.3134 92.5665 43.3541C92.6587 43.0755 92.7509 41.8377 92.8124 40.6617L92.9046 38.4954L91.9824 38.4025C91.4906 38.3407 90.968 38.1859 90.8451 38.0621C90.6299 37.8764 92.3206 25.9619 92.9353 23.0838L93.1198 22.2482H87.8326C83.898 22.2482 82.5455 22.3411 82.484 22.6196Z" fill="#6C7993"/>
<path d="M81.2109 53.6119C81.2109 54.8935 82.0833 55.8228 83.584 55.8228C84.2312 55.8228 84.7377 55.6369 85.0848 55.4511C85.2911 55.3435 85.4694 55.2163 85.6101 55.0891L85.2911 54.15C85.1504 54.2674 85.0004 54.375 84.8409 54.463C84.5501 54.6195 84.1656 54.7761 83.706 54.7761C82.843 54.7761 82.4209 54.238 82.4209 53.5239C82.4209 52.5554 83.1995 51.6554 84.1749 51.6554C84.6064 51.6554 85.0191 51.8315 84.9722 52.1641L84.9159 52.4772H85.9383L86.0603 51.8511C86.2385 50.8924 85.0097 50.5989 84.2781 50.5989C82.5053 50.5989 81.2109 52.0761 81.2109 53.6119Z" fill="#6C7993"/>
<path d="M86.7021 54.6391C86.7021 55.6174 87.3775 55.7445 87.9496 55.7445C88.0622 55.7445 88.1654 55.7445 88.2404 55.7348L88.3624 55.7152L88.55 54.7272H88.4937C88.4562 54.7272 88.3999 54.7369 88.3342 54.7369C88.081 54.7369 87.9309 54.6685 87.9309 54.3652C87.9309 54.2674 87.9496 54.15 87.9778 54.0032L88.9439 48.7598H87.0211L86.8428 49.6891H87.5838L86.7584 54.1206C86.7209 54.3163 86.7021 54.4924 86.7021 54.6391Z" fill="#6C7993"/>
<path d="M89.4182 53.6119C89.4182 54.9424 90.375 55.8228 91.6881 55.8228C93.2358 55.8228 94.7272 54.5511 94.7272 52.8C94.7272 51.4989 93.7798 50.5989 92.4573 50.5989C90.8815 50.5989 89.4182 51.8804 89.4182 53.6119ZM90.6282 53.5532C90.6282 52.4576 91.5099 51.6554 92.3635 51.6554C93.0388 51.6554 93.5172 52.1348 93.5172 52.8782C93.5172 53.9739 92.6355 54.7663 91.7819 54.7663C91.1066 54.7663 90.6282 54.2967 90.6282 53.5532Z" fill="#6C7993"/>
<path d="M95.7308 54.4826C95.7308 55.4217 96.3593 55.8228 97.1097 55.8228C98.0195 55.8228 98.6386 55.2456 98.9856 54.7076H99.0044C99.0044 55.5098 99.5015 55.7348 100.092 55.7348C100.243 55.7348 100.355 55.7348 100.458 55.725L100.599 55.7054L100.768 54.7761C100.758 54.7761 100.74 54.7761 100.711 54.7859C100.683 54.7956 100.636 54.7956 100.571 54.7956C100.318 54.7956 100.167 54.6978 100.167 54.3945C100.167 54.2869 100.177 54.1891 100.196 54.0913L100.833 50.7163H98.9012L98.723 51.6456H99.464L99.2201 52.9663C99.07 53.7978 98.4041 54.7174 97.5693 54.7174C97.1284 54.7174 96.969 54.5119 96.969 54.1304C96.969 54.0032 96.9971 53.8369 97.0252 53.6706L97.5786 50.7163H95.6464L95.4682 51.6456H96.2092L95.7965 53.8859C95.759 54.1109 95.7308 54.2967 95.7308 54.4826Z" fill="#6C7993"/>
<path d="M101.629 53.7391C101.629 55.0206 102.276 55.8228 103.449 55.8228C104.096 55.8228 104.724 55.4119 105.053 54.8935H105.071C105.118 55.588 105.597 55.7348 106.225 55.7348C106.347 55.7348 106.45 55.7348 106.535 55.725L106.666 55.7054L106.844 54.7761C106.835 54.7761 106.816 54.7761 106.788 54.7859C106.75 54.7956 106.703 54.7956 106.638 54.7956C106.384 54.7956 106.234 54.6978 106.234 54.3945C106.234 54.3065 106.244 54.1989 106.272 54.0913L107.257 48.7598H105.334L105.156 49.6891H105.897L105.653 51.0098L105.625 51.2152C105.615 51.2445 105.615 51.2837 105.615 51.313H105.597C105.343 50.7945 104.809 50.5989 104.283 50.5989C102.895 50.5989 101.629 51.8706 101.629 53.7391ZM102.839 53.6511C102.839 52.4087 103.664 51.6652 104.368 51.6652C105.015 51.6652 105.315 52.1739 105.315 52.7804C105.315 53.8369 104.584 54.7761 103.786 54.7761C103.186 54.7761 102.839 54.3554 102.839 53.6511Z" fill="#6C7993"/>
<path d="M110.327 55.7054H111.519L111.931 53.5141C112.11 52.575 112.785 51.7337 113.61 51.7337C114.051 51.7337 114.22 51.9489 114.22 52.3304C114.22 52.7706 113.854 54.1891 113.854 54.7076C113.854 55.6467 114.539 55.7348 115.036 55.7348C115.186 55.7348 115.308 55.7348 115.392 55.725C115.439 55.7152 115.486 55.7152 115.514 55.7054L115.683 54.7761C115.674 54.7761 115.655 54.7761 115.627 54.7859C115.589 54.7956 115.543 54.7956 115.477 54.7956C115.224 54.7956 115.074 54.7076 115.074 54.3945C115.074 53.9935 115.458 52.5652 115.458 51.9489C115.458 51.0489 114.933 50.5989 114.117 50.5989C112.963 50.5989 112.288 51.5185 112.213 51.7141H112.194C112.26 51.5576 112.307 51.2641 112.307 51.1565C112.307 50.8728 112.147 50.7163 111.772 50.7163H110.515L110.346 51.6456H110.881C111.012 51.6456 111.068 51.7141 111.05 51.8609L110.327 55.7054Z" fill="#6C7993"/>
<path d="M116.205 54.5413C116.205 55.4022 116.852 55.8228 117.574 55.8228C118.606 55.813 119.197 54.9032 119.197 54.8935H119.216C119.291 55.588 119.807 55.7348 120.332 55.7348C120.51 55.7348 120.623 55.7348 120.707 55.725C120.754 55.7152 120.801 55.7152 120.829 55.7054L120.998 54.7761C120.989 54.7761 120.97 54.7761 120.942 54.7859C120.904 54.7956 120.857 54.7956 120.792 54.7956C120.538 54.7956 120.388 54.6978 120.388 54.3945C120.388 53.9641 120.782 52.6532 120.782 52.0761C120.782 50.9706 119.91 50.5989 119.066 50.5989C118.54 50.5989 118.081 50.7163 117.715 50.863C117.509 50.9413 117.321 51.0293 117.143 51.1369L117.415 52.0565C117.556 51.9685 117.706 51.8902 117.865 51.8217C118.137 51.7043 118.494 51.5967 118.841 51.5967C119.338 51.5967 119.6 51.8217 119.6 52.213C119.6 52.2913 119.591 52.3793 119.572 52.4674L119.544 52.6239H119.375C118.109 52.6239 116.205 53.025 116.205 54.5413ZM117.387 54.3359C117.387 53.475 118.653 53.3772 119.197 53.3772H119.403L119.366 53.5337C119.216 54.1402 118.625 54.9032 117.978 54.9032C117.565 54.9032 117.387 54.6782 117.387 54.3359Z" fill="#6C7993"/>
<path d="M122.985 55.7054H124.354L126.568 51.6456H127.149L127.327 50.7163H124.992L124.814 51.6456H125.358L124.063 54.1109C123.998 54.238 123.941 54.375 123.904 54.4826C123.876 54.5511 123.857 54.6098 123.848 54.6587H123.819C123.829 54.6098 123.829 54.5511 123.829 54.4826C123.829 54.3554 123.819 54.238 123.801 54.1109L123.426 51.6456H123.97L124.148 50.7163H121.887L121.709 51.6456H122.291L122.985 55.7054Z" fill="#6C7993"/>
<path d="M128.553 49.8652H129.753L129.96 48.7598H128.759L128.553 49.8652ZM127.69 54.6978C127.69 55.6565 128.365 55.7348 128.937 55.7348C129.041 55.7348 129.144 55.7348 129.228 55.725L129.359 55.7054L129.528 54.7761C129.519 54.7761 129.5 54.7761 129.472 54.7859C129.434 54.7956 129.388 54.7956 129.322 54.7956C129.069 54.7956 128.919 54.6978 128.919 54.3945C128.919 54.3065 128.928 54.1989 128.956 54.0913L129.585 50.7163H127.662L127.484 51.6456H128.225L127.746 54.1891C127.709 54.3848 127.69 54.5511 127.69 54.6978Z" fill="#6C7993"/>
<path d="M130.129 57.2902C130.288 57.3782 130.888 57.7598 131.948 57.7598C133.102 57.7598 134.35 57.163 134.678 55.4511L135.353 51.8413C135.372 51.7141 135.456 51.6456 135.597 51.6456H136.047L136.226 50.7163H135.025C134.64 50.7163 134.443 50.9413 134.406 51.1859C134.396 51.2543 134.387 51.2837 134.387 51.313V51.3619H134.368C134.293 51.0978 133.899 50.5989 132.943 50.5989C131.329 50.5989 130.41 52.1837 130.41 53.563C130.41 54.7369 131.048 55.6076 132.249 55.6076C132.849 55.6076 133.262 55.363 133.609 54.9032H133.618C133.609 54.9424 133.59 54.9815 133.58 55.0304C133.552 55.1087 133.534 55.2261 133.496 55.3924C133.299 56.4098 132.68 56.7424 131.892 56.7424C131.489 56.7424 131.179 56.6641 130.954 56.5859C130.823 56.5369 130.71 56.488 130.607 56.4195L130.129 57.2902ZM131.62 53.4652C131.62 52.5456 132.155 51.6554 133.046 51.6554C133.58 51.6554 134.012 51.8609 134.012 52.5945C134.012 53.4554 133.534 54.5609 132.577 54.5609C131.939 54.5609 131.62 54.1304 131.62 53.4652Z" fill="#6C7993"/>
<path d="M136.073 54.5413C136.073 55.4022 136.72 55.8228 137.442 55.8228C138.474 55.813 139.065 54.9032 139.065 54.8935H139.084C139.159 55.588 139.675 55.7348 140.2 55.7348C140.378 55.7348 140.491 55.7348 140.575 55.725C140.622 55.7152 140.669 55.7152 140.697 55.7054L140.866 54.7761C140.857 54.7761 140.838 54.7761 140.81 54.7859C140.772 54.7956 140.725 54.7956 140.66 54.7956C140.406 54.7956 140.256 54.6978 140.256 54.3945C140.256 53.9641 140.65 52.6532 140.65 52.0761C140.65 50.9706 139.778 50.5989 138.934 50.5989C138.408 50.5989 137.949 50.7163 137.583 50.863C137.377 50.9413 137.189 51.0293 137.011 51.1369L137.283 52.0565C137.424 51.9685 137.574 51.8902 137.733 51.8217C138.005 51.7043 138.361 51.5967 138.709 51.5967C139.206 51.5967 139.468 51.8217 139.468 52.213C139.468 52.2913 139.459 52.3793 139.44 52.4674L139.412 52.6239H139.243C137.977 52.6239 136.073 53.025 136.073 54.5413ZM137.255 54.3359C137.255 53.475 138.521 53.3772 139.065 53.3772H139.271L139.234 53.5337C139.084 54.1402 138.493 54.9032 137.846 54.9032C137.433 54.9032 137.255 54.6782 137.255 54.3359Z" fill="#6C7993"/>
<path d="M142.016 54.238C142.016 55.4022 142.851 55.7543 143.714 55.7543C143.798 55.7543 143.883 55.7543 143.948 55.7445L144.061 55.725L144.249 54.7272C144.22 54.7272 144.202 54.7272 144.174 54.7369C144.127 54.7467 144.061 54.7467 143.986 54.7467C143.648 54.7467 143.236 54.6489 143.236 54.0717C143.236 53.9935 143.236 53.8565 143.264 53.7391L143.648 51.6456H144.746L144.915 50.7163H143.817L144.07 49.3565H142.926L142.673 50.7163H141.904L141.725 51.6456H142.466L142.063 53.7782C142.035 53.9641 142.016 54.1109 142.016 54.238Z" fill="#6C7993"/>
<path d="M145.12 53.6119C145.12 54.9424 146.077 55.8228 147.39 55.8228C148.937 55.8228 150.429 54.5511 150.429 52.8C150.429 51.4989 149.481 50.5989 148.159 50.5989C146.583 50.5989 145.12 51.8804 145.12 53.6119ZM146.33 53.5532C146.33 52.4576 147.212 51.6554 148.065 51.6554C148.74 51.6554 149.219 52.1348 149.219 52.8782C149.219 53.9739 148.337 54.7663 147.484 54.7663C146.808 54.7663 146.33 54.2967 146.33 53.5532Z" fill="#6C7993"/>
<path d="M151.281 55.7054H152.473L152.801 53.8859C153.026 52.663 153.861 51.8706 154.583 51.8706C154.733 51.8706 154.836 51.8902 154.865 51.8902L155.099 50.6674C155.062 50.6674 154.958 50.6478 154.818 50.6478C154.077 50.6478 153.448 51.2641 153.12 51.9391H153.101C153.176 51.7141 153.261 51.3032 153.261 51.1565C153.261 50.863 153.082 50.7163 152.717 50.7163H151.469L151.291 51.6456H151.825C151.985 51.6456 152.022 51.7532 151.994 51.8609L151.281 55.7054Z" fill="#6C7993"/>
<path d="M154.852 54.5315C154.683 55.4902 155.846 55.8228 156.662 55.8228C157.975 55.8228 158.895 55.1478 158.895 54.1402C158.895 52.6141 156.644 52.9565 156.644 52.1054C156.644 51.7532 156.991 51.5772 157.469 51.5772C157.741 51.5772 158.163 51.6359 158.116 51.9782L158.069 52.2717H159.092L159.195 51.7239C159.345 50.9315 158.416 50.5989 157.619 50.5989C156.54 50.5989 155.48 51.088 155.48 52.1837C155.48 53.7195 157.722 53.4652 157.722 54.2772C157.722 54.6195 157.385 54.8543 156.822 54.8543C156.484 54.8543 155.809 54.7761 155.912 54.2967L155.959 54.0424H154.946L154.852 54.5315Z" fill="#6C7993"/>
</g>
<defs>
<clipPath id="clip0_4616_12608">
<rect width="159" height="64" fill="white"/>
</clipPath>
</defs>
</svg>
