<svg width="600" height="137" viewBox="0 0 1065 137" fill="none" xmlns="http://www.w3.org/2000/svg">
<g clip-path="url(#clip0_840_10070)">
<path d="M476.14 28.2702H422.71C422.71 28.2702 422.63 28.3102 422.63 28.3502V132.32C422.63 133.42 421.73 134.32 420.63 134.32H394.82C393.72 134.32 392.82 133.42 392.82 132.32V28.3502C392.82 28.3502 392.78 28.2702 392.74 28.2702H339.46C338.36 28.2702 337.46 27.3702 337.46 26.2702V2.98018C337.46 1.88018 338.36 0.980181 339.46 0.980181H476.14C477.24 0.980181 478.14 1.88018 478.14 2.98018V26.2602C478.14 27.3602 477.24 28.2602 476.14 28.2602V28.2702ZM855.73 0.980181H829.92C828.82 0.980181 827.92 1.88018 827.92 2.98018V132.32C827.92 133.42 828.82 134.32 829.92 134.32H855.73C856.83 134.32 857.73 133.42 857.73 132.32V2.98018C857.73 1.88018 856.83 0.980181 855.73 0.980181ZM1064.31 131.08C1064.89 131.58 1065.1 132.4 1064.83 133.12C1064.56 133.84 1063.87 134.32 1063.1 134.32H1023.35C1022.91 134.32 1022.48 134.16 1022.14 133.87L978.47 96.0802C978.07 95.7302 977.83 95.2202 977.83 94.6902C977.83 94.1602 978.06 93.6502 978.47 93.3002L998.34 76.1002C999.03 75.5002 1000.06 75.5002 1000.75 76.1002L1064.29 131.09L1064.31 131.08ZM998.36 59.2002C998.71 59.5002 999.14 59.6502 999.57 59.6502C1000 59.6502 1000.43 59.5002 1000.78 59.2002L1064.32 4.21018C1064.9 3.71018 1065.11 2.89018 1064.84 2.17018C1064.57 1.45018 1063.88 0.970181 1063.11 0.970181H1023.36C1022.92 0.970181 1022.49 1.13018 1022.15 1.42018L978.48 39.2102C978.08 39.5602 977.84 40.0702 977.84 40.6002C977.84 41.1302 978.07 41.6402 978.48 41.9902L998.35 59.1902L998.36 59.2002ZM990.04 67.6402C990.04 67.1002 989.81 66.6002 989.4 66.2502L914.49 1.43018C914.16 1.14018 913.73 0.980181 913.28 0.980181H873.53C872.76 0.980181 872.07 1.46018 871.8 2.18018C871.53 2.90018 871.74 3.71018 872.32 4.22018L945.55 67.5902C945.55 67.5902 945.59 67.6802 945.55 67.7202L872.32 131.09C871.74 131.59 871.53 132.41 871.8 133.13C872.07 133.85 872.76 134.33 873.53 134.33H913.28C913.72 134.33 914.15 134.17 914.49 133.88L989.4 69.0502C989.8 68.7002 990.04 68.1902 990.04 67.6602V67.6402ZM29.81 44.3202C29.81 44.2502 29.89 44.2102 29.94 44.2502C33.86 47.7602 123.07 127.64 127.37 131.02C131.17 134 135.56 135.85 141.28 135.01C148.68 134.11 156.82 127.79 156.82 117.15V2.98018C156.82 1.88018 155.92 0.980181 154.82 0.980181H129.01C127.91 0.980181 127.01 1.88018 127.01 2.98018V90.8902C127.01 90.9602 126.93 91.0002 126.88 90.9602C122.95 87.4502 33.75 7.57018 29.44 4.19018C25.65 1.21018 21.26 -0.639819 15.54 0.200181C8.14 1.10018 0 7.43018 0 18.0702V132.32C0 133.42 0.9 134.32 2 134.32H27.81C28.91 134.32 29.81 133.42 29.81 132.32V44.3202ZM684.96 44.3202C684.96 44.2502 685.04 44.2102 685.09 44.2502C689.01 47.7602 778.22 127.64 782.52 131.02C786.32 134 790.71 135.85 796.43 135.01C803.83 134.11 811.97 127.79 811.97 117.15V2.98018C811.97 1.88018 811.07 0.980181 809.97 0.980181H784.16C783.06 0.980181 782.16 1.88018 782.16 2.98018V90.8902C782.16 90.9602 782.08 91.0002 782.03 90.9602C778.11 87.4502 688.9 7.57018 684.6 4.19018C680.8 1.21018 676.41 -0.639819 670.69 0.200181C663.29 1.10018 655.15 7.43018 655.15 18.0602V132.31C655.15 133.41 656.05 134.31 657.15 134.31H682.96C684.06 134.31 684.96 133.41 684.96 132.31V44.3202ZM255.73 136.97C271.81 136.93 289.73 136.02 300.73 129.53C315.37 120.89 322.49 108.89 322.49 92.8602V2.98018C322.49 1.88018 321.6 0.980181 320.5 0.980181H294.44C293.34 0.980181 292.44 1.88018 292.44 2.98018V91.1002C292.18 108.64 270.45 108.82 254.77 108.82H240.52C224.84 108.82 203.12 108.65 202.86 91.1002V2.98018C202.86 1.88018 201.96 0.980181 200.85 0.980181H174.79C173.69 0.980181 172.79 1.88018 172.79 2.98018V92.8502C172.79 108.88 179.92 120.88 194.56 129.52C205.56 136.01 223.48 136.93 239.56 136.96H255.73V136.97ZM642.86 131.32C643.27 131.9 643.32 132.66 643 133.3C642.68 133.93 642.03 134.33 641.32 134.33H609.45C608.81 134.33 608.21 134.02 607.84 133.49L589.25 106.91C589.25 106.91 589.21 106.87 589.18 106.87H493.62C493.62 106.87 493.57 106.88 493.55 106.91L474.89 133.52C474.54 134.03 473.96 134.33 473.35 134.33H441.48C440.77 134.33 440.12 133.93 439.8 133.3C439.48 132.67 439.53 131.9 439.94 131.32C439.94 131.32 520.99 15.6302 525.99 8.72018C530.98 1.81018 536.01 0.000180691 541.42 0.000180691C547.39 0.000180691 552 2.23018 556.44 8.18018L642.85 131.32H642.86ZM569.84 79.4602L541.48 39.3102C541.48 39.3102 541.38 39.2602 541.34 39.3102L512.97 79.4602C512.93 79.5202 512.97 79.5902 513.04 79.5902H569.77C569.84 79.5902 569.88 79.5102 569.84 79.4602Z" fill="#6C7993"/>
</g>
<defs>
<clipPath id="clip0_840_10070">
<rect width="1064.95" height="136.97" fill="white"/>
</clipPath>
</defs>
</svg>