<svg width="348" height="46" viewBox="0 0 348 46" fill="none" xmlns="http://www.w3.org/2000/svg">
<g clip-path="url(#clip0_840_10070)">
<path d="M155.591 10.2576H138.131C138.131 10.2576 138.105 10.2707 138.105 10.2839V44.4421C138.105 44.8035 137.811 45.0992 137.452 45.0992H129.018C128.658 45.0992 128.364 44.8035 128.364 44.4421V10.2839C128.364 10.2839 128.351 10.2576 128.338 10.2576H110.927C110.568 10.2576 110.274 9.96189 110.274 9.6005V1.94882C110.274 1.58743 110.568 1.29174 110.927 1.29174H155.591C155.951 1.29174 156.245 1.58743 156.245 1.94882V9.59721C156.245 9.9586 155.951 10.2543 155.591 10.2543V10.2576ZM279.632 1.29174H271.198C270.838 1.29174 270.544 1.58743 270.544 1.94882V44.4421C270.544 44.8035 270.838 45.0992 271.198 45.0992H279.632C279.991 45.0992 280.285 44.8035 280.285 44.4421V1.94882C280.285 1.58743 279.991 1.29174 279.632 1.29174ZM347.791 44.0347C347.98 44.199 348.049 44.4684 347.961 44.7049C347.873 44.9414 347.647 45.0992 347.395 45.0992H334.406C334.262 45.0992 334.122 45.0466 334.011 44.9513L319.74 32.5358C319.61 32.4208 319.531 32.2533 319.531 32.0791C319.531 31.905 319.606 31.7375 319.74 31.6225L326.233 25.9716C326.459 25.7745 326.796 25.7745 327.021 25.9716L347.784 44.038L347.791 44.0347ZM326.24 20.4193C326.354 20.5179 326.495 20.5671 326.635 20.5671C326.776 20.5671 326.916 20.5179 327.031 20.4193L347.794 2.35292C347.984 2.18865 348.052 1.91925 347.964 1.6827C347.876 1.44615 347.65 1.28845 347.399 1.28845H334.409C334.266 1.28845 334.125 1.34102 334.014 1.4363L319.744 13.8518C319.613 13.9668 319.535 14.1343 319.535 14.3085C319.535 14.4826 319.61 14.6501 319.744 14.7651L326.237 20.416L326.24 20.4193ZM323.521 23.1922C323.521 23.0147 323.446 22.8505 323.312 22.7355L298.833 1.43958C298.725 1.34431 298.585 1.29174 298.438 1.29174H285.449C285.197 1.29174 284.971 1.44944 284.883 1.68599C284.795 1.92254 284.864 2.18865 285.053 2.35621L308.983 23.1757C308.983 23.1757 308.996 23.2053 308.983 23.2184L285.053 44.038C284.864 44.2022 284.795 44.4716 284.883 44.7082C284.971 44.9447 285.197 45.1024 285.449 45.1024H298.438C298.582 45.1024 298.722 45.0499 298.833 44.9546L323.312 23.6554C323.443 23.5404 323.521 23.3729 323.521 23.1987V23.1922ZM9.74119 15.5306C9.74119 15.5076 9.76733 15.4945 9.78367 15.5076C11.0646 16.6608 40.2163 42.9045 41.6214 44.015C42.8632 44.994 44.2977 45.6018 46.1669 45.3258C48.585 45.0302 51.245 42.9538 51.245 39.4581V1.94882C51.245 1.58743 50.9509 1.29174 50.5914 1.29174H42.1574C41.7979 1.29174 41.5038 1.58743 41.5038 1.94882V30.8307C41.5038 30.8537 41.4777 30.8668 41.4613 30.8537C40.1771 29.7005 11.0287 3.45681 9.62028 2.34635C8.3818 1.3673 6.94726 0.759507 5.0781 1.03548C2.65996 1.33116 0 3.41082 0 6.90647V44.4421C0 44.8035 0.294098 45.0992 0.653552 45.0992H9.08764C9.44709 45.0992 9.74119 44.8035 9.74119 44.4421V15.5306ZM223.828 15.5306C223.828 15.5076 223.855 15.4945 223.871 15.5076C225.152 16.6608 254.304 42.9045 255.709 44.015C256.95 44.994 258.385 45.6018 260.254 45.3258C262.672 45.0302 265.332 42.9538 265.332 39.4581V1.94882C265.332 1.58743 265.038 1.29174 264.679 1.29174H256.245C255.885 1.29174 255.591 1.58743 255.591 1.94882V30.8307C255.591 30.8537 255.565 30.8668 255.549 30.8537C254.268 29.7005 225.116 3.45681 223.711 2.34635C222.469 1.3673 221.034 0.759507 219.165 1.03548C216.747 1.33116 214.087 3.41082 214.087 6.90319V44.4388C214.087 44.8002 214.381 45.0959 214.741 45.0959H223.175C223.534 45.0959 223.828 44.8002 223.828 44.4388V15.5306ZM83.5664 45.9698C88.821 45.9566 94.6768 45.6577 98.2713 43.5254C103.055 40.6869 105.382 36.7444 105.382 31.4779V1.94882C105.382 1.58743 105.091 1.29174 104.732 1.29174H96.2159C95.8564 1.29174 95.5623 1.58743 95.5623 1.94882V30.8997C95.4774 36.6623 88.3765 36.7214 83.2527 36.7214H78.5961C73.4723 36.7214 66.3747 36.6655 66.2898 30.8997V1.94882C66.2898 1.58743 65.9957 1.29174 65.6329 1.29174H57.1172C56.7577 1.29174 56.4636 1.58743 56.4636 1.94882V31.4746C56.4636 36.7411 58.7935 40.6836 63.5775 43.5222C67.1721 45.6544 73.0279 45.9566 78.2824 45.9665H83.5664V45.9698ZM210.071 44.1135C210.205 44.3041 210.221 44.5538 210.117 44.764C210.012 44.971 209.8 45.1024 209.568 45.1024H199.154C198.944 45.1024 198.748 45.0006 198.627 44.8265L192.553 36.0939C192.553 36.0939 192.54 36.0808 192.53 36.0808H161.303C161.303 36.0808 161.287 36.084 161.28 36.0939L155.183 44.8363C155.068 45.0039 154.879 45.1024 154.679 45.1024H144.265C144.033 45.1024 143.821 44.971 143.716 44.764C143.611 44.5571 143.628 44.3041 143.762 44.1135C143.762 44.1135 170.247 6.10484 171.881 3.83463C173.511 1.56443 175.155 0.969772 176.923 0.969772C178.874 0.969772 180.38 1.70241 181.831 3.65722L210.068 44.1135H210.071ZM186.21 27.0755L176.943 13.8846C176.943 13.8846 176.91 13.8682 176.897 13.8846L167.626 27.0755C167.613 27.0952 167.626 27.1182 167.649 27.1182H186.187C186.21 27.1182 186.223 27.0919 186.21 27.0755Z" fill="#131313"/>
</g>
<defs>
<clipPath id="clip0_840_10070">
<rect width="348" height="45" fill="white" transform="translate(0 0.969727)"/>
</clipPath>
</defs>
</svg>
