<svg width="164" height="64" viewBox="0 0 164 64" fill="none" xmlns="http://www.w3.org/2000/svg">
<path d="M27.8254 17H2.8613C2.1056 17.0019 1.38138 17.3026 0.847017 17.8366C0.312652 18.3706 0.0116224 19.0942 0.00976562 19.8493V26.5598H6.93643V25.4637C6.93736 25.0549 7.10028 24.6631 7.38955 24.3741C7.67883 24.085 8.0709 23.9222 8.47999 23.9213H22.2173C22.6261 23.9222 23.0178 24.0851 23.3065 24.3743C23.5952 24.6634 23.7573 25.0552 23.7573 25.4637V26.5598H30.6875V19.8493C30.6856 19.0924 30.3832 18.3671 29.8465 17.8329C29.3099 17.2986 28.583 16.9991 27.8254 17Z" fill="currentColor"/>
<path d="M23.7476 38.5366C23.7476 38.945 23.5854 39.3368 23.2967 39.626C23.008 39.9151 22.6163 40.078 22.2075 40.079H8.47022C8.06113 40.078 7.66906 39.9152 7.37979 39.6262C7.09052 39.3371 6.92759 38.9454 6.92666 38.5366V37.4404H0V44.1509C0.00185677 44.9061 0.302881 45.6297 0.837245 46.1637C1.37161 46.6976 2.09583 46.9984 2.85153 47.0003H27.8156C28.5714 46.9984 29.2956 46.6976 29.8299 46.1637C30.3643 45.6297 30.6653 44.9061 30.6672 44.1509V37.4404H23.7476V38.5366Z" fill="currentColor"/>
<path d="M6.92666 28.5381H0V35.4594H6.92666V28.5381Z" fill="currentColor"/>
<path d="M30.6786 28.5381H23.752V35.4594H30.6786V28.5381Z" fill="currentColor"/>
<path d="M51.935 32.1322V31.8687C51.935 27.2627 48.9112 23.918 44.7974 23.918C40.6836 23.918 37.6035 27.3189 37.6035 31.8968V32.1638C37.6035 36.7698 40.6273 40.0864 44.7411 40.0864C48.855 40.0864 51.935 36.7101 51.935 32.1322ZM40.9227 32.083V31.9038C40.9227 28.9983 42.4205 26.8586 44.7411 26.8586C47.002 26.8586 48.6088 29.0299 48.6088 31.9354V32.1111C48.6088 35.0166 47.111 37.1879 44.7904 37.1879C42.5366 37.1809 40.9227 34.978 40.9227 32.083Z" fill="currentColor"/>
<path d="M67.7326 32.1919V31.7809C67.7326 26.5284 64.7967 23.918 61.6815 23.918C59.4523 23.918 58.0986 25.2074 57.1317 26.7041V24.2096H53.8125V44.1935H57.1317V37.4163C58.0705 38.7935 59.4206 40.0548 61.6815 40.0548C64.8248 40.0548 67.7326 37.4163 67.7326 32.1919ZM57.0719 32.1322V31.8406C57.0719 28.7875 58.7737 26.8516 60.7708 26.8516C62.7679 26.8516 64.3853 28.7594 64.3853 31.8687V32.1322C64.3853 35.245 62.7996 37.1212 60.7708 37.1212C58.742 37.1212 57.0719 35.1853 57.0719 32.1322Z" fill="currentColor"/>
<path d="M82.1114 37.6798L80.3815 35.6245C79.3513 36.6222 78.2718 37.2687 76.7986 37.2687C74.7698 37.2687 73.1559 35.8634 72.8606 33.2494H82.6107C82.6423 32.7786 82.6423 32.3079 82.6423 32.1041C82.6423 27.4383 80.4096 23.918 76.1798 23.918C72.3613 23.918 69.5449 27.2627 69.5449 31.9284V32.1638C69.5449 37.0333 72.6567 40.0864 76.6509 40.0864C77.6808 40.1019 78.7019 39.8948 79.6444 39.4794C80.5868 39.0641 81.4283 38.4502 82.1114 37.6798ZM76.1798 26.7041C78.1171 26.7041 79.2352 28.4959 79.411 30.9587H72.8325C73.054 28.3167 74.3584 26.7041 76.1798 26.7041Z" fill="currentColor"/>
<path d="M92.3935 23.918C90.2839 23.918 89.0181 25.1195 88.1356 26.5003V24.2096H84.8164V39.7632H88.1356V30.3439C88.1356 28.2007 89.3381 26.9113 91.0715 26.9113C92.8049 26.9113 93.8633 28.1129 93.8633 30.2842V39.7702H97.1789V29.3461C97.1719 26.0295 95.3822 23.918 92.3935 23.918Z" fill="currentColor"/>
<path d="M110.55 35.3331V35.3015C110.55 32.8667 108.729 31.753 106.331 30.6673C104.51 29.8452 103.279 29.3147 103.279 28.2888V28.2185C103.279 27.3683 104.01 26.6937 105.244 26.6937C106.479 26.6937 107.769 27.2805 108.943 28.0745L110.35 25.6362C108.877 24.577 107.115 23.9935 105.301 23.9639C102.393 23.9639 100.16 25.7205 100.16 28.5137V28.5699C100.16 31.1206 102.098 32.1781 104.418 33.1759C106.268 33.9664 107.474 34.4653 107.474 35.5825V35.6106C107.474 36.5803 106.679 37.3146 105.301 37.3146C103.922 37.3146 102.421 36.6365 101.011 35.4947L99.457 37.8697C101.076 39.2395 103.12 40.0067 105.241 40.041C108.216 40.055 110.55 38.3827 110.55 35.3331Z" fill="currentColor"/>
<path d="M120.823 39.324V36.5942C120.272 36.8864 119.657 37.0373 119.034 37.0333C117.979 37.0333 117.36 36.5344 117.36 35.3329V27.0554H120.873V24.2096H117.357V20.0146H114.037V24.2096H112.332L112.881 27.0554H114.037V36.0074C114.037 39.0289 115.771 39.9986 118.06 39.9986C119.023 40.0122 119.975 39.78 120.823 39.324Z" fill="currentColor"/>
<path d="M133.53 25.6179C132.531 24.592 130.973 24.0334 128.959 24.0334C127.171 24.0234 125.407 24.4465 123.818 25.2666L124.757 27.9086C125.925 27.3208 127.208 26.9992 128.516 26.967C130.625 26.967 131.863 28.0527 131.863 30.129V30.7755C130.713 30.3658 129.501 30.1578 128.28 30.1607C124.992 30.1607 122.76 31.8014 122.76 35.1461V35.2937C122.76 38.3187 124.933 40.0472 127.517 40.0472C128.365 40.0815 129.208 39.8972 129.964 39.5121C130.72 39.1269 131.364 38.5538 131.835 37.8479V39.7556H135.094V30.108C135.094 28.1721 134.584 26.6438 133.53 25.6179ZM131.895 34.5418C131.895 36.2985 130.425 37.5949 128.516 37.5633C127.078 37.5352 125.991 36.6533 125.991 35.104V35.0442C125.991 33.4 127.106 32.4338 129.015 32.4338C130.002 32.429 130.98 32.6175 131.895 32.9889V34.5418Z" fill="currentColor"/>
<path d="M149.202 37.7356L147.413 35.5362C146.502 36.4462 145.591 37.1208 144.248 37.1208C141.984 37.1208 140.38 35.0971 140.38 32.0756V31.928C140.38 28.9909 141.966 26.9109 144.143 26.9109C145.549 26.9109 146.46 27.6136 147.283 28.4639L149.132 26.0291C148.498 25.343 147.726 24.8001 146.865 24.4366C146.005 24.073 145.077 23.8973 144.143 23.9211C140.061 23.9211 137.033 27.2658 137.033 31.8999V32.195C137.033 36.8327 139.973 40.0895 144.023 40.0895C145.008 40.1147 145.987 39.9158 146.884 39.5081C147.781 39.1003 148.574 38.4942 149.202 37.7356Z" fill="currentColor"/>
<path d="M159.359 31.6895L157.027 34.191L160.153 39.7631H164L159.359 31.6895Z" fill="currentColor"/>
<path d="M159.917 24.2087L154.601 31.0456V18.5732H151.285V39.7623H154.601V35.2722L163.852 24.2087H159.917Z" fill="currentColor"/>
</svg>
