<svg width="197" height="64" viewBox="0 0 197 64" fill="none" xmlns="http://www.w3.org/2000/svg">
<path d="M47.9999 21.225C47.4627 20.1176 46.8411 19.0489 46.1199 18.041L38.4144 20.8399C39.3104 21.7553 40.0634 22.7842 40.6791 23.8846L47.9999 21.225ZM13.9383 29.7313L6.23047 32.5302C6.32899 33.764 6.54244 34.9826 6.84151 36.1766L14.1635 33.5158C13.9254 32.2797 13.8409 31.0061 13.9383 29.7313Z" fill="#6C7993"/>
<path d="M31.0424 19.0464C32.6457 19.7932 34.0343 20.8116 35.206 22.0056L42.9114 19.2068C40.7769 16.2171 37.8694 13.7191 34.3076 12.0603C23.2912 6.93317 10.1485 11.7068 5.01267 22.701C3.3496 26.2584 2.73152 30.037 3.02238 33.6963L10.729 30.8974C10.8569 29.2305 11.2638 27.5601 12.0109 25.9587C15.3488 18.8158 23.8858 15.7161 31.0424 19.0464Z" fill="#6C7993"/>
<path d="M39.264 33.1006C39.1409 34.7664 38.7198 36.4368 37.9704 38.0393C34.6337 45.1834 26.0955 48.2831 18.9401 44.9528C17.3345 44.2048 15.9353 43.1946 14.7684 41.9983L7.07812 44.7913C9.20798 47.7809 12.1119 50.2801 15.6761 51.94C26.6925 57.066 39.8329 52.2924 44.9698 41.2971C46.6341 37.742 47.2475 33.9634 46.9543 30.3076L39.264 33.1006Z" fill="#6C7993"/>
<path d="M41.1583 23.7109L33.8363 26.3705C35.1968 28.803 35.8395 31.603 35.6284 34.4195L43.3186 31.6276C43.0981 28.8732 42.3628 26.1844 41.1583 23.7109ZM7.32196 36.0011L0 38.6631C0.67203 41.3273 1.83899 43.8593 3.44342 46.1127L11.1325 43.3185C9.15861 41.2957 7.84622 38.7356 7.32196 36.0011Z" fill="#6C7993"/>
<path d="M46.884 19.1987C46.6412 18.8054 46.3891 18.4179 46.1205 18.041L38.415 20.8399C38.754 21.1864 39.0659 21.5539 39.3638 21.9309L46.884 19.1987ZM13.909 31.2758C13.8903 30.7631 13.8984 30.248 13.9383 29.7318L6.23047 32.5306C6.27034 33.0235 6.3325 33.5128 6.40639 34.0009L13.909 31.2758H13.909Z" fill="#6C7993"/>
<path d="M46.9531 30.3076L39.2629 33.1006C39.1819 34.2057 38.9661 35.313 38.6131 36.4017L46.9836 33.3558C47.0434 32.3351 47.034 31.3167 46.9531 30.3076ZM7.07812 44.7924C7.6704 45.6247 8.32601 46.4184 9.03792 47.1676L17.4096 44.1205C16.4314 43.5095 15.5471 42.7966 14.7672 41.9983L7.07812 44.7924Z" fill="#6C7993"/>
<path d="M184.808 23.276V25.0464H189.932V40.7258H191.872V25.0464H197V23.276H184.808ZM173.04 25.0449V30.8286H177.815V32.599H173.04V40.7243H171.1V23.2775H181.325V25.0449H173.04ZM164.163 23.2781H166.103V40.7279H164.163V23.2781ZM157.228 40.7258V32.4988H148.57V40.7258H146.63V23.276H148.57V30.7314H157.228V23.276H159.168V40.7258H157.228ZM136.534 41C134.171 41 132.054 39.9772 130.687 38.5837L131.983 37.1362C133.299 38.4072 134.818 39.2326 136.609 39.2326C138.922 39.2326 140.367 38.0842 140.367 36.2391C140.367 34.6182 139.397 33.6971 136.212 32.5488C132.454 31.203 131.186 29.9829 131.186 27.4649C131.186 24.6717 133.374 23 136.633 23C138.973 23 140.465 23.6998 141.934 24.8721L140.689 26.3913C139.421 25.3446 138.251 24.7704 136.511 24.7704C134.12 24.7704 133.126 25.9666 133.126 27.3393C133.126 28.7867 133.774 29.6061 137.257 30.8561C141.113 32.2497 142.307 33.5476 142.307 36.1404C142.307 38.8827 140.167 41 136.534 41ZM122.825 40.7258L116.432 31.2039C116.008 30.555 115.435 29.6817 115.211 29.2331C115.211 29.8821 115.262 32.0742 115.262 33.0461V40.7258H111.827V23.276H115.161L121.333 32.4988C121.757 33.1478 122.327 34.021 122.551 34.4696C122.551 33.8206 122.503 31.6286 122.503 30.6536V23.276H125.935V40.7258H122.825H122.825ZM95.3638 40.7258V23.276H107.455V26.6912H98.8469V29.7086H103.849V33.0969H98.8469V37.3106H107.828V40.7258H95.3638ZM85.4672 34.5446H81.6349V40.7261H78.1518V23.2763H85.7657C89.0488 23.2763 91.7619 25.0976 91.7619 28.8088C91.7619 32.849 89.0757 34.5446 85.4672 34.5446ZM85.6434 26.6676H81.635V31.1534H85.6912C87.3089 31.1534 88.1804 30.4028 88.1804 28.8836C88.1804 27.3644 87.1835 26.6676 85.6434 26.6676ZM66.6646 41C62.11 41 59 37.6596 59 32.0254C59 26.3913 62.1608 23 66.7153 23C71.2431 23 74.3531 26.3434 74.3531 31.9776C74.3531 37.6117 71.1923 41 66.6646 41ZM66.6407 26.466C64.2023 26.466 62.5846 28.4368 62.5846 31.9776C62.5846 35.5184 64.2769 37.534 66.7153 37.534C69.1538 37.534 70.7685 35.5662 70.7685 32.0254C70.7685 28.4846 69.0792 26.466 66.6407 26.466Z" fill="#6C7993"/>
</svg>
