<svg xmlns="http://www.w3.org/2000/svg" viewBox="0 0 99 48"><path d="M66.2,16.132a7.66,7.66,0,1,0,7.673,7.659c0-.035,0-.07,0-.105a7.532,7.532,0,0,0-7.509-7.555Zm0,13.035a5.229,5.229,0,0,1-5.071-5.382c0-.033,0-.066,0-.1a5.067,5.067,0,0,1,10.13-.3q0,.149,0,.3A5.228,5.228,0,0,1,66.3,29.163Z" style="fill:#191919"/><path d="M82.267,22.722c-1.521-.628-2.834-1.17-2.834-2.379a2.131,2.131,0,0,1,2.374-1.906,5.518,5.518,0,0,1,3.3,1.253l1.087-2.036a6.475,6.475,0,0,0-4.361-1.522c-2.816,0-4.938,1.832-4.938,4.253,0,2.547,2.228,3.507,4.193,4.353,1.558.671,2.9,1.249,2.9,2.483A2.031,2.031,0,0,1,81.7,29.146a6.016,6.016,0,0,1-3.735-1.534L76.6,29.5a7.322,7.322,0,0,0,5.056,1.955c2.857,0,4.853-1.766,4.853-4.3C86.512,24.475,84.258,23.544,82.267,22.722Z" style="fill:#191919"/><path d="M99,16.386h-9.62v2.073H93V31.2h2.353V18.459H99Z" style="fill:#191919"/><path d="M41.111,7.1a24.02,24.02,0,1,0-.15,33.941l.084-.083C45.4,36.616,52.988,30.617,52.988,24,52.988,17.417,45.424,11.444,41.111,7.1ZM39.905,37.619a19.189,19.189,0,0,1-13.59,5.629c-.6,0-1.184-.032-1.766-.087-.3-.027-.591-.062-.883-.1-.581.081-1.169.137-1.765.164-.293.014-.587.022-.884.022a19.2,19.2,0,0,1,0-38.4c.3,0,.589.01.881.023.6.027,1.186.087,1.767.164q.437-.061.882-.1c.583-.053,1.171-.087,1.767-.087a19.185,19.185,0,0,1,13.644,5.684c3.45,3.472,9.5,8.25,9.5,13.52C49.457,29.341,43.383,34.142,39.905,37.619Z" style="fill:#191919"/><path d="M39.955,10.532A19.179,19.179,0,0,0,26.313,4.848a14.071,14.071,0,0,0-2.649.186c4.625.423,9.666,2.381,12.762,5.5,3.45,3.473,9.5,8.25,9.5,13.521,0,5.293-6.074,10.093-9.555,13.57-3.547,3.541-8.11,5.022-12.708,5.443a16.3,16.3,0,0,0,2.648.186A19.189,19.189,0,0,0,39.9,37.621c3.481-3.478,9.555-8.278,9.555-13.57C49.457,18.782,43.405,14,39.955,10.532Z" style="fill:#8c195f"/><path d="M23.662,5.035a19.2,19.2,0,0,1,11,5.5c3.45,3.472,9.5,8.25,9.5,13.521,0,5.293-6.073,10.093-9.555,13.569a19.2,19.2,0,0,1-10.941,5.444h0c4.543-.4,9.235-1.933,12.708-5.444s9.555-8.277,9.555-13.569c0-5.267-6.051-10.045-9.5-13.521-3.1-3.116-8.137-5.074-12.762-5.5" style="fill:#d72864"/><path d="M3.553,24.048c0-10.293,8.286-18.729,20.109-19.016a18.47,18.47,0,0,0-2.647-.187,19.2,19.2,0,0,0,0,38.4,11.424,11.424,0,0,0,2.649-.187C13.505,43.339,3.553,34.339,3.553,24.048Z" style="fill:#8c195f"/><path d="M7.082,24.046A19.186,19.186,0,0,1,23.661,5.03h0c-11.82.284-20.109,8.723-20.109,19.016S13.49,43.339,23.663,43.063h0A19.235,19.235,0,0,1,7.082,24.046Z" style="fill:#d72864"/></svg>