<svg width="134" height="29" viewBox="0 0 134 29" fill="none" xmlns="http://www.w3.org/2000/svg">
<path d="M104.583 24.2077C104.273 24.2076 103.988 24.2076 103.676 24.2076C103.73 23.8631 103.764 23.571 103.823 23.2839C103.933 22.7471 104.057 22.2133 104.175 21.6782C104.24 21.3796 104.198 21.3193 103.885 21.3189C102.01 21.3164 100.135 21.3197 98.2599 21.315C98.033 21.3144 97.9091 21.3857 97.8631 21.6246C97.7236 22.3502 97.5719 23.0737 97.4126 23.7953C97.3215 24.2083 97.3107 24.2071 96.8911 24.2075C96.3417 24.208 95.7923 24.2118 95.243 24.2042C94.791 24.198 94.687 24.0646 94.7794 23.6181C94.9256 22.9115 95.0797 22.2065 95.2284 21.5004C95.4521 20.4376 95.6475 19.368 95.903 18.3129C96.2667 16.8111 96.9415 15.5038 98.379 14.739C99.1681 14.3192 100.028 14.1489 100.906 14.0553C101.86 13.9537 102.816 13.9063 103.773 14.0048C104.746 14.1048 105.717 14.2271 106.538 14.8238C107.235 15.3307 107.573 16.0283 107.624 16.8937C107.688 17.9629 107.455 18.9835 107.223 20.0118C106.954 21.1983 106.717 22.3918 106.473 23.5838C106.374 24.067 106.225 24.2039 105.734 24.2065C105.359 24.2084 104.984 24.2074 104.583 24.2077ZM103.457 19.654C103.64 19.6534 103.823 19.657 104.006 19.6515C104.383 19.6401 104.62 19.4761 104.706 19.1096C104.821 18.6118 104.947 18.1092 104.986 17.6023C105.046 16.8215 104.746 16.2087 103.914 15.9766C102.779 15.6597 101.64 15.7014 100.52 16.0405C99.7026 16.2879 99.0881 16.807 98.8126 17.6341C98.6324 18.1752 98.5215 18.7401 98.3929 19.2975C98.3119 19.648 98.323 19.653 98.6734 19.6532C100.25 19.6543 101.828 19.6539 103.457 19.654Z" fill="#6C7993"/>
<path d="M11.8178 22.3132C10.4024 23.4989 8.86905 24.4629 7.22524 25.2624C5.93867 25.8881 4.62878 26.4556 3.26109 26.8699C2.62371 27.063 1.95109 27.1399 1.29413 27.2678C1.25198 27.276 1.20709 27.2722 1.16356 27.271C0.710078 27.2583 0.571216 27.1049 0.737996 26.6831C0.989767 26.0462 1.26396 25.4129 1.59242 24.8129C2.18149 23.737 2.78484 22.6658 3.44392 21.632C4.11672 20.5767 4.85536 19.5627 5.5825 18.543C5.85924 18.1549 6.16952 17.7875 6.49414 17.4383C6.62935 17.2928 6.83097 17.1892 7.02176 17.1197C7.3303 17.0073 7.5808 17.1793 7.52227 17.4947C7.45383 17.8633 7.33207 18.2382 7.15396 18.5674C6.58673 19.6159 5.96098 20.6328 5.40106 21.6849C5.07936 22.2894 4.82248 22.9309 4.57171 23.5697C4.38476 24.0459 4.56246 24.2329 5.06672 24.1347C5.8223 23.9877 6.50892 23.6542 7.1468 23.2482C7.97405 22.7217 8.78525 22.1626 9.55758 21.559C10.411 20.892 11.1489 20.0953 11.7095 19.1632C11.9296 18.7972 12.1116 18.3746 12.1781 17.9567C12.3356 16.9668 11.7549 16.5211 10.9515 16.2641C9.97495 15.9517 8.96351 15.8353 7.93858 15.8366C6.99857 15.8378 6.05815 15.8525 5.11875 15.8284C4.75016 15.8189 4.38139 15.732 4.01758 15.6567C3.84464 15.6209 3.6514 15.5118 3.68851 15.3127C3.71535 15.1688 3.84771 14.9746 3.97632 14.9312C4.63357 14.7095 5.2959 14.4867 5.97332 14.3446C7.09107 14.1101 8.22872 13.9709 9.37246 14.0045C10.8231 14.0471 12.2583 14.2213 13.6006 14.8291C14.1604 15.0826 14.6651 15.411 14.9587 15.9896C15.258 16.5794 15.2496 17.189 15.0541 17.7901C14.5146 19.4494 13.4641 20.7703 12.2247 21.9587C12.0995 22.0787 11.9625 22.1865 11.8178 22.3132Z" fill="#6C7993"/>
<path d="M34.5084 24.2606C33.4632 24.2029 32.4765 23.9821 31.5926 23.458C30.5374 22.8325 29.9364 21.9006 29.8872 20.6469C29.858 19.9023 29.9034 19.1708 30.1536 18.4583C30.7526 16.7531 31.8899 15.5358 33.5283 14.8112C35.3331 14.013 37.2323 13.8996 39.1651 14.1775C40.1525 14.3195 41.0752 14.6276 41.8504 15.2895C42.3466 15.7133 42.6955 16.2361 42.8603 16.8643C43.2947 18.5202 42.873 20.0276 41.9573 21.4045C41.2332 22.4932 40.1978 23.2216 38.9743 23.6832C37.5378 24.2251 36.0529 24.3835 34.5084 24.2606ZM37.3354 15.8307C36.8763 15.8685 36.4129 15.8794 35.9589 15.9501C35.1739 16.0723 34.4494 16.3837 33.9244 16.9828C32.9973 18.0409 32.6382 19.3085 32.7736 20.7044C32.85 21.4915 33.4087 22.099 34.1746 22.312C35.0468 22.5544 35.9259 22.5734 36.814 22.422C38.0065 22.2188 38.956 21.6477 39.5266 20.5582C39.9608 19.7292 40.1809 18.8345 40.144 17.8915C40.1146 17.1387 39.7781 16.563 39.1031 16.2042C38.5656 15.9185 37.9796 15.8503 37.3354 15.8307Z" fill="#6C7993"/>
<path d="M23.4055 12.2736C22.4363 12.3604 21.4858 12.4042 20.5501 12.5456C19.5546 12.6962 19.2494 13.2764 19.7084 14.173C20.0053 14.7529 20.4228 15.2781 20.8315 15.7919C21.4031 16.5105 22.022 17.1913 22.6108 17.8966C23.0664 18.4424 23.5266 18.9863 23.9483 19.558C24.3775 20.1401 24.7494 20.7593 24.8079 21.5121C24.8864 22.523 24.3318 23.4085 23.3231 23.8947C22.4833 24.2993 21.5836 24.4462 20.6692 24.5165C20.1059 24.5599 19.5379 24.5906 18.9741 24.5693C18.0009 24.5325 17.0277 24.4693 16.0576 24.3818C15.3479 24.3178 14.6388 24.2206 13.9383 24.0907C13.6343 24.0343 13.3249 23.899 13.0687 23.7249C12.8254 23.5597 12.8982 23.2138 13.1787 23.0973C13.3678 23.0188 13.5797 22.9678 13.784 22.9579C15.0896 22.8948 16.3969 22.8648 17.7015 22.7879C18.8625 22.7194 20.0392 22.7393 21.155 22.3253C21.5133 22.1924 21.757 21.8761 21.7104 21.5625C21.6776 21.3414 21.626 21.1092 21.5212 20.9152C21.1271 20.186 20.6194 19.5368 20.0693 18.9168C19.5455 18.3265 19.0352 17.723 18.5426 17.1065C18.0603 16.503 17.5835 15.8921 17.1493 15.2539C16.7468 14.6622 16.4393 14.0203 16.4355 13.2726C16.4317 12.5203 16.8146 11.9777 17.382 11.559C18.2749 10.9001 19.3228 10.6987 20.4022 10.597C21.8313 10.4624 23.2399 10.6078 24.6358 10.895C25.1503 11.0008 25.6536 11.1675 26.1545 11.3296C26.3394 11.3895 26.4373 11.5581 26.4247 11.765C26.4118 11.9775 26.2638 12.0588 26.081 12.0981C25.8858 12.1401 25.6909 12.2047 25.4939 12.2135C24.8067 12.2442 24.1185 12.2551 23.4055 12.2736Z" fill="#6C7993"/>
<path d="M124.734 16.6175C124.642 17.047 124.553 17.4547 124.467 17.8632C124.397 18.2005 124.433 18.2491 124.778 18.2495C126.461 18.2516 128.145 18.2506 129.828 18.2511C129.967 18.2511 130.107 18.2471 130.246 18.2572C130.524 18.2775 130.627 18.4032 130.578 18.6687C130.524 18.9592 130.465 19.2489 130.396 19.5361C130.311 19.8934 130.22 19.9663 129.855 19.968C128.948 19.9721 128.041 19.9699 127.133 19.9702C126.2 19.9704 125.267 19.9744 124.334 19.9676C124.128 19.9661 124.024 20.0197 123.98 20.2436C123.855 20.8749 123.699 21.4999 123.559 22.1283C123.479 22.4872 123.519 22.5336 123.897 22.5337C125.991 22.5342 128.084 22.5337 130.177 22.534C130.273 22.534 130.371 22.5258 130.464 22.542C130.674 22.5784 130.835 22.6893 130.8 22.9243C130.744 23.3016 130.668 23.6765 130.582 24.0482C130.568 24.1097 130.467 24.1697 130.394 24.194C130.314 24.2203 130.221 24.2061 130.134 24.2062C127.003 24.2067 123.872 24.2068 120.741 24.207C120.688 24.207 120.636 24.207 120.584 24.2061C120.249 24.2 120.24 24.1787 120.306 23.8617C120.566 22.6194 120.816 21.3749 121.079 20.1332C121.261 19.2741 121.465 18.4197 121.648 17.5609C121.831 16.7026 121.993 15.8397 122.18 14.9824C122.253 14.6494 122.28 14.2591 122.644 14.0967C122.858 14.0015 123.115 13.9674 123.352 13.9665C125.908 13.9576 128.463 13.9608 131.019 13.9608C131.385 13.9608 131.751 13.9579 132.118 13.9629C132.447 13.9674 132.467 14.0018 132.396 14.3131C132.33 14.6015 132.277 14.8927 132.218 15.1825C132.153 15.4997 132.03 15.6176 131.713 15.6504C131.584 15.6638 131.452 15.6602 131.321 15.6602C129.341 15.6608 127.362 15.6603 125.382 15.661C124.934 15.6612 124.922 15.6753 124.846 16.1126C124.817 16.275 124.774 16.4349 124.734 16.6175Z" fill="#6C7993"/>
<path d="M56.201 20.0984C55.9631 20.88 55.6845 21.6171 55.1863 22.2543C54.6922 22.8863 54.0783 23.3479 53.3315 23.6419C52.3035 24.0468 51.2296 24.1924 50.136 24.2031C49.3871 24.2103 48.6341 24.2145 47.8896 24.1466C46.9588 24.0617 46.0444 23.8649 45.2808 23.268C44.7105 22.8222 44.4291 22.2176 44.3309 21.5043C44.1822 20.4235 44.4715 19.3981 44.6839 18.3616C44.9334 17.1445 45.1909 15.929 45.4367 14.7112C45.5086 14.3546 45.6916 14.1452 46.0695 14.1334C46.7315 14.1128 47.3946 14.1235 48.0572 14.1258C48.2602 14.1265 48.3342 14.2318 48.2902 14.4343C48.1018 15.3013 47.9179 16.1693 47.7329 17.037C47.5136 18.0655 47.2617 19.0887 47.0912 20.1253C47.0176 20.5725 46.9541 21.0578 47.1957 21.5051C47.4482 21.9727 47.8562 22.2108 48.3526 22.3149C49.252 22.5034 50.1598 22.5001 51.0518 22.3016C52.3956 22.0026 53.2397 21.187 53.5027 19.7482C53.6074 19.1756 53.756 18.6112 53.877 18.0414C54.0826 17.0726 54.2832 16.1027 54.4837 15.1328C54.5276 14.9203 54.5649 14.7063 54.6004 14.4922C54.6494 14.1967 54.724 14.1248 55.0338 14.1227C55.6268 14.1186 56.2198 14.1156 56.8127 14.1241C57.2783 14.1307 57.4106 14.2817 57.321 14.7434C57.1456 15.6475 56.9492 16.5475 56.7603 17.449C56.5767 18.3255 56.3917 19.2016 56.201 20.0984Z" fill="#6C7993"/>
<path d="M75.6463 15.8243C75.5156 15.8282 75.3847 15.8283 75.2542 15.8366C74.8855 15.86 74.6414 16.0109 74.5686 16.2561C74.4768 16.5652 74.5743 16.8468 74.9089 17.0559C75.3799 17.3502 75.8646 17.6248 76.3558 17.8844C77.0623 18.2579 77.7904 18.5916 78.4896 18.9777C79.0651 19.2955 79.6382 19.6295 80.1662 20.0189C81.2123 20.7903 81.1273 22.2903 80.3836 23.1524C79.831 23.793 79.0795 24.0005 78.2925 24.0941C77.6716 24.168 77.0426 24.198 76.4169 24.2019C74.3503 24.2147 72.2836 24.2069 70.2169 24.2069C70.1123 24.2069 70.0074 24.2007 69.9031 24.206C69.6991 24.2164 69.6115 24.1418 69.6674 23.9277C69.7354 23.667 69.7782 23.3992 69.8558 23.1417C69.965 22.7793 70.236 22.5873 70.6178 22.5866C72.1176 22.584 73.6175 22.5897 75.1173 22.582C75.639 22.5793 76.1636 22.5733 76.6809 22.5157C76.9273 22.4882 77.2073 22.39 77.3886 22.2295C77.7627 21.8985 77.6955 21.3977 77.2566 21.1292C76.5966 20.7255 75.9131 20.3604 75.2468 19.9664C74.2597 19.3828 73.268 18.8054 72.3019 18.1883C71.9948 17.9922 71.7363 17.6999 71.5029 17.4131C71.141 16.9685 71.1725 16.4319 71.2979 15.9181C71.5505 14.8832 72.3162 14.4176 73.2968 14.2729C73.9321 14.1791 74.5793 14.1332 75.2218 14.127C77.1488 14.1087 79.0761 14.1203 81.0032 14.1209C81.0902 14.121 81.1892 14.1037 81.2608 14.1388C81.3295 14.1725 81.4223 14.2718 81.4139 14.3289C81.3683 14.6377 81.3066 14.9455 81.2276 15.2476C81.1237 15.6453 80.7989 15.764 80.3995 15.8223C80.2474 15.8062 80.1357 15.7825 80.0239 15.7823C78.6849 15.7797 77.346 15.7795 76.007 15.7825C75.8867 15.7827 75.7666 15.8097 75.6463 15.8243Z" fill="#6C7993"/>
<path d="M90.3454 14.1205C91.7236 14.1205 93.0757 14.1197 94.4277 14.121C94.8491 14.1214 94.8646 14.1451 94.7552 14.5557C94.7328 14.6397 94.7084 14.7243 94.6972 14.8102C94.6109 15.4738 94.2764 15.7767 93.5981 15.7785C91.9931 15.7828 90.3879 15.7671 88.7833 15.7897C88.3897 15.7952 87.9815 15.8686 87.6084 15.9948C86.6647 16.3139 86.0865 17.0263 85.6998 17.9141C85.3431 18.733 85.1714 19.5895 85.2197 20.4818C85.264 21.3022 85.5423 22.0039 86.3446 22.3684C86.5596 22.4661 86.813 22.5214 87.0494 22.5233C88.6107 22.5359 90.1721 22.5254 91.7335 22.5305C92.0196 22.5315 92.3071 22.5572 92.5912 22.5929C92.9773 22.6414 93.1623 22.8794 93.1097 23.2622C93.073 23.5288 93.0137 23.7931 92.9468 24.054C92.9321 24.1113 92.8493 24.1706 92.7857 24.191C92.7057 24.2166 92.6132 24.206 92.5261 24.206C90.6071 24.2071 88.688 24.214 86.7691 24.2052C85.8656 24.2011 84.9852 24.0598 84.1486 23.6914C83.1276 23.2419 82.5005 22.4875 82.2846 21.3858C82.0808 20.3454 82.2777 19.3478 82.5587 18.3527C82.8562 17.2992 83.4378 16.4209 84.2347 15.6916C85.0228 14.9702 85.9769 14.5568 87.0128 14.3173C88.1049 14.0648 89.2139 14.1304 90.3454 14.1205Z" fill="#6C7993"/>
<path d="M110.236 24.207C109.835 24.2064 109.46 24.2024 109.085 24.2065C108.894 24.2085 108.812 24.1182 108.826 23.9343C108.832 23.8568 108.845 23.7793 108.862 23.7033C109.138 22.4466 109.419 21.1912 109.69 19.9334C109.975 18.608 110.25 17.2804 110.528 15.9536C110.65 15.3752 110.771 14.7968 110.885 14.2172C110.924 14.0219 111.023 13.9431 111.226 13.9459C111.889 13.9549 112.552 13.9435 113.214 13.9517C113.668 13.9574 113.802 14.1337 113.705 14.587C113.5 15.5471 113.282 16.5047 113.079 17.4652C112.826 18.664 112.582 19.865 112.332 21.0645C112.252 21.4472 112.164 21.8282 112.081 22.2101C112.019 22.4903 112.051 22.5321 112.34 22.5323C114.197 22.534 116.054 22.533 117.912 22.5357C118.378 22.5364 118.566 22.7873 118.457 23.2484C118.451 23.2738 118.447 23.3 118.441 23.3254C118.401 23.4945 118.357 23.6631 118.319 23.8328C118.235 24.2044 118.236 24.2059 117.848 24.206C115.319 24.2067 112.791 24.2068 110.236 24.207Z" fill="#6C7993"/>
<path d="M18.0742 8.25709C16.717 9.70419 15.1764 10.8894 13.4727 11.8614C12.6565 12.327 11.8366 12.7943 10.9088 13.0161C10.8159 13.0383 10.7168 13.0711 10.6265 13.058C10.4985 13.0395 10.3056 13.0157 10.2677 12.9346C10.2117 12.8146 10.2085 12.5922 10.286 12.5016C10.5609 12.1799 10.8566 11.8672 11.1859 11.6027C12.0593 10.9012 12.9794 10.2562 13.8342 9.5334C14.8253 8.69535 15.7693 7.79903 16.4466 6.67085C16.6011 6.41334 16.7134 6.12711 16.8195 5.84444C17.0918 5.11841 16.6278 4.63659 16.0097 4.43381C14.5433 3.95268 13.0269 3.85562 11.4985 3.84532C11.0122 3.84205 10.5257 3.82448 10.0398 3.80249C9.91118 3.79666 9.765 3.78046 9.66166 3.71451C9.53181 3.63165 9.36199 3.49993 9.3502 3.37592C9.33914 3.25945 9.48448 3.07096 9.60821 3.01008C9.91832 2.85748 10.2467 2.72271 10.5827 2.64515C12.4756 2.20807 14.3923 2.08073 16.3196 2.33824C17.209 2.45708 18.0831 2.68537 18.8304 3.2257C19.5701 3.7605 19.8586 4.59263 19.6514 5.48086C19.4279 6.43835 18.9219 7.23918 18.2979 7.97789C18.225 8.06421 18.1572 8.15489 18.0742 8.25709Z" fill="#6C7993"/>
<path d="M62.5081 16.8486C62.6246 16.4453 62.6672 16.4084 63.0561 16.4063C63.6841 16.4029 64.3122 16.4032 64.9402 16.4059C65.3487 16.4076 65.4557 16.5294 65.3732 16.9351C65.257 17.5061 65.117 18.0721 64.9956 18.642C64.7186 19.9425 64.4468 21.2442 64.1728 22.5454C64.1047 22.8689 64.0475 23.1952 63.9652 23.5151C63.8405 23.9995 63.5821 24.1995 63.0832 24.2047C62.4814 24.2111 61.8795 24.2089 61.2776 24.2045C61.0035 24.2025 60.9764 24.161 61.0345 23.8909C61.2867 22.7179 61.544 21.546 61.7898 20.3717C62.0339 19.2056 62.2665 18.0372 62.5081 16.8486Z" fill="#6C7993"/>
<path d="M61.085 14.1197C63.9364 14.1197 66.7616 14.1197 69.5868 14.1196C69.6304 14.1196 69.674 14.1195 69.7176 14.1197C70.2171 14.1218 70.2234 14.1338 70.0917 14.6176C70.0439 14.7933 70.0109 14.9736 69.9817 15.1536C69.9166 15.5552 69.6788 15.7782 69.2727 15.7785C65.7761 15.7809 62.2795 15.7775 58.7828 15.7838C58.5337 15.7842 58.4735 15.6878 58.5245 15.4714C58.5943 15.1751 58.6373 14.868 58.7479 14.5877C58.8071 14.4378 58.9642 14.2951 59.1129 14.2204C59.2683 14.1424 59.4661 14.1287 59.6463 14.124C60.1168 14.1117 60.5879 14.1198 61.085 14.1197Z" fill="#6C7993"/>
<path d="M75.6699 15.8269C75.7667 15.8097 75.8868 15.7827 76.0071 15.7825C77.3461 15.7795 78.685 15.7797 80.024 15.7823C80.1358 15.7825 80.2475 15.8062 80.3798 15.8259C78.8313 15.8318 77.2623 15.8306 75.6699 15.8269Z" fill="#1B223C"/>
</svg>
