<svg width="109" height="24" viewBox="0 0 109 24" fill="none" xmlns="http://www.w3.org/2000/svg">
<path d="M85.0712 19.2242C84.8189 19.2242 84.5878 19.2242 84.3335 19.2242C84.3774 18.944 84.4054 18.7063 84.4532 18.4728C84.5425 18.0362 84.6433 17.6019 84.7393 17.1667C84.7928 16.9238 84.7582 16.8748 84.5035 16.8744C82.9784 16.8724 81.4532 16.875 79.9281 16.8712C79.7435 16.8708 79.6427 16.9287 79.6053 17.1231C79.4918 17.7133 79.3684 18.3018 79.2388 18.8888C79.1647 19.2247 79.1559 19.2237 78.8146 19.2241C78.3677 19.2245 77.9208 19.2276 77.474 19.2214C77.1063 19.2163 77.0217 19.1078 77.0969 18.7446C77.2158 18.1699 77.3412 17.5964 77.4621 17.022C77.6441 16.1575 77.803 15.2875 78.0109 14.4292C78.3067 13.2076 78.8556 12.1443 80.025 11.5221C80.6668 11.1806 81.3661 11.0421 82.0807 10.966C82.8568 10.8833 83.6343 10.8448 84.413 10.9249C85.2037 11.0062 85.9936 11.1057 86.6616 11.5911C87.229 12.0034 87.5034 12.5709 87.5455 13.2748C87.5975 14.1445 87.4077 14.9747 87.2185 15.8112C87.0002 16.7763 86.807 17.7472 86.6088 18.7167C86.5285 19.1098 86.4067 19.2212 86.0076 19.2232C85.7026 19.2248 85.3975 19.224 85.0712 19.2242ZM84.1554 15.5201C84.3042 15.5197 84.4531 15.5226 84.6019 15.5181C84.9086 15.5088 85.1019 15.3754 85.1712 15.0773C85.2653 14.6723 85.3679 14.2635 85.3995 13.8512C85.4482 13.2161 85.2036 12.7176 84.5275 12.5288C83.6042 12.271 82.6773 12.305 81.7664 12.5807C81.1016 12.782 80.6017 13.2043 80.3776 13.8771C80.231 14.3172 80.1408 14.7768 80.0362 15.2301C79.9704 15.5153 79.9794 15.5193 80.2644 15.5195C81.5472 15.5204 82.8301 15.52 84.1554 15.5201Z" fill="#6C7993"/>
<path d="M9.61297 17.683C8.46165 18.6475 7.21436 19.4317 5.87724 20.082C4.83069 20.591 3.76518 21.0526 2.65266 21.3896C2.1342 21.5467 1.58706 21.6092 1.05267 21.7133C1.01839 21.72 0.981875 21.7168 0.946466 21.7158C0.577587 21.7056 0.464631 21.5808 0.600295 21.2376C0.805094 20.7196 1.02813 20.2044 1.29531 19.7164C1.77448 18.8412 2.26526 17.9699 2.80138 17.129C3.34866 16.2705 3.94949 15.4457 4.54097 14.6162C4.76608 14.3005 5.01848 14.0017 5.28253 13.7176C5.39252 13.5993 5.55652 13.515 5.71172 13.4585C5.9627 13.367 6.16646 13.507 6.11884 13.7635C6.06317 14.0634 5.96413 14.3683 5.81925 14.6361C5.35785 15.4889 4.84884 16.3161 4.39338 17.1719C4.1317 17.6636 3.92275 18.1855 3.71877 18.7051C3.56669 19.0924 3.71124 19.2446 4.12142 19.1647C4.73603 19.0451 5.29455 18.7738 5.81343 18.4436C6.48634 18.0153 7.14619 17.5606 7.77443 17.0696C8.46866 16.527 9.06885 15.879 9.52489 15.1207C9.70393 14.823 9.85195 14.4793 9.90604 14.1393C10.0342 13.3341 9.56183 12.9715 8.90832 12.7625C8.11394 12.5084 7.2912 12.4137 6.45748 12.4148C5.69285 12.4158 4.92788 12.4277 4.16375 12.4081C3.86392 12.4004 3.56395 12.3297 3.26802 12.2684C3.12734 12.2393 2.97016 12.1505 3.00034 11.9886C3.02217 11.8715 3.12984 11.7136 3.23445 11.6783C3.76908 11.4979 4.30785 11.3167 4.85888 11.2011C5.76809 11.0104 6.6935 10.8971 7.62385 10.9245C8.80386 10.9592 9.97128 11.1008 11.0632 11.5952C11.5186 11.8014 11.929 12.0686 12.1679 12.5392C12.4113 13.019 12.4045 13.5148 12.2455 14.0038C11.8066 15.3535 10.9521 16.428 9.94397 17.3946C9.84212 17.4923 9.7307 17.58 9.61297 17.683Z" fill="#6C7993"/>
<path d="M28.0701 19.2675C27.2198 19.2205 26.4173 19.0409 25.6982 18.6146C24.8399 18.1057 24.351 17.3477 24.311 16.328C24.2873 15.7223 24.3242 15.1272 24.5278 14.5477C25.015 13.1606 25.9401 12.1704 27.2729 11.581C28.7409 10.9317 30.2858 10.8395 31.858 11.0655C32.6612 11.181 33.4117 11.4317 34.0423 11.9701C34.4459 12.3148 34.7297 12.74 34.8638 13.251C35.2171 14.598 34.8741 15.8242 34.1292 16.9442C33.5403 17.8298 32.698 18.4223 31.7028 18.7978C30.5343 19.2386 29.3265 19.3674 28.0701 19.2675ZM30.3697 12.4103C29.9962 12.4411 29.6193 12.4499 29.25 12.5074C28.6114 12.6068 28.0221 12.8601 27.5951 13.3474C26.8409 14.2081 26.5488 15.2392 26.6589 16.3747C26.7211 17.015 27.1755 17.5091 27.7986 17.6824C28.508 17.8796 29.2231 17.895 29.9455 17.7719C30.9155 17.6066 31.6879 17.1421 32.152 16.2558C32.5052 15.5814 32.6843 14.8537 32.6543 14.0866C32.6304 13.4742 32.3567 13.006 31.8075 12.7141C31.3703 12.4817 30.8936 12.4262 30.3697 12.4103Z" fill="#6C7993"/>
<path d="M19.0389 9.51677C18.2505 9.5874 17.4773 9.62299 16.7162 9.73807C15.9064 9.86051 15.6582 10.3325 16.0315 11.0619C16.273 11.5335 16.6127 11.9608 16.9451 12.3787C17.41 12.9633 17.9135 13.517 18.3924 14.0908C18.763 14.5347 19.1374 14.9771 19.4804 15.4422C19.8295 15.9156 20.132 16.4194 20.1796 17.0317C20.2435 17.854 19.7923 18.5743 18.9718 18.9697C18.2887 19.2989 17.5569 19.4183 16.813 19.4756C16.3548 19.5109 15.8928 19.5359 15.4342 19.5185C14.6426 19.4886 13.8509 19.4372 13.0619 19.366C12.4845 19.3139 11.9078 19.2349 11.3379 19.1292C11.0907 19.0833 10.839 18.9733 10.6306 18.8317C10.4327 18.6973 10.4919 18.4159 10.72 18.3212C10.8738 18.2573 11.0463 18.2158 11.2125 18.2077C12.2744 18.1564 13.3378 18.132 14.3991 18.0695C15.3434 18.0138 16.3006 18.03 17.2083 17.6932C17.4997 17.5851 17.6979 17.3278 17.66 17.0727C17.6333 16.8928 17.5914 16.7039 17.5061 16.5462C17.1855 15.953 16.7726 15.4249 16.3251 14.9206C15.899 14.4404 15.4839 13.9495 15.0832 13.448C14.6909 12.9571 14.3031 12.4602 13.9499 11.941C13.6225 11.4597 13.3723 10.9376 13.3692 10.3294C13.3662 9.71745 13.6776 9.27606 14.1391 8.93548C14.8654 8.3995 15.7179 8.2357 16.5959 8.15301C17.7584 8.04354 18.9041 8.16175 20.0397 8.39538C20.4581 8.48148 20.8675 8.61702 21.275 8.74892C21.4254 8.79761 21.505 8.93481 21.4948 9.10304C21.4843 9.27596 21.3639 9.3421 21.2152 9.37407C21.0564 9.4082 20.8979 9.46072 20.7376 9.46789C20.1786 9.49287 19.6189 9.50171 19.0389 9.51677Z" fill="#6C7993"/>
<path d="M101.462 13.0504C101.388 13.3998 101.315 13.7314 101.246 14.0637C101.188 14.3381 101.218 14.3776 101.499 14.3779C102.868 14.3797 104.237 14.3788 105.606 14.3792C105.72 14.3793 105.834 14.376 105.947 14.3842C106.172 14.4007 106.256 14.5029 106.216 14.7189C106.173 14.9552 106.124 15.1909 106.069 15.4245C105.999 15.7151 105.926 15.7744 105.628 15.7758C104.89 15.7792 104.152 15.7774 103.415 15.7776C102.656 15.7778 101.896 15.781 101.137 15.7755C100.97 15.7742 100.885 15.8179 100.849 16C100.748 16.5135 100.621 17.0219 100.507 17.5331C100.442 17.825 100.475 17.8627 100.782 17.8628C102.485 17.8632 104.188 17.8629 105.89 17.8631C105.968 17.8631 106.048 17.8564 106.124 17.8696C106.295 17.8992 106.425 17.9894 106.397 18.1805C106.352 18.4875 106.29 18.7924 106.22 19.0947C106.208 19.1448 106.126 19.1936 106.066 19.2134C106.002 19.2348 105.926 19.2233 105.855 19.2233C103.308 19.2237 100.761 19.2238 98.2146 19.2239C98.172 19.2239 98.1294 19.224 98.0869 19.2232C97.8148 19.2182 97.8069 19.201 97.861 18.9431C98.0728 17.9326 98.2758 16.9202 98.4898 15.9102C98.6379 15.2114 98.8035 14.5164 98.9525 13.8178C99.1014 13.1196 99.2329 12.4177 99.3855 11.7203C99.4448 11.4494 99.4664 11.132 99.7627 10.9999C99.9367 10.9224 100.146 10.8947 100.339 10.894C102.418 10.8868 104.496 10.8894 106.575 10.8894C106.873 10.8894 107.171 10.887 107.469 10.8911C107.737 10.8948 107.753 10.9227 107.695 11.1759C107.642 11.4105 107.599 11.6474 107.55 11.8832C107.497 12.1411 107.397 12.237 107.14 12.2637C107.034 12.2747 106.927 12.2717 106.821 12.2717C105.211 12.2722 103.6 12.2718 101.99 12.2723C101.626 12.2725 101.616 12.284 101.554 12.6397C101.531 12.7718 101.495 12.9019 101.462 13.0504Z" fill="#6C7993"/>
<path d="M45.7156 15.8817C45.5221 16.5175 45.2955 17.1171 44.8902 17.6354C44.4883 18.1495 43.9889 18.5249 43.3815 18.7641C42.5453 19.0934 41.6718 19.2119 40.7822 19.2206C40.173 19.2265 39.5604 19.2299 38.9549 19.1746C38.1977 19.1056 37.4539 18.9455 36.8328 18.46C36.3689 18.0973 36.14 17.6055 36.0601 17.0253C35.9391 16.1462 36.1745 15.312 36.3473 14.4689C36.5502 13.4789 36.7597 12.4902 36.9596 11.4996C37.0181 11.2095 37.1669 11.0392 37.4743 11.0296C38.0128 11.0128 38.5522 11.0215 39.0912 11.0234C39.2563 11.024 39.3165 11.1096 39.2807 11.2743C39.1274 11.9796 38.9779 12.6856 38.8274 13.3915C38.649 14.2281 38.4441 15.0604 38.3054 15.9035C38.2455 16.2673 38.1939 16.6621 38.3904 17.026C38.5958 17.4063 38.9277 17.6 39.3315 17.6847C40.0631 17.838 40.8015 17.8353 41.5271 17.6739C42.6202 17.4306 43.3068 16.7672 43.5207 15.5968C43.6059 15.1311 43.7268 14.6719 43.8252 14.2085C43.9925 13.4204 44.1556 12.6315 44.3187 11.8425C44.3544 11.6696 44.3847 11.4956 44.4136 11.3214C44.4535 11.081 44.5142 11.0226 44.7662 11.0208C45.2485 11.0175 45.7309 11.0151 46.2132 11.022C46.5919 11.0274 46.6996 11.1502 46.6267 11.5257C46.484 12.2612 46.3242 12.9933 46.1706 13.7266C46.0212 14.4395 45.8707 15.1522 45.7156 15.8817Z" fill="#6C7993"/>
<path d="M61.5332 12.4051C61.4268 12.4083 61.3203 12.4084 61.2142 12.4151C60.9143 12.4341 60.7157 12.5569 60.6565 12.7564C60.5818 13.0078 60.6611 13.2369 60.9333 13.4069C61.3164 13.6464 61.7107 13.8697 62.1102 14.0809C62.685 14.3847 63.2772 14.6561 63.846 14.9702C64.3141 15.2287 64.7802 15.5004 65.2097 15.8171C66.0607 16.4447 65.9916 17.6648 65.3866 18.3661C64.9371 18.8871 64.3258 19.0559 63.6856 19.1321C63.1806 19.1921 62.6689 19.2165 62.1599 19.2197C60.4789 19.2302 58.7978 19.2238 57.1167 19.2238C57.0316 19.2238 56.9462 19.2187 56.8614 19.2231C56.6955 19.2315 56.6243 19.1709 56.6697 18.9967C56.725 18.7846 56.7598 18.5668 56.8229 18.3573C56.9118 18.0625 57.1322 17.9064 57.4428 17.9058C58.6628 17.9037 59.8828 17.9084 61.1028 17.902C61.5272 17.8998 61.9539 17.895 62.3747 17.8481C62.5751 17.8258 62.8029 17.7459 62.9504 17.6153C63.2547 17.3461 63.2 16.9387 62.843 16.7203C62.3061 16.3919 61.7501 16.0949 61.2082 15.7745C60.4052 15.2997 59.5986 14.83 58.8127 14.3281C58.5629 14.1685 58.3526 13.9308 58.1627 13.6975C57.8683 13.3358 57.894 12.8994 57.996 12.4814C58.2014 11.6396 58.8243 11.2609 59.6219 11.1431C60.1387 11.0668 60.6652 11.0295 61.1879 11.0245C62.7553 11.0096 64.323 11.019 65.8906 11.0196C65.9614 11.0196 66.0419 11.0055 66.1002 11.0341C66.1561 11.0615 66.2315 11.1423 66.2247 11.1887C66.1876 11.4399 66.1374 11.6903 66.0732 11.936C65.9886 12.2595 65.7245 12.3561 65.3996 12.4035C65.2758 12.3904 65.1849 12.3711 65.094 12.3709C64.0048 12.3688 62.9157 12.3687 61.8265 12.3711C61.7287 12.3713 61.6309 12.3933 61.5332 12.4051Z" fill="#6C7993"/>
<path d="M73.49 11.0192C74.611 11.0193 75.7108 11.0186 76.8106 11.0197C77.1534 11.02 77.166 11.0393 77.077 11.3732C77.0588 11.4416 77.0389 11.5104 77.0298 11.5803C76.9596 12.12 76.6875 12.3665 76.1358 12.3679C74.8302 12.3714 73.5245 12.3586 72.2192 12.377C71.8991 12.3815 71.5671 12.4413 71.2636 12.5439C70.4959 12.8034 70.0256 13.383 69.711 14.1051C69.4209 14.7712 69.2812 15.4679 69.3205 16.1938C69.3566 16.8611 69.5829 17.4319 70.2355 17.7284C70.4104 17.8079 70.6166 17.8529 70.8089 17.8544C72.0788 17.8646 73.349 17.8561 74.619 17.8603C74.8517 17.861 75.0856 17.882 75.3167 17.911C75.6308 17.9504 75.7813 18.144 75.7385 18.4554C75.7087 18.6723 75.6604 18.8873 75.606 19.0995C75.594 19.1461 75.5267 19.1944 75.4749 19.2109C75.4099 19.2318 75.3346 19.2231 75.2638 19.2232C73.7028 19.2241 72.1418 19.2296 70.5808 19.2225C69.8459 19.2192 69.1298 19.1042 68.4492 18.8046C67.6187 18.4389 67.1086 17.8253 66.933 16.9291C66.7672 16.0828 66.9274 15.2713 67.156 14.4619C67.398 13.6049 67.871 12.8905 68.5192 12.2972C69.1604 11.7105 69.9364 11.3742 70.7791 11.1793C71.6674 10.9739 72.5695 11.0273 73.49 11.0192Z" fill="#6C7993"/>
<path d="M89.6693 19.2238C89.343 19.2233 89.038 19.22 88.7331 19.2233C88.5776 19.225 88.5107 19.1515 88.5223 19.0019C88.5272 18.9389 88.538 18.8758 88.5515 18.814C88.7759 17.7918 89.005 16.7706 89.2251 15.7475C89.457 14.6693 89.6808 13.5895 89.9072 12.5101C90.0058 12.0397 90.1044 11.5692 90.1976 11.0977C90.2291 10.9389 90.3096 10.8748 90.4749 10.877C91.0139 10.8844 91.553 10.8751 92.0919 10.8818C92.4611 10.8864 92.5702 11.0298 92.4913 11.3986C92.3241 12.1795 92.1474 12.9584 91.9821 13.7398C91.7758 14.7149 91.578 15.6918 91.3745 16.6675C91.3096 16.9788 91.2379 17.2887 91.1699 17.5994C91.12 17.8273 91.1455 17.8613 91.3809 17.8615C92.8916 17.8629 94.4023 17.8621 95.9129 17.8643C96.2922 17.8648 96.445 18.0689 96.3562 18.444C96.3514 18.4647 96.3488 18.4859 96.3438 18.5066C96.3107 18.6442 96.2753 18.7813 96.2442 18.9194C96.1763 19.2216 96.1772 19.2229 95.861 19.223C93.8042 19.2235 91.7474 19.2236 89.6693 19.2238Z" fill="#6C7993"/>
<path d="M14.7023 6.24975C13.5983 7.42687 12.3452 8.39095 10.9593 9.18159C10.2954 9.56037 9.62846 9.94049 8.87375 10.1209C8.79823 10.1389 8.71756 10.1657 8.64413 10.155C8.54 10.1399 8.3831 10.1205 8.3523 10.0546C8.30671 9.95699 8.30414 9.77608 8.36716 9.70234C8.59074 9.44071 8.83134 9.18636 9.09918 8.97121C9.80964 8.40053 10.5581 7.87588 11.2534 7.28794C12.0596 6.60624 12.8275 5.87715 13.3784 4.95945C13.5041 4.74998 13.5954 4.51715 13.6817 4.28722C13.9033 3.69664 13.5258 3.30471 13.023 3.13976C11.8302 2.7484 10.5967 2.66945 9.35344 2.66107C8.95783 2.65841 8.56215 2.64412 8.1669 2.62623C8.06227 2.62149 7.94336 2.60831 7.8593 2.55467C7.75367 2.48727 7.61554 2.38012 7.60595 2.27924C7.59695 2.1845 7.71518 2.03118 7.81582 1.98166C8.06808 1.85753 8.33522 1.7479 8.60848 1.68481C10.1483 1.32928 11.7074 1.2257 13.2751 1.43516C13.9986 1.53183 14.7096 1.71753 15.3175 2.15705C15.9191 2.59208 16.1539 3.26896 15.9853 3.99147C15.8035 4.77032 15.3919 5.42175 14.8843 6.02264C14.825 6.09285 14.7698 6.16661 14.7023 6.24975Z" fill="#6C7993"/>
<path d="M50.8461 13.2383C50.9409 12.9102 50.9756 12.8802 51.2919 12.8785C51.8028 12.8757 52.3137 12.876 52.8245 12.8781C53.1568 12.8795 53.2438 12.9786 53.1767 13.3087C53.0822 13.7731 52.9683 14.2335 52.8696 14.6971C52.6443 15.755 52.4232 16.8138 52.2003 17.8722C52.1449 18.1354 52.0983 18.4008 52.0314 18.661C51.93 19.055 51.7198 19.2177 51.314 19.222C50.8244 19.2272 50.3348 19.2254 49.8452 19.2218C49.6223 19.2202 49.6002 19.1864 49.6475 18.9667C49.8526 18.0126 50.0619 17.0593 50.2619 16.104C50.4604 15.1556 50.6497 14.2051 50.8461 13.2383Z" fill="#6C7993"/>
<path d="M49.6886 11.0182C52.008 11.0182 54.3062 11.0181 56.6043 11.0181C56.6398 11.0181 56.6752 11.018 56.7107 11.0182C57.117 11.0198 57.1221 11.0296 57.015 11.4232C56.9761 11.566 56.9492 11.7128 56.9255 11.8591C56.8726 12.1859 56.6791 12.3672 56.3488 12.3675C53.5046 12.3694 50.6603 12.3667 47.816 12.3718C47.6133 12.3721 47.5644 12.2937 47.6059 12.1177C47.6626 11.8767 47.6976 11.6269 47.7876 11.3989C47.8357 11.2769 47.9635 11.1609 48.0845 11.1001C48.2109 11.0366 48.3718 11.0255 48.5183 11.0217C48.9011 11.0117 49.2843 11.0182 49.6886 11.0182Z" fill="#6C7993"/>
<path d="M61.5522 12.4071C61.6309 12.3931 61.7287 12.3711 61.8265 12.3709C62.9157 12.3685 64.0048 12.3687 65.094 12.3708C65.1849 12.3709 65.2758 12.3902 65.3834 12.4063C64.1238 12.411 62.8476 12.4101 61.5522 12.4071Z" fill="#1B223C"/>
</svg>
