<svg width="299" height="48" viewBox="0 0 299 48" fill="none" xmlns="http://www.w3.org/2000/svg">
<g clip-path="url(#clip0_718_8108)">
<path fill-rule="evenodd" clip-rule="evenodd" d="M73.1399 2.69C76.9966 9.6413 78.7002 17.5821 78.0343 25.5036C77.3684 33.4252 74.363 40.9701 69.3999 47.18H47.9599L54.5599 35.51H45.8299L56.1199 17.38H64.8999L73.1399 2.71V2.69ZM30.7999 47.18H8.93989C3.8842 40.9972 0.816714 33.4299 0.140312 25.4719C-0.53609 17.5139 1.21022 9.53738 5.14989 2.59L19.3299 27.22L34.9599 0H57.9599L30.8099 47.16L30.7999 47.18Z" fill="#6C7993"/>
<path d="M91.21 25.2801C91.21 12.6901 97.48 6.64014 107.78 6.64014C118.08 6.64014 124.34 12.6901 124.34 25.2801C124.34 37.8701 118.03 43.8501 107.78 43.8501C97.53 43.8501 91.21 37.7501 91.21 25.2801ZM94.93 25.2801C94.93 35.6301 99.65 40.5601 107.78 40.5601C115.91 40.5601 120.62 35.6301 120.62 25.2801C120.62 14.9301 115.9 9.93014 107.78 9.93014C99.66 9.93014 94.93 14.8701 94.93 25.2801Z" fill="#6C7993"/>
<path d="M151.41 8.12999C151.542 7.7858 151.775 7.48966 152.078 7.28074C152.382 7.07183 152.741 6.95998 153.11 6.95999C153.348 6.95865 153.583 7.00462 153.803 7.09523C154.022 7.18584 154.222 7.31927 154.389 7.48775C154.557 7.65622 154.689 7.85637 154.779 8.07651C154.868 8.29666 154.913 8.5324 154.91 8.76999C154.901 9.04041 154.847 9.30745 154.75 9.55999L142.33 42.31C142.215 42.6691 141.989 42.9823 141.684 43.2045C141.379 43.4268 141.012 43.5465 140.635 43.5465C140.258 43.5465 139.891 43.4268 139.586 43.2045C139.281 42.9823 139.055 42.6691 138.94 42.31L126.52 9.55999C126.423 9.30745 126.369 9.04041 126.36 8.76999C126.357 8.5324 126.402 8.29666 126.491 8.07651C126.581 7.85637 126.713 7.65622 126.881 7.48775C127.048 7.31927 127.248 7.18584 127.467 7.09523C127.687 7.00462 127.922 6.95865 128.16 6.95999C128.528 6.95998 128.888 7.07183 129.192 7.28074C129.495 7.48966 129.728 7.7858 129.86 8.12999L140.63 36.69L151.41 8.12999Z" fill="#6C7993"/>
<path d="M162.45 26.4401V41.7301C162.468 41.9784 162.436 42.2279 162.353 42.4629C162.271 42.6979 162.141 42.9134 161.972 43.0959C161.802 43.2785 161.597 43.424 161.369 43.5236C161.14 43.6231 160.894 43.6745 160.645 43.6745C160.396 43.6745 160.15 43.6231 159.921 43.5236C159.693 43.424 159.488 43.2785 159.318 43.0959C159.149 42.9134 159.019 42.6979 158.937 42.4629C158.854 42.2279 158.821 41.9784 158.84 41.7301V8.73009C158.821 8.48175 158.854 8.23228 158.937 7.99726C159.019 7.76224 159.149 7.54674 159.318 7.36423C159.488 7.18172 159.693 7.03614 159.921 6.93658C160.15 6.83703 160.396 6.78564 160.645 6.78564C160.894 6.78564 161.14 6.83703 161.369 6.93658C161.597 7.03614 161.802 7.18172 161.972 7.36423C162.141 7.54674 162.271 7.76224 162.353 7.99726C162.436 8.23228 162.468 8.48175 162.45 8.73009V23.1501H180.93V8.77009C180.911 8.52176 180.944 8.27228 181.027 8.03726C181.109 7.80224 181.239 7.58674 181.408 7.40423C181.578 7.22173 181.783 7.07614 182.011 6.97659C182.24 6.87703 182.486 6.82565 182.735 6.82565C182.984 6.82565 183.23 6.87703 183.459 6.97659C183.687 7.07614 183.892 7.22173 184.062 7.40423C184.231 7.58674 184.361 7.80224 184.443 8.03726C184.526 8.27228 184.558 8.52176 184.54 8.77009V41.7701C184.558 42.0184 184.526 42.2679 184.443 42.5029C184.361 42.7379 184.231 42.9534 184.062 43.1359C183.892 43.3185 183.687 43.464 183.459 43.5636C183.23 43.6631 182.984 43.7145 182.735 43.7145C182.486 43.7145 182.24 43.6631 182.011 43.5636C181.783 43.464 181.578 43.3185 181.408 43.1359C181.239 42.9534 181.109 42.7379 181.027 42.5029C180.944 42.2679 180.911 42.0184 180.93 41.7701V26.4401H162.45Z" fill="#6C7993"/>
<path d="M201.58 18.27C203.133 18.2033 204.679 18.4993 206.098 19.1346C207.516 19.77 208.766 20.727 209.75 21.93C209.987 22.2095 210.118 22.5635 210.12 22.93C210.124 23.1333 210.087 23.3354 210.011 23.5241C209.935 23.7128 209.822 23.8842 209.678 24.028C209.534 24.1718 209.363 24.2851 209.174 24.361C208.986 24.437 208.783 24.474 208.58 24.47C208.333 24.4716 208.089 24.4144 207.868 24.3031C207.647 24.1918 207.456 24.0296 207.31 23.83C206.619 22.9944 205.739 22.3361 204.742 21.9099C203.746 21.4837 202.661 21.302 201.58 21.38C196.69 21.38 194.09 24.51 194.09 31.04C194.09 37.57 196.69 40.75 201.58 40.75C203.833 40.7288 206.008 39.9225 207.73 38.47C208.01 38.233 208.364 38.102 208.73 38.1C209.139 38.1 209.53 38.2622 209.819 38.551C210.108 38.8398 210.27 39.2315 210.27 39.64C210.268 39.899 210.205 40.1538 210.085 40.3834C209.965 40.6129 209.792 40.8106 209.58 40.96C207.35 42.8557 204.507 43.8758 201.58 43.83C194.73 43.83 190.64 39.74 190.64 31.04C190.64 22.34 194.73 18.27 201.58 18.27Z" fill="#6C7993"/>
<path d="M218.51 7.00983V37.3798C218.51 39.4998 219.2 40.3798 220.63 40.3798C220.85 40.3624 221.071 40.3907 221.28 40.4629C221.488 40.5352 221.68 40.6498 221.842 40.7996C222.004 40.9494 222.134 41.1312 222.222 41.3334C222.311 41.5357 222.356 41.7541 222.356 41.9748C222.356 42.1956 222.311 42.414 222.222 42.6162C222.134 42.8185 222.004 43.0002 221.842 43.15C221.68 43.2998 221.488 43.4145 221.28 43.4867C221.071 43.559 220.85 43.5873 220.63 43.5698C217.08 43.5698 215.11 41.4398 215.11 37.3598V7.00983C215.123 6.56391 215.306 6.1399 215.622 5.82539C215.939 5.51089 216.364 5.3299 216.81 5.31982C217.259 5.31982 217.69 5.49755 218.008 5.81421C218.327 6.13086 218.507 6.56069 218.51 7.00983Z" fill="#6C7993"/>
<path d="M247.44 31.01C247.44 39.71 243.19 43.8 236.29 43.8C229.39 43.8 225.15 39.71 225.15 31.01C225.15 22.31 229.45 18.27 236.29 18.27C243.13 18.27 247.44 22.3 247.44 31.01ZM243.99 31.01C243.99 24.32 241.18 21.35 236.29 21.35C231.4 21.35 228.6 24.35 228.6 31.01C228.6 37.67 231.41 40.72 236.29 40.72C241.17 40.72 244.03 37.8 244.03 31.01H243.99Z" fill="#6C7993"/>
<path d="M255.62 20.2901V34.1401C255.62 37.5901 256.73 40.5601 262.09 40.5601C267.45 40.5601 268.57 37.5601 268.57 34.1401V20.2901C268.573 20.0634 268.62 19.8394 268.71 19.6311C268.799 19.4227 268.929 19.2341 269.091 19.0761C269.254 18.9181 269.446 18.7939 269.657 18.7105C269.868 18.627 270.093 18.5861 270.32 18.5901C270.54 18.5927 270.758 18.6388 270.96 18.7258C271.162 18.8128 271.345 18.9389 271.499 19.0969C271.652 19.2549 271.773 19.4417 271.853 19.6464C271.934 19.8512 271.974 20.07 271.97 20.2901V34.1401C271.97 39.1401 270.32 43.8001 262.09 43.8001C253.86 43.8001 252.22 39.1801 252.22 34.1401V20.2901C252.216 20.0658 252.257 19.8429 252.341 19.6348C252.425 19.4267 252.55 19.2377 252.709 19.079C252.868 18.9203 253.057 18.7952 253.265 18.7112C253.473 18.6272 253.696 18.5861 253.92 18.5901C254.37 18.5927 254.801 18.7727 255.119 19.0909C255.437 19.4092 255.617 19.8401 255.62 20.2901Z" fill="#6C7993"/>
<path d="M294.63 21.7201V7.01006C294.63 6.55919 294.809 6.12679 295.128 5.80798C295.447 5.48916 295.879 5.31006 296.33 5.31006C296.781 5.31006 297.214 5.48916 297.532 5.80798C297.851 6.12679 298.03 6.55919 298.03 7.01006V33.3801C298.03 40.3801 293.68 43.8401 287.63 43.8401C280.78 43.8401 276.74 39.7501 276.74 31.0501C276.74 22.3501 280.57 18.3101 287.41 18.3101C288.795 18.2846 290.167 18.5791 291.419 19.1705C292.671 19.762 293.77 20.6345 294.63 21.7201ZM294.63 26.0201C294.63 26.0201 292.63 21.3501 287.63 21.3501C282.63 21.3501 280.14 24.4801 280.14 31.0101C280.14 37.5401 282.74 40.7201 287.63 40.7201C291.71 40.7201 294.63 38.3901 294.63 33.3401V26.0201Z" fill="#6C7993"/>
</g>
<defs>
<clipPath id="clip0_718_8108">
<rect width="298.03" height="47.18" fill="white"/>
</clipPath>
</defs>
</svg>
