<svg width="36" height="6" viewBox="0 0 36 6" fill="none" xmlns="http://www.w3.org/2000/svg">
<g clip-path="url(#clip0_699_8099)">
<path d="M8.83455 0.342094C9.30042 1.22611 9.5062 2.23596 9.42576 3.24336C9.34532 4.25077 8.98229 5.21027 8.38278 6H5.79298L6.59021 4.5159H5.53569L6.77865 2.21026H7.83921L8.83455 0.344638V0.342094ZM3.72017 6H1.07963C0.468932 5.21372 0.0984011 4.25136 0.0166963 3.23932C-0.0650085 2.22728 0.145934 1.21289 0.621819 0.329377L2.33467 3.46164L4.22267 0H7.00091L3.72137 5.99746L3.72017 6Z" fill="#6C7993"/>
<path d="M11.0176 3.21473C11.0176 1.61363 11.775 0.844238 13.0191 0.844238C14.2633 0.844238 15.0195 1.61363 15.0195 3.21473C15.0195 4.81584 14.2573 5.57633 13.0191 5.57633C11.781 5.57633 11.0176 4.80058 11.0176 3.21473ZM11.4669 3.21473C11.4669 4.53097 12.0371 5.15793 13.0191 5.15793C14.0012 5.15793 14.5701 4.53097 14.5701 3.21473C14.5701 1.8985 14 1.26264 13.0191 1.26264C12.0383 1.26264 11.4669 1.89087 11.4669 3.21473Z" fill="#6C7993"/>
<path d="M18.2891 1.03405C18.305 0.990277 18.3331 0.952617 18.3698 0.926049C18.4064 0.899481 18.4499 0.885257 18.4944 0.885258C18.5231 0.885087 18.5516 0.890934 18.5781 0.902457C18.6046 0.91398 18.6287 0.930949 18.6489 0.952374C18.6692 0.973799 18.6852 0.999252 18.696 1.02725C18.7068 1.05525 18.7122 1.08522 18.7118 1.11544C18.7108 1.14983 18.7042 1.18379 18.6925 1.21591L17.1923 5.38081C17.1784 5.42647 17.151 5.46631 17.1142 5.49457C17.0774 5.52283 17.0331 5.53806 16.9875 5.53806C16.942 5.53806 16.8976 5.52283 16.8608 5.49457C16.824 5.46631 16.7967 5.42647 16.7828 5.38081L15.2825 1.21591C15.2708 1.18379 15.2643 1.14983 15.2632 1.11544C15.2629 1.08522 15.2683 1.05525 15.2791 1.02725C15.2899 0.999252 15.3059 0.973799 15.3261 0.952374C15.3463 0.930949 15.3704 0.91398 15.3969 0.902457C15.4235 0.890934 15.4519 0.885087 15.4806 0.885258C15.5251 0.885257 15.5686 0.899481 15.6053 0.926049C15.6419 0.952617 15.6701 0.990277 15.686 1.03405L16.9869 4.6661L18.2891 1.03405Z" fill="#6C7993"/>
<path d="M19.6227 3.3623V5.30677C19.6249 5.33835 19.621 5.37007 19.611 5.39996C19.6011 5.42985 19.5854 5.45726 19.5649 5.48047C19.5444 5.50368 19.5197 5.52219 19.4921 5.53485C19.4645 5.54751 19.4348 5.55405 19.4047 5.55405C19.3746 5.55405 19.3448 5.54751 19.3173 5.53485C19.2897 5.52219 19.2649 5.50368 19.2444 5.48047C19.224 5.45726 19.2083 5.42985 19.1983 5.39996C19.1884 5.37007 19.1844 5.33835 19.1866 5.30677V1.11007C19.1844 1.07849 19.1884 1.04677 19.1983 1.01688C19.2083 0.986989 19.224 0.959583 19.2444 0.936373C19.2649 0.913163 19.2897 0.894649 19.3173 0.881988C19.3448 0.869328 19.3746 0.862793 19.4047 0.862793C19.4348 0.862793 19.4645 0.869328 19.4921 0.881988C19.5197 0.894649 19.5444 0.913163 19.5649 0.936373C19.5854 0.959583 19.6011 0.986989 19.611 1.01688C19.621 1.04677 19.6249 1.07849 19.6227 1.11007V2.9439H21.855V1.11516C21.8527 1.08358 21.8567 1.05185 21.8667 1.02196C21.8766 0.992076 21.8923 0.96467 21.9128 0.94146C21.9332 0.91825 21.958 0.899736 21.9856 0.887075C22.0132 0.874415 22.0429 0.86788 22.073 0.86788C22.1031 0.86788 22.1328 0.874415 22.1604 0.887075C22.188 0.899736 22.2128 0.91825 22.2332 0.94146C22.2537 0.96467 22.2694 0.992076 22.2793 1.02196C22.2893 1.05185 22.2933 1.08358 22.291 1.11516V5.31185C22.2933 5.34343 22.2893 5.37516 22.2793 5.40505C22.2694 5.43494 22.2537 5.46234 22.2332 5.48555C22.2128 5.50876 22.188 5.52728 22.1604 5.53994C22.1328 5.5526 22.1031 5.55913 22.073 5.55913C22.0429 5.55913 22.0132 5.5526 21.9856 5.53994C21.958 5.52728 21.9332 5.50876 21.9128 5.48555C21.8923 5.46234 21.8766 5.43494 21.8667 5.40505C21.8567 5.37516 21.8527 5.34343 21.855 5.31185V3.3623H19.6227Z" fill="#6C7993"/>
<path d="M19.6227 3.3623V5.30677C19.6249 5.33835 19.621 5.37007 19.611 5.39996C19.6011 5.42985 19.5854 5.45726 19.5649 5.48047C19.5444 5.50368 19.5197 5.52219 19.4921 5.53485C19.4645 5.54751 19.4348 5.55405 19.4047 5.55405C19.3746 5.55405 19.3448 5.54751 19.3173 5.53485C19.2897 5.52219 19.2649 5.50368 19.2444 5.48047C19.224 5.45726 19.2083 5.42985 19.1983 5.39996C19.1884 5.37007 19.1844 5.33835 19.1866 5.30677V1.11007C19.1844 1.07849 19.1884 1.04677 19.1983 1.01688C19.2083 0.986989 19.224 0.959583 19.2444 0.936373C19.2649 0.913163 19.2897 0.894649 19.3173 0.881988C19.3448 0.869328 19.3746 0.862793 19.4047 0.862793C19.4348 0.862793 19.4645 0.869328 19.4921 0.881988C19.5197 0.894649 19.5444 0.913163 19.5649 0.936373C19.5854 0.959583 19.6011 0.986989 19.611 1.01688C19.621 1.04677 19.6249 1.07849 19.6227 1.11007V2.9439H21.855V1.11516C21.8527 1.08358 21.8567 1.05185 21.8667 1.02196C21.8766 0.992076 21.8923 0.96467 21.9128 0.94146C21.9332 0.91825 21.958 0.899736 21.9856 0.887075C22.0132 0.874415 22.0429 0.86788 22.073 0.86788C22.1031 0.86788 22.1328 0.874415 22.1604 0.887075C22.188 0.899736 22.2128 0.91825 22.2332 0.94146C22.2537 0.96467 22.2694 0.992076 22.2793 1.02196C22.2893 1.05185 22.2933 1.08358 22.291 1.11516V5.31185C22.2933 5.34343 22.2893 5.37516 22.2793 5.40505C22.2694 5.43494 22.2537 5.46234 22.2332 5.48555C22.2128 5.50876 22.188 5.52728 22.1604 5.53994C22.1328 5.5526 22.1031 5.55913 22.073 5.55913C22.0429 5.55913 22.0132 5.5526 21.9856 5.53994C21.958 5.52728 21.9332 5.50876 21.9128 5.48555C21.8923 5.46234 21.8766 5.43494 21.8667 5.40505C21.8567 5.37516 21.8527 5.34343 21.855 5.31185V3.3623H19.6227Z" fill="#6C7993"/>
<path d="M24.3493 2.32344C24.5368 2.31496 24.7237 2.35261 24.895 2.4334C25.0663 2.5142 25.2174 2.63591 25.3362 2.78889C25.3648 2.82444 25.3806 2.86946 25.3809 2.91606C25.3814 2.94192 25.3769 2.96762 25.3677 2.99162C25.3586 3.01561 25.3449 3.03741 25.3275 3.0557C25.3101 3.07399 25.2894 3.0884 25.2666 3.09806C25.2438 3.10772 25.2194 3.11243 25.1949 3.11191C25.165 3.11211 25.1355 3.10484 25.1088 3.09069C25.0822 3.07654 25.0591 3.05591 25.0415 3.03052C24.958 2.92426 24.8517 2.84054 24.7313 2.78634C24.6109 2.73214 24.4799 2.70903 24.3493 2.71894C23.7586 2.71894 23.4446 3.11699 23.4446 3.94743C23.4446 4.77787 23.7586 5.18228 24.3493 5.18228C24.6214 5.17959 24.8842 5.07704 25.0922 4.89232C25.126 4.86219 25.1687 4.84553 25.213 4.84527C25.2623 4.84527 25.3096 4.8659 25.3445 4.90263C25.3794 4.93936 25.399 4.98917 25.399 5.04111C25.3988 5.07405 25.3911 5.10646 25.3766 5.13566C25.3621 5.16485 25.3412 5.18999 25.3157 5.20898C25.0463 5.45007 24.7028 5.57979 24.3493 5.57397C23.5219 5.57397 23.0278 5.05383 23.0278 3.94743C23.0278 2.84103 23.5219 2.32344 24.3493 2.32344Z" fill="#6C7993"/>
<path d="M26.3946 0.89168V4.75391C26.3946 5.02352 26.4779 5.13543 26.6507 5.13543C26.6772 5.13321 26.704 5.13681 26.7292 5.14599C26.7544 5.15518 26.7775 5.16976 26.7971 5.18881C26.8167 5.20786 26.8323 5.23098 26.843 5.2567C26.8537 5.28242 26.8592 5.31019 26.8592 5.33827C26.8592 5.36634 26.8537 5.39411 26.843 5.41984C26.8323 5.44556 26.8167 5.46867 26.7971 5.48772C26.7775 5.50677 26.7544 5.52135 26.7292 5.53054C26.704 5.53973 26.6772 5.54333 26.6507 5.54111C26.2218 5.54111 25.9839 5.27023 25.9839 4.75137V0.89168C25.9854 0.834971 26.0076 0.781049 26.0458 0.741052C26.084 0.701056 26.1354 0.678039 26.1892 0.676758C26.2435 0.676757 26.2955 0.69936 26.334 0.739629C26.3725 0.779899 26.3943 0.834562 26.3946 0.89168Z" fill="#6C7993"/>
<path d="M29.8893 3.94342C29.8893 5.04982 29.3759 5.56996 28.5424 5.56996C27.7089 5.56996 27.1968 5.04982 27.1968 3.94342C27.1968 2.83702 27.7162 2.32324 28.5424 2.32324C29.3686 2.32324 29.8893 2.83575 29.8893 3.94342ZM29.4725 3.94342C29.4725 3.09264 29.1331 2.71493 28.5424 2.71493C27.9517 2.71493 27.6135 3.09645 27.6135 3.94342C27.6135 4.79039 27.9529 5.17827 28.5424 5.17827C29.1319 5.17827 29.4774 4.80692 29.4774 3.94342H29.4725Z" fill="#6C7993"/>
<path d="M30.877 2.58049V4.34183C30.877 4.78057 31.0111 5.15827 31.6586 5.15827C32.306 5.15827 32.4413 4.77676 32.4413 4.34183V2.58049C32.4416 2.55165 32.4474 2.52317 32.4582 2.49667C32.469 2.47018 32.4846 2.44619 32.5043 2.4261C32.5239 2.40601 32.5472 2.3902 32.5726 2.3796C32.5981 2.36899 32.6253 2.36379 32.6527 2.36429C32.6793 2.36462 32.7056 2.37049 32.73 2.38155C32.7544 2.39261 32.7765 2.40865 32.7951 2.42874C32.8136 2.44883 32.8282 2.47258 32.8379 2.49863C32.8477 2.52467 32.8525 2.55249 32.852 2.58049V4.34183C32.852 4.97769 32.6527 5.57031 31.6586 5.57031C30.6644 5.57031 30.4663 4.98278 30.4663 4.34183V2.58049C30.4659 2.55195 30.4708 2.52361 30.481 2.49714C30.4911 2.47068 30.5062 2.44664 30.5254 2.42646C30.5446 2.40628 30.5674 2.39038 30.5925 2.3797C30.6177 2.36901 30.6446 2.36378 30.6717 2.36429C30.7261 2.36463 30.7781 2.38751 30.8165 2.42798C30.855 2.46846 30.8767 2.52325 30.877 2.58049Z" fill="#6C7993"/>
<path d="M35.5892 2.76219V0.891486C35.5892 0.834148 35.6109 0.779158 35.6494 0.738614C35.6879 0.69807 35.7401 0.675293 35.7946 0.675293C35.849 0.675293 35.9013 0.69807 35.9398 0.738614C35.9783 0.779158 35.9999 0.834148 35.9999 0.891486V4.24503C35.9999 5.13523 35.4745 5.57525 34.7437 5.57525C33.9162 5.57525 33.4282 5.05511 33.4282 3.94871C33.4282 2.84231 33.8909 2.32854 34.7171 2.32854C34.8843 2.3253 35.0501 2.36275 35.2013 2.43797C35.3526 2.51318 35.4853 2.62414 35.5892 2.76219ZM35.5892 3.30904C35.5892 3.30904 35.3476 2.71514 34.7437 2.71514C34.1397 2.71514 33.8389 3.11319 33.8389 3.94363C33.8389 4.77406 34.153 5.17847 34.7437 5.17847C35.2365 5.17847 35.5892 4.88216 35.5892 4.23994V3.30904Z" fill="#6C7993"/>
</g>
<defs>
<clipPath id="clip0_699_8099">
<rect width="36" height="6" fill="white"/>
</clipPath>
</defs>
</svg>
