<svg width="183" height="39" viewBox="0 0 183 39" fill="none" xmlns="http://www.w3.org/2000/svg">
<path fill-rule="evenodd" clip-rule="evenodd" d="M70.8106 10.8288C71.9606 12.9704 72.4686 15.4169 72.2701 17.8575C72.0715 20.2981 71.1753 22.6226 69.6953 24.5358H63.302L65.2701 20.9404H62.6669L65.7353 15.3547H68.3534L70.8106 10.8349V10.8288ZM58.185 24.5358H51.6664C50.1588 22.631 49.2441 20.2995 49.0424 17.8477C48.8407 15.3959 49.3615 12.9384 50.5363 10.798L54.7647 18.3863L59.4255 10H66.284L58.188 24.5297L58.185 24.5358Z" fill="#6B7892"/>
<path d="M76.1992 17.7884C76.1992 13.9095 78.0689 12.0455 81.1403 12.0455C84.2117 12.0455 86.0784 13.9095 86.0784 17.7884C86.0784 21.6673 84.1968 23.5097 81.1403 23.5097C78.0838 23.5097 76.1992 21.6303 76.1992 17.7884ZM77.3085 17.7884C77.3085 20.9771 78.716 22.496 81.1403 22.496C83.5647 22.496 84.9692 20.9771 84.9692 17.7884C84.9692 14.5996 83.5617 13.0591 81.1403 13.0591C78.719 13.0591 77.3085 14.5811 77.3085 17.7884ZM94.1506 12.5046C94.1898 12.3985 94.2593 12.3073 94.3498 12.2429C94.4403 12.1786 94.5476 12.1441 94.6575 12.1441C94.7284 12.1437 94.7986 12.1578 94.8641 12.1858C94.9296 12.2137 94.9891 12.2548 95.039 12.3067C95.089 12.3586 95.1284 12.4203 95.1551 12.4881C95.1818 12.5559 95.1951 12.6285 95.1943 12.7017C95.1917 12.7851 95.1755 12.8673 95.1466 12.9451L91.443 23.0352C91.4086 23.1458 91.3412 23.2423 91.2504 23.3108C91.1595 23.3793 91.05 23.4162 90.9375 23.4162C90.8251 23.4162 90.7156 23.3793 90.6247 23.3108C90.5339 23.2423 90.4664 23.1458 90.4321 23.0352L86.7285 12.9451C86.6995 12.8673 86.6834 12.7851 86.6808 12.7017C86.68 12.6285 86.6933 12.5559 86.72 12.4881C86.7466 12.4203 86.7861 12.3586 86.8361 12.3067C86.886 12.2548 86.9455 12.2137 87.011 12.1858C87.0765 12.1578 87.1467 12.1437 87.2175 12.1441C87.3274 12.1441 87.4347 12.1786 87.5252 12.2429C87.6158 12.3073 87.6852 12.3985 87.7245 12.5046L90.936 21.3037L94.1506 12.5046ZM97.4427 18.1458V22.8565C97.4482 22.933 97.4384 23.0099 97.4138 23.0823C97.3893 23.1547 97.3505 23.2211 97.3 23.2773C97.2495 23.3335 97.1883 23.3784 97.1202 23.4091C97.0521 23.4397 96.9787 23.4556 96.9044 23.4556C96.8302 23.4556 96.7567 23.4397 96.6887 23.4091C96.6206 23.3784 96.5594 23.3335 96.5089 23.2773C96.4583 23.2211 96.4196 23.1547 96.395 23.0823C96.3705 23.0099 96.3607 22.933 96.3662 22.8565V12.6894C96.3607 12.6129 96.3705 12.536 96.395 12.4636C96.4196 12.3912 96.4583 12.3248 96.5089 12.2686C96.5594 12.2124 96.6206 12.1675 96.6887 12.1369C96.7567 12.1062 96.8302 12.0904 96.9044 12.0904C96.9787 12.0904 97.0521 12.1062 97.1202 12.1369C97.1883 12.1675 97.2495 12.2124 97.3 12.2686C97.3505 12.3248 97.3893 12.3912 97.4138 12.4636C97.4384 12.536 97.4482 12.6129 97.4427 12.6894V17.1321H102.953V12.7017C102.948 12.6252 102.958 12.5484 102.982 12.476C103.007 12.4036 103.045 12.3372 103.096 12.2809C103.147 12.2247 103.208 12.1799 103.276 12.1492C103.344 12.1185 103.417 12.1027 103.492 12.1027C103.566 12.1027 103.639 12.1185 103.707 12.1492C103.775 12.1799 103.837 12.2247 103.887 12.2809C103.938 12.3372 103.976 12.4036 104.001 12.476C104.026 12.5484 104.035 12.6252 104.03 12.7017V22.8688C104.035 22.9453 104.026 23.0222 104.001 23.0946C103.976 23.167 103.938 23.2334 103.887 23.2896C103.837 23.3459 103.775 23.3907 103.707 23.4214C103.639 23.4521 103.566 23.4679 103.492 23.4679C103.417 23.4679 103.344 23.4521 103.276 23.4214C103.208 23.3907 103.147 23.3459 103.096 23.2896C103.045 23.2334 103.007 23.167 102.982 23.0946C102.958 23.0222 102.948 22.9453 102.953 22.8688V18.1458H97.4427ZM109.111 15.6286C109.574 15.6081 110.035 15.6993 110.458 15.895C110.881 16.0908 111.254 16.3856 111.547 16.7563C111.618 16.8424 111.657 16.9514 111.658 17.0643C111.659 17.127 111.648 17.1893 111.625 17.2474C111.603 17.3055 111.569 17.3583 111.526 17.4026C111.483 17.447 111.432 17.4819 111.376 17.5053C111.319 17.5287 111.259 17.5401 111.198 17.5388C111.125 17.5393 111.052 17.5217 110.986 17.4874C110.92 17.4531 110.863 17.4032 110.82 17.3416C110.614 17.0842 110.351 16.8814 110.054 16.7501C109.757 16.6188 109.433 16.5628 109.111 16.5868C107.653 16.5868 106.878 17.5511 106.878 19.563C106.878 21.5748 107.653 22.5546 109.111 22.5546C109.783 22.548 110.431 22.2996 110.945 21.8521C111.028 21.7791 111.134 21.7388 111.243 21.7381C111.365 21.7381 111.482 21.7881 111.568 21.8771C111.654 21.9661 111.702 22.0867 111.702 22.2126C111.702 22.2924 111.683 22.3709 111.647 22.4416C111.611 22.5123 111.56 22.5732 111.497 22.6193C110.832 23.2033 109.984 23.5176 109.111 23.5035C107.068 23.5035 105.849 22.2434 105.849 19.563C105.849 16.8826 107.068 15.6286 109.111 15.6286ZM114.16 12.1595V21.5163C114.16 22.1694 114.365 22.4406 114.792 22.4406C114.857 22.4352 114.923 22.4439 114.986 22.4662C115.048 22.4884 115.105 22.5238 115.153 22.5699C115.202 22.6161 115.24 22.6721 115.266 22.7344C115.293 22.7967 115.307 22.864 115.307 22.932C115.307 23 115.293 23.0673 115.266 23.1296C115.24 23.1919 115.202 23.2479 115.153 23.2941C115.105 23.3402 115.048 23.3755 114.986 23.3978C114.923 23.42 114.857 23.4288 114.792 23.4234C113.733 23.4234 113.146 22.7671 113.146 21.5101V12.1595C113.149 12.0221 113.204 11.8915 113.299 11.7946C113.393 11.6977 113.52 11.6419 113.653 11.6388C113.787 11.6388 113.915 11.6936 114.01 11.7911C114.105 11.8887 114.159 12.0211 114.16 12.1595ZM122.786 19.5537C122.786 22.2341 121.519 23.4942 119.461 23.4942C117.404 23.4942 116.14 22.2341 116.14 19.5537C116.14 16.8733 117.422 15.6286 119.461 15.6286C121.501 15.6286 122.786 16.8702 122.786 19.5537ZM121.758 19.5537C121.758 17.4926 120.92 16.5776 119.461 16.5776C118.003 16.5776 117.168 17.5018 117.168 19.5537C117.168 21.6056 118.006 22.5453 119.461 22.5453C120.917 22.5453 121.769 21.6457 121.769 19.5537H121.758ZM125.226 16.251V20.5181C125.226 21.581 125.557 22.496 127.155 22.496C128.753 22.496 129.087 21.5717 129.087 20.5181V16.251C129.088 16.1811 129.102 16.1121 129.129 16.0479C129.155 15.9837 129.194 15.9256 129.243 15.877C129.291 15.8283 129.349 15.79 129.411 15.7643C129.474 15.7386 129.541 15.726 129.609 15.7272C129.675 15.728 129.74 15.7422 129.8 15.769C129.86 15.7958 129.915 15.8347 129.961 15.8834C130.006 15.932 130.042 15.9896 130.066 16.0527C130.09 16.1158 130.102 16.1832 130.101 16.251V20.5181C130.101 22.0585 129.609 23.4942 127.155 23.4942C124.701 23.4942 124.212 22.0709 124.212 20.5181V16.251C124.21 16.1819 124.223 16.1132 124.248 16.0491C124.273 15.985 124.31 15.9267 124.357 15.8778C124.405 15.8289 124.461 15.7904 124.523 15.7645C124.585 15.7387 124.652 15.726 124.719 15.7272C124.853 15.728 124.981 15.7835 125.076 15.8815C125.171 15.9796 125.225 16.1123 125.226 16.251ZM136.858 16.6916V12.1595C136.858 12.0206 136.912 11.8874 137.007 11.7891C137.102 11.6909 137.231 11.6357 137.365 11.6357C137.5 11.6357 137.628 11.6909 137.724 11.7891C137.819 11.8874 137.872 12.0206 137.872 12.1595V20.2839C137.872 22.4406 136.575 23.5066 134.771 23.5066C132.728 23.5066 131.523 22.2465 131.523 19.5661C131.523 16.8857 132.666 15.641 134.705 15.641C135.118 15.6331 135.527 15.7238 135.901 15.9061C136.274 16.0883 136.602 16.3571 136.858 16.6916ZM136.858 18.0164C136.858 18.0164 136.262 16.5776 134.771 16.5776C133.28 16.5776 132.537 17.5419 132.537 19.5537C132.537 21.5656 133.313 22.5453 134.771 22.5453C135.987 22.5453 136.858 21.8275 136.858 20.2716V18.0164Z" fill="#6B7892"/>
</svg>
