<svg width="114" height="30" viewBox="0 0 114 30" fill="none" xmlns="http://www.w3.org/2000/svg">
<path d="M12.1796 26.8982L16.9204 24.1666V29.6299L12.1796 26.8982ZM17.6737 17.4199L22.4145 20.1516L17.6737 22.8832V17.4199ZM18.0412 16.7782L22.782 14.0466V19.4916L18.0412 16.7782ZM17.6737 10.6732L22.4145 13.4049L17.6737 16.1366V10.6732ZM0.456367 6.65822L5.19712 3.92656V9.38989L0.456367 6.65822ZM0.0888672 7.29989L4.82962 10.0316L0.0888672 12.7632V7.29989ZM0.0888672 14.0466L4.82962 16.7782L0.0888672 19.5099V14.0466ZM17.6737 3.92656L22.4145 6.65822L17.6737 9.38989V3.92656ZM18.0412 10.0316L22.782 7.29989V12.7632L18.0412 10.0316ZM12.1796 6.65822L16.9204 3.92656V9.38989L12.1796 6.65822ZM12.1796 20.1516L16.9204 17.4199V22.8832L12.1796 20.1516ZM6.31799 3.28489L11.0587 0.553223V6.01656L6.31799 3.28489ZM11.8121 0.553223L16.5529 3.28489L11.8121 6.01656V0.553223ZM11.8121 20.8116L16.5529 23.5432L11.8121 26.2749V20.8116ZM5.95049 17.4199L10.6912 20.1516L5.95049 22.8832V17.4199ZM5.95049 3.92656L10.6912 6.65822L5.95049 9.38989V3.92656ZM0.456367 13.4049L5.19712 10.6732V16.1366L0.456367 13.4049ZM0.456367 20.1516L5.19712 17.4199V22.8832L0.456367 20.1516ZM6.31799 23.5249L11.0587 20.7932V26.2566L6.31799 23.5249Z" fill="#6B7993"/>
<path d="M37.7945 17.1631C37.7945 18.1531 36.5267 19.3447 35.4609 19.9131C36.1224 20.2247 36.7472 20.5731 37.3719 20.9581C37.721 21.1781 37.8313 21.3798 37.7027 21.7281C37.6108 22.0031 37.1882 22.6264 36.8574 22.6264C36.5267 22.6264 36.4348 22.5348 36.0673 22.2781C34.928 21.5448 33.752 20.9031 32.5025 20.3714C31.1244 19.8031 29.4155 18.3364 29.4155 17.1631V9.64642C29.4155 8.17975 32.1534 6.18142 33.5866 6.18142C35.0199 6.18142 37.7945 8.17975 37.7945 9.64642V17.1631ZM31.5103 16.8881C31.5103 17.6397 32.9068 18.6664 33.5683 18.6664C34.2298 18.6664 35.663 17.6397 35.663 16.8881V9.92142C35.663 9.16975 34.3033 8.14309 33.5683 8.14309C32.9068 8.14309 31.5103 9.16975 31.5103 9.92142V16.8881ZM42.3699 19.9681C42.3699 20.2248 42.1678 20.4264 41.9289 20.4264H41.9105H40.7345C40.4773 20.4264 40.2752 20.2248 40.2568 19.9681V6.84142C40.2568 6.58475 40.4773 6.36475 40.7345 6.36475H41.9105C42.1678 6.36475 42.3699 6.54809 42.3883 6.80475V6.82308V19.9681H42.3699ZM47.129 10.9848V19.9681C47.129 20.2248 46.9085 20.4448 46.6513 20.4448C46.6329 20.4448 46.6329 20.4448 46.6145 20.4448H45.5488C45.2915 20.4448 45.071 20.2431 45.0527 19.9864V6.85975C45.071 6.60309 45.2731 6.38309 45.5488 6.38309H46.4492C46.7983 6.38309 46.9453 6.54809 47.1107 6.85975L51.4472 15.9348V6.85975C51.4288 6.62142 51.6125 6.40142 51.8698 6.38309C51.8881 6.38309 51.9065 6.38309 51.9249 6.38309H53.0274C53.2847 6.36475 53.5052 6.56642 53.5235 6.82308C53.5235 6.84142 53.5235 6.84142 53.5235 6.85975V19.9864C53.5235 20.2431 53.3214 20.4448 53.0641 20.4448H53.0458H52.1638C51.8698 20.4264 51.6125 20.2431 51.5023 19.9864L47.129 10.9848ZM60.5428 12.8364C60.5612 12.5798 60.7633 12.3598 61.0389 12.3598H63.6482C63.9973 12.4331 64.2545 12.6898 64.3464 13.0198V17.1448C64.3464 18.5748 61.6453 20.6098 60.1569 20.6098C58.6685 20.6098 55.949 18.5748 55.949 17.1448V9.62809C55.949 8.16142 58.742 6.16309 60.1569 6.16309C61.0757 6.16309 62.4538 6.85975 63.446 7.48309C63.7033 7.61142 63.7952 7.94142 63.6665 8.17975L63.299 8.87642C63.1337 9.13309 62.8029 9.20642 62.5457 9.04142C61.7739 8.61975 60.7265 8.10642 60.1569 8.10642C59.5138 8.10642 58.0805 9.13309 58.0805 9.88475V16.8514C58.0805 17.5848 59.4954 18.6297 60.1569 18.6297C60.8184 18.6297 62.2149 17.5664 62.2149 16.8514V14.1931H61.0389C60.7817 14.1931 60.5612 13.9914 60.5428 13.7164V12.8364ZM68.4073 16.8881C68.4073 17.6581 69.8957 18.6848 70.4653 18.6848C71.0349 18.6848 71.9537 18.2264 72.707 17.7864C72.9827 17.6214 73.3318 17.7131 73.4972 17.9881C73.4972 17.9881 73.4972 18.0064 73.5155 18.0064L73.8647 18.7031C73.9933 18.9598 73.9198 19.2531 73.6625 19.3998C72.6703 20.0048 71.4759 20.6098 70.4653 20.6098C69.0688 20.6098 66.2942 18.7031 66.2942 17.1448V9.62809C66.2942 8.10642 69.0504 6.16309 70.502 6.16309C71.4024 6.16309 72.6519 6.78642 73.6441 7.35475C73.9014 7.50142 73.9933 7.81309 73.8463 8.06975C73.8463 8.06975 73.8463 8.08808 73.8279 8.08808L73.4972 8.76642C73.3502 9.02309 73.0194 9.11475 72.7622 8.96809H72.7438C71.972 8.58309 71.0533 8.12475 70.4653 8.12475C69.8773 8.12475 68.3889 9.15142 68.3889 9.92142L68.4073 16.8881ZM75.647 19.5464V6.84142C75.6654 6.58475 75.8675 6.36475 76.1432 6.36475H77.264C77.5397 6.36475 77.7602 6.56642 77.7785 6.84142V18.5931H81.8027C82.0599 18.5931 82.2804 18.7948 82.2988 19.0514V19.9681C82.2988 20.2248 82.0783 20.4448 81.821 20.4264H76.5107C76.1799 20.4264 75.647 19.8581 75.647 19.5464ZM91.5782 17.1631C91.5782 18.6297 88.8403 20.6281 87.3703 20.6281C85.9003 20.6281 83.1992 18.6664 83.1992 17.1631V9.64642C83.1992 8.17975 85.937 6.18142 87.3703 6.18142C88.8035 6.18142 91.5782 8.17975 91.5782 9.64642V17.1631ZM85.3123 16.8881C85.3123 17.6397 86.7088 18.6664 87.3703 18.6664C88.0318 18.6664 89.465 17.6397 89.465 16.8881V9.92142C89.465 9.16975 88.0869 8.14309 87.3703 8.14309C86.6353 8.14309 85.3123 9.16975 85.3123 9.92142V16.8881ZM98.1013 20.6281C96.6864 20.6281 93.9302 18.7214 93.9302 17.1814V6.84142C93.9485 6.58475 94.1507 6.36475 94.4263 6.36475H95.5839C95.8412 6.36475 96.0617 6.56642 96.0617 6.84142V16.9064C96.0617 17.6581 97.4582 18.6848 98.1197 18.6848C98.7812 18.6848 100.178 17.6581 100.178 16.9064V6.84142C100.159 6.58475 100.361 6.38308 100.6 6.36475H100.619H101.795C102.07 6.36475 102.291 6.56642 102.291 6.84142V17.1814C102.309 18.6847 99.5345 20.6281 98.1013 20.6281ZM113.095 17.1264C113.095 18.4098 110.688 20.4448 109.237 20.4448H105.892C105.286 20.4448 104.863 20.0781 104.863 19.6564V7.20809C104.918 6.69475 105.378 6.32808 105.892 6.36475H109.2C110.707 6.36475 113.095 8.25309 113.095 9.68309V17.1264ZM111.001 9.97642C111.001 9.27975 109.714 8.19808 108.943 8.19808H107.013V18.5931H108.979C109.733 18.5931 111.001 17.5114 111.001 16.8148V9.97642Z" fill="#6B7993"/>
</svg>
