<svg width="134" height="64" viewBox="0 0 134 64" fill="none" xmlns="http://www.w3.org/2000/svg">
<path d="M12.0621 41.4559C13.3983 41.4559 14.4816 40.3865 14.4816 39.0673C14.4816 37.7481 13.3983 36.6787 12.0621 36.6787C10.7258 36.6787 9.64258 37.7481 9.64258 39.0673C9.64258 40.3865 10.7258 41.4559 12.0621 41.4559Z" fill="#6C7993"/>
<path d="M24.6958 33.0237C24.6235 33.0237 24.5517 33.02 24.4805 33.0137C25.1038 34.3442 25.5032 35.797 25.6232 37.3268H30.7959C31.5334 36.0427 32.7381 35.054 34.181 34.5871V33.0231H24.7058C24.7025 33.0231 24.6991 33.0237 24.6958 33.0237Z" fill="#6C7993"/>
<path d="M14.5547 22.4668V25.7584C17.4043 26.138 19.9594 27.4434 21.8993 29.3581L20.2098 22.4668H14.5547Z" fill="#6C7993"/>
<path d="M36.0613 41.457C36.7294 41.457 37.271 40.9223 37.271 40.2627C37.271 39.6031 36.7294 39.0684 36.0613 39.0684C35.3932 39.0684 34.8516 39.6031 34.8516 40.2627C34.8516 40.9223 35.3932 41.457 36.0613 41.457Z" fill="#6C7993"/>
<path d="M42.0254 13H4.9746C2.23856 13 0 15.21 0 17.9111V46.0889C0 48.79 2.23856 51 4.9746 51H42.0254C44.7614 51 47 48.79 47 46.0889V17.9111C47 15.21 44.7614 13 42.0254 13ZM12.0657 46.2337C8.06334 46.2337 4.80719 43.0191 4.80719 39.0679C4.80719 35.1166 8.06334 31.9021 12.0657 31.9021C16.068 31.9021 19.3241 35.1166 19.3241 39.0679C19.3241 43.0191 16.068 46.2337 12.0657 46.2337ZM36.0636 46.2337C33.3793 46.2337 31.0991 44.498 30.3107 42.1042H23.2471C21.9119 42.1042 20.8293 41.0364 20.8276 39.7184L20.826 38.3166C20.826 33.9608 17.2388 30.4194 12.8296 30.4194H8.85139C7.51523 30.4194 6.4319 29.35 6.4319 28.0308C6.4319 26.7116 7.51523 25.6422 8.85139 25.6422H9.71498V22.4671H8.85139C7.51523 22.4671 6.4319 21.3977 6.4319 20.0785C6.4319 18.7593 7.51523 17.6899 8.85139 17.6899H22.1127C23.2296 17.6899 24.2014 18.4447 24.4644 19.5165L26.6047 28.2461H35.7349C37.5481 28.2461 39.0231 29.7024 39.0231 31.4924V35.0572C40.8649 36.0819 42.1123 38.0304 42.1123 40.2622C42.1123 43.5549 39.3989 46.2337 36.0636 46.2337Z" fill="#6C7993"/>
<path d="M62 22.0713H70.2207C74.1241 22.0713 76.7559 23.9525 76.7559 27.5972C76.7559 30.5664 74.7156 32.3596 72.7341 32.9768C73.3256 33.4763 73.7694 34.1523 74.1241 34.858C74.952 36.5335 75.5136 38.385 77.2584 38.385C77.7022 38.385 78.0569 38.2382 78.0569 38.2382L77.6723 41.736C77.6723 41.736 76.6081 42.0006 75.6913 42.0006C73.3256 42.0006 71.9655 41.0892 70.5754 37.9439C69.9844 36.5335 69.1561 34.0638 68.0621 34.0638H66.9382V41.9121H62V22.0713ZM66.9382 25.628V30.5071H68.7128C70.1322 30.5071 71.7879 30.0665 71.7879 27.9503C71.7879 26.216 70.6645 25.628 69.3038 25.628H66.9382Z" fill="#6C7993"/>
<path d="M80.125 22.0713H85.0632V27.6269C85.0632 28.2441 84.9746 29.155 84.9154 29.8315H85.0338C85.3592 29.3321 85.7731 28.5675 86.2756 27.9795L91.1551 22.0713H96.4774L89.9721 29.8607L96.8326 41.9121H91.1551L86.5418 33.594L85.0632 35.3872V41.9121H80.125V22.0713Z" fill="#6C7993"/>
<path d="M98.4023 22.0713H111.62V25.716H103.341V29.9784H110.29V33.6231H103.341V38.2673H111.916V41.9121H98.4023V22.0713Z" fill="#6C7993"/>
<path d="M133.998 41.8408H119.257V38.3623L124.217 33.5325C125.634 32.1055 126.56 31.131 126.996 30.6093C127.431 30.0875 127.734 29.6393 127.906 29.2647C128.077 28.8901 128.163 28.4976 128.163 28.0874C128.163 27.579 127.991 27.1776 127.649 26.8833C127.306 26.5889 126.824 26.4418 126.204 26.4418C125.565 26.4418 124.919 26.6179 124.266 26.9702C123.613 27.3225 122.874 27.8421 122.05 28.5289L119.035 25.1306C120.082 24.2298 120.962 23.5854 121.675 23.1974C122.388 22.8094 123.164 22.5129 124.002 22.3077C124.84 22.1026 125.782 22 126.829 22C128.144 22 129.318 22.223 130.351 22.6689C131.383 23.1149 132.185 23.7504 132.754 24.5754C133.324 25.4004 133.609 26.3258 133.609 27.3515C133.609 28.1186 133.509 28.8277 133.31 29.4788C133.111 30.1299 132.803 30.7698 132.386 31.3986C131.969 32.0274 131.416 32.6897 130.726 33.3854C130.036 34.0811 128.566 35.4011 126.315 37.3455V37.4793H133.998V41.8408Z" fill="#6C7993"/>
</svg>
