<svg width="150" height="64" viewBox="0 0 150 64" fill="none" xmlns="http://www.w3.org/2000/svg">
<path d="M14.0655 41.794H20.0547C21.3695 41.636 22.3775 40.5615 22.4405 39.251V30.6936C22.4405 29.5576 21.5109 28.6367 20.3643 28.6367C19.2176 28.6367 18.288 29.5576 18.288 30.6936V36.1324C18.288 36.5426 18.1233 36.936 17.8303 37.2258C17.5372 37.5156 17.1398 37.678 16.7258 37.6772H14.0129C13.4579 37.6787 12.9266 37.9 12.5372 38.2917C12.1478 38.6835 11.9326 39.2133 11.9396 39.763C11.9714 40.9007 12.9167 41.8038 14.0655 41.794Z" fill="currentColor"/>
<path d="M16.7637 22.254H10.7744C9.46015 22.4107 8.45187 23.4842 8.38867 24.7941V33.3515C8.38867 34.4874 9.31823 35.4084 10.4649 35.4084C11.6116 35.4084 12.5411 34.4874 12.5411 33.3515V27.9156C12.5411 27.0608 13.2406 26.3679 14.1034 26.3679H16.8162C17.3717 26.3671 17.9038 26.1462 18.2939 25.7544C18.6839 25.3625 18.8995 24.8323 18.8925 24.282C18.8576 23.145 17.9119 22.2441 16.7637 22.254Z" fill="currentColor"/>
<path d="M17.7662 18.1138C22.638 18.1186 26.5861 22.03 26.5909 26.8563V43.6702C26.3904 44.8383 25.4414 45.7385 24.2548 45.8862H12.983C8.10831 45.8846 4.15699 41.9701 4.15538 37.1408V20.8187C4.1546 20.1011 4.44202 19.4127 4.95422 18.9052C5.46643 18.3978 6.16135 18.113 6.88572 18.1138H17.7662ZM17.7662 14H6.88572C3.08398 14 0.00161227 17.0524 0 20.8187V37.1379C0 44.2414 5.81269 50 12.983 50H24.4826C27.7718 49.7331 30.4063 47.1898 30.7609 43.9393V26.8563C30.7609 23.4436 29.3913 20.1709 26.9538 17.7594C24.5163 15.3479 21.211 13.9954 17.7662 14Z" fill="currentColor"/>
<path d="M46.6784 42.0295C45.2499 42.0183 43.846 41.6597 42.5902 40.9852C41.2913 40.3123 40.1654 39.3533 39.2992 38.1819C39.08 37.8882 39.1244 37.477 39.4014 37.2359L40.9783 35.8531C41.1074 35.7384 41.275 35.6755 41.4484 35.6766H41.5506C41.7567 35.7056 41.9394 35.823 42.05 35.9977C42.5869 36.8527 43.3216 37.5686 44.1934 38.0864C45.0254 38.5856 45.9802 38.8478 46.9529 38.8444C47.9983 38.8444 48.7809 38.6303 49.289 38.2079C49.7714 37.7964 50.0326 37.1857 49.9957 36.5561C50.0448 35.8813 49.7647 35.2241 49.2423 34.7885C48.6408 34.314 47.6362 33.8801 46.2579 33.4982C42.2047 32.5117 40.1489 30.6052 40.1489 27.7991C40.1489 26.0633 40.733 24.7036 41.901 23.7489C43.0691 22.7942 44.5817 22.3603 46.5178 22.3603C47.8204 22.3415 49.111 22.6092 50.2965 23.1443C51.4681 23.7061 52.4948 24.5253 53.2984 25.5397C53.5398 25.8374 53.4998 26.271 53.2079 26.5204L51.6806 27.802C51.5524 27.9095 51.3901 27.9689 51.2222 27.9698H51.1375C50.9403 27.9456 50.7623 27.8407 50.6469 27.6805C50.1722 27.0049 49.5543 26.4401 48.8364 26.0257C48.1193 25.6641 47.322 25.4871 46.5178 25.5107C45.7234 25.4729 44.9379 25.69 44.278 26.1298C43.7894 26.4693 43.5088 27.0318 43.5334 27.6226C43.5025 28.2252 43.7613 28.8068 44.2313 29.1906C44.7803 29.639 45.7702 30.0353 47.1748 30.368C49.0788 30.8743 50.5768 31.5859 51.6456 32.4886C52.7961 33.4606 53.3802 34.829 53.3802 36.5589C53.3921 37.5816 53.0918 38.5839 52.5187 39.4345C51.9279 40.2899 51.102 40.9595 50.1388 41.3642C49.0454 41.8247 47.8663 42.0514 46.6784 42.0295Z" fill="currentColor"/>
<path d="M61.7971 42.099C60.5657 42.1187 59.3529 41.8003 58.293 41.179C57.2682 40.564 56.4354 39.6798 55.8867 38.6246C55.3047 37.5023 55.0099 36.2555 55.0282 34.9939C55.0092 33.7348 55.2988 32.49 55.8721 31.3661C56.4167 30.3095 57.2506 29.4262 58.2783 28.8174C59.3259 28.197 60.5271 27.8774 61.7475 27.8946C62.7683 27.8755 63.776 28.125 64.6676 28.6178C65.5253 29.1156 66.2778 29.7728 66.884 30.5532C67.123 30.8613 67.067 31.3027 66.7585 31.5426L65.4678 32.5436C65.3421 32.6391 65.1881 32.6909 65.0297 32.6911C64.9938 32.6941 64.9577 32.6941 64.9217 32.6911C64.729 32.6633 64.556 32.5588 64.4428 32.4018C63.7332 31.3835 62.8513 30.8888 61.7475 30.8888C61.11 30.8775 60.4834 31.0526 59.9458 31.3922C59.4015 31.744 58.9668 32.2388 58.6901 32.8213C58.0657 34.2016 58.0657 35.7804 58.6901 37.1607C58.9621 37.7509 59.3975 38.2525 59.9458 38.6072C60.4834 38.9467 61.11 39.1218 61.7475 39.1106C62.3354 39.1349 62.9206 39.0177 63.4529 38.7692C63.9302 38.5074 64.3462 38.1486 64.6735 37.7162C64.9065 37.4203 65.3324 37.3568 65.643 37.5715L67.0125 38.5204C67.1749 38.632 67.2829 38.8056 67.3106 38.9994C67.3384 39.1933 67.2832 39.3898 67.1585 39.5416C66.5246 40.3224 65.7277 40.9579 64.8224 41.4047C63.8834 41.8693 62.8467 42.1073 61.7971 42.099Z" fill="currentColor"/>
<path d="M74.9214 42.0986C73.7015 42.1144 72.501 41.7961 71.4522 41.1786C70.4268 40.5644 69.5938 39.68 69.046 38.6241C67.9065 36.3324 67.9011 33.6474 69.0314 31.3512C69.5743 30.3057 70.3978 29.4287 71.4114 28.817C72.4551 28.1976 73.6522 27.8781 74.8688 27.8941C75.8288 27.8819 76.7769 28.1056 77.6284 28.545C77.9093 28.6922 78.1779 28.8615 78.4314 29.0513V29.0021C78.4314 28.6123 78.7504 28.2963 79.1439 28.2963H80.896C81.2895 28.2963 81.6085 28.6123 81.6085 29.0021V40.9848C81.6085 41.3746 81.2895 41.6906 80.896 41.6906H79.1439C78.7504 41.6906 78.4314 41.3746 78.4314 40.9848V40.9414C78.182 41.1273 77.9184 41.2937 77.643 41.439C76.806 41.8816 75.8701 42.1084 74.9214 42.0986ZM74.8688 30.8854C74.2379 30.8721 73.6174 31.0465 73.0875 31.3859C72.5482 31.7391 72.1161 32.2312 71.8377 32.8093C71.5169 33.4836 71.3571 34.2221 71.3705 34.9674C71.3555 35.7263 71.5163 36.4784 71.8406 37.1661C72.1122 37.7538 72.5441 38.2548 73.0875 38.6125C73.618 38.9509 74.2381 39.1251 74.8688 39.113C75.5148 39.1267 76.1506 38.9516 76.6968 38.6096C77.2451 38.2549 77.6805 37.7533 77.9525 37.1632C78.5769 35.7828 78.5769 34.2041 77.9525 32.8237C77.6746 32.242 77.2401 31.7475 76.6968 31.3946C76.1512 31.0506 75.5154 30.8735 74.8688 30.8854Z" fill="currentColor"/>
<path d="M86.3572 22.3633H84.5992C84.2057 22.3633 83.8867 22.6793 83.8867 23.0692V40.9245C83.8867 41.3144 84.2057 41.6304 84.5992 41.6304H86.3572C86.7507 41.6304 87.0697 41.3144 87.0697 40.9245V23.0692C87.0697 22.6793 86.7507 22.3633 86.3572 22.3633Z" fill="currentColor"/>
<path d="M115.3 41.6906C114.99 41.6902 114.715 41.4916 114.62 41.1987L112.327 34.0445L109.848 41.2132C109.747 41.4998 109.474 41.6914 109.168 41.6906H107.416C107.109 41.6895 106.837 41.4936 106.741 41.2045L102.743 29.2219C102.638 28.9076 102.768 28.5629 103.056 28.3945C103.172 28.3276 103.304 28.2936 103.438 28.296H105.281C105.589 28.2976 105.861 28.4948 105.956 28.7851L108.385 36.246L110.856 28.7822C110.951 28.4925 111.223 28.2963 111.53 28.296H113.256C113.566 28.2949 113.841 28.4944 113.933 28.788L116.308 36.1621L118.702 28.7851C118.797 28.4902 119.076 28.2916 119.388 28.296H121.056C121.151 28.2948 121.245 28.3115 121.333 28.3453C121.678 28.4837 121.858 28.8618 121.745 29.2132L117.817 41.1959C117.722 41.4871 117.449 41.6845 117.14 41.6848L115.3 41.6906Z" fill="currentColor"/>
<path d="M128.892 42.0986C127.671 42.1149 126.47 41.7965 125.42 41.1786C124.395 40.5636 123.562 39.6794 123.014 38.6241C121.878 36.3315 121.873 33.6483 122.999 31.3512C123.542 30.3057 124.366 29.4288 125.379 28.817C126.424 28.1973 127.622 27.8777 128.839 27.8942C129.796 27.8864 130.74 28.113 131.587 28.5538C131.868 28.7013 132.137 28.8706 132.39 29.06V29.0108C132.388 28.8211 132.463 28.6384 132.598 28.504C132.733 28.3696 132.917 28.2947 133.109 28.2963H134.861C135.254 28.2963 135.573 28.6123 135.573 29.0022V40.9848C135.572 41.374 135.254 41.6891 134.861 41.6907H133.109C132.716 41.6891 132.398 41.374 132.396 40.9848V40.9414C132.148 41.1273 131.885 41.2937 131.611 41.439C130.774 41.8808 129.84 42.1076 128.892 42.0986ZM128.839 30.8855C128.208 30.8735 127.587 31.0477 127.055 31.386C126.516 31.7384 126.085 32.2308 125.808 32.8093C125.485 33.483 125.324 34.2217 125.338 34.9674C125.323 35.7263 125.484 36.4784 125.808 37.1661C126.08 37.7539 126.512 38.2548 127.055 38.6126C127.587 38.9508 128.208 39.125 128.839 39.1131C129.485 39.1266 130.119 38.9515 130.665 38.6097C131.214 38.2558 131.649 37.754 131.92 37.1632C132.545 35.7828 132.545 34.2041 131.92 32.8238C131.644 32.2413 131.209 31.7465 130.665 31.3946C130.12 31.0507 129.485 30.8736 128.839 30.8855Z" fill="currentColor"/>
<path d="M100.076 37.4599C99.7432 37.2274 99.286 37.2865 99.0247 37.5959C98.7039 37.9974 98.318 38.3435 97.8829 38.62C97.1963 38.9644 96.4327 39.1306 95.6636 39.1031C94.7161 39.1537 93.7991 38.7632 93.1844 38.0472C92.6953 37.476 92.366 36.7877 92.2295 36.051H101.378C101.745 36.0525 102.052 35.7762 102.085 35.4146C102.105 35.2178 102.114 34.943 102.114 34.6016C102.127 33.4212 101.841 32.2564 101.282 31.214C100.738 30.2104 99.9311 29.3708 98.9458 28.7839C97.9463 28.1865 96.7988 27.876 95.6315 27.8871C94.415 27.8743 93.219 28.1969 92.1769 28.8186C91.1593 29.4356 90.3352 30.3211 89.797 31.376C89.2257 32.5004 88.9371 33.745 88.956 35.0038C88.9366 36.2652 89.2304 37.5119 89.8116 38.6344C90.3602 39.6897 91.193 40.5738 92.2178 41.1889C93.2777 41.8102 94.4906 42.1286 95.722 42.1089C96.9917 42.1452 98.2492 41.8552 99.3722 41.267C100.202 40.8105 100.931 40.1937 101.516 39.4531C101.647 39.2841 101.703 39.0692 101.67 38.8583C101.638 38.6474 101.52 38.4588 101.343 38.3365L100.076 37.4599ZM93.3975 31.7434C93.9925 31.1568 94.8073 30.8423 95.646 30.8755C96.6214 30.8755 97.3573 31.1185 97.8975 31.619C98.332 32.0558 98.6353 32.6037 98.7735 33.2014H92.4485C92.6491 32.6504 92.9737 32.1518 93.3975 31.7434Z" fill="currentColor"/>
<path d="M149.872 28.5996C149.737 28.4145 149.519 28.3065 149.288 28.3103H147.635C147.341 28.311 147.078 28.4902 146.972 28.7616L143.553 37.4955L140.306 28.7385C140.199 28.4693 139.937 28.2923 139.646 28.293H137.809C137.574 28.2944 137.355 28.4115 137.225 28.6054C137.093 28.7993 137.067 29.0452 137.155 29.2621L141.92 41.7018C141.845 42.16 141.598 42.5731 141.228 42.859C140.782 43.1483 139.938 43.1917 139.476 43.2206C139.068 43.2451 138.75 43.5795 138.749 43.9844V45.1821C138.749 45.3851 138.831 45.5798 138.976 45.7231C139.121 45.8664 139.318 45.9466 139.523 45.9458C140.268 45.9458 141.462 46.0181 142.393 45.5292C144.312 44.5254 144.598 43.2814 145.138 41.8667L149.954 29.2505C150.036 29.0334 150.006 28.7901 149.872 28.5996Z" fill="currentColor"/>
</svg>
