<svg width="164" height="64" viewBox="0 0 164 64" fill="none" xmlns="http://www.w3.org/2000/svg">
<path d="M85.1809 45.8949C85.9461 45.8949 86.52 45.608 86.9026 45.1297C87.2852 44.6515 87.4765 43.7906 87.4765 42.8341C87.4765 41.7819 87.2852 41.0167 86.9026 40.5385C86.52 40.0602 85.9461 39.7733 85.1809 39.7733C84.4157 39.7733 83.8418 40.0602 83.4592 40.5385C83.0766 41.0167 82.8853 41.8776 82.8853 42.8341C82.8853 43.8863 83.0766 44.6515 83.4592 45.1297C83.8418 45.608 84.4157 45.8949 85.1809 45.8949ZM85.1809 37.6689C85.9461 37.6689 86.6157 37.7646 87.1896 38.0515C87.7635 38.2428 88.3374 38.6255 88.72 39.1037C89.1982 39.582 89.4852 40.0602 89.7722 40.7298C89.9635 41.3993 90.1548 42.0689 90.1548 42.8341C90.1548 43.5993 90.0591 44.3645 89.7722 44.9384C89.5809 45.608 89.1982 46.0862 88.72 46.5645C88.2417 47.0428 87.7635 47.3297 87.1896 47.6167C86.6157 47.9036 85.9461 47.9993 85.1809 47.9993C84.4157 47.9993 83.7461 47.9036 83.1722 47.6167C82.5983 47.4254 82.0244 47.0428 81.6418 46.5645C81.1635 46.0862 80.8766 45.608 80.5896 44.9384C80.3027 44.2689 80.207 43.5993 80.207 42.8341C80.207 42.0689 80.3027 41.3037 80.5896 40.7298C80.8766 40.0602 81.1635 39.582 81.6418 39.1037C82.1201 38.6255 82.5983 38.3385 83.1722 38.0515C83.7461 37.7646 84.4157 37.6689 85.1809 37.6689Z" fill="#6C7993"/>
<path d="M71.1223 18.1565C71.0267 18.3478 70.931 18.4434 70.8354 18.4434C70.7397 18.5391 70.6441 18.5391 70.4528 18.5391C70.3571 18.5391 70.1658 18.4434 69.9745 18.3478C69.7832 18.2521 69.5919 18.1565 69.4006 18.0608C69.2093 17.9652 68.9224 17.8695 68.6354 17.7739C68.3485 17.6782 68.0615 17.5826 67.6789 17.5826C67.0093 17.5826 66.5311 17.7739 66.1485 18.0608C65.8615 18.3478 65.6702 18.7304 65.6702 19.2087C65.6702 19.4956 65.7659 19.7826 65.9572 19.9739C66.1485 20.1652 66.3398 20.3565 66.7224 20.4521C67.0093 20.6434 67.3919 20.7391 67.7745 20.8347C68.1571 20.9304 68.5397 21.1217 68.9224 21.2173C69.305 21.313 69.6876 21.5043 70.0702 21.6956C70.4528 21.8869 70.7397 22.0782 71.1223 22.3651C71.4093 22.6521 71.6962 23.0347 71.8875 23.4173C72.0788 23.7999 72.1745 24.2782 72.1745 24.8521C72.1745 25.5216 72.0788 26.0955 71.8875 26.6695C71.6962 27.2434 71.3136 27.7216 70.931 28.1042C70.5484 28.4868 69.9745 28.8694 69.4006 29.0607C68.8267 29.252 68.0615 29.4433 67.2963 29.4433C66.818 29.4433 66.4354 29.4433 65.9572 29.3477C65.4789 29.252 65.0963 29.1564 64.7137 28.9651C64.3311 28.7738 63.9485 28.5825 63.5659 28.3912C63.1833 28.1999 62.8963 27.9129 62.6094 27.626L63.4702 26.2868C63.5659 26.1912 63.6615 26.0955 63.7572 25.9999C63.8528 25.9042 63.9485 25.9042 64.1398 25.9042C64.3311 25.9042 64.5224 25.9999 64.7137 26.0955C64.905 26.1912 65.0963 26.3825 65.3833 26.4781C65.6702 26.6694 65.9572 26.7651 66.2441 26.8608C66.5311 26.9564 67.0093 27.0521 67.3919 27.0521C68.0615 27.0521 68.5397 26.8608 68.9224 26.5738C69.305 26.2868 69.4963 25.8086 69.4963 25.2347C69.4963 24.8521 69.4006 24.5651 69.2093 24.3738C69.018 24.1825 68.8267 23.9912 68.5397 23.7999C68.2528 23.6086 67.8702 23.513 67.4876 23.4173C67.105 23.3217 66.7224 23.226 66.3398 23.0347C65.9572 22.9391 65.5746 22.7478 65.192 22.5564C64.8094 22.3651 64.5224 22.1738 64.1398 21.8869C63.8528 21.5999 63.5659 21.2173 63.4702 20.8347C63.2789 20.3565 63.1833 19.8782 63.1833 19.2087C63.1833 18.7304 63.2789 18.1565 63.4702 17.6782C63.6615 17.2 63.9485 16.7217 64.3311 16.3391C64.7137 15.9565 65.192 15.6696 65.7659 15.3826C66.3398 15.1913 67.0093 15 67.7745 15C68.6354 15 69.4006 15.0957 70.0702 15.3826C70.7397 15.6696 71.4093 15.9565 71.8875 16.4348L71.1223 18.1565Z" fill="#6C7993"/>
<path d="M78.1965 27.6264C78.9617 27.6264 79.5356 27.3394 79.9182 26.8612C80.3008 26.3829 80.4921 25.5221 80.4921 24.5656C80.4921 23.5134 80.3008 22.7482 79.9182 22.2699C79.5356 21.7917 78.9617 21.5047 78.1965 21.5047C77.4313 21.5047 76.8574 21.7917 76.4748 22.2699C76.0922 22.7482 75.9009 23.609 75.9009 24.5656C75.9009 25.6177 76.0922 26.3829 76.4748 26.8612C76.8574 27.3394 77.4313 27.6264 78.1965 27.6264ZM78.1965 19.4004C78.9617 19.4004 79.6313 19.496 80.2052 19.783C80.7791 19.9743 81.353 20.3569 81.7356 20.8352C82.2139 21.3134 82.5008 21.7917 82.7878 22.4612C82.9791 23.1308 83.1704 23.8003 83.1704 24.5656C83.1704 25.3308 83.0747 26.096 82.7878 26.6699C82.5965 27.3394 82.2139 27.8177 81.7356 28.296C81.2574 28.7742 80.7791 29.0612 80.2052 29.3481C79.6313 29.5394 78.9617 29.7307 78.1965 29.7307C77.4313 29.7307 76.7617 29.6351 76.1878 29.3481C75.6139 29.1568 75.04 28.7742 74.6574 28.296C74.1792 27.8177 73.8922 27.3394 73.6053 26.6699C73.3183 26.0003 73.2227 25.3308 73.2227 24.5656C73.2227 23.8003 73.3183 23.0351 73.6053 22.4612C73.8922 21.7917 74.1792 21.3134 74.6574 20.8352C75.1357 20.3569 75.6139 20.07 76.1878 19.783C76.7617 19.496 77.4313 19.4004 78.1965 19.4004Z" fill="#6C7993"/>
<path d="M93.598 19.5918L89.6763 29.4439H87.285L83.3633 19.5918H85.5633C85.7546 19.5918 85.9459 19.5918 86.0415 19.6874C86.1372 19.7831 86.2328 19.8788 86.3285 20.0701L87.9545 24.9483C88.0502 25.2352 88.1458 25.6178 88.2415 25.9048C88.3372 26.1917 88.4328 26.5743 88.4328 26.8613C88.5285 26.5743 88.6241 26.1917 88.6241 25.9048C88.7197 25.6178 88.8154 25.2352 88.9111 24.9483L90.6328 20.0701C90.6328 19.9744 90.7284 19.7831 90.9197 19.6874C91.0154 19.5918 91.2067 19.5918 91.398 19.5918H93.598Z" fill="#6C7993"/>
<path d="M100.678 23.3221C100.678 23.0351 100.678 22.7482 100.582 22.5569C100.487 22.2699 100.391 22.0786 100.2 21.8873C100.008 21.696 99.8171 21.5047 99.6258 21.4091C99.3388 21.3134 99.0519 21.2178 98.7649 21.2178C98.0954 21.2178 97.6171 21.4091 97.2345 21.7917C96.8519 22.1743 96.6606 22.6525 96.565 23.3221H100.678ZM96.565 24.9482C96.6606 25.9047 96.9476 26.5742 97.3302 26.9568C97.8084 27.3394 98.3823 27.6264 99.0519 27.6264C99.4345 27.6264 99.7214 27.6264 100.008 27.5307C100.295 27.4351 100.487 27.3394 100.678 27.2438C100.869 27.1481 101.061 27.0525 101.252 26.9568C101.443 26.8612 101.539 26.8612 101.73 26.8612C101.921 26.8612 102.113 26.9568 102.208 27.0525L102.974 28.009C102.687 28.296 102.4 28.5829 102.017 28.7742C101.634 28.9655 101.348 29.1568 100.965 29.2525C100.582 29.3481 100.2 29.4438 99.8171 29.5394C99.4345 29.6351 99.0519 29.6351 98.7649 29.6351C98.0954 29.6351 97.4258 29.5394 96.8519 29.2525C96.278 29.0612 95.7041 28.6786 95.3215 28.2003C94.8432 27.7221 94.5563 27.2438 94.2693 26.5742C93.9824 25.9047 93.8867 25.1395 93.8867 24.2786C93.8867 23.6091 93.9824 22.9395 94.1737 22.3656C94.365 21.7917 94.7476 21.2178 95.1302 20.8352C95.5128 20.3569 96.0867 20.07 96.6606 19.783C97.2345 19.496 97.9041 19.4004 98.6693 19.4004C99.3388 19.4004 99.9127 19.496 100.391 19.6873C100.965 19.8786 101.348 20.1656 101.73 20.5482C102.113 20.9308 102.4 21.4091 102.591 21.983C102.782 22.5569 102.878 23.2264 102.878 23.896C102.878 24.0873 102.878 24.2786 102.878 24.3743C102.878 24.4699 102.782 24.5656 102.782 24.6612C102.782 24.7569 102.687 24.7569 102.591 24.8525C102.495 24.8525 102.4 24.8525 102.304 24.8525H96.565V24.9482Z" fill="#6C7993"/>
<path d="M107.186 21.2178C107.473 20.6439 107.856 20.1656 108.238 19.8786C108.621 19.5917 109.099 19.4004 109.673 19.4004C110.151 19.4004 110.438 19.496 110.725 19.6873L110.534 21.6004C110.534 21.696 110.438 21.7917 110.343 21.8873C110.247 21.983 110.151 21.983 110.056 21.983C109.96 21.983 109.769 21.983 109.577 21.983C109.386 21.983 109.195 21.983 109.004 21.983C108.717 21.983 108.525 21.983 108.334 22.0786C108.143 22.1743 107.951 22.2699 107.856 22.3656C107.664 22.4612 107.569 22.6525 107.473 22.8438C107.377 23.0351 107.282 23.2264 107.186 23.5134V29.5394H104.699V19.5917H106.23C106.517 19.5917 106.708 19.6873 106.804 19.783C106.899 19.8786 106.995 20.07 106.995 20.2613L107.186 21.2178Z" fill="#6C7993"/>
<path d="M117.994 23.3221C117.994 23.0351 117.994 22.7482 117.899 22.5569C117.803 22.2699 117.707 22.0786 117.516 21.8873C117.325 21.696 117.134 21.5047 116.942 21.4091C116.655 21.3134 116.368 21.2178 116.081 21.2178C115.412 21.2178 114.934 21.4091 114.551 21.7917C114.168 22.1743 113.977 22.6525 113.881 23.3221H117.994ZM113.881 24.9482C113.977 25.9047 114.264 26.5742 114.647 26.9568C115.125 27.3394 115.699 27.6264 116.368 27.6264C116.751 27.6264 117.038 27.6264 117.325 27.5307C117.612 27.4351 117.803 27.3394 117.994 27.2438C118.186 27.1481 118.377 27.0525 118.568 26.9568C118.76 26.8612 118.855 26.8612 119.047 26.8612C119.238 26.8612 119.429 26.9568 119.525 27.0525L120.29 28.009C120.003 28.296 119.716 28.5829 119.333 28.7742C118.951 28.9655 118.664 29.1568 118.281 29.2525C117.899 29.3481 117.516 29.4438 117.133 29.5394C116.751 29.6351 116.368 29.6351 116.081 29.6351C115.412 29.6351 114.742 29.5394 114.168 29.2525C113.594 29.0612 113.02 28.6786 112.638 28.2003C112.16 27.7221 111.873 27.2438 111.586 26.5742C111.299 25.9047 111.203 25.1395 111.203 24.2786C111.203 23.6091 111.299 22.9395 111.49 22.3656C111.681 21.7917 112.064 21.2178 112.447 20.8352C112.829 20.3569 113.403 20.07 113.977 19.783C114.551 19.496 115.22 19.4004 115.986 19.4004C116.655 19.4004 117.229 19.496 117.707 19.6873C118.281 19.8786 118.664 20.1656 119.047 20.5482C119.429 20.9308 119.716 21.4091 119.907 21.983C120.099 22.5569 120.194 23.2264 120.194 23.896C120.194 24.0873 120.194 24.2786 120.194 24.3743C120.194 24.4699 120.099 24.5656 120.099 24.6612C120.099 24.7569 120.003 24.7569 119.907 24.8525C119.812 24.8525 119.716 24.8525 119.62 24.8525H113.881V24.9482Z" fill="#6C7993"/>
<path d="M124.686 29.4434H122.008V19.5913H124.686V29.4434ZM125.069 16.7218C125.069 16.9131 125.069 17.2 124.973 17.3913C124.877 17.5826 124.782 17.7739 124.59 17.8696C124.399 18.0609 124.303 18.1565 124.016 18.2522C123.825 18.3478 123.634 18.3478 123.347 18.3478C123.156 18.3478 122.964 18.3478 122.773 18.2522C122.582 18.1565 122.39 18.0609 122.295 17.8696C122.103 17.6783 122.008 17.5826 121.912 17.3913C121.816 17.2 121.816 17.0087 121.816 16.7218C121.816 16.5305 121.816 16.2435 121.912 16.0522C122.008 15.8609 122.103 15.6696 122.295 15.574C122.486 15.3827 122.582 15.287 122.773 15.1914C122.964 15.0957 123.156 15.0957 123.347 15.0957C123.538 15.0957 123.825 15.0957 124.016 15.1914C124.208 15.287 124.399 15.3827 124.59 15.574C124.782 15.7653 124.877 15.8609 124.973 16.0522C124.973 16.3392 125.069 16.5305 125.069 16.7218Z" fill="#6C7993"/>
<path d="M130.715 24.183C131.288 24.183 131.671 24.0874 131.958 23.8004C132.245 23.5134 132.341 23.1308 132.341 22.7482C132.341 22.27 132.245 21.983 131.958 21.6961C131.671 21.4091 131.288 21.3135 130.715 21.3135C130.141 21.3135 129.758 21.4091 129.471 21.6961C129.184 21.983 129.089 22.27 129.089 22.7482C129.089 23.1308 129.184 23.5134 129.471 23.8004C129.758 23.9917 130.141 24.183 130.715 24.183ZM133.202 29.8264C133.202 29.6351 133.106 29.5395 133.01 29.4438C132.915 29.3482 132.723 29.2525 132.532 29.1569C132.341 29.0612 132.149 29.0612 131.862 29.0612C131.575 29.0612 131.384 28.9656 131.097 28.9656C130.81 28.9656 130.523 28.9656 130.236 28.9656C129.949 28.9656 129.662 28.9656 129.375 28.8699C129.184 28.9656 128.993 29.1569 128.802 29.3482C128.61 29.5395 128.61 29.7308 128.61 29.9221C128.61 30.1134 128.61 30.209 128.706 30.4003C128.802 30.496 128.897 30.6873 129.089 30.7829C129.28 30.8786 129.471 30.9742 129.758 30.9742C130.045 31.0699 130.428 31.0699 130.81 31.0699C131.288 31.0699 131.575 31.0699 131.958 30.9742C132.245 30.8786 132.532 30.8786 132.723 30.6873C132.915 30.496 133.01 30.496 133.106 30.3047C133.106 30.209 133.202 30.0177 133.202 29.8264ZM135.784 19.8787V20.8352C135.784 21.0265 135.784 21.1222 135.688 21.2178C135.593 21.3135 135.497 21.4091 135.306 21.4091L134.541 21.6004C134.636 21.8874 134.732 22.27 134.732 22.6526C134.732 23.1308 134.636 23.6091 134.445 23.9917C134.254 24.3743 133.967 24.7569 133.584 25.0439C133.201 25.3308 132.819 25.5221 132.341 25.7134C131.862 25.9047 131.384 25.9047 130.81 25.9047C130.428 25.9047 130.141 25.9047 129.854 25.8091C129.567 26.0004 129.471 26.1917 129.471 26.383C129.471 26.5743 129.567 26.6699 129.758 26.7656C129.949 26.8612 130.141 26.8612 130.523 26.9569C130.81 26.9569 131.193 27.0525 131.575 27.0525C131.958 27.0525 132.341 27.0525 132.723 27.1482C133.106 27.1482 133.488 27.2438 133.871 27.3395C134.254 27.4351 134.636 27.5308 134.923 27.7221C135.21 27.9134 135.497 28.1047 135.688 28.4873C135.88 28.7743 135.975 29.1569 135.975 29.6351C135.975 30.1134 135.88 30.496 135.688 30.8786C135.497 31.2612 135.115 31.6438 134.732 32.0264C134.349 32.3134 133.775 32.6003 133.202 32.7916C132.628 32.9829 131.958 33.0786 131.193 33.0786C130.428 33.0786 129.758 32.9829 129.184 32.8873C128.61 32.7916 128.132 32.5047 127.749 32.3134C127.367 32.0264 127.08 31.8351 126.889 31.4525C126.697 31.1655 126.602 30.7829 126.602 30.496C126.602 30.0177 126.697 29.6351 126.984 29.3482C127.271 29.0612 127.654 28.7743 128.132 28.583C127.845 28.4873 127.654 28.296 127.558 28.009C127.367 27.8177 127.367 27.5308 127.367 27.1482C127.367 26.8612 127.462 26.5743 127.654 26.1917C127.845 25.9047 128.228 25.6178 128.61 25.3308C128.132 25.0439 127.749 24.6613 127.367 24.2787C127.08 23.8004 126.889 23.3221 126.889 22.7482C126.889 22.27 126.984 21.7917 127.175 21.4091C127.367 21.0265 127.654 20.6439 128.036 20.3569C128.419 20.07 128.802 19.8787 129.28 19.6874C129.758 19.4961 130.332 19.4961 130.906 19.4961C131.767 19.4961 132.532 19.6874 133.106 19.9743H135.784V19.8787Z" fill="#6C7993"/>
<path d="M139.61 20.7395C139.801 20.5482 139.993 20.3569 140.184 20.1656C140.375 19.9743 140.662 19.8786 140.853 19.783C141.14 19.6873 141.332 19.5917 141.619 19.496C141.906 19.4004 142.193 19.4004 142.48 19.4004C143.053 19.4004 143.532 19.496 143.914 19.6873C144.297 19.8786 144.68 20.1656 144.967 20.4526C145.253 20.7395 145.445 21.2178 145.636 21.6004C145.827 22.0786 145.827 22.5569 145.827 23.1308V29.4438H143.149V23.1308C143.149 22.5569 143.053 22.1743 142.767 21.8873C142.48 21.6004 142.097 21.4091 141.619 21.4091C141.236 21.4091 140.853 21.5047 140.567 21.696C140.28 21.8873 139.897 22.0786 139.61 22.3656V29.4438H137.219V19.5917H138.845C139.132 19.5917 139.419 19.783 139.514 20.07L139.61 20.7395Z" fill="#6C7993"/>
<path d="M73.0355 44.2696C73.2268 44.2696 73.3224 44.3653 73.4181 44.4609L74.5659 45.7044C73.992 46.374 73.3224 46.9479 72.4616 47.3305C71.6007 47.7131 70.6442 47.9044 69.4964 47.9044C68.4442 47.9044 67.4877 47.7131 66.7225 47.3305C65.8616 46.9479 65.1921 46.4696 64.6182 45.8957C64.0442 45.2261 63.566 44.5566 63.279 43.6001C62.9921 42.7392 62.8008 41.7827 62.8008 40.7305C62.8008 40.061 62.8964 39.3914 62.9921 38.7219C63.1834 38.0523 63.3747 37.4784 63.6616 37.0001C63.9486 36.5219 64.3312 36.0436 64.7138 35.5654C65.0964 35.1828 65.5747 34.8002 66.0529 34.5132C66.5312 34.2263 67.1051 34.035 67.679 33.8437C68.2529 33.6523 68.9225 33.6523 69.592 33.6523C70.0703 33.6523 70.5485 33.6523 71.0268 33.748C71.505 33.8436 71.8876 33.9393 72.2703 34.1306C72.6529 34.3219 73.0355 34.5132 73.3224 34.7045C73.705 34.8958 73.992 35.1828 74.1833 35.4697L73.2268 36.8088C73.1311 36.9045 73.1311 37.0001 73.0355 37.0001C72.9398 37.0958 72.8442 37.0958 72.6529 37.0958C72.4616 37.0958 72.3659 37.0001 72.1746 36.9045C71.9833 36.8088 71.792 36.7132 71.6007 36.5219C71.4094 36.4262 71.1224 36.2349 70.7398 36.1393C70.3572 36.0436 69.9746 35.948 69.4007 35.948C68.8268 35.948 68.2529 36.0436 67.7746 36.2349C67.2964 36.4262 66.9138 36.7132 66.5312 37.1914C66.1486 37.574 65.9573 38.0523 65.766 38.6262C65.5747 39.2001 65.479 39.8697 65.479 40.6349C65.479 41.4001 65.5747 42.0697 65.766 42.6436C65.9573 43.2175 66.2442 43.6957 66.6268 44.0783C67.0094 44.4609 67.392 44.7479 67.8703 45.0348C68.3486 45.2261 68.8268 45.3218 69.4007 45.3218C69.6877 45.3218 69.9746 45.3218 70.2616 45.2261C70.5485 45.2261 70.7398 45.1305 71.0268 45.0348C71.2181 44.9392 71.505 44.8435 71.6963 44.7479C71.8877 44.6522 72.079 44.4609 72.2703 44.2696C72.3659 44.174 72.4616 44.174 72.4616 44.0783C72.8442 44.2696 72.9398 44.2696 73.0355 44.2696Z" fill="#6C7993"/>
<path d="M100.489 37.8604V47.7124H98.8633C98.4807 47.7124 98.2894 47.5211 98.1938 47.2342L98.0025 46.5646C97.8112 46.7559 97.6199 46.9472 97.4286 47.1385C97.2373 47.3298 96.9503 47.4255 96.759 47.5211C96.4721 47.6168 96.2808 47.7124 95.9938 47.8081C95.7069 47.9037 95.4199 47.9037 95.1329 47.9037C94.559 47.9037 94.0808 47.8081 93.6982 47.6168C93.3156 47.4255 92.933 47.1385 92.646 46.8516C92.3591 46.5646 92.1678 46.0864 91.9765 45.7037C91.7852 45.2255 91.7852 44.7472 91.7852 44.1733V37.8604H94.4634V44.1733C94.4634 44.7472 94.559 45.1298 94.846 45.4168C95.1329 45.7038 95.5156 45.8951 95.9938 45.8951C96.3764 45.8951 96.759 45.7994 97.046 45.6081C97.3329 45.4168 97.7155 45.2255 98.0025 44.9385V37.8604H100.489Z" fill="#6C7993"/>
<path d="M108.809 40.4435C108.522 40.1565 108.331 39.9652 108.044 39.8696C107.757 39.7739 107.47 39.6783 107.087 39.6783C106.8 39.6783 106.513 39.7739 106.226 39.8696C105.939 39.9652 105.748 40.1565 105.557 40.4435C105.365 40.7304 105.27 41.0174 105.078 41.4C104.983 41.7826 104.887 42.2608 104.887 42.8348C104.887 43.4087 104.887 43.8869 104.983 44.2695C105.078 44.6521 105.174 44.9391 105.365 45.226C105.557 45.4173 105.748 45.6086 105.939 45.7043C106.131 45.7999 106.418 45.8956 106.705 45.8956C107.183 45.8956 107.565 45.7999 107.852 45.6086C108.139 45.4173 108.426 45.1304 108.713 44.8434V40.4435H108.809ZM111.391 33.4609V47.713H109.765C109.383 47.713 109.191 47.5217 109.096 47.2347L108.905 46.3739C108.713 46.5652 108.522 46.7565 108.235 46.9478C108.044 47.1391 107.757 47.2347 107.565 47.426C107.278 47.5217 106.991 47.6173 106.705 47.713C106.418 47.8086 106.131 47.8086 105.748 47.8086C105.174 47.8086 104.696 47.713 104.313 47.426C103.835 47.2347 103.452 46.8521 103.165 46.4695C102.878 46.0869 102.592 45.513 102.4 44.8434C102.209 44.1739 102.113 43.5043 102.113 42.7391C102.113 41.9739 102.209 41.3043 102.4 40.7304C102.592 40.0609 102.878 39.5826 103.261 39.1044C103.644 38.6261 104.122 38.2435 104.6 38.0522C105.078 37.7652 105.748 37.6696 106.322 37.6696C106.896 37.6696 107.278 37.7652 107.661 37.9565C108.044 38.1478 108.331 38.3392 108.618 38.6261V33.5566H111.391V33.4609Z" fill="#6C7993"/>
<path d="M126.122 36.426C126.027 36.6173 125.931 36.713 125.835 36.713C125.74 36.8086 125.644 36.8086 125.453 36.8086C125.357 36.8086 125.166 36.713 124.975 36.6173C124.783 36.5217 124.592 36.426 124.401 36.3304C124.209 36.2347 123.922 36.1391 123.635 36.0434C123.348 35.9478 123.061 35.8521 122.679 35.8521C122.009 35.8521 121.531 36.0434 121.148 36.3304C120.862 36.6173 120.67 36.9999 120.67 37.4782C120.67 37.7651 120.766 38.0521 120.957 38.2434C121.148 38.4347 121.34 38.626 121.722 38.7217C122.009 38.913 122.392 39.0086 122.775 39.1043C123.157 39.1999 123.54 39.3912 123.922 39.4869C124.305 39.5825 124.688 39.7738 125.07 39.9651C125.453 40.1564 125.74 40.3477 126.122 40.6347C126.409 40.9216 126.696 41.3042 126.888 41.6868C127.079 42.0694 127.174 42.5477 127.174 43.1216C127.174 43.7912 127.079 44.3651 126.888 44.939C126.696 45.5129 126.314 45.9911 125.931 46.3738C125.548 46.7564 124.975 47.139 124.401 47.3303C123.827 47.5216 123.061 47.7129 122.296 47.7129C121.818 47.7129 121.435 47.7129 120.957 47.6172C120.479 47.5216 120.096 47.4259 119.714 47.2346C119.331 47.0433 118.948 46.852 118.566 46.6607C118.183 46.4694 117.896 46.1825 117.609 45.8955L118.47 44.5564C118.566 44.4607 118.662 44.3651 118.757 44.2694C118.853 44.1738 118.948 44.1738 119.14 44.1738C119.331 44.1738 119.522 44.2694 119.714 44.3651C119.905 44.4607 120.096 44.652 120.383 44.7477C120.67 44.939 120.957 45.0346 121.244 45.1303C121.531 45.2259 122.009 45.3216 122.392 45.3216C123.061 45.3216 123.54 45.1303 123.922 44.8433C124.305 44.5564 124.496 44.0781 124.496 43.5042C124.496 43.1216 124.401 42.8347 124.209 42.6434C124.018 42.4521 123.827 42.2608 123.54 42.0694C123.253 41.8781 122.87 41.7825 122.488 41.6868C122.105 41.5912 121.722 41.4955 121.34 41.3042C120.957 41.2086 120.575 41.0173 120.192 40.826C119.809 40.6347 119.522 40.4434 119.14 40.1564C118.853 39.8695 118.566 39.4869 118.47 39.1043C118.279 38.626 118.183 38.1477 118.183 37.4782C118.183 36.9999 118.279 36.426 118.47 35.9478C118.662 35.4695 118.948 34.9913 119.331 34.6086C119.714 34.226 120.192 33.9391 120.766 33.6521C121.34 33.4608 122.009 33.2695 122.775 33.2695C123.635 33.2695 124.401 33.3652 125.07 33.6521C125.74 33.9391 126.409 34.226 126.888 34.7043L126.122 36.426Z" fill="#6C7993"/>
<path d="M78.5845 33.4609H75.9062V47.713H78.5845V33.4609Z" fill="#6C7993"/>
<path d="M131.765 47.9041C131.287 47.9041 130.904 47.8084 130.617 47.7128C130.235 47.6171 129.948 47.4258 129.757 47.1389C129.565 46.8519 129.374 46.565 129.183 46.278C129.087 45.8954 128.991 45.5128 128.991 45.1302V39.7737H128.035C127.939 39.7737 127.748 39.7737 127.652 39.6781C127.557 39.5824 127.461 39.4868 127.461 39.2955V38.2433L129.087 37.9563L129.661 35.3738C129.757 35.0868 129.948 34.8955 130.235 34.8955H131.574V37.8607H134.157V39.6781H131.574V44.8432C131.574 45.1302 131.67 45.3215 131.765 45.5128C131.861 45.7041 132.052 45.7997 132.339 45.7997C132.435 45.7997 132.53 45.7997 132.626 45.7997C132.722 45.7997 132.817 45.7041 132.817 45.7041C132.913 45.7041 132.913 45.6084 133.009 45.6084C133.104 45.6084 133.104 45.6084 133.2 45.6084C133.296 45.6084 133.296 45.6084 133.391 45.7041C133.487 45.7041 133.487 45.7997 133.583 45.8954L134.348 47.1389C133.965 47.4258 133.583 47.6171 133.104 47.8084C132.722 47.8084 132.243 47.9041 131.765 47.9041Z" fill="#6C7993"/>
<path d="M140.758 43.5993C140.089 43.5993 139.611 43.695 139.132 43.7906C138.75 43.8863 138.367 43.9819 138.08 44.0776C137.793 44.1732 137.602 44.3645 137.506 44.5558C137.411 44.7471 137.315 44.9384 137.315 45.1297C137.315 45.5123 137.411 45.7993 137.602 45.9906C137.793 46.1819 138.08 46.2776 138.463 46.2776C138.941 46.2776 139.324 46.1819 139.611 46.0862C139.898 45.8949 140.28 45.7036 140.567 45.321V43.5993H140.758ZM135.306 39.1994C135.88 38.7211 136.55 38.2428 137.219 38.0515C137.889 37.7646 138.654 37.6689 139.515 37.6689C140.089 37.6689 140.663 37.7646 141.045 37.9559C141.428 38.1472 141.906 38.4342 142.193 38.7211C142.48 39.1037 142.767 39.4863 142.958 39.9646C143.15 40.4428 143.245 40.9211 143.245 41.495V47.7123H142.002C141.715 47.7123 141.524 47.7123 141.428 47.6167C141.332 47.521 141.237 47.4254 141.141 47.1384L140.95 46.4689C140.663 46.6602 140.472 46.8515 140.185 47.0428C139.993 47.2341 139.706 47.3297 139.419 47.4254C139.132 47.521 138.941 47.6167 138.654 47.7123C138.367 47.808 138.08 47.808 137.698 47.808C137.219 47.808 136.837 47.7123 136.55 47.6167C136.167 47.521 135.88 47.3297 135.593 47.1384C135.306 46.9471 135.115 46.6602 135.019 46.2776C134.924 45.895 134.828 45.5123 134.828 45.1297C134.828 44.7471 134.924 44.3645 135.115 44.0776C135.306 43.695 135.593 43.408 136.072 43.1211C136.55 42.8341 137.124 42.5472 137.889 42.3558C138.654 42.1645 139.611 42.0689 140.758 42.0689V41.5906C140.758 41.0167 140.663 40.5385 140.376 40.2515C140.089 39.9646 139.706 39.7733 139.228 39.7733C138.845 39.7733 138.559 39.7733 138.272 39.8689C137.985 39.9646 137.793 40.0602 137.602 40.1559C137.411 40.2515 137.219 40.3472 137.124 40.4428C136.932 40.5385 136.741 40.5385 136.55 40.5385C136.359 40.5385 136.167 40.5385 136.072 40.4428C135.976 40.3472 135.88 40.2515 135.785 40.1559L135.306 39.1994Z" fill="#6C7993"/>
<path d="M152.523 40.06C152.428 40.1557 152.332 40.2513 152.332 40.2513C152.236 40.347 152.141 40.347 152.045 40.347C151.949 40.347 151.758 40.347 151.662 40.2513C151.567 40.1557 151.375 40.06 151.28 39.9644C151.089 39.8687 150.897 39.7731 150.706 39.6774C150.515 39.5818 150.228 39.5818 149.941 39.5818C149.558 39.5818 149.176 39.6774 148.889 39.7731C148.602 39.9644 148.315 40.1557 148.123 40.347C147.932 40.6339 147.836 40.9209 147.741 41.3035C147.645 41.6861 147.645 42.1643 147.645 42.6426C147.645 43.6948 147.836 44.46 148.219 44.9382C148.602 45.5121 149.176 45.7034 149.845 45.7034C150.132 45.7034 150.323 45.7034 150.515 45.6078C150.706 45.6078 150.802 45.5121 150.993 45.4165C151.089 45.3208 151.28 45.3208 151.375 45.2252C151.471 45.1295 151.567 45.0339 151.662 45.0339C151.758 44.9382 151.854 44.9382 151.949 44.8426C152.045 44.8426 152.141 44.7469 152.236 44.7469C152.428 44.7469 152.619 44.8426 152.715 44.9382L153.48 45.8947C153.193 46.1817 152.906 46.4686 152.619 46.6599C152.332 46.8513 151.949 47.0426 151.662 47.1382C151.28 47.2339 150.993 47.3295 150.61 47.4252C150.228 47.5208 149.941 47.5208 149.558 47.5208C148.984 47.5208 148.41 47.4252 147.836 47.1382C147.262 46.9469 146.784 46.5643 146.402 46.1817C146.019 45.7034 145.636 45.2252 145.445 44.5556C145.158 43.8861 145.062 43.2165 145.062 42.3556C145.062 41.5904 145.158 40.9209 145.349 40.347C145.541 39.7731 145.828 39.1992 146.306 38.7209C146.689 38.2426 147.262 37.9557 147.836 37.6687C148.41 37.3818 149.176 37.2861 149.941 37.2861C150.706 37.2861 151.375 37.3818 151.949 37.6687C152.523 37.9557 153.002 38.2426 153.48 38.7209L152.523 40.06Z" fill="#6C7993"/>
<path d="M157.303 33.4609V41.5913H157.781C157.973 41.5913 158.068 41.5913 158.164 41.4956C158.26 41.4 158.355 41.4 158.451 41.2087L160.651 38.3391C160.747 38.1478 160.842 38.0522 161.034 37.9565C161.129 37.8609 161.321 37.8609 161.512 37.8609H163.903L161.034 41.4956C160.842 41.7826 160.555 42.0695 160.268 42.1652C160.46 42.2608 160.555 42.3565 160.651 42.5478C160.747 42.6435 160.842 42.8348 160.938 43.0261L163.999 47.8086H161.608C161.416 47.8086 161.225 47.8086 161.034 47.713C160.842 47.6173 160.747 47.5217 160.651 47.3304L158.451 43.6956C158.355 43.5043 158.26 43.4087 158.164 43.4087C158.068 43.4087 157.877 43.313 157.686 43.313H157.303V47.8086H154.625V33.5566H157.303V33.4609Z" fill="#6C7993"/>
<path d="M54.959 15.6697C54.2894 15.2871 53.1416 15.2871 51.5155 15.2871H21.0028C20.6202 15.2871 20.2376 15.2871 19.7593 15.3828C19.1854 15.4784 18.5158 15.6697 17.9419 15.9567C17.368 16.2436 16.9854 16.6262 16.5072 17.0088L2.06384 31.5478C-0.710047 34.4174 -0.518745 36.3304 1.87254 36.9999C2.54209 37.1912 3.3073 37.0956 4.35947 37.0956H35.1592C35.9244 37.0956 36.5939 36.9999 37.2635 36.713C37.933 36.426 38.7939 35.8521 39.0809 35.6608C39.3678 35.3739 41.8547 32.8869 41.8547 32.8869H6.75075L19.4724 20.1653C19.6637 19.974 19.855 19.8784 19.9506 19.7827C20.1419 19.6871 20.1419 19.6871 20.2376 19.6871C20.3332 19.6871 20.6202 19.5914 21.0984 19.5914H49.2199L45.5851 23.2262H51.6112L54.0024 20.8349C55.6285 19.1132 56.9676 16.7219 54.959 15.6697Z" fill="#6C7993"/>
<path d="M1.01056 47.3311C1.68012 47.7138 2.82794 47.7138 4.45401 47.7138H34.8711C35.2537 47.7138 35.6363 47.7137 36.1146 47.6181C36.6885 47.5224 37.358 47.3311 37.9319 47.0442C38.5058 46.7572 38.8884 46.3746 39.3667 45.992L53.9057 31.453C56.6796 28.5835 56.4883 26.6705 54.097 26.0009C53.4274 25.9053 52.6622 25.9053 51.6101 25.9053H20.8104C20.0452 25.9053 19.3756 26.0009 18.706 26.2879C18.0365 26.5748 17.1756 27.1487 16.8887 27.34C16.6017 27.627 14.1148 30.1139 14.1148 30.1139H49.2188L36.4972 42.8355C36.3059 43.0268 36.1146 43.1225 36.0189 43.2181C35.8276 43.3138 35.8276 43.3138 35.732 43.3138C35.6363 43.3138 35.3493 43.4095 34.8711 43.4095H6.74964L10.3844 39.7747H4.35836L1.96708 42.166C0.341004 43.9834 -0.998113 46.279 1.01056 47.3311Z" fill="#6C7993"/>
</svg>
