<svg width="210" height="64" viewBox="0 0 210 64" fill="none" xmlns="http://www.w3.org/2000/svg">
<path fill-rule="evenodd" clip-rule="evenodd" d="M36.182 42.2196C35.4161 42.9958 34.0488 43.8778 31.8036 43.9558C30.7667 43.9926 29.5551 43.996 28.9997 43.996H16.9397L25.5889 35.3961C26.2664 34.7234 26.9548 34.0623 27.6537 33.4129C29.3468 31.8512 30.8731 31.5377 31.9515 31.548C33.6412 31.563 35.1775 32.2703 36.2772 33.4106C38.6276 35.8692 38.5727 39.7989 36.1831 42.2184L36.182 42.2196ZM39.071 30.6133C38.1458 29.6422 37.0407 28.8705 35.8206 28.3435C34.6005 27.8166 33.2899 27.5451 31.966 27.5449C29.5518 27.5449 27.4746 28.3958 25.6594 29.9094C24.8688 30.5685 24.0391 31.3574 22.9954 32.3955L7.44727 47.8395C8.23447 47.9544 9.31842 47.9888 10.2848 47.9957C11.1885 47.9992 28.4589 47.9992 29.1811 47.9992C30.6368 47.9992 31.583 47.9969 32.6009 47.9211C34.9323 47.7465 37.136 46.8703 38.9176 45.0801C39.8567 44.1419 40.6059 43.0228 41.1222 41.7869C41.6384 40.5511 41.9115 39.2228 41.9259 37.8785C41.9402 36.5341 41.6955 35.2 41.2058 33.9528C40.7161 32.7057 39.991 31.57 39.0721 30.611" fill="#141A1F"/>
<path fill-rule="evenodd" clip-rule="evenodd" d="M15.9187 29.6266C14.1551 28.2738 12.1809 27.5171 9.94358 27.5205C8.6215 27.5205 7.31278 27.7918 6.09449 28.3183C4.8762 28.8449 3.77297 29.6161 2.84976 30.5866C1.93232 31.5464 1.20844 32.6822 0.719547 33.9292C0.230653 35.1762 -0.0136599 36.5098 0.000589232 37.8538C0.0148383 39.1977 0.28737 40.5255 0.802588 41.7613C1.31781 42.9971 2.0656 44.1166 3.00317 45.0557C4.58878 46.6519 4.87254 46.8897 7.44976 47.8421L11.313 43.9986C10.9747 43.9986 10.8173 43.9986 10.1026 43.9314C7.73619 43.7092 6.49801 42.9714 5.73319 42.1952C3.34806 39.7745 3.29319 35.8448 5.63913 33.3862C6.78149 32.2041 8.33412 31.5343 9.95701 31.5236C11.0141 31.519 12.4485 31.8337 14.07 33.2117C14.8426 33.8697 16.5626 35.4188 17.3162 36.1147C17.3543 36.1503 17.4002 36.1537 17.445 36.1158L20.1056 33.454C20.1161 33.4447 20.1244 33.4331 20.1301 33.4201C20.1357 33.4071 20.1385 33.393 20.1383 33.3788C20.1381 33.3646 20.1349 33.3506 20.1288 33.3378C20.1228 33.325 20.1141 33.3137 20.1034 33.3047C18.8234 32.1196 17.0105 30.4603 15.9187 29.6266Z" fill="#141A1F"/>
<mask id="mask0_2690_7987" style="mask-type:alpha" maskUnits="userSpaceOnUse" x="7" y="16" width="26" height="12">
<path d="M7.4043 16H32.9152V27.1389H7.4043V16Z" fill="white"/>
</mask>
<g mask="url(#mask0_2690_7987)">
<path fill-rule="evenodd" clip-rule="evenodd" d="M32.9017 24.6769C31.0866 19.6219 26.1998 16 20.4509 16C13.8576 16 8.39306 20.7805 7.4043 27.008C7.93507 26.9196 8.47929 26.8736 9.03582 26.8736C9.80847 26.8725 10.5509 26.9609 11.2642 27.1297L11.3045 27.1378C12.1992 22.9337 15.9684 19.8113 20.4509 19.8113C24.1854 19.8113 27.4607 22.0311 28.9366 25.1775C28.959 25.2269 28.9993 25.243 29.0396 25.2327C30.1504 24.9318 31.483 24.7561 32.7685 24.8503C32.8939 24.8594 32.942 24.7894 32.9017 24.6769Z" fill="#141A1F"/>
</g>
<path d="M160.304 36.4277C160.304 36.4006 160.296 36.3741 160.282 36.3517C160.267 36.3293 160.246 36.312 160.221 36.3022C160.197 36.2924 160.17 36.2905 160.144 36.2968C160.119 36.3032 160.095 36.3173 160.078 36.3375C159.272 37.2799 158.28 38.0366 157.168 38.5579C156.056 39.0792 154.85 39.3533 153.627 39.3621C149.475 39.3621 146.792 36.4199 146.792 31.8672C146.792 27.2282 149.348 24.3463 153.463 24.3463C155.857 24.3926 158.141 25.382 159.842 27.1093C159.86 27.1286 159.883 27.142 159.909 27.1476C159.934 27.1533 159.961 27.1509 159.985 27.1409C160.009 27.1309 160.029 27.1136 160.044 27.0914C160.058 27.0692 160.066 27.0431 160.065 27.0164V24.6687C158.23 23.0484 155.885 22.164 153.463 22.1789C152.283 22.1372 151.108 22.3547 150.016 22.8168C148.925 23.279 147.943 23.9751 147.135 24.8584C145.594 26.5939 144.781 29.0173 144.781 31.8678C144.781 37.6626 148.336 41.5561 153.627 41.5561C156.084 41.5748 158.461 40.6643 160.304 38.9988V36.4277ZM47.416 22.6622V24.6742H53.6212V41.076H55.7686V24.6742H61.9738V22.6622H47.416ZM207.858 28.9543C206.747 27.7199 204.891 27.2714 203.555 27.2714C202.715 27.2534 201.88 27.415 201.103 27.7459C200.327 28.0767 199.626 28.5696 199.045 29.1932C197.841 30.6029 197.208 32.4321 197.278 34.3051C197.278 39.2178 200.457 41.4173 203.607 41.4173C205.447 41.4173 206.965 40.7426 207.858 39.548V41.1031H209.999V22.691H207.858L207.858 28.9543ZM207.801 34.357C207.801 36.8706 206.378 39.4158 203.658 39.4158C201.615 39.4158 199.416 37.8656 199.416 34.4616C199.416 31.9607 200.704 29.269 203.531 29.269C206.683 29.269 207.801 32.0099 207.801 34.357ZM163.146 22.691H165.32V41.1031H163.146V22.691ZM100.571 37.6936C100.571 37.6676 100.564 37.642 100.55 37.6201C100.537 37.5982 100.517 37.5809 100.494 37.5703C100.471 37.5597 100.445 37.5563 100.42 37.5605C100.395 37.5647 100.372 37.5764 100.353 37.594C99.1398 38.6536 97.626 39.2848 96.0358 39.3942C93.1538 39.3942 91.2921 37.4126 91.2921 34.346C91.2921 31.2788 93.1538 29.2972 96.0358 29.2972C97.6043 29.3022 99.1256 29.8476 100.356 30.8457C100.374 30.8628 100.398 30.8738 100.422 30.8776C100.447 30.8814 100.472 30.8777 100.495 30.867C100.518 30.8562 100.537 30.839 100.551 30.8172C100.564 30.7955 100.571 30.7702 100.571 30.7445V28.7159C99.1699 27.8276 97.5674 27.3291 95.9215 27.2697C91.9414 27.2697 89.2665 30.1135 89.2665 34.346C89.2665 38.5779 91.9414 41.4217 95.9215 41.4217C97.5799 41.4415 99.2037 40.9346 100.57 39.9705L100.571 37.6936ZM72.5009 37.2594C72.501 37.2312 72.4925 37.2037 72.4764 37.1808C72.4603 37.1579 72.4375 37.1408 72.4114 37.132C72.3853 37.1232 72.3571 37.1232 72.3309 37.1319C72.3047 37.1406 72.2819 37.1575 72.2657 37.1804C71.0681 38.5396 69.4064 39.3741 67.6251 39.5109C66.4204 39.5633 65.242 39.1395 64.3332 38.3268C63.4956 37.4222 63.0364 36.2172 63.054 34.9698H73.1006V34.8122C73.1006 31.9065 72.6174 30.2589 71.378 28.936C70.8239 28.3723 70.1613 27.9331 69.4325 27.6465C68.7037 27.3599 67.9247 27.2321 67.1451 27.2714C63.3867 27.2714 60.9583 30.0294 60.9588 34.3034C61.0958 38.7499 63.5593 41.4046 67.548 41.4046C69.3794 41.4203 71.1488 40.7248 72.5009 39.4578V37.2594ZM71.0701 33.0762H63.0497L63.0529 33.0347C63.114 31.9857 63.5677 31.0014 64.3194 30.2873C65.0712 29.5732 66.0628 29.1844 67.0874 29.2021C69.4285 29.2021 70.9542 30.6715 71.0674 33.0364L71.0701 33.0762ZM192.706 34.4621C192.706 38.1299 190.644 39.4313 188.877 39.4313C188.421 39.4508 187.966 39.3757 187.539 39.2106C187.112 39.0454 186.722 38.7936 186.393 38.4702C186.063 38.1467 185.8 37.7584 185.62 37.3283C185.44 36.8983 185.347 36.4355 185.345 35.9675V27.5855H183.302V35.9299C183.302 39.1608 185.551 41.4173 188.773 41.4173C190.557 41.4173 191.949 40.8012 192.834 39.6282V41.0993H194.783V27.5855H192.706V34.4621ZM81.5411 27.2719C80.8072 27.2401 80.075 27.3657 79.3912 27.6406C78.7073 27.9155 78.087 28.3338 77.5697 28.8686V27.5777H75.5409V41.1031H77.615V33.3964C77.5876 32.8412 77.668 32.2859 77.8514 31.7628C78.0349 31.2397 78.3179 30.7592 78.6839 30.3491C79.0517 29.9798 79.4917 29.6947 79.9748 29.5126C80.4579 29.3306 80.9732 29.2556 81.4866 29.2928C81.93 29.2874 82.3697 29.3756 82.7785 29.5519C83.1872 29.7283 83.5561 29.9889 83.8624 30.3178C84.1687 30.6466 84.4057 31.0365 84.5588 31.4633C84.7118 31.8901 84.7776 32.3446 84.7521 32.7985V41.1031H86.8267V32.6984C86.8595 31.96 86.7439 31.2226 86.4872 30.532C86.2305 29.8413 85.8382 29.212 85.3345 28.6833C84.2986 27.7224 82.9369 27.2158 81.5411 27.2719ZM114.119 37.2594C114.12 37.2312 114.111 37.2037 114.095 37.1808C114.079 37.1579 114.056 37.1408 114.03 37.132C114.004 37.1232 113.976 37.1232 113.95 37.1319C113.923 37.1406 113.901 37.1575 113.884 37.1804C112.687 38.5396 111.025 39.3741 109.244 39.5109C108.039 39.5633 106.861 39.1395 105.952 38.3268C105.114 37.4222 104.655 36.2172 104.673 34.9698H114.719V34.8122C114.719 31.9065 114.237 30.2589 112.997 28.936C112.443 28.3722 111.78 27.933 111.051 27.6464C110.323 27.3598 109.543 27.2321 108.764 27.2714C105.006 27.2714 102.577 30.0294 102.577 34.3034C102.714 38.7499 105.178 41.4046 109.167 41.4046C110.998 41.4203 112.767 40.7248 114.119 39.4578V37.2594ZM112.689 33.0762H104.669L104.672 33.0347C104.733 31.9857 105.186 31.0014 105.938 30.2873C106.69 29.5732 107.681 29.1844 108.706 29.2021C111.048 29.2021 112.573 30.6715 112.687 33.0364L112.689 33.0762ZM123.126 27.2719C122.392 27.24 121.66 27.3656 120.976 27.6405C120.292 27.9154 119.672 28.3337 119.154 28.8686V27.5777H117.126V41.1031H119.2V33.3964C119.173 32.8412 119.253 32.2859 119.437 31.7628C119.62 31.2397 119.903 30.7592 120.269 30.3491C120.637 29.9799 121.077 29.6948 121.56 29.5128C122.043 29.3307 122.558 29.2557 123.071 29.2928C123.515 29.2873 123.954 29.3755 124.363 29.5518C124.772 29.7281 125.141 29.9887 125.447 30.3176C125.754 30.6464 125.991 31.0363 126.144 31.4632C126.297 31.89 126.363 32.3445 126.337 32.7985V41.1031H128.411V32.6984C128.444 31.96 128.329 31.2226 128.072 30.532C127.815 29.8413 127.423 29.212 126.919 28.6833C125.883 27.7225 124.522 27.2159 123.126 27.2719ZM135.195 41.2829C136.118 41.1933 137.026 40.9817 137.897 40.6535V38.6166C137.897 38.5952 137.892 38.5741 137.882 38.5551C137.873 38.5361 137.859 38.5196 137.842 38.5072C137.825 38.4948 137.805 38.4867 137.785 38.4837C137.764 38.4807 137.743 38.4829 137.723 38.49C136.998 38.7538 136.255 38.9633 135.499 39.1166C135.283 39.152 135.092 39.183 134.949 39.0591C134.894 39.0042 134.852 38.9365 134.828 38.8618C134.803 38.7871 134.796 38.7074 134.807 38.6294V29.5433H138.604V27.575H134.807V23.9713H132.652V27.575H130.488V29.5427H132.652V38.8423C132.631 39.1833 132.683 39.525 132.805 39.843C132.927 40.161 133.116 40.4476 133.358 40.6823C133.879 41.1035 134.532 41.3167 135.195 41.2823L135.195 41.2829ZM174.557 27.2979C170.732 27.2979 168.162 30.135 168.162 34.357C168.162 38.579 170.732 41.4162 174.557 41.4162C178.383 41.4162 180.952 38.579 180.952 34.357C180.952 30.135 178.383 27.2979 174.557 27.2979ZM170.146 34.3432L170.145 34.3377C170.153 31.3457 171.925 29.3364 174.557 29.3364C177.196 29.3364 178.968 31.354 178.969 34.357C178.968 37.3595 177.195 39.3776 174.557 39.3776C171.92 39.3776 170.149 37.3435 170.146 34.3432Z" fill="#141A1F"/>
</svg>
