<svg width="203" height="64" viewBox="0 0 203 64" fill="none" xmlns="http://www.w3.org/2000/svg">
<path d="M65.4089 33.6146C65.4089 37.7411 62.517 39.5216 59.2757 39.5216C56.0216 39.5216 53.1289 37.7411 53.1289 33.6146V26.1161H56.6243V33.3043C56.6243 35.395 57.7625 36.2442 59.2757 36.2442C60.7761 36.2442 61.9271 35.395 61.9271 33.3043V26.1161H65.4089V33.6146ZM80.7019 30.8637C80.7019 27.8287 78.5995 25.7654 75.6532 25.7654C74.1807 25.7654 72.7605 26.2647 71.8371 27.6541V26.1161H68.4355V39.1847H71.9308V32.0231C71.9308 30.0543 73.1764 29.0696 74.676 29.0696C76.2695 29.0696 77.2065 30.1084 77.2065 31.9964V39.1847H80.7019V30.8637ZM87.2238 26.1161H83.7284V39.1847H87.2238V26.1161ZM87.6927 21.8402C87.6927 20.5726 86.7155 19.5742 85.4564 19.5742C84.1973 19.5742 83.2337 20.5726 83.2337 21.8402C83.2337 23.1084 84.1973 24.0795 85.4564 24.0795C86.7155 24.0795 87.6927 23.1084 87.6927 21.8402ZM99.7716 26.1161H95.0714V22.2319H91.576V26.1161H89.0714V29.2449H91.576V34.3028C91.576 37.6877 93.2232 39.5223 96.4365 39.5223C98.2848 39.5223 99.5976 38.9286 100.736 38.1465L99.4501 35.395C98.7401 35.8264 97.8431 36.2448 97.0128 36.2448C95.9283 36.2448 95.0714 35.6511 95.0714 34.0193V29.2449H99.7716V26.1161ZM105.128 31.4164C105.436 29.7982 106.4 28.7998 108.047 28.7998C109.547 28.7998 110.551 29.7441 110.873 31.4164H105.128ZM114.382 32.6305C114.369 28.5574 111.811 25.7654 108.075 25.7654C104.191 25.7654 101.513 28.571 101.513 32.6846C101.513 36.7975 104.272 39.5223 108.249 39.5223C110.432 39.5223 112.306 38.9019 113.78 37.5391L111.731 35.2738C110.793 36.0695 109.575 36.5277 108.45 36.5277C106.802 36.5277 105.49 35.7052 105.115 33.8173H114.315C114.354 33.5207 114.382 33.0352 114.382 32.6305ZM119.47 32.6435C119.47 30.6473 120.77 29.0429 122.819 29.0429C124.814 29.0429 126.166 30.5802 126.166 32.6435C126.166 34.7075 124.814 36.2448 122.819 36.2448C120.77 36.2448 119.47 34.6397 119.47 32.6435ZM125.992 27.4781C125.148 26.453 123.916 25.7654 122.176 25.7654C118.601 25.7654 115.896 28.719 115.896 32.6435C115.896 36.5681 118.601 39.5223 122.176 39.5223C123.957 39.5223 125.216 38.7937 126.06 37.7418V39.1847H129.474V19.7639H125.992V27.4781ZM137.081 36.892C137.081 35.4895 135.876 34.2891 134.496 34.2891C133.103 34.2891 131.886 35.4895 131.886 36.892C131.886 38.3081 133.103 39.5223 134.496 39.5223C135.876 39.5223 137.081 38.3081 137.081 36.892ZM150.794 28.2334C149.602 26.6557 147.767 25.7654 145.598 25.7654C141.46 25.7654 138.688 28.6923 138.688 32.6435C138.688 36.6085 141.46 39.5223 145.598 39.5223C147.767 39.5223 149.589 38.6457 150.807 37.0673L148.316 34.9232C147.58 35.7326 146.615 36.2448 145.491 36.2448C143.683 36.2448 142.25 34.8287 142.25 32.6435C142.25 30.4727 143.696 29.0429 145.504 29.0429C146.643 29.0429 147.486 29.5017 148.276 30.3508L150.794 28.2334ZM156.3 19.6475H152.804V39.0683H156.3V19.6475ZM162.172 32.5785C162.172 30.4611 163.645 28.9778 165.614 28.9778C167.582 28.9778 169.069 30.4611 169.069 32.5785C169.069 34.6958 167.582 36.1791 165.614 36.1791C163.645 36.1791 162.172 34.6958 162.172 32.5785ZM172.644 32.5785C172.644 28.6402 169.658 25.7004 165.614 25.7004C161.583 25.7004 158.61 28.6402 158.61 32.5785C158.61 36.5167 161.583 39.4565 165.614 39.4565C169.658 39.4565 172.644 36.5167 172.644 32.5785ZM187.198 26.051H183.716V33.2393C183.716 35.33 182.565 36.1791 181.065 36.1791C179.552 36.1791 178.414 35.33 178.414 33.2393V26.051H174.918V33.5495C174.918 37.6761 177.811 39.4565 181.065 39.4565C184.306 39.4565 187.198 37.6761 187.198 33.5495V26.051ZM192.997 32.5785C192.997 30.5823 194.296 28.9778 196.345 28.9778C198.34 28.9778 199.692 30.5152 199.692 32.5785C199.692 34.6424 198.34 36.1798 196.345 36.1798C194.296 36.1798 192.997 34.5746 192.997 32.5785ZM199.518 27.4131C198.674 26.3879 197.442 25.7004 195.702 25.7004C192.127 25.7004 189.422 28.6539 189.422 32.5785C189.422 36.503 192.127 39.4572 195.702 39.4572C197.482 39.4572 198.742 38.7286 199.586 37.6768V39.1196H203V19.6989H199.518V27.4131Z" fill="#6C7993"/>
<mask id="mask0_6070_15944" style="mask-type:luminance" maskUnits="userSpaceOnUse" x="0" y="11" width="41" height="41">
<path d="M8.25056 27.2509L1.06886 24.8116C2.26955 21.2253 4.43378 18.0383 7.32643 15.5977C10.2551 13.1277 13.7947 11.5376 17.5652 11L18.6273 18.5588C16.2606 18.8964 14.0366 19.8962 12.1937 21.45C10.3693 22.9894 9.00549 24.9951 8.25056 27.2509ZM20.4545 52C31.7336 52 40.9097 42.758 40.9097 31.398H33.3298C33.3298 38.5486 27.554 44.3652 20.4545 44.3652C13.355 44.3652 7.57921 38.5486 7.57921 31.398C7.57921 31.2288 7.58329 31.0576 7.58872 30.8878L0.0149491 30.5968C0.00475655 30.8625 0 31.1323 0 31.398C0 42.758 9.17537 52 20.4545 52ZM33.8747 15.849C30.8897 13.2338 27.2482 11.5574 23.3444 11L22.2817 18.5588C24.7327 18.9087 27.0219 19.9633 28.9001 21.6088L33.8747 15.849Z" fill="white"/>
</mask>
<g mask="url(#mask0_6070_15944)">
<path d="M41.2544 11H-0.347656V52H41.2544V11Z" fill="#6C7993"/>
</g>
</svg>
