<svg width="64" height="64" viewBox="0 0 64 64" fill="none" xmlns="http://www.w3.org/2000/svg">
<rect x="9.0354" y="13.553" width="48.1882" height="36.8941" fill="white"/>
<path fill-rule="evenodd" clip-rule="evenodd" d="M10.7995 19.4666C11.1457 36.1067 19.4651 46.1064 34.0517 46.1064H34.8779V36.5851C40.2379 37.1186 44.291 41.0381 45.9174 46.1064H53.4908C51.4104 38.5335 45.9442 34.3465 42.5308 32.7467C45.9442 30.7733 50.7439 25.9733 51.888 19.4666H45.011C43.5159 24.7465 39.0915 29.5465 34.8779 29.9998V19.4666H27.9985V37.9197C23.7322 36.8535 18.3454 31.6797 18.1054 19.4666H10.7995ZM4.49842 4.49859C0 8.99796 0 16.2388 0 30.7197V33.2802C0 47.7588 0 55.002 4.49842 59.5006C8.99684 63.9992 16.2374 64 30.7218 64H33.2814C47.7594 64 54.9984 64 59.5016 59.5006C64.0047 55.0013 64 47.7612 64 33.2802V30.7197C64 16.2412 64 9.00189 59.5016 4.49859C55.0032 -0.00472138 47.7594 2.06721e-08 33.2782 2.06721e-08H30.7218C16.2374 2.06721e-08 8.99684 0 4.49842 4.49859Z" fill="#6C7993"/>
</svg>
