<?xml version="1.0" encoding="UTF-8"?>
<svg version="1.1" xmlns="http://www.w3.org/2000/svg" width="200" height="251">
<path d="M0 0 C4.47771591 3.27637749 8.08001841 7.10702803 9.34375 12.66015625 C13.04915681 50.17740023 -15.12939251 87.62798445 -37.10058594 115.18847656 C-38.36260204 116.78051586 -39.60764668 118.3859661 -40.8515625 119.9921875 C-41.91503906 121.35730469 -41.91503906 121.35730469 -43 122.75 C-43.62003906 123.55179687 -44.24007812 124.35359375 -44.87890625 125.1796875 C-45.39324219 125.73914063 -45.90757812 126.29859375 -46.4375 126.875 C-47.0975 126.875 -47.7575 126.875 -48.4375 126.875 C-48.68371094 127.44573242 -48.92992187 128.01646484 -49.18359375 128.60449219 C-50.64648997 131.2534281 -52.36395319 133.06048546 -54.5 135.203125 C-55.69496094 136.40195312 -55.69496094 136.40195312 -56.9140625 137.625 C-57.74679688 138.45 -58.57953125 139.275 -59.4375 140.125 C-60.27023438 140.96546875 -61.10296875 141.8059375 -61.9609375 142.671875 C-62.75757812 143.4659375 -63.55421875 144.26 -64.375 145.078125 C-65.10589844 145.80676758 -65.83679688 146.53541016 -66.58984375 147.28613281 C-68.4375 148.875 -68.4375 148.875 -70.4375 148.875 C-70.4375 149.535 -70.4375 150.195 -70.4375 150.875 C-73.87970284 154.13455534 -77.68320451 156.98462223 -81.4375 159.875 C-82.23196533 160.48770752 -82.23196533 160.48770752 -83.04248047 161.11279297 C-96.59700343 171.44415973 -111.11162992 179.83904294 -127.4375 184.875 C-128.4275 185.205 -129.4175 185.535 -130.4375 185.875 C-132.70513574 186.02148082 -134.97782366 186.0959626 -137.25 186.125 C-139.05404297 186.16367187 -139.05404297 186.16367187 -140.89453125 186.203125 C-145.42783168 185.7832824 -148.67069998 184.44875299 -152.08203125 181.41015625 C-157.19333521 174.96546865 -157.05864476 168.88776736 -156.4375 160.875 C-152.68338994 139.18709913 -141.70414895 120.04017996 -131.203125 101 C-130.66840576 100.02828857 -130.13368652 99.05657715 -129.58276367 98.05541992 C-128.56052924 96.20316204 -127.53244929 94.3541127 -126.49731445 92.5090332 C-118.77984976 78.57651419 -113.51176468 64.43412818 -117.5625 48.375 C-119.1742745 43.65480324 -121.27638432 41.56238721 -125.4375 38.875 C-130.67860896 37.12796368 -134.98504427 37.38264212 -140.125 39.125 C-143.25028571 40.77609434 -145.72680819 42.62899822 -148.4375 44.875 C-149.0975 44.875 -149.7575 44.875 -150.4375 44.875 C-150.4375 45.535 -150.4375 46.195 -150.4375 46.875 C-151.0975 46.875 -151.7575 46.875 -152.4375 46.875 C-152.68757813 47.40222656 -152.93765625 47.92945313 -153.1953125 48.47265625 C-154.44852447 50.89632092 -155.84135107 53.20995511 -157.25537109 55.54223633 C-168.78160833 74.84402529 -170.74099597 96.78825783 -165.359375 118.43359375 C-165.05515625 119.56925781 -164.7509375 120.70492187 -164.4375 121.875 C-165.0975 121.875 -165.7575 121.875 -166.4375 121.875 C-169.62582887 116.10438825 -171.29063041 111.13541272 -172.1875 104.625 C-172.36962036 103.37058105 -172.36962036 103.37058105 -172.55541992 102.09082031 C-175.62623113 79.71128419 -171.39273234 55.56207562 -158.04345703 36.92919922 C-143.09243503 17.67821386 -122.95840747 3.9907692 -98.59765625 0.34765625 C-80.53153801 -1.9111443 -63.60828089 0.81881501 -47.2578125 8.80078125 C-44.15254755 9.98353452 -43.41802449 10.14510987 -40.4375 8.875 C-38.04488773 7.7772132 -35.67806026 6.65269563 -33.3125 5.5 C-22.63901111 0.452926 -11.85810484 -3.88083431 0 0 Z M-34.4375 14.875 C-33.18232855 18.64051435 -31.56848435 19.55812979 -28.4375 21.9375 C-23.53738519 25.67522962 -23.53738519 25.67522962 -22.4375 27.875 C-21.7775 27.875 -21.1175 27.875 -20.4375 27.875 C-20.06625 28.7103125 -20.06625 28.7103125 -19.6875 29.5625 C-18.22143985 32.27471127 -16.40760529 34.51087365 -14.4375 36.875 C-13.4475 36.545 -12.4575 36.215 -11.4375 35.875 C-8.33500333 29.45787013 -6.20264988 20.99692627 -7.4375 13.875 C-9.27083333 10.70833333 -9.27083333 10.70833333 -12.4375 8.875 C-20.22438051 7.66669096 -27.9655828 10.56038853 -34.4375 14.875 Z " fill="#014D9D" transform="translate(182.4375,9.125)"/>
<path d="M0 0 C0.99 0.495 0.99 0.495 2 1 C2.65137255 22.88611764 0.82722165 39.74973791 -10 59 C-10.44859375 59.82886719 -10.8971875 60.65773437 -11.359375 61.51171875 C-23.39420452 81.60691248 -44.99184677 94.00902915 -67 100 C-71.35953139 100.76792621 -75.51491243 101.11709985 -79.9375 101.0625 C-81.37416016 101.04896484 -81.37416016 101.04896484 -82.83984375 101.03515625 C-83.55269531 101.02355469 -84.26554687 101.01195312 -85 101 C-84 98 -84 98 -81.98828125 96.74609375 C-80.66376953 96.09833984 -80.66376953 96.09833984 -79.3125 95.4375 C-47.06465731 78.53979773 -18.31564377 46.76914046 -5 13 C-4.11157203 10.06135362 -3.32410858 7.13696258 -2.640625 4.14453125 C-2 2 -2 2 0 0 Z " fill="#044D9C" transform="translate(182,83)"/>
<path d="M0 0 C3.52545864 0.20630911 6.12628912 0.47324806 8.9140625 2.76171875 C10.72838846 4.86497718 12.3966323 7.04997565 14.08203125 9.2578125 C15.71346193 11.10397403 17.35955397 12.93727579 19.01953125 14.7578125 C19.79167969 15.61375 20.56382813 16.4696875 21.359375 17.3515625 C21.92785156 17.980625 22.49632813 18.6096875 23.08203125 19.2578125 C24.59941778 16.22303944 24.14412656 13.07991158 24.08203125 9.7578125 C23.94689611 2.52808277 23.94689611 2.52808277 25.08203125 0.2578125 C27.95703125 0.1328125 27.95703125 0.1328125 31.08203125 0.2578125 C33.87822257 3.05400382 33.34025514 4.81665963 33.34765625 8.7265625 C33.35152344 10.66595703 33.35152344 10.66595703 33.35546875 12.64453125 C33.34918457 13.65652588 33.34918457 13.65652588 33.34277344 14.68896484 C33.33207195 16.74997407 33.34267068 18.81011169 33.35546875 20.87109375 C33.35289063 22.16402344 33.3503125 23.45695312 33.34765625 24.7890625 C33.34540039 25.98080078 33.34314453 27.17253906 33.34082031 28.40039062 C33.08203125 31.2578125 33.08203125 31.2578125 31.08203125 33.2578125 C27.89453125 33.8203125 27.89453125 33.8203125 24.08203125 33.2578125 C21.3650063 31.241106 19.10281977 28.97267124 17.08203125 26.2578125 C17.08203125 25.5978125 17.08203125 24.9378125 17.08203125 24.2578125 C16.42203125 24.2578125 15.76203125 24.2578125 15.08203125 24.2578125 C13.42578125 22.578125 13.42578125 22.578125 11.58203125 20.3828125 C9.79269867 18.26745746 8.04184001 16.21762126 6.08203125 14.2578125 C6.03304687 15.21042969 5.9840625 16.16304687 5.93359375 17.14453125 C5.85882813 18.39878906 5.7840625 19.65304688 5.70703125 20.9453125 C5.63742188 22.18667969 5.5678125 23.42804688 5.49609375 24.70703125 C5.11781031 27.95099022 4.46223149 30.32348435 3.08203125 33.2578125 C0.70703125 33.3828125 0.70703125 33.3828125 -1.91796875 33.2578125 C-4.71416007 30.46162118 -4.17619264 28.69896537 -4.18359375 24.7890625 C-4.18617187 23.49613281 -4.18875 22.20320313 -4.19140625 20.87109375 C-4.1872168 20.19643066 -4.18302734 19.52176758 -4.17871094 18.82666016 C-4.16800945 16.76565093 -4.17860818 14.70551331 -4.19140625 12.64453125 C-4.18882813 11.35160156 -4.18625 10.05867187 -4.18359375 8.7265625 C-4.18133789 7.53482422 -4.17908203 6.34308594 -4.17675781 5.11523438 C-3.88276119 1.86906789 -3.40517975 0.45772274 0 0 Z " fill="#0B4A92" transform="translate(62.91796875,209.7421875)"/>
<path d="M0 0 C0.66 0.33 1.32 0.66 2 1 C1.21625 1.5775 0.4325 2.155 -0.375 2.75 C-2.81042086 4.83750359 -4.02960009 5.99176026 -5 9 C-4.67 9.99 -4.34 10.98 -4 12 C-3.32811503 14.33183607 -2.66084583 16.66501142 -2 19 C-0.824375 18.443125 0.35125 17.88625 1.5625 17.3125 C5.07168197 16.00042491 5.82628813 15.94908445 9.625 17.0625 C12.87067821 18.92575971 15.94665362 20.84031597 19 23 C18.505 24.485 18.505 24.485 18 26 C17.236875 25.360625 16.47375 24.72125 15.6875 24.0625 C11.37249238 20.75098253 7.28829104 20.45461455 2 21 C-2.78872153 22.62329543 -6.13543242 24.79792972 -10 28 C-10.66 28 -11.32 28 -12 28 C-12 28.66 -12 29.32 -12 30 C-12.66 30 -13.32 30 -14 30 C-14.25007813 30.52722656 -14.50015625 31.05445312 -14.7578125 31.59765625 C-16.01102447 34.02132092 -17.40385107 36.33495511 -18.81787109 38.66723633 C-30.34410833 57.96902529 -32.30349597 79.91325783 -26.921875 101.55859375 C-26.61765625 102.69425781 -26.3134375 103.82992187 -26 105 C-26.66 105 -27.32 105 -28 105 C-31.18832887 99.22938825 -32.85313041 94.26041272 -33.75 87.75 C-33.93212036 86.49558105 -33.93212036 86.49558105 -34.11791992 85.21582031 C-37.18873113 62.83628419 -32.95523234 38.68707562 -19.60595703 20.05419922 C-13.83027778 12.61741552 -7.30900008 5.94317683 0 0 Z " fill="#0A4993" transform="translate(44,26)"/>
<path d="M0 0 C1.13308594 -0.02900391 2.26617187 -0.05800781 3.43359375 -0.08789062 C14.12659412 -0.16937304 14.12659412 -0.16937304 18.75 4.3125 C20.67827831 7.77651426 20.97447118 11.21508533 20.1875 15.0625 C18.3214843 17.98322022 16.72637678 19.5007924 13.75 21.3125 C7.46522104 22.6127991 1.1482249 22.41835299 -5.25 22.3125 C-5.23839844 23.02277344 -5.22679688 23.73304688 -5.21484375 24.46484375 C-5.20130859 25.84349609 -5.20130859 25.84349609 -5.1875 27.25 C-5.17589844 28.16652344 -5.16429688 29.08304688 -5.15234375 30.02734375 C-5.25 32.3125 -5.25 32.3125 -6.25 33.3125 C-8.24958364 33.35330783 -10.25045254 33.35504356 -12.25 33.3125 C-14.10725751 29.36341786 -14.48651489 26.26482103 -14.4453125 21.91796875 C-14.43886719 20.71591797 -14.43242188 19.51386719 -14.42578125 18.27539062 C-14.40902344 17.02951172 -14.39226562 15.78363281 -14.375 14.5 C-14.36597656 13.23478516 -14.35695313 11.96957031 -14.34765625 10.66601562 C-14.32412394 7.54798436 -14.29124545 4.43033903 -14.25 1.3125 C-10.05719275 -0.78390363 -4.60674244 0.03877729 0 0 Z M-5.25 8.3125 C-5.25 10.2925 -5.25 12.2725 -5.25 14.3125 C0.03 14.3125 5.31 14.3125 10.75 14.3125 C11.08 12.6625 11.41 11.0125 11.75 9.3125 C5.9864368 6.66437637 0.84067424 7.5105251 -5.25 8.3125 Z " fill="#074B98" transform="translate(130.25,209.6875)"/>
<path d="M0 0 C3.25 -0.3125 3.25 -0.3125 7 0 C10.93491986 3.93491986 12.98711636 8.81474073 15.25 13.8125 C16.4875 16.514375 17.725 19.21625 19 22 C22.96 14.74 26.92 7.48 31 0 C32.98 0 34.96 0 37 0 C37.66 0.99 38.32 1.98 39 3 C37.06847071 6.794089 35.12940719 10.58420008 33.18334961 14.37084961 C32.52274868 15.65885137 31.86419751 16.94790661 31.20776367 18.23803711 C30.26240802 20.09511351 29.30968108 21.94824328 28.35546875 23.80078125 C27.78465576 24.91622314 27.21384277 26.03166504 26.62573242 27.1809082 C24.22300103 31.34735051 24.22300103 31.34735051 22 33 C18.55859375 33.10546875 18.55859375 33.10546875 15 32 C13.27105046 29.68113664 12.21675681 27.89624719 11.0625 25.3125 C10.40115909 23.9478964 9.73701969 22.58464608 9.0703125 21.22265625 C8.73547852 20.52414551 8.40064453 19.82563477 8.05566406 19.10595703 C5.76370109 14.53369233 3.01339238 10.20365166 0.37109375 5.828125 C-1 3 -1 3 0 0 Z " fill="#15447E" transform="translate(7,210)"/>
<path d="M0 0 C1.39120471 0.00015906 2.78241534 0.00585033 4.17358398 0.01586914 C4.90463852 0.01728409 5.63569305 0.01869904 6.38890076 0.02015686 C8.73253406 0.02577131 11.07607313 0.03832617 13.41967773 0.05102539 C15.00496282 0.05603853 16.59024939 0.06060176 18.17553711 0.06469727 C22.06945383 0.07574542 25.96329979 0.09301967 29.85717773 0.11352539 C29.85717773 2.42352539 29.85717773 4.73352539 29.85717773 7.11352539 C27.21259395 8.43581729 25.17956472 8.21029733 22.23217773 8.17602539 C21.22928711 8.16700195 20.22639648 8.15797852 19.19311523 8.14868164 C18.42225586 8.13708008 17.65139648 8.12547852 16.85717773 8.11352539 C16.86503296 9.19621704 16.86503296 9.19621704 16.87304688 10.30078125 C16.89375131 13.55085388 16.90681692 16.80091267 16.91967773 20.05102539 C16.92805664 21.18733398 16.93643555 22.32364258 16.94506836 23.49438477 C16.94990234 25.11376953 16.94990234 25.11376953 16.95483398 26.76586914 C16.96268921 28.26621704 16.96268921 28.26621704 16.97070312 29.796875 C16.85717773 32.11352539 16.85717773 32.11352539 15.85717773 33.11352539 C12.85717773 33.23852539 12.85717773 33.23852539 9.85717773 33.11352539 C8.85717773 32.11352539 8.85717773 32.11352539 8.74365234 29.796875 C8.74888916 28.79664307 8.75412598 27.79641113 8.75952148 26.76586914 C8.76274414 25.6862793 8.7659668 24.60668945 8.76928711 23.49438477 C8.77766602 22.35807617 8.78604492 21.22176758 8.79467773 20.05102539 C8.79918945 18.91084961 8.80370117 17.77067383 8.80834961 16.59594727 C8.82018026 13.76842188 8.83666364 10.94099899 8.85717773 8.11352539 C8.08631836 8.12512695 7.31545898 8.13672852 6.52124023 8.14868164 C5.0169043 8.1622168 5.0169043 8.1622168 3.48217773 8.17602539 C2.48444336 8.18762695 1.48670898 8.19922852 0.45874023 8.21118164 C-2.14282227 8.11352539 -2.14282227 8.11352539 -4.14282227 7.11352539 C-4.18536583 5.11397793 -4.18363009 3.11310903 -4.14282227 1.11352539 C-3.14282227 0.11352539 -3.14282227 0.11352539 0 0 Z " fill="#044C9A" transform="translate(164.142822265625,209.886474609375)"/>
<path d="M0 0 C4.55089174 3.32992079 7.20148135 6.15321874 8.375 11.75 C8.436875 12.78125 8.49875 13.8125 8.5625 14.875 C5.92358519 12.5879405 4.66165247 11.19889807 3.625 7.8125 C2.27397935 4.07732527 1.11021274 3.54105294 -2.4375 1.875 C-5.56103789 1.51487667 -5.56103789 1.51487667 -8.75 1.6875 C-9.81863281 1.71457031 -10.88726562 1.74164063 -11.98828125 1.76953125 C-12.79652344 1.80433594 -13.60476562 1.83914063 -14.4375 1.875 C-15.0975 3.195 -15.7575 4.515 -16.4375 5.875 C-15.79941406 6.06835938 -15.16132813 6.26171875 -14.50390625 6.4609375 C-13.67761719 6.72132812 -12.85132813 6.98171875 -12 7.25 C-11.17628906 7.50523438 -10.35257813 7.76046875 -9.50390625 8.0234375 C-7.4375 8.875 -7.4375 8.875 -6.4375 10.875 C-5.71452347 21.36408573 -5.99243562 31.14128239 -10.4375 40.875 C-11.4275 41.37 -11.4275 41.37 -12.4375 41.875 C-12.7675 41.215 -13.0975 40.555 -13.4375 39.875 C-14.015 39.648125 -14.5925 39.42125 -15.1875 39.1875 C-18.53727434 37.23346497 -20.59657128 34.26261063 -22.4375 30.875 C-22.4375 29.885 -22.4375 28.895 -22.4375 27.875 C-23.05625 27.730625 -23.675 27.58625 -24.3125 27.4375 C-26.4375 26.875 -26.4375 26.875 -28.4375 25.875 C-28.7675 24.885 -29.0975 23.895 -29.4375 22.875 C-30.241875 22.42125 -31.04625 21.9675 -31.875 21.5 C-34.91859478 19.56991551 -35.57408798 18.32864807 -36.4375 14.875 C-36.1075 13.885 -35.7775 12.895 -35.4375 11.875 C-34.1175 11.875 -32.7975 11.875 -31.4375 11.875 C-31.4375 11.215 -31.4375 10.555 -31.4375 9.875 C-30.2 9.441875 -28.9625 9.00875 -27.6875 8.5625 C-24.52153441 7.38368303 -22.00628575 6.12268753 -19.4375 3.875 C-20.85555831 4.15982368 -22.27190379 4.45318144 -23.6875 4.75 C-24.87085938 4.99363281 -24.87085938 4.99363281 -26.078125 5.2421875 C-29.23091288 6.08780279 -31.61660065 7.034607 -33.91796875 9.390625 C-36.76112941 12.16800559 -40.62344168 13.05121529 -44.4375 13.875 C-48 13.5625 -48 13.5625 -50.4375 12.875 C-49.4475 12.545 -48.4575 12.215 -47.4375 11.875 C-48.571875 11.441875 -49.70625 11.00875 -50.875 10.5625 C-52.050625 10.005625 -53.22625 9.44875 -54.4375 8.875 C-54.7675 7.885 -55.0975 6.895 -55.4375 5.875 C-54.54998047 6.18244141 -54.54998047 6.18244141 -53.64453125 6.49609375 C-52.85433594 6.76550781 -52.06414062 7.03492188 -51.25 7.3125 C-50.08404297 7.71275391 -50.08404297 7.71275391 -48.89453125 8.12109375 C-47.67830078 8.49427734 -47.67830078 8.49427734 -46.4375 8.875 C-45.67179688 9.14957031 -44.90609375 9.42414062 -44.1171875 9.70703125 C-40.07769277 9.96023573 -37.17986052 8.02381744 -33.75 6.125 C-23.02843963 0.5142604 -12.19034602 -3.98956779 0 0 Z M-34.4375 14.875 C-33.18232855 18.64051435 -31.56848435 19.55812979 -28.4375 21.9375 C-23.53738519 25.67522962 -23.53738519 25.67522962 -22.4375 27.875 C-21.7775 27.875 -21.1175 27.875 -20.4375 27.875 C-20.06625 28.7103125 -20.06625 28.7103125 -19.6875 29.5625 C-18.22143985 32.27471127 -16.40760529 34.51087365 -14.4375 36.875 C-13.4475 36.545 -12.4575 36.215 -11.4375 35.875 C-8.33500333 29.45787013 -6.20264988 20.99692627 -7.4375 13.875 C-9.27083333 10.70833333 -9.27083333 10.70833333 -12.4375 8.875 C-20.22438051 7.66669096 -27.9655828 10.56038853 -34.4375 14.875 Z " fill="#0F4183" transform="translate(182.4375,9.125)"/>
<path d="M0 0 C0 3 0 3 -1.28173828 4.65405273 C-1.87196777 5.24130127 -2.46219727 5.8285498 -3.0703125 6.43359375 C-3.72 7.08263672 -4.3696875 7.73167969 -5.0390625 8.40039062 C-5.72742188 9.07263672 -6.41578125 9.74488281 -7.125 10.4375 C-7.79015625 11.10587891 -8.4553125 11.77425781 -9.140625 12.46289062 C-12.88359598 16.16549623 -16.58142059 19.15853403 -21 22 C-22.38868516 24.10039331 -22.38868516 24.10039331 -23 26 C-22.67 26.33 -22.34 26.66 -22 27 C-21.525625 27.495 -21.05125 27.99 -20.5625 28.5 C-19.05403788 30.09664984 -19.05403788 30.09664984 -17 31 C-16.67 30.34 -16.34 29.68 -16 29 C-14.3158102 28.24046342 -12.62750502 27.48789297 -10.9140625 26.796875 C-9.13323996 26.05547133 -7.40630764 25.18811899 -5.6875 24.3125 C-3 23 -3 23 -1 23 C-1 22.34 -1 21.68 -1 21 C1.64738916 19.5393715 2.89448334 19 6 19 C6.2475 18.236875 6.495 17.47375 6.75 16.6875 C8.12130672 13.73919055 9.2351079 12.64165468 12 11 C12.66 11 13.32 11 14 11 C14.33 10.34 14.66 9.68 15 9 C13.81498153 15.87010707 6.80010529 20.57504427 1.40625 24.46484375 C-11.67294521 32.80920044 -27.27276226 39.25589182 -42.9375 39.0625 C-43.89527344 39.05347656 -44.85304688 39.04445312 -45.83984375 39.03515625 C-46.55269531 39.02355469 -47.26554687 39.01195312 -48 39 C-47 36 -47 36 -44.98828125 34.74609375 C-44.10527344 34.31425781 -43.22226563 33.88242188 -42.3125 33.4375 C-26.30146535 25.04780091 -12.49085452 12.9257392 0 0 Z " fill="#064C9A" transform="translate(145,145)"/>
<path d="M0 0 C1.0703125 1.78125 1.0703125 1.78125 2 4 C0.83804888 7.61495904 -0.15821253 10.23713011 -3 12.8125 C-5.71002171 15.77658625 -6.25857129 18.80714227 -7.19140625 22.66015625 C-8.09624402 25.27850324 -9.06825989 26.06825989 -11 28 C-12.29535052 30.38266831 -13.51493388 32.74689786 -14.6875 35.1875 C-15.00783203 35.84169922 -15.32816406 36.49589844 -15.65820312 37.16992188 C-16.44428292 38.77727907 -17.22288683 40.38828858 -18 42 C-18.66 42 -19.32 42 -20 42 C-20.12117188 42.81082031 -20.24234375 43.62164062 -20.3671875 44.45703125 C-21.20153861 49.97016664 -22.06913215 55.46207098 -23.125 60.9375 C-24.04280126 65.90229893 -24.62208258 70.13375226 -23 75 C-22.64763503 76.99673484 -22.31165441 78.99650739 -22 81 C-20.68 81.33 -19.36 81.66 -18 82 C-18 82.66 -18 83.32 -18 84 C-6.91437075 87.24520763 2.8833804 83.59428545 13.03515625 79.21875 C16 78 16 78 19.30859375 76.96875 C22.13744956 76.30019466 22.13744956 76.30019466 23 74 C24.6635479 73.32558869 26.33066942 72.6599679 28 72 C28.9590625 71.2265625 28.9590625 71.2265625 29.9375 70.4375 C32.56341194 68.60731895 34.85539725 68.35734122 38 68 C34.46167793 72.05315729 30.27740412 74.37826377 25.625 76.9375 C24.83150146 77.37698975 24.03800293 77.81647949 23.22045898 78.26928711 C16.36283746 81.97687136 9.45687496 84.69981619 2 87 C0.515 87.495 0.515 87.495 -1 88 C-3.26763574 88.14648082 -5.54032366 88.2209626 -7.8125 88.25 C-9.01519531 88.27578125 -10.21789062 88.3015625 -11.45703125 88.328125 C-15.99033168 87.9082824 -19.23319998 86.57375299 -22.64453125 83.53515625 C-27.75583521 77.09046865 -27.62114476 71.01276736 -27 63 C-23.0501722 40.18141653 -11.16314471 19.95269038 0 0 Z " fill="#164585" transform="translate(53,107)"/>
<path d="M0 0 C2.875 -0.1875 2.875 -0.1875 6 0 C6.66 0.99 7.32 1.98 8 3 C6.39045597 6.3727449 4.73110216 9.71863015 3.0625 13.0625 C2.38864258 14.47692383 2.38864258 14.47692383 1.70117188 15.91992188 C-1.57955056 22.41348972 -5.37625588 27.60800518 -12 31 C-15 30 -15 30 -16.6875 27.625 C-18 25 -18 25 -18 22 C-16.68 22 -15.36 22 -14 22 C-14 22.66 -14 23.32 -14 24 C-12.68 24 -11.36 24 -10 24 C-9.86464844 23.35675781 -9.72929687 22.71351563 -9.58984375 22.05078125 C-7.636012 13.84936773 -4.20358175 7.2439806 0 0 Z " fill="#0B468E" transform="translate(38,210)"/>
<path d="M0 0 C0.99 0 1.98 0 3 0 C1.43903552 3.54314159 -0.70671541 6.22849188 -3.1875 9.1875 C-6.78788454 13.50796144 -10.24235146 17.89924985 -13.58984375 22.41796875 C-14.05519531 22.94003906 -14.52054688 23.46210938 -15 24 C-15.66 24 -16.32 24 -17 24 C-17.24621094 24.57073242 -17.49242187 25.14146484 -17.74609375 25.72949219 C-19.20898997 28.3784281 -20.92645319 30.18548546 -23.0625 32.328125 C-23.85914063 33.12734375 -24.65578125 33.9265625 -25.4765625 34.75 C-26.30929688 35.575 -27.14203125 36.4 -28 37.25 C-28.83273438 38.09046875 -29.66546875 38.9309375 -30.5234375 39.796875 C-31.32007812 40.5909375 -32.11671875 41.385 -32.9375 42.203125 C-33.66839844 42.93176758 -34.39929688 43.66041016 -35.15234375 44.41113281 C-37 46 -37 46 -39 46 C-39 46.66 -39 47.32 -39 48 C-40.61048394 49.48022421 -42.29102118 50.88467453 -44 52.25 C-45.49466797 53.44689453 -45.49466797 53.44689453 -47.01953125 54.66796875 C-50.63994409 57.50071641 -54.2882731 60.28799324 -58 63 C-58.66 62.67 -59.32 62.34 -60 62 C-59.2575 61.278125 -58.515 60.55625 -57.75 59.8125 C-55.0127891 57.12821077 -55.0127891 57.12821077 -53 54.375 C-51 52 -51 52 -48.4375 50.5 C-45.81275479 49.16630167 -45.81275479 49.16630167 -44.625 46.4375 C-42.35131257 43.02696885 -39.85149187 43.05040687 -36 42 C-34.87483915 40.16715557 -34.87483915 40.16715557 -34 38 C-32.989375 37.195625 -31.97875 36.39125 -30.9375 35.5625 C-27.82306443 33.2976474 -27.82306443 33.2976474 -27.125 30.1875 C-27.08375 29.465625 -27.0425 28.74375 -27 28 C-26.05125 27.938125 -25.1025 27.87625 -24.125 27.8125 C-23.09375 27.544375 -22.0625 27.27625 -21 27 C-19.86454438 24.70465742 -19.86454438 24.70465742 -19 22 C-17.37446717 20.29319053 -15.70884005 18.62339805 -14 17 C-13.34 16.01 -12.68 15.02 -12 14 C-11.34 14 -10.68 14 -10 14 C-10 12.68 -10 11.36 -10 10 C-8.70264493 8.95374591 -7.36733028 7.95298777 -6 7 C-5.67 6.01 -5.34 5.02 -5 4 C-4.01 4.33 -3.02 4.66 -2 5 C-1.67 4.01 -1.34 3.02 -1 2 C-0.67 1.34 -0.34 0.68 0 0 Z " fill="#134482" transform="translate(151,112)"/>
<path d="M0 0 C1.12148437 0.00322266 2.24296875 0.00644531 3.3984375 0.00976562 C4.5740625 0.01814453 5.7496875 0.02652344 6.9609375 0.03515625 C8.14429688 0.03966797 9.32765625 0.04417969 10.546875 0.04882812 C13.47661257 0.06064158 16.40625022 0.07711367 19.3359375 0.09765625 C19.3359375 0.42765625 19.3359375 0.75765625 19.3359375 1.09765625 C7.4559375 2.08765625 7.4559375 2.08765625 -4.6640625 3.09765625 C-4.3340625 12.00765625 -4.0040625 20.91765625 -3.6640625 30.09765625 C-3.0040625 30.42765625 -2.3440625 30.75765625 -1.6640625 31.09765625 C-1.3340625 27.46765625 -1.0040625 23.83765625 -0.6640625 20.09765625 C2.5646344 19.29048202 4.35194817 19.02728876 7.5234375 19.16015625 C12.27415992 19.21521429 16.82574077 18.64237479 21.3359375 17.09765625 C23.57918586 15.28572619 23.57918586 15.28572619 23.53125 12.71484375 C23.50804687 11.80992187 23.48484375 10.905 23.4609375 9.97265625 C23.44289062 9.06257812 23.42484375 8.1525 23.40625 7.21484375 C23.38304687 6.51617187 23.35984375 5.8175 23.3359375 5.09765625 C22.6759375 5.09765625 22.0159375 5.09765625 21.3359375 5.09765625 C21.0059375 3.77765625 20.6759375 2.45765625 20.3359375 1.09765625 C23.03961557 2.23604702 24.90394912 3.17793905 26.18359375 5.90234375 C27.11226207 9.16190804 27.45768869 11.5024282 26.7734375 14.84765625 C24.9074218 17.76837647 23.31231428 19.28594865 20.3359375 21.09765625 C14.05115854 22.39795535 7.7341624 22.20350924 1.3359375 22.09765625 C1.34753906 22.80792969 1.35914062 23.51820313 1.37109375 24.25 C1.38462891 25.62865234 1.38462891 25.62865234 1.3984375 27.03515625 C1.41003906 27.95167969 1.42164062 28.86820313 1.43359375 29.8125 C1.3359375 32.09765625 1.3359375 32.09765625 0.3359375 33.09765625 C-1.66364614 33.13846408 -3.66451504 33.14019981 -5.6640625 33.09765625 C-7.52132001 29.14857411 -7.90057739 26.04997728 -7.859375 21.703125 C-7.85292969 20.50107422 -7.84648438 19.29902344 -7.83984375 18.06054688 C-7.82308594 16.81466797 -7.80632812 15.56878906 -7.7890625 14.28515625 C-7.78003906 13.01994141 -7.77101563 11.75472656 -7.76171875 10.45117188 C-7.73818644 7.33314061 -7.70530795 4.21549528 -7.6640625 1.09765625 C-5.00228029 -0.23323485 -2.97666854 -0.01503368 0 0 Z " fill="#17417B" transform="translate(123.6640625,209.90234375)"/>
<path d="M0 0 C0.33 0 0.66 0 1 0 C-0.04356533 33.39409058 -16.98123002 61.58143556 -36 88 C-36.66 87.67 -37.32 87.34 -38 87 C-37.33333333 85.66666667 -36.66666667 84.33333333 -36 83 C-35.525625 81.948125 -35.05125 80.89625 -34.5625 79.8125 C-33 77 -33 77 -30 76 C-29.87625 75.030625 -29.7525 74.06125 -29.625 73.0625 C-29.41875 72.051875 -29.2125 71.04125 -29 70 C-28.01 69.505 -28.01 69.505 -27 69 C-26.34444881 66.47266765 -26.34444881 66.47266765 -26 64 C-25.34 64 -24.68 64 -24 64 C-20.38406443 58.45297162 -20.38406443 58.45297162 -20 52 C-18.35 52 -16.7 52 -15 52 C-14.5186659 50.27143541 -14.04003029 48.54211929 -13.5625 46.8125 C-13.29566406 45.84957031 -13.02882812 44.88664062 -12.75390625 43.89453125 C-12.07119982 41.27336303 -11.50107805 38.661065 -11 36 C-10.34 36 -9.68 36 -9 36 C-8.67 34.68 -8.34 33.36 -8 32 C-7.34 32 -6.68 32 -6 32 C-6 31.38511719 -6 30.77023438 -6 30.13671875 C-6 26.7578125 -6 23.37890625 -6 20 C-4.68 19.34 -3.36 18.68 -2 18 C-1.90912109 16.17662109 -1.90912109 16.17662109 -1.81640625 14.31640625 C-1.73201668 12.73175772 -1.6473679 11.14712298 -1.5625 9.5625 C-1.52318359 8.76005859 -1.48386719 7.95761719 -1.44335938 7.13085938 C-1.11328125 1.11328125 -1.11328125 1.11328125 0 0 Z " fill="#174481" transform="translate(191,24)"/>
<path d="M0 0 C1.39120471 0.00015906 2.78241534 0.00585033 4.17358398 0.01586914 C4.90463852 0.01728409 5.63569305 0.01869904 6.38890076 0.02015686 C8.73253406 0.02577131 11.07607313 0.03832617 13.41967773 0.05102539 C15.00496282 0.05603853 16.59024939 0.06060176 18.17553711 0.06469727 C22.06945383 0.07574542 25.96329979 0.09301967 29.85717773 0.11352539 C29.85717773 2.42352539 29.85717773 4.73352539 29.85717773 7.11352539 C27.33242312 8.3759027 25.54517308 8.21208943 22.73217773 8.17602539 C21.82209961 8.16700195 20.91202148 8.15797852 19.97436523 8.14868164 C19.27569336 8.13708008 18.57702148 8.12547852 17.85717773 8.11352539 C17.85717773 7.78352539 17.85717773 7.45352539 17.85717773 7.11352539 C21.48717773 6.78352539 25.11717773 6.45352539 28.85717773 6.11352539 C28.85717773 4.79352539 28.85717773 3.47352539 28.85717773 2.11352539 C24.92448907 2.08878671 20.9918306 2.07064704 17.05908203 2.05859375 C15.06403006 2.0510981 13.06899988 2.03839194 11.07397461 2.02563477 C9.82036133 2.02241211 8.56674805 2.01918945 7.27514648 2.01586914 C6.11781006 2.01063232 4.96047363 2.00539551 3.76806641 2 C0.79113363 1.98053078 0.79113363 1.98053078 -2.14282227 3.11352539 C-2.14282227 4.10352539 -2.14282227 5.09352539 -2.14282227 6.11352539 C2.14717773 6.11352539 6.43717773 6.11352539 10.85717773 6.11352539 C11.67531966 9.38609307 11.97589607 11.59346438 11.95483398 14.87915039 C11.95161133 15.76860352 11.94838867 16.65805664 11.94506836 17.57446289 C11.93668945 18.49485352 11.92831055 19.41524414 11.91967773 20.36352539 C11.91516602 21.29938477 11.9106543 22.23524414 11.90600586 23.19946289 C11.89424692 25.5042158 11.87781199 27.80883766 11.85717773 30.11352539 C13.17717773 30.44352539 14.49717773 30.77352539 15.85717773 31.11352539 C15.85717773 23.85352539 15.85717773 16.59352539 15.85717773 9.11352539 C16.18717773 9.11352539 16.51717773 9.11352539 16.85717773 9.11352539 C16.8860501 12.92600965 16.90393265 16.73846609 16.91967773 20.55102539 C16.92805664 21.63963867 16.93643555 22.72825195 16.94506836 23.84985352 C16.94990234 25.4015625 16.94990234 25.4015625 16.95483398 26.98461914 C16.96268921 28.42212524 16.96268921 28.42212524 16.97070312 29.88867188 C16.85717773 32.11352539 16.85717773 32.11352539 15.85717773 33.11352539 C12.85717773 33.23852539 12.85717773 33.23852539 9.85717773 33.11352539 C8.85717773 32.11352539 8.85717773 32.11352539 8.74365234 29.796875 C8.74888916 28.79664307 8.75412598 27.79641113 8.75952148 26.76586914 C8.76274414 25.6862793 8.7659668 24.60668945 8.76928711 23.49438477 C8.77766602 22.35807617 8.78604492 21.22176758 8.79467773 20.05102539 C8.79918945 18.91084961 8.80370117 17.77067383 8.80834961 16.59594727 C8.82018026 13.76842188 8.83666364 10.94099899 8.85717773 8.11352539 C8.08631836 8.12512695 7.31545898 8.13672852 6.52124023 8.14868164 C5.0169043 8.1622168 5.0169043 8.1622168 3.48217773 8.17602539 C2.48444336 8.18762695 1.48670898 8.19922852 0.45874023 8.21118164 C-2.14282227 8.11352539 -2.14282227 8.11352539 -4.14282227 7.11352539 C-4.18536583 5.11397793 -4.18363009 3.11310903 -4.14282227 1.11352539 C-3.14282227 0.11352539 -3.14282227 0.11352539 0 0 Z " fill="#1C457A" transform="translate(164.142822265625,209.886474609375)"/>
<path d="M0 0 C0.66 0.33 1.32 0.66 2 1 C2.8731247 30.33698984 2.8731247 30.33698984 -2 43 C-2.66 43.66 -3.32 44.32 -4 45 C-3.70833333 43.54166667 -3.41666667 42.08333333 -3.125 40.625 C-2.94582031 39.70460937 -2.76664063 38.78421875 -2.58203125 37.8359375 C-2.2222219 36.08277247 -1.83008268 34.33548258 -1.38671875 32.6015625 C0.39853557 25.29052098 -0.20699264 18.43712312 -1 11 C-1.26554687 11.67546875 -1.53109375 12.3509375 -1.8046875 13.046875 C-2.15789062 13.93890625 -2.51109375 14.8309375 -2.875 15.75 C-3.22304687 16.63171875 -3.57109375 17.5134375 -3.9296875 18.421875 C-4.8646709 20.6740248 -5.87780794 22.83649459 -7 25 C-7.66 25 -8.32 25 -9 25 C-9.061875 25.99 -9.12375 26.98 -9.1875 28 C-9.85243549 32.76055263 -12.34852572 36.10029322 -15 40 C-15.556875 40.99 -16.11375 41.98 -16.6875 43 C-17.120625 43.66 -17.55375 44.32 -18 45 C-18.66 45 -19.32 45 -20 45 C-19.11845361 39.80867125 -17.67117161 36.21037868 -14.75 31.8125 C-9.03236048 23.20030548 -4.94480751 14.23271495 -2.640625 4.14453125 C-2 2 -2 2 0 0 Z " fill="#1A4784" transform="translate(182,83)"/>
<path d="M0 0 C-4.070379 -0.42107369 -8.11222706 -0.85588816 -12.15234375 -1.51171875 C-29.25578464 -4.27413017 -44.21397052 -2.49089994 -61 1 C-61.33 1.99 -61.66 2.98 -62 4 C-63.9609375 4.9140625 -63.9609375 4.9140625 -66.375 5.625 C-67.16648437 5.86476563 -67.95796875 6.10453125 -68.7734375 6.3515625 C-69.50820312 6.56554688 -70.24296875 6.77953125 -71 7 C-71.99 7.33 -72.98 7.66 -74 8 C-74 8.66 -74 9.32 -74 10 C-76.31 10.33 -78.62 10.66 -81 11 C-77.74621693 7.30963337 -74.04221186 5.15513001 -69.6875 3 C-68.98761963 2.65187256 -68.28773926 2.30374512 -67.56665039 1.94506836 C-49.24026214 -6.83671154 -18.18698687 -12.12465792 0 0 Z " fill="#15427F" transform="translate(127,15)"/>
<path d="M0 0 C1.98 0 3.96 0 6 0 C6 0.66 6 1.32 6 2 C6.804375 2.268125 7.60875 2.53625 8.4375 2.8125 C9.7059375 3.4003125 9.7059375 3.4003125 11 4 C11.33 4.99 11.66 5.98 12 7 C11.34 7 10.68 7 10 7 C9.67 7.66 9.34 8.32 9 9 C9 8.34 9 7.68 9 7 C7.68 7 6.36 7 5 7 C5.165 7.495 5.33 7.99 5.5 8.5 C6.20688818 12.03444089 6.06005155 15.39690701 6 19 C5.67 19 5.34 19 5 19 C4.67 21.97 4.34 24.94 4 28 C2.02 28 0.04 28 -2 28 C-1.505 26.515 -1.505 26.515 -1 25 C-0.85060226 23.08234406 -0.75189717 21.16053478 -0.68359375 19.23828125 C-0.64169922 18.12001953 -0.59980469 17.00175781 -0.55664062 15.84960938 C-0.51732422 14.68236328 -0.47800781 13.51511719 -0.4375 12.3125 C-0.39431641 11.13365234 -0.35113281 9.95480469 -0.30664062 8.74023438 C-0.20048824 5.82694117 -0.09843758 2.91356243 0 0 Z " fill="#074C99" transform="translate(61,212)"/>
<path d="M0 0 C0.33 0 0.66 0 1 0 C0.95359375 1.05832031 0.9071875 2.11664063 0.859375 3.20703125 C0.36662932 20.24877444 2.53713979 37.53566437 7 54 C6.34 54 5.68 54 5 54 C1.81167113 48.22938825 0.14686959 43.26041272 -0.75 36.75 C-0.87141357 35.9137207 -0.99282715 35.07744141 -1.11791992 34.21582031 C-2.72960131 22.47016763 -1.78250447 11.64993995 0 0 Z " fill="#13427B" transform="translate(11,77)"/>
<path d="M0 0 C0.495 1.485 0.495 1.485 1 3 C-8.9696853 13.44695747 -24.0901301 26.01724174 -39.2578125 27.171875 C-41.17268574 27.18521906 -43.08782218 27.1024381 -45 27 C-40.49667324 23.99778216 -36.42232421 22.68103975 -31 23 C-30.67 22.01 -30.34 21.02 -30 20 C-28.32407147 19.21132775 -26.64034558 18.43305106 -24.9140625 17.76171875 C-22.73024914 16.92675394 -22.73024914 16.92675394 -19.6875 15.3125 C-17 14 -17 14 -15 14 C-15 13.34 -15 12.68 -15 12 C-12.35261084 10.5393715 -11.10551666 10 -8 10 C-7.7525 9.236875 -7.505 8.47375 -7.25 7.6875 C-5.87869328 4.73919055 -4.7648921 3.64165468 -2 2 C-1.34 2 -0.68 2 0 2 C0 1.34 0 0.68 0 0 Z " fill="#103F83" transform="translate(159,154)"/>
<path d="M0 0 C13.86 0.495 13.86 0.495 28 1 C28 2.32 28 3.64 28 5 C27.21753906 5.13277344 26.43507812 5.26554688 25.62890625 5.40234375 C24.61699219 5.57894531 23.60507813 5.75554687 22.5625 5.9375 C21.55316406 6.11152344 20.54382813 6.28554687 19.50390625 6.46484375 C17.0712562 6.74751097 17.0712562 6.74751097 16 8 C15.84285346 9.63256758 15.74914586 11.27135338 15.68359375 12.91015625 C15.64169922 13.89951172 15.59980469 14.88886719 15.55664062 15.90820312 C15.51732422 16.94912109 15.47800781 17.99003906 15.4375 19.0625 C15.39431641 20.10728516 15.35113281 21.15207031 15.30664062 22.22851562 C15.20018775 24.81886884 15.0981724 27.40932186 15 30 C14.34 29.67 13.68 29.34 13 29 C13.33 21.08 13.66 13.16 14 5 C9.61003331 2.80501666 4.81647291 2.56192184 0 2 C0 1.34 0 0.68 0 0 Z " fill="#05478F" transform="translate(165,211)"/>
<path d="M0 0 C0.99 0.33 1.98 0.66 3 1 C3 2.65 3 4.3 3 6 C2.34 6 1.68 6 1 6 C1 7.32 1 8.64 1 10 C0.01 10.495 0.01 10.495 -1 11 C-1.4125 12.093125 -1.825 13.18625 -2.25 14.3125 C-3.90369277 18.47672118 -6.1445881 19.8581045 -10 22 C-9.22676579 13.33977684 -7.7969507 6.90261508 -1 1 C-0.67 0.67 -0.34 0.34 0 0 Z " fill="#044B9B" transform="translate(28,46)"/>
<path d="M0 0 C0 0.66 0 1.32 0 2 C-1.32 2.33 -2.64 2.66 -4 3 C-3.34 3.763125 -2.68 4.52625 -2 5.3125 C0 8 0 8 0 11 C-0.66 11 -1.32 11 -2 11 C-2.33 10.01 -2.66 9.02 -3 8 C-6.67387495 7.14701624 -10.0447393 6.89210529 -13.8125 6.9375 C-14.78832031 6.94652344 -15.76414063 6.95554688 -16.76953125 6.96484375 C-17.50558594 6.97644531 -18.24164063 6.98804688 -19 7 C-18.67 6.34 -18.34 5.68 -18 5 C-17.34 5 -16.68 5 -16 5 C-16 4.01 -16 3.02 -16 2 C-19.3 2.33 -22.6 2.66 -26 3 C-25.67 2.34 -25.34 1.68 -25 1 C-16.74906834 -0.44753187 -8.34831859 -0.09219002 0 0 Z " fill="#094991" transform="translate(144,211)"/>
<path d="M0 0 C0.99 0 1.98 0 3 0 C2.1875 2.4375 2.1875 2.4375 1 5 C0.01 5.33 -0.98 5.66 -2 6 C-2.1546875 7.8253125 -2.1546875 7.8253125 -2.3125 9.6875 C-2.92523301 14.50426226 -4.42555906 17.52396162 -8 20.875 C-8.99 21.431875 -8.99 21.431875 -10 22 C-13 21 -13 21 -14.6875 18.625 C-16 16 -16 16 -16 13 C-14.68 13 -13.36 13 -12 13 C-12 13.66 -12 14.32 -12 15 C-10.68 15 -9.36 15 -8 15 C-7.566875 13.3603125 -7.566875 13.3603125 -7.125 11.6875 C-6 8 -6 8 -4 5 C-3.34 5 -2.68 5 -2 5 C-1.34 3.35 -0.68 1.7 0 0 Z " fill="#064B9A" transform="translate(36,219)"/>
<path d="M0 0 C3.624581 1.20819367 3.40170957 1.80341913 5 5 C5.99 5.33 6.98 5.66 8 6 C8 6.66 8 7.32 8 8 C8.99 7.34 9.98 6.68 11 6 C11.99 6 12.98 6 14 6 C14 8.64 14 11.28 14 14 C6.60180995 13.50678733 6.60180995 13.50678733 3.625 11 C3.08875 10.34 2.5525 9.68 2 9 C1.34 8.67 0.68 8.34 0 8 C0 6.68 0 5.36 0 4 C-0.66 3.34 -1.32 2.68 -2 2 C-1.34 1.34 -0.68 0.68 0 0 Z " fill="#054B9A" transform="translate(80,227)"/>
<path d="M0 0 C0.66 0.33 1.32 0.66 2 1 C2.49629465 10.9672508 2.12946526 19.6860966 -2 29 C-2.66 29.33 -3.32 29.66 -4 30 C-4.33 29.34 -4.66 28.68 -5 28 C-5.5775 27.773125 -6.155 27.54625 -6.75 27.3125 C-10.09977434 25.35846497 -12.15907128 22.38761063 -14 19 C-14 18.01 -14 17.02 -14 16 C-12 16 -12 16 -10.4921875 17.4609375 C-9.69167969 18.40839844 -9.69167969 18.40839844 -8.875 19.375 C-8.06675781 20.31472656 -8.06675781 20.31472656 -7.2421875 21.2734375 C-6 23 -6 23 -6 25 C-3.84075105 24.18864567 -3.84075105 24.18864567 -3.18359375 22.109375 C-0.76481375 14.46045815 0.14039373 8.03364146 0 0 Z " fill="#174F8C" transform="translate(174,21)"/>
<path d="M0 0 C0.33 0 0.66 0 1 0 C1.02726927 2.35424675 1.04696719 4.70816962 1.0625 7.0625 C1.07410156 8.37347656 1.08570312 9.68445313 1.09765625 11.03515625 C1.00452335 14.8163519 0.61448726 18.27920707 0 22 C-0.66 22 -1.32 22 -2 22 C-2.18369141 23.07314453 -2.18369141 23.07314453 -2.37109375 24.16796875 C-3.01135375 27.05112713 -3.93551556 29.58592473 -5.0625 32.3125 C-5.42472656 33.19550781 -5.78695312 34.07851562 -6.16015625 34.98828125 C-6.43730469 35.65214844 -6.71445312 36.31601563 -7 37 C-7.66 37 -8.32 37 -9 37 C-9.103125 37.598125 -9.20625 38.19625 -9.3125 38.8125 C-10.08876455 41.28243264 -11.07088921 42.32251235 -13 44 C-13 39.90622525 -11.07165343 37.08383277 -9.1875 33.5625 C-6.04863928 27.53783506 -3.83421879 21.85976531 -2.47265625 15.16015625 C-2 13 -2 13 -1 12 C-0.76572222 9.98405418 -0.58663876 7.961526 -0.4375 5.9375 C-0.35371094 4.83277344 -0.26992187 3.72804688 -0.18359375 2.58984375 C-0.12300781 1.73519531 -0.06242187 0.88054688 0 0 Z " fill="#124084" transform="translate(68,63)"/>
<path d="M0 0 C0.99 0.66 1.98 1.32 3 2 C1.02 2.99 1.02 2.99 -1 4 C-1 4.66 -1 5.32 -1 6 C-1.66 6 -2.32 6 -3 6 C-3.25007813 6.52722656 -3.50015625 7.05445313 -3.7578125 7.59765625 C-5.01156711 10.02237036 -6.40580732 12.33686548 -7.81835938 14.67138672 C-12.14712194 21.9066613 -14.92563698 28.78443066 -17 37 C-17.33 37 -17.66 37 -18 37 C-17.82371456 27.67289786 -16.41495034 19.66723321 -9.8125 12.6875 C-9.214375 12.130625 -8.61625 11.57375 -8 11 C-6.74563813 8.36777038 -6.74563813 8.36777038 -6 6 C-5.34 6 -4.68 6 -4 6 C-4 5.01 -4 4.02 -4 3 C-2.68 3 -1.36 3 0 3 C0 2.01 0 1.02 0 0 Z " fill="#164783" transform="translate(33,50)"/>
<path d="M0 0 C0 0.66 0 1.32 0 2 C-0.66 2 -1.32 2 -2 2 C-2.33 2.99 -2.66 3.98 -3 5 C-3.99 5.495 -3.99 5.495 -5 6 C-3.02 6.99 -1.04 7.98 1 9 C1 9.33 1 9.66 1 10 C-5.02596573 11.0712828 -10.88909517 11.09945415 -17 11 C-15.69109919 7.07329756 -14.24192476 6.79342859 -10.625 4.9375 C-1.10178117 0 -1.10178117 0 0 0 Z " fill="#194584" transform="translate(114,173)"/>
<path d="M0 0 C3.25 -0.3125 3.25 -0.3125 7 0 C10.45526916 3.1751122 11.75342821 6.53311774 13 11 C12.34 11.66 11.68 12.32 11 13 C11 11.68 11 10.36 11 9 C10.01 8.67 9.02 8.34 8 8 C8 7.34 8 6.68 8 6 C7.34 6 6.68 6 6 6 C5.67 7.65 5.34 9.3 5 11 C2.38114512 8.63055987 0.58133449 6.16266898 -1 3 C-0.67 2.01 -0.34 1.02 0 0 Z " fill="#13417E" transform="translate(7,210)"/>
<path d="M0 0 C0.33 0 0.66 0 1 0 C0.96519531 1.07378906 0.93039063 2.14757812 0.89453125 3.25390625 C0.86637082 4.69008839 0.83907309 6.12628762 0.8125 7.5625 C0.78736328 8.26697266 0.76222656 8.97144531 0.73632812 9.69726562 C0.66479628 14.87140221 1.54460541 18.41974471 4 23 C6.06890419 24.04289755 6.06890419 24.04289755 8 24 C8 24.66 8 25.32 8 26 C8.9590625 26.2165625 8.9590625 26.2165625 9.9375 26.4375 C12 27 12 27 13 28 C14.84891946 28.23363881 16.70488031 28.41303635 18.5625 28.5625 C19.57441406 28.64628906 20.58632813 28.73007813 21.62890625 28.81640625 C22.80259766 28.90728516 22.80259766 28.90728516 24 29 C24 29.33 24 29.66 24 30 C9.76056338 30.57042254 9.76056338 30.57042254 5 27 C0.94155668 23.03050887 -0.86829215 19.81622381 -1.1328125 14.16015625 C-1.13023438 13.13792969 -1.12765625 12.11570313 -1.125 11.0625 C-1.12757812 10.04285156 -1.13015625 9.02320313 -1.1328125 7.97265625 C-1.00911936 5.20411275 -0.62526738 2.69460465 0 0 Z " fill="#204A81" transform="translate(27,165)"/>
<path d="M0 0 C2.46089163 0.19621727 4.61734034 0.44579072 6.9765625 1.1875 C9.5390625 4.25 9.5390625 4.25 10.9765625 7.1875 C6.2265625 5.3125 6.2265625 5.3125 3.9765625 4.1875 C3.9765625 3.5275 3.9765625 2.8675 3.9765625 2.1875 C1.9965625 2.1875 0.0165625 2.1875 -2.0234375 2.1875 C-2.0234375 10.4375 -2.0234375 18.6875 -2.0234375 27.1875 C-2.6834375 27.5175 -3.3434375 27.8475 -4.0234375 28.1875 C-4.08127592 23.89588953 -4.1169787 19.60437855 -4.1484375 15.3125 C-4.16519531 14.08917969 -4.18195312 12.86585938 -4.19921875 11.60546875 C-4.20566406 10.43886719 -4.21210937 9.27226562 -4.21875 8.0703125 C-4.22922363 6.99152832 -4.23969727 5.91274414 -4.25048828 4.80126953 C-3.97261743 1.60246806 -3.33263625 0.30881571 0 0 Z " fill="#1E487D" transform="translate(63.0234375,209.8125)"/>
<path d="M0 0 C0 3 0 3 -1.28173828 4.65405273 C-2.16708252 5.53492554 -2.16708252 5.53492554 -3.0703125 6.43359375 C-3.72 7.08263672 -4.3696875 7.73167969 -5.0390625 8.40039062 C-5.72742188 9.07263672 -6.41578125 9.74488281 -7.125 10.4375 C-7.79015625 11.10587891 -8.4553125 11.77425781 -9.140625 12.46289062 C-12.08482769 15.37534211 -14.91506826 18.07617709 -18.4296875 20.28515625 C-21.27557689 21.80395766 -21.27557689 21.80395766 -22 25 C-24.06640625 25.94921875 -24.06640625 25.94921875 -26.5625 26.6875 C-27.38878906 26.93886719 -28.21507813 27.19023437 -29.06640625 27.44921875 C-29.70449219 27.63097656 -30.34257813 27.81273437 -31 28 C-27.40686003 24.24567244 -23.58939281 21.06385562 -19.4375 17.9375 C-12.3612183 12.51184736 -6.14309448 6.44687388 0 0 Z " fill="#245084" transform="translate(145,145)"/>
<path d="M0 0 C2.05078125 0.03255208 4.1015625 0.06510417 6.15234375 0.09765625 C6.15234375 1.08765625 6.15234375 2.07765625 6.15234375 3.09765625 C4.50234375 3.75765625 2.85234375 4.41765625 1.15234375 5.09765625 C0.82234375 7.73765625 0.49234375 10.37765625 0.15234375 13.09765625 C-0.83765625 13.09765625 -1.82765625 13.09765625 -2.84765625 13.09765625 C-2.87452178 11.11856227 -2.89399 9.13936654 -2.91015625 7.16015625 C-2.92175781 6.05800781 -2.93335937 4.95585937 -2.9453125 3.8203125 C-2.81361949 0.14871139 -2.81361949 0.14871139 0 0 Z " fill="#044E9A" transform="translate(121.84765625,212.90234375)"/>
<path d="M0 0 C5.7607103 1.29322068 9.33195882 3.37988643 14 7 C13.67 7.99 13.34 8.98 13 10 C11.8553125 9.0409375 11.8553125 9.0409375 10.6875 8.0625 C6.33699802 4.72374267 2.31243954 4.58314799 -3 5 C-5.41374737 5.5217687 -7.65132499 6.21710833 -10 7 C-9.34 5.35 -8.68 3.7 -8 2 C-6.2984375 1.7834375 -6.2984375 1.7834375 -4.5625 1.5625 C-1.19222799 1.38828522 -1.19222799 1.38828522 0 0 Z " fill="#144588" transform="translate(49,42)"/>
<path d="M0 0 C0.33 0.66 0.66 1.32 1 2 C1.66 2 2.32 2 3 2 C5.9912181 4.18869617 7.75791914 5.86740742 8.546875 9.55859375 C8.78666057 12.04460588 8.94667511 14.50342576 9 17 C4.96147217 14.98073609 2.31189252 10.78033869 0 7 C-0.56084676 4.3587473 -0.40323019 2.70740273 0 0 Z " fill="#064B99" transform="translate(12,214)"/>
<path d="M0 0 C1 3 1 3 -0.40625 6.29296875 C-1.09056509 7.59836688 -1.78933472 8.89625786 -2.5 10.1875 C-2.86222656 10.85789307 -3.22445312 11.52828613 -3.59765625 12.21899414 C-6.47229365 17.38670576 -9.75932226 21.85208709 -14 26 C-14 20.43775989 -11.49283273 17.14773887 -8 13 C-7.34 12.01 -6.68 11.02 -6 10 C-5.34 10 -4.68 10 -4 10 C-3.896875 9.46375 -3.79375 8.9275 -3.6875 8.375 C-2.81907303 5.37497956 -1.44379704 2.7620465 0 0 Z " fill="#1C417D" transform="translate(177,128)"/>
<path d="M0 0 C2.875 -0.125 2.875 -0.125 6 0 C8 2 8 2 8.22705078 3.87939453 C8.21134033 4.99483643 8.21134033 4.99483643 8.1953125 6.1328125 C8.18564453 7.34130859 8.18564453 7.34130859 8.17578125 8.57421875 C8.15902344 9.41597656 8.14226562 10.25773438 8.125 11.125 C8.11597656 11.97449219 8.10695313 12.82398438 8.09765625 13.69921875 C8.07405647 15.79959884 8.03818483 17.89983444 8 20 C7.67 20 7.34 20 7 20 C7 14.39 7 8.78 7 3 C5.68 3 4.36 3 3 3 C1.9458482 6.16245541 1.68724328 8.86948218 1.4375 12.1875 C1.35371094 13.27417969 1.26992187 14.36085937 1.18359375 15.48046875 C1.12300781 16.31191406 1.06242187 17.14335937 1 18 C0.34 17.67 -0.32 17.34 -1 17 C-1.02691685 14.54159395 -1.04679802 12.08348118 -1.0625 9.625 C-1.07087891 8.92632812 -1.07925781 8.22765625 -1.08789062 7.5078125 C-1.11328125 2.2265625 -1.11328125 2.2265625 0 0 Z " fill="#1F467B" transform="translate(88,210)"/>
<path d="M0 0 C1.12148437 0.00322266 2.24296875 0.00644531 3.3984375 0.00976562 C4.5740625 0.01814453 5.7496875 0.02652344 6.9609375 0.03515625 C8.14429688 0.03966797 9.32765625 0.04417969 10.546875 0.04882812 C13.47661257 0.06064158 16.40625022 0.07711367 19.3359375 0.09765625 C19.3359375 0.42765625 19.3359375 0.75765625 19.3359375 1.09765625 C7.4559375 2.08765625 7.4559375 2.08765625 -4.6640625 3.09765625 C-4.9940625 8.04765625 -5.3240625 12.99765625 -5.6640625 18.09765625 C-5.9940625 18.09765625 -6.3240625 18.09765625 -6.6640625 18.09765625 C-6.9940625 12.48765625 -7.3240625 6.87765625 -7.6640625 1.09765625 C-5.00228029 -0.23323485 -2.97666854 -0.01503368 0 0 Z " fill="#1F487D" transform="translate(123.6640625,209.90234375)"/>
<path d="M0 0 C0.33 1.32 0.66 2.64 1 4 C1.66 4 2.32 4 3 4 C3.05399736 5.45792884 3.09279177 6.91642712 3.125 8.375 C3.14820312 9.18710938 3.17140625 9.99921875 3.1953125 10.8359375 C3 13 3 13 1 15 C-2.1875 15.5625 -2.1875 15.5625 -6 15 C-8.65904082 12.93357487 -10.83891188 10.5749135 -13 8 C-12.34 7.67 -11.68 7.34 -11 7 C-9 8.375 -9 8.375 -7 10 C-7 10.66 -7 11.32 -7 12 C-4.36 12.33 -1.72 12.66 1 13 C0.855625 11.741875 0.71125 10.48375 0.5625 9.1875 C0.48128906 8.47980469 0.40007812 7.77210938 0.31640625 7.04296875 C0.02829265 4.80603607 0.02829265 4.80603607 -1 2 C-0.67 1.34 -0.34 0.68 0 0 Z " fill="#1B4984" transform="translate(93,228)"/>
<path d="M0 0 C-1.25 1.5625 -1.25 1.5625 -3 3 C-5.1875 2.6875 -5.1875 2.6875 -7 2 C-7.33 2.66 -7.66 3.32 -8 4 C-11.63 3.67 -15.26 3.34 -19 3 C-19 2.01 -19 1.02 -19 0 C-16.39619004 -0.19476139 -13.79224467 -0.38108614 -11.1875 -0.5625 C-10.44951172 -0.61857422 -9.71152344 -0.67464844 -8.95117188 -0.73242188 C-5.63211484 -0.95769724 -3.18767436 -1.06255812 0 0 Z " fill="#0B4587" transform="translate(144,224)"/>
<path d="M0 0 C0.6640625 1.74609375 0.6640625 1.74609375 1 4 C-1.51810699 8.93208174 -5.09238487 12.47608365 -10 15 C-10.33 15.66 -10.66 16.32 -11 17 C-11.66 16.67 -12.32 16.34 -13 16 C-12.09507812 14.89591797 -12.09507812 14.89591797 -11.171875 13.76953125 C-10.37265625 12.79371094 -9.5734375 11.81789062 -8.75 10.8125 C-7.96109375 9.84957031 -7.1721875 8.88664063 -6.359375 7.89453125 C-4.22415228 5.27499477 -2.10643639 2.64270803 0 0 Z " fill="#1B4A87" transform="translate(159,128)"/>
<path d="M0 0 C-0.33 0.99 -0.66 1.98 -1 3 C-2.9609375 3.9140625 -2.9609375 3.9140625 -5.375 4.625 C-6.16648437 4.86476563 -6.95796875 5.10453125 -7.7734375 5.3515625 C-8.50820313 5.56554687 -9.24296875 5.77953125 -10 6 C-10.99 6.33 -11.98 6.66 -13 7 C-13 7.66 -13 8.32 -13 9 C-15.31 9.33 -17.62 9.66 -20 10 C-17.1207971 6.88368628 -14.27746543 4.7903971 -10.5625 2.75 C-9.17224609 1.96882813 -9.17224609 1.96882813 -7.75390625 1.171875 C-4.90770155 -0.03927593 -3.05395655 -0.24387312 0 0 Z " fill="#19488D" transform="translate(66,16)"/>
<path d="M0 0 C1.2065625 0.0309375 1.2065625 0.0309375 2.4375 0.0625 C2.4375 0.3925 2.4375 0.7225 2.4375 1.0625 C4.7475 1.3925 7.0575 1.7225 9.4375 2.0625 C9.4375 2.3925 9.4375 2.7225 9.4375 3.0625 C7.38671875 3.29036458 5.3359375 3.51822917 3.28515625 3.74609375 C1.42609771 3.88136614 1.42609771 3.88136614 0.4375 5.0625 C0.28035346 6.69506758 0.18664586 8.33385338 0.12109375 9.97265625 C0.07919922 10.96201172 0.03730469 11.95136719 -0.00585938 12.97070312 C-0.06483398 14.53208008 -0.06483398 14.53208008 -0.125 16.125 C-0.16818359 17.16978516 -0.21136719 18.21457031 -0.25585938 19.29101562 C-0.36231225 21.88136884 -0.4643276 24.47182186 -0.5625 27.0625 C-1.2225 26.7325 -1.8825 26.4025 -2.5625 26.0625 C-2.2325 18.1425 -1.9025 10.2225 -1.5625 2.0625 C-2.2225 1.7325 -2.8825 1.4025 -3.5625 1.0625 C-2.5625 0.0625 -2.5625 0.0625 0 0 Z " fill="#094286" transform="translate(180.5625,213.9375)"/>
<path d="M0 0 C13.11681173 -0.57306459 13.11681173 -0.57306459 18 3 C22.24411091 7.14979733 23.6446631 10.07771837 24 16 C21.36108519 13.7129405 20.09915247 12.32389807 19.0625 8.9375 C17.70677143 5.18930924 16.53851339 4.72091635 13 3 C9.66017019 2.21826605 9.66017019 2.21826605 6.1875 1.8125 C5.02605469 1.65394531 3.86460937 1.49539063 2.66796875 1.33203125 C1.78753906 1.22246094 0.90710938 1.11289063 0 1 C0 0.67 0 0.34 0 0 Z " fill="#214880" transform="translate(167,8)"/>
<path d="M0 0 C0.33 0 0.66 0 1 0 C1 6.27 1 12.54 1 19 C0.67 19 0.34 19 0 19 C-0.33 16.36 -0.66 13.72 -1 11 C-1.66 11.99 -2.32 12.98 -3 14 C-3.28999065 5.44527596 -3.28999065 5.44527596 -1 1 C-0.67 0.67 -0.34 0.34 0 0 Z " fill="#0B3B7E" transform="translate(182,83)"/>
<path d="M0 0 C3.10652645 0.3358407 4.60414303 0.59049279 6.8125 2.875 C8 5 8 5 8 8 C7.34 8 6.68 8 6 8 C5.67 7.01 5.34 6.02 5 5 C1.32612505 4.14701624 -2.0447393 3.89210529 -5.8125 3.9375 C-6.78832031 3.94652344 -7.76414063 3.95554688 -8.76953125 3.96484375 C-9.50558594 3.97644531 -10.24164063 3.98804688 -11 4 C-11 3.67 -11 3.34 -11 3 C-5.555 2.505 -5.555 2.505 0 2 C0 1.34 0 0.68 0 0 Z " fill="#15407F" transform="translate(136,214)"/>
<path d="M0 0 C2.875 -0.1875 2.875 -0.1875 6 0 C6.66 0.99 7.32 1.98 8 3 C6.68 5.64 5.36 8.28 4 11 C2.95550089 7.86650268 3.06576355 7.01031744 4 4 C3.01 3.67 2.02 3.34 1 3 C1 3.66 1 4.32 1 5 C0.01 5 -0.98 5 -2 5 C-1.34 3.35 -0.68 1.7 0 0 Z " fill="#17497A" transform="translate(38,210)"/>
<path d="M0 0 C0.66 0.66 1.32 1.32 2 2 C1 4 1 4 -1.1171875 4.88671875 C-8.09932549 6.91411009 -13.83092289 7.15093501 -21 6 C-21 5.67 -21 5.34 -21 5 C-19.90300781 4.89042969 -18.80601563 4.78085938 -17.67578125 4.66796875 C-16.22128484 4.50844334 -14.76686137 4.34825187 -13.3125 4.1875 C-12.59126953 4.11724609 -11.87003906 4.04699219 -11.12695312 3.97460938 C-6.72475171 3.47207497 -3.68603803 2.65365657 0 0 Z " fill="#0D3E7D" transform="translate(61,188)"/>
<path d="M0 0 C0.88751953 0.30744141 0.88751953 0.30744141 1.79296875 0.62109375 C7.78218392 2.86800077 7.78218392 2.86800077 14 4 C16.67676547 2.62750037 16.67676547 2.62750037 19 1 C19.66 1 20.32 1 21 1 C21 1.66 21 2.32 21 3 C16.23452819 6.13517882 12.80133103 6.26807485 7.34765625 5.51953125 C4.42639451 4.87306235 2.30233155 3.91860962 0 2 C0 1.34 0 0.68 0 0 Z " fill="#1A4882" transform="translate(127,15)"/>
<path d="M0 0 C0.33 0 0.66 0 1 0 C1.20496094 1.16917969 1.40992188 2.33835937 1.62109375 3.54296875 C1.89319855 5.09115122 2.16533567 6.639328 2.4375 8.1875 C2.57220703 8.95642578 2.70691406 9.72535156 2.84570312 10.51757812 C3.52089704 14.35465574 4.21232777 18.18399568 5 22 C4.34 22 3.68 22 3 22 C-1.69097481 13.56043372 -1.69097481 13.56043372 -1 9 C-0.67 8.67 -0.34 8.34 0 8 C0.07148199 6.64756083 0.08399454 5.29165633 0.0625 3.9375 C0.041875 2.638125 0.02125 1.33875 0 0 Z " fill="#39527D" transform="translate(13,109)"/>
<path d="M0 0 C9.91194969 7.32075472 9.91194969 7.32075472 14 11 C14 11.66 14 12.32 14 13 C11.83125748 12.49396008 10.00032373 12.00016187 8 11 C7.67 10.01 7.34 9.02 7 8 C6.195625 7.54625 5.39125 7.0925 4.5625 6.625 C1.55265042 4.7163149 0.99604801 3.35034331 0 0 Z " fill="#1C497D" transform="translate(146,24)"/>
<path d="M0 0 C1.9451 2.91765 2.45276317 4.62537285 3 8 C1.35 8.33 -0.3 8.66 -2 9 C-2.33 8.01 -2.66 7.02 -3 6 C-3.598125 6.33 -4.19625 6.66 -4.8125 7 C-7 8 -7 8 -10 8 C-6.7 5.36 -3.4 2.72 0 0 Z " fill="#024590" transform="translate(133,159)"/>
<path d="M0 0 C0.33 0 0.66 0 1 0 C1.33 8.91 1.66 17.82 2 27 C1.34 27 0.68 27 0 27 C0 24.69 0 22.38 0 20 C-0.66 20 -1.32 20 -2 20 C-2 18.02 -2 16.04 -2 14 C-1.34 14 -0.68 14 0 14 C0 9.38 0 4.76 0 0 Z " fill="#053A75" transform="translate(118,214)"/>
<path d="M0 0 C0.33 0 0.66 0 1 0 C1.02726927 2.35424675 1.04696719 4.70816962 1.0625 7.0625 C1.07410156 8.37347656 1.08570312 9.68445313 1.09765625 11.03515625 C1.00452335 14.8163519 0.61448726 18.27920707 0 22 C-0.66 22 -1.32 22 -2 22 C-2.33 22.66 -2.66 23.32 -3 24 C-2.85962479 22.18706911 -2.71255111 20.3746557 -2.5625 18.5625 C-2.48128906 17.55316406 -2.40007812 16.54382813 -2.31640625 15.50390625 C-2 13 -2 13 -1 12 C-0.76572222 9.98405418 -0.58663876 7.961526 -0.4375 5.9375 C-0.31181641 4.28041016 -0.31181641 4.28041016 -0.18359375 2.58984375 C-0.12300781 1.73519531 -0.06242187 0.88054688 0 0 Z " fill="#0A387C" transform="translate(68,63)"/>
<path d="M0 0 C1.15564727 3.44269747 0.81697294 5.85412626 0.0625 9.375 C-0.95868527 14.54992535 -1.69759044 18.90722868 0 24 C-0.66 24.66 -1.32 25.32 -2 26 C-4.86289842 17.41130473 -2.03055079 8.49688814 0 0 Z " fill="#013C86" transform="translate(30,158)"/>
<path d="M0 0 C1.52124209 3.04248417 0.47139881 5.70020832 0 9 C0.33 9.66 0.66 10.32 1 11 C0 12 -1 13 -2 14 C-2.66 14 -3.32 14 -4 14 C-4.33 14.66 -4.66 15.32 -5 16 C-4.49228528 10.03435204 -2.61407872 5.36190101 0 0 Z " fill="#02418D" transform="translate(19,58)"/>
<path d="M0 0 C0.66 0.33 1.32 0.66 2 1 C2.02712351 3.39591038 2.0468982 5.79150957 2.0625 8.1875 C2.07087891 8.86103516 2.07925781 9.53457031 2.08789062 10.22851562 C2.10606538 13.95434131 1.89299392 17.3788042 1 21 C0.34 20.34 -0.32 19.68 -1 19 C-0.98245238 16.12219015 -0.85984086 13.36036168 -0.625 10.5 C-0.51286344 8.94792803 -0.40087725 7.39584519 -0.2890625 5.84375 C-0.19367188 4.5753125 -0.09828125 3.306875 0 2 C0 1.34 0 0.68 0 0 Z " fill="#1A4480" transform="translate(174,21)"/>
<path d="M0 0 C0.66 0.33 1.32 0.66 2 1 C2 5.62 2 10.24 2 15 C-1.41014121 10.45314506 -1.41014121 10.45314506 -1.8125 6.375 C-1.90144531 5.59898438 -1.99039062 4.82296875 -2.08203125 4.0234375 C-2 2 -2 2 0 0 Z " fill="#1E4882" transform="translate(12,106)"/>
<path d="M0 0 C0.66 0.33 1.32 0.66 2 1 C-1.31016849 4.74101582 -5.19959802 5.96317848 -10 7 C-13.5625 6.6875 -13.5625 6.6875 -16 6 C-12.32621448 3.55080966 -10.32590635 4 -6 4 C-5.01 3.34 -4.02 2.68 -3 2 C-2.01 2 -1.02 2 0 2 C0 1.34 0 0.68 0 0 Z " fill="#044590" transform="translate(148,16)"/>
<path d="M0 0 C0.99 0.33 1.98 0.66 3 1 C3 1.99 3 2.98 3 4 C2.34 4 1.68 4 1 4 C1.33 4.99 1.66 5.98 2 7 C0.5625 10.1875 0.5625 10.1875 -1 13 C-1.33 13 -1.66 13 -2 13 C-2 11.35 -2 9.7 -2 8 C-1.34 8 -0.68 8 0 8 C-0.556875 6.8553125 -0.556875 6.8553125 -1.125 5.6875 C-1.41375 4.800625 -1.7025 3.91375 -2 3 C-1.34 2.01 -0.68 1.02 0 0 Z " fill="#0951A3" transform="translate(179,56)"/>
<path d="M0 0 C0.8125 1.6875 0.8125 1.6875 1 4 C-0.61974559 5.71230248 -2.2958946 7.37163262 -4 9 C-5.48758364 11.27401321 -6.72627521 13.5940754 -8 16 C-8.33 15.34 -8.66 14.68 -9 14 C-7.890625 11.7578125 -7.890625 11.7578125 -6.25 9.125 C-5.71890625 8.26132812 -5.1878125 7.39765625 -4.640625 6.5078125 C-3.1729797 4.26441183 -1.63774198 2.12117184 0 0 Z " fill="#1E4D8B" transform="translate(27,43)"/>
<path d="M0 0 C0.99 0.33 1.98 0.66 3 1 C4.1875 3.5625 4.1875 3.5625 5 6 C4.34 5.67 3.68 5.34 3 5 C2.67 8.63 2.34 12.26 2 16 C1.67 16 1.34 16 1 16 C0.67 10.72 0.34 5.44 0 0 Z " fill="#27548A" transform="translate(66,219)"/>
<path d="M0 0 C0.66 0.33 1.32 0.66 2 1 C2 2.65 2 4.3 2 6 C1.34 6 0.68 6 0 6 C-0.33 7.65 -0.66 9.3 -1 11 C-1.33333333 9.66666667 -1.66666667 8.33333333 -2 7 C-2.2475 6.319375 -2.495 5.63875 -2.75 4.9375 C-2.8325 4.298125 -2.915 3.65875 -3 3 C-1.5625 1.25 -1.5625 1.25 0 0 Z " fill="#094389" transform="translate(187,42)"/>
<path d="M0 0 C0.66 0 1.32 0 2 0 C3.5078125 2.1875 3.5078125 2.1875 5.125 5 C5.66382813 5.928125 6.20265625 6.85625 6.7578125 7.8125 C7.37269531 8.8953125 7.37269531 8.8953125 8 10 C7.01 10 6.02 10 5 10 C3.61328125 8.57421875 3.61328125 8.57421875 2.3125 6.6875 C1.87550781 6.07261719 1.43851563 5.45773438 0.98828125 4.82421875 C0 3 0 3 0 0 Z " fill="#0D447F" transform="translate(160,37)"/>
<path d="M0 0 C0.99 0.33 1.98 0.66 3 1 C3 3.31 3 5.62 3 8 C2.01 8.33 1.02 8.66 0 9 C0 6.03 0 3.06 0 0 Z " fill="#024E99" transform="translate(119,231)"/>
<path d="M0 0 C1.15227823 0.76116551 2.2966386 1.53432693 3.4375 2.3125 C4.07558594 2.74175781 4.71367188 3.17101562 5.37109375 3.61328125 C7 5 7 5 8 8 C6.68 8 5.36 8 4 8 C3.67 6.68 3.34 5.36 3 4 C2.34 4 1.68 4 1 4 C0.67 2.68 0.34 1.36 0 0 Z " fill="#0D3C78" transform="translate(80,224)"/>
<path d="M0 0 C2.64 0.33 5.28 0.66 8 1 C8 1.99 8 2.98 8 4 C5.39417629 4.93065133 4.35801776 5.14917407 1.75 4.0625 C1.1725 3.711875 0.595 3.36125 0 3 C0 2.01 0 1.02 0 0 Z " fill="#014D96" transform="translate(125,170)"/>
<path d="M0 0 C0.66 0.33 1.32 0.66 2 1 C1.21625 1.5775 0.4325 2.155 -0.375 2.75 C-2.80047244 4.82897637 -3.85694417 6.09040333 -5 9 C-6.32 8.67 -7.64 8.34 -9 8 C-6.03 5.36 -3.06 2.72 0 0 Z " fill="#1C4888" transform="translate(44,26)"/>
<path d="M0 0 C2.25 -0.3125 2.25 -0.3125 5 0 C9 4.10810811 9 4.10810811 9 7 C8.34 7 7.68 7 7 7 C6.67 6.01 6.34 5.02 6 4 C2.99152582 2.77479736 2.99152582 2.77479736 0 2 C0 1.34 0 0.68 0 0 Z " fill="#244A81" transform="translate(9,210)"/>
<path d="M0 0 C0.66 0.33 1.32 0.66 2 1 C2 2.98 2 4.96 2 7 C0.02 7.99 0.02 7.99 -2 9 C-2.33 8.01 -2.66 7.02 -3 6 C-2.34 5.67 -1.68 5.34 -1 5 C-0.34444881 2.47266765 -0.34444881 2.47266765 0 0 Z " fill="#0C3F90" transform="translate(165,88)"/>
<path d="M0 0 C1.25541557 3.76624671 0.37061958 5.37188934 -1 9 C-1.66 9 -2.32 9 -3 9 C-3.33 9.99 -3.66 10.98 -4 12 C-4.33 11.34 -4.66 10.68 -5 10 C-4.00390625 7.6171875 -4.00390625 7.6171875 -2.5625 4.875 C-1.85287109 3.50988281 -1.85287109 3.50988281 -1.12890625 2.1171875 C-0.75636719 1.41851562 -0.38382813 0.71984375 0 0 Z " fill="#1A4578" transform="translate(35,215)"/>
<path d="M0 0 C2.4375 0.8125 2.4375 0.8125 5 2 C5.33 2.99 5.66 3.98 6 5 C6.99 5.33 7.98 5.66 9 6 C8.34 6.66 7.68 7.32 7 8 C5.83035398 6.8572081 4.66435444 5.71068285 3.5 4.5625 C2.8503125 3.92441406 2.200625 3.28632813 1.53125 2.62890625 C0 1 0 1 0 0 Z " fill="#17407A" transform="translate(80,235)"/>
<path d="M0 0 C1.32 0.33 2.64 0.66 4 1 C3.67 2.32 3.34 3.64 3 5 C1.35 5 -0.3 5 -2 5 C-2 4.01 -2 3.02 -2 2 C-1.34 2 -0.68 2 0 2 C0 1.34 0 0.68 0 0 Z " fill="#0950A3" transform="translate(26,234)"/>
<path d="M0 0 C0.99 0 1.98 0 3 0 C3 0.99 3 1.98 3 3 C2.34 3 1.68 3 1 3 C1 3.66 1 4.32 1 5 C-1 6.625 -1 6.625 -3 8 C-3.66 7.67 -4.32 7.34 -5 7 C-4.0409375 6.1028125 -4.0409375 6.1028125 -3.0625 5.1875 C-0.79689611 3.09189663 -0.79689611 3.09189663 0 0 Z " fill="#04428A" transform="translate(108,156)"/>
<path d="M0 0 C0.99 0.66 1.98 1.32 3 2 C1.02 4.31 -0.96 6.62 -3 9 C-3 5.69727388 -2.43339634 2.43339634 0 0 Z " fill="#194885" transform="translate(166,145)"/>
<path d="M0 0 C-0.33 0.99 -0.66 1.98 -1 3 C-3.31 3.33 -5.62 3.66 -8 4 C-7.67 3.01 -7.34 2.02 -7 1 C-4.53721199 -0.231394 -2.7204945 -0.07159196 0 0 Z " fill="#0C448B" transform="translate(66,16)"/>
<path d="M0 0 C0.99 0.33 1.98 0.66 3 1 C2 3 2 3 -0.06640625 3.8515625 C-1.30197266 4.23441406 -1.30197266 4.23441406 -2.5625 4.625 C-3.38878906 4.88539063 -4.21507813 5.14578125 -5.06640625 5.4140625 C-5.70449219 5.60742188 -6.34257813 5.80078125 -7 6 C-2.25 1.125 -2.25 1.125 0 0 Z " fill="#144782" transform="translate(121,167)"/>
<path d="M0 0 C2.875 -0.125 2.875 -0.125 6 0 C6.66 0.66 7.32 1.32 8 2 C7 3 7 3 4.5625 3.25 C3.2940625 3.12625 3.2940625 3.12625 2 3 C1.34 2.01 0.68 1.02 0 0 Z " fill="#234C7F" transform="translate(59,240)"/>
<path d="M0 0 C1.32 0.33 2.64 0.66 4 1 C1.69 2.65 -0.62 4.3 -3 6 C-3.66 5.67 -4.32 5.34 -5 5 C-2.75 2.4375 -2.75 2.4375 0 0 Z " fill="#1B4B81" transform="translate(96,169)"/>
<path d="M0 0 C0.66 0.33 1.32 0.66 2 1 C0.68 3.31 -0.64 5.62 -2 8 C-2.33 8 -2.66 8 -3 8 C-2.74438677 5.6568787 -2.40729228 3.32156597 -2 1 C-1.34 0.67 -0.68 0.34 0 0 Z " fill="#224687" transform="translate(170,85)"/>
<path d="M0 0 C2.4375 0.8125 2.4375 0.8125 5 2 C5.33 2.99 5.66 3.98 6 5 C3.83125748 4.49396008 2.00032373 4.00016187 0 3 C0 2.01 0 1.02 0 0 Z " fill="#13427A" transform="translate(154,32)"/>
<path d="M0 0 C0.66 0.33 1.32 0.66 2 1 C2 1.99 2 2.98 2 4 C-0.76264289 4.59732819 -3.16032769 5 -6 5 C-4.02 3.35 -2.04 1.7 0 0 Z " fill="#024392" transform="translate(49,24)"/>
<path d="M0 0 C1.485 0.99 1.485 0.99 3 2 C3.66 2.33 4.32 2.66 5 3 C4.67 4.32 4.34 5.64 4 7 C3.34 6.34 2.68 5.68 2 5 C1.01 5.495 1.01 5.495 0 6 C0 4.02 0 2.04 0 0 Z " fill="#01488D" transform="translate(61,214)"/>
<path d="M0 0 C0.66 0.33 1.32 0.66 2 1 C1.3125 2.9375 1.3125 2.9375 0 5 C-2.625 5.75 -2.625 5.75 -5 6 C-3.35 4.02 -1.7 2.04 0 0 Z " fill="#02458D" transform="translate(139,153)"/>
</svg>
