<svg role="img" viewBox="0 0 64 64" xmlns="http://www.w3.org/2000/svg" id="Bluesky--Streamline-Simple-Icons" height="64" width="64">
  <desc>
    Bluesky Streamline Icon: https://streamlinehq.com
  </desc>
  <title>Bluesky</title>
  <path d="M32 28.8c-2.8986666666666663 -5.637333333333332 -10.789333333333333 -16.141333333333332 -18.128 -21.32C6.842666666666666 2.517333333333333 4.1626666666666665 3.376 2.405333333333333 4.173333333333333 0.3706666666666667 5.087999999999999 0 8.213333333333333 0 10.047999999999998c0 1.8399999999999999 1.008 15.066666666666666 1.664 17.27733333333333 2.173333333333333 7.296 9.901333333333334 9.76 17.02133333333333 8.970666666666666 0.3626666666666667 -0.05333333333333333 0.7333333333333334 -0.104 1.1066666666666665 -0.14933333333333332 -0.368 0.05866666666666666 -0.736 0.10666666666666666 -1.1066666666666665 0.14933333333333332 -10.431999999999999 1.5466666666666664 -19.698666666666664 5.346666666666666 -7.546666666666667 18.874666666666666 13.367999999999999 13.84 18.32 -2.968 20.861333333333334 -11.488 2.541333333333333 8.52 5.466666666666666 24.72266666666667 20.621333333333332 11.488 11.378666666666668 -11.488 3.125333333333333 -17.328 -7.306666666666667 -18.874666666666666a23.30933333333333 23.30933333333333 0 0 1 -1.1066666666666665 -0.14933333333333332c0.37333333333333335 0.04533333333333334 0.744 0.09599999999999999 1.1066666666666665 0.14933333333333332 7.119999999999999 0.7919999999999999 14.847999999999999 -1.6746666666666665 17.02133333333333 -8.970666666666666 0.6559999999999999 -2.2079999999999997 1.664 -15.44 1.664 -17.274666666666665 0 -1.8399999999999999 -0.3706666666666667 -4.962666666666666 -2.405333333333333 -5.882666666666666 -1.7573333333333334 -0.7946666666666666 -4.437333333333333 -1.6533333333333333 -11.466666666666665 3.3066666666666666C42.78933333333333 12.661333333333333 34.898666666666664 23.16533333333333 32 28.8Z" fill="#2264ea" stroke-width="2.6667"></path>
</svg>