<svg width="64" height="64" viewBox="0 0 64 64" fill="none" xmlns="http://www.w3.org/2000/svg">
<circle cx="32" cy="32" r="32" fill="#EB4748"/>
<path fill-rule="evenodd" clip-rule="evenodd" d="M14.6667 16C13.7462 16 13 16.7462 13 17.6667V40.3333C13 41.2538 13.7462 42 14.6667 42H49.3333C50.2538 42 51 41.2538 51 40.3333V17.6667C51 16.7462 50.2538 16 49.3333 16H14.6667ZM22.5 32C22.5 31.4477 22.0523 31 21.5 31C20.9477 31 20.5 31.4477 20.5 32V37C20.5 37.5523 20.9477 38 21.5 38C22.0523 38 22.5 37.5523 22.5 37V32ZM35.5 30C36.0523 30 36.5 30.4477 36.5 31V37C36.5 37.5523 36.0523 38 35.5 38C34.9477 38 34.5 37.5523 34.5 37V31C34.5 30.4477 34.9477 30 35.5 30ZM43.5 23C43.5 22.4477 43.0523 22 42.5 22C41.9477 22 41.5 22.4477 41.5 23V37C41.5 37.5523 41.9477 38 42.5 38C43.0523 38 43.5 37.5523 43.5 37V23ZM28.5 27C29.0523 27 29.5 27.4477 29.5 28V37C29.5 37.5523 29.0523 38 28.5 38C27.9477 38 27.5 37.5523 27.5 37V28C27.5 27.4477 27.9477 27 28.5 27ZM28.5 24C29.3284 24 30 23.3284 30 22.5C30 21.6716 29.3284 21 28.5 21C27.6716 21 27 21.6716 27 22.5C27 23.3284 27.6716 24 28.5 24Z" fill="white"/>
<rect x="28" y="43" width="8" height="3" fill="white"/>
<rect x="22" y="49" width="3" height="20" rx="1.5" transform="rotate(-90 22 49)" fill="white"/>
</svg>
