<svg width="32" height="32" viewBox="0 0 32 32" fill="none" xmlns="http://www.w3.org/2000/svg">
<circle cx="16" cy="16" r="16" fill="#00877C"/>
<path d="M21.25 9.875H10.75C10.2859 9.875 9.84075 10.0594 9.51256 10.3876C9.18437 10.7158 9 11.1609 9 11.625V11.975L16 15.9125L23 12.0625V11.625C23 11.1609 22.8156 10.7158 22.4874 10.3876C22.1592 10.0594 21.7141 9.875 21.25 9.875Z" fill="white"/>
<path d="M15.5625 17.6613L9 13.9863V20.3738C9 20.838 9.18437 21.2831 9.51256 21.6113C9.84075 21.9395 10.2859 22.1238 10.75 22.1238H21.25C21.7141 22.1238 22.1592 21.9395 22.4874 21.6113C22.8156 21.2831 23 20.838 23 20.3738V13.9863L16.4375 17.6613C16.2996 17.7219 16.1506 17.7532 16 17.7532C15.8494 17.7532 15.7004 17.7219 15.5625 17.6613Z" fill="white"/>
</svg>
