<svg width="64" height="64" viewBox="0 0 64 64" fill="none" xmlns="http://www.w3.org/2000/svg">
<circle cx="32" cy="32" r="32" fill="#EB4748"/>
<g clip-path="url(#clip0_2967_6391)">
<path d="M42.5 19.75H21.5C20.5717 19.75 19.6815 20.1187 19.0251 20.7751C18.3687 21.4315 18 22.3217 18 23.25V23.95L32 31.825L46 24.125V23.25C46 22.3217 45.6313 21.4315 44.9749 20.7751C44.3185 20.1187 43.4283 19.75 42.5 19.75Z" fill="white"/>
<path d="M31.125 35.3246L18 27.9746V40.7496C18 41.6779 18.3687 42.5681 19.0251 43.2245C19.6815 43.8809 20.5717 44.2496 21.5 44.2496H42.5C43.4283 44.2496 44.3185 43.8809 44.9749 43.2245C45.6313 42.5681 46 41.6779 46 40.7496V27.9746L32.875 35.3246C32.5992 35.4458 32.3012 35.5084 32 35.5084C31.6988 35.5084 31.4008 35.4458 31.125 35.3246Z" fill="white"/>
</g>
<defs>
<clipPath id="clip0_2967_6391">
<rect width="28" height="28" fill="white" transform="translate(18 18)"/>
</clipPath>
</defs>
</svg>
