<svg width="64" height="64" viewBox="0 0 64 64" fill="none" xmlns="http://www.w3.org/2000/svg">
<circle cx="32" cy="32" r="32" fill="#3B2642"/>
<path fill-rule="evenodd" clip-rule="evenodd" d="M26.6647 12.002C24.4537 12.0036 22.6644 13.7943 22.666 16.0008C22.6644 18.2074 24.4554 19.9981 26.6664 19.9997H30.6667V16.0025C30.6683 13.7959 28.8773 12.0052 26.6647 12.002C26.6664 12.002 26.6664 12.002 26.6647 12.002V12.002ZM26.6647 22.6678H16.0004C13.7894 22.6695 11.9984 24.4602 12 26.6667C11.9967 28.8733 13.7877 30.664 15.9987 30.6673H26.6647C28.8757 30.6656 30.6667 28.8749 30.6651 26.6684C30.6667 24.4602 28.8757 22.6695 26.6647 22.6678Z" fill="#36C5F0"/>
<path fill-rule="evenodd" clip-rule="evenodd" d="M52.001 26.6648C52.0026 24.4582 50.2116 22.6675 48.0007 22.6659C45.7897 22.6675 43.9987 24.4582 44.0003 26.6648V30.6653H48.0007C50.2116 30.6637 52.0026 28.873 52.001 26.6648ZM41.335 26.6648V15.9989C41.3367 13.794 39.5473 12.0033 37.3363 12C35.1253 12.0016 33.3343 13.7923 33.3359 15.9989V26.6648C33.3327 28.8713 35.1237 30.662 37.3347 30.6653C39.5456 30.6637 41.3367 28.873 41.335 26.6648Z" fill="#2EB67D"/>
<path fill-rule="evenodd" clip-rule="evenodd" d="M37.3265 51.9941C39.5375 51.9924 41.3285 50.2018 41.3269 47.9952C41.3285 45.7886 39.5375 43.9979 37.3265 43.9963H33.3262V47.9952C33.3245 50.2001 35.1155 51.9908 37.3265 51.9941ZM37.3265 41.3266H47.9925C50.2035 41.3249 51.9945 39.5342 51.9929 37.3277C51.9961 35.1211 50.2051 33.3304 47.9942 33.3271H37.3282C35.1172 33.3288 33.3262 35.1195 33.3278 37.326C33.3262 39.5342 35.1155 41.3249 37.3265 41.3266Z" fill="#ECB22E"/>
<path fill-rule="evenodd" clip-rule="evenodd" d="M12 37.3329C11.9984 39.5394 13.7894 41.3301 16.0004 41.3318C18.2113 41.3301 20.0024 39.5394 20.0007 37.3329V33.334H16.0004C13.7894 33.3356 11.9984 35.1263 12 37.3329ZM22.666 37.3329V47.9988C22.6627 50.2053 24.4537 51.996 26.6647 51.9993C28.8757 51.9977 30.6667 50.207 30.6651 48.0004V37.3361C30.6683 35.1296 28.8773 33.3389 26.6663 33.3356C24.4537 33.3356 22.6644 35.1263 22.666 37.3329C22.666 37.3329 22.666 37.3345 22.666 37.3329Z" fill="#E01E5A"/>
</svg>
