<svg width="64" height="64" viewBox="0 0 64 64" fill="none" xmlns="http://www.w3.org/2000/svg">
<circle cx="32" cy="32" r="32" fill="#00877C"/>
<ellipse cx="32" cy="32" rx="19" ry="16" fill="white"/>
<path d="M44 48V40L32 48H44Z" fill="white"/>
<path d="M29.712 35.3905V35.0399C29.712 34.0708 29.7919 33.2983 29.9515 32.7226C30.1169 32.1468 30.3564 31.685 30.67 31.3373C30.9836 30.9838 31.3656 30.6618 31.8161 30.371C32.1753 30.143 32.4947 29.9121 32.7741 29.6784C33.0592 29.439 33.2844 29.1824 33.4498 28.9088C33.6151 28.6352 33.6978 28.3245 33.6978 27.9767C33.6978 27.6404 33.618 27.3439 33.4583 27.0874C33.2986 26.8309 33.0791 26.6342 32.7997 26.4974C32.526 26.3549 32.221 26.2836 31.8845 26.2836C31.5481 26.2836 31.2316 26.3606 30.9351 26.5145C30.6443 26.6684 30.4048 26.8879 30.2167 27.1729C30.0342 27.4523 29.9401 27.7914 29.9344 28.1905H26C26.0171 26.9933 26.2937 26.0128 26.8297 25.2489C27.3713 24.485 28.087 23.9207 28.9765 23.5558C29.866 23.1853 30.8468 23 31.9187 23C33.0934 23 34.1368 23.1824 35.0492 23.5473C35.9672 23.9121 36.6885 24.4508 37.2131 25.1634C37.7377 25.876 38 26.7482 38 27.78C38 28.4584 37.886 29.057 37.6579 29.5758C37.4298 30.0945 37.1105 30.5534 36.6999 30.9525C36.2951 31.3458 35.819 31.705 35.2716 32.0299C34.8439 32.2808 34.4875 32.543 34.2024 32.8166C33.923 33.0903 33.712 33.4038 33.5695 33.7572C33.4269 34.105 33.3557 34.5325 33.3557 35.0399V35.3905H29.712ZM31.6023 41C30.9865 41 30.459 40.7834 30.02 40.3501C29.5866 39.9169 29.3728 39.3924 29.3785 38.7767C29.3728 38.1724 29.5866 37.6565 30.02 37.229C30.459 36.7957 30.9865 36.5791 31.6023 36.5791C32.1896 36.5791 32.7056 36.7957 33.1504 37.229C33.5952 37.6565 33.8204 38.1724 33.8261 38.7767C33.8204 39.1872 33.712 39.5606 33.5011 39.8969C33.2958 40.2333 33.0249 40.5012 32.6885 40.7007C32.3578 40.9002 31.9957 41 31.6023 41Z" fill="#00877C"/>
</svg>
