<svg width="64" height="64" viewBox="0 0 64 64" fill="none" xmlns="http://www.w3.org/2000/svg">
<circle cx="32" cy="32" r="32" fill="#259DF4"/>
<path d="M50 23.4453C48.725 24.012 47.3792 24.3661 45.9625 24.5786C47.3792 23.7286 48.5125 22.3828 49.0083 20.7536C47.6625 21.5328 46.175 22.0995 44.5458 22.4536C43.2708 21.1078 41.4292 20.2578 39.4458 20.2578C35.6208 20.2578 32.5042 23.3745 32.5042 27.1995C32.5042 27.7661 32.575 28.262 32.7167 28.7578C26.9792 28.4745 21.8083 25.712 18.3375 21.462C17.7708 22.5245 17.4167 23.6578 17.4167 24.9328C17.4167 27.3411 18.6208 29.4661 20.5333 30.7411C19.4 30.6703 18.3375 30.387 17.3458 29.8911V29.962C17.3458 33.362 19.7542 36.1953 22.9417 36.8328C22.375 36.9745 21.7375 37.0453 21.1 37.0453C20.675 37.0453 20.1792 36.9745 19.7542 36.9036C20.675 39.6661 23.225 41.7203 26.2708 41.7203C23.8625 43.562 20.8875 44.6953 17.6292 44.6953C17.0625 44.6953 16.4958 44.6953 16 44.6245C19.1167 46.6078 22.7292 47.7411 26.6958 47.7411C39.5167 47.7411 46.5292 37.1161 46.5292 27.9078C46.5292 27.6245 46.5292 27.2703 46.5292 26.987C47.875 26.0661 49.0792 24.862 50 23.4453Z" fill="white"/>
</svg>
