<svg width="32" height="32" viewBox="0 0 32 32" fill="none" xmlns="http://www.w3.org/2000/svg">
<circle cx="16" cy="16" r="16" fill="#EB4748"/>
<path d="M24.3406 12.6018C24.3406 12.6018 24.1812 11.4336 23.65 10.9027C23.0125 10.2124 22.2688 10.2124 21.95 10.1593C19.5594 10 16 10 16 10C16 10 12.4406 10 10.05 10.1593C9.73125 10.2124 8.9875 10.2124 8.35 10.9027C7.81875 11.4336 7.65938 12.6018 7.65938 12.6018C7.65938 12.6018 7.5 13.9823 7.5 15.3628V16.6372C7.5 18.0177 7.65938 19.3982 7.65938 19.3982C7.65938 19.3982 7.81875 20.5664 8.35 21.0973C8.9875 21.7876 9.8375 21.7345 10.2094 21.8407C11.5906 21.9469 16 22 16 22C16 22 19.5594 22 21.95 21.8407C22.2688 21.7876 23.0125 21.7876 23.65 21.0973C24.1812 20.5664 24.3406 19.3982 24.3406 19.3982C24.3406 19.3982 24.5 18.0177 24.5 16.6372V15.3628C24.5 13.9823 24.3406 12.6018 24.3406 12.6018ZM14.2469 18.2301V13.4513L18.8156 15.8407L14.2469 18.2301Z" fill="white"/>
</svg>
