<svg width="728" height="395" viewBox="0 0 728 395" fill="none" xmlns="http://www.w3.org/2000/svg">
<g opacity="0.5">
<mask id="mask0_7401_18191" style="mask-type:alpha" maskUnits="userSpaceOnUse" x="0" y="26" width="728" height="275">
<rect y="26" width="728" height="275" rx="137.5" fill="url(#paint0_radial_7401_18191)"/>
</mask>
<g mask="url(#mask0_7401_18191)">
<rect x="4" y="26" width="71.9102" height="71.9102" stroke="#D1D7E0" stroke-width="1.37854"/>
<rect x="75.9102" y="26" width="71.9102" height="71.9102" stroke="#D1D7E0" stroke-width="1.37854"/>
<rect x="147.82" y="26" width="71.9102" height="71.9102" stroke="#D1D7E0" stroke-width="1.37854"/>
<rect x="219.73" y="26" width="71.9102" height="71.9102" stroke="#D1D7E0" stroke-width="1.37854"/>
<rect x="291.641" y="26" width="71.9102" height="71.9102" stroke="#D1D7E0" stroke-width="1.37854"/>
<rect x="363.551" y="26" width="71.9102" height="71.9102" stroke="#D1D7E0" stroke-width="1.37854"/>
<rect x="435.461" y="26" width="71.9102" height="71.9102" stroke="#D1D7E0" stroke-width="1.37854"/>
<rect x="507.371" y="26" width="71.9102" height="71.9102" stroke="#D1D7E0" stroke-width="1.37854"/>
<rect x="579.281" y="26" width="71.9102" height="71.9102" stroke="#D1D7E0" stroke-width="1.37854"/>
<rect x="651.191" y="26" width="71.9102" height="71.9102" stroke="#D1D7E0" stroke-width="1.37854"/>
<rect x="4" y="97.9102" width="71.9102" height="71.9102" stroke="#D1D7E0" stroke-width="1.37854"/>
<rect x="75.9102" y="97.9102" width="71.9102" height="71.9102" stroke="#D1D7E0" stroke-width="1.37854"/>
<rect x="147.82" y="97.9102" width="71.9102" height="71.9102" stroke="#D1D7E0" stroke-width="1.37854"/>
<rect x="219.73" y="97.9102" width="71.9102" height="71.9102" stroke="#D1D7E0" stroke-width="1.37854"/>
<rect x="291.641" y="97.9102" width="71.9102" height="71.9102" stroke="#D1D7E0" stroke-width="1.37854"/>
<rect x="363.551" y="97.9102" width="71.9102" height="71.9102" stroke="#D1D7E0" stroke-width="1.37854"/>
<rect x="435.461" y="97.9102" width="71.9102" height="71.9102" stroke="#D1D7E0" stroke-width="1.37854"/>
<rect x="507.371" y="97.9102" width="71.9102" height="71.9102" stroke="#D1D7E0" stroke-width="1.37854"/>
<rect x="579.281" y="97.9102" width="71.9102" height="71.9102" stroke="#D1D7E0" stroke-width="1.37854"/>
<rect x="651.191" y="97.9102" width="71.9102" height="71.9102" stroke="#D1D7E0" stroke-width="1.37854"/>
<rect x="4" y="169.82" width="71.9102" height="71.9102" stroke="#D1D7E0" stroke-width="1.37854"/>
<rect x="75.9102" y="169.82" width="71.9102" height="71.9102" stroke="#D1D7E0" stroke-width="1.37854"/>
<rect x="147.82" y="169.82" width="71.9102" height="71.9102" stroke="#D1D7E0" stroke-width="1.37854"/>
<rect x="219.73" y="169.82" width="71.9102" height="71.9102" stroke="#D1D7E0" stroke-width="1.37854"/>
<rect x="291.641" y="169.82" width="71.9102" height="71.9102" stroke="#D1D7E0" stroke-width="1.37854"/>
<rect x="363.551" y="169.82" width="71.9102" height="71.9102" stroke="#D1D7E0" stroke-width="1.37854"/>
<rect x="435.461" y="169.82" width="71.9102" height="71.9102" stroke="#D1D7E0" stroke-width="1.37854"/>
<rect x="507.371" y="169.82" width="71.9102" height="71.9102" stroke="#D1D7E0" stroke-width="1.37854"/>
<rect x="579.281" y="169.82" width="71.9102" height="71.9102" stroke="#D1D7E0" stroke-width="1.37854"/>
<rect x="651.191" y="169.82" width="71.9102" height="71.9102" stroke="#D1D7E0" stroke-width="1.37854"/>
<rect x="4" y="241.73" width="71.9102" height="71.9102" stroke="#D1D7E0" stroke-width="1.37854"/>
<rect x="75.9102" y="241.73" width="71.9102" height="71.9102" stroke="#D1D7E0" stroke-width="1.37854"/>
<rect x="147.82" y="241.73" width="71.9102" height="71.9102" stroke="#D1D7E0" stroke-width="1.37854"/>
<rect x="219.73" y="241.73" width="71.9102" height="71.9102" stroke="#D1D7E0" stroke-width="1.37854"/>
<rect x="291.641" y="241.73" width="71.9102" height="71.9102" stroke="#D1D7E0" stroke-width="1.37854"/>
<rect x="363.551" y="241.73" width="71.9102" height="71.9102" stroke="#D1D7E0" stroke-width="1.37854"/>
<rect x="435.461" y="241.73" width="71.9102" height="71.9102" stroke="#D1D7E0" stroke-width="1.37854"/>
<rect x="507.371" y="241.73" width="71.9102" height="71.9102" stroke="#D1D7E0" stroke-width="1.37854"/>
<rect x="579.281" y="241.73" width="71.9102" height="71.9102" stroke="#D1D7E0" stroke-width="1.37854"/>
<rect x="651.191" y="241.73" width="71.9102" height="71.9102" stroke="#D1D7E0" stroke-width="1.37854"/>
</g>
</g>
<g filter="url(#filter0_f_7401_18191)">
<rect x="295.348" y="89.5449" width="208.465" height="216.554" fill="#F8F9FC"/>
</g>
<path opacity="0.3" d="M535.627 268.476L543.342 276.18M551.056 283.885L543.342 276.18M543.342 276.18L551.056 268.476M543.342 276.18L535.627 283.885" stroke="#D1D7E0" stroke-width="2.56822"/>
<ellipse opacity="0.45" cx="111.382" cy="134.078" rx="9.42915" ry="9.41696" stroke="#D1D7E0" stroke-width="2.56822"/>
<path d="M219.998 197.823L219.998 241.719H281.952" stroke="#A7B1BE" stroke-width="2.56822" stroke-linecap="round" stroke-linejoin="round" stroke-dasharray="0.01 8.56"/>
<path d="M544.034 120.902V169.396H482.884" stroke="#A7B1BE" stroke-width="2.56822" stroke-linecap="round" stroke-linejoin="round" stroke-dasharray="0.01 8.56"/>
<path d="M219.998 143.057V97.9072H320.463" stroke="#A7B1BE" stroke-width="2.56822" stroke-linecap="round" stroke-linejoin="round" stroke-dasharray="0.01 8.56"/>
<path d="M544 82.8576V64.8809H482.04M436 92.055V64.881H461.386" stroke="#A7B1BE" stroke-width="2.56822" stroke-linecap="round" stroke-linejoin="round" stroke-dasharray="0.01 8.56"/>
<mask id="path-49-inside-1_7401_18191" fill="white">
<rect width="32.1035" height="32.1035" rx="0.527571" transform="matrix(0.707574 0.706639 -0.707574 0.706639 220.014 147.239)"/>
</mask>
<rect width="32.1035" height="32.1035" rx="0.527571" transform="matrix(0.707574 0.706639 -0.707574 0.706639 220.014 147.239)" stroke="#0073E6" stroke-width="6.33085" mask="url(#path-49-inside-1_7401_18191)"/>
<rect x="215.787" y="165.703" width="8.45219" height="8.44126" rx="0.527571" fill="#0073E6"/>
<rect x="467.814" y="69.6797" width="8.56087" height="8.57196" rx="4.28044" transform="rotate(-90 467.814 69.6797)" fill="#EB4748"/>
<rect x="215.728" y="102.288" width="8.56087" height="8.57196" rx="4.28044" transform="rotate(-90 215.728 102.288)" fill="#00877C"/>
<rect x="141.578" y="235.498" width="12.8635" height="12.8414" fill="white" stroke="#EB4748" stroke-width="4.28037"/>
<rect width="13.7063" height="13.7063" transform="matrix(0.707569 -0.706644 0.707569 0.706644 642.61 134.349)" fill="#FFBF00"/>
<path d="M547.633 94.6279H541.121L537.851 100.385L541.106 106.083H547.632L550.887 100.385L547.633 94.6279ZM546.764 104.521H541.971L539.585 100.37L541.973 96.1748H546.766L549.154 100.37L546.764 104.521Z" fill="#141A1F"/>
<path d="M539.586 100.386L541.974 104.522H546.767L549.17 100.386L546.767 96.1328H541.974L539.586 100.386Z" fill="#E83030"/>
<path d="M547.633 106.863H541.121L537.851 112.605L541.106 118.303H547.632L550.887 112.605L547.633 106.863ZM546.764 116.8H541.971L539.585 112.649L541.973 108.454H546.766L549.154 112.649L546.764 116.8Z" fill="#141A1F"/>
<path d="M539.586 112.607L541.974 116.802H546.767L549.17 112.607L546.767 108.412H541.974L539.586 112.607Z" fill="#6B91C7"/>
<path d="M547.633 82.3486H541.121L537.851 88.1056L541.121 93.8036H547.647L550.902 88.1056L547.633 82.3486ZM546.764 92.2415H541.971L539.585 88.0904L541.973 83.8529H546.766L549.154 88.0477L546.764 92.2415Z" fill="#141A1F"/>
<path d="M539.586 88.1033L541.974 92.2402H546.767L549.17 88.1033L546.767 83.8506H541.974L539.586 88.1033Z" fill="#F9C31F"/>
<path d="M558.219 100.79H551.759L548.504 106.547L551.759 112.245H558.285L561.54 106.547L558.219 100.79ZM557.35 110.707H552.558L550.169 106.556L552.558 102.361H557.35L559.739 106.556L557.35 110.707Z" fill="#141A1F"/>
<path d="M550.167 106.565L552.59 110.716H557.369L559.815 106.565L557.369 102.312H552.59L550.167 106.565Z" fill="#795AA5"/>
<path d="M558.219 88.5107H551.759L548.504 94.2088L551.759 99.9068H558.285L561.54 94.2088L558.219 88.5107ZM557.35 98.4178H552.558L550.169 94.2667L552.558 90.0719H557.35L559.739 94.2667L557.35 98.4178Z" fill="#141A1F"/>
<path d="M550.167 94.2699L552.551 98.4771H557.369L559.815 94.326L557.369 90.0732L552.551 90.0732L550.167 94.2699Z" fill="#F17423"/>
<path d="M536.981 100.79H530.511L527.256 106.547L530.511 112.245H537.037L540.292 106.547L536.981 100.79ZM536.112 110.698H531.378L528.989 106.547L531.378 102.352H536.17L538.559 106.547L536.112 110.698Z" fill="#141A1F"/>
<path d="M528.985 106.545L531.374 110.696H536.108L538.555 106.545L536.108 102.292H531.374L528.985 106.545Z" fill="#97C639"/>
<path d="M536.981 88.5107H530.511L527.256 94.2088L530.511 99.9068H537.037L540.292 94.2088L536.981 88.5107ZM536.112 98.4188H531.378L528.989 94.2677L531.378 90.0729H536.17L538.559 94.2677L536.112 98.4188Z" fill="#141A1F"/>
<path d="M528.985 94.2674L531.374 98.4185H536.108L538.555 94.2674L536.108 90.0146H531.374L528.985 94.2674Z" fill="#C9DB70"/>
<ellipse cx="615.521" cy="205.287" rx="15.4295" ry="15.4096" fill="#00877C"/>
<path d="M620.664 202.728H619.807V201.011C619.807 198.642 617.887 196.719 615.521 196.719C613.155 196.719 611.235 198.642 611.235 201.011V202.728H610.377C609.435 202.728 608.663 203.5 608.663 204.444V213.028C608.663 213.973 609.435 214.745 610.377 214.745H620.664C621.607 214.745 622.378 213.973 622.378 213.028V204.444C622.378 203.5 621.607 202.728 620.664 202.728ZM615.521 210.453C614.578 210.453 613.806 209.681 613.806 208.736C613.806 207.792 614.578 207.02 615.521 207.02C616.464 207.02 617.235 207.792 617.235 208.736C617.235 209.681 616.464 210.453 615.521 210.453ZM618.178 202.728H612.863V201.011C612.863 199.543 614.055 198.35 615.521 198.35C616.986 198.35 618.178 199.543 618.178 201.011V202.728Z" fill="white"/>
<rect width="6.85313" height="6.85313" transform="matrix(0.707569 -0.706644 0.707569 0.706644 538.891 169.64)" fill="#0073E6"/>
<ellipse cx="40.3602" cy="204.454" rx="15.4295" ry="15.4096" fill="#FFBF00"/>
<g clip-path="url(#clip0_7401_18191)">
<path d="M40.3603 204.455C42.4907 204.455 44.2177 202.73 44.2177 200.602C44.2177 198.475 42.4907 196.75 40.3603 196.75C38.2299 196.75 36.5029 198.475 36.5029 200.602C36.5029 202.73 38.2299 204.455 40.3603 204.455Z" fill="#141A1F"/>
<path d="M48.075 209.463C48.0766 209.094 47.9717 208.733 47.7727 208.422C47.5738 208.112 47.2893 207.865 46.9535 207.712C44.8745 206.808 42.6275 206.355 40.3603 206.381C38.0931 206.355 35.8461 206.808 33.7671 207.712C33.4312 207.865 33.1468 208.112 32.9478 208.422C32.7489 208.733 32.6439 209.094 32.6455 209.463V212.16H48.075V209.463Z" fill="#141A1F"/>
</g>
<defs>
<filter id="filter0_f_7401_18191" x="206.72" y="0.916885" width="385.721" height="393.81" filterUnits="userSpaceOnUse" color-interpolation-filters="sRGB">
<feFlood flood-opacity="0" result="BackgroundImageFix"/>
<feBlend mode="normal" in="SourceGraphic" in2="BackgroundImageFix" result="shape"/>
<feGaussianBlur stdDeviation="44.314" result="effect1_foregroundBlur_7401_18191"/>
</filter>
<radialGradient id="paint0_radial_7401_18191" cx="0" cy="0" r="1" gradientUnits="userSpaceOnUse" gradientTransform="translate(364 163.5) rotate(90) scale(137.5 364)">
<stop stop-color="#F6F7F8"/>
<stop offset="1" stop-color="#F6F7F8" stop-opacity="0.4"/>
</radialGradient>
<clipPath id="clip0_7401_18191">
<rect width="15.4295" height="15.4096" fill="white" transform="translate(32.6455 196.749)"/>
</clipPath>
</defs>
</svg>
