<svg width="22" height="22" viewBox="0 0 22 22" fill="none" xmlns="http://www.w3.org/2000/svg">
<path d="M21.0833 2.75H0.916667C0.410667 2.75 0 3.16067 0 3.66667V18.3333C0 18.8393 0.410667 19.25 0.916667 19.25H21.0833C21.5893 19.25 22 18.8393 22 18.3333V3.66667C22 3.16067 21.5893 2.75 21.0833 2.75Z" fill="#3200D0"/>
<path d="M12.4233 6.41529H11.421L10.9998 5.5L10.5776 6.41529H9.57617L10.3077 7.17017L10.0373 8.27154L10.9998 7.72567L11.9623 8.27154L11.6909 7.17017L12.4233 6.41529Z" fill="#F6CF00"/>
<path d="M15.334 7.47636H14.3316L13.9099 6.56152L13.4878 7.47636H12.4863L13.2183 8.23169L12.9474 9.33261L13.9099 8.78673L14.8724 9.33261L14.6011 8.23169L15.334 7.47636Z" fill="#F6CF00"/>
<path d="M12.4233 14.6438H11.421L10.9998 13.7285L10.5776 14.6438H9.57617L10.3077 15.3991L10.0373 16.5001L10.9998 15.9542L11.9623 16.5001L11.6909 15.3991L12.4233 14.6438Z" fill="#F6CF00"/>
<path d="M9.51364 7.47636H8.51127L8.09006 6.56152L7.66748 7.47636H6.66602L7.39797 8.23169L7.1271 9.33261L8.09006 8.78673L9.05256 9.33261L8.78077 8.23169L9.51364 7.47636Z" fill="#F6CF00"/>
<path d="M7.88864 10.5188H6.88626L6.4646 9.60352L6.04247 10.5188H5.04102L5.77297 11.2741L5.5021 12.3751L6.4646 11.8292L7.4271 12.3751L7.15576 11.2741L7.88864 10.5188Z" fill="#F6CF00"/>
<path d="M16.9589 10.5188H15.9566L15.5354 9.60352L15.1128 10.5188H14.1113L14.8433 11.2741L14.5724 12.3751L15.5354 11.8292L16.4974 12.3751L16.2261 11.2741L16.9589 10.5188Z" fill="#F6CF00"/>
<path d="M15.334 13.5262H14.3316L13.9099 12.6113L13.4878 13.5262H12.4863L13.2183 14.2815L12.9474 15.3824L13.9099 14.8365L14.8724 15.3824L14.6011 14.2815L15.334 13.5262Z" fill="#F6CF00"/>
<path d="M9.51364 13.5262H8.51127L8.09006 12.6113L7.66748 13.5262H6.66602L7.39797 14.2815L7.1271 15.3824L8.09006 14.8365L9.05256 15.3824L8.78077 14.2815L9.51364 13.5262Z" fill="#F6CF00"/>
</svg>
