<svg width="22" height="22" viewBox="0 0 22 22" fill="none" xmlns="http://www.w3.org/2000/svg">
<path d="M22 3.66667C22 3.16021 21.5898 2.75 21.0833 2.75H9.16667V11.9167H0V18.3333C0 18.8398 0.410208 19.25 0.916667 19.25H21.0833C21.5898 19.25 22 18.8398 22 18.3333V3.66667Z" fill="#B41F30"/>
<path d="M21.9994 4.58301H9.16602V6.41634H21.9994V4.58301Z" fill="#E6E6E6"/>
<path d="M21.9994 8.25H9.16602V10.0833H21.9994V8.25Z" fill="#E6E6E6"/>
<path d="M0 11.917V13.7503H22V11.917H9.16667H0Z" fill="#E6E6E6"/>
<path d="M22 15.583H0V17.4163H22V15.583Z" fill="#E6E6E6"/>
<path d="M9.16667 11.9167H0V3.66667C0 3.16021 0.410208 2.75 0.916667 2.75H9.16667V11.9167Z" fill="#00256A"/>
<path d="M4.58297 6.38086L4.29285 7.00786H3.60352L4.10768 7.53036L3.9216 8.28569L4.58297 7.91078L5.24435 8.28569L5.05827 7.53036L5.56243 7.00786H4.87218L4.58297 6.38086Z" fill="white"/>
<path d="M2.34033 4.13867L2.05066 4.76567H1.36133L1.86504 5.28817L1.67895 6.04351L2.34033 5.66859L3.00216 6.04351L2.81562 5.28817L3.31979 4.76567H2.62954L2.34033 4.13867Z" fill="white"/>
<path d="M6.82516 4.13867L7.11483 4.76567H7.80416L7.30045 5.28817L7.48654 6.04351L6.82516 5.66859L6.16333 6.04351L6.34987 5.28817L5.8457 4.76567H6.53595L6.82516 4.13867Z" fill="white"/>
<path d="M2.34033 10.5289L2.05066 9.90186H1.36133L1.86504 9.37936L1.67895 8.62402L2.34033 8.99894L3.00216 8.62402L2.81562 9.37936L3.31979 9.90186H2.62954L2.34033 10.5289Z" fill="white"/>
<path d="M6.82516 10.5289L7.11483 9.90186H7.80416L7.30045 9.37936L7.48654 8.62402L6.82516 8.99894L6.16333 8.62402L6.34987 9.37936L5.8457 9.90186H6.53595L6.82516 10.5289Z" fill="white"/>
</svg>
