<svg width="181" height="40" viewBox="0 0 181 40" fill="none" xmlns="http://www.w3.org/2000/svg">
<g clip-path="url(#clip0_7731_32137)">
<path d="M0.125977 3.33203H13.4037C15.9328 3.33203 17.8296 3.96431 19.2347 5.01809C20.7802 6.28264 21.6233 8.10921 21.6233 10.3573C21.6233 12.9566 20.5695 14.5724 18.4619 15.556V15.6965C21.272 16.6098 22.8878 19.1389 22.8878 22.1597C22.8878 25.0401 21.7638 27.2882 19.9372 28.6932C18.3916 29.8173 16.4246 30.309 13.755 30.309H0.125977V3.33203ZM12.0689 13.8699C13.474 13.8699 14.5278 13.0971 14.5278 11.4813C14.5278 9.93578 13.474 9.163 11.9987 9.163H7.43225V13.7997H12.0689V13.8699ZM12.7012 24.3376C14.317 24.3376 15.5113 23.354 15.5113 21.5977C15.5113 19.7009 14.2467 18.8579 12.7012 18.8579H7.5025V24.4078H12.7012V24.3376Z" fill="black"/>
<path d="M24.0823 3.33203H31.0373V30.3793H24.0823V3.33203Z" fill="black"/>
<path d="M32.4419 20.7569C32.4419 14.645 36.376 10.5703 42.488 10.5703C48.6 10.5703 52.4639 14.7152 52.4639 20.7569C52.4639 26.8689 48.6 30.9436 42.488 30.9436C36.376 30.9436 32.4419 26.8689 32.4419 20.7569ZM45.5089 20.7569C45.5089 17.3848 44.4551 15.2772 42.3475 15.2772C40.2399 15.2772 39.2564 17.3848 39.2564 20.7569C39.2564 24.1291 40.2399 26.3069 42.3475 26.3069C44.4551 26.2366 45.5089 24.1291 45.5089 20.7569Z" fill="black"/>
<path d="M53.2373 20.7569C53.2373 14.645 57.1714 10.5703 63.2834 10.5703C69.3954 10.5703 73.189 14.645 73.189 20.7569C73.189 26.8689 69.3251 30.9436 63.2132 30.9436C57.1714 30.9436 53.2373 26.8689 53.2373 20.7569ZM66.3043 20.7569C66.3043 17.3848 65.2505 15.2772 63.1429 15.2772C61.0353 15.2772 60.0518 17.3848 60.0518 20.7569C60.0518 24.1291 61.0353 26.3069 63.1429 26.3069C65.2505 26.2366 66.3043 24.1291 66.3043 20.7569Z" fill="black"/>
<path d="M74.5938 11.0581H81.057V13.9385H81.1975C82.462 11.6904 84.2184 10.4961 87.0285 10.4961C89.4873 10.4961 91.3139 11.6904 92.2272 13.798H92.3677C93.9132 11.2689 95.9505 10.4961 98.3391 10.4961C102.835 10.4961 104.732 13.798 104.732 18.2239V30.3073H97.9879V19.4182C97.9879 17.4511 97.3556 16.1866 95.6695 16.1866C93.9835 16.1866 93.1404 17.7321 93.1404 19.8397V30.3073H86.3962V19.4182C86.3962 17.4511 85.7639 16.1866 84.0778 16.1866C82.3918 16.1866 81.5488 17.7321 81.5488 19.8397V30.3073H74.5938V11.0581Z" fill="black"/>
<path d="M113.232 27.7799H113.162V30.309H106.699V3.33203H113.443V13.0269H113.584C114.848 11.3408 116.605 10.4275 119.063 10.4275C123.911 10.4275 126.721 14.7832 126.721 20.6142C126.721 27.1477 123.7 30.9413 118.642 30.9413C116.534 30.9413 114.356 29.9578 113.232 27.7799ZM119.766 20.5439C119.766 17.4528 118.642 15.4155 116.605 15.4155C114.497 15.4155 113.232 17.4528 113.232 20.5439C113.232 23.635 114.567 25.6724 116.605 25.6724C118.642 25.6724 119.766 23.7053 119.766 20.5439Z" fill="black"/>
<path d="M127.494 20.6827C127.494 14.641 131.499 10.4961 137.259 10.4961C140.14 10.4961 142.317 11.4094 144.003 13.0252C146.252 15.203 147.235 18.5751 147.165 22.5093H134.238C134.519 24.8979 135.643 26.1624 137.681 26.1624C138.875 26.1624 139.929 25.6004 140.35 24.3359H146.884C145.76 28.7618 142.317 30.9396 137.47 30.9396C131.499 30.8693 127.494 26.7947 127.494 20.6827ZM134.238 18.6454H140.421C140.28 16.3271 139.016 15.1328 137.4 15.1328C135.503 15.0625 134.449 16.3973 134.238 18.6454Z" fill="black"/>
<path d="M154.822 14.3621H154.963C156.368 11.6925 158.194 10.6387 160.513 10.6387C161.075 10.6387 161.426 10.7089 161.637 10.8494V16.7506H161.496C157.492 16.0481 155.173 17.9449 155.173 22.3006V30.3797H148.359V11.0602H154.822V14.3621Z" fill="black"/>
<path d="M162.339 30.3795H168.873C169.154 31.2225 169.997 31.9953 171.612 31.9953C173.79 31.9953 174.563 30.6605 174.563 28.6232V27.2181H174.423C173.369 28.4827 171.893 29.3959 169.786 29.3959C165.641 29.3959 161.988 26.3048 161.988 20.2631C161.988 14.7131 164.938 10.4277 169.435 10.4277C172.034 10.4277 173.579 11.4815 174.633 13.0973H174.774V10.9898H181.237V27.7099C181.237 30.801 180.183 33.1896 178.567 34.5946C176.881 36.0699 174.493 36.7022 171.753 36.7022C166.554 36.7725 162.971 34.6649 162.339 30.3795ZM174.844 19.9821C174.844 17.5935 173.72 15.6264 171.753 15.6264C169.856 15.6264 168.662 17.3125 168.662 19.9821C168.662 22.5814 169.856 24.408 171.753 24.408C173.65 24.408 174.844 22.5112 174.844 19.9821Z" fill="black"/>
</g>
<defs>
<clipPath id="clip0_7731_32137">
<rect width="181" height="40" fill="white"/>
</clipPath>
</defs>
</svg>
