<svg width="163" height="40" viewBox="0 0 163 40" fill="none" xmlns="http://www.w3.org/2000/svg">
<path d="M51.6693 28.407H44.3118V11.469H51.6693C56.969 11.469 59.6228 14.1386 59.6228 19.4757C59.6209 25.4286 56.969 28.407 51.6693 28.407ZM47.4554 25.6804H51.1932C54.7146 25.6804 56.4733 23.6128 56.4733 19.4738C56.4733 15.9504 54.7126 14.1878 51.1932 14.1878H47.4554V25.6804ZM62.916 28.407H59.6858L66.8918 11.469H70.2735L77.633 28.407H74.2513L72.1149 23.7879H66.6794L67.7594 21.0633H71.2847L68.5069 14.7012L62.916 28.407ZM75.8566 11.469H88.7341V14.1917H83.8691V28.407H80.7255V14.1917H75.8566V11.469ZM90.3512 28.407H87.121L94.327 11.469H97.7087L105.068 28.407H101.683L99.5461 23.7879H94.1106L95.1906 21.0633H98.7159L95.9402 14.7012L90.3512 28.407ZM114.513 28.407H107.155V11.469H114.513C119.817 11.469 122.466 14.1386 122.466 19.4757C122.466 25.4286 119.817 28.407 114.513 28.407ZM110.301 25.6804H114.039C117.558 25.6804 119.323 23.6128 119.323 19.4738C119.323 15.9504 117.56 14.1878 114.039 14.1878H110.301V25.6804ZM124.597 19.9616C124.597 14.2173 127.44 11.3471 133.121 11.3471C138.716 11.3471 141.509 14.2173 141.509 19.9616C141.509 25.6726 138.714 28.529 133.121 28.529C127.691 28.529 124.851 25.6726 124.597 19.9616ZM133.121 25.7985C136.536 25.7985 138.246 23.8292 138.246 19.8869C138.246 16.0075 136.536 14.0658 133.121 14.0658C129.615 14.0658 127.863 16.0075 127.863 19.8869C127.863 23.8292 129.615 25.7985 133.121 25.7985ZM154.633 21.5531V25.5191C153.907 25.708 153.258 25.8024 152.685 25.8024C148.839 25.8024 146.919 23.7683 146.919 19.702C146.919 15.9465 148.957 14.0717 153.032 14.0717C154.733 14.0717 156.315 14.3884 157.779 15.0199V12.1753C156.315 11.6245 154.653 11.3471 152.794 11.3471C146.701 11.3471 143.654 14.1307 143.654 19.702C143.654 25.584 146.648 28.529 152.638 28.529C154.698 28.529 156.409 28.23 157.779 27.628V18.7656H152.699L151.637 21.5512L154.633 21.5531ZM31.6034 28.3106L28.2846 26.123L25.5167 30.7461L22.2983 29.8057L19.4635 34.1317L19.6091 35.493L35.0185 32.6543L34.1234 23.0266L31.6034 28.3106ZM17.2326 24.1617L19.7055 23.8214C20.1048 24.0004 20.3842 24.0692 20.8642 24.1912C21.6117 24.386 22.4754 24.5729 23.756 23.9276C24.0531 23.7801 24.6747 23.2115 24.9246 22.8889L35.0539 21.0515L36.0867 33.5573L18.7337 36.6852L17.2326 24.1617ZM36.0474 19.6547L35.048 19.8456L33.128 0L0.398926 3.79482L4.43178 36.516L8.26201 35.9593C7.95708 35.5225 7.47904 34.9934 6.66657 34.3166C5.53737 33.3802 5.93672 31.7868 6.60362 30.7815C7.48298 29.0838 12.0214 26.9237 11.7637 24.2089C11.6712 23.2214 11.5139 21.9368 10.5971 21.0554C10.5637 21.4213 10.6247 21.7735 10.6247 21.7735C10.6247 21.7735 10.2489 21.2935 10.0601 20.6384C9.87318 20.3866 9.7276 20.3079 9.52891 19.9715C9.38727 20.359 9.40694 20.8095 9.40694 20.8095C9.40694 20.8095 9.10005 20.0816 9.0489 19.4679C8.86595 19.7433 8.8207 20.2646 8.8207 20.2646C8.8207 20.2646 8.42135 19.1177 8.51185 18.5C8.32889 17.9629 7.7879 16.8967 7.94134 14.473C8.94071 15.1734 11.1401 15.0061 11.9958 13.7432C12.2811 13.3242 12.4758 12.1832 11.8542 9.93459C11.4548 8.4926 10.4673 6.34437 10.0817 5.52796L10.0365 5.5614C10.2391 6.21846 10.6581 7.59357 10.8194 8.26243C11.3053 10.2867 11.4352 10.991 11.207 11.9235C11.0122 12.734 10.5479 13.2651 9.3676 13.8592C8.18725 14.4553 6.62132 13.0055 6.52099 12.9268C5.37409 12.014 4.48686 10.5228 4.3885 9.79885C4.2862 9.00605 4.8449 8.52998 5.12818 7.88275C4.7249 7.99882 4.2744 8.20341 4.2744 8.20341C4.2744 8.20341 4.81146 7.64668 5.47442 7.16667C5.74983 6.98569 5.90918 6.86962 6.19836 6.62962C5.77934 6.62372 5.43901 6.63355 5.43901 6.63355C5.43901 6.63355 6.13738 6.25584 6.86133 5.98239C6.33214 5.95879 5.82459 5.97846 5.82459 5.97846C5.82459 5.97846 7.38265 5.28205 8.61217 4.77057C9.45809 4.42434 10.2843 4.52663 10.7486 5.19746C11.3584 6.07682 11.9978 6.55486 13.3552 6.85192C14.1893 6.48207 14.4411 6.29322 15.4877 6.00797C16.4084 4.99484 17.1323 4.86303 17.1323 4.86303C17.1323 4.86303 16.7743 5.19156 16.6779 5.70895C17.2012 5.29779 17.7736 4.95352 17.7736 4.95352C17.7736 4.95352 17.5513 5.22697 17.3448 5.66173L17.392 5.73255C18.0018 5.36665 18.7179 5.07943 18.7179 5.07943C18.7179 5.07943 18.5133 5.3391 18.2733 5.67354C18.7337 5.6696 19.6661 5.69321 20.0261 5.73452C22.1626 5.78173 22.6052 3.45252 23.4255 3.16136C24.4524 2.79546 24.9108 2.57316 26.6597 4.29056C28.1607 5.766 29.3332 8.40407 28.7509 8.99621C28.263 9.48606 27.299 8.80539 26.2328 7.47357C25.6682 6.76929 25.2433 5.93715 25.0426 4.87877C24.8734 3.98564 24.2183 3.46825 24.2183 3.46825C24.2183 3.46825 24.598 4.31614 24.598 5.06369C24.598 5.47288 24.6492 6.99946 25.3043 7.85521C25.2393 7.98111 25.2098 8.47489 25.137 8.56932C24.3757 7.64865 22.739 6.98962 22.4734 6.79487C23.3764 7.53455 25.4518 9.23425 26.2485 10.8631C27.002 12.4035 26.5574 13.816 26.939 14.1819C27.0472 14.2861 28.56 16.1708 28.8512 17.119C29.3587 18.7695 28.8807 20.5046 28.2177 21.5807L26.3626 21.8699C26.0911 21.7951 25.9082 21.7558 25.6643 21.6161C25.798 21.3781 26.0656 20.7859 26.0675 20.6639L25.9633 20.481C25.3849 21.2994 24.419 22.0941 23.6144 22.5505C22.5619 23.1466 21.3501 23.0541 20.5612 22.8102C18.3205 22.1197 16.2018 20.6049 15.6923 20.2075C15.6923 20.2075 15.6766 20.5243 15.7729 20.5971C16.3375 21.2344 17.632 22.3873 18.8832 23.1899L16.2175 23.483L17.4785 33.2976C16.9199 33.3783 16.8333 33.4176 16.2215 33.5042C15.6825 31.5999 14.6516 30.3546 13.5244 29.6306C12.5309 28.9913 11.1598 28.8477 9.84564 29.1074L9.76105 29.2057C10.6738 29.1113 11.7519 29.2431 12.8575 29.9434C13.9434 30.63 14.8188 32.4045 15.1415 33.4727C15.5546 34.8379 15.8398 36.2976 14.7283 37.8459C13.9375 38.9456 11.6319 39.5534 9.76695 38.2393C10.2647 39.04 10.9375 39.6951 11.8424 39.817C13.188 40 14.4647 39.7659 15.3421 38.8649C16.0916 38.0937 16.491 36.4806 16.3848 34.7829L17.571 34.6117L17.9999 37.659L37.6487 35.2924L36.0474 19.6547ZM24.0924 11.3766C24.0373 11.5025 23.9508 11.5831 24.0806 11.9904L24.0885 12.014L24.1082 12.0671L24.1613 12.1891C24.3954 12.6651 24.6511 13.1156 25.078 13.3458C25.1882 13.3281 25.3043 13.3143 25.4223 13.3084C25.8236 13.2907 26.0774 13.3537 26.2387 13.4422C26.2525 13.3615 26.2564 13.2455 26.2466 13.0723C26.2151 12.4684 26.3666 11.4415 25.2059 10.9005C24.7672 10.6979 24.1534 10.7589 23.9488 11.0146C23.9862 11.0185 24.0196 11.0264 24.0452 11.0362C24.358 11.1425 24.1495 11.2487 24.0924 11.3766ZM27.3463 17.0127C27.1948 16.9281 26.4826 16.9616 25.983 17.0206C25.0308 17.1327 24.0019 17.4632 23.7757 17.6383C23.3665 17.955 23.5514 18.5078 23.8544 18.7341C24.7042 19.3675 25.4479 19.7944 26.2328 19.6902C26.7148 19.6272 27.1397 18.8639 27.4407 18.1695C27.6492 17.6934 27.6492 17.18 27.3463 17.0127ZM18.9127 12.1241C19.1822 11.8684 17.5749 11.534 16.3277 12.3838C15.409 13.0114 15.3795 14.357 16.2589 15.1183C16.3474 15.193 16.4202 15.2481 16.4871 15.2914C16.7448 15.1694 17.0379 15.0475 17.3743 14.9393C17.9448 14.7543 18.4169 14.6579 18.8064 14.6088C18.9933 14.4002 19.2097 14.0343 19.1546 13.3714C19.0819 12.4684 18.3992 12.612 18.9127 12.1241Z" fill="#632CA6"/>
</svg>
