<svg width="219" height="40" viewBox="0 0 219 40" fill="none" xmlns="http://www.w3.org/2000/svg">
<g clip-path="url(#clip0_7731_32043)">
<path fill-rule="evenodd" clip-rule="evenodd" d="M18.3822 31.2993V38.4939C30.4565 38.4939 39.9206 26.828 36.0043 14.0698C35.1458 11.3293 33.6392 8.83729 31.6126 6.80604C29.586 4.77482 27.0994 3.26449 24.3647 2.40373C11.6396 -1.52289 0 7.96316 0 19.9575H7.17947C7.19025 18.1254 7.64276 16.3231 8.49841 14.704C9.35407 13.085 10.5876 11.6971 12.0938 10.6587C13.6001 9.62028 15.3345 8.96201 17.1493 8.74001C18.9641 8.518 20.8056 8.73883 22.5169 9.38367C23.9913 9.91894 25.3304 10.7724 26.4393 11.8836C27.5482 12.9948 28.3999 14.3367 28.934 15.8142C31.8555 23.7366 26.0524 31.2253 18.4914 31.2969V24.2122H11.312V31.2993H5.87335V26.7205H1.31055V31.2993H5.87335V36.8609H11.312V31.2993H18.3822ZM57.759 10.0291C60.8058 10.0291 63.5251 10.7995 65.5915 12.2179C66.7885 12.9817 67.6576 14.0717 68.313 15.698C68.9662 17.0069 69.2914 18.7513 69.2914 20.6051C69.2914 22.459 68.9682 24.2035 68.313 25.6218C67.72 26.969 66.7819 28.135 65.5938 29.0012C63.4181 30.5274 60.8073 31.2907 57.761 31.2907H51.1255V10.0291H57.759ZM57.1081 13.6362H55.0417V27.8127H57.2151C59.6088 27.8127 61.459 27.2699 62.8722 26.3944C64.4011 25.3044 65.2748 23.3323 65.2748 20.6161C65.2748 17.8999 64.5038 16.035 62.8722 15.0545C61.3497 14.0739 59.3928 13.6362 57.1081 13.6362ZM73.0841 9.87066C73.3648 9.75773 73.6654 9.70364 73.9678 9.71173H73.9592C74.6144 9.71173 75.1625 9.93061 75.4881 10.3684C75.7029 10.5816 75.8717 10.8367 75.9845 11.1179C76.0972 11.3991 76.1512 11.7004 76.1432 12.0034C76.1432 12.6105 75.9026 13.1929 75.4741 13.6222C75.0458 14.0516 74.4645 14.2928 73.8585 14.2928C73.2526 14.2928 72.6716 14.0516 72.243 13.6222C71.8147 13.1929 71.5739 12.6105 71.5739 12.0034C71.5618 11.6897 71.6248 11.3776 71.7572 11.0932C71.89 10.8088 72.0885 10.5603 72.3363 10.3684C72.5491 10.153 72.8035 9.98361 73.0841 9.87066ZM75.8005 16.2539H72.0087V31.192H75.8005V16.2539ZM89.1959 17.3797C88.149 16.5041 86.9181 15.9322 85.6053 15.9322C84.6466 15.911 83.6945 16.0953 82.8125 16.4728C81.9308 16.8503 81.1397 17.4122 80.492 18.1209C79.1334 19.5631 78.3919 21.4807 78.4259 23.4637C78.4259 25.5364 79.0811 27.3881 80.3916 28.8064C81.7022 30.2246 83.4364 30.8792 85.5049 30.8792C86.8357 30.9001 88.1363 30.4783 89.2025 29.6797V30.0058C89.2025 31.2052 88.8772 32.1947 88.2241 32.8513C87.571 33.5079 86.6953 33.8319 85.5049 33.8319C83.7574 33.8319 82.6763 33.175 81.3723 31.3234L78.7512 33.8319L78.8605 33.9412C79.4043 34.7052 80.2738 35.4734 81.3615 36.2307C82.4492 36.9881 83.8621 37.325 85.494 37.325C87.7787 37.325 89.5192 36.6684 90.8232 35.2521C92.1272 33.8362 92.8896 32.0897 92.8896 29.8001V16.2539H89.1959V17.3797ZM85.815 27.4932C86.907 27.4932 87.7807 27.1626 88.4361 26.3988L88.4601 26.3922C89.113 25.6371 89.4386 24.6412 89.4386 23.4483C89.4386 22.2555 89.1153 21.2727 88.4601 20.5045C87.8047 19.7362 86.931 19.4101 85.839 19.4101C84.747 19.4101 83.8733 19.7406 83.2179 20.5045C82.5627 21.2683 82.2154 22.262 82.2154 23.4549C82.2154 24.6478 82.5387 25.6305 83.1938 26.3988C83.8493 27.167 84.723 27.4932 85.815 27.4932ZM100.207 16.2517H96.3996L96.3756 16.2539V31.19H100.207V16.2517ZM98.2244 9.7117C97.923 9.70436 97.6226 9.75843 97.3426 9.87071L98.2244 9.7117ZM104.643 12.2179H108.336L108.45 16.3612H111.92V19.7428H108.439V25.4029C108.439 26.3922 108.55 27.0466 108.876 27.3728C109.094 27.7011 109.749 27.8105 110.623 27.8105L111.934 27.7011V31.0827H111.715C111.103 31.1736 110.484 31.2101 109.865 31.192C108.024 31.192 106.6 30.7567 105.84 29.9927C105.079 29.2288 104.643 27.8193 104.643 25.8494V19.6333H102.459V16.2539H104.643V12.2179ZM133.245 10.0291H129.438L129.442 10.0422V31.2907H133.245V10.0291ZM169.363 27.712C170.037 27.1923 170.656 26.6057 171.213 25.961V25.9479L173.713 28.4562C172.191 30.6361 170.016 31.8357 167.297 31.8357C166.297 31.8529 165.305 31.6578 164.387 31.2632C163.468 30.8686 162.644 30.2834 161.967 29.5462C160.545 28.1279 159.783 26.1733 159.783 23.9846C159.758 21.9161 160.542 19.92 161.967 18.423C163.489 16.8974 165.23 16.1335 167.297 16.1335C169.8 16.1335 171.866 17.1141 173.497 19.1868L170.997 21.5945C169.909 20.2856 168.605 19.5217 167.408 19.5217C166.893 19.4981 166.38 19.5941 165.908 19.8022C165.436 20.0102 165.019 20.3248 164.689 20.7212C163.922 21.5945 163.596 22.575 163.596 23.8839C163.596 25.1928 163.926 26.1711 164.689 27.0466C165.033 27.4241 165.451 27.7263 165.917 27.9346C166.383 28.1428 166.887 28.2526 167.397 28.257C168.09 28.2606 168.77 28.072 169.363 27.712ZM184.366 16.6742C185.227 17.0679 185.978 17.6695 186.55 18.4251L186.513 18.4076C187.069 19.0626 187.446 19.8517 187.605 20.6971C187.918 21.612 188.066 22.5755 188.042 23.5425V24.9608H178.034C178.148 25.9369 178.471 26.7052 179.126 27.2502C179.876 27.8308 180.8 28.1394 181.747 28.1257C182.392 28.1498 183.031 27.9986 183.597 27.688C184.009 27.51 184.381 27.2501 184.689 26.9241C184.804 26.8093 184.918 26.7079 185.027 26.6109C185.232 26.4286 185.42 26.2614 185.563 26.0486L188.064 28.4562L187.955 28.5656C186.323 30.6384 184.255 31.619 181.754 31.619C179.469 31.619 177.726 30.8485 176.315 29.4302C174.904 28.0119 174.249 26.158 174.249 23.8686C174.209 21.8568 174.863 19.8927 176.099 18.307C177.405 16.7814 179.146 16.0175 181.212 16.0175C182.3 15.9913 183.379 16.216 184.366 16.6742ZM179.371 20.1718C178.896 20.6588 178.559 21.2629 178.392 21.9228H184.165C184.058 21.2662 183.84 20.6095 183.403 20.1718C182.968 19.6268 182.21 19.4079 181.337 19.4079C180.974 19.3919 180.612 19.4515 180.273 19.583C179.935 19.7145 179.628 19.915 179.371 20.1718ZM196.342 16.0329C198.299 16.0329 199.926 16.4706 201.018 17.4511L201.025 17.4534C202.228 18.4339 202.772 19.8457 202.772 21.5966V31.192H199.074V29.9927C197.768 30.9799 196.453 31.5249 195.049 31.5249C193.644 31.5249 192.436 31.1966 191.46 30.3253C190.484 29.4543 190.047 28.3643 190.047 26.946C190.047 25.427 190.597 24.1137 191.794 23.2382C192.991 22.3627 194.514 21.925 196.364 21.925C197.288 21.9186 198.207 22.0666 199.083 22.3627V21.5989C199.095 21.2852 199.032 20.9731 198.9 20.6887C198.767 20.4043 198.569 20.1558 198.321 19.9639C197.763 19.5207 197.067 19.2883 196.355 19.3072C194.833 19.3072 193.745 19.861 192.766 21.496L190.364 19.2065C190.899 18.1122 191.886 17.3439 192.865 16.7989C193.965 16.3267 195.145 16.0668 196.342 16.0329ZM196.136 25.0833C195.368 25.0833 194.826 25.195 194.389 25.5211L194.391 25.5145C194.189 25.6516 194.017 25.8287 193.886 26.035C193.755 26.2413 193.667 26.4724 193.629 26.714C193.629 27.1517 193.841 27.48 194.173 27.8083C194.505 28.1366 195.047 28.2461 195.702 28.2461C196.901 28.2683 198.065 27.8405 198.965 27.0466V25.6283C198.056 25.2999 197.102 25.116 196.136 25.0833ZM212.874 15.919C214.724 15.919 216.133 16.4706 217.225 17.67C218.203 18.8695 218.747 20.5052 218.857 22.5772V31.3125H215.067V22.5904C215.083 21.7257 214.816 20.8797 214.305 20.1827C214.068 19.893 213.767 19.6628 213.426 19.5108C213.084 19.3587 212.712 19.289 212.339 19.3072C211.924 19.2943 211.513 19.3759 211.134 19.5458C210.756 19.7156 210.421 19.9693 210.155 20.2878C209.611 20.94 209.393 21.9184 209.393 23.0128V31.295H205.585V16.3568H209.286V17.2323C210.155 16.3568 211.351 15.919 212.874 15.919ZM120.089 16.0329C122.046 16.0329 123.674 16.4706 124.766 17.4511L124.768 17.4534C125.86 18.4339 126.515 19.8457 126.515 21.5966V31.19H122.817V29.9905C121.511 30.9776 120.196 31.5226 118.792 31.5226C117.388 31.5226 116.18 31.1943 115.203 30.3233C114.227 29.4521 113.79 28.3621 113.79 26.9438C113.79 25.4248 114.34 24.1115 115.537 23.236C116.734 22.3605 118.258 21.9228 120.107 21.9228C121.031 21.9165 121.95 22.0644 122.826 22.3605V21.5966C122.838 21.283 122.775 20.9709 122.643 20.6865C122.51 20.4021 122.312 20.1536 122.064 19.9617C121.506 19.5186 120.81 19.2861 120.098 19.305C118.576 19.305 117.488 19.8588 116.51 21.4938L114.107 19.2043C114.642 18.11 115.629 17.3417 116.608 16.7967C117.71 16.3248 118.891 16.0656 120.089 16.0329ZM119.77 25.0833C119.002 25.0833 118.46 25.195 118.023 25.5211L118.025 25.5145C117.686 25.853 117.426 26.2626 117.263 26.714C117.263 27.1517 117.475 27.48 117.807 27.8083C118.139 28.1366 118.681 28.2461 119.336 28.2461C120.535 28.2683 121.699 27.8405 122.599 27.0466V25.6283C121.69 25.2999 120.736 25.116 119.77 25.0833ZM140.81 29.7856C142.6 30.9831 144.704 31.6219 146.857 31.621C149.739 31.6096 152.499 30.4571 154.537 28.4143C156.575 26.3717 157.723 23.6049 157.734 20.7168C157.734 18.5599 157.096 16.4515 155.9 14.6582C154.704 12.8649 153.004 11.4673 151.016 10.642C149.027 9.81685 146.839 9.60116 144.728 10.0223C142.617 10.4434 140.678 11.4823 139.156 13.0078C137.634 14.5332 136.599 16.4766 136.179 18.5921C135.76 20.7076 135.976 22.9003 136.8 24.8927C137.624 26.8852 139.02 28.5879 140.81 29.7856ZM142.925 14.7111C144.089 13.9339 145.458 13.5202 146.857 13.5224L146.848 13.5267C147.777 13.525 148.697 13.7071 149.556 14.0627C150.415 14.4183 151.195 14.9403 151.852 15.5988C152.509 16.2573 153.03 17.0393 153.384 17.8999C153.739 18.7605 153.92 19.6828 153.918 20.6139C153.917 22.0159 153.501 23.3861 152.723 24.5513C151.945 25.7164 150.84 26.6241 149.547 27.1595C148.254 27.6949 146.831 27.834 145.459 27.5592C144.087 27.2843 142.828 26.6079 141.839 25.6155C140.851 24.6231 140.179 23.3592 139.908 21.9838C139.636 20.6085 139.778 19.1833 140.315 17.8888C140.852 16.5942 141.76 15.4884 142.925 14.7111Z" fill="#0080FF"/>
</g>
<defs>
<clipPath id="clip0_7731_32043">
<rect width="219" height="40" fill="white"/>
</clipPath>
</defs>
</svg>
