<svg width="133" height="40" viewBox="0 0 133 40" fill="none" xmlns="http://www.w3.org/2000/svg">
<g clip-path="url(#clip0_7731_32102)">
<path d="M8.14796 33.8926H7.23193V39.9994H8.14796V33.8926Z" fill="#0E182C"/>
<path d="M15.9135 39.9994L12.5758 35.3471V39.9994H11.6587V33.8926H12.5947L15.9419 38.5636V33.8926H16.8495V39.9994H15.9135Z" fill="#0E182C"/>
<path d="M32.7079 39.9994L29.3702 35.3471V39.9994H28.4531V33.8926H29.3892L32.7363 38.5636V33.8926H33.644V39.9994H32.7079Z" fill="#0E182C"/>
<path d="M39.4785 39.9994C38.6872 39.9994 38.0466 39.7457 37.5661 39.2474C37.0857 38.7491 36.8501 38.0695 36.8501 37.2269V36.6561C36.8501 36.1034 36.9631 35.6141 37.1892 35.1973C37.4153 34.7805 37.7356 34.4544 38.1408 34.2278C38.5458 34.0013 39.0263 33.8926 39.5632 33.8926C40.2698 33.8926 40.8539 34.0738 41.2873 34.4181C41.7206 34.7715 41.975 35.2607 42.0409 35.8859V35.904H41.1177V35.895C41.0423 35.4329 40.8727 35.0886 40.6278 34.8802C40.3735 34.6718 40.0154 34.5631 39.5632 34.5631C39.0075 34.5631 38.5646 34.7443 38.2443 35.1068C37.924 35.4691 37.7638 35.9947 37.7638 36.6651V37.2359C37.7638 37.8701 37.9147 38.3776 38.2161 38.7581C38.5176 39.1297 38.9415 39.3199 39.4785 39.3199C39.9684 39.3199 40.3452 39.2202 40.5996 39.03C40.8539 38.8398 41.0328 38.4953 41.1177 38.0152V38.0062H42.0315V38.0242C41.9467 38.6494 41.6829 39.1387 41.2402 39.483C40.7974 39.8272 40.2038 39.9994 39.4785 39.9994Z" fill="#0E182C"/>
<path d="M46.1631 33.8926H45.2471V39.9994H46.1631V33.8926Z" fill="#0E182C"/>
<path d="M73.9824 39.9994C73.1911 39.9994 72.5505 39.7454 72.07 39.2463C71.5896 38.7472 71.354 38.0666 71.354 37.2228V36.6511C71.354 36.0976 71.467 35.6075 71.6931 35.1901C71.9192 34.7727 72.2395 34.4462 72.6447 34.2283C73.0497 34.0014 73.5302 33.8926 74.0671 33.8926C74.7832 33.8926 75.3578 34.0741 75.7913 34.4188C76.2245 34.7727 76.4789 35.2628 76.5448 35.8889V35.9071H75.6311V35.8979C75.5557 35.4352 75.3861 35.0903 75.1412 34.8816C74.8868 34.6729 74.5288 34.564 74.0766 34.564C73.5207 34.564 73.078 34.7456 72.7577 35.1085C72.4374 35.4715 72.2772 35.9978 72.2772 36.6692V37.241C72.2772 37.8761 72.4281 38.3842 72.7294 38.7654C73.031 39.1465 73.4455 39.328 73.9919 39.328C74.4816 39.328 74.8586 39.2281 75.1129 39.0376C75.3673 38.8471 75.5462 38.5022 75.6311 38.0213V38.0123H76.5448V38.0304C76.4601 38.6565 76.1963 39.1465 75.7535 39.4914C75.3108 39.8271 74.7172 39.9994 73.9824 39.9994Z" fill="#0E182C"/>
<path d="M79.751 39.9994V33.8926H80.6723V39.3095H83.8731V39.9994H79.751Z" fill="#0E182C"/>
<path d="M88.8442 39.9994C88.3228 39.9994 87.8574 39.8813 87.4478 39.6541C87.0475 39.4269 86.731 39.0907 86.5075 38.6727C86.2842 38.2456 86.1724 37.7457 86.1631 37.1914V36.7643C86.1631 36.1918 86.2748 35.6828 86.4982 35.2466C86.7217 34.8104 87.0382 34.4743 87.4385 34.2379C87.8481 34.0016 88.3135 33.8926 88.8348 33.8926C89.3655 33.8926 89.8402 34.0107 90.2405 34.2379C90.6408 34.4651 90.9573 34.8013 91.1808 35.2376C91.3948 35.6738 91.5066 36.1827 91.5066 36.7643V37.1369C91.5066 37.7185 91.3948 38.2274 91.1808 38.6636C90.9666 39.0998 90.6501 39.4361 90.2498 39.6633C89.8495 39.8813 89.3748 39.9994 88.8442 39.9994ZM88.8348 34.5833C88.2855 34.5833 87.8574 34.7741 87.5408 35.1376C87.2243 35.5101 87.0661 36.0281 87.0568 36.6915V37.1277C87.0568 37.8002 87.215 38.3364 87.5315 38.7181C87.8481 39.0998 88.2855 39.2998 88.8442 39.2998C89.4028 39.2998 89.8402 39.1179 90.1475 38.7544C90.4547 38.3909 90.6129 37.8639 90.6222 37.1823V36.746C90.6222 36.0555 90.464 35.5101 90.1568 35.1376C89.8402 34.7741 89.3935 34.5833 88.8348 34.5833Z" fill="#0E182C"/>
<path d="M97.1457 39.9994C96.4101 39.9994 95.8159 39.8225 95.382 39.4688C94.9481 39.115 94.7219 38.6217 94.7124 37.9979V33.8926H95.6284V37.9651C95.6284 38.3933 95.7498 38.7333 96.0139 38.9662C96.2781 39.1988 96.6553 39.3199 97.1457 39.3199C97.6362 39.3199 98.0228 39.1988 98.2869 38.9662C98.551 38.7333 98.6831 38.3982 98.6831 37.97V33.8926H99.5979V37.9793C99.5979 38.5472 99.3904 39.022 98.9942 39.3758C98.5982 39.7388 98.0605 39.9436 97.3816 39.9808L97.1457 39.9994Z" fill="#0E182C"/>
<path d="M102.804 39.9994V33.8926H104.709C105.294 33.8926 105.813 34.0138 106.266 34.2469C106.718 34.4799 107.067 34.8156 107.312 35.2538C107.558 35.6827 107.68 36.1862 107.69 36.7456V37.1372C107.69 37.7059 107.567 38.2187 107.322 38.6475C107.077 39.0764 106.728 39.4121 106.275 39.6451C105.822 39.8782 105.285 39.9994 104.69 39.9994H102.804ZM103.719 39.3095H104.634C105.313 39.3095 105.841 39.1136 106.218 38.7408C106.596 38.3585 106.784 37.8178 106.784 37.1092V36.7549C106.784 36.0743 106.605 35.5335 106.256 35.1605C105.898 34.7784 105.398 34.5918 104.747 34.5825H103.728L103.719 39.3095Z" fill="#0E182C"/>
<path d="M-0.0966797 39.9994V33.8926H4.17813V34.8063H0.837232V36.5217L3.24422 36.4845V37.4075L0.837232 37.4355V39.9994H-0.0966797Z" fill="#0E182C"/>
<path d="M24.7789 39.9994L24.1835 38.5356H21.2821L20.696 39.9994H19.751L22.3311 33.8926H23.125L25.7052 39.9994H24.7789ZM21.6601 37.6126H23.8149L22.7375 34.9275L21.6601 37.6126Z" fill="#0E182C"/>
<path d="M54.2348 39.9994L53.6488 38.5356H50.7475L50.1613 39.9994H49.2163L51.7965 33.8926H52.5904L55.1705 39.9994H54.2348ZM51.116 37.6126H53.2708L52.1934 34.9275L51.116 37.6126Z" fill="#0E182C"/>
<path d="M57.9185 39.9994V33.8926H58.8398V39.0764H62.0406V39.9994H57.9185Z" fill="#0E182C"/>
<path d="M101.507 0L93.8059 12.044L86.0771 0H79.9033V27.6336H86.0771V11.4249L90.5352 18.4224H97.0294L101.507 11.4061V27.6336H107.69V0H101.507Z" fill="#0E182C"/>
<path d="M17.5995 6.13455L21.43 0H-0.0966797V6.11579V12.2409V18.3568V27.6336H6.0979V18.4224H17.5995L17.5806 12.2785H6.0979V6.13455H17.5995Z" fill="#0E182C"/>
<path d="M35.5521 0C27.9219 0 21.7354 6.18663 21.7354 13.8168C21.7354 21.447 27.9219 27.6336 35.5521 27.6336C43.1824 27.6336 49.3689 21.447 49.3689 13.8168C49.3689 6.18663 43.1824 0 35.5521 0ZM35.5521 21.2408C31.3152 21.2408 27.875 17.8006 27.875 13.5637C27.875 9.32681 31.3152 5.88667 35.5521 5.88667C39.7891 5.88667 43.2292 9.32681 43.2292 13.5637C43.2292 17.8006 39.7891 21.2408 35.5521 21.2408Z" fill="#0E182C"/>
<path d="M74.6468 14.858C75.4613 13.6949 75.9252 12.2878 76.0201 10.6182C76.0768 9.99911 76.0958 9.32376 76.039 8.62026C75.8211 5.89066 75.357 4.23977 73.6523 2.39191C71.8813 0.469001 69.8828 0.0656603 67.5341 0H59.2564H53.1855V27.6336H59.3891V18.4224H64.3139L69.0399 27.6336H76.0863L70.3091 17.6814C72.1465 17.1373 73.6901 16.2368 74.6468 14.858ZM66.7101 12.5411C66.7007 12.5505 59.3891 12.5411 59.3891 12.5411V5.86252H66.4449C66.4828 5.86252 66.9278 5.88128 66.9659 5.89066C68.6138 6.08765 69.9017 7.48527 69.9017 9.20182C69.8923 11.0028 68.4811 12.4567 66.7101 12.5411Z" fill="#0E182C"/>
<path d="M117.461 16.9313H111.506C111.506 22.8431 116.325 27.6356 122.27 27.6356C128.214 27.6356 133.033 22.8431 133.033 16.9313C133.033 13.1237 131.034 9.78037 128.023 7.88281L124.84 12.8884C126.186 13.7362 127.079 15.2301 127.079 16.9313C127.079 19.5729 124.926 21.7141 122.27 21.7141C119.614 21.7141 117.461 19.5729 117.461 16.9313Z" fill="#00B4B4"/>
<path d="M129.14 6.12498H111.506V0H133.033L129.14 6.12498Z" fill="#00B4B4"/>
</g>
<defs>
<clipPath id="clip0_7731_32102">
<rect width="133" height="40" fill="white"/>
</clipPath>
</defs>
</svg>
