<svg width="142" height="40" viewBox="0 0 142 40" fill="none" xmlns="http://www.w3.org/2000/svg">
<g clip-path="url(#clip0_7731_32088)">
<mask id="mask0_7731_32088" style="mask-type:luminance" maskUnits="userSpaceOnUse" x="0" y="0" width="142" height="40">
<path d="M0 39.9961H141.53V0.0151329H0V39.9961Z" fill="white"/>
</mask>
<g mask="url(#mask0_7731_32088)">
<path d="M0 39.9961H141.53V-0.00714111H0V39.9961Z" fill="#FCD205"/>
<path d="M117.535 30.8516L118.918 24.3023H6.04186L4.65747 30.8516H117.535Z" fill="white"/>
<path d="M131.13 15.376C131.13 15.376 132.644 8.43743 132.665 8.37231H123.046C123.046 8.4162 121.058 17.5803 121.058 17.6238C121.079 17.6238 123.522 17.6238 123.522 17.6238C123.543 17.6238 125.035 10.7067 125.035 10.7067H129.703C129.703 10.7067 128.233 17.645 128.19 17.6889C128.233 17.6889 135.301 17.6889 135.301 17.6889L134.372 21.9681C134.372 21.9681 127.326 21.9681 127.303 21.9681C127.303 22.0116 125.877 28.4959 125.877 28.4959C125.877 28.4959 120.582 28.4959 120.539 28.4959C120.539 28.5171 120.063 30.83 120.042 30.8516H127.909C127.909 30.83 129.315 24.3023 129.315 24.3023C129.315 24.3023 136.339 24.3023 136.383 24.3023C136.383 24.2806 138.242 15.4188 138.242 15.376H131.13Z" fill="#ED1C24"/>
<path d="M113.725 17.43C114.741 17.43 115.433 18.1213 115.433 19.2669C115.433 19.461 115.411 19.634 115.39 19.8285H111.002C111.456 18.3809 112.428 17.43 113.725 17.43ZM115.908 26.0326L116.47 23.4602C115.519 23.7838 114.589 24.0429 113.401 24.0429C112.017 24.0429 110.807 23.5681 110.743 21.9034H117.875C118.134 21.06 118.286 20.2178 118.286 19.4399C118.286 17.0619 116.903 15.116 113.941 15.116C110.093 15.116 107.759 18.273 107.759 21.7528C107.759 24.735 109.748 26.4863 112.839 26.4863C114.092 26.4863 115.086 26.2911 115.908 26.0326ZM104.171 23.8488C102.766 23.8488 101.815 23.2439 101.815 21.4932C101.815 19.4399 103.112 17.7319 105.166 17.7319C105.814 17.7319 106.549 17.9264 107.284 18.2079L107.803 15.7437C106.96 15.4414 105.965 15.2249 104.971 15.2249C101.577 15.2249 98.6807 17.7535 98.6807 21.6449C98.6807 24.8435 100.648 26.3558 103.479 26.3558C104.43 26.3558 105.23 26.1833 105.814 25.946L106.376 23.4164C105.728 23.6543 105.014 23.8488 104.171 23.8488ZM89.2359 26.1617L90.4247 20.693C90.8999 18.4886 91.9813 17.7319 93.1049 17.7319C94.5533 17.7319 94.7262 18.8133 94.4447 20.0448L93.1478 26.1617H96.239L97.6003 19.8935C98.2705 16.7595 96.8226 15.116 94.5533 15.116C93.299 15.116 92.0891 15.6135 91.0512 16.716L91.3319 15.4414H88.4576L86.1447 26.1617H89.2359ZM78.1262 23.0709C78.1262 21.9908 79.077 21.3846 80.6544 21.3846C80.9578 21.3846 81.6268 21.4069 82.2328 21.4932L82.1027 22.0985C81.7346 23.3729 80.6982 24.2385 79.4667 24.2385C78.5798 24.2385 78.1262 23.8061 78.1262 23.0709ZM81.1092 15.181C79.6824 15.181 78.2341 15.5057 77.7588 15.657L77.2401 18.1429C77.9306 17.9488 79.2927 17.5806 80.5038 17.5806C82.1243 17.5806 82.7082 18.0778 82.7082 18.9211C82.7082 19.0718 82.7082 19.2454 82.6653 19.4175L82.6215 19.634C81.8436 19.5477 81.1092 19.4834 80.7622 19.4834C77.6938 19.4834 75.2303 20.6714 75.2303 23.4819C75.2303 25.3187 76.6563 26.4213 78.5148 26.4213C79.8337 26.4213 80.9578 25.9025 81.6923 25.038L81.4543 26.1617H84.1992L85.5397 20.0237C85.6476 19.5689 85.6904 19.094 85.6904 18.6404C85.6904 16.8024 84.6752 15.181 81.1092 15.181ZM66.13 26.1617L67.3185 20.693C67.7945 18.4886 68.8743 17.7319 69.9995 17.7319C71.4479 17.7319 71.6204 18.8133 71.34 20.0448L70.0423 26.1617H73.1331L74.4941 19.8935C75.1645 16.7595 73.7169 15.116 71.4479 15.116C70.1925 15.116 68.9821 15.6135 67.9451 16.716L68.2258 15.4414H65.3515L63.0386 26.1617H66.13ZM60.597 12.4797C60.5312 13.452 61.2451 14.2087 62.1959 14.2087C63.2549 14.2087 64.0116 13.452 64.0756 12.4797C64.1411 11.5073 63.4279 10.7505 62.4766 10.7505C61.418 10.7505 60.6613 11.5073 60.597 12.4797ZM60.1638 15.4414L57.8513 26.1617H60.9209L63.2338 15.4414H60.1638ZM51.4309 26.1617L52.6413 20.5635H57.311L57.8736 17.8186H53.2255L53.9395 14.3816H58.846L59.4509 11.6363H51.3458L48.2763 26.1617H51.4309ZM48.3837 17.797L48.8812 15.4414H45.5748L46.2225 12.4584L43.0015 13.1712L40.9913 22.3354C40.4303 24.9301 41.8559 26.3558 44.4495 26.3558C44.991 26.3558 45.8979 26.2483 46.5472 26.0326L47.0659 23.676C46.5472 23.8061 45.8979 23.9354 45.3368 23.9354C44.4495 23.9354 43.8229 23.6331 44.0398 22.5518L45.056 17.797H48.3837ZM36.6686 23.0059C36.6686 23.8711 35.61 24.0218 34.7239 24.0218C33.5994 24.0218 32.3463 23.7198 31.677 23.503L31.1572 25.9237C32.1302 26.1617 33.3622 26.3558 34.5291 26.3558C37.2952 26.3558 39.5441 25.3187 39.5441 22.7251C39.5441 19.3748 35.5238 19.9586 35.5238 18.4675C35.5238 17.797 36.1722 17.5591 37.1873 17.5591C38.1597 17.5591 39.523 17.9488 39.9762 18.0778L40.4949 15.6359C39.5657 15.3763 38.4632 15.2249 37.4685 15.2249C34.4647 15.2249 32.6493 16.5654 32.6493 18.7917C32.6493 22.0546 36.6686 21.5148 36.6686 23.0059ZM25.0403 26.4863C28.4341 26.4863 30.7251 24.0218 31.2438 20.8015C31.7845 17.5806 29.9907 15.116 26.5965 15.116C23.2033 15.116 20.9121 17.5806 20.3933 20.8015C19.853 24.0218 21.6471 26.4863 25.0403 26.4863ZM25.3221 24.0006C24.0895 24.0006 23.1171 23.0278 23.5703 20.8015C24.024 18.5753 25.1053 17.6029 26.3373 17.6029C27.5695 17.6029 28.5423 18.5965 28.0664 20.8015C27.6123 23.0059 26.5536 24.0006 25.3221 24.0006ZM12.2878 21.7304H13.6499C17.9945 21.7304 20.4156 19.5912 20.4156 16.0245C20.4156 13.3657 18.5337 11.6363 15.3135 11.6363H11.2943L8.22461 26.1617H11.337L12.2878 21.7304ZM12.8281 19.0718L13.844 14.2954H15.141C16.5677 14.2954 17.2586 14.8792 17.2586 16.2408C17.2586 17.9915 16.1569 19.0718 14.1259 19.0718H12.8281Z" fill="#231F20"/>
</g>
</g>
<defs>
<clipPath id="clip0_7731_32088">
<rect width="142" height="40" fill="white"/>
</clipPath>
</defs>
</svg>
