<svg width="158" height="40" viewBox="0 0 158 40" fill="none" xmlns="http://www.w3.org/2000/svg">
<g clip-path="url(#clip0_7731_32059)">
<path fill-rule="evenodd" clip-rule="evenodd" d="M40.1925 1.00002C40.7755 1.00152 41.3329 1.10994 41.7701 1.30872C42.1413 1.47888 42.6069 1.765 42.8041 1.9457C43.0009 2.12791 43.3222 2.61431 43.516 3.02843C43.7251 3.47116 43.8705 4.05995 43.8705 4.45901C43.8705 4.85053 43.7234 5.45438 43.522 5.88958C43.3311 6.3037 42.9422 6.8398 42.6596 7.07924C42.3772 7.32017 41.9084 7.6153 41.6199 7.73728C41.3299 7.85925 40.6883 7.95867 40.1925 7.95867C39.6967 7.95867 39.0536 7.85925 38.7651 7.73728C38.4751 7.6153 38.0078 7.32017 37.7254 7.07924C37.4429 6.8398 37.0537 6.3037 36.8629 5.88958C36.6601 5.44987 36.5144 4.85355 36.5158 4.45901C36.5173 4.08555 36.6556 3.47567 36.8239 3.10372C36.9937 2.73027 37.2791 2.26495 37.4594 2.06768C37.6412 1.87041 38.1266 1.54815 38.5398 1.3539C39.0716 1.10242 39.5554 0.99851 40.1925 1.00002ZM0 2.65196L21.8617 2.64142L22.1622 2.96368C22.4357 3.25732 22.4627 3.49224 22.4627 7.99779L14.274 8.07311V29.4565H8.11361V8.07311H0V2.65196ZM34.0697 9.22207C34.1734 9.2537 34.3582 9.2778 34.4829 9.2778C34.6752 9.2778 34.7083 9.70095 34.7083 15.0754L33.5439 15.0242C32.6514 14.9851 32.1856 15.0453 31.553 15.2787C31.0977 15.4459 30.3885 15.8841 29.9754 16.25C29.5622 16.6174 29.0558 17.2484 28.4728 18.3884L28.3977 29.4565H22.3876V9.88015L25.0546 9.88317C27.6089 9.88619 27.7366 9.90122 28.0641 10.222C28.2519 10.4072 28.4037 10.6768 28.4022 10.8213C28.3977 11.0412 28.5435 10.996 29.2617 10.5533C29.7365 10.2611 30.4967 9.88466 30.952 9.71602C31.4057 9.54734 32.2517 9.35461 32.8302 9.28836C33.4086 9.22207 33.966 9.19197 34.0697 9.22207ZM59.3498 9.2477C59.8033 9.2778 60.582 9.39829 61.0776 9.51575C61.5736 9.63471 62.5532 10.0142 63.2562 10.3605C64.2508 10.8514 64.8025 11.258 65.7503 12.2037C66.5094 12.9627 67.1856 13.815 67.549 14.4731C67.869 15.0528 68.2928 16.0693 68.4912 16.7319C68.7722 17.67 68.8534 18.3025 68.8606 19.5931C68.8665 20.6878 68.7841 21.5823 68.6158 22.2283C68.4776 22.7659 68.096 23.7492 67.77 24.4118C67.444 25.0744 66.8864 25.9674 66.5319 26.3966C66.1757 26.8257 65.4455 27.5275 64.9091 27.9566C64.3711 28.3844 63.5265 28.9249 63.031 29.1584C62.535 29.3918 61.7236 29.6854 61.228 29.8104C60.732 29.9354 59.8862 30.0815 59.3498 30.1342C58.8118 30.1884 57.8997 30.1567 57.3212 30.0649C56.7427 29.973 55.8638 29.7667 55.3682 29.6056C54.8722 29.443 54.0774 29.0725 52.7386 28.2518V38.04H46.7283V9.88015H49.4332C51.9379 9.88015 52.1601 9.90276 52.4381 10.1813C52.6034 10.347 52.7386 10.6181 52.7386 10.7837C52.7386 11.0593 52.8109 11.0412 53.6027 10.5683C54.0774 10.2837 54.8888 9.91029 55.4056 9.74012C55.9224 9.56846 56.8345 9.37568 57.4338 9.31092C58.0335 9.2477 58.8946 9.21909 59.3498 9.2477ZM54.7893 16.0859C54.3494 16.4774 53.8879 17.0888 53.6222 17.6354C53.2644 18.3733 53.1832 18.7332 53.1849 19.5931C53.1849 20.1728 53.2856 20.9514 53.4072 21.3248C53.5274 21.6968 53.9512 22.3699 54.3477 22.8186C54.7791 23.308 55.3682 23.7733 55.8187 23.9842C56.3793 24.2447 56.8375 24.3335 57.6217 24.3335C58.4318 24.3335 58.8555 24.2477 59.4625 23.9586C59.8964 23.7523 60.5051 23.3246 60.8145 23.0084C61.1243 22.6921 61.5434 22.0988 61.7448 21.6907C62.0364 21.0989 62.1112 20.7029 62.1206 19.7436C62.1278 18.7528 62.0602 18.3913 61.7431 17.7107C61.5315 17.2544 61.0924 16.6219 60.7664 16.3027C60.4422 15.9834 59.9058 15.5829 59.5751 15.4112C59.165 15.1989 58.6167 15.086 57.8474 15.0528C57.1291 15.0227 56.5026 15.0844 56.1192 15.223C55.7886 15.3435 55.1906 15.732 54.7893 16.0859ZM92.33 9.22509C92.5782 9.2477 93.1188 9.30339 93.5319 9.34856C93.9455 9.39377 94.7913 9.59707 95.4101 9.80036C96.0306 10.0037 97.0452 10.5006 97.664 10.9026C98.2845 11.3062 98.8749 11.749 98.9786 11.8875C99.09 12.0366 99.1142 12.2158 99.0389 12.3272C98.9667 12.4311 98.1898 13.4476 97.3108 14.586C96.4306 15.7245 95.643 16.6566 95.5606 16.6566C95.4781 16.6566 95.1908 16.4458 94.9217 16.1867C94.6531 15.9292 94.1631 15.5799 93.8328 15.4112C93.4945 15.2396 92.8034 15.0739 92.2551 15.0317C91.5925 14.982 91.0366 15.0363 90.527 15.1989C90.102 15.3359 89.4602 15.72 89.0471 16.0859C88.6068 16.4774 88.1456 17.0888 87.8795 17.6354C87.5221 18.3733 87.4409 18.7332 87.4422 19.5931C87.4422 20.1728 87.5429 20.9514 87.6649 21.3248C87.7852 21.6968 88.18 22.3413 88.5392 22.7554C88.906 23.177 89.555 23.692 90.0119 23.9239C90.6715 24.2598 91.029 24.3411 91.8794 24.3411C92.7371 24.3426 93.0963 24.2612 93.8328 23.9029C94.3284 23.6604 94.9205 23.2523 95.1474 22.9963C95.3744 22.7388 95.6447 22.534 95.7484 22.54C95.8521 22.5461 96.7642 23.4948 97.7766 24.6483C98.7895 25.8018 99.6008 26.8047 99.5796 26.8784C99.5588 26.9507 99.1694 27.3257 98.7159 27.7097C98.2607 28.0952 97.4494 28.6404 96.913 28.9234C96.3749 29.205 95.3952 29.5875 94.7343 29.7728C93.8626 30.0167 93.1175 30.1101 92.0295 30.1131C91.2032 30.1146 90.1215 30.0257 89.6255 29.9158C89.1295 29.8044 88.3182 29.5469 87.8226 29.3436C87.3266 29.1403 86.4808 28.6855 85.9444 28.3316C85.4063 27.9778 84.5741 27.2549 84.0917 26.7279C83.6093 26.1993 82.9692 25.3259 82.6704 24.7883C82.3712 24.2492 81.9611 23.3005 81.76 22.6801C81.4625 21.7645 81.3903 21.2224 81.3796 19.8189C81.3707 18.6127 81.4472 17.7905 81.6291 17.1084C81.7732 16.5692 82.1234 15.6552 82.4091 15.0754C82.6943 14.4957 83.2353 13.6313 83.6093 13.1554C83.985 12.6796 84.6808 11.9839 85.1556 11.6119C85.6303 11.2385 86.4583 10.7024 86.9963 10.4208C87.5327 10.1376 88.3785 9.78981 88.8741 9.64824C89.3701 9.50519 90.249 9.34256 90.8275 9.28683C91.406 9.22961 92.0822 9.20253 92.33 9.22509ZM112.013 9.24319C112.426 9.2718 113.238 9.39224 113.816 9.51273C114.395 9.63168 115.341 9.95695 115.92 10.2356C116.498 10.5141 117.406 11.0728 117.938 11.4779C118.468 11.8829 119.201 12.5862 119.566 13.0425C119.931 13.4973 120.421 14.2095 120.654 14.6237C120.887 15.0378 121.219 15.7997 121.392 16.3178C121.563 16.8358 121.778 17.7845 121.87 18.426C121.987 19.2542 121.989 19.9424 121.877 20.7978C121.79 21.4603 121.583 22.4422 121.416 22.9812C121.248 23.5189 120.855 24.3908 120.545 24.9178C120.232 25.4434 119.604 26.2821 119.15 26.7806C118.695 27.279 117.884 27.9717 117.347 28.3196C116.809 28.669 115.965 29.1252 115.469 29.336C114.973 29.5469 114.162 29.8089 113.666 29.9173C113.17 30.0272 112.088 30.1146 111.262 30.1131C110.174 30.1101 109.429 30.0167 108.557 29.7728C107.896 29.5875 106.915 29.2035 106.379 28.9204C105.841 28.6358 105.029 28.0967 104.576 27.7218C104.121 27.3453 103.461 26.6842 103.109 26.252C102.757 25.8198 102.238 25.0247 101.952 24.4872C101.668 23.948 101.296 22.9662 101.126 22.3036C100.918 21.501 100.816 20.6215 100.816 19.6683C100.816 18.7151 100.918 17.8357 101.126 17.033C101.296 16.3705 101.683 15.354 101.988 14.7742C102.36 14.0665 102.962 13.2955 103.821 12.4281C104.526 11.7158 105.473 10.9237 105.928 10.6647C106.382 10.4072 107.262 10.0172 107.881 9.80036C108.502 9.582 109.516 9.3561 110.135 9.29888C110.756 9.24017 111.6 9.21607 112.013 9.24319ZM108.732 15.866C108.415 16.0934 107.928 16.619 107.65 17.033C107.372 17.4472 107.064 18.1248 106.965 18.539C106.865 18.953 106.819 19.6638 106.862 20.1201C106.904 20.5749 107.083 21.2706 107.259 21.6636C107.437 22.0566 107.902 22.7027 108.294 23.0987C108.787 23.5972 109.264 23.9059 109.835 24.0986C110.439 24.3034 110.943 24.3607 111.713 24.3125C112.48 24.2643 112.948 24.1408 113.44 23.8592C113.811 23.6454 114.336 23.2252 114.605 22.9256C114.874 22.6244 115.245 22.0913 115.431 21.7389C115.712 21.2058 115.768 20.861 115.768 19.6683C115.768 18.4757 115.712 18.1308 115.431 17.5978C115.245 17.2454 114.874 16.7138 114.605 16.4172C114.336 16.1205 113.711 15.6778 113.215 15.4353C112.51 15.0905 112.117 14.9956 111.412 15.0031C110.916 15.0092 110.24 15.1116 109.91 15.232C109.579 15.3525 109.049 15.6371 108.732 15.866ZM136.504 9.24617C136.917 9.27631 137.627 9.40429 138.082 9.53078C138.536 9.65727 139.212 9.91932 139.584 10.1136C139.956 10.3063 140.456 10.6226 141.128 11.1602L142.122 10.5096C142.668 10.1512 143.554 9.72505 144.092 9.56092C144.716 9.37117 145.53 9.25975 146.346 9.2537C147.127 9.24617 147.973 9.34256 148.524 9.49919C149.02 9.64071 149.823 9.97049 150.308 10.2325C150.793 10.4945 151.548 11.0803 151.983 11.5366C152.435 12.0095 152.991 12.8181 153.783 14.4731L153.858 29.4565H147.848L147.773 16.8599L147.36 16.2319C147.117 15.8615 146.684 15.4715 146.308 15.2832C145.838 15.0483 145.469 14.9775 144.91 15.0197C144.349 15.0603 143.995 15.1944 143.566 15.5272C143.245 15.7756 142.861 16.25 142.714 16.5813C142.471 17.1279 142.445 17.7574 142.439 29.4565H136.279L136.276 23.3201C136.273 17.7574 136.247 17.1279 136.004 16.5813C135.857 16.25 135.474 15.7756 135.152 15.5272C134.728 15.1989 134.362 15.0589 133.809 15.0137C133.2 14.964 132.913 15.0272 132.372 15.3299C132 15.5377 131.528 15.9729 130.945 16.8825L130.87 29.4565H124.86V9.88015L127.527 9.87564C130.109 9.87261 130.204 9.88317 130.512 10.2144C130.688 10.4042 130.858 10.6391 130.888 10.74C130.925 10.8605 131.176 10.7671 131.621 10.4704C131.992 10.222 132.669 9.88015 133.124 9.70998C133.577 9.54134 134.356 9.3561 134.851 9.29739C135.347 9.23863 136.091 9.21607 136.504 9.24617ZM37.1124 9.88015H42.6715L42.9767 10.2943C43.2772 10.7009 43.2831 10.8876 43.2725 29.4565H37.1124V9.88015Z" fill="#047BC1"/>
<path d="M73.9399 21.6217C73.6615 21.7239 73.2114 21.975 72.9373 22.1796C72.6627 22.3841 72.256 22.8217 72.0324 23.1525C71.8089 23.4834 71.5589 24.0924 71.4782 24.5059C71.377 25.0218 71.3787 25.4819 71.4812 25.9722C71.5632 26.3647 71.7944 26.9571 71.992 27.288C72.191 27.6188 72.6283 28.082 72.9658 28.3166C73.3037 28.5512 73.8056 28.8234 74.0844 28.9211C74.3611 29.0174 74.8809 29.0971 75.2388 29.0971C75.595 29.0971 76.1794 28.9948 76.5372 28.8715C76.8938 28.7482 77.4723 28.3918 77.82 28.0805C78.1676 27.7692 78.5893 27.2429 78.7537 26.912C78.9743 26.4699 79.0538 26.0308 79.0538 25.2578C79.0538 24.4714 78.976 24.0533 78.7465 23.6036C78.5761 23.2728 78.2212 22.7856 77.9572 22.5224C77.6916 22.2578 77.1824 21.9044 76.8258 21.7359C76.4004 21.5344 75.878 21.4307 75.3106 21.4337C74.8346 21.4352 74.217 21.5194 73.9399 21.6217Z" fill="#FCAF17"/>
</g>
<defs>
<clipPath id="clip0_7731_32059">
<rect width="158" height="40" fill="white"/>
</clipPath>
</defs>
</svg>
