<svg width="107" height="40" viewBox="0 0 107 40" fill="none" xmlns="http://www.w3.org/2000/svg">
<g clip-path="url(#clip0_7731_32075)">
<path d="M41.884 1.80531L33.1941 23.9518L24.5041 0.291016L15.2807 23.9518L7.39953 1.80531H3.75146L15.0914 32.8483L24.4009 9.18747L33.0908 32.8483L45.5321 1.80531H41.884ZM59.3844 17.5849C57.9734 16.3631 56.3558 15.4683 54.7383 14.7456C54.7383 14.7456 50.3847 12.5258 49.3867 11.8203C48.3886 11.1147 47.9756 10.0995 47.9756 8.89494C47.9756 7.67318 48.4746 6.57188 49.4899 5.76311C50.5052 4.95434 51.7097 4.54135 53.138 4.54135C54.05 4.54135 54.8588 4.74785 55.461 5.04038C56.0633 5.45337 56.7688 5.95239 57.2851 6.76116C57.2851 6.76116 57.7841 7.46668 57.9906 7.67318L60.5201 5.95239C59.6081 4.4381 58.5929 3.31959 57.2851 2.51083C55.9773 1.70206 54.6523 1.28907 53.138 1.28907C50.6084 1.28907 48.5951 1.99459 46.9776 3.40563C45.36 4.81668 44.5513 6.64071 44.5513 8.86052C44.5513 10.9771 45.2568 12.5946 46.6678 13.7131C48.1821 14.9349 52.5357 17.0515 52.5357 17.0515C54.1532 17.8602 55.461 18.669 56.5795 19.3745C57.698 20.1833 58.3003 21.3018 58.3003 22.8161C58.3003 24.5369 57.698 25.9479 56.5795 27.0664C55.461 28.1849 54.05 28.7872 52.226 28.7872C50.7117 28.7872 49.3867 28.2882 48.3886 27.3762C47.3733 26.4641 46.6678 25.0531 46.272 23.3323L43.037 24.3476C43.3467 25.5693 43.7425 26.5674 44.2587 27.5827C44.7578 28.4947 45.4805 29.3034 46.2892 30.009C47.9068 31.3168 49.8341 32.0395 52.2604 32.0395C54.7899 32.0395 57.0097 31.1275 58.8338 29.4067C60.6578 27.6859 61.5698 25.4661 61.5698 22.9365C61.501 20.5274 60.7955 18.8067 59.3844 17.5849ZM78.5884 30.8349C86.5728 30.8349 93.043 24.3648 93.043 16.3803C93.043 8.39591 86.5728 1.92576 78.5884 1.92576C70.6039 1.92576 64.1338 8.39591 64.1338 16.3803C64.1338 24.3648 70.7072 30.8349 78.5884 30.8349Z" fill="#FF7300"/>
<path d="M84.5595 24.4689L78.5884 10.1004L74.5446 19.2033H64.3403V17.2761H73.2368L78.6917 5.14453L84.766 19.9089L87.1923 15.5725H93.0602V17.4826H88.3969L84.5595 24.4689Z" fill="white"/>
<path d="M90.5303 4.74714C87.3985 1.51207 83.4579 -0.105469 78.6913 -0.105469C78.5881 -0.105469 78.4848 -0.105469 78.4848 -0.105469C75.5595 -0.105469 72.7202 0.600052 70.1907 2.11434C67.6611 3.62863 65.6478 5.65916 64.1163 8.27475C62.5848 10.8903 61.8965 13.7296 61.8965 16.7754C61.8965 21.3183 63.514 25.2761 66.7491 28.5112C69.9842 31.7462 73.9248 33.3638 78.6741 33.3638C83.3202 33.3638 87.278 31.7462 90.5131 28.5112C93.7482 25.2761 95.3657 21.3355 95.3657 16.6722C95.4862 11.9228 93.8686 7.87897 90.5303 4.74714ZM90.4271 23.4521C89.2053 25.5686 87.5878 27.1862 85.5745 28.4079C83.4579 29.6297 81.2209 30.232 78.7946 30.232C78.7946 30.232 78.7946 30.232 78.6913 30.232C74.9572 30.232 71.8082 28.9242 69.1926 26.3946C66.5598 23.7618 65.252 20.63 65.252 16.7926C65.252 14.2631 65.8543 11.94 66.9728 9.82346C68.1946 7.79293 69.8121 6.08935 71.9287 4.8676C74.0452 3.64584 76.2822 3.04357 78.6053 3.04357C78.6053 3.04357 78.6053 3.04357 78.7085 3.04357C81.0316 3.04357 83.3547 3.64584 85.3852 4.8676C87.5018 6.08935 89.1193 7.70689 90.341 9.72021C91.5628 11.7507 92.0618 14.0738 92.0618 16.6033C92.1479 19.0985 91.5284 21.4215 90.4271 23.4521ZM96.5875 15.5709C97.293 15.3644 98.1018 15.2611 99.0138 15.2611C101.234 15.2611 103.058 15.9667 104.469 17.4809C105.88 18.892 106.585 20.6128 106.585 22.6433C106.585 24.0543 106.276 25.3793 105.57 26.5839C104.864 27.7884 103.643 29.4232 101.733 31.5398L95.6755 38.1131H106.998V40.333H90.2034L99.5128 30.2148C101.44 28.1842 102.645 26.6699 103.247 25.6719C103.849 24.6738 104.056 23.6414 104.056 22.5401C104.056 21.129 103.557 20.0105 102.541 18.9952C101.526 17.98 100.218 17.4809 98.8073 17.4809C97.9985 17.4809 97.1898 17.5842 96.4842 17.98C96.4842 17.4809 96.5875 15.7602 96.5875 15.5709Z" fill="black"/>
</g>
<defs>
<clipPath id="clip0_7731_32075">
<rect width="107" height="40" fill="white"/>
</clipPath>
</defs>
</svg>
