<svg width="626" height="413" viewBox="0 0 626 413" fill="none" xmlns="http://www.w3.org/2000/svg">
<rect x="189" y="28" width="140" height="10" rx="5" fill="#EB4748"/>
<rect x="199" y="52" width="100" height="10" rx="5" fill="#EB4748"/>
<rect x="209" y="76" width="60" height="10" rx="5" fill="#EB4748"/>
<path d="M7.07107 385L28 364.071L48.9289 385L28 405.929L7.07107 385Z" fill="white" stroke="#0073E6" stroke-width="10"/>
<path d="M517.432 53.7374L516.514 55.5486L517.434 57.3588L535.456 92.8126L536.568 95H539.022H584.978H587.432L588.544 92.8126L606.566 57.3588L607.486 55.5486L606.568 53.7374L588.546 18.1912L587.435 16H584.978H539.022H536.565L535.454 18.1912L517.432 53.7374Z" fill="#FFBF00" stroke="white" stroke-width="8"/>
<circle cx="562" cy="55.5" r="24" fill="white"/>
</svg>
