<svg width="582" height="390" viewBox="0 0 582 390" fill="none" xmlns="http://www.w3.org/2000/svg">
<path d="M385 261H449V319C449 322.314 446.314 325 443 325H385V261Z" stroke="#E0E5EB" stroke-width="2"/>
<path d="M321 261H385V325H321V261Z" stroke="#E0E5EB" stroke-width="2"/>
<path d="M129 197H193V261H129V197Z" stroke="#E0E5EB" stroke-width="2"/>
<path d="M129 261H193V325H135C131.686 325 129 322.314 129 319V261Z" stroke="#E0E5EB" stroke-width="2"/>
<path d="M193 197H257V261H193V197Z" stroke="#E0E5EB" stroke-width="2"/>
<path d="M385 11C385 7.68629 387.686 5 391 5H449V69H385V11Z" stroke="#E0E5EB" stroke-width="2"/>
<path d="M449 5H507C510.314 5 513 7.68629 513 11V69H449V5Z" stroke="#E0E5EB" stroke-width="2"/>
<path d="M257 133H321V197H257V133Z" stroke="#E0E5EB" stroke-width="2"/>
<path d="M193 133H257V197H193V133Z" stroke="#E0E5EB" stroke-width="2"/>
<path d="M193 69H251C254.314 69 257 71.6863 257 75V133H193V69Z" stroke="#E0E5EB" stroke-width="2"/>
<path d="M1 139C1 135.686 3.68629 133 7 133H65V197H7C3.68629 197 1 194.314 1 191V139Z" stroke="#E0E5EB" stroke-width="2"/>
<path d="M65 197H129V261H71C67.6863 261 65 258.314 65 255V197Z" stroke="#E0E5EB" stroke-width="2"/>
<path d="M129 11C129 7.68629 131.686 5 135 5H187C190.314 5 193 7.68629 193 11V69H129V11Z" stroke="#E0E5EB" stroke-width="2"/>
<path d="M513 133H571C574.314 133 577 135.686 577 139V197H513V133Z" stroke="#E0E5EB" stroke-width="2"/>
<path d="M513 197H577V255C577 258.314 574.314 261 571 261H513V197Z" stroke="#E0E5EB" stroke-width="2"/>
<path d="M417 69L321 165L417 261L513 165L417 69Z" stroke="#FFBF00" stroke-width="2" stroke-linecap="round" stroke-linejoin="round" stroke-dasharray="0.01 10"/>
<path d="M321 75C321 71.6863 323.686 69 327 69H513V261H321V75Z" stroke="#0080FF" stroke-width="2"/>
<path d="M412.649 193L407.955 184.655L412.649 176.311L422.354 176.311L427.048 184.655L422.354 193H412.649Z" fill="#141A1F"/>
<path d="M429.601 183.172L424.907 174.828L429.601 166.483L439.307 166.483L444 174.828L439.307 183.172H429.601Z" fill="#141A1F"/>
<path d="M412.649 173.344L407.955 164.999L412.649 156.655L422.354 156.655L427.048 164.999L422.354 173.344H412.649Z" fill="#141A1F"/>
<path d="M395.694 183.172L391 174.828L395.694 166.483L405.399 166.483L410.093 174.828L405.399 183.172H395.694Z" fill="#141A1F"/>
<path d="M395.694 163.517L391 155.172L395.694 146.828L405.399 146.828L410.093 155.172L405.399 163.517H395.694Z" fill="#141A1F"/>
<path d="M412.649 153.689L407.955 145.344L412.649 137L422.354 137L427.048 145.344L422.354 153.689H412.649Z" fill="#141A1F"/>
<path d="M429.601 163.517L424.907 155.172L429.601 146.828L439.307 146.828L444 155.172L439.307 163.517H429.601Z" fill="#141A1F"/>
<path d="M193 325C193 289.654 221.654 261 257 261H321V325C321 360.346 292.346 389 257 389V389C221.654 389 193 360.346 193 325V325Z" stroke="#0080FF" stroke-width="2"/>
<path d="M65 133C65 97.6538 93.6538 69 129 69H193V133C193 168.346 164.346 197 129 197H65V133Z" stroke="#EB4748" stroke-width="2"/>
<rect x="124" y="256" width="10" height="10" rx="2" fill="#FFBF00"/>
<rect x="444" width="10" height="10" rx="2" fill="#EB4748"/>
<rect x="572" y="192" width="10" height="10" rx="2" fill="#A7B1BE"/>
<rect x="252" y="128" width="10" height="10" rx="2" fill="#A7B1BE"/>
<path d="M149 133L117 157L117 109L149 133Z" fill="#141A1F"/>
<circle cx="257" cy="325" r="21" stroke="#141A1F" stroke-width="14"/>
</svg>
