<svg width="682" height="426" viewBox="0 0 682 426" fill="none" xmlns="http://www.w3.org/2000/svg">
<g clip-path="url(#clip0)">
<path d="M548.399 174.999L548.899 174.699H548.499C548.299 174.699 548.199 174.599 547.999 174.599C547.899 174.499 547.799 174.399 547.799 174.299L547.599 174.499L540.599 170.399L540.799 171.699L546.599 174.999L539.099 179.399L536.999 180.599C537.399 180.799 537.799 180.899 538.199 180.999L547.699 175.499L549.699 176.699L551.599 176.799L548.399 174.999ZM379.199 272.199L364.799 280.599L365.699 281.099L380.099 272.699L379.199 272.199ZM265.799 151.299L254.599 157.799L255.899 158.499L267.099 151.999L265.799 151.299ZM340.599 116.699L334.299 113.099L344.999 106.899L344.299 106.499L342.799 106.699L333.299 112.299L332.899 112.499L331.499 111.699L331.099 112.599L331.899 113.099L330.199 114.099L331.799 113.899L332.499 114.299L333.399 113.799L340.899 118.099L342.499 117.899L340.599 116.699ZM345.599 105.699L345.999 104.899L342.799 106.699L344.299 106.499L344.999 106.899L346.299 106.099L345.599 105.699ZM401.499 151.799L392.499 146.599L391.499 147.199L400.499 152.399L411.699 158.899L412.699 158.299L401.499 151.799ZM319.699 182.499L308.499 188.999L309.499 189.599L320.699 183.099L319.699 182.499ZM292.999 197.999L292.599 198.199L293.599 198.799L293.999 198.599C293.599 198.299 293.299 198.199 292.999 197.999ZM308.499 188.999L294.999 196.799L292.999 197.899C293.299 198.099 293.599 198.299 293.999 198.499L294.999 197.899L309.499 189.499L308.499 188.999ZM536.799 180.499L534.799 181.699L517.699 191.599L518.699 192.199L535.999 182.199L538.099 180.999C537.599 180.799 537.199 180.699 536.799 180.499ZM138.099 185.199L126.399 178.399L125.399 178.999L141.599 188.399L142.599 187.799L138.099 185.199ZM124.999 171.099L123.499 171.999L124.499 172.599L125.999 171.699L124.999 171.099ZM265.799 151.299L254.599 157.799L255.899 158.499L267.099 151.999L265.799 151.299ZM340.599 116.699L334.299 113.099L344.999 106.899L344.299 106.499L342.799 106.699L333.299 112.299L332.899 112.499L331.499 111.699L331.099 112.599L331.899 113.099L330.199 114.099L331.799 113.899L332.499 114.299L333.399 113.799L340.899 118.099L342.499 117.899L340.599 116.699ZM401.499 151.799L392.499 146.599L391.499 147.199L400.499 152.399L411.699 158.899L412.699 158.299L401.499 151.799ZM548.399 174.999L548.899 174.699H548.499C548.299 174.699 548.199 174.599 547.999 174.599C547.899 174.499 547.799 174.399 547.799 174.299L547.599 174.499L540.599 170.399L540.799 171.699L546.599 174.999L539.099 179.399L536.999 180.599C537.399 180.799 537.799 180.899 538.199 180.999L547.699 175.499L549.699 176.699L551.599 176.799L548.399 174.999ZM379.199 272.199L364.799 280.599L365.699 281.099L380.099 272.699L379.199 272.199ZM308.499 188.999L294.999 196.799L292.999 197.899C293.299 198.099 293.599 198.299 293.999 198.499L294.999 197.899L309.499 189.499L308.499 188.999ZM319.699 182.499L308.499 188.999L309.499 189.599L320.699 183.099L319.699 182.499ZM292.599 198.199L293.599 198.799L293.999 198.599C293.699 198.399 293.299 198.199 292.999 197.999L292.599 198.199ZM536.799 180.499L534.799 181.699L517.699 191.599L518.699 192.199L535.999 182.199L538.099 180.999C537.599 180.799 537.199 180.699 536.799 180.499ZM138.099 185.199L126.399 178.399L125.399 178.999L141.599 188.399L142.599 187.799L138.099 185.199ZM124.999 171.099L123.499 171.999L124.499 172.599L125.999 171.699L124.999 171.099ZM345.599 105.699L345.999 104.899L342.799 106.699L344.299 106.499L344.999 106.899L346.299 106.099L345.599 105.699ZM681.999 129.799V128.499L654.299 112.499L546.999 50.4992L493.399 19.6992C493.299 19.5992 493.099 19.5992 492.999 19.6992L458.299 -0.300781H456.399L491.799 20.0992L439.499 50.4992L404.799 30.4992L386.799 20.0992L387.999 19.3992L421.999 -0.300781H419.999L385.799 19.5992L351.399 -0.300781H349.399L384.799 20.0992L379.499 23.1992L332.599 50.3992L279.899 20.0992L314.999 -0.300781H312.999L278.799 19.5992L244.499 -0.300781H242.499L277.899 20.0992L275.199 21.6992L225.599 50.5992L190.699 30.3992L172.999 20.1992L208.099 -0.300781H206.199L171.799 19.6992L118.499 50.6992L65.1992 81.6992L11.8992 112.699L-3.80078 121.799V122.799L12.0992 113.599L46.5992 133.499L64.6992 143.999L63.5992 144.699L12.4992 174.399L-3.70078 164.999V166.099L11.4992 174.899L7.49922 177.299L-3.70078 183.799V184.899L12.4992 175.499L46.9992 195.399L65.0992 205.899L63.8992 206.599L12.7992 236.299L-3.80078 226.699V227.799L11.7992 236.799L7.79922 239.099L-3.70078 245.799V246.999L12.8992 237.399L65.4992 267.799L13.1992 298.099L-3.70078 288.299V289.799L12.9992 299.499C13.0992 299.599 13.2992 299.599 13.3992 299.499L66.9992 330.499L120.599 361.499L174.199 392.399L227.799 423.399L232.699 426.199H235.299L228.999 422.599L230.199 421.899L281.299 392.199L315.599 411.999L333.999 422.599L332.799 423.299L327.799 426.199H329.699L334.999 423.099L340.299 426.199H342.299L335.999 422.499L338.499 421.099L388.299 392.099L440.899 422.499L434.499 426.199H437.299L442.099 423.399L495.399 392.399L548.699 361.399L601.999 330.399L655.299 299.399L681.999 283.899V282.399L655.099 297.999L620.399 277.999L602.399 267.799L606.399 265.499L654.599 237.499L681.899 253.299V252.099L673.999 247.499L655.599 236.899L656.799 236.199L681.899 221.599V220.399L654.599 236.199L620.099 216.299L601.999 205.799L603.199 205.099L654.299 175.399L681.899 191.399V190.199L655.299 174.799L681.899 159.299V158.199L654.299 174.199L619.799 154.499L601.699 143.999L653.999 113.599L681.999 129.799ZM599.399 82.0992L595.399 84.3992L547.199 112.399L512.599 92.4992L494.499 81.9992L495.699 81.2992L546.799 51.6992L599.399 82.0992ZM570.899 160.699L553.999 170.499L552.099 171.599L547.699 174.099L547.499 174.299L540.499 170.199L538.799 169.199L536.699 167.999L521.299 159.099L512.999 154.299L494.799 143.899L495.999 143.199L547.099 113.499L581.599 133.399L599.799 143.799L570.899 160.699ZM344.999 106.799L346.299 105.999L357.699 99.3992L361.299 97.2992L381.499 85.4992L386.599 82.4992L421.499 102.699L439.199 112.899L435.199 115.199L434.099 115.899L413.799 127.699L386.899 143.299L353.999 124.399L352.399 123.499L342.299 117.699L340.599 116.699L334.299 113.099L344.999 106.799ZM535.299 168.499L537.299 169.699L540.599 171.599L546.399 174.899L538.899 179.299L536.799 180.499L534.799 181.699L517.699 191.599L511.699 195.099L494.099 205.299L459.599 185.399L441.499 174.899L445.499 172.499L493.799 144.499L519.999 159.599L535.299 168.499ZM124.099 177.099L121.499 175.599L120.499 174.999L124.499 172.699L125.999 171.799L132.999 167.799L151.999 156.799L172.699 144.799L207.199 164.699L225.299 175.199L176.799 203.399L172.999 205.599L169.599 203.599L149.299 191.699L142.499 187.799L137.999 185.199L126.299 178.399L124.099 177.099ZM438.299 175.699L387.199 205.399L359.399 189.399L352.699 185.499L348.199 182.899L339.199 177.699L334.599 174.999L335.799 174.299L386.799 144.599L391.399 147.299L400.399 152.499L411.599 158.999L415.599 161.299L421.199 164.599L439.299 175.099L438.299 175.699ZM439.699 175.999L440.499 175.499L474.999 195.399L493.099 205.899L440.799 236.299L439.599 235.599L406.299 216.399L393.599 209.099L388.199 205.999L389.399 205.299L439.699 175.999ZM338.199 178.199L347.199 183.399L358.399 189.899L386.199 205.899L334.299 235.999L333.899 236.199L327.099 232.299L317.399 226.699L299.399 216.299L281.299 205.799L285.299 203.499L287.999 201.899L291.999 199.599L293.599 198.699L293.999 198.499L294.999 197.899L309.499 189.499L320.699 182.999L329.699 177.799L333.599 175.599L338.199 178.199ZM328.699 177.199L328.599 177.299L319.699 182.499L308.499 188.999L294.999 196.799L292.999 197.899L292.599 198.099L290.999 198.999L287.999 200.699L280.299 205.199L266.499 197.299L245.699 185.299L228.199 175.199L227.599 174.899L228.199 174.599L250.999 161.299L255.699 158.599L266.899 152.099L275.899 146.899L279.799 144.599L314.699 164.799L332.399 174.999L328.699 177.199ZM228.299 176.499L261.199 195.499L265.499 197.999L279.299 205.999L278.099 206.699L274.299 208.899L242.099 227.599L232.399 233.199L227.099 236.299L192.599 216.399L176.099 206.899L174.499 205.999L178.099 203.899L226.799 175.599L228.299 176.499ZM173.399 206.499L174.999 207.399L225.999 236.899L173.699 267.299L139.199 247.399L121.099 236.899L171.799 207.399L173.399 206.499ZM227.099 237.499L261.599 257.399L279.699 267.899L275.699 270.299L227.399 298.299L174.799 267.899L227.099 237.499ZM246.199 247.399L228.099 236.899L229.299 236.199L233.399 233.799L243.099 228.199L275.299 209.499L280.299 206.599L314.799 226.499L316.399 227.399L326.099 232.999L332.899 236.999L331.699 237.699L327.899 239.899L280.599 267.399L246.199 247.399ZM282.899 267.199L328.999 240.399L333.999 237.499L334.399 237.699L338.299 239.999L339.399 240.599L368.599 257.399L386.699 267.899L379.299 272.199L364.899 280.599L334.399 298.299L303.599 280.499L299.799 278.299L281.699 267.899L282.899 267.199ZM340.399 239.999L338.299 238.799L334.999 236.899L387.299 206.499L392.699 209.599L421.799 226.399L439.699 236.699L439.899 236.799L439.399 237.099L388.799 266.499L387.599 267.199L340.399 239.999ZM389.099 267.599L439.699 238.199L440.899 237.499L493.499 267.899L444.499 296.299L441.199 298.199L438.299 296.499L406.699 278.299L397.599 273.099L389.199 268.299L388.599 267.999L389.099 267.599ZM459.999 247.299L441.899 236.799L494.199 206.399L528.699 226.299L544.299 235.299L546.899 236.799L545.699 237.499L544.399 238.299L494.599 267.199L459.999 247.299ZM459.299 123.499L441.199 112.999L442.399 112.299L493.499 82.5992L527.999 102.499L546.199 112.899L544.999 113.599L493.899 143.399L459.299 123.499ZM474.699 133.499L492.799 143.999L488.799 146.299L440.599 174.299L439.799 173.799L416.899 160.599L412.899 158.299L401.699 151.799L392.699 146.599L387.999 143.899L414.899 128.299L435.099 116.499L440.299 113.499L474.699 133.499ZM333.299 113.599L340.799 117.899L353.599 125.299L367.799 133.499L385.899 143.999L384.699 144.699L333.599 174.399L298.699 154.199L280.999 143.999L320.999 120.699L332.399 114.099L333.299 113.599ZM330.099 113.999L320.699 119.499L313.099 123.899L311.499 124.799L309.499 125.999L300.899 130.999L279.599 143.399L253.299 128.199L233.099 116.499L226.999 112.999L279.299 82.5992L285.399 86.0992L305.599 97.7992L313.899 102.599L318.099 105.099L331.099 112.599L331.899 113.099L330.099 113.999ZM231.999 117.099L252.199 128.799L260.399 133.499L278.499 143.999L274.799 146.199L265.799 151.399L254.599 157.899L249.899 160.599L228.299 173.199L226.299 174.399L191.799 154.499L173.699 143.999L174.899 143.299L225.899 113.599L231.999 117.099ZM223.799 113.699L172.699 143.399L138.199 123.499L120.099 112.999L121.299 112.299L172.399 82.5992L206.899 102.499L224.999 112.999L223.799 113.699ZM153.599 133.499L171.699 143.999L167.699 146.299L150.999 155.999L131.999 166.999L124.999 170.999L123.499 171.899L119.499 174.199L105.099 165.899L88.7992 156.699L66.7992 143.999L119.099 113.599L153.599 133.499ZM125.399 178.999L141.599 188.399L148.399 192.299L154.399 195.799L168.699 203.999L172.099 205.999L170.799 206.799L119.899 236.399L85.3992 216.499L67.1992 205.999L68.3992 205.299L91.7992 191.699L98.5992 187.799L117.599 176.799L119.499 175.699L125.399 178.999ZM120.099 237.499L154.599 257.399L172.699 267.899L171.499 268.599L120.399 298.299L85.8992 278.399L67.7992 267.899L120.099 237.499ZM122.699 298.099L173.799 268.399L208.299 288.299L226.399 298.799L225.199 299.499L176.699 327.699L174.099 329.199L171.499 327.699L139.599 309.299L121.499 298.799L122.699 298.099ZM176.299 328.999L177.699 328.199L227.399 299.299L261.699 319.099L279.999 329.699L227.699 360.099L193.399 340.299L177.699 331.199L175.099 329.699L176.299 328.999ZM228.399 298.799L280.699 268.399L302.599 281.099L315.199 288.399L333.299 298.899L314.199 309.999L304.499 315.599L281.099 329.199L228.399 298.799ZM305.499 316.199L315.199 310.599L334.299 299.499L340.499 303.099L340.799 303.299L343.299 304.699L345.099 305.799L353.499 310.599L363.199 316.199L368.799 319.399L386.899 329.799L382.899 332.099L334.599 360.199L281.999 329.799L305.499 316.199ZM364.199 315.499L354.499 309.899L353.399 309.299L335.299 298.799L365.699 281.099L380.099 272.699L387.599 268.399L389.199 269.299L396.699 273.599L422.199 288.299L437.399 297.099L440.299 298.799L439.099 299.499L438.399 299.899L387.999 329.199L364.199 315.499ZM390.099 328.999L439.299 300.399L441.199 299.299L443.499 300.599L476.099 319.399L493.799 329.599L489.799 331.899L441.599 359.999L407.099 340.099L388.899 329.699L390.099 328.999ZM459.899 308.999L444.499 300.099L442.199 298.799L445.499 296.899L446.199 296.499L494.399 268.499L528.899 288.399L546.999 298.899L545.799 299.599L494.799 329.199L459.899 308.999ZM513.599 278.199L495.499 267.699L496.699 266.999L545.199 238.899L547.799 237.399L550.399 238.899L582.299 257.299L600.399 267.799L599.199 268.499L548.099 298.099L513.599 278.199ZM545.299 234.699L495.199 205.799L512.699 195.599L518.699 192.099L535.999 182.099L538.099 180.899L547.599 175.399L549.599 176.599L552.699 178.399L554.599 179.499L571.899 189.499L576.499 192.099L582.099 195.299L600.199 205.799L596.199 208.099L550.499 234.599L547.999 236.099L545.299 234.699ZM493.099 20.6992L545.799 51.0992L544.599 51.7992L493.499 81.4992L440.899 51.0992L493.099 20.6992ZM439.799 51.6992L474.299 71.5992L492.499 81.8992L491.299 82.5992L440.199 112.399L405.299 92.1992L387.599 81.9992L439.799 51.6992ZM336.199 49.4992L385.799 20.6992L417.799 39.0992L438.499 50.9992L386.199 81.3992L351.599 61.4992L333.499 50.9992L336.199 49.4992ZM366.999 71.5992L385.099 81.8992L380.099 84.7992L359.899 96.5992L355.399 99.1992L345.899 104.699L342.699 106.499L333.199 112.099L332.799 112.299L331.399 111.499L319.499 104.699L306.399 97.0992L298.299 92.3992L286.199 85.3992L280.199 81.8992L281.399 81.1992L332.499 51.6992L366.999 71.5992ZM278.899 20.6992L331.499 51.0992L330.299 51.7992L279.199 81.4992L244.699 61.4992L226.599 51.0992L278.899 20.6992ZM225.599 51.5992L278.199 81.9992L225.899 112.399L191.399 92.4992L173.299 81.9992L177.299 79.6992L225.599 51.5992ZM171.999 20.6992L224.599 51.0992L220.599 53.3992L172.399 81.3992L119.799 50.9992L171.999 20.6992ZM118.699 51.6992L153.199 71.5992L171.299 82.0992L170.099 82.7992L118.999 112.499L84.4992 92.4992L66.3992 82.0992L118.699 51.6992ZM31.2992 123.499L13.1992 112.999L65.4992 82.5992L118.099 112.999L65.7992 143.399L31.2992 123.499ZM31.5992 185.399L13.3992 174.899L14.5992 174.199L65.6992 144.499L87.6992 157.199L100.199 164.399L103.899 166.499L118.399 174.799L117.199 175.499L116.499 175.899L97.4992 186.899L90.6992 190.799L66.0992 205.099L31.5992 185.399ZM31.9992 247.299L13.7992 236.799L14.9992 236.099L66.0992 206.399L100.599 226.299L118.799 236.799L66.4992 267.199L31.9992 247.299ZM14.5992 298.799L66.8992 268.399L101.399 288.299L119.499 298.799L115.499 301.099L67.2992 329.099L14.5992 298.799ZM68.1992 329.699L72.1992 327.399L120.399 299.399L170.499 328.199L173.099 329.699L170.499 331.199L120.699 360.099L68.1992 329.699ZM121.799 360.699L171.599 331.799L174.099 330.299L176.699 331.799L208.399 350.099L226.699 360.599L174.399 390.999L121.799 360.699ZM279.099 392.499L227.999 422.099L175.399 391.699L227.699 361.299L262.199 381.199L280.299 391.699L279.099 392.499ZM281.299 391.099L246.799 371.199L228.699 360.699L280.999 330.299L315.499 350.199L333.599 360.699L332.399 361.399L281.299 391.099ZM384.799 393.099L334.999 421.999L300.699 402.199L282.299 391.699L283.499 390.999L334.599 361.299L369.499 381.499L387.199 391.699L384.799 393.099ZM353.299 370.999L335.599 360.699L339.599 358.399L387.799 330.399L422.299 350.299L440.499 360.699L439.299 361.399L388.199 391.099L353.299 370.999ZM441.899 422.099L407.599 402.299L389.199 391.699L390.399 390.999L441.499 361.299L475.699 381.099L494.099 391.699L441.899 422.099ZM495.199 391.099L442.499 360.699L494.699 330.299L528.999 350.099L547.399 360.699L495.199 391.099ZM548.399 360.099L514.099 340.399L495.799 329.699L496.999 328.999L548.099 299.299L582.399 319.099L600.899 329.699L548.399 360.099ZM636.099 288.299L653.999 298.699L601.699 329.099L567.399 309.299L549.099 298.699L550.299 297.999L601.399 268.299L636.099 288.299ZM653.599 236.899L601.299 267.299L566.799 247.299L551.299 238.299L548.699 236.799L551.299 235.299L552.699 234.499L600.899 206.499L653.599 236.899ZM635.199 164.499L653.299 174.899L652.099 175.599L600.999 205.399L576.999 191.599L572.399 188.999L566.399 185.599L554.999 178.999L552.999 177.799L551.299 176.799L548.299 174.999L548.799 174.699L552.799 172.399L554.799 171.299L571.599 161.499L600.699 144.599L635.199 164.499ZM600.699 143.299L548.099 112.899L600.399 82.5992L652.999 112.999L600.699 143.299ZM124.999 171.099L123.499 171.999L124.499 172.599L125.999 171.699L124.999 171.099ZM138.099 185.199L126.399 178.399L125.399 178.999L141.599 188.399L142.599 187.799L138.099 185.199ZM536.799 180.499L534.799 181.699L517.699 191.599L518.699 192.199L535.999 182.199L538.099 180.999C537.599 180.799 537.199 180.699 536.799 180.499ZM308.499 188.999L294.999 196.799L292.999 197.899C293.299 198.099 293.599 198.299 293.999 198.499L294.999 197.899L309.499 189.499L308.499 188.999ZM292.999 197.999L292.599 198.199L293.599 198.799L293.999 198.599C293.599 198.299 293.299 198.199 292.999 197.999ZM319.699 182.499L308.499 188.999L309.499 189.599L320.699 183.099L319.699 182.499ZM401.499 151.799L392.499 146.599L391.499 147.199L400.499 152.399L411.699 158.899L412.699 158.299L401.499 151.799ZM345.599 105.699L345.999 104.899L342.799 106.699L344.299 106.499L344.999 106.899L346.299 106.099L345.599 105.699ZM340.599 116.699L334.299 113.099L344.999 106.899L344.299 106.499L342.799 106.699L333.299 112.299L332.899 112.499L331.499 111.699L331.099 112.599L331.899 113.099L330.199 114.099L331.799 113.899L332.499 114.299L333.399 113.799L340.899 118.099L342.499 117.899L340.599 116.699ZM265.799 151.299L254.599 157.799L255.899 158.499L267.099 151.999L265.799 151.299ZM379.199 272.199L364.799 280.599L365.699 281.099L380.099 272.699L379.199 272.199ZM548.399 174.999L548.899 174.699H548.499C548.299 174.699 548.199 174.599 547.999 174.599C547.899 174.499 547.799 174.399 547.799 174.299L547.599 174.499L540.599 170.399L540.799 171.699L546.599 174.999L539.099 179.399L536.999 180.599C537.399 180.799 537.799 180.899 538.199 180.999L547.699 175.499L549.699 176.699L551.599 176.799L548.399 174.999ZM124.999 171.099L123.499 171.999L124.499 172.599L125.999 171.699L124.999 171.099ZM138.099 185.199L126.399 178.399L125.399 178.999L141.599 188.399L142.599 187.799L138.099 185.199ZM536.799 180.499L534.799 181.699L517.699 191.599L518.699 192.199L535.999 182.199L538.099 180.999C537.599 180.799 537.199 180.699 536.799 180.499ZM308.499 188.999L294.999 196.799L292.999 197.899C293.299 198.099 293.599 198.299 293.999 198.499L294.999 197.899L309.499 189.499L308.499 188.999ZM292.999 197.999L292.599 198.199L293.599 198.799L293.999 198.599C293.599 198.299 293.299 198.199 292.999 197.999ZM319.699 182.499L308.499 188.999L309.499 189.599L320.699 183.099L319.699 182.499ZM379.199 272.199L364.799 280.599L365.699 281.099L380.099 272.699L379.199 272.199ZM401.499 151.799L392.499 146.599L391.499 147.199L400.499 152.399L411.699 158.899L412.699 158.299L401.499 151.799ZM345.599 105.699L345.999 104.899L342.799 106.699L344.299 106.499L344.999 106.899L346.299 106.099L345.599 105.699ZM340.599 116.699L334.299 113.099L344.999 106.899L344.299 106.499L342.799 106.699L333.299 112.299L332.899 112.499L331.499 111.699L331.099 112.599L331.899 113.099L330.199 114.099L331.799 113.899L332.499 114.299L333.399 113.799L340.899 118.099L342.499 117.899L340.599 116.699ZM265.799 151.299L254.599 157.799L255.899 158.499L267.099 151.999L265.799 151.299ZM548.399 174.999L548.899 174.699H548.499C548.299 174.699 548.199 174.599 547.999 174.599C547.899 174.499 547.799 174.399 547.799 174.299L547.599 174.499L540.599 170.399L540.799 171.699L546.599 174.999L539.099 179.399L536.999 180.599C537.399 180.799 537.799 180.899 538.199 180.999L547.699 175.499L549.699 176.699L551.599 176.799L548.399 174.999Z" fill="url(#paint0_radial)"/>
<path d="M150.301 157.1L150.501 157" stroke="#3B80F7" stroke-width="2" stroke-linecap="round" stroke-linejoin="round"/>
<path d="M156.801 153.4L193.601 132" stroke="#3B80F7" stroke-width="2" stroke-linecap="round" stroke-linejoin="round" stroke-dasharray="0.51 0.51"/>
<path d="M196.699 130.2L196.899 130.1L197.199 130.2" stroke="#3B80F7" stroke-width="2" stroke-linecap="round" stroke-linejoin="round"/>
<path d="M203.199 133.699L264.699 169.199" stroke="#3B80F7" stroke-width="2" stroke-linecap="round" stroke-linejoin="round" stroke-dasharray="0.5 0.5"/>
<path d="M267.699 170.898L267.999 170.998" stroke="#3B80F7" stroke-width="2" stroke-linecap="round" stroke-linejoin="round"/>
<path d="M393.301 174.3L393.501 174.1" stroke="#3B80F7" stroke-width="2" stroke-linecap="round" stroke-linejoin="round"/>
<path d="M399.5 170.699L466.3 131.799" stroke="#3B80F7" stroke-width="2" stroke-linecap="round" stroke-linejoin="round" stroke-dasharray="0.49 0.49"/>
<path d="M469.301 130.1L469.501 130L469.701 130.1" stroke="#3B80F7" stroke-width="2" stroke-linecap="round" stroke-linejoin="round"/>
<path d="M475.398 133.398L521.698 160.098" stroke="#3B80F7" stroke-width="2" stroke-linecap="round" stroke-linejoin="round" stroke-dasharray="0.47 0.47"/>
<path d="M524.5 161.799L524.7 161.899" stroke="#3B80F7" stroke-width="2" stroke-linecap="round" stroke-linejoin="round"/>
<path d="M439.699 237.3L389.099 266.7L338.199 237.3L388.799 208L439.699 237.3Z" fill="white" stroke="#E1E5EA" stroke-width="2" stroke-linecap="round" stroke-linejoin="round"/>
<path d="M389.099 266.699V277.999L338.199 248.599V237.299L389.099 266.699Z" fill="#F6F7F8" stroke="#E1E5EA" stroke-width="2" stroke-linecap="round" stroke-linejoin="round"/>
<path d="M439.698 237.299L389.098 266.699V277.999L439.698 248.599V237.299Z" fill="#F6F7F8" stroke="#E1E5EA" stroke-width="2" stroke-linecap="round" stroke-linejoin="round"/>
<path d="M394.801 247.498L396.301 248.498L398.201 247.398L399.201 247.998L397.301 249.098L399.401 250.398C399.701 250.598 400.101 250.798 400.501 250.898C400.801 250.898 401.201 250.898 401.501 250.698C401.701 250.598 401.901 250.498 402.001 250.298C402.101 250.198 402.201 250.098 402.301 249.998L403.401 250.498C403.301 250.698 403.101 250.798 403.001 250.898C402.801 251.098 402.501 251.298 402.301 251.398C402.001 251.598 401.601 251.798 401.201 251.898C400.901 251.998 400.501 251.998 400.201 251.998C399.901 251.998 399.501 251.898 399.201 251.798C398.901 251.698 398.501 251.498 398.201 251.298L393.801 248.498L394.801 247.498Z" fill="#9EA5B0"/>
<path d="M415.401 241.899C415.201 241.599 414.801 241.299 414.501 241.099C414.101 240.799 413.701 240.599 413.201 240.499C412.801 240.399 412.301 240.299 411.901 240.299C411.401 240.299 411.001 240.299 410.601 240.399C410.201 240.499 409.801 240.599 409.401 240.899C409.101 241.099 408.801 241.299 408.601 241.599C408.401 241.799 408.301 242.099 408.301 242.399C408.301 242.699 408.401 242.999 408.601 243.299C408.801 243.599 409.101 243.899 409.501 244.099C409.901 244.399 410.301 244.599 410.801 244.699C411.201 244.799 411.701 244.899 412.201 244.899C412.601 244.899 413.101 244.899 413.501 244.799C413.901 244.699 414.301 244.599 414.701 244.299C415.001 244.099 415.301 243.899 415.601 243.599C415.801 243.399 415.901 243.099 415.901 242.799C415.701 242.399 415.601 242.099 415.401 241.899ZM413.601 243.599C413.201 243.799 412.701 243.899 412.201 243.899C411.601 243.799 411.101 243.599 410.601 243.299C410.201 243.099 409.901 242.699 409.801 242.299C409.701 241.999 409.901 241.699 410.301 241.499C410.701 241.299 411.201 241.199 411.701 241.199C412.201 241.299 412.801 241.499 413.201 241.799C413.601 241.999 413.901 242.399 414.101 242.799C414.201 243.099 414.001 243.399 413.601 243.599Z" fill="#9EA5B0"/>
<path d="M406.401 242.699C406.701 243.099 407.101 243.499 407.401 243.899C407.701 244.299 408.001 244.699 408.301 244.999C408.601 245.299 408.801 245.699 409.101 245.999C409.301 246.299 409.501 246.599 409.701 246.899L408.701 247.499L406.601 246.799C405.901 246.599 405.101 246.299 404.401 245.999C404.801 246.499 405.201 246.899 405.601 247.399C406.001 247.899 406.301 248.299 406.601 248.699L405.601 249.299C405.201 249.199 404.701 249.099 404.201 248.899L402.501 248.399L400.701 247.799L398.801 247.099L400.101 246.299L401.201 246.699L402.401 247.199C402.801 247.399 403.201 247.499 403.601 247.699L404.701 248.099C404.501 247.899 404.301 247.599 404.101 247.299L403.401 246.499L402.701 245.799L402.101 245.099L403.001 244.599C403.301 244.699 403.701 244.899 404.001 244.999L405.201 245.499C405.601 245.699 406.001 245.799 406.401 245.999L407.601 246.399L407.001 245.699L406.301 244.899C406.101 244.599 405.801 244.399 405.601 244.099C405.401 243.799 405.101 243.599 404.901 243.399L406.401 242.699Z" fill="#9EA5B0"/>
<path d="M397.298 252.7C397.198 252.9 396.998 253 396.898 253.1C396.698 253.3 396.398 253.5 396.198 253.6C395.698 253.9 395.198 254 394.698 254C394.198 254 393.698 253.9 393.298 253.7L396.798 251.7L396.598 251.6L396.398 251.5C395.598 251 394.798 250.7 393.898 250.6C393.098 250.5 392.198 250.7 391.498 251.1C391.198 251.3 390.998 251.5 390.698 251.7C390.498 251.9 390.398 252.2 390.398 252.5C390.398 252.8 390.498 253.1 390.698 253.4C390.998 253.8 391.298 254.1 391.698 254.3C392.098 254.5 392.498 254.7 392.898 254.9C393.298 255.1 393.798 255.1 394.198 255.1C394.698 255.1 395.098 255.1 395.598 255C396.098 254.9 396.598 254.7 396.998 254.4C397.198 254.3 397.298 254.2 397.498 254.1C397.698 254 397.798 253.9 397.898 253.8C397.998 253.7 398.098 253.6 398.198 253.5L398.398 253.3L397.298 252.7ZM392.398 253.3C392.298 253.2 392.198 253.1 392.098 252.9C391.998 252.8 391.998 252.7 391.998 252.5C391.998 252.4 391.998 252.2 392.098 252.1C392.198 251.9 392.298 251.8 392.498 251.7C392.698 251.6 392.898 251.5 393.098 251.5C393.298 251.5 393.498 251.5 393.698 251.5C394.098 251.5 394.498 251.7 394.798 251.9L392.398 253.3Z" fill="#9EA5B0"/>
<path d="M385.5 254.6C385.9 254.4 386.3 254.2 386.7 254.1C387.1 254 387.5 254 387.9 254C388.3 254 388.7 254.1 389 254.3C389.4 254.4 389.7 254.6 390 254.8L392.8 256.7L391.6 257.4L388.9 255.7C388.7 255.5 388.4 255.4 388.2 255.3C388 255.2 387.8 255.1 387.5 255.1C387.3 255.1 387.1 255.1 386.9 255.1C386.7 255.2 386.5 255.2 386.3 255.4C386.1 255.5 386 255.6 385.8 255.7C385.7 255.8 385.6 255.9 385.5 255.9L389.6 258.5L388.4 259.2L383.5 256C383.7 255.8 384 255.6 384.2 255.4C384.6 255.1 385 254.8 385.5 254.6Z" fill="#9EA5B0"/>
<path d="M415.299 237.399L415.599 237.199L415.999 236.999L416.399 236.899L416.699 236.799L417.499 237.599C417.299 237.599 417.099 237.699 416.999 237.799C416.799 237.899 416.499 237.999 416.299 238.099C416.199 238.199 415.999 238.299 415.899 238.399C415.799 238.499 415.699 238.599 415.699 238.599L419.699 241.199L418.499 241.899L413.699 238.799C413.899 238.599 414.099 238.299 414.399 238.099C414.499 237.899 414.899 237.599 415.299 237.399Z" fill="#9EA5B0"/>
<path d="M416.198 233.999L420.598 236.899C420.598 236.699 420.598 236.499 420.598 236.299C420.598 236.099 420.598 235.899 420.598 235.699V235.099C420.598 234.899 420.598 234.699 420.598 234.599L422.098 233.799C422.098 234.199 422.098 234.699 422.098 235.099C422.098 235.499 422.098 235.999 422.098 236.499C422.498 236.499 422.898 236.499 423.298 236.499C423.698 236.499 424.198 236.499 424.698 236.599C425.198 236.699 425.598 236.699 426.098 236.799C426.598 236.899 426.898 236.899 427.298 236.999L425.898 237.799C425.598 237.699 425.198 237.699 424.898 237.599C424.598 237.499 424.098 237.499 423.698 237.499L422.598 237.399C422.198 237.399 421.898 237.399 421.598 237.399L423.898 238.899L422.698 239.599L415.398 234.899L416.198 233.999Z" fill="#9EA5B0"/>
<path d="M329.701 219.599L279.201 248.999L228.301 219.599L278.801 190.199L329.701 219.599Z" fill="white" stroke="#E1E5EA" stroke-width="2" stroke-linecap="round" stroke-linejoin="round"/>
<path d="M279.201 249V260.2L228.301 230.9V219.6L279.201 249Z" fill="#F6F7F8" stroke="#E1E5EA" stroke-width="2" stroke-linecap="round" stroke-linejoin="round"/>
<path d="M329.699 219.6L279.199 249V260.2L329.699 230.9V219.6Z" fill="#F6F7F8" stroke="#E1E5EA" stroke-width="2" stroke-linecap="round" stroke-linejoin="round"/>
<path d="M282.201 233.699L279.801 232.899C279.001 232.699 278.301 232.499 277.601 232.299L275.501 231.799L274.301 232.499C274.501 232.899 274.801 233.399 275.101 233.799C275.401 234.199 275.701 234.699 276.001 235.199C276.301 235.699 276.601 236.199 277.001 236.699L278.201 238.499L279.501 237.699L279.001 236.999C278.801 236.799 278.701 236.499 278.501 236.299L281.501 234.599L282.601 234.899L283.701 235.199L285.101 234.399L282.201 233.699ZM277.701 235.599C277.401 235.099 277.001 234.599 276.701 234.199C276.401 233.799 276.201 233.399 276.001 233.099L277.801 233.599C278.501 233.799 279.201 233.999 280.001 234.299L277.701 235.599Z" fill="#A5ACB8"/>
<path d="M286.698 225.299L293.398 229.599L292.098 230.399L285.398 225.999L286.698 225.299Z" fill="#A5ACB8"/>
<path d="M286.598 230.5C286.898 230.3 287.098 230 287.198 229.7C287.298 229.4 287.298 229.1 287.198 228.9C286.998 228.6 286.698 228.3 286.398 228.1C285.698 227.6 284.798 227.4 283.898 227.5C282.898 227.6 281.898 228 280.998 228.5L279.998 229.1C279.698 229.3 279.398 229.5 279.098 229.8L285.698 234.1L286.998 233.4L284.698 231.9L285.298 231.5C285.798 231.1 286.198 230.8 286.598 230.5ZM284.298 230.7L283.698 231.1L281.398 229.6C281.598 229.5 281.898 229.3 282.198 229.1C282.398 229 282.698 228.8 282.898 228.7C283.098 228.6 283.398 228.5 283.598 228.5C283.798 228.5 284.098 228.5 284.298 228.5C284.498 228.5 284.798 228.6 284.998 228.8C285.398 229.1 285.598 229.4 285.398 229.7C285.198 230.2 284.798 230.5 284.298 230.7Z" fill="#A5ACB8"/>
<path d="M384.898 292.199L334.298 321.599L283.398 292.199L333.998 262.799L384.898 292.199Z" fill="white" stroke="#E1E5EA" stroke-width="2" stroke-linecap="round" stroke-linejoin="round"/>
<path d="M334.298 321.599V332.799L283.398 303.399V292.199L334.298 321.599Z" fill="#F6F7F8" stroke="#E1E5EA" stroke-width="2" stroke-linecap="round" stroke-linejoin="round"/>
<path d="M384.901 292.199L334.301 321.599V332.799L384.901 303.399V292.199Z" fill="#F6F7F8" stroke="#E1E5EA" stroke-width="2" stroke-linecap="round" stroke-linejoin="round"/>
<path d="M353.098 292.6L359.098 296.1C359.198 296.2 359.398 296.2 359.498 296.3C359.598 296.3 359.798 296.4 359.898 296.4C359.998 296.4 360.198 296.4 360.298 296.4C360.498 296.4 360.598 296.3 360.798 296.2L361.598 296.9C361.298 297.1 360.898 297.2 360.598 297.3C360.298 297.4 359.998 297.4 359.698 297.4C359.398 297.4 359.198 297.4 358.898 297.3C358.598 297.2 358.398 297.1 358.098 296.9L352.098 293.4L353.098 292.6Z" fill="#989FAA"/>
<path d="M352.099 298.399C351.799 298.199 351.499 298.099 351.199 297.999C350.899 297.899 350.499 297.799 350.199 297.799C349.899 297.799 349.499 297.799 349.199 297.899C348.799 297.999 348.399 298.199 347.999 298.399C347.699 298.599 347.399 298.799 347.199 298.999C346.999 299.099 346.899 299.299 346.699 299.499L347.799 299.999C347.899 299.899 348.099 299.699 348.199 299.599C348.399 299.399 348.699 299.299 348.899 299.099C349.099 298.999 349.299 298.899 349.499 298.899C349.699 298.899 349.899 298.799 349.999 298.799C350.199 298.799 350.299 298.799 350.499 298.899C350.699 298.899 350.799 298.999 350.899 299.099L351.099 299.199C350.899 299.299 350.699 299.299 350.599 299.399C350.399 299.499 350.299 299.499 350.199 299.599C349.899 299.799 349.699 299.899 349.499 300.099C349.299 300.299 349.199 300.399 349.099 300.699C348.999 300.899 348.999 301.099 349.099 301.299C349.199 301.499 349.399 301.699 349.699 301.799C350.299 302.099 350.899 302.299 351.599 302.199C351.899 302.199 352.199 302.099 352.499 301.999C352.799 301.899 353.099 301.799 353.399 301.599C353.799 301.399 354.199 301.099 354.599 300.799L355.299 300.199L352.099 298.399ZM352.599 300.899C352.299 301.099 351.999 301.199 351.699 301.199C351.399 301.199 351.099 301.199 350.799 300.999C350.699 300.899 350.599 300.799 350.499 300.699C350.499 300.599 350.499 300.499 350.499 300.399C350.599 300.299 350.599 300.199 350.699 300.099C350.799 299.999 350.899 299.899 351.099 299.899C351.199 299.799 351.399 299.699 351.499 299.699L351.799 299.599L353.099 300.399C353.099 300.599 352.799 300.799 352.599 300.899Z" fill="#989FAA"/>
<path d="M338.801 303.698C339.101 303.498 339.501 303.398 339.801 303.198C340.101 303.098 340.301 302.998 340.601 302.898L341.401 303.598C341.201 303.598 340.901 303.698 340.701 303.798C340.401 303.898 340.201 303.998 339.901 304.198C339.701 304.298 339.601 304.398 339.401 304.598C339.301 304.698 339.401 304.898 339.601 304.998C339.701 304.998 339.801 305.098 339.901 305.098C340.001 305.098 340.101 305.098 340.201 305.098C340.401 305.098 340.501 305.098 340.701 304.998C340.901 304.998 341.101 304.898 341.301 304.898L342.301 304.698C342.601 304.698 342.901 304.598 343.101 304.598C343.301 304.598 343.601 304.598 343.801 304.698C344.001 304.798 344.301 304.898 344.501 304.998C345.001 305.298 345.201 305.598 345.101 305.998C345.001 306.398 344.601 306.698 343.901 307.098C343.501 307.298 343.101 307.498 342.701 307.698C342.301 307.798 342.101 307.898 341.901 307.898L341.101 307.198C341.301 307.098 341.601 307.098 341.901 306.998C342.201 306.898 342.501 306.698 342.801 306.598C343.001 306.498 343.201 306.298 343.401 306.098C343.501 305.998 343.401 305.898 343.201 305.698C343.001 305.598 342.801 305.598 342.501 305.598C342.101 305.598 341.701 305.698 341.401 305.798C341.101 305.898 340.801 305.898 340.501 305.998C340.201 306.098 340.001 306.098 339.701 306.098C339.501 306.098 339.201 306.098 339.001 305.998C338.701 305.898 338.501 305.798 338.301 305.698C337.801 305.398 337.601 305.098 337.701 304.698C337.801 304.298 338.101 303.998 338.801 303.698Z" fill="#989FAA"/>
<path d="M343.799 300.7C344.299 300.4 344.899 300.2 345.399 300.1L346.099 300.8L345.499 301C345.299 301.1 345.099 301.2 344.899 301.3C344.399 301.6 344.199 301.9 344.299 302.2C344.399 302.5 344.599 302.8 345.199 303.2C345.699 303.5 346.199 303.7 346.799 303.7C347.399 303.7 347.899 303.6 348.399 303.3C348.599 303.2 348.799 303.1 348.899 302.9C348.999 302.8 349.199 302.7 349.299 302.5L350.499 303C350.399 303.2 350.199 303.3 350.099 303.5C349.899 303.7 349.599 303.9 349.399 304C348.999 304.3 348.499 304.4 347.999 304.5C347.599 304.6 347.099 304.6 346.599 304.6C346.099 304.6 345.699 304.5 345.199 304.4C344.799 304.3 344.299 304.1 343.999 303.9C343.699 303.7 343.299 303.5 343.099 303.2C342.899 303 342.799 302.7 342.699 302.4C342.699 302.1 342.799 301.8 342.899 301.6C343.199 301.2 343.499 300.9 343.799 300.7Z" fill="#989FAA"/>
<path d="M336.298 305.199C337.598 306.499 338.798 307.899 339.798 309.399C339.898 309.599 340.098 309.799 340.198 310.099C340.298 310.299 340.298 310.499 340.298 310.699C340.298 310.899 340.198 311.099 339.998 311.199C339.798 311.399 339.598 311.499 339.398 311.699C339.198 311.799 338.998 311.899 338.798 311.999C338.598 312.099 338.398 312.099 338.298 312.199L337.498 311.499C337.798 311.399 338.098 311.299 338.298 311.199C338.598 310.999 338.798 310.799 338.798 310.699C338.798 310.499 338.698 310.199 338.598 309.999C337.498 309.799 336.298 309.499 335.098 309.199C333.898 308.899 332.698 308.499 331.398 308.099L332.698 307.399C333.098 307.499 333.398 307.699 333.898 307.799C334.398 307.899 334.798 308.099 335.198 308.199L336.598 308.599C337.098 308.699 337.498 308.799 337.898 308.899C337.498 308.399 337.098 307.899 336.598 307.399C336.098 306.899 335.598 306.399 335.198 305.999L336.298 305.199Z" fill="#989FAA"/>
<path d="M329.201 309.198C329.501 308.998 329.801 308.898 330.201 308.698C330.501 308.598 330.701 308.498 331.001 308.398L331.801 309.098C331.601 309.098 331.301 309.198 331.101 309.298C330.801 309.398 330.601 309.498 330.301 309.698C330.101 309.798 329.901 309.898 329.801 310.098C329.701 310.198 329.801 310.298 330.001 310.498C330.101 310.598 330.201 310.598 330.301 310.598C330.401 310.598 330.501 310.598 330.601 310.598L331.101 310.498C331.301 310.498 331.501 310.398 331.701 310.398L332.701 310.198C333.001 310.198 333.301 310.098 333.501 310.098C333.701 310.098 334.001 310.098 334.201 310.198C334.401 310.298 334.701 310.398 334.901 310.498C335.401 310.798 335.601 311.098 335.501 311.498C335.401 311.898 335.001 312.198 334.301 312.598C333.901 312.798 333.501 312.998 333.101 313.198C332.801 313.298 332.501 313.398 332.301 313.398L331.501 312.698C331.801 312.598 332.001 312.598 332.301 312.498C332.601 312.398 332.901 312.198 333.201 312.098C333.401 311.998 333.601 311.798 333.801 311.598C333.901 311.498 333.801 311.398 333.601 311.198C333.401 311.098 333.201 311.098 333.001 311.098C332.601 311.098 332.201 311.198 331.901 311.298C331.601 311.398 331.301 311.398 331.001 311.498C330.701 311.498 330.501 311.598 330.201 311.598C330.001 311.598 329.701 311.598 329.501 311.498C329.201 311.398 329.001 311.298 328.801 311.198C328.301 310.898 328.101 310.598 328.201 310.198C328.301 309.798 328.601 309.498 329.201 309.198Z" fill="#989FAA"/>
<path d="M350.199 294.199L356.199 297.699C356.299 297.799 356.499 297.799 356.599 297.899C356.699 297.999 356.799 297.999 356.999 297.999C357.099 297.999 357.299 297.999 357.399 297.999C357.599 297.999 357.699 297.899 357.899 297.799L358.699 298.499C358.399 298.699 357.999 298.799 357.699 298.899C357.399 298.999 357.099 298.999 356.799 298.999C356.499 298.999 356.299 298.999 355.999 298.899C355.699 298.799 355.499 298.699 355.199 298.499L349.199 294.999L350.199 294.199Z" fill="#989FAA"/>
<path d="M581.501 180.498L565.701 195.298C565.501 195.398 565.201 195.598 565.001 195.698L564.801 195.798C564.601 195.898 564.401 195.998 564.101 196.098L563.901 196.198C563.601 196.298 563.301 196.398 563.001 196.398C562.601 196.498 562.201 196.598 561.801 196.598L531.901 198.398C530.601 198.598 529.201 198.298 528.001 197.698C527.901 197.598 527.801 197.598 527.701 197.498L506.401 185.198C506.201 185.098 506.101 184.998 505.901 184.798L505.801 184.698C505.701 184.598 505.501 184.398 505.401 184.298L505.301 184.198C505.201 184.098 505.201 183.998 505.101 183.998L505.001 183.898C505.001 183.798 504.901 183.698 504.901 183.698V183.598C504.901 183.498 504.801 183.398 504.801 183.398V183.298C504.801 183.198 504.801 183.098 504.801 182.898V189.798C504.801 189.898 504.801 189.998 504.801 190.198V190.298C504.801 190.398 504.801 190.498 504.901 190.498V190.598C504.901 190.698 505.001 190.798 505.001 190.798L505.101 190.898C505.101 190.998 505.201 191.098 505.301 191.098V191.198C505.401 191.298 505.601 191.498 505.701 191.598L505.801 191.698C506.001 191.798 506.101 191.998 506.301 192.098L527.701 204.398L528.001 204.598C529.201 205.198 530.601 205.498 531.901 205.298L561.801 203.498C562.201 203.498 562.601 203.398 563.001 203.298H563.101C563.401 203.198 563.601 203.198 563.901 203.098L564.101 202.998C564.301 202.898 564.501 202.798 564.801 202.698L565.001 202.598C565.201 202.498 565.501 202.298 565.701 202.198L581.501 187.398C581.801 187.098 582.001 186.698 582.001 186.298C582.001 186.198 582.001 186.098 582.001 185.898V178.998C582.001 179.598 581.801 180.098 581.501 180.498Z" fill="#DBEAFD" stroke="#3B80F7" stroke-width="2" stroke-linecap="round" stroke-linejoin="round"/>
<path d="M570.302 160.299C570.802 160.599 571.202 160.899 571.602 161.399L581.802 177.899C582.302 178.699 582.202 179.799 581.502 180.399L565.702 195.199C564.602 195.999 563.302 196.399 561.902 196.499L532.002 198.299C530.702 198.499 529.302 198.199 528.102 197.599C528.002 197.499 527.902 197.499 527.802 197.399L506.502 185.099C505.602 184.599 505.002 183.699 504.902 182.599L508.002 165.299C508.402 164.299 509.302 163.499 510.302 163.099L535.802 153.799C537.202 153.299 538.602 153.199 540.002 153.499L568.602 159.299C569.202 159.699 569.802 159.999 570.302 160.299Z" fill="white" stroke="#3B80F7" stroke-width="2" stroke-linecap="round" stroke-linejoin="round"/>
<path d="M561.798 176C561.598 175.9 561.298 175.8 560.998 175.8H558.198C557.898 175.8 557.598 175.7 557.398 175.6L557.298 175.5C557.198 175.5 557.198 175.5 557.098 175.4H556.698C556.698 174 556.098 172.5 554.798 171.2C554.598 171 554.298 170.7 553.998 170.5C553.798 170.4 553.698 170.3 553.498 170.1L553.798 169.9C553.898 169.9 553.898 169.8 553.898 169.7V169.6C553.898 169.4 554.098 169.2 554.298 169.1L556.498 168.1C556.698 168 556.898 167.8 556.798 167.5C556.798 167.3 556.698 167.2 556.498 167.1C555.998 166.9 555.398 166.9 554.998 167.1H554.898L553.098 168.4C552.898 168.6 552.598 168.6 552.298 168.6H552.198C552.098 168.6 551.998 168.6 551.898 168.7L551.598 168.9C548.698 167.6 545.498 166.9 542.398 167L542.298 166.8C542.298 166.7 542.198 166.7 542.198 166.7L542.098 166.6H541.998C541.798 166.5 541.698 166.4 541.698 166.2V164.7C541.698 164.6 541.598 164.4 541.398 164.3C541.298 164.3 541.198 164.2 541.098 164.2C540.898 164.1 540.698 164.1 540.398 164.1C539.798 164.1 539.398 164.4 539.498 164.8V164.9L540.198 166.5C540.298 166.7 540.198 166.9 539.998 167L539.898 167.1C539.798 167.1 539.798 167.2 539.798 167.3V167.5C538.698 167.6 537.598 167.8 536.498 168.2C535.998 168.3 535.598 168.5 535.198 168.7C534.398 169 533.698 169.3 532.898 169.7C532.498 169.9 532.098 170.2 531.698 170.5L531.398 170.4C531.298 170.4 531.198 170.4 531.098 170.4H530.998C530.698 170.4 530.398 170.4 530.098 170.3L527.898 169.3C527.598 169.2 527.198 169.2 526.898 169.2C526.698 169.2 526.498 169.3 526.398 169.4C526.098 169.6 526.198 170 526.598 170.2C526.698 170.3 526.798 170.3 526.898 170.3L529.398 171C529.498 171 529.598 171.1 529.698 171.1C529.798 171.2 529.898 171.3 529.998 171.4V171.5C529.998 171.5 530.098 171.6 530.198 171.6L530.498 171.7C529.098 173.2 528.698 175.4 529.498 177.2L529.198 177.3C529.098 177.3 529.098 177.4 528.998 177.4V177.5C528.798 177.7 528.598 177.8 528.298 177.8L525.598 178.2C525.298 178.2 524.998 178.4 524.798 178.6C524.698 178.7 524.698 178.9 524.798 179C524.898 179.1 524.998 179.2 524.998 179.2C525.398 179.4 525.798 179.4 526.098 179.3H526.198L528.698 178.6C528.998 178.5 529.298 178.5 529.598 178.6H529.698C529.798 178.6 529.898 178.6 529.998 178.6H530.298C531.098 179.5 531.998 180.3 533.098 180.9C533.598 181.2 534.098 181.4 534.598 181.7C534.998 181.9 535.398 182 535.798 182.2C536.198 182.4 536.698 182.5 537.098 182.6L536.998 182.8C536.998 182.8 536.998 182.9 536.998 183L537.098 183.1C537.198 183.2 537.198 183.5 537.098 183.6L535.898 185.1C535.798 185.3 535.698 185.4 535.998 185.7C535.998 185.8 536.098 185.8 536.198 185.8C536.298 185.9 536.398 185.9 536.498 185.9C536.998 186 537.498 185.9 537.898 185.5V185.4L538.498 183.8C538.598 183.6 538.798 183.4 538.998 183.4H539.098C539.198 183.4 539.298 183.4 539.298 183.3L539.398 183.2C542.598 183.7 545.898 183.4 548.998 182.6L549.198 182.8L549.398 182.9H549.498C549.698 182.9 549.898 182.9 549.998 183C550.098 183 550.098 183.1 550.198 183.2L551.398 184.7C551.498 184.8 551.498 184.8 551.598 184.9C551.798 185 552.098 185.1 552.298 185.1C552.498 185.1 552.798 185.1 552.998 185C553.498 184.8 553.598 184.4 553.298 184.1L553.198 183.9L551.398 182.6C551.198 182.5 551.098 182.3 551.198 182.1V182C551.198 181.9 551.198 181.9 551.098 181.8L550.898 181.6C551.398 181.4 551.798 181.2 552.198 180.9C552.898 180.5 553.498 180.1 554.098 179.6C554.298 179.4 554.498 179.2 554.698 178.9C555.198 178.3 555.598 177.6 555.898 176.9H556.298C556.398 176.9 556.498 176.9 556.598 176.9L556.698 176.8C556.998 176.7 557.298 176.6 557.598 176.7L560.298 177.1C560.598 177.1 560.998 177.1 561.298 176.9C561.498 176.8 561.598 176.7 561.598 176.6C562.098 176.3 561.998 176 561.798 176ZM551.698 171.4C551.798 171.5 551.898 171.6 552.098 171.7C552.398 171.9 552.598 172.2 552.898 172.5C553.598 173.3 553.998 174.2 553.998 175.3L548.898 174.8H548.498C548.298 174.8 548.198 174.7 547.998 174.7C547.898 174.6 547.798 174.5 547.798 174.4C547.798 174.3 547.798 174.1 547.998 174L551.698 171.4ZM541.898 174.3L543.498 174.2L544.598 174.9L544.398 175.8L543.098 176.3L541.598 176L541.098 175.1L541.898 174.3ZM549.698 170.2L545.598 172.4C545.198 172.6 544.698 172.6 544.298 172.4C544.198 172.3 544.098 172.2 543.998 172.1L542.998 168.8C545.298 168.8 547.598 169.3 549.698 170.2ZM535.098 170.7C535.798 170.3 536.598 170 537.298 169.7C537.798 169.5 538.198 169.4 538.698 169.3C539.198 169.2 539.698 169.1 540.198 169L540.398 170.2L540.598 171.5L540.698 172.1C540.798 172.5 539.998 172.8 539.298 172.6L534.398 171C534.598 171 534.898 170.9 535.098 170.7ZM532.898 172.6L537.598 174.4L537.698 174.5C538.198 174.8 537.998 175.2 537.398 175.4L532.198 176.6C531.598 175.2 531.898 173.7 532.898 172.6ZM537.998 181C537.598 180.9 537.198 180.7 536.698 180.6C536.098 180.4 535.598 180.1 535.098 179.8C534.298 179.4 533.598 178.8 532.998 178.1L538.398 177.1C538.698 177 539.098 177.1 539.298 177.2C539.498 177.3 539.598 177.5 539.498 177.7L538.698 179.2L537.998 181ZM540.598 181.6L542.698 178.6C543.098 178.2 543.698 178.1 544.198 178.4L544.298 178.5L547.598 181.2C545.398 181.7 542.998 181.8 540.598 181.6ZM552.598 178.4C552.098 179 551.498 179.4 550.798 179.8L549.998 180.2L547.198 177.4C546.798 177 547.298 176.6 548.098 176.6L549.598 176.7L551.498 176.8L553.698 176.9C553.598 177.2 553.398 177.5 553.198 177.8C552.998 177.9 552.798 178.2 552.598 178.4Z" fill="#151A1F"/>
<path d="M334.301 203.899V243.499L228.301 182.299V142.699L334.301 203.899Z" fill="#FDF5D9" stroke="#F3C142" stroke-width="2" stroke-linecap="round" stroke-linejoin="round"/>
<path d="M439.701 142.699L334.301 203.899V243.499L439.701 182.299V142.699Z" fill="#FDF5D9" stroke="#F3C142" stroke-width="2" stroke-linecap="round" stroke-linejoin="round"/>
<path d="M277.4 193.999C277.2 193.199 276.8 192.399 276.3 191.699C276.2 191.599 276.2 191.499 276.1 191.499L275.6 190.999H275.9C276.8 191.099 277.2 190.499 277.2 189.499C277.2 188.299 276.8 187.199 276.1 186.299C275.6 185.699 275 185.199 274.3 184.799L272.2 183.599L271.2 182.999L269.7 182.099C269.5 181.999 269.4 181.999 269.4 182.299V187.299C269.5 187.799 269.3 188.399 268.8 188.699C267.8 189.499 266.4 189.799 265.2 189.299C265 189.199 264.8 189.099 264.6 188.999C263.4 188.299 262.6 187.099 262.3 185.799C262.2 185.499 262.2 185.399 262.5 185.499C263.2 185.799 263.9 185.899 264.6 185.899C265.5 185.999 266.4 185.499 266.9 184.799C267.3 183.799 267 182.599 266.3 181.799C266 181.299 265.5 180.999 265.1 180.699C264.8 180.499 264.4 180.399 264 180.299C262.1 180.199 261.1 181.299 261 183.599C261 185.899 262 188.099 263.6 189.599C264 189.899 264.3 190.199 264.8 190.499C265.5 190.899 266.3 191.099 267.1 191.199C268 191.299 268.9 190.999 269.6 190.399V193.199C269.6 193.399 269.6 193.499 269.8 193.599L270.5 193.999L271.7 194.699L272.9 195.399C273.6 195.799 274.3 196.199 275.1 196.599C276.8 197.399 277.9 196.299 277.4 193.999ZM262.2 183.899C262.5 182.499 263.2 181.699 264.5 181.799C264.7 181.799 264.9 181.899 265.1 181.999C265.3 182.099 265.5 182.299 265.7 182.499C265.9 182.699 266.1 182.999 266.1 183.299C266.1 183.499 266 183.699 265.8 183.899C264.9 184.699 263.8 184.699 262.4 184.199H262.3C262.2 184.199 262.1 184.099 262.2 183.899ZM271.7 185.799C271.7 185.699 271.7 185.699 271.8 185.699H271.9L272.3 185.999L272.9 186.299L273.5 186.599L273.9 186.799C274.4 187.099 274.8 187.699 274.8 188.299C274.8 188.999 274.5 189.299 273.9 188.999C273.6 188.799 273.3 188.699 273 188.499L272.6 188.299L272.1 187.999L271.9 187.899C271.8 187.899 271.7 187.699 271.8 187.599V185.799H271.7ZM274.2 193.799C274 193.699 273.7 193.599 273.4 193.399L273.3 193.299L272.7 192.999C272.5 192.899 272.3 192.799 272.1 192.699L271.9 192.599C271.8 192.499 271.7 192.399 271.8 192.299V190.199C271.8 190.099 271.8 189.999 271.9 189.999H272L272.5 190.299L273.1 190.699L273.7 190.999L274.1 191.199C274.6 191.499 274.9 191.899 275.1 192.399C275.2 192.599 275.2 192.799 275.2 192.899C275.2 193.799 274.8 194.099 274.2 193.799Z" fill="#F3C142"/>
<path d="M286.8 195.099C286.8 194.999 286.8 194.899 286.8 194.799C286.6 193.299 285.8 191.899 284.7 190.899C284.3 190.499 283.8 190.199 283.3 189.899C282 189.099 280.6 188.399 279.3 187.599C279.1 187.499 279 187.499 279 187.799V198.599C279 198.799 279.1 198.899 279.3 198.999L280.2 199.499L281.1 199.999C281.4 200.099 281.4 200.099 281.4 199.799V196.699C281.4 196.599 281.4 196.499 281.5 196.499H281.6L282.3 196.899L283.1 197.399C283.7 197.799 284.5 198.099 285.2 198.099C286.5 197.999 286.9 196.799 286.8 195.099ZM283.3 195.099C283.1 194.899 282.8 194.799 282.5 194.599C282.4 194.499 282.2 194.399 282.1 194.399L281.7 194.099L281.5 193.999C281.4 193.899 281.4 193.799 281.4 193.699V191.199C281.4 191.099 281.4 190.999 281.5 190.999H281.6L282 191.199L282.4 191.399L282.8 191.599L283.4 191.899C283.9 192.199 284.2 192.599 284.4 193.099C284.5 193.399 284.6 193.599 284.6 193.899C284.4 195.099 284 195.499 283.3 195.099Z" fill="#F3C142"/>
<path d="M294.7 196.498C294.9 196.598 295 196.798 295 196.998V198.698C295 198.898 295 198.998 294.7 198.898C293.3 198.098 291.9 197.298 290.5 196.498C290.3 196.398 290.2 196.398 290.2 196.698C290.2 197.198 290.2 197.798 290.2 198.298C290.2 198.498 290.3 198.698 290.4 198.698L292.1 199.698L293.1 200.298L294.1 200.798C294.3 200.898 294.4 201.098 294.4 201.298V202.998C294.4 203.298 294.3 203.298 294.1 203.198L292.6 202.298C291.9 201.898 291.3 201.498 290.6 201.098C290.3 200.898 290.3 200.998 290.3 201.298C290.3 202.498 290.3 203.798 290.3 204.998C290.3 205.298 290.2 205.298 290 205.198L289.1 204.598C288.8 204.398 288.6 204.298 288.3 204.098C288.1 203.998 288 203.798 288 203.598C288 201.798 288 199.998 288 198.198C288 196.398 288 194.698 288 192.898C288 192.598 288.1 192.598 288.3 192.698L291.5 194.598L294.7 196.498Z" fill="#F3C142"/>
<path d="M439.701 142.698L334.301 203.898L228.301 142.698L333.601 81.3984L439.701 142.698Z" fill="white" stroke="#F3C142" stroke-width="2" stroke-linecap="round" stroke-linejoin="round"/>
<path d="M439.701 119.2L334.301 180.5L228.301 119.2L333.601 58L439.701 119.2Z" fill="white" stroke="#D6544F" stroke-width="2" stroke-linecap="round" stroke-linejoin="round"/>
<path d="M334.301 180.499V190.899L228.301 129.699V119.199L334.301 180.499Z" fill="#F5DBDB" stroke="#D6544F" stroke-width="2" stroke-linecap="round" stroke-linejoin="round"/>
<path d="M439.701 119.199L334.301 180.499V190.899L439.701 129.699V119.199Z" fill="#F5DBDB" stroke="#D6544F" stroke-width="2" stroke-linecap="round" stroke-linejoin="round"/>
<path d="M288.3 122.499C288.7 122.699 289.1 122.899 289.5 123.099C289.9 123.199 290.4 123.399 290.9 123.499L289.7 124.199C289.5 124.199 289.3 124.099 289.1 124.099L288.4 123.899C288.2 123.799 287.9 123.699 287.7 123.599L287 123.199L286.9 123.099C286.4 122.799 286 122.499 285.6 121.999C285.3 121.599 285.1 121.199 285 120.699C285 120.199 285.2 119.699 285.5 119.399C285.9 118.799 286.5 118.399 287.1 117.999C287.6 117.699 288.2 117.399 288.8 117.199C289.3 116.999 289.9 116.899 290.5 116.799C291 116.699 291.6 116.699 292.1 116.699C292.6 116.699 293.1 116.799 293.6 116.899C294 116.999 294.5 117.099 294.9 117.299L296 117.799C296.3 117.999 296.7 118.299 297 118.599C297.3 118.799 297.5 119.099 297.6 119.399L296.4 120.099C296.2 119.799 295.9 119.599 295.7 119.299C295.4 118.999 295.1 118.799 294.8 118.599C294 118.099 293 117.899 292.1 117.899C291.5 117.899 290.9 117.999 290.4 118.099C289.8 118.299 289.1 118.599 288.6 118.899C288.2 119.099 287.8 119.399 287.5 119.799C287.3 120.099 287.1 120.399 287.1 120.699C287.1 120.999 287.2 121.299 287.3 121.599C287.5 121.999 287.9 122.299 288.3 122.499Z" fill="#151A1F"/>
<path d="M291.598 125.6L300.198 120.6L301.598 121.4L292.998 126.4L291.598 125.6Z" fill="#151A1F"/>
<path d="M295.898 128.1L308.998 120.5L310.398 121.3L297.298 128.9L295.898 128.1Z" fill="#151A1F"/>
<path d="M300.199 130.6L308.799 125.6L310.199 126.4L301.599 131.4L300.199 130.6Z" fill="#151A1F"/>
<path d="M313.398 134.3L318.698 131.2L320.098 132L314.798 135.1C314.498 135.3 314.198 135.4 313.898 135.5C313.598 135.6 313.298 135.7 312.998 135.8C312.598 135.9 312.198 136 311.698 136C311.298 136 310.798 136 310.398 136C309.898 135.9 309.498 135.8 308.998 135.7C308.498 135.5 308.098 135.3 307.698 135.1H307.598C307.198 134.9 306.898 134.6 306.598 134.4C306.398 134.2 306.198 133.9 306.098 133.6C305.998 133.4 305.998 133.1 306.098 132.8C306.198 132.5 306.298 132.3 306.498 132.1C306.698 131.9 306.798 131.7 306.998 131.6L307.798 131.1L312.998 128L314.398 128.8L309.198 131.9C308.798 132.1 308.498 132.4 308.198 132.7C307.998 132.9 307.898 133.3 307.998 133.6C308.198 134 308.498 134.3 308.898 134.5C309.398 134.8 309.998 135 310.498 135.1C310.998 135.2 311.598 135.1 312.098 135C312.598 134.8 312.998 134.6 313.398 134.3Z" fill="#151A1F"/>
<path d="M333.8 141.499C333.5 141.999 333 142.299 332.5 142.599L326.8 145.999L325.4 145.199L330.9 141.999C331.2 141.799 331.5 141.599 331.7 141.399C332 141.099 332.1 140.599 331.8 140.299C331.6 140.099 331.4 139.899 331.2 139.799C330.7 139.499 330.1 139.299 329.4 139.199C328.7 139.099 327.9 139.099 327.2 139.199L321.1 142.699L319.7 141.899L325.2 138.699C325.5 138.499 325.8 138.299 326 138.099C326.2 137.999 326.3 137.699 326.3 137.499C326.3 137.299 326.2 137.099 326.1 136.999C325.9 136.799 325.7 136.599 325.5 136.499C325 136.199 324.4 135.999 323.7 135.899C323 135.799 322.2 135.799 321.5 135.899L315.4 139.499L314 138.699L322.6 133.699L323.7 134.299L322.8 135.199H323.9C324.3 135.199 324.6 135.199 325 135.299C325.3 135.399 325.7 135.399 326 135.599C326.3 135.699 326.7 135.899 327 135.999C327.5 136.199 327.9 136.699 328.2 137.199C328.3 137.599 328.2 138.099 328 138.499C328.9 138.399 329.7 138.399 330.6 138.599C331.4 138.699 332.1 138.999 332.8 139.299C333.1 139.499 333.4 139.699 333.6 139.899C333.8 140.099 334 140.399 334.1 140.699C334.1 140.899 334 141.299 333.8 141.499Z" fill="#151A1F"/>
<path d="M313.801 124.3L312.201 125.2L310.801 124.4L312.401 123.5L313.801 124.3Z" fill="#151A1F"/>
<path d="M305.098 119.3L303.598 120.2L302.098 119.4L303.698 118.5L305.098 119.3Z" fill="#151A1F"/>
<path d="M345.998 100.099L343.698 105.299L334.698 106.699L328.098 102.899L330.398 97.5988L339.398 96.2988L345.998 100.099Z" fill="#151A1F"/>
<path d="M363.598 102.9L361.198 108.1L352.198 109.5L345.598 105.7L347.898 100.5L356.898 99.0996L363.598 102.9Z" fill="#151A1F"/>
<path d="M368.4 112.999L366.1 118.299L357.2 119.699L350.5 115.799L352.8 110.599L361.9 109.199L368.4 112.999Z" fill="#151A1F"/>
<path d="M333.298 107.4L330.998 112.7L321.998 114.1L315.398 110.2L317.698 105.1L326.698 103.6L333.298 107.4Z" fill="#151A1F"/>
<path d="M350.898 110.198L348.498 115.498L339.498 116.798L332.898 112.998L335.298 107.798L344.298 106.398L350.898 110.198Z" fill="#151A1F"/>
<path d="M355.701 120.4L353.401 125.6L344.401 127L337.801 123.2L340.201 118L349.201 116.6L355.701 120.4Z" fill="#151A1F"/>
<path d="M338.301 117.599L335.901 122.799L326.901 124.199L320.301 120.299L322.701 115.099L331.701 113.699L338.301 117.599Z" fill="#151A1F"/>
<path d="M120.698 200.498V208.298L66.8984 177.298V169.398L120.698 200.498Z" fill="#DBEAFD" stroke="#3B80F7" stroke-width="2" stroke-linecap="round" stroke-linejoin="round"/>
<path d="M174.099 169.398L120.699 200.498V208.298L174.099 177.298V169.398Z" fill="#DBEAFD" stroke="#3B80F7" stroke-width="2" stroke-linecap="round" stroke-linejoin="round"/>
<path d="M174.098 169.398L120.698 200.498L66.8984 169.398L120.298 138.398L174.098 169.398Z" fill="white" stroke="#3B80F7" stroke-width="2" stroke-linecap="round" stroke-linejoin="round"/>
<path d="M137.801 170.4L133.001 167.6L132.001 167L118.801 159.4C118.001 159 117.201 159 116.401 159.4L111.801 162.1C111.601 162.2 111.401 162.3 111.401 162.5C111.301 162.9 111.501 163.3 111.801 163.4L125.001 171L126.001 171.6L130.801 174.4C131.601 174.8 132.401 174.8 133.201 174.4L137.801 171.7C138.001 171.6 138.201 171.5 138.201 171.3C138.401 171 138.201 170.6 137.801 170.4ZM133.301 171.9C132.401 172.4 131.301 172.4 130.401 171.9C130.101 171.8 129.901 171.6 129.901 171.3C129.701 170.8 130.001 170.3 130.401 170.2C131.301 169.7 132.401 169.7 133.301 170.2C133.601 170.3 133.801 170.5 133.801 170.8C134.001 171.2 133.801 171.7 133.301 171.9Z" fill="#12161B"/>
<path d="M129.299 175.4L124.499 172.6L123.499 172L110.299 164.3C109.499 163.9 108.699 163.9 107.899 164.3L104.999 166L103.999 166.6L103.299 167C103.099 167.1 102.899 167.2 102.799 167.4C102.699 167.8 102.899 168.2 103.299 168.3L116.499 176L117.499 176.6L122.299 179.4C123.099 179.8 123.999 179.8 124.699 179.4L125.399 179L126.399 178.4L129.299 176.7C129.499 176.6 129.699 176.5 129.799 176.2C129.799 175.9 129.599 175.5 129.299 175.4ZM123.699 177.2C123.499 177.2 123.199 177.2 122.999 177.2C122.899 177.2 122.799 177.2 122.699 177.2C122.399 177.1 122.199 177 121.899 176.9C121.599 176.8 121.399 176.6 121.399 176.3C121.299 176.1 121.299 175.8 121.499 175.6C121.599 175.4 121.799 175.3 121.999 175.2C122.299 175.1 122.499 175 122.799 174.9C122.899 174.9 122.999 174.9 123.099 174.9C123.299 174.9 123.599 174.9 123.799 174.9C124.199 174.9 124.599 175 124.899 175.2C125.199 175.3 125.399 175.5 125.499 175.8C125.699 176.3 125.399 176.8 124.899 176.9C124.699 177 124.399 177.1 124.199 177.2C123.999 177.1 123.799 177.1 123.699 177.2Z" fill="#12161B"/>
<path d="M124.801 175.099C125.301 175.299 125.501 175.799 125.301 176.199C125.201 176.499 125.001 176.699 124.801 176.699C123.901 177.199 122.801 177.199 121.901 176.699C121.401 176.499 121.201 175.999 121.401 175.599C121.501 175.299 121.701 175.099 121.901 175.099C122.801 174.699 123.901 174.699 124.801 175.099Z" fill="#DCDCDC"/>
<path d="M228.301 182.299V219.599" stroke="#F3C142" stroke-width="2" stroke-linecap="round" stroke-linejoin="round" stroke-dasharray="0.5 0.5"/>
<path d="M439.699 182.299V236.899" stroke="#F3C142" stroke-width="2" stroke-linecap="round" stroke-linejoin="round" stroke-dasharray="0.5 0.5"/>
<path d="M334.301 243.5V262.8" stroke="#F3C142" stroke-width="2" stroke-linecap="round" stroke-linejoin="round" stroke-dasharray="0.5 0.5"/>
<path d="M447.798 298.2L441.598 301.8L435.398 298.2L441.598 294.6L447.798 298.2Z" fill="#F3C142" stroke="#F3C142" stroke-width="2" stroke-linecap="round" stroke-linejoin="round"/>
<path d="M180.3 329.799L174.2 333.299L168 329.799L174.1 326.199L180.3 329.799Z" fill="#A9B1BD" stroke="#A9B1BD" stroke-width="2" stroke-linecap="round" stroke-linejoin="round"/>
<path d="M179.601 204.799L173.501 208.299L167.301 204.799L173.401 201.199L179.601 204.799Z" fill="#3B80F7" stroke="#3B80F7" stroke-width="2" stroke-linecap="round" stroke-linejoin="round"/>
<path d="M553.998 236.899L547.798 240.399L541.598 236.899L547.798 233.299L553.998 236.899Z" fill="#A9B1BD" stroke="#A9B1BD" stroke-width="2" stroke-linecap="round" stroke-linejoin="round"/>
</g>
<defs>
<radialGradient id="paint0_radial" cx="0" cy="0" r="1" gradientUnits="userSpaceOnUse" gradientTransform="translate(339.099 212.075) scale(343.766 210.763)">
<stop offset="0.85" stop-color="#F6F7F8"/>
<stop offset="1" stop-color="#F6F7F8" stop-opacity="0"/>
</radialGradient>
<clipPath id="clip0">
<rect width="682" height="426" fill="white"/>
</clipPath>
</defs>
</svg>
