<svg width="682" height="413" viewBox="0 0 682 413" fill="none" xmlns="http://www.w3.org/2000/svg">
<g clip-path="url(#clip0)">
<path d="M681.98 146.486H609.274L660.727 116.632L681.53 128.617V127.469L661.027 115.663L607.383 84.6995L553.719 53.7362L500.056 22.773C499.99 22.7432 499.918 22.7278 499.846 22.7278C499.773 22.7278 499.702 22.7432 499.636 22.773L459.981 0H457.979L498.315 23.2724L498.175 23.3523H393.529L393.369 23.2624L394.59 22.5532L433.484 0H431.483L392.378 22.6931L353.003 0H351.002L391.378 23.2724L391.237 23.3523H286.532L286.392 23.2724L326.507 0H324.506L285.391 22.6931L246.016 0H244.015L284.39 23.2724L284.25 23.3523H179.545L179.404 23.2724L219.52 0H217.518L178.164 22.8429L124.84 53.8062L71.5268 84.7694L18.2033 115.733L-3 127.928V129.077L18.4535 116.632L53.0352 136.528L70.306 146.516H-3V147.515H70.276L69.9058 147.725L18.8037 177.34L-3 164.804V165.953L-0.328323 167.491L16.9425 177.479H-3V178.478H16.9425L13.7605 180.336L-3 189.985V191.143L18.8037 178.488L53.3354 198.385L70.5962 208.373H-3V209.372H70.6162L70.246 209.591L19.2139 239.186H19.0138L-3 226.431V227.58L0.442161 229.578L17.0826 239.156H-3V240.155H17.4929L14.1007 242.153L-3 252.041V253.2L19.1539 240.345L70.9364 270.189H-3V271.188H70.9664L19.4941 301.043L-3 288.078V289.237L19.244 302.052C19.3187 302.099 19.4057 302.123 19.4941 302.122H19.6742L73.2979 333.025L126.962 363.988L180.555 394.872V394.921L211.925 413H213.926L182.506 394.891H286.071L285.561 395.191L254.862 413H256.863L287.783 395.021L318.902 413H320.903L307.195 405.009L289.534 394.832H393.099L391.358 395.83L361.899 412.92H363.9L394.82 394.941L425.949 412.92H427.951L414.192 404.99L396.541 394.812H500.086L468.876 412.92H470.877L502.057 394.832L555.26 363.978H555.35V363.908L608.674 332.945L661.987 301.982L681.52 290.655V289.497L661.747 301.043L627.036 281.067L609.955 271.218H682V270.219H609.955L613.147 268.372L661.417 240.405L681.55 252.011V250.862L680.789 250.423L663.098 240.215H682V239.216H663.418L663.598 239.116L681.51 228.729V227.58L661.417 239.146H661.297L626.825 219.28L609.565 209.292H681.94V208.293H609.585L609.955 208.083L661.057 178.438L681.53 190.244V189.086L662.938 178.368H681.95V177.37H662.938L681.53 166.602V165.444L661.047 177.33L626.525 157.423L609.264 147.435H681.98V146.486ZM445.912 364.228L394.82 393.853L359.878 373.717L343.027 364.018H446.282L445.912 364.228ZM448.133 364.088L482.425 383.855L499.786 393.843H396.821L397.031 393.723L448.133 364.088ZM287.823 393.853L253.301 373.966L236.02 363.978H339.295L338.925 364.188L287.893 393.813L287.823 393.853ZM286.272 24.3911L337.033 53.6464H234.079L284.51 24.3911H286.272ZM393.259 24.3911L424.328 42.2998L444.021 53.6464H341.066L342.747 52.6475L391.498 24.3611L393.259 24.3911ZM341.646 115.593L393.109 85.6983L428.061 105.874L444.901 115.583L341.646 115.593ZM444.911 116.592L441.729 118.439L393.449 146.406L358.927 126.5L341.656 116.512L444.911 116.592ZM339.405 115.513L304.873 95.5367L287.602 85.5485H390.877L339.405 115.513ZM411.81 95.3669L394.98 85.6584H498.225L497.874 85.8681L446.772 115.513L411.81 95.3669ZM287.612 84.6196L287.963 84.4198L339.055 54.775L373.586 74.6714L390.847 84.6596L287.612 84.6196ZM285.741 85.6983L320.273 105.605L337.534 115.593H234.279L285.741 85.6983ZM232.418 115.473L197.886 95.5766L180.615 85.5885H283.89L232.418 115.473ZM337.544 116.552L286.081 146.406L234.279 116.552H337.544ZM339.795 116.632L374.317 136.528L391.588 146.516H288.323L339.795 116.632ZM338.264 178.408L335.092 180.256L286.822 208.223L252.29 188.317L235.029 178.328L338.264 178.408ZM234.999 177.41L286.472 147.555L321.434 167.701L338.274 177.41H234.999ZM338.825 240.145L338.264 240.475L287.182 270.12L252.65 250.213L235.149 240.145H338.825ZM235.56 239.146L235.72 239.056L286.822 209.412L321.354 229.318L338.414 239.146H235.56ZM338.935 302.122L287.492 331.966L235.72 302.122H338.935ZM235.71 301.123L287.182 271.268L321.714 291.175L338.985 301.163L235.71 301.123ZM340.776 302.201L375.287 322.098L392.558 332.086H289.374L340.776 302.201ZM268.17 321.958L285.671 332.046H182.386L182.747 331.836L233.849 302.201L268.17 321.958ZM389.446 334.943L341.176 362.909L289.374 333.055H392.638L389.446 334.943ZM394.5 333.175L429.021 353.071L446.292 363.059H343.007L346.189 361.201L394.5 333.175ZM339.305 363.029H236.07L287.502 333.185L322.014 353.071L339.305 363.029ZM445.592 302.381L394.49 332.016L359.968 312.12L342.697 302.132H445.922L445.592 302.381ZM447.813 302.241L482.775 322.388L499.615 332.096H396.321L396.681 331.886L447.813 302.241ZM342.747 301.173L394.179 271.328L428.701 291.215L445.972 301.203L342.747 301.173ZM340.866 301.083L306.354 281.196L289.083 271.208H392.248L340.866 301.083ZM289.063 270.239L289.434 270.03L340.536 240.395L375.067 260.291L392.348 270.279L289.063 270.239ZM342.217 240.195H445.782L394.139 270.159L342.217 240.195ZM342.607 239.196L393.859 209.462L428.391 229.358L445.461 239.196H342.607ZM340.606 239.196H340.486L306.004 219.34L288.733 209.352H391.928L340.606 239.196ZM288.723 208.383L291.925 206.535L340.195 178.568L391.998 208.413L288.723 208.383ZM359.327 188.406L342.067 178.418H445.281L444.931 178.628L393.829 208.273L359.327 188.406ZM342.047 177.42L342.417 177.21L393.519 147.565L428.041 167.461L445.321 177.449L342.047 177.42ZM391.247 147.685L340.145 177.33L305.193 157.184L288.363 147.485H391.598L391.247 147.685ZM446.782 116.632L481.304 136.528L498.575 146.516H395.3L446.782 116.632ZM465.914 126.5L448.643 116.512H551.908L551.548 116.722L500.446 146.356L465.914 126.5ZM448.643 115.513L449.004 115.303L500.036 85.6983L534.567 105.595L551.838 115.583L448.643 115.513ZM519.238 95.5367L501.967 85.5485H605.202L602.03 87.3963L553.75 115.363L519.238 95.5367ZM394.97 84.5497L446.432 54.7051L480.964 74.6015L498.245 84.5896L394.97 84.5497ZM448.143 54.5852H551.708L551.198 54.8849L500.086 84.5497L448.143 54.5852ZM444.341 54.5852L392.728 84.5497L358.227 64.6433L340.816 54.6552L444.341 54.5852ZM337.354 54.5852L336.843 54.8849L285.741 84.5497L251.21 64.6533L233.779 54.6052L337.354 54.5852ZM183.807 82.7818L232.078 54.815L283.86 84.6596H180.625L183.807 82.7818ZM178.754 84.5497L126.811 54.5852H230.366L227.024 56.5229L178.754 84.5497ZM127.662 115.343L178.754 85.7083L213.286 105.605L230.557 115.593H127.302L127.662 115.343ZM125.441 115.473L90.9089 95.5766L73.6381 85.5885H176.913L176.543 85.8082L125.441 115.473ZM230.567 116.552L230.206 116.761L179.114 146.406L144.583 126.51L127.312 116.522L230.567 116.552ZM181.326 146.276L232.418 116.632L266.949 136.528L284.22 146.516H180.975L181.326 146.276ZM284.24 147.485L232.768 177.33L198.236 157.433L180.965 147.445L284.24 147.485ZM213.636 167.461L230.907 177.449H127.632L130.834 175.602L179.104 147.635L213.636 167.461ZM230.897 178.448L179.455 208.303L144.493 188.117L127.652 178.408L230.897 178.448ZM233.158 178.528L267.69 198.425L284.951 208.413H181.706L233.158 178.528ZM284.971 209.372L284.601 209.591L233.568 239.186H233.448L198.977 219.33L181.706 209.342L284.971 209.372ZM231.427 239.186H128.583L179.835 209.452L231.427 239.186ZM231.837 240.185L180.185 270.15L145.653 250.243L128.192 240.175L231.837 240.185ZM233.498 240.385L268.03 260.281L285.291 270.269H182.036L233.498 240.385ZM285.321 271.228L282.119 273.086L233.849 301.053L182.056 271.198L285.321 271.228ZM214.717 291.204L231.978 301.193H128.723L129.083 300.983L180.185 271.338L214.717 291.204ZM231.988 302.191L231.627 302.401L180.525 332.046L146.004 312.14L128.733 302.152L231.988 302.191ZM178.654 332.156H75.4092L78.5912 330.308L126.872 302.341L178.654 332.156ZM285.641 333.155L234.149 362.889L199.877 343.143L182.366 333.045L285.641 333.155ZM214.827 353.001L232.318 363.089H129.083L180.535 333.235L214.827 353.001ZM285.821 393.953H182.887L234.149 364.068L268.671 383.954L285.821 393.953ZM290.044 393.833L341.146 364.198L376.108 384.334L392.798 393.953H289.834L290.044 393.833ZM496.403 335.033L448.123 362.999L413.602 343.093L396.331 333.105H499.585L496.403 335.033ZM501.407 333.265L535.738 352.881L553.239 362.979H449.974L501.407 333.265ZM552.509 302.471L501.407 332.106L466.445 311.96L449.614 302.261H552.909L552.509 302.471ZM554.73 302.331L589.022 322.098L606.523 332.186H503.318L503.678 331.976L554.73 302.331ZM449.604 301.263L452.786 299.405L501.056 271.438L535.588 291.334L552.859 301.323L449.604 301.263ZM447.743 301.183L413.261 281.146L396 271.158H499.235L447.743 301.183ZM395.96 270.329L447.413 240.485L499.205 270.329H395.96ZM466.525 250.353L449.064 240.285H552.759L552.198 240.615L501.096 270.249L466.525 250.353ZM449.514 239.286L500.746 209.561L535.338 229.308L552.349 239.146L449.514 239.286ZM447.513 239.286H447.433L412.951 219.43L395.69 209.442H498.875L447.513 239.286ZM395.65 208.323L396.02 208.113L447.123 178.478L481.654 198.375L498.925 208.363L395.65 208.323ZM466.255 188.347L448.994 178.358H552.198L500.766 208.193L466.255 188.347ZM448.964 177.36L452.166 175.512L500.436 147.545L552.249 177.4L448.964 177.36ZM495.393 149.283L447.123 177.25L395.33 147.405H498.575L495.393 149.283ZM502.657 146.217L553.759 116.582L588.281 136.478L605.562 146.466H502.317L502.657 146.217ZM555.621 116.502H658.845L607.383 146.386L555.621 116.502ZM658.835 115.503H555.611L607.073 85.6983L658.835 115.503ZM605.172 84.5397H501.937L502.307 84.3299L553.409 54.6951L605.172 84.5397ZM551.408 53.5764H448.433L498.865 24.3211H499.746V23.8118L551.408 53.5764ZM496.494 24.3511L446.052 53.6064L411.26 33.6001L395.25 24.3511H496.494ZM389.516 24.3511L386.064 26.3487L339.035 53.6064L288.263 24.3511H389.516ZM282.529 24.3511L281.709 24.8305L232.088 53.6064L197.126 33.4703L181.286 24.3511H282.529ZM178.464 23.8517V24.3511H179.334L230.146 53.6064H127.082L178.464 23.8517ZM125.08 54.775L159.612 74.6714L176.873 84.6596H73.6481L125.08 54.775ZM71.7769 85.7383L123.569 115.583H20.3146L71.7769 85.7383ZM19.8043 115.863V116.262L19.4541 116.062L19.8043 115.863ZM37.5955 126.52L20.3146 116.532H123.579L72.1171 146.406L37.5955 126.52ZM125.441 116.642L159.972 136.538L177.233 146.526H73.9883L125.441 116.642ZM177.253 147.495L174.111 149.333L125.831 177.3L73.9783 147.485L177.253 147.495ZM21.0151 177.2L72.1171 147.565L106.639 167.461L123.92 177.449H20.6548L21.0151 177.2ZM37.9257 188.367L20.6649 178.378H123.92L123.569 178.588L72.4674 208.263L37.9257 188.367ZM74.6788 208.133L125.781 178.488L160.733 198.634L177.573 208.333H74.3385L74.6788 208.133ZM177.593 209.332L126.181 239.146H126.081L91.5994 219.29L74.3285 209.302L177.593 209.332ZM21.3653 239.056L72.4674 209.422L106.999 229.318L124.01 239.146H21.2052L21.3653 239.056ZM20.8149 240.145H124.47L72.8176 270.11L38.2859 250.223L20.8149 240.145ZM126.521 240.345L161.103 260.241L178.364 270.229H75.049L126.521 240.345ZM178.334 271.188L177.964 271.408L126.862 301.043L92.3398 281.146L75.049 271.188H178.334ZM125 301.153H21.7455L73.1978 271.278L107.73 291.175L125 301.153ZM21.8056 302.152H125.01L121.818 303.999L73.548 331.966L21.8056 302.152ZM75.4693 333.115H178.694L127.212 362.969L75.4693 333.115ZM129.123 364.078H232.308L180.875 393.913L129.123 364.078ZM501.857 393.913L450.074 364.078H553.259L501.857 393.913ZM555.16 362.999L520.869 343.233L503.318 333.045H606.573L555.16 362.999ZM608.484 332.036L574.182 312.28L556.691 302.191H659.886L608.484 332.036ZM642.845 291.334L659.936 301.193H556.601L556.982 300.973L608.084 271.338L642.845 291.334ZM605.912 271.468L554.76 301.043L520.228 281.136L502.968 271.148H606.212L605.912 271.468ZM502.998 270.259L503.368 270.05L554.47 240.405L589.002 260.311L606.272 270.299L502.998 270.259ZM608.134 270.179L573.602 250.283L556.151 240.215H659.736L608.134 270.179ZM659.376 239.216H556.461L559.463 237.478L607.733 209.511L659.376 239.216ZM602.74 211.249L554.53 239.216H554.35L502.617 209.402H605.862L602.74 211.249ZM502.677 208.403L554.13 178.558L588.641 198.455L605.912 208.443L502.677 208.403ZM658.875 178.688L607.733 208.253L573.202 188.357L555.951 178.368H659.186L658.875 178.688ZM641.955 167.521L659.236 177.509H555.931L607.383 147.545L641.955 167.521ZM554.13 177.39L519.608 157.503L502.347 147.515H605.512L554.13 177.39Z" fill="url(#paint0_radial)"/>
<path d="M185.999 270.478L179.835 274.054L173.631 270.478L179.795 266.902L185.999 270.478Z" fill="#0080FF" stroke="#0080FF" stroke-width="2" stroke-linecap="round" stroke-linejoin="round"/>
<path d="M560.454 239.627L554.29 243.202L548.086 239.627L554.24 236.051L560.454 239.627Z" fill="#FFBF00" stroke="#FFBF00" stroke-width="1.5" stroke-linecap="round" stroke-linejoin="round"/>
<path d="M156.74 160.12L203.39 133.062L274.444 174.004" stroke="#0080FF" stroke-width="1.5" stroke-linecap="round" stroke-linejoin="round" stroke-dasharray="0.5 7"/>
<path d="M395.69 269.56V280.787L344.768 251.442V240.215L395.69 269.56Z" fill="#F6F7F8" stroke="#E1E5EA" stroke-width="1.5" stroke-linecap="round" stroke-linejoin="round"/>
<path d="M446.281 240.215L395.689 269.56V280.787L446.281 251.442V240.215Z" fill="#F6F7F8" stroke="#E1E5EA" stroke-width="1.5" stroke-linecap="round" stroke-linejoin="round"/>
<path d="M446.281 240.216L395.69 269.561L344.768 240.216L395.359 210.871L446.281 240.216Z" fill="#F6F7F8" stroke="#E1E5EA" stroke-width="1.5" stroke-linecap="round" stroke-linejoin="round"/>
<path d="M401.333 250.373L402.864 251.372L404.755 250.273L405.756 250.913L403.865 252.001L405.916 253.34C406.238 253.562 406.602 253.715 406.987 253.789C407.321 253.811 407.654 253.727 407.937 253.55C408.13 253.447 408.309 253.32 408.468 253.17C408.568 253.07 408.668 252.96 408.758 252.85L409.878 253.33C409.766 253.485 409.642 253.632 409.508 253.769C409.287 253.974 409.042 254.152 408.778 254.299C408.438 254.507 408.066 254.659 407.677 254.748C407.35 254.83 407.012 254.857 406.676 254.828C406.332 254.795 405.995 254.71 405.676 254.578C405.327 254.432 404.992 254.255 404.675 254.049L400.312 251.222L401.333 250.373Z" fill="#14181D"/>
<path d="M400.254 253.48C401.167 253.545 402.045 253.856 402.796 254.379L403.016 254.519L403.206 254.669L399.704 256.667C400.127 256.907 400.608 257.027 401.094 257.016C401.625 256.994 402.141 256.84 402.595 256.567C402.857 256.42 403.102 256.246 403.326 256.047C403.482 255.91 403.626 255.76 403.756 255.598L404.867 256.127C404.819 256.207 404.762 256.281 404.697 256.347C404.601 256.454 404.497 256.555 404.387 256.647C404.25 256.765 404.106 256.875 403.956 256.976C403.796 257.095 403.629 257.205 403.456 257.306C403.012 257.573 402.529 257.768 402.025 257.885C401.568 258.001 401.096 258.048 400.624 258.025C400.175 258.001 399.73 257.917 399.303 257.775C398.877 257.63 398.47 257.432 398.093 257.186C397.715 256.966 397.391 256.666 397.142 256.307C396.952 256.061 396.853 255.758 396.862 255.448C396.865 255.163 396.968 254.887 397.152 254.669C397.352 254.407 397.604 254.19 397.892 254.03C398.61 253.622 399.43 253.431 400.254 253.48ZM398.853 256.127L401.145 254.809C400.98 254.702 400.802 254.618 400.614 254.559C400.424 254.491 400.225 254.447 400.024 254.429C399.831 254.409 399.636 254.409 399.443 254.429C399.247 254.469 399.058 254.54 398.883 254.639C398.724 254.722 398.586 254.842 398.483 254.989C398.41 255.105 398.375 255.241 398.383 255.378C398.401 255.515 398.452 255.645 398.533 255.758C398.624 255.885 398.731 255.999 398.853 256.097" fill="#14181D"/>
<path d="M392.018 257.486C392.406 257.25 392.827 257.074 393.269 256.966C393.654 256.867 394.054 256.836 394.449 256.877C394.824 256.908 395.192 256.996 395.54 257.136C395.892 257.284 396.228 257.468 396.541 257.686L399.373 259.523L398.142 260.233L395.5 258.515C395.261 258.356 395.01 258.215 394.75 258.095C394.542 258.003 394.324 257.939 394.099 257.905C393.901 257.865 393.697 257.865 393.499 257.905C393.284 257.959 393.079 258.043 392.888 258.155C392.729 258.249 392.575 258.352 392.428 258.465L392.098 258.704L396.161 261.351L394.93 262.06L390.057 258.894C390.287 258.656 390.534 258.436 390.797 258.235C391.186 257.957 391.594 257.707 392.018 257.486Z" fill="#14181D"/>
<path d="M422.767 236.908L427.17 239.765V237.897C427.18 237.731 427.18 237.564 427.17 237.398L428.631 236.559V239.285H429.852C430.311 239.269 430.771 239.303 431.223 239.385L432.583 239.545C433.024 239.605 433.414 239.675 433.754 239.745L432.333 240.564L431.333 240.404C430.952 240.404 430.572 240.314 430.182 240.284H429.041H428.041L430.352 241.792L429.131 242.502L421.727 237.767L422.767 236.908Z" fill="#14181D"/>
<path d="M421.838 240.294L422.138 240.134L422.498 239.984C422.62 239.924 422.748 239.874 422.878 239.834L423.178 239.734L423.949 240.493L423.429 240.673C423.192 240.763 422.965 240.873 422.748 241.003C422.609 241.083 422.475 241.174 422.348 241.273C422.26 241.344 422.176 241.421 422.098 241.502L426.1 244.129L424.869 244.838L420.066 241.712C420.266 241.473 420.487 241.252 420.727 241.053C421.068 240.759 421.44 240.505 421.838 240.294Z" fill="#14181D"/>
<path d="M419.836 243.331C420.286 243.469 420.714 243.671 421.107 243.93C421.454 244.142 421.759 244.417 422.007 244.739C422.202 244.977 422.314 245.271 422.328 245.578C422.339 245.876 422.247 246.169 422.067 246.407C421.837 246.704 421.548 246.949 421.217 247.126C420.832 247.346 420.418 247.507 419.986 247.606C419.542 247.697 419.088 247.734 418.635 247.716C418.172 247.697 417.714 247.613 417.274 247.466C416.824 247.325 416.393 247.127 415.994 246.877C415.647 246.663 415.344 246.385 415.103 246.058C414.916 245.817 414.811 245.523 414.803 245.219C414.8 244.923 414.895 244.635 415.073 244.4C415.302 244.106 415.588 243.861 415.913 243.68C416.297 243.469 416.708 243.311 417.134 243.211C417.574 243.111 418.025 243.071 418.475 243.091C418.937 243.111 419.395 243.191 419.836 243.331ZM420.707 245.638C420.563 245.205 420.254 244.846 419.846 244.639C419.388 244.329 418.864 244.131 418.315 244.06C417.836 243.999 417.349 244.09 416.924 244.32C416.524 244.549 416.344 244.839 416.414 245.159C416.552 245.588 416.854 245.947 417.254 246.157C417.722 246.465 418.251 246.666 418.805 246.747C419.286 246.809 419.774 246.715 420.196 246.477C420.606 246.247 420.777 245.968 420.707 245.648" fill="#14181D"/>
<path d="M412.961 245.539L413.961 246.738C414.292 247.137 414.592 247.517 414.872 247.876C415.152 248.236 415.402 248.595 415.632 248.925C415.863 249.255 416.053 249.564 416.213 249.844L415.212 250.413L413.161 249.704C412.44 249.464 411.72 249.205 411 248.925C411.4 249.384 411.78 249.834 412.14 250.293L413.141 251.582L412.14 252.161C411.7 252.051 411.23 251.912 410.689 251.752L409.028 251.222L407.227 250.603L405.336 249.904L406.637 249.155L407.727 249.604L408.928 250.074L410.159 250.523C410.559 250.673 410.939 250.803 411.29 250.913C411.1 250.663 410.889 250.403 410.669 250.144C410.449 249.884 410.249 249.624 410.019 249.375L409.338 248.625C409.118 248.396 408.918 248.166 408.708 247.966L409.659 247.417L410.659 247.846L411.83 248.306C412.22 248.466 412.631 248.615 413.031 248.765L414.252 249.185C414.091 248.965 413.901 248.725 413.681 248.476L413.011 247.697L412.32 246.927C412.1 246.681 411.88 246.451 411.66 246.238L412.961 245.539Z" fill="#14181D"/>
<path d="M285.65 251.861V263.087L234.738 233.752V222.516L285.65 251.861Z" fill="#F6F7F8" stroke="#E1E5EA" stroke-width="1.5" stroke-linecap="round" stroke-linejoin="round"/>
<path d="M336.242 222.516L285.65 251.861V263.087L336.242 233.742V222.516Z" fill="#F6F7F8" stroke="#E1E5EA" stroke-width="1.5" stroke-linecap="round" stroke-linejoin="round"/>
<path d="M336.242 222.517L285.65 251.862L234.738 222.517L285.32 193.172L336.242 222.517Z" fill="#F6F7F8" stroke="#E1E5EA" stroke-width="1.5" stroke-linecap="round" stroke-linejoin="round"/>
<path d="M293.226 228.18L299.9 232.525L298.619 233.254L291.945 228.919L293.226 228.18Z" fill="#14191E"/>
<path d="M290.414 230.368C291.287 230.276 292.165 230.492 292.896 230.978C293.222 231.165 293.494 231.434 293.686 231.757C293.751 231.881 293.789 232.017 293.797 232.156C293.806 232.295 293.785 232.435 293.736 232.566C293.595 232.891 293.379 233.178 293.106 233.405C292.717 233.733 292.298 234.023 291.855 234.274L291.215 234.643L293.566 236.172L292.285 236.911L285.701 232.636C285.972 232.396 286.26 232.176 286.562 231.977L287.562 231.377C288.43 230.841 289.402 230.497 290.414 230.368ZM291.975 232.636C292.145 232.336 291.975 232.036 291.545 231.737C291.136 231.464 290.636 231.363 290.154 231.457C289.899 231.49 289.65 231.557 289.414 231.657C289.157 231.757 288.91 231.877 288.673 232.017C288.407 232.164 288.149 232.328 287.903 232.506L290.174 233.974L290.794 233.625C291.26 233.388 291.665 233.046 291.975 232.626" fill="#14191E"/>
<path d="M288.663 236.569L291.395 237.418L290.014 238.217L288.933 237.877C288.573 237.777 288.213 237.657 287.853 237.538L284.851 239.256L285.361 239.935L285.841 240.604L284.51 241.373C284.06 240.764 283.65 240.184 283.29 239.665C282.929 239.146 282.579 238.666 282.289 238.147C281.999 237.627 281.689 237.148 281.428 236.749C281.168 236.349 280.908 235.86 280.668 235.42L281.899 234.711L284.03 235.25L286.251 235.86L288.663 236.569ZM284.18 238.427L286.502 237.088L284.27 236.409C283.57 236.209 282.989 236.039 282.509 235.919C282.689 236.229 282.929 236.599 283.22 237.038C283.51 237.478 283.82 237.927 284.22 238.427" fill="#14191E"/>
<path d="M340.846 324.365V335.591L289.934 306.246V295.02L340.846 324.365Z" fill="#F6F7F8" stroke="#E1E5EA" stroke-width="1.5" stroke-linecap="round" stroke-linejoin="round"/>
<path d="M391.437 295.02L340.846 324.365V335.591L391.437 306.246V295.02Z" fill="#F6F7F8" stroke="#E1E5EA" stroke-width="1.5" stroke-linecap="round" stroke-linejoin="round"/>
<path d="M391.437 295.021L340.846 324.366L289.934 295.021L340.525 265.676L391.437 295.021Z" fill="#F6F7F8" stroke="#E1E5EA" stroke-width="1.5" stroke-linecap="round" stroke-linejoin="round"/>
<path d="M335.702 311.979C336.006 311.809 336.32 311.659 336.643 311.529C336.983 311.409 337.233 311.319 337.423 311.27L338.194 311.969C337.963 312.004 337.738 312.067 337.523 312.158C337.255 312.255 336.996 312.379 336.753 312.528C336.56 312.616 336.397 312.759 336.283 312.938C336.223 313.067 336.283 313.187 336.443 313.297C336.532 313.344 336.626 313.381 336.723 313.407C336.832 313.427 336.944 313.427 337.053 313.407C337.205 313.407 337.357 313.387 337.503 313.347C337.711 313.324 337.916 313.277 338.114 313.207C338.504 313.107 338.844 313.027 339.114 312.977C339.392 312.926 339.673 312.899 339.955 312.898C340.198 312.906 340.439 312.94 340.675 312.997C340.911 313.077 341.138 313.177 341.356 313.297C341.866 313.597 342.056 313.916 341.956 314.296C341.708 314.796 341.294 315.194 340.785 315.425C340.403 315.647 340.001 315.834 339.585 315.984C339.224 316.094 338.964 316.174 338.814 316.204L338.004 315.494C338.264 315.435 338.544 315.355 338.854 315.255C339.181 315.142 339.496 314.999 339.795 314.825C340.018 314.719 340.213 314.561 340.365 314.366C340.439 314.239 340.378 314.119 340.185 314.006C339.984 313.895 339.751 313.856 339.525 313.896C339.143 313.936 338.765 314.006 338.394 314.106C338.117 314.187 337.837 314.254 337.553 314.306C337.293 314.358 337.028 314.384 336.763 314.386C336.514 314.393 336.265 314.37 336.022 314.316C335.764 314.247 335.515 314.147 335.282 314.016C334.802 313.727 334.592 313.407 334.662 313.017C334.732 312.628 335.102 312.328 335.702 311.979Z" fill="#13171C"/>
<path d="M357.657 300.754C357.987 300.867 358.305 301.01 358.608 301.184L361.78 303.042C361.63 303.171 361.4 303.361 361.079 303.601C360.717 303.892 360.328 304.15 359.919 304.37C359.62 304.546 359.305 304.694 358.978 304.809C358.679 304.921 358.366 304.988 358.047 305.009C357.729 305.04 357.408 305.02 357.097 304.949C356.769 304.877 356.454 304.752 356.166 304.58C355.918 304.46 355.712 304.269 355.576 304.03C355.536 303.943 355.515 303.847 355.515 303.751C355.515 303.654 355.536 303.559 355.576 303.471C355.661 303.254 355.798 303.062 355.976 302.912C356.326 302.612 356.717 302.363 357.137 302.173L357.687 301.953L357.487 301.843C357.347 301.753 357.196 301.683 357.037 301.633C356.877 301.574 356.707 301.543 356.536 301.543C356.134 301.522 355.735 301.627 355.396 301.843C355.147 301.975 354.912 302.132 354.695 302.312C354.546 302.435 354.405 302.569 354.275 302.712L353.154 302.223C353.306 302.051 353.474 301.894 353.655 301.753C353.916 301.534 354.197 301.34 354.495 301.174C354.848 300.956 355.233 300.794 355.636 300.694C355.98 300.596 356.338 300.552 356.697 300.565C357.025 300.577 357.349 300.641 357.657 300.754ZM359.838 303.241L358.498 302.452L358.147 302.582C358.007 302.642 357.857 302.722 357.707 302.802L357.337 303.052C357.241 303.129 357.157 303.22 357.087 303.321C357.067 303.367 357.057 303.416 357.057 303.466C357.057 303.516 357.067 303.565 357.087 303.611C357.144 303.728 357.239 303.823 357.357 303.881C357.615 304.037 357.918 304.103 358.217 304.07C358.528 304.023 358.827 303.918 359.098 303.761C359.37 303.606 359.631 303.433 359.879 303.241" fill="#13171C"/>
<path d="M350.372 303.53C350.888 303.238 351.444 303.023 352.023 302.891L352.753 303.62C352.323 303.711 351.908 303.866 351.523 304.079C351.052 304.349 350.852 304.639 350.902 304.958C350.952 305.278 351.252 305.577 351.793 305.897C352.271 306.187 352.807 306.367 353.364 306.426C353.934 306.464 354.501 306.32 354.985 306.017C355.177 305.909 355.358 305.782 355.525 305.637C355.663 305.529 355.784 305.401 355.885 305.258L357.046 305.747C356.933 305.917 356.795 306.069 356.636 306.197C356.406 306.393 356.158 306.567 355.895 306.716C355.072 307.198 354.127 307.431 353.174 307.385C352.719 307.363 352.269 307.286 351.833 307.156C351.394 307.015 350.971 306.827 350.572 306.596C350.234 306.405 349.929 306.158 349.671 305.867C349.471 305.639 349.343 305.358 349.301 305.058C349.277 304.774 349.355 304.491 349.521 304.259C349.74 303.95 350.032 303.699 350.372 303.53Z" fill="#13171C"/>
<path d="M345.278 306.457C345.585 306.287 345.903 306.137 346.229 306.008C346.481 305.909 346.738 305.826 346.999 305.758L347.77 306.457C347.544 306.5 347.323 306.564 347.11 306.647C346.837 306.738 346.575 306.858 346.329 307.006C346.139 307.095 345.979 307.237 345.869 307.416C345.795 307.556 345.845 307.676 346.019 307.775C346.106 307.826 346.201 307.863 346.299 307.885C346.408 307.905 346.52 307.905 346.629 307.885L347.089 307.825L347.7 307.676C348.08 307.576 348.42 307.496 348.701 307.446C348.978 307.398 349.259 307.374 349.541 307.376C349.785 307.374 350.027 307.408 350.261 307.476C350.504 307.545 350.736 307.645 350.952 307.775C351.452 308.065 351.652 308.385 351.542 308.774C351.432 309.164 351.042 309.503 350.372 309.893C349.993 310.123 349.59 310.311 349.171 310.452L348.4 310.682L347.6 309.963C347.853 309.903 348.133 309.823 348.44 309.723C348.767 309.614 349.082 309.474 349.381 309.304C349.605 309.193 349.8 309.032 349.951 308.834C350.021 308.704 349.951 308.594 349.771 308.485C349.573 308.376 349.345 308.334 349.121 308.365C348.734 308.402 348.353 308.476 347.98 308.584C347.69 308.664 347.4 308.724 347.14 308.774C346.88 308.831 346.615 308.858 346.349 308.854C346.1 308.862 345.852 308.838 345.609 308.784C345.35 308.724 345.104 308.623 344.878 308.485C344.388 308.205 344.188 307.875 344.258 307.486C344.328 307.096 344.688 306.807 345.278 306.457Z" fill="#13171C"/>
<path d="M342.857 308.004C344.169 309.3 345.358 310.714 346.409 312.229C346.555 312.441 346.676 312.669 346.77 312.908C346.85 313.09 346.875 313.292 346.84 313.487C346.8 313.677 346.711 313.853 346.58 313.997C346.397 314.187 346.184 314.345 345.949 314.466C345.753 314.577 345.549 314.674 345.339 314.756C345.163 314.823 344.982 314.876 344.798 314.916L344.058 314.217C344.347 314.146 344.626 314.038 344.888 313.897C345.199 313.717 345.369 313.537 345.389 313.348C345.394 313.103 345.308 312.864 345.149 312.678C344.048 312.459 342.887 312.199 341.676 311.889C340.466 311.58 339.235 311.22 337.994 310.811L339.265 310.081L340.416 310.471C340.836 310.611 341.276 310.741 341.716 310.871L343.067 311.26L344.378 311.59C343.998 311.12 343.568 310.641 343.077 310.141C342.587 309.642 342.077 309.143 341.636 308.713L342.857 308.004Z" fill="#13171C"/>
<path d="M359.668 295.379L365.671 298.885C365.797 298.965 365.932 299.032 366.072 299.085C366.194 299.128 366.322 299.151 366.452 299.154C366.585 299.174 366.719 299.174 366.852 299.154C367.013 299.105 367.17 299.045 367.322 298.975L368.153 299.664C367.835 299.842 367.5 299.986 367.152 300.093C366.871 300.185 366.577 300.232 366.282 300.233C366.013 300.236 365.745 300.192 365.491 300.103C365.219 300.012 364.957 299.892 364.711 299.744L358.707 296.218L359.668 295.379Z" fill="#13171C"/>
<path d="M356.755 297.059L362.759 300.564C362.889 300.645 363.026 300.712 363.169 300.764C363.289 300.806 363.413 300.833 363.54 300.844C363.675 300.848 363.81 300.831 363.94 300.794C364.103 300.746 364.263 300.69 364.42 300.624L365.251 301.304C364.933 301.484 364.598 301.632 364.25 301.743C363.968 301.831 363.675 301.875 363.379 301.873C363.107 301.874 362.837 301.831 362.579 301.743C362.309 301.654 362.05 301.533 361.808 301.383L355.805 297.858L356.755 297.059Z" fill="#13171C"/>
<path d="M399.893 177.221L476.1 133.004L531.385 164.866" stroke="#0080FF" stroke-width="1.5" stroke-linecap="round" stroke-linejoin="round" stroke-dasharray="0.5 7"/>
<path d="M588.151 183.413L572.361 198.166C572.141 198.324 571.91 198.467 571.671 198.595L571.46 198.695C571.248 198.808 571.027 198.904 570.8 198.985L570.64 199.045C570.36 199.134 570.069 199.214 569.779 199.284C569.38 199.376 568.976 199.443 568.569 199.484L538.7 201.312C537.351 201.47 535.985 201.224 534.777 200.603L534.447 200.403L513.104 188.098C512.924 187.978 512.764 187.848 512.603 187.718L512.513 187.638C512.373 187.508 512.243 187.368 512.123 187.219L512.053 187.119C511.993 187.039 511.943 186.959 511.893 186.879L511.813 186.749L511.703 186.519C511.699 186.473 511.699 186.426 511.703 186.38C511.672 186.298 511.645 186.215 511.623 186.13V186.01C511.613 185.89 511.613 185.77 511.623 185.65V192.552C511.613 192.675 511.613 192.799 511.623 192.922V193.042C511.618 193.132 511.646 193.221 511.703 193.291C511.699 193.335 511.699 193.378 511.703 193.421C511.733 193.501 511.77 193.577 511.813 193.651L511.893 193.791L512.053 194.021V194.11C512.175 194.254 512.306 194.391 512.443 194.52C512.472 194.552 512.506 194.579 512.543 194.6C512.693 194.743 512.858 194.87 513.034 194.979L534.337 207.285L534.667 207.495C535.875 208.115 537.241 208.362 538.59 208.204L568.458 206.366C568.866 206.324 569.27 206.258 569.669 206.166H569.749C570.014 206.105 570.274 206.028 570.53 205.936L570.69 205.876C570.92 205.787 571.14 205.697 571.35 205.597L571.56 205.487C571.8 205.359 572.031 205.216 572.251 205.057L588.061 190.305C588.342 190.012 588.533 189.644 588.611 189.246C588.621 189.123 588.621 189 588.611 188.877V181.965C588.643 182.488 588.479 183.004 588.151 183.413Z" fill="#D6EBFF" stroke="#0080FF" stroke-width="1.5" stroke-linecap="round" stroke-linejoin="round"/>
<path d="M577.025 163.276C577.53 163.535 577.966 163.912 578.296 164.375L588.452 180.885C588.686 181.281 588.784 181.743 588.73 182.199C588.675 182.656 588.472 183.082 588.152 183.412L572.362 198.165C571.237 198.932 569.928 199.387 568.569 199.483L538.701 201.311C537.352 201.469 535.986 201.223 534.778 200.602L534.448 200.402L513.105 188.097C512.66 187.849 512.283 187.496 512.006 187.07C511.728 186.643 511.56 186.156 511.514 185.649L514.586 168.37C514.781 167.857 515.092 167.396 515.495 167.022C515.897 166.648 516.38 166.371 516.907 166.213L542.433 156.904C543.798 156.437 545.265 156.351 546.676 156.654L575.364 162.437C575.942 162.666 576.497 162.947 577.025 163.276Z" fill="white" stroke="#0080FF" stroke-width="1.5" stroke-linecap="round" stroke-linejoin="round"/>
<path d="M560.353 186.78C560.673 187.08 560.533 187.46 560.033 187.649C559.816 187.717 559.588 187.741 559.362 187.719C559.115 187.711 558.873 187.649 558.652 187.539C558.583 187.501 558.522 187.45 558.472 187.39L557.231 185.931C557.177 185.868 557.113 185.814 557.041 185.772C556.881 185.689 556.709 185.634 556.53 185.612H556.35C556.279 185.604 556.211 185.58 556.15 185.542L555.93 185.362C552.811 186.242 549.542 186.46 546.334 186.001L546.224 186.161C546.174 186.219 546.108 186.26 546.034 186.281H545.914C545.796 186.301 545.685 186.348 545.589 186.419C545.493 186.49 545.416 186.583 545.363 186.69L544.763 188.279V188.338C544.593 188.523 544.375 188.658 544.133 188.729C543.892 188.799 543.635 188.802 543.392 188.738C543.272 188.716 543.156 188.672 543.052 188.608C542.989 188.574 542.932 188.53 542.882 188.478C542.602 188.199 542.642 188.019 542.762 187.879L543.952 186.401C543.986 186.367 544.013 186.328 544.031 186.284C544.049 186.24 544.058 186.193 544.058 186.146C544.058 186.099 544.049 186.052 544.031 186.008C544.013 185.964 543.986 185.925 543.952 185.891L543.892 185.821C543.874 185.797 543.864 185.767 543.864 185.737C543.864 185.706 543.874 185.676 543.892 185.652L543.973 185.482C542.551 185.131 541.184 184.586 539.91 183.864C538.84 183.264 537.887 182.475 537.098 181.537L536.808 181.596C536.719 181.617 536.627 181.617 536.538 181.596H536.398C536.108 181.527 535.807 181.527 535.517 181.596L532.996 182.316H532.886C532.504 182.4 532.104 182.351 531.755 182.176C531.651 182.124 531.565 182.045 531.505 181.946C531.466 181.888 531.445 181.821 531.445 181.751C531.445 181.682 531.466 181.614 531.505 181.557C531.589 181.432 531.7 181.327 531.83 181.251C531.96 181.175 532.105 181.129 532.255 181.117L534.987 180.747C535.25 180.726 535.496 180.609 535.677 180.418L535.737 180.348C535.788 180.287 535.859 180.248 535.937 180.238L536.238 180.158C535.843 179.239 535.728 178.225 535.906 177.242C536.084 176.258 536.547 175.348 537.238 174.625L536.948 174.515C536.848 174.455 536.808 174.425 536.788 174.385V174.305C536.734 174.183 536.638 174.084 536.518 174.025C536.427 173.965 536.325 173.924 536.218 173.906L533.666 173.216C533.56 173.188 533.459 173.144 533.366 173.087C533.016 172.887 532.936 172.577 533.206 172.327C533.358 172.195 533.546 172.111 533.746 172.088C534.079 172.011 534.428 172.035 534.747 172.158L536.978 173.156C537.25 173.268 537.547 173.306 537.839 173.266H537.979C538.07 173.237 538.168 173.237 538.259 173.266L538.589 173.376C538.976 173.079 539.38 172.806 539.8 172.557C541.922 171.39 544.255 170.657 546.664 170.4V170.17C546.659 170.14 546.664 170.109 546.679 170.082C546.693 170.055 546.716 170.033 546.744 170.02L546.824 169.95C546.912 169.905 546.979 169.829 547.013 169.736C547.046 169.643 547.043 169.541 547.004 169.451L546.334 167.873V167.803C546.254 167.453 546.674 167.144 547.265 167.104C547.489 167.084 547.714 167.114 547.925 167.194L548.195 167.323C548.425 167.463 548.485 167.583 548.485 167.713V169.341C548.5 169.428 548.534 169.511 548.586 169.582C548.638 169.653 548.707 169.711 548.786 169.751L548.886 169.8L548.996 169.85C549.096 169.85 549.126 169.94 549.146 169.99L549.216 170.22C552.402 170.132 555.567 170.767 558.472 172.078L558.762 171.928C558.843 171.888 558.932 171.868 559.022 171.868H559.172C559.453 171.878 559.731 171.798 559.963 171.638L561.714 170.37H561.784C562.02 170.246 562.283 170.182 562.549 170.182C562.816 170.182 563.078 170.246 563.315 170.37C563.387 170.402 563.45 170.451 563.497 170.514C563.544 170.577 563.574 170.651 563.585 170.729C563.61 170.851 563.587 170.977 563.522 171.083C563.457 171.189 563.354 171.266 563.235 171.299L561.043 172.298C560.943 172.333 560.854 172.396 560.787 172.479C560.72 172.562 560.677 172.661 560.663 172.767C560.669 172.8 560.662 172.834 560.643 172.862C560.625 172.89 560.596 172.91 560.563 172.917L560.293 173.097C562.464 174.605 563.525 176.473 563.475 178.33H563.835C563.911 178.34 563.985 178.36 564.055 178.39L564.175 178.48C564.416 178.627 564.694 178.703 564.976 178.7H567.787C568.053 178.696 568.315 178.762 568.548 178.89C568.65 178.928 568.736 178.999 568.793 179.091C568.851 179.183 568.877 179.291 568.868 179.399C568.842 179.475 568.8 179.545 568.744 179.603C568.689 179.662 568.622 179.708 568.548 179.739C568.247 179.918 567.894 179.989 567.547 179.938L564.806 179.579C564.51 179.538 564.209 179.579 563.935 179.699L563.825 179.749C563.736 179.769 563.644 179.769 563.555 179.749H563.185C562.449 181.477 561.128 182.891 559.452 183.744C559.032 183.984 558.572 184.213 558.111 184.423L558.271 184.583C558.287 184.607 558.295 184.635 558.295 184.663C558.295 184.691 558.287 184.719 558.271 184.743V184.823C558.242 184.917 558.247 185.019 558.285 185.111C558.323 185.202 558.393 185.277 558.482 185.322L560.253 186.591L560.353 186.78ZM547.345 184.503C549.687 184.799 552.064 184.647 554.349 184.054L551.067 181.347C551.034 181.318 550.997 181.294 550.957 181.277C550.717 181.142 550.44 181.087 550.167 181.12C549.894 181.152 549.638 181.27 549.436 181.457L547.435 184.503H547.345ZM544.123 178.32C544.753 178.171 544.883 177.711 544.433 177.441L544.293 177.381L539.62 175.564C539.148 176.102 538.829 176.756 538.697 177.459C538.565 178.162 538.625 178.887 538.869 179.559L544.123 178.31V178.32ZM541.811 182.785C542.721 183.297 543.688 183.699 544.693 183.984L546.344 180.787C546.444 180.588 546.344 180.388 546.104 180.258C545.815 180.106 545.482 180.06 545.163 180.128L539.78 181.127C540.375 181.795 541.079 182.359 541.861 182.795L541.811 182.785ZM556.731 183.205C557.001 183.075 557.261 182.945 557.511 182.795C558.781 182.14 559.8 181.087 560.413 179.799L554.769 179.579C554.029 179.579 553.529 180.018 553.909 180.388L556.731 183.215V183.205ZM556.44 173.226C554.323 172.318 552.04 171.859 549.736 171.878L550.737 175.134C550.787 175.258 550.879 175.361 550.997 175.424C551.199 175.523 551.422 175.574 551.647 175.574C551.873 175.574 552.095 175.523 552.298 175.424L556.46 173.216L556.44 173.226ZM541.821 173.736C541.571 173.886 541.331 174.035 541.111 174.195L546.054 175.783C546.704 175.983 547.495 175.693 547.435 175.264L546.954 172.058C545.152 172.288 543.41 172.857 541.821 173.736ZM560.733 178.161C560.668 177.396 560.427 176.657 560.03 176.001C559.633 175.344 559.089 174.788 558.442 174.375L554.659 176.772C554.589 176.805 554.53 176.858 554.489 176.923C554.448 176.989 554.426 177.064 554.426 177.142C554.426 177.219 554.448 177.295 554.489 177.36C554.53 177.426 554.589 177.478 554.659 177.511C554.815 177.6 554.99 177.651 555.17 177.661L560.693 178.161H560.733ZM550.246 177.232L548.655 177.342L547.835 178.121L548.375 178.99L549.876 179.279L551.207 178.79L551.377 177.881L550.246 177.232Z" fill="#0080FF"/>
<path d="M127.091 203.41V211.261L73.2676 180.247V172.387L127.091 203.41Z" fill="#D6EBFF" stroke="#0080FF" stroke-width="1.5" stroke-linecap="round" stroke-linejoin="round"/>
<path d="M180.565 172.387L127.092 203.41V211.261L180.565 180.237V172.387Z" fill="#D6EBFF" stroke="#0080FF" stroke-width="1.5" stroke-linecap="round" stroke-linejoin="round"/>
<path d="M180.565 172.384L127.091 203.407L73.2676 172.384L126.741 141.371L180.565 172.384Z" fill="white" stroke="#0080FF" stroke-width="1.5" stroke-linecap="round" stroke-linejoin="round"/>
<path d="M137.868 176.3C139.779 177.838 139.549 179.995 137.167 181.374C135.675 182.132 134.024 182.528 132.349 182.528C130.674 182.528 129.023 182.132 127.531 181.374L112.592 172.794C109.93 171.256 109.91 168.798 112.592 167.22C114.401 166.282 116.448 165.9 118.475 166.122C118.925 165.69 119.426 165.315 119.966 165.003C122.074 163.933 124.406 163.375 126.771 163.375C129.135 163.375 131.467 163.933 133.575 165.003C135.706 166.231 136.697 167.92 136.347 169.617C136.692 169.754 137.027 169.918 137.347 170.107C140.269 171.795 140.459 174.482 137.868 176.3ZM129.642 180.145C130.479 180.565 131.403 180.784 132.339 180.784C133.276 180.784 134.199 180.565 135.036 180.145C136.517 179.286 136.507 177.888 135.036 177.029L133.595 176.2L134.876 175.59L135.236 175.401C137.237 174.272 137.167 172.404 135.236 171.305C134.85 171.084 134.44 170.907 134.015 170.776L133.014 170.466L133.285 169.807C133.815 168.499 133.165 167.15 131.514 166.202C130.06 165.468 128.454 165.085 126.826 165.085C125.197 165.085 123.591 165.468 122.138 166.202C121.583 166.511 121.099 166.933 120.717 167.44L120.166 168.219L118.806 167.919C117.452 167.623 116.038 167.803 114.803 168.429C113.322 169.278 113.332 170.676 114.803 171.535L129.732 180.145" fill="#0080FF"/>
<path d="M234.738 185.242V222.518" stroke="#0080FF" stroke-width="1.5" stroke-linecap="round" stroke-linejoin="round" stroke-dasharray="0.5 7"/>
<path d="M446.281 185.23V239.746" stroke="#0080FF" stroke-width="1.5" stroke-linecap="round" stroke-linejoin="round" stroke-dasharray="0.5 7"/>
<path d="M340.855 246.387V265.674" stroke="#0080FF" stroke-width="1.5" stroke-linecap="round" stroke-linejoin="round" stroke-dasharray="0.5 7"/>
<path d="M340.845 206.825V246.388L234.738 185.241V145.668L340.845 206.825Z" fill="#FFF5D6" stroke="#FFBF00" stroke-width="1.5" stroke-linecap="round" stroke-linejoin="round"/>
<path d="M446.282 145.668L340.846 206.825V246.388L446.282 185.241V145.668Z" fill="#FFF5D6" stroke="#FFBF00" stroke-width="1.5" stroke-linecap="round" stroke-linejoin="round"/>
<path d="M283.94 196.886C284.42 199.254 283.279 200.352 281.328 199.353C280.608 198.994 279.897 198.594 279.187 198.175L277.986 197.486L276.755 196.766L276.045 196.357C275.835 196.237 275.855 196.117 275.855 195.957V193.171C275.519 193.473 275.125 193.704 274.696 193.849C274.268 193.993 273.814 194.048 273.363 194.01C272.562 193.98 271.781 193.75 271.092 193.341C270.67 193.095 270.278 192.804 269.921 192.472C269.089 191.71 268.425 190.784 267.97 189.752C267.515 188.72 267.28 187.606 267.279 186.479C267.359 184.131 268.43 183.073 270.281 183.153C270.688 183.172 271.083 183.292 271.432 183.502C271.916 183.793 272.34 184.172 272.683 184.621C273.065 185.007 273.328 185.495 273.441 186.026C273.555 186.557 273.514 187.109 273.323 187.617C273.078 187.991 272.737 188.293 272.336 188.492C271.935 188.69 271.488 188.778 271.042 188.746C270.326 188.779 269.611 188.653 268.95 188.376C268.71 188.287 268.7 188.376 268.77 188.646C269.093 189.985 269.93 191.144 271.102 191.872C271.285 191.982 271.48 192.073 271.682 192.142C272.282 192.376 272.934 192.447 273.57 192.347C274.207 192.247 274.805 191.98 275.304 191.573C275.515 191.404 275.677 191.184 275.776 190.933C275.874 190.683 275.905 190.411 275.865 190.144V185.15C275.865 184.901 275.925 184.861 276.145 184.99L277.616 185.839L278.616 186.409L280.758 187.647C281.451 188.045 282.065 188.566 282.569 189.185C283.328 190.068 283.731 191.2 283.7 192.362C283.7 193.361 283.229 193.94 282.359 193.86H282.099L282.629 194.369C283.3 195.064 283.756 195.938 283.94 196.886ZM268.64 186.898C268.64 187.058 268.64 187.138 268.75 187.198H268.84C270.201 187.677 271.382 187.697 272.252 186.898C272.335 186.822 272.401 186.729 272.446 186.626C272.491 186.523 272.513 186.411 272.513 186.299C272.49 185.98 272.355 185.679 272.132 185.45C271.969 185.261 271.776 185.099 271.562 184.97C271.376 184.851 271.162 184.782 270.942 184.771C269.661 184.701 268.94 185.45 268.64 186.858V186.898ZM280.648 196.707C281.278 196.986 281.648 196.707 281.588 195.917C281.569 195.559 281.464 195.21 281.281 194.9C281.098 194.591 280.843 194.33 280.538 194.14L280.127 193.9L279.517 193.55L278.877 193.191C278.727 193.091 278.566 193.001 278.406 192.911C278.266 192.831 278.216 192.911 278.226 193.031V195.118C278.216 195.179 278.225 195.242 278.252 195.297C278.279 195.352 278.322 195.398 278.376 195.428L278.616 195.558L279.207 195.908L279.767 196.237C280.067 196.407 280.368 196.577 280.658 196.707H280.648ZM278.226 188.716V190.414C278.209 190.475 278.215 190.54 278.243 190.597C278.27 190.654 278.318 190.699 278.376 190.724L278.596 190.854L279.137 191.163L279.567 191.413C279.867 191.593 280.177 191.762 280.478 191.912C281.038 192.212 281.358 191.912 281.338 191.263C281.324 190.958 281.234 190.662 281.074 190.402C280.915 190.142 280.693 189.926 280.428 189.775L280.047 189.545L279.477 189.215L278.877 188.866L278.426 188.606C278.286 188.536 278.236 188.606 278.236 188.726" fill="#141A1F"/>
<path d="M293.186 198.075C293.286 199.743 292.936 200.912 291.625 201.002C290.86 200.981 290.116 200.742 289.483 200.313L288.663 199.853L287.932 199.414C287.722 199.294 287.682 199.414 287.682 199.614V202.76C287.682 203.01 287.682 203.07 287.422 202.95L286.501 202.4L285.611 201.901C285.519 201.862 285.443 201.794 285.394 201.707C285.345 201.62 285.326 201.52 285.341 201.421V190.674C285.341 190.415 285.411 190.415 285.621 190.534L289.623 192.872C290.115 193.154 290.575 193.489 290.994 193.87C291.619 194.393 292.134 195.033 292.51 195.755C292.886 196.477 293.115 197.265 293.186 198.075ZM289.683 198.075C290.404 198.415 290.804 198.026 290.754 197.127C290.744 196.721 290.63 196.325 290.423 195.975C290.217 195.625 289.924 195.334 289.573 195.129L288.993 194.789L288.603 194.57L288.243 194.36L287.882 194.15C287.722 194.06 287.672 194.09 287.682 194.27V196.767C287.673 196.826 287.68 196.886 287.703 196.94C287.726 196.995 287.764 197.042 287.812 197.077L288.002 197.187L288.443 197.446L288.843 197.676C289.133 197.846 289.413 197.996 289.693 198.135" fill="#141A1F"/>
<path d="M301.19 199.475C301.291 199.515 301.375 199.588 301.428 199.683C301.481 199.778 301.499 199.888 301.48 199.994V201.762C301.48 202.012 301.48 202.082 301.21 201.942C299.809 201.123 298.418 200.334 297.027 199.515C296.787 199.375 296.737 199.425 296.747 199.685V201.313C296.733 201.402 296.749 201.494 296.792 201.573C296.836 201.653 296.904 201.716 296.987 201.752L298.688 202.751L299.689 203.31L300.69 203.86C300.781 203.898 300.857 203.964 300.907 204.048C300.958 204.133 300.98 204.231 300.97 204.329V206.027C300.97 206.307 300.9 206.317 300.67 206.187L299.139 205.298L297.138 204.139C296.847 203.98 296.797 204.06 296.807 204.349V208.035C296.807 208.295 296.737 208.335 296.537 208.215L295.597 207.655L294.776 207.206C294.536 207.066 294.506 206.926 294.506 206.657V195.999C294.506 195.729 294.566 195.68 294.816 195.829L298.058 197.707L301.19 199.475Z" fill="#141A1F"/>
<path d="M446.281 145.665L340.845 206.823L234.738 145.665L340.164 84.5078L446.281 145.665Z" fill="#FFBF00" stroke="#FFBF00" stroke-width="1.5" stroke-linecap="round" stroke-linejoin="round"/>
<path d="M446.281 122.275L340.845 183.422L234.738 122.275L340.164 61.1172L446.281 122.275Z" fill="white" stroke="#0080FF" stroke-width="1.5" stroke-linecap="round" stroke-linejoin="round"/>
<path d="M340.845 183.421V193.829L234.738 132.671V122.273L340.845 183.421Z" fill="#D6EBFF" stroke="#0080FF" stroke-width="1.5" stroke-linecap="round" stroke-linejoin="round"/>
<path d="M446.282 122.273L340.846 183.421V193.829L446.282 132.671V122.273Z" fill="#D6EBFF" stroke="#0080FF" stroke-width="1.5" stroke-linecap="round" stroke-linejoin="round"/>
<path d="M294.806 125.5C295.183 125.72 295.578 125.907 295.987 126.059C296.417 126.209 296.878 126.349 297.348 126.479L296.177 127.158C295.977 127.158 295.777 127.118 295.577 127.038L294.846 126.808C294.594 126.716 294.346 126.61 294.106 126.489L293.386 126.139L293.285 126.079C292.792 125.806 292.352 125.448 291.985 125.02C291.685 124.659 291.485 124.225 291.404 123.762C291.403 123.277 291.573 122.806 291.885 122.434C292.326 121.877 292.878 121.418 293.506 121.085C294.048 120.764 294.626 120.506 295.227 120.316C295.774 120.117 296.341 119.976 296.918 119.897C297.452 119.826 297.99 119.796 298.529 119.807C299.023 119.823 299.515 119.88 300 119.976C300.449 120.058 300.89 120.175 301.321 120.326L302.411 120.845C302.764 121.083 303.099 121.347 303.412 121.634C303.667 121.858 303.881 122.125 304.042 122.424L302.882 123.103C302.654 122.826 302.41 122.562 302.151 122.314C301.878 122.06 301.58 121.836 301.26 121.644C300.875 121.434 300.47 121.263 300.05 121.135C299.564 120.997 299.063 120.923 298.559 120.915C297.978 120.918 297.4 120.992 296.838 121.135C296.19 121.316 295.571 121.585 294.997 121.934C294.589 122.156 294.221 122.443 293.906 122.783C293.673 123.041 293.521 123.36 293.466 123.702C293.433 124.024 293.518 124.347 293.706 124.611C294.003 124.984 294.379 125.287 294.806 125.5Z" fill="#141A1F"/>
<path d="M298.078 128.596L306.684 123.602L308.094 124.421L299.489 129.415L298.078 128.596Z" fill="#141A1F"/>
<path d="M302.402 131.103L315.521 123.492L316.931 124.301L303.823 131.912L302.402 131.103Z" fill="#141A1F"/>
<path d="M306.734 133.582L315.33 128.598L316.751 129.407L308.135 134.401L306.734 133.582Z" fill="#141A1F"/>
<path d="M319.912 137.319L325.176 134.322L326.596 135.132L321.313 138.198C321.04 138.361 320.756 138.504 320.463 138.627C320.189 138.756 319.904 138.859 319.612 138.937C319.192 139.045 318.763 139.118 318.331 139.157C317.888 139.187 317.443 139.187 317 139.157C316.528 139.099 316.062 138.995 315.61 138.847C315.147 138.696 314.701 138.499 314.279 138.258H314.139C313.777 138.056 313.441 137.811 313.138 137.529C312.917 137.301 312.732 137.042 312.588 136.76C312.491 136.515 312.474 136.246 312.538 135.991C312.596 135.722 312.719 135.471 312.898 135.261C313.059 135.07 313.237 134.893 313.428 134.732L314.229 134.203L319.482 131.156L320.903 131.965L315.64 134.842C315.251 135.036 314.91 135.312 314.639 135.651C314.531 135.771 314.459 135.919 314.431 136.078C314.403 136.236 314.419 136.4 314.479 136.55C314.666 136.948 314.988 137.267 315.389 137.449C315.89 137.755 316.455 137.94 317.04 137.988C317.585 138.05 318.137 137.999 318.661 137.838C319.1 137.722 319.52 137.547 319.912 137.319Z" fill="#141A1F"/>
<path d="M340.346 144.53C340.016 144.979 339.584 145.342 339.085 145.589L333.321 148.935L331.961 148.156L337.504 144.94C337.807 144.767 338.083 144.552 338.325 144.301C338.491 144.155 338.595 143.951 338.615 143.731C338.613 143.533 338.546 143.34 338.425 143.182C338.239 142.992 338.027 142.83 337.794 142.703C337.25 142.402 336.651 142.212 336.033 142.143C335.288 142.063 334.537 142.063 333.792 142.143L327.698 145.669L326.287 144.85L331.821 141.644C332.126 141.475 332.406 141.263 332.651 141.015C332.815 140.863 332.918 140.657 332.941 140.435C332.942 140.237 332.871 140.046 332.741 139.896C332.568 139.697 332.357 139.534 332.121 139.416C331.575 139.11 330.972 138.916 330.35 138.847C329.615 138.767 328.873 138.767 328.138 138.847L322.014 142.393L320.604 141.584L329.219 136.59L330.32 137.219L329.399 138.078H330.5C330.855 138.092 331.209 138.125 331.56 138.178C331.902 138.229 332.238 138.316 332.561 138.438C332.91 138.556 333.245 138.71 333.562 138.897C334.08 139.138 334.495 139.556 334.732 140.076C334.787 140.299 334.793 140.531 334.749 140.757C334.706 140.983 334.615 141.197 334.482 141.384C335.34 141.284 336.206 141.284 337.064 141.384C337.822 141.495 338.555 141.742 339.225 142.113C339.525 142.295 339.804 142.509 340.056 142.753C340.293 142.969 340.469 143.245 340.566 143.552C340.6 143.721 340.599 143.896 340.561 144.064C340.523 144.233 340.45 144.392 340.346 144.53Z" fill="#141A1F"/>
<path d="M320.302 127.321L318.721 128.24L317.311 127.431L318.892 126.512L320.302 127.321Z" fill="#141A1F"/>
<path d="M311.648 122.336L310.067 123.255L308.656 122.446L310.237 121.527L311.648 122.336Z" fill="#141A1F"/>
<path d="M335.553 105.583L337.464 101.368L345.809 100.09L351.603 103.426L349.732 107.681L341.396 108.959L335.553 105.583Z" fill="#CADD72"/>
<path d="M345.659 100.881L350.662 103.748L349.221 107.004L341.556 108.182L336.553 105.276L338.024 102.05L345.699 100.871L345.659 100.881ZM345.989 99.3129L336.983 100.691L334.592 105.875L341.256 109.721L350.262 108.342L352.563 103.098L345.959 99.293L345.989 99.3129Z" fill="#141A1F"/>
<path d="M353.094 108.39L354.985 104.185L363.35 102.887L369.134 106.223L367.203 110.458L358.907 111.736L353.094 108.39Z" fill="#FFBF00"/>
<path d="M363.23 103.668L368.233 106.535L366.752 109.781L359.117 110.96L354.114 108.073L355.565 104.867L363.26 103.668H363.23ZM363.55 102.11L354.545 103.509L352.203 108.702L358.827 112.518L367.833 111.14L370.234 105.876L363.62 102.07L363.55 102.11Z" fill="#141A1F"/>
<path d="M358.006 118.531L359.907 114.306L368.252 113.027L374.036 116.363L372.175 120.618L363.84 121.897L358.006 118.531Z" fill="#F17423"/>
<path d="M368.102 113.804L373.105 116.671L371.674 119.937L364.01 121.116L359.006 118.219L360.467 114.983L368.142 113.804H368.102ZM368.442 112.246L359.437 113.624L357.035 118.858L363.699 122.694L372.705 121.315L375.006 116.062L368.412 112.266L368.442 112.246Z" fill="#141A1F"/>
<path d="M322.875 112.964L324.776 108.769L333.121 107.461L338.875 110.777L336.984 115.042L328.689 116.31L322.875 112.964Z" fill="#97C93D"/>
<path d="M332.981 108.252L337.914 111.098L336.463 114.364L328.839 115.533L323.836 112.657L325.286 109.45L332.971 108.252H332.981ZM333.261 106.684L324.256 108.092L321.904 113.276L328.528 117.091L337.484 115.723L339.826 110.469L333.261 106.684Z" fill="#141A1F"/>
<path d="M340.416 115.724L342.317 111.529L350.682 110.23L356.476 113.567L354.525 117.801L346.23 119.07L340.416 115.724Z" fill="#E82429"/>
<path d="M350.543 111.007L355.546 113.874L354.055 117.12L346.41 118.289L341.407 115.412L342.858 112.206L350.563 111.007H350.543ZM350.853 109.449L341.847 110.858L339.506 116.031L346.13 119.847L355.086 118.479L357.497 113.265L350.883 109.449H350.853Z" fill="#141A1F"/>
<path d="M345.318 125.902L347.22 121.707L355.565 120.398L361.318 123.715L359.417 127.979L351.132 129.248L345.318 125.902Z" fill="#8061A9"/>
<path d="M355.425 121.185L360.358 124.022L358.907 127.298L351.282 128.467L346.279 125.59L347.73 122.384L355.415 121.185H355.425ZM355.705 119.617L346.699 121.026L344.348 126.209L350.972 130.025L359.927 128.656L362.269 123.403L355.705 119.617Z" fill="#141A1F"/>
<path d="M327.797 123.034L329.698 118.839L338.063 117.551L343.867 120.897L341.926 125.122L333.621 126.39L327.797 123.034Z" fill="#6289C6"/>
<path d="M337.914 118.328L342.917 121.194L341.436 124.44L333.791 125.609L328.788 122.722L330.239 119.516L337.934 118.328H337.914ZM338.234 116.77L329.228 118.158L326.887 123.342L333.521 127.167L342.527 125.799L344.918 120.585L338.214 116.77H338.234Z" fill="#141A1F"/>
<path d="M505.43 268.243C506.069 268.463 506.595 268.927 506.891 269.534C507.188 270.141 507.231 270.84 507.011 271.479C506.883 271.843 506.674 272.174 506.4 272.448C506.127 272.721 505.795 272.929 505.43 273.057C504.14 273.712 502.714 274.054 501.267 274.054C499.82 274.054 498.394 273.712 497.104 273.057C496.465 272.837 495.939 272.372 495.643 271.765C495.346 271.159 495.304 270.459 495.523 269.821C495.652 269.456 495.86 269.125 496.134 268.852C496.408 268.579 496.739 268.371 497.104 268.243C498.38 267.56 499.81 267.216 501.257 267.244C502.71 267.217 504.147 267.56 505.43 268.243Z" fill="#D6EBFF"/>
<path d="M452.286 299.216C452.759 299.433 453.167 299.769 453.471 300.191C453.774 300.613 453.963 301.106 454.017 301.623C453.976 302.141 453.795 302.638 453.493 303.061C453.192 303.485 452.782 303.82 452.306 304.03C451.017 304.685 449.591 305.027 448.144 305.027C446.697 305.027 445.271 304.685 443.981 304.03C443.475 303.862 443.034 303.539 442.722 303.107C442.41 302.675 442.242 302.156 442.242 301.623C442.242 301.09 442.41 300.571 442.722 300.139C443.034 299.707 443.475 299.384 443.981 299.216C445.255 298.528 446.686 298.184 448.134 298.217C449.581 298.19 451.01 298.534 452.286 299.216Z" fill="#D6EBFF"/>
<path d="M237.842 298.715C238.481 298.936 239.007 299.4 239.303 300.007C239.6 300.614 239.643 301.313 239.423 301.952C239.294 302.316 239.086 302.647 238.812 302.92C238.538 303.194 238.207 303.402 237.842 303.53C236.554 304.185 235.129 304.526 233.684 304.526C232.239 304.526 230.814 304.185 229.526 303.53C228.887 303.31 228.361 302.845 228.065 302.238C227.768 301.631 227.725 300.932 227.945 300.294C228.074 299.929 228.282 299.598 228.556 299.325C228.829 299.052 229.161 298.843 229.526 298.715C230.816 298.06 232.242 297.719 233.689 297.719C235.136 297.719 236.562 298.06 237.852 298.715H237.842Z" fill="#D6EBFF"/>
<path d="M183.456 206.274C183.931 206.49 184.341 206.825 184.647 207.247C184.952 207.669 185.142 208.164 185.197 208.681C185.145 209.196 184.959 209.688 184.659 210.11C184.36 210.531 183.955 210.869 183.486 211.088C182.197 211.744 180.771 212.085 179.324 212.085C177.877 212.085 176.451 211.744 175.161 211.088C174.522 210.868 173.996 210.404 173.7 209.797C173.403 209.19 173.36 208.491 173.58 207.852C173.708 207.488 173.917 207.157 174.191 206.883C174.464 206.61 174.796 206.402 175.161 206.274C176.451 205.619 177.877 205.277 179.324 205.277C180.771 205.277 182.197 205.619 183.486 206.274H183.456Z" fill="#D6EBFF"/>
<path d="M130.084 237.939C130.723 238.159 131.249 238.623 131.546 239.23C131.842 239.837 131.885 240.537 131.665 241.175C131.532 241.532 131.321 241.855 131.048 242.121C130.774 242.387 130.445 242.589 130.084 242.713C128.795 243.368 127.368 243.71 125.921 243.71C124.475 243.71 123.048 243.368 121.759 242.713C121.119 242.493 120.594 242.029 120.297 241.422C120.001 240.815 119.958 240.115 120.178 239.477C120.306 239.112 120.515 238.781 120.788 238.508C121.062 238.235 121.394 238.027 121.759 237.899C123.034 237.216 124.464 236.872 125.911 236.9C127.368 236.885 128.805 237.243 130.084 237.939Z" fill="#D6EBFF"/>
</g>
<defs>
<radialGradient id="paint0_radial" cx="0" cy="0" r="1" gradientUnits="userSpaceOnUse" gradientTransform="translate(339.505 206.5) scale(315.608 198.473)">
<stop offset="0.85" stop-color="#F6F7F8"/>
<stop offset="0.88" stop-color="#F6F7F8" stop-opacity="0.99"/>
<stop offset="0.89" stop-color="#F6F7F8" stop-opacity="0.94"/>
<stop offset="0.91" stop-color="#F6F7F8" stop-opacity="0.87"/>
<stop offset="0.93" stop-color="#F6F7F8" stop-opacity="0.76"/>
<stop offset="0.95" stop-color="#F6F7F8" stop-opacity="0.63"/>
<stop offset="0.96" stop-color="#F6F7F8" stop-opacity="0.46"/>
<stop offset="0.98" stop-color="#F6F7F8" stop-opacity="0.27"/>
<stop offset="1" stop-color="#F6F7F8" stop-opacity="0"/>
</radialGradient>
<clipPath id="clip0">
<rect width="682" height="413" fill="white"/>
</clipPath>
</defs>
</svg>
