<svg width="682" height="413" viewBox="0 0 682 413" fill="none" xmlns="http://www.w3.org/2000/svg">
<path d="M627.678 33.8289L668.437 27.5154L681.96 35.3297V34.1791L668.757 26.5648L668.607 26.4748L627.398 32.8583L597.783 15.7388L605.08 0H603.97L596.794 15.4886L576.414 18.6404L556.035 21.8022L526.42 4.68261L528.589 0H527.489L525.43 4.43247L505.051 7.59424L484.661 10.746L466.061 0H464.062L483.912 11.4764L473.187 34.6293L452.768 37.7911L432.388 40.9429L402.793 23.8233L408.161 12.2468L413.538 0.670374L417.876 0H411.789L412.518 0.420235L401.794 23.5732L381.414 26.7349L361.035 29.8867L331.42 12.7771L336.827 1.20067L337.387 0H336.277L335.828 1.00056L330.46 12.577L310.071 15.7288L289.691 18.8905L260.067 1.72096L260.866 0H259.757L259.077 1.47082L238.698 4.63259L218.318 7.78435L204.895 0H202.896L217.628 8.51475L206.834 31.6677L186.454 34.8194L166.065 38.0212L136.45 20.8616L146.125 0H145.026L135.47 20.6115L115.081 23.7733L94.7014 26.925L65.0866 9.81548L69.6343 0H68.5348L64.0971 9.56534L22.8982 15.9389L11.9039 39.7522L0 41.5932V42.5938L12.0938 40.7227L41.7086 57.8523L36.3414 69.4288L30.9841 81.0452L10.5946 84.167L0 85.8079V86.8085L10.8344 85.1375L31.224 81.9858L60.8388 99.0553L55.4715 110.672L50.1043 122.258L29.7148 125.41L9.33521 128.572L0 123.179V124.329L8.59559 129.332L0 147.833V150.194L9.57509 129.542L29.9846 126.391L50.3642 123.229L79.959 140.348L74.5917 151.925L69.2245 163.501L48.8449 166.663L28.4654 169.815L0 153.366V154.526L27.7158 170.535L16.9913 193.698L0 196.33V197.33L17.2212 194.669L46.846 211.778L41.4787 223.365L36.1015 234.951L15.7219 238.133L0 240.544V241.545L15.9918 239.134L36.3813 235.972L65.9661 253.041L60.5989 264.618L55.2317 276.154L34.8521 279.356L14.4626 282.508L0 274.153V275.314L13.723 283.248L2.99846 306.391L0 306.851V307.852L3.22834 307.352L32.8431 324.461L27.4759 336.038L22.1087 347.624L1.72911 350.796L0 351.066V352.067L1.99897 351.766L22.3785 348.605L51.9733 365.734L46.5961 377.311L41.2288 388.887L20.8493 392.049L0.469759 395.221L0 394.93V397.712L0.709636 396.221L21.0892 393.019L41.4787 389.868L71.0935 406.977L68.7847 411.98H69.8841L72.083 407.237L92.4626 404.086L112.842 400.924L131.932 411.93H133.931L113.592 400.223L118.939 388.617L124.306 377.031L144.686 373.879L165.065 370.727L194.69 387.837L189.323 399.413L183.906 410.999L177.629 412H186.144L184.895 411.28L190.262 399.693L195.63 388.117L216.019 384.965L236.399 381.803L266.013 398.923L260.646 410.499L259.947 412H261.056L261.636 410.749L267.043 399.223L287.423 396.061L307.842 392.829L337.467 409.949L336.527 411.95H337.627L338.446 410.179L358.836 407.017L379.215 403.866L393.208 411.95H395.207L379.955 403.135L390.69 379.982L411.079 376.82L431.459 373.669L461.073 390.778L455.706 402.365L451.258 411.95H452.368L456.696 402.615L462.063 391.028L482.442 387.877L502.832 384.715L532.447 401.834L527.729 411.97H528.829L533.406 402.104L553.786 398.953L574.165 395.791L602.151 411.97H604.15L574.885 395.071L580.252 383.484L585.699 371.908L606.079 368.756L626.459 365.594L656.073 382.714L645.339 405.867L624.959 409.028L605.969 411.97H612.526L625.229 409.969L645.619 406.817L654.484 411.94H656.483L646.358 406.087L657.093 382.934L677.472 379.772L682 379.072V378.071L677.232 378.811L656.853 381.963L627.238 364.854L632.605 353.267L637.973 341.691L658.352 338.539L678.652 335.397L681.92 337.288V336.188L679.401 334.727L681.92 329.294V326.913L678.412 334.477L658.032 337.629L637.673 340.74L608.058 323.621L618.792 300.468L639.182 297.306L659.542 294.164L681.93 307.101V305.951L660.281 293.434L665.658 281.847L671.026 270.271L681.94 268.58V267.579L670.786 269.3L641.161 252.141L646.528 240.554L651.895 228.978L672.275 225.826L681.93 224.325V223.325L672.035 224.856L651.666 228.047L622.051 210.928L632.785 187.775L653.165 184.613L673.544 181.461L681.94 186.314V185.153L674.294 180.731L681.94 164.242V161.85L678.652 168.904L673.284 180.481L652.905 183.643L632.515 186.794L602.901 169.685L608.278 158.088L613.685 146.522L634.075 143.37L654.454 140.208L681.93 156.087V154.926L655.154 139.458L660.521 127.871L665.888 116.295L681.88 113.814V112.813L665.658 115.354L636.034 98.2348L646.768 75.0419L667.148 71.8801L681.93 69.5989V68.5983L666.938 70.9296L646.558 74.0413L616.913 57.0318L622.281 45.4454L627.678 33.8289ZM484.911 11.7265L505.291 8.56478L525.67 5.41302L555.285 22.5226L549.918 34.109L544.551 45.6855L524.171 48.8373L503.791 52.029L474.177 34.8795L484.911 11.7265ZM295.009 173.757L315.398 170.595L335.828 167.443L365.442 184.563L354.698 207.716L334.318 210.868L313.939 214.029L284.314 196.91L295.009 173.757ZM294.769 172.756L265.154 155.647L270.561 144.08L275.928 132.504L296.308 129.352L316.697 126.19L346.312 143.31L335.578 166.463L315.188 169.625L294.769 172.756ZM313.149 214.78L307.842 226.336L302.475 237.913L282.095 241.065L261.706 244.226L232.071 227.127L242.805 203.974L263.195 200.812L283.574 197.66L313.149 214.78ZM261.866 245.137L282.245 241.985L302.625 238.823L332.25 255.943L326.882 267.519L321.575 279.156L301.195 282.318L280.856 285.469L251.241 268.36L256.608 256.773L261.866 245.137ZM303.374 238.133L308.842 226.587L314.209 215L354.968 208.697L384.593 225.806L379.225 237.383L373.808 248.969L353.439 252.141L333.059 255.293L303.374 238.133ZM380.105 237.603L385.472 226.026L405.862 222.874L426.241 219.713L455.856 236.832L445.122 259.985L424.782 263.147L404.392 266.299L374.808 249.219L380.105 237.603ZM426.001 218.742L405.612 221.894L385.302 225.126L355.687 208.006L366.422 184.853L386.802 181.651L407.191 178.5L436.776 195.609L431.409 207.196L426.001 218.742ZM406.871 177.489L386.492 180.651L366.112 183.803L336.527 166.723L347.262 143.57L367.641 140.408L388.021 137.257L417.636 154.376L406.871 177.489ZM387.801 136.266L367.421 139.428L347.032 142.58L317.437 125.47L322.834 113.894L328.202 102.307L348.591 99.1554L368.971 95.9936L398.585 113.113L387.801 136.266ZM321.835 113.643L316.468 125.22L296.088 128.372L275.709 131.533L246.074 114.414L251.441 102.837L256.808 91.2609L277.188 88.0992L297.567 84.9474L327.182 102.057L321.835 113.643ZM274.959 132.254L269.592 143.84L264.224 155.417L243.875 158.569L223.495 161.73L193.9 144.611L204.635 121.458L225.015 118.296L245.394 115.144L274.959 132.254ZM223.685 162.701L244.065 159.549L264.454 156.387L294.069 173.507L283.335 196.66L262.945 199.822L242.566 202.973L212.951 185.854L223.685 162.701ZM241.826 203.724L231.091 226.877L210.702 230.038L190.322 233.13L160.708 216.011L171.442 192.858L191.822 189.706L212.211 186.544L241.826 203.724ZM190.562 234.131L210.952 230.969L231.331 227.817L260.946 244.927L255.579 256.513L250.212 268.15L229.882 271.261L209.493 274.423L179.908 257.304L190.562 234.131ZM209.692 275.374L230.072 272.222L250.451 269.06L280.066 286.16L269.332 309.313L248.952 312.474L228.573 315.626L198.958 298.517L204.325 286.93L209.692 275.374ZM281.056 286.38L301.435 283.218L321.835 280.156L351.45 297.276L340.715 320.429L320.336 323.581L299.946 326.742L270.331 309.623L281.056 286.38ZM322.564 279.376L333.299 256.223L353.689 253.071L374.068 249.91L403.683 267.029L392.948 290.182L372.569 293.344L352.179 296.496L322.564 279.376ZM399.305 278.856L404.672 267.279L425.052 264.147L445.431 260.996L475.046 278.155L469.679 289.742L464.312 301.318L443.932 304.47L423.553 307.632L393.938 290.462L399.305 278.856ZM446.181 260.235L456.916 237.132L477.295 233.971L497.685 230.819L527.299 247.938L521.932 259.515L516.565 271.091L496.175 274.243L475.756 277.385L446.181 260.235ZM497.435 229.788L477.055 232.95L456.676 236.132L427.051 219.022L432.418 207.436L437.775 195.859L458.155 192.708L478.534 189.546L508.149 206.665L497.435 229.788ZM478.315 188.545L457.925 191.697L437.545 194.859L407.931 177.739L413.298 166.163L418.665 154.586L439.045 151.425L459.434 148.273L489.049 165.382L483.682 176.969L478.315 188.545ZM459.184 147.292L438.775 150.484L418.395 153.636L388.8 136.516L394.168 124.94L399.535 113.363L419.915 110.212L440.304 107.06L469.919 124.179L459.184 147.292ZM441.054 106.269L446.421 94.6829L451.768 83.1664L472.168 80.0447L492.547 76.8829L522.172 94.0525L516.805 105.629L511.428 117.205L491.048 120.367L470.668 123.519L441.054 106.269ZM445.431 94.4327L440.064 106.059L419.685 109.211L399.295 112.373L369.68 95.2732L375.048 83.6967L380.415 72.1103L400.794 68.9585L421.174 65.8067L450.769 82.9163L445.431 94.4327ZM374.068 83.4266L368.701 95.0531L348.311 98.2048L327.932 101.367L298.317 84.217L309.051 61.0341L329.431 57.8723L349.82 54.7506L379.435 71.8701L374.068 83.4266ZM297.327 84.0469L276.948 87.2087L256.558 90.3604L226.944 73.1609L237.678 50.0279L258.068 46.8762L278.447 43.7144L308.062 60.834L297.327 84.0469ZM255.869 91.0508L245.084 114.164L224.705 117.326L204.315 120.477L174.7 103.358L185.435 80.2048L205.814 77.043L226.204 73.8913L255.869 91.0508ZM173.711 103.058L153.331 106.219L132.932 109.421L103.317 92.3115L108.684 80.7251L114.051 69.1486L134.451 66.0369L154.831 62.8751L184.445 80.0447L173.711 103.058ZM133.192 110.352L153.571 107.19L173.961 104.038L203.576 121.158L192.841 144.311L172.451 147.472L152.072 150.624L122.457 133.505L133.192 110.352ZM152.312 151.595L172.701 148.443L193.081 145.281L222.696 162.401L217.328 173.977L211.961 185.564L191.582 188.715L171.202 191.877L141.577 174.758L146.925 163.231L152.312 151.595ZM170.453 192.618L159.718 215.8L139.339 218.962L118.939 222.124L89.3242 205.014L94.6914 193.428L100.059 181.852L120.448 178.7L140.828 175.538L170.453 192.618ZM119.199 223.125L139.578 219.963L159.918 216.781L189.533 233.901L178.798 257.054L158.419 260.215L138.039 263.367L108.424 246.247L119.199 223.125ZM138.319 264.368L158.699 261.146L179.088 257.994L208.703 275.154L203.336 286.73L197.968 298.317L177.589 301.468L157.199 304.63L127.585 287.511L132.932 275.924L138.319 264.368ZM156.46 305.391L145.725 328.493L125.336 331.655L104.946 334.807L75.3313 317.697L80.7086 306.171L86.0758 294.584L106.455 291.433L126.845 288.271L156.46 305.391ZM157.459 305.641L177.839 302.489L198.218 299.327L227.883 316.447L222.516 328.023L217.149 339.6L196.769 342.761L176.389 345.913L146.725 328.794L157.459 305.641ZM228.823 316.647L249.202 313.485L269.592 310.333L299.206 327.443L293.849 339.029L288.482 350.606L268.092 353.758L247.713 356.919L218.098 339.8L228.823 316.647ZM294.789 339.279L300.166 327.693L320.546 324.541L340.925 321.389L370.54 338.499L365.173 350.075L359.815 361.662L339.436 364.814L319.056 367.965L289.431 350.856L294.789 339.279ZM341.675 320.659L352.409 297.506L372.809 294.344L393.188 291.163L422.783 308.302L417.416 319.889L412.049 331.465L391.669 334.617L371.289 337.779L341.675 320.659ZM418.405 320.129L423.783 308.552L444.162 305.401L464.552 302.239L494.166 319.358L483.432 342.511L463.052 345.673L442.663 348.825L413.048 331.715L418.405 320.129ZM495.146 319.608L515.525 316.447L535.905 313.295L565.52 330.414L554.785 353.567L534.406 356.729L514.026 359.881L484.411 342.761L495.146 319.608ZM535.725 312.264L515.346 315.426L494.956 318.578L465.341 301.468L470.758 289.942L476.126 278.355L496.515 275.204L516.895 272.042L546.42 289.161L541.052 300.738L535.725 312.264ZM517.584 271.241L522.952 259.665L528.279 248.139L548.668 244.987L569.048 241.835L598.693 258.965L593.326 270.541L587.928 282.158L567.549 285.309L547.159 288.471L517.584 271.241ZM568.848 240.794L548.459 243.956L528.079 247.138L498.464 230.018L509.199 206.865L529.578 203.704L549.968 200.552L579.583 217.672L568.848 240.794ZM549.718 199.631L529.338 202.783L508.959 205.935L479.344 188.825L484.751 177.249L490.118 165.662L510.498 162.511L530.878 159.349L560.492 176.469L555.125 188.045L549.718 199.631ZM530.598 158.378L510.218 161.53L489.749 164.692L460.134 147.572L470.868 124.419L491.258 121.258L511.677 118.066L541.292 135.185L535.925 146.762L530.598 158.378ZM512.457 117.356L523.192 94.2026L543.541 91.0508L563.921 87.8991L593.535 105.059L582.801 128.182L562.421 131.343L542.032 134.495L512.457 117.356ZM563.711 86.9285L543.291 90.0503L522.912 93.202L493.297 76.0925L498.664 64.506L504.031 52.9296L524.411 49.7778L544.8 46.616L574.415 63.7356L563.711 86.9285ZM432.688 41.9034L453.077 38.7416L473.457 35.5899L503.072 52.6994L497.745 64.2859L492.377 75.8624L471.928 79.0441L451.538 82.2059L421.923 65.0363L427.291 53.4598L432.688 41.9034ZM361.325 30.8972L381.704 27.7355L402.094 24.5837L431.678 41.6733L420.944 64.8262L400.554 68.038L380.175 71.1397L350.56 54.0302L361.325 30.8972ZM289.951 19.8911L310.341 16.7393L330.72 13.5776L360.305 30.5871L349.571 53.77L329.191 56.9318L308.842 60.0835L279.187 43.024L284.554 31.4376L289.951 19.8911ZM218.588 8.88496L238.937 5.60313L259.327 2.45137L288.942 19.5609L283.574 31.1374L278.207 42.7239L257.868 45.8756L237.438 49.0274L207.823 31.9178L218.588 8.88496ZM166.315 38.9517L186.694 35.8L207.074 32.6382L236.699 49.7578L231.331 61.3342L225.954 72.9207L205.574 76.0425L185.195 79.1942L155.58 62.0847L160.917 50.5382L166.315 38.9517ZM94.9513 27.9056L115.341 24.7438L135.72 21.5921L165.335 38.7016L159.918 50.2881L154.551 61.8645L134.211 65.0363L113.822 68.1981L84.2068 51.0285L94.9513 27.9056ZM12.8434 40.0223L23.5779 16.8494L64.337 10.5359L93.9518 27.6554L83.2273 50.8084L62.8378 53.9701L42.4582 57.1219L12.8434 40.0223ZM31.9836 81.2554L37.3508 69.6789L42.7181 58.1024L63.1076 54.9407L83.4872 51.7889L113.102 68.8985L107.735 80.4849L102.347 92.0514L81.9579 95.2132L61.5684 98.3749L31.9836 81.2554ZM51.1138 122.508L56.481 110.922L61.8483 99.3455L82.2278 96.1937L102.587 93.0519L132.202 110.172L121.468 133.324L101.088 136.486L80.7086 139.638L51.1138 122.508ZM80.9585 140.598L101.338 137.437L121.728 134.285L151.342 151.405L145.925 162.981L140.558 174.557L120.168 177.709L99.7888 180.871L70.214 163.751L80.9585 140.598ZM17.9908 193.948L28.7053 170.795L49.0848 167.634L69.4644 164.482L99.0891 181.591L93.7219 193.178L88.3547 204.754L67.9651 207.906L47.5856 211.118L17.9908 193.948ZM37.111 235.201L42.4782 223.615L47.8454 212.038L68.235 208.887L88.6145 205.725L118.229 222.844L107.495 245.997L87.0953 249.139L66.7058 252.291L37.111 235.201ZM66.9656 253.291L87.3352 250.14L107.715 246.988L137.33 264.147L126.595 287.3L106.215 290.452L85.836 293.564L56.2211 276.444L66.9656 253.291ZM3.99795 306.641L9.33521 295.065L14.7125 283.488L35.092 280.327L55.4715 277.155L85.0863 294.264L79.7191 305.871L74.3518 317.447L53.9723 320.599L33.5928 323.761L3.99795 306.641ZM23.0981 347.894L28.4654 336.308L33.8326 324.731L54.2122 321.58L74.6017 318.418L104.217 335.537L93.482 358.69L73.0925 361.852L52.713 365.004L23.0981 347.894ZM112.602 399.923L92.2227 403.075L71.8331 406.227L42.2183 389.137L52.9728 365.984L73.3624 362.823L93.7419 359.671L123.357 376.79L112.602 399.923ZM164.845 369.726L144.466 372.888L124.076 376.04L94.4615 358.94L99.8288 347.364L105.196 335.787L125.586 332.626L145.925 329.474L175.54 346.594L164.845 369.726ZM236.219 380.733L215.829 383.884L195.45 387.046L165.835 369.927L176.569 346.774L196.949 343.612L217.338 340.46L246.953 357.57L241.586 369.206L236.219 380.733ZM307.582 391.739L287.203 394.9L266.863 398.162L237.238 381.053L242.605 369.466L247.973 357.89L268.362 354.738L288.742 351.576L318.357 368.696L312.989 380.272L307.582 391.739ZM378.956 402.795L358.566 405.957L338.186 409.228L308.572 392.109L313.939 380.532L319.306 368.956L339.686 365.794L360.075 362.642L389.69 379.762L378.956 402.795ZM431.199 372.598L410.789 375.87L390.41 379.022L360.815 361.912L366.182 350.326L371.549 338.749L391.929 335.597L412.318 332.436L441.933 349.555L436.566 361.132L431.199 372.598ZM502.562 383.654L482.183 386.806L461.763 390.078L432.148 372.958L437.515 361.382L442.883 349.805L463.262 346.644L483.642 343.492L513.257 360.611L502.562 383.654ZM579.303 383.214L573.935 394.8L553.546 397.952L533.166 401.114L503.552 384.014L508.919 372.438L514.286 360.851L534.666 357.7L555.055 354.548L584.7 371.658L579.303 383.214ZM636.913 341.441L631.546 353.027L626.179 364.604L605.799 367.755L585.41 370.917L555.795 353.798L561.162 342.191L566.529 330.615L586.909 327.453L607.298 324.301L636.913 341.441ZM612.426 311.774L607.048 323.351L586.699 326.532L566.319 329.684L536.725 312.565L542.092 300.988L547.459 289.412L567.839 286.26L588.218 283.098L617.843 300.218L612.426 311.774ZM670.036 270.001L664.659 281.597L659.302 293.164L638.912 296.325L618.533 299.477L588.918 282.368L594.285 270.781L599.692 259.215L620.072 256.063L640.461 252.901L670.036 270.001ZM650.906 228.748L645.539 240.334L640.172 251.911L619.792 255.062L599.412 258.224L569.788 241.135L575.165 229.558L580.532 217.982L600.912 214.82L621.291 211.668L650.906 228.748ZM631.786 187.505L621.051 210.658L600.692 213.839L580.302 216.991L550.717 199.872L556.085 188.295L561.452 176.719L581.831 173.567L602.221 170.405L631.786 187.505ZM607.288 157.848L601.921 169.435L581.542 172.586L561.162 175.748L531.547 158.629L536.914 147.082L542.282 135.496L562.711 132.314L583.091 129.152L612.686 146.272L607.288 157.848ZM664.909 116.065L659.542 127.651L654.174 139.228L633.785 142.38L613.405 145.541L583.79 128.422L594.525 105.269L614.904 102.107L635.294 98.9552L664.909 116.065ZM645.779 74.8318L635.044 97.9847L614.685 101.146L594.295 104.298L564.71 87.1787L570.077 75.6022L575.395 64.0358L595.784 60.884L616.164 57.7222L645.779 74.8318ZM615.924 56.7417L595.534 59.8934L575.155 63.0352L545.54 45.9356L550.907 34.3592L556.275 22.7727L576.704 19.621L597.094 16.4692L626.678 33.5787L621.311 45.1552L615.924 56.7417Z" fill="url(#paint0_radial)"/>
<path d="M159.559 160.398L206.155 133.293L277.128 174.306" stroke="#3388FF" stroke-width="1.5" stroke-linecap="round" stroke-linejoin="round"/>
<path d="M402.434 177.529L478.554 133.234L533.776 165.152" stroke="#3388FF" stroke-width="1.5" stroke-linecap="round" stroke-linejoin="round"/>
<path d="M448.759 240.635L398.235 270.031L347.371 240.635L397.905 211.238L448.759 240.635Z" fill="white" stroke="#E1E5EA" stroke-width="1.5" stroke-linecap="round" stroke-linejoin="round"/>
<path d="M398.235 270.029V281.276L347.371 251.879V240.633L398.235 270.029Z" fill="#F6F7F8" stroke="#E1E5EA" stroke-width="1.5" stroke-linecap="round" stroke-linejoin="round"/>
<path d="M448.76 240.633L398.236 270.029V281.276L448.76 251.879V240.633Z" fill="#F6F7F8" stroke="#E1E5EA" stroke-width="1.5" stroke-linecap="round" stroke-linejoin="round"/>
<path d="M394.558 257.932C394.949 257.695 395.374 257.52 395.818 257.412C396.199 257.312 396.595 257.282 396.987 257.322C397.365 257.353 397.735 257.44 398.087 257.582C398.433 257.74 398.767 257.924 399.086 258.132L401.915 259.973L400.685 260.684L398.037 258.963C397.801 258.803 397.554 258.663 397.297 258.543C397.096 258.445 396.879 258.38 396.657 258.352C396.456 258.313 396.249 258.313 396.048 258.352C395.83 258.404 395.621 258.489 395.428 258.603C395.269 258.697 395.115 258.8 394.968 258.913L394.638 259.153L398.706 261.804L397.477 262.515L392.609 259.343C392.839 259.105 393.086 258.884 393.349 258.683C393.734 258.404 394.138 258.154 394.558 257.932Z" fill="#9EA5B0"/>
<path d="M402.793 253.922C403.703 253.988 404.579 254.295 405.331 254.812L405.541 254.962C405.611 255.022 405.691 255.062 405.741 255.112L402.233 257.114C402.653 257.362 403.135 257.487 403.622 257.474C404.153 257.453 404.67 257.294 405.122 257.013C405.389 256.863 405.64 256.686 405.871 256.483C406.024 256.349 406.164 256.202 406.291 256.043L407.4 256.573L407.22 256.803C407.141 256.893 407.031 256.993 406.911 257.104L406.491 257.434L405.981 257.764C405.539 258.024 405.061 258.216 404.562 258.334C404.105 258.452 403.633 258.496 403.163 258.464C402.71 258.454 402.261 258.373 401.833 258.224C401.409 258.074 401.003 257.876 400.624 257.634C400.255 257.403 399.933 257.104 399.674 256.753C399.502 256.499 399.405 256.2 399.395 255.893C399.406 255.604 399.511 255.326 399.694 255.102C399.895 254.843 400.147 254.629 400.434 254.472C401.15 254.063 401.97 253.872 402.793 253.922ZM401.394 256.573L403.672 255.253C403.507 255.15 403.333 255.063 403.153 254.992C402.962 254.928 402.764 254.887 402.563 254.872C402.371 254.842 402.175 254.842 401.983 254.872C401.784 254.913 401.592 254.984 401.413 255.082C401.254 255.165 401.119 255.29 401.024 255.443C400.951 255.556 400.916 255.689 400.924 255.823C400.944 255.956 400.995 256.083 401.074 256.193C401.164 256.324 401.272 256.441 401.394 256.543" fill="#9EA5B0"/>
<path d="M424.342 240.713L424.642 240.563L425.012 240.392L425.382 240.252L425.691 240.152L426.461 240.913L425.931 241.093C425.696 241.185 425.469 241.295 425.252 241.423C425.114 241.501 424.984 241.592 424.862 241.693C424.769 241.759 424.685 241.837 424.612 241.923L428.61 244.555L427.381 245.265L422.623 242.133C422.822 241.893 423.039 241.669 423.273 241.463C423.601 241.175 423.96 240.923 424.342 240.713Z" fill="#9EA5B0"/>
<path d="M425.272 237.323L429.669 240.184V237.813L431.119 236.973C431.111 237.423 431.128 237.874 431.169 238.323C431.194 238.783 431.194 239.244 431.169 239.704H432.398C432.858 239.704 433.298 239.764 433.767 239.804L435.127 239.964C435.566 240.024 435.956 240.094 436.296 240.164L434.867 240.995L433.867 240.825C433.537 240.775 433.098 240.735 432.718 240.705C432.338 240.675 431.948 240.705 431.578 240.705H430.579L432.888 242.216L431.658 242.926L424.242 238.133L425.272 237.323Z" fill="#9EA5B0"/>
<path d="M422.354 243.757C422.804 243.895 423.231 244.097 423.623 244.357C423.973 244.57 424.282 244.844 424.533 245.168C424.724 245.411 424.833 245.709 424.843 246.018C424.85 246.311 424.754 246.598 424.573 246.829C424.344 247.129 424.054 247.377 423.723 247.559C423.341 247.78 422.926 247.938 422.494 248.029C422.055 248.131 421.604 248.168 421.155 248.139C420.693 248.12 420.236 248.039 419.795 247.899C419.344 247.765 418.916 247.563 418.526 247.299C418.174 247.093 417.868 246.817 417.627 246.488C417.44 246.247 417.335 245.953 417.327 245.648C417.318 245.351 417.414 245.061 417.597 244.827C417.823 244.534 418.109 244.291 418.436 244.117C418.817 243.897 419.227 243.735 419.655 243.637C420.098 243.537 420.552 243.497 421.005 243.517C421.463 243.536 421.917 243.617 422.354 243.757ZM423.234 246.068C423.083 245.635 422.772 245.277 422.364 245.068C421.904 244.764 421.381 244.569 420.835 244.497C420.356 244.426 419.867 244.518 419.446 244.757C419.036 244.998 418.876 245.268 418.936 245.598C419.004 245.813 419.114 246.012 419.26 246.184C419.406 246.356 419.584 246.497 419.785 246.598C420.243 246.917 420.772 247.119 421.325 247.189C421.804 247.26 422.293 247.168 422.714 246.929C423.124 246.699 423.294 246.418 423.234 246.098" fill="#9EA5B0"/>
<path d="M415.476 245.969C415.836 246.379 416.166 246.779 416.476 247.169C416.785 247.56 417.105 247.95 417.375 248.32C417.645 248.69 417.915 249.03 418.145 249.321C418.36 249.613 418.554 249.92 418.724 250.241L417.725 250.811L415.726 250.141C414.996 249.901 414.277 249.641 413.557 249.361C413.967 249.821 414.347 250.271 414.706 250.731C415.066 251.192 415.396 251.612 415.706 252.022L414.706 252.612L413.267 252.192C412.747 252.032 412.188 251.862 411.608 251.662L409.809 251.042L407.92 250.341L409.219 249.591C409.549 249.731 409.909 249.881 410.309 250.031L411.518 250.511L412.737 250.972L413.867 251.352L413.257 250.581C413.047 250.321 412.817 250.061 412.598 249.811L411.918 249.06C411.708 248.82 411.488 248.6 411.288 248.39L412.228 247.85L413.277 248.28L414.437 248.74L415.656 249.201L416.865 249.621L416.296 248.91L415.626 248.13L414.936 247.36L414.277 246.669L415.476 245.969Z" fill="#9EA5B0"/>
<path d="M403.883 250.809L405.402 251.809L407.291 250.719L408.29 251.349L406.401 252.44L408.45 253.78C408.767 254.01 409.133 254.161 409.52 254.221C409.853 254.251 410.187 254.17 410.469 253.991C410.662 253.888 410.84 253.76 410.999 253.61L411.289 253.29L412.408 253.77C412.298 253.931 412.171 254.078 412.029 254.211C411.808 254.413 411.567 254.59 411.309 254.741C410.965 254.942 410.595 255.094 410.21 255.191C409.884 255.278 409.545 255.305 409.21 255.271C408.866 255.238 408.53 255.153 408.211 255.021C407.86 254.878 407.526 254.701 407.211 254.491L402.863 251.659L403.883 250.809Z" fill="#9EA5B0"/>
<path d="M338.857 222.904L288.323 252.301L237.469 222.904L287.993 193.508L338.857 222.904Z" fill="white" stroke="#E1E5EA" stroke-width="1.5" stroke-linecap="round" stroke-linejoin="round"/>
<path d="M288.323 252.303V263.549L237.469 234.163V222.906L288.323 252.303Z" fill="#F6F7F8" stroke="#E1E5EA" stroke-width="1.5" stroke-linecap="round" stroke-linejoin="round"/>
<path d="M338.856 222.906L288.322 252.303V263.549L338.856 234.153V222.906Z" fill="#F6F7F8" stroke="#E1E5EA" stroke-width="1.5" stroke-linecap="round" stroke-linejoin="round"/>
<path d="M295.899 228.578L302.555 232.921L301.276 233.661L294.609 229.319L295.899 228.578Z" fill="#A5ACB8"/>
<path d="M293.08 230.771C293.95 230.68 294.826 230.892 295.558 231.371C295.887 231.56 296.159 231.833 296.348 232.161C296.404 232.289 296.434 232.427 296.434 232.567C296.434 232.706 296.404 232.844 296.348 232.972C296.21 233.297 295.998 233.585 295.728 233.812C295.34 234.141 294.921 234.432 294.479 234.683L293.839 235.053L296.188 236.584L294.909 237.324L288.332 233.042C288.603 232.802 288.89 232.582 289.192 232.382L290.191 231.781C291.068 231.235 292.054 230.89 293.08 230.771ZM294.639 233.042C294.799 232.742 294.639 232.442 294.209 232.141C294 232.009 293.77 231.914 293.529 231.861C293.291 231.821 293.048 231.821 292.81 231.861C292.559 231.897 292.314 231.964 292.08 232.061C291.824 232.161 291.577 232.282 291.34 232.422C291.021 232.612 290.761 232.772 290.571 232.902L292.84 234.383L293.459 234.022C293.931 233.794 294.337 233.45 294.639 233.022" fill="#A5ACB8"/>
<path d="M291.331 236.993C292.171 237.243 293.09 237.523 294.06 237.833L292.681 238.634L291.611 238.294L290.512 237.953L287.513 239.674C287.683 239.905 287.863 240.135 288.013 240.365C288.163 240.595 288.343 240.805 288.503 241.035L287.174 241.806L285.974 240.135C285.604 239.604 285.274 239.134 284.975 238.614C284.675 238.094 284.375 237.613 284.105 237.223C283.835 236.833 283.595 236.323 283.355 235.882L284.585 235.172L286.714 235.712L288.923 236.323C289.682 236.493 290.492 236.733 291.331 236.993ZM286.854 238.844L289.172 237.503L286.944 236.823L285.185 236.333C285.364 236.643 285.604 237.013 285.894 237.443C286.184 237.873 286.504 238.344 286.894 238.844" fill="#A5ACB8"/>
<path d="M393.988 295.533L343.454 324.93L292.6 295.533L343.124 266.137L393.988 295.533Z" fill="white" stroke="#E1E5EA" stroke-width="1.5" stroke-linecap="round" stroke-linejoin="round"/>
<path d="M343.453 324.932V336.178L292.6 306.781V295.535L343.453 324.932Z" fill="#F6F7F8" stroke="#E1E5EA" stroke-width="1.5" stroke-linecap="round" stroke-linejoin="round"/>
<path d="M393.987 295.535L343.453 324.932V336.178L393.987 306.781V295.535Z" fill="#F6F7F8" stroke="#E1E5EA" stroke-width="1.5" stroke-linecap="round" stroke-linejoin="round"/>
<path d="M362.254 295.895L368.251 299.406C368.377 299.484 368.511 299.548 368.651 299.597C368.771 299.648 368.9 299.675 369.031 299.677C369.163 299.697 369.298 299.697 369.431 299.677C369.591 299.627 369.748 299.567 369.9 299.496L370.74 300.187C370.423 300.365 370.088 300.509 369.74 300.617C369.46 300.709 369.166 300.756 368.871 300.757C368.599 300.754 368.33 300.71 368.071 300.627C367.801 300.538 367.543 300.417 367.302 300.267L361.305 296.735L362.254 295.895Z" fill="#989FAA"/>
<path d="M360.246 301.268C360.574 301.38 360.889 301.527 361.185 301.708L364.354 303.569C364.214 303.699 363.974 303.89 363.664 304.13C363.295 304.416 362.904 304.674 362.495 304.9C362.202 305.081 361.89 305.228 361.565 305.34C361.263 305.452 360.947 305.519 360.626 305.54C360.311 305.57 359.994 305.55 359.686 305.48C359.354 305.412 359.036 305.287 358.747 305.11C358.499 304.991 358.293 304.799 358.157 304.56C358.117 304.472 358.097 304.376 358.097 304.28C358.097 304.183 358.117 304.088 358.157 304C358.234 303.781 358.369 303.588 358.547 303.439C358.773 303.243 359.017 303.068 359.276 302.919L359.716 302.699L360.256 302.479L360.056 302.369C359.914 302.289 359.767 302.218 359.616 302.159C359.453 302.099 359.28 302.068 359.107 302.068C358.925 302.055 358.743 302.072 358.567 302.119C358.359 302.167 358.16 302.248 357.977 302.359C357.734 302.5 357.5 302.657 357.277 302.829C357.128 302.955 356.988 303.092 356.858 303.239L355.738 302.749C355.886 302.577 356.05 302.42 356.228 302.279C356.489 302.059 356.77 301.865 357.068 301.698C357.425 301.489 357.808 301.328 358.207 301.218C358.551 301.12 358.909 301.076 359.266 301.088C359.6 301.098 359.93 301.159 360.246 301.268ZM362.415 303.769L361.076 302.979L360.736 303.109C360.584 303.172 360.437 303.246 360.296 303.329L359.926 303.579C359.823 303.649 359.738 303.741 359.676 303.849C359.656 303.893 359.646 303.941 359.646 303.99C359.646 304.038 359.656 304.086 359.676 304.13C359.731 304.252 359.826 304.351 359.946 304.41C360.2 304.568 360.499 304.635 360.796 304.6C361.112 304.56 361.416 304.451 361.685 304.28C361.955 304.131 362.212 303.96 362.455 303.769" fill="#989FAA"/>
<path d="M352.959 304.048C353.472 303.759 354.024 303.547 354.598 303.418L355.338 304.138C355.13 304.187 354.926 304.25 354.728 304.328C354.513 304.401 354.305 304.495 354.108 304.609C353.649 304.879 353.439 305.169 353.499 305.479C353.559 305.789 353.839 306.109 354.378 306.43C354.858 306.721 355.398 306.899 355.957 306.95C356.523 306.991 357.086 306.851 357.567 306.55C357.762 306.447 357.944 306.319 358.106 306.169C358.244 306.06 358.365 305.932 358.466 305.789L359.636 306.28C359.517 306.448 359.376 306.6 359.216 306.73C358.99 306.926 358.746 307.101 358.486 307.25C358.063 307.49 357.609 307.671 357.137 307.79C356.688 307.893 356.228 307.937 355.768 307.92C355.31 307.899 354.857 307.822 354.418 307.69C353.984 307.547 353.565 307.359 353.169 307.13C352.823 306.94 352.515 306.69 352.259 306.39C352.06 306.165 351.931 305.887 351.89 305.589C351.87 305.305 351.948 305.023 352.109 304.789C352.331 304.479 352.622 304.225 352.959 304.048Z" fill="#989FAA"/>
<path d="M347.872 306.992C348.192 306.813 348.526 306.662 348.871 306.541C349.191 306.421 349.451 306.331 349.641 306.281L350.411 306.982C350.183 307.033 349.959 307.1 349.741 307.182C349.469 307.273 349.207 307.394 348.961 307.542C348.773 307.634 348.614 307.776 348.502 307.952C348.432 308.092 348.502 308.212 348.662 308.312C348.748 308.358 348.838 308.394 348.931 308.422C349.04 308.442 349.152 308.442 349.261 308.422L349.721 308.362L350.331 308.212C350.721 308.112 351.06 308.032 351.33 307.982C351.604 307.93 351.881 307.904 352.16 307.902C352.406 307.91 352.65 307.944 352.889 308.002C353.129 308.077 353.361 308.178 353.579 308.302C354.079 308.603 354.269 308.923 354.159 309.303C354.049 309.683 353.669 310.033 352.999 310.424C352.616 310.65 352.211 310.838 351.79 310.984L351.03 311.214L350.231 310.494C350.471 310.434 350.76 310.354 351.06 310.253C351.386 310.144 351.701 310.004 352 309.833C352.228 309.725 352.427 309.564 352.58 309.363C352.64 309.236 352.58 309.116 352.4 309.003C352.199 308.891 351.966 308.852 351.74 308.893C351.358 308.931 350.98 309.005 350.611 309.113C350.311 309.193 350.031 309.253 349.761 309.303C349.501 309.355 349.237 309.382 348.971 309.383C348.726 309.39 348.481 309.366 348.242 309.313C347.984 309.253 347.738 309.152 347.512 309.013C347.022 308.723 346.823 308.402 346.892 308.012C346.962 307.622 347.282 307.332 347.872 306.992Z" fill="#989FAA"/>
<path d="M345.453 308.543C346.764 309.844 347.955 311.26 349.011 312.775C349.156 312.988 349.277 313.216 349.371 313.456C349.451 313.638 349.476 313.84 349.441 314.036C349.403 314.229 349.309 314.406 349.171 314.546C348.988 314.737 348.776 314.895 348.541 315.017C348.35 315.129 348.149 315.226 347.942 315.307C347.768 315.376 347.587 315.427 347.402 315.457L346.652 314.766C346.941 314.696 347.22 314.588 347.482 314.446C347.792 314.266 347.962 314.086 347.982 313.896C347.992 313.649 347.91 313.406 347.752 313.216C346.642 313.005 345.493 312.745 344.274 312.435C343.054 312.125 341.845 311.765 340.605 311.355L341.875 310.624L343.014 311.014C343.434 311.154 343.874 311.285 344.324 311.415C344.773 311.545 345.223 311.685 345.673 311.795L346.982 312.135C346.576 311.625 346.139 311.14 345.673 310.684C345.193 310.234 344.673 309.684 344.234 309.253L345.453 308.543Z" fill="#989FAA"/>
<path d="M338.306 312.523C338.613 312.353 338.93 312.202 339.256 312.073C339.51 311.971 339.771 311.884 340.035 311.812L340.795 312.513C340.567 312.547 340.346 312.611 340.135 312.703C339.866 312.803 339.606 312.923 339.356 313.063C339.165 313.156 339.005 313.302 338.896 313.483C338.826 313.613 338.896 313.734 339.056 313.844L339.326 313.954C339.435 313.974 339.546 313.974 339.655 313.954C339.81 313.944 339.963 313.923 340.115 313.894C340.321 313.854 340.524 313.804 340.725 313.744L341.724 313.523C342.001 313.472 342.282 313.445 342.564 313.443C342.807 313.452 343.048 313.486 343.284 313.543C343.525 313.614 343.757 313.715 343.973 313.844C344.473 314.144 344.673 314.464 344.563 314.844C344.324 315.346 343.912 315.744 343.403 315.965C343.02 316.195 342.615 316.386 342.194 316.535L341.424 316.755L340.625 316.045C340.878 315.985 341.158 315.905 341.464 315.805C341.793 315.696 342.108 315.552 342.404 315.374C342.631 315.274 342.827 315.115 342.974 314.914C343.044 314.784 342.974 314.664 342.804 314.554C342.601 314.449 342.371 314.407 342.144 314.434C341.76 314.483 341.379 314.557 341.005 314.654C340.715 314.734 340.435 314.794 340.155 314.854C339.898 314.901 339.637 314.927 339.376 314.934C339.127 314.942 338.879 314.918 338.636 314.864C338.378 314.804 338.132 314.703 337.906 314.564C337.426 314.274 337.217 313.954 337.287 313.563C337.357 313.173 337.706 312.863 338.306 312.523Z" fill="#989FAA"/>
<path d="M359.336 297.574L365.333 301.086C365.459 301.165 365.593 301.229 365.733 301.276C365.854 301.326 365.982 301.357 366.113 301.366C366.248 301.37 366.383 301.353 366.513 301.316C366.677 301.285 366.836 301.227 366.983 301.146L367.812 301.827C367.495 302.008 367.16 302.155 366.813 302.267C366.531 302.355 366.238 302.399 365.943 302.397C365.674 302.399 365.407 302.355 365.153 302.267C364.883 302.171 364.622 302.051 364.374 301.907L358.377 298.375L359.336 297.574Z" fill="#989FAA"/>
<path d="M237.469 185.562V222.903" stroke="#E1E5EA" stroke-width="1.5" stroke-linecap="round" stroke-linejoin="round"/>
<path d="M448.76 185.555V240.165" stroke="#E1E5EA" stroke-width="1.5" stroke-linecap="round" stroke-linejoin="round"/>
<path d="M343.453 246.816V266.137" stroke="#E1E5EA" stroke-width="1.5" stroke-linecap="round" stroke-linejoin="round"/>
<path d="M343.454 207.186V246.818L237.469 185.564V145.922L343.454 207.186Z" fill="#FFF5D6" stroke="#FFBF00" stroke-width="1.5" stroke-linecap="round" stroke-linejoin="round"/>
<path d="M448.759 145.922L343.453 207.186V246.818L448.759 185.564V145.922Z" fill="#FFF5D6" stroke="#FFBF00" stroke-width="1.5" stroke-linecap="round" stroke-linejoin="round"/>
<path d="M448.76 145.92L343.454 207.185L237.469 145.92L342.775 84.6562L448.76 145.92Z" fill="white" stroke="#FFBF00" stroke-width="1.5" stroke-linecap="round" stroke-linejoin="round"/>
<path d="M270.691 183.943L272.31 186.474L271.251 190.006L272.31 193.748L269.762 193.958L265.464 190.637L263.725 185.324L264.234 182.742L267.053 183.533L269.532 184.163L270.691 183.943Z" fill="#F9C515"/>
<path d="M263.245 175.227L270.692 179.359L272.501 182.931L269.532 184.162L265.754 183.481L262.426 179.989L260.977 176.787L261.386 175.227H263.245Z" fill="#D6E7FF"/>
<path d="M274.358 185.582L276.167 188.163L277.727 193.526L278.096 197.989L277.277 199.08L274.058 197.088L271.68 192.026V187.273L274.358 185.582Z" fill="#D6E7FF"/>
<path d="M277.857 184.362C277.527 184.272 277.517 184.362 277.617 184.802C278.107 186.693 277.987 188.124 276.938 188.804C276.788 188.904 276.888 189.055 276.938 189.235C277.905 191.504 278.509 193.911 278.727 196.369C278.797 197.063 278.766 197.764 278.637 198.45C278.337 199.791 277.437 200.131 276.258 199.45C275.961 199.28 275.683 199.079 275.429 198.85C274.256 197.767 273.29 196.478 272.58 195.048C272.524 194.917 272.438 194.801 272.33 194.708C272.295 194.693 272.258 194.685 272.22 194.685C272.182 194.685 272.145 194.693 272.11 194.708C271.595 194.846 271.056 194.873 270.529 194.789C270.002 194.704 269.499 194.51 269.052 194.217C268.205 193.701 267.443 193.056 266.793 192.306C266.723 192.226 266.642 192.155 266.553 192.096C266.476 192.056 266.39 192.036 266.303 192.036H264.224C264.364 191.236 264.494 190.485 264.634 189.745C264.675 189.472 264.622 189.193 264.484 188.955C263.165 186.393 262.845 184.192 263.605 182.411C263.685 182.221 263.675 182.131 263.445 181.881C262.384 180.729 261.525 179.407 260.906 177.968C259.906 175.577 260.396 174.026 262.115 174.176C263.389 174.336 264.611 174.777 265.693 175.467L266.393 175.897C267.377 176.529 268.306 177.242 269.172 178.028L269.302 178.128C269.372 178.178 269.432 178.128 269.492 178.128C270.201 177.128 271.291 177.228 272.63 177.978C272.92 178.138 272.98 178.088 272.97 177.748C272.868 176.467 273.18 175.187 273.859 174.096C273.882 174.053 273.914 174.016 273.951 173.985C273.989 173.955 274.033 173.933 274.079 173.92C274.126 173.907 274.175 173.903 274.223 173.909C274.271 173.916 274.317 173.931 274.359 173.956C274.457 174.019 274.545 174.097 274.619 174.186C274.774 174.32 274.882 174.501 274.925 174.701C274.969 174.902 274.945 175.111 274.859 175.297C274.239 176.334 273.989 177.551 274.149 178.749C274.149 178.865 274.173 178.98 274.22 179.087C274.266 179.194 274.334 179.29 274.419 179.369C275.303 180.252 276.048 181.264 276.628 182.371C276.687 182.506 276.784 182.621 276.908 182.701L277.058 182.771C277.505 182.954 277.986 183.039 278.469 183.02C278.952 183.001 279.425 182.879 279.856 182.661C279.934 182.608 280.027 182.579 280.121 182.579C280.216 182.579 280.308 182.608 280.386 182.661L280.486 182.731C280.716 182.912 280.879 183.166 280.946 183.451C281.026 183.792 280.946 183.992 280.756 184.092C280.316 184.332 279.833 184.48 279.334 184.526C278.836 184.573 278.333 184.517 277.857 184.362ZM271.461 193.227C271.57 193.227 271.79 193.227 271.66 192.897C271.53 192.567 271.511 192.456 271.291 192.326L271.201 192.276C270.989 192.195 270.785 192.094 270.591 191.976C270.1 191.693 269.641 191.357 269.222 190.976C267.236 189.17 265.913 186.749 265.464 184.102C265.448 183.958 265.399 183.82 265.321 183.698C265.243 183.577 265.138 183.475 265.014 183.401H264.954C264.734 183.271 264.744 183.511 264.684 183.622C264.462 184.078 264.366 184.586 264.404 185.092V185.543C264.394 185.629 264.394 185.716 264.404 185.803C264.726 187.645 265.525 189.37 266.723 190.806C267.345 191.66 268.125 192.387 269.022 192.947C269.368 193.181 269.762 193.335 270.176 193.397C270.589 193.459 271.011 193.429 271.411 193.307L271.461 193.227ZM277.547 195.998C277.357 193.938 276.869 191.916 276.098 189.995C275.771 189.101 275.366 188.237 274.889 187.414C274.735 187.131 274.511 186.894 274.239 186.723C274.167 186.68 274.09 186.646 274.009 186.623C273.769 186.543 273.739 186.623 273.869 186.943C274.77 189.22 275.387 191.6 275.708 194.027C275.776 194.584 276.017 195.106 276.398 195.518C276.605 195.76 276.825 195.991 277.058 196.209C277.178 196.319 277.298 196.429 277.427 196.529C277.557 196.629 277.567 196.459 277.547 196.038V195.998ZM265.664 176.818C264.911 176.366 264.096 176.029 263.245 175.817C263.474 176.583 263.832 177.304 264.304 177.948C264.387 178.085 264.5 178.201 264.634 178.289H264.694C265.431 178.588 266.145 178.939 266.833 179.339C268.147 180.113 269.391 181 270.551 181.991L270.691 182.101C270.861 182.191 270.871 182.101 270.851 181.841C270.762 181.261 270.48 180.729 270.051 180.33C268.896 179.079 267.578 177.988 266.133 177.088C265.983 176.988 265.823 176.898 265.664 176.808V176.818ZM266.153 182.811C267.044 183.38 268.103 183.624 269.152 183.501C269.429 183.478 269.696 183.391 269.934 183.247C270.171 183.103 270.372 182.906 270.521 182.671C269.671 181.941 268.812 181.38 267.962 180.67C267.842 180.59 267.742 180.51 267.632 180.45C267.441 180.311 267.206 180.245 266.97 180.263C266.733 180.281 266.511 180.383 266.343 180.55C265.934 181.021 265.713 181.627 265.723 182.251C265.712 182.345 265.733 182.44 265.782 182.522C265.831 182.603 265.905 182.666 265.993 182.701L266.113 182.771L266.153 182.811ZM272.55 192.216H272.67C273.056 192.328 273.469 192.286 273.825 192.099C274.18 191.913 274.451 191.596 274.579 191.216C274.619 191.079 274.619 190.933 274.579 190.796C274.219 189.381 273.779 187.988 273.26 186.623C272.876 186.851 272.583 187.205 272.43 187.624C271.945 188.963 271.906 190.423 272.32 191.786C272.317 191.859 272.333 191.931 272.366 191.996C272.399 192.061 272.449 192.116 272.51 192.156L272.55 192.216ZM271.211 186.903C271.531 186.333 271.451 185.793 270.781 185.012C270.708 184.919 270.624 184.835 270.531 184.762C270.5 184.747 270.466 184.739 270.431 184.739C270.396 184.739 270.362 184.747 270.331 184.762C269.652 185.012 268.915 185.053 268.212 184.882C267.962 184.822 267.922 184.942 267.992 185.252C268.363 186.732 269.253 188.029 270.501 188.904L270.631 188.985C270.871 189.125 270.881 189.075 270.891 188.704C270.867 188.091 270.976 187.48 271.211 186.913V186.903ZM262.115 178.289C262.704 179.48 263.503 180.554 264.474 181.46C264.601 181.599 264.745 181.72 264.904 181.821C265.084 181.931 265.114 181.77 265.174 181.32V181.18C265.22 180.858 265.333 180.55 265.505 180.274C265.677 179.999 265.905 179.762 266.173 179.579C264.931 178.848 263.541 178.407 262.105 178.289H262.115ZM275.169 196.859C275.309 195.289 275.208 193.706 274.869 192.166C274.641 192.481 274.323 192.72 273.958 192.852C273.593 192.984 273.196 193.003 272.82 192.907C272.69 192.907 272.69 192.907 272.75 193.097C273.226 194.481 273.951 195.766 274.889 196.889C274.928 196.948 274.979 196.999 275.039 197.039C275.119 197.039 275.149 197.039 275.169 196.859ZM261.865 177.638C261.901 177.648 261.939 177.648 261.975 177.638C262.555 177.658 263.131 177.738 263.695 177.878C263.324 177.267 263.016 176.62 262.775 175.947C262.783 175.896 262.774 175.843 262.749 175.798C262.723 175.752 262.683 175.717 262.635 175.697C261.785 175.427 261.346 176.297 261.776 177.418C261.797 177.502 261.846 177.576 261.915 177.628L261.865 177.638ZM276.208 198.11C276.948 198.54 277.577 198.18 277.517 197.269C277.517 197.217 277.502 197.165 277.476 197.12C277.45 197.074 277.412 197.036 277.368 197.009C276.829 196.587 276.346 196.1 275.928 195.558C275.93 196.228 275.877 196.898 275.768 197.559C275.759 197.622 275.768 197.685 275.795 197.742C275.822 197.799 275.865 197.847 275.918 197.879C275.999 197.969 276.098 198.041 276.208 198.09" fill="#020202"/>
<path d="M300.786 205.705C301.336 208.447 300.017 209.708 297.788 208.567C296.988 208.153 296.189 207.713 295.389 207.246L293.94 206.396L292.5 205.555L291.671 205.085C291.587 205.042 291.52 204.972 291.478 204.888C291.437 204.803 291.424 204.707 291.441 204.615V201.373C291.056 201.729 290.601 202.002 290.106 202.174C289.611 202.346 289.085 202.414 288.562 202.373C287.632 202.333 286.727 202.065 285.924 201.593C285.436 201.31 284.98 200.974 284.564 200.592C283.603 199.711 282.834 198.64 282.306 197.447C281.778 196.253 281.502 194.964 281.496 193.659C281.586 190.927 282.835 189.656 284.994 189.786C285.465 189.811 285.921 189.952 286.324 190.197C286.881 190.543 287.372 190.987 287.773 191.507C288.722 192.718 289.022 194.089 288.532 194.949C288.24 195.381 287.84 195.729 287.372 195.959C286.904 196.189 286.384 196.293 285.864 196.26C285.036 196.288 284.212 196.142 283.445 195.83C283.165 195.71 283.165 195.83 283.235 196.14C283.618 197.692 284.585 199.036 285.934 199.892C286.152 200.014 286.379 200.117 286.613 200.202C287.309 200.477 288.066 200.562 288.805 200.448C289.545 200.333 290.241 200.024 290.821 199.552C291.065 199.356 291.253 199.1 291.367 198.808C291.481 198.517 291.517 198.2 291.471 197.891C291.421 195.94 291.471 194.039 291.471 192.118C291.471 191.838 291.531 191.788 291.771 191.918L297.118 195.019C297.924 195.479 298.636 196.087 299.217 196.81C300.1 197.838 300.571 199.157 300.536 200.512C300.536 201.723 299.987 202.343 298.977 202.253H298.677C298.907 202.473 299.097 202.654 299.287 202.854C300.046 203.643 300.565 204.632 300.786 205.705ZM283.035 194.039C283.016 194.103 283.019 194.172 283.045 194.234C283.07 194.296 283.116 194.347 283.175 194.379H283.265C284.844 194.939 286.264 194.959 287.263 194.029C287.451 193.844 287.559 193.592 287.563 193.328C287.542 192.953 287.385 192.597 287.123 192.328C286.934 192.107 286.712 191.918 286.464 191.768C286.245 191.636 285.998 191.56 285.744 191.547C284.255 191.467 283.395 192.328 283.075 193.979L283.035 194.039ZM296.988 205.425C297.708 205.745 298.108 205.375 298.078 204.505C298.054 204.087 297.93 203.682 297.716 203.323C297.502 202.964 297.204 202.662 296.848 202.443C296.698 202.343 296.548 202.263 296.398 202.173L295.669 201.753L294.929 201.333L294.379 201.003C294.22 200.913 294.17 201.003 294.17 201.143V203.574C294.16 203.647 294.171 203.721 294.203 203.787C294.235 203.852 294.286 203.907 294.349 203.944L294.639 204.104L295.309 204.505L295.919 204.865C296.278 205.075 296.638 205.265 297.008 205.435L296.988 205.425ZM294.12 196.11V198.111C294.12 198.261 294.12 198.371 294.29 198.471L294.599 198.641L295.189 198.992L295.699 199.292L296.698 199.862C297.348 200.202 297.698 199.862 297.698 199.092C297.683 198.738 297.579 198.394 297.395 198.091C297.212 197.789 296.955 197.537 296.648 197.361L296.278 197.141L295.539 196.72L294.839 196.32L294.319 196.01C294.16 195.92 294.1 195.95 294.1 196.14" fill="#020202"/>
<path d="M311.549 207.117C311.669 209.058 311.26 210.419 309.74 210.529C308.851 210.499 307.988 210.218 307.252 209.718L306.252 209.168L305.443 208.678C305.203 208.528 305.153 208.618 305.153 208.898V212.57C305.153 212.86 305.103 212.94 304.863 212.8L303.863 212.21L302.784 211.6C302.678 211.553 302.591 211.473 302.535 211.371C302.479 211.27 302.458 211.154 302.474 211.039V198.532C302.474 198.222 302.554 198.212 302.794 198.352L305.722 200.053L307.482 201.054C308.047 201.384 308.58 201.77 309.071 202.204C310.51 203.452 311.4 205.217 311.549 207.117ZM307.492 207.117C308.331 207.517 308.781 207.057 308.741 206.016C308.727 205.544 308.593 205.083 308.352 204.677C308.11 204.271 307.77 203.933 307.362 203.695L306.762 203.335L306.332 203.095L305.403 202.544C305.223 202.444 305.173 202.474 305.173 202.695V205.536C305.162 205.605 305.171 205.676 305.199 205.74C305.228 205.804 305.274 205.858 305.333 205.896L305.553 206.026L306.062 206.327L306.522 206.597C306.852 206.787 307.182 206.967 307.522 207.127" fill="#020202"/>
<path d="M320.835 208.695C320.952 208.747 321.048 208.836 321.11 208.948C321.171 209.06 321.194 209.189 321.174 209.316V211.317C321.174 211.607 321.174 211.687 320.855 211.537C319.235 210.536 317.616 209.656 316.007 208.705C315.737 208.545 315.667 208.605 315.677 208.906V210.797C315.661 210.905 315.681 211.015 315.736 211.109C315.79 211.204 315.875 211.277 315.977 211.317L316.677 211.717L318.076 212.528L319.075 213.138L320.125 213.738C320.231 213.778 320.32 213.854 320.377 213.953C320.433 214.051 320.454 214.167 320.435 214.279V216.28C320.435 216.6 320.355 216.61 320.115 216.47L318.316 215.469L316.037 214.118C315.707 213.928 315.657 214.018 315.657 214.359V218.651C315.657 218.961 315.587 218.991 315.347 218.861C314.998 218.641 314.648 218.431 314.288 218.231C313.928 218.031 313.638 217.861 313.288 217.68C313.175 217.623 313.083 217.531 313.026 217.417C312.968 217.304 312.948 217.176 312.969 217.05V204.643C312.969 204.333 313.029 204.283 313.298 204.433L317.076 206.624C318.316 207.265 319.565 207.985 320.835 208.695Z" fill="#020202"/>
<path d="M448.76 122.487L343.454 183.741L237.469 122.487L342.775 61.2227L448.76 122.487Z" fill="white" stroke="#3388FF" stroke-width="1.5" stroke-linecap="round" stroke-linejoin="round"/>
<path d="M343.454 183.742V194.168L237.469 132.904V122.488L343.454 183.742Z" fill="#D6E7FF" stroke="#3388FF" stroke-width="1.5" stroke-linecap="round" stroke-linejoin="round"/>
<path d="M448.759 122.488L343.453 183.742V194.168L448.759 132.904V122.488Z" fill="#D6E7FF" stroke="#3388FF" stroke-width="1.5" stroke-linecap="round" stroke-linejoin="round"/>
<path d="M287.962 126.071C288.432 126.344 288.924 126.579 289.432 126.771C289.971 126.961 290.541 127.142 291.131 127.302L289.672 128.152C289.417 128.129 289.166 128.079 288.922 128.002C288.652 127.932 288.362 127.822 288.012 127.702C287.694 127.592 287.384 127.462 287.083 127.312L286.183 126.871L286.063 126.801C285.453 126.452 284.906 126.002 284.444 125.471C284.069 125.024 283.82 124.485 283.725 123.91C283.725 123.302 283.933 122.712 284.314 122.239C284.862 121.551 285.542 120.979 286.313 120.558C286.986 120.144 287.704 119.809 288.452 119.557C289.134 119.308 289.841 119.136 290.561 119.047C291.222 118.947 291.891 118.907 292.56 118.927C293.174 118.947 293.786 119.017 294.389 119.137C294.949 119.244 295.5 119.391 296.038 119.577L297.398 120.228C297.859 120.526 298.297 120.861 298.707 121.228C299.016 121.52 299.279 121.858 299.487 122.229L298.027 123.079C297.745 122.727 297.442 122.393 297.118 122.079C296.783 121.757 296.411 121.478 296.008 121.248C295.534 120.98 295.031 120.765 294.509 120.608C293.902 120.429 293.273 120.338 292.64 120.338C291.073 120.33 289.537 120.771 288.212 121.608C287.706 121.887 287.247 122.245 286.853 122.669C286.556 122.988 286.361 123.389 286.293 123.82C286.26 124.22 286.366 124.619 286.593 124.95C286.963 125.419 287.43 125.801 287.962 126.071Z" fill="#151A1F"/>
<path d="M292.041 129.933L302.765 123.699L304.525 124.71L293.8 130.953L292.041 129.933Z" fill="#151A1F"/>
<path d="M297.428 133.066L313.769 123.551L315.528 124.571L299.197 134.077L297.428 133.066Z" fill="#151A1F"/>
<path d="M302.824 136.165L313.549 129.922L315.308 130.942L304.583 137.186L302.824 136.165Z" fill="#151A1F"/>
<path d="M319.256 140.838L325.813 137.016L327.582 138.017L321.005 141.849C320.659 142.049 320.302 142.229 319.936 142.389C319.594 142.549 319.24 142.679 318.877 142.78C318.354 142.91 317.823 143 317.287 143.05C316.735 143.08 316.181 143.08 315.628 143.05C314.435 142.896 313.281 142.516 312.23 141.929H312.15L312.06 141.869C311.611 141.613 311.192 141.307 310.811 140.959C310.53 140.666 310.3 140.327 310.131 139.958C309.998 139.641 309.974 139.29 310.061 138.957C310.135 138.625 310.289 138.316 310.511 138.057C310.719 137.819 310.943 137.595 311.18 137.387L312.18 136.726L318.737 132.914L320.496 133.915L313.939 137.727C313.456 137.967 313.03 138.309 312.69 138.727C312.557 138.878 312.467 139.062 312.432 139.259C312.397 139.457 312.417 139.661 312.49 139.848C312.726 140.344 313.13 140.74 313.629 140.969C314.24 141.335 314.921 141.567 315.628 141.649C316.301 141.716 316.979 141.651 317.627 141.459C318.194 141.322 318.742 141.113 319.256 140.838Z" fill="#151A1F"/>
<path d="M344.714 149.843C344.309 150.407 343.774 150.864 343.154 151.174L335.968 155.356L334.269 154.356L341.175 150.353C341.546 150.142 341.883 149.875 342.175 149.563C342.384 149.379 342.513 149.12 342.535 148.842C342.527 148.596 342.443 148.359 342.295 148.162C342.071 147.921 341.807 147.722 341.515 147.572C340.836 147.193 340.089 146.951 339.316 146.861C338.386 146.761 337.448 146.761 336.518 146.861L328.932 151.264L327.173 150.263L334.069 146.261C334.434 146.04 334.77 145.775 335.068 145.471C335.277 145.281 335.409 145.021 335.438 144.74C335.427 144.496 335.34 144.262 335.188 144.07C334.968 143.823 334.704 143.619 334.409 143.469C333.728 143.088 332.976 142.849 332.2 142.769C331.283 142.669 330.358 142.669 329.441 142.769L321.835 147.202L320.076 146.201L330.831 139.938L332.2 140.728L331.041 141.789H332.42C332.862 141.798 333.303 141.838 333.739 141.909C334.18 141.969 334.613 142.08 335.029 142.239C335.467 142.377 335.886 142.569 336.278 142.809C336.921 143.115 337.435 143.64 337.727 144.29C337.795 144.568 337.803 144.858 337.749 145.139C337.696 145.42 337.583 145.687 337.417 145.921C338.486 145.796 339.566 145.796 340.636 145.921C341.586 146.05 342.503 146.362 343.334 146.841C343.695 147.068 344.03 147.333 344.334 147.632C344.623 147.906 344.836 148.251 344.953 148.632C345.01 148.839 345.018 149.056 344.976 149.266C344.935 149.476 344.845 149.674 344.714 149.843Z" fill="#151A1F"/>
<path d="M319.736 128.341L317.767 129.482L316.008 128.471L317.977 127.32L319.736 128.341Z" fill="#151A1F"/>
<path d="M308.951 122.107L306.982 123.257L305.223 122.237L307.192 121.086L308.951 122.107Z" fill="#151A1F"/>
<path d="M338.506 101.246L341.005 95.7225L351.559 94.1016L358.985 98.394L356.557 103.957L346.002 105.578L338.506 101.246Z" fill="#CADD72"/>
<path d="M351.42 94.8817L358.026 98.7038L356.027 103.276L346.142 104.797L339.476 100.935L341.475 96.4025L351.38 94.8817H351.42ZM351.67 93.3208L340.485 95.0518L337.547 101.565L345.853 106.368L357.077 104.637L359.945 98.0534L351.71 93.3008L351.67 93.3208Z" fill="#151A1F"/>
<path d="M360.375 104.749L362.844 99.2464L373.428 97.6055L380.845 101.888L378.326 107.431L367.821 109.052L360.375 104.749Z" fill="#F9C515"/>
<path d="M373.279 98.3834L379.886 102.196L377.807 106.748L367.962 108.269L361.325 104.437L363.324 99.9242L373.239 98.3834H373.279ZM373.529 96.8125L362.285 98.5635L359.406 105.057L367.672 109.83L378.806 108.109L381.805 101.585L373.559 96.8125H373.529Z" fill="#151A1F"/>
<path d="M366.492 117.427L368.981 111.894L379.545 110.273L386.952 114.556L384.523 120.129L373.968 121.75L366.492 117.427Z" fill="#F17423"/>
<path d="M379.395 111.06L386.002 114.882L384.003 119.455L374.118 120.976L367.451 117.063L369.45 112.531L379.355 111.01L379.395 111.06ZM379.645 109.449L368.421 111.17L365.492 117.694L373.788 122.486L385.002 120.756L387.871 114.202L379.645 109.449Z" fill="#151A1F"/>
<path d="M322.715 110.472L325.194 104.979L335.758 103.328L343.134 107.591L340.656 113.154L330.151 114.764L322.715 110.472Z" fill="#97C93D"/>
<path d="M335.609 104.108L342.175 107.9L340.176 112.482L330.341 113.983L323.715 110.161L325.714 105.659L335.619 104.108H335.609ZM335.909 102.547L324.684 104.298L321.756 110.781L330.022 115.554L341.186 113.833L344.094 107.28L335.909 102.547Z" fill="#151A1F"/>
<path d="M344.572 113.925L347.051 108.432L357.646 106.781L365.062 111.074L362.523 116.607L352.008 118.218L344.572 113.925Z" fill="#E82429"/>
<path d="M357.497 107.561L364.094 111.383L362.005 115.926L352.16 117.436L345.533 113.614L347.532 109.112L357.457 107.561H357.497ZM357.747 106L346.493 107.751L343.574 114.235L351.83 119.007L362.994 117.286L365.993 110.763L357.817 106H357.747Z" fill="#151A1F"/>
<path d="M350.68 126.63L353.158 121.147L363.733 119.496L371.099 123.748L368.621 129.322L358.126 130.932L350.68 126.63Z" fill="#8061A9"/>
<path d="M363.584 120.276L370.14 124.058L368.141 128.64L358.306 130.151L351.68 126.319L353.679 121.827L363.584 120.276ZM363.873 118.715L352.649 120.466L349.721 126.939L357.976 131.712L369.141 130.001L372.049 123.437L363.873 118.715Z" fill="#151A1F"/>
<path d="M328.842 123.058L331.321 117.565L341.915 115.934L349.341 120.226L346.823 125.749L336.308 127.37L328.842 123.058Z" fill="#3388FF"/>
<path d="M341.765 116.713L348.382 120.535L346.303 125.068L336.448 126.589L329.831 122.747L331.83 118.244L341.755 116.713H341.765ZM342.055 115.152L330.831 116.883L327.902 123.367L336.178 128.15L347.352 126.429L350.351 119.915L342.105 115.152H342.055Z" fill="#151A1F"/>
<path d="M531.437 245.188C531.911 245.406 532.319 245.744 532.622 246.169C532.926 246.593 533.113 247.09 533.166 247.609C533.123 248.126 532.941 248.622 532.64 249.044C532.34 249.467 531.931 249.8 531.457 250.01C530.183 250.695 528.755 251.039 527.309 251.011C525.857 251.038 524.423 250.694 523.141 250.01C522.668 249.792 522.259 249.454 521.956 249.029C521.653 248.605 521.465 248.108 521.412 247.589C521.454 247.07 521.635 246.573 521.936 246.148C522.236 245.724 522.646 245.389 523.121 245.178C524.396 244.495 525.824 244.15 527.269 244.177C528.721 244.158 530.155 244.506 531.437 245.188Z" fill="#E1E5EA"/>
<path d="M482.693 186.813C483.166 187.031 483.575 187.369 483.878 187.794C484.182 188.218 484.369 188.715 484.422 189.234C484.378 189.751 484.197 190.247 483.896 190.669C483.595 191.092 483.187 191.426 482.713 191.635C481.439 192.32 480.01 192.664 478.565 192.636C477.113 192.663 475.679 192.319 474.397 191.635C473.923 191.417 473.515 191.079 473.212 190.654C472.908 190.23 472.721 189.733 472.668 189.214C472.71 188.695 472.891 188.198 473.191 187.773C473.492 187.349 473.902 187.014 474.377 186.803C475.652 186.12 477.08 185.775 478.525 185.802C479.977 185.783 481.41 186.131 482.693 186.813Z" fill="#E1E5EA"/>
<path d="M625.429 208.926C625.903 209.144 626.311 209.482 626.615 209.907C626.918 210.332 627.105 210.828 627.158 211.347C627.115 211.864 626.933 212.36 626.632 212.783C626.332 213.205 625.923 213.539 625.449 213.749C624.175 214.433 622.747 214.778 621.301 214.749C619.85 214.777 618.415 214.432 617.133 213.749C616.66 213.531 616.251 213.192 615.948 212.768C615.645 212.343 615.457 211.847 615.404 211.327C615.446 210.809 615.627 210.311 615.928 209.887C616.229 209.462 616.638 209.127 617.113 208.916C618.388 208.233 619.816 207.889 621.261 207.916C622.713 207.897 624.147 208.244 625.429 208.926Z" fill="#E1E5EA"/>
<path d="M232.381 313.546C233.02 313.766 233.545 314.231 233.841 314.839C234.137 315.447 234.18 316.148 233.96 316.787C233.832 317.153 233.624 317.484 233.35 317.758C233.077 318.031 232.746 318.24 232.381 318.368C231.091 319.019 229.667 319.358 228.223 319.358C226.779 319.358 225.355 319.019 224.065 318.368C223.59 318.151 223.179 317.814 222.874 317.389C222.569 316.964 222.38 316.467 222.326 315.947C222.372 315.431 222.554 314.936 222.855 314.514C223.155 314.092 223.563 313.757 224.035 313.546C225.309 312.861 226.738 312.517 228.183 312.545C229.645 312.513 231.09 312.858 232.381 313.546Z" fill="#E1E5EA"/>
<path d="M375.207 335.366C375.713 335.534 376.153 335.858 376.464 336.291C376.776 336.723 376.944 337.243 376.944 337.777C376.944 338.311 376.776 338.831 376.464 339.263C376.153 339.696 375.713 340.02 375.207 340.188C373.921 340.845 372.498 341.187 371.054 341.187C369.611 341.187 368.188 340.845 366.901 340.188C366.263 339.968 365.738 339.503 365.441 338.895C365.145 338.287 365.102 337.586 365.322 336.947C365.45 336.581 365.659 336.25 365.932 335.976C366.205 335.702 366.537 335.494 366.901 335.366C368.189 334.709 369.614 334.367 371.059 334.367C372.504 334.367 373.929 334.709 375.217 335.366H375.207Z" fill="#E1E5EA"/>
<path d="M194.539 230.76C195.178 230.981 195.703 231.446 195.999 232.054C196.295 232.662 196.338 233.362 196.119 234.002C195.991 234.367 195.782 234.699 195.509 234.972C195.235 235.246 194.904 235.455 194.539 235.583C193.251 236.239 191.827 236.581 190.381 236.581C188.936 236.581 187.512 236.239 186.224 235.583C185.585 235.362 185.06 234.897 184.764 234.289C184.468 233.681 184.425 232.981 184.644 232.341C184.772 231.976 184.981 231.644 185.254 231.371C185.528 231.097 185.859 230.888 186.224 230.76C187.512 230.104 188.936 229.762 190.381 229.762C191.827 229.762 193.251 230.104 194.539 230.76Z" fill="#E1E5EA"/>
<path d="M123.166 219.702C123.805 219.922 124.33 220.387 124.626 220.995C124.922 221.603 124.965 222.304 124.745 222.943C124.617 223.309 124.409 223.64 124.136 223.914C123.862 224.187 123.531 224.396 123.166 224.524C121.878 225.181 120.454 225.523 119.008 225.523C117.563 225.523 116.138 225.181 114.851 224.524C114.212 224.304 113.687 223.838 113.391 223.231C113.095 222.623 113.052 221.922 113.271 221.282C113.399 220.917 113.608 220.586 113.881 220.312C114.154 220.038 114.486 219.83 114.851 219.702C116.138 219.045 117.563 218.703 119.008 218.703C120.454 218.703 121.878 219.045 123.166 219.702Z" fill="#E1E5EA"/>
<path d="M217.168 183.444C217.807 183.664 218.332 184.13 218.628 184.737C218.924 185.345 218.967 186.046 218.747 186.686C218.619 187.051 218.411 187.382 218.138 187.656C217.864 187.93 217.533 188.138 217.168 188.266C215.88 188.923 214.456 189.265 213.01 189.265C211.565 189.265 210.14 188.923 208.853 188.266C208.214 188.046 207.689 187.581 207.393 186.973C207.097 186.365 207.054 185.664 207.273 185.025C207.401 184.659 207.61 184.328 207.883 184.054C208.156 183.781 208.488 183.572 208.853 183.444C210.14 182.787 211.565 182.445 213.01 182.445C214.456 182.445 215.88 182.787 217.168 183.444Z" fill="#E1E5EA"/>
<path d="M590.468 183.732L574.706 198.51C574.486 198.669 574.256 198.813 574.016 198.941L573.806 199.041C573.594 199.153 573.374 199.25 573.147 199.331L572.987 199.391C572.707 199.484 572.417 199.564 572.117 199.631C571.722 199.723 571.322 199.79 570.918 199.831L541.073 201.662C539.729 201.821 538.368 201.573 537.165 200.952L536.835 200.752L515.516 188.425C515.337 188.305 515.177 188.175 515.017 188.044L514.927 187.964C514.787 187.834 514.656 187.694 514.537 187.544L514.457 187.444L514.297 187.204L514.227 187.074L514.117 186.844C514.113 186.797 514.113 186.75 514.117 186.704C514.086 186.622 514.059 186.538 514.037 186.454V193.377C514.032 193.422 514.037 193.468 514.05 193.511C514.064 193.554 514.087 193.594 514.117 193.628C514.113 193.671 514.113 193.714 514.117 193.758C514.148 193.837 514.185 193.914 514.227 193.988C514.223 194.015 514.228 194.044 514.241 194.069C514.253 194.093 514.273 194.114 514.297 194.128C514.364 194.197 514.421 194.274 514.467 194.358V194.448C514.589 194.592 514.719 194.729 514.857 194.858L514.947 194.938C515.102 195.079 515.269 195.206 515.447 195.319L536.726 207.645L537.055 207.856C538.26 208.473 539.619 208.72 540.963 208.566L570.808 206.725C571.212 206.683 571.612 206.617 572.007 206.525H572.097C572.362 206.463 572.622 206.386 572.877 206.295L573.037 206.235C573.267 206.145 573.487 206.055 573.697 205.954L573.906 205.844C574.146 205.716 574.376 205.573 574.596 205.414L590.378 190.636C590.665 190.345 590.86 189.976 590.938 189.575C590.948 189.452 590.948 189.328 590.938 189.205V182.281C590.965 182.806 590.798 183.323 590.468 183.732Z" fill="#D6E7FF" stroke="#3388FF" stroke-width="1.5" stroke-linecap="round" stroke-linejoin="round"/>
<path d="M579.353 163.561C579.86 163.821 580.299 164.198 580.632 164.662L590.777 181.201C591.009 181.599 591.105 182.062 591.049 182.519C590.993 182.977 590.789 183.403 590.467 183.733L574.705 198.511C573.581 199.279 572.274 199.735 570.917 199.832L541.072 201.663C539.728 201.821 538.367 201.574 537.164 200.952L536.834 200.752L515.515 188.425C515.07 188.177 514.693 187.824 514.414 187.397C514.135 186.97 513.965 186.481 513.916 185.974L516.994 168.664C517.19 168.15 517.501 167.688 517.903 167.314C518.305 166.939 518.787 166.662 519.313 166.503L544.81 157.178C546.174 156.711 547.639 156.624 549.048 156.928L577.703 162.721C578.279 162.947 578.831 163.228 579.353 163.561Z" fill="white" stroke="#3388FF" stroke-width="1.5" stroke-linecap="round" stroke-linejoin="round"/>
<path d="M562.711 187.104C563.031 187.404 562.891 187.784 562.391 187.974C562.175 188.042 561.947 188.066 561.722 188.044C561.475 188.036 561.233 187.974 561.012 187.864C560.944 187.825 560.883 187.775 560.832 187.714L559.593 186.253C559.533 186.192 559.466 186.138 559.393 186.093C559.237 186.01 559.068 185.956 558.893 185.933H558.713C558.642 185.925 558.574 185.901 558.513 185.863L558.294 185.683C555.178 186.564 551.913 186.783 548.708 186.323L548.599 186.483C548.548 186.541 548.482 186.583 548.409 186.603H548.279C548.163 186.624 548.053 186.672 547.959 186.743C547.865 186.814 547.79 186.907 547.739 187.014L547.139 188.605V188.665C546.969 188.85 546.752 188.985 546.51 189.056C546.269 189.126 546.013 189.129 545.77 189.065C545.647 189.041 545.529 188.997 545.42 188.935C545.359 188.897 545.303 188.854 545.25 188.805C544.98 188.525 545.02 188.344 545.13 188.204L546.33 186.724C546.363 186.69 546.39 186.65 546.408 186.607C546.426 186.563 546.436 186.516 546.436 186.468C546.436 186.421 546.426 186.374 546.408 186.33C546.39 186.286 546.363 186.247 546.33 186.213L546.26 186.143C546.245 186.117 546.237 186.088 546.237 186.058C546.237 186.028 546.245 185.999 546.26 185.973L546.34 185.803C544.942 185.44 543.598 184.895 542.342 184.182C541.273 183.581 540.321 182.791 539.533 181.851L539.243 181.911H538.834C538.545 181.841 538.243 181.841 537.954 181.911L535.435 182.631H535.325C534.944 182.721 534.544 182.671 534.196 182.491C534.093 182.44 534.006 182.36 533.946 182.261C533.907 182.203 533.887 182.135 533.887 182.066C533.887 181.996 533.907 181.929 533.946 181.871C534.029 181.747 534.138 181.643 534.266 181.567C534.394 181.491 534.537 181.444 534.686 181.431L537.414 181.06C537.68 181.042 537.93 180.924 538.114 180.73L538.164 180.66C538.222 180.604 538.295 180.566 538.374 180.55L538.674 180.47C538.277 179.55 538.16 178.534 538.338 177.548C538.516 176.562 538.98 175.65 539.673 174.927L539.383 174.817C539.283 174.757 539.243 174.727 539.223 174.687V174.607C539.166 174.486 539.072 174.388 538.953 174.327C538.858 174.276 538.757 174.236 538.654 174.207L536.105 173.516C535.999 173.487 535.898 173.444 535.805 173.386C535.455 173.186 535.375 172.876 535.645 172.626C535.794 172.495 535.978 172.411 536.175 172.386C536.508 172.308 536.856 172.333 537.174 172.456L539.403 173.456C539.675 173.567 539.972 173.605 540.263 173.566H540.403C540.494 173.536 540.592 173.536 540.683 173.566L541.012 173.676C541.399 173.379 541.803 173.105 542.222 172.856C544.341 171.687 546.672 170.952 549.078 170.695V170.464C549.076 170.434 549.083 170.404 549.097 170.378C549.111 170.351 549.132 170.329 549.158 170.314L549.238 170.244C549.326 170.199 549.393 170.122 549.426 170.03C549.46 169.937 549.457 169.835 549.418 169.744L548.748 168.163V168.093C548.669 167.743 549.088 167.433 549.678 167.393C549.902 167.373 550.127 167.403 550.338 167.483L550.598 167.613C550.837 167.753 550.887 167.873 550.897 168.003V169.634C550.906 169.723 550.939 169.808 550.991 169.88C551.044 169.952 551.115 170.009 551.197 170.044L551.297 170.094L551.407 170.144C551.507 170.144 551.537 170.234 551.557 170.284L551.627 170.514C554.81 170.427 557.971 171.063 560.872 172.376L561.162 172.225C561.243 172.185 561.332 172.165 561.422 172.165H561.562C561.846 172.176 562.126 172.095 562.362 171.935L564.101 170.665H564.181C564.416 170.541 564.679 170.476 564.945 170.476C565.211 170.476 565.474 170.541 565.71 170.665C565.782 170.696 565.844 170.746 565.892 170.809C565.939 170.872 565.969 170.947 565.98 171.025C565.998 171.146 565.972 171.269 565.908 171.374C565.844 171.478 565.746 171.556 565.63 171.595L563.441 172.596C563.339 172.628 563.248 172.69 563.181 172.774C563.113 172.857 563.072 172.959 563.061 173.066C563.067 173.099 563.06 173.133 563.041 173.161C563.023 173.189 562.994 173.209 562.961 173.216L562.691 173.396C564.86 174.907 565.92 176.778 565.87 178.639H566.23C566.305 178.648 566.379 178.669 566.449 178.699L566.559 178.789C566.803 178.937 567.084 179.013 567.369 179.009H570.177C570.443 179.006 570.705 179.071 570.937 179.199C571.037 179.24 571.121 179.311 571.176 179.403C571.232 179.495 571.257 179.603 571.247 179.71C571.223 179.785 571.183 179.855 571.129 179.914C571.076 179.972 571.01 180.019 570.937 180.05C570.637 180.23 570.284 180.3 569.938 180.25L567.189 179.89C566.897 179.849 566.599 179.891 566.329 180.01L566.22 180.06C566.131 180.08 566.038 180.08 565.95 180.06H565.58C564.845 181.791 563.526 183.208 561.852 184.062C561.422 184.302 560.972 184.532 560.502 184.742L560.662 184.903C560.679 184.926 560.687 184.954 560.687 184.983C560.687 185.011 560.679 185.039 560.662 185.063V185.143C560.634 185.236 560.638 185.337 560.674 185.428C560.711 185.519 560.777 185.595 560.862 185.643L562.631 186.914L562.711 187.104ZM549.718 184.792C552.058 185.084 554.431 184.931 556.714 184.342L553.436 181.631C553.403 181.602 553.366 181.578 553.326 181.561C553.086 181.426 552.81 181.371 552.537 181.403C552.264 181.435 552.009 181.554 551.807 181.741L549.808 184.792H549.718ZM546.51 178.599C547.139 178.449 547.269 177.989 546.819 177.718L546.67 177.658L542.012 175.837C541.541 176.376 541.223 177.032 541.091 177.736C540.959 178.44 541.018 179.166 541.262 179.84L546.51 178.589V178.599ZM544.181 183.102C545.092 183.616 546.062 184.019 547.069 184.302L548.659 181.12C548.768 180.92 548.659 180.72 548.429 180.59C548.139 180.442 547.808 180.397 547.489 180.46L542.112 181.461C542.704 182.129 543.403 182.694 544.181 183.132V183.102ZM559.043 183.542C559.303 183.412 559.573 183.282 559.823 183.132C561.089 182.472 562.106 181.419 562.721 180.13L557.084 179.91C556.335 179.91 555.845 180.35 556.225 180.72L559.043 183.552V183.542ZM558.743 173.546C556.633 172.635 554.355 172.175 552.057 172.195L553.056 175.457C553.106 175.582 553.198 175.684 553.316 175.747C553.517 175.846 553.737 175.898 553.961 175.898C554.184 175.898 554.405 175.846 554.605 175.747L558.763 173.536L558.743 173.546ZM544.151 174.056C543.901 174.207 543.661 174.357 543.431 174.517L548.379 176.108C549.028 176.308 549.818 176.018 549.748 175.587L549.278 172.376C547.478 172.606 545.738 173.176 544.151 174.056ZM563.041 178.489C562.972 177.72 562.725 176.977 562.321 176.319C561.917 175.661 561.367 175.106 560.712 174.697L556.934 177.098C556.861 177.128 556.798 177.18 556.754 177.246C556.71 177.311 556.686 177.389 556.686 177.468C556.686 177.548 556.71 177.625 556.754 177.691C556.798 177.757 556.861 177.808 556.934 177.839C557.09 177.927 557.265 177.979 557.444 177.989L562.961 178.489H563.041ZM552.517 177.558L550.937 177.668L550.118 178.449L550.657 179.319L552.157 179.61L553.486 179.119L553.656 178.209L552.517 177.558Z" fill="#151A1F"/>
<path d="M129.944 203.765V211.629L76.1816 180.562V172.688L129.944 203.765Z" fill="#D6E7FF" stroke="#3388FF" stroke-width="1.5" stroke-linecap="round" stroke-linejoin="round"/>
<path d="M183.356 172.688L129.943 203.765V211.629L183.356 180.552V172.688Z" fill="#D6E7FF" stroke="#3388FF" stroke-width="1.5" stroke-linecap="round" stroke-linejoin="round"/>
<path d="M183.357 172.685L129.944 203.762L76.1816 172.685L129.594 141.617L183.357 172.685Z" fill="white" stroke="#3388FF" stroke-width="1.5" stroke-linecap="round" stroke-linejoin="round"/>
<path d="M140.718 176.609C142.607 178.15 142.377 180.311 140.008 181.692C138.517 182.452 136.868 182.848 135.195 182.848C133.523 182.848 131.873 182.452 130.383 181.692L115.46 173.097C112.802 171.556 112.782 169.095 115.46 167.524C117.267 166.581 119.312 166.195 121.337 166.413C121.787 165.984 122.287 165.611 122.827 165.303C124.932 164.231 127.261 163.672 129.623 163.672C131.985 163.672 134.314 164.231 136.42 165.303C138.549 166.523 139.548 168.214 139.188 169.915C139.531 170.055 139.865 170.215 140.188 170.396C143.106 172.096 143.296 174.788 140.718 176.609ZM132.492 180.461C133.327 180.882 134.25 181.101 135.185 181.101C136.121 181.101 137.043 180.882 137.879 180.461C139.358 179.601 139.358 178.2 137.879 177.339L136.45 176.509L137.719 175.899L138.089 175.708C140.088 174.578 140.018 172.707 138.089 171.606C137.706 171.382 137.296 171.207 136.869 171.086L135.87 170.766L136.14 170.105C136.67 168.795 136.01 167.444 134.371 166.493C132.919 165.758 131.315 165.375 129.688 165.375C128.061 165.375 126.457 165.758 125.006 166.493C124.452 166.809 123.967 167.231 123.576 167.734L123.037 168.514L121.677 168.214C120.327 167.921 118.916 168.098 117.679 168.715C116.21 169.575 116.21 170.976 117.679 171.836L132.602 180.461" fill="black"/>
<defs>
<radialGradient id="paint0_radial" cx="0" cy="0" r="1" gradientUnits="userSpaceOnUse" gradientTransform="translate(341.005 205.125) scale(330.67 205.235)">
<stop offset="0.85" stop-color="#F6F7F8"/>
<stop offset="0.88" stop-color="#F6F7F8" stop-opacity="0.99"/>
<stop offset="0.89" stop-color="#F6F7F8" stop-opacity="0.94"/>
<stop offset="0.91" stop-color="#F6F7F8" stop-opacity="0.87"/>
<stop offset="0.93" stop-color="#F6F7F8" stop-opacity="0.76"/>
<stop offset="0.95" stop-color="#F6F7F8" stop-opacity="0.63"/>
<stop offset="0.96" stop-color="#F6F7F8" stop-opacity="0.46"/>
<stop offset="0.98" stop-color="#F6F7F8" stop-opacity="0.27"/>
<stop offset="1" stop-color="#F6F7F8" stop-opacity="0"/>
</radialGradient>
</defs>
</svg>
