<svg width="36" height="36" viewBox="0 0 36 36" fill="none" xmlns="http://www.w3.org/2000/svg">
<path d="M25 17V26L31 32M11 17V26L5 32" stroke="#0073E6" stroke-width="3" stroke-linecap="round" stroke-linejoin="round"/>
<path d="M18 17V32" stroke="#0073E6" stroke-width="3" stroke-linecap="round"/>
<path d="M31 35C32.6569 35 34 33.6569 34 32C34 30.3431 32.6569 29 31 29C29.3431 29 28 30.3431 28 32C28 33.6569 29.3431 35 31 35Z" fill="#0073E6"/>
<path d="M5 35C3.34315 35 2 33.6569 2 32C2 30.3431 3.34315 29 5 29C6.65685 29 8 30.3431 8 32C8 33.6569 6.65685 35 5 35Z" fill="#0073E6"/>
<path d="M18 35C16.3431 35 15 33.6569 15 32C15 30.3431 16.3431 29 18 29C19.6569 29 21 30.3431 21 32C21 33.6569 19.6569 35 18 35Z" fill="#0073E6"/>
<path d="M27.454 7.153H27.446C27.271 7.154 27.096 7.163 26.921 7.176C26.2416 5.50028 25.1264 4.03673 23.691 2.937C22.0574 1.68539 20.058 1.00487 18 1C15.952 1 13.961 1.68 12.309 2.937C10.8735 4.037 9.75829 5.50091 9.079 7.177C8.90436 7.16254 8.72924 7.15454 8.554 7.153H8.545C6.525 7.153 4.601 8.003 3.19 9.493C1.782 10.983 1 12.993 1 15.076C1 17.16 1.782 19.169 3.19 20.659C4.6 22.151 6.526 23 8.545 23H27.455C29.475 23 31.399 22.15 32.81 20.66C34.218 19.17 35 17.16 35 15.076C35 12.992 34.218 10.983 32.81 9.494C31.4 8.002 29.474 7.153 27.454 7.153Z" fill="#0073E6" stroke="white" stroke-width="2"/>
</svg>
