<svg width="36" height="37" viewBox="0 0 36 37" fill="none" xmlns="http://www.w3.org/2000/svg">
<path d="M18 3.93188C11.705 3.93188 5 5.46388 5 8.21988C5 10.9769 11.705 12.5089 18 12.5089C24.295 12.5089 31 10.9769 31 8.21988C31 5.46388 24.295 3.93188 18 3.93188Z" fill="#F9C31F"/>
<path d="M18 14.6429C13.963 14.6429 7.737 13.9689 5 11.7029V18.9319C5 21.6879 11.705 23.2199 18 23.2199C24.295 23.2199 31 21.6879 31 18.9319V11.7019C28.263 13.9689 22.037 14.6429 18 14.6429Z" fill="#F9C31F"/>
<path d="M18 25.3558C13.963 25.3558 7.737 24.6818 5 22.4148V29.6438C5 32.3998 11.705 33.9318 18 33.9318C24.295 33.9318 31 32.3998 31 29.6438V22.4138C28.263 24.6818 22.037 25.3558 18 25.3558Z" fill="#F9C31F"/>
</svg>
