<svg width="36" height="37" viewBox="0 0 36 37" fill="none" xmlns="http://www.w3.org/2000/svg">
<path d="M26 13.9319V10.9319C26 8.81015 25.1571 6.77532 23.6569 5.27503C22.1566 3.77474 20.1217 2.93188 18 2.93188C15.8783 2.93188 13.8434 3.77474 12.3431 5.27503C10.8429 6.77532 10 8.81015 10 10.9319V13.9319" stroke="#EA4335" stroke-width="3"/>
<path fill-rule="evenodd" clip-rule="evenodd" d="M6 15.9319H30C30.5304 15.9319 31.0391 16.1426 31.4142 16.5177C31.7893 16.8927 32 17.4015 32 17.9319V32.9319C32 33.4623 31.7893 33.971 31.4142 34.3461C31.0391 34.7212 30.5304 34.9319 30 34.9319H6C5.46957 34.9319 4.96086 34.7212 4.58579 34.3461C4.21071 33.971 4 33.4623 4 32.9319V17.9319C4 17.4015 4.21071 16.8927 4.58579 16.5177C4.96086 16.1426 5.46957 15.9319 6 15.9319ZM20.5 23.4319C20.5001 23.9184 20.3583 24.3945 20.0918 24.8016C19.8254 25.2087 19.4459 25.5293 19 25.7239V28.9319C19 29.1971 18.8946 29.4515 18.7071 29.639C18.5196 29.8265 18.2652 29.9319 18 29.9319C17.7348 29.9319 17.4804 29.8265 17.2929 29.639C17.1054 29.4515 17 29.1971 17 28.9319V25.7239C16.5869 25.5436 16.2303 25.255 15.9678 24.8887C15.7053 24.5223 15.5467 24.0918 15.5088 23.6427C15.471 23.1936 15.5552 22.7426 15.7526 22.3374C15.9501 21.9323 16.2534 21.5881 16.6304 21.3411C17.0074 21.0942 17.4442 20.9538 17.8945 20.9348C18.3448 20.9158 18.7919 21.0189 19.1884 21.2331C19.5849 21.4473 19.9161 21.7648 20.147 22.1519C20.3779 22.5389 20.4999 22.9812 20.5 23.4319Z" fill="#EA4335"/>
</svg>
