<svg width="36" height="36" viewBox="0 0 36 36" fill="none" xmlns="http://www.w3.org/2000/svg">
<path fill-rule="evenodd" clip-rule="evenodd" d="M4 5C3.46957 5 2.96086 5.21071 2.58579 5.58579C2.21071 5.96086 2 6.46957 2 7V29C2 29.5304 2.21071 30.0391 2.58579 30.4142C2.96086 30.7893 3.46957 31 4 31H32C32.5304 31 33.0391 30.7893 33.4142 30.4142C33.7893 30.0391 34 29.5304 34 29V7C34 6.46957 33.7893 5.96086 33.4142 5.58579C33.0391 5.21071 32.5304 5 32 5H4ZM19.831 11.899C20.44 12.081 20.785 12.722 20.602 13.331L17.602 23.331C17.5143 23.6231 17.3142 23.8685 17.0457 24.0131C16.7771 24.1577 16.4621 24.1897 16.17 24.102C15.8779 24.0143 15.6325 23.8142 15.4879 23.5457C15.3433 23.2771 15.3113 22.9621 15.399 22.67L18.399 12.67C18.4424 12.5253 18.5139 12.3907 18.6093 12.2736C18.7048 12.1566 18.8223 12.0595 18.9553 11.9879C19.0883 11.9163 19.2341 11.8716 19.3843 11.8564C19.5346 11.8411 19.6863 11.8556 19.831 11.899ZM23.687 15.813C23.5766 15.7071 23.4884 15.5801 23.4277 15.4397C23.367 15.2993 23.3349 15.1481 23.3333 14.9951C23.3317 14.8421 23.3607 14.6903 23.4185 14.5486C23.4763 14.407 23.5619 14.2783 23.6701 14.1701C23.7783 14.0619 23.907 13.9763 24.0486 13.9185C24.1903 13.8607 24.3421 13.8317 24.4951 13.8333C24.6481 13.8349 24.7993 13.867 24.9397 13.9277C25.0801 13.9884 25.2071 14.0766 25.313 14.187L28.313 17.187C28.763 17.636 28.763 18.364 28.313 18.813L25.313 21.813C25.0959 22.0213 24.8058 22.1363 24.5049 22.1332C24.204 22.1301 23.9164 22.0092 23.7036 21.7964C23.4908 21.5836 23.3699 21.296 23.3668 20.9951C23.3637 20.6942 23.4787 20.4041 23.687 20.187L25.874 18L23.687 15.813ZM12.312 15.813C12.5276 15.5972 12.6487 15.3047 12.6486 14.9996C12.6485 14.6946 12.5273 14.4021 12.3115 14.1865C12.0957 13.9709 11.8032 13.8498 11.4981 13.8499C11.1931 13.85 10.9006 13.9712 10.685 14.187L7.685 17.187C7.57811 17.2938 7.49332 17.4206 7.43547 17.5602C7.37762 17.6998 7.34785 17.8494 7.34785 18.0005C7.34785 18.1516 7.37762 18.3012 7.43547 18.4408C7.49332 18.5804 7.57811 18.7072 7.685 18.814L10.685 21.814C10.7918 21.9208 10.9187 22.0056 11.0582 22.0634C11.1978 22.1212 11.3474 22.151 11.4985 22.151C11.6496 22.151 11.7992 22.1212 11.9388 22.0634C12.0783 22.0056 12.2052 21.9208 12.312 21.814C12.4188 21.7072 12.5036 21.5803 12.5614 21.4408C12.6192 21.3012 12.649 21.1516 12.649 21.0005C12.649 20.8494 12.6192 20.6998 12.5614 20.5602C12.5036 20.4207 12.4188 20.2938 12.312 20.187L10.125 18L12.312 15.813Z" fill="#00877C"/>
</svg>
