<svg width="80" height="80" viewBox="0 0 80 80" fill="none" xmlns="http://www.w3.org/2000/svg">
<path d="M19.9159 73.5282C19.3412 73.8242 18.6588 73.8242 18.0841 73.5282L11.5 70.1364L5.08408 66.8312C4.41836 66.4882 4 65.8021 4 65.0532L4 48.9468C4 48.1979 4.41836 47.5118 5.08409 47.1688L18.0841 40.4718C18.6588 40.1758 19.3412 40.1758 19.9159 40.4718L32.9159 47.1688C33.5816 47.5118 34 48.1979 34 48.9468L34 57L34 65.0532C34 65.8021 33.5816 66.4882 32.9159 66.8312L19.9159 73.5282Z" stroke="#D1D7E0" stroke-width="2" stroke-linejoin="round"/>
<rect x="13" y="48" width="12" height="7" rx="1" fill="#D6EBFF" stroke="#0073E6" stroke-width="2"/>
<rect x="13" y="59" width="12" height="7" rx="1" stroke="#A7B1BE" stroke-width="2"/>
<path d="M40.9159 40.5282C40.3412 40.8242 39.6588 40.8242 39.0841 40.5282L32.5 37.1364L26.0841 33.8312C25.4184 33.4882 25 32.8021 25 32.0532L25 15.9468C25 15.1979 25.4184 14.5118 26.0841 14.1688L39.0841 7.47184C39.6588 7.17577 40.3412 7.17577 40.9159 7.47184L53.9159 14.1688C54.5816 14.5118 55 15.1979 55 15.9468L55 24L55 32.0532C55 32.8021 54.5816 33.4882 53.9159 33.8312L40.9159 40.5282Z" stroke="#D1D7E0" stroke-width="2" stroke-linejoin="round"/>
<path d="M19 41L19 25C19 24.4477 19.4477 24 20 24L25 24" stroke="#D1D7E0" stroke-width="2"/>
<path d="M61.9159 73.5282C61.3412 73.8242 60.6588 73.8242 60.0841 73.5282L53.5 70.1364L47.0841 66.8312C46.4184 66.4882 46 65.8021 46 65.0532L46 48.9468C46 48.1979 46.4184 47.5118 47.0841 47.1688L60.0841 40.4718C60.6588 40.1758 61.3412 40.1758 61.9159 40.4718L74.9159 47.1688C75.5816 47.5118 76 48.1979 76 48.9468L76 57L76 65.0532C76 65.8021 75.5816 66.4882 74.9159 66.8312L61.9159 73.5282Z" stroke="#D1D7E0" stroke-width="2" stroke-linejoin="round"/>
<rect x="55" y="48" width="12" height="7" rx="1" fill="#D6FFFC" stroke="#00877C" stroke-width="2"/>
<rect x="55" y="59" width="12" height="7" rx="1" stroke="#A7B1BE" stroke-width="2"/>
<path d="M61 41L61 25C61 24.4477 60.5523 24 60 24L55 24" stroke="#D1D7E0" stroke-width="2"/>
<rect x="34" y="15" width="12" height="7" rx="1" fill="#FFF5D6" stroke="#FFBF00" stroke-width="2"/>
<rect x="34" y="26" width="12" height="7" rx="1" fill="#FBDADA" stroke="#EB4748" stroke-width="2" stroke-linejoin="round"/>
<path d="M34 26L46 33" stroke="#EB4748" stroke-width="2" stroke-linejoin="round"/>
</svg>
