<svg width="80" height="80" viewBox="0 0 80 80" fill="none" xmlns="http://www.w3.org/2000/svg">
<path d="M40 52L40 38" stroke="#D1D7E0" stroke-width="2" stroke-linecap="round" stroke-linejoin="round"/>
<path d="M64 38L64 59C64 59.5523 63.5523 60 63 60L55 60" stroke="#D1D7E0" stroke-width="2" stroke-linecap="round" stroke-linejoin="round"/>
<path d="M16 38L16 59C16 59.5523 16.4477 60 17 60L25 60" stroke="#D1D7E0" stroke-width="2" stroke-linecap="round" stroke-linejoin="round"/>
<path d="M64 34H16" stroke="#D1D7E0" stroke-width="2" stroke-linecap="round"/>
<rect width="14" height="34" rx="1" transform="matrix(-4.37114e-08 -1 -1 4.37114e-08 57 67)" fill="#D6EBFF" stroke="#0073E6" stroke-width="2" stroke-linejoin="round"/>
<path d="M30 60H50" stroke="#0073E6" stroke-width="2" stroke-linecap="round" stroke-linejoin="round"/>
<rect x="12" y="30" width="8" height="8" rx="1" fill="white" stroke="#A7B1BE" stroke-width="2"/>
<rect x="12" y="17" width="8" height="8" rx="1" fill="#FFF5D6" stroke="#FFBF00" stroke-width="2" stroke-linejoin="round"/>
<rect x="25" y="12" width="31" height="18" rx="1" transform="rotate(90 25 12)" stroke="#D1D7E0" stroke-width="2" stroke-linecap="round" stroke-linejoin="round"/>
<rect x="36" y="30" width="8" height="8" rx="1" fill="white" stroke="#A7B1BE" stroke-width="2"/>
<rect x="36" y="17" width="8" height="8" rx="1" fill="#FBDADA" stroke="#EB4748" stroke-width="2" stroke-linejoin="round"/>
<rect x="49" y="12" width="31" height="18" rx="1" transform="rotate(90 49 12)" stroke="#D1D7E0" stroke-width="2" stroke-linecap="round" stroke-linejoin="round"/>
<rect x="60" y="30" width="8" height="8" rx="1" fill="white" stroke="#A7B1BE" stroke-width="2"/>
<rect x="60" y="17" width="8" height="8" rx="1" fill="#D6FFFC" stroke="#00877C" stroke-width="2" stroke-linejoin="round"/>
<rect x="73" y="12" width="31" height="18" rx="1" transform="rotate(90 73 12)" stroke="#D1D7E0" stroke-width="2" stroke-linecap="round" stroke-linejoin="round"/>
</svg>
