<svg width="112" height="40" viewBox="0 0 112 40" fill="none" xmlns="http://www.w3.org/2000/svg">
<path d="M76.0058 28.9337C76.0025 28.9358 76.0002 28.9373 76.0002 28.9413C71.229 32.3006 65.5804 35.8295 59.5027 39.5342L59.2629 39.6724C59.1809 39.7288 59.162 39.8419 59.2187 39.9234C59.2756 40.0051 59.389 40.024 59.4712 39.9676L59.6732 39.8608C64.8293 37.1858 70.7492 34.0084 76.707 30.7497C76.7385 30.7308 76.77 30.7119 76.8017 30.6993C76.4735 30.1592 76.202 29.569 76.0126 28.9286C76.0103 28.931 76.0079 28.9325 76.0058 28.9337Z" fill="#141A1F"/>
<path d="M107.316 3.71765C99.7995 -4.53322 51.4245 2.88883 30.8564 7.35959L30.3769 7.46004C30.2757 7.47887 30.2128 7.57311 30.2315 7.66732C30.2505 7.76776 30.3452 7.83056 30.4398 7.81168L30.9131 7.71751C47.9534 4.6972 83.3967 0.515265 91.0207 8.03777C93.3494 10.3359 92.7941 13.2872 90.0928 16.7784C91.5443 17.7077 92.5796 19.1708 93.0467 20.998C103.586 14.0407 110.661 7.39102 107.316 3.71765Z" fill="#141A1F"/>
<path fill-rule="evenodd" clip-rule="evenodd" d="M76.5923 26.6054C76.422 21.6512 80.3222 16.5838 85.9895 16.5838C89.7628 16.5838 92.2389 19.0776 92.3939 22.9035C93.434 22.6944 95.0572 22.2367 96.2009 21.8268C96.0312 22.4176 95.8538 23.2163 95.6715 24.0369C95.6233 24.2543 95.5746 24.4731 95.5257 24.6901L95.0966 26.5802H95.1471C98.536 22.7059 100.133 21.8268 101.338 21.8268C102.051 21.8268 102.512 22.1973 102.544 22.9884C102.55 23.3903 102.405 24.1376 102.089 25.3054L100.922 29.5377C100.795 29.9585 100.619 30.5926 100.638 31.0134C100.644 31.3397 100.833 31.4716 101.029 31.4716C101.624 31.4716 102.374 30.3828 102.739 29.8075C102.73 29.7134 102.724 29.6172 102.721 29.519C102.575 25.5316 106.331 21.8333 109.404 21.8333C110.723 21.8333 111.947 22.4046 111.998 23.8175C112.112 26.9884 107.637 27.9553 104.69 28.0244C104.595 28.3574 104.557 28.6902 104.576 29.1924C104.627 30.5048 105.422 31.6099 107.075 31.6099C108.502 31.6099 109.928 30.467 110.654 29.3433L111.013 29.588C110.098 31.4404 108.236 32.9285 106.053 32.9285C104.541 32.9285 103.255 32.0779 102.85 30.4681C102.047 31.7284 101.121 32.9222 99.8803 32.9222C99.1609 32.9222 98.6814 32.5705 98.6496 31.7793C98.6307 31.2582 98.8075 30.5236 99.0473 29.7134L100.095 26.1029C100.215 25.7261 100.575 24.4264 100.556 23.8551C100.537 23.4594 100.309 23.2836 99.9749 23.2836C99.2366 23.2836 98.0249 24.3449 94.8883 27.5974L93.8595 32.5516H92.0294C92.3069 31.4905 92.6161 30.153 92.9066 28.872L93.6197 25.745C93.6343 25.6819 93.6594 25.5781 93.6902 25.4504C93.8186 24.9176 94.0476 23.9681 94.0426 23.8111C94.0236 23.4783 93.7081 23.4155 93.3737 23.4155C93.1693 23.4155 92.717 23.4638 92.4004 23.5058C92.3135 28.5075 88.7177 32.9663 83.0045 32.9663C79.2052 32.9663 76.725 30.4608 76.5923 26.6054ZM79.0536 26.7625C79.1483 29.6633 80.9976 32.0431 83.4021 32.0431C88.0659 32.0431 90.0541 26.3418 89.9152 22.5365C89.8143 19.6292 87.9208 17.2557 85.5162 17.2557C81.5086 17.2495 78.9147 22.9258 79.0536 26.7625ZM110.25 23.6165C110.224 22.8693 109.846 22.3607 109.07 22.3607C107.195 22.3607 105.201 26.0152 104.86 27.4847C107.934 27.4909 110.325 25.6698 110.25 23.6165Z" fill="#141A1F"/>
<path fill-rule="evenodd" clip-rule="evenodd" d="M27.8406 22.2539C27.8246 22.6334 27.7644 22.9775 27.6745 23.4905C27.6573 23.5886 27.639 23.6929 27.6198 23.8049L26.7865 28.4578C26.7171 28.8721 26.8687 29.1924 27.2536 29.4186L27.2284 29.6005L22.4572 29.5943L22.4129 28.4138C21.7188 28.8283 20.8794 29.18 20.122 29.3872C19.3647 29.5818 18.7525 29.6633 17.8374 29.6633C16.2975 29.6633 15.414 29.5065 14.8018 28.9727C14.1832 28.4265 13.8803 28.0622 13.9119 27.3087C13.9371 26.8756 14.1643 26.3167 14.4862 25.9273C14.8143 25.5316 15.2688 25.2742 15.7547 25.0421C16.247 24.8097 16.8277 24.64 17.667 24.5083C18.5127 24.3701 19.6866 24.2382 21.2581 24.1062C22.0848 24.0371 22.5897 23.849 22.8232 23.7547C23.1514 23.6291 23.2839 23.4847 23.3281 23.2209C23.4165 22.7437 23.265 22.4674 22.6213 22.3418C20.9046 22.0027 17.6796 22.5616 16.0198 22.9698L16.9223 20.546C19.1123 20.2257 21.1634 20.0248 23.3281 20.0248C26.7803 20.0248 27.8785 20.9981 27.8406 22.2539ZM22.9178 25.2993C22.716 25.3746 22.4572 25.4501 22.129 25.5192C21.8071 25.5945 21.2139 25.6949 20.3556 25.8331C19.7623 25.9273 19.352 26.0465 19.1185 26.216C18.8977 26.3793 18.7652 26.5741 18.7273 26.8189C18.6831 27.0764 18.7651 27.2772 18.986 27.4407C19.2132 27.5975 19.5919 27.6792 20.1284 27.6792C20.5322 27.6792 20.9236 27.6164 21.3022 27.4909C21.6872 27.3651 22.0154 27.1957 22.2615 26.9822C22.4445 26.8251 22.5771 26.6243 22.678 26.3793C22.7411 26.216 22.8231 25.8582 22.9178 25.2993Z" fill="#141A1F"/>
<path d="M41.6745 29.5943L43.3282 20.2948H47.8973L46.2438 29.5943H41.6745Z" fill="#141A1F"/>
<path d="M43.5805 18.1411C43.7194 17.375 44.9313 16.7596 46.2818 16.7596C47.6386 16.7596 48.6294 17.3813 48.497 18.1411C48.3519 18.9072 47.1463 19.5288 45.7833 19.5288C44.4325 19.5288 43.4481 18.9071 43.5805 18.1411Z" fill="#141A1F"/>
<path fill-rule="evenodd" clip-rule="evenodd" d="M69.0442 22.2665C69.0272 22.6759 68.9601 23.0402 68.8559 23.6054L68.8169 23.8175L67.9901 28.4767C67.9207 28.8848 68.0723 29.2113 68.4572 29.4374L68.432 29.6005L63.6608 29.6069L63.6229 28.4201C62.9287 28.8408 62.083 29.1924 61.3319 29.3934C60.5746 29.5943 59.9624 29.676 59.0348 29.676C57.4947 29.676 56.6175 29.5252 56.0053 28.9852C55.3806 28.4327 55.0839 28.0746 55.1156 27.3211C55.1343 26.8818 55.3616 26.3229 55.6898 25.9399C56.018 25.5381 56.4724 25.2869 56.9647 25.0545C57.457 24.8221 58.0377 24.6527 58.8707 24.5145C59.7164 24.3825 60.8966 24.2444 62.4679 24.1127C63.2884 24.0436 63.7932 23.8614 64.0267 23.7672C64.3614 23.6416 64.4876 23.4972 64.538 23.2272C64.6202 22.7562 64.4748 22.48 63.8374 22.3481C62.1082 22.0091 58.8959 22.5679 57.2359 22.9761L58.1321 20.5523C60.3286 20.232 62.3733 20.0311 64.538 20.0311C67.9777 20.0374 69.0757 21.017 69.0442 22.2665ZM64.1214 25.3182C63.9131 25.3873 63.6481 25.4626 63.3264 25.5381C63.0209 25.6095 62.4714 25.698 61.683 25.8248L61.553 25.8457C60.9658 25.9399 60.5494 26.0592 60.3221 26.2287C60.1013 26.3858 59.9752 26.5866 59.9245 26.8251C59.874 27.0826 59.9687 27.2898 60.1832 27.4469C60.4168 27.6039 60.7954 27.6792 61.3319 27.6792C61.7296 27.6792 62.121 27.6226 62.5059 27.5033C62.8973 27.3716 63.219 27.2083 63.4715 26.9946C63.6481 26.8378 63.7807 26.6305 63.8754 26.392C63.9386 26.2349 64.0205 25.8771 64.1214 25.3182Z" fill="#141A1F"/>
<path d="M13.2934 26.2538C11.8039 26.5488 10.9709 26.6619 9.50038 26.6619C7.31674 26.6619 5.58114 25.5818 5.67585 23.604C5.74529 22.2853 7.31042 19.51 11.2928 19.51C12.5487 19.51 13.5269 19.7297 14.8459 20.4769L15.4265 17.2495C13.6342 16.5775 12.4477 16.4771 10.9078 16.4897C5.68213 16.5462 0.671048 18.9072 0.0462632 23.7107C-0.584853 28.5898 5.4044 29.8142 8.06149 29.8015C9.59502 29.7953 11.1917 29.7324 12.6812 29.5818L13.2934 26.2538Z" fill="#141A1F"/>
<path d="M50.4155 20.2446L50.7437 18.3483L55.5214 17.3123L55.0101 20.2383H57.3515L56.9096 22.1095L54.6377 22.1033L53.2557 29.5818C53.2557 29.5818 48.6549 29.5503 48.6359 29.5818L50.0117 22.1221H48.2825L48.6359 20.2383H50.4155V20.2446Z" fill="#141A1F"/>
<path d="M69.0336 29.594L71.375 16.6213L75.9066 16.7468L73.6851 29.5878L69.0336 29.594Z" fill="#141A1F"/>
<path fill-rule="evenodd" clip-rule="evenodd" d="M27.3106 32.803L29.5383 20.345H33.5521L33.2429 21.9337C33.5901 21.4564 34.1453 21.0671 34.9154 20.7531C35.6917 20.4392 36.5626 20.2069 37.5093 20.2069C38.5568 20.2069 39.2007 20.2634 39.9833 20.6652C40.7596 21.0734 41.3086 21.6637 41.5988 22.4297C41.9018 23.1832 41.965 24.0371 41.8009 24.9603C41.5294 26.4986 40.7786 27.7043 39.5414 28.5957C38.3171 29.4876 37.2126 29.7198 35.6412 29.7262C35.0857 29.7262 34.6187 29.6696 34.2338 29.5754C33.8551 29.475 33.5521 29.3557 33.3248 29.2113C33.104 29.0669 32.8705 28.8597 32.574 28.5331L31.8292 32.803H27.3106ZM35.6285 22.4737C35.029 22.4737 34.4863 22.6558 34.0065 23.0137C33.5269 23.3779 33.2239 23.9054 33.104 24.6025C32.9589 25.4124 33.0473 25.9963 33.3691 26.3542C33.6973 26.7121 34.1643 26.8942 34.7828 26.8942C35.1994 26.8942 35.6285 26.8189 35.9442 26.6619C36.3354 26.4546 36.6069 26.2411 36.8404 25.8959C37.0927 25.5381 37.2568 25.136 37.3452 24.6715C37.4778 23.9367 37.3642 23.3905 37.0232 23.0263C36.6888 22.6621 36.2282 22.4737 35.6285 22.4737Z" fill="#141A1F"/>
</svg>
