<svg width="136" height="36" viewBox="0 0 136 36" fill="none" xmlns="http://www.w3.org/2000/svg">
<path d="M16.5977 10.9564C16.8369 10.7278 15.4013 10.42 14.2848 11.1938C13.4607 11.7566 13.4341 12.9788 14.2228 13.6647C14.3025 13.7351 14.3645 13.779 14.4266 13.823C14.657 13.7175 14.9228 13.6032 15.2241 13.5064C15.7381 13.3394 16.1634 13.2514 16.509 13.2075C16.6774 13.0228 16.8724 12.6887 16.8192 12.0907C16.7483 11.2729 16.1369 11.3961 16.5977 10.9564ZM24.1565 15.3794C24.0237 15.3003 23.3856 15.3354 22.9337 15.3882C22.083 15.4937 21.1614 15.7927 20.9575 15.951C20.5942 16.2411 20.7538 16.7336 21.0284 16.9446C21.7906 17.5162 22.4551 17.9031 23.164 17.8063C23.5982 17.7448 23.9792 17.0589 24.2451 16.4346C24.4313 15.9949 24.4313 15.5289 24.1565 15.3794ZM21.241 10.2881C21.188 10.4024 21.1171 10.4728 21.2323 10.8421L21.241 10.8597L21.2589 10.9036L21.3032 11.018C21.5158 11.4488 21.7374 11.8533 22.1273 12.0643C22.2248 12.0468 22.331 12.038 22.4374 12.0292C22.8007 12.0116 23.0223 12.0731 23.173 12.1523C23.1817 12.0819 23.1906 11.9764 23.1817 11.8181C23.1551 11.2729 23.2881 10.3409 22.2514 9.85723C21.8614 9.67258 21.3032 9.73413 21.1259 9.96275C21.1614 9.96275 21.188 9.97156 21.2146 9.98034C21.4804 10.0683 21.2942 10.165 21.241 10.2881ZM31.9546 17.7624L31.0596 17.9382L29.3405 0L0 3.42936L3.6155 32.9922L7.04492 32.491C6.77021 32.0954 6.34486 31.6206 5.61822 31.005C4.60801 30.1608 4.96246 28.7187 5.56505 27.8131C6.35372 26.2743 10.4212 24.331 10.1908 21.8777C10.111 20.9896 9.96923 19.8288 9.1451 19.0286C9.11852 19.3627 9.17169 19.6793 9.17169 19.6793C9.17169 19.6793 8.83495 19.2484 8.66659 18.6505C8.49821 18.4219 8.36529 18.3515 8.18806 18.0438C8.06399 18.3955 8.08172 18.8 8.08172 18.8C8.08172 18.8 7.80701 18.1405 7.76271 17.5865C7.60319 17.8327 7.5589 18.3076 7.5589 18.3076C7.5589 18.3076 7.20443 17.27 7.28418 16.716C7.12468 16.2323 6.63729 15.2651 6.77021 13.0756C7.66523 13.7087 9.63249 13.5592 10.4034 12.4161C10.6604 12.038 10.8288 11.0092 10.2794 8.97791C9.92491 7.67651 9.03877 5.7332 8.69317 4.99458L8.64886 5.02096C8.82609 5.61011 9.20714 6.85873 9.34892 7.45669C9.78314 9.28568 9.89833 9.9188 9.69451 10.763C9.5173 11.4928 9.10081 11.9764 8.04628 12.5128C6.99176 13.0492 5.58276 11.739 5.49416 11.6687C4.46621 10.8421 3.66867 9.49671 3.58007 8.83721C3.49144 8.12498 3.9877 7.6941 4.24467 7.10495C3.88135 7.21047 3.48258 7.39512 3.48258 7.39512C3.48258 7.39512 3.9611 6.89392 4.55482 6.45424C4.80295 6.28718 4.94475 6.19045 5.20173 5.97063C4.82954 5.96182 4.51938 5.97063 4.51938 5.97063C4.51938 5.97063 5.14854 5.62768 5.79543 5.38148C5.31692 5.36389 4.86497 5.38148 4.86497 5.38148C4.86497 5.38148 6.26511 4.74836 7.36393 4.29111C8.12603 3.97456 8.86153 4.07129 9.27802 4.67801C9.82745 5.4694 10.3946 5.90906 11.6175 6.17287C12.3618 5.83871 12.5923 5.67165 13.5316 5.40786C14.3557 4.49335 15.0026 4.37024 15.0026 4.37024C15.0026 4.37024 14.6836 4.66922 14.5949 5.13526C15.0646 4.76595 15.5786 4.44938 15.5786 4.44938C15.5786 4.44938 15.3836 4.6956 15.1975 5.09129L15.2418 5.15285C15.7913 4.81871 16.4293 4.5637 16.4293 4.5637C16.4293 4.5637 16.2432 4.80112 16.0305 5.10009C16.4382 5.10009 17.28 5.11767 17.599 5.15285C19.5132 5.19681 19.9118 3.09522 20.6474 2.83143C21.569 2.49728 21.9766 2.30384 23.545 3.85145C24.8921 5.18802 25.9378 7.57099 25.4238 8.0986C24.9896 8.53825 24.1212 7.92273 23.164 6.72684C22.659 6.09372 22.278 5.33751 22.1007 4.37905C21.95 3.57006 21.3651 3.10402 21.3651 3.10402C21.3651 3.10402 21.7018 3.86904 21.7018 4.54611C21.7018 4.91542 21.7463 6.29597 22.331 7.06979C22.269 7.18409 22.2424 7.63254 22.1805 7.71169C21.4981 6.87633 20.0272 6.28718 19.7877 6.11131C20.5942 6.7796 22.4551 8.31842 23.173 9.7869C23.8464 11.1762 23.4475 12.4512 23.7932 12.7854C23.8907 12.8821 25.2465 14.5792 25.5036 15.441C25.9555 16.9358 25.53 18.501 24.9364 19.4683L23.2705 19.7321C23.0312 19.6617 22.8629 19.6265 22.6413 19.5034C22.7654 19.2924 23.0046 18.756 23.0046 18.6417L22.9071 18.4746C22.3931 19.2133 21.5247 19.9344 20.7981 20.3475C19.8588 20.884 18.7687 20.8048 18.0598 20.5849C16.0483 19.9606 14.1519 18.5889 13.6999 18.2372C13.6999 18.2372 13.6822 18.5274 13.7708 18.5889C14.2759 19.1605 15.4368 20.2069 16.5622 20.9279L14.1696 21.1917L15.3039 30.0641C14.8076 30.1344 14.7279 30.1697 14.1785 30.2489C13.6911 28.5253 12.7695 27.3998 11.7593 26.7491C10.8642 26.1687 9.64134 26.0455 8.46277 26.2743L8.39188 26.3621C9.20714 26.2743 10.173 26.3974 11.1655 27.0304C12.1403 27.6547 12.9201 29.2552 13.2126 30.2225C13.5847 31.4534 13.8417 32.7725 12.8404 34.1705C12.1314 35.1642 10.0667 35.7093 8.39188 34.5224C8.83495 35.2434 9.43755 35.8413 10.2528 35.9469C11.458 36.114 12.6011 35.9028 13.3898 35.085C14.0633 34.3904 14.4177 32.9307 14.3203 31.4008L15.3836 31.2424L15.7647 33.9948L33.3813 31.858L31.9546 17.7624ZM15.0912 21.8337L17.3066 21.5258C17.661 21.6842 17.918 21.7545 18.3434 21.8599C19.0168 22.0359 19.7877 22.2029 20.9398 21.6226C21.2057 21.4908 21.764 20.9807 21.9855 20.6817L31.0686 19.0198L31.9902 30.3192L16.4381 33.1417L15.0912 21.8337ZM27.976 25.5883L24.9983 23.61L22.5172 27.7867L19.6283 26.9337L17.0851 30.8468L17.218 32.0779L31.033 29.5101L30.2355 20.8048L27.976 25.5883ZM133.373 17.2142V20.5435C132.764 20.6948 132.231 20.7894 131.755 20.7894C128.538 20.7894 126.939 19.0869 126.939 15.6631C126.939 12.5042 128.633 10.9341 132.04 10.9341C133.468 10.9341 134.782 11.199 136 11.7286V9.34522C134.782 8.87232 133.392 8.64533 131.831 8.64533C126.748 8.64533 124.198 10.9909 124.198 15.6631C124.198 20.6001 126.691 23.0781 131.698 23.0781C133.411 23.0781 134.858 22.8323 136 22.3214V14.8686H131.755L130.86 17.2142H133.373ZM115.403 20.7705C118.258 20.7705 119.686 19.1247 119.686 15.8144C119.686 12.5609 118.258 10.9152 115.403 10.9152C112.471 10.9152 111.005 12.542 111.005 15.8144C111.024 19.1247 112.471 20.7705 115.403 20.7705ZM108.283 15.8712C108.283 11.0477 110.663 8.62641 115.403 8.62641C120.067 8.62641 122.408 11.0477 122.408 15.8712C122.408 20.6759 120.067 23.0781 115.403 23.0781C110.872 23.0592 108.493 20.6759 108.283 15.8712ZM96.3474 20.6759H99.4694C102.401 20.6759 103.886 18.9356 103.886 15.455C103.886 12.4853 102.42 11.0098 99.4694 11.0098H96.3474V20.6759ZM99.8692 22.9646H93.7203V8.73991H99.8692C104.305 8.73991 106.513 10.9909 106.513 15.4739C106.513 20.4678 104.305 22.9646 99.8692 22.9646ZM79.6906 22.9646H76.9875L83.003 8.73991H85.8202L91.9691 22.9646H89.1517L87.3623 19.0869H82.8315L83.7263 16.7981H86.677L84.3545 11.4449L79.6906 22.9646ZM67.5835 8.73991H78.339V11.0287H74.2842V22.9646H71.6573V11.0287H67.5835V8.73991ZM56.771 22.9646H54.0677L60.0832 8.73991H62.9007L69.0494 22.9646H66.251L64.4615 19.0869H59.912L60.8066 16.7981H63.7572L61.4538 11.4449L56.771 22.9646ZM43.8643 20.6759H46.9862C49.9368 20.6759 51.4027 18.9356 51.4027 15.455C51.4027 12.4853 49.9368 11.0098 46.9862 11.0098H43.8643V20.6759ZM47.386 22.9646H41.2373V8.73991H47.386C51.8214 8.73991 54.0297 10.9909 54.0297 15.4739C54.0297 20.4678 51.8024 22.9646 47.386 22.9646Z" fill="#141A1F"/>
</svg>
