<svg width="586" height="386" viewBox="0 0 586 386" fill="none" xmlns="http://www.w3.org/2000/svg">
<path d="M165 65L69 161L165 257L261 161L165 65Z" stroke="#EB4748" stroke-width="2" stroke-linecap="round" stroke-linejoin="round" stroke-dasharray="0.01 10"/>
<path d="M69 7C69 3.68629 71.6863 1 75 1H133V65H69V7Z" stroke="#E0E5EB" stroke-width="2"/>
<path d="M5 71C5 67.6863 7.68629 65 11 65H69V129H5V71Z" stroke="#E0E5EB" stroke-width="2"/>
<path d="M5 129H69V193H11C7.68629 193 5 190.314 5 187V129Z" stroke="#E0E5EB" stroke-width="2"/>
<path d="M133 257H197V321H139C135.686 321 133 318.314 133 315V257Z" stroke="#E0E5EB" stroke-width="2"/>
<rect x="389" y="257" width="64" height="64" stroke="#E0E5EB" stroke-width="2"/>
<path d="M389 321H453V379C453 382.314 450.314 385 447 385H389V321Z" stroke="#E0E5EB" stroke-width="2"/>
<path d="M453 257H517V315C517 318.314 514.314 321 511 321H453V257Z" stroke="#E0E5EB" stroke-width="2"/>
<rect x="261" y="193" width="64" height="64" stroke="#E0E5EB" stroke-width="2"/>
<rect x="197" y="257" width="64" height="64" stroke="#E0E5EB" stroke-width="2"/>
<rect x="325" y="193" width="64" height="64" stroke="#E0E5EB" stroke-width="2"/>
<path d="M389 71C389 67.6863 391.686 65 395 65H453V129H389V71Z" stroke="#E0E5EB" stroke-width="2"/>
<path d="M453 65H511C514.314 65 517 67.6863 517 71V129H453V65Z" stroke="#E0E5EB" stroke-width="2"/>
<path d="M517 129H575C578.314 129 581 131.686 581 135V193H517V129Z" stroke="#E0E5EB" stroke-width="2"/>
<path d="M517 193H581V251C581 254.314 578.314 257 575 257H517V193Z" stroke="#E0E5EB" stroke-width="2"/>
<path d="M325 135C325 131.686 327.686 129 331 129H389V193H325V135Z" stroke="#E0E5EB" stroke-width="2"/>
<path d="M133 1H191C194.314 1 197 3.68629 197 7V65H133V1Z" stroke="#E0E5EB" stroke-width="2"/>
<path d="M69 65H255C258.314 65 261 67.6863 261 71V257H75C71.6863 257 69 254.314 69 251V65Z" stroke="#0080FF" stroke-width="2"/>
<path d="M261 257H389V385H267C263.686 385 261 382.314 261 379V257Z" stroke="#0080FF" stroke-width="2"/>
<path d="M389 193C389 157.654 417.654 129 453 129V129C488.346 129 517 157.654 517 193V193C517 228.346 488.346 257 453 257V257C417.654 257 389 228.346 389 193V193Z" stroke="#FFBF00" stroke-width="2"/>
<path fill-rule="evenodd" clip-rule="evenodd" d="M461.215 161.166C461.957 161.547 462.25 162.457 461.871 163.199C461.121 164.665 460.716 166.768 460.561 168.93C460.408 171.063 460.51 173.082 460.667 174.27C460.776 175.098 460.195 175.856 459.369 175.965C458.543 176.074 457.785 175.492 457.676 174.665C457.492 173.268 457.385 171.044 457.552 168.713C457.717 166.41 458.161 163.827 459.185 161.822C459.565 161.08 460.474 160.786 461.215 161.166Z" fill="#141A1F"/>
<path fill-rule="evenodd" clip-rule="evenodd" d="M448.406 178.115C452.07 170.203 460.983 172.143 465.192 174.993L453.625 192.131L452.297 191.232C450.612 193.19 447.169 194.672 445.658 195.168C445.812 197.369 447.655 199.066 448.558 199.639L444.758 205.269C440.322 202.266 439.027 197.97 438.933 196.197L437.287 196.108C434.38 202.708 438.938 207.823 441.75 209.727L436.841 217L437.695 210.171C432.162 205.422 433.151 198.245 434.338 195.251C430.526 194.492 423.91 188.953 425.153 184.245C427.317 176.048 441.517 176.184 448.406 178.115ZM452.473 185.053C453.334 180.768 444.158 180.069 439.453 180.255C436.461 180.32 434.152 180.669 432.427 181.216C433.195 183.605 434.975 184.793 435.84 185.101C441.296 183.859 448.381 184.432 452.473 185.053ZM452.129 186.185C449.275 185.813 445.023 185.718 442.816 185.723C439.82 187.772 439.436 191.227 439.691 193.395C443.749 193.465 450.326 190.633 452.129 186.185ZM438.323 193.257C437.775 190.115 439.537 187.151 440.619 185.945C435.071 186.157 431.573 187.733 429.864 188.971C431.693 190.975 434.832 192.687 438.323 193.257ZM428.893 187.675C430.264 186.836 432.721 186.063 434.059 185.718C432.126 184.27 431.281 182.759 430.983 181.781C427.959 183.236 427.617 185.515 428.893 187.675Z" fill="#141A1F"/>
<path fill-rule="evenodd" clip-rule="evenodd" d="M479.482 173.535C478.853 172.987 477.901 173.054 477.354 173.683C476.275 174.926 474.478 176.086 472.533 177.036C470.614 177.973 468.705 178.631 467.546 178.928C466.739 179.135 466.253 179.957 466.46 180.766C466.666 181.574 467.488 182.061 468.295 181.854C469.658 181.505 471.758 180.775 473.856 179.751C475.927 178.74 478.155 177.365 479.63 175.666C480.177 175.036 480.11 174.082 479.482 173.535Z" fill="#141A1F"/>
<path fill-rule="evenodd" clip-rule="evenodd" d="M468.556 191.759C474.521 185.405 469.402 177.843 465.193 174.993L453.626 192.132L454.954 193.031C453.768 195.327 453.678 199.079 453.782 200.669C451.686 201.346 449.427 200.264 448.56 199.639L444.76 205.27C449.195 208.273 453.658 207.877 455.334 207.303L456.031 208.8C451 213.962 444.563 211.631 441.751 209.727L436.843 217L442.85 213.662C449.313 217.035 455.592 213.441 457.924 211.222C460.047 214.483 467.644 218.568 471.542 215.658C478.33 210.592 472.912 197.443 468.556 191.759ZM460.613 190.565C464.261 188.167 468.329 196.436 469.91 200.88C470.965 203.684 471.501 205.961 471.638 207.769C469.139 207.945 467.375 206.732 466.767 206.044C465.885 200.509 462.714 194.137 460.613 190.565ZM459.693 191.306C461.1 193.821 462.774 197.738 463.591 199.791C462.809 203.339 459.752 204.984 457.648 205.555C456.071 201.809 456.244 194.64 459.693 191.306ZM458.286 206.775C461.4 206.113 463.49 203.371 464.205 201.916C466.076 207.152 465.918 210.991 465.408 213.04C462.871 212.088 460.115 209.807 458.286 206.775ZM466.971 213.461C467.238 211.873 467.038 209.301 466.859 207.929C468.921 209.187 470.636 209.408 471.653 209.321C471.431 212.674 469.448 213.842 466.971 213.461Z" fill="#141A1F"/>
<path d="M160.649 189L155.955 180.655L160.649 172.311L170.354 172.311L175.048 180.655L170.354 189H160.649Z" fill="#141A1F"/>
<path d="M177.601 179.172L172.907 170.828L177.601 162.483L187.307 162.483L192 170.828L187.307 179.172H177.601Z" fill="#141A1F"/>
<path d="M160.649 169.344L155.955 160.999L160.649 152.655L170.354 152.655L175.048 160.999L170.354 169.344H160.649Z" fill="#141A1F"/>
<path d="M143.694 179.172L139 170.828L143.694 162.483L153.399 162.483L158.093 170.828L153.399 179.172H143.694Z" fill="#141A1F"/>
<path d="M143.694 159.517L139 151.172L143.694 142.828L153.399 142.828L158.093 151.172L153.399 159.517H143.694Z" fill="#141A1F"/>
<path d="M160.649 149.689L155.955 141.344L160.649 133L170.354 133L175.048 141.344L170.354 149.689H160.649Z" fill="#141A1F"/>
<path d="M177.601 159.517L172.907 151.172L177.601 142.828L187.307 142.828L192 151.172L187.307 159.517H177.601Z" fill="#141A1F"/>
<path fill-rule="evenodd" clip-rule="evenodd" d="M346.687 303.004C347.679 303.534 348.474 304.395 348.804 305.455L353.834 327.118C353.966 328.244 353.701 329.37 353.039 330.298L339.077 347.589C338.349 348.582 337.224 349.112 336.033 348.98H313.799C312.674 348.914 311.549 348.384 310.755 347.589L296.792 330.298C296.131 329.37 295.866 328.244 296.064 327.118L301.027 305.322C301.292 304.196 302.02 303.335 303.013 302.871L323.195 293.132C323.725 293 324.32 293 324.85 293C325.379 293 325.975 293.066 326.504 293.331L346.687 303.004ZM345.562 326.19C345.562 326.257 345.629 326.257 345.695 326.257C346.29 326.389 346.82 326.919 346.886 327.648C346.687 328.178 346.158 328.575 345.562 328.575C345.43 328.575 345.364 328.575 345.231 328.509C345.165 328.443 345.165 328.443 345.099 328.443C345.022 328.443 344.967 328.42 344.921 328.401C344.889 328.388 344.862 328.377 344.834 328.377C344.638 328.328 344.478 328.242 344.301 328.147C344.239 328.114 344.175 328.08 344.107 328.045C343.974 328.045 343.842 327.979 343.71 327.913H343.643C342.982 327.648 342.254 327.449 341.526 327.317H341.46C341.261 327.317 341.063 327.383 340.93 327.515C340.93 327.515 340.93 327.582 340.864 327.582L340.335 327.515C339.144 331.292 336.563 334.472 333.188 336.525L333.387 337.055C333.387 337.055 333.32 337.055 333.32 337.121C333.188 337.32 333.188 337.585 333.254 337.784C333.519 338.446 333.85 339.109 334.313 339.705V339.838C334.445 339.97 334.511 340.036 334.578 340.169C334.776 340.368 334.908 340.566 335.041 340.831C335.107 340.898 335.173 340.964 335.173 341.03C335.173 341.03 335.239 341.03 335.239 341.096C335.372 341.428 335.372 341.759 335.306 342.09C335.239 342.421 334.975 342.686 334.71 342.819C334.669 342.833 334.63 342.846 334.593 342.86C334.453 342.91 334.338 342.951 334.181 342.951C333.651 342.951 333.188 342.62 332.923 342.156C332.857 342.156 332.857 342.09 332.857 342.09C332.824 342.057 332.807 342.024 332.791 341.991C332.774 341.958 332.758 341.924 332.725 341.891C332.592 341.693 332.526 341.428 332.46 341.163L332.328 340.765V340.699C332.129 339.97 331.798 339.308 331.468 338.645L331.467 338.645C331.335 338.446 331.137 338.314 330.938 338.248C330.938 338.181 330.938 338.181 330.872 338.181L330.607 337.718C330.439 337.768 330.266 337.823 330.09 337.879C329.575 338.043 329.032 338.215 328.49 338.314C327.299 338.645 326.107 338.778 324.916 338.778C322.931 338.778 321.012 338.446 319.159 337.718L318.895 338.248C318.895 338.281 318.895 338.297 318.886 338.306C318.878 338.314 318.861 338.314 318.828 338.314C318.63 338.38 318.431 338.513 318.299 338.711C317.968 339.374 317.637 340.036 317.439 340.765L317.306 341.163C317.273 341.295 317.224 341.411 317.174 341.527C317.124 341.643 317.075 341.759 317.042 341.891C316.976 341.958 316.909 342.024 316.909 342.09C316.843 342.09 316.843 342.156 316.843 342.156C316.579 342.62 316.115 342.951 315.586 342.951C315.454 342.951 315.255 342.885 315.123 342.819C314.527 342.488 314.262 341.693 314.593 341.03C314.66 341.03 314.66 340.964 314.66 340.964C314.693 340.931 314.709 340.898 314.726 340.864C314.742 340.831 314.759 340.798 314.792 340.765C314.879 340.649 314.953 340.533 315.02 340.428C315.106 340.293 315.181 340.177 315.255 340.103C315.387 339.97 315.454 339.904 315.52 339.771V339.705C315.917 339.109 316.314 338.446 316.579 337.784C316.645 337.585 316.645 337.32 316.512 337.121C316.512 337.121 316.446 337.121 316.446 337.055L316.777 336.591C316.115 336.26 315.586 335.863 314.99 335.399C312.41 333.412 310.557 330.695 309.564 327.648L308.969 327.714C308.969 327.714 308.969 327.648 308.902 327.648C308.77 327.515 308.572 327.449 308.373 327.449H308.307C307.513 327.582 306.851 327.78 306.123 328.045H306.057C305.925 328.045 305.792 328.112 305.66 328.178C305.586 328.203 305.503 328.236 305.414 328.273C305.264 328.334 305.098 328.401 304.932 328.443C304.912 328.443 304.88 328.437 304.845 328.43C304.764 328.415 304.667 328.397 304.667 328.443C304.667 328.476 304.667 328.493 304.659 328.501C304.651 328.509 304.634 328.509 304.601 328.509C304.469 328.575 304.403 328.575 304.27 328.575C303.675 328.642 303.079 328.244 302.947 327.648C302.815 326.919 303.278 326.257 304.006 326.124C304.044 326.086 304.06 326.07 304.079 326.063C304.094 326.058 304.11 326.058 304.138 326.058C304.216 326.058 304.27 326.035 304.316 326.016C304.348 326.003 304.375 325.992 304.403 325.992C304.535 325.992 304.667 325.975 304.8 325.959C304.932 325.942 305.064 325.925 305.197 325.925C305.329 325.859 305.461 325.859 305.594 325.859C306.388 325.793 307.116 325.66 307.844 325.462C308.042 325.329 308.241 325.197 308.307 324.998C308.307 324.998 308.373 324.998 308.373 324.932L308.902 324.799C308.307 321.023 309.167 317.181 311.219 313.934C311.252 313.868 311.285 313.819 311.318 313.769C311.351 313.719 311.384 313.67 311.417 313.603L311.033 313.219C311.063 313.028 310.942 312.797 310.821 312.676C310.292 312.146 309.63 311.748 308.969 311.351L308.969 311.351L308.572 311.152L308.572 311.152C308.307 311.02 308.042 310.887 307.844 310.755C307.778 310.755 307.645 310.622 307.645 310.622C307.645 310.622 307.645 310.556 307.579 310.556C307.05 310.092 306.917 309.297 307.314 308.701C307.513 308.37 307.844 308.237 308.241 308.237C308.572 308.237 308.902 308.37 309.167 308.568L309.233 308.635C309.266 308.668 309.299 308.684 309.333 308.701C309.366 308.717 309.399 308.734 309.432 308.767C309.531 308.866 309.614 308.966 309.697 309.065C309.779 309.165 309.862 309.264 309.961 309.363C309.981 309.383 310.007 309.403 310.036 309.425C310.101 309.476 310.18 309.536 310.226 309.628C310.689 310.158 311.285 310.688 311.88 311.152L311.88 311.152C312.013 311.218 312.145 311.285 312.277 311.285C312.355 311.285 312.41 311.262 312.455 311.243C312.487 311.23 312.515 311.218 312.542 311.218H312.608L313.005 311.483C315.189 309.165 318.034 307.508 321.144 306.846C321.259 306.827 321.372 306.808 321.484 306.789C322.149 306.677 322.772 306.571 323.394 306.515L323.461 305.985V305.852C323.659 305.72 323.725 305.521 323.791 305.322C323.791 304.527 323.791 303.798 323.659 303.07V303.004C323.659 302.871 323.659 302.739 323.593 302.606C323.527 302.341 323.461 302.076 323.461 301.811V301.48C323.461 301.149 323.593 300.817 323.858 300.552C324.188 300.221 324.585 300.022 324.983 300.089C325.644 300.155 326.174 300.817 326.107 301.48V301.877C326.074 302.01 326.058 302.142 326.041 302.275C326.025 302.407 326.008 302.54 325.975 302.672C325.975 302.739 325.959 302.805 325.942 302.871C325.925 302.937 325.909 303.004 325.909 303.07V303.136C325.777 303.931 325.777 304.66 325.777 305.388C325.843 305.587 325.909 305.786 326.107 305.918V305.852L326.174 306.382C329.284 306.713 332.328 307.906 334.776 309.827C335.041 310.092 335.322 310.357 335.603 310.622C335.885 310.887 336.166 311.152 336.43 311.417L336.96 311.086H337.026C337.092 311.152 337.225 311.152 337.291 311.152C337.423 311.152 337.555 311.086 337.688 311.02C338.283 310.622 338.879 310.092 339.342 309.562C339.362 309.542 339.388 309.522 339.417 309.5C339.482 309.45 339.561 309.389 339.607 309.297C339.739 309.098 339.938 308.9 340.136 308.701C340.202 308.701 340.269 308.635 340.335 308.568L340.401 308.502C340.666 308.303 340.996 308.171 341.327 308.171C341.658 308.171 342.055 308.37 342.254 308.635C342.717 309.231 342.585 310.026 341.989 310.49C341.989 310.515 341.999 310.531 342.007 310.544C342.02 310.565 342.03 310.581 341.989 310.622C341.956 310.655 341.923 310.672 341.89 310.688C341.857 310.705 341.824 310.721 341.79 310.755C341.658 310.821 341.542 310.887 341.427 310.953C341.311 311.02 341.195 311.086 341.063 311.152L340.666 311.351C340.004 311.748 339.408 312.146 338.813 312.676C338.68 312.808 338.614 313.073 338.614 313.272V313.338L338.217 313.736C339.276 315.392 340.07 317.247 340.533 319.168C340.93 321.089 341.063 323.077 340.798 324.998L341.327 325.13C341.393 325.329 341.592 325.528 341.79 325.594C342.518 325.793 343.312 325.925 344.04 325.992H344.107C344.239 326.058 344.371 326.058 344.504 326.058C344.768 326.058 345.033 326.058 345.298 326.124C345.43 326.124 345.562 326.124 345.562 326.19ZM311.033 313.219L311.02 313.206V313.272C311.026 313.255 311.03 313.237 311.033 313.219ZM324.784 325.064L326.571 324.203L327.034 322.282L325.777 320.692H323.791L322.534 322.282L322.997 324.203L324.784 325.064ZM337.622 324.071C337.754 322.679 337.688 321.288 337.357 319.897C337.026 318.506 336.497 317.181 335.769 315.988L330.806 320.493C330.673 320.626 330.607 320.758 330.541 320.957C330.409 321.553 330.74 322.149 331.335 322.282L337.622 324.071ZM328.357 317.379L333.784 313.537C331.798 311.55 329.218 310.291 326.306 309.96L326.703 316.651C326.703 316.849 326.769 316.982 326.902 317.114C327.232 317.578 327.894 317.644 328.357 317.379ZM323.13 309.893L321.806 310.158C319.49 310.688 317.373 311.881 315.652 313.537L321.144 317.446C321.186 317.459 321.224 317.473 321.261 317.487C321.401 317.537 321.517 317.578 321.674 317.578C322.269 317.578 322.799 317.114 322.799 316.518L323.13 309.893ZM318.63 320.361L313.733 315.988C312.277 318.439 311.616 321.288 311.814 324.071L318.233 322.216C318.498 322.149 318.63 322.083 318.762 321.884C319.159 321.421 319.093 320.758 318.63 320.361ZM319.159 326.058L312.608 327.184C313.535 329.834 315.387 332.153 317.703 333.677L320.218 327.582C320.35 327.383 320.35 327.118 320.284 326.919C320.218 326.389 319.689 326.058 319.159 326.058ZM324.784 335.73C325.777 335.73 326.703 335.598 327.629 335.399C328.093 335.266 328.49 335.2 328.887 335.134L325.71 329.37C325.512 329.172 325.38 329.039 325.181 328.907C324.718 328.642 324.188 328.774 323.858 329.172L320.615 335.068C321.939 335.465 323.394 335.73 324.784 335.73ZM331.732 333.61C333.32 332.617 334.71 331.225 335.703 329.635C336.232 328.907 336.629 328.045 336.96 327.118L330.343 325.992C330.144 325.992 329.946 326.058 329.747 326.124L329.747 326.124C329.284 326.323 329.019 326.853 329.151 327.383L331.732 333.61Z" fill="#141A1F"/>
<rect x="448" y="60" width="10" height="10" rx="2" fill="#EB4748"/>
<rect x="192" y="316" width="10" height="10" rx="2" fill="#FFBF00"/>
<rect y="124" width="10" height="10" rx="2" fill="#8A99A8"/>
<rect x="576" y="188" width="10" height="10" rx="2" fill="#8A99A8"/>
</svg>
