<svg width="159" height="40" viewBox="0 0 159 40" fill="none" xmlns="http://www.w3.org/2000/svg">
<path fill-rule="evenodd" clip-rule="evenodd" d="M15.0224 7.34726C14.0442 6.88425 12.9048 6.88425 11.9266 7.34725L3.98185 11.1079C3.00369 11.5709 2.29326 12.4465 2.05167 13.4868L0.089477 21.9368C-0.152109 22.9772 0.101439 24.0691 0.778349 24.9034L6.2763 31.6798C6.95321 32.5141 7.97981 33 9.06549 33H17.8835C18.9692 33 19.9958 32.5141 20.6727 31.6798L26.1707 24.9034C26.8476 24.0691 27.1011 22.9772 26.8595 21.9368L24.8973 13.4868C24.6558 12.4465 23.9453 11.5709 22.9672 11.1079L15.0224 7.34726ZM13.6809 11.6203C13.5179 11.5432 13.328 11.5432 13.1649 11.6203L6.56588 14.744C6.40286 14.8211 6.28445 14.9671 6.24419 15.1405L4.61436 22.1592C4.57409 22.3325 4.61635 22.5145 4.72917 22.6536L9.29586 28.2821C9.40867 28.4212 9.57977 28.5022 9.76072 28.5022H17.0851C17.2661 28.5022 17.4372 28.4212 17.55 28.2821L22.1167 22.6536C22.2295 22.5145 22.2717 22.3325 22.2315 22.1592L20.6017 15.1405C20.5614 14.9671 20.443 14.8211 20.28 14.744L13.6809 11.6203Z" fill="url(#paint0_linear_4269_11914)"/>
<path d="M13.6195 24.8779L9.16016 23.0037V17.6935L13.6195 15.8193L18.0789 17.6935V23.0037L13.6195 24.8779Z" fill="#3F58C1"/>
<path fill-rule="evenodd" clip-rule="evenodd" d="M13.6237 15.6602L18.2317 17.5968V23.0998L13.6237 25.0365L9.01562 23.0998V17.5968L13.6237 15.6602ZM9.31292 17.9146L13.475 19.6638V24.6562L9.31292 22.907V17.9146ZM13.7723 24.6562L17.9344 22.907V17.9146L13.7723 19.6638V24.6562ZM13.6237 19.4085L17.705 17.6932L13.6237 15.978L9.54236 17.6932L13.6237 19.4085Z" fill="white"/>
<path fill-rule="evenodd" clip-rule="evenodd" d="M37.1859 13.4814L29.9766 30.5757H33.767L35.5508 26.1926H42.8345L44.5439 30.5757H48.5573L41.4223 13.4814H37.1859ZM41.7181 23.3431H36.5898L39.1912 17.0605L41.7181 23.3431ZM57.3199 31.1594C59.806 31.1594 62.0282 30.0793 63.5006 28.3833L61.347 26.2666C60.4445 27.4602 58.9755 28.237 57.3167 28.237C54.5724 28.237 52.3477 26.1111 52.3477 23.4886C52.3477 20.8661 54.5724 18.7402 57.3167 18.7402C58.9699 18.7402 60.4345 19.5116 61.3378 20.6984L63.4903 18.5827C62.0179 16.8935 59.8003 15.8184 57.3199 15.8184C52.8867 15.8184 49.293 19.2526 49.293 23.4889C49.293 27.7252 52.8867 31.1594 57.3199 31.1594ZM78.3678 28.3833C76.8954 30.0793 74.6732 31.1594 72.187 31.1594C67.7539 31.1594 64.1602 27.7252 64.1602 23.4889C64.1602 19.2526 67.7539 15.8184 72.187 15.8184C74.6675 15.8184 76.8851 16.8935 78.3575 18.5827L76.205 20.6984C75.3017 19.5116 73.837 18.7402 72.1839 18.7402C69.4396 18.7402 67.2148 20.8661 67.2148 23.4886C67.2148 26.1111 69.4396 28.237 72.1839 28.237C73.8427 28.237 75.3117 27.4602 76.2142 26.2666L78.3678 28.3833ZM83.0434 15.8193H79.9219V24.5856H83.0434V15.8193ZM86.6149 31.1592C82.9212 31.1592 79.9268 28.2166 79.9258 24.5863H83.0469C83.048 26.522 84.6448 28.0908 86.6144 28.0908C88.584 28.0908 90.1808 26.522 90.1819 24.5863H93.3039C93.3029 28.2166 90.3085 31.1592 86.6149 31.1592ZM90.1797 15.8193H93.3013V24.5856H90.1797V15.8193Z" fill="#00095F"/>
<path fill-rule="evenodd" clip-rule="evenodd" d="M99.5441 13.4814H95.9766V30.5757H99.5441V22.697L107.447 30.5762H111.733L103.087 21.956H99.5441V21.9555H103.033L111.729 13.4814H107.418L99.5441 21.1551V13.4814ZM143.988 15.8193L147.571 15.8194L151.494 20.9524L155.417 15.8194L159 15.8193L153.285 23.2958L158.85 30.576H155.267L151.494 25.6393L147.721 30.576H144.138L149.703 23.2958L143.988 15.8193ZM136.562 31.1594C140.995 31.1594 144.589 27.7252 144.589 23.4889C144.589 19.2526 140.995 15.8184 136.562 15.8184C132.129 15.8184 128.535 19.2526 128.535 23.4889C128.535 27.7252 132.129 31.1594 136.562 31.1594ZM136.559 28.237C139.303 28.237 141.528 26.1111 141.528 23.4886C141.528 20.8661 139.303 18.7402 136.559 18.7402C133.815 18.7402 131.59 20.8661 131.59 23.4886C131.59 26.1111 133.815 28.237 136.559 28.237ZM116.047 15.8184H113.223V30.575H116.047V20.757L123.624 30.5753L123.625 30.5747V30.575H126.449V15.8184H123.625V25.6448L116.047 15.8255V15.8184Z" fill="#0001A2"/>
<defs>
<linearGradient id="paint0_linear_4269_11914" x1="22.6939" y1="11.3789" x2="6.21959" y2="30.7125" gradientUnits="userSpaceOnUse">
<stop offset="0.0422383" stop-color="#DB001F"/>
<stop offset="0.730698" stop-color="#031ABA"/>
</linearGradient>
</defs>
</svg>
