<svg width="137" height="48" viewBox="0 0 137 48" fill="none" xmlns="http://www.w3.org/2000/svg">
<path fill-rule="evenodd" clip-rule="evenodd" d="M0 23.9873C3.34582 36.7384 14.2893 46.434 27.7294 47.9978C18.1343 43.4316 10.9756 34.6095 8.72111 23.9873H0Z" fill="#005AA1"/>
<path fill-rule="evenodd" clip-rule="evenodd" d="M136.938 24.0117C133.592 11.2606 122.648 1.56505 109.208 0.00123074C118.803 4.56742 125.962 13.3896 128.216 24.0117L136.938 24.0117Z" fill="#009475"/>
<path d="M56.2407 31.8535C54.9225 33.513 53.0306 34.553 50.9286 34.553C46.9457 34.553 43.7169 30.8186 43.7169 26.212C43.7169 21.6055 46.9457 17.8711 50.9286 17.8711C53.0303 17.8711 54.922 18.9109 56.2401 20.5699L54.6723 22.1301C53.7343 20.98 52.4044 20.2622 50.9296 20.2622C48.0886 20.2622 45.7855 22.9259 45.7855 26.2118C45.7855 29.4976 48.0886 32.1613 50.9296 32.1613C52.4046 32.1613 53.7346 31.4434 54.6726 30.2931L56.2407 31.8535Z" fill="#005AA1"/>
<path fill-rule="evenodd" clip-rule="evenodd" d="M29.0846 18.0659H32.1351L37.6259 34.458H35.1855L33.841 30.4442H27.3786L26.0341 34.458H23.5938L29.0846 18.0659ZM33.1519 28.3869L30.6098 20.798L28.0678 28.3869H33.1519Z" fill="#005AA1"/>
<path fill-rule="evenodd" clip-rule="evenodd" d="M77.6191 26.212C77.6191 30.8186 74.3903 34.553 70.4074 34.553C66.4244 34.553 63.1956 30.8186 63.1956 26.212C63.1956 21.6055 66.4244 17.8711 70.4074 17.8711C74.3903 17.8711 77.6191 21.6055 77.6191 26.212ZM75.5524 26.212C75.5524 29.6535 73.2493 32.4434 70.4083 32.4434C67.5673 32.4434 65.2642 29.6535 65.2642 26.212C65.2642 22.7705 67.5673 19.9806 70.4083 19.9806C73.2493 19.9806 75.5524 22.7705 75.5524 26.212Z" fill="#005AA1"/>
<path d="M86.6221 18.882C87.6321 18.2555 88.8619 18.028 89.8827 18.0281C90.7776 18.0281 91.5553 18.149 92.3491 18.4904C93.1212 18.8225 93.8513 19.3394 94.685 20.0382L93.4018 21.5541C92.6206 20.8992 92.0656 20.5276 91.5589 20.3097C91.0737 20.101 90.5785 20.0101 89.8826 20.0101C89.1127 20.01 88.2802 20.189 87.6757 20.564C87.1177 20.9101 86.754 21.4111 86.754 22.212C86.754 23.0665 87.1942 23.6014 87.9467 24.0508C88.3345 24.2824 88.7778 24.471 89.2419 24.6472C89.3795 24.6994 89.5288 24.7539 89.6806 24.8093C89.9944 24.9238 90.3193 25.0424 90.5764 25.154C90.6435 25.1832 90.7145 25.2137 90.7887 25.2456L90.7894 25.2459L90.7902 25.2462C91.5026 25.5523 92.5169 25.9881 93.3668 26.6198C94.3297 27.3354 95.2298 28.4122 95.2298 29.9825C95.2298 31.4621 94.5433 32.5954 93.5196 33.326C92.5294 34.0327 91.2624 34.342 90.0389 34.342C87.5504 34.342 85.4643 32.9798 84.3704 32.0414L85.6709 30.5402C86.6123 31.3478 88.2457 32.36 90.0389 32.36C90.9563 32.36 91.7868 32.1236 92.3589 31.7154C92.8975 31.3309 93.2381 30.7799 93.2381 29.9825C93.2381 29.2756 92.8634 28.7194 92.175 28.2078C91.5238 27.7238 90.7255 27.3791 89.986 27.0598L89.7798 26.9706C89.5743 26.8813 89.3504 26.7999 89.0804 26.7017C88.9168 26.6422 88.7356 26.5763 88.532 26.499C88.0339 26.3099 87.4611 26.0723 86.9219 25.7503C85.8203 25.0925 84.7623 24.0113 84.7623 22.212C84.7623 20.633 85.5654 19.5375 86.6221 18.882Z" fill="#005AA1"/>
<path d="M108.317 18.0281C107.296 18.028 106.066 18.2555 105.056 18.882C103.999 19.5375 103.196 20.633 103.196 22.212C103.196 24.0113 104.254 25.0925 105.356 25.7503C105.895 26.0723 106.468 26.3099 106.966 26.499C107.17 26.5764 107.35 26.6421 107.514 26.7016C107.784 26.7998 108.008 26.8813 108.214 26.9706C108.282 27.0002 108.351 27.0299 108.42 27.0598C109.159 27.3791 109.958 27.7238 110.609 28.2078C111.297 28.7194 111.672 29.2756 111.672 29.9825C111.672 30.7799 111.331 31.3309 110.793 31.7154C110.221 32.1236 109.39 32.36 108.473 32.36C106.68 32.36 105.046 31.3478 104.105 30.5402L102.804 32.0414C103.898 32.9798 105.984 34.342 108.473 34.342C109.696 34.342 110.963 34.0327 111.954 33.326C112.977 32.5954 113.664 31.4621 113.664 29.9825C113.664 28.4122 112.764 27.3354 111.801 26.6198C110.951 25.9881 109.937 25.5523 109.224 25.2462L109.223 25.2459C109.149 25.2139 109.078 25.1833 109.01 25.154C108.753 25.0424 108.428 24.9238 108.114 24.8093C107.963 24.7539 107.813 24.6994 107.676 24.6472C107.212 24.471 106.768 24.2824 106.381 24.0508C105.628 23.6014 105.188 23.0665 105.188 22.212C105.188 21.4111 105.552 20.9101 106.11 20.564C106.714 20.189 107.547 20.01 108.317 20.0101C109.012 20.0101 109.508 20.101 109.993 20.3097C110.5 20.5276 111.054 20.8992 111.836 21.5541L113.119 20.0382C112.285 19.3394 111.555 18.8225 110.783 18.4904C109.989 18.149 109.212 18.0281 108.317 18.0281Z" fill="#005AA1"/>
</svg>
