<?xml version="1.0" encoding="UTF-8" standalone="no"?>
<svg
   version="1.1"
   width="1940"
   height="851"
   style="clip-rule:evenodd;fill-rule:evenodd;image-rendering:optimizeQuality;shape-rendering:geometricPrecision;text-rendering:geometricPrecision"
   id="svg18"
   xmlns="http://www.w3.org/2000/svg"
   xmlns:svg="http://www.w3.org/2000/svg">
  <defs
     id="defs18" />
  <g
     id="g1"
     transform="matrix(0.07000463,0,0,0.06991513,-10.914599,-9.5550595)">
    <path
       style="opacity:0.993"
       fill="#00a5ff"
       d="m 635.5,156.5 c -44.026,41.028 -88.026,82.028 -132,123 0.065,-0.438 -0.101,-0.772 -0.5,-1 -0.926,2.192 -2.093,4.192 -3.5,6 -2.095,0.912 -4.095,2.079 -6,3.5 -78.569,73.74 -157.569,146.907 -237,219.5 72.936,-117.03 146.27,-233.863 220,-350.5 52.999,-0.5 105.999,-0.667 159,-0.5 z"
       id="path1" />
  </g>
  <g
     id="g2"
     transform="matrix(0.07000463,0,0,0.06991513,-10.914599,-9.5550595)">
    <path
       style="opacity:0.995"
       fill="#00abff"
       d="m 635.5,156.5 c 28.333,0 56.667,0 85,0 5.151,0.827 10.484,1.327 16,1.5 -29.7,28.035 -59.7,55.701 -90,83 -6.181,0.172 -12.181,0.672 -18,1.5 -11.671,-0.167 -23.338,0 -35,0.5 3.188,13.436 6.188,26.936 9,40.5 -2.768,1.587 -5.435,3.42 -8,5.5 -24.236,23.407 -48.903,46.24 -74,68.5 -5.357,-26.093 -11.024,-52.093 -17,-78 43.974,-40.972 87.974,-81.972 132,-123 z"
       id="path2" />
  </g>
  <g
     id="g3"
     transform="matrix(0.07000463,0,0,0.06991513,-10.914599,-9.5550595)">
    <path
       style="opacity:0.992"
       fill="#00b2ff"
       d="m 720.5,156.5 c 48.667,0 97.333,0 146,0 -3.477,0.823 -7.144,1.323 -11,1.5 -29.7,28.035 -59.7,55.701 -90,83 5.516,0.173 10.849,0.673 16,1.5 -51,0 -102,0 -153,0 5.819,-0.828 11.819,-1.328 18,-1.5 30.3,-27.299 60.3,-54.965 90,-83 -5.516,-0.173 -10.849,-0.673 -16,-1.5 z"
       id="path3" />
  </g>
  <g
     id="g4"
     transform="matrix(0.07000463,0,0,0.06991513,-10.914599,-9.5550595)">
    <path
       style="opacity:0.99"
       fill="#00b8ff"
       d="m 866.5,156.5 c 13.42,14.45 27.087,28.784 41,43 -13.698,13.697 -27.032,27.697 -40,42 -28.659,1 -57.326,1.333 -86,1 -5.151,-0.827 -10.484,-1.327 -16,-1.5 30.3,-27.299 60.3,-54.965 90,-83 3.856,-0.177 7.523,-0.677 11,-1.5 z"
       id="path4" />
  </g>
  <g
     id="g5"
     transform="matrix(0.07000463,0,0,0.06991513,-10.914599,-9.5550595)">
    <path
       style="opacity:0.982"
       fill="#00ccff"
       d="m 1262.5,216.5 c 34.67,0 69.33,0 104,0 0,28.667 0,57.333 0,86 -34.67,0 -69.33,0 -104,0 0,-28.667 0,-57.333 0,-86 z"
       id="path5" />
  </g>
  <g
     id="g6"
     transform="matrix(0.07000463,0,0,0.06991513,-10.914599,-9.5550595)">
    <path
       style="opacity:0.987"
       fill="#00b2ff"
       d="m 602.5,283.5 c 4.998,22.659 9.998,45.326 15,68 20.322,1 40.656,1.333 61,1 0,0.333 0,0.667 0,1 -11.671,-0.167 -23.338,0 -35,0.5 -34.018,31.981 -68.351,63.481 -103,94.5 -6.416,-30.416 -13.083,-60.749 -20,-91 25.097,-22.26 49.764,-45.093 74,-68.5 2.565,-2.08 5.232,-3.913 8,-5.5 z"
       id="path6" />
  </g>
  <g
     id="g7"
     transform="matrix(0.07000463,0,0,0.06991513,-10.914599,-9.5550595)">
    <path
       style="opacity:0.992"
       fill="#00abff"
       d="m 499.5,284.5 c -33.027,56.017 -66.027,112.017 -99,168 5.151,0.827 10.484,1.327 16,1.5 -68.229,63.734 -136.563,127.234 -205,190.5 -13.683,0.333 -27.35,-10e-4 -41,-1 28.332,-45.64 56.999,-90.974 86,-136 79.431,-72.593 158.431,-145.76 237,-219.5 1.905,-1.421 3.905,-2.588 6,-3.5 z"
       id="path7" />
  </g>
  <g
     id="g8"
     transform="matrix(0.07000463,0,0,0.06991513,-10.914599,-9.5550595)">
    <path
       style="opacity:0.989"
       fill="#00cbff"
       d="m 912.5,388.5 c 13.026,-12.028 26.026,-24.028 39,-36 18.333,0 36.667,0 55,0 -0.17,12.671 0,25.338 0.5,38 17.34,-21.26 39.5,-34.76 66.5,-40.5 29.02,-5.819 57.36,-3.485 85,7 21.49,10.495 36.33,26.995 44.5,49.5 3.93,11.717 6.6,23.717 8,36 1.45,67.317 1.95,134.65 1.5,202 -32,0 -64,0 -96,0 0.46,-62.354 -0.04,-124.688 -1.5,-187 -1.41,-11.31 -5.91,-21.143 -13.5,-29.5 -16.33,-10.034 -33.67,-12.034 -52,-6 -24.94,9 -38.44,26.833 -40.5,53.5 -0.5,56.332 -0.67,112.666 -0.5,169 -32,0 -64,0 -96,0 0,-85.333 0,-170.667 0,-256 z"
       id="path8" />
  </g>
  <g
     id="g9"
     transform="matrix(0.07000463,0,0,0.06991513,-10.914599,-9.5550595)">
    <path
       style="opacity:0.987"
       fill="#00beff"
       d="m 678.5,353.5 c 0,-0.333 0,-0.667 0,-1 45.333,0 90.667,0 136,0 10.826,0.83 21.826,1.33 33,1.5 -30.333,28.333 -60.667,56.667 -91,85 -33.998,0.5 -67.998,0.667 -102,0.5 30.136,-28.634 60.469,-57.134 91,-85.5 -22.331,-0.5 -44.664,-0.667 -67,-0.5 z"
       id="path9" />
  </g>
  <g
     id="g10"
     transform="matrix(0.07000463,0,0,0.06991513,-10.914599,-9.5550595)">
    <path
       style="opacity:0.95"
       fill="#00c3ff"
       d="m 814.5,352.5 c 17.333,0 34.667,0 52,0 0,29.333 0,58.667 0,88 -71.333,0 -142.667,0 -214,0 0.342,-0.838 1.008,-1.172 2,-1 34.002,0.167 68.002,0 102,-0.5 30.333,-28.333 60.667,-56.667 91,-85 -11.174,-0.17 -22.174,-0.67 -33,-1.5 z"
       id="path10" />
  </g>
  <g
     id="g11"
     transform="matrix(0.07000463,0,0,0.06991513,-10.914599,-9.5550595)">
    <path
       style="opacity:0.942"
       fill="#00c6ff"
       d="m 951.5,352.5 c -12.974,11.972 -25.974,23.972 -39,36 0,-12 0,-24 0,-36 13,0 26,0 39,0 z"
       id="path11" />
  </g>
  <g
     id="g12"
     transform="matrix(0.07000463,0,0,0.06991513,-10.914599,-9.5550595)">
    <path
       style="opacity:0.987"
       fill="#00ccff"
       d="m 1394.5,352.5 c 36.33,-0.167 72.67,0 109,0.5 20.17,25.5 40.33,51 60.5,76.5 20.17,-25.5 40.33,-51 60.5,-76.5 36.33,-0.667 72.67,-0.667 109,0 -38.67,47 -77.33,94 -116,141 41.9,49.815 83.57,99.815 125,150 -36.67,0.667 -73.33,0.667 -110,0 -23.13,-28.448 -46.13,-56.948 -69,-85.5 -22.86,28.356 -45.52,56.856 -68,85.5 -36.34,0.833 -72.67,0.667 -109,-0.5 40.77,-50.271 82.1,-100.104 124,-149.5 -39.28,-46.769 -77.95,-93.936 -116,-141.5 z"
       id="path12" />
  </g>
  <g
     id="g13"
     transform="matrix(0.07000463,0,0,0.06991513,-10.914599,-9.5550595)">
    <path
       style="opacity:1"
       fill="#00b8ff"
       d="m 678.5,353.5 c 22.336,-0.167 44.669,0 67,0.5 -30.531,28.366 -60.864,56.866 -91,85.5 -0.992,-0.172 -1.658,0.162 -2,1 -5.344,-0.166 -10.677,10e-4 -16,0.5 1.231,4.091 2.231,8.257 3,12.5 -31.28,27.943 -62.28,56.276 -93,85 -33.668,0.167 -67.335,0 -101,-0.5 30.531,-28.366 60.864,-56.866 91,-85.5 3.991,0.628 5.324,-0.705 4,-4 34.649,-31.019 68.982,-62.519 103,-94.5 11.662,-0.5 23.329,-0.667 35,-0.5 z"
       id="path13" />
  </g>
  <g
     id="g14"
     transform="matrix(0.07000463,0,0,0.06991513,-10.914599,-9.5550595)">
    <path
       style="opacity:0.986"
       fill="#00ccff"
       d="m 1265.5,354.5 c 32.33,0 64.67,0 97,0 0,97 0,194 0,291 -32.33,0 -64.67,0 -97,0 0,-97 0,-194 0,-291 z"
       id="path14" />
  </g>
  <g
     id="g15"
     transform="matrix(0.07000463,0,0,0.06991513,-10.914599,-9.5550595)">
    <path
       style="opacity:0.976"
       fill="#00b1ff"
       d="m 400.5,452.5 c 45.333,0 90.667,0 136,0 -30.136,28.634 -60.469,57.134 -91,85.5 33.665,0.5 67.332,0.667 101,0.5 0,0.333 0,0.667 0,1 -66.001,-0.167 -132.001,0 -198,0.5 -20.415,34.832 -41.082,69.499 -62,104 -24.998,0.5 -49.998,0.667 -75,0.5 68.437,-63.266 136.771,-126.766 205,-190.5 -5.516,-0.173 -10.849,-0.673 -16,-1.5 z"
       id="path15" />
  </g>
  <g
     id="g16"
     transform="matrix(0.07000463,0,0,0.06991513,-10.914599,-9.5550595)">
    <path
       style="opacity:0.993"
       fill="#00beff"
       d="m 639.5,453.5 c 5.794,25.638 11.461,51.305 17,77 -25.745,23.906 -51.411,48.073 -77,72.5 -1.578,1.094 -3.245,1.928 -5,2.5 -4.982,-21.928 -9.649,-43.928 -14,-66 -4.667,0 -9.333,0 -14,0 0,-0.333 0,-0.667 0,-1 30.72,-28.724 61.72,-57.057 93,-85 z"
       id="path16" />
  </g>
  <g
     id="g17"
     transform="matrix(0.07000463,0,0,0.06991513,-10.914599,-9.5550595)">
    <path
       style="opacity:0.988"
       fill="#00c4ff"
       d="m 656.5,530.5 c 1.769,8.908 3.769,17.741 6,26.5 10.995,0.5 21.995,0.667 33,0.5 10.826,0.83 21.826,1.33 33,1.5 -30.033,28.368 -60.366,56.368 -91,84 5.516,0.173 10.849,0.673 16,1.5 -23.667,0 -47.333,0 -71,0 -2.508,-13.033 -5.175,-26.033 -8,-39 1.755,-0.572 3.422,-1.406 5,-2.5 25.589,-24.427 51.255,-48.594 77,-72.5 z"
       id="path17" />
  </g>
  <g
     id="g18"
     transform="matrix(0.07000463,0,0,0.06991513,-10.914599,-9.5550595)">
    <path
       style="opacity:0.977"
       fill="#00cbff"
       d="m 695.5,557.5 c 57.333,0 114.667,0 172,0 0,29 0,58 0,87 -71.333,0 -142.667,0 -214,0 -5.151,-0.827 -10.484,-1.327 -16,-1.5 30.634,-27.632 60.967,-55.632 91,-84 -11.174,-0.17 -22.174,-0.67 -33,-1.5 z"
       id="path18" />
  </g>
</svg>
