<svg width="199" height="34" viewBox="0 0 199 34" fill="none" xmlns="http://www.w3.org/2000/svg">
<g clip-path="url(#clip0_452_6187)">
<path d="M34.0917 17.0466V33.9846H26.6211V16.9225C26.651 12.2676 23.2691 8.28806 18.6599 7.55443C14.0507 6.8208 9.59478 9.55281 8.17038 13.9857L5.35533 15.3714L7.71935 17.3258C7.97338 21.9791 9.62197 29.7656 23.2721 34.0001H16.9992C7.58507 33.9743 -0.02565 26.3424 6.49723e-05 16.9535C0.0259105 7.56474 7.67843 -0.0255579 17.0925 6.468e-05C26.5066 0.0258173 34.1174 7.65776 34.0917 17.0466Z" fill="#0E63FF"/>
<path d="M15.0638 17.0107C15.058 18.1024 14.1659 18.9827 13.0712 18.977C11.9766 18.9712 11.0939 18.0815 11.0996 16.9898C11.1054 15.8981 11.9975 15.0177 13.0921 15.0235C13.6178 15.0263 14.1209 15.2372 14.4906 15.6098C14.8604 15.9825 15.0665 16.4864 15.0638 17.0107Z" fill="#0E63FF"/>
<path d="M61.8398 34.0003V5.53516H67.3896V34.0003H61.8398Z" fill="#30343B"/>
<path d="M111.785 24.9504C111.862 28.1573 110.217 31.1541 107.488 32.7802C104.759 34.4064 101.375 34.4064 98.6458 32.7802C95.917 31.1541 94.2721 28.1573 94.3482 24.9504V16.6045H99.2841V24.8328C99.2799 25.945 99.6462 27.0261 100.324 27.9011C101.027 28.6905 102.016 29.1574 103.064 29.195C104.103 29.1649 105.082 28.6957 105.764 27.9011C106.471 27.04 106.854 25.9528 106.844 24.8328V16.6045H111.785V24.9504Z" fill="#30343B"/>
<path d="M130.966 31.403C127.442 34.9107 121.812 34.859 118.35 31.2871C114.888 27.7152 114.888 21.9579 118.35 18.386C121.812 14.8141 127.442 14.7624 130.966 18.2701V5.53516H135.575V33.4452H130.966V31.403ZM122.261 28.1617C123.059 29.0268 124.17 29.519 125.333 29.5232C126.516 29.5257 127.648 29.0339 128.467 28.1617C129.289 27.259 129.745 26.0703 129.742 24.8366C129.735 23.6086 129.278 22.4278 128.462 21.5271C127.643 20.6549 126.511 20.1631 125.328 20.1657C124.165 20.1698 123.054 20.662 122.255 21.5271C121.433 22.4289 120.972 23.614 120.965 24.847C120.963 26.0764 121.417 27.2608 122.235 28.1617H122.261Z" fill="#30343B"/>
<path d="M157.772 25.3021C157.772 20.4917 153.717 16.6045 148.637 16.6045C143.557 16.6045 139.537 20.4917 139.537 25.3021C139.537 30.1124 143.592 33.9998 148.637 33.9998C150.434 34.0076 152.197 33.5039 153.717 32.5476V33.5456H157.772V25.3021ZM151.732 28.5057C150.932 29.3368 149.827 29.8055 148.672 29.8031C147.534 29.8093 146.446 29.3386 145.672 28.5057C144.82 27.6591 144.35 26.5021 144.372 25.3021C144.349 24.1137 144.82 22.9687 145.672 22.1384C146.431 21.2796 147.525 20.7916 148.672 20.8011C149.836 20.795 150.947 21.2809 151.732 22.1384C152.528 22.9835 152.965 24.1028 152.952 25.2622C152.967 26.4577 152.532 27.6153 151.732 28.5057Z" fill="#30343B"/>
<path d="M90.3815 25.3021C90.3815 20.4917 86.3304 16.6045 81.244 16.6045C76.1576 16.6045 72.1465 20.4917 72.1465 25.3021C72.1465 30.1124 76.1976 33.9997 81.244 33.9997C83.0434 34.0082 84.8079 33.5045 86.3304 32.5475V33.5455H90.3815V25.3021ZM84.3449 28.5056C83.5445 29.3363 82.4389 29.8049 81.284 29.8031C80.1454 29.8105 79.0563 29.3396 78.2832 28.5056C77.4305 27.659 76.9609 26.5021 76.9828 25.3021C76.9601 24.1136 77.4307 22.9687 78.2832 22.1384C79.041 21.2785 80.1364 20.7903 81.284 20.8011C82.4477 20.7963 83.5592 21.2819 84.3449 22.1384C85.1442 22.9819 85.5851 24.1014 85.5752 25.2621C85.5875 26.459 85.1483 27.6168 84.3449 28.5056Z" fill="#30343B"/>
<path d="M58.6687 25.3021C58.6687 20.4917 54.6175 16.6045 49.5361 16.6045C44.4547 16.6045 40.4336 20.4917 40.4336 25.3021C40.4336 30.1124 44.4897 33.9998 49.5361 33.9998C51.3339 34.0076 53.0966 33.5039 54.6175 32.5476V33.5456H58.6687V25.3021ZM52.632 28.5057C51.8356 29.3331 50.7359 29.8015 49.5861 29.8032C48.4476 29.8106 47.3584 29.3397 46.5853 28.5057C45.7326 27.6591 45.263 26.5021 45.2849 25.3021C45.2622 24.1137 45.7328 22.9687 46.5853 22.1384C47.3431 21.2785 48.4385 20.7903 49.5861 20.8011C50.75 20.795 51.8621 21.2809 52.647 22.1384C53.4427 22.9835 53.8799 24.1028 53.8673 25.2622C53.8782 26.4597 53.4372 27.6175 52.632 28.5057Z" fill="#30343B"/>
<path d="M198.757 23.5454C198.757 23.5055 198.757 23.4655 198.727 23.4206C197.649 19.3998 194.01 16.6045 189.853 16.6045C185.696 16.6045 182.057 19.3998 180.98 23.4206C180.98 23.4655 180.955 23.5055 180.95 23.5454C180.945 23.5853 180.95 23.6452 180.925 23.6902C180.243 27.1668 181.789 30.7018 184.803 32.557C185.136 32.7655 185.48 32.9539 185.835 33.1212L186.02 33.206L186.518 33.4057L186.683 33.4606C187.009 33.5743 187.342 33.6693 187.68 33.7452L187.874 33.7951L188.323 33.875L188.697 33.9299L189.086 33.9699C189.31 33.9699 189.529 33.9998 189.759 33.9998H189.883H190.008C190.237 33.9998 190.456 33.9998 190.681 33.9699L191.07 33.9299L191.443 33.875L191.887 33.7951L192.087 33.7452C192.424 33.6693 192.757 33.5743 193.084 33.4606L193.248 33.4057L193.747 33.206L193.931 33.1212C194.286 32.9539 194.631 32.7655 194.963 32.557C197.977 30.7018 199.523 27.1668 198.841 23.6902C198.772 23.6452 198.767 23.6053 198.757 23.5454ZM192.919 28.508C192.124 29.3398 191.023 29.8089 189.873 29.8061H189.833C188.683 29.8089 187.583 29.3398 186.787 28.508C185.987 27.619 185.551 26.46 185.566 25.2628C185.551 24.1015 185.989 22.9802 186.787 22.1375C187.568 21.2798 188.675 20.7936 189.833 20.7994H189.873C191.032 20.7936 192.139 21.2798 192.919 22.1375C193.717 22.9802 194.155 24.1015 194.14 25.2628C194.156 26.46 193.72 27.619 192.919 28.508Z" fill="#0E63FF"/>
<path d="M172.043 33.9998V16.6045H177.593V33.9998H172.043Z" fill="#0E63FF"/>
<path d="M177.593 11.4696C177.59 12.9974 176.346 14.234 174.815 14.2322C173.283 14.2304 172.042 12.9909 172.043 11.4631C172.044 9.93531 173.286 8.69727 174.818 8.69727C175.555 8.69597 176.262 8.98779 176.783 9.50813C177.304 10.0285 177.595 10.7344 177.593 11.4696Z" fill="#0E63FF"/>
<path d="M168.079 31.2372C168.076 32.765 166.833 34.0015 165.301 33.9997C163.769 33.9979 162.528 32.7584 162.529 31.2307C162.53 29.7029 163.772 28.4648 165.304 28.4648C166.041 28.4635 166.749 28.7554 167.27 29.2757C167.79 29.796 168.082 30.502 168.079 31.2372Z" fill="#0E63FF"/>
</g>
<defs>
<clipPath id="clip0_452_6187">
<rect width="199" height="34" fill="white"/>
</clipPath>
</defs>
</svg>
