<svg width="176" height="57" viewBox="0 0 176 57" fill="none" xmlns="http://www.w3.org/2000/svg">
<path d="M35.2858 28.6605V42.9278H29.2651V28.556C29.2892 24.635 26.5636 21.283 22.849 20.665C19.1343 20.0471 15.5432 22.3483 14.3952 26.0823L12.1265 27.2494L14.0317 28.8957C14.2365 32.8152 15.5651 39.374 26.566 42.9408H21.5105C13.9235 42.9192 7.78987 36.4906 7.8106 28.5821C7.83143 20.6737 13.9988 14.2802 21.5858 14.3018C29.1728 14.3235 35.3065 20.7521 35.2858 28.6605Z" fill="#0E63FF"/>
<path d="M19.9507 28.6299C19.946 29.5495 19.227 30.291 18.3448 30.2862C17.4626 30.2813 16.7513 29.5319 16.7559 28.6124C16.7606 27.6928 17.4795 26.9513 18.3617 26.9561C18.7853 26.9584 19.1908 27.1361 19.4888 27.45C19.7867 27.7639 19.9529 28.1883 19.9507 28.6299Z" fill="#0E63FF"/>
<path d="M57.6494 42.9407V18.9639H62.1221V42.9407H57.6494Z" fill="#30343B"/>
<path d="M97.9017 35.3181C97.9631 38.0193 96.6374 40.5436 94.4382 41.9133C92.2389 43.283 89.5115 43.283 87.3123 41.9133C85.113 40.5436 83.7873 38.0193 83.8487 35.3181V28.2881H87.8267V35.219C87.8233 36.1558 88.1185 37.0665 88.6646 37.8035C89.2311 38.4684 90.028 38.8617 90.8732 38.8933C91.7105 38.868 92.4995 38.4728 93.0493 37.8035C93.6189 37.0781 93.9273 36.1624 93.9197 35.219V28.2881H97.9017V35.3181Z" fill="#30343B"/>
<path d="M113.358 40.753C110.518 43.7076 105.981 43.664 103.191 40.6554C100.401 37.6467 100.401 32.7971 103.191 29.7884C105.981 26.7798 110.518 26.7362 113.358 29.6908V18.9639H117.073V42.4732H113.358V40.753ZM106.343 38.0227C106.986 38.7515 107.881 39.166 108.819 39.1695C109.772 39.1717 110.684 38.7574 111.344 38.0227C112.007 37.2624 112.375 36.2611 112.372 35.2219C112.366 34.1875 111.998 33.193 111.34 32.4343C110.68 31.6996 109.768 31.2853 108.815 31.2875C107.877 31.291 106.982 31.7056 106.338 32.4343C105.676 33.1939 105.304 34.1921 105.298 35.2307C105.297 36.2663 105.663 37.2639 106.322 38.0227H106.343Z" fill="#30343B"/>
<path d="M134.964 35.6143C134.964 31.5624 131.696 28.2881 127.601 28.2881C123.507 28.2881 120.268 31.5624 120.268 35.6143C120.268 39.6662 123.536 42.9405 127.601 42.9405C129.05 42.9471 130.47 42.5228 131.696 41.7173V42.558H134.964V35.6143ZM130.096 38.3127C129.451 39.0128 128.56 39.4076 127.63 39.4056C126.713 39.4108 125.835 39.0144 125.212 38.3127C124.525 37.5996 124.147 36.6251 124.164 35.6143C124.146 34.6132 124.525 33.6488 125.212 32.9494C125.823 32.226 126.705 31.815 127.63 31.823C128.567 31.8179 129.463 32.2271 130.096 32.9494C130.737 33.6612 131.089 34.6041 131.079 35.5806C131.091 36.5877 130.74 37.5627 130.096 38.3127Z" fill="#30343B"/>
<path d="M80.6521 35.6143C80.6521 31.5624 77.3872 28.2881 73.288 28.2881C69.1887 28.2881 65.9561 31.5624 65.9561 35.6143C65.9561 39.6661 69.2209 42.9405 73.288 42.9405C74.7381 42.9477 76.1602 42.5234 77.3872 41.7173V42.5579H80.6521V35.6143ZM75.787 38.3127C75.142 39.0124 74.2509 39.4071 73.3202 39.4056C72.4026 39.4118 71.5248 39.0152 70.9018 38.3127C70.2146 37.5996 69.8361 36.625 69.8538 35.6143C69.8355 34.6132 70.2147 33.6488 70.9018 32.9494C71.5125 32.2251 72.3953 31.8139 73.3202 31.823C74.258 31.8189 75.1538 32.228 75.787 32.9494C76.4312 33.6599 76.7866 34.6029 76.7786 35.5806C76.7884 36.5888 76.4345 37.564 75.787 38.3127Z" fill="#30343B"/>
<path d="M55.0935 35.6143C55.0935 31.5624 51.8286 28.2881 47.7334 28.2881C43.6382 28.2881 40.3975 31.5624 40.3975 35.6143C40.3975 39.6662 43.6664 42.9405 47.7334 42.9405C49.1822 42.9471 50.6028 42.5228 51.8286 41.7173V42.558H55.0935V35.6143ZM50.2284 38.3127C49.5865 39.0097 48.7003 39.4042 47.7737 39.4056C46.8561 39.4119 45.9783 39.0152 45.3553 38.3127C44.6681 37.5996 44.2896 36.6251 44.3073 35.6143C44.2889 34.6132 44.6682 33.6488 45.3553 32.9494C45.966 32.2251 46.8488 31.8139 47.7737 31.823C48.7117 31.8179 49.6079 32.2271 50.2405 32.9494C50.8818 33.6612 51.2342 34.6041 51.224 35.5806C51.2328 36.5894 50.8774 37.5646 50.2284 38.3127Z" fill="#30343B"/>
<path d="M167.992 34.1346C167.992 34.1009 167.992 34.0673 167.968 34.0294C167.1 30.6426 164.167 28.2881 160.817 28.2881C157.467 28.2881 154.534 30.6426 153.666 34.0294C153.666 34.0673 153.646 34.1009 153.642 34.1346C153.638 34.1682 153.642 34.2187 153.622 34.2565C153.072 37.185 154.318 40.1626 156.747 41.7253C157.015 41.9009 157.293 42.0596 157.579 42.2005L157.728 42.272L158.129 42.4402L158.262 42.4864C158.525 42.5821 158.793 42.6622 159.065 42.7261L159.222 42.7682L159.584 42.8355L159.885 42.8817L160.198 42.9154C160.379 42.9154 160.556 42.9406 160.741 42.9406H160.841H160.942C161.126 42.9406 161.303 42.9406 161.484 42.9154L161.797 42.8817L162.099 42.8355L162.456 42.7682L162.617 42.7261C162.889 42.6622 163.157 42.5821 163.42 42.4864L163.553 42.4402L163.955 42.272L164.103 42.2005C164.389 42.0596 164.667 41.9009 164.935 41.7253C167.364 40.1626 168.61 37.185 168.061 34.2565C168.005 34.2187 168.001 34.185 167.992 34.1346ZM163.288 38.3147C162.647 39.0154 161.76 39.4105 160.833 39.4081H160.801C159.874 39.4105 158.987 39.0154 158.346 38.3147C157.701 37.5658 157.349 36.5896 157.362 35.5812C157.35 34.603 157.703 33.6585 158.346 32.9487C158.975 32.2262 159.867 31.8167 160.801 31.8216H160.833C161.767 31.8167 162.659 32.2262 163.288 32.9487C163.931 33.6585 164.284 34.603 164.272 35.5812C164.285 36.5896 163.933 37.5658 163.288 38.3147Z" fill="#0E63FF"/>
<path d="M146.464 42.9406V28.2881H150.937V42.9406H146.464Z" fill="#0E63FF"/>
<path d="M150.937 23.9631C150.934 25.25 149.932 26.2916 148.698 26.2901C147.463 26.2886 146.463 25.2445 146.464 23.9576C146.465 22.6708 147.466 21.6279 148.7 21.6279C149.294 21.6268 149.864 21.8726 150.284 22.3109C150.704 22.7492 150.939 23.3438 150.937 23.9631Z" fill="#0E63FF"/>
<path d="M143.27 40.6135C143.267 41.9004 142.265 42.942 141.031 42.9405C139.796 42.939 138.796 41.8949 138.797 40.608C138.798 39.3212 139.799 38.2783 141.033 38.2783C141.627 38.2772 142.197 38.523 142.617 38.9613C143.037 39.3996 143.272 39.9942 143.27 40.6135Z" fill="#0E63FF"/>
</svg>
