<svg width="161" height="40" viewBox="0 0 161 40" fill="none" xmlns="http://www.w3.org/2000/svg">
<g clip-path="url(#clip0_4269_12114)">
<path d="M158.983 17.4742L159.259 17.2959C161.523 16.1473 161.277 12.7989 159.646 11.5863C158.465 10.7118 157.123 10.4511 155.699 10.4192C153.597 10.4023 151.494 10.436 149.409 10.4023C148.941 10.4023 148.795 10.515 148.809 11.0027C148.842 12.18 148.825 12.18 149.972 12.4255C150.248 12.476 150.41 12.555 150.41 12.893V22.6473C150.41 22.9383 150.312 23.0678 150.023 23.1149C149.619 23.1956 149.069 23.0644 148.874 23.4226C148.696 23.7455 148.824 24.2299 148.807 24.6503V24.7008C148.74 25.0371 148.919 25.1212 149.244 25.1212L156.408 25.1044C157.703 25.0876 158.995 24.8774 160.033 24.0365C162.345 22.1933 161.812 18.6514 158.982 17.4372L158.983 17.4742ZM153.677 12.735C154.616 12.7854 155.554 12.6374 156.493 12.8645C157.418 13.0747 157.932 13.7053 157.949 14.6303C157.966 15.5839 157.448 16.2986 156.543 16.4735C155.573 16.6838 154.602 16.5408 153.617 16.5711C153.375 16.5711 153.39 16.3928 153.39 16.2314V13.0949C153.373 12.8678 153.423 12.7585 153.681 12.7585L153.677 12.735ZM156.915 22.7449C155.83 22.9383 154.715 22.7953 153.615 22.829C153.373 22.829 153.388 22.6507 153.388 22.4893V18.9626C153.388 18.7036 153.469 18.6262 153.724 18.6262L156.752 18.6767C157.853 18.8062 158.433 19.5176 158.484 20.6662C158.517 21.8939 158.03 22.575 156.915 22.7684V22.7449ZM141.935 10.4377C139.914 10.4377 137.875 10.4545 135.854 10.4208C135.353 10.4208 135.158 10.5184 135.191 11.0683C135.242 12.217 135.208 12.2321 136.355 12.4423C136.646 12.4928 136.775 12.587 136.775 12.9435V22.6978C136.775 22.9887 136.678 23.1014 136.389 23.1653C135.211 23.3924 135.208 23.4075 135.211 24.6201C135.211 25.0237 135.292 25.1868 135.744 25.17L139.108 25.1532H142.034C144.994 25.1027 147.243 23.3419 147.907 20.4779C148.215 19.1324 148.069 17.8089 148.052 16.4668C148.035 12.9738 145.465 10.4511 141.954 10.4343L141.935 10.4377ZM144.991 19.8354C144.813 21.5037 143.645 22.9417 141.661 22.8626C141.193 22.8376 140.723 22.8376 140.255 22.8626C139.885 22.8794 139.754 22.7819 139.754 22.3951L139.771 17.787L139.754 13.226C139.754 12.8392 139.867 12.7249 140.255 12.7585C140.723 12.7921 141.193 12.7585 141.661 12.7585C143.487 12.7753 144.831 13.9357 145.025 15.7857C145.142 17.1362 145.135 18.4765 145.008 19.8455L144.991 19.8354Z" fill="#577138"/>
<path d="M122.843 14.356C122.877 14.0802 122.746 13.986 122.473 13.986H119.11C118.787 13.986 118.655 14.1139 118.608 14.4233L118.462 15.424C118.317 15.4408 118.269 15.3567 118.22 15.2962C116.731 13.3066 113.319 13.791 112.187 16.137C111.119 18.3233 111.039 20.5534 111.851 22.8171C112.319 24.1625 113.274 25.0975 114.713 25.3397C116.025 25.5819 117.236 25.3902 118.255 24.2213V25.222C118.126 26.6616 117.347 27.341 115.894 27.3242C115.457 27.3242 115.053 27.1947 114.616 27.1308C114.115 27.0467 113.582 26.5136 113.21 26.8718C112.887 27.1796 112.902 27.8422 112.756 28.3434C112.658 28.6663 112.773 28.8445 113.079 28.9572C114.485 29.524 115.924 29.7174 117.429 29.4903C119.306 29.2145 120.793 27.8085 121.101 25.9653C121.328 24.704 121.185 23.4427 121.198 22.178V16.6147C121.198 16.3557 121.165 16.1135 121.538 16.0647C122.816 15.8226 122.816 15.8057 122.783 14.4956C122.833 14.4284 122.833 14.3981 122.833 14.3661L122.843 14.356ZM117.668 22.7346C116.373 23.5251 114.902 23.0104 114.549 21.554C114.212 20.1144 114.212 18.6446 114.871 17.2655C115.194 16.6029 115.78 16.3405 116.472 16.3574C117.216 16.3742 117.847 16.6483 118.238 17.3277C118.306 17.4404 118.289 17.6035 118.306 17.7482V19.7528L118.322 21.6448C118.356 22.178 118.08 22.4857 117.675 22.7296L117.668 22.7346ZM76.6834 23.298C76.2966 23.3148 76.1334 23.1366 76.0039 22.7649L71.8634 10.8445C71.7659 10.5535 71.6364 10.4409 71.3303 10.4577H69.0986C68.7908 10.4577 68.6613 10.5552 68.5486 10.8445L66.6079 16.3607L64.3442 22.8456C64.2769 23.0559 64.2147 23.2324 63.9406 23.2829C63.1333 23.4124 63.1501 23.4275 63.1501 24.2213C63.1501 24.366 63.1669 24.5123 63.1501 24.6586C63.0997 25.0622 63.2477 25.1917 63.6513 25.1597L66.9644 25.1429C68.1753 25.1429 68.1416 25.1429 68.1921 23.9153C68.2089 23.4612 68.0946 23.219 67.6085 23.2509C67.3008 23.2678 67.1713 23.1534 67.2856 22.8305L68.0458 20.5181C68.1131 20.291 68.2392 20.2103 68.483 20.2103H71.897C72.1729 20.2103 72.267 20.3078 72.3478 20.55L73.1079 22.8624C73.1752 23.0559 73.1886 23.2493 72.9145 23.2324C72.2014 23.182 72.1241 23.5688 72.1712 24.1406C72.188 24.3424 72.188 24.5409 72.1712 24.7393C72.1375 25.0471 72.2839 25.1429 72.5916 25.1429H76.0056C77.2501 25.1429 77.2333 25.1429 77.2501 23.8984C77.267 23.4612 77.1223 23.2509 76.6834 23.2846V23.298ZM71.2008 18.0593H69.1911C68.9321 18.0593 68.8547 17.9752 68.9153 17.7229L70.0925 14.0516C70.143 14.0516 70.1732 14.0516 70.222 14.0348L71.3992 17.7717C71.4968 18.0307 71.3992 18.1114 71.1571 18.0946L71.2008 18.0593ZM109.742 23.2509C108.968 23.1534 108.982 23.1214 108.968 22.3125C108.935 20.5635 109.098 18.8027 108.856 17.057C108.516 14.5343 106.136 13.3032 103.844 14.388C103.26 14.6638 102.843 15.1481 102.388 15.5686C102.211 15.3096 102.243 15.0355 102.243 14.795C102.26 14.3443 102.082 14.2114 101.629 14.2282H98.3749C97.9208 14.2114 97.7913 14.3409 97.7913 14.795C97.8081 15.9756 97.7913 15.9722 98.9265 16.2177C99.2663 16.285 99.4277 16.396 99.4277 16.7845V22.6236C99.4277 22.9465 99.347 23.1248 98.9904 23.1736C97.9898 23.367 97.9898 23.3838 97.9898 24.4181C97.9898 24.5156 98.0066 24.5964 97.9898 24.6939C97.9393 25.0303 98.0873 25.1614 98.4439 25.1446H102.455C103.556 25.1446 103.523 25.1446 103.573 24.0262C103.59 23.4931 103.444 23.1854 102.894 23.1854C102.457 23.1854 102.393 22.9583 102.393 22.5547L102.409 17.6203C102.409 17.4589 102.393 17.2974 102.477 17.1528C102.785 16.6029 103.868 16.1992 104.663 16.3624C105.47 16.5238 105.891 16.9762 105.975 17.802C106.136 19.4367 106.008 21.0848 106.056 22.7363C106.072 23.0592 105.894 23.1231 105.635 23.1736C104.744 23.3838 104.744 23.3838 104.744 24.3222C104.744 24.4517 104.761 24.5812 104.744 24.6922C104.693 25.0286 104.856 25.1597 105.195 25.1597H109.206C110.383 25.1597 110.369 25.1598 110.416 23.9791C110.416 23.478 110.257 23.2829 109.771 23.2358L109.742 23.2509ZM96.8024 23.3148C96.2693 23.3653 96.2357 23.039 96.2357 22.6354V17.7011C96.2189 16.5238 95.7345 15.5148 94.7339 14.8555C93.4557 13.981 92.0144 13.9019 90.5631 14.1122C89.4834 14.2803 88.4541 14.6621 87.5359 15.276C87.2281 15.4862 87.1995 15.6796 87.4232 15.9722L88.3482 17.1495C88.5264 17.3916 88.624 17.3765 88.8493 17.1999C89.3963 16.7826 90.0154 16.4696 90.6757 16.2766C92.228 15.8259 93.1984 16.5524 93.232 18.1199C93.2489 18.621 93.1194 18.7371 92.6317 18.7202C91.1265 18.653 89.6717 18.8178 88.3263 19.5611C86.4007 20.6291 86.6109 23.1854 87.6301 24.2667C88.925 25.6408 91.4174 25.7383 92.9192 24.4601C93.047 24.3475 93.1463 24.1692 93.3699 24.1372C93.4204 24.2835 93.4994 24.4282 93.5146 24.5913C93.5818 25.0454 93.8055 25.1917 94.2579 25.1412C94.7591 25.0908 95.309 25.1244 95.827 25.1244C97.2498 25.1244 97.2498 25.1244 97.1859 23.7017C97.1691 23.409 97.0564 23.2644 96.7823 23.2812L96.8024 23.3148ZM92.7578 22.6842C92.0935 23.0878 91.4124 23.3317 90.6556 23.1046C90.1544 22.96 89.8954 22.6034 89.8651 22.0535C89.8315 21.4228 90.188 20.8258 90.706 20.5971C90.8506 20.5298 91.0138 20.4996 91.1735 20.4525C91.5032 20.3802 91.8395 20.3516 92.1759 20.3684C93.227 20.3684 93.2102 20.3684 93.227 21.3388C93.2102 21.8399 93.2943 22.3394 92.7258 22.6842H92.7578ZM128.506 14.0315C126.225 14.0315 124.429 15.2121 123.751 17.2016C123.25 18.5924 123.201 20.032 123.541 21.4733C123.783 22.558 124.284 23.4948 125.142 24.2398C126.306 25.2405 127.665 25.4507 129.153 25.3582C131.03 25.2287 132.374 24.2734 133.164 22.5749C133.731 21.364 133.778 20.0522 133.665 18.7572C133.389 15.8612 131.417 14.0348 128.519 14.0348L128.506 14.0315ZM130.058 22.3764C129.267 23.4612 127.438 23.33 126.82 22.1342C126.417 21.3741 126.287 20.5651 126.319 19.7882C126.302 18.9473 126.387 18.1871 126.74 17.4589C127.402 16.1 129.262 15.9235 130.103 17.1511C130.944 18.3486 130.911 21.179 130.023 22.3731L130.058 22.3764ZM85.8373 14.0785C84.8366 13.8364 83.8158 14.24 83.2019 15.0792C83.0892 15.2406 83.0405 15.4492 82.8151 15.5467C82.722 15.2942 82.6836 15.0248 82.7024 14.7563C82.7361 14.3527 82.5578 14.2551 82.1693 14.2551H79.0328C78.5316 14.2383 78.3046 14.3392 78.3366 14.9177C78.387 16.0193 78.3534 16.0361 79.4381 16.2632C79.7459 16.3304 79.9057 16.4246 79.8888 16.7643V22.6506C79.8888 22.9869 79.7913 23.1181 79.4516 23.1837C78.4509 23.3619 78.4812 23.3771 78.4812 24.3609C78.4812 25.1211 78.4812 25.1345 79.2245 25.1345H82.9615C84.3355 25.1345 84.3355 25.1345 84.3069 23.7757C84.3069 23.4393 84.2093 23.2745 83.8528 23.2745C83.6913 23.2745 83.5299 23.1938 83.3516 23.1938C82.9648 23.177 82.8504 23.0004 82.8504 22.6102L82.8673 18.3217C82.8673 17.4808 83.2877 16.9762 84.1286 16.8821C84.549 16.8316 85.0031 16.8652 85.4235 16.8652C85.617 16.8652 85.7599 16.8821 85.8104 16.6062L86.0542 14.4065C86.1047 14.1963 86.0374 14.1155 85.8272 14.0701L85.8373 14.0785Z" fill="#A2B24F"/>
<path d="M56.6976 18.1343C55.6078 14.5016 53.1776 11.7099 50.9795 8.71634C46.8424 3.1278 41.4691 0.0383906 36.5163 0.00475514C27.0395 -0.163422 20.3611 4.14191 17.492 10.9329C17.3713 11.3067 17.1466 11.6383 16.8443 11.8891C16.542 12.1398 16.1746 12.2993 15.785 12.349C12.6266 13.0755 9.46826 13.8003 6.52516 15.2887C4.52721 16.3062 2.49562 17.2497 1.2242 19.2072C-0.373483 21.6761 -0.19353 24.2896 0.423681 27.0107C2.02137 33.763 6.14171 37.9389 12.9125 39.4626C17.0867 40.3707 21.1532 40.2631 24.9658 38.0835C27.3623 36.7381 29.288 34.8175 31.1884 32.87C31.6593 32.3621 32.0226 32.2528 32.6398 32.5437L36.1261 34.2507C39.8293 36.1007 43.6066 37.6261 47.8514 37.3704C54.6037 36.9702 58.635 32.431 58.1994 25.825C58.0547 23.2115 57.4375 20.6536 56.674 18.1292L56.6976 18.1343ZM31.6845 27.3168C27.618 30.0413 23.4102 32.3991 18.5414 33.3796C16.9774 33.7058 15.4218 33.8135 14.3673 33.7428C10.4487 33.7428 7.14237 33.3426 4.23962 31.3463C0.825621 28.9498 -0.625748 23.7211 1.33688 20.0566C1.9541 18.8591 3.0052 17.988 4.16899 17.2984C8.19852 14.796 12.7006 13.6322 17.2751 12.6904C22.0294 11.6729 26.8612 10.5848 31.8325 10.6218C34.229 10.6218 36.3699 11.567 37.8953 13.4909C39.2407 15.2332 38.8405 17.1942 38.1863 19.0475C36.9823 22.4415 34.6998 25.3477 31.6879 27.3218L31.6845 27.3168ZM56.4066 30.2935C54.8812 34.1061 51.6522 35.3759 47.9843 35.9191C44.0657 36.4993 40.8317 34.651 37.4934 33.0869C36.4036 32.579 35.3508 31.9097 34.2274 31.4893C33.2469 31.126 33.1006 30.7627 33.9011 30.0715C35.1355 28.5075 36.3699 26.9518 37.3487 25.2061C38.5462 22.628 39.2727 19.9052 39.2727 17.0378C39.2727 12.608 36.9132 10.647 32.448 10.1425C31.5769 10.0349 30.6687 10.1055 29.7791 10.1055C26.7653 10.3241 23.7533 10.7782 20.7765 11.3399C20.1593 11.3029 19.3975 12.0126 18.9972 11.3769C18.7063 10.906 19.4311 10.3258 19.759 9.81286C21.9386 6.03727 25.2046 3.71306 29.3082 2.40464C32.9021 1.27785 36.4608 1.02558 40.1623 2.00438C43.2131 2.8049 45.3893 4.65317 47.3872 6.86975C49.8561 9.59422 52.1097 12.4263 53.9226 15.5814C55.7019 18.6674 56.5916 21.9721 56.8657 25.492C56.938 27.1267 57.0844 28.7244 56.4318 30.2851L56.4066 30.2935Z" fill="#577138"/>
<path d="M42.8261 34.0001C45.4951 35.1773 48.1994 34.9452 50.8515 33.9631C54.0839 32.7657 55.6059 30.2968 55.8229 26.9921C56.1138 22.3454 54.6456 18.2065 52.0103 14.4663L46.6707 7.57098C44.0017 4.66824 40.7895 2.84857 36.723 2.7443C32.5118 2.63667 28.5916 3.61546 25.0683 5.90267C23.1073 7.17073 21.4743 8.91641 20.7461 11.2759L29.7486 10.0415C29.9168 9.96752 30.1119 9.82289 30.2935 9.87334C31.8576 9.98097 33.3073 9.65471 34.7956 9.14681C36.538 8.5296 38.1726 9.22082 39.55 10.2366C42.5268 12.4498 44.5953 15.2483 44.5953 19.1298C44.5953 21.9249 42.1635 25.1556 38.7142 24.9353C38.2433 24.9017 37.7337 24.863 37.2964 25.1909C36.3513 26.9703 35.0832 28.494 33.8488 30.0547C35.026 31.2521 36.6456 31.4337 38.06 32.0728C39.5853 32.8733 41.2553 33.3442 42.8143 33.9967L42.8261 34.0001Z" fill="#DCDF72"/>
<path d="M53.8982 15.5931C52.0482 12.4348 49.7946 9.56736 47.3628 6.88157C45.3648 4.66835 43.1886 2.81504 40.1379 2.0162C36.4346 1.03572 32.876 1.28967 29.2837 2.41646C25.1802 3.68788 21.9142 6.04909 19.7346 9.82467C19.4436 10.3342 18.6835 10.9145 18.9727 11.3887C19.373 12.0059 20.15 11.3164 20.7521 11.3517C21.4786 8.99219 23.0763 7.24819 25.091 5.97845C28.5942 3.69123 32.5329 2.74608 36.7457 2.82008C40.8123 2.92771 44.0076 4.70872 46.6934 7.64678C48.6544 9.78936 50.3597 12.1842 52.0331 14.5421C54.6819 18.279 56.1366 22.4212 55.8457 27.0679C55.627 30.3709 54.1033 32.8414 50.8743 34.0389C48.2255 35.0177 45.5347 35.2363 42.8657 34.0759L38.1433 32.1872C36.7306 31.5145 35.0925 31.3161 33.9321 30.1557C33.098 30.8284 33.2594 31.2068 34.2584 31.5734C35.3852 32.0073 36.438 32.6632 37.5244 33.1711C40.8644 34.7351 44.1338 36.5851 48.0153 36.0032C51.6816 35.46 54.9106 34.1532 56.4376 30.376C57.0549 28.8119 56.9472 27.2176 56.8379 25.6216C56.6193 21.989 55.7111 18.6876 53.9352 15.6033L53.8982 15.5931ZM38.1399 19.0442C38.8126 17.1942 39.191 15.2316 37.849 13.4876C36.3236 11.5266 34.2164 10.6185 31.7862 10.6185C26.8468 10.5815 22.0201 11.6696 17.1917 12.687C12.6173 13.6675 8.11521 14.7926 4.08568 17.2951C2.90843 18.0216 1.87245 18.8928 1.25356 20.0532C-0.670393 23.7195 0.743989 28.9464 4.15631 31.343C7.05905 33.3746 10.3789 33.7395 14.2839 33.7395C15.3351 33.8118 16.9327 33.6655 18.4581 33.3762C23.3235 32.3974 27.5347 30.0362 31.6012 27.3135C34.6496 25.3704 36.9525 22.4547 38.1366 19.0391L38.1399 19.0442ZM29.7529 27.5758C26.3053 29.6444 22.819 31.6423 18.7911 32.3689C15.5251 32.9491 12.1817 33.1307 8.91404 32.2965C5.10146 31.3884 2.16172 27.9576 2.01877 24.0222C1.94477 21.8796 2.99924 20.1541 4.63393 18.7583C7.15659 16.6157 10.1905 15.4923 13.3825 14.801C13.4548 14.801 13.5507 14.9087 13.6735 14.9692C16.3424 12.9006 19.3915 12.5004 22.676 12.756C22.967 12.0833 23.6548 12.2851 24.1644 12.1388C26.9595 11.4661 29.7899 11.1583 32.5867 11.7385C37.8507 12.7896 38.5066 15.7327 36.7979 20.0129C35.4525 23.4605 32.8053 25.7309 29.7563 27.5808L29.7529 27.5758ZM38.7218 24.9606C42.1695 25.1793 44.603 21.9469 44.603 19.1552C44.603 15.2871 42.5344 12.4752 39.5577 10.2619C38.1399 9.26128 36.5439 8.55661 34.8033 9.17214C33.3149 9.68172 31.8635 10.0063 30.3012 9.89867C30.133 9.89867 29.9379 10.0433 29.7563 10.0668C30.6644 10.0668 31.5356 9.99285 32.4253 10.1038C36.8904 10.6134 39.2667 12.5727 39.2667 17.0025C39.2667 19.8716 38.5402 22.591 37.3428 25.1709C37.743 24.9152 38.2139 24.9152 38.7218 24.9522V24.9606Z" fill="#A2B24F"/>
<path d="M32.5889 11.7803C29.7921 11.2 26.9247 11.528 24.1666 12.1805C23.657 12.2882 22.9692 12.1082 22.6782 12.7977C25.8736 13.4149 28.3408 15.1573 30.0108 17.9692C31.3898 20.2564 31.0282 22.4713 28.921 24.2489C26.7061 26.1729 24.0556 27.081 21.1512 27.4073C17.2831 27.8412 13.7816 26.6808 10.5123 24.6828C9.60412 24.138 9.33504 23.4114 9.46117 22.4292C9.82275 19.3432 11.3851 16.9467 13.6723 14.9874C13.5647 14.9151 13.4537 14.8192 13.3814 14.8192C10.186 15.4919 7.15881 16.6355 4.63279 18.7764C2.9981 20.1555 1.96381 21.8961 2.01763 24.0404C2.16226 27.9085 5.13732 31.3729 8.9129 32.3147C12.2159 33.1153 15.5223 32.9656 18.79 32.387C22.7825 31.6605 26.3041 29.6626 29.7181 27.594C32.7689 25.744 35.4362 23.4905 36.7597 20.1151C38.502 15.7762 37.8495 12.8532 32.5856 11.8004L32.5889 11.7803Z" fill="#DCDF72"/>
<path d="M9.46464 22.4147C9.35701 23.3599 9.60928 24.1217 10.5158 24.6683C13.7818 26.6662 17.2681 27.8267 21.1547 27.3928C24.0238 27.0665 26.7112 26.1583 28.9245 24.2344C30.993 22.4551 31.3933 20.2419 30.0143 17.9546C28.3073 15.1595 25.8771 13.4172 22.6817 12.7832C19.4493 12.5309 16.365 12.9278 13.6792 14.9964C11.355 16.9573 9.81109 19.369 9.46801 22.4046L9.46464 22.4147Z" fill="#5E3108"/>
</g>
<defs>
<clipPath id="clip0_4269_12114">
<rect width="161" height="40" fill="white"/>
</clipPath>
</defs>
</svg>
