<svg width="120" height="40" viewBox="0 0 120 40" fill="none" xmlns="http://www.w3.org/2000/svg">
<g clip-path="url(#clip0_4271_12149)">
<path d="M32.5618 30.414C31.9672 30.4141 31.383 30.2581 30.868 29.9617C30.353 29.6653 29.9254 29.2389 29.6281 28.7254L17.7111 8.11207C17.3255 7.3407 17.2503 6.45154 17.5009 5.62669C17.7514 4.80184 18.3088 4.10372 19.0587 3.67531C19.8087 3.2469 20.6945 3.12061 21.5348 3.32231C22.3751 3.52401 23.1063 4.03844 23.5785 4.76024L35.4913 25.3736C35.7832 25.8861 35.9355 26.466 35.9329 27.0554C35.9304 27.6448 35.7733 28.2233 35.477 28.7334C35.1808 29.2435 34.7559 29.6674 34.2445 29.963C33.733 30.2585 33.1529 30.4155 32.5618 30.4182V30.414Z" fill="#0D2318"/>
<path d="M21.6892 11.3625C21.9888 10.8721 22.4097 10.4666 22.9115 10.1849C23.4134 9.90331 23.9794 9.75496 24.5553 9.75414C25.0647 9.75266 25.5676 9.8689 26.0245 10.0938C26.4813 10.3186 26.8797 10.646 27.1884 11.0501L27.2265 11.1008C27.2731 11.1641 27.3197 11.2274 27.362 11.295L27.3916 11.3372L23.5816 4.68841C23.573 4.67815 23.5659 4.66679 23.5604 4.65464C23.5223 4.58709 23.4757 4.52377 23.4334 4.46045L23.3741 4.3718C23.3276 4.30848 23.2768 4.24938 23.226 4.18606C23.2078 4.166 23.1908 4.14485 23.1752 4.12273V4.12273C22.9346 3.84897 22.6481 3.61899 22.3285 3.44308C21.5506 2.99978 20.6282 2.88193 19.7633 3.11533C18.8985 3.34874 18.1616 3.91439 17.7141 4.68841L5.80129 25.3735C5.57891 25.7577 5.4346 26.1818 5.37659 26.6216C5.31857 27.0613 5.348 27.5082 5.46318 27.9367C5.57836 28.3651 5.77704 28.7668 6.04788 29.1187C6.31872 29.4705 6.65641 29.7658 7.04168 29.9875C7.42694 30.2093 7.85223 30.3532 8.29327 30.411C8.73431 30.4689 9.18246 30.4395 9.61212 30.3247C10.0418 30.2098 10.4446 30.0117 10.7974 29.7416C11.1503 29.4716 11.4464 29.1348 11.6688 28.7506L21.6765 11.3583L21.6892 11.3625Z" fill="#FFEA4C"/>
<path d="M31.2082 17.9231C30.8263 17.181 30.1825 16.6061 29.4009 16.3092C28.6193 16.0122 27.7551 16.0142 26.9748 16.3147L11.0064 22.5371L10.7821 22.6258C10.529 22.7052 10.2607 22.7241 9.99893 22.6811C9.73714 22.6382 9.48915 22.5344 9.27493 22.3783C9.06072 22.2222 8.88629 22.0181 8.7657 21.7825C8.64511 21.5468 8.58174 21.2862 8.5807 21.0216C8.58129 20.7245 8.66169 20.433 8.81354 20.1774L5.79935 25.374L5.71469 25.5386L5.65118 25.6652L5.57498 25.8552L5.53688 25.9565C5.50725 26.0409 5.48608 26.1296 5.46068 26.2182C5.46258 26.2294 5.46258 26.2408 5.46068 26.252C5.43528 26.3533 5.41835 26.4504 5.40141 26.5517C5.31753 27.1357 5.38848 27.7313 5.60721 28.2794C5.82594 28.8275 6.18482 29.3088 6.64812 29.6756C7.11142 30.0424 7.66298 30.2818 8.24789 30.3699C8.8328 30.458 9.43066 30.3919 9.98195 30.178L29.4556 22.5794L30.2515 22.267C30.9961 21.9407 31.8336 21.8925 32.6109 22.1312C33.3882 22.37 34.0534 22.8797 34.4849 23.5672L31.2082 17.9231Z" fill="#ADD015"/>
<path fill-rule="evenodd" clip-rule="evenodd" d="M37.8516 16.0398C38.5325 16.0407 39.1983 15.8401 39.7649 15.4635C40.3314 15.0869 40.7732 14.5512 41.0344 13.9241C41.2955 13.2971 41.3643 12.6069 41.232 11.9408C41.0996 11.2748 40.7722 10.6629 40.291 10.1825C39.8098 9.7021 39.1966 9.37481 38.5288 9.24204C37.8611 9.10927 37.1688 9.17699 36.5397 9.43663C35.9105 9.69626 35.3728 10.1362 34.9944 10.7006C34.616 11.2651 34.4141 11.9288 34.4141 12.6078C34.4141 13.5173 34.7761 14.3896 35.4206 15.0331C36.0652 15.6766 36.9395 16.0387 37.8516 16.0398V16.0398Z" fill="#0D2318"/>
<path fill-rule="evenodd" clip-rule="evenodd" d="M20.6449 37.9998C21.3256 37.9998 21.991 37.7985 22.557 37.4214C23.123 37.0443 23.5641 36.5083 23.8246 35.8812C24.0851 35.254 24.1533 34.564 24.0205 33.8982C23.8877 33.2325 23.5599 32.6209 23.0786 32.141C22.5972 31.661 21.984 31.3341 21.3163 31.2017C20.6487 31.0693 19.9567 31.1372 19.3278 31.397C18.6989 31.6568 18.1613 32.0966 17.7832 32.661C17.405 33.2254 17.2031 33.889 17.2031 34.5678C17.2031 35.478 17.5657 36.351 18.2112 36.9946C18.8566 37.6382 19.7321 37.9998 20.6449 37.9998V37.9998Z" fill="#ADD015"/>
<path fill-rule="evenodd" clip-rule="evenodd" d="M3.44176 16.0399C4.12247 16.0399 4.7879 15.8386 5.35389 15.4615C5.91989 15.0843 6.36102 14.5483 6.62152 13.9212C6.88202 13.2941 6.95018 12.604 6.81738 11.9383C6.68458 11.2725 6.35678 10.661 5.87544 10.181C5.39411 9.70102 4.78084 9.37415 4.11321 9.24173C3.44557 9.1093 2.75355 9.17727 2.12465 9.43703C1.49575 9.69679 0.958225 10.1367 0.58004 10.7011C0.201855 11.2655 0 11.929 0 12.6078C0 13.5181 0.362612 14.391 1.00807 15.0346C1.65352 15.6783 2.52895 16.0399 3.44176 16.0399Z" fill="#FFEA4C"/>
<path d="M60.6182 21.2875L60.034 21.7941C59.0964 22.5893 57.9035 23.0223 56.6727 23.0141H55.4027C53.2394 23.0141 51.8635 21.7181 51.8635 19.6876V18.6449C51.8547 18.0632 52.0637 17.4991 52.4496 17.0627C52.8355 16.6264 53.3707 16.3491 53.9506 16.2851L59.7842 15.7026V15.0905C59.7842 14.3053 59.2212 13.7691 58.2306 13.7691H55.9361C55.0555 13.7401 54.1818 13.9332 53.396 14.3306L52.2996 12.1186C53.087 11.4853 54.4629 11.0801 56.1689 11.0801H59.6064C61.7739 11.0801 63.2006 12.3761 63.2006 14.4066V18.8264L64.9829 22.7608H61.2659L60.6182 21.2875ZM59.8054 17.961L56.3383 18.3832C55.627 18.4592 55.2968 18.8433 55.2968 19.3246V19.5272C55.2968 20.2617 55.8048 20.4686 56.7235 20.4686H57.1468C57.8618 20.4337 58.5476 20.1752 59.1069 19.7298L59.8223 19.2739L59.8054 17.961Z" fill="#141A1F"/>
<path d="M72.8148 24.639C72.3089 25.7077 71.4576 26.5759 70.3975 27.1043L68.3359 28.0921L67.0362 25.5593L67.9252 25.1371C68.6915 24.715 69.5551 24.2928 70.0927 23.2079L70.2705 22.8533L65.1523 11.333H69.1233L72.0867 19.282L75.6512 11.333H79.5967L72.8148 24.639Z" fill="#141A1F"/>
<path d="M90.539 22.3552C89.6203 22.9124 88.6297 23.0138 87.2285 23.0138H84.1212C81.9579 23.0138 80.582 21.7178 80.582 19.6873V14.3978C80.582 12.3673 81.9579 11.0713 84.1212 11.0713H88.6551C90.8184 11.0713 92.1942 12.3673 92.1942 14.3978V18.0029H83.9941V18.9696C83.9941 19.7295 84.553 20.2614 85.4716 20.2614H87.1015C87.8125 20.2967 88.5232 20.1846 89.1885 19.9321L91.0174 19.0034L92.317 21.2619L90.539 22.3552ZM83.9941 15.1154V15.6642H88.7821V15.1154C88.7821 14.3556 88.1979 13.8194 87.3047 13.8194H85.4716C84.553 13.8194 83.9941 14.3556 83.9941 15.1154Z" fill="#141A1F"/>
<path d="M102.966 21.2361L102.407 21.6583C101.539 22.3463 100.65 23.0049 99.2238 23.0049H97.3399C95.1766 23.0049 93.8008 21.6836 93.8008 19.6277V14.3974C93.8008 12.3669 95.1766 11.0709 97.3399 11.0709H99.2238C100.138 11.0836 101.025 11.3786 101.764 11.9152L102.187 12.1938V3.71289H105.599V18.851L107.356 22.7601H103.665L102.966 21.2361ZM102.179 14.963L101.489 14.4818C101.016 14.0761 100.419 13.8425 99.7953 13.819H98.7285C97.8098 13.819 97.2256 14.3552 97.2256 15.115V18.9143C97.2256 19.6742 97.8098 20.2314 98.7285 20.2314H99.7953C100.427 20.1857 101.024 19.9266 101.489 19.4969L102.179 18.9903V14.963Z" fill="#141A1F"/>
<path d="M108.16 19.6873V14.3978C108.16 12.3673 109.536 11.0713 111.699 11.0713H116.462C118.629 11.0713 120.001 12.3673 120.001 14.3978V19.6873C120.001 21.7178 118.629 23.0138 116.462 23.0138H111.699C109.536 23.0138 108.16 21.7178 108.16 19.6873ZM116.589 18.8008V15.2927C116.589 14.5329 116.005 14.001 115.086 14.001H113.033C112.118 14.001 111.555 14.5329 111.555 15.2927V18.8008C111.555 19.5606 112.118 20.0925 113.033 20.0925H115.069C115.996 20.0925 116.589 19.5606 116.589 18.8008V18.8008Z" fill="#141A1F"/>
</g>
<defs>
<clipPath id="clip0_4271_12149">
<rect width="120" height="35" fill="white" transform="translate(0 3)"/>
</clipPath>
</defs>
</svg>
