<svg width="48" height="48" viewBox="0 0 48 48" fill="none" xmlns="http://www.w3.org/2000/svg">
<path d="M16.3344 2.50052H29.9457L15.8159 44.0345C15.6706 44.4613 15.3942 44.8321 15.0254 45.0949C14.6565 45.3576 14.214 45.499 13.7599 45.4991H3.16703C2.82301 45.4991 2.48393 45.4179 2.17784 45.2621C1.87175 45.1063 1.60744 44.8805 1.40678 44.6033C1.20612 44.326 1.07488 44.0054 1.02391 43.6679C0.972945 43.3304 1.00372 42.9856 1.11369 42.6623L14.278 3.96508C14.4231 3.53811 14.6996 3.16707 15.0686 2.90424C15.4375 2.64141 15.8802 2.50054 16.3344 2.50052Z" fill="url(#paint0_linear_6070_15855)"/>
<path d="M36.1193 30.3594H14.5352C14.3346 30.3592 14.1385 30.4189 13.9725 30.5308C13.8066 30.6427 13.6784 30.8016 13.6048 30.9868C13.5312 31.172 13.5155 31.3749 13.5598 31.5691C13.6041 31.7633 13.7062 31.9397 13.853 32.0755L27.7225 44.9183C28.1263 45.292 28.658 45.4998 29.2102 45.4997H41.432L36.1193 30.3594Z" fill="#0078D4"/>
<path d="M16.3395 2.50099C15.8803 2.49924 15.4326 2.64319 15.0618 2.91181C14.691 3.18044 14.4164 3.55965 14.2783 3.99407L1.13494 42.6275C1.01757 42.952 0.980724 43.2999 1.02751 43.6415C1.0743 43.9832 1.20335 44.3087 1.40375 44.5904C1.60414 44.8721 1.86998 45.1018 2.17878 45.2601C2.48758 45.4183 2.83026 45.5005 3.17782 45.4995H14.0441C14.4488 45.4278 14.8271 45.2508 15.1403 44.9865C15.4534 44.7223 15.6903 44.3803 15.8267 43.9956L18.4477 36.332L27.8101 44.9954C28.2024 45.3174 28.6946 45.4954 29.2037 45.4995H41.38L36.0396 30.3592L20.4718 30.3628L29.9998 2.50099H16.3395Z" fill="url(#paint1_linear_6070_15855)"/>
<path d="M33.7229 3.96346C33.5779 3.53718 33.3018 3.16676 32.9334 2.90439C32.565 2.64202 32.123 2.50092 31.6695 2.50098H16.5C16.9535 2.501 17.3955 2.64213 17.7638 2.90449C18.1322 3.16685 18.4083 3.53722 18.5533 3.96346L31.7181 42.6622C31.8282 42.9856 31.859 43.3304 31.8081 43.668C31.7572 44.0057 31.626 44.3264 31.4253 44.6037C31.2247 44.8811 30.9603 45.107 30.6542 45.2628C30.348 45.4187 30.0089 45.5 29.6648 45.5H44.8348C45.1789 45.4999 45.518 45.4186 45.824 45.2627C46.1301 45.1068 46.3944 44.8808 46.595 44.6035C46.7956 44.3262 46.9268 44.0055 46.9776 43.6679C47.0285 43.3303 46.9977 42.9856 46.8876 42.6622L33.7229 3.96346Z" fill="url(#paint2_linear_6070_15855)"/>
<defs>
<linearGradient id="paint0_linear_6070_15855" x1="21.2953" y1="5.68686" x2="7.35985" y2="47.1838" gradientUnits="userSpaceOnUse">
<stop stop-color="#114A8B"/>
<stop offset="1" stop-color="#0669BC"/>
</linearGradient>
<linearGradient id="paint1_linear_6070_15855" x1="25.7159" y1="24.9947" x2="22.4515" y2="26.1073" gradientUnits="userSpaceOnUse">
<stop stop-opacity="0.3"/>
<stop offset="0.071" stop-opacity="0.2"/>
<stop offset="0.321" stop-opacity="0.1"/>
<stop offset="0.623" stop-opacity="0.05"/>
<stop offset="1" stop-opacity="0"/>
</linearGradient>
<linearGradient id="paint2_linear_6070_15855" x1="23.9162" y1="4.47896" x2="39.2181" y2="45.5711" gradientUnits="userSpaceOnUse">
<stop stop-color="#3CCBF4"/>
<stop offset="1" stop-color="#2892DF"/>
</linearGradient>
</defs>
</svg>
