<svg xmlns="http://www.w3.org/2000/svg" width="200" height="150" viewBox="30 92 330 205" preserveAspectRatio="xMinYMin meet">
<g transform="translate(0.000000,400.000000) scale(0.100000,-0.100000)"
fill="#000000" stroke="none">
<path fill-rule="evenodd" d="M1908 2855 c37 -9 77 -23 89 -33 l22 -17 -29 -170 c-16 -93 -34 -207
-40 -252 -13 -87 -23 -104 -34 -53 -8 44 -53 60 -166 60 l-90 0 0 -106 0 -106
98 4 c113 4 149 20 159 69 3 16 8 28 10 25 5 -4 -23 -183 -33 -218 -5 -16 -24
-18 -215 -18 l-209 0 0 415 0 415 186 0 c131 0 205 -5 252 -15z m402 -167 c62
-28 112 -79 130 -134 15 -46 8 -149 -13 -190 -19 -37 -73 -91 -110 -110 l-28
-15 24 -19 c21 -17 188 -274 203 -314 5 -14 -7 -16 -95 -16 -120 0 -120 0
-191 129 -90 164 -100 176 -148 179 l-42 3 0 -155 0 -156 -55 0 c-51 0 -55 2
-55 24 0 21 34 243 59 386 6 30 15 87 22 125 23 142 27 145 28 23 l1 -118 43
0 c117 1 177 44 177 129 0 85 -50 121 -168 121 l-54 0 7 53 c12 96 5 90 114
84 72 -4 110 -11 151 -29z m-1569 -1094 c19 -11 42 -37 53 -58 16 -32 17 -44
7 -77 -7 -24 -22 -44 -41 -56 l-29 -17 31 -15 c58 -28 71 -110 27 -172 -34
-49 -81 -62 -214 -63 l-120 -1 -3 244 -2 244 129 -5 c103 -4 135 -8 162 -24z
m449 -19 l0 -45 -100 0 -100 0 0 -55 0 -55 75 0 75 0 0 -40 0 -40 -75 0 -75 0
0 -60 0 -60 100 0 100 0 0 -39 c0 -23 -5 -41 -13 -44 -7 -3 -77 -6 -155 -6
l-142 -2 0 246 0 245 155 0 155 0 0 -45z m356 22 c109 -57 158 -159 133 -276
-15 -73 -59 -128 -126 -158 -49 -23 -70 -26 -177 -27 l-121 -1 -3 244 -2 244
132 -5 c96 -3 142 -9 164 -21z m471 -6 c24 -11 49 -34 58 -51 32 -62 9 -147
-50 -186 -25 -17 -26 -17 -7 -38 18 -20 112 -168 112 -177 0 -4 -70 -4 -112 0
-10 0 -36 36 -65 86 -42 74 -51 85 -75 85 l-28 0 0 -90 0 -90 -55 0 -55 0 0
246 0 247 118 -5 c94 -4 125 -9 159 -27z m458 18 c59 -17 129 -90 149 -158 20
-67 20 -84 1 -147 -21 -71 -73 -128 -141 -153 -176 -66 -344 43 -344 225 0 34
7 77 15 97 49 117 183 174 320 136z m528 -3 c21 -8 47 -22 57 -31 19 -17 19
-18 -2 -46 -24 -33 -43 -36 -84 -14 -59 31 -140 9 -174 -47 -28 -46 -28 -140
0 -186 21 -34 71 -62 111 -62 12 0 42 10 66 22 l45 23 25 -29 24 -28 -22 -24
c-54 -57 -175 -70 -260 -26 -186 94 -161 392 37 452 44 13 135 11 177 -4z
m227 -86 c0 -89 2 -100 18 -100 26 0 34 9 92 93 65 97 83 109 150 105 l51 -3
-75 -101 c-41 -56 -79 -105 -86 -109 -7 -5 -4 -14 12 -29 19 -19 158 -228 158
-239 0 -2 -63 -2 -112 2 -11 1 -44 42 -83 101 -58 90 -67 100 -94 100 l-30 0
-3 -102 -3 -103 -50 0 -50 0 -3 243 -2 242 55 0 55 0 0 -100z
M1660 2620 l0 -102 96 4 c91 3 97 5 120 31 31 36 33 104 5 138 -17
22 -28 24 -120 27 l-101 4 0 -102z
M560 1469 l0 -62 50 5 c61 6 80 21 80 62 0 45 -16 56 -77 56 l-53 0
0 -61z
M560 1280 l0 -60 53 0 c66 0 90 16 90 60 0 44 -24 60 -90 60 l-53 0
0 -60z
M1360 1375 l0 -155 53 0 c104 0 157 54 157 161 0 42 -6 65 -23 90
-30 45 -60 59 -129 59 l-58 0 0 -155z
M1850 1460 l0 -70 39 0 c53 0 91 31 91 75 0 43 -29 65 -87 65 l-43 0
0 -70z
M2322 1515 c-65 -28 -91 -140 -52 -221 34 -70 127 -93 196 -48 50 33
70 137 40 209 -28 65 -110 92 -184 60z"/>
</g>
</svg>
