<svg xmlns="http://www.w3.org/2000/svg" width="100" height="50" viewBox="0 0 400 200">
  <g>
    <!-- BR Logo -->
    <g transform="translate(50, 20)">
      <!-- B letter -->
      <path d="M 0,0 L 0,80 L 35,80 C 45,80 52,75 52,65 C 52,58 48,53 42,51 C 47,49 50,44 50,37 C 50,27 43,0 33,0 Z M 12,12 L 30,12 C 36,12 38,16 38,22 C 38,28 36,32 30,32 L 12,32 Z M 12,44 L 32,44 C 38,44 40,48 40,54 C 40,60 38,68 32,68 L 12,68 Z" fill="#000"/>
      
      <!-- R letter -->
      <path d="M 65,0 L 65,80 L 77,80 L 77,52 L 92,52 L 110,80 L 125,80 L 105,50 C 113,48 118,40 118,30 C 118,15 108,0 93,0 Z M 77,12 L 93,12 C 100,12 106,18 106,30 C 106,36 102,40 93,40 L 77,40 Z" fill="#000"/>
    </g>
    
    <!-- BEDROCK text -->
    <g transform="translate(15, 130)">
      <text x="0" y="0" font-family="Arial, Helvetica, sans-serif" font-size="32" font-weight="900" letter-spacing="2" fill="#000">BEDROCK</text>
    </g>
  </g>
</svg>
