<?xml version="1.0" encoding="UTF-8" standalone="no"?>
<svg
   viewBox="0 0 380 69.121216"
   version="1.1"
   id="svg5"
   xmlns:xlink="http://www.w3.org/1999/xlink"
   xmlns="http://www.w3.org/2000/svg"
   xmlns:svg="http://www.w3.org/2000/svg">
  <!-- Generator: Sketch 63.1 (92452) - https://sketch.com -->
  <title
     id="title1">Logo by VMware (Color)</title>
  <desc
     id="desc1">Created with Sketch.</desc>
  <defs
     id="defs4">
    <path
       d="M 57.894,0.739 V 160.51 L 4.077,191.435 C 1.557,186.987 0,181.728 0,175.886 v 0 V 48.013 C 0,36.78 5.298,31.109 15.221,25.38 v 0 L 57.894,0.739 Z"
       id="path-1" />
    <linearGradient
       x1="1.1847315"
       y1="50.066246"
       x2="5.1184692"
       y2="53.784485"
       id="linearGradient-3"
       gradientTransform="scale(0.55099288,1.8149055)"
       gradientUnits="userSpaceOnUse">
      <stop
         stop-color="#083A66"
         offset="0%"
         id="stop1" />
      <stop
         stop-color="#152B51"
         offset="100%"
         id="stop2" />
    </linearGradient>
    <path
       d="m 18.506,5.009 c 9.452,-5.458 21.089,-5.703 31.007,0.021 35.665,20.593 71.332,41.183 106.997,61.775 5.113,2.951 9.002,6.87 11.607,11.602 v 0 l -54.033,31.05 v -0.296 L 33.993,62.922 0.326,82.359 V 15.506 C 6.388,12.007 12.448,8.507 18.506,5.009 Z"
       id="path-4" />
    <linearGradient
       x1="15.494856"
       y1="24.744698"
       x2="39.993496"
       y2="24.744698"
       id="linearGradient-6"
       gradientTransform="scale(1.2428177,0.80462321)"
       gradientUnits="userSpaceOnUse">
      <stop
         stop-color="#083A66"
         offset="0%"
         id="stop3" />
      <stop
         stop-color="#417DA6"
         offset="100%"
         id="stop4" />
    </linearGradient>
  </defs>
  <g
     id="Logo-by-VMware-(Color)"
     stroke="none"
     stroke-width="1"
     fill="none"
     fill-rule="evenodd"
     transform="matrix(0.36236978,0,0,0.3792232,-9.4216142,-10.173041)">
    <g
       id="Bitnami-Logo"
       transform="matrix(0.56157816,0,0,0.51333339,26,26.401986)">
      <path
         d="m 397.836,177.515 c 0,11.041 -1.477,19.739 -4.396,25.852 -2.881,6.066 -8.457,9.015 -17.045,9.015 -5.909,0 -10.5,-1.507 -13.641,-4.478 -3.178,-3.046 -5.321,-7.075 -6.365,-11.977 -1.089,-5.071 -1.639,-11.265 -1.639,-18.412 0,-7.138 0.55,-13.308 1.639,-18.34 1.044,-4.904 3.185,-8.896 6.359,-11.867 3.155,-2.952 7.745,-4.449 13.647,-4.449 5.917,0 10.327,1.431 13.476,4.379 3.144,2.945 5.274,6.938 6.327,11.864 1.088,5.081 1.638,11.277 1.638,18.413 z M 416.33,144.33 c -1.81,-4.904 -4.445,-9.106 -7.825,-12.483 -2.924,-2.996 -6.772,-5.405 -11.432,-7.162 -4.596,-1.732 -9.647,-2.611 -15.017,-2.611 -6.042,0 -11.419,0.941 -15.979,2.793 -4.104,1.671 -7.909,4.409 -11.327,8.154 V 79.702 l -22.934,12.095 v 139.93 h 22.511 v -10.234 c 3.68,4.092 7.466,6.925 11.532,8.634 4.479,1.879 9.858,2.832 15.988,2.832 5.443,0 10.551,-0.88 15.188,-2.613 4.757,-1.779 8.508,-4.098 11.463,-7.082 3.387,-3.353 6.022,-7.557 7.829,-12.493 1.847,-4.929 3.065,-10.085 3.626,-15.325 0.538,-5.279 0.811,-11.324 0.811,-17.967 0,-6.642 -0.273,-12.687 -0.811,-17.969 -0.568,-5.233 -1.787,-10.342 -3.623,-15.18 z"
         id="b"
         fill="#181d1b" />
      <g
         id="i"
         transform="translate(435.587,90.034)"
         fill="#181d1b">
        <polygon
           id="Fill-1"
           points="0,22.053 22.895,22.053 22.895,0 0,0 " />
        <polygon
           id="Fill-2"
           points="0,141.693 22.895,141.693 22.895,33.372 0,33.372 " />
      </g>
      <path
         d="m 498.081,92.359 -22.931,12.094 v 96.791 c 0,5.479 1.135,10.564 3.372,15.11 2.23,4.598 5.656,8.351 10.178,11.155 4.521,2.798 10.075,4.218 16.506,4.218 h 13.581 v -19.763 h -9.568 c -7.494,0 -11.138,-3.841 -11.138,-11.741 v -57.049 h 20.706 V 125.272 H 498.081 V 92.359"
         id="t"
         fill="#181d1b" />
      <path
         d="m 584.889,122.074 c -5.467,0 -10.784,1.059 -15.809,3.144 -4.508,1.86 -8.512,4.523 -11.925,7.927 v -9.739 h -22.504 v 108.321 h 22.928 v -65.812 c 0,-7.592 2.021,-13.394 5.999,-17.244 4.034,-3.857 9.226,-5.812 15.437,-5.812 4.048,0 7.554,0.801 10.718,2.454 3.095,1.583 5.571,4.129 7.366,7.573 1.831,3.447 2.761,7.831 2.761,13.029 v 65.812 h 22.927 v -69.081 c 0,-13.231 -3.717,-23.526 -11.04,-30.598 -6.761,-6.618 -15.797,-9.974 -26.858,-9.974"
         id="n"
         fill="#181d1b" />
      <path
         d="m 699.136,185.668 v 6.872 c 0,14.557 -12.249,21.075 -24.39,21.075 -12.905,0 -19.174,-4.346 -19.174,-13.284 0,-4.711 1.792,-8.965 4.677,-11.103 3.177,-2.363 7.91,-3.56 14.067,-3.56 z m -21.86,-63.594 c -9.128,0 -16.725,1.164 -22.58,3.459 -5.902,2.311 -11.402,6.459 -16.351,12.328 l -0.433,0.514 15.155,14.243 0.479,-0.606 c 2.945,-3.735 6.061,-6.362 9.258,-7.811 3.206,-1.449 7.805,-2.186 13.668,-2.186 7.93,0 13.767,1.564 17.352,4.642 3.525,3.087 5.312,7.982 5.312,14.545 v 5.46 h -27.585 c -7.953,0 -14.833,1.322 -20.448,3.932 -5.627,2.614 -9.942,6.35 -12.819,11.103 -2.705,4.428 -4.32,11.118 -4.32,17.895 0,9.636 2.906,17.537 8.649,23.495 3.329,3.288 7.44,5.78 12.22,7.407 4.794,1.635 10.511,2.465 16.996,2.465 6.583,0 12.112,-0.869 16.431,-2.582 3.901,-1.548 7.699,-4.032 11.302,-7.391 v 8.741 H 722.07 V 159.55 c 0,-24.868 -15.071,-37.476 -44.794,-37.476 z"
         id="a"
         fill="#181d1b" />
      <path
         d="m 849.585,122.074 c -13.646,0 -24.915,5.137 -33.51,15.27 -6.916,-10.133 -17.163,-15.27 -30.474,-15.27 -5.641,0 -11.032,1.083 -16.023,3.218 -4.445,1.891 -8.375,4.529 -11.701,7.85 v -9.736 h -22.51 v 108.321 h 22.93 v -65.812 c 0,-7.591 2.02,-13.393 6.001,-17.244 4.033,-3.857 9.226,-5.812 15.438,-5.812 4.052,0 7.555,0.801 10.712,2.454 3.09,1.579 5.566,4.124 7.364,7.574 1.833,3.436 2.763,7.82 2.763,13.028 v 65.812 h 22.93 v -66.833 c 0,-6.966 2.087,-12.433 6.204,-16.248 4.209,-3.895 9.179,-5.787 15.199,-5.787 6.131,0 11.183,1.906 15.008,5.668 3.826,3.756 5.764,9.607 5.764,17.388 v 65.812 h 22.929 v -69.081 c 0,-12.942 -3.882,-23.238 -11.537,-30.601 -6.863,-6.615 -16.111,-9.971 -27.487,-9.971"
         id="m"
         fill="#181d1b" />
      <g
         id="g4"
         transform="translate(901.767,90.034)"
         fill="#181d1b">
        <polygon
           id="Fill-6"
           points="1.7053026e-13,141.693 22.899,141.693 22.899,33.372 1.7053026e-13,33.372 " />
        <polygon
           id="Fill-7"
           points="0.002,22.053 22.899,22.053 22.899,0 0.002,0 " />
      </g>
      <g
         id="Logo">
        <polyline
           id="Fill-10"
           fill="#004d69"
           points="171.608 135.818 137.993 116.411 104.378 135.818 137.993 155.416 171.608 135.818" />
        <polyline
           id="Fill-11"
           fill="#20323e"
           points="137.993 194.055 171.608 174.64 171.608 135.818 137.993 155.231 137.993 194.055" />
        <g
           id="Group-15"
           transform="translate(4,78)">
          <polyline
             id="Fill-12"
             fill="#181d1b"
             points="133.993 116.055 100.378 96.64 100.378 57.818 133.993 77.231 133.993 116.055" />
          <path
             d="m 214.084,31.457 v 92.192 l -80.091,46.24 -80.099,-46.24 c 0,-0.046 0,-0.094 0,-0.139 L 0.077,154.435 c 2.819,4.979 6.845,8.94 11.302,11.513 35.517,20.505 71.032,41.014 106.553,61.518 10.424,6.021 21.642,6.048 32.008,0.064 35.603,-20.558 71.21,-41.114 106.811,-61.669 9.971,-5.755 15.229,-14.89 15.229,-26.506 0,-40.964 0,-81.924 0,-122.891 0,-6.047 -1.32,-11.439 -3.863,-16.057 l -54.033,31.05"
             id="Fill-14"
             fill="#093a66" />
        </g>
        <g
           id="Group-18"
           transform="translate(0,41)">
          <mask
             id="mask-2"
             fill="#ffffff">
            <use
               xlink:href="#path-1"
               id="use4" />
          </mask>
          <g
             id="Clip-17" />
          <polygon
             id="Fill-16"
             fill="url(#linearGradient-3)"
             mask="url(#mask-2)"
             points="0,269 924.667,269 924.667,-40.174 0,-40.174 "
             style="fill:url(#linearGradient-3)" />
        </g>
        <g
           id="Group-21"
           transform="translate(104)">
          <mask
             id="mask-5"
             fill="#ffffff">
            <use
               xlink:href="#path-4"
               id="use5" />
          </mask>
          <g
             id="Clip-20" />
          <polygon
             id="Fill-19"
             fill="url(#linearGradient-6)"
             mask="url(#mask-5)"
             points="-104,310 820.667,310 820.667,0.826 -104,0.826 "
             style="fill:url(#linearGradient-6)" />
        </g>
      </g>
    </g>
    <g
       id="Vmware-Logo"
       transform="matrix(0.56157816,0,0,0.51333339,282.07964,164.48867)"
       fill="#717073"
       fill-rule="nonzero">
      <path
         d="M 201.47726,66.568908 180.93455,8.9854054 c -0.27667,-0.7659233 -0.6225,-1.8799935 -0.6225,-2.7851755 0,-2.5066579 2.07502,-4.874057 5.11838,-4.874057 2.62836,0 4.35754,1.7407346 5.11838,4.1777632 l 17.01517,49.5761229 17.1535,-49.7153817 c 0.76084,-2.3673991 2.35169,-4.0385044 4.98005,-4.0385044 h 0.55334 c 2.76669,0 4.42671,1.7407346 5.25672,4.0385044 L 252.52275,55.01043 269.81459,5.1557891 c 0.69167,-2.0888816 2.07502,-3.968875 4.84171,-3.968875 2.90503,0 4.98005,2.2281404 4.98005,4.7347983 0,0.905182 -0.415,1.9496228 -0.6225,2.7851754 L 258.33281,66.36002 c -1.03751,2.994063 -3.11253,4.595539 -5.53339,4.595539 h -0.415 c -2.62836,0 -4.56505,-1.601476 -5.53339,-4.595539 L 229.9742,17.48019 212.95903,66.36002 c -0.89917,2.994063 -2.90502,4.595539 -5.46422,4.595539 h -0.27667 c -2.62835,0.208888 -4.70338,-1.392587 -5.74088,-4.386651 M 351.15538,6.2698593 c 0,-2.7851754 2.21336,-5.1525746 4.98005,-5.1525746 2.90503,0 5.11839,2.2281404 5.11839,5.1525746 V 17.967596 c 4.98004,-11.3495898 15.97765,-16.7110525 23.30939,-16.7110525 3.04336,0 4.98005,2.2281404 4.98005,5.1525746 0,2.7851754 -1.86752,4.7347979 -4.49588,5.1525749 -13.07263,1.601476 -23.86273,11.488848 -23.86273,31.124335 v 23.116957 c 0,2.785175 -2.07502,5.152574 -4.98005,5.152574 -2.90503,0 -5.11838,-2.22814 -5.11838,-5.152574 z m 70.7582,65.3123647 c -18.26018,0 -33.13116,-14.204395 -33.13116,-35.093211 v -0.278518 c 0,-19.426598 13.48763,-35.0932103 31.81698,-35.0932103 19.64352,0 30.84863,16.2932763 30.84863,34.1880283 0,2.715546 -2.21335,4.734799 -4.63421,4.734799 h -48.00214 c 1.38335,14.622171 11.55095,22.838438 23.37856,22.838438 8.23092,0 14.24848,-3.272581 19.15936,-7.86812 0.76084,-0.626665 1.66001,-1.1837 2.83586,-1.1837 2.42086,0 4.35754,1.949623 4.35754,4.317022 0,1.1837 -0.48417,2.367399 -1.52168,3.272581 -6.3634,6.057757 -13.83347,10.165891 -25.10774,10.165891 M 441.5571,32.520138 C 440.51959,20.265366 433.60286,9.5424405 420.39189,9.5424405 c -11.55094,0 -20.26603,9.7481135 -21.58021,22.9776975 z M 279.56718,50.48452 v -0.278518 c 0,-14.343653 11.75845,-21.933257 28.84279,-21.933257 8.64591,0 14.73264,1.1837 20.81937,2.924435 v -2.3674 c 0,-12.254772 -7.47008,-18.521416 -20.1277,-18.521416 -6.7784,0 -10.72094,0.905182 -15.70099,3.133322 -0.6225,0.278518 -1.31418,0.417776 -1.79835,0.417776 -2.35169,0 -4.42671,-1.949622 -4.42671,-4.3170215 0,-2.0888816 0.89918,-3.41184 2.7667,-4.2473926 6.64006,-2.9244342 11.68928,-3.8992456 20.26603,-3.8992456 9.54509,0 16.87683,2.5066579 21.78771,7.5199737 4.56505,4.59554 6.91673,11.210331 6.91673,19.844375 V 66.29039 c 0,2.854805 -2.07502,5.013316 -4.84171,5.013316 -2.83586,0 -4.77255,-2.088881 -4.77255,-4.734798 V 60.093375 C 324.59512,66.29039 316.71005,71.791112 304.88243,71.791112 292.29398,71.651853 279.56718,64.410397 279.56718,50.48452 m 49.80049,-5.291834 v -6.545162 c -4.98005,-1.462217 -11.62011,-2.924434 -19.85103,-2.924434 -12.65762,0 -19.71269,5.500721 -19.71269,14.065136 v 0.278517 c 0,8.564415 7.81591,13.577731 17.01517,13.577731 12.38095,0 22.54855,-7.659233 22.54855,-18.451788 M 18.460467,5.7128242 C 16.247112,0.83876717 10.782892,-1.3893732 5.664509,0.90839656 0.54612563,3.2061663 -1.3213926,8.915776 0.96112969,13.789833 L 22.403006,60.720039 c 3.3892,7.380715 6.916734,11.210332 13.625966,11.210332 7.124237,0 10.236767,-4.177764 13.625967,-11.210332 0,0 18.675182,-41.011708 18.882684,-41.429485 0.207502,-0.417776 0.760841,-1.740734 2.697527,-1.740734 1.590848,0 2.974195,1.322958 2.974195,3.063693 V 60.720039 C 74.209345,66.917055 77.598545,72 84.169443,72 90.74034,72 94.267875,66.917055 94.267875,60.720039 V 27.924598 c 0,-6.336274 4.495877,-10.444408 10.651775,-10.444408 6.15589,0 10.23676,4.247393 10.23676,10.444408 v 32.795441 c 0,6.197016 3.3892,11.279961 9.9601,11.279961 6.5709,0 10.09843,-5.082945 10.09843,-11.279961 V 27.924598 c 0,-6.336274 4.49588,-10.444408 10.65177,-10.444408 6.1559,0 10.23677,4.247393 10.23677,10.444408 v 32.795441 c 0,6.197016 3.3892,11.279961 9.9601,11.279961 6.57089,0 10.09843,-5.082945 10.09843,-11.279961 V 23.398688 c 0,-13.7169888 -10.92844,-23.32584408 -24.1394,-23.32584408 -13.1418,0 -21.44188,9.19107898 -21.44188,9.19107898 -4.35754,-5.779239 -10.44427,-9.26070836 -20.68104,-9.26070836 -10.790101,0 -20.266027,9.19107896 -20.266027,9.19107896 C 85.27612,3.4846839 77.806047,0.00321454 71.580986,0.00321454 62.035893,0.07284392 54.427485,4.3202365 49.793273,14.973533 L 36.09814,47.490456 Z M 452.20887,9.5424405 c 0,-4.6651689 3.66587,-8.4947852 8.36925,-8.4947852 4.70338,0 8.36925,3.7599869 8.36925,8.3555264 v 0.069629 c 0,4.5955403 -3.66587,8.4947853 -8.36925,8.4947853 -4.70338,0 -8.36925,-3.829616 -8.36925,-8.4251559 m 15.14765,-0.069629 c 0,-3.8296163 -2.90503,-6.8933093 -6.7784,-6.8933093 -3.8042,0 -6.7784,3.1333224 -6.7784,6.8933093 v 0.069629 c 0,3.7599869 2.90503,6.8933099 6.7784,6.8933099 3.8042,0 6.7784,-3.202952 6.7784,-6.9629393"
         id="Shape" />
      <path
         d="m 457.64662,5.6682884 c 0,-0.501548 0.40601,-0.9314463 0.8797,-0.9314463 h 2.70676 c 1.01504,0 1.82707,0.2865989 2.30075,0.8597966 0.47369,0.4298982 0.6767,1.1463954 0.6767,1.9345422 0,1.2896948 -0.60903,2.1494914 -1.5564,2.5793901 l 1.21805,1.576293 c 0.13534,0.214949 0.27068,0.429899 0.27068,0.716497 0,0.501548 -0.40602,0.859797 -0.81203,0.859797 -0.40602,0 -0.6767,-0.214949 -0.8797,-0.501548 l -1.69173,-2.292791 h -1.42105 v 1.791243 c 0,0.501548 -0.40602,0.931446 -0.8797,0.931446 -0.47369,0 -0.8797,-0.429898 -0.8797,-0.931446 z m 3.51879,3.1525873 c 0.8797,0 1.28572,-0.501548 1.28572,-1.2180451 0,-0.7881468 -0.47369,-1.2180451 -1.35339,-1.2180451 h -1.75939 v 2.4360902 z"
         id="path5" />
    </g>
    <text
       id="by"
       font-family="Metropolis-Regular, Metropolis"
       font-size="45.1008px"
       font-weight="normal"
       fill="#717073"
       x="10.898335"
       y="13.655035"
       transform="scale(1.0459366,0.95608093)"
       style="stroke-width:0.536914"><tspan
         x="199.89212"
         y="209.62869"
         id="tspan5"
         style="stroke-width:0.536914">by</tspan></text>
  </g>
</svg>
