<svg width="139" height="28" viewBox="0 0 139 28" fill="none" xmlns="http://www.w3.org/2000/svg">
<path d="M3.65791 3.61833H6.67798C9.43821 3.61833 10.6546 4.49025 10.6546 6.2614C10.6546 7.80057 9.43821 8.84567 6.99667 8.84567H3.65791V3.61833ZM0 21.0335H7.40197C11.2919 21.0335 15.1819 19.6444 15.1819 15.1727C15.1819 12.5297 13.3282 10.5006 10.7449 10.207V10.1459C12.8585 9.51292 14.3162 7.97421 14.3162 5.65157C14.3162 1.90644 11.1187 0.485352 8.01201 0.485352H0V21.0335ZM3.65791 11.9786H7.16991C10.1307 11.9786 11.5291 12.7343 11.5291 14.8838C11.5291 17.5792 8.91016 17.9006 7.024 17.9006H3.65791V11.9786Z" fill="#010101"/>
<path d="M19.3164 21.033V0" stroke="#010101" stroke-width="3.47402" stroke-miterlimit="10"/>
<path d="M26.8714 14.0681C26.8714 11.8914 28.4111 9.89054 30.9666 9.89054C33.522 9.89054 35.0571 11.8918 35.0571 14.0681C35.0571 16.2445 33.522 18.2462 30.9666 18.2462C28.4106 18.2462 26.8714 16.2449 26.8714 14.0681ZM23.3867 14.0681C23.3867 18.4509 26.7528 21.3792 30.9666 21.3792C35.1752 21.3792 38.5464 18.4514 38.5464 14.0681C38.5464 9.68494 35.1757 6.75293 30.9666 6.75293C26.7528 6.75247 23.3867 9.68541 23.3867 14.0681Z" fill="#010101"/>
<path d="M43.6019 14.0681C43.6019 11.8914 45.1415 9.89054 47.697 9.89054C50.2525 9.89054 51.7876 11.8918 51.7876 14.0681C51.7876 16.2445 50.2525 18.2462 47.697 18.2462C45.1415 18.2462 43.6019 16.2449 43.6019 14.0681ZM40.1172 14.0681C40.1172 18.4509 43.4837 21.3792 47.697 21.3792C51.9057 21.3792 55.2769 18.4514 55.2769 14.0681C55.2769 9.68494 51.9061 6.75293 47.697 6.75293C43.4833 6.75247 40.1172 9.68541 40.1172 14.0681Z" fill="#010101"/>
<path d="M57.3984 7.1015H60.7099V9.2806H60.7645C61.375 7.97388 62.7095 6.75098 65.0325 6.75098C67.1827 6.75098 68.6677 7.59094 69.3917 9.33524C70.4075 7.56825 71.8879 6.75098 73.9741 6.75098C77.6909 6.75098 78.9989 9.39636 78.9989 12.7345V21.0337H75.5143V13.1396C75.5143 11.4 74.995 9.89044 72.9315 9.89044C70.7544 9.89044 69.9387 11.6889 69.9387 13.4855V21.0332H66.4587V12.734C66.4587 11.017 65.7616 9.89044 64.0764 9.89044C61.785 9.89044 60.8831 11.5685 60.8831 13.4286V21.0332H57.3984V7.1015Z" fill="#010101"/>
<path d="M93.3772 14.0683C93.3772 16.2474 91.8421 18.2464 89.282 18.2464C86.7261 18.2464 85.1869 16.2474 85.1869 14.0683C85.1869 11.8915 86.7261 9.88559 89.282 9.88559C91.8421 9.88559 93.3772 11.8915 93.3772 14.0683ZM81.8208 21.033H85.1322V18.9446H85.1869C86.2068 20.6227 88.0337 21.3789 89.9829 21.3789C94.274 21.3789 96.8614 18.1866 96.8614 14.0678C96.8614 9.94672 94.1012 6.75262 90.1246 6.75262C87.514 6.75262 86.116 7.96858 85.3916 8.87476H85.305V0H81.8203L81.8208 21.033Z" fill="#010101"/>
<path d="M101.926 12.6748C102.186 10.6689 103.466 9.36452 105.525 9.36452C107.702 9.36452 109.037 10.6421 109.069 12.6748H101.926ZM112.553 15.2864V14.3302C112.553 9.48074 109.912 6.75293 106.021 6.75293C101.803 6.75293 98.4414 9.68541 98.4414 14.0681C98.4414 18.4509 101.803 21.3792 106.021 21.3792C108.221 21.3792 110.289 20.5962 111.911 18.5967L109.415 16.714C108.545 17.7822 107.41 18.5967 105.67 18.5967C103.726 18.5967 102.154 17.347 101.926 15.2864H112.553Z" fill="#010101"/>
<path d="M114.817 7.1015H118.302V9.30792H118.361C119.117 7.7118 120.652 6.75098 122.483 6.75098C122.92 6.75098 123.325 6.83988 123.731 6.95796V10.3234C123.152 10.1798 122.597 10.0636 122.045 10.0636C118.766 10.0636 118.301 12.8229 118.301 13.5791V21.0337H114.816L114.817 7.1015Z" fill="#010101"/>
<path d="M131.529 9.89044C134.053 9.89044 135.651 11.5685 135.651 13.9838C135.651 16.3018 134.084 18.0729 131.501 18.0729C129.151 18.0729 127.406 16.2448 127.406 14.0384C127.406 11.5685 129.087 9.89044 131.529 9.89044ZM135.651 7.1015V9.1917H135.596C134.576 7.50667 132.745 6.75098 130.8 6.75098C126.505 6.75098 123.922 9.94508 123.922 14.0685C123.922 18.0118 126.682 21.2064 130.86 21.2064C132.604 21.2064 134.403 20.5414 135.424 19.1778H135.474V20.1955C135.474 22.9502 134.435 24.8677 131.064 24.8677C129.119 24.8677 127.666 24.1389 126.272 22.8548L124.186 25.7049C126.154 27.4534 128.509 28.0002 131.096 28.0002C136.526 28.0002 138.963 24.8038 138.963 19.7853V7.1015H135.651Z" fill="#010101"/>
</svg>
