<svg width="140" height="48" viewBox="0 0 140 48" fill="none" xmlns="http://www.w3.org/2000/svg">
<path d="M8.2295 33C7.0008 33 5.8819 32.7901 4.87204 32.3703C3.86238 31.9503 2.99529 31.3337 2.27207 30.5202C1.54812 29.7067 0.988483 28.7139 0.593347 27.5415C0.19766 26.3696 0 25.0222 0 23.4999C0 21.9778 0.21866 20.6263 0.656348 19.4453C1.09367 18.2645 1.69125 17.2717 2.44855 16.4668C3.20585 15.6623 4.08067 15.0497 5.07394 14.6295C6.06684 14.2101 7.11888 14 8.2295 14C8.98679 14 9.66414 14.0523 10.2615 14.1574C10.8588 14.2624 11.3762 14.3849 11.8141 14.5247C12.2514 14.6649 12.6049 14.8049 12.8742 14.9447C13.1434 15.0849 13.3287 15.1896 13.4298 15.2595L12.6976 17.3592C12.5461 17.2541 12.3273 17.1405 12.0414 17.018C11.7549 16.8958 11.423 16.7732 11.0443 16.6505C10.6655 16.5285 10.2492 16.4275 9.79475 16.3486C9.34048 16.2701 8.86079 16.2307 8.35587 16.2307C7.49762 16.2307 6.71509 16.3973 6.00827 16.7294C5.30126 17.062 4.69557 17.5429 4.19064 18.1727C3.6859 18.8028 3.29464 19.5683 3.01684 20.4691C2.73924 21.3703 2.60034 22.3807 2.60034 23.5001C2.60034 24.5852 2.72229 25.5735 2.96637 26.4658C3.2099 27.358 3.58035 28.1235 4.07698 28.7619C4.57307 29.4008 5.1876 29.8949 5.91966 30.2448C6.6519 30.5949 7.51402 30.7695 8.50729 30.7695C9.6179 30.7695 10.5393 30.6471 11.2714 30.402C12.0036 30.1573 12.5544 29.9388 12.9249 29.7459L13.556 31.8454C13.4381 31.9331 13.2279 32.0423 12.9249 32.1735C12.6219 32.3046 12.2433 32.432 11.7888 32.5538C11.3346 32.6762 10.8044 32.7811 10.1985 32.869C9.59267 32.9563 8.93632 33 8.2295 33Z" fill="#141A1F"/>
<path d="M23.7779 14.4199C24.3838 15.7321 24.9644 17.0572 25.5198 18.3958C26.0752 19.7341 26.6345 21.138 27.1984 22.6076C27.7621 24.0772 28.3383 25.6304 28.9278 27.2658C29.5165 28.9021 30.1476 30.6821 30.8209 32.6064H28.145C27.8586 31.8193 27.5896 31.0408 27.3373 30.271C27.0847 29.5011 26.8237 28.7226 26.5547 27.9353H18.6283L17.038 32.6066H14.4883C15.1612 30.6823 15.7923 28.9023 16.3814 27.266C16.9704 25.6306 17.5466 24.0776 18.1108 22.6078C18.6745 21.1382 19.2341 19.7342 19.7894 18.396C20.3448 17.0574 20.9254 15.7323 21.5311 14.4201H23.7779V14.4199ZM22.5916 17.3327C22.0023 18.645 21.4432 20.0096 20.9129 21.4268C20.3829 22.8437 19.8568 24.3228 19.3353 25.8619H25.8481C25.3093 24.34 24.7752 22.866 24.2451 21.4398C23.7147 20.014 23.1634 18.645 22.5916 17.3327Z" fill="#141A1F"/>
<path d="M45.2874 32.6064C44.917 31.9593 44.4924 31.2331 44.0127 30.4282C43.533 29.6237 43.0156 28.7881 42.46 27.9219C41.9046 27.0561 41.3282 26.1769 40.7308 25.2847C40.1334 24.3923 39.5402 23.5305 38.9511 22.6995C38.362 21.8686 37.79 21.0853 37.2348 20.3505C36.6796 19.6157 36.1656 18.9686 35.695 18.4084V32.606H33.2969V14.4199H35.2405C36.0315 15.2947 36.877 16.3137 37.7775 17.4771C38.6775 18.6407 39.5697 19.839 40.4532 21.0723C41.3366 22.3056 42.1696 23.5175 42.9522 24.7071C43.7347 25.8971 44.3951 26.9554 44.9339 27.8825V14.4199H47.332V32.6062H45.2874V32.6064Z" fill="#141A1F"/>
<path d="M83.5044 32.6064C83.1338 31.9593 82.7094 31.2331 82.2297 30.4282C81.75 29.6237 81.2323 28.7881 80.6771 27.9219C80.1215 27.0561 79.5451 26.1769 78.9479 25.2847C78.3503 24.3923 77.757 23.5305 77.1681 22.6995C76.5791 21.8686 76.007 21.0853 75.4516 20.3505C74.8964 19.6157 74.3826 18.9686 73.9117 18.4084V32.606H71.5137V14.4199H73.4573C74.2485 15.2947 75.094 16.3137 75.9944 17.4771C76.8947 18.6407 77.7867 19.839 78.6701 21.0723C79.5536 22.3056 80.3866 23.5175 81.1692 24.7071C81.9517 25.8971 82.6119 26.9554 83.1509 27.8825V14.4199H85.549V32.6062H83.5044V32.6064Z" fill="#141A1F"/>
<path d="M89.9922 14.4199H92.4409V32.6062H89.9922V14.4199Z" fill="#141A1F"/>
<path d="M104.407 33C103.179 33 102.06 32.7901 101.05 32.3703C100.04 31.9503 99.1728 31.3337 98.4498 30.5202C97.7259 29.7067 97.166 28.7139 96.7711 27.5415C96.3758 26.3696 96.1777 25.0222 96.1777 23.4999C96.1777 21.9778 96.3966 20.6263 96.8339 19.4453C97.2714 18.2645 97.869 17.2717 98.6263 16.4668C99.3836 15.6623 100.259 15.0497 101.252 14.6295C102.245 14.2101 103.297 14 104.407 14C105.165 14 105.842 14.0523 106.439 14.1574C107.036 14.2624 107.554 14.3849 107.992 14.5247C108.429 14.6649 108.783 14.8049 109.052 14.9447C109.321 15.0849 109.507 15.1896 109.607 15.2595L108.875 17.3592C108.724 17.2541 108.505 17.1405 108.219 17.018C107.933 16.8958 107.601 16.7732 107.222 16.6505C106.843 16.5285 106.427 16.4275 105.972 16.3486C105.518 16.2701 105.039 16.2307 104.534 16.2307C103.676 16.2307 102.893 16.3973 102.186 16.7294C101.479 17.062 100.873 17.5429 100.368 18.1727C99.8636 18.8028 99.4722 19.5683 99.1948 20.4691C98.917 21.3703 98.7781 22.3807 98.7781 23.5001C98.7781 24.5852 98.9 25.5735 99.1439 26.4658C99.3878 27.358 99.7581 28.1235 100.255 28.7619C100.751 29.4008 101.365 29.8949 102.097 30.2448C102.83 30.5949 103.692 30.7695 104.685 30.7695C105.796 30.7695 106.717 30.6471 107.449 30.402C108.181 30.1573 108.732 29.9388 109.103 29.7459L109.734 31.8454C109.616 31.9331 109.406 32.0423 109.103 32.1735C108.8 32.3046 108.421 32.432 107.967 32.5538C107.512 32.6762 106.982 32.7811 106.376 32.869C105.771 32.9563 105.114 33 104.407 33Z" fill="#141A1F"/>
<path d="M119.956 14.4199C120.562 15.7321 121.142 17.0572 121.698 18.3958C122.253 19.7341 122.812 21.138 123.376 22.6076C123.94 24.0772 124.516 25.6304 125.106 27.2658C125.694 28.9021 126.325 30.6821 126.999 32.6064H124.323C124.036 31.8193 123.768 31.0408 123.515 30.271C123.262 29.5011 123.002 28.7226 122.732 27.9353H114.806L113.216 32.6066H110.666C111.339 30.6823 111.97 28.9023 112.559 27.266C113.148 25.6306 113.724 24.0776 114.288 22.6078C114.852 21.1382 115.412 19.7342 115.967 18.396C116.522 17.0574 117.103 15.7323 117.709 14.4201H119.956V14.4199ZM118.769 17.3327C118.18 18.645 117.621 20.0096 117.091 21.4268C116.561 22.8437 116.034 24.3228 115.513 25.8619H122.026C121.487 24.34 120.953 22.866 120.423 21.4398C119.893 20.014 119.341 18.645 118.769 17.3327Z" fill="#141A1F"/>
<path d="M139.999 30.4807V32.6064H129.473V14.4199H131.921V30.4807H139.999Z" fill="#141A1F"/>
<path d="M59.4222 29.5493C56.2086 29.5493 53.6035 26.8417 53.6035 23.5001C53.6035 20.1591 56.2086 17.4512 59.4222 17.4512C62.636 17.4512 65.2409 20.1591 65.2409 23.5001C65.2409 26.8417 62.636 29.5493 59.4222 29.5493Z" fill="#141A1F"/>
<path d="M68.5632 23.4999C68.5632 28.7464 64.4718 32.9996 59.4251 32.9996C54.3781 32.9996 50.2871 28.7462 50.2871 23.4999C50.2871 18.2532 54.3781 14 59.4251 14C64.4718 13.9998 68.5632 18.253 68.5632 23.4999ZM59.425 16.3107C55.6055 16.3107 52.5098 19.5296 52.5098 23.4999C52.5098 27.4708 55.6055 30.6887 59.425 30.6887C63.2444 30.6887 66.3401 27.4708 66.3401 23.4999C66.3401 19.5294 63.2444 16.3107 59.425 16.3107Z" fill="#141A1F"/>
</svg>
