<svg width="162" height="40" viewBox="0 0 162 40" fill="none" xmlns="http://www.w3.org/2000/svg">
<g clip-path="url(#clip0_3102_7157)">
<path d="M9.5227 31C8.10093 31 6.80619 30.757 5.63765 30.2709C4.46932 29.7846 3.46598 29.0706 2.62911 28.1286C1.7914 27.1866 1.14382 26.0371 0.686588 24.6796C0.228721 23.3227 0 21.7625 0 19.9999C0 18.2375 0.253021 16.6726 0.759489 15.3051C1.26553 13.9378 1.95702 12.7883 2.83332 11.8563C3.70962 10.9247 4.72192 10.2154 5.87127 9.72888C7.02021 9.24325 8.23756 9 9.5227 9C10.399 9 11.1828 9.06054 11.8741 9.18227C12.5651 9.30379 13.1639 9.44571 13.6706 9.60758C14.1766 9.7699 14.5857 9.93199 14.8973 10.0939C15.2087 10.2562 15.4232 10.3775 15.5402 10.4584L14.6929 12.8896C14.5177 12.7679 14.2644 12.6364 13.9336 12.4945C13.6022 12.353 13.218 12.2111 12.7798 12.069C12.3415 11.9277 11.8598 11.8108 11.3339 11.7195C10.8083 11.6286 10.2532 11.5829 9.66893 11.5829C8.67582 11.5829 7.77032 11.7758 6.95242 12.1603C6.13431 12.5455 5.43344 13.1023 4.84917 13.8316C4.26512 14.5611 3.81236 15.4475 3.49092 16.4906C3.16969 17.5341 3.00896 18.704 3.00896 20.0001C3.00896 21.2565 3.15008 22.4009 3.43251 23.4341C3.71431 24.4672 4.14297 25.3535 4.71765 26.0928C5.29169 26.8325 6.00279 27.4046 6.84989 27.8098C7.6972 28.2151 8.69479 28.4173 9.84415 28.4173C11.1293 28.4173 12.1955 28.2756 13.0426 27.9918C13.8899 27.7084 14.5273 27.4554 14.9559 27.2321L15.6862 29.6631C15.5498 29.7647 15.3066 29.8911 14.9559 30.0429C14.6053 30.1948 14.1672 30.3423 13.6414 30.4833C13.1157 30.625 12.5023 30.7465 11.8012 30.8483C11.1001 30.9494 10.3406 31 9.5227 31Z" fill="#772953"/>
<path d="M27.5151 9.48633C28.2161 11.0057 28.888 12.54 29.5307 14.09C30.1734 15.6395 30.8205 17.2651 31.473 18.9668C32.1253 20.6685 32.792 22.4668 33.4742 24.3605C34.1554 26.2551 34.8857 28.3163 35.6648 30.5444H32.5684C32.237 29.633 31.9258 28.7316 31.6337 27.8402C31.3415 26.9488 31.0394 26.0474 30.7282 25.1358H21.5562L19.716 30.5446H16.7656C17.5443 28.3165 18.2746 26.2554 18.9563 24.3608C19.6377 22.4671 20.3045 20.6689 20.9574 18.967C21.6097 17.2654 22.2573 15.6398 22.8997 14.0902C23.5424 12.5402 24.2143 11.0059 24.9152 9.48655H27.5151V9.48633ZM26.1423 12.8591C25.4604 14.3785 24.8135 15.9586 24.1998 17.5995C23.5865 19.2402 22.9777 20.9528 22.3743 22.7349H29.9106C29.2871 20.9727 28.6691 19.266 28.0556 17.6146C27.4419 15.9637 26.804 14.3785 26.1423 12.8591Z" fill="#772953"/>
<path d="M52.4041 30.5444C51.9754 29.7951 51.4841 28.9542 50.929 28.0222C50.374 27.0907 49.7752 26.1232 49.1323 25.1202C48.4896 24.1177 47.8226 23.0997 47.1314 22.0666C46.4401 21.0333 45.7537 20.0354 45.072 19.0733C44.3903 18.1111 43.7285 17.2042 43.086 16.3533C42.4436 15.5025 41.8488 14.7532 41.3042 14.1046V30.5439H38.5293V9.48633H40.7783C41.6937 10.4993 42.6721 11.6792 43.714 13.0263C44.7555 14.3736 45.7878 15.7611 46.8101 17.1891C47.8325 18.6171 48.7964 20.0203 49.7019 21.3978C50.6074 22.7757 51.3715 24.0011 51.995 25.0746V9.48633H54.77V30.5441H52.4041V30.5444Z" fill="#772953"/>
<path d="M96.627 30.5444C96.1981 29.7951 95.707 28.9542 95.1519 28.0222C94.5968 27.0907 93.9978 26.1232 93.3554 25.1202C92.7125 24.1177 92.0455 23.0997 91.3544 22.0666C90.663 21.0333 89.9764 20.0354 89.2949 19.0733C88.6134 18.1111 87.9513 17.2042 87.3087 16.3533C86.6662 15.5025 86.0717 14.7532 85.5269 14.1046V30.5439H82.752V9.48633H85.001C85.9165 10.4993 86.8949 11.6792 87.9368 13.0263C88.9786 14.3736 90.0107 15.7611 91.033 17.1891C92.0553 18.6171 93.0192 20.0203 93.9247 21.3978C94.8302 22.7757 95.5942 24.0011 96.2179 25.0746V9.48633H98.9928V30.5441H96.627V30.5444Z" fill="#772953"/>
<path d="M104.135 9.48633H106.968V30.5441H104.135V9.48633Z" fill="#772953"/>
<path d="M120.812 31C119.39 31 118.095 30.757 116.927 30.2709C115.758 29.7846 114.755 29.0706 113.918 28.1286C113.08 27.1866 112.433 26.0371 111.976 24.6796C111.518 23.3227 111.289 21.7625 111.289 19.9999C111.289 18.2375 111.542 16.6726 112.048 15.3051C112.555 13.9378 113.246 12.7883 114.122 11.8563C114.999 10.9247 116.011 10.2154 117.16 9.72888C118.309 9.24325 119.527 9 120.812 9C121.688 9 122.472 9.06054 123.163 9.18227C123.854 9.30379 124.453 9.44571 124.96 9.60758C125.466 9.7699 125.875 9.93199 126.187 10.0939C126.498 10.2562 126.712 10.3775 126.829 10.4584L125.982 12.8896C125.807 12.7679 125.553 12.6364 125.222 12.4945C124.891 12.353 124.507 12.2111 124.069 12.069C123.631 11.9277 123.149 11.8108 122.623 11.7195C122.097 11.6286 121.542 11.5829 120.958 11.5829C119.965 11.5829 119.059 11.7758 118.241 12.1603C117.423 12.5455 116.723 13.1023 116.138 13.8316C115.554 14.5611 115.101 15.4475 114.78 16.4906C114.459 17.5341 114.298 18.704 114.298 20.0001C114.298 21.2565 114.439 22.4009 114.721 23.4341C115.004 24.4672 115.432 25.3535 116.007 26.0928C116.581 26.8325 117.292 27.4046 118.139 27.8098C118.986 28.2151 119.984 28.4173 121.133 28.4173C122.418 28.4173 123.485 28.2756 124.332 27.9918C125.179 27.7084 125.817 27.4554 126.245 27.2321L126.975 29.6631C126.839 29.7647 126.596 29.8911 126.245 30.0429C125.894 30.1948 125.457 30.3423 124.931 30.4833C124.405 30.625 123.792 30.7465 123.09 30.8483C122.389 30.9494 121.63 31 120.812 31Z" fill="#772953"/>
<path d="M138.804 9.48633C139.505 11.0057 140.177 12.54 140.82 14.09C141.462 15.6395 142.11 17.2651 142.762 18.9668C143.415 20.6685 144.081 22.4668 144.763 24.3605C145.444 26.2551 146.175 28.3163 146.954 30.5444H143.858C143.526 29.633 143.215 28.7316 142.923 27.8402C142.631 26.9488 142.329 26.0474 142.017 25.1358H132.845L131.005 30.5446H128.055C128.833 28.3165 129.563 26.2554 130.245 24.3608C130.927 22.4671 131.594 20.6689 132.246 18.967C132.899 17.2654 133.546 15.6398 134.189 14.0902C134.831 12.5402 135.503 11.0059 136.204 9.48655H138.804V9.48633ZM137.431 12.8591C136.749 14.3785 136.102 15.9586 135.489 17.5995C134.876 19.2402 134.267 20.9528 133.663 22.7349H141.2C140.576 20.9727 139.958 19.266 139.344 17.6146C138.731 15.9637 138.093 14.3785 137.431 12.8591Z" fill="#772953"/>
<path d="M162.001 28.083V30.5444H149.82V9.48633H152.654V28.083H162.001Z" fill="#772953"/>
<path d="M68.7604 27.0044C65.0418 27.0044 62.0273 23.8694 62.0273 20.0001C62.0273 16.1316 65.0418 12.9961 68.7604 12.9961C72.4792 12.9961 75.4935 16.1316 75.4935 20.0001C75.4935 23.8694 72.4792 27.0044 68.7604 27.0044Z" fill="#772953"/>
<path d="M79.3375 19.9999C79.3375 26.0748 74.6032 30.9996 68.7635 30.9996C62.9233 30.9996 58.1895 26.0746 58.1895 19.9999C58.1895 13.9247 62.9233 9 68.7635 9C74.6032 8.99978 79.3375 13.9245 79.3375 19.9999ZM68.7633 11.6756C64.3436 11.6756 60.7614 15.4027 60.7614 19.9999C60.7614 24.5978 64.3436 28.3238 68.7633 28.3238C73.1829 28.3238 76.7651 24.5978 76.7651 19.9999C76.7651 15.4024 73.1829 11.6756 68.7633 11.6756Z" fill="#772953"/>
</g>
<defs>
<clipPath id="clip0_3102_7157">
<rect width="162" height="40" fill="white"/>
</clipPath>
</defs>
</svg>
