<?xml version="1.0" encoding="UTF-8"?>
<svg version="1.1" xmlns="http://www.w3.org/2000/svg" width="3334" height="1668">
<path d="M0 0 C2.07345563 1.54777709 4.15919815 3.07757319 6.24804688 4.60449219 C17.94293862 13.19983454 28.873316 22.54865779 39.59960938 32.31933594 C40.98711897 33.56896997 42.38072547 34.81217818 43.79542542 36.03094482 C48.6674311 40.23126114 53.28951858 44.616383 57.83007812 49.17089844 C58.53462631 49.8744899 59.2391745 50.57808136 59.96507263 51.30299377 C61.44270554 52.77995117 62.91909644 54.25815211 64.39428711 55.73754883 C66.63283669 57.98145554 68.8766766 60.21997173 71.12109375 62.45800781 C72.56607591 63.90365087 74.01074779 65.34960414 75.45507812 66.79589844 C76.44599205 67.78377602 76.44599205 67.78377602 77.45692444 68.79161072 C81.8610658 73.21763731 86.00631514 77.81622743 90.07617188 82.54980469 C91.12165764 83.74112946 92.16833044 84.93141482 93.21679688 86.12011719 C99.47871898 93.2640982 105.52291076 100.52237651 111.33789062 108.03417969 C113.66669675 111.04092901 116.05178761 113.99773787 118.45092773 116.94848633 C151.00124734 157.11595152 177.77099014 202.54618494 201.07617188 248.54980469 C201.67268555 249.7201123 201.67268555 249.7201123 202.28125 250.9140625 C204.23690421 254.75153868 206.16347428 258.60176294 208.05712891 262.47021484 C208.78388427 263.95332509 209.51444546 265.43457292 210.24755859 266.91455078 C237.40538954 321.85006259 257.59950118 380.33444799 273.07617188 439.54980469 C273.36527435 440.62211838 273.36527435 440.62211838 273.66021729 441.71609497 C274.56264653 445.14581058 275.07617188 447.97586688 275.07617188 451.54980469 C276.33429688 451.24042969 277.59242187 450.93105469 278.88867188 450.61230469 C289.84047235 448.21267586 301.04096854 448.30839685 312.20117188 448.29980469 C312.99307922 448.29912994 313.78498657 448.2984552 314.60089111 448.29776001 C361.16323422 448.36040833 408.25918207 460.52917699 444.07617188 491.54980469 C444.86894531 492.23300781 445.66171875 492.91621094 446.47851562 493.62011719 C491.97219311 533.72354853 512.19009159 590.23090974 516.23304927 649.86371446 C517.203928 666.20254039 517.21555538 682.54262863 517.1922375 698.9033761 C517.18785105 702.77759948 517.18938513 706.65182159 517.19013977 710.52604675 C517.1906599 717.21169312 517.18756708 723.8973296 517.18190193 730.58297348 C517.17371685 740.24886356 517.17116459 749.91474895 517.16991394 759.58064212 C517.16773434 775.2692589 517.16110408 790.95787044 517.15161133 806.64648438 C517.14240881 821.87141901 517.13534193 837.0963522 517.13110352 852.32128906 C517.13084079 853.26238674 517.13057807 854.20348443 517.13030738 855.17310022 C517.12900219 859.89509684 517.12773852 864.61709347 517.12649548 869.33909011 C517.11615691 908.40933297 517.09773711 947.4795661 517.07617188 986.54980469 C480.44617187 986.54980469 443.81617187 986.54980469 406.07617188 986.54980469 C406.06158936 977.09767334 406.04700684 967.64554199 406.03198242 957.90698242 C405.98312187 927.58952702 405.91968446 897.27211757 405.84718559 866.95470985 C405.83591877 862.2376291 405.8247801 857.52054804 405.8137207 852.8034668 C405.81151702 851.86446567 405.80931334 850.92546454 405.80704287 849.95800883 C405.77176644 834.7966178 405.74684799 819.6352268 405.72582486 804.47381007 C405.70398559 788.89192542 405.67085886 773.31009357 405.62747031 757.7282539 C405.60109284 748.13006689 405.58329541 738.53194553 405.57682583 728.93372411 C405.57152904 722.33266801 405.55517037 715.73169419 405.53050622 709.13068234 C405.5166364 705.33446852 405.5072649 701.53840147 405.51116371 697.7421608 C405.53037453 674.06653824 404.21217101 651.26453726 397.07617188 628.54980469 C396.8612207 627.86370117 396.64626953 627.17759766 396.42480469 626.47070312 C391.27826661 610.53874446 383.24200605 596.02677848 372.07617188 583.54980469 C371.53992187 582.87175781 371.00367187 582.19371094 370.45117188 581.49511719 C361.73664146 570.64552682 349.37260121 562.75415236 337.07617188 556.54980469 C336.16061523 556.08598389 336.16061523 556.08598389 335.2265625 555.61279297 C321.92205492 549.01913416 307.78998551 545.29711843 293.07617188 543.54980469 C293.24221924 544.96567871 293.24221924 544.96567871 293.41162109 546.41015625 C296.87517355 576.08855268 299.40916437 605.65653369 300.07617188 635.54980469 C300.09953613 636.57090332 300.12290039 637.59200195 300.14697266 638.64404297 C301.75920873 721.97903536 286.79608148 805.58062616 238.07617188 928.54980469 C237.62661133 929.51595703 237.17705078 930.48210938 236.71386719 931.47753906 C221.47838455 964.09405639 203.44457685 994.87291805 183.07617188 1024.54980469 C182.60904785 1025.23042969 182.14192383 1025.91105469 181.66064453 1026.61230469 C171.20344737 1041.74568319 159.96007313 1056.50903879 148.07617188 1070.54980469 C147.62854492 1071.08089844 147.18091797 1071.61199219 146.71972656 1072.15917969 C140.55143323 1079.46731108 134.25465773 1086.63062766 127.74414062 1093.63574219 C126.37183996 1095.13462402 125.00205922 1096.63698304 123.68579102 1098.18530273 C118.14180624 1104.70279772 112.08096882 1110.69589533 106.0246582 1116.73168945 C104.14288913 1118.60809944 102.26652449 1120.48979438 100.390625 1122.37207031 C94.45311077 1128.31287975 88.48423709 1134.11286362 82.07617188 1139.54980469 C80.30046967 1141.16948285 78.5290888 1142.79392187 76.76367188 1144.42480469 C72.32985876 1148.46382622 67.79562604 1152.32487347 63.12695312 1156.08886719 C60.90328514 1157.88260705 58.69418709 1159.68852852 56.49414062 1161.51074219 C23.17548749 1189.02582863 -13.65755108 1212.55032945 -51.92382812 1232.54980469 C-53.03822266 1233.1322998 -54.15261719 1233.71479492 -55.30078125 1234.31494141 C-123.85893208 1269.97869233 -198.42188111 1291.77601914 -308.92382812 1304.54980469 C-310.20467285 1304.63593018 -311.48551758 1304.72205566 -312.80517578 1304.81079102 C-327.17132721 1305.71360578 -341.53363832 1305.74984971 -355.92382812 1305.73730469 C-357.2061734 1305.73670044 -358.48851868 1305.73609619 -359.8097229 1305.73547363 C-380.25168824 1305.70938732 -400.55621172 1305.30965848 -420.92382812 1303.54980469 C-421.67013489 1303.48664063 -422.41644165 1303.42347656 -423.18536377 1303.35839844 C-500.13447679 1296.80868386 -576.19647224 1280.23614595 -760.92382812 1189.54980469 C-761.7035498 1189.01355469 -762.48327148 1188.47730469 -763.28662109 1187.92480469 C-773.71532394 1180.7384038 -784.02768654 1173.46027478 -793.92382812 1165.54980469 C-794.54177246 1165.05657715 -795.1597168 1164.56334961 -795.79638672 1164.05517578 C-802.98532763 1158.30012853 -810.10199189 1152.4600279 -817.11132812 1146.48730469 C-817.60818115 1146.06594238 -818.10503418 1145.64458008 -818.61694336 1145.21044922 C-829.81194786 1135.59238119 -840.34994509 1125.28677779 -850.76464844 1114.83935547 C-852.81396324 1112.78462961 -854.86864075 1110.73537366 -856.92382812 1108.68652344 C-858.25487837 1107.35481303 -859.58561874 1106.02279281 -860.91601562 1104.69042969 C-861.51719208 1104.09127747 -862.11836853 1103.49212524 -862.73776245 1102.87481689 C-866.99507392 1098.59429411 -870.9879685 1094.12605105 -874.92382812 1089.54980469 C-875.90881172 1088.42029331 -876.89437169 1087.29128392 -877.88085938 1086.16308594 C-884.05750129 1079.04290872 -889.97669937 1071.79087599 -895.63769531 1064.25244141 C-896.96233413 1062.49882882 -898.30485995 1060.76008248 -899.65039062 1059.02246094 C-930.67021912 1018.69615391 -954.68462273 973.5161002 -973.92382812 926.54980469 C-974.53226563 927.13246094 -975.14070313 927.71511719 -975.76757812 928.31542969 C-1009.77347766 960.12094749 -1053.3566175 980.09789397 -1098.92382812 988.54980469 C-1100.11468018 988.77506836 -1100.11468018 988.77506836 -1101.32958984 989.00488281 C-1173.29170119 1002.22090161 -1251.68799909 990.27151885 -1312.69726562 949.01855469 C-1320.87548675 943.373145 -1328.45832244 937.09738031 -1335.92382812 930.54980469 C-1336.84421875 929.75316406 -1337.76460937 928.95652344 -1338.71289062 928.13574219 C-1343.21733308 924.17564323 -1347.37989038 920.12948815 -1351.24023438 915.53808594 C-1352.34162281 914.23737431 -1353.47394823 912.96209095 -1354.63867188 911.71777344 C-1367.20834795 898.24456885 -1377.21303314 882.71575234 -1385.92382812 866.54980469 C-1386.46015869 865.56778076 -1386.46015869 865.56778076 -1387.00732422 864.56591797 C-1410.55667523 821.07894155 -1419.18467761 771.63081628 -1419.11132812 722.61230469 C-1419.11072388 721.85523224 -1419.11011963 721.09815979 -1419.10949707 720.31814575 C-1418.96247187 651.85371072 -1400.0660826 580.73167425 -1351.53710938 530.28027344 C-1349.32610185 527.97011759 -1347.23484263 525.61731624 -1345.17382812 523.17480469 C-1341.7424755 519.22504628 -1337.9310154 515.90177201 -1333.92382812 512.54980469 C-1332.63025391 511.42445313 -1332.63025391 511.42445313 -1331.31054688 510.27636719 C-1276.21721349 463.01090932 -1202.53759735 447.43189015 -1131.48632812 452.29980469 C-1083.69089068 456.01525453 -1035.68117005 470.64654784 -996.92382812 499.54980469 C-996.31990234 499.9982373 -995.71597656 500.44666992 -995.09375 500.90869141 C-983.54973511 509.55424948 -973.00088172 519.23840101 -962.92382812 529.54980469 C-960.05837842 526.01620926 -957.30029181 522.4132446 -954.56347656 518.78027344 C-944.29498008 505.20310716 -933.35884956 492.80255904 -921.36132812 480.73730469 C-920.83043579 480.20105469 -920.29954346 479.66480469 -919.75256348 479.11230469 C-912.81140623 472.11811244 -905.65831612 465.67525177 -897.92382812 459.54980469 C-896.59506109 458.45346687 -895.2692126 457.35357523 -893.94726562 456.24902344 C-869.35657307 435.87832975 -837.30947882 409.72566133 -807.32162476 398.1605835 C-804.87095258 396.74166068 -804.06980618 396.05330688 -803.27201366 393.30158997 C-803.01728089 390.27009055 -802.99317123 387.30579287 -803.03735352 384.26367188 C-803.02657776 383.11216644 -803.015802 381.96066101 -803.00469971 380.77426147 C-802.97726992 376.96442034 -802.99920732 373.15652791 -803.02148438 369.34667969 C-803.01210356 366.70679493 -802.99964843 364.06691944 -802.98423767 361.42706299 C-802.95299814 355.18673095 -802.95727239 348.9469489 -802.97431225 342.70658231 C-802.99371798 334.90421808 -802.96570926 327.10211721 -802.9375 319.29980469 C-802.88739269 305.38286128 -802.9090044 291.46716671 -802.92382812 277.54980469 C-766.62382813 277.54980469 -730.32382813 277.54980469 -692.92382812 277.54980469 C-692.92382812 294.70980469 -692.92382812 311.86980469 -692.92382812 329.54980469 C-686.57689486 325.59230512 -680.23072735 321.63408633 -673.89276123 317.662323 C-671.32180557 316.05131541 -668.75014988 314.44148723 -666.17578125 312.8359375 C-642.25528532 297.90624866 -618.75893419 282.09582295 -595.92382812 265.54980469 C-595.17713867 265.01129883 -594.43044922 264.47279297 -593.66113281 263.91796875 C-583.03507696 256.23903371 -572.71032299 248.28107263 -562.60449219 239.93066406 C-560.33694102 238.06760924 -558.03801465 236.24543133 -555.73632812 234.42480469 C-546.96945899 227.42604362 -538.466598 220.12192699 -530.16601562 212.57714844 C-528.21174388 210.8101327 -526.23323075 209.08066939 -524.23632812 207.36230469 C-513.75801495 198.19378066 -503.78080244 188.50335288 -493.92382812 178.67480469 C-493.03993408 177.79550293 -492.15604004 176.91620117 -491.24536133 176.01025391 C-486.82392079 171.57831911 -482.54459855 167.08633986 -478.46582031 162.33691406 C-476.22560439 159.74059036 -473.88614856 157.24659014 -471.54882812 154.73730469 C-467.25631605 150.09076341 -463.19044781 145.30881229 -459.22460938 140.37792969 C-457.18572468 137.87172847 -455.10021558 135.41404407 -452.9909668 132.96704102 C-446.82845372 125.79907101 -441.13316418 118.33749767 -435.53027344 110.72705078 C-433.86512245 108.47023976 -432.18836575 106.22240785 -430.50976562 103.97558594 C-422.35401386 93.02818428 -414.52548083 81.8882384 -406.92382812 70.54980469 C-406.52191254 69.9505014 -406.11999695 69.35119812 -405.7059021 68.73373413 C-399.7053317 59.77886905 -393.76027291 50.78933222 -387.86523438 41.76464844 C-386.02461965 38.95187912 -384.18361865 36.13936297 -382.3425293 33.3269043 C-381.10477714 31.43340235 -379.86909953 29.53854268 -378.63549805 27.64233398 C-370.54209984 15.20848581 -362.15003118 3.17138568 -352.92382812 -8.45019531 C-352.48900116 -8.99943161 -352.05417419 -9.54866791 -351.60617065 -10.11454773 C-345.7121772 -17.54403423 -339.41314615 -24.54285374 -332.92382812 -31.45019531 C-332.33085938 -32.09730469 -331.73789063 -32.74441406 -331.12695312 -33.41113281 C-268.45190378 -99.49917989 -150.3010941 -77.62129789 0 0 Z M-1274.61132812 589.36230469 C-1291.77044161 609.12508621 -1307.92382812 640.75346588 -1307.92382812 667.54980469 C-1208.59382813 667.54980469 -1109.26382813 667.54980469 -1006.92382812 667.54980469 C-1007.66114313 660.17665463 -1008.55175458 654.09342721 -1010.48632812 647.11230469 C-1010.74881348 646.16291016 -1011.01129883 645.21351563 -1011.28173828 644.23535156 C-1021.94556487 607.07596978 -1045.11997798 577.45111428 -1078.67382812 558.29980469 C-1142.4416395 523.22648069 -1225.18448526 537.07390776 -1274.61132812 589.36230469 Z M-1310.92382812 744.54980469 C-1309.71972933 764.91575143 -1309.71972933 764.91575143 -1306.73632812 784.92480469 C-1306.52274658 785.9816748 -1306.30916504 787.03854492 -1306.08911133 788.12744141 C-1302.75487918 803.86369339 -1297.61073999 818.7004724 -1289.875 832.81103516 C-1288.98837909 834.43180367 -1288.13443368 836.07032874 -1287.28320312 837.70996094 C-1270.7146308 868.2331318 -1239.44546964 886.68375174 -1207.21679688 896.70214844 C-1162.85875619 909.22065832 -1114.44141694 904.94510482 -1073.75805664 882.9765625 C-1063.42566693 877.16467097 -1054.53896423 869.65126147 -1045.92382812 861.54980469 C-1045.25996094 860.96199219 -1044.59609375 860.37417969 -1043.91210938 859.76855469 C-1027.56733187 844.65046433 -1019.06733877 823.0873978 -1011.92382812 802.54980469 C-1008.45882812 802.05480469 -1008.45882812 802.05480469 -1004.92382812 801.54980469 C-1005.0042334 800.74687988 -1005.08463867 799.94395508 -1005.16748047 799.11669922 C-1005.47921179 795.98915797 -1005.78822856 792.86136084 -1006.09570312 789.73339844 C-1006.28908265 787.77357133 -1006.48528677 785.81402353 -1006.68164062 783.85449219 C-1007.96538308 770.76031914 -1008.91386325 757.67934803 -1009.92382812 744.54980469 C-1109.25382812 744.54980469 -1208.58382812 744.54980469 -1310.92382812 744.54980469 Z " fill="#5BFD4F" transform="translate(2021.923828125,215.4501953125)"/>
<path d="M0 0 C0.97141434 -0.00705963 1.94282867 -0.01411926 2.94367981 -0.02139282 C43.77859406 -0.25045616 84.21724697 2.50482565 122.4453125 18.203125 C123.25685791 18.53425293 124.06840332 18.86538086 124.90454102 19.20654297 C153.29766074 30.87930149 179.47950686 45.63179305 201.8984375 66.80859375 C203.96796785 68.75433318 206.0640038 70.58995458 208.2578125 72.390625 C212.08252003 75.63749902 215.21771665 79.37548687 218.4453125 83.203125 C219.25871094 84.12867188 220.07210938 85.05421875 220.91015625 86.0078125 C251.74888105 121.28506061 270.40223474 164.89220388 278.6953125 210.765625 C278.84653564 211.58949707 278.99775879 212.41336914 279.15356445 213.26220703 C282.27689618 231.82583759 282.81870559 250.54585389 282.7578125 269.328125 C282.75665436 270.44154266 282.75549622 271.55496033 282.75430298 272.70211792 C282.71933616 289.73920265 282.04258485 306.34379884 279.4453125 323.203125 C279.21398561 324.85795318 278.98347126 326.51289523 278.75390625 328.16796875 C272.52838081 370.86759004 254.47021112 412.60239873 227.4453125 446.203125 C226.78426514 447.03859863 226.12321777 447.87407227 225.44213867 448.73486328 C220.06776386 455.43997374 214.35194474 461.64841511 208.2578125 467.703125 C207.33508545 468.6202124 206.4123584 469.5372998 205.46166992 470.48217773 C198.49973944 477.32138286 191.43955612 483.61039101 183.4453125 489.203125 C182.76968262 489.68007812 182.09405273 490.15703125 181.39794922 490.6484375 C133.79600031 523.98582933 77.84478678 540.72189031 19.86401367 540.46386719 C17.01264132 540.45314316 14.16190046 540.46384525 11.31054688 540.4765625 C-30.69479422 540.50834989 -72.56785363 532.37034862 -110.5546875 514.203125 C-111.55024658 513.7400293 -111.55024658 513.7400293 -112.56591797 513.26757812 C-137.34137832 501.73617075 -159.8230256 485.36896098 -179.0546875 466.015625 C-179.96959961 465.09652344 -180.88451172 464.17742187 -181.82714844 463.23046875 C-188.67544602 456.26758591 -194.8834887 449.14475218 -200.5546875 441.203125 C-201.32554688 440.14222656 -202.09640625 439.08132813 -202.890625 437.98828125 C-216.91992069 418.23713971 -228.15982752 396.91198263 -236.5546875 374.203125 C-237.24498047 372.36427734 -237.24498047 372.36427734 -237.94921875 370.48828125 C-247.60442447 343.23914511 -252.63757288 313.33507879 -252.7578125 284.44921875 C-252.76636261 282.80047508 -252.76636261 282.80047508 -252.77508545 281.11842346 C-252.7844792 278.79811547 -252.79104686 276.47779447 -252.79492188 274.1574707 C-252.80451782 270.70173028 -252.83555052 267.24661424 -252.8671875 263.79101562 C-252.97406728 241.22831183 -250.59032004 219.19547937 -245.5546875 197.203125 C-245.37180176 196.38682617 -245.18891602 195.57052734 -245.00048828 194.72949219 C-238.69753244 166.90093779 -228.03032626 140.23595177 -212.5546875 116.203125 C-212.12720215 115.53909668 -211.6997168 114.87506836 -211.25927734 114.19091797 C-198.95870192 95.30937518 -184.19142624 76.38716885 -166.5546875 62.203125 C-165.49309744 61.31817854 -164.43194257 60.43270991 -163.37109375 59.546875 C-118.11294614 22.13912871 -58.86646528 0.28749527 0 0 Z " fill="#000000" transform="translate(1672.5546875,667.796875)"/>
<path d="M0 0 C0.60392578 0.44843262 1.20785156 0.89686523 1.83007812 1.35888672 C10.73434431 8.02748089 18.9721751 15.30748279 27 23 C27.78503906 23.74378906 28.57007813 24.48757813 29.37890625 25.25390625 C33.13714983 28.89804756 36.30340967 32.67153666 39.41381836 36.87646484 C40.90065441 38.86699893 42.42481251 40.81843676 43.97265625 42.76171875 C74.99915241 81.98700399 93.4819545 129.37900168 99 179 C99.10006348 179.79164551 99.20012695 180.58329102 99.30322266 181.39892578 C101.06775641 195.51241699 101.18337135 209.61071933 101.1875 223.8125 C101.18849701 224.74565033 101.18949402 225.67880066 101.19052124 226.64022827 C101.19019819 229.30841144 101.18119298 231.97638359 101.16796875 234.64453125 C101.16676025 235.45806061 101.16555176 236.27158997 101.16430664 237.10977173 C101.11673694 242.76652613 101.11673694 242.76652613 100 245 C-36.62 245 -173.24 245 -314 245 C-309.72957779 283.43379992 -304.59486453 323.79730501 -278 354 C-277.31421875 354.81726562 -276.6284375 355.63453125 -275.921875 356.4765625 C-251.20433939 385.19513804 -212.38573442 399.43857512 -175.40332031 402.53515625 C-133.07612123 405.60303931 -89.02805661 395.7012473 -56.2890625 367.6796875 C-53.81979814 365.49220106 -51.40517165 363.25748567 -49 361 C-48.11441406 360.22849609 -48.11441406 360.22849609 -47.2109375 359.44140625 C-32.20094625 345.74745689 -23.92248683 325.41325588 -17.34765625 306.69140625 C-16 303 -16 303 -15 302 C-13.6080939 301.91665316 -12.21193371 301.90303228 -10.81761169 301.91770935 C-9.46507797 301.92826859 -9.46507797 301.92826859 -8.08522034 301.93904114 C-7.08828659 301.95198715 -6.09135284 301.96493317 -5.06420898 301.97827148 C-3.49854187 301.9926828 -3.49854187 301.9926828 -1.90124512 302.00738525 C1.5672045 302.04050685 5.03553326 302.08078876 8.50390625 302.12109375 C10.90143908 302.14538202 13.29897644 302.16922621 15.69651794 302.19264221 C22.02099762 302.25561188 28.34539743 302.3246418 34.6697998 302.39489746 C41.11772002 302.46546487 47.56569706 302.5303511 54.01367188 302.59570312 C66.6758434 302.7248814 79.33794081 302.86026374 92 303 C91.37000945 305.72594053 90.73711361 308.45115167 90.10253906 311.17602539 C89.92550446 311.94341286 89.74846985 312.71080032 89.56607056 313.50144196 C88.29262735 318.95548686 86.77978198 324.21234269 84.75 329.4375 C84.45262939 330.22060547 84.15525879 331.00371094 83.84887695 331.81054688 C75.80169069 352.68928034 66.01902505 372.75739067 53 391 C52.27167969 392.02351563 51.54335937 393.04703125 50.79296875 394.1015625 C43.43597002 404.14949951 35.4230017 413.93813441 26.42578125 422.5703125 C24.77774194 424.16582399 24.77774194 424.16582399 22.75 426.875 C18.86813082 431.63911218 13.80039406 435.21861542 9 439 C7.58074219 440.16015625 7.58074219 440.16015625 6.1328125 441.34375 C-25.00206648 466.25165319 -62.96992764 481.76061268 -102 489 C-103.19085205 489.22526367 -103.19085205 489.22526367 -104.40576172 489.45507812 C-176.36787306 502.67109693 -254.76417097 490.72171416 -315.7734375 449.46875 C-323.95165863 443.82334031 -331.53449432 437.54757562 -339 431 C-339.92039062 430.20335937 -340.84078125 429.40671875 -341.7890625 428.5859375 C-346.29350496 424.62583854 -350.45606225 420.57968347 -354.31640625 415.98828125 C-355.41779468 414.68756962 -356.55012011 413.41228626 -357.71484375 412.16796875 C-370.28451983 398.69476416 -380.28920502 383.16594765 -389 367 C-389.35755371 366.34531738 -389.71510742 365.69063477 -390.08349609 365.01611328 C-413.6328471 321.52913686 -422.26084949 272.08101159 -422.1875 223.0625 C-422.18689575 222.30542755 -422.1862915 221.5483551 -422.18566895 220.76834106 C-422.03864375 152.30390604 -403.14225448 81.18186956 -354.61328125 30.73046875 C-352.40227372 28.4203129 -350.31101451 26.06751155 -348.25 23.625 C-344.81864738 19.67524159 -341.00718728 16.35196732 -337 13 C-336.13761719 12.24976563 -335.27523437 11.49953125 -334.38671875 10.7265625 C-260.52132717 -52.64374638 -147.17897759 -63.76262994 0 0 Z M-277.6875 89.8125 C-294.84661348 109.57528153 -311 141.20366119 -311 168 C-211.67 168 -112.34 168 -10 168 C-10.73731501 160.62684994 -11.62792646 154.54362253 -13.5625 147.5625 C-13.82498535 146.61310547 -14.0874707 145.66371094 -14.35791016 144.68554688 C-25.02173674 107.52616509 -48.19614986 77.90130959 -81.75 58.75 C-145.51781138 23.676676 -228.26065713 37.52410307 -277.6875 89.8125 Z " fill="#000000" transform="translate(1025,715)"/>
<path d="M0 0 C0.79190735 -0.00067474 1.5838147 -0.00134949 2.39971924 -0.00204468 C48.96206234 0.06060365 96.05801019 12.22937231 131.875 43.25 C133.06416016 44.27480469 133.06416016 44.27480469 134.27734375 45.3203125 C179.77102124 85.42374384 199.98891972 141.93110506 204.0318774 201.56390977 C205.00275612 217.9027357 205.0143835 234.24282394 204.99106562 250.60357141 C204.98667917 254.47779479 204.98821325 258.3520169 204.9889679 262.22624207 C204.98948802 268.91188843 204.9863952 275.59752491 204.98073006 282.28316879 C204.97254497 291.94905888 204.96999272 301.61494426 204.96874207 311.28083743 C204.96656246 326.96945421 204.9599322 342.65806575 204.95043945 358.34667969 C204.94123694 373.57161432 204.93417005 388.79654752 204.92993164 404.02148438 C204.92953756 405.4331309 204.92953756 405.4331309 204.92913551 406.87329553 C204.92783031 411.59529215 204.92656664 416.31728878 204.92532361 421.03928542 C204.91498503 460.10952828 204.89656524 499.17976141 204.875 538.25 C168.245 538.25 131.615 538.25 93.875 538.25 C93.85312622 524.07180298 93.85312622 524.07180298 93.83081055 509.60717773 C93.78195 479.28972233 93.71851258 448.97231289 93.64601372 418.65490517 C93.6347469 413.93782441 93.62360823 409.22074336 93.61254883 404.50366211 C93.6092433 403.09516042 93.6092433 403.09516042 93.605871 401.65820415 C93.57059456 386.49681311 93.54567611 371.33542212 93.52465298 356.17400538 C93.50281371 340.59212074 93.46968698 325.01028888 93.42629844 309.42844921 C93.39992097 299.8302622 93.38212353 290.23214084 93.37565396 280.63391943 C93.37035717 274.03286332 93.3539985 267.4318895 93.32933434 260.83087765 C93.31546452 257.03466384 93.30609303 253.23859678 93.30999184 249.44235611 C93.32920266 225.76673355 92.01099913 202.96473257 84.875 180.25 C84.55257324 179.22084473 84.55257324 179.22084473 84.22363281 178.17089844 C79.07709474 162.23893977 71.04083418 147.7269738 59.875 135.25 C59.070625 134.23292969 59.070625 134.23292969 58.25 133.1953125 C49.53546959 122.34572214 37.17142934 114.45434767 24.875 108.25 C24.26462891 107.94078613 23.65425781 107.63157227 23.02539062 107.31298828 C3.65707158 97.71412965 -17.68746384 93.86813137 -39.18041992 93.98925781 C-41.4245943 93.99993858 -43.6679597 93.98931753 -45.91210938 93.9765625 C-58.93352585 93.96284036 -71.88240585 94.94120774 -84.5 98.375 C-85.2847168 98.58672852 -86.06943359 98.79845703 -86.87792969 99.01660156 C-106.99544175 104.73573434 -124.76611278 115.20524217 -140.125 129.25 C-140.92421875 129.96671875 -141.7234375 130.6834375 -142.546875 131.421875 C-172.1789224 159.37267149 -183.18979813 202.95275951 -184.40891075 242.35426521 C-184.55094866 249.49191423 -184.56541986 256.62938667 -184.55773985 263.76816642 C-184.55710393 267.46854522 -184.57384624 271.16885643 -184.58825684 274.86920166 C-184.6108256 281.24867858 -184.62288981 287.62810172 -184.62738609 294.00761604 C-184.63390245 303.23079555 -184.65693444 312.4538787 -184.68372939 321.67701893 C-184.72678791 336.64851653 -184.75687344 351.62001002 -184.77856445 366.59155273 C-184.79963742 381.11696385 -184.82696701 395.64234148 -184.86254883 410.16772461 C-184.86474765 411.06621618 -184.86694648 411.96470775 -184.86921193 412.89042635 C-184.88028316 417.39883433 -184.89147567 421.907242 -184.90272844 426.41564953 C-184.99561645 463.69374603 -185.06491836 500.97183336 -185.125 538.25 C-221.425 538.25 -257.725 538.25 -295.125 538.25 C-295.125 364.67 -295.125 191.09 -295.125 12.25 C-258.825 12.25 -222.525 12.25 -185.125 12.25 C-184.795 42.28 -184.465 72.31 -184.125 103.25 C-180.495 97.64 -176.865 92.03 -173.125 86.25 C-166.33224854 76.96370687 -159.06306615 68.54991532 -151.125 60.25 C-150.48820312 59.57195313 -149.85140625 58.89390625 -149.1953125 58.1953125 C-111.11899834 18.66153177 -53.77522426 0.04140118 0 0 Z " fill="#000000" transform="translate(2334.125,663.75)"/>
<path d="M0 0 C1.02915527 0.41137207 1.02915527 0.41137207 2.07910156 0.83105469 C39.57111824 15.98355008 74.57663476 42.91829909 98 76 C98.41507812 76.58136719 98.83015625 77.16273438 99.2578125 77.76171875 C120.95385251 108.44231521 135.68149332 144.77045326 141 182 C102.39 182 63.78 182 24 182 C21.36 173.42 18.72 164.84 16 156 C9.45223028 140.51400496 1.65488913 128.18083178 -10 116 C-10.61101562 115.32582031 -11.22203125 114.65164063 -11.8515625 113.95703125 C-34.58357189 89.72567656 -70.58686975 78.21335064 -103.04199219 76.87451172 C-147.05743897 75.57610171 -182.9060763 87.58534454 -215.45703125 117.23828125 C-243.3129015 143.92332683 -255.02538157 182.60576876 -259 220 C-259.0942627 220.87712646 -259.18852539 221.75425293 -259.28564453 222.65795898 C-260.14248078 231.61641958 -260.24321999 240.57128573 -260.25 249.5625 C-260.25067474 250.37269592 -260.25134949 251.18289185 -260.25204468 252.01763916 C-260.19381124 296.36539471 -251.71651255 345.50477463 -220.0078125 378.8515625 C-218 381 -218 381 -215.9609375 383.5703125 C-196.73112603 407.39689165 -163.59914608 419.9103319 -134.3125 424.3125 C-96.628514 428.25926188 -56.07714959 421.82242027 -25 399 C-22.29973731 396.7878212 -19.72571243 394.52491828 -17.2109375 392.10546875 C-15 390 -15 390 -12.0625 387.64453125 C-8.78174415 384.93544581 -6.21315721 381.86272207 -3.625 378.5 C-3.15094727 377.88688965 -2.67689453 377.2737793 -2.18847656 376.64208984 C11.34970094 358.85780603 17.41810795 340.62621675 24 319 C62.61 319 101.22 319 141 319 C136.32965579 342.35172103 136.32965579 342.35172103 134.1875 349.5625 C133.93379639 350.42633301 133.68009277 351.29016602 133.41870117 352.18017578 C123.45730397 385.42933525 107.70034593 416.14233358 84.0625 441.75 C82.24942906 443.72789558 80.52960986 445.75196817 78.8125 447.8125 C37.05951238 495.54397546 -27.79146544 516.9316809 -89.23046875 521.40234375 C-93.81823298 521.69762793 -98.40471591 521.87571916 -103 522 C-103.68271973 522.02191406 -104.36543945 522.04382812 -105.06884766 522.06640625 C-172.81328363 524.00797117 -239.89895515 504.36555454 -291 459 C-292.485 457.69869141 -292.485 457.69869141 -294 456.37109375 C-299.43016675 451.53854046 -304.35090188 446.57696434 -309 441 C-309.81984375 440.06800781 -310.6396875 439.13601563 -311.484375 438.17578125 C-326.46759235 421.06478564 -338.37975358 401.56600975 -348 381 C-348.3609375 380.23510254 -348.721875 379.47020508 -349.09375 378.68212891 C-367.62272773 338.94615714 -374.25335483 294.68205903 -374.1875 251.125 C-374.18656342 250.31674774 -374.18562683 249.50849548 -374.18466187 248.67575073 C-374.00982826 178.61226144 -354.17376006 108.60009691 -305 57 C-303.84638403 55.65245721 -302.69973208 54.29889802 -301.5625 52.9375 C-287.60854867 37.02738727 -269.44546638 24.18174954 -251 14 C-250.30148926 13.60506348 -249.60297852 13.21012695 -248.88330078 12.80322266 C-215.95805514 -5.74570225 -178.59380457 -16.00540646 -141 -19 C-140.33339355 -19.05639648 -139.66678711 -19.11279297 -138.97998047 -19.17089844 C-92.18327489 -23.00353388 -43.66942457 -17.6444102 0 0 Z " fill="#000000" transform="translate(400,687)"/>
<path d="M0 0 C1.02394867 -0.00067474 2.04789734 -0.00134949 3.10287476 -0.00204468 C19.23518376 0.01481545 34.99301094 0.57868564 50.9375 3.25 C51.97487305 3.42160645 53.01224609 3.59321289 54.08105469 3.77001953 C90.14359333 9.94224051 126.97468022 22.19651547 155.9375 45.25 C156.4830957 45.68280273 157.02869141 46.11560547 157.59082031 46.56152344 C186.65836522 69.87345606 207.07281193 100.193186 214.25 137.125 C214.42176758 137.97344482 214.59353516 138.82188965 214.77050781 139.69604492 C216.34477477 148.47529464 215.9375 155.93276104 215.9375 165.25 C180.6275 165.25 145.3175 165.25 108.9375 165.25 C107.9475 158.65 106.9575 152.05 105.9375 145.25 C98.80444051 122.86011881 84.15463812 108.12240844 63.63012695 97.42504883 C31.78890887 81.55179645 -9.29845759 78.00705444 -43.18774414 89.07006836 C-62.33318456 95.76456571 -80.83136791 105.75257726 -90.5 124.4375 C-96.14012136 136.18373565 -97.30282294 150.24523107 -93.5 162.8125 C-85.70196967 182.32116126 -67.20396154 193.14748463 -48.75 201.125 C-21.71051158 212.32748602 6.94234241 220.19142876 35.01750183 228.29551697 C152.61636551 262.24761058 152.61636551 262.24761058 190.9375 297.25 C191.81792969 298.04792969 192.69835938 298.84585937 193.60546875 299.66796875 C215.4941798 320.47072825 227.9486539 351.61149824 229.06152344 381.59106445 C229.87776161 419.99204714 221.90248827 450.74415526 194.9375 479.25 C194.20144531 480.05050781 193.46539063 480.85101562 192.70703125 481.67578125 C151.88593672 524.54818706 83.3405712 541.81880707 26.10913086 543.45678711 C20.03089171 543.57604804 13.95417435 543.58356264 7.875 543.5625 C6.804776 543.56100952 5.734552 543.55951904 4.63189697 543.5579834 C-12.13681775 543.51611863 -28.4692881 542.81299944 -45.0625 540.25 C-46.03574219 540.11078125 -47.00898438 539.9715625 -48.01171875 539.828125 C-88.2783387 534.02199021 -129.86910105 520.32049689 -163.0625 496.25 C-163.64338379 495.83298828 -164.22426758 495.41597656 -164.82275391 494.98632812 C-173.10505293 488.98581535 -180.66739656 482.29295566 -188.0625 475.25 C-189.13951172 474.25226563 -189.13951172 474.25226563 -190.23828125 473.234375 C-215.24118711 449.38390769 -230.28678235 414.39132714 -233.0625 380.25 C-233.0625 375.63 -233.0625 371.01 -233.0625 366.25 C-195.7725 366.25 -158.4825 366.25 -120.0625 366.25 C-119.0725 373.18 -119.0725 373.18 -118.0625 380.25 C-111.18027118 404.97504428 -94.8594364 422.52815433 -73.0625 435.25 C-51.80060415 446.92170453 -26.88316958 454.30839309 -2.55859375 454.453125 C-1.76629364 454.46013931 -0.97399353 454.46715363 -0.15768433 454.47438049 C2.39493537 454.4918266 4.94732281 454.49823572 7.5 454.5 C8.80948105 454.50101212 8.80948105 454.50101212 10.14541626 454.50204468 C43.5853406 454.46100186 83.49128848 449.79488734 108.82421875 425.45703125 C119.07512798 414.75136819 123.31642008 402.63168301 123.1484375 387.8828125 C122.10866835 369.97567719 115.59115493 357.01585036 102.5 345.015625 C96.2566334 339.89751633 89.47941325 336.27701 82.25 332.75 C81.41001465 332.33564697 80.5700293 331.92129395 79.70458984 331.49438477 C57.20808608 320.92956074 32.84717026 314.40253209 9.10583496 307.28268051 C4.68794223 305.95573595 0.27272971 304.61993941 -4.14257812 303.28442383 C-11.04729319 301.19649684 -17.95269702 299.11087615 -24.85888672 297.02783203 C-136.95665862 263.20958078 -136.95665862 263.20958078 -170.0625 235.25 C-171.3309375 234.18458984 -171.3309375 234.18458984 -172.625 233.09765625 C-194.19165754 214.39121091 -204.97308797 188.4095174 -207.0625 160.25 C-208.63101061 127.32341271 -201.62588998 94.41346813 -179.0625 69.25 C-178.32 68.40050781 -177.5775 67.55101562 -176.8125 66.67578125 C-162.46237203 50.45916704 -146.17781482 38.37820509 -127.0625 28.25 C-125.94633301 27.65493652 -125.94633301 27.65493652 -124.80761719 27.04785156 C-96.94984132 12.43935635 -65.21192224 4.62805892 -34.0625 1.25 C-32.82947144 1.10860596 -32.82947144 1.10860596 -31.5715332 0.96435547 C-21.07970747 -0.08398318 -10.53329791 0.00623741 0 0 Z " fill="#000000" transform="translate(3078.0625,663.75)"/>
<path d="M0 0 C14.34880678 13.13173923 25.08244236 27.75479558 34 45 C34.31952637 45.61311035 34.63905273 46.2262207 34.96826172 46.85791016 C40.26297725 57.16226244 43.85012902 67.86994741 47 79 C47.30808594 80.08539062 47.61617187 81.17078125 47.93359375 82.2890625 C48.75423659 85.51210538 49.40060793 88.7283183 50 92 C50.13535156 92.68658691 50.27070312 93.37317383 50.41015625 94.08056641 C53.12837128 108.390989 53.29497135 122.67179551 53.3125 137.1875 C53.31774185 138.57861496 53.31774185 138.57861496 53.3230896 139.99783325 C53.36205259 158.67017419 52.05927846 176.7907137 47.51025391 194.9375 C47.03514359 196.85794592 46.59992264 198.78813917 46.16796875 200.71875 C37.62016201 236.62734452 14.26890393 270.27711992 -17 290 C-20.5916356 292.17812075 -24.23549055 294.13814912 -28 296 C-29.11632813 296.56332031 -30.23265625 297.12664062 -31.3828125 297.70703125 C-54.28196659 309.00670831 -77.45819737 313.34117228 -102.875 313.4375 C-104.03486923 313.44689606 -104.03486923 313.44689606 -105.21817017 313.45648193 C-116.45217521 313.51405168 -127.01219082 312.31341187 -138 310 C-138.93166992 309.80672119 -139.86333984 309.61344238 -140.82324219 309.41430664 C-152.90259556 306.75430009 -163.91857898 302.43280962 -175 297 C-176.13953125 296.45601562 -177.2790625 295.91203125 -178.453125 295.3515625 C-205.58785494 281.65052891 -225.18945833 258.58294854 -239 232 C-239.61617187 230.83339844 -240.23234375 229.66679688 -240.8671875 228.46484375 C-254.6463948 200.81456777 -258.23541324 169.59469762 -258.1875 139.0625 C-258.18656342 138.28965668 -258.18562683 137.51681335 -258.18466187 136.72055054 C-258.05523291 87.32395965 -245.0026659 40.28744696 -209.75 4.3125 C-155.31537352 -49.59347703 -56.79684588 -50.62818182 0 0 Z " fill="#5BFD4F" transform="translate(1790,799)"/>
<path d="M0 0 C36.3 0 72.6 0 110 0 C109.67 233.64 109.34 467.28 109 708 C73.03 708 37.06 708 0 708 C0 474.36 0 240.72 0 0 Z " fill="#000000" transform="translate(1219,493)"/>
<path d="M0 0 C36.3 0 72.6 0 110 0 C110 174.24 110 348.48 110 528 C73.7 528 37.4 528 0 528 C0 353.76 0 179.52 0 0 Z " fill="#000000" transform="translate(2652,674)"/>
<path d="M0 0 C14.43283756 11.20574219 22.6114535 25.75652972 24.97265625 43.8984375 C26.33621693 61.9656165 22.27704096 78.69708351 10.41015625 92.7109375 C-2.94475709 106.42952473 -21.01365709 113.60283448 -40.078125 114.19921875 C-42.16527935 114.21848175 -44.25263004 114.22204056 -46.33984375 114.2109375 C-47.43707764 114.20602295 -48.53431152 114.2011084 -49.66479492 114.19604492 C-68.83263786 113.91952429 -86.71688523 107.97676941 -100.83984375 94.5859375 C-113.03905459 81.73319751 -117.56351113 65.53847295 -117.2109375 48.1171875 C-116.18391002 30.11142909 -109.31099704 15.18439665 -96.203125 2.73828125 C-70.26113736 -19.19830076 -27.44825619 -19.05440236 0 0 Z " fill="#000000" transform="translate(2753.02734375,470.1015625)"/>
</svg>
