<svg xmlns="http://www.w3.org/2000/svg" xmlns:xlink="http://www.w3.org/1999/xlink" width="1080" zoomAndPan="magnify" viewBox="0 0 810 809.999993" height="1080" preserveAspectRatio="xMidYMid meet" version="1.0"><path fill="#5cfe4f" d="M 433.539062 217.640625 C 495.609375 217.640625 547.292969 302.355469 547.160156 377.214844 C 546.894531 454.472656 484.6875 521.335938 401.707031 521.335938 C 316.992188 521.335938 256.25 465.660156 256.25 393.464844 C 256.25 333.394531 295.277344 329.664062 346.292969 294.097656 C 405.035156 253.074219 392.515625 217.640625 433.539062 217.640625 Z M 433.539062 217.640625 " fill-opacity="1" fill-rule="nonzero"/><path fill="#000000" d="M 132.777344 345.113281 C 142.632812 353.105469 148.894531 363.761719 151.289062 377.480469 L 125.582031 377.480469 C 124.117188 370.15625 120.65625 364.5625 115.195312 360.433594 C 109.730469 356.304688 102.9375 354.171875 94.679688 354.171875 C 85.355469 354.171875 77.632812 357.5 71.238281 364.027344 C 65.109375 370.554688 61.914062 380.144531 61.914062 392.800781 C 61.914062 405.453125 65.109375 415.042969 71.238281 421.570312 C 77.363281 428.097656 85.355469 431.425781 94.679688 431.425781 C 102.9375 431.425781 109.730469 429.296875 115.195312 425.167969 C 120.65625 420.90625 124.117188 415.175781 125.582031 407.851562 L 151.289062 407.851562 C 148.894531 421.570312 142.632812 432.226562 132.777344 440.351562 C 122.917969 448.34375 110.398438 452.339844 95.082031 452.339844 C 83.757812 452.339844 73.636719 449.941406 64.976562 445.148438 C 56.1875 440.484375 49.394531 433.425781 44.464844 424.5 C 39.535156 415.308594 37.140625 404.789062 37.140625 392.53125 C 37.140625 380.410156 39.535156 369.890625 44.597656 360.832031 C 49.527344 351.90625 56.453125 344.980469 65.109375 340.1875 C 73.902344 335.523438 83.757812 332.992188 95.214844 332.992188 C 110.398438 333.125 122.917969 337.121094 132.777344 345.113281 Z M 132.777344 345.113281 " fill-opacity="1" fill-rule="nonzero"/><path fill="#000000" d="M 302.207031 294.765625 L 326.316406 294.765625 L 326.316406 450.742188 L 302.207031 450.742188 Z M 302.207031 294.765625 " fill-opacity="1" fill-rule="evenodd"/><path fill="#000000" d="M 458.050781 360.832031 C 452.988281 351.90625 445.792969 344.980469 436.738281 340.1875 C 427.679688 335.523438 417.421875 332.992188 406.101562 332.992188 C 394.777344 332.992188 384.523438 335.390625 375.597656 340.1875 C 366.539062 344.980469 359.480469 351.90625 354.285156 360.832031 C 349.09375 369.757812 346.5625 380.414062 346.5625 392.535156 C 346.5625 404.65625 349.09375 415.175781 354.285156 424.234375 C 359.480469 433.425781 366.539062 440.21875 375.597656 445.015625 C 384.65625 449.808594 394.777344 452.207031 406.101562 452.207031 C 417.421875 452.207031 427.679688 449.808594 436.738281 445.015625 C 445.792969 440.351562 452.855469 433.292969 458.050781 424.367188 C 463.109375 415.445312 465.640625 404.789062 465.640625 392.535156 C 465.90625 380.410156 463.242188 369.890625 458.050781 360.832031 Z M 436.070312 414.113281 C 432.875 419.839844 428.746094 424.101562 423.417969 426.898438 C 418.222656 429.695312 412.496094 431.160156 406.101562 431.160156 C 399.972656 431.160156 394.113281 429.695312 388.785156 426.898438 C 383.589844 424.101562 379.328125 419.707031 376.132812 414.113281 C 372.933594 408.382812 371.335938 401.191406 371.335938 392.535156 C 371.335938 384.140625 372.933594 376.949219 376.132812 371.089844 C 379.328125 365.226562 383.457031 360.964844 388.785156 358.167969 C 393.980469 355.371094 399.707031 353.90625 406.101562 353.90625 C 412.226562 353.90625 418.089844 355.371094 423.417969 358.167969 C 428.613281 360.964844 432.875 365.359375 436.070312 371.089844 C 439.269531 376.949219 440.867188 384.007812 440.867188 392.535156 C 441 401.058594 439.402344 408.25 436.070312 414.113281 Z M 436.070312 414.113281 " fill-opacity="1" fill-rule="nonzero"/><path fill="#000000" d="M 621.484375 290.769531 C 624.414062 288.105469 628.144531 286.773438 632.671875 286.773438 C 637.46875 286.773438 641.199219 288.105469 643.996094 290.769531 C 646.925781 293.433594 648.257812 296.761719 648.257812 300.890625 C 648.257812 305.019531 646.792969 308.351562 643.996094 310.75 C 641.066406 313.28125 637.203125 314.613281 632.671875 314.613281 C 627.878906 314.613281 624.148438 313.28125 621.484375 310.75 C 618.554688 308.21875 617.222656 304.886719 617.222656 300.890625 C 617.089844 296.761719 618.554688 293.433594 621.484375 290.769531 Z M 621.484375 290.769531 " fill-opacity="1" fill-rule="nonzero"/><path fill="#000000" d="M 620.683594 334.457031 L 644.792969 334.457031 L 644.792969 450.476562 L 620.683594 450.476562 Z M 620.683594 334.457031 " fill-opacity="1" fill-rule="evenodd"/><path fill="#000000" d="M 281.558594 392.535156 C 281.558594 380.410156 279.160156 369.890625 274.101562 360.832031 C 269.171875 351.90625 262.246094 344.980469 253.585938 340.1875 C 244.796875 335.523438 234.941406 332.992188 223.484375 332.992188 C 212.03125 332.992188 202.039062 335.390625 193.382812 340.1875 C 184.589844 344.980469 177.796875 351.90625 172.867188 360.832031 C 167.941406 369.757812 165.410156 380.414062 165.410156 392.535156 C 165.410156 404.789062 167.808594 415.308594 172.867188 424.367188 C 177.796875 433.292969 184.722656 440.21875 193.382812 445.015625 C 202.171875 449.808594 212.03125 452.207031 223.484375 452.207031 C 234.941406 452.207031 244.929688 449.808594 253.585938 445.015625 C 262.378906 440.351562 269.171875 433.292969 274.101562 424.367188 C 276.5 420.105469 278.230469 415.445312 279.5625 410.25 L 255.851562 410.25 C 254.253906 415.976562 251.589844 420.503906 247.859375 423.96875 C 241.734375 429.695312 232.941406 432.625 223.75 432.625 C 214.558594 432.625 205.769531 429.828125 199.640625 423.96875 C 193.515625 418.242188 190.183594 409.449219 189.785156 397.460938 L 281.824219 397.460938 C 281.425781 395.863281 281.558594 394.132812 281.558594 392.53125 Z M 189.785156 380.679688 C 191.117188 372.285156 194.445312 365.761719 199.507812 360.832031 C 205.902344 355.105469 213.761719 352.171875 223.351562 352.171875 C 232.941406 352.171875 240.800781 354.972656 247.195312 360.832031 C 252.390625 365.492188 255.71875 372.152344 256.917969 380.679688 Z M 189.785156 380.679688 " fill-opacity="1" fill-rule="nonzero"/><path fill="#000000" d="M 582.988281 345.515625 C 591.25 354.171875 595.378906 366.824219 595.378906 382.808594 L 595.378906 450.742188 L 571.136719 450.742188 L 571.136719 385.472656 C 571.136719 375.085938 568.339844 366.957031 563.144531 361.230469 C 557.683594 355.503906 550.355469 352.707031 541.03125 352.707031 C 531.441406 352.707031 523.582031 355.636719 517.722656 361.898438 C 511.863281 368.023438 508.929688 376.949219 508.929688 388.804688 L 508.929688 450.742188 L 484.6875 450.742188 L 484.6875 334.992188 L 508.929688 334.992188 L 508.929688 355.902344 C 515.058594 344.316406 528.910156 332.328125 550.222656 332.328125 C 563.808594 332.328125 574.730469 336.589844 582.988281 345.515625 Z M 582.988281 345.515625 " fill-opacity="1" fill-rule="nonzero"/><path fill="#000000" d="M 763.207031 368.425781 L 739.632812 368.425781 C 739.632812 356.167969 727.113281 350.175781 714.457031 350.175781 C 704.867188 350.175781 693.8125 355.105469 693.8125 364.429688 C 693.8125 374.152344 704.335938 377.214844 723.25 382.675781 C 748.15625 389.601562 766.140625 395.996094 766.140625 419.304688 C 766.140625 441.019531 740.964844 451.808594 717.121094 451.808594 C 688.085938 451.808594 663.574219 437.289062 663.574219 413.046875 L 688.351562 413.046875 C 688.882812 425.964844 704.203125 432.757812 716.457031 432.757812 C 729.109375 432.757812 742.960938 429.03125 742.960938 418.640625 C 742.960938 406.519531 732.707031 404.386719 712.460938 398.261719 C 687.019531 390.535156 669.4375 386.007812 669.4375 364.828125 C 669.4375 343.78125 692.214844 332.328125 715.257812 332.328125 C 744.292969 332.328125 763.207031 347.777344 763.207031 368.425781 Z M 763.207031 368.425781 " fill-opacity="1" fill-rule="nonzero"/></svg>