<?xml version="1.0" encoding="UTF-8"?>
<svg xmlns="http://www.w3.org/2000/svg" xmlns:xlink="http://www.w3.org/1999/xlink" width="140px" height="70px" viewBox="0 0 139 70" version="1.1">
<g id="surface1">
<path style=" stroke:none;fill-rule:nonzero;fill:rgb(35.686275%,99.215686%,30.980393%);fill-opacity:1;" d="M 84.296875 9.042969 C 84.382812 9.105469 84.472656 9.171875 84.558594 9.234375 C 85.046875 9.59375 85.5 9.988281 85.949219 10.398438 C 86.007812 10.449219 86.0625 10.503906 86.125 10.554688 C 86.328125 10.730469 86.519531 10.914062 86.707031 11.105469 C 86.738281 11.132812 86.765625 11.164062 86.796875 11.195312 C 86.859375 11.257812 86.921875 11.320312 86.980469 11.378906 C 87.074219 11.476562 87.167969 11.570312 87.261719 11.664062 C 87.324219 11.722656 87.382812 11.785156 87.441406 11.84375 C 87.484375 11.886719 87.484375 11.886719 87.527344 11.929688 C 87.710938 12.113281 87.882812 12.308594 88.054688 12.507812 C 88.097656 12.554688 88.140625 12.605469 88.183594 12.65625 C 88.445312 12.957031 88.695312 13.261719 88.9375 13.574219 C 89.035156 13.703125 89.136719 13.824219 89.234375 13.949219 C 90.59375 15.636719 91.707031 17.542969 92.679688 19.472656 C 92.707031 19.523438 92.707031 19.523438 92.730469 19.570312 C 92.8125 19.734375 92.894531 19.894531 92.972656 20.054688 C 93 20.117188 93.03125 20.179688 93.0625 20.242188 C 94.195312 22.546875 95.039062 25.003906 95.683594 27.488281 C 95.695312 27.53125 95.695312 27.53125 95.707031 27.578125 C 95.746094 27.722656 95.765625 27.839844 95.765625 27.992188 C 95.816406 27.980469 95.871094 27.964844 95.925781 27.953125 C 96.382812 27.851562 96.847656 27.855469 97.3125 27.855469 C 97.347656 27.855469 97.378906 27.855469 97.414062 27.855469 C 99.355469 27.859375 101.320312 28.367188 102.8125 29.671875 C 102.84375 29.699219 102.878906 29.726562 102.910156 29.757812 C 104.808594 31.441406 105.652344 33.8125 105.820312 36.3125 C 105.859375 37 105.859375 37.6875 105.859375 38.371094 C 105.859375 38.535156 105.859375 38.699219 105.859375 38.859375 C 105.859375 39.140625 105.859375 39.421875 105.859375 39.703125 C 105.859375 40.105469 105.859375 40.511719 105.859375 40.917969 C 105.859375 41.578125 105.859375 42.234375 105.859375 42.894531 C 105.859375 43.53125 105.859375 44.171875 105.855469 44.8125 C 105.855469 44.851562 105.855469 44.890625 105.855469 44.929688 C 105.855469 45.128906 105.855469 45.328125 105.855469 45.523438 C 105.855469 47.164062 105.855469 48.804688 105.855469 50.445312 C 104.328125 50.445312 102.800781 50.445312 101.226562 50.445312 C 101.226562 50.046875 101.226562 49.648438 101.226562 49.242188 C 101.222656 47.96875 101.222656 46.695312 101.21875 45.425781 C 101.21875 45.226562 101.21875 45.027344 101.214844 44.832031 C 101.214844 44.792969 101.214844 44.753906 101.214844 44.710938 C 101.214844 44.074219 101.214844 43.4375 101.210938 42.800781 C 101.210938 42.148438 101.210938 41.496094 101.207031 40.839844 C 101.207031 40.4375 101.207031 40.035156 101.207031 39.632812 C 101.207031 39.355469 101.207031 39.078125 101.203125 38.800781 C 101.203125 38.640625 101.203125 38.484375 101.203125 38.324219 C 101.203125 37.328125 101.148438 36.371094 100.851562 35.417969 C 100.84375 35.390625 100.835938 35.363281 100.824219 35.332031 C 100.609375 34.664062 100.273438 34.054688 99.808594 33.53125 C 99.789062 33.503906 99.765625 33.472656 99.742188 33.445312 C 99.378906 32.988281 98.863281 32.660156 98.351562 32.398438 C 98.3125 32.378906 98.3125 32.378906 98.273438 32.359375 C 97.71875 32.082031 97.128906 31.925781 96.515625 31.851562 C 96.523438 31.910156 96.523438 31.910156 96.53125 31.972656 C 96.675781 33.21875 96.78125 34.457031 96.808594 35.714844 C 96.808594 35.757812 96.808594 35.800781 96.8125 35.84375 C 96.878906 39.339844 96.253906 42.847656 94.222656 48.007812 C 94.203125 48.050781 94.1875 48.089844 94.167969 48.132812 C 93.53125 49.5 92.78125 50.792969 91.929688 52.039062 C 91.910156 52.066406 91.890625 52.09375 91.871094 52.125 C 91.433594 52.761719 90.964844 53.378906 90.472656 53.96875 C 90.453125 53.992188 90.433594 54.011719 90.414062 54.035156 C 90.15625 54.34375 89.894531 54.644531 89.625 54.9375 C 89.566406 55 89.507812 55.0625 89.453125 55.128906 C 89.222656 55.402344 88.96875 55.652344 88.71875 55.90625 C 88.640625 55.984375 88.5625 56.066406 88.484375 56.144531 C 88.234375 56.394531 87.988281 56.636719 87.71875 56.863281 C 87.644531 56.933594 87.570312 57 87.496094 57.070312 C 87.3125 57.238281 87.125 57.402344 86.929688 57.558594 C 86.835938 57.632812 86.746094 57.710938 86.652344 57.785156 C 85.261719 58.941406 83.726562 59.929688 82.132812 60.765625 C 82.085938 60.792969 82.039062 60.816406 81.992188 60.839844 C 79.132812 62.339844 76.023438 63.253906 71.417969 63.789062 C 71.363281 63.792969 71.3125 63.796875 71.257812 63.800781 C 70.65625 63.835938 70.058594 63.839844 69.457031 63.839844 C 69.40625 63.839844 69.351562 63.839844 69.296875 63.839844 C 68.445312 63.835938 67.597656 63.820312 66.75 63.746094 C 66.71875 63.746094 66.6875 63.742188 66.652344 63.738281 C 63.445312 63.464844 60.273438 62.769531 52.574219 58.960938 C 52.539062 58.941406 52.507812 58.917969 52.476562 58.894531 C 52.039062 58.59375 51.609375 58.289062 51.199219 57.957031 C 51.171875 57.933594 51.144531 57.914062 51.121094 57.894531 C 50.820312 57.652344 50.523438 57.40625 50.230469 57.15625 C 50.210938 57.136719 50.1875 57.121094 50.167969 57.101562 C 49.699219 56.699219 49.261719 56.265625 48.828125 55.828125 C 48.742188 55.742188 48.65625 55.65625 48.570312 55.570312 C 48.515625 55.511719 48.460938 55.457031 48.40625 55.402344 C 48.378906 55.375 48.355469 55.351562 48.328125 55.324219 C 48.152344 55.144531 47.984375 54.957031 47.820312 54.765625 C 47.777344 54.71875 47.738281 54.671875 47.695312 54.625 C 47.441406 54.324219 47.191406 54.019531 46.957031 53.703125 C 46.902344 53.632812 46.84375 53.558594 46.789062 53.484375 C 45.496094 51.792969 44.496094 49.898438 43.691406 47.925781 C 43.667969 47.949219 43.640625 47.972656 43.617188 48 C 42.199219 49.335938 40.382812 50.171875 38.480469 50.527344 C 38.433594 50.535156 38.433594 50.535156 38.382812 50.546875 C 35.382812 51.101562 32.113281 50.601562 29.570312 48.867188 C 29.226562 48.632812 28.910156 48.367188 28.601562 48.09375 C 28.5625 48.058594 28.523438 48.027344 28.484375 47.992188 C 28.296875 47.824219 28.121094 47.65625 27.960938 47.464844 C 27.914062 47.410156 27.867188 47.355469 27.820312 47.304688 C 27.296875 46.738281 26.878906 46.085938 26.515625 45.40625 C 26.492188 45.367188 26.492188 45.367188 26.472656 45.324219 C 25.488281 43.5 25.128906 41.425781 25.132812 39.367188 C 25.132812 39.335938 25.132812 39.304688 25.132812 39.269531 C 25.136719 36.398438 25.925781 33.414062 27.949219 31.296875 C 28.042969 31.199219 28.128906 31.101562 28.214844 30.996094 C 28.359375 30.832031 28.515625 30.691406 28.683594 30.550781 C 28.738281 30.503906 28.738281 30.503906 28.792969 30.457031 C 31.089844 28.472656 34.160156 27.820312 37.125 28.023438 C 39.117188 28.179688 41.117188 28.792969 42.734375 30.007812 C 42.757812 30.023438 42.785156 30.042969 42.808594 30.0625 C 43.292969 30.425781 43.730469 30.832031 44.152344 31.265625 C 44.269531 31.117188 44.386719 30.964844 44.5 30.8125 C 44.929688 30.242188 45.382812 29.722656 45.882812 29.214844 C 45.90625 29.195312 45.929688 29.171875 45.953125 29.148438 C 46.242188 28.855469 46.539062 28.585938 46.863281 28.328125 C 46.917969 28.28125 46.972656 28.234375 47.027344 28.1875 C 48.050781 27.332031 49.386719 26.238281 50.640625 25.75 C 50.742188 25.691406 50.773438 25.664062 50.808594 25.546875 C 50.816406 25.417969 50.820312 25.296875 50.816406 25.167969 C 50.816406 25.121094 50.816406 25.070312 50.820312 25.019531 C 50.820312 24.863281 50.820312 24.703125 50.816406 24.542969 C 50.820312 24.429688 50.820312 24.320312 50.820312 24.210938 C 50.820312 23.949219 50.820312 23.6875 50.820312 23.425781 C 50.820312 23.097656 50.820312 22.769531 50.820312 22.441406 C 50.824219 21.859375 50.824219 21.273438 50.820312 20.6875 C 52.335938 20.6875 53.847656 20.6875 55.410156 20.6875 C 55.410156 21.410156 55.410156 22.128906 55.410156 22.871094 C 55.671875 22.707031 55.9375 22.539062 56.203125 22.371094 C 56.308594 22.304688 56.417969 22.238281 56.523438 22.171875 C 57.519531 21.542969 58.5 20.878906 59.453125 20.1875 C 59.484375 20.164062 59.515625 20.140625 59.546875 20.117188 C 59.988281 19.796875 60.421875 19.460938 60.839844 19.109375 C 60.9375 19.03125 61.03125 18.957031 61.128906 18.878906 C 61.492188 18.585938 61.847656 18.28125 62.195312 17.960938 C 62.273438 17.886719 62.359375 17.816406 62.441406 17.742188 C 62.878906 17.359375 63.292969 16.953125 63.703125 16.539062 C 63.742188 16.503906 63.777344 16.464844 63.816406 16.429688 C 64 16.242188 64.179688 16.054688 64.347656 15.855469 C 64.441406 15.746094 64.539062 15.640625 64.636719 15.535156 C 64.816406 15.339844 64.984375 15.140625 65.152344 14.933594 C 65.238281 14.828125 65.324219 14.722656 65.410156 14.621094 C 65.667969 14.320312 65.90625 14.007812 66.140625 13.6875 C 66.207031 13.59375 66.277344 13.5 66.347656 13.40625 C 66.6875 12.945312 67.015625 12.476562 67.332031 12.003906 C 67.347656 11.976562 67.367188 11.953125 67.382812 11.925781 C 67.632812 11.550781 67.878906 11.171875 68.125 10.792969 C 68.203125 10.675781 68.28125 10.558594 68.355469 10.441406 C 68.410156 10.359375 68.460938 10.28125 68.511719 10.203125 C 68.847656 9.679688 69.199219 9.175781 69.582031 8.6875 C 69.601562 8.664062 69.621094 8.640625 69.636719 8.617188 C 69.882812 8.304688 70.148438 8.011719 70.417969 7.722656 C 70.441406 7.695312 70.464844 7.667969 70.492188 7.640625 C 73.105469 4.867188 78.03125 5.785156 84.296875 9.042969 Z M 31.15625 33.773438 C 30.441406 34.605469 29.769531 35.933594 29.769531 37.054688 C 33.910156 37.054688 38.050781 37.054688 42.316406 37.054688 C 42.285156 36.746094 42.25 36.492188 42.167969 36.199219 C 42.15625 36.160156 42.148438 36.117188 42.136719 36.078125 C 41.691406 34.519531 40.722656 33.273438 39.324219 32.472656 C 36.667969 31 33.21875 31.582031 31.15625 33.773438 Z M 29.644531 40.289062 C 29.691406 41.140625 29.691406 41.140625 29.816406 41.980469 C 29.828125 42.027344 29.835938 42.070312 29.84375 42.117188 C 29.984375 42.777344 30.199219 43.398438 30.519531 43.992188 C 30.558594 44.058594 30.59375 44.128906 30.628906 44.199219 C 31.320312 45.476562 32.621094 46.253906 33.964844 46.671875 C 35.816406 47.199219 37.835938 47.019531 39.53125 46.097656 C 39.960938 45.851562 40.332031 45.539062 40.691406 45.199219 C 40.71875 45.171875 40.746094 45.148438 40.773438 45.125 C 41.457031 44.488281 41.8125 43.582031 42.109375 42.722656 C 42.253906 42.699219 42.253906 42.699219 42.402344 42.679688 C 42.398438 42.644531 42.394531 42.613281 42.390625 42.578125 C 42.378906 42.445312 42.363281 42.316406 42.351562 42.183594 C 42.34375 42.101562 42.335938 42.019531 42.328125 41.9375 C 42.273438 41.386719 42.234375 40.839844 42.191406 40.289062 C 38.050781 40.289062 33.910156 40.289062 29.644531 40.289062 Z M 29.644531 40.289062 "/>
<path style=" stroke:none;fill-rule:nonzero;fill:rgb(0%,0%,0%);fill-opacity:1;" d="M 69.730469 28.023438 C 69.773438 28.023438 69.8125 28.023438 69.855469 28.023438 C 71.558594 28.015625 73.242188 28.128906 74.835938 28.789062 C 74.871094 28.804688 74.902344 28.816406 74.9375 28.832031 C 76.121094 29.320312 77.214844 29.941406 78.148438 30.828125 C 78.234375 30.910156 78.324219 30.988281 78.414062 31.0625 C 78.574219 31.199219 78.703125 31.355469 78.839844 31.515625 C 78.871094 31.554688 78.90625 31.59375 78.941406 31.632812 C 80.226562 33.113281 81.003906 34.945312 81.351562 36.871094 C 81.355469 36.90625 81.363281 36.9375 81.371094 36.976562 C 81.5 37.753906 81.523438 38.539062 81.519531 39.328125 C 81.519531 39.375 81.519531 39.421875 81.519531 39.46875 C 81.519531 40.183594 81.492188 40.882812 81.382812 41.589844 C 81.371094 41.65625 81.363281 41.726562 81.351562 41.796875 C 81.09375 43.589844 80.339844 45.339844 79.214844 46.75 C 79.1875 46.785156 79.160156 46.820312 79.128906 46.855469 C 78.90625 47.136719 78.667969 47.398438 78.414062 47.652344 C 78.375 47.691406 78.335938 47.730469 78.296875 47.769531 C 78.007812 48.054688 77.714844 48.320312 77.378906 48.554688 C 77.351562 48.574219 77.324219 48.59375 77.292969 48.617188 C 75.308594 50.015625 72.976562 50.71875 70.558594 50.707031 C 70.441406 50.707031 70.320312 50.707031 70.203125 50.707031 C 68.453125 50.707031 66.707031 50.367188 65.121094 49.605469 C 65.082031 49.585938 65.082031 49.585938 65.039062 49.566406 C 64.003906 49.082031 63.066406 48.394531 62.265625 47.582031 C 62.226562 47.542969 62.191406 47.503906 62.152344 47.464844 C 61.867188 47.171875 61.605469 46.875 61.371094 46.539062 C 61.339844 46.496094 61.304688 46.453125 61.273438 46.40625 C 60.6875 45.578125 60.21875 44.683594 59.871094 43.730469 C 59.839844 43.652344 59.839844 43.652344 59.8125 43.574219 C 59.410156 42.429688 59.199219 41.175781 59.195312 39.960938 C 59.191406 39.894531 59.191406 39.894531 59.191406 39.824219 C 59.191406 39.726562 59.191406 39.628906 59.191406 39.53125 C 59.191406 39.386719 59.191406 39.242188 59.1875 39.09375 C 59.183594 38.148438 59.285156 37.222656 59.492188 36.300781 C 59.5 36.265625 59.507812 36.234375 59.515625 36.195312 C 59.78125 35.027344 60.226562 33.910156 60.871094 32.902344 C 60.886719 32.875 60.90625 32.847656 60.925781 32.816406 C 61.4375 32.023438 62.050781 31.230469 62.789062 30.636719 C 62.832031 30.597656 62.875 30.5625 62.921875 30.523438 C 64.808594 28.953125 67.277344 28.039062 69.730469 28.023438 Z M 69.730469 28.023438 "/>
<path style=" stroke:none;fill-rule:nonzero;fill:rgb(0%,0%,0%);fill-opacity:1;" d="M 42.734375 30.007812 C 42.757812 30.023438 42.785156 30.042969 42.808594 30.0625 C 43.179688 30.34375 43.523438 30.648438 43.859375 30.972656 C 43.890625 31.003906 43.925781 31.035156 43.957031 31.066406 C 44.117188 31.21875 44.246094 31.378906 44.378906 31.554688 C 44.4375 31.636719 44.503906 31.71875 44.566406 31.800781 C 45.859375 33.445312 46.632812 35.4375 46.863281 37.519531 C 46.867188 37.550781 46.871094 37.585938 46.875 37.617188 C 46.949219 38.210938 46.953125 38.800781 46.953125 39.398438 C 46.953125 39.4375 46.953125 39.476562 46.953125 39.515625 C 46.953125 39.628906 46.953125 39.742188 46.953125 39.851562 C 46.953125 39.886719 46.953125 39.921875 46.953125 39.957031 C 46.949219 40.195312 46.949219 40.195312 46.902344 40.289062 C 41.207031 40.289062 35.511719 40.289062 29.644531 40.289062 C 29.820312 41.902344 30.035156 43.59375 31.144531 44.863281 C 31.171875 44.894531 31.199219 44.929688 31.230469 44.964844 C 32.261719 46.171875 33.878906 46.769531 35.421875 46.898438 C 37.1875 47.027344 39.023438 46.613281 40.386719 45.4375 C 40.488281 45.34375 40.589844 45.25 40.691406 45.15625 C 40.726562 45.125 40.726562 45.125 40.765625 45.089844 C 41.390625 44.515625 41.738281 43.664062 42.011719 42.875 C 42.066406 42.722656 42.066406 42.722656 42.109375 42.679688 C 42.167969 42.675781 42.226562 42.675781 42.28125 42.675781 C 42.339844 42.675781 42.339844 42.675781 42.398438 42.675781 C 42.4375 42.679688 42.480469 42.679688 42.523438 42.679688 C 42.589844 42.679688 42.589844 42.679688 42.65625 42.679688 C 42.800781 42.679688 42.945312 42.683594 43.089844 42.683594 C 43.1875 42.6875 43.289062 42.6875 43.386719 42.6875 C 43.652344 42.691406 43.914062 42.695312 44.179688 42.695312 C 44.449219 42.699219 44.71875 42.703125 44.984375 42.703125 C 45.515625 42.710938 46.042969 42.714844 46.570312 42.722656 C 46.542969 42.835938 46.515625 42.949219 46.492188 43.066406 C 46.484375 43.097656 46.476562 43.128906 46.46875 43.164062 C 46.414062 43.390625 46.351562 43.613281 46.265625 43.832031 C 46.253906 43.863281 46.242188 43.898438 46.230469 43.929688 C 45.894531 44.808594 45.488281 45.648438 44.945312 46.414062 C 44.914062 46.457031 44.882812 46.5 44.851562 46.546875 C 44.542969 46.964844 44.210938 47.378906 43.835938 47.738281 C 43.765625 47.808594 43.765625 47.808594 43.683594 47.921875 C 43.519531 48.121094 43.308594 48.269531 43.109375 48.429688 C 43.050781 48.476562 43.050781 48.476562 42.988281 48.527344 C 41.691406 49.574219 40.109375 50.222656 38.480469 50.527344 C 38.433594 50.535156 38.433594 50.535156 38.382812 50.546875 C 35.382812 51.101562 32.113281 50.601562 29.570312 48.867188 C 29.226562 48.632812 28.910156 48.367188 28.601562 48.09375 C 28.5625 48.058594 28.523438 48.027344 28.484375 47.992188 C 28.296875 47.824219 28.121094 47.65625 27.960938 47.464844 C 27.914062 47.410156 27.867188 47.355469 27.820312 47.304688 C 27.296875 46.738281 26.878906 46.085938 26.515625 45.40625 C 26.5 45.378906 26.484375 45.351562 26.472656 45.324219 C 25.488281 43.5 25.128906 41.425781 25.132812 39.367188 C 25.132812 39.335938 25.132812 39.304688 25.132812 39.269531 C 25.136719 36.398438 25.925781 33.414062 27.949219 31.296875 C 28.042969 31.199219 28.128906 31.101562 28.214844 30.996094 C 28.359375 30.832031 28.515625 30.691406 28.683594 30.550781 C 28.71875 30.519531 28.753906 30.488281 28.792969 30.457031 C 31.871094 27.796875 36.597656 27.332031 42.734375 30.007812 Z M 31.15625 33.773438 C 30.441406 34.605469 29.769531 35.933594 29.769531 37.054688 C 33.910156 37.054688 38.050781 37.054688 42.316406 37.054688 C 42.285156 36.746094 42.25 36.492188 42.167969 36.199219 C 42.15625 36.160156 42.148438 36.117188 42.136719 36.078125 C 41.691406 34.519531 40.722656 33.273438 39.324219 32.472656 C 36.667969 31 33.21875 31.582031 31.15625 33.773438 Z M 31.15625 33.773438 "/>
<path style=" stroke:none;fill-rule:nonzero;fill:rgb(0%,0%,0%);fill-opacity:1;" d="M 97.3125 27.855469 C 97.347656 27.855469 97.378906 27.855469 97.414062 27.855469 C 99.355469 27.859375 101.320312 28.367188 102.8125 29.671875 C 102.859375 29.714844 102.859375 29.714844 102.910156 29.757812 C 104.808594 31.441406 105.652344 33.8125 105.820312 36.3125 C 105.859375 37 105.859375 37.6875 105.859375 38.371094 C 105.859375 38.535156 105.859375 38.699219 105.859375 38.859375 C 105.859375 39.140625 105.859375 39.421875 105.859375 39.703125 C 105.859375 40.105469 105.859375 40.511719 105.859375 40.917969 C 105.859375 41.578125 105.859375 42.234375 105.859375 42.894531 C 105.859375 43.53125 105.859375 44.171875 105.855469 44.8125 C 105.855469 44.871094 105.855469 44.871094 105.855469 44.929688 C 105.855469 45.128906 105.855469 45.328125 105.855469 45.523438 C 105.855469 47.164062 105.855469 48.804688 105.855469 50.445312 C 104.328125 50.445312 102.800781 50.445312 101.226562 50.445312 C 101.226562 49.847656 101.226562 49.847656 101.226562 49.242188 C 101.222656 47.96875 101.222656 46.695312 101.21875 45.425781 C 101.21875 45.226562 101.21875 45.027344 101.214844 44.832031 C 101.214844 44.773438 101.214844 44.773438 101.214844 44.710938 C 101.214844 44.074219 101.214844 43.4375 101.210938 42.800781 C 101.210938 42.148438 101.210938 41.496094 101.207031 40.839844 C 101.207031 40.4375 101.207031 40.035156 101.207031 39.632812 C 101.207031 39.355469 101.207031 39.078125 101.203125 38.800781 C 101.203125 38.640625 101.203125 38.484375 101.203125 38.324219 C 101.203125 37.328125 101.148438 36.371094 100.851562 35.417969 C 100.839844 35.375 100.839844 35.375 100.824219 35.332031 C 100.609375 34.664062 100.273438 34.054688 99.808594 33.53125 C 99.777344 33.488281 99.777344 33.488281 99.742188 33.445312 C 99.378906 32.988281 98.863281 32.660156 98.351562 32.398438 C 98.324219 32.386719 98.300781 32.371094 98.273438 32.359375 C 97.464844 31.957031 96.574219 31.792969 95.679688 31.800781 C 95.585938 31.800781 95.492188 31.800781 95.398438 31.800781 C 94.855469 31.796875 94.316406 31.839844 93.789062 31.984375 C 93.757812 31.992188 93.726562 32 93.691406 32.011719 C 92.851562 32.25 92.113281 32.691406 91.472656 33.28125 C 91.4375 33.308594 91.40625 33.339844 91.371094 33.371094 C 90.136719 34.542969 89.675781 36.371094 89.625 38.027344 C 89.621094 38.324219 89.617188 38.625 89.617188 38.925781 C 89.617188 39.078125 89.617188 39.234375 89.617188 39.390625 C 89.617188 39.660156 89.617188 39.925781 89.617188 40.195312 C 89.617188 40.582031 89.613281 40.96875 89.613281 41.355469 C 89.613281 41.984375 89.609375 42.613281 89.609375 43.238281 C 89.609375 43.847656 89.609375 44.457031 89.605469 45.070312 C 89.605469 45.105469 89.605469 45.144531 89.605469 45.183594 C 89.605469 45.371094 89.605469 45.5625 89.605469 45.75 C 89.601562 47.316406 89.597656 48.878906 89.59375 50.445312 C 88.082031 50.445312 86.570312 50.445312 85.007812 50.445312 C 85.007812 43.160156 85.007812 35.875 85.007812 28.371094 C 86.523438 28.371094 88.035156 28.371094 89.59375 28.371094 C 89.609375 29.628906 89.621094 30.890625 89.636719 32.1875 C 89.789062 31.953125 89.941406 31.71875 90.09375 31.476562 C 90.378906 31.085938 90.683594 30.730469 91.011719 30.382812 C 91.039062 30.355469 91.066406 30.328125 91.09375 30.296875 C 92.679688 28.636719 95.070312 27.855469 97.3125 27.855469 Z M 97.3125 27.855469 "/>
<path style=" stroke:none;fill-rule:nonzero;fill:rgb(0%,0%,0%);fill-opacity:1;" d="M 16.675781 28.832031 C 16.71875 28.847656 16.71875 28.847656 16.761719 28.867188 C 18.328125 29.5 19.785156 30.632812 20.761719 32.019531 C 20.78125 32.042969 20.796875 32.070312 20.816406 32.09375 C 21.71875 33.382812 22.332031 34.90625 22.554688 36.46875 C 20.945312 36.46875 19.335938 36.46875 17.675781 36.46875 C 17.566406 36.109375 17.457031 35.75 17.34375 35.378906 C 17.070312 34.726562 16.746094 34.210938 16.257812 33.699219 C 16.234375 33.671875 16.207031 33.640625 16.183594 33.613281 C 15.234375 32.597656 13.734375 32.113281 12.378906 32.058594 C 10.546875 32.003906 9.050781 32.507812 7.695312 33.75 C 6.53125 34.871094 6.042969 36.496094 5.878906 38.0625 C 5.875 38.101562 5.871094 38.136719 5.867188 38.175781 C 5.832031 38.550781 5.828125 38.925781 5.828125 39.304688 C 5.828125 39.339844 5.828125 39.371094 5.828125 39.40625 C 5.828125 41.269531 6.183594 43.332031 7.503906 44.730469 C 7.585938 44.820312 7.585938 44.820312 7.671875 44.929688 C 8.476562 45.929688 9.855469 46.453125 11.078125 46.636719 C 12.648438 46.804688 14.339844 46.535156 15.632812 45.574219 C 15.746094 45.484375 15.855469 45.386719 15.960938 45.285156 C 16.050781 45.199219 16.050781 45.199219 16.171875 45.097656 C 16.308594 44.984375 16.417969 44.855469 16.527344 44.714844 C 16.546875 44.691406 16.566406 44.664062 16.585938 44.636719 C 17.148438 43.890625 17.402344 43.125 17.675781 42.21875 C 19.285156 42.21875 20.898438 42.21875 22.554688 42.21875 C 22.359375 43.199219 22.359375 43.199219 22.269531 43.5 C 22.261719 43.535156 22.25 43.574219 22.238281 43.609375 C 21.824219 45.007812 21.167969 46.296875 20.179688 47.371094 C 20.105469 47.453125 20.035156 47.539062 19.960938 47.625 C 18.222656 49.628906 15.519531 50.523438 12.957031 50.710938 C 12.765625 50.726562 12.574219 50.730469 12.382812 50.738281 C 12.355469 50.738281 12.324219 50.738281 12.296875 50.738281 C 9.472656 50.820312 6.675781 49.996094 4.542969 48.09375 C 4.484375 48.039062 4.484375 48.039062 4.417969 47.984375 C 4.191406 47.78125 3.988281 47.570312 3.792969 47.339844 C 3.757812 47.300781 3.726562 47.261719 3.691406 47.21875 C 3.066406 46.5 2.570312 45.683594 2.167969 44.820312 C 2.152344 44.789062 2.136719 44.757812 2.121094 44.722656 C 1.351562 43.054688 1.074219 41.199219 1.074219 39.371094 C 1.078125 39.335938 1.078125 39.300781 1.078125 39.265625 C 1.082031 36.328125 1.910156 33.386719 3.960938 31.222656 C 4.007812 31.167969 4.054688 31.109375 4.105469 31.050781 C 4.6875 30.386719 5.441406 29.847656 6.210938 29.417969 C 6.242188 29.402344 6.269531 29.386719 6.300781 29.367188 C 7.671875 28.589844 9.230469 28.160156 10.796875 28.035156 C 10.824219 28.03125 10.855469 28.027344 10.882812 28.027344 C 12.832031 27.867188 14.855469 28.089844 16.675781 28.832031 Z M 16.675781 28.832031 "/>
<path style=" stroke:none;fill-rule:nonzero;fill:rgb(0%,0%,0%);fill-opacity:1;" d="M 128.328125 27.855469 C 128.371094 27.855469 128.414062 27.855469 128.457031 27.855469 C 129.132812 27.855469 129.789062 27.878906 130.453125 27.992188 C 130.496094 28 130.539062 28.007812 130.585938 28.011719 C 132.085938 28.273438 133.625 28.785156 134.832031 29.753906 C 134.855469 29.773438 134.875 29.789062 134.898438 29.808594 C 136.113281 30.789062 136.960938 32.058594 137.261719 33.609375 C 137.269531 33.644531 137.277344 33.679688 137.285156 33.71875 C 137.347656 34.085938 137.332031 34.398438 137.332031 34.789062 C 135.859375 34.789062 134.386719 34.789062 132.871094 34.789062 C 132.828125 34.511719 132.789062 34.234375 132.746094 33.949219 C 132.449219 33.011719 131.839844 32.394531 130.980469 31.945312 C 129.65625 31.277344 127.941406 31.128906 126.527344 31.59375 C 125.730469 31.875 124.960938 32.292969 124.554688 33.078125 C 124.320312 33.570312 124.273438 34.160156 124.429688 34.6875 C 124.757812 35.507812 125.527344 35.960938 126.296875 36.296875 C 127.425781 36.765625 128.617188 37.097656 129.789062 37.4375 C 134.691406 38.859375 134.691406 38.859375 136.289062 40.328125 C 136.328125 40.363281 136.363281 40.398438 136.402344 40.429688 C 137.3125 41.304688 137.832031 42.609375 137.878906 43.871094 C 137.914062 45.480469 137.582031 46.769531 136.457031 47.96875 C 136.425781 48 136.394531 48.035156 136.363281 48.070312 C 134.660156 49.867188 131.804688 50.59375 129.417969 50.664062 C 129.164062 50.667969 128.910156 50.667969 128.65625 50.667969 C 128.613281 50.667969 128.570312 50.667969 128.523438 50.667969 C 127.824219 50.664062 127.144531 50.636719 126.449219 50.527344 C 126.410156 50.523438 126.371094 50.515625 126.328125 50.511719 C 124.648438 50.265625 122.914062 49.691406 121.53125 48.679688 C 121.507812 48.664062 121.484375 48.644531 121.457031 48.628906 C 121.113281 48.375 120.796875 48.09375 120.488281 47.800781 C 120.445312 47.757812 120.445312 47.757812 120.398438 47.714844 C 119.355469 46.714844 118.726562 45.246094 118.613281 43.8125 C 118.613281 43.617188 118.613281 43.425781 118.613281 43.226562 C 120.167969 43.226562 121.722656 43.226562 123.324219 43.226562 C 123.363281 43.515625 123.363281 43.515625 123.40625 43.8125 C 123.695312 44.851562 124.375 45.585938 125.285156 46.121094 C 126.167969 46.609375 127.207031 46.921875 128.222656 46.925781 C 128.257812 46.925781 128.289062 46.925781 128.324219 46.929688 C 128.429688 46.929688 128.535156 46.929688 128.640625 46.929688 C 128.695312 46.929688 128.695312 46.929688 128.753906 46.929688 C 130.148438 46.925781 131.808594 46.730469 132.867188 45.710938 C 133.292969 45.261719 133.472656 44.753906 133.464844 44.132812 C 133.421875 43.382812 133.148438 42.839844 132.601562 42.335938 C 132.34375 42.121094 132.058594 41.96875 131.757812 41.820312 C 131.722656 41.800781 131.6875 41.785156 131.652344 41.765625 C 130.714844 41.324219 129.699219 41.050781 128.710938 40.75 C 128.523438 40.695312 128.339844 40.640625 128.15625 40.582031 C 127.867188 40.496094 127.582031 40.40625 127.292969 40.320312 C 122.621094 38.902344 122.621094 38.902344 121.238281 37.726562 C 121.1875 37.683594 121.1875 37.683594 121.132812 37.636719 C 120.234375 36.851562 119.785156 35.761719 119.695312 34.582031 C 119.632812 33.199219 119.921875 31.816406 120.863281 30.761719 C 120.894531 30.726562 120.925781 30.691406 120.957031 30.652344 C 121.554688 29.972656 122.234375 29.464844 123.03125 29.039062 C 123.078125 29.015625 123.078125 29.015625 123.125 28.992188 C 124.289062 28.378906 125.609375 28.050781 126.910156 27.90625 C 126.960938 27.902344 126.960938 27.902344 127.011719 27.894531 C 127.449219 27.851562 127.890625 27.855469 128.328125 27.855469 Z M 128.328125 27.855469 "/>
<path style=" stroke:none;fill-rule:nonzero;fill:rgb(35.686275%,99.215686%,30.980393%);fill-opacity:1;" d="M 74.628906 33.53125 C 75.226562 34.082031 75.671875 34.695312 76.046875 35.417969 C 76.058594 35.445312 76.070312 35.472656 76.085938 35.496094 C 76.308594 35.929688 76.457031 36.378906 76.585938 36.847656 C 76.601562 36.890625 76.613281 36.9375 76.625 36.984375 C 76.660156 37.121094 76.6875 37.253906 76.710938 37.390625 C 76.71875 37.421875 76.722656 37.449219 76.730469 37.480469 C 76.84375 38.078125 76.851562 38.679688 76.851562 39.289062 C 76.851562 39.347656 76.851562 39.347656 76.851562 39.40625 C 76.851562 40.191406 76.796875 40.949219 76.609375 41.710938 C 76.589844 41.792969 76.570312 41.875 76.554688 41.953125 C 76.195312 43.460938 75.222656 44.875 73.917969 45.703125 C 73.769531 45.792969 73.617188 45.875 73.460938 45.953125 C 73.414062 45.976562 73.367188 46 73.320312 46.023438 C 72.363281 46.5 71.398438 46.679688 70.339844 46.683594 C 70.289062 46.683594 70.289062 46.683594 70.242188 46.6875 C 69.773438 46.6875 69.332031 46.636719 68.875 46.539062 C 68.835938 46.53125 68.796875 46.523438 68.757812 46.515625 C 68.253906 46.40625 67.792969 46.222656 67.332031 45.996094 C 67.285156 45.972656 67.238281 45.949219 67.1875 45.925781 C 66.058594 45.351562 65.238281 44.382812 64.664062 43.265625 C 64.636719 43.21875 64.613281 43.167969 64.585938 43.117188 C 64.011719 41.957031 63.863281 40.648438 63.863281 39.367188 C 63.863281 39.335938 63.863281 39.300781 63.863281 39.269531 C 63.871094 37.195312 64.414062 35.222656 65.882812 33.710938 C 68.152344 31.449219 72.261719 31.40625 74.628906 33.53125 Z M 74.628906 33.53125 "/>
<path style=" stroke:none;fill-rule:nonzero;fill:rgb(0%,0%,0%);fill-opacity:1;" d="M 50.820312 20.6875 C 52.335938 20.6875 53.847656 20.6875 55.410156 20.6875 C 55.394531 30.496094 55.378906 40.300781 55.367188 50.402344 C 53.867188 50.402344 52.367188 50.402344 50.820312 50.402344 C 50.820312 40.597656 50.820312 30.792969 50.820312 20.6875 Z M 50.820312 20.6875 "/>
<path style=" stroke:none;fill-rule:nonzero;fill:rgb(0%,0%,0%);fill-opacity:1;" d="M 110.566406 28.285156 C 112.078125 28.285156 113.59375 28.285156 115.152344 28.285156 C 115.152344 35.597656 115.152344 42.910156 115.152344 50.445312 C 113.640625 50.445312 112.125 50.445312 110.566406 50.445312 C 110.566406 43.132812 110.566406 35.820312 110.566406 28.285156 Z M 110.566406 28.285156 "/>
<path style=" stroke:none;fill-rule:nonzero;fill:rgb(0%,0%,0%);fill-opacity:1;" d="M 114.777344 19.726562 C 115.378906 20.199219 115.722656 20.808594 115.820312 21.570312 C 115.875 22.328125 115.707031 23.03125 115.210938 23.621094 C 114.65625 24.195312 113.902344 24.496094 113.105469 24.519531 C 113.019531 24.523438 112.933594 24.523438 112.847656 24.523438 C 112.800781 24.519531 112.753906 24.519531 112.707031 24.519531 C 111.910156 24.507812 111.164062 24.261719 110.574219 23.699219 C 110.066406 23.160156 109.875 22.480469 109.890625 21.746094 C 109.933594 20.992188 110.222656 20.367188 110.765625 19.84375 C 111.847656 18.921875 113.632812 18.929688 114.777344 19.726562 Z M 114.777344 19.726562 "/>
</g>
</svg>
