<svg xmlns="http://www.w3.org/2000/svg" width="100" height="50" viewBox="0 0 80 40">
<g>
<path d="M 41.56,28.91 C40.32,29.08 39.13,28.95 38.03,28.54 C37.72,28.42 37.38,28.30 37.29,28.27 C37.20,28.24 37.11,28.20 37.08,28.17 C37.06,28.14 36.87,28.00 36.66,27.86 C35.97,27.38 35.21,26.49 34.80,25.65 C34.27,24.58 34.13,23.90 34.14,22.42 C34.15,20.35 34.60,19.15 35.88,17.87 C36.69,17.05 37.32,16.66 38.38,16.34 C39.66,15.94 41.62,15.97 42.88,16.40 C43.86,16.74 44.44,17.10 45.18,17.84 C45.69,18.35 45.89,18.63 46.20,19.26 C46.78,20.45 46.88,20.89 46.87,22.50 C46.87,23.67 46.84,23.97 46.69,24.52 C45.98,26.98 44.14,28.56 41.56,28.91 ZM 22.62,28.79 C21.94,28.98 20.04,29.03 19.38,28.88 C17.95,28.55 17.02,28.04 16.16,27.12 C15.06,25.93 14.56,24.49 14.55,22.50 C14.54,20.53 15.04,19.09 16.15,17.91 C17.43,16.55 18.88,16.02 21.16,16.10 C22.43,16.15 23.22,16.35 24.10,16.85 C25.90,17.87 27.00,19.92 27.00,22.25 L 27.00,23.00 L 25.72,23.00 C25.02,23.00 24.42,23.02 24.40,23.05 C24.37,23.07 22.71,23.09 20.71,23.08 L 17.07,23.08 L 17.12,23.44 C17.37,25.09 17.93,25.95 19.15,26.53 C19.69,26.78 19.75,26.79 20.79,26.79 C21.84,26.79 21.89,26.78 22.44,26.52 C23.17,26.18 23.82,25.54 24.08,24.90 L 24.28,24.42 L 26.77,24.42 L 26.72,24.71 C26.64,25.20 26.05,26.33 25.56,26.92 C24.85,27.77 23.73,28.49 22.62,28.79 ZM 51.59,24.83 L 51.54,28.79 L 50.28,28.81 L 49.02,28.84 L 48.97,28.62 C48.90,28.37 48.91,16.81 48.98,16.48 L 49.02,16.25 L 51.58,16.25 L 51.59,18.38 L 51.77,18.12 C52.39,17.24 53.52,16.43 54.50,16.17 C54.71,16.11 54.93,16.05 55.00,16.02 C55.27,15.94 57.02,16.02 57.46,16.13 C59.08,16.55 60.26,17.76 60.72,19.46 C60.86,19.99 60.88,20.39 60.88,24.42 L 60.88,28.79 L 59.60,28.81 L 58.33,28.84 L 58.33,25.11 C58.33,20.87 58.28,20.38 57.82,19.61 C57.50,19.07 56.84,18.54 56.30,18.37 C55.70,18.19 54.66,18.13 54.15,18.25 C53.01,18.52 52.16,19.31 51.77,20.48 C51.65,20.81 51.62,21.50 51.59,24.83 ZM 8.79,28.80 C8.22,28.95 6.33,29.03 5.74,28.92 C3.69,28.55 2.24,27.48 1.38,25.71 C0.84,24.60 0.71,23.95 0.71,22.46 C0.72,21.02 0.83,20.43 1.33,19.38 C1.96,18.02 2.98,17.05 4.33,16.51 C5.86,15.91 8.28,15.93 9.77,16.57 C10.79,17.01 11.92,18.06 12.40,19.02 C12.77,19.73 13.03,20.66 12.91,20.81 C12.84,20.89 12.51,20.92 11.59,20.91 C10.92,20.91 10.34,20.89 10.29,20.85 C10.24,20.82 10.14,20.58 10.06,20.32 C9.85,19.65 9.22,18.97 8.50,18.63 C7.99,18.40 7.89,18.38 6.96,18.38 C6.01,18.38 5.93,18.39 5.42,18.64 C4.00,19.32 3.39,20.49 3.40,22.50 C3.40,24.02 3.73,24.97 4.52,25.75 C5.82,27.03 7.95,27.06 9.31,25.81 C9.68,25.47 10.17,24.62 10.17,24.31 C10.17,24.18 10.29,24.17 11.58,24.17 C12.36,24.17 13.00,24.20 13.00,24.24 C13.00,24.28 12.92,24.57 12.82,24.89 C12.23,26.82 10.73,28.28 8.79,28.80 ZM 75.96,28.76 C74.65,29.07 72.87,29.02 71.66,28.63 C69.83,28.02 68.51,26.67 68.36,25.22 L 68.31,24.75 L 70.98,24.75 L 71.08,25.13 C71.21,25.68 71.88,26.34 72.54,26.58 C73.36,26.88 73.90,26.95 74.72,26.84 C75.63,26.72 76.16,26.49 76.54,26.07 C76.80,25.78 76.83,25.70 76.83,25.26 C76.83,24.28 76.44,24.02 73.73,23.18 C71.44,22.47 70.86,22.25 70.20,21.82 C69.33,21.27 68.98,20.59 68.97,19.50 C68.96,18.87 68.99,18.73 69.22,18.25 C69.66,17.31 70.51,16.65 71.78,16.26 C72.40,16.06 72.59,16.05 73.96,16.05 C75.39,16.04 75.49,16.06 76.12,16.28 C77.74,16.85 78.74,17.86 79.01,19.21 L 79.02,19.25 C79.08,19.52 79.11,19.68 79.04,19.77 C78.95,19.92 78.64,19.92 77.86,19.92 L 77.79,19.92 C76.89,19.92 76.57,19.89 76.55,19.81 C76.53,19.75 76.48,19.55 76.43,19.37 C76.30,18.91 75.75,18.38 75.17,18.15 C74.81,18.01 74.52,17.97 73.87,17.97 C73.09,17.96 73.00,17.97 72.48,18.23 C71.80,18.57 71.54,18.96 71.61,19.55 C71.66,20.04 71.84,20.28 72.36,20.58 C72.76,20.82 73.21,20.97 75.65,21.71 C78.05,22.44 79.07,23.29 79.33,24.75 C79.68,26.66 78.41,28.16 75.96,28.76 ZM 39.67,26.61 C39.78,26.63 40.16,26.65 40.51,26.66 C42.31,26.69 43.64,25.63 44.10,23.81 C44.43,22.51 44.20,20.83 43.56,19.88 C43.34,19.55 42.74,18.92 42.64,18.92 C42.60,18.92 42.52,18.86 42.45,18.79 C42.38,18.72 42.06,18.59 41.74,18.49 C41.25,18.34 41.01,18.32 40.30,18.35 C39.59,18.38 39.37,18.43 38.89,18.65 C37.58,19.25 36.83,20.56 36.80,22.28 C36.78,23.84 37.05,24.67 37.84,25.54 C38.27,26.00 39.15,26.52 39.67,26.61 ZM 31.92,20.88 L 31.88,28.79 L 30.62,28.81 C29.93,28.83 29.34,28.81 29.31,28.78 C29.28,28.75 29.25,24.92 29.25,20.27 L 29.25,11.82 L 30.56,11.85 L 31.88,11.88 L 31.92,12.42 C31.94,12.71 31.94,16.52 31.92,20.88 ZM 66.31,22.58 L 66.29,28.79 L 63.67,28.84 L 63.67,16.26 L 64.97,16.23 C65.78,16.22 66.28,16.24 66.30,16.29 C66.32,16.34 66.32,19.17 66.31,22.58 ZM 17.20,21.14 C17.24,21.23 17.87,21.25 20.78,21.25 C22.73,21.25 24.34,21.22 24.37,21.18 C24.43,21.08 24.22,20.35 24.02,19.96 C23.60,19.13 22.73,18.48 21.76,18.25 C21.49,18.19 21.00,18.16 20.50,18.18 C19.82,18.22 19.60,18.26 19.15,18.48 C18.54,18.76 17.99,19.22 17.70,19.68 C17.46,20.06 17.14,20.98 17.20,21.14 ZM 66.06,13.70 C65.55,14.09 64.57,14.12 63.97,13.77 C63.58,13.54 63.34,13.05 63.34,12.50 C63.34,11.62 63.85,11.10 64.79,11.02 C65.91,10.92 66.67,11.54 66.67,12.56 C66.67,13.03 66.48,13.38 66.06,13.70 Z" fill="rgb(0,0,0)"/>
<path d="M 0.00,0.00 L 80.00,0.00 L 80.00,40.00 L 0.00,40.00 ZM 22.62,28.79 C23.66,28.51 24.72,27.86 25.43,27.07 L 25.01,27.56 L 25.21,27.86 C25.33,28.02 25.42,28.19 25.42,28.23 C25.42,28.27 25.50,28.40 25.60,28.52 C25.71,28.63 25.86,28.85 25.95,29.01 C26.69,30.34 28.00,31.91 29.13,32.80 C29.36,32.98 29.62,33.19 29.71,33.27 C29.95,33.49 30.90,34.12 31.43,34.40 C31.97,34.69 33.47,35.35 34.04,35.54 C35.17,35.92 37.22,36.34 38.46,36.44 C39.87,36.56 41.97,36.44 43.25,36.17 C45.05,35.79 46.94,35.03 48.25,34.16 C48.32,34.12 48.48,34.01 48.61,33.94 C49.79,33.23 51.74,31.40 52.51,30.29 C52.66,30.06 52.89,29.74 53.02,29.58 C53.15,29.41 53.25,29.25 53.25,29.22 C53.25,29.20 53.34,29.03 53.46,28.86 C53.95,28.15 54.72,26.41 55.03,25.33 C55.55,23.52 55.69,22.48 55.70,20.28 L 55.71,18.27 L 55.42,18.22 C55.75,18.25 56.06,18.30 56.30,18.37 C56.84,18.54 57.50,19.07 57.82,19.61 C58.28,20.38 58.33,20.87 58.33,25.11 L 58.33,28.84 L 59.60,28.81 L 60.88,28.79 L 60.88,24.42 C60.88,20.39 60.86,19.99 60.72,19.46 C60.26,17.76 59.08,16.55 57.46,16.13 C57.02,16.02 55.27,15.94 55.00,16.02 C54.93,16.05 54.71,16.11 54.50,16.17 C54.41,16.19 54.32,16.22 54.23,16.25 C54.36,16.20 54.48,16.17 54.61,16.13 C54.98,16.04 55.04,15.99 55.07,15.80 C55.11,15.44 53.96,12.27 53.42,11.25 C52.35,9.24 51.47,7.98 50.26,6.73 C49.78,6.23 49.16,5.64 48.88,5.42 C47.93,4.67 46.41,3.91 45.24,3.61 C44.46,3.41 44.29,3.40 43.26,3.44 C42.01,3.49 41.61,3.60 41.04,4.04 C40.50,4.45 39.90,5.15 39.22,6.17 C38.29,7.55 37.85,8.17 37.38,8.72 C36.87,9.31 35.50,10.58 34.71,11.19 C33.99,11.74 32.10,13.00 31.99,13.00 C31.97,13.00 31.95,13.75 31.93,15.07 C31.93,13.57 31.93,12.56 31.92,12.42 L 31.88,11.88 L 30.56,11.85 L 29.25,11.82 L 29.25,20.27 C29.25,20.84 29.25,21.39 29.25,21.93 L 29.25,21.74 L 29.21,14.68 L 28.77,14.95 C27.57,15.68 26.23,16.79 25.64,17.56 C25.46,17.80 25.46,17.88 25.75,18.32 C25.31,17.72 24.75,17.22 24.10,16.85 C23.22,16.35 22.43,16.15 21.16,16.10 C18.88,16.02 17.43,16.55 16.15,17.91 C15.04,19.09 14.54,20.53 14.55,22.50 C14.56,24.49 15.06,25.93 16.16,27.12 C17.02,28.04 17.95,28.55 19.38,28.88 C20.04,29.03 21.94,28.98 22.62,28.79 ZM 8.79,28.80 C10.73,28.28 12.23,26.82 12.82,24.89 C12.92,24.57 13.00,24.28 13.00,24.24 C13.00,24.20 12.36,24.17 11.58,24.17 C10.29,24.17 10.17,24.18 10.17,24.31 C10.17,24.62 9.68,25.47 9.31,25.81 C7.95,27.06 5.82,27.03 4.52,25.75 C3.73,24.97 3.40,24.02 3.40,22.50 C3.39,20.49 4.00,19.32 5.42,18.64 C5.93,18.39 6.01,18.38 6.96,18.38 C7.89,18.38 7.99,18.40 8.50,18.63 C9.22,18.97 9.85,19.65 10.06,20.32 C10.14,20.58 10.24,20.82 10.29,20.85 C10.34,20.89 10.92,20.91 11.59,20.91 C12.51,20.92 12.84,20.89 12.91,20.81 C13.03,20.66 12.77,19.73 12.40,19.02 C11.92,18.06 10.79,17.01 9.77,16.57 C8.28,15.93 5.86,15.91 4.33,16.51 C2.98,17.05 1.96,18.02 1.33,19.38 C0.83,20.43 0.72,21.02 0.71,22.46 C0.71,23.95 0.84,24.60 1.38,25.71 C2.24,27.48 3.69,28.55 5.74,28.92 C6.33,29.03 8.22,28.95 8.79,28.80 ZM 75.96,28.76 C78.41,28.16 79.68,26.66 79.33,24.75 C79.07,23.29 78.05,22.44 75.65,21.71 C73.21,20.97 72.76,20.82 72.36,20.58 C71.84,20.28 71.66,20.04 71.61,19.55 C71.54,18.96 71.80,18.57 72.48,18.23 C73.00,17.97 73.09,17.96 73.87,17.97 C74.52,17.97 74.81,18.01 75.17,18.15 C75.75,18.38 76.30,18.91 76.43,19.37 C76.48,19.55 76.53,19.75 76.55,19.81 C76.57,19.89 76.89,19.92 77.79,19.92 L 77.86,19.92 C78.64,19.92 78.95,19.92 79.04,19.77 C79.11,19.68 79.08,19.52 79.02,19.25 L 79.01,19.21 C78.74,17.86 77.74,16.85 76.12,16.28 C75.49,16.06 75.39,16.04 73.96,16.05 C72.59,16.05 72.40,16.06 71.78,16.26 C70.51,16.65 69.66,17.31 69.22,18.25 C68.99,18.73 68.96,18.87 68.97,19.50 C68.98,20.59 69.33,21.27 70.20,21.82 C70.86,22.25 71.44,22.47 73.73,23.18 C76.44,24.02 76.83,24.28 76.83,25.26 C76.83,25.70 76.80,25.78 76.54,26.07 C76.16,26.49 75.63,26.72 74.72,26.84 C73.90,26.95 73.36,26.88 72.54,26.58 C71.88,26.34 71.21,25.68 71.08,25.13 L 70.98,24.75 L 68.31,24.75 L 68.36,25.22 C68.51,26.67 69.83,28.02 71.66,28.63 C72.87,29.02 74.65,29.07 75.96,28.76 ZM 66.31,22.58 C66.32,19.17 66.32,16.34 66.30,16.29 C66.28,16.24 65.78,16.22 64.97,16.23 L 63.67,16.26 L 63.67,28.84 L 66.29,28.79 ZM 24.32,24.33 C24.34,24.38 24.84,24.42 25.56,24.42 L 24.28,24.42 L 24.08,24.90 C23.82,25.54 23.17,26.18 22.44,26.52 C21.89,26.78 21.84,26.79 20.79,26.79 C19.75,26.79 19.69,26.78 19.15,26.53 C17.93,25.95 17.37,25.09 17.12,23.44 L 17.07,23.08 L 20.71,23.08 C22.59,23.09 24.16,23.07 24.37,23.05 L 24.33,23.65 C24.31,23.98 24.30,24.29 24.32,24.33 ZM 17.20,21.14 C17.14,20.98 17.46,20.06 17.70,19.68 C17.99,19.22 18.54,18.76 19.15,18.48 C19.60,18.26 19.82,18.22 20.50,18.18 C21.00,18.16 21.49,18.19 21.76,18.25 C22.73,18.48 23.60,19.13 24.02,19.96 C24.22,20.35 24.43,21.08 24.37,21.18 C24.34,21.22 22.73,21.25 20.78,21.25 C17.87,21.25 17.24,21.23 17.20,21.14 ZM 66.06,13.70 C66.48,13.38 66.67,13.03 66.67,12.56 C66.67,11.54 65.91,10.92 64.79,11.02 C63.85,11.10 63.34,11.62 63.34,12.50 C63.34,13.05 63.58,13.54 63.97,13.77 C64.57,14.12 65.55,14.09 66.06,13.70 ZM 24.41,23.04 C24.49,23.02 25.06,23.00 25.72,23.00 L 26.76,23.00 L 25.69,23.02 ZM 51.59,24.83 C51.62,22.20 51.64,21.22 51.70,20.76 C51.65,21.24 51.62,22.43 51.59,24.83 L 51.54,28.79 ZM 53.15,18.67 C52.60,19.02 52.16,19.54 51.88,20.19 C52.16,19.53 52.59,19.02 53.15,18.67 ZM 29.29,28.29 C29.30,28.60 29.30,28.77 29.31,28.78 C29.31,28.78 29.33,28.79 29.35,28.79 L 29.29,28.79 ZM 26.24,25.88 C26.49,25.43 26.68,24.98 26.72,24.71 C26.68,24.98 26.49,25.43 26.24,25.88 Z" fill="none"/>
<path d="M 31.92,20.88 C31.93,18.67 31.93,16.61 31.93,15.07 C31.95,13.75 31.97,13.00 31.99,13.00 C32.10,13.00 33.99,11.74 34.71,11.19 C35.50,10.58 36.87,9.31 37.38,8.72 C37.85,8.17 38.29,7.55 39.22,6.17 C39.90,5.15 40.50,4.45 41.04,4.04 C41.61,3.60 42.01,3.49 43.26,3.44 C44.29,3.40 44.46,3.41 45.24,3.61 C46.41,3.91 47.93,4.67 48.88,5.42 C49.16,5.64 49.78,6.23 50.26,6.73 C51.47,7.98 52.35,9.24 53.42,11.25 C53.96,12.27 55.11,15.44 55.07,15.80 C55.04,15.99 54.98,16.04 54.61,16.13 C54.48,16.17 54.36,16.20 54.23,16.25 C53.32,16.58 52.33,17.32 51.77,18.12 L 51.75,18.15 C51.75,18.14 51.75,18.13 51.75,18.12 C51.75,18.05 51.71,18.00 51.67,18.00 C51.63,18.00 51.60,18.05 51.59,18.11 L 51.58,16.25 L 49.02,16.25 L 48.98,16.48 C48.91,16.81 48.90,28.37 48.97,28.62 L 49.02,28.84 L 50.28,28.81 L 51.54,28.79 L 51.59,24.83 C51.62,22.43 51.65,21.24 51.70,20.76 C51.72,20.64 51.74,20.55 51.77,20.48 C51.80,20.38 51.84,20.28 51.88,20.19 C51.88,20.19 51.88,20.19 51.88,20.19 C52.16,19.54 52.60,19.02 53.15,18.67 C53.45,18.48 53.79,18.34 54.15,18.25 C54.45,18.18 54.95,18.17 55.42,18.22 L 55.71,18.27 L 55.71,18.32 C55.68,18.27 55.63,18.25 55.57,18.25 C55.42,18.25 55.41,18.27 55.48,18.35 C55.54,18.41 55.59,18.56 55.59,18.70 C55.59,18.92 55.60,18.93 55.67,18.79 C55.68,18.75 55.70,18.72 55.71,18.68 L 55.70,20.28 C55.69,22.48 55.55,23.52 55.03,25.33 C54.72,26.41 53.95,28.15 53.46,28.86 C53.34,29.03 53.25,29.20 53.25,29.22 C53.25,29.25 53.15,29.41 53.02,29.58 C52.89,29.74 52.66,30.06 52.51,30.29 C51.74,31.40 49.79,33.23 48.61,33.94 C48.48,34.01 48.32,34.12 48.25,34.16 C46.94,35.03 45.05,35.79 43.25,36.17 C41.97,36.44 39.87,36.56 38.46,36.44 C37.22,36.34 35.17,35.92 34.04,35.54 C33.47,35.35 31.97,34.69 31.43,34.40 C30.90,34.12 29.95,33.49 29.71,33.27 C29.62,33.19 29.36,32.98 29.13,32.80 C28.00,31.91 26.69,30.34 25.95,29.01 C25.89,28.90 25.80,28.77 25.72,28.66 C25.73,28.66 25.74,28.67 25.75,28.67 C25.80,28.67 25.72,28.43 25.59,28.15 C25.45,27.86 25.32,27.55 25.30,27.47 C25.26,27.36 25.23,27.34 25.16,27.39 L 25.43,27.07 C25.47,27.02 25.52,26.97 25.56,26.92 C25.78,26.65 26.03,26.27 26.24,25.88 C26.24,25.88 26.24,25.88 26.24,25.88 C26.49,25.43 26.68,24.98 26.72,24.71 L 26.77,24.42 L 25.56,24.42 C25.23,24.42 24.94,24.41 24.73,24.40 L 24.58,24.25 C24.49,24.16 24.41,23.98 24.41,23.85 C24.40,23.65 24.39,23.66 24.34,23.92 C24.33,23.99 24.32,24.06 24.31,24.12 C24.31,24.00 24.32,23.82 24.33,23.65 L 24.37,23.05 C24.39,23.05 24.40,23.05 24.40,23.05 C24.40,23.04 24.40,23.04 24.41,23.04 L 25.69,23.02 L 26.76,23.00 L 27.00,23.00 L 27.00,22.25 C27.00,20.75 26.55,19.38 25.75,18.32 C25.46,17.88 25.46,17.80 25.64,17.56 C26.22,16.81 27.50,15.73 28.68,15.00 C28.62,15.05 28.56,15.09 28.54,15.11 C28.50,15.15 28.58,15.12 28.73,15.05 C28.95,14.94 29.04,14.93 29.13,15.00 C29.17,15.03 29.19,15.05 29.21,15.05 L 29.25,21.74 L 29.25,21.93 L 29.25,21.93 C29.25,24.87 29.27,27.29 29.29,28.29 L 29.29,28.29 L 29.29,28.79 L 29.35,28.79 C29.50,28.81 30.02,28.83 30.62,28.81 L 31.88,28.79 ZM 41.56,28.91 C44.14,28.56 45.98,26.98 46.69,24.52 C46.84,23.97 46.87,23.67 46.87,22.50 C46.88,20.89 46.78,20.45 46.20,19.26 C45.89,18.63 45.69,18.35 45.18,17.84 C44.44,17.10 43.86,16.74 42.88,16.40 C41.62,15.97 39.66,15.94 38.38,16.34 C37.32,16.66 36.69,17.05 35.88,17.87 C34.60,19.15 34.15,20.35 34.14,22.42 C34.13,23.90 34.27,24.58 34.80,25.65 C35.21,26.49 35.97,27.38 36.66,27.86 C36.87,28.00 37.06,28.14 37.08,28.17 C37.11,28.20 37.20,28.24 37.29,28.27 C37.38,28.30 37.72,28.42 38.03,28.54 C39.13,28.95 40.32,29.08 41.56,28.91 ZM 39.67,26.61 C39.15,26.52 38.27,26.00 37.84,25.54 C37.05,24.67 36.78,23.84 36.80,22.28 C36.83,20.56 37.58,19.25 38.89,18.65 C39.37,18.43 39.59,18.38 40.30,18.35 C41.01,18.32 41.25,18.34 41.74,18.49 C42.06,18.59 42.38,18.72 42.45,18.79 C42.52,18.86 42.60,18.92 42.64,18.92 C42.74,18.92 43.34,19.55 43.56,19.88 C44.20,20.83 44.43,22.51 44.10,23.81 C43.64,25.63 42.31,26.69 40.51,26.66 C40.16,26.65 39.78,26.63 39.67,26.61 ZM 25.40,28.19 C25.41,28.20 25.42,28.21 25.42,28.22 C25.47,28.31 25.52,28.40 25.56,28.46 C25.48,28.37 25.42,28.27 25.42,28.23 C25.42,28.22 25.41,28.21 25.40,28.19 ZM 51.59,18.23 C51.60,18.27 51.62,18.30 51.64,18.30 L 51.59,18.38 ZM 25.04,27.54 C25.04,27.58 25.06,27.63 25.12,27.71 C25.14,27.74 25.17,27.79 25.19,27.83 L 25.01,27.56 ZM 24.32,24.33 C24.32,24.33 24.32,24.32 24.31,24.30 C24.31,24.31 24.32,24.31 24.32,24.31 C24.32,24.33 24.33,24.34 24.34,24.35 C24.33,24.35 24.32,24.34 24.32,24.33 Z" fill="rgb(92,252,80)"/>
<path d="M 24.58,24.25 L 24.73,24.40 C24.53,24.39 24.40,24.37 24.34,24.35 C24.33,24.34 24.32,24.33 24.32,24.31 C24.32,24.31 24.31,24.31 24.31,24.30 C24.31,24.26 24.31,24.20 24.31,24.12 C24.32,24.06 24.33,23.99 24.34,23.92 C24.39,23.66 24.40,23.65 24.41,23.85 C24.41,23.98 24.49,24.16 24.58,24.25 ZM 29.21,14.68 L 29.21,15.05 C29.19,15.05 29.17,15.03 29.13,15.00 C29.04,14.93 28.95,14.94 28.73,15.05 C28.58,15.12 28.50,15.15 28.54,15.11 C28.56,15.09 28.62,15.05 28.68,15.00 C28.71,14.98 28.74,14.96 28.77,14.95 ZM 51.59,18.23 L 51.59,18.11 C51.60,18.05 51.63,18.00 51.67,18.00 C51.71,18.00 51.75,18.05 51.75,18.12 C51.75,18.13 51.75,18.14 51.75,18.15 L 51.64,18.30 C51.62,18.30 51.60,18.27 51.59,18.23 Z" fill="rgb(92,252,80)"/>
<path d="M 25.64,28.60 C25.62,28.57 25.52,28.40 25.42,28.22 C25.33,28.05 25.19,27.82 25.12,27.71 C25.01,27.54 25.01,27.51 25.12,27.42 C25.23,27.33 25.26,27.34 25.30,27.47 C25.32,27.55 25.45,27.86 25.59,28.15 C25.72,28.43 25.80,28.67 25.75,28.67 C25.71,28.67 25.66,28.64 25.64,28.60 ZM 55.59,18.70 C55.59,18.56 55.54,18.41 55.48,18.35 C55.41,18.27 55.42,18.25 55.57,18.25 C55.76,18.25 55.80,18.47 55.67,18.79 C55.60,18.93 55.59,18.92 55.59,18.70 Z" fill="rgb(92,252,80)"/>
</g>
</svg>