<svg width="141" height="24" viewBox="0 0 141 24" fill="none" xmlns="http://www.w3.org/2000/svg">
<path fill-rule="evenodd" clip-rule="evenodd" d="M43.6429 23.6831C36.6953 23.6831 33.8242 18.4602 33.8242 12.3914C33.8242 6.63989 36.5638 0.380859 43.4237 0.380859C46.4482 0.380859 49.1878 1.60729 50.7877 4.18703L48.3988 5.56148C47.4783 3.93328 45.725 2.93945 43.7963 2.93945C43.7306 2.93945 43.6648 2.93945 43.5991 2.93945C38.4706 2.93945 37.0021 8.20465 37.0021 12.2434C37.0021 16.5571 38.6897 21.1456 43.9059 21.1456C43.9278 21.1456 43.9278 21.1456 43.9497 21.1456C45.7907 21.1456 47.5221 20.2998 48.5961 18.8619L50.8754 20.3209C49.3193 22.7315 46.4921 23.6831 43.6429 23.6831Z" fill="black"/>
<path fill-rule="evenodd" clip-rule="evenodd" d="M56.2227 23.2387V0.90918H59.2033V23.2387H56.2227Z" fill="black"/>
<path fill-rule="evenodd" clip-rule="evenodd" d="M73.3616 23.8518C73.2958 23.8518 73.2301 23.8518 73.1863 23.8518C70.4248 23.8518 67.729 22.9003 65.625 21.1664L67.466 19.1787C69.0002 20.5955 71.0384 21.3778 73.1424 21.399C75.4656 21.399 78.0518 20.532 78.0518 17.8677C78.0518 14.9708 74.6985 14.125 71.5425 12.8351C68.6933 11.6721 65.9976 10.1919 65.9976 6.70295C65.9976 2.64303 69.6138 0.295898 73.5588 0.295898C73.6246 0.295898 73.6903 0.295898 73.7561 0.295898C76.0354 0.295898 78.2709 0.97255 80.1558 2.22013L78.512 4.37696C77.0874 3.31969 75.3341 2.74876 73.5369 2.70647C71.3233 2.70647 69.0878 3.86947 69.0878 6.28004C69.0878 8.81748 71.5863 9.81132 74.304 10.8051C77.5477 12.0527 81.0763 13.2792 81.0763 17.4448C81.0763 21.5893 77.3723 23.8518 73.3616 23.8518Z" fill="black"/>
<path fill-rule="evenodd" clip-rule="evenodd" d="M133.742 23.6831C126.794 23.6831 123.945 18.4602 123.945 12.3914C123.945 6.63989 126.663 0.380859 133.523 0.380859C136.569 0.380859 139.287 1.60729 140.887 4.18703L138.52 5.56148C137.577 3.93328 135.824 2.93945 133.917 2.93945C133.852 2.93945 133.764 2.93945 133.698 2.93945C128.57 2.93945 127.101 8.20465 127.101 12.2434C127.101 16.5571 128.789 21.1456 134.027 21.1456H134.049C135.89 21.1456 137.621 20.2998 138.695 18.8619L140.975 20.3209C139.44 22.7315 136.613 23.6831 133.742 23.6831Z" fill="black"/>
<path fill-rule="evenodd" clip-rule="evenodd" d="M99.4624 0.887695H85.5234V3.46743H91.0903V23.2384H94.0709V3.46743H99.4624V0.887695Z" fill="black"/>
<path fill-rule="evenodd" clip-rule="evenodd" d="M119.76 3.46743V0.887695H104.988V23.2172H119.76V20.6586H107.991V13.3H116.582V10.7414H107.991V3.46743H119.76Z" fill="black"/>
<path fill-rule="evenodd" clip-rule="evenodd" d="M18.4154 7.73921V16.2396H20.4318C22.8645 16.2396 24.837 14.3366 24.837 11.9894C24.837 9.64229 22.8645 7.73921 20.4318 7.73921H18.4154ZM7.96118 4.31366V7.65463H4.54218C2.04368 7.65463 0.0273438 9.6 0.0273438 11.9894C0.0273438 14.4 2.04368 16.3454 4.54218 16.3454H7.96118V19.6652C7.96118 22.0546 9.9556 24 12.4322 24C14.9088 24 16.9251 22.0546 16.9251 19.6652V4.31366C16.9251 1.94537 14.9088 0 12.4322 0C9.9556 0 7.96118 1.94537 7.96118 4.31366Z" fill="url(#paint0_linear_6070_16288)"/>
<defs>
<linearGradient id="paint0_linear_6070_16288" x1="3.74213" y1="3.60636" x2="20.5097" y2="20.9853" gradientUnits="userSpaceOnUse">
<stop stop-color="#7DD27D"/>
<stop offset="0.219608" stop-color="#5ECA8F"/>
<stop offset="0.509804" stop-color="#3BC1A3"/>
<stop offset="0.760784" stop-color="#26BBAF"/>
<stop offset="0.909804" stop-color="#1EB9B4"/>
<stop offset="1" stop-color="#1EB9B4"/>
</linearGradient>
</defs>
</svg>
