<svg width="85" height="40" viewBox="0 0 85 40" fill="none" xmlns="http://www.w3.org/2000/svg">
<path d="M32.6827 6.00977H29.1669C28.5188 6.00977 28.0938 6.50101 28.0938 7.11744V32.8761C28.0938 33.4926 28.5188 33.9866 29.1669 33.9866H32.6827C33.3308 33.9866 33.8292 33.4926 33.8292 32.8761V7.11744C33.8292 6.50101 33.3308 6.00977 32.6827 6.00977Z" fill="#239DFF"/>
<path d="M21.7067 26.3504C21.3875 25.6617 20.4727 25.472 19.9111 25.9893C18.4239 27.3597 16.4297 28.2015 14.2308 28.2015C8.4693 28.2015 4.07282 22.4523 6.64602 16.4672C7.40657 14.6982 8.84964 13.2826 10.6483 12.5355C14.1638 11.0755 17.5844 11.9072 19.8534 13.9573C20.4208 14.4699 21.3309 14.2881 21.6505 13.5983L23.1733 10.3121C23.4169 9.78617 23.2487 9.16939 22.7799 8.82097C19.2126 6.16894 14.3431 5.1278 9.26785 6.82898C5.19446 8.1942 2.01821 11.4254 0.724736 15.4631C-2.36931 25.1213 4.87686 33.9995 14.2308 33.9995C17.4863 33.9995 20.4784 32.9164 22.8731 31.1039C23.3255 30.7615 23.4673 30.1502 23.2305 29.639L21.7067 26.3504Z" fill="#239DFF"/>
<path d="M84.274 15.4635C82.9805 11.4258 79.8043 8.1946 75.7309 6.82937C72.8479 5.863 70.0315 5.78248 67.4822 6.37857C63.2302 7.31262 60.1506 9.2958 57.4439 15.0129L52.0125 26.6031L42.7935 6.66657C42.6093 6.26913 42.2066 6.0137 41.7627 6.01299L37.7352 6.00676C36.9087 6.00547 36.3583 6.8463 36.7013 7.58616L48.6579 33.3048C48.8421 33.7025 49.2454 33.9714 49.6895 33.9715L49.8851 33.9869H54.4067C54.4977 33.9869 54.5886 33.9684 54.6749 33.9395C54.986 33.8352 55.2482 33.6168 55.3844 33.3152C55.3844 33.3152 61.3706 19.9114 61.4402 19.7497C63.2617 15.5239 64.3671 13.7639 67.2583 12.555C69.4458 11.6404 72.0325 11.5291 74.5334 12.6435C76.2743 13.4192 77.6434 14.8366 78.3716 16.5747C78.8325 17.6625 79.0648 18.7809 79.1031 19.8828C79.1682 24.4663 75.412 28.2021 70.7678 28.2021C68.5689 28.2021 66.5747 27.3602 65.0875 25.99C64.5259 25.4725 63.6111 25.6622 63.2919 26.351L61.768 29.6396C61.5313 30.1508 61.673 30.7619 62.1256 31.1044C64.5202 32.9168 67.5123 34 70.7678 34C80.1219 33.9999 87.3679 25.1217 84.274 15.4635Z" fill="#239DFF"/>
</svg>
