<svg width="80" height="48" viewBox="0 0 80 48" fill="none" xmlns="http://www.w3.org/2000/svg">
<path d="M30.7624 11.0088H27.4534C26.8434 11.0088 26.4434 11.4649 26.4434 12.0373V35.9561C26.4434 36.5286 26.8434 36.9873 27.4534 36.9873H30.7624C31.3724 36.9873 31.8415 36.5286 31.8415 35.9561V12.0373C31.8415 11.4649 31.3724 11.0088 30.7624 11.0088Z" fill="#141A1F"/>
<path d="M20.4298 29.8968C20.1294 29.2573 19.2684 29.0811 18.7399 29.5615C17.3402 30.834 15.4632 31.6157 13.3937 31.6157C7.97111 31.6157 3.83324 26.2771 6.25508 20.7196C6.97089 19.0769 8.32907 17.7624 10.0219 17.0687C13.3306 15.7129 16.55 16.4853 18.6855 18.3889C19.2196 18.8649 20.0761 18.6961 20.3769 18.0556L21.8101 15.0041C22.0394 14.5157 21.8811 13.943 21.4399 13.6195C18.0824 11.1569 13.4994 10.1901 8.72268 11.7698C4.88891 13.0375 1.89949 16.0379 0.682105 19.7872C-2.22994 28.7555 4.58999 36.9995 13.3937 36.9995C16.4577 36.9995 19.2738 35.9938 21.5276 34.3108C21.9534 33.9928 22.0869 33.4252 21.864 32.9505L20.4298 29.8968Z" fill="#141A1F"/>
<path d="M79.3172 19.7876C78.0998 16.0383 75.1104 13.0379 71.2766 11.7702C68.5631 10.8729 65.9125 10.7981 63.5131 11.3516C59.5112 12.2189 56.6128 14.0605 54.0653 19.3692L48.9534 30.1315L40.2767 11.619C40.1034 11.25 39.7244 11.0128 39.3066 11.0121L35.516 11.0063C34.7381 11.0051 34.22 11.7859 34.5429 12.4729L45.7961 36.3546C45.9695 36.7238 46.3491 36.9735 46.7671 36.9736L46.9512 36.9879H51.2068C51.2924 36.9879 51.378 36.9707 51.4592 36.9439C51.752 36.8471 51.9987 36.6443 52.127 36.3642C52.127 36.3642 57.761 23.9178 57.8266 23.7677C59.5409 19.8437 60.5813 18.2094 63.3024 17.0868C65.3612 16.2376 67.7957 16.1343 70.1495 17.169C71.7881 17.8893 73.0766 19.2055 73.762 20.8194C74.1957 21.8295 74.4143 22.868 74.4505 23.8912C74.5117 28.1473 70.9764 31.6163 66.6054 31.6163C64.5359 31.6163 62.659 30.8346 61.2593 29.5622C60.7307 29.0817 59.8697 29.2579 59.5694 29.8974L58.135 32.9512C57.9123 33.4258 58.0456 33.9933 58.4716 34.3113C60.7253 35.9943 63.5415 37.0001 66.6054 37.0001C75.4093 37 82.2291 28.756 79.3172 19.7876Z" fill="#141A1F"/>
</svg>
