<svg width="186" height="28" viewBox="0 0 186 28" fill="none" xmlns="http://www.w3.org/2000/svg">
<path d="M0 24.4688H3.47718V27.9995H0V24.4688Z" fill="#E52421"/>
<path d="M24.3812 0V28H20.904V0H24.3812ZM17.4268 0V28H13.9496V0H17.4268ZM31.3764 11.3724V16.6276H27.8992V11.3724H31.3764ZM10.4315 0V28H6.95436V0H10.4315ZM3.47718 0V24.5103H0V0H3.47718Z" fill="#FFCC03"/>
<path d="M165.843 9.44274C166.743 9.44274 167.643 9.52485 168.502 9.68907C169.115 9.81224 169.729 10.0175 170.302 10.2639L169.688 12.3577C169.197 12.1114 168.706 11.9061 168.175 11.7419C167.438 11.4955 166.661 11.3724 165.925 11.4134C165.106 11.3724 164.329 11.5366 163.593 11.865C162.979 12.1935 162.652 12.8093 162.734 13.5073C162.734 13.8357 162.816 14.1641 163.02 14.4105C163.225 14.6568 163.47 14.9031 163.757 15.0674C164.084 15.2726 164.452 15.4369 164.82 15.56L166.088 15.9295L167.806 16.5043C168.338 16.7096 168.87 16.997 169.361 17.3254C170.384 18.0644 170.956 19.2551 170.874 20.4867C170.915 21.2257 170.752 21.9647 170.384 22.5806C170.056 23.1553 169.606 23.607 169.075 23.9765C168.502 24.346 167.888 24.6334 167.234 24.7976C166.497 24.8797 165.761 24.9207 165.025 24.8386C164.37 24.8797 163.756 24.8797 163.102 24.8386C162.611 24.7565 162.161 24.6744 161.67 24.5512C161.302 24.4691 160.934 24.346 160.566 24.1817C160.279 24.0586 159.993 23.8944 159.707 23.7301L160.525 21.6363C160.729 21.8005 160.893 21.9237 161.138 22.0468C161.466 22.2111 161.752 22.3753 162.12 22.4985C162.529 22.6627 162.979 22.7858 163.429 22.868C163.961 22.9501 164.493 23.0322 165.025 23.0322C165.884 23.0732 166.743 22.868 167.479 22.4163C168.011 22.0058 168.338 21.3489 168.297 20.651C168.338 20.0762 168.052 19.5014 167.602 19.1319C166.866 18.6392 166.088 18.2697 165.229 18.0644L163.388 17.4486C162.816 17.2433 162.325 16.997 161.834 16.6275C161.384 16.299 161.016 15.8885 160.729 15.3958C160.443 14.821 160.279 14.1641 160.32 13.5483C160.238 12.3166 160.811 11.1671 161.793 10.4281C163.02 9.73013 164.411 9.36063 165.843 9.44274ZM147.025 9.64802V19.6656C147.025 20.1583 147.066 20.6509 147.23 21.1436C147.352 21.5131 147.557 21.8416 147.843 22.0879C148.089 22.3342 148.416 22.4985 148.743 22.5806C149.111 22.6627 149.48 22.7448 149.848 22.7448C150.83 22.7858 151.77 22.4985 152.548 21.9237C153.284 21.3489 153.898 20.651 154.307 19.8298V9.64802H156.843V24.4281H154.593L154.348 21.7595C153.939 22.6627 153.243 23.4017 152.384 23.9765C151.402 24.5923 150.257 24.8797 149.071 24.8386C147.802 24.8797 146.616 24.4281 145.675 23.5659C144.734 22.4985 144.284 21.1026 144.407 19.6656V9.64802H147.025ZM58.4594 4.06444C59.3593 4.31077 60.2184 4.63922 61.0366 5.04978L60.2593 7.431C59.523 6.93834 58.7457 6.56884 57.9276 6.24039C56.9458 5.91195 55.9231 5.74772 54.8595 5.78878C52.9368 5.78878 51.0959 6.56883 49.8278 8.04684C49.1323 8.8269 48.6414 9.73012 48.2733 10.7155C47.8642 11.9061 47.6596 13.1378 47.7006 14.3694C47.7006 15.56 47.8642 16.7917 48.2324 17.9413C48.5596 18.9266 49.0505 19.7888 49.7051 20.5688C50.3187 21.2668 51.0959 21.8416 51.955 22.2111C52.8959 22.5806 53.8777 22.7858 54.9004 22.7858C55.8412 22.7858 56.7412 22.6627 57.6003 22.3753C58.4185 22.0879 59.2366 21.7184 60.0139 21.2668L60.7502 23.0732C60.0139 23.607 59.2366 24.0175 58.3366 24.3049C57.1912 24.7155 55.964 24.8797 54.7367 24.8797C53.3459 24.8797 51.9959 24.6744 50.7278 24.1817C49.5414 23.6891 48.4369 22.9911 47.5778 22.0879C46.637 21.1436 45.9006 20.0351 45.4506 18.8034C44.4279 15.9295 44.4279 12.7682 45.4506 9.89435C46.3915 7.38995 48.4369 5.41928 50.9732 4.47499C52.2823 3.98232 53.6731 3.73599 55.1049 3.77705C56.2503 3.65388 57.3548 3.77705 58.4594 4.06444ZM84.4359 9.36063C85.2541 9.36063 86.0722 9.44274 86.8495 9.64802C87.504 9.77118 88.0767 10.0586 88.6494 10.387L87.8313 12.604C87.2995 12.1935 86.7268 11.865 86.1541 11.6187C85.5404 11.3724 84.845 11.2492 84.1905 11.2902C83.536 11.2902 82.9223 11.4134 82.3087 11.6597C81.6951 11.9061 81.1633 12.2756 80.7542 12.7682C80.3042 13.302 79.9361 13.9178 79.6906 14.5747C79.4042 15.3958 79.2815 16.258 79.2815 17.1202C79.1588 18.6392 79.6906 20.1583 80.6724 21.3489C81.6951 22.3342 83.086 22.8269 84.5177 22.7448C85.745 22.7037 86.9722 22.3342 87.9949 21.6363L88.5676 23.4838C87.9949 23.8944 87.3404 24.2228 86.6859 24.4281C85.8677 24.7155 85.0495 24.8386 84.1905 24.8797C83.2087 24.8797 82.186 24.7155 81.2451 24.346C80.3451 24.0175 79.527 23.4838 78.8724 22.8269C78.177 22.129 77.6452 21.3078 77.277 20.4046C76.4998 18.3108 76.4998 16.0117 77.277 13.9178C77.6452 13.0146 78.177 12.1935 78.9134 11.4955C79.6088 10.7976 80.4678 10.2639 81.4087 9.93541C82.3905 9.52485 83.4132 9.36063 84.4359 9.36063ZM133.894 9.36063C134.835 9.36063 135.816 9.52485 136.675 9.89435C137.534 10.2228 138.353 10.7565 139.007 11.4134C139.703 12.1114 140.234 12.9325 140.603 13.8357C141.38 15.9706 141.38 18.3108 140.603 20.4457C140.275 21.3489 139.744 22.17 139.089 22.868C138.434 23.5248 137.616 24.0175 136.757 24.387C135.816 24.7565 134.835 24.9207 133.853 24.9207C132.912 24.9207 131.971 24.7565 131.071 24.387C130.212 24.0586 129.435 23.5248 128.78 22.868C128.085 22.17 127.553 21.3489 127.226 20.4457C126.448 18.3108 126.448 15.9706 127.226 13.8357C127.594 12.9325 128.126 12.1114 128.78 11.4134C129.435 10.7565 130.212 10.2638 131.071 9.89435C132.012 9.52485 132.953 9.36063 133.894 9.36063ZM180.038 9.27851C180.979 9.27851 181.92 9.44274 182.779 9.81224C183.556 10.1407 184.251 10.6744 184.783 11.3724C185.356 12.1114 185.724 12.9735 185.847 13.9178C186.051 15.0674 186.051 16.258 185.847 17.4075H175.661C175.783 20.9383 177.461 22.7037 180.733 22.7037C181.511 22.7037 182.288 22.5806 183.024 22.3342C183.679 22.0879 184.333 21.8005 184.906 21.3899L185.642 23.2375C185.029 23.7301 184.292 24.1407 183.515 24.346C182.574 24.6744 181.592 24.7976 180.57 24.7976C178.524 24.9207 176.52 24.1407 175.047 22.7037C173.697 21.1026 173.002 19.0498 173.124 16.997C173.124 15.8885 173.288 14.821 173.656 13.7536C173.983 12.8504 174.474 12.0292 175.129 11.3313C175.743 10.6744 176.438 10.1407 177.256 9.81224C178.156 9.44274 179.097 9.27851 180.038 9.27851ZM66.641 3.0791V24.5102H64.1047V3.0791H66.641ZM94.2538 3.0791V24.5102H91.6766V3.0791H94.2538ZM103.458 9.64802L97.3219 16.299L103.867 24.5512H100.881L94.5811 16.6275L100.799 9.68907H103.458V9.64802ZM109.594 3.98233V13.343H120.271V3.98233H123.012V24.5512H120.271V15.4369H109.594V24.5102H106.853V3.98233H109.594ZM73.3908 9.64802V24.4281H70.8545V9.64802H73.3908ZM133.894 11.2902C133.321 11.2902 132.748 11.4134 132.176 11.6187C131.603 11.824 131.112 12.1935 130.703 12.6451C130.253 13.1788 129.885 13.7946 129.639 14.4515C129.353 15.3137 129.23 16.2169 129.271 17.1202C129.23 18.0234 129.394 18.9266 129.639 19.7888C129.844 20.4457 130.212 21.0615 130.703 21.5952C131.112 22.0468 131.603 22.3753 132.176 22.6216C132.707 22.8269 133.321 22.9501 133.894 22.9501C134.507 22.9501 135.08 22.8269 135.653 22.6216C136.225 22.4163 136.757 22.0468 137.166 21.5952C137.657 21.0615 138.025 20.4457 138.23 19.7888C138.516 18.9266 138.639 18.0234 138.639 17.1202C138.68 16.2169 138.516 15.3137 138.23 14.4515C137.984 13.7946 137.616 13.1788 137.166 12.6451C136.757 12.1935 136.225 11.824 135.653 11.6187C135.08 11.3724 134.507 11.2902 133.894 11.2902ZM180.12 11.126C179.097 11.126 178.074 11.5366 177.379 12.2756C176.52 13.2199 176.029 14.4105 175.906 15.6832H183.556C183.76 14.4926 183.474 13.2199 182.779 12.2345C182.083 11.4955 181.101 11.085 180.12 11.126ZM73.268 4.68027C73.5544 5.00872 73.718 5.41928 73.718 5.82983C73.718 6.24039 73.5544 6.65095 73.268 6.93834C72.9408 7.22573 72.5317 7.38995 72.1226 7.38995C71.6726 7.43101 71.2636 7.26679 70.9363 6.9794C70.609 6.692 70.4454 6.28145 70.4863 5.82983C70.4863 5.41928 70.609 4.96766 70.8954 4.68027C71.5908 4.06444 72.6135 4.06444 73.268 4.68027Z" fill="#221F20"/>
</svg>
