<?xml version="1.0" encoding="UTF-8" standalone="no"?>
<svg
   version="1.1"
   id="Layer_1"
   x="0px"
   y="0px"
   viewBox="0 0 1000 100"
   enable-background="new 0 0 800 200"
   xml:space="preserve"
   xmlns="http://www.w3.org/2000/svg"
   xmlns:svg="http://www.w3.org/2000/svg"><defs
   id="defs60" />

<path
   fill="#c91c1a"
   opacity="1"
   stroke="none"
   d="m 372.76242,85.90915 c -0.8479,0.881286 -1.6958,1.762573 -3.00238,3.001205 -2.75055,2.188156 -5.04245,4.018982 -7.33432,5.849808 0,0 -0.34076,-0.04129 -0.74749,0.06529 -0.85886,0.450546 -1.31092,0.79451 -1.76301,1.138474 -0.18258,0.01402 -0.3652,0.02803 -1.14306,0.178909 -2.70816,0.783752 -4.82105,1.430633 -6.93393,2.077515 -0.74631,0.01683 -1.49262,0.03366 -3.02057,0.07718 -3.18671,0.07577 -5.59174,0.124847 -7.9968,0.173919 -0.43804,-0.106048 -0.87612,-0.212097 -1.99066,-0.44397 -3.10919,-0.770462 -5.54193,-1.4151 -7.97464,-2.059753 0,0 0.006,-0.02469 -0.2037,-0.293518 -4.67471,-3.898376 -9.14014,-7.527893 -13.60559,-11.15741 0,8e-6 -0.043,-0.374008 -0.21942,-0.780449 -0.69465,-1.048553 -1.21283,-1.690658 -1.73105,-2.332763 0,0 0.0431,-0.28891 -0.0736,-0.723328 -0.74655,-1.648979 -1.37646,-2.863541 -2.00641,-4.078102 0,0 0.0673,-0.380951 -0.0294,-0.945038 -0.46887,-6.61042 -0.841,-12.656753 -1.21313,-18.703079 -3e-5,0 0.19928,-0.414085 0.43777,-0.866425 0.35675,-1.345726 0.47501,-2.239105 0.5933,-3.132484 0,0 0.26925,-0.265129 0.50616,-0.687569 0.67642,-1.721634 1.11594,-3.020828 1.55548,-4.320022 0,0 -0.002,-0.0016 0.21838,-0.06052 0.22031,-0.05889 0.64115,-0.232109 0.90113,-0.333229 0.39807,-0.605468 0.53616,-1.10981 0.67422,-1.614158 0,0 0.0152,-0.146469 0.4285,-0.09003 1.64456,0.614975 3.44339,1.988487 4.01062,1.593475 2.71597,-1.891495 5.09842,-4.261925 7.81046,-6.71505 0.84106,-0.402885 1.47106,-0.552879 2.15847,-0.570068 0.0574,0.132797 0.42945,0.129021 0.42945,0.129021 0,0 0.10391,-0.391556 0.39294,-0.510559 0.48819,-0.180291 0.68735,-0.241585 1.19812,-0.204667 1.38709,-0.497314 2.46253,-1.092849 3.61096,-1.740356 0.073,-0.05197 0.24924,-0.08466 0.60681,-0.03266 2.01447,-0.595086 3.67133,-1.242165 5.4043,-1.942185 0.0761,-0.05295 0.25736,-0.09213 0.64334,-0.03762 4.8183,1.24575 9.25061,2.436988 13.96485,3.714538 0.45855,0.172524 0.63519,0.258721 0.87075,0.553253 0.0589,0.208329 0.4216,0.442505 0.4216,0.442505 0,0 0.4202,-0.100647 0.70536,-0.02931 0.4595,0.160919 0.63382,0.250504 0.8573,0.556213 0.0491,0.216126 0.39908,0.484284 0.39908,0.484284 0,0 0.43713,-0.05852 0.72555,0.02095 0.47049,0.160836 0.65262,0.242188 0.92029,0.637558 2.55496,2.385567 5.02435,4.4571 7.29617,6.3629 1.37305,-1.539177 2.46314,-2.761131 3.80582,-3.773346 1.00452,1.208107 1.75641,2.206459 2.5083,3.204804 0,-8e-6 0.039,-0.04109 0.0362,0.354538 4.72077,11.120933 4.1944,21.858444 0.0721,32.604316 0,0 -0.27848,0.213646 -0.52298,0.536965 -0.36621,0.692352 -0.48789,1.061386 -0.60956,1.43042 0,0 0.0623,0.01541 -0.18131,0.07619 -0.518,0.298722 -0.60113,0.591057 -0.49301,0.937783 0,0 -0.34396,0.251823 -0.63687,0.589614 -0.43893,0.687211 -0.58499,1.036629 -0.73102,1.386033 m -48.92535,-3.479424 c 8.03906,8.057579 13.34268,10.558495 17.79086,8.058067 -10.81805,-4.813034 -18.96945,-11.759834 -20.95575,-24.05896 -0.16055,-0.994186 -1.62677,-1.777511 -2.48626,-2.658821 -1.45136,7.351799 0.69299,13.126625 5.65115,18.659714 m 37.58252,-30.510483 c 1.73755,2.331406 3.47507,4.662819 5.21258,6.994225 0.49195,-0.364937 0.98386,-0.729881 1.4758,-1.094818 -1.40921,-5.600289 -4.86236,-9.90242 -9.96337,-12.862503 -3.06839,-1.780579 -6.39237,-3.608094 -10.58091,-1.748627 4.8367,2.949875 9.10623,5.553848 13.8559,8.711723 z"
   id="path2" />
<path
   fill="#464646"
   opacity="1"
   stroke="none"
   d="m 473.66132,48.594269 c -4.95807,-7.485481 -10.63257,-9.858215 -17.94806,-7.825607 -7.06308,1.962486 -11.51666,7.706673 -11.70895,16.129967 -0.26603,11.65567 -0.0485,23.321624 -0.1402,34.982383 -0.0381,4.8443 -3.72745,7.650757 -7.33679,5.340592 -1.57273,-1.006592 -2.8483,-3.68982 -2.90458,-5.650482 -0.29617,-10.32061 -0.15472,-20.653656 -0.17831,-30.982361 -0.004,-1.664314 0.026,-3.337837 -0.12936,-4.991173 -0.91571,-9.745789 -6.88654,-15.664467 -15.54956,-15.479584 -9.03913,0.192917 -15.67246,6.926529 -15.83161,16.548027 -0.19012,11.491837 0.0935,22.992615 -0.18442,34.480896 -0.0514,2.127289 -1.23562,5.041931 -2.87262,6.144257 -3.27652,2.206253 -7.42306,-0.487564 -7.59127,-4.739136 -0.26993,-6.820877 -0.22211,-13.656212 -0.2229,-20.485451 -10e-4,-11.326652 0.0796,-22.653282 0.0948,-33.979972 0.005,-3.416161 0.57938,-6.520646 4.667,-7.057602 3.91714,-0.514557 5.74362,1.841056 6.35049,5.424667 16.55502,-9.352539 25.29605,-8.538384 37.76169,3.711357 4.6644,-5.1278 10.23398,-8.711265 17.31509,-9.651321 14.95691,-1.985619 26.92713,6.364189 28.16669,21.376014 1.12067,13.571221 0.50061,27.290841 0.51807,40.945191 0.004,3.427673 -2.1626,5.174957 -5.51239,5.023422 -3.43183,-0.155258 -4.95777,-2.229278 -4.94849,-5.623932 0.0295,-10.828262 0.14539,-21.659416 -0.0714,-32.483459 -0.0721,-3.602783 -1.04779,-7.187477 -1.74292,-11.156693 z"
   id="path3" />
<path
   fill="#474747"
   opacity="1"
   stroke="none"
   d="m 30.785915,3.8439495 c 15.783775,-4.75030904 30.268753,-3.36345304 43.560203,6.3519855 3.151017,2.303245 4.709412,4.795501 2.051911,8.293152 -2.581543,3.397697 -5.402802,2.405139 -8.157944,0.09708 C 49.429576,2.8280725 15.271244,12.493615 10.002208,43.499215 5.7585177,68.47123 24.437458,90.557633 48.436145,88.717316 c 6.775086,-0.519562 13.395737,-4.322678 19.853516,-7.153015 3.043289,-1.333832 5.850754,-3.422226 8.385605,-0.09705 2.739639,3.593789 0.752289,6.567437 -2.367295,8.897637 C 51.421398,107.46016 10.88776,100.47473 0.63709167,63.340119 -6.3175093,38.145981 6.3773907,13.563343 30.785915,3.8439495 Z"
   id="path4" />
<path
   fill="#474747"
   opacity="1"
   stroke="none"
   d="m 533.48127,30.441651 c 18.1098,2.260971 29.6278,13.788124 30.94982,31.545379 0.71589,9.615952 0.29139,19.317826 0.35047,28.981125 0.0227,3.712555 -1.09168,6.834458 -5.42194,6.894913 -4.27618,0.05971 -5.67621,-2.772766 -5.54681,-6.664658 0.0308,-0.927749 -0.0889,-1.860519 -0.15064,-2.996093 -17.85693,12.401303 -31.58838,13.452943 -44.35486,3.59964 -11.19689,-8.641861 -15.65948,-25.129136 -10.65606,-39.369118 5.026,-14.304154 17.98999,-22.613884 34.83002,-21.991188 m -21.69672,19.044861 c -0.77899,1.27491 -1.65662,2.500579 -2.32129,3.832534 -5.00665,10.033471 -2.42926,22.934601 5.96497,30.066216 8.12335,6.901512 20.14581,7.629326 28.70251,1.394028 8.54218,-6.224717 11.29865,-15.023644 9.59784,-25.118821 -1.55902,-9.253746 -6.93524,-15.878639 -16.00775,-18.640502 -10.07764,-3.067879 -18.66663,-0.126244 -25.93628,8.466545 z"
   id="path5" />
<path
   fill="#474747"
   opacity="1"
   stroke="none"
   d="m 643.5697,30.652314 c 20.48475,-2.094056 35.39032,11.279792 35.37006,31.102272 -0.005,4.492904 -1.78503,6.281273 -6.25598,6.259239 -15.15808,-0.07474 -30.31714,0.0495 -45.47583,0.103996 -0.1604,5.8e-4 -0.3205,0.08563 -0.48077,0.131264 -0.67762,9.549469 8.5968,19.281525 19.71075,20.614532 6.33807,0.760239 12.2561,-0.504135 17.66937,-3.948654 0.70136,-0.446281 1.45594,-1.38697 2.06635,-1.296043 2.38501,0.35527 4.72186,1.033035 7.07666,1.590904 -0.67316,2.131912 -0.67963,5.064209 -2.12543,6.26857 -11.0863,9.234836 -29.99078,9.502186 -41.98608,0.510147 C 616.75568,82.705849 613.96021,69.78991 616.87909,55.371521 619.5932,41.964333 629.43177,33.033585 643.5697,30.652314 m -10.0628,14.356155 c -4.052,3.701141 -6.44116,8.209068 -7.2207,14.004288 14.43237,0 28.32104,0 42.46429,0 -0.0901,-1.227204 -0.0267,-2.209862 -0.24969,-3.122498 -3.78907,-15.506698 -20.09943,-20.885422 -34.9939,-10.88179 z"
   id="path6" />
<path
   fill="#464646"
   opacity="1"
   stroke="none"
   d="m 163.66631,95.841629 c -16.6469,6.007831 -32.92911,1.603318 -41.98485,-11.13533 -8.70944,-12.25151 -8.22127,-31.036445 1.5094,-42.436943 9.81863,-11.503555 22.54106,-14.192436 36.70082,-10.469429 13.05501,3.432533 21.91556,14.400582 23.33815,28.751412 1.41858,14.310394 -3.55041,25.812278 -16.11423,33.524116 -0.9913,0.608475 -2.05578,1.097702 -3.44929,1.766174 m 5.87193,-17.915679 c 6.86627,-13.354882 3.2831,-28.604798 -8.22401,-35.00129 -11.30606,-6.284744 -25.20941,-2.708816 -31.83342,8.187508 -6.95943,11.448066 -3.75281,26.843033 7.09723,34.073692 10.65239,7.09893 24.40237,4.294685 32.9602,-7.25991 z"
   id="path7" />
<path
   fill="#494949"
   opacity="1"
   stroke="none"
   d="m 256.55872,42.073815 c 4.9e-4,16.646759 0.10974,32.812935 -0.13013,48.973945 -0.0313,2.112473 -1.4021,4.730195 -3.0134,6.104615 -1.02883,0.877594 -4.12152,0.54277 -5.41888,-0.420349 -1.47729,-1.096695 -1.98651,-3.497422 -2.54929,-4.607209 -5.71008,2.04361 -11.54318,5.320603 -17.69586,6.111679 -18.93878,2.435044 -32.55755,-9.230575 -33.46472,-28.279647 -0.52258,-10.974053 -0.13238,-21.992241 -0.12344,-32.990548 0.003,-3.477302 1.51132,-5.962921 5.22592,-5.973953 3.99594,-0.01188 5.40011,2.60775 5.38742,6.312485 -0.0348,10.165115 0.0122,20.330528 -0.0265,30.495613 -0.0769,20.206406 20.50607,24.93898 32.50018,17.872681 5.57706,-3.285721 8.67292,-8.02221 8.61075,-14.720131 -0.10049,-10.830994 0.0125,-21.663811 -0.0463,-32.495423 -0.0206,-3.783767 0.32312,-7.222458 5.16851,-7.488235 3.91831,-0.214913 5.51166,2.049766 5.57798,7.622864 0.0119,0.999656 -7.1e-4,1.999611 -0.002,3.481613 z"
   id="path8" />
<path
   fill="#4a4a4a"
   opacity="1"
   stroke="none"
   d="m 579.97022,67.927781 c 0,-8.606522 0,-16.716355 0,-24.561295 -4.35144,-2.046272 -11.9253,2.070137 -11.6557,-5.700851 0.23254,-6.704155 6.99475,-3.458008 11.65808,-4.989541 0,-4.870697 0.0565,-10.107814 -0.019,-15.343025 -0.0539,-3.735363 0.12664,-7.4122195 5.05761,-7.4610585 5.10724,-0.050583 5.599,3.7337525 5.59729,7.6637675 -0.002,4.973073 -5.5e-4,9.946141 -5.5e-4,15.693959 3.86463,0 7.44873,-0.02784 11.03211,0.0082 3.27984,0.03298 6.18994,0.829376 6.1579,4.847366 -0.0301,3.779846 -2.91315,4.473946 -5.92408,4.563561 -3.48114,0.10363 -6.96777,0.02412 -11.26477,0.02412 0,4.593971 0.002,9.014252 -6.1e-4,13.434532 -0.004,5.991066 -0.0872,11.983216 -0.001,17.972954 0.12494,8.706238 4.22058,12.929016 12.79321,13.074554 3.97931,0.06755 7.21271,1.05832 7.08234,5.672257 -0.12427,4.399628 -3.57599,5.0896 -7.1369,5.170257 -13.25385,0.300217 -23.13599,-9.26007 -23.35138,-22.583801 -0.0377,-2.329277 -0.0176,-4.659477 -0.0242,-7.485946 z"
   id="path9" />
<path
   fill="#464646"
   opacity="1"
   stroke="none"
   d="m 286.06421,19.094254 c 2.8e-4,4.778595 2.8e-4,9.080231 2.8e-4,14.148483 3.2904,0 6.20935,-0.05852 9.125,0.01487 3.61016,0.09088 8.1445,-0.562851 8.08596,4.855163 -0.055,5.092705 -4.40072,4.463265 -7.85086,4.536446 -2.9411,0.0624 -5.88455,0.0129 -9.1112,0.0129 0,11.845154 -0.38553,23.132706 0.14956,34.376442 0.30405,6.388337 5.08082,9.952332 11.46033,10.183762 0.83136,0.03015 1.66843,-0.03508 2.49582,0.03124 3.15076,0.252594 5.44147,1.434829 5.57587,5.069442 0.14523,3.926774 -2.29737,5.22287 -5.60596,5.592606 -12.49738,1.39653 -23.64221,-7.480774 -24.51407,-20.093399 -0.59585,-8.619637 -0.32446,-17.299721 -0.4223,-25.952988 -0.0318,-2.809135 -0.005,-5.618934 -0.005,-9.241745 -2.58123,0 -5.03143,0.552216 -7.02767,-0.162849 -1.81977,-0.651848 -3.9824,-2.425797 -4.5048,-4.155037 -0.88272,-2.921921 1.41105,-4.563576 4.20493,-4.93573 2.25708,-0.300652 4.56018,-0.25592 7.33011,-0.387558 0,-5.45359 0.009,-10.570778 -0.003,-15.687923 -0.009,-3.70916 0.28006,-7.3879435 5.18991,-7.4276545 4.79147,-0.038753 5.50217,3.4115595 5.42489,7.2482675 -0.01,0.499222 8e-4,0.998867 0.002,1.975266 z"
   id="path10" />
<path
   fill="#434343"
   opacity="1"
   stroke="none"
   d="m 112.6334,92.071824 c -0.23655,4.409271 -2.92931,5.642379 -6.40844,5.859176 C 96.177661,98.557084 88.17052,90.342713 87.862064,78.562684 87.56171,67.092156 87.730686,55.60904 87.715259,44.131424 c -0.01585,-11.810661 -0.05943,-23.621719 0.02029,-35.4318575 0.03114,-4.616218 2.567322,-6.897758 6.417572,-6.042591 3.926773,0.87217 3.881455,3.972225 3.879639,7.062615 -0.01224,20.9598155 -0.01611,41.9196465 0.008,62.8794315 0.0027,2.32103 -0.0536,4.687691 0.357696,6.953263 0.881226,4.854065 3.129604,8.100364 8.887364,8.205467 1.79134,0.0327 3.53728,2.552017 5.34757,4.314072 z"
   id="path11" />
<path
   fill="#adb61f"
   opacity="1"
   stroke="none"
   d="m 360.12442,40.840012 c -0.17431,-0.08958 -0.34863,-0.179169 -0.92688,-0.474075 -0.59375,-0.372635 -0.81482,-0.466706 -1.06711,-0.487534 -0.17666,-0.0862 -0.3533,-0.172401 -0.94744,-0.634231 -4.79554,-2.393578 -8.90982,-5.583992 -14.21524,-3.479737 0,0 -0.18125,0.03918 -0.60361,0.06947 -2.08676,0.657815 -3.75119,1.285325 -5.41562,1.912842 0,0 -0.17621,0.03269 -0.57901,0.06807 -1.46616,0.5765 -2.52948,1.117614 -3.5928,1.658729 -0.19916,0.0613 -0.39832,0.122589 -1.04007,0.301705 -0.4426,0.117828 -0.7262,0.249916 -0.7262,0.249916 -0.63004,0.149986 -1.26004,0.29998 -2.45239,0.717582 -2.65216,0.435624 -4.74201,0.603631 -6.86273,0.428605 2.70608,-2.94616 5.44305,-5.549286 8.52398,-8.176194 1.53647,-0.581436 2.72901,-1.139091 3.92154,-1.696746 -0.0698,-0.298874 -0.13952,-0.597741 -0.20929,-0.896615 -1.3833,-0.06299 -2.7666,-0.125976 -4.56869,-0.253685 -2.1138,-0.03927 -3.80884,-0.01382 -5.74994,-0.174911 -0.36243,-0.753609 -0.4787,-1.320671 -0.6008,-1.941971 -0.006,-0.05424 -0.11444,-0.0648 -0.11444,-0.0648 0.54617,-0.143181 1.09237,-0.286362 2.19598,-0.607544 1.36279,-0.535073 2.16818,-0.892143 2.97354,-1.249214 1.32913,-0.128174 2.6583,-0.256348 4.75168,-0.36644 1.53485,-0.0562 2.30542,-0.130486 3.07602,-0.204788 1.05588,0.13832 2.11176,0.276634 3.94281,0.457717 0.60394,-2.161087 0.43268,-4.364955 0.26138,-6.568821 0,0 0.10184,-0.284877 0.0165,-0.732971 -0.44537,-1.221733 -0.80539,-1.995372 -1.1654,-2.769016 0.45907,-0.56871 0.91812,-1.137421 1.96673,-1.699818 1.98719,1.621331 3.38477,3.236348 4.78238,4.851368 0,0 -0.0302,0.0062 -0.0431,0.399254 1.57456,2.21864 -0.77978,6.087044 3.23273,6.655945 0.44647,0.005 0.89291,0.01009 2.00876,-0.02702 1.11273,-0.163208 1.55609,-0.284264 1.99942,-0.40532 2.3569,0.05676 4.71383,0.113503 7.81277,0.373246 2.68134,1.068252 4.62064,1.933517 6.55994,2.79879 -0.10275,0.274215 -0.20551,0.548439 -0.30826,0.822654 -3.59091,0.22239 -7.18182,0.444779 -10.77273,0.667168 -0.0471,0.410759 -0.0942,0.821518 -0.14133,1.232277 2.20962,0.877541 4.41928,1.755089 6.62894,2.632629 0.45062,0.283646 0.90121,0.567292 1.72857,1.151902 0.61881,0.549308 0.91138,0.698906 1.25446,0.74974 0,0 0.15079,0.413628 0.0596,0.732102 0.10403,0.459984 0.29922,0.601494 0.49441,0.743011 0,0 -0.21438,0.225632 -0.18014,0.504852 0.65951,1.923798 1.28479,3.568367 2.14316,5.82605 -2.57105,-0.871795 -4.30735,-1.460541 -6.04361,-2.049286 -0.1821,-0.08134 -0.36423,-0.162696 -0.94654,-0.471466 -0.58306,-0.414894 -0.80365,-0.530235 -1.06198,-0.573425 z"
   id="path12" />
<path
   fill="#faeee7"
   opacity="1"
   stroke="none"
   d="m 329.87534,33.018952 c -2.73697,2.603119 -5.47394,5.206245 -8.53037,8.199066 -1.35571,0.849976 -2.39196,1.310234 -3.42822,1.770493 0.65521,-1.349076 0.96936,-3.129776 2.02899,-3.967057 3.29706,-2.605217 3.69254,-4.8992 0.34217,-7.733551 1.38974,-0.605606 2.48043,-0.866882 3.5711,-1.128158 1.69501,-0.02545 3.39005,-0.0509 5.52728,0.338104 0.45786,1.116669 0.47345,1.818893 0.48905,2.521103 z"
   id="path13" />
<path
   fill="#faeee7"
   opacity="1"
   stroke="none"
   d="m 376.31165,80.907654 c 3.7478,-10.701385 4.27417,-21.438896 -0.47202,-32.547958 0.65979,-0.0046 1.70618,0.206299 1.97068,0.778587 4.75851,10.295822 3.44912,20.65921 0.1221,31.001221 -0.10926,0.339714 -0.81733,0.486793 -1.62076,0.76815 z"
   id="path14" />
<path
   fill="#ebefbb"
   opacity="1"
   stroke="none"
   d="m 362.63507,33.882721 c -2.16827,-0.533729 -4.37793,-1.411277 -6.58755,-2.288818 0.0471,-0.410759 0.0942,-0.821518 0.14133,-1.232277 3.59091,-0.222389 7.18182,-0.444778 10.77273,-0.667168 0.10275,-0.274215 0.20551,-0.548439 0.30826,-0.822654 -1.9393,-0.865273 -3.8786,-1.730538 -6.11752,-2.791794 4.23581,-2.088852 6.68539,1.151939 10.30279,3.325806 -3.55588,1.658523 -6.20865,2.895813 -8.82004,4.476905 z"
   id="path15" />
<path
   fill="#e85617"
   opacity="1"
   stroke="none"
   d="m 362.21851,42.198937 c 1.65069,0.274711 3.38699,0.863457 5.95804,1.735252 -0.85837,-2.257683 -1.48365,-3.902252 -2.01963,-5.920685 1.69718,0.662003 3.30509,1.697876 5.23609,3.221787 0.77371,1.439857 1.2243,2.391655 1.67489,3.343445 -1.09008,1.221962 -2.18017,2.443916 -3.55322,3.983093 -2.27182,-1.9058 -4.74121,-3.977333 -7.29617,-6.362892 z"
   id="path16" />
<path
   fill="#faeee7"
   opacity="1"
   stroke="none"
   d="m 317.00925,84.924393 c 4.50247,3.221924 8.9679,6.851441 13.63248,10.758362 -8.2425,0.192856 -11.4708,-2.281143 -13.63248,-10.758362 z"
   id="path17" />
<path
   fill="#e85617"
   opacity="1"
   stroke="none"
   d="m 317.90528,42.974625 c 1.04773,-0.446373 2.08398,-0.906631 3.47058,-1.413559 2.44018,-0.214683 4.53003,-0.38269 6.97119,-0.565414 -2.14975,2.185508 -4.5322,4.555938 -7.24817,6.447433 -0.56723,0.395012 -2.36606,-0.9785 -3.94324,-1.623154 -0.3648,-0.263145 -0.38373,-0.440185 -0.14041,-0.996734 0.47464,-0.866013 0.68701,-1.352509 0.89942,-1.839012 0,0 -0.0209,-0.02345 -0.009,-0.0096 z"
   id="path18" />
<path
   fill="#faeee7"
   opacity="1"
   stroke="none"
   d="m 311.44074,57.150742 c 0.70471,5.849625 1.07684,11.895958 1.41217,18.366447 -2.80264,-5.572044 -4.14398,-11.699104 -1.41217,-18.366447 z"
   id="path19" />
<path
   fill="#faeee7"
   opacity="1"
   stroke="none"
   d="m 373.3205,44.788491 c -0.70319,-1.161545 -1.15378,-2.113343 -1.63281,-3.394875 6.04882,-1.527206 3.48458,3.257553 4.16903,6.186844 -0.77981,-0.585518 -1.5317,-1.58387 -2.53622,-2.791969 z"
   id="path20" />
<path
   fill="#faeee7"
   opacity="1"
   stroke="none"
   d="m 351.83698,98.551178 c 2.11413,-0.977707 4.22702,-1.624588 6.70202,-2.263046 -1.18261,3.277619 -5.0484,4.692248 -6.70202,2.263046 z"
   id="path21" />
<path
   fill="#faeee7"
   opacity="1"
   stroke="none"
   d="m 362.83252,94.822556 c 1.88507,-1.893219 4.17697,-3.724045 6.79035,-5.635407 0.30694,4.422165 -2.78983,5.348282 -6.79035,5.635407 z"
   id="path22" />
<path
   fill="#faeee7"
   opacity="1"
   stroke="none"
   d="m 340.95893,98.798676 c 2.26699,-0.376297 4.67202,-0.425369 7.51306,-0.353363 -2.1677,0.307571 -4.77136,0.494079 -7.51306,0.353363 z"
   id="path23" />
<path
   fill="#faeee7"
   opacity="1"
   stroke="none"
   d="m 348.84662,25.733651 c -3.97018,-0.170441 -1.61584,-4.038845 -3.19586,-6.24305 1.05615,1.695812 2.10483,3.770203 3.19586,6.24305 z"
   id="path24" />
<path
   fill="#faeee7"
   opacity="1"
   stroke="none"
   d="m 331.0109,96.284073 c 2.27737,0.328308 4.71011,0.972946 7.48019,1.786164 -2.21667,-0.377549 -4.77078,-0.923676 -7.48019,-1.786164 z"
   id="path25" />
<path
   fill="#faeee7"
   opacity="1"
   stroke="none"
   d="m 345.76343,18.661782 c -1.46173,-1.19989 -2.85931,-2.814907 -4.57361,-4.553353 3.99625,-1.580764 4.37335,-1.256382 4.57361,4.553353 z"
   id="path26" />
<path
   fill="#faeee7"
   opacity="1"
   stroke="none"
   d="m 340.02747,19.890259 c 0.24292,1.740956 0.41418,3.944824 0.20761,6.049835 -0.34497,-1.928207 -0.3121,-3.757564 -0.20761,-6.049835 z"
   id="path27" />
<path
   fill="#faeee7"
   opacity="1"
   stroke="none"
   d="m 319.86658,28.944474 c -0.12326,-0.833123 -0.24649,-1.666252 -0.36975,-2.49939 1.09009,0.27475 2.18014,0.549492 3.33551,1.172791 0.0653,0.348564 0.17395,0.359123 -0.15454,0.382263 -1.1561,0.330215 -1.98364,0.637275 -2.81122,0.944336 z"
   id="path28" />
<path
   fill="#ebefbb"
   opacity="1"
   stroke="none"
   d="m 319.85407,29.275849 c 0.84009,-0.638436 1.66763,-0.945496 2.82953,-1.221466 0.45062,0.598152 0.56689,1.165214 0.92932,1.918823 -0.84458,0.447815 -1.93527,0.709091 -3.3805,0.964714 -0.36666,-0.447342 -0.37878,-0.889023 -0.37835,-1.662071 z"
   id="path29" />
<path
   fill="#faeee7"
   opacity="1"
   stroke="none"
   d="m 314.50489,47.949204 c -0.0784,1.297531 -0.51792,2.596725 -1.21448,4.130493 0.17404,-1.204376 -3.12271,-3.592003 1.21448,-4.130493 z"
   id="path30" />
<path
   fill="#faeee7"
   opacity="1"
   stroke="none"
   d="m 312.95545,77.00351 c 0.69034,0.813209 1.32025,2.027771 1.95001,3.58905 -0.67026,-0.831421 -1.34036,-2.009559 -1.95001,-3.58905 z"
   id="path31" />
<path
   fill="#faeee7"
   opacity="1"
   stroke="none"
   d="m 338.67914,16.120789 c 0.63107,0.578217 0.99109,1.351856 1.34192,2.455505 -0.54379,-0.533348 -1.0784,-1.396713 -1.34192,-2.455505 z"
   id="path32" />
<path
   fill="#faeee7"
   opacity="1"
   stroke="none"
   d="m 335.82202,25.25087 c -0.69772,0.361885 -1.46829,0.436173 -2.6138,0.399384 0.59705,-0.303047 1.569,-0.495011 2.6138,-0.399384 z"
   id="path33" />
<path
   fill="#faeee7"
   opacity="1"
   stroke="none"
   d="m 315.04251,81.756928 c 0.57151,0.288765 1.08969,0.93087 1.61856,1.890259 -0.5502,-0.300789 -1.11102,-0.918854 -1.61856,-1.890259 z"
   id="path34" />
<path
   fill="#faeee7"
   opacity="1"
   stroke="none"
   d="m 312.53321,53.169739 c 0.15289,0.678772 0.0346,1.572151 -0.34235,2.688996 -0.14874,-0.675827 -0.0388,-1.575104 0.34235,-2.688996 z"
   id="path35" />
<path
   fill="#ebefbb"
   opacity="1"
   stroke="none"
   d="m 327.70447,26.028046 c -0.44263,0.438706 -1.24802,0.795776 -2.39352,1.146011 0.45016,-0.413765 1.24051,-0.820701 2.39352,-1.146011 z"
   id="path36" />
<path
   fill="#ebefbb"
   opacity="1"
   stroke="none"
   d="m 352.72077,25.508957 c -0.26697,0.311867 -0.71033,0.432923 -1.49799,0.50602 0.21097,-0.264244 0.7663,-0.480538 1.49799,-0.50602 z"
   id="path37" />
<path
   fill="#e85617"
   opacity="1"
   stroke="none"
   d="m 316.47187,45.925606 c 0.0498,0.518379 -0.0883,1.022721 -0.48298,1.348335 -0.19567,-0.547325 -0.1347,-0.915916 -0.0737,-1.284507 0,0 0.36878,-0.07786 0.55671,-0.06383 z"
   id="path38" />
<path
   fill="#faeee7"
   opacity="1"
   stroke="none"
   d="m 315.64624,46.128357 c 0.20795,0.229668 0.14698,0.598259 0.0826,1.246704 -0.003,0.279854 -0.42416,0.453072 -0.64367,0.513024 -0.049,-0.500298 0.12152,-1.060547 0.56103,-1.759728 z"
   id="path39" />
<path
   fill="#faeee7"
   opacity="1"
   stroke="none"
   d="m 360.21045,95.965378 c 0.15686,-0.345413 0.60892,-0.689377 1.35486,-1.01062 -0.15729,0.352478 -0.60846,0.682282 -1.35486,1.01062 z"
   id="path40" />
<path
   fill="#faeee7"
   opacity="1"
   stroke="none"
   d="m 317.65985,43.090279 c 0.0424,0.380409 -0.16998,0.866905 -0.62988,1.466248 -0.0399,-0.378159 0.16757,-0.869156 0.62988,-1.466248 z"
   id="path41" />
<path
   fill="#fafafa"
   opacity="1"
   stroke="none"
   d="m 388.46582,89.22374 c -0.16067,-0.127197 -0.18396,-0.34729 -0.20727,-0.567383 0.1149,0.158173 0.2298,0.316345 0.20727,0.567383 z"
   id="path42" />
<path
   fill="#e85617"
   opacity="1"
   stroke="none"
   d="m 366.2428,37.399613 c -0.22446,0.06216 -0.41965,-0.07935 -0.46313,-0.327698 0.15167,-0.106834 0.49237,0.124024 0.46313,0.327698 z"
   id="path43" />
<path
   fill="#ebefbb"
   opacity="1"
   stroke="none"
   d="m 365.59265,35.860428 c -0.27624,0.216912 -0.56881,0.06731 -0.93237,-0.39949 0.20755,-0.101723 0.53653,0.01501 0.93237,0.39949 z"
   id="path44" />
<path
   fill="#faeee7"
   opacity="1"
   stroke="none"
   d="m 373.0326,85.789231 c -0.12415,-0.229485 0.0219,-0.578903 0.43212,-1.054917 0.12214,0.227257 -0.0199,0.581124 -0.43212,1.054917 z"
   id="path45" />
<path
   fill="#faeee7"
   opacity="1"
   stroke="none"
   d="m 374.32636,83.821724 c -0.30417,-0.234947 -0.22104,-0.527282 0.27737,-0.851402 0.24872,0.23587 0.14694,0.511139 -0.27737,0.851402 z"
   id="path46" />
<path
   fill="#faeee7"
   opacity="1"
   stroke="none"
   d="m 375.07001,82.775055 c -0.14371,-0.224563 -0.022,-0.593597 0.36078,-1.111236 0.1423,0.22319 0.0235,0.59497 -0.36078,1.111236 z"
   id="path47" />
<path
   fill="#fafafa"
   opacity="1"
   stroke="none"
   d="m 388.31375,40.47902 c -0.0332,-0.05563 0.0332,0.05562 0,0 z"
   id="path48" />
<path
   fill="#e85617"
   opacity="1"
   stroke="none"
   d="m 323.58222,82.17363 c -4.70331,-5.276993 -6.84766,-11.051819 -5.3963,-18.403618 0.85949,0.88131 2.32571,1.664635 2.48626,2.658821 1.9863,12.299126 10.1377,19.245926 20.95575,24.05896 -4.44818,2.500428 -9.7518,-4.88e-4 -18.04571,-8.314163 z"
   id="path49" />
<path
   fill="#f8c6c4"
   opacity="1"
   stroke="none"
   d="m 361.17954,51.642289 c -4.50962,-2.880921 -8.77915,-5.484894 -13.61585,-8.434769 4.18854,-1.859467 7.51252,-0.03195 10.58091,1.748627 5.10101,2.960083 8.55416,7.262214 9.96337,12.862503 -0.49194,0.364937 -0.98385,0.729881 -1.4758,1.094818 -1.73751,-2.331406 -3.47503,-4.662819 -5.45263,-7.271179 z"
   id="path50" />
<path
   fill="#e85617"
   opacity="1"
   stroke="none"
   d="m 343.35373,35.81894 c 4.91944,-2.15876 9.03372,1.031654 13.54733,3.338913 -4.29672,-0.901925 -8.72903,-2.093163 -13.54733,-3.338913 z"
   id="path51" />
<path
   fill="#e85617"
   opacity="1"
   stroke="none"
   d="m 337.30609,37.798745 c 1.30686,-0.679512 2.97129,-1.307022 4.98197,-1.911889 -1.31064,0.669724 -2.9675,1.316803 -4.98197,1.911889 z"
   id="path52" />
<path
   fill="#e85617"
   opacity="1"
   stroke="none"
   d="m 333.08832,39.571762 c 0.75171,-0.639328 1.81503,-1.180442 3.20816,-1.704971 -0.74563,0.612122 -1.82107,1.207657 -3.20816,1.704971 z"
   id="path53" />
<path
   fill="#e85617"
   opacity="1"
   stroke="none"
   d="m 331.06781,40.157967 c -0.0574,-0.132797 0.22623,-0.264885 0.37979,-0.26371 0.15357,0.0012 0.0497,0.392731 0.0497,0.392731 0,0 -0.37207,0.0038 -0.42945,-0.129021 z"
   id="path54" />
<path
   fill="#e85617"
   opacity="1"
   stroke="none"
   d="m 358.18933,40.086731 c 0.19339,-0.1875 0.41446,-0.09343 0.72303,0.207871 0.11877,0.133987 -0.30143,0.234634 -0.30143,0.234634 0,0 -0.3627,-0.234176 -0.4216,-0.442505 z"
   id="path55" />
<path
   fill="#e85617"
   opacity="1"
   stroke="none"
   d="m 360.17359,41.056137 c 0.20916,-0.172935 0.42975,-0.05759 0.72439,0.277833 0.11182,0.147933 -0.32531,0.206451 -0.32531,0.206451 0,0 -0.34995,-0.268158 -0.39908,-0.484284 z"
   id="path56" />
<path
   fill="#fcfcfc"
   opacity="1"
   stroke="none"
   d="m 511.99543,49.189255 c 7.05877,-8.295532 15.64776,-11.237167 25.7254,-8.169288 9.07251,2.761863 14.44873,9.386756 16.00775,18.640502 1.70081,10.095177 -1.05566,18.894104 -9.59784,25.118821 -8.5567,6.235298 -20.57916,5.507484 -28.70251,-1.394028 -8.39423,-7.131615 -10.97162,-20.032745 -5.96497,-30.066216 0.66467,-1.331955 1.5423,-2.557624 2.53217,-4.129791 z"
   id="path57" />
<path
   fill="#fafafa"
   opacity="1"
   stroke="none"
   d="m 633.77808,44.758301 c 14.62329,-9.753464 30.93365,-4.37474 34.72272,11.131958 0.22302,0.912636 0.15954,1.895294 0.24969,3.122498 -14.14325,0 -28.03192,0 -42.46429,0 0.77954,-5.79522 3.1687,-10.303147 7.49188,-14.254456 z"
   id="path58" />
<path
   fill="#fcfcfc"
   opacity="1"
   stroke="none"
   d="M 169.33478,78.236359 C 160.98041,89.480545 147.23043,92.28479 136.57804,85.18586 125.728,77.955201 122.52138,62.560234 129.48081,51.112168 c 6.62401,-10.896324 20.52736,-14.472252 31.83342,-8.187508 11.50711,6.396492 15.09028,21.646408 8.02055,35.311699 z"
   id="path59" />
<path
   fill="#ebefbb"
   opacity="1"
   stroke="none"
   d="m 330.2193,32.995171 c -0.35956,-0.678429 -0.37515,-1.380653 -0.41418,-2.432602 1.35983,-0.286743 2.74313,-0.223755 4.12643,-0.160767 0.0698,0.298874 0.13953,0.597741 0.20929,0.896615 -1.19253,0.557655 -2.38507,1.11531 -3.92154,1.696754 z"
   id="path60" />
</svg>
