<?xml version="1.0" encoding="UTF-8"?>
<svg xmlns="http://www.w3.org/2000/svg" xmlns:xlink="http://www.w3.org/1999/xlink" width="181px" height="22px" viewBox="0 0 183 22" version="1.1">
<g id="surface1">
<path style=" stroke:none;fill-rule:nonzero;fill:rgb(94.901961%,40.000001%,13.333334%);fill-opacity:1;" d="M 93.566406 0.492188 C 105.230469 0.492188 105.230469 0.492188 107.703125 1.722656 C 107.742188 1.738281 107.773438 1.753906 107.808594 1.773438 C 108.667969 2.203125 109.488281 2.710938 110.191406 3.375 C 110.234375 3.410156 110.277344 3.449219 110.324219 3.488281 C 110.671875 3.792969 110.992188 4.128906 111.273438 4.5 C 111.3125 4.542969 111.34375 4.585938 111.378906 4.628906 C 111.679688 5.011719 111.941406 5.414062 112.183594 5.832031 C 112.199219 5.855469 112.214844 5.878906 112.226562 5.902344 C 112.914062 7.085938 113.253906 8.453125 113.410156 9.804688 C 113.414062 9.835938 113.417969 9.871094 113.421875 9.902344 C 113.457031 10.257812 113.457031 10.625 113.457031 10.984375 C 113.457031 11.035156 113.457031 11.035156 113.457031 11.089844 C 113.453125 11.664062 113.429688 12.222656 113.339844 12.792969 C 113.335938 12.832031 113.328125 12.867188 113.324219 12.90625 C 113.015625 14.800781 112.222656 16.558594 110.933594 17.976562 C 110.882812 18.035156 110.832031 18.09375 110.78125 18.148438 C 110.4375 18.546875 110.046875 18.875 109.632812 19.1875 C 109.609375 19.203125 109.589844 19.21875 109.566406 19.238281 C 109.273438 19.460938 108.972656 19.667969 108.652344 19.851562 C 108.605469 19.878906 108.554688 19.90625 108.503906 19.933594 C 107.296875 20.648438 105.949219 21.082031 104.570312 21.324219 C 104.53125 21.328125 104.496094 21.335938 104.457031 21.34375 C 100.871094 21.929688 97.195312 21.507812 93.566406 21.507812 C 93.566406 14.574219 93.566406 7.636719 93.566406 0.492188 Z M 98.429688 4.710938 C 98.429688 8.863281 98.429688 13.011719 98.429688 17.289062 C 102.957031 17.453125 102.957031 17.453125 106.722656 15.371094 C 107.890625 14.199219 108.394531 12.605469 108.40625 10.972656 C 108.394531 9.242188 107.785156 7.6875 106.5625 6.464844 C 106.332031 6.238281 106.082031 6.046875 105.816406 5.871094 C 105.792969 5.855469 105.773438 5.839844 105.75 5.828125 C 103.546875 4.394531 100.972656 4.710938 98.429688 4.710938 Z M 98.429688 4.710938 "/>
<path style=" stroke:none;fill-rule:nonzero;fill:rgb(94.901961%,40.000001%,13.333334%);fill-opacity:1;" d="M 59.800781 2.269531 C 59.851562 2.3125 59.90625 2.355469 59.957031 2.394531 C 60.546875 2.859375 61.125 3.40625 61.574219 4.007812 C 61.605469 4.050781 61.636719 4.09375 61.671875 4.136719 C 62.976562 5.832031 63.746094 7.878906 63.917969 10.015625 C 63.921875 10.050781 63.921875 10.050781 63.925781 10.085938 C 64.15625 12.902344 63.363281 15.742188 61.609375 17.957031 C 61.582031 17.992188 61.554688 18.027344 61.527344 18.0625 C 61.15625 18.53125 60.734375 18.980469 60.277344 19.367188 C 60.261719 19.378906 60.246094 19.394531 60.226562 19.410156 C 59.644531 19.910156 59 20.351562 58.316406 20.699219 C 58.269531 20.722656 58.269531 20.722656 58.21875 20.75 C 57 21.375 55.71875 21.765625 54.363281 21.929688 C 54.316406 21.9375 54.316406 21.9375 54.269531 21.941406 C 51.371094 22.308594 48.269531 21.546875 45.953125 19.742188 C 45.25 19.183594 44.589844 18.574219 44.054688 17.847656 C 44.015625 17.800781 43.984375 17.757812 43.953125 17.714844 C 42.710938 16.078125 41.996094 14.066406 41.832031 12.019531 C 41.828125 11.996094 41.828125 11.96875 41.828125 11.941406 C 41.671875 9.863281 42.042969 7.730469 42.988281 5.871094 C 43.003906 5.835938 43.019531 5.808594 43.035156 5.777344 C 43.363281 5.136719 43.761719 4.527344 44.210938 3.96875 C 44.226562 3.953125 44.246094 3.933594 44.261719 3.914062 C 44.703125 3.371094 45.195312 2.847656 45.753906 2.425781 C 45.800781 2.390625 45.84375 2.351562 45.886719 2.316406 C 48.640625 0.148438 52.324219 -0.472656 59.800781 2.269531 Z M 48.832031 6.007812 C 48.804688 6.035156 48.777344 6.0625 48.746094 6.089844 C 48.515625 6.308594 48.324219 6.5625 48.136719 6.820312 C 48.117188 6.839844 48.105469 6.859375 48.089844 6.878906 C 46.980469 8.382812 46.695312 10.410156 46.941406 12.226562 C 46.992188 12.550781 47.0625 12.863281 47.152344 13.179688 C 47.160156 13.203125 47.167969 13.230469 47.175781 13.257812 C 47.378906 13.980469 47.726562 14.648438 48.167969 15.253906 C 48.195312 15.285156 48.21875 15.320312 48.242188 15.355469 C 49.1875 16.574219 50.570312 17.328125 52.089844 17.527344 C 52.277344 17.550781 52.460938 17.5625 52.648438 17.570312 C 52.6875 17.574219 52.722656 17.574219 52.761719 17.578125 C 54.253906 17.605469 55.765625 17.097656 56.851562 16.054688 C 56.867188 16.039062 56.882812 16.019531 56.902344 16.003906 C 56.953125 15.953125 57.007812 15.90625 57.058594 15.855469 C 57.519531 15.414062 57.855469 14.902344 58.144531 14.339844 C 58.15625 14.316406 58.164062 14.296875 58.179688 14.273438 C 58.507812 13.632812 58.6875 12.9375 58.808594 12.230469 C 58.816406 12.203125 58.816406 12.175781 58.820312 12.148438 C 59 11.070312 58.890625 9.902344 58.597656 8.855469 C 58.589844 8.832031 58.585938 8.804688 58.578125 8.777344 C 58.292969 7.757812 57.738281 6.886719 57.023438 6.113281 C 57.003906 6.089844 56.980469 6.070312 56.957031 6.042969 C 55.9375 4.96875 54.445312 4.492188 53.003906 4.421875 C 51.441406 4.394531 49.980469 4.949219 48.832031 6.007812 Z M 48.832031 6.007812 "/>
<path style=" stroke:none;fill-rule:nonzero;fill:rgb(94.901961%,40.000001%,13.333334%);fill-opacity:1;" d="M 139.417969 0.492188 C 141.148438 0.488281 142.886719 0.488281 144.675781 0.484375 C 145.21875 0.484375 145.765625 0.484375 146.328125 0.484375 C 147 0.484375 147 0.484375 147.3125 0.484375 C 147.53125 0.484375 147.75 0.484375 147.96875 0.480469 C 148.222656 0.480469 148.472656 0.480469 148.726562 0.480469 C 148.855469 0.480469 148.984375 0.480469 149.113281 0.480469 C 151.492188 0.46875 153.871094 1 155.613281 2.726562 C 156.464844 3.59375 157.003906 4.753906 157.261719 5.933594 C 157.273438 5.980469 157.273438 5.980469 157.28125 6.027344 C 157.394531 6.574219 157.421875 7.113281 157.421875 7.671875 C 157.421875 7.722656 157.421875 7.722656 157.421875 7.78125 C 157.421875 8.347656 157.390625 8.898438 157.269531 9.453125 C 157.253906 9.507812 157.253906 9.507812 157.246094 9.554688 C 156.863281 11.203125 155.917969 12.566406 154.496094 13.476562 C 153.785156 13.910156 153 14.234375 152.191406 14.445312 C 152.234375 14.539062 152.285156 14.621094 152.355469 14.699219 C 152.375 14.71875 152.390625 14.738281 152.410156 14.761719 C 152.429688 14.785156 152.449219 14.804688 152.46875 14.828125 C 152.511719 14.878906 152.550781 14.921875 152.59375 14.96875 C 152.613281 14.996094 152.636719 15.019531 152.65625 15.042969 C 152.742188 15.140625 152.828125 15.242188 152.914062 15.34375 C 152.929688 15.363281 152.945312 15.382812 152.960938 15.398438 C 152.992188 15.4375 153.023438 15.476562 153.054688 15.511719 C 153.132812 15.609375 153.214844 15.699219 153.292969 15.796875 C 153.308594 15.8125 153.324219 15.832031 153.339844 15.851562 C 153.441406 15.972656 153.546875 16.09375 153.648438 16.210938 C 153.785156 16.378906 153.929688 16.539062 154.0625 16.707031 C 154.207031 16.886719 154.355469 17.0625 154.507812 17.238281 C 154.621094 17.363281 154.730469 17.492188 154.835938 17.625 C 154.976562 17.800781 155.125 17.972656 155.277344 18.144531 C 155.445312 18.34375 155.613281 18.546875 155.785156 18.746094 C 155.867188 18.839844 155.945312 18.933594 156.023438 19.027344 C 156.035156 19.046875 156.054688 19.066406 156.070312 19.085938 C 156.171875 19.207031 156.273438 19.324219 156.378906 19.445312 C 156.519531 19.609375 156.65625 19.777344 156.792969 19.941406 C 156.917969 20.097656 157.046875 20.25 157.179688 20.398438 C 157.339844 20.582031 157.492188 20.765625 157.644531 20.957031 C 157.703125 21.027344 157.757812 21.097656 157.820312 21.167969 C 157.835938 21.1875 157.851562 21.207031 157.867188 21.226562 C 157.914062 21.28125 157.960938 21.335938 158.007812 21.390625 C 158.074219 21.472656 158.074219 21.472656 158.074219 21.507812 C 157.335938 21.519531 156.601562 21.527344 155.863281 21.535156 C 155.519531 21.539062 155.175781 21.539062 154.835938 21.542969 C 154.539062 21.550781 154.242188 21.554688 153.941406 21.554688 C 153.785156 21.554688 153.625 21.558594 153.46875 21.558594 C 152.429688 21.582031 152.429688 21.582031 152.203125 21.40625 C 152.105469 21.304688 152.039062 21.203125 151.980469 21.082031 C 151.921875 20.964844 151.832031 20.875 151.746094 20.78125 C 151.714844 20.742188 151.683594 20.703125 151.652344 20.667969 C 151.636719 20.648438 151.621094 20.632812 151.605469 20.613281 C 151.539062 20.53125 151.472656 20.449219 151.410156 20.367188 C 151.265625 20.199219 151.125 20.03125 150.984375 19.863281 C 150.878906 19.738281 150.773438 19.613281 150.671875 19.488281 C 150.515625 19.296875 150.359375 19.109375 150.199219 18.925781 C 149.980469 18.671875 149.765625 18.414062 149.550781 18.152344 C 149.414062 17.984375 149.269531 17.816406 149.128906 17.648438 C 149.019531 17.523438 148.917969 17.398438 148.816406 17.273438 C 148.660156 17.082031 148.503906 16.898438 148.34375 16.710938 C 148.125 16.457031 147.90625 16.203125 147.695312 15.941406 C 147.558594 15.769531 147.414062 15.601562 147.269531 15.4375 C 147.132812 15.273438 147.003906 15.105469 146.871094 14.9375 C 145.554688 14.921875 145.554688 14.921875 144.210938 14.898438 C 144.210938 17.082031 144.210938 19.261719 144.210938 21.507812 C 142.628906 21.507812 141.046875 21.507812 139.417969 21.507812 C 139.417969 14.574219 139.417969 7.636719 139.417969 0.492188 Z M 144.210938 4.605469 C 144.210938 6.679688 144.210938 8.753906 144.210938 10.894531 C 145.4375 10.898438 145.4375 10.898438 146.691406 10.898438 C 146.953125 10.902344 147.207031 10.902344 147.472656 10.902344 C 147.707031 10.902344 147.707031 10.902344 147.941406 10.902344 C 148.042969 10.902344 148.144531 10.902344 148.246094 10.902344 C 149.515625 10.90625 150.765625 10.859375 151.730469 9.933594 C 152.347656 9.289062 152.5625 8.441406 152.546875 7.574219 C 152.53125 6.898438 152.300781 6.304688 151.914062 5.765625 C 151.894531 5.738281 151.871094 5.710938 151.851562 5.683594 C 151.390625 5.097656 150.589844 4.804688 149.882812 4.683594 C 149.859375 4.679688 149.835938 4.675781 149.8125 4.671875 C 149.402344 4.609375 148.988281 4.597656 148.574219 4.601562 C 148.527344 4.601562 148.476562 4.601562 148.425781 4.601562 C 148.296875 4.601562 148.171875 4.601562 148.042969 4.601562 C 147.921875 4.601562 147.796875 4.601562 147.675781 4.601562 C 147.324219 4.601562 146.96875 4.601562 146.617188 4.601562 C 145.425781 4.605469 145.425781 4.605469 144.210938 4.605469 Z M 144.210938 4.605469 "/>
<path style=" stroke:none;fill-rule:nonzero;fill:rgb(94.901961%,40.000001%,13.333334%);fill-opacity:1;" d="M 68.675781 0.492188 C 70.285156 0.492188 71.890625 0.492188 73.542969 0.492188 C 73.546875 1.042969 73.546875 1.042969 73.546875 1.605469 C 73.546875 2.789062 73.550781 3.96875 73.554688 5.148438 C 73.554688 5.335938 73.554688 5.515625 73.554688 5.703125 C 73.554688 5.753906 73.554688 5.753906 73.554688 5.8125 C 73.554688 6.402344 73.554688 6.992188 73.554688 7.582031 C 73.554688 8.191406 73.558594 8.796875 73.558594 9.402344 C 73.558594 9.777344 73.5625 10.152344 73.5625 10.523438 C 73.5625 10.78125 73.5625 11.039062 73.5625 11.296875 C 73.5625 11.441406 73.5625 11.589844 73.5625 11.742188 C 73.5625 13.300781 73.75 14.921875 74.835938 16.128906 C 74.855469 16.148438 74.871094 16.167969 74.890625 16.1875 C 75.632812 17.003906 76.691406 17.460938 77.78125 17.53125 C 77.816406 17.535156 77.847656 17.535156 77.886719 17.539062 C 77.914062 17.539062 77.949219 17.542969 77.980469 17.542969 C 78.753906 17.558594 79.503906 17.390625 80.195312 17.046875 C 80.21875 17.035156 80.238281 17.023438 80.261719 17.011719 C 80.59375 16.84375 80.867188 16.628906 81.140625 16.378906 C 81.164062 16.359375 81.1875 16.339844 81.207031 16.316406 C 82.222656 15.375 82.570312 13.871094 82.644531 12.546875 C 82.648438 12.375 82.648438 12.203125 82.652344 12.027344 C 82.652344 11.976562 82.652344 11.929688 82.652344 11.878906 C 82.652344 11.742188 82.652344 11.605469 82.652344 11.46875 C 82.652344 11.324219 82.652344 11.175781 82.652344 11.027344 C 82.65625 10.773438 82.65625 10.515625 82.65625 10.261719 C 82.65625 9.894531 82.65625 9.523438 82.660156 9.15625 C 82.660156 8.558594 82.660156 7.960938 82.660156 7.359375 C 82.664062 6.777344 82.664062 6.199219 82.667969 5.617188 C 82.667969 5.5625 82.667969 5.5625 82.667969 5.507812 C 82.667969 5.324219 82.667969 5.144531 82.667969 4.96875 C 82.671875 3.472656 82.675781 1.984375 82.679688 0.492188 C 84.285156 0.492188 85.890625 0.492188 87.542969 0.492188 C 87.546875 2.050781 87.550781 3.609375 87.550781 5.167969 C 87.550781 5.351562 87.550781 5.535156 87.550781 5.71875 C 87.550781 5.753906 87.550781 5.792969 87.550781 5.832031 C 87.550781 6.421875 87.554688 7.015625 87.554688 7.609375 C 87.554688 8.21875 87.554688 8.824219 87.554688 9.4375 C 87.554688 9.808594 87.558594 10.1875 87.558594 10.558594 C 87.558594 10.816406 87.558594 11.074219 87.558594 11.332031 C 87.558594 11.484375 87.558594 11.632812 87.558594 11.78125 C 87.5625 13.144531 87.429688 14.46875 87.019531 15.78125 C 87.011719 15.808594 87 15.84375 86.988281 15.871094 C 86.621094 17.046875 86.011719 18.125 85.199219 19.046875 C 85.171875 19.078125 85.144531 19.109375 85.117188 19.144531 C 84.828125 19.46875 84.527344 19.761719 84.183594 20.035156 C 84.152344 20.058594 84.117188 20.085938 84.085938 20.113281 C 82.105469 21.703125 79.417969 22.207031 76.941406 21.964844 C 74.859375 21.730469 72.96875 20.960938 71.445312 19.503906 C 71.425781 19.488281 71.40625 19.46875 71.390625 19.453125 C 71.09375 19.175781 70.84375 18.878906 70.605469 18.554688 C 70.582031 18.527344 70.582031 18.527344 70.558594 18.496094 C 69.289062 16.8125 68.671875 14.605469 68.675781 12.511719 C 68.675781 12.457031 68.675781 12.40625 68.675781 12.355469 C 68.675781 12.214844 68.675781 12.070312 68.675781 11.929688 C 68.675781 11.773438 68.675781 11.621094 68.675781 11.46875 C 68.675781 11.203125 68.675781 10.9375 68.675781 10.667969 C 68.675781 10.285156 68.675781 9.902344 68.675781 9.515625 C 68.675781 8.894531 68.675781 8.269531 68.675781 7.644531 C 68.675781 7.039062 68.675781 6.433594 68.675781 5.832031 C 68.675781 5.789062 68.675781 5.753906 68.675781 5.714844 C 68.675781 5.53125 68.675781 5.339844 68.675781 5.152344 C 68.675781 3.597656 68.675781 2.046875 68.675781 0.492188 Z M 68.675781 0.492188 "/>
<path style=" stroke:none;fill-rule:nonzero;fill:rgb(94.901961%,40.000001%,13.333334%);fill-opacity:1;" d="M 168.085938 0.488281 C 168.132812 0.488281 168.132812 0.488281 168.1875 0.488281 C 168.222656 0.488281 168.257812 0.488281 168.296875 0.488281 C 168.335938 0.488281 168.378906 0.488281 168.421875 0.488281 C 168.464844 0.488281 168.507812 0.488281 168.550781 0.488281 C 168.671875 0.488281 168.789062 0.488281 168.90625 0.488281 C 169.027344 0.488281 169.15625 0.488281 169.277344 0.488281 C 169.511719 0.488281 169.742188 0.488281 169.976562 0.488281 C 170.246094 0.488281 170.511719 0.488281 170.777344 0.488281 C 171.324219 0.488281 171.875 0.492188 172.421875 0.492188 C 172.90625 1.632812 172.90625 1.632812 172.960938 1.753906 C 172.996094 1.839844 173.03125 1.921875 173.066406 2.007812 C 173.15625 2.222656 173.246094 2.4375 173.339844 2.648438 C 173.542969 3.125 173.542969 3.125 173.742188 3.605469 C 173.890625 3.949219 174.035156 4.296875 174.183594 4.640625 C 174.539062 5.484375 174.898438 6.328125 175.257812 7.167969 C 175.535156 7.8125 175.808594 8.460938 176.082031 9.105469 C 176.097656 9.144531 176.113281 9.183594 176.132812 9.226562 C 176.265625 9.539062 176.398438 9.851562 176.535156 10.171875 C 176.648438 10.445312 176.765625 10.71875 176.882812 10.996094 C 176.898438 11.03125 176.914062 11.074219 176.933594 11.113281 C 177.191406 11.71875 177.449219 12.324219 177.710938 12.933594 C 177.984375 13.578125 178.257812 14.222656 178.53125 14.871094 C 178.550781 14.910156 178.566406 14.949219 178.582031 14.988281 C 178.71875 15.304688 178.847656 15.617188 178.984375 15.929688 C 179.355469 16.816406 179.730469 17.699219 180.109375 18.582031 C 180.164062 18.707031 180.214844 18.832031 180.265625 18.953125 C 180.425781 19.324219 180.582031 19.691406 180.738281 20.058594 C 180.808594 20.21875 180.878906 20.378906 180.949219 20.542969 C 180.980469 20.617188 181.011719 20.695312 181.046875 20.769531 C 181.09375 20.875 181.140625 20.980469 181.179688 21.085938 C 181.195312 21.113281 181.207031 21.148438 181.222656 21.175781 C 181.234375 21.207031 181.246094 21.234375 181.261719 21.261719 C 181.269531 21.289062 181.28125 21.3125 181.289062 21.339844 C 181.3125 21.402344 181.3125 21.402344 181.3125 21.507812 C 179.6875 21.507812 178.054688 21.507812 176.378906 21.507812 C 176.117188 20.878906 175.863281 20.25 175.617188 19.617188 C 175.558594 19.460938 175.496094 19.304688 175.4375 19.152344 C 175.414062 19.09375 175.414062 19.09375 175.390625 19.039062 C 175.292969 18.78125 175.1875 18.527344 175.085938 18.273438 C 175.074219 18.238281 175.0625 18.207031 175.046875 18.167969 C 174.984375 18.015625 174.921875 17.863281 174.863281 17.707031 C 174.839844 17.648438 174.816406 17.597656 174.796875 17.542969 C 174.78125 17.503906 174.78125 17.503906 174.765625 17.46875 C 174.699219 17.300781 174.699219 17.300781 174.699219 17.21875 C 171.761719 17.21875 168.832031 17.21875 165.808594 17.21875 C 165.796875 17.28125 165.785156 17.335938 165.769531 17.394531 C 165.75 17.460938 165.726562 17.523438 165.699219 17.589844 C 165.6875 17.628906 165.667969 17.667969 165.652344 17.707031 C 165.636719 17.746094 165.621094 17.789062 165.601562 17.832031 C 165.585938 17.875 165.566406 17.921875 165.550781 17.964844 C 165.503906 18.082031 165.453125 18.207031 165.410156 18.324219 C 165.359375 18.445312 165.308594 18.574219 165.261719 18.695312 C 165.203125 18.851562 165.140625 19.003906 165.078125 19.152344 C 164.953125 19.472656 164.828125 19.785156 164.703125 20.101562 C 164.675781 20.167969 164.652344 20.234375 164.625 20.300781 C 164.558594 20.464844 164.496094 20.636719 164.429688 20.800781 C 164.382812 20.914062 164.339844 21.027344 164.296875 21.140625 C 164.28125 21.171875 164.269531 21.207031 164.257812 21.238281 C 164.246094 21.273438 164.234375 21.300781 164.21875 21.332031 C 164.210938 21.359375 164.199219 21.386719 164.191406 21.410156 C 164.164062 21.472656 164.164062 21.472656 164.128906 21.507812 C 164.066406 21.511719 164 21.511719 163.9375 21.511719 C 163.875 21.511719 163.875 21.511719 163.8125 21.511719 C 163.765625 21.511719 163.71875 21.511719 163.667969 21.511719 C 163.625 21.511719 163.574219 21.511719 163.523438 21.511719 C 163.394531 21.511719 163.261719 21.511719 163.125 21.511719 C 162.992188 21.511719 162.851562 21.511719 162.714844 21.511719 C 162.449219 21.511719 162.191406 21.511719 161.925781 21.511719 C 161.628906 21.511719 161.332031 21.511719 161.035156 21.511719 C 160.417969 21.511719 159.804688 21.507812 159.191406 21.507812 C 159.210938 21.457031 159.226562 21.410156 159.242188 21.359375 C 159.25 21.332031 159.257812 21.300781 159.269531 21.277344 C 159.316406 21.140625 159.371094 21.011719 159.421875 20.878906 C 159.4375 20.851562 159.449219 20.820312 159.460938 20.789062 C 159.503906 20.695312 159.542969 20.597656 159.582031 20.503906 C 159.609375 20.4375 159.636719 20.367188 159.667969 20.300781 C 159.875 19.800781 160.085938 19.304688 160.296875 18.808594 C 160.480469 18.371094 160.664062 17.933594 160.851562 17.496094 C 160.867188 17.460938 160.878906 17.429688 160.890625 17.394531 C 160.960938 17.226562 161.035156 17.0625 161.101562 16.894531 C 161.230469 16.597656 161.355469 16.296875 161.480469 16 C 161.546875 15.835938 161.617188 15.671875 161.6875 15.507812 C 161.710938 15.441406 161.742188 15.375 161.769531 15.308594 C 161.78125 15.277344 161.796875 15.242188 161.8125 15.210938 C 161.851562 15.113281 161.894531 15.011719 161.9375 14.914062 C 161.957031 14.863281 161.957031 14.863281 161.976562 14.8125 C 162.007812 14.75 162.03125 14.683594 162.0625 14.617188 C 162.132812 14.453125 162.199219 14.289062 162.269531 14.125 C 162.394531 13.824219 162.519531 13.523438 162.644531 13.226562 C 162.917969 12.578125 163.191406 11.929688 163.460938 11.28125 C 163.75 10.597656 164.035156 9.914062 164.320312 9.234375 C 164.445312 8.933594 164.570312 8.636719 164.699219 8.339844 C 164.765625 8.175781 164.835938 8.011719 164.90625 7.847656 C 164.933594 7.78125 164.960938 7.714844 164.992188 7.648438 C 165.488281 6.460938 165.988281 5.273438 166.484375 4.089844 C 166.5 4.058594 166.511719 4.027344 166.527344 3.988281 C 166.554688 3.925781 166.582031 3.859375 166.609375 3.792969 C 166.679688 3.628906 166.75 3.464844 166.820312 3.300781 C 166.949219 2.996094 167.074219 2.691406 167.203125 2.382812 C 167.261719 2.242188 167.324219 2.097656 167.382812 1.957031 C 167.410156 1.890625 167.441406 1.820312 167.46875 1.753906 C 167.507812 1.664062 167.546875 1.566406 167.585938 1.472656 C 167.597656 1.445312 167.613281 1.414062 167.625 1.386719 C 167.683594 1.238281 167.746094 1.09375 167.804688 0.949219 C 167.816406 0.917969 167.828125 0.890625 167.839844 0.863281 C 167.859375 0.808594 167.882812 0.757812 167.902344 0.703125 C 167.988281 0.492188 167.988281 0.492188 168.085938 0.488281 Z M 170.25 6.046875 C 170.144531 6.257812 170.050781 6.472656 169.964844 6.695312 C 169.953125 6.734375 169.9375 6.765625 169.925781 6.800781 C 169.894531 6.878906 169.867188 6.957031 169.835938 7.035156 C 169.757812 7.234375 169.679688 7.441406 169.597656 7.644531 C 169.574219 7.707031 169.574219 7.707031 169.550781 7.769531 C 169.417969 8.105469 169.285156 8.4375 169.152344 8.773438 C 168.890625 9.425781 168.628906 10.082031 168.375 10.738281 C 168.339844 10.820312 168.308594 10.902344 168.273438 10.988281 C 168.128906 11.355469 167.980469 11.71875 167.835938 12.089844 C 167.828125 12.117188 167.816406 12.144531 167.804688 12.171875 C 167.742188 12.339844 167.675781 12.503906 167.609375 12.667969 C 167.589844 12.71875 167.570312 12.773438 167.550781 12.824219 C 167.519531 12.894531 167.496094 12.964844 167.464844 13.035156 C 167.449219 13.074219 167.429688 13.117188 167.414062 13.160156 C 167.382812 13.238281 167.382812 13.238281 167.382812 13.285156 C 169.277344 13.285156 171.171875 13.285156 173.125 13.285156 C 173.042969 13.046875 173.042969 13.046875 172.960938 12.808594 C 172.945312 12.78125 172.9375 12.753906 172.925781 12.726562 C 172.910156 12.683594 172.910156 12.683594 172.894531 12.640625 C 172.878906 12.609375 172.867188 12.578125 172.855469 12.542969 C 172.8125 12.445312 172.773438 12.34375 172.734375 12.238281 C 172.722656 12.203125 172.707031 12.167969 172.691406 12.128906 C 172.472656 11.5625 172.246094 10.996094 172.019531 10.429688 C 171.769531 9.804688 171.523438 9.175781 171.273438 8.542969 C 171.238281 8.460938 171.207031 8.378906 171.171875 8.300781 C 170.878906 7.546875 170.582031 6.796875 170.289062 6.046875 C 170.277344 6.046875 170.265625 6.046875 170.25 6.046875 Z M 170.25 6.046875 "/>
<path style=" stroke:none;fill-rule:nonzero;fill:rgb(94.901961%,40.000001%,13.333334%);fill-opacity:1;" d="M 12.8125 -0.0078125 C 12.84375 -0.0078125 12.875 -0.0078125 12.902344 -0.0078125 C 15.191406 0 17.472656 0.65625 19.289062 2.074219 C 19.324219 2.09375 19.351562 2.121094 19.386719 2.144531 C 19.757812 2.4375 20.121094 2.746094 20.445312 3.09375 C 20.289062 3.28125 20.121094 3.460938 19.949219 3.636719 C 19.921875 3.664062 19.894531 3.691406 19.863281 3.722656 C 19.773438 3.8125 19.679688 3.910156 19.585938 4.003906 C 19.554688 4.03125 19.523438 4.066406 19.492188 4.097656 C 19.355469 4.234375 19.226562 4.367188 19.089844 4.5 C 18.902344 4.695312 18.710938 4.886719 18.519531 5.078125 C 18.371094 5.230469 18.21875 5.382812 18.070312 5.53125 C 18.007812 5.597656 17.945312 5.660156 17.878906 5.726562 C 17.789062 5.816406 17.699219 5.90625 17.609375 5.996094 C 17.585938 6.023438 17.558594 6.046875 17.53125 6.078125 C 17.507812 6.101562 17.480469 6.125 17.460938 6.152344 C 17.425781 6.183594 17.425781 6.183594 17.394531 6.214844 C 17.332031 6.257812 17.332031 6.257812 17.257812 6.25 C 17.164062 6.207031 17.105469 6.144531 17.027344 6.070312 C 16.011719 5.101562 14.59375 4.554688 13.203125 4.5 C 13.160156 4.496094 13.117188 4.496094 13.074219 4.492188 C 12.089844 4.464844 11.113281 4.671875 10.230469 5.097656 C 10.1875 5.113281 10.1875 5.113281 10.148438 5.132812 C 9.617188 5.390625 9.148438 5.738281 8.722656 6.152344 C 8.691406 6.179688 8.65625 6.210938 8.621094 6.242188 C 7.515625 7.300781 6.832031 8.949219 6.792969 10.476562 C 6.789062 10.53125 6.789062 10.582031 6.789062 10.628906 C 6.789062 10.65625 6.789062 10.683594 6.789062 10.710938 C 6.789062 10.796875 6.789062 10.886719 6.789062 10.972656 C 6.789062 11.003906 6.789062 11.03125 6.789062 11.0625 C 6.789062 11.519531 6.808594 11.957031 6.902344 12.40625 C 6.90625 12.433594 6.914062 12.464844 6.917969 12.492188 C 7.160156 13.6875 7.710938 14.792969 8.546875 15.671875 C 8.578125 15.707031 8.609375 15.738281 8.640625 15.777344 C 9.058594 16.21875 9.546875 16.554688 10.085938 16.832031 C 10.109375 16.84375 10.128906 16.855469 10.152344 16.867188 C 11.578125 17.597656 13.316406 17.699219 14.839844 17.222656 C 15.925781 16.855469 16.789062 16.210938 17.578125 15.394531 C 17.6875 15.441406 17.761719 15.5 17.847656 15.585938 C 17.886719 15.625 17.886719 15.625 17.925781 15.664062 C 17.953125 15.691406 17.980469 15.71875 18.007812 15.75 C 18.039062 15.78125 18.070312 15.808594 18.097656 15.839844 C 18.175781 15.917969 18.261719 16 18.339844 16.082031 C 18.425781 16.167969 18.507812 16.25 18.59375 16.335938 C 18.75 16.492188 18.910156 16.65625 19.066406 16.8125 C 19.25 16.996094 19.429688 17.175781 19.609375 17.363281 C 19.984375 17.734375 20.355469 18.109375 20.726562 18.488281 C 20.675781 18.628906 20.617188 18.714844 20.507812 18.820312 C 20.480469 18.851562 20.453125 18.878906 20.421875 18.910156 C 20.390625 18.941406 20.359375 18.972656 20.328125 19.003906 C 20.296875 19.035156 20.261719 19.066406 20.230469 19.101562 C 20.019531 19.304688 19.808594 19.5 19.570312 19.679688 C 19.535156 19.710938 19.496094 19.742188 19.457031 19.773438 C 17.976562 20.976562 16.167969 21.679688 14.285156 21.929688 C 14.257812 21.933594 14.222656 21.9375 14.195312 21.945312 C 12.523438 22.152344 10.773438 21.96875 9.175781 21.4375 C 9.144531 21.429688 9.113281 21.414062 9.078125 21.40625 C 7.179688 20.765625 5.335938 19.5625 4.101562 17.957031 C 4.066406 17.910156 4.027344 17.863281 3.988281 17.820312 C 2.195312 15.570312 1.4375 12.617188 1.726562 9.765625 C 2.03125 7.050781 3.332031 4.40625 5.449219 2.648438 C 5.511719 2.59375 5.578125 2.546875 5.644531 2.496094 C 5.6875 2.460938 5.730469 2.421875 5.777344 2.386719 C 7.496094 1.042969 9.535156 0.25 11.699219 0.0351562 C 11.746094 0.03125 11.746094 0.03125 11.796875 0.0273438 C 12.136719 -0.0078125 12.472656 -0.0078125 12.8125 -0.0078125 Z M 12.8125 -0.0078125 "/>
<path style=" stroke:none;fill-rule:nonzero;fill:rgb(94.901961%,40.000001%,13.333334%);fill-opacity:1;" d="M 25.382812 0.492188 C 26.988281 0.492188 28.59375 0.492188 30.246094 0.492188 C 30.246094 6.011719 30.246094 11.53125 30.246094 17.21875 C 33.492188 17.21875 36.742188 17.21875 40.082031 17.21875 C 40.082031 18.636719 40.082031 20.050781 40.082031 21.507812 C 35.230469 21.507812 30.378906 21.507812 25.382812 21.507812 C 25.382812 14.574219 25.382812 7.636719 25.382812 0.492188 Z M 25.382812 0.492188 "/>
<path style=" stroke:none;fill-rule:nonzero;fill:rgb(94.901961%,40.000001%,13.333334%);fill-opacity:1;" d="M 115.40625 0.492188 C 121.433594 0.492188 127.464844 0.492188 133.675781 0.492188 C 133.675781 1.929688 133.675781 3.367188 133.675781 4.847656 C 128.628906 4.847656 123.582031 4.847656 118.378906 4.847656 C 118.253906 4.585938 118.128906 4.316406 117.996094 4.042969 C 117.535156 3.15625 116.992188 2.347656 116.351562 1.578125 C 116.335938 1.5625 116.320312 1.542969 116.304688 1.527344 C 116.074219 1.246094 115.832031 0.980469 115.570312 0.730469 C 115.550781 0.710938 115.527344 0.6875 115.503906 0.667969 C 115.484375 0.648438 115.46875 0.632812 115.449219 0.613281 C 115.40625 0.5625 115.40625 0.5625 115.40625 0.492188 Z M 115.40625 0.492188 "/>
<path style=" stroke:none;fill-rule:nonzero;fill:rgb(94.901961%,40.000001%,13.333334%);fill-opacity:1;" d="M 118.652344 17.144531 C 118.679688 17.144531 118.703125 17.144531 118.730469 17.144531 C 118.757812 17.144531 118.78125 17.144531 118.808594 17.144531 C 118.894531 17.144531 118.984375 17.144531 119.074219 17.144531 C 119.136719 17.144531 119.199219 17.144531 119.261719 17.144531 C 119.433594 17.144531 119.609375 17.144531 119.785156 17.144531 C 119.972656 17.148438 120.160156 17.144531 120.347656 17.144531 C 120.671875 17.144531 120.996094 17.148438 121.324219 17.148438 C 121.792969 17.148438 122.265625 17.148438 122.730469 17.148438 C 123.496094 17.148438 124.261719 17.148438 125.023438 17.148438 C 125.765625 17.148438 126.507812 17.148438 127.25 17.148438 C 127.292969 17.148438 127.339844 17.148438 127.386719 17.148438 C 127.617188 17.148438 127.84375 17.148438 128.074219 17.148438 C 129.976562 17.148438 131.878906 17.148438 133.78125 17.152344 C 133.78125 18.589844 133.78125 20.027344 133.78125 21.507812 C 127.785156 21.507812 121.792969 21.507812 115.617188 21.507812 C 115.742188 21.363281 115.863281 21.21875 115.996094 21.078125 C 116.167969 20.886719 116.332031 20.691406 116.488281 20.488281 C 116.507812 20.464844 116.523438 20.445312 116.542969 20.425781 C 117.292969 19.46875 117.9375 18.410156 118.410156 17.285156 C 118.472656 17.132812 118.5 17.144531 118.652344 17.144531 Z M 118.652344 17.144531 "/>
<path style=" stroke:none;fill-rule:nonzero;fill:rgb(94.901961%,40.000001%,13.333334%);fill-opacity:1;" d="M 119.464844 8.753906 C 123.335938 8.753906 127.207031 8.753906 131.191406 8.753906 C 131.191406 10.191406 131.191406 11.628906 131.191406 13.109375 C 127.34375 13.109375 123.5 13.109375 119.535156 13.109375 C 119.535156 12.902344 119.535156 12.714844 119.558594 12.515625 C 119.679688 11.425781 119.644531 10.300781 119.515625 9.21875 C 119.496094 9.0625 119.480469 8.90625 119.464844 8.753906 Z M 119.464844 8.753906 "/>
</g>
</svg>
