<svg width="174" height="40" viewBox="0 0 174 40" fill="none" xmlns="http://www.w3.org/2000/svg">
<path d="M52.0378 16.6241V13.3243C52.0378 12.5619 51.7311 11.8307 51.1853 11.2916C50.6395 10.7524 49.8992 10.4496 49.1274 10.4496C48.3555 10.4496 47.6152 10.7524 47.0694 11.2916C46.5236 11.8307 46.217 12.5619 46.217 13.3243V17.5136C44.5391 17.8946 42.6008 18.2755 40.6606 18.6575V3.7949C40.6523 3.41976 40.5693 3.04991 40.4163 2.70646C40.2633 2.363 40.0434 2.05268 39.769 1.79321C39.4945 1.53374 39.1711 1.3302 38.817 1.19422C38.463 1.05823 38.0852 0.992472 37.7055 1.00068H37.6905C36.9406 1.00527 36.2225 1.30056 35.6908 1.82299C35.1591 2.34542 34.8563 3.05319 34.8477 3.79392V20.0575C34.6667 20.0523 34.4876 20.0961 34.3299 20.1842C32.5228 20.5661 30.843 20.947 29.1611 21.328V8.75203C29.1415 8.01991 28.8333 7.32428 28.3021 6.8133C27.771 6.30232 27.0588 6.01638 26.3173 6.01638C25.5759 6.01638 24.8637 6.30232 24.3325 6.8133C23.8014 7.32428 23.4931 8.01991 23.4735 8.75203V22.5896C21.406 22.9725 19.597 23.3534 17.7889 23.6067V17.1268C17.796 16.7535 17.7276 16.3825 17.5879 16.0355C17.4481 15.6885 17.2397 15.3725 16.9749 15.106C16.7101 14.8395 16.3942 14.6278 16.0456 14.4833C15.697 14.3388 15.3227 14.2644 14.9446 14.2644C14.5666 14.2644 14.1923 14.3388 13.8437 14.4833C13.4951 14.6278 13.1792 14.8395 12.9143 15.106C12.6495 15.3725 12.4412 15.6885 12.3014 16.0355C12.1616 16.3825 12.0933 16.7535 12.1003 17.1268V24.3657C5.63942 25.1275 1.89408 24.8742 1.50344 23.7265C0.59096 21.8248 6.53898 19.1533 8.21882 18.2696V18.144H8.0896C6.40976 18.7772 -0.82746 21.6981 0.0780625 24.239C0.981597 27.0342 12.0954 27.7961 35.2294 22.2077C54.6122 17.5068 63.5332 16.6182 64.4387 18.3973C65.0858 19.9191 60.3018 22.8429 55.6509 24.8772C55.6022 24.9269 55.5653 24.9867 55.543 25.0523C55.5206 25.1178 55.5134 25.1875 55.5217 25.2562C55.6509 25.3838 55.7781 25.5104 55.9103 25.3838C57.5882 24.7456 66.378 21.0639 65.9874 18.0203C65.6027 15.9889 60.9489 15.3527 52.0318 16.6232L52.0378 16.6241ZM12.1302 29.9934V32.1229C12.144 32.8509 12.4465 33.5444 12.9726 34.0544C13.4988 34.5644 14.2065 34.8501 14.9436 34.8501C15.6808 34.8501 16.3885 34.5644 16.9146 34.0544C17.4408 33.5444 17.7433 32.8509 17.7571 32.1229V29.364C15.8946 29.6759 14.0161 29.8857 12.1302 29.9924V29.9934ZM23.4904 28.4215V36.165C23.4831 36.53 23.5487 36.8929 23.6833 37.2328C23.818 37.5728 24.0191 37.8833 24.2753 38.1465C24.5314 38.4097 24.8375 38.6205 25.1761 38.7668C25.5147 38.9132 25.8792 38.9922 26.2488 38.9995C26.6183 39.0067 26.9857 38.9419 27.3299 38.8089C27.6741 38.6759 27.9884 38.4772 28.2548 38.2242C28.5213 37.9712 28.7347 37.6689 28.8829 37.3344C29.0311 37 29.1111 36.64 29.1184 36.275C29.1184 36.239 29.1184 36.2026 29.1184 36.166V27.2797C27.2674 27.7707 25.3884 28.1523 23.4914 28.4225" fill="#010101"/>
<path d="M35.2392 26.043H34.8516V31.4851C34.8827 32.2292 35.2038 32.9326 35.7478 33.4482C36.2917 33.9638 37.0165 34.2517 37.7704 34.2517C38.5243 34.2517 39.2491 33.9638 39.7931 33.4482C40.337 32.9326 40.6582 32.2292 40.6893 31.4851V24.7774C38.9995 25.1584 37.1874 25.5364 35.2392 26.0449V26.043ZM46.2158 23.5158V26.799C46.2261 27.1738 46.3111 27.5429 46.4658 27.8853C46.6205 28.2277 46.842 28.5366 47.1176 28.7944C47.3933 29.0523 47.7176 29.2539 48.0721 29.388C48.4266 29.522 48.8044 29.5857 49.1839 29.5755H49.1978C49.9461 29.5736 50.6638 29.2817 51.1967 28.7628C51.7295 28.2438 52.035 27.539 52.0475 26.8V22.3818C50.3617 22.7588 48.4152 23.1372 46.2079 23.5168" fill="#010101"/>
<path d="M87.1208 16.802C86.8446 16.4524 86.4925 16.1751 86.093 15.9927C85.6464 15.7959 85.1644 15.6997 84.6791 15.7106C84.1766 15.7047 83.6788 15.8099 83.2188 16.0191C82.7589 16.2283 82.3475 16.5366 82.0122 16.9234C81.6691 17.3223 81.4033 17.7856 81.2291 18.288C80.8536 19.3998 80.8536 20.6103 81.2291 21.722C81.4043 22.2173 81.6669 22.6746 82.0035 23.0709C82.3237 23.451 82.7176 23.7574 83.1597 23.9701C83.6073 24.1848 84.0954 24.2942 84.5888 24.2905C85.1271 24.3011 85.6593 24.1717 86.1365 23.9139C86.585 23.6628 86.9665 23.301 87.247 22.8607L89.6136 24.685C89.0916 25.4557 88.3728 26.0616 87.5373 26.4352C86.7226 26.8058 85.8422 26.9972 84.9521 26.9972C84.0037 27.0081 83.061 26.8432 82.1689 26.5105C81.3498 26.2037 80.6002 25.7266 79.9664 25.1088C79.3379 24.486 78.8444 23.7324 78.5188 22.8978C77.8271 21.032 77.8271 18.9679 78.5188 17.1021C78.8445 16.2679 79.3379 15.5146 79.9664 14.8923C80.6001 14.2741 81.3497 13.7966 82.1689 13.4894C83.0616 13.1557 84.005 12.99 84.9543 13.0005C85.3359 13.0022 85.7168 13.0368 86.093 13.1039C86.4907 13.1743 86.8808 13.2846 87.2578 13.4332C87.6471 13.5877 88.017 13.79 88.3596 14.0357C88.7173 14.293 89.0362 14.6036 89.3058 14.9574L87.1208 16.802Z" fill="#010101"/>
<path d="M92.743 20.0005C92.7286 19.0089 92.9038 18.0241 93.2586 17.1027C93.5842 16.2684 94.0777 15.5151 94.7062 14.8928C95.3399 14.2746 96.0895 13.7972 96.9086 13.49C98.712 12.838 100.676 12.838 102.479 13.49C103.299 13.7969 104.049 14.2743 104.683 14.8928C105.311 15.5151 105.805 16.2684 106.131 17.1027C106.822 18.9684 106.822 21.0326 106.131 22.8983C105.805 23.7329 105.312 24.4865 104.683 25.1093C104.049 25.7274 103.299 26.2045 102.479 26.511C100.676 27.163 98.712 27.163 96.9086 26.511C96.0895 26.2042 95.34 25.7272 94.7062 25.1093C94.0776 24.4865 93.5842 23.7329 93.2586 22.8983C92.9036 21.9769 92.7284 20.9921 92.743 20.0005ZM95.6927 20.0005C95.6868 20.5875 95.7833 21.1709 95.9776 21.7225C96.1562 22.2244 96.4319 22.6834 96.7879 23.0714C97.1437 23.4597 97.5747 23.7662 98.0528 23.9706C99.1124 24.3978 100.289 24.3978 101.348 23.9706C101.825 23.7679 102.256 23.4638 102.612 23.0781C102.967 22.6895 103.243 22.2307 103.422 21.7293C103.798 20.6175 103.798 19.407 103.422 18.2953C103.246 17.7857 102.97 17.319 102.612 16.9239C102.255 16.5363 101.824 16.23 101.346 16.0247C100.286 15.5991 99.1105 15.5991 98.0506 16.0247C97.5729 16.23 97.1421 16.5363 96.7857 16.9239C96.4286 17.3167 96.1535 17.7812 95.9776 18.2885C95.7849 18.8372 95.6884 19.4169 95.6927 20.0005Z" fill="#010101"/>
<path d="M122.53 25.7203C121.703 26.168 120.821 26.4974 119.909 26.6993C118.993 26.9 118.059 27.0006 117.123 26.9995C116.174 27.0099 115.231 26.8443 114.338 26.5105C113.518 26.204 112.768 25.7269 112.134 25.1088C111.506 24.486 111.012 23.7324 110.687 22.8978C109.995 21.032 109.995 18.9679 110.687 17.1021C111.012 16.2679 111.506 15.5146 112.134 14.8923C112.768 14.2738 113.518 13.7963 114.338 13.4894C115.231 13.1557 116.174 12.99 117.123 13.0005C118.086 12.9914 119.044 13.1211 119.972 13.386C120.824 13.6349 121.607 14.0899 122.256 14.7135L120.253 16.9706C119.882 16.5693 119.436 16.2493 118.943 16.0298C118.457 15.817 117.85 15.7106 117.122 15.7106C116.558 15.7024 115.998 15.8109 115.474 16.0298C114.996 16.2351 114.565 16.5414 114.208 16.929C113.851 17.3218 113.575 17.7863 113.398 18.2936C113.023 19.4054 113.023 20.6159 113.398 21.7276C113.577 22.2293 113.853 22.6882 114.208 23.0765C114.565 23.4649 114.996 23.7713 115.474 23.9757C115.997 24.1955 116.558 24.3045 117.122 24.2961C117.664 24.3072 118.204 24.234 118.724 24.0792C119.095 23.968 119.455 23.8201 119.798 23.6374V21.468H117.487V18.7579H122.53V25.7203Z" fill="#010101"/>
<path d="M127.305 13.3408H131.165L136.644 22.5974H136.681V13.3408H139.521V26.662H135.803L130.178 17.1783H130.141V26.662H127.305V13.3408Z" fill="#010101"/>
<path d="M144.375 13.3408H147.214V26.662H144.375V13.3408Z" fill="#010101"/>
<path d="M154.572 15.9374H150.895V13.3408H161.09V15.9374H157.413V26.662H154.572V15.9374Z" fill="#010101"/>
<path d="M164.914 13.3408H173.672V16.0498H167.754V18.534H173.343V21.2429H167.754V23.953H173.999V26.662H164.914V13.3408Z" fill="#010101"/>
</svg>
