<svg width="221" height="51" viewBox="0 0 221 51" fill="none" xmlns="http://www.w3.org/2000/svg">
<path fill-rule="evenodd" clip-rule="evenodd" d="M26.9497 31.1486H20.1152C19.6984 31.1486 19.2816 30.8895 19.0302 30.4598L15.8644 24.6113C15.699 24.1816 15.699 23.7519 15.8644 23.4074L19.0302 17.5589C19.2816 17.1292 19.6984 16.8701 20.1152 16.8701H24.032C24.4488 16.8701 24.8656 16.6109 25.1171 16.1812L27.9521 10.933C28.2035 10.5033 27.8694 9.98828 27.4526 9.98828H16.9494C16.0331 9.98828 15.2822 10.5033 14.7826 11.2774L8.53037 22.8039C8.3251 23.1878 8.21777 23.6158 8.21777 24.0503C8.21777 24.4849 8.3251 24.9129 8.53037 25.2968L14.7826 36.738C14.9934 37.1264 15.3059 37.4511 15.6873 37.678C16.0686 37.9049 16.5047 38.0255 16.9494 38.0271H30.3703C30.8698 38.0271 31.1212 37.5121 30.8698 37.0824L27.9521 31.7489C27.8694 31.3192 27.4526 31.1453 26.953 31.1453L26.9497 31.1486Z" fill="#2741E7"/>
<path d="M45.4547 15.0627L42.7884 10.418C42.537 9.98828 41.9547 9.98828 41.7033 10.418L30.4492 31.0601C30.2838 31.4898 30.2838 31.9195 30.4492 32.2639L33.367 37.6827C33.6184 38.1124 34.2006 38.1124 34.452 37.6827L45.4547 17.5556C45.6599 17.1717 45.7673 16.7437 45.7673 16.3092C45.7673 15.8746 45.6599 15.4466 45.4547 15.0627Z" fill="#1E242E"/>
<path fill-rule="evenodd" clip-rule="evenodd" d="M31.8687 24.5258L35.2032 18.4181C35.3686 18.0737 35.3686 17.5587 35.2032 17.129L31.3691 10.3325C31.1177 9.90283 30.5355 9.90283 30.2841 10.3325L27.0323 16.2663C26.8669 16.6108 26.8669 17.1258 27.0323 17.4702L30.7836 24.4372C31.035 24.9522 31.6999 24.9522 31.8687 24.5225V24.5258Z" fill="#1E242E"/>
<path d="M55.2896 15.0627L52.6233 10.418C52.3719 9.98828 51.7897 9.98828 51.5383 10.418L40.2842 31.0601C40.1188 31.4898 40.1188 31.9195 40.2842 32.2639L43.2846 37.6827C43.536 38.1124 44.1183 38.1124 44.3697 37.6827L55.3723 17.5556C55.7891 16.7815 55.7891 15.8368 55.2896 15.0627ZM149.338 13.895H150.923C151.34 13.895 151.591 14.2394 151.505 14.6691L147.171 34.8814C147.089 35.3111 146.755 35.5703 146.338 35.5703H144.254C143.837 35.5703 143.503 35.3111 143.42 34.8814L139.669 20.0026C139.586 19.5729 138.918 19.5729 138.835 20.0026L135.001 34.8814C134.918 35.3111 134.584 35.5703 134.167 35.5703H132.083C131.666 35.5703 131.332 35.3111 131.25 34.8814L126.916 14.6691C126.833 14.3247 127.081 13.895 127.498 13.895H129.248C129.665 13.895 129.999 14.2394 130.082 14.6691L132.917 29.2068C133 29.7217 133.668 29.7217 133.751 29.2068L137.585 14.5838C137.667 14.1541 138.001 13.895 138.418 13.895H140.003C140.42 13.895 140.754 14.1541 140.836 14.5838L144.67 29.2068C144.753 29.6365 145.421 29.6365 145.504 29.2068L148.339 14.6691C148.591 14.1541 148.921 13.895 149.338 13.895ZM69.9874 25.7626C69.9874 27.2255 70.0701 28.3441 70.2388 29.2888C70.4042 30.1482 70.6556 30.9223 71.0724 31.4406C71.4893 31.9555 72.0715 32.3 72.7397 32.4738C73.4906 32.6444 74.407 32.7329 75.492 32.7329C76.0743 32.7329 78.4925 32.7329 79.6602 32.6477C79.9943 32.6477 80.3284 32.9068 80.4938 33.2512L80.9934 34.7142C81.1588 35.1439 80.828 35.4883 80.4111 35.4883C78.9093 35.4883 75.7434 35.5736 75.4093 35.5736C73.7421 35.5736 72.3262 35.403 71.1585 35.0586C70.0734 34.7142 69.1571 34.1139 68.4922 33.3398C67.8272 32.5656 67.3244 31.5324 67.0763 30.3286C66.8249 29.1248 66.6595 27.5765 66.6595 25.7691V23.5321C66.6595 21.6394 66.8249 20.0912 67.159 18.8874C67.4931 17.6835 67.9926 16.6503 68.6609 15.8762C69.3291 15.1021 70.2454 14.5871 71.3272 14.2427C72.4122 13.8982 73.8281 13.7277 75.4126 13.7277C75.9122 13.7277 78.9126 13.7277 80.4145 13.8129C80.8313 13.8129 81.0827 14.2427 80.9967 14.6724L80.4972 16.1353C80.3317 16.4797 79.9976 16.7389 79.6635 16.7389C78.4131 16.7389 75.6641 16.6536 75.4126 16.6536C74.2449 16.6536 73.3286 16.7389 72.6603 16.9127C71.9094 17.0833 71.4099 17.4277 70.9931 17.8574C70.5762 18.3724 70.3248 19.0612 70.1594 19.9206C69.994 20.78 69.994 21.9838 69.994 23.4468V25.7691L69.9874 25.7626ZM89.9913 19.3138C91.2418 19.3138 92.3268 19.3991 93.2432 19.6582C94.1595 19.9173 94.9104 20.2618 95.41 20.862C95.9922 21.4656 96.409 22.2397 96.6604 23.1844C96.9118 24.1291 97.0772 25.3362 97.0772 26.7958V28.4294C97.0772 29.8923 96.9118 31.0961 96.6604 32.0408C96.409 32.9855 95.9922 33.7596 95.41 34.3632C94.8277 34.9667 94.0768 35.3079 93.2432 35.567C92.3268 35.8261 91.2418 35.9114 89.9913 35.9114C88.7409 35.9114 87.6558 35.8261 86.7395 35.567C85.8231 35.3079 85.0722 34.9634 84.5727 34.3632C83.9905 33.7596 83.5737 32.9855 83.3222 32.0408C83.0708 31.0961 82.9054 29.889 82.9054 28.4294V26.7958C82.9054 25.3329 83.0708 24.1291 83.3222 23.1844C83.5737 22.2397 83.9905 21.4656 84.5727 20.862C85.1549 20.2585 85.9058 19.9173 86.7395 19.6582C87.6558 19.3991 88.7409 19.3138 89.9913 19.3138ZM93.9908 26.7958C93.9908 25.7626 93.9081 24.9032 93.8254 24.2144C93.7427 23.6108 93.4913 23.0958 93.2432 22.7514C92.9917 22.407 92.5749 22.1478 92.0754 22.0626C91.5759 21.9773 90.9077 21.892 90.074 21.892C89.2404 21.892 88.5722 21.9773 88.0726 22.0626C87.5731 22.1478 87.1563 22.407 86.9049 22.7514C86.6535 23.0958 86.4054 23.6108 86.3227 24.2144C86.24 24.8179 86.1573 25.6773 86.1573 26.7958V28.4294C86.1573 29.4626 86.24 30.322 86.3227 31.0109C86.4054 31.6144 86.6568 32.1294 86.9049 32.4738C87.1563 32.8182 87.5698 33.0774 88.0726 33.1626C88.5755 33.2479 89.2404 33.3332 90.074 33.3332C90.9077 33.3332 91.5759 33.2479 92.0754 33.1626C92.5749 33.0774 92.9917 32.8182 93.2432 32.4738C93.4946 32.1294 93.7427 31.6144 93.8254 31.0109C93.9081 30.4073 93.9908 29.5479 93.9908 28.4294V26.7958ZM100.743 35.4817C100.408 35.4817 100.16 35.2226 100.16 34.8782V24.7293C100.16 23.7846 100.326 23.0105 100.577 22.407C100.829 21.8034 101.245 21.2884 101.745 20.8587C102.244 20.429 102.83 20.1699 103.578 19.9993C104.243 19.8288 105.079 19.7402 105.91 19.7402H108.993C109.41 19.7402 109.661 20.1699 109.575 20.5996L109.076 21.8034C108.91 22.1478 108.576 22.407 108.242 22.407H106.241C105.572 22.407 104.99 22.4923 104.656 22.5775C104.239 22.6628 103.988 22.922 103.74 23.1811C103.574 23.4402 103.406 23.7846 103.406 24.1258C103.323 24.4702 103.323 24.8999 103.323 25.4149V34.8749C103.323 35.2193 103.071 35.4784 102.741 35.4784H100.739L100.743 35.4817ZM114.246 28.8591C113.912 28.8591 113.664 29.1182 113.664 29.4626C113.664 30.0662 113.747 30.4959 113.747 30.9256C113.829 31.4406 113.998 31.8703 114.246 32.1294C114.498 32.4738 114.914 32.6444 115.331 32.7329C115.831 32.8182 116.416 32.9035 117.25 32.9035C117.667 32.9035 120.919 32.9035 122.334 32.8182C122.668 32.8182 123.085 33.0774 123.168 33.4218L123.585 34.6256C123.75 35.0553 123.419 35.3997 123.003 35.485C121.335 35.485 117.584 35.5703 117.25 35.5703C115.834 35.5703 114.749 35.3997 113.833 35.0553C112.916 34.7109 112.248 34.2812 111.749 33.5923C111.249 32.9888 110.915 32.2147 110.749 31.3553C110.584 30.4959 110.498 29.4626 110.498 28.4294V26.7106C110.498 25.592 110.581 24.5588 110.749 23.6141C110.915 22.6694 111.249 21.8953 111.749 21.2917C112.248 20.6882 112.916 20.1732 113.833 19.8288C114.749 19.4844 115.917 19.3138 117.333 19.3138C118.666 19.3138 119.751 19.4844 120.584 19.7435C121.418 20.0879 122.086 20.5176 122.586 21.0326C123.085 21.5476 123.419 22.1511 123.585 22.9252C123.75 23.6141 123.836 24.3882 123.836 25.077V25.592C123.836 26.2809 123.754 26.8811 123.754 27.3108C123.671 27.7405 123.588 28.0849 123.337 28.2555C123.171 28.5146 122.92 28.6852 122.668 28.6852C122.417 28.7705 122.086 28.7705 121.669 28.7705L114.249 28.8558L114.246 28.8591ZM117.333 21.8067C116.582 21.8067 115.917 21.892 115.414 21.9773C114.914 22.0626 114.58 22.3217 114.332 22.6661C114.084 23.0105 113.915 23.4402 113.833 24.0438C113.75 24.4735 113.75 25.077 113.75 25.6773C113.75 26.0217 114.001 26.2809 114.332 26.2809H120.498C120.832 26.2809 121.081 26.0217 121.081 25.6773V25.2476C121.081 24.5588 120.998 24.0438 120.915 23.5288C120.832 23.0991 120.581 22.7547 120.333 22.4955C120.082 22.2364 119.668 22.0658 119.165 21.9806C118.666 21.8953 118.08 21.81 117.333 21.81V21.8067ZM156.424 28.8591C156.09 28.8591 155.842 29.1182 155.842 29.4626C155.842 30.0662 155.925 30.4959 156.007 30.9256C156.09 31.4406 156.259 31.8703 156.507 32.1294C156.758 32.4738 157.175 32.6444 157.592 32.7329C158.091 32.8182 158.674 32.9035 159.507 32.9035C159.924 32.9035 163.176 32.9035 164.592 32.8182C164.926 32.8182 165.26 33.0774 165.425 33.4218L165.842 34.6256C166.008 35.0553 165.677 35.3997 165.26 35.485C163.593 35.485 159.841 35.5703 159.507 35.5703C158.091 35.5703 157.006 35.3997 156.09 35.0553C155.256 34.7109 154.505 34.2812 154.006 33.5923C153.506 32.9888 153.172 32.2147 153.007 31.3553C152.841 30.4959 152.755 29.4626 152.755 28.4294V26.7106C152.755 25.592 152.838 24.5588 153.007 23.6141C153.172 22.6694 153.506 21.8953 154.006 21.2917C154.505 20.6882 155.174 20.1732 156.09 19.8288C157.006 19.4844 158.174 19.3138 159.59 19.3138C160.923 19.3138 162.008 19.4844 162.842 19.7435C163.675 20.0879 164.344 20.5176 164.843 21.0326C165.343 21.5476 165.677 22.1511 165.842 22.9252C166.008 23.6994 166.094 24.3882 166.094 25.077V25.592C166.094 26.2809 166.094 26.8811 166.011 27.3108C165.928 27.7405 165.845 28.0849 165.594 28.2555C165.429 28.5146 165.177 28.6852 164.926 28.6852C164.674 28.7705 164.344 28.7705 164.009 28.7705L156.424 28.8558V28.8591ZM159.424 21.8067C158.674 21.8067 158.009 21.892 157.506 21.9773C157.006 22.0626 156.672 22.3217 156.421 22.6661C156.169 23.0105 156.004 23.4402 155.921 24.0438C155.839 24.4735 155.839 25.077 155.756 25.6773C155.756 26.0217 156.007 26.2809 156.338 26.2809H162.508C162.842 26.2809 163.09 26.0217 163.09 25.6773V25.2476C163.09 24.5588 163.007 24.0438 162.924 23.5288C162.842 23.0991 162.59 22.7547 162.342 22.4955C162.091 22.2364 161.674 22.0658 161.174 21.9806C160.758 21.8953 160.175 21.81 159.424 21.81V21.8067ZM202.936 28.8591C202.601 28.8591 202.353 29.1182 202.353 29.4626C202.353 30.0662 202.436 30.4959 202.436 30.9256C202.519 31.4406 202.687 31.8703 202.936 32.1294C203.187 32.4738 203.604 32.6444 204.021 32.7329C204.52 32.8182 205.102 32.9035 205.936 32.9035C206.353 32.9035 209.605 32.9035 211.021 32.8182C211.355 32.8182 211.771 33.0774 211.854 33.4218L212.271 34.6256C212.436 35.0553 212.106 35.3997 211.689 35.485C210.021 35.485 206.27 35.5703 205.936 35.5703C204.52 35.5703 203.435 35.3997 202.519 35.0553C201.602 34.7109 200.934 34.2812 200.435 33.5923C199.935 32.9888 199.601 32.2147 199.436 31.3553C199.27 30.4959 199.184 29.4626 199.184 28.4294V26.7106C199.184 25.592 199.267 24.5588 199.436 23.6141C199.601 22.6694 199.935 21.8953 200.435 21.2917C200.934 20.6882 201.602 20.1732 202.519 19.8288C203.435 19.4844 204.603 19.3138 206.019 19.3138C207.352 19.3138 208.437 19.4844 209.271 19.7435C210.104 20.0879 210.772 20.5176 211.272 21.0326C211.771 21.5476 212.106 22.1511 212.271 22.9252C212.436 23.6141 212.522 24.3882 212.522 25.077V25.592C212.522 26.2809 212.44 26.8811 212.44 27.3108C212.357 27.7405 212.274 28.0849 212.023 28.2555C211.857 28.5146 211.606 28.6852 211.355 28.6852C211.103 28.7705 210.772 28.7705 210.356 28.7705L202.939 28.8558L202.936 28.8591ZM206.019 21.8067C205.268 21.8067 204.603 21.892 204.1 21.9773C203.6 22.0626 203.266 22.3217 203.015 22.6661C202.764 23.0105 202.598 23.4402 202.515 24.0438C202.433 24.4735 202.433 25.077 202.433 25.6773C202.433 26.0217 202.684 26.2809 203.015 26.2809H209.185C209.519 26.2809 209.767 26.0217 209.767 25.6773V25.2476C209.767 24.5588 209.684 24.0438 209.601 23.5288C209.519 23.0991 209.267 22.7547 209.019 22.4955C208.768 22.2364 208.351 22.0658 207.851 21.9806C207.269 21.8953 206.684 21.81 206.019 21.81V21.8067ZM181.681 32.9035C181.681 33.8482 181.43 34.537 181.013 34.9667C180.596 35.3964 179.763 35.5703 178.681 35.5703H174.265C172.18 35.5703 170.765 35.1406 169.845 34.3665C168.929 33.5923 168.512 32.3885 168.512 30.8403V30.1514C168.512 28.4326 169.011 27.2255 170.014 26.54C171.013 25.8512 172.515 25.4215 174.599 25.4215C175.766 25.4215 176.683 25.5067 177.351 25.6806C177.685 25.7659 178.019 25.8512 178.185 26.025C178.436 26.1103 178.767 25.9397 178.767 25.5953V25.4247C178.767 24.9097 178.767 24.48 178.684 24.1356C178.601 23.7912 178.433 23.4468 178.185 23.1909C177.933 22.9318 177.516 22.7612 177.017 22.5874C176.517 22.5021 175.849 22.4168 174.933 22.4168C174.268 22.4168 171.35 22.4168 170.014 22.5021C169.68 22.5021 169.345 22.243 169.18 21.8986L168.763 20.6947C168.598 20.265 168.929 19.9206 169.263 19.9206C170.847 19.9206 174.265 19.8353 174.847 19.8353C177.265 19.8353 178.932 20.265 180.014 21.1244C181.099 21.9838 181.598 23.2762 181.598 24.9097L181.681 32.9101V32.9035ZM171.343 30.837C171.343 31.5258 171.509 32.0408 171.926 32.4705C172.343 32.8149 173.093 32.9855 174.175 32.9855H178.092C178.426 32.9855 178.674 32.7264 178.674 32.382V30.2302C178.674 29.8858 178.591 29.5413 178.591 29.1969C178.509 28.9378 178.34 28.6819 178.092 28.5081C177.841 28.3375 177.51 28.1637 177.093 28.1637C176.676 28.0784 176.008 28.0784 175.26 28.0784H174.592C173.924 28.0784 173.424 28.0784 173.007 28.1637C172.591 28.249 172.256 28.3342 172.008 28.5081C171.757 28.6787 171.592 28.9378 171.509 29.1969C171.426 29.4561 171.343 29.8005 171.343 30.2302V30.8337V30.837ZM186.514 20.429L190.014 30.837C190.18 31.2667 190.682 31.2667 190.848 30.837L194.517 20.429C194.599 20.0846 195.016 19.8255 195.35 19.8255H197.1C197.517 19.8255 197.768 20.2552 197.682 20.6849L192.346 34.9634C192.181 35.3079 191.847 35.567 191.513 35.567H189.429C189.095 35.567 188.76 35.3079 188.595 34.9634L183.259 20.6849C183.094 20.2552 183.425 19.8255 183.841 19.8255H185.757C186.091 19.8255 186.425 20.0846 186.508 20.429H186.514Z" fill="#1E242E"/>
</svg>
