<svg width="167" height="28" viewBox="0 0 167 28" fill="none" xmlns="http://www.w3.org/2000/svg">
<g clip-path="url(#clip0_643_8037)">
<path d="M30.31 23.6837H11.7348C7.13524 23.6837 4.89442 22.7503 4.89442 20.8837V12.192C4.89442 10.5587 6.89936 9.74199 10.9093 9.74199H30.31C31.6073 9.74199 32.197 9.04199 32.197 7.64199C32.197 6.24199 31.4894 5.54199 30.31 5.54199H10.5554C3.53814 5.60033 0 7.75866 0 12.3087V21.0003C0 23.8003 1.29732 25.7837 4.00989 26.8337C5.77895 27.5337 8.37359 27.8837 11.6169 27.8837H29.9562C31.4894 27.8837 32.315 27.3003 32.315 26.017C32.197 24.5003 31.6073 23.8003 30.31 23.6837Z" fill="#075DA7"/>
<path d="M54.4874 5.59961H46.1728C43.3423 5.59961 40.8656 6.06628 38.8017 7.11628C36.0891 8.39961 34.6738 10.2663 34.6738 12.8329V20.9996C34.6738 23.5663 36.0891 25.4329 38.8017 26.5996C40.9245 27.5329 43.4012 27.9996 46.1728 27.9996H54.4874C57.3179 27.9996 59.7946 27.5329 61.6226 26.7163C64.2173 25.5496 65.3966 23.5663 65.3966 21.1163V12.8913C65.3966 7.87461 61.7995 5.59961 54.4874 5.59961ZM60.6202 20.9413C60.6202 21.9913 59.7946 22.6913 58.1435 23.2746C56.9641 23.6246 55.7847 23.7413 54.3694 23.7413H46.2907C44.7575 23.7413 43.4602 23.6246 42.2808 23.2746C40.5118 22.8079 39.6862 21.9913 39.6862 20.9413V12.7746C39.6862 11.7246 40.5118 10.9079 42.1629 10.3246C43.3423 9.97461 44.7575 9.74128 46.2907 9.74128H54.4874C58.6152 9.74128 60.6202 10.5579 60.6202 12.4246V20.9413Z" fill="#075DA7"/>
<path d="M81.0231 5.4834C72.3547 5.4834 67.991 7.81673 67.991 12.3667L67.873 25.8417C67.873 27.1251 68.4627 27.7084 69.7601 27.7084C70.9394 27.7084 71.6471 27.7084 72.0009 27.5917C72.7085 27.3584 73.0623 26.7751 73.0623 25.8417V12.4251C73.0623 10.5584 75.0673 9.62507 78.9592 9.62507H80.1386C80.6103 9.62507 80.9641 9.62507 81.0821 9.62507C82.2615 9.62507 82.9691 9.04173 82.9691 7.7584C82.9101 6.30007 82.2025 5.4834 81.0231 5.4834Z" fill="#075DA7"/>
<path d="M104.671 5.59961H96.7099C89.1029 5.59961 85.2109 7.69961 85.2109 12.0163V26.1913C85.2109 27.1246 85.5648 27.7079 86.2724 27.9413C86.5083 28.0579 87.3338 28.0579 88.3953 28.0579C89.4567 28.0579 90.2823 27.2413 90.2823 26.1913V11.9579C90.2823 10.9079 91.1078 10.2079 92.8769 9.85794C93.4666 9.74128 94.7639 9.74128 96.7689 9.74128H104.73C106.617 9.74128 107.914 9.74128 108.504 9.85794C110.273 10.0913 111.098 10.9079 111.098 11.8413V26.0163C111.098 26.9496 111.452 27.5329 112.16 27.7663C112.396 27.8829 113.221 27.8829 114.401 27.8829C115.58 27.8829 116.288 27.2996 116.288 26.0163V11.8413C115.934 7.64128 112.16 5.59961 104.671 5.59961Z" fill="#075DA7"/>
<path d="M146.006 6.88294C144.119 6.06628 141.997 5.59961 139.52 5.59961H130.262C127.313 5.59961 124.719 6.06628 122.655 6.99961C119.824 8.28294 118.291 10.1496 118.291 12.7163V20.8246C118.291 20.8246 119.235 24.3246 121.122 25.8413C122.419 26.8913 124.424 27.4746 127.254 27.7079C128.316 27.8246 143.235 27.7079 146.537 27.7079C147.717 27.7079 148.306 27.2413 148.306 25.9579C148.306 24.4413 147.717 23.6246 146.419 23.6246L132.444 23.7413H131.146C125.839 23.7413 123.421 22.1079 123.539 18.8413H148.306C149.25 18.8413 149.604 18.1413 149.604 16.7413V11.4913C149.604 9.50794 148.483 7.87461 146.006 6.88294ZM144.709 14.8746H123.362V12.3079C123.362 10.5579 125.839 9.74128 130.851 9.74128C130.733 9.74128 131.087 9.74128 132.031 9.74128C132.974 9.74128 133.8 9.74128 134.625 9.74128C141.348 9.74128 144.709 10.5579 144.709 12.1913V14.8746Z" fill="#075DA7"/>
<path d="M122.007 3.96667H146.774C147.599 3.96667 148.425 3.26667 148.425 2.33333V1.63333C148.425 0.7 147.717 0 146.774 0H122.007C121.063 0 120.355 0.7 120.355 1.63333V2.33333C120.473 3.15 121.181 3.96667 122.007 3.96667Z" fill="#E10717"/>
<path d="M165.113 5.4834C156.445 5.4834 152.081 7.81673 152.081 12.3667L151.963 25.9584C151.963 27.2417 152.553 27.8251 153.85 27.8251C155.029 27.8251 155.737 27.8251 156.091 27.7084C156.798 27.4751 157.152 26.8917 157.152 25.9584V12.4251C157.152 10.5584 159.157 9.62507 163.049 9.62507H164.228C164.7 9.62507 165.054 9.62507 165.172 9.62507C166.351 9.62507 167.059 9.04173 167.059 7.7584C167 6.30007 166.292 5.4834 165.113 5.4834Z" fill="#075DA7"/>
</g>
<defs>
<clipPath id="clip0_643_8037">
<rect width="167" height="28" fill="white"/>
</clipPath>
</defs>
</svg>
