<svg width="213" height="16" viewBox="0 0 213 16" fill="none" xmlns="http://www.w3.org/2000/svg">
<path d="M132.945 0.287109V2.35292H136.998V15.7007H139.389V2.35292H143.481V0.287109H132.945Z" fill="black"/>
<path d="M166.625 0.280273V9.28319C166.625 11.5756 166.719 12.222 167.114 13.1216C167.951 14.9275 169.927 15.9937 172.466 15.9937C174.998 15.9937 176.974 14.9275 177.818 13.1216C178.213 12.242 178.307 11.5689 178.307 9.28319V0.280273H175.909V9.22988C175.909 10.8759 175.862 11.4023 175.654 11.9821C175.239 13.1816 174.073 13.9013 172.466 13.9013C171.006 13.9013 169.86 13.3015 169.398 12.2619C169.09 11.6155 169.03 11.0758 169.03 9.22988V0.280273H166.625Z" fill="black"/>
<path d="M195.786 4.81133C195.464 1.72595 193.542 0 190.494 0C188.887 0 187.373 0.573095 186.234 1.59933C184.674 3.03207 183.863 5.25115 183.863 8.03665C183.863 12.8746 186.489 16 190.582 16C193.837 16 195.739 14.0208 196.014 10.3757L193.837 10.2224C193.602 12.6747 192.464 13.9209 190.508 13.9209C187.949 13.9209 186.368 11.6485 186.368 8.02332C186.368 4.39817 187.949 2.09913 190.461 2.09913C192.202 2.09913 193.301 3.07205 193.669 4.97126H193.83L195.786 4.81133Z" fill="black"/>
<path d="M209.705 0.287109L204.648 6.46453H203.71V0.287109H201.312V15.7007H203.71V8.53034H204.474L209.866 15.7007H213.001L206.477 7.49744L212.512 0.287109H209.705Z" fill="black"/>
<path d="M153.194 2.33938C155.257 2.33938 155.773 2.41269 156.422 2.73255C157.186 3.09907 157.628 3.86541 157.628 4.83168C157.628 5.96454 157.072 6.82418 156.114 7.16404C155.485 7.39728 154.976 7.44392 153.301 7.44392H152.229V2.33938H153.194ZM149.852 15.7005H152.249V9.50306H154.647L158.151 15.7005H160.991L157.179 9.11656C159.135 8.33022 160.127 6.87749 160.127 4.865C160.127 3.08574 159.242 1.61302 157.782 0.913311C156.737 0.426847 155.766 0.286905 153.187 0.286905C152.095 0.286905 150.87 0.26025 149.865 0.520141V15.7005H149.852Z" fill="black"/>
<path d="M39.3985 0.287109H36.9805V15.694H39.3985V0.287109Z" fill="black"/>
<path d="M72.1055 0.287109V15.7007H81.0877L81.2283 13.6415H74.5637V0.287109H72.1055Z" fill="black"/>
<path d="M90.2261 6.69111V2.33959H97.0113L96.8639 0.287109H87.8281V15.7007H97.0515L97.1921 13.6415H90.2261V8.74358H94.4526V6.69111H90.2261Z" fill="black"/>
<path d="M25.7606 10.0297H21.3666L23.5502 3.09927L25.7606 10.0297ZM22.4115 0.287109L17.1133 15.694H19.5782L20.7437 12.0889H26.3969L27.5356 15.694H30.0206L24.7291 0.287109H22.4115Z" fill="black"/>
<path d="M48.5856 0.293945L47.668 15.6875H49.8784L50.6419 3.53926L55.2168 15.6875H56.4492L61.0441 3.53926L61.8077 15.6875H64.0181L63.1005 0.293945H59.9925L55.833 11.1894L51.7136 0.293945H48.5856Z" fill="black"/>
<path d="M107.358 2.33938C109.421 2.33938 109.937 2.41269 110.587 2.73255C111.35 3.09907 111.792 3.86541 111.792 4.83168C111.792 5.96454 111.236 6.82418 110.278 7.16404C109.649 7.39728 109.14 7.44392 107.465 7.44392H106.393V2.33938H107.358ZM104.016 15.7005H106.414V9.50306H108.811L112.315 15.7005H115.155L111.343 9.11656C113.299 8.33022 114.291 6.87749 114.291 4.865C114.291 3.08574 113.406 1.61302 111.946 0.913311C110.901 0.426847 109.93 0.286905 107.351 0.286905C106.26 0.286905 105.034 0.26025 104.029 0.520141V15.7005H104.016Z" fill="black"/>
<path d="M2.39793 13.6415V2.29294H3.07444C5.60634 2.29294 6.25606 2.38623 7.1871 2.96599C8.6004 3.84563 9.3439 5.68486 9.3439 7.97057C9.3439 10.2563 8.65399 12.0555 7.34785 12.9085C6.4637 13.4816 5.67332 13.6549 3.65048 13.6549H2.39793V13.6415ZM0 0.520345V15.7007H2.81322C6.04172 15.7007 7.10672 15.5274 8.41286 14.7944C10.5697 13.6016 11.8222 11.0293 11.8222 7.9839C11.8222 4.91185 10.4826 2.23963 8.27889 1.07345C7.08663 0.440379 5.7604 0.287109 3.13473 0.287109C2.24388 0.287109 0.830569 0.293773 0 0.520345Z" fill="black"/>
</svg>
