<?xml version="1.0" encoding="UTF-8"?> <svg xmlns="http://www.w3.org/2000/svg" width="200" height="10" viewBox="0 0 300 70" fill="none"> <g clip-path="url(#clip0_4404_378573)"> <path fill-rule="evenodd" clip-rule="evenodd" d="M98.5097 32.4194H93.5308C90.859 32.4194 88.7892 33.1657 87.4113 34.5321C85.0087 36.9147 85.0087 42.0874 87.4113 44.4671C88.7892 45.8363 90.859 46.5798 93.5308 46.5798H103.13V25.7568H98.4981L98.5097 32.4194ZM98.5097 42.4462H93.9071C91.7389 42.4462 90.3784 41.3296 90.2829 39.501C90.3784 37.6696 91.7303 36.5559 93.9071 36.5559H98.5097V42.4462Z" fill="#1AACCD"></path> <path fill-rule="evenodd" clip-rule="evenodd" d="M120.183 35.6928C121.686 34.8603 122.945 33.5514 122.945 31.2032C122.968 30.5365 122.852 29.8723 122.603 29.2526C122.354 28.6329 121.977 28.0714 121.498 27.6036C120.299 26.4123 118.409 25.7578 115.998 25.7578H106.266V46.5808H116.255C120.994 46.5808 124.114 44.6776 124.114 40.8684C124.114 38.0151 122.615 36.6171 120.183 35.6928ZM110.767 29.7737H115.323C117.271 29.7737 118.351 30.5488 118.351 31.9151C118.351 33.5227 117.063 34.1771 115.022 34.1771H110.767V29.7737ZM116.267 42.5649H110.767V37.972H116.105C118.476 37.972 119.523 38.8332 119.523 40.234C119.523 41.8501 118.293 42.5649 116.255 42.5649H116.267Z" fill="#1AACCD"></path> <path fill-rule="evenodd" clip-rule="evenodd" d="M9.63841 37.8767L15.6334 31.9318C17.6571 29.9257 20.4016 28.799 23.263 28.7996C26.1244 28.8001 28.8685 29.9278 30.8914 31.9347C32.9144 33.9415 34.0506 36.663 34.05 39.5006C34.0495 42.3381 32.9123 45.0593 30.8885 47.0653L23.2783 54.6407L8 39.51L9.63841 37.8853V37.8767ZM38.1282 69.3781L39.7782 71L45.7616 65.058L49.0413 61.8085L55.0334 55.8722L44.4098 45.3172C43.1783 44.1048 41.5135 43.4245 39.7782 43.4245C38.043 43.4245 36.3781 44.1048 35.1467 45.3172C34.0492 46.404 33.378 47.843 33.2535 49.3761C31.6947 49.4998 30.2326 50.1753 29.1343 51.2793C27.9062 52.4975 27.2162 54.1496 27.2162 55.8722C27.2162 57.5948 27.9062 59.2469 29.1343 60.4651L38.1282 69.3867V69.3781ZM32.4083 57.2127L39.7782 64.5097L42.5022 61.8085L35.1409 54.5115L35.1235 54.4943C34.7589 54.148 34.2724 53.9564 33.7676 53.9602C33.2627 53.9639 32.7792 54.1628 32.4199 54.5144C32.0632 54.8765 31.8646 55.3632 31.867 55.8693C31.8658 56.12 31.9146 56.3685 32.0105 56.6005C32.1063 56.8325 32.2474 57.0435 32.4256 57.2213L32.4083 57.2127ZM38.4032 51.2793L38.3859 51.2621C38.0375 50.8997 37.8445 50.4173 37.8478 49.9166C37.851 49.4159 38.0502 48.936 38.4032 48.5781C38.7662 48.2231 39.2554 48.0241 39.7652 48.0241C40.275 48.0241 40.7642 48.2231 41.1272 48.5781L48.4855 55.8722L45.7616 58.5734L38.4032 51.2793ZM56.2781 30.8525L64.9854 39.51L60.6202 43.8159C59.4621 44.9632 57.8918 45.6073 56.2548 45.6065C54.6178 45.6057 53.0481 44.96 51.8912 43.8116C50.7342 42.6631 50.0847 41.1059 50.0855 39.4826C50.0863 37.8593 50.7374 36.3027 51.8955 35.1554L56.2781 30.8525ZM48.6448 31.9318L56.2781 24.3621L71.5304 39.51L63.897 47.0797C61.8674 49.0529 59.1346 50.1521 56.2924 50.1385C53.4501 50.125 50.7281 48.9997 48.7177 47.0073C46.7074 45.0148 45.5711 42.3162 45.5558 39.4977C45.5405 36.6792 46.6474 33.9685 48.6361 31.9548L48.6448 31.9318ZM31.0449 23.1479L38.4032 30.4477C38.7683 30.7986 39.2568 30.9949 39.7652 30.9949C40.2736 30.9949 40.7621 30.7986 41.1272 30.4477C41.3054 30.2699 41.4465 30.0589 41.5423 29.8269C41.6382 29.5949 41.687 29.3464 41.6858 29.0957C41.6916 28.6316 41.5282 28.181 41.2256 27.8269L41.133 27.7379L33.7746 20.4381L31.0449 23.1479ZM35.1293 33.6914C36.3585 34.908 38.0242 35.5912 39.7609 35.5912C41.4975 35.5912 43.1632 34.908 44.3924 33.6914C45.4924 32.6028 46.1638 31.1602 46.2856 29.6239C47.837 29.5005 49.2933 28.8328 50.3932 27.7408C51.6192 26.5215 52.3077 24.8698 52.3077 23.1479C52.3077 21.426 51.6192 19.7743 50.3932 18.555L39.7782 8L33.7688 13.9621L30.4949 17.2087L24.4999 23.1479L35.1293 33.6914ZM37.0427 17.203L44.4098 24.4913C44.7741 24.8436 45.2629 25.0407 45.7717 25.0407C46.2806 25.0407 46.7693 24.8436 47.1337 24.4913C47.4907 24.1297 47.6906 23.6439 47.6906 23.1379C47.6906 22.6318 47.4907 22.146 47.1337 21.7844L39.7782 14.4932L37.0543 17.1944L37.0427 17.203ZM18.9015 35.1813L14.5479 39.51L23.2783 48.1475L27.6204 43.8159C28.7422 42.6599 29.3617 41.1136 29.3456 39.5094C29.3296 37.9052 28.6793 36.3714 27.5346 35.2377C26.3899 34.1041 24.8423 33.4613 23.2246 33.4475C21.6069 33.4337 20.0483 34.0501 18.8841 35.164L18.9015 35.1813Z" fill="#1AACCD"></path> <path d="M131.84 33.0572V31.0134H127.516V46.5143H132.043V39.1916C132.043 37.7505 132.412 36.6703 133.149 35.9507C133.886 35.2312 134.902 34.8714 136.197 34.8714C136.371 34.8714 136.709 34.8915 137.213 34.9288V30.7837C136.124 30.763 135.041 30.9582 134.029 31.3578C133.153 31.7098 132.395 32.2986 131.84 33.0572Z" fill="#1AACCD"></path> <path d="M179.215 32.5119C178.027 31.3637 176.463 30.7896 174.526 30.7896C173.523 30.7784 172.528 30.9587 171.594 31.3206C170.742 31.6499 169.978 32.1673 169.359 32.8334V31.0135H165.031V46.5144H169.561V38.8443C169.561 37.4626 169.9 36.4216 170.578 35.7212C170.933 35.3664 171.36 35.0895 171.83 34.9085C172.3 34.7276 172.803 34.6465 173.307 34.6705C174.332 34.6705 175.115 34.9729 175.658 35.5776C176.2 36.1824 176.471 37.099 176.471 38.3276V46.503H181.001V37.6358C181.001 35.3719 180.406 33.6639 179.215 32.5119Z" fill="#1AACCD"></path> <path d="M146.131 30.7832C144.89 30.7817 143.654 30.9458 142.457 31.2712C141.364 31.5547 140.328 32.0227 139.395 32.6548L141.021 35.7924C141.634 35.3231 142.328 34.9672 143.068 34.7417C143.86 34.4813 144.688 34.3466 145.523 34.3427C146.721 34.3427 147.621 34.6059 148.224 35.1321C148.826 35.6584 149.125 36.4124 149.121 37.3941H145.523C143.238 37.3941 141.548 37.8065 140.454 38.6313C139.923 39.023 139.496 39.5373 139.211 40.1295C138.925 40.7218 138.789 41.3741 138.816 42.0301C138.802 42.886 139.044 43.7268 139.51 44.4471C140.008 45.1868 140.712 45.7672 141.537 46.1177C142.405 46.5196 143.227 46.4909 144.431 46.4909H153.663V37.664C153.663 35.3675 153.014 33.6452 151.717 32.497C150.421 31.3487 148.558 30.7775 146.131 30.7832ZM149.121 43.7007H147.769C147.016 43.7007 146.556 43.7007 145.783 43.7007C145.121 43.7381 144.464 43.5619 143.91 43.1984C143.692 43.0435 143.515 42.8375 143.396 42.5987C143.277 42.3598 143.219 42.0955 143.227 41.8291C143.227 40.6216 144.156 40.0178 146.015 40.0178H149.121V43.7007Z" fill="#1AACCD"></path> <path fill-rule="evenodd" clip-rule="evenodd" d="M159.518 23.977C160.258 23.9473 160.982 24.1962 161.546 24.6744C161.798 24.8886 162 25.156 162.135 25.4572C162.271 25.7585 162.338 26.0861 162.332 26.4165C162.342 26.7664 162.277 27.1143 162.141 27.4372C162.006 27.76 161.803 28.0503 161.546 28.2888C160.977 28.7612 160.261 29.0211 159.52 29.0237C158.78 29.0263 158.062 28.7716 157.489 28.3032C157.241 28.0733 157.043 27.7947 156.908 27.485C156.773 27.1753 156.703 26.8411 156.703 26.5033C156.703 26.1654 156.773 25.8312 156.908 25.5215C157.043 25.2118 157.241 24.9333 157.489 24.7033C158.045 24.2075 158.773 23.947 159.518 23.977ZM157.008 31.0137H161.538V46.5032H157.008V31.0137Z" fill="#1AACCD"></path> </g> <defs> <clipPath id="clip0_4404_378573"> <rect width="173" height="63" fill="white" transform="translate(8 8)"></rect> </clipPath> </defs> </svg>
