<?xml version="1.0" ?><!DOCTYPE svg  PUBLIC '-//W3C//DTD SVG 1.1//EN'  'http://www.w3.org/Graphics/SVG/1.1/DTD/svg11.dtd'><svg height="23.957px" id="Layer_1" style="enable-background:new 0 0 63.992 23.957;" version="1.1" viewBox="0 0 63.992 23.957" width="63.992px" xml:space="preserve" xmlns="http://www.w3.org/2000/svg" xmlns:xlink="http://www.w3.org/1999/xlink"><g id="Ebay_Logo"><g><path d="M8.151,3.97c-7.883-0.002-8.189,6.579-8.148,8.286c0,0-0.387,7.694,7.955,7.694    c7.168,0,7.521-4.828,7.521-4.828l-3.298,0.007c0,0-0.643,2.66-4.209,2.59c-4.586-0.093-4.764-4.856-4.764-4.856h12.703    C15.911,12.862,16.876,3.972,8.151,3.97z M3.313,10.529c0,0,0.226-4.309,4.76-4.31c4.517-0.001,4.517,4.31,4.517,4.31H3.313z" style="fill:#ED7161;"/></g></g><g id="Ebay_Logo_6_"><g><path d="M24.652,5.436c-3.844-0.021-5.497,2.286-5.497,2.286V0h-3.081l0.052,16.32    c0,0-0.019,1.901-0.135,3.157h2.992l0.129-1.833c0,0,1.396,2.308,5.475,2.308c4.08,0,7.302-2.524,7.388-7.204    C32.061,8.067,28.496,5.457,24.652,5.436z M28.722,12.802c0,0,0.078,5.003-4.775,5.063c-4.854,0.062-4.775-5.17-4.775-5.17    s-0.177-5.037,4.768-5.166C28.882,7.399,28.722,12.802,28.722,12.802z" style="fill:#48A0DC;"/></g></g><g id="Ebay_Logo_2_"><g><path d="M47.958,15.897c0.009-2.314,0.077-4.381,0-5.839c-0.088-1.689,0.071-5.77-7.225-6.07    c0,0-6.995-0.638-7.721,4.575h3.577c0,0,0.277-2.389,3.907-2.32c3.436,0.066,4.062,1.753,4.044,3.829c0,0-2.944,0.008-3.927,0.012    c-1.771,0.01-7.968,0.205-8.547,3.986c-0.688,4.495,3.318,5.897,6.452,5.88c3.135-0.018,4.923-0.958,6.251-2.644l0.143,2.094    l3.116-0.018C48.029,19.383,47.949,18.212,47.958,15.897z M39.104,17.786c0,0-3.396,0.004-3.596-2.714    c-0.212-2.899,5.225-2.725,5.225-2.725l3.841-0.004C44.574,12.344,45.196,17.865,39.104,17.786z" style="fill:#FFCC66;"/></g></g><g id="Ebay_Logo_3_"><g><polygon points="60.621,3.964 55.155,15.18 49.702,3.964 45.973,3.964 53.375,18.401 50.52,23.957     54.126,23.957 63.992,3.964   " style="fill:#88C057;"/></g></g><g/><g/><g/><g/><g/><g/><g/><g/><g/><g/><g/><g/><g/><g/><g/></svg>