<svg width="146" height="40" viewBox="0 0 146 40" fill="none" xmlns="http://www.w3.org/2000/svg">
<path fill-rule="evenodd" clip-rule="evenodd" d="M125.261 4.08752C125.21 4.14483 124.919 4.92827 124.613 5.8289C124.121 7.28079 123.921 7.84203 123.744 8.26721C123.716 8.33524 123.62 8.57814 123.53 8.80737C123.242 9.54126 122.194 11.6745 121.646 12.6421C121.511 12.8795 121.299 13.254 121.174 13.4743C121.05 13.6943 120.765 14.1798 120.541 14.5524C119.952 15.5344 119.9 15.6283 119.9 15.6945C119.9 15.7644 120.068 15.7759 120.099 15.7078C120.111 15.6827 120.234 15.5792 120.372 15.4779C121 15.0205 121.753 14.3717 122.608 13.5512C123.005 13.1701 123.353 12.858 123.38 12.858C123.407 12.858 123.43 15.5067 123.43 18.7436V24.6292L125.305 24.6129L127.181 24.5966L127.197 19.5289L127.213 14.4611L127.463 14.3066C127.601 14.2215 127.729 14.152 127.746 14.152C127.764 14.152 128.106 13.9443 128.507 13.6899C128.907 13.4359 129.262 13.2277 129.295 13.2277C129.328 13.2277 129.356 13.4359 129.356 13.6899V14.152H130.309H131.261L131.225 14.5373C131.206 14.7491 131.16 15.151 131.124 15.4305C131.087 15.7104 131.03 16.1541 130.997 16.4166C130.963 16.6791 130.905 17.1298 130.867 17.4178C130.829 17.7058 130.773 18.1358 130.742 18.3731C130.59 19.5348 130.391 20.6062 130.205 21.2677C130.157 21.4381 130.1 21.6466 130.078 21.7313C129.843 22.6445 128.607 24.4425 128.214 24.4425C128.183 24.4425 128.158 24.4842 128.158 24.5349C128.158 24.6399 128.386 24.6584 128.612 24.5722C128.692 24.5419 128.884 24.4809 129.04 24.4365C132.122 23.5618 134.462 20.8044 134.462 18.047C134.462 17.9395 134.489 17.664 134.523 17.4344C134.556 17.2052 134.614 16.804 134.652 16.5434C134.74 15.9389 134.844 15.0967 134.895 14.5835L134.935 14.1827L136.432 14.1665L137.93 14.1498L137.914 18.141L137.898 22.1317L136.495 22.1483C135.184 22.1639 134.86 22.209 135.203 22.328C135.702 22.5018 136.529 23.3207 136.986 24.0923L137.211 24.4735L138.563 24.4913C140.323 24.5146 140.769 24.4003 141.34 23.7784C141.862 23.2106 141.838 23.4734 141.838 18.2482C141.838 12.7342 141.791 13.037 142.538 13.7361C142.764 13.948 143.054 14.2164 143.18 14.3325L143.411 14.5436L144.048 13.901C144.964 12.9774 145.999 11.8934 145.999 11.8572C145.999 11.8402 145.809 11.7378 145.579 11.6302C145.185 11.4464 144.465 11.0176 144.195 10.8068C142.559 9.52758 141.535 8.49163 140.255 6.81938C139.672 6.05776 138.665 4.52971 138.581 4.27756C138.517 4.08604 136.954 4.11636 137.009 4.30824C137.031 4.38441 137.066 4.53008 137.085 4.63175C137.104 4.73342 137.143 4.87207 137.171 4.93973C137.199 5.00776 137.257 5.18781 137.301 5.3405C137.673 6.64118 138.561 8.5774 139.345 9.79637C139.537 10.0951 139.694 10.3654 139.694 10.3972C139.694 10.429 139.717 10.4548 139.744 10.4548C139.771 10.4548 139.846 10.5417 139.91 10.6478C140.045 10.8723 140.956 12.0583 141.144 12.2557C141.336 12.4572 141.171 12.5068 140.76 12.3704C140.573 12.3082 140.155 12.1825 139.832 12.0912C139.183 11.9082 139.232 11.8982 138.793 12.3001L138.554 12.519L134.458 12.5364C131.082 12.5504 130.356 12.539 130.329 12.4709C130.31 12.4221 130.61 12.0883 131.064 11.6527C132.404 10.3665 133.328 9.25066 134.414 7.60837C135.042 6.65929 135.074 6.6079 135.379 6.04889C135.489 5.84554 135.639 5.57712 135.711 5.45179L135.842 5.22478L135.641 5.16008C135.53 5.12459 135.297 5.06765 135.124 5.03327C134.847 4.97855 134.564 4.91902 133.327 4.65578C133.171 4.62251 132.916 4.57259 132.76 4.54524C132.604 4.51788 132.429 4.47536 132.371 4.45096C132.249 4.39957 132.184 4.49606 132.033 4.94786C131.979 5.11276 131.911 5.30353 131.883 5.37119C131.855 5.43885 131.797 5.60522 131.754 5.74091C131.672 6.00082 131.228 7.1525 131.089 7.46639C131.043 7.56807 130.954 7.77585 130.89 7.92817C130.271 9.40151 129.094 11.3337 127.961 12.7349C127.892 12.8196 127.746 13.0041 127.634 13.1449C127.186 13.7143 127.212 13.8614 127.212 10.7735V8.01062L127.465 7.65865C127.603 7.46491 127.716 7.29558 127.716 7.2819C127.716 7.26785 127.929 6.93769 128.189 6.54801C128.449 6.15795 128.662 5.82225 128.662 5.80117C128.662 5.7801 128.741 5.64737 128.838 5.5054C129.226 4.93418 129.239 4.78962 128.901 4.78666C128.842 4.78629 128.729 4.76078 128.65 4.73047C128.57 4.70015 128.391 4.64691 128.252 4.61252C127.856 4.51344 127.548 4.43025 126.803 4.22062C125.961 3.98363 125.395 3.93483 125.261 4.08752ZM86.0069 4.43136C85.938 4.50789 85.8041 4.67427 85.7088 4.80108L85.5356 5.03216H80.5272H75.5185V5.83334V6.63452H80.0261C85.188 6.63452 84.7553 6.57352 84.2609 7.22829C83.8611 7.75773 83.8774 7.75108 83.3671 7.59247C82.8228 7.42314 82.1919 7.33255 80.994 7.25159C79.4318 7.14585 79.3725 7.16507 79.9156 7.59727C80.4085 7.98881 82.4533 10.1665 82.4533 10.2996C82.4533 10.3173 81.758 10.3317 80.9085 10.3317H79.3641V10.0851V9.83852H77.6934H76.0223L76.0386 15.7696L76.0545 21.7006H77.6934H79.3327L79.3641 19.7596L79.3955 17.8186H80.4675H81.539L81.5704 19.7596L81.6022 21.7006H83.2412H84.8801L84.8979 20.9005C84.9077 20.4606 84.941 20.0761 84.9716 20.0457C85.0318 19.9873 85.4161 20.1256 85.4161 20.2058C85.4161 20.2313 85.4459 20.2524 85.4826 20.2524C85.6199 20.2524 86.4196 20.9371 86.7365 21.3265L87.066 21.7313H88.2858C90.5682 21.7313 90.3964 22.2001 90.3964 15.977C90.3964 13.1823 90.4203 11.1325 90.4535 11.0989C90.7217 10.8238 90.8235 10.3931 90.6204 10.3931C90.5678 10.3931 90.3189 10.3284 90.0666 10.2489C89.8147 10.1694 89.4096 10.0448 89.1671 9.97199C88.9243 9.89952 88.5438 9.78417 88.3214 9.71614C87.7139 9.5298 87.6436 9.5457 87.2127 9.96348L86.8345 10.3306L86.3878 10.331C85.8458 10.3317 85.8684 10.3528 85.9407 9.91727C86.0239 9.41371 85.9275 9.12459 85.5413 8.7227C85.1819 8.34855 85.1562 8.25353 85.4002 8.20325C85.4955 8.18365 85.623 8.1415 85.6831 8.10971C85.7432 8.07754 85.8268 8.05166 85.8688 8.05166C86.1306 8.05166 88.7163 6.66447 89.2337 6.24632C90.5852 5.1549 90.6143 5.12607 90.4119 5.07394C90.1789 5.01404 89.2681 4.81217 88.8203 4.72159C88.6296 4.68277 88.3743 4.62805 88.2529 4.59995C88.1315 4.57149 87.8622 4.51529 87.6542 4.47462C87.4461 4.43432 87.1764 4.37701 87.055 4.34743C86.6189 4.24096 86.1438 4.27904 86.0069 4.43136ZM112.682 4.53858L112.436 4.78481L109.407 4.80071L106.377 4.81661L106.339 7.15805C106.295 9.86514 106.218 10.3631 105.692 11.3174C105.357 11.9256 104.592 12.7693 104.425 12.7149C104.309 12.6772 104.305 6.09251 104.421 5.91985C104.473 5.84258 104.572 5.68028 104.642 5.55864L104.769 5.33755L104.628 5.28098C104.45 5.20999 103.411 4.90312 102.752 4.7264C102.596 4.68462 102.419 4.62546 102.359 4.59478C102.299 4.56446 102.202 4.53932 102.143 4.53932C102.084 4.53932 101.942 4.50604 101.826 4.46501C101.617 4.39143 101.612 4.39439 101.205 4.78851L100.795 5.18633L99.9381 5.20666C98.8457 5.23255 98.7939 5.21997 98.7689 4.9242L98.7492 4.69349H97.2363H95.7233L95.6839 12.5807C95.6571 17.948 95.6219 20.6059 95.5735 20.8994C95.4543 21.6237 95.3862 21.9945 95.3132 22.3166C95.275 22.4863 95.2278 22.7151 95.2085 22.8257C95.1892 22.9362 95.1483 23.0416 95.1173 23.0604C95.0867 23.0789 95.0613 23.1484 95.0613 23.215C95.0613 23.3869 94.6002 24.3149 94.4055 24.5349C94.0495 24.9371 94.4512 24.8943 95.4082 24.428C96.5887 23.8528 97.5835 22.7724 98.1474 21.454C98.5472 20.5186 98.5987 20.2317 98.7659 18.0034L98.8124 17.3871L99.8908 17.3701C100.751 17.3568 100.984 17.3708 101.042 17.4392C101.095 17.5013 101.11 18.1495 101.098 19.7977L101.082 22.0703L100.231 22.0862C99.1279 22.1073 99.1105 22.1162 99.5886 22.4112C100.243 22.8157 100.987 23.6834 100.987 24.0417C100.987 24.3434 103.25 24.3574 103.769 24.0594C104.363 23.7178 104.328 24.0798 104.328 18.2526V13.1704L104.469 13.0969C104.546 13.0566 104.695 13.003 104.8 12.9782C106.386 12.5988 108.088 11.5122 108.753 10.4548C109.284 9.60966 109.317 9.46621 109.365 7.80506L109.403 6.48035H110.759H112.114L112.15 8.51381C112.17 9.63221 112.208 10.6194 112.234 10.7074C112.324 11.0042 112.733 11.4575 113.059 11.6217L113.375 11.7795H115.644H117.914V10.7321V9.68471L116.527 9.6507C115.764 9.63221 115.133 9.61151 115.124 9.60448C115.116 9.59783 115.108 8.85432 115.108 7.95258V6.31287L115.31 5.93427C115.421 5.72612 115.563 5.48248 115.625 5.39263C115.8 5.14048 115.767 5.06691 115.439 4.97892C115.275 4.93455 115.069 4.87613 114.982 4.84915C114.896 4.82216 114.697 4.76596 114.541 4.72418C114.385 4.6824 114.187 4.62694 114.1 4.60106C114.013 4.57481 113.814 4.51972 113.659 4.47832C113.502 4.43691 113.309 4.37849 113.23 4.34817C112.998 4.25944 112.941 4.27904 112.682 4.53858ZM40.8618 4.52268C40.709 4.57518 40.7865 4.71605 41.088 4.93233C41.6156 5.31093 42.8003 6.68074 42.8003 6.91218C42.8003 7.10776 43.5723 7.99287 43.8991 8.17256C45.2793 8.93012 46.961 8.28495 46.961 6.99759C46.961 5.91616 45.9798 5.24105 43.8404 4.84988C43.6324 4.8118 43.3415 4.75413 43.1936 4.72159C43.0458 4.68906 42.8018 4.66244 42.6512 4.66244C42.5011 4.66244 42.2957 4.63693 42.1951 4.60587C41.9927 4.54265 40.9862 4.48016 40.8618 4.52268ZM68.0463 4.54265C68.0266 4.5737 68.2906 4.86985 68.6333 5.20075C69.2729 5.81892 69.608 6.25112 69.9855 6.94546C70.6123 8.09825 70.9758 8.44652 71.775 8.66022C73.1496 9.02772 74.3668 7.93705 73.9938 6.67223C73.7321 5.78417 72.7388 5.19077 70.9482 4.8521C70.7401 4.81291 70.4489 4.75413 70.301 4.72159C70.1531 4.68906 69.9375 4.66244 69.8218 4.66244C69.7064 4.66244 69.5294 4.63693 69.4288 4.60587C69.1659 4.52453 68.089 4.47499 68.0463 4.54265ZM48.7894 5.83297V6.63452H52.2541C55.6156 6.63452 55.7211 6.63785 55.7847 6.75357C55.9254 7.01053 55.8698 23.0105 55.7279 23.0848C55.5388 23.1836 54.1162 23.1677 54.0296 23.0656C53.9789 23.0057 53.9547 21.2107 53.943 16.6724L53.9271 10.3624L52.0832 10.3461L50.2392 10.3299V16.6754C50.2392 22.8859 50.2366 23.0224 50.1174 23.0848C50.0433 23.1237 49.4131 23.1484 48.5099 23.1484H47.0241V23.9496V24.7508H55.6311H64.2381L64.2203 23.9652L64.2029 23.1795L61.9017 23.1484L59.6008 23.1178L59.5845 18.8083C59.5717 15.4013 59.5849 14.4885 59.6477 14.4497C59.6912 14.4227 60.6417 14.4001 61.7598 14.3994L63.7929 14.3986V13.5982V12.7981L61.697 12.7819L59.6008 12.7656V9.7154V6.66521L61.9017 6.63452L64.2029 6.60347V5.83334V5.06321L56.4962 5.04732L48.7894 5.03179V5.83297ZM101.099 8.56003L101.082 10.3624L99.9313 10.379L98.7806 10.3961V8.57666V6.75764H99.9479H101.115L101.099 8.56003ZM43.3521 9.6385C43.2046 9.76531 43.07 9.88621 43.0526 9.90655C42.9202 10.0618 42.6486 10.0851 40.9817 10.0851C40.0111 10.0851 39.1725 10.1021 39.1177 10.1225C39.0314 10.155 38.9531 11.5718 39.0337 11.6387C39.0424 11.6457 39.8863 11.6668 40.909 11.6849L42.7689 11.7182V16.4628V21.2074L42.4852 21.3401C42.1921 21.4769 41.9322 21.589 41.5237 21.7531C41.198 21.8844 41.2283 22.0726 41.7911 23.4257C41.8195 23.4938 41.9057 23.7156 41.9825 23.9189C42.2333 24.5804 42.38 24.8739 42.4595 24.8739C42.5703 24.8739 43.4554 24.4081 43.8178 24.1593C43.9857 24.0439 44.137 23.9496 44.1544 23.9496C44.1718 23.9496 44.2357 23.9097 44.297 23.8609C44.3579 23.8121 44.6174 23.6191 44.8734 23.4316C45.886 22.6904 46.8301 21.8108 47.4591 21.0226C47.6755 20.7515 47.8862 20.4879 47.927 20.4373C48.2428 20.0439 48.8972 18.8623 49.0073 18.4859C49.0788 18.243 48.912 18.2644 48.4626 18.5565C47.9928 18.8619 47.798 18.9721 46.998 19.3843C46.6156 19.5814 46.487 19.6228 46.4473 19.5618C46.3709 19.4442 46.3811 12.0003 46.4587 11.3777C46.4942 11.0904 46.5699 10.7255 46.627 10.5665C46.7586 10.2012 46.706 10.1313 46.2211 10.0271C46.0214 9.98382 45.7869 9.92725 45.7003 9.90063C45.3194 9.78528 43.7614 9.40742 43.6649 9.40742C43.6404 9.40742 43.4996 9.51131 43.3521 9.6385ZM70.7564 10.0544L70.4602 10.3931H68.8614H67.2625L67.2274 10.5317C67.2081 10.6083 67.2005 10.9754 67.2103 11.3485L67.2289 12.0262L68.6473 12.0568L70.0657 12.0879L70.0816 16.3563L70.0979 20.6247L69.9243 20.692C69.5782 20.8255 68.5406 21.1878 67.9994 21.3638C67.1033 21.6555 67.1971 21.444 67.1971 23.1714C67.1971 24.8233 67.1907 24.7878 67.4713 24.6299C68.0073 24.3282 68.9049 23.8295 69.2147 23.6612C69.4053 23.5574 69.7412 23.3721 69.9613 23.249C70.1815 23.1259 70.3846 23.0253 70.413 23.0253C70.4417 23.0253 70.4742 23.0046 70.486 22.9791C70.4973 22.9536 70.6202 22.8741 70.759 22.8028C70.8979 22.731 71.188 22.5732 71.4043 22.4523L71.7973 22.2319L72.1294 22.4944C73.1049 23.2656 74.3418 23.9541 75.4557 24.3463C75.7156 24.438 75.9936 24.5386 76.0734 24.5704C76.1528 24.6018 76.286 24.6273 76.3688 24.6273C76.452 24.6273 76.5352 24.6514 76.5538 24.6809C76.5723 24.7101 76.7228 24.7538 76.8885 24.7774C77.0538 24.8011 77.3451 24.8503 77.5361 24.8869C77.7638 24.9305 79.9848 24.9612 84.0071 24.9767L90.1313 25L90.2697 24.7061C90.5284 24.1552 90.6642 23.8576 90.713 23.7341C90.7399 23.666 90.8042 23.5137 90.856 23.395C90.9082 23.2764 91.0149 23.0268 91.0935 22.8405C91.1722 22.6541 91.2603 22.4752 91.2891 22.443C91.3867 22.3351 91.3432 22.2711 91.2002 22.3121C91.0096 22.3665 89.441 22.4674 85.4792 22.6796C84.4909 22.7325 83.5778 22.7902 83.4503 22.8083C82.7143 22.9111 77.8712 22.8468 77.2826 22.7262C76.0099 22.4659 74.4469 21.7897 73.8955 21.261C73.8334 21.2019 73.8164 20.0857 73.8164 16.0938V11.002L74.0415 10.714C74.3626 10.3029 74.2764 10.2489 72.934 10.0212C72.3882 9.92873 71.9343 9.83519 71.7111 9.76938C71.2595 9.63591 71.0734 9.69174 70.7564 10.0544ZM81.539 12.5807V13.3819L80.4516 13.3986L79.3641 13.4156V12.5807V11.7459L80.4516 11.7629L81.539 11.7795V12.5807ZM87.055 12.5822V13.4156L85.9993 13.3986L84.9433 13.3819L84.9255 12.6458C84.9013 11.6594 84.7931 11.7489 86.0129 11.7489H87.055V12.5822ZM101.043 12.018C101.094 12.0783 101.11 12.6447 101.099 13.9746L101.082 15.8465H99.9471H98.8124L98.7954 13.9679C98.7863 12.9346 98.7927 12.0542 98.8094 12.0114C98.8551 11.8945 100.944 11.9008 101.043 12.018ZM113.668 12.7959L113.273 13.227L109.258 13.2425L105.243 13.2584L105.225 13.9827L105.207 14.7066H105.497C105.845 14.7066 106.03 14.792 106.03 14.9525C106.03 15.0172 106.055 15.1344 106.086 15.212C106.116 15.29 106.191 15.506 106.252 15.6927C106.761 17.2396 107.615 18.7451 108.765 20.1201L109.247 20.6965L108.988 20.9981C108.846 21.1645 108.666 21.349 108.588 21.4089C108.51 21.4688 108.208 21.7302 107.916 21.9897C107.624 22.2493 107.187 22.609 106.945 22.7894C106.702 22.9699 106.489 23.1325 106.472 23.151C106.414 23.2128 105.584 23.7648 105.549 23.7648C105.53 23.7648 105.439 23.8169 105.347 23.8809C105.083 24.0635 104.723 24.2598 104.076 24.5737C103.686 24.763 103.511 24.8773 103.574 24.9017C103.703 24.9508 104.699 24.7959 105.274 24.6373C105.395 24.604 105.665 24.5316 105.873 24.4768C106.228 24.3833 106.938 24.1437 107.291 23.9981C107.378 23.9622 107.506 23.9127 107.575 23.8875C107.801 23.8058 108.322 23.5696 108.773 23.3448C109.016 23.2239 109.278 23.0952 109.355 23.0597C109.433 23.0238 109.497 22.9736 109.497 22.9484C109.497 22.9229 109.527 22.9022 109.563 22.9022C109.598 22.9022 109.907 22.7247 110.249 22.5077C110.859 22.121 110.874 22.1151 111.03 22.2149C111.117 22.2711 111.425 22.4711 111.714 22.6597C112.281 23.0294 113.394 23.5932 114.005 23.821C114.213 23.8982 114.44 23.9847 114.51 24.0132C114.773 24.1208 115.901 24.4425 116.48 24.5752C116.888 24.6687 116.837 24.7194 117.368 23.7004C117.606 23.2442 117.916 22.6575 118.058 22.3957L118.316 21.9202L118.083 21.8807C117.893 21.8481 117.048 21.677 116.243 21.5087C116.156 21.4902 116.029 21.4536 115.959 21.427C115.89 21.4004 115.72 21.3449 115.581 21.3039C114.716 21.0473 113.295 20.4491 113.153 20.2816C113.073 20.1874 113.132 20.1038 113.659 19.5762C113.677 19.5585 113.862 19.3222 114.069 19.0516C114.277 18.7809 114.496 18.5055 114.557 18.4393C114.617 18.3731 114.667 18.2826 114.667 18.2382C114.667 18.1938 114.689 18.1572 114.715 18.1572C114.741 18.1572 114.791 18.1032 114.825 18.0374C114.86 17.9712 115.045 17.6596 115.237 17.3442C115.54 16.8473 116.18 15.6198 116.18 15.5355C116.18 15.5196 116.234 15.3888 116.301 15.2453C116.367 15.1015 116.483 14.8035 116.558 14.5835C116.633 14.3632 116.732 14.0995 116.777 13.9979C117.112 13.2447 117.13 13.2695 116.023 12.9545C115.572 12.8262 115.146 12.6998 115.077 12.6735C115.007 12.6473 114.823 12.5918 114.667 12.5504C114.511 12.5094 114.318 12.4506 114.238 12.4203C114.159 12.39 114.087 12.3652 114.078 12.3652C114.069 12.3652 113.885 12.5589 113.668 12.7959ZM81.4948 14.7806C81.6533 14.9355 81.595 16.411 81.4286 16.4547C81.2433 16.5035 79.593 16.5046 79.464 16.4561C79.3604 16.4173 79.307 14.8445 79.4061 14.7477C79.4852 14.6704 81.4135 14.7011 81.4948 14.7806ZM87.0236 15.6002V16.4628L86.1094 16.4805C84.8033 16.5057 84.9119 16.5793 84.9119 15.6657C84.9119 14.6083 84.8048 14.7007 86.0065 14.7207L87.0236 14.7373V15.6002ZM112.628 14.8013C112.675 14.9233 112.412 15.8886 112.207 16.3397C111.818 17.1989 111.334 18.1092 111.247 18.1472C111.221 18.1583 111.2 18.1905 111.2 18.2186C111.2 18.3073 110.865 18.7735 110.801 18.7735C110.684 18.7735 109.434 17.5165 109.078 17.0407C108.446 16.1962 107.786 14.9333 107.89 14.7687C107.962 14.6549 112.583 14.6867 112.628 14.8013ZM87.0236 18.8042V19.7903H85.9834H84.9433L84.9259 18.8686C84.9028 17.6644 84.7852 17.7816 85.9978 17.8015L87.0236 17.8186V18.8042Z" fill="#E40615"/>
<rect y="4" width="32" height="32" rx="2.28571" fill="#E60012"/>
<mask id="mask0_4595_12568" style="mask-type:alpha" maskUnits="userSpaceOnUse" x="0" y="4" width="32" height="32">
<rect y="4" width="32" height="32" rx="2.28571" fill="#E60012"/>
</mask>
<g mask="url(#mask0_4595_12568)">
<path d="M0 20L32 4V20H0Z" fill="url(#paint0_linear_4595_12568)"/>
<path d="M32 20L0 36V20H32Z" fill="url(#paint1_linear_4595_12568)"/>
</g>
<path fill-rule="evenodd" clip-rule="evenodd" d="M56.1677 30.7372L56.7051 29.6269C56.4363 29.414 56.2048 29.2771 55.8563 29.1663C55.5101 29.0554 55.1343 29 54.7289 29C54.114 29 53.5605 29.1375 53.0686 29.4124C52.5766 29.685 52.1872 30.0819 51.9002 30.6029C51.6132 31.1238 51.4697 31.7557 51.4697 32.4983C51.4697 33.2388 51.6109 33.8695 51.8933 34.3905C52.178 34.9115 52.5652 35.3094 53.0549 35.5843C53.5469 35.8592 54.1049 35.9967 54.7289 35.9967C55.1776 35.9967 55.5796 35.9313 55.9349 35.8005C56.2925 35.6675 56.8104 35.3105 56.8104 35.3105L56.1587 34.3006C56.1476 34.2833 56.1247 34.2781 56.1071 34.2886C55.9928 34.3573 55.9404 34.3833 55.8567 34.4248L55.8567 34.4248L55.8567 34.4248C55.8304 34.4378 55.801 34.4524 55.7657 34.4703C55.5863 34.5611 55.4737 34.5956 55.3029 34.6466C55.1343 34.6975 54.951 34.723 54.7529 34.723C54.3998 34.723 54.0889 34.6388 53.8202 34.4703C53.5514 34.3018 53.3419 34.0524 53.1916 33.7221C53.0435 33.3918 52.9695 32.9838 52.9695 32.4983C52.9695 32.0261 53.0435 31.6249 53.1916 31.2945C53.3396 30.962 53.548 30.7093 53.8168 30.5363C54.0855 30.3612 54.401 30.2736 54.7631 30.2736C54.9635 30.2736 55.1491 30.3013 55.32 30.3568C55.4931 30.4122 55.5793 30.4507 55.7851 30.5681C55.8232 30.5898 55.8526 30.6069 55.879 30.6221L55.879 30.6221C55.947 30.6614 55.9944 30.6888 56.1156 30.754C56.1346 30.7642 56.1583 30.7566 56.1677 30.7372ZM41.0379 35.9036C41.017 35.9036 41 35.8866 41 35.8656V29.1311C41 29.1101 41.017 29.0931 41.0379 29.0931H45.6767C45.6976 29.0931 45.7146 29.1101 45.7146 29.1311V30.2423C45.7146 30.2633 45.6976 30.2803 45.6767 30.2803H42.5172C42.4963 30.2803 42.4793 30.2973 42.4793 30.3182V31.8651C42.4793 31.8861 42.4963 31.9031 42.5172 31.9031H45.4341C45.455 31.9031 45.472 31.9201 45.472 31.941V33.0523C45.472 33.0733 45.455 33.0903 45.4341 33.0903H42.5172C42.4963 33.0903 42.4793 33.1072 42.4793 33.1282V34.6784C42.4793 34.6994 42.4963 34.7164 42.5172 34.7164H45.6903C45.7113 34.7164 45.7283 34.7334 45.7283 34.7543V35.8656C45.7283 35.8866 45.7113 35.9036 45.6903 35.9036H41.0379ZM50.1911 31.9363C50.212 31.9363 50.229 31.9533 50.229 31.9743V33.0224C50.229 33.0433 50.212 33.0603 50.1911 33.0603H47.0761C47.0551 33.0603 47.0381 33.0433 47.0381 33.0224V31.9743C47.0381 31.9533 47.0551 31.9363 47.0761 31.9363H50.1911ZM123.877 31.0518C123.858 31.0518 123.842 31.0369 123.839 31.0176C123.807 30.7658 123.694 30.5688 123.503 30.4266C123.302 30.2781 123.03 30.2038 122.686 30.2038C122.453 30.2038 122.256 30.2371 122.095 30.3036C121.934 30.3679 121.811 30.4576 121.725 30.5729C121.641 30.6882 121.599 30.819 121.599 30.9653C121.595 31.0873 121.62 31.1937 121.675 31.2846C121.733 31.3755 121.811 31.4542 121.91 31.5207C122.009 31.585 122.124 31.6415 122.254 31.6903C122.383 31.7368 122.522 31.7767 122.67 31.81L123.278 31.9563C123.573 32.0228 123.844 32.1115 124.091 32.2223C124.337 32.3332 124.551 32.4695 124.732 32.6314C124.912 32.7932 125.052 32.9838 125.151 33.2033C125.253 33.4228 125.305 33.6744 125.307 33.9582C125.305 34.375 125.199 34.7363 124.99 35.0423C124.782 35.346 124.483 35.5821 124.091 35.7506C123.701 35.9169 123.231 36 122.68 36C122.133 36 121.658 35.9158 121.252 35.7473C120.849 35.5788 120.534 35.3294 120.307 34.9991C120.089 34.6753 119.971 34.277 119.955 33.8041C119.954 33.7829 119.971 33.7653 119.993 33.7653H121.303C121.323 33.7653 121.339 33.7808 121.341 33.8007C121.361 34.0134 121.425 34.1923 121.533 34.3373C121.65 34.488 121.805 34.6022 121.999 34.6798C122.195 34.7552 122.417 34.7929 122.663 34.7929C122.906 34.7929 123.116 34.7574 123.294 34.6865C123.475 34.6155 123.615 34.5169 123.714 34.3905C123.813 34.2641 123.863 34.1189 123.863 33.9549C123.863 33.8019 123.818 33.6733 123.727 33.5691C123.639 33.4649 123.509 33.3762 123.337 33.3031C123.168 33.2299 122.96 33.1634 122.713 33.1036L121.976 32.9173C121.405 32.7777 120.955 32.5593 120.624 32.2622C120.294 31.9652 120.13 31.565 120.132 31.0618C120.13 30.6494 120.239 30.2892 120.459 29.981C120.682 29.6728 120.987 29.4323 121.375 29.2594C121.762 29.0865 122.203 29 122.696 29C123.199 29 123.637 29.0865 124.011 29.2594C124.388 29.4323 124.681 29.6728 124.89 29.981C125.093 30.2794 125.201 30.6234 125.213 31.0132C125.214 31.0344 125.197 31.0518 125.176 31.0518H123.877ZM58.7868 35.9036C58.8033 35.9036 58.8179 35.893 58.823 35.8773L59.3165 34.3506H61.7599L62.2524 35.8773C62.2575 35.8929 62.272 35.9036 62.2885 35.9036H63.741C63.767 35.9036 63.7853 35.8779 63.7769 35.8533L61.47 29.1188C61.4648 29.1034 61.4503 29.0931 61.4341 29.0931H59.6445C59.6283 29.0931 59.6139 29.1034 59.6086 29.1187L57.2985 35.8533C57.29 35.8779 57.3083 35.9036 57.3344 35.9036H58.7868ZM61.3972 33.2266L60.5739 30.6746C60.569 30.6596 60.5551 30.6494 60.5393 30.6494C60.5236 30.6494 60.5096 30.6596 60.5048 30.6746L59.6798 33.2266H61.3972ZM64.7017 35.8656C64.7017 35.8866 64.7186 35.9036 64.7396 35.9036H66.0945C66.1154 35.9036 66.1324 35.8866 66.1324 35.8656V33.6955H67.3352C67.8551 33.6955 68.2979 33.599 68.6635 33.4062C69.0314 33.2133 69.3123 32.9439 69.5062 32.5981C69.7 32.2523 69.7969 31.8532 69.7969 31.401C69.7969 30.9487 69.7011 30.5496 69.5095 30.2038C69.32 29.8557 69.0446 29.5842 68.6834 29.3891C68.3221 29.1918 67.8848 29.0931 67.3716 29.0931H64.7396C64.7186 29.0931 64.7017 29.1101 64.7017 29.1311V35.8656ZM66.1324 32.5416H67.1039C67.3793 32.5416 67.6062 32.4939 67.7846 32.3986C67.9652 32.301 68.0996 32.1669 68.1877 31.9962C68.278 31.8233 68.3232 31.6249 68.3232 31.401C68.3232 31.1748 68.278 30.9775 68.1877 30.809C68.0996 30.6383 67.9652 30.5064 67.7846 30.4133C67.604 30.318 67.3749 30.2703 67.0973 30.2703H66.1704C66.1494 30.2703 66.1324 30.2873 66.1324 30.3083V32.5416ZM72.2122 29.0931C72.2331 29.0931 72.2501 29.1101 72.2501 29.1311V35.8656C72.2501 35.8866 72.2331 35.9036 72.2122 35.9036H70.8573C70.8363 35.9036 70.8193 35.8866 70.8193 35.8656V29.1311C70.8193 29.1101 70.8363 29.0931 70.8573 29.0931H72.2122ZM73.2626 30.2423C73.2626 30.2633 73.2796 30.2803 73.3005 30.2803H75.2965C75.3174 30.2803 75.3344 30.2973 75.3344 30.3182V35.8656C75.3344 35.8866 75.3514 35.9036 75.3723 35.9036H76.7107C76.7317 35.9036 76.7487 35.8866 76.7487 35.8656V30.3182C76.7487 30.2973 76.7656 30.2803 76.7866 30.2803H78.7825C78.8035 30.2803 78.8205 30.2633 78.8205 30.2423V29.1311C78.8205 29.1101 78.8035 29.0931 78.7825 29.0931H73.3005C73.2796 29.0931 73.2626 29.1101 73.2626 29.1311V30.2423ZM80.1768 35.8773C80.1718 35.893 80.1572 35.9036 80.1407 35.9036H78.6883C78.6622 35.9036 78.6439 35.8779 78.6524 35.8533L80.9625 29.1187C80.9678 29.1034 80.9822 29.0931 80.9984 29.0931H82.788C82.8042 29.0931 82.8186 29.1034 82.8239 29.1188L85.1308 35.8533C85.1392 35.8779 85.1209 35.9036 85.0949 35.9036H83.6424C83.6259 35.9036 83.6113 35.8929 83.6063 35.8773L83.1137 34.3506H80.6703L80.1768 35.8773ZM81.9278 30.6746L82.7511 33.2266H81.0337L81.8586 30.6746C81.8635 30.6596 81.8774 30.6494 81.8932 30.6494C81.909 30.6494 81.9229 30.6596 81.9278 30.6746ZM86.0555 35.8656C86.0555 35.8866 86.0725 35.9036 86.0935 35.9036H90.3496C90.3705 35.9036 90.3875 35.8866 90.3875 35.8656V34.7543C90.3875 34.7334 90.3705 34.7164 90.3496 34.7164H87.5243C87.5033 34.7164 87.4863 34.6994 87.4863 34.6784V29.1311C87.4863 29.1101 87.4693 29.0931 87.4484 29.0931H86.0935C86.0725 29.0931 86.0555 29.1101 86.0555 29.1311V35.8656ZM93.4549 30.2803C93.434 30.2803 93.417 30.2633 93.417 30.2423V29.1311C93.417 29.1101 93.434 29.0931 93.4549 29.0931H98.9369C98.9579 29.0931 98.9749 29.1101 98.9749 29.1311V30.2423C98.9749 30.2633 98.9579 30.2803 98.9369 30.2803H96.941C96.92 30.2803 96.9031 30.2973 96.9031 30.3182V35.8656C96.9031 35.8866 96.8861 35.9036 96.8651 35.9036H95.5267C95.5058 35.9036 95.4888 35.8866 95.4888 35.8656V30.3182C95.4888 30.2973 95.4718 30.2803 95.4509 30.2803H93.4549ZM99.9832 35.8656C99.9832 35.8866 100 35.9036 100.021 35.9036H101.376C101.397 35.9036 101.414 35.8866 101.414 35.8656V33.4893H102.458L103.73 35.8834C103.736 35.8958 103.749 35.9036 103.763 35.9036H105.256C105.285 35.9036 105.303 35.8728 105.289 35.8475L103.884 33.2578C103.905 33.2487 103.925 33.2395 103.945 33.2299C104.313 33.057 104.594 32.8087 104.788 32.485C104.982 32.1591 105.078 31.7701 105.078 31.3178C105.078 30.8678 104.983 30.4765 104.791 30.1439C104.602 29.8092 104.325 29.5509 103.962 29.3691C103.6 29.1851 103.164 29.0931 102.653 29.0931H100.021C100 29.0931 99.9832 29.1101 99.9832 29.1311V35.8656ZM101.414 32.3321H102.385C102.659 32.3321 102.886 32.2944 103.066 32.219C103.247 32.1436 103.381 32.0306 103.469 31.8798C103.56 31.7291 103.605 31.5417 103.605 31.3178C103.605 31.0917 103.56 30.901 103.469 30.7458C103.381 30.5907 103.246 30.4732 103.063 30.3933C102.882 30.3113 102.654 30.2703 102.379 30.2703H101.452C101.431 30.2703 101.414 30.2873 101.414 30.3083V32.3321ZM107.358 35.8773C107.353 35.893 107.338 35.9036 107.321 35.9036H105.869C105.843 35.9036 105.825 35.8779 105.833 35.8533L108.143 29.1187C108.149 29.1034 108.163 29.0931 108.179 29.0931H109.969C109.985 29.0931 109.999 29.1034 110.005 29.1188L112.312 35.8533C112.32 35.8779 112.302 35.9036 112.276 35.9036H110.823C110.807 35.9036 110.792 35.8929 110.787 35.8773L110.294 34.3506H107.851L107.358 35.8773ZM109.109 30.6746L109.932 33.2266H108.214L109.039 30.6746C109.044 30.6596 109.058 30.6494 109.074 30.6494C109.09 30.6494 109.104 30.6596 109.109 30.6746ZM118.897 29.1311C118.897 29.1101 118.88 29.0931 118.859 29.0931H117.51C117.489 29.0931 117.472 29.1101 117.472 29.1311V33.3383C117.472 33.3593 117.455 33.3762 117.435 33.3762H117.433C117.42 33.3762 117.409 33.37 117.402 33.3597L114.503 29.1097C114.496 29.0993 114.484 29.0931 114.472 29.0931H113.274C113.253 29.0931 113.236 29.1101 113.236 29.1311V35.8656C113.236 35.8866 113.253 35.9036 113.274 35.9036H114.629C114.65 35.9036 114.667 35.8866 114.667 35.8656V31.6496C114.667 31.6316 114.682 31.6171 114.7 31.6171C114.71 31.6171 114.72 31.6224 114.726 31.6312L117.649 35.8871C117.657 35.8974 117.668 35.9036 117.681 35.9036H118.859C118.88 35.9036 118.897 35.8866 118.897 35.8656V29.1311ZM126.362 35.8656C126.362 35.8866 126.379 35.9036 126.4 35.9036H127.755C127.776 35.9036 127.793 35.8866 127.793 35.8656V33.1282C127.793 33.1072 127.81 33.0903 127.831 33.0903H130.508C130.528 33.0903 130.545 33.0733 130.545 33.0523V31.941C130.545 31.9201 130.528 31.9031 130.508 31.9031H127.831C127.81 31.9031 127.793 31.8861 127.793 31.8651V30.3182C127.793 30.2973 127.81 30.2803 127.831 30.2803H130.805C130.826 30.2803 130.843 30.2633 130.843 30.2423V29.1311C130.843 29.1101 130.826 29.0931 130.805 29.0931H126.4C126.379 29.0931 126.362 29.1101 126.362 29.1311V35.8656ZM131.936 35.9036C131.915 35.9036 131.898 35.8866 131.898 35.8656V29.1311C131.898 29.1101 131.915 29.0931 131.936 29.0931H136.42C136.441 29.0931 136.458 29.1101 136.458 29.1311V30.2423C136.458 30.2633 136.441 30.2803 136.42 30.2803H133.367C133.346 30.2803 133.329 30.2973 133.329 30.3182V31.8651C133.329 31.8861 133.346 31.9031 133.367 31.9031H136.186C136.207 31.9031 136.224 31.9201 136.224 31.941V33.0523C136.224 33.0733 136.207 33.0903 136.186 33.0903H133.367C133.346 33.0903 133.329 33.1072 133.329 33.1282V34.6784C133.329 34.6994 133.346 34.7164 133.367 34.7164H136.434C136.454 34.7164 136.471 34.7334 136.471 34.7543V35.8656C136.471 35.8866 136.454 35.9036 136.434 35.9036H131.936ZM137.689 35.8656C137.689 35.8866 137.706 35.9036 137.727 35.9036H139.082C139.103 35.9036 139.12 35.8866 139.12 35.8656V33.4893H140.164L141.435 35.8834C141.442 35.8958 141.455 35.9036 141.469 35.9036H142.962C142.99 35.9036 143.009 35.8728 142.995 35.8475L141.589 33.2578C141.61 33.2487 141.631 33.2395 141.651 33.2299C142.019 33.057 142.299 32.8087 142.493 32.485C142.687 32.1591 142.784 31.7701 142.784 31.3178C142.784 30.8678 142.688 30.4765 142.497 30.1439C142.307 29.8092 142.031 29.5509 141.667 29.3691C141.306 29.1851 140.87 29.0931 140.359 29.0931H137.727C137.706 29.0931 137.689 29.1101 137.689 29.1311V35.8656ZM139.12 32.3321H140.091C140.364 32.3321 140.591 32.2944 140.772 32.219C140.952 32.1436 141.087 32.0306 141.175 31.8798C141.265 31.7291 141.31 31.5417 141.31 31.3178C141.31 31.0917 141.265 30.901 141.175 30.7458C141.087 30.5907 140.951 30.4732 140.768 30.3933C140.588 30.3113 140.36 30.2703 140.084 30.2703H139.158C139.137 30.2703 139.12 30.2873 139.12 30.3083V32.3321Z" fill="#E40615"/>
<defs>
<linearGradient id="paint0_linear_4595_12568" x1="32" y1="4" x2="0" y2="20" gradientUnits="userSpaceOnUse">
<stop stop-color="#EEAD4D"/>
<stop offset="1" stop-color="#FFFFC6"/>
</linearGradient>
<linearGradient id="paint1_linear_4595_12568" x1="4.76837e-07" y1="36" x2="32" y2="20" gradientUnits="userSpaceOnUse">
<stop stop-color="#EEAD4D"/>
<stop offset="1" stop-color="#FFFFC6"/>
</linearGradient>
</defs>
</svg>
