<svg width="126" height="40" viewBox="0 0 126 40" fill="none" xmlns="http://www.w3.org/2000/svg">
<g clip-path="url(#clip0_5317_16518)">
<path d="M36.7927 16.7171V8.07293H42.4857V9.23988H38.1496V11.7564H41.8827V12.9239H38.149V15.514H42.4851V16.6809H36.7927V16.7171ZM54.0608 15.9148C53.4954 16.4615 52.6652 16.7171 51.7604 16.7171H48.6308V8.07293H51.7604C52.7027 8.07293 53.4954 8.32792 54.0608 8.87521C55.0414 9.82336 54.9656 11.0632 54.9656 12.3405C54.9656 13.5803 55.0038 14.9667 54.0608 15.9148ZM53.1185 9.82336C52.7409 9.42251 52.2506 9.23988 51.6095 9.23988H49.9514V15.5134H51.6095C52.2506 15.5134 52.7409 15.3313 53.1185 14.9299C53.5706 14.4188 53.6087 13.5074 53.6087 12.3037C53.6087 11.1368 53.6087 10.3339 53.1185 9.82336ZM66.5778 15.8051C65.899 16.4983 65.0694 16.79 64.127 16.79C63.1846 16.79 62.3925 16.4621 61.7895 15.8781C60.9223 15.0396 60.9223 14.0547 60.9223 12.4134C60.9223 10.7353 60.9223 9.78718 61.7895 8.94815C62.3925 8.36467 63.1846 8.03618 64.127 8.03618C66.0123 8.03618 67.1432 9.23988 67.3692 10.7353H66.0123C65.7857 9.78718 65.1451 9.23988 64.127 9.23988C63.5991 9.23988 63.1089 9.45869 62.8071 9.78718C62.355 10.2615 62.2792 10.7353 62.2792 12.4863C62.2792 14.2367 62.3925 14.7111 62.8071 15.1855C63.1089 15.5134 63.5991 15.696 64.127 15.696C64.73 15.696 65.2203 15.4772 65.5972 15.0758C65.9366 14.7111 66.0499 14.2735 66.0499 13.7262V13.1795H64.127V12.0481H67.4074V13.3615C67.3692 14.4923 67.1808 15.2222 66.5778 15.8051ZM73.6283 16.7171V8.07293H79.3219V9.23988H74.9858V11.7564H78.7183V12.9239H74.9858V15.514H79.3219V16.6809H73.6283V16.7171ZM85.4683 16.7171V8.07293H86.8257V15.5501H91.1237V16.7171H85.4683ZM96.9307 16.7171V8.07293H102.624V9.23988H98.2876V11.7564H102.021V12.9239H98.2876V15.514H102.624V16.6809H96.9307V16.7171ZM111.144 16.7906C109.788 16.7906 108.845 16.4983 107.977 15.6593L108.882 14.784C109.523 15.4043 110.24 15.6225 111.183 15.6225C112.351 15.6225 113.03 15.1487 113.03 14.3097C113.03 13.945 112.916 13.6171 112.69 13.3983C112.464 13.1795 112.238 13.106 111.71 13.033L110.655 12.8872C109.938 12.7781 109.335 12.5593 108.958 12.1946C108.505 11.7932 108.317 11.2459 108.317 10.5533C108.317 9.05783 109.448 8 111.295 8C112.464 8 113.294 8.29174 114.086 8.9849L113.218 9.82336C112.653 9.31282 112.012 9.16695 111.258 9.16695C110.202 9.16695 109.637 9.75042 109.637 10.5165C109.637 10.845 109.749 11.1 109.976 11.3188C110.202 11.5014 110.579 11.6473 110.994 11.7202L112.012 11.8661C112.841 11.9752 113.294 12.1946 113.671 12.5225C114.161 12.9239 114.387 13.5442 114.387 14.3097C114.35 15.8419 113.03 16.7906 111.144 16.7906ZM122.757 16.7906C121.4 16.7906 120.457 16.4983 119.59 15.6593L120.495 14.784C121.136 15.4043 121.852 15.6225 122.795 15.6225C123.964 15.6225 124.643 15.1487 124.643 14.3097C124.643 13.945 124.529 13.6171 124.303 13.3983C124.077 13.1795 123.85 13.106 123.323 13.033L122.267 12.8872C121.551 12.7781 120.948 12.5593 120.571 12.1946C120.118 11.7932 119.929 11.2459 119.929 10.5533C119.929 9.05783 121.06 8 122.908 8C124.077 8 124.906 8.29174 125.698 8.9849L124.831 9.82336C124.266 9.31282 123.624 9.16695 122.87 9.16695C121.815 9.16695 121.249 9.75042 121.249 10.5165C121.249 10.845 121.362 11.1 121.588 11.3188C121.815 11.5014 122.192 11.6473 122.606 11.7202L123.624 11.8661C124.454 11.9752 124.906 12.1946 125.283 12.5225C125.773 12.9239 126 13.5442 126 14.3097C125.962 15.8419 124.605 16.7906 122.757 16.7906ZM39.1677 32C37.8096 32 36.8672 31.7083 36 30.8687L36.9054 29.994C37.546 30.6142 38.2623 30.8325 39.2053 30.8325C40.3737 30.8325 41.0525 30.3587 41.0525 29.5197C41.0525 29.155 40.9391 28.8265 40.7125 28.6077C40.487 28.3889 40.261 28.316 39.7331 28.243L38.6774 28.0971C37.9611 27.988 37.3575 27.7687 36.98 27.404C36.5279 27.0031 36.3394 26.4558 36.3394 25.7627C36.3394 24.2672 37.4708 23.2094 39.3174 23.2094C40.4864 23.2094 41.3167 23.5011 42.1082 24.1943L41.2409 25.0328C40.6749 24.5228 40.0349 24.3769 39.2804 24.3769C38.2247 24.3769 37.6593 24.9604 37.6593 25.7265C37.6593 26.0544 37.7726 26.31 37.9987 26.5288C38.2247 26.7114 38.6011 26.8573 39.0168 26.9302L40.0349 27.0761C40.864 27.1852 41.3167 27.404 41.693 27.7325C42.1839 28.1333 42.4094 28.7536 42.4094 29.5197C42.3718 31.0513 41.0149 32 39.1677 32ZM51.1198 28.3889V31.9632H49.7629V28.3889L47.0849 23.3191H48.5557L50.4416 27.1122L52.3264 23.3191H53.7966L51.1198 28.3889ZM61.6774 32C60.3199 32 59.3775 31.7083 58.5103 30.8687L59.4151 29.994C60.0563 30.6142 60.7726 30.8325 61.715 30.8325C62.884 30.8325 63.5627 30.3587 63.5627 29.5197C63.5627 29.155 63.4494 28.8265 63.2234 28.6077C62.9967 28.3889 62.7707 28.316 62.2428 28.243L61.1871 28.0971C60.4708 27.988 59.8672 27.7687 59.4902 27.404C59.0381 27.0031 58.8497 26.4558 58.8497 25.7627C58.8497 24.2672 59.9805 23.2094 61.8283 23.2094C62.9967 23.2094 63.8264 23.5011 64.6184 24.1943L63.7512 25.0328C63.1852 24.5228 62.5446 24.3769 61.7901 24.3769C60.7344 24.3769 60.169 24.9604 60.169 25.7265C60.169 26.0544 60.2823 26.31 60.5084 26.5288C60.7344 26.7114 61.112 26.8573 61.5265 26.9302L62.5446 27.0761C63.3737 27.1852 63.8264 27.404 64.2033 27.7325C64.6936 28.1333 64.9197 28.7536 64.9197 29.5197C64.8821 31.0513 63.5246 32 61.6774 32ZM73.9689 24.486V31.9632H72.6114V24.486H70.1606V23.3191H76.4196V24.486H73.9689ZM82.2642 31.9271V23.2823H87.9572V24.4499H83.6217V26.9664H87.3542V28.1333H83.6217V30.7234H87.9572V31.8903H82.2642V31.9271ZM100.626 31.9271V26.1641L98.5518 30.3587H97.5337L95.4223 26.1641V31.9271H94.0648V23.2823H95.4223L98.0239 28.6444L100.587 23.2823H101.945V31.9271H100.626ZM110.918 32C109.561 32 108.619 31.7083 107.751 30.8687L108.656 29.994C109.297 30.6142 110.014 30.8325 110.957 30.8325C112.125 30.8325 112.804 30.3587 112.804 29.5197C112.804 29.155 112.691 28.8265 112.464 28.6077C112.238 28.3889 112.012 28.316 111.484 28.243L110.429 28.0971C109.712 27.988 109.109 27.7687 108.732 27.404C108.279 27.0031 108.091 26.4558 108.091 25.7627C108.091 24.2672 109.222 23.2094 111.069 23.2094C112.238 23.2094 113.068 23.5011 113.859 24.1943L112.992 25.0328C112.427 24.5228 111.786 24.3769 111.032 24.3769C109.976 24.3769 109.411 24.9604 109.411 25.7265C109.411 26.0544 109.523 26.31 109.75 26.5288C109.976 26.7114 110.353 26.8573 110.768 26.9302L111.786 27.0761C112.615 27.1852 113.068 27.404 113.445 27.7325C113.935 28.1333 114.161 28.7536 114.161 29.5197C114.124 31.0513 112.804 32 110.918 32Z" fill="black"/>
<path d="M24 13.9467H1.71548V11.9891H24V6.96395H1.71548V5.02513H24V0H0V18.9723H24V13.9467ZM24 31.1723V28.0109H1.71548V26.0716H24V21.0465H0V33.0365H22.284V34.9936H0V40H24V31.1723Z" fill="black"/>
</g>
<defs>
<clipPath id="clip0_5317_16518">
<rect width="126" height="40" fill="white"/>
</clipPath>
</defs>
</svg>
