<?xml version="1.0" encoding="UTF-8"?>
<svg xmlns="http://www.w3.org/2000/svg" xmlns:xlink="http://www.w3.org/1999/xlink" width="134px" height="27px" viewBox="0 0 180 44" version="1.1">
<g id="surface1">
<path style=" stroke:none;fill-rule:nonzero;fill:rgb(13.72549%,12.156863%,12.54902%);fill-opacity:1;" d="M 14.6875 40.609375 C 18.261719 40.613281 21.832031 40.269531 25.34375 39.59375 L 25.921875 42.667969 C 25.921875 42.667969 21.699219 43.953125 14.941406 43.953125 C 5.003906 43.953125 0 42.152344 0 28.589844 C 0 24.539062 0.585938 20.746094 1.558594 18.496094 C 3.316406 14.445312 7.214844 13.222656 14.167969 13.222656 C 19.5625 13.222656 23.460938 13.804688 25.472656 16.246094 C 27.097656 18.300781 27.746094 21.132812 27.746094 26.144531 C 27.746094 27.300781 27.683594 28.394531 27.617188 29.605469 C 26.511719 29.667969 22.417969 30.117188 17.542969 30.117188 C 12.851562 30.117188 8.578125 29.871094 8.578125 29.871094 L 6.5625 28.519531 C 6.171875 28.273438 5.914062 28.070312 5.390625 28.070312 C 4.15625 28.070312 4.289062 29.226562 4.289062 30.0625 C 4.289062 32.761719 4.351562 36.171875 6.238281 38.21875 C 7.800781 39.96875 10.65625 40.609375 14.6875 40.609375 Z M 14.566406 16.4375 C 5.015625 16.4375 4.753906 18.109375 4.363281 26.402344 C 8.839844 27.109375 14.101562 26.988281 14.101562 26.988281 C 14.101562 26.988281 19.496094 27.113281 23.394531 26.738281 C 23.394531 17.402344 21.574219 16.4375 14.566406 16.4375 Z M 14.566406 16.4375 "/>
<path style=" stroke:none;fill-rule:nonzero;fill:rgb(13.72549%,12.156863%,12.54902%);fill-opacity:1;" d="M 49.96875 3.453125 C 48.609375 3.300781 47.246094 3.214844 45.875 3.207031 C 43.863281 3.207031 41.847656 3.335938 40.9375 4.300781 C 39.964844 5.390625 39.835938 7.449219 39.835938 9.636719 L 39.835938 13.609375 L 49.378906 13.609375 L 49.378906 16.757812 L 39.835938 16.757812 L 39.835938 39.449219 C 39.835938 40.285156 39.964844 40.480469 40.742188 40.609375 L 42.433594 40.929688 L 42.433594 43.503906 L 33.140625 43.503906 L 33.140625 40.996094 L 34.828125 40.675781 C 35.609375 40.480469 35.738281 40.289062 35.738281 39.519531 L 35.738281 16.757812 L 30.019531 16.757812 L 30.019531 13.609375 L 35.738281 13.609375 L 35.738281 9.558594 C 35.738281 6.347656 35.933594 3.257812 38.664062 1.402344 C 40.289062 0.238281 42.890625 0.046875 45.292969 0.046875 C 46.945312 0.078125 48.597656 0.230469 50.230469 0.496094 Z M 49.96875 3.453125 "/>
<path style=" stroke:none;fill-rule:nonzero;fill:rgb(13.72549%,12.156863%,12.54902%);fill-opacity:1;" d="M 53.082031 43.503906 L 53.082031 40.996094 L 54.769531 40.675781 C 55.550781 40.480469 55.679688 40.289062 55.679688 39.519531 L 55.679688 17.660156 C 55.679688 16.824219 55.550781 16.632812 54.769531 16.503906 L 53.082031 16.179688 L 53.082031 13.609375 L 59.773438 13.609375 L 59.773438 39.453125 C 59.773438 40.289062 59.90625 40.480469 60.683594 40.609375 L 62.375 40.929688 L 62.375 43.503906 Z M 54.445312 5.574219 L 54.445312 0.6875 L 59.578125 0.6875 L 59.578125 5.574219 Z M 54.445312 5.574219 "/>
<path style=" stroke:none;fill-rule:nonzero;fill:rgb(13.72549%,12.156863%,12.54902%);fill-opacity:1;" d="M 89.351562 14.507812 L 88.828125 17.53125 C 85.707031 16.890625 82.53125 16.546875 79.34375 16.503906 C 71.089844 16.503906 69.269531 18.304688 69.269531 28.589844 C 69.269531 38.878906 71.089844 40.675781 79.34375 40.675781 C 82.53125 40.636719 85.707031 40.289062 88.828125 39.648438 L 89.351562 42.667969 C 85.855469 43.492188 82.28125 43.925781 78.691406 43.953125 C 68.554688 43.953125 64.980469 41.253906 64.980469 28.589844 C 64.980469 15.925781 68.554688 13.226562 78.691406 13.226562 C 82.28125 13.257812 85.855469 13.6875 89.351562 14.507812 Z M 89.351562 14.507812 "/>
<path style=" stroke:none;fill-rule:nonzero;fill:rgb(13.72549%,12.156863%,12.54902%);fill-opacity:1;" d="M 105.855469 43.953125 C 94.222656 43.953125 92.144531 41.253906 92.144531 28.589844 C 92.144531 15.925781 94.222656 13.226562 105.855469 13.226562 C 117.488281 13.226562 119.566406 15.925781 119.566406 28.589844 C 119.566406 41.253906 117.488281 43.953125 105.855469 43.953125 Z M 105.855469 16.441406 C 97.277344 16.441406 96.429688 17.726562 96.429688 28.589844 C 96.429688 39.457031 97.277344 40.742188 105.855469 40.742188 C 114.433594 40.742188 115.277344 39.457031 115.277344 28.589844 C 115.277344 17.726562 114.433594 16.4375 105.855469 16.4375 Z M 105.855469 16.441406 "/>
<path style=" stroke:none;fill-rule:nonzero;fill:rgb(13.72549%,12.156863%,12.54902%);fill-opacity:1;" d="M 145.039062 43.503906 L 144.777344 41.898438 C 144.714844 41.511719 144.585938 40.871094 143.671875 40.871094 C 143.21875 40.871094 142.761719 41.191406 142.375 41.449219 L 139.242188 43.503906 C 137.417969 43.804688 135.570312 43.953125 133.722656 43.953125 C 123.84375 43.953125 122.21875 37.652344 122.21875 28.589844 C 122.21875 19.847656 123.777344 13.226562 134.242188 13.226562 C 137.730469 13.246094 141.210938 13.589844 144.636719 14.253906 L 144.636719 4.742188 C 144.636719 3.90625 144.511719 3.714844 143.730469 3.585938 L 142.050781 3.257812 L 142.050781 0.6875 L 148.746094 0.6875 L 148.746094 39.453125 C 148.746094 40.289062 148.875 40.480469 149.652344 40.609375 L 151.339844 40.929688 L 151.339844 43.503906 Z M 144.648438 17.277344 C 141.660156 16.808594 138.640625 16.550781 135.613281 16.503906 C 128.078125 16.503906 126.515625 19.011719 126.515625 28.589844 C 126.515625 38.230469 128.078125 40.613281 135.613281 40.613281 C 140.164062 40.613281 144.648438 39.328125 144.648438 39.328125 Z M 144.648438 17.277344 "/>
<path style=" stroke:none;fill-rule:nonzero;fill:rgb(13.72549%,12.156863%,12.54902%);fill-opacity:1;" d="M 166.9375 40.609375 C 170.515625 40.613281 174.082031 40.269531 177.59375 39.59375 L 178.179688 42.675781 C 178.179688 42.675781 173.957031 43.960938 167.199219 43.960938 C 157.257812 43.960938 152.253906 42.164062 152.253906 28.597656 C 152.253906 24.546875 152.835938 20.753906 153.8125 18.507812 C 155.566406 14.457031 159.464844 13.234375 166.417969 13.234375 C 171.8125 13.234375 175.710938 13.8125 177.726562 16.253906 C 179.351562 18.3125 180 21.140625 180 26.152344 C 180 27.308594 179.9375 28.402344 179.871094 29.613281 C 178.761719 29.679688 174.667969 30.128906 169.796875 30.128906 C 165.105469 30.128906 160.828125 29.878906 160.828125 29.878906 L 158.8125 28.53125 C 158.421875 28.285156 158.164062 28.082031 157.640625 28.082031 C 156.40625 28.082031 156.539062 29.238281 156.539062 30.074219 C 156.539062 32.773438 156.601562 36.179688 158.488281 38.230469 C 160.050781 39.96875 162.90625 40.609375 166.9375 40.609375 Z M 166.804688 16.4375 C 157.253906 16.4375 156.992188 18.109375 156.605469 26.402344 C 161.089844 27.109375 166.351562 26.988281 166.351562 26.988281 C 166.351562 26.988281 171.746094 27.113281 175.644531 26.738281 C 175.644531 17.402344 173.824219 16.4375 166.808594 16.4375 Z M 166.804688 16.4375 "/>
</g>
</svg>
