<svg width="175" height="40" viewBox="0 0 175 40" fill="none" xmlns="http://www.w3.org/2000/svg">
<g clip-path="url(#clip0_4512_20065)">
<path d="M11.1434 21.4357C10.6011 21.4357 10.071 21.2742 9.62017 20.9716C9.1693 20.669 8.81789 20.239 8.61039 19.7359C8.40288 19.2327 8.3486 18.6791 8.4544 18.145C8.5602 17.6109 8.82133 17.1203 9.20477 16.7353L14.6507 11.2663C14.746 11.1707 14.8215 11.0571 14.8731 10.9321C14.9246 10.8071 14.9511 10.6732 14.9511 10.5379C14.9511 10.4026 14.9246 10.2686 14.873 10.1437C14.8215 10.0187 14.7459 9.90511 14.6506 9.80946C14.5554 9.7138 14.4423 9.63793 14.3178 9.58616C14.1933 9.5344 14.0599 9.50776 13.9252 9.50777C13.7905 9.50777 13.6571 9.53443 13.5327 9.58621C13.4082 9.63799 13.2951 9.71387 13.1999 9.80954L7.69665 15.3365C7.18248 15.8529 6.48506 16.1431 5.75784 16.1431C5.03062 16.1432 4.33316 15.8531 3.8189 15.3368C3.30463 14.8205 3.01569 14.1201 3.01563 13.3898C3.01556 12.6595 3.30439 11.9591 3.81857 11.4427L9.32244 5.91559C10.5519 4.68106 12.1859 4.001 13.9253 4.001C14.7805 3.99867 15.6276 4.16669 16.4177 4.49533C17.2078 4.82397 17.9252 5.3067 18.5283 5.91559C21.0661 8.46445 21.0661 12.6114 18.5283 15.1601L13.0822 20.6292C12.8279 20.8853 12.5257 21.0884 12.1929 21.2268C11.8602 21.3652 11.5035 21.4362 11.1434 21.4357Z" fill="#0033CC"/>
<path d="M29.1919 16.6177C27.9622 15.3832 26.3284 14.7031 24.5889 14.7031C22.8494 14.7031 21.2152 15.3832 19.986 16.6177L13.9918 22.6373L11.9936 24.6439L5.33391 31.3327C4.8337 31.8518 4.55668 32.5476 4.56259 33.2699C4.5685 33.9923 4.85686 34.6834 5.3655 35.1942C5.87414 35.7051 6.56231 35.9947 7.28164 36.0007C8.00097 36.0067 8.69384 35.7286 9.21085 35.2263L11.3256 33.1025C11.5275 33.3816 11.7509 33.6444 11.9936 33.8886C13.2232 35.1232 14.8571 35.8031 16.5964 35.8031C17.4516 35.8054 18.2987 35.6374 19.0888 35.3088C19.8789 34.9802 20.5963 34.4975 21.1994 33.8886L29.1919 25.8624C30.4212 24.6277 31.0984 22.9868 31.0984 21.2401C31.1008 20.3813 30.9335 19.5306 30.6062 18.7372C30.2789 17.9437 29.7982 17.2234 29.1919 16.6177ZM25.3143 21.9685L17.3218 29.994C17.2266 30.0897 17.1135 30.1656 16.989 30.2173C16.8645 30.2691 16.7311 30.2957 16.5964 30.2957C16.4617 30.2957 16.3283 30.2691 16.2039 30.2173C16.0794 30.1655 15.9663 30.0896 15.8711 29.9939C15.7758 29.8983 15.7003 29.7847 15.6487 29.6597C15.5972 29.5347 15.5706 29.4008 15.5706 29.2655C15.5706 29.1302 15.5972 28.9962 15.6488 28.8713C15.7003 28.7463 15.7759 28.6327 15.8711 28.5371L17.8692 26.5306L23.8635 20.511C23.9587 20.4153 24.0718 20.3394 24.1963 20.2877C24.3207 20.2359 24.4541 20.2092 24.5888 20.2092C24.7236 20.2092 24.8569 20.2359 24.9814 20.2876C25.1059 20.3394 25.219 20.4153 25.3142 20.5109C25.4095 20.6066 25.4851 20.7201 25.5366 20.8451C25.5882 20.9701 25.6147 21.1041 25.6147 21.2393C25.6147 21.3746 25.5882 21.5086 25.5367 21.6336C25.4851 21.7586 25.4096 21.8721 25.3143 21.9678V21.9685Z" fill="#0033CC"/>
<path d="M25.3303 16.596C23.8595 15.1193 21.4733 15.1193 20.002 16.596L14.7432 21.8757L14.746 21.8786C14.7146 21.9074 14.6833 21.937 14.6528 21.9676C13.7539 22.8703 12.5346 23.3774 11.2633 23.3774C9.99199 23.3774 8.77275 22.8702 7.8738 21.9675C6.97486 21.0647 6.46984 19.8403 6.46986 18.5636C6.46987 17.287 6.97492 16.0626 7.87388 15.1598C7.90433 15.1293 7.93362 15.098 7.96242 15.0663L7.96473 15.0686L13.225 9.79039C13.4202 9.615 13.6748 9.52132 13.9366 9.52859C14.1984 9.53587 14.4475 9.64356 14.6326 9.82952C14.8178 10.0155 14.9251 10.2656 14.9323 10.5285C14.9395 10.7914 14.8463 11.0471 14.6716 11.2431L14.6736 11.245C16.145 9.76759 16.145 7.37192 14.6736 5.89429C13.2022 4.41666 10.8167 4.41683 9.3453 5.89429L4.08714 11.1748L4.08944 11.1771C4.05801 11.2059 4.02674 11.2355 3.99629 11.266C0.0227593 15.2563 -0.00817978 21.7273 3.89903 25.7586C3.9303 25.7935 3.96272 25.8277 3.99629 25.8613C5.93789 27.8116 8.51817 28.8842 11.2634 28.8842C14.0085 28.8842 16.5893 27.81 18.5304 25.8613C18.5609 25.8308 18.5902 25.7995 18.619 25.7678L18.6206 25.7696L23.8809 20.4914C24.0761 20.316 24.3307 20.2223 24.5925 20.2296C24.8543 20.2369 25.1033 20.3446 25.2885 20.5305C25.4737 20.7165 25.5809 20.9666 25.5882 21.2295C25.5954 21.4924 25.5021 21.7481 25.3275 21.9441L25.3295 21.9461C26.8017 20.4693 26.8017 18.0736 25.3303 16.596Z" fill="#0033CC"/>
<path d="M45.5071 23.6731C46.5852 23.6731 47.5051 23.2505 48.0311 22.6696L51.186 24.4916C49.8978 26.2867 47.9521 27.2109 45.4544 27.2109C40.9587 27.2109 38.1719 24.1746 38.1719 20.2407C38.1719 16.3067 41.0114 13.2705 45.1661 13.2705C49.0047 13.2705 51.8442 16.2539 51.8442 20.2407C51.8463 20.7728 51.7935 21.3037 51.6865 21.8249H42.3521C42.8516 23.1978 44.061 23.6731 45.5071 23.6731ZM47.9262 18.8677C47.5054 17.3365 46.3224 16.7819 45.1394 16.7819C43.6407 16.7819 42.6418 17.5213 42.2734 18.8677H47.9262Z" fill="#333333"/>
<path d="M54.082 7.56836H58.0258V26.8423H54.082V7.56836Z" fill="#333333"/>
<path d="M74.4019 13.64V26.8413H70.4582V25.6005C69.5906 26.6037 68.3023 27.2109 66.5414 27.2109C63.0973 27.2109 60.2578 24.1746 60.2578 20.2407C60.2578 16.3067 63.0973 13.2705 66.5414 13.2705C68.3023 13.2705 69.591 13.8779 70.4582 14.881V13.64H74.4019ZM70.4582 20.2407C70.4582 18.2605 69.1438 17.0195 67.3295 17.0195C65.5153 17.0195 64.2011 18.2605 64.2011 20.2407C64.2011 22.2209 65.5155 23.4619 67.3295 23.4619C69.1436 23.4619 70.4582 22.2209 70.4582 20.2407Z" fill="#333333"/>
<path d="M87.3635 22.881C87.3635 25.9172 84.7343 27.2109 81.8948 27.2109C79.2657 27.2109 77.2676 26.2077 76.2422 24.069L79.6601 22.1153C80.0019 23.1186 80.7381 23.6731 81.8948 23.6731C82.8414 23.6731 83.3146 23.3827 83.3146 22.8547C83.3146 21.4025 76.847 22.1682 76.847 17.6004C76.847 14.7225 79.2662 13.2705 82.0001 13.2705C84.1298 13.2705 86.0229 14.2209 87.1272 16.0955L83.7624 17.9172C83.3942 17.2307 82.8684 16.7556 82.0015 16.7556C81.318 16.7556 80.8972 17.02 80.8972 17.495C80.8957 18.9997 87.3635 17.9964 87.3635 22.881Z" fill="#333333"/>
<path d="M98.4844 10.1029C98.4844 8.80921 99.5623 7.72656 100.851 7.72656C102.139 7.72656 103.217 8.80921 103.217 10.1029C103.217 11.3966 102.139 12.4789 100.851 12.4789C99.5623 12.4789 98.4844 11.3966 98.4844 10.1029ZM98.8793 13.6407H102.823V26.842H98.8787L98.8793 13.6407Z" fill="#333333"/>
<path d="M105.055 20.2407C105.055 16.3074 108.026 13.2705 112.022 13.2705C114.573 13.2705 116.833 14.6169 117.964 16.65L114.52 18.6566C114.073 17.7325 113.126 17.178 111.969 17.178C110.26 17.178 108.998 18.4188 108.998 20.2407C108.998 22.0626 110.26 23.3034 111.969 23.3034C113.126 23.3034 114.099 22.7489 114.52 21.8249L117.964 23.8051C116.834 25.8645 114.599 27.2109 112.022 27.2109C108.026 27.2109 105.055 24.1753 105.055 20.2407Z" fill="#333333"/>
<path d="M133.824 20.2407C133.824 24.174 130.985 27.2109 127.541 27.2109C125.78 27.2109 124.491 26.6037 123.624 25.6005V32.1219H119.68V13.64H123.623V14.881C124.491 13.8779 125.779 13.2705 127.54 13.2705C130.985 13.2705 133.824 16.3067 133.824 20.2407ZM129.881 20.2407C129.881 18.2605 128.566 17.0194 126.752 17.0194C124.937 17.0194 123.623 18.2603 123.623 20.2405C123.623 22.2207 124.938 23.4617 126.752 23.4617C128.566 23.4617 129.881 22.2209 129.881 20.2407Z" fill="#333333"/>
<path d="M149.546 13.64V26.8413H145.603V25.6005C144.735 26.6037 143.447 27.2109 141.686 27.2109C138.242 27.2109 135.402 24.1746 135.402 20.2407C135.402 16.3067 138.242 13.2705 141.686 13.2705C143.447 13.2705 144.736 13.8779 145.603 14.881V13.64H149.546ZM145.603 20.2407C145.603 18.2605 144.288 17.0195 142.474 17.0195C140.66 17.0195 139.346 18.2605 139.346 20.2407C139.346 22.2209 140.66 23.4619 142.474 23.4619C144.288 23.4619 145.603 22.2209 145.603 20.2407Z" fill="#333333"/>
<path d="M157.429 17.4435V22.1166C157.429 23.2518 158.402 23.3574 160.137 23.2518V26.8427C154.984 27.3715 153.486 25.8129 153.486 22.1161V17.4435H151.383V13.6414H153.486V11.612L157.429 10.4102V13.6414H160.138V17.4435H157.429Z" fill="#333333"/>
<path d="M93.9415 17.4435V22.1166C93.9415 23.2518 94.9144 23.3574 96.6496 23.2518V26.8427C91.4965 27.3715 89.9977 25.8129 89.9977 22.1161V17.4435H87.8945V13.6414H89.9986V11.612L93.9415 10.4102V13.6414H96.6496V17.4435H93.9415Z" fill="#333333"/>
<path d="M174.991 18.7365V26.8421H171.048V19.3173C171.048 17.6811 170.023 16.9146 168.76 16.9146C167.314 16.9146 166.315 17.7595 166.315 19.6339V26.8419H162.371V8.90363L166.315 7.70117V14.8817C167.025 13.9049 168.339 13.2712 170.074 13.2712C172.73 13.2712 174.991 15.1723 174.991 18.7365Z" fill="#333333"/>
</g>
<defs>
<clipPath id="clip0_4512_20065">
<rect width="174" height="40" fill="white" transform="translate(0.992188 0.000976562)"/>
</clipPath>
</defs>
</svg>
