<svg xmlns:xlink="http://www.w3.org/1999/xlink" height="15" viewBox="0 0 13.858746 1.7681576" version="1.1" id="svg1" xml:space="preserve" xmlns="http://www.w3.org/2000/svg" xmlns:svg="http://www.w3.org/2000/svg" width="118" ><defs id="defs1"></defs><g id="layer1" transform="translate(-83.200389,-141.46945)"><g fill="#1A1A1A" stroke-width="0.23403px" id="g1278" transform="translate(66.230196,82.070457)"><path d="m 18.237,59.399 h -1.2668 v 1.7681 h 1.2986 v -0.29221 h -0.84138 v -0.47546 h 0.762 v -0.29221 h -0.762 V 59.6912 h 0.80962 z" id="path1262" fill="#1A1A1A" stroke-width="0.23403px"></path><path d="m 19.025,59.399 h -0.52705 v 1.7681 h 0.4191 v -1.2382 h 0.0063 l 0.5588,1.2382 h 0.5207 V 59.399 h -0.4191 v 1.2109 h -0.0064 z" id="path1264" fill="#1A1A1A" stroke-width="0.23403px"></path><path d="m 21.647,59.399 h -1.4478 v 0.29221 h 0.4953 v 1.4759 h 0.4572 v -1.4759 h 0.4953 z" id="path1266" fill="#1A1A1A" stroke-width="0.23403px"></path><path d="m 21.844,59.399 v 1.7681 h 0.4572 v -0.74785 h 0.24448 q 0.14288,0 0.2032,0.05943 0.06032,0.05943 0.06668,0.16344 l 0.0127,0.33926 q 0.0032,0.052 0.0127,0.10153 0.0095,0.04706 0.04445,0.0842 h 0.4953 v -0.01486 q -0.0635,-0.02724 -0.08255,-0.10154 -0.0127,-0.07428 -0.01905,-0.21544 -0.0032,-0.07182 -0.0063,-0.12877 -0.0032,-0.05944 -0.0095,-0.10896 -0.01905,-0.14858 -0.09842,-0.21544 -0.07937,-0.06686 -0.25082,-0.08667 v -0.0049 q 0.19368,-0.0322 0.28575,-0.14363 0.09208,-0.11391 0.09208,-0.29221 0,-0.2303 -0.15875,-0.34173 -0.15875,-0.11391 -0.4445,-0.11391 z m 0.4572,0.77262 V 59.6615 h 0.2159 q 0.3175,0 0.3175,0.24516 0,0.14363 -0.0889,0.20554 -0.0889,0.05944 -0.254,0.05944 z" id="path1268" fill="#1A1A1A" stroke-width="0.23403px"></path><path d="m 23.917,59.399 h -0.51435 l 0.58738,1.0723 v 0.69585 h 0.4572 V 60.4713 l 0.58738,-1.0723 h -0.4953 l -0.3175,0.68347 h -0.0064 z" id="path1270" fill="#1A1A1A" stroke-width="0.23403px"></path><path d="m 25.07,59.399 0.41275,1.7681 h 0.51118 l 0.254,-1.2827 h 0.0063 l 0.254,1.2827 h 0.51118 l 0.41275,-1.7681 h -0.43815 l -0.25082,1.3075 h -0.0063 l -0.2667,-1.3075 h -0.43815 l -0.2667,1.3075 h -0.0064 L 25.50812,59.399 Z" id="path1272" fill="#1A1A1A" stroke-width="0.23403px"></path><path d="m 28.505,60.501 -0.21908,-0.7949 h -0.0063 l -0.21908,0.7949 z m 0.06032,-1.102 0.60008,1.7681 h -0.47625 l -0.10478,-0.37393 h -0.60325 l -0.10478,0.37393 h -0.47625 l 0.60008,-1.7681 z" id="path1274" fill="#1A1A1A" stroke-width="0.23403px"></path><path d="m 29.851,59.399 h -0.52705 v 1.7681 h 0.4191 v -1.2382 h 0.0064 l 0.5588,1.2382 h 0.5207 V 59.399 h -0.4191 v 1.2109 h -0.0063 z" id="path1276" fill="#1A1A1A" stroke-width="0.23403px"></path></g></g></svg>