<?xml version="1.0" encoding="UTF-8"?>
<svg version="1.1" xmlns="http://www.w3.org/2000/svg" width="642" height="188">
<path d="M0 0 C1.50820313 0.76957031 1.50820313 0.76957031 3.046875 1.5546875 C11.17735819 5.95694394 17.50843821 11.51744176 24 18 C25.22396484 19.2065625 25.22396484 19.2065625 26.47265625 20.4375 C32.66924165 26.89980518 36.90718701 34.1195399 41 42 C41.4846875 42.90492187 41.969375 43.80984375 42.46875 44.7421875 C52.95860629 65.78586263 53.54877488 92.00252103 46.375 114.125 C42.0324503 126.68607183 35.98125686 138.11578015 27 148 C26.18917969 148.90363281 25.37835938 149.80726563 24.54296875 150.73828125 C17.75343789 157.92544203 10.51531125 163.06850673 2 168 C1.15824219 168.49242187 0.31648437 168.98484375 -0.55078125 169.4921875 C-13.71467321 176.61617609 -26.67674158 178.83360429 -41.41796875 178.65185547 C-43.99888767 178.62501157 -46.57546058 178.65177446 -49.15625 178.68359375 C-63.57193405 178.71531984 -76.19713367 175.77774973 -88.875 168.6875 C-89.58350098 168.29997559 -90.29200195 167.91245117 -91.02197266 167.51318359 C-96.86415842 164.23722905 -102.06554202 160.54467726 -107 156 C-107.90105469 155.19046875 -108.80210938 154.3809375 -109.73046875 153.546875 C-126.48741121 137.73756653 -137.41440911 115.14578419 -138.4140625 92.046875 C-138.66624582 80.19030636 -138.75162678 68.36034776 -135 57 C-134.64808594 55.92492187 -134.29617187 54.84984375 -133.93359375 53.7421875 C-129.37511045 41.01454106 -123.05914225 30.03083242 -114 20 C-113.23945312 19.14535156 -112.47890625 18.29070313 -111.6953125 17.41015625 C-83.48421295 -12.60460376 -35.98647352 -19.10051287 0 0 Z " fill="#64B0C3" transform="translate(138,10)"/>
<path d="M0 0 C1.00546875 0.51304688 2.0109375 1.02609375 3.046875 1.5546875 C11.17735819 5.95694394 17.50843821 11.51744176 24 18 C25.22396484 19.2065625 25.22396484 19.2065625 26.47265625 20.4375 C35.72071764 30.08213349 46 45.40270806 46 59 C27.685 58.505 27.685 58.505 9 58 C10.546875 60.784375 12.09375 63.56875 13.6875 66.4375 C18.48559763 75.38102421 21.70261138 84.13977929 24 94 C24.16081055 94.66547852 24.32162109 95.33095703 24.48730469 96.01660156 C26.405645 104.08154156 27.46526447 111.7113996 27 120 C23.85069107 121.04976964 21.61185544 121.10131595 18.3125 121.0625 C17.31863281 121.05347656 16.32476562 121.04445312 15.30078125 121.03515625 C14.16189453 121.01775391 14.16189453 121.01775391 13 121 C12.74347656 119.92105469 12.48695313 118.84210938 12.22265625 117.73046875 C7.58108217 99.18717123 -0.24778394 82.33406573 -12.765625 67.76953125 C-15 65 -15 65 -15 63 C-43.35956585 72.59080502 -71.50248498 87.80357837 -89 113 C-93.84693754 112.51530625 -97.07551481 110.13880888 -100.875 107.3125 C-101.49197754 106.86277832 -102.10895508 106.41305664 -102.74462891 105.94970703 C-107.00325003 102.81787185 -111.07828391 99.54821932 -115 96 C-112.17574485 91.56093544 -109.10821537 87.63224131 -105.5625 83.75 C-105.09779297 83.22148438 -104.63308594 82.69296875 -104.15429688 82.1484375 C-101.27617494 78.98531326 -98.92043293 77.53320533 -95 76 C-94.32530655 74.67071035 -93.65998697 73.33665232 -93 72 C-90.93093111 70.17886518 -88.90924642 68.55065209 -86.6875 66.9375 C-86.03885986 66.4643335 -85.39021973 65.99116699 -84.72192383 65.50366211 C-71.26435092 56.00392238 -55.88192838 48.39287381 -40 44 C-39.67 43.67 -39.34 43.34 -39 43 C-48.98666308 36.67224365 -58.99883786 31.34087871 -70 27 C-71.14339844 26.53722656 -72.28679687 26.07445312 -73.46484375 25.59765625 C-85.24985938 21.23627251 -97.60754871 19.73420772 -110 18 C-105.40867296 8.41788568 -95.01423172 3.76868955 -86 -1 C-84.63875 -1.73089844 -84.63875 -1.73089844 -83.25 -2.4765625 C-57.57708573 -15.23474855 -24.95595511 -13.2458531 0 0 Z " fill="#64B1C4" transform="translate(138,10)"/>
<path d="M0 0 C4.39988006 1.31434117 8.37181308 3.09301536 12.47021484 5.12255859 C33.24093767 15.40037616 54.21515896 20.20272912 77.39477539 20.13037109 C79.43057735 20.1250182 81.46615788 20.13034386 83.50195312 20.13671875 C91.05875087 20.12932824 98.49084743 19.86579592 106 19 C109.12016346 41.29970634 109.12016346 41.29970634 105.83447266 47.03417969 C102.69509142 50.14657484 98.89905866 51.80638085 94.79345703 53.32080078 C92.42226648 54.21879317 90.31684238 55.48301735 88.125 56.75 C75.25371631 62.69198111 63.6358853 64.82512947 49.58203125 64.65185547 C47.00111233 64.62501157 44.42453942 64.65177446 41.84375 64.68359375 C27.426631 64.715323 14.80479732 61.77619296 2.125 54.6875 C1.42084961 54.30360107 0.71669922 53.91970215 -0.00878906 53.52416992 C-8.3467801 48.85968689 -15.00568271 43.40906001 -21 36 C-17.03049699 27.7689597 -12.9505077 19.65456792 -8.25 11.8125 C-7.88592041 11.20204834 -7.52184082 10.59159668 -7.14672852 9.96264648 C-4.99403222 6.42596861 -2.65509342 3.17534821 0 0 Z " fill="#6B6D6F" transform="translate(47,124)"/>
<path d="M0 0 C7.17121796 6.12177143 9.3892228 11.37152471 10.1875 20.5625 C10.31125 22.41875 10.435 24.275 10.5625 26.1875 C3.6325 26.1875 -3.2975 26.1875 -10.4375 26.1875 C-11.0975 22.8875 -11.7575 19.5875 -12.4375 16.1875 C-15.98948751 12.58680074 -15.98948751 12.58680074 -20.75 11.875 C-24.41964073 11.95690301 -24.41964073 11.95690301 -27.3125 13.625 C-29.88854474 16.73140689 -30.24371036 18.84867286 -30.6875 22.7734375 C-30.3374596 26.15351509 -29.24942856 28.32086676 -27.4375 31.1875 C-25.02619415 32.9729718 -25.02619415 32.9729718 -22.125 34.1875 C-21.06152344 34.6825 -19.99804688 35.1775 -18.90234375 35.6875 C-15.34623498 37.22701045 -11.76862497 38.70725028 -8.1875 40.1875 C0.38753655 43.81248786 6.81781398 48.07774912 11.75 56.125 C15.34272172 65.24498589 14.09568352 76.27154695 10.5625 85.1875 C5.88040708 92.57333672 0.00318507 96.33465307 -8.26635742 98.71362305 C-18.12849433 100.86614837 -32.10523677 100.78442218 -41.30859375 96.57421875 C-47.22312798 92.72163224 -51.06541313 87.55161289 -53.015625 80.7734375 C-53.86284118 75.58031609 -53.60317265 70.43380054 -53.4375 65.1875 C-46.5075 65.1875 -39.5775 65.1875 -32.4375 65.1875 C-32.046875 68.44270833 -31.65625 71.69791667 -31.265625 74.953125 C-30.3319518 78.59973541 -29.41825961 79.9425315 -26.4375 82.1875 C-22.76911434 83.4564843 -19.34959905 83.43072641 -15.625 82.4375 C-12.12182483 80.43568562 -10.72430848 79.04792544 -9.4375 75.1875 C-9.06704055 70.18629737 -9.15780814 67.08213408 -12.4375 63.1875 C-17.72469155 58.87640535 -23.93499166 56.7853297 -30.25390625 54.42578125 C-39.26712887 50.92002472 -46.21662192 46.33644907 -50.8125 37.5625 C-53.36656189 27.85706482 -53.11384093 18.57573975 -49.4375 9.1875 C-44.50906459 1.40149758 -38.29684636 -2.28397486 -29.5625 -4.5625 C-19.17395594 -5.39358353 -9.40640049 -4.95973844 0 0 Z " fill="#6B6C6E" transform="translate(355.4375,22.8125)"/>
<path d="M0 0 C18.48 0 36.96 0 56 0 C56 5.94 56 11.88 56 18 C44.45 18 32.9 18 21 18 C21 25.26 21 32.52 21 40 C31.89 40 42.78 40 54 40 C54 45.61 54 51.22 54 57 C43.11 57 32.22 57 21 57 C21 65.58 21 74.16 21 83 C33.21 83 45.42 83 58 83 C58 88.94 58 94.88 58 101 C38.86 101 19.72 101 0 101 C0 67.67 0 34.34 0 0 Z " fill="#6C6D6F" transform="translate(239,20)"/>
<path d="M0 0 C1.7634375 -0.01160156 1.7634375 -0.01160156 3.5625 -0.0234375 C8.77382529 0.58060248 11.98618148 2.40726414 15.75 6 C21.33309477 13.33804964 20.26634025 23.66795956 20.1953125 32.37890625 C20.1924826 33.69793442 20.18965271 35.01696259 20.18673706 36.3759613 C20.17916474 39.85295436 20.15957277 43.32977565 20.1373291 46.80670166 C20.11673129 50.36655353 20.10770579 53.92643362 20.09765625 57.48632812 C20.07631958 64.44929567 20.04119109 71.41212186 20 78.375 C13.4 78.375 6.8 78.375 0 78.375 C-0.029729 76.02169556 -0.029729 76.02169556 -0.06005859 73.62084961 C-0.13628133 67.78556602 -0.22497341 61.95052636 -0.31738281 56.11547852 C-0.35560365 53.59274114 -0.39046842 51.06995055 -0.421875 48.54711914 C-0.46767485 44.91533423 -0.5256457 41.28391348 -0.5859375 37.65234375 C-0.59748871 36.52916245 -0.60903992 35.40598114 -0.62094116 34.24876404 C-0.72606162 28.63781984 -0.87267929 23.61109957 -3 18.375 C-6.24490245 16.57227642 -8.04315906 16.19698308 -11.6875 16.875 C-14.97882987 19.00991668 -15.60217691 20.66632914 -17 24.375 C-17.46850804 28.50533774 -17.48864253 32.61960921 -17.51171875 36.7734375 C-17.52966995 37.96353424 -17.54762115 39.15363098 -17.56611633 40.37979126 C-17.6201699 44.16982513 -17.65410029 47.95973338 -17.6875 51.75 C-17.72067732 54.32423621 -17.75516736 56.89845585 -17.79101562 59.47265625 C-17.87589408 65.77334682 -17.94272969 72.07400044 -18 78.375 C-24.6 78.375 -31.2 78.375 -38 78.375 C-38 53.295 -38 28.215 -38 2.375 C-31.73 2.375 -25.46 2.375 -19 2.375 C-18.67 4.355 -18.34 6.335 -18 8.375 C-17.29875 7.611875 -16.5975 6.84875 -15.875 6.0625 C-10.91496228 1.425943 -6.76117702 -0.04448143 0 0 Z " fill="#6C6D6F" transform="translate(415,42.625)"/>
<path d="M0 0 C6.36200756 4.56722103 10.53769125 10.10023472 12.25 17.76171875 C13.27005478 25.55282683 13.43972038 33.37319866 13.703125 41.22265625 C1.163125 41.22265625 -11.376875 41.22265625 -24.296875 41.22265625 C-23.91538892 52.14002992 -23.91538892 52.14002992 -20.296875 61.22265625 C-17.49817473 62.62200638 -15.39188708 62.4753103 -12.296875 62.22265625 C-9.31418106 59.98196252 -8.57139429 57.56256032 -7.609375 54.03515625 C-7.17625 52.44703125 -6.743125 50.85890625 -6.296875 49.22265625 C-0.356875 49.22265625 5.583125 49.22265625 11.703125 49.22265625 C11.703125 57.80898827 11.55684915 63.77857436 5.8671875 70.33984375 C-2.09914855 77.69573259 -10.28198732 77.83521995 -20.6328125 77.6015625 C-27.83937213 77.19991845 -33.33535589 74.66087814 -38.234375 69.34765625 C-44.21021888 60.29334735 -44.53181448 51.80419188 -44.59204102 41.31494141 C-44.60347921 39.93430262 -44.62379961 38.55370514 -44.65356445 37.17333984 C-44.89401056 25.98923779 -44.16316218 14.88303486 -37.171875 5.66015625 C-28.52234905 -2.93485588 -11.13549182 -5.39218635 0 0 Z M-23.296875 17.22265625 C-24.77121665 21.11863492 -24.77121665 21.11863492 -24.296875 29.22265625 C-18.356875 29.22265625 -12.416875 29.22265625 -6.296875 29.22265625 C-6.22146244 20.93812585 -6.22146244 20.93812585 -9.296875 14.22265625 C-15.31456126 10.21086541 -18.94223971 11.87267576 -23.296875 17.22265625 Z " fill="#6B6C6E" transform="translate(488.296875,44.77734375)"/>
<path d="M0 0 C2.01513306 2.22370087 3.78863693 4.405235 5.5625 6.8125 C6.08972656 7.52301514 6.61695313 8.23353027 7.16015625 8.96557617 C17.84840333 23.78556299 25.48695912 39.85830721 28 58 C1.78451755 58.65299275 -23.15770448 51.58500492 -46 39 C-47.58748047 38.14148438 -47.58748047 38.14148438 -49.20703125 37.265625 C-54.28966241 34.39376068 -54.28966241 34.39376068 -56 33 C-56 30 -56 30 -54.77734375 28.52734375 C-41.35997129 16.93313867 -18.48178978 0 0 0 Z " fill="#6B6D6F" transform="translate(123,73)"/>
<path d="M0 0 C1.00546875 0.51304688 2.0109375 1.02609375 3.046875 1.5546875 C11.17735819 5.95694394 17.50843821 11.51744176 24 18 C25.22396484 19.2065625 25.22396484 19.2065625 26.47265625 20.4375 C33.08137755 27.32961415 38.95619199 35.86857596 42 45 C36.87009133 44.43263683 31.89155528 43.60132141 26.8425293 42.54003906 C15.54463402 40.18662119 4.52406387 39.24756313 -7 39 C-7.33 38.01 -7.66 37.02 -8 36 C-9.31661204 35.30088989 -10.6520257 34.63654342 -12 34 C-13.359375 32.66015625 -13.359375 32.66015625 -14.75 31.0625 C-32.37562396 12.98493696 -57.93231484 3.44083308 -82 -2 C-79.21600232 -4.78399768 -75.92929602 -5.4514581 -72.25 -6.5625 C-71.54617187 -6.78357422 -70.84234375 -7.00464844 -70.1171875 -7.23242188 C-47.1519762 -14.29699896 -21.02902067 -11.16155713 0 0 Z " fill="#6B6D6F" transform="translate(138,10)"/>
<path d="M0 0 C1.63195313 0.32677734 1.63195313 0.32677734 3.296875 0.66015625 C20.74967038 4.38243323 38.89236516 11.98916305 53 23 C50.19536438 25.31400432 47.91076037 26.49724083 44.3984375 27.39453125 C38.85353266 28.96006778 33.80460289 31.18422501 28.625 33.6875 C27.7074292 34.12884277 26.7898584 34.57018555 25.84448242 35.02490234 C14.86540284 40.40625236 5.3975148 47.18259831 -4 55 C-12.69882123 51.24369083 -18.82764314 42.19472552 -24.375 34.8125 C-24.87451172 34.14782715 -25.37402344 33.4831543 -25.88867188 32.79833984 C-28.19412956 29.66605979 -30.32505644 26.53151281 -32.2265625 23.13671875 C-33.80735042 20.01429941 -33.80735042 20.01429941 -36 18 C-33.7829613 14.25028182 -31.41184678 10.62683726 -29 7 C-28.41734375 5.989375 -27.8346875 4.97875 -27.234375 3.9375 C-20.12314303 -6.46918094 -10.62070541 -2.61463931 0 0 Z " fill="#6B6D6F" transform="translate(47,30)"/>
<path d="M0 0 C6.6 0 13.2 0 20 0 C20 7.26 20 14.52 20 22 C23.63 22 27.26 22 31 22 C31 26.62 31 31.24 31 36 C27.37 36 23.74 36 20 36 C20.11791459 42.39051565 20.24213765 48.78086492 20.37231445 55.17114258 C20.41573507 57.34688953 20.45740471 59.52267214 20.49731445 61.69848633 C20.55484502 64.81863168 20.61858823 67.93859633 20.68359375 71.05859375 C20.70030624 72.03775253 20.71701874 73.01691132 20.73423767 74.02574158 C20.75418289 74.92659988 20.77412811 75.82745819 20.79467773 76.75561523 C20.81799416 77.95141457 20.81799416 77.95141457 20.84178162 79.17137146 C20.80400665 81.01851382 20.80400665 81.01851382 22 82 C24.98889359 82.45765667 27.98969648 82.70320951 31 83 C31 87.95 31 92.9 31 98 C27.45786917 98.08118636 23.91761257 98.14059277 20.375 98.1875 C19.37597656 98.21263672 18.37695312 98.23777344 17.34765625 98.26367188 C7.46831901 98.36181099 7.46831901 98.36181099 3 95 C-0.9477776 89.31833351 -0.38404664 83.45735806 -0.29296875 76.8203125 C-0.28872391 75.6524118 -0.28447906 74.48451111 -0.28010559 73.28121948 C-0.263354 69.56224214 -0.22570698 65.84381273 -0.1875 62.125 C-0.17244867 59.59896618 -0.15876105 57.07292383 -0.14648438 54.546875 C-0.11346179 48.3643732 -0.06170255 42.18227941 0 36 C-3.3 36 -6.6 36 -10 36 C-10 31.38 -10 26.76 -10 22 C-6.7 22 -3.4 22 0 22 C0 14.74 0 7.48 0 0 Z " fill="#6C6C6F" transform="translate(515,23)"/>
<path d="M0 0 C10.26391722 -0.42228688 20.01528723 -0.15294951 30.125 1.8125 C30.97602295 1.97782227 31.8270459 2.14314453 32.70385742 2.31347656 C44.4904293 4.76665429 44.4904293 4.76665429 49 7 C51.96890266 11.7682376 52 14.24801458 52 20 C33.685 19.505 33.685 19.505 15 19 C16.546875 21.784375 18.09375 24.56875 19.6875 27.4375 C24.48559763 36.38102421 27.70261138 45.13977929 30 55 C30.24121582 55.99821777 30.24121582 55.99821777 30.48730469 57.01660156 C32.405645 65.08154156 33.46526447 72.7113996 33 81 C29.85069107 82.04976964 27.61185544 82.10131595 24.3125 82.0625 C23.31863281 82.05347656 22.32476562 82.04445313 21.30078125 82.03515625 C20.54152344 82.02355469 19.78226563 82.01195312 19 82 C18.74347656 80.92105469 18.48695313 79.84210938 18.22265625 78.73046875 C13.8576805 61.292194 6.7165857 43.98760538 -5.41210938 30.42041016 C-6.67495657 29.00384397 -7.84513299 27.50589673 -9 26 C-8.505 24.515 -8.505 24.515 -8 23 C-5.64741656 22.49133331 -3.29338596 21.9929375 -0.9375 21.5 C-0.28072266 21.35691406 0.37605469 21.21382812 1.05273438 21.06640625 C5.43139988 20.16047545 9.50418704 19.85968854 14 20 C11.1590759 14.55489548 7.70565852 9.97442281 3.8046875 5.234375 C2 3 2 3 0 0 Z " fill="#64B0C3" transform="translate(132,49)"/>
<path d="M0 0 C7.83649409 11.75474114 5.67282915 32.6699288 3.40185547 46.00585938 C2.36893229 51.13156807 0.76212601 56.08144439 -1 61 C-6.97995357 61.930215 -12.97099313 62.48758893 -19 63 C-19.10957031 62.1028125 -19.21914062 61.205625 -19.33203125 60.28125 C-21.85441513 40.43029395 -25.64620371 22.98086538 -35.6796875 5.4765625 C-37 3 -37 3 -37 1 C-32.53426489 0.97520519 -28.0685667 0.95709514 -23.6027832 0.94506836 C-22.08487245 0.94005234 -20.5669665 0.93323797 -19.04907227 0.92456055 C-16.86212984 0.91237503 -14.67525154 0.90674428 -12.48828125 0.90234375 C-11.17384033 0.89710693 -9.85939941 0.89187012 -8.50512695 0.88647461 C-5.51794875 0.98322448 -2.89407389 1.29656236 0 2 C0 1.34 0 0.68 0 0 Z " fill="#6B6D6F" transform="translate(184,67)"/>
<path d="M0 0 C3.50175143 1.51102973 5.865483 3.5762958 8.625 6.1875 C13.45005104 10.62482373 18.53929627 14.38664072 24 18 C19.71854869 23.04991693 15.32282771 27.97687354 10.85546875 32.86328125 C8.96657599 34.85953442 8.96657599 34.85953442 8 37 C3.15306246 36.51530625 -0.07551481 34.13880888 -3.875 31.3125 C-4.49197754 30.86277832 -5.10895508 30.41305664 -5.74462891 29.94970703 C-10.00325003 26.81787185 -14.07828391 23.54821932 -18 20 C-15.16122158 15.51701186 -12.04926715 11.62984703 -8.4375 7.75 C-7.71530273 6.95722656 -7.71530273 6.95722656 -6.97851562 6.1484375 C-4.75901298 3.74270423 -2.73760392 1.82506928 0 0 Z " fill="#61C2DA" transform="translate(41,86)"/>
<path d="M0 0 C6.12286971 1.14155198 8.98840612 5.9443628 12.6875 10.6875 C13.52087891 11.73550781 13.52087891 11.73550781 14.37109375 12.8046875 C17.6875 17.18271955 17.6875 17.18271955 17.6875 20.6875 C16.45773438 20.89246094 15.22796875 21.09742187 13.9609375 21.30859375 C13.17589844 21.43943359 12.39085937 21.57027344 11.58203125 21.70507812 C4.2109375 22.93359375 4.2109375 22.93359375 1.85400391 23.30859375 C0.00599732 23.63179706 -1.82159182 24.06831542 -3.640625 24.52734375 C-6.3125 24.6875 -6.3125 24.6875 -8.4453125 23.1328125 C-9.10273437 22.36710937 -9.76015625 21.60140625 -10.4375 20.8125 C-15.54380611 15.25230001 -21.19204831 11.06812786 -27.3125 6.6875 C-26.9825 6.0275 -26.6525 5.3675 -26.3125 4.6875 C-23.57276431 4.06712648 -20.89476608 3.56015028 -18.125 3.125 C-17.36896484 2.99931641 -16.61292969 2.87363281 -15.83398438 2.74414062 C-13.66132601 2.38422931 -11.48722025 2.03470258 -9.3125 1.6875 C-6.18953698 1.17673502 -3.09861553 0.64310888 0 0 Z " fill="#61C2DA" transform="translate(128.3125,48.3125)"/>
<path d="M0 0 C0.59167969 0.74942871 1.18335937 1.49885742 1.79296875 2.27099609 C4.70748749 5.87481141 7.83843968 9.23855882 11 12.625 C11.61617187 13.29273437 12.23234375 13.96046875 12.8671875 14.6484375 C13.46789063 15.29296875 14.06859375 15.9375 14.6875 16.6015625 C15.49767578 17.47288818 15.49767578 17.47288818 16.32421875 18.36181641 C18.10280529 20.10049876 19.98160112 21.55051257 22 23 C21.48038243 27.69417226 19.30543888 30.89636176 16.6875 34.6875 C12.98227973 40.22154615 10.09529785 45.6408443 8 52 C5.10067175 49.10067175 4.52134464 45.53723896 3.4375 41.6875 C3.21642578 40.92759766 2.99535156 40.16769531 2.76757812 39.38476562 C1.0103908 33.27442541 -0.12690475 27.7921402 -0.09765625 21.38671875 C-0.09443359 20.13955078 -0.09121094 18.89238281 -0.08789062 17.60742188 C-0.07532227 15.66706055 -0.07532227 15.66706055 -0.0625 13.6875 C-0.05798828 12.37458984 -0.05347656 11.06167969 -0.04882812 9.70898438 C-0.03705949 6.4726099 -0.0206176 3.23632822 0 0 Z " fill="#6B6D70" transform="translate(0,81)"/>
<path d="M0 0 C-6.39450806 12.74905045 -14.15810627 23.52845715 -25 33 C-25.66 33 -26.32 33 -27 33 C-27 24.75 -27 16.5 -27 8 C-27.66 7.67 -28.32 7.34 -29 7 C-27.44152344 6.63648438 -27.44152344 6.63648438 -25.8515625 6.265625 C-18.61223592 4.53767341 -11.70405273 2.77864059 -4.91796875 -0.36328125 C-3 -1 -3 -1 0 0 Z " fill="#64AEC0" transform="translate(180,135)"/>
<path d="M0 0 C1.65 0 3.3 0 5 0 C6.32 3.3 7.64 6.6 9 10 C9.99 6.7 10.98 3.4 12 0 C13.65 0 15.3 0 17 0 C17.99 2.97 18.98 5.94 20 9 C21.49403054 6.01193893 22.79310745 3.10343799 24 0 C25.65 0 27.3 0 29 0 C27.77048326 7.47835477 26.11170763 14.7216477 24 22 C22.02 22 20.04 22 18 22 C17.01 19.03 16.02 16.06 15 13 C13.50596946 15.98806107 12.20689255 18.89656201 11 22 C9.02 22 7.04 22 5 22 C4.1606242 18.89743488 3.3295495 15.79270556 2.5 12.6875 C2.26152344 11.80642578 2.02304687 10.92535156 1.77734375 10.01757812 C1.55175781 9.17001953 1.32617188 8.32246094 1.09375 7.44921875 C0.88427734 6.66893311 0.67480469 5.88864746 0.45898438 5.0847168 C0 3 0 3 0 0 Z " fill="#6B6C6E" transform="translate(554,149)"/>
<path d="M0 0 C2.31 0 4.62 0 7 0 C9.21484375 2.625 9.21484375 2.625 10.9375 6 C11.52402344 7.11375 12.11054688 8.2275 12.71484375 9.375 C13.13894531 10.24125 13.56304688 11.1075 14 12 C14.33 8.04 14.66 4.08 15 0 C16.65 0 18.3 0 20 0 C20 7.26 20 14.52 20 22 C17.69 22 15.38 22 13 22 C10.78515625 19.375 10.78515625 19.375 9.0625 16 C8.47597656 14.88625 7.88945312 13.7725 7.28515625 12.625 C6.64900391 11.325625 6.64900391 11.325625 6 10 C5.67 13.96 5.34 17.92 5 22 C3.35 22 1.7 22 0 22 C0 14.74 0 7.48 0 0 Z " fill="#6B6D6F" transform="translate(499,149)"/>
<path d="M0 0 C2.31 0 4.62 0 7 0 C8.98 3.63 10.96 7.26 13 11 C13.33 7.37 13.66 3.74 14 0 C15.65 0 17.3 0 19 0 C19 7.26 19 14.52 19 22 C16.69 22 14.38 22 12 22 C10.02 18.37 8.04 14.74 6 11 C5.67 14.63 5.34 18.26 5 22 C3.35 22 1.7 22 0 22 C0 14.74 0 7.48 0 0 Z " fill="#6B6C6F" transform="translate(255,149)"/>
<path d="M0 0 C2.31 0 4.62 0 7 0 C9.21484375 2.40625 9.21484375 2.40625 10.9375 5.5 C11.52402344 6.5209375 12.11054688 7.541875 12.71484375 8.59375 C13.13894531 9.3878125 13.56304687 10.181875 14 11 C14 7.37 14 3.74 14 0 C15.65 0 17.3 0 19 0 C19 7.26 19 14.52 19 22 C17.02 22 15.04 22 13 22 C10.8828125 19.59375 10.8828125 19.59375 9.125 16.5 C8.52945312 15.4790625 7.93390625 14.458125 7.3203125 13.40625 C6.88460938 12.6121875 6.44890625 11.818125 6 11 C5.67 14.63 5.34 18.26 5 22 C3.35 22 1.7 22 0 22 C0 14.74 0 7.48 0 0 Z " fill="#6C6C6E" transform="translate(418,149)"/>
<path d="M0 0 C3.09799981 2.19126816 3.80352112 3.41056336 5 7 C5.34547151 12.35480837 5.46362011 15.6384043 2 20 C-2.00701694 22.67134463 -5.28876296 22.82653281 -10 22 C-13.28175318 19.47031526 -14.69243777 17.92268669 -16 14 C-16.37066773 8.99598565 -16.09881835 6.01698676 -13 2 C-8.77416295 -0.8172247 -4.96429984 -0.67547031 0 0 Z M-6 4 C-8.13875077 5.01760473 -8.13875077 5.01760473 -10 7 C-10.46913089 11.37855495 -10.46943529 13.29584707 -8 17 C-5.5 17.41666667 -5.5 17.41666667 -3 17 C-0.58516344 15.00162681 -0.58516344 15.00162681 -0.5625 11.0625 C-0.52902277 8.93592309 -0.52902277 8.93592309 -1 7 C-3.3549963 4.91783124 -3.3549963 4.91783124 -6 4 Z " fill="#6A6B6D" transform="translate(599,149)"/>
<path d="M0 0 C1.49080078 0.02707031 1.49080078 0.02707031 3.01171875 0.0546875 C3.77097656 0.07789063 4.53023438 0.10109375 5.3125 0.125 C5.9375 2 5.9375 2 6.3125 4.125 C5.6525 4.785 4.9925 5.445 4.3125 6.125 C2.63956064 5.82472883 0.97264616 5.48942233 -0.6875 5.125 C-3.80535113 5.77144661 -3.80535113 5.77144661 -4.6875 8.125 C-4.93537017 12.27003661 -4.93537017 12.27003661 -3.6875 16.125 C-1.16016765 16.78055119 -1.16016765 16.78055119 1.3125 17.125 C1.3125 16.135 1.3125 15.145 1.3125 14.125 C-0.0075 14.125 -1.3275 14.125 -2.6875 14.125 C-2.6875 12.475 -2.6875 10.825 -2.6875 9.125 C0.2825 9.125 3.2525 9.125 6.3125 9.125 C6.3125 13.085 6.3125 17.045 6.3125 21.125 C2.57981351 22.99134324 -1.62236964 22.66829572 -5.6875 22.125 C-8.89551077 20.09544217 -10.23910311 18.65913779 -11.30859375 15 C-12.14531567 9.89340849 -11.68235047 6.51031676 -8.6875 2.125 C-5.26655758 -0.15562828 -4.00562778 -0.09425007 0 0 Z " fill="#6B6C6E" transform="translate(322.6875,148.875)"/>
<path d="M0 0 C11 0 11 0 15 3 C15.46369995 7.25058287 15.33012265 10.35918336 13 14 C13.66 14.94875 14.32 15.8975 15 16.875 C17 20 17 20 17 22 C15.02 22 13.04 22 11 22 C10.0234375 20.20963542 9.046875 18.41927083 8.0703125 16.62890625 C7.08589976 14.83381685 7.08589976 14.83381685 5 14 C5 16.64 5 19.28 5 22 C3.35 22 1.7 22 0 22 C0 14.74 0 7.48 0 0 Z M5 5 C5 6.32 5 7.64 5 9 C6.32 9 7.64 9 9 9 C9 7.68 9 6.36 9 5 C7.68 5 6.36 5 5 5 Z " fill="#6B6C6E" transform="translate(607,149)"/>
<path d="M0 0 C11 0 11 0 15 3 C15.46369995 7.25058287 15.33012265 10.35918336 13 14 C13.99 15.1446875 13.99 15.1446875 15 16.3125 C17 19 17 19 17 22 C15.02 22 13.04 22 11 22 C10.0234375 20.20963542 9.046875 18.41927083 8.0703125 16.62890625 C7.08589976 14.83381685 7.08589976 14.83381685 5 14 C5 16.64 5 19.28 5 22 C3.35 22 1.7 22 0 22 C0 14.74 0 7.48 0 0 Z M5 5 C5 6.32 5 7.64 5 9 C6.32 9 7.64 9 9 9 C9.33 8.01 9.66 7.02 10 6 C8.35 5.67 6.7 5.34 5 5 Z " fill="#6B6C6E" transform="translate(294,149)"/>
<path d="M0 0 C0.1875 2.6875 0.1875 2.6875 -1 6 C-8.37276856 10.99583352 -20.1123539 15 -29 15 C-29.66 11.37 -30.32 7.74 -31 4 C-29.23011719 3.79503906 -27.46023437 3.59007812 -25.63671875 3.37890625 C-23.32029296 3.10693723 -21.00388777 2.83479271 -18.6875 2.5625 C-17.52025391 2.42779297 -16.35300781 2.29308594 -15.15039062 2.15429688 C-14.03212891 2.02216797 -12.91386719 1.89003906 -11.76171875 1.75390625 C-10.2142395 1.57323608 -10.2142395 1.57323608 -8.63549805 1.38891602 C-5.57429346 0.9371792 -3.12326745 0 0 0 Z " fill="#62C2D9" transform="translate(182,127)"/>
<path d="M0 0 C1.65 0 3.3 0 5 0 C5.33 1.98 5.66 3.96 6 6 C6.721875 5.01 7.44375 4.02 8.1875 3 C10.6095123 0.05206503 10.6095123 0.05206503 13.8125 -0.375 C14.534375 -0.25125 15.25625 -0.1275 16 0 C15.58650949 2.97713169 15.27878703 4.66958575 13.3125 7 C12.6628125 7.99 12.6628125 7.99 12 9 C12.71876604 11.6136947 13.83212389 13.69222713 15.125 16.0625 C16 18 16 18 16 22 C14.35 22 12.7 22 11 22 C10.0234375 20.20963542 9.046875 18.41927083 8.0703125 16.62890625 C7.08589976 14.83381685 7.08589976 14.83381685 5 14 C5 16.64 5 19.28 5 22 C3.35 22 1.7 22 0 22 C0 14.74 0 7.48 0 0 Z " fill="#6B6C6E" transform="translate(626,149)"/>
<path d="M0 0 C4.29 0 8.58 0 13 0 C13 1.65 13 3.3 13 5 C10.69 5 8.38 5 6 5 C6 5.99 6 6.98 6 8 C8.31 8 10.62 8 13 8 C13 9.65 13 11.3 13 13 C10.69 13 8.38 13 6 13 C6 14.32 6 15.64 6 17 C8.31 17 10.62 17 13 17 C13 18.65 13 20.3 13 22 C8.71 22 4.42 22 0 22 C0 14.74 0 7.48 0 0 Z " fill="#6C6D6F" transform="translate(522,149)"/>
<path d="M0 0 C4.29 0 8.58 0 13 0 C13 1.65 13 3.3 13 5 C10.69 5 8.38 5 6 5 C6 5.99 6 6.98 6 8 C8.31 8 10.62 8 13 8 C13 9.65 13 11.3 13 13 C10.69 13 8.38 13 6 13 C6 14.32 6 15.64 6 17 C8.31 17 10.62 17 13 17 C13 18.65 13 20.3 13 22 C8.71 22 4.42 22 0 22 C0 14.74 0 7.48 0 0 Z " fill="#6C6D6F" transform="translate(459,149)"/>
<path d="M0 0 C4.29 0 8.58 0 13 0 C13 1.65 13 3.3 13 5 C10.69 5 8.38 5 6 5 C6 5.99 6 6.98 6 8 C7.98 8 9.96 8 12 8 C12 9.65 12 11.3 12 13 C10.02 13 8.04 13 6 13 C6 14.32 6 15.64 6 17 C8.31 17 10.62 17 13 17 C13 18.65 13 20.3 13 22 C8.71 22 4.42 22 0 22 C0 14.74 0 7.48 0 0 Z " fill="#6C6D6F" transform="translate(402,149)"/>
<path d="M0 0 C4.29 0 8.58 0 13 0 C13 1.65 13 3.3 13 5 C10.36 5 7.72 5 5 5 C5 5.99 5 6.98 5 8 C7.31 8 9.62 8 12 8 C12 9.65 12 11.3 12 13 C9.69 13 7.38 13 5 13 C5 14.32 5 15.64 5 17 C7.64 17 10.28 17 13 17 C13 18.65 13 20.3 13 22 C8.71 22 4.42 22 0 22 C0 14.74 0 7.48 0 0 Z " fill="#6C6C6F" transform="translate(278,149)"/>
<path d="M0 0 C4.29 0 8.58 0 13 0 C13 1.65 13 3.3 13 5 C10.36 5 7.72 5 5 5 C5 5.99 5 6.98 5 8 C7.31 8 9.62 8 12 8 C12 9.65 12 11.3 12 13 C9.69 13 7.38 13 5 13 C5 14.32 5 15.64 5 17 C7.64 17 10.28 17 13 17 C13 18.65 13 20.3 13 22 C8.71 22 4.42 22 0 22 C0 14.74 0 7.48 0 0 Z " fill="#6C6D6F" transform="translate(239,149)"/>
<path d="M0 0 C0.90492188 0.02320313 1.80984375 0.04640625 2.7421875 0.0703125 C4.10730469 0.09738281 4.10730469 0.09738281 5.5 0.125 C6.19867188 0.14820313 6.89734375 0.17140625 7.6171875 0.1953125 C7.9471875 1.8453125 8.2771875 3.4953125 8.6171875 5.1953125 C5.9505456 6.52863345 4.45038447 5.86633283 1.6171875 5.1953125 C1.6171875 5.8553125 1.6171875 6.5153125 1.6171875 7.1953125 C3.61049592 8.53862904 5.61103616 9.87125262 7.6171875 11.1953125 C9.6171875 14.1953125 9.6171875 14.1953125 9.4921875 16.6953125 C8.38110409 19.86983654 7.6464975 20.71949481 4.6171875 22.1953125 C1.14573949 22.573391 -2.19243453 22.79050148 -5.3828125 21.1953125 C-5.3828125 19.5453125 -5.3828125 17.8953125 -5.3828125 16.1953125 C-2.4128125 16.5253125 0.5571875 16.8553125 3.6171875 17.1953125 C3.0603125 16.6384375 2.5034375 16.0815625 1.9296875 15.5078125 C1.1665625 14.7446875 0.4034375 13.9815625 -0.3828125 13.1953125 C-1.3109375 12.4115625 -2.2390625 11.6278125 -3.1953125 10.8203125 C-5.3828125 8.1953125 -5.3828125 8.1953125 -5.3203125 5.0078125 C-4.20599822 1.66486967 -3.63168821 0.29767936 0 0 Z " fill="#6B6C6E" transform="translate(479.3828125,148.8046875)"/>
<path d="M0 0 C0.90492188 0.02320313 1.80984375 0.04640625 2.7421875 0.0703125 C4.10730469 0.09738281 4.10730469 0.09738281 5.5 0.125 C6.19867188 0.14820313 6.89734375 0.17140625 7.6171875 0.1953125 C8.2421875 2.0703125 8.2421875 2.0703125 8.6171875 4.1953125 C7.9571875 4.8553125 7.2971875 5.5153125 6.6171875 6.1953125 C3.9921875 5.8203125 3.9921875 5.8203125 1.6171875 5.1953125 C1.6171875 5.8553125 1.6171875 6.5153125 1.6171875 7.1953125 C3.58440758 8.57655213 5.58587078 9.91019376 7.6171875 11.1953125 C8.6171875 12.1953125 8.6171875 12.1953125 8.9296875 15.5703125 C8.6171875 19.1953125 8.6171875 19.1953125 7.1171875 21.1328125 C3.44634852 22.69291907 0.59968671 22.45224793 -3.3828125 22.1953125 C-4.0428125 21.8653125 -4.7028125 21.5353125 -5.3828125 21.1953125 C-5.3828125 19.5453125 -5.3828125 17.8953125 -5.3828125 16.1953125 C-2.4128125 16.5253125 0.5571875 16.8553125 3.6171875 17.1953125 C3.0603125 16.6384375 2.5034375 16.0815625 1.9296875 15.5078125 C1.1665625 14.7446875 0.4034375 13.9815625 -0.3828125 13.1953125 C-1.3109375 12.4115625 -2.2390625 11.6278125 -3.1953125 10.8203125 C-5.3828125 8.1953125 -5.3828125 8.1953125 -5.3203125 5.0078125 C-4.20599822 1.66486967 -3.63168821 0.29767936 0 0 Z " fill="#6B6C6E" transform="translate(363.3828125,148.8046875)"/>
<path d="M0 0 C0.78503906 0.00644531 1.57007813 0.01289063 2.37890625 0.01953125 C4.4375 0.1875 4.4375 0.1875 6.4375 1.1875 C6.1075 2.8375 5.7775 4.4875 5.4375 6.1875 C4.509375 5.960625 3.58125 5.73375 2.625 5.5 C-0.45555716 4.88928506 -0.45555716 4.88928506 -2.4375 6.25 C-4.02490233 8.98385957 -3.82680653 11.08189827 -3.5625 14.1875 C-3.2325 14.8475 -2.9025 15.5075 -2.5625 16.1875 C0.0775 16.1875 2.7175 16.1875 5.4375 16.1875 C5.480221 17.85361905 5.47813832 19.52132885 5.4375 21.1875 C3.87799449 22.74700551 2.34872869 22.46946698 0.1875 22.5625 C-3.37708044 22.50006308 -4.45121191 22.25937355 -7.5625 20.25 C-10.17986183 16.24216469 -10.86423959 12.94828025 -10.5625 8.1875 C-8.49567962 2.50374395 -6.17251291 -0.11185773 0 0 Z " fill="#696A6C" transform="translate(450.5625,148.8125)"/>
<path d="M0 0 C0.78503906 0.00644531 1.57007813 0.01289063 2.37890625 0.01953125 C4.4375 0.1875 4.4375 0.1875 6.4375 1.1875 C5.7775 2.8375 5.1175 4.4875 4.4375 6.1875 C3.674375 5.98125 2.91125 5.775 2.125 5.5625 C-0.78135944 4.85358797 -0.78135944 4.85358797 -3.5625 7.1875 C-4.03364738 9.9302508 -3.74055784 12.38308897 -3.5625 15.1875 C-2.57982141 16.39311184 -2.57982141 16.39311184 -0.71484375 16.28515625 C1.3359375 16.25260417 3.38671875 16.22005208 5.4375 16.1875 C5.4375 17.8375 5.4375 19.4875 5.4375 21.1875 C2.23332279 22.7895886 -1.08589432 22.68035215 -4.5625 22.1875 C-8.00562714 20.0630173 -9.27867547 19.03897359 -10.5625 15.1875 C-10.90797151 9.83269163 -11.02612011 6.5490957 -7.5625 2.1875 C-4.404724 0.082316 -3.60852866 -0.06539344 0 0 Z " fill="#6B6C6E" transform="translate(384.5625,148.8125)"/>
<path d="M0 0 C-4.84544075 9.66059749 -9.90678897 19.66902824 -19 26 C-18.85691406 25.00871094 -18.71382812 24.01742187 -18.56640625 22.99609375 C-17.99860104 19.0214573 -17.46480587 15.04268281 -16.9375 11.0625 C-16.84662109 10.37865234 -16.75574219 9.69480469 -16.66210938 8.99023438 C-16.44110203 7.32686331 -16.22050715 5.66343745 -16 4 C-13.90049414 3.13444052 -11.7952093 2.28288723 -9.6875 1.4375 C-7.92986328 0.72400391 -7.92986328 0.72400391 -6.13671875 -0.00390625 C-3 -1 -3 -1 0 0 Z " fill="#6B6E70" transform="translate(180,135)"/>
<path d="M0 0 C1.98 0 3.96 0 6 0 C6.99 1.98 7.98 3.96 9 6 C9.53625 5.01 10.0725 4.02 10.625 3 C11.40875 2.01 12.1925 1.02 13 0 C16.1484375 -0.1875 16.1484375 -0.1875 19 0 C18.57847656 0.75023437 18.15695312 1.50046875 17.72265625 2.2734375 C14.15542519 8.93786447 12.03360711 14.4047929 12 22 C10.02 22 8.04 22 6 22 C5.98582031 21.38253906 5.97164063 20.76507813 5.95703125 20.12890625 C5.61610263 14.0751197 4.3309716 10.01803216 1.05859375 4.91015625 C0 3 0 3 0 0 Z " fill="#6C6D6F" transform="translate(331,149)"/>
<path d="M0 0 C5.28 0 10.56 0 16 0 C16 1.65 16 3.3 16 5 C14.35 5 12.7 5 11 5 C11 10.61 11 16.22 11 22 C9.02 22 7.04 22 5 22 C5 16.39 5 10.78 5 5 C3.35 5 1.7 5 0 5 C0 3.35 0 1.7 0 0 Z " fill="#6C6D6F" transform="translate(537,149)"/>
<path d="M0 0 C0.1875 2.6875 0.1875 2.6875 -1 6 C-5.94031692 9.11759565 -11.25525339 11.02507037 -17 12 C-17 9.03 -17 6.06 -17 3 C-14.73000175 2.49622232 -12.45896997 1.99709981 -10.1875 1.5 C-8.29064453 1.08234375 -8.29064453 1.08234375 -6.35546875 0.65625 C-3 0 -3 0 0 0 Z " fill="#64AFC1" transform="translate(182,127)"/>
<path d="M0 0 C1.65 0 3.3 0 5 0 C5 7.26 5 14.52 5 22 C3.35 22 1.7 22 0 22 C0 14.74 0 7.48 0 0 Z " fill="#6B6D6F" transform="translate(393,149)"/>
</svg>
