<svg id="Layer_1" version="1.1" viewBox="0 0 1600 736" xmlns="http://www.w3.org/2000/svg" preserveAspectRatio="xMinYMid meet"><path d="M599.3 147.6h9.1v440.9h-9.1z"></path><path d="M462.6 471.2c.8-1.4 1.5-2.9 2.2-4.4 0 0 .2-.3.1-.3 14.4-29.2 22.5-62.1 22.3-97.1 0-9-.7-17.8-1.8-26.5-2.3 81.4-44.9 142.2-111.8 159.4-38.4 9.9-88.4 16.4-116.9-18.1-33.3-40.3 3.4-90.9 37-116.8.3-.3.7-.5 1-.8 42.5-32.2 96.3-46.1 149-48 12.4-.4 24.9-.2 37.3.4-23.2-95.5-108.7-166.9-210.3-167.6h-1.5c-118.1 0-212.9 96-212.1 215 .8 119.6 97.7 217.1 216.5 218 76.1.5 142.7-38.9 180.5-98.6l.2-.4c2.9-4.6 5.6-9.3 8.2-14.1-.2.3-.5.5-.7.8.2-.3.4-.5.6-.8" style="fill:#499dff"></path><path d="M149.6 451.1c.6-83.8 33.2-175.4 187.3-221.5 0 0-2.6-2.1-5.9-4.6-61.7-19.7-197.6 62.4-201.6 184.8-2.7 81.9 39.5 139.3 94.9 165.9 1.5.7 5.3 2.3 13.2 5.4.2 0 .4.1.7.2 3.8.7 7.6 1.2 11.4 1.7-9.3-3-21-7.8-38.1-19.7-36.9-25.8-62.3-70.9-62-112.2" style="fill:#fff"></path><path class="st4" d="m132.4 260.4 9-9.6 106.4 1.1s17.8-12.1 41-21.2c15.7-6.2 26.6-6.7 32-6.7 12.5 0 15.3 3.8 16 5.5.7 1.7-2.6 11.1-36.4 28.1-39.7 19.9-64.2 32.4-93 54.4-28.8 22.1-44.4 54.9-49.6 75.4-6.5 25.6-12.8 62.5-2.7 98.4 0 0-19.1-46.9-2.4-111.9 6.7-25.9 21.7-50.4 21.7-50.4l-36-8.5s2.8-3.1 6.1-8.1l42.4-2.3s8.3-10.2 28.7-27.5l-83.2-16.9ZM837.2 263.2H736.5c.8 12.4 5 22.1 12.8 29.1 7.7 7 17.1 10.5 28.2 10.5s16.6-2.1 22.6-6.3c6.1-4.2 10.3-9.8 12.8-16.9h22.5c-3.4 12.1-10.1 22-20.2 29.5-10.1 7.6-22.7 11.4-37.7 11.4s-22.6-2.7-32.1-8c-9.4-5.4-16.8-13-22.2-22.9-5.4-9.9-8-21.3-8-34.4s2.6-24.4 7.8-34.2c5.2-9.8 12.5-17.4 22-22.6 9.4-5.3 20.3-7.9 32.5-7.9s22.5 2.6 31.7 7.8c9.2 5.2 16.3 12.4 21.3 21.5s7.5 19.4 7.5 30.9-.2 8.2-.7 12.6M811 225.6c-3.5-5.7-8.3-10.1-14.4-13.1s-12.8-4.5-20.1-4.5c-10.6 0-19.6 3.4-27 10.1-7.4 6.7-11.7 16.1-12.8 28h79.5c0-8-1.8-14.8-5.3-20.6M885.6 209.6v74.2c0 6.1 1.3 10.5 3.9 13 2.6 2.5 7.1 3.8 13.6 3.8h15.4v17.7h-18.8c-11.6 0-20.4-2.7-26.2-8-5.8-5.4-8.7-14.2-8.7-26.4V160.7h20.9v31.7h32.9v17.2h-32.9ZM985.8 196.1c6.8-4 15.1-6 24.9-6v21.6h-5.5c-23.4 0-35.2 12.7-35.2 38.2v68.5h-20.9v-126H970v20.5c3.7-7.2 8.9-12.8 15.7-16.8M1031.4 221c5.2-9.7 12.4-17.3 21.5-22.6 9.1-5.4 19.3-8 30.5-8s20.6 2.4 28.7 7.1c8.1 4.8 14.2 10.7 18.2 17.9v-23h21.1v126h-21.1V295c-4.1 7.4-10.3 13.4-18.5 18.3-8.2 4.8-17.7 7.2-28.6 7.2s-21.3-2.8-30.3-8.3c-9-5.5-16.2-13.3-21.4-23.2-5.2-10-7.8-21.3-7.8-34s2.6-24.2 7.8-33.9m93 9.2c-3.8-7-9-12.4-15.5-16.2-6.5-3.8-13.7-5.6-21.5-5.6s-14.9 1.8-21.4 5.5c-6.4 3.7-11.6 9-15.4 16.1-3.8 7-5.7 15.3-5.7 24.8s1.9 18 5.7 25.2c3.8 7.1 9 12.6 15.4 16.3 6.4 3.8 13.6 5.6 21.4 5.6s15-1.9 21.5-5.6c6.5-3.8 11.7-9.2 15.5-16.3 3.8-7.1 5.7-15.4 5.7-24.9s-1.9-17.8-5.7-24.8M1237.2 299l39-106.6h22.3l-49.4 125.9h-24.3l-49.5-125.9h22.6l39.3 106.6zM1433.5 263.2h-100.7c.8 12.4 5 22.1 12.8 29.1 7.7 7 17.1 10.5 28.2 10.5s16.6-2.1 22.6-6.3c6.1-4.2 10.3-9.8 12.8-16.9h22.5c-3.4 12.1-10.1 22-20.2 29.5-10.1 7.6-22.7 11.4-37.7 11.4s-22.6-2.7-32.1-8c-9.4-5.4-16.8-13-22.2-22.9-5.4-9.9-8-21.3-8-34.4s2.6-24.4 7.8-34.2c5.2-9.8 12.5-17.4 22-22.6 9.4-5.3 20.3-7.9 32.5-7.9s22.5 2.6 31.7 7.8c9.2 5.2 16.3 12.4 21.3 21.5s7.5 19.4 7.5 30.9-.2 8.2-.7 12.6m-26.3-37.7c-3.5-5.7-8.3-10.1-14.4-13.1s-12.8-4.5-20.1-4.5c-10.6 0-19.6 3.4-27 10.1-7.4 6.7-11.7 16.1-12.8 28h79.5c0-8-1.8-14.8-5.3-20.6M1461.7 148.3h20.9v170.1h-20.9zM1519 167.8c-2.8-2.8-4.1-6.1-4.1-10.1s1.4-7.4 4.1-10.1c2.8-2.8 6.1-4.1 10.1-4.1s7.1 1.4 9.8 4.1c2.7 2.8 4 6.1 4 10.1s-1.3 7.4-4 10.1c-2.7 2.8-5.9 4.1-9.8 4.1s-7.4-1.4-10.1-4.1m20.2 150.5h-20.9v-126h20.9v126ZM803.6 409.6c8.2 4.8 14.3 10.7 18.3 17.9v-23H843v128.7c0 11.5-2.5 21.7-7.4 30.7s-11.9 16-21 21c-9.1 5.1-19.7 7.6-31.8 7.6s-30.3-3.9-41.4-11.7c-11-7.8-17.5-18.5-19.5-31.9h20.7c2.3 7.7 7 13.8 14.3 18.5 7.2 4.7 15.9 7 26 7s20.9-3.6 28.2-10.8c7.3-7.2 10.9-17.3 10.9-30.3v-26.4c-4.1 7.4-10.3 13.5-18.4 18.4-8.1 4.9-17.6 7.4-28.5 7.4s-21.3-2.8-30.5-8.3c-9.1-5.5-16.3-13.3-21.5-23.2-5.2-10-7.8-21.3-7.8-34s2.6-24.2 7.8-33.9c5.2-9.7 12.4-17.3 21.5-22.6 9.1-5.4 19.3-8 30.5-8s20.4 2.4 28.6 7.1m12.4 32.7c-3.8-7-9-12.4-15.5-16.2-6.5-3.8-13.7-5.6-21.5-5.6s-14.9 1.8-21.4 5.5c-6.4 3.7-11.6 9-15.4 16.1-3.8 7-5.7 15.3-5.7 24.8s1.9 18 5.7 25.2c3.8 7.1 9 12.6 15.4 16.3 6.4 3.8 13.6 5.6 21.4 5.6s15-1.9 21.5-5.6c6.5-3.8 11.7-9.2 15.5-16.3 3.8-7.1 5.7-15.4 5.7-24.9s-1.9-17.8-5.7-24.8M915 408.2c6.8-4 15.1-6 24.9-6v21.6h-5.5c-23.4 0-35.2 12.7-35.2 38.2v68.5h-20.9v-126h20.9V425c3.7-7.2 8.9-12.8 15.7-16.8M987 524.5c-9.6-5.4-17.1-13-22.5-22.9-5.4-9.9-8.2-21.3-8.2-34.4s2.8-24.3 8.4-34.1c5.6-9.9 13.2-17.5 22.9-22.8 9.7-5.3 20.5-7.9 32.4-7.9s22.8 2.6 32.4 7.9c9.7 5.3 17.3 12.8 22.9 22.6 5.6 9.8 8.4 21.2 8.4 34.2s-2.9 24.5-8.6 34.4c-5.7 9.9-13.5 17.5-23.3 22.9s-20.7 8-32.6 8-22.5-2.7-32.1-8m53.1-15.5c6.6-3.5 11.9-8.8 16-15.9 4.1-7 6.1-15.6 6.1-25.7s-2-18.7-6-25.7-9.2-12.3-15.6-15.7c-6.4-3.4-13.4-5.2-20.9-5.2s-14.7 1.7-21 5.2c-6.4 3.4-11.5 8.7-15.3 15.7-3.8 7.1-5.7 15.6-5.7 25.7s1.9 18.9 5.6 26 8.8 12.3 15.1 15.7c6.3 3.4 13.2 5.2 20.7 5.2s14.6-1.8 21.1-5.3M1222.9 404.6v126H1202V512c-4 6.4-9.5 11.5-16.7 15.1-7.1 3.6-15 5.4-23.6 5.4s-18.6-2-26.4-6.1c-7.8-4.1-14-10.1-18.5-18.3-4.5-8.1-6.8-18-6.8-29.7v-73.8h20.7v71c0 12.4 3.1 22 9.4 28.6 6.3 6.7 14.9 10 25.7 10s20-3.4 26.4-10.3c6.4-6.9 9.7-16.9 9.7-30.1v-69.2h20.9ZM1297.7 409.7c8.2-4.8 17.7-7.2 28.6-7.2s21.3 2.7 30.5 8c9.1 5.4 16.3 12.9 21.5 22.6 5.2 9.7 7.8 21 7.8 33.9s-2.6 24.1-7.8 34c-5.2 10-12.4 17.7-21.5 23.2s-19.3 8.3-30.5 8.3-20.2-2.4-28.4-7.2c-8.2-4.8-14.4-10.8-18.7-18v83h-20.9V404.6h20.9v23.2c4.1-7.2 10.3-13.2 18.5-18m61.3 32.5c-3.8-7-9-12.4-15.5-16.1-6.5-3.7-13.7-5.5-21.5-5.5s-14.8 1.9-21.3 5.6c-6.5 3.8-11.7 9.2-15.6 16.3-3.9 7.1-5.9 15.4-5.9 24.7s2 17.8 5.9 24.9c3.9 7.1 9.1 12.6 15.6 16.3 6.5 3.8 13.6 5.6 21.3 5.6s15-1.9 21.5-5.6c6.5-3.8 11.7-9.2 15.5-16.3 3.8-7.1 5.7-15.5 5.7-25.2s-1.9-17.8-5.7-24.8"></path></svg>
