<svg width="48" height="48" viewBox="0 0 48 48" fill="none" xmlns="http://www.w3.org/2000/svg">
<g clip-path="url(#clip0_4530_12348)">
<path d="M45.14 42.9363C45.2875 43.0791 45.4038 43.251 45.4815 43.441C45.5591 43.631 45.5965 43.8351 45.5912 44.0403C45.5929 44.3492 45.5027 44.6515 45.3319 44.9089C45.1611 45.1662 44.9176 45.3669 44.6324 45.4853C44.3471 45.6038 44.0331 45.6346 43.7302 45.5738C43.4274 45.5131 43.1495 45.3636 42.932 45.1443C42.787 44.9997 42.6724 44.8275 42.5949 44.6379C42.5174 44.4483 42.4786 44.2451 42.4808 44.0403C42.4802 43.8355 42.5199 43.6325 42.5977 43.443C42.6755 43.2535 42.7899 43.0811 42.9343 42.9358C43.0788 42.7905 43.2504 42.6751 43.4394 42.5961C43.6284 42.5171 43.8312 42.4762 44.036 42.4755C44.2419 42.4715 44.4465 42.5104 44.6365 42.5897C44.8266 42.669 44.9981 42.7871 45.14 42.9363ZM45.3224 42.7587C45.1552 42.5878 44.9549 42.4528 44.7337 42.362C44.5125 42.2713 44.2751 42.2266 44.036 42.2307C43.7384 42.2314 43.4456 42.3054 43.1835 42.4463C42.9213 42.5872 42.698 42.7905 42.5332 43.0383C42.3684 43.2861 42.2673 43.5707 42.2388 43.8669C42.2103 44.1632 42.2553 44.4618 42.3697 44.7365C42.4842 45.0112 42.6647 45.2534 42.8951 45.4417C43.1256 45.63 43.3989 45.7585 43.6909 45.8159C43.9829 45.8733 44.2846 45.8579 44.5691 45.7709C44.8537 45.6839 45.1125 45.528 45.3224 45.3171C45.4911 45.149 45.6249 44.9493 45.7162 44.7294C45.8075 44.5094 45.8545 44.2737 45.8545 44.0355C45.8545 43.7974 45.8075 43.5616 45.7162 43.3417C45.6249 43.1218 45.4911 42.922 45.3224 42.7539V42.7587ZM44.3048 43.9539C44.1966 43.9894 44.0825 44.0041 43.9688 43.9971H43.6568V43.2771H43.9592C44.1512 43.2771 44.2952 43.3011 44.3768 43.3491C44.4584 43.3971 44.5112 43.4979 44.5112 43.6371C44.516 43.7046 44.4983 43.7718 44.461 43.8282C44.4237 43.8846 44.3688 43.9271 44.3048 43.9491V43.9539ZM43.3064 45.0195H43.6568V44.2419H43.9352C44.1176 44.2419 44.252 44.2611 44.324 44.3043C44.4488 44.3811 44.5112 44.5299 44.5112 44.7603V44.9187L44.516 44.9811C44.5183 44.989 44.5199 44.997 44.5208 45.0051C44.5208 45.0147 44.5256 45.0195 44.5304 45.0195H44.8568L44.8472 45.0003C44.8326 44.9688 44.826 44.9342 44.828 44.8995V44.6067C44.8226 44.4934 44.7824 44.3844 44.7128 44.2947C44.6408 44.1891 44.5256 44.1267 44.372 44.0979C44.4732 44.0842 44.5709 44.0517 44.66 44.0019C44.7896 43.9155 44.852 43.7811 44.852 43.6083C44.852 43.3587 44.756 43.1907 44.5448 43.1043C44.4296 43.0563 44.252 43.0323 44.0024 43.0323H43.3064V45.0195Z" fill="#E4002B"/>
<path d="M46.0137 29.7743C46.1433 27.2159 45.6681 24.4559 43.4409 21.9599C41.1513 19.4927 37.2873 17.3999 29.3433 16.9103C29.7561 15.6239 30.1161 14.4431 30.4953 13.2383C35.2473 13.4063 39.4761 13.7471 43.0713 14.2127C43.3593 12.9263 43.5129 11.6687 43.8057 10.4495C43.4409 9.91512 43.0537 9.39672 42.6441 8.89432C40.9353 8.69272 39.2265 8.27032 37.3929 8.03032C34.773 7.69599 32.1403 7.4702 29.5017 7.35352C27.4051 13.5965 25.3235 19.8445 23.2569 26.0975C35.0745 27.1199 39.6249 30.3071 39.3609 34.7999C39.1209 37.2287 36.9081 39.4319 33.9849 39.6959C30.5193 39.9311 28.9305 38.5247 27.8889 36.9887C26.9418 35.5699 26.0026 34.1459 25.0713 32.7167C24.8073 32.2751 24.4569 32.5631 24.1401 32.8703C23.4399 33.5493 22.7375 34.2261 22.0329 34.9007C21.5817 35.2943 21.6825 35.6351 21.8409 35.9663C22.4654 37.439 23.099 38.9079 23.7417 40.3727C24.7737 41.0063 29.6409 41.8703 33.2793 41.6015C36.2087 41.3305 39.0085 40.265 41.3769 38.5199C43.8969 36.5663 45.7305 33.9359 46.0137 29.7743Z" fill="white"/>
<path d="M4.67093 38.2229C5.12533 38.8405 5.60853 39.4341 6.12053 40.0037C10.9127 40.8175 15.7572 41.2859 20.6165 41.4053L20.5685 39.7493C17.3093 39.5669 15.8117 39.0677 15.5525 38.4245C15.3317 37.9109 15.2933 37.1429 15.2501 36.3893C15.002 31.1052 14.922 25.8145 15.0101 20.5253C16.8341 20.4917 18.6485 20.4773 20.5541 20.4533C21.4757 20.0357 22.3445 19.6181 23.2661 19.2053L23.2709 17.3189C20.4485 17.3285 17.7701 17.3765 15.0821 17.4533C15.1589 15.1637 15.2501 13.0565 15.3845 10.9973C15.4805 9.64373 16.4165 8.65493 17.3813 8.57813C18.9317 8.51573 20.3189 9.13493 21.6677 9.73013C22.4069 10.0901 23.1413 10.4501 23.8997 10.8341C24.2645 10.9301 24.6965 11.0165 24.9557 10.7045C25.4069 10.1669 25.8341 9.67253 26.2757 9.15413C26.5157 8.79893 26.4149 8.59733 26.3141 8.46773C25.3922 7.74211 24.4609 7.02845 23.5205 6.32693C22.9541 5.94293 22.0565 5.86133 21.1685 5.86133C20.8181 5.86133 20.4677 5.87093 20.1365 5.88053C19.2293 5.92853 18.0725 6.07253 16.1813 6.53813C11.9189 7.68533 6.80212 10.6565 6.25972 15.5141C6.19045 16.3118 6.13124 17.1102 6.08212 17.9093C4.87733 18.0053 3.77813 18.0965 2.74612 18.1973C2.67305 19.1178 2.61704 20.0396 2.57812 20.9621C3.62452 20.8997 4.71892 20.8421 5.93813 20.7893C5.75573 25.8869 5.92372 30.9701 6.40372 35.6837C6.48532 36.3989 6.56213 37.1093 6.47093 37.5653C6.39413 38.0021 5.68853 38.2325 4.67093 38.2229Z" fill="white"/>
<path d="M43.8096 10.4501C43.512 11.6645 43.3584 12.9269 43.0752 14.2133C39.4752 13.7477 35.2512 13.4069 30.4992 13.2389C30.1152 14.4389 29.7552 15.6245 29.3472 16.9109C37.2912 17.4005 41.1552 19.4933 43.4448 21.9605C45.672 24.4565 46.1424 27.2165 46.0128 29.7749C45.7248 33.9365 43.896 36.5669 41.376 38.5157C38.832 40.4357 35.7456 41.3861 33.2784 41.5973C29.6448 41.8661 24.7824 41.0021 23.7456 40.3685C23.1021 38.9039 22.4685 37.4351 21.8448 35.9621C21.6864 35.6309 21.5856 35.2901 22.0368 34.8965C22.7413 34.2219 23.4437 33.5451 24.144 32.8661C24.4608 32.5589 24.8112 32.2709 25.0752 32.7125C26.0544 34.2197 26.9712 35.6069 27.888 36.9845C28.9296 38.5205 30.5184 39.9269 33.9936 39.6917C36.9072 39.4325 39.1296 37.2245 39.3648 34.7957C39.6192 30.3029 35.0736 27.1157 23.2512 26.0933C25.5216 19.2485 27.7344 12.6245 29.5008 7.35886C32.3088 7.48846 34.9056 7.71886 37.392 8.04046C39.2256 8.27086 40.9344 8.69806 42.6432 8.89486C39.5202 5.04257 35.2805 2.25232 30.5071 0.907748C25.7337 -0.43682 20.6609 -0.269674 15.9864 1.3862C11.3118 3.04208 7.26499 6.10538 4.40233 10.1549C1.53967 14.2044 0.00174753 19.0413 2.51892e-05 24.0005C-0.00740659 29.1192 1.62983 34.105 4.67043 38.2229C5.68803 38.2325 6.39363 38.0021 6.47043 37.5653C6.56163 37.1045 6.48483 36.3989 6.40322 35.6837C5.92322 30.9701 5.75523 25.8869 5.93283 20.7893C4.81239 20.838 3.69235 20.8956 2.57283 20.9621C2.62083 20.0165 2.66883 19.1237 2.74563 18.1973C3.78243 18.0965 4.87683 18.0053 6.08163 17.9093C6.12963 17.0933 6.18723 16.3109 6.25923 15.5189C6.80163 10.6565 11.9184 7.68046 16.1808 6.53806C17.4753 6.19422 18.7998 5.97562 20.136 5.88526C20.4672 5.87086 20.8176 5.86126 21.1728 5.86126C22.056 5.86126 22.9488 5.94286 23.52 6.32686C24.4416 7.01806 25.344 7.70446 26.3136 8.46766C26.4096 8.59726 26.5152 8.80366 26.2752 9.15406L24.96 10.7045C24.7008 11.0165 24.2688 10.9349 23.904 10.8389C23.1456 10.4501 22.416 10.0901 21.672 9.73486C20.328 9.13486 18.936 8.51566 17.3856 8.58286C16.4208 8.65486 15.4848 9.64366 15.3888 10.9973C15.2544 13.0565 15.1632 15.1637 15.0864 17.4533C17.7744 17.3765 20.4528 17.3285 23.28 17.3141L23.2752 19.2053C22.3536 19.6181 21.4848 20.0357 20.5584 20.4533C18.6528 20.4773 16.8384 20.4917 15.0144 20.5253C14.9256 25.8145 15.0056 31.1052 15.2544 36.3893C15.3024 37.1429 15.3408 37.9109 15.5568 38.4197C15.816 39.0677 17.3136 39.5621 20.5776 39.7493L20.6256 41.4005C15.7665 41.2845 10.922 40.8193 6.12963 40.0085C9.37188 43.6252 13.6352 46.173 18.3563 47.3152C23.0773 48.4574 28.0338 48.1403 32.5707 46.4057C37.1077 44.6711 41.0116 41.6007 43.7664 37.6003C46.5213 33.5999 47.9976 28.8577 48 24.0005C48.0085 19.1619 46.5472 14.4349 43.8096 10.4453V10.4501Z" fill="#E4002B"/>
</g>
<defs>
<clipPath id="clip0_4530_12348">
<rect width="48" height="48" fill="white"/>
</clipPath>
</defs>
</svg>
