<svg xmlns="http://www.w3.org/2000/svg" width="215" height="50" viewBox="732 401 349 50"><desc>FHNW Logo English</desc><g fill="none"><g fill="#1D1D1B" fill-rule="nonzero"><path id="Shape" d="M1054.07 422.72l3.96-9.48h1.38l3.8 9.48h-1.37l-1.04-2.4h-4.5l-1.02 2.4h-1.2zm2.93-3.62h3.62l-1.72-4.65-1.9 4.65zM1066.14 422.72h-1.2v-6.55h1.2v1.2c.17-.85 1.03-1.37 1.9-1.37h.34v1.2h-.52c-1.55 0-1.9.87-1.9 2.25l.18 3.27zM1070.28 416.17v-1.38l1.2-.35v1.72h1.55v1.04h-1.55v4.32c0 .5.35.7.86.7h.7v1.02h-1.73c-.33 0-.5-.17-.68-.34-.17-.35-.34-.35-.34-1.2v-4.67h-1.2v-.86h1.2zM1033.38 418.6c0-1.22 0-1.9-1.38-1.9-.7 0-1.2.33-1.2 1.02h-1.4c0-1.38 1.22-1.9 2.6-1.9 1.38 0 2.76.35 2.76 2.25v4.48H1033.38v-.86c-.35.85-1.2 1.2-2.07 1.2-1.2 0-2.23-.7-2.23-1.9 0-1.9 1.72-2.4 3.27-2.4h1.04zm-1.38 1.02c-.7 0-1.72.35-1.72 1.2 0 .7.5 1.2 1.03 1.2h.18c1.55 0 1.73-1.2 1.73-2.57l-1.2.17zM1037.86 417.03c.35-.7 1.2-1.2 2.07-1.2 1.2-.17 2.4.7 2.6 2.07v4.82h-1.22v-4.13c0-1.05-.5-1.74-1.54-1.74-.52 0-.86.17-1.2.52-.18.17-.53.52-.53 1.72v3.62h-1.2V416h1.2l-.17 1.03zM1049.24 413.24h1.2V422.9h-1.2v-1.2c-.52.85-1.38 1.37-2.24 1.2-1.9 0-2.76-1.73-2.76-3.45 0-1.73.86-3.45 2.93-3.45.86 0 1.73.34 2.07 1.03v-3.8zm-1.9 8.8c1.56 0 1.9-1.38 1.9-2.6 0-1.2-.52-2.58-1.9-2.58-1.37 0-1.9 1.38-1.9 2.6 0 1.2.53 2.57 1.9 2.57zM1076.66 415.83c1.2 0 2.58.5 2.58 2.07h-1.38c0-.87-.52-1.04-1.38-1.04-.86 0-1.2.35-1.2 1.04 0 .7 1.2.86 1.55.86 1.2.34 2.4.52 2.4 2.07 0 1.55-1.54 2.07-2.92 2.07-1.37 0-2.58-.7-2.58-2.24h1.38c0 .68.52 1.2 1.2 1.2h.18c.7 0 1.55-.34 1.55-1.2 0-1.56-3.96-.35-3.96-2.94 0-1.2 1.38-1.9 2.6-1.9zM845.97 418.93c0 2.07-1.73 3.8-3.8 3.8s-3.8-1.73-3.8-3.8v-5.7h1.4v6.05c0 1.38 1.2 2.58 2.57 2.58 1.38 0 2.6-1.2 2.6-2.58v-6.04h1.37l-.33 5.7zM849.4 417.03c.36-.7 1.22-1.2 2.08-1.2 1.2-.17 2.42.7 2.6 2.07v4.82h-1.4v-4.13c0-1.05-.5-1.74-1.54-1.74-.52 0-.86.17-1.2.52-.18.17-.53.52-.53 1.72v3.62h-1.2V416h1.2v1.03zM856.3 413.24h1.56v1.38h-1.55v-1.38zm.18 9.48v-6.55h1.2v6.73h-1.2v-.18zM862 422.72l-2.76-6.72h1.38l2.07 5.17 2.06-5.17h1.38l-2.93 6.72zM868.38 419.62c0 1.2.34 2.4 1.72 2.4.7.2 1.56-.33 1.56-1.2v-.16h1.2c-.17 1.37-1.55 2.4-2.93 2.24-2.07 0-2.93-1.56-2.93-3.45 0-1.9 1.03-3.62 3.1-3.62 1.56 0 2.93 1.03 2.93 2.58v1.23h-4.65zm3.28-.86c0-1.04-.52-1.9-1.73-1.9-1.03 0-1.72.7-1.72 1.73v.16h3.46zM876.14 422.72h-1.2v-6.55h1.2v1.2c.17-.85 1.03-1.37 1.9-1.37h.34v1.2h-.52c-1.55 0-1.9.87-1.9 2.25l.18 3.27zM882 415.83c1.2 0 2.6.5 2.6 2.07h-1.4c0-.87-.5-1.04-1.37-1.04-.86 0-1.2.35-1.2 1.04 0 .7 1.2.86 1.54.86 1.04.34 2.42.52 2.42 2.07 0 1.55-1.57 2.07-2.94 2.07-1.38 0-2.6-.7-2.6-2.24h1.4c0 .68.5 1.2 1.2 1.2h.17c.7 0 1.55-.34 1.55-1.2 0-1.56-3.97-.35-3.97-2.94 0-1.2 1.4-1.9 2.6-1.9zM886.3 413.24h1.56v1.38h-1.55v-1.38zm.18 9.48v-6.55h1.2v6.73h-1.2v-.18zM890.28 416.17v-1.38l1.2-.35v1.72h1.55v1.04h-1.55v4.32c0 .5.35.7.86.7h.7v1.02h-1.73c-.33 0-.5-.17-.68-.34-.17-.35-.34-.35-.34-1.2v-4.67h-1.2v-.86h1.2zM896.83 425.3h-1.2l1.03-2.58-2.76-6.55h1.55l2.07 5.17 2.07-5.17h1.37zM910.28 419.45c0 1.9-1.56 3.27-3.45 3.1-1.9 0-3.28-1.55-3.1-3.45 0-1.72 1.55-3.1 3.27-3.1 1.72-.17 3.28 1.2 3.28 2.93 0 .17 0 .35 0 .52zm-3.45 2.58c1.55 0 1.9-1.2 1.9-2.58 0-1.38-.52-2.6-1.9-2.6s-1.9 1.22-1.9 2.6c0 1.38.52 2.58 1.9 2.58zM912.52 422.72v-5.7h-1.2v-.85h1.37v-1.2c0-1.04.85-1.9 1.7-1.9h.36c.34 0 .52 0 .86.17v1.04h-.7c-.68 0-1.02.17-1.02.86v1.03h1.55v.86h-1.55v5.7h-1.38zM918.2 422.72l3.97-9.48h1.38l3.8 9.48h-1.38l-1.04-2.4h-4.48l-1.04 2.4h-1.2zm2.94-3.62h3.62l-1.73-4.65-1.9 4.65zM928.9 417.38v-1.2h1.2v1.03c.35-.86 1.38-1.37 2.24-1.2 1.9 0 2.76 1.72 2.76 3.45.18 1.72-1.03 3.27-2.76 3.45H932c-.7 0-1.38-.35-1.9-.87v3.1h-1.2v-7.75zm3.27-.52c-1.38 0-1.9 1.38-1.9 2.6 0 1.2.35 2.57 1.73 2.57s2.07-1.37 2.07-2.58c0-1.2-.52-2.6-1.9-2.6zM937.17 417.38v-1.2h1.2v1.03c.35-.86 1.4-1.37 2.25-1.2 1.9 0 2.76 1.72 2.76 3.45.17 1.72-1.04 3.27-2.76 3.45h-.34c-.7 0-1.38-.35-1.9-.87v3.1h-1.2v-7.75zm3.1-.52c-1.37 0-1.9 1.38-1.9 2.6 0 1.2.35 2.57 1.73 2.57s2.07-1.37 2.07-2.58c0-1.2-.34-2.6-1.9-2.6zM945.45 422.72v-9.48h1.2v9.48zM949.07 413.24h1.55v1.38h-1.55v-1.38zm.17 9.48v-6.55h1.2v6.73h-1.2v-.18zM953.72 419.62c0 1.2.35 2.4 1.73 2.4.7.2 1.55-.33 1.55-1.2v-.16h1.38c-.17 1.37-1.55 2.4-2.93 2.24-2.07 0-2.93-1.56-2.93-3.45 0-1.9 1.03-3.62 3.1-3.62 1.55 0 2.93 1.03 2.93 2.58v1.23h-4.83zm3.28-.86c0-1.04-.52-1.9-1.72-1.9-1.04 0-1.73.7-1.73 1.73v.16H957zM964.76 413.24h1.2V422.9h-1.2v-1.2c-.52.85-1.38 1.37-2.24 1.2-1.9 0-2.76-1.73-2.76-3.45 0-1.73.86-3.45 2.93-3.45.85 0 1.7.34 2.06 1.03v-3.8zm-1.9 8.8c1.55 0 1.9-1.38 1.9-2.6 0-1.2-.52-2.58-1.9-2.58s-1.9 1.38-1.9 2.6c0 1.2.52 2.57 1.9 2.57zM972.34 419.97c0 1.37.87 1.9 2.07 1.9 1.22 0 2.43-.35 2.43-1.73 0-.86-.7-1.38-1.55-1.55-1.56-.36-4.14-.7-4.14-2.77 0-2.07 1.9-2.76 3.62-2.76 1.72 0 3.27.7 3.27 2.6h-1.37c0-1.05-.87-1.4-1.9-1.4-1.04 0-2.24.35-2.24 1.56 0 1.2.86 1.2 1.55 1.38 1.72.52 4.14.52 4.14 2.94 0 2.4-1.9 2.93-3.8 2.93-1.88 0-3.43-.86-3.43-2.93l1.37-.17zM983.72 418.24c0-.86-.5-1.38-1.38-1.38-1.2 0-1.72 1.04-1.72 2.6 0 1.54.52 2.57 1.72 2.57.87 0 1.38-.5 1.38-1.55h1.2c0 1.38-1.2 2.42-2.58 2.42-2.06 0-2.93-1.56-2.93-3.45 0-1.9 1.05-3.62 3.12-3.62 1.38 0 2.4.86 2.58 2.24 0 0 0 0 0 .17h-1.38zM986.48 413.24h1.55v1.38h-1.55v-1.38zm.18 9.48v-6.55h1.2v6.73h-1.2v-.18zM991.14 419.62c0 1.2.34 2.4 1.72 2.4.7.2 1.55-.33 1.55-1.2v-.16h1.4c-.18 1.37-1.56 2.4-2.94 2.24-2.07 0-2.93-1.56-2.93-3.45 0-1.9 1.04-3.62 3.1-3.62 1.56 0 2.94 1.03 2.94 2.58v1.23h-4.83zm3.45-.86c0-1.04-.53-1.9-1.74-1.9-1.03 0-1.72.7-1.72 1.73v.16h3.45zM999.07 417.03c.34-.7 1.2-1.2 2.07-1.2 1.2-.17 2.4.7 2.58 2.07v4.82h-1.2v-4.13c0-1.05-.52-1.74-1.55-1.74-.52 0-.87.17-1.2.52-.18.17-.53.52-.53 1.72v3.62h-1.2V416h1.2l-.17 1.03zM1009.6 418.24c0-.86-.53-1.38-1.4-1.38-1.2 0-1.72 1.04-1.72 2.6 0 1.54.52 2.57 1.73 2.57.87 0 1.4-.5 1.4-1.55h1.2c0 1.38-1.2 2.42-2.6 2.42-2.06 0-2.92-1.56-2.92-3.45 0-1.9 1.03-3.62 3.1-3.62 1.38 0 2.4.86 2.6 2.24 0 0 0 0 0 .17h-1.4zM1013.55 419.62c0 1.2.35 2.4 1.73 2.4.7.2 1.55-.33 1.55-1.2v-.16h1.38c-.17 1.37-1.54 2.4-2.92 2.24-2.07 0-2.94-1.56-2.94-3.45 0-1.9 1.04-3.62 3.1-3.62 1.56 0 2.94 1.03 2.94 2.58v1.23h-4.83zm3.28-.86c0-1.04-.52-1.9-1.73-1.9-1.03 0-1.72.7-1.72 1.73v.16h3.45zM1022.34 415.83c1.2 0 2.6.5 2.6 2.07h-1.4c0-.87-.68-1.04-1.37-1.04-.7 0-1.2.35-1.2 1.04 0 .7 1.2.86 1.55.86 1.03.34 2.4.52 2.4 2.07 0 1.55-1.54 2.07-2.92 2.07s-2.6-.7-2.6-2.24h1.4c0 .68.5 1.2 1.2 1.2h.17c.7 0 1.55-.34 1.55-1.2 0-1.56-3.96-.35-3.96-2.94 0-1.2 1.38-1.9 2.58-1.9zM845.97 428.07v9.48h-1.73l-4.83-8.1v8.1h-1.2v-9.48h1.73l4.66 7.93v-7.93h1.37zM854.24 434.28c0 1.9-1.55 3.27-3.45 3.1-1.9 0-3.28-1.55-3.1-3.45 0-1.72 1.54-3.1 3.27-3.1 1.72-.17 3.27 1.2 3.27 2.93 0 .17 0 .34 0 .52zm-3.27 2.58c1.55 0 1.9-1.2 1.9-2.58 0-1.38-.53-2.6-1.9-2.6-1.38 0-1.9 1.22-1.9 2.6 0 1.38.34 2.75 1.9 2.58zM857.17 437.72h-1.2V431h1.2v1.2c.17-.86 1.04-1.54 1.9-1.37h.34v1.2h-.5c-1.56 0-1.9.87-1.9 2.25l.17 3.44zM860.97 431v-1.38l1.2-.34V431h1.55v1.03h-1.55v4.3c0 .53.35.7.86.7h.7v.87H862c-.34 0-.52-.18-.7-.35-.16-.34-.33-.34-.33-1.2v-4.32h-1.2v-.86l1.2-.17zM865.45 437.72v-9.48h1.2v3.8c.52-.7 1.2-1.2 2.07-1.04 1.2-.17 2.25.7 2.25 1.9v5h-1.04v-4.14c0-1.2-.34-1.9-1.55-1.9-.7 0-1.2.35-1.55.86-.17.52-.35 1.04-.17 1.56v3.44h-1.2zM882.86 431l-2.4 6.72h-1.4l-1.54-5.5-1.73 5.5h-1.56L872 431h1.38l1.55 5.34 1.73-5.34h1.9l1.54 5.17 1.73-5.17zM884.93 434.62c0 1.2.35 2.4 1.73 2.4.68.2 1.55-.33 1.55-1.2v-.16h1.4c-.2 1.37-1.57 2.4-2.94 2.24-2.07 0-2.94-1.56-2.94-3.45 0-1.9.87-3.62 2.94-3.62 1.55 0 2.93 1.03 2.93 2.58v1.23h-4.67zm3.28-.86c0-1.04-.5-1.9-1.72-1.9-1.03 0-1.72.7-1.72 1.73v.16h3.45zM893.72 430.83c1.2 0 2.6.5 2.6 2.07h-1.4c0-.87-.68-1.04-1.37-1.04-.7 0-1.2.17-1.2 1.04 0 .86 1.2.86 1.55.86 1.03.34 2.4.52 2.4 2.07 0 1.55-1.54 2.07-2.92 2.07s-2.6-.7-2.6-2.24h1.56c0 .68.52 1.2 1.2 1.2h.18c.7 0 1.56-.34 1.56-1.2 0-1.56-3.97-.35-3.97-2.94-.16-1.2 1.22-1.9 2.42-1.9zM898.55 431v-1.38l1.2-.34V431h1.56v1.03h-1.54v4.3c0 .53.34.7.86.7h.7v.87h-1.73c-.36 0-.53-.18-.7-.35-.18-.34-.35-.34-.35-1.2v-4.32h-1.2v-.86l1.2-.17zM903.72 434.62c0 1.2.35 2.4 1.73 2.4.7.2 1.55-.33 1.55-1.2v-.16h1.38c-.17 1.37-1.55 2.4-2.93 2.24-2.07 0-2.93-1.56-2.93-3.45 0-1.9.86-3.62 3.1-3.62 1.55 0 2.93 1.03 2.93 2.58v1.23h-4.83zm3.45-.86c0-1.04-.5-1.9-1.72-1.9-1.04 0-1.73.7-1.73 1.73v.16h3.45zM911.14 437.72h-1.2V431h1.2v1.2c.17-.86 1.03-1.37 1.9-1.37h.34v1.2h-.52c-1.55 0-1.9.87-1.9 2.25l.18 3.44zM916.14 432.03c.34-.7 1.2-1.2 2.07-1.2 1.2-.17 2.42.7 2.6 2.07v4.82h-1.2v-4.13c0-1.05-.53-1.74-1.57-1.74-.5 0-.86.17-1.2.52-.17.17-.52.52-.52 1.72v3.62h-1.54V431h1.2l.18 1.03zM927.17 434.8c0 1.37.86 1.9 2.07 1.9 1.2 0 2.42-.36 2.42-1.73 0-.87-.7-1.38-1.56-1.56-1.55-.33-4.13-.68-4.13-2.74 0-2.07 1.9-2.76 3.62-2.76 1.7 0 3.26.7 3.26 2.58h-1.55c0-1.03-.85-1.38-1.9-1.38-1.02 0-2.23.35-2.23 1.56 0 1.2.86 1.2 1.55 1.37 1.73.52 4.14.52 4.14 2.94 0 2.4-1.9 2.93-3.8 2.93s-3.44-.87-3.44-2.93l1.55-.18zM944.76 431l-2.42 6.72h-1.37l-1.56-5.5-1.7 5.5h-1.56L933.9 431h1.38l1.55 5.34 1.72-5.34h1.55l1.56 5.17 1.72-5.17zM945.8 428.07h1.54v1.38h-1.55v-1.38zm.17 9.65V431h1.2v6.72h-1.2zM949.76 431v-1.38l1.2-.34V431h1.56v1.03h-1.55v4.3c0 .53.34.7.86.7h.7v.87h-1.74c-.35 0-.52-.18-.7-.35-.17-.34-.34-.34-.34-1.2v-4.32h-1.04v-.86l1.04-.17zM958.38 437.72h-4.83v-.86l3.28-4.83h-3.28v-.86h4.66v.86l-3.27 4.83h3.45zM960.8 434.62c0 1.2.34 2.4 1.72 2.4.7.2 1.55-.33 1.55-1.2v-.16h1.38c-.17 1.37-1.55 2.4-2.93 2.24-2.07 0-2.93-1.56-2.93-3.45 0-1.9.85-3.62 2.92-3.62 1.55 0 2.93 1.03 2.93 2.58v1.23h-4.66zm3.27-.86c0-1.04-.52-1.9-1.73-1.9-1.03 0-1.72.7-1.72 1.73v.16h3.45zM968.55 437.72h-1.2V431h1.2v1.2c.17-.86 1.04-1.37 1.9-1.37h.34v1.2h-.52c-1.56 0-1.9.87-1.9 2.25l.17 3.44zM972.34 437.72v-9.48h1.2v9.48zM979.76 433.6c0-1.22 0-1.9-1.38-1.9-.7 0-1.2.33-1.2 1.02h-1.4c0-1.38 1.22-1.9 2.6-1.9 1.38 0 2.76.35 2.76 2.25v4.48h-1.21v-.86c-.34.85-1.2 1.2-2.07 1.2-1.2 0-2.24-.52-2.24-1.9 0-1.9 1.72-2.4 3.28-2.4h.86zm-1.38.85c-.7 0-1.72.34-1.72 1.2 0 .7.5 1.2 1.03 1.2h.16c1.55 0 1.73-1.2 1.73-2.57l-1.22.17zM984.4 432.03c.36-.7 1.22-1.2 2.08-1.2 1.2-.17 2.42.7 2.6 2.07v4.82h-1.22v-4.13c0-1.05-.52-1.74-1.55-1.74-.5 0-.85.17-1.2.52-.17.17-.5.52-.5 1.72v3.62h-1.22V431h1.2l-.17 1.03zM995.62 428.07h1.2V437.72h-1.2v-1.03c-.52.85-1.38 1.37-2.24 1.2-1.9 0-2.76-1.73-2.76-3.45 0-1.73.86-3.45 2.93-3.45.86 0 1.73.34 2.07 1.03v-3.96zm-1.9 8.96c1.56 0 1.9-1.37 1.9-2.58 0-1.2-.52-2.6-1.9-2.6s-1.9 1.4-1.9 2.6c0 1.2.52 2.58 1.9 2.58z"/><path d="M766.3 401h1.73v48.97h-1.72z"/><path d="M741.14 417.2c1.55-2.92 4.65-4.65 7.93-4.65 2.4-.17 4.65.7 6.55 2.24 1.72 2.06 2.6 4.65 2.4 7.23v15.52h-9.64v-13.62c.17-1.72-1.2-3.27-3.1-3.45h-.18c-1.9 0-3.44 1.55-3.44 3.45v13.62H732v-24.3h9.14v3.96zM810.45 412.72c-1.73 0-3.28 1.38-3.28 3.28 0 1.72 1.38 3.28 3.28 3.28.86 0 1.72-.35 2.4-1.2.87 2.75-3.95 17.58-10.68 17.58-2.24 0-2.93-1.73-2.93-4.14.17-3.1.7-6.2 1.73-9.3 1.03-3.63 1.9-7.25 2.58-9.15H797c-.86 3.27-7.24 21.9-12.76 21.9-.7 0-1.38-.7-1.38-2.07.17-1.38.52-2.93.86-4.3l2.07-7.26c.5-1.55 1.03-3.27 1.2-5 .17-2.06-1.38-3.8-3.45-3.96h-.34c-5.86 0-8.27 5.17-9.48 7.4l1.04.7c.52-.86 3.1-5.34 5-5.34.17 0 .52.34.52 1.2-.18 1.2-.35 2.25-.7 3.28l-2.24 7.4c-.68 1.9-1.03 3.8-1.2 5.88-.17 2.76 1.9 5 4.65 5.17h.17c8.44 0 12.06-10.17 13.1-13.1l.17.17c-.52 1.72-.7 3.45-.86 5.17 0 4.5 2.07 7.77 6.38 7.77 12.58.17 19.48-25.35 10.7-25.35z"/></g></g></svg>
