<svg width="126" height="40" viewBox="0 0 126 40" fill="none" xmlns="http://www.w3.org/2000/svg">
<path d="M54.3477 16.8945V36.4887H58.5317V25.9938C58.5317 22.5108 60.2004 20.5142 63.1086 20.5142C65.6663 20.5142 67.133 22.115 67.133 24.9081V36.4887H71.3154V24.4805C71.3154 19.5652 68.4996 16.3906 64.1402 16.3906C61.6216 16.3906 59.7871 17.2872 58.5333 19.1328V16.8945H54.3477Z" fill="#00373A"/>
<path d="M10.1165 20.7057L10.1118 16.458C4.53622 16.458 0 21.0649 0 26.7272C0 32.3896 4.53622 36.9965 10.1118 36.9965C15.6873 36.9965 20.2236 32.3896 20.2236 26.7272H16.0411C16.0411 23.4081 18.7006 20.7072 21.9689 20.7072C25.2388 20.7072 27.8983 23.4081 27.8983 26.7289C27.8983 30.0481 25.2388 32.7489 21.9658 32.7489L21.9704 36.9965C27.546 36.9965 32.0823 32.3896 32.0823 26.7272C32.0823 21.0649 27.546 16.458 21.9704 16.458C16.3949 16.458 11.8587 21.0649 11.8587 26.7272H16.0411C16.0411 30.0465 13.3817 32.7473 10.1134 32.7473C6.84347 32.7473 4.18403 30.0465 4.18403 26.7256C4.18246 23.4081 6.8419 20.7072 10.1165 20.7057Z" fill="#00373A"/>
<path d="M105.881 20.6722C108.076 20.6722 109.989 21.8868 111.014 23.6862L114.636 21.5625C112.888 18.4944 109.622 16.4277 105.881 16.4277C100.296 16.4277 95.7695 21.0251 95.7695 26.6971C95.7695 32.3689 100.296 36.9663 105.881 36.9663C109.624 36.9663 112.889 34.8997 114.638 31.8301L111.016 29.7063C109.99 31.5074 108.078 32.7219 105.881 32.7219C102.605 32.7219 99.9489 30.0242 99.9489 26.6971C99.9489 23.3698 102.605 20.6722 105.881 20.6722Z" fill="#00373A"/>
<path d="M34.5703 16.8945V36.4887H38.7543V25.9938C38.7543 22.5108 40.4229 20.5142 43.3312 20.5142C45.8888 20.5142 47.3556 22.115 47.3556 24.9081V36.4887H51.5381V24.4805C51.5381 19.5652 48.7221 16.3906 44.3627 16.3906C41.8441 16.3906 40.0097 17.2872 38.7558 19.1328V16.8945H34.5703Z" fill="#00373A"/>
<path d="M93.6308 26.6961C93.6308 23.7649 92.7261 21.3629 90.8649 19.3551C89.0805 17.3903 86.7435 16.3936 83.9166 16.3936C80.9315 16.3936 78.4756 17.3903 76.616 19.3566C74.7299 21.3119 73.7734 23.7823 73.7734 26.6977C73.7734 29.653 74.7424 32.1344 76.6536 34.0754C78.5914 36.0434 81.0959 37.0004 84.3079 37.0004C87.9096 37.0004 90.688 35.6539 92.5695 32.9992L88.8175 30.8007C87.7985 32.0819 86.3099 32.7305 84.3878 32.7305C81.2884 32.7305 79.371 31.4254 78.687 28.8534L78.6227 28.6133H93.4633C93.5806 27.8264 93.6308 27.2462 93.6308 26.6961ZM78.5523 25.0191L78.6071 24.7838C79.2176 22.1386 81.1523 20.6221 83.9166 20.6221C86.504 20.6221 88.387 22.1784 88.9536 24.7869L89.0038 25.0191H78.5523Z" fill="#00373A"/>
<path d="M0.877313 11.3391H1.92293V6.65432H3.78719V11.3391H4.8328V5.59083H1.92293V5.47955C1.92293 4.59729 2.30329 4.25392 3.27848 4.25392C3.5524 4.25392 3.8905 4.28094 4.37261 4.34453L4.43679 4.35248V3.3494L4.39139 3.33827C3.97346 3.2413 3.58684 3.19043 3.2769 3.19043C1.68343 3.19043 0.875746 3.95983 0.875746 5.47955V5.59083H0.0195312V6.65273H0.875746V11.3391H0.877313Z" fill="#00373A"/>
<path d="M6.23984 11.3398H7.28546V8.29717C7.28546 7.13672 7.81609 6.49767 8.77874 6.49767C9.57391 6.49767 10.0482 7.01431 10.0482 7.88068V11.3398H11.0938V7.82345C11.0938 6.37844 10.2564 5.44531 8.96032 5.44531C8.23089 5.44531 7.66739 5.72033 7.28389 6.26399V5.59156H6.23828V11.3398H6.23984Z" fill="#00373A"/>
<path d="M13.4324 3H12.3867V11.3394H13.4324V3Z" fill="#00373A"/>
<path d="M14.543 8.46593C14.543 9.32912 14.8139 10.0588 15.3508 10.6358C15.8985 11.2002 16.6108 11.4863 17.467 11.4863C18.5252 11.4863 19.3344 11.0491 19.8697 10.1859L19.901 10.1351L19.0089 9.60095L18.9791 9.65182C18.6691 10.1859 18.1808 10.4451 17.4873 10.4451C16.509 10.4451 15.8156 9.89664 15.6216 8.97304H20.0842L20.092 8.92376C20.1139 8.77592 20.1249 8.6249 20.1249 8.47547C20.1249 7.63771 19.8681 6.92078 19.3626 6.34214C18.8616 5.74601 18.2027 5.44238 17.4043 5.44238C16.5685 5.44238 15.8736 5.73329 15.3398 6.30557C14.8107 6.87626 14.543 7.60274 14.543 8.46593ZM17.4028 6.4852C18.2637 6.4852 18.893 7.06385 19.0573 8.00175H15.6199C15.7999 7.06544 16.4778 6.4852 17.4028 6.4852Z" fill="#00373A"/>
<path d="M20.8945 8.46568C20.8945 9.30343 21.1653 10.0251 21.7022 10.6117C22.2313 11.192 22.8902 11.4861 23.6588 11.4861C24.4978 11.4861 25.1583 11.1554 25.6233 10.5036V11.3398H26.6688V5.59156H25.6233V6.42773C25.1568 5.77596 24.4978 5.44531 23.6588 5.44531C22.8965 5.44531 22.2375 5.74417 21.7022 6.33075C21.1668 6.91735 20.8945 7.63587 20.8945 8.46568ZM23.7762 6.50721C24.3099 6.50721 24.7404 6.69321 25.0942 7.07472C25.4511 7.44989 25.6233 7.90452 25.6233 8.46408C25.6233 9.02048 25.4495 9.47988 25.0927 9.86618C24.7373 10.2413 24.3068 10.4226 23.7762 10.4226C23.2597 10.4226 22.8198 10.235 22.4708 9.86618C22.1138 9.47988 21.9401 9.02048 21.9401 8.46408C21.9401 7.90452 22.1138 7.44988 22.4708 7.07313C22.8229 6.6932 23.2503 6.50721 23.7762 6.50721Z" fill="#00373A"/>
<path d="M28.0781 13.5924H29.1237V10.5036C29.5886 11.1554 30.2492 11.4861 31.0881 11.4861C31.8567 11.4861 32.5158 11.192 33.0464 10.6117C33.5816 10.0251 33.8541 9.30344 33.8541 8.46568C33.8541 7.63587 33.5833 6.91735 33.0464 6.33075C32.5095 5.74258 31.8521 5.44531 31.0881 5.44531C30.2492 5.44531 29.5886 5.77596 29.1237 6.42773V5.59156H28.0781V13.5924ZM29.6528 7.07472C30.005 6.6932 30.4355 6.50721 30.9692 6.50721C31.4952 6.50721 31.9225 6.6932 32.2763 7.07472C32.6331 7.44988 32.8053 7.90452 32.8053 8.46409C32.8053 9.02048 32.6315 9.47988 32.2763 9.86618C31.9256 10.235 31.4857 10.4226 30.9692 10.4226C30.4385 10.4226 30.0081 10.2397 29.6528 9.86618C29.2959 9.47988 29.1222 9.02048 29.1222 8.46409C29.1237 7.90611 29.2959 7.45147 29.6528 7.07472Z" fill="#00373A"/>
<path d="M125.747 32.5593L125.649 32.5816C125.346 32.653 125.053 32.6896 124.805 32.7167C124.237 32.785 123.705 32.7151 123.178 32.5069C122.102 32.0839 121.369 31.2621 121.323 29.4976V20.9324H125.771V16.9217H121.325V11.3086H117.122L117.121 29.9696C117.121 30.5102 117.168 31.0459 117.261 31.5626C117.375 32.181 117.554 32.7532 117.792 33.2651C118.278 34.3111 119.009 35.1377 119.958 35.7242C120.538 36.082 121.14 36.3268 121.748 36.454C122.145 36.5366 122.569 36.6193 122.989 36.6527C123.222 36.6701 123.446 36.6797 123.663 36.6797C124.08 36.6797 124.47 36.6463 124.837 36.5779C125.232 36.5048 125.492 36.4571 125.813 36.3172L125.999 36.2346L125.754 32.6626L125.747 32.5593Z" fill="#00373A"/>
</svg>
