<?xml version="1.0" encoding="utf-8"?><svg version="1.1" id="Layer_1" xmlns="http://www.w3.org/2000/svg" xmlns:xlink="http://www.w3.org/1999/xlink" x="0px" y="0px" viewBox="0 0 713.39 707.4" style="enable-background:new 0 0 713.39 707.4" xml:space="preserve"><style type="text/css">.st0{fill:url(#SVGID_1_);stroke:#FCD109;stroke-width:0.094;} .st1{fill:#F8F3B5;stroke:#F8F3B5;stroke-width:0.094;} .st2{fill:#F7B402;stroke:#F7B402;stroke-width:0.094;} .st3{fill:#BDA727;stroke:#BDA727;stroke-width:0.094;} .st4{fill:#F7E62D;stroke:#F7E62D;stroke-width:0.094;} .st5{fill:url(#SVGID_2_);stroke:#FCD109;stroke-width:0.094;} .st6{fill:url(#SVGID_3_);stroke:#FCD109;stroke-width:0.094;} .st7{fill:url(#SVGID_4_);stroke:#FCD109;stroke-width:0.094;} .st8{fill:#0D69B3;stroke:#0D69B3;stroke-width:0.094;} .st9{fill:#107BD4;stroke:#107BD4;stroke-width:0.094;} .st10{fill:#FFFFFF;stroke:#FFFFFF;stroke-width:0.094;} .st11{clip-path:url(#SVGID_6_);} .st12{fill:none;stroke:#D1D1D1;stroke-width:2;}</style><linearGradient id="SVGID_1_" gradientUnits="userSpaceOnUse" x1="356.4805" y1="493.1343" x2="356.4805" y2="1080.8978" gradientTransform="matrix(1 0 0 1 0.14 -373.5461)"><stop offset="0" style="stop-color:#F7E830"/><stop offset="1" style="stop-color:#FDCB06"/></linearGradient><path class="st0" d="M712.87,122.59c-0.3-1-0.6-2-1-3c-236.9,0.1-473.7,0-710.5,0.1c-0.6,0.7-1,1.4-1.1,2.3c0,183.7,0,367.3-0.1,551	c1.5,9.8,6.9,18.7,14.1,25.4c0.3,0.1,1,0.2,1.3,0.3c3.7,3.9,9,5.8,14,7.6c3.7-0.2,7.3,1.4,11,1h294c2.8-0.1,5.7,0.4,8.4-0.7	c0.1-0.4,0.2-1.1,0.3-1.5c0.1-0.5,0.2-1.6,0.3-2.2c6.3-35.2,12.4-70.5,19.1-105.7l0.6-4.5c-27.2-0.1-54.5,0-81.7-0.1	c-6.6-0.2-13.4,0-20-0.8c-11.3-0.5-22.7-0.1-34-1.2c-14,0-27.9-1.3-41.9-1.3c-11-1.1-22.1-0.7-33.2-1.2c-7.2-0.9-14.6-0.5-21.9-0.8	c-11.9-1.3-24-0.4-35.9-1.7c-12.6,0.1-25.2-1-37.8-1.3c0.1-0.1,0.2-0.5,0.2-0.6c4.2,0.1,8.3-0.2,12.5-0.3c9.3-1.2,18.7-0.4,28-1.7	c9.7,0,19.3-1.3,29-1.3c8.6-1.2,17.3-0.5,25.9-1.7c10.1,0,20-1.3,30.1-1.4c8.3-1.1,16.7-0.5,25-1.6c9.7,0.1,19.3-1.4,29-1.3	c9.5-1.1,19.2-0.8,28.7-1.8c-0.9-3.7-1.6-7.4-2.4-11.1c-0.7-2.3-3.5-1.8-5.3-2.1c-21.7-3.1-43.3-6.2-64.9-9.2	c1.4-1.1,3.3-0.6,4.9-0.8c16.8-1.3,33.5-2.8,50.3-4c3.8-0.2,7.5-0.9,11.3-1c-1.7-5.2-2.7-10.9-5-15.7	c-35.9-5.5-71.8-10.4-107.6-16.3c9.3-1.5,18.7-2.2,28-3.2l0.8-0.3c29.7-3.1,59.5-6.6,89.2-9.5c37.7-0.2,75.3-0.1,113,0	c1.2-0.2,3.3,0.4,3.5-1.3c3.1-16.2,6.1-32.4,9.2-48.6c4.3-22.5,11.1-44.7,21.6-65.2c16.5-33,42.6-61,74.4-79.6	c29.7-17.4,64.1-25.8,98.3-27.4c11.1-1,22.3-0.7,33.3,0.7c7.2,1.7,14.6,3.7,20.3,8.6c4.7,3.8,7.5,9.4,9.6,15	c4.6,13.3,7.2,27.1,9.4,41c0.1,5.6,1.1,11.9-1.9,17c-2.8,5-8.4,7.4-13.7,8.9c-19.3,5-39.5,0.3-58.8,5c-15.9,3.4-30.7,12.2-40.8,24.9	c-11.9,14.8-18.2,33.2-21.7,51.6c-2.7,16.4-6.1,32.8-8.8,49.3c19,0.1,38.1-0.1,57.2,0.1c7.6,0,15.4,4.2,18.5,11.4	c4,9.2,3.1,19.6,1.8,29.3c-1.6,10.9-4.2,21.7-9.1,31.7c-4.1,8.5-10.9,16.3-20.2,19.3c-4.8,1.9-10,1.5-15.1,1.5	c-16.8,0-33.6,0.2-50.4,0c-2.7,12.3-4.5,24.9-6.9,37.4c-4.4,24.3-8.7,48.7-13.1,73.1c-0.1,0.8-0.2,2.5-0.2,3.4	c7.9,0.4,15.8,0,23.7,0.2c58.6,0,117.3-0.1,176,0c6.3,0.2,12.7-1.3,18.2-4.4c3.3-1.2,5.3-4.1,8.2-5.7c2.8-1.6,3.6-4.9,6-7	c2.6-4.6,5.3-9.4,5.5-14.8c0.3,0,1.1-0.1,1.5-0.2C712.77,490.59,713.07,306.59,712.87,122.59z"/><path class="st1" d="M93.47,1.59c8.5-2.7,17.4-0.9,26.1-1.5c163.3,0.1,326.6,0,489.9,0c9.7-0.4,18.2,5.1,27.2,7.9	c7.2,2.9,14.7,5.2,21.9,8.3c1.5,0.6,2.6,1.9,3.7,3c-0.1,13.2,0,26.5,0,39.8c0.1,3.5-0.5,7.1,0.7,10.5c2.1,0.3,3.2,1.9,4.6,3.2	c6.6,3,12.2,7.9,18.2,11.9c9,6.4,18.6,12,27.4,18.6c0.4,2.6,0.1,5.3-0.7,7.7c-0.9,2.8-0.3,5.8-0.6,8.6c-236.9,0.1-473.7,0-710.5,0.1	c-0.5-3.3,0.4-6.6-1-9.7c-0.2-2.6-1.1-6,1.4-7.8c10-7,20.6-13.3,30.4-20.7c6.1-3.9,12-7.9,17.9-11.9c1.2-2,0.8-4.5,0.8-6.7	c0-14.5,0-29,0.1-43.5c3.4-4.4,9.3-4.9,14-7.1C74.47,8.69,84.07,5.19,93.47,1.59 M94.07,3.29c-12.8,4.9-25.7,9.6-38.5,14.5	c-1.7,0.3-2.6,1.8-3.5,3.1c0.1,0.8,0.2,2.2,0.2,3c-0.1,12,0,24-0.1,36c0.1,3-0.3,6,0.8,8.7c-1.3,1.3-2.7,2.6-4.3,3.6	c-14.5,9.4-28.5,19.6-43,28.9c-2.5,1.5-5.3,3.5-4.5,6.8c-0.5,1.8,0.4,3.3,2.3,2.8c31.4-0.2,62.7,0.2,94.1-0.3c46.7,0,93.3,0.1,140,0	l0.7-0.3c2.1,0.5,4.2,0.3,6.4,0.3c84.6,0,169.2,0.1,253.9,0c26.6,0.1,53.3,0,80,0c44,0,88.1,0.4,132.1,0.2c1.3-0.3,1.7-1.2,1.2-2.8	c-0.1-1.6,0.5-3.8-1.2-4.8c-7-3.3-13-8.4-19.7-12.4c-2.4-2-5.5-3.1-7.3-5.8c-6.9-3.9-13.3-8.7-20.1-13c-1.3-0.8-2.3-2.1-3.4-3.2	c0.6-2.1,0.8-4.4,0.8-6.6c-0.1-12.7,0-25.4-0.1-38.1c0.3-2,0.2-4.3-1.6-5.6c-12-4.3-23.9-8.9-35.8-13.3c-3.7-1.8-7.8-2.8-11.8-3.4	h-511.1C98.37,1.69,96.27,2.79,94.07,3.29L94.07,3.29z"/><path class="st2" d="M52.27,23.89c8.8,3.7,18.2,5.8,27.1,9.4c4.8,1.9,6.3,7.1,8.4,11.3c-2.1,2.1-4.6,3.8-7.1,5.4	c-9.2,6.2-18.6,12.2-27.7,18.6c-1.1-2.7-0.7-5.7-0.8-8.7C52.27,47.89,52.17,35.89,52.27,23.89z M633.77,33.29	c8.9-3.5,18.2-5.9,27.1-9.4c0.1,12.7,0,25.4,0.1,38.1c0,2.2-0.2,4.5-0.8,6.6c-7.8-5.4-15.7-10.5-23.5-15.8c-3.8-2.8-8-4.9-11.4-8.3	C627.37,40.29,628.97,35.19,633.77,33.29L633.77,33.29z"/><path class="st3" d="M204.87,37.39c11-2.6,23.3,7.2,22.4,18.7c0.1,11.3-11.8,20.5-22.7,17.9c-4.4-1.5-8.6-3.8-11.3-7.7	c-3.5-5.3-4.3-12.4-1.5-18.2C193.77,42.49,199.17,38.69,204.87,37.39L204.87,37.39z M490.17,43.69c4.6-5.1,11.9-8,18.7-6.2	c5.1,1.5,10.1,4.8,12.3,9.8c4.4,8.6,1,20.2-7.6,24.7c-7.6,4.2-17.2,2.2-23-3.9C484.67,61.39,484.27,50.39,490.17,43.69z"/><path class="st4" d="M80.67,49.99c2.5-1.6,5-3.3,7.1-5.4l0.7,0.7c0.7,5.2,0.2,10.5,0.4,15.7c-0.3,15.6,0.3,31.3-0.4,46.9	c-29.1,0-58.2-0.2-87.3,0c-0.8-3.3,2-5.3,4.5-6.8c14.5-9.3,28.5-19.5,43-28.9c1.6-1,3-2.3,4.3-3.6	C62.07,62.19,71.47,56.19,80.67,49.99z M624.27,47.99c0-1.3,0.3-2.4,1-3.5c3.4,3.4,7.6,5.5,11.4,8.3c7.8,5.3,15.7,10.4,23.5,15.8	c1.1,1.1,2.1,2.4,3.4,3.2c6.8,4.3,13.2,9.1,20.1,13c1.8,2.7,4.9,3.8,7.3,5.8c6.7,4,12.7,9.1,19.7,12.4c1.7,1,1.1,3.2,1.2,4.8	c-29.1,0.1-58.1-0.1-87.2,0.1c-0.5-4-0.2-8-0.3-11.9C624.37,79.99,624.17,63.99,624.27,47.99L624.27,47.99z"/><radialGradient id="SVGID_2_" cx="353.4156" cy="761.2123" r="478.08" gradientTransform="matrix(1 0 0 1 0.14 -373.5461)" gradientUnits="userSpaceOnUse"><stop offset="0.596" style="stop-color:#F29405"/><stop offset="0.736" style="stop-color:#F7D01E"/><stop offset="1" style="stop-color:#FDCB06"/></radialGradient><path class="st5" d="M711.87,107.79c-29.1,0.1-58.1-0.1-87.2,0.1c-0.5-4-0.2-8-0.3-11.9c0-16-0.2-32-0.1-48c0-1.3,0.3-2.4,1-3.5	c2.1-4.2,3.7-9.3,8.5-11.2c8.9-3.5,18.2-5.9,27.1-9.4c0.3-2,0.2-4.3-1.6-5.6c-12-4.3-23.9-8.9-35.8-13.3c-3.7-1.8-7.8-2.8-11.8-3.4	h-511.1c-2.2,0.1-4.3,1.2-6.5,1.7c-12.8,4.9-25.7,9.6-38.5,14.5c-1.7,0.3-2.6,1.8-3.5,3.1c0.1,0.8,0.2,2.2,0.2,3	c8.8,3.7,18.2,5.8,27.1,9.4c4.8,1.9,6.3,7.1,8.4,11.3l0.7,0.7c0.7,5.2,0.2,10.5,0.4,15.7c-0.3,15.6,0.3,31.3-0.4,46.9	c-29.1,0-58.2-0.2-87.3,0c-0.5,1.8,0.4,3.3,2.3,2.8c31.4-0.2,62.7,0.2,94.1-0.3c46.7,0,93.3,0.1,140,0l0.7-0.3	c2.1,0.5,4.2,0.3,6.4,0.3c84.6,0,169.2,0.1,253.9,0c26.6,0.1,53.3,0,80,0c44,0,88.1,0.4,132.1,0.2	C711.97,110.29,712.37,109.39,711.87,107.79L711.87,107.79z M191.77,48.09c2-5.6,7.4-9.4,13.1-10.7c11-2.6,23.3,7.2,22.4,18.7	c0.1,11.3-11.8,20.5-22.7,17.9c-4.4-1.5-8.6-3.8-11.3-7.7C189.77,60.99,188.97,53.89,191.77,48.09L191.77,48.09z M490.17,43.69	c4.6-5.1,11.9-8,18.7-6.2c5.1,1.5,10.1,4.8,12.3,9.8c4.4,8.6,1,20.2-7.6,24.7c-7.6,4.2-17.2,2.2-23-3.9	C484.67,61.39,484.27,50.39,490.17,43.69z"/><linearGradient id="SVGID_3_" gradientUnits="userSpaceOnUse" x1="520.03" y1="514.347" x2="520.197" y2="542.18" gradientTransform="matrix(1 0 0 1 0.14 -373.5461)"><stop offset="0" style="stop-color:#FADA1C"/><stop offset="1" style="stop-color:#FDCB06"/></linearGradient><path class="st6" d="M515.66,151.73c1.4,0.3-7.29-8.35-5.59-8.75c1.6,0.2,7.67-4.51,15-0.67c7.33,3.84,5.51,12.83,4.68,16.17	c-0.99,3.97-3.52,6.5-5.52,8.5c-1.1,0.9-3.57,2.3-5.07,2.2c0.9-4.9-2-5.7-2.2-10.7L515.66,151.73z"/><linearGradient id="SVGID_4_" gradientUnits="userSpaceOnUse" x1="-811.1298" y1="513.0134" x2="-810.9628" y2="540.8463" gradientTransform="matrix(-1 0 0 1 -618.3428 -373.5461)"><stop offset="0" style="stop-color:#FADA1C"/><stop offset="1" style="stop-color:#FDCB06"/></linearGradient><path class="st7" d="M195.99,157.16c-0.2,5-3.1,5.8-2.2,10.7c-1.5,0.1-3.97-1.3-5.07-2.2c-2-2-4.52-4.53-5.51-8.5	c-0.83-3.33-2.65-12.32,4.68-16.17s13.4,0.87,15,0.67c1.7,0.4-6.99,9.05-5.59,8.75L195.99,157.16L195.99,157.16z"/><path class="st3" d="M502.57,215.79c1.5-1.31,2.5-1.31,4.5-1.31c-12,26-26,52-47.05,72.24c-2.25,2.01-4.63,3.87-7.12,5.58	c-2.41,1.76-4.77,3.42-7.12,5.1c-2.3,1.6-4.59,3.2-6.81,4.88c-5.7,3.1-10.7,7.4-17,9.3c-11.5,5.5-23.9,9.2-36.4,11.8	c-4.9,0.8-9.9,2-14.9,2.1c-6.2,1.8-12.8,0.5-19.1,0.9c-3.5,0.6-6.6-1.4-10-1c-2.95-0.42-5.89-0.92-8.82-1.5	c-2.97-0.61-5.92-1.31-8.84-2.1c-45.84-14.3-90.84-49.3-103.95-96.64c-0.59-3.19-0.89-6.42-0.89-9.67c1.4,2.8,2.85,5.58,4.35,8.33	c18.65,40.67,55.65,72.67,99.36,82.32c3.55,1.62,7.39,1.05,10.79,2.45c3.1,0,6.1-0.1,9.1,0.9c10.3,0.2,20.6,0.1,30.9,0.1	c1.4,0.1,2.7-0.6,4.1-0.9c17.17-0.58,33.99-5.26,49.65-12.36c3.13-1.42,6.22-2.94,9.25-4.54c2.65-1.4,5.25-2.91,7.77-4.54	c2.48-1.6,4.88-3.3,7.22-5.1c18.51-14.66,34.51-33.66,45.38-55.51C499,222.71,500.9,219.07,502.57,215.79z"/><path class="st8" d="M486.27,304.69c29.7-17.4,64.1-25.8,98.3-27.4c11.1-1,22.3-0.7,33.3,0.7c7.2,1.7,14.6,3.7,20.3,8.6	c-2.9,0.2-5.7-1.1-8.6-1.5c-8.2-1.6-16.7-1-25-1.2c-24.1,0-48.4,1.9-71.7,8.5c-12.2,3.7-24.4,8-35.5,14.4	c-19.2,10.6-36.5,24.6-50.5,41.4c-25,28.7-39.7,65.1-46.8,102.2c-3.4,19.9-7.3,39.7-10.4,59.7c-5,0.5-10.1,0.2-15.1,0.2	c-22-0.1-44-0.2-66-0.4c-4.7,0.2-9.3-0.9-14-0.6c-40,0.2-80-0.1-120-0.1l0.8-0.3c29.7-3.1,59.5-6.6,89.2-9.5	c37.7-0.2,75.3-0.1,113,0c1.2-0.2,3.3,0.4,3.5-1.3c3.1-16.2,6.1-32.4,9.2-48.6c4.3-22.5,11.1-44.7,21.6-65.2	C428.37,351.29,454.47,323.29,486.27,304.69z"/><path class="st9" d="M532.87,292.39c23.3-6.6,47.6-8.5,71.7-8.5c8.3,0.2,16.8-0.4,25,1.2c2.9,0.4,5.7,1.7,8.6,1.5	c4.7,3.8,7.5,9.4,9.6,15c4.6,13.3,7.2,27.1,9.4,41c0.1,5.6,1.1,11.9-1.9,17c-2.8,5-8.4,7.4-13.7,8.9c-19.3,5-39.5,0.3-58.8,5	c-15.9,3.4-30.7,12.2-40.8,24.9c-11.9,14.8-18.2,33.2-21.7,51.6c-2.7,16.4-6.1,32.8-8.8,49.3c-1.2,3.7-1.9,7.7-2.6,11.6	c18.9,0.3,37.8,0,56.7,0.2c7.2-0.2,14.4,0.2,21.6-0.3c4,9.2,3.1,19.6,1.8,29.3c-1.6,10.9-4.2,21.7-9.1,31.7	c-4.1,8.5-10.9,16.3-20.2,19.3c-4.8,1.9-10,1.5-15.1,1.5c-16.8,0-33.6,0.2-50.4,0c-2.7,12.3-4.5,24.9-6.9,37.4	c-4.4,24.3-8.7,48.7-13.1,73.1c-0.1,0.8-0.2,2.5-0.2,3.4v0.1c-43.7,0-87.3,0.1-131,0c0.1-0.4,0.2-1.1,0.3-1.5	c0.1-0.5,0.2-1.6,0.3-2.2c0.1,0.8,0.2,2.3,0.3,3c2.7,0.3,7.6,1.7,8.3-2.2c6.8-36.8,13.1-73.8,20.1-110.6c-2.7-0.6-5.5-0.6-8.3-0.1	c-0.4,1.4-0.8,2.8-1.3,4.2l0.6-4.5c-27.2-0.1-54.5,0-81.7-0.1c-6.6-0.2-13.4,0-20-0.8c-11.3-0.5-22.7-0.1-34-1.2	c-14,0-27.9-1.3-41.9-1.3c-11-1.1-22.1-0.7-33.2-1.2c-7.2-0.9-14.6-0.5-21.9-0.8c-11.9-1.3-24-0.4-35.9-1.7	c-12.6,0.1-25.2-1-37.8-1.3c0.1-0.1,0.2-0.5,0.2-0.6c4.2,0.1,8.3-0.2,12.5-0.3c9.3-1.2,18.7-0.4,28-1.7c9.7,0,19.3-1.3,29-1.3	c8.6-1.2,17.3-0.5,25.9-1.7c10.1,0,20-1.3,30.1-1.4c8.3-1.1,16.7-0.5,25-1.6c9.7,0.1,19.3-1.4,29-1.3c9.5-1.1,19.2-0.8,28.7-1.8	c-0.9-3.7-1.6-7.4-2.4-11.1c-0.7-2.3-3.5-1.8-5.3-2.1c-21.7-3.1-43.3-6.2-64.9-9.2c1.4-1.1,3.3-0.6,4.9-0.8	c16.8-1.3,33.5-2.8,50.3-4c3.8-0.2,7.5-0.9,11.3-1c-1.7-5.2-2.7-10.9-5-15.7c-35.9-5.5-71.8-10.4-107.6-16.3	c9.3-1.5,18.7-2.2,28-3.2c40,0,80,0.3,120,0.1c4.7-0.3,9.3,0.8,14,0.6c22,0.2,44,0.3,66,0.4c5,0,10.1,0.3,15.1-0.2	c3.1-20,7-39.8,10.4-59.7c7.1-37.1,21.8-73.5,46.8-102.2c14-16.8,31.3-30.8,50.5-41.4C508.47,300.39,520.67,296.09,532.87,292.39z"/><path class="st8" d="M511.47,499.29c19,0.1,38.1-0.1,57.2,0.1c7.6,0,15.4,4.2,18.5,11.4c-7.2,0.5-14.4,0.1-21.6,0.3	c-18.9-0.2-37.8,0.1-56.7-0.2C509.57,506.99,510.27,502.99,511.47,499.29L511.47,499.29z M363.97,592.99c2.8-0.5,5.6-0.5,8.3,0.1	c-7,36.8-13.3,73.8-20.1,110.6c-0.7,3.9-5.6,2.5-8.3,2.2c-0.1-0.7-0.2-2.2-0.3-3c6.3-35.2,12.4-70.5,19.1-105.7	C363.17,595.79,363.57,594.39,363.97,592.99L363.97,592.99z"/><path class="st10" d="M520.22,154.53c-0.8-1.5-0.9-3.3-0.9-5l-0.8,0.1c-1.2-4.4-4.9-8.6-9.7-8.8c-3.6-0.3-8.1-0.2-10.2,3.2	c-4,5.4-2.1,12.3-2.3,18.4c0,0.4,0.1,1.1,0.1,1.5c0,4.1-0.5,8.1-1.2,12.1c-0.6,1.2-0.9,2.5-0.9,3.9c-1.7,9.4-5.1,18.7-9.7,27.2	c-0.9,1.2-1.6,2.5-1.9,3.9c-3,5.2-6.6,10-10.3,14.8c-0.6,0.5-1.1,1.1-1.6,1.7c-2.6,3.2-5.4,5.9-8.3,8.7c-0.7,0.4-1.2,0.9-1.8,1.3	c-3.4,3.3-7.2,6.4-11.3,8.9c-0.5,0.3-1,0.7-1.6,1.1c-25.6,16.9-56.7,23.9-87,24.2c-25.7,0.8-51.6-4.7-74.8-15.8	c-0.4-0.2-1.4-0.6-1.8-0.8c-3.9-2.1-7.9-3.9-11.5-6.5c-0.8-0.4-1.6-0.9-2.5-1.3c-3.7-2.2-7.2-4.6-10.5-7.4c-1.1-1-2.3-1.8-3.5-2.7	c-3.6-2.9-7.3-6-10.4-9.5c-0.8-0.9-1.6-1.7-2.4-2.5c-10.9-11.3-19.4-25.1-23.9-40.1c-4.3-11.9-3.7-24.9-4.2-37.4	c-3.6-5.5-11.2-8.6-17.2-5.2c-2.5,1.8-2.8,5.1-4.7,7.4c-3.1,33,11,65.9,33.5,89.7c0,0.8,0.4,1.3,1.1,1.6c4,3.7,7.9,7.5,11.9,11.1	c0.7,0.7,1.5,1.4,2.4,2c4,3.3,8.3,6.3,12.5,9.4c0.8,0.6,1.6,1.1,2.5,1.6c5.5,3.2,10.7,7,16.6,9.2c0.4,0.3,1.1,0.8,1.5,1	c19,9.1,39.5,15.3,60.5,17.3c2.3,0,4.6,0.2,6.9,0.7c10,0.6,20,0.3,30,0.1c30.9-2.7,62.8-10.2,88.6-28.4l0.3,0.4	c0.8-0.7,1.5-1.3,2.3-1.9c4.1-3,8.1-6.2,12.1-9.5c0.9-0.7,1.9-1.5,2.8-2.4c4.4-4.8,9.5-9.2,13.2-14.7l0.6,0.3c0.3-0.5,0.8-1.5,1.1-2	c3.4-4.6,6.5-9.4,9.5-14.2c0.2-0.3,0.7-0.8,0.9-1.1l-0.4-0.4c0.3-0.4,1-1.2,1.3-1.6c5.5-11.2,10.4-22.9,12.1-35.3	c0.7-0.3,1.1-0.9,1.1-1.6c0.1-4,1.5-7.8,1.1-11.8C520.32,164.53,520.42,159.53,520.22,154.53L520.22,154.53z"/><g><defs><path id="SVGID_5_" d="M520.22,154.53c-0.8-1.5-0.9-3.3-0.9-5l-0.8,0.1c-1.2-4.4-4.9-8.6-9.7-8.8c-3.6-0.3-8.1-0.2-10.2,3.2 c-4,5.4-2.1,12.3-2.3,18.4c0,0.4,0.1,1.1,0.1,1.5c0,4.1-0.5,8.1-1.2,12.1c-0.6,1.2-0.9,2.5-0.9,3.9c-1.7,9.4-5.1,18.7-9.7,27.2 c-0.9,1.2-1.6,2.5-1.9,3.9c-3,5.2-6.6,10-10.3,14.8c-0.6,0.5-1.1,1.1-1.6,1.7c-2.6,3.2-5.4,5.9-8.3,8.7c-0.7,0.4-1.2,0.9-1.8,1.3 c-3.4,3.3-7.2,6.4-11.3,8.9c-0.5,0.3-1,0.7-1.6,1.1c-25.6,16.9-56.7,23.9-87,24.2c-25.7,0.8-51.6-4.7-74.8-15.8 c-0.4-0.2-1.4-0.6-1.8-0.8c-3.9-2.1-7.9-3.9-11.5-6.5c-0.8-0.4-1.6-0.9-2.5-1.3c-3.7-2.2-7.2-4.6-10.5-7.4c-1.1-1-2.3-1.8-3.5-2.7 c-3.6-2.9-7.3-6-10.4-9.5c-0.8-0.9-1.6-1.7-2.4-2.5c-10.9-11.3-19.4-25.1-23.9-40.1c-4.3-11.9-3.7-24.9-4.2-37.4 c-3.6-5.5-11.2-8.6-17.2-5.2c-2.5,1.8-2.8,5.1-4.7,7.4c-3.1,33,11,65.9,33.5,89.7c0,0.8,0.4,1.3,1.1,1.6c4,3.7,7.9,7.5,11.9,11.1 c0.7,0.7,1.5,1.4,2.4,2c4,3.3,8.3,6.3,12.5,9.4c0.8,0.6,1.6,1.1,2.5,1.6c5.5,3.2,10.7,7,16.6,9.2c0.4,0.3,1.1,0.8,1.5,1 c19,9.1,39.5,15.3,60.5,17.3c2.3,0,4.6,0.2,6.9,0.7c10,0.6,20,0.3,30,0.1c30.9-2.7,62.8-10.2,88.6-28.4l0.3,0.4 c0.8-0.7,1.5-1.3,2.3-1.9c4.1-3,8.1-6.2,12.1-9.5c0.9-0.7,1.9-1.5,2.8-2.4c4.4-4.8,9.5-9.2,13.2-14.7l0.6,0.3 c0.3-0.5,0.8-1.5,1.1-2c3.4-4.6,6.5-9.4,9.5-14.2c0.2-0.3,0.7-0.8,0.9-1.1l-0.4-0.4c0.3-0.4,1-1.2,1.3-1.6 c5.5-11.2,10.4-22.9,12.1-35.3c0.7-0.3,1.1-0.9,1.1-1.6c0.1-4,1.5-7.8,1.1-11.8C520.32,164.53,520.42,159.53,520.22,154.53 L520.22,154.53z"/></defs><clipPath id="SVGID_6_"><use xlink:href="#SVGID_5_" style="overflow:visible"/></clipPath><g class="st11"><path class="st12" d="M185.74,151.16c8.11,2.54,26.73-3.85,32,2 M190.4,175.82c7.77-2.7,24.43-9.1,31.33-5.33 M198.4,200.49 c3.76,1.22,11.16-5.38,14.83-7.31c5.47-2.88,11.08-5.08,17.17-6.02 M210.4,226.49c3.87-5.5,8.51-10.08,14.1-13.98 c5.55-3.87,20.72-14.23,27.23-10.68 M221.74,245.16c4.4-3.49,6.19-9.68,10.8-13.35c5.58-4.44,14.14-5.24,19.86-7.98 M240.57,258.99c1.32-9.67,11.13-21.33,20.5-20.5 M255.07,272.49c4.95-0.5,9.14-11.58,12.49-15.33 c5.02-5.62,10.21-7.36,16.85-9.34 M283.74,284.49c-0.32-7,6.91-27.05,15.33-26 M305.07,291.16c-0.35-8.27,3.92-33.14,14-34 M327.07,304.49c-1.91-11.56-1.79-28.29,7.33-36.67 M354.4,307.16c-1.02-9.64-10.59-29.12,0-36.67 M383.74,300.49 c-4.57-5.3-7.23-26.21-5.33-32 M411.74,295.82c-3.53-6.4-7.9-12.42-9.23-19.85c-0.8-4.44,0.6-10.77-0.1-14.15 M435.07,285.82 c-7.65-5-9.77-23.39-7.33-31.33 M457.74,275.82c-5.44-11.67-11.24-20.72-11.33-34 M479.74,254.49c-8.45-5.69-19.24-16.02-18-27.33 M503.07,236.49c-12.84-2.85-28.26-14.34-36-24.67 M513.74,214.49c-9.27-1.99-39.88-13.93-38-26 M523.74,191.16 c-12.91-4.73-31.69-8.99-42-18 M530.4,169.82c-8.13,0.7-19.78-3.24-28.05-4.67c-9.18-1.58-17.69-4.68-26.62-6.67 M522.4,149.16 c-15.68,0.94-30.4-4.43-44.67-9.33"/></g></g></svg>