<svg width="109" height="40" viewBox="0 0 109 40" fill="none" xmlns="http://www.w3.org/2000/svg">
<path d="M6.75 31.1143H6V35.9996H6.75V31.1143Z" fill="#09202D"/>
<path d="M13.1086 35.9996L10.3759 32.2778V35.9996H9.625V31.1143H10.3914L13.1319 34.851V31.1143H13.875V35.9996H13.1086Z" fill="#09202D"/>
<path d="M26.8586 35.9996L24.1259 32.2778V35.9996H23.375V31.1143H24.1414L26.8819 34.851V31.1143H27.625V35.9996H26.8586Z" fill="#09202D"/>
<path d="M32.402 35.9996C31.7541 35.9996 31.2296 35.7966 30.8362 35.398C30.4429 34.9993 30.25 34.4557 30.25 33.7817V33.325C30.25 32.8829 30.3425 32.4914 30.5276 32.158C30.7127 31.8246 30.975 31.5637 31.3067 31.3825C31.6384 31.2012 32.0317 31.1143 32.4714 31.1143C33.0499 31.1143 33.5281 31.2592 33.883 31.5346C34.2377 31.8174 34.446 32.2087 34.5 32.7088V32.7234H33.7441V32.7162C33.6824 32.3465 33.5435 32.0711 33.343 31.9043C33.1347 31.7376 32.8416 31.6507 32.4714 31.6507C32.0164 31.6507 31.6537 31.7956 31.3915 32.0856C31.1292 32.3754 30.9981 32.7959 30.9981 33.3322V33.7889C30.9981 34.2962 31.1216 34.7022 31.3684 35.0066C31.6152 35.3038 31.9624 35.456 32.402 35.456C32.8031 35.456 33.1116 35.3763 33.3199 35.2241C33.5281 35.0719 33.6746 34.7964 33.7441 34.4122V34.405H34.4922V34.4195C34.4228 34.9196 34.2069 35.311 33.8444 35.5864C33.4819 35.8619 32.9959 35.9996 32.402 35.9996Z" fill="#09202D"/>
<path d="M37.875 31.1143H37.125V35.9996H37.875V31.1143Z" fill="#09202D"/>
<path d="M60.652 35.9996C60.0041 35.9996 59.4796 35.7964 59.0862 35.3971C58.6929 34.9979 58.5 34.4534 58.5 33.7784V33.321C58.5 32.8782 58.5925 32.4862 58.7776 32.1523C58.9627 31.8184 59.225 31.5571 59.5567 31.3828C59.8884 31.2013 60.2817 31.1143 60.7214 31.1143C61.3076 31.1143 61.7781 31.2595 62.133 31.5353C62.4877 31.8184 62.696 32.2104 62.75 32.7113V32.7258H62.0019V32.7185C61.9401 32.3483 61.8012 32.0724 61.6007 31.9054C61.3925 31.7385 61.0994 31.6514 60.7291 31.6514C60.274 31.6514 59.9115 31.7966 59.6492 32.0869C59.387 32.3774 59.2559 32.7984 59.2559 33.3355V33.7929C59.2559 34.301 59.3794 34.7074 59.6261 35.0124C59.873 35.3173 60.2124 35.4625 60.6597 35.4625C61.0607 35.4625 61.3694 35.3826 61.5776 35.2302C61.7859 35.0778 61.9324 34.8019 62.0019 34.4171V34.4099H62.75V34.4245C62.6806 34.9253 62.4646 35.3173 62.1021 35.5932C61.7396 35.8617 61.2536 35.9996 60.652 35.9996Z" fill="#09202D"/>
<path d="M65.375 35.9996V31.1143H66.1294V35.4477H68.75V35.9996H65.375Z" fill="#09202D"/>
<path d="M72.8201 35.9996C72.3932 35.9996 72.0122 35.9051 71.6769 35.7234C71.3491 35.5416 71.09 35.2727 70.907 34.9383C70.7241 34.5965 70.6326 34.1967 70.625 33.7532V33.4116C70.625 32.9536 70.7165 32.5464 70.8994 32.1975C71.0824 31.8485 71.3415 31.5796 71.6692 31.3905C72.0046 31.2015 72.3856 31.1143 72.8125 31.1143C73.247 31.1143 73.6356 31.2088 73.9634 31.3905C74.2911 31.5723 74.5502 31.8412 74.7332 32.1903C74.9085 32.5392 75 32.9463 75 33.4116V33.7096C75 34.1749 74.9085 34.582 74.7332 34.931C74.5579 35.2799 74.2987 35.549 73.971 35.7307C73.6432 35.9051 73.2546 35.9996 72.8201 35.9996ZM72.8125 31.6668C72.3627 31.6668 72.0122 31.8195 71.753 32.1103C71.4939 32.4083 71.3644 32.8227 71.3567 33.3533V33.7023C71.3567 34.2403 71.4862 34.6692 71.7454 34.9746C72.0046 35.2799 72.3627 35.4399 72.8201 35.4399C73.2775 35.4399 73.6356 35.2944 73.8872 35.0036C74.1387 34.7128 74.2682 34.2912 74.2759 33.746V33.3969C74.2759 32.8445 74.1464 32.4083 73.8949 32.1103C73.6356 31.8195 73.2699 31.6668 72.8125 31.6668Z" fill="#09202D"/>
<path d="M79.6172 35.9996C79.015 35.9996 78.5285 35.8581 78.1732 35.5751C77.818 35.2921 77.6327 34.8975 77.625 34.3984V31.1143H78.375V34.3722C78.375 34.7148 78.4744 34.9868 78.6906 35.173C78.9069 35.3592 79.2157 35.456 79.6172 35.456C80.0189 35.456 80.3354 35.3592 80.5516 35.173C80.7679 34.9868 80.876 34.7187 80.876 34.3761V31.1143H81.625V34.3835C81.625 34.8379 81.4551 35.2177 81.1307 35.5007C80.8065 35.7911 80.3662 35.9549 79.8104 35.9847L79.6172 35.9996Z" fill="#09202D"/>
<path d="M84.25 35.9996V31.1143H85.8099C86.2886 31.1143 86.7134 31.2112 87.084 31.3977C87.4546 31.5841 87.7404 31.8527 87.9411 32.2032C88.1419 32.5463 88.2422 32.9491 88.25 33.3966V33.7099C88.25 34.1648 88.1496 34.5751 87.9489 34.9181C87.7481 35.2612 87.4624 35.5298 87.0917 35.7162C86.721 35.9026 86.2809 35.9996 85.7944 35.9996H84.25ZM84.999 35.4477H85.7481C86.304 35.4477 86.7365 35.291 87.0454 34.9928C87.3542 34.6869 87.5087 34.2543 87.5087 33.6875V33.404C87.5087 32.8596 87.362 32.427 87.0762 32.1286C86.7829 31.8229 86.3735 31.6736 85.8407 31.6662H85.0067L84.999 35.4477Z" fill="#09202D"/>
<path d="M0 35.9996V31.1143H3.49999V31.8452H0.764637V33.2175L2.73535 33.1877V33.9262L0.764637 33.9485V35.9996H0Z" fill="#09202D"/>
<path d="M20.3666 35.9996L19.8791 34.8286H17.5036L17.0237 35.9996H16.25L18.3625 31.1143H19.0125L21.125 35.9996H20.3666ZM17.8131 34.0902H19.5774L18.6952 31.9422L17.8131 34.0902Z" fill="#09202D"/>
<path d="M44.4839 35.9996L44.0041 34.8286H41.6286L41.1487 35.9996H40.375L42.4875 31.1143H43.1375L45.25 35.9996H44.4839ZM41.9304 34.0902H43.6946L42.8125 31.9422L41.9304 34.0902Z" fill="#09202D"/>
<path d="M47.4961 35.9996V31.1143H48.2505V35.2612H50.8711V35.9996H47.4961Z" fill="#09202D"/>
<path d="M83.1875 4L76.8827 13.6349L70.5547 4H65.5V26.1063H70.5547V13.1397L74.2048 18.7376H79.5219L83.1875 13.1247V26.1063H88.2499V4H83.1875Z" fill="#09202D"/>
<path d="M14.4887 8.90751L17.6249 4H0V8.8925V13.7925V18.685V26.1063H5.07179V18.7376H14.4887L14.4732 13.8225H5.07179V8.90751H14.4887Z" fill="#09202D"/>
<path d="M29.1875 4C22.9402 4 17.875 8.94917 17.875 15.0531C17.875 21.1572 22.9402 26.1063 29.1875 26.1063C35.4347 26.1063 40.4999 21.1572 40.4999 15.0531C40.4999 8.94917 35.4347 4 29.1875 4ZM29.1875 20.9922C25.7185 20.9922 22.9019 18.2401 22.9019 14.8507C22.9019 11.4612 25.7185 8.70921 29.1875 8.70921C32.6564 8.70921 35.473 11.4612 35.473 14.8507C35.473 18.2401 32.6564 20.9922 29.1875 20.9922Z" fill="#09202D"/>
<path d="M61.1963 15.8861C61.8632 14.9556 62.2431 13.83 62.3207 12.4943C62.3672 11.9991 62.3827 11.4588 62.3362 10.896C62.1578 8.7124 61.7778 7.39173 60.3821 5.91348C58.9321 4.37519 57.2958 4.05253 55.3728 4H48.5955H43.625V26.1063H48.7041V18.7376H52.7363L56.6057 26.1063H62.3749L57.6448 18.1447C59.1492 17.7094 60.4131 16.9891 61.1963 15.8861ZM54.6982 14.0326C54.6905 14.0401 48.7041 14.0326 48.7041 14.0326V8.68989H54.4811C54.5121 8.68989 54.8765 8.7049 54.9076 8.7124C56.2568 8.86999 57.3113 9.98806 57.3113 11.3613C57.3036 12.802 56.1482 13.9651 54.6982 14.0326Z" fill="#09202D"/>
<path d="M96.25 17.5423H91.375C91.375 22.2716 95.3205 26.1055 100.187 26.1055C105.054 26.1055 109 22.2716 109 17.5423C109 14.4963 107.363 11.8217 104.898 10.3037L102.292 14.3081C103.394 14.9863 104.125 16.1814 104.125 17.5423C104.125 19.6555 102.362 21.3684 100.187 21.3684C98.0128 21.3684 96.25 19.6555 96.25 17.5423Z" fill="#00B4B4"/>
<path d="M105.812 8.89985H91.375V4H109L105.812 8.89985Z" fill="#00B4B4"/>
</svg>
