<svg width="100" height="48" viewBox="0 0 100 48" fill="none" xmlns="http://www.w3.org/2000/svg">
<path d="M6.19198 34.5723H5.50391V38.9996H6.19198V34.5723Z" fill="#141A1F"/>
<path d="M12.0261 38.9996L9.51899 35.6268V38.9996H8.83008V34.5723H9.53318L12.0474 37.9586V34.5723H12.7291V38.9996H12.0261Z" fill="#141A1F"/>
<path d="M24.6413 38.9996L22.1342 35.6268V38.9996H21.4453V34.5723H22.1484L24.6626 37.9586V34.5723H25.3444V38.9996H24.6413Z" fill="#141A1F"/>
<path d="M29.7263 38.9996C29.1319 38.9996 28.6507 38.8157 28.2898 38.4544C27.9289 38.0931 27.752 37.6005 27.752 36.9896V36.5758C27.752 36.1751 27.8368 35.8203 28.0067 35.5182C28.1765 35.216 28.4171 34.9796 28.7214 34.8153C29.0257 34.6511 29.3866 34.5723 29.7899 34.5723C30.3206 34.5723 30.7594 34.7036 31.085 34.9532C31.4104 35.2095 31.6015 35.5641 31.651 36.0174V36.0305H30.9576V36.024C30.9009 35.689 30.7735 35.4394 30.5895 35.2883C30.3985 35.1372 30.1296 35.0584 29.7899 35.0584C29.3725 35.0584 29.0398 35.1898 28.7992 35.4525C28.5586 35.7152 28.4383 36.0963 28.4383 36.5823V36.9961C28.4383 37.4559 28.5516 37.8238 28.778 38.0997C29.0045 38.3691 29.3229 38.507 29.7263 38.507C30.0943 38.507 30.3773 38.4347 30.5683 38.2968C30.7594 38.1589 30.8938 37.9092 30.9576 37.5611V37.5545H31.6439V37.5676C31.5803 38.0208 31.3821 38.3756 31.0495 38.6252C30.717 38.8748 30.2711 38.9996 29.7263 38.9996Z" fill="#141A1F"/>
<path d="M34.7486 34.5723H34.0605V38.9996H34.7486V34.5723Z" fill="#141A1F"/>
<path d="M55.6442 38.9996C55.0499 38.9996 54.5687 38.8154 54.2078 38.4536C53.8469 38.0918 53.6699 37.5984 53.6699 36.9866V36.5721C53.6699 36.1709 53.7548 35.8156 53.9246 35.513C54.0945 35.2104 54.3351 34.9736 54.6394 34.8157C54.9437 34.6512 55.3046 34.5723 55.7079 34.5723C56.2457 34.5723 56.6774 34.7039 57.0029 34.9538C57.3284 35.2104 57.5195 35.5657 57.569 36.0196V36.0327H56.8826V36.0261C56.826 35.6906 56.6986 35.4406 56.5146 35.2893C56.3236 35.138 56.0547 35.0591 55.715 35.0591C55.2974 35.0591 54.9649 35.1907 54.7243 35.4538C54.4837 35.717 54.3634 36.0985 54.3634 36.5853V36.9998C54.3634 37.4602 54.4767 37.8286 54.7031 38.105C54.9296 38.3812 55.2409 38.5128 55.6513 38.5128C56.0192 38.5128 56.3024 38.4405 56.4934 38.3023C56.6845 38.1642 56.8189 37.9142 56.8826 37.5655V37.559H57.569V37.5721C57.5053 38.0261 57.3072 38.3812 56.9746 38.6313C56.642 38.8747 56.1962 38.9996 55.6442 38.9996Z" fill="#141A1F"/>
<path d="M59.9746 38.9996V34.5723H60.6667V38.4994H63.0709V38.9996H59.9746Z" fill="#141A1F"/>
<path d="M66.8088 38.9996C66.4172 38.9996 66.0676 38.914 65.7599 38.7493C65.4593 38.5846 65.2215 38.3408 65.0536 38.0378C64.8859 37.7281 64.8019 37.3657 64.7949 36.9638V36.6542C64.7949 36.2392 64.8789 35.8701 65.0466 35.5539C65.2145 35.2377 65.4523 34.994 65.7529 34.8226C66.0606 34.6513 66.4102 34.5723 66.8018 34.5723C67.2004 34.5723 67.5569 34.6579 67.8576 34.8226C68.1583 34.9873 68.396 35.2311 68.5639 35.5474C68.7247 35.8636 68.8087 36.2325 68.8087 36.6542V36.9243C68.8087 37.346 68.7247 37.7149 68.5639 38.0311C68.403 38.3474 68.1653 38.5912 67.8646 38.7559C67.5639 38.914 67.2074 38.9996 66.8088 38.9996ZM66.8018 35.073C66.3892 35.073 66.0676 35.2114 65.8298 35.4749C65.592 35.745 65.4732 36.1205 65.4662 36.6014V36.9177C65.4662 37.4052 65.5851 37.7939 65.8228 38.0707C66.0606 38.3474 66.3892 38.4924 66.8088 38.4924C67.2284 38.4924 67.5569 38.3605 67.7878 38.097C68.0185 37.8335 68.1373 37.4514 68.1443 36.9573V36.641C68.1443 36.1403 68.0255 35.745 67.7948 35.4749C67.5569 35.2114 67.2214 35.073 66.8018 35.073Z" fill="#141A1F"/>
<path d="M73.0426 38.9996C72.4901 38.9996 72.0437 38.8713 71.7178 38.6149C71.3919 38.3584 71.222 38.0008 71.2148 37.5486V34.5723H71.9029V37.5248C71.9029 37.8352 71.9941 38.0817 72.1925 38.2505C72.3909 38.4192 72.6742 38.507 73.0426 38.507C73.4111 38.507 73.7014 38.4192 73.8998 38.2505C74.0982 38.0817 74.1974 37.8388 74.1974 37.5283V34.5723H74.8846V37.5351C74.8846 37.9468 74.7287 38.291 74.4311 38.5475C74.1336 38.8107 73.7297 38.9591 73.2198 38.9861L73.0426 38.9996Z" fill="#141A1F"/>
<path d="M77.2949 38.9996V34.5723H78.726C79.1652 34.5723 79.5549 34.6601 79.8949 34.8292C80.2349 34.9981 80.4971 35.2415 80.6813 35.5591C80.8654 35.87 80.9575 36.2351 80.9646 36.6406V36.9245C80.9646 37.3368 80.8725 37.7086 80.6884 38.0195C80.5042 38.3304 80.242 38.5738 79.902 38.7427C79.5619 38.9117 79.1581 38.9996 78.7118 38.9996H77.2949ZM77.9821 38.4994H78.6693C79.1793 38.4994 79.5761 38.3574 79.8595 38.0871C80.1428 37.81 80.2846 37.418 80.2846 36.9043V36.6474C80.2846 36.1539 80.15 35.7619 79.8878 35.4915C79.6186 35.2145 79.2431 35.0792 78.7543 35.0724H77.9892L77.9821 38.4994Z" fill="#141A1F"/>
<path d="M0 38.9996V34.5723H3.211V35.2347H0.701502V36.4784L2.5095 36.4514V37.1205L0.701502 37.1408V38.9996H0Z" fill="#141A1F"/>
<path d="M18.683 38.9996L18.2357 37.9384H16.0564L15.6161 38.9996H14.9062L16.8443 34.5723H17.4406L19.3787 38.9996H18.683ZM16.3403 37.2692H17.9589L17.1496 35.3226L16.3403 37.2692Z" fill="#141A1F"/>
<path d="M40.8106 38.9996L40.3705 37.9384H38.1911L37.7509 38.9996H37.041L38.9791 34.5723H39.5754L41.5135 38.9996H40.8106ZM38.468 37.2692H40.0865L39.2772 35.3226L38.468 37.2692Z" fill="#141A1F"/>
<path d="M43.5762 38.9996V34.5723H44.2683V38.3304H46.6725V38.9996H43.5762Z" fill="#141A1F"/>
<path d="M76.3189 10L70.5346 18.7316L64.7292 10H60.0918V30.0338H64.7292V18.2828L68.0779 23.3559H72.956L76.3189 18.2692V30.0338H80.9633V10H76.3189Z" fill="#141A1F"/>
<path d="M13.2924 14.4474L16.1697 10H0V14.4338V18.8745V23.3083V30.0338H4.65302V23.3559H13.2924L13.2782 18.9017H4.65302V14.4474H13.2924Z" fill="#141A1F"/>
<path d="M26.7768 10C21.0454 10 16.3984 14.4852 16.3984 20.0169C16.3984 25.5487 21.0454 30.0338 26.7768 30.0338C32.5082 30.0338 37.1552 25.5487 37.1552 20.0169C37.1552 14.4852 32.5082 10 26.7768 10ZM26.7768 25.3991C23.5943 25.3991 21.0102 22.9051 21.0102 19.8334C21.0102 16.7618 23.5943 14.2677 26.7768 14.2677C29.9594 14.2677 32.5434 16.7618 32.5434 19.8334C32.5434 22.9051 29.9594 25.3991 26.7768 25.3991Z" fill="#141A1F"/>
<path d="M56.1439 20.7718C56.7557 19.9285 57.1042 18.9085 57.1754 17.698C57.2181 17.2492 57.2323 16.7595 57.1897 16.2495C57.026 14.2706 56.6774 13.0738 55.3969 11.7341C54.0666 10.34 52.5655 10.0476 50.8013 10H44.5835H40.0234V30.0338H44.6832V23.3559H48.3825L51.9323 30.0338H57.2252L52.8857 22.8187C54.2658 22.4242 55.4253 21.7714 56.1439 20.7718ZM50.1824 19.0921C50.1752 19.0989 44.6832 19.0921 44.6832 19.0921V14.2502H49.9832C50.0116 14.2502 50.3459 14.2638 50.3744 14.2706C51.6123 14.4134 52.5797 15.4267 52.5797 16.6711C52.5726 17.9768 51.5126 19.0309 50.1824 19.0921Z" fill="#141A1F"/>
<path d="M88.3025 22.2729H83.8301C83.8301 26.5588 87.4498 30.0333 91.9149 30.0333C96.38 30.0333 99.9997 26.5588 99.9997 22.2729C99.9997 19.5124 98.4981 17.0886 96.2362 15.7129L93.8456 19.3419C94.8563 19.9565 95.5273 21.0395 95.5273 22.2729C95.5273 24.188 93.91 25.7403 91.9149 25.7403C89.9198 25.7403 88.3025 24.188 88.3025 22.2729Z" fill="#141A1F"/>
<path d="M97.0754 14.4405H83.8301V10H99.9997L97.0754 14.4405Z" fill="#141A1F"/>
</svg>
