<svg version="1.1" id="Layer_1" xmlns="http://www.w3.org/2000/svg" xmlns:xlink="http://www.w3.org/1999/xlink" x="0px" y="0px" viewBox="-117.5 18.2 222.5 75.6" style="enable-background:new -117.5 18.2 222.5 75.6;" xml:space="preserve">
 <style type="text/css">
  .st0{fill:#16B14B;}
	.st1{fill:#F27227;}
	.st2{fill:#1169B0;}
	.st3{fill:#FFFFFF;}
 </style>
 <g>
  <g>
   <g>
    <path class="st0" d="M-19.9,29.8c-6.5,0-12,4.4-14.2,10.5c-0.1,0.3-0.5,1.6-0.5,1.6l-9,40.2H-23c7.1,0,13.1-5.3,14.8-12.4
				l8.9-39.9H-19.9z">
    </path>
    <path class="st1" d="M-54.3,18.2c-6.9,0-12.8,4.8-14.5,11.4c-0.1,0.5-0.3,1-0.3,1.5l-14,62.7h20.6c7.1,0,13-5.1,14.7-11.9
				l14.2-63.7H-54.3z">
    </path>
    <path class="st2" d="M-93.8,29.8c-6.7,0-12.4,4.7-14.5,11.3c-0.1,0.1-0.1,0.3-0.1,0.4l-0.3,1.4l-8.8,39.3h21.1
				c6.3,0,11.8-4.3,13.8-10.4l0.9-3.8l8.5-38.2H-93.8z">
    </path>
    <path class="st3" d="M-97.7,42.9L-98,43c-1.5,0-2.8,0.5-4.2,1.6c-1.3,1-2,2.3-2.3,3.3l-4.8,21.2h0.3c1.5,0,2.9-0.5,4.2-1.6
				s2.1-2.4,2.4-3.9l1.1-4.6h9.4c1.5,0,2.9-0.5,4.2-1.6c1.3-1.1,2.1-2.4,2.4-3.9l0.1-0.3H-100l1-4.4h12.8c1.5,0,2.8-0.5,4.2-1.6
				c1.3-1.1,2-2.4,2.4-3.9l0.1-0.3L-97.7,42.9z">
    </path>
    <path class="st3" d="M-45.5,44.2c-0.8-0.8-1.9-1.3-3.2-1.3h-18L-72.5,69v0.1h0.3c1.5,0,2.9-0.5,4.2-1.6c1.3-1.1,2.1-2.4,2.4-3.9
				l1.1-4.6h12.5c1.5,0,2.8-0.2,4-1.2c1.3-1,2.2-2.7,2.5-4.3l1.1-4.8c0.1-0.4,0.1-0.8,0.1-1.2C-44.2,46.1-44.6,45-45.5,44.2z
				 M-51.1,53.1h-12.2l1-4.4h12.2L-51.1,53.1z">
    </path>
    <path class="st3" d="M-8.7,44.2c-0.8-0.8-1.9-1.3-3.2-1.3h-7.9h-0.5h-10.6l-0.1,0.2c-0.1,0.4-0.1,0.8-0.1,1.2
				c0,1.3,0.4,2.3,1.2,3.2c0.8,0.8,1.9,1.3,3.2,1.3h4l-4.6,20.3h0.3c1.5,0,2.9-0.5,4.2-1.6c1.3-1.1,2.1-2.4,2.4-3.9l3.3-14.8h9.4
				l0.1-0.2c0.1-0.4,0.1-0.8,0.1-1.2C-7.5,46.1-7.9,45-8.7,44.2z">
    </path>
    <path class="st2" d="M-5,77.7c0-2.5,2-4.5,4.4-4.5c2.4,0,4.4,2,4.4,4.5c0,2.5-2,4.5-4.4,4.5C-3,82.2-5,80.1-5,77.7z M2.6,77.7
				c0-2.1-1.5-3.6-3.3-3.6c-1.9,0-3.3,1.5-3.3,3.6c0,2.1,1.5,3.6,3.3,3.6C1.2,81.3,2.6,79.8,2.6,77.7z M-2.3,75.1h1.9
				c1.2,0,1.9,0.4,1.9,1.5c0,0.9-0.5,1.3-1.3,1.4l1.3,2.3H0.5L-0.8,78h-0.5v2.2h-0.9L-2.3,75.1L-2.3,75.1z M-1.4,77.3h0.8
				c0.5,0,1-0.1,1-0.8c0-0.6-0.5-0.7-1-0.7h-0.8V77.3z">
    </path>
    <path class="st2" d="M19.8,49.4v17.5h-3V49.4h-4.5v-2.7h12v2.7H19.8z">
    </path>
    <path class="st2" d="M37.9,59.3l-9.6,1.4c0.3,2.7,1.8,4.1,4.4,4.1c1.6,0,2.9-0.3,4-0.9l0.9,2.3c-1.3,0.7-3,1.1-5.1,1.1
				c-2.2,0-4-0.7-5.3-2.1c-1.3-1.4-1.9-3.3-1.9-5.7c0-2.3,0.6-4.2,1.8-5.6c1.2-1.4,2.8-2.2,4.8-2.2c1.9,0,3.4,0.6,4.4,1.8
				c1.1,1.2,1.6,2.8,1.6,4.8C37.9,58.6,37.9,59.1,37.9,59.3z M35.2,57.7c0-2.6-1.1-3.9-3.2-3.9c-1.1,0-2,0.4-2.7,1.3
				c-0.7,0.9-1.1,2-1.1,3.6L35.2,57.7z">
    </path>
    <path class="st2" d="M40,66.9V45.1h3v21.8H40z">
    </path>
    <path class="st2" d="M57.7,59.3L48,60.7c0.3,2.7,1.8,4.1,4.4,4.1c1.6,0,2.9-0.3,4-0.9l0.9,2.3c-1.3,0.7-3,1.1-5.1,1.1
				c-2.2,0-4-0.7-5.3-2.1c-1.3-1.4-1.9-3.3-1.9-5.7c0-2.3,0.6-4.2,1.8-5.6c1.2-1.4,2.8-2.2,4.8-2.2c1.9,0,3.4,0.6,4.4,1.8
				c1.1,1.2,1.6,2.8,1.6,4.8C57.7,58.6,57.7,59.1,57.7,59.3z M54.8,57.7c0-2.6-1.1-3.9-3.2-3.9c-1.1,0-2,0.4-2.7,1.3
				c-0.7,0.9-1.1,2-1.1,3.6L54.8,57.7z">
    </path>
    <path class="st2" d="M69.3,66.2c-1,0.7-2.2,1-3.7,1c-1.8,0-3.2-0.6-4.4-1.8c-1.3-1.4-2-3.4-2-5.9c0-2.5,0.7-4.5,2-5.9
				c1.1-1.2,2.6-1.8,4.4-1.8c1.5,0,2.7,0.3,3.7,1l-1,2.2c-0.7-0.5-1.5-0.8-2.4-0.8c-1.1,0-1.9,0.4-2.6,1.2c-0.7,1-1.1,2.3-1.1,4
				c0,1.7,0.4,3.1,1.2,4c0.7,0.9,1.5,1.3,2.6,1.3c0.9,0,1.7-0.3,2.4-0.8L69.3,66.2z">
    </path>
    <path class="st2" d="M81.6,64.9c-1.1,1.5-2.7,2.3-4.8,2.3c-2,0-3.6-0.8-4.8-2.3c-1.1-1.4-1.7-3.3-1.7-5.6s0.5-4.2,1.7-5.6
				c1.1-1.5,2.7-2.3,4.8-2.3c2,0,3.6,0.8,4.8,2.3c1.1,1.4,1.7,3.3,1.7,5.6S82.7,63.6,81.6,64.9z M79.4,55.4c-0.6-1-1.5-1.4-2.6-1.4
				c-1.1,0-2,0.5-2.6,1.4c-0.6,1-0.9,2.3-0.9,3.9s0.3,2.9,0.9,3.9c0.6,1,1.5,1.5,2.6,1.5c1.1,0,2-0.5,2.6-1.5c0.6-1,0.9-2.3,0.9-3.9
				S80,56.4,79.4,55.4z">
    </path>
    <path class="st2" d="M102.1,66.9V56.7c0-0.9-0.3-1.5-0.7-2c-0.5-0.5-1.2-0.7-2-0.7c-1.2,0-2,0.3-2.6,1V67h-3V56.5
				c0-0.8-0.3-1.4-0.8-1.8c-0.5-0.4-1.3-0.6-2.2-0.6c-1,0-1.8,0.1-2.5,0.5V67h-2.9V52.6c1.7-0.7,3.4-1.1,5.2-1.1
				c2.1,0,3.6,0.5,4.6,1.6c1.2-1.1,2.8-1.6,4.8-1.6c1.5,0,2.8,0.4,3.7,1.3c0.9,0.9,1.3,2,1.3,3.5v10.4L102.1,66.9L102.1,66.9z">
    </path>
   </g>
  </g>
 </g>
</svg>