<svg width="99" height="40" viewBox="0 0 99 40" fill="none" xmlns="http://www.w3.org/2000/svg">
<path d="M5.58 14.351H14.97V10.001H5.58V14.351ZM5.58 22.571H14.67V18.491H5.58V22.571ZM2.22 10.001V31.001H7.08V10.001H2.22ZM24.322 21.491L30.232 31.001H36.172L29.602 21.491H24.322ZM19.102 10.001V31.001H24.172V10.001H19.102ZM22.282 14.291H26.392C27.072 14.291 27.652 14.401 28.132 14.621C28.632 14.841 29.012 15.161 29.272 15.581C29.532 15.981 29.662 16.471 29.662 17.051C29.662 17.631 29.532 18.131 29.272 18.551C29.012 18.951 28.632 19.261 28.132 19.481C27.652 19.681 27.072 19.781 26.392 19.781H22.282V23.711H26.752C28.552 23.711 30.052 23.421 31.252 22.841C32.452 22.261 33.362 21.461 33.982 20.441C34.602 19.401 34.912 18.211 34.912 16.871C34.912 15.511 34.602 14.321 33.982 13.301C33.362 12.261 32.452 11.451 31.252 10.871C30.052 10.291 28.552 10.001 26.752 10.001H22.282V14.291ZM41.1359 23.621L37.5959 26.171C38.0759 27.171 38.7459 28.091 39.6059 28.931C40.4659 29.771 41.4759 30.441 42.6359 30.941C43.8159 31.421 45.0859 31.661 46.4459 31.661C47.4259 31.661 48.3759 31.511 49.2959 31.211C50.2359 30.931 51.0659 30.511 51.7859 29.951C52.5259 29.391 53.1059 28.701 53.5259 27.881C53.9659 27.041 54.1859 26.091 54.1859 25.031C54.1859 24.151 54.0459 23.371 53.7659 22.691C53.4859 22.011 53.0959 21.411 52.5959 20.891C52.1159 20.371 51.5559 19.931 50.9159 19.571C50.2759 19.191 49.5859 18.861 48.8459 18.581C47.8659 18.241 47.0259 17.921 46.3259 17.621C45.6459 17.321 45.1159 16.991 44.7359 16.631C44.3759 16.271 44.1959 15.851 44.1959 15.371C44.1959 14.911 44.3859 14.531 44.7659 14.231C45.1459 13.911 45.6959 13.751 46.4159 13.751C46.9559 13.751 47.4559 13.861 47.9159 14.081C48.3959 14.281 48.8259 14.571 49.2059 14.951C49.6059 15.311 49.9559 15.741 50.2559 16.241L54.1259 14.081C53.7659 13.361 53.2459 12.651 52.5659 11.951C51.8859 11.251 51.0259 10.671 49.9859 10.211C48.9659 9.75098 47.7559 9.52098 46.3559 9.52098C44.9959 9.52098 43.7559 9.76098 42.6359 10.241C41.5359 10.701 40.6559 11.381 39.9959 12.281C39.3559 13.181 39.0359 14.251 39.0359 15.491C39.0359 16.531 39.2259 17.421 39.6059 18.161C39.9859 18.881 40.4659 19.501 41.0459 20.021C41.6259 20.521 42.2359 20.931 42.8759 21.251C43.5359 21.571 44.1159 21.821 44.6159 22.001C45.6359 22.381 46.4559 22.721 47.0759 23.021C47.6959 23.321 48.1459 23.641 48.4259 23.981C48.7059 24.301 48.8459 24.731 48.8459 25.271C48.8459 25.911 48.6059 26.421 48.1259 26.801C47.6459 27.161 47.0359 27.341 46.2959 27.341C45.5959 27.341 44.9259 27.191 44.2859 26.891C43.6659 26.591 43.0859 26.161 42.5459 25.601C42.0259 25.041 41.5559 24.381 41.1359 23.621ZM62.1959 20.501C62.1959 19.201 62.4859 18.091 63.0659 17.171C63.6459 16.251 64.4059 15.551 65.3459 15.071C66.3059 14.591 67.3559 14.351 68.4959 14.351C69.4959 14.351 70.3759 14.481 71.1359 14.741C71.8959 14.981 72.5759 15.321 73.1759 15.761C73.7759 16.181 74.3059 16.631 74.7659 17.111V11.651C73.9259 10.991 73.0059 10.471 72.0059 10.091C71.0059 9.71098 69.7359 9.52098 68.1959 9.52098C66.5159 9.52098 64.9659 9.78098 63.5459 10.301C62.1259 10.821 60.9059 11.571 59.8859 12.551C58.8659 13.531 58.0759 14.691 57.5159 16.031C56.9559 17.371 56.6759 18.861 56.6759 20.501C56.6759 22.141 56.9559 23.631 57.5159 24.971C58.0759 26.311 58.8659 27.471 59.8859 28.451C60.9059 29.431 62.1259 30.181 63.5459 30.701C64.9659 31.221 66.5159 31.481 68.1959 31.481C69.7359 31.481 71.0059 31.291 72.0059 30.911C73.0059 30.531 73.9259 30.011 74.7659 29.351V23.891C74.3059 24.371 73.7759 24.821 73.1759 25.241C72.5759 25.661 71.8959 26.001 71.1359 26.261C70.3759 26.521 69.4959 26.651 68.4959 26.651C67.3559 26.651 66.3059 26.411 65.3459 25.931C64.4059 25.451 63.6459 24.751 63.0659 23.831C62.4859 22.891 62.1959 21.781 62.1959 20.501ZM82.0716 26.951H93.1716L92.8416 23.081H82.4316L82.0716 26.951ZM87.5616 17.711L90.5316 24.521L90.3516 25.811L92.8716 31.001H98.6316L87.5616 8.68098L76.5216 31.001H82.2516L84.8616 25.601L84.6216 24.491L87.5616 17.711Z" fill="#141A1F"/>
</svg>
