<svg width="176" height="40" viewBox="0 0 176 40" fill="none" xmlns="http://www.w3.org/2000/svg">
<g clip-path="url(#clip0_5317_16437)">
<mask id="mask0_5317_16437" style="mask-type:alpha" maskUnits="userSpaceOnUse" x="0" y="4" width="35" height="31">
<path d="M18.7829 35H18.7784C18.5673 34.9982 18.4205 34.742 18.5639 34.5501C18.8697 34.141 19.1865 33.5893 19.3084 32.9716C18.6189 33.1943 17.8891 33.3187 17.1315 33.3209C16.2818 33.3236 15.4672 33.1705 14.7038 32.8981C14.8137 33.5451 15.1431 34.1241 15.4604 34.549C15.6252 34.7693 15.4074 35.0745 15.1492 34.9821C11.9485 33.8375 10.9478 31.9399 10.8221 30.1833C6.11081 29.8361 2.38658 25.8975 2.37162 21.0672C2.35823 16.7461 5.31953 13.123 9.31418 12.1353L8.44778 9.39788C8.26666 9.18337 7.94552 9.1604 7.73604 9.34702L0.731426 15.6242C0.41726 15.904 0.00307522 15.6312 0 15.2988V15.2914C0.000834166 15.2013 0.0320099 15.1071 0.103634 15.0185L8.24083 4.56109C8.70813 3.98317 9.59548 4.01612 10.0191 4.62715L13.3556 9.47234C14.4976 8.84245 15.8427 8.48632 17.304 8.48172C18.6503 8.47745 19.9186 8.81473 21.0198 9.4359L24.4653 4.47966C24.889 3.86863 25.7763 3.83568 26.2436 4.4136L34.381 14.8709C34.7193 15.2893 34.1545 15.8341 33.753 15.4767L26.7484 9.19953C26.5388 9.01291 26.2179 9.03588 26.0368 9.25039L25.1495 12.0535C29.2073 12.9747 32.2464 16.6088 32.2599 20.9706C32.2753 25.9571 28.3319 30.0183 23.4061 30.1642C23.1911 31.9268 22.1047 33.8345 18.8752 34.9832C18.8436 34.9944 18.8126 35 18.7829 35Z" fill="white"/>
</mask>
<g mask="url(#mask0_5317_16437)">
<path fill-rule="evenodd" clip-rule="evenodd" d="M0 35H175.578V4H0V35Z" fill="url(#paint0_linear_5317_16437)"/>
</g>
<path fill-rule="evenodd" clip-rule="evenodd" d="M5.65349 24.6951C7.53053 27.8194 10.8768 29.2069 13.1272 27.794C15.3777 26.381 15.6805 22.703 13.8033 19.5787C11.9261 16.4544 8.58003 15.0669 6.32948 16.4799C4.07894 17.8926 3.77628 21.5708 5.65349 24.6951Z" fill="#FFFFFE"/>
<path fill-rule="evenodd" clip-rule="evenodd" d="M8.04973 25.2419C8.04973 25.2419 7.96094 24.9512 7.96094 24.4204C7.96094 23.8892 8.04973 23.6235 8.04973 23.6235L10.5022 22.5867L8.04973 21.5374C8.04973 21.5374 7.96094 21.2465 7.96094 20.7282C7.96094 20.1845 8.04973 19.9189 8.04973 19.9189L12.2941 21.727C12.2941 21.727 12.383 22.0303 12.383 22.5615C12.383 23.08 12.2941 23.4341 12.2941 23.4341L8.04973 25.2419Z" fill="#D44941"/>
<path fill-rule="evenodd" clip-rule="evenodd" d="M29.2977 24.7129C27.4299 27.8328 24.085 29.2086 21.8268 27.7859C19.5685 26.3633 19.2521 22.6809 21.1199 19.5608C22.988 16.441 26.3327 15.0653 28.591 16.4879C30.8492 17.9106 31.1656 21.593 29.2977 24.7129Z" fill="#FFFFFE"/>
<path fill-rule="evenodd" clip-rule="evenodd" d="M21.7541 23.4657C21.7541 23.4657 21.668 23.2235 21.668 22.5788C21.668 21.9335 21.7541 21.6914 21.7541 21.6914H27.3191C27.3191 21.6914 27.4167 21.9335 27.4167 22.5788C27.4167 23.2235 27.3191 23.4657 27.3191 23.4657H21.7541Z" fill="#D44941"/>
<path fill-rule="evenodd" clip-rule="evenodd" d="M51.8529 19.8381C52.4459 19.8381 52.5686 20.1111 52.5193 20.5339L51.9767 24.9838C51.7042 27.1206 50.2718 29.2333 45.5033 29.2333C41.3036 29.2333 39.7969 27.419 39.7969 25.456C39.7969 25.2811 39.821 25.0081 39.8462 24.7845L40.8835 16.1842C41.1308 14.0463 42.5882 11.9336 47.3558 11.9336C51.5564 11.9336 53.0631 13.7478 53.0631 15.7361C53.0631 15.8858 53.0381 16.1345 53.0139 16.4077L52.9395 17.0792C52.8903 17.601 52.6681 17.8245 52.1495 17.8245H49.6043C49.0857 17.8245 48.9129 17.5261 48.9873 17.0792L49.0113 16.9053C49.0365 16.7314 49.0365 16.6068 49.0365 16.5067C49.0365 15.6866 48.3198 15.2892 47.183 15.2892C45.9978 15.2892 45.0338 15.7614 44.8861 16.9053L43.9965 24.0634C43.9714 24.2373 43.9473 24.4366 43.9473 24.561C43.9473 25.4802 44.6388 25.8777 45.8249 25.8777C47.1587 25.8777 47.974 25.4054 48.0976 24.2627L48.2212 23.1937H46.1949C45.6761 23.1937 45.4791 22.9701 45.5525 22.4726L45.7999 20.5339C45.8491 20.0121 46.0963 19.8381 46.615 19.8381H51.8529Z" fill="#234A61"/>
<path fill-rule="evenodd" clip-rule="evenodd" d="M59.4181 14.7299C59.3402 15.2495 59.133 15.4479 58.59 15.4479H55.9266C55.3836 15.4479 55.2015 15.2495 55.2795 14.7299L55.5383 12.6756C55.6162 12.156 55.8487 11.9336 56.3918 11.9336H59.0562C59.5992 11.9336 59.7539 12.156 59.6759 12.6756L59.4181 14.7299ZM57.6586 28.4902C57.5819 29.0107 57.3747 29.2333 56.8316 29.2333H54.1671C53.6242 29.2333 53.4432 29.0107 53.5212 28.4902L54.9174 17.6007C54.9691 17.0812 55.2015 16.8586 55.7457 16.8586H58.4089C58.9519 16.8586 59.133 17.0812 59.0562 17.6007L57.6586 28.4902Z" fill="#234A61"/>
<path fill-rule="evenodd" clip-rule="evenodd" d="M64.2227 24.7719C64.1976 24.9718 64.1976 25.0711 64.1976 25.1209C64.1976 25.4952 64.3214 25.8187 65.0643 25.8187C66.0046 25.8187 67.0677 25.1706 67.6375 24.7963L68.1318 20.8078C67.6616 20.4335 66.7466 19.7854 65.8063 19.7854C64.9154 19.7854 64.7916 20.3341 64.717 20.8331L64.2227 24.7719ZM67.3646 27.8637C66.5975 28.4114 65.5094 29.234 63.5049 29.234C61.3528 29.234 60.1406 28.0381 60.1406 26.0682C60.1406 25.8684 60.1648 25.6443 60.1899 25.3946L60.8332 20.2093C61.1302 17.8408 62.2184 16.3701 64.8408 16.3701C66.6228 16.3701 67.86 17.1176 68.5033 17.6664L68.6018 17.3174C68.7509 16.8184 68.8747 16.5698 69.3942 16.5698H71.8928C72.2643 16.5698 72.5855 16.7444 72.5119 17.3174L71.175 28.2867C71.1016 28.811 70.8781 29.0352 70.3586 29.0352H67.9838C67.5629 29.0352 67.3646 28.8354 67.3646 28.2867V27.8637Z" fill="#234A61"/>
<path fill-rule="evenodd" clip-rule="evenodd" d="M78.3667 17.0093C78.886 17.0093 79.0098 17.2044 79.0098 17.7177V18.1334C79.7517 17.5714 80.9886 16.8135 82.8687 16.8135C84.8234 16.8135 86.2334 18.036 86.2334 19.7966C86.2334 19.8694 86.2334 19.9677 86.1841 20.4322L85.1948 28.4997C85.1204 29.0139 84.8979 29.2338 84.3786 29.2338H81.8793C81.4587 29.2338 81.1617 29.0865 81.2362 28.4997L82.1018 21.4101C82.1522 20.9694 82.1522 20.8968 82.1522 20.847C82.1522 20.3587 81.9539 20.1627 81.3108 20.1627C80.3455 20.1627 79.2574 20.7745 78.7381 21.1406L77.8221 28.4997C77.7487 29.0139 77.5505 29.2338 77.0311 29.2338H74.4827C74.0378 29.2338 73.7902 29.0627 73.8647 28.4997L75.2002 17.7177C75.2496 17.2044 75.4721 17.0093 75.9924 17.0093H78.3667Z" fill="#234A61"/>
<path fill-rule="evenodd" clip-rule="evenodd" d="M92.7334 24.3567C92.7079 24.5757 92.7079 24.6729 92.7079 24.7701C92.7079 25.3797 93.1098 25.6235 94.1625 25.6235H94.7645C95.3152 25.6235 95.4917 25.9159 95.4406 26.3541L95.2153 28.0839C95.1398 28.5954 94.9143 28.7908 94.3879 28.7908H93.1342C89.8496 28.7908 88.597 27.7916 88.597 25.7693C88.597 25.5254 88.6213 25.2578 88.6468 24.9901L89.2986 19.7024H88.195C87.6442 19.7024 87.5187 19.4587 87.5686 18.9958L87.7442 17.5096C87.7941 16.9981 88.045 16.8764 88.5712 16.803L89.674 16.6573H89.6996L89.975 14.4398C90.0259 13.9281 90.2761 13.709 90.8024 13.709H93.3853C93.9117 13.709 94.0372 13.9768 93.9871 14.4398L93.7107 16.6573H95.7417C96.2934 16.6573 96.4445 16.9249 96.3935 17.3392L96.1934 18.9958C96.1435 19.5072 95.867 19.7024 95.3406 19.7024H93.3098L92.7334 24.3567Z" fill="#234A61"/>
<path fill-rule="evenodd" clip-rule="evenodd" d="M110.018 16.7314V16.5816C110.018 15.5622 109.328 15.1648 108.243 15.1648C107.109 15.1648 106.295 15.5875 106.147 16.7314L106.123 16.9791V17.1287C106.123 17.775 106.541 17.9489 106.788 18.0481L110.758 19.4649C112.361 20.0364 113.396 21.2793 113.396 22.8205C113.396 22.9944 113.372 23.1684 113.347 23.4424L113.175 24.9838C112.928 27.1206 111.35 29.2333 106.664 29.2333C102.448 29.2333 100.82 27.3948 100.82 25.4054C100.82 25.2811 100.82 25.1325 100.87 24.7845L101.042 23.3181C101.092 22.7962 101.338 22.5717 101.857 22.5717H104.421C104.939 22.5717 105.086 22.8457 105.013 23.3181L104.89 24.2373C104.864 24.4114 104.864 24.5356 104.864 24.6854C104.864 25.6543 105.727 26.0022 106.911 26.0022C108.119 26.0022 109.056 25.5794 109.229 24.4366L109.279 24.1129C109.303 23.939 109.303 23.8399 109.303 23.8147C109.303 23.0198 108.144 22.5717 107.38 22.2744L104.002 20.9314C103.015 20.5592 102.078 19.4649 102.078 18.0481C102.078 17.8994 102.103 17.6759 102.128 17.4271L102.275 16.1842C102.522 14.0463 103.878 11.9336 108.489 11.9336C112.632 11.9336 114.087 13.7732 114.087 15.6866C114.087 15.7867 114.087 15.8858 114.063 16.1842L113.963 17.1034C113.914 17.6253 113.667 17.8498 113.149 17.8498H110.585C110.117 17.8498 109.944 17.6759 109.993 17.1034L110.018 16.7314Z" fill="#234A61"/>
<path fill-rule="evenodd" clip-rule="evenodd" d="M132.837 16.3701C133.356 16.3701 133.702 16.5935 133.48 17.115L128.98 28.1192C128.781 28.6166 128.683 28.7904 128.164 28.7904H125.122C124.602 28.7904 124.503 28.567 124.454 28.1192L124.034 23.3753C123.984 22.8779 123.959 22.034 123.959 22.0087C123.935 22.034 123.712 22.8032 123.489 23.3753L121.487 28.1192C121.289 28.567 121.19 28.7904 120.67 28.7904H117.703C117.184 28.7904 117.109 28.5913 117.036 28.1192L115.428 17.115C115.354 16.5935 115.7 16.3701 116.219 16.3701H118.593C119.112 16.3701 119.285 16.6684 119.335 17.115L120.077 22.6293C120.151 23.2256 120.127 23.8968 120.127 23.9209C120.127 23.8714 120.374 23.1265 120.571 22.6293L122.797 17.115C122.97 16.6684 123.168 16.3701 123.687 16.3701H126.086C126.605 16.3701 126.778 16.6684 126.827 17.115L127.322 22.6293C127.372 23.1761 127.397 23.8714 127.397 23.9209C127.397 23.8714 127.619 23.1265 127.818 22.6293L129.894 17.115C130.067 16.6684 130.265 16.3701 130.785 16.3701H132.837Z" fill="#234A61"/>
<path fill-rule="evenodd" clip-rule="evenodd" d="M137.629 24.7719C137.605 24.9718 137.605 25.0711 137.605 25.1209C137.605 25.4952 137.729 25.8187 138.471 25.8187C139.411 25.8187 140.475 25.1706 141.044 24.7963L141.539 20.8078C141.069 20.4335 140.153 19.7854 139.212 19.7854C138.323 19.7854 138.199 20.3341 138.124 20.8331L137.629 24.7719ZM140.772 27.8637C140.005 28.4114 138.915 29.234 136.912 29.234C134.759 29.234 133.547 28.0381 133.547 26.0682C133.547 25.8684 133.572 25.6443 133.596 25.3946L134.24 20.2093C134.536 17.8408 135.626 16.3701 138.248 16.3701C140.03 16.3701 141.266 17.1176 141.909 17.6664L142.009 17.3174C142.157 16.8184 142.281 16.5698 142.8 16.5698H145.3C145.67 16.5698 145.992 16.7444 145.918 17.3174L144.582 28.2867C144.508 28.811 144.285 29.0352 143.766 29.0352H141.39C140.969 29.0352 140.772 28.8354 140.772 28.2867V27.8637Z" fill="#234A61"/>
<path fill-rule="evenodd" clip-rule="evenodd" d="M156.53 17.5226L156.286 19.4296C156.214 19.9429 155.994 20.0902 155.459 20.1627C153.802 20.3587 152.584 21.043 152.024 21.5076L151.172 28.4997C151.098 29.0139 150.904 29.2338 150.392 29.2338H147.883C147.372 29.2338 147.201 29.0139 147.274 28.4997L148.59 17.7177C148.662 17.2044 148.857 17.0093 149.369 17.0093H151.708C152.219 17.0093 152.341 17.2044 152.341 17.7177L152.316 18.4031C152.998 17.7177 154.022 16.8135 155.872 16.8135C156.385 16.8135 156.604 17.0093 156.53 17.5226Z" fill="#234A61"/>
<path fill-rule="evenodd" clip-rule="evenodd" d="M161.049 17.0093C161.569 17.0093 161.668 17.2044 161.668 17.7177V18.1334C162.385 17.5714 163.376 16.8135 165.405 16.8135C166.791 16.8135 168.053 17.4491 168.498 18.4269C169.166 17.9385 170.18 16.8135 172.632 16.8135C174.562 16.8135 175.996 18.011 175.996 19.7231C175.996 19.8694 175.996 19.9677 175.973 20.2114L174.957 28.4997C174.883 29.0139 174.66 29.2338 174.14 29.2338H171.641C171.221 29.2338 170.948 28.9891 170.999 28.4997L171.864 21.4101C171.913 20.9694 171.913 20.8968 171.913 20.847C171.913 20.3587 171.641 20.1627 171.071 20.1627C170.108 20.1627 169.117 20.7497 168.621 21.1406V21.1902L167.73 28.4997C167.656 29.0139 167.434 29.2338 166.914 29.2338H164.415C163.995 29.2338 163.723 28.9891 163.772 28.4997L164.663 21.2141C164.687 20.9694 164.687 20.8968 164.687 20.847C164.687 20.3587 164.415 20.1627 163.845 20.1627C162.881 20.1627 161.915 20.7497 161.42 21.1406L160.506 28.4997C160.431 29.0139 160.232 29.2338 159.713 29.2338H157.164C156.719 29.2338 156.496 28.9891 156.546 28.4997L157.882 17.7177C157.956 17.2044 158.154 17.0093 158.675 17.0093H161.049Z" fill="#234A61"/>
</g>
<defs>
<linearGradient id="paint0_linear_5317_16437" x1="17.2422" y1="35" x2="17.2422" y2="4" gradientUnits="userSpaceOnUse">
<stop stop-color="#D04358"/>
<stop offset="1" stop-color="#E87F2C"/>
</linearGradient>
<clipPath id="clip0_5317_16437">
<rect width="176" height="40" fill="white"/>
</clipPath>
</defs>
</svg>
