<svg width="138" height="23" viewBox="0 0 138 23" fill="none" xmlns="http://www.w3.org/2000/svg">
<g clip-path="url(#clip0_641_8023)">
<mask id="mask0_641_8023" style="mask-type:luminance" maskUnits="userSpaceOnUse" x="0" y="0" width="138" height="23">
<path d="M137.579 0.494141H0V22.7522H137.579V0.494141Z" fill="white"/>
</mask>
<g mask="url(#mask0_641_8023)">
<path d="M28.2227 18.6701V4.58057H33.9717C35.307 4.58057 36.3848 4.95676 37.2075 5.70677C38.0277 6.45916 38.4403 7.43679 38.4403 8.64451C38.4403 9.56941 38.1756 10.3721 37.6486 11.0502C37.1217 11.7284 36.4087 12.1932 35.5145 12.4496L38.4999 18.6701H36.7973L33.9526 12.6509H29.7654V18.6701H28.2227ZM33.8501 5.94878H29.763V11.3641H33.8501C34.7705 11.3641 35.5097 11.1149 36.0629 10.6189C36.6162 10.1229 36.8951 9.47117 36.8951 8.66603C36.8951 7.86095 36.6185 7.19 36.0629 6.69399C35.5097 6.19798 34.7705 5.94878 33.8501 5.94878Z" fill="black"/>
<path d="M42.1807 18.6705V4.58105H51.7545V5.9301H43.7235V10.8806H49.2913V12.2296H43.7235V17.3215H51.8356V18.6705H42.1807Z" fill="black"/>
<path d="M54.3579 16.4747L55.2998 15.3485C56.1415 16.1393 56.9332 16.7048 57.6723 17.0402C58.4139 17.3757 59.239 17.5434 60.1451 17.5434C61.2277 17.5434 62.1219 17.2726 62.8301 16.7287C63.5383 16.1847 63.8912 15.5114 63.8912 14.7064C63.8912 14.009 63.6528 13.4723 63.1806 13.0961C62.7061 12.7199 61.9025 12.4324 60.7675 12.2311L58.5046 11.8477C57.2217 11.6201 56.2846 11.2271 55.6908 10.6712C55.0971 10.1153 54.7991 9.36525 54.7991 8.42595C54.7991 7.24465 55.2473 6.27899 56.1415 5.5266C57.0357 4.77419 58.1898 4.40039 59.6062 4.40039C60.6483 4.40039 61.6163 4.54416 62.5105 4.8341C63.4047 5.12404 64.287 5.57452 65.155 6.19273L64.3538 7.40041C63.6336 6.86366 62.8682 6.44672 62.0599 6.152C61.2516 5.85727 60.4408 5.7087 59.6253 5.7087C58.65 5.7087 57.8489 5.95311 57.2217 6.44433C56.5945 6.93315 56.2798 7.54179 56.2798 8.2654C56.2798 8.88365 56.4872 9.36524 56.8998 9.71514C57.3147 10.065 57.9872 10.3117 58.9219 10.4603L61.1657 10.8437C62.6488 11.1121 63.7291 11.5482 64.411 12.152C65.093 12.7559 65.4316 13.5801 65.4316 14.6273C65.4316 15.2311 65.2981 15.7942 65.031 16.319C64.7639 16.8414 64.3943 17.2918 63.9198 17.668C63.4453 18.0442 62.8802 18.339 62.2268 18.5546C61.5735 18.7702 60.8652 18.8757 60.1046 18.8757C59.0101 18.8757 57.9919 18.6768 57.05 18.2815C56.1081 17.8861 55.2115 17.2846 54.3555 16.4795L54.3579 16.4747Z" fill="black"/>
<path d="M69.0615 18.6696V4.58008H78.6352V5.92912H70.6043V10.8797H76.1718V12.2286H70.6043V17.3205H78.7164V18.6696H69.0615Z" fill="black"/>
<path d="M81.1387 18.6701L86.6875 4.58057H88.5309L93.9985 18.6701H92.3366L90.6747 14.242H84.4248L82.7629 18.6701H81.1409H81.1387ZM84.9038 13.0151H90.212L87.5487 5.97035L84.9038 13.0151Z" fill="black"/>
<path d="M96.9609 18.6705V4.58105H102.71C104.045 4.58105 105.123 4.95725 105.946 5.70725C106.766 6.45966 107.178 7.43726 107.178 8.64498C107.178 9.56988 106.914 10.3726 106.387 11.0507C105.859 11.7288 105.149 12.1937 104.253 12.4501L107.238 18.6705H105.535L102.691 12.6514H98.5033V18.6705H96.9609ZM102.588 5.94927H98.5011V11.3646H102.588C103.509 11.3646 104.248 11.1154 104.801 10.6194C105.354 10.1234 105.634 9.47165 105.634 8.6665C105.634 7.86143 105.357 7.19049 104.801 6.69448C104.248 6.19847 103.509 5.94927 102.588 5.94927Z" fill="black"/>
<path d="M117.432 17.4798C118.233 17.4798 119.008 17.312 119.754 16.9766C120.503 16.6411 121.131 16.1643 121.638 15.5485L122.64 16.574C121.958 17.312 121.164 17.8824 120.255 18.2849C119.347 18.6874 118.393 18.8887 117.391 18.8887C116.39 18.8887 115.453 18.6971 114.578 18.3161C113.703 17.9327 112.949 17.4175 112.315 16.7658C111.681 16.114 111.18 15.3472 110.812 14.4606C110.445 13.574 110.262 12.63 110.262 11.6235C110.262 10.6172 110.445 9.66825 110.812 8.77452C111.18 7.88316 111.683 7.11156 112.324 6.4598C112.966 5.80804 113.719 5.29525 114.587 4.91906C115.456 4.54286 116.39 4.35596 117.391 4.35596C118.393 4.35596 119.395 4.55724 120.315 4.9598C121.235 5.36235 122.025 5.93264 122.678 6.67066L121.657 7.73699C121.138 7.11875 120.496 6.63711 119.736 6.28727C118.975 5.93743 118.193 5.76491 117.391 5.76491C116.591 5.76491 115.87 5.91587 115.188 6.21778C114.507 6.5197 113.92 6.93185 113.426 7.45662C112.932 7.97894 112.541 8.59957 112.255 9.31843C111.966 10.0373 111.824 10.8041 111.824 11.6235C111.824 12.443 111.966 13.2098 112.255 13.9287C112.541 14.6475 112.932 15.2682 113.426 15.7905C113.92 16.3129 114.511 16.7274 115.198 17.0293C115.884 17.3313 116.631 17.4822 117.432 17.4822V17.4798Z" fill="black"/>
<path d="M126.445 18.6705V4.58105H127.988V10.8806H136.04V4.58105H137.583V18.6705H136.04V12.2704H127.988V18.6705H126.445Z" fill="black"/>
<path d="M11.079 0.493652C4.96034 0.493652 0.00292969 5.4753 0.00292969 11.6239C0.00292969 17.7725 4.96034 22.7541 11.079 22.7541C17.1977 22.7541 22.1551 17.7725 22.1551 11.6239C22.1551 5.4753 17.1953 0.493652 11.079 0.493652ZM11.079 18.7741C7.14933 18.7741 3.96123 15.5728 3.96123 11.6215C3.96123 7.67022 7.14695 4.46891 11.079 4.46891C12.4477 4.46891 13.7258 4.85948 14.8132 5.5328L13.795 7.21492C13.0057 6.72131 12.0757 6.43616 11.079 6.43616C8.23429 6.43616 5.91892 8.76287 5.91892 11.6215C5.91892 14.4801 8.23429 16.8068 11.079 16.8068C13.3276 16.8068 15.2424 15.3547 15.9482 13.3347L9.20479 11.5856H18.1944C18.1944 11.5975 18.1944 11.6095 18.1944 11.6215C18.1944 15.5704 15.0087 18.7741 11.0766 18.7741H11.079Z" fill="black"/>
</g>
</g>
<defs>
<clipPath id="clip0_641_8023">
<rect width="138" height="23" fill="white"/>
</clipPath>
</defs>
</svg>
