<svg width="150" height="24" viewBox="0 0 150 24" fill="none" xmlns="http://www.w3.org/2000/svg">
<g clip-path="url(#clip0_582_8180)">
<path d="M43.6815 17.7138C42.8937 18.1259 42.0712 18.427 41.214 18.6108C40.3568 18.7946 39.4839 18.8865 38.5952 18.8865C37.6466 18.8865 36.7736 18.7376 35.9763 18.4397C35.179 18.1417 34.4856 17.7139 33.9027 17.156C33.3196 16.5982 32.8658 15.9231 32.5412 15.1308C32.2166 14.3384 32.0527 13.4541 32.0527 12.4779C32.0527 11.5018 32.2166 10.6175 32.5412 9.82512C32.8658 9.03276 33.3196 8.35767 33.9027 7.79985C34.4856 7.24203 35.1758 6.81415 35.9763 6.51623C36.7767 6.2183 37.6497 6.06934 38.5952 6.06934C39.5658 6.06934 40.4576 6.18661 41.277 6.42114C42.0932 6.65568 42.8086 7.06137 43.4262 7.63504L41.5417 9.70151C41.1761 9.32118 40.7664 9.03593 40.3095 8.83943C39.8526 8.64292 39.2821 8.54784 38.5982 8.54784C38.0279 8.54784 37.511 8.64609 37.0478 8.83943C36.5845 9.03593 36.1874 9.3085 35.8565 9.65714C35.5256 10.0089 35.2703 10.4241 35.0939 10.9059C34.9174 11.3877 34.8292 11.9106 34.8292 12.4748C34.8292 13.0484 34.9174 13.5746 35.0939 14.05C35.2703 14.5254 35.5256 14.9406 35.8565 15.2892C36.1874 15.641 36.5845 15.9136 37.0478 16.1069C37.511 16.3034 38.0279 16.3985 38.5982 16.3985C39.1813 16.3985 39.6823 16.332 40.1046 16.1989C40.5269 16.0657 40.8642 15.9326 41.1162 15.7932V13.8123H38.9418V11.3306H43.6847V17.7138H43.6815Z" fill="#666766"/>
<path d="M58.8217 13.8724C58.8217 14.5951 58.7113 15.2606 58.497 15.8692C58.2796 16.4777 57.9581 17.007 57.5295 17.4539C57.101 17.9008 56.5683 18.2526 55.9286 18.5061C55.2888 18.7597 54.5515 18.8865 53.7194 18.8865C52.8748 18.8865 52.1311 18.7597 51.4945 18.5061C50.8548 18.2526 50.3222 17.904 49.8936 17.4539C49.465 17.007 49.1436 16.4777 48.9261 15.8692C48.7087 15.2606 48.6016 14.5951 48.6016 13.8724V6.37988H51.274V13.7678C51.274 14.1482 51.3339 14.4968 51.4536 14.8201C51.5734 15.1402 51.7403 15.4191 51.9578 15.6568C52.1752 15.8914 52.4337 16.0752 52.7362 16.2083C53.0387 16.3414 53.3665 16.408 53.7194 16.408C54.0724 16.408 54.4001 16.3414 54.6964 16.2083C54.9926 16.0752 55.2511 15.8914 55.4685 15.6568C55.686 15.4223 55.853 15.1434 55.9727 14.8201C56.0925 14.5 56.1523 14.1482 56.1523 13.7678V6.37988H58.8247V13.8724H58.8217Z" fill="#666766"/>
<path d="M63.8223 6.37988H66.4947V18.5759H63.8223V6.37988Z" fill="#666766"/>
<path d="M75.5049 6.37988C76.4756 6.37988 77.3957 6.48765 78.2718 6.70634C79.1448 6.92503 79.9075 7.27684 80.5567 7.76493C81.209 8.25302 81.7227 8.88691 82.1072 9.66659C82.4885 10.4463 82.6807 11.3939 82.6807 12.5096C82.6807 13.4984 82.4948 14.3669 82.1229 15.118C81.751 15.8692 81.2531 16.5031 80.6228 17.0133C79.9957 17.5236 79.2708 17.9135 78.4483 18.1765C77.6258 18.4396 76.7655 18.5727 75.861 18.5727H71.4932V6.37988H75.5049ZM74.1687 16.0942H75.5554C76.173 16.0942 76.7465 16.0308 77.276 15.904C77.8055 15.7773 78.2656 15.5681 78.6532 15.2765C79.0408 14.9849 79.3465 14.5982 79.5702 14.1228C79.794 13.6474 79.9043 13.0642 79.9043 12.3733C79.9043 11.7774 79.794 11.2576 79.5702 10.8139C79.3465 10.3734 79.0471 10.0089 78.6721 9.72047C78.2939 9.43205 77.8527 9.2197 77.3453 9.07391C76.8379 8.93128 76.3022 8.85838 75.7445 8.85838H74.1687V16.0942Z" fill="#666766"/>
<path d="M87.165 6.37988H95.4029V8.86155H89.8375V11.134H95.094V13.6157H89.8375V16.0974H95.7117V18.579H87.165V6.37988Z" fill="#666766"/>
<path d="M99.1533 6.37988H102.065L104 14.1989H104.035L106.569 6.37988H109.052L111.57 14.4081H111.605L113.643 6.38305H116.351L112.805 18.579H110.426L107.754 10.1388H107.719L105.046 18.579H102.752L99.1533 6.37988Z" fill="#666766"/>
<path d="M119.088 6.37988H121.76V18.5759H119.088V6.37988Z" fill="#666766"/>
<path d="M126.761 6.37988H131.453C132.071 6.37988 132.654 6.4401 133.209 6.56054C133.764 6.68098 134.249 6.88066 134.665 7.16274C135.08 7.44482 135.411 7.82198 135.657 8.30056C135.903 8.77598 136.026 9.37183 136.026 10.0818C136.026 10.9439 135.802 11.676 135.358 12.2782C134.913 12.8804 134.261 13.2639 133.407 13.4224L136.489 18.5727H133.287L130.754 13.6981H129.436V18.5727H126.764V6.37988H126.761ZM129.433 11.4288H131.009C131.248 11.4288 131.504 11.4193 131.772 11.4034C132.04 11.3876 132.282 11.3337 132.5 11.2481C132.717 11.1626 132.897 11.0263 133.039 10.8424C133.18 10.6586 133.253 10.4019 133.253 10.0659C133.253 9.75534 133.19 9.50812 133.064 9.32429C132.937 9.14047 132.777 9.00101 132.584 8.90276C132.39 8.80451 132.169 8.73795 131.916 8.70308C131.665 8.66822 131.419 8.65237 131.18 8.65237H129.433V11.4288Z" fill="#666766"/>
<path d="M140.529 6.37988H148.767V8.86155H143.202V11.134H148.459V13.6157H143.202V16.0974H149.076V18.579H140.529V6.37988Z" fill="#666766"/>
<path d="M24.3853 4.71929V0H0.922852V23.5933H15.0003V18.874H5.61533V4.71929H24.3853Z" fill="#00739D"/>
<path d="M24.386 9.43848V23.5963H19.6935V14.1578H10.3086V9.43848H24.386Z" fill="#00739D"/>
</g>
<defs>
<clipPath id="clip0_582_8180">
<rect width="150" height="24" fill="white"/>
</clipPath>
</defs>
</svg>
