<svg width="150" height="18" viewBox="0 0 150 18" fill="none" xmlns="http://www.w3.org/2000/svg">
<path d="M143.881 11.4229C145.246 11.1922 146.532 10.6365 147.626 9.80494C148.125 9.2939 148.507 8.6847 148.746 8.01792C148.986 7.35115 149.077 6.64209 149.015 5.93798C149.019 4.77872 148.692 3.64134 148.072 2.65348C147.622 1.90173 146.987 1.27196 146.225 0.8213C145.462 0.370641 144.597 0.113363 143.708 0.072809H142.807L140.698 0H131.159C130.58 0 130.332 0.234607 130.332 0.808989V17.1667C130.332 17.733 130.572 17.9757 131.159 17.9757H133.639C134.217 17.9757 134.465 17.7411 134.465 17.1667V11.7465H137.499C138.166 11.7806 138.801 12.0409 139.293 12.4827L144.104 17.2153C144.543 17.6542 145.132 17.9193 145.758 17.9596H149.453C150.032 17.9596 150.172 17.6279 149.767 17.2234L143.881 11.4229ZM143.253 7.94427H134.449V3.81843H143.253C143.685 3.87032 144.081 4.07673 144.367 4.39788C144.652 4.71902 144.806 5.13219 144.799 5.55775V6.19685C144.806 6.62332 144.653 7.03751 144.367 7.35998C144.082 7.68246 143.685 7.89052 143.253 7.94427Z" fill="#D50C2D"/>
<path d="M126.478 14.1735H112.813V10.8H123.717C124.296 10.8 124.544 10.5654 124.544 9.99101V8.02517C124.544 7.45888 124.304 7.21618 123.717 7.21618H112.805V3.85079H126.478C127.057 3.85079 127.305 3.61618 127.305 3.0418V0.808989C127.305 0.242697 127.065 0 126.478 0H109.432C108.853 0 108.605 0.234607 108.605 0.808989V17.1829C108.605 17.7492 108.845 17.9919 109.432 17.9919H126.478C127.057 17.9919 127.305 17.7573 127.305 17.1829V14.9744C127.305 14.4081 127.032 14.1735 126.478 14.1735Z" fill="#D50C2D"/>
<path d="M105.591 5.90562C105.609 4.76086 105.285 3.63597 104.657 2.66966C104.204 1.89927 103.561 1.2517 102.787 0.78556C102.014 0.319421 101.133 0.0494242 100.226 0L87.6939 0C87.1069 0 86.8672 0.234607 86.8672 0.808989V17.1667C86.8672 17.733 87.1069 17.9757 87.6939 17.9757H90.3888C90.9675 17.9757 91.2155 17.7492 91.2155 17.1667V3.82652H98.4737C100.02 3.82652 101.524 4.82966 101.524 6.34247V17.1829C101.524 17.7492 101.764 17.9919 102.351 17.9919H104.789C105.376 17.9919 105.616 17.7573 105.616 17.1829L105.591 5.90562Z" fill="#D50C2D"/>
<path d="M83.0551 14.0683H71.275L83.0799 3.91551C83.3167 3.73808 83.5127 3.51384 83.6552 3.25737C83.7976 3.00091 83.8832 2.71797 83.9065 2.42697V0.808989C83.9065 0.242697 83.6585 0 83.0799 0H65.9926C65.4139 0 65.1659 0.234607 65.1659 0.808989V3.04989C65.1659 3.61618 65.4056 3.85888 65.9926 3.85888H76.946L65.9595 13.947C65.7245 14.1261 65.5298 14.3508 65.3876 14.6069C65.2453 14.863 65.1586 15.1451 65.1328 15.4355V17.191C65.1328 17.7573 65.3725 18 65.9595 18H83.0303C83.6089 18 83.8569 17.7654 83.8569 17.191V14.8692C83.8735 14.3029 83.6337 14.0683 83.0551 14.0683Z" fill="#D50C2D"/>
<path d="M61.3306 0H44.2681C43.6811 0 43.4414 0.226517 43.4414 0.808989V3.0418C43.4414 3.60809 43.6729 3.85079 44.2681 3.85079H50.6996V17.1829C50.6996 17.7492 50.9393 17.9919 51.5263 17.9919H54.2543C54.8329 17.9919 55.0809 17.7573 55.0809 17.1829V3.8427H61.3389C61.9175 3.8427 62.1655 3.60809 62.1655 3.03371V0.808989C62.149 0.258876 61.9093 0 61.3306 0Z" fill="#D50C2D"/>
<path d="M39.6052 14.1735H25.9651V10.8H36.8689C37.4476 10.8 37.6956 10.5654 37.6956 9.99101V8.02517C37.6956 7.45888 37.4641 7.21618 36.8689 7.21618H25.9651V3.85079H39.6052C40.1839 3.85079 40.4319 3.61618 40.4319 3.0418V0.808989C40.4319 0.242697 40.1921 0 39.6052 0H22.5923C22.0136 0 21.7656 0.234607 21.7656 0.808989V17.1829C21.7656 17.7492 22.0054 17.9919 22.5923 17.9919H39.6052C40.1839 17.9919 40.4319 17.7573 40.4319 17.1829V14.9744C40.4236 14.4081 40.1839 14.1735 39.6052 14.1735Z" fill="#D50C2D"/>
<path d="M17.8809 0H15.31C14.7313 0 14.4833 0.234607 14.4833 0.808989V7.17573H4.24083V0.808989C4.24083 0.242697 4.00109 0 3.41416 0H0.826672C0.239735 0 0 0.234607 0 0.808989V17.191C0 17.7654 0.239735 18 0.826672 18H3.41416C3.99283 18 4.24083 17.7735 4.24083 17.191V10.7191H14.4916V17.191C14.4916 17.7573 14.7313 18 15.3182 18H17.8892C18.4678 18 18.7159 17.7654 18.7159 17.191V0.808989C18.6993 0.258876 18.4596 0 17.8809 0Z" fill="#D50C2D"/>
</svg>
