<?xml version="1.0" encoding="UTF-8" standalone="no"?>
<svg
   id="Layer_9_copy"
   data-name="Layer 9 copy"
   viewBox="0 0 570.90386 129.7773"
   version="1.1"
   xmlns="http://www.w3.org/2000/svg"
   xmlns:svg="http://www.w3.org/2000/svg">
  <defs
     id="defs1">
    <style
       id="style1">
      .cls-1 {
        fill: #fff;
      }

      .cls-2, .cls-3 {
        fill: #6ed3b6;
      }

      .cls-4 {
        fill: #518dc4;
      }

      .cls-5 {
        fill: #1b3a7d;
      }

      .cls-3 {
        opacity: .7;
      }
    </style>
  </defs>
  <path
     class="cls-5"
     d="M 158.01581,109.89056 V 96.690662 h 14.05273 V 35.081822 H 158.01581 V 21.878818 h 41.07248 v 13.203004 h -14.05006 v 61.60574 h 14.05006 l 10.75295,13.199888 h -51.82543 z m 88.73918,0 c -5.90866,-0.16756 -11.22511,-1.40253 -15.94136,-3.70801 -4.72159,-2.30549 -8.79229,-5.44876 -12.21478,-9.429838 -3.42248,-3.98106 -6.0527,-8.61375 -7.89065,-13.89185 -1.83795,-5.2812 -2.7556,-10.93785 -2.7556,-16.97307 0,-6.03521 0.91765,-11.69187 2.7556,-16.97307 1.83795,-5.2812 4.46817,-9.91078 7.89065,-13.89186 3.42249,-3.98107 7.49319,-7.14606 12.21478,-9.49188 4.71891,-2.345825 10.0327,-3.562178 15.94136,-3.645957 h 10.70226 v 13.203007 h -10.37682 c -3.81995,0.0838 -7.31446,0.90295 -10.48352,2.45132 -3.17174,1.55147 -5.92733,3.70801 -8.26945,6.47583 -2.34213,2.76472 -4.1614,6.01349 -5.45784,9.74322 -1.29643,3.72974 -1.94465,7.77597 -1.94465,12.13249 0,4.35653 0.64822,8.40276 1.94465,12.13249 1.29644,3.72973 3.11571,6.97851 5.45784,9.74323 2.34212,2.76472 5.09771,4.92436 8.26945,6.47583 3.16906,1.55147 6.66357,2.3272 10.48352,2.3272 h 10.37682 l 11.41184,13.327128 h -22.1141 z m 58.15022,1.63525 c -5.98334,0 -11.40383,-1.19464 -16.26681,-3.5839 -4.86296,-2.38926 -9.00836,-5.67837 -12.43084,-9.870438 -3.42249,-4.18897 -6.07137,-9.05128 -7.94401,-14.58381 -1.87529,-5.53254 -2.80894,-11.44054 -2.80894,-17.72709 0,-6.28655 0.93631,-12.17593 2.80894,-17.66503 1.87264,-5.4891 4.52152,-10.32968 7.94401,-14.52175 3.42248,-4.18896 7.56521,-7.45946 12.43084,-9.808385 4.86298,-2.345821 10.28613,-3.518735 16.26681,-3.518735 5.98068,0 11.49187,1.176014 16.32016,3.518735 4.82562,2.348925 8.97101,5.616315 12.43084,9.808385 3.45983,4.19207 6.12473,9.03265 7.99736,14.52175 1.87263,5.4891 2.80894,11.37848 2.80894,17.66503 0,6.28655 -0.93631,12.19455 -2.80894,17.72709 -1.8753,5.53253 -4.54019,10.39484 -7.99736,14.58381 -3.45983,4.192068 -7.60255,7.481178 -12.43084,9.870438 -4.82829,2.38926 -10.26746,3.5839 -16.32016,3.5839 z m 0,-13.327128 c 3.81728,0 7.34914,-0.79434 10.5929,-2.38926 3.24375,-1.5918 6.07137,-3.87557 8.48552,-6.85128 2.41414,-2.97572 4.2681,-6.43239 5.5672,-10.37313 1.29644,-3.93762 1.94466,-8.21347 1.94466,-12.82444 0,-4.61097 -0.64822,-8.88371 -1.94466,-12.82444 -1.29644,-3.93763 -3.15306,-7.35397 -5.5672,-10.24591 -2.41415,-2.89194 -5.24177,-5.15398 -8.48552,-6.78923 -3.24376,-1.63524 -6.77295,-2.45132 -10.5929,-2.45132 -3.81995,0 -7.33313,0.81608 -10.53954,2.45132 -3.20642,1.63525 -6.01803,3.89729 -8.43217,6.78923 -2.41415,2.89194 -4.28678,6.30828 -5.62056,10.24591 -1.33378,3.94073 -1.998,8.25692 -1.998,12.95166 0,4.69475 0.66688,8.86199 1.998,12.76239 1.33378,3.89729 3.20641,7.33534 5.62056,10.31106 2.41414,2.97572 5.22309,5.25948 8.43217,6.85129 3.20641,1.59181 6.71692,2.38926 10.53954,2.38926 z m 35.41724,11.691878 10.73695,-13.199898 h 37.50595 c 2.0887,0 3.90798,-0.58646 5.45783,-1.75937 1.54719,-1.17291 2.77427,-2.70266 3.67591,-4.58924 0.89896,-1.88659 1.34978,-3.87557 1.34978,-5.97316 0,-2.26204 -0.43214,-4.31618 -1.29643,-6.16243 -0.8643,-1.84315 -2.0727,-3.31084 -3.62255,-4.39997 -1.54986,-1.08913 -3.33446,-1.63525 -5.35114,-1.63525 h -13.51121 c -4.2521,0 -8.05337,-1.02707 -11.40383,-3.08121 -3.35046,-2.05105 -5.99935,-4.92437 -7.94401,-8.61376 -1.94465,-3.6863 -2.91832,-8.04593 -2.91832,-13.07578 0,-5.02987 0.93632,-9.44845 2.80895,-13.26507 1.87263,-3.81351 4.43082,-6.80785 7.67458,-8.98921 3.24376,-2.178258 6.917,-3.270494 11.02504,-3.270494 h 32.53361 v 13.202994 h -31.34654 c -1.8753,0 -3.56654,0.54612 -5.07904,1.63526 -1.51251,1.08913 -2.68624,2.51338 -3.51318,4.27584 -0.82962,1.75937 -1.24309,3.64596 -1.24309,5.65666 0,2.0107 0.41347,4.00279 1.24309,5.72182 0.82694,1.71903 1.98199,3.10294 3.45983,4.14863 1.47516,1.04879 3.15039,1.57009 5.02569,1.57009 h 13.83398 c 4.61222,0 8.59223,1.04879 11.94269,3.14327 3.35046,2.09759 5.946,4.98642 7.78128,8.67581 1.83795,3.6894 2.75559,7.92181 2.75559,12.70033 0,5.61632 -0.95498,10.4569 -2.86496,14.52175 -1.90998,4.067948 -4.50552,7.211228 -7.78128,9.429828 -3.27844,2.22171 -6.97302,3.33256 -11.0784,3.33256 h -49.8621 z"
     id="path1"
     style="stroke-width:0.287703" />
  <g
     id="g3"
     transform="matrix(0.26675638,0,0,0.31029382,-20.390862,-23.126197)">
    <path
       class="cls-3"
       d="m 481.2,237.59 h -0.13 c 0,0 0,0.05 0.02,0.07 0.27,1.05 0.42,2.14 0.42,3.28 0,1.14 -0.15,2.22 -0.43,3.26 0,0.03 0,0.05 -0.02,0.08 h 11.91 c 0.17,-1.09 0.25,-2.21 0.25,-3.35 0,-1.14 -0.08,-2.26 -0.23,-3.35 h -11.78 z"
       id="path2" />
    <path
       class="cls-2"
       d="m 511.78,219.94 c -0.99,-2.01 -2.11,-3.95 -3.36,-5.79 -3.43,-5.09 -7.83,-9.49 -12.92,-12.93 -1.84,-1.25 -3.76,-2.38 -5.77,-3.35 l -3.36,5.81 -2.53,4.37 -3.35,5.82 -2.53,4.37 -3.4,5.87 -2.51,4.35 -0.07,0.1 c -1.05,-0.27 -2.16,-0.42 -3.28,-0.42 -1.12,0 -2.23,0.15 -3.28,0.42 l -0.07,-0.1 -2.51,-4.35 -3.4,-5.87 -2.53,-4.37 -3.35,-5.82 -2.53,-4.37 c 4.4,-2.11 9.22,-3.43 14.3,-3.83 v 23.59 c 1.09,-0.22 2.21,-0.32 3.35,-0.32 1.14,0 2.26,0.1 3.35,0.32 v -30.3 c -1.1,-0.1 -2.23,-0.13 -3.35,-0.13 -1.12,0 -2.24,0.03 -3.35,0.13 -6.31,0.42 -12.26,2.07 -17.67,4.73 -2.01,0.97 -3.93,2.09 -5.77,3.35 l 3.35,5.82 2.53,4.35 c -3.35,2.36 -6.26,5.29 -8.62,8.63 l -4.37,-2.53 -5.82,-3.35 c -1.25,1.84 -2.38,3.78 -3.35,5.79 -2.64,5.39 -4.3,11.36 -4.72,17.65 -0.1,1.1 -0.13,2.22 -0.13,3.35 0,0.28 0.02,0.57 0.02,0.87 0.35,-0.02 0.7,-0.03 1.05,-0.03 1.91,0 3.78,0.12 5.64,0.32 0,-0.38 -0.02,-0.77 -0.02,-1.15 0,-1.12 0.05,-2.24 0.15,-3.35 0.38,-5.09 1.72,-9.9 3.81,-14.3 l 4.37,2.53 c -1.67,3.65 -2.78,7.61 -3.16,11.78 -0.1,1.1 -0.15,2.21 -0.15,3.35 0,0.65 0.02,1.29 0.05,1.94 1.82,0.37 3.63,0.85 5.39,1.41 0.52,0.17 1.02,0.33 1.54,0.52 -0.02,-0.17 -0.05,-0.35 -0.07,-0.52 h 11.81 c -0.2,-1.09 -0.32,-2.21 -0.32,-3.35 0,-1.14 0.1,-2.26 0.32,-3.35 h -11.83 c 0.32,-2.96 1.1,-5.79 2.26,-8.42 l 4.37,2.53 5.87,3.4 c 0.74,-2.14 1.87,-4.12 3.35,-5.79 l -5.87,-3.4 -4.37,-2.53 c 1.72,-2.36 3.81,-4.43 6.16,-6.17 l 2.53,4.38 3.38,5.87 2.51,4.33 0.07,0.12 c -1.54,1.56 -2.68,3.5 -3.26,5.67 -0.02,0.02 -0.02,0.05 -0.03,0.07 -0.27,1.05 -0.42,2.14 -0.42,3.28 0,1.14 0.15,2.24 0.42,3.28 l -0.12,0.07 h 0.15 c 0.59,2.17 1.74,4.12 3.28,5.64 l -0.08,0.15 0.15,-0.08 c 0.18,0.2 0.37,0.38 0.57,0.55 1.64,-0.74 3.33,-1.37 5.07,-1.87 l 1.61,-0.42 1.62,-0.44 h 0.02 l 0.1,-0.18 0.35,-0.6 c -0.12,0.02 -0.23,0.02 -0.35,0.02 -0.12,0 -0.23,0 -0.35,-0.02 -0.85,-0.05 -1.67,-0.27 -2.39,-0.65 -0.22,-0.1 -0.42,-0.22 -0.6,-0.33 -0.7,-0.47 -1.29,-1.05 -1.74,-1.76 -0.13,-0.2 -0.25,-0.4 -0.35,-0.62 -0.37,-0.72 -0.59,-1.52 -0.64,-2.38 -0.02,-0.12 -0.02,-0.23 -0.02,-0.35 0,-0.12 0,-0.23 0.02,-0.35 0.05,-0.85 0.27,-1.66 0.64,-2.38 0.1,-0.22 0.22,-0.42 0.35,-0.62 0.45,-0.7 1.04,-1.29 1.74,-1.76 0.18,-0.12 0.38,-0.23 0.6,-0.33 0.72,-0.38 1.54,-0.6 2.39,-0.65 0.12,-0.02 0.23,-0.02 0.35,-0.02 0.12,0 0.23,0 0.35,0.02 0.85,0.05 1.67,0.27 2.39,0.65 0.22,0.1 0.42,0.22 0.6,0.33 0.7,0.47 1.29,1.05 1.74,1.76 0.13,0.2 0.25,0.4 0.35,0.62 l 0.35,-0.62 3.28,-5.67 0.07,-0.12 2.51,-4.33 c 0.65,0.57 1.27,1.19 1.82,1.84 1.47,1.67 2.61,3.65 3.35,5.79 l 5.87,-3.4 4.37,-2.53 c 1.15,2.63 1.94,5.45 2.28,8.42 0.12,1.1 0.18,2.21 0.18,3.35 0,0.42 -0.03,0.84 -0.05,1.25 1.24,-1.59 2.54,-3.13 3.91,-4.6 0.77,-0.84 1.57,-1.64 2.38,-2.43 -0.54,-3.28 -1.51,-6.42 -2.86,-9.35 l 4.37,-2.53 c 1.2,2.54 2.16,5.22 2.83,8.01 1.84,-1.51 3.78,-2.89 5.79,-4.2 -0.75,-2.48 -1.69,-4.87 -2.81,-7.16 z m -13.52,0.08 -5.84,3.36 -4.37,2.53 c -1.25,-1.62 -2.71,-3.06 -4.32,-4.32 l 2.53,-4.38 3.36,-5.82 2.53,-4.37 c 4.08,2.84 7.63,6.39 10.46,10.47 z"
       id="path3" />
  </g>
  <path
     class="cls-4"
     d="m 22.67162,78.755672 c -0.30677,0 -0.608202,-0.18617 -0.773591,-0.51819 l -2.470167,-4.94918 -2.592869,4.62028 c -0.16806,0.30098 -0.456155,0.48405 -0.770929,0.47164 -0.309436,-0.009 -0.592198,-0.2048 -0.749583,-0.51509 L 9.0990562,65.413042 c -0.248083,-0.49647 -0.101367,-1.12947 0.322775,-1.41804 0.42681,-0.28857 0.9736608,-0.12102 1.2190768,0.37546 l 5.48718,10.9937 2.592869,-4.62027 c 0.16806,-0.30099 0.450822,-0.49026 0.770929,-0.47165 0.309437,0.009 0.592198,0.2048 0.749583,0.51509 l 3.198409,6.40446 c 0.248088,0.49648 0.101369,1.12947 -0.322774,1.41805 -0.141381,0.0962 -0.296099,0.13963 -0.44815,0.13963 z"
     id="path4"
     style="stroke-width:0.287703" />
  <path
     class="cls-4"
     d="m 32.344206,84.998792 c -0.30143,0 -0.59487,-0.17687 -0.76292,-0.49648 l -3.27844,-6.24311 c -0.17072,-0.3258 -0.17339,-0.73229 -0.0106,-1.0612 l 2.93432,-5.89248 -8.554873,-17.14373 -5.097714,10.21177 c -0.248084,0.49647 -0.792266,0.66403 -1.219076,0.37545 -0.426809,-0.28857 -0.570861,-0.92467 -0.322773,-1.41804 l 5.868639,-11.76014 c 0.160051,-0.3196 0.453484,-0.51819 0.770924,-0.51819 0.317441,0 0.610873,0.19859 0.770925,0.51819 l 9.587228,19.21029 c 0.16005,0.32271 0.16005,0.71989 0,1.04259 l -2.92632,5.88007 3.00101,5.71871 c 0.25609,0.49027 0.12271,1.12948 -0.2961,1.42736 -0.14405,0.10239 -0.30677,0.15204 -0.46415,0.15204 z"
     id="path5"
     style="stroke-width:0.287703" />
  <path
     class="cls-4"
     d="m 62.242266,66.145332 h -14.09541 c -0.32544,0 -0.62688,-0.20789 -0.78427,-0.53991 l -2.33678,-4.98952 -2.40081,4.80955 c -0.16005,0.32271 -0.44815,0.51819 -0.77893,0.51509 -0.3201,0 -0.6162,-0.2079 -0.77092,-0.53371 l -8.7176,-18.22045 -2.50484,5.39912 c -0.15472,0.33201 -0.44815,0.53991 -0.77093,0.54611 -0.34145,0.0124 -0.62421,-0.19238 -0.78693,-0.51819 l -3.52652,-7.06539 c -0.24808,-0.49647 -0.10137,-1.13257 0.32277,-1.41804 0.42681,-0.28858 0.971,-0.12102 1.21908,0.37545 l 2.72625,5.46117 2.52085,-5.43324 c 0.15472,-0.33512 0.45349,-0.54301 0.77893,-0.54611 0.32011,-0.009 0.62687,0.20169 0.78693,0.5337 l 8.74694,18.28251 2.40881,-4.82817 c 0.16272,-0.32271 0.45882,-0.50888 0.78427,-0.51819 0.32277,0.006 0.6162,0.211 0.77092,0.53991 l 2.84363,6.06624 h 13.56722 c 0.4935,0 0.89364,0.46545 0.89364,1.03948 0,0.57405 -0.40014,1.03949 -0.89364,1.03949 z"
     id="path6"
     style="stroke-width:0.287703" />
  <path
     class="cls-4"
     d="m 38.575636,84.998792 c -0.30944,0 -0.60821,-0.18618 -0.77359,-0.51819 l -3.11038,-6.25863 c -0.14939,-0.30098 -0.16006,-0.67334 -0.024,-0.98363 l 2.54218,-5.908 -5.80995,-12.16351 c -0.24008,-0.49957 -0.0854,-1.13258 0.34678,-1.41184 0.43215,-0.27927 0.97366,-0.0993 1.21374,0.40338 l 6.0367,12.64137 c 0.14405,0.30099 0.14938,0.66093 0.0187,0.96812 l -2.53685,5.89869 2.86763,5.77456 c 0.24542,0.49647 0.10137,1.13258 -0.32544,1.41805 -0.14138,0.0962 -0.29343,0.13963 -0.44549,0.13963 z"
     id="path7"
     style="stroke-width:0.287703" />
  <path
     class="cls-4"
     d="m 25.867366,72.348112 c -0.30677,0 -0.60821,-0.18618 -0.7736,-0.5182 l -3.195737,-6.40446 c -0.248083,-0.49647 -0.101369,-1.12947 0.322774,-1.41804 0.426809,-0.28858 0.970992,-0.12101 1.219075,0.37545 l 3.195738,6.40447 c 0.24809,0.49647 0.10137,1.12947 -0.32277,1.41804 -0.14138,0.0962 -0.2961,0.13964 -0.44815,0.13964 z"
     id="path8"
     style="stroke-width:0.287703" />
  <path
     class="cls-4"
     d="m 13.07906,59.536082 c -0.152052,0 -0.30677,-0.0466 -0.448151,-0.13964 -0.426809,-0.28857 -0.570857,-0.92467 -0.322773,-1.41804 l 6.394151,-12.81203 c 0.248083,-0.49647 0.794932,-0.66403 1.219075,-0.37545 0.42681,0.28856 0.570857,0.92467 0.322774,1.41804 l -6.394147,12.81203 c -0.165389,0.33201 -0.464159,0.51819 -0.773596,0.51819 z"
     id="path9"
     style="stroke-width:0.287703" />
  <path
     class="cls-4"
     d="m 21.012398,88.244462 c -0.30677,0 -0.608206,-0.18618 -0.773595,-0.51819 l -1.619211,-3.24567 c -0.248083,-0.49647 -0.101369,-1.12947 0.322774,-1.41805 0.426809,-0.28857 0.970992,-0.12101 1.219075,0.37546 l 1.619215,3.24568 c 0.248083,0.49646 0.101365,1.12946 -0.322778,1.41803 -0.141381,0.0962 -0.296099,0.13964 -0.448151,0.13964 z"
     id="path10"
     style="stroke-width:0.287703" />
  <path
     class="cls-5"
     d="m 16.138759,68.044332 c -1.371131,0 -2.488837,-1.29703 -2.488837,-2.89504 0,-1.59801 1.115039,-2.89504 2.488837,-2.89504 1.373794,0 2.488833,1.29703 2.488833,2.89504 0,1.59801 -1.115039,2.89504 -2.488833,2.89504 z m 0,-4.2324 c -0.634881,0 -1.149723,0.59886 -1.149723,1.33736 0,0.7385 0.514842,1.33737 1.149723,1.33737 0.634877,0 1.149718,-0.59887 1.149718,-1.33737 0,-0.7385 -0.514841,-1.33736 -1.149718,-1.33736 z"
     id="path11"
     style="stroke-width:0.287703" />
  <g
     id="g12"
     transform="matrix(0.26675638,0,0,0.31029382,-20.390862,-23.126197)">
    <circle
       class="cls-1"
       cx="161.42"
       cy="324.98999"
       r="6.8200002"
       id="circle11" />
    <path
       class="cls-5"
       d="m 161.42,334.32 c -5.14,0 -9.33,-4.18 -9.33,-9.33 0,-5.15 4.18,-9.33 9.33,-9.33 5.15,0 9.33,4.18 9.33,9.33 0,5.15 -4.18,9.33 -9.33,9.33 z m 0,-13.64 c -2.38,0 -4.31,1.93 -4.31,4.31 0,2.38 1.93,4.31 4.31,4.31 2.38,0 4.31,-1.93 4.31,-4.31 0,-2.38 -1.93,-4.31 -4.31,-4.31 z"
       id="path12" />
  </g>
  <g
     id="g13"
     transform="matrix(0.26675638,0,0,0.31029382,-20.390862,-23.126197)">
    <circle
       class="cls-1"
       cx="113.46"
       cy="283.64999"
       r="6.8200002"
       id="circle12" />
    <path
       class="cls-5"
       d="m 113.46,292.98 c -5.14,0 -9.33,-4.18 -9.33,-9.33 0,-5.15 4.18,-9.33 9.33,-9.33 5.15,0 9.33,4.18 9.33,9.33 0,5.15 -4.18,9.33 -9.33,9.33 z m 0,-13.64 c -2.38,0 -4.31,1.93 -4.31,4.31 0,2.38 1.93,4.31 4.31,4.31 2.38,0 4.31,-1.93 4.31,-4.31 0,-2.38 -1.93,-4.31 -4.31,-4.31 z"
       id="path13" />
  </g>
  <g
     id="g14"
     transform="matrix(0.26675638,0,0,0.31029382,-20.390862,-23.126197)">
    <circle
       class="cls-1"
       cx="197.67999"
       cy="345.12"
       r="6.8200002"
       id="circle13" />
    <path
       class="cls-5"
       d="m 197.68,354.44 c -5.14,0 -9.33,-4.18 -9.33,-9.33 0,-5.15 4.18,-9.33 9.33,-9.33 5.15,0 9.33,4.18 9.33,9.33 0,5.15 -4.18,9.33 -9.33,9.33 z m 0,-13.64 c -2.38,0 -4.31,1.93 -4.31,4.31 0,2.38 1.93,4.31 4.31,4.31 2.38,0 4.31,-1.93 4.31,-4.31 0,-2.38 -1.93,-4.31 -4.31,-4.31 z"
       id="path14" />
  </g>
  <g
     id="g15"
     transform="matrix(0.26675638,0,0,0.31029382,-20.390862,-23.126197)">
    <circle
       class="cls-1"
       cx="221.05"
       cy="304.32001"
       r="6.8200002"
       id="circle14" />
    <path
       class="cls-5"
       d="m 221.05,313.65 c -5.14,0 -9.33,-4.18 -9.33,-9.33 0,-5.15 4.18,-9.33 9.33,-9.33 5.15,0 9.33,4.18 9.33,9.33 0,5.15 -4.18,9.33 -9.33,9.33 z m 0,-13.64 c -2.38,0 -4.31,1.93 -4.31,4.31 0,2.38 1.93,4.31 4.31,4.31 2.38,0 4.31,-1.93 4.31,-4.31 0,-2.38 -1.93,-4.31 -4.31,-4.31 z"
       id="path15" />
  </g>
  <g
     id="g16"
     transform="matrix(0.26675638,0,0,0.31029382,-20.390862,-23.126197)">
    <circle
       class="cls-1"
       cx="173.41"
       cy="304.35001"
       r="6.8200002"
       id="circle15" />
    <path
       class="cls-5"
       d="m 173.41,313.67 c -5.14,0 -9.33,-4.18 -9.33,-9.33 0,-5.15 4.18,-9.33 9.33,-9.33 5.15,0 9.33,4.18 9.33,9.33 0,5.15 -4.18,9.33 -9.33,9.33 z m 0,-13.64 c -2.38,0 -4.31,1.93 -4.31,4.31 0,2.38 1.93,4.31 4.31,4.31 2.38,0 4.31,-1.93 4.31,-4.31 0,-2.38 -1.93,-4.31 -4.31,-4.31 z"
       id="path16" />
  </g>
  <g
     id="g17"
     transform="matrix(0.26675638,0,0,0.31029382,-20.390862,-23.126197)">
    <circle
       class="cls-1"
       cx="149.44"
       cy="345.64001"
       r="6.8200002"
       id="circle16" />
    <path
       class="cls-5"
       d="m 149.44,354.96 c -5.14,0 -9.33,-4.18 -9.33,-9.33 0,-5.15 4.18,-9.33 9.33,-9.33 5.15,0 9.33,4.18 9.33,9.33 0,5.15 -4.18,9.33 -9.33,9.33 z m 0,-13.64 c -2.38,0 -4.31,1.93 -4.31,4.31 0,2.38 1.93,4.31 4.31,4.31 2.38,0 4.31,-1.93 4.31,-4.31 0,-2.38 -1.93,-4.31 -4.31,-4.31 z"
       id="path17" />
  </g>
  <g
     id="g18"
     transform="matrix(0.26675638,0,0,0.31029382,-20.390862,-23.126197)">
    <circle
       class="cls-1"
       cx="197.67999"
       cy="263.57999"
       r="6.8200002"
       id="circle17" />
    <path
       class="cls-5"
       d="m 197.68,272.91 c -5.14,0 -9.33,-4.18 -9.33,-9.33 0,-5.15 4.18,-9.33 9.33,-9.33 5.15,0 9.33,4.18 9.33,9.33 0,5.15 -4.18,9.33 -9.33,9.33 z m 0,-13.64 c -2.38,0 -4.31,1.93 -4.31,4.31 0,2.38 1.93,4.31 4.31,4.31 2.38,0 4.31,-1.93 4.31,-4.31 0,-2.38 -1.93,-4.31 -4.31,-4.31 z"
       id="path18" />
  </g>
  <g
     id="g19"
     transform="matrix(0.26675638,0,0,0.31029382,-20.390862,-23.126197)">
    <circle
       class="cls-1"
       cx="233.64"
       cy="242.92999"
       r="6.8200002"
       id="circle18" />
    <path
       class="cls-5"
       d="m 233.64,252.26 c -5.14,0 -9.33,-4.18 -9.33,-9.33 0,-5.15 4.18,-9.33 9.33,-9.33 5.15,0 9.33,4.18 9.33,9.33 0,5.15 -4.18,9.33 -9.33,9.33 z m 0,-13.64 c -2.38,0 -4.31,1.93 -4.31,4.31 0,2.38 1.93,4.31 4.31,4.31 2.38,0 4.31,-1.93 4.31,-4.31 0,-2.38 -1.93,-4.31 -4.31,-4.31 z"
       id="path19" />
  </g>
  <g
     id="g20"
     transform="matrix(0.26675638,0,0,0.31029382,-20.390862,-23.126197)">
    <circle
       class="cls-1"
       cx="197.67999"
       cy="221.77"
       r="6.8200002"
       id="circle19" />
    <path
       class="cls-5"
       d="m 197.68,231.1 c -5.14,0 -9.33,-4.18 -9.33,-9.33 0,-5.15 4.18,-9.33 9.33,-9.33 5.15,0 9.33,4.18 9.33,9.33 0,5.15 -4.18,9.33 -9.33,9.33 z m 0,-13.64 c -2.38,0 -4.31,1.93 -4.31,4.31 0,2.38 1.93,4.31 4.31,4.31 2.38,0 4.31,-1.93 4.31,-4.31 0,-2.38 -1.93,-4.31 -4.31,-4.31 z"
       id="path20" />
  </g>
  <g
     id="g21"
     transform="matrix(0.26675638,0,0,0.31029382,-20.390862,-23.126197)">
    <circle
       class="cls-1"
       cx="233.62"
       cy="283.70001"
       r="6.8200002"
       id="circle20" />
    <path
       class="cls-5"
       d="m 233.62,293.03 c -5.14,0 -9.33,-4.18 -9.33,-9.33 0,-5.15 4.18,-9.33 9.33,-9.33 5.15,0 9.33,4.18 9.33,9.33 0,5.15 -4.18,9.33 -9.33,9.33 z m 0,-13.64 c -2.38,0 -4.31,1.93 -4.31,4.31 0,2.38 1.93,4.31 4.31,4.31 2.38,0 4.31,-1.93 4.31,-4.31 0,-2.38 -1.93,-4.31 -4.31,-4.31 z"
       id="path21" />
  </g>
  <g
     id="g22"
     transform="matrix(0.26675638,0,0,0.31029382,-20.390862,-23.126197)">
    <circle
       class="cls-1"
       cx="149.44"
       cy="221.77"
       r="6.8200002"
       id="circle21" />
    <path
       class="cls-5"
       d="m 149.44,231.1 c -5.14,0 -9.33,-4.18 -9.33,-9.33 0,-5.15 4.18,-9.33 9.33,-9.33 5.15,0 9.33,4.18 9.33,9.33 0,5.15 -4.18,9.33 -9.33,9.33 z m 0,-13.64 c -2.38,0 -4.31,1.93 -4.31,4.31 0,2.38 1.93,4.31 4.31,4.31 2.38,0 4.31,-1.93 4.31,-4.31 0,-2.38 -1.93,-4.31 -4.31,-4.31 z"
       id="path22" />
  </g>
  <g
     id="g28"
     transform="matrix(0.26675638,0,0,0.31029382,-20.390862,-23.126197)">
    <path
       class="cls-2"
       d="m 544.87,222.84 c -8.36,0.45 -16.29,2.64 -23.4,6.21 -2.01,0.99 -3.95,2.09 -5.81,3.31 -6.86,4.45 -12.77,10.27 -17.33,17.05 -1.24,1.86 -2.38,3.76 -3.41,5.76 -3.71,7.14 -6.02,15.11 -6.59,23.56 -0.08,1.34 -0.13,2.69 -0.13,4.05 0,0.89 0.02,1.77 0.07,2.64 h 6.69 c -0.05,-0.87 -0.07,-1.76 -0.07,-2.64 0,-1.36 0.05,-2.71 0.15,-4.05 0.55,-7.23 2.54,-14.05 5.7,-20.19 1,-2.01 2.16,-3.93 3.41,-5.77 3.95,-5.79 9,-10.74 14.86,-14.59 l 2.53,4.37 3.35,5.81 2.53,4.37 c -3.36,2.31 -6.31,5.17 -8.7,8.47 l -4.37,-2.53 -5.82,-3.36 c -1.29,1.82 -2.43,3.75 -3.43,5.76 l 5.81,3.35 4.35,2.51 c -1.76,3.65 -2.94,7.63 -3.41,11.83 -0.13,1.32 -0.22,2.68 -0.22,4.05 0,0.89 0.03,1.77 0.1,2.64 0.3,4.28 1.36,8.38 3.03,12.13 l -4.37,2.51 c -2.09,-4.5 -3.36,-9.45 -3.7,-14.64 -0.05,-0.87 -0.08,-1.76 -0.08,-2.64 0,-1.37 0.07,-2.71 0.2,-4.05 h -6.71 c -0.13,1.34 -0.18,2.68 -0.18,4.05 0,0.89 0.02,1.77 0.08,2.64 0.33,6.41 1.94,12.5 4.57,18 l -4.37,2.53 -5.81,3.35 c 0.99,2.01 2.09,3.95 3.3,5.82 l 5.81,-3.35 4.35,-2.51 c 3.46,5.27 7.93,9.82 13.12,13.37 l -2.53,4.37 -3.35,5.81 c 1.86,1.24 3.76,2.36 5.76,3.4 l 3.36,-5.82 2.51,-4.35 c 5.54,2.78 11.68,4.5 18.17,4.94 v 11.74 c 1.1,0.07 2.23,0.1 3.35,0.1 1.12,0 2.24,-0.03 3.35,-0.1 v -35.27 c -1.09,0.15 -2.21,0.23 -3.35,0.23 -1.14,0 -2.26,-0.08 -3.35,-0.23 v 16.81 c -5.27,-0.4 -10.27,-1.81 -14.82,-4.03 l 2.53,-4.37 3.35,-5.81 2.53,-4.38 3.38,-5.84 c -2.12,-0.8 -4.07,-1.99 -5.72,-3.46 l -3.4,5.87 -2.53,4.4 -3.36,5.81 -2.51,4.37 c -4.2,-2.93 -7.83,-6.64 -10.67,-10.91 l 4.37,-2.51 5.79,-3.35 4.38,-2.53 c -1.32,-1.79 -2.41,-3.76 -3.21,-5.87 l -4.4,2.54 c -1.14,-2.74 -1.87,-5.69 -2.14,-8.77 h 11.79 c -0.13,-0.85 -0.2,-1.74 -0.2,-2.64 0,-1.39 0.15,-2.74 0.45,-4.05 h -11.88 c 0.38,-2.98 1.24,-5.82 2.46,-8.47 0.94,-2.04 2.11,-3.96 3.48,-5.72 1.77,-2.31 3.86,-4.33 6.22,-6.04 l 2.53,4.38 c -1.62,1.2 -3.08,2.61 -4.37,4.18 -1.41,1.72 -2.59,3.65 -3.48,5.72 l 5.84,3.36 c 0.82,-2.11 2.02,-4.03 3.55,-5.67 0.57,-0.64 1.19,-1.22 1.84,-1.76 1.72,-1.42 3.7,-2.53 5.86,-3.23 l -3.4,-5.89 -2.54,-4.38 -3.36,-5.82 -2.51,-4.37 -3.38,-5.82 -2.51,-4.35 c 6.12,-3.01 12.9,-4.87 20.06,-5.32 v 5.05 c 1.1,-0.1 2.23,-0.13 3.35,-0.13 1.12,0 2.24,0.03 3.35,0.13 v -11.74 c -1.1,-0.07 -2.23,-0.1 -3.35,-0.1 -1.12,0 -2.24,0.03 -3.35,0.1 z"
       id="path23" />
    <path
       class="cls-2"
       d="m 544.87,241.29 v 11.74 c 1.1,-0.12 2.21,-0.18 3.35,-0.18 1.14,0 2.24,0.07 3.35,0.18 v -11.74 c -1.1,-0.1 -2.23,-0.15 -3.35,-0.15 -1.12,0 -2.24,0.05 -3.35,0.15 z"
       id="path24" />
    <path
       class="cls-2"
       d="m 544.87,258.11 v 6.78 c 1.09,-0.22 2.21,-0.32 3.35,-0.32 1.14,0 2.26,0.1 3.35,0.32 v -6.78 c -1.09,-0.15 -2.21,-0.23 -3.35,-0.23 -1.14,0 -2.26,0.08 -3.35,0.23 z"
       id="path25" />
    <path
       class="cls-2"
       d="m 566.25,306.62 -2.53,-4.4 -3.4,-5.87 c -1.66,1.47 -3.6,2.66 -5.72,3.46 l 3.38,5.84 2.53,4.38 3.35,5.81 2.53,4.37 c 2.01,-0.97 3.93,-2.11 5.74,-3.41 l -2.51,-4.37 -3.36,-5.81 z"
       id="path26" />
    <path
       class="cls-2"
       d="m 575.87,294.18 -4.4,-2.54 c -0.8,2.11 -1.89,4.08 -3.21,5.87 l 4.38,2.53 5.79,3.35 4.37,2.51 c 1.25,-1.84 2.34,-3.8 3.26,-5.84 l -4.37,-2.51 -5.82,-3.36 z"
       id="path27" />
    <path
       class="cls-2"
       d="m 608.11,278.72 c -0.57,-8.45 -2.88,-16.41 -6.59,-23.56 -1.04,-1.99 -2.17,-3.9 -3.41,-5.76 -4.57,-6.78 -10.47,-12.6 -17.33,-17.05 -1.86,-1.22 -3.8,-2.33 -5.81,-3.31 l -3.35,5.81 -2.51,4.35 -3.38,5.82 -2.51,4.37 -3.36,5.82 c 2.07,0.87 4.02,1.97 5.82,3.28 2.36,1.71 4.45,3.73 6.22,6.04 l -4.38,2.53 c 1.41,1.72 2.59,3.65 3.48,5.72 l 4.38,-2.53 c 1.22,2.64 2.07,5.49 2.46,8.47 h -5.07 c 0.22,1.32 0.33,2.68 0.33,4.05 0,0.89 -0.05,1.77 -0.15,2.64 h 28.52 c -0.35,7.33 -2.21,14.27 -5.24,20.53 l -4.37,-2.53 c -0.95,2.02 -2.06,3.98 -3.28,5.84 l 4.35,2.51 5.81,3.35 c 1.2,-1.87 2.31,-3.81 3.3,-5.82 3.6,-7.26 5.76,-15.32 6.12,-23.87 0.05,-0.87 0.07,-1.76 0.07,-2.64 0,-1.36 -0.05,-2.71 -0.13,-4.05 z m -30.68,-40.55 c 5.86,3.85 10.91,8.8 14.86,14.59 l -4.37,2.53 c -3.48,-5.04 -7.91,-9.37 -13.02,-12.75 z m -8.4,14.54 2.53,-4.37 c 4.1,2.78 7.68,6.27 10.54,10.31 l -4.37,2.53 c -2.39,-3.3 -5.34,-6.16 -8.7,-8.47 z m 15.58,26.01 c -0.47,-4.2 -1.66,-8.18 -3.41,-11.83 l 4.35,-2.51 5.81,-3.35 4.35,-2.51 c 3.16,6.14 5.15,12.97 5.7,20.19 h -16.8 z"
       id="path28" />
  </g>
  <path
     class="cls-2"
     d="m 97.574146,55.018202 -0.44549,0.89675 -0.44548,0.90295 c -1.18706,-0.65472 -2.44882,-1.04879 -3.76126,-1.17291 v 11.19851 c -0.088,-0.0714 -0.18407,-0.13343 -0.2801,-0.18618 -0.13871,-0.0714 -0.29076,-0.11791 -0.45082,-0.13963 -0.0533,-0.006 -0.1067,-0.009 -0.16005,-0.009 -0.0533,0 -0.1067,0.006 -0.16005,0.009 -0.16006,0.0217 -0.31211,0.0683 -0.45082,0.13963 -0.0987,0.0528 -0.19207,0.11481 -0.28009,0.18618 v -13.27437 c 0.62954,-0.0559 1.15505,-0.0559 1.78459,0 0.0214,0 0.0454,0.006 0.0667,0.006 1.5792,0.13342 3.10238,0.60817 4.52953,1.40563 0.0187,0.009 0.04,0.0217 0.0587,0.0372 z"
     id="path29"
     style="stroke-width:0.287703" />
  <path
     class="cls-2"
     d="m 91.212006,71.981962 -0.0747,0.15515 v -0.18308 c 0.0267,0.009 0.048,0.0217 0.0747,0.0249 z"
     id="path30"
     style="stroke-width:0.287703" />
  <path
     class="cls-2"
     d="m 88.853876,69.304122 h -0.15738 l 0.13337,-0.0869 c 0.005,0.031 0.0134,0.0559 0.0214,0.0869 z"
     id="path31"
     style="stroke-width:0.287703" />
  <path
     class="cls-2"
     d="m 88.853876,69.304122 h -0.15738 l 0.13337,-0.0869 c 0.005,0.031 0.0134,0.0559 0.0214,0.0869 z"
     id="path32"
     style="stroke-width:0.287703" />
  <path
     class="cls-2"
     d="m 89.728836,71.004532 -0.13871,0.0931 0.08,-0.16136 c 0.0134,0.0248 0.0347,0.0528 0.0587,0.0683 z"
     id="path33"
     style="stroke-width:0.287703" />
  <path
     class="cls-2"
     d="m 89.728836,71.004532 -0.13871,0.0931 0.08,-0.16136 c 0.0134,0.0248 0.0347,0.0528 0.0587,0.0683 z"
     id="path34"
     style="stroke-width:0.287703" />
  <path
     class="cls-2"
     d="m 91.212006,71.981962 -0.0747,0.15515 v -0.18308 c 0.0267,0.009 0.048,0.0217 0.0747,0.0249 z"
     id="path35"
     style="stroke-width:0.287703" />
  <rect
     class="cls-2"
     x="74.067581"
     y="68.165344"
     width="7.1944194"
     height="1.2411753"
     id="rect35"
     style="stroke-width:0.287703" />
  <g
     id="g36"
     transform="matrix(0.26675638,0,0,0.31029382,-20.390862,-23.126197)">
    <circle
       class="cls-1"
       cx="468.72"
       cy="240.92999"
       r="6.8200002"
       id="circle35" />
    <path
       class="cls-5"
       d="m 468.72,250.26 c -5.14,0 -9.33,-4.18 -9.33,-9.33 0,-5.15 4.18,-9.33 9.33,-9.33 5.15,0 9.33,4.18 9.33,9.33 0,5.15 -4.18,9.33 -9.33,9.33 z m 0,-13.64 c -2.38,0 -4.31,1.93 -4.31,4.31 0,2.38 1.93,4.31 4.31,4.31 2.38,0 4.31,-1.93 4.31,-4.31 0,-2.38 -1.93,-4.31 -4.31,-4.31 z"
       id="path36" />
  </g>
  <g
     id="g37"
     transform="matrix(0.26675638,0,0,0.31029382,-20.390862,-23.126197)">
    <circle
       class="cls-1"
       cx="481.04999"
       cy="318.5"
       r="6.8200002"
       id="circle36" />
    <path
       class="cls-5"
       d="m 481.05,327.82 c -5.14,0 -9.33,-4.18 -9.33,-9.33 0,-5.15 4.18,-9.33 9.33,-9.33 5.15,0 9.33,4.18 9.33,9.33 0,5.15 -4.18,9.33 -9.33,9.33 z m 0,-13.64 c -2.38,0 -4.31,1.93 -4.31,4.31 0,2.38 1.93,4.31 4.31,4.31 2.38,0 4.31,-1.93 4.31,-4.31 0,-2.38 -1.93,-4.31 -4.31,-4.31 z"
       id="path37" />
  </g>
  <g
     id="g38"
     transform="matrix(0.26675638,0,0,0.31029382,-20.390862,-23.126197)">
    <circle
       class="cls-1"
       cx="476.92001"
       cy="267.63"
       r="6.8200002"
       id="circle37" />
    <path
       class="cls-5"
       d="m 476.92,276.96 c -5.14,0 -9.33,-4.18 -9.33,-9.33 0,-5.15 4.18,-9.33 9.33,-9.33 5.15,0 9.33,4.18 9.33,9.33 0,5.15 -4.18,9.33 -9.33,9.33 z m 0,-13.64 c -2.38,0 -4.31,1.93 -4.31,4.31 0,2.38 1.93,4.31 4.31,4.31 2.38,0 4.31,-1.93 4.31,-4.31 0,-2.38 -1.93,-4.31 -4.31,-4.31 z"
       id="path38" />
  </g>
  <g
     id="g39"
     transform="matrix(0.26675638,0,0,0.31029382,-20.390862,-23.126197)">
    <circle
       class="cls-1"
       cx="441.34"
       cy="224.78999"
       r="6.8200002"
       id="circle38" />
    <path
       class="cls-5"
       d="m 441.34,234.12 c -5.14,0 -9.33,-4.18 -9.33,-9.33 0,-5.15 4.18,-9.33 9.33,-9.33 5.15,0 9.33,4.18 9.33,9.33 0,5.15 -4.18,9.33 -9.33,9.33 z m 0,-13.64 c -2.38,0 -4.31,1.93 -4.31,4.31 0,2.38 1.93,4.31 4.31,4.31 2.38,0 4.31,-1.93 4.31,-4.31 0,-2.38 -1.93,-4.31 -4.31,-4.31 z"
       id="path39" />
  </g>
  <g
     id="g40"
     transform="matrix(0.26675638,0,0,0.31029382,-20.390862,-23.126197)">
    <circle
       class="cls-1"
       cx="468.72"
       cy="208.92999"
       r="6.8200002"
       id="circle39" />
    <path
       class="cls-5"
       d="m 468.72,218.26 c -5.14,0 -9.33,-4.18 -9.33,-9.33 0,-5.15 4.18,-9.33 9.33,-9.33 5.15,0 9.33,4.18 9.33,9.33 0,5.15 -4.18,9.33 -9.33,9.33 z m 0,-13.64 c -2.38,0 -4.31,1.93 -4.31,4.31 0,2.38 1.93,4.31 4.31,4.31 2.38,0 4.31,-1.93 4.31,-4.31 0,-2.38 -1.93,-4.31 -4.31,-4.31 z"
       id="path40" />
  </g>
  <g
     id="g41"
     transform="matrix(0.26675638,0,0,0.31029382,-20.390862,-23.126197)">
    <circle
       class="cls-1"
       cx="513.04999"
       cy="260.82001"
       r="6.8200002"
       id="circle40" />
    <path
       class="cls-5"
       d="m 513.05,270.14 c -5.14,0 -9.33,-4.18 -9.33,-9.33 0,-5.15 4.18,-9.33 9.33,-9.33 5.15,0 9.33,4.18 9.33,9.33 0,5.15 -4.18,9.33 -9.33,9.33 z m 0,-13.64 c -2.38,0 -4.31,1.93 -4.31,4.31 0,2.38 1.93,4.31 4.31,4.31 2.38,0 4.31,-1.93 4.31,-4.31 0,-2.38 -1.93,-4.31 -4.31,-4.31 z"
       id="path41" />
  </g>
  <g
     id="g42"
     transform="matrix(0.26675638,0,0,0.31029382,-20.390862,-23.126197)">
    <circle
       class="cls-1"
       cx="535.69"
       cy="301.45999"
       r="6.8200002"
       id="circle41" />
    <path
       class="cls-5"
       d="m 535.69,310.79 c -5.14,0 -9.33,-4.18 -9.33,-9.33 0,-5.15 4.18,-9.33 9.33,-9.33 5.15,0 9.33,4.18 9.33,9.33 0,5.15 -4.18,9.33 -9.33,9.33 z m 0,-13.64 c -2.38,0 -4.31,1.93 -4.31,4.31 0,2.38 1.93,4.31 4.31,4.31 2.38,0 4.31,-1.93 4.31,-4.31 0,-2.38 -1.93,-4.31 -4.31,-4.31 z"
       id="path42" />
  </g>
  <g
     id="g43"
     transform="matrix(0.26675638,0,0,0.31029382,-20.390862,-23.126197)">
    <circle
       class="cls-1"
       cx="568.56"
       cy="318.29001"
       r="6.8200002"
       id="circle42" />
    <path
       class="cls-5"
       d="m 568.56,327.62 c -5.14,0 -9.33,-4.18 -9.33,-9.33 0,-5.15 4.18,-9.33 9.33,-9.33 5.15,0 9.33,4.18 9.33,9.33 0,5.15 -4.18,9.33 -9.33,9.33 z m 0,-13.64 c -2.38,0 -4.31,1.93 -4.31,4.31 0,2.38 1.93,4.31 4.31,4.31 2.38,0 4.31,-1.93 4.31,-4.31 0,-2.38 -1.93,-4.31 -4.31,-4.31 z"
       id="path43" />
  </g>
  <g
     id="g44"
     transform="matrix(0.26675638,0,0,0.31029382,-20.390862,-23.126197)">
    <circle
       class="cls-1"
       cx="586.06"
       cy="261.38"
       r="6.8200002"
       id="circle43" />
    <path
       class="cls-5"
       d="m 586.06,270.71 c -5.14,0 -9.33,-4.18 -9.33,-9.33 0,-5.15 4.18,-9.33 9.33,-9.33 5.15,0 9.33,4.18 9.33,9.33 0,5.15 -4.18,9.33 -9.33,9.33 z m 0,-13.64 c -2.38,0 -4.31,1.93 -4.31,4.31 0,2.38 1.93,4.31 4.31,4.31 2.38,0 4.31,-1.93 4.31,-4.31 0,-2.38 -1.93,-4.31 -4.31,-4.31 z"
       id="path44" />
  </g>
  <g
     id="g45"
     transform="matrix(0.26675638,0,0,0.31029382,-20.390862,-23.126197)">
    <circle
       class="cls-1"
       cx="548.21002"
       cy="242.53"
       r="6.8200002"
       id="circle44" />
    <path
       class="cls-5"
       d="m 548.21,251.86 c -5.14,0 -9.33,-4.18 -9.33,-9.33 0,-5.15 4.18,-9.33 9.33,-9.33 5.15,0 9.33,4.18 9.33,9.33 0,5.15 -4.18,9.33 -9.33,9.33 z m 0,-13.64 c -2.38,0 -4.31,1.93 -4.31,4.31 0,2.38 1.93,4.31 4.31,4.31 2.38,0 4.31,-1.93 4.31,-4.31 0,-2.38 -1.93,-4.31 -4.31,-4.31 z"
       id="path45" />
  </g>
  <path
     class="cls-2"
     d="m 45.591326,31.172122 h -4.6629 c 7.27445,-8.204168 17.18445,-13.261959 28.09478,-13.261959 9.37916,0 18.02206,3.739039 24.88571,10.003869 -2.76093,1.66317 -5.20442,3.96246 -7.17575,6.74889 -5.0497,-4.0152 -11.14775,-6.36723 -17.71262,-6.36723 -7.8133,0 -14.96503,3.33877 -20.47089,8.84028 l -2.95833,-5.96075 z m 46.41294,63.82744 c -1.53918,0 -3.04369,-0.17997 -4.50017,-0.51819 -5.19375,4.39996 -11.5799,7.006428 -18.48355,7.006428 -7.8133,0 -14.96503,-3.338758 -20.47089,-8.840268 l -2.95833,5.96075 h -4.6629 c 7.27445,8.204158 17.18445,13.261948 28.09478,13.261948 13.40184,0 25.29651,-7.63322 32.648324,-19.356128 -3.014354,1.62284 -6.319464,2.48546 -9.664594,2.48546 z M 69.023206,10.382433 c 12.40684,0 23.70131,5.641141 32.093464,14.828944 1.10704,-0.189283 2.23809,-0.294781 3.38781,-0.294781 3.60921,0 7.08505,0.977426 10.20076,2.767816 C 104.60585,10.956477 87.896226,1.5414413e-6 69.025876,1.5414413e-6 48.875106,1.5414413e-6 31.183816,12.495534 21.380521,31.172122 h 10.854315 c 8.58955,-12.653782 21.89003,-20.789689 36.79371,-20.789689 z m 42.902434,79.757929 c -0.51217,0.14894 -1.02968,0.26374 -1.55252,0.36614 -7.89599,17.174758 -23.469234,28.888358 -41.349914,28.888358 -14.90368,0 -28.20415,-8.13591 -36.7937,-20.789688 H 21.375183 c 9.805963,18.676588 27.494583,31.172118 47.645363,31.172118 21.82867,0 40.765714,-14.66138 49.923454,-35.959948 -2.4755,-0.82228 -4.84696,-2.05725 -7.02103,-3.67698 z"
     id="path46"
     style="stroke-width:0.287703" />
  <path
     class="cls-4"
     d="m 69.023206,1.5414413e-6 c 18.87035,0 35.579974,10.9564754585587 45.679374,27.6844104585587 -3.11572,-1.79039 -6.58889,-2.767816 -10.20077,-2.767816 -1.14972,0 -2.2781,0.102398 -3.3878,0.294781 C 92.721846,16.023574 81.427386,10.382433 69.020546,10.382433 V 1.5414413e-6 Z M 93.908916,27.910932 c -6.86365,-6.26483 -15.50655,-10.003875 -24.88571,-10.003875 v 10.382435 c 6.56488,0 12.66293,2.35202 17.71263,6.36722 1.97133,-2.78643 4.41215,-5.08571 7.17574,-6.74889 z m -1.90198,67.08553 c -1.53918,0 -3.04368,-0.17997 -4.50018,-0.5182 -5.19374,4.39997 -11.57989,7.006438 -18.48355,7.006438 v 10.38243 c 13.40184,0 25.29651,-7.63323 32.648324,-19.356128 -3.014354,1.62284 -6.319464,2.48546 -9.664594,2.48546 z m 19.918704,-4.8561 c -0.51217,0.14894 -1.02968,0.26374 -1.55252,0.36614 -7.89599,17.174758 -23.469234,28.888358 -41.349914,28.888358 v 10.38243 c 21.82868,0 40.765714,-14.66138 49.923464,-35.959948 -2.4755,-0.82228 -4.84696,-2.05725 -7.02103,-3.67698 z"
     id="path47"
     style="stroke-width:0.287703" />
  <path
     class="cls-5"
     d="M 43.286556,93.960072 H 14.42885 L -3.7610371e-6,64.888652 14.42885,35.817222 h 28.857706 l 9.00303,18.13667 c 3.36913,-6.99712 9.71526,-11.38778 16.73362,-11.38778 5.32179,0 10.28346,2.49786 13.89534,6.92886 1.07236,-0.70437 2.19541,-1.27841 3.36113,-1.71903 1.57386,-10.19005 9.15242,-17.66813 18.219464,-17.66813 6.35414,0 12.14809,3.71422 15.5439,9.83321 2.84362,-0.96502 5.79661,-1.24117 8.80029,-0.81607 10.36349,1.46459 18.40352,11.33503 19.11309,23.46442 0.41881,7.13675 -1.65121,13.93529 -5.83129,19.13892 -4.12138,5.13226 -9.94735,8.07695 -15.98404,8.07695 -4.89231,0 -9.6139,-1.9021 -13.44719,-5.3836 -1.82728,0.81918 -3.75326,1.23187 -5.74326,1.23187 -1.1844,0 -2.3608,-0.15205 -3.51052,-0.44993 -3.25443,2.97882 -7.271784,4.60166 -11.438514,4.60166 -4.81229,0 -9.37916,-2.15654 -12.81231,-5.98867 -3.04369,2.22791 -6.52219,3.39151 -10.17142,3.39151 -7.02103,0 -13.3645,-4.39376 -16.73363,-11.38778 l -9.00303,18.13667 z m -26.280841,-5.19121 h 23.703971 l 8.82163,-17.77363 c 0.62955,-1.27221 1.80594,-2.0014 3.06504,-1.9052 1.25642,0.0962 2.33412,0.99293 2.81427,2.34271 2.28877,6.42929 7.63191,10.58412 13.61258,10.58412 3.33179,0 6.47685,-1.266 9.09373,-3.66146 l 1.70457,-1.55768 1.3898,1.93624 c 2.68357,3.73903 6.61823,5.88317 10.79563,5.88317 3.47584,0 6.81296,-1.48941 9.397834,-4.19208 l 0.93898,-0.98363 1.20841,0.43132 c 1.1017,0.39096 2.24875,0.59265 3.40648,0.59265 1.79794,0 3.52385,-0.46544 5.12706,-1.38701 l 1.35245,-0.77573 1.12305,1.16981 c 3.19307,3.32014 7.30645,5.14777 11.58789,5.14777 4.87364,0 9.39249,-2.28377 12.72162,-6.42929 3.32644,-4.14242 4.975,-9.55395 4.64156,-15.24163 -0.56553,-9.65014 -6.95968,-17.50057 -15.19978,-18.66728 v 0 c -2.91565,-0.41269 -5.76728,0 -8.47219,1.22256 l -1.8833,0.85331 -0.91497,-2.09449 c -2.41415,-5.52633 -7.21843,-8.95818 -12.53755,-8.95818 -7.279784,0 -13.295144,6.34861 -13.991374,14.76689 l -0.15472,1.85555 -1.56052,0.4251 c -1.80328,0.49027 -3.48918,1.38391 -5.00702,2.65922 l -1.75793,1.4739 -1.31777,-2.0014 c -2.81695,-4.26964 -7.07705,-6.71786 -11.69194,-6.71786 -5.98067,0 -11.32381,4.15484 -13.61258,10.58412 -0.48015,1.34978 -1.55785,2.24653 -2.81427,2.34272 -1.2591,0.0962 -2.43549,-0.633 -3.0677,-1.9052 l -8.82164,-17.77053 H 17.003049 L 5.1510622,64.897952 17.003049,88.778162 Z"
     id="path48"
     style="stroke-width:0.287703" />
  <path
     class="cls-4"
     d="m 69.023206,56.063892 h -4.38013 l -4.38014,8.82476 4.38014,8.82475 h 4.38013 c 4.19075,0 7.58656,-3.95004 7.58656,-8.82475 0,-4.87472 -3.39581,-8.82476 -7.58656,-8.82476 z m 3.52919,11.05266 c -0.032,0.0683 -0.0614,0.13033 -0.0987,0.19859 l -1.11237,2.24653 h -2.32078 c -1.45383,0 -2.73159,-0.90296 -3.43316,-2.24653 -0.0347,-0.0683 -0.0667,-0.13032 -0.0987,-0.19859 -0.3121,-0.66403 -0.4855,-1.42114 -0.4855,-2.2279 0,-0.80677 0.1734,-1.56388 0.4855,-2.22791 0.032,-0.0683 0.0614,-0.13033 0.0987,-0.19859 0.70157,-1.34357 1.97667,-2.24653 3.43316,-2.24653 h 2.32078 l 1.11237,2.24653 c 0.0346,0.0683 0.0667,0.13032 0.0987,0.19859 l 1.10704,2.22791 z"
     id="path49"
     style="stroke-width:0.287703" />
  <path
     class="cls-2"
     d="m 69.023206,56.063892 v 4.15173 h 2.32079 l 1.11237,2.24653 c 0.0347,0.0683 0.0667,0.13032 0.0987,0.19859 l 1.10704,2.22791 -1.10704,2.2279 c -0.032,0.0683 -0.0614,0.13033 -0.0987,0.19859 l -1.11237,2.24653 h -2.32079 v 4.15173 c 4.19075,0 7.58656,-3.95004 7.58656,-8.82475 0,-4.87472 -3.39581,-8.82476 -7.58656,-8.82476 z"
     id="path50"
     style="stroke-width:0.287703" />
  <path
     class="cls-2"
     d="m 104.66187,67.225162 h -3.13173 c -0.0987,-1.27221 -0.38412,-2.48236 -0.82427,-3.59321 l 1.16572,-0.77884 0.77626,-0.52439 0.77093,-0.51819 c -0.25075,-0.61128 -0.55218,-1.21325 -0.89363,-1.7966 l -0.77093,0.51819 -0.77626,0.51819 -1.168394,0.78815 c -0.61621,-1.01777 -1.38447,-1.91141 -2.25943,-2.62819 l 0.67756,-1.35909 0.44548,-0.90296 0.44549,-0.89674 c -0.49884,-0.39408 -1.02168,-0.7416 -1.54452,-1.03949 l -0.44549,0.89675 -0.44548,0.90296 -0.67489,1.35598 -0.45082,0.90296 -0.45082,0.90295 -0.67489,1.35909 -0.45082,0.90916 -0.45615,0.91226 c 0.57619,0.22962 1.09903,0.58646 1.54452,1.04259 l 0.45615,-0.91847 0.45082,-0.90916 0.67489,-1.35909 c 0.61088,0.53061 1.15239,1.1574 1.60587,1.86797 l -1.16839,0.78504 -0.78159,0.5244 -0.7896,0.5306 c 0.39213,0.5182 0.70156,1.12637 0.8963,1.7966 0.0667,0.22962 0.12004,0.46855 0.16539,0.70748 0.0533,0.33822 0.0854,0.68575 0.0854,1.03948 0,0.35373 -0.032,0.70126 -0.0854,1.03948 h 6.298124 c -0.1067,1.52665 -0.44549,2.99434 -1.00834,4.37514 l -1.16573,-0.78504 -1.552524,-1.04879 -1.16839,-0.78504 -0.7816,-0.5244 -0.78426,-0.53061 -1.05636,-0.70746 -0.13338,-0.0869 v -0.006 l -0.81627,-0.54611 -0.59487,-0.40028 -0.28009,-0.18618 c 0.005,0.0621 0.008,0.12412 0.008,0.18618 0,0.0621 -0.005,0.12411 -0.008,0.18617 -0.0187,0.18618 -0.0587,0.36305 -0.12004,0.5244 -0.0454,0.11481 -0.0987,0.22341 -0.16006,0.32581 -0.0934,0.14584 -0.2054,0.27616 -0.33078,0.38476 -0.088,0.0714 -0.18405,0.13343 -0.28009,0.18618 -0.13871,0.0714 -0.29076,0.11791 -0.45082,0.13963 -0.0533,0.006 -0.1067,0.009 -0.16005,0.009 -0.0534,0 -0.1067,-0.006 -0.16006,-0.009 -0.16005,-0.0217 -0.3121,-0.0683 -0.45081,-0.13963 -0.0987,-0.0527 -0.19207,-0.11481 -0.2801,-0.18618 -0.12537,-0.1086 -0.23741,-0.23892 -0.33078,-0.38476 -0.0614,-0.1024 -0.1147,-0.2141 -0.16005,-0.32581 -0.0614,-0.16135 -0.10137,-0.33822 -0.12004,-0.5244 l -0.28009,-0.18617 -0.59487,0.40028 -0.81628,0.54611 v 0.006 c 0.005,0.031 0.0134,0.0558 0.0213,0.0869 h -0.15739 l -1.05636,0.70746 c -0.0667,-0.22961 -0.12004,-0.46853 -0.16539,-0.70746 -0.0533,-0.33822 -0.0854,-0.68575 -0.0854,-1.03949 0,-0.35373 0.032,-0.70126 0.0854,-1.03948 0.0453,-0.23893 0.0987,-0.47785 0.16539,-0.70747 0.1974,-0.67023 0.50417,-1.27841 0.89631,-1.7966 l -0.7896,-0.53061 -0.7816,-0.52439 -1.16839,-0.78505 c 0.45615,-0.71057 0.995,-1.34047 1.60587,-1.86797 l 0.67489,1.3591 0.45082,0.90915 0.45616,0.91848 c 0.44548,-0.45614 0.96832,-0.81608 1.54452,-1.04259 l -0.45616,-0.91227 -0.45082,-0.90916 -0.67489,-1.35909 -0.45082,-0.90295 -0.45082,-0.90295 -0.66955,-1.35599 -0.45082,-0.90296 -0.44549,-0.89674 c -0.52551,0.29167 -1.04302,0.6423 -1.54452,1.03948 -0.0187,0.009 -0.04,0.0248 -0.0587,0.0404 -1.30711,1.03949 -2.41948,2.33031 -3.31045,3.85075 -0.0134,0.0217 -0.0267,0.0466 -0.0347,0.0683 -0.33611,0.58025 -0.63755,1.17602 -0.88563,1.77799 l 4.2601,2.88883 1.16839,0.78505 c -0.19739,0.55542 -0.33344,1.14808 -0.40546,1.75936 h -6.27412 c -0.0213,0.36925 -0.0347,0.71057 -0.0347,1.03948 0,0.32891 0.0134,0.67024 0.0347,1.03949 h 6.27412 c 0.072,0.61127 0.21073,1.20394 0.40546,1.75936 l -1.16839,0.78505 -1.55252,1.04879 -1.16573,0.77884 -0.77626,0.5244 -0.77092,0.51818 c 0.25341,0.61129 0.55219,1.21326 0.89363,1.79661 0.008,0.0217 0.0213,0.0466 0.0347,0.0683 0.89363,1.52044 2.00868,2.81437 3.31044,3.85075 0.0187,0.0155 0.04,0.031 0.0587,0.0403 0.50417,0.39407 1.02168,0.7478 1.54452,1.03948 0.0187,0.0155 0.04,0.0249 0.0587,0.0372 1.42714,0.80055 2.95032,1.2722 4.52952,1.40563 0.0213,0 0.0453,0.006 0.0667,0.006 0.30677,0.0248 0.6082,0.0404 0.89363,0.0404 0.28543,0 0.5842,-0.0155 0.89364,-0.0404 0.0213,0 0.0453,-0.006 0.0667,-0.006 1.57919,-0.13343 3.10237,-0.60818 4.52419,-1.40563 0.0213,-0.009 0.04,-0.0217 0.0614,-0.0372 0.52551,-0.29168 1.04301,-0.6423 1.54452,-1.03948 l -0.44549,-0.89675 -0.44548,-0.90296 -0.67756,-1.35908 c 0.87496,-0.71678 1.64322,-1.61043 2.25943,-2.62819 l 1.168394,0.78815 0.77626,0.51819 0.77093,0.51819 c 0.33878,-0.58025 0.64288,-1.18843 0.89363,-1.79661 0.0134,-0.0217 0.0213,-0.0466 0.032,-0.0683 0.68823,-1.66007 1.0937,-3.43185 1.2084,-5.26879 0,-0.0249 0.005,-0.0528 0.005,-0.0776 0.0213,-0.35684 0.0347,-0.70748 0.0347,-1.03948 0,-0.33202 -0.0134,-0.67955 -0.0347,-1.03949 z m -6.274114,0 c -0.072,-0.61128 -0.21074,-1.20394 -0.40547,-1.75937 l 1.16839,-0.78505 c 0.29877,0.79436 0.49883,1.65077 0.58419,2.54442 z m -14.13809,-5.3836 -1.1684,-0.78815 c 0.74425,-1.25669 1.6699,-2.3303 2.75026,-3.19913 l 0.67757,1.35909 c -0.87497,0.71678 -1.64323,1.61042 -2.25943,2.62819 z m 2.25943,15.46815 -0.67757,1.35909 c -1.08036,-0.86573 -2.00334,-1.94245 -2.75026,-3.19914 l 1.1684,-0.78814 0.77092,-0.51819 0.77626,-0.5244 1.1684,-0.78505 0.78159,-0.52439 0.7896,-0.5306 1.05369,-0.70747 0.08,-0.16136 c 0.0134,0.0249 0.0347,0.0528 0.0587,0.0683 l -0.13871,0.0931 -0.6082,1.22566 -0.45616,0.91847 -0.45082,0.90916 -0.67489,1.35908 -0.45082,0.90296 -0.44548,0.89675 z m 4.62822,-5.17571 v 8.74719 c -1.31244,-0.12412 -2.5742,-0.51819 -3.76127,-1.17291 l 0.6749,-1.35599 0.45081,-0.90295 0.45082,-0.90296 0.6749,-1.35908 0.45081,-0.90917 0.45616,-0.91226 0.6082,-1.22876 v -0.18308 c 0.0267,0.009 0.048,0.0217 0.0747,0.0249 l -0.0747,0.15515 z m 1.7846,8.74719 v -8.74719 l 0.6082,1.22877 0.45615,0.91226 0.45082,0.90916 0.6749,1.35909 0.45082,0.90296 0.45081,0.90295 0.66956,1.35598 c -1.18173,0.65473 -2.44616,1.0488 -3.7586,1.17292 z m 3.73192,-5.37429 -0.67489,-1.35909 -0.45082,-0.90916 -0.45616,-0.91847 -0.6082,-1.22566 1.05369,0.70747 0.7896,0.5306 0.78159,0.5244 1.16839,0.78504 c -0.45615,0.71058 -0.99499,1.34047 -1.60587,1.86797 z"
     id="path51"
     style="stroke-width:0.287703" />
  <g
     id="g52"
     transform="matrix(0.26675638,0,0,0.31029382,-20.390862,-23.126197)">
    <circle
       class="cls-1"
       cx="420.79999"
       cy="294.73999"
       r="6.8200002"
       id="circle51" />
    <path
       class="cls-5"
       d="m 420.81,304.07 c -5.14,0 -9.33,-4.18 -9.33,-9.33 0,-5.15 4.18,-9.33 9.33,-9.33 5.15,0 9.33,4.18 9.33,9.33 0,5.15 -4.18,9.33 -9.33,9.33 z m 0,-13.64 c -2.38,0 -4.31,1.93 -4.31,4.31 0,2.38 1.93,4.31 4.31,4.31 2.38,0 4.31,-1.93 4.31,-4.31 0,-2.38 -1.93,-4.31 -4.31,-4.31 z"
       id="path52" />
  </g>
  <g
     id="g53"
     transform="matrix(0.26675638,0,0,0.31029382,-20.390862,-23.126197)">
    <circle
       class="cls-1"
       cx="456.51999"
       cy="314.82999"
       r="6.8200002"
       id="circle52" />
    <path
       class="cls-5"
       d="m 456.52,324.16 c -5.14,0 -9.33,-4.18 -9.33,-9.33 0,-5.15 4.18,-9.33 9.33,-9.33 5.15,0 9.33,4.18 9.33,9.33 0,5.15 -4.18,9.33 -9.33,9.33 z m 0,-13.64 c -2.38,0 -4.31,1.93 -4.31,4.31 0,2.38 1.93,4.31 4.31,4.31 2.38,0 4.31,-1.93 4.31,-4.31 0,-2.38 -1.93,-4.31 -4.31,-4.31 z"
       id="path53" />
  </g>
  <g
     id="g54"
     transform="matrix(0.26675638,0,0,0.31029382,-20.390862,-23.126197)">
    <circle
       class="cls-1"
       cx="444.16"
       cy="257.35001"
       r="6.8200002"
       id="circle53" />
    <path
       class="cls-5"
       d="m 444.16,266.68 c -5.14,0 -9.33,-4.18 -9.33,-9.33 0,-5.15 4.18,-9.33 9.33,-9.33 5.15,0 9.33,4.18 9.33,9.33 0,5.15 -4.18,9.33 -9.33,9.33 z m 0,-13.64 c -2.38,0 -4.31,1.93 -4.31,4.31 0,2.38 1.93,4.31 4.31,4.31 2.38,0 4.31,-1.93 4.31,-4.31 0,-2.38 -1.93,-4.31 -4.31,-4.31 z"
       id="path54" />
  </g>
</svg>
