<svg width="95" height="40" viewBox="0 0 95 40" fill="none" xmlns="http://www.w3.org/2000/svg">
<path fill-rule="evenodd" clip-rule="evenodd" d="M94.9864 39H0V1H95V39H94.9864Z" fill="#0058AB"/>
<path fill-rule="evenodd" clip-rule="evenodd" d="M1.89844 20.0004C1.89844 29.3413 21.0089 37.1004 47.5053 37.1004C74.0015 37.1004 93.0984 29.3413 93.0984 20.0004C93.0984 10.6595 73.9879 2.90039 47.5053 2.90039C21.0225 2.90039 1.89844 10.6595 1.89844 20.0004Z" fill="#FBD914"/>
<path d="M44.1256 25.7048C44.4251 26.1301 44.7519 26.5289 45.1332 26.8878H34.853C34.853 26.489 34.4582 25.6782 34.0224 25.0403C33.5868 24.4023 31.2312 20.9069 31.2312 20.9069V25.7048C31.2312 26.1035 31.2312 26.489 31.4354 26.8878H22.871C23.0752 26.489 23.0752 26.1035 23.0752 25.7048V14.3011C23.0752 13.9024 23.0752 13.517 22.871 13.1183H31.4354C31.2312 13.517 31.2312 13.9024 31.2312 14.3011V19.2853C31.2312 19.2853 33.968 15.8031 34.5943 14.9923C35.0709 14.3809 35.6564 13.5169 35.6564 13.1183H44.5885C43.9758 13.517 43.295 14.2347 42.7367 14.8992C42.2465 15.4841 39.4689 18.7935 39.4689 18.7935C39.4689 18.7935 43.581 24.9207 44.1256 25.7048ZM46.8215 14.3011V25.7048C46.8215 26.1035 46.8215 26.489 46.6173 26.8878H63.1472V23.0599C62.7387 23.2592 62.3438 23.2593 61.9353 23.2593H54.9775V21.4517H61.663V18.5542H54.9775V16.7334H61.9353C62.3438 16.7334 62.7387 16.7334 63.1472 16.9195V13.105H46.6173C46.8215 13.517 46.8215 13.9024 46.8215 14.3011ZM86.0493 25.7048C86.1854 26.1434 86.4169 26.5422 86.7165 26.8878H77.7571C77.798 26.489 77.6483 26.1035 77.4849 25.7048C77.4849 25.7048 77.3486 25.3858 77.1581 24.9207L77.0764 24.7213H71.9159L71.8342 24.9339C71.8342 24.9339 71.6843 25.3194 71.5482 25.7181C71.4121 26.1168 71.2623 26.5023 71.3168 26.901H64.25C64.5387 26.5524 64.7561 26.1505 64.89 25.7181L69.1246 14.3144C69.2744 13.9157 69.4241 13.5303 69.3697 13.1316H81.3109C81.202 13.5303 81.4198 13.9157 81.5697 14.3144C81.9236 15.1784 85.7497 24.9339 86.0493 25.7048ZM75.9462 21.8106L74.6936 18.6207C74.5846 18.3284 74.4893 18.0227 74.4212 17.7169C74.3667 18.0249 74.2847 18.3274 74.1761 18.6207C74.1352 18.7537 73.6042 20.1492 72.9914 21.8106H75.9462ZM18.8133 13.1183H9.5C9.70425 13.517 9.70425 13.9024 9.70425 14.3011V25.7048C9.70425 26.1035 9.70425 26.489 9.5 26.8878H18.8133C18.6091 26.489 18.6091 26.1035 18.6091 25.7048V14.3011C18.6091 13.9024 18.6091 13.517 18.8133 13.1183ZM83.1899 14.2081C83.149 13.2379 83.9252 12.4272 84.9192 12.4006H85.0417C86.0493 12.3873 86.8799 13.1581 86.8935 14.1416V14.2081C86.9207 15.205 86.1173 16.0423 85.0826 16.0689C84.0613 16.0955 83.2035 15.3113 83.1763 14.3011C83.1899 14.2745 83.1899 14.2347 83.1899 14.2081ZM83.5575 14.2081C83.5575 15.0056 84.2247 15.6569 85.0417 15.6569C85.8587 15.6569 86.5258 15.0056 86.5258 14.2081C86.5258 13.4107 85.8586 12.7594 85.0417 12.7594C84.252 12.7328 83.5848 13.3309 83.5575 14.1017V14.2081ZM84.6741 15.2847H84.3473V13.105H85.1779C85.5728 13.1183 85.8723 13.4239 85.8723 13.8094C85.8723 14.0752 85.7225 14.3144 85.4774 14.4473L85.954 15.2847H85.5864L85.1506 14.5138H84.6741V15.2847ZM84.6741 14.2081H85.1234C85.3413 14.2214 85.5319 14.0618 85.5319 13.8492C85.5319 13.6366 85.3821 13.4505 85.1643 13.4505H84.6741V14.2081Z" fill="#0058A3"/>
</svg>
