<?xml version="1.0" encoding="UTF-8"?> <svg xmlns="http://www.w3.org/2000/svg" xmlns:xlink="http://www.w3.org/1999/xlink" version="1.1" width="50" height="676px" viewBox="0 0 676.0 676.0"><defs><clipPath id="i0"><path d="M676,0 L676,676 L0,676 L0,0 L676,0 Z"></path></clipPath><clipPath id="i1"><path d="M49.8852779,0 L219,258 L119.21648,258 L0,76.1141739 L49.8852779,0 Z"></path></clipPath><clipPath id="i2"><path d="M219,0 L49.878796,258 L0,181.885826 L119.21648,0 L219,0 Z"></path></clipPath><clipPath id="i3"><path d="M9.05705872,0 L223,325.5 L9.05705872,651 L0,651 L213.936439,325.5 L0,0 L9.05705872,0 Z"></path></clipPath><clipPath id="i4"><path d="M9.05705872,0 L223,325.5 L9.05705872,651 L0,651 L213.936439,325.5 L0,0 L9.05705872,0 Z"></path></clipPath><clipPath id="i5"><path d="M9.05705872,0 L223,325.5 L9.05705872,651 L0,651 L213.936439,325.5 L0,0 L9.05705872,0 Z"></path></clipPath><clipPath id="i6"><path d="M9.05705872,0 L223,325.5 L9.05705872,651 L0,651 L213.936439,325.5 L0,0 L9.05705872,0 Z"></path></clipPath></defs><g clip-path="url(#i0)"><g transform="translate(70.0 12.0)"><g transform="translate(318.0 393.0)"><g clip-path="url(#i1)"><polygon points="0,0 219,0 219,258 0,258 0,0" stroke="none" fill="#E8003C"></polygon></g></g><g transform="translate(318.0 0.0)"><g clip-path="url(#i2)"><polygon points="0,0 219,0 219,258 0,258 0,0" stroke="none" fill="#E8003C"></polygon></g></g><g transform="translate(90.0 0.0)"><g clip-path="url(#i3)"><polygon points="0,0 223,0 223,651 0,651 0,0" stroke="none" fill="#E8003C"></polygon></g></g><g transform="translate(67.0 0.0)"><g clip-path="url(#i3)"><polygon points="0,0 223,0 223,651 0,651 0,0" stroke="none" fill="#E8003C"></polygon></g></g><g transform="translate(45.0 0.0)"><g clip-path="url(#i4)"><polygon points="0,0 223,0 223,651 0,651 0,0" stroke="none" fill="#E8003C"></polygon></g></g><g transform="translate(22.0 0.0)"><g clip-path="url(#i5)"><polygon points="0,0 223,0 223,651 0,651 0,0" stroke="none" fill="#E8003C"></polygon></g></g><g clip-path="url(#i6)"><polygon points="0,0 223,0 223,651 0,651 0,0" stroke="none" fill="#E8003C"></polygon></g></g></g></svg>
