<svg width="80" height="39" viewBox="0 0 80 39" fill="none" xmlns="http://www.w3.org/2000/svg">
<g clip-path="url(#clip0_582_8167)">
<mask id="mask0_582_8167" style="mask-type:luminance" maskUnits="userSpaceOnUse" x="0" y="0" width="76" height="29">
<path d="M75.0651 0H0V28.0798H75.0651V0Z" fill="white"/>
</mask>
<g mask="url(#mask0_582_8167)">
<mask id="mask1_582_8167" style="mask-type:luminance" maskUnits="userSpaceOnUse" x="0" y="0" width="76" height="29">
<path d="M75.0651 0H0V28.0798H75.0651V0Z" fill="white"/>
</mask>
<g mask="url(#mask1_582_8167)">
<path d="M26.4446 1.50311C26.4417 2.0725 25.9916 2.5325 25.4345 2.5355C24.8817 2.5355 24.4346 2.07849 24.4346 1.5136C24.4346 0.948707 24.8817 0.491699 25.4345 0.491699C25.9828 0.497693 26.4285 0.944212 26.4446 1.50311ZM26.2086 10.7512H24.6501V3.7417H26.2086V10.7512Z" fill="#100B70"/>
<path d="M38.6163 6.46583V10.7512H37.0416V6.76551C37.0416 5.71964 36.4669 5.07383 35.5418 5.07383C34.8996 5.10979 34.3161 5.47091 33.9848 6.0343L34.0258 6.27854V10.7512H32.4556V6.76551C32.4556 5.71964 31.8516 5.07383 30.9822 5.07383C30.3254 5.07383 29.7243 5.45143 29.4266 6.04928V10.7497H27.8682V3.74177H29.4266V4.65728C29.9149 3.98001 30.6919 3.58593 31.5144 3.59792C32.4542 3.59792 33.1403 3.95604 33.5757 4.7292C34.127 4.03545 34.9466 3.62339 35.8204 3.59792C37.4639 3.59792 38.6133 4.73819 38.6133 6.46434" fill="#100B70"/>
<path d="M46.947 3.74192V10.7514H45.39V9.80439C45.0249 10.4367 44.113 10.8952 43.2026 10.8952C41.3523 10.8952 39.9082 9.28895 39.9082 7.24065C39.9082 5.19236 41.3538 3.60107 43.2084 3.60107C44.1203 3.60107 45.0323 4.05958 45.3959 4.6889V3.74342H46.947V3.74192ZM45.39 8.32848V6.1768C44.9912 5.51601 44.2846 5.11444 43.5251 5.11744C42.4065 5.08897 41.4769 5.994 41.4506 7.13727C41.4506 7.17023 41.4506 7.20469 41.4506 7.23766C41.4227 8.38842 42.3141 9.34439 43.4401 9.37286C43.4694 9.37286 43.4973 9.37286 43.5266 9.37286C44.2816 9.37286 44.9854 8.97728 45.3915 8.32698" fill="#100B70"/>
<path d="M55.2917 3.72652V10.4917C55.2917 12.4261 53.8462 13.6728 51.8992 13.6728C50.7057 13.6728 49.4156 13.2278 48.7866 12.5131L49.571 11.4087C50.1178 11.9527 50.9594 12.2403 51.842 12.2403C52.8932 12.2403 53.7347 11.5091 53.7347 10.4618V9.67661C53.3697 10.2775 52.4577 10.736 51.5473 10.736C49.6971 10.736 48.2529 9.16116 48.2529 7.15932C48.2529 5.15748 49.6985 3.59766 51.5414 3.59766C52.4533 3.59766 53.3653 4.04268 53.7289 4.65702V3.72502H55.2917V3.72652ZM53.7347 8.22767V6.09996C53.3272 5.45416 52.6249 5.06907 51.8728 5.07806C50.7453 5.0451 49.8055 5.95162 49.7733 7.10388C49.741 8.25614 50.628 9.2166 51.7555 9.24957C51.7951 9.24957 51.8332 9.24957 51.8728 9.24957C52.641 9.24507 53.3975 8.81504 53.7347 8.22767Z" fill="#100B70"/>
<path d="M58.7415 1.50311C58.74 2.0725 58.2885 2.534 57.7313 2.5355C57.1786 2.5355 56.7314 2.07849 56.7314 1.5136C56.7314 0.948707 57.1786 0.491699 57.7313 0.491699C58.2797 0.496194 58.7254 0.944212 58.7415 1.50311ZM58.504 3.7387V10.7512H56.947V3.7417L58.504 3.7387Z" fill="#100B70"/>
<path d="M66.6218 6.75173V10.7509H65.0516V7.00346C65.0516 5.87217 64.4065 5.18441 63.4389 5.18441C62.7366 5.17992 62.0842 5.55002 61.7133 6.15836V10.7509H60.1562V3.74147H61.7133V4.68695C62.1355 4.01417 62.9477 3.59912 63.8157 3.59912C65.5266 3.59912 66.6203 4.81731 66.6203 6.75173" fill="#100B70"/>
<path d="M74.6867 7.63454H69.4703C69.6374 8.76732 70.3954 9.45508 71.5038 9.45508C72.2749 9.45508 72.9758 9.11495 73.2983 8.56654L74.546 9.38466C74.046 10.3301 72.8907 10.904 71.4745 10.904C69.5187 10.916 67.9235 9.30524 67.9133 7.30639C67.9133 7.27792 67.9133 7.24945 67.9133 7.22099C67.8942 5.24611 69.4468 3.62935 71.3792 3.60987C71.4011 3.60987 71.4231 3.60987 71.4466 3.60987C73.2367 3.57841 74.7116 5.03634 74.7424 6.86587C74.7424 6.89284 74.7424 6.92131 74.7424 6.94828C74.7424 7.17903 74.7248 7.40978 74.6852 7.63604M73.1004 6.41785C73.0168 5.54429 72.2999 4.92696 71.3616 4.92696C70.4232 4.92696 69.762 5.49934 69.5289 6.41785H73.1004Z" fill="#100B70"/>
<path d="M26.2089 15.1235H24.6504V25.1552H26.2089V15.1235Z" fill="#100B70"/>
<path d="M34.1574 22.0324H28.9395C29.1067 23.1637 29.8661 23.8515 30.9745 23.8515C31.7442 23.8515 32.4465 23.5113 32.769 22.9644L34.0167 23.7795C33.5167 24.7265 32.3614 25.2989 30.9452 25.2989C28.9894 25.3109 27.3942 23.7016 27.381 21.7028C27.381 21.6728 27.381 21.6443 27.381 21.6159C27.362 19.641 28.9146 18.0242 30.8469 18.0048C30.8704 18.0048 30.8924 18.0048 30.9158 18.0048C32.706 17.9778 34.1779 19.4387 34.2058 21.2682C34.2058 21.2967 34.2058 21.3237 34.2058 21.3522C34.2087 21.5799 34.1911 21.8077 34.1559 22.0339M32.5711 20.8142C32.486 19.9407 31.7706 19.3233 30.8308 19.3233C29.891 19.3233 29.2327 19.8972 28.9982 20.8142H32.5711Z" fill="#100B70"/>
<path d="M42.0803 18.1472V25.1567H40.5233V24.2112C40.1582 24.842 39.2478 25.299 38.3373 25.299C36.4856 25.299 35.04 23.6943 35.04 21.6445C35.04 19.5947 36.4856 18.0049 38.3373 18.0049C39.2493 18.0049 40.1582 18.4634 40.5233 19.0957V18.1487H42.0803V18.1472ZM40.5233 22.7338V20.5836C40.126 19.9213 39.4193 19.5183 38.6584 19.5227C37.5075 19.5227 36.5765 20.4772 36.5765 21.6535C36.5765 22.8282 37.509 23.7797 38.6584 23.7812C39.4149 23.7812 40.1172 23.3856 40.5233 22.7338Z" fill="#100B70"/>
<path d="M47.8327 18.1141L47.7344 19.62C47.472 19.5286 47.1978 19.4791 46.9207 19.4776C46.4003 19.4776 45.6569 19.9062 45.2948 20.6823V25.1535H43.7363V18.1486H45.2948V19.109C45.6525 18.4587 46.3123 18.0422 47.041 18.0047C47.3093 17.9957 47.5761 18.0332 47.8327 18.1156" fill="#100B70"/>
<path d="M55.4177 21.1575V25.1567H53.8475V21.4093C53.8475 20.2765 53.2024 19.5887 52.2348 19.5887C51.5325 19.5842 50.8801 19.9543 50.5092 20.5627V25.1492H48.9521V18.1473H50.5092V19.0942C50.9285 18.4125 51.7422 18.0034 52.6116 18.0034C54.3225 18.0034 55.4162 19.2216 55.4162 21.156" fill="#100B70"/>
<path d="M58.8548 15.9133C58.8504 16.4812 58.4003 16.9412 57.8446 16.9442C57.2919 16.9442 56.8447 16.4872 56.8447 15.9223C56.8447 15.3574 57.2919 14.9004 57.8446 14.9004C58.3929 14.9064 58.8386 15.3544 58.8548 15.9133ZM58.6158 25.1568H57.0588V18.1474H58.6158V25.1568Z" fill="#100B70"/>
<path d="M66.7361 21.1575V25.1567H65.1644V21.4093C65.1644 20.2765 64.5193 19.5887 63.5531 19.5887C62.8509 19.5842 62.1984 19.9543 61.8275 20.5627V25.1492H60.2705V18.1473H61.8275V19.0942C62.2468 18.4125 63.0605 18.0034 63.9299 18.0034C65.6394 18.0034 66.7346 19.2216 66.7346 21.156" fill="#100B70"/>
<path d="M75.0657 18.1337V24.8974C75.0657 26.8318 73.623 28.0815 71.6731 28.0815C70.4811 28.0815 69.191 27.6365 68.5605 26.9202L69.3449 25.8159C69.8918 26.3613 70.7333 26.6475 71.6159 26.6475C72.6671 26.6475 73.5087 25.9163 73.5087 24.8705V24.0763C73.1451 24.6772 72.2331 25.1372 71.3227 25.1372C69.471 25.1372 68.0254 23.5594 68.0254 21.5605C68.0254 19.5617 69.471 18.0063 71.3227 18.0063C72.2346 18.0063 73.1465 18.4514 73.5087 19.0672V18.1352H75.0657V18.1337ZM73.5087 22.6334V20.5131C73.104 19.8613 72.3988 19.4688 71.6438 19.4778C70.5178 19.4778 69.6029 20.4098 69.6029 21.562C69.6029 22.7143 70.5149 23.6478 71.6423 23.6478H71.6452C72.4164 23.6508 73.1729 23.2252 73.5101 22.6349" fill="#100B70"/>
</g>
<mask id="mask2_582_8167" style="mask-type:luminance" maskUnits="userSpaceOnUse" x="0" y="0" width="18" height="27">
<path d="M17.5039 0H0V26.2487H17.5039V0Z" fill="white"/>
</mask>
<g mask="url(#mask2_582_8167)">
<path d="M13.9064 26.2487C11.9199 26.2487 10.3086 24.602 10.3086 22.5717V3.67704C10.3086 1.64673 11.9199 0 13.9064 0C15.893 0 17.5043 1.64673 17.5043 3.67704V22.5732C17.5043 24.6035 15.893 26.2502 13.9064 26.2502" fill="#100B70"/>
<path d="M3.59785 26.2486C1.61126 26.2486 0 24.6019 0 22.5716V13.8689C0 11.8386 1.61126 10.1919 3.59785 10.1919C5.58443 10.1919 7.19569 11.8386 7.19569 13.8689V22.5716C7.19569 24.6019 5.58443 26.2486 3.59785 26.2486Z" fill="#100B70"/>
<path d="M7.19422 3.67704C7.19422 5.70735 5.58296 7.35408 3.59638 7.35408C1.60979 7.35408 0 5.70735 0 3.67704C0 1.64673 1.61126 0 3.59785 0C5.58443 0 7.19569 1.64673 7.19569 3.67704" fill="#100B70"/>
</g>
</g>
<path d="M1.21285 37.0205C0.881505 36.8197 0.620537 36.5425 0.427009 36.1904C0.233482 35.8383 0.136719 35.4427 0.136719 35.0052C0.136719 34.5676 0.233482 34.2005 0.427009 33.8514C0.620537 33.5023 0.882971 33.2266 1.21285 33.0258C1.54419 32.825 1.90779 32.7246 2.30803 32.7246C2.70828 32.7246 3.03669 32.8175 3.34898 33.0033C3.66126 33.1891 3.90757 33.4408 4.08643 33.76C4.2653 34.0792 4.35473 34.4373 4.35473 34.8328V34.9872H0.510578V34.9962C0.510578 35.3738 0.591214 35.7109 0.752487 36.0091C0.913759 36.3073 1.13074 36.5395 1.40491 36.7073C1.67907 36.8751 1.98256 36.9576 2.31683 36.9576C2.68043 36.9576 3.00444 36.8826 3.29033 36.7343C3.57622 36.5845 3.79028 36.3747 3.93396 36.1005L4.24624 36.3013C4.07324 36.6174 3.8152 36.8661 3.4736 37.049C3.13052 37.2318 2.742 37.3232 2.30803 37.3232C1.90925 37.3232 1.54419 37.2228 1.21285 37.022V37.0205ZM3.96035 34.6395C3.94275 34.3474 3.85918 34.0836 3.70964 33.8454C3.5601 33.6087 3.36217 33.4214 3.11586 33.285C2.86809 33.1487 2.59539 33.0797 2.29777 33.0797C1.85061 33.0797 1.46502 33.2236 1.14101 33.5128C0.81553 33.802 0.614672 34.178 0.538434 34.6395H3.96181H3.96035Z" fill="#00007C"/>
<path d="M9.07929 37.2303H8.69517V34.6666C8.69517 34.1796 8.56909 33.7945 8.31545 33.5128C8.06181 33.2296 7.72167 33.0888 7.2921 33.0888C6.98275 33.0888 6.70126 33.1712 6.44762 33.336C6.19398 33.5008 5.99899 33.7166 5.86264 33.9833V37.2318H5.47852V32.816H5.86264V33.5637C6.00632 33.345 6.20131 33.1502 6.44762 32.9794C6.69392 32.8086 7.00034 32.7246 7.36394 32.7246C7.72754 32.7246 8.03982 32.8071 8.30225 32.9704C8.56469 33.1352 8.76115 33.3689 8.89163 33.6731C9.08809 33.3989 9.3256 33.1727 9.6027 32.9929C9.87979 32.813 10.1906 32.7231 10.5366 32.7231C11.0791 32.7231 11.5072 32.894 11.8239 33.2341C12.1391 33.5742 12.2974 34.0372 12.2974 34.6201V37.2288H11.9133V34.6651C11.9133 34.1781 11.7872 33.793 11.5336 33.5113C11.2799 33.2281 10.9339 33.0873 10.4926 33.0873C10.195 33.0873 9.91058 33.1772 9.63935 33.357C9.36812 33.5368 9.15846 33.757 9.00892 34.0178C9.04411 34.1631 9.06903 34.3549 9.08076 34.5931V37.2303H9.07929Z" fill="#00007C"/>
<path d="M13.708 32.8145H14.1009V33.5622C14.2387 33.3255 14.4616 33.1262 14.7709 32.9644C15.0803 32.8026 15.397 32.7231 15.7181 32.7231C16.1344 32.7231 16.5127 32.8235 16.8484 33.0243C17.1856 33.2251 17.4495 33.5023 17.6431 33.8544C17.8366 34.2065 17.9334 34.5991 17.9334 35.0322C17.9334 35.4652 17.8366 35.8458 17.6431 36.1949C17.4495 36.544 17.1842 36.8197 16.8484 37.0205C16.5112 37.2213 16.1344 37.3217 15.7181 37.3217C15.3911 37.3217 15.073 37.2423 14.7665 37.0849C14.4601 36.9261 14.2373 36.7298 14.1009 36.4916V38.9999H13.708V32.8145ZM14.7533 36.7014C15.051 36.8722 15.3574 36.9576 15.6741 36.9576C16.0259 36.9576 16.3441 36.8737 16.63 36.7074C16.9159 36.541 17.1402 36.3103 17.3044 36.0181C17.4686 35.7259 17.5492 35.3978 17.5492 35.0337C17.5492 34.6695 17.4671 34.3384 17.3044 34.0432C17.1402 33.748 16.9159 33.5173 16.63 33.3495C16.3441 33.1817 16.0259 33.0992 15.6741 33.0992C15.3589 33.0992 15.0524 33.1832 14.7577 33.3495C14.4631 33.5173 14.2431 33.7316 14.1009 33.9923V36.0541C14.2387 36.3163 14.4557 36.532 14.7533 36.7014Z" fill="#00007C"/>
<path d="M21.9658 33.0288C22.3059 33.2326 22.5742 33.5113 22.7751 33.8634C22.9745 34.2155 23.0742 34.6051 23.0742 35.0307C23.0742 35.4562 22.9745 35.8353 22.7751 36.1844C22.5757 36.5335 22.3059 36.8107 21.9658 37.0145C21.6257 37.2183 21.2503 37.3202 20.8398 37.3202C20.4293 37.3202 20.0613 37.2183 19.7182 37.0145C19.3752 36.8107 19.1069 36.5335 18.9089 36.1844C18.7125 35.8353 18.6143 35.4502 18.6143 35.0307C18.6143 34.6111 18.7125 34.2155 18.9089 33.8634C19.1054 33.5113 19.3752 33.2326 19.7182 33.0288C20.0613 32.825 20.4352 32.7231 20.8398 32.7231C21.2445 32.7231 21.6257 32.825 21.9658 33.0288ZM19.2359 35.9986C19.4001 36.2908 19.6229 36.5216 19.9059 36.6924C20.1889 36.8632 20.4997 36.9471 20.8398 36.9471C21.18 36.9471 21.4908 36.8617 21.7737 36.6924C22.0567 36.5216 22.2795 36.2908 22.4437 35.9986C22.608 35.7064 22.6901 35.3843 22.6901 35.0322C22.6901 34.68 22.608 34.3459 22.4437 34.0507C22.2795 33.7555 22.0567 33.5218 21.7737 33.348C21.4908 33.1742 21.18 33.0873 20.8398 33.0873C20.4997 33.0873 20.1889 33.1742 19.9059 33.348C19.6229 33.5218 19.4001 33.7555 19.2359 34.0507C19.0717 34.3459 18.991 34.6725 18.991 35.0322C18.991 35.3918 19.0732 35.7079 19.2359 35.9986Z" fill="#00007C"/>
<path d="M23.5557 32.8145H23.9662L25.3238 36.7282L26.6829 32.8145H27.0494L28.4261 36.7282L29.7749 32.8145H30.1854L28.5947 37.2302H28.2458L26.8691 33.2984L25.4836 37.2302H25.1435L23.5527 32.8145H23.5557Z" fill="#00007C"/>
<path d="M31.746 37.0205C31.4147 36.8197 31.1537 36.5425 30.9602 36.1904C30.7667 35.8383 30.6699 35.4427 30.6699 35.0052C30.6699 34.5676 30.7667 34.2005 30.9602 33.8514C31.1537 33.5023 31.4162 33.2266 31.746 33.0258C32.0774 32.825 32.441 32.7246 32.8412 32.7246C33.2415 32.7246 33.5699 32.8175 33.8822 33.0033C34.1945 33.1891 34.4408 33.4408 34.6196 33.76C34.7985 34.0792 34.8879 34.4373 34.8879 34.8328V34.9872H31.0452V34.9962C31.0452 35.3738 31.1259 35.7109 31.2872 36.0091C31.4484 36.3073 31.6654 36.5395 31.9396 36.7073C32.2137 36.8751 32.5172 36.9576 32.8515 36.9576C33.2151 36.9576 33.5391 36.8826 33.825 36.7343C34.1109 36.5845 34.3249 36.3747 34.4686 36.1005L34.7809 36.3013C34.6079 36.6174 34.3499 36.8661 34.0083 37.049C33.6652 37.2318 33.2767 37.3232 32.8427 37.3232C32.4439 37.3232 32.0789 37.2228 31.7475 37.022L31.746 37.0205ZM34.4935 34.6395C34.476 34.3474 34.3924 34.0836 34.2428 33.8454C34.0933 33.6087 33.8954 33.4214 33.6491 33.285C33.4013 33.1487 33.1286 33.0797 32.831 33.0797C32.3838 33.0797 31.9982 33.2236 31.6742 33.5128C31.3487 33.802 31.1479 34.178 31.0716 34.6395H34.495H34.4935Z" fill="#00007C"/>
<path d="M36.0137 32.8145H36.4066V33.5802C36.5371 33.3255 36.7174 33.1187 36.9476 32.9599C37.1763 32.8026 37.4109 32.7231 37.6484 32.7231C37.7965 32.7231 37.9401 32.7441 38.078 32.7876L38.0516 33.1622C37.9196 33.1127 37.7803 33.0888 37.6308 33.0888C37.4167 33.0888 37.1954 33.1727 36.9696 33.339C36.7423 33.5068 36.5561 33.7331 36.4066 34.0192V37.2303H36.0137V32.8145Z" fill="#00007C"/>
<path d="M41.3311 32.8145H41.724V33.5622C41.8618 33.3255 42.0846 33.1262 42.394 32.9644C42.7033 32.8026 43.02 32.7231 43.3411 32.7231C43.7575 32.7231 44.1357 32.8235 44.4715 33.0243C44.8087 33.2251 45.0726 33.5023 45.2661 33.8544C45.4596 34.2065 45.5564 34.5991 45.5564 35.0322C45.5564 35.4652 45.4596 35.8458 45.2661 36.1949C45.0726 36.544 44.8072 36.8197 44.4715 37.0205C44.1343 37.2213 43.7575 37.3217 43.3411 37.3217C43.0142 37.3217 42.696 37.2423 42.3896 37.0849C42.0832 36.9261 41.8603 36.7298 41.724 36.4916V38.9999H41.3311V32.8145ZM42.3764 36.7014C42.674 36.8722 42.9804 36.9576 43.2971 36.9576C43.649 36.9576 43.9671 36.8737 44.253 36.7074C44.5389 36.5395 44.7632 36.3103 44.9274 36.0181C45.0916 35.7259 45.1723 35.3978 45.1723 35.0337C45.1723 34.6695 45.0902 34.3384 44.9274 34.0432C44.7632 33.748 44.5389 33.5173 44.253 33.3495C43.9671 33.1817 43.649 33.0992 43.2971 33.0992C42.9819 33.0992 42.6755 33.1832 42.3808 33.3495C42.0861 33.5173 41.8662 33.7316 41.724 33.9923V36.0541C41.8618 36.3163 42.0788 36.532 42.3764 36.7014Z" fill="#00007C"/>
<path d="M49.5888 33.0288C49.929 33.2326 50.1973 33.5113 50.3981 33.8634C50.5975 34.2155 50.6972 34.6051 50.6972 35.0307C50.6972 35.4562 50.5975 35.8353 50.3981 36.1844C50.1987 36.5335 49.929 36.8107 49.5888 37.0145C49.2487 37.2183 48.8734 37.3202 48.4629 37.3202C48.0524 37.3202 47.6844 37.2183 47.3413 37.0145C46.9982 36.8107 46.7299 36.5335 46.532 36.1844C46.3355 35.8353 46.2373 35.4502 46.2373 35.0307C46.2373 34.6111 46.3355 34.2155 46.532 33.8634C46.7285 33.5113 46.9982 33.2326 47.3413 33.0288C47.6844 32.825 48.0582 32.7231 48.4629 32.7231C48.8675 32.7231 49.2487 32.825 49.5888 33.0288ZM46.8589 35.9986C47.0231 36.2908 47.246 36.5216 47.529 36.6924C47.8119 36.8632 48.1227 36.9471 48.4629 36.9471C48.803 36.9471 49.1138 36.8617 49.3968 36.6924C49.6797 36.5216 49.9026 36.2908 50.0668 35.9986C50.231 35.7064 50.3131 35.3843 50.3131 35.0322C50.3131 34.68 50.231 34.3459 50.0668 34.0507C49.9026 33.7555 49.6797 33.5218 49.3968 33.348C49.1138 33.1742 48.803 33.0873 48.4629 33.0873C48.1227 33.0873 47.8119 33.1742 47.529 33.348C47.246 33.5218 47.0231 33.7555 46.8589 34.0507C46.6947 34.3459 46.6141 34.6725 46.6141 35.0322C46.6141 35.3918 46.6962 35.7079 46.8589 35.9986Z" fill="#00007C"/>
<path d="M52.3448 36.8648C52.0853 36.5966 51.9563 36.2295 51.9563 35.7605V33.1787H51.0811V32.8131H51.9563V31.5635H52.3492V32.8131H53.6277V33.1787H52.3492V35.7515C52.3492 36.1096 52.446 36.3913 52.6395 36.5951C52.8331 36.7988 53.0823 36.9007 53.3858 36.9007C53.4752 36.9007 53.5588 36.8917 53.6365 36.8738L53.6629 37.2214C53.5617 37.2514 53.4606 37.2663 53.3594 37.2663C52.943 37.2663 52.6043 37.133 52.3448 36.8648Z" fill="#00007C"/>
<path d="M55.124 37.0205C54.7926 36.8197 54.5317 36.5425 54.3381 36.1904C54.1446 35.8383 54.0479 35.4427 54.0479 35.0052C54.0479 34.5676 54.1446 34.2005 54.3381 33.8514C54.5317 33.5023 54.7941 33.2266 55.124 33.0258C55.4553 32.825 55.8189 32.7246 56.2192 32.7246C56.6194 32.7246 56.9478 32.8175 57.2601 33.0033C57.5724 33.1891 57.8187 33.4408 57.9976 33.76C58.1764 34.0792 58.2659 34.4373 58.2659 34.8328V34.9872H54.4232V34.9962C54.4232 35.3738 54.5038 35.7109 54.6651 36.0091C54.8264 36.3073 55.0433 36.5395 55.3175 36.7073C55.5917 36.8751 55.8952 36.9576 56.2294 36.9576C56.593 36.9576 56.917 36.8826 57.2029 36.7343C57.4888 36.5845 57.7029 36.3747 57.8466 36.1005L58.1588 36.3013C57.9858 36.6174 57.7278 36.8661 57.3862 37.049C57.0431 37.2318 56.6546 37.3232 56.2206 37.3232C55.8219 37.3232 55.4568 37.2228 55.1254 37.022L55.124 37.0205ZM57.8715 34.6395C57.8539 34.3474 57.7703 34.0836 57.6208 33.8454C57.4712 33.6087 57.2733 33.4214 57.027 33.285C56.7792 33.1487 56.5065 33.0797 56.2089 33.0797C55.7617 33.0797 55.3762 33.2236 55.0521 33.5128C54.7267 33.802 54.5258 34.178 54.4496 34.6395H57.8729H57.8715Z" fill="#00007C"/>
<path d="M59.7752 33.5892C59.9233 33.3285 60.152 33.1172 60.4584 32.9599C60.7649 32.8026 61.0947 32.7231 61.4466 32.7231C61.7985 32.7231 62.1093 32.8041 62.3805 32.9644C62.6518 33.1247 62.8614 33.354 63.0109 33.6491C63.1605 33.9443 63.2338 34.283 63.2338 34.6666V37.2303H62.8409V34.7025C62.8409 34.2215 62.7075 33.8349 62.4392 33.5398C62.1709 33.2446 61.8234 33.0977 61.3938 33.0977C61.0537 33.0977 60.737 33.1831 60.4423 33.3525C60.1476 33.5233 59.9248 33.748 59.7767 34.0282V37.2303H59.3926V32.8145H59.7767V33.5907L59.7752 33.5892Z" fill="#00007C"/>
<path d="M65.0607 36.8648C64.8012 36.5966 64.6721 36.2295 64.6721 35.7605V33.1787H63.7969V32.8131H64.6721V31.5635H65.0651V32.8131H66.3435V33.1787H65.0651V35.7515C65.0651 36.1096 65.1618 36.3913 65.3554 36.5951C65.5489 36.7988 65.7981 36.9007 66.1016 36.9007C66.191 36.9007 66.2746 36.8917 66.3523 36.8738L66.3787 37.2214C66.2775 37.2514 66.1764 37.2663 66.0752 37.2663C65.6588 37.2663 65.3202 37.133 65.0607 36.8648Z" fill="#00007C"/>
<path d="M67.8213 31.0901C67.8902 31.1576 67.9239 31.2355 67.9239 31.3269C67.9239 31.4243 67.8902 31.5067 67.8213 31.5741C67.7524 31.6415 67.6747 31.6745 67.5853 31.6745C67.4841 31.6745 67.4005 31.6415 67.3346 31.5741C67.2686 31.5067 67.2363 31.4243 67.2363 31.3269C67.2363 31.2355 67.27 31.1561 67.339 31.0901C67.4079 31.0227 67.4885 30.9897 67.5853 30.9897C67.6747 30.9897 67.7539 31.0227 67.8213 31.0901ZM67.7729 32.8148V37.2305H67.38V32.8148H67.7729Z" fill="#00007C"/>
<path d="M73.1257 37.2303H72.7416V36.4736C72.5979 36.7104 72.3736 36.9111 72.0672 37.076C71.7608 37.2408 71.4426 37.3217 71.1157 37.3217C70.6993 37.3217 70.3211 37.2213 69.9853 37.0205C69.6481 36.8197 69.3842 36.5425 69.1907 36.1904C68.9972 35.8383 68.9004 35.4457 68.9004 35.0127C68.9004 34.5796 68.9972 34.1991 69.1907 33.8499C69.3842 33.5008 69.6496 33.2251 69.9853 33.0243C70.3211 32.8235 70.6978 32.7231 71.1157 32.7231C71.45 32.7231 71.771 32.8056 72.0804 32.9689C72.3897 33.1337 72.6111 33.3345 72.7416 33.5712V32.8145H73.1257V37.2303ZM69.5294 36.0031C69.6936 36.2983 69.9179 36.529 70.2038 36.6969C70.4897 36.8647 70.8078 36.9471 71.1597 36.9471C71.4749 36.9471 71.7828 36.8602 72.0804 36.6864C72.378 36.5126 72.5979 36.2953 72.7416 36.0346V34.0088C72.6038 33.7405 72.3853 33.5203 72.0848 33.348C71.7842 33.1742 71.4764 33.0873 71.1597 33.0873C70.8078 33.0873 70.4897 33.1712 70.2038 33.3375C69.9179 33.5053 69.6936 33.7346 69.5294 34.0267C69.3651 34.3189 69.2845 34.6471 69.2845 35.0112C69.2845 35.3753 69.3666 35.7064 69.5294 36.0016V36.0031Z" fill="#00007C"/>
<path d="M74.93 37.2304H74.5371V30.8442H74.93V37.2304Z" fill="#00007C"/>
<path d="M1.21285 37.0205C0.881505 36.8197 0.620537 36.5425 0.427009 36.1904C0.233482 35.8383 0.136719 35.4427 0.136719 35.0052C0.136719 34.5676 0.233482 34.2005 0.427009 33.8514C0.620537 33.5023 0.882971 33.2266 1.21285 33.0258C1.54419 32.825 1.90779 32.7246 2.30803 32.7246C2.70828 32.7246 3.03669 32.8175 3.34898 33.0033C3.66126 33.1891 3.90757 33.4408 4.08643 33.76C4.2653 34.0792 4.35473 34.4373 4.35473 34.8328V34.9872H0.510578V34.9962C0.510578 35.3738 0.591214 35.7109 0.752487 36.0091C0.913759 36.3073 1.13074 36.5395 1.40491 36.7073C1.67907 36.8751 1.98256 36.9576 2.31683 36.9576C2.68043 36.9576 3.00444 36.8826 3.29033 36.7343C3.57622 36.5845 3.79028 36.3747 3.93396 36.1005L4.24624 36.3013C4.07324 36.6174 3.8152 36.8661 3.4736 37.049C3.13052 37.2318 2.742 37.3232 2.30803 37.3232C1.90925 37.3232 1.54419 37.2228 1.21285 37.022V37.0205ZM3.96035 34.6395C3.94275 34.3474 3.85918 34.0836 3.70964 33.8454C3.5601 33.6087 3.36217 33.4214 3.11586 33.285C2.86809 33.1487 2.59539 33.0797 2.29777 33.0797C1.85061 33.0797 1.46502 33.2236 1.14101 33.5128C0.81553 33.802 0.614672 34.178 0.538434 34.6395H3.96181H3.96035Z" fill="#00007C"/>
<path d="M9.07929 37.2303H8.69517V34.6666C8.69517 34.1796 8.56909 33.7945 8.31545 33.5128C8.06181 33.2296 7.72167 33.0888 7.2921 33.0888C6.98275 33.0888 6.70126 33.1712 6.44762 33.336C6.19398 33.5008 5.99899 33.7166 5.86264 33.9833V37.2318H5.47852V32.816H5.86264V33.5637C6.00632 33.345 6.20131 33.1502 6.44762 32.9794C6.69392 32.8086 7.00034 32.7246 7.36394 32.7246C7.72754 32.7246 8.03982 32.8071 8.30225 32.9704C8.56469 33.1352 8.76115 33.3689 8.89163 33.6731C9.08809 33.3989 9.3256 33.1727 9.6027 32.9929C9.87979 32.813 10.1906 32.7231 10.5366 32.7231C11.0791 32.7231 11.5072 32.894 11.8239 33.2341C12.1391 33.5742 12.2974 34.0372 12.2974 34.6201V37.2288H11.9133V34.6651C11.9133 34.1781 11.7872 33.793 11.5336 33.5113C11.2799 33.2281 10.9339 33.0873 10.4926 33.0873C10.195 33.0873 9.91058 33.1772 9.63935 33.357C9.36812 33.5368 9.15846 33.757 9.00892 34.0178C9.04411 34.1631 9.06903 34.3549 9.08076 34.5931V37.2303H9.07929Z" fill="#00007C"/>
<path d="M13.708 32.8145H14.1009V33.5622C14.2387 33.3255 14.4616 33.1262 14.7709 32.9644C15.0803 32.8026 15.397 32.7231 15.7181 32.7231C16.1344 32.7231 16.5127 32.8235 16.8484 33.0243C17.1856 33.2251 17.4495 33.5023 17.6431 33.8544C17.8366 34.2065 17.9334 34.5991 17.9334 35.0322C17.9334 35.4652 17.8366 35.8458 17.6431 36.1949C17.4495 36.544 17.1842 36.8197 16.8484 37.0205C16.5112 37.2213 16.1344 37.3217 15.7181 37.3217C15.3911 37.3217 15.073 37.2423 14.7665 37.0849C14.4601 36.9261 14.2373 36.7298 14.1009 36.4916V38.9999H13.708V32.8145ZM14.7533 36.7014C15.051 36.8722 15.3574 36.9576 15.6741 36.9576C16.0259 36.9576 16.3441 36.8737 16.63 36.7074C16.9159 36.541 17.1402 36.3103 17.3044 36.0181C17.4686 35.7259 17.5492 35.3978 17.5492 35.0337C17.5492 34.6695 17.4671 34.3384 17.3044 34.0432C17.1402 33.748 16.9159 33.5173 16.63 33.3495C16.3441 33.1817 16.0259 33.0992 15.6741 33.0992C15.3589 33.0992 15.0524 33.1832 14.7577 33.3495C14.4631 33.5173 14.2431 33.7316 14.1009 33.9923V36.0541C14.2387 36.3163 14.4557 36.532 14.7533 36.7014Z" fill="#00007C"/>
<path d="M21.9658 33.0288C22.3059 33.2326 22.5742 33.5113 22.7751 33.8634C22.9745 34.2155 23.0742 34.6051 23.0742 35.0307C23.0742 35.4562 22.9745 35.8353 22.7751 36.1844C22.5757 36.5335 22.3059 36.8107 21.9658 37.0145C21.6257 37.2183 21.2503 37.3202 20.8398 37.3202C20.4293 37.3202 20.0613 37.2183 19.7182 37.0145C19.3752 36.8107 19.1069 36.5335 18.9089 36.1844C18.7125 35.8353 18.6143 35.4502 18.6143 35.0307C18.6143 34.6111 18.7125 34.2155 18.9089 33.8634C19.1054 33.5113 19.3752 33.2326 19.7182 33.0288C20.0613 32.825 20.4352 32.7231 20.8398 32.7231C21.2445 32.7231 21.6257 32.825 21.9658 33.0288ZM19.2359 35.9986C19.4001 36.2908 19.6229 36.5216 19.9059 36.6924C20.1889 36.8632 20.4997 36.9471 20.8398 36.9471C21.18 36.9471 21.4908 36.8617 21.7737 36.6924C22.0567 36.5216 22.2795 36.2908 22.4437 35.9986C22.608 35.7064 22.6901 35.3843 22.6901 35.0322C22.6901 34.68 22.608 34.3459 22.4437 34.0507C22.2795 33.7555 22.0567 33.5218 21.7737 33.348C21.4908 33.1742 21.18 33.0873 20.8398 33.0873C20.4997 33.0873 20.1889 33.1742 19.9059 33.348C19.6229 33.5218 19.4001 33.7555 19.2359 34.0507C19.0717 34.3459 18.991 34.6725 18.991 35.0322C18.991 35.3918 19.0732 35.7079 19.2359 35.9986Z" fill="#00007C"/>
<path d="M23.5557 32.8145H23.9662L25.3238 36.7282L26.6829 32.8145H27.0494L28.4261 36.7282L29.7749 32.8145H30.1854L28.5947 37.2302H28.2458L26.8691 33.2984L25.4836 37.2302H25.1435L23.5527 32.8145H23.5557Z" fill="#00007C"/>
<path d="M31.746 37.0205C31.4147 36.8197 31.1537 36.5425 30.9602 36.1904C30.7667 35.8383 30.6699 35.4427 30.6699 35.0052C30.6699 34.5676 30.7667 34.2005 30.9602 33.8514C31.1537 33.5023 31.4162 33.2266 31.746 33.0258C32.0774 32.825 32.441 32.7246 32.8412 32.7246C33.2415 32.7246 33.5699 32.8175 33.8822 33.0033C34.1945 33.1891 34.4408 33.4408 34.6196 33.76C34.7985 34.0792 34.8879 34.4373 34.8879 34.8328V34.9872H31.0452V34.9962C31.0452 35.3738 31.1259 35.7109 31.2872 36.0091C31.4484 36.3073 31.6654 36.5395 31.9396 36.7073C32.2137 36.8751 32.5172 36.9576 32.8515 36.9576C33.2151 36.9576 33.5391 36.8826 33.825 36.7343C34.1109 36.5845 34.3249 36.3747 34.4686 36.1005L34.7809 36.3013C34.6079 36.6174 34.3499 36.8661 34.0083 37.049C33.6652 37.2318 33.2767 37.3232 32.8427 37.3232C32.4439 37.3232 32.0789 37.2228 31.7475 37.022L31.746 37.0205ZM34.4935 34.6395C34.476 34.3474 34.3924 34.0836 34.2428 33.8454C34.0933 33.6087 33.8954 33.4214 33.6491 33.285C33.4013 33.1487 33.1286 33.0797 32.831 33.0797C32.3838 33.0797 31.9982 33.2236 31.6742 33.5128C31.3487 33.802 31.1479 34.178 31.0716 34.6395H34.495H34.4935Z" fill="#00007C"/>
<path d="M36.0137 32.8145H36.4066V33.5802C36.5371 33.3255 36.7174 33.1187 36.9476 32.9599C37.1763 32.8026 37.4109 32.7231 37.6484 32.7231C37.7965 32.7231 37.9401 32.7441 38.078 32.7876L38.0516 33.1622C37.9196 33.1127 37.7803 33.0888 37.6308 33.0888C37.4167 33.0888 37.1954 33.1727 36.9696 33.339C36.7423 33.5068 36.5561 33.7331 36.4066 34.0192V37.2303H36.0137V32.8145Z" fill="#00007C"/>
<path d="M41.3311 32.8145H41.724V33.5622C41.8618 33.3255 42.0846 33.1262 42.394 32.9644C42.7033 32.8026 43.02 32.7231 43.3411 32.7231C43.7575 32.7231 44.1357 32.8235 44.4715 33.0243C44.8087 33.2251 45.0726 33.5023 45.2661 33.8544C45.4596 34.2065 45.5564 34.5991 45.5564 35.0322C45.5564 35.4652 45.4596 35.8458 45.2661 36.1949C45.0726 36.544 44.8072 36.8197 44.4715 37.0205C44.1343 37.2213 43.7575 37.3217 43.3411 37.3217C43.0142 37.3217 42.696 37.2423 42.3896 37.0849C42.0832 36.9261 41.8603 36.7298 41.724 36.4916V38.9999H41.3311V32.8145ZM42.3764 36.7014C42.674 36.8722 42.9804 36.9576 43.2971 36.9576C43.649 36.9576 43.9671 36.8737 44.253 36.7074C44.5389 36.5395 44.7632 36.3103 44.9274 36.0181C45.0916 35.7259 45.1723 35.3978 45.1723 35.0337C45.1723 34.6695 45.0902 34.3384 44.9274 34.0432C44.7632 33.748 44.5389 33.5173 44.253 33.3495C43.9671 33.1817 43.649 33.0992 43.2971 33.0992C42.9819 33.0992 42.6755 33.1832 42.3808 33.3495C42.0861 33.5173 41.8662 33.7316 41.724 33.9923V36.0541C41.8618 36.3163 42.0788 36.532 42.3764 36.7014Z" fill="#00007C"/>
<path d="M49.5888 33.0288C49.929 33.2326 50.1973 33.5113 50.3981 33.8634C50.5975 34.2155 50.6972 34.6051 50.6972 35.0307C50.6972 35.4562 50.5975 35.8353 50.3981 36.1844C50.1987 36.5335 49.929 36.8107 49.5888 37.0145C49.2487 37.2183 48.8734 37.3202 48.4629 37.3202C48.0524 37.3202 47.6844 37.2183 47.3413 37.0145C46.9982 36.8107 46.7299 36.5335 46.532 36.1844C46.3355 35.8353 46.2373 35.4502 46.2373 35.0307C46.2373 34.6111 46.3355 34.2155 46.532 33.8634C46.7285 33.5113 46.9982 33.2326 47.3413 33.0288C47.6844 32.825 48.0582 32.7231 48.4629 32.7231C48.8675 32.7231 49.2487 32.825 49.5888 33.0288ZM46.8589 35.9986C47.0231 36.2908 47.246 36.5216 47.529 36.6924C47.8119 36.8632 48.1227 36.9471 48.4629 36.9471C48.803 36.9471 49.1138 36.8617 49.3968 36.6924C49.6797 36.5216 49.9026 36.2908 50.0668 35.9986C50.231 35.7064 50.3131 35.3843 50.3131 35.0322C50.3131 34.68 50.231 34.3459 50.0668 34.0507C49.9026 33.7555 49.6797 33.5218 49.3968 33.348C49.1138 33.1742 48.803 33.0873 48.4629 33.0873C48.1227 33.0873 47.8119 33.1742 47.529 33.348C47.246 33.5218 47.0231 33.7555 46.8589 34.0507C46.6947 34.3459 46.6141 34.6725 46.6141 35.0322C46.6141 35.3918 46.6962 35.7079 46.8589 35.9986Z" fill="#00007C"/>
<path d="M52.3448 36.8648C52.0853 36.5966 51.9563 36.2295 51.9563 35.7605V33.1787H51.0811V32.8131H51.9563V31.5635H52.3492V32.8131H53.6277V33.1787H52.3492V35.7515C52.3492 36.1096 52.446 36.3913 52.6395 36.5951C52.8331 36.7988 53.0823 36.9007 53.3858 36.9007C53.4752 36.9007 53.5588 36.8917 53.6365 36.8738L53.6629 37.2214C53.5617 37.2514 53.4606 37.2663 53.3594 37.2663C52.943 37.2663 52.6043 37.133 52.3448 36.8648Z" fill="#00007C"/>
<path d="M55.124 37.0205C54.7926 36.8197 54.5317 36.5425 54.3381 36.1904C54.1446 35.8383 54.0479 35.4427 54.0479 35.0052C54.0479 34.5676 54.1446 34.2005 54.3381 33.8514C54.5317 33.5023 54.7941 33.2266 55.124 33.0258C55.4553 32.825 55.8189 32.7246 56.2192 32.7246C56.6194 32.7246 56.9478 32.8175 57.2601 33.0033C57.5724 33.1891 57.8187 33.4408 57.9976 33.76C58.1764 34.0792 58.2659 34.4373 58.2659 34.8328V34.9872H54.4232V34.9962C54.4232 35.3738 54.5038 35.7109 54.6651 36.0091C54.8264 36.3073 55.0433 36.5395 55.3175 36.7073C55.5917 36.8751 55.8952 36.9576 56.2294 36.9576C56.593 36.9576 56.917 36.8826 57.2029 36.7343C57.4888 36.5845 57.7029 36.3747 57.8466 36.1005L58.1588 36.3013C57.9858 36.6174 57.7278 36.8661 57.3862 37.049C57.0431 37.2318 56.6546 37.3232 56.2206 37.3232C55.8219 37.3232 55.4568 37.2228 55.1254 37.022L55.124 37.0205ZM57.8715 34.6395C57.8539 34.3474 57.7703 34.0836 57.6208 33.8454C57.4712 33.6087 57.2733 33.4214 57.027 33.285C56.7792 33.1487 56.5065 33.0797 56.2089 33.0797C55.7617 33.0797 55.3762 33.2236 55.0521 33.5128C54.7267 33.802 54.5258 34.178 54.4496 34.6395H57.8729H57.8715Z" fill="#00007C"/>
<path d="M59.7752 33.5892C59.9233 33.3285 60.152 33.1172 60.4584 32.9599C60.7649 32.8026 61.0947 32.7231 61.4466 32.7231C61.7985 32.7231 62.1093 32.8041 62.3805 32.9644C62.6518 33.1247 62.8614 33.354 63.0109 33.6491C63.1605 33.9443 63.2338 34.283 63.2338 34.6666V37.2303H62.8409V34.7025C62.8409 34.2215 62.7075 33.8349 62.4392 33.5398C62.1709 33.2446 61.8234 33.0977 61.3938 33.0977C61.0537 33.0977 60.737 33.1831 60.4423 33.3525C60.1476 33.5233 59.9248 33.748 59.7767 34.0282V37.2303H59.3926V32.8145H59.7767V33.5907L59.7752 33.5892Z" fill="#00007C"/>
<path d="M65.0607 36.8648C64.8012 36.5966 64.6721 36.2295 64.6721 35.7605V33.1787H63.7969V32.8131H64.6721V31.5635H65.0651V32.8131H66.3435V33.1787H65.0651V35.7515C65.0651 36.1096 65.1618 36.3913 65.3554 36.5951C65.5489 36.7988 65.7981 36.9007 66.1016 36.9007C66.191 36.9007 66.2746 36.8917 66.3523 36.8738L66.3787 37.2214C66.2775 37.2514 66.1764 37.2663 66.0752 37.2663C65.6588 37.2663 65.3202 37.133 65.0607 36.8648Z" fill="#00007C"/>
<path d="M67.8213 31.0901C67.8902 31.1576 67.9239 31.2355 67.9239 31.3269C67.9239 31.4243 67.8902 31.5067 67.8213 31.5741C67.7524 31.6415 67.6747 31.6745 67.5853 31.6745C67.4841 31.6745 67.4005 31.6415 67.3346 31.5741C67.2686 31.5067 67.2363 31.4243 67.2363 31.3269C67.2363 31.2355 67.27 31.1561 67.339 31.0901C67.4079 31.0227 67.4885 30.9897 67.5853 30.9897C67.6747 30.9897 67.7539 31.0227 67.8213 31.0901ZM67.7729 32.8148V37.2305H67.38V32.8148H67.7729Z" fill="#00007C"/>
<path d="M73.1257 37.2303H72.7416V36.4736C72.5979 36.7104 72.3736 36.9111 72.0672 37.076C71.7608 37.2408 71.4426 37.3217 71.1157 37.3217C70.6993 37.3217 70.3211 37.2213 69.9853 37.0205C69.6481 36.8197 69.3842 36.5425 69.1907 36.1904C68.9972 35.8383 68.9004 35.4457 68.9004 35.0127C68.9004 34.5796 68.9972 34.1991 69.1907 33.8499C69.3842 33.5008 69.6496 33.2251 69.9853 33.0243C70.3211 32.8235 70.6978 32.7231 71.1157 32.7231C71.45 32.7231 71.771 32.8056 72.0804 32.9689C72.3897 33.1337 72.6111 33.3345 72.7416 33.5712V32.8145H73.1257V37.2303ZM69.5294 36.0031C69.6936 36.2983 69.9179 36.529 70.2038 36.6969C70.4897 36.8647 70.8078 36.9471 71.1597 36.9471C71.4749 36.9471 71.7828 36.8602 72.0804 36.6864C72.378 36.5126 72.5979 36.2953 72.7416 36.0346V34.0088C72.6038 33.7405 72.3853 33.5203 72.0848 33.348C71.7842 33.1742 71.4764 33.0873 71.1597 33.0873C70.8078 33.0873 70.4897 33.1712 70.2038 33.3375C69.9179 33.5053 69.6936 33.7346 69.5294 34.0267C69.3651 34.3189 69.2845 34.6471 69.2845 35.0112C69.2845 35.3753 69.3666 35.7064 69.5294 36.0016V36.0031Z" fill="#00007C"/>
<path d="M74.93 37.2304H74.5371V30.8442H74.93V37.2304Z" fill="#00007C"/>
<path d="M76.9522 32.7893V31.0032H76.3145V30.8608H77.7395V31.0032H77.1018V32.7893H76.9537H76.9522ZM78.0943 30.8608H78.2468L79.0473 32.554L79.8434 30.8608H80.0003V32.7893H79.8522V31.201L79.1103 32.7893H78.9886L78.2424 31.201V32.7893H78.0943V30.8608Z" fill="#00007C"/>
</g>
<defs>
<clipPath id="clip0_582_8167">
<rect width="80" height="39" fill="white"/>
</clipPath>
</defs>
</svg>
