<svg width="148" height="40" viewBox="0 0 148 40" fill="none" xmlns="http://www.w3.org/2000/svg">
<path d="M0 11.3037V28.6961H4.22164V11.3037H0Z" fill="black"/>
<path d="M8.4375 11.3037V28.6961H12.4581V19.0759C12.4581 18.637 12.4498 18.1982 12.433 17.7594C12.4162 17.3037 12.3995 16.8733 12.3827 16.4683C12.3827 16.0463 12.3744 15.7088 12.3576 15.4556H12.5586C12.6424 15.7088 12.7429 16.0294 12.8602 16.4176C12.9775 16.8058 13.1031 17.2109 13.2371 17.6328C13.3879 18.0379 13.5386 18.4261 13.6894 18.7974L17.6598 28.6961H21.605L25.5502 18.7974C25.6675 18.4936 25.7931 18.1307 25.9271 17.7088C26.0779 17.2868 26.2203 16.8733 26.3543 16.4683C26.4884 16.0463 26.5973 15.7088 26.681 15.4556H26.882C26.8653 15.7088 26.8486 16.0463 26.8318 16.4683C26.815 16.8733 26.7983 17.3121 26.7815 17.7847V28.6961H31.0032V11.3037H24.5953L21.2532 19.81C21.1359 20.1645 20.9852 20.5864 20.8009 21.0759L20.2983 22.4936C20.1475 22.9661 20.0135 23.3797 19.8962 23.7341H19.6952C19.5612 23.329 19.4104 22.8819 19.2429 22.3923C19.0754 21.886 18.9079 21.3964 18.7403 20.924C18.5728 20.4514 18.4304 20.0716 18.3131 19.7847L14.971 11.3037H8.4375Z" fill="black"/>
<path d="M35.2031 11.3037V28.6961H39.2237V19.0759C39.2237 18.637 39.2153 18.1982 39.1986 17.7594C39.1816 17.3037 39.165 16.8733 39.1483 16.4683C39.1483 16.0463 39.1399 15.7088 39.1232 15.4556H39.3242C39.4078 15.7088 39.5083 16.0294 39.6258 16.4176C39.743 16.8058 39.8686 17.2109 40.0027 17.6328C40.1535 18.0379 40.3043 18.4261 40.455 18.7974L44.4254 28.6961H48.3706L52.3158 18.7974C52.433 18.4936 52.5586 18.1307 52.6928 17.7088C52.8435 17.2868 52.9858 16.8733 53.12 16.4683C53.2538 16.0463 53.3628 15.7088 53.4466 15.4556H53.6477C53.6307 15.7088 53.6141 16.0463 53.5974 16.4683C53.5804 16.8733 53.5638 17.3121 53.5472 17.7847V28.6961H57.7688V11.3037H51.3609L48.0188 19.81C47.9013 20.1645 47.7506 20.5864 47.5665 21.0759L47.0639 22.4936C46.9131 22.9661 46.779 23.3797 46.6619 23.7341H46.4608C46.3267 23.329 46.1759 22.8819 46.0085 22.3923C45.8408 21.886 45.6734 21.3964 45.5059 20.924C45.3382 20.4514 45.1959 20.0716 45.0787 19.7847L41.7366 11.3037H35.2031Z" fill="black"/>
<path d="M61.9766 11.3037V28.6961H79.0641V25.3037H66.1982V21.5316H77.4056V18.1898H66.1982V14.6961H78.8631V11.3037H61.9766Z" fill="black"/>
<path fill-rule="evenodd" clip-rule="evenodd" d="M82.5195 11.3037V28.6961H86.7412V22.5949H93.727L96.7676 28.6961H101.517L97.9235 21.8607C98.9789 21.3543 99.7664 20.6539 100.286 19.7594C100.805 18.8649 101.065 17.8775 101.065 16.7974C101.065 15.7847 100.864 14.8649 100.461 14.0379C100.059 13.2109 99.4563 12.5526 98.6522 12.0632C97.8481 11.5569 96.8178 11.3037 95.5614 11.3037H82.5195ZM94.4306 19.2531H86.7412V14.6708H94.4306C94.9165 14.6708 95.3271 14.7636 95.6619 14.9493C96.0137 15.118 96.2819 15.3712 96.466 15.7088C96.6504 16.0294 96.7424 16.4261 96.7424 16.8986C96.7424 17.6075 96.5332 18.1813 96.1142 18.6202C95.7122 19.0421 95.1511 19.2531 94.4306 19.2531Z" fill="black"/>
<path fill-rule="evenodd" clip-rule="evenodd" d="M108.758 27.962C110.367 28.6541 112.268 29 114.463 29C116.691 29 118.6 28.6541 120.192 27.962C121.8 27.2699 123.04 26.2573 123.911 24.9241C124.782 23.5737 125.218 21.9367 125.218 20.0127C125.218 18.0548 124.782 16.4093 123.911 15.0759C123.04 13.7426 121.8 12.7299 120.192 12.038C118.6 11.346 116.691 11 114.463 11C112.268 11 110.367 11.346 108.758 12.038C107.15 12.7299 105.91 13.7426 105.039 15.0759C104.185 16.4093 103.758 18.0548 103.758 20.0127C103.758 21.9367 104.185 23.5737 105.039 24.9241C105.91 26.2573 107.15 27.2699 108.758 27.962ZM117.051 25.2785C116.28 25.4978 115.426 25.6076 114.488 25.6076C113.533 25.6076 112.662 25.4978 111.874 25.2785C111.104 25.0421 110.434 24.7047 109.864 24.2658C109.294 23.8101 108.859 23.2532 108.557 22.5949C108.256 21.9199 108.105 21.1519 108.105 20.2911V19.6582C108.105 18.8143 108.256 18.0633 108.557 17.4051C108.859 16.7299 109.294 16.173 109.864 15.7342C110.434 15.2953 111.104 14.9662 111.874 14.7468C112.662 14.5105 113.533 14.3924 114.488 14.3924C115.426 14.3924 116.28 14.5105 117.051 14.7468C117.838 14.9662 118.517 15.2953 119.086 15.7342C119.656 16.173 120.092 16.7299 120.393 17.4051C120.711 18.0633 120.871 18.8143 120.871 19.6582V20.2911C120.871 21.1519 120.711 21.9199 120.393 22.5949C120.092 23.2532 119.656 23.8101 119.086 24.2658C118.517 24.7047 117.838 25.0421 117.051 25.2785Z" fill="black"/>
<path d="M128.648 11.3037V28.6961H132.87V24.5189L136.966 21.1265L142.721 28.6961H147.998L140.032 18.4936L147.822 11.3037H142.444L132.87 20.0632V11.3037H128.648Z" fill="black"/>
</svg>
