<?xml version="1.0" standalone="no"?>
<!DOCTYPE svg PUBLIC "-//W3C//DTD SVG 20010904//EN"
 "http://www.w3.org/TR/2001/REC-SVG-20010904/DTD/svg10.dtd">
<svg version="1.0" xmlns="http://www.w3.org/2000/svg"
 width="198.000000pt" height="297.000000pt" viewBox="0 0 198.000000 297.000000"
 preserveAspectRatio="xMidYMid meet">
<metadata>
Created by potrace 1.10, written by Peter Selinger 2001-2011
</metadata>
<g transform="translate(0.000000,297.000000) scale(0.050000,-0.050000)"
fill="#000000" stroke="none">
<path d="M559 5703 c-93 -75 -22 -263 99 -263 70 0 142 77 142 151 0 131 -139
195 -241 112z"/>
<path d="M1520 5302 c-28 -9 -79 -31 -115 -49 -63 -33 -65 -33 -65 6 0 38 -12
41 -200 41 l-200 0 0 -122 0 -121 85 6 85 7 0 -435 0 -435 163 0 c90 0 178 -5
195 -12 27 -10 32 7 32 110 l0 122 -80 0 -80 0 0 269 0 268 59 42 c32 23 96
55 142 71 194 69 199 58 199 -456 l0 -424 190 0 190 0 0 115 0 115 -75 0 -75
0 0 349 c0 381 -6 401 -135 498 -58 43 -231 63 -315 35z"/>
<path d="M400 5185 l0 -115 82 0 81 0 4 -438 3 -438 200 2 200 1 6 112 6 111
-91 0 -91 0 0 440 0 440 -200 0 -200 0 0 -115z"/>
<path d="M900 4062 c-569 -201 -421 -1122 180 -1122 221 0 500 209 500 374 0
35 -185 111 -201 82 -79 -139 -114 -178 -186 -206 -275 -110 -510 204 -375
502 115 252 467 226 497 -38 l10 -94 108 0 107 0 0 226 0 225 -82 -8 c-58 -5
-105 5 -157 34 -111 62 -268 72 -401 25z"/>
<path d="M1975 4051 c-300 -106 -450 -434 -336 -732 164 -432 653 -519 973
-174 l111 120 -76 79 -77 78 -89 -104 c-140 -163 -305 -203 -464 -114 -105 59
-113 52 292 284 198 113 362 214 365 225 14 40 -222 273 -323 320 -115 53
-259 60 -376 18z m273 -219 c102 -43 102 -65 -3 -124 -52 -30 -161 -93 -241
-141 -184 -110 -193 -110 -177 5 29 211 235 338 421 260z"/>
<path d="M3145 4032 c-100 -48 -105 -48 -105 -11 0 36 -15 39 -200 39 l-200 0
0 -110 0 -110 92 0 92 0 -7 -440 -7 -440 195 0 195 0 0 110 0 110 -80 0 -80 0
0 267 c0 291 1 293 131 359 247 125 269 90 269 -427 l0 -419 195 0 195 0 -7
110 -7 110 -73 0 -73 0 0 349 c0 320 -3 352 -41 403 -113 151 -297 189 -484
100z"/>
<path d="M1149 2831 c-97 -97 -36 -239 101 -239 86 0 150 60 150 141 0 64 -85
147 -150 147 -28 0 -74 -22 -101 -49z"/>
<path d="M573 2650 l13 -110 -93 0 -93 0 0 -115 0 -115 90 7 90 7 0 -391 c0
-500 38 -557 335 -507 l105 17 0 116 0 117 -75 -18 c-144 -33 -135 -54 -135
322 l0 340 175 0 175 0 0 -440 0 -440 200 0 200 0 0 110 0 110 -80 0 -80 0 0
440 0 440 -299 0 -298 0 11 110 12 110 -133 0 -133 0 13 -110z"/>
<path d="M3060 2520 c-556 -258 -372 -1099 241 -1100 168 0 297 61 437 209
121 129 121 125 31 212 l-71 69 -93 -108 c-137 -159 -284 -202 -436 -130 -139
66 -137 68 270 303 l380 219 -95 117 c-186 231 -442 312 -664 209z m366 -229
l54 -36 -253 -147 c-288 -168 -287 -168 -287 -92 0 236 292 402 486 275z"/>
<path d="M1520 2431 l0 -109 93 -6 93 -6 169 -445 170 -445 94 0 95 0 161 445
161 445 92 6 92 6 0 109 0 109 -168 0 -168 0 -122 -331 c-67 -182 -122 -344
-122 -360 0 -76 -38 -7 -122 221 l-92 250 57 0 c56 0 57 2 57 110 l0 110 -270
0 -270 0 0 -109z"/>
<path d="M3136 1293 c-435 -121 -556 -635 -227 -964 244 -245 550 -226 821 50
l119 121 -80 80 -80 81 -73 -98 c-134 -180 -320 -226 -490 -120 -92 56 -103
46 281 262 190 107 361 206 379 220 31 23 23 38 -86 158 -179 199 -361 266
-564 210z m265 -244 c78 -40 75 -53 -26 -108 -47 -26 -160 -91 -251 -146 -188
-112 -194 -111 -175 13 31 212 266 338 452 241z"/>
<path d="M1410 1268 c-138 -53 -152 -55 -146 -26 5 22 -37 29 -199 34 l-205 5
0 -123 0 -123 90 12 90 12 0 -444 0 -445 195 3 195 2 6 113 6 112 -86 0 -86 0
3 275 3 275 125 65 c251 131 261 115 258 -421 l-2 -421 116 0 117 0 -7 379 -7
380 79 54 c281 195 332 131 322 -411 l-7 -400 195 -2 195 -3 0 115 0 115 -80
0 -80 0 0 345 c0 399 -16 448 -165 516 -135 61 -346 28 -454 -71 -33 -29 -40
-27 -98 27 -93 87 -229 106 -373 51z"/>
<path d="M540 304 l0 -137 115 3 115 4 6 133 6 133 -121 0 -121 0 0 -136z"/>
</g>
</svg>
