<svg width="28" height="42" viewBox="0 0 28 42" fill="none" xmlns="http://www.w3.org/2000/svg">
<g clip-path="url(#clip0_442_6227)">
<path d="M3.98865 1.2655C3.30992 1.80134 3.82809 3.14453 4.71118 3.14453C5.22206 3.14453 5.74753 2.5944 5.74753 2.06569C5.74753 1.12975 4.73307 0.672495 3.98865 1.2655Z" fill="black"/>
<path d="M11.0023 4.13057C10.7979 4.19487 10.4257 4.35205 10.163 4.48065C9.70318 4.71642 9.68858 4.71642 9.68858 4.43778C9.68858 4.16629 9.601 4.14485 8.22894 4.14485H6.76929V5.0165V5.881L7.38964 5.83813L8.00999 5.78812V8.89602V12.0039H9.1996C9.85644 12.0039 10.4987 12.0397 10.6228 12.0897C10.8198 12.1611 10.8563 12.0397 10.8563 11.3038V10.4321H10.2724H9.68858V8.51021V6.59546L10.1192 6.29538C10.3527 6.13106 10.8198 5.90243 11.1555 5.78812C12.5714 5.29514 12.6079 5.37373 12.6079 9.04606V12.0754H13.9945H15.3812V11.2537V10.4321H14.8338H14.2865V7.93865C14.2865 5.21655 14.2427 5.07365 13.3012 4.38063C12.8779 4.07341 11.6153 3.93052 11.0023 4.13057Z" fill="black"/>
<path d="M2.82837 4.96656V5.78819H3.42682H4.01798L4.04718 8.91753L4.06907 12.0469L5.52872 12.0326L6.98837 12.0254L7.03216 11.2252L7.07595 10.4322H6.41181H5.74767V7.28856V4.14493H4.28802H2.82837V4.96656Z" fill="black"/>
<path d="M6.4774 12.9901C2.3247 14.4262 3.40484 21.0063 7.79108 21.0063C9.404 21.0063 11.4402 19.5131 11.4402 18.3343C11.4402 18.0842 10.09 17.5412 9.97326 17.7484C9.3967 18.7415 9.14126 19.0201 8.61579 19.2202C6.60877 20.0061 4.89368 17.7627 5.87895 15.6336C6.71824 13.8332 9.28722 14.0189 9.50617 15.9051L9.57915 16.5767H10.3674H11.1483V14.962V13.3545L10.5498 13.4116C10.1265 13.4473 9.7835 13.3759 9.404 13.1687C8.59389 12.7257 7.44807 12.6543 6.4774 12.9901Z" fill="black"/>
<path d="M14.323 13.0685C12.1335 13.8258 11.0388 16.1693 11.8708 18.2984C13.0677 21.3848 16.6365 22.0064 18.9719 19.5415L19.7821 18.6842L19.2274 18.1197L18.6654 17.5625L18.0159 18.3055C16.9941 19.4701 15.7899 19.7559 14.6295 19.12C13.8632 18.6985 13.8048 18.7485 16.7606 17.0909C18.2056 16.2836 19.4025 15.562 19.4244 15.4834C19.5266 15.1976 17.8042 13.5329 17.0671 13.1971C16.2278 12.8184 15.1769 12.7684 14.323 13.0685ZM16.3154 14.6332C17.0598 14.9404 17.0598 15.0976 16.2935 15.5191C15.914 15.7334 15.1185 16.1835 14.5346 16.5265C13.1917 17.3124 13.1261 17.3124 13.2428 16.4908C13.4545 14.9833 14.9579 14.0759 16.3154 14.6332Z" fill="black"/>
<path d="M22.8621 13.2043C22.1323 13.5472 22.0958 13.5472 22.0958 13.2828C22.0958 13.0256 21.9863 13.0042 20.6362 13.0042H19.1765V13.7901V14.576H19.848H20.5194L20.4683 17.7197L20.4172 20.8633H21.8404H23.2635V20.0774V19.2915H22.6797H22.0958V17.3839C22.0958 15.3048 22.1031 15.2905 23.0519 14.8189C24.8545 13.9259 25.0151 14.1759 25.0151 17.8697V20.8633H26.4383H27.8614L27.8103 20.0774L27.7592 19.2915H27.2265H26.6937V16.798C26.6937 14.5117 26.6718 14.2831 26.3945 13.9187C25.5698 12.8399 24.2269 12.5684 22.8621 13.2043Z" fill="black"/>
<path d="M8.29472 21.7851C7.58679 22.4781 8.03198 23.4927 9.03184 23.4927C9.65949 23.4927 10.1266 23.064 10.1266 22.4853C10.1266 22.028 9.50623 21.435 9.03184 21.435C8.82749 21.435 8.49177 21.5922 8.29472 21.7851Z" fill="black"/>
<path d="M4.09096 23.0781L4.18584 23.864H3.50711H2.82837V24.6857V25.5073L3.48521 25.4573L4.14205 25.4073V28.2008C4.14205 31.7731 4.41939 32.1804 6.58696 31.8231L7.35328 31.7017V30.8729V30.037L6.80591 30.1656C5.75496 30.4013 5.82065 30.5514 5.82065 27.865V25.4358H7.09784H8.37503V28.5795V31.7231H9.83468H11.2943V30.9372V30.1513H10.7105H10.1266V27.0077V23.864H7.94444H5.76956L5.84984 23.0781L5.93742 22.2922H4.96675H3.99609L4.09096 23.0781Z" fill="black"/>
<path d="M22.2419 24.0071C18.1841 25.8504 19.5269 31.8591 24.0007 31.8662C25.2269 31.8662 26.1683 31.4304 27.1901 30.373C28.0732 29.4513 28.0732 29.4799 27.4163 28.8583L26.8982 28.3654L26.2194 29.137C25.2196 30.273 24.1467 30.5802 23.0374 30.0658C22.0229 29.5942 22.0375 29.5799 25.0079 27.901L27.7812 26.3363L27.0879 25.5004C25.7304 23.85 23.8621 23.2712 22.2419 24.0071ZM24.913 25.6433L25.3071 25.9005L23.4607 26.9507C21.3588 28.151 21.3661 28.151 21.3661 27.608C21.3661 25.9219 23.4972 24.7359 24.913 25.6433Z" fill="black"/>
<path d="M11.0024 24.643V25.4218L11.6812 25.4646L12.3599 25.5075L13.5933 28.6869L14.834 31.8662H15.5201H16.2134L17.3884 28.6869L18.5634 25.5075L19.2349 25.4646L19.9063 25.4218V24.643V23.8642H18.6802H17.4541L16.5637 26.2291C16.0747 27.5294 15.6733 28.6869 15.6733 28.8012C15.6733 29.3442 15.396 28.8512 14.7829 27.2222L14.1115 25.4361H14.5275C14.9362 25.4361 14.9435 25.4218 14.9435 24.6502V23.8642H12.973H11.0024V24.643Z" fill="black"/>
<path d="M22.7963 32.7735C19.6216 33.638 18.7385 37.3103 21.1396 39.6609C22.9204 41.4113 25.1537 41.2756 27.1315 39.3037L28 38.4392L27.4161 37.8676L26.8323 37.2889L26.2995 37.9891C25.3215 39.2751 23.9641 39.6037 22.7234 38.8464C22.0519 38.4463 21.9716 38.5178 24.7742 36.9745C26.1608 36.21 27.4088 35.5027 27.5402 35.4027C27.7665 35.2384 27.7081 35.1312 26.9126 34.2739C25.6062 32.8521 24.2779 32.3734 22.7963 32.7735ZM24.7304 34.5168C25.2996 34.8026 25.2778 34.8954 24.5406 35.2884C24.1976 35.4742 23.3729 35.9386 22.7088 36.3315C21.3367 37.1317 21.2929 37.1246 21.4316 36.2386C21.6578 34.724 23.3729 33.8237 24.7304 34.5168Z" fill="black"/>
<path d="M10.1996 32.9521C9.19242 33.3308 9.09025 33.345 9.13404 33.1378C9.17053 32.9807 8.864 32.9307 7.68169 32.8949L6.18555 32.8592V33.738V34.6168L6.84239 34.531L7.49923 34.4453V37.6175V40.7969L8.92239 40.7754L10.3455 40.7612L10.3893 39.9538L10.4331 39.1536H9.80547H9.17783L9.19972 37.1888L9.22161 35.2241L10.1339 34.7597C11.9658 33.8237 12.0387 33.938 12.0168 37.7676L12.0022 40.7754H12.8488H13.7027L13.6516 38.0676L13.6006 35.3527L14.1771 34.9669C16.2279 33.5737 16.6001 34.0309 16.5272 37.9033L16.4761 40.7612L17.8992 40.7754L19.3224 40.7969V39.9752V39.1536H18.7385H18.1547V36.6887C18.1547 33.838 18.0379 33.4879 16.9505 33.0021C15.9652 32.5663 14.4253 32.8021 13.637 33.5094C13.3962 33.7166 13.3451 33.7023 12.9218 33.3165C12.2431 32.6949 11.2505 32.5591 10.1996 32.9521Z" fill="black"/>
<path d="M3.8501 39.8395V40.8184L4.6894 40.7969L5.52869 40.7683L5.57248 39.8181L5.61627 38.8679H4.73318H3.8501V39.8395Z" fill="black"/>
</g>
<defs>
<clipPath id="clip0_442_6227">
<rect width="28" height="42" fill="white"/>
</clipPath>
</defs>
</svg>
