<svg width="156" height="40" viewBox="0 0 156 40" fill="none" xmlns="http://www.w3.org/2000/svg">
<path fill-rule="evenodd" clip-rule="evenodd" d="M0 11.3135H5.29471V14.7875H0V11.3135ZM0 16.3802H5.29471V29.699H0V16.3802ZM8.32957 16.3802H13.26V18.5498C13.9972 17.6636 14.7431 17.0303 15.4976 16.6498C16.2521 16.2694 17.1714 16.0792 18.2555 16.0792C19.7212 16.0792 20.8682 16.4993 21.6965 17.3396C22.5247 18.1799 22.9388 19.4779 22.9388 21.2337V29.699H17.6181V22.3749C17.6181 21.5388 17.4576 20.9473 17.1368 20.6003C16.8159 20.2534 16.3649 20.0799 15.7838 20.0799C15.142 20.0799 14.6217 20.314 14.2227 20.7822C13.8238 21.2504 13.6243 22.0906 13.6243 23.303V29.699H8.32957V16.3802ZM31.6457 16.3802H34.1694V20.1175H31.6457V29.699H26.3379V20.1175H24.3605V16.3802H26.3379V15.7782C26.3379 15.2348 26.3986 14.637 26.5201 13.9848C26.6415 13.3327 26.8691 12.7997 27.203 12.3858C27.5369 11.9719 28.0053 11.6375 28.608 11.3825C29.2108 11.1275 30.0932 11 31.2554 11C32.1834 11 33.532 11.1045 35.3012 11.3135L34.7158 14.3987C34.0827 14.2983 33.571 14.2482 33.1807 14.2482C32.7037 14.2482 32.3612 14.3255 32.153 14.4802C31.9449 14.6349 31.7974 14.8794 31.7107 15.2139C31.6673 15.3978 31.6457 15.7866 31.6457 16.3802ZM34.6675 23.0772C34.6675 21.0455 35.3787 19.3713 36.801 18.0545C38.2233 16.7376 40.1443 16.0792 42.564 16.0792C45.3307 16.0792 47.4208 16.8526 48.8344 18.3993C49.9706 19.6451 50.5386 21.1793 50.5386 23.002C50.5386 25.0504 49.834 26.7288 48.4247 28.0373C47.0153 29.3458 45.0661 30 42.5771 30C40.3568 30 38.5616 29.4566 37.1913 28.3696C35.5088 27.0235 34.6675 25.2594 34.6675 23.0772ZM39.9752 23.0647C39.9752 24.2519 40.2246 25.1298 40.7233 25.6983C41.2219 26.2669 41.8485 26.5512 42.6031 26.5512C43.3663 26.5512 43.9929 26.2711 44.4829 25.7109C44.9729 25.1507 45.2179 24.2519 45.2179 23.0145C45.2179 21.8607 44.9707 21.0017 44.4764 20.4373C43.982 19.8729 43.3706 19.5908 42.6421 19.5908C41.8702 19.5908 41.2328 19.8771 40.7298 20.4498C40.2267 21.0226 39.9752 21.8942 39.9752 23.0647ZM52.7799 16.3802H57.7234V18.3241C58.4346 17.5131 59.1522 16.9362 59.8764 16.5934C60.6006 16.2506 61.4744 16.0792 62.4978 16.0792C63.5992 16.0792 64.4708 16.2673 65.1126 16.6436C65.7544 17.0198 66.2791 17.58 66.6867 18.3241C67.5193 17.4546 68.2781 16.863 68.9633 16.5495C69.6484 16.236 70.494 16.0792 71.5001 16.0792C72.9831 16.0792 74.1409 16.5035 74.9735 17.3521C75.8061 18.2008 76.2224 19.528 76.2224 21.334V29.699H70.9147V22.1116C70.9147 21.5096 70.7932 21.0623 70.5504 20.7696C70.1948 20.3098 69.7525 20.0799 69.2235 20.0799C68.599 20.0799 68.096 20.2972 67.7144 20.732C67.3328 21.1668 67.142 21.8649 67.142 22.8264V29.699H61.8343V22.3624C61.8343 21.7771 61.7996 21.38 61.7302 21.171C61.6175 20.8365 61.4223 20.5669 61.1448 20.362C60.8673 20.1572 60.5421 20.0548 60.1691 20.0548C59.562 20.0548 59.0634 20.2763 58.6731 20.7195C58.2828 21.1626 58.0877 21.89 58.0877 22.9016V29.699H52.7799V16.3802ZM83.8625 20.6944L78.8019 20.1802C78.9927 19.3274 79.2681 18.6564 79.628 18.1673C79.9879 17.6782 80.5061 17.2539 81.1826 16.8944C81.6683 16.6352 82.3361 16.4345 83.186 16.2924C84.0359 16.1503 84.9552 16.0792 85.9439 16.0792C87.5311 16.0792 88.8059 16.1649 89.7686 16.3363C90.7313 16.5077 91.5335 16.8651 92.1753 17.4086C92.6263 17.7848 92.9819 18.3178 93.2421 19.0076C93.5022 19.6974 93.6323 20.3558 93.6323 20.9828V26.8647C93.6323 27.4918 93.6735 27.9829 93.7559 28.3383C93.8383 28.6936 94.0183 29.1472 94.2958 29.699H89.3263C89.1268 29.3562 88.9967 29.0949 88.936 28.9152C88.8753 28.7354 88.8146 28.4532 88.7539 28.0686C88.0601 28.7124 87.3706 29.1723 86.6855 29.4482C85.7488 29.8161 84.6604 30 83.4202 30C81.7723 30 80.5213 29.6321 79.667 28.8964C78.8128 28.1606 78.3856 27.2535 78.3856 26.1749C78.3856 25.1633 78.6935 24.3314 79.3093 23.6792C79.925 23.0271 81.0612 22.5421 82.7177 22.2244C84.7037 21.8398 85.9916 21.5702 86.5814 21.4155C87.1711 21.2608 87.7956 21.0581 88.4547 20.8073C88.4547 20.1802 88.3203 19.7413 88.0514 19.4904C87.7826 19.2396 87.3099 19.1142 86.6334 19.1142C85.7661 19.1142 85.1157 19.248 84.6821 19.5155C84.3438 19.7245 84.0706 20.1175 83.8625 20.6944ZM88.4547 23.3782C87.7262 23.629 86.9673 23.8506 86.1781 24.0429C85.1027 24.3188 84.4219 24.5905 84.1357 24.8581C83.8408 25.134 83.6934 25.4475 83.6934 25.7987C83.6934 26.2 83.8386 26.5282 84.1292 26.7832C84.4197 27.0382 84.8468 27.1657 85.4106 27.1657C86.0003 27.1657 86.5489 27.0277 87.0562 26.7518C87.5636 26.4759 87.9235 26.1394 88.136 25.7422C88.3485 25.3451 88.4547 24.8288 88.4547 24.1934V23.3782ZM96.459 16.3802H101.389V18.5498C102.127 17.6636 102.873 17.0303 103.627 16.6498C104.382 16.2694 105.301 16.0792 106.385 16.0792C107.851 16.0792 108.998 16.4993 109.826 17.3396C110.654 18.1799 111.068 19.4779 111.068 21.2337V29.699H105.748V22.3749C105.748 21.5388 105.587 20.9473 105.266 20.6003C104.945 20.2534 104.494 20.0799 103.913 20.0799C103.271 20.0799 102.751 20.314 102.352 20.7822C101.953 21.2504 101.754 22.0906 101.754 23.303V29.699H96.459V16.3802ZM114.077 11.3135H119.372V14.7875H114.077V11.3135ZM114.077 16.3802H119.372V29.699H114.077V16.3802ZM127.233 20.6944L122.173 20.1802C122.363 19.3274 122.639 18.6564 122.999 18.1673C123.359 17.6782 123.877 17.2539 124.553 16.8944C125.039 16.6352 125.707 16.4345 126.557 16.2924C127.407 16.1503 128.326 16.0792 129.315 16.0792C130.902 16.0792 132.177 16.1649 133.139 16.3363C134.102 16.5077 134.904 16.8651 135.546 17.4086C135.997 17.7848 136.352 18.3178 136.613 19.0076C136.873 19.6974 137.003 20.3558 137.003 20.9828V26.8647C137.003 27.4918 137.044 27.9829 137.127 28.3383C137.209 28.6936 137.389 29.1472 137.666 29.699H132.697C132.497 29.3562 132.367 29.0949 132.307 28.9152C132.246 28.7354 132.185 28.4532 132.125 28.0686C131.431 28.7124 130.741 29.1723 130.056 29.4482C129.119 29.8161 128.031 30 126.791 30C125.143 30 123.892 29.6321 123.038 28.8964C122.183 28.1606 121.756 27.2535 121.756 26.1749C121.756 25.1633 122.064 24.3314 122.68 23.6792C123.296 23.0271 124.432 22.5421 126.088 22.2244C128.074 21.8398 129.362 21.5702 129.952 21.4155C130.542 21.2608 131.166 21.0581 131.825 20.8073C131.825 20.1802 131.691 19.7413 131.422 19.4904C131.153 19.2396 130.681 19.1142 130.004 19.1142C129.137 19.1142 128.486 19.248 128.053 19.5155C127.714 19.7245 127.441 20.1175 127.233 20.6944ZM131.825 23.3782C131.097 23.629 130.338 23.8506 129.549 24.0429C128.473 24.3188 127.792 24.5905 127.506 24.8581C127.211 25.134 127.064 25.4475 127.064 25.7987C127.064 26.2 127.209 26.5282 127.5 26.7832C127.79 27.0382 128.217 27.1657 128.781 27.1657C129.371 27.1657 129.919 27.0277 130.427 26.7518C130.934 26.4759 131.294 26.1394 131.507 25.7422C131.719 25.3451 131.825 24.8288 131.825 24.1934V23.3782ZM139.83 11.3135H145.241V20.7947L149.196 16.3802H155.714L150.757 21.0455L156 29.699H150.029L147.232 24.3564L145.241 26.2376V29.699H139.83V11.3135Z" fill="#0098FF"/>
</svg>
