<svg width="112" height="40" viewBox="0 0 112 40" fill="none" xmlns="http://www.w3.org/2000/svg">
<g clip-path="url(#clip0_4519_20378)">
<path d="M0 6.99707H6.22184V33.0541H0V6.99707Z" fill="#004153"/>
<path d="M51.2208 33.0541V6.99707H44.999V22.9291L33.053 6.99707H30.3154H27.0801V22.9291L15.1839 6.99707H9.21094V33.0541H15.4328V17.1717L27.3289 33.0541H28.3742H31.9082H33.3517V17.1717L45.2479 33.0541H51.2208Z" fill="#004153"/>
<path d="M67.1509 12.4569C71.3817 12.4569 74.418 15.5341 74.418 20.001C74.418 24.4679 71.3817 27.5451 67.1509 27.5451C62.8703 27.5451 59.8838 24.4679 59.8838 20.001C59.8838 15.5341 62.92 12.4569 67.1509 12.4569ZM67.1509 6.50098C59.0874 6.50098 53.3633 12.2583 53.3633 20.001C53.3633 27.7436 59.0874 33.501 67.1509 33.501C75.2144 33.501 80.9385 27.7436 80.9385 20.001C80.9385 12.2583 75.2144 6.50098 67.1509 6.50098Z" fill="#004153"/>
<path d="M96.4712 12.4569C100.702 12.4569 103.738 15.5341 103.738 20.001C103.738 20.8447 103.639 21.6388 103.44 22.3833L102.593 21.2418H95.8241L99.9554 26.751C98.9599 27.2473 97.7653 27.5451 96.521 27.5451C92.2901 27.5451 89.2539 24.4679 89.2539 20.001C89.2041 15.5837 92.2403 12.4569 96.4712 12.4569ZM96.4712 6.50098C88.4077 6.50098 82.6836 12.2583 82.6836 20.001C82.6836 27.7436 88.4077 33.501 96.4712 33.501C99.2088 33.501 101.548 32.7565 103.539 31.4661L104.684 33.0047H112.001L107.87 27.4458C109.313 25.3613 110.159 22.9293 110.159 20.001C110.259 12.2583 104.535 6.50098 96.4712 6.50098Z" fill="#FF9C66"/>
</g>
<defs>
<clipPath id="clip0_4519_20378">
<rect width="112" height="40" fill="white" transform="translate(0 0.000976562)"/>
</clipPath>
</defs>
</svg>
