<svg width="182" height="40" viewBox="0 0 182 40" fill="none" xmlns="http://www.w3.org/2000/svg">
<g clip-path="url(#clip0_5125_27140)">
<path fill-rule="evenodd" clip-rule="evenodd" d="M32.4471 3.00098H10.8157L0 20.9892L10.8157 38.9774H32.4471L43.2631 20.9892L32.4471 3.00098ZM26.8854 12.2512H16.3776L11.1237 20.9892L16.3776 29.7273H26.8854L32.1392 20.9892L26.8854 12.2512Z" fill="#0078FB"/>
<path d="M18.4789 15.7402H24.7492L27.8844 20.9545L24.7492 26.1687H18.4789L15.3438 20.9545L18.4789 15.7402Z" fill="#737373"/>
<path d="M24.7546 26.1732L21.6598 20.959L18.4844 26.1732H24.7546Z" fill="#464646"/>
<path d="M24.7546 15.7402H18.4844L21.6598 20.9545L24.7546 15.7402Z" fill="#C7C7C7"/>
<path d="M24.7492 15.7402L21.6544 20.9545H27.9006L24.7492 15.7402ZM21.6544 20.9544L18.4789 15.7402L15.3438 20.9544H21.6544Z" fill="#989898"/>
<path d="M32.4407 38.9775L43.2566 20.9893H32.1327L26.8789 29.7274L32.4407 38.9775Z" fill="#0058FB"/>
<path d="M32.4407 38.9776L38.0026 29.7275H26.8789L32.4407 38.9776Z" fill="#0078FB"/>
<path d="M38.0252 12.2539H26.8789L32.1327 20.9919L38.0252 12.2539Z" fill="#4CBAFB"/>
<path d="M38.0292 12.2627L32.1367 20.9879H43.2606L38.0292 12.2627Z" fill="#9DDAFB"/>
<path d="M21.6328 38.9776L26.8867 29.7275L32.4484 38.9776H21.6328Z" fill="#0069E4"/>
<path d="M0 20.9893H11.1237L5.25386 29.7274H16.3776L21.7919 38.9775H10.8157L5.25386 29.7274L0 20.9893Z" fill="#0101D7"/>
<path fill-rule="evenodd" clip-rule="evenodd" d="M11.1237 20.9919L5.27446 12.2539L0 20.9919H11.1237L16.3776 29.73H5.27446L11.1237 20.9919Z" fill="#0035FB"/>
<path d="M26.8827 12.2512L21.7892 3.00098L16.375 12.2512H26.8827Z" fill="#0027FB"/>
<path d="M32.4407 3.00098L26.8789 12.2512H38.0252L32.4407 3.00098Z" fill="#37A0FB"/>
<path d="M116.486 21.9834H117.616L118.181 22.9176L117.616 23.8518H116.486L115.922 22.9176L116.486 21.9834Z" fill="#0101D7"/>
<path d="M59.1992 26.9241V15.4868H60.7175V26.9241H59.1992ZM74.6643 17.887C74.3831 17.5863 73.95 17.3124 73.3651 17.0655C72.7805 16.8184 72.1281 16.695 71.4084 16.695C70.4861 16.695 69.8059 16.8614 69.3671 17.1943C68.9287 17.5272 68.7093 17.9837 68.7093 18.5636C68.7093 18.9717 68.8217 19.2938 69.0467 19.5301C69.2718 19.7664 69.6146 19.9597 70.0758 20.11C70.548 20.2604 71.1442 20.4161 71.8639 20.5772C72.696 20.749 73.4159 20.9584 74.0232 21.2054C74.6306 21.4524 75.0971 21.7853 75.4232 22.2042C75.7495 22.6123 75.9124 23.1599 75.9124 23.8473C75.9124 24.5775 75.7211 25.1789 75.3389 25.6514C74.9566 26.124 74.4336 26.473 73.7701 26.6985C73.118 26.9241 72.3812 27.0368 71.5602 27.0368C69.6935 27.0368 68.0682 26.4999 66.6851 25.4259L67.4104 24.2017C67.6579 24.4379 67.9896 24.6742 68.4057 24.9105C68.833 25.1467 69.3166 25.3454 69.8564 25.5065C70.4075 25.6568 70.9867 25.732 71.594 25.732C72.4488 25.732 73.1123 25.587 73.5845 25.2971C74.0567 24.9964 74.2931 24.5614 74.2931 23.9922C74.2931 23.5627 74.158 23.219 73.8882 22.9613C73.6296 22.7035 73.2414 22.4888 72.7244 22.3169C72.207 22.1451 71.577 21.9733 70.8349 21.8014C70.0252 21.6081 69.3447 21.3987 68.7936 21.1732C68.2428 20.9369 67.8264 20.6309 67.5455 20.255C67.2756 19.8791 67.1405 19.3905 67.1405 18.7891C67.1405 18.0588 67.3261 17.4413 67.6973 16.9366C68.0682 16.4318 68.5799 16.0506 69.2323 15.7929C69.8845 15.5351 70.6212 15.4062 71.4422 15.4062C72.2408 15.4062 72.9661 15.5244 73.6183 15.7606C74.2818 15.9969 74.8667 16.3137 75.3727 16.711L74.6643 17.887ZM86.8161 27.0046C85.9727 27.0046 85.2079 26.8435 84.522 26.5213C83.8361 26.1992 83.2402 25.7642 82.7339 25.2165C82.2389 24.6581 81.8567 24.0352 81.5868 23.3479C81.3169 22.6499 81.1821 21.9357 81.1821 21.2054C81.1821 20.4429 81.3226 19.718 81.6038 19.0307C81.8961 18.3327 82.2954 17.7152 82.8014 17.1782C83.3188 16.6305 83.9204 16.2009 84.6063 15.8895C85.2922 15.5673 86.0403 15.4062 86.8499 15.4062C87.6936 15.4062 88.4582 15.5727 89.1444 15.9056C89.8303 16.2385 90.4205 16.6842 90.9155 17.2426C91.4104 17.8011 91.7927 18.4239 92.0625 19.1113C92.3324 19.7986 92.4675 20.502 92.4675 21.2215C92.4675 21.984 92.3267 22.7143 92.0458 23.4123C91.7646 24.0996 91.3653 24.7171 90.8479 25.2648C90.3419 25.8018 89.7457 26.226 89.0598 26.5374C88.3739 26.8489 87.6261 27.0046 86.8161 27.0046ZM82.7171 21.2054C82.7171 21.7853 82.8125 22.3492 83.0037 22.8968C83.2064 23.4338 83.4873 23.9117 83.8475 24.3305C84.2073 24.7493 84.6401 25.0823 85.1464 25.3293C85.6523 25.5763 86.2145 25.6998 86.8332 25.6998C87.4743 25.6998 88.0478 25.5709 88.5538 25.3132C89.0598 25.0554 89.4872 24.7118 89.8359 24.2822C90.1958 23.8526 90.4657 23.3694 90.6456 22.8324C90.8366 22.2954 90.9325 21.7531 90.9325 21.2054C90.9325 20.6255 90.8312 20.0671 90.6289 19.5301C90.4376 18.9931 90.1563 18.5152 89.7851 18.0964C89.4253 17.6668 88.9925 17.3339 88.4862 17.0977C87.9913 16.8507 87.4405 16.7272 86.8332 16.7272C86.1921 16.7272 85.6186 16.856 85.1126 17.1138C84.6063 17.3608 84.1735 17.6991 83.8137 18.1286C83.4649 18.5582 83.195 19.0415 83.0037 19.5784C82.8125 20.1046 82.7171 20.647 82.7171 21.2054ZM98.5014 15.4868L102.466 25.1038L106.413 15.4868H108.016L103.157 26.9241H101.774L96.8989 15.4868H98.5014ZM116.35 15.4868H117.632L122.524 26.9241H120.798L119.488 23.5734L116.991 17.1621L113.061 26.9241H111.441L116.35 15.4868ZM128.171 26.9241V15.4868H129.69V25.6354H136.37V26.9241H128.171ZM150.202 25.6354V26.9241H142.071V15.4868H150.05V16.7755H143.59V20.4805H149.207V21.6887H143.59V25.6354H150.202ZM157.852 18.1609V26.9241H156.334V15.4868H157.616L164.937 24.4272V15.5029H166.455V26.9241H165.072L157.852 18.1609ZM182 16.7755H177.868V26.9241H176.349V16.7755H172.216V15.4868H182V16.7755Z" fill="#0A0B0F"/>
</g>
<defs>
<clipPath id="clip0_5125_27140">
<rect width="182" height="40" fill="white" transform="translate(0 0.000976562)"/>
</clipPath>
</defs>
</svg>
