<?xml version="1.0" encoding="UTF-8" standalone="no"?>
<svg
   viewBox="0 0 355 84.5336"
   version="1.1"
   id="svg3"
   xmlns="http://www.w3.org/2000/svg"
   xmlns:svg="http://www.w3.org/2000/svg">
  <defs
     id="defs2">
    <linearGradient
       id="linear-gradient"
       x1="14.033"
       x2="14.033"
       y2="28.066"
       gradientUnits="userSpaceOnUse"
       y1="0">
      <stop
         offset="0"
         stop-color="#a841ff"
         id="stop1" />
      <stop
         offset="1"
         stop-color="#36a2ff"
         id="stop2" />
    </linearGradient>
  </defs>
  <g
     id="Group_189279"
     data-name="Group 189279"
     transform="matrix(0.98096162,0,0,0.97068778,-149.70217,-7732.1383)">
    <g
       id="g5"
       transform="translate(-18.971353,5.6573551)">
      <g
         id="Rectangle_26585"
         data-name="Rectangle 26585"
         transform="translate(175,7965)"
         fill="#ffffff"
         stroke="#707070"
         stroke-width="1"
         opacity="0"
         style="display:inline;opacity:1;mix-blend-mode:normal;fill:#241553;fill-opacity:1;stroke:#241553;stroke-opacity:1">
        <rect
           width="142.99001"
           height="72"
           stroke="none"
           id="rect2"
           x="0"
           y="0"
           style="opacity:1;fill:#241553;fill-opacity:1;stroke:#241553;stroke-opacity:1" />
        <rect
           x="57.414059"
           y="10.55752"
           width="141.99001"
           height="71"
           fill="none"
           id="rect3"
           style="opacity:1;fill:#241553;fill-opacity:1;stroke:#241553;stroke-opacity:1" />
        <rect
           x="-2.9210651"
           y="-4.5287604"
           width="202.32512"
           height="86.086288"
           fill="none"
           id="rect4"
           style="opacity:1;fill:#241553;fill-opacity:1;stroke:#241553;stroke-opacity:1" />
        <rect
           style="fill:#241553;fill-opacity:1;stroke:#241553;stroke-width:1.02479;stroke-opacity:1"
           id="rect5"
           width="9.0191689"
           height="0.3142975"
           x="190.65852"
           y="41.186035" />
      </g>
      <g
         id="_60b39746be1c3f7bfb3b03f2_group_9270"
         data-name="60b39746be1c3f7bfb3b03f2_group_9270"
         transform="translate(175,7972.45)">
        <path
           id="Path_39662"
           data-name="Path 39662"
           d="m 109.08581,13.432 v 24.975 a 10.658,10.658 0 0 1 -3.00601,8.071 11.158,11.158 0 0 1 -8.053008,2.879 11.5,11.5 0 0 1 -8.232,-2.955 10.8,10.8 0 0 1 -3.136,-8.257 h 7.137 a 5.688,5.688 0 0 0 1.096,3.567 3.7,3.7 0 0 0 3.03,1.276 3.632,3.632 0 0 0 2.955998,-1.223 5.1,5.1 0 0 0 1.019,-3.364 V 13.432 Z m 6.47301,21.358 a 16.344,16.344 0 0 1 1.707,-7.595 12.51,12.51 0 0 1 4.64101,-5.1 12.348,12.348 0 0 1 6.55001,-1.784 11.5,11.5 0 0 1 5.531,1.275 11.223,11.223 0 0 1 3.8,3.21 v -4.035 h 7.187 v 28.241 h -7.191 v -4.128 a 10.615,10.615 0 0 1 -3.8,3.287 11.618,11.618 0 0 1 -5.581,1.3 12,12 0 0 1 -6.50001,-1.834 12.843,12.843 0 0 1 -4.64101,-5.173 16.614,16.614 0 0 1 -1.707,-7.671 z m 22.22302,0.1 a 9.152,9.152 0 0 0 -1.019,-4.458 7.187,7.187 0 0 0 -2.741,-2.864 7.357,7.357 0 0 0 -3.721,-0.995 7.227,7.227 0 0 0 -3.67,0.969 7.292,7.292 0 0 0 -2.728,2.825 8.862,8.862 0 0 0 -1.045,4.409 9.154,9.154 0 0 0 1.042,4.456 7.524,7.524 0 0 0 2.752,2.934 6.991,6.991 0 0 0 3.644,1.019 7.357,7.357 0 0 0 3.726,-0.994 7.187,7.187 0 0 0 2.747,-2.859 9.152,9.152 0 0 0 1.015,-4.453 z m 21.305,-9.735 a 10.032,10.032 0 0 1 3.594,-3.517 9.994,9.994 0 0 1 5.073,-1.275 v 7.492 h -1.887 a 7.228,7.228 0 0 0 -5.073,1.58 7.284,7.284 0 0 0 -1.707,5.5 v 14.073 h -7.134 V 20.764 h 7.137 z"
           fill="#ffffff" />
        <g
           id="Group_134472"
           data-name="Group 134472"
           transform="translate(24.465791)">
          <path
             id="Path_39663"
             data-name="Path 39663"
             d="M 14.033,0 A 14.033,14.033 0 1 1 0,14.033 14.033,14.033 0 0 1 14.033,0 Z"
             transform="translate(9.552,17.83)"
             fill="url(#linear-gradient)"
             style="fill:url(#linear-gradient)" />
          <path
             id="Path_39664"
             data-name="Path 39664"
             d="m 515.041,466.846 c -0.274,-8.022 -5.246,-13.256 -13.317,-14 -6.182,-0.571 -10.656,2.175 -12.27,7.538 a 15.736,15.736 0 0 0 -0.623,3.792 c -0.123,2.547 -0.24,6.6 -0.3,9.555 -0.488,-0.329 -0.886,-0.6 -1.261,-0.885 a 2.78,2.78 0 0 0 -4.167,-0.016 2.826,2.826 0 0 0 0.478,4.255 c 2.183,2.009 4,3.656 5.714,5.182 1.9,1.7 3.281,1.027 3.932,0.464 2.661,-2.274 4.909,-4.352 6.876,-6.355 a 3.266,3.266 0 0 0 0.145,-3.258 2.364,2.364 0 0 0 -1.475,-1.2 2.706,2.706 0 0 0 -2.159,0.411 l -0.043,0.029 -2.151,1.592 -0.016,-0.536 a 75.89,75.89 0 0 1 0.079,-9.1 c 0.069,-0.686 0.169,-1.384 0.3,-2.07 a 5.028,5.028 0 0 1 0.337,-1.1 4.122,4.122 0 0 1 3.618,-2.43 14.8,14.8 0 0 1 4.5,0.246 7.08,7.08 0 0 1 6.15,6.778 c 0.258,8.191 0.256,15.478 0,22.28 a 6.874,6.874 0 0 1 -2.067,5.051 6.625,6.625 0 0 1 -5.05,1.875 c -6.81,0.205 -13.967,0.205 -21.271,0.012 a 6.618,6.618 0 0 1 -5.063,-1.829 6.867,6.867 0 0 1 -2.106,-5.03 c -0.3,-7.3 -0.3,-14.9 0,-22.593 0.149,-3.878 2.708,-6.346 7.022,-6.778 0.339,-0.033 0.68,-0.047 1.041,-0.062 a 14.794,14.794 0 0 0 1.534,-0.117 c 0.1,-0.014 0.2,-0.031 0.295,-0.051 a 0.8,0.8 0 0 0 0.228,-0.041 l 0.135,-0.047 a 3.624,3.624 0 0 0 0.749,-0.3 8.418,8.418 0 0 0 3.971,-3.683 9.11,9.11 0 0 0 -1.192,-10.008 0.8,0.8 0 0 0 -1.132,-0.111 l -4.086,3.432 a 0.832,0.832 0 0 0 -0.127,1.126 2.842,2.842 0 0 1 0.5,2.4 2.448,2.448 0 0 1 -1.943,1.518 q -0.319,0.021 -0.632,0.053 a 0.9,0.9 0 0 0 -0.1,0.012 12.932,12.932 0 0 0 -11.808,12.566 c -0.353,7.242 -0.353,14.888 0,22.73 a 12.407,12.407 0 0 0 3.473,8.82 11.969,11.969 0 0 0 8.613,3.663 c 3.822,0.205 7.6,0.31 11.3,0.31 3.765,0 7.466,-0.107 11.055,-0.318 7.494,-0.444 11.973,-5.18 12.288,-12.995 0.242,-6.917 0.262,-13.909 0.026,-20.777 z"
             transform="translate(-468.008,-444.111)"
             fill="#ffffff" />
        </g>
      </g>
    </g>
  </g>
</svg>
