<svg width="104" height="40" viewBox="0 0 104 40" fill="none" xmlns="http://www.w3.org/2000/svg">
<g clip-path="url(#clip0_4271_12277)">
<path d="M90.4842 6.22363C83.0005 6.22363 76.9688 12.1529 76.9688 19.5081C76.9688 26.8634 83.0005 32.7926 90.4842 32.7926C97.9673 32.7926 104 26.8634 104 19.5081C104 12.2279 97.8909 6.22363 90.4842 6.22363ZM90.4842 27.9892C85.7497 27.9892 81.9318 24.2365 81.9318 19.5832C81.9318 14.9299 85.7497 11.1772 90.4842 11.1772C95.2181 11.1772 99.036 14.9299 99.036 19.5832C99.036 24.1614 95.2181 27.9892 90.4842 27.9892Z" fill="#FBE859"/>
<path d="M41.6911 6.60043C41.233 6.22516 40.6221 6 40.0112 6C39.4003 6 38.7894 6.22516 38.3313 6.60043C37.7968 7.05075 37.5677 7.65118 37.5677 8.40172V20.7856C37.5677 25.7391 33.7498 27.9156 30.1609 27.9156C26.5721 27.9156 22.7542 25.664 22.7542 20.7856V8.47677C22.7542 7.80129 22.4487 7.20085 21.9906 6.75053C21.5324 6.37527 20.9215 6.15011 20.3107 6.15011C19.6998 6.15011 19.0889 6.37527 18.6308 6.75053C18.0963 7.20085 17.8672 7.80129 17.8672 8.47677V20.9357C17.8672 28.8163 24.1286 32.8692 30.2373 32.8692C33.368 32.8692 36.4987 31.7434 38.7131 29.8671C41.233 27.6905 42.6073 24.6133 42.6073 20.9357V8.40172C42.4546 7.65118 42.2256 7.05075 41.6911 6.60043Z" fill="#020034"/>
<path d="M70.472 6.22545C69.5557 6.22545 68.7921 6.67577 68.2576 7.50135L59.8581 20.4856L51.3823 7.50135C50.9242 6.67577 50.0842 6.15039 49.1679 6.15039C48.0225 6.15039 46.8008 7.05103 46.8008 8.70221V30.4677C46.8008 31.2183 47.1063 31.8187 47.5644 32.269C48.0225 32.6443 48.6334 32.8695 49.2443 32.8695C49.8551 32.8695 50.466 32.6443 50.9242 32.269C51.4587 31.8187 51.6878 31.2183 51.6878 30.4677V16.808L57.5673 25.8144C58.0255 26.64 58.8654 27.1654 59.7818 27.1654C60.6981 27.1654 61.538 26.64 61.9961 25.8144L67.8758 16.7329V30.3927C67.8758 31.1432 68.1812 31.7437 68.6394 32.1939C69.0975 32.5692 69.7084 32.7944 70.3193 32.7944C70.9301 32.7944 71.541 32.5692 71.9991 32.1939C72.5338 31.7437 72.763 31.1432 72.763 30.3927V8.62716C72.8394 7.27619 71.8464 6.22545 70.472 6.22545Z" fill="#020034"/>
<path d="M100.408 36.3227C100.408 35.0468 99.3387 33.9961 98.0409 33.9961C97.7353 33.9961 97.5062 34.0711 97.2006 34.1462C97.0486 34.2212 96.8958 34.2963 96.743 34.2963C94.7577 34.9717 92.6959 35.4221 90.4814 35.4221C88.3433 35.4221 86.2816 35.0468 84.3726 34.3714C84.1434 34.2963 83.9907 34.2212 83.7615 34.1462C83.4567 34.0711 83.2275 33.9961 82.922 33.9961C81.6241 33.9961 80.5547 35.0468 80.5547 36.3227C80.5547 37.2984 81.1658 38.124 82.0053 38.4242H82.0817C82.3109 38.4993 82.4636 38.5743 82.6928 38.6494C85.1365 39.55 87.7322 40.0004 90.4814 40.0004C93.2299 40.0004 95.8264 39.55 98.27 38.6494C98.4992 38.5743 98.7284 38.4993 98.9568 38.4242C99.7971 38.124 100.408 37.2984 100.408 36.3227Z" fill="#020034"/>
<path d="M13.3627 8.32695C13.2864 7.12609 12.2173 6.15039 10.9957 6.15039H10.843C9.85028 6.22544 8.93399 6.97598 8.7049 7.95168L8.62851 8.02673V23.0375C8.62851 26.1897 5.3451 28.3663 2.36712 28.3663C1.06902 28.3663 0 29.417 0 30.6929C0 31.9688 1.06902 33.0196 2.36712 33.0196C5.42146 33.0196 8.47581 31.7437 10.6139 29.7172C12.4464 27.9159 13.4391 25.5892 13.4391 23.1125V8.47705L13.3627 8.32695Z" fill="#020034"/>
</g>
<defs>
<clipPath id="clip0_4271_12277">
<rect width="104" height="40" fill="white"/>
</clipPath>
</defs>
</svg>
