<?xml version="1.0" encoding="UTF-8"?>
<svg xmlns="http://www.w3.org/2000/svg" xmlns:xlink="http://www.w3.org/1999/xlink" width="100px" height="139px" viewBox="0 0 387 179" version="1.1">
<g id="surface1">
<path style=" stroke:none;fill-rule:nonzero;fill:rgb(1.176471%,27.45098%,58.039216%);fill-opacity:1;" d="M 0.03125 0 L 386.96875 0 L 386.96875 179 L 0.03125 179 Z M 0.03125 0 "/>
<path style=" stroke:none;fill-rule:nonzero;fill:rgb(100%,100%,100%);fill-opacity:1;" d="M 130.710938 47.023438 L 130.710938 102.144531 C 130.710938 118.433594 119.214844 130.128906 102.824219 130.128906 C 94.378906 130.128906 85.035156 126.429688 78.390625 121.230469 L 88.484375 95.945312 C 89.984375 99.84375 91.730469 104.542969 96.378906 104.542969 C 101.175781 104.542969 101.578125 99.09375 101.578125 95.648438 L 101.578125 47.023438 Z M 130.710938 47.023438 "/>
<path style=" stroke:none;fill-rule:nonzero;fill:rgb(100%,100%,100%);fill-opacity:1;" d="M 168.9375 47.023438 L 178.035156 68.410156 L 178.882812 68.410156 C 179.734375 65.8125 180.53125 63.214844 181.582031 60.714844 L 187.429688 47.023438 L 220.910156 47.023438 L 192.925781 93.546875 L 192.925781 128.828125 L 163.839844 128.828125 L 163.839844 93.546875 L 135.308594 47.023438 Z M 168.9375 47.023438 "/>
<path style=" stroke:none;fill-rule:nonzero;fill:rgb(100%,100%,100%);fill-opacity:1;" d="M 223.609375 99.542969 L 225.105469 100.742188 C 230.40625 104.890625 236.800781 108.238281 243.648438 108.238281 C 246.59375 108.238281 251.242188 107.039062 251.242188 103.34375 C 251.242188 99.644531 247.34375 99.34375 244.644531 98.792969 L 238.699219 97.695312 C 227.105469 95.648438 217.3125 88.800781 217.3125 76.007812 C 217.3125 56.570312 235 45.722656 252.792969 45.722656 C 262.136719 45.722656 270.683594 48.023438 278.726562 52.871094 L 270.683594 73.808594 C 265.585938 70.359375 259.839844 67.613281 253.441406 67.613281 C 250.84375 67.613281 247.046875 68.613281 247.046875 71.960938 C 247.046875 75.007812 250.742188 75.40625 252.992188 75.957031 L 259.738281 77.457031 C 272.332031 80.253906 281.425781 87 281.425781 100.894531 C 281.425781 120.433594 263.636719 130.078125 245.945312 130.078125 C 235.652344 130.078125 223.707031 127.277344 214.464844 122.582031 Z M 223.609375 99.542969 "/>
<path style=" stroke:none;fill-rule:nonzero;fill:rgb(100%,100%,100%);fill-opacity:1;" d="M 290.269531 47.023438 L 319.253906 47.023438 L 318.605469 82.503906 L 319.253906 82.503906 C 319.90625 79.15625 321.753906 76.207031 323.351562 73.257812 L 337.695312 47.023438 L 370.125 47.023438 L 344.539062 86.851562 L 372.875 128.828125 L 338.394531 128.828125 L 324.300781 104.09375 C 322.554688 100.945312 319.953125 97.894531 319.304688 94.546875 L 318.65625 94.546875 L 319.304688 128.828125 L 290.320312 128.828125 L 290.320312 47.023438 Z M 290.269531 47.023438 "/>
<path style=" stroke:none;fill-rule:nonzero;fill:rgb(100%,100%,100%);fill-opacity:1;" d="M 28.867188 29.882812 C 27.667969 29.933594 26.617188 30.332031 25.867188 31.132812 C 25.117188 31.882812 24.71875 32.980469 24.769531 34.179688 C 24.820312 36.03125 25.820312 38.078125 27.46875 39.679688 C 30.316406 42.425781 34.0625 42.976562 36.0625 40.925781 C 36.8125 40.128906 37.164062 39.128906 37.164062 37.980469 C 37.164062 36.179688 36.210938 34.082031 34.464844 32.382812 C 32.816406 30.734375 30.714844 29.832031 28.867188 29.882812 Z M 34.464844 32.332031 Z M 34.464844 32.332031 "/>
<path style=" stroke:none;fill-rule:nonzero;fill:rgb(100%,100%,100%);fill-opacity:1;" d="M 40.558594 178.949219 C 41.761719 174.550781 42.109375 169.953125 42.109375 169.953125 C 42.257812 168.707031 42.359375 167.457031 42.410156 166.15625 C 43.160156 150.664062 37.613281 131.425781 26.167969 116.035156 C 14.574219 100.394531 7.230469 89.050781 7.230469 79.554688 C 7.230469 70.0625 14.175781 65.511719 19.074219 64.414062 C 24.019531 63.316406 36.960938 63.316406 41.660156 59.316406 C 46.308594 55.417969 48.957031 49.820312 48.40625 42.925781 C 47.90625 35.980469 46.207031 20.839844 22.769531 19.738281 C 14.523438 19.390625 5.878906 22.738281 0.03125 27.234375 L 0.03125 14.992188 C 5.378906 12.34375 13.425781 9.542969 23.667969 9.542969 C 43.007812 9.542969 51.902344 21.9375 51.902344 21.9375 C 51.902344 21.9375 63.398438 26.683594 71.394531 32.882812 C 79.4375 39.078125 85.984375 45.824219 86.535156 46.722656 C 87.085938 47.625 88.535156 51.121094 83.636719 52.71875 C 78.6875 54.371094 68.894531 56.167969 58.851562 56.167969 C 58.851562 56.167969 52.304688 67.863281 41.910156 71.460938 C 31.515625 75.109375 19.472656 71.609375 18.921875 81.105469 C 18.574219 87.652344 24.371094 95.496094 26.566406 98.59375 C 28.765625 101.691406 53.703125 126.53125 52.253906 164.609375 C 51.953125 172.804688 50.65625 178.898438 50.65625 178.898438 Z M 59.449219 46.574219 C 59.449219 46.574219 65.097656 47.324219 69.84375 47.472656 C 74.589844 47.671875 73.84375 45.472656 73.84375 45.472656 C 71.644531 43.675781 58.699219 36.378906 58.699219 36.378906 C 56.902344 41.078125 59.449219 46.574219 59.449219 46.574219 Z M 59.449219 46.574219 "/>
</g>
</svg>
