<svg width="211" height="47" viewBox="0 0 211 47" fill="none" xmlns="http://www.w3.org/2000/svg">
<g clip-path="url(#clip0_628_8102)">
<path d="M211.486 37.3091C211.486 40.6972 211.486 44.0854 211.486 47.4844C148.759 47.4844 86.0327 47.4844 23.151 47.3159C24.0696 46.931 25.1431 46.7145 26.3533 46.5013C26.7272 46.3941 26.9646 46.2839 27.368 46.1042C29.052 45.0345 30.5699 44.0341 32.2513 43.0853C33.7618 41.8462 35.1088 40.5554 36.4628 39.1666C36.4698 39.0684 36.4664 38.8717 36.6173 38.7903C37.6888 36.7989 38.6094 34.889 39.6519 32.8049C40.005 31.1179 40.2363 29.605 40.5327 28.028C40.497 27.8471 40.3962 27.7303 40.1714 27.6121C39.5333 27.6254 39.0193 27.6401 38.3616 27.6447C37.9648 27.7426 37.7116 27.8508 37.262 28.0176C35.9576 28.5921 34.8496 29.108 33.686 29.6922C33.5745 29.8693 33.5545 29.9841 33.664 30.2387C35.1334 31.1202 36.5092 31.8682 37.7574 32.7188C37.3079 32.8932 36.986 32.9649 36.4793 33.0512C34.9325 33.4373 32.7354 31.4711 32.3386 33.8809C33.2338 35.4933 33.8835 36.6635 34.3545 37.8744C32.8269 37.5652 31.0544 36.5104 30.2164 37.0107C28.4084 38.0899 30.7922 39.3506 30.6098 40.7377C30.3273 41.0131 30.1981 41.2039 29.9268 41.3109C28.5545 40.3465 27.7674 37.6826 25.513 40.1721C25.1509 39.3306 24.9643 38.5329 24.8732 37.6028C28.22 35.9549 30.2709 33.4309 31.356 29.9383C31.4758 29.699 31.5081 29.5435 31.6067 29.253C31.9323 27.8628 31.4236 27.2067 30.2752 27.0104C32.8901 26.7919 35.3655 26.7453 37.8387 26.6446C40.2912 26.5448 42.7414 26.3906 45.3579 26.2233C45.7474 26.1975 45.9718 26.2086 46.2823 26.3212C46.5618 26.3675 46.7551 26.3121 46.9484 26.2567C46.668 26.0753 46.3875 25.8938 45.9127 25.717C41.4649 24.6262 37.2116 23.5307 32.6719 22.3614C36.9317 16.4347 40.9514 10.842 44.9711 5.24935C44.7608 5.07456 44.5505 4.89976 44.3403 4.72497C43.2779 5.61345 42.2155 6.50193 40.9389 7.35524C40.4374 7.30233 40.1501 7.28458 39.9355 7.12138C40.4079 6.49248 40.8078 6.00904 41.2076 5.52559C41.0721 5.38099 40.9366 5.23639 40.8012 5.09178C35.7866 8.26043 30.7721 11.4291 25.7013 14.6333C24.3668 10.0098 23.1293 5.72265 21.9202 1.27794C21.9251 0.908386 21.9015 0.69638 21.8779 0.484375C30.1531 0.484375 38.4282 0.484375 46.9172 0.643054C46.658 1.337 46.185 1.87227 45.6809 2.34276C45.6061 2.25592 45.5624 2.23386 45.5187 2.2118C45.5743 2.28589 45.6299 2.35998 45.6656 2.59181C45.4287 3.20678 45.2118 3.664 44.9948 4.12122C45.2079 4.24263 45.4209 4.36405 45.634 4.48546C46.4664 3.15176 47.2989 1.81807 48.1314 0.484376C102.524 0.484375 156.917 0.484375 211.486 0.484375C211.486 11.4767 211.486 22.4699 211.265 33.7493C207.506 34.0353 203.969 34.0353 200.189 34.0353C200.189 29.3896 200.189 24.9188 200.189 20.4188C198.515 20.4188 197.088 20.4188 195.589 20.4188C195.589 26.1054 195.589 31.6987 195.589 37.3091C200.984 37.3091 206.235 37.3091 211.486 37.3091ZM115.055 30.7348C113.323 28.3175 111.326 26.0421 109.928 23.4462C108.245 20.3214 105.875 19.7815 102.754 20.5501C102.754 26.1346 102.754 31.7263 102.754 37.2443C104.247 37.2443 105.585 37.2443 107.145 37.2443C107.145 33.5586 107.145 30.0164 107.145 26.0082C109.248 28.9993 111.264 31.4427 112.798 34.1565C114.608 37.357 117.105 38.0353 120.443 37.1217C120.443 31.5938 120.443 26.0661 120.443 20.5286C118.881 20.5286 117.42 20.5286 115.961 20.5286C115.961 24.1097 115.961 27.4954 115.703 30.9584C115.539 30.9802 115.375 31.0021 115.055 30.7348ZM142.471 33.1727C142.471 34.5216 142.471 35.8704 142.471 37.3179C146.967 37.3179 151.243 37.4413 155.507 37.2691C157.86 37.1741 159.66 35.8222 160.243 33.4416C160.805 31.1435 159.57 29.6142 157.618 28.5531C157.351 28.4076 157.115 28.2036 156.735 27.9354C158.704 26.8449 159.703 25.1102 158.844 23.2981C158.255 22.0562 156.61 20.6241 155.335 20.5194C151.108 20.1724 146.835 20.3884 142.471 20.3884C142.471 24.6462 142.471 28.6688 142.471 33.1727ZM166.523 20.325C164.692 20.325 162.861 20.325 161.087 20.325C161.087 26.187 161.087 31.77 161.087 37.2236C166.411 37.2236 171.551 37.2236 176.651 37.2236C176.651 36.1151 176.651 35.1868 176.651 34.0114C172.929 34.0114 169.341 34.0114 165.797 34.0114C165.797 32.521 165.797 31.2878 165.797 29.9108C169.083 29.9108 172.211 29.9108 175.366 29.9108C175.366 28.7717 175.366 27.7946 175.366 26.6676C172.062 26.6676 168.935 26.6676 165.793 26.6676C165.793 25.6052 165.793 24.7087 165.793 23.5979C169.461 23.5979 172.977 23.5979 176.485 23.5979C176.485 22.4328 176.485 21.4883 176.485 20.3254C173.273 20.3254 170.139 20.3254 166.523 20.325ZM48.9016 35.4685C48.9528 36.0744 49.0041 36.6803 49.0574 37.3107C50.5824 37.3107 51.9337 37.3107 53.3493 37.3107C54.0294 34.7874 52.1571 31.3702 56.1326 30.0477C57.5245 31.5853 59.2295 33.0319 60.3752 34.8322C62.3188 37.886 65.0457 37.499 68.2503 37.2773C65.0663 33.8192 62.1337 30.6343 59.1078 27.3481C61.8961 25.0459 64.5844 22.8263 67.3335 20.5565C63.9882 19.8013 61.3386 20.4833 59.0569 22.8813C57.4823 24.5362 55.5802 25.8816 53.4964 27.6426C53.4964 24.9674 53.4964 22.7496 53.4964 20.4358C51.9053 20.4358 50.491 20.4358 48.9011 20.4358C48.9011 25.3564 48.9011 30.1844 48.9016 35.4685ZM88.6206 36.5204C86.4175 31.6984 84.1803 26.8913 82.0344 22.044C81.4722 20.7742 80.7423 20.3457 79.3173 20.2703C77.1695 20.1565 75.9976 20.7226 75.2102 22.8865C74.0893 25.9667 72.4631 28.8626 71.0857 31.8524C70.2727 33.6172 69.5234 35.4112 68.6579 37.3922C69.8941 37.3922 70.8076 37.5233 71.6605 37.3532C72.4241 37.2009 73.6317 36.8485 73.7596 36.3562C74.3429 34.1126 75.7837 33.7821 77.7556 33.9912C78.9561 34.1186 80.2088 33.8615 81.3853 34.0709C82.0901 34.1963 82.9541 34.7431 83.2954 35.3518C84.5288 37.5514 86.1624 38.0723 88.6206 36.5204ZM123.079 32.7831C122.44 34.2415 121.8 35.7 121.012 37.4983C122.997 36.8617 125.34 38.6923 126.32 36.0616C126.995 34.2484 128.044 33.8214 129.776 33.9855C131.138 34.1145 132.527 33.9445 133.893 34.0444C134.455 34.0855 135.403 34.3997 135.474 34.7365C136.223 38.2928 138.875 37.3554 141.44 37.3203C139.021 32.0875 136.556 27.0499 134.38 21.891C133.62 20.0888 132.409 20.401 131.083 20.3235C129.708 20.2432 128.695 20.3908 128.052 21.9481C126.581 25.5061 124.873 28.9663 123.079 32.7831ZM182.755 27.3762C182.755 25.0664 182.755 22.7567 182.755 20.4987C180.999 20.4987 179.514 20.4987 178.09 20.4987C178.09 26.2006 178.09 31.7304 178.09 37.2777C183.448 37.2777 188.673 37.2777 193.914 37.2777C193.914 36.1649 193.914 35.1776 193.914 34.0238C190.153 34.0238 186.55 34.0238 182.755 34.0238C182.755 31.8578 182.755 29.8587 182.755 27.3762ZM96.4597 31.9536C97.6543 31.9536 98.849 31.9536 100.069 31.9536C100.069 30.8184 100.069 29.8227 100.069 28.9181C96.3016 28.9181 92.7071 28.9181 89.1276 28.9181C89.1276 29.9735 89.1276 30.8908 89.1276 31.9535C91.5114 31.9535 93.7496 31.9535 96.4597 31.9536ZM28.1002 37.0149C28.0981 37.2055 28.0961 37.3962 28.094 37.5868C28.1734 37.5875 28.3218 37.5936 28.3222 37.5882C28.3369 37.3985 28.3377 37.2078 28.1002 37.0149Z" fill="#FEFEFE"/>
<path d="M24.7779 37.7352C24.9644 38.5329 25.151 39.3306 25.5519 40.3339C25.7993 40.9805 25.8324 41.4214 25.8596 42.0049C25.9478 42.3068 26.0421 42.4661 26.1817 42.8164C26.2352 43.528 26.2434 44.0485 26.1351 44.5677C26.0185 44.5663 25.7854 44.5708 25.6351 44.4898C25.2059 43.8436 25.0253 43.1937 24.6253 42.7329C23.9863 41.9967 23.2017 41.386 22.4786 40.7223C22.0587 41.5303 21.6387 42.3382 21.1331 43.2396C21.0257 43.4983 21.0039 43.6637 20.995 44.0003C20.9467 44.6247 20.8855 45.0777 20.7163 45.4846C20.4099 45.3153 20.2116 45.1921 19.9724 44.8966C19.9243 44.3718 19.917 44.0192 19.9232 43.5039C19.8052 42.9504 19.6737 42.5598 19.4984 41.9838C18.8177 40.0708 17.8478 40.1876 16.9421 41.4907C16.1731 42.597 15.6346 43.8625 14.8681 45.0576C14.6581 45.0612 14.5742 45.0647 14.4857 44.859C14.6598 43.4756 14.9498 42.3033 14.9698 41.1264C14.9797 40.5424 14.6302 39.7715 14.18 39.4285C13.9113 39.2239 13.0213 39.545 12.6049 39.874C11.6114 40.659 10.7331 41.5889 9.77876 42.2411C9.72814 41.8759 9.70709 41.73 9.7076 41.4096C10.1923 40.3148 10.7593 39.4279 11.0738 38.4595C11.2257 37.992 11.0566 37.2456 10.7421 36.8626C10.5203 36.5925 9.74372 36.5487 9.32913 36.705C8.14325 37.1521 7.01566 37.7527 5.67234 38.2689C5.3509 38.2297 5.22227 38.2145 5.18044 38.0549C6.05297 37.1409 6.79039 36.3133 7.63523 35.6147C9.06883 34.4293 8.81906 33.4484 7.25665 32.4998C6.84905 32.608 6.59065 32.7295 6.15801 32.8944C5.38903 32.9726 4.79429 33.0072 3.95691 33.01C3.39037 32.9441 3.06646 32.9101 2.8499 32.7379C4.37201 31.8727 5.78678 31.1457 8.05457 29.9804C6.63813 29.1539 5.80546 28.5714 4.8943 28.1628C3.93531 27.7328 2.90127 27.4689 2.08604 27.0665C3.85648 26.0861 6.74884 27.6348 7.23933 24.3976C6.06351 23.7323 4.95588 23.1056 3.87282 22.2351C3.90967 21.8288 3.92195 21.6662 4.13456 21.5274C4.80339 21.6305 5.2887 21.8278 5.73681 21.7644C6.6235 21.6388 7.48964 21.369 8.36427 21.1589C7.97865 20.3529 7.62066 19.5323 7.20018 18.7448C6.71205 17.8307 6.16909 16.9456 5.79533 16.1953C7.77982 16.5585 9.20472 19.7608 11.4976 17.2217C10.8567 15.7885 10.27 14.4766 9.73468 13.0532C9.90763 12.8352 10.0293 12.7288 10.2993 12.6942C11.1308 13.4396 11.7488 14.2037 12.5205 14.7539C13.0092 15.1023 13.9138 15.446 14.2926 15.222C14.7275 14.9648 14.9844 14.073 14.9692 13.4656C14.9375 12.2033 14.6751 10.9467 14.6294 9.69129C14.8326 9.69471 14.9138 9.69461 15.0871 9.84231C15.7692 11.1106 16.2786 12.2861 16.9905 13.3236C17.2623 13.7198 18.0116 13.9917 18.5174 13.956C18.8516 13.9324 19.3301 13.2974 19.4148 12.8711C19.7642 11.1145 19.9877 9.33298 20.3088 7.22343C18.2016 7.60834 16.4167 7.93437 14.4949 8.25601C14.1183 8.35763 13.8787 8.46366 13.4784 8.64767C11.9725 9.37549 10.6272 10.0253 9.15205 10.7138C8.77406 11.0057 8.52592 11.2589 8.14335 11.6133C7.25705 12.4449 6.40597 13.1019 5.78771 13.9313C5.36614 14.4969 5.26997 15.3033 4.84544 16.0321C3.66821 17.8164 2.67384 19.5706 1.56482 21.4603C1.1289 22.3112 0.807613 23.0267 0.486328 23.7421C0.486329 16.027 0.486329 8.31187 0.486329 0.484375C7.30252 0.484375 14.1193 0.484375 21.1549 0.71136C21.3589 6.43638 21.3441 11.9344 21.1969 17.4344C20.8866 17.4364 20.7087 17.4366 20.4952 17.2791C20.4454 16.9065 20.4313 16.6916 20.3393 16.3538C19.8331 16.2748 19.4048 16.3186 18.7921 16.4067C13.1121 17.2693 10.6968 21.4127 8.90677 25.8838C8.41775 27.1053 9.29505 28.9739 9.79143 30.4641C11.3312 35.0866 14.5746 37.754 19.4713 38.5737C20.2909 38.611 21.0776 38.4973 22.0392 38.3408C22.5737 38.2843 22.9333 38.2708 23.3893 38.2375C23.6138 38.1712 23.7151 38.0909 23.9439 37.9021C24.3247 37.7964 24.5513 37.7658 24.7779 37.7352Z" fill="white"/>
<path d="M211.486 37.0973C206.235 37.3093 200.984 37.3093 195.589 37.3093C195.589 31.6988 195.589 26.1055 195.589 20.4189C197.087 20.4189 198.515 20.4189 200.189 20.4189C200.189 24.9189 200.189 29.3898 200.189 34.0355C203.969 34.0355 207.506 34.0355 211.265 33.9765C211.486 34.9068 211.486 35.8961 211.486 37.0973Z" fill="#2A201D"/>
<path d="M17.9886 47.4844C12.1918 47.4844 6.39492 47.4844 0.486328 47.4844C0.486328 42.3064 0.486328 37.1277 0.648423 31.7832C1.13077 32.3515 1.45102 33.0856 1.70082 33.9841C2.71755 35.6848 3.80473 37.2211 4.84374 38.8951C5.74732 40.2517 6.64215 41.5233 7.69461 42.6485C7.93015 42.9004 8.71819 42.6389 9.28858 42.8003C9.87979 44.8754 12.77 46.2691 14.621 45.7203C15.7501 46.4313 16.8694 46.9579 17.9886 47.4844Z" fill="#FBF7F5"/>
<path d="M0.486328 23.9577C0.807613 23.027 1.1289 22.3116 1.55774 21.4579C1.66529 21.3197 1.67168 21.3082 1.7814 21.4522C2.54349 21.8905 3.19587 22.1849 3.84825 22.4792C4.95588 23.1059 6.06351 23.7327 7.23933 24.398C6.74884 27.6352 3.85648 26.0865 1.94555 27.1227C1.24147 27.3693 0.863897 27.494 0.486329 27.6188C0.486329 26.4701 0.486329 25.3215 0.486328 23.9577Z" fill="#C12830"/>
<path d="M0.486328 27.8338C0.863897 27.4938 1.24147 27.3691 1.75953 27.1885C2.90127 27.4691 3.93531 27.7329 4.8943 28.163C5.80546 28.5716 6.63813 29.154 8.05457 29.9805C5.78678 31.1459 4.37201 31.8729 2.68397 32.7552C2.24538 33.1571 2.08007 33.4036 1.90755 33.6925C1.90033 33.735 1.77127 33.8197 1.77127 33.8197C1.45102 33.0857 1.13077 32.3517 0.648423 31.5562C0.486328 30.3462 0.486328 29.1976 0.486328 27.8338Z" fill="#E26027"/>
<path d="M21.2181 43.1465C21.638 42.3386 22.058 41.5306 22.478 40.7227C23.201 41.3864 23.9857 41.997 24.6247 42.7332C25.0246 43.1941 25.2053 43.844 25.6581 44.6568C25.96 45.4358 26.0881 45.9671 26.2161 46.4985C25.1426 46.7149 24.069 46.9313 22.9226 47.3162C22.1745 47.4847 21.4993 47.4847 20.6203 47.3117C20.4217 46.7927 20.4268 46.4468 20.5538 46.047C20.725 45.8391 20.7743 45.6851 20.8236 45.531C20.8848 45.078 20.946 44.625 21.0908 43.9118C21.1889 43.4832 21.2035 43.3149 21.2181 43.1465Z" fill="#C0232C"/>
<path d="M20.4326 46.1005C20.4275 46.4465 20.4223 46.7925 20.4184 47.3114C19.7443 47.4844 19.069 47.4844 18.1912 47.4844C16.8694 46.9579 15.7501 46.4313 14.6128 45.736C14.5948 45.5672 14.5598 45.5616 14.6915 45.5448C14.8802 45.3712 14.9372 45.2144 14.9942 45.0576C15.6346 43.8625 16.1731 42.5971 16.9421 41.4908C17.8478 40.1877 18.8177 40.0709 19.4733 42.1413C19.6312 42.8782 19.7705 43.2725 19.9098 43.6667C19.9171 44.0193 19.9243 44.3719 19.9423 45.052C20.1129 45.6199 20.2728 45.8602 20.4326 46.1005Z" fill="#E25D21"/>
<path d="M21.3291 17.4325C21.3439 11.9344 21.3586 6.43638 21.3825 0.71136C21.3916 0.484375 21.6347 0.484375 21.7562 0.484375C21.9013 0.69638 21.9249 0.908386 21.9485 1.50516C21.9171 8.87092 21.8857 15.8519 21.7131 22.8974C21.491 21.1188 21.41 19.2756 21.3291 17.4325Z" fill="#D8C2C2"/>
<path d="M45.7123 2.40754C46.1853 1.87227 46.6583 1.337 47.1453 0.643053C47.3754 0.484374 47.5915 0.484374 47.9696 0.484375C47.2992 1.81807 46.4667 3.15176 45.6343 4.48546C45.4212 4.36405 45.2082 4.24263 44.9951 4.12122C45.2121 3.664 45.429 3.20677 45.6732 2.58584C45.7004 2.42212 45.7123 2.40754 45.7123 2.40754Z" fill="#FEFDFD"/>
<path d="M142.471 32.9324C142.471 28.6691 142.471 24.6465 142.471 20.3887C146.835 20.3887 151.108 20.1727 155.334 20.5197C156.61 20.6244 158.255 22.0566 158.844 23.2984C159.703 25.1105 158.703 26.8452 156.735 27.9358C157.115 28.204 157.35 28.4079 157.618 28.5534C159.569 29.6145 160.805 31.1438 160.242 33.4419C159.66 35.8225 157.86 37.1744 155.506 37.2695C151.242 37.4416 146.966 37.3183 142.471 37.3183C142.471 35.8707 142.471 34.5219 142.471 32.9324ZM155.551 31.8883C153.239 29.1942 150.183 30.6875 147.315 30.1711C147.315 31.6967 147.315 32.9416 147.315 34.3635C149.392 34.3635 151.427 34.5626 153.386 34.2684C154.203 34.1458 154.861 32.9728 155.551 31.8883ZM147.682 27.0288C149.217 27.0342 150.785 27.2311 152.272 26.9708C153.121 26.8222 153.839 25.9284 154.616 25.3701C153.879 24.6735 153.229 23.5413 152.387 23.3737C150.773 23.0529 149.05 23.2804 147.321 23.2804C147.321 24.5473 147.321 25.6486 147.682 27.0288Z" fill="#261B19"/>
<path d="M115.96 30.881C115.96 27.4953 115.96 24.1096 115.96 20.5285C117.42 20.5285 118.881 20.5285 120.443 20.5285C120.443 26.0661 120.443 31.5938 120.443 37.1216C117.104 38.0352 114.607 37.3569 112.798 34.1564C111.264 31.4426 109.248 28.9992 107.144 26.0081C107.144 30.0163 107.144 33.5585 107.144 37.2442C105.584 37.2442 104.246 37.2442 102.754 37.2442C102.754 31.7262 102.754 26.1345 102.754 20.55C105.874 19.7814 108.244 20.3213 109.927 23.4461C111.326 26.042 113.323 28.3174 115.15 31.0422C115.531 31.4614 115.816 31.5731 116.102 31.6848C116.055 31.4169 116.008 31.1489 115.96 30.881Z" fill="#261B18"/>
<path d="M166.765 20.3254C170.14 20.3256 173.273 20.3256 176.485 20.3256C176.485 21.4886 176.485 22.433 176.485 23.5981C172.978 23.5981 169.462 23.5981 165.793 23.5981C165.793 24.7089 165.793 25.6054 165.793 26.6678C168.936 26.6678 172.063 26.6678 175.366 26.6678C175.366 27.7948 175.366 28.7719 175.366 29.9111C172.211 29.9111 169.083 29.9111 165.797 29.9111C165.797 31.288 165.797 32.5212 165.797 34.0116C169.342 34.0116 172.93 34.0116 176.651 34.0116C176.651 35.187 176.651 36.1154 176.651 37.2238C171.552 37.2238 166.411 37.2238 161.087 37.2238C161.087 31.7702 161.087 26.1872 161.087 20.3252C162.861 20.3252 164.692 20.3252 166.765 20.3254Z" fill="#2B211E"/>
<path d="M48.9016 35.2404C48.9014 30.1844 48.9014 25.3563 48.9014 20.4358C50.4912 20.4358 51.9056 20.4358 53.4966 20.4358C53.4966 22.7495 53.4966 24.9673 53.4966 27.6425C55.5804 25.8815 57.4826 24.5362 59.0572 22.8813C61.3388 20.4832 63.9885 19.8012 67.3337 20.5565C64.5847 22.8262 61.8964 25.0458 59.1081 27.348C62.1339 30.6342 65.0665 33.8192 68.2506 37.2772C65.046 37.499 62.319 37.8859 60.3755 34.8321C59.2297 33.0318 57.5247 31.5852 56.1329 30.0476C52.1574 31.3702 54.0297 34.7873 53.3495 37.3107C51.9339 37.3107 50.5827 37.3107 49.0577 37.3107C49.0043 36.6803 48.9531 36.0743 48.9016 35.2404Z" fill="#261B18"/>
<path d="M88.7132 36.6932C86.1627 38.0726 84.5291 37.5518 83.2957 35.3521C82.9544 34.7434 82.0904 34.1966 81.3856 34.0712C80.209 33.8618 78.9564 34.1189 77.7558 33.9916C75.784 33.7824 74.3432 34.113 73.7599 36.3565C73.632 36.8488 72.4243 37.2012 71.6608 37.3535C70.8078 37.5237 69.8944 37.3926 68.6582 37.3926C69.5236 35.4115 70.273 33.6176 71.086 31.8528C72.4634 28.863 74.0896 25.9671 75.2105 22.8869C75.9979 20.723 77.1698 20.1569 79.3176 20.2706C80.7426 20.3461 81.4725 20.7745 82.0346 22.0444C84.1806 26.8916 86.4178 31.6987 88.7132 36.6932ZM77.3653 27.9502C77.0271 28.8231 76.689 29.6959 76.3148 30.6616C78.0501 30.6616 79.5823 30.6616 81.3747 30.6616C80.5211 28.6865 79.7687 26.9453 78.8272 24.7668C78.255 26.0484 77.9029 26.837 77.3653 27.9502Z" fill="#BE2129"/>
<path d="M123.17 32.6249C124.873 28.9666 126.581 25.5064 128.051 21.9484C128.695 20.3911 129.708 20.2435 131.082 20.3238C132.409 20.4013 133.62 20.0891 134.38 21.8913C136.556 27.0502 139.021 32.0878 141.44 37.3206C138.875 37.3556 136.223 38.2931 135.474 34.7368C135.403 34.4 134.455 34.0857 133.893 34.0447C132.527 33.9448 131.138 34.1147 129.776 33.9858C128.044 33.8217 126.995 34.2487 126.32 36.0619C125.34 38.6926 122.997 36.862 121.012 37.4986C121.8 35.7003 122.439 34.2418 123.17 32.6249ZM131.059 30.8326C131.895 30.8326 132.732 30.8326 133.891 30.8326C132.961 28.7098 132.193 26.9565 131.213 24.7197C130.237 27.0281 129.491 28.7932 128.629 30.8328C129.562 30.8328 130.106 30.8328 131.059 30.8326Z" fill="#E15A1D"/>
<path d="M19.4379 38.4227C14.5741 37.7541 11.3307 35.0867 9.7909 30.4641C9.29452 28.9739 8.41722 27.1054 8.90624 25.8839C10.6962 21.4128 13.1115 17.2694 18.9708 16.4336C19.6952 16.4363 20.0559 16.4565 20.4167 16.4767C20.4308 16.6917 20.4449 16.9066 20.4489 17.4029C20.413 17.7683 20.3872 17.8524 20.2417 18.0597C19.5506 18.8408 19.1061 19.7682 18.3841 20.1054C16.2587 21.098 14.5062 22.4261 13.6017 24.6051C12.4847 27.2959 13.182 30.9448 15.1351 32.6575C17.5356 34.7625 20.2584 35.6901 23.3719 34.3205C26.3343 33.0174 27.8038 30.7137 27.9423 27.4051C28.7995 27.2797 29.467 27.2192 30.1344 27.1588C31.4232 27.2068 31.9319 27.8629 31.5108 29.3328C31.3222 29.7057 31.2951 29.8639 31.2681 30.0221C30.2705 33.431 28.2196 35.955 24.8728 37.6029C24.5508 37.7659 24.3242 37.7964 23.84 37.9015C23.4452 38.0283 23.3486 38.1221 23.2924 38.2573C22.9328 38.2709 22.5732 38.2844 21.8374 38.315C20.7868 38.3623 20.1123 38.3925 19.4379 38.4227Z" fill="#F18404"/>
<path d="M41.1533 7.39054C42.2157 6.50206 43.2781 5.61358 44.3405 4.7251C44.5508 4.89989 44.761 5.07469 44.9713 5.24948C40.9516 10.8422 36.9319 16.4348 32.6722 22.3616C37.2118 23.5308 41.4652 24.6263 45.9455 25.8421C46.1805 26.0483 46.1884 26.134 46.1963 26.2198C45.972 26.2087 45.7476 26.1977 45.135 26.1844C37.3563 26.1822 29.966 26.1822 22.5757 26.1822C22.4932 25.9719 22.4106 25.7615 22.3281 25.5512C23.0102 24.9904 23.7382 24.4763 24.3671 23.8615C29.9724 18.3813 35.5603 12.8833 41.1533 7.39054Z" fill="#ED9A19"/>
<path d="M182.755 27.6182C182.755 29.859 182.755 31.8581 182.755 34.0241C186.55 34.0241 190.153 34.0241 193.914 34.0241C193.914 35.1779 193.914 36.1652 193.914 37.278C188.673 37.278 183.447 37.278 178.09 37.278C178.09 31.7307 178.09 26.2009 178.09 20.499C179.514 20.499 180.999 20.499 182.755 20.499C182.755 22.757 182.755 25.0667 182.755 27.6182Z" fill="#2A1F1D"/>
<path d="M21.8545 22.8333C21.8859 15.8523 21.9173 8.8713 21.9203 1.66309C23.1293 5.72303 24.3668 10.0102 25.7013 14.6337C30.7722 11.4295 35.7867 8.26081 40.8012 5.09216C40.9367 5.23676 41.0721 5.38137 41.2076 5.52597C40.8078 6.00941 40.408 6.49286 39.7817 7.1748C37.4726 9.24929 35.4166 11.1557 33.3014 12.9946C29.5045 16.2956 25.6721 19.5559 21.8545 22.8333Z" fill="#C1232C"/>
<path d="M21.7136 22.8976C25.6724 19.5558 29.5048 16.2954 33.3017 12.9944C35.4169 11.1556 37.4729 9.24913 39.7093 7.32009C40.1504 7.2848 40.4377 7.30254 40.9392 7.35546C35.5604 12.8834 29.9725 18.3814 24.3672 23.8616C23.7383 24.4764 23.0103 24.9905 22.3282 25.5513C22.4107 25.7616 22.4933 25.972 22.5758 26.1823C29.9661 26.1823 37.3564 26.1823 44.9698 26.2214C42.7418 26.3908 40.2915 26.5451 37.839 26.6449C35.3658 26.7455 32.8904 26.7921 30.2756 27.0106C29.4677 27.2193 28.8003 27.2798 27.7532 27.3294C26.5687 27.3541 25.7637 27.3898 24.7701 27.3392C23.561 27.5802 22.5513 27.9492 21.5153 28.2178C20.9523 28.3638 20.3447 28.3392 19.7571 28.3916C19.7203 27.8032 19.5876 27.2018 19.6659 26.629C19.8443 25.3254 20.1262 24.0359 20.3842 22.5233C20.3891 20.8495 20.3756 19.393 20.3622 17.9366C20.388 17.8525 20.4137 17.7684 20.4853 17.5607C20.709 17.4368 20.8868 17.4367 21.1971 17.4346C21.4105 19.2758 21.4915 21.119 21.7136 22.8976Z" fill="#FBF7F5"/>
<path d="M96.224 31.9539C93.7499 31.9538 91.5117 31.9538 89.1279 31.9538C89.1279 30.8911 89.1279 29.9739 89.1279 28.9185C92.7074 28.9185 96.3019 28.9185 100.069 28.9185C100.069 29.823 100.069 30.8187 100.069 31.9539C98.8493 31.9539 97.6546 31.9539 96.224 31.9539Z" fill="#382F2C"/>
<path d="M25.8658 41.8627C25.8326 41.4218 25.7994 40.9809 25.7275 40.3781C27.7676 37.683 28.5547 40.3469 30.0129 41.4436C30.5402 41.7507 30.8398 41.8416 31.2676 41.9753C31.6266 42.3568 31.8573 42.6955 32.088 43.0341C30.5701 44.0345 29.0522 45.0349 27.2256 46.0213C26.6951 45.5281 26.4735 45.0488 26.2518 44.5695C26.2436 44.0489 26.2354 43.5284 26.1977 42.672C26.0675 42.1783 25.9666 42.0205 25.8658 41.8627Z" fill="#E4652B"/>
<path d="M34.5334 37.8338C33.8838 36.6636 33.2341 35.4934 32.3389 33.881C32.7357 31.4712 34.9327 33.4374 36.6145 33.175C37.4478 33.1716 37.9614 33.0591 38.6087 32.9414C39.0051 32.9505 39.2677 32.9648 39.5303 32.9791C38.6097 34.889 37.689 36.799 36.5035 38.6848C36.1402 38.6929 36.0418 38.7252 35.96 38.7572C35.9766 38.7569 35.9776 38.7901 36.0818 38.6581C35.9501 38.3046 35.7142 38.0831 35.3313 37.6939C34.9564 37.6228 34.7284 37.7193 34.5143 37.8098C34.5283 37.8038 34.5334 37.8338 34.5334 37.8338Z" fill="#E25E22"/>
<path d="M32.2509 43.0856C31.8567 42.6953 31.626 42.3567 31.2951 41.7971C31.0508 41.2686 30.9067 40.961 30.7627 40.6534C30.7918 39.3509 28.408 38.0902 30.216 37.011C31.0541 36.5107 32.8266 37.5655 34.3542 37.8747C34.5329 37.834 34.5278 37.804 34.495 37.9538C34.6427 38.1625 34.8233 38.2213 35.0897 38.3958C35.4427 38.6044 35.7099 38.6974 35.977 38.7903C35.977 38.7903 35.976 38.7572 36.0225 38.8635C36.1979 39.0682 36.3267 39.1666 36.4555 39.265C35.1085 40.5557 33.7615 41.8464 32.2509 43.0856Z" fill="#C22730"/>
<path d="M39.6516 32.8048C39.2672 32.9647 39.0045 32.9504 38.5181 32.8681C38.1894 32.6686 38.0529 32.6073 37.8847 32.6161C36.5089 31.8681 35.1331 31.1202 33.7363 30.1774C33.7999 29.8685 33.8086 29.7488 33.7413 29.6238C34.8493 29.1079 35.9573 28.592 37.4028 28.0351C37.9951 27.881 38.25 27.7679 38.5049 27.6548C39.0189 27.6401 39.533 27.6253 40.2131 27.7321C40.4084 27.9331 40.4378 28.0126 40.4672 28.0921C40.2359 29.6049 40.0047 31.1178 39.6516 32.8048Z" fill="#C1242C"/>
<path d="M26.1354 44.568C26.4736 45.0487 26.6953 45.528 27.0596 46.0906C26.965 46.2842 26.7276 46.3945 26.3537 46.5016C26.089 45.9671 25.961 45.4358 25.8093 44.7378C25.7857 44.5712 26.0188 44.5666 26.1354 44.568Z" fill="#FBF7F5"/>
<path d="M37.7571 32.719C38.0529 32.6076 38.1895 32.6689 38.3844 32.8734C37.9609 33.0592 37.4473 33.1717 36.7988 33.1605C36.9857 32.9651 37.3076 32.8934 37.7571 32.719Z" fill="#FBF7F5"/>
<path d="M46.2822 26.3213C46.1881 26.1339 46.1802 26.0482 46.1396 25.8374C46.3875 25.8939 46.6679 26.0753 46.9483 26.2568C46.755 26.3121 46.5617 26.3675 46.2822 26.3213Z" fill="#FBF7F5"/>
<path d="M28.2201 37.0161C28.3374 37.2079 28.3366 37.3986 28.3219 37.5883C28.3215 37.5937 28.1731 37.5876 28.0938 37.5869C28.0958 37.3962 28.0978 37.2056 28.2201 37.0161Z" fill="white"/>
<path d="M30.6095 40.7378C30.9068 40.9608 31.0508 41.2684 31.1668 41.7541C30.8392 41.8414 30.5397 41.7505 30.1543 41.5272C30.1978 41.204 30.327 41.0132 30.6095 40.7378Z" fill="#FBF7F5"/>
<path d="M115.833 30.9199C116.008 31.1492 116.056 31.4172 116.103 31.6851C115.817 31.5734 115.532 31.4617 115.229 31.1871C115.375 31.0023 115.539 30.9804 115.833 30.9199Z" fill="#94908F"/>
<path d="M38.3618 27.645C38.2505 27.7683 37.9956 27.8814 37.5996 27.9769C37.7117 27.8511 37.965 27.743 38.3618 27.645Z" fill="#FCFAFA"/>
<path d="M36.4624 39.1666C36.3266 39.1664 36.1978 39.068 36.0059 38.8635C36.0411 38.7252 36.1396 38.6929 36.352 38.7661C36.4661 38.8717 36.4694 39.0685 36.4624 39.1666Z" fill="#FBF7F5"/>
<path d="M33.6862 29.6924C33.8092 29.749 33.8005 29.8687 33.6433 30.0441C33.5547 29.9843 33.5747 29.8694 33.6862 29.6924Z" fill="#FBF7F5"/>
<path d="M43.4966 3.12461C43.5252 3.10736 43.4679 3.14186 43.4966 3.12461Z" fill="#FBF7F5"/>
<path d="M45.6926 2.42821C45.6297 2.36009 45.5741 2.286 45.5186 2.21191C45.5622 2.23397 45.6059 2.25603 45.6807 2.34287C45.7118 2.40765 45.6999 2.42224 45.6926 2.42821Z" fill="#FEFDFD"/>
<path d="M40.5323 28.0284C40.4377 28.013 40.4083 27.9335 40.3369 27.734C40.3958 27.7307 40.4966 27.8475 40.5323 28.0284Z" fill="#FBF7F5"/>
<path d="M31.3562 29.9383C31.2958 29.8638 31.3228 29.7057 31.4453 29.4678C31.5083 29.5436 31.476 29.6991 31.3562 29.9383Z" fill="#FBF7F5"/>
<path d="M1.67159 21.308C1.67159 21.308 1.6652 21.3194 1.67229 21.3222C2.67374 19.5707 3.66811 17.8165 4.92523 16.0071C5.35601 15.9258 5.50996 15.9579 5.64984 16.048C6.169 16.9457 6.71196 17.8308 7.20008 18.745C7.62057 19.5324 7.97856 20.3531 8.36418 21.159C7.48954 21.3692 6.62341 21.6389 5.73672 21.7645C5.2886 21.828 4.8033 21.6307 3.95769 21.4608C2.94424 21.3496 2.30791 21.3288 1.67159 21.308Z" fill="#E46227"/>
<path d="M1.7002 33.9842C1.77065 33.8197 1.89971 33.735 2.09492 33.6207C2.9264 33.3516 3.56266 33.1968 4.19893 33.0421C4.79367 33.0074 5.38841 32.9727 6.30667 32.9195C6.88854 32.7717 7.14689 32.6425 7.40524 32.5132C8.81844 33.4485 9.0682 34.4295 7.63461 35.6149C6.78977 36.3134 6.05235 37.141 5.05864 38.1156C4.81581 38.3701 4.74885 38.422 4.75262 38.4683C4.76109 38.5725 4.80461 38.6738 4.85151 38.7816C4.86915 38.7868 4.8913 38.7575 4.8913 38.7575C3.80411 37.2212 2.71693 35.685 1.7002 33.9842Z" fill="#C0252E"/>
<path d="M14.6311 8.2606C16.416 7.93457 18.201 7.60854 20.3082 7.22363C19.9871 9.33317 19.7636 11.1147 19.4142 12.8713C19.3295 13.2976 18.8509 13.9326 18.5168 13.9562C18.011 13.9919 17.2617 13.72 16.9898 13.3238C16.278 12.2863 15.7686 11.1108 15.0911 9.71232C14.8653 9.34902 14.7268 9.2637 14.5852 9.19459C14.582 9.21079 14.6143 9.21806 14.6153 9.05796C14.6212 8.68545 14.6262 8.47303 14.6311 8.2606Z" fill="#C12A32"/>
<path d="M14.6029 45.5515C12.77 46.2691 9.87979 44.8753 9.27298 42.8097C9.22067 42.6326 9.23065 42.6676 9.33675 42.7542C9.56468 42.714 9.6865 42.5872 9.80833 42.4603C10.7331 41.5889 11.6114 40.659 12.6049 39.874C13.0213 39.545 13.9113 39.2238 14.18 39.4285C14.6302 39.7715 14.9797 40.5424 14.9698 41.1264C14.9498 42.3033 14.6598 43.4756 14.4097 44.9954C14.412 45.4145 14.4859 45.488 14.5598 45.5615C14.5598 45.5615 14.5947 45.5672 14.6029 45.5515Z" fill="#C0252E"/>
<path d="M5.79554 16.1954C5.51026 15.9579 5.35631 15.9258 5.1084 15.977C5.27018 15.3034 5.36635 14.497 5.78792 13.9314C6.40618 13.102 7.25725 12.445 8.29383 11.6768C8.94688 12.1476 9.31523 12.6562 9.68359 13.1648C10.2702 14.4767 10.8569 15.7886 11.4978 17.2218C9.20492 19.761 7.78003 16.5587 5.79554 16.1954Z" fill="#C2242D"/>
<path d="M9.23629 42.6234C8.7182 42.6391 7.93016 42.9006 7.69462 42.6488C6.64216 41.5236 5.74733 40.2519 4.84375 38.8954C4.89193 38.7576 4.86979 38.7869 5.00352 38.7801C5.37989 38.6133 5.62253 38.4533 5.86517 38.2932C7.01568 37.753 8.14327 37.1524 9.32915 36.7053C9.74373 36.549 10.5203 36.5928 10.7421 36.8629C11.0566 37.2459 11.2257 37.9923 11.0739 38.4598C10.7594 39.4282 10.1924 40.3151 9.57333 41.497C9.35521 42.0616 9.29294 42.3647 9.23067 42.6679C9.23067 42.6679 9.22069 42.6329 9.23629 42.6234Z" fill="#E45E22"/>
<path d="M9.28223 10.6754C10.6275 10.0255 11.9728 9.3757 13.6233 8.72803C14.1574 8.89281 14.3863 9.05544 14.6152 9.21806C14.6152 9.21806 14.5829 9.2108 14.473 9.30728C14.4114 9.49851 14.4596 9.59325 14.5079 9.68799C14.6754 10.9469 14.9378 12.2035 14.9695 13.4658C14.9848 14.0732 14.7278 14.965 14.2929 15.2222C13.9141 15.4462 13.0095 15.1025 12.5208 14.7541C11.7491 14.2039 11.1311 13.4398 10.2338 12.5454C9.7738 11.7749 9.52801 11.2251 9.28223 10.6754Z" fill="#E35D22"/>
<path d="M19.4707 38.5738C20.1122 38.3925 20.7867 38.3623 21.6623 38.3579C21.0769 38.4974 20.2903 38.6111 19.4707 38.5738Z" fill="#FBF7F5"/>
<path d="M9.15174 10.7139C9.52736 11.225 9.77315 11.7748 10.0848 12.4735C10.029 12.7289 9.90731 12.8353 9.73437 13.0532C9.31471 12.6561 8.94636 12.1476 8.42773 11.5756C8.52561 11.259 8.77375 11.0057 9.15174 10.7139Z" fill="#FBF7F5"/>
<path d="M1.78125 21.4522C2.30786 21.329 2.94419 21.3498 3.7573 21.4373C3.9218 21.6666 3.90952 21.8292 3.87267 22.2355C3.19572 22.1848 2.54334 21.8905 1.78125 21.4522Z" fill="#FBF7F5"/>
<path d="M3.9568 33.0104C3.56317 33.197 2.9269 33.3518 2.10264 33.5784C2.07996 33.4038 2.24527 33.1573 2.57651 32.8936C3.06634 32.9104 3.39025 32.9445 3.9568 33.0104Z" fill="#FBF7F5"/>
<path d="M20.5548 46.0468C20.273 45.8603 20.1131 45.62 19.9834 45.2243C20.2119 45.1922 20.4102 45.3155 20.7166 45.4848C20.7753 45.6849 20.726 45.8389 20.5548 46.0468Z" fill="#FBF7F5"/>
<path d="M19.9228 43.5041C19.7701 43.2726 19.6307 42.8783 19.5166 42.3267C19.6733 42.5599 19.8048 42.9506 19.9228 43.5041Z" fill="#FBF7F5"/>
<path d="M20.339 16.3542C20.0561 16.4568 19.6953 16.4365 19.1553 16.3895C19.4044 16.3189 19.8328 16.2751 20.339 16.3542Z" fill="#FBF7F5"/>
<path d="M14.6155 9.0581C14.3856 9.05557 14.1567 8.89295 13.7832 8.65017C13.8783 8.464 14.118 8.35797 14.4945 8.25635C14.6264 8.47317 14.6215 8.68559 14.6155 9.0581Z" fill="#FBF7F5"/>
<path d="M9.33658 42.7545C9.29275 42.3647 9.35502 42.0616 9.55157 41.6714C9.70691 41.7303 9.72797 41.8762 9.77859 42.2413C9.68633 42.5874 9.56451 42.7143 9.33658 42.7545Z" fill="#FBF7F5"/>
<path d="M5.67219 38.2693C5.62235 38.4534 5.37972 38.6134 4.9857 38.775C4.80507 38.674 4.76155 38.5727 4.75308 38.4685C4.74931 38.4222 4.81627 38.3703 4.9723 38.2603C5.22211 38.2149 5.35074 38.2301 5.67219 38.2693Z" fill="#FBF7F5"/>
<path d="M7.25657 32.5C7.14743 32.6425 6.88908 32.7718 6.48145 32.8761C6.59056 32.7297 6.84896 32.6082 7.25657 32.5Z" fill="#FBF7F5"/>
<path d="M14.6295 9.69151C14.4593 9.59326 14.4111 9.49852 14.4759 9.29109C14.7275 9.26372 14.8659 9.34903 14.9998 9.56454C14.9139 9.69483 14.8326 9.69492 14.6295 9.69151Z" fill="#FBF7F5"/>
<path d="M23.3887 38.2376C23.3485 38.1221 23.4451 38.0283 23.6857 37.9766C23.7145 38.091 23.6132 38.1712 23.3887 38.2376Z" fill="#FEFEFE"/>
<path d="M25.8594 42.0049C25.9662 42.0201 26.0671 42.1779 26.152 42.4805C26.0418 42.4661 25.9476 42.3068 25.8594 42.0049Z" fill="#FBF7F5"/>
<path d="M21.1327 43.2397C21.2037 43.3147 21.1891 43.483 21.0781 43.7402C21.0035 43.6638 21.0253 43.4985 21.1327 43.2397Z" fill="#FBF7F5"/>
<path d="M14.6914 45.5448C14.4858 45.488 14.4119 45.4145 14.4141 45.2046C14.5741 45.0647 14.658 45.0612 14.868 45.0576C14.9371 45.2144 14.8801 45.3712 14.6914 45.5448Z" fill="#FBF7F5"/>
<path d="M155.572 32.0827C154.862 32.9726 154.203 34.1456 153.387 34.2682C151.427 34.5624 149.393 34.3633 147.315 34.3633C147.315 32.9414 147.315 31.6965 147.315 30.1709C150.183 30.6873 153.24 29.194 155.572 32.0827Z" fill="#F2F2F2"/>
<path d="M147.502 26.8894C147.321 25.6486 147.321 24.5473 147.321 23.2804C149.05 23.2804 150.774 23.0529 152.387 23.3737C153.23 23.5412 153.88 24.6735 154.616 25.3701C153.84 25.9284 153.122 26.8222 152.273 26.9708C150.785 27.231 149.217 27.0342 147.502 26.8894Z" fill="#F6F6F6"/>
<path d="M77.4578 27.7878C77.9026 26.8369 78.2547 26.0483 78.8269 24.7666C79.7684 26.9452 80.5208 28.6863 81.3744 30.6614C79.582 30.6614 78.0498 30.6614 76.3145 30.6614C76.6886 29.6957 77.0268 28.8229 77.4578 27.7878Z" fill="#F4E6E7"/>
<path d="M130.855 30.8328C130.106 30.8329 129.563 30.8329 128.629 30.8329C129.491 28.7932 130.237 27.0282 131.213 24.7197C132.193 26.9566 132.961 28.7098 133.891 30.8327C132.732 30.8327 131.895 30.8327 130.855 30.8328Z" fill="#F7EBE6"/>
<path d="M24.958 27.4257C25.763 27.39 26.568 27.3543 27.5627 27.3945C27.8039 30.714 26.3343 33.0177 23.3719 34.3208C20.2584 35.6904 17.5356 34.7628 15.1352 32.6578C13.182 30.9451 12.4847 27.2962 13.6017 24.6055C14.5063 22.4264 16.2587 21.0983 18.3841 20.1057C19.1062 19.7686 19.5506 18.8411 20.2417 18.0601C20.3749 19.3932 20.3883 20.8497 20.2387 22.6098C16.9941 24.1933 15.5856 26.2417 16.2684 28.45C16.8794 30.426 18.9564 32.0364 20.7059 31.8904C22.9423 31.7039 24.4831 30.0861 24.958 27.4257Z" fill="#F6A90F"/>
<path d="M24.77 27.339C24.4836 30.0856 22.9428 31.7035 20.7064 31.89C18.957 32.0359 16.88 30.4256 16.269 28.4496C15.5862 26.2413 16.9947 24.1929 20.221 22.8267C20.126 24.0356 19.8441 25.3252 19.6658 26.6288C19.5874 27.2015 19.7201 27.8029 19.757 28.3913C20.3445 28.339 20.9521 28.3636 21.5152 28.2176C22.5511 27.9489 23.5608 27.5799 24.77 27.339Z" fill="#F9D47E"/>
<path d="M36.0812 38.6583C35.7098 38.6974 35.4427 38.6044 35.1875 38.3491C35.3259 38.1071 35.4186 37.9988 35.4776 37.8618C35.7135 38.0833 35.9495 38.3048 36.0812 38.6583Z" fill="#FBF7F5"/>
<path d="M35.3313 37.6943C35.4191 37.9989 35.3264 38.1072 35.1021 38.2336C34.8238 38.2214 34.6432 38.1626 34.4814 37.96C34.7283 37.7197 34.9564 37.6231 35.3313 37.6943Z" fill="#FEFEFE"/>
</g>
<defs>
<clipPath id="clip0_628_8102">
<rect width="211" height="47" fill="white"/>
</clipPath>
</defs>
</svg>
