<svg width="98" height="40" viewBox="0 0 98 40" fill="none" xmlns="http://www.w3.org/2000/svg">
<g clip-path="url(#clip0_6070_16121)">
<path d="M20.0013 39.3337C30.6788 39.3337 39.3346 30.6778 39.3346 20.0003C39.3346 9.32282 30.6788 0.666992 20.0013 0.666992C9.3238 0.666992 0.667969 9.32282 0.667969 20.0003C0.667969 30.6778 9.3238 39.3337 20.0013 39.3337Z" fill="white"/>
<path d="M20 40C14.658 40 9.63533 37.9193 5.858 34.142C2.08067 30.3647 0 25.342 0 20C0 14.658 2.08067 9.63533 5.858 5.858C9.63533 2.08067 14.658 0 20 0C25.342 0 30.3647 2.08067 34.142 5.858C37.9193 9.63533 40 14.658 40 20C40 25.342 37.9193 30.3647 34.142 34.142C30.3647 37.9193 25.342 40 20 40ZM20 1.33333C15.014 1.33333 10.3267 3.27467 6.80067 6.80067C3.27467 10.3267 1.33333 15.014 1.33333 20C1.33333 24.986 3.27467 29.6733 6.80067 33.1993C10.326 36.7247 15.014 38.6667 20 38.6667C24.986 38.6667 29.6733 36.7253 33.1993 33.1993C36.7247 29.6733 38.6667 24.986 38.6667 20C38.6667 15.014 36.7253 10.3267 33.1993 6.80067C29.6733 3.27467 24.986 1.33333 20 1.33333Z" fill="black"/>
<path d="M20.0013 37.3327C15.3713 37.3327 11.0186 35.53 7.74464 32.256C4.47064 28.982 2.66797 24.6294 2.66797 19.9993C2.66797 15.3693 4.47064 11.0167 7.74464 7.74268C11.0186 4.46868 15.3713 2.66602 20.0013 2.66602C24.6313 2.66602 28.984 4.46868 32.258 7.74268C35.532 11.0167 37.3346 15.3693 37.3346 19.9993C37.3346 24.6294 35.532 28.982 32.258 32.256C28.984 35.53 24.6313 37.3327 20.0013 37.3327ZM20.0013 3.99935C15.7273 3.99935 11.7093 5.66335 8.6873 8.68535C5.6653 11.7073 4.0013 15.7253 4.0013 19.9993C4.0013 24.2733 5.6653 28.2913 8.6873 31.3134C11.7093 34.3354 15.7273 35.9994 20.0013 35.9994C24.2753 35.9994 28.2933 34.3354 31.3153 31.3134C34.3373 28.2913 36.0013 24.2733 36.0013 19.9993C36.0013 15.7253 34.3373 11.7073 31.3153 8.68535C28.2933 5.66335 24.2753 3.99935 20.0013 3.99935Z" fill="black"/>
<path d="M20.0039 25.999C16.6952 25.999 14.0039 23.3077 14.0039 19.999C14.0039 16.6904 16.6952 13.999 20.0039 13.999C23.3126 13.999 26.0039 16.6904 26.0039 19.999C26.0039 23.3077 23.3126 25.999 20.0039 25.999ZM20.0039 15.3324C17.4306 15.3324 15.3372 17.4257 15.3372 19.999C15.3372 22.5724 17.4306 24.6657 20.0039 24.6657C22.5772 24.6657 24.6706 22.5724 24.6706 19.999C24.6706 17.4257 22.5772 15.3324 20.0039 15.3324Z" fill="black"/>
<path d="M20.0052 23.3346C18.1672 23.3346 16.6719 21.8393 16.6719 20.0013C16.6719 18.1633 18.1672 16.668 20.0052 16.668C21.8432 16.668 23.3385 18.1633 23.3385 20.0013C23.3385 21.8393 21.8432 23.3346 20.0052 23.3346ZM20.0052 18.0013C18.9025 18.0013 18.0052 18.8986 18.0052 20.0013C18.0052 21.104 18.9025 22.0013 20.0052 22.0013C21.1079 22.0013 22.0052 21.104 22.0052 20.0013C22.0052 18.8986 21.1079 18.0013 20.0052 18.0013Z" fill="black"/>
<path d="M16.0002 16.6666C15.8295 16.6666 15.6588 16.6013 15.5288 16.4713L10.1955 11.1379C9.93483 10.8773 9.93483 10.4553 10.1955 10.1953C10.4562 9.93525 10.8782 9.93458 11.1382 10.1953L16.4715 15.5286C16.7322 15.7893 16.7322 16.2113 16.4715 16.4713C16.3415 16.6013 16.1708 16.6666 16.0002 16.6666Z" fill="black"/>
<path d="M10.6668 29.9984C10.4962 29.9984 10.3255 29.933 10.1955 29.803C9.93483 29.5424 9.93483 29.1204 10.1955 28.8604L15.5288 23.527C15.7895 23.267 16.2115 23.267 16.4715 23.527C16.7322 23.7877 16.7322 24.2097 16.4715 24.4697L11.1382 29.803C11.0082 29.933 10.8375 29.9984 10.6668 29.9984Z" fill="black"/>
<path d="M23.995 16.6668C23.8243 16.6668 23.6536 16.6015 23.5236 16.4715C23.263 16.2108 23.263 15.7888 23.5236 15.5288L28.857 10.1955C29.1176 9.93483 29.5396 9.93483 29.7996 10.1955C30.0603 10.4562 30.0603 10.8782 29.7996 11.1382L24.4663 16.4715C24.3363 16.6015 24.1656 16.6668 23.995 16.6668Z" fill="black"/>
<path d="M29.3283 29.9984C29.1576 29.9984 28.987 29.933 28.857 29.803L23.5236 24.4697C23.263 24.209 23.263 23.787 23.5236 23.527C23.7843 23.267 24.2063 23.267 24.4663 23.527L29.7996 28.8604C30.0603 29.121 30.0603 29.543 29.7996 29.803C29.6696 29.933 29.499 29.9984 29.3283 29.9984Z" fill="black"/>
<path d="M18.5846 10.4418L18.3973 11.3351H17.668L18.4806 7.50977H19.21L18.77 9.57777L19.9213 8.50977H20.8406L19.6166 9.59577L20.2806 11.3351H19.3846L18.9626 10.1218L18.5853 10.4418H18.5846Z" fill="black"/>
<path d="M21.5573 12.496C21.1947 12.496 20.9133 12.4247 20.7147 12.2827C20.516 12.14 20.434 11.9274 20.4687 11.6447H21.276C21.2793 11.7314 21.3 11.794 21.3387 11.832C21.4047 11.9 21.532 11.9334 21.7213 11.9334C21.9887 11.9334 22.1867 11.844 22.3153 11.6654C22.3987 11.5507 22.4687 11.358 22.526 11.0874L22.5653 10.9054C22.468 11.0267 22.372 11.118 22.276 11.1787C22.104 11.2914 21.9 11.348 21.664 11.348C21.2993 11.348 21.0353 11.22 20.872 10.964C20.7087 10.708 20.674 10.3614 20.768 9.92338C20.8567 9.50138 21.0367 9.14671 21.3087 8.85938C21.5807 8.57204 21.9087 8.42871 22.2947 8.42871C22.4367 8.42871 22.556 8.45071 22.6513 8.49404C22.816 8.56871 22.9333 8.70604 23.0027 8.90538L23.0887 8.49671H23.81L23.2373 11.1894C23.1607 11.5554 23.0413 11.8314 22.878 12.0174C22.5987 12.3367 22.1587 12.4967 21.558 12.4967L21.5573 12.496ZM21.534 9.92604C21.4993 10.0907 21.4967 10.2374 21.526 10.366C21.5747 10.6054 21.7293 10.7254 21.9893 10.7254C22.1627 10.7254 22.3233 10.66 22.4713 10.5287C22.6187 10.3974 22.7233 10.1887 22.784 9.90271C22.8413 9.63338 22.828 9.42871 22.7447 9.28804C22.6613 9.14738 22.524 9.07738 22.3333 9.07738C22.0727 9.07738 21.8673 9.20004 21.716 9.44471C21.636 9.57471 21.5753 9.73538 21.534 9.92671V9.92604Z" fill="black"/>
<path d="M21.4162 29.5593L21.6035 28.666H22.3328L21.5202 32.4913H20.7908L21.2308 30.4233L20.0795 31.4913H19.1602L20.3842 30.4053L19.7202 28.666H20.6162L21.0382 29.8793L21.4155 29.5593H21.4162Z" fill="black"/>
<path d="M18.4441 27.5055C18.8067 27.5055 19.0881 27.5769 19.2867 27.7189C19.4854 27.8615 19.5674 28.0742 19.5327 28.3569H18.7254C18.7221 28.2702 18.7014 28.2075 18.6627 28.1695C18.5967 28.1015 18.4694 28.0682 18.2801 28.0682C18.0127 28.0682 17.8147 28.1575 17.6861 28.3362C17.6027 28.4509 17.5327 28.6435 17.4754 28.9142L17.4361 29.0962C17.5334 28.9749 17.6294 28.8835 17.7254 28.8229C17.8974 28.7102 18.1014 28.6535 18.3374 28.6535C18.7021 28.6535 18.9661 28.7815 19.1294 29.0375C19.2927 29.2935 19.3274 29.6402 19.2334 30.0782C19.1447 30.5002 18.9647 30.8549 18.6927 31.1422C18.4207 31.4295 18.0927 31.5729 17.7067 31.5729C17.5647 31.5729 17.4454 31.5509 17.3501 31.5075C17.1854 31.4329 17.0681 31.2955 16.9987 31.0962L16.9127 31.5049H16.1914L16.7641 28.8122C16.8407 28.4462 16.9601 28.1702 17.1234 27.9842C17.4027 27.6649 17.8427 27.5049 18.4434 27.5049L18.4441 27.5055ZM18.4674 30.0755C18.5021 29.9109 18.5047 29.7642 18.4754 29.6355C18.4267 29.3962 18.2721 29.2762 18.0121 29.2762C17.8387 29.2762 17.6781 29.3415 17.5301 29.4729C17.3827 29.6042 17.2781 29.8129 17.2174 30.0989C17.1601 30.3682 17.1734 30.5729 17.2567 30.7136C17.3401 30.8542 17.4774 30.9242 17.6681 30.9242C17.9287 30.9242 18.1341 30.8015 18.2854 30.5569C18.3654 30.4269 18.4261 30.2662 18.4674 30.0749V30.0755Z" fill="black"/>
<path d="M51.8651 29V10.0909H55.2905V18.7791H55.5213L62.8984 10.0909H67.081L59.7685 18.576L67.1456 29H63.0277L57.3864 20.8935L55.2905 23.3679V29H51.8651ZM70.2017 29V14.8182H73.544V29H70.2017ZM71.8821 12.8054C71.3527 12.8054 70.8973 12.63 70.5156 12.2791C70.134 11.9221 69.9432 11.4943 69.9432 10.9957C69.9432 10.491 70.134 10.0632 70.5156 9.71236C70.8973 9.35535 71.3527 9.17685 71.8821 9.17685C72.4176 9.17685 72.8731 9.35535 73.2486 9.71236C73.6302 10.0632 73.821 10.491 73.821 10.9957C73.821 11.4943 73.6302 11.9221 73.2486 12.2791C72.8731 12.63 72.4176 12.8054 71.8821 12.8054ZM80.3233 10.0909V29H76.981V10.0909H80.3233ZM89.9464 29.277C88.5614 29.277 87.3612 28.9723 86.3455 28.3629C85.3299 27.7536 84.542 26.901 83.9819 25.8054C83.4279 24.7098 83.1509 23.4295 83.1509 21.9645C83.1509 20.4995 83.4279 19.2161 83.9819 18.1143C84.542 17.0125 85.3299 16.157 86.3455 15.5476C87.3612 14.9382 88.5614 14.6335 89.9464 14.6335C91.3313 14.6335 92.5316 14.9382 93.5472 15.5476C94.5629 16.157 95.3477 17.0125 95.9016 18.1143C96.4618 19.2161 96.7418 20.4995 96.7418 21.9645C96.7418 23.4295 96.4618 24.7098 95.9016 25.8054C95.3477 26.901 94.5629 27.7536 93.5472 28.3629C92.5316 28.9723 91.3313 29.277 89.9464 29.277ZM89.9648 26.5994C90.7158 26.5994 91.3436 26.3932 91.8484 25.9808C92.3531 25.5623 92.7286 25.0021 92.9748 24.3004C93.2272 23.5987 93.3533 22.817 93.3533 21.9553C93.3533 21.0874 93.2272 20.3026 92.9748 19.6009C92.7286 18.893 92.3531 18.3298 91.8484 17.9112C91.3436 17.4927 90.7158 17.2834 89.9648 17.2834C89.1954 17.2834 88.5553 17.4927 88.0444 17.9112C87.5397 18.3298 87.1611 18.893 86.9087 19.6009C86.6625 20.3026 86.5394 21.0874 86.5394 21.9553C86.5394 22.817 86.6625 23.5987 86.9087 24.3004C87.1611 25.0021 87.5397 25.5623 88.0444 25.9808C88.5553 26.3932 89.1954 26.5994 89.9648 26.5994Z" fill="#141A1F"/>
</g>
<defs>
<clipPath id="clip0_6070_16121">
<rect width="98" height="40" fill="white"/>
</clipPath>
</defs>
</svg>
