<svg xmlns="http://www.w3.org/2000/svg" fill="#000" viewBox="0 0 140 32">
  <path d="m51.232 17.86 6.216-8.16h-3.816l-5.76 7.416V9.7H44.56v16.8h3.312v-7.872l6 7.872h3.816l-6.456-8.64Zm19.4955 7.152c1.224-1.224 1.848-2.736 1.848-4.512 0-1.776-.624-3.264-1.848-4.488-1.224-1.224-2.736-1.848-4.512-1.848-1.776 0-3.288.624-4.512 1.848-1.224 1.224-1.824 2.712-1.824 4.488 0 1.776.6 3.288 1.824 4.512 1.224 1.224 2.736 1.824 4.512 1.824 1.776 0 3.288-.6 4.512-1.824Zm-6.84-2.136c-.6-.624-.912-1.416-.912-2.376s.312-1.752.912-2.376c.624-.624 1.392-.936 2.328-.936.936 0 1.704.312 2.328.936.624.624.936 1.416.936 2.376s-.312 1.752-.936 2.376c-.624.624-1.392.936-2.328.936-.936 0-1.704-.312-2.328-.936Zm17.9572-.312-3.12-8.064h-3.384l4.92 11.616c-.576 1.632-1.488 2.328-3.144 2.304v2.88c3.072.168 5.088-1.344 6.336-4.8l4.368-12h-3.312l-2.664 8.064Zm21.0443-.792c.072-.456.12-.864.12-1.272 0-1.8-.576-3.288-1.728-4.512-1.128-1.224-2.5916-1.824-4.3436-1.824-1.848 0-3.384.6-4.56 1.824-1.176 1.2-1.776 2.712-1.776 4.512 0 1.824.6 3.336 1.8 4.536 1.2 1.2 2.784 1.8 4.776 1.8 2.304 0 4.0556-.864 5.2316-2.568l-2.4956-1.44c-.6.792-1.512 1.2-2.688 1.2-1.848 0-2.976-.744-3.384-2.256h9.0476Zm-9.0956-2.4c.36-1.536 1.488-2.424 3.144-2.424 1.416 0 2.616.792 2.976 2.424h-6.12Zm20.7616-5.208c-1.68 0-2.976.576-3.888 1.752V9.7h-3.096v16.8h3.096v-1.416c.912 1.176 2.208 1.752 3.888 1.752 1.608 0 3-.6 4.128-1.824 1.152-1.224 1.728-2.736 1.728-4.512 0-1.776-.576-3.264-1.728-4.488-1.128-1.224-2.52-1.848-4.128-1.848Zm-2.952 8.784c-.624-.648-.936-1.464-.936-2.448s.312-1.8.936-2.424c.624-.648 1.416-.96 2.376-.96s1.752.312 2.376.96c.648.624.96 1.44.96 2.424s-.312 1.8-.96 2.448c-.624.624-1.416.936-2.376.936s-1.752-.312-2.376-.936ZM17.1447 7.77773l16.1655 9.30787V9.31827L17.1344 0 1 9.3286v7.7777l16.1447-9.32857Z"/>
  <path d="m30.7245 26.446 2.5857-1.5207v-4.7681l-16.1758-9.3286L1 20.1572v4.7888l2.58567 1.5 13.54873-7.8397 13.5901 7.8397Z"/>
  <path d="M17.1451 29.6315 21.2506 32l6.7438-3.8789-10.8597-6.2673-10.81829 6.2673L13.0593 32l4.0858-2.3685Z"/>
</svg>
