<svg width="204" height="40" viewBox="0 0 204 40" fill="none" xmlns="http://www.w3.org/2000/svg">
<path d="M133.938 28.9898H143.391V30.6763H132.074V9.32617H133.938V28.9898Z" fill="#00AFE1"/>
<path d="M154.457 31.0018C149.072 31.0018 147.113 28.3186 147.113 24.658V15.3437C147.113 11.7023 149.072 9 154.457 9C159.842 9 161.8 11.7023 161.8 15.3437V24.658C161.8 28.3186 159.842 31.0018 154.457 31.0018ZM159.936 24.5814V15.4204C159.936 12.3731 158.486 10.7057 154.457 10.7057C150.427 10.7057 148.959 12.3731 148.959 15.4204V24.5814C148.959 27.6287 150.408 29.296 154.457 29.296C158.505 29.296 159.936 27.6287 159.936 24.5814Z" fill="#00AFE1"/>
<path d="M187.032 30.6763H185.168V11.396L187.032 9.32617V30.6763Z" fill="#00AFE1"/>
<path d="M193.848 24.773C193.848 28.127 195.298 29.296 199.121 29.296C200.679 29.2834 202.234 29.1488 203.772 28.8936L203.997 30.5226C202.334 30.8408 200.644 31.0012 198.951 31.0018C193.886 31.0018 191.984 28.7977 191.984 24.8114V15.1904C191.984 11.204 193.886 9 198.951 9C200.644 9.00055 202.334 9.16095 203.997 9.47913L203.772 11.1082C202.234 10.8529 200.679 10.7184 199.121 10.7057C195.298 10.7057 193.848 11.894 193.848 15.2287V24.773Z" fill="#00AFE1"/>
<path d="M177.847 12.8331H179.523V9.74745C177.96 9.40247 175.174 9 173.385 9C168.282 9 166.418 11.204 166.418 15.2287V24.773C166.418 28.7594 168.018 31.0018 173.14 31.0018C175.298 30.9914 177.444 30.6885 179.523 30.101V21.2466H175.626L176.868 22.8182H177.678V28.8169C176.224 29.1373 174.741 29.2979 173.253 29.296C169.318 29.296 168.282 27.897 168.282 24.7539V15.2479C168.282 11.9898 169.506 10.7057 173.422 10.7057C174.835 10.7057 176.398 10.9357 177.847 11.1657V12.8331Z" fill="#00AFE1"/>
<path d="M1.8641 30.6763H0V9.32617H1.8641V30.6763ZM4.3684 19.8096L14.6304 30.6763H12.2956L2.12771 19.8096L11.7307 9.32617H14.0278L4.3684 19.8096Z" fill="#231F20"/>
<path d="M22.3185 20.7678H26.7057C29.3418 20.7678 30.5846 19.8671 30.5846 17.5289V14.2517C30.5846 11.9135 29.3418 11.0127 26.7057 11.0127H21.0946V30.6763H19.2305V9.32617H26.6681C30.8858 9.32617 32.4298 11.281 32.4298 14.2517V17.5289C32.4298 19.8096 31.5449 21.5153 29.21 22.1669C27.9296 22.4927 25.9149 22.4161 25.8584 22.4352L32.8441 30.6763H30.7352L22.3185 20.7678Z" fill="#231F20"/>
<path d="M44.3434 20.902L50.5194 9.32617H52.44L45.2849 22.3777V30.6763H43.4208V22.3777L36.2656 9.32617H38.1862L44.3434 20.902Z" fill="#231F20"/>
<path d="M57.8625 20.8445H62.7958C65.4507 20.8445 66.6746 19.9437 66.6746 17.6056V14.2517C66.6746 11.9135 65.4507 11.0127 62.7958 11.0127H57.5047V30.6763H55.6406V9.32617H62.7581C66.9947 9.32617 68.5387 11.281 68.5387 14.2517V17.6056C68.5387 20.5762 66.9947 22.5311 62.7581 22.5311H59.3123L57.8625 20.8445Z" fill="#231F20"/>
<path d="M77.0874 11.0127H70.6289V9.32617H85.4099V11.0127H78.9515V30.6763H77.0874V11.0127Z" fill="#231F20"/>
<path d="M95.7458 31.0018C90.3606 31.0018 88.4023 28.3186 88.4023 24.658V15.3437C88.4023 11.7023 90.3606 9 95.7458 9C101.131 9 103.089 11.7023 103.089 15.3437V24.658C103.089 28.3186 101.131 31.0018 95.7458 31.0018ZM101.225 24.5814V15.4204C101.225 12.3731 99.7753 10.7057 95.7458 10.7057C91.7163 10.7057 90.2664 12.3731 90.2664 15.4204V24.5814C90.2664 27.6287 91.7163 29.296 95.7458 29.296C99.7753 29.296 101.225 27.6287 101.225 24.5814Z" fill="#231F20"/>
<path d="M113.638 31.0018C111.613 30.9786 109.607 30.6026 107.707 29.8902L108.912 28.5294C110.739 28.9702 111.868 29.296 113.695 29.296C117.291 29.296 118.27 28.2228 118.27 25.4821C118.27 22.1857 118.233 21.8216 113.582 20.7483C108.498 19.5601 107.933 18.621 107.933 14.328C107.933 10.8207 109.195 9 114.448 9C116.283 9.03593 118.106 9.31292 119.871 9.82411L118.647 11.2423C117.159 10.9549 116.161 10.7057 114.523 10.7057C110.362 10.7057 109.797 11.7215 109.797 14.3854C109.797 17.8544 109.891 18.0077 114.297 19.1384C119.814 20.5567 120.134 21.3424 120.134 25.3863C120.134 28.8936 118.967 31.0018 113.638 31.0018Z" fill="#231F20"/>
</svg>
