<svg width="57" height="57" viewBox="0 0 57 57" fill="none" xmlns="http://www.w3.org/2000/svg">
<path d="M6.78125 28.3818L50.1297 28.3818" stroke="#06B6E5" stroke-width="0.555556" stroke-linecap="round"/>
<path d="M6.78125 28.3818L28.4555 6.70763" stroke="#06B6E5" stroke-width="0.555556"/>
<path d="M6.78125 28.3818L28.4555 50.056" stroke="#06B6E5" stroke-width="0.555556"/>
<path d="M50.1289 28.3818L28.4547 6.70763" stroke="#06B6E5" stroke-width="0.555556"/>
<path d="M50.1289 28.3818L28.4547 50.056" stroke="#06B6E5" stroke-width="0.555556"/>
<path d="M13.1699 13.0957V43.6677" stroke="#06B6E5" stroke-width="0.555556"/>
<path d="M43.7402 13.0957V43.6677" stroke="#06B6E5" stroke-width="0.555556"/>
<path d="M13.1699 13.0957L43.742 13.0957" stroke="#06B6E5" stroke-width="0.555556"/>
<path d="M13.1699 43.668L43.742 43.668" stroke="#06B6E5" stroke-width="0.555556"/>
<path d="M13.277 43.4117C13.1355 43.3525 12.9728 43.4193 12.9136 43.5609C12.8545 43.7024 12.9213 43.8651 13.0628 43.9243L13.277 43.4117ZM13.0628 43.9243L28.3488 50.3125L28.563 49.7999L13.277 43.4117L13.0628 43.9243Z" fill="#06B6E5"/>
<path d="M13.277 13.352C13.1355 13.4112 12.9728 13.3444 12.9136 13.2028C12.8545 13.0613 12.9213 12.8986 13.0628 12.8394L13.277 13.352ZM13.0628 12.8394L28.3488 6.45122L28.563 6.96381L13.277 13.352L13.0628 12.8394Z" fill="#06B6E5"/>
<path d="M43.4839 13.2028C43.4248 13.0613 43.4916 12.8986 43.6331 12.8394C43.7747 12.7803 43.9374 12.847 43.9965 12.9886L43.4839 13.2028ZM43.9965 12.9886L50.3847 28.2746L49.8721 28.4888L43.4839 13.2028L43.9965 12.9886Z" fill="#06B6E5"/>
<path d="M13.1699 13.0957L6.78174 28.3817" stroke="#06B6E5" stroke-width="0.555556" stroke-linecap="round"/>
<path d="M28.5613 50.3125C28.4198 50.3716 28.2571 50.3048 28.1979 50.1633C28.1388 50.0217 28.2056 49.859 28.3471 49.7999L28.5613 50.3125ZM43.8473 43.9243L28.5613 50.3125L28.3471 49.7999L43.6331 43.4117L43.8473 43.9243Z" fill="#06B6E5"/>
<path d="M43.7402 13.0957L28.4542 6.70752" stroke="#06B6E5" stroke-width="0.555556" stroke-linecap="round"/>
<path d="M43.4839 43.5609C43.4248 43.7024 43.4916 43.8651 43.6331 43.9243C43.7747 43.9834 43.9374 43.9166 43.9965 43.7751L43.4839 43.5609ZM43.9965 43.7751L50.3847 28.4891L49.8721 28.2748L43.4839 43.5609L43.9965 43.7751Z" fill="#06B6E5"/>
<path d="M6.52544 28.4891C6.46628 28.3475 6.53308 28.1848 6.67463 28.1257C6.81618 28.0665 6.97888 28.1333 7.03803 28.2748L6.52544 28.4891ZM12.9136 43.7751L6.52544 28.4891L7.03803 28.2748L13.4262 43.5609L12.9136 43.7751Z" fill="#06B6E5"/>
<path d="M13.1699 43.668L28.4559 6.70775" stroke="#06B6E5" stroke-width="0.555556"/>
<path d="M13.1699 13.0957L28.4559 50.0559" stroke="#06B6E5" stroke-width="0.555556"/>
<path d="M43.7402 43.668L28.4542 6.70775" stroke="#06B6E5" stroke-width="0.555556"/>
<path d="M43.7402 13.0957L28.4542 50.0559" stroke="#06B6E5" stroke-width="0.555556"/>
<path d="M13.1289 43.708L43.7809 13.0561" stroke="#06B6E5" stroke-width="0.555556"/>
<path d="M28.4551 50.0557L28.4551 6.70726" stroke="#06B6E5" stroke-width="0.555556" stroke-linecap="round"/>
<path d="M43.7812 43.708L13.1293 13.0561" stroke="#06B6E5" stroke-width="0.555556"/>
<path d="M50.1289 28.3818L13.1687 13.0958" stroke="#06B6E5" stroke-width="0.555556"/>
<path d="M6.78125 28.3818L43.7415 13.0958" stroke="#06B6E5" stroke-width="0.555556"/>
<path d="M50.1289 28.3818L13.1687 43.6679" stroke="#06B6E5" stroke-width="0.555556"/>
<path d="M6.78125 28.3818L43.7415 43.6679" stroke="#06B6E5" stroke-width="0.555556"/>
<path fill-rule="evenodd" clip-rule="evenodd" d="M31.2717 4.06445H25.4315L24.4129 5.49086C24.3078 5.63794 24.413 5.84223 24.5937 5.84223H32.1095C32.2902 5.84223 32.3954 5.63794 32.2903 5.49086L31.2717 4.06445ZM25.6461 4.35254H31.0532L31.3301 4.92806H25.3691L25.6461 4.35254ZM27.4922 5.25467C27.4922 5.19492 27.5406 5.14648 27.6004 5.14648H29.0997C29.1595 5.14648 29.2079 5.19492 29.2079 5.25467C29.2079 5.31441 29.1595 5.36285 29.0997 5.36285H27.6004C27.5406 5.36285 27.4922 5.31441 27.4922 5.25467Z" fill="#06B6E5"/>
<path fill-rule="evenodd" clip-rule="evenodd" d="M25.765 0C25.5809 0 25.4316 0.149238 25.4316 0.333333V3.87457H31.2724V0.333333C31.2724 0.149238 31.1231 0 30.939 0H25.765ZM25.898 0.37793C25.8734 0.37793 25.8535 0.397828 25.8535 0.422374V3.45195C25.8535 3.4765 25.8734 3.4964 25.898 3.4964H30.8052C30.8297 3.4964 30.8496 3.4765 30.8496 3.45195V0.422374C30.8496 0.397828 30.8297 0.37793 30.8052 0.37793H25.898Z" fill="#06B6E5"/>
<path fill-rule="evenodd" clip-rule="evenodd" d="M31.2717 52.7822H25.4315L24.4129 51.3558C24.3078 51.2087 24.413 51.0044 24.5937 51.0044H32.1095C32.2902 51.0044 32.3954 51.2087 32.2903 51.3558L31.2717 52.7822ZM25.6459 52.4942H31.0531L31.33 51.9187H25.369L25.6459 52.4942ZM27.4921 51.593C27.4921 51.6528 27.5405 51.7012 27.6003 51.7012H29.0996C29.1594 51.7012 29.2078 51.6528 29.2078 51.593C29.2078 51.5333 29.1594 51.4849 29.0996 51.4849H27.6003C27.5405 51.4849 27.4921 51.5333 27.4921 51.593Z" fill="#06B6E5"/>
<path fill-rule="evenodd" clip-rule="evenodd" d="M25.7669 56.8457C25.5828 56.8457 25.4336 56.6965 25.4336 56.5124V52.9711H31.2743V56.5124C31.2743 56.6965 31.1251 56.8457 30.941 56.8457H25.7669ZM25.8999 56.4678C25.8754 56.4678 25.8555 56.4479 25.8555 56.4233V53.3937C25.8555 53.3692 25.8754 53.3493 25.8999 53.3493H30.8071C30.8317 53.3493 30.8516 53.3692 30.8516 53.3937V56.4233C30.8516 56.4479 30.8317 56.4678 30.8071 56.4678H25.8999Z" fill="#06B6E5"/>
<path fill-rule="evenodd" clip-rule="evenodd" d="M13.2486 9.14008L9.11898 13.2697L9.4073 14.9986C9.43703 15.1769 9.65583 15.247 9.78363 15.1192L15.0981 9.80473C15.2259 9.67692 15.1558 9.45813 14.9775 9.4284L13.2486 9.14008ZM9.47564 13.3193L13.2991 9.49587L13.9018 9.70702L9.68679 13.922L9.47564 13.3193ZM11.4188 12.6512C11.3766 12.6089 11.3766 12.5404 11.4188 12.4982L12.479 11.438C12.5213 11.3957 12.5898 11.3957 12.632 11.438C12.6743 11.4802 12.6743 11.5487 12.632 11.591L11.5718 12.6512C11.5296 12.6934 11.4611 12.6934 11.4188 12.6512Z" fill="#06B6E5"/>
<path fill-rule="evenodd" clip-rule="evenodd" d="M6.4818 10.1598C6.35162 10.29 6.35162 10.501 6.4818 10.6312L8.98583 13.1352L13.1158 9.00523L10.6118 6.5012C10.4816 6.37103 10.2706 6.37103 10.1404 6.5012L6.4818 10.1598ZM6.84393 10.3328C6.82657 10.3502 6.82657 10.3783 6.84393 10.3957L8.98616 12.5379C9.00352 12.5553 9.03166 12.5553 9.04902 12.5379L12.5189 9.068C12.5363 9.05065 12.5363 9.02251 12.5189 9.00515L10.3767 6.86291C10.3593 6.84556 10.3312 6.84556 10.3138 6.86291L6.84393 10.3328Z" fill="#06B6E5"/>
<path fill-rule="evenodd" clip-rule="evenodd" d="M4.0625 25.5691L4.0625 31.4093L5.48891 32.428C5.63599 32.533 5.84028 32.4279 5.84028 32.2471L5.84028 24.7313C5.84028 24.5506 5.63599 24.4454 5.48891 24.5505L4.0625 25.5691ZM4.35156 31.1928L4.35156 25.7857L4.92708 25.5088L4.92708 31.4697L4.35156 31.1928ZM5.25271 29.3477C5.19297 29.3477 5.14453 29.2992 5.14453 29.2395L5.14453 27.7401C5.14453 27.6804 5.19297 27.6319 5.25271 27.6319C5.31246 27.6319 5.36089 27.6804 5.36089 27.7401L5.36089 29.2395C5.36089 29.2992 5.31246 29.3477 5.25271 29.3477Z" fill="#06B6E5"/>
<path fill-rule="evenodd" clip-rule="evenodd" d="M-1.45705e-08 31.0749C-6.52342e-09 31.259 0.149238 31.4082 0.333333 31.4082L3.87457 31.4082L3.87457 25.5675L0.333333 25.5675C0.149238 25.5675 -2.48782e-07 25.7167 -2.40735e-07 25.9008L-1.45705e-08 31.0749ZM0.376953 30.9419C0.376953 30.9664 0.396852 30.9863 0.421398 30.9863L3.45098 30.9863C3.47552 30.9863 3.49542 30.9664 3.49542 30.9419L3.49542 26.0347C3.49542 26.0101 3.47552 25.9902 3.45098 25.9902L0.421397 25.9902C0.396851 25.9902 0.376953 26.0101 0.376953 26.0347L0.376953 30.9419Z" fill="#06B6E5"/>
<path fill-rule="evenodd" clip-rule="evenodd" d="M52.6758 31.4074L52.6758 25.5673L51.2494 24.5486C51.1023 24.4436 50.898 24.5487 50.898 24.7295L50.898 32.2452C50.898 32.426 51.1023 32.5311 51.2494 32.4261L52.6758 31.4074ZM52.3887 25.7837L52.3887 31.1909L51.8132 31.4678L51.8132 25.5068L52.3887 25.7837ZM51.4875 27.6289C51.5473 27.6289 51.5957 27.6773 51.5957 27.7371L51.5957 29.2364C51.5957 29.2962 51.5473 29.3446 51.4875 29.3446C51.4278 29.3446 51.3793 29.2962 51.3793 29.2364L51.3793 27.7371C51.3793 27.6773 51.4278 27.6289 51.4875 27.6289Z" fill="#06B6E5"/>
<path fill-rule="evenodd" clip-rule="evenodd" d="M56.7383 25.9017C56.7383 25.7176 56.589 25.5684 56.4049 25.5684L52.8637 25.5684L52.8637 31.4091L56.4049 31.4091C56.589 31.4091 56.7383 31.2598 56.7383 31.0757L56.7383 25.9017ZM56.3613 26.0347C56.3613 26.0101 56.3414 25.9902 56.3169 25.9902L53.2873 25.9902C53.2628 25.9902 53.2429 26.0101 53.2429 26.0347L53.2429 30.9419C53.2429 30.9664 53.2628 30.9863 53.2873 30.9863L56.3169 30.9863C56.3414 30.9863 56.3613 30.9664 56.3613 30.9419L56.3613 26.0347Z" fill="#06B6E5"/>
<path fill-rule="evenodd" clip-rule="evenodd" d="M13.2486 47.7066L9.11898 43.577L9.4073 41.8481C9.43703 41.6698 9.65583 41.5997 9.78363 41.7275L15.0981 47.042C15.2259 47.1698 15.1558 47.3886 14.9775 47.4183L13.2486 47.7066ZM9.47564 43.5264L13.2991 47.3498L13.9018 47.1387L9.68679 42.9237L9.47564 43.5264ZM11.4188 44.1936C11.3766 44.2358 11.3766 44.3043 11.4188 44.3466L12.479 45.4068C12.5213 45.449 12.5898 45.449 12.632 45.4068C12.6743 45.3645 12.6743 45.296 12.632 45.2538L11.5718 44.1936C11.5296 44.1513 11.4611 44.1513 11.4188 44.1936Z" fill="#06B6E5"/>
<path fill-rule="evenodd" clip-rule="evenodd" d="M6.4818 46.6859C6.35162 46.5557 6.35162 46.3447 6.4818 46.2145L8.98583 43.7105L13.1158 47.8405L10.6118 50.3445C10.4816 50.4747 10.2706 50.4747 10.1404 50.3445L6.4818 46.6859ZM6.84393 46.5129C6.82657 46.4955 6.82657 46.4674 6.84393 46.45L8.98616 44.3078C9.00352 44.2904 9.03166 44.2904 9.04902 44.3078L12.5189 47.7777C12.5363 47.7951 12.5363 47.8232 12.5189 47.8406L10.3767 49.9828C10.3593 50.0001 10.3312 50.0001 10.3138 49.9828L6.84393 46.5129Z" fill="#06B6E5"/>
<path fill-rule="evenodd" clip-rule="evenodd" d="M47.524 13.2945L43.3944 9.16488L41.6654 9.4532C41.4872 9.48293 41.4171 9.70173 41.5449 9.82953L46.8593 15.144C46.9871 15.2718 47.2059 15.2017 47.2357 15.0234L47.524 13.2945ZM43.3448 9.52154L47.1682 13.345L46.957 13.9477L42.742 9.73269L43.3448 9.52154ZM44.0119 11.4638C44.0542 11.4215 44.1227 11.4215 44.1649 11.4638L45.2251 12.524C45.2674 12.5662 45.2674 12.6347 45.2251 12.6769C45.1829 12.7192 45.1144 12.7192 45.0721 12.6769L44.0119 11.6167C43.9697 11.5745 43.9697 11.506 44.0119 11.4638Z" fill="#06B6E5"/>
<path fill-rule="evenodd" clip-rule="evenodd" d="M46.5033 6.52769C46.3731 6.39752 46.1621 6.39752 46.0319 6.52769L43.5278 9.03172L47.6579 13.1617L50.1619 10.6577C50.2921 10.5275 50.2921 10.3165 50.1619 10.1863L46.5033 6.52769ZM46.3303 6.88983C46.3129 6.87247 46.2848 6.87247 46.2674 6.88983L44.1252 9.03206C44.1078 9.04942 44.1078 9.07756 44.1252 9.09492L47.5951 12.5648C47.6124 12.5822 47.6406 12.5822 47.6579 12.5648L49.8002 10.4226C49.8175 10.4052 49.8175 10.3771 49.8002 10.3597L46.3303 6.88983Z" fill="#06B6E5"/>
<path fill-rule="evenodd" clip-rule="evenodd" d="M47.524 43.5493L43.3944 47.6789L41.6654 47.3906C41.4872 47.3608 41.4171 47.142 41.5449 47.0142L46.8593 41.6997C46.9871 41.5719 47.2059 41.6421 47.2357 41.8203L47.524 43.5493ZM43.3448 47.3222L47.1682 43.4988L46.957 42.896L42.742 47.1111L43.3448 47.3222ZM44.0119 45.38C44.0542 45.4222 44.1227 45.4222 44.1649 45.38L45.2251 44.3198C45.2674 44.2775 45.2674 44.2091 45.2251 44.1668C45.1829 44.1246 45.1144 44.1246 45.0721 44.1668L44.0119 45.227C43.9697 45.2693 43.9697 45.3377 44.0119 45.38Z" fill="#06B6E5"/>
<path fill-rule="evenodd" clip-rule="evenodd" d="M46.5033 50.317C46.3731 50.4472 46.1621 50.4472 46.0319 50.317L43.5278 47.813L47.6579 43.683L50.1619 46.187C50.2921 46.3172 50.2921 46.5283 50.1619 46.6584L46.5033 50.317ZM46.3303 49.9559C46.3129 49.9732 46.2848 49.9732 46.2674 49.9559L44.1252 47.8136C44.1078 47.7963 44.1078 47.7681 44.1252 47.7508L47.5951 44.2809C47.6124 44.2635 47.6406 44.2635 47.6579 44.2809L49.8002 46.4231C49.8175 46.4405 49.8175 46.4686 49.8002 46.486L46.3303 49.9559Z" fill="#06B6E5"/>
<circle cx="20.6619" cy="9.71756" r="2.11111" fill="#F72265"/>
<circle cx="20.6619" cy="47.1472" r="2.11111" fill="#F72265"/>
<circle cx="36.1072" cy="9.71756" r="2.11111" fill="#F72265"/>
<circle cx="28.3516" cy="28.4814" r="3.21094" fill="#F72265"/>
<circle cx="36.1072" cy="47.1472" r="2.11111" fill="#F72265"/>
<circle cx="47.0467" cy="20.6951" r="2.11111" fill="#F72265"/>
<circle cx="9.69314" cy="20.6951" r="2.11111" fill="#F72265"/>
<circle cx="47.0467" cy="36.2322" r="2.11111" fill="#F72265"/>
<circle cx="9.69314" cy="36.2322" r="2.11111" fill="#F72265"/>
</svg>
