<svg width="173" height="40" viewBox="0 0 173 40" fill="none" xmlns="http://www.w3.org/2000/svg">
<path fill-rule="evenodd" clip-rule="evenodd" d="M28.5901 31.807L20.3033 26.9579V36.6562L28.5901 31.807ZM28.5901 8.19297L20.3033 3.34381V13.0421L28.5901 8.19297ZM16.2138 1L0 10.4884V29.5126L16.2138 39V24.5657L8.41276 19.9995L16.2138 15.4343V1ZM16.2701 20.0005L32.4604 29.4735V10.5265L16.2701 20.0005Z" fill="#00A971"/>
<path fill-rule="evenodd" clip-rule="evenodd" d="M132.201 10.5119H130.634C130.29 10.5119 130.006 10.802 130.006 11.1487V18.5475H124.956V11.1487C124.956 10.802 124.7 10.5129 124.329 10.5129H122.761C122.418 10.5129 122.132 10.802 122.132 11.1487V28.8981C122.132 29.2459 122.418 29.535 122.76 29.535H124.329C124.7 29.535 124.956 29.2459 124.956 28.8981V21.4099H130.004V28.8981C130.004 29.2459 130.289 29.535 130.633 29.535H132.2C132.571 29.535 132.828 29.2459 132.828 28.8981V11.1498C132.828 10.803 132.571 10.5139 132.2 10.5139L132.201 10.5119ZM94.3789 27.3085C94.3789 26.9618 94.093 26.6726 93.7507 26.6726H86.668V21.4541H93.7507C94.093 21.4541 94.3778 21.1948 94.3778 20.8183V19.2286C94.3778 18.8819 94.093 18.5928 93.7507 18.5928H86.668V13.3742H93.7507C94.093 13.3742 94.3778 13.1139 94.3778 12.7384V11.1498C94.3778 10.803 94.093 10.5139 93.7507 10.5139H84.4721C84.1288 10.5139 83.8439 10.802 83.8439 11.1498V28.8981C83.8439 29.2459 84.1288 29.535 84.4721 29.535H93.7507C94.093 29.535 94.3789 29.2747 94.3789 28.8981V27.3085ZM146.268 27.3085C146.268 26.9618 145.983 26.6726 145.64 26.6726H138.558V21.4541H145.64C145.983 21.4541 146.267 21.1948 146.267 20.8183V19.2286C146.267 18.8819 145.983 18.5928 145.64 18.5928H138.558V13.3742H145.64C145.983 13.3742 146.267 13.1139 146.267 12.7384V11.1498C146.267 10.803 145.983 10.5139 145.64 10.5139H137.932H136.362C136.018 10.5139 135.734 10.802 135.734 11.1498V28.8981C135.734 29.2459 136.018 29.535 136.362 29.535H145.64C145.983 29.535 146.268 29.2747 146.268 28.8981V27.3085ZM173 27.3085C173 26.9618 172.715 26.6726 172.373 26.6726H165.289V21.4541H172.373C172.715 21.4541 173 21.1948 173 20.8183V19.2286C173 18.8819 172.714 18.5928 172.373 18.5928H165.289V13.3742H172.373C172.714 13.3742 173 13.1139 173 12.7384V11.1498C173 10.803 172.714 10.5139 172.373 10.5139H164.663H163.094C162.751 10.5139 162.466 10.802 162.466 11.1498V28.8981C162.466 29.2459 162.751 29.535 163.093 29.535H172.373C172.715 29.535 173 29.2747 173 28.8981V27.3085ZM99.5034 15.2983V16.3837C99.5034 17.213 100.292 17.6987 101.195 18.0701L104.945 19.67C106.353 20.2987 107.34 21.413 107.34 23.1271V25.155C107.34 26.8414 103.844 29.6698 101.984 29.6698C100.716 29.6698 98.7994 28.7551 97.3054 27.9269C96.9672 27.7561 96.7418 27.3548 96.9385 26.898L97.4181 25.9267C97.6148 25.5265 98.038 25.4411 98.4049 25.6407C99.6161 26.2693 101.223 27.041 101.984 27.041C102.83 27.041 104.606 25.5841 104.606 24.7558V23.4985C104.606 22.5272 103.873 21.984 102.858 21.5848L99.363 20.098C98.0104 19.527 96.7695 18.3561 96.7695 16.7562V14.899C96.7695 13.0409 100.461 10.3555 102.238 10.3555C103.422 10.3555 105.339 11.2413 106.608 11.9276C107.002 12.1272 107.115 12.5851 106.946 12.9267L106.495 13.899C106.353 14.2416 105.903 14.3558 105.508 14.184C104.55 13.7271 102.943 12.9843 102.238 12.9843C101.421 12.9843 99.5034 14.3558 99.5034 15.2993V15.2983ZM154.555 12.9987H151.789V19.3603H154.583C155.753 19.3603 157.122 17.2501 157.122 16.1224C157.122 15.0235 155.696 12.9997 154.555 12.9997V12.9987ZM154.44 21.8461H151.788V28.9002C151.788 29.2757 151.531 29.536 151.132 29.536H149.62C149.278 29.536 148.964 29.2757 148.964 28.9002V11.8422C148.964 11.1776 149.735 10.5129 150.362 10.5129H154.926C157.007 10.5129 159.77 13.8033 159.77 15.9712C159.77 17.4167 158.52 19.5898 157.179 20.4283C158.263 21.0065 159.745 22.5386 159.745 23.9553V28.8992C159.745 29.2459 159.461 29.535 159.118 29.535H157.55C157.207 29.535 156.922 29.2459 156.922 28.8992V24.3885C156.922 23.3771 155.525 21.8451 154.44 21.8451V21.8461ZM115.134 12.9987H112.367V19.3603H115.163C116.332 19.3603 117.538 17.2501 117.538 16.1224C117.538 15.0235 116.275 12.9997 115.134 12.9997V12.9987ZM115.02 21.8461H112.367V28.9002C112.367 29.2757 112.111 29.536 111.712 29.536H110.199C109.857 29.536 109.543 29.2757 109.543 28.9002V11.8422C109.543 11.1776 110.314 10.5129 110.941 10.5129H115.505C117.587 10.5129 120.223 13.9062 120.223 16.074C120.223 17.5196 119.166 19.4642 117.946 20.5888C117.345 21.1413 116.392 21.8441 115.02 21.8441V21.8461ZM62.4677 29.7027C60.5905 29.7027 57.0768 27.2951 57.0768 25.2168V11.2712C57.0768 10.9244 57.3883 10.6384 57.7316 10.6384H59.2369C59.6047 10.6384 59.8886 10.9244 59.8886 11.2712V24.8433C59.8886 25.8536 61.5865 27.078 62.4677 27.078C63.35 27.078 65.0592 25.6993 65.0592 24.6889V11.1168C65.0592 10.7701 65.3154 10.4841 65.6586 10.4841H67.2193C67.5625 10.4841 67.874 10.7701 67.874 11.1168V25.0624C67.874 27.0791 64.344 29.7027 62.4677 29.7027ZM76.0603 27.0482H73.39V20.6886H76.089C77.2582 20.6886 78.6282 22.6877 78.6282 23.8154C78.6282 24.9143 77.2019 27.0482 76.0603 27.0482ZM73.39 12.9987H76.0603C77.2019 12.9987 78.6282 14.6552 78.6282 15.753C78.6282 16.8807 77.2582 18.7214 76.089 18.7214H73.39V12.9987ZM78.8137 19.706C80.113 18.8376 81.4226 17.1523 81.4226 15.753C81.4226 13.5852 78.5135 10.5129 76.4323 10.5129H71.9646C71.3365 10.5129 70.5669 11.1776 70.5669 11.8422V28.8992C70.5669 29.2747 70.8805 29.535 71.2228 29.535H76.5276C78.6098 29.535 81.4226 25.9833 81.4226 23.8144C81.4226 22.4161 80.113 20.5837 78.8137 19.706ZM48.3556 20.1289L54.5653 12.8402C54.7887 12.5768 54.7805 12.189 54.5007 11.943L53.3131 10.9028C53.0539 10.6775 52.6511 10.7073 52.4278 10.9697L46.9969 17.3427V11.1498C46.9969 10.803 46.7407 10.5139 46.3708 10.5139H44.8009C44.4587 10.5119 44.1738 10.7999 44.1738 11.1487V28.8992C44.1738 29.2459 44.4587 29.535 44.8009 29.535H46.3718C46.7417 29.535 46.9989 29.2459 46.9989 28.8992V22.9141L52.4278 29.2891C52.6511 29.5515 53.0539 29.5813 53.3131 29.3539L54.5007 28.3147C54.7815 28.0688 54.7887 27.681 54.5653 27.4186L48.3556 20.1289Z" fill="#443D4E"/>
</svg>
