<svg width="155" height="48" viewBox="0 0 155 48" fill="none" xmlns="http://www.w3.org/2000/svg">
<g clip-path="url(#clip0_2690_8200)">
<path fill-rule="evenodd" clip-rule="evenodd" d="M25.6154 34.5642L18.1909 30.2255V38.9029L25.6154 34.5642ZM25.6154 13.4358L18.1909 9.09709V17.7745L25.6154 13.4358ZM14.5268 7L0 15.4896V32.5113L14.5268 41V28.0851L7.53745 23.9995L14.5268 19.9149V7ZM14.5773 24.0005L29.083 32.4763V15.5237L14.5773 24.0005Z" fill="#141A1F"/>
<path fill-rule="evenodd" clip-rule="evenodd" d="M118.447 15.511H117.042C116.735 15.511 116.479 15.7706 116.479 16.0809V22.7008H111.955V16.0809C111.955 15.7706 111.726 15.5119 111.393 15.5119H109.989C109.681 15.5119 109.425 15.7706 109.425 16.0809V31.9619C109.425 32.2731 109.681 32.5317 109.988 32.5317H111.393C111.726 32.5317 111.955 32.2731 111.955 31.9619V25.2619H116.478V31.9619C116.478 32.2731 116.734 32.5317 117.041 32.5317H118.446C118.778 32.5317 119.008 32.2731 119.008 31.9619V16.0818C119.008 15.7715 118.778 15.5129 118.446 15.5129L118.447 15.511ZM84.5595 30.5396C84.5595 30.2294 84.3034 29.9707 83.9967 29.9707H77.651V25.3015H83.9967C84.3034 25.3015 84.5586 25.0695 84.5586 24.7325V23.3102C84.5586 23 84.3034 22.7413 83.9967 22.7413H77.651V18.0721H83.9967C84.3034 18.0721 84.5586 17.8392 84.5586 17.5032V16.0818C84.5586 15.7715 84.3034 15.5129 83.9967 15.5129H75.6835C75.3759 15.5129 75.1207 15.7706 75.1207 16.0818V31.9619C75.1207 32.2731 75.3759 32.5317 75.6835 32.5317H83.9967C84.3034 32.5317 84.5595 32.2988 84.5595 31.9619V30.5396ZM131.05 30.5396C131.05 30.2294 130.794 29.9707 130.487 29.9707H124.142V25.3015H130.487C130.794 25.3015 131.049 25.0695 131.049 24.7325V23.3102C131.049 23 130.794 22.7413 130.487 22.7413H124.142V18.0721H130.487C130.794 18.0721 131.049 17.8392 131.049 17.5032V16.0818C131.049 15.7715 130.794 15.5129 130.487 15.5129H123.581H122.174C121.867 15.5129 121.611 15.7706 121.611 16.0818V31.9619C121.611 32.2731 121.867 32.5317 122.174 32.5317H130.487C130.794 32.5317 131.05 32.2988 131.05 31.9619V30.5396ZM155 30.5396C155 30.2294 154.745 29.9707 154.438 29.9707H148.092V25.3015H154.438C154.745 25.3015 155 25.0695 155 24.7325V23.3102C155 23 154.744 22.7413 154.438 22.7413H148.092V18.0721H154.438C154.744 18.0721 155 17.8392 155 17.5032V16.0818C155 15.7715 154.744 15.5129 154.438 15.5129H147.531H146.125C145.818 15.5129 145.562 15.7706 145.562 16.0818V31.9619C145.562 32.2731 145.818 32.5317 146.124 32.5317H154.438C154.745 32.5317 155 32.2988 155 31.9619V30.5396ZM89.1508 19.7936V20.7648C89.1508 21.5068 89.8578 21.9413 90.6666 22.2736L94.0258 23.7052C95.2882 24.2676 96.1723 25.2646 96.1723 26.7983V28.6128C96.1723 30.1216 93.0398 32.6523 91.3735 32.6523C90.2369 32.6523 88.5201 31.8339 87.1816 31.0929C86.8786 30.94 86.6766 30.581 86.8529 30.1723L87.2825 29.3032C87.4588 28.9451 87.838 28.8687 88.1667 29.0473C89.2518 29.6098 90.6914 30.3002 91.3735 30.3002C92.1309 30.3002 93.7229 28.9967 93.7229 28.2556V27.1307C93.7229 26.2616 93.0655 25.7756 92.1566 25.4184L89.0251 24.0881C87.8132 23.5772 86.7014 22.5296 86.7014 21.0981V19.4364C86.7014 17.7738 90.0092 15.3711 91.6012 15.3711C92.6616 15.3711 94.3793 16.1637 95.5159 16.7777C95.8694 16.9563 95.9703 17.366 95.8189 17.6716L95.4149 18.5416C95.2882 18.8481 94.8843 18.9503 94.5308 18.7966C93.6724 18.3879 92.2328 17.7232 91.6012 17.7232C90.8686 17.7232 89.1508 18.9503 89.1508 19.7945V19.7936ZM138.475 17.7361H135.996V23.4281H138.5C139.548 23.4281 140.775 21.5399 140.775 20.531C140.775 19.5478 139.497 17.737 138.475 17.737V17.7361ZM138.372 25.6522H135.995V31.9637C135.995 32.2997 135.766 32.5327 135.407 32.5327H134.053C133.747 32.5327 133.466 32.2997 133.466 31.9637V16.7013C133.466 16.1066 134.156 15.5119 134.718 15.5119H138.807C140.672 15.5119 143.147 18.456 143.147 20.3957C143.147 21.6891 142.027 23.6334 140.826 24.3836C141.796 24.901 143.125 26.2718 143.125 27.5394V31.9628C143.125 32.2731 142.871 32.5317 142.563 32.5317H141.158C140.851 32.5317 140.596 32.2731 140.596 31.9628V27.927C140.596 27.022 139.343 25.6513 138.372 25.6513V25.6522ZM103.155 17.7361H100.676V23.4281H103.181C104.228 23.4281 105.309 21.5399 105.309 20.531C105.309 19.5478 104.177 17.737 103.155 17.737V17.7361ZM103.053 25.6522H100.676V31.9637C100.676 32.2997 100.447 32.5327 100.089 32.5327H98.7338C98.4271 32.5327 98.1462 32.2997 98.1462 31.9637V16.7013C98.1462 16.1066 98.8366 15.5119 99.3985 15.5119H103.488C105.353 15.5119 107.714 18.548 107.714 20.4877C107.714 21.7811 106.768 23.521 105.674 24.5272C105.136 25.0216 104.283 25.6504 103.053 25.6504V25.6522ZM55.9686 32.6818C54.2867 32.6818 51.1386 30.5276 51.1386 28.668V16.1904C51.1386 15.8802 51.4177 15.6243 51.7253 15.6243H53.0739C53.4035 15.6243 53.6578 15.8802 53.6578 16.1904V28.3339C53.6578 29.2379 55.1791 30.3334 55.9686 30.3334C56.7591 30.3334 58.2905 29.0998 58.2905 28.1958V16.0523C58.2905 15.7421 58.52 15.4862 58.8275 15.4862H60.2258C60.5333 15.4862 60.8124 15.7421 60.8124 16.0523V28.53C60.8124 30.3343 57.6496 32.6818 55.9686 32.6818ZM68.147 30.3067H65.7545V24.6165H68.1727C69.2202 24.6165 70.4477 26.4052 70.4477 27.4142C70.4477 28.3974 69.1697 30.3067 68.147 30.3067ZM65.7545 17.7361H68.147C69.1697 17.7361 70.4477 19.2182 70.4477 20.2005C70.4477 21.2094 69.2202 22.8564 68.1727 22.8564H65.7545V17.7361ZM70.6139 23.7374C71.778 22.9604 72.9513 21.4525 72.9513 20.2005C72.9513 18.2608 70.3449 15.5119 68.4802 15.5119H64.4774C63.9146 15.5119 63.2251 16.1066 63.2251 16.7013V31.9628C63.2251 32.2988 63.5061 32.5317 63.8127 32.5317H68.5656C70.4312 32.5317 72.9513 29.3539 72.9513 27.4133C72.9513 26.1622 71.778 24.5226 70.6139 23.7374ZM43.3248 24.1157L48.8884 17.5943C49.0885 17.3586 49.0812 17.0116 48.8305 16.7916L47.7665 15.8608C47.5342 15.6592 47.1734 15.6859 46.9733 15.9207L42.1074 21.6228V16.0818C42.1074 15.7715 41.8779 15.5129 41.5465 15.5129H40.14C39.8334 15.511 39.5781 15.7688 39.5781 16.0809V31.9628C39.5781 32.2731 39.8334 32.5317 40.14 32.5317H41.5474C41.8788 32.5317 42.1093 32.2731 42.1093 31.9628V26.6078L46.9733 32.3117C47.1734 32.5465 47.5342 32.5732 47.7665 32.3697L48.8305 31.4399C49.0821 31.2199 49.0885 30.8728 48.8884 30.6381L43.3248 24.1157Z" fill="#141A1F"/>
</g>
<defs>
<clipPath id="clip0_2690_8200">
<rect width="155" height="48" fill="white"/>
</clipPath>
</defs>
</svg>
