<svg width="188" height="40" viewBox="0 0 188 40" fill="none" xmlns="http://www.w3.org/2000/svg">
<g clip-path="url(#clip0_4273_10403)">
<path d="M23.6629 3V12.3315L11.5281 18.3986V9.09783L23.6629 3ZM38.8314 9.09783V18.3986L26.6966 12.3315V3L38.8314 9.09783ZM23.6629 27.3913V36.7228L11.5281 30.6558V21.3243L23.6629 27.3913ZM38.8314 21.3243V30.6558L26.6966 36.7228V27.3913L38.8314 21.3243ZM8.49438 9.15942L0 3.12319V37L8.49438 30.933V9.15942Z" fill="#00517D"/>
<path d="M64.2541 26.4061C63.9507 25.9133 63.5866 25.3898 63.1619 24.8662C62.7372 24.3119 62.3125 23.7883 61.8574 23.2956C61.4024 22.8028 60.917 22.3101 60.4316 21.8481C59.9462 21.3862 59.4608 20.9858 59.0057 20.6778V26.4369H56.7305V13.5945H59.0361V18.8916C59.4305 18.4912 59.8552 18.0601 60.2799 17.5981C60.7046 17.1362 61.1597 16.6742 61.5844 16.1814C62.0091 15.7195 62.4338 15.2575 62.7979 14.7956C63.1923 14.3644 63.526 13.9641 63.8597 13.5945H66.6204C66.226 14.0564 65.8012 14.5492 65.3462 15.042C64.8911 15.5347 64.4361 16.0583 63.9507 16.5818C63.4653 17.1054 63.0102 17.5981 62.5248 18.0909C62.0395 18.5836 61.5844 19.0764 61.1293 19.5383C61.6451 19.9387 62.1608 20.4006 62.6765 20.9242C63.1923 21.4477 63.7383 22.0021 64.2237 22.618C64.7395 23.2032 65.2248 23.8499 65.6799 24.4967C66.135 25.1434 66.5597 25.7901 66.9541 26.4369H64.2541V26.4061ZM75.1451 26.5293C74.2956 26.5293 73.5372 26.4061 72.9305 26.1597C72.3237 25.9133 71.808 25.5438 71.3833 25.0818C70.9889 24.6199 70.6855 24.0963 70.4732 23.4804C70.2911 22.8644 70.1698 22.1869 70.1698 21.4477V13.4405H72.4754V21.2322C72.4754 21.8173 72.5361 22.3101 72.6574 22.7104C72.7788 23.1108 72.9608 23.4496 73.2035 23.7267C73.4462 24.0039 73.7192 24.1887 74.0529 24.3119C74.3866 24.4351 74.7507 24.4967 75.1451 24.4967C75.5394 24.4967 75.9035 24.4351 76.2372 24.3119C76.5709 24.1887 76.8439 24.0039 77.0866 23.7267C77.3293 23.4804 77.5114 23.1416 77.6327 22.7104C77.754 22.3101 77.8147 21.8173 77.8147 21.2322V13.4713H80.1203V21.4785C80.1203 22.2177 80.0293 22.8952 79.817 23.5112C79.6046 24.1271 79.3012 24.6506 78.9069 25.1126C78.5125 25.5746 77.9664 25.9133 77.3597 26.1905C76.7529 26.4061 75.9945 26.5293 75.1451 26.5293ZM88.9484 26.5293C88.281 26.5293 87.6136 26.4985 86.9158 26.4677C86.2484 26.4369 85.6417 26.3445 85.126 26.1905V13.7793C85.399 13.7177 85.672 13.6869 85.9754 13.6561C86.2788 13.6253 86.5821 13.5637 86.9158 13.5637C87.2192 13.5329 87.5529 13.5329 87.8563 13.5021C88.1597 13.5021 88.463 13.4713 88.7361 13.4713C89.4945 13.4713 90.2226 13.5329 90.8597 13.6561C91.5271 13.7793 92.0731 13.9641 92.5585 14.2412C93.0439 14.5184 93.408 14.8572 93.681 15.3191C93.954 15.7503 94.0754 16.3046 94.0754 16.9514C94.0754 17.5673 93.9237 18.0601 93.6507 18.4912C93.3776 18.9224 92.9529 19.2612 92.4675 19.5383C93.2259 19.7847 93.8023 20.1851 94.1664 20.6778C94.5304 21.1706 94.7125 21.8173 94.7125 22.5872C94.7125 23.9115 94.2271 24.897 93.2866 25.5438C92.3462 26.2213 90.89 26.5293 88.9484 26.5293ZM87.4012 18.7992H89.0091C89.8889 18.7992 90.5563 18.676 91.072 18.4296C91.5574 18.1833 91.8304 17.7213 91.8304 17.0746C91.8304 16.4586 91.5574 16.0275 91.072 15.7503C90.5563 15.5039 89.8889 15.3499 89.0698 15.3499C88.7057 15.3499 88.4024 15.3499 88.1293 15.3807C87.8563 15.4115 87.6136 15.4115 87.4316 15.4423V18.7992H87.4012ZM87.4012 20.6162V24.5275C87.6439 24.5583 87.917 24.5583 88.2203 24.5891C88.5237 24.5891 88.7664 24.6199 89.0091 24.6199C89.4945 24.6199 89.9192 24.5891 90.3439 24.5275C90.7383 24.4659 91.1023 24.3735 91.4057 24.2195C91.7091 24.0655 91.9518 23.8499 92.1035 23.6035C92.2855 23.3572 92.3765 23.0184 92.3765 22.618C92.3765 21.8789 92.1035 21.3862 91.5877 21.109C91.072 20.8318 90.3439 20.6778 89.4338 20.6778H87.4012V20.6162ZM99.172 26.4061V13.5945H107.272V15.5655H101.478V18.7376H106.635V20.6778H101.478V24.4351H107.697V26.4061H99.172ZM115.736 13.5329C117.556 13.5329 118.952 13.8717 119.923 14.5492C120.893 15.2267 121.379 16.2738 121.379 17.6597C121.379 19.3843 120.529 20.5854 118.861 21.2014C119.103 21.4785 119.346 21.8173 119.65 22.2485C119.953 22.6488 120.226 23.1108 120.529 23.5727C120.833 24.0347 121.136 24.5275 121.409 25.0202C121.682 25.513 121.925 26.0057 122.168 26.4985H119.589C119.346 26.0673 119.103 25.6054 118.83 25.1742C118.557 24.7122 118.284 24.2811 118.011 23.8499C117.738 23.4188 117.465 23.0184 117.192 22.6488C116.919 22.2793 116.676 21.9405 116.434 21.6325C116.252 21.6325 116.13 21.6633 116.009 21.6633H114.553V26.4677H112.247V13.8409C112.793 13.7177 113.4 13.6253 114.037 13.5945C114.674 13.5637 115.251 13.5329 115.736 13.5329ZM115.918 15.5347C115.433 15.5347 114.978 15.5655 114.583 15.5963V19.7231H115.584C116.13 19.7231 116.646 19.6923 117.071 19.6307C117.496 19.5691 117.86 19.4459 118.133 19.292C118.406 19.138 118.648 18.9224 118.77 18.6452C118.921 18.368 118.982 18.0293 118.982 17.5981C118.982 17.1977 118.921 16.859 118.77 16.6126C118.618 16.3354 118.406 16.1198 118.133 15.9659C117.86 15.8119 117.526 15.6887 117.162 15.6271C116.798 15.5655 116.343 15.5347 115.918 15.5347ZM129.509 13.5945C129.782 14.0564 130.085 14.6416 130.389 15.3191C130.723 15.9967 131.056 16.705 131.39 17.4441C131.724 18.1833 132.057 18.9532 132.391 19.7231C132.725 20.493 133.028 21.2014 133.301 21.8481C133.574 21.2014 133.878 20.493 134.211 19.7231C134.545 18.9532 134.879 18.1833 135.212 17.4441C135.546 16.705 135.88 15.9967 136.214 15.3191C136.547 14.6416 136.851 14.0564 137.093 13.5945H139.156C139.278 14.5184 139.369 15.5347 139.46 16.5818C139.551 17.6289 139.642 18.7068 139.733 19.8155C139.824 20.9242 139.884 22.0329 139.945 23.1416C140.006 24.2503 140.066 25.359 140.127 26.4061H137.882C137.821 24.9278 137.761 23.388 137.7 21.8173C137.639 20.2467 137.518 18.7068 137.397 17.2285C137.275 17.5057 137.093 17.8445 136.911 18.2448C136.729 18.6452 136.547 19.0764 136.335 19.5383C136.123 20.0003 135.91 20.4622 135.698 20.955C135.485 21.4477 135.273 21.9405 135.091 22.4025C134.879 22.8644 134.697 23.2956 134.545 23.6959C134.393 24.0963 134.242 24.4351 134.12 24.7122H132.421C132.3 24.4351 132.148 24.0963 131.997 23.6651C131.815 23.2648 131.633 22.8336 131.451 22.3717C131.269 21.9097 131.056 21.4477 130.844 20.955C130.632 20.4622 130.419 20.0003 130.207 19.5383C129.994 19.0764 129.812 18.6452 129.63 18.2448C129.448 17.8445 129.297 17.5057 129.145 17.2285C129.024 18.7068 128.902 20.2467 128.842 21.8173C128.781 23.388 128.72 24.9278 128.66 26.4061H126.415C126.475 25.359 126.536 24.2503 126.597 23.1108C126.657 21.9713 126.748 20.8626 126.809 19.7231C126.87 18.5836 126.991 17.5365 127.082 16.4894C127.173 15.4423 127.294 14.4876 127.385 13.5945H129.509ZM153.293 26.4061C153.111 25.9133 152.96 25.3898 152.778 24.897C152.596 24.4043 152.414 23.9115 152.262 23.388H146.923C146.741 23.9115 146.589 24.4043 146.407 24.9278C146.225 25.4514 146.043 25.9133 145.891 26.4061H143.494C143.98 25.051 144.405 23.7883 144.829 22.618C145.254 21.4477 145.679 20.3698 146.073 19.3227C146.467 18.2756 146.892 17.2901 147.287 16.3662C147.681 15.4423 148.106 14.5184 148.53 13.5945H150.715C151.139 14.5184 151.564 15.4423 151.958 16.3662C152.353 17.2901 152.747 18.2756 153.172 19.3227C153.566 20.3698 153.991 21.4477 154.416 22.618C154.841 23.7883 155.296 25.051 155.781 26.4061H153.293ZM149.562 16.0891C149.289 16.7358 148.955 17.5365 148.591 18.4604C148.227 19.3843 147.863 20.4006 147.469 21.5093H151.625C151.23 20.4006 150.866 19.3843 150.502 18.4296C150.169 17.5057 149.835 16.705 149.562 16.0891ZM167.218 13.5945V15.5963H163.335V26.3753H161.029V15.5963H157.146V13.5945H167.218ZM171.04 13.5945H173.346V26.4061H171.04V13.5945ZM183.964 26.6833C183.024 26.6833 182.174 26.5293 181.416 26.2521C180.657 25.9749 180.02 25.513 179.505 24.9586C178.989 24.3735 178.594 23.6959 178.291 22.8644C178.018 22.0329 177.866 21.0782 177.866 20.0311C177.866 18.9532 178.018 17.9985 178.352 17.1977C178.685 16.3662 179.11 15.6579 179.687 15.1035C180.233 14.5184 180.9 14.0872 181.658 13.8101C182.417 13.5021 183.206 13.3789 184.085 13.3789C184.601 13.3789 185.087 13.4097 185.511 13.5021C185.936 13.5945 186.3 13.6869 186.634 13.7793C186.937 13.8717 187.21 13.9948 187.423 14.0872C187.635 14.2104 187.787 14.272 187.847 14.3336L187.18 16.243C186.876 16.0583 186.482 15.8735 185.936 15.7195C185.39 15.5655 184.814 15.4731 184.176 15.4731C183.63 15.4731 183.115 15.5655 182.66 15.7503C182.174 15.9351 181.78 16.2122 181.446 16.6126C181.112 16.9822 180.839 17.4749 180.627 18.0601C180.445 18.6452 180.324 19.3227 180.324 20.0619C180.324 20.7394 180.415 21.3554 180.566 21.9405C180.718 22.4948 180.961 22.9876 181.264 23.4188C181.567 23.8191 181.992 24.1579 182.478 24.3735C182.963 24.5891 183.539 24.7122 184.237 24.7122C185.056 24.7122 185.724 24.6199 186.209 24.4659C186.694 24.3119 187.119 24.1579 187.392 24.0039L187.999 25.9133C187.847 26.0057 187.665 26.0981 187.423 26.2213C187.18 26.3137 186.876 26.4061 186.543 26.4985C186.209 26.5909 185.815 26.6525 185.39 26.7141C184.905 26.6525 184.449 26.6833 183.964 26.6833Z" fill="black"/>
</g>
<defs>
<clipPath id="clip0_4273_10403">
<rect width="188" height="40" fill="white"/>
</clipPath>
</defs>
</svg>
