<svg width="134" height="40" viewBox="0 0 134 40" fill="none" xmlns="http://www.w3.org/2000/svg">
<g clip-path="url(#clip0_4512_20115)">
<path d="M52.1051 31.2753C46.0461 28.4091 37.2293 33.0667 36.8912 33.2459C35.3613 34.0221 34.1495 34.261 33.6463 33.8828C33.1672 33.5205 32.7646 32.5771 32.7606 31.4903H32.7525L32.7606 31.3947C32.7606 31.2634 32.7726 31.132 32.7887 30.9966L33.1591 25.4274V18.8072C33.1591 18.6599 33.139 18.5126 33.1028 18.3693C32.37 9.40031 24.4269 2.72038 15.3605 3.44092C7.30462 4.08582 0.911449 10.4115 0.2673 18.3772C0.231067 18.5205 0.210938 18.6678 0.210938 18.8151V29.4083C0.210938 30.4513 1.06846 31.2992 2.12325 31.2992C3.17805 31.2992 4.03557 30.4513 4.03557 29.4083V26.3191C4.03557 25.4234 4.76829 24.6989 5.67412 24.6989H5.74256C6.6484 24.6989 7.38111 25.4234 7.38111 26.3191V34.874C7.38111 35.917 8.23864 36.765 9.29343 36.765C10.3482 36.765 11.2057 35.917 11.2057 34.874V26.4266C11.2057 25.4712 11.9868 24.6989 12.953 24.6989H13.0335C13.9997 24.6989 14.7808 25.4712 14.7808 26.4266V38.1105C14.7848 39.1535 15.6383 39.9974 16.6931 40.0014C17.7479 39.9974 18.6014 39.1535 18.6054 38.1105V30.2642C18.6054 30.2642 18.5651 29.7506 18.5531 29.6591C18.549 29.6073 18.545 29.5516 18.545 29.4998V26.4266C18.545 25.4712 19.326 24.6989 20.2923 24.6989H20.3728C21.339 24.6989 22.12 25.4712 22.12 26.4266V29.4998C22.12 29.5595 22.116 29.6153 22.108 29.675C22.0999 29.7546 22.0637 30.3836 22.0637 30.3836V34.874C22.0637 35.917 22.9212 36.765 23.976 36.765C25.0308 36.765 25.8883 35.917 25.8883 34.874V30.6543C25.8883 30.6543 25.8239 29.6551 25.8239 29.5038V26.4306C25.8239 25.4752 26.6049 24.7029 27.5711 24.7029H27.6517C28.6179 24.7029 29.3989 25.4752 29.3989 26.4306V29.456L29.3909 29.6073C29.3909 29.6352 29.3828 29.663 29.3828 29.6909C29.3828 29.6949 29.3828 29.6989 29.3828 29.6989C29.2419 32.0038 29.5036 35.0771 31.5488 36.6216C32.3378 37.2148 33.3081 37.5253 34.2985 37.5054C35.5264 37.5054 36.9395 37.1033 38.5297 36.2952C40.6353 35.1686 46.9077 32.6248 50.6155 34.3844C51.4731 34.8103 52.5198 34.464 52.9506 33.6161C53.3814 32.7681 53.0311 31.7331 52.1736 31.3072C52.1575 31.2992 52.1373 31.2912 52.1172 31.2793L52.1051 31.2753Z" fill="#3BAEE4"/>
<path d="M11.4395 14.6226C11.1255 17.031 13.7786 18.687 15.9969 18.1934C18.5493 17.6281 18.9881 13.8742 17.1402 12.3375C15.7432 11.1791 13.7705 11.2269 12.5064 12.5605C11.8542 13.2492 11.5241 13.9538 11.4395 14.6226Z" fill="white"/>
<path d="M14.6919 16.2863C15.2918 16.3938 15.7186 15.6176 15.2757 15.1797C14.9214 14.8293 14.3014 14.8652 14.1847 15.3548C14.0881 15.7649 14.233 16.2067 14.6919 16.2863Z" fill="black"/>
<path d="M19.5553 15.1682C19.3057 17.0909 21.4194 18.4086 23.1908 18.0185C25.2279 17.5686 25.5781 14.571 24.1046 13.3489C22.9895 12.4253 21.4153 12.4612 20.4088 13.5241C19.8855 14.0694 19.6238 14.6307 19.5553 15.1682Z" fill="white"/>
<path d="M21.8043 16.215C22.2834 16.2986 22.6256 15.6815 22.2713 15.3312C21.9895 15.0526 21.4943 15.0804 21.3977 15.4745C21.3212 15.797 21.4339 16.1513 21.8043 16.215Z" fill="black"/>
<path d="M15.9769 1.46582C16.4198 1.46582 16.7781 1.82012 16.7781 2.25802V4.51916C16.7781 4.95706 16.4198 5.31136 15.9769 5.31136C15.5341 5.31136 15.1758 4.95706 15.1758 4.51916V2.25802C15.1758 1.82012 15.5341 1.46582 15.9769 1.46582Z" fill="#3BAEE4"/>
<path d="M15.9746 2.73187C16.7373 2.73187 17.3555 2.12054 17.3555 1.36642C17.3555 0.612307 16.7373 0.000976562 15.9746 0.000976562C15.212 0.000976562 14.5938 0.612307 14.5938 1.36642C14.5938 2.12054 15.212 2.73187 15.9746 2.73187Z" fill="#3BAEE4"/>
<path d="M92.3226 21.0963C92.3226 21.0726 92.3226 21.0489 92.3226 21.0194C92.3226 20.9898 92.3226 21.0075 92.3226 21.0016V20.9898C92.3226 20.9839 92.3226 20.9779 92.3226 20.972C92.2681 20.3922 91.8387 19.9129 91.2581 19.7828C91.2339 19.7769 91.2097 19.7709 91.1855 19.7709C91.0827 19.7532 90.9799 19.7473 90.8771 19.7532L84.8533 20.0727C84.0973 20.1141 83.5106 20.7472 83.5529 21.4868C83.5953 22.2263 84.2424 22.8003 84.9984 22.7588L91.0222 22.4393C91.7298 22.3979 92.2923 21.8418 92.3226 21.1436C92.3286 21.1259 92.3286 21.114 92.3226 21.0963Z" fill="#333333"/>
<path d="M71.6677 19.7066C71.5649 19.0025 71.3229 18.3221 70.96 17.7127C70.7242 17.3222 70.3976 16.9909 70.0105 16.7424C69.6355 16.4939 69.2122 16.3223 68.7646 16.2276C68.3171 16.1329 67.8574 16.1093 67.3978 16.1507C66.9442 16.1921 66.4966 16.3045 66.0853 16.4939C65.9402 16.5649 65.8011 16.6359 65.662 16.695C65.5229 16.7601 65.3898 16.8311 65.2568 16.8962C65.287 16.269 65.3052 15.7425 65.3112 15.3165C65.3173 14.8905 65.3112 14.5118 65.3112 14.1923C65.3112 14.0621 65.3052 13.9438 65.2931 13.8255V12.654C65.2931 11.8907 64.6641 11.2754 63.8839 11.2754C63.1037 11.2754 62.4747 11.8907 62.4747 12.654V13.8728C62.4565 16.3164 62.4082 22.1147 62.4626 22.5407C62.4626 22.5584 62.4686 22.5702 62.4747 22.588C62.5654 23.9784 63.2428 26.5995 67.1196 26.0847H67.1498C67.3131 26.067 67.4764 26.0374 67.6397 26.0078C68.0147 25.9605 68.3836 25.8599 68.7283 25.7061C68.9098 25.641 69.0852 25.57 69.2606 25.4872C69.944 25.1913 70.5125 24.6884 70.8875 24.0553C71.2745 23.4104 71.5346 22.7063 71.6495 21.9668C71.7886 21.2213 71.7886 20.4521 71.6677 19.7066ZM67.4703 23.4282C66.3515 23.4282 65.4443 22.3513 65.4443 21.0201C65.4443 19.6888 66.3515 18.612 67.4703 18.612C68.5892 18.612 69.4904 19.6888 69.4904 21.0201C69.4964 22.3513 68.5953 23.4282 67.4703 23.4282Z" fill="#333333"/>
<path d="M82.5959 23.0135C82.2511 22.5165 81.5979 22.3272 81.0355 22.5638C80.9629 22.5934 80.8964 22.6289 80.8298 22.6703L80.721 22.7413C80.2734 22.9958 79.8138 23.2324 79.3481 23.4395C79.0033 23.5637 78.6405 23.6584 78.2776 23.7057C77.8663 23.7649 77.449 23.7472 77.0438 23.6525C76.6325 23.5519 76.2636 23.3212 75.9975 23.0017C76.4511 22.8597 76.9168 22.7354 77.4067 22.6171C77.8905 22.5047 78.3683 22.3627 78.84 22.197C79.3057 22.0313 79.7533 21.842 80.1948 21.6231C80.6363 21.3983 81.0415 21.1024 81.3984 20.7593C81.7552 20.4279 82.0032 20.0019 82.106 19.5286C82.2027 19.0849 82.1906 18.6293 82.0757 18.1914C81.9548 17.7418 81.731 17.3217 81.4286 16.9608C81.1262 16.5939 80.7391 16.2981 80.3037 16.097C79.7352 15.8485 79.1182 15.742 78.5014 15.7893C78.2957 15.8011 78.0961 15.8189 77.8966 15.8485C74.8544 16.1561 73.6871 17.8542 73.2396 19.1263C73.1428 19.3984 73.0702 19.6824 73.0219 19.9664C72.8102 21.0314 72.6832 22.8952 73.8565 24.2678C74.2194 24.7767 74.673 25.2145 75.1991 25.5636C75.6769 25.8712 76.2092 26.0842 76.7716 26.1848C77.3704 26.2854 77.9812 26.2854 78.5739 26.1848C79.2695 26.0724 79.9468 25.8949 80.6061 25.6523C80.9266 25.5399 81.2411 25.4038 81.5435 25.2441L81.6826 25.1672C82.3781 24.7767 82.5172 24.5341 82.5172 24.5341C82.8801 24.1081 82.9225 23.4809 82.5959 23.0135ZM77.4067 18.221C78.2292 17.8779 79.0759 18.0376 79.3118 18.5701C79.5477 19.1026 79.0759 19.8185 78.2594 20.1617C77.443 20.5048 76.5902 20.351 76.3543 19.8126C76.1184 19.2742 76.5902 18.5642 77.4067 18.221Z" fill="#333333"/>
<path d="M57.794 25.2082C57.794 25.2082 58.8827 26.6933 60.6427 25.1786L61.1084 24.723C61.5378 24.2674 61.5136 23.5574 61.0479 23.1374C60.6548 22.7824 60.0621 22.735 59.6205 23.0309C59.5903 22.948 59.554 22.8593 59.5298 22.7705C59.4028 22.3505 59.3181 21.9185 59.2758 21.4866C59.2335 21.0488 59.2153 20.605 59.2335 20.1613C59.2516 19.7176 59.2698 19.2975 59.3 18.9011C59.3121 18.6881 59.3423 18.4573 59.3726 18.2088C59.4089 17.9662 59.427 17.7177 59.427 17.4692C59.427 17.2385 59.3907 17.0077 59.3181 16.7829C59.3181 16.777 59.3121 16.7651 59.306 16.7533C59.173 16.0374 58.4775 15.5582 57.7457 15.6883C57.0864 15.8007 56.6147 16.3687 56.6328 17.0196V17.842C56.6328 17.8716 56.6328 17.9011 56.6328 17.9307V20.7056C56.6449 21.2855 56.6449 21.8949 56.6086 22.2617C56.3123 23.167 55.3204 23.6639 54.3951 23.3681C53.6693 23.1374 53.1734 22.4747 53.1794 21.7233V20.5695C53.1794 20.3861 53.1794 20.2027 53.1794 20.0134V19.9483C53.1794 19.9365 53.1794 19.9246 53.1794 19.9128C53.1794 19.6939 53.1976 19.475 53.2157 19.2501C53.2822 18.5165 53.3004 17.7828 53.2701 17.0491C53.2701 17.0196 53.2641 16.9959 53.258 16.9722C53.2399 16.2622 52.6351 15.7002 51.9093 15.7238C51.1836 15.7416 50.609 16.3332 50.6332 17.0432V17.1911C50.609 17.3568 50.603 17.5225 50.603 17.6881C50.603 17.8656 50.5969 18.0491 50.5788 18.2325C50.5667 18.4751 50.5485 18.7058 50.5364 18.9247C50.5243 19.1436 50.5122 19.3685 50.5122 19.5992C50.4941 20.256 50.5062 20.9423 50.5425 21.67C50.5667 22.3623 50.7542 23.0427 51.0747 23.658C51.3832 24.2556 51.8247 24.7763 52.3629 25.1845C52.8407 25.5514 53.4032 25.7939 54.0019 25.9004C54.5947 26.001 55.2055 25.9596 55.7801 25.7821C56.4151 25.5869 57.0078 25.2674 57.5219 24.8473L57.794 25.2082Z" fill="#333333"/>
<path d="M107.065 16.7705C106.987 16.2262 106.823 15.6996 106.581 15.2026C106.345 14.6997 106.025 14.2323 105.644 13.824C105.366 13.5223 105.057 13.2501 104.713 13.0193C104.368 12.7945 104.005 12.5933 103.63 12.4218C103.158 12.2088 102.656 12.0608 102.136 11.9839C101.622 11.907 101.102 11.8893 100.582 11.9248C99.608 12.0076 98.6706 12.3153 97.842 12.8182C97.0255 13.3152 96.3058 13.9542 95.7252 14.6997C95.1325 15.4629 94.6728 16.3149 94.3583 17.2202C94.0378 18.1136 93.8684 19.0543 93.8443 20.0069C93.8382 20.5631 93.8866 21.1133 93.9773 21.6576C94.0741 22.2256 94.2434 22.7818 94.4853 23.3025C94.7212 23.8172 95.0418 24.2965 95.4349 24.7106C95.8401 25.1366 96.336 25.462 96.8864 25.675C97.2009 25.8584 97.5335 26.0123 97.8843 26.1247C98.35 26.2608 98.8278 26.3614 99.3177 26.4205C100.189 26.5152 101.066 26.4087 101.882 26.101C102.644 25.8052 103.346 25.3733 103.95 24.8349C104.573 24.2787 105.112 23.6397 105.553 22.9356C105.892 22.409 106.194 21.8588 106.46 21.2908L106.847 20.2021C106.956 19.7229 107.041 19.2377 107.095 18.7585C107.168 18.0958 107.156 17.4272 107.065 16.7705ZM103.551 20.0424C102.892 22.0126 101.005 23.1782 99.3177 22.6457C97.6303 22.1132 96.7896 20.0779 97.4428 18.1136C98.09 16.1492 99.989 14.9777 101.676 15.5102C103.358 16.0427 104.198 18.0721 103.551 20.0424Z" fill="#333333"/>
<path d="M119.69 11.9501C119.055 11.6602 118.305 11.9323 118.009 12.5536L114.205 20.5765L111.036 12.8967C110.776 12.2637 110.038 11.956 109.391 12.2104C108.743 12.4648 108.429 13.1867 108.689 13.8197L111.755 21.2451L113.031 24.5525C113.05 24.6117 113.068 24.6709 113.098 24.7241C113.298 25.1324 113.715 25.3927 114.181 25.3986H114.265C114.386 25.3927 114.507 25.369 114.622 25.3276C114.725 25.2921 114.816 25.2329 114.9 25.1679C115.094 25.0199 115.239 24.8247 115.318 24.5939C115.348 24.5289 115.378 24.4638 115.408 24.3928L118.747 16.8491L120.301 13.589C120.591 12.9677 120.319 12.2341 119.69 11.9501Z" fill="#333333"/>
<path d="M132.396 11.0014H132.336C131.555 10.9836 130.914 11.5871 130.89 12.3444L130.678 20.4621C130.364 20.0183 130.049 19.5805 129.723 19.1367L129.602 18.977L129.257 18.5569L124.449 12.1019C123.947 11.4984 123.04 11.4037 122.423 11.8948C122.084 12.161 121.891 12.5633 121.891 12.9893V25.6391C121.915 26.4201 122.586 27.0295 123.378 26.9999C124.134 26.9763 124.745 26.3787 124.769 25.6391V17.4505L126.566 19.9059L130.757 25.9823C131.005 26.3846 131.446 26.639 131.924 26.6509H131.985C132.765 26.6686 133.406 26.0651 133.43 25.3078L133.503 22.5329C133.551 21.3614 133.594 20.1958 133.624 19.0243C133.648 18.0481 133.66 17.0718 133.666 16.0956L133.763 12.4213C133.787 11.6522 133.17 11.0191 132.396 11.0014Z" fill="#333333"/>
<path d="M48.9939 23.7331C47.8932 22.4019 45.849 20.5027 45.7098 20.3725C45.5707 20.2423 45.4256 20.0767 45.2865 19.9287L44.216 18.7987C44.724 18.3372 45.0688 18.0058 45.0688 18.0058C45.3772 17.7337 45.6736 17.4556 45.9639 17.1598C46.2542 16.8639 46.5324 16.5681 46.7924 16.2604C46.8469 16.1953 46.9013 16.1303 46.9557 16.0652C48.1653 14.7576 48.3347 14.1364 48.3347 14.1364C48.6794 13.5092 48.4375 12.7341 47.8025 12.3969C47.361 12.1661 46.8227 12.1957 46.4175 12.4856L41.4218 17.2071C41.4218 16.6095 41.4218 16.0119 41.4399 15.4262C41.4399 15.3197 41.4399 15.2132 41.4399 15.1067C41.4399 15.0653 41.4399 15.0298 41.4399 14.9884V13.0595C41.4399 12.3377 40.8412 11.752 40.1033 11.752C39.3655 11.752 38.7667 12.3377 38.7667 13.0595V14.9884C38.7667 15.0239 38.7667 15.0594 38.7667 15.0889C38.7607 15.5386 38.7607 15.9528 38.7667 16.3314C38.7667 16.716 38.7788 16.929 38.7788 16.9763V21.4434C38.7788 21.5262 38.7788 21.7629 38.7667 22.1357C38.7546 22.5084 38.7667 22.9226 38.7788 23.3663C38.7788 23.5024 38.7909 23.6266 38.797 23.7568L38.8393 25.4253V25.4549C38.8393 25.4667 38.8393 25.4726 38.8393 25.4845V25.5377C38.8937 26.2477 39.5227 26.7743 40.2485 26.721C40.8593 26.6737 41.3553 26.224 41.446 25.6324V24.171C41.4279 23.603 41.4097 23.0409 41.3976 22.4788C41.3855 22.0173 41.3855 21.5617 41.3795 21.0943C41.6456 20.9168 41.9238 20.7038 42.208 20.4849L43.8894 22.2303C44.5607 22.9285 45.2381 23.6385 45.9215 24.3662C45.9941 24.4372 46.0848 24.526 46.1816 24.6561L46.4961 25.0289C46.605 25.1591 46.7199 25.2833 46.8469 25.4016C46.9618 25.5141 47.0827 25.6146 47.2098 25.7093C47.4335 25.8868 47.7178 25.9755 48.0081 25.9637C48.1411 25.9578 48.2803 25.9282 48.4073 25.8809C48.6189 25.8217 48.8185 25.7152 48.9758 25.5614C49.4959 25.0644 49.502 24.2479 48.9939 23.7331Z" fill="#333333"/>
</g>
<defs>
<clipPath id="clip0_4512_20115">
<rect width="134" height="40" fill="white" transform="translate(0 0.000976562)"/>
</clipPath>
</defs>
</svg>
