<svg viewBox="0 0 130 32" fill="none" xmlns="http://www.w3.org/2000/svg">
  <g fill="currentColor">
    <g transform="translate(0, 3)">
      <path d="M35.2338 12.1904C34.0097 10.9563 32.4516 10.1703 30.762 9.91651C30.6677 8.96181 30.4378 8.02861 30.0747 7.1293C29.5669 5.87125 28.8242 4.74464 27.8682 3.78168C26.9121 2.81872 25.7907 2.06819 24.536 1.55076C23.2839 1.0358 21.9631 0.777082 20.6118 0.785348C20.6018 0.785348 20.5919 0.785348 20.5828 0.785348C17.8503 0.785348 15.2782 1.84254 13.3355 3.76349C11.6674 5.41333 10.6327 7.53349 10.3557 9.82806H8.12103C7.06243 9.8198 6.03277 10.019 5.05356 10.4174C4.07104 10.8175 3.19107 11.3986 2.43847 12.1441C1.68504 12.8905 1.09702 13.765 0.688462 14.7437C0.280734 15.7224 0.0739746 16.7556 0.0739746 17.8161C0.0739746 18.8766 0.280734 19.9098 0.688462 20.8884C1.09619 21.8671 1.68504 22.7416 2.43847 23.488C3.1919 24.2344 4.07187 24.8155 5.05356 25.2147C6.0154 25.6057 7.02769 25.8041 8.0648 25.8041C8.08299 25.8041 8.10201 25.8041 8.12021 25.8041H27.0668V25.8239L29.4354 25.8041H29.8787V25.7958C31.9058 25.7156 33.798 24.8849 35.2329 23.4392C36.7274 21.9332 37.5503 19.9354 37.5503 17.8144C37.5503 15.6934 36.7274 13.6956 35.2329 12.1896L35.2338 12.1904ZM22.4097 18.2137V11.0431C22.4097 10.5422 22.2146 10.0719 21.8606 9.71813C21.5066 9.36435 21.036 9.16928 20.5348 9.16928C20.0337 9.16928 19.5631 9.36435 19.2091 9.71813C18.8551 10.0719 18.66 10.5422 18.66 11.0431V21.9613H26.7988V22.7358H8.10615C7.45279 22.7433 6.81763 22.6193 6.21389 22.3738C5.61015 22.1283 5.06927 21.7712 4.60613 21.3125C4.14299 20.8537 3.78158 20.3165 3.53099 19.7147C3.28039 19.113 3.15303 18.4782 3.15303 17.8268C3.15303 17.1755 3.28039 16.5398 3.53099 15.9381C3.78158 15.3363 4.14382 14.7991 4.60613 14.3403C5.06927 13.8816 5.61015 13.5245 6.21389 13.279C6.80522 13.0385 7.42715 12.917 8.06893 12.917C8.08299 12.917 8.09705 12.917 8.11028 12.917H9.80984V13.6915H8.11607C7.56609 13.6865 7.02935 13.7873 6.51989 13.994C6.01044 14.2006 5.55392 14.5007 5.16355 14.8875C4.77319 15.2744 4.46719 15.7273 4.25547 16.234C4.04375 16.7407 3.93623 17.2771 3.93623 17.826C3.93623 18.3748 4.04375 18.9113 4.25547 19.418C4.46719 19.9255 4.77237 20.3784 5.16355 20.7645C5.55392 21.1513 6.01044 21.4513 6.51989 21.658C7.02935 21.8646 7.56609 21.9646 8.11028 21.9605H17.8842V11.0431C17.8842 10.3356 18.1596 9.67019 18.66 9.17011C19.1603 8.67003 19.8261 8.39478 20.534 8.39478C21.242 8.39478 21.9069 8.67003 22.4081 9.17011C22.9084 9.67019 23.1838 10.3356 23.1838 11.0431V17.4392H30.1715V18.2137H22.4089H22.4097ZM33.0462 21.2819C32.2573 22.0771 31.2433 22.5697 30.1467 22.6995V21.9192C31.039 21.7944 31.8628 21.3836 32.507 20.733C33.2786 19.9536 33.7037 18.9204 33.7037 17.8243C33.7037 16.7283 33.2786 15.6951 32.507 14.9156C31.7354 14.1362 30.7057 13.7014 29.6033 13.6898H26.9543V11.0473C26.9675 10.205 26.8145 9.38171 26.5003 8.59977C26.1852 7.81701 25.7245 7.11607 25.1307 6.51598C24.5369 5.91589 23.8397 5.44888 23.0598 5.12569C22.2799 4.80332 21.4545 4.64131 20.6176 4.64627C18.899 4.63966 17.2772 5.29596 16.0531 6.50276C14.8291 7.70955 14.1476 9.32055 14.1336 11.0431V18.2137H7.50324V17.44H13.3595V11.0473C13.3719 9.12217 14.1328 7.31611 15.5023 5.96135C16.8645 4.61404 18.6674 3.87343 20.5886 3.87343C20.5985 3.87343 20.6093 3.87343 20.6192 3.87343C21.5629 3.86599 22.4867 4.04618 23.3608 4.40657C24.235 4.76695 25.0157 5.28935 25.6815 5.9597C26.3473 6.63005 26.8642 7.41447 27.2181 8.29064C27.5721 9.1668 27.7441 10.0901 27.7309 11.0349V12.917H29.6843C30.9572 12.9484 32.1489 13.4617 33.0479 14.3676C33.9667 15.2934 34.4721 16.5208 34.4721 17.8252C34.4721 19.1295 33.9659 20.357 33.0479 21.2827L33.0462 21.2819Z" />
    </g>
    <g transform="translate(48, 5)">
      <path d="M0.588989 0.147705H2.66698V7.43418H6.26432V9.2558H0.588989V0.147705Z M11.4201 0.0817871C12.822 0.0817871 13.5888 0.628986 13.9909 1.93014L16.2646 9.25583H14.0692L13.4074 6.99217H9.44708L8.79771 9.25583H6.60229L8.8493 1.93014C9.25138 0.628986 10.0306 0.0817871 11.4201 0.0817871ZM12.927 5.29889L12.0819 2.40961C11.9787 2.05848 11.7706 1.90162 11.4201 1.90162C11.0696 1.90162 10.8739 2.05848 10.7707 2.40961L9.93989 5.29889H12.927Z M17.083 0.148267H21.239C23.1355 0.148267 24.2261 1.0466 24.2261 2.59373C24.2261 3.4778 23.8756 4.14264 23.2138 4.55794C24.0838 4.96076 24.5517 5.7165 24.5517 6.74317C24.5517 8.33129 23.4344 9.25458 21.4987 9.25458H17.083V0.146484V0.148267ZM21.1091 3.92162C21.8101 3.92162 22.2139 3.51879 22.2139 2.829C22.2139 2.13921 21.8119 1.73639 21.1091 1.73639H19.1094V3.92162H21.1091ZM21.3689 7.66824C22.0698 7.66824 22.4737 7.26541 22.4737 6.57562C22.4737 5.88583 22.0716 5.48301 21.3689 5.48301H19.1094V7.66824H21.3689Z M24.4858 0.147705H26.6546L28.1223 4.05117C28.2397 4.36309 28.4337 4.51995 28.7592 4.51995C29.0848 4.51995 29.2787 4.36309 29.3962 4.05117L30.8639 0.147705H32.981L31.1237 4.72849C30.7732 5.57513 30.4085 6.01717 29.7858 6.21145V9.2558H27.6811V6.21145C27.0584 6.01539 26.6937 5.57335 26.3432 4.72849L24.4858 0.147705Z M33.6285 0.147705H37.434C39.6028 0.147705 40.8499 1.25458 40.8499 3.19205C40.8499 4.62333 40.1739 5.5983 38.9409 6.01538L41.0314 9.2558H38.7452L36.7971 6.2364H35.6549V9.2558H33.6285V0.147705ZM37.434 4.5449C38.2791 4.5449 38.7719 4.05117 38.7719 3.19205C38.7719 2.33293 38.2791 1.83921 37.434 1.83921H35.6549V4.5449H37.434Z M42.382 0.147705H44.4084V9.2558H42.382V0.147705Z M46.1873 0.147705H48.6549L52.487 6.57506V0.147705H54.4992V9.2558H52.0316L48.2012 2.82844V9.2558H46.189V0.147705H46.1873Z M57.8121 1.96932H55.3177V0.147705H62.3826V1.96932H59.8883V9.2558H57.8103V1.96932H57.8121Z M63.2008 0.147705H65.2788V3.79094H69.175V0.147705H71.253V9.2558H69.175V5.61256H65.2788V9.2558H63.2008V0.147705Z M0.588989 12.624H2.66698V19.9105H6.26432V21.7321H0.588989V12.624Z M11.4201 12.5583C12.822 12.5583 13.5888 13.1055 13.9909 14.4067L16.2646 21.7324H14.0692L13.4074 19.4687H9.44708L8.79771 21.7324H6.60229L8.8493 14.4067C9.25138 13.1055 10.0306 12.5583 11.4201 12.5583ZM12.927 17.7754L12.0819 14.8862C11.9787 14.535 11.7706 14.3782 11.4201 14.3782C11.0696 14.3782 10.8739 14.535 10.7707 14.8862L9.93989 17.7754H12.927Z M17.083 12.6248H21.239C23.1355 12.6248 24.2261 13.5232 24.2261 15.0703C24.2261 15.9544 23.8756 16.6192 23.2138 17.0345C24.0838 17.4373 24.5517 18.1931 24.5517 19.2197C24.5517 20.8079 23.4344 21.7311 21.4987 21.7311H17.083V12.623V12.6248ZM21.1091 16.3982C21.8101 16.3982 22.2139 15.9954 22.2139 15.3056C22.2139 14.6158 21.8119 14.213 21.1091 14.213H19.1094V16.3982H21.1091ZM21.3689 20.1448C22.0698 20.1448 22.4737 19.742 22.4737 19.0522C22.4737 18.3624 22.0716 17.9596 21.3689 17.9596H19.1094V20.1448H21.3689Z M28.85 21.8632C26.8627 21.8632 25.395 20.9132 25.201 19.0007H27.1616C27.3431 19.8206 28.0316 20.1717 28.85 20.1717C29.7467 20.1717 30.396 19.8455 30.396 19.1183C30.396 17.3484 25.3968 18.7279 25.3968 15.2273C25.3968 13.4324 26.877 12.4949 28.7219 12.4949C30.5668 12.4949 31.9954 13.3932 32.241 15.2273H30.2662C30.058 14.4983 29.4211 14.1864 28.7201 14.1864C28.0192 14.1864 27.3431 14.5126 27.3431 15.2273C27.3431 16.8921 32.3424 15.6052 32.3424 19.0399C32.3424 20.874 30.8497 21.8632 28.8482 21.8632H28.85Z" />
    </g>
  </g>
</svg>