<svg width="160" height="50" viewBox="0 0 231 50" fill="none" xmlns="http://www.w3.org/2000/svg">
<g clip-path="url(#clip0_754_396)">
<path d="M30.8897 49.9817V45.9181C15.5448 45.9181 4.06348 40.9363 4.06348 36.4727H0C0.0181811 44.1727 13.2813 49.9817 30.8897 49.9817Z" fill="url(#paint0_linear_754_396)"/>
<path d="M30.8897 27.0273C48.4981 27.0273 61.7703 21.2182 61.7703 13.5182L59.9249 13.4546L57.725 13.5182C57.725 17.9819 46.2618 22.9637 30.8988 22.9637L30.7806 25.0273L30.8988 27.0273H30.8897Z" fill="url(#paint1_linear_754_396)"/>
<path d="M0.0181885 36.4727L2.24537 36.5182L4.06348 36.4727C4.06348 32.0091 15.5267 27.0273 30.8897 27.0273V22.9636C13.2813 22.9636 0.0181885 28.7636 0.0181885 36.4727Z" fill="url(#paint2_linear_754_396)"/>
<path d="M57.7159 13.5091H61.7794C61.7794 5.80909 48.4981 0 30.8988 0V4.06364C46.2255 4.06364 57.7068 9.04545 57.7068 13.5091H57.7159Z" fill="url(#paint3_linear_754_396)"/>
<path d="M8.16332 22.8364C9.96325 22.0273 11.9995 21.3273 14.2449 20.7455C7.96333 18.8818 4.06348 16.1 4.06348 13.5C4.06348 9.03636 15.5267 4.05455 30.8897 4.05455L31.0897 2.08182L30.8897 0C13.2813 0 0.0181885 5.80909 0.0181885 13.5091C0.0181885 17.1909 3.06352 20.4455 8.16332 22.8364Z" fill="#6B9385"/>
<path d="M53.6343 27.1455C51.8344 27.9546 49.7981 28.6546 47.5527 29.2364C53.8343 31.1001 57.7341 33.8819 57.7341 36.4819C57.7341 40.9455 46.271 45.9273 30.9079 45.9273L30.8352 48.0091L30.9079 50.0001C48.5163 50.0001 61.7885 44.191 61.7885 36.491C61.7885 32.791 58.7341 29.5546 53.6434 27.1546L53.6343 27.1455Z" fill="#6B9385"/>
<path d="M84.4149 35.1909V7.26367H88.0239V35.1819H84.4149V35.1909Z" fill="#CBB294"/>
<path d="M96.7144 11.409C96.0144 11.409 95.4326 11.1818 94.969 10.7272C94.5054 10.2727 94.269 9.72722 94.269 9.07268C94.269 8.41813 94.4963 7.82722 94.969 7.38177C95.4326 6.92722 96.0144 6.69995 96.7144 6.69995C97.4144 6.69995 97.9962 6.91813 98.4598 7.3545C98.9234 7.79086 99.1598 8.33632 99.1598 8.99086C99.1598 9.64541 98.9325 10.2363 98.478 10.7C98.0234 11.1636 97.4326 11.4 96.7053 11.4L96.7144 11.409ZM94.9054 35.1909V15.2454H98.5143V35.1909H94.9054Z" fill="#CBB294"/>
<path d="M116.059 15.0544C117.686 15.0544 119.123 15.3726 120.368 15.9908C121.613 16.6181 122.577 17.5726 123.286 18.8544C123.986 20.1363 124.341 21.7544 124.341 23.709V35.1817H120.732V24.1181C120.732 22.1908 120.259 20.7272 119.323 19.7544C118.386 18.7817 117.059 18.2908 115.35 18.2908C114.068 18.2908 112.95 18.5454 112.005 19.0454C111.05 19.5454 110.314 20.2908 109.805 21.2635C109.287 22.2454 109.032 23.4544 109.032 24.909V35.1817H105.423V15.2363H108.887V20.6181L108.323 19.1908C108.978 17.8908 109.978 16.8726 111.332 16.1454C112.687 15.4181 114.268 15.0544 116.077 15.0544H116.059Z" fill="#CBB294"/>
<path d="M131.031 35.1909V7.26367H134.64V35.1819H131.031V35.1909ZM133.967 30.3728L134.04 25.7455L145.513 15.2455H149.876L141.067 23.9L139.113 25.5546L133.958 30.3728H133.967ZM146.267 35.1909L138.44 25.4819L140.776 22.5819L150.712 35.1909H146.276H146.267Z" fill="#CBB294"/>
<path d="M153.948 42.4908V15.2454H157.412V20.6272L157.185 25.2544L157.557 29.8817V42.4908H153.948ZM164.521 35.4181C162.866 35.4181 161.357 35.0363 159.985 34.2726C158.621 33.509 157.53 32.3726 156.712 30.8635C155.894 29.3544 155.485 27.4726 155.485 25.2181C155.485 22.9635 155.885 21.0817 156.667 19.5726C157.448 18.0635 158.539 16.9363 159.903 16.1817C161.266 15.4272 162.803 15.0544 164.512 15.0544C166.466 15.0544 168.202 15.4817 169.702 16.3363C171.211 17.1908 172.402 18.3726 173.275 19.8908C174.148 21.409 174.593 23.1817 174.593 25.2181C174.593 27.2544 174.157 29.0272 173.275 30.5635C172.393 32.0908 171.202 33.2817 169.702 34.1363C168.193 34.9908 166.466 35.4181 164.512 35.4181H164.521ZM164.221 32.2544C165.503 32.2544 166.648 31.9635 167.666 31.3908C168.684 30.8181 169.484 29.9908 170.075 28.9272C170.666 27.8635 170.957 26.6272 170.957 25.2181C170.957 23.809 170.666 22.5544 170.075 21.509C169.484 20.4635 168.684 19.6635 167.666 19.0817C166.648 18.509 165.503 18.2181 164.221 18.2181C162.939 18.2181 161.83 18.509 160.812 19.0817C159.794 19.6635 158.994 20.4635 158.403 21.509C157.812 22.5544 157.521 23.7817 157.521 25.2181C157.521 26.6544 157.812 27.8544 158.403 28.9272C158.994 29.9908 159.794 30.8181 160.812 31.3908C161.83 31.9726 162.966 32.2544 164.221 32.2544Z" fill="#CBB294"/>
<path d="M188.147 35.4182C186.138 35.4182 184.356 34.9818 182.802 34.1C181.247 33.2182 180.02 32.0091 179.111 30.4728C178.211 28.9273 177.757 27.1818 177.757 25.2273C177.757 23.2728 178.211 21.4909 179.111 19.9637C180.011 18.4364 181.247 17.2364 182.802 16.3728C184.356 15.5091 186.138 15.0728 188.147 15.0728C190.156 15.0728 191.902 15.5091 193.474 16.3728C195.038 17.2364 196.274 18.4273 197.165 19.9455C198.056 21.4637 198.501 23.2273 198.501 25.2364C198.501 27.2455 198.056 28.9728 197.165 30.5C196.274 32.0273 195.047 33.2364 193.474 34.1091C191.911 34.9909 190.129 35.4273 188.147 35.4273V35.4182ZM188.147 32.2546C189.429 32.2546 190.574 31.9637 191.593 31.3909C192.611 30.8182 193.402 29.9909 193.983 28.9273C194.556 27.8637 194.847 26.6273 194.847 25.2182C194.847 23.8091 194.556 22.5546 193.983 21.5091C193.411 20.4637 192.611 19.6637 191.593 19.0818C190.574 18.5091 189.429 18.2182 188.147 18.2182C186.865 18.2182 185.729 18.5091 184.72 19.0818C183.72 19.6637 182.911 20.4637 182.311 21.5091C181.711 22.5546 181.411 23.7818 181.411 25.2182C181.411 26.6546 181.711 27.8546 182.311 28.9273C182.911 29.9909 183.711 30.8182 184.72 31.3909C185.72 31.9728 186.865 32.2546 188.147 32.2546Z" fill="#CBB294"/>
<path d="M212.037 35.4182C210.028 35.4182 208.246 34.9818 206.692 34.1C205.137 33.2182 203.91 32.0091 203.001 30.4728C202.101 28.9273 201.647 27.1818 201.647 25.2273C201.647 23.2728 202.101 21.4909 203.001 19.9637C203.901 18.4364 205.137 17.2364 206.692 16.3728C208.246 15.5091 210.028 15.0728 212.037 15.0728C214.046 15.0728 215.792 15.5091 217.364 16.3728C218.928 17.2364 220.164 18.4273 221.055 19.9455C221.946 21.4637 222.391 23.2273 222.391 25.2364C222.391 27.2455 221.946 28.9728 221.055 30.5C220.164 32.0273 218.937 33.2364 217.364 34.1091C215.801 34.9909 214.019 35.4273 212.037 35.4273V35.4182ZM212.037 32.2546C213.319 32.2546 214.464 31.9637 215.483 31.3909C216.501 30.8182 217.292 29.9909 217.873 28.9273C218.446 27.8637 218.737 26.6273 218.737 25.2182C218.737 23.8091 218.446 22.5546 217.873 21.5091C217.301 20.4637 216.501 19.6637 215.483 19.0818C214.464 18.5091 213.319 18.2182 212.037 18.2182C210.755 18.2182 209.619 18.5091 208.61 19.0818C207.61 19.6637 206.801 20.4637 206.201 21.5091C205.601 22.5546 205.301 23.7818 205.301 25.2182C205.301 26.6546 205.601 27.8546 206.201 28.9273C206.801 29.9909 207.601 30.8182 208.61 31.3909C209.61 31.9728 210.755 32.2546 212.037 32.2546Z" fill="#CBB294"/>
<path d="M227.391 35.1909V7.26367H231V35.1819H227.391V35.1909Z" fill="#CBB294"/>
</g>
<defs>
<linearGradient id="paint0_linear_754_396" x1="5.6725" y1="38.3636" x2="22.663" y2="47.5994" gradientUnits="userSpaceOnUse">
<stop stop-color="#CBB294"/>
<stop offset="1" stop-color="#6B9385"/>
</linearGradient>
<linearGradient id="paint1_linear_754_396" x1="58.8704" y1="13.6728" x2="31.8983" y2="28.7173" gradientUnits="userSpaceOnUse">
<stop offset="0.16" stop-color="#CBB294"/>
<stop offset="0.54" stop-color="#E8D7C4"/>
</linearGradient>
<linearGradient id="paint2_linear_754_396" x1="1.17269" y1="34.0545" x2="30.0173" y2="23.028" gradientUnits="userSpaceOnUse">
<stop offset="0.11" stop-color="#CBB294"/>
<stop offset="0.64" stop-color="#E8D7C4"/>
</linearGradient>
<linearGradient id="paint3_linear_754_396" x1="57.7887" y1="10.0818" x2="28.9895" y2="-1.05378" gradientUnits="userSpaceOnUse">
<stop stop-color="#CBB294"/>
<stop offset="0.78" stop-color="#6B9385"/>
</linearGradient>
<clipPath id="clip0_754_396">
<rect width="231" height="50" fill="white"/>
</clipPath>
</defs>
</svg>
