<svg width="127" height="40" viewBox="0 0 127 40" fill="none" xmlns="http://www.w3.org/2000/svg">
<path d="M56.8118 26.0334L52.2124 18.2565C54.4201 17.736 56.6891 15.8071 56.6891 12.1942C56.6891 8.39755 54.0828 5.61133 49.8207 5.61133H40.2539V26.0334H44.608V18.7158H47.7969L51.8137 26.0334H56.8118ZM52.243 12.1635C52.243 13.8781 50.9245 14.9804 49.1768 14.9804H44.608V9.3467H49.1768C50.9245 9.3467 52.243 10.4489 52.243 12.1635Z" fill="#004149"/>
<path d="M74.4299 26.0334V22.2674H64.3112V17.5217H74.2152V13.7863H64.3112V9.3467H74.4299V5.61133H59.9571V26.0334H74.4299Z" fill="#004149"/>
<path d="M82.1878 26.0334V18.7158H87.4004C91.8159 18.7158 94.2689 15.7458 94.2689 12.1942C94.2689 8.61188 91.8465 5.61133 87.4004 5.61133H77.8337V26.0334H82.1878ZM89.8228 12.1635C89.8228 13.8781 88.535 14.9804 86.8178 14.9804H82.1878V9.3467H86.8178C88.535 9.3467 89.8228 10.4796 89.8228 12.1635Z" fill="#004149"/>
<path d="M109.969 26.0334V22.2062H101.322V5.61133H96.9679V26.0334H109.969Z" fill="#004149"/>
<path d="M119.183 26.0334V17.6748L127.002 5.61133H122.034L117.006 13.8169L111.916 5.61133H106.948L114.828 17.6748V26.0334H119.183Z" fill="#004149"/>
<path d="M45.3882 39.5384V38.2536H41.7155V31.2183H40.2539V39.5384H45.3882Z" fill="#950EBA"/>
<path d="M48.169 39.5384V31.2183H46.7074V39.5384H48.169Z" fill="#950EBA"/>
<path d="M58.0852 35.3846C58.0852 32.9022 56.3238 31.0811 53.8253 31.0811C51.3269 31.0811 49.5655 32.9022 49.5655 35.3846C49.5655 37.8669 51.3269 39.6881 53.8253 39.6881C54.6123 39.6881 55.3244 39.5134 55.924 39.1891L56.6486 39.9999L57.6604 39.1517L56.9734 38.3783C57.6729 37.6174 58.0852 36.5821 58.0852 35.3846ZM53.8253 38.3908C52.1389 38.3908 51.0645 37.0935 51.0645 35.3846C51.0645 33.6632 52.1389 32.3783 53.8253 32.3783C55.4993 32.3783 56.5861 33.6632 56.5861 35.3846C56.5861 36.1205 56.3862 36.7816 56.024 37.2931L54.9871 36.133L53.9752 36.9687L55.0121 38.1413C54.6623 38.3035 54.2626 38.3908 53.8253 38.3908Z" fill="#950EBA"/>
<path d="M59.4924 36.2577C59.4924 38.3035 60.6792 39.6881 63.1026 39.6881C65.5136 39.6881 66.7004 38.3159 66.7004 36.2453V31.2183H65.2263V36.2078C65.2263 37.5301 64.4893 38.3908 63.1026 38.3908C61.7035 38.3908 60.9665 37.5301 60.9665 36.2078V31.2183H59.4924V36.2577Z" fill="#950EBA"/>
<path d="M69.9328 39.5384V31.2183H68.4712V39.5384H69.9328Z" fill="#950EBA"/>
<path d="M74.8021 39.5384C77.4005 39.5384 79.1619 37.8294 79.1619 35.3846C79.1619 32.9397 77.4005 31.2183 74.8021 31.2183H71.704V39.5384H74.8021ZM73.1656 32.5031H74.8021C76.6634 32.5031 77.6628 33.7754 77.6628 35.3846C77.6628 36.9563 76.6135 38.2536 74.8021 38.2536H73.1656V32.5031Z" fill="#950EBA"/>
<path fill-rule="evenodd" clip-rule="evenodd" d="M30.1825 6.86271C32.0803 6.86271 33.6189 5.32644 33.6189 3.43135C33.6189 1.53627 32.0803 0 30.1825 0C28.2846 0 26.7461 1.53627 26.7461 3.43135C26.7461 5.32644 28.2846 6.86271 30.1825 6.86271ZM0.124858 20.5155L1.10948 21.5538C1.19527 21.6443 1.31455 21.6955 1.43933 21.6955H13.7198C13.8014 21.6955 13.8816 21.6735 13.9518 21.6319L17.1256 19.7489C17.2869 19.6532 17.4906 19.6664 17.6382 19.7821L23.54 24.4093C23.6327 24.4819 23.6934 24.5876 23.7095 24.7041L24.9408 33.617C24.9718 33.8414 25.1639 34.0086 25.3908 34.0086H26.3583C26.6092 34.0086 26.8126 33.8055 26.8126 33.555V23.5045C26.8126 23.405 26.7798 23.3082 26.7193 23.2292L21.3574 16.2218C21.2322 16.0583 21.2331 15.8311 21.3594 15.6684L26.8464 8.60528C26.9662 8.4511 26.9738 8.23771 26.8653 8.07541L24.6686 4.78964C24.5843 4.66359 24.4425 4.58789 24.2908 4.58789H12.9372C12.5153 4.58789 12.3213 5.11214 12.6418 5.38609L14.1802 6.70095C14.2458 6.75701 14.326 6.79324 14.4115 6.80541L20.4356 7.66301C20.6586 7.69476 20.7575 7.9608 20.6093 8.1302L12.3425 17.5778C12.274 17.656 12.1807 17.7084 12.0782 17.7262L0.376928 19.7567C0.0198596 19.8187 -0.124331 20.2527 0.124858 20.5155Z" fill="#950EBA"/>
</svg>
