<svg width="129" height="40" viewBox="0 0 129 40" fill="none" xmlns="http://www.w3.org/2000/svg">
<g clip-path="url(#clip0_5317_16381)">
<path d="M59.125 19.21H61.7578V32.4732H68.8735L68.6716 34.7393H59.125V19.21Z" fill="#141A1F"/>
<path d="M74.6771 25.3507C73.9521 25.348 73.2476 25.5886 72.6771 26.0338C72.0732 26.4929 71.6979 27.2175 71.5516 28.2076H76.6366C77.0976 28.2076 77.3278 28.001 77.3278 27.5877C77.3278 27.0098 77.0837 26.4916 76.5955 26.0329C76.1067 25.5743 75.4673 25.3469 74.6771 25.3507ZM75.1008 34.9558C73.9548 34.9558 72.9328 34.713 72.0343 34.2274C71.1513 33.7545 70.4184 33.0462 69.918 32.1822C69.4053 31.3098 69.1484 30.2965 69.1484 29.1424C69.1479 27.9883 69.4009 26.9828 69.9074 26.126C70.3973 25.284 71.1079 24.5901 71.9631 24.1189C72.8355 23.6357 73.8197 23.3871 74.8184 23.3978C75.8142 23.3978 76.6766 23.6233 77.4056 24.0744C78.1007 24.4925 78.6789 25.0768 79.0887 25.774C79.4685 26.4044 79.6726 27.124 79.6798 27.8588C79.6798 28.584 79.4785 29.1275 79.0765 29.4895C78.6745 29.8516 78.1396 30.0329 77.4718 30.0334H71.6045C71.7674 30.9507 72.1877 31.668 72.8661 32.1854C73.5445 32.7029 74.358 32.9618 75.3077 32.9623C76.6305 32.9623 77.7604 32.5334 78.6973 31.6756L79.7237 33.1841C79.1338 33.7725 78.4221 34.2265 77.6386 34.5147C76.8262 34.8132 75.9666 34.9634 75.1008 34.9581V34.9558Z" fill="#141A1F"/>
<path d="M83.2958 31.3206C83.2958 31.8839 83.4927 32.3156 83.8874 32.6155C84.2817 32.9155 84.7754 33.0672 85.3676 33.0704C85.8347 33.0757 86.2968 32.9736 86.7171 32.7717C87.1136 32.5822 87.455 32.296 87.7102 31.9398C87.961 31.5908 88.0939 31.1717 88.0894 30.7428V29.8525C87.733 29.7151 87.3638 29.6136 86.9868 29.5498C86.5998 29.4836 86.2078 29.4501 85.8152 29.4495C84.9828 29.4495 84.3545 29.627 83.9303 29.9821C83.729 30.1407 83.5666 30.3438 83.4571 30.5752C83.3464 30.8082 83.2914 31.0632 83.2958 31.3206ZM84.612 34.9625C83.4671 34.9625 82.5296 34.6488 81.8006 34.0213C81.0711 33.3938 80.7069 32.5619 80.7075 31.5254C80.6963 30.8366 80.9032 30.1618 81.2985 29.596C81.7172 29.0146 82.2883 28.5582 82.9489 28.276C83.6545 27.9576 84.4685 27.7987 85.3904 27.7993C85.877 27.799 86.3618 27.8432 86.84 27.9312C87.2704 28.0062 87.6902 28.1325 88.0905 28.3075V27.8397C88.0905 27.1 87.8414 26.516 87.3432 26.0875C86.845 25.6591 86.1505 25.4458 85.2586 25.4474C84.637 25.444 84.0203 25.5569 83.4404 25.78C82.8593 26.0076 82.3205 26.3302 81.8462 26.7342L80.8648 25.2264C82.1671 24.0546 83.8608 23.4059 85.6167 23.4063C86.6587 23.4063 87.5506 23.5986 88.2929 23.9833C89.0041 24.3372 89.598 24.8876 90.0022 25.5688C90.4009 26.2601 90.6049 27.0453 90.5938 27.8421V34.7392H88.3619L88.274 33.2314C87.9326 33.717 87.4489 34.1276 86.8239 34.4632C86.1989 34.7988 85.4616 34.9642 84.612 34.9594V34.9625Z" fill="#141A1F"/>
<path d="M97.5583 32.9187C98.4357 32.9187 99.183 32.5858 99.8002 31.92C100.418 31.2542 100.726 30.3078 100.724 29.0809C100.724 27.9425 100.441 27.0522 99.8753 26.4101C99.6178 26.1022 99.2937 25.8558 98.9272 25.6888C98.5614 25.5218 98.1621 25.4387 97.759 25.4454C96.911 25.4454 96.2193 25.7336 95.6839 26.3098C95.1484 26.886 94.8821 27.6182 94.8848 28.5063V31.7655C95.566 32.5343 96.4573 32.9187 97.5583 32.9187ZM92.3398 30.1323V23.6244H94.6185L94.708 25.4438C95.0544 24.8174 95.5732 24.3019 96.2032 23.9571C96.8621 23.5857 97.6083 23.3944 98.3656 23.4027C99.2642 23.3917 100.147 23.6381 100.909 24.1125C101.675 24.5966 102.294 25.279 102.699 26.0864C103.139 26.9297 103.358 27.8985 103.357 28.9927C103.357 30.1921 103.116 31.2383 102.633 32.1313C102.189 32.9851 101.524 33.7052 100.705 34.2169C99.9103 34.7106 98.9895 34.9684 98.052 34.9598C97.456 34.9649 96.8632 34.8675 96.2999 34.6717C95.7667 34.485 95.283 34.1807 94.8848 33.7815V39.1724H92.3426V30.1323" fill="#141A1F"/>
<path d="M12.9888 19.2109L7.80678 27.547L2.62396 19.2109H0V34.7322H2.60442V23.5934L7.05719 30.6888H8.55471L13.0083 23.5934V34.7322H15.6087V19.2109H12.9888Z" fill="#141A1F"/>
<path d="M19.7276 31.3208C19.7276 31.8841 19.9249 32.3157 20.3194 32.6157C20.7138 32.9157 21.2073 33.0671 21.7998 33.0697C22.2667 33.0751 22.7286 32.9729 23.1492 32.7711C23.5469 32.5823 23.8897 32.296 24.1454 31.9391C24.3959 31.5901 24.5284 31.1709 24.5239 30.7421V29.8519C24.1666 29.7136 23.796 29.6121 23.4178 29.5492C23.031 29.483 22.6392 29.4494 22.2466 29.4488C21.4148 29.4488 20.7868 29.6263 20.3625 29.9814C20.1613 30.1407 19.9995 30.3438 19.8895 30.575C19.7794 30.8062 19.7241 31.0594 19.7276 31.3151V31.3208ZM21.0445 34.9627C19.8975 34.9627 18.9607 34.6487 18.2342 34.0207C17.5077 33.3926 17.1433 32.5609 17.1411 31.5256C17.1292 30.8369 17.3347 30.1618 17.7287 29.5953C18.1475 29.0135 18.7187 28.5569 19.3801 28.2753C20.0855 27.9564 20.8994 27.7976 21.8218 27.7986C22.3077 27.7984 22.7926 27.8426 23.2705 27.9305C23.7009 28.006 24.1206 28.1326 24.5206 28.3077V27.8399C24.5206 27.1018 24.2716 26.518 23.7735 26.0885C23.2746 25.6587 22.5811 25.4451 21.6883 25.4451C21.0664 25.4417 20.4493 25.5545 19.8693 25.7777C19.2882 26.0049 18.7495 26.3274 18.2757 26.7319L17.299 25.2225C18.6008 24.0506 20.2944 23.4017 22.0505 23.4023C23.0922 23.4023 23.984 23.5947 24.7257 23.9794C25.4369 24.3334 26.0304 24.8839 26.4349 25.5649C26.8346 26.2564 27.0393 27.0424 27.0274 27.8399V34.7394H24.7941L24.7054 33.2316C24.3646 33.7232 23.8815 34.1335 23.2559 34.4626C22.6302 34.7917 21.8931 34.9574 21.0445 34.9595V34.9627Z" fill="#141A1F"/>
<path d="M33.9783 32.5655C34.8112 32.5655 35.4877 32.2993 36.0081 31.7667C36.5284 31.2342 36.7886 30.5614 36.7886 29.7483V26.3322C36.4459 26.0361 36.048 25.81 35.6174 25.6669C35.1669 25.5166 34.6944 25.4417 34.2192 25.4451C33.7896 25.4369 33.3631 25.5186 32.9673 25.6848C32.5715 25.851 32.2152 26.098 31.9216 26.4099C31.2971 27.0535 30.9846 27.9438 30.984 29.0806C30.984 30.1311 31.2667 30.9739 31.8321 31.6089C32.0961 31.9164 32.4257 32.1616 32.797 32.3267C33.1682 32.4917 33.5718 32.5725 33.9783 32.5632V32.5655ZM33.5542 39.3979C32.5923 39.4025 31.6372 39.2361 30.7341 38.9066C29.8787 38.5983 29.0937 38.1234 28.4252 37.5098L29.4506 35.8676C29.9763 36.3292 30.5808 36.6934 31.2355 36.9432C31.9483 37.2097 32.7049 37.3412 33.4663 37.3308C34.373 37.3308 35.1538 37.0908 35.8087 36.6105C36.4636 36.1304 36.7905 35.4168 36.7894 34.4699V33.0318C36.4491 33.531 35.9791 33.9292 35.4294 34.1842C34.8483 34.4659 34.1793 34.6064 33.4224 34.6059C32.5248 34.616 31.6421 34.3782 30.8725 33.9188C30.1043 33.4594 29.4731 32.8049 29.0436 32.0225C28.5906 31.2175 28.3638 30.2822 28.3633 29.2166C28.3633 28.0933 28.6047 27.0951 29.0876 26.2221C29.5463 25.3738 30.2224 24.6612 31.0474 24.1567C31.8683 23.6543 32.815 23.3926 33.7789 23.4016C34.367 23.4007 34.9511 23.498 35.5067 23.6897C36.0467 23.871 36.5448 24.1577 36.9717 24.533L37.0621 23.6266H39.3409V34.3623C39.3409 35.5007 39.0666 36.4435 38.5181 37.1908C37.9745 37.9324 37.2338 38.5086 36.3792 38.8548C35.4835 39.2206 34.5234 39.4052 33.555 39.3979H33.5542Z" fill="#141A1F"/>
<path d="M41.1825 34.7402V23.6242H43.7283V34.7402H41.1825ZM42.4554 21.7425C42.2377 21.7492 42.0209 21.7124 41.8177 21.6342C41.6146 21.5561 41.4293 21.4383 41.2728 21.2876C40.9727 20.9819 40.8047 20.5716 40.8047 20.1444C40.8047 19.7172 40.9727 19.307 41.2728 19.0013C41.5973 18.71 42.0191 18.5491 42.4562 18.5498C42.8933 18.5506 43.3145 18.7129 43.638 19.0054C43.8693 19.2309 44.0265 19.5208 44.0892 19.8369C44.1519 20.153 44.117 20.4805 43.9891 20.7765C43.8612 21.0725 43.6463 21.3232 43.3726 21.4956C43.0989 21.6679 42.7792 21.754 42.4554 21.7425Z" fill="#141A1F"/>
<path d="M50.9895 34.9606C49.9713 34.9723 48.9655 34.7368 48.0595 34.2743C47.1841 33.8234 46.4515 33.1398 45.9434 32.2996C45.4161 31.4406 45.1523 30.4044 45.1523 29.191C45.1523 28.0525 45.4236 27.0468 45.9662 26.1738C46.4941 25.3162 47.2404 24.6124 48.1295 24.1335C48.9324 23.705 49.8205 23.458 50.7305 23.41C51.6404 23.362 52.5497 23.5143 53.3937 23.8559C54.0699 24.127 54.6759 24.5464 55.1664 25.0828L54.0733 26.6586C53.6774 26.3173 53.2293 26.0411 52.7458 25.8404C52.2681 25.6462 51.7563 25.5482 51.2402 25.5522C50.6483 25.548 50.0651 25.693 49.5449 25.9739C49.0177 26.2612 48.5786 26.6852 48.2744 27.2008C47.9445 27.7404 47.7798 28.4024 47.7804 29.1869C47.7804 29.9855 47.9399 30.6507 48.2589 31.1827C48.5576 31.6946 48.9943 32.1135 49.5196 32.3918C50.0345 32.6638 50.6092 32.8045 51.1921 32.8014C52.2344 32.8014 53.1943 32.4315 54.0717 31.6918L55.1411 33.2675C54.6399 33.8018 54.0275 34.2208 53.3465 34.4953C52.6006 34.8073 51.7988 34.9657 50.9895 34.9606Z" fill="#141A1F"/>
<path d="M109.07 22.9863V40.0007L111.664 38.5173V24.4755L109.07 22.9863Z" fill="#141A1F"/>
<path d="M91.7578 10.0284L106.48 18.4818V15.5043L94.3528 8.54004L91.7578 10.0284Z" fill="#141A1F"/>
<path fill-rule="evenodd" clip-rule="evenodd" d="M111.658 16.9958L111.65 0L109.07 1.40581V17.6853C109.07 18.3854 109.255 19.0731 109.607 19.6795C109.959 20.2858 110.465 20.7893 111.075 21.1396L126.405 29.9402L129 28.4502L112.945 19.2328L128.978 10.0259L126.385 8.53679L111.658 16.9958Z" fill="#141A1F"/>
</g>
<defs>
<clipPath id="clip0_5317_16381">
<rect width="129" height="40" fill="white"/>
</clipPath>
</defs>
</svg>
