<svg width="185" height="41" viewBox="0 0 185 41" fill="none" xmlns="http://www.w3.org/2000/svg">
<path fill-rule="evenodd" clip-rule="evenodd" d="M0.185469 2.46812C0.53052 1.93696 1.24022 1.78648 1.77063 2.13202L18.9156 13.3013L36.2452 2.40882C36.5983 2.18688 37.0439 2.17452 37.4087 2.37656C37.7736 2.57859 38 2.96313 38 3.38061V37.5143C38 37.9276 37.778 38.309 37.4188 38.5127C37.0596 38.7164 36.6188 38.7108 36.2648 38.4981L30.5362 35.0561C30.1911 34.8487 29.9799 34.4752 29.9799 34.0722V21.1645C29.9799 20.5309 30.4929 20.0172 31.1257 20.0172C31.7584 20.0172 32.2714 20.5309 32.2714 21.1645V33.4226L35.7086 35.4878V5.45539L19.5137 15.6347C19.1356 15.8723 18.654 15.8684 18.2798 15.6246L0.521089 4.05553C-0.00931961 3.70998 -0.159582 2.99928 0.185469 2.46812Z" fill="#33A4F0"/>
<path fill-rule="evenodd" clip-rule="evenodd" d="M0.700275 9.25233C1.07143 9.05223 1.52233 9.07239 1.87421 9.30481L19.1968 20.7465L31.4568 12.7435C31.9869 12.3974 32.6967 12.5473 33.0423 13.0781C33.3878 13.6089 33.2382 14.3198 32.7081 14.6658L19.8187 23.0797C19.4366 23.3292 18.943 23.3278 18.5622 23.0763L2.38911 12.3938V35.6652L5.7308 33.4532V21.1624C5.7308 20.5287 6.24376 20.0151 6.87653 20.0151C7.50929 20.0151 8.02225 20.5287 8.02225 21.1624V34.0701C8.02225 34.4553 7.82922 34.8148 7.50832 35.0272L1.87517 38.7561C1.52335 38.989 1.07222 39.0095 0.700782 38.8095C0.329343 38.6095 0.0976562 38.2213 0.0976562 37.799V10.2626C0.0976562 9.84046 0.329118 9.45243 0.700275 9.25233Z" fill="#33A4F0"/>
<path d="M51.5781 12.9463H55.125L59.875 24.54H60.0625L64.8125 12.9463H68.3594V28.9463H65.5781V17.9541H65.4297L61.0078 28.8994H58.9297L54.5078 17.9307H54.3594V28.9463H51.5781V12.9463ZM76.7031 29.1807C75.5 29.1807 74.4609 28.9307 73.5859 28.4307C72.7161 27.9255 72.0469 27.2119 71.5781 26.29C71.1094 25.363 70.875 24.2718 70.875 23.0166C70.875 21.7822 71.1094 20.6989 71.5781 19.7666C72.0521 18.8291 72.7135 18.0999 73.5625 17.5791C74.4115 17.0531 75.4089 16.79 76.5547 16.79C77.2943 16.79 77.9922 16.9098 78.6484 17.1494C79.3099 17.3838 79.8932 17.7484 80.3984 18.2432C80.9089 18.738 81.3099 19.3682 81.6016 20.1338C81.8932 20.8942 82.0391 21.8005 82.0391 22.8525V23.7197H72.2031V21.8135H79.3281C79.3229 21.2718 79.2057 20.79 78.9766 20.3682C78.7474 19.9411 78.4271 19.6051 78.0156 19.3604C77.6094 19.1156 77.1354 18.9932 76.5937 18.9932C76.0156 18.9932 75.5078 19.1338 75.0703 19.415C74.6328 19.6911 74.2917 20.0557 74.0469 20.5088C73.8073 20.9567 73.6849 21.4489 73.6797 21.9854V23.6494C73.6797 24.3473 73.8073 24.9463 74.0625 25.4463C74.3177 25.9411 74.6745 26.3213 75.1328 26.5869C75.5911 26.8473 76.1276 26.9775 76.7422 26.9775C77.1536 26.9775 77.526 26.9202 77.8594 26.8057C78.1927 26.6859 78.4818 26.5114 78.7266 26.2822C78.9714 26.0531 79.1563 25.7692 79.2813 25.4307L81.9219 25.7275C81.7552 26.4255 81.4375 27.0348 80.9688 27.5557C80.5052 28.0713 79.9115 28.4723 79.1875 28.7588C78.4635 29.04 77.6354 29.1807 76.7031 29.1807ZM87.2598 12.9463V28.9463H84.4316V12.9463H87.2598ZM95.4805 29.1807C94.2773 29.1807 93.2383 28.9307 92.3633 28.4307C91.4935 27.9255 90.8242 27.2119 90.3555 26.29C89.8867 25.363 89.6523 24.2718 89.6523 23.0166C89.6523 21.7822 89.8867 20.6989 90.3555 19.7666C90.8294 18.8291 91.4909 18.0999 92.3398 17.5791C93.1888 17.0531 94.1862 16.79 95.332 16.79C96.0716 16.79 96.7695 16.9098 97.4258 17.1494C98.0872 17.3838 98.6706 17.7484 99.1758 18.2432C99.6862 18.738 100.087 19.3682 100.379 20.1338C100.671 20.8942 100.816 21.8005 100.816 22.8525V23.7197H90.9805V21.8135H98.1055C98.1003 21.2718 97.9831 20.79 97.7539 20.3682C97.5247 19.9411 97.2044 19.6051 96.793 19.3604C96.3867 19.1156 95.9128 18.9932 95.3711 18.9932C94.793 18.9932 94.2852 19.1338 93.8477 19.415C93.4102 19.6911 93.069 20.0557 92.8242 20.5088C92.5846 20.9567 92.4622 21.4489 92.457 21.9854V23.6494C92.457 24.3473 92.5846 24.9463 92.8398 25.4463C93.0951 25.9411 93.4518 26.3213 93.9102 26.5869C94.3685 26.8473 94.9049 26.9775 95.5195 26.9775C95.931 26.9775 96.3034 26.9202 96.6367 26.8057C96.9701 26.6859 97.2591 26.5114 97.5039 26.2822C97.7487 26.0531 97.9336 25.7692 98.0586 25.4307L100.699 25.7275C100.533 26.4255 100.215 27.0348 99.7461 27.5557C99.2826 28.0713 98.6888 28.4723 97.9648 28.7588C97.2409 29.04 96.4128 29.1807 95.4805 29.1807ZM106.037 21.915V28.9463H103.209V16.9463H105.912V18.9854H106.053C106.329 18.3135 106.769 17.7796 107.373 17.3838C107.982 16.988 108.735 16.79 109.631 16.79C110.459 16.79 111.18 16.9671 111.795 17.3213C112.415 17.6755 112.894 18.1885 113.232 18.8604C113.576 19.5322 113.745 20.3473 113.74 21.3057V28.9463H110.912V21.7432C110.912 20.9411 110.704 20.3135 110.287 19.8604C109.876 19.4072 109.305 19.1807 108.576 19.1807C108.081 19.1807 107.641 19.29 107.256 19.5088C106.876 19.7223 106.576 20.0322 106.357 20.4385C106.144 20.8447 106.037 21.3369 106.037 21.915ZM116.615 28.9463V16.9463H119.443V28.9463H116.615ZM118.037 15.2432C117.589 15.2432 117.204 15.0947 116.881 14.7979C116.558 14.4958 116.396 14.1338 116.396 13.7119C116.396 13.2848 116.558 12.9229 116.881 12.626C117.204 12.3239 117.589 12.1729 118.037 12.1729C118.49 12.1729 118.876 12.3239 119.193 12.626C119.516 12.9229 119.678 13.2848 119.678 13.7119C119.678 14.1338 119.516 14.4958 119.193 14.7979C118.876 15.0947 118.49 15.2432 118.037 15.2432ZM127.586 29.1807C126.414 29.1807 125.398 28.9229 124.539 28.4072C123.68 27.8916 123.013 27.1702 122.539 26.2432C122.07 25.3161 121.836 24.2327 121.836 22.9932C121.836 21.7536 122.07 20.6676 122.539 19.7354C123.013 18.8031 123.68 18.0791 124.539 17.5635C125.398 17.0479 126.414 16.79 127.586 16.79C128.758 16.79 129.773 17.0479 130.633 17.5635C131.492 18.0791 132.156 18.8031 132.625 19.7354C133.099 20.6676 133.336 21.7536 133.336 22.9932C133.336 24.2327 133.099 25.3161 132.625 26.2432C132.156 27.1702 131.492 27.8916 130.633 28.4072C129.773 28.9229 128.758 29.1807 127.586 29.1807ZM127.602 26.915C128.237 26.915 128.768 26.7406 129.195 26.3916C129.622 26.0374 129.94 25.5635 130.148 24.9697C130.362 24.376 130.469 23.7145 130.469 22.9854C130.469 22.251 130.362 21.5869 130.148 20.9932C129.94 20.3942 129.622 19.9176 129.195 19.5635C128.768 19.2093 128.237 19.0322 127.602 19.0322C126.951 19.0322 126.409 19.2093 125.977 19.5635C125.549 19.9176 125.229 20.3942 125.016 20.9932C124.807 21.5869 124.703 22.251 124.703 22.9854C124.703 23.7145 124.807 24.376 125.016 24.9697C125.229 25.5635 125.549 26.0374 125.977 26.3916C126.409 26.7406 126.951 26.915 127.602 26.915ZM138.564 21.915V28.9463H135.736V16.9463H138.439V18.9854H138.58C138.856 18.3135 139.296 17.7796 139.9 17.3838C140.51 16.988 141.262 16.79 142.158 16.79C142.986 16.79 143.708 16.9671 144.322 17.3213C144.942 17.6755 145.421 18.1885 145.76 18.8604C146.104 19.5322 146.273 20.3473 146.268 21.3057V28.9463H143.439V21.7432C143.439 20.9411 143.231 20.3135 142.814 19.8604C142.403 19.4072 141.833 19.1807 141.104 19.1807C140.609 19.1807 140.169 19.29 139.783 19.5088C139.403 19.7223 139.104 20.0322 138.885 20.4385C138.671 20.8447 138.564 21.3369 138.564 21.915ZM157.623 12.9463V28.9463H154.725V12.9463H157.623ZM163.465 21.915V28.9463H160.637V16.9463H163.34V18.9854H163.48C163.757 18.3135 164.197 17.7796 164.801 17.3838C165.41 16.988 166.163 16.79 167.059 16.79C167.887 16.79 168.608 16.9671 169.223 17.3213C169.842 17.6755 170.322 18.1885 170.66 18.8604C171.004 19.5322 171.173 20.3473 171.168 21.3057V28.9463H168.34V21.7432C168.34 20.9411 168.132 20.3135 167.715 19.8604C167.303 19.4072 166.733 19.1807 166.004 19.1807C165.509 19.1807 165.069 19.29 164.684 19.5088C164.303 19.7223 164.004 20.0322 163.785 20.4385C163.572 20.8447 163.465 21.3369 163.465 21.915ZM179.277 29.1807C178.079 29.1807 177.051 28.9176 176.191 28.3916C175.337 27.8656 174.678 27.139 174.215 26.2119C173.757 25.2796 173.527 24.2067 173.527 22.9932C173.527 21.7744 173.762 20.6989 174.23 19.7666C174.699 18.8291 175.361 18.0999 176.215 17.5791C177.074 17.0531 178.09 16.79 179.262 16.79C180.236 16.79 181.098 16.9697 181.848 17.3291C182.603 17.6833 183.204 18.1859 183.652 18.8369C184.1 19.4827 184.355 20.238 184.418 21.1025H181.715C181.605 20.5244 181.345 20.0426 180.934 19.6572C180.527 19.2666 179.983 19.0713 179.301 19.0713C178.723 19.0713 178.215 19.2275 177.777 19.54C177.34 19.8473 176.999 20.29 176.754 20.8682C176.514 21.4463 176.395 22.139 176.395 22.9463C176.395 23.764 176.514 24.4671 176.754 25.0557C176.993 25.639 177.329 26.0895 177.762 26.4072C178.199 26.7197 178.712 26.876 179.301 26.876C179.717 26.876 180.09 26.7979 180.418 26.6416C180.751 26.4801 181.03 26.2484 181.254 25.9463C181.478 25.6442 181.632 25.277 181.715 24.8447H184.418C184.35 25.6937 184.1 26.4463 183.668 27.1025C183.236 27.7536 182.647 28.264 181.902 28.6338C181.158 28.9984 180.283 29.1807 179.277 29.1807Z" fill="#1A143E"/>
</svg>
