<svg width="182" height="39" viewBox="0 0 182 39" fill="none" xmlns="http://www.w3.org/2000/svg">
<path d="M7.88092 27.8919C5.29828 25.8919 2.38594 22.7703 0.531391 20C-0.0867933 19.0811 -0.100531 19.0541 0.16048 18.527C1.03968 16.7162 5.32575 12.0135 7.99082 9.91892L9.17223 9L12.8264 9.04054L16.4805 9.08108L15.203 9.93243C13.211 11.2432 11.2741 12.8243 9.3783 14.6892C7.249 16.7838 5.75162 18.5405 5.75162 18.973C5.75162 19.4189 7.22152 21.1216 9.58436 23.4054C11.7411 25.4865 13.3484 26.8108 15.2991 28.0811C15.9585 28.5135 16.4805 28.8919 16.4805 28.9324C16.4805 28.973 14.8595 29 12.8813 29H9.28213L7.88092 27.8919ZM22.841 28.8108C20.5468 28.4054 18.9945 27.5811 17.2773 25.8784C13.6506 22.2973 13.3484 16.9054 16.5218 12.8108C17.8543 11.0946 19.6676 9.93243 22.0305 9.2973C24.4483 8.64865 27.4155 9.08108 29.6685 10.4189C31.7428 11.6486 33.254 13.5 34.1057 15.8378C34.4766 16.8514 34.5315 17.2973 34.5453 18.8919C34.5453 20.5135 34.4903 20.9324 34.0919 22.0541C33.2952 24.3108 31.5917 26.4324 29.6547 27.5405C27.8277 28.6216 24.8329 29.1622 22.841 28.8108ZM26.7424 22.5541C28.8992 21.0676 29.4075 18.5676 27.9788 16.527C27.0309 15.1622 25.0527 14.4189 23.5004 14.8243C20.2858 15.6757 19.1181 19.4189 21.3299 21.7838C22.8822 23.2297 25.245 23.5811 26.7424 22.5541ZM32.4984 28.9054C32.4984 28.8649 33.1578 28.3919 33.982 27.8514C36.0564 26.4865 38.0621 24.7973 40.1776 22.6351C42.4306 20.3513 43.2273 19.3784 43.2273 18.9595C43.2273 18.2838 38.9962 13.9054 36.2899 11.7838C35.4245 11.1081 34.2018 10.2297 33.5699 9.82432L32.4297 9.09459L36.1113 9.05405L39.793 9.01351L41.0568 10.027C43.9279 12.3243 46.3457 14.9054 48.1453 17.5676C49.2169 19.1486 49.2306 18.9595 47.7744 20.9595C45.7825 23.6892 43.3372 26.1892 40.6859 28.2297L39.6831 29H36.0976C34.1057 28.973 32.4984 28.9459 32.4984 28.9054Z" fill="#28BBBB"/>
<path d="M82.2372 28.7225C80.2576 27.9998 78.4152 26.1169 77.886 24.234C77.2588 22.0469 77.8468 19.2131 79.2776 17.5204C81.414 15.0099 86.0787 14.7817 88.5483 17.064C89.6067 18.0339 90.3907 19.7646 90.5279 21.3812L90.6455 22.8076H80.1792L80.336 23.3211C80.728 24.5954 81.2964 25.4132 82.1784 25.9647C82.9624 26.4783 83.3936 26.5733 84.7068 26.5733C86.1179 26.5733 86.4119 26.4973 87.3919 25.8126L88.4895 25.0518L89.2931 25.6414C89.7439 25.9648 90.0967 26.3641 90.0967 26.5353C90.0967 26.9537 89.2147 27.6764 87.9799 28.285C86.7843 28.9317 83.4328 29.1599 82.2372 28.7225ZM87.7643 20.3732C87.7643 19.9168 86.7451 18.6615 86.0591 18.2621C85.1967 17.7486 83.5504 17.6535 82.7468 18.072C81.9824 18.4523 81.1592 19.2321 80.7868 19.9358L80.4536 20.5634H84.1188C86.1179 20.5444 87.7643 20.4683 87.7643 20.3732ZM102.974 28.6084C102.013 28.1139 101.229 27.4102 100.779 26.5924C100.485 26.0598 100.367 25.0518 100.308 21.9708L100.21 18.0339H98.3678V15.7517H100.249V12.1001H103.072V15.7517H107.305V18.0339H103.072V21.7045C103.072 25.2991 103.091 25.3752 103.66 25.9267C104.13 26.3832 104.483 26.4973 105.522 26.4973H106.796L107.07 27.5433C107.227 28.1139 107.286 28.6844 107.207 28.7985C106.972 29.1409 103.758 29.0268 102.974 28.6084ZM135.47 28.7225C132.765 27.7525 130.903 25.0518 130.884 22.123C130.864 19.7836 132.53 17.14 134.667 16.113C136.411 15.2762 139.018 15.2572 140.625 16.075C141.958 16.7597 141.938 16.7597 141.938 16.1891C141.938 15.7897 142.095 15.7326 143.232 15.7326H144.525V28.7605H143.251C142.115 28.7605 141.958 28.7035 141.958 28.3041C141.958 27.7335 141.958 27.7335 140.723 28.3611C139.567 28.9507 136.666 29.1599 135.47 28.7225ZM140.017 26.0408C141.644 25.242 141.742 25.0138 141.664 22.123L141.605 19.5364L140.723 18.8517C140.057 18.3192 139.547 18.129 138.547 18.0529C137.842 17.9959 136.999 18.0149 136.666 18.091C135.823 18.3002 134.412 19.5744 134.02 20.4493C133.353 22.0088 133.824 24.3291 135.039 25.3561C136.411 26.5353 138.469 26.8206 140.017 26.0408ZM151.718 28.6844C150.738 28.266 149.562 26.8967 149.268 25.8696C149.131 25.3942 149.014 23.4353 149.014 21.5144V18.0339H147.132V15.7517H149.014V12.1001H151.836V15.7517H156.07V18.0339H151.836V21.7045C151.836 25.2991 151.856 25.3752 152.424 25.9267C152.894 26.3832 153.228 26.4973 154.306 26.4973C155.717 26.4973 155.795 26.5924 155.913 28.209L155.972 28.8936L154.208 28.9507C153.13 28.9697 152.15 28.8746 151.718 28.6844ZM162.439 28.7795C160.558 28.228 159.108 26.9727 158.226 25.1089C157.05 22.6365 157.579 19.2701 159.441 17.3683C161.165 15.6185 164.556 14.9529 166.791 15.9419C168.79 16.8357 170.338 19.099 170.613 21.5714L170.75 22.8266H160.264L160.421 23.5494C160.773 25.242 162.733 26.7065 164.693 26.7065C165.732 26.7065 167.339 26.0789 167.849 25.4893C168.319 24.9377 168.633 25.0138 169.476 25.8696L170.221 26.6304L169.437 27.3721C168.319 28.4182 166.555 29.0078 164.615 28.9887C163.753 28.9697 162.773 28.8746 162.439 28.7795ZM167.633 20.2211C167.633 19.7646 166.516 18.5284 165.732 18.129C164.223 17.3683 162.106 17.9578 161.087 19.4033C160.793 19.8217 160.558 20.2401 160.558 20.3542C160.558 20.4683 162.145 20.5444 164.086 20.5444C167.006 20.5444 167.633 20.4873 167.633 20.2211ZM55.7383 19.0609V9.34234H57.7963L61.383 14.8768C63.3626 17.9198 65.499 20.7156 65.499 20.7156C65.499 20.7156 66.3026 19.8407 69.3013 15.2382L73.0645 9.45645L74.1621 9.38038L75.2597 9.3043V28.7795L73.7897 28.7035L72.3197 28.6274L72.2021 22.3512L72.0845 16.075L69.2817 20.3542L66.479 24.6334H64.4994L61.5986 20.2401L58.6978 15.8468L58.639 22.3131L58.5802 28.7795H55.7383V19.0609ZM93.2523 18.8898L93.3111 9H95.8982L95.957 18.8898L96.0158 28.7795H93.1739L93.2523 18.8898ZM111.5 22.6555C110.108 19.2892 108.912 16.3603 108.814 16.132C108.677 15.7707 108.834 15.7326 110.069 15.7326H111.46L113.205 19.9738C114.165 22.3131 115.008 24.2531 115.067 24.2911C115.145 24.3291 115.988 22.4273 116.968 20.0309L118.732 15.6946L119.751 15.7517L120.77 15.8087L122.534 20.0309C123.495 22.3512 124.318 24.2911 124.377 24.3291C124.416 24.3672 125.239 22.4653 126.219 20.107L127.983 15.8087L129.414 15.7326C130.198 15.6946 130.845 15.6946 130.845 15.7517C130.845 15.8087 129.629 18.6996 128.159 22.218L125.474 28.6084H123.436L121.75 24.5003C120.829 22.2371 119.967 20.2591 119.849 20.0879C119.712 19.8787 119.065 21.172 117.85 24.196L116.047 28.6084L115.028 28.6654L114.008 28.7225L111.5 22.6555ZM173.043 22.2561V15.7326H174.337C175.571 15.7326 175.63 15.7707 175.63 16.3032C175.63 16.8738 175.944 17.064 176.218 16.6455C176.571 16.075 178.257 15.5044 179.53 15.5044H180.863L180.706 16.2271C180.628 16.6265 180.55 17.1781 180.55 17.4824C180.55 17.9769 180.452 18.0339 179.472 18.0339C178.237 18.0339 177.669 18.2812 176.61 19.2511L175.846 19.9548V28.7605H173.043V22.2561Z" fill="#28BBBB"/>
</svg>
