<svg width="160" height="48" viewBox="0 0 160 48" fill="none" xmlns="http://www.w3.org/2000/svg">
<path d="M6.92828 32.0027C4.65783 30.2027 2.09753 27.3932 0.467157 24.9C-0.0763018 24.073 -0.0883793 24.0486 0.141081 23.5743C0.914 21.9446 4.68198 17.7122 7.02489 15.827L8.0635 15L11.2759 15.0365L14.4884 15.073L13.3652 15.8392C11.6141 17.0189 9.91126 18.4419 8.24466 20.1203C6.37274 22.0054 5.05637 23.5865 5.05637 23.9757C5.05637 24.377 6.34859 25.9095 8.42581 27.9649C10.3219 29.8378 11.7349 31.0297 13.4498 32.173C14.0295 32.5622 14.4884 32.9027 14.4884 32.9392C14.4884 32.9757 13.0633 33 11.3243 33H8.16012L6.92828 32.0027ZM20.08 32.8297C18.0631 32.4649 16.6985 31.723 15.1889 30.1905C12.0006 26.9676 11.7349 22.1149 14.5246 18.4297C15.6961 16.8851 17.2902 15.8392 19.3674 15.2676C21.493 14.6838 24.1016 15.073 26.0822 16.277C27.9058 17.3838 29.2342 19.05 29.983 21.1541C30.3091 22.0662 30.3574 22.4676 30.3695 23.9027C30.3695 25.3622 30.3212 25.7392 29.9709 26.7486C29.2705 28.7797 27.7729 30.6892 26.0701 31.6865C24.4639 32.6595 21.8311 33.1459 20.08 32.8297ZM23.5098 27.1986C25.4059 25.8608 25.8527 23.6108 24.5967 21.7743C23.7634 20.5459 22.0244 19.877 20.6597 20.2419C17.8337 21.0081 16.8072 24.377 18.7515 26.5054C20.1162 27.8068 22.1934 28.123 23.5098 27.1986ZM28.57 32.9149C28.57 32.8784 29.1497 32.4527 29.8743 31.9662C31.6979 30.7378 33.4611 29.2176 35.321 27.2716C37.3016 25.2162 38.002 24.3405 38.002 23.9635C38.002 23.3554 34.2824 19.4149 31.9032 17.5054C31.1424 16.8973 30.0675 16.1068 29.512 15.7419L28.5096 15.0851L31.7462 15.0486L34.9828 15.0122L36.0939 15.9243C38.618 17.9919 40.7435 20.3149 42.3256 22.7108C43.2676 24.1338 43.2796 23.9635 41.9995 25.7635C40.2483 28.2203 38.0987 30.4703 35.7678 32.3068L34.8862 33H31.7342C29.983 32.9757 28.57 32.9513 28.57 32.9149Z" fill="#141A1F"/>
<path d="M72.2957 32.7502C70.5555 32.0998 68.9358 30.4052 68.4706 28.7106C67.9192 26.7422 68.4361 24.1918 69.6939 22.6684C71.5721 20.4089 75.6729 20.2035 77.844 22.2576C78.7744 23.1305 79.4637 24.6882 79.5843 26.1431L79.6877 27.4269H70.4865L70.6244 27.889C70.969 29.0359 71.4687 29.7719 72.244 30.2683C72.9333 30.7304 73.3123 30.816 74.4668 30.816C75.7074 30.816 75.9659 30.7475 76.8274 30.1313L77.7923 29.4467L78.4987 29.9773C78.8951 30.2683 79.2052 30.6277 79.2052 30.7818C79.2052 31.1583 78.4298 31.8088 77.3443 32.3565C76.2932 32.9385 73.3468 33.1439 72.2957 32.7502ZM77.1548 25.2359C77.1548 24.8251 76.2588 23.6954 75.6557 23.3359C74.8976 22.8738 73.4502 22.7882 72.7437 23.1648C72.0717 23.5071 71.3481 24.2089 71.0207 24.8422L70.7278 25.4071H73.9499C75.7074 25.39 77.1548 25.3215 77.1548 25.2359ZM90.5257 32.6475C89.6814 32.2025 88.9922 31.5692 88.5959 30.8331C88.3374 30.3539 88.234 29.4467 88.1823 26.6737L88.0962 23.1305H86.4765V21.0765H88.1306V17.7901H90.6118V21.0765H94.3336V23.1305H90.6118V26.4341C90.6118 29.6692 90.6291 29.7376 91.1288 30.234C91.5423 30.6448 91.8524 30.7475 92.7657 30.7475H93.8857L94.1269 31.689C94.2647 32.2025 94.3164 32.716 94.2475 32.8187C94.0407 33.1268 91.2149 33.0241 90.5257 32.6475ZM119.094 32.7502C116.716 31.8773 115.079 29.4467 115.062 26.8107C115.045 24.7053 116.509 22.326 118.388 21.4017C119.921 20.6486 122.213 20.6315 123.626 21.3675C124.797 21.9837 124.78 21.9837 124.78 21.4702C124.78 21.1107 124.918 21.0594 125.917 21.0594H127.055V32.7845H125.935C124.935 32.7845 124.797 32.7331 124.797 32.3737C124.797 31.8601 124.797 31.8601 123.712 32.425C122.695 32.9556 120.145 33.1439 119.094 32.7502ZM123.091 30.3367C124.522 29.6178 124.608 29.4124 124.539 26.8107L124.487 24.4828L123.712 23.8666C123.126 23.3873 122.678 23.2161 121.799 23.1476C121.179 23.0963 120.438 23.1134 120.145 23.1819C119.404 23.3702 118.164 24.517 117.819 25.3044C117.233 26.708 117.647 28.7962 118.715 29.7205C119.921 30.7818 121.73 31.0385 123.091 30.3367ZM133.378 32.716C132.517 32.3394 131.483 31.107 131.224 30.1827C131.104 29.7548 131 27.9917 131 26.2629V23.1305H129.346V21.0765H131V17.7901H133.482V21.0765H137.203V23.1305H133.482V26.4341C133.482 29.6692 133.499 29.7376 133.998 30.234C134.412 30.6448 134.705 30.7475 135.653 30.7475C136.893 30.7475 136.962 30.8331 137.065 32.2881L137.117 32.9043L135.566 32.9556C134.619 32.9727 133.757 32.8872 133.378 32.716ZM142.803 32.8016C141.149 32.3052 139.874 31.1755 139.099 29.498C138.065 27.2728 138.53 24.2431 140.167 22.5314C141.683 20.9567 144.664 20.3576 146.628 21.2477C148.386 22.0522 149.747 24.0891 149.988 26.3143L150.109 27.444H140.891L141.028 28.0944C141.339 29.6178 143.062 30.9358 144.785 30.9358C145.698 30.9358 147.111 30.371 147.559 29.8403C147.972 29.344 148.248 29.4124 148.989 30.1827L149.644 30.8674L148.955 31.5349C147.972 32.4764 146.422 33.007 144.716 32.9899C143.958 32.9727 143.096 32.8872 142.803 32.8016ZM147.369 25.099C147.369 24.6882 146.387 23.5756 145.698 23.2161C144.371 22.5314 142.51 23.0621 141.614 24.3629C141.356 24.7395 141.149 25.1161 141.149 25.2188C141.149 25.3215 142.545 25.39 144.251 25.39C146.818 25.39 147.369 25.3386 147.369 25.099ZM49 24.0548V15.3081H50.8092L53.9624 20.2891C55.7027 23.0278 57.5808 25.544 57.5808 25.544C57.5808 25.544 58.2873 24.7566 60.9236 20.6143L64.2318 15.4108L65.1967 15.3423L66.1617 15.2739V32.8016L64.8694 32.7331L63.5771 32.6646L63.4737 27.0161L63.3703 21.3675L60.9063 25.2188L58.4424 29.0701H56.7021L54.1519 25.1161L51.6018 21.1621L51.5501 26.9818L51.4984 32.8016H49V24.0548ZM81.9793 23.9008L82.031 15H84.3054L84.3571 23.9008L84.4088 32.8016H81.9104L81.9793 23.9008ZM98.021 27.2899C96.7976 24.2602 95.7465 21.6242 95.6604 21.4188C95.5398 21.0936 95.6776 21.0594 96.7632 21.0594H97.9865L99.5201 24.8764C100.364 26.9818 101.105 28.7278 101.157 28.762C101.226 28.7962 101.967 27.0845 102.828 24.9278L104.379 21.0251L105.275 21.0765L106.171 21.1278L107.722 24.9278C108.566 27.0161 109.29 28.762 109.341 28.7962C109.376 28.8305 110.1 27.1188 110.961 24.9963L112.512 21.1278L113.77 21.0594C114.459 21.0251 115.028 21.0251 115.028 21.0765C115.028 21.1278 113.959 23.7296 112.667 26.8962L110.306 32.6475H108.514L107.033 28.9503C106.223 26.9134 105.465 25.1332 105.361 24.9791C105.241 24.7909 104.672 25.9548 103.604 28.6764L102.018 32.6475L101.122 32.6989L100.226 32.7502L98.021 27.2899ZM152.125 26.9305V21.0594H153.262C154.348 21.0594 154.399 21.0936 154.399 21.5729C154.399 22.0864 154.675 22.2576 154.916 21.881C155.227 21.3675 156.708 20.854 157.828 20.854H159L158.862 21.5044C158.793 21.8639 158.724 22.3603 158.724 22.6341C158.724 23.0792 158.638 23.1305 157.777 23.1305C156.691 23.1305 156.191 23.353 155.261 24.226L154.589 24.8593V32.7845H152.125V26.9305Z" fill="#141A1F"/>
</svg>
