<svg xmlns="http://www.w3.org/2000/svg" viewBox="0 0 264.583 26.829">
  <g fill="#27509B" transform="translate(-11.672 -100.205) scale(.06041)">
    <path d="M1793.9 2085.3c-9.1 1.6-80.4 15.3-155.4 17.3-133.7 3.7-250.2-49.8-251.3-146.3-1.8-167.2 167.2-258.9 292-284.4 55.9-11.4 163.6-24 270.8 2.4l-62.3 149.4c-17.9-40.7-63.9-41.5-82.7-41.9-45.5-1-83.2 11-111 23.8-63 28.9-117.9 121.5-28.7 157.2 49.4 19.8 112.5 4 178.1-6.4z"/>
    <path d="m4400.5 1668.1-107.4 291.8c1.5-29.4 7.3-145.4 10.9-212.3 1.5-27.5-4.5-48.6-17.6-62.5-16.1-16.8-37.2-17-37.4-17h-239.3l-156.4 425.2H4027l111-301.1-13.1 301.1h291.3l156.6-425.2z"/>
    <path d="m3303 1952.1 104.4-284h-200.3l-156.6 425.2h402.3l52-141.2zm-539.3-20.7h223.8l38.3-104.7h-223.7l17.1-47.2h234.9l41.3-111.4H2666l-156.5 425.2h434.3l42.1-114.7h-239.7zm-866.2 161.9h195.7l53.4-144h103.9l-53.4 144h196.1l156.7-425.2h-195.8l-56.8 153.2h-103.6l56.3-153.2h-196.5zm-866 0h206.1l156.4-425.2h-205.8z"/>
    <path d="m915.5 2093.3 156.5-425.2H781.1l-150.4 228.4s9.6-119.5 12-148.3c1.8-21.9-.9-80.1-54.3-80.1H349.8l-156.6 425.2h186.7l113.4-307.5-23.9 307.5h165.9l203.4-302.2-111.1 302.2z"/>
    <path d="M3530.9 2093.3H3737l156.5-425.2h-205.9z"/>
  </g>
</svg>
