<svg width="180" height="40" viewBox="0 0 180 40" fill="none" xmlns="http://www.w3.org/2000/svg">
<path d="M12.8514 20.8944C12.5895 21.0892 12.3533 21.1625 12.0189 21.1625C11.6908 21.1625 11.4572 21.0919 11.2028 20.9068L3.45749 13.4389L2.64153 12.6487V12.6521L0 10.1052V9.50133C0 8.76649 0.584775 8.18262 1.32076 8.18262C1.79372 8.18262 2.07023 8.3294 2.50099 8.75901L12.0189 18.0001L21.5345 8.76139C21.9666 8.32994 22.2433 8.18262 22.7171 8.18262C23.4531 8.18262 24.0379 8.76649 24.0379 9.50133V10.1085L21.3964 12.6554V12.6487L19.7734 14.2203L12.8514 20.8944ZM21.3964 15.929L24.0379 13.3821V30.5254C24.0379 31.2603 23.4531 31.8441 22.7171 31.8441C21.9811 31.8441 21.3964 31.2603 21.3964 30.5254V15.929ZM2.64153 15.9257V30.5254C2.64153 31.2603 2.05675 31.8441 1.32076 31.8441C0.584775 31.8441 0 31.2603 0 30.5254V13.3788L2.64153 15.9257Z" fill="#141A1F"/>
<path d="M46.3903 8.06163V10.7173C41.7967 11.32 38.2431 15.2509 38.2431 20.0001C38.2431 25.1655 42.447 29.3629 47.6205 29.3629C52.794 29.3629 56.9979 25.1655 56.9979 20.0001C56.9979 15.2158 53.3916 11.262 48.7488 10.7045V8.05176C54.8637 8.61835 59.6395 13.7448 59.6395 20.0001C59.6395 26.6352 54.266 32.0004 47.6205 32.0004C40.975 32.0004 35.6016 26.6352 35.6016 20.0001C35.6016 13.7796 40.3243 8.6754 46.3903 8.06163Z" fill="#141A1F"/>
<path d="M71.2109 13.2944H73.8525V17.2544H76.743C78.5542 17.2544 80.0412 15.7697 80.0412 13.9613C80.0412 12.216 78.6218 10.9396 76.743 10.9396H75.9279H71.2109V9.65856C71.2109 8.92371 71.7957 8.33984 72.5317 8.33984H76.9468C80.1281 8.33984 82.6827 10.8905 82.6827 14.0668C82.6827 15.6062 82.0832 16.9612 81.0311 17.9299C83.7142 18.9848 85.5016 21.4863 85.5016 24.4432C85.5016 28.4334 82.2677 31.6623 78.2714 31.6623H72.5317C71.7957 31.6623 71.2109 31.0784 71.2109 30.3436V13.2944ZM73.8525 29.0927H78.1016C80.6599 29.0927 82.7582 26.9977 82.7582 24.4432C82.7582 21.8888 80.6599 19.7938 78.1016 19.7938H73.8525V29.0927Z" fill="#141A1F"/>
<path d="M165.707 13.2944H168.349V17.2544H171.239C173.05 17.2544 174.537 15.7697 174.537 13.9613C174.537 12.216 173.118 10.9396 171.239 10.9396H170.424H165.707V9.65856C165.707 8.92371 166.292 8.33984 167.028 8.33984H171.443C174.624 8.33984 177.179 10.8905 177.179 14.0668C177.179 15.6062 176.579 16.9612 175.527 17.9299C178.21 18.9848 179.998 21.4863 179.998 24.4432C179.998 28.4334 176.764 31.6623 172.767 31.6623H167.028C166.292 31.6623 165.707 31.0784 165.707 30.3436V13.2944ZM168.349 29.0927H172.598C175.156 29.0927 177.254 26.9977 177.254 24.4432C177.254 21.8888 175.156 19.7938 172.598 19.7938H168.349V29.0927Z" fill="#141A1F"/>
<path d="M99.704 9.48864V30.5127C99.704 31.2476 99.1193 31.8314 98.3833 31.8314C97.6473 31.8314 97.0625 31.2476 97.0625 30.5127V9.48864C97.0625 8.75379 97.6473 8.16992 98.3833 8.16992C99.1193 8.16992 99.704 8.75379 99.704 9.48864Z" fill="#141A1F"/>
<path d="M151.07 31.7759C151.05 31.7772 151.03 31.7778 151.009 31.7778H136.957C136.886 31.7778 136.819 31.7702 136.754 31.7556L138.008 29.1875H149.806L151.07 31.7759Z" fill="#08E8DE"/>
<path d="M123.927 29.2599C124.601 29.3216 125.116 29.8524 125.116 30.5451C125.116 31.2823 124.533 31.8362 123.795 31.8362H113.946C113.209 31.8362 112.625 31.2486 112.625 30.5109V29.2599H123.927ZM112.625 26.9051V9.49519C112.625 8.75748 113.209 8.16992 113.946 8.16992C114.684 8.16992 115.267 8.72379 115.267 9.46102V26.9051H112.625Z" fill="#141A1F"/>
<path d="M134.425 31.1608C134.084 31.7605 133.36 32.015 132.693 31.707C132.035 31.3529 131.772 30.6114 132.084 29.9356L142.136 9.01537C142.48 8.28968 143.165 8 143.887 8C144.609 8 145.293 8.28968 145.637 9.01327L155.693 29.942C156.002 30.6114 155.739 31.3529 155.054 31.7199C154.554 31.9504 153.992 31.8493 153.603 31.4844C153.561 31.4451 153.527 31.3985 153.502 31.3469L143.888 11.5862L134.425 31.1608Z" fill="#08E8DE"/>
</svg>
