<?xml version="1.0" encoding="UTF-8"?>
<svg viewBox="0 0 401.880385 94.2861698" version="1.1" xmlns="http://www.w3.org/2000/svg" xmlns:xlink="http://www.w3.org/1999/xlink">
    <title>mogenius logo</title>
    <g id="Style-Guide" stroke="none" stroke-width="1" fill="none" fill-rule="evenodd">
        <g id="mg_styleguide_atoms" transform="translate(-1277.4053, -776)">
            <g id="mogenius_logo_quer" transform="translate(1277, 776)">
                <g id="Group-5" transform="translate(0, 0)" fill="#00495D" fill-rule="nonzero">
                    <path d="M134.879341,79.4825228 C135.115547,79.4825228 135.316321,79.4001983 135.481665,79.2355494 C135.647009,79.0709005 135.729681,78.8709696 135.729681,78.6357568 L135.729681,55.7025122 C135.918645,53.9148951 136.59183,52.5036185 137.749237,51.4686824 C138.906643,50.4337462 140.382927,49.9162781 142.178088,49.9162781 C144.114972,49.9162781 145.673928,50.5513526 146.854955,51.8215015 C148.035982,53.0916505 148.626496,54.8087036 148.626496,56.9726611 L148.626496,78.6357568 C148.626496,78.8709696 148.709168,79.0709005 148.874511,79.2355494 C149.039855,79.4001983 149.24063,79.4825228 149.476835,79.4825228 L155.925243,79.4825228 C156.161448,79.4825228 156.362223,79.4001983 156.527566,79.2355494 C156.69291,79.0709005 156.775582,78.8709696 156.775582,78.6357568 L156.775582,56.9020973 C156.775582,54.7851824 157.389716,53.0916505 158.617984,51.8215015 C159.846252,50.5513526 161.428828,49.9162781 163.365713,49.9162781 C165.302597,49.9162781 166.849742,50.5513526 168.007149,51.8215015 C169.164555,53.0916505 169.743259,54.8087036 169.743259,56.9726611 L169.743259,78.6357568 C169.743259,78.8709696 169.825931,79.0709005 169.991274,79.2355494 C170.156618,79.4001983 170.357393,79.4825228 170.593598,79.4825228 L177.042006,79.4825228 C177.278211,79.4825228 177.478986,79.4001983 177.644329,79.2355494 C177.809673,79.0709005 177.892345,78.8709696 177.892345,78.6357568 L177.892345,55.2791292 C177.892345,51.3745973 176.864851,48.3285919 174.809864,46.1411132 C172.754877,43.9536345 169.908602,42.8598951 166.271039,42.8598951 C164.003467,42.8598951 161.94848,43.3067994 160.106078,44.2006079 C158.263676,45.0944164 156.822823,46.4821717 155.783519,48.3638739 C155.594555,48.5520441 155.429211,48.5520441 155.287488,48.3638739 C154.342666,46.5762568 152.996296,45.2120228 151.248376,44.2711717 C149.500456,43.3303207 147.469089,42.8598951 145.154276,42.8598951 C143.264633,42.8598951 141.552144,43.1774324 140.016809,43.8125068 C138.481474,44.4475813 137.194154,45.4237143 136.15485,46.7409058 C136.060368,46.8820334 135.965886,46.929076 135.871404,46.8820334 C135.776922,46.8349909 135.729681,46.7409058 135.729681,46.5997781 L135.729681,44.2711717 C135.729681,44.035959 135.647009,43.8360281 135.481665,43.6713792 C135.316321,43.5067302 135.115547,43.4244058 134.879341,43.4244058 L128.360072,43.4244058 C128.123867,43.4244058 127.923092,43.5067302 127.757748,43.6713792 C127.592405,43.8360281 127.509733,44.035959 127.509733,44.2711717 L127.509733,78.6357568 C127.509733,78.8709696 127.592405,79.0709005 127.757748,79.2355494 C127.923092,79.4001983 128.123867,79.4825228 128.360072,79.4825228 L134.879341,79.4825228 Z M197.645815,80.0470334 C201.283378,80.0470334 204.42491,79.0944217 207.070411,77.1891983 C209.715911,75.2839749 211.581934,72.6613526 212.668479,69.3213313 C213.471577,66.9221611 213.873126,64.2407356 213.873126,61.2770547 C213.873126,58.1722462 213.447956,55.4908207 212.597617,53.2327781 C211.511072,49.9868419 209.65686,47.4465441 207.03498,45.6118845 C204.4131,43.7772249 201.306999,42.8598951 197.716677,42.8598951 C193.93739,42.8598951 190.701376,43.7772249 188.008635,45.6118845 C185.315893,47.4465441 183.42625,50.0103632 182.339705,53.3033419 C181.583848,55.6554696 181.205919,58.3368951 181.205919,61.3476185 C181.205919,64.1701717 181.607468,66.8515973 182.410567,69.3918951 C183.497111,72.7319164 185.374944,75.3427781 188.044065,77.2244802 C190.713186,79.1061824 193.91377,80.0470334 197.645815,80.0470334 Z M197.645815,72.9906505 C195.803413,72.9906505 194.232647,72.4967036 192.933517,71.50881 C191.634387,70.5209164 190.724997,69.1331611 190.205345,67.3455441 C189.732934,65.6990547 189.496729,63.7232675 189.496729,61.4181824 C189.496729,59.1130973 189.732934,57.13731 190.205345,55.4908207 C190.772238,53.7032036 191.693439,52.327209 192.968948,51.3628366 C194.244457,50.3984643 195.756172,49.9162781 197.504092,49.9162781 C199.346494,49.9162781 200.90545,50.3984643 202.180959,51.3628366 C203.456468,52.327209 204.354048,53.7032036 204.8737,55.4908207 C205.346111,56.9020973 205.582316,58.8778845 205.582316,61.4181824 C205.582316,63.8173526 205.346111,65.7931398 204.8737,67.3455441 C204.306807,69.1331611 203.397417,70.5209164 202.145528,71.50881 C200.893639,72.4967036 199.393735,72.9906505 197.645815,72.9906505 Z M230.012653,93.4541611 C235.492619,93.4541611 239.92147,92.1957728 243.299207,89.6789962 C246.676945,87.1622196 248.365813,82.9636717 248.365813,77.0833526 L248.365813,44.2711717 C248.365813,44.035959 248.283141,43.8360281 248.117797,43.6713792 C247.952454,43.5067302 247.751679,43.4244058 247.515474,43.4244058 L240.996205,43.4244058 C240.759999,43.4244058 240.559225,43.5067302 240.393881,43.6713792 C240.228537,43.8360281 240.145865,44.035959 240.145865,44.2711717 L240.145865,45.9647036 C240.145865,46.1058313 240.098624,46.1999164 240.004142,46.246959 C239.90966,46.2940015 239.815178,46.246959 239.720695,46.1058313 C237.642088,43.9418739 234.736761,42.8598951 231.004716,42.8598951 C227.886805,42.8598951 225.170443,43.7184217 222.85563,45.4354749 C220.540817,47.1525281 218.911,49.4458526 217.966178,52.3154483 C217.210321,54.3853207 216.832392,57.3725228 216.832392,61.2770547 C216.832392,64.7582036 217.139459,67.6042781 217.753593,69.8152781 C218.745656,73.0141717 220.517196,75.3898207 223.068215,76.9422249 C225.619233,78.4946292 228.430077,79.2708313 231.500747,79.2708313 C235.043828,79.2708313 237.783811,78.2358951 239.720695,76.1660228 C239.815178,76.0719377 239.90966,76.0366558 240.004142,76.0601771 C240.098624,76.0836983 240.145865,76.1660228 240.145865,76.3071505 L240.145865,76.8716611 C240.145865,80.1646398 239.307336,82.5050068 237.630278,83.8927622 C235.953219,85.2805175 233.34315,85.9743951 229.800069,85.9743951 C228.713524,85.9743951 227.485256,85.9038313 226.115264,85.7627036 C225.453889,85.7627036 225.123202,86.0214377 225.123202,86.5389058 L224.910617,92.3251398 C224.910617,92.8896505 225.170443,93.1954271 225.690095,93.2424696 C227.107327,93.3835973 228.54818,93.4541611 230.012653,93.4541611 Z M232.91798,72.5672675 C231.17006,72.5672675 229.670156,72.0850813 228.418267,71.120709 C227.166378,70.1563366 226.304229,68.9214696 225.831818,67.4161079 C225.359407,66.2400441 225.123202,64.193693 225.123202,61.2770547 C225.123202,58.4545015 225.406648,56.3846292 225.973541,55.0674377 C226.493193,53.5150334 227.343532,52.2684058 228.524559,51.3275547 C229.705586,50.3867036 231.146439,49.9162781 232.847118,49.9162781 C234.642279,49.9162781 236.118563,50.3867036 237.27597,51.3275547 C238.433376,52.2684058 239.201044,53.5150334 239.578972,55.0674377 C239.815178,55.8201185 239.968711,56.58456 240.039573,57.3607622 C240.110434,58.1369643 240.145865,59.4188739 240.145865,61.2064909 C240.145865,63.0411505 240.110434,64.3701026 240.039573,65.1933473 C239.968711,66.0165919 239.838798,66.7810334 239.649834,67.4866717 C239.271905,68.9920334 238.516048,70.2151398 237.382262,71.1559909 C236.248476,72.0968419 234.760382,72.5672675 232.91798,72.5672675 Z M269.498441,80.1175973 C272.474629,80.1175973 275.179181,79.5530866 277.612096,78.4240653 C280.045012,77.2950441 281.993706,75.6955973 283.45818,73.6257249 C283.741626,73.2023419 283.670765,72.8260015 283.245595,72.4967036 L278.852175,68.8979483 C278.710451,68.7568207 278.545108,68.6862568 278.356143,68.6862568 C278.072697,68.6862568 277.836491,68.8273845 277.647527,69.1096398 C275.757884,71.7440228 273.206865,73.0612143 269.994472,73.0612143 C265.601052,73.0141717 262.837448,71.2971185 261.703662,67.9100547 C261.420216,67.3455441 261.207631,66.2870866 261.065908,64.7346824 C261.065908,64.4994696 261.184011,64.3818632 261.420216,64.3818632 L283.599903,64.3818632 C284.166796,64.3818632 284.450243,64.0996079 284.450243,63.5350973 L284.521104,61.3476185 C284.521104,59.8892994 284.426622,58.5721079 284.237658,57.3960441 C283.056631,47.7052781 277.812871,42.8598951 268.506378,42.8598951 C264.821574,42.8598951 261.668232,43.8125068 259.046352,45.7177302 C256.424472,47.6229536 254.641121,50.2220547 253.696299,53.5150334 C253.129406,55.2085653 252.84596,57.4195653 252.84596,60.1480334 C252.84596,64.6641185 253.389232,68.19231 254.475777,70.7326079 C255.656804,73.6962888 257.534637,76.0013739 260.109276,77.6478632 C262.683915,79.2943526 265.813636,80.1175973 269.498441,80.1175973 Z M261.420216,58.3133739 C261.136769,58.3133739 261.042287,58.1957675 261.136769,57.9605547 C261.231252,56.6904058 261.420216,55.6554696 261.703662,54.8557462 C262.176073,53.3033419 262.990982,52.0919962 264.148388,51.221709 C265.305795,50.3514217 266.758458,49.9162781 268.506378,49.9162781 C270.396021,49.9162781 271.966787,50.3867036 273.218676,51.3275547 C274.470564,52.2684058 275.309094,53.5855973 275.734263,55.2791292 C275.923228,55.8906824 276.064951,56.7844909 276.159433,57.9605547 C276.159433,58.1957675 276.04133,58.3133739 275.805125,58.3133739 L261.420216,58.3133739 Z M296.229136,79.4825228 C296.465342,79.4825228 296.666116,79.4001983 296.83146,79.2355494 C296.996804,79.0709005 297.079476,78.8709696 297.079476,78.6357568 L297.079476,57.1137888 C297.079476,54.9498313 297.70542,53.2092568 298.957309,51.8920653 C300.209197,50.5748739 301.850825,49.9162781 303.882191,49.9162781 C305.913558,49.9162781 307.543375,50.5866345 308.771643,51.9273473 C309.999911,53.26806 310.614045,55.0203951 310.614045,57.1843526 L310.614045,78.6357568 C310.614045,78.8709696 310.696717,79.0709005 310.862061,79.2355494 C311.027405,79.4001983 311.228179,79.4825228 311.464385,79.4825228 L317.983654,79.4825228 C318.219859,79.4825228 318.420634,79.4001983 318.585977,79.2355494 C318.751321,79.0709005 318.833993,78.8709696 318.833993,78.6357568 L318.833993,55.4908207 C318.833993,51.5862888 317.688397,48.5050015 315.397205,46.246959 C313.106012,43.9889164 310.047152,42.8598951 306.220625,42.8598951 C302.299615,42.8598951 299.370668,44.1300441 297.433784,46.6703419 C297.386543,46.8114696 297.315681,46.8585122 297.221199,46.8114696 C297.126717,46.7644271 297.079476,46.6703419 297.079476,46.5292143 L297.079476,44.2711717 C297.079476,44.035959 296.996804,43.8360281 296.83146,43.6713792 C296.666116,43.5067302 296.465342,43.4244058 296.229136,43.4244058 L289.709867,43.4244058 C289.473662,43.4244058 289.272887,43.5067302 289.107543,43.6713792 C288.9422,43.8360281 288.859528,44.035959 288.859528,44.2711717 L288.859528,78.6357568 C288.859528,78.8709696 288.9422,79.0709005 289.107543,79.2355494 C289.272887,79.4001983 289.473662,79.4825228 289.709867,79.4825228 L296.229136,79.4825228 Z M332.030119,79.4825228 C332.266325,79.4825228 332.467099,79.4001983 332.632443,79.2355494 C332.797787,79.0709005 332.880459,78.8709696 332.880459,78.6357568 L332.880459,44.2006079 C332.880459,43.9653951 332.797787,43.7654643 332.632443,43.6008153 C332.467099,43.4361664 332.266325,43.3538419 332.030119,43.3538419 L325.51085,43.3538419 C325.274645,43.3538419 325.07387,43.4361664 324.908526,43.6008153 C324.743182,43.7654643 324.660511,43.9653951 324.660511,44.2006079 L324.660511,78.6357568 C324.660511,78.8709696 324.743182,79.0709005 324.908526,79.2355494 C325.07387,79.4001983 325.274645,79.4825228 325.51085,79.4825228 L332.030119,79.4825228 Z M351.391206,79.9764696 C355.264975,79.9764696 358.170301,78.7298419 360.107185,76.2365866 C360.201668,76.095459 360.29615,76.0484164 360.390632,76.095459 C360.485114,76.1425015 360.532355,76.2365866 360.532355,76.3777143 L360.532355,78.6357568 C360.532355,78.8709696 360.615027,79.0709005 360.780371,79.2355494 C360.945715,79.4001983 361.146489,79.4825228 361.382695,79.4825228 L367.831102,79.4825228 C368.067308,79.4825228 368.268082,79.4001983 368.433426,79.2355494 C368.59877,79.0709005 368.681442,78.8709696 368.681442,78.6357568 L368.681442,44.2711717 C368.681442,44.035959 368.59877,43.8360281 368.433426,43.6713792 C368.268082,43.5067302 368.067308,43.4244058 367.831102,43.4244058 L361.382695,43.4244058 C361.146489,43.4244058 360.945715,43.5067302 360.780371,43.6713792 C360.615027,43.8360281 360.532355,44.035959 360.532355,44.2711717 L360.532355,65.722576 C360.532355,67.933576 359.894601,69.6976717 358.619091,71.0148632 C357.343582,72.3320547 355.642903,72.9906505 353.517055,72.9906505 C351.438447,72.9906505 349.82044,72.3320547 348.663034,71.0148632 C347.505627,69.6976717 346.926924,67.933576 346.926924,65.722576 L346.926924,44.2711717 C346.926924,44.035959 346.844252,43.8360281 346.678908,43.6713792 C346.513565,43.5067302 346.31279,43.4244058 346.076585,43.4244058 L339.557315,43.4244058 C339.32111,43.4244058 339.120335,43.5067302 338.954992,43.6713792 C338.789648,43.8360281 338.706976,44.035959 338.706976,44.2711717 L338.706976,68.0511824 C338.706976,71.8616292 339.923434,74.8017888 342.356349,76.8716611 C344.789265,78.9415334 347.800884,79.9764696 351.391206,79.9764696 Z M387.759082,79.9059058 C392.152503,79.9059058 395.671963,78.9532941 398.317464,77.0480707 C400.962964,75.1428473 402.285714,72.5202249 402.285714,69.1802036 C402.285714,66.9692036 401.695201,65.169826 400.514174,63.7820707 C399.333147,62.3943153 397.892294,61.3123366 396.191615,60.5361345 C394.490936,59.7599324 392.388708,58.9954909 389.884931,58.24281 L388.325975,57.8194271 C385.727716,57.1137888 383.873503,56.4669536 382.763338,55.8789217 C381.653172,55.2908898 381.09809,54.4323632 381.09809,53.3033419 C381.09809,52.0802356 381.676793,51.1276239 382.834199,50.4455068 C383.991606,49.7633898 385.49151,49.4223313 387.333912,49.4223313 C389.41252,49.4223313 391.054147,49.8339536 392.258795,50.6571983 C393.463443,51.480443 394.065766,52.5036185 394.065766,53.7267249 C394.065766,53.9619377 394.148438,54.1618685 394.313782,54.3265175 C394.479126,54.4911664 394.6799,54.5734909 394.916106,54.5734909 L400.939343,54.5734909 C401.175549,54.5734909 401.376323,54.4911664 401.541667,54.3265175 C401.707011,54.1618685 401.789683,53.9619377 401.789683,53.7267249 C401.789683,51.6568526 401.199169,49.8104324 400.018142,48.1874643 C398.837115,46.5644962 397.160057,45.2943473 394.986967,44.3770175 C392.813878,43.4596877 390.28648,43.0010228 387.404774,43.0010228 C383.153077,43.0010228 379.728098,43.9771558 377.129839,45.9294217 C374.53158,47.8816877 373.23245,50.50431 373.23245,53.7972888 C373.23245,55.9612462 373.799343,57.7371026 374.933129,59.1248579 C376.066915,60.5126132 377.460527,61.6063526 379.113964,62.406076 C380.767402,63.2057994 382.798769,63.9584802 385.208064,64.6641185 L387.900805,65.5108845 C390.073895,66.1224377 391.644661,66.698709 392.613103,67.2396983 C393.581545,67.7806877 394.065766,68.5921717 394.065766,69.6741505 C394.065766,70.8502143 393.475253,71.8263473 392.294226,72.6025494 C391.113199,73.3787515 389.577864,73.7668526 387.68822,73.7668526 C385.704095,73.7668526 384.062468,73.331709 382.763338,72.4614217 C381.464208,71.5911345 380.814643,70.567959 380.814643,69.3918951 L380.814643,69.2507675 C380.814643,69.0155547 380.731971,68.8156239 380.566628,68.6509749 C380.401284,68.486326 380.200509,68.4040015 379.964304,68.4040015 L373.728481,68.4040015 C373.492276,68.4040015 373.291501,68.486326 373.126157,68.6509749 C372.960814,68.8156239 372.878142,69.0155547 372.878142,69.2507675 L372.878142,69.8858419 C372.878142,71.7675441 373.492276,73.4728366 374.720544,75.0017196 C375.948812,76.5306026 377.684922,77.7301877 379.928873,78.6004749 C382.172824,79.4707622 384.782894,79.9059058 387.759082,79.9059058 Z" id="mogenius"></path>
                </g>
                <g id="Logo-/-mogenius_signet" transform="translate(0.4053, 0)" fill="#009BC5">
                    <path d="M52.3653957,-8.8817842e-16 C49.9818641,2.43527294 46.7232314,7.7150141 48.6493735,12.7717398 C50.5755156,17.8284654 54.8140126,19.3257855 55.4803917,19.6350968 C55.7585852,18.9058677 55.9208349,14.9521521 55.3688918,12.7450777 C54.7615373,10.3164275 54.0573404,8.52834608 53.5635295,7.20525429 C58.5215746,8.56370598 61.7095527,11.8148419 64.51697,15.5802933 C67.3157606,19.3345466 68.5735649,23.7173574 69.9583712,28.167459 C70.1215535,25.0561233 70.6008522,21.9198919 70.3592571,18.8403228 C70.1153992,15.7306991 69.1564106,12.6776555 68.9175151,9.39289669 C70.7569188,11.126498 72.6019636,12.8550216 74.43486,14.5955743 C78.9297219,18.86351 83.3818522,23.1702741 86.7427232,28.4465467 C90.471779,34.300908 91.8700609,40.4411871 89.138765,47.1339531 C88.7647528,48.0504464 87.266976,49.4709222 86.1032156,50.5487122 C90.7404015,50.2803351 96.6331628,48.5250575 100.164279,45.8998172 C101.706993,51.0943096 100.812133,55.8587197 98.3526248,60.4218318 C96.249045,64.3254148 94.7675543,66.6057103 91.0636264,69.0269322 C90.6693001,69.2844217 89.1890217,69.8465309 87.6585893,70.4462663 L87.220853,70.6184125 C85.1800656,71.4243867 83.2254889,72.2520468 83.8123481,72.4685197 C88.2292539,74.0977698 95.3169097,70.620372 97.1545941,70.0004436 C89.4825672,76.9737078 89.1387542,84.0362614 71.9537961,77.2502611 L71.909,77.233 L71.9093557,62.3900586 C71.9093557,51.8986505 63.4958402,43.3723242 53.047905,43.1901754 L52.7064985,43.1872015 L49.5342878,43.1872015 C38.9288426,43.1872015 30.3314306,51.7846135 30.3314306,62.3900586 L30.3314306,77.6013656 C30.3314306,77.7818125 30.3339196,77.961678 30.3388649,78.1409298 C28.6001005,78.6429033 27.2924609,79.077478 26.5442506,79.3478005 C21.1449935,81.2985098 16.6033185,76.3204235 12.4321086,75.5044274 C16.276022,75.510744 20.0959763,74.8511279 22.1096941,73.2025876 C21.0666259,72.916535 14.6170959,72.2358813 8.95851702,68.4764905 C4.25366155,65.350725 0.941321631,59.7419396 3.16413562e-15,56.4618462 C2.67578517,59.631662 5.16353975,60.6439032 5.3585891,60.5044369 C5.74586761,59.6605094 5.44618774,58.8342267 4.70693456,56.7083385 C2.77363608,51.1487055 3.84391873,48.011605 7.31027311,43.6785333 C9.65045425,40.75374 11.8524876,37.8497294 12.3245283,33.9881265 C12.6128549,31.6309798 12.5631907,31.3627919 10.5565471,28.1623899 C15.2739772,28.5234194 18.4376067,31.7410413 22.2054045,34.6314526 C22.8085149,33.6729341 25.2603081,31.3259756 24.2086645,25.1717683 C23.1570209,19.017561 24.6425857,14.9615349 27.9866758,11.3111281 C34.6816218,4.00292876 46.5429686,2.35753745 52.3653957,-8.8817842e-16 Z M66.4436761,89.1278042 C67.0171714,89.7648236 67.5273784,90.3318555 68.038019,90.8993332 C67.9998439,91.1062023 66.0495138,90.1641324 63.1688104,90.6013932 C63.7338859,91.0154994 64.5283176,93.2433949 64.6751661,94.2861698 C63.3309341,92.8253819 58.1700594,88.7629162 51.2700995,88.7629162 C44.3701397,88.7629162 40.5488744,91.8867637 38.5823192,94.0433168 C38.761491,92.9920317 37.9679568,92.011846 38.0963703,91.2601637 L34.4751951,92.4600543 C36.1092444,90.8291935 35.9620413,90.4119133 36.4730733,89.4886797 C35.7337126,88.6990303 35.3312678,88.3418341 33.6422838,89.1317776 C36.1043488,85.4507396 40.5785242,80.0004556 51.38188,80.0004556 C62.1852358,80.0004556 68.6705881,86.4265291 70.5272044,88.3375706 C69.8222531,88.519554 67.5273784,88.3375706 66.4436761,89.1278042 Z" id="Combined-Shape"></path>
                </g>
            </g>
        </g>
    </g>
</svg>