<svg width="98" height="40" viewBox="0 0 98 40" fill="none" xmlns="http://www.w3.org/2000/svg">
<path fill-rule="evenodd" clip-rule="evenodd" d="M3.34096 5C5.18612 5 6.68192 6.47416 6.68192 8.29262V31.7068C6.68192 33.5253 5.18612 34.9994 3.34096 34.9994C1.4958 34.9994 0 33.5253 0 31.7068V8.29262C0 6.47416 1.4958 5 3.34096 5Z" fill="#EA5C2B"/>
<path opacity="0.7" fill-rule="evenodd" clip-rule="evenodd" d="M27.841 5C29.6861 5 31.1819 6.47416 31.1819 8.29262V31.7068C31.1819 33.5253 29.6861 34.9994 27.841 34.9994C25.9958 34.9994 24.5 33.5253 24.5 31.7068V8.29262C24.5 6.47416 25.9958 5 27.841 5Z" fill="#EA5C2B"/>
<path fill-rule="evenodd" clip-rule="evenodd" d="M38.2316 5C40.0767 5 41.5725 6.47416 41.5725 8.29262V20.7314C41.5725 24.9745 45.0627 28.4142 49.3681 28.4142V34.9994C41.3724 34.9994 34.8906 28.6114 34.8906 20.7314V8.29262C34.8906 6.47416 36.3864 5 38.2316 5Z" fill="#EB4B46"/>
<path opacity="0.7" fill-rule="evenodd" clip-rule="evenodd" d="M60.8817 5C59.0365 5 57.5407 6.47416 57.5407 8.29262V20.3656C57.5407 24.8107 53.8843 28.4142 49.3739 28.4142V34.9994C57.5747 34.9994 64.2227 28.4476 64.2227 20.3656V8.29262C64.2227 6.47416 62.7269 5 60.8817 5Z" fill="#EB4B46"/>
<path opacity="0.6" fill-rule="evenodd" clip-rule="evenodd" d="M68.5371 5.96439C69.8419 4.67854 71.9572 4.67854 73.262 5.96439L97.0199 29.3786C98.3246 30.6644 98.3246 32.7492 97.0199 34.035C95.7152 35.3209 93.5998 35.3209 92.2951 34.035L68.5371 10.6209C67.2324 9.33501 67.2324 7.25023 68.5371 5.96439Z" fill="#EA4174"/>
<path fill-rule="evenodd" clip-rule="evenodd" d="M97.0175 5.96439C95.7128 4.67854 93.5974 4.67854 92.2927 5.96439L68.5348 29.3786C67.2301 30.6644 67.2301 32.7492 68.5348 34.035C69.8395 35.3209 71.9549 35.3209 73.2596 34.035L97.0175 10.6209C98.3223 9.33501 98.3223 7.25023 97.0175 5.96439Z" fill="#EA4174"/>
<path opacity="0.7" fill-rule="evenodd" clip-rule="evenodd" d="M0.978544 5.96439C2.28327 4.67854 4.39865 4.67854 5.70337 5.96439L17.9536 18.0373C19.2583 19.3232 19.2583 21.4079 17.9536 22.6938C16.6488 23.9796 14.5335 23.9796 13.2287 22.6938L0.978544 10.6209C-0.326181 9.33501 -0.326181 7.25023 0.978544 5.96439Z" fill="#EA5C2B"/>
<path fill-rule="evenodd" clip-rule="evenodd" d="M30.2036 5.96439C31.5083 7.25023 31.5083 9.33501 30.2036 10.6209L17.9534 22.6938C16.6486 23.9796 14.5333 23.9796 13.2285 22.6938C11.9238 21.4079 11.9238 19.3232 13.2285 18.0373L25.4787 5.96439C26.7835 4.67854 28.8988 4.67854 30.2036 5.96439Z" fill="#EA5C2B"/>
<path d="M31.1819 31.7077C31.1819 33.5261 29.6861 35.0003 27.841 35.0003C25.9958 35.0003 24.5 33.5261 24.5 31.7077C24.5 29.8892 25.9958 28.415 27.841 28.415C29.6861 28.415 31.1819 29.8892 31.1819 31.7077Z" fill="#EA5C2B"/>
<path d="M64.2171 8.29262C64.2171 10.1111 62.7213 11.5852 60.8761 11.5852C59.031 11.5852 57.5352 10.1111 57.5352 8.29262C57.5352 6.47416 59.031 5 60.8761 5C62.7213 5 64.2171 6.47416 64.2171 8.29262Z" fill="#EB4B46"/>
<path d="M52.7171 31.7077C52.7171 33.5261 51.2213 35.0003 49.3761 35.0003C47.531 35.0003 46.0352 33.5261 46.0352 31.7077C46.0352 29.8892 47.531 28.415 49.3761 28.415C51.2213 28.415 52.7171 29.8892 52.7171 31.7077Z" fill="#EB4B46"/>
<path d="M97.9983 31.7077C97.9983 33.5261 96.5025 35.0003 94.6574 35.0003C92.8122 35.0003 91.3164 33.5261 91.3164 31.7077C91.3164 29.8892 92.8122 28.415 94.6574 28.415C96.5025 28.415 97.9983 29.8892 97.9983 31.7077Z" fill="#EA4174"/>
</svg>
