<svg width="165" height="40" viewBox="0 0 165 40" fill="none" xmlns="http://www.w3.org/2000/svg">
<path d="M16.465 14.0518C17.1112 14.0518 17.7484 14.1775 18.3767 14.429C19.005 14.6805 19.5749 15.1206 20.0865 15.7492C20.4993 16.2611 20.7776 16.8898 20.9212 17.6352C21.0109 18.1292 21.0558 18.8522 21.0558 19.8041L21.0289 29.0591H17.0977V19.7098C17.0977 19.153 17.008 18.695 16.8285 18.3358C16.4874 17.6532 15.8592 17.3119 14.9437 17.3119C13.8846 17.3119 13.1531 17.752 12.7493 18.6321C12.5428 19.0991 12.4396 19.6604 12.4396 20.3161V29.0591H8.5758V20.3161C8.5758 19.4449 8.48605 18.8117 8.30654 18.4166C7.98344 17.7071 7.35069 17.3523 6.40829 17.3523C5.31332 17.3523 4.57735 17.7071 4.20039 18.4166C3.99396 18.8207 3.89075 19.4225 3.89075 20.2218V29.0591H0V14.4021H3.72919V16.544C4.20488 15.7807 4.65364 15.2373 5.07547 14.914C5.82041 14.3392 6.78525 14.0518 7.96997 14.0518C9.09187 14.0518 9.99837 14.2988 10.6895 14.7927C11.2459 15.2508 11.6678 15.839 11.955 16.5575C12.4576 15.6953 13.0813 15.0622 13.8263 14.658C14.6161 14.2539 15.4957 14.0518 16.465 14.0518Z" fill="#2A65E6"/>
<path d="M25.1889 31.8746L25.6735 31.9016C26.0505 31.9195 26.4095 31.906 26.7506 31.8611C27.0916 31.8162 27.3788 31.713 27.6122 31.5513C27.8366 31.3986 28.043 31.0798 28.2315 30.5948C28.4289 30.1098 28.5097 29.8135 28.4738 29.7057L23.0887 14.3751H27.3564L30.5605 25.2062L33.5897 14.3751H37.6689L32.6338 28.8166C31.6645 31.6007 30.8971 33.325 30.3317 33.9896C29.7662 34.6632 28.6354 35 26.9391 35C26.598 35 26.3242 34.9955 26.1178 34.9865C25.9114 34.9865 25.6017 34.9731 25.1889 34.9461V31.8746Z" fill="#2A65E6"/>
<path d="M49.2873 9.08083H53.0434V12.5834H49.2873V9.08083ZM49.2873 14.4425H53.1107V29.0591H49.2873V14.4425ZM45.4504 9C45.6837 9 45.9216 9.00898 46.1639 9.02694C46.4062 9.04491 46.6576 9.06287 46.9178 9.08083V12.2062C46.7383 12.1972 46.5633 12.1927 46.3928 12.1927C46.2223 12.1838 46.0158 12.1793 45.7735 12.1793C45.1722 12.1793 44.8042 12.3454 44.6695 12.6777C44.5349 13.01 44.4766 13.5309 44.4945 14.2404V14.5098H47.0121V17.2176H44.4945V29.0591H40.6711V17.2176H38.5305V14.5098H40.6307V13.5668C40.6307 12.0041 40.9763 10.8411 41.6673 10.0777C42.2866 9.35924 43.5476 9 45.4504 9Z" fill="#2A65E6"/>
<path d="M55.2917 17.2446V14.5098H57.338V10.4145H61.1345V14.5098H63.5175V17.2446H61.1345V25.0041C61.1345 25.6059 61.2108 25.9831 61.3634 26.1358C61.516 26.2794 61.9827 26.3513 62.7635 26.3513C62.8802 26.3513 63.0014 26.3513 63.127 26.3513C63.2617 26.3423 63.3918 26.3333 63.5175 26.3244V29.1938L61.7 29.2611C59.887 29.324 58.6484 29.0097 57.9843 28.3181C57.5534 27.8781 57.338 27.2 57.338 26.2839V17.2446H55.2917Z" fill="#2A65E6"/>
<path d="M74.1127 14.0249C75.6295 14.0249 76.8681 14.4245 77.8284 15.2238C78.7977 16.0142 79.2824 17.3299 79.2824 19.171V29.0591H75.3513V20.1275C75.3513 19.3551 75.248 18.7623 75.0416 18.3492C74.6646 17.5948 73.9466 17.2176 72.8876 17.2176C71.5862 17.2176 70.6931 17.7699 70.2085 18.8746C69.9572 19.4584 69.8315 20.2038 69.8315 21.1109V29.0591H66.0081V14.4021H69.7103V16.544C70.204 15.7896 70.6707 15.2463 71.1105 14.914C71.9003 14.3212 72.901 14.0249 74.1127 14.0249Z" fill="#2A65E6"/>
<path d="M88.6256 17.1503C87.737 17.1503 87.0459 17.4287 86.5523 17.9855C86.0676 18.5423 85.7625 19.2967 85.6368 20.2487H91.6008C91.538 19.2339 91.2284 18.466 90.6719 17.9451C90.1244 17.4152 89.4423 17.1503 88.6256 17.1503ZM88.6256 13.9845C89.8462 13.9845 90.9457 14.2135 91.924 14.6715C92.9023 15.1295 93.71 15.8525 94.3473 16.8404C94.9217 17.7116 95.2941 18.7219 95.4647 19.8715C95.5634 20.5451 95.6038 21.515 95.5858 22.7813H85.5426C85.5964 24.2542 86.0587 25.287 86.9293 25.8798C87.4588 26.248 88.096 26.4321 88.841 26.4321C89.6308 26.4321 90.2725 26.2076 90.7662 25.7585C91.0354 25.5161 91.2733 25.1793 91.4797 24.7482H95.3974C95.2986 25.6193 94.8454 26.504 94.0376 27.4021C92.7811 28.8301 91.0219 29.544 88.7602 29.544C86.8934 29.544 85.2464 28.9423 83.8194 27.7389C82.3923 26.5354 81.6788 24.5775 81.6788 21.8653C81.6788 19.3237 82.3205 17.3748 83.604 16.0187C84.8964 14.6625 86.5703 13.9845 88.6256 13.9845Z" fill="#2A65E6"/>
<path d="M101.173 24.371C101.254 25.0535 101.429 25.5385 101.698 25.8259C102.174 26.3378 103.053 26.5938 104.337 26.5938C105.091 26.5938 105.687 26.4815 106.127 26.257C106.576 26.0325 106.8 25.6957 106.8 25.2466C106.8 24.8155 106.621 24.4877 106.262 24.2632C105.903 24.0387 104.57 23.6525 102.263 23.1047C100.603 22.6915 99.4317 22.1751 98.7496 21.5554C98.0675 20.9447 97.7264 20.0646 97.7264 18.915C97.7264 17.5589 98.256 16.3959 99.315 15.4259C100.383 14.447 101.882 13.9575 103.812 13.9575C105.643 13.9575 107.132 14.3257 108.281 15.0622C109.439 15.7896 110.103 17.0515 110.274 18.8477H106.437C106.383 18.3537 106.244 17.963 106.02 17.6756C105.598 17.1547 104.88 16.8943 103.865 16.8943C103.031 16.8943 102.434 17.0245 102.075 17.285C101.725 17.5454 101.55 17.8508 101.55 18.201C101.55 18.6411 101.738 18.9599 102.115 19.1575C102.492 19.3641 103.825 19.7188 106.114 20.2218C107.64 20.581 108.784 21.1244 109.547 21.8518C110.301 22.5883 110.678 23.5088 110.678 24.6135C110.678 26.0684 110.135 27.2584 109.049 28.1834C107.972 29.0995 106.302 29.5575 104.04 29.5575C101.734 29.5575 100.029 29.0725 98.9246 28.1026C97.8296 27.1237 97.2821 25.8798 97.2821 24.371H101.173Z" fill="#2A65E6"/>
<path d="M116.52 24.371C116.601 25.0535 116.776 25.5385 117.046 25.8259C117.521 26.3378 118.401 26.5938 119.684 26.5938C120.438 26.5938 121.035 26.4815 121.475 26.257C121.924 26.0325 122.148 25.6957 122.148 25.2466C122.148 24.8155 121.968 24.4877 121.609 24.2632C121.25 24.0387 119.918 23.6525 117.611 23.1047C115.951 22.6915 114.779 22.1751 114.097 21.5554C113.415 20.9447 113.074 20.0646 113.074 18.915C113.074 17.5589 113.604 16.3959 114.663 15.4259C115.731 14.447 117.23 13.9575 119.159 13.9575C120.99 13.9575 122.48 14.3257 123.629 15.0622C124.787 15.7896 125.451 17.0515 125.621 18.8477H121.784C121.731 18.3537 121.591 17.963 121.367 17.6756C120.945 17.1547 120.227 16.8943 119.213 16.8943C118.378 16.8943 117.781 17.0245 117.422 17.285C117.072 17.5454 116.897 17.8508 116.897 18.201C116.897 18.6411 117.086 18.9599 117.463 19.1575C117.84 19.3641 119.173 19.7188 121.461 20.2218C122.987 20.581 124.131 21.1244 124.894 21.8518C125.648 22.5883 126.025 23.5088 126.025 24.6135C126.025 26.0684 125.482 27.2584 124.396 28.1834C123.319 29.0995 121.65 29.5575 119.388 29.5575C117.081 29.5575 115.376 29.0725 114.272 28.1026C113.177 27.1237 112.63 25.8798 112.63 24.371H116.52Z" fill="#2A65E6"/>
<path d="M138.99 21.7171C138.99 20.5855 138.73 19.5841 138.209 18.713C137.697 17.8418 136.863 17.4062 135.705 17.4062C134.314 17.4062 133.358 18.0663 132.837 19.3865C132.568 20.087 132.434 20.9762 132.434 22.0539C132.434 23.7603 132.887 24.9592 133.793 25.6508C134.332 26.0549 134.969 26.257 135.705 26.257C136.773 26.257 137.585 25.8439 138.142 25.0176C138.707 24.1914 138.99 23.0912 138.99 21.7171ZM136.809 14.0518C138.523 14.0518 139.973 14.685 141.157 15.9513C142.351 17.2176 142.948 19.0767 142.948 21.5285C142.948 24.115 142.365 26.0864 141.198 27.4425C140.04 28.7986 138.546 29.4767 136.715 29.4767C135.548 29.4767 134.579 29.1848 133.807 28.601C133.385 28.2777 132.972 27.8062 132.568 27.1865V34.8383H128.772V14.3751H132.447V16.544C132.86 15.9064 133.3 15.4035 133.766 15.0352C134.619 14.3796 135.633 14.0518 136.809 14.0518Z" fill="#2A65E6"/>
<path d="M153.826 21.9192C153.584 22.0718 153.337 22.1976 153.085 22.2964C152.843 22.3862 152.507 22.4715 152.076 22.5523L151.214 22.714C150.406 22.8577 149.827 23.0328 149.477 23.2394C148.885 23.5896 148.589 24.133 148.589 24.8694C148.589 25.525 148.768 26.001 149.127 26.2974C149.495 26.5848 149.94 26.7285 150.46 26.7285C151.286 26.7285 152.044 26.486 152.735 26.001C153.435 25.5161 153.799 24.6314 153.826 23.3471V21.9192ZM151.497 20.1275C152.206 20.0377 152.713 19.9254 153.018 19.7907C153.566 19.5572 153.839 19.1934 153.839 18.6995C153.839 18.0978 153.628 17.6846 153.207 17.4601C152.794 17.2266 152.183 17.1098 151.376 17.1098C150.469 17.1098 149.827 17.3344 149.45 17.7834C149.181 18.1157 149.002 18.5648 148.912 19.1306H145.21C145.29 17.8463 145.649 16.791 146.287 15.9648C147.301 14.6715 149.042 14.0249 151.51 14.0249C153.117 14.0249 154.544 14.3437 155.791 14.9813C157.039 15.619 157.663 16.8225 157.663 18.5917V25.3275C157.663 25.7945 157.672 26.3603 157.69 27.0249C157.717 27.5278 157.793 27.8691 157.919 28.0487C158.044 28.2283 158.233 28.3765 158.484 28.4933V29.0591H154.311C154.194 28.7627 154.113 28.4843 154.068 28.2238C154.023 27.9634 153.987 27.667 153.961 27.3347C153.431 27.9095 152.821 28.399 152.13 28.8031C151.304 29.2791 150.37 29.5171 149.329 29.5171C148.001 29.5171 146.902 29.1399 146.031 28.3855C145.169 27.6221 144.738 26.5444 144.738 25.1523C144.738 23.3471 145.434 22.0404 146.825 21.2321C147.588 20.7921 148.71 20.4777 150.191 20.2891L151.497 20.1275Z" fill="#2A65E6"/>
<path d="M165 29.0591H161.163V9.20207H165V29.0591Z" fill="#2A65E6"/>
</svg>
