<?xml version="1.0" encoding="UTF-8" standalone="no"?>
<!-- Generator: Adobe Illustrator 28.1.0, SVG Export Plug-In . SVG Version: 6.00 Build 0)  -->

<svg
   version="1.1"
   id="Layer_1"
   x="0px"
   y="0px"
   viewBox="6 0 218 52"
   xml:space="preserve"
   xmlns="http://www.w3.org/2000/svg"
   xmlns:svg="http://www.w3.org/2000/svg"><defs
   id="defs28" />
<style
   type="text/css"
   id="style1">
	.st0{fill:#E7752F;}
	.st1{fill:#939393;}
</style>
<path
   class="st0"
   d="m 10.117989,15.566169 c -1.8298485,0 -3.1266326,0.679635 -3.1266326,3.121289 V 40.143801 H 0 V 10.259978 l 5.6228138,1.8325 c 0,0 1.7837187,-1.857671 5.9457292,-1.857671 5.223014,0 8.175376,2.637992 8.175376,7.425646 V 40.143801 H 12.747436 V 20.238034 c 0,-1.213274 0.292161,-4.671865 -2.629447,-4.671865 m 74.859797,24.572598 h 6.991358 V 1.016936 h -6.991358 z m 11.332759,0 h 6.991365 V 10.491558 H 96.310545 Z M 30.805024,28.786337 v 2.587652 c 0,2.456753 1.604321,3.92678 4.920603,3.92678 3.259898,0 6.058493,-0.921284 7.293768,-1.631124 v 5.532734 c 0,0 -3.198392,1.203207 -7.170753,1.203207 -7.888341,0 -11.773566,-3.247146 -11.773566,-8.694299 V 17.766175 c 0,-4.505732 3.80834,-7.531368 9.702812,-7.531368 6.017487,0 10.035981,2.698404 10.035981,7.224273 v 11.327257 z m 0,-4.868204 h 6.371155 v -5.774384 c 0,-0.71991 -0.522814,-2.909846 -3.382914,-2.909846 -1.993869,0 -2.988241,1.006868 -2.988241,2.909846 z m 121.369756,16.48242 c 3.30089,0 5.39215,-0.921284 5.39215,-0.921284 v -5.462255 c 0,0 -1.99388,1.278721 -4.37216,1.278721 -2.74221,0 -4.30554,-1.570713 -4.30554,-4.661797 V 19.442609 c 0,-2.854469 1.61459,-4.178499 4.30042,-4.178499 2.69094,0 4.37728,1.273687 4.37728,1.273687 v -5.39681 c 0,0 -1.85035,-0.911214 -5.34603,-0.911214 -6.78632,0 -10.05137,3.916713 -10.31788,8.815123 v 11.659526 c 0,6.448984 3.55206,9.696131 10.27176,9.696131 m -24.03921,0.171165 V 19.080137 c 0,-5.608252 -2.71658,-8.84533 -10.28201,-8.84533 -7.13487,0 -10.20513,3.977125 -10.20513,8.578509 v 14.836192 c 0,4.978957 3.69046,6.756078 6.88886,6.756078 2.84984,0 4.17738,-0.533639 4.17738,-0.533639 v -4.933649 c 0,0 -0.89186,0.362471 -1.92211,0.362471 -1.40955,0 -2.14765,-1.157897 -2.14765,-3.015568 V 18.893866 c 0,-2.270486 0.96875,-3.629756 3.1574,-3.629756 2.18863,0 3.2189,1.228377 3.2189,3.237077 l -0.005,21.562065 c 0,2.507099 -2.02974,4.153328 -5.12561,4.153328 -2.06051,0 -4.16202,-0.402747 -6.1969,-1.178035 v 5.316259 c 1.15327,0.397714 3.6597,1.047142 6.5403,1.047142 10.42041,0.0051 11.90172,-6.172095 11.90172,-8.830225 M 99.806226,0 c -2.091255,0 -3.78784,1.6663655 -3.78784,3.7203749 0,2.0540093 1.696585,3.720375 3.78784,3.720375 2.091264,0 3.787844,-1.6663657 3.787844,-3.720375 C 103.59407,1.6663655 101.89749,0 99.806226,0 Z m 35.213064,21.597306 c -2.09125,0 -3.78784,1.666364 -3.78784,3.720374 0,2.054009 1.69659,3.720374 3.78784,3.720374 2.09126,0 3.78785,-1.666365 3.78785,-3.720374 0,-2.05401 -1.69659,-3.720374 -3.78785,-3.720374 z m 46.09477,-3.554242 v 14.478751 c 0,5.562943 -5.73045,7.878738 -10.31277,7.878738 -4.5823,0 -10.31276,-2.315795 -10.31276,-7.878738 V 18.043064 c 0,-5.562943 5.73046,-7.878738 10.31276,-7.878738 4.57719,0 10.31277,2.315795 10.31277,7.878738 z m -6.99136,13.7236 v -12.96845 c 0,-1.802294 -0.78934,-3.52907 -3.32141,-3.52907 -2.52692,0 -3.32139,1.731811 -3.32139,3.52907 V 31.7717 c 0,1.802292 0.78934,3.529069 3.32139,3.529069 2.52694,0 3.32141,-1.731812 3.32141,-3.534105 z M 72.476379,10.229773 c -3.946732,0 -5.853468,2.109387 -6.186633,2.542339 -1.389045,-1.47506 -3.746833,-2.542339 -6.581305,-2.542339 -4.110756,0 -5.899599,1.817395 -5.940604,1.85767 l -5.612563,-1.832499 v 29.883823 h 6.991357 V 18.687458 c 0,-2.200005 1.009749,-3.121289 3.126633,-3.121289 2.921608,0 2.629447,3.458591 2.629447,4.671865 v 19.900733 h 6.991357 V 18.687458 c 0,-2.200005 1.009748,-3.121289 3.126633,-3.121289 2.921608,0 2.629447,3.458591 2.629447,4.671865 v 19.900733 h 6.991356 V 17.655419 c 0,-4.787653 -2.942109,-7.425646 -8.165125,-7.425646 z m 137.300201,0 c -3.94674,0 -5.85348,2.109387 -6.18665,2.542339 -1.38904,-1.47506 -3.74681,-2.542339 -6.5813,-2.542339 -4.11075,0 -5.89959,1.817395 -5.94059,1.85767 l -5.61256,-1.832499 v 29.883823 h 6.99135 V 18.687458 c 0,-2.200005 1.00975,-3.121289 3.12662,-3.121289 2.92163,0 2.62946,3.458591 2.62946,4.671865 v 19.900733 h 6.99136 V 18.687458 c 0,-2.200005 1.00975,-3.121289 3.12662,-3.121289 2.92163,0 2.62944,3.458591 2.62944,4.671865 v 19.900733 h 6.99138 V 17.655419 c -0.005,-4.787653 -2.94724,-7.425646 -8.16513,-7.425646 z"
   id="path1"
   style="stroke-width:0.507978" />
<g
   id="g28"
   transform="scale(0.51256279,0.50343369)">
	<g
   id="g15">
		<path
   class="st1"
   d="m 0,90.19 h 4.13 c 3.78,0 6.25,2.52 6.25,6.44 0,3.92 -2.47,6.44 -6.25,6.44 H 0 Z m 4.11,11.39 c 2.91,0 4.63,-1.93 4.63,-4.95 0,-3.02 -1.72,-4.97 -4.63,-4.97 H 1.66 v 9.92 z"
   id="path2" />
		<path
   class="st1"
   d="m 19.85,90.19 5.03,12.88 H 23.2 L 21.71,99.19 H 16.4 l -1.47,3.88 h -1.68 l 5.03,-12.88 z m -2.89,7.55 h 4.19 l -2.1,-5.49 z"
   id="path3" />
		<path
   class="st1"
   d="m 36.79,100.8 v -3.04 h -2.83 v -1.38 h 4.36 v 5.03 c -1.24,1.36 -2.94,1.85 -4.53,1.85 -3.59,0 -6.02,-2.64 -6.02,-6.63 0,-4.01 2.66,-6.63 6.21,-6.63 1.51,0 2.81,0.44 3.71,1.15 v 1.77 c -1.09,-0.99 -2.31,-1.43 -3.71,-1.43 -2.68,0 -4.55,2.03 -4.55,5.14 0,3.1 1.72,5.16 4.4,5.16 1.18,0 2.12,-0.29 2.96,-0.99 z"
   id="path4" />
		<path
   class="st1"
   d="m 43.06,90.19 h 1.66 v 11.39 h 6.56 v 1.49 h -8.22 z"
   id="path5" />
		<path
   class="st1"
   d="M 57.38,103.07 H 55.72 V 90.19 h 1.66 z"
   id="path6" />
		<path
   class="st1"
   d="m 70.8,100.8 v -3.04 h -2.83 v -1.38 h 4.36 v 5.03 c -1.24,1.36 -2.94,1.85 -4.53,1.85 -3.59,0 -6.02,-2.64 -6.02,-6.63 0,-4.01 2.66,-6.63 6.21,-6.63 1.51,0 2.81,0.44 3.71,1.15 v 1.77 c -1.09,-0.99 -2.31,-1.43 -3.71,-1.43 -2.68,0 -4.55,2.03 -4.55,5.14 0,3.1 1.72,5.16 4.4,5.16 1.17,0 2.12,-0.29 2.96,-0.99 z"
   id="path7" />
		<path
   class="st1"
   d="M 80.77,103.07 75.8,90.19 h 1.74 l 4.03,10.7 4.05,-10.7 h 1.68 l -4.97,12.88 z"
   id="path8" />
		<path
   class="st1"
   d="m 95.85,90.19 5.03,12.88 H 99.2 L 97.71,99.19 H 92.4 l -1.47,3.88 h -1.68 l 5.03,-12.88 z m -2.9,7.55 h 4.19 l -2.1,-5.49 z"
   id="path9" />
		<path
   class="st1"
   d="m 106.6,97.62 v 5.45 h -1.66 V 90.19 h 4.72 c 2.6,0 4.28,1.3 4.28,3.73 0,2.14 -1.26,3.33 -3.29,3.63 l 3.82,5.52 h -1.89 l -3.69,-5.45 z m 0,-1.41 h 3.02 c 1.7,0 2.68,-0.86 2.68,-2.29 0,-1.43 -0.99,-2.29 -2.68,-2.29 h -3.02 z"
   id="path10" />
		<path
   class="st1"
   d="m 126.81,90.19 v 1.47 h -6.56 v 4.07 h 5.96 v 1.47 h -5.96 v 4.38 h 6.56 v 1.49 h -8.2 V 90.19 Z"
   id="path11" />
		<path
   class="st1"
   d="m 133.16,97.62 v 5.45 H 131.5 V 90.19 h 4.72 c 2.6,0 4.28,1.3 4.28,3.73 0,2.14 -1.26,3.33 -3.29,3.63 l 3.82,5.52 h -1.89 l -3.69,-5.45 z m 0,-1.41 h 3.02 c 1.7,0 2.68,-0.86 2.68,-2.29 0,-1.43 -0.99,-2.29 -2.68,-2.29 h -3.02 z"
   id="path12" />
		<path
   class="st1"
   d="m 161.91,103.07 h -1.22 L 153.5,92.84 v 10.23 h -1.59 V 90.19 h 1.57 l 6.86,9.79 v -9.79 h 1.57 z"
   id="path13" />
		<path
   class="st1"
   d="m 172.56,90.19 5.03,12.88 h -1.68 l -1.49,-3.88 h -5.31 l -1.47,3.88 h -1.68 l 5.03,-12.88 z m -2.9,7.55 h 4.19 l -2.1,-5.49 z m 2.12,-8.26 c -1.03,0 -1.82,-0.8 -1.82,-1.8 0,-1.03 0.8,-1.82 1.82,-1.82 1.03,0 1.82,0.8 1.82,1.82 0,1 -0.79,1.8 -1.82,1.8 z m 0,-2.77 c -0.52,0 -0.94,0.42 -0.94,0.96 0,0.52 0.42,0.94 0.94,0.94 0.52,0 0.94,-0.42 0.94,-0.94 0,-0.54 -0.42,-0.96 -0.94,-0.96 z"
   id="path14" />
		<path
   class="st1"
   d="m 183.31,97.62 v 5.45 h -1.66 V 90.19 h 4.72 c 2.6,0 4.28,1.3 4.28,3.73 0,2.14 -1.26,3.33 -3.29,3.63 l 3.82,5.52 h -1.89 l -3.69,-5.45 z m 0,-1.41 h 3.02 c 1.7,0 2.68,-0.86 2.68,-2.29 0,-1.43 -0.99,-2.29 -2.68,-2.29 h -3.02 z"
   id="path15" />
	</g>
	<g
   id="g27">
		<path
   class="st1"
   d="m 268.42,90.19 h 4.13 c 3.77,0 6.25,2.52 6.25,6.44 0,3.92 -2.47,6.44 -6.25,6.44 h -4.13 z m 4.11,11.39 c 2.91,0 4.64,-1.93 4.64,-4.95 0,-3.02 -1.72,-4.97 -4.64,-4.97 h -2.45 v 9.92 z"
   id="path16" />
		<path
   class="st1"
   d="m 291.4,90.19 v 1.47 h -6.56 v 4.07 h 5.96 v 1.47 h -5.96 v 4.38 h 6.56 v 1.49 h -8.2 V 90.19 Z"
   id="path17" />
		<path
   class="st1"
   d="m 295.19,90.19 h 10.63 v 1.47 h -4.49 v 11.41 h -1.66 V 91.66 h -4.49 z"
   id="path18" />
		<path
   class="st1"
   d="m 315.84,97.91 v 5.16 h -1.66 V 90.19 h 4.76 c 2.6,0 4.3,1.32 4.3,3.86 0,2.52 -1.7,3.86 -4.3,3.86 z m 3.09,-6.27 h -3.08 v 4.8 h 3.08 c 1.74,0 2.68,-0.94 2.68,-2.39 0,-1.47 -0.94,-2.41 -2.68,-2.41 z"
   id="path19" />
		<path
   class="st1"
   d="m 331.46,90.19 5.03,12.88 h -1.68 l -1.49,-3.88 h -5.31 l -1.47,3.88 h -1.68 l 5.03,-12.88 z m -2.89,7.55 h 4.19 l -2.1,-5.49 z"
   id="path20" />
		<path
   class="st1"
   d="m 339.89,100.28 c 1.2,1.03 2.54,1.51 4.05,1.51 1.66,0 2.75,-0.71 2.75,-2.03 0,-1.13 -0.69,-1.59 -2.06,-2.16 l -1.89,-0.73 c -1.51,-0.59 -2.89,-1.45 -2.89,-3.48 0,-2.22 1.91,-3.38 4.13,-3.38 1.41,0 2.73,0.38 3.69,1.05 v 1.74 c -1.03,-0.82 -2.18,-1.34 -3.67,-1.34 -1.43,0 -2.54,0.63 -2.54,1.91 0,1.09 0.73,1.55 1.93,2.01 l 2.03,0.8 c 1.97,0.76 2.85,1.78 2.85,3.57 0,2.2 -1.85,3.52 -4.34,3.52 -1.74,0 -3.17,-0.5 -4.05,-1.2 v -1.79 z"
   id="path21" />
		<path
   class="st1"
   d="m 350.5,100.28 c 1.2,1.03 2.54,1.51 4.05,1.51 1.66,0 2.75,-0.71 2.75,-2.03 0,-1.13 -0.69,-1.59 -2.06,-2.16 l -1.89,-0.73 c -1.51,-0.59 -2.89,-1.45 -2.89,-3.48 0,-2.22 1.91,-3.38 4.13,-3.38 1.41,0 2.73,0.38 3.69,1.05 v 1.74 c -1.03,-0.82 -2.18,-1.34 -3.67,-1.34 -1.43,0 -2.54,0.63 -2.54,1.91 0,1.09 0.73,1.55 1.93,2.01 l 2.03,0.8 c 1.97,0.76 2.85,1.78 2.85,3.57 0,2.2 -1.85,3.52 -4.34,3.52 -1.74,0 -3.17,-0.5 -4.05,-1.2 v -1.79 z"
   id="path22" />
		<path
   class="st1"
   d="m 371.55,90.19 v 1.47 h -6.56 v 4.07 h 5.96 v 1.47 h -5.96 v 4.38 h 6.56 v 1.49 h -8.2 V 90.19 Z"
   id="path23" />
		<path
   class="st1"
   d="m 377.37,97.62 v 5.45 h -1.66 V 90.19 h 4.72 c 2.6,0 4.28,1.3 4.28,3.73 0,2.14 -1.26,3.33 -3.29,3.63 l 3.82,5.52 h -1.89 l -3.69,-5.45 z m 0,-1.41 h 3.02 c 1.7,0 2.68,-0.86 2.68,-2.29 0,-1.43 -0.99,-2.29 -2.68,-2.29 h -3.02 z"
   id="path24" />
		<path
   class="st1"
   d="m 394.02,90.19 h 4.13 c 3.77,0 6.25,2.52 6.25,6.44 0,3.92 -2.47,6.44 -6.25,6.44 h -4.13 z m 4.11,11.39 c 2.91,0 4.64,-1.93 4.64,-4.95 0,-3.02 -1.72,-4.97 -4.64,-4.97 h -2.45 v 9.92 z"
   id="path25" />
		<path
   class="st1"
   d="m 410.24,103.07 h -1.66 V 90.19 h 1.66 z"
   id="path26" />
		<path
   class="st1"
   d="m 423.66,100.8 v -3.04 h -2.83 v -1.38 h 4.36 v 5.03 c -1.24,1.36 -2.94,1.85 -4.53,1.85 -3.59,0 -6.02,-2.64 -6.02,-6.63 0,-4.01 2.66,-6.63 6.21,-6.63 1.51,0 2.81,0.44 3.71,1.15 v 1.77 c -1.09,-0.99 -2.31,-1.43 -3.71,-1.43 -2.68,0 -4.55,2.03 -4.55,5.14 0,3.1 1.72,5.16 4.4,5.16 1.18,0 2.13,-0.29 2.96,-0.99 z"
   id="path27" />
	</g>
</g>
</svg>
