<svg width="114" height="40" viewBox="0 0 114 40" fill="none" xmlns="http://www.w3.org/2000/svg">
<path d="M18.7814 19.4903V31.4172H12.9091V20.3457C12.9583 19.8837 12.9055 19.4166 12.7545 18.9768C12.6035 18.5372 12.3579 18.1353 12.0346 17.7996C11.7113 17.4638 11.3183 17.2019 10.8829 17.0323C10.4474 16.8626 9.9799 16.7892 9.51303 16.8172C7.35987 16.8172 5.87224 18.0614 5.87224 20.8122V31.4172H0V11.9764H5.87224V13.8233C6.5513 13.0211 7.41119 12.3892 8.38215 11.9788C9.35311 11.5684 10.4078 11.3911 11.4606 11.4612C15.4245 11.4612 18.7814 14.251 18.7814 19.4903Z" fill="#161616"/>
<path d="M31.1733 26.7517C31.8655 26.7716 32.5547 26.6519 33.199 26.3995C33.8433 26.1472 34.4293 25.7677 34.9216 25.2839L38.7092 29.036C37.7127 30.0195 36.5213 30.7864 35.2105 31.2885C33.8998 31.7905 32.4983 32.0165 31.0949 31.9521C24.4104 31.9521 20.2705 27.4904 20.2705 21.7068C20.2278 20.3433 20.4681 18.9857 20.9764 17.7183C21.4847 16.4509 22.25 15.301 23.2249 14.3401C24.1998 13.3791 25.3634 12.6277 26.6432 12.1324C27.923 11.6372 29.2918 11.4089 30.6643 11.4615C36.3701 11.4615 40.5982 15.8454 40.5982 21.7068C40.6015 22.4904 40.5228 23.2723 40.3633 24.0397H26.4852C27.2291 26.0518 29.02 26.7517 31.1733 26.7517ZM34.7259 19.6849C34.4434 18.799 33.8842 18.0255 33.1292 17.4764C32.3743 16.9274 31.4629 16.6315 30.5272 16.6315C29.5916 16.6315 28.6803 16.9274 27.9254 17.4764C27.1703 18.0255 26.6112 18.799 26.3287 19.6849H34.7259Z" fill="#161616"/>
<path d="M104.086 8H109.959V12.0048H114V18.0023H109.978V23.7373C109.978 25.4092 111.426 25.555 114 25.4092V31.4165C106.347 32.1941 104.116 29.9 104.116 24.4664L104.086 8Z" fill="#161616"/>
<path d="M56.8442 31.9604L52.5281 27.7223L58.5177 21.7638L52.5281 15.8148L56.8442 11.5379L67.1402 21.7638L56.8442 31.9604ZM55.1608 21.7249L44.8648 11.499L40.5977 15.776L46.5873 21.7249L40.5977 27.7223L44.9137 31.9993L55.1608 21.7249ZM68.8626 11.499L64.5466 15.776L68.8626 20.0627L73.169 15.776L68.8626 11.499ZM68.8626 23.3968L64.5075 27.7223L68.8235 31.9993L73.1298 27.7223L68.8626 23.3968Z" fill="#161616"/>
<path d="M81.8871 21.7059C81.8813 19.6707 82.4837 17.6794 83.6179 15.9844C84.7522 14.2894 86.3673 12.9667 88.2588 12.1838C90.1504 11.401 92.2333 11.1931 94.2439 11.5866C96.2544 11.9802 98.102 12.9573 99.5531 14.3944C101.004 15.8315 101.993 17.6639 102.395 19.6597C102.797 21.6554 102.594 23.7247 101.811 25.6056C101.028 27.4865 99.7009 29.0943 97.9977 30.2257C96.2942 31.357 94.291 31.9609 92.2419 31.9609C90.8801 31.9765 89.529 31.7221 88.2676 31.2126C87.0062 30.7032 85.8597 29.9488 84.8954 28.9938C83.9312 28.0388 83.1684 26.9024 82.6519 25.651C82.1353 24.3995 81.8753 23.0583 81.8871 21.7059ZM96.734 21.7059C96.734 20.5226 96.2608 19.3878 95.4184 18.5511C94.5759 17.7144 93.4332 17.2442 92.2419 17.2442C91.0505 17.2442 89.9078 17.7144 89.0653 18.5511C88.2229 19.3878 87.7496 20.5226 87.7496 21.7059C87.7496 22.8892 88.2229 24.024 89.0653 24.8608C89.9078 25.6975 91.0505 26.1675 92.2419 26.1675C93.4332 26.1675 94.5759 25.6975 95.4184 24.8608C96.2608 24.024 96.734 22.8892 96.734 21.7059Z" fill="#161616"/>
<path d="M74.5391 12.0039H80.4113V31.4447H74.5391V12.0039Z" fill="#161616"/>
</svg>
