<svg width="124" height="38" viewBox="0 0 124 38" fill="none" xmlns="http://www.w3.org/2000/svg">
<path d="M14.7778 0.220478C12.1682 0.654602 9.27139 2.41521 7.57158 4.58584C7.02094 5.28526 6.27877 6.08115 5.89571 6.34645C4.98595 6.97352 4.62684 8.13118 4.62684 10.2536C4.65078 11.9659 4.62684 11.9901 3.98043 12.1348C3.62132 12.2312 3.19038 12.4483 3.02279 12.6412C2.54397 13.2442 2.08909 15.656 1.92151 18.5743C1.8018 21.0584 1.72998 21.372 1.41875 21.1308C1.13145 20.8655 1.08357 20.2625 1.20328 17.5613L1.32298 14.3054L0.79628 14.9325C0.31746 15.4872 0.221697 15.9454 0.0780506 18.309C-0.0655953 20.8414 -0.0416543 21.0826 0.413224 21.6614C0.676575 21.999 1.05963 22.602 1.25116 23.0361C1.70604 24.0249 2.71156 24.7967 3.52555 24.7967C4.12408 24.7967 4.1959 24.8932 4.36349 25.9303C4.43531 26.5815 4.67472 27.3291 4.86625 27.6426C5.05778 27.9321 7.14064 29.8133 9.5108 31.7909C12.695 34.468 14.0596 35.4569 14.8257 35.6739C16.1425 36.0116 18.9914 35.8428 19.9251 35.3363C20.9546 34.8057 28.7354 28.2215 29.0706 27.5944C29.2382 27.3291 29.4297 26.5815 29.5255 25.9544C29.6691 24.9414 29.7649 24.7967 30.2437 24.7967C31.2013 24.7967 31.9674 24.2902 32.3984 23.3738C32.6138 22.8914 33.0687 22.192 33.356 21.8302C33.9785 21.0826 34.0503 20.0696 33.7151 17.0066C33.5954 15.8007 33.4039 15.246 32.9969 14.836L32.4702 14.3054L32.6138 16.1142C32.6857 17.1031 32.8054 18.4778 32.8772 19.1531C32.973 20.1419 32.9011 20.4796 32.5181 20.962L32.0393 21.5408L32.0153 19.5872C32.0153 17.489 31.4886 13.8713 31.0337 12.8824C30.8422 12.4965 30.4831 12.2554 29.9325 12.1348C29.1185 11.9901 29.1185 11.9901 29.2621 10.953C29.3579 10.3983 29.31 9.28885 29.1663 8.49295C28.9748 7.38353 28.7594 6.97352 28.2566 6.58763C27.8975 6.32233 27.3947 5.83997 27.1074 5.50232C24.5697 2.41521 21.8883 0.702839 18.8478 0.196362C17.0762 -0.0689392 16.5973 -0.0689392 14.7778 0.220478ZM14.9693 5.88821C15.5918 6.32233 15.6158 6.90117 15.113 8.61354C14.5863 10.4465 12.9104 12.0865 11.067 12.6412C7.66734 13.6301 5.44083 12.1348 5.72812 9.07178C5.89571 7.33529 6.75759 6.56351 9.31927 5.88821C11.0909 5.40585 14.2751 5.40585 14.9693 5.88821ZM25.5991 6.20174C27.4187 6.90117 28.1848 7.84177 28.1848 9.31297C28.1848 11.7971 26.7483 13.1236 24.3063 12.8824C22.6544 12.7136 21.6249 12.3277 20.5715 11.4112C19.6139 10.5912 18.6563 8.75825 18.4647 7.33529C18.3211 6.4188 18.3929 6.24998 18.8717 5.88821C19.7097 5.28526 23.7078 5.4782 25.5991 6.20174ZM21.8165 15.3907C24.3542 15.6319 25.9583 16.0901 26.3174 16.669C26.4131 16.8378 26.5089 18.0678 26.5089 19.4184C26.5089 21.7337 26.485 21.9026 25.8625 22.6502C25.24 23.3738 25.1921 23.6391 25.0724 26.0991L24.9527 28.7762L22.4389 30.8986C18.9675 33.841 18.776 33.9616 16.9804 33.9616C16.1425 33.9616 15.2327 33.841 14.9454 33.6721C14.6581 33.5274 13.1498 32.3215 11.6176 31.0192L8.79257 28.6315V26.1473C8.79257 23.7355 8.76863 23.6149 8.07434 22.7467C7.40399 21.9026 7.35611 21.7096 7.35611 19.7078C7.35611 17.079 7.59552 16.4278 8.67286 15.9695C10.3966 15.246 17.148 14.9566 21.8165 15.3907Z" fill="#313B4A"/>
<path d="M10.5394 17.8504C9.24655 18.1398 9.19867 18.5257 10.4436 18.5257C11.4012 18.5257 12.1434 19.008 12.1434 19.611C12.1434 20.1416 13.1489 20.6963 14.1066 20.6963C15.2318 20.6963 15.974 20.021 15.974 18.9839C15.974 18.381 15.8303 18.2121 15.136 17.8986C14.2263 17.5127 12.0955 17.4886 10.5394 17.8504Z" fill="#313B4A"/>
<path d="M18.6808 17.9227C17.7471 18.3327 17.6274 19.1045 18.3935 20.0692C18.7766 20.5516 19.0878 20.6963 19.83 20.6963C20.7876 20.6963 20.9073 20.5998 22.2959 18.9839C22.5353 18.6945 22.9902 18.5257 23.5169 18.5257C24.69 18.5257 24.5703 18.1639 23.3014 17.8262C21.841 17.4645 19.6145 17.5127 18.6808 17.9227Z" fill="#313B4A"/>
<path d="M14.4167 25.0379C14.2013 25.3756 14.4885 25.7615 14.9434 25.7615C15.1589 25.7615 15.6856 26.0509 16.1405 26.3886L16.9545 27.0156L17.7206 26.4127C18.1515 26.075 18.7022 25.7856 18.9655 25.7374C19.588 25.6168 19.588 24.9415 18.9655 24.8209C18.7261 24.7727 18.1755 24.9174 17.7445 25.1585C17.0502 25.5203 16.9305 25.5444 16.2602 25.1827C15.4222 24.7485 14.6322 24.6762 14.4167 25.0379Z" fill="#313B4A"/>
<path d="M13.1024 27.8112C12.863 28.1006 12.8869 28.173 13.246 28.173C13.5094 28.173 13.9642 28.39 14.2994 28.6553C14.7782 29.0412 15.281 29.1377 16.9329 29.1377C18.5848 29.1377 19.0876 29.0412 19.5664 28.6553C19.9016 28.39 20.3804 28.173 20.6438 28.173C21.0508 28.173 21.0747 28.1247 20.7395 27.8112C20.4044 27.4736 20.2847 27.4736 19.4946 27.8112C18.3694 28.2694 15.4965 28.2936 14.3712 27.8112C13.9164 27.6183 13.4854 27.4494 13.4615 27.4494C13.4375 27.4494 13.2699 27.6183 13.1024 27.8112Z" fill="#313B4A"/>
<path d="M52.4597 9.93994C51.7893 10.1088 50.8317 10.4705 50.3529 10.7599C49.2516 11.4111 49.1079 11.4111 48.9403 10.8082C48.8206 10.3499 48.6052 10.3258 45.0858 10.3258H41.351V11.3388C41.351 11.9176 41.2792 12.9547 41.2074 13.63L41.0398 14.9082H41.8059C42.2129 14.9082 42.5481 15.0047 42.5481 15.1012C42.5481 15.3183 40.944 25.9784 40.7525 27.0396L40.6328 27.7149L43.793 27.6426L46.9532 27.5702L47.1448 26.4849C47.3602 25.3755 48.7727 15.9453 48.7727 15.7765C48.7727 15.5112 50.8317 14.9082 51.7893 14.9082C53.2258 14.9082 53.8004 15.2459 53.8004 16.0659C53.8004 16.4277 53.4652 18.6707 53.0821 21.0583C52.6991 23.446 52.3639 25.6408 52.3639 25.9302C52.3639 26.2196 52.6272 26.7743 52.9385 27.1361C53.4891 27.7873 53.6088 27.8114 55.5241 27.7873C56.6015 27.7873 58.2294 27.6426 59.1392 27.4737L60.7432 27.1602V26.2678C60.7432 25.7855 60.8151 24.8207 60.8869 24.1213L61.0545 22.8672H60.1687C59.1153 22.8672 59.1153 22.819 59.7856 18.5259C60.6714 12.9547 60.3841 11.4353 58.2534 10.3499C56.8648 9.65052 54.2792 9.45758 52.4597 9.93994Z" fill="#3F8FCC"/>
<path d="M86.9835 9.96477C86.2174 10.1818 85.2358 10.5436 84.8049 10.8089C83.8472 11.4119 83.8233 11.4119 83.6557 10.8089C83.536 10.3507 83.3205 10.3265 79.8012 10.3265H76.0664V10.9777C76.0664 11.3636 75.9946 12.3766 75.8988 13.2689L75.7552 14.909H76.3776C76.7128 14.909 77.048 15.0054 77.1198 15.1019C77.2156 15.2466 76.0424 23.5914 75.4679 26.9197L75.3242 27.7156L78.5084 27.6433L81.6686 27.5709L81.8362 26.5821C81.9319 26.0274 82.291 23.6397 82.6262 21.2761C83.4881 15.319 83.3684 15.729 84.4697 15.2949C85.7146 14.7884 87.6538 14.7884 88.1326 15.2949C88.6354 15.7772 88.6354 15.7531 87.7975 20.8179C86.9117 26.1962 86.9117 26.4856 87.7017 27.2333C88.2524 27.7397 88.5157 27.8121 90.2634 27.788C91.3407 27.788 92.9448 27.6433 93.8545 27.4744L95.4586 27.1609V25.7621C95.4586 24.9903 95.5304 24.0256 95.6022 23.6156C95.7459 22.892 95.7459 22.8679 94.884 22.8679C94.07 22.8679 94.0221 22.8197 94.0221 22.072C94.0221 21.662 94.2376 19.9496 94.501 18.2855C95.0995 14.4025 95.0995 13.1483 94.477 11.8701C94.1179 11.0983 93.7109 10.7124 92.9448 10.3265C91.5562 9.65124 88.8748 9.48241 86.9835 9.96477Z" fill="#3F8FCC"/>
<path d="M105.87 9.91487C103.979 10.3972 102.398 11.2896 101.034 12.5679C98.7355 14.7385 97.7539 17.1744 97.7539 20.575C97.7539 22.2633 97.8497 22.9868 98.2327 23.8551C99.358 26.3151 101.273 27.6175 104.505 28.1722C106.468 28.5099 108.719 28.2204 110.467 27.4487C111.544 26.9663 113.89 24.9163 113.89 24.458C113.89 24.2892 113.244 23.7104 112.454 23.1315L110.993 22.1186L110.275 22.7215C108.863 23.9274 106.349 24.1445 105.056 23.1557C104.41 22.6974 103.691 21.4915 103.907 21.2503C103.979 21.178 105.271 21.0333 106.756 20.9127C111.065 20.575 113.699 19.5621 114.656 17.8738C115.255 16.8609 115.446 15.0279 115.087 13.7496C114.728 12.3508 113.148 10.7831 111.592 10.2284C110.036 9.67369 107.354 9.52898 105.87 9.91487ZM109.27 14.5214C109.844 15.0279 109.892 15.1726 109.7 15.7755C109.365 16.7161 108.36 17.1503 106.181 17.2709C104.553 17.3673 104.314 17.3191 104.314 16.9814C104.314 16.0891 105.535 14.4491 106.468 14.1114C107.378 13.7738 108.623 13.9667 109.27 14.5214Z" fill="#3F8FCC"/>
<path d="M64.2424 10.6146C64.1706 10.7834 64.0748 11.8205 64.003 12.9058L63.8594 14.9076H64.5776C65.1043 14.9076 65.2958 15.0282 65.2958 15.3176C65.2958 15.5587 64.9607 17.8741 64.5776 20.4306C63.596 26.9183 63.62 27.1595 65.2001 27.6901C66.7562 28.2207 71.8796 27.5213 72.0951 26.7736C72.1669 26.5566 72.2387 25.5918 72.2866 24.6754L72.3584 22.9871L71.6402 22.9147C71.2571 22.8665 70.8501 22.7459 70.7544 22.6494C70.5868 22.5047 71.9035 13.2193 72.3824 10.9763L72.526 10.3251H68.4082C65.3437 10.3251 64.2903 10.3975 64.2424 10.6146Z" fill="#3F8FCC"/>
<path d="M63.25 34.7678C63.25 35.7665 63.9294 36.4908 65.0983 36.4908C65.6023 36.4908 65.9968 36.3459 66.2671 36.2011C66.4278 36.1172 66.5666 36.0181 66.6762 35.919L66.4278 35.1871C66.3183 35.2786 66.2014 35.3625 66.0772 35.4311C65.8507 35.553 65.5512 35.675 65.1932 35.675C64.5211 35.675 64.1924 35.2557 64.1924 34.6992C64.1924 33.9444 64.7987 33.243 65.5585 33.243C65.8945 33.243 66.216 33.3802 66.1795 33.6394L66.1356 33.8834H66.9319L67.0269 33.3955C67.1657 32.6483 66.2087 32.4196 65.6389 32.4196C64.2581 32.4196 63.25 33.5708 63.25 34.7678Z" fill="#3F8FCC"/>
<path d="M67.5268 35.5683C67.5268 36.3307 68.0528 36.4298 68.4984 36.4298C68.5861 36.4298 68.6664 36.4298 68.7249 36.4222L68.8198 36.4069L68.9659 35.6369H68.9221C68.8929 35.6369 68.8491 35.6445 68.7979 35.6445C68.6007 35.6445 68.4838 35.5912 68.4838 35.3548C68.4838 35.2786 68.4984 35.1871 68.5203 35.0727L69.2728 30.9863H67.7752L67.6364 31.7106H68.2135L67.5706 35.1642C67.5414 35.3167 67.5268 35.4539 67.5268 35.5683Z" fill="#3F8FCC"/>
<path d="M69.6422 34.7678C69.6422 35.8046 70.3873 36.4908 71.4101 36.4908C72.6155 36.4908 73.777 35.4997 73.777 34.135C73.777 33.121 73.0392 32.4196 72.0091 32.4196C70.7818 32.4196 69.6422 33.4184 69.6422 34.7678ZM70.5846 34.722C70.5846 33.8682 71.2713 33.243 71.9361 33.243C72.4621 33.243 72.8346 33.6166 72.8346 34.196C72.8346 35.0499 72.1479 35.6674 71.4832 35.6674C70.9572 35.6674 70.5846 35.3015 70.5846 34.722Z" fill="#3F8FCC"/>
<path d="M74.5587 35.4463C74.5587 36.1782 75.0482 36.4908 75.6326 36.4908C76.3412 36.4908 76.8234 36.041 77.0937 35.6217H77.1083C77.1083 36.2468 77.4955 36.4222 77.9557 36.4222C78.0726 36.4222 78.1603 36.4222 78.2406 36.4146L78.3502 36.3993L78.4817 35.675C78.4744 35.675 78.4598 35.675 78.4379 35.6827C78.416 35.6903 78.3794 35.6903 78.3283 35.6903C78.131 35.6903 78.0142 35.614 78.0142 35.3777C78.0142 35.2938 78.0215 35.2176 78.0361 35.1414L78.5328 32.5111H77.0279L76.8891 33.2354H77.4663L77.2763 34.2646C77.1594 34.9126 76.6407 35.6293 75.9906 35.6293C75.6472 35.6293 75.523 35.4692 75.523 35.1719C75.523 35.0727 75.5449 34.9431 75.5669 34.8135L75.9979 32.5111H74.493L74.3542 33.2354H74.9313L74.6099 34.9813C74.5806 35.1566 74.5587 35.3015 74.5587 35.4463Z" fill="#3F8FCC"/>
<path d="M79.1524 34.8669C79.1524 35.8656 79.6564 36.4908 80.5696 36.4908C81.0737 36.4908 81.5631 36.1706 81.8188 35.7665H81.8334C81.87 36.3078 82.2425 36.4222 82.732 36.4222C82.827 36.4222 82.9073 36.4222 82.9731 36.4146L83.0754 36.3993L83.2142 35.675C83.2069 35.675 83.1922 35.675 83.1703 35.6827C83.1411 35.6903 83.1046 35.6903 83.0534 35.6903C82.8562 35.6903 82.7393 35.614 82.7393 35.3777C82.7393 35.3091 82.7466 35.2252 82.7685 35.1414L83.5356 30.9863H82.038L81.8992 31.7106H82.4763L82.2864 32.7398L82.2645 32.8999C82.2572 32.9228 82.2572 32.9533 82.2572 32.9762H82.2425C82.0453 32.5721 81.6289 32.4196 81.2198 32.4196C80.1386 32.4196 79.1524 33.4107 79.1524 34.8669ZM80.0948 34.7983C80.0948 33.83 80.7376 33.2506 81.2855 33.2506C81.7896 33.2506 82.0234 33.6471 82.0234 34.1198C82.0234 34.9431 81.4536 35.675 80.8326 35.675C80.3651 35.675 80.0948 35.3472 80.0948 34.7983Z" fill="#3F8FCC"/>
<path d="M85.9271 36.3993H86.8549L87.1763 34.6915C87.3152 33.9597 87.8411 33.304 88.484 33.304C88.8274 33.304 88.9589 33.4717 88.9589 33.7691C88.9589 34.1121 88.674 35.2176 88.674 35.6217C88.674 36.3536 89.2072 36.4222 89.5944 36.4222C89.7113 36.4222 89.8063 36.4222 89.872 36.4146C89.9086 36.4069 89.9451 36.4069 89.967 36.3993L90.0985 35.675C90.0912 35.675 90.0766 35.675 90.0547 35.6827C90.0254 35.6903 89.9889 35.6903 89.9378 35.6903C89.7405 35.6903 89.6237 35.6217 89.6237 35.3777C89.6237 35.0651 89.9232 33.952 89.9232 33.4717C89.9232 32.7703 89.5141 32.4196 88.8785 32.4196C87.9799 32.4196 87.454 33.1363 87.3955 33.2887H87.3809C87.432 33.1668 87.4686 32.938 87.4686 32.8542C87.4686 32.6331 87.3444 32.5111 87.0522 32.5111H86.0732L85.9417 33.2354H86.3581C86.4604 33.2354 86.5043 33.2887 86.4896 33.4031L85.9271 36.3993Z" fill="#3F8FCC"/>
<path d="M90.5048 35.4921C90.5048 36.163 91.0089 36.4908 91.5714 36.4908C92.375 36.4832 92.8352 35.7741 92.8352 35.7665H92.8498C92.9083 36.3078 93.3101 36.4222 93.7192 36.4222C93.858 36.4222 93.9456 36.4222 94.0114 36.4146C94.0479 36.4069 94.0844 36.4069 94.1064 36.3993L94.2379 35.675C94.2305 35.675 94.2159 35.675 94.194 35.6827C94.1648 35.6903 94.1283 35.6903 94.0771 35.6903C93.8799 35.6903 93.763 35.614 93.763 35.3777C93.763 35.0422 94.0698 34.0206 94.0698 33.5708C94.0698 32.7093 93.3904 32.4196 92.7329 32.4196C92.3238 32.4196 91.9659 32.5111 91.681 32.6255C91.5203 32.6865 91.3741 32.7551 91.2353 32.8389L91.4472 33.5556C91.5568 33.487 91.6737 33.426 91.7979 33.3726C92.0097 33.2811 92.2873 33.1973 92.5576 33.1973C92.9448 33.1973 93.1493 33.3726 93.1493 33.6776C93.1493 33.7386 93.142 33.8072 93.1274 33.8758L93.1055 33.9978H92.974C91.9878 33.9978 90.5048 34.3104 90.5048 35.4921ZM91.4253 35.332C91.4253 34.6611 92.4115 34.5848 92.8352 34.5848H92.9959L92.9667 34.7068C92.8498 35.1795 92.3896 35.7741 91.8855 35.7741C91.5641 35.7741 91.4253 35.5988 91.4253 35.332Z" fill="#3F8FCC"/>
<path d="M95.7852 36.3993H96.8517L98.5758 33.2354H99.0287L99.1675 32.5111H97.3485L97.2097 33.2354H97.6334L96.6253 35.1566C96.5741 35.2557 96.5303 35.3625 96.5011 35.4463C96.4792 35.4997 96.4646 35.5454 96.4573 35.5835H96.4353C96.4426 35.5454 96.4426 35.4997 96.4426 35.4463C96.4426 35.3472 96.4353 35.2557 96.4207 35.1566L96.1285 33.2354H96.5522L96.691 32.5111H94.9304L94.7916 33.2354H95.2446L95.7852 36.3993Z" fill="#3F8FCC"/>
<path d="M100.122 31.8478H101.057L101.218 30.9863H100.283L100.122 31.8478ZM99.4498 35.614C99.4498 36.3612 99.9758 36.4222 100.421 36.4222C100.502 36.4222 100.582 36.4222 100.648 36.4146L100.75 36.3993L100.882 35.675C100.874 35.675 100.86 35.675 100.838 35.6827C100.809 35.6903 100.772 35.6903 100.721 35.6903C100.524 35.6903 100.407 35.614 100.407 35.3777C100.407 35.3091 100.414 35.2252 100.436 35.1414L100.925 32.5111H99.4279L99.2891 33.2354H99.8662L99.4936 35.2176C99.4644 35.3701 99.4498 35.4997 99.4498 35.614Z" fill="#3F8FCC"/>
<path d="M101.349 37.6344C101.473 37.703 101.941 38.0003 102.766 38.0003C103.665 38.0003 104.637 37.5353 104.892 36.2011L105.418 33.3879C105.433 33.2887 105.499 33.2354 105.608 33.2354H105.959L106.098 32.5111H105.163C104.863 32.5111 104.71 32.6865 104.68 32.8771C104.673 32.9304 104.666 32.9533 104.666 32.9762V33.0143H104.651C104.593 32.8084 104.286 32.4196 103.541 32.4196C102.284 32.4196 101.568 33.6547 101.568 34.7297C101.568 35.6445 102.065 36.3231 103 36.3231C103.468 36.3231 103.789 36.1325 104.06 35.7741H104.067C104.06 35.8046 104.045 35.8351 104.038 35.8733C104.016 35.9342 104.001 36.0257 103.972 36.1553C103.818 36.9482 103.336 37.2074 102.723 37.2074C102.409 37.2074 102.167 37.1464 101.992 37.0855C101.89 37.0473 101.802 37.0092 101.722 36.9558L101.349 37.6344ZM102.511 34.6534C102.511 33.9368 102.927 33.243 103.621 33.243C104.038 33.243 104.374 33.4031 104.374 33.9749C104.374 34.6458 104.001 35.5073 103.256 35.5073C102.759 35.5073 102.511 35.1719 102.511 34.6534Z" fill="#3F8FCC"/>
<path d="M105.979 35.4921C105.979 36.163 106.483 36.4908 107.045 36.4908C107.849 36.4832 108.309 35.7741 108.309 35.7665H108.324C108.382 36.3078 108.784 36.4222 109.193 36.4222C109.332 36.4222 109.42 36.4222 109.485 36.4146C109.522 36.4069 109.558 36.4069 109.58 36.3993L109.712 35.675C109.705 35.675 109.69 35.675 109.668 35.6827C109.639 35.6903 109.602 35.6903 109.551 35.6903C109.354 35.6903 109.237 35.614 109.237 35.3777C109.237 35.0422 109.544 34.0206 109.544 33.5708C109.544 32.7093 108.864 32.4196 108.207 32.4196C107.798 32.4196 107.44 32.5111 107.155 32.6255C106.994 32.6865 106.848 32.7551 106.709 32.8389L106.921 33.5556C107.031 33.487 107.148 33.426 107.272 33.3726C107.484 33.2811 107.761 33.1973 108.032 33.1973C108.419 33.1973 108.623 33.3726 108.623 33.6776C108.623 33.7386 108.616 33.8072 108.601 33.8758L108.579 33.9978H108.448C107.462 33.9978 105.979 34.3104 105.979 35.4921ZM106.899 35.332C106.899 34.6611 107.885 34.5848 108.309 34.5848H108.47L108.441 34.7068C108.324 35.1795 107.864 35.7741 107.359 35.7741C107.038 35.7741 106.899 35.5988 106.899 35.332Z" fill="#3F8FCC"/>
<path d="M110.608 35.2557C110.608 36.163 111.258 36.4374 111.93 36.4374C111.996 36.4374 112.062 36.4374 112.113 36.4298L112.2 36.4146L112.346 35.6369C112.325 35.6369 112.31 35.6369 112.288 35.6445C112.251 35.6522 112.2 35.6522 112.142 35.6522C111.879 35.6522 111.557 35.5759 111.557 35.1261C111.557 35.0651 111.557 34.9584 111.579 34.8669L111.879 33.2354H112.734L112.865 32.5111H112.01L112.208 31.4514H111.316L111.119 32.5111H110.52L110.381 33.2354H110.958L110.644 34.8974C110.622 35.0422 110.608 35.1566 110.608 35.2557Z" fill="#3F8FCC"/>
<path d="M113.025 34.7678C113.025 35.8046 113.77 36.4908 114.793 36.4908C115.998 36.4908 117.16 35.4997 117.16 34.135C117.16 33.121 116.422 32.4196 115.392 32.4196C114.165 32.4196 113.025 33.4184 113.025 34.7678ZM113.967 34.722C113.967 33.8682 114.654 33.243 115.319 33.243C115.845 33.243 116.217 33.6166 116.217 34.196C116.217 35.0499 115.531 35.6674 114.866 35.6674C114.34 35.6674 113.967 35.3015 113.967 34.722Z" fill="#3F8FCC"/>
<path d="M117.824 36.3993H118.752L119.007 34.9813C119.183 34.0283 119.833 33.4107 120.395 33.4107C120.512 33.4107 120.593 33.426 120.615 33.426L120.797 32.473C120.768 32.473 120.688 32.4577 120.578 32.4577C120.001 32.4577 119.511 32.938 119.256 33.4641H119.241C119.3 33.2887 119.365 32.9685 119.365 32.8542C119.365 32.6255 119.227 32.5111 118.942 32.5111H117.97L117.831 33.2354H118.248C118.372 33.2354 118.401 33.3192 118.379 33.4031L117.824 36.3993Z" fill="#3F8FCC"/>
<path d="M120.605 35.4844C120.473 36.2316 121.379 36.4908 122.015 36.4908C123.038 36.4908 123.753 35.9647 123.753 35.1795C123.753 33.9901 122 34.257 122 33.5937C122 33.3192 122.27 33.182 122.643 33.182C122.855 33.182 123.184 33.2278 123.147 33.4946L123.111 33.7233H123.907L123.987 33.2964C124.104 32.6788 123.381 32.4196 122.76 32.4196C121.92 32.4196 121.094 32.8008 121.094 33.6547C121.094 34.8516 122.84 34.6534 122.84 35.2862C122.84 35.553 122.577 35.736 122.139 35.736C121.876 35.736 121.35 35.675 121.43 35.3015L121.467 35.1032H120.678L120.605 35.4844Z" fill="#3F8FCC"/>
</svg>
