<svg width="172" height="40" viewBox="0 0 172 40" fill="none" xmlns="http://www.w3.org/2000/svg">
<g clip-path="url(#clip0_4275_10630)">
<path d="M112.513 20.9793V28.6786C112.513 28.7988 112.465 28.9141 112.379 28.9991C112.293 29.0841 112.176 29.1319 112.054 29.132H110.06C109.999 29.1321 109.939 29.1204 109.884 29.0976C109.828 29.0749 109.777 29.0415 109.734 28.9994C109.692 28.9572 109.658 28.9072 109.635 28.8522C109.612 28.7971 109.6 28.7382 109.6 28.6786V21.2645C109.6 19.2684 108.444 18.1791 106.58 18.1791C104.531 18.1791 103.158 19.4281 103.158 22.0088V28.6843C103.158 28.8045 103.109 28.9198 103.023 29.0048C102.937 29.0898 102.82 29.1376 102.698 29.1377H100.707C100.646 29.1378 100.587 29.1261 100.531 29.1033C100.475 29.0806 100.424 29.0472 100.382 29.0051C100.339 28.9629 100.305 28.9129 100.282 28.8579C100.259 28.8028 100.247 28.7439 100.247 28.6843V10.9789C100.247 10.9193 100.259 10.8603 100.282 10.8052C100.305 10.7502 100.339 10.7002 100.381 10.658C100.424 10.6159 100.475 10.5825 100.531 10.5598C100.587 10.537 100.646 10.5254 100.707 10.5255H102.698C102.758 10.5254 102.818 10.5371 102.874 10.5598C102.93 10.5826 102.981 10.616 103.023 10.6581C103.066 10.7002 103.1 10.7502 103.123 10.8053C103.146 10.8603 103.158 10.9193 103.158 10.9789V17.5375C104.048 16.1802 105.424 15.4901 107.337 15.4901C110.438 15.4986 112.513 17.5746 112.513 20.9793ZM157.972 20.9793V28.6786C157.972 28.7988 157.923 28.9142 157.837 28.9992C157.751 29.0842 157.634 29.132 157.512 29.132H155.518C155.457 29.1321 155.398 29.1204 155.342 29.0976C155.286 29.0749 155.235 29.0415 155.193 28.9994C155.15 28.9572 155.116 28.9072 155.093 28.8522C155.07 28.7971 155.058 28.7382 155.058 28.6786V21.2645C155.058 19.2684 153.902 18.1791 152.038 18.1791C149.989 18.1791 148.616 19.4281 148.616 22.0088V28.6843C148.616 28.8045 148.567 28.9199 148.481 29.0049C148.395 29.0899 148.278 29.1377 148.156 29.1377H146.165C146.105 29.1378 146.045 29.1261 145.989 29.1033C145.933 29.0806 145.882 29.0472 145.84 29.0051C145.797 28.9629 145.763 28.9129 145.74 28.8579C145.717 28.8028 145.705 28.7439 145.705 28.6843V16.2971C145.705 16.2375 145.717 16.1785 145.74 16.1235C145.763 16.0684 145.797 16.0184 145.84 15.9763C145.882 15.9342 145.933 15.9008 145.989 15.878C146.045 15.8553 146.105 15.8436 146.165 15.8437H148.156C148.247 15.8435 148.336 15.8701 148.412 15.9199C148.487 15.9697 148.546 16.0405 148.581 16.1234C148.604 16.1784 148.616 16.2375 148.616 16.2971V17.5461C149.506 16.1887 150.882 15.4986 152.795 15.4986C155.894 15.4986 157.972 17.5746 157.972 20.9793ZM67.0755 27.4667C65.8748 26.3132 65.1179 24.7837 64.9344 23.1403C64.7508 21.4968 65.1521 19.8414 66.0694 18.4577C66.7543 17.4244 67.6995 16.5843 68.8123 16.0197C69.9252 15.4551 71.1676 15.1853 72.4179 15.2368C73.6682 15.2882 74.8835 15.6592 75.9448 16.3133C77.0062 16.9674 77.8771 17.8822 78.4724 18.9682C79.0677 20.0541 79.367 21.274 79.3408 22.5084C79.3147 23.7428 78.9641 24.9493 78.3233 26.0098C77.6826 27.0703 76.7737 27.9484 75.6856 28.5582C74.5975 29.168 73.3675 29.4885 72.1161 29.4884C71.1806 29.5086 70.2507 29.3396 69.3839 28.9919C68.517 28.6442 67.7314 28.1252 67.0755 27.4667ZM72.1161 26.6967C72.6712 26.7091 73.223 26.6093 73.7374 26.4033C74.2519 26.1973 74.7182 25.8896 75.1076 25.4991C75.8868 24.6872 76.3211 23.6116 76.3211 22.4935C76.3211 21.3754 75.8868 20.2998 75.1076 19.488C74.3056 18.7203 73.2321 18.2909 72.1147 18.2909C70.9973 18.2909 69.9238 18.7203 69.1218 19.488C68.3432 20.3001 67.9093 21.3756 67.9093 22.4935C67.9093 23.6115 68.3432 24.6869 69.1218 25.4991C69.5114 25.89 69.9782 26.198 70.4932 26.404C71.0082 26.61 71.5606 26.7096 72.1161 26.6967ZM84.1397 18.0793C84.8333 16.5081 86.1368 15.9035 88.0068 15.8494C88.0835 15.8494 88.1569 15.8795 88.2111 15.933C88.2653 15.9864 88.2958 16.0589 88.2959 16.1345V18.1848C88.297 18.297 88.2555 18.4055 88.1795 18.4889C88.1035 18.5723 87.9986 18.6246 87.8854 18.6354C86.9818 18.6842 86.1125 18.9935 85.3854 19.525C84.5501 20.1096 84.1454 21.0934 84.1454 22.4508V28.6986C84.1454 28.8188 84.0969 28.9341 84.0107 29.0191C83.9246 29.1041 83.8077 29.1519 83.6859 29.152H81.6945C81.6341 29.152 81.5743 29.1404 81.5185 29.1176C81.4627 29.0948 81.4121 29.0614 81.3694 29.0193C81.3267 28.9772 81.2928 28.9272 81.2698 28.8722C81.2467 28.8171 81.2349 28.7581 81.2349 28.6986V16.2971C81.2349 16.2375 81.2467 16.1785 81.2698 16.1235C81.2928 16.0684 81.3267 16.0184 81.3694 15.9763C81.4121 15.9342 81.4627 15.9008 81.5185 15.878C81.5743 15.8553 81.6341 15.8436 81.6945 15.8437H83.6859C83.7768 15.8435 83.8657 15.8701 83.9413 15.9199C84.0169 15.9697 84.0758 16.0405 84.1105 16.1234C84.1336 16.1784 84.1454 16.2375 84.1454 16.2971L84.1397 18.0793ZM140.474 15.8437H142.457C142.579 15.8437 142.695 15.8914 142.782 15.9765C142.868 16.0615 142.916 16.1768 142.916 16.2971V28.69C142.916 28.7496 142.904 28.8086 142.881 28.8636C142.858 28.9186 142.824 28.9686 142.782 29.0108C142.739 29.0529 142.688 29.0863 142.633 29.109C142.577 29.1318 142.517 29.1435 142.457 29.1434H140.465C140.343 29.1432 140.227 29.0954 140.14 29.0104C140.054 28.9254 140.006 28.8102 140.006 28.69V27.23C138.902 28.7442 137.338 29.4913 135.289 29.4913C134.398 29.5039 133.514 29.3303 132.696 28.9818C131.878 28.6334 131.145 28.118 130.543 27.4695C129.278 26.1143 128.575 24.339 128.575 22.4964C128.575 20.6537 129.278 18.8785 130.543 17.5232C131.144 16.8747 131.878 16.3593 132.696 16.0108C133.514 15.6623 134.398 15.4887 135.289 15.5015C137.338 15.5015 138.902 16.2457 140.006 17.7343V16.3085C140.004 16.2472 140.015 16.1863 140.038 16.1293C140.061 16.0724 140.095 16.0207 140.139 15.9774C140.183 15.9339 140.235 15.8996 140.293 15.8765C140.35 15.8535 140.412 15.8422 140.474 15.8434V15.8437ZM135.754 26.7481C136.318 26.7634 136.879 26.6651 137.402 26.4591C137.926 26.2532 138.402 25.944 138.8 25.5504C139.2 25.1467 139.514 24.6677 139.722 24.1421C139.931 23.6165 140.03 23.0549 140.014 22.4907C140.032 21.9305 139.934 21.3726 139.725 20.8513C139.516 20.33 139.202 19.8564 138.8 19.4595C137.986 18.6751 136.892 18.236 135.754 18.236C134.616 18.236 133.523 18.6751 132.708 19.4595C132.307 19.8563 131.992 20.3299 131.783 20.8512C131.574 21.3725 131.476 21.9304 131.494 22.4907C131.478 23.0549 131.577 23.6165 131.786 24.1421C131.995 24.6677 132.308 25.1467 132.708 25.5504C133.106 25.9444 133.582 26.254 134.106 26.4604C134.629 26.6669 135.19 26.7657 135.754 26.7509V26.7481ZM126.127 10.5255H124.135C124.013 10.5255 123.896 10.5733 123.81 10.6583C123.724 10.7433 123.676 10.8586 123.676 10.9789V28.69C123.676 28.9404 123.881 29.1434 124.135 29.1434H126.127C126.249 29.1434 126.365 29.0956 126.452 29.0106C126.538 28.9256 126.586 28.8102 126.586 28.69V10.9789C126.586 10.8586 126.538 10.7433 126.452 10.6583C126.365 10.5733 126.249 10.5255 126.127 10.5255ZM59.9047 10.9789V24.2929L52.0172 10.8648C51.9569 10.7617 51.8701 10.676 51.7656 10.6165C51.661 10.5569 51.5425 10.5255 51.4218 10.5255H48.5806C48.4588 10.5256 48.342 10.5735 48.2559 10.6584C48.1697 10.7434 48.1212 10.8587 48.1211 10.9789V28.69C48.1211 28.8102 48.1695 28.9256 48.2557 29.0106C48.3419 29.0956 48.4588 29.1434 48.5806 29.1434H50.7628C50.8847 29.1434 51.0016 29.0956 51.0878 29.0106C51.1739 28.9256 51.2224 28.8102 51.2224 28.69V15.3931L59.0694 28.7955C59.1299 28.8986 59.2167 28.9841 59.3212 29.0437C59.4257 29.1032 59.5442 29.1347 59.6648 29.1348H62.5551C62.677 29.1348 62.7939 29.0871 62.8801 29.002C62.9662 28.917 63.0147 28.8017 63.0147 28.6814V10.9789C63.0146 10.8587 62.9661 10.7434 62.88 10.6584C62.7938 10.5734 62.677 10.5256 62.5551 10.5255H60.373C60.3119 10.5243 60.2511 10.5351 60.1943 10.5573C60.1375 10.5796 60.0858 10.6128 60.0422 10.655C59.9986 10.6973 59.964 10.7477 59.9404 10.8033C59.9168 10.8589 59.9046 10.9186 59.9047 10.9789ZM171.729 29.1434H169.356C169.234 29.143 169.115 29.1106 169.009 29.0495C168.904 28.9883 168.818 28.9007 168.758 28.7955L165.94 23.6997H163.215V28.6986C163.215 28.8188 163.166 28.9341 163.08 29.0191C162.994 29.1041 162.877 29.1519 162.755 29.152H160.761C160.7 29.152 160.641 29.1404 160.585 29.1176C160.529 29.0948 160.478 29.0614 160.436 29.0193C160.393 28.9772 160.359 28.9272 160.336 28.8722C160.313 28.8171 160.301 28.7581 160.301 28.6986V10.9789C160.301 10.9193 160.313 10.8603 160.336 10.8052C160.359 10.7502 160.393 10.7002 160.436 10.658C160.478 10.6159 160.529 10.5825 160.585 10.5598C160.641 10.537 160.7 10.5254 160.761 10.5255H162.755C162.815 10.5254 162.875 10.5371 162.931 10.5598C162.987 10.5826 163.037 10.616 163.08 10.6581C163.123 10.7002 163.157 10.7502 163.18 10.8053C163.203 10.8603 163.215 10.9193 163.215 10.9789V21.0506H165.68L168.507 16.1887C168.567 16.0846 168.654 15.9981 168.759 15.938C168.864 15.8779 168.984 15.8464 169.105 15.8465H171.524C171.571 15.8503 171.616 15.8652 171.656 15.89C171.695 15.9148 171.728 15.9487 171.751 15.9889C171.775 16.029 171.788 16.0742 171.789 16.1204C171.791 16.1666 171.781 16.2126 171.761 16.2543L168.169 22.3624L171.972 28.7356C171.993 28.7777 172.002 28.8241 172 28.8708C171.998 28.9174 171.985 28.9629 171.961 29.0031C171.937 29.0434 171.903 29.0773 171.863 29.1018C171.822 29.1263 171.777 29.1406 171.729 29.1434ZM121.681 12.6328V10.9789C121.681 10.8587 121.633 10.7434 121.547 10.6584C121.461 10.5734 121.344 10.5256 121.222 10.5255H118.202C117.688 10.5256 117.196 10.727 116.832 11.0852C116.469 11.4435 116.265 11.9294 116.265 12.436V15.8437H114.675C114.554 15.8438 114.437 15.8916 114.351 15.9766C114.264 16.0616 114.216 16.1769 114.216 16.2971V18.1591C114.216 18.2187 114.228 18.2777 114.251 18.3327C114.274 18.3878 114.308 18.4378 114.35 18.4799C114.393 18.522 114.444 18.5554 114.499 18.5782C114.555 18.6009 114.615 18.6126 114.675 18.6125H116.265V28.6928C116.265 28.7524 116.277 28.8114 116.3 28.8665C116.323 28.9216 116.357 28.9716 116.399 29.0137C116.442 29.0558 116.493 29.0892 116.549 29.112C116.604 29.1347 116.664 29.1464 116.725 29.1462H118.719C118.779 29.1463 118.839 29.1346 118.895 29.1119C118.951 29.0891 119.001 29.0557 119.044 29.0136C119.087 28.9715 119.121 28.9215 119.144 28.8664C119.167 28.8114 119.178 28.7524 119.178 28.6928V18.6097H121.225C121.285 18.6098 121.345 18.5981 121.401 18.5753C121.456 18.5526 121.507 18.5192 121.55 18.4771C121.593 18.4349 121.626 18.3849 121.649 18.3299C121.673 18.2748 121.684 18.2159 121.684 18.1563V16.2942C121.684 16.2347 121.673 16.1757 121.649 16.1206C121.626 16.0656 121.593 16.0156 121.55 15.9734C121.507 15.9313 121.456 15.8979 121.401 15.8752C121.345 15.8524 121.285 15.8407 121.225 15.8408H119.178V13.0805H121.225C121.345 13.0796 121.46 13.0322 121.546 12.9486C121.631 12.8649 121.68 12.7515 121.681 12.6328ZM94.9088 21.0563V18.6097H97.7991C97.8594 18.6098 97.9192 18.5981 97.975 18.5753C98.0308 18.5526 98.0815 18.5192 98.1242 18.4771C98.1669 18.4349 98.2007 18.3849 98.2238 18.3299C98.2469 18.2748 98.2587 18.2159 98.2586 18.1563V16.2971C98.2587 16.2375 98.2469 16.1785 98.2238 16.1235C98.2007 16.0684 98.1669 16.0184 98.1242 15.9763C98.0815 15.9342 98.0308 15.9008 97.975 15.878C97.9192 15.8553 97.8594 15.8436 97.7991 15.8437H94.9088V10.9789C94.9087 10.8587 94.8603 10.7434 94.7741 10.6584C94.688 10.5734 94.5711 10.5256 94.4493 10.5255H92.455C92.3946 10.5254 92.3348 10.5371 92.279 10.5598C92.2232 10.5826 92.1725 10.616 92.1298 10.6581C92.0872 10.7002 92.0533 10.7502 92.0302 10.8053C92.0072 10.8603 91.9953 10.9193 91.9954 10.9789V15.8437H89.9722C89.8504 15.8438 89.7336 15.8916 89.6474 15.9766C89.5613 16.0616 89.5128 16.1769 89.5127 16.2971V18.1563C89.5126 18.2159 89.5244 18.2749 89.5474 18.3299C89.5705 18.385 89.6043 18.435 89.647 18.4771C89.6897 18.5193 89.7404 18.5527 89.7962 18.5754C89.852 18.5982 89.9118 18.6098 89.9722 18.6097H91.9954V26.269C91.9957 27.0313 92.3025 27.7623 92.8486 28.3016C93.3952 28.8404 94.1362 29.1432 94.9088 29.1434H97.7991C97.8594 29.1435 97.9192 29.1318 97.975 29.109C98.0308 29.0863 98.0815 29.0529 98.1242 29.0108C98.1669 28.9686 98.2007 28.9186 98.2238 28.8636C98.2469 28.8086 98.2587 28.7496 98.2586 28.69V27.0361C98.2587 26.9765 98.2469 26.9175 98.2238 26.8625C98.2007 26.8074 98.1669 26.7574 98.1242 26.7153C98.0815 26.6732 98.0308 26.6398 97.975 26.617C97.9192 26.5943 97.8594 26.5826 97.7991 26.5827H95.9811C95.8403 26.5828 95.7008 26.5554 95.5707 26.5023C95.4405 26.4492 95.3223 26.3712 95.2227 26.273C95.1231 26.1747 95.0441 26.0581 94.9903 25.9297C94.9364 25.8013 94.9087 25.6637 94.9088 25.5248V21.0563Z" fill="#02153E"/>
<path d="M27.7581 19.2997L24.8505 20.0069L23.1915 17.1553L22.1655 15.3988L21.0093 13.4369L18.3214 8.84302H13.9744L3.10122 27.4267L5.2776 31.1338H6.93661V33.9853H4.4452C4.1928 33.9846 3.94498 33.9187 3.72643 33.7941C3.50787 33.6695 3.3262 33.4907 3.19949 33.2753L0.193611 28.1425C0.0667743 27.9257 0 27.6798 0 27.4296C0 27.1793 0.0667743 26.9334 0.193611 26.7167L11.9021 6.71004C12.0288 6.49467 12.2105 6.31579 12.429 6.19121C12.6476 6.06664 12.8954 6.00071 13.1478 6H19.1596C19.412 6.00071 19.6598 6.06664 19.8783 6.19121C20.0969 6.31579 20.2786 6.49467 20.4053 6.71004L24.3418 13.4312L24.8534 14.3123L26.0095 16.2714L26.524 17.1496L27.7581 19.2997Z" fill="url(#paint0_linear_4275_10630)"/>
<path d="M15.6396 26.5624L11.7059 33.2836C11.5795 33.4995 11.398 33.6789 11.1794 33.804C10.9608 33.929 10.7129 33.9954 10.4602 33.9965H6.93695L3.10156 27.4379L5.27794 31.1449H9.61334L13.9661 23.708L15.6396 26.5624Z" fill="url(#paint1_linear_4275_10630)"/>
<path d="M27.757 20.7173L24.7512 25.8501C24.6248 26.066 24.4433 26.2455 24.2247 26.3705C24.0061 26.4956 23.7581 26.562 23.5055 26.563H19.9909L18.8348 24.6011L18.3203 23.7228H22.6557L24.8292 20.0158L24.4159 19.3086H27.7368C27.8636 19.5216 27.9321 19.7634 27.9356 20.0103C27.9391 20.2572 27.8776 20.5008 27.757 20.7173Z" fill="url(#paint2_linear_4275_10630)"/>
<path d="M35.73 8.85458H31.3772L27.0418 16.2886L25.3828 13.4371L29.3194 6.7159C29.446 6.50049 29.6277 6.32158 29.8463 6.197C30.0648 6.07242 30.3127 6.00652 30.5651 6.00586H34.071L35.73 8.85458Z" fill="url(#paint3_linear_4275_10630)"/>
<path d="M40.8104 13.2839L29.1048 33.2876C28.9785 33.5035 28.797 33.683 28.5784 33.8081C28.3598 33.9332 28.1118 33.9995 27.8591 34.0005H21.8474C21.5947 33.9995 21.3467 33.9332 21.1281 33.8081C20.9095 33.683 20.728 33.5035 20.6017 33.2876L17.1796 27.4419L16.1507 25.6882L14.9945 23.7263L14.4801 22.848L13.2344 20.7179L16.142 20.005L17.8039 22.8566L18.3184 23.7349L18.8328 24.6131L19.9889 26.575L20.5005 27.4505L22.1624 30.302L22.6769 31.1803H27.0123L37.8884 12.5938L35.7149 8.88673H34.105L34.053 6.03516H36.5444C36.7968 6.03599 37.0446 6.10196 37.2631 6.22652C37.4816 6.35108 37.6633 6.5299 37.7901 6.7452L40.796 11.878C40.9212 12.0912 40.9884 12.3326 40.9911 12.5789C40.9935 12.8253 40.9312 13.0682 40.8104 13.2839Z" fill="url(#paint4_linear_4275_10630)"/>
<path d="M18.3294 16.2881L16.1559 19.9951L16.5721 20.708H13.2483C13.1215 20.4913 13.0547 20.2454 13.0547 19.9951C13.0547 19.7449 13.1215 19.499 13.2483 19.2822L16.2542 14.1494C16.3808 13.9331 16.5627 13.7534 16.7819 13.6283C17.001 13.5031 17.2496 13.437 17.5028 13.4365H21.0202L22.1763 15.3984L22.6908 16.2767L18.3294 16.2881Z" fill="url(#paint5_linear_4275_10630)"/>
</g>
<defs>
<linearGradient id="paint0_linear_4275_10630" x1="-0.968277" y1="26.1692" x2="23.4295" y2="11.8917" gradientUnits="userSpaceOnUse">
<stop offset="0.2" stop-color="#668CFF"/>
<stop offset="0.49" stop-color="#00AAFF"/>
<stop offset="0.8" stop-color="#00BFB5"/>
</linearGradient>
<linearGradient id="paint1_linear_4275_10630" x1="5.50627" y1="31.5527" x2="15.2292" y2="25.8615" gradientUnits="userSpaceOnUse">
<stop offset="0.5" stop-color="#668CFF"/>
<stop offset="1" stop-color="#00AAFF" stop-opacity="0"/>
</linearGradient>
<linearGradient id="paint2_linear_4275_10630" x1="19.4388" y1="25.6248" x2="28.3924" y2="20.3846" gradientUnits="userSpaceOnUse">
<stop stop-color="#00AAFF" stop-opacity="0"/>
<stop offset="0.4" stop-color="#00BFB5"/>
</linearGradient>
<linearGradient id="paint3_linear_4275_10630" x1="25.166" y1="13.1063" x2="34.889" y2="7.41795" gradientUnits="userSpaceOnUse">
<stop stop-color="#00BFB5" stop-opacity="0"/>
<stop offset="0.5" stop-color="#00CC7C"/>
</linearGradient>
<linearGradient id="paint4_linear_4275_10630" x1="17.4108" y1="27.8383" x2="41.8057" y2="13.5637" gradientUnits="userSpaceOnUse">
<stop offset="0.2" stop-color="#00AAFF"/>
<stop offset="0.51" stop-color="#00BFB5"/>
<stop offset="0.8" stop-color="#00CC7C"/>
</linearGradient>
<linearGradient id="paint5_linear_4275_10630" x1="12.5517" y1="19.5275" x2="21.5082" y2="14.2844" gradientUnits="userSpaceOnUse">
<stop offset="0.6" stop-color="#00AAFF"/>
<stop offset="1" stop-color="#00BFB5" stop-opacity="0"/>
</linearGradient>
<clipPath id="clip0_4275_10630">
<rect width="172" height="40" fill="white"/>
</clipPath>
</defs>
</svg>
