<svg width="372" height="91" viewBox="0 0 372 91" fill="none" xmlns="http://www.w3.org/2000/svg">
<g clip-path="url(#clip0_842_10078)">
<path d="M167.591 32.2878H150.131C150.131 32.2878 150.105 32.301 150.105 32.3141V66.4723C150.105 66.8337 149.811 67.1294 149.452 67.1294H141.018C140.658 67.1294 140.364 66.8337 140.364 66.4723V32.3141C140.364 32.3141 140.351 32.2878 140.338 32.2878H122.927C122.568 32.2878 122.274 31.9922 122.274 31.6308V23.9791C122.274 23.6177 122.568 23.322 122.927 23.322H167.591C167.951 23.322 168.245 23.6177 168.245 23.9791V31.6275C168.245 31.9889 167.951 32.2846 167.591 32.2846V32.2878ZM291.632 23.322H283.198C282.838 23.322 282.544 23.6177 282.544 23.9791V66.4723C282.544 66.8337 282.838 67.1294 283.198 67.1294H291.632C291.991 67.1294 292.285 66.8337 292.285 66.4723V23.9791C292.285 23.6177 291.991 23.322 291.632 23.322ZM359.791 66.065C359.98 66.2292 360.049 66.4986 359.961 66.7352C359.873 66.9717 359.647 67.1294 359.395 67.1294H346.406C346.262 67.1294 346.122 67.0769 346.011 66.9816L331.74 54.5661C331.61 54.4511 331.531 54.2835 331.531 54.1094C331.531 53.9353 331.606 53.7677 331.74 53.6527L338.233 48.0019C338.459 47.8048 338.796 47.8048 339.021 48.0019L359.784 66.0682L359.791 66.065ZM338.24 42.4496C338.354 42.5481 338.495 42.5974 338.635 42.5974C338.776 42.5974 338.916 42.5481 339.031 42.4496L359.794 24.3832C359.984 24.2189 360.052 23.9495 359.964 23.713C359.876 23.4764 359.65 23.3187 359.399 23.3187H346.409C346.266 23.3187 346.125 23.3713 346.014 23.4666L331.744 35.8821C331.613 35.9971 331.535 36.1646 331.535 36.3387C331.535 36.5129 331.61 36.6804 331.744 36.7954L338.237 42.4463L338.24 42.4496ZM335.521 45.2224C335.521 45.045 335.446 44.8808 335.312 44.7658L310.833 23.4699C310.725 23.3746 310.585 23.322 310.438 23.322H297.449C297.197 23.322 296.971 23.4797 296.883 23.7163C296.795 23.9528 296.864 24.2189 297.053 24.3865L320.983 45.206C320.983 45.206 320.996 45.2356 320.983 45.2487L297.053 66.0682C296.864 66.2325 296.795 66.5019 296.883 66.7385C296.971 66.975 297.197 67.1327 297.449 67.1327H310.438C310.582 67.1327 310.722 67.0801 310.833 66.9849L335.312 45.6857C335.443 45.5707 335.521 45.4031 335.521 45.229V45.2224ZM21.7412 37.5609C21.7412 37.5379 21.7673 37.5248 21.7837 37.5379C23.0646 38.6911 52.2163 64.9348 53.6214 66.0452C54.8632 67.0243 56.2977 67.6321 58.1669 67.3561C60.585 67.0604 63.245 64.9841 63.245 61.4884V23.9791C63.245 23.6177 62.9509 23.322 62.5914 23.322H54.1574C53.7979 23.322 53.5038 23.6177 53.5038 23.9791V52.861C53.5038 52.884 53.4777 52.8971 53.4613 52.884C52.1771 51.7308 23.0287 25.4871 21.6203 24.3766C20.3818 23.3976 18.9473 22.7898 17.0781 23.0658C14.66 23.3614 12 25.4411 12 28.9367V66.4723C12 66.8337 12.2941 67.1294 12.6536 67.1294H21.0876C21.4471 67.1294 21.7412 66.8337 21.7412 66.4723V37.5609ZM235.828 37.5609C235.828 37.5379 235.855 37.5248 235.871 37.5379C237.152 38.6911 266.304 64.9348 267.709 66.0452C268.95 67.0243 270.385 67.6321 272.254 67.3561C274.672 67.0604 277.332 64.9841 277.332 61.4884V23.9791C277.332 23.6177 277.038 23.322 276.679 23.322H268.245C267.885 23.322 267.591 23.6177 267.591 23.9791V52.861C267.591 52.884 267.565 52.8971 267.549 52.884C266.268 51.7308 237.116 25.4871 235.711 24.3766C234.469 23.3976 233.034 22.7898 231.165 23.0658C228.747 23.3614 226.087 25.4411 226.087 28.9335V66.4691C226.087 66.8305 226.381 67.1261 226.741 67.1261H235.175C235.534 67.1261 235.828 66.8305 235.828 66.4691V37.5609ZM95.5664 68.0001C100.821 67.9869 106.677 67.6879 110.271 65.5557C115.055 62.7171 117.382 58.7747 117.382 53.5082V23.9791C117.382 23.6177 117.091 23.322 116.732 23.322H108.216C107.856 23.322 107.562 23.6177 107.562 23.9791V52.93C107.477 58.6925 100.377 58.7517 95.2527 58.7517H90.5961C85.4723 58.7517 78.3747 58.6958 78.2898 52.93V23.9791C78.2898 23.6177 77.9957 23.322 77.6329 23.322H69.1172C68.7577 23.322 68.4636 23.6177 68.4636 23.9791V53.5049C68.4636 58.7714 70.7935 62.7139 75.5775 65.5524C79.1721 67.6847 85.0279 67.9869 90.2824 67.9968H95.5664V68.0001ZM222.071 66.1438C222.205 66.3344 222.221 66.584 222.117 66.7943C222.012 67.0013 221.8 67.1327 221.568 67.1327H211.154C210.944 67.1327 210.748 67.0309 210.627 66.8567L204.553 58.1242C204.553 58.1242 204.54 58.111 204.53 58.111H173.303C173.303 58.111 173.287 58.1143 173.28 58.1242L167.183 66.8666C167.068 67.0341 166.879 67.1327 166.679 67.1327H156.265C156.033 67.1327 155.821 67.0013 155.716 66.7943C155.611 66.5873 155.628 66.3344 155.762 66.1438C155.762 66.1438 182.247 28.1351 183.881 25.8649C185.511 23.5947 187.155 23 188.923 23C190.874 23 192.38 23.7327 193.831 25.6875L222.068 66.1438H222.071ZM198.21 49.1058L188.943 35.9149C188.943 35.9149 188.91 35.8985 188.897 35.9149L179.626 49.1058C179.613 49.1255 179.626 49.1485 179.649 49.1485H198.187C198.21 49.1485 198.223 49.1222 198.21 49.1058Z" fill="#131313"/>
</g>
<defs>
<clipPath id="clip0_842_10078">
<rect width="348" height="45" fill="white" transform="translate(12 23)"/>
</clipPath>
</defs>
</svg>
