<svg width="122" height="24" viewBox="0 0 122 24" fill="none" xmlns="http://www.w3.org/2000/svg">
<path d="M95.2172 19.6385C94.9348 19.6385 94.6762 19.6385 94.3915 19.6385C94.4406 19.3578 94.472 19.1197 94.5254 18.8857C94.6254 18.4483 94.7382 18.0133 94.8456 17.5773C94.9056 17.334 94.8669 17.2849 94.5817 17.2845C92.8747 17.2825 91.1677 17.2851 89.4606 17.2813C89.254 17.2809 89.1412 17.3389 89.0994 17.5336C88.9723 18.1249 88.8342 18.7145 88.6892 19.3025C88.6062 19.639 88.5964 19.638 88.2144 19.6383C87.7142 19.6388 87.2139 19.6419 86.7138 19.6357C86.3024 19.6306 86.2077 19.5219 86.2918 19.1581C86.4249 18.5823 86.5652 18.0078 86.7005 17.4324C86.9043 16.5663 87.0822 15.6947 87.3148 14.835C87.6459 13.6112 88.2602 12.5459 89.5691 11.9227C90.2875 11.5806 91.0702 11.4418 91.87 11.3655C92.7386 11.2827 93.6089 11.2441 94.4804 11.3244C95.3655 11.4059 96.2496 11.5055 96.9972 11.9918C97.6323 12.4048 97.9394 12.9733 97.9866 13.6785C98.0448 14.5497 97.8324 15.3815 97.6206 16.2194C97.3763 17.1862 97.1599 18.1588 96.9382 19.1301C96.8483 19.5239 96.712 19.6355 96.2652 19.6375C95.9238 19.6391 95.5824 19.6383 95.2172 19.6385ZM94.1921 15.9278C94.3587 15.9274 94.5254 15.9303 94.6918 15.9258C95.0352 15.9165 95.2515 15.7829 95.3291 15.4842C95.4344 15.0785 95.5492 14.669 95.5846 14.2559C95.6391 13.6197 95.3654 13.1203 94.6086 12.9312C93.5752 12.6729 92.5377 12.7069 91.5182 12.9832C90.7741 13.1849 90.2146 13.6078 89.9638 14.2818C89.7997 14.7228 89.6987 15.1831 89.5816 15.6373C89.508 15.923 89.518 15.927 89.8371 15.9272C91.2729 15.9281 92.7087 15.9277 94.1921 15.9278Z" fill="#1B223C"/>
<path d="M10.7594 18.095C9.47079 19.0612 8.07474 19.8468 6.57814 20.4982C5.40678 21.0081 4.21419 21.4706 2.96898 21.8082C2.38868 21.9655 1.7763 22.0282 1.17817 22.1324C1.1398 22.1391 1.09893 22.136 1.0593 22.135C0.646424 22.1247 0.519996 21.9997 0.671841 21.656C0.901065 21.137 1.15071 20.6209 1.44975 20.132C1.98607 19.2552 2.53538 18.3824 3.13544 17.5399C3.74799 16.68 4.42048 15.8537 5.08251 15.0227C5.33446 14.7065 5.61696 14.4071 5.91251 14.1225C6.03561 14.0039 6.21918 13.9195 6.39288 13.8629C6.67379 13.7713 6.90186 13.9115 6.84856 14.1684C6.78625 14.4689 6.6754 14.7744 6.51324 15.0427C5.99681 15.897 5.42709 16.7257 4.91731 17.583C4.62443 18.0756 4.39055 18.5984 4.16224 19.1189C3.99203 19.5069 4.15382 19.6593 4.61292 19.5793C5.30083 19.4595 5.92596 19.1878 6.50672 18.8569C7.25989 18.4278 7.99844 17.9723 8.70161 17.4804C9.47863 16.9369 10.1504 16.2877 10.6608 15.5281C10.8612 15.2299 11.0269 14.8855 11.0874 14.545C11.2309 13.7383 10.7022 13.3751 9.97073 13.1657C9.08161 12.9111 8.16074 12.8163 7.22759 12.8174C6.37176 12.8183 5.51556 12.8303 4.66029 12.8106C4.3247 12.8029 3.98896 12.7321 3.65773 12.6707C3.50027 12.6416 3.32435 12.5526 3.35813 12.3904C3.38257 12.2731 3.50307 12.1149 3.62017 12.0796C4.21856 11.8989 4.82158 11.7173 5.43833 11.6015C6.45598 11.4104 7.49175 11.297 8.53307 11.3244C9.85381 11.3591 11.1605 11.501 12.3826 11.9963C12.8923 12.2029 13.3517 12.4705 13.619 12.942C13.8915 13.4226 13.8839 13.9194 13.7059 14.4092C13.2147 15.7614 12.2583 16.8377 11.1299 17.8061C11.0159 17.9039 10.8912 17.9917 10.7594 18.095Z" fill="#1B223C"/>
<path d="M31.4181 19.6822C30.4664 19.6351 29.5681 19.4552 28.7634 19.0282C27.8027 18.5184 27.2555 17.759 27.2107 16.7375C27.1841 16.1307 27.2255 15.5346 27.4533 14.954C27.9986 13.5644 29.0341 12.5725 30.5258 11.982C32.1689 11.3315 33.898 11.2392 35.6578 11.4656C36.5568 11.5813 37.3968 11.8324 38.1025 12.3718C38.5544 12.7171 38.872 13.1431 39.022 13.655C39.4175 15.0044 39.0336 16.2328 38.1999 17.3548C37.5407 18.2419 36.598 18.8355 35.484 19.2117C34.1762 19.6533 32.8243 19.7823 31.4181 19.6822ZM33.9919 12.8128C33.5739 12.8436 33.152 12.8525 32.7387 12.9101C32.024 13.0097 31.3644 13.2634 30.8864 13.7516C30.0423 14.6138 29.7153 15.6468 29.8386 16.7843C29.9082 17.4257 30.4168 17.9207 31.1142 18.0943C31.9083 18.2918 32.7086 18.3073 33.5172 18.184C34.6029 18.0184 35.4674 17.553 35.9869 16.6652C36.3822 15.9896 36.5826 15.2605 36.549 14.4921C36.5223 13.8786 36.2159 13.4095 35.6013 13.1171C35.1119 12.8844 34.5784 12.8288 33.9919 12.8128Z" fill="#1B223C"/>
<path d="M21.3094 9.91429C20.427 9.98506 19.5616 10.0207 18.7097 10.136C17.8033 10.2586 17.5255 10.7315 17.9434 11.4621C18.2137 11.9347 18.5938 12.3626 18.9659 12.7813C19.4863 13.3669 20.0498 13.9217 20.5858 14.4964C21.0007 14.9412 21.4197 15.3844 21.8036 15.8503C22.1944 16.3246 22.5329 16.8292 22.5862 17.4426C22.6577 18.2664 22.1527 18.988 21.2343 19.3841C20.4698 19.7139 19.6507 19.8335 18.8181 19.8909C18.3053 19.9262 17.7881 19.9512 17.2749 19.9339C16.3888 19.9039 15.5027 19.8524 14.6196 19.7811C13.9733 19.729 13.3278 19.6498 12.69 19.5439C12.4132 19.4979 12.1316 19.3877 11.8983 19.2458C11.6768 19.1112 11.7431 18.8293 11.9984 18.7344C12.1706 18.6704 12.3635 18.6288 12.5496 18.6208C13.7382 18.5694 14.9284 18.5449 16.1162 18.4822C17.1732 18.4265 18.2446 18.4427 19.2605 18.1053C19.5867 17.997 19.8085 17.7393 19.7661 17.4837C19.7362 17.3035 19.6893 17.1143 19.5939 16.9562C19.235 16.362 18.7728 15.833 18.2719 15.3278C17.795 14.8467 17.3305 14.355 16.882 13.8526C16.4429 13.3607 16.0088 12.863 15.6135 12.3429C15.247 11.8607 14.967 11.3377 14.9636 10.7284C14.9601 10.1153 15.3087 9.67316 15.8253 9.33197C16.6382 8.79503 17.5923 8.63094 18.5751 8.54811C19.8762 8.43843 21.1586 8.55686 22.4296 8.7909C22.898 8.87715 23.3562 9.01294 23.8122 9.14507C23.9805 9.19385 24.0697 9.33129 24.0582 9.49983C24.0464 9.67306 23.9117 9.73931 23.7453 9.77134C23.5675 9.80553 23.3902 9.85815 23.2108 9.86532C22.5851 9.89035 21.9586 9.89921 21.3094 9.91429Z" fill="#1B223C"/>
<path d="M113.563 13.4542C113.48 13.8042 113.398 14.1364 113.321 14.4693C113.256 14.7441 113.29 14.7837 113.604 14.7841C115.136 14.7858 116.669 14.785 118.201 14.7854C118.328 14.7854 118.456 14.7821 118.582 14.7904C118.835 14.8069 118.929 14.9093 118.884 15.1257C118.835 15.3623 118.781 15.5984 118.719 15.8325C118.641 16.1236 118.559 16.1831 118.226 16.1844C117.4 16.1878 116.574 16.186 115.748 16.1862C114.899 16.1864 114.049 16.1896 113.199 16.1841C113.012 16.1829 112.917 16.2266 112.877 16.409C112.763 16.9234 112.621 17.4327 112.494 17.9448C112.421 18.2373 112.458 18.2751 112.802 18.2752C114.708 18.2756 116.613 18.2752 118.519 18.2754C118.606 18.2754 118.696 18.2687 118.781 18.2819C118.972 18.3116 119.118 18.4019 119.086 18.5934C119.035 18.9009 118.966 19.2064 118.888 19.5093C118.875 19.5594 118.783 19.6083 118.716 19.6281C118.644 19.6496 118.559 19.638 118.48 19.638C115.629 19.6385 112.779 19.6386 109.928 19.6387C109.88 19.6387 109.833 19.6387 109.785 19.638C109.48 19.633 109.472 19.6157 109.532 19.3574C109.769 18.345 109.996 17.3309 110.236 16.319C110.402 15.619 110.587 14.9227 110.754 14.2229C110.921 13.5235 111.068 12.8203 111.238 12.1217C111.305 11.8504 111.329 11.5323 111.661 11.4C111.855 11.3224 112.089 11.2946 112.306 11.2939C114.632 11.2867 116.959 11.2893 119.285 11.2893C119.619 11.2893 119.952 11.2869 120.286 11.291C120.586 11.2947 120.604 11.3226 120.539 11.5764C120.48 11.8114 120.431 12.0487 120.377 12.2848C120.318 12.5433 120.206 12.6393 119.918 12.6661C119.8 12.677 119.68 12.674 119.561 12.6741C117.758 12.6745 115.956 12.6741 114.153 12.6747C113.746 12.6748 113.735 12.6864 113.665 13.0427C113.639 13.1751 113.6 13.3054 113.563 13.4542Z" fill="#1B213C"/>
<path d="M51.168 16.2907C50.9515 16.9277 50.6978 17.5283 50.2442 18.0476C49.7943 18.5626 49.2354 18.9387 48.5555 19.1783C47.6196 19.5082 46.6419 19.6269 45.6462 19.6356C44.9644 19.6415 44.2788 19.6449 43.6009 19.5896C42.7535 19.5204 41.921 19.36 41.2258 18.8736C40.7065 18.5104 40.4504 18.0176 40.361 17.4364C40.2255 16.5557 40.4889 15.7201 40.6824 14.8755C40.9095 13.8837 41.1439 12.8932 41.3677 11.9008C41.4332 11.6102 41.5998 11.4396 41.9438 11.43C42.5466 11.4132 43.1503 11.4219 43.7535 11.4238C43.9383 11.4244 44.0057 11.5102 43.9657 11.6752C43.7941 12.3817 43.6267 13.089 43.4583 13.7961C43.2586 14.6342 43.0293 15.468 42.874 16.3127C42.807 16.6771 42.7492 17.0726 42.9692 17.4371C43.1991 17.8181 43.5705 18.0122 44.0225 18.097C44.8413 18.2506 45.6678 18.2479 46.48 18.0861C47.7034 17.8425 48.4719 17.1779 48.7114 16.0054C48.8067 15.5388 48.942 15.0788 49.0521 14.6146C49.2394 13.8251 49.422 13.0347 49.6045 12.2444C49.6445 12.0712 49.6784 11.8968 49.7107 11.7223C49.7554 11.4815 49.8233 11.423 50.1054 11.4212C50.6452 11.4179 51.1852 11.4155 51.7249 11.4224C52.1489 11.4278 52.2693 11.5508 52.1878 11.927C52.0281 12.6638 51.8492 13.3972 51.6773 14.1318C51.5101 14.846 51.3417 15.56 51.168 16.2907Z" fill="#1B223C"/>
<path d="M68.8721 12.8075C68.7531 12.8107 68.6339 12.8108 68.5151 12.8175C68.1794 12.8366 67.9572 12.9596 67.8909 13.1594C67.8073 13.4113 67.8961 13.6407 68.2007 13.8111C68.6296 14.051 69.0708 14.2747 69.518 14.4863C70.1613 14.7906 70.8242 15.0625 71.4608 15.3772C71.9847 15.6361 72.5065 15.9083 72.9872 16.2256C73.9397 16.8542 73.8623 18.0766 73.1852 18.7791C72.682 19.3011 71.9979 19.4702 71.2813 19.5465C70.716 19.6066 70.1433 19.6311 69.5736 19.6343C67.6921 19.6447 65.8105 19.6384 63.9289 19.6384C63.8337 19.6384 63.7382 19.6333 63.6432 19.6376C63.4575 19.6461 63.3778 19.5853 63.4286 19.4108C63.4905 19.1984 63.5295 18.9802 63.6001 18.7703C63.6996 18.475 63.9463 18.3186 64.2939 18.318C65.6594 18.3159 67.025 18.3206 68.3905 18.3142C68.8655 18.312 69.3431 18.3072 69.8141 18.2602C70.0384 18.2378 70.2933 18.1578 70.4584 18.027C70.799 17.7573 70.7378 17.3492 70.3382 17.1304C69.7373 16.8014 69.115 16.5039 68.5084 16.1829C67.6097 15.7072 66.7068 15.2367 65.8272 14.7339C65.5476 14.5741 65.3122 14.3359 65.0997 14.1022C64.7702 13.7399 64.799 13.3026 64.9131 12.8839C65.143 12.0407 65.8402 11.6612 66.733 11.5433C67.3114 11.4668 67.9007 11.4294 68.4856 11.4244C70.24 11.4095 71.9947 11.4189 73.7493 11.4195C73.8285 11.4195 73.9186 11.4054 73.9838 11.434C74.0464 11.4615 74.1308 11.5424 74.1232 11.5889C74.0817 11.8406 74.0255 12.0914 73.9536 12.3376C73.859 12.6616 73.5633 12.7584 73.1997 12.8059C73.0612 12.7927 72.9594 12.7734 72.8577 12.7733C71.6386 12.7711 70.4195 12.771 69.2005 12.7734C69.091 12.7736 68.9816 12.7956 68.8721 12.8075Z" fill="#1B223D"/>
<path d="M82.2547 11.4191C83.5095 11.4192 84.7405 11.4185 85.9714 11.4196C86.3551 11.4199 86.3691 11.4392 86.2696 11.7738C86.2492 11.8423 86.227 11.9112 86.2168 11.9812C86.1382 12.5219 85.8337 12.7688 85.2161 12.7702C83.7549 12.7737 82.2934 12.7609 80.8324 12.7794C80.4742 12.7839 80.1025 12.8437 79.7628 12.9465C78.9036 13.2065 78.3772 13.7871 78.0251 14.5105C77.7004 15.1778 77.544 15.8758 77.588 16.6029C77.6284 17.2714 77.8817 17.8432 78.6121 18.1403C78.8079 18.2199 79.0386 18.265 79.2539 18.2665C80.6753 18.2767 82.0969 18.2682 83.5185 18.2724C83.7789 18.2731 84.0407 18.2941 84.2994 18.3232C84.6509 18.3627 84.8193 18.5566 84.7714 18.8686C84.738 19.0858 84.684 19.3012 84.6231 19.5138C84.6097 19.5605 84.5344 19.6088 84.4764 19.6254C84.4036 19.6463 84.3194 19.6377 84.2401 19.6377C82.4929 19.6386 80.7458 19.6442 78.9986 19.6371C78.1761 19.6337 77.3745 19.5186 76.6128 19.2184C75.6833 18.8521 75.1123 18.2373 74.9158 17.3396C74.7302 16.4918 74.9095 15.6788 75.1653 14.8679C75.4362 14.0094 75.9657 13.2937 76.6912 12.6994C77.4088 12.1116 78.2774 11.7747 79.2206 11.5795C80.2148 11.3738 81.2245 11.4272 82.2547 11.4191Z" fill="#1B223C"/>
<path d="M100.364 19.6386C99.9991 19.6381 99.6578 19.6348 99.3165 19.6381C99.1424 19.6398 99.0675 19.5662 99.0805 19.4163C99.086 19.3532 99.0981 19.29 99.1133 19.2281C99.3644 18.204 99.6209 17.181 99.8672 16.156C100.127 15.076 100.377 13.9942 100.631 12.913C100.741 12.4417 100.851 11.9704 100.956 11.498C100.991 11.3389 101.081 11.2747 101.266 11.2769C101.869 11.2843 102.473 11.275 103.076 11.2817C103.489 11.2863 103.611 11.43 103.523 11.7994C103.336 12.5817 103.138 13.3621 102.953 14.1448C102.722 15.1216 102.501 16.1003 102.273 17.0777C102.2 17.3896 102.12 17.7001 102.044 18.0113C101.988 18.2396 102.017 18.2737 102.28 18.2739C103.971 18.2753 105.662 18.2744 107.353 18.2766C107.777 18.2772 107.948 18.4816 107.849 18.8574C107.843 18.8781 107.841 18.8994 107.835 18.9201C107.798 19.058 107.758 19.1953 107.723 19.3336C107.647 19.6364 107.648 19.6377 107.294 19.6378C104.992 19.6383 102.69 19.6384 100.364 19.6386Z" fill="#1B223D"/>
<path d="M16.456 6.64134C15.2203 7.82056 13.8177 8.78637 12.2666 9.57841C11.5234 9.95787 10.777 10.3387 9.93224 10.5194C9.84771 10.5375 9.75743 10.5642 9.67523 10.5536C9.55868 10.5384 9.38307 10.519 9.3486 10.453C9.29757 10.3552 9.29469 10.174 9.36523 10.1001C9.61548 9.83799 9.88477 9.58319 10.1846 9.36766C10.9798 8.79596 11.8175 8.27038 12.5957 7.68139C13.498 6.99847 14.3575 6.26808 14.9741 5.34874C15.1148 5.1389 15.2171 4.90565 15.3136 4.67531C15.5616 4.08368 15.1391 3.69105 14.5764 3.52581C13.2412 3.13375 11.8607 3.05465 10.4691 3.04626C10.0264 3.04359 9.58348 3.02928 9.14109 3.01136C9.02398 3.00661 8.89088 2.99341 8.7968 2.93967C8.67858 2.87215 8.52396 2.76481 8.51324 2.66375C8.50316 2.56884 8.63549 2.41525 8.74814 2.36564C9.03048 2.24128 9.32948 2.13147 9.63533 2.06826C11.3588 1.71209 13.1038 1.60833 14.8585 1.81817C15.6683 1.915 16.4641 2.10103 17.1445 2.54134C17.8179 2.97715 18.0806 3.65523 17.8919 4.37903C17.6885 5.15928 17.2278 5.81186 16.6596 6.41382C16.5932 6.48416 16.5315 6.55806 16.456 6.64134Z" fill="#1B223C"/>
<path d="M56.9105 13.6422C57.0166 13.3136 57.0554 13.2835 57.4094 13.2818C57.9812 13.2791 58.553 13.2793 59.1248 13.2815C59.4967 13.2829 59.5942 13.3821 59.519 13.7128C59.4133 14.178 59.2857 14.6392 59.1752 15.1036C58.9231 16.1634 58.6756 17.2241 58.4261 18.2844C58.3641 18.5481 58.312 18.814 58.2371 19.0747C58.1236 19.4694 57.8883 19.6323 57.4341 19.6366C56.8862 19.6418 56.3382 19.64 55.7902 19.6365C55.5407 19.6348 55.516 19.601 55.5689 19.3809C55.7985 18.4251 56.0327 17.4701 56.2565 16.5131C56.4788 15.563 56.6906 14.6108 56.9105 13.6422Z" fill="#1B223D"/>
<path d="M55.6149 11.4186C58.211 11.4186 60.7832 11.4185 63.3554 11.4185C63.3951 11.4185 63.4348 11.4184 63.4745 11.4186C63.9293 11.4202 63.935 11.4301 63.8151 11.8243C63.7715 11.9674 63.7415 12.1144 63.7149 12.261C63.6557 12.5883 63.4391 12.77 63.0695 12.7703C59.886 12.7722 56.7024 12.7695 53.5189 12.7746C53.2921 12.7749 53.2373 12.6964 53.2838 12.52C53.3473 12.2786 53.3865 12.0284 53.4872 11.7999C53.541 11.6777 53.6841 11.5615 53.8195 11.5006C53.9609 11.437 54.141 11.4259 54.3051 11.4221C54.7335 11.4121 55.1624 11.4186 55.6149 11.4186Z" fill="#1B223C"/>
<path d="M68.8936 12.81C68.9816 12.796 69.0911 12.774 69.2005 12.7738C70.4196 12.7713 71.6387 12.7715 72.8577 12.7736C72.9595 12.7738 73.0612 12.7931 73.1816 12.8092C71.7718 12.8139 70.3434 12.813 68.8936 12.81Z" fill="#1B223C"/>
</svg>
