<svg width="152" height="29" viewBox="0 0 152 29" fill="none" xmlns="http://www.w3.org/2000/svg">
<path d="M118.603 23.6958C118.251 23.6958 117.929 23.6958 117.575 23.6958C117.636 23.3461 117.675 23.0495 117.742 22.7581C117.866 22.2133 118.007 21.6714 118.14 21.1283C118.215 20.8252 118.167 20.7641 117.812 20.7636C115.685 20.7611 113.559 20.7644 111.433 20.7596C111.175 20.759 111.035 20.8314 110.983 21.0739C110.825 21.8104 110.653 22.5447 110.472 23.2772C110.369 23.6964 110.356 23.6952 109.881 23.6956C109.257 23.6961 108.634 23.6999 108.011 23.6922C107.499 23.6859 107.381 23.5505 107.486 23.0973C107.651 22.3801 107.826 21.6645 107.995 20.9478C108.249 19.869 108.47 18.7834 108.76 17.7124C109.172 16.1881 109.938 14.8612 111.568 14.0848C112.463 13.6587 113.438 13.4859 114.434 13.3909C115.516 13.2877 116.6 13.2397 117.686 13.3396C118.788 13.4411 119.889 13.5653 120.82 14.1709C121.611 14.6854 121.994 15.3935 122.053 16.2719C122.125 17.3572 121.861 18.3931 121.597 19.4369C121.293 20.6412 121.023 21.8526 120.747 23.0625C120.635 23.553 120.465 23.692 119.909 23.6945C119.483 23.6965 119.058 23.6955 118.603 23.6958ZM117.326 19.0737C117.534 19.0731 117.742 19.0767 117.949 19.0711C118.377 19.0595 118.646 18.8931 118.743 18.5211C118.874 18.0158 119.017 17.5057 119.061 16.9911C119.129 16.1986 118.788 15.5766 117.845 15.341C116.558 15.0194 115.266 15.0617 113.996 15.4058C113.069 15.657 112.372 16.1839 112.06 17.0235C111.855 17.5727 111.729 18.1461 111.584 18.7118C111.492 19.0676 111.504 19.0726 111.902 19.0729C113.69 19.074 115.479 19.0736 117.326 19.0737Z" fill="#1B223C"/>
<path d="M13.4021 21.7731C11.797 22.9766 10.0581 23.9551 8.1939 24.7666C6.73484 25.4017 5.24935 25.9777 3.6983 26.3983C2.97548 26.5942 2.21269 26.6723 1.46766 26.8021C1.41986 26.8105 1.36895 26.8066 1.31958 26.8053C0.805306 26.7925 0.647827 26.6368 0.836966 26.2086C1.12249 25.5622 1.43344 24.9193 1.80593 24.3104C2.47398 23.2182 3.15821 22.131 3.90565 21.0817C4.66864 20.0105 5.50631 18.9813 6.33092 17.9462C6.64477 17.5523 6.99665 17.1794 7.36478 16.8249C7.51812 16.6772 7.74677 16.5721 7.96314 16.5015C8.31304 16.3874 8.59713 16.5621 8.53074 16.8821C8.45313 17.2564 8.31505 17.6369 8.11306 17.971C7.46978 19.0352 6.76015 20.0674 6.12516 21.1353C5.76034 21.7489 5.46902 22.4001 5.18463 23.0484C4.97262 23.5318 5.17414 23.7216 5.746 23.622C6.60287 23.4728 7.38154 23.1342 8.10494 22.7221C9.04309 22.1877 9.96304 21.6203 10.8389 21.0076C11.8068 20.3305 12.6435 19.5219 13.2793 18.5757C13.5289 18.2042 13.7353 17.7753 13.8107 17.3511C13.9894 16.3463 13.3308 15.8939 12.4197 15.6331C11.3122 15.316 10.1652 15.1979 9.00286 15.1992C7.93684 15.2004 6.87034 15.2153 5.80501 15.1908C5.387 15.1812 4.96879 15.093 4.55622 15.0166C4.36008 14.9803 4.14095 14.8695 4.18303 14.6674C4.21347 14.5213 4.36357 14.3242 4.50942 14.2802C5.25478 14.0551 6.00591 13.8289 6.77414 13.6847C8.04174 13.4467 9.3319 13.3054 10.629 13.3395C12.2741 13.3828 13.9017 13.5595 15.424 14.1765C16.0588 14.4338 16.6311 14.7672 16.9641 15.3545C17.3035 15.9531 17.294 16.5719 17.0723 17.182C16.4604 18.8663 15.2691 20.207 13.8636 21.4132C13.7216 21.5351 13.5663 21.6445 13.4021 21.7731Z" fill="#1B223C"/>
<path d="M39.1348 23.7501C37.9495 23.6915 36.8305 23.4674 35.8281 22.9355C34.6314 22.3005 33.9499 21.3546 33.8941 20.0821C33.861 19.3263 33.9125 18.5838 34.1963 17.8607C34.8755 16.1298 36.1653 14.8942 38.0234 14.1587C40.0701 13.3485 42.2239 13.2334 44.4158 13.5155C45.5356 13.6596 46.5819 13.9724 47.4611 14.6442C48.0238 15.0744 48.4195 15.605 48.6064 16.2426C49.099 17.9235 48.6207 19.4535 47.5823 20.851C46.7612 21.9561 45.587 22.6955 44.1994 23.164C42.5704 23.7141 40.8864 23.8749 39.1348 23.7501ZM42.3408 15.1936C41.8201 15.2319 41.2947 15.243 40.7798 15.3147C39.8895 15.4388 39.068 15.7548 38.4726 16.3629C37.4211 17.4369 37.0139 18.7236 37.1675 20.1405C37.2541 20.9394 37.8877 21.5561 38.7563 21.7722C39.7454 22.0183 40.7424 22.0375 41.7495 21.8839C43.1019 21.6776 44.1787 21.098 44.8258 19.9921C45.3181 19.1506 45.5678 18.2425 45.526 17.2853C45.4926 16.5212 45.111 15.9368 44.3455 15.5726C43.7359 15.2827 43.0713 15.2134 42.3408 15.1936Z" fill="#1B223C"/>
<path d="M26.543 11.5832C25.4438 11.6714 24.3659 11.7158 23.3048 11.8594C22.1758 12.0121 21.8297 12.6011 22.3502 13.5112C22.6869 14.0998 23.1604 14.6329 23.6239 15.1544C24.2721 15.8838 24.974 16.5749 25.6417 17.2908C26.1584 17.8448 26.6803 18.3968 27.1585 18.9771C27.6453 19.5679 28.067 20.1965 28.1333 20.9606C28.2224 21.9866 27.5934 22.8855 26.4494 23.3789C25.4971 23.7897 24.4768 23.9387 23.4398 24.0101C22.801 24.0541 22.1568 24.0853 21.5175 24.0637C20.4138 24.0264 19.3101 23.9622 18.21 23.8734C17.4051 23.8084 16.601 23.7098 15.8065 23.5779C15.4618 23.5206 15.111 23.3833 14.8204 23.2066C14.5445 23.0389 14.627 22.6878 14.9451 22.5696C15.1596 22.4899 15.3999 22.4381 15.6316 22.4281C17.1122 22.364 18.5948 22.3336 20.0743 22.2555C21.3909 22.186 22.7254 22.2062 23.9908 21.786C24.3971 21.6511 24.6734 21.3301 24.6206 21.0117C24.5834 20.7873 24.5249 20.5516 24.4061 20.3547C23.9591 19.6145 23.3834 18.9556 22.7595 18.3263C22.1654 17.7271 21.5868 17.1146 21.0281 16.4888C20.4812 15.8761 19.9405 15.2561 19.4481 14.6083C18.9916 14.0077 18.6428 13.3562 18.6385 12.5973C18.6343 11.8336 19.0684 11.2829 19.7119 10.8579C20.7245 10.1891 21.9129 9.98467 23.1371 9.88148C24.7578 9.74488 26.3551 9.89239 27.9382 10.1839C28.5217 10.2913 29.0924 10.4605 29.6604 10.6251C29.8701 10.6858 29.9812 10.857 29.9669 11.067C29.9522 11.2827 29.7844 11.3653 29.5771 11.4052C29.3557 11.4477 29.1348 11.5133 28.9113 11.5222C28.132 11.5534 27.3516 11.5644 26.543 11.5832Z" fill="#1B223C"/>
<path d="M141.455 15.9924C141.351 16.4284 141.25 16.8422 141.153 17.2568C141.073 17.5992 141.114 17.6485 141.506 17.6489C143.414 17.6511 145.323 17.65 147.232 17.6505C147.391 17.6506 147.549 17.6465 147.707 17.6568C148.021 17.6773 148.138 17.8049 148.083 18.0744C148.022 18.3692 147.955 18.6633 147.877 18.9548C147.78 19.3175 147.677 19.3915 147.263 19.3932C146.234 19.3974 145.205 19.3952 144.177 19.3954C143.118 19.3957 142.06 19.3997 141.002 19.3928C140.768 19.3913 140.65 19.4458 140.6 19.673C140.459 20.3137 140.281 20.9481 140.123 21.586C140.032 21.9503 140.078 21.9974 140.507 21.9975C142.881 21.998 145.254 21.9975 147.628 21.9978C147.737 21.9978 147.848 21.9895 147.954 22.0059C148.192 22.0429 148.374 22.1554 148.335 22.3939C148.271 22.7769 148.185 23.1574 148.087 23.5347C148.071 23.5971 147.957 23.658 147.874 23.6827C147.784 23.7095 147.678 23.6951 147.579 23.6951C144.029 23.6956 140.478 23.6958 136.927 23.6959C136.868 23.6959 136.808 23.696 136.749 23.695C136.369 23.6888 136.359 23.6673 136.434 23.3455C136.729 22.0845 137.012 20.8212 137.311 19.5609C137.517 18.689 137.748 17.8217 137.956 16.95C138.163 16.0788 138.347 15.2029 138.559 14.3327C138.642 13.9947 138.672 13.5985 139.085 13.4338C139.328 13.337 139.619 13.3024 139.889 13.3016C142.787 13.2926 145.685 13.2958 148.583 13.2958C148.998 13.2958 149.414 13.2928 149.829 13.2979C150.203 13.3025 150.225 13.3373 150.145 13.6534C150.07 13.9461 150.01 14.2417 149.942 14.5359C149.869 14.8578 149.729 14.9774 149.37 15.0107C149.223 15.0244 149.074 15.0207 148.926 15.0207C146.681 15.0213 144.435 15.0208 142.19 15.0215C141.682 15.0217 141.669 15.036 141.582 15.4799C141.55 15.6448 141.501 15.8071 141.455 15.9924Z" fill="#1B213C"/>
<path d="M63.7353 19.5256C63.4655 20.319 63.1495 21.0672 62.5845 21.714C62.0242 22.3554 61.328 22.824 60.4811 23.1224C59.3153 23.5333 58.0975 23.6812 56.8573 23.692C56.008 23.6994 55.154 23.7036 54.3097 23.6347C53.2541 23.5485 52.2171 23.3487 51.3511 22.7429C50.7043 22.2904 50.3853 21.6767 50.2739 20.9527C50.1052 19.8557 50.4333 18.8148 50.6743 17.7627C50.9572 16.5274 51.2492 15.2936 51.5279 14.0575C51.6095 13.6955 51.817 13.483 52.2455 13.4711C52.9963 13.4501 53.7483 13.461 54.4997 13.4633C54.7299 13.464 54.8139 13.5709 54.764 13.7764C54.5503 14.6564 54.3418 15.5375 54.1319 16.4183C53.8832 17.4622 53.5976 18.5008 53.4042 19.5529C53.3207 20.0069 53.2487 20.4995 53.5227 20.9535C53.8091 21.4281 54.2718 21.6698 54.8348 21.7755C55.8547 21.9668 56.8842 21.9635 57.8958 21.762C59.4197 21.4584 60.377 20.6306 60.6753 19.1702C60.794 18.589 60.9625 18.0161 61.0997 17.4377C61.3329 16.4544 61.5604 15.4699 61.7877 14.4854C61.8375 14.2697 61.8798 14.0525 61.9201 13.8352C61.9757 13.5352 62.0603 13.4623 62.4117 13.4601C63.0841 13.456 63.7566 13.453 64.429 13.4616C64.957 13.4683 65.1071 13.6215 65.0055 14.0901C64.8065 15.0078 64.5838 15.9214 64.3696 16.8365C64.1614 17.7261 63.9516 18.6154 63.7353 19.5256Z" fill="#1B223C"/>
<path d="M85.7875 15.1869C85.6393 15.1908 85.4907 15.191 85.3428 15.1994C84.9247 15.2231 84.6479 15.3763 84.5653 15.6252C84.4611 15.9389 84.5717 16.2247 84.9512 16.437C85.4854 16.7357 86.035 17.0144 86.592 17.278C87.3933 17.6571 88.219 17.9957 89.012 18.3877C89.6646 18.7102 90.3145 19.0492 90.9133 19.4445C92.0997 20.2275 92.0033 21.7501 91.1599 22.6251C90.5332 23.2753 89.6809 23.4859 88.7884 23.581C88.0843 23.6559 87.3709 23.6864 86.6613 23.6903C84.3177 23.7034 81.9739 23.6955 79.6302 23.6955C79.5115 23.6955 79.3926 23.6891 79.2743 23.6945C79.043 23.7051 78.9437 23.6294 79.007 23.412C79.0841 23.1474 79.1326 22.8756 79.2206 22.6142C79.3445 22.2463 79.6519 22.0515 80.0848 22.0508C81.7857 22.0482 83.4867 22.054 85.1876 22.0461C85.7792 22.0433 86.3741 22.0373 86.9608 21.9788C87.2402 21.9509 87.5578 21.8512 87.7634 21.6883C88.1876 21.3523 88.1114 20.844 87.6137 20.5715C86.8652 20.1617 86.09 19.7911 85.3344 19.3913C84.215 18.7988 83.0904 18.2127 81.9947 17.5864C81.6464 17.3873 81.3533 17.0906 81.0885 16.7995C80.6781 16.3482 80.7139 15.8036 80.8561 15.2821C81.1425 14.2317 82.0109 13.7591 83.1229 13.6121C83.8434 13.5169 84.5775 13.4703 85.3061 13.4641C87.4914 13.4455 89.677 13.4573 91.8625 13.4579C91.9612 13.4579 92.0735 13.4404 92.1547 13.4761C92.2326 13.5103 92.3378 13.6111 92.3282 13.669C92.2766 13.9824 92.2066 14.2948 92.117 14.6015C91.9991 15.0052 91.6309 15.1257 91.1779 15.1848C91.0054 15.1685 90.8787 15.1444 90.7519 15.1442C89.2335 15.1416 87.715 15.1414 86.1965 15.1444C86.0601 15.1447 85.9238 15.1721 85.7875 15.1869Z" fill="#1B223D"/>
<path d="M102.457 13.4574C104.02 13.4574 105.554 13.4566 107.087 13.4579C107.565 13.4584 107.582 13.4824 107.458 13.8991C107.433 13.9845 107.405 14.0703 107.393 14.1575C107.295 14.831 106.915 15.1385 106.146 15.1403C104.326 15.1447 102.506 15.1287 100.686 15.1517C100.239 15.1573 99.7765 15.2318 99.3534 15.3599C98.2832 15.6837 97.6275 16.4069 97.1889 17.308C96.7844 18.1392 96.5897 19.0086 96.6444 19.9144C96.6947 20.747 97.0103 21.4593 97.9201 21.8293C98.164 21.9285 98.4514 21.9846 98.7194 21.9865C100.49 21.9993 102.261 21.9887 104.031 21.9938C104.356 21.9948 104.682 22.0209 105.004 22.0572C105.442 22.1064 105.652 22.3479 105.592 22.7365C105.551 23.0071 105.483 23.2754 105.407 23.5402C105.391 23.5983 105.297 23.6586 105.225 23.6792C105.134 23.7052 105.029 23.6945 104.93 23.6945C102.754 23.6956 100.578 23.7026 98.4015 23.6937C97.377 23.6895 96.3786 23.5461 95.4297 23.1722C94.2719 22.7159 93.5607 21.9502 93.3159 20.8319C93.0847 19.7759 93.3081 18.7633 93.6267 17.7532C93.9641 16.6839 94.6236 15.7924 95.5274 15.0521C96.4212 14.3199 97.5032 13.9003 98.678 13.6572C99.9164 13.4009 101.174 13.4675 102.457 13.4574Z" fill="#1B223C"/>
<path d="M125.014 23.6957C124.56 23.695 124.134 23.691 123.709 23.6951C123.492 23.6972 123.399 23.6056 123.415 23.4188C123.422 23.3402 123.437 23.2615 123.456 23.1844C123.769 21.9088 124.088 20.6346 124.395 19.3578C124.718 18.0125 125.031 16.665 125.346 15.3182C125.484 14.7312 125.621 14.1441 125.751 13.5557C125.795 13.3576 125.907 13.2775 126.138 13.2803C126.889 13.2895 127.641 13.278 128.392 13.2863C128.907 13.292 129.059 13.471 128.949 13.9311C128.716 14.9057 128.469 15.8776 128.239 16.8526C127.951 18.0694 127.676 19.2884 127.392 20.5059C127.301 20.8944 127.201 21.2811 127.107 21.6687C127.037 21.9532 127.073 21.9956 127.401 21.9958C129.507 21.9976 131.613 21.9965 133.719 21.9992C134.248 21.9999 134.461 22.2546 134.337 22.7227C134.33 22.7485 134.327 22.775 134.32 22.8008C134.274 22.9725 134.224 23.1435 134.181 23.3158C134.086 23.693 134.088 23.6946 133.647 23.6947C130.779 23.6954 127.912 23.6954 125.014 23.6957Z" fill="#1B223D"/>
<path d="M20.4977 7.50622C18.9586 8.97506 17.2115 10.1781 15.2794 11.1647C14.3537 11.6373 13.4239 12.1116 12.3717 12.3367C12.2664 12.3592 12.154 12.3926 12.0516 12.3793C11.9064 12.3604 11.6877 12.3363 11.6447 12.254C11.5812 12.1322 11.5776 11.9065 11.6654 11.8145C11.9772 11.488 12.3126 11.1706 12.686 10.9021C13.6765 10.19 14.72 9.53536 15.6893 8.80171C16.8133 7.95106 17.8839 7.04127 18.6519 5.89615C18.8272 5.63476 18.9545 5.34423 19.0748 5.05732C19.3837 4.32037 18.8574 3.83131 18.1565 3.62548C16.4934 3.13713 14.7738 3.03861 13.0405 3.02816C12.4889 3.02483 11.9373 3.00701 11.3863 2.98468C11.2404 2.97877 11.0746 2.96232 10.9574 2.89538C10.8101 2.81128 10.6176 2.67758 10.6042 2.5517C10.5916 2.43348 10.7565 2.24216 10.8968 2.18036C11.2485 2.02547 11.6209 1.88868 12.0019 1.80995C14.1486 1.36631 16.3223 1.23705 18.5079 1.49843C19.5165 1.61905 20.5078 1.85077 21.3553 2.39922C22.1941 2.94207 22.5214 3.7867 22.2863 4.68827C22.033 5.66014 21.4591 6.47301 20.7514 7.22282C20.6687 7.31043 20.5919 7.40248 20.4977 7.50622Z" fill="#1B223C"/>
<path d="M70.8882 16.2264C71.0204 15.817 71.0687 15.7795 71.5097 15.7774C72.2219 15.774 72.9342 15.7743 73.6464 15.777C74.1097 15.7787 74.231 15.9023 74.1374 16.3142C74.0057 16.8937 73.8469 17.4682 73.7092 18.0467C73.3951 19.3668 73.0869 20.688 72.7761 22.0088C72.6989 22.3371 72.634 22.6684 72.5406 22.9931C72.3993 23.4847 72.1062 23.6877 71.5404 23.6931C70.858 23.6995 70.1753 23.6973 69.4928 23.6928C69.182 23.6908 69.1512 23.6486 69.2171 23.3745C69.5031 22.1839 69.7949 20.9944 70.0737 19.8024C70.3505 18.6188 70.6143 17.4329 70.8882 16.2264Z" fill="#1B223D"/>
<path d="M69.2742 13.4567C72.5079 13.4567 75.7118 13.4566 78.9158 13.4565C78.9652 13.4565 79.0147 13.4565 79.0641 13.4567C79.6307 13.4588 79.6377 13.471 79.4884 13.962C79.4342 14.1403 79.3967 14.3234 79.3637 14.506C79.2899 14.9138 79.0201 15.1401 78.5597 15.1404C74.5943 15.1428 70.6288 15.1393 66.6634 15.1457C66.3809 15.1462 66.3127 15.0484 66.3705 14.8286C66.4496 14.5279 66.4984 14.2162 66.6238 13.9317C66.6909 13.7795 66.8691 13.6347 67.0378 13.5589C67.214 13.4797 67.4383 13.4658 67.6426 13.461C68.1763 13.4486 68.7105 13.4567 69.2742 13.4567Z" fill="#1B223C"/>
<path d="M85.8145 15.1899C85.9242 15.1725 86.0605 15.1451 86.1968 15.1448C87.7153 15.1418 89.2338 15.142 90.7523 15.1446C90.879 15.1448 91.0058 15.1689 91.1557 15.1889C89.3996 15.1948 87.6203 15.1937 85.8145 15.1899Z" fill="#1B223C"/>
</svg>
