<svg width="204" height="41" viewBox="0 0 204 41" fill="none" xmlns="http://www.w3.org/2000/svg">
<path fill-rule="evenodd" clip-rule="evenodd" d="M0 23.5593C0 31.2118 3.35421 33.9138 9.40043 33.9138H23.6305C24.7434 33.9138 25.6459 32.9999 25.6459 31.8723V9.98693C25.6459 8.85972 24.7434 7.94629 23.6305 7.94629H2.01541C0.90255 7.94629 0 8.85972 0 9.98693V23.5593Z" fill="white"/>
<path fill-rule="evenodd" clip-rule="evenodd" d="M0 7.94629V22.2879C0.640386 20.0368 1.90346 17.9983 3.79705 16.1743C6.65779 13.4211 10.0309 12.0438 13.9177 12.0438C16.3278 12.0438 18.2839 12.8498 19.7828 14.4629C21.2813 16.076 22.0324 18.1816 22.0324 20.7823C22.0324 24.5457 20.5952 27.7998 17.7234 30.5434C16.0426 32.1486 14.1786 33.2804 12.1348 33.9463H25.6788V7.94629H0ZM16.0866 30.2055C17.7551 28.1081 18.5893 25.5049 18.5893 22.3942C18.5893 19.7918 17.9374 17.6336 16.634 15.9205C15.3306 14.2074 13.6922 13.3515 11.72 13.3515C9.22016 13.3515 7.13438 14.3978 5.46016 16.4902C3.78676 18.5821 2.94965 21.1936 2.94965 24.3235C2.94965 26.9388 3.60156 29.0953 4.90455 30.798C6.20755 32.5007 7.86366 33.3512 9.8729 33.3512C12.3472 33.3512 14.4186 32.3024 16.0866 30.2055Z" fill="#C7202D"/>
<path d="M144.253 16.5583H141.197L135.057 22.6636V11.1719H132.739V31.0074H135.057V25.5381L137.049 23.7141L141.498 31.0074H144.579L138.795 21.9456L144.253 16.5583ZM124.715 18.3268C126.736 18.3268 127.798 19.4866 128.098 21.4214H130.418C130.227 18.9069 128.808 16.1445 125.069 16.1445C120.349 16.1445 118.221 19.7087 118.221 24.1833C118.221 28.3555 120.595 31.4221 124.607 31.4221C128.78 31.4221 130.171 28.1892 130.418 25.896H128.098C127.689 28.1071 126.297 29.3227 124.686 29.3227C121.385 29.3227 120.786 26.2557 120.786 23.7695C120.786 21.2005 121.741 18.3268 124.715 18.3268ZM109.407 29.2943C105.97 29.2943 105.259 25.7035 105.259 23.7695C105.259 21.8352 105.97 18.2435 109.407 18.2435C112.845 18.2435 113.554 21.8352 113.554 23.7695C113.554 25.7035 112.845 29.2943 109.407 29.2943ZM109.407 16.1445C104.849 16.1445 102.776 20.0395 102.776 23.7695C102.776 27.4979 104.849 31.3937 109.407 31.3937C113.963 31.3937 116.037 27.4979 116.037 23.7695C116.037 20.0395 113.963 16.1445 109.407 16.1445ZM99.0917 12.5258H96.6911V16.5583H94.7543V18.5752H96.6911V28.1071C96.6911 29.8477 97.2092 31.2008 99.5827 31.2008C99.8296 31.2008 100.51 31.0904 101.385 31.0074V29.1006H100.538C100.047 29.1006 99.0917 29.1006 99.0917 27.9688V18.5752H101.385V16.5583H99.0917V12.5258ZM89.3789 22.8303L86.9795 22.2219C85.1242 21.7526 84.3879 21.4764 84.3879 20.2883C84.3879 18.4935 86.4885 18.2435 87.2261 18.2435C90.2531 18.2435 90.5807 19.7633 90.6078 20.6754H92.9274C92.9274 19.9566 92.573 16.1445 87.4709 16.1445C84.66 16.1445 82.0684 17.5805 82.0684 20.7575C82.0684 22.7473 83.3784 23.7695 85.3691 24.2663L88.1529 24.9576C90.1975 25.4814 90.9906 25.8689 90.9906 27.0287C90.9906 28.6313 89.4345 29.3227 87.7158 29.3227C84.3324 29.3227 84.0048 27.4979 83.9237 26.3669H81.6042C81.6869 28.1071 82.0951 31.4221 87.7442 31.4221C90.9622 31.4221 93.3916 29.626 93.3916 26.6424C93.3916 24.6813 92.3549 23.5762 89.3789 22.8303ZM76.2 18.9619H76.1461V16.5583H73.8817V31.0074H76.2827V22.6094C76.2827 20.5088 77.7009 18.7411 79.9394 18.7411H80.8391V16.2266C80.6485 16.172 80.5119 16.1445 80.2127 16.1445C78.41 16.1445 77.1556 17.2771 76.2 18.9619ZM60.6805 22.6369C60.6805 20.3992 62.4263 18.3268 64.6376 18.3268C67.5568 18.3268 68.4836 20.3992 68.6207 22.6369H60.6805ZM64.9652 16.1445C60.2446 16.1445 58.1161 19.7087 58.1161 24.1833C58.1161 28.3555 60.4895 31.4221 64.501 31.4221C66.7921 31.4221 67.7206 30.8699 68.3754 30.4261C70.1756 29.2114 70.8304 27.167 70.9131 26.4765H68.5125C68.4297 27.555 67.0926 29.3227 64.8286 29.3227C62.0716 29.3227 60.6805 27.5816 60.6805 24.5705H71.104C71.104 19.4599 69.0845 16.1445 64.9652 16.1445ZM50.8323 28.3276H50.7784L47.0673 16.5583H44.2852L49.4951 31.0074H52.0612L57.4893 16.5583H54.8709L50.8323 28.3276ZM36.8919 29.2943C33.4542 29.2943 32.7455 25.7035 32.7455 23.7695C32.7455 21.8352 33.4542 18.2435 36.8919 18.2435C40.3293 18.2435 41.0396 21.8352 41.0396 23.7695C41.0396 25.7035 40.3293 29.2943 36.8919 29.2943ZM36.8919 16.1445C32.3352 16.1445 30.2617 20.0395 30.2617 23.7695C30.2617 27.4979 32.3352 31.3937 36.8919 31.3937C41.4487 31.3937 43.5218 27.4979 43.5218 23.7695C43.5218 20.0395 41.4487 16.1445 36.8919 16.1445Z" fill="#231F20"/>
<path d="M149.313 28.1055H146.531V31.0437H149.313V28.1055Z" fill="#231F20"/>
<path d="M161.698 17.3969C162.705 18.1878 163.31 19.5492 163.515 21.4807H161.185C161.043 20.5914 160.719 19.8522 160.214 19.2638C159.708 18.6754 158.896 18.3808 157.778 18.3808C156.251 18.3808 155.16 19.1346 154.504 20.6423C154.077 21.6203 153.864 22.8275 153.864 24.2635C153.864 25.7083 154.166 26.9238 154.769 27.911C155.373 28.8986 156.322 29.392 157.618 29.392C158.612 29.392 159.399 29.0857 159.981 28.4723C160.562 27.8593 160.963 27.0205 161.185 25.9554H163.515C163.248 27.8689 162.583 29.2682 161.518 30.1533C160.453 31.0384 159.091 31.481 157.432 31.481C155.568 31.481 154.082 30.7917 152.973 29.412C151.863 28.0327 151.309 26.3104 151.309 24.2435C151.309 21.7099 151.916 19.7376 153.132 18.327C154.348 16.9164 155.896 16.2109 157.778 16.2109C159.384 16.2109 160.691 16.6064 161.698 17.3969Z" fill="#231F20"/>
<path d="M175.458 27.6626C176.042 26.4467 176.334 25.0936 176.334 23.6039C176.334 22.2579 176.122 21.1627 175.701 20.3193C175.035 18.9912 173.885 18.327 172.253 18.327C170.805 18.327 169.753 18.8925 169.094 20.023C168.436 21.1544 168.107 22.5179 168.107 24.1152C168.107 25.6503 168.436 26.9288 169.094 27.9518C169.753 28.9749 170.796 29.4866 172.227 29.4866C173.798 29.4866 174.874 28.8786 175.458 27.6626ZM176.946 18.0695C178.206 19.3084 178.836 21.1307 178.836 23.5363C178.836 25.8616 178.28 27.7827 177.17 29.2999C176.06 30.8167 174.337 31.5756 172.002 31.5756C170.055 31.5756 168.508 30.9043 167.363 29.5624C166.217 28.2202 165.645 26.4183 165.645 24.1556C165.645 21.732 166.248 19.8022 167.455 18.3653C168.662 16.9294 170.284 16.2109 172.319 16.2109C174.144 16.2109 175.686 16.8306 176.946 18.0695Z" fill="#231F20"/>
<path d="M181.574 16.7355H183.944V18.784C184.512 18.0744 185.026 17.5577 185.488 17.2343C186.278 16.6859 187.173 16.4121 188.176 16.4121C189.312 16.4121 190.226 16.6951 190.919 17.261C191.309 17.5847 191.664 18.061 191.984 18.6894C192.516 17.9169 193.142 17.3443 193.86 16.9713C194.579 16.5984 195.387 16.4121 196.283 16.4121C198.2 16.4121 199.504 17.113 200.196 18.5144C200.569 19.2691 200.755 20.2846 200.755 21.5606V31.1696H198.267V21.1426C198.267 20.1813 198.029 19.5208 197.554 19.1616C197.079 18.802 196.501 18.6224 195.817 18.6224C194.876 18.6224 194.067 18.9411 193.388 19.5791C192.709 20.2171 192.369 21.2822 192.369 22.7732V31.1696H189.934V21.749C189.934 20.7701 189.818 20.0554 189.588 19.6062C189.223 18.932 188.545 18.5953 187.551 18.5953C186.646 18.5953 185.823 18.9503 185.082 19.66C184.341 20.3701 183.97 21.6544 183.97 23.5146V31.1696H181.574V16.7355Z" fill="#231F20"/>
<path d="M202.495 14.104C202.429 14.0781 202.336 14.0652 202.216 14.0652H202.1V14.6044H202.286C202.399 14.6044 202.486 14.5815 202.549 14.5365C202.612 14.4911 202.643 14.4173 202.643 14.3156C202.643 14.214 202.594 14.1435 202.495 14.104ZM201.618 15.597V13.7372C201.732 13.7372 201.903 13.7377 202.13 13.7385C202.357 13.7393 202.483 13.7406 202.509 13.7422C202.654 13.7527 202.775 13.7843 202.87 13.8377C203.034 13.9285 203.116 14.0769 203.116 14.2815C203.116 14.4377 203.072 14.5507 202.986 14.6198C202.9 14.6894 202.794 14.7311 202.668 14.7444C202.784 14.769 202.87 14.8049 202.929 14.852C203.037 14.9407 203.091 15.0799 203.091 15.2695V15.4354C203.091 15.4537 203.092 15.4716 203.095 15.4899C203.097 15.5083 203.101 15.5266 203.107 15.5445L203.124 15.597H202.666C202.651 15.5379 202.641 15.452 202.636 15.3399C202.63 15.2274 202.621 15.152 202.605 15.1124C202.581 15.047 202.537 15.0016 202.47 14.9757C202.435 14.9607 202.38 14.9507 202.307 14.9461L202.201 14.9395H202.1V15.597H201.618ZM201.372 13.6922C201.107 13.9652 200.976 14.289 200.976 14.664C200.976 15.052 201.11 15.382 201.378 15.6541C201.645 15.9254 201.967 16.0613 202.345 16.0613C202.721 16.0613 203.042 15.9246 203.309 15.6516C203.576 15.377 203.709 15.0478 203.709 14.664C203.709 14.2906 203.577 13.9664 203.311 13.6922C203.043 13.413 202.721 13.273 202.345 13.273C201.964 13.273 201.639 13.413 201.372 13.6922ZM203.505 15.8679C203.182 16.1834 202.796 16.3413 202.345 16.3413C201.879 16.3413 201.486 16.1796 201.167 15.8567C200.848 15.5333 200.688 15.1362 200.688 14.664C200.688 14.1735 200.86 13.766 201.205 13.4414C201.528 13.1384 201.909 12.9863 202.345 12.9863C202.802 12.9863 203.192 13.1501 203.516 13.478C203.84 13.8056 204.001 14.201 204.001 14.664C204.001 15.1403 203.836 15.5416 203.505 15.8679Z" fill="#231F20"/>
</svg>
