<svg width="136" height="21" viewBox="0 0 136 21" fill="none" xmlns="http://www.w3.org/2000/svg">
<path fill-rule="evenodd" clip-rule="evenodd" d="M38.3395 1.68539C39.992 4.70317 40.7219 8.1505 40.4366 11.5895C40.1513 15.0285 38.8635 18.304 36.737 20.9999H27.5505L30.3784 15.9336H26.6378L31.0468 8.06278H34.8088L38.3395 1.69407V1.68539ZM20.1978 20.9999H10.8314C8.66512 18.3157 7.35078 15.0305 7.06096 11.5757C6.77114 8.1209 7.51939 4.65805 9.20744 1.64198L15.2832 12.3346L21.9803 0.517578H31.8352L20.2021 20.9912L20.1978 20.9999Z" fill="#000E9C"/>
<path d="M46.082 11.4919C46.082 6.02616 48.7686 3.39966 53.1819 3.39966C57.5952 3.39966 60.2774 6.02616 60.2774 11.4919C60.2774 16.9576 57.5737 19.5537 53.1819 19.5537C48.79 19.5537 46.082 16.9055 46.082 11.4919ZM47.676 11.4919C47.676 15.9851 49.6984 18.1254 53.1819 18.1254C56.6654 18.1254 58.6835 15.9851 58.6835 11.4919C58.6835 6.99861 56.6611 4.82795 53.1819 4.82795C49.7026 4.82795 47.676 6.97256 47.676 11.4919ZM71.8762 4.04652C71.9326 3.89709 72.0325 3.76853 72.1625 3.67783C72.2926 3.58714 72.4468 3.53858 72.6047 3.53858C72.7065 3.538 72.8074 3.55796 72.9015 3.5973C72.9956 3.63663 73.081 3.69456 73.1528 3.7677C73.2246 3.84084 73.2813 3.92773 73.3196 4.0233C73.3579 4.11887 73.377 4.22122 73.3759 4.32436C73.3721 4.44176 73.349 4.55769 73.3073 4.66732L67.9857 18.8851C67.9364 19.041 67.8394 19.177 67.7089 19.2735C67.5784 19.37 67.421 19.4219 67.2594 19.4219C67.0979 19.4219 66.9405 19.37 66.8099 19.2735C66.6794 19.177 66.5825 19.041 66.5332 18.8851L61.2115 4.66732C61.1699 4.55769 61.1467 4.44176 61.1429 4.32436C61.1418 4.22122 61.1609 4.11887 61.1992 4.0233C61.2375 3.92773 61.2942 3.84084 61.366 3.7677C61.4378 3.69456 61.5233 3.63663 61.6174 3.5973C61.7115 3.55796 61.8124 3.538 61.9142 3.53858C62.0721 3.53858 62.2263 3.58714 62.3563 3.67783C62.4864 3.76853 62.5862 3.89709 62.6426 4.04652L67.2573 16.4453L71.8762 4.04652ZM76.6066 11.9955V18.6333C76.6145 18.7411 76.6004 18.8494 76.5651 18.9515C76.5299 19.0535 76.4742 19.1471 76.4016 19.2263C76.329 19.3055 76.2411 19.3687 76.1433 19.4119C76.0455 19.4552 75.9399 19.4775 75.8332 19.4775C75.7265 19.4775 75.621 19.4552 75.5232 19.4119C75.4254 19.3687 75.3374 19.3055 75.2648 19.2263C75.1922 19.1471 75.1366 19.0535 75.1013 18.9515C75.066 18.8494 75.0519 18.7411 75.0598 18.6333V4.30699C75.0519 4.19919 75.066 4.09088 75.1013 3.98885C75.1366 3.88682 75.1922 3.79327 75.2648 3.71403C75.3374 3.6348 75.4254 3.5716 75.5232 3.52838C75.621 3.48516 75.7265 3.46285 75.8332 3.46285C75.9399 3.46285 76.0455 3.48516 76.1433 3.52838C76.2411 3.5716 76.329 3.6348 76.4016 3.71403C76.4742 3.79327 76.5299 3.88682 76.5651 3.98885C76.6004 4.09088 76.6145 4.19919 76.6066 4.30699V10.5672H84.5248V4.32436C84.5169 4.21655 84.531 4.10824 84.5663 4.00622C84.6016 3.90419 84.6572 3.81063 84.7298 3.7314C84.8024 3.65217 84.8904 3.58896 84.9882 3.54574C85.086 3.50252 85.1915 3.48022 85.2982 3.48022C85.4049 3.48022 85.5105 3.50252 85.6083 3.54574C85.7061 3.58896 85.794 3.65217 85.8666 3.7314C85.9392 3.81063 85.9949 3.90419 86.0302 4.00622C86.0654 4.10824 86.0796 4.21655 86.0716 4.32436V18.6507C86.0796 18.7585 86.0654 18.8668 86.0302 18.9688C85.9949 19.0709 85.9392 19.1644 85.8666 19.2437C85.794 19.3229 85.7061 19.3861 85.6083 19.4293C85.5105 19.4725 85.4049 19.4948 85.2982 19.4948C85.1915 19.4948 85.086 19.4725 84.9882 19.4293C84.8904 19.3861 84.8024 19.3229 84.7298 19.2437C84.6572 19.1644 84.6016 19.0709 84.5663 18.9688C84.531 18.8668 84.5169 18.7585 84.5248 18.6507V11.9955H76.6066ZM93.3728 8.44861C94.0381 8.41966 94.7008 8.54819 95.3085 8.824C95.9161 9.09981 96.452 9.51531 96.8735 10.0375C96.975 10.1589 97.0311 10.3126 97.032 10.4717C97.0338 10.5599 97.0179 10.6477 96.9854 10.7296C96.9528 10.8115 96.9043 10.8859 96.8427 10.9484C96.781 11.0108 96.7076 11.06 96.6267 11.0929C96.5459 11.1259 96.4593 11.142 96.3722 11.1402C96.2662 11.1409 96.1616 11.1161 96.067 11.0678C95.9724 11.0195 95.8905 10.9491 95.828 10.8624C95.5321 10.4996 95.1548 10.2139 94.7278 10.0288C94.3007 9.84381 93.8361 9.76493 93.3728 9.79876C91.2776 9.79876 90.1636 11.1576 90.1636 13.9925C90.1636 16.8273 91.2776 18.2079 93.3728 18.2079C94.3381 18.1987 95.27 17.8487 96.008 17.2181C96.1277 17.1152 96.2794 17.0583 96.4364 17.0574C96.6114 17.0574 96.7793 17.1279 96.903 17.2533C97.0268 17.3786 97.0963 17.5487 97.0963 17.726C97.0955 17.8384 97.0683 17.9491 97.0169 18.0487C96.9654 18.1484 96.8913 18.2342 96.8006 18.299C95.8451 19.1221 94.6268 19.5649 93.3728 19.545C90.4378 19.545 88.6853 17.7694 88.6853 13.9925C88.6853 10.2155 90.4378 8.44861 93.3728 8.44861ZM100.627 3.56029V16.7449C100.627 17.6652 100.923 18.0473 101.535 18.0473C101.63 18.0397 101.724 18.052 101.814 18.0833C101.903 18.1147 101.985 18.1645 102.055 18.2295C102.124 18.2945 102.18 18.3734 102.218 18.4612C102.255 18.549 102.275 18.6439 102.275 18.7397C102.275 18.8355 102.255 18.9303 102.218 19.0181C102.18 19.1059 102.124 19.1848 102.055 19.2499C101.985 19.3149 101.903 19.3647 101.814 19.3961C101.724 19.4274 101.63 19.4397 101.535 19.4321C100.014 19.4321 99.1701 18.5074 99.1701 16.7362V3.56029C99.1756 3.3667 99.2542 3.18263 99.3897 3.04609C99.5253 2.90955 99.7074 2.83098 99.8985 2.82661C100.091 2.8266 100.276 2.90376 100.412 3.04123C100.549 3.1787 100.626 3.36531 100.627 3.56029ZM113.023 13.9794C113.023 17.7564 111.202 19.532 108.245 19.532C105.289 19.532 103.472 17.7564 103.472 13.9794C103.472 10.2025 105.314 8.44861 108.245 8.44861C111.176 8.44861 113.023 10.1982 113.023 13.9794ZM111.544 13.9794C111.544 11.0751 110.34 9.78573 108.245 9.78573C106.15 9.78573 104.95 11.0881 104.95 13.9794C104.95 16.8708 106.154 18.1949 108.245 18.1949C110.336 18.1949 111.562 16.9272 111.562 13.9794H111.544ZM116.528 9.32555V15.3383C116.528 16.836 117.003 18.1254 119.3 18.1254C121.597 18.1254 122.076 16.823 122.076 15.3383V9.32555C122.078 9.22712 122.098 9.12989 122.136 9.03944C122.175 8.94899 122.23 8.86712 122.3 8.79853C122.37 8.72994 122.452 8.67598 122.542 8.63977C122.633 8.60356 122.729 8.58581 122.826 8.58753C122.921 8.58866 123.014 8.60868 123.1 8.64644C123.187 8.68419 123.266 8.73894 123.331 8.80754C123.397 8.87613 123.449 8.95721 123.483 9.04611C123.518 9.13501 123.535 9.22998 123.533 9.32555V15.3383C123.533 17.5089 122.826 19.532 119.3 19.532C115.774 19.532 115.071 17.5263 115.071 15.3383V9.32555C115.069 9.22815 115.087 9.13139 115.123 9.04105C115.159 8.95071 115.212 8.86865 115.28 8.79976C115.348 8.73087 115.429 8.67658 115.518 8.64011C115.608 8.60365 115.703 8.58576 115.799 8.58753C115.992 8.58867 116.177 8.66679 116.313 8.80495C116.449 8.94311 116.527 9.13017 116.528 9.32555ZM133.242 9.94636V3.56029C133.242 3.36455 133.319 3.17683 133.456 3.03843C133.592 2.90002 133.778 2.82227 133.971 2.82227C134.164 2.82227 134.349 2.90002 134.486 3.03843C134.623 3.17683 134.699 3.36455 134.699 3.56029V15.0083C134.699 18.0473 132.835 19.5493 130.243 19.5493C127.308 19.5493 125.577 17.7738 125.577 13.9968C125.577 10.2199 127.218 8.46597 130.149 8.46597C130.742 8.45493 131.33 8.58277 131.867 8.83954C132.403 9.09631 132.874 9.47508 133.242 9.94636ZM133.242 11.8131C133.242 11.8131 132.386 9.78573 130.243 9.78573C128.101 9.78573 127.034 11.1446 127.034 13.9794C127.034 16.8143 128.148 18.1949 130.243 18.1949C131.991 18.1949 133.242 17.1833 133.242 14.991V11.8131Z" fill="#000E9C"/>
</svg>
