<svg width="83" height="13" viewBox="0 0 83 13" fill="none" xmlns="http://www.w3.org/2000/svg">
<g clip-path="url(#clip0_706_8150)">
<path fill-rule="evenodd" clip-rule="evenodd" d="M20.3692 0.741205C21.4433 2.65657 21.9177 4.84457 21.7322 7.02729C21.5468 9.21 20.7098 11.2889 19.3276 13H13.3567L15.1947 9.78444H12.7635L15.6292 4.78889H18.0744L20.3692 0.746715V0.741205ZM8.57768 13H2.48977C1.08179 11.2964 0.227507 9.21128 0.0391318 7.01853C-0.149243 4.82578 0.337096 2.62793 1.43428 0.71365L5.38334 7.50021L9.73623 0H16.1416L8.58047 12.9945L8.57768 13Z" fill="#000E9C"/>
<path d="M25.4014 6.96567C25.4014 3.49661 27.1475 1.82959 30.016 1.82959C32.8845 1.82959 34.6279 3.49661 34.6279 6.96567C34.6279 10.4347 32.8706 12.0825 30.016 12.0825C27.1615 12.0825 25.4014 10.4017 25.4014 6.96567ZM26.4374 6.96567C26.4374 9.81751 27.7519 11.1759 30.016 11.1759C32.2802 11.1759 33.5919 9.81751 33.5919 6.96567C33.5919 4.11382 32.2774 2.73612 30.016 2.73612C27.7547 2.73612 26.4374 4.09729 26.4374 6.96567Z" fill="#000E9C"/>
<path d="M42.1668 2.24036C42.2034 2.14552 42.2683 2.06392 42.3528 2.00636C42.4374 1.94879 42.5376 1.91797 42.6402 1.91798C42.7064 1.91761 42.772 1.93027 42.8331 1.95524C42.8943 1.98021 42.9498 2.01697 42.9965 2.0634C43.0432 2.10982 43.08 2.16497 43.1049 2.22562C43.1298 2.28628 43.1422 2.35124 43.1415 2.4167C43.1391 2.49122 43.124 2.5648 43.0969 2.63438L39.638 11.6583C39.606 11.7573 39.543 11.8436 39.4581 11.9048C39.3733 11.966 39.271 11.999 39.166 11.999C39.061 11.999 38.9587 11.966 38.8738 11.9048C38.789 11.8436 38.726 11.7573 38.6939 11.6583L35.235 2.63438C35.208 2.5648 35.1929 2.49122 35.1905 2.4167C35.1897 2.35124 35.2022 2.28628 35.2271 2.22562C35.2519 2.16497 35.2888 2.10982 35.3355 2.0634C35.3821 2.01697 35.4377 1.98021 35.4988 1.95524C35.56 1.93027 35.6256 1.91761 35.6918 1.91798C35.7944 1.91797 35.8946 1.94879 35.9791 2.00636C36.0637 2.06392 36.1285 2.14552 36.1652 2.24036L39.1646 10.1098L42.1668 2.24036Z" fill="#000E9C"/>
<path d="M45.2416 7.28522V11.4982C45.2468 11.5667 45.2376 11.6354 45.2147 11.7002C45.1917 11.7649 45.1556 11.8243 45.1084 11.8746C45.0612 11.9249 45.004 11.965 44.9405 11.9924C44.8769 12.0199 44.8083 12.034 44.7389 12.034C44.6696 12.034 44.601 12.0199 44.5374 11.9924C44.4739 11.965 44.4167 11.9249 44.3695 11.8746C44.3223 11.8243 44.2861 11.7649 44.2632 11.7002C44.2403 11.6354 44.2311 11.5667 44.2363 11.4982V2.4054C44.2311 2.33698 44.2403 2.26824 44.2632 2.20348C44.2861 2.13872 44.3223 2.07934 44.3695 2.02905C44.4167 1.97876 44.4739 1.93865 44.5374 1.91122C44.601 1.88379 44.6696 1.86963 44.7389 1.86963C44.8083 1.86963 44.8769 1.88379 44.9405 1.91122C45.004 1.93865 45.0612 1.97876 45.1084 2.02905C45.1556 2.07934 45.1917 2.13872 45.2147 2.20348C45.2376 2.26824 45.2468 2.33698 45.2416 2.4054V6.3787H50.3882V2.41642C50.3831 2.348 50.3922 2.27926 50.4152 2.2145C50.4381 2.14974 50.4743 2.09036 50.5215 2.04007C50.5686 1.98979 50.6258 1.94967 50.6894 1.92224C50.7529 1.89481 50.8216 1.88065 50.8909 1.88065C50.9603 1.88065 51.0289 1.89481 51.0924 1.92224C51.156 1.94967 51.2132 1.98979 51.2603 2.04007C51.3075 2.09036 51.3437 2.14974 51.3666 2.2145C51.3896 2.27926 51.3987 2.348 51.3936 2.41642V11.5093C51.3987 11.5777 51.3896 11.6464 51.3666 11.7112C51.3437 11.7759 51.3075 11.8353 51.2603 11.8856C51.2132 11.9359 51.156 11.976 51.0924 12.0034C51.0289 12.0309 50.9603 12.045 50.8909 12.045C50.8216 12.045 50.7529 12.0309 50.6894 12.0034C50.6258 11.976 50.5686 11.9359 50.5215 11.8856C50.4743 11.8353 50.4381 11.7759 50.4152 11.7112C50.3922 11.6464 50.3831 11.5777 50.3882 11.5093V7.28522H45.2416Z" fill="#000E9C"/>
<path d="M56.139 5.03428C56.5714 5.0159 57.0022 5.09748 57.3971 5.27253C57.7921 5.44759 58.1404 5.7113 58.4143 6.04275C58.4803 6.11978 58.5168 6.21733 58.5174 6.3183C58.5185 6.37433 58.5082 6.43001 58.487 6.482C58.4659 6.53399 58.4343 6.58122 58.3943 6.62085C58.3542 6.66048 58.3065 6.69169 58.254 6.71262C58.2014 6.73355 58.1451 6.74375 58.0885 6.74263C58.0196 6.74307 57.9517 6.72731 57.8902 6.69665C57.8287 6.66599 57.7754 6.62131 57.7348 6.56628C57.5425 6.33606 57.2973 6.15467 57.0197 6.03724C56.7421 5.9198 56.4401 5.86974 56.139 5.89121C54.7772 5.89121 54.0531 6.75365 54.0531 8.55293C54.0531 10.3522 54.7772 11.2284 56.139 11.2284C56.7664 11.2226 57.3721 11.0004 57.8518 10.6002C57.9296 10.5349 58.0282 10.4988 58.1303 10.4982C58.244 10.4982 58.3531 10.543 58.4335 10.6225C58.514 10.7021 58.5592 10.81 58.5592 10.9226C58.5586 10.9939 58.5409 11.0642 58.5075 11.1274C58.4741 11.1907 58.4259 11.2451 58.367 11.2863C57.7459 11.8087 56.9541 12.0897 56.139 12.0771C54.2313 12.0771 53.0923 10.9501 53.0923 8.55293C53.0923 6.15573 54.2313 5.03428 56.139 5.03428Z" fill="#000E9C"/>
<path d="M60.8541 1.93148V10.2996C60.8541 10.8838 61.0463 11.1263 61.4445 11.1263C61.5058 11.1215 61.5674 11.1293 61.6255 11.1492C61.6836 11.1691 61.7369 11.2007 61.7821 11.2419C61.8273 11.2832 61.8633 11.3333 61.8879 11.389C61.9126 11.4448 61.9253 11.5049 61.9253 11.5658C61.9253 11.6266 61.9126 11.6868 61.8879 11.7425C61.8633 11.7982 61.8273 11.8483 61.7821 11.8896C61.7369 11.9309 61.6836 11.9624 61.6255 11.9823C61.5674 12.0023 61.5058 12.01 61.4445 12.0052C60.4559 12.0052 59.9072 11.4183 59.9072 10.2941V1.93148C59.9108 1.80862 59.9619 1.69178 60.05 1.60513C60.1381 1.51847 60.2565 1.4686 60.3807 1.46582C60.5058 1.46582 60.6258 1.51479 60.7145 1.60204C60.8032 1.68929 60.8534 1.80773 60.8541 1.93148Z" fill="#000E9C"/>
<path d="M68.9108 8.54457C68.9108 10.9418 67.7272 12.0687 65.8056 12.0687C63.8839 12.0687 62.7031 10.9418 62.7031 8.54457C62.7031 6.14736 63.9007 5.03418 65.8056 5.03418C67.7105 5.03418 68.9108 6.14461 68.9108 8.54457ZM67.95 8.54457C67.95 6.7012 67.1674 5.88284 65.8056 5.88284C64.4437 5.88284 63.6639 6.70947 63.6639 8.54457C63.6639 10.3797 64.4465 11.2201 65.8056 11.2201C67.1646 11.2201 67.9611 10.4155 67.9611 8.54457H67.95Z" fill="#000E9C"/>
<path d="M71.1891 5.59056V9.4068C71.1891 10.3574 71.4983 11.1758 72.991 11.1758C74.4837 11.1758 74.7957 10.3492 74.7957 9.4068V5.59056C74.7964 5.52809 74.8096 5.46638 74.8345 5.40897C74.8594 5.35156 74.8956 5.2996 74.9409 5.25606C74.9862 5.21253 75.0397 5.17829 75.0984 5.1553C75.1572 5.13232 75.2199 5.12105 75.283 5.12215C75.3443 5.12286 75.4049 5.13557 75.4612 5.15953C75.5176 5.1835 75.5686 5.21825 75.6113 5.26178C75.654 5.30532 75.6876 5.35678 75.7101 5.4132C75.7326 5.46963 75.7437 5.52991 75.7425 5.59056V9.4068C75.7425 10.7845 75.283 12.0685 72.991 12.0685C70.699 12.0685 70.2423 10.7955 70.2423 9.4068V5.59056C70.2411 5.52874 70.2526 5.46733 70.276 5.40999C70.2994 5.35265 70.3342 5.30057 70.3784 5.25685C70.4226 5.21312 70.4752 5.17866 70.5332 5.15552C70.5911 5.13238 70.6532 5.12103 70.7157 5.12215C70.841 5.12287 70.961 5.17245 71.0497 5.26014C71.1383 5.34783 71.1884 5.46656 71.1891 5.59056Z" fill="#000E9C"/>
<path d="M82.0531 5.98451V1.93131C82.0531 1.80708 82.103 1.68793 82.1918 1.60009C82.2805 1.51224 82.401 1.46289 82.5265 1.46289C82.6521 1.46289 82.7725 1.51224 82.8613 1.60009C82.9501 1.68793 83 1.80708 83 1.93131V9.19731C83 11.1261 81.7885 12.0795 80.1036 12.0795C78.1959 12.0795 77.0708 10.9525 77.0708 8.5553C77.0708 6.1581 78.1374 5.04492 80.0424 5.04492C80.428 5.03791 80.81 5.11905 81.1588 5.28202C81.5076 5.44498 81.8136 5.68539 82.0531 5.98451ZM82.0531 7.16933C82.0531 7.16933 81.4961 5.88256 80.1036 5.88256C78.7111 5.88256 78.0177 6.745 78.0177 8.54428C78.0177 10.3436 78.7418 11.2198 80.1036 11.2198C81.2399 11.2198 82.0531 10.5778 82.0531 9.18629V7.16933Z" fill="#000E9C"/>
</g>
<defs>
<clipPath id="clip0_706_8150">
<rect width="83" height="13" fill="white"/>
</clipPath>
</defs>
</svg>
