<svg width="190" height="83" viewBox="0 0 370 83" fill="none" xmlns="http://www.w3.org/2000/svg">
<g clip-path="url(#clip0_566_196)">
<path d="M65.6933 83H23.5756C17.326 82.9959 11.3334 80.4991 6.91328 76.0577C2.49317 71.6163 0.00680209 65.5933 0 59.3108L0 23.684C0.00815941 17.4034 2.49442 11.3824 6.91327 6.94231C11.3321 2.50217 17.3227 0.00546442 23.5705 0L65.6882 0C71.9369 0.00683582 77.9277 2.50556 82.3457 6.94778C86.7638 11.39 89.2481 17.4128 89.2536 23.6944V59.3211C89.244 65.5991 86.7586 71.6171 82.3421 76.0559C77.9256 80.4946 71.9385 82.9918 65.6933 83ZM23.5756 16.4812C21.6685 16.4812 19.8395 17.2428 18.491 18.5985C17.1424 19.9541 16.3848 21.7927 16.3848 23.7099V59.3366C16.3848 61.2538 17.1424 63.0924 18.491 64.448C19.8395 65.8036 21.6685 66.5652 23.5756 66.5652H65.6933C67.6005 66.5652 69.4295 65.8036 70.778 64.448C72.1265 63.0924 72.8841 61.2538 72.8841 59.3366V49.0513C71.0719 49.5302 69.2056 49.7714 67.3318 49.769H55.2101C54.0848 49.8492 52.9551 49.6955 51.8914 49.3177C50.8277 48.9399 49.8528 48.3459 49.0274 47.5729C48.202 46.7998 47.5437 45.8642 47.0937 44.8243C46.6436 43.7844 46.4113 42.6625 46.4113 41.5284C46.4113 40.3943 46.6436 39.2724 47.0937 38.2325C47.5437 37.1926 48.202 36.257 49.0274 35.4839C49.8528 34.7109 50.8277 34.1169 51.8914 33.7391C52.9551 33.3613 54.0848 33.2076 55.2101 33.2878H67.3113C68.7834 33.2864 70.1949 32.6979 71.2359 31.6515C72.2768 30.605 72.8623 29.1861 72.8636 27.7063V23.6944C72.8636 21.7772 72.106 19.9386 70.7575 18.583C69.4089 17.2273 67.5799 16.4658 65.6728 16.4658L23.5756 16.4812Z" fill="#2BC4C3"/>
<path d="M89.2586 23.6895V27.6808C89.2518 33.5301 86.9373 39.1379 82.8228 43.274C78.7084 47.41 73.1299 49.7367 67.3112 49.7435H55.21C54.0847 49.8237 52.955 49.67 51.8913 49.2922C50.8276 48.9144 49.8527 48.3204 49.0273 47.5474C48.2019 46.7743 47.5436 45.8387 47.0935 44.7988C46.6435 43.7589 46.4112 42.637 46.4112 41.5029C46.4112 40.3688 46.6435 39.2469 47.0935 38.207C47.5436 37.1671 48.2019 36.2315 49.0273 35.4584C49.8527 34.6854 50.8276 34.0914 51.8913 33.7136C52.955 33.3358 54.0847 33.1822 55.21 33.2623H67.3112C68.7833 33.2609 70.1948 32.6724 71.2358 31.626C72.2767 30.5796 72.8621 29.1607 72.8635 27.6808V23.6947L89.2586 23.6895Z" fill="url(#paint0_linear_566_196)"/>
<path d="M55.2049 49.7434C59.7323 49.7434 63.4025 46.0539 63.4025 41.5027C63.4025 36.9516 59.7323 33.2621 55.2049 33.2621C50.6776 33.2621 47.0074 36.9516 47.0074 41.5027C47.0074 46.0539 50.6776 49.7434 55.2049 49.7434Z" fill="#371E56"/>
<path d="M89.2588 27.68C89.2584 32.5624 87.6495 37.3072 84.6834 41.1735C81.7174 45.0397 77.5611 47.8097 72.8638 49.0509V59.3361C72.8638 61.2533 72.1061 63.0919 70.7576 64.4476C69.4091 65.8032 67.58 66.5648 65.6729 66.5648H55.0767V83.046H65.6935C71.9413 83.0392 77.9313 80.5412 82.3492 76.1C86.7671 71.6589 89.252 65.6375 89.2588 59.3568V27.68Z" fill="url(#paint1_linear_566_196)"/>
<path d="M119.162 72.7291V18.6591H128.228V25.1648H128.741C129.306 24.0772 129.98 23.0511 130.755 22.103C131.722 20.9395 132.918 19.9901 134.268 19.3148C136.031 18.4747 137.969 18.0744 139.918 18.1479C142.812 18.1126 145.655 18.9176 148.105 20.4662C150.652 22.1383 152.667 24.5114 153.909 27.3024C155.347 30.3109 156.065 34.001 156.061 38.3726C156.061 42.6891 155.358 46.3585 153.95 49.3807C152.725 52.1789 150.736 54.5707 148.213 56.2789C145.759 57.8775 142.888 58.7078 139.964 58.6643C138.042 58.7316 136.132 58.3443 134.386 57.5336C133.03 56.8766 131.82 55.949 130.832 54.8073C130.04 53.8748 129.351 52.8585 128.777 51.7765H128.397V72.7188L119.162 72.7291ZM128.202 38.3209C128.156 40.5957 128.523 42.8599 129.286 45.0022C129.894 46.756 130.98 48.3033 132.419 49.4685C133.848 50.5571 135.604 51.1219 137.396 51.0691C139.247 51.1375 141.064 50.5531 142.532 49.4168C143.969 48.2271 145.048 46.6593 145.65 44.8886C146.386 42.7794 146.744 40.5558 146.708 38.3209C146.75 36.1101 146.402 33.9093 145.681 31.8203C145.074 30.0658 143.984 28.5206 142.537 27.3644C141.047 26.3242 139.278 25.7625 137.463 25.7533C135.648 25.744 133.874 26.2878 132.373 27.3128C130.937 28.4409 129.854 29.961 129.255 31.6912C128.509 33.8194 128.151 36.0651 128.197 38.3209H128.202Z" fill="#607081"/>
<path d="M172.975 58.7739C170.679 58.8115 168.402 58.3537 166.298 57.4315C164.383 56.592 162.755 55.2083 161.613 53.4506C160.412 51.5029 159.813 49.2404 159.893 46.95C159.82 45.0399 160.242 43.1437 161.115 41.4459C161.909 40.0165 163.058 38.8177 164.449 37.9658C165.932 37.0645 167.542 36.3942 169.225 35.978C171.037 35.5209 172.879 35.1914 174.737 34.9918C177.034 34.7543 178.894 34.5374 180.315 34.3412C181.407 34.2498 182.469 33.9372 183.437 33.4221C183.76 33.2126 184.02 32.9201 184.192 32.575C184.364 32.23 184.44 31.845 184.413 31.4601V31.3104C184.4 29.369 183.83 27.8819 182.703 26.8493C181.576 25.8166 179.938 25.2882 177.788 25.2641C175.534 25.2641 173.749 25.7581 172.43 26.746C171.207 27.6132 170.279 28.837 169.77 30.2519L161.161 29.023C161.763 26.7716 162.918 24.7084 164.52 23.0233C166.127 21.3887 168.089 20.1515 170.253 19.409C172.65 18.5605 175.174 18.1343 177.716 18.1491C179.618 18.1486 181.515 18.3721 183.366 18.8152C185.192 19.2363 186.931 19.9774 188.502 21.0044C190.07 22.0452 191.352 23.4656 192.231 25.1351C193.237 27.1591 193.721 29.4052 193.638 31.6666V57.9994H184.768V52.5831H184.46C183.15 55.0806 180.948 56.9864 178.296 57.9168C176.587 58.5195 174.785 58.8098 172.975 58.7739ZM175.368 51.9687C177.041 52.0117 178.696 51.628 180.181 50.8534C181.477 50.1708 182.565 49.1485 183.33 47.8949C184.058 46.6872 184.44 45.3005 184.434 43.8881V39.2412C183.992 39.5523 183.495 39.7766 182.97 39.9021C182.213 40.1163 181.445 40.2887 180.669 40.4184C179.816 40.5681 178.979 40.7076 178.147 40.8263L175.98 41.1309C174.717 41.2926 173.477 41.6028 172.287 42.0552C171.294 42.4177 170.41 43.0291 169.718 43.8314C168.97 44.8649 168.647 46.149 168.818 47.4159C168.988 48.6827 169.638 49.8346 170.633 50.6314C172.035 51.5596 173.69 52.0269 175.368 51.9687Z" fill="#607081"/>
<path d="M218.165 73.3902C215.266 73.4557 212.378 73.0065 209.634 72.0632C207.483 71.3185 205.525 70.1015 203.902 68.5006C202.529 67.1331 201.499 65.4571 200.897 63.6109L209.202 61.5921C209.644 62.3849 210.191 63.1129 210.83 63.7555C211.656 64.5719 212.641 65.2082 213.722 65.6246C215.192 66.1711 216.753 66.4271 218.319 66.3784C220.932 66.3784 223.096 65.7468 224.811 64.4835C226.527 63.2202 227.383 61.1807 227.38 58.365V50.9144H226.917C226.37 51.9856 225.679 52.9759 224.863 53.8575C223.852 54.9437 222.628 55.807 221.267 56.3926C219.5 57.1351 217.594 57.4872 215.679 57.4253C212.813 57.4635 209.99 56.7232 207.507 55.2825C204.989 53.7681 202.97 51.5412 201.703 48.88C200.265 46.0402 199.548 42.4775 199.551 38.192C199.554 33.9065 200.272 30.2595 201.703 27.251C202.955 24.4795 204.969 22.1255 207.507 20.4664C209.953 18.9204 212.79 18.1155 215.679 18.1481C217.628 18.077 219.566 18.4772 221.329 19.315C222.69 19.9914 223.9 20.9402 224.883 22.1032C225.67 23.0409 226.344 24.0686 226.892 25.165H227.405V18.6593H236.497V58.6232C236.497 61.9174 235.699 64.6608 234.103 66.8535C232.447 69.0894 230.184 70.7964 227.585 71.7689C224.572 72.8927 221.378 73.4425 218.165 73.3902ZM218.242 50.1554C220.014 50.2073 221.758 49.7058 223.235 48.72C224.666 47.6898 225.756 46.2505 226.363 44.5893C227.124 42.5259 227.489 40.3356 227.436 38.1352C227.479 35.9217 227.12 33.7189 226.378 31.6346C225.777 29.9193 224.699 28.4138 223.271 27.2975C221.765 26.2772 219.989 25.7373 218.174 25.7483C216.358 25.7594 214.588 26.3209 213.096 27.3594C211.669 28.5092 210.592 30.0389 209.988 31.774C209.27 33.8157 208.922 35.9702 208.961 38.1352C208.917 40.2865 209.276 42.4268 210.019 44.4448C210.63 46.1245 211.72 47.5862 213.152 48.6477C214.647 49.6799 216.43 50.2062 218.242 50.1502V50.1554Z" fill="#607081"/>
<path d="M255.49 58.7731C253.194 58.8105 250.917 58.3527 248.812 57.4306C246.898 56.5912 245.27 55.2075 244.128 53.4497C242.929 51.5011 242.33 49.2392 242.407 46.9491C242.337 45.0393 242.758 43.1436 243.63 41.4451C244.426 40.0155 245.576 38.8168 246.968 37.965C248.451 37.0618 250.062 36.3915 251.745 35.9771C253.557 35.52 255.399 35.1905 257.256 34.9909C259.547 34.7534 261.407 34.5366 262.834 34.3404C263.925 34.2491 264.985 33.9365 265.952 33.4213C266.275 33.212 266.536 32.9197 266.709 32.5747C266.881 32.2297 266.959 31.8445 266.933 31.4593V31.3095C266.933 29.3784 266.365 27.8845 265.228 26.8278C264.091 25.771 262.453 25.2426 260.313 25.2426C258.053 25.2426 256.265 25.7366 254.95 26.7245C253.727 27.5917 252.798 28.8155 252.29 30.2304L243.681 29.0015C244.289 26.7492 245.449 24.6862 247.056 23.0018C248.661 21.3685 250.622 20.1314 252.783 19.3875C255.191 18.5513 257.724 18.1391 260.271 18.1689C262.174 18.1687 264.07 18.3922 265.921 18.835C267.748 19.2565 269.486 19.9975 271.058 21.0242C272.627 22.0648 273.911 23.4852 274.792 25.1549C275.797 27.1778 276.283 29.4214 276.204 31.6813V58.0141H267.277V52.5823H266.974C265.662 55.0774 263.46 56.9824 260.811 57.916C259.102 58.5193 257.3 58.8097 255.49 58.7731ZM257.883 51.9679C259.555 52.0096 261.211 51.6259 262.696 50.8526C263.989 50.1683 265.075 49.1463 265.839 47.894C266.572 46.6879 266.956 45.3005 266.949 43.8873V39.2403C266.506 39.5515 266.01 39.7757 265.485 39.9012C264.726 40.1154 263.956 40.2878 263.179 40.4176C262.331 40.5673 261.489 40.7067 260.657 40.8255L258.494 41.1301C257.231 41.2905 255.992 41.6007 254.801 42.0543C253.808 42.4154 252.924 43.027 252.233 43.8305C251.583 44.6646 251.25 45.7044 251.293 46.7633C251.249 47.5138 251.397 48.2633 251.722 48.9402C252.048 49.6172 252.54 50.1991 253.153 50.6306C254.553 51.5583 256.206 52.0256 257.883 51.9679Z" fill="#607081"/>
<path d="M295.363 53.4144C295.011 53.4882 294.654 53.5331 294.295 53.5487C294.028 53.5745 293.781 53.59 293.535 53.59C293.162 53.6208 292.788 53.5744 292.435 53.4536C292.081 53.3328 291.756 53.1402 291.48 52.8878C291.085 52.4644 290.612 51.4679 290.612 49.1186V5.74689H285.065V50.1926C285.065 53.1098 285.835 55.3558 287.361 56.8016C288.722 58.113 290.638 58.7739 293.052 58.7739C293.35 58.7739 293.653 58.7739 293.945 58.7739C294.567 58.7548 295.187 58.6926 295.8 58.5881C296.395 58.4796 296.883 58.3764 297.253 58.2679L297.726 58.1337L296.55 53.1511L295.363 53.4144Z" fill="#607081"/>
<path d="M307.833 6.64053C307.092 5.93151 306.108 5.53607 305.085 5.53607C304.062 5.53607 303.079 5.93151 302.338 6.64053C301.969 6.98414 301.676 7.40039 301.475 7.86325C301.274 8.32612 301.171 8.82565 301.171 9.3306C301.171 9.83556 301.274 10.3351 301.475 10.798C301.676 11.2608 301.969 11.6771 302.338 12.0207C303.08 12.7274 304.063 13.1212 305.085 13.1212C306.108 13.1212 307.091 12.7274 307.833 12.0207C308.201 11.6771 308.495 11.2608 308.696 10.798C308.897 10.3351 309 9.83556 309 9.3306C309 8.82565 308.897 8.32612 308.696 7.86325C308.495 7.40039 308.201 6.98414 307.833 6.64053Z" fill="#607081"/>
<path d="M307.829 18.6613H302.241V57.9798H307.829V18.6613Z" fill="#607081"/>
</g>
<defs>
<linearGradient id="paint0_linear_566_196" x1="49.9607" y1="42.0038" x2="94.8169" y2="31.0682" gradientUnits="userSpaceOnUse">
<stop offset="0.3" stop-color="#A1DFDF"/>
<stop offset="0.44" stop-color="#75D5D5" stop-opacity="0.63"/>
<stop offset="0.61" stop-color="#40C9C8" stop-opacity="0.18"/>
<stop offset="0.69" stop-color="#2BC4C3" stop-opacity="0"/>
</linearGradient>
<linearGradient id="paint1_linear_566_196" x1="63.5311" y1="92.3503" x2="85.1391" y2="23.9911" gradientUnits="userSpaceOnUse">
<stop offset="0.28" stop-color="#2BC4C3" stop-opacity="0"/>
<stop offset="0.37" stop-color="#20A4A6" stop-opacity="0.25"/>
<stop offset="0.54" stop-color="#0F7278" stop-opacity="0.66"/>
<stop offset="0.68" stop-color="#04535C" stop-opacity="0.91"/>
<stop offset="0.78" stop-color="#004852"/>
</linearGradient>
<clipPath id="clip0_566_196">
<rect width="309" height="83" fill="white"/>
</clipPath>
</defs>
</svg>
