<svg width="112" height="48" viewBox="0 0 112 48" fill="none" xmlns="http://www.w3.org/2000/svg">
<path d="M27.3007 13.8243H34.2378C36.8112 13.8243 38.4895 13.9372 39.9441 15.5188C40.951 16.6485 41.5105 18.0042 41.5105 19.5858C41.5105 21.1674 40.951 22.523 39.8322 23.6527C38.7133 24.7824 37.2587 25.4603 33.5664 25.4603H30.2098V34.8368H27.3007V13.8243ZM30.2098 23.0879H33.5664C35.4685 23.0879 38.3776 22.9749 38.3776 19.4728C38.3776 16.1967 35.6923 16.1967 34.1259 16.1967H30.2098V23.0879ZM50.7972 34.8368C50.5734 34.159 50.5734 33.3682 50.5734 32.6904C49.2308 35.0628 47.3287 35.2887 46.0979 35.2887C42.7413 35.2887 40.951 33.3682 40.951 30.9958C40.951 29.8661 41.3986 27.9456 43.5245 26.7029C45.0909 25.7992 47.3287 25.7992 48.5594 25.7992C49.2308 25.7992 49.6783 25.7992 50.4615 25.9121C50.4615 24.1046 50.4615 23.3138 49.9021 22.636C49.3427 21.9582 48.2238 21.7322 47.4406 21.7322C44.7552 21.7322 44.5315 23.6527 44.5315 24.2176H41.8462C41.958 23.4268 42.0699 22.41 42.8531 21.5063C43.972 20.2636 45.986 19.9247 47.5524 19.9247C49.6783 19.9247 51.9161 20.6025 52.6993 22.0711C53.1469 22.9749 53.1469 23.6527 53.1469 24.3305L53.035 31.3347C53.035 31.5607 53.035 33.4812 53.2587 34.9498H50.7972V34.8368ZM48.8951 27.6067C47.7762 27.6067 43.6364 27.6067 43.6364 30.5439C43.6364 31.4477 44.1958 33.0293 46.6573 33.0293C48 33.0293 49.1189 32.4644 49.7902 31.4477C50.3497 30.431 50.4615 29.6402 50.4615 27.6067C50.014 27.7197 49.5664 27.6067 48.8951 27.6067ZM55.4965 13.8243H58.1818V34.8368H55.4965V13.8243ZM69.8182 34.8368C69.5944 34.159 69.5944 33.3682 69.5944 32.6904C68.2517 35.0628 66.3496 35.2887 65.1189 35.2887C61.7622 35.2887 59.972 33.3682 59.972 30.9958C59.972 29.8661 60.4196 27.9456 62.5455 26.7029C64.1119 25.7992 66.3496 25.7992 67.5804 25.7992C68.2517 25.7992 68.6993 25.7992 69.4825 25.9121C69.4825 24.1046 69.4825 23.3138 68.9231 22.636C68.3636 21.9582 67.2448 21.7322 66.4615 21.7322C63.7762 21.7322 63.5524 23.6527 63.5524 24.2176H60.8671C60.979 23.4268 61.0909 22.41 61.8741 21.5063C62.993 20.2636 65.007 19.9247 66.5734 19.9247C68.6993 19.9247 70.9371 20.6025 71.7203 22.0711C72.1678 22.9749 72.1678 23.6527 72.1678 24.3305L72.0559 31.3347C72.0559 31.5607 72.0559 33.4812 72.2797 34.9498H69.8182V34.8368ZM68.028 27.6067C66.9091 27.6067 62.7692 27.6067 62.7692 30.5439C62.7692 31.4477 63.3287 33.0293 65.7902 33.0293C67.1329 33.0293 68.2517 32.4644 68.9231 31.4477C69.4825 30.431 69.5944 29.6402 69.5944 27.6067C69.035 27.7197 68.6993 27.6067 68.028 27.6067ZM74.6294 21.9582V20.2636H77.3147V22.636C77.6503 22.0711 78.6573 20.0377 81.9021 20.0377C83.2448 20.0377 87.1608 20.4895 87.1608 25.0084V34.9498H84.3636V25.6862C84.3636 24.7824 84.2517 23.8787 83.5804 23.2008C82.9091 22.523 81.9021 22.1841 81.007 22.1841C78.993 22.1841 77.2028 23.6527 77.2028 26.59V34.9498H74.5175V21.9582H74.6294ZM88.0559 20.2636H90.6294V17.1004L93.3147 16.1967V20.1506H96.5594V22.1841H93.3147V30.8828C93.3147 31.5607 93.3147 32.8033 95.2168 32.8033C95.7762 32.8033 96.3357 32.6904 96.5594 32.6904V34.8368C96.1119 34.9498 95.3287 35.0628 94.3217 35.0628C91.7483 35.0628 90.6294 34.272 90.6294 31.8996V22.1841H88.0559V20.2636ZM98.4615 13.8243H101.706V16.8745H98.4615V13.8243ZM98.6853 20.2636H101.371V34.8368H98.6853V20.2636ZM103.944 23.2008C103.944 22.1841 103.832 21.1674 103.832 20.2636H106.517L106.629 23.0879C107.189 21.0544 108.867 20.3766 110.098 20.2636C110.881 20.1506 111.552 20.1506 112 20.1506V22.8619C111.888 22.8619 111.664 22.749 111.441 22.749C111.217 22.749 110.993 22.749 110.657 22.749C107.413 22.749 106.741 24.6695 106.741 27.1548V34.9498H104.056V23.2008H103.944ZM10.6294 11C5.03497 11 0.447552 15.6318 0.447552 21.2803C0.447552 26.9289 5.03497 31.5607 10.6294 31.5607C16.2238 31.5607 20.8112 26.9289 20.8112 21.2803C20.8112 15.6318 16.2238 11 10.6294 11ZM10.6294 28.3975C6.71329 28.3975 3.58042 25.2343 3.58042 21.2803C3.58042 17.3264 6.71329 14.1632 10.6294 14.1632C14.5455 14.1632 17.6783 17.3264 17.6783 21.2803C17.5664 25.2343 14.4336 28.3975 10.6294 28.3975ZM19.6923 30.6569L10.6294 34.6109L1.56643 30.6569L0 33.4812L10.6294 38L21.2587 33.4812L19.6923 30.6569Z" fill="black"/>
</svg>
