<svg width="106" height="40" viewBox="0 0 106 40" fill="none" xmlns="http://www.w3.org/2000/svg">
<g clip-path="url(#clip0_5125_27173)">
<path fill-rule="evenodd" clip-rule="evenodd" d="M55.7321 13.708C54.8429 12.9589 53.3252 12.5848 51.1783 12.5848H46.3359V27.5727H49.9568V22.8753H51.5787C53.5473 22.8753 54.9909 22.4414 55.9096 21.5727C56.9444 20.5995 57.4651 19.3036 57.4651 17.6858C57.4651 16.0082 56.8871 14.682 55.7321 13.708ZM51.4887 19.4839H49.9568V15.9762H51.3331C53.0072 15.9762 53.8443 16.5644 53.8443 17.7406C53.8443 18.9017 53.0585 19.4831 51.4887 19.4831V19.4839ZM63.661 12.584H59.8854V27.5719H68.0373V24.1796H63.661V12.584ZM75.4346 12.584L69.5037 27.5719H73.5687L74.346 25.393H79.4996L80.2105 27.5719H84.321L78.4321 12.584H75.4346ZM75.39 22.3588L76.9455 17.2359L78.4767 22.3588H75.3892H75.39Z" fill="#111111"/>
<mask id="mask0_5125_27173" style="mask-type:alpha" maskUnits="userSpaceOnUse" x="0" y="0" width="106" height="41">
<path d="M0 40.001H106V0.000976562H0V40.001Z" fill="white"/>
</mask>
<g mask="url(#mask0_5125_27173)">
<path fill-rule="evenodd" clip-rule="evenodd" d="M86.2074 27.572H89.9839V12.5841H86.2074V27.572ZM104.646 15.3933C104.169 14.7006 103.556 14.1121 102.845 13.6635C101.705 12.9439 100.15 12.585 98.1804 12.585H93.2051V27.572H99.025C101.128 27.572 102.816 26.8836 104.089 25.5052C105.363 24.1275 105.999 22.2991 105.999 20.0216C105.999 18.2101 105.547 16.6673 104.645 15.3933H104.646ZM98.6027 24.1789H96.9816V15.9772H98.6254C99.7805 15.9772 100.668 16.3395 101.291 17.0616C101.913 17.7837 102.224 18.8083 102.224 20.1345C102.224 22.8308 101.017 24.1789 98.6027 24.1789ZM15.6787 0.000976562L3.44079 3.21122L0.0681429 15.5374L4.28627 19.875L0 24.141L3.17411 36.5211L15.3591 39.931L19.6462 35.6642L23.8643 40.001L36.1023 36.7907L39.4741 24.4637L35.2568 20.1278L39.543 15.8618L36.3689 3.48085L24.1823 0.070911L19.8969 4.33691L15.6787 0.000976562ZM8.16873 5.58225L14.6154 3.89035L17.4345 6.78883L13.3232 10.8804L8.16873 5.58225ZM22.3206 6.82759L25.1851 3.97713L31.604 5.77352L26.3654 10.9866L22.3206 6.82759ZM3.93041 14.5254L5.70633 8.03333L10.8591 13.3315L6.74867 17.4231L3.93041 14.5246V14.5254ZM28.7874 13.4781L34.026 8.26336L35.6968 14.785L32.8331 17.6363L28.7874 13.4781ZM15.746 13.3711L19.8573 9.27951L23.9013 13.4385L19.7909 17.5301L15.746 13.3711ZM9.17237 19.9138L13.2828 15.8222L17.3293 19.9812L13.2172 24.0728L9.17237 19.9138ZM22.2146 20.0208L26.325 15.9292L30.3698 20.0882L26.2586 24.1798L22.2146 20.0208ZM3.8446 25.217L6.70997 22.3648L10.754 26.5247L5.51705 31.7369L3.8446 25.217ZM15.64 26.5634L19.7513 22.4719L23.7962 26.6308L19.6857 30.7224L15.64 26.5634ZM28.6814 26.6713L32.7927 22.5797L35.6118 25.4774L33.8367 31.9695L28.6814 26.6713ZM7.93906 34.2293L13.1768 29.0145L17.2233 33.1735L14.358 36.0257L7.93906 34.2284V34.2293ZM22.1086 33.2131L26.219 29.1215L31.3726 34.4205L24.9268 36.1116L22.1086 33.2131Z" fill="#111111"/>
</g>
</g>
<defs>
<clipPath id="clip0_5125_27173">
<rect width="106" height="40" fill="white" transform="translate(0 0.000976562)"/>
</clipPath>
</defs>
</svg>
