<svg width="191" height="40" viewBox="0 0 191 40" fill="none" xmlns="http://www.w3.org/2000/svg">
<path fill-rule="evenodd" clip-rule="evenodd" d="M24.8607 14.6701C22.8255 10.1482 18.2804 7 13 7C5.8203 7 0 12.8203 0 20C0 23.5257 1.40356 26.7236 3.68241 29.0655L12.5234 20.4209H15.5234L5.26611 30.4503C5.93299 30.9446 6.64884 31.3767 7.40505 31.7378L24.8607 14.6701ZM12.2325 32.9777C12.4864 32.9925 12.7423 33 13 33C20.1797 33 26 27.1797 26 20C26 19.8408 25.9971 19.6823 25.9915 19.5245L12.2325 32.9777Z" fill="#1B191A"/>
<path fill-rule="evenodd" clip-rule="evenodd" d="M45.2681 29.5943V9.99805H47.4489V29.5943H45.2681ZM32.082 29.5943V11.3045H38.1153C39.099 11.3045 39.9827 11.544 40.7662 12.023C41.5585 12.502 42.1853 13.1509 42.6467 13.9696C43.1168 14.7795 43.3519 15.6853 43.3519 16.6869C43.3519 17.7059 43.1125 18.6248 42.6336 19.4435C42.1635 20.2534 41.528 20.8979 40.727 21.377C39.9348 21.8473 39.0642 22.0824 38.1153 22.0824H34.2759V29.5943H32.082ZM34.2759 19.8876H37.9194C38.5114 19.8876 39.0511 19.7439 39.5387 19.4565C40.0349 19.1604 40.4267 18.7641 40.714 18.2677C41.01 17.7625 41.158 17.1964 41.158 16.5693C41.158 15.9335 41.01 15.3674 40.714 14.871C40.4267 14.3658 40.0349 13.9696 39.5387 13.6821C39.0511 13.386 38.5114 13.238 37.9194 13.238H34.2759V19.8876ZM62.8637 16.5301H60.6698L60.7482 18.7641C60.2781 17.9977 59.6513 17.375 58.8677 16.8959C58.0929 16.4082 57.1875 16.1643 56.1515 16.1643C55.2199 16.1643 54.345 16.3429 53.5266 16.7C52.7083 17.0484 51.9857 17.5361 51.3588 18.1632C50.7407 18.7815 50.2575 19.5044 49.9093 20.3318C49.5611 21.1592 49.3869 22.0389 49.3869 22.9708C49.3869 23.9375 49.5654 24.839 49.9224 25.6751C50.2793 26.5112 50.7755 27.2515 51.4111 27.896C52.0553 28.5318 52.7953 29.0326 53.6311 29.3984C54.4669 29.7554 55.3679 29.934 56.3343 29.934C57.3181 29.934 58.1669 29.6988 58.8808 29.2285C59.6034 28.7582 60.1693 28.1442 60.5784 27.3865L60.6568 29.5943H62.8637V16.5301ZM58.6327 27.1513C58.0058 27.5868 57.2571 27.8045 56.3865 27.8045C55.5508 27.8045 54.7759 27.5999 54.062 27.1905C53.3569 26.7725 52.7823 26.2107 52.3383 25.5052C51.8943 24.7998 51.6505 24.0159 51.607 23.1537C51.5721 22.2566 51.7506 21.4423 52.1424 20.7107C52.5428 19.9791 53.0957 19.3955 53.8009 18.9601C54.506 18.5246 55.2896 18.3069 56.1515 18.3069C56.9959 18.3069 57.7359 18.5159 58.3715 18.9339C59.007 19.3433 59.512 19.9007 59.8863 20.6062C60.2607 21.3116 60.4653 22.0998 60.5001 22.9708C60.5349 23.8591 60.3869 24.6691 60.0561 25.4007C59.734 26.1323 59.2595 26.7158 58.6327 27.1513ZM76.9368 22.6442V29.5943H74.7429V22.6964C74.7429 21.8865 74.5731 21.1505 74.2336 20.4886C73.894 19.818 73.4326 19.2867 72.8493 18.8948C72.266 18.4941 71.6087 18.2938 70.8774 18.2938C70.1548 18.2938 69.5106 18.4941 68.9447 18.8948C68.3875 19.2867 67.9479 19.818 67.6258 20.4886C67.3036 21.1505 67.1426 21.8865 67.1426 22.6964V29.5943H64.9487V16.5301H67.1426V18.542C67.6127 17.8017 68.1917 17.2225 68.8794 16.8045C69.5759 16.3777 70.3507 16.1643 71.2039 16.1643C72.3357 16.1643 73.3282 16.4605 74.1813 17.0527C75.0432 17.6449 75.7136 18.4332 76.1924 19.4173C76.68 20.3928 76.9281 21.4684 76.9368 22.6442ZM81.0881 29.0064C82.0806 29.6248 83.1775 29.934 84.3789 29.934C85.6848 29.934 86.8645 29.5682 87.9179 28.8366C88.9713 28.0963 89.7592 27.147 90.2816 25.9886L88.0485 25.466C87.6567 26.1715 87.1431 26.7289 86.5075 27.1383C85.872 27.5389 85.1625 27.7392 84.3789 27.7392C83.6476 27.7305 82.9816 27.5563 82.3809 27.2166C81.7889 26.877 81.3014 26.4197 80.9183 25.8449C80.5353 25.2614 80.2915 24.5994 80.187 23.8591H90.8431C90.9214 22.7966 90.8126 21.7994 90.5166 20.8674C90.2293 19.9355 89.7897 19.1168 89.1977 18.4114C88.6144 17.7059 87.9092 17.1572 87.0821 16.7653C86.2638 16.3647 85.3627 16.1643 84.3789 16.1643C83.4822 16.1643 82.6377 16.3429 81.8455 16.7C81.0533 17.0571 80.3568 17.5535 79.7561 18.1893C79.1641 18.8164 78.6983 19.548 78.3588 20.3841C78.0192 21.2115 77.8495 22.1042 77.8495 23.0622C77.8495 24.3251 78.1411 25.4791 78.7244 26.5242C79.3164 27.5607 80.1043 28.3881 81.0881 29.0064ZM88.6361 22.1347H80.1217C80.2175 21.3857 80.4613 20.7107 80.853 20.1097C81.2535 19.5001 81.7584 19.0167 82.3679 18.6596C82.9773 18.3025 83.6476 18.124 84.3789 18.124C85.1102 18.124 85.7849 18.3069 86.4031 18.6727C87.0212 19.0385 87.5305 19.5262 87.931 20.1359C88.3314 20.7368 88.5665 21.4031 88.6361 22.1347ZM98.8717 18.7249H95.9073L95.8942 26.5943H95.8854V26.6011C95.9047 26.8092 95.9754 27.0655 96.1092 27.2641C96.2517 27.4685 96.4239 27.6076 96.6307 27.696C96.8533 27.7874 97.0971 27.8234 97.3728 27.7957L97.8095 27.7682L98.6331 29.7652L97.9249 29.9376C97.2488 30.0629 96.5801 30.0047 95.9301 29.7664L95.927 29.7652C95.2632 29.5176 94.7223 29.0936 94.3148 28.5065C93.9407 27.9676 93.7329 27.3694 93.7006 26.7224L93.7008 26.5943H93.7004L93.7134 18.7249H91.4673V16.5301H93.7134L93.7004 12.428H95.8942L95.9073 16.5301H98.8717V18.7249ZM104.02 29.4767C104.934 29.7816 105.883 29.934 106.867 29.934C108.051 29.934 109.148 29.7163 110.158 29.2808C111.168 28.8453 111.978 28.2313 112.587 27.4387C113.205 26.6462 113.514 25.7186 113.514 24.6561C113.514 23.6109 113.205 22.7313 112.587 22.0171C111.978 21.3029 111.168 20.7325 110.158 20.3057C109.148 19.8702 108.051 19.5523 106.867 19.352C106.031 19.2039 105.278 19.0341 104.608 18.8425C103.938 18.6509 103.407 18.3635 103.015 17.9803C102.632 17.5883 102.44 17.0266 102.44 16.295C102.44 15.6853 102.649 15.1497 103.067 14.6881C103.485 14.2265 104.029 13.865 104.699 13.6038C105.37 13.3425 106.092 13.2162 106.867 13.2249C107.564 13.2249 108.23 13.3251 108.865 13.5254C109.509 13.717 110.067 13.9957 110.537 14.3615C111.016 14.7186 111.342 15.1453 111.516 15.6418L113.593 14.8841C113.288 14.0567 112.787 13.3555 112.091 12.7807C111.394 12.2059 110.589 11.7704 109.675 11.4743C108.769 11.1695 107.834 11.0171 106.867 11.0171C105.701 11.0171 104.612 11.2348 103.602 11.6703C102.593 12.1057 101.779 12.7198 101.16 13.5123C100.551 14.3049 100.246 15.2324 100.246 16.295C100.246 17.4359 100.534 18.3548 101.108 19.0515C101.692 19.7483 102.479 20.2926 103.472 20.6845C104.473 21.0678 105.605 21.3639 106.867 21.5729C107.607 21.7036 108.317 21.8908 108.996 22.1347C109.675 22.3698 110.232 22.6921 110.667 23.1014C111.103 23.5021 111.32 24.0203 111.32 24.6561C111.32 25.2744 111.111 25.8144 110.693 26.276C110.276 26.7376 109.727 27.0991 109.048 27.3603C108.378 27.6129 107.651 27.7392 106.867 27.7392C106.179 27.7392 105.513 27.639 104.869 27.4387C104.225 27.2384 103.663 26.9597 103.185 26.6026C102.714 26.2368 102.392 25.8101 102.218 25.3223L100.168 26.0931C100.455 26.8857 100.938 27.5694 101.618 28.1442C102.305 28.719 103.106 29.1632 104.02 29.4767ZM124.457 26.1454L126.416 27.2036C125.824 28.031 125.071 28.6929 124.156 29.1893C123.251 29.6858 122.267 29.934 121.205 29.934C120.004 29.934 118.907 29.6248 117.914 29.0064C116.93 28.3881 116.143 27.5607 115.551 26.5242C114.967 25.4791 114.676 24.3251 114.676 23.0622C114.676 22.1042 114.845 21.2115 115.185 20.3841C115.524 19.548 115.99 18.8164 116.582 18.1893C117.183 17.5535 117.879 17.0571 118.672 16.7C119.464 16.3429 120.308 16.1643 121.205 16.1643C122.267 16.1643 123.251 16.4126 124.156 16.909C125.071 17.4054 125.824 18.0717 126.416 18.9078L124.457 19.966C124.039 19.4522 123.543 19.0559 122.968 18.7772C122.393 18.4985 121.806 18.3591 121.205 18.3591C120.395 18.3591 119.66 18.5769 118.998 19.0123C118.345 19.4391 117.827 20.0096 117.444 20.7237C117.061 21.4379 116.87 22.2174 116.87 23.0622C116.87 23.907 117.061 24.6865 117.444 25.4007C117.836 26.1062 118.358 26.6723 119.011 27.0991C119.673 27.5258 120.404 27.7392 121.205 27.7392C121.849 27.7392 122.454 27.5911 123.02 27.295C123.586 26.9989 124.065 26.6157 124.457 26.1454ZM140.52 16.5301H138.327L138.405 18.7641C137.935 17.9977 137.308 17.375 136.524 16.8959C135.75 16.4082 134.844 16.1643 133.808 16.1643C132.877 16.1643 132.002 16.3429 131.183 16.7C130.365 17.0484 129.642 17.5361 129.016 18.1632C128.397 18.7815 127.914 19.5044 127.566 20.3318C127.218 21.1592 127.044 22.0389 127.044 22.9708C127.044 23.9375 127.222 24.839 127.579 25.6751C127.936 26.5112 128.432 27.2515 129.068 27.896C129.712 28.5318 130.452 29.0326 131.288 29.3984C132.124 29.7554 133.025 29.934 133.991 29.934C134.975 29.934 135.824 29.6988 136.537 29.2285C137.26 28.7582 137.826 28.1442 138.235 27.3865L138.314 29.5943H140.52V16.5301ZM136.289 27.1513C135.663 27.5868 134.914 27.8045 134.043 27.8045C133.207 27.8045 132.433 27.5999 131.719 27.1905C131.014 26.7725 130.439 26.2107 129.995 25.5052C129.551 24.7998 129.307 24.0159 129.264 23.1537C129.229 22.2566 129.407 21.4423 129.799 20.7107C130.2 19.9791 130.752 19.3955 131.458 18.9601C132.163 18.5246 132.946 18.3069 133.808 18.3069C134.653 18.3069 135.393 18.5159 136.028 18.9339C136.664 19.3433 137.169 19.9007 137.543 20.6062C137.917 21.3116 138.122 22.0998 138.157 22.9708C138.192 23.8591 138.044 24.6691 137.713 25.4007C137.391 26.1323 136.916 26.7158 136.289 27.1513ZM143.089 29.5943V9.99805H145.269V29.5943H143.089ZM150.302 29.0064C151.295 29.6248 152.392 29.934 153.593 29.934C154.899 29.934 156.079 29.5682 157.132 28.8366C158.186 28.0963 158.974 27.147 159.496 25.9886L157.263 25.466C156.871 26.1715 156.357 26.7289 155.722 27.1383C155.086 27.5389 154.377 27.7392 153.593 27.7392C152.862 27.7305 152.196 27.5563 151.595 27.2166C151.003 26.877 150.516 26.4197 150.133 25.8449C149.75 25.2614 149.506 24.5994 149.401 23.8591H160.057C160.136 22.7966 160.027 21.7994 159.731 20.8674C159.444 19.9355 159.004 19.1168 158.412 18.4114C157.829 17.7059 157.124 17.1572 156.296 16.7653C155.478 16.3647 154.577 16.1643 153.593 16.1643C152.697 16.1643 151.852 16.3429 151.06 16.7C150.268 17.0571 149.571 17.5535 148.97 18.1893C148.378 18.8164 147.913 19.548 147.573 20.3841C147.234 21.2115 147.064 22.1042 147.064 23.0622C147.064 24.3251 147.355 25.4791 147.939 26.5242C148.531 27.5607 149.319 28.3881 150.302 29.0064ZM157.85 22.1347H149.336C149.432 21.3857 149.676 20.7107 150.067 20.1097C150.468 19.5001 150.973 19.0167 151.582 18.6596C152.192 18.3025 152.862 18.124 153.593 18.124C154.325 18.124 154.999 18.3069 155.617 18.6727C156.236 19.0385 156.745 19.5262 157.145 20.1359C157.546 20.7368 157.781 21.4031 157.85 22.1347Z" fill="#1B191A"/>
</svg>
