<?xml version="1.0" encoding="UTF-8"?>
<!-- Generator: Adobe Illustrator 27.4.1, SVG Export Plug-In . SVG Version: 6.00 Build 0)  -->
<svg xmlns="http://www.w3.org/2000/svg" xmlns:xlink="http://www.w3.org/1999/xlink" version="1.1" id="Logo_PlusServer" x="0px" y="0px" viewBox="0 0 204 35.6" style="enable-background:new 0 0 204 35.6;" xml:space="preserve">
<style type="text/css">
	.st0{fill:#FF805A;}
	.st1{fill:#00DC91;}
	.st2{fill:#FFFFFF;}
	.st3{fill:#818181;}
	.st4{fill:#009BF4;}
</style>
<g>
	<path class="st4" d="M199.1,14.9c0.6,0.7,1.2,1.6,1.4,2.5h3.4c-0.5-1.4-1.1-2.8-1.9-3.9c-0.8-1.2-1.9-2.1-3.3-2.5   c-0.9-0.3-1.8-0.3-2.6-0.3c-2.1,0-3.8,0.7-5,1.4c-0.6,0.4-1.1,0.8-1.4,1.1v-2.5l-3.2,1.1v16.5h3.2V16.6c2.9-2.6,5-3.1,6.6-3.1   C197.6,13.5,198.5,14,199.1,14.9z"></path>
	<path class="st4" d="M122.6,23c0,0.3-0.1,0.5-0.1,0.6v0c-0.1,0.2-0.2,0.3-0.4,0.5l0,0l0,0c-0.2,0.2-0.4,0.4-0.7,0.6   c-0.3,0.2-0.7,0.3-1.1,0.4c-0.5,0.1-1,0.2-1.7,0.2c-0.7,0-1.5,0.1-2.4,0.1c-1.3,0-2.3,0-3.2-0.1c-0.9,0-1.6-0.1-2.2-0.2   c-0.6-0.1-1.1-0.2-1.4-0.4c-0.4-0.2-0.6-0.4-0.9-0.6l0,0l0,0c-0.4-0.4-0.6-0.9-0.8-1.5c-0.2-0.6-0.3-1.4-0.3-2.3H126l0-0.3   c0-1-0.1-1.8-0.1-2.5c-0.1-0.7-0.2-1.3-0.3-1.9c-0.1-0.5-0.3-1-0.5-1.5c-0.2-0.4-0.5-0.8-0.8-1.2l0,0c-0.4-0.5-0.9-0.8-1.4-1.1   c-0.5-0.3-1.1-0.5-1.9-0.7c-0.7-0.2-1.6-0.3-2.6-0.3c-1-0.1-2.3-0.1-3.7-0.1c-1,0-1.9,0-2.7,0.1c-0.8,0-1.4,0.1-2,0.2   c-0.6,0.1-1.1,0.2-1.6,0.3c-0.5,0.1-0.9,0.3-1.2,0.5l0,0l0,0c0,0,0,0,0,0l0,0c-1.1,0.6-2,1.6-2.5,2.8c-0.5,1.3-0.8,2.9-0.8,5   c0,1.7,0.2,3.2,0.6,4.4c0.4,1.2,1,2.1,1.9,2.8l0,0c0,0,0,0,0,0c0,0,0,0,0,0l0,0c0.4,0.3,0.9,0.6,1.4,0.8c0.6,0.2,1.2,0.4,2,0.5   c0.8,0.1,1.7,0.2,2.8,0.3c1.1,0,2.3,0.1,3.8,0.1c1.7,0,3.2-0.1,4.4-0.3c1.2-0.2,2.2-0.5,2.9-0.9c0.8-0.4,1.3-1,1.7-1.8   c0.3-0.6,0.5-1.3,0.5-2.2H122.6z M107.7,15.4c0.2-0.5,0.6-0.9,1.1-1.2c0.5-0.3,1.2-0.5,2.2-0.7c0.9-0.1,2.1-0.2,3.5-0.2   c1.6,0,3,0.1,4,0.2c1,0.1,1.9,0.4,2.4,0.7c0.6,0.3,1,0.7,1.2,1.3c0.2,0.5,0.3,1.1,0.3,1.9h-15.2C107.4,16.6,107.5,15.9,107.7,15.4z   "></path>
	<polygon class="st4" points="157.8,10.7 150.7,30.7 147,20.2 143.7,20.2 149.1,35.6 152.4,35.6 161.1,10.7  "></polygon>
	<path class="st4" d="M141.2,14.9c0.6,0.7,1.2,1.6,1.4,2.5h3.4c-0.5-1.4-1.1-2.8-1.9-3.9c-0.8-1.2-1.9-2.1-3.3-2.5   c-0.9-0.3-1.8-0.3-2.6-0.3c-2.1,0-3.8,0.7-5,1.4c-0.6,0.4-1.1,0.8-1.4,1.1v-2.5l-3.2,1.1v16.5h3.2V16.6c2.9-2.6,5-3.1,6.6-3.1   C139.6,13.5,140.5,14,141.2,14.9z"></path>
	<path class="st4" d="M180.5,23c0,0.3-0.1,0.5-0.1,0.6l0,0c-0.1,0.2-0.2,0.3-0.4,0.5l0,0l0,0c-0.2,0.2-0.4,0.4-0.7,0.6   c-0.3,0.2-0.7,0.3-1.1,0.4c-0.5,0.1-1,0.2-1.7,0.2c-0.7,0-1.5,0.1-2.4,0.1c-1.3,0-2.3,0-3.2-0.1c-0.9,0-1.6-0.1-2.2-0.2   c-0.6-0.1-1.1-0.2-1.4-0.4c-0.4-0.2-0.6-0.4-0.9-0.6l0,0l0,0c-0.4-0.4-0.6-0.9-0.8-1.5c-0.2-0.6-0.3-1.4-0.3-2.3h18.8l0-0.3   c0-1-0.1-1.8-0.1-2.5c-0.1-0.7-0.2-1.3-0.3-1.9c-0.1-0.5-0.3-1-0.5-1.5c-0.2-0.4-0.5-0.8-0.8-1.2l0,0c-0.4-0.5-0.9-0.8-1.4-1.1   c-0.5-0.3-1.1-0.5-1.9-0.7c-0.7-0.2-1.6-0.3-2.6-0.3c-1-0.1-2.3-0.1-3.7-0.1c-1,0-1.9,0-2.7,0.1c-0.8,0-1.4,0.1-2,0.2   c-0.6,0.1-1.1,0.2-1.6,0.3c-0.5,0.1-0.9,0.3-1.2,0.5l0,0c0,0,0,0,0,0c0,0,0,0,0,0l0,0c-1.1,0.6-2,1.6-2.5,2.8   c-0.5,1.3-0.8,2.9-0.8,5c0,1.7,0.2,3.2,0.6,4.4c0.4,1.2,1,2.1,1.9,2.8l0,0c0,0,0,0,0,0c0,0,0,0,0,0l0,0c0.4,0.3,0.9,0.6,1.4,0.8   c0.6,0.2,1.2,0.4,2,0.5c0.8,0.1,1.7,0.2,2.8,0.3c1.1,0,2.3,0.1,3.8,0.1c1.7,0,3.2-0.1,4.4-0.3c1.2-0.2,2.2-0.5,2.9-0.9   c0.8-0.4,1.3-1,1.7-1.8c0.3-0.6,0.5-1.3,0.5-2.2H180.5z M165.7,15.4c0.2-0.5,0.6-0.9,1.1-1.2c0.5-0.3,1.2-0.5,2.2-0.7   c0.9-0.1,2.1-0.2,3.5-0.2c1.6,0,3,0.1,4,0.2c1,0.1,1.9,0.4,2.4,0.7c0.6,0.3,1,0.7,1.2,1.3c0.2,0.5,0.3,1.1,0.3,1.9h-15.2   C165.3,16.6,165.5,15.9,165.7,15.4z"></path>
	<path class="st4" d="M100.2,19.1c-0.9-0.8-2.4-1.2-4.3-1.3v0c-0.4,0-1,0-1.8-0.1c-0.8,0-1.5,0-2.3-0.1c-0.8,0-1.5,0-2.2,0   c-0.7,0-1.2,0-1.5,0h0l0,0c-0.3,0-0.6,0-0.8,0c-0.6,0-1.2,0-1.6-0.1c-0.6-0.1-1.1-0.2-1.5-0.3c-0.3-0.1-0.5-0.3-0.6-0.6   c-0.1-0.3-0.2-0.6-0.2-1c0-0.4,0.1-0.7,0.2-1c0.1-0.3,0.3-0.5,0.5-0.6l0,0l0,0c0.3-0.2,1-0.4,2.1-0.6c1.1-0.1,2.6-0.2,4.5-0.2   c2,0,3.5,0.1,4.6,0.2c1,0.1,1.7,0.4,2,0.7l0,0l0,0c0.2,0.2,0.3,0.3,0.3,0.6c0,0,0,0.1,0,0.3c0.3,0,3.1,0,3.4,0c0-0.1,0-0.2,0-0.3   c0-0.3-0.1-0.6-0.1-0.9c-0.1-0.3-0.1-0.5-0.3-0.7c-0.1-0.2-0.2-0.4-0.4-0.6l0,0l0,0c-0.3-0.4-0.7-0.8-1.2-1   c-0.5-0.3-1.1-0.5-1.8-0.7c-0.7-0.2-1.6-0.3-2.7-0.3c-1-0.1-2.3-0.1-3.7-0.1c-2.5,0-4.4,0.1-5.8,0.3c-1.4,0.2-2.4,0.4-3,0.9l0,0   l0,0c-1.3,0.8-1.9,2.2-1.9,4.1c0,0.9,0.1,1.6,0.3,2.2c0.2,0.6,0.6,1.1,1.1,1.5c0.5,0.4,1.2,0.7,2,0.8c0.8,0.2,1.7,0.3,2.9,0.3l0,0   c1.6,0,2.9,0,3.8,0.1c0.9,0,1.7,0,2.2,0c0.5,0,0.9,0,1.1,0c0.2,0,0.4,0,0.6,0h0h0c0.1,0,0.2,0,0.3,0c1.5,0,2.6,0.2,3.1,0.5   c0.3,0.2,0.5,0.4,0.6,0.7c0.1,0.3,0.2,0.7,0.2,1.1c0,0.8-0.2,1.3-0.6,1.6l0,0l0,0c-0.2,0.1-0.4,0.3-0.6,0.3   c-0.3,0.1-0.6,0.2-1.1,0.2c-0.5,0.1-1.1,0.1-1.9,0.1c-0.8,0-1.7,0-2.9,0c-1.9,0-3.4,0-4.5-0.1c-1.1,0-1.9-0.2-2.4-0.4   c-0.5-0.2-0.8-0.5-0.9-0.8c-0.1-0.2-0.1-0.6-0.2-1c-0.8,0-3,0-3.4,0c0,0.9,0.1,1.7,0.4,2.2c0.2,0.6,0.7,1.2,1.3,1.6l0,0   c0,0,0,0,0,0c0,0,0,0,0,0l0,0c0.3,0.3,0.8,0.5,1.3,0.6c0.5,0.2,1.1,0.3,1.8,0.4c0.7,0.1,1.6,0.2,2.7,0.2c1,0,2.3,0.1,3.7,0.1   c2.4,0,4.3-0.1,5.6-0.2c1.3-0.1,2.3-0.4,3-0.7c0.7-0.4,1.3-1,1.6-1.6c0.3-0.7,0.5-1.6,0.5-2.6C101.5,21.2,101.1,19.9,100.2,19.1z"></path>
	<path class="st4" d="M76.2,19.1c-0.9-0.8-2.4-1.2-4.3-1.3v0c-0.4,0-1,0-1.8-0.1c-0.8,0-1.5,0-2.3-0.1c-0.8,0-1.5,0-2.2,0   c-0.7,0-1.2,0-1.5,0h0l0,0c-0.3,0-0.6,0-0.8,0c-0.6,0-1.2,0-1.6-0.1c-0.6-0.1-1.1-0.2-1.5-0.3c-0.3-0.1-0.5-0.3-0.6-0.6   c-0.1-0.3-0.2-0.6-0.2-1c0-0.4,0.1-0.7,0.2-1c0.1-0.3,0.3-0.5,0.5-0.6l0,0l0,0c0.3-0.2,1-0.4,2.1-0.6c1.1-0.1,2.6-0.2,4.5-0.2   c2,0,3.5,0.1,4.6,0.2c1,0.1,1.7,0.4,2,0.7l0,0l0,0c0.2,0.2,0.3,0.3,0.3,0.6c0,0,0,0.1,0,0.3c0.3,0,3.1,0,3.4,0c0-0.1,0-0.2,0-0.3   c0-0.3-0.1-0.6-0.1-0.9c-0.1-0.3-0.1-0.5-0.3-0.7c-0.1-0.2-0.2-0.4-0.4-0.6l0,0l0,0c-0.3-0.4-0.7-0.8-1.2-1   c-0.5-0.3-1.1-0.5-1.8-0.7c-0.7-0.2-1.6-0.3-2.7-0.3c-1-0.1-2.3-0.1-3.7-0.1c-2.5,0-4.4,0.1-5.8,0.3c-1.4,0.2-2.4,0.4-3,0.9l0,0   l0,0c-1.3,0.8-1.9,2.2-1.9,4.1c0,0.9,0.1,1.6,0.3,2.2c0.2,0.6,0.6,1.1,1.1,1.5c0.5,0.4,1.2,0.7,2,0.8c0.8,0.2,1.7,0.3,2.9,0.3l0,0   c1.6,0,2.9,0,3.8,0.1c0.9,0,1.7,0,2.2,0c0.5,0,0.9,0,1.1,0c0.2,0,0.4,0,0.6,0h0h0c0.1,0,0.2,0,0.3,0c1.5,0,2.6,0.2,3.1,0.5   c0.3,0.2,0.5,0.4,0.6,0.7c0.1,0.3,0.2,0.7,0.2,1.1c0,0.8-0.2,1.3-0.6,1.6l0,0l0,0c-0.2,0.1-0.4,0.3-0.6,0.3   c-0.3,0.1-0.6,0.2-1.1,0.2c-0.5,0.1-1.1,0.1-1.9,0.1c-0.8,0-1.7,0-2.9,0c-1.9,0-3.4,0-4.5-0.1c-1.1,0-1.9-0.2-2.4-0.4   c-0.5-0.2-0.8-0.5-0.9-0.8c-0.1-0.2-0.1-0.6-0.2-1c-0.8,0-3,0-3.4,0c0,0.9,0.1,1.7,0.4,2.2c0.2,0.6,0.7,1.2,1.3,1.6l0,0   c0,0,0,0,0,0c0,0,0,0,0,0l0,0c0.3,0.3,0.8,0.5,1.3,0.6c0.5,0.2,1.1,0.3,1.8,0.4c0.7,0.1,1.6,0.2,2.7,0.2c1,0,2.3,0.1,3.7,0.1   c2.4,0,4.3-0.1,5.6-0.2c1.3-0.1,2.3-0.4,3-0.7c0.7-0.4,1.3-1,1.6-1.6c0.3-0.7,0.5-1.6,0.5-2.6C77.5,21.2,77.1,19.9,76.2,19.1z"></path>
	<path class="st4" d="M49.8,10.7v8.5c0,1.2-0.1,2.1-0.2,2.7c-0.1,0.6-0.4,1.1-0.7,1.5l0,0l0,0c-0.5,0.7-1.3,1.1-2.4,1.4   c-1.1,0.3-2.6,0.4-4.6,0.4c-1.6,0-2.8-0.1-3.6-0.2c-0.8-0.2-1.4-0.4-1.9-0.8c-0.2-0.2-0.4-0.4-0.5-0.7c-0.1-0.2-0.3-0.5-0.4-0.9   c-0.1-0.3-0.2-0.8-0.2-1.3c0-0.5-0.1-1.2-0.1-2v-8.7H35h-2.9v9.5c0,0.9,0,1.6,0.1,2.3c0.1,0.7,0.2,1.2,0.3,1.7   c0.1,0.5,0.3,0.9,0.5,1.3c0.2,0.4,0.5,0.7,0.8,0.9l0,0l0,0c0.7,0.6,1.7,1,2.8,1.3c1.2,0.2,2.8,0.4,4.9,0.4c1.3,0,2.4,0,3.4-0.1   c0.9-0.1,1.7-0.2,2.4-0.4c0.7-0.2,1.2-0.5,1.7-0.9c0.3-0.3,0.6-0.6,0.8-0.9v2.1l3.2,0V10.7H49.8z"></path>
	<polygon class="st4" points="25.7,1.1 25.7,28.1 28.9,28.1 28.9,0  "></polygon>
	<path class="st4" d="M21.7,14.6l-0.2,0.1L21.7,14.6c-0.5-1.2-1.2-2.1-2.3-2.8c-0.4-0.2-0.8-0.5-1.3-0.6c-0.5-0.2-1-0.3-1.7-0.4   c-0.7-0.1-1.4-0.2-2.3-0.2c-0.9,0-1.9-0.1-3.1-0.1c-1.3,0-2.5,0-3.3,0.1c-0.9,0.1-1.7,0.2-2.3,0.4c-0.6,0.2-1.2,0.4-1.6,0.8   c-0.3,0.2-0.5,0.5-0.7,0.8v-2L0,11.6v24l3.2-1.1v-8.3c0.2,0.3,0.5,0.5,0.8,0.7c0.4,0.3,0.9,0.5,1.5,0.7c0.6,0.2,1.3,0.3,2.2,0.3   c0.9,0.1,1.9,0.1,3.1,0.1c1.2,0,2.2,0,3-0.1c0.9,0,1.6-0.1,2.3-0.2c0.7-0.1,1.2-0.2,1.7-0.4c0.5-0.1,0.9-0.3,1.3-0.5   c1.1-0.6,2-1.6,2.5-2.8c0.5-1.2,0.8-2.8,0.8-4.8C22.4,17.3,22.2,15.7,21.7,14.6z M4.7,14.3c0.2-0.1,0.5-0.3,0.9-0.4   c0.4-0.1,0.8-0.2,1.3-0.3c0.5-0.1,1.2-0.1,2-0.2c0.8,0,1.7-0.1,2.8-0.1c1.6,0,2.9,0.1,3.8,0.2c1,0.2,1.7,0.4,2.2,0.9   c0.5,0.4,0.8,1,1,1.8c0.2,0.8,0.3,1.9,0.3,3.2c0,1.4-0.1,2.5-0.4,3.3c-0.2,0.7-0.6,1.3-1.2,1.7c-0.2,0.2-0.5,0.3-0.9,0.5   c-0.3,0.1-0.8,0.2-1.3,0.3c-0.5,0.1-1.2,0.1-1.9,0.2c-0.7,0-1.6,0.1-2.6,0.1c-1.7,0-3-0.1-4-0.2c-1-0.2-1.8-0.5-2.3-0.9   c-0.5-0.4-0.9-1-1.1-1.8c-0.2-0.8-0.3-1.9-0.3-3.2c0-1.4,0.1-2.4,0.4-3.2C3.7,15.2,4.1,14.7,4.7,14.3z"></path>
</g>
</svg>
