<svg width="180" height="25" viewBox="0 0 180 25" fill="none" xmlns="http://www.w3.org/2000/svg">
<path d="M4.56457 12.8526C4.32747 12.8526 4.13649 12.6621 4.13649 12.4278C4.13649 12.3531 4.15678 12.2792 4.19553 12.2145L11.1898 0.212226C11.3088 0.00895213 11.5717 -0.0603252 11.7775 0.0572639C11.9832 0.174853 12.0533 0.434643 11.9343 0.637917L4.93638 12.6357C4.86165 12.7687 4.71865 12.8517 4.56457 12.8526ZM6.63027 12.8526C6.39317 12.8508 6.20126 12.6594 6.20311 12.4251C6.20311 12.3513 6.22341 12.2783 6.26123 12.2145L12.1935 1.99885C12.3116 1.79558 12.5746 1.72539 12.7794 1.84207C12.9851 1.95874 13.0562 2.21853 12.9381 2.42181L7.003 12.6357C6.92735 12.7687 6.78527 12.8517 6.63027 12.8526ZM8.77624 12.8526C8.70059 12.8526 8.62678 12.8325 8.56127 12.7952C8.35553 12.6776 8.28634 12.4178 8.40535 12.2145L13.3154 3.87025C13.4261 3.66242 13.6863 3.58311 13.8957 3.69159C14.1052 3.80006 14.1864 4.05803 14.0766 4.26495C14.071 4.27589 14.0646 4.28591 14.0581 4.29594L9.14805 12.6366C9.07239 12.7687 8.93031 12.8508 8.77624 12.8517V12.8526ZM10.96 12.8526C10.8853 12.8526 10.8124 12.8335 10.7478 12.797C10.5421 12.6803 10.4711 12.4205 10.5891 12.2173C10.5891 12.2173 10.5901 12.2154 10.591 12.2145L14.3367 5.72524C14.4456 5.5165 14.7049 5.43446 14.9152 5.54202C15.1265 5.64958 15.2095 5.90573 15.1007 6.11356C15.0951 6.1245 15.0887 6.13544 15.0822 6.14546L11.3365 12.6347C11.2608 12.7697 11.116 12.8535 10.9591 12.8526H10.96ZM0.41011 19.9626C0.173002 19.9517 -0.0105957 19.753 0.000475528 19.5187C0.0106241 19.3 0.188686 19.124 0.41011 19.114L14.1624 19.0985C14.3995 19.1094 14.5831 19.3082 14.572 19.5424C14.5619 19.7612 14.3838 19.9371 14.1624 19.9471L0.411032 19.9626H0.41011ZM1.47387 18.2152C1.23676 18.2043 1.05316 18.0056 1.06423 17.7713C1.07438 17.5525 1.25244 17.3766 1.47387 17.3666L13.1291 17.331C13.3662 17.342 13.5498 17.5407 13.5387 17.7749C13.5285 17.9937 13.3505 18.1696 13.1291 18.1797L1.47387 18.2152ZM12.0561 16.3438L2.55331 16.3183C2.3162 16.3292 2.11507 16.1478 2.104 15.9136C2.09293 15.6793 2.27653 15.4806 2.51364 15.4696C2.52655 15.4696 2.54039 15.4696 2.55331 15.4696L12.0561 15.4952C12.2932 15.5061 12.4768 15.7048 12.4657 15.9391C12.4556 16.1579 12.2775 16.3338 12.0561 16.3438ZM3.6715 14.5162C3.43439 14.5052 3.25079 14.3065 3.26186 14.0722C3.27201 13.8535 3.45007 13.6776 3.6715 13.6675L10.9683 13.6247C11.2054 13.6356 11.389 13.8343 11.378 14.0686C11.3678 14.2874 11.1898 14.4633 10.9683 14.4733L3.6715 14.5162ZM22.5386 19.9563C22.3837 19.9563 22.2416 19.8742 22.165 19.7411L15.3138 7.8464C15.2049 7.63766 15.2889 7.38152 15.4992 7.27487C15.6976 7.17369 15.9411 7.24023 16.0602 7.42618L22.9114 19.3246C23.0286 19.5278 22.9566 19.7867 22.7508 19.9025C22.6863 19.938 22.6134 19.9572 22.5386 19.9563ZM20.4739 19.9198C20.3198 19.9198 20.1768 19.8387 20.1002 19.7056L14.2814 9.61389C14.155 9.41517 14.2159 9.15265 14.417 9.02777C14.6181 8.90288 14.8838 8.96305 15.0102 9.16176C15.0167 9.17179 15.0232 9.18273 15.0287 9.19367L20.8484 19.2854C20.9656 19.4886 20.8937 19.7484 20.6879 19.8642C20.6233 19.9007 20.5495 19.9198 20.4748 19.9198H20.4739ZM18.2716 19.9462C18.1157 19.9462 17.9727 19.8633 17.8971 19.7293L13.2056 11.4479C13.0949 11.2401 13.1761 10.983 13.3865 10.8746C13.5885 10.7697 13.8385 10.839 13.9557 11.0332L18.6462 19.3145C18.7625 19.5187 18.6896 19.7767 18.4829 19.8915C18.4183 19.9271 18.3454 19.9462 18.2716 19.9462ZM16.1349 19.8934C15.9799 19.8934 15.8369 19.8113 15.7612 19.6782L12.1142 13.3202C12.0072 13.1106 12.0911 12.8553 12.3033 12.7496C12.5017 12.6502 12.7434 12.7168 12.8615 12.9018L16.5085 19.2598C16.6257 19.4631 16.5537 19.7211 16.348 19.8368C16.348 19.8368 16.3471 19.8369 16.3462 19.8378C16.2816 19.8742 16.2087 19.8934 16.1349 19.8934ZM38.6989 0.476574H30.1584V19.7348H32.5996V12.3121H38.6989C41.8994 12.3121 44.5039 9.65764 44.5039 6.39432C44.5039 3.13099 41.8994 0.476574 38.6989 0.476574ZM38.6989 9.82263H32.5996V2.966H38.6989C40.5533 2.966 42.0618 4.50377 42.0618 6.39432C42.0618 8.28486 40.5533 9.82263 38.6989 9.82263ZM51.4621 5.40711C47.5033 5.40711 44.2825 8.68867 44.2825 12.7259C44.2825 16.7631 47.5033 20.0438 51.4621 20.0438C55.421 20.0438 58.64 16.7622 58.64 12.7268C58.64 8.69141 55.4173 5.40711 51.4621 5.40711ZM56.1978 12.7268C56.1978 15.3894 54.0759 17.558 51.4621 17.558C48.8484 17.558 46.7246 15.3922 46.7246 12.7268C46.7246 10.0615 48.8466 7.89563 51.4621 7.89563C54.0777 7.89563 56.1951 10.0642 56.1951 12.7268H56.1978ZM60.3892 0.476574H62.8304V19.7357H60.3892V0.476574ZM76.567 5.71522V7.23932C75.2763 6.06434 73.5861 5.41076 71.8313 5.40711C67.8733 5.40711 64.6525 8.68867 64.6525 12.7259C64.6525 16.7631 67.8733 20.0438 71.8313 20.0438C73.5861 20.0401 75.2763 19.3865 76.567 18.2116V19.7357H79.0091V5.71522H76.567ZM76.567 12.7259C76.567 15.3885 74.445 17.5571 71.8313 17.5571C69.2176 17.5571 67.0937 15.3913 67.0937 12.7259C67.0937 10.0605 69.2157 7.89472 71.8313 7.89472C74.4468 7.89472 76.567 10.0633 76.567 12.7259ZM88.8597 5.44084C86.8604 5.63135 85.0364 6.64955 83.8389 8.24293V5.71522H81.3968V19.7366H83.8389V13.2327C83.8389 10.4069 86.0974 8.05606 88.8726 7.98496H88.9815V5.43264L88.8597 5.44084ZM105.181 9.14353L99.4613 7.54924C98.3339 7.14634 98.0774 6.13544 98.2121 5.32416C98.4418 3.95047 99.8395 2.5631 102.444 2.5631C103.981 2.5631 105.131 2.96144 105.858 3.7481C106.661 4.61316 106.802 5.78905 106.826 6.25485L106.833 6.38611L109.245 5.90482L109.236 5.80181C109.137 4.77359 108.782 3.2896 107.654 2.06448C106.444 0.741833 104.69 0.0736717 102.442 0.0736717C98.4123 0.0736717 96.2036 2.50111 95.7995 4.90485C95.4249 7.14816 96.5994 9.16267 98.7297 9.91834L104.557 11.5454C106.402 12.0195 107.473 13.2692 107.295 14.7359C107.111 16.2435 105.61 17.7649 102.669 17.7649C100.878 17.7649 99.5323 17.2946 98.6734 16.3675C98.1198 15.7723 97.76 14.9883 97.6041 14.0385L97.5856 13.9228L95.1933 14.4022L95.2118 14.5125C95.4544 15.9236 96.0163 17.1159 96.8798 18.0566C98.2185 19.5151 100.167 20.2562 102.672 20.2562C107.079 20.2562 109.415 17.5543 109.721 15.044C110.001 12.7614 108.705 10.0478 105.181 9.14353ZM113.471 0.48022C112.6 0.48022 111.892 1.20216 111.892 2.09001C111.892 2.97785 112.6 3.69979 113.471 3.69979C114.342 3.69979 115.05 2.97785 115.05 2.09001C115.05 1.20216 114.342 0.48022 113.471 0.48022ZM112.25 5.71522H114.692V19.7357H112.25V5.71522ZM128.795 5.71522V7.23932C127.505 6.06434 125.814 5.41076 124.06 5.40711C120.102 5.40711 116.881 8.68867 116.881 12.725C116.881 16.7613 120.102 20.0438 124.06 20.0438C125.814 20.0401 127.505 19.3856 128.795 18.2107V21.8878C128.801 22.2269 128.527 22.5049 128.184 22.5104H119.562V24.9998H128.184C129.867 24.9998 131.237 23.6043 131.237 21.8878V5.71522H128.795ZM128.795 12.725C128.795 15.3885 126.673 17.5562 124.06 17.5562C121.446 17.5562 119.323 15.3903 119.323 12.725C119.323 10.0596 121.445 7.8938 124.06 7.8938C126.674 7.8938 128.795 10.0633 128.795 12.725ZM140.324 5.40711C138.494 5.41623 136.777 6.2822 135.695 7.74067V5.71522H133.253V19.7348H135.695V12.024C135.695 9.78891 137.479 7.97037 139.672 7.97037C141.865 7.97037 143.648 9.79346 143.648 12.024V19.7348H146.162V11.3577C146.16 8.07611 143.542 5.40711 140.324 5.40711ZM159.723 5.71522V7.23932C158.432 6.06434 156.742 5.41076 154.986 5.40711C151.028 5.40711 147.807 8.68867 147.807 12.7259C147.807 16.7631 151.028 20.0438 154.986 20.0438C156.742 20.0401 158.432 19.3865 159.723 18.2116V19.7357H162.164V5.71522H159.723ZM159.723 12.7259C159.723 15.3885 157.601 17.5571 154.986 17.5571C152.371 17.5571 150.249 15.3913 150.249 12.7259C150.249 10.0605 152.37 7.89472 154.986 7.89472C157.602 7.89472 159.723 10.0633 159.723 12.7259ZM164.483 0.476574H166.925V19.7357H164.483V0.476574ZM176.492 11.3613L172.471 10.2675C171.783 10.0268 171.772 9.4571 171.825 9.13988C171.961 8.34228 172.829 7.5383 174.462 7.5383C175.446 7.5383 176.171 7.7753 176.617 8.24293C176.986 8.63307 177.126 9.13442 177.171 9.48627L177.202 9.70778L179.618 9.38418L179.589 9.15903C179.452 8.13354 179.058 7.26484 178.412 6.57936C177.489 5.59671 176.159 5.0981 174.466 5.0981C171.406 5.0981 169.726 6.92119 169.416 8.7306C169.12 10.4625 170.055 12.0122 171.749 12.6038L175.876 13.725C176.99 14.0057 177.644 14.7112 177.543 15.5234C177.432 16.404 176.489 17.2927 174.63 17.2927C173.464 17.2927 172.6 17.0065 172.064 16.4413C171.724 16.084 171.501 15.6082 171.405 15.0257L171.33 14.58L168.924 15.0485L169 15.4769C169.185 16.5207 169.611 17.4058 170.273 18.1077C171.287 19.1887 172.764 19.7366 174.63 19.7366C177.965 19.7366 179.737 17.7093 179.972 15.8261C180.187 14.0914 179.195 12.0386 176.492 11.3613Z" fill="black"/>
</svg>
