<svg width="138" height="31" viewBox="0 0 138 31" fill="none" xmlns="http://www.w3.org/2000/svg">
<path d="M49.7848 23.4567C47.8325 23.4567 46.3083 22.7161 45.2807 21.3039L45.3321 27.9344C45.3321 28.055 45.2122 28.1756 45.0923 28.1756H41.9583C41.8213 28.1756 41.7185 28.0722 41.7185 27.9344L41.8042 16.7917L41.7185 8.215C41.7185 8.09444 41.8384 7.97389 41.9583 7.97389H45.0581C45.178 7.97389 45.2978 8.09444 45.2978 8.215L45.2122 10.0406C46.2569 8.55944 47.8153 7.68111 49.8362 7.68111C54.0149 7.68111 56.207 11.1083 56.207 15.5172C56.207 19.9261 53.8094 23.4567 49.7848 23.4567ZM48.8258 20.925C51.3946 20.925 52.662 18.9789 52.662 15.7411C52.662 12.2967 51.4118 10.2644 48.9285 10.2644C46.4453 10.2644 45.1951 12.0383 45.1608 15.4483C45.1266 18.9617 46.4795 20.925 48.8429 20.925H48.8258ZM64.4788 23.5083C59.7178 23.5083 57.029 20.4083 57.029 15.6033C57.029 10.7983 59.7178 7.61222 64.4788 7.61222C69.2398 7.61222 71.8771 10.7122 71.8771 15.5172C71.8771 20.3222 69.2226 23.5083 64.4788 23.5083ZM64.4788 20.9939C67.0134 20.9939 68.2465 19.22 68.2465 15.6033C68.2465 11.9867 66.9963 10.1267 64.4445 10.1267C61.8414 10.1611 60.6083 12.0383 60.6083 15.6378C60.6083 19.2372 61.8928 21.0111 64.4617 21.0111H64.4788V20.9939ZM73.4527 23.1467C73.3157 23.1467 73.213 23.0433 73.213 22.9056L73.3328 12.7617L73.213 2.73833C73.213 2.61778 73.3328 2.49722 73.4527 2.49722H76.484C76.6039 2.49722 76.7238 2.61778 76.7238 2.73833L76.6381 12.7617L76.7238 22.9056C76.7238 23.0261 76.6039 23.1467 76.484 23.1467H73.4527ZM87.0335 22.94C86.9821 23.095 86.8623 23.1811 86.7081 23.1811H82.9918C82.8377 23.1811 82.7349 23.095 82.6664 22.94L77.443 8.19778C77.3917 8.07722 77.4773 7.95667 77.5972 7.95667H80.9367C81.0908 7.95667 81.1936 8.04278 81.2279 8.19778L84.9613 20.1328L88.9345 8.19778C88.9859 8.04278 89.1057 7.95667 89.2599 7.95667H92.1199C92.2398 7.95667 92.3254 8.07722 92.274 8.19778L87.0506 22.94H87.0335ZM105.821 17.9456C105.94 17.9456 106.06 18.0661 106.026 18.1867C105.615 21.0972 103.132 23.4911 99.1072 23.4911C94.2606 23.4911 91.6575 20.2189 91.6575 15.5861C91.6575 10.9533 94.4319 7.595 98.9873 7.595C103.543 7.595 106.3 10.7811 106.386 15.965C106.386 16.0856 106.266 16.2061 106.146 16.2061H95.1512C95.3053 19.4439 96.6069 20.9767 99.1586 20.9767C101.008 20.9767 102.19 20.0639 102.601 18.1694C102.635 18.0144 102.772 17.9283 102.892 17.9283H105.821V17.9456ZM99.0045 10.0922C96.898 10.0922 95.6478 11.3839 95.271 13.8294H102.584C102.43 11.8489 101.334 10.0922 99.0216 10.0922H99.0045ZM107.773 23.1639C107.636 23.1639 107.533 23.0606 107.533 22.9228L107.619 15.5L107.533 8.215C107.533 8.09444 107.653 7.97389 107.773 7.97389H110.804C110.924 7.97389 111.044 8.09444 111.044 8.215L110.958 10.6261C112.071 8.80056 114.058 7.85333 116.182 7.85333C116.473 7.85333 116.73 7.88778 116.969 7.905C117.089 7.93944 117.209 8.07722 117.209 8.19778V10.5056C117.209 10.6261 117.089 10.7122 116.969 10.7122C116.764 10.6778 116.507 10.6778 116.267 10.6778C113.424 10.6778 111.147 12.3311 111.044 15.7756L111.078 22.9056C111.078 23.0261 110.958 23.1467 110.838 23.1467H107.773V23.1639ZM118.477 6.42389C118.34 6.42389 118.237 6.32056 118.237 6.18278V3.13444C118.237 3.01389 118.357 2.89333 118.477 2.89333H121.576C121.696 2.89333 121.816 3.01389 121.816 3.13444V6.16556C121.816 6.28611 121.696 6.40667 121.576 6.40667H118.477V6.42389ZM118.477 23.1811C118.34 23.1811 118.237 23.0778 118.237 22.94L118.288 15.4828L118.237 8.23222C118.237 8.11167 118.357 7.99111 118.477 7.99111H121.611C121.73 7.99111 121.85 8.11167 121.85 8.23222L121.765 15.4828L121.85 22.94C121.85 23.0606 121.73 23.1811 121.611 23.1811H118.477ZM130.602 23.5256C125.841 23.5256 123.152 20.4256 123.152 15.6206C123.152 10.8156 125.841 7.62944 130.602 7.62944C135.363 7.62944 138 10.7294 138 15.5344C138 20.3394 135.346 23.5256 130.602 23.5256ZM130.602 21.0111C133.136 21.0111 134.369 19.2372 134.369 15.6206C134.369 12.0039 133.119 10.1439 130.567 10.1439C127.964 10.1783 126.731 12.0556 126.731 15.655C126.731 19.2544 128.016 21.0283 130.585 21.0283H130.602V21.0111ZM15.4133 0C23.9248 0 30.8265 6.94056 30.8265 15.5C30.8265 24.0594 23.9248 31 15.4133 31C6.90171 31 0 24.0594 0 15.5C0 6.94056 6.90171 0 15.4133 0ZM12.3649 23.25H17.8622L11.9025 17.6011H26.6478V13.3817H11.9025L17.9136 7.73278H12.4162L4.48697 15.4828L12.3649 23.25Z" fill="black"/>
</svg>
