<svg width="128" height="40" viewBox="0 0 128 40" fill="none" xmlns="http://www.w3.org/2000/svg">
<path d="M0 38H128V2H0V38Z" fill="#FCD205"/>
<path d="M106.299 29.7705L107.55 23.8766H5.46494L4.21289 29.7705H106.299Z" fill="white"/>
<path d="M118.594 15.8437C118.594 15.8437 119.963 9.59942 119.982 9.54082H111.283C111.283 9.58031 109.485 17.8273 109.485 17.8665C109.504 17.8665 111.714 17.8665 111.714 17.8665C111.733 17.8665 113.082 11.6416 113.082 11.6416H117.304C117.304 11.6416 115.975 17.8856 115.936 17.9251C115.975 17.9251 122.367 17.9251 122.367 17.9251L121.527 21.7761C121.527 21.7761 115.154 21.7761 115.134 21.7761C115.134 21.8152 113.844 27.6506 113.844 27.6506C113.844 27.6506 109.055 27.6506 109.016 27.6506C109.016 27.6697 108.585 29.7511 108.566 29.7705H115.681C115.681 29.7511 116.953 23.8766 116.953 23.8766C116.953 23.8766 123.305 23.8766 123.345 23.8766C123.345 23.8572 125.026 15.8821 125.026 15.8437H118.594Z" fill="#ED1C24"/>
<path d="M102.854 17.6927C103.773 17.6927 104.399 18.3148 104.399 19.3458C104.399 19.5205 104.379 19.6762 104.36 19.8512H100.391C100.802 18.5484 101.681 17.6927 102.854 17.6927ZM104.828 25.4345L105.337 23.1195C104.477 23.4107 103.636 23.6439 102.562 23.6439C101.31 23.6439 100.216 23.2166 100.157 21.7184H106.608C106.842 20.9594 106.979 20.2015 106.979 19.5015C106.979 17.3614 105.728 15.6103 103.05 15.6103C99.5699 15.6103 97.4589 18.4514 97.4589 21.5829C97.4589 24.2667 99.2574 25.8428 102.053 25.8428C103.187 25.8428 104.085 25.6671 104.828 25.4345ZM94.2141 23.4692C92.9434 23.4692 92.0833 22.9248 92.0833 21.3493C92.0833 19.5015 93.2559 17.9644 95.1138 17.9644C95.7001 17.9644 96.3647 18.1395 97.0293 18.3928L97.4985 16.1752C96.7358 15.9031 95.8361 15.7083 94.9373 15.7083C91.8681 15.7083 89.2483 17.9839 89.2483 21.4859C89.2483 24.3643 91.0278 25.7253 93.5882 25.7253C94.4483 25.7253 95.1715 25.5701 95.7001 25.3565L96.208 23.08C95.6217 23.2942 94.976 23.4692 94.2141 23.4692ZM80.7063 25.5507L81.7815 20.6292C82.2112 18.6454 83.1893 17.9644 84.2055 17.9644C85.5154 17.9644 85.6718 18.9376 85.4173 20.0459L84.2442 25.5507H87.04L88.2711 19.9097C88.8772 17.0894 87.5678 15.6103 85.5154 15.6103C84.381 15.6103 83.2868 16.058 82.3481 17.0502L82.602 15.9031H80.0024L77.9107 25.5507H80.7063ZM70.6587 22.7691C70.6587 21.7971 71.5186 21.2516 72.9452 21.2516C73.2196 21.2516 73.8246 21.2717 74.3728 21.3493L74.2551 21.8941C73.9222 23.0409 72.9849 23.8199 71.8711 23.8199C71.069 23.8199 70.6587 23.4307 70.6587 22.7691ZM73.3565 15.6688C72.0661 15.6688 70.7563 15.961 70.3264 16.0972L69.8573 18.3343C70.4818 18.1596 71.7137 17.8282 72.809 17.8282C74.2746 17.8282 74.8026 18.2757 74.8026 19.0346C74.8026 19.1702 74.8026 19.3265 74.7639 19.4813L74.7243 19.6762C74.0207 19.5985 73.3565 19.5406 73.0427 19.5406C70.2676 19.5406 68.0396 20.6097 68.0396 23.139C68.0396 24.792 69.3293 25.7843 71.0102 25.7843C72.203 25.7843 73.2196 25.3174 73.8839 24.5394L73.6686 25.5507H76.1512L77.3635 20.0269C77.4611 19.6176 77.4997 19.1903 77.4997 18.782C77.4997 17.1279 76.5816 15.6688 73.3565 15.6688ZM59.8093 25.5507L60.8842 20.6292C61.3147 18.6454 62.2912 17.9644 63.3089 17.9644C64.6188 17.9644 64.7748 18.9376 64.5213 20.0459L63.3476 25.5507H66.1429L67.3738 19.9097C67.9801 17.0894 66.6709 15.6103 64.6188 15.6103C63.4834 15.6103 62.3888 16.058 61.4509 17.0502L61.7047 15.9031H59.1052L57.0134 25.5507H59.8093ZM54.8052 13.2378C54.7457 14.1128 55.3914 14.7938 56.2513 14.7938C57.2091 14.7938 57.8934 14.1128 57.9513 13.2378C58.0105 12.3627 57.3655 11.6817 56.5052 11.6817C55.5477 11.6817 54.8634 12.3627 54.8052 13.2378ZM54.4135 15.9031L52.322 25.5507H55.0982L57.19 15.9031H54.4135ZM46.5154 25.5507L47.6101 20.5127H51.8334L52.3422 18.0424H48.1384L48.7841 14.9494H53.2216L53.7687 12.4788H46.4384L43.6623 25.5507H46.5154ZM43.7595 18.023L44.2094 15.9031H41.2191L41.8049 13.2187L38.8918 13.8602L37.0738 22.1073C36.5664 24.4423 37.8557 25.7253 40.2014 25.7253C40.6911 25.7253 41.5113 25.6286 42.0985 25.4345L42.5676 23.3136C42.0985 23.4307 41.5113 23.5472 41.0038 23.5472C40.2014 23.5472 39.6347 23.2751 39.8308 22.302L40.7499 18.023H43.7595ZM33.1643 22.7106C33.1643 23.4893 32.2069 23.6249 31.4055 23.6249C30.3885 23.6249 29.2552 23.3531 28.6499 23.158L28.1797 25.3365C29.0598 25.5507 30.174 25.7253 31.2293 25.7253C33.731 25.7253 35.7649 24.792 35.7649 22.4579C35.7649 19.4429 32.1289 19.9683 32.1289 18.6264C32.1289 18.023 32.7154 17.8089 33.6335 17.8089C34.5129 17.8089 35.7458 18.1596 36.1557 18.2757L36.6248 16.0782C35.7845 15.8445 34.7874 15.7083 33.8877 15.7083C31.1711 15.7083 29.5292 16.9147 29.5292 18.9182C29.5292 21.8546 33.1643 21.3688 33.1643 22.7106ZM22.6476 25.8428C25.717 25.8428 27.789 23.6249 28.2581 20.7269C28.7471 17.8282 27.1248 15.6103 24.055 15.6103C20.9863 15.6103 18.914 17.8282 18.4448 20.7269C17.9562 23.6249 19.5788 25.8428 22.6476 25.8428ZM22.9025 23.6058C21.7877 23.6058 20.9083 22.7303 21.3182 20.7269C21.7285 18.7235 22.7064 17.8484 23.8206 17.8484C24.9351 17.8484 25.8149 18.7425 25.3844 20.7269C24.9737 22.7106 24.0163 23.6058 22.9025 23.6058ZM11.1142 21.5628H12.3461C16.2754 21.5628 18.465 19.6377 18.465 16.4278C18.465 14.0352 16.763 12.4788 13.8507 12.4788H10.2156L7.43945 25.5507H10.2543L11.1142 21.5628ZM11.6029 19.1702L12.5216 14.8718H13.6947C14.985 14.8718 15.6099 15.3972 15.6099 16.6226C15.6099 18.1981 14.6134 19.1702 12.7766 19.1702H11.6029Z" fill="#231F20"/>
</svg>
