<svg width="148" height="48" viewBox="0 0 148 48" fill="none" xmlns="http://www.w3.org/2000/svg">
<path d="M139.776 19.0877C139.776 19.0877 141.534 11.0518 141.56 11H130.466C130.466 11.0518 128.164 21.654 128.164 21.7059H131.009C131.034 21.7059 132.741 13.6959 132.741 13.6959H138.121C138.121 13.6959 136.414 21.7318 136.388 21.7836H144.586L143.526 26.7348H135.379C135.379 26.7866 133.724 34.2782 133.724 34.2782H127.569C127.569 34.3041 127.026 36.9741 127 37H136.078C136.078 36.9741 137.707 29.4307 137.707 29.4307H145.853C145.853 29.4048 148 19.1655 148 19.1137H139.776V19.0877Z" fill="#141A1F"/>
<path d="M5.22 23.5385L6.36586 18.0769H7.84274C9.4724 18.0769 10.2363 18.7436 10.2363 20.3077C10.2363 22.3077 8.98859 23.5385 6.67142 23.5385H5.22ZM4.60888 26.5641H6.16215C11.1021 26.5641 13.8521 24.1282 13.8521 20.0256C13.8521 16.9744 11.7132 15 8.04644 15H3.48849L0 31.6154H3.53942L4.60888 26.5641ZM19.4286 29.1538C18.0281 29.1538 16.9332 28.0513 17.4425 25.4872C17.9517 22.9487 19.174 21.8205 20.5745 21.8205C21.9749 21.8205 23.0699 22.9487 22.5351 25.4872C22.0259 28.0256 20.8291 29.1538 19.4286 29.1538ZM19.0976 32C22.9426 32 25.5653 29.1795 26.1509 25.4872C26.7621 21.7949 24.725 18.9744 20.88 18.9744C17.035 18.9744 14.4123 21.7949 13.8266 25.4872C13.2155 29.1795 15.2526 32 19.0976 32ZM32.3131 28.0256C32.3131 29.0256 31.1163 29.1795 30.0978 29.1795C28.8246 29.1795 27.3987 28.8462 26.6348 28.5897L26.0491 31.359C27.144 31.641 28.5445 31.8462 29.8686 31.8462C33.0006 31.8462 35.5724 30.6667 35.5724 27.6923C35.5724 23.8718 31.0145 24.5385 31.0145 22.8205C31.0145 22.0513 31.7529 21.7692 32.8988 21.7692C33.9937 21.7692 35.547 22.2051 36.0562 22.359L36.6419 19.5641C35.5979 19.2564 34.3247 19.1026 33.2043 19.1026C29.7922 19.1026 27.7297 20.641 27.7297 23.1795C27.7551 26.9487 32.3131 26.3333 32.3131 28.0256ZM45.6305 22.0769L46.1907 19.3846H42.4221L43.1605 15.9744L39.4938 16.7949L37.2021 27.2821C36.5655 30.2564 38.1952 31.8718 41.1234 31.8718C41.7346 31.8718 42.7786 31.7436 43.517 31.5128L44.1027 28.8205C43.517 28.9744 42.7786 29.1282 42.142 29.1282C41.1234 29.1282 40.4105 28.7949 40.6651 27.5385L41.811 22.1026H45.6305V22.0769ZM49.0935 31.641L50.4685 25.2308H55.7649L56.4015 22.1026H51.1306L51.9454 18.1795H57.5219L58.2094 15.0513H48.9916L45.5032 31.6667H49.0935V31.641ZM58.9988 19.3846L56.376 31.641H59.8645L62.4873 19.3846H58.9988ZM59.508 15.9744C59.4317 17.0769 60.2465 17.9487 61.3159 17.9487C62.5127 17.9487 63.3785 17.0769 63.4549 15.9744C63.5313 14.8718 62.7164 14 61.647 14C60.4247 14 59.559 14.8718 59.508 15.9744ZM65.772 31.641L67.1216 25.3846C67.6563 22.8718 68.8786 22 70.1772 22C71.8324 22 72.0106 23.2308 71.705 24.641L70.2281 31.641H73.7421L75.2954 24.4615C76.0593 20.8718 74.4042 19 71.8324 19C70.4064 19 69.0314 19.5641 67.8601 20.8205L68.1911 19.359H64.9318L62.309 31.6154H65.772V31.641ZM82.8071 19.0769C81.1774 19.0769 79.5478 19.4359 79.013 19.6154L78.4019 22.4615C79.1913 22.2308 80.7446 21.8205 82.1196 21.8205C83.9529 21.8205 84.615 22.3846 84.615 23.359C84.615 23.5385 84.615 23.7179 84.5641 23.9231L84.5131 24.1795C83.6219 24.0769 82.8071 24 82.3997 24C78.9112 24 76.1102 25.359 76.1102 28.5641C76.1102 30.6667 77.7399 31.9231 79.8533 31.9231C81.3557 31.9231 82.6288 31.3333 83.4691 30.3333L83.189 31.6154H86.2956L87.8234 24.5897C87.9507 24.0769 88.0016 23.5385 88.0016 23C88.0016 20.9231 86.8558 19.0769 82.8071 19.0769ZM79.4205 28.1026C79.4205 26.8718 80.4899 26.1795 82.2978 26.1795C82.6543 26.1795 83.3927 26.2051 84.0803 26.3077L83.9275 27C83.5201 28.4615 82.3233 29.4359 80.9228 29.4359C79.9297 29.4359 79.4205 28.9487 79.4205 28.1026ZM92.0248 31.641L93.3744 25.3846C93.9091 22.8718 95.1314 22 96.43 22C98.0851 22 98.2634 23.2308 97.9578 24.641L96.481 31.641H99.9949L101.548 24.4615C102.312 20.8718 100.657 19 98.0851 19C96.6592 19 95.2842 19.5641 94.1129 20.8205L94.4439 19.359H91.1846L88.5618 31.6154H92.0248V31.641ZM109.009 29C107.405 29 106.335 28.3077 106.335 26.3077C106.335 23.9487 107.812 22 110.129 22C110.868 22 111.708 22.2308 112.548 22.5385L113.134 19.7179C112.166 19.3846 111.046 19.1282 109.926 19.1282C106.081 19.1282 102.77 22.0256 102.77 26.4615C102.77 30.1282 105.011 31.8462 108.22 31.8462C109.289 31.8462 110.206 31.641 110.868 31.3846L111.504 28.4872C110.766 28.7692 109.951 29 109.009 29ZM122.326 31.4872L122.963 28.5385C121.893 28.8974 120.824 29.2051 119.474 29.2051C117.896 29.2051 116.521 28.6667 116.444 26.7692H124.542C124.847 25.7949 125 24.8462 125 23.9487C125 21.2308 123.421 19 120.06 19C115.68 19 113.032 22.6154 113.032 26.5897C113.032 30 115.298 32 118.812 32C120.264 32 121.41 31.7949 122.326 31.4872ZM119.856 21.641C121.002 21.641 121.792 22.4359 121.792 23.7436C121.792 23.9744 121.766 24.1538 121.741 24.3846H116.75C117.285 22.7436 118.38 21.641 119.856 21.641Z" fill="#141A1F"/>
</svg>
