<svg width="112" height="28" viewBox="0 0 112 28" fill="none" xmlns="http://www.w3.org/2000/svg">
<path d="M23.0399 27.5629V16.6283C23.0399 12.1672 25.6915 8.6144 30.9956 8.6144C31.8469 8.60212 32.6964 8.69484 33.5244 8.8904V13.3888C32.9217 13.3494 32.4005 13.3494 32.1588 13.3494C29.349 13.3494 28.1409 14.6123 28.1409 17.1784V27.5629H23.0399ZM35.0515 18.2888C35.0515 12.8014 39.2703 8.61712 45.137 8.61712C51.0037 8.61712 55.221 12.7987 55.221 18.2888C55.221 23.7789 51.0024 27.997 45.1363 27.997C39.2703 27.997 35.0515 23.7733 35.0515 18.2888ZM50.1994 18.2888C50.1994 15.1699 48.0696 12.9595 45.137 12.9595C42.2044 12.9595 40.0738 15.168 40.0738 18.2888C40.0738 21.4469 42.2035 23.6181 45.137 23.6181C48.0704 23.6181 50.1987 21.4442 50.1987 18.2888H50.1994ZM70.0067 12.996H64.5023V19.9043C64.5023 22.3123 65.3859 23.4179 67.9176 23.4179C68.1585 23.4179 68.7605 23.4179 69.5247 23.3786V27.445C68.4802 27.721 67.5579 27.879 66.5514 27.879C62.2924 27.879 59.3991 25.3523 59.3991 20.5758V12.9962H55.9839V9.00896H56.8353C57.5153 9.0089 58.1675 8.74327 58.6492 8.27024C58.8873 8.03646 59.0761 7.75856 59.2048 7.45255C59.3335 7.14654 59.3996 6.81846 59.3991 6.4872V2.732H64.5023V9.00896H70.0067V12.996ZM71.5329 18.2888C71.5329 12.8014 75.7518 8.61712 81.6185 8.61712C87.4853 8.61712 91.7033 12.7987 91.7033 18.2888C91.7033 23.7789 87.4845 27.9997 81.6185 27.9997C75.7526 27.9997 71.5329 23.7733 71.5329 18.2888ZM86.6802 18.2888C86.6802 15.1699 84.5504 12.9595 81.6178 12.9595C78.6852 12.9595 76.5548 15.1678 76.5548 18.2888C76.5548 21.4469 78.6845 23.6181 81.6178 23.6181C84.5512 23.6181 86.6802 21.444 86.6802 18.2888ZM94.355 27.5629V17.023C94.355 12.1278 97.5293 8.6144 103.195 8.6144C108.82 8.6144 111.994 12.128 111.994 17.023V27.5629H106.931V17.4178C106.931 14.6946 105.685 12.9968 103.195 12.9968C100.704 12.9968 99.4575 14.6944 99.4575 17.4178V27.5629H94.355ZM8.51848e-07 20.3848V27.5622H5.12765V20.6954C5.12765 20.0272 5.39791 19.3866 5.8787 18.9141C6.36018 18.4414 7.0121 18.1761 7.69164 18.1763H12.9493C15.4005 18.1762 17.7517 17.2187 19.4883 15.5136C20.3465 14.671 21.0274 13.6697 21.4922 12.5671C21.957 11.4646 22.1965 10.2824 22.1969 9.08848C22.1966 7.89434 21.9572 6.712 21.4923 5.60927C21.0274 4.50654 20.3463 3.50511 19.488 2.6624C17.7512 0.957061 15.3995 -0.000296924 12.948 6.90797e-08H8.51848e-07V8.97184H5.12765V4.74192H12.6024C13.7622 4.7417 14.8749 5.19448 15.6967 6.00112C16.1029 6.39968 16.4252 6.87335 16.6453 7.39496C16.8654 7.91657 16.9789 8.47588 16.9792 9.0408C16.979 9.60588 16.8657 10.1654 16.6457 10.6872C16.4257 11.209 16.1034 11.6828 15.6972 12.0816C14.8752 12.8885 13.7623 13.3414 12.6023 13.3411H7.16849C6.22714 13.3406 5.29487 13.5225 4.42465 13.8763C3.55511 14.2299 2.76469 14.7487 2.09846 15.4032C1.43305 16.0569 0.90506 16.8336 0.544743 17.6888C0.184672 18.5433 -0.000458263 19.4595 8.51848e-07 20.3848Z" fill="#6D4AFF"/>
</svg>
