<svg width="112" height="20" viewBox="0 0 112 20" fill="none" xmlns="http://www.w3.org/2000/svg">
<path d="M10.6197 14.0731C10.6166 14.0744 10.6132 14.0751 10.6099 14.0751C10.6065 14.0751 10.6031 14.0744 10.6 14.0731L4.64344 10.6756C4.64196 10.6731 4.64118 10.6702 4.64118 10.6673C4.64118 10.6644 4.64196 10.6615 4.64344 10.659V3.86953C4.64162 3.86713 4.64063 3.86421 4.64062 3.86122C4.64063 3.85822 4.64162 3.85531 4.64344 3.85291L10.6 0.452637H10.6197L16.5763 3.85291C16.5777 3.85544 16.5785 3.8583 16.5785 3.86122C16.5785 3.86414 16.5777 3.867 16.5763 3.86953V10.659C16.5775 10.6616 16.5782 10.6644 16.5782 10.6673C16.5782 10.6702 16.5775 10.673 16.5763 10.6756L10.6197 14.0731Z" fill="#0FA06D"/>
<path d="M20.2816 15.7266H0.939453V19.5477H20.2816V15.7266Z" fill="#0FA06D"/>
<path d="M37.1452 8.1714C37.1452 10.2426 36.5031 12.0479 35.2915 13.305L37.0695 16.1792H34.8932L33.8163 14.3877C32.8608 14.8636 31.8014 15.1004 30.7314 15.0772C26.5248 15.0772 24.2812 12.0535 24.2812 8.1714C24.2812 4.28932 26.5248 1.26562 30.7314 1.26562C34.9381 1.26562 37.1592 4.28932 37.1592 8.1714H37.1452ZM32.7198 12.5796L30.4538 8.80826H32.5319L34.0631 11.3003C34.6084 10.3528 34.8765 9.27435 34.8372 8.18524C34.8372 5.55197 33.5723 3.31189 30.7174 3.31189C27.8625 3.31189 26.5809 5.53812 26.5809 8.1714C26.5809 10.8047 27.8485 13.042 30.7202 13.042C31.4162 13.0627 32.1055 12.9033 32.7198 12.5796Z" fill="#393945"/>
<path d="M38.5586 1.26562H40.7517V3.29804H38.5586V1.26562ZM40.7152 14.8335H38.5782V5.33323H40.7152V14.8335Z" fill="#393945"/>
<path d="M49.4281 14.8335V9.29556C49.4281 7.74771 48.7102 6.9641 47.2911 6.9641C45.7599 6.9641 44.7952 8.25166 44.7952 9.73305V14.8335H42.6582V5.33318H44.7195V6.24971H45.1738C45.7347 5.52147 46.6685 5.09229 47.953 5.09229C50.3536 5.09229 51.5651 6.52937 51.5651 8.8996V14.8335H49.4281Z" fill="#393945"/>
<path d="M62.2749 5.33285V14.3679C62.2749 17.0566 60.4408 18.7346 57.6252 18.7346C55.0704 18.7346 53.3512 17.6713 53.1381 15.6749H55.2555C55.463 16.6246 56.2959 16.9985 57.6 16.9985C59.4144 16.9985 60.152 15.8909 60.152 14.2295V13.5843H59.6724C59.2209 14.2378 58.3684 14.7418 56.9886 14.7418C54.3608 14.7418 52.7539 12.6872 52.7539 9.92654C52.7539 7.1659 54.4113 5.10303 56.9998 5.10303C58.4357 5.10303 59.3247 5.65682 59.7594 6.26045H60.2137V5.33285H62.2749ZM60.2137 9.92654C60.2137 8.28179 59.3247 6.8807 57.5298 6.8807C55.8668 6.8807 54.9021 8.12949 54.9021 9.92654C54.9021 11.7236 55.8668 12.9502 57.5298 12.9502C59.3247 12.9502 60.2137 11.5492 60.2137 9.92654Z" fill="#393945"/>
<path d="M75.5395 10.8019C75.0964 13.3216 73.0997 15.0716 70.0484 15.0716C65.9848 15.0716 63.6992 12.1781 63.6992 8.16586C63.6992 4.15365 65.9932 1.26562 70.0484 1.26562C72.923 1.26562 74.8889 2.83286 75.3769 5.20309H72.9959C72.5612 3.93491 71.6329 3.30082 70.0456 3.30082C67.2665 3.30082 65.982 5.53812 65.982 8.1714C65.982 10.8047 67.2608 13.042 70.0484 13.042C71.7143 13.042 72.8108 12.2113 73.167 10.8019H75.5395Z" fill="#393945"/>
<path d="M79.0354 1.26562H76.8984V14.8363H79.0354V1.26562Z" fill="#393945"/>
<path d="M90.0904 10.0871C90.0904 13.0001 88.2563 15.0906 85.2331 15.0906C82.21 15.0906 80.373 12.9862 80.373 10.0871C80.373 7.18805 82.2071 5.10303 85.2331 5.10303C88.2591 5.10303 90.0904 7.19636 90.0904 10.0871ZM87.9534 10.0871C87.9534 8.42577 87.1121 6.89731 85.2331 6.89731C83.3542 6.89731 82.51 8.42577 82.51 10.0871C82.51 11.7485 83.3514 13.2991 85.2331 13.2991C87.1149 13.2991 87.9534 11.7873 87.9534 10.0871Z" fill="#393945"/>
<path d="M93.4299 5.33301V10.8709C93.4299 12.4188 94.1479 13.2024 95.5641 13.2024C97.0953 13.2024 98.0601 11.9148 98.0601 10.4334V5.33301H100.197V14.8333H98.1358V13.9195H97.6815C97.1206 14.6478 96.1895 15.077 94.9051 15.077C92.5045 15.077 91.293 13.6399 91.293 11.2696V5.33301H93.4299Z" fill="#393945"/>
<path d="M108.469 6.24975H108.924V1.26562H111.061V14.8335H108.999V13.9197H108.545C108.015 14.5732 107.143 15.0772 105.71 15.0772C103.102 15.0772 101.551 12.9118 101.551 10.0737C101.551 7.23549 103.118 5.08956 105.71 5.08956C107.129 5.08956 107.953 5.5769 108.469 6.24975ZM108.966 10.0875C108.966 8.42614 108.172 6.89769 106.301 6.89769C104.543 6.89769 103.674 8.26 103.674 10.0875C103.674 11.915 104.543 13.2995 106.301 13.2995C108.172 13.2995 108.966 11.7876 108.966 10.0875Z" fill="#393945"/>
</svg>
