<?xml version="1.0" encoding="UTF-8"?>
<svg width="72px" height="72px" viewBox="0 0 90 72" version="1.1" xmlns="http://www.w3.org/2000/svg" xmlns:xlink="http://www.w3.org/1999/xlink">
    <title>Group 7</title>
    <defs>
        <polygon id="path-1" points="0 0 9.63684157 0 9.63684157 9.58509994 0 9.58509994"></polygon>
        <polygon id="path-3" points="0 0 70.0481884 0 70.0481884 69.6701393 0 69.6701393"></polygon>
    </defs>
    <g id="/index" stroke="none" stroke-width="1" fill="none" fill-rule="evenodd">
        <g id="Login" transform="translate(-509.000000, -67.000000)">
            <g id="Group-7" transform="translate(509.000000, 67.000000)">
                <g id="Group-3" transform="translate(62.363158, 62.414900)">
                    <mask id="mask-2" fill="white">
                        <use xlink:href="#path-1"></use>
                    </mask>
                    <g id="Clip-2"></g>
                    <path d="M6.65797219,9.58509994 C5.89800061,9.58509994 5.13437532,9.29436705 4.54978179,8.71653543 L0.874150005,5.05693519 C-0.291383335,3.90127196 -0.291383335,2.02604482 0.874150005,0.866747426 C2.03602964,-0.288915809 3.92134375,-0.288915809 5.08687709,0.866747426 L8.76616259,4.52634767 C9.92804222,5.68564506 9.92804222,7.5608722 8.76616259,8.71653543 C8.18156907,9.29436705 7.41794377,9.58509994 6.65797219,9.58509994" id="Fill-1" fill="#101417" mask="url(#mask-2)"></path>
                </g>
                <g id="Group-6">
                    <mask id="mask-4" fill="white">
                        <use xlink:href="#path-3"></use>
                    </mask>
                    <g id="Clip-5"></g>
                    <path d="M51.6554146,51.7646275 C52.8172942,50.6053301 52.8172942,48.730103 51.6554146,47.5744397 L40.0000812,35.9778316 C38.8345479,34.8221684 36.9492337,34.8221684 35.7837004,35.9778316 C34.6218208,37.137129 34.6218208,39.0123561 35.7837004,40.1716535 L47.4426875,51.7646275 C48.0236273,52.3424591 48.7872526,52.633192 49.5472242,52.633192 C50.3108495,52.633192 51.0744748,52.3424591 51.6554146,51.7646275 M70.0481884,34.836705 C70.0481884,54.075954 54.3664671,69.6701393 35.0237288,69.6701393 C15.6809906,69.6701393 -0.000730741906,54.075954 -0.000730741906,34.836705 C-0.000730741906,15.5974561 15.6809906,-0.000363416111 35.0237288,-0.000363416111 C54.3664671,-0.000363416111 70.0481884,15.5974561 70.0481884,34.836705" id="Fill-4" fill="#101417" mask="url(#mask-4)"></path>
                </g>
            </g>
        </g>
    </g>
</svg>
