<svg width="166" height="40" viewBox="0 0 166 40" fill="none" xmlns="http://www.w3.org/2000/svg">
<path d="M13.9078 16.596C17.4421 16.596 20.2971 19.3355 20.2971 22.7103C20.2971 23.7525 20.0313 24.7252 19.5489 25.5789H27.4739C27.6905 24.6557 27.7987 23.6929 27.7987 22.7103C27.7987 17.0526 24.0971 12.2187 18.8893 10.303V4.29785H12.0078V16.8739C12.6083 16.6952 13.2482 16.596 13.9078 16.596Z" fill="#2B00E7"/>
<path d="M16.1355 28.4367C15.4365 28.6848 14.6883 28.8238 13.9007 28.8238C10.3665 28.8238 7.51152 26.0842 7.51152 22.7095C7.51152 21.7665 7.73795 20.8732 8.13174 20.0791H0.275652C0.0984472 20.9327 0 21.8062 0 22.7095C0 30.0446 6.22186 36.0001 13.8909 36.0001C14.6489 36.0001 15.3971 35.9406 16.1257 35.8314V28.4367H16.1355Z" fill="#2B00E7"/>
<path d="M33.0998 14.5907C33.0998 13.072 33.0998 11.7618 33.0703 10.4814H37.146C37.2051 10.8288 37.2642 12.3176 37.2642 13.1316C37.9336 11.4144 39.5186 10.1538 42.0684 10.124V14.1142C39.0559 14.0249 37.2642 14.8388 37.2642 18.9878V25.5786H33.0998V14.5907Z" fill="#2B00E7"/>
<path d="M70.2519 4.29688V21.4388C70.2519 22.8086 70.2519 24.2081 70.2814 25.5779H66.3239C66.2353 25.1114 66.1467 24.357 66.1171 23.9997C65.3985 25.1908 64.0891 25.9253 61.8642 25.9253C58.074 25.9253 55.6719 22.8681 55.6719 18.1434C55.6719 13.5081 58.2217 10.1233 62.4647 10.1233C64.6306 10.1233 65.7923 10.9075 66.1073 11.5824V4.29688H70.2519ZM63.1046 22.5803C65.9399 22.5803 66.2845 20.1881 66.2845 18.0342C66.2845 15.4436 65.9104 13.4882 63.1932 13.4882C61.0274 13.4882 59.9248 15.2054 59.9248 18.064C59.9248 21.0021 61.0471 22.5803 63.1046 22.5803Z" fill="#2B00E7"/>
<path d="M71.9062 8.02899V4.29688H76.0706V8.02899H71.9062ZM71.9062 10.4807H76.0706V25.5779H71.9062V10.4807Z" fill="#2B00E7"/>
<path d="M91.7635 17.9952C91.7635 22.571 89.0463 25.926 84.3012 25.926C79.6742 25.926 76.957 22.571 76.957 18.0845C76.957 13.4194 79.7628 10.124 84.5079 10.124C88.8987 10.124 91.7635 13.2804 91.7635 17.9952ZM81.1509 18.025C81.1509 20.9432 82.3913 22.6604 84.3898 22.6604C86.4473 22.6604 87.5696 20.9432 87.5696 18.0548C87.5696 14.9083 86.408 13.4194 84.3307 13.4194C82.4208 13.4194 81.1509 14.8487 81.1509 18.025Z" fill="#2B00E7"/>
<path d="M93.2129 25.5788V13.6281H91.9922V10.4816H93.2129V9.16144C93.2129 6.04472 94.7487 4 97.9876 4C98.6571 4 99.5234 4.05956 99.8975 4.17867V7.47404C99.6711 7.44427 99.3462 7.41449 99.0312 7.41449C97.8203 7.41449 97.3576 7.85123 97.3576 9.48899V10.4816H99.4742V13.6281H97.3576V25.5788H93.2129Z" fill="#2B00E7"/>
<path d="M100.112 14.5907C100.112 13.072 100.112 11.7618 100.082 10.4814H104.158C104.217 10.8288 104.276 12.3176 104.276 13.1316C104.945 11.4144 106.53 10.1538 109.08 10.124V14.1142C106.077 14.0249 104.276 14.8388 104.276 18.9878V25.5786H100.112V14.5907Z" fill="#2B00E7"/>
<path d="M123.502 14.2929C123.502 13.0124 123.502 11.6129 123.473 10.4714H127.489C127.578 10.8784 127.637 11.9305 127.667 12.397C128.159 11.464 129.37 10.124 132.008 10.124C135.021 10.124 136.95 12.1985 136.95 15.9803V25.5786H132.815V16.4567C132.815 14.7395 132.264 13.5087 130.413 13.5087C128.651 13.5087 127.667 14.5013 127.667 17.1813V25.5786H123.502V14.2929Z" fill="#2B00E7"/>
<path d="M151.55 20.7157C151.058 23.2269 149.296 25.9367 144.836 25.9367C140.179 25.9367 137.777 22.7009 137.777 18.1548C137.777 13.6981 140.465 10.1348 145.033 10.1348C150.064 10.1348 151.481 13.8073 151.54 15.4947H147.524C147.268 14.2738 146.569 13.4202 144.954 13.4202C143.044 13.4202 141.971 15.0778 141.971 17.996C141.971 21.2319 143.123 22.691 144.925 22.691C146.372 22.691 147.12 21.8473 147.494 20.7058H151.55V20.7157Z" fill="#2B00E7"/>
<path d="M156.055 18.9284C156.055 20.8242 157.01 22.6605 159.067 22.6605C160.8 22.6605 161.292 21.9657 161.696 21.0525H165.831C165.309 22.8888 163.665 25.9261 158.979 25.9261C154.037 25.9261 151.891 22.2238 151.891 18.2534C151.891 13.499 154.293 10.1143 159.117 10.1143C164.236 10.1143 165.998 13.8762 165.998 17.638C165.998 18.1641 165.998 18.4817 165.939 18.9185H156.055V18.9284ZM161.844 16.3675C161.814 14.6206 161.125 13.1317 159.097 13.1317C157.128 13.1317 156.321 14.5015 156.144 16.3675H161.844Z" fill="#2B00E7"/>
<path d="M54.8315 21.6785V15.3558C54.8315 11.7428 52.6361 10.1645 48.6391 10.1348C44.5339 10.1348 42.7815 11.8817 42.3287 14.1845L46.1583 14.9786C46.3355 13.8669 46.7391 13.1423 48.4718 13.1423C50.4112 13.1423 50.7853 14.1944 50.7853 15.2664V16.1697H48.649C44.2484 16.1697 41.5312 17.7777 41.5312 21.212C41.5312 23.5446 43.0375 25.9367 46.6505 25.9367C49.3086 25.9367 50.3226 24.9441 50.8739 24.1004C50.8739 24.4776 50.9625 25.2915 51.0806 25.5893H55.0382C54.9496 25.232 54.8315 23.1277 54.8315 21.6785ZM50.7853 19.1077C50.7853 21.0929 50.4703 22.959 47.8319 22.959C46.3256 22.959 45.666 22.0259 45.666 20.944C45.666 19.4849 46.5914 18.7008 49.1117 18.7008H50.7853V19.1077Z" fill="#2B00E7"/>
<path d="M121.828 21.6785V15.3558C121.828 11.7428 119.632 10.1645 115.635 10.1348C111.53 10.1348 109.778 11.8817 109.325 14.1845L113.154 14.9786C113.332 13.8669 113.735 13.1423 115.468 13.1423C117.407 13.1423 117.781 14.1944 117.781 15.2664V16.1697H115.645C111.244 16.1697 108.527 17.7777 108.527 21.212C108.527 23.5446 110.034 25.9367 113.647 25.9367C116.305 25.9367 117.319 24.9441 117.87 24.1004C117.87 24.4776 117.959 25.2915 118.077 25.5893H122.034C121.946 25.232 121.828 23.1277 121.828 21.6785ZM117.781 19.1077C117.781 21.0929 117.466 22.959 114.828 22.959C113.322 22.959 112.662 22.0259 112.662 20.944C112.662 19.4849 113.588 18.7008 116.108 18.7008H117.781V19.1077Z" fill="#2B00E7"/>
</svg>
