<svg width="140" height="40" viewBox="0 0 140 40" fill="none" xmlns="http://www.w3.org/2000/svg">
<path fill-rule="evenodd" clip-rule="evenodd" d="M135.512 9.99316L131.352 16.5628L133.384 19.9179L139.998 10.165V9.99316H135.512Z" fill="#08B09C"/>
<path fill-rule="evenodd" clip-rule="evenodd" d="M130.265 18.2814L125.806 10.9234L125.242 9.99316H120.812V10.165L128.402 21.7736V30.0619H132.127L132.13 21.3594L130.265 18.2814Z" fill="#141A1F"/>
<path fill-rule="evenodd" clip-rule="evenodd" d="M49.2353 13.5146C51.5777 13.5146 52.6217 15.1226 52.6217 16.7352C52.6217 18.3479 51.6051 19.9566 49.2353 19.9566H43.5642V13.5146H49.2353ZM56.3461 16.6497C56.3461 13.171 53.8913 10.0224 49.2353 9.99316C46.1033 10.0217 42.9712 9.99316 39.8398 9.99316V30.0619H43.5642V23.3626H47.1473L52.9035 30.0619H57.3332V29.8038L51.3515 22.9619C55.1039 22.1892 56.3461 19.4127 56.3461 16.6497Z" fill="#141A1F"/>
<path fill-rule="evenodd" clip-rule="evenodd" d="M65.8013 22.7616L69.4694 14.212L73.1375 22.7616H65.8013ZM67.4382 9.99316L58.5781 30.0619H62.613L64.3062 26.2831H74.6326L76.2977 30.0619H80.3606L71.5005 9.99316H67.4382Z" fill="#141A1F"/>
<path fill-rule="evenodd" clip-rule="evenodd" d="M83.4961 10.0508V30.0618H87.2204V22.6468H97.1239V19.1545H87.2204V13.6863H97.6881V10.0508H83.4961Z" fill="#141A1F"/>
<path fill-rule="evenodd" clip-rule="evenodd" d="M107.204 22.7616L110.872 14.212L114.541 22.7616H107.204ZM108.841 9.99316L99.9805 30.0619H104.015L105.709 26.2831H116.036L117.701 30.0619H121.764L112.904 9.99316H108.841Z" fill="#141A1F"/>
<path fill-rule="evenodd" clip-rule="evenodd" d="M24.7138 13.574L21.5631 19.0617H27.8638L24.7138 13.574ZM12.0387 20.8052L15.4017 26.3151L15.425 26.2739V26.2746L18.565 20.8052H12.0387ZM13.878 27.1435L10.6644 21.8794L7.64287 27.1435H13.878ZM7.64287 28.8869L10.7923 34.3753L13.9303 28.8869H7.64287ZM9.29697 35.2417L6.14568 29.752L2.99439 35.2417H9.29697ZM24.7214 29.7558L21.5631 35.2569H27.867L24.7214 29.7558ZM25.7189 28.0136L25.7201 28.0155L25.7189 28.0181L30.109 35.6961L30.8551 37.001H19.5669L19.3154 36.5618L15.425 29.7565L11.5421 36.5459L11.2913 36.9851H0L0.748597 35.6809L9.78848 19.9332L0.816652 4.30526L0.0680543 3.00098H20.6375L20.8895 3.44017L30.109 19.5016L30.3573 19.9332L30.109 20.366L25.7189 28.0136ZM21.5808 20.8052L24.7226 26.2777L27.8638 20.8052H21.5808ZM23.2223 27.1435L20.0729 21.657L16.9235 27.1435H23.2223ZM20.064 34.3886L23.2223 28.8869H16.9191L20.064 34.3886ZM18.3728 19.0617L15.1994 13.5334L12.0261 19.0617H18.3728ZM16.8 12.842L19.9683 18.3614L23.1359 12.842H16.8ZM10.6568 17.9748L13.6033 12.842H7.7103L10.6568 17.9748ZM18.2512 4.74445H11.5982L15.1515 10.1447L18.2512 4.74445ZM16.5971 11.0985H23.2922L19.9443 5.26667L16.5971 11.0985ZM8.0052 11.0985H13.7047L10.641 6.4423L8.0052 11.0985ZM3.06181 4.74445L6.36056 10.4901L9.61267 4.74445H3.06181Z" fill="#08B09C"/>
</svg>
