<svg width="130" height="40" viewBox="0 0 130 40" fill="none" xmlns="http://www.w3.org/2000/svg">
<path d="M6.76614 19.0504C3.02894 19.0504 0 16.0087 0 12.2557C0 8.50388 3.02894 5.46094 6.76614 5.46094C10.5021 5.46094 13.5323 8.50268 13.5323 12.2557C13.5323 18.3272 18.4328 23.2484 24.4787 23.2484C30.5246 23.2484 35.4252 18.3272 35.4252 12.2557C35.4252 8.50388 38.4541 5.46094 42.1913 5.46094C45.9285 5.46094 48.9574 8.50268 48.9574 12.2557C48.9574 16.0087 45.9285 19.0504 42.1913 19.0504C36.1454 19.0504 31.2449 23.9717 31.2449 30.0432C31.2449 33.795 28.2159 36.8379 24.4787 36.8379C20.7415 36.8379 17.7126 33.7962 17.7126 30.0432C17.7126 23.9717 12.8121 19.0504 6.76614 19.0504Z" fill="#231F20"/>
<path d="M42.1919 36.8375C45.9288 36.8375 48.9581 33.7954 48.9581 30.0428C48.9581 26.2902 45.9288 23.248 42.1919 23.248C38.4551 23.248 35.4258 26.2902 35.4258 30.0428C35.4258 33.7954 38.4551 36.8375 42.1919 36.8375Z" fill="#E11A27"/>
<path d="M6.76614 36.8375C10.503 36.8375 13.5323 33.7954 13.5323 30.0428C13.5323 26.2902 10.503 23.248 6.76614 23.248C3.0293 23.248 0 26.2902 0 30.0428C0 33.7954 3.0293 36.8375 6.76614 36.8375Z" fill="#231F20"/>
<path d="M24.4771 19.0504C28.2139 19.0504 31.2432 16.0083 31.2432 12.2557C31.2432 8.50305 28.2139 5.46094 24.4771 5.46094C20.7402 5.46094 17.7109 8.50305 17.7109 12.2557C17.7109 16.0083 20.7402 19.0504 24.4771 19.0504Z" fill="#231F20"/>
<path d="M59.8471 15.5584H56.7656V5.46169H59.8471V7.14448C60.5494 6.07699 61.6494 5.35254 63.0003 5.35254V8.62817H62.1534C60.6939 8.62817 59.8471 9.13433 59.8471 10.8723V15.5596V15.5584Z" fill="#231F20"/>
<path d="M69.2001 8.01272C68.0463 8.01272 67.0012 8.8811 67.0012 10.4919C67.0012 12.1028 68.0463 13.0071 69.2001 13.0071C70.3538 13.0071 71.3977 12.1207 71.3977 10.5099C71.3977 8.89909 70.3706 8.01272 69.2001 8.01272ZM68.2995 5.31641C69.7949 5.31641 70.8579 6.00368 71.3989 6.89005V5.46034H74.4804V15.5583H71.3989V14.1286C70.84 15.015 69.777 15.7022 68.2816 15.7022C65.8307 15.7022 63.8672 13.6764 63.8672 10.4907C63.8672 7.30505 65.8307 5.31641 68.3007 5.31641H68.2995Z" fill="#231F20"/>
<path d="M110.27 15.5577H107.188V14.1832C106.575 15.0515 105.494 15.6668 104.142 15.6668C101.818 15.6668 100.25 14.056 100.25 11.3597V5.46094H103.314V10.9435C103.314 12.3193 104.089 13.0785 105.241 13.0785C106.394 13.0785 107.187 12.3181 107.187 10.9435V5.46094H110.268V15.5577H110.27Z" fill="#231F20"/>
<path d="M112.968 8.03039H111.742V5.46122H112.968V3H116.049V5.46122H118.068V8.03039H116.049V12.0832C116.049 12.6806 116.301 12.9336 116.986 12.9336H118.086V15.558H116.517C114.427 15.558 112.968 14.6716 112.968 12.0473V8.03039Z" fill="#231F20"/>
<path d="M124.52 8.01272C123.367 8.01272 122.322 8.8811 122.322 10.4919C122.322 12.1028 123.367 13.0071 124.52 13.0071C125.674 13.0071 126.719 12.1207 126.719 10.5099C126.719 8.89909 125.692 8.01272 124.52 8.01272ZM123.62 5.31641C125.115 5.31641 126.178 6.00368 126.719 6.89005V5.46034H129.801V15.5583H126.719V14.1286C126.16 15.015 125.097 15.7022 123.602 15.7022C121.151 15.7022 119.188 13.6764 119.188 10.4907C119.188 7.30505 121.151 5.31641 123.62 5.31641Z" fill="#231F20"/>
<path d="M81.9773 8.01271C80.8235 8.01271 79.7784 8.89909 79.7784 10.5099C79.7784 12.1207 80.8235 13.0071 81.9773 13.0071C83.131 13.0071 84.194 12.1028 84.194 10.4919C84.194 8.8811 83.1489 8.01271 81.9773 8.01271ZM82.8957 5.31641C85.3645 5.31641 87.3281 7.30625 87.3281 10.4907C87.3281 13.6752 85.3645 15.7022 82.8957 15.7022C81.4183 15.7022 80.3553 14.997 79.7963 14.1466V20.3716H76.7148V5.46154H79.7963V6.89125C80.3553 6.00488 81.4183 5.31761 82.8957 5.31761V5.31641Z" fill="#231F20"/>
<path d="M95.8853 5.46094H99.2188L92.9125 20.353H89.5969L91.9032 15.2135L87.8125 5.46094H91.2547L93.5789 11.7759L95.8853 5.46094Z" fill="#231F20"/>
<path d="M58.4055 36.837H56.7656V26.9213H58.4055V28.5322C58.9645 27.4287 60.0275 26.7402 61.5945 26.7402V28.441H61.1621C59.5939 28.441 58.4055 29.1463 58.4055 31.4456V36.8382V36.837Z" fill="#231F20"/>
<path d="M67.5603 35.5522C69.2718 35.5522 70.9475 34.3756 70.9475 31.8604C70.9475 29.3452 69.3076 28.1866 67.614 28.1866C65.9204 28.1866 64.3163 29.3632 64.3163 31.8604C64.3163 34.3576 65.8475 35.5522 67.5603 35.5522ZM67.5603 36.9999C64.7678 36.9999 62.6406 35.0101 62.6406 31.8604C62.6406 28.7107 64.8395 26.7568 67.6319 26.7568C70.4244 26.7568 72.6232 28.7287 72.6232 31.8604C72.6232 34.9921 70.3706 36.9999 67.5603 36.9999Z" fill="#231F20"/>
<path d="M79.6526 28.1864C77.8682 28.1864 76.3012 29.561 76.3012 31.8603C76.3012 34.1596 77.8694 35.5521 79.6526 35.5521C81.4358 35.5521 83.0041 34.1775 83.0041 31.8423C83.0041 29.507 81.4717 28.1864 79.6526 28.1864ZM79.9942 26.7567C82.6613 26.7567 84.6798 28.7466 84.6798 31.8411C84.6798 34.9356 82.6434 36.9986 79.9942 36.9986C78.1931 36.9986 76.9128 36.0942 76.3 35.0087V36.8367H74.6602V23.4463H76.3V28.7657C76.9307 27.6623 78.2457 26.7567 79.9942 26.7567Z" fill="#231F20"/>
<path d="M91.6345 35.5522C93.346 35.5522 95.0217 34.3756 95.0217 31.8604C95.0217 29.3452 93.3818 28.1866 91.6882 28.1866C89.9946 28.1866 88.3906 29.3632 88.3906 31.8604C88.3906 34.3576 89.9217 35.5522 91.6333 35.5522H91.6345ZM91.6345 36.9999C88.842 36.9999 86.7148 35.0101 86.7148 31.8604C86.7148 28.7107 88.9137 26.7568 91.7061 26.7568C94.4986 26.7568 96.6974 28.7287 96.6974 31.8604C96.6974 34.9921 94.4448 36.9999 91.6345 36.9999Z" fill="#231F20"/>
<path d="M99.5253 28.2776H98.2461V26.921H99.5253V24.4238H101.165V26.921H103.743V28.2776H101.165V34.1224C101.165 35.0999 101.526 35.443 102.535 35.443H103.743V36.8367H102.265C100.517 36.8367 99.5265 36.1134 99.5265 34.1224V28.2776H99.5253Z" fill="#231F20"/>
<path d="M106.879 26.9202H108.519V36.8358H106.879V26.9202ZM106.609 24.1879C106.609 23.5546 107.095 23.0664 107.726 23.0664C108.321 23.0664 108.807 23.5546 108.807 24.1879C108.807 24.8212 108.321 25.3105 107.726 25.3105C107.095 25.3105 106.609 24.8212 106.609 24.1879Z" fill="#231F20"/>
<path d="M115.979 26.7568C118.43 26.7568 120.034 28.0234 120.538 30.1044H118.771C118.429 28.9098 117.438 28.1506 115.979 28.1506C114.177 28.1506 112.844 29.4352 112.844 31.8604C112.844 34.2856 114.177 35.6062 115.979 35.6062C117.438 35.6062 118.412 34.9009 118.771 33.6523H120.538C120.034 35.6254 118.43 36.9999 115.979 36.9999C113.167 36.9999 111.168 35.0101 111.168 31.8604C111.168 28.7107 113.169 26.7568 115.979 26.7568Z" fill="#231F20"/>
<path d="M126.395 36.9987C124.089 36.9987 122.467 35.7321 122.359 33.9222H124.053C124.143 34.8805 124.989 35.605 126.377 35.605C127.674 35.605 128.396 34.9537 128.396 34.1393C128.396 31.9312 122.558 33.2169 122.558 29.5251C122.558 28.0054 123.981 26.7568 126.179 26.7568C128.377 26.7568 129.802 27.9335 129.909 29.8693H128.269C128.197 28.8738 127.44 28.1494 126.124 28.1494C124.917 28.1494 124.196 28.7287 124.196 29.5251C124.196 31.8772 129.927 30.5926 129.999 34.1393C129.999 35.7681 128.575 36.9987 126.394 36.9987H126.395Z" fill="#231F20"/>
</svg>
