<svg width="168" height="33" viewBox="0 0 168 33" fill="none" xmlns="http://www.w3.org/2000/svg">
<path d="M40.5997 8.77377C39.0129 8.77377 37.3362 9.5542 36.2884 10.7549H36.2285V3.2207H33.3242V25.1328H35.9889V23.602H36.0488C37.0667 24.7726 38.923 25.5831 40.5399 25.5831C44.7313 25.5831 47.426 22.2812 47.426 17.1784C47.426 12.2257 44.6117 8.77377 40.5997 8.77377ZM40.0907 22.9416C37.9051 22.9416 36.2285 21.4408 36.2285 19.4597V15.1973C36.2285 13.0661 37.9051 11.4452 40.0907 11.4452C42.9349 11.4452 44.5217 13.5164 44.5217 17.1784C44.5217 20.8705 42.9349 22.9416 40.0907 22.9416Z" fill="#00C805"/>
<path d="M23.8927 8.77246C19.5812 8.77246 16.6172 12.2244 16.6172 17.1771C16.6172 22.25 19.4914 25.5818 23.8927 25.5818C28.234 25.5818 31.0782 22.25 31.0782 17.1771C31.0782 12.2244 28.144 8.77246 23.8927 8.77246ZM23.8927 22.9403C21.1681 22.9403 19.4914 20.719 19.4914 17.1771C19.4914 13.6351 21.1681 11.4439 23.8927 11.4439C26.5273 11.4439 28.2041 13.6952 28.2041 17.1771C28.2041 20.6891 26.5273 22.9403 23.8927 22.9403Z" fill="#00C805"/>
<path d="M15.2694 10.2144C15.2694 6.4924 12.5149 4.12109 8.20355 4.12109H0V25.1327H2.99399V16.8181H7.27541C10.5688 16.8181 11.7664 18.1388 11.7664 21.8008V25.1327H14.6706V21.8008C14.6706 18.448 13.6526 16.4549 11.4341 15.6355C13.7065 14.837 15.2694 12.958 15.2694 10.2144ZM7.96405 14.1466H2.99399V6.85259H7.93411C10.7784 6.85259 12.2455 8.08327 12.2455 10.5146C12.2455 12.8559 10.7485 14.1466 7.96405 14.1466Z" fill="#00C805"/>
<path d="M63.261 8.77246C61.5844 8.77246 59.788 9.58291 58.9197 10.7536H58.8599V9.22272H56.0156V25.1316H58.9197V15.136C58.9197 12.8847 60.3868 11.474 62.6923 11.474C64.9677 11.474 66.0454 12.7947 66.0454 15.5562V25.1316H68.9796V14.7158C68.9796 11.0537 66.7641 8.77246 63.261 8.77246Z" fill="#00C805"/>
<path d="M110.627 8.77246C106.315 8.77246 103.352 12.2244 103.352 17.1771C103.352 22.25 106.226 25.5818 110.627 25.5818C114.968 25.5818 117.813 22.25 117.813 17.1771C117.813 12.2244 114.878 8.77246 110.627 8.77246ZM110.627 22.9403C107.902 22.9403 106.226 20.719 106.226 17.1771C106.226 13.6351 107.902 11.4439 110.627 11.4439C113.262 11.4439 114.938 13.6952 114.938 17.1771C114.938 20.6891 113.262 22.9403 110.627 22.9403Z" fill="#00C805"/>
<path d="M130.807 3.2207V10.7549H130.747C129.699 9.52419 128.053 8.77377 126.466 8.77377C122.454 8.77377 119.609 12.2857 119.609 17.1784C119.609 22.2812 122.304 25.5831 126.496 25.5831C128.112 25.5831 129.969 24.7726 130.987 23.602H131.046V25.1328H133.711V3.2207H130.807ZM130.807 19.4597C130.807 21.4408 129.13 22.9416 126.945 22.9416C124.1 22.9416 122.514 20.8705 122.514 17.1784C122.514 13.5164 124.1 11.4452 126.945 11.4452C129.13 11.4452 130.807 13.0661 130.807 15.1973V19.4597Z" fill="#00C805"/>
<path d="M94.369 8.77246C90.0577 8.77246 87.0938 12.2244 87.0938 17.1771C87.0938 22.25 89.9679 25.5818 94.369 25.5818C98.7105 25.5818 101.555 22.25 101.555 17.1771C101.555 12.2244 98.6206 8.77246 94.369 8.77246ZM94.369 22.9403C91.6447 22.9403 89.9679 20.719 89.9679 17.1771C89.9679 13.6351 91.6447 11.4439 94.369 11.4439C97.0039 11.4439 98.6804 13.6952 98.6804 17.1771C98.6804 20.6891 97.0039 22.9403 94.369 22.9403Z" fill="#00C805"/>
<path d="M52.8429 3.2207H49.6992V6.3124H52.8429V3.2207Z" fill="#00C805"/>
<path d="M79.3379 8.77377C77.5714 8.77377 75.775 9.61423 74.9366 10.8149H74.8767V3.2207H71.9727V25.1328H74.8767V15.1373C74.8767 12.9761 76.4336 11.4753 78.6491 11.4753C80.8347 11.4753 82.0922 12.916 82.0922 15.4074V25.1328H84.9965V14.687C84.9965 11.055 82.8109 8.77377 79.3379 8.77377Z" fill="#00C805"/>
<path d="M52.7244 9.22363H49.8203V25.1323H52.7244V9.22363Z" fill="#00C805"/>
<path d="M153.738 25.8894L153.519 25.9614C152.112 26.4298 150.031 27.1531 148.163 28.0146C148.064 28.0625 147.998 28.1948 147.998 28.1948C147.962 28.2758 147.92 28.3749 147.872 28.486L147.866 28.5008C147.657 28.9783 147.369 29.6955 147.244 29.9898L147.148 30.2209C147.133 30.2569 147.142 30.2989 147.172 30.3259C147.19 30.344 147.211 30.3529 147.235 30.3529C147.247 30.3529 147.262 30.3499 147.276 30.344L147.501 30.2359C148.013 29.9927 148.66 29.6234 149.336 29.2993L149.36 29.2873C150.651 28.675 152.106 27.9815 152.983 27.5613C152.983 27.5613 153.124 27.4864 153.196 27.3453L153.851 26.0246C153.869 25.9915 153.863 25.9495 153.839 25.9194C153.812 25.8894 153.773 25.8774 153.738 25.8894Z" fill="#00C805"/>
<path d="M148.492 23.8449C148.585 23.6647 149.01 22.8422 149.106 22.6591L149.124 22.6262C151.974 17.2382 155.447 12.1534 159.444 7.51881L159.555 7.38973C159.588 7.35072 159.594 7.29067 159.57 7.24564C159.543 7.19761 159.492 7.17361 159.441 7.17962L159.273 7.20362C156.651 7.56682 153.995 8.06811 151.378 8.69545C151.118 8.76749 150.95 8.93859 150.914 8.9776C148.956 11.3279 147.103 13.8013 145.402 16.3377C145.318 16.4667 145.288 16.6348 145.309 16.7729C145.327 16.908 145.737 20.0747 146.36 22.5061C144.815 26.9636 143.435 32.8378 143.435 32.8378C143.423 32.8768 143.432 32.9158 143.453 32.9489C143.477 32.9818 143.513 32.9999 143.555 32.9999H144.435C144.492 32.9999 144.54 32.9668 144.561 32.9158L144.621 32.7507C145.519 30.2954 146.543 27.87 147.675 25.5047C147.935 24.9553 148.492 23.8449 148.492 23.8449Z" fill="#00C805"/>
<path d="M160.734 8.48217L160.731 8.31407C160.728 8.26005 160.695 8.21501 160.647 8.19702C160.599 8.179 160.543 8.19401 160.507 8.23302L160.396 8.3591C155.734 13.7651 151.815 19.7624 148.749 26.1888L148.677 26.3391C148.654 26.3871 148.662 26.4441 148.698 26.4831C148.722 26.5071 148.755 26.5221 148.788 26.5221C148.803 26.5221 148.821 26.5191 148.839 26.5132L148.992 26.45C151.612 25.3635 154.285 24.421 156.941 23.6495C157.1 23.6046 157.234 23.4905 157.309 23.3434C158.474 21.0681 161.177 16.6617 161.177 16.6617C161.246 16.5626 161.228 16.4155 161.228 16.4155C161.228 16.4155 160.764 11.1476 160.734 8.48217Z" fill="#00C805"/>
<path d="M166.763 0.881571C166.101 0.305253 165.14 0.0351046 163.649 0.00208627C162.296 -0.0279303 160.688 0.266232 158.865 0.866563C158.592 0.962617 158.374 1.1157 158.179 1.3048C156.326 3.04877 154.523 4.90079 152.82 6.80985L152.688 6.95392C152.652 6.99594 152.646 7.05599 152.673 7.10101C152.7 7.14902 152.757 7.17305 152.811 7.16104L153.002 7.11901C155.748 6.53069 158.52 6.08044 161.242 5.78329C161.421 5.76227 161.607 5.8223 161.739 5.94537C161.874 6.06844 161.948 6.24552 161.945 6.42862C161.901 9.13613 161.999 11.8556 162.239 14.5121L162.254 14.6862C162.26 14.7402 162.296 14.7822 162.35 14.7973C162.359 14.8002 162.368 14.8002 162.379 14.8033C162.418 14.8033 162.46 14.7852 162.487 14.7492L162.586 14.6082C164.119 12.4169 165.787 10.2858 167.541 8.26864C167.739 8.04352 167.79 7.90244 167.826 7.69834C168.376 4.16238 167.526 1.54494 166.763 0.881571Z" fill="#00C805"/>
</svg>
