<svg xmlns="http://www.w3.org/2000/svg" fill="none" viewBox="0 0 159 17"><g fill="#000" clip-path="url(#a)"><path d="M6.202 16.813c2.76 0 5.028-.938 5.39-3.485.188-1.318.051-2.182-.012-2.501-.644-3.196-6.435-4.149-6.866-5.936a1.9 1.9 0 0 1-.012-.8c.106-.49.438-1.027 1.393-1.027.895 0 1.415.553 1.415 1.381v.946h3.809V4.319c0-3.32-2.983-3.84-5.14-3.84-2.717 0-4.932.897-5.337 3.389-.107.681-.124 1.29.038 2.055.664 3.115 6.082 4.02 6.87 5.99.147.37.102.842.03 1.129-.123.51-.468 1.029-1.484 1.029-.953 0-1.534-.553-1.534-1.382v-1.477H.667v1.173c0 3.404 2.676 4.43 5.545 4.43h-.01zm14.17-14.441h.086l2.032 13.843h4.1L23.779.955l-6.785.006-2.83 15.254h4.12zm13.175.13h.084l2.55 13.713h3.872L42.6 2.507h.083l.1 13.708h3.81L46.26.955l-6.22.006-1.882 11.663h-.086L36.193.96H29.97l-.337 15.254h3.82l.093-13.713zm27.644 10.793c.188-1.317.05-2.182-.013-2.5-.643-3.197-6.434-4.15-6.865-5.936a1.9 1.9 0 0 1-.013-.801c.107-.49.439-1.026 1.394-1.026.895 0 1.414.552 1.414 1.38v.946h3.81V4.286c0-3.322-2.983-3.842-5.14-3.842-2.717 0-4.932.9-5.337 3.391-.107.682-.125 1.29.038 2.055.664 3.115 6.082 4.02 6.87 5.991.147.37.102.842.03 1.128-.124.51-.468 1.029-1.485 1.029-.953 0-1.533-.553-1.533-1.381v-1.478h-4.093v1.174c0 3.403 2.676 4.43 5.545 4.43 2.87 0 5.028-.938 5.39-3.485h-.01zm40.8-3.428h1.566v2.22c0 .19-.002.405-.038.572-.066.413-.456 1.11-1.558 1.11s-1.488-.697-1.561-1.107a3.5 3.5 0 0 1-.038-.58V5.107c0-.248.017-.52.063-.72.084-.375.408-1.11 1.518-1.11 1.166 0 1.455.776 1.526 1.11.048.22.048.58.048.58v.855h3.844V5.31s.013-.517-.038-1.004c-.279-2.858-2.651-3.768-5.355-3.768s-5.015.915-5.355 3.77c-.03.252-.063.73-.063 1.004v6.417c0 .284.01.492.053 1.004.256 2.78 2.661 3.77 5.365 3.77s5.117-.993 5.365-3.77c.049-.51.054-.717.054-1.004V7.64h-5.406v2.22l.008.008zM83.298 3.665h.084l3.763 12.39h5.434V.96h-3.78l.209 11.974h-.081L85.417.961h-5.66v15.094h3.749zM70.145 16.67c2.803 0 5.053-.924 5.325-3.77.022-.335.037-.667.037-1.004V.961h-3.862v11.282c0 .198-.002.419-.038.583-.073.373-.403 1.103-1.462 1.103-1.06 0-1.394-.73-1.465-1.103a3 3 0 0 1-.038-.588V.956H64.78v10.94c-.003.28.023.852.038 1.004.268 2.846 2.519 3.77 5.327 3.77M146.483.542q-1.244.01-2.486 0c-.19-.003-.231.06-.228.238.005 1.51.002 3.023.002 4.534 0 .073-.007.147-.013.218l-.05.015a6 6 0 0 0-.155-.18 4.4 4.4 0 0 0-1.46-1.014c-1.632-.704-3.282-.664-4.886.036-2.2.96-3.403 2.691-3.647 5.074-.152 1.477.076 2.896.92 4.148 1.47 2.185 3.548 3.11 6.154 2.79 1.181-.144 2.194-.676 3.01-1.556.038-.04.082-.076.155-.142v1.739c.058.01.084.018.109.018q1.31-.001 2.626.005c.162 0 .162-.084.162-.2l.002-15.513c0-.17-.058-.21-.215-.208zM143.794 11.2c-.418 1.275-1.249 2.157-2.565 2.481-1.576.39-2.955.005-4.045-1.237-.534-.61-.811-1.442-.808-2.313-.013-1.845 1.325-3.216 2.978-3.546 1.085-.215 2.093-.046 3.021.565 1.274.84 1.895 2.6 1.419 4.05M127.23.932c-.051-.141-.122-.174-.258-.174-.801.005-1.605.002-2.408.002-.345 0-.34 0-.454.324-.479 1.356-4.589 12.902-5.248 14.758-.071.195-.135.395-.206.6.056.01.082.018.107.018q1.39-.001 2.785.005c.132 0 .167-.073.203-.172.279-.816.565-1.627.836-2.446.046-.14.112-.182.254-.18q2.863.008 5.727 0c.134 0 .198.04.243.17.277.816.563 1.627.839 2.446.046.134.104.187.251.185.882-.008 1.764-.003 2.646-.003.058 0 .117-.005.195-.013-.012-.055-.012-.083-.023-.106-.552-1.554-4.822-13.53-5.486-15.411zm-3.586 9.927c.684-1.974 1.361-3.928 2.035-5.88h.058c.677 1.952 1.351 3.903 2.038 5.88zm33.762-.973c-.857-.484-1.797-.694-2.742-.91a37 37 0 0 1-2.289-.582c-.697-.21-.915-.897-.476-1.447.152-.19.36-.38.583-.459 1.084-.393 2.141-.317 3.112.335.307.205.55.506.841.78l2.393-1.133c-.026-.056-.041-.094-.061-.126-.596-.915-1.384-1.617-2.4-2.01-1.582-.61-3.198-.644-4.81-.127-.966.31-1.782.862-2.314 1.749-.626 1.036-.667 2.118-.056 3.17.489.842 1.303 1.303 2.208 1.554.98.273 1.984.466 2.977.694.5.114.991.238 1.422.54.261.182.36.426.322.737-.063.502-.362.83-.788 1.055-.505.268-1.054.291-1.609.258-1.156-.063-2.074-.552-2.689-1.55-.069-.112-.127-.143-.254-.085-.443.208-.894.406-1.34.606-.386.172-.771.35-1.179.532.621 1.181 1.5 2.046 2.719 2.517 1.541.595 3.135.669 4.729.266 1.225-.312 2.236-.973 2.862-2.114.768-1.398.603-3.261-1.159-4.252z"/></g><defs><clipPath id="a"><path fill="#fff" d="M.667.443H159v16.364H.667z"/></clipPath></defs></svg>