<?xml version="1.0" encoding="UTF-8"?>
<svg xmlns="http://www.w3.org/2000/svg" xmlns:xlink="http://www.w3.org/1999/xlink" width="577px" height="577px" viewBox="0 0 289 289" version="1.1">
<defs>
<filter id="alpha" filterUnits="objectBoundingBox" x="0%" y="0%" width="100%" height="100%">
  <feColorMatrix type="matrix" in="SourceGraphic" values="0 0 0 0 1 0 0 0 0 1 0 0 0 0 1 0 0 0 1 0"/>
</filter>
<mask id="mask0">
  <g filter="url(#alpha)">
<rect x="0" y="0" width="289" height="289" style="fill:rgb(0%,0%,0%);fill-opacity:0.913725;stroke:none;"/>
  </g>
</mask>
<clipPath id="clip1">
  <rect x="0" y="0" width="289" height="289"/>
</clipPath>
<g id="surface5" clip-path="url(#clip1)">
<path style=" stroke:none;fill-rule:evenodd;fill:rgb(1.960784%,1.960784%,1.568627%);fill-opacity:1;" d="M 108.4375 -0.25 C 110.105469 -0.25 111.777344 -0.25 113.445312 -0.25 C 115.324219 0.960938 116.660156 2.632812 117.453125 4.757812 C 125.578125 0.976562 134.09375 -0.273438 142.996094 1 C 156.625 4.710938 170.148438 8.714844 183.566406 13.023438 C 185.921875 13.90625 188.175781 14.992188 190.328125 16.277344 C 191.785156 11.441406 194.207031 7.183594 197.59375 3.507812 C 202.125 0.617188 205.878906 1.367188 208.863281 5.761719 C 209.257812 7.976562 209.089844 10.148438 208.359375 12.269531 C 205.878906 17.148438 203.457031 22.074219 201.097656 27.046875 C 206.097656 32.851562 208.851562 39.613281 209.363281 47.332031 C 210.875 48.683594 211.875 50.355469 212.367188 52.339844 C 213.972656 56.777344 214.304688 61.285156 213.371094 65.863281 C 213.050781 66.597656 212.632812 67.265625 212.117188 67.867188 C 221.265625 86.199219 219.761719 103.5625 207.609375 119.957031 C 224.96875 136.234375 238.074219 155.433594 246.925781 177.558594 C 251.761719 191.570312 252.429688 205.761719 248.929688 220.128906 C 242.117188 236.605469 229.847656 243.53125 212.117188 240.917969 C 204.5 239.410156 197.488281 236.488281 191.082031 232.152344 C 189.078125 233.988281 187.074219 235.824219 185.070312 237.660156 C 184.921875 249.851562 185.339844 262.039062 186.324219 274.222656 C 189.113281 277.640625 191.785156 281.144531 194.335938 284.742188 C 194.570312 286.601562 193.820312 287.9375 192.082031 288.75 C 190.246094 288.75 188.410156 288.75 186.574219 288.75 C 183.097656 285.863281 179.675781 282.859375 176.304688 279.734375 C 176.070312 278.859375 175.734375 278.023438 175.304688 277.230469 C 174.519531 266.539062 173.6875 255.855469 172.800781 245.175781 C 159.839844 250.8125 146.402344 252.230469 132.480469 249.429688 C 128.65625 248.605469 124.984375 247.351562 121.460938 245.675781 C 120.515625 256.527344 119.597656 267.378906 118.707031 278.230469 C 117.953125 279.316406 117.203125 280.402344 116.453125 281.488281 C 113.667969 284.191406 110.660156 286.609375 107.4375 288.75 C 105.597656 288.75 103.761719 288.75 101.925781 288.75 C 101.519531 288.078125 100.933594 287.578125 100.171875 287.246094 C 99.839844 286.246094 99.839844 285.242188 100.171875 284.242188 C 102.675781 281.070312 105.183594 277.898438 107.6875 274.726562 C 108.675781 262.382812 109.34375 250.027344 109.691406 237.660156 C 105.984375 234.085938 102.394531 230.410156 98.921875 226.640625 C 92.492188 231.863281 85.3125 235.785156 77.382812 238.414062 C 57.5 242.621094 44.558594 235.023438 38.566406 215.625 C 35.671875 198.757812 37.84375 182.5625 45.078125 167.039062 C 50.878906 154.59375 58.058594 143.074219 66.617188 132.480469 C 73.949219 124.226562 81.546875 116.210938 89.40625 108.4375 C 85.449219 98.460938 84.863281 88.277344 87.652344 77.882812 C 88.886719 73.660156 90.472656 69.570312 92.410156 65.613281 C 91.765625 63.5625 91.265625 61.476562 90.90625 59.351562 C 85.902344 64.773438 80.980469 70.285156 76.132812 75.882812 C 76.492188 77.445312 77.160156 78.949219 78.136719 80.390625 C 78.867188 83.878906 78.199219 87.050781 76.132812 89.90625 C 74.210938 92.492188 71.957031 94.746094 69.371094 96.667969 C 64.308594 99.503906 59.300781 99.335938 54.34375 96.167969 C 51.53125 92.917969 50.613281 89.160156 51.589844 84.898438 C 53.125 77.933594 57.382812 73.761719 64.363281 72.375 C 70.132812 62.683594 76.390625 53.335938 83.144531 44.328125 C 87.511719 35.085938 92.519531 26.238281 98.167969 17.78125 C 99.503906 16.445312 100.839844 15.109375 102.175781 13.773438 C 102.210938 10.519531 102.710938 7.347656 103.679688 4.257812 C 104.882812 2.300781 106.46875 0.796875 108.4375 -0.25 Z M 108.4375 -0.25 "/>
</g>
</defs>
<g id="surface1">
<use xlink:href="#surface5" mask="url(#mask0)"/>
<path style=" stroke:none;fill-rule:evenodd;fill:rgb(23.529412%,23.921569%,23.921569%);fill-opacity:1;" d="M 112.945312 38.816406 C 111.394531 27.296875 109.894531 15.777344 108.4375 4.257812 C 108.484375 3.375 108.652344 2.542969 108.9375 1.753906 C 112.816406 0.1875 115.070312 1.523438 115.699219 5.761719 C 115.699219 16.804688 116.117188 27.824219 116.953125 38.816406 C 115.617188 38.816406 114.28125 38.816406 112.945312 38.816406 Z M 112.945312 38.816406 "/>
<path style=" stroke:none;fill-rule:evenodd;fill:rgb(10.196078%,10.196078%,10.196078%);fill-opacity:1;" d="M 108.9375 1.753906 C 108.652344 2.542969 108.484375 3.375 108.4375 4.257812 C 109.894531 15.777344 111.394531 27.296875 112.945312 38.816406 C 111.289062 39.09375 109.621094 39.261719 107.9375 39.316406 C 105.707031 30.703125 104.371094 21.9375 103.929688 13.023438 C 103.199219 8.707031 104.367188 5.035156 107.4375 2.003906 C 107.910156 1.761719 108.410156 1.679688 108.9375 1.753906 Z M 108.9375 1.753906 "/>
<path style=" stroke:none;fill-rule:evenodd;fill:rgb(90.196078%,17.254902%,19.607843%);fill-opacity:1;" d="M 185.570312 33.808594 C 167.625 28.941406 149.34375 26.433594 130.726562 26.296875 C 126.125 26.34375 121.535156 26.507812 116.953125 26.796875 C 116.785156 19.941406 116.953125 13.097656 117.453125 6.261719 C 125.890625 2.417969 134.742188 1.164062 144 2.503906 C 153.734375 5.25 163.417969 8.085938 173.050781 11.019531 C 178.496094 12.742188 183.839844 14.746094 189.078125 17.03125 C 189.613281 17.398438 189.949219 17.898438 190.078125 18.53125 C 188.292969 23.601562 186.789062 28.691406 185.570312 33.808594 Z M 185.570312 33.808594 "/>
<path style=" stroke:none;fill-rule:evenodd;fill:rgb(9.803922%,9.803922%,9.803922%);fill-opacity:1;" d="M 200.597656 3.757812 C 200.21875 7.070312 199.96875 10.410156 199.847656 13.773438 C 197.207031 22.355469 194.371094 30.871094 191.332031 39.316406 C 191.011719 40.203125 191.09375 41.035156 191.582031 41.824219 C 189.636719 41.167969 187.632812 40.835938 185.570312 40.820312 C 187.050781 31.5625 189.472656 22.546875 192.832031 13.773438 C 193.949219 11.152344 195.285156 8.648438 196.839844 6.261719 C 197.90625 5.105469 199.160156 4.269531 200.597656 3.757812 Z M 200.597656 3.757812 "/>
<path style=" stroke:none;fill-rule:evenodd;fill:rgb(23.921569%,24.313725%,24.313725%);fill-opacity:1;" d="M 191.582031 41.824219 C 191.09375 41.035156 191.011719 40.203125 191.332031 39.316406 C 194.371094 30.871094 197.207031 22.355469 199.847656 13.773438 C 199.96875 10.410156 200.21875 7.070312 200.597656 3.757812 C 205.855469 2.753906 208.109375 4.925781 207.359375 10.269531 C 204.199219 16.925781 201.023438 23.605469 197.84375 30.300781 C 196.132812 34.011719 194.878906 37.851562 194.085938 41.824219 C 193.25 41.824219 192.417969 41.824219 191.582031 41.824219 Z M 191.582031 41.824219 "/>
<path style=" stroke:none;fill-rule:evenodd;fill:rgb(88.235294%,16.862745%,19.215686%);fill-opacity:1;" d="M 103.929688 26.296875 C 104.074219 27.191406 103.90625 28.027344 103.429688 28.800781 C 101.15625 29.472656 98.984375 30.390625 96.917969 31.554688 C 94.710938 34.722656 91.871094 36.644531 88.402344 37.316406 C 90.828125 32.132812 93.582031 27.125 96.667969 22.289062 C 98.296875 19.65625 100.300781 17.320312 102.675781 15.277344 C 103.222656 18.9375 103.640625 22.609375 103.929688 26.296875 Z M 103.929688 26.296875 "/>
<path style=" stroke:none;fill-rule:evenodd;fill:rgb(78.431373%,12.941176%,17.647059%);fill-opacity:1;" d="M 185.570312 33.808594 C 185.027344 35.941406 184.695312 38.113281 184.570312 40.320312 C 178.238281 39.515625 171.890625 38.761719 165.535156 38.066406 C 157.351562 37.808594 149.171875 37.894531 140.992188 38.316406 C 133.480469 38.316406 125.96875 38.316406 118.453125 38.316406 C 118.574219 37.667969 118.40625 37.167969 117.953125 36.8125 C 117.230469 33.519531 116.894531 30.179688 116.953125 26.796875 C 121.535156 26.507812 126.125 26.34375 130.726562 26.296875 C 149.34375 26.433594 167.625 28.941406 185.570312 33.808594 Z M 185.570312 33.808594 "/>
<path style=" stroke:none;fill-rule:evenodd;fill:rgb(77.647059%,12.941176%,17.647059%);fill-opacity:1;" d="M 103.929688 26.296875 C 104.996094 30.730469 105.996094 35.238281 106.933594 39.820312 C 97.25 41.40625 91.992188 47.082031 91.15625 56.847656 C 85.730469 62.941406 80.304688 69.035156 74.878906 75.128906 C 71.972656 74.28125 68.96875 73.699219 65.863281 73.375 C 66.253906 71.558594 67.007812 69.890625 68.117188 68.367188 C 73.214844 60.515625 78.554688 52.832031 84.144531 45.328125 C 85.457031 42.53125 86.878906 39.859375 88.402344 37.316406 C 91.871094 36.644531 94.710938 34.722656 96.917969 31.554688 C 98.984375 30.390625 101.15625 29.472656 103.429688 28.800781 C 103.90625 28.027344 104.074219 27.191406 103.929688 26.296875 Z M 103.929688 26.296875 "/>
<path style=" stroke:none;fill-rule:evenodd;fill:rgb(87.843137%,16.862745%,19.215686%);fill-opacity:1;" d="M 206.609375 40.820312 C 203.769531 39.738281 200.683594 38.734375 197.339844 37.816406 C 196.824219 37.648438 196.574219 37.3125 196.589844 36.8125 C 197.390625 33.875 198.476562 31.035156 199.847656 28.300781 C 203.414062 31.761719 205.667969 35.9375 206.609375 40.820312 Z M 206.609375 40.820312 "/>
<path style=" stroke:none;fill-rule:evenodd;fill:rgb(75.686275%,12.54902%,16.862745%);fill-opacity:1;" d="M 196.589844 36.8125 C 196.574219 37.3125 196.824219 37.648438 197.339844 37.816406 C 200.683594 38.734375 203.769531 39.738281 206.609375 40.820312 C 207.398438 42.511719 207.734375 44.347656 207.609375 46.332031 C 203.207031 44.980469 198.867188 43.476562 194.585938 41.824219 C 195.167969 40.0625 195.835938 38.394531 196.589844 36.8125 Z M 196.589844 36.8125 "/>
<path style=" stroke:none;fill-rule:evenodd;fill:rgb(56.862745%,8.627451%,12.156863%);fill-opacity:1;" d="M 117.953125 36.8125 C 118.40625 37.167969 118.574219 37.667969 118.453125 38.316406 C 125.96875 38.316406 133.480469 38.316406 140.992188 38.316406 C 133.402344 38.816406 125.722656 38.980469 117.953125 38.816406 C 117.953125 38.148438 117.953125 37.480469 117.953125 36.8125 Z M 117.953125 36.8125 "/>
<path style=" stroke:none;fill-rule:evenodd;fill:rgb(98.823529%,98.823529%,98.823529%);fill-opacity:1;" d="M 145.5 38.816406 C 165.441406 38.148438 184.976562 40.570312 204.101562 46.078125 C 209.496094 48.085938 212.25 52.007812 212.367188 57.851562 C 212.703125 60.1875 212.703125 62.523438 212.367188 64.863281 C 211.921875 66.878906 210.671875 67.878906 208.609375 67.867188 C 205.394531 66.933594 202.222656 65.847656 199.09375 64.613281 C 197.121094 64.113281 195.117188 63.78125 193.085938 63.609375 C 182.902344 63.726562 172.71875 63.726562 162.53125 63.609375 C 150.074219 61.402344 137.550781 60.902344 124.964844 62.109375 C 116.253906 63.257812 107.570312 64.59375 98.921875 66.113281 C 94.742188 66.949219 92.65625 65.195312 92.660156 60.855469 C 91.015625 52.710938 93.769531 46.617188 100.925781 42.574219 C 104.105469 41.109375 107.445312 40.277344 110.941406 40.070312 C 122.550781 39.910156 134.070312 39.492188 145.5 38.816406 Z M 145.5 38.816406 "/>
<path style=" stroke:none;fill-rule:evenodd;fill:rgb(17.254902%,17.254902%,17.254902%);fill-opacity:1;" d="M 166.039062 100.421875 C 165.507812 101.539062 165.589844 102.707031 166.289062 103.929688 C 168.042969 107.695312 170.964844 110.117188 175.054688 111.191406 C 189.636719 112.707031 199.90625 106.78125 205.855469 93.410156 C 207.085938 89.164062 207.421875 84.824219 206.859375 80.390625 C 206.664062 78.835938 206.078125 77.5 205.105469 76.382812 C 202.898438 69.925781 198.390625 66 191.582031 64.613281 C 196.832031 64.914062 201.839844 66.25 206.609375 68.617188 C 208.238281 68.726562 209.824219 68.976562 211.367188 69.371094 C 217.367188 81.265625 218.121094 93.453125 213.621094 105.933594 C 208.609375 114.296875 201.429688 120.054688 192.082031 123.214844 C 178.574219 127.664062 164.71875 129.335938 150.511719 128.222656 C 135.019531 127.898438 120.492188 124.058594 106.933594 116.703125 C 90.761719 105.878906 85.585938 91.101562 91.40625 72.375 C 91.796875 70.261719 92.714844 68.425781 94.164062 66.867188 C 95.144531 67.140625 96.144531 67.308594 97.167969 67.367188 C 100.902344 66.589844 104.65625 66.171875 108.4375 66.113281 C 106.707031 67.746094 105.539062 69.664062 104.929688 71.875 C 104.777344 71.253906 104.527344 71.253906 104.179688 71.875 C 101.898438 77.519531 101.898438 83.195312 104.179688 88.902344 C 109.855469 100.925781 119.121094 108.523438 131.976562 111.691406 C 138.15625 112.503906 144 111.503906 149.507812 108.6875 C 152.675781 106.257812 154.011719 103.171875 153.515625 99.421875 C 154.628906 94.789062 153.875 90.449219 151.261719 86.398438 C 144.578125 76.417969 135.8125 68.820312 124.964844 63.609375 C 129.398438 62.640625 133.90625 62.222656 138.488281 62.359375 C 149.714844 62.929688 160.902344 63.929688 172.046875 65.363281 C 176.535156 64.699219 181.042969 64.449219 185.570312 64.613281 C 179.980469 68.03125 175.558594 72.625 172.296875 78.386719 C 169.507812 83.085938 167.503906 88.09375 166.289062 93.410156 C 166.039062 95.742188 165.953125 98.082031 166.039062 100.421875 Z M 166.039062 100.421875 "/>
<path style=" stroke:none;fill-rule:evenodd;fill:rgb(0%,94.117647%,71.372549%);fill-opacity:1;" d="M 167.039062 100.421875 C 166.890625 99.304688 167.058594 98.300781 167.539062 97.417969 C 169.152344 102.789062 172.742188 105.628906 178.308594 105.933594 C 191.78125 103.980469 199.378906 96.214844 201.097656 82.644531 C 200.476562 75.808594 197.722656 70.214844 192.832031 65.863281 C 202.253906 69.503906 206.09375 76.347656 204.355469 86.398438 C 201.992188 97.910156 195.230469 105.339844 184.070312 108.6875 C 178.289062 109.976562 173.195312 108.726562 168.792969 104.929688 C 167.921875 103.523438 167.335938 102.023438 167.039062 100.421875 Z M 167.039062 100.421875 "/>
<path style=" stroke:none;fill-rule:evenodd;fill:rgb(0%,94.117647%,71.764706%);fill-opacity:1;" d="M 111.945312 64.863281 C 112.46875 64.789062 112.972656 64.871094 113.445312 65.113281 C 109.207031 67.476562 107.453125 71.066406 108.1875 75.882812 C 112.109375 92.578125 122.546875 102.261719 139.492188 104.929688 C 146.707031 104.648438 151.128906 100.976562 152.765625 93.914062 C 153.449219 101.914062 149.859375 106.839844 141.996094 108.6875 C 124.011719 108.167969 112.074219 99.402344 106.183594 82.390625 C 104.953125 77.910156 105.285156 73.570312 107.183594 69.371094 C 108.390625 67.414062 109.976562 65.910156 111.945312 64.863281 Z M 111.945312 64.863281 "/>
<path style=" stroke:none;fill-rule:evenodd;fill:rgb(74.901961%,74.901961%,74.901961%);fill-opacity:1;" d="M 189.078125 70.371094 C 191.84375 70.644531 192.511719 71.894531 191.082031 74.128906 C 187.925781 74.375 187.257812 73.125 189.078125 70.371094 Z M 189.078125 70.371094 "/>
<path style=" stroke:none;fill-rule:evenodd;fill:rgb(73.72549%,73.72549%,73.72549%);fill-opacity:1;" d="M 119.957031 71.875 C 123.214844 71.691406 124.050781 72.945312 122.460938 75.628906 C 119.597656 75.832031 118.765625 74.578125 119.957031 71.875 Z M 119.957031 71.875 "/>
<path style=" stroke:none;fill-rule:evenodd;fill:rgb(34.117647%,34.117647%,34.509804%);fill-opacity:1;" d="M 104.929688 71.875 C 104.171875 87.136719 110.519531 98.40625 123.964844 105.683594 C 130.109375 109.050781 136.621094 110.21875 143.5 109.1875 C 148.742188 107.867188 152.082031 104.609375 153.515625 99.421875 C 154.011719 103.171875 152.675781 106.257812 149.507812 108.6875 C 144 111.503906 138.15625 112.503906 131.976562 111.691406 C 119.121094 108.523438 109.855469 100.925781 104.179688 88.902344 C 101.898438 83.195312 101.898438 77.519531 104.179688 71.875 C 104.527344 71.253906 104.777344 71.253906 104.929688 71.875 Z M 104.929688 71.875 "/>
<path style=" stroke:none;fill-rule:evenodd;fill:rgb(98.431373%,98.431373%,98.431373%);fill-opacity:1;" d="M 61.355469 74.378906 C 65.792969 73.828125 69.96875 74.578125 73.878906 76.632812 C 76.691406 79.121094 77.609375 82.210938 76.632812 85.898438 C 74.523438 89.707031 71.765625 92.960938 68.367188 95.664062 C 63.949219 98.050781 59.609375 97.882812 55.347656 95.164062 C 53.371094 93.164062 52.535156 90.742188 52.839844 87.902344 C 53.035156 81.664062 55.871094 77.15625 61.355469 74.378906 Z M 61.355469 74.378906 "/>
<path style=" stroke:none;fill-rule:evenodd;fill:rgb(11.372549%,11.372549%,11.372549%);fill-opacity:1;" d="M 91.40625 72.375 C 85.585938 91.101562 90.761719 105.878906 106.933594 116.703125 C 120.492188 124.058594 135.019531 127.898438 150.511719 128.222656 C 164.71875 129.335938 178.574219 127.664062 192.082031 123.214844 C 201.429688 120.054688 208.609375 114.296875 213.621094 105.933594 C 211.109375 112.703125 207.269531 118.632812 202.101562 123.714844 C 188.160156 135.875 171.882812 141.800781 153.265625 141.496094 C 135.898438 141.882812 120.121094 137.125 105.933594 127.21875 C 88.046875 112.347656 83.203125 94.066406 91.40625 72.375 Z M 91.40625 72.375 "/>
<path style=" stroke:none;fill-rule:evenodd;fill:rgb(33.333333%,33.333333%,33.72549%);fill-opacity:1;" d="M 205.105469 76.382812 C 206.078125 77.5 206.664062 78.835938 206.859375 80.390625 C 207.421875 84.824219 207.085938 89.164062 205.855469 93.410156 C 199.90625 106.78125 189.636719 112.707031 175.054688 111.191406 C 170.964844 110.117188 168.042969 107.695312 166.289062 103.929688 C 165.589844 102.707031 165.507812 101.539062 166.039062 100.421875 C 166.96875 105.746094 170.140625 108.832031 175.554688 109.691406 C 188.21875 110.914062 197.316406 105.820312 202.851562 94.414062 C 205.503906 88.640625 206.253906 82.628906 205.105469 76.382812 Z M 205.105469 76.382812 "/>
<path style=" stroke:none;fill-rule:evenodd;fill:rgb(0%,45.098039%,33.72549%);fill-opacity:1;" d="M 167.539062 97.417969 C 167.058594 98.300781 166.890625 99.304688 167.039062 100.421875 C 166.386719 99.160156 166.386719 97.824219 167.039062 96.417969 C 167.4375 96.644531 167.605469 96.980469 167.539062 97.417969 Z M 167.539062 97.417969 "/>
<path style=" stroke:none;fill-rule:evenodd;fill:rgb(40%,71.764706%,98.431373%);fill-opacity:1;" d="M 92.410156 113.945312 C 87.980469 119.382812 84.140625 125.226562 80.890625 131.476562 C 76.710938 132.007812 72.539062 132.507812 68.367188 132.980469 C 75.175781 124.917969 82.4375 117.238281 90.15625 109.941406 C 91.046875 111.222656 91.796875 112.558594 92.410156 113.945312 Z M 92.410156 113.945312 "/>
<path style=" stroke:none;fill-rule:evenodd;fill:rgb(25.490196%,65.490196%,92.54902%);fill-opacity:1;" d="M 92.410156 113.945312 C 93.523438 115.332031 94.527344 116.832031 95.414062 118.453125 C 92.46875 122.226562 89.964844 126.234375 87.902344 130.476562 C 85.566406 130.808594 83.226562 131.144531 80.890625 131.476562 C 84.140625 125.226562 87.980469 119.382812 92.410156 113.945312 Z M 92.410156 113.945312 "/>
<path style=" stroke:none;fill-rule:evenodd;fill:rgb(91.764706%,76.862745%,4.705882%);fill-opacity:1;" d="M 203.601562 131.976562 C 200.757812 135.488281 197.75 138.828125 194.585938 141.996094 C 193.726562 140.984375 192.726562 140.820312 191.582031 141.496094 C 191.167969 143.984375 190.914062 146.488281 190.832031 149.007812 C 190.40625 145.84375 190.074219 142.671875 189.828125 139.492188 C 189.242188 137.886719 188.15625 137.136719 186.574219 137.238281 C 186.257812 137.613281 186.007812 138.03125 185.820312 138.488281 C 185.570312 141.324219 185.488281 144.160156 185.570312 147.003906 C 172.746094 152.386719 159.390625 154.308594 145.5 152.765625 C 134.074219 151.316406 123.054688 148.398438 112.445312 144 C 113.550781 141.601562 113.96875 139.097656 113.695312 136.484375 C 112.777344 134.804688 111.691406 134.636719 110.441406 135.984375 C 109.546875 137.9375 108.796875 139.941406 108.1875 141.996094 C 108.019531 140.492188 107.851562 138.992188 107.6875 137.488281 C 106.628906 136.273438 105.625 136.273438 104.679688 137.488281 C 104.589844 138.757812 104.335938 139.925781 103.929688 140.992188 C 104.0625 140.253906 103.894531 139.585938 103.429688 138.992188 C 98.773438 136 94.265625 132.828125 89.90625 129.472656 C 91.324219 125.632812 93.496094 122.292969 96.417969 119.457031 C 106.519531 130.6875 119.039062 137.785156 133.980469 140.742188 C 153.53125 145.058594 172.230469 142.722656 190.078125 133.730469 C 193.757812 131.558594 197.265625 129.136719 200.597656 126.46875 C 201.984375 128.074219 202.988281 129.910156 203.601562 131.976562 Z M 203.601562 131.976562 "/>
<path style=" stroke:none;fill-rule:evenodd;fill:rgb(39.215686%,70.196078%,96.470588%);fill-opacity:1;" d="M 216.125 130.976562 C 213.921875 131.078125 211.75 130.914062 209.613281 130.476562 C 208.066406 127.886719 206.398438 125.382812 204.605469 122.960938 C 205.015625 121.675781 205.851562 121.089844 207.109375 121.210938 C 210.03125 124.550781 213.039062 127.804688 216.125 130.976562 Z M 216.125 130.976562 "/>
<path style=" stroke:none;fill-rule:evenodd;fill:rgb(14.117647%,59.215686%,87.058824%);fill-opacity:1;" d="M 204.605469 122.960938 C 206.398438 125.382812 208.066406 127.886719 209.613281 130.476562 C 207.839844 130.320312 206.167969 130.484375 204.605469 130.976562 C 203.488281 129.25 202.488281 127.414062 201.597656 125.46875 C 202.609375 124.621094 203.613281 123.785156 204.605469 122.960938 Z M 204.605469 122.960938 "/>
<path style=" stroke:none;fill-rule:evenodd;fill:rgb(94.509804%,83.921569%,0.392157%);fill-opacity:1;" d="M 89.90625 129.472656 C 94.265625 132.828125 98.773438 136 103.429688 138.992188 C 103.894531 139.585938 104.0625 140.253906 103.929688 140.992188 C 103.085938 146.703125 102.085938 152.378906 100.925781 158.023438 C 97.324219 156.261719 93.984375 154.089844 90.90625 151.511719 C 91.140625 150.382812 91.640625 149.378906 92.410156 148.507812 C 92.347656 148.203125 92.179688 148.035156 91.910156 148.007812 C 91.367188 145.132812 90.699219 142.292969 89.90625 139.492188 C 89.421875 137.371094 88.753906 135.367188 87.902344 133.480469 C 88.316406 131.984375 88.984375 130.652344 89.90625 129.472656 Z M 89.90625 129.472656 "/>
<path style=" stroke:none;fill-rule:evenodd;fill:rgb(81.176471%,89.019608%,94.901961%);fill-opacity:1;" d="M 209.613281 130.476562 C 211.75 130.914062 213.921875 131.078125 216.125 130.976562 C 216.828125 131.214844 217.164062 131.714844 217.125 132.480469 C 215.097656 132.53125 213.09375 132.363281 211.117188 131.976562 C 208.921875 132.042969 206.75 131.875 204.605469 131.476562 C 204.605469 131.3125 204.605469 131.144531 204.605469 130.976562 C 206.167969 130.484375 207.839844 130.320312 209.613281 130.476562 Z M 209.613281 130.476562 "/>
<path style=" stroke:none;fill-rule:evenodd;fill:rgb(82.352941%,89.411765%,95.294118%);fill-opacity:1;" d="M 87.902344 130.476562 C 87.875 131.03125 87.707031 131.53125 87.402344 131.976562 C 80.738281 132.796875 74.0625 133.464844 67.367188 133.980469 C 67.535156 133.480469 67.867188 133.148438 68.367188 132.980469 C 72.539062 132.507812 76.710938 132.007812 80.890625 131.476562 C 83.226562 131.144531 85.566406 130.808594 87.902344 130.476562 Z M 87.902344 130.476562 "/>
<path style=" stroke:none;fill-rule:evenodd;fill:rgb(10.980392%,59.215686%,87.45098%);fill-opacity:1;" d="M 204.605469 131.476562 C 206.75 131.875 208.921875 132.042969 211.117188 131.976562 C 214.875 138.078125 218.046875 144.507812 220.632812 151.261719 C 218.800781 151.511719 216.964844 151.59375 215.121094 151.511719 C 213 147.769531 210.746094 144.097656 208.359375 140.492188 C 207.238281 137.417969 205.988281 134.414062 204.605469 131.476562 Z M 204.605469 131.476562 "/>
<path style=" stroke:none;fill-rule:evenodd;fill:rgb(92.54902%,81.960784%,0.392157%);fill-opacity:1;" d="M 203.601562 131.976562 C 204.382812 133.035156 205.050781 134.203125 205.605469 135.484375 C 205.257812 135.996094 204.925781 136.496094 204.605469 136.988281 C 204.347656 138.1875 204.011719 139.355469 203.601562 140.492188 C 202.433594 144.175781 201.261719 147.847656 200.097656 151.511719 C 200.675781 153.003906 201.507812 154.339844 202.601562 155.519531 C 202.644531 156.019531 202.476562 156.433594 202.101562 156.769531 C 199.722656 158.292969 197.21875 159.546875 194.585938 160.527344 C 194.585938 154.351562 194.585938 148.171875 194.585938 141.996094 C 197.75 138.828125 200.757812 135.488281 203.601562 131.976562 Z M 203.601562 131.976562 "/>
<path style=" stroke:none;fill-rule:evenodd;fill:rgb(40.392157%,71.764706%,98.431373%);fill-opacity:1;" d="M 211.117188 131.976562 C 213.09375 132.363281 215.097656 132.53125 217.125 132.480469 C 222.898438 138.417969 227.90625 144.929688 232.152344 152.011719 C 226.640625 152.011719 221.132812 152.011719 215.625 152.011719 C 215.289062 152.011719 215.121094 151.847656 215.121094 151.511719 C 216.964844 151.59375 218.800781 151.511719 220.632812 151.261719 C 218.046875 144.507812 214.875 138.078125 211.117188 131.976562 Z M 211.117188 131.976562 "/>
<path style=" stroke:none;fill-rule:evenodd;fill:rgb(38.039216%,70.980392%,98.039216%);fill-opacity:1;" d="M 87.402344 131.976562 C 82.765625 138.070312 78.757812 144.582031 75.378906 151.511719 C 68.265625 152.703125 61.085938 153.371094 53.84375 153.515625 C 57.765625 146.589844 62.273438 140.078125 67.367188 133.980469 C 74.0625 133.464844 80.738281 132.796875 87.402344 131.976562 Z M 87.402344 131.976562 "/>
<path style=" stroke:none;fill-rule:evenodd;fill:rgb(30.588235%,30.588235%,30.588235%);fill-opacity:1;" d="M 87.902344 133.480469 C 88.753906 135.367188 89.421875 137.371094 89.90625 139.492188 C 85.515625 145.652344 81.59375 152.164062 78.136719 159.023438 C 75.890625 164.835938 74.640625 170.847656 74.378906 177.054688 C 75.335938 177.199219 76.171875 177.03125 76.882812 176.554688 C 79.027344 176.238281 81.03125 175.484375 82.894531 174.300781 C 88.457031 170.910156 93.882812 167.320312 99.171875 163.53125 C 100.132812 162.109375 100.96875 160.609375 101.675781 159.023438 C 102.914062 151.753906 104.417969 144.574219 106.183594 137.488281 C 106.734375 138.46875 106.984375 139.554688 106.933594 140.742188 C 106.648438 144.867188 106.148438 148.957031 105.433594 153.015625 C 104.660156 157.398438 102.910156 161.40625 100.171875 165.035156 C 94.414062 169.125 88.652344 173.214844 82.894531 177.308594 C 81.125 178.773438 79.789062 180.527344 78.886719 182.566406 C 76.675781 184.339844 74.171875 185.257812 71.375 185.320312 C 68.273438 182.367188 67.1875 178.777344 68.117188 174.550781 C 71.933594 159.410156 78.527344 145.71875 87.902344 133.480469 Z M 87.902344 133.480469 "/>
<path style=" stroke:none;fill-rule:evenodd;fill:rgb(17.254902%,17.254902%,17.254902%);fill-opacity:1;" d="M 78.886719 182.566406 C 79.789062 180.527344 81.125 178.773438 82.894531 177.308594 C 88.652344 173.214844 94.414062 169.125 100.171875 165.035156 C 102.910156 161.40625 104.660156 157.398438 105.433594 153.015625 C 105.832031 154.34375 106.164062 154.257812 106.433594 152.765625 C 107.503906 147.21875 109.175781 141.875 111.441406 136.738281 C 111.917969 136.425781 112.335938 136.511719 112.695312 136.988281 C 113.027344 138.15625 113.027344 139.324219 112.695312 140.492188 C 110.691406 146.082031 108.941406 151.757812 107.4375 157.523438 C 107.550781 158.238281 107.886719 158.488281 108.4375 158.273438 C 110.125 156.753906 111.628906 155.085938 112.945312 153.265625 C 113.445312 152.929688 113.945312 152.929688 114.449219 153.265625 C 113.578125 155.304688 112.496094 157.222656 111.191406 159.023438 C 107.902344 162.652344 104.3125 165.90625 100.421875 168.792969 C 93.402344 173.636719 86.222656 178.230469 78.886719 182.566406 Z M 78.886719 182.566406 "/>
<path style=" stroke:none;fill-rule:evenodd;fill:rgb(30.588235%,30.588235%,30.588235%);fill-opacity:1;" d="M 204.605469 136.988281 C 208.390625 142.042969 211.8125 147.386719 214.871094 153.015625 C 217.988281 159.914062 220.824219 166.925781 223.386719 174.050781 C 224.804688 179.308594 222.886719 181.230469 217.625 179.8125 C 216.925781 179.605469 216.257812 179.355469 215.625 179.058594 C 207.890625 174.609375 200.210938 170.015625 192.582031 165.285156 C 191.765625 165.039062 190.929688 164.957031 190.078125 165.035156 C 188.566406 164.863281 187.234375 164.28125 186.070312 163.28125 C 184.128906 161.1875 182.039062 159.265625 179.8125 157.523438 C 179.417969 156.90625 179.167969 156.238281 179.058594 155.519531 C 179.175781 154.800781 179.511719 154.550781 180.0625 154.769531 C 181.734375 157.023438 183.738281 158.945312 186.070312 160.527344 C 186.5625 160.289062 186.980469 159.957031 187.324219 159.527344 C 187.550781 154.082031 187.300781 148.65625 186.574219 143.246094 C 186.53125 141.433594 186.78125 139.683594 187.324219 137.988281 C 187.824219 138.488281 188.324219 138.992188 188.828125 139.492188 C 189.4375 144.824219 189.9375 150.164062 190.328125 155.519531 C 190.484375 155.921875 190.734375 156.257812 191.082031 156.519531 C 191.472656 155.90625 191.722656 155.238281 191.832031 154.515625 C 191.917969 150.332031 192.167969 146.160156 192.582031 141.996094 C 192.875 142.101562 193.128906 142.269531 193.335938 142.496094 C 193.359375 149.542969 193.695312 156.554688 194.335938 163.53125 C 200.09375 168.539062 206.6875 171.878906 214.121094 173.550781 C 215.339844 173.640625 216.425781 173.308594 217.375 172.546875 C 217.679688 170.675781 217.515625 168.839844 216.875 167.039062 C 214.300781 160.882812 210.960938 155.207031 206.859375 150.007812 C 205.246094 146.953125 204.160156 143.78125 203.601562 140.492188 C 204.011719 139.355469 204.347656 138.1875 204.605469 136.988281 Z M 204.605469 136.988281 "/>
<path style=" stroke:none;fill-rule:evenodd;fill:rgb(17.647059%,17.647059%,17.647059%);fill-opacity:1;" d="M 89.90625 139.492188 C 90.699219 142.292969 91.367188 145.132812 91.910156 148.007812 C 86.238281 154.957031 81.644531 162.636719 78.136719 171.046875 C 77.351562 172.804688 76.9375 174.644531 76.882812 176.554688 C 76.171875 177.03125 75.335938 177.199219 74.378906 177.054688 C 74.640625 170.847656 75.890625 164.835938 78.136719 159.023438 C 81.59375 152.164062 85.515625 145.652344 89.90625 139.492188 Z M 89.90625 139.492188 "/>
<path style=" stroke:none;fill-rule:evenodd;fill:rgb(17.647059%,17.647059%,17.647059%);fill-opacity:1;" d="M 203.601562 140.492188 C 204.160156 143.78125 205.246094 146.953125 206.859375 150.007812 C 210.960938 155.207031 214.300781 160.882812 216.875 167.039062 C 217.515625 168.839844 217.679688 170.675781 217.375 172.546875 C 216.425781 173.308594 215.339844 173.640625 214.121094 173.550781 C 215.347656 172.144531 215.433594 170.644531 214.371094 169.042969 C 210.207031 162.632812 205.449219 156.789062 200.097656 151.511719 C 201.261719 147.847656 202.433594 144.175781 203.601562 140.492188 Z M 203.601562 140.492188 "/>
<path style=" stroke:none;fill-rule:evenodd;fill:rgb(95.294118%,84.313725%,0.392157%);fill-opacity:1;" d="M 112.445312 144 C 123.054688 148.398438 134.074219 151.316406 145.5 152.765625 C 159.390625 154.308594 172.746094 152.386719 185.570312 147.003906 C 186.285156 150.746094 186.535156 154.585938 186.324219 158.523438 C 186.15625 158.691406 185.988281 158.859375 185.820312 159.023438 C 183.726562 157.429688 181.804688 155.675781 180.0625 153.765625 C 178.695312 153.292969 178.027344 153.796875 178.058594 155.269531 C 179.90625 158.707031 182.410156 161.628906 185.570312 164.035156 C 185.515625 164.34375 185.347656 164.59375 185.070312 164.785156 C 159.417969 174.347656 134.039062 173.761719 108.9375 163.03125 C 111.898438 160.230469 114.070312 156.894531 115.449219 153.015625 C 114.675781 152.039062 113.675781 151.789062 112.445312 152.261719 C 111.703125 153.488281 110.785156 154.574219 109.691406 155.519531 C 110.191406 151.597656 111.109375 147.757812 112.445312 144 Z M 112.445312 144 "/>
<path style=" stroke:none;fill-rule:evenodd;fill:rgb(16.078431%,16.078431%,15.686275%);fill-opacity:1;" d="M 90.90625 151.511719 C 93.984375 154.089844 97.324219 156.261719 100.925781 158.023438 C 100.101562 160.582031 98.597656 162.667969 96.417969 164.285156 C 91.625 167.570312 86.699219 170.660156 81.640625 173.550781 C 81.308594 171.046875 81.308594 168.542969 81.640625 166.039062 C 84.242188 160.824219 87.332031 155.980469 90.90625 151.511719 Z M 90.90625 151.511719 "/>
<path style=" stroke:none;fill-rule:evenodd;fill:rgb(83.529412%,90.196078%,95.686275%);fill-opacity:1;" d="M 215.625 152.011719 C 221.132812 152.011719 226.640625 152.011719 232.152344 152.011719 C 232.855469 152.25 233.191406 152.75 233.152344 153.515625 C 229.140625 153.445312 225.132812 153.277344 221.132812 153.015625 C 219.464844 153.015625 217.792969 153.015625 216.125 153.015625 C 215.703125 152.84375 215.535156 152.511719 215.625 152.011719 Z M 215.625 152.011719 "/>
<path style=" stroke:none;fill-rule:evenodd;fill:rgb(83.529412%,90.588235%,96.078431%);fill-opacity:1;" d="M 75.378906 151.511719 C 75.300781 152.339844 74.964844 153.007812 74.378906 153.515625 C 68.195312 153.886719 62.019531 154.386719 55.847656 155.019531 C 54.910156 155.015625 54.074219 154.847656 53.34375 154.515625 C 53.507812 154.183594 53.675781 153.851562 53.84375 153.515625 C 61.085938 153.371094 68.265625 152.703125 75.378906 151.511719 Z M 75.378906 151.511719 "/>
<path style=" stroke:none;fill-rule:evenodd;fill:rgb(10.980392%,58.823529%,87.058824%);fill-opacity:1;" d="M 216.125 153.015625 C 217.792969 153.015625 219.464844 153.015625 221.132812 153.015625 C 223.679688 160.058594 224.847656 167.238281 224.636719 174.550781 C 221.898438 167.335938 219.0625 160.15625 216.125 153.015625 Z M 216.125 153.015625 "/>
<path style=" stroke:none;fill-rule:evenodd;fill:rgb(40.784314%,72.54902%,99.215686%);fill-opacity:1;" d="M 221.132812 153.015625 C 225.132812 153.277344 229.140625 153.445312 233.152344 153.515625 C 238.207031 160.953125 242.214844 168.964844 245.175781 177.558594 C 238.34375 176.613281 231.5 175.777344 224.636719 175.054688 C 224.636719 174.886719 224.636719 174.71875 224.636719 174.550781 C 224.847656 167.238281 223.679688 160.058594 221.132812 153.015625 Z M 221.132812 153.015625 "/>
<path style=" stroke:none;fill-rule:evenodd;fill:rgb(40%,72.156863%,98.823529%);fill-opacity:1;" d="M 74.378906 153.515625 C 71.273438 160.375 68.769531 167.386719 66.867188 174.550781 C 58.664062 175.757812 50.480469 177.09375 42.324219 178.558594 C 44.925781 170.015625 48.597656 162.003906 53.34375 154.515625 C 54.074219 154.847656 54.910156 155.015625 55.847656 155.019531 C 62.019531 154.386719 68.195312 153.886719 74.378906 153.515625 Z M 74.378906 153.515625 "/>
<path style=" stroke:none;fill-rule:evenodd;fill:rgb(17.254902%,17.254902%,17.254902%);fill-opacity:1;" d="M 202.601562 155.519531 C 205.398438 159.242188 208.320312 162.914062 211.367188 166.539062 C 212.035156 168.304688 212.285156 170.140625 212.117188 172.046875 C 205.910156 170.15625 200.316406 167.148438 195.339844 163.03125 C 194.832031 162.269531 194.582031 161.433594 194.585938 160.527344 C 197.21875 159.546875 199.722656 158.292969 202.101562 156.769531 C 202.476562 156.433594 202.644531 156.019531 202.601562 155.519531 Z M 202.601562 155.519531 "/>
<path style=" stroke:none;fill-rule:evenodd;fill:rgb(17.647059%,17.647059%,17.254902%);fill-opacity:1;" d="M 108.9375 163.03125 C 134.039062 173.761719 159.417969 174.347656 185.070312 164.785156 C 185.347656 164.59375 185.515625 164.34375 185.570312 164.035156 C 190.628906 167.5 195.636719 171.089844 200.597656 174.800781 C 204.121094 176.671875 207.792969 178.089844 211.617188 179.058594 C 210.839844 188.460938 208.667969 197.476562 205.105469 206.105469 C 187.960938 213.230469 169.929688 217.488281 151.011719 218.878906 C 144.164062 219.210938 137.320312 219.210938 130.476562 218.878906 C 125.824219 218.597656 121.316406 217.847656 116.953125 216.625 C 108.269531 208.207031 100.839844 198.523438 94.664062 187.574219 C 92.898438 184.191406 91.476562 180.683594 90.40625 177.054688 C 96.855469 172.78125 103.035156 168.105469 108.9375 163.03125 Z M 108.9375 163.03125 "/>
<path style=" stroke:none;fill-rule:evenodd;fill:rgb(17.254902%,17.254902%,17.254902%);fill-opacity:1;" d="M 190.078125 165.035156 C 190.929688 164.957031 191.765625 165.039062 192.582031 165.285156 C 200.210938 170.015625 207.890625 174.609375 215.625 179.058594 C 205.664062 176.929688 197.148438 172.253906 190.078125 165.035156 Z M 190.078125 165.035156 "/>
<path style=" stroke:none;fill-rule:evenodd;fill:rgb(22.352941%,58.431373%,82.745098%);fill-opacity:1;" d="M 79.886719 169.542969 C 80.460938 171.117188 80.542969 172.785156 80.136719 174.550781 C 79.417969 175.308594 78.667969 175.476562 77.882812 175.054688 C 78.554688 173.203125 79.222656 171.367188 79.886719 169.542969 Z M 79.886719 169.542969 "/>
<path style=" stroke:none;fill-rule:evenodd;fill:rgb(21.568627%,21.568627%,21.568627%);fill-opacity:1;" d="M 187.574219 173.550781 C 192.761719 172.945312 197.183594 174.445312 200.847656 178.058594 C 203.394531 183.632812 202.894531 188.972656 199.34375 194.085938 C 194.125 201.167969 187.363281 206.261719 179.058594 209.363281 C 155.765625 217.675781 134.230469 214.5 114.449219 199.847656 C 109.847656 195.914062 106.421875 191.15625 104.179688 185.570312 C 102.804688 180.890625 104.390625 177.804688 108.9375 176.304688 C 113.113281 175.972656 117.285156 175.972656 121.460938 176.304688 C 134.46875 177.4375 147.492188 178.355469 160.527344 179.058594 C 164.886719 178.808594 169.226562 178.390625 173.550781 177.808594 C 178.148438 175.914062 182.824219 174.496094 187.574219 173.550781 Z M 187.574219 173.550781 "/>
<path style=" stroke:none;fill-rule:evenodd;fill:rgb(83.529412%,90.980392%,96.862745%);fill-opacity:1;" d="M 66.867188 174.550781 C 66.867188 174.886719 66.867188 175.21875 66.867188 175.554688 C 59.207031 176.953125 51.527344 178.289062 43.824219 179.5625 C 43.210938 179.550781 42.710938 179.382812 42.324219 179.058594 C 42.324219 178.894531 42.324219 178.726562 42.324219 178.558594 C 50.480469 177.09375 58.664062 175.757812 66.867188 174.550781 Z M 66.867188 174.550781 "/>
<path style=" stroke:none;fill-rule:evenodd;fill:rgb(83.137255%,90.196078%,96.078431%);fill-opacity:1;" d="M 224.636719 175.054688 C 231.5 175.777344 238.34375 176.613281 245.175781 177.558594 C 245.628906 177.914062 245.792969 178.414062 245.675781 179.058594 C 238.65625 178.058594 231.644531 177.054688 224.636719 176.054688 C 224.636719 175.71875 224.636719 175.386719 224.636719 175.054688 Z M 224.636719 175.054688 "/>
<path style=" stroke:none;fill-rule:evenodd;fill:rgb(40.784314%,72.54902%,99.215686%);fill-opacity:1;" d="M 66.867188 175.554688 C 66.867188 176.554688 66.867188 177.558594 66.867188 178.558594 C 63.261719 182.828125 59.585938 187.085938 55.847656 191.332031 C 50.199219 192.746094 44.523438 193.996094 38.816406 195.085938 C 39.242188 189.523438 40.410156 184.183594 42.324219 179.058594 C 42.710938 179.382812 43.210938 179.550781 43.824219 179.5625 C 51.527344 178.289062 59.207031 176.953125 66.867188 175.554688 Z M 66.867188 175.554688 "/>
<path style=" stroke:none;fill-rule:evenodd;fill:rgb(40%,71.764706%,98.823529%);fill-opacity:1;" d="M 224.636719 176.054688 C 231.644531 177.054688 238.65625 178.058594 245.675781 179.058594 C 247.546875 184.046875 248.882812 189.222656 249.683594 194.585938 C 244.34375 193.835938 239 193.085938 233.652344 192.332031 C 232.652344 191.832031 231.652344 191.332031 230.648438 190.832031 C 227.707031 187.636719 224.867188 184.382812 222.132812 181.0625 C 224.269531 180.136719 225.101562 178.464844 224.636719 176.054688 Z M 224.636719 176.054688 "/>
<path style=" stroke:none;fill-rule:evenodd;fill:rgb(11.764706%,11.764706%,11.764706%);fill-opacity:1;" d="M 90.40625 177.054688 C 91.476562 180.683594 92.898438 184.191406 94.664062 187.574219 C 100.839844 198.523438 108.269531 208.207031 116.953125 216.625 C 106.726562 214.71875 97.210938 211.046875 88.402344 205.605469 C 88.070312 205.605469 87.902344 205.773438 87.902344 206.105469 C 84.726562 198.507812 82.726562 190.578125 81.890625 182.316406 C 84.671875 180.449219 87.511719 178.695312 90.40625 177.054688 Z M 90.40625 177.054688 "/>
<path style=" stroke:none;fill-rule:evenodd;fill:rgb(11.764706%,60%,88.235294%);fill-opacity:1;" d="M 220.632812 181.0625 C 221.980469 182.910156 223.316406 184.746094 224.636719 186.574219 C 224.222656 192.902344 222.722656 198.914062 220.128906 204.605469 C 217.105469 200.746094 213.765625 197.238281 210.113281 194.085938 C 211.425781 189.507812 212.257812 184.832031 212.617188 180.0625 C 215.289062 180.394531 217.960938 180.730469 220.632812 181.0625 Z M 220.632812 181.0625 "/>
<path style=" stroke:none;fill-rule:evenodd;fill:rgb(40.784314%,72.54902%,99.215686%);fill-opacity:1;" d="M 66.867188 180.0625 C 67.367188 181.394531 67.867188 182.730469 68.367188 184.070312 C 68.828125 189.171875 69.496094 194.183594 70.371094 199.09375 C 65.804688 204.917969 61.128906 210.675781 56.347656 216.375 C 51.671875 218.351562 46.832031 219.769531 41.824219 220.632812 C 38.515625 212.5 37.515625 204.152344 38.816406 195.589844 C 39.117188 195.910156 39.535156 196.074219 40.070312 196.089844 C 44.835938 195.210938 49.59375 194.292969 54.34375 193.335938 C 55.347656 192.832031 56.347656 192.332031 57.347656 191.832031 C 60.644531 187.960938 63.816406 184.035156 66.867188 180.0625 Z M 66.867188 180.0625 "/>
<path style=" stroke:none;fill-rule:evenodd;fill:rgb(40.392157%,72.54902%,99.215686%);fill-opacity:1;" d="M 224.636719 186.574219 C 226.308594 187.976562 227.808594 189.5625 229.144531 191.332031 C 229.980469 191.832031 230.816406 192.332031 231.652344 192.832031 C 237.59375 194.207031 243.601562 195.125 249.683594 195.589844 C 250.3125 201.257812 250.230469 206.933594 249.429688 212.617188 C 249.039062 215.691406 248.121094 218.53125 246.675781 221.132812 C 241.554688 220.292969 236.546875 219.039062 231.652344 217.375 C 227.707031 213.183594 223.867188 208.925781 220.128906 204.605469 C 222.722656 198.914062 224.222656 192.902344 224.636719 186.574219 Z M 224.636719 186.574219 "/>
<path style=" stroke:none;fill-rule:evenodd;fill:rgb(83.137255%,90.196078%,96.078431%);fill-opacity:1;" d="M 220.632812 181.0625 C 221.132812 181.0625 221.632812 181.0625 222.132812 181.0625 C 224.867188 184.382812 227.707031 187.636719 230.648438 190.832031 C 231.652344 191.332031 232.652344 191.832031 233.652344 192.332031 C 239 193.085938 244.34375 193.835938 249.683594 194.585938 C 249.683594 194.921875 249.683594 195.253906 249.683594 195.589844 C 243.601562 195.125 237.59375 194.207031 231.652344 192.832031 C 230.816406 192.332031 229.980469 191.832031 229.144531 191.332031 C 227.808594 189.5625 226.308594 187.976562 224.636719 186.574219 C 223.316406 184.746094 221.980469 182.910156 220.632812 181.0625 Z M 220.632812 181.0625 "/>
<path style=" stroke:none;fill-rule:evenodd;fill:rgb(83.529412%,90.980392%,96.470588%);fill-opacity:1;" d="M 66.867188 178.558594 C 66.867188 179.058594 66.867188 179.5625 66.867188 180.0625 C 63.816406 184.035156 60.644531 187.960938 57.347656 191.832031 C 56.347656 192.332031 55.347656 192.832031 54.34375 193.335938 C 49.59375 194.292969 44.835938 195.210938 40.070312 196.089844 C 39.535156 196.074219 39.117188 195.910156 38.816406 195.589844 C 38.816406 195.421875 38.816406 195.253906 38.816406 195.085938 C 44.523438 193.996094 50.199219 192.746094 55.847656 191.332031 C 59.585938 187.085938 63.261719 182.828125 66.867188 178.558594 Z M 66.867188 178.558594 "/>
<path style=" stroke:none;fill-rule:evenodd;fill:rgb(26.666667%,66.27451%,93.333333%);fill-opacity:1;" d="M 86.898438 207.109375 C 84.246094 209.511719 81.660156 212.015625 79.136719 214.621094 C 78.304688 216.039062 77.71875 217.539062 77.382812 219.128906 C 76.058594 217.488281 74.972656 215.652344 74.128906 213.621094 C 72.71875 209.644531 71.46875 205.636719 70.371094 201.597656 C 73.53125 196.847656 77.203125 192.589844 81.390625 188.828125 C 81.308594 188.578125 81.222656 188.324219 81.140625 188.074219 C 80.429688 188.554688 79.679688 188.972656 78.886719 189.328125 C 75.929688 192.53125 73.089844 195.789062 70.371094 199.09375 C 69.496094 194.183594 68.828125 189.171875 68.367188 184.070312 C 69.429688 185.285156 70.765625 186.121094 72.375 186.574219 C 75.363281 185.703125 78.121094 184.367188 80.640625 182.566406 C 81.742188 191.007812 83.828125 199.1875 86.898438 207.109375 Z M 86.898438 207.109375 "/>
<path style=" stroke:none;fill-rule:evenodd;fill:rgb(12.941176%,60%,88.235294%);fill-opacity:1;" d="M 210.113281 195.589844 C 213.457031 198.933594 216.628906 202.4375 219.628906 206.105469 C 217.914062 210.878906 215.660156 215.386719 212.867188 219.628906 C 212.460938 220.292969 211.875 220.625 211.117188 220.632812 C 208.445312 218.128906 205.773438 215.625 203.101562 213.117188 C 205.839844 207.398438 208.175781 201.554688 210.113281 195.589844 Z M 210.113281 195.589844 "/>
<path style=" stroke:none;fill-rule:evenodd;fill:rgb(40.784314%,72.54902%,99.215686%);fill-opacity:1;" d="M 70.371094 201.597656 C 71.46875 205.636719 72.71875 209.644531 74.128906 213.621094 C 74.972656 215.652344 76.058594 217.488281 77.382812 219.128906 C 77.125 224.300781 76.957031 229.476562 76.882812 234.65625 C 77.382812 234.65625 77.882812 234.65625 78.386719 234.65625 C 78.25 230.453125 78.414062 226.28125 78.886719 222.132812 C 81.789062 225.875 85.296875 228.878906 89.40625 231.148438 C 79.238281 238.449219 68.21875 240.117188 56.347656 236.160156 C 56.6875 229.8125 57.101562 223.46875 57.601562 217.125 C 61.789062 211.855469 66.046875 206.679688 70.371094 201.597656 Z M 70.371094 201.597656 "/>
<path style=" stroke:none;fill-rule:evenodd;fill:rgb(11.372549%,16.862745%,20.784314%);fill-opacity:1;" d="M 87.902344 206.609375 C 88.449219 207.875 89.117188 209.042969 89.90625 210.113281 C 91.269531 212.15625 92.441406 214.324219 93.410156 216.625 C 92.960938 216.121094 92.628906 216.121094 92.410156 216.625 C 90.605469 213.851562 88.9375 211.015625 87.402344 208.109375 C 87.402344 207.777344 87.402344 207.441406 87.402344 207.109375 C 87.402344 206.773438 87.566406 206.609375 87.902344 206.609375 Z M 87.902344 206.609375 "/>
<path style=" stroke:none;fill-rule:evenodd;fill:rgb(95.294118%,84.313725%,0.392157%);fill-opacity:1;" d="M 88.402344 205.605469 C 97.210938 211.046875 106.726562 214.71875 116.953125 216.625 C 121.316406 217.847656 125.824219 218.597656 130.476562 218.878906 C 137.320312 219.210938 144.164062 219.210938 151.011719 218.878906 C 169.929688 217.488281 187.960938 213.230469 205.105469 206.105469 C 203.039062 211.914062 200.199219 217.257812 196.589844 222.132812 C 194.371094 223.429688 192.199219 224.847656 190.078125 226.390625 C 187.675781 227.761719 185.171875 228.847656 182.566406 229.648438 C 181.152344 228.847656 179.652344 228.597656 178.058594 228.894531 C 175.726562 230.136719 173.722656 231.722656 172.046875 233.652344 C 155.316406 237.128906 138.621094 236.960938 121.960938 233.152344 C 120.320312 231.496094 118.484375 230.078125 116.453125 228.894531 C 115.089844 228.59375 113.753906 228.679688 112.445312 229.144531 C 111.59375 229.226562 110.757812 229.144531 109.941406 228.894531 C 105.578125 226.882812 101.40625 224.628906 97.417969 222.132812 C 95.960938 220.386719 94.625 218.550781 93.410156 216.625 C 92.441406 214.324219 91.269531 212.15625 89.90625 210.113281 C 89.546875 208.5625 89.046875 207.0625 88.402344 205.605469 Z M 88.402344 205.605469 "/>
<path style=" stroke:none;fill-rule:evenodd;fill:rgb(40.784314%,72.54902%,99.607843%);fill-opacity:1;" d="M 219.628906 206.105469 C 223.449219 210.058594 227.039062 214.230469 230.398438 218.628906 C 231.03125 224.960938 231.449219 231.304688 231.652344 237.660156 C 225.796875 240.109375 219.785156 240.777344 213.621094 239.664062 C 213.703125 234.988281 213.621094 230.3125 213.371094 225.640625 C 213.015625 223.769531 212.265625 222.101562 211.117188 220.632812 C 211.875 220.625 212.460938 220.292969 212.867188 219.628906 C 215.660156 215.386719 217.914062 210.878906 219.628906 206.105469 Z M 219.628906 206.105469 "/>
<path style=" stroke:none;fill-rule:evenodd;fill:rgb(51.764706%,67.843137%,76.078431%);fill-opacity:1;" d="M 88.402344 205.605469 C 89.046875 207.0625 89.546875 208.5625 89.90625 210.113281 C 89.117188 209.042969 88.449219 207.875 87.902344 206.609375 C 87.902344 206.441406 87.902344 206.273438 87.902344 206.105469 C 87.902344 205.773438 88.070312 205.605469 88.402344 205.605469 Z M 88.402344 205.605469 "/>
<path style=" stroke:none;fill-rule:evenodd;fill:rgb(25.882353%,65.882353%,93.333333%);fill-opacity:1;" d="M 87.402344 208.109375 C 88.9375 211.015625 90.605469 213.851562 92.410156 216.625 C 94.058594 219.503906 95.894531 222.257812 97.917969 224.890625 C 95.453125 227.460938 92.617188 229.546875 89.40625 231.148438 C 85.296875 228.878906 81.789062 225.875 78.886719 222.132812 C 78.710938 220.0625 78.960938 218.058594 79.636719 216.125 C 81.976562 213.199219 84.566406 210.527344 87.402344 208.109375 Z M 87.402344 208.109375 "/>
<path style=" stroke:none;fill-rule:evenodd;fill:rgb(83.529412%,90.588235%,96.078431%);fill-opacity:1;" d="M 86.898438 207.109375 C 87.066406 207.109375 87.234375 207.109375 87.402344 207.109375 C 87.402344 207.441406 87.402344 207.777344 87.402344 208.109375 C 84.566406 210.527344 81.976562 213.199219 79.636719 216.125 C 78.960938 218.058594 78.710938 220.0625 78.886719 222.132812 C 78.414062 226.28125 78.25 230.453125 78.386719 234.65625 C 77.882812 234.65625 77.382812 234.65625 76.882812 234.65625 C 76.957031 229.476562 77.125 224.300781 77.382812 219.128906 C 77.71875 217.539062 78.304688 216.039062 79.136719 214.621094 C 81.660156 212.015625 84.246094 209.511719 86.898438 207.109375 Z M 86.898438 207.109375 "/>
<path style=" stroke:none;fill-rule:evenodd;fill:rgb(11.764706%,59.607843%,87.843137%);fill-opacity:1;" d="M 202.601562 214.121094 C 205.636719 216.652344 208.308594 219.492188 210.613281 222.636719 C 207.210938 226.957031 203.371094 230.878906 199.09375 234.40625 C 199.371094 234.597656 199.539062 234.847656 199.59375 235.15625 C 197.628906 234.507812 195.792969 233.589844 194.085938 232.402344 C 193.171875 231.953125 192.503906 231.285156 192.082031 230.398438 C 196.277344 225.433594 199.78125 220.007812 202.601562 214.121094 Z M 202.601562 214.121094 "/>
<path style=" stroke:none;fill-rule:evenodd;fill:rgb(83.529412%,90.980392%,96.470588%);fill-opacity:1;" d="M 210.113281 194.085938 C 213.765625 197.238281 217.105469 200.746094 220.128906 204.605469 C 223.867188 208.925781 227.707031 213.183594 231.652344 217.375 C 236.546875 219.039062 241.554688 220.292969 246.675781 221.132812 C 246.675781 221.464844 246.675781 221.800781 246.675781 222.132812 C 241.875 221.707031 237.203125 220.707031 232.652344 219.128906 C 232.382812 225.128906 232.382812 231.136719 232.652344 237.160156 C 232.320312 237.328125 231.984375 237.496094 231.652344 237.660156 C 231.449219 231.304688 231.03125 224.960938 230.398438 218.628906 C 227.039062 214.230469 223.449219 210.058594 219.628906 206.105469 C 216.628906 202.4375 213.457031 198.933594 210.113281 195.589844 C 210.113281 195.085938 210.113281 194.585938 210.113281 194.085938 Z M 210.113281 194.085938 "/>
<path style=" stroke:none;fill-rule:evenodd;fill:rgb(83.921569%,90.980392%,96.470588%);fill-opacity:1;" d="M 70.371094 201.597656 C 66.046875 206.679688 61.789062 211.855469 57.601562 217.125 C 57.101562 223.46875 56.6875 229.8125 56.347656 236.160156 C 56.011719 235.992188 55.679688 235.824219 55.347656 235.65625 C 55.511719 229.8125 55.597656 223.96875 55.597656 218.128906 C 51.324219 219.796875 46.902344 220.96875 42.324219 221.632812 C 42.15625 221.300781 41.988281 220.964844 41.824219 220.632812 C 46.832031 219.769531 51.671875 218.351562 56.347656 216.375 C 61.128906 210.675781 65.804688 204.917969 70.371094 199.09375 C 73.089844 195.789062 75.929688 192.53125 78.886719 189.328125 C 79.679688 188.972656 80.429688 188.554688 81.140625 188.074219 C 81.222656 188.324219 81.308594 188.578125 81.390625 188.828125 C 77.203125 192.589844 73.53125 196.847656 70.371094 201.597656 Z M 70.371094 201.597656 "/>
<path style=" stroke:none;fill-rule:evenodd;fill:rgb(40.392157%,72.156863%,98.823529%);fill-opacity:1;" d="M 55.347656 235.65625 C 49.449219 232.429688 45.105469 227.757812 42.324219 221.632812 C 46.902344 220.96875 51.324219 219.796875 55.597656 218.128906 C 55.597656 223.96875 55.511719 229.8125 55.347656 235.65625 Z M 55.347656 235.65625 "/>
<path style=" stroke:none;fill-rule:evenodd;fill:rgb(40.392157%,71.764706%,98.431373%);fill-opacity:1;" d="M 246.675781 222.132812 C 243.820312 228.859375 239.144531 233.867188 232.652344 237.160156 C 232.382812 231.136719 232.382812 225.128906 232.652344 219.128906 C 237.203125 220.707031 241.875 221.707031 246.675781 222.132812 Z M 246.675781 222.132812 "/>
<path style=" stroke:none;fill-rule:evenodd;fill:rgb(40.392157%,72.156863%,98.431373%);fill-opacity:1;" d="M 210.613281 222.636719 C 211.144531 223.1875 211.5625 223.855469 211.867188 224.636719 C 212.285156 229.640625 212.535156 234.648438 212.617188 239.664062 C 207.960938 238.945312 203.617188 237.445312 199.59375 235.15625 C 199.539062 234.847656 199.371094 234.597656 199.09375 234.40625 C 203.371094 230.878906 207.210938 226.957031 210.613281 222.636719 Z M 210.613281 222.636719 "/>
<path style=" stroke:none;fill-rule:evenodd;fill:rgb(84.313725%,64.313725%,11.372549%);fill-opacity:1;" d="M 97.417969 222.132812 C 101.40625 224.628906 105.578125 226.882812 109.941406 228.894531 C 110.757812 229.144531 111.59375 229.226562 112.445312 229.144531 C 111.964844 229.878906 111.378906 230.546875 110.691406 231.148438 C 110.601562 232.84375 110.351562 234.511719 109.941406 236.160156 C 105.398438 231.785156 101.222656 227.109375 97.417969 222.132812 Z M 97.417969 222.132812 "/>
<path style=" stroke:none;fill-rule:evenodd;fill:rgb(85.490196%,64.705882%,11.764706%);fill-opacity:1;" d="M 196.589844 222.132812 C 193.371094 227.617188 189.277344 232.460938 184.320312 236.660156 C 184 234.226562 183.414062 231.890625 182.566406 229.648438 C 185.171875 228.847656 187.675781 227.761719 190.078125 226.390625 C 192.199219 224.847656 194.371094 223.429688 196.589844 222.132812 Z M 196.589844 222.132812 "/>
<path style=" stroke:none;fill-rule:evenodd;fill:rgb(85.490196%,91.764706%,96.470588%);fill-opacity:1;" d="M 203.101562 213.117188 C 205.773438 215.625 208.445312 218.128906 211.117188 220.632812 C 212.265625 222.101562 213.015625 223.769531 213.371094 225.640625 C 213.621094 230.3125 213.703125 234.988281 213.621094 239.664062 C 213.285156 239.664062 212.953125 239.664062 212.617188 239.664062 C 212.535156 234.648438 212.285156 229.640625 211.867188 224.636719 C 211.5625 223.855469 211.144531 223.1875 210.613281 222.636719 C 208.308594 219.492188 205.636719 216.652344 202.601562 214.121094 C 202.765625 213.785156 202.933594 213.453125 203.101562 213.117188 Z M 203.101562 213.117188 "/>
<path style=" stroke:none;fill-rule:evenodd;fill:rgb(23.921569%,24.313725%,24.313725%);fill-opacity:1;" d="M 117.953125 231.148438 C 117.089844 232.886719 116.503906 234.722656 116.199219 236.660156 C 115.597656 249.367188 114.765625 262.054688 113.695312 274.726562 C 111.414062 278.371094 108.824219 281.796875 105.933594 284.992188 C 104.894531 285.847656 103.722656 286.429688 102.425781 286.746094 C 101.851562 286.601562 101.519531 286.183594 101.425781 285.492188 C 103.792969 281.949219 106.382812 278.527344 109.1875 275.226562 C 109.984375 260.699219 110.820312 246.171875 111.691406 231.652344 C 113.585938 229.152344 115.675781 228.984375 117.953125 231.148438 Z M 117.953125 231.148438 "/>
<path style=" stroke:none;fill-rule:evenodd;fill:rgb(23.921569%,24.313725%,24.313725%);fill-opacity:1;" d="M 191.582031 286.746094 C 186.3125 283.71875 182.554688 279.378906 180.3125 273.722656 C 179.550781 260.691406 178.71875 247.671875 177.808594 234.65625 C 177.34375 233.558594 176.757812 232.554688 176.054688 231.652344 C 177.929688 229.222656 180.019531 229.058594 182.316406 231.148438 C 183.414062 245.65625 184.25 260.179688 184.820312 274.726562 C 187.492188 278.066406 190.164062 281.402344 192.832031 284.742188 C 193.289062 285.96875 192.871094 286.636719 191.582031 286.746094 Z M 191.582031 286.746094 "/>
<path style=" stroke:none;fill-rule:evenodd;fill:rgb(11.764706%,11.764706%,11.764706%);fill-opacity:1;" d="M 176.054688 231.652344 C 176.757812 232.554688 177.34375 233.558594 177.808594 234.65625 C 178.71875 247.671875 179.550781 260.691406 180.3125 273.722656 C 182.554688 279.378906 186.3125 283.71875 191.582031 286.746094 C 189.074219 287.625 186.738281 287.207031 184.570312 285.492188 C 182.632812 283.390625 180.546875 281.46875 178.308594 279.734375 C 177.585938 278.84375 177.085938 277.84375 176.804688 276.730469 C 175.917969 265.386719 175.082031 254.03125 174.300781 242.667969 C 174.128906 240.285156 173.710938 237.945312 173.050781 235.65625 C 173.109375 233.597656 174.109375 232.261719 176.054688 231.652344 Z M 176.054688 231.652344 "/>
<path style=" stroke:none;fill-rule:evenodd;fill:rgb(11.764706%,11.764706%,11.764706%);fill-opacity:1;" d="M 117.953125 231.148438 C 119.894531 232.167969 120.898438 233.753906 120.960938 235.90625 C 119.292969 249.296875 118.207031 262.734375 117.703125 276.226562 C 117.203125 277.230469 116.703125 278.230469 116.199219 279.234375 C 113.257812 282.007812 110.171875 284.597656 106.933594 286.996094 C 105.335938 287.398438 103.832031 287.316406 102.425781 286.746094 C 103.722656 286.429688 104.894531 285.847656 105.933594 284.992188 C 108.824219 281.796875 111.414062 278.371094 113.695312 274.726562 C 114.765625 262.054688 115.597656 249.367188 116.199219 236.660156 C 116.503906 234.722656 117.089844 232.886719 117.953125 231.148438 Z M 117.953125 231.148438 "/>
<path style=" stroke:none;fill-rule:evenodd;fill:rgb(87.058824%,65.882353%,12.156863%);fill-opacity:1;" d="M 121.960938 233.152344 C 138.621094 236.960938 155.316406 237.128906 172.046875 233.652344 C 172.179688 236.265625 172.511719 238.855469 173.050781 241.417969 C 173.027344 242.300781 172.859375 243.136719 172.546875 243.921875 C 164.296875 247.773438 155.617188 249.527344 146.503906 249.179688 C 137.726562 249.628906 129.378906 247.960938 121.460938 244.171875 C 121.292969 243.671875 121.125 243.171875 120.960938 242.667969 C 121.65625 239.535156 121.992188 236.363281 121.960938 233.152344 Z M 121.960938 233.152344 "/>
</g>
</svg>
