<svg width="92" height="40" viewBox="0 0 92 40" fill="none" xmlns="http://www.w3.org/2000/svg">
<path fill-rule="evenodd" clip-rule="evenodd" d="M0 40H40.9768L81.0784 0H0V40Z" fill="url(#paint0_linear_4275_10790)"/>
<path fill-rule="evenodd" clip-rule="evenodd" d="M48.117 7.99945H40.1096L40.1363 26.7817L33.1636 7.99323H26.2498L20.2976 23.6848C19.6648 19.6919 15.5256 18.3141 12.2688 17.2821C10.1181 16.5932 7.83542 15.5799 7.85859 14.4599C7.87642 13.5408 9.07968 12.6883 11.4711 12.8155C13.0754 12.9017 14.4926 13.0306 17.3118 14.3888L20.0837 9.57101C17.5132 8.26612 13.9587 7.44212 11.0441 7.43945H11.0263C7.62775 7.43945 4.79786 8.53723 3.04377 10.3461C1.8209 11.6083 1.16133 13.2137 1.1346 14.9888C1.09003 17.4315 1.98757 19.163 3.87357 20.547C5.46723 21.7115 7.50564 22.467 9.30162 23.0217C11.5165 23.7061 13.3259 24.3017 13.3036 25.5692C13.2857 26.0315 13.1111 26.4635 12.7777 26.8119C12.2251 27.3808 11.3784 27.5941 10.2063 27.6172C7.94505 27.6652 6.2694 27.3106 3.59905 25.7363L1.13281 30.6163C3.80049 32.1292 6.63216 32.8883 9.84977 32.8883L10.5735 32.883C13.374 32.8323 15.6468 32.163 17.4526 30.7141C17.556 30.6315 17.6487 30.5479 17.7449 30.4635L17.4419 32.0208L24.198 31.9995L25.4102 28.9043C26.6847 29.3381 28.134 29.5781 29.6724 29.5781C31.1716 29.5781 32.5816 29.3506 33.8321 28.9417L34.677 31.9995L46.7988 32.011L46.8282 24.955H49.4076C55.6423 24.955 59.3279 21.7906 59.3279 16.4839C59.3261 10.5737 55.743 7.99945 48.117 7.99945ZM29.6724 24.0546C28.741 24.0546 27.8675 23.8928 27.1161 23.6083L29.6439 15.6483H29.6929L32.1796 23.6306C31.4309 23.8972 30.5779 24.0546 29.6715 24.0546H29.6724ZM48.5859 19.4812H46.8264V13.0661H48.5867C50.9309 13.0661 52.8026 13.8448 52.8026 16.2323C52.8008 18.7035 50.9309 19.4812 48.5867 19.4812" fill="white"/>
<defs>
<linearGradient id="paint0_linear_4275_10790" x1="40.5392" y1="0" x2="40.5392" y2="40.0009" gradientUnits="userSpaceOnUse">
<stop stop-color="#00AEEF"/>
<stop offset="0.212" stop-color="#0097DC"/>
<stop offset="0.519" stop-color="#007CC5"/>
<stop offset="0.792" stop-color="#006CB8"/>
<stop offset="1" stop-color="#0066B3"/>
</linearGradient>
</defs>
</svg>
