<svg width="143" height="40" viewBox="0 0 143 40" fill="none" xmlns="http://www.w3.org/2000/svg">
<path d="M52.97 24.1077C49.7228 24.1077 47.6126 23.4099 46.6395 22.0144C46.3408 21.5783 46.1914 21.1761 46.1914 20.8078V20.3717C46.1914 20.0131 46.3022 19.6788 46.5238 19.3687C46.7551 19.0488 46.9912 18.8889 47.232 18.8889C47.4729 18.8889 48.2486 19.2766 49.559 20.0519C50.8694 20.8272 52.045 21.2149 53.0856 21.2149C54.1359 21.2149 54.9501 20.992 55.5282 20.5462C56.116 20.0907 56.4099 19.4462 56.4099 18.6127C56.4099 17.7696 55.9955 17.0379 55.1669 16.4176C54.7333 16.0978 53.6011 15.5503 51.7704 14.775C49.9396 13.99 48.6436 13.2147 47.8824 12.449C46.9189 11.4799 46.4371 10.1425 46.4371 8.43684C46.4371 7.79721 46.5913 7.1382 46.8996 6.45981C47.5163 5.10302 48.6966 4.13389 50.4407 3.55241C51.2886 3.27136 52.1028 3.13083 52.8833 3.13083H53.3891C56.2605 3.13083 58.1105 3.68808 58.9392 4.80259C59.2283 5.19993 59.3728 5.66996 59.3728 6.21268C59.3728 6.75539 59.2572 7.15758 59.0259 7.41925C58.8043 7.67122 58.5923 7.79721 58.39 7.79721C58.1973 7.79721 57.3301 7.39502 55.7884 6.59064C54.8923 6.12545 53.9576 5.89286 52.9844 5.89286C52.0209 5.89286 51.3079 6.1303 50.8454 6.60518C50.3925 7.07036 50.1661 7.6906 50.1661 8.46591C50.1661 9.23153 50.6575 9.92446 51.6403 10.5447C51.8715 10.6998 52.9025 11.1698 54.7333 11.9548C56.564 12.7495 57.8167 13.4666 58.4911 14.1063C59.6474 15.2111 60.2255 16.5824 60.2255 18.2202C60.2255 19.8968 59.6089 21.2972 58.3755 22.4214C57.1422 23.5456 55.509 24.1077 53.4759 24.1077H52.97Z" fill="#141A1F"/>
<path d="M69.3022 21.4765C69.8418 21.4765 70.3284 21.2585 70.762 20.8224C71.1956 20.3862 71.4124 19.955 71.4124 19.5286C71.4316 19.4123 71.4413 19.3299 71.4413 19.2814L71.4702 18.7726C71.4702 18.6854 71.4702 18.5982 71.4702 18.511L71.4846 18.1766V17.915C71.4846 17.2947 71.2245 16.9846 70.7042 16.9846H70.1983L70.1116 16.9991H69.9381C68.8301 16.9991 67.9629 17.1978 67.3365 17.5951C66.7102 17.9828 66.3971 18.5013 66.3971 19.1506V19.4995C66.3971 20.0325 66.5657 20.4977 66.903 20.895C67.2498 21.2827 67.6642 21.4765 68.1459 21.4765L68.5651 21.5201H68.8975C69.0709 21.4911 69.2058 21.4765 69.3022 21.4765ZM76.0519 22.5959C76.0422 23.4099 75.3822 23.817 74.0718 23.817C73.4166 23.817 72.8384 23.6861 72.3374 23.4245C71.8363 23.1531 71.3931 23.0174 71.0077 23.0174C70.9788 23.0174 70.5018 23.1967 69.5768 23.5553C68.6518 23.9042 67.7991 24.0786 67.0186 24.0786C65.7081 24.0786 64.6434 23.7055 63.8244 22.9593C63.015 22.2131 62.6103 21.2391 62.6103 20.0374V19.6885C62.6103 16.9555 64.7061 15.3952 68.8975 15.0076C69.6587 14.9397 70.1887 14.8573 70.4874 14.7604C71.0559 14.5666 71.3401 14.145 71.3401 13.4957C71.3401 12.8367 71.0751 12.3231 70.5452 11.9548C70.2272 11.7319 69.8032 11.6204 69.2733 11.6204C68.7433 11.6204 67.9725 11.8433 66.9608 12.2891C65.9587 12.7253 65.2505 12.9433 64.8361 12.9433C64.4218 12.9433 64.099 12.7979 63.8678 12.5072C63.6365 12.2165 63.5209 11.8627 63.5209 11.446C63.5209 10.7385 64.0846 10.1474 65.2119 9.67248C66.3489 9.19761 67.5871 8.96017 68.9264 8.96017C71.4895 8.96017 73.2335 9.62887 74.1585 10.9663C74.5728 11.5574 74.8378 12.2261 74.9534 12.9724C75.0787 13.7089 75.1413 14.9543 75.1413 16.7084C75.1413 18.4528 75.175 19.514 75.2425 19.892C75.3196 20.27 75.4737 20.6867 75.705 21.1422C75.9362 21.588 76.0519 21.9708 76.0519 22.2906V22.5959Z" fill="#141A1F"/>
<path d="M89.3344 17.0282V16.2432C89.3344 14.7992 89.1032 13.7138 88.6407 12.9869C88.0433 12.0565 87.2676 11.5914 86.3137 11.5914H86.0391C85.0466 11.5914 84.3047 11.9645 83.8133 12.7107C83.4375 13.2825 83.2496 14.3873 83.2496 16.0251V17.5951L83.2641 17.7405L83.3074 18.7145C83.3171 18.8114 83.3219 18.9035 83.3219 18.9907C83.3219 19.7757 83.5387 20.4056 83.9723 20.8805C84.4155 21.3554 84.9985 21.5928 85.7211 21.5928H86.1258C87.0894 21.5928 87.865 21.1809 88.4528 20.3572C89.0406 19.5237 89.3344 18.4141 89.3344 17.0282ZM80.966 29.8934C79.723 29.8934 79.1015 29.4719 79.1015 28.6287V28.3234C79.1015 28.1102 79.1882 27.6693 79.3617 27.0006C79.5351 26.3319 79.6411 25.4742 79.6796 24.4275C79.7278 23.3809 79.7519 21.9756 79.7519 20.2118V15.4727L79.7375 14.4261C79.7375 13.1953 79.6315 12.2843 79.4195 11.6931C79.2075 11.0923 79.1015 10.6465 79.1015 10.3557C79.1015 9.78393 79.8483 9.49804 81.3418 9.49804C81.3707 9.49804 81.3948 9.49804 81.414 9.49804C81.626 9.49804 81.9344 9.57072 82.339 9.71609C82.7437 9.85177 83.1484 9.91961 83.5531 9.91961C83.9674 9.91961 84.5408 9.78878 85.2731 9.52711C86.0054 9.26545 86.7088 9.13461 87.3832 9.13461H87.7301C89.2718 9.13461 90.5485 9.75001 91.5602 10.9808C92.5623 12.2116 93.0634 13.8591 93.0634 15.9234V16.3014C93.0634 17.2899 92.8996 18.3075 92.572 19.3541C92.254 20.4008 91.7529 21.2779 91.0688 21.9853C90.3943 22.6831 89.6669 23.1677 88.8864 23.439C88.1155 23.7007 87.2146 23.8315 86.1836 23.8315C85.1526 23.8315 84.4155 23.9817 83.9723 24.2822C83.7603 24.4275 83.6543 24.6747 83.6543 25.0236C83.6543 25.3724 83.7169 25.8473 83.8422 26.4482C83.9771 27.0587 84.0445 27.5966 84.0445 28.0618C84.0445 28.527 83.7988 28.9485 83.3074 29.3265C82.8256 29.7045 82.2668 29.8934 81.6308 29.8934H80.966Z" fill="#141A1F"/>
<path d="M98.6712 3H98.888C100.189 3 100.839 3.52333 100.839 4.57V5.1224C100.81 5.26777 100.796 5.44706 100.796 5.66027C100.796 5.87348 100.647 6.1303 100.348 6.43073C100.059 6.72147 99.6878 6.86684 99.2349 6.86684L98.8158 6.91045H98.4111C97.8715 6.91045 97.4524 6.78446 97.1537 6.53249C96.855 6.27082 96.7056 5.92194 96.7056 5.48583C96.6863 5.4083 96.6767 5.34046 96.6767 5.28231L96.6622 5.00611L96.6767 4.93342C96.6767 4.88496 96.6767 4.83651 96.6767 4.78805L96.7056 4.51185C96.7056 4.06605 96.8694 3.70262 97.197 3.42157C97.5246 3.14052 98.016 3 98.6712 3ZM97.8763 23.8606C96.7201 23.8509 96.1419 23.4003 96.1419 22.5086C96.1419 22.0822 96.2335 21.6074 96.4165 21.084C96.6092 20.5607 96.7441 20.0955 96.8212 19.6885C96.9079 19.2814 96.9513 18.0942 96.9513 16.1269C96.9513 14.1499 96.9176 13.0402 96.8501 12.7979C96.7923 12.546 96.6382 12.2019 96.3876 11.7658C96.1371 11.3297 96.0118 10.9953 96.0118 10.7628V10.5883C96.0118 10.1134 96.166 9.80331 96.4743 9.65794C96.7827 9.50288 97.3078 9.42535 98.0498 9.42535L98.6568 9.38174H99.2494C99.9528 9.38174 100.362 9.66764 100.478 10.2394C100.516 10.4236 100.536 11.2425 100.536 12.6962V15.8071L100.55 16.4176V17.4498L100.579 18.0458C100.589 18.1815 100.594 18.4141 100.594 18.7436C100.594 19.0634 100.757 19.6546 101.085 20.5171C101.413 21.3796 101.576 21.9514 101.576 22.2324V22.3924C101.576 23.3712 100.743 23.8606 99.0759 23.8606H97.8763Z" fill="#141A1F"/>
<path d="M110.899 21.4765C111.438 21.4765 111.925 21.2585 112.358 20.8224C112.792 20.3862 113.009 19.955 113.009 19.5286C113.028 19.4123 113.038 19.3299 113.038 19.2814L113.067 18.7726C113.067 18.6854 113.067 18.5982 113.067 18.511L113.081 18.1766V17.915C113.081 17.2947 112.821 16.9846 112.301 16.9846H111.795L111.708 16.9991H111.535C110.427 16.9991 109.559 17.1978 108.933 17.5951C108.307 17.9828 107.994 18.5013 107.994 19.1506V19.4995C107.994 20.0325 108.162 20.4977 108.499 20.895C108.846 21.2827 109.261 21.4765 109.742 21.4765L110.162 21.5201H110.494C110.667 21.4911 110.802 21.4765 110.899 21.4765ZM117.648 22.5959C117.639 23.4099 116.979 23.817 115.668 23.817C115.013 23.817 114.435 23.6861 113.934 23.4245C113.433 23.1531 112.99 23.0174 112.604 23.0174C112.575 23.0174 112.098 23.1967 111.173 23.5553C110.248 23.9042 109.396 24.0786 108.615 24.0786C107.305 24.0786 106.24 23.7055 105.421 22.9593C104.612 22.2131 104.207 21.2391 104.207 20.0374V19.6885C104.207 16.9555 106.303 15.3952 110.494 15.0076C111.255 14.9397 111.785 14.8573 112.084 14.7604C112.652 14.5666 112.937 14.145 112.937 13.4957C112.937 12.8367 112.672 12.3231 112.142 11.9548C111.824 11.7319 111.4 11.6204 110.87 11.6204C110.34 11.6204 109.569 11.8433 108.557 12.2891C107.555 12.7253 106.847 12.9433 106.433 12.9433C106.018 12.9433 105.696 12.7979 105.464 12.5072C105.233 12.2165 105.117 11.8627 105.117 11.446C105.117 10.7385 105.681 10.1474 106.808 9.67248C107.945 9.19761 109.184 8.96017 110.523 8.96017C113.086 8.96017 114.83 9.62887 115.755 10.9663C116.169 11.5574 116.434 12.2261 116.55 12.9724C116.675 13.7089 116.738 14.9543 116.738 16.7084C116.738 18.4528 116.772 19.514 116.839 19.892C116.916 20.27 117.07 20.6867 117.302 21.1422C117.533 21.588 117.648 21.9708 117.648 22.2906V22.5959Z" fill="#141A1F"/>
<path d="M124.427 10.0795C124.918 10.3993 125.285 10.5592 125.525 10.5592C125.766 10.5592 126.34 10.3654 127.245 9.97776C128.161 9.58041 129.013 9.38174 129.804 9.38174C131.307 9.38174 132.453 9.9293 133.243 11.0244C133.86 11.8966 134.168 13.5732 134.168 16.0542L134.197 16.8974L134.212 18.1476C134.212 19.0295 134.27 19.6739 134.385 20.081L134.761 21.0259C134.906 21.4329 134.978 21.7818 134.978 22.0725C134.978 22.7509 134.795 23.1774 134.429 23.3518C134.062 23.5262 133.48 23.6135 132.68 23.6135C131.88 23.6135 131.302 23.4875 130.945 23.2355C130.589 22.9738 130.411 22.4457 130.411 21.651C130.411 21.5734 130.435 21.1955 130.483 20.5171C130.541 19.8387 130.57 19.0779 130.57 18.2348C130.57 15.7344 130.377 14.0433 129.991 13.1614C129.606 12.2698 128.883 11.824 127.824 11.824C126.773 11.824 125.988 12.2988 125.468 13.2486C125.15 13.8204 124.991 14.9882 124.991 16.752C124.991 18.5061 125.034 19.7321 125.121 20.4299C125.207 21.1373 125.251 21.7333 125.251 22.2179C125.251 23.187 124.485 23.6716 122.953 23.6716H122.563C121.878 23.6716 121.387 23.5795 121.088 23.3954C120.799 23.2016 120.655 22.8527 120.655 22.3487V21.9708C120.655 21.7963 120.751 21.4087 120.944 20.8078C121.136 20.1973 121.247 19.6206 121.276 19.0779C121.305 18.5255 121.32 17.3674 121.32 15.6036C121.32 13.8398 121.305 12.827 121.276 12.5653C121.247 12.294 121.17 11.9403 121.045 11.5041C120.92 11.0583 120.857 10.6901 120.857 10.3993C120.857 9.86631 121.498 9.5998 122.779 9.5998C123.396 9.5998 123.945 9.7597 124.427 10.0795Z" fill="#141A1F"/>
<path d="M87.2485 32.2256V32.5543C87.2485 32.8391 87.2889 33.1295 87.3695 33.4253C87.5873 34.2415 88.0336 34.6496 88.7084 34.6496C89.1198 34.6496 89.4491 34.4853 89.6965 34.1566C89.804 34.0142 89.8968 33.8046 89.9748 33.528C90.0527 33.2486 90.0917 32.9857 90.0917 32.7391L90.0998 32.6077V32.279C90.0998 32.016 90.0635 31.738 89.9909 31.445C89.8565 30.8999 89.6199 30.5329 89.2811 30.3439C89.0983 30.2425 88.9141 30.1919 88.7286 30.1919H88.6036C88.2003 30.1919 87.8669 30.3822 87.6034 30.7629C87.5174 30.8889 87.4367 31.0862 87.3614 31.3546C87.2862 31.623 87.2485 31.9133 87.2485 32.2256ZM91.2451 32.2091V32.4926C91.2451 32.9035 91.1833 33.3006 91.0596 33.6841C90.9386 34.0648 90.776 34.3757 90.5716 34.6167C90.3673 34.855 90.1011 35.0509 89.7731 35.2043C89.4478 35.3576 89.0969 35.4343 88.7205 35.4343C88.3468 35.4316 87.9933 35.3618 87.6599 35.2248C86.6705 34.814 86.1758 33.9019 86.1758 32.4885V32.2995C86.1758 31.8421 86.2403 31.4285 86.3694 31.0588C86.5011 30.6863 86.6705 30.3863 86.8775 30.159C87.0872 29.9317 87.3453 29.7536 87.6518 29.6249C87.961 29.4962 88.2957 29.4318 88.656 29.4318H88.7528C89.5083 29.4318 90.1186 29.6865 90.5837 30.196C90.7639 30.3904 90.9185 30.6698 91.0475 31.0341C91.1792 31.3984 91.2451 31.7901 91.2451 32.2091Z" fill="#CFDD4A"/>
<path d="M94.9675 33.3636V33.1418C94.9675 32.7337 94.9029 32.4269 94.7739 32.2215C94.6072 31.9585 94.3908 31.8271 94.1246 31.8271H94.048C93.771 31.8271 93.564 31.9325 93.4269 32.1434C93.3221 32.305 93.2696 32.6173 93.2696 33.0802V33.5239L93.2737 33.565L93.2858 33.8402C93.2884 33.8676 93.2898 33.8936 93.2898 33.9183C93.2898 34.1402 93.3503 34.3182 93.4713 34.4524C93.5949 34.5866 93.7576 34.6537 93.9592 34.6537H94.0722C94.341 34.6537 94.5575 34.5373 94.7215 34.3045C94.8855 34.0689 94.9675 33.7553 94.9675 33.3636ZM92.6324 36.9997C92.2856 36.9997 92.1122 36.8805 92.1122 36.6422V36.556C92.1122 36.4957 92.1364 36.3711 92.1848 36.1821C92.2332 35.9931 92.2627 35.7507 92.2735 35.4549C92.2869 35.1591 92.2937 34.7619 92.2937 34.2634V32.924L92.2896 32.6282C92.2896 32.2804 92.2601 32.0229 92.2009 31.8558C92.1418 31.686 92.1122 31.56 92.1122 31.4778C92.1122 31.3162 92.3206 31.2354 92.7373 31.2354C92.7454 31.2354 92.7521 31.2354 92.7574 31.2354C92.8166 31.2354 92.9026 31.256 93.0156 31.2971C93.1285 31.3354 93.2414 31.3546 93.3543 31.3546C93.4699 31.3546 93.6299 31.3176 93.8342 31.2436C94.0386 31.1697 94.2348 31.1327 94.423 31.1327H94.5198C94.95 31.1327 95.3062 31.3066 95.5885 31.6545C95.8681 32.0024 96.008 32.468 96.008 33.0514V33.1582C96.008 33.4376 95.9622 33.7252 95.8708 34.021C95.7821 34.3168 95.6423 34.5647 95.4514 34.7646C95.2632 34.9619 95.0602 35.0988 94.8425 35.1755C94.6274 35.2495 94.376 35.2864 94.0883 35.2864C93.8006 35.2864 93.5949 35.3289 93.4713 35.4138C93.4121 35.4549 93.3825 35.5247 93.3825 35.6233C93.3825 35.7219 93.4 35.8561 93.435 36.026C93.4726 36.1985 93.4914 36.3505 93.4914 36.482C93.4914 36.6135 93.4229 36.7326 93.2858 36.8395C93.1513 36.9463 92.9954 36.9997 92.8179 36.9997H92.6324Z" fill="#CFDD4A"/>
<path d="M99.3351 32.5748V32.5502L99.3311 32.5255V32.4803C99.3257 32.4474 99.323 32.4242 99.323 32.4105C99.323 32.2516 99.2531 32.1105 99.1133 31.9873C98.9735 31.8613 98.8216 31.7983 98.6576 31.7983H98.5366C98.3107 31.7983 98.1212 31.8873 97.9679 32.0653C97.8147 32.2434 97.7381 32.442 97.7381 32.6611V32.7268C97.7381 32.809 97.7905 32.8501 97.8953 32.8501L97.9962 32.8624H98.2502L98.2704 32.8583L99.0084 32.8172L99.0931 32.809C99.2544 32.809 99.3351 32.7309 99.3351 32.5748ZM100.045 33.3226C99.8217 33.4129 99.3862 33.4581 98.7382 33.4581C98.093 33.4581 97.7703 33.5567 97.7703 33.754C97.7703 34.0142 97.8685 34.2182 98.0647 34.3661C98.261 34.514 98.5406 34.588 98.9036 34.588C99.0434 34.588 99.2208 34.5524 99.4359 34.4812C99.651 34.4099 99.819 34.3743 99.94 34.3743C100.088 34.3743 100.162 34.4949 100.162 34.7359C100.162 34.8893 99.9992 35.0358 99.6738 35.1755C99.3512 35.3152 99.038 35.385 98.7342 35.385H98.6414C98.3107 35.385 98.019 35.3344 97.7663 35.233C97.5163 35.1289 97.3173 34.9988 97.1694 34.8427C97.0216 34.6866 96.8992 34.4784 96.8024 34.2182C96.7083 33.958 96.6613 33.669 96.6613 33.3513V33.2527C96.6613 32.6063 96.8213 32.0968 97.1412 31.7243C97.3106 31.5271 97.5216 31.3765 97.7744 31.2724C98.0271 31.1656 98.2933 31.1122 98.5729 31.1122H98.7624C98.9533 31.1122 99.1523 31.1505 99.3593 31.2272C99.7599 31.3751 100.038 31.6655 100.194 32.0982C100.272 32.3146 100.311 32.5187 100.311 32.7104V32.8008C100.311 33.0774 100.222 33.2513 100.045 33.3226Z" fill="#CFDD4A"/>
<path d="M102.17 31.3998C102.307 31.4902 102.409 31.5354 102.477 31.5354C102.544 31.5354 102.704 31.4806 102.957 31.371C103.212 31.2587 103.45 31.2026 103.67 31.2026C104.09 31.2026 104.41 31.3573 104.63 31.6668C104.802 31.9133 104.888 32.3872 104.888 33.0884L104.896 33.3267L104.9 33.68C104.9 33.9292 104.917 34.1114 104.949 34.2264L105.054 34.4935C105.094 34.6085 105.114 34.7071 105.114 34.7893C105.114 34.981 105.063 35.1015 104.961 35.1509C104.859 35.2002 104.696 35.2248 104.473 35.2248C104.25 35.2248 104.089 35.1892 103.989 35.118C103.89 35.044 103.84 34.8948 103.84 34.6702C103.84 34.6482 103.847 34.5414 103.86 34.3497C103.876 34.158 103.884 33.9429 103.884 33.7047C103.884 32.998 103.83 32.52 103.723 32.2708C103.615 32.0188 103.414 31.8928 103.118 31.8928C102.825 31.8928 102.606 32.027 102.461 32.2954C102.372 32.457 102.327 32.7871 102.327 33.2856C102.327 33.7813 102.34 34.1278 102.364 34.325C102.388 34.525 102.4 34.6934 102.4 34.8304C102.4 35.1043 102.186 35.2412 101.759 35.2412H101.65C101.459 35.2412 101.322 35.2152 101.239 35.1632C101.158 35.1084 101.118 35.0098 101.118 34.8674V34.7605C101.118 34.7112 101.145 34.6017 101.198 34.4319C101.252 34.2593 101.283 34.0963 101.291 33.9429C101.299 33.7868 101.303 33.4595 101.303 32.961C101.303 32.4625 101.299 32.1763 101.291 32.1023C101.283 32.0256 101.261 31.9257 101.227 31.8024C101.192 31.6764 101.174 31.5723 101.174 31.4902C101.174 31.3395 101.353 31.2642 101.71 31.2642C101.883 31.2642 102.036 31.3094 102.17 31.3998Z" fill="#CFDD4A"/>
<path d="M110.107 35.3645C109.201 35.3645 108.612 35.1673 108.341 34.7729C108.257 34.6496 108.215 34.5359 108.215 34.4319V34.3086C108.215 34.2073 108.246 34.1128 108.308 34.0251C108.373 33.9347 108.439 33.8895 108.506 33.8895C108.573 33.8895 108.79 33.9991 109.155 34.2182C109.521 34.4373 109.849 34.5469 110.139 34.5469C110.432 34.5469 110.659 34.4839 110.821 34.3579C110.985 34.2292 111.067 34.047 111.067 33.8115C111.067 33.5732 110.951 33.3664 110.72 33.1911C110.599 33.1007 110.283 32.9459 109.772 32.7268C109.261 32.505 108.9 32.2858 108.687 32.0695C108.418 31.7956 108.284 31.4176 108.284 30.9355C108.284 30.7547 108.327 30.5685 108.413 30.3767C108.585 29.9933 108.915 29.7194 109.401 29.555C109.638 29.4756 109.865 29.4359 110.083 29.4359H110.224C111.025 29.4359 111.541 29.5934 111.773 29.9084C111.853 30.0207 111.893 30.1535 111.893 30.3069C111.893 30.4603 111.861 30.574 111.797 30.6479C111.735 30.7191 111.676 30.7547 111.619 30.7547C111.565 30.7547 111.324 30.6411 110.893 30.4137C110.643 30.2823 110.382 30.2165 110.111 30.2165C109.842 30.2165 109.643 30.2836 109.514 30.4178C109.388 30.5493 109.325 30.7246 109.325 30.9437C109.325 31.1601 109.462 31.3559 109.736 31.5312C109.8 31.5751 110.088 31.7079 110.599 31.9298C111.11 32.1544 111.459 32.3571 111.647 32.5378C111.97 32.8501 112.131 33.2376 112.131 33.7005C112.131 34.1744 111.959 34.5702 111.615 34.8879C111.271 35.2056 110.815 35.3645 110.248 35.3645H110.107Z" fill="#CFDD4A"/>
<path d="M114.753 34.6866H114.833C115.083 34.6866 115.286 34.5784 115.442 34.362C115.598 34.1429 115.676 33.8786 115.676 33.5691L115.684 33.4828L115.688 33.3554V33.0884C115.688 32.7076 115.608 32.394 115.446 32.1475C115.285 31.901 115.07 31.7778 114.801 31.7778H114.68C114.422 31.7778 114.219 31.9037 114.071 32.1557C113.923 32.405 113.849 32.757 113.849 33.2116C113.849 33.6663 113.927 34.0265 114.083 34.2922C114.239 34.5551 114.462 34.6866 114.753 34.6866ZM114.846 35.4179H114.773C114.179 35.4179 113.695 35.2193 113.321 34.8222C113.001 34.4798 112.841 33.9594 112.841 33.2609V33.187L112.845 33.113C112.848 32.8199 112.895 32.5406 112.986 32.2749C113.169 31.7517 113.509 31.397 114.007 31.2108C114.257 31.1177 114.522 31.0711 114.801 31.0711L114.874 31.0752C115.449 31.0752 115.92 31.2779 116.285 31.6833C116.597 32.0311 116.753 32.505 116.753 33.1048V33.1788C116.753 33.4691 116.71 33.7594 116.624 34.0498C116.46 34.6085 116.123 35.0057 115.612 35.2412C115.354 35.359 115.098 35.4179 114.846 35.4179Z" fill="#CFDD4A"/>
<path d="M118.584 35.2946H118.278C118.054 35.2946 117.896 35.2536 117.802 35.1714C117.708 35.0892 117.661 34.966 117.661 34.8016C117.661 34.7605 117.673 34.677 117.697 34.551L117.725 34.4236C117.795 34.1114 117.83 33.8663 117.83 33.6882V33.3431L117.834 33.187V32.6282L117.838 32.3899V31.9914C117.838 30.967 117.834 30.4096 117.826 30.3192C117.818 30.2261 117.779 30.0933 117.709 29.9207C117.639 29.7454 117.604 29.6386 117.604 29.6002V29.5304C117.604 29.4126 117.661 29.3332 117.773 29.2921C117.889 29.251 118.083 29.2305 118.354 29.2305C118.628 29.2305 118.788 29.3332 118.834 29.5386C118.839 29.5633 118.842 29.8974 118.842 30.5411L118.838 30.6233C118.838 30.6753 118.838 30.7273 118.838 30.7794L118.834 31.0218V31.4162L118.83 31.5723C118.83 32.8651 118.842 33.6019 118.866 33.7827C118.893 33.9635 118.963 34.1895 119.076 34.4606C119.192 34.729 119.249 34.8687 119.249 34.8797C119.249 35.1563 119.028 35.2946 118.584 35.2946Z" fill="#CFDD4A"/>
<path d="M123.968 34.855C123.968 35.0988 123.75 35.2207 123.315 35.2207C123.183 35.2207 123.047 35.1837 122.907 35.1098C122.767 35.0331 122.681 34.9947 122.649 34.9947L122.222 35.1632C121.993 35.2536 121.786 35.2988 121.601 35.2988H121.492C121.263 35.2988 121.055 35.2481 120.867 35.1467C120.678 35.0427 120.535 34.8989 120.435 34.7153C120.29 34.4497 120.217 33.8498 120.217 32.9158C120.217 32.494 120.211 32.242 120.197 32.1598C120.184 32.0777 120.151 31.9667 120.1 31.8271C120.049 31.6874 120.024 31.5682 120.024 31.4696C120.024 31.371 120.061 31.2984 120.137 31.2519C120.212 31.2053 120.342 31.182 120.528 31.182H120.637C120.906 31.182 121.078 31.2751 121.153 31.4614C121.199 31.5737 121.222 32.0188 121.222 32.7967C121.222 33.5745 121.263 34.0539 121.347 34.2347C121.451 34.4647 121.642 34.5798 121.919 34.5798C122.062 34.5798 122.198 34.5428 122.327 34.4688C122.458 34.3949 122.555 34.2963 122.617 34.173C122.716 33.9786 122.766 33.5787 122.766 32.9733C122.766 32.694 122.749 32.4296 122.714 32.1804C122.679 31.9311 122.661 31.7558 122.661 31.6545C122.661 31.3532 122.897 31.2026 123.367 31.2026C123.598 31.2026 123.733 31.2929 123.77 31.4737C123.781 31.5258 123.786 31.912 123.786 32.6323C123.786 33.3527 123.805 33.8293 123.843 34.0621C123.881 34.2949 123.91 34.4634 123.932 34.5674C123.956 34.6688 123.968 34.7345 123.968 34.7646V34.855Z" fill="#CFDD4A"/>
<path d="M125.4 34.7934C125.252 34.5387 125.178 34.0717 125.178 33.3924C125.178 32.7131 125.155 32.2858 125.109 32.1105C125.085 32.0147 125.007 31.9216 124.875 31.8312C124.744 31.7408 124.678 31.6257 124.678 31.486C124.678 31.3464 124.719 31.2478 124.803 31.1902C124.822 31.1765 124.875 31.1464 124.964 31.0998C125.053 31.0505 125.107 31.0122 125.125 30.9848C125.147 30.9547 125.187 30.8232 125.246 30.5904C125.308 30.3548 125.37 30.1919 125.432 30.1015C125.496 30.0083 125.588 29.9618 125.706 29.9618H125.775C125.928 29.9618 126.041 30.0111 126.113 30.1097C126.151 30.1617 126.19 30.2905 126.23 30.4959C126.271 30.7013 126.326 30.8451 126.396 30.9273C126.466 31.0095 126.611 31.0807 126.831 31.1409C127.054 31.1985 127.166 31.2929 127.166 31.4244C127.166 31.5559 127.132 31.6477 127.065 31.6997C126.998 31.7517 126.866 31.7997 126.67 31.8435C126.474 31.8873 126.346 31.9558 126.287 32.0489C126.228 32.1393 126.198 32.3927 126.198 32.809L126.194 32.8953C126.191 32.9528 126.19 33.0199 126.19 33.0966V33.339C126.19 33.8457 126.24 34.1717 126.339 34.3168C126.401 34.4072 126.534 34.4688 126.739 34.5017C126.946 34.5318 127.056 34.5496 127.069 34.5551C127.174 34.6099 127.227 34.6989 127.227 34.8222V34.8879C127.227 35.0002 127.153 35.0961 127.005 35.1755C126.86 35.2522 126.679 35.2905 126.464 35.2905H126.299C125.893 35.2905 125.593 35.1248 125.4 34.7934Z" fill="#CFDD4A"/>
<path d="M128.771 29.3989H128.832C129.195 29.3989 129.376 29.5468 129.376 29.8426V29.9988C129.368 30.0398 129.364 30.0905 129.364 30.1508C129.364 30.211 129.322 30.2836 129.239 30.3685C129.158 30.4507 129.055 30.4918 128.928 30.4918L128.811 30.5041H128.699C128.548 30.5041 128.431 30.4685 128.348 30.3973C128.264 30.3233 128.223 30.2247 128.223 30.1015C128.217 30.0796 128.215 30.0604 128.215 30.044L128.211 29.9659L128.215 29.9454C128.215 29.9317 128.215 29.918 128.215 29.9043L128.223 29.8262C128.223 29.7002 128.268 29.5975 128.36 29.5181C128.451 29.4386 128.588 29.3989 128.771 29.3989ZM128.549 35.2946C128.227 35.2919 128.065 35.1645 128.065 34.9126C128.065 34.792 128.091 34.6578 128.142 34.5099C128.196 34.362 128.233 34.2305 128.255 34.1155C128.279 34.0005 128.291 33.6649 128.291 33.1089C128.291 32.5502 128.282 32.2365 128.263 32.1681C128.247 32.0968 128.204 31.9996 128.134 31.8764C128.064 31.7531 128.029 31.6586 128.029 31.5929V31.5436C128.029 31.4094 128.072 31.3217 128.158 31.2806C128.244 31.2368 128.391 31.2149 128.598 31.2149L128.767 31.2026H128.932C129.129 31.2026 129.243 31.2834 129.275 31.445C129.286 31.497 129.291 31.7285 129.291 32.1393V33.0185L129.295 33.1911V33.4828L129.303 33.6512C129.306 33.6896 129.307 33.7553 129.307 33.8484C129.307 33.9388 129.353 34.1059 129.445 34.3497C129.536 34.5935 129.582 34.7551 129.582 34.8345V34.8797C129.582 35.1563 129.349 35.2946 128.884 35.2946H128.549Z" fill="#CFDD4A"/>
<path d="M132.272 34.6866H132.352C132.602 34.6866 132.805 34.5784 132.961 34.362C133.117 34.1429 133.195 33.8786 133.195 33.5691L133.203 33.4828L133.207 33.3554V33.0884C133.207 32.7076 133.127 32.394 132.965 32.1475C132.804 31.901 132.589 31.7778 132.32 31.7778H132.199C131.941 31.7778 131.738 31.9037 131.59 32.1557C131.442 32.405 131.368 32.757 131.368 33.2116C131.368 33.6663 131.446 34.0265 131.602 34.2922C131.758 34.5551 131.981 34.6866 132.272 34.6866ZM132.364 35.4179H132.292C131.698 35.4179 131.214 35.2193 130.84 34.8222C130.52 34.4798 130.36 33.9594 130.36 33.2609V33.187L130.364 33.113C130.367 32.8199 130.414 32.5406 130.505 32.2749C130.688 31.7517 131.028 31.397 131.526 31.2108C131.776 31.1177 132.04 31.0711 132.32 31.0711L132.393 31.0752C132.968 31.0752 133.439 31.2779 133.804 31.6833C134.116 32.0311 134.272 32.505 134.272 33.1048V33.1788C134.272 33.4691 134.229 33.7594 134.143 34.0498C133.979 34.6085 133.641 35.0057 133.131 35.2412C132.873 35.359 132.617 35.4179 132.364 35.4179Z" fill="#CFDD4A"/>
<path d="M136.127 31.3998C136.264 31.4902 136.366 31.5354 136.434 31.5354C136.501 31.5354 136.661 31.4806 136.914 31.371C137.169 31.2587 137.407 31.2026 137.627 31.2026C138.047 31.2026 138.367 31.3573 138.587 31.6668C138.759 31.9133 138.845 32.3872 138.845 33.0884L138.853 33.3267L138.857 33.68C138.857 33.9292 138.873 34.1114 138.906 34.2264L139.011 34.4935C139.051 34.6085 139.071 34.7071 139.071 34.7893C139.071 34.981 139.02 35.1015 138.918 35.1509C138.816 35.2002 138.653 35.2248 138.43 35.2248C138.207 35.2248 138.045 35.1892 137.946 35.118C137.846 35.044 137.797 34.8948 137.797 34.6702C137.797 34.6482 137.803 34.5414 137.817 34.3497C137.833 34.158 137.841 33.9429 137.841 33.7047C137.841 32.998 137.787 32.52 137.68 32.2708C137.572 32.0188 137.371 31.8928 137.075 31.8928C136.782 31.8928 136.563 32.027 136.417 32.2954C136.329 32.457 136.284 32.7871 136.284 33.2856C136.284 33.7813 136.296 34.1278 136.321 34.325C136.345 34.525 136.357 34.6934 136.357 34.8304C136.357 35.1043 136.143 35.2412 135.716 35.2412H135.607C135.416 35.2412 135.279 35.2152 135.195 35.1632C135.115 35.1084 135.075 35.0098 135.075 34.8674V34.7605C135.075 34.7112 135.101 34.6017 135.155 34.4319C135.209 34.2593 135.24 34.0963 135.248 33.9429C135.256 33.7868 135.26 33.4595 135.26 32.961C135.26 32.4625 135.256 32.1763 135.248 32.1023C135.24 32.0256 135.218 31.9257 135.183 31.8024C135.148 31.6764 135.131 31.5723 135.131 31.4902C135.131 31.3395 135.31 31.2642 135.667 31.2642C135.839 31.2642 135.993 31.3094 136.127 31.3998Z" fill="#CFDD4A"/>
<path d="M140.216 33.0802C139.991 32.8638 139.878 32.5885 139.878 32.2543C139.878 31.9202 140.015 31.6394 140.289 31.4121C140.563 31.1848 140.929 31.0711 141.386 31.0711C142.351 31.0711 142.834 31.271 142.834 31.6709C142.834 31.8051 142.808 31.9133 142.757 31.9955C142.703 32.0804 142.635 32.1229 142.551 32.1229C142.471 32.1229 142.3 32.0653 142.039 31.9503C141.781 31.8325 141.562 31.7736 141.382 31.7736C141.202 31.7736 141.066 31.8134 140.975 31.8928C140.886 31.9695 140.842 32.0503 140.842 32.1352C140.842 32.2913 140.918 32.4214 141.071 32.5255C141.128 32.5639 141.362 32.6597 141.773 32.8131C142.187 32.9637 142.48 33.1185 142.652 33.2774C142.884 33.4937 142.999 33.7704 142.999 34.1073C142.999 34.4442 142.889 34.7181 142.668 34.929C142.37 35.2166 142.002 35.3604 141.563 35.3604H141.455C140.96 35.3604 140.591 35.3166 140.35 35.2289C140.022 35.1111 139.858 34.9441 139.858 34.7277V34.6332C139.858 34.5044 139.886 34.4058 139.942 34.3374C139.999 34.2661 140.048 34.2305 140.091 34.2305C140.204 34.2305 140.401 34.3004 140.68 34.4401C140.963 34.5798 141.2 34.6496 141.394 34.6496C141.59 34.6496 141.742 34.6099 141.85 34.5305C141.96 34.4483 142.015 34.3346 142.015 34.1895C142.015 34.0415 141.91 33.9073 141.701 33.7868C141.644 33.754 141.421 33.6649 141.031 33.5198C140.641 33.3746 140.37 33.2281 140.216 33.0802Z" fill="#CFDD4A"/>
<g filter="url(#filter0_d_5318_14447)">
<path fill-rule="evenodd" clip-rule="evenodd" d="M26.7969 3.47667C26.7969 7.70032 30.1879 11.1243 34.3711 11.1245V19.3129C25.7091 19.3118 18.6875 12.2217 18.6875 3.47567V3.47559H26.7969V3.47667ZM3 19.3145C3 10.7693 9.70299 3.80471 18.0898 3.4885V11.6899C14.1842 11.9959 11.1094 15.2927 11.1094 19.3146C11.1094 23.5383 14.5006 26.9624 18.684 26.9624C22.6685 26.9624 25.9344 23.8561 26.2359 19.9111H34.3603C34.0496 28.3814 27.1507 35.1518 18.6856 35.1518C10.0227 35.1518 3 28.0612 3 19.3145Z" fill="#35AC55"/>
</g>
<defs>
<filter id="filter0_d_5318_14447" x="0" y="1.47559" width="37.3711" height="37.6758" filterUnits="userSpaceOnUse" color-interpolation-filters="sRGB">
<feFlood flood-opacity="0" result="BackgroundImageFix"/>
<feColorMatrix in="SourceAlpha" type="matrix" values="0 0 0 0 0 0 0 0 0 0 0 0 0 0 0 0 0 0 127 0" result="hardAlpha"/>
<feOffset dy="1"/>
<feGaussianBlur stdDeviation="1.5"/>
<feComposite in2="hardAlpha" operator="out"/>
<feColorMatrix type="matrix" values="0 0 0 0 0 0 0 0 0 0 0 0 0 0 0 0 0 0 0.3 0"/>
<feBlend mode="normal" in2="BackgroundImageFix" result="effect1_dropShadow_5318_14447"/>
<feBlend mode="normal" in="SourceGraphic" in2="effect1_dropShadow_5318_14447" result="shape"/>
</filter>
</defs>
</svg>
