<svg width="123" height="48" viewBox="0 0 123 48" fill="none" xmlns="http://www.w3.org/2000/svg">
<g clip-path="url(#clip0_2690_8207)">
<path d="M44.4639 17.0714L43.1965 19.6435C41.7967 18.8479 40.0376 18.2927 38.9594 18.2927C38.0893 18.2927 37.503 18.6072 37.503 19.2365C37.503 21.4756 44.5016 20.1987 44.5016 24.8805C44.5016 27.4714 42.1562 28.8407 39.2053 28.8407C36.9923 28.8407 34.7222 28.0264 33.1523 26.768L34.4575 24.2328C35.8194 25.3987 37.8623 26.1759 39.2431 26.1759C40.3024 26.1759 40.9644 25.7873 40.9644 25.0471C40.9644 22.7524 33.9656 24.1218 33.9656 19.5325C33.9656 17.1453 36.0654 15.6279 39.2431 15.6279C41.1536 15.6279 43.1021 16.2015 44.4639 17.0714Z" fill="#141A1F"/>
<path d="M55.2092 20.8847L52.8636 22.2726C52.3907 21.6248 51.6908 21.2362 50.8018 21.2362C49.5344 21.2362 48.6644 22.2541 48.6644 23.7529C48.6644 25.2889 49.5344 26.2882 50.8018 26.2882C51.7285 26.2882 52.4474 25.918 52.8826 25.1594L55.2659 26.5288C54.4336 27.9907 52.7879 28.8419 50.6315 28.8419C47.4915 28.8419 45.373 26.8063 45.373 23.7714C45.373 20.6995 47.5105 18.6455 50.6694 18.6455C52.6933 18.6455 54.3202 19.4597 55.2092 20.8847Z" fill="#141A1F"/>
<path d="M62.3769 25.3453V24.4572H60.3152C59.3314 24.4572 58.8397 24.7902 58.8397 25.5303C58.8397 26.252 59.3693 26.7147 60.2771 26.7147C61.2988 26.7147 62.1687 26.1596 62.3769 25.3453ZM65.5925 22.2179V28.7319H62.3959V27.5845C61.7338 28.4357 60.6556 28.8799 59.2747 28.8799C57.0994 28.8799 55.7754 27.5845 55.7754 25.7524C55.7754 23.8649 57.1561 22.7546 59.6909 22.7361H62.3769V22.5881C62.3769 21.6074 61.7147 21.0151 60.3907 21.0151C59.5394 21.0151 58.4236 21.3112 57.3453 21.8478L56.4185 19.7382C58.0074 19.0165 59.445 18.6094 61.1475 18.6094C63.9469 18.6094 65.5737 19.9602 65.5925 22.2179Z" fill="#141A1F"/>
<path d="M67.918 28.7309H71.1904V15H67.918V28.7309Z" fill="#141A1F"/>
<path d="M80.2735 22.8832C80.2735 21.6618 79.4791 20.8662 78.3064 20.8662C77.1713 20.8662 76.3957 21.6804 76.1877 22.8832H80.2735ZM83.4134 24.6043H76.2445C76.5659 25.7885 77.436 26.4547 78.6466 26.4547C79.5358 26.4547 80.4058 26.1031 81.0868 25.4369L82.8081 27.084C81.7678 28.1941 80.2357 28.8419 78.3629 28.8419C75.0339 28.8419 72.9531 26.8063 72.9531 23.7714C72.9531 20.6812 75.1094 18.6455 78.2683 18.6455C81.8624 18.6455 83.6404 20.9587 83.4134 24.6043Z" fill="#141A1F"/>
<path d="M94.3455 28.7313L92.3405 22.4024L90.3353 28.7313H87.0818L83.3555 18.7568H86.6847L88.7843 25.6594L90.8271 18.7568H93.9483L96.0479 25.6594L98.1097 18.7568H101.306L97.5801 28.7313H94.3455Z" fill="#141A1F"/>
<path d="M107.869 25.3453V24.4572H105.807C104.824 24.4572 104.332 24.7902 104.332 25.5303C104.332 26.252 104.861 26.7147 105.769 26.7147C106.791 26.7147 107.661 26.1596 107.869 25.3453ZM111.085 22.2179V28.7319H107.888V27.5845C107.226 28.4357 106.148 28.8799 104.767 28.8799C102.592 28.8799 101.268 27.5845 101.268 25.7524C101.268 23.8649 102.648 22.7546 105.183 22.7361H107.869V22.5881C107.869 21.6074 107.207 21.0151 105.883 21.0151C105.032 21.0151 103.916 21.3112 102.838 21.8478L101.911 19.7382C103.5 19.0165 104.937 18.6094 106.64 18.6094C109.439 18.6094 111.066 19.9602 111.085 22.2179Z" fill="#141A1F"/>
<path d="M118.556 29.7676C117.799 31.5811 116.513 32.4694 114.622 32.4694C113.487 32.4694 112.56 32.1363 111.652 31.4515L113.014 29.2678C113.487 29.6381 113.884 29.8045 114.357 29.8045C114.943 29.8045 115.359 29.5455 115.624 29.0088L115.87 28.5092L111.633 18.7568H115L117.497 25.3817L119.71 18.7568H122.963L118.556 29.7676Z" fill="#141A1F"/>
<path d="M21.0442 30.2013C21.0427 30.2113 21.0423 30.2209 21.0423 30.231C21.0423 30.2328 21.0423 30.2339 21.0423 30.2353V35.9382C21.0134 36.2729 20.7281 36.5361 20.3788 36.5361C20.3735 36.5361 20.3709 36.5377 20.3668 36.538H14.6274C14.6268 36.538 14.6252 36.538 14.6241 36.538C14.6166 36.538 14.6098 36.5388 14.6026 36.5391H11.0181C10.5415 36.5391 10.1562 36.1601 10.1562 35.6918C10.1562 35.2244 10.5415 34.8446 11.0181 34.8446C11.0195 34.8446 11.021 34.8453 11.0233 34.8453H18.445C18.4513 34.8441 18.4548 34.8427 18.4608 34.8427C18.9121 34.8427 19.282 34.502 19.3197 34.0686V26.6931C19.3197 26.6913 19.3193 26.6887 19.3193 26.6872C19.3193 26.219 19.7054 25.84 20.1816 25.84C20.657 25.84 21.0442 26.219 21.0442 26.6872V30.2013ZM6.23104 31.8275C6.23104 31.3604 6.61677 30.9809 7.09359 30.9809C7.09516 30.9809 7.09773 30.9809 7.09893 30.9809H14.5213C14.527 30.9802 14.5307 30.9787 14.5364 30.9787C14.9881 30.9787 15.358 30.6384 15.3949 30.2047V22.8288C15.3949 22.8269 15.3949 22.8251 15.3949 22.8232C15.3949 22.3554 15.7814 21.9759 16.2575 21.9759C16.7333 21.9759 17.119 22.3554 17.119 22.8232V26.3369C17.1187 26.3473 17.1178 26.3573 17.1178 26.3669C17.1178 26.3687 17.1187 26.3703 17.1187 26.3717V32.0741C17.0889 32.4092 16.8032 32.6725 16.454 32.6725C16.4495 32.6725 16.4461 32.6741 16.4423 32.6748H10.7034C10.7034 32.6748 10.7 32.6741 10.6992 32.6741C10.6921 32.6741 10.6853 32.6748 10.6786 32.6755H7.09359C6.61677 32.6755 6.23104 32.2961 6.23104 31.8275ZM5.57463 22.1598C5.09845 22.1598 4.71262 21.7807 4.71262 21.3128V17.8006C4.71308 17.7898 4.71418 17.7783 4.71418 17.767C4.71418 17.7654 4.71418 17.7647 4.71418 17.7628V12.0604C4.74286 11.725 5.02851 11.4616 5.37739 11.4616C5.38042 11.4616 5.38116 11.4613 5.383 11.4609H14.7388C15.215 11.4609 15.6007 11.8404 15.6007 12.3082C15.6007 12.7756 15.215 13.1551 14.7388 13.1551C14.7366 13.1551 14.735 13.1551 14.1913 13.1551H6.76888C7.30471 13.1554 7.30057 13.1573 7.29469 13.1573C6.84406 13.1573 6.47367 13.4976 6.43617 13.9314V21.3069C6.43617 21.3088 6.43617 21.3109 6.43617 21.3128C6.43617 21.7807 6.04988 22.1598 5.57463 22.1598ZM19.5135 16.1522C19.5135 16.62 19.1271 16.9991 18.6505 16.9991C18.649 16.9991 18.6475 16.9991 18.6448 16.9991H11.2224C11.2168 16.9999 11.2134 17.0014 11.2066 17.0014C10.7558 17.0014 10.3861 17.342 10.3485 17.7757V25.151C10.3485 25.1528 10.3485 25.1547 10.3485 25.1568C10.3485 25.6247 9.9627 26.0041 9.48735 26.0041C9.01089 26.0041 8.62469 25.6247 8.62469 25.1568V21.6449C8.62506 21.6335 8.62589 21.6228 8.62589 21.6109C8.62589 21.6098 8.62543 21.6087 8.62543 21.6068V15.9045C8.65558 15.5691 8.94086 15.3057 9.28974 15.3057C9.29204 15.3057 9.29397 15.3057 9.29507 15.3045H18.6505C19.1271 15.3045 19.5135 15.6844 19.5135 16.1522ZM13.8314 8H4.48303L4.48239 8.00036C4.47743 8.00036 4.47301 8 4.46805 8C2.01336 8 0.0212524 9.92986 -0.0317787 12.3292L-0.0371094 12.334V28.2197C-0.0371094 34.7258 5.33107 40 11.9518 40H21.4805L21.4887 39.9915C23.8885 39.9013 25.8076 37.9719 25.8193 35.5945L25.82 35.5938V19.7803C25.82 13.2739 20.4522 8 13.8314 8Z" fill="#141A1F"/>
</g>
<defs>
<clipPath id="clip0_2690_8207">
<rect width="123" height="48" fill="white"/>
</clipPath>
</defs>
</svg>
