<svg width="149" height="40" viewBox="0 0 149 40" fill="none" xmlns="http://www.w3.org/2000/svg">
<g clip-path="url(#clip0_3102_7180)">
<path d="M13.9729 29.7915H19.9216C20.5539 29.7153 21.1389 29.4184 21.5728 28.9534C22.0068 28.4884 22.2618 27.8853 22.2927 27.2508V18.6929C22.2927 18.1473 22.0753 17.6241 21.6884 17.2383C21.3016 16.8525 20.7769 16.6357 20.2298 16.6357C19.6826 16.6357 19.1579 16.8525 18.7711 17.2383C18.3842 17.6241 18.1669 18.1473 18.1669 18.6929V24.131C18.1669 24.5406 18.0037 24.9335 17.7132 25.2231C17.4228 25.5128 17.0289 25.6755 16.6181 25.6755H13.9218C13.6487 25.6757 13.3783 25.7299 13.1263 25.8351C12.8744 25.9404 12.6459 26.0944 12.4542 26.2884C12.2624 26.4823 12.1112 26.7123 12.0092 26.9651C11.9073 27.2178 11.8567 27.4881 11.8604 27.7605C11.8758 28.3074 12.1057 28.8265 12.5007 29.2063C12.8957 29.586 13.4243 29.7962 13.9729 29.7915ZM16.6553 10.254H10.7051C10.0727 10.3302 9.48776 10.627 9.0538 11.092C8.61984 11.557 8.36485 12.1601 8.33398 12.7946V21.351C8.33398 21.8966 8.55133 22.4198 8.93819 22.8057C9.32506 23.1915 9.84977 23.4082 10.3969 23.4082C10.944 23.4082 11.4687 23.1915 11.8556 22.8057C12.2425 22.4198 12.4598 21.8966 12.4598 21.351V15.9144C12.4598 15.5048 12.623 15.112 12.9134 14.8223C13.2038 14.5327 13.5978 14.37 14.0085 14.37H16.7033C16.9764 14.3698 17.2468 14.3155 17.4988 14.2103C17.7507 14.1051 17.9792 13.951 18.1709 13.7571C18.3627 13.5631 18.5139 13.3331 18.6159 13.0804C18.7178 12.8277 18.7684 12.5573 18.7647 12.2849C18.7497 11.7384 18.5203 11.2196 18.1259 10.8398C17.7315 10.4601 17.2035 10.2497 16.6553 10.254Z" fill="#510098"/>
<path d="M17.6555 6.11446C19.9797 6.11692 22.2081 7.03865 23.8517 8.67746C25.4953 10.3163 26.42 12.5383 26.4228 14.8561V31.6692C26.325 32.2367 26.0473 32.758 25.6306 33.1566C25.2139 33.5552 24.6801 33.8101 24.1075 33.884H12.8962C10.5702 33.884 8.33939 32.9625 6.69461 31.3223C5.04983 29.682 4.12581 27.4573 4.12581 25.1377V8.81883C4.12581 8.10158 4.41152 7.41372 4.92008 6.90655C5.42865 6.39939 6.11841 6.11446 6.83763 6.11446H17.6555ZM17.6555 2H6.83763C5.02418 2 3.285 2.71841 2.0027 3.99719C0.720391 5.27597 0 7.01036 0 8.81883L0 25.1392C0 28.5501 1.35871 31.8213 3.77722 34.2332C6.19574 36.645 9.47595 38 12.8962 38H24.315C25.8994 37.8705 27.3891 37.1945 28.5276 36.0881C29.6662 34.9817 30.3825 33.5141 30.5533 31.938V14.8561C30.5533 13.1673 30.2196 11.4951 29.5714 9.93489C28.9231 8.37471 27.973 6.95718 26.7752 5.7633C25.5775 4.56941 24.1556 3.62256 22.5908 2.97684C21.026 2.33113 19.349 1.99919 17.6555 2ZM46.3689 30.0275C44.9441 30.0194 43.5431 29.6619 42.2895 28.9865C41.0025 28.3112 39.887 27.3519 39.0279 26.1817C38.9225 26.0401 38.8743 25.8642 38.893 25.6888C38.9116 25.5134 38.9957 25.3514 39.1286 25.235L40.6944 23.8527C40.8226 23.7393 40.9876 23.6762 41.159 23.6751C41.1925 23.6728 41.2261 23.6728 41.2596 23.6751C41.3609 23.6895 41.4578 23.7257 41.5436 23.7812C41.6295 23.8367 41.7022 23.9101 41.7568 23.9963C42.2887 24.8532 43.0169 25.5721 43.8816 26.0937C44.7092 26.593 45.6587 26.8554 46.626 26.852C47.6621 26.852 48.4411 26.6374 48.9398 26.2142C49.4044 25.8126 49.6398 25.2736 49.6398 24.5616C49.6398 23.7739 49.3951 23.1963 48.8933 22.7963C48.2955 22.3221 47.2981 21.8881 45.929 21.5066C41.9024 20.5182 39.8596 18.6015 39.8596 15.806C39.8596 14.0746 40.4466 12.7171 41.605 11.7549C42.7232 10.8282 44.2657 10.3648 46.1892 10.3648C47.4832 10.3466 48.7652 10.614 49.9434 11.1479C51.1065 11.7118 52.1263 12.5314 52.9262 13.5449C53.0413 13.6887 53.0959 13.8715 53.0786 14.0547C53.0613 14.238 52.9733 14.4073 52.8333 14.5272L51.3186 15.8075C51.2446 15.8699 51.1585 15.9165 51.0657 15.9444C50.9728 15.9722 50.8753 15.9808 50.779 15.9695C50.6827 15.9582 50.5898 15.9273 50.506 15.8787C50.4222 15.8301 50.3493 15.7649 50.2918 15.6871C49.8203 15.0114 49.2067 14.4463 48.4937 14.0314C47.7808 13.6703 46.9885 13.4935 46.1892 13.5171C45.2708 13.5171 44.5228 13.7241 43.9653 14.1349C43.7267 14.3025 43.534 14.5269 43.4047 14.7878C43.2754 15.0486 43.2136 15.3376 43.225 15.6284C43.225 16.3002 43.4526 16.813 43.9173 17.196C44.464 17.6455 45.4474 18.0408 46.8413 18.3729C48.7338 18.881 50.2221 19.593 51.2814 20.4935C52.426 21.4665 53.0067 22.8364 53.0067 24.5631C53.0233 25.5834 52.7313 26.585 52.1689 27.4374C51.5814 28.2934 50.7602 28.9634 49.8024 29.368C48.7172 29.8263 47.5472 30.0511 46.3689 30.0275ZM61.3869 30.0985C60.1695 30.1171 58.9707 29.8001 57.9224 29.1826C56.9045 28.5678 56.0769 27.6843 55.5312 26.6296C54.9543 25.5062 54.6619 24.2591 54.6794 22.997C54.661 21.7385 54.9485 20.4943 55.5172 19.3706C56.0548 18.3126 56.8796 17.4264 57.8976 16.813C58.9383 16.1924 60.1311 15.8716 61.3435 15.8863C62.3594 15.866 63.3625 16.1149 64.2505 16.6076C65.1002 17.1135 65.8438 17.7785 66.4404 18.566C66.5547 18.714 66.6058 18.901 66.5826 19.0864C66.5594 19.2718 66.4638 19.4405 66.3165 19.556L65.0326 20.5537C64.9091 20.6526 64.7558 20.707 64.5974 20.7081C64.5618 20.7104 64.5261 20.7104 64.4905 20.7081C64.3953 20.6934 64.304 20.6596 64.2223 20.6086C64.1405 20.5576 64.07 20.4906 64.0151 20.4116C63.3104 19.3923 62.4354 18.898 61.3373 18.898C60.7049 18.887 60.0833 19.0621 59.5501 19.4015C59.0086 19.7531 58.5763 20.2484 58.3018 20.8317C57.9935 21.5152 57.8341 22.2561 57.8341 23.0055C57.8341 23.755 57.9935 24.4959 58.3018 25.1794C58.574 25.7642 59.0068 26.2601 59.5501 26.6095C60.0824 26.9432 60.701 27.1139 61.3296 27.1007C62.0296 27.1007 62.6011 26.9864 63.0254 26.7609C63.4991 26.4983 63.9123 26.1395 64.2381 25.7076C64.3497 25.5656 64.5115 25.4717 64.6903 25.445C64.8692 25.4182 65.0515 25.4608 65.1999 25.5639L66.5612 26.5107C66.6408 26.566 66.7082 26.637 66.759 26.7194C66.8099 26.8018 66.8432 26.8938 66.8569 26.9895C66.8705 27.0853 66.8642 27.1829 66.8384 27.2762C66.8126 27.3694 66.7678 27.4564 66.7068 27.5316C66.0752 28.3117 65.283 28.9475 64.3837 29.3958C63.4543 29.8625 62.4274 30.1033 61.3869 30.0985ZM74.4225 30.0985C73.2096 30.1132 72.0163 29.7924 70.9751 29.1718C69.9569 28.5578 69.1296 27.674 68.5854 26.6188C68.0057 25.4876 67.7132 24.2318 67.7336 22.9615C67.7144 21.706 68.0014 20.4647 68.5699 19.3444C69.1088 18.2993 69.926 17.4224 70.9317 16.8099C71.9681 16.1886 73.1576 15.8677 74.3668 15.8832C75.3179 15.8745 76.2564 16.1005 77.0987 16.5412C77.3795 16.6897 77.6478 16.8607 77.901 17.0524V17.003C77.9014 16.8159 77.9761 16.6366 78.1087 16.5043C78.2414 16.372 78.4212 16.2975 78.6087 16.2971H80.3542C80.5417 16.2975 80.7215 16.372 80.8542 16.5043C80.9868 16.6366 81.0615 16.8159 81.0619 17.003V28.9834C81.0615 29.1705 80.9868 29.3498 80.8542 29.482C80.7215 29.6143 80.5417 29.6888 80.3542 29.6892H78.6072C78.4196 29.6888 78.2398 29.6143 78.1072 29.482C77.9745 29.3498 77.8998 29.1705 77.8994 28.9834V28.9402C77.6522 29.1266 77.3907 29.2934 77.1173 29.439C76.2883 29.8796 75.3619 30.1063 74.4225 30.0985ZM74.3714 18.8857C73.7441 18.873 73.1272 19.0472 72.5997 19.3861C72.0646 19.7396 71.6362 20.2319 71.3607 20.8101C71.0407 21.4855 70.8817 22.2255 70.8961 22.9723C70.8808 23.7312 71.0398 24.4834 71.3607 25.1716C71.6319 25.7551 72.061 26.2515 72.5997 26.6049C73.1267 26.9436 73.743 27.1178 74.3699 27.1053C75.0113 27.1187 75.6426 26.9436 76.185 26.6018C76.7298 26.2512 77.1637 25.7537 77.4363 25.167C77.7446 24.4835 77.9041 23.7426 77.9041 22.9932C77.9041 22.2437 77.7446 21.5028 77.4363 20.8193C77.1615 20.2367 76.7299 19.7416 76.1896 19.3892C75.6464 19.0467 75.0139 18.8715 74.3714 18.8857Z" fill="#510098"/>
<path d="M85.7813 10.3643H84.0359C83.645 10.3643 83.3281 10.6803 83.3281 11.0701V28.9226C83.3281 29.3124 83.645 29.6284 84.0359 29.6284H85.7813C86.1722 29.6284 86.4891 29.3124 86.4891 28.9226V11.0701C86.4891 10.6803 86.1722 10.3643 85.7813 10.3643Z" fill="#510098"/>
<path d="M114.522 29.6894C114.372 29.69 114.225 29.6426 114.104 29.5542C113.983 29.4659 113.893 29.3411 113.848 29.1982L111.57 22.0443L109.107 29.2121C109.059 29.3514 108.969 29.4722 108.849 29.5578C108.728 29.6433 108.584 29.6893 108.437 29.6894H106.691C106.542 29.6894 106.397 29.6425 106.277 29.5554C106.156 29.4683 106.066 29.3455 106.019 29.2044L102.062 17.224C102.012 17.0712 102.015 16.9059 102.071 16.7552C102.128 16.6044 102.234 16.4773 102.372 16.3946C102.487 16.3286 102.618 16.295 102.751 16.2973H104.587C104.737 16.2968 104.883 16.344 105.004 16.4321C105.125 16.5201 105.215 16.6444 105.26 16.7869L107.673 24.2405L110.126 16.7776C110.173 16.6364 110.263 16.5134 110.384 16.4263C110.504 16.3392 110.65 16.2924 110.799 16.2927H112.493C112.643 16.2922 112.79 16.3396 112.911 16.4279C113.033 16.5163 113.123 16.6409 113.168 16.7838L115.525 24.1571L117.904 16.7823C117.95 16.6398 118.039 16.5155 118.161 16.4275C118.282 16.3394 118.428 16.2922 118.578 16.2927H120.233C120.328 16.2912 120.422 16.308 120.511 16.3421C120.677 16.4095 120.811 16.537 120.887 16.6991C120.963 16.8613 120.975 17.046 120.919 17.2162L117.017 29.1982C116.971 29.3397 116.881 29.463 116.76 29.5504C116.639 29.6378 116.494 29.6848 116.345 29.6847L114.522 29.6894ZM128.036 30.1002C126.823 30.1149 125.63 29.7941 124.588 29.1735C123.57 28.5606 122.742 27.6786 122.196 26.6251C121.617 25.4934 121.325 24.2379 121.345 22.9678C121.326 21.7129 121.613 20.472 122.182 19.3522C122.72 18.3037 123.538 17.424 124.547 16.8101C125.583 16.1885 126.774 15.8676 127.983 15.8834C128.934 15.8764 129.872 16.104 130.714 16.5459C130.993 16.6932 131.259 16.8626 131.511 17.0525V17.0031C131.512 16.816 131.586 16.6367 131.719 16.5045C131.852 16.3722 132.031 16.2977 132.219 16.2973H133.966C134.154 16.2977 134.333 16.3722 134.466 16.5045C134.599 16.6367 134.673 16.816 134.674 17.0031V28.9835C134.673 29.1706 134.599 29.3499 134.466 29.4822C134.333 29.6145 134.154 29.689 133.966 29.6894H132.221C132.033 29.689 131.853 29.6145 131.721 29.4822C131.588 29.3499 131.513 29.1706 131.513 28.9835V28.9403C131.268 29.1264 131.009 29.2932 130.738 29.4392C129.907 29.8815 128.978 30.1088 128.036 30.1002ZM127.985 18.8858C127.357 18.8731 126.741 19.0473 126.213 19.3862C125.678 19.7398 125.25 20.2321 124.974 20.8102C124.654 21.4856 124.495 22.2256 124.509 22.9725C124.494 23.7313 124.653 24.4836 124.974 25.1718C125.245 25.7555 125.674 26.252 126.213 26.6051C126.741 26.944 127.357 27.1182 127.985 27.1055C128.626 27.1196 129.257 26.9444 129.798 26.602C130.338 26.2509 130.767 25.7552 131.037 25.1718C131.346 24.4883 131.505 23.7474 131.505 22.998C131.505 22.2485 131.346 21.5076 131.037 20.8241C130.765 20.2425 130.336 19.7475 129.798 19.3939C129.257 19.0507 128.626 18.874 127.985 18.8858ZM99.4092 25.4575C99.2492 25.3465 99.0535 25.2988 98.8602 25.324C98.6669 25.3491 98.4899 25.4452 98.3638 25.5934C98.0461 25.9957 97.6629 26.3419 97.2301 26.6174C96.6618 26.934 95.923 27.1008 95.0263 27.1008C93.9685 27.1008 93.1678 26.7564 92.5623 26.046C92.0775 25.4767 91.7502 24.7909 91.6129 24.0567H100.699C100.875 24.0571 101.045 23.9922 101.175 23.8745C101.305 23.7568 101.387 23.5949 101.404 23.4204C101.423 23.2258 101.432 22.957 101.432 22.6095C101.446 21.4253 101.161 20.2566 100.602 19.2117C100.065 18.2102 99.2679 17.3711 98.2941 16.7823C97.3008 16.1844 96.1601 15.8742 95 15.8865C93.7903 15.8706 92.6002 16.1916 91.5634 16.8131C90.5525 17.4299 89.7337 18.3149 89.1984 19.3692C88.6309 20.4938 88.344 21.7384 88.3621 22.9972C88.3444 24.2588 88.6368 25.5055 89.2139 26.6282C89.7586 27.684 90.5864 28.5684 91.6052 29.1828C92.6545 29.8056 93.8564 30.1264 95.0774 30.1095C96.4573 30.1095 97.6839 29.8407 98.7014 29.2693C99.526 28.8121 100.25 28.1944 100.831 27.453C100.897 27.3698 100.944 27.2741 100.971 27.1718C100.998 27.0695 101.004 26.9628 100.988 26.8582C100.972 26.7537 100.934 26.6535 100.878 26.564C100.821 26.4745 100.747 26.3975 100.659 26.3379L99.4092 25.4575ZM92.7667 19.743C93.3444 19.1669 94.0738 18.8874 95 18.8874C95.9695 18.8874 96.7036 19.1314 97.2379 19.6318C97.6722 20.0683 97.9767 20.6162 98.1176 21.2149H91.8313C92.0292 20.6597 92.35 20.1561 92.7698 19.7415L92.7667 19.743ZM148.876 16.6015C148.811 16.5069 148.724 16.4293 148.623 16.3755C148.521 16.3217 148.408 16.2933 148.293 16.2927H146.65C146.507 16.2935 146.368 16.337 146.25 16.4177C146.133 16.4984 146.042 16.6125 145.99 16.7452L142.599 25.493L139.373 16.739C139.321 16.6075 139.23 16.4947 139.113 16.4153C138.996 16.336 138.858 16.2938 138.716 16.2942H136.893C136.777 16.2949 136.664 16.3237 136.562 16.3781C136.46 16.4325 136.373 16.5109 136.308 16.6064C136.243 16.702 136.203 16.8118 136.191 16.9264C136.178 17.041 136.194 17.1569 136.236 17.2641L140.972 29.6986C140.833 30.2516 140.604 30.6325 140.286 30.8415C139.842 31.1365 139.004 31.1767 138.542 31.206C138.348 31.2192 138.166 31.3049 138.032 31.446C137.899 31.5871 137.823 31.7733 137.821 31.9675V33.166C137.821 33.2671 137.84 33.3672 137.879 33.4606C137.918 33.5539 137.975 33.6386 138.048 33.7098C138.12 33.7809 138.205 33.837 138.299 33.8749C138.393 33.9128 138.494 33.9317 138.595 33.9305C139.335 33.9305 140.522 34.0015 141.445 33.5135C143.351 32.5096 143.636 31.2647 144.172 29.85L148.956 17.2518C148.996 17.145 149.01 17.03 148.996 16.9168C148.982 16.8035 148.941 16.6954 148.876 16.6015Z" fill="#510098"/>
</g>
<defs>
<clipPath id="clip0_3102_7180">
<rect width="149" height="40" fill="white"/>
</clipPath>
</defs>
</svg>
