<svg width="141" height="40" viewBox="0 0 141 40" fill="none" xmlns="http://www.w3.org/2000/svg">
<path d="M24.7231 17.2697C23.942 17.9193 22.4561 18.3933 19.2063 18.3933C17.0648 18.3933 15.3009 18.1691 14.7781 17.8693C14.1987 17.5451 13.7202 16.5958 13.7202 15.9718C13.7224 15.9205 13.7355 15.8701 13.7586 15.8241C13.7817 15.7781 13.8144 15.7375 13.8544 15.7048C13.8944 15.6722 13.941 15.6482 13.991 15.6346C14.041 15.621 14.0933 15.6179 14.1446 15.6257C15.1766 15.8012 17.3944 16.1253 19.1583 16.1253C21.4253 16.1253 22.3835 15.8999 22.7858 15.5258C23.2643 15.1516 23.5423 14.5508 23.5423 13.404C23.5423 12.4559 23.3405 12.0318 23.0884 11.8319C22.3835 11.2079 15.5555 10.2841 14.4718 9.56024C13.8666 9.13613 13.5898 7.98812 13.5898 6.61465C13.5898 4.44294 14.1692 3.14502 15.0512 2.39675C16.0352 1.57291 17.7979 1.07324 20.6442 1.07324C22.8116 1.07324 24.172 1.22314 24.7034 1.47297C25.2348 1.72281 25.7871 2.69167 25.7871 3.30102C25.7899 3.3499 25.7817 3.39877 25.7633 3.44418C25.7448 3.4896 25.7165 3.53043 25.6804 3.56381C25.6442 3.59718 25.6011 3.62227 25.5541 3.6373C25.5071 3.65233 25.4573 3.65693 25.4083 3.65078C24.4008 3.55085 22.7132 3.32661 20.8484 3.32661C18.6343 3.32661 17.4473 3.62519 16.943 4.00055C16.4399 4.42465 16.1619 5.21924 16.1619 6.1942C16.1619 6.9437 16.2849 7.3678 16.4645 7.59204C17.0697 8.31595 24.0982 9.13979 25.2324 9.86369C25.7871 10.2135 26.1893 11.1872 26.1893 12.8592C26.1893 15.1553 25.61 16.5287 24.728 17.277" fill="#040C16"/>
<path d="M32.886 15.1468C33.6425 15.7208 35.0276 16.0706 37.3954 16.0706C39.3635 16.0706 41.2504 15.7708 42.1324 15.6964C42.3083 15.6709 42.4596 15.7464 42.435 15.995C42.3845 16.5703 41.8802 17.4684 41.3513 17.7926C40.7965 18.0924 39.3106 18.3666 36.5897 18.3666C33.6376 18.3666 31.8528 17.7682 30.8958 16.8944C29.7887 15.9707 28.8047 13.9232 28.8047 9.95518C28.8047 5.88717 29.9117 3.68986 31.2488 2.59182C32.2808 1.74239 33.9697 1.12207 37.1691 1.12207C39.3106 1.12207 40.7473 1.222 41.3513 1.59614C42.0069 1.94591 42.4091 2.84531 42.4091 3.31938C42.4091 3.51924 42.3083 3.69352 42.0574 3.66914C40.5296 3.45493 38.9888 3.34499 37.4459 3.3401C34.9525 3.3401 33.7175 3.71424 32.9869 4.3638C32.0803 5.13767 31.4247 6.85969 31.4247 9.75531C31.4247 12.6509 31.9795 14.4729 32.886 15.1468Z" fill="#040C16"/>
<path d="M58.8233 17.8197C58.8233 18.0634 58.7003 18.1683 58.522 18.1683H57.1615C56.4813 18.1683 56.33 17.994 56.33 17.2701V11.9809C56.33 10.8573 56.1787 10.733 55.2463 10.733H48.6962C47.7122 10.733 47.5621 10.8329 47.5621 11.9809V17.2481C47.5621 18.0464 47.3604 18.1707 46.6543 18.1707H45.3456C45.0934 18.1707 45.043 17.9964 45.043 17.7966V1.6464C45.043 1.40266 45.1438 1.29785 45.3456 1.29785H46.6802C47.3604 1.29785 47.5621 1.44775 47.5621 2.27281V7.23777C47.5621 8.45647 47.7134 8.51131 48.6962 8.51131H55.2721C56.1529 8.51131 56.33 8.36141 56.33 7.3633V2.2204C56.33 1.44775 56.4813 1.29785 57.191 1.29785H58.5269C58.8036 1.29785 58.8282 1.41972 58.8282 1.67199L58.8233 17.8197Z" fill="#040C16"/>
<path d="M76.5085 11.8537C76.5085 14.6994 76.1051 15.9717 75.0977 16.8954C74.2662 17.6693 72.4272 18.3932 69.4296 18.3932C66.5069 18.3932 64.5671 17.6937 63.6852 16.7455C62.8537 15.7974 62.5781 14.6238 62.5781 12.0779V1.64347C62.5781 1.39973 62.7011 1.29492 62.8807 1.29492H63.7418C64.8242 1.29492 65.1526 1.41679 65.1526 2.66717V11.7257C65.1526 13.6756 65.3544 14.497 65.8833 15.121C66.3876 15.6694 67.5968 16.1191 69.4603 16.1191C71.2992 16.1191 72.4838 15.7694 73.089 15.221C73.6425 14.6969 73.9709 13.8475 73.9709 11.7757V2.61721C73.9709 1.41923 74.3227 1.29492 75.3818 1.29492H76.1875C76.4335 1.29492 76.5147 1.39485 76.5147 1.61909L76.5085 11.8537Z" fill="#040C16"/>
<path d="M89.7332 10.8305C89.3556 10.6306 88.9276 10.5807 87.5191 10.5807H83.4599C82.9814 10.5807 82.8301 10.7549 82.8301 11.2546V15.3982C82.8301 15.9222 83.006 16.0221 83.5104 16.0477C84.1402 16.0721 85.1992 16.1221 86.4625 16.1221C88.1502 16.1221 89.3593 16.0221 89.9067 15.648C90.4614 15.2483 90.8649 14.5512 90.8649 13.2764C90.8649 12.0285 90.3101 11.1291 89.7308 10.8305H89.7332ZM89.5549 3.89124C89.026 3.54147 88.1686 3.41594 86.1796 3.41594C85.1956 3.41594 84.2115 3.44154 83.4575 3.5171C82.9286 3.54147 82.8277 3.69137 82.8277 4.19103V7.90927C82.8277 8.38457 83.0036 8.45891 83.4329 8.45891H87.438C88.422 8.45891 89.026 8.40894 89.3532 8.23467C89.807 7.95924 90.3864 7.28652 90.3864 5.91305C90.3864 4.66511 90.0088 4.19103 89.5549 3.89124ZM91.721 17.4699C90.9658 17.9684 89.6299 18.2682 86.4318 18.2682C84.1894 18.2682 82.3504 18.2194 80.8645 18.1463C80.6628 18.1463 80.2852 18.0464 80.2852 17.4724V1.89379C80.2852 1.49406 80.5865 1.41972 80.7883 1.41972C82.3504 1.34538 84.2902 1.29785 86.4072 1.29785C89.8083 1.29785 90.967 1.59643 91.6718 2.07172C92.4025 2.59576 92.9572 3.66943 92.9572 5.31589C92.9572 6.81367 92.5538 7.76303 92.1761 8.387C91.9756 8.73555 91.8489 8.90982 91.8489 9.13528C91.8489 9.33515 91.9719 9.53501 92.2512 9.85919C92.833 10.5075 93.512 11.6044 93.512 13.352C93.512 15.598 92.6054 16.9203 91.7235 17.4699" fill="#040C16"/>
<path d="M99.6449 3.49069C99.116 3.51628 98.9905 3.66618 98.9905 4.19022V8.05836C98.9905 8.45809 99.1664 8.53365 99.4936 8.53365H107.258C107.484 8.53365 107.611 8.63236 107.611 8.8822C107.611 9.23196 107.157 10.2057 106.703 10.5043C106.426 10.6798 106.099 10.7041 105.544 10.7041H99.5195C99.1406 10.7041 98.9905 10.826 98.9905 11.2794V15.273C98.9905 15.8214 99.1922 15.9957 99.7199 15.9957C100.248 15.9957 101.056 16.0213 102.568 16.0213C105.213 16.0213 107.028 15.947 108.387 15.8714C108.589 15.8714 108.74 15.947 108.74 16.1712C108.74 16.7196 108.009 17.8189 107.51 17.9993C107.056 18.1991 105.771 18.2247 102.823 18.2247C100.43 18.2247 98.4899 18.2247 97.0286 18.1492C96.8268 18.1492 96.4492 18.0492 96.4492 17.4752V1.8686C96.4492 1.4445 96.7764 1.36894 96.9781 1.36894C98.5661 1.31897 100.127 1.24707 102.294 1.24707C104.814 1.24707 106.854 1.24707 107.308 1.39697C107.787 1.51884 108.366 2.61567 108.366 3.22501C108.364 3.27116 108.352 3.31635 108.331 3.35787C108.311 3.39939 108.282 3.43638 108.247 3.46665C108.212 3.49691 108.17 3.51982 108.126 3.534C108.082 3.54818 108.035 3.55335 107.988 3.54919C106.678 3.49922 104.739 3.44925 102.773 3.44925C101.513 3.44925 100.405 3.44925 99.6486 3.49922" fill="#040C16"/>
<path d="M120.793 3.81506C120.396 3.49088 119.363 3.31661 117.449 3.31661C116.364 3.31661 115.181 3.34098 114.551 3.39095C114.248 3.41532 114.097 3.51282 114.097 3.89061V8.80805C114.097 9.28212 114.199 9.38206 114.627 9.38206H118.456C119.44 9.38206 119.843 9.33209 120.194 9.20657C120.699 9.03229 121.555 7.80872 121.555 6.03796C121.555 4.91554 121.278 4.21601 120.798 3.81627L120.793 3.81506ZM111.628 1.7189C111.622 1.67352 111.625 1.62724 111.639 1.58343C111.653 1.53961 111.676 1.49937 111.707 1.46563C111.739 1.43189 111.777 1.4055 111.82 1.38838C111.863 1.37127 111.909 1.36386 111.955 1.3667C113.443 1.31673 115.735 1.2168 117.397 1.2168C120.718 1.2168 121.932 1.46663 122.739 2.01626C123.571 2.59027 124.126 3.68831 124.126 5.58582C124.126 7.58204 123.571 8.8763 122.764 9.92803C122.437 10.3534 122.311 10.5776 122.311 10.903C122.311 11.2771 122.434 11.7268 122.764 12.6262L124.705 17.668C124.805 17.9117 124.679 18.1676 124.401 18.1676H123.797C122.588 18.1676 122.033 17.8422 121.583 16.52L120.271 13.0016C119.817 11.7829 119.338 11.5038 118.128 11.5038H114.676C114.274 11.5038 114.123 11.6037 114.123 12.0778V17.6192C114.123 18.0433 114.022 18.1689 113.62 18.1689H111.937C111.685 18.1689 111.634 18.047 111.634 17.8191L111.628 1.7189Z" fill="#040C16"/>
<path d="M140.998 16.4516C140.998 17.0512 140.752 17.3754 140.066 17.5752C138.285 18.012 136.457 18.2301 134.623 18.2248C131.373 18.2248 129.761 17.6008 128.753 16.727C127.72 15.7777 126.738 13.8314 126.738 9.8877C126.738 5.62227 128.024 3.55049 129.131 2.59869C130.164 1.70051 132.029 1.00098 135.355 1.00098C137.692 1.00098 139.109 1.15088 139.739 1.52502C140.343 1.82481 140.846 2.79855 140.846 3.32259C140.846 3.37087 140.837 3.41871 140.817 3.46308C140.798 3.50745 140.77 3.54736 140.734 3.58027C140.699 3.61318 140.656 3.63837 140.61 3.65423C140.564 3.67008 140.516 3.67626 140.467 3.67236C139.409 3.52246 137.515 3.27262 135.656 3.27262C133.111 3.27262 131.65 3.67236 130.893 4.3207C130.062 5.0702 129.282 6.84218 129.282 9.66225C129.282 12.5871 129.836 14.3055 130.718 15.0793C131.398 15.6789 132.686 16.0543 134.497 16.0543C135.933 16.0543 137.092 15.9044 137.772 15.7301C138.25 15.629 138.426 15.4303 138.426 14.877V11.5598C138.426 11.1101 138.25 10.9602 137.772 10.9602H134.622C134.395 10.9602 134.244 10.9102 134.244 10.636C134.244 10.2119 134.799 9.21377 135.152 9.0139C135.429 8.83841 135.731 8.83841 136.311 8.83841H140.065C140.644 8.83841 140.997 8.96028 140.997 9.71221L140.998 16.4516Z" fill="#040C16"/>
<path d="M39.0788 24.4489C38.6508 24.1491 37.9459 23.9748 35.9299 23.9748C34.7207 23.9748 33.6124 23.9748 32.9568 24.0247C32.6542 24.0491 32.5042 24.1466 32.5042 24.4988V29.6173C32.5042 30.0414 32.605 30.1658 33.0331 30.1658H36.2079C37.6434 30.1658 38.2731 30.0914 38.7012 29.8915C39.331 29.5174 39.9313 28.6436 39.9313 26.9959C39.9313 25.5237 39.5782 24.8023 39.0702 24.4501L39.0788 24.4489ZM40.7837 31.4137C40.0026 32.0133 38.668 32.2388 36.5265 32.2388H33.0577C32.6801 32.2388 32.5288 32.3606 32.5288 32.8627V38.225C32.5288 38.6491 32.4279 38.7746 32.0244 38.7746H30.3368C30.0846 38.7746 30.0342 38.6527 30.0342 38.4249V22.3515C30.0279 22.305 30.0317 22.2577 30.0453 22.2128C30.0589 22.1678 30.082 22.1263 30.1131 22.0909C30.1441 22.0555 30.1825 22.027 30.2255 22.0075C30.2685 21.9879 30.3153 21.9776 30.3626 21.9773C32.0244 21.903 33.9396 21.8555 35.9299 21.8555C39.1551 21.8555 40.2129 22.0797 40.994 22.6037C41.7751 23.1534 42.5058 24.3014 42.5058 26.7717C42.5058 28.919 41.7247 30.7666 40.7923 31.4149" fill="#040C16"/>
<path d="M58.8233 38.4257C58.8233 38.6694 58.7003 38.7754 58.5207 38.7754H57.1603C56.4801 38.7754 56.3288 38.5999 56.3288 37.876V32.5845C56.3288 31.4608 56.1775 31.3365 55.2463 31.3365H48.695C47.711 31.3365 47.5621 31.4364 47.5621 32.5845V37.8517C47.5621 38.6499 47.3604 38.7754 46.6543 38.7754H45.3443C45.0922 38.7754 45.043 38.5999 45.043 38.4001V22.2499C45.043 22.0062 45.1426 21.9014 45.3443 21.9014H46.6802C47.3604 21.9014 47.5621 22.0513 47.5621 22.8763V27.8425C47.5621 29.0612 47.7134 29.116 48.695 29.116H55.2709C56.1529 29.116 56.3288 28.9661 56.3288 27.968V22.8251C56.3288 22.0525 56.4801 21.9026 57.1898 21.9026H58.5244C58.8024 21.9026 58.827 22.0245 58.827 22.2767L58.8233 38.4257Z" fill="#040C16"/>
<path d="M65.3707 38.0479C65.3707 38.5719 65.1432 38.7718 64.6401 38.7718H63.1529C62.9266 38.7718 62.8516 38.5963 62.8516 38.3964V22.5997C62.8516 22.1256 63.0521 21.9014 63.506 21.9014H65.0657C65.3117 21.9014 65.3683 22.0513 65.3683 22.2755L65.3707 38.0479Z" fill="#040C16"/>
<path d="M69.4414 22.2255C69.4414 22.0513 69.4918 21.9014 69.6936 21.9014H71.1549C71.7601 21.9014 71.9606 22.1012 71.9606 22.8495V35.8798C71.9606 36.4282 72.1623 36.6037 72.6912 36.6037C73.1709 36.6037 72.6125 36.6281 74.1501 36.6281C76.6188 36.6281 78.4823 36.5282 79.7173 36.4282C79.9437 36.4282 80.095 36.5282 80.095 36.778C80.095 37.3264 79.416 38.3257 78.9116 38.5756C78.5082 38.7754 77.1231 38.8254 74.2251 38.8254C71.8314 38.8254 71.5079 38.8254 70.0208 38.7498C69.819 38.7498 69.4414 38.6499 69.4414 38.0759V22.2255Z" fill="#040C16"/>
<path d="M84.7848 38.0479C84.7848 38.5719 84.5585 38.7718 84.0541 38.7718H82.5682C82.3407 38.7718 82.2656 38.5963 82.2656 38.3964V22.5997C82.2656 22.1256 82.4661 21.9014 82.92 21.9014H84.4822C84.7282 21.9014 84.7848 22.0513 84.7848 22.2755V38.0479Z" fill="#040C16"/>
<path d="M98.8588 37.8769C98.079 38.5264 96.5918 39.0005 93.342 39.0005C91.2005 39.0005 89.4366 38.7763 88.9076 38.4765C88.3283 38.1523 87.8498 37.2029 87.8498 36.5802C87.8514 36.5282 87.8642 36.4771 87.8873 36.4304C87.9104 36.3836 87.9433 36.3423 87.9838 36.3092C88.0244 36.2761 88.0715 36.252 88.1222 36.2384C88.173 36.2248 88.226 36.2221 88.2778 36.2304C89.3111 36.4047 91.5277 36.7289 93.2916 36.7289C95.5586 36.7289 96.5168 36.5046 96.919 36.1305C97.3987 35.7551 97.6755 35.1555 97.6755 34.0075C97.6755 33.0606 97.4738 32.6353 97.2216 32.4354C96.5168 31.8114 89.6887 30.8877 88.6112 30.1638C88.0072 29.7396 87.7305 28.5916 87.7305 27.2182C87.7305 25.0477 88.3098 23.7485 89.1905 23.0003C90.1746 22.1764 91.9373 21.6768 94.7836 21.6768C96.951 21.6768 98.3114 21.8267 98.8428 22.0765C99.3742 22.3263 99.9265 23.2952 99.9265 23.8984C99.929 23.9473 99.9207 23.996 99.9022 24.0413C99.8837 24.0867 99.8554 24.1274 99.8193 24.1607C99.7832 24.1941 99.7402 24.2192 99.6932 24.2343C99.6463 24.2494 99.5966 24.2541 99.5477 24.2482C98.5402 24.1483 96.8526 23.924 94.9878 23.924C92.7737 23.924 91.5867 24.2238 91.0836 24.598C90.5793 25.0221 90.3025 25.8167 90.3025 26.7916C90.3025 27.5411 90.4255 27.9652 90.6039 28.1895C91.2091 28.9134 98.2389 29.7372 99.3717 30.4611C99.9265 30.8109 100.33 31.7846 100.33 33.4567C100.33 35.7527 99.7494 37.1262 98.8674 37.8744" fill="#040C16"/>
<path d="M0.0171604 1.67586C-0.0578733 1.40165 0.122946 1.27734 0.368957 1.27734H2.69746C3.65199 1.27734 4.15385 1.55033 4.55608 2.73978L16.6906 38.3671C16.7657 38.5901 16.6906 38.7644 16.4643 38.7644H14.0866C13.2329 38.7644 12.5798 38.4658 12.2034 37.302L0.0171604 1.67586Z" fill="#3F7EE5"/>
</svg>
