<svg  viewBox="0 0 410 410" preserveAspectRatio="xMinYMid meet" fill="none" xmlns="http://www.w3.org/2000/svg">
<path d="M354.489 137.618C353.575 134.702 352.452 131.855 351.129 129.1V128.922C344.958 116.322 334.726 106.183 322.092 100.151C309.458 94.1191 295.164 92.5475 281.529 95.6911C267.894 98.8347 255.716 106.509 246.973 117.47C238.229 128.43 233.431 142.034 233.358 156.074C233.359 160.49 233.834 164.893 234.773 169.207C234.777 169.266 234.777 169.325 234.773 169.384C235.127 171.159 235.657 172.934 236.188 174.708C239.344 187.21 239.958 200.221 237.993 212.966C236.029 225.71 231.526 237.927 224.753 248.887C217.981 259.847 209.077 269.326 198.574 276.757C188.071 284.187 176.184 289.419 163.623 292.138C151.061 294.857 138.082 295.009 125.461 292.584C112.84 290.159 100.835 285.206 90.1622 278.023C79.4899 270.839 70.369 261.572 63.3441 250.773C56.3191 239.974 51.534 227.865 49.2744 215.17C52.4697 237.177 60.2344 258.265 72.0659 277.069C83.8973 295.873 99.5317 311.974 117.957 324.329C136.382 336.685 157.188 345.02 179.026 348.794C200.865 352.568 223.25 351.698 244.732 346.24C266.214 340.781 286.314 330.856 303.732 317.108C321.15 303.359 335.496 286.092 345.843 266.426C356.189 246.76 362.305 225.132 363.795 202.943C365.284 180.755 362.114 158.499 354.489 137.618Z" fill="url(#paint0_linear_504_245)"/>
<path d="M103.211 191.034C123.724 221.025 166.164 218.363 166.164 218.363C155.554 208.07 148.657 198.665 147.95 171.868C147.242 145.071 132.035 137.972 132.035 137.972C159.267 120.758 149.541 102.124 148.657 81.361C148.127 68.4061 155.73 58.823 161.743 53.3217C127.138 58.5238 95.8688 76.9295 74.4548 104.702C53.0408 132.474 43.1345 167.469 46.801 202.391C49.2767 195.47 84.2897 163.349 103.211 191.034Z" fill="url(#paint1_linear_504_245)"/>
<path d="M354.489 137.618C353.575 134.702 352.452 131.855 351.129 129.1V128.922C344.958 116.322 334.726 106.183 322.092 100.151C309.458 94.1191 295.164 92.5475 281.529 95.6911C267.894 98.8347 255.716 106.509 246.973 117.47C238.229 128.43 233.431 142.034 233.358 156.074C233.359 160.49 233.834 164.893 234.773 169.207C234.777 169.266 234.777 169.325 234.773 169.384C235.127 171.159 235.657 172.934 236.188 174.708C239.344 187.21 239.958 200.221 237.993 212.966C236.029 225.71 231.526 237.927 224.753 248.887C217.981 259.847 209.077 269.326 198.574 276.757C188.071 284.187 176.184 289.419 163.623 292.138C151.061 294.857 138.082 295.009 125.461 292.584C112.84 290.159 100.835 285.206 90.1622 278.023C79.4899 270.839 70.369 261.572 63.3441 250.773C56.3191 239.974 51.534 227.865 49.2744 215.17C52.4697 237.177 60.2344 258.265 72.0659 277.069C83.8973 295.873 99.5317 311.974 117.957 324.329C136.382 336.685 157.188 345.02 179.026 348.794C200.865 352.568 223.25 351.698 244.732 346.24C266.214 340.781 286.314 330.856 303.732 317.108C321.15 303.359 335.496 286.092 345.843 266.426C356.189 246.76 362.305 225.132 363.795 202.943C365.284 180.755 362.114 158.499 354.489 137.618Z" fill="url(#paint2_linear_504_245)"/>
<path fill-rule="evenodd" clip-rule="evenodd" d="M328.142 180.387C328.142 257.717 265.676 320.406 188.621 320.406C147.718 320.406 110.926 302.742 85.406 274.601C86.956 275.788 88.5438 276.929 90.1675 278.022C100.84 285.206 112.845 290.158 125.466 292.583C138.088 295.008 151.066 294.857 163.628 292.137C176.19 289.418 188.077 284.187 198.58 276.756C209.082 269.325 217.986 259.847 224.758 248.887C231.531 237.927 236.034 225.71 237.999 212.965C239.963 200.22 239.349 187.209 236.193 174.708C235.662 172.933 235.132 171.158 234.778 169.384C234.782 169.325 234.782 169.265 234.778 169.206C233.839 164.892 233.365 160.49 233.364 156.074C233.437 142.034 238.234 128.43 246.978 117.469C255.722 106.509 267.899 98.8341 281.534 95.6904C287.158 94.3939 292.894 93.8995 298.579 94.1892C317.102 117.954 328.142 147.876 328.142 180.387Z" fill="url(#paint3_linear_504_245)"/>
<defs>
<linearGradient id="paint0_linear_504_245" x1="339.547" y1="112.454" x2="113.012" y2="324.642" gradientUnits="userSpaceOnUse">
<stop stop-color="#6378FF"/>
<stop offset="1" stop-color="#6312FF"/>
</linearGradient>
<linearGradient id="paint1_linear_504_245" x1="142.642" y1="34.665" x2="8.7762" y2="244.989" gradientUnits="userSpaceOnUse">
<stop stop-color="#0AA3F9"/>
<stop offset="1" stop-color="#B5B4FF"/>
</linearGradient>
<linearGradient id="paint2_linear_504_245" x1="411.002" y1="358.284" x2="197.415" y2="85.9404" gradientUnits="userSpaceOnUse">
<stop stop-color="#0AA3F9"/>
<stop offset="1" stop-color="#B5B4FF"/>
</linearGradient>
<linearGradient id="paint3_linear_504_245" x1="290.963" y1="94.1656" x2="93.5983" y2="295.111" gradientUnits="userSpaceOnUse">
<stop stop-color="#7ABBFD"/>
<stop offset="1" stop-color="#7ABBFD" stop-opacity="0"/>
</linearGradient>
</defs>
</svg>
