<svg viewBox="0 0 700 120" fill="none" xmlns="http://www.w3.org/2000/svg">
<path d="M325.466 36.6441C339.235 36.6441 350.08 37.9766 350.08 37.9766L346.07 17.1993C341.752 17.0019 333.856 16.7551 321.419 16.7551C294.275 16.7551 275.053 32.7082 275.053 60.1604C275.053 83.6768 286.206 104.022 317.804 104.022C337.532 104.022 350.093 102.727 350.105 102.727L350.093 51.4498C343.825 51.4991 321.9 51.6225 317.199 51.6472C316.015 56.311 314.83 61.1598 313.646 65.8113C313.646 65.8113 323.208 65.8483 327.563 65.8483C327.563 71.4621 327.576 77.3844 327.576 82.9982C325.318 82.9365 321.9 82.8131 319.642 82.8131C306.095 82.8131 299.593 74.4232 299.593 58.3344C299.593 43.6398 310.315 36.6441 325.466 36.6441Z" fill="#FF5B49"/>
<path d="M585.848 120L545.256 57.3843L582.061 0C572.128 1.44355 550.278 4.20727 550.278 4.20727L520.136 52.8069V6.84763C520.136 6.84763 501.37 8.63663 492.856 9.37692V110.093C501.172 110.672 511.82 111.919 520.123 112.597V65.0833L550.611 115.262C560.74 116.225 585.848 120 585.848 120Z" fill="#FF5B49"/>
<path d="M388.205 66.1197C394.423 66.1197 400.629 66.1321 406.848 66.1321C406.848 60.7897 406.848 56.1136 406.848 50.7589C400.629 50.8452 394.423 50.9316 388.205 51.0056C388.205 45.799 388.205 40.6046 388.205 35.398C405.824 34.7194 417.791 34.3122 417.791 34.2999L414.028 14.5343C414.028 14.5343 392.252 15.6201 363.183 16.4467V103.023C373.301 103.183 406.65 104.577 417.915 105.12L421.715 85.2437C408.995 84.7996 399.321 84.3431 388.217 84.047C388.205 78.137 388.205 72.0544 388.205 66.1197Z" fill="#FF5B49"/>
<path d="M452.819 66.6872C458.594 66.7119 464.38 66.9463 470.154 66.9834C470.154 61.2215 470.154 55.6323 470.154 49.8705C464.38 49.9815 458.594 50.0925 452.819 50.1912C452.819 44.306 452.819 38.5194 452.819 32.6465C462.899 32.1283 471.857 31.4991 482.591 30.8698C481.308 23.9235 480.086 17.3473 478.803 10.4874C461.826 11.7829 444.812 12.8439 427.835 13.905L427.859 105.688C443.813 106.416 466.737 108.155 482.64 109.377L486.601 89.0191C475.225 88.3405 461.419 87.1561 452.844 86.7613C452.819 80.3825 452.819 73.0537 452.819 66.6872Z" fill="#FF5B49"/>
<path d="M158.742 14.5713L132.721 86.1814L101.604 87.9827C101.604 81.6657 101.666 72.153 101.666 65.8359C107.465 65.7619 113.189 65.6262 119.001 65.5645C119.001 59.963 119.001 54.633 119.001 49.0191C113.226 48.9204 107.44 48.8217 101.666 48.7107C101.666 42.1715 101.666 36.9032 101.666 30.3516C122.875 31.5855 137.804 32.3381 137.804 32.3257C136.521 25.8236 133.658 11.9556 133.658 11.9556C113.88 10.7465 100.58 9.82111 76.6811 7.79767V29.2042H76.6934C76.6934 55.583 76.6811 84.1456 76.6811 110.524C102.69 108.316 123.603 106.749 150.265 105.33L156.027 88.5997C165.182 88.2789 174.09 87.8594 183.146 87.6003L188.155 103.689L213.152 102.899L182.036 15.546C178.223 15.3979 162.751 14.7687 158.742 14.5713ZM161.604 72.4615L170.413 46.9464L178.297 72.153C172.721 72.227 167.181 72.3751 161.604 72.4615Z" fill="#FF5B49"/>
<path d="M271.141 17.483C248.279 17.3719 226.7 17.0388 203.257 16.2985L199.42 35.9284C208.489 36.1258 215.608 36.2492 224.676 36.3849C224.676 58.285 224.664 80.7526 224.664 102.653C233.004 102.505 241.357 102.381 249.698 102.283C249.735 80.6169 249.772 58.3713 249.809 36.6933C258.927 36.7797 265.922 36.8784 275.04 36.9031L271.141 17.483Z" fill="#FF5B49"/>
<path d="M68.5873 84.3677C68.5873 52.5478 24.9846 45.9716 24.9846 33.066C24.9846 19.7162 49.0808 21.9371 62.702 31.6101L63.8002 7.06969C60.9871 6.16901 49.5991 2.38123 36.0025 2.38123C16.7798 2.38123 0 12.9056 0 33.5472C0 65.2437 43.9729 70.5984 43.9729 86.8106C43.9729 103.393 14.8304 94.8674 0 80.4318V108.402C0 108.402 10.8945 117.606 32.5725 117.606C56.459 117.619 68.5873 101.616 68.5873 84.3677Z" fill="#FF5B49"/>
</svg>
