<svg width="130" height="40" viewBox="0 0 130 40" fill="none" xmlns="http://www.w3.org/2000/svg">
<path d="M51.1523 25.827H55.2498C55.2714 26.7657 55.454 27.4483 55.7982 27.875C56.0779 28.2803 56.5723 28.483 57.2821 28.483C58.0351 28.483 58.5727 28.2483 58.8952 27.779C59.2182 27.331 59.3792 26.659 59.3792 25.763C59.3792 24.8457 59.229 24.1523 58.9276 23.683C58.6267 23.2137 58.0136 22.8723 57.0887 22.659L56.2498 22.435C55.1958 22.1363 54.3893 21.795 53.8302 21.411C53.1847 21.0057 52.6903 20.515 52.3462 19.939C51.9805 19.3417 51.7331 18.6697 51.604 17.923C51.4749 17.1977 51.4105 16.3337 51.4105 15.331C51.4105 13.2617 51.9265 11.7044 52.9588 10.659C53.9917 9.635 55.4864 9.12305 57.4436 9.12305C59.3576 9.12305 60.7989 9.603 61.7669 10.563C62.7561 11.5657 63.2941 13.1764 63.38 15.395H59.2501C59.229 14.5204 59.0783 13.8804 58.7985 13.475C58.5403 13.091 58.0887 12.899 57.4436 12.899C56.8197 12.899 56.3573 13.091 56.0564 13.475C55.755 13.9017 55.6047 14.5097 55.6047 15.299C55.6047 15.7684 55.6367 16.163 55.7014 16.483C55.723 16.7817 55.8197 17.0484 55.9916 17.283C56.1423 17.4964 56.3573 17.6777 56.6371 17.827C56.8953 17.9764 57.2605 18.115 57.7338 18.243L58.5084 18.467C59.5835 18.787 60.3365 19.0537 60.7665 19.267C61.3256 19.523 61.7777 19.8537 62.1218 20.259C62.6378 20.771 63.0143 21.4857 63.2509 22.403C63.4443 23.299 63.541 24.355 63.541 25.571C63.541 26.8083 63.4016 27.843 63.1218 28.675C62.8209 29.571 62.412 30.275 61.896 30.787C61.3153 31.363 60.6698 31.7576 59.96 31.971C59.1858 32.227 58.3145 32.355 57.3469 32.355C55.3681 32.355 53.8625 31.811 52.8302 30.723C51.7763 29.6776 51.2167 28.0457 51.1523 25.827Z" fill="#756EDA"/>
<path d="M70.1172 32.1306H65.8906V9.34668H70.1172V32.1306Z" fill="#756EDA"/>
<path d="M77.2613 32.1306H73.293V9.34668H77.2613L81.1002 21.7946L84.9394 9.34668H88.8759V32.1306H84.9075V21.1546L84.9718 18.8186L84.5202 20.7706L82.3907 27.7466H79.8101L77.6482 20.7706L77.1966 18.8186L77.2613 21.1546V32.1306Z" fill="#756EDA"/>
<path d="M91.9766 32.1306V9.34668H98.3326C100.268 9.34668 101.774 9.86933 102.849 10.9146C103.946 11.9813 104.495 13.6986 104.495 16.0666V16.8666C104.495 19.2133 103.957 20.9199 102.882 21.9866C101.828 23.0319 100.311 23.5546 98.3326 23.5546H96.2031V32.1306H91.9766ZM97.9129 13.1546H96.2031V19.7466H97.9129C98.795 19.7466 99.4077 19.5119 99.7518 19.0426C100.096 18.616 100.268 17.8266 100.268 16.6746V16.2586C100.268 15.128 100.096 14.328 99.7518 13.8586C99.4077 13.3893 98.795 13.1546 97.9129 13.1546Z" fill="#756EDA"/>
<path d="M117.626 32.1306H106.785V9.34668H111.012V28.2586H117.626V32.1306Z" fill="#756EDA"/>
<path d="M119.352 9.34668H129.999V13.2186H123.578V18.7226H128.999V22.5626H123.578V28.2586H129.999V32.1306H119.352V9.34668Z" fill="#756EDA"/>
<path d="M29.7591 20C29.7591 25.3751 25.398 29.7325 20.0183 29.7325C14.6385 29.7325 10.2773 25.3751 10.2773 20C10.2773 14.6249 14.6385 10.2676 20.0183 10.2676C25.398 10.2676 29.7591 14.6249 29.7591 20Z" fill="url(#paint0_linear_4275_10820)"/>
<mask id="mask0_4275_10820" style="mask-type:alpha" maskUnits="userSpaceOnUse" x="0" y="0" width="41" height="40">
<path fill-rule="evenodd" clip-rule="evenodd" d="M20.0173 5.09434C18.0582 5.09434 16.1182 5.47987 14.3082 6.22894C12.4982 6.97802 10.8536 8.076 9.46827 9.46009C8.08299 10.8442 6.9841 12.4874 6.23433 14.2959C5.48461 16.1043 5.09874 18.0426 5.09874 20C5.09874 21.9574 5.48461 23.8957 6.23433 25.7041C6.98406 27.5126 8.08299 29.1558 9.46827 30.5399C10.8536 31.924 12.4982 33.0219 14.3082 33.771C16.1182 34.5201 18.0582 34.9057 20.0173 34.9057C21.9764 34.9057 23.9164 34.5201 25.7264 33.771C27.5364 33.0219 29.181 31.924 30.5663 30.5399C31.9516 29.1558 33.0505 27.5126 33.8002 25.7041C34.55 23.8957 34.9359 21.9574 34.9359 20C34.9359 18.0426 34.55 16.1043 33.8002 14.2959C33.0505 12.4874 31.9516 10.8442 30.5663 9.46009C29.181 8.076 27.5364 6.97807 25.7264 6.22899C23.9164 5.47987 21.9764 5.09434 20.0173 5.09434ZM12.357 1.52241C14.7856 0.517312 17.3886 -3.44415e-07 20.0173 0C22.646 3.44416e-07 25.249 0.517317 27.6776 1.52241C30.1062 2.52751 32.3129 4.00069 34.1717 5.85789C36.0305 7.71506 37.5049 9.91982 38.5109 12.3463C39.5169 14.7729 40.0346 17.3736 40.0346 20C40.0346 22.6264 39.5169 25.2271 38.5109 27.6537C37.5049 30.0802 36.0305 32.2849 34.1717 34.1422C32.3129 35.9993 30.1062 37.4725 27.6776 38.4776C25.249 39.4827 22.646 40 20.0173 40C17.3886 40 14.7856 39.4827 12.357 38.4776C9.9284 37.4725 7.72173 35.9993 5.86291 34.1421C4.00415 32.2849 2.52969 30.0802 1.52373 27.6537C0.517764 25.2271 -2.29809e-07 22.6264 0 20C2.29809e-07 17.3736 0.517764 14.7729 1.52373 12.3463C2.52969 9.91982 4.00415 7.71506 5.86296 5.85784C7.72173 4.00069 9.9284 2.5275 12.357 1.52241Z" fill="url(#paint1_linear_4275_10820)"/>
</mask>
<g mask="url(#mask0_4275_10820)">
<path fill-rule="evenodd" clip-rule="evenodd" d="M31.0485 9.96541C29.6231 8.40123 27.8808 7.15808 25.9375 6.31858L27.9609 1.64258C30.5685 2.76896 32.9062 4.43698 34.8187 6.53575C36.7312 8.63453 38.1747 11.116 39.0532 13.8153C39.9317 16.5144 40.2252 19.3696 39.914 22.1909C39.6029 25.0121 38.6942 27.7349 37.2485 30.1783L32.8594 27.5858C33.9369 25.7648 34.614 23.7356 34.846 21.6329C35.0778 19.5303 34.8591 17.4024 34.2044 15.3907C33.5497 13.379 32.4738 11.5296 31.0485 9.96541Z" fill="url(#paint2_linear_4275_10820)"/>
<g filter="url(#filter0_d_4275_10820)">
<path fill-rule="evenodd" clip-rule="evenodd" d="M21.9903 5.22526C20.0484 4.96638 18.0745 5.09222 16.1812 5.59555C14.2879 6.09888 12.5124 6.96984 10.9561 8.15879C9.39972 9.34768 8.09297 10.8312 7.11046 12.5247C6.12795 14.2182 5.48888 16.0884 5.22978 18.0287C4.97068 19.9689 5.09663 21.9412 5.60039 23.8328C6.10415 25.7244 6.97587 27.4984 8.16584 29.0534C9.35577 30.6084 10.8406 31.914 12.5356 32.8957C13.7537 33.6012 14.1687 35.1597 13.4626 36.3768C12.7565 37.5939 11.1966 38.0086 9.97851 37.3031C7.70428 35.9859 5.71195 34.2341 4.11533 32.1476C2.5187 30.0611 1.34903 27.6809 0.673085 25.1427C-0.00285347 22.6046 -0.171822 19.9583 0.175829 17.355C0.523477 14.7516 1.38094 12.2422 2.69925 9.96989C4.01757 7.69762 5.77092 5.70701 7.8592 4.11177C9.94747 2.51653 12.3298 1.34786 14.8701 0.672503C17.4104 -0.00285111 20.059 -0.171673 22.6646 0.175677C25.2702 0.523025 27.7819 1.37975 30.0561 2.69692C31.2742 3.40242 31.6893 4.96099 30.9832 6.17802C30.2771 7.3951 28.7172 7.8098 27.4991 7.10431C25.8041 6.12265 23.9322 5.48413 21.9903 5.22526Z" fill="url(#paint3_linear_4275_10820)"/>
</g>
<g filter="url(#filter1_d_4275_10820)">
<path fill-rule="evenodd" clip-rule="evenodd" d="M23.9112 34.3892C27.6737 33.3729 30.8888 30.9258 32.8686 27.5713L37.2606 30.1589C34.6042 34.6599 30.2903 37.9434 25.2418 39.307C20.1933 40.6706 14.8112 40.0061 10.2468 37.4555C9.01797 36.7688 8.57894 35.2168 9.26623 33.989C9.95347 32.7613 11.5068 32.3226 12.7357 33.0093C16.1374 34.9102 20.1486 35.4055 23.9112 34.3892Z" fill="url(#paint4_linear_4275_10820)"/>
</g>
<path fill-rule="evenodd" clip-rule="evenodd" d="M31.9219 28.9815C33.7098 26.6156 34.7511 23.7707 34.9126 20.8105L40.0038 21.0878C39.7871 25.0597 38.39 28.8768 35.9909 32.0513L31.9219 28.9815Z" fill="url(#paint5_linear_4275_10820)"/>
</g>
<defs>
<filter id="filter0_d_4275_10820" x="-16" y="-20" width="95.3281" height="101.647" filterUnits="userSpaceOnUse" color-interpolation-filters="sRGB">
<feFlood flood-opacity="0" result="BackgroundImageFix"/>
<feColorMatrix in="SourceAlpha" type="matrix" values="0 0 0 0 0 0 0 0 0 0 0 0 0 0 0 0 0 0 127 0" result="hardAlpha"/>
<feOffset dx="16" dy="12"/>
<feGaussianBlur stdDeviation="16"/>
<feColorMatrix type="matrix" values="0 0 0 0 0 0 0 0 0 0 0 0 0 0 0 0 0 0 0.41 0"/>
<feBlend mode="normal" in2="BackgroundImageFix" result="effect1_dropShadow_4275_10820"/>
<feBlend mode="normal" in="SourceGraphic" in2="effect1_dropShadow_4275_10820" result="shape"/>
</filter>
<filter id="filter1_d_4275_10820" x="4.94141" y="15.5713" width="60.3203" height="44.4287" filterUnits="userSpaceOnUse" color-interpolation-filters="sRGB">
<feFlood flood-opacity="0" result="BackgroundImageFix"/>
<feColorMatrix in="SourceAlpha" type="matrix" values="0 0 0 0 0 0 0 0 0 0 0 0 0 0 0 0 0 0 127 0" result="hardAlpha"/>
<feOffset dx="12" dy="4"/>
<feGaussianBlur stdDeviation="8"/>
<feColorMatrix type="matrix" values="0 0 0 0 0 0 0 0 0 0 0 0 0 0 0 0 0 0 0.24 0"/>
<feBlend mode="normal" in2="BackgroundImageFix" result="effect1_dropShadow_4275_10820"/>
<feBlend mode="normal" in="SourceGraphic" in2="effect1_dropShadow_4275_10820" result="shape"/>
</filter>
<linearGradient id="paint0_linear_4275_10820" x1="20.0183" y1="10.2676" x2="20.0183" y2="29.7325" gradientUnits="userSpaceOnUse">
<stop stop-color="#9D85F8"/>
<stop offset="1" stop-color="#5A5EC7"/>
</linearGradient>
<linearGradient id="paint1_linear_4275_10820" x1="20.0173" y1="5.96045e-07" x2="20.0173" y2="40" gradientUnits="userSpaceOnUse">
<stop stop-color="#9D85F8"/>
<stop offset="1" stop-color="#5A5EC7"/>
</linearGradient>
<linearGradient id="paint2_linear_4275_10820" x1="32.986" y1="1.64258" x2="32.986" y2="30.1783" gradientUnits="userSpaceOnUse">
<stop stop-color="#876DED"/>
<stop offset="1" stop-color="#9480F1"/>
</linearGradient>
<linearGradient id="paint3_linear_4275_10820" x1="15.6637" y1="5.32538e-07" x2="15.6637" y2="37.647" gradientUnits="userSpaceOnUse">
<stop stop-color="#9D85F8"/>
<stop offset="1" stop-color="#5A5EC7"/>
</linearGradient>
<linearGradient id="paint4_linear_4275_10820" x1="23.6164" y1="27.6405" x2="23.1019" y2="40.0001" gradientUnits="userSpaceOnUse">
<stop stop-color="#9D85F8"/>
<stop offset="1" stop-color="#7276E2"/>
</linearGradient>
<linearGradient id="paint5_linear_4275_10820" x1="35.4644" y1="20.4341" x2="33.9439" y2="30.4345" gradientUnits="userSpaceOnUse">
<stop stop-color="#8E79ED"/>
<stop offset="1" stop-color="#9582F4"/>
</linearGradient>
</defs>
</svg>
