<svg width="140" height="40" viewBox="0 0 140 40" fill="none" xmlns="http://www.w3.org/2000/svg">
<g clip-path="url(#clip0_4580_14317)">
<path d="M63.2856 3H3.1321C1.41588 3 0 4.40426 0 6.10638V33.8936C0 35.5957 1.41588 37 3.1321 37H63.2427V3H63.2856Z" fill="#23336A"/>
<path d="M63.2852 3H136.868C138.584 3 140 4.40426 140 6.10638V33.8936C140 35.5957 138.584 37 136.868 37H63.2852V3Z" fill="url(#paint0_linear_4580_14317)"/>
<path opacity="0.9" d="M63.2852 3.68066H136.654C134.294 13.8934 125.369 20.4892 121.98 20.4892H63.2852V3.68066Z" fill="url(#paint1_linear_4580_14317)"/>
<path opacity="0.3" d="M63.2857 3.68066H4.0332C6.39301 13.8934 15.3174 20.4892 18.7069 20.4892H63.2857V3.68066Z" fill="url(#paint2_linear_4580_14317)"/>
<path d="M41.7889 34.9574C42.218 35.1702 43.0332 35.4255 44.1058 35.4255C45.9079 35.4681 46.8947 34.7872 47.6241 33.1702L57.3207 11.7234C56.9346 11.5106 56.0336 11.2553 55.3042 11.2553C54.0599 11.2128 52.3866 11.4681 51.314 14.0213L48.1819 21.383L42.0035 11.4681C41.6173 11.3404 40.6305 11.1702 39.944 11.1702C37.7558 11.1702 36.5545 11.9787 35.3102 13.3404L29.3034 19.8085L34.1089 27.3404C35.0099 28.7021 36.1683 29.4255 38.0562 29.4255C39.3004 29.4255 40.3302 29.1277 40.8021 28.9149L35.0528 20.1915L39.1717 15.8511L45.9079 26.3617L41.7889 34.9574ZM29.046 26.8723C29.046 28.4468 28.4024 29.383 25.3132 29.383C24.8842 29.383 24.5409 29.3404 24.1977 29.2979V8.2766C24.1977 6.70213 24.7554 5 27.8876 5C28.2737 5 28.7028 5.04255 29.046 5.12766V26.8723ZM22.6531 23.6808C22.6531 26.617 20.7223 28.7872 16.775 29.2128C13.9004 29.5106 9.78143 29.1702 7.80777 28.9574C7.72196 28.6596 7.67906 28.234 7.67906 27.9362C7.67906 25.383 9.09494 24.7872 10.3821 24.7872C11.7551 24.7872 13.9004 25.0426 15.4879 25.0426C17.247 25.0426 17.8048 24.4468 17.8048 23.8936C17.8048 23.1702 17.1183 22.8723 15.7453 22.5745L12.0125 21.8511C8.88041 21.2553 7.25 19.1277 7.25 16.8723C7.25 14.1064 9.22365 11.8085 13.0851 11.383C16.0027 11.0851 19.5639 11.4255 21.5375 11.6383C21.6233 11.9787 21.6233 12.2766 21.6233 12.617C21.6233 15.1702 20.2504 15.7234 18.9203 15.7234C17.8906 15.7234 16.346 15.5532 14.5439 15.5532C12.7419 15.5532 11.9696 16.0638 11.9696 16.6596C11.9696 17.2979 12.699 17.5532 13.8145 17.766L17.3757 18.4043C21.0656 19.0851 22.6531 21.1277 22.6531 23.6808ZM80.6184 30.9149H74.6117C73.9252 30.9149 73.3245 30.8298 72.8954 30.7021C72.4664 30.5745 72.166 30.4043 71.9515 30.1915C71.737 29.9787 71.5654 29.7234 71.4796 29.383C71.3937 29.0425 71.3508 28.7021 71.3508 28.3191V11.5532C71.3508 11.1702 71.3937 10.8298 71.4796 10.4894C71.5654 10.1915 71.6941 9.93617 71.9515 9.68085C72.166 9.46808 72.5093 9.29787 72.8954 9.17021C73.3245 9.04255 73.8823 9 74.5688 9H80.361C82.1201 9 83.5789 9.12766 84.7374 9.42553C85.8958 9.7234 86.8826 10.1064 87.612 10.617C88.3414 11.1277 88.8563 11.7234 89.1566 12.4043C89.457 13.0851 89.6286 13.8085 89.6286 14.617C89.6286 15.7234 89.2853 16.617 88.6418 17.4255C87.9553 18.234 87.0114 18.8298 85.81 19.2553L85.2093 19.4681L85.81 19.6383C87.5262 20.1064 88.7276 20.7872 89.457 21.6383C90.1864 22.4894 90.5296 23.4681 90.5296 24.5745C90.5296 26.617 89.7144 28.1489 88.084 29.2553C86.4965 30.3617 83.9651 30.9149 80.6184 30.9149ZM76.7998 27H80.0607C81.6482 27 82.7637 26.7872 83.4502 26.4043C84.1796 25.9787 84.5657 25.2553 84.5657 24.234C84.5657 23.9362 84.5228 23.6383 84.3941 23.3404C84.2654 23 84.0509 22.7021 83.7076 22.4468C83.4073 22.1915 82.9353 22.0213 82.3776 21.8511C81.8198 21.6808 81.0904 21.6383 80.1894 21.6383H76.7998V27ZM76.7998 18.1489H80.0607C80.833 18.1489 81.4765 18.0638 81.9485 17.9362C82.4634 17.8085 82.8495 17.5957 83.1928 17.3404C83.4931 17.0851 83.7076 16.8298 83.8363 16.4894C83.9651 16.1915 84.008 15.8936 84.008 15.5532C84.008 14.7021 83.6647 14.0638 83.0211 13.6383C82.3776 13.2553 81.3907 13.0426 79.9319 13.0426H76.7998V18.1489ZM98.8962 26.3617V22.234H106.705C108.55 22.234 109.58 21.5957 109.58 19.2128C109.58 18.6596 109.537 18.1064 109.408 17.766H98.8962V13.4681H106.92C108.764 13.4681 109.794 12.8298 109.794 10.4894C109.794 9.93617 109.708 9.38298 109.623 9.04255H97.609C94.1766 9.04255 93.533 10.8298 93.533 12.617V30.8723H107.391C109.236 30.8723 110.266 30.234 110.266 27.8936C110.266 27.3404 110.223 26.7872 110.095 26.4043L98.8962 26.3617ZM124.768 13.5106H129.102C130.518 13.5106 131.976 12.8723 131.976 10.0638C131.976 9.7234 131.933 9.34043 131.891 9.04255H115.072C113.656 9.04255 112.197 9.68085 112.197 12.4894C112.197 12.8298 112.24 13.2128 112.283 13.5532H119.405V30.9149C119.791 31 120.263 31 120.735 31C124.039 31 124.811 30.0638 124.811 28.3617L124.768 13.5106Z" fill="white"/>
</g>
<defs>
<linearGradient id="paint0_linear_4580_14317" x1="101.627" y1="36.9787" x2="101.627" y2="3.09574" gradientUnits="userSpaceOnUse">
<stop stop-color="#D82231"/>
<stop offset="0.256" stop-color="#C51F2D"/>
<stop offset="0.772" stop-color="#941724"/>
<stop offset="1" stop-color="#7C131F"/>
</linearGradient>
<linearGradient id="paint1_linear_4580_14317" x1="99.9479" y1="3.80705" x2="99.9479" y2="16.2517" gradientUnits="userSpaceOnUse">
<stop stop-color="#D36B75"/>
<stop offset="0.141" stop-color="#D5515D"/>
<stop offset="0.295" stop-color="#D63C4A"/>
<stop offset="0.468" stop-color="#D72D3D"/>
<stop offset="0.675" stop-color="#D82535"/>
<stop offset="1" stop-color="#D82233"/>
</linearGradient>
<linearGradient id="paint2_linear_4580_14317" x1="33.6595" y1="2.53088" x2="33.6595" y2="36.3564" gradientUnits="userSpaceOnUse">
<stop stop-color="white"/>
<stop offset="0.033" stop-color="#EBEFF7"/>
<stop offset="0.116" stop-color="#BECDE4"/>
<stop offset="0.205" stop-color="#97AED4"/>
<stop offset="0.299" stop-color="#7694C6"/>
<stop offset="0.399" stop-color="#5B7FBB"/>
<stop offset="0.507" stop-color="#466FB3"/>
<stop offset="0.628" stop-color="#3764AD"/>
<stop offset="0.773" stop-color="#2F5DA9"/>
<stop offset="1" stop-color="#2C5BA8"/>
</linearGradient>
<clipPath id="clip0_4580_14317">
<rect width="140" height="40" fill="white"/>
</clipPath>
</defs>
</svg>
