<svg width="90" height="40" viewBox="0 0 90 40" fill="none" xmlns="http://www.w3.org/2000/svg">
<path d="M8.05689 34C11.7877 34 16.0344 32.1282 16.0344 28.1937C16.0344 26.9714 15.6375 24.1446 10.9939 22.9222L7.77906 22.0819C6.82653 21.8527 6.1915 21.4707 6.1915 20.7831C6.1915 20.0191 7.02497 19.5607 8.0172 19.5607C9.16818 19.5607 10.0017 20.1337 10.0017 21.2797H15.5581C15.6375 16.8104 11.3908 15.2442 7.89813 15.2442C3.41326 15.2442 0.317513 17.9563 0.317513 20.5921C0.317513 22.0819 0.476269 25.0614 5.91368 26.4748L8.33471 27.0859C9.72383 27.3915 10.1604 27.6589 10.1604 28.2319C10.1604 29.0723 9.12849 29.6835 7.89813 29.6835C6.23119 29.6835 5.55647 28.6521 5.55647 27.7735H0C0 31.8226 3.92922 34 8.05689 34Z" fill="#4E0BF5"/>
<path d="M41.5381 15.2442C39.5933 15.2442 36.7357 16.2756 35.4656 18.6439C34.3543 16.5048 32.3302 15.2442 29.5916 15.2442C27.7262 15.2442 24.948 16.4666 24.5908 19.1787V15.7026H18.7168V33.5416H24.5908V24.221C24.5908 21.2415 26.2181 20.4775 27.8056 20.4775C29.2741 20.4775 30.7029 21.4707 30.7029 24.221V33.5416H36.5769V24.8322C36.5769 21.6999 37.9263 20.4775 39.752 20.4775C41.2602 20.4775 42.689 21.3561 42.689 24.1064V33.5416H48.563V23.9536C48.563 18.4911 46.1817 15.2442 41.5381 15.2442Z" fill="#4E0BF5"/>
<path d="M54.9973 13.0287C56.9818 13.0287 58.5693 11.5389 58.5693 9.74352C58.5693 7.87176 56.9818 6.45839 54.9973 6.45839C53.0129 6.45839 51.3459 7.87176 51.3459 9.74352C51.3459 11.5389 53.0129 13.0287 54.9973 13.0287ZM57.9343 33.5416V15.7026H52.0603V33.5416H57.9343Z" fill="#4E0BF5"/>
<path d="M67.5574 33.5416V6H61.6834V33.5416H67.5574Z" fill="#4E0BF5"/>
<path d="M90 24.2592C90 18.8349 85.5548 15.2442 80.2365 15.2442C74.9181 15.2442 70.2745 18.8731 70.2745 24.6794C70.2745 30.1037 74.4022 34 80.2762 34C83.3719 34 86.547 32.8158 88.3727 30.9059L85.3564 27.2387C84.2054 28.3083 82.4194 29.0723 80.6731 29.0723C78.4505 29.0723 76.9026 28.0027 76.3469 26.2838H89.9206C89.9603 25.4052 90 24.7558 90 24.2592ZM76.3073 22.9604C76.9026 20.8213 78.6092 20.0191 80.3555 20.0191C82.4591 20.0191 84.0863 21.2033 84.1657 22.9604H76.3073Z" fill="#4E0BF5"/>
</svg>
