<svg width="112" height="40" viewBox="0 0 112 40" fill="none" xmlns="http://www.w3.org/2000/svg">
<path fill-rule="evenodd" clip-rule="evenodd" d="M16.1377 7.79226C15.3637 9.2943 13.625 10.0267 11.9997 9.54711C11.4538 9.386 10.8855 9.29925 10.3097 9.29925C9.1406 9.29925 7.58266 9.97715 7.58266 11.3354C7.58266 12.7557 9.30263 13.3059 10.4057 13.6616L12.0297 14.1449C15.4372 15.1488 18.067 16.859 18.067 20.8024C18.067 23.2253 17.4812 25.7126 15.5344 27.3608C13.62 28.9769 11.055 29.6548 8.58847 29.6548C5.51744 29.6548 2.51123 28.6286 0.0172654 26.8973C0.00106273 26.8849 -0.00516906 26.8626 0.0048018 26.844L2.71314 21.7716C4.30474 23.1608 6.18674 24.2911 8.36163 24.2911C9.85477 24.2911 11.4439 23.5475 11.4439 21.836C11.4439 20.0589 8.94617 19.4442 7.58266 19.0575C3.58933 17.926 0.959512 16.8925 0.959512 12.1744C0.959512 7.23086 4.49917 4 9.39985 4C11.8539 4 14.8527 4.76837 17.0251 5.98288C17.0438 5.99528 17.0525 6.01882 17.0413 6.03989L16.1377 7.7935V7.79226ZM25.1513 14.5663H25.1526C25.1663 14.5663 25.18 14.5588 25.1875 14.5477C26.5485 12.5586 28.2011 11.8832 30.4982 11.8832C34.9763 11.8832 36.7624 14.6952 36.7624 18.7663V25.5081C36.7624 27.4414 35.1882 29.0091 33.2452 29.0091H30.897C30.8733 29.0091 30.8546 28.9905 30.8546 28.967V20.9313C30.8546 19.3475 31.1151 16.569 28.1937 16.569C25.7907 16.569 25.1102 18.3462 25.1102 20.4145V25.5081C25.1102 27.4414 23.536 29.0091 21.593 29.0091H19.2436C19.2211 29.0091 19.2024 28.9905 19.2024 28.967V12.4743C19.2024 12.452 19.2211 12.4334 19.2436 12.4334H25.0678C25.0915 12.4334 25.1102 12.452 25.1102 12.4743V14.5241C25.1102 14.5477 25.1289 14.5663 25.1526 14.5663H25.1513ZM43.985 20.7368C43.985 22.8374 45.3809 24.4534 47.7827 24.4534C50.1856 24.4534 51.5816 22.8374 51.5816 20.7368C51.5816 18.7018 50.1856 16.9891 47.7827 16.9891C45.3809 16.9891 43.985 18.7018 43.985 20.7368ZM53.7764 29.0091H51.4283C51.4046 29.0091 51.3871 28.9905 51.3871 28.967V27.2096C51.3871 27.1849 51.3672 27.1675 51.3448 27.1675C51.3298 27.1675 51.3161 27.1749 51.3086 27.1861C50.2667 28.822 48.2301 29.5581 46.2908 29.5581C41.3564 29.5581 37.8841 25.4548 37.8841 20.7045C37.8841 15.9555 41.2916 11.8832 46.2247 11.8832C48.103 11.8832 50.0735 12.5673 51.3124 13.964C51.3373 13.9925 51.3871 13.9764 51.3871 13.9367V12.4743C51.3871 12.452 51.4046 12.4334 51.4283 12.4334H57.2525C57.2749 12.4334 57.2936 12.452 57.2936 12.4743V25.5081C57.2936 27.4414 55.7195 29.0091 53.7764 29.0091ZM64.8129 20.7368C64.8129 22.8374 66.2088 24.4534 68.6105 24.4534C71.0123 24.4534 72.4082 22.8374 72.4082 20.7368C72.4082 18.7018 71.0123 16.9891 68.6105 16.9891C66.2076 16.9891 64.8129 18.7018 64.8129 20.7368ZM65.0497 14.3073C65.0622 14.3073 65.0771 14.2998 65.0846 14.2887C66.159 12.6528 68.1631 11.8844 70.1037 11.8844C75.0704 11.8844 78.5104 16.02 78.5104 20.7702C78.5104 25.5515 75.1028 29.5581 70.1685 29.5581C68.2578 29.5581 66.2836 28.8827 65.0173 27.4364C65.0136 27.4327 65.0086 27.4352 65.0086 27.4401V32.499C65.0086 34.4323 63.4332 36 61.4914 36H59.1008V12.4334H65.0086V14.2651C65.0086 14.2899 65.026 14.3073 65.0497 14.3073ZM85.3267 20.7368C85.3267 22.8374 86.7226 24.4534 89.1244 24.4534C91.5261 24.4534 92.9233 22.8374 92.9233 20.7368C92.9233 18.7018 91.5261 16.9891 89.1244 16.9891C86.7214 16.9891 85.3267 18.7018 85.3267 20.7368ZM85.5635 14.3073C85.5772 14.3073 85.5909 14.2998 85.5984 14.2887C86.6728 12.6528 88.6769 11.8844 90.6175 11.8844C95.583 11.8844 99.0229 16.02 99.0229 20.7702C99.0229 25.5515 95.6154 29.5581 90.6823 29.5581C88.804 29.5581 86.8622 28.9062 85.5947 27.5083C85.5697 27.4798 85.5199 27.4972 85.5199 27.5356V32.499C85.5199 34.4323 83.947 36 82.0052 36H79.6545C79.6321 36 79.6122 35.9802 79.6122 35.9579V12.4743C79.6122 12.452 79.6321 12.4334 79.6545 12.4334H85.4775C85.5024 12.4334 85.5199 12.452 85.5199 12.4743V14.2651C85.5199 14.2899 85.5386 14.3073 85.561 14.3073H85.5635ZM105.936 4.64692L101.933 19.9523H105.261C106.871 19.9523 108.277 18.8667 108.681 17.3138L112 4.64692H105.936ZM103.93 22.1161C105.993 22.1161 107.668 23.783 107.668 25.8365C107.668 27.89 105.993 29.5569 103.929 29.5569C101.867 29.5569 100.192 27.89 100.192 25.8365C100.192 23.783 101.867 22.1161 103.93 22.1161Z" fill="#00D170"/>
</svg>
