<svg width="158" height="48" lip-rule="evenodd" stroke-linecap="round" stroke-linejoin="round" stroke-miterlimit="10" viewBox="0 0 157 48" xmlns="http://www.w3.org/2000/svg"><g><path d="m130.266 10.6365c.412.0009.818.1066 1.178.3069.384.2094.701.5238.914.9066.436.7403.439 1.6578.009 2.4012-.209.38-.521.6927-.901.9011-.365.2085-.777.3189-1.197.3203-.422-.0002-.836-.1117-1.201-.3234-.377-.2099-.688-.5209-.898-.898-.207-.3641-.318-.7751-.321-1.1939.002-.4217.11-.8362.314-1.2049.212-.3871.531-.704.92-.9121.363-.2.769-.3056 1.183-.3069zm14.49 22.5516c1.578.0244 3.094-.6163 4.177-1.7654 2.314-2.3949 2.314-6.1923 0-8.5873-1.097-1.1271-2.603-1.7629-4.176-1.7629s-3.079.6358-4.177 1.7629c-2.317 2.3935-2.317 6.1939 0 8.5873 1.081 1.1502 2.597 1.7912 4.176 1.7654m-37.729 0c1.578.024 3.093-.6167 4.175-1.7654 2.314-2.3949 2.314-6.1923 0-8.5873-1.097-1.1271-2.603-1.7629-4.176-1.7629s-3.079.6358-4.176 1.7629c-2.318 2.3935-2.318 6.1939 0 8.5873 1.081 1.1505 2.598 1.7915 4.176 1.7654zm-29.105 0c1.5786.0244 3.0947-.6163 4.1774-1.7654 2.3136-2.3949 2.3136-6.1923 0-8.5873-1.0971-1.1271-2.6033-1.7629-4.1763-1.7629-1.5729 0-3.0791.6358-4.1763 1.7629-2.3136 2.395-2.3136 6.1924 0 8.5873 1.0808 1.15 2.5964 1.791 4.1744 1.7654zm44.105-.9035c.413.0009.818.1066 1.178.3069.385.2093.702.5238.914.9066.436.7403.439 1.6578.009 2.4012-.208.3796-.521.692-.9.9003-.364.2095-.777.321-1.197.3234-.422-.0001-.836-.1117-1.201-.3234-.379-.2092-.69-.5214-.898-.9003-.208-.364-.318-.7751-.321-1.1939.003-.4213.114-.8348.321-1.2018.209-.3875.528-.7048.917-.9121.363-.2.769-.3055 1.183-.3069zm22.729-15.1628c2.629-.0307 5.152 1.0381 6.96 2.9482 3.849 3.9233 3.849 10.2059 0 14.1291-1.831 1.8716-4.339 2.9265-6.958 2.9265-2.618 0-5.126-1.0549-6.957-2.9265-3.857-3.9201-3.857-10.2089 0-14.1291 1.804-1.9115 4.326-2.9806 6.955-2.9482zm-14.49 0c1.086.0148 1.961.8926 1.973 1.978v16.0664c.008.524-.204 1.0274-.586 1.387-.564.558-1.407.7244-2.141.4225-.734-.302-1.216-1.0137-1.224-1.8072v-16.0663c.012-1.0875.891-1.9662 1.978-1.9781zm-23.239 0c2.63-.0301 5.152 1.0385 6.96 2.9482 3.851 3.9224 3.851 10.2067 0 14.1291-1.831 1.8706-4.338 2.9249-6.956 2.9249-2.617 0-5.124-1.0543-6.955-2.9249-3.8588-3.9195-3.8588-10.2096 0-14.1291 1.804-1.9115 4.326-2.9806 6.954-2.9482zm-29.105 0c2.6295-.0301 5.1522 1.0385 6.9601 2.9482 3.8512 3.9224 3.8512 10.2067 0 14.1291-1.8311 1.8713-4.3388 2.9261-6.957 2.9261s-5.1259-1.0548-6.957-2.9261c-3.8584-3.9195-3.8584-10.2096 0-14.1291 1.8038-1.9114 4.3251-2.9807 6.9531-2.949zm14.5584-6.5206c1.0867.0078 1.9633.8913 1.9624 1.9781v22.5892c.0034.5209-.2025 1.0214-.5714 1.3891-.369.3678-.8701.5721-1.391.567-.525.005-1.0302-.1999-1.4035-.5691-.3725-.3643-.5783-.866-.5691-1.387v-22.5869c-.0106-.5228.1954-1.0267.5691-1.3925.3673-.38.875-.5919 1.4035-.5856zm-31.9553 26.521c-1.3859-.0063-2.7375-.4321-3.8768-1.2213-.9884-.6524-1.8228-1.5122-2.4451-2.5197-.2803-.4357-.3657-.9688-.2355-1.4702.1095-.5145.4223-.9629.8673-1.2434.93-.5598 2.1371-.2693 2.7105.6523.3237.5073.7518.9397 1.2559 1.2685.4996.37 1.1.5792 1.7214.5997.628.0143 1.2381-.2101 1.7072-.628.4376-.3434.6924-.8693.6908-1.4254.0397-.4681-.1534-.9257-.5165-1.2238-.7613-.4154-1.5769-.7225-2.4231-.9121-1.3123-.307-2.5639-.8318-3.7026-1.5526-1.3876-.996-2.1776-2.6259-2.0998-4.3322-.0123-1.6167.6711-3.1607 1.8761-4.2387 1.2003-1.1491 2.8064-1.7769 4.4679-1.7465 1.2273-.0086 2.4322.3296 3.4757.9757 1.0207.6201 1.8313 1.5327 2.3266 2.6194.2238.4745.2471 1.0191.0645 1.5109-.1825.4919-.5555.8894-1.0347 1.103-.4743.2176-1.0157.2373-1.5046.0548s-.8849-.5522-1.1006-1.0274c-.1829-.3931-.4807-.7215-.854-.9419-.4179-.2386-.8918-.3616-1.3729-.3564-.6323-.014-1.2467.2102-1.7214.628-.4292.3494-.6762.8751-.6711 1.4286-.0404.4483.1361.8888.4748 1.1852.7691.4038 1.5869.7066 2.4334.9012 1.3186.3099 2.5764.8376 3.7214 1.5612 1.3893 1.0157 2.1769 2.6602 2.0974 4.3793.0189 1.6178-.6584 3.1657-1.8595 4.2497-1.204 1.1465-2.812 1.7711-4.4742 1.7378z" fill="#35393b"/><path d="m20.168 46.42c-12.4585-2.0401-20.904204-13.7936-18.86405-26.252 2.04015-12.4585 13.79355-20.904204 26.25205-18.86405 12.4585 2.04015 20.9042 13.79355 18.864 26.25205-2.0401 12.4585-13.7936 20.9042-26.252 18.864z" fill="#158bc2"/><g fill-rule="evenodd"><path d="m19.0963 37.3821c2.6249 0 3.1226-1.7104 4.8573-1.7269 1.7355.0141 2.2355 1.7269 4.8573 1.7269 2.9451 0 5.5676-4.2388 6.4185-9.7813.376.6743.7457 1.3431 1.0526 1.9561 1.2465 2.4985 2.65 2.3972 3.471 1.9373.8211-.46 1.2073-2.183-.1051-4.1116-1.1586-1.4849-2.5541-2.7685-4.1304-3.7992-.1131-6.0174-5.2357-10.063-11.56-10.107-1.9529-.0023-3.8828.4209-5.6555 1.2403-.2735.1465-.6095.1057-.8399-.1021-.4077-.5457-.939-.9868-1.5503-1.2873-.3729-.1797-.6547-.3289-.6547-.6688.0025-.3196-.046-.6375-.1436-.9419-.5291-1.4772-2.1332-2.26992-3.628-1.79283-1.0437.38163-1.76623 1.34023-1.84562 2.44863s.49912 2.1603 1.47772 2.6867c.9787.5265 2.1751.4296 3.0563-.2475.2151-.179.4919-.2664.7708-.2433.5032.0055 1.7049 1.0142 1.011 1.6272-2.1626 1.8072-3.4562 4.4475-3.5589 7.2639-1.6509 1.0516-3.11079 2.3764-4.31723 3.9177-1.31243 1.9286-.92545 3.65-.10518 4.1116.82027.4615 2.22451.5636 3.47021-1.9365.3454-.6939.7764-1.4616 1.1994-2.2214.807 5.672 3.4648 10.0473 6.457 10.0473" fill="#fff"/><path d="m33.6304 20.2184c.2651-.0135.5026.1624.5668.4199.0492.1092.0482.2345-.0028.3429-.0511.1084-.147.1891-.2625.2207-.2651.0135-.5026-.1625-.5668-.4199-.0492-.1093-.0482-.2346.0028-.343.0511-.1083.147-.189.2625-.2206m-9.3142-3.227c-2.0557.42-2.6939-1.5612-.0965-2.1884 3.2544-.7849 7.8746 1.3344 9.2624 4.2576.3705.7794-.2072 1.0691-.8376.2904-1.7465-2.1555-4.8823-3.0644-8.3283-2.3596z" fill="#158bc2"/></g></g></svg>