<svg width="130" height="40" viewBox="0 0 130 40" fill="none" xmlns="http://www.w3.org/2000/svg">
<g clip-path="url(#clip0_4530_12454)">
<path d="M49.645 29.9462C48.4595 29.9392 47.3044 29.5815 46.3345 28.9208C45.4929 28.3807 44.7825 27.6696 44.2526 26.837C44.1351 26.66 44.0562 26.4616 44.021 26.2539C43.9858 26.0463 43.9949 25.8338 44.0478 25.6297C44.1534 25.212 44.4227 24.8506 44.7986 24.6222C45.1746 24.3937 45.6275 24.3161 46.0614 24.4059C46.4929 24.5079 46.8663 24.769 47.1024 25.1336C47.3795 25.5561 47.7459 25.9169 48.1774 26.192C48.6067 26.4917 49.1165 26.6641 49.645 26.6882C50.184 26.7063 50.7095 26.5227 51.1125 26.1755C51.296 26.0326 51.4436 25.8511 51.5441 25.6449C51.6447 25.4386 51.6955 25.2128 51.6927 24.9847C51.7091 24.7943 51.6772 24.6028 51.5999 24.427C51.5226 24.2512 51.4021 24.0964 51.2491 23.9759C50.5977 23.6367 49.9036 23.3809 49.1842 23.2151C48.0647 22.9682 46.997 22.5375 46.0273 21.9417C45.4598 21.526 45.0071 20.9809 44.7094 20.3548C44.4117 19.7287 44.2782 19.041 44.3209 18.3529C44.3154 17.6915 44.4557 17.0366 44.7323 16.432C45.0089 15.8274 45.4155 15.2869 45.9249 14.8468C46.9449 13.893 48.3132 13.3697 49.7303 13.3915C50.7796 13.3813 51.8099 13.6625 52.6995 14.2018C53.5643 14.7129 54.2532 15.4611 54.679 16.3518C54.8497 16.7544 54.8497 17.206 54.679 17.6087C54.5176 18.0129 54.199 18.3395 53.7917 18.5183C53.3812 18.6792 52.9223 18.6792 52.5118 18.5183C52.0884 18.3655 51.7447 18.0563 51.5562 17.6583C51.399 17.3381 51.1503 17.0683 50.8395 16.881C50.4795 16.6863 50.0743 16.5839 49.6621 16.5833C49.1244 16.5733 48.6019 16.7559 48.1945 17.096C48.0188 17.2454 47.8767 17.4282 47.7769 17.633C47.677 17.8378 47.6217 18.0603 47.6143 18.2868C47.5995 18.4691 47.6287 18.6522 47.6998 18.8216C47.771 18.991 47.8819 19.142 48.0239 19.2625C48.6789 19.6029 49.3795 19.8533 50.1057 20.0067C51.229 20.2668 52.3011 20.7025 53.2797 21.2967C53.8479 21.723 54.3003 22.2772 54.5977 22.9112C54.895 23.5452 55.0284 24.2399 54.9862 24.9351C54.9929 25.5975 54.855 26.2538 54.5815 26.861C54.308 27.4681 53.9051 28.0122 53.3992 28.4577C52.3703 29.4065 50.9967 29.9235 49.5767 29.8966L49.645 29.9462ZM64.4911 13.408C65.6046 13.3939 66.709 13.6042 67.7342 14.0255C68.7594 14.4468 69.6831 15.0701 70.4466 15.8556C72.041 17.4056 72.9363 19.505 72.9363 21.6936C72.9363 23.8822 72.041 25.9816 70.4466 27.5316C69.6772 28.3086 68.752 28.9251 67.7279 29.3431C66.7038 29.7612 65.6023 29.972 64.4911 29.9627C63.3843 29.9764 62.2866 29.7674 61.2674 29.3489C60.2482 28.9305 59.3296 28.3116 58.5697 27.5316C56.9754 25.9816 56.0801 23.8822 56.0801 21.6936C56.0801 19.505 56.9754 17.4056 58.5697 15.8556C59.3288 15.0689 60.2492 14.4447 61.2719 14.0232C62.2946 13.6017 63.397 13.3921 64.5082 13.408H64.4911ZM76.9312 8.01654C77.1509 8.01407 77.3687 8.05537 77.5713 8.13787C77.7738 8.22037 77.9567 8.34232 78.1086 8.49615C78.4239 8.80419 78.6016 9.21996 78.6035 9.65382V28.342C78.6035 28.7806 78.4237 29.2012 78.1037 29.5114C77.7837 29.8216 77.3496 29.9958 76.897 29.9958C76.4494 29.994 76.0204 29.8217 75.7025 29.5162C75.5438 29.369 75.418 29.1917 75.3328 28.9954C75.2477 28.7991 75.2051 28.588 75.2076 28.375V9.63728C75.2095 9.20342 75.3873 8.78765 75.7025 8.47961C76.0204 8.17407 76.4494 8.00183 76.897 8L76.9312 8.01654ZM89.3371 13.408C90.4483 13.3921 91.5507 13.6017 92.5734 14.0232C93.5961 14.4447 94.5165 15.0689 95.2755 15.8556C96.8699 17.4056 97.7651 19.505 97.7651 21.6936C97.7651 23.8822 96.8699 25.9816 95.2755 27.5316C94.5031 28.312 93.5758 28.9329 92.5494 29.3571C91.523 29.7813 90.4188 30 89.3029 30C88.1871 30 87.0828 29.7813 86.0564 29.3571C85.0301 28.9329 84.1028 28.312 83.3304 27.5316C81.736 25.9816 80.8407 23.8822 80.8407 21.6936C80.8407 19.505 81.736 17.4056 83.3304 15.8556C84.0913 15.0713 85.0121 14.4488 86.0344 14.0274C87.0566 13.6061 88.158 13.3952 89.2688 13.408H89.3371ZM109.183 8.04962C109.535 8.04706 109.882 8.1325 110.19 8.29769C110.518 8.46978 110.79 8.7276 110.975 9.04191C111.149 9.35186 111.242 9.69802 111.248 10.0507C111.242 10.393 111.148 10.7284 110.975 11.0265C110.802 11.3437 110.534 11.603 110.207 11.7707C109.898 11.9507 109.543 12.0424 109.183 12.0353C108.823 12.0381 108.47 11.9467 108.159 11.7707C107.836 11.5976 107.57 11.3396 107.391 11.0265C107.216 10.7292 107.122 10.3933 107.118 10.0507C107.122 9.69775 107.216 9.35111 107.391 9.04191C107.576 8.7276 107.848 8.46978 108.176 8.29769C108.485 8.13454 108.831 8.04924 109.183 8.04962ZM109.183 13.408C109.636 13.408 110.07 13.5822 110.39 13.8924C110.71 14.2025 110.89 14.6232 110.89 15.0618V28.2924C110.892 28.5053 110.849 28.7164 110.764 28.9127C110.679 29.109 110.553 29.2863 110.395 29.4335C110.077 29.739 109.648 29.9113 109.2 29.9131C108.98 29.9156 108.763 29.8743 108.56 29.7918C108.358 29.7093 108.175 29.5873 108.023 29.4335C107.705 29.1322 107.522 28.7228 107.511 28.2924V15.0618C107.517 14.6256 107.701 14.2095 108.023 13.9041C108.336 13.6026 108.758 13.4306 109.2 13.4245M121.572 13.4245C122.683 13.4086 123.786 13.6182 124.808 14.0397C125.831 14.4613 126.751 15.0854 127.51 15.8722C129.105 17.4222 130 19.5215 130 21.7102C130 23.8988 129.105 25.9981 127.51 27.5481C126.74 28.3178 125.819 28.9298 124.8 29.3477C123.782 29.7656 122.687 29.981 121.58 29.981C120.474 29.981 119.379 29.7656 118.361 29.3477C117.342 28.9298 116.421 28.3178 115.651 27.5481C114.056 25.9981 113.161 23.8988 113.161 21.7102C113.161 19.5215 114.056 17.4222 115.651 15.8722C116.412 15.0879 117.332 14.4653 118.355 14.044C119.377 13.6226 120.478 13.4117 121.589 13.4245H121.572ZM102.153 25.9439C102.505 25.9414 102.851 26.0268 103.159 26.192C103.488 26.3641 103.76 26.6219 103.944 26.9362C104.12 27.2454 104.214 27.5921 104.217 27.9451C104.214 28.2876 104.12 28.6236 103.944 28.9208C103.771 29.238 103.504 29.4973 103.176 29.665C102.865 29.8404 102.513 29.9371 102.153 29.9462C101.791 29.9448 101.437 29.8476 101.129 29.665C100.806 29.4919 100.539 29.2339 100.361 28.9208C100.183 28.6216 100.089 28.2823 100.089 27.9368C100.089 27.5913 100.183 27.2519 100.361 26.9528C100.54 26.6301 100.813 26.3655 101.146 26.192C101.454 26.0268 101.8 25.9414 102.153 25.9439ZM64.5082 26.6882C65.1755 26.6959 65.8371 26.569 66.4511 26.3156C67.0651 26.0622 67.618 25.6879 68.0747 25.2163C68.5512 24.7507 68.9277 24.1982 69.1826 23.5907C69.4374 22.9832 69.5654 22.3328 69.5593 21.6771C69.5677 21.0186 69.4408 20.365 69.1859 19.7546C68.931 19.1441 68.5532 18.5889 68.0747 18.1214C67.6171 17.652 67.0637 17.2801 66.4496 17.0295C65.8356 16.779 65.1744 16.6551 64.5082 16.666C63.8413 16.65 63.1784 16.7714 62.5636 17.0223C61.9487 17.2732 61.3959 17.6478 60.9417 18.1214C60.4631 18.5889 60.0854 19.1441 59.8305 19.7546C59.5756 20.365 59.4487 21.0186 59.4571 21.6771C59.4509 22.3328 59.579 22.9832 59.8338 23.5907C60.0886 24.1982 60.4652 24.7507 60.9417 25.2163C61.3971 25.6895 61.9497 26.065 62.564 26.3185C63.1783 26.572 63.8406 26.6979 64.5082 26.6882ZM89.3541 26.6882C90.0214 26.6959 90.6831 26.569 91.2971 26.3156C91.911 26.0622 92.4639 25.6879 92.9206 25.2163C93.3971 24.7507 93.7737 24.1982 94.0285 23.5907C94.2833 22.9832 94.4114 22.3328 94.4052 21.6771C94.4136 21.0186 94.2867 20.365 94.0318 19.7546C93.7769 19.1441 93.3992 18.5889 92.9206 18.1214C92.4631 17.652 91.9096 17.2801 91.2956 17.0295C90.6815 16.779 90.0203 16.6551 89.3541 16.666C88.6872 16.65 88.0244 16.7714 87.4095 17.0223C86.7947 17.2732 86.2419 17.6478 85.7877 18.1214C85.3091 18.5889 84.9313 19.1441 84.6764 19.7546C84.4215 20.365 84.2946 21.0186 84.303 21.6771C84.2969 22.3328 84.4249 22.9832 84.6797 23.5907C84.9346 24.1982 85.3111 24.7507 85.7877 25.2163C86.243 25.6895 86.7957 26.065 87.4099 26.3185C88.0242 26.572 88.6865 26.6979 89.3541 26.6882ZM121.555 26.6882C122.222 26.6979 122.885 26.572 123.499 26.3185C124.113 26.065 124.666 25.6895 125.121 25.2163C126.073 24.2658 126.605 22.9933 126.605 21.6688C126.605 20.3443 126.073 19.0719 125.121 18.1214C124.664 17.6511 124.111 17.2787 123.497 17.0281C122.883 16.7775 122.221 16.6541 121.555 16.666C120.888 16.65 120.225 16.7714 119.61 17.0223C118.995 17.2732 118.443 17.6478 117.988 18.1214C117.51 18.5889 117.132 19.1441 116.877 19.7546C116.622 20.365 116.495 21.0186 116.504 21.6771C116.498 22.3328 116.626 22.9832 116.88 23.5907C117.135 24.1982 117.512 24.7507 117.988 25.2163C118.444 25.6895 118.996 26.065 119.611 26.3185C120.225 26.572 120.887 26.6979 121.555 26.6882Z" fill="#35393B"/>
<path fill-rule="evenodd" clip-rule="evenodd" d="M10.2516 1.09585C11.0405 0.0539468 11.701 -0.308454 12.1689 0.298567C12.8514 1.20716 13.7278 1.95648 14.736 2.49349C15.7442 3.0305 16.8597 3.34207 18.0033 3.40616C19.1552 3.34986 20.2801 3.04194 21.2969 2.50457C22.3137 1.96721 23.1972 1.21378 23.8837 0.298567C24.3424 -0.308454 25.0579 0.0539468 25.7918 1.09585C29.1769 5.87954 29.6356 10.5998 27.5073 13.8433C31.6905 18.0381 30.5254 23.8093 29.021 26.5273C28.3788 27.7142 28.1036 27.6236 27.4156 26.9894L26.6358 26.319C26.3174 27.6181 25.856 28.8789 25.2597 30.0789C24.3974 31.8909 22.5076 32.1898 22.3884 30.0789H13.6734C13.5633 32.208 11.6643 31.8909 10.802 30.0789C10.2083 28.8779 9.74692 27.6173 9.42594 26.319L8.65535 27.0075C7.9398 27.6417 7.73798 27.7323 7.04995 26.5455C5.54546 23.7731 4.3804 18.0381 8.56361 13.8614C6.45366 10.5998 6.86648 5.87954 10.2516 1.09585Z" fill="#0EB1E4"/>
<path fill-rule="evenodd" clip-rule="evenodd" d="M18.0039 3.40616C19.1557 3.34986 20.2806 3.04194 21.2974 2.50457C22.3143 1.96721 23.1977 1.21378 23.8842 0.298567C24.3429 -0.308454 25.0585 0.0539468 25.7924 1.09585C29.1774 5.87954 29.6361 10.5998 27.5078 13.8433C31.691 18.0381 30.526 23.8093 29.0215 26.5273C28.3793 27.7142 28.1041 27.6236 27.4161 26.9894L26.6363 26.319C26.3153 27.6173 25.854 28.8779 25.2603 30.0789C24.3979 31.8909 22.5082 32.1898 22.3889 30.0789H18.0039V17.6304C18.0039 17.268 18.2332 16.9781 16.8755 16.815C13.6922 16.4345 10.7108 14.4956 9.70168 11.7776C9.49273 11.1961 9.39022 10.5826 9.39895 9.96561C9.39701 9.39979 9.53164 8.84165 9.79169 8.33746C10.0517 7.83327 10.4297 7.39755 10.8943 7.0664C11.3275 6.75829 11.8201 6.54133 12.3417 6.42895C12.8633 6.31658 13.4027 6.31118 13.9265 6.41311C14.4502 6.51504 14.9472 6.72212 15.3867 7.02151C15.8261 7.3209 16.1986 7.70622 16.481 8.15361C17.0226 9.28896 17.3193 10.523 17.3525 11.7776C17.3984 12.2306 17.4351 12.6836 17.5177 13.1457C17.5177 13.3541 17.6094 13.653 17.8296 13.7527C18.0497 13.8524 17.8755 13.7527 18.0039 13.7527V3.40616Z" fill="#158BC2"/>
<path fill-rule="evenodd" clip-rule="evenodd" d="M16.1955 36.4209C16.0946 36.6383 15.8194 38.0608 15.4891 38.2329C14.2782 39.003 10.7372 30.4322 10.5078 29.4719C15.4966 29.0823 20.5088 29.0823 25.4976 29.4719C25.2683 30.3779 21.7456 39.0211 20.5163 38.242C20.1861 38.0245 19.9109 36.6021 19.8099 36.43C19.6265 36.9554 18.8926 40.2171 17.911 39.9906C16.9294 39.7641 16.4248 37.1457 16.1955 36.4209Z" fill="#0EB1E4"/>
<path fill-rule="evenodd" clip-rule="evenodd" d="M18.0018 29.2178L25.4968 29.5077C25.2537 30.2553 24.972 30.9901 24.6528 31.7093V31.7908V31.8724V31.9177L24.5977 32.0626V32.126V32.1895C23.4052 34.9075 21.6621 38.2778 20.8732 37.7704C20.543 37.5621 20.2677 36.1396 20.1668 35.9584C19.9925 36.4658 19.2953 39.5371 18.3321 39.5371V32.6153C18.3321 32.1442 18.2771 31.51 17.1212 31.5371C15.4424 31.5824 13.4517 31.7999 11.7912 32.0173L11.25 30.6946C13.5976 30.4243 15.9594 30.2912 18.3229 30.2959L18.0018 29.2178Z" fill="#158BC2"/>
<path fill-rule="evenodd" clip-rule="evenodd" d="M18.0048 15.9091C18.4653 15.9075 18.9251 15.8742 19.3809 15.8094C22.7293 15.3383 26.6189 12.9193 26.6189 9.20467C26.6235 8.63361 26.4892 8.0698 26.2274 7.56059C25.9656 7.05138 25.584 6.61164 25.1145 6.27828C24.6841 5.96811 24.1939 5.74835 23.6742 5.63255C23.1545 5.51675 22.6163 5.50738 22.0927 5.60501C21.5692 5.70265 21.0715 5.90522 20.6303 6.20021C20.1891 6.49521 19.8139 6.87638 19.5277 7.32019C18.9805 8.45356 18.6834 9.68885 18.6562 10.9442C18.6103 11.3972 18.5644 11.8502 18.491 12.3123C18.491 12.5206 18.3993 12.8196 18.1791 12.9193C17.959 13.0189 18.1333 12.9193 18.0048 12.9193C17.8764 12.9193 17.9498 12.9193 17.8305 12.9193C17.7113 12.9193 17.5553 12.5206 17.5186 12.3123C17.4361 11.8683 17.3994 11.4063 17.3535 10.9442C17.3203 9.68962 17.0235 8.45554 16.482 7.32019C16.1967 6.87534 15.8219 6.49317 15.3808 6.1974C14.9396 5.90164 14.4417 5.6986 13.9177 5.60089C13.3938 5.50318 12.8552 5.5129 12.3352 5.62943C11.8153 5.74596 11.3251 5.96681 10.8952 6.27828C10.4257 6.61164 10.044 7.05138 9.78225 7.56059C9.52046 8.0698 9.3862 8.63361 9.39074 9.20467C9.39367 9.79782 9.49916 10.3861 9.70264 10.9442C10.8585 14.1152 14.7574 15.9 18.0048 15.9V15.9091Z" fill="white"/>
<path fill-rule="evenodd" clip-rule="evenodd" d="M18.0039 15.9C18.4642 15.9014 18.924 15.8711 19.38 15.8094C22.7284 15.3382 26.618 12.9192 26.618 9.20461C26.6225 8.63355 26.4883 8.06974 26.2265 7.56053C25.9647 7.05132 25.583 6.61158 25.1135 6.27823C24.6832 5.96805 24.193 5.74829 23.6733 5.63249C23.1536 5.51669 22.6153 5.50732 22.0918 5.60495C21.5683 5.70259 21.0706 5.90516 20.6294 6.20015C20.1882 6.49515 19.8129 6.87632 19.5267 7.32013C18.9795 8.4535 18.6825 9.68879 18.6552 10.9441C18.6094 11.3971 18.5727 11.8501 18.4901 12.3122C18.4901 12.5206 18.3984 12.8196 18.1782 12.9192C17.958 13.0189 18.1323 12.9192 18.0039 12.9192V15.9Z" fill="#DDF4F9"/>
<path fill-rule="evenodd" clip-rule="evenodd" d="M21.9336 7.77346C22.2606 7.77167 22.5808 7.86579 22.8535 8.04389C23.1263 8.22199 23.3393 8.47605 23.4657 8.77388C23.5921 9.07171 23.6261 9.39989 23.5635 9.71683C23.5008 10.0338 23.3442 10.3252 23.1137 10.5542C22.8831 10.7832 22.5889 10.9394 22.2683 11.003C21.9478 11.0667 21.6153 11.0349 21.313 10.9118C21.0108 10.7886 20.7523 10.5796 20.5705 10.3112C20.3886 10.0429 20.2916 9.72719 20.2915 9.40427C20.2939 8.97404 20.4674 8.56197 20.7746 8.2569C21.0818 7.95184 21.498 7.77821 21.9336 7.77346ZM14.081 7.77346C14.4075 7.77346 14.7268 7.86911 14.9983 8.0483C15.2699 8.2275 15.4815 8.48219 15.6065 8.78018C15.7315 9.07818 15.7642 9.40608 15.7005 9.72242C15.6368 10.0388 15.4795 10.3293 15.2486 10.5574C15.0176 10.7855 14.7234 10.9408 14.4031 11.0037C14.0828 11.0667 13.7508 11.0344 13.449 10.9109C13.1473 10.7875 12.8894 10.5785 12.708 10.3103C12.5265 10.0421 12.4297 9.72681 12.4297 9.40427C12.4297 8.97175 12.6037 8.55695 12.9133 8.25111C13.223 7.94528 13.643 7.77346 14.081 7.77346Z" fill="#35393B"/>
<path fill-rule="evenodd" clip-rule="evenodd" d="M14.6002 8.47949C14.6629 8.47949 14.7249 8.49168 14.7828 8.51535C14.8407 8.53903 14.8932 8.57373 14.9375 8.61748C14.9818 8.66123 15.017 8.71316 15.0409 8.77032C15.0649 8.82748 15.0773 8.88875 15.0773 8.95061C15.079 9.03358 15.0568 9.11531 15.013 9.18617C14.9481 9.29246 14.8439 9.36976 14.7225 9.40186C14.6011 9.43396 14.4717 9.41835 14.3617 9.35831C14.2904 9.31566 14.2312 9.25593 14.1895 9.18467C14.1478 9.1134 14.125 9.0329 14.1232 8.95061C14.1232 8.82566 14.1735 8.70583 14.2629 8.61748C14.3524 8.52913 14.4737 8.47949 14.6002 8.47949ZM22.4804 8.47949C22.6069 8.47949 22.7283 8.52913 22.8177 8.61748C22.9072 8.70583 22.9575 8.82566 22.9575 8.95061C22.9593 9.03358 22.937 9.11531 22.8932 9.18617C22.8283 9.29246 22.7241 9.36976 22.6027 9.40186C22.4813 9.43396 22.352 9.41835 22.2419 9.35831C22.1791 9.31054 22.1288 9.24858 22.0953 9.17763C22.0618 9.10669 22.046 9.02884 22.0493 8.95061C22.0493 8.82566 22.0995 8.70583 22.189 8.61748C22.2784 8.52913 22.3998 8.47949 22.5263 8.47949H22.4804ZM18.0037 17.5395C16.8416 17.5391 15.7253 17.9868 14.8925 18.7873C14.0597 19.5877 13.5763 20.6776 13.5453 21.8249H13.3434C12.4992 21.8249 11.6895 22.1561 11.0925 22.7457C10.4955 23.3353 10.1602 24.1349 10.1602 24.9687C10.1602 25.8025 10.4955 26.6022 11.0925 27.1918C11.6895 27.7813 12.4992 28.1126 13.3434 28.1126H22.6639C23.5082 28.1126 24.3178 27.7813 24.9148 27.1918C25.5118 26.6022 25.8472 25.8025 25.8472 24.9687C25.8472 24.1349 25.5118 23.3353 24.9148 22.7457C24.3178 22.1561 23.5082 21.8249 22.6639 21.8249C21.8567 21.8038 21.072 22.0892 20.4714 22.6222C20.8391 21.8177 21.4915 21.1734 22.3061 20.8102C22.0598 19.8659 21.5025 19.0294 20.7219 18.4324C19.9413 17.8353 18.9818 17.5117 17.9945 17.5123L18.0037 17.5395Z" fill="white"/>
<path fill-rule="evenodd" clip-rule="evenodd" d="M1.07933 27.0894C1.13878 26.628 1.3312 26.1931 1.63369 25.8365C1.93619 25.48 2.33602 25.2167 2.78564 25.0781L4.32682 26.1834C5.14496 26.7205 5.99001 27.2164 6.85876 27.6693C8.26234 28.4032 8.6935 28.838 10.3815 28.5753C12.9161 28.1906 15.4771 27.9998 18.0415 28.0045C21.2623 27.9977 24.4761 28.3012 27.6372 28.9105C30.503 29.4574 33.295 30.33 35.9577 31.5107C36.0474 31.9677 35.9936 32.4408 35.8034 32.8667C35.6132 33.2925 35.2958 33.6508 34.8936 33.8935C32.4151 32.799 29.817 31.9904 27.151 31.4836C24.1612 30.8874 21.1191 30.5839 18.069 30.5776C15.022 30.5843 11.983 30.8878 8.99624 31.4836C6.32721 31.9903 3.72615 32.799 1.24446 33.8935C1.00988 33.8148 0.79387 33.69 0.609462 33.5266C0.425053 33.3632 0.276065 33.1646 0.171481 32.9428C0.0668978 32.7209 0.00888555 32.4805 0.000943089 32.2359C-0.00699937 31.9914 0.0352925 31.7478 0.125268 31.5198C1.56181 30.8846 3.03887 30.3429 4.54699 29.8981L5.12493 29.7259L4.62038 29.4088C3.39502 28.7049 2.21263 27.9304 1.07933 27.0894Z" fill="#C18E2E"/>
<path fill-rule="evenodd" clip-rule="evenodd" d="M1.08055 27.2434C1.1444 26.8278 1.30796 26.4333 1.55758 26.0928C3.18075 27.3639 4.91181 28.4946 6.73154 29.4722L5.12615 29.898L4.62159 29.5628C3.4025 28.8582 2.22625 28.0838 1.09889 27.2434H1.08055ZM35.6837 33.0962C35.5 33.4377 35.2152 33.7158 34.8673 33.8935C32.3872 32.8031 29.7896 31.9946 27.1247 31.4835C24.1324 30.91 21.0908 30.6248 18.0427 30.6318C14.9977 30.6252 11.9592 30.9104 8.96993 31.4835C6.30058 31.9934 3.69953 32.8051 1.21815 33.9025C0.840148 33.744 0.520113 33.4753 0.300781 33.1324C4.38308 31.0214 10.8138 29.6534 18.0427 29.6534C25.2716 29.6534 31.6014 31.0033 35.6837 33.0962Z" fill="#A96C25"/>
</g>
<defs>
<clipPath id="clip0_4530_12454">
<rect width="130" height="40" fill="white"/>
</clipPath>
</defs>
</svg>
