<svg width="112" height="20" viewBox="0 0 112 20" fill="none" xmlns="http://www.w3.org/2000/svg">
<path d="M85.1895 1.4118V3.5993H87.3288C88.2626 3.5993 88.8764 4.18788 89.226 4.56804C89.5061 4.88116 95.666 11.8569 95.8135 12.0402C95.9617 12.2238 95.9617 12.2258 95.9617 12.3424V15.7989C95.9613 15.9574 95.9454 16.1154 95.9144 16.2709C95.8706 16.3712 95.8055 16.4608 95.7235 16.5335C95.6416 16.6061 95.5448 16.6601 95.4398 16.6916C95.2377 16.717 95.0341 16.7297 94.8304 16.7296L92.6891 16.727V18.9148H104.699V16.727H102.439C102.237 16.728 102.035 16.7152 101.834 16.6887C101.73 16.6574 101.633 16.6036 101.551 16.5309C101.47 16.4583 101.405 16.3686 101.362 16.2682C101.331 16.1128 101.314 15.9548 101.313 15.7962V12.3417C101.3 12.2282 101.328 12.1137 101.393 12.0197L108.057 4.42701C108.669 3.74661 108.987 3.59898 109.789 3.59898H112V1.41113H102.101V3.59435H103.595C103.675 3.58951 103.755 3.60774 103.825 3.64689C103.895 3.68603 103.953 3.74444 103.99 3.81516C104.028 3.88589 104.045 3.96597 104.038 4.04586C104.032 4.12575 104.002 4.20209 103.954 4.26583C103.922 4.31041 99.8097 9.14057 99.7581 9.18747C99.7065 9.23437 99.6735 9.22314 99.6351 9.17194C99.5971 9.12042 95.5338 4.26583 95.5338 4.26583C95.247 3.9144 95.4709 3.59468 95.8072 3.59468H97.263V1.41147L85.1895 1.4118Z" fill="#0F0F0F"/>
<path d="M55.7324 1.41211V3.59961H57.6495C59.0338 3.59961 59.1281 4.36952 59.1281 5.04067V15.2803C59.1281 15.893 59.1638 16.7342 58.2815 16.7342H55.9156V18.9198H66.0159V16.7342H63.5522C62.5687 16.7342 62.5237 16.285 62.5128 15.3295V6.55736L76.3847 18.9201H79.9126L79.7264 4.95776C79.7446 3.9375 79.8071 3.59764 80.8643 3.59764H83.0751V1.41211H72.7714V3.59764H75.0341C76.0735 3.59764 76.2478 3.99794 76.261 4.95776L76.3847 12.2644L64.3425 1.41211H55.7324Z" fill="#0F0F0F"/>
<path d="M10.2507 0.311035C8.08029 0.311035 5.61428 0.71828 3.53087 1.65333C1.58635 2.52133 0.002944 3.91516 0.002944 6.22586C-3.12959e-05 7.4362 0.460851 8.60178 1.29103 9.4835C1.85322 10.0024 2.76033 10.8839 5.13045 11.4028C6.18969 11.6267 8.45433 11.9868 10.71 12.2239C12.9654 12.4611 15.152 12.6715 16.0475 12.9109C16.7602 13.0919 17.9583 13.3383 17.9583 14.6806C17.9583 16.0229 16.6974 16.4252 16.4778 16.5127C16.2585 16.5999 14.7439 17.2935 12.0246 17.2935C10.2229 17.2435 8.43765 16.9369 6.72278 16.3829C5.70819 16.0203 4.64432 15.544 3.65189 14.3335C3.25137 13.7636 3.02914 13.0878 3.01332 12.3917H0.549597V19.2822H3.2868V18.3495C3.28642 18.2803 3.30448 18.2123 3.33915 18.1524C3.37382 18.0925 3.42384 18.0429 3.48406 18.0087C3.54427 17.9746 3.61253 17.957 3.68178 17.9579C3.75104 17.9588 3.81879 17.9782 3.8781 18.0139C5.16761 18.5743 6.50892 19.0074 7.88287 19.307C9.32109 19.6065 10.2507 19.8239 12.0381 19.8239C13.9243 19.8596 15.804 19.5945 17.6065 19.0384C18.8034 18.7107 19.9264 18.1571 20.9148 17.4075C21.4707 16.981 21.92 16.4316 22.2275 15.8024C22.5349 15.1732 22.6921 14.4813 22.6867 13.7812C22.6962 12.451 22.1824 11.1703 21.2557 10.2148C20.7404 9.71539 20.1434 9.30767 19.4904 9.00921C18.7886 8.69253 18.06 8.43874 17.3131 8.25086C15.8931 7.90406 12.7035 7.47006 11.1783 7.3178C9.57871 7.15265 6.80314 6.92178 5.69463 6.5796C5.35864 6.47424 4.6731 6.15023 4.6731 5.35588C4.6731 4.79009 4.9866 4.31117 5.60501 3.92407C6.58818 3.30907 8.57303 2.92627 10.6426 2.92627C12.646 2.90201 14.633 3.28955 16.4801 4.06478C16.9763 4.28079 17.4429 4.55904 17.8687 4.89281C18.5628 5.48499 19.0435 6.28806 19.2371 7.17907H21.4482V1.18135H18.9845V1.87694C18.9845 2.10087 18.7603 2.39616 18.3122 2.1524C17.201 1.57506 14.0789 0.326889 10.2507 0.311035Z" fill="#0F0F0F"/>
<path d="M39.9037 0.3125C36.0219 0.3125 31.9001 1.65479 29.5706 3.76864C28.6825 4.57624 27.9736 5.5606 27.4894 6.65837C27.0052 7.75615 26.7565 8.94301 26.7594 10.1426C26.7454 11.347 26.989 12.5406 27.4737 13.6436C27.9585 14.7465 28.6732 15.7335 29.5703 16.5386C32.0793 18.7912 35.8427 19.9994 39.9037 19.9994C43.9713 19.9994 47.815 18.8047 50.2636 16.5386C51.1341 15.7146 51.8285 14.7231 52.305 13.6239C52.7815 12.5246 53.0302 11.3404 53.0361 10.1426C53.0482 8.94596 52.8075 7.76027 52.3297 6.66285C51.852 5.56542 51.148 4.58093 50.2636 3.7736C47.6358 1.39321 44.1975 0.3125 39.9037 0.3125ZM39.9037 2.87159C42.0271 2.87159 44.0722 3.63455 45.4495 4.98841C46.7823 6.29933 47.4787 8.15159 47.4787 10.1337C47.4787 12.2099 46.8451 13.8923 45.4499 15.2792C44.0543 16.6664 42.0562 17.4089 39.9037 17.4089C37.7667 17.4089 35.726 16.6506 34.3486 15.2792C33.6897 14.5965 33.1725 13.7904 32.8265 12.9074C32.4805 12.0243 32.3127 11.0817 32.3327 10.1337C32.3327 8.16051 33.0202 6.30164 34.3486 4.98841C35.726 3.62795 37.7803 2.87159 39.9037 2.87159Z" fill="#0F0F0F"/>
</svg>
