<?xml version="1.0" encoding="UTF-8" standalone="no"?>
<svg
   width="552.41211"
   height="135.46854"
   viewBox="500 0 552.41211 135.46854"
   fill="none"
   version="1.1"
   id="svg15"
   xmlns="http://www.w3.org/2000/svg"
   xmlns:svg="http://www.w3.org/2000/svg">
  <path
     d="m 196.82956,78.191105 c -1.97152,-0.926278 -3.39092,-1.929473 -4.33718,-3.08732 -0.94626,-1.157847 -1.41939,-2.161451 -1.41939,-2.85616 0,-0.385813 0.15799,-0.694708 0.39455,-0.926278 0.31515,-0.231569 0.63071,-0.308895 0.94627,-0.308895 h 2.60222 c 0.23656,0 0.47313,0.07733 0.5517,0.154652 0.15799,0.07692 0.31556,0.23157 0.55213,0.540056 0.94626,1.157847 1.97152,2.007208 3.15435,2.62459 1.18282,0.617382 2.75979,0.926278 4.73089,0.926278 2.20808,0 3.94303,-0.385813 5.28343,-1.235173 1.3404,-0.771626 1.97152,-1.929473 1.97152,-3.473542 0,-1.003195 -0.31556,-1.77523 -0.86768,-2.392612 -0.55171,-0.617791 -1.49797,-1.157847 -2.83879,-1.620986 -1.3404,-0.463139 -3.31192,-1.003604 -5.91372,-1.544069 -3.54848,-0.771626 -6.07213,-1.852147 -7.5701,-3.31889 -1.49838,-1.466743 -2.20808,-3.319298 -2.20808,-5.557667 0,-1.466743 0.47313,-2.933076 1.3404,-4.322493 0.86768,-1.389417 2.20808,-2.470347 4.02161,-3.396625 1.81395,-0.926278 3.86405,-1.312091 6.38727,-1.312091 2.60222,0 4.81031,0.385813 6.62384,1.235174 1.81352,0.848952 3.15434,1.852556 4.1006,2.933077 0.94627,1.157847 1.4194,2.084125 1.4194,2.856159 0,0.385813 -0.15799,0.694709 -0.39456,0.926278 -0.23656,0.23157 -0.55171,0.385813 -0.94626,0.385813 h -2.36566 c -0.5517,0 -0.94626,-0.23157 -1.2614,-0.694708 -0.7097,-0.772035 -1.26182,-1.389417 -1.73495,-1.77523 -0.47313,-0.386222 -1.18283,-0.772034 -2.0501,-1.08093 -0.86768,-0.308487 -2.05051,-0.463139 -3.39091,-0.463139 -1.9711,0 -3.54848,0.386222 -4.57332,1.235173 -1.10425,0.848952 -1.57738,1.929882 -1.57738,3.241973 0,0.848951 0.23656,1.54366 0.70969,2.161451 0.47314,0.617382 1.34082,1.157847 2.60223,1.620986 1.26182,0.540056 3.15434,1.003195 5.67757,1.54366 3.86404,0.772035 6.62383,1.929882 8.27979,3.396216 1.65596,1.466743 2.44465,3.396216 2.44465,5.71191 0,1.698313 -0.47313,3.319299 -1.49839,4.708716 -1.02525,1.389416 -2.52322,2.469937 -4.49474,3.319298 -1.97152,0.771626 -4.33718,1.234765 -7.09697,1.234765 -2.91736,0 -5.28302,-0.463139 -7.25453,-1.389417 z"
     fill="#000000"
     id="path1"
     style="stroke-width:0.413523" />
  <path
     d="m 223.48288,90.00115 c -0.23656,-0.23157 -0.39414,-0.61738 -0.39414,-1.0032 V 49.090679 c 0,-0.463139 0.15758,-0.771625 0.39414,-1.003195 0.23657,-0.231569 0.63112,-0.386221 1.02526,-0.386221 h 2.60222 c 0.47313,0 0.78869,0.154652 1.02525,0.386221 0.23657,0.23157 0.39414,0.617383 0.39414,1.003195 v 2.624591 c 2.36566,-3.08773 5.75615,-4.63139 10.17232,-4.63139 4.33675,0 7.4911,1.312091 9.69918,4.014007 2.12909,2.701508 3.31192,6.097723 3.3905,10.189057 0.079,0.463138 0.079,1.157847 0.079,2.006798 0,0.926278 0,1.620987 -0.079,2.006799 -0.15757,4.090924 -1.26141,7.487549 -3.3905,10.189057 -2.12909,2.701507 -5.36243,4.014007 -9.69918,4.014007 -4.41617,0 -7.72809,-1.54407 -9.93575,-4.554473 V 88.92063 c 0,0.38581 -0.15799,0.6947 -0.39456,1.0036 -0.23656,0.23157 -0.6307,0.38581 -1.02484,0.38581 h -2.75979 c -0.47313,0.0773 -0.78869,-0.0773 -1.10425,-0.30889 z m 20.42363,-17.830851 c 1.3404,-1.77523 2.05009,-4.16825 2.20766,-7.101327 0.079,-0.385813 0.079,-1.003195 0.079,-1.77523 0,-7.719118 -2.91778,-11.578472 -8.75292,-11.578472 -2.83879,0 -5.04687,0.926277 -6.46627,2.778833 -1.41897,1.852556 -2.20766,4.090924 -2.28666,6.561271 -0.0786,0.463139 -0.0786,1.234764 -0.0786,2.315695 0,1.157438 0,1.929472 0.0786,2.315285 0.079,2.470347 0.86769,4.554472 2.36566,6.329702 1.49838,1.775229 3.62747,2.701507 6.38727,2.701507 2.99635,0.154652 5.12544,-0.771625 6.46626,-2.547264 z"
     fill="#000000"
     id="path2"
     style="stroke-width:0.413523" />
  <path
     d="m 260.93922,75.721167 c -2.52364,-2.547264 -3.86404,-6.020806 -4.1006,-10.420626 l -0.079,-2.006799 0.079,-2.006798 c 0.23656,-4.322903 1.65595,-7.796445 4.1006,-10.343709 2.52323,-2.547264 5.83515,-3.859355 10.01433,-3.859355 4.49475,0 7.96465,1.389417 10.48788,4.245577 2.44465,2.778833 3.70605,6.638188 3.70605,11.42382 v 1.080521 c 0,0.386222 -0.15757,0.694709 -0.39414,1.003604 -0.23656,0.23157 -0.6307,0.385813 -1.02525,0.385813 h -21.2909 v 0.540465 c 0.15799,2.624591 0.94627,4.862959 2.44465,6.638188 1.49839,1.852556 3.54849,2.778834 5.99313,2.778834 1.89253,0 3.46949,-0.385813 4.73131,-1.080521 1.18283,-0.772035 2.12909,-1.54366 2.7598,-2.315695 0.39413,-0.463139 0.6307,-0.772034 0.86726,-0.848951 0.23657,-0.07733 0.55213,-0.154653 1.02526,-0.154653 h 2.68122 c 0.39413,0 0.70969,0.07733 0.94626,0.308896 0.23656,0.231569 0.39413,0.463139 0.39413,0.772034 0,0.848952 -0.55212,1.929473 -1.65595,3.164647 -1.10384,1.235173 -2.68122,2.315694 -4.73131,3.241972 -2.0501,0.926278 -4.33718,1.389417 -6.9394,1.389417 -4.17918,-0.07733 -7.4911,-1.389417 -10.01433,-3.936681 z M 279.5489,61.132291 v -0.154243 c 0,-2.778834 -0.78869,-5.094528 -2.36565,-6.869758 -1.57697,-1.775638 -3.62748,-2.62459 -6.2297,-2.62459 -2.6808,0 -4.73131,0.848952 -6.22928,2.62459 -1.49839,1.77523 -2.28708,4.013598 -2.28708,6.869758 v 0.154243 z"
     fill="#000000"
     id="path3"
     style="stroke-width:0.413523" />
  <path
     d="m 293.89999,75.951918 c -2.44424,-2.393021 -3.78463,-5.789236 -3.86363,-10.189056 l -0.079,-2.393021 0.079,-2.392611 c 0.15757,-4.39982 1.41939,-7.796445 3.86363,-10.189056 2.44465,-2.393021 5.83556,-3.627786 10.25131,-3.627786 2.91778,0 5.441,0.540056 7.4911,1.54366 2.05051,1.003604 3.54848,2.315695 4.57374,3.782029 1.02525,1.544069 1.57696,3.010403 1.65596,4.554472 0.079,0.385813 -0.079,0.694708 -0.39414,0.926278 -0.31556,0.308486 -0.63112,0.385812 -1.02526,0.385812 h -2.75979 c -0.39455,0 -0.70969,-0.07733 -0.94626,-0.308895 -0.23657,-0.154244 -0.39455,-0.540056 -0.63112,-1.003195 -0.7097,-1.929882 -1.73454,-3.319299 -3.07535,-4.16825 -1.26141,-0.849361 -2.91736,-1.235174 -4.88888,-1.235174 -2.60222,0 -4.65232,0.772035 -6.15071,2.315695 -1.49838,1.54366 -2.36565,3.93668 -2.44465,7.178653 l -0.0786,2.084125 0.0786,2.084125 c 0.15799,3.241973 0.94627,5.557667 2.44465,7.178653 1.49839,1.54366 3.54849,2.315695 6.15071,2.315695 1.97152,0 3.62747,-0.385813 4.88888,-1.235174 1.26182,-0.848951 2.28708,-2.238368 2.99677,-4.16825 0.23657,-0.463139 0.39414,-0.848951 0.63071,-1.003195 0.23656,-0.154652 0.47313,-0.308895 0.94626,-0.308895 h 2.68121 c 0.39414,0 0.7097,0.154243 1.02484,0.385812 0.31556,0.308896 0.47313,0.617792 0.39456,0.926278 -0.079,1.466743 -0.63112,3.010403 -1.65596,4.477146 -1.02526,1.54366 -2.52365,2.778834 -4.57374,3.859355 -2.0501,1.08093 -4.49475,1.544069 -7.4911,1.544069 -4.17961,0.308486 -7.64909,-0.926278 -10.09374,-3.319299 z"
     fill="#000000"
     id="path4"
     style="stroke-width:0.413523" />
  <path
     d="M 326.70276,68.465188 V 52.332243 h -4.88888 c -0.39414,0 -0.7097,-0.154244 -0.94626,-0.385813 -0.23657,-0.23157 -0.39414,-0.540465 -0.39414,-0.926278 V 49.09027 c 0,-0.385812 0.15757,-0.694708 0.39414,-1.003195 0.23656,-0.231569 0.55212,-0.386222 0.94626,-0.386222 h 4.88888 V 37.66645 c 0,-0.385813 0.15799,-0.694709 0.39455,-1.003604 0.23657,-0.23157 0.55213,-0.385813 0.94627,-0.385813 h 2.68079 c 0.39456,0 0.7097,0.154243 1.02526,0.385813 0.23657,0.231569 0.39414,0.617791 0.39414,1.003604 v 10.034403 h 7.64909 c 0.39413,0 0.70969,0.154653 1.02525,0.386222 0.23657,0.23157 0.39414,0.617383 0.39414,1.003195 v 1.929882 c 0,0.385813 -0.15757,0.694708 -0.39414,0.926278 -0.23656,0.231569 -0.63112,0.385813 -1.02525,0.385813 h -7.64909 v 15.669806 c 0,2.006799 0.31556,3.550459 1.02525,4.631389 0.7097,1.080521 1.81353,1.54366 3.46949,1.54366 h 3.78505 c 0.39455,0 0.7097,0.154243 0.94626,0.385813 0.23657,0.231569 0.39456,0.617791 0.39456,1.003604 v 2.006799 c 0,0.385812 -0.15799,0.694708 -0.39456,1.003604 -0.23656,0.231569 -0.55171,0.385812 -0.94626,0.385812 h -4.17919 c -6.38726,0 -9.54161,-3.473542 -9.54161,-10.497542 z"
     fill="#000000"
     id="path5"
     style="stroke-width:0.413523" />
  <path
     d="m 346.96882,78.576918 c -0.23657,-0.23157 -0.39414,-0.617383 -0.39414,-1.003604 V 49.167596 c 0,-0.385812 0.15757,-0.771625 0.39414,-1.003194 0.23656,-0.308896 0.63112,-0.386222 1.02525,-0.386222 h 2.60222 c 0.47313,0 0.78869,0.154652 1.10384,0.386222 0.23656,0.231569 0.39455,0.617382 0.39455,1.080521 v 2.62459 c 1.65596,-2.701917 4.49474,-4.091333 8.51636,-4.091333 h 2.36565 c 0.47313,0 0.78828,0.154652 1.02484,0.386222 0.23657,0.231569 0.39456,0.617382 0.39456,1.003194 v 2.161452 c 0,0.385812 -0.15799,0.694708 -0.39456,1.003604 -0.23656,0.231569 -0.6307,0.385812 -1.02484,0.385812 h -3.54848 c -2.28708,0 -4.02161,0.617383 -5.28343,1.929882 -1.26183,1.312091 -1.97152,3.009994 -1.97152,5.248772 V 77.65064 c 0,0.385812 -0.15757,0.694708 -0.39414,1.003604 -0.31556,0.231569 -0.6307,0.385812 -1.02526,0.385812 h -2.75979 c -0.47313,-0.07733 -0.78869,-0.231569 -1.02525,-0.463138 z"
     fill="#000000"
     id="path6"
     style="stroke-width:0.413523" />
  <path
     d="m 370.31022,75.874592 c -2.44465,-2.469938 -3.70605,-5.789236 -3.86404,-9.957487 l -0.0786,-2.547264 0.0786,-2.547264 c 0.15799,-4.090924 1.49839,-7.410222 3.94304,-9.957077 2.44423,-2.470347 5.91414,-3.705112 10.32989,-3.705112 4.41575,0 7.88523,1.234765 10.32988,3.705112 2.44465,2.469938 3.78505,5.788827 3.94262,9.957077 0.079,0.849361 0.15799,1.775639 0.15799,2.547264 0,0.849361 -0.079,1.698313 -0.15799,2.547264 -0.15757,4.091333 -1.49797,7.410223 -3.86362,9.957487 -2.44465,2.470347 -5.91414,3.705111 -10.40888,3.705111 -4.49475,0 -7.96424,-1.234764 -10.40889,-3.705111 z m 16.63817,-3.241972 c 1.49838,-1.620987 2.36565,-3.936681 2.52364,-7.024001 0.0786,-0.386222 0.0786,-1.157847 0.0786,-2.315695 0,-1.157847 0,-1.852555 -0.0786,-2.315694 -0.15799,-3.010403 -0.94626,-5.403424 -2.52364,-7.02441 -1.49797,-1.620986 -3.62706,-2.469938 -6.22928,-2.469938 -2.60222,0 -4.73131,0.848952 -6.2297,2.469938 -1.49797,1.620986 -2.36566,3.93668 -2.52323,7.02441 l -0.079,2.315694 0.079,2.315695 c 0.15757,3.010403 0.94626,5.403014 2.52323,7.024001 1.49839,1.620986 3.62748,2.470347 6.2297,2.470347 2.68079,-0.07733 4.73131,-0.849361 6.22928,-2.470347 z"
     fill="#000000"
     id="path7"
     style="stroke-width:0.413523" />
  <path
     d="m 417.01812,75.951918 c -2.36566,-2.393021 -3.54849,-5.789236 -3.70313,-10.189056 l -0.0794,-2.393021 0.0794,-2.392611 c 0.15464,-4.39982 1.33747,-7.796445 3.70313,-10.189056 2.36565,-2.393021 5.60066,-3.627786 9.85968,-3.627786 2.67912,0 4.96537,0.463139 6.93814,1.389417 1.89336,0.926278 3.31024,2.161042 4.25901,3.627785 0.94459,1.466334 1.41689,3.010403 1.4963,4.554063 0.0794,0.385813 -0.0794,0.694709 -0.39288,0.926278 -0.31765,0.231569 -0.63112,0.385813 -0.94877,0.385813 h -0.86518 c -0.39288,0 -0.71053,-0.07692 -0.86936,-0.308487 -0.15464,-0.154652 -0.39288,-0.540465 -0.5517,-1.003604 -0.78577,-2.238368 -1.9686,-3.782437 -3.46907,-4.708715 -1.4963,-0.925869 -3.31025,-1.389008 -5.59649,-1.389008 -2.91736,0 -5.28302,0.848952 -7.01755,2.624181 -1.73872,1.77523 -2.68331,4.39982 -2.76272,8.027605 l -0.0794,2.084125 0.0794,2.084125 c 0.15882,3.628195 1.024,6.252376 2.76272,8.028014 1.73453,1.77523 4.10019,2.624181 7.01755,2.624181 2.28624,0 4.10019,-0.463138 5.59649,-1.389416 1.50047,-0.926278 2.60389,-2.547264 3.46907,-4.708307 0.23823,-0.463138 0.39706,-0.84936 0.5517,-1.003604 0.15883,-0.154243 0.47648,-0.308895 0.86936,-0.308895 h 0.86518 c 0.39706,0 0.71053,0.154652 0.94877,0.386222 0.31347,0.231569 0.39288,0.540056 0.39288,0.926277 -0.0794,1.543661 -0.63112,3.087321 -1.4963,4.554063 -0.94877,1.466743 -2.36565,2.701508 -4.25901,3.627786 -1.89336,0.926277 -4.1796,1.389416 -6.93814,1.389416 -4.25902,0 -7.49403,-1.234764 -9.85968,-3.627785 z"
     fill="#000000"
     id="path8"
     style="stroke-width:0.413523" />
  <path
     d="m 446.90645,78.576918 c -0.23823,-0.23157 -0.39706,-0.540466 -0.39706,-0.926278 V 37.589124 c 0,-0.385813 0.15883,-0.694709 0.39706,-0.926278 0.23406,-0.23157 0.55171,-0.385813 0.94459,-0.385813 h 1.02401 c 0.39706,0 0.71053,0.154243 0.94877,0.385813 0.23405,0.231569 0.39288,0.540465 0.39288,0.926278 V 77.65064 c 0,0.385812 -0.15883,0.694708 -0.39288,0.926278 -0.23824,0.231569 -0.55171,0.385812 -0.94877,0.385812 h -0.94459 c -0.39289,0 -0.78995,-0.154243 -1.02401,-0.385812 z"
     fill="#000000"
     id="path9"
     style="stroke-width:0.413523" />
  <path
     d="m 461.33444,75.721167 c -2.36565,-2.547264 -3.62789,-5.866563 -3.70313,-9.88016 l -0.0794,-2.547265 0.0794,-2.547264 c 0.15465,-4.014007 1.33748,-7.332896 3.70313,-9.88016 2.36566,-2.547264 5.68008,-3.782438 9.93492,-3.782438 4.25901,0 7.57344,1.235174 9.93909,3.782438 2.36566,2.547264 3.6279,5.866153 3.70313,9.88016 0.0794,0.385813 0.0794,1.235174 0.0794,2.547264 0,1.312091 0,2.161043 -0.0794,2.547265 -0.15465,4.013597 -1.33747,7.332896 -3.70313,9.88016 -2.36565,2.547264 -5.68008,3.782438 -9.93909,3.782438 -4.25484,0.07692 -7.56926,-1.235174 -9.93492,-3.782438 z m 16.95665,-2.393021 c 1.81395,-1.852555 2.75854,-4.399819 2.83795,-7.796035 0.0794,-0.385813 0.0794,-1.157847 0.0794,-2.238369 0,-1.080521 0,-1.852555 -0.0794,-2.238368 -0.15883,-3.396625 -1.10342,-5.943889 -2.83795,-7.796444 -1.81395,-1.852556 -4.10019,-2.701508 -7.02173,-2.701508 -2.91737,0 -5.28302,0.926278 -7.01756,2.701508 -1.81394,1.852555 -2.75853,4.399819 -2.83795,7.796444 l -0.0794,2.238368 0.0794,2.238369 c 0.15883,3.396216 1.10342,5.94348 2.83795,7.796035 1.81395,1.852556 4.10019,2.701917 7.01756,2.701917 2.92154,0.07692 5.20778,-0.849361 7.02173,-2.701917 z"
     fill="#000000"
     id="path10"
     style="stroke-width:0.413523" />
  <path
     d="m 494.92591,75.875001 c -2.04801,-2.469938 -3.15142,-5.71191 -3.15142,-9.725917 v -17.13614 c 0,-0.385813 0.15464,-0.694708 0.39288,-0.926278 0.23824,-0.231569 0.55171,-0.385813 0.94459,-0.385813 h 1.02818 c 0.39288,0 0.71053,0.154244 0.94459,0.385813 0.23824,0.23157 0.39288,0.540465 0.39288,0.926278 v 16.750327 c 0,6.869758 3.07619,10.265973 9.14915,10.265973 2.91737,0 5.28302,-0.926277 7.01756,-2.701507 1.73453,-1.852556 2.60389,-4.322493 2.60389,-7.564466 V 49.012944 c 0,-0.385813 0.15464,-0.694708 0.39288,-0.926278 0.23824,-0.231569 0.55171,-0.385813 0.94459,-0.385813 h 1.02818 c 0.39288,0 0.71053,0.154244 0.94459,0.385813 0.23824,0.23157 0.39289,0.540465 0.39289,0.926278 v 28.637287 c 0,0.385812 -0.15465,0.694708 -0.39289,0.926277 -0.23406,0.23157 -0.55171,0.385813 -0.94459,0.385813 h -0.86935 c -0.39289,0 -0.71054,-0.154243 -0.9446,-0.385813 -0.23823,-0.231569 -0.39706,-0.540465 -0.39706,-0.926277 V 74.79448 c -1.25806,1.54366 -2.59971,2.778834 -4.17542,3.550459 -1.57989,0.772035 -3.6279,1.235173 -6.07296,1.235173 -4.02078,0 -7.09697,-1.235173 -9.22856,-3.705111 z"
     fill="#000000"
     id="path11"
     style="stroke-width:0.413523" />
  <path
     d="m 528.59678,75.334945 c -2.12742,-2.85616 -3.23083,-6.252375 -3.31024,-10.343299 l -0.0794,-1.698313 0.0794,-1.698312 c 0.15882,-4.013598 1.26224,-7.48714 3.31024,-10.343299 2.1316,-2.85616 5.36243,-4.245168 9.78027,-4.245168 4.49307,0 7.88691,1.620577 10.3278,4.785633 V 37.589124 c 0,-0.385813 0.15882,-0.694709 0.39706,-0.926278 0.23406,-0.23157 0.55171,-0.385813 0.94459,-0.385813 h 1.024 c 0.39707,0 0.71054,0.154243 0.94877,0.385813 0.23406,0.231569 0.39289,0.540465 0.39289,0.926278 V 77.65064 c 0,0.385812 -0.15883,0.694708 -0.39289,0.926278 -0.23823,0.231569 -0.5517,0.385812 -0.94877,0.385812 h -1.024 c -0.39288,0 -0.71053,-0.154243 -0.94459,-0.385812 -0.23824,-0.23157 -0.39706,-0.540466 -0.39706,-0.926278 v -2.85616 c -2.36566,3.165055 -5.83473,4.785632 -10.3278,4.785632 -4.41784,0 -7.64867,-1.389416 -9.78027,-4.245167 z m 17.42894,-2.393021 c 1.65513,-2.084125 2.52448,-4.554063 2.6039,-7.410222 0.0752,-0.385813 0.0752,-1.157848 0.0752,-2.315695 0,-1.157847 0,-1.929473 -0.0752,-2.315694 -0.0794,-1.697904 -0.39707,-3.31889 -1.18283,-4.862959 -0.71053,-1.54366 -1.81395,-2.778834 -3.31443,-3.782028 -1.49629,-1.003604 -3.31024,-1.466743 -5.44184,-1.466743 -3.31024,0 -5.75531,1.003604 -7.25161,3.087729 -1.50048,2.084125 -2.36565,4.708306 -2.52448,7.950278 l -0.0794,1.698313 c 0,3.705111 0.71053,6.79284 2.20683,9.185452 1.50048,2.393021 4.02078,3.550868 7.64867,3.550868 3.31443,-0.154243 5.75949,-1.235173 7.3352,-3.319299 z"
     fill="#000000"
     id="path12"
     style="stroke-width:0.413523" />
  <g
     clip-path="url(#clip0_1831_12993)"
     id="g15"
     transform="matrix(0.41796024,0,0,0.40913332,-7.9053417,-6.4270753)">
    <path
       d="M 210.808,346.82 18.9141,237.704 V 177.502 L 210.808,286.618 402.701,179.383 v 56.44 z"
       fill="#3575cf"
       id="path13" />
    <path
       d="M 210.808,248.992 52.7777,158.689 18.9141,177.502 V 147.401 87.1988 L 210.808,196.315 240.909,177.502 84.7599,87.1988 131.793,60.8604 210.808,15.709 368.838,107.893 402.701,87.1988 V 179.383 L 210.808,68.3857 176.944,87.1988 333.093,177.502"
       fill="#ffffff"
       id="path14" />
    <path
       d="M 210.808,248.992 52.7777,158.689 18.9141,177.502 V 147.401 87.1988 L 210.808,196.315 240.909,177.502 84.7599,87.1988 131.793,60.8604 210.808,15.709 368.838,107.893 402.701,87.1988 V 179.383 L 210.808,68.3857 176.944,87.1988 333.093,177.502"
       fill="#3575cf"
       id="path15" />
  </g>
  <defs
     id="defs15">
    <clipPath
       id="clip0_1831_12993">
      <rect
         width="421.414"
         height="361.21201"
         fill="#ffffff"
         transform="translate(0.0996094,0.65918)"
         id="rect15"
         x="0"
         y="0" />
    </clipPath>
  </defs>
</svg>
