<svg width="160" height="40" viewBox="0 0 160 40" fill="none" xmlns="http://www.w3.org/2000/svg">
<g clip-path="url(#clip0_5125_27202)">
<path fill-rule="evenodd" clip-rule="evenodd" d="M18.9829 0.0287781C13.4133 0.320141 8.22365 2.89812 4.69378 7.12469C0.765553 11.8307 -0.787294 17.846 0.378263 23.8576C1.13071 27.7486 3.03028 31.326 5.83352 34.1216C10.5769 38.8608 17.2346 40.9004 23.8148 39.6317C29.6758 38.4994 34.6184 34.8888 37.5507 29.6C39.6568 25.8013 40.4388 21.3276 39.7638 16.9535C38.9671 11.7791 36.2118 7.16526 32.0623 4.04881C28.2484 1.18684 23.682 -0.218323 18.9829 0.0287781ZM21.1776 1.05776C24.9251 1.29749 28.5213 2.63996 31.4868 4.90445C32.8848 5.97401 34.1942 7.29435 35.2233 8.67001C36.8868 10.9013 38.045 13.5051 38.6019 16.2712C38.8675 17.6026 38.956 18.5357 38.956 20.0515C38.956 21.3055 38.9302 21.7222 38.7863 22.7069C38.1482 27.1437 35.902 31.2818 32.5196 34.2618C29.5061 36.9098 25.8914 38.4662 21.7124 38.9051C20.9895 38.9825 18.7801 38.9678 18.0424 38.8867C15.7002 38.6174 13.6715 38.0273 11.6244 37.0168C9.6769 36.0542 8.12406 34.9367 6.56752 33.3877C5.02943 31.8498 3.94133 30.3376 2.99339 28.4051C0.806126 23.9609 0.422525 18.8529 1.93111 14.2095C2.46225 12.5683 3.25896 10.9161 4.20321 9.50352C6.92899 5.42079 10.9937 2.60677 15.7518 1.51509C17.5334 1.10571 19.4219 0.947117 21.1776 1.05776ZM24.9577 7.35703C24.615 7.582 24.6334 8.12785 24.9872 8.2975C25.4848 8.53354 25.975 8.02827 25.717 7.54881C25.5843 7.3054 25.1899 7.20582 24.9577 7.35703ZM22.5103 8.09144C22.4919 7.85172 22.5766 7.67469 22.7609 7.57511C23.1406 7.37226 23.5681 7.61937 23.5681 8.03981C23.5681 8.39018 23.3248 8.60409 22.971 8.5709C22.8236 8.55614 22.7609 8.52664 22.654 8.41969C22.5435 8.30904 22.5213 8.25741 22.5103 8.09144ZM20.5646 7.76329C20.1924 7.92925 20.1481 8.51197 20.4909 8.72588C20.6457 8.82177 20.9332 8.82546 21.077 8.72957C21.3866 8.52304 21.405 8.03989 21.1101 7.82598C21.0032 7.74485 20.6826 7.71165 20.5646 7.76329ZM16.5018 9.09132C17.0329 8.693 17.5604 8.40533 18.1838 8.16929C18.5083 8.04759 18.6227 8.04021 18.7997 8.12504C18.9694 8.20249 19.069 8.37214 19.069 8.5713C19.069 8.85159 18.951 8.99543 18.6448 9.09501C18.1985 9.23884 17.5641 9.5929 16.8965 10.0724C16.6457 10.2531 16.2694 10.1646 16.144 9.89533C16.0039 9.60028 16.0924 9.39375 16.5018 9.09132ZM24.0665 9.42648C23.8343 9.57769 23.7569 9.92068 23.9007 10.1567C24.0518 10.4001 24.3577 10.4887 24.6231 10.3633C24.9769 10.1936 24.9954 9.64776 24.6526 9.42279C24.5088 9.3269 24.214 9.33059 24.0665 9.42648ZM21.5648 9.83201C21.598 9.77669 21.6828 9.69555 21.7565 9.65129C22.2246 9.38206 22.7443 9.87627 22.5121 10.3705C22.3425 10.7245 21.7786 10.7504 21.5759 10.411C21.4837 10.2635 21.4801 9.97585 21.5648 9.83201ZM19.356 9.9796C17.1724 10.7283 15.7966 12.9965 16.1323 15.2831C16.2798 16.2826 16.6892 17.1714 17.3237 17.8685C17.5782 18.1524 18.8175 19.2921 18.9761 19.388C19.1863 19.5207 19.4925 19.458 19.6548 19.2515C19.7544 19.1261 19.7617 18.82 19.6658 18.6798C19.6327 18.6282 19.3044 18.3147 18.9392 17.9865C18.5741 17.6582 18.172 17.271 18.0466 17.1271C17.6593 16.6772 17.3901 16.1609 17.2167 15.5191C17.1503 15.2868 17.1392 15.1245 17.1356 14.6266C17.1319 14.0992 17.1429 13.9738 17.2204 13.6898C17.5634 12.3769 18.4745 11.3811 19.7322 10.9348C20.0458 10.8242 20.1195 10.7762 20.1896 10.625C20.3445 10.3005 20.1527 9.93534 19.8023 9.88371C19.7212 9.87265 19.5663 9.90584 19.356 9.9796ZM14.4285 11.6393C14.6018 11.2705 14.6793 11.1746 14.849 11.123C15.0813 11.0492 15.3248 11.1414 15.4539 11.3553C15.5645 11.5324 15.5461 11.6873 15.3617 12.0856C14.9301 13.026 14.7567 13.9628 14.8342 14.9697C14.9264 16.2605 15.4281 17.437 16.2912 18.3959C16.4498 18.5729 17.6559 19.6904 18.969 20.8817C20.5477 22.309 21.4181 23.1204 21.5288 23.2716C21.9382 23.8285 22.1042 24.3264 22.1005 25.0271C22.1005 25.4181 22.0857 25.5398 22.0046 25.8127C21.8939 26.1778 21.8128 26.3548 21.6136 26.6499C21.2374 27.2031 20.614 27.642 19.9686 27.808C19.6845 27.8817 16.044 28.2468 15.8227 28.2247C15.6936 28.21 15.6346 28.1768 15.5387 28.0772C15.476 28.0034 15.4096 27.8891 15.3985 27.819C15.3617 27.6383 15.4834 27.3765 15.642 27.2953C15.7268 27.2474 16.2653 27.181 17.7002 27.0371C18.8067 26.9228 19.7067 26.8159 19.7915 26.7864C20.4481 26.5503 20.8907 26.0635 21.0456 25.4107C21.1489 24.9644 21.0567 24.426 20.8022 24.035C20.6509 23.799 20.4813 23.6367 18.0358 21.4239C16.8481 20.3506 15.76 19.3474 15.6199 19.1962C14.7641 18.2926 14.1887 17.1752 13.9158 15.8806C13.8236 15.4565 13.8162 15.3495 13.8125 14.5529C13.8125 13.7895 13.8236 13.6346 13.8973 13.2658C14.0043 12.7384 14.2145 12.0929 14.4285 11.6393ZM21.8315 11.7862C20.6328 11.9116 20.3783 11.9633 19.9541 12.1772C19.2127 12.546 18.6705 13.2209 18.4492 14.036C18.3607 14.3642 18.3607 15.1424 18.4492 15.4743C18.5414 15.821 18.8107 16.341 19.0357 16.6066C19.1426 16.732 20.2197 17.7278 21.4258 18.8158C22.6319 19.9037 23.7495 20.9217 23.9118 21.0766C25.0921 22.2236 25.7303 23.8242 25.6565 25.4802C25.6344 26.0592 25.5348 26.5718 25.3319 27.173C25.1622 27.6635 25.1622 27.7852 25.3208 27.9733C25.4979 28.1872 25.8188 28.2094 26.0327 28.0286C26.1581 27.9254 26.3093 27.5639 26.4569 27.0181C27.0433 24.8458 26.5307 22.5555 25.07 20.8C24.8745 20.5676 24.0188 19.7673 22.3037 18.2109C20.725 16.7799 19.7771 15.8948 19.7033 15.7804C19.4377 15.3821 19.3344 14.8326 19.4303 14.3605C19.5226 13.9179 19.8545 13.4385 20.2418 13.1914C20.5738 12.9775 20.7766 12.9332 21.9201 12.8152C22.5692 12.7525 23.0414 12.6861 23.1151 12.6529C23.2995 12.5681 23.3881 12.3985 23.3696 12.1624C23.3586 12.0112 23.3327 11.9448 23.2516 11.86C23.1631 11.7678 22.9381 11.6645 22.8643 11.6793C22.8532 11.683 22.3885 11.7309 21.8315 11.7862ZM20.7278 20.7717C20.7278 20.6204 20.8163 20.4397 20.9344 20.3512C21.0561 20.2627 21.3548 20.2443 21.4913 20.318C21.6352 20.3992 23.0442 21.7048 23.2397 21.9371C23.7966 22.6047 24.1876 23.4566 24.3241 24.2975C24.3941 24.7401 24.3941 25.5183 24.3241 25.935C24.029 27.6278 22.8893 29.0478 21.3106 29.6711C20.536 29.9772 19.2155 30.1468 18.9352 29.9735C18.7692 29.8702 18.6733 29.612 18.7323 29.4203C18.7729 29.2764 18.9905 29.0478 19.0827 29.0478C19.3409 29.0478 20.2815 28.915 20.536 28.8412C21.6241 28.5314 22.4946 27.7975 22.9815 26.7796C23.5679 25.5478 23.4794 24.1389 22.738 22.9919C22.5204 22.66 22.2143 22.3391 21.4397 21.6421C20.8495 21.1147 20.7278 20.9634 20.7278 20.7717ZM24.1678 29.2208C24.1235 29.2282 23.976 29.3389 23.8358 29.4606C23.3452 29.8958 22.8473 30.2314 22.3346 30.4674C21.7813 30.7256 21.0436 30.9284 20.4682 30.9801C18.6019 31.1571 13.8695 31.6366 13.8179 31.6513C13.6003 31.7214 13.4343 32.0054 13.4749 32.2414C13.5044 32.3963 13.7073 32.6065 13.8511 32.636C13.9101 32.6471 15.1863 32.5328 16.6875 32.3816C17.451 32.3065 18.2344 32.2286 18.8759 32.1649C19.4958 32.1033 19.9831 32.0548 20.1916 32.0349C21.0805 31.95 21.4826 31.8726 22.0912 31.6697C22.8842 31.4042 23.7436 30.91 24.4001 30.342C24.7137 30.0691 24.8206 29.9105 24.8206 29.704C24.8206 29.5638 24.7137 29.3721 24.5919 29.2909C24.496 29.2319 24.2895 29.195 24.1678 29.2208ZM14.7046 29.545C14.7858 29.4897 15.0219 29.4528 15.7669 29.3753C16.9399 29.2536 16.9804 29.2536 17.1353 29.3274C17.3825 29.4454 17.4894 29.8031 17.3456 30.0466C17.2276 30.2457 17.0726 30.2863 15.9513 30.3932C14.996 30.4854 14.9075 30.4891 14.7821 30.4375C14.4354 30.2937 14.3874 29.7515 14.7046 29.545Z" fill="black"/>
<path fill-rule="evenodd" clip-rule="evenodd" d="M55.6528 12.0359C53.3033 12.1773 52.3474 12.9232 52.0669 14.8263C51.9862 15.3535 51.9777 16.6137 52.0457 17.1195C52.2114 18.3668 52.683 19.2027 53.5412 19.777C54.0553 20.12 54.4164 20.24 56.6087 20.8015C58.8945 21.3844 59.2216 21.5002 59.5743 21.8559C59.9481 22.2331 60.0713 22.6446 60.1011 23.6048C60.1266 24.432 60.0628 24.8864 59.8589 25.3065C59.6337 25.7694 59.2216 26.0266 58.4994 26.1637C58.151 26.2323 57.8578 26.2409 56.3326 26.2366C55.3639 26.2323 54.0723 26.2109 53.469 26.1852C52.8614 26.1552 52.3601 26.1423 52.3516 26.1509C52.3176 26.1852 52.2071 27.5611 52.2411 27.5911C52.2836 27.6339 53.6007 27.8268 54.5057 27.9211C55.5636 28.0283 58.2827 28.0283 58.9879 27.9168C60.8871 27.6211 61.6986 26.8838 62.013 25.1736C62.1149 24.6078 62.1149 23.0047 62.013 22.4689C61.7665 21.2044 61.278 20.4757 60.3178 19.9442C59.8547 19.687 59.4256 19.5542 57.5519 19.0827C56.5662 18.834 55.6358 18.5897 55.4828 18.5383C54.6289 18.2597 54.2082 17.8225 54.0341 17.0252C53.9533 16.648 53.9618 15.4735 54.051 15.1049C54.2252 14.3977 54.5354 14.0719 55.2279 13.8833C55.5508 13.7933 58.2614 13.7633 60.0246 13.8319C60.7554 13.8576 61.3672 13.8704 61.3799 13.8576C61.4224 13.8147 61.5244 12.4945 61.4861 12.4559C61.4691 12.4388 61.176 12.3745 60.8361 12.3145C59.3193 12.053 57.2035 11.9373 55.6528 12.0359ZM68.991 12.0993C68.4642 12.1251 66.8922 12.2494 66.8582 12.2708C66.837 12.2837 66.8242 15.7728 66.8242 20.0291V27.7617H67.8226H68.8211V24.6713V21.5765L69.0675 21.6065C70.3591 21.7437 73.0867 21.7908 73.8132 21.6837C75.6656 21.4136 76.5451 20.6206 76.8892 18.9018C77.1399 17.663 77.0974 15.6485 76.8 14.5597C76.4856 13.3895 75.8016 12.6866 74.6544 12.3522C73.8769 12.1208 73.639 12.1036 71.3915 12.0951C70.2486 12.0908 69.1652 12.0951 68.991 12.0993ZM73.4606 13.9039C74.1276 14.0925 74.51 14.3926 74.7521 14.9241C74.9561 15.3698 75.0283 15.7642 75.0538 16.6172C75.1133 18.4517 74.7861 19.3304 73.8982 19.7505C73.3629 20.0034 73.2481 20.0163 70.9369 20.0334L68.8211 20.0506V16.9172V13.7839L70.9794 13.7967C73.0272 13.8139 73.1504 13.8182 73.4606 13.9039ZM112.319 12.2708C112.353 12.2494 113.951 12.1251 114.473 12.0993C114.66 12.0951 115.739 12.0908 116.874 12.0951C118.573 12.1036 119.011 12.1165 119.359 12.1765C120.409 12.3522 121.037 12.6309 121.543 13.1366C122.053 13.651 122.308 14.2168 122.465 15.1855C122.567 15.8199 122.567 17.2301 122.465 17.8345C122.282 18.919 121.866 19.6391 121.178 20.0591C120.893 20.2349 120.273 20.4535 119.945 20.4963C119.818 20.5135 119.72 20.5478 119.72 20.5735C119.72 20.6035 119.831 20.6678 119.967 20.7235C120.515 20.9378 121.054 21.4822 121.356 22.1252C121.466 22.3652 122.015 24.1183 123.06 27.5774L123.115 27.7617H122.065H121.016L120.324 25.2842C119.839 23.5525 119.584 22.7081 119.47 22.4681C119.278 22.0609 118.964 21.6965 118.662 21.5336C118.263 21.3107 118.042 21.2893 116.058 21.2893H114.24V24.5255V27.7617H113.262H112.285V20.0291C112.285 15.7728 112.298 12.2837 112.319 12.2708ZM120.451 15.3656C120.222 14.5254 119.843 14.1397 119.006 13.9039C118.696 13.8182 118.569 13.8139 116.462 13.7967L114.24 13.7839V16.6815V19.5791L116.398 19.5619C118.786 19.5405 118.871 19.5319 119.453 19.2533C119.988 19.0004 120.319 18.5503 120.472 17.8602C120.532 17.6073 120.544 17.3373 120.544 16.6172C120.544 15.8156 120.532 15.6527 120.451 15.3656ZM129.011 12.2889C128.445 12.4689 127.995 12.9061 127.787 13.4676C127.714 13.6364 127.676 13.8186 127.676 14.0028V20.7501L127.668 27.7755L127.953 27.7541C128.679 27.694 129.308 27.2268 129.588 26.5282L129.686 26.2838L129.707 12.2031L129.486 12.2074C129.363 12.2074 129.146 12.246 129.011 12.2889ZM98.3666 13.6041C98.7192 12.9311 99.3947 12.4682 100.249 12.3139C100.818 12.211 105.559 12.241 107.187 12.3568L107.582 12.3868L107.556 12.9697C107.539 13.2912 107.518 13.6341 107.501 13.7327L107.48 13.917H102.853C100.308 13.917 98.2264 13.9041 98.2264 13.8913C98.2264 13.8784 98.2901 13.7455 98.3666 13.6041ZM82.8034 12.3488C82.489 12.4216 82.285 12.4902 81.9409 12.6445L81.6562 12.7731L81.6647 20.0214L81.6775 27.2696L82.0004 27.411C82.4083 27.5868 82.8586 27.7025 83.2835 27.7411L83.6106 27.7711V24.0591V20.3471H87.137H90.6633V24.0591V27.7754L90.9735 27.7454C91.4281 27.7025 91.9422 27.5696 92.3033 27.4025L92.6177 27.2525V20.0128V12.7731L92.367 12.6574C91.8275 12.4131 91.3346 12.2888 90.914 12.2888H90.6633V15.4607V18.6326H87.137H83.6106V15.4607V12.2888L83.326 12.293C83.1645 12.2973 82.9308 12.3231 82.8034 12.3488ZM133.598 13.7196C133.458 13.3724 133.373 13.0081 133.334 12.5966L133.305 12.2879H139.24H145.171V12.4465C145.171 12.8237 145.048 13.351 144.865 13.7967L144.78 14.0025L142.499 14.0111L140.221 14.0239L140.209 20.8907L140.2 27.7617H139.223H138.246V20.8821V14.0025H135.977H133.708L133.598 13.7196ZM149.409 15.2953L149.411 15.2996L150.419 17.2816L152.946 22.2495V25.0056V27.7617H153.945H154.943V25.027V22.2966L157.471 17.3073C158.861 14.564 159.999 12.3137 159.999 12.3008C159.999 12.2879 159.689 12.2879 159.307 12.2965L159.306 12.2965C158.618 12.3094 158.614 12.3095 158.321 12.4551C158.138 12.5451 157.93 12.6994 157.781 12.8495C157.548 13.0852 157.467 13.2395 156.065 16.09C154.816 18.6403 154.051 20.3163 154.051 20.5135C154.051 20.5392 154.013 20.5606 153.97 20.5606C153.907 20.5606 153.86 20.4792 153.758 20.192C153.686 19.9863 153.541 19.6176 153.439 19.3647C153.18 18.7304 150.465 13.2567 150.283 13.0038C150.087 12.7337 149.722 12.4765 149.386 12.3737C149.169 12.3051 148.991 12.2879 148.502 12.2879C148.167 12.2879 147.891 12.2922 147.891 12.3008C147.891 12.3072 148.518 13.5413 149.409 15.2953ZM98.0724 25.7267L98.0596 22.2418L98.0469 18.7613H102.342H106.633V19.5757V20.3901H103.319H100.001L100.014 22.7991L100.027 25.2123L100.124 25.4266C100.303 25.8167 100.549 26.001 101.004 26.0867C101.17 26.1167 102.3 26.1339 104.365 26.1339H107.475L107.5 26.2925C107.513 26.3825 107.534 26.7168 107.551 27.0383L107.577 27.6212L107.479 27.6469C107.224 27.707 104.369 27.767 102.385 27.7541L100.197 27.7412L99.8568 27.6255C99.0113 27.334 98.4675 26.8197 98.1871 26.0438L98.0724 25.7267Z" fill="black"/>
</g>
<defs>
<clipPath id="clip0_5125_27202">
<rect width="160" height="40" fill="white" transform="translate(0 0.000976562)"/>
</clipPath>
</defs>
</svg>
