<svg width="172" height="48" viewBox="0 0 172 48" fill="none" xmlns="http://www.w3.org/2000/svg">
<path d="M1.16602 25.7582H2.09371H3.0214V26.0492V26.3401C3.0214 27.0737 3.2128 27.5917 3.65923 27.9263C4.10566 28.261 4.80738 28.4121 5.82801 28.4121H7.96223H10.0967C11.5931 28.4121 12.5791 28.3832 13.1912 28.1328C13.8032 27.8826 14.0412 27.4112 14.0412 26.5266V26.4801V26.4336C14.0412 25.8628 13.9598 25.4206 13.5797 25.1209C13.1997 24.8212 12.5208 24.6643 11.3263 24.6643H8.25283H5.17916C3.77572 24.6643 2.81321 24.4372 2.20143 23.9281C1.58965 23.4189 1.32886 22.6272 1.32886 21.498V21.1487V20.7995C1.32886 19.8335 1.60143 19.0825 2.48853 18.5731C3.37564 18.0637 4.87778 17.7959 7.33667 17.7959H8.86762H10.3986C12.6488 17.7959 13.9305 18.1218 14.6497 18.6573C15.369 19.1929 15.5255 19.9378 15.5255 20.7761V21.0902V21.4042H14.5979H13.6699V21.3461V21.288C13.6699 20.3801 13.368 19.9145 12.7936 19.6759C12.2191 19.4372 11.3721 19.4257 10.2818 19.4257H8.54269H6.8033C5.37632 19.4257 4.5065 19.4956 3.99318 19.7342C3.4801 19.9728 3.32353 20.3804 3.32353 21.0557V21.277V21.4982C3.32353 21.987 3.4047 22.3712 3.74691 22.6329C4.08913 22.8947 4.69239 23.0345 5.73657 23.0345H8.36908H11.0016C12.4975 23.0345 13.7558 23.1102 14.6404 23.5876C15.525 24.0651 16.0351 24.9439 16.0351 26.55V26.5731V26.5963C16.0351 28.2607 15.2698 29.1222 14.2 29.5674C13.1303 30.0127 11.7562 30.0419 10.5386 30.0419H8.70553H6.8727C5.39937 30.0419 3.97288 30.0419 2.91442 29.5966C1.85596 29.1513 1.16602 28.2605 1.16602 26.4788V26.1183V25.7582Z" fill="#141A1F"/>
<path d="M18.7422 17.9827H19.6699H20.5976V18.9256V19.8684H20.6211H20.6447C20.9345 19.1468 21.4854 18.6289 22.1844 18.2914C22.8833 17.954 23.7301 17.7969 24.6115 17.7969H26.5017H28.3919C29.8076 17.7969 31.1764 18.0239 32.1913 18.7631C33.2062 19.5023 33.8671 20.7537 33.8671 22.8024V23.8496V24.8968C33.8671 26.8175 33.4439 28.1041 32.5075 28.9102C31.571 29.7163 30.1215 30.0424 28.0684 30.0424H26.1662H24.264C23.2083 30.0424 22.4429 29.9086 21.8888 29.6205C21.3349 29.3323 20.9924 28.89 20.7832 28.273H20.7607H20.7381V31.1366V34.0001H19.7405H18.7429V25.9918V17.9827H18.7422ZM31.8724 22.8255C31.8724 21.6727 31.6868 20.8229 31.1501 20.2612C30.6135 19.6995 29.7264 19.4262 28.3232 19.4262H26.3398H24.3564C23.0457 19.4262 22.141 19.7696 21.5641 20.369C20.9871 20.9684 20.7379 21.8243 20.7379 22.8489V23.9778V25.1068C20.7379 26.5268 21.1785 27.353 21.8833 27.8245C22.588 28.2959 23.5565 28.4123 24.612 28.4123H26.3862H28.1604C29.3208 28.4123 30.2487 28.2843 30.8868 27.8129C31.5249 27.3415 31.8726 26.5268 31.8726 25.1533V23.9891V22.8255H31.8724Z" fill="#141A1F"/>
<path d="M59.1582 17.9824H60.0859H61.0136V18.8441V19.7057H61.0371H61.0607C61.4317 18.9371 61.9939 18.4599 62.6345 18.1748C63.2751 17.8897 63.9941 17.7969 64.6785 17.7969H65.6182H66.5579C68.4251 17.7969 69.6659 18.0993 70.4398 18.7656C71.2137 19.4319 71.5211 20.4621 71.5211 21.9176V22.6276V23.3377H70.5934H69.6657V23.0817V22.8258C69.6657 21.3587 69.5149 20.5088 68.9206 20.0258C68.3264 19.5428 67.2882 19.4262 65.5137 19.4262H64.899H64.2842C63.229 19.4262 62.4461 19.7638 61.927 20.2936C61.4079 20.8234 61.1526 21.5452 61.1526 22.3136V26.0848V29.856H60.1555H59.1585V23.919V17.9824H59.1582Z" fill="#141A1F"/>
<path d="M75.5672 19.6128H74.268H72.9688V18.7979V17.9831H74.268H75.5672V16.5745V15.166H76.5645H77.5619V16.5745V17.9831H81.5179H85.4739V18.7979V19.6128H81.5179H77.5619V22.5697V25.5265C77.5619 26.6323 77.7533 27.3542 78.2172 27.7995C78.6812 28.2447 79.4177 28.4137 80.508 28.4137H80.8209H81.1338C82.4566 28.4137 83.2224 28.2739 83.6579 27.8228C84.0933 27.3718 84.1977 26.6092 84.1977 25.3638V24.9216V24.4793H85.0097H85.8216V25.1313V25.7832C85.8216 26.9705 85.7638 28.0353 85.1663 28.8037C84.5688 29.5718 83.4314 30.0432 81.2726 30.0432H80.7277H80.1828C78.3154 30.0432 77.1615 29.5891 76.4743 28.8937C75.7871 28.1982 75.5669 27.2611 75.5669 26.2951V22.9539V19.6128H75.5672Z" fill="#141A1F"/>
<path d="M88.3652 17.9827H90.4531H92.541V19.1119V20.241H92.564H92.5871C92.8423 19.2982 93.4221 18.6872 94.1907 18.3118C94.959 17.9364 95.916 17.7969 96.9254 17.7969C98.5493 17.7969 99.6799 18.1461 100.405 18.9054C101.13 19.6648 101.449 20.8347 101.449 22.476C101.449 22.6276 101.443 22.7845 101.434 22.9563C101.425 23.128 101.413 23.314 101.402 23.5235H99.4765H97.5517C97.5517 22.7669 97.4645 22.208 97.1544 21.8384C96.8442 21.4688 96.3106 21.2883 95.4175 21.2883C94.6521 21.2883 94.0025 21.4341 93.5443 21.7572C93.0861 22.0803 92.8191 22.5811 92.8191 23.2909V26.5734V29.8558H90.5921H88.3652V23.9192V17.9827Z" fill="#141A1F"/>
<path d="M103.096 25.6886C103.096 24.0706 103.652 23.215 104.748 22.7637C105.844 22.3124 107.48 22.2659 109.638 22.2659C110.855 22.2659 111.801 22.2835 112.549 22.4117C113.297 22.5399 113.848 22.7785 114.277 23.2203V22.6966V22.1728C114.277 21.5908 114.19 21.195 113.885 20.9448C113.58 20.6947 113.059 20.5903 112.189 20.5903H110.878H109.568C108.919 20.5903 108.501 20.6192 108.24 20.753C107.979 20.8867 107.875 21.1251 107.852 21.5437H105.694H103.537C103.537 19.9378 103.931 19.0008 104.795 18.4655C105.659 17.9299 106.993 17.7959 108.872 17.7959H111.458H114.045C115.576 17.7959 116.748 18.1627 117.537 18.8788C118.326 19.5949 118.731 20.66 118.731 22.0567V25.9561V29.8556H116.62H114.509V29.1805V28.5054C113.895 29.1458 113.471 29.53 112.923 29.754C112.375 29.9783 111.702 30.0424 110.589 30.0424H109.069H107.55C106.193 30.054 105.08 29.9084 104.305 29.4108C103.531 28.913 103.096 28.0631 103.096 26.6662V26.1774V25.6886H103.096ZM111.029 27.248C112.56 27.248 113.395 27.1316 113.848 26.9161C114.3 26.7006 114.37 26.3863 114.37 25.9906C114.37 25.5485 114.306 25.2461 113.935 25.0542C113.564 24.8621 112.885 24.7807 111.656 24.7807H110.67H109.684C108.745 24.7807 108.176 24.8855 107.843 25.1123C107.509 25.3391 107.411 25.6883 107.411 26.1774C107.411 26.5613 107.562 26.8288 107.93 27.0006C108.298 27.1723 108.884 27.248 109.754 27.248H110.392H111.029Z" fill="#141A1F"/>
<path d="M120.977 22.8478C120.977 21.335 121.151 20.072 122.029 19.1872C122.908 18.3024 124.491 17.7961 127.31 17.7961H127.971H128.631C129.548 17.7961 130.476 17.924 131.21 18.2848C131.943 18.6456 132.483 19.2393 132.621 20.1706H132.645H132.668V16.5852V13H134.895H137.122V21.428V29.856H135.034H132.946V28.7615V27.667H132.923H132.9C132.656 28.4004 132.256 28.9941 131.58 29.4042C130.905 29.8145 129.954 30.0415 128.609 30.0415H127.96H127.31C124.492 30.0415 122.908 29.5354 122.03 28.6506C121.151 27.7661 120.977 26.5031 120.977 24.9898V23.9187V22.8478H120.977ZM125.291 24.6174C125.291 25.2809 125.343 25.7991 125.662 26.1511C125.981 26.5034 126.567 26.6897 127.634 26.6897H128.945H130.255C131.137 26.6897 131.81 26.5909 132.262 26.2678C132.714 25.9447 132.946 25.3976 132.946 24.5012V23.9189V23.3366C132.946 22.4403 132.714 21.8931 132.262 21.5701C131.809 21.247 131.137 21.1479 130.255 21.1479H128.945H127.634C126.567 21.1479 125.981 21.3342 125.662 21.6865C125.343 22.0387 125.291 22.5567 125.291 23.2202V23.9187V24.6174Z" fill="#141A1F"/>
<path d="M139.592 25.6886C139.592 24.0706 140.149 23.215 141.245 22.7637C142.341 22.3124 143.976 22.2659 146.133 22.2659C147.352 22.2659 148.297 22.2835 149.045 22.4117C149.793 22.5399 150.344 22.7785 150.773 23.2203V22.6966V22.1728C150.773 21.5908 150.687 21.195 150.382 20.9448C150.077 20.6947 149.555 20.5903 148.685 20.5903H147.375H146.064C145.414 20.5903 144.997 20.6192 144.736 20.753C144.475 20.8867 144.37 21.1251 144.347 21.5437H142.19H140.033C140.033 19.9378 140.427 19.0008 141.291 18.4655C142.155 17.9302 143.489 17.7959 145.368 17.7959H147.955H150.541C152.072 17.7959 153.243 18.1627 154.032 18.8788C154.821 19.5949 155.227 20.66 155.227 22.0567V25.9561V29.8556H153.116H151.005V29.1805V28.5054C150.39 29.1458 149.966 29.53 149.418 29.754C148.87 29.978 148.198 30.0424 147.084 30.0424H145.565H144.046C142.689 30.054 141.575 29.9084 140.801 29.4108C140.027 28.913 139.592 28.0631 139.592 26.6662V26.1774V25.6886H139.592ZM147.525 27.248C149.056 27.248 149.891 27.1316 150.344 26.9161C150.796 26.7006 150.866 26.3863 150.866 25.9906C150.866 25.5485 150.802 25.2461 150.431 25.0542C150.059 24.8624 149.381 24.7807 148.152 24.7807H147.166H146.18C145.24 24.7807 144.672 24.8855 144.338 25.1123C144.005 25.3391 143.906 25.6883 143.906 26.1774C143.906 26.5613 144.057 26.8288 144.425 27.0006C144.793 27.1723 145.379 27.248 146.249 27.248H146.887H147.525Z" fill="#141A1F"/>
<path d="M158.082 17.9827H160.17H162.258V19.1119V20.241H162.281H162.304C162.56 19.2982 163.139 18.6872 163.908 18.3118C164.677 17.9364 165.633 17.7969 166.642 17.7969C168.266 17.7969 169.397 18.1461 170.122 18.9054C170.847 19.6648 171.166 20.8347 171.166 22.476C171.166 22.6276 171.16 22.7845 171.151 22.9563C171.142 23.128 171.13 23.314 171.119 23.5235H169.194H167.269C167.269 22.7669 167.182 22.208 166.871 21.8384C166.561 21.4688 166.027 21.2883 165.134 21.2883C164.369 21.2883 163.719 21.4341 163.261 21.7572C162.803 22.0803 162.536 22.5811 162.536 23.2909V26.5734V29.8558H160.309H158.082V23.9192V17.9827H158.082Z" fill="#141A1F"/>
<path d="M48.4173 19.4004H46.3875H44.3578C43.1979 19.4004 42.2121 19.5342 41.5161 20.0144C40.8202 20.4946 40.4141 21.3211 40.4141 22.7062V23.8937V25.0812C40.4141 26.4664 40.8202 27.2928 41.5161 27.7728C42.2121 28.2531 43.1981 28.3868 44.3578 28.3868H46.3875H48.4173C49.577 28.3868 50.5625 28.2531 51.2585 27.7728C51.9542 27.2928 52.36 26.4664 52.36 25.0812V23.8937V22.7062C52.36 21.3211 51.9542 20.4946 51.2585 20.0144C50.5628 19.5342 49.577 19.4004 48.4173 19.4004Z" fill="#141A1F"/>
<path d="M48.2135 16.0635H46.389H44.5644C42.1471 16.0635 40.0562 16.3536 38.5699 17.2691C37.0833 18.1846 36.2012 19.7248 36.2012 22.2253V23.8923V25.5593C36.2012 28.06 37.0833 29.6006 38.5699 30.5158C40.0562 31.4312 42.1471 31.7214 44.5644 31.7214H46.389H48.2135C50.6306 31.7214 52.7217 31.4312 54.2083 30.5158C55.6949 29.6003 56.5775 28.0598 56.5775 25.5593V23.8923V22.2253C56.5775 19.7248 55.6952 18.1843 54.2083 17.2691C52.7217 16.3536 50.6306 16.0635 48.2135 16.0635ZM54.3574 25.1962C54.3574 27.1521 53.6672 28.3565 52.5048 29.0723C51.3421 29.7879 49.7069 30.0147 47.8165 30.0147H46.389H44.9615C43.0713 30.0147 41.4359 29.7879 40.2732 29.0723C39.1105 28.3567 38.4203 27.1521 38.4203 25.1962V23.8926V22.5889C38.4203 20.6335 39.1105 19.4289 40.2732 18.7131C41.4359 17.9972 43.0713 17.7702 44.9615 17.7702H46.389H47.8165C49.7069 17.7702 51.3421 17.9972 52.5048 18.7131C53.6674 19.4289 54.3574 20.6335 54.3574 22.5889V23.8926V25.1962Z" fill="#141A1F"/>
</svg>
