<svg width="183" height="40" viewBox="0 0 183 40" fill="none" xmlns="http://www.w3.org/2000/svg">
<path d="M1.24219 22.3659H2.22955H3.21692V22.6707V22.9754C3.21692 23.7441 3.42063 24.2867 3.89578 24.6373C4.37094 24.9879 5.11779 25.1462 6.20408 25.1462H8.47558H10.7474C12.34 25.1462 13.3895 25.1159 14.0409 24.8535C14.6923 24.5914 14.9456 24.0975 14.9456 23.1709V23.1222V23.0734C14.9456 22.4755 14.8589 22.0122 14.4544 21.6982C14.0499 21.3842 13.3274 21.2198 12.056 21.2198H8.78489H5.51349C4.01977 21.2198 2.99534 20.982 2.34421 20.4486C1.69308 19.9152 1.4155 19.0857 1.4155 17.9028V17.5369V17.171C1.4155 16.159 1.70561 15.3723 2.64978 14.8386C3.59395 14.3049 5.19272 14.0244 7.80979 14.0244H9.43922H11.0687C13.4636 14.0244 14.8277 14.3658 15.5933 14.9268C16.3588 15.4879 16.5254 16.2684 16.5254 17.1466V17.4755V17.8045H15.5381H14.5504V17.7437V17.6828C14.5504 16.7317 14.2291 16.2439 13.6177 15.9939C13.0063 15.7439 12.1048 15.7318 10.9444 15.7318H9.09339H7.24211C5.72333 15.7318 4.79756 15.805 4.25121 16.055C3.70514 16.305 3.53849 16.732 3.53849 17.4395V17.6713V17.9031C3.53849 18.4151 3.62488 18.8176 3.98911 19.0918C4.35334 19.366 4.9954 19.5125 6.10676 19.5125H8.90861H11.7105C13.3026 19.5125 14.6419 19.5917 15.5834 20.0919C16.5249 20.5922 17.0678 21.5128 17.0678 23.1954V23.2196V23.2438C17.0678 24.9876 16.2532 25.89 15.1146 26.3565C13.9761 26.823 12.5136 26.8535 11.2177 26.8535H9.2667H7.31597C5.74786 26.8535 4.22962 26.8535 3.10306 26.3871C1.97651 25.9206 1.24219 24.9873 1.24219 23.1208V22.7431V22.3659Z" fill="#141A1F"/>
<path d="M19.9492 14.22H20.9366H21.924V15.2078V16.1956H21.949H21.9741C22.2826 15.4396 22.8689 14.897 23.6128 14.5435C24.3568 14.19 25.258 14.0254 26.1961 14.0254H28.2078H30.2196C31.7264 14.0254 33.1833 14.2632 34.2635 15.0377C35.3437 15.8121 36.047 17.123 36.047 19.2693V20.3663V21.4634C36.047 23.4756 35.5967 24.8234 34.6 25.6679C33.6033 26.5124 32.0605 26.854 29.8754 26.854H27.8508H25.8262C24.7026 26.854 23.888 26.7139 23.2982 26.412C22.7087 26.1101 22.3442 25.6468 22.1215 25.0004H22.0975H22.0735V28.0003V31.0003H21.0118H19.95V22.6105V14.22H19.9492ZM33.9241 19.2935C33.9241 18.0858 33.7265 17.1955 33.1553 16.607C32.5842 16.0186 31.64 15.7323 30.1466 15.7323H28.0356H25.9246C24.5296 15.7323 23.5667 16.0921 22.9526 16.72C22.3386 17.348 22.0733 18.2446 22.0733 19.318V20.5007V21.6834C22.0733 23.1711 22.5423 24.0366 23.2923 24.5305C24.0424 25.0244 25.0732 25.1463 26.1966 25.1463H28.0849H29.9733C31.2083 25.1463 32.196 25.0123 32.8751 24.5184C33.5542 24.0245 33.9243 23.1711 33.9243 21.7321V20.5125V19.2935H33.9241Z" fill="#141A1F"/>
<path d="M62.9648 14.2198H63.9522H64.9396V15.1225V16.0252H64.9646H64.9897C65.3846 15.2199 65.9829 14.72 66.6647 14.4213C67.3465 14.1226 68.1118 14.0254 68.8403 14.0254H69.8404H70.8406C72.8278 14.0254 74.1485 14.3423 74.9722 15.0403C75.7958 15.7383 76.123 16.8175 76.123 18.3423V19.0862V19.83H75.1356H74.1482V19.5619V19.2938C74.1482 17.7568 73.9877 16.8665 73.3553 16.3605C72.7228 15.8545 71.6178 15.7323 69.7292 15.7323H69.0749H68.4206C67.2975 15.7323 66.4642 16.086 65.9117 16.641C65.3593 17.196 65.0876 17.9522 65.0876 18.7572V22.708V26.6588H64.0263H62.9651V20.439V14.2198H62.9648Z" fill="#141A1F"/>
<path d="M80.4296 15.9281H79.0469H77.6641V15.0744V14.2207H79.0469H80.4296V12.7451V11.2695H81.4911H82.5526V12.7451V14.2207H86.7631H90.9736V15.0744V15.9281H86.7631H82.5526V19.0257V22.1234C82.5526 23.2818 82.7563 24.0381 83.2502 24.5046C83.744 24.9711 84.5279 25.1481 85.6883 25.1481H86.0213H86.3544C87.7622 25.1481 88.5773 25.0016 89.0408 24.5291C89.5042 24.0565 89.6154 23.2576 89.6154 21.953V21.4896V21.0263H90.4795H91.3437V21.7093V22.3923C91.3437 23.6361 91.2821 24.7516 90.6462 25.5566C90.0103 26.3613 88.7997 26.8552 86.5021 26.8552H85.9221H85.3422C83.3547 26.8552 82.1265 26.3795 81.3951 25.6509C80.6638 24.9223 80.4294 23.9406 80.4294 22.9286V19.4282V15.9281H80.4296Z" fill="#141A1F"/>
<path d="M94.0508 14.22H96.273H98.4951V15.403V16.5859H98.5197H98.5442C98.8159 15.5982 99.4329 14.9581 100.251 14.5648C101.069 14.1716 102.087 14.0254 103.162 14.0254C104.89 14.0254 106.093 14.3913 106.865 15.1867C107.637 15.9822 107.976 17.2078 107.976 18.9274C107.976 19.0862 107.97 19.2506 107.96 19.4305C107.95 19.6104 107.938 19.8053 107.926 20.0247H105.877H103.828C103.828 19.2321 103.735 18.6466 103.405 18.2594C103.075 17.8722 102.507 17.683 101.557 17.683C100.742 17.683 100.051 17.8358 99.563 18.1743C99.0753 18.5128 98.7911 19.0375 98.7911 19.781V23.2198V26.6585H96.4209H94.0508V20.4393V14.22Z" fill="#141A1F"/>
<path d="M109.727 22.293C109.727 20.5979 110.319 19.7016 111.486 19.2288C112.652 18.756 114.393 18.7072 116.689 18.7072C117.985 18.7072 118.991 18.7257 119.788 18.86C120.584 18.9943 121.17 19.2443 121.627 19.7071V19.1584V18.6098C121.627 18 121.534 17.5854 121.21 17.3233C120.886 17.0612 120.33 16.9519 119.405 16.9519H118.01H116.615C115.924 16.9519 115.48 16.9822 115.202 17.1223C114.924 17.2624 114.813 17.5122 114.788 17.9507H112.492H110.196C110.196 16.2684 110.616 15.2866 111.535 14.7259C112.455 14.1648 113.875 14.0244 115.874 14.0244H118.627H121.38C123.01 14.0244 124.257 14.4087 125.096 15.1589C125.936 15.9091 126.368 17.0249 126.368 18.4881V22.5732V26.6584H124.121H121.874V25.9511V25.2439C121.22 25.9148 120.769 26.3172 120.186 26.5519C119.603 26.7869 118.887 26.8541 117.702 26.8541H116.085H114.467C113.023 26.8662 111.838 26.7137 111.014 26.1924C110.19 25.6709 109.727 24.7805 109.727 23.3171V22.805V22.293H109.727ZM118.17 23.9266C119.8 23.9266 120.689 23.8046 121.17 23.5789C121.652 23.3532 121.726 23.0239 121.726 22.6093C121.726 22.1462 121.658 21.8294 121.263 21.6284C120.868 21.4271 120.146 21.3418 118.838 21.3418H117.788H116.739C115.739 21.3418 115.134 21.4516 114.779 21.6892C114.424 21.9268 114.319 22.2927 114.319 22.805C114.319 23.2072 114.48 23.4875 114.872 23.6674C115.264 23.8473 115.887 23.9266 116.813 23.9266H117.492H118.17Z" fill="#141A1F"/>
<path d="M128.762 19.3168C128.762 17.7319 128.947 16.4088 129.882 15.4819C130.817 14.5549 132.503 14.0244 135.503 14.0244H136.206H136.909C137.885 14.0244 138.872 14.1585 139.653 14.5365C140.434 14.9145 141.008 15.5364 141.156 16.512H141.18H141.205V12.7559V9H143.575H145.945V17.8293V26.6587H143.723H141.501V25.5121V24.3655H141.477H141.452C141.192 25.1338 140.767 25.7557 140.048 26.1853C139.329 26.6152 138.317 26.853 136.885 26.853H136.194H135.503C132.503 26.853 130.818 26.3228 129.882 25.3959C128.947 24.4692 128.762 23.1462 128.762 21.5607V20.4386V19.3168H128.762ZM133.354 21.1706C133.354 21.8657 133.41 22.4086 133.749 22.7774C134.088 23.1464 134.712 23.3416 135.847 23.3416H137.242H138.638C139.576 23.3416 140.292 23.2381 140.773 22.8996C141.255 22.5611 141.501 21.988 141.501 21.0489V20.4389V19.8288C141.501 18.8898 141.255 18.3166 140.773 17.9781C140.291 17.6397 139.576 17.5359 138.638 17.5359H137.242H135.847C134.712 17.5359 134.088 17.7311 133.749 18.1001C133.41 18.4691 133.354 19.0118 133.354 19.7069V20.4386V21.1706Z" fill="#141A1F"/>
<path d="M148.571 22.293C148.571 20.5979 149.163 19.7016 150.33 19.2288C151.496 18.756 153.237 18.7072 155.533 18.7072C156.829 18.7072 157.835 18.7257 158.632 18.86C159.428 18.9943 160.014 19.2443 160.471 19.7071V19.1584V18.6098C160.471 18 160.379 17.5854 160.054 17.3233C159.73 17.0612 159.175 16.9519 158.249 16.9519H156.854H155.459C154.767 16.9519 154.323 16.9822 154.045 17.1223C153.767 17.2624 153.656 17.5122 153.631 17.9507H151.336H149.04C149.04 16.2684 149.46 15.2866 150.379 14.7259C151.299 14.1651 152.718 14.0244 154.718 14.0244H157.471H160.224C161.853 14.0244 163.1 14.4087 163.94 15.1589C164.779 15.9091 165.211 17.0249 165.211 18.4881V22.5732V26.6584H162.964H160.717V25.9511V25.2439C160.063 25.9148 159.612 26.3172 159.029 26.5519C158.446 26.7866 157.73 26.8541 156.544 26.8541H154.928H153.311C151.866 26.8662 150.681 26.7137 149.857 26.1924C149.033 25.6709 148.57 24.7805 148.57 23.3171V22.805V22.293H148.571ZM157.014 23.9266C158.644 23.9266 159.532 23.8046 160.014 23.5789C160.496 23.3532 160.57 23.0239 160.57 22.6093C160.57 22.1462 160.502 21.8294 160.106 21.6284C159.711 21.4274 158.989 21.3418 157.681 21.3418H156.632H155.582C154.582 21.3418 153.977 21.4516 153.622 21.6892C153.267 21.9268 153.162 22.2927 153.162 22.805C153.162 23.2072 153.323 23.4875 153.715 23.6674C154.107 23.8473 154.73 23.9266 155.656 23.9266H156.335H157.014Z" fill="#141A1F"/>
<path d="M168.25 14.22H170.472H172.695V15.403V16.5859H172.719H172.744C173.016 15.5982 173.633 14.9581 174.451 14.5648C175.269 14.1716 176.287 14.0254 177.361 14.0254C179.089 14.0254 180.293 14.3913 181.064 15.1867C181.836 15.9822 182.176 17.2078 182.176 18.9274C182.176 19.0862 182.169 19.2506 182.16 19.4305C182.15 19.6104 182.137 19.8053 182.125 20.0247H180.076H178.027C178.027 19.2321 177.935 18.6466 177.605 18.2594C177.274 17.8722 176.706 17.683 175.756 17.683C174.941 17.683 174.25 17.8358 173.762 18.1743C173.274 18.5128 172.99 19.0375 172.99 19.781V23.2198V26.6585H170.62H168.25V20.4393V14.22H168.25Z" fill="#141A1F"/>
<path d="M51.5337 15.7051H49.3734H47.2131C45.9785 15.7051 44.9293 15.8452 44.1886 16.3483C43.4478 16.8514 43.0156 17.7172 43.0156 19.1683V20.4124V21.6564C43.0156 23.1075 43.4478 23.9734 44.1886 24.4762C44.9293 24.9793 45.9788 25.1194 47.2131 25.1194H49.3734H51.5337C52.768 25.1194 53.8169 24.9793 54.5576 24.4762C55.2981 23.9734 55.7301 23.1075 55.7301 21.6564V20.4124V19.1683C55.7301 17.7172 55.2981 16.8514 54.5576 16.3483C53.8172 15.8452 52.768 15.7051 51.5337 15.7051Z" fill="#C41230"/>
<path d="M51.3163 12.209H49.3744H47.4325C44.8597 12.209 42.6343 12.513 41.0523 13.472C39.4701 14.4311 38.5312 16.0447 38.5312 18.6642V20.4106V22.157C38.5312 24.7768 39.4701 26.3907 41.0523 27.3495C42.6343 28.3086 44.8597 28.6125 47.4325 28.6125H49.3744H51.3163C53.8889 28.6125 56.1145 28.3086 57.6968 27.3495C59.279 26.3904 60.2184 24.7766 60.2184 22.157V20.4106V18.6642C60.2184 16.0447 59.2793 14.4308 57.6968 13.472C56.1145 12.513 53.8889 12.209 51.3163 12.209ZM57.8554 21.7766C57.8554 23.8257 57.1208 25.0874 55.8836 25.8373C54.6461 26.5869 52.9058 26.8245 50.8937 26.8245H49.3744H47.8551C45.8433 26.8245 44.1027 26.5869 42.8652 25.8373C41.6277 25.0876 40.8931 23.8257 40.8931 21.7766V20.4109V19.0451C40.8931 16.9966 41.6277 15.7347 42.8652 14.9847C44.1027 14.2348 45.8433 13.997 47.8551 13.997H49.3744H50.8937C52.9058 13.997 54.6461 14.2348 55.8836 14.9847C57.1211 15.7347 57.8554 16.9966 57.8554 19.0451V20.4109V21.7766Z" fill="#C41230"/>
</svg>
