<svg width="133" height="40" viewBox="0 0 133 40" fill="none" xmlns="http://www.w3.org/2000/svg">
<g clip-path="url(#clip0_4519_20343)">
<path d="M0 26.7626C0 26.5219 0.0427781 26.2671 0.1283 26.0406C0.213839 25.8141 0.35638 25.6017 0.527441 25.4318C0.698502 25.2618 0.912323 25.1204 1.1404 25.0211C1.36848 24.922 1.61081 24.8797 1.86741 24.8797C4.7469 24.8797 4.5901 28.8153 7.84021 28.8153C9.40824 28.8153 10.3348 28.0793 10.3348 26.7342C10.3348 25.0637 8.80954 24.1435 6.18665 22.9968C3.09333 21.6234 0.584461 20.2502 0.584461 17.0223C0.584461 13.5396 3.72054 11.5293 7.9685 11.5293C12.4873 11.5293 15.324 13.4547 15.324 15.5641C15.324 16.5976 14.6113 17.4611 13.5707 17.4611C10.6627 17.4611 10.9905 13.9077 7.66915 13.9077C6.28643 13.9077 5.5024 14.6864 5.5024 15.7199C5.5024 17.0223 6.05835 17.716 9.97844 19.4998C12.9292 20.8307 15.3525 22.388 15.3525 25.5734C15.3525 28.7588 12.4446 31.1654 7.69766 31.1654C2.49461 31.1796 0 28.7304 0 26.7626Z" fill="black"/>
<path d="M17.45 36.9978C17.45 36.5589 17.7921 36.3324 18.2769 35.7802C18.6902 35.3414 18.8042 34.8176 18.8042 33.5575V17.489C18.8042 16.4839 18.5477 15.9317 17.9775 15.5212C17.1222 14.8133 16.5234 14.785 16.5234 13.9639C16.5234 12.7463 20.3296 11.5146 22.1969 11.5146C23.0238 11.5146 23.6082 12.0385 23.6082 13.1852V14.0063H23.7649C25.0336 12.5198 27.2289 11.5146 29.5097 11.5146C34.4704 11.5146 38.1339 14.9266 38.1339 21.269C38.1339 26.9037 34.67 31.1649 29.3244 31.1649C27.015 31.1649 25.4043 30.457 24.1784 29.5369V33.1752C24.1784 34.0247 24.663 34.3928 25.1905 34.6619C25.8605 35.0016 26.4592 35.1007 26.4592 35.8085C26.4592 36.9552 24.2925 37.4084 22.3966 37.7056C20.0302 38.0737 17.45 38.3286 17.45 36.9978ZM32.5745 23.4209C32.6173 19.2728 30.7071 14.5585 27.6852 14.5302C25.8176 14.5302 24.1784 16.0874 24.1784 18.8624V21.8636C24.1784 25.3887 26.2739 28.645 28.8824 28.645C31.1062 28.645 32.4889 26.8754 32.5745 23.4209Z" fill="black"/>
<path d="M39.4839 29.509C39.4839 28.3623 41.3512 28.2916 41.3512 26.805V17.2064C41.3941 16.2861 41.0519 15.8331 40.6813 15.5783C39.6691 14.9837 39.1133 14.7996 39.1133 14.021C39.1133 12.945 42.9194 11.5718 44.6298 11.5718C45.9414 11.5718 46.2692 12.1239 46.3119 13.4264V15.1394H46.4545C47.4667 12.6902 49.4053 11.5293 51.0018 11.5293C52.9832 11.5293 53.9098 12.7185 53.9098 14.3466C53.9098 16.2721 52.7553 17.2346 51.0732 17.2346C50.1039 17.2346 49.7617 16.9374 48.7638 16.9374C47.6805 16.9374 46.7539 17.532 46.7539 20.236V26.7908C46.7539 28.2774 48.6213 28.3481 48.6213 29.495C48.6213 30.3868 47.8372 30.6133 46.6827 30.6133H41.4226C40.2679 30.6133 39.4839 30.401 39.4839 29.509Z" fill="black"/>
<path d="M53.9844 21.6801C54.0271 15.6349 58.7169 11.5576 64.5045 11.5576C70.1351 11.5576 74.6254 15.0403 74.6254 21.043C74.6254 27.0456 70.1493 31.1654 64.1766 31.1654C58.3178 31.1796 54.0271 27.4705 53.9844 21.6801ZM68.838 23.5772C68.838 19.5707 67.0133 14.021 63.421 14.021C60.9977 14.021 59.7576 15.9889 59.7576 19.061C59.7576 23.1382 61.5821 28.702 65.1744 28.702C67.5265 28.6879 68.838 26.7201 68.838 23.5772Z" fill="black"/>
<path d="M77.1491 22.388V16.3144C77.1777 16.1021 77.135 15.8898 77.0351 15.7057C76.9497 15.5216 76.7927 15.3517 76.6218 15.2385C75.6952 14.7147 75.125 14.5306 75.125 13.752C75.125 13.3839 75.4244 13.0441 76.0231 12.7468C77.9331 11.9257 79.9431 11.5293 80.6844 11.5293C82.1812 11.5293 82.5518 12.1947 82.5518 13.752V22.0482C82.5518 24.9079 83.2217 26.8617 85.5737 26.8617C88.2253 26.8617 89.3087 24.7804 89.3087 22.0057L89.3514 16.3002C89.3514 16.0879 89.3087 15.8898 89.2231 15.6915C89.1375 15.5075 88.995 15.3376 88.824 15.2102C87.8546 14.6864 87.2987 14.5023 87.2987 13.7237C87.2987 13.3556 87.5981 13.0583 88.1539 12.761C89.6507 11.9823 92.0027 11.501 92.8153 11.501C94.3406 11.501 94.6826 12.2088 94.7255 13.7237L94.6826 25.2194C94.6826 26.1396 95.0249 26.5501 95.3954 26.8475C96.3647 27.3996 96.9634 27.6261 96.9634 28.4048C96.9634 29.4808 93.1146 30.854 91.404 30.854C90.0927 30.854 89.7648 30.2594 89.7648 28.9994V27.3714H89.5795C88.1254 29.7497 86.03 30.8114 83.7207 30.8114C78.3039 30.8398 77.1491 27.2439 77.1491 22.388Z" fill="black"/>
<path d="M99.2686 22.7987V14.5734H97.9287C97.1874 14.5734 96.6172 14.2053 96.6172 13.3842C96.6172 12.3507 97.2871 12.0817 98.114 12.0817H98.456C102.219 12.0817 101.107 5.71094 103.673 5.71094C104.614 5.71094 104.757 6.26307 104.757 7.6788V12.0959H108.634C109.461 12.0959 110.045 12.3507 110.045 13.2851C110.045 14.2053 109.603 14.5876 108.549 14.5876H104.785V24.9365C104.785 27.2017 104.742 28.7874 106.382 28.7874C107.608 28.7874 108.092 27.8247 108.092 25.8285C108.092 24.4128 108.577 23.4501 109.96 23.4501C111.114 23.4501 111.784 24.1863 111.784 25.8285C111.784 27.9803 110.473 31.2082 105.698 31.2082C99.6391 31.1799 99.2686 26.5787 99.2686 22.7987Z" fill="black"/>
<path d="M131.161 26.8476V13.6813C131.118 12.5487 130.619 11.8125 129.022 11.8125C127.369 11.8125 123.605 12.8743 123.605 14.0494C123.605 14.7855 124.09 14.8846 124.931 15.5076C125.487 15.904 125.815 16.3854 125.815 17.4895V26.8617C125.815 28.3198 123.976 28.4049 123.976 29.5374C123.976 30.4152 124.746 30.6417 125.886 30.6417H131.089C132.23 30.6417 132.999 30.4152 132.999 29.5374C132.999 28.3907 131.161 28.3058 131.161 26.8476Z" fill="black"/>
<path d="M123.108 2.00098C117.777 2.00098 114.555 5.3421 114.455 10.7077V12.081H113.301C112.403 12.081 111.918 12.5623 111.918 13.2985C111.918 13.9639 112.331 14.5585 113.187 14.5585H114.384V26.8329C114.384 28.3195 112.517 28.3477 112.517 29.5085C112.517 30.4005 113.301 30.627 114.455 30.627H119.715C120.87 30.627 121.654 30.4005 121.654 29.5085C121.654 28.3618 119.787 28.2911 119.787 26.8045V14.516H121.283C122.353 14.516 122.795 14.1621 122.795 13.2419C122.795 12.3641 122.21 12.0668 121.326 12.0668L119.53 12.081C119.345 11.1891 119.259 10.283 119.274 9.37694C119.274 5.37042 120.998 4.22368 122.908 4.22368C125.104 4.22368 125.702 5.59694 125.973 7.22502C126.23 8.55581 126.757 9.56098 128.439 9.56098C129.865 9.56098 130.905 8.71154 130.905 7.29581C130.863 4.70502 128.226 2.00098 123.108 2.00098Z" fill="black"/>
</g>
<defs>
<clipPath id="clip0_4519_20343">
<rect width="133" height="40" fill="white" transform="translate(0 0.000976562)"/>
</clipPath>
</defs>
</svg>
