<svg width="216" height="28" viewBox="0 0 216 28" fill="none" xmlns="http://www.w3.org/2000/svg">
<g clip-path="url(#clip0_631_8023)">
<path d="M14.9107 4.17221C11.1831 4.41161 0.885267 7.82411 5.12386 13.992C6.98396 16.2625 9.86234 16.9856 11.4311 19.5761C12.3606 21.6097 11.6175 23.3269 10.1166 24.6961C6.82473 24.6729 1.91591 18.7712 0.614955 15.7007C-0.768694 12.4348 0.614955 1.3948 0.614955 1.3948C0.614955 1.3948 4.47091 0 10.1376 0C15.181 0 19.659 1.3948 19.659 1.3948C19.659 1.3948 20.8341 10.7713 19.9355 14.7981C14.8958 11.8693 8.61815 10.2156 11.2151 7.01309C11.8817 6.07752 12.8123 5.75388 13.7726 5.27755C14.1046 5.11264 15.7364 4.74748 14.9107 4.17221Z" fill="black"/>
<path d="M215.739 7.61719L207.079 28.0001H203.317L206.347 21.1059L200.742 7.61719H204.706L208.316 17.2841L211.977 7.61719H215.739Z" fill="black"/>
<path d="M197.947 10.4896V17.1839C197.947 17.6502 198.056 17.9916 198.275 18.208C198.511 18.4079 198.898 18.5078 199.437 18.5078H201.078V21.4553H198.856C195.877 21.4553 194.387 20.0232 194.387 17.1589V10.4896H192.721V7.61696H194.387V4.19482H197.947V7.61696H201.078V10.4896H197.947Z" fill="black"/>
<path d="M189.861 5.96864C189.238 5.96864 188.716 5.77713 188.295 5.3941C187.891 4.99445 187.689 4.50317 187.689 3.92034C187.689 3.3375 187.891 2.85457 188.295 2.47156C188.716 2.0719 189.238 1.87207 189.861 1.87207C190.483 1.87207 190.997 2.0719 191.401 2.47156C191.821 2.85457 192.032 3.3375 192.032 3.92034C192.032 4.50317 191.821 4.99445 191.401 5.3941C190.997 5.77713 190.483 5.96864 189.861 5.96864ZM191.603 7.61722V21.4556H188.068V7.61722H191.603Z" fill="black"/>
<path d="M182.658 9.76553C183.112 9.03279 183.701 8.4583 184.425 8.04196C185.166 7.62567 186.007 7.41748 186.95 7.41748V11.0894H186.015C184.905 11.0894 184.063 11.3475 183.491 11.8638C182.935 12.38 182.658 13.2792 182.658 14.5615V21.4557H179.123V7.61731H182.658V9.76553Z" fill="black"/>
<path d="M176.897 7.61719V21.4556H173.337V19.7071C172.883 20.3065 172.285 20.7811 171.545 21.1309C170.821 21.4639 170.03 21.6304 169.171 21.6304C168.077 21.6304 167.109 21.4056 166.268 20.956C165.426 20.4897 164.762 19.8153 164.274 18.9327C163.802 18.0334 163.566 16.9677 163.566 15.7354V7.61719H167.101V15.2358C167.101 16.3349 167.379 17.1842 167.934 17.7837C168.489 18.3665 169.247 18.6579 170.207 18.6579C171.183 18.6579 171.948 18.3665 172.504 17.7837C173.06 17.1842 173.337 16.3349 173.337 15.2358V7.61719H176.897Z" fill="black"/>
<path d="M148.859 14.5366C148.859 13.1044 149.154 11.8555 149.743 10.7897C150.332 9.70727 151.148 8.87464 152.192 8.29179C153.236 7.6923 154.43 7.39258 155.777 7.39258C157.511 7.39258 158.941 7.82555 160.069 8.69149C161.214 9.54076 161.98 10.7397 162.367 12.2885H158.554C158.352 11.6889 158.007 11.2227 157.519 10.8896C157.048 10.5399 156.459 10.3651 155.752 10.3651C154.742 10.3651 153.943 10.7314 153.353 11.4641C152.764 12.1802 152.47 13.2043 152.47 14.5366C152.47 15.8521 152.764 16.8763 153.353 17.609C153.943 18.3251 154.742 18.6831 155.752 18.6831C157.183 18.6831 158.117 18.0503 158.554 16.7847H162.367C161.98 18.2834 161.214 19.4741 160.069 20.3567C158.924 21.2392 157.494 21.6806 155.777 21.6806C154.43 21.6806 153.236 21.3891 152.192 20.8063C151.148 20.2068 150.332 19.3741 149.743 18.3084C149.154 17.226 148.859 15.9687 148.859 14.5366Z" fill="black"/>
<path d="M148.45 14.2368C148.45 14.7364 148.417 15.186 148.349 15.5857H138.124C138.209 16.5848 138.562 17.3675 139.185 17.9337C139.808 18.4999 140.573 18.783 141.482 18.783C142.795 18.783 143.729 18.2251 144.285 17.1094H148.097C147.693 18.4416 146.919 19.5407 145.774 20.4066C144.63 21.2559 143.224 21.6806 141.558 21.6806C140.212 21.6806 139 21.3891 137.922 20.8063C136.862 20.2068 136.029 19.3658 135.423 18.2834C134.834 17.201 134.539 15.952 134.539 14.5366C134.539 13.1044 134.834 11.8471 135.423 10.7647C136.012 9.68232 136.837 8.84969 137.897 8.26684C138.958 7.68398 140.178 7.39258 141.558 7.39258C142.888 7.39258 144.074 7.67567 145.118 8.24184C146.178 8.80806 146.995 9.6157 147.567 10.6648C148.156 11.6973 148.45 12.8879 148.45 14.2368ZM144.79 13.2377C144.773 12.3384 144.445 11.6223 143.805 11.0894C143.165 10.5399 142.383 10.2651 141.457 10.2651C140.582 10.2651 139.841 10.5316 139.235 11.0645C138.646 11.5807 138.284 12.3051 138.149 13.2377H144.79Z" fill="black"/>
<path d="M127.41 21.6305C126.182 21.6305 125.07 21.4223 124.077 21.006C123.101 20.5897 122.327 19.9902 121.755 19.2075C121.182 18.4248 120.888 17.5006 120.871 16.4349H124.658C124.709 17.1509 124.961 17.7171 125.415 18.1334C125.887 18.5497 126.527 18.7579 127.334 18.7579C128.159 18.7579 128.807 18.5664 129.278 18.1834C129.75 17.7837 129.985 17.2675 129.985 16.6347C129.985 16.1185 129.825 15.6938 129.506 15.3607C129.186 15.0277 128.782 14.7696 128.294 14.5864C127.823 14.3866 127.166 14.1701 126.324 13.9369C125.18 13.6039 124.246 13.2792 123.522 12.9628C122.815 12.6297 122.201 12.1385 121.679 11.489C121.174 10.8229 120.921 9.94031 120.921 8.84123C120.921 7.80877 121.182 6.90952 121.704 6.14351C122.226 5.37751 122.958 4.79465 123.901 4.39499C124.843 3.97867 125.921 3.77051 127.133 3.77051C128.95 3.77051 130.423 4.2118 131.551 5.09438C132.695 5.96032 133.326 7.17597 133.444 8.74134H129.556C129.522 8.14185 129.261 7.65057 128.774 7.26755C128.302 6.86789 127.671 6.66806 126.88 6.66806C126.19 6.66806 125.634 6.84293 125.214 7.19265C124.81 7.54232 124.608 8.05023 124.608 8.71634C124.608 9.18262 124.759 9.57396 125.062 9.89036C125.382 10.1901 125.769 10.4399 126.224 10.6397C126.695 10.8229 127.351 11.0394 128.193 11.2892C129.337 11.6222 130.271 11.9553 130.995 12.2884C131.719 12.6214 132.342 13.121 132.863 13.7871C133.385 14.4532 133.646 15.3275 133.646 16.4099C133.646 17.3424 133.402 18.2084 132.914 19.0077C132.426 19.807 131.711 20.4481 130.768 20.9311C129.825 21.3973 128.706 21.6305 127.41 21.6305Z" fill="black"/>
<path d="M117.595 21.6307C116.955 21.6307 116.425 21.4392 116.004 21.0562C115.601 20.6566 115.398 20.1653 115.398 19.5825C115.398 18.9996 115.601 18.5167 116.004 18.1337C116.425 17.734 116.955 17.5342 117.595 17.5342C118.218 17.5342 118.731 17.734 119.135 18.1337C119.539 18.5167 119.741 18.9996 119.741 19.5825C119.741 20.1653 119.539 20.6566 119.135 21.0562C118.731 21.4392 118.218 21.6307 117.595 21.6307Z" fill="black"/>
<path d="M108.208 7.41748C109.925 7.41748 111.305 7.94207 112.348 8.99116C113.409 10.0236 113.939 11.4724 113.939 13.3375V21.4557H110.404V13.8121C110.404 12.7297 110.127 11.9054 109.571 11.3392C109.016 10.7564 108.259 10.4649 107.299 10.4649C106.34 10.4649 105.574 10.7564 105.001 11.3392C104.446 11.9054 104.168 12.7297 104.168 13.8121V21.4557H100.634V13.8121C100.634 12.7297 100.356 11.9054 99.8004 11.3392C99.2452 10.7564 98.4878 10.4649 97.5285 10.4649C96.5521 10.4649 95.778 10.7564 95.2057 11.3392C94.6501 11.9054 94.3725 12.7297 94.3725 13.8121V21.4557H90.8379V7.61731H94.3725V9.29093C94.827 8.70807 95.4076 8.25011 96.1147 7.91707C96.8384 7.584 97.6292 7.41748 98.4878 7.41748C99.5819 7.41748 100.558 7.65062 101.416 8.1169C102.275 8.56651 102.94 9.21599 103.411 10.0653C103.865 9.26593 104.522 8.62482 105.38 8.1419C106.255 7.65894 107.198 7.41748 108.208 7.41748Z" fill="black"/>
<path d="M74.0801 14.4866C74.0801 13.0878 74.3577 11.8471 74.9133 10.7647C75.4855 9.68232 76.2513 8.84969 77.2106 8.26684C78.187 7.68398 79.2724 7.39258 80.4673 7.39258C81.5111 7.39258 82.42 7.60073 83.1941 8.01702C83.9853 8.43335 84.6162 8.9579 85.0878 9.5907V7.61736H88.6474V21.4557H85.0878V19.4325C84.6333 20.0819 84.0019 20.6231 83.1941 21.0561C82.4029 21.4724 81.4857 21.6806 80.4423 21.6806C79.2641 21.6806 78.187 21.3808 77.2106 20.7813C76.2513 20.1818 75.4855 19.3408 74.9133 18.2584C74.3577 17.1593 74.0801 15.9021 74.0801 14.4866ZM85.0878 14.5366C85.0878 13.6873 84.9192 12.9629 84.5829 12.3634C84.2462 11.7472 83.7918 11.281 83.2195 10.9646C82.6472 10.6315 82.033 10.465 81.3762 10.465C80.7199 10.465 80.1139 10.6232 79.5587 10.9396C79.0031 11.256 78.5487 11.7222 78.1953 12.3384C77.8586 12.9379 77.6901 13.654 77.6901 14.4866C77.6901 15.3192 77.8586 16.0519 78.1953 16.6847C78.5487 17.3009 79.0031 17.7755 79.5587 18.1085C80.131 18.4416 80.7365 18.6081 81.3762 18.6081C82.033 18.6081 82.6472 18.4499 83.2195 18.1335C83.7918 17.8005 84.2462 17.3342 84.5829 16.7347C84.9192 16.1186 85.0878 15.3858 85.0878 14.5366Z" fill="black"/>
<path d="M73.6712 14.2368C73.6712 14.7364 73.6375 15.186 73.57 15.5857H63.3448C63.4293 16.5848 63.7826 17.3675 64.4052 17.9337C65.0283 18.4999 65.794 18.783 66.703 18.783C68.0156 18.783 68.95 18.2251 69.5052 17.1094H73.3174C72.9137 18.4416 72.1396 19.5407 70.9947 20.4066C69.8502 21.2559 68.4447 21.6806 66.7787 21.6806C65.4319 21.6806 64.22 21.3891 63.1429 20.8063C62.0825 20.2068 61.2493 19.3658 60.6437 18.2834C60.0544 17.201 59.7598 15.952 59.7598 14.5366C59.7598 13.1044 60.0544 11.8471 60.6437 10.7647C61.2326 9.68232 62.0575 8.84969 63.118 8.26684C64.178 7.68398 65.3982 7.39258 66.7787 7.39258C68.1084 7.39258 69.295 7.67567 70.3384 8.24184C71.3988 8.80806 72.2153 9.6157 72.7876 10.6648C73.3765 11.6973 73.6712 12.8879 73.6712 14.2368ZM70.0104 13.2377C69.9933 12.3384 69.6654 11.6223 69.0257 11.0894C68.386 10.5399 67.6032 10.2651 66.6776 10.2651C65.8024 10.2651 65.062 10.5316 64.456 11.0645C63.8667 11.5807 63.505 12.3051 63.3702 13.2377H70.0104Z" fill="black"/>
<path d="M55.2573 9.76553C55.7118 9.03279 56.3011 8.4583 57.0249 8.04196C57.7652 7.62567 58.6068 7.41748 59.5494 7.41748V11.0894H58.6151C57.5043 11.0894 56.6628 11.3475 56.0905 11.8638C55.5353 12.38 55.2573 13.2792 55.2573 14.5615V21.4557H51.7227V7.61731H55.2573V9.76553Z" fill="black"/>
<path d="M47.3124 10.4896V17.1839C47.3124 17.6502 47.4218 17.9916 47.6403 18.208C47.8763 18.4079 48.2634 18.5078 48.8019 18.5078H50.4429V21.4553H48.2213C45.2419 21.4553 43.7523 20.0232 43.7523 17.1589V10.4896H42.0859V7.61696H43.7523V4.19482H47.3124V7.61696H50.4429V10.4896H47.3124Z" fill="black"/>
<path d="M35.1601 21.6305C33.9314 21.6305 32.8205 21.4223 31.8275 21.006C30.8513 20.5897 30.077 19.9902 29.5047 19.2075C28.9325 18.4248 28.6379 17.5006 28.6211 16.4349H32.4082C32.4586 17.1509 32.7111 17.7171 33.1656 18.1334C33.6369 18.5497 34.2765 18.7579 35.0844 18.7579C35.9091 18.7579 36.5571 18.5664 37.0284 18.1834C37.4996 17.7837 37.7353 17.2675 37.7353 16.6347C37.7353 16.1185 37.5754 15.6938 37.2556 15.3607C36.9358 15.0277 36.5319 14.7696 36.0438 14.5864C35.5725 14.3866 34.9161 14.1701 34.0745 13.9369C32.9299 13.6039 31.9958 13.2792 31.272 12.9628C30.5651 12.6297 29.9508 12.1385 29.429 11.489C28.924 10.8229 28.6716 9.94031 28.6716 8.84123C28.6716 7.80877 28.9325 6.90952 29.4543 6.14351C29.976 5.37751 30.7082 4.79465 31.6508 4.39499C32.5933 3.97867 33.6705 3.77051 34.8824 3.77051C36.7002 3.77051 38.1729 4.2118 39.3006 5.09438C40.4452 5.96032 41.0763 7.17597 41.1942 8.74134H37.3061C37.2725 8.14185 37.0115 7.65057 36.5234 7.26755C36.0522 6.86789 35.421 6.66806 34.6299 6.66806C33.9398 6.66806 33.3844 6.84293 32.9636 7.19265C32.5597 7.54232 32.3577 8.05023 32.3577 8.71634C32.3577 9.18262 32.5091 9.57396 32.8121 9.89036C33.1319 10.1901 33.519 10.4399 33.9735 10.6397C34.4448 10.8229 35.1012 11.0394 35.9427 11.2892C37.0873 11.6222 38.0214 11.9553 38.7452 12.2884C39.469 12.6214 40.0917 13.121 40.6135 13.7871C41.1352 14.4532 41.3961 15.3275 41.3961 16.4099C41.3961 17.3424 41.1521 18.2084 40.664 19.0077C40.1758 19.807 39.4605 20.4481 38.518 20.9311C37.5754 21.3973 36.4561 21.6305 35.1601 21.6305Z" fill="black"/>
</g>
<defs>
<clipPath id="clip0_631_8023">
<rect width="216" height="28" fill="white"/>
</clipPath>
</defs>
</svg>
