<svg width="202" height="40" viewBox="0 0 202 40" fill="none" xmlns="http://www.w3.org/2000/svg">
<g clip-path="url(#clip0_4530_12308)">
<path fill-rule="evenodd" clip-rule="evenodd" d="M22.7934 26.8052C20.3151 29.2848 17.685 31.4355 15.0803 33.156C15.3837 33.1813 15.6872 33.1813 15.9907 33.1813C23.2739 33.1813 29.1662 27.286 29.1662 19.999C29.1662 19.6953 29.1662 19.3917 29.141 19.0881C27.4213 21.6942 25.2717 24.3256 22.7934 26.8052ZM30.7601 5.21203C28.7299 3.17982 24.5682 3.71328 19.3406 6.73619C19.1884 6.81239 19.0869 6.96481 19.0615 7.11723C18.6555 7.01561 18.2494 6.93941 17.8434 6.8886C17.2344 6.81239 16.6253 6.76159 15.9909 6.76159C8.68247 6.76159 2.76973 12.6804 2.76973 19.9964C2.76973 20.6314 2.82049 21.2411 2.89662 21.8507C2.94737 22.2572 3.0235 22.6636 3.12501 23.0701C2.97275 23.1209 2.82049 23.2225 2.74436 23.3495C-0.275451 28.5824 -0.833735 32.7485 1.22177 34.7807C2.03381 35.5936 3.17576 36 4.59685 36C6.75385 36 9.49452 35.0855 12.6412 33.2565C15.7372 31.4529 18.96 28.9381 21.9544 25.9406C24.9235 22.9685 27.4611 19.7423 29.2629 16.6178C32.2573 11.4103 32.8156 7.24424 30.7601 5.21203ZM28.1103 15.9134C26.3571 18.9375 23.9179 22.0887 20.9959 24.9858C18.0739 27.9083 14.9487 30.348 11.9251 32.1015C7.35156 34.7444 3.56569 35.4052 1.99037 33.8296C0.49127 32.3048 1.05026 28.7215 3.43865 24.3759C3.61651 24.8842 3.81978 25.367 4.07386 25.8499C5.34429 28.3912 7.42778 30.475 9.96863 31.7457C10.4006 31.517 10.8579 31.2883 11.3153 31.0341C14.2373 29.3569 17.2863 26.9426 20.1066 24.1218C22.9524 21.2755 25.3407 18.2514 27.0177 15.3289C27.2972 14.8714 27.5259 14.414 27.7291 13.982C26.4587 11.4407 24.3752 9.35682 21.8344 8.08617C21.3516 7.85746 20.8689 7.62874 20.3607 7.45085C24.7055 5.06202 28.2881 4.47753 29.8126 6.00231C31.388 7.5525 30.7273 11.3645 28.1103 15.9134Z" fill="#333333"/>
<path fill-rule="evenodd" clip-rule="evenodd" d="M41.5574 30.6373C40.4082 30.6373 39.2635 30.4262 38.1233 30.0041C36.9832 29.5819 35.9642 28.9486 35.0664 28.1043L37.3288 25.3826C37.9573 25.9215 38.653 26.3617 39.4162 26.703C40.1793 27.0443 40.9289 27.215 41.6651 27.215C42.4911 27.215 43.106 27.0623 43.51 26.7569C43.914 26.4515 44.116 26.0383 44.116 25.5173C44.116 25.2478 44.0577 25.0143 43.941 24.8167C43.8243 24.6191 43.6537 24.4439 43.4292 24.2912C43.2048 24.1385 42.9355 23.9948 42.6212 23.8601L41.5843 23.4154L39.295 22.4453C38.8461 22.2657 38.4106 22.0321 37.9887 21.7447C37.5667 21.4572 37.1897 21.1204 36.8575 20.7342C36.5253 20.3479 36.2605 19.8988 36.0629 19.3868C35.8654 18.8748 35.7667 18.2954 35.7667 17.6487C35.7667 16.9301 35.9193 16.2519 36.2245 15.6142C36.5298 14.9764 36.9607 14.4195 37.5173 13.9434C38.074 13.4674 38.7338 13.0946 39.497 12.8251C40.2601 12.5556 41.0995 12.4209 42.0152 12.4209C43.0387 12.4209 44.0487 12.6185 45.0452 13.0137C46.0418 13.409 46.9171 13.9838 47.6712 14.7384L45.6512 17.2445C45.0767 16.7954 44.5021 16.4495 43.9275 16.207C43.3529 15.9645 42.7155 15.8432 42.0152 15.8432C41.3329 15.8432 40.7898 15.9824 40.3858 16.2609C39.9818 16.5394 39.7798 16.9301 39.7798 17.4331C39.7798 17.7026 39.8471 17.9316 39.9818 18.1203C40.1164 18.3089 40.305 18.4796 40.5474 18.6323C40.7898 18.785 41.0726 18.9287 41.3958 19.0634C41.719 19.1982 42.0691 19.3464 42.4462 19.5081L44.7086 20.4243C45.7859 20.8554 46.6343 21.4483 47.2538 22.2028C47.8733 22.9573 48.183 23.9544 48.183 25.194C48.183 25.9305 48.0348 26.6267 47.7386 27.2824C47.4423 27.9381 47.0114 28.513 46.4458 29.007C45.8802 29.501 45.1844 29.8963 44.3584 30.1927C43.5325 30.4891 42.5988 30.6373 41.5574 30.6373ZM58.0945 30.6373C55.8141 30.6373 54.0724 29.9636 52.8694 28.6163C51.6664 27.2689 51.0649 25.1221 51.0649 22.1758V12.7443H55.051V22.5801C55.051 24.3047 55.3114 25.5083 55.8321 26.191C56.3528 26.8737 57.1069 27.215 58.0945 27.215C59.082 27.215 59.8451 26.8737 60.3838 26.191C60.9225 25.5083 61.1918 24.3047 61.1918 22.5801V12.7443H65.0164V22.1758C65.0164 25.1221 64.4283 27.2689 63.2522 28.6163C62.0761 29.9636 60.3569 30.6373 58.0945 30.6373ZM69.0833 30.314V12.7443H75.1164C76.086 12.7443 76.9928 12.8386 77.8367 13.0272C78.6806 13.2158 79.4168 13.5302 80.0452 13.9704C80.6737 14.4105 81.1719 14.9944 81.54 15.722C81.9081 16.4495 82.0922 17.3433 82.0922 18.4032C82.0922 19.4272 81.9081 20.3165 81.54 21.071C81.1719 21.8255 80.6737 22.4453 80.0452 22.9304C79.4168 23.4154 78.6896 23.7747 77.8636 24.0083C77.0376 24.2418 76.1578 24.3586 75.2241 24.3586H73.0425V30.314H69.0833ZM73.0425 21.2057H74.9817C77.1364 21.2057 78.2137 20.2716 78.2137 18.4032C78.2137 17.487 77.9265 16.8403 77.3519 16.463C76.7773 16.0857 75.9513 15.8971 74.874 15.8971H73.0425V21.2057ZM85.1356 30.314V12.7443H96.1245V16.0857H89.0948V19.6158H95.0741V22.9304H89.0948V26.9725H96.3938V30.314H85.1356ZM99.8951 30.314V12.7443H106.224C107.158 12.7443 108.034 12.8341 108.851 13.0137C109.667 13.1934 110.381 13.4943 110.992 13.9165C111.602 14.3387 112.087 14.9001 112.446 15.6007C112.805 16.3013 112.985 17.1726 112.985 18.2146C112.985 19.5081 112.702 20.5725 112.136 21.4078C111.571 22.2432 110.812 22.8675 109.861 23.2807L113.847 30.314H109.403L106.036 23.9813H103.854V30.314H99.8951ZM103.854 20.8285H105.901C106.943 20.8285 107.737 20.6084 108.285 20.1683C108.833 19.7281 109.106 19.0769 109.106 18.2146C109.106 17.3523 108.833 16.7504 108.285 16.4091C107.737 16.0678 106.943 15.8971 105.901 15.8971H103.854V20.8285Z" fill="#333333"/>
<path fill-rule="evenodd" clip-rule="evenodd" d="M122.445 30.826C121.45 30.826 120.531 30.6059 119.688 30.1657C118.845 29.7256 118.119 29.1013 117.512 28.2929C116.905 27.4845 116.433 26.5099 116.096 25.3691C115.758 24.2283 115.59 22.9573 115.59 21.5561C115.59 20.1548 115.758 18.8928 116.096 17.77C116.433 16.6471 116.905 15.686 117.512 14.8866C118.119 14.0871 118.845 13.4763 119.688 13.0542C120.531 12.632 121.45 12.4209 122.445 12.4209C123.457 12.4209 124.384 12.632 125.228 13.0542C126.071 13.4763 126.796 14.0871 127.403 14.8866C128.01 15.686 128.482 16.6471 128.82 17.77C129.157 18.8928 129.326 20.1548 129.326 21.5561C129.326 22.9573 129.157 24.2283 128.82 25.3691C128.482 26.5099 128.01 27.4845 127.403 28.2929C126.796 29.1013 126.071 29.7256 125.228 30.1657C124.384 30.6059 123.457 30.826 122.445 30.826ZM122.445 29.6942C123.288 29.6942 124.056 29.501 124.747 29.1148C125.438 28.7285 126.033 28.1806 126.53 27.471C127.028 26.7614 127.412 25.9081 127.681 24.911C127.951 23.9139 128.086 22.7956 128.086 21.5561C128.086 20.3344 127.951 19.2296 127.681 18.2415C127.412 17.2535 127.028 16.4136 126.53 15.722C126.033 15.0303 125.438 14.4958 124.747 14.1186C124.056 13.7413 123.288 13.5527 122.445 13.5527C121.602 13.5527 120.83 13.7413 120.13 14.1186C119.431 14.4958 118.836 15.0303 118.347 15.722C117.858 16.4136 117.479 17.2535 117.209 18.2415C116.939 19.2296 116.804 20.3344 116.804 21.5561C116.804 22.7956 116.939 23.9139 117.209 24.911C117.479 25.9081 117.858 26.7614 118.347 27.471C118.836 28.1806 119.431 28.7285 120.13 29.1148C120.83 29.501 121.602 29.6942 122.445 29.6942ZM133.145 30.5026V12.7443H137.926C138.753 12.7443 139.503 12.8296 140.178 13.0003C140.852 13.1709 141.426 13.4449 141.898 13.8222C142.37 14.1994 142.737 14.6845 142.998 15.2773C143.26 15.8702 143.39 16.5888 143.39 17.4331C143.39 18.8523 143.007 19.9662 142.239 20.7746C141.472 21.583 140.431 22.077 139.115 22.2567L143.719 30.5026H142.378L137.85 22.3375H134.309V30.5026H133.145ZM134.309 21.3135H137.623C139.107 21.3135 140.241 20.9947 141.025 20.3569C141.809 19.7191 142.201 18.7446 142.201 17.4331C142.201 16.1037 141.805 15.165 141.012 14.6171C140.22 14.0692 139.09 13.7952 137.623 13.7952H134.309V21.3135ZM146.906 30.5026V12.7443H151.409C153.095 12.7443 154.436 13.0901 155.431 13.7817C156.426 14.4734 156.924 15.5648 156.924 17.0558C156.924 17.99 156.704 18.8029 156.266 19.4946C155.827 20.1862 155.187 20.6668 154.343 20.9363V21.0441C155.423 21.2417 156.291 21.6953 156.949 22.4049C157.607 23.1145 157.935 24.0891 157.935 25.3287C157.935 26.191 157.788 26.9455 157.493 27.5923C157.198 28.239 156.78 28.7779 156.241 29.2091C155.701 29.6403 155.052 29.9636 154.293 30.1792C153.534 30.3948 152.682 30.5026 151.738 30.5026H146.906ZM148.07 20.559H150.954C152.657 20.559 153.884 20.2581 154.634 19.6563C155.385 19.0544 155.76 18.2326 155.76 17.1906C155.76 15.933 155.364 15.0483 154.571 14.5363C153.778 14.0243 152.615 13.7683 151.08 13.7683H148.07V20.559ZM148.07 29.4786H151.434C153.104 29.4786 154.415 29.1462 155.368 28.4815C156.321 27.8168 156.797 26.7749 156.797 25.3556C156.797 24.0622 156.333 23.11 155.406 22.4992C154.478 21.8884 153.155 21.583 151.434 21.583H148.07V29.4786ZM161.528 30.5026V12.7443H162.691V30.5026H161.528ZM171.191 30.5026V13.8222H165.878V12.7443H177.666V13.8222H172.354V30.5026H171.191ZM182.144 20.047L181.081 23.3615H187.001L185.938 20.047C185.601 18.9871 185.281 17.9721 184.977 17.002C184.673 16.0318 184.378 14.9989 184.092 13.903H183.99C183.704 14.9989 183.409 16.0318 183.105 17.002C182.801 17.9721 182.481 18.9871 182.144 20.047ZM177.591 30.5026L183.459 12.7443H184.623L190.492 30.5026H189.277L187.329 24.4125H180.727L178.754 30.5026H177.591ZM193.148 30.5026V12.7443H194.311V29.4247H202.001V30.5026H193.148Z" fill="#333333"/>
</g>
<defs>
<clipPath id="clip0_4530_12308">
<rect width="202" height="40" fill="white"/>
</clipPath>
</defs>
</svg>
