<?xml version="1.0" encoding="UTF-8" standalone="no"?>
<svg
   fill="none"
   version="1.1"
   id="svg8"
   width="206116"
   height="27889"
   xmlns="http://www.w3.org/2000/svg"
   xmlns:svg="http://www.w3.org/2000/svg">
  <path
     fill="url(#a)"
     d="m 6.5533627,8.5183823 a 10.389296,8.0693125 0 0 0 -5.1619771,7.1050597 9.1478075,7.105055 0 0 0 0.9801223,3.50178 c 0.5554026,0.98963 1.633537,1.85239 3.1363911,2.46139 1.3721711,0.63438 3.3650863,1.26876 5.848063,1.67476 a 11.696125,9.0843204 0 0 1 4.443221,1.44639 c 0.88211,0.5075 1.3395,1.11651 1.30683,1.95389 0,0.96426 -0.522732,1.67476 -1.437513,2.13152 -0.980122,0.58363 -2.18894,0.78663 -4.051172,0.76125 -3.2670745,0.0507 -6.1747705,-0.83738 -8.886442,-2.58827 l -1.8295615,4.06003 c 1.2088174,0.98964 2.7116715,1.72552 4.7045867,2.2584 1.8622323,0.5075 3.8551475,0.68513 6.0114168,0.7105 3.561111,0.0761 6.370795,-0.7105 8.429051,-2.10614 2.058257,-1.42101 3.038379,-3.29878 2.940367,-5.73479 0.09801,-2.03002 -0.784098,-3.60328 -2.286952,-4.71979 a 17.152139,13.321978 0 0 0 -7.644953,-2.91815 22.542811,17.508886 0 0 1 -3.5284408,-0.76125 C 8.7423024,17.348952 8.154229,16.993702 7.6968387,16.613072 A 2.9403667,2.2837677 0 0 1 7.272119,15.166682 c 0,-0.96425 0.3593782,-1.77626 1.3068297,-2.38526 a 5.554026,4.3137834 0 0 1 3.7571353,-0.76126 c 2.940367,-0.0507 5.554026,0.83738 8.102344,2.53752 l 1.829562,-4.06003 a 14.375126,11.165086 0 0 0 -9.964576,-2.9435197 11.598113,9.0081948 0 0 0 -5.7500513,0.96425 z"
     id="path1"
     style="fill:url(#a);stroke-width:0.287928" />
  <path
     fill="url(#b)"
     d="m 46.215643,15.318942 -5.161977,11.92634 -5.031294,-11.97709 h -6.1421 l 8.102344,17.45813 -0.490061,1.19264 c -0.490061,1.06575 -1.30683,1.90313 -2.254281,2.48676 a 14.081089,10.93671 0 0 1 -4.051172,1.37027 l 1.404842,4.11078 a 13.395004,10.403831 0 0 0 6.240112,-2.03002 17.609529,13.677231 0 0 0 4.214525,-5.22729 l 8.951783,-19.28515 h -5.782721 z"
     id="path2"
     style="fill:url(#b);stroke-width:0.287928" />
  <path
     fill="url(#c)"
     d="m 62.877721,0.60132232 c -2.940367,0 -5.423343,1.92851998 -5.423343,4.26303998 V 38.613372 a 5.554026,4.3137834 0 0 0 5.423343,4.31378 h 80.827409 a 5.554026,4.3137834 0 0 0 5.42334,-4.31378 V 4.8643623 c 0,-2.33452 -2.48297,-4.26303998 -5.42334,-4.26303998 z M 130.04876,16.638452 h 3.59378 v -1.14189 c 0,-2.28377 0.5554,-4.13615 1.82956,-5.43029 1.17615,-1.2687597 2.94037,-1.9031397 5.22732,-1.9031397 1.37217,0 2.38497,0.203 3.20173,0.5075 v 4.2630397 c -0.65341,-0.15225 -1.30683,-0.22838 -1.82956,-0.22838 -0.81677,0 -1.56819,0.22838 -2.02558,0.63438 -0.55541,0.5075 -0.81677,1.26876 -0.81677,2.28377 v 1.01501 h 3.92049 v 4.11078 h -3.92049 v 14.31161 h -5.5867 v -14.31161 h -3.59378 z M 115.67363,8.3661323 h 5.68471 V 35.060842 h -5.68471 z M 90.745863,32.802452 a 13.721711,10.657583 0 0 1 -2.744342,-6.97818 c 0,-1.85239 0.326707,-3.55253 1.176147,-4.99892 a 9.082466,7.0543046 0 0 1 3.299745,-3.42565 c 1.372171,-0.76125 3.038378,-1.19263 4.769928,-1.19263 a 7.5142705,5.8362952 0 0 1 6.338119,2.48677 14.963199,11.62184 0 0 1 2.38496,6.8513 v 0.76126 H 93.392193 a 9.4745149,7.358807 0 0 0 1.372171,3.7809 c 0.816769,0.76126 2.123599,1.14188 3.659123,1.14188 a 6.5341482,5.0750393 0 0 0 2.940363,-0.5075 c 1.01279,-0.27913 1.96024,-0.71051 2.74434,-1.34488 l 1.47018,3.70477 c -0.91478,0.71051 -1.99291,1.26876 -3.36508,1.62402 a 10.12793,7.8663109 0 0 1 -3.953156,0.65975 9.1478075,7.105055 0 0 1 -7.514271,-2.56289 z M 73.43037,31.026182 a 1.8622322,1.4463862 0 0 0 0.816769,-1.29413 c 0,-0.43138 -0.196024,-0.76126 -0.555403,-1.06576 -0.359378,-0.27913 -1.110805,-0.5075 -2.025586,-0.71051 l -3.10372,-0.63438 c -1.731549,-0.43137 -3.136391,-1.015 -3.920489,-1.85239 a 6.6648312,5.1765401 0 0 1 -1.404842,-3.42565 c 0,-1.14188 0.359378,-2.13151 1.110805,-2.99427 0.653415,-0.93888 1.633537,-1.64939 2.842355,-2.13152 1.176147,-0.5075 2.64633,-0.7105 4.214525,-0.7105 1.372172,0 2.646331,0.203 3.920489,0.55825 1.30683,0.43138 2.482977,1.01501 3.49577,1.70014 l -1.568196,3.65403 a 13.395004,10.403831 0 0 0 -2.940367,-1.52251 c -1.078134,-0.25375 -1.992915,-0.48213 -2.940366,-0.48213 -0.980122,0 -1.633537,0.203 -2.18894,0.5075 a 1.8622322,1.4463862 0 0 0 -0.816768,1.26876 1.9602445,1.5225118 0 0 0 0.45739,1.01501 c 0.359378,0.25375 0.914781,0.5075 1.76422,0.63438 l 3.10372,0.71051 a 7.8409779,6.0900472 0 0 1 4.214526,1.92851 c 0.914781,0.91351 1.30683,2.05539 1.30683,3.4764 0,1.77627 -0.653415,3.14653 -2.123599,4.13616 -1.470183,1.01501 -3.397757,1.57326 -5.978745,1.57326 a 11.761467,9.1350708 0 0 1 -8.429051,-2.28377 l 1.502854,-3.80628 a 10.552649,8.1961885 0 0 0 7.05688,2.13152 c 0.914781,0 1.731549,-0.12688 2.22161,-0.43138 z m 21.432007,-10.04857 c -0.718757,0.55825 -1.110806,1.42101 -1.30683,2.63902 h 7.514263 c -0.3267,-2.43602 -1.535517,-3.55253 -3.626445,-3.55253 a 3.0057082,2.3345181 0 0 0 -2.580988,0.91351 z"
     id="path3"
     style="fill:url(#c);stroke-width:0.287928" />
  <defs
     id="defs8">
    <linearGradient
       id="a"
       x1="-22.4"
       x2="450.70001"
       y1="78"
       y2="89.699997"
       gradientUnits="userSpaceOnUse"
       gradientTransform="matrix(0.32670741,0,0,0.25375197,0.80331228,0.60132232)">
      <stop
         stop-color="#E37894"
         id="stop3" />
      <stop
         offset="1"
         stop-color="#D48744"
         id="stop4" />
    </linearGradient>
    <linearGradient
       id="b"
       x1="-23.1"
       x2="450"
       y1="106.7"
       y2="118.3"
       gradientUnits="userSpaceOnUse"
       gradientTransform="matrix(0.32670741,0,0,0.25375197,0.80331228,0.60132232)">
      <stop
         stop-color="#E37894"
         id="stop5" />
      <stop
         offset="1"
         stop-color="#D48744"
         id="stop6" />
    </linearGradient>
    <linearGradient
       id="c"
       x1="173.39999"
       x2="454"
       y1="83.400002"
       y2="83.400002"
       gradientUnits="userSpaceOnUse"
       gradientTransform="matrix(0.32670741,0,0,0.25375197,0.80331228,0.60132232)">
      <stop
         stop-color="#E37894"
         id="stop7" />
      <stop
         offset="1"
         stop-color="#D48744"
         id="stop8" />
    </linearGradient>
  </defs>
</svg>
