<svg id="Ebene_1" data-name="Ebene 1" xmlns="http://www.w3.org/2000/svg" viewBox="0 0 1050 247.96"><defs><style>.cls-1{fill:#afca0b;}.cls-2,.cls-4{fill:none;stroke-width:1.52px;}.cls-2{stroke:#afca0b;}.cls-3{fill:#1d1d1b;}.cls-4{stroke:#1d1d1b;}</style></defs><path class="cls-1" d="M250.66,328.45c0,21.05,19.29,24.29,33.19,29.28,8,2.84,14,6.21,14,13.5,0,8.63-5.26,13.08-17.81,13.08s-25.36-4.18-25.36-4.18a25.2,25.2,0,0,0-4.05,13.76s11.6,5.94,30.09,5.94c23.07,0,34.81-10.26,34.81-29,0-17.27-12.14-23.74-24.29-28.2-11.74-4.18-23.47-6.47-23.47-15,0-8.77,6.2-13.09,19.29-13.09a69.31,69.31,0,0,1,20.1,3c3.11-3.38,4.59-8.77,4.59-13.5,0,0-10.39-4-27.12-4-22.93,0-34,11.47-34,28.46" transform="translate(-69.02 -185.01)"/><path class="cls-2" d="M250.66,328.45c0,21.05,19.29,24.29,33.19,29.28,8,2.84,14,6.21,14,13.5,0,8.63-5.26,13.08-17.81,13.08s-25.36-4.18-25.36-4.18a25.2,25.2,0,0,0-4.05,13.76s11.6,5.94,30.09,5.94c23.07,0,34.81-10.26,34.81-29,0-17.27-12.14-23.74-24.29-28.2-11.74-4.18-23.47-6.47-23.47-15,0-8.77,6.2-13.09,19.29-13.09a69.31,69.31,0,0,1,20.1,3c3.11-3.38,4.59-8.77,4.59-13.5,0,0-10.39-4-27.12-4-22.93,0-34,11.47-34,28.46Z" transform="translate(-69.02 -185.01)"/><path class="cls-1" d="M389.22,328.59a26.45,26.45,0,0,0-8-1.08c-5.53,0-8.23,1.08-8.23,1.08L362.1,364.75a169.08,169.08,0,0,0-4.32,17h-.54a122.22,122.22,0,0,0-4.72-17l-12.68-36.16a28.17,28.17,0,0,0-8.77-1.08,30.35,30.35,0,0,0-8.77,1.08s26.44,73.52,27.41,76.43c-4.06,11.79-6.5,13.16-13.11,13.16a46.81,46.81,0,0,1-6.21-.54,19.79,19.79,0,0,0-1.21,6.75,18,18,0,0,0,1.21,6.34,19.79,19.79,0,0,0,7.83,1.48c17,0,22-9.31,27.25-26l23.75-77.58Z" transform="translate(-69.02 -185.01)"/><path class="cls-2" d="M389.22,328.59a26.45,26.45,0,0,0-8-1.08c-5.53,0-8.23,1.08-8.23,1.08L362.1,364.75a169.08,169.08,0,0,0-4.32,17h-.54a122.22,122.22,0,0,0-4.72-17l-12.68-36.16a28.17,28.17,0,0,0-8.77-1.08,30.35,30.35,0,0,0-8.77,1.08s26.44,73.52,27.41,76.43c-4.06,11.79-6.5,13.16-13.11,13.16a46.81,46.81,0,0,1-6.21-.54,19.79,19.79,0,0,0-1.21,6.75,18,18,0,0,0,1.21,6.34,19.79,19.79,0,0,0,7.83,1.48c17,0,22-9.31,27.25-26l23.75-77.58Z" transform="translate(-69.02 -185.01)"/><path class="cls-1" d="M400.82,348c0,13.9,9.86,17.67,18.76,20.37,7.29,2.16,13.9,3.64,13.9,9.45,0,5-3.24,7.55-10.53,7.55A59,59,0,0,1,405,382.15c-3.1,3-4.59,7.56-4.59,12.55,0,0,8.63,5.13,23.34,5.13,17.68,0,26.45-8.09,26.45-22.4,0-12.68-8-17.4-16.06-20.24-8.5-3-17.14-3.91-17.14-9.71,0-4.86,3.78-7.56,11.61-7.56a47.74,47.74,0,0,1,13.76,2.16c3-2.83,4.32-7.69,4.32-12,0,0-5.4-3.92-19.83-3.92-17.68,0-26.05,8.77-26.05,21.86" transform="translate(-69.02 -185.01)"/><path class="cls-2" d="M400.82,348c0,13.9,9.86,17.67,18.76,20.37,7.29,2.16,13.9,3.64,13.9,9.45,0,5-3.24,7.55-10.53,7.55A59,59,0,0,1,405,382.15c-3.1,3-4.59,7.56-4.59,12.55,0,0,8.63,5.13,23.34,5.13,17.68,0,26.45-8.09,26.45-22.4,0-12.68-8-17.4-16.06-20.24-8.5-3-17.14-3.91-17.14-9.71,0-4.86,3.78-7.56,11.61-7.56a47.74,47.74,0,0,1,13.76,2.16c3-2.83,4.32-7.69,4.32-12,0,0-5.4-3.92-19.83-3.92-17.68,0-26.05,8.77-26.05,21.86Z" transform="translate(-69.02 -185.01)"/><path class="cls-3" d="M469.5,301.34v97.14h59.77a18.76,18.76,0,0,0,1.35-7.15,19.42,19.42,0,0,0-1.35-6.75h-42.5v-28.2h34.4a18.57,18.57,0,0,0,1.35-7.15,19.37,19.37,0,0,0-1.35-6.74h-34.4V315.23h41.15a19.66,19.66,0,0,0,1.35-7.42,17.33,17.33,0,0,0-1.35-6.47Z" transform="translate(-69.02 -185.01)"/><path class="cls-4" d="M469.5,301.34v97.14h59.77a18.76,18.76,0,0,0,1.35-7.15,19.42,19.42,0,0,0-1.35-6.75h-42.5v-28.2h34.4a18.57,18.57,0,0,0,1.35-7.15,19.37,19.37,0,0,0-1.35-6.74h-34.4V315.23h41.15a19.66,19.66,0,0,0,1.35-7.42,17.33,17.33,0,0,0-1.35-6.47Z" transform="translate(-69.02 -185.01)"/><path class="cls-3" d="M566.1,298.37a27.22,27.22,0,0,0-8.5-1.08c-5.94,0-8.5,1.08-8.5,1.08v99s2.56,1.08,8.5,1.08a27.22,27.22,0,0,0,8.5-1.08v-99Z" transform="translate(-69.02 -185.01)"/><path class="cls-4" d="M566.1,298.37a27.22,27.22,0,0,0-8.5-1.08c-5.94,0-8.5,1.08-8.5,1.08v99s2.56,1.08,8.5,1.08a27.22,27.22,0,0,0,8.5-1.08v-99Z" transform="translate(-69.02 -185.01)"/><path class="cls-3" d="M643.68,354.09c0-19.29-10.93-27.93-27.66-27.93-18.62,0-30.76,10.93-30.76,36.43,0,24.42,9.71,37.24,31.71,37.24,15,0,22.94-5.53,22.94-5.53a18,18,0,0,0-5.13-12,36.87,36.87,0,0,1-15.38,3.24c-9.45,0-15.52-3.51-16.73-17.27H642.2a60.21,60.21,0,0,0,1.48-14.17m-16.87-2c0,1.49-.13,3-.26,4.46H602.8C604,344,609.14,339.38,616,339.38c8.5,0,10.79,5.67,10.79,12.68" transform="translate(-69.02 -185.01)"/><path class="cls-4" d="M643.68,354.09c0-19.29-10.93-27.93-27.66-27.93-18.62,0-30.76,10.93-30.76,36.43,0,24.42,9.71,37.24,31.71,37.24,15,0,22.94-5.53,22.94-5.53a18,18,0,0,0-5.13-12,36.87,36.87,0,0,1-15.38,3.24c-9.45,0-15.52-3.51-16.73-17.27H642.2a60.21,60.21,0,0,0,1.48-14.17Zm-16.87-2c0,1.49-.13,3-.26,4.46H602.8C604,344,609.14,339.38,616,339.38c8.5,0,10.79,5.67,10.79,12.68Z" transform="translate(-69.02 -185.01)"/><path class="cls-3" d="M671.61,328.59s-2.83-1.08-8.77-1.08a30.35,30.35,0,0,0-8.77,1.08L677,397.4a44.85,44.85,0,0,0,10.52,1.08,49.44,49.44,0,0,0,10.53-1.08l22.39-68.81s-2.56-1.08-7.82-1.08a23.51,23.51,0,0,0-7.69,1.08l-12.55,39c-2.57,8-4.18,15.25-4.18,15.25h-.54A123.09,123.09,0,0,0,684,367.72l-12.41-39.13Z" transform="translate(-69.02 -185.01)"/><path class="cls-4" d="M671.61,328.59s-2.83-1.08-8.77-1.08a30.35,30.35,0,0,0-8.77,1.08L677,397.4a44.85,44.85,0,0,0,10.52,1.08,49.44,49.44,0,0,0,10.53-1.08l22.39-68.81s-2.56-1.08-7.82-1.08a23.51,23.51,0,0,0-7.69,1.08l-12.55,39c-2.57,8-4.18,15.25-4.18,15.25h-.54A123.09,123.09,0,0,0,684,367.72l-12.41-39.13Z" transform="translate(-69.02 -185.01)"/><path class="cls-3" d="M789.53,354.09c0-19.29-10.92-27.93-27.66-27.93-18.61,0-30.76,10.93-30.76,36.43,0,24.42,9.72,37.24,31.71,37.24,15,0,22.94-5.53,22.94-5.53a18,18,0,0,0-5.13-12,36.82,36.82,0,0,1-15.38,3.24c-9.45,0-15.52-3.51-16.73-17.27h39.53a60.21,60.21,0,0,0,1.48-14.17m-16.86-2c0,1.49-.13,3-.27,4.46H748.65c1.21-12.55,6.34-17.14,13.22-17.14,8.5,0,10.8,5.67,10.8,12.68" transform="translate(-69.02 -185.01)"/><path class="cls-4" d="M789.53,354.09c0-19.29-10.92-27.93-27.66-27.93-18.61,0-30.76,10.93-30.76,36.43,0,24.42,9.72,37.24,31.71,37.24,15,0,22.94-5.53,22.94-5.53a18,18,0,0,0-5.13-12,36.82,36.82,0,0,1-15.38,3.24c-9.45,0-15.52-3.51-16.73-17.27h39.53a60.21,60.21,0,0,0,1.48-14.17Zm-16.86-2c0,1.49-.13,3-.27,4.46H748.65c1.21-12.55,6.34-17.14,13.22-17.14,8.5,0,10.8,5.67,10.8,12.68Z" transform="translate(-69.02 -185.01)"/><path class="cls-3" d="M864.28,346.67c0-12.14-7.29-20.51-21.18-20.51-7.42,0-13.76,2.16-18.49,6.48v-4.05a27.19,27.19,0,0,0-8.49-1.08c-6,0-8.51,1.08-8.51,1.08V397.4s2.56,1.08,8.51,1.08a27.19,27.19,0,0,0,8.49-1.08V344.92a17.21,17.21,0,0,1,11.88-5c7.69,0,10.79,3.92,10.79,9.72V397.4s2.56,1.08,8.5,1.08a27.22,27.22,0,0,0,8.5-1.08V346.67Z" transform="translate(-69.02 -185.01)"/><path class="cls-4" d="M864.28,346.67c0-12.14-7.29-20.51-21.18-20.51-7.42,0-13.76,2.16-18.49,6.48v-4.05a27.19,27.19,0,0,0-8.49-1.08c-6,0-8.51,1.08-8.51,1.08V397.4s2.56,1.08,8.51,1.08a27.19,27.19,0,0,0,8.49-1.08V344.92a17.21,17.21,0,0,1,11.88-5c7.69,0,10.79,3.92,10.79,9.72V397.4s2.56,1.08,8.5,1.08a27.22,27.22,0,0,0,8.5-1.08V346.67Z" transform="translate(-69.02 -185.01)"/><polygon class="cls-1" points="0 159.6 26.29 185.88 52.56 159.6 26.29 133.31 0 159.6 0 159.6"/><polygon class="cls-1" points="67.04 92.56 93.32 118.84 119.6 92.56 93.32 66.28 67.04 92.56 67.04 92.56"/><polygon class="cls-1" points="34.28 59.8 60.56 86.08 86.84 59.8 60.56 33.52 34.28 59.8 34.28 59.8"/><polygon class="cls-1" points="33.52 126.08 59.8 152.36 86.08 126.08 59.8 99.8 33.52 126.08 33.52 126.08"/><polygon class="cls-1" points="0.76 93.32 27.04 119.61 53.33 93.32 27.04 67.04 0.76 93.32 0.76 93.32"/><polygon class="cls-1" points="100.56 59.04 126.84 85.32 153.12 59.04 126.84 32.76 100.56 59.04 100.56 59.04"/><polygon class="cls-1" points="94.08 0 67.8 26.28 94.08 52.56 120.36 26.28 94.08 0 94.08 0"/><polygon class="cls-1" points="32.76 192.36 59.04 218.64 85.32 192.36 59.04 166.08 32.76 192.36 32.76 192.36"/><polygon class="cls-1" points="99.8 125.32 126.08 151.6 152.36 125.32 126.08 99.04 99.8 125.32 99.8 125.32"/><polygon class="cls-1" points="66.28 158.84 92.56 185.12 118.84 158.84 92.56 132.55 66.28 158.84 66.28 158.84"/><polygon class="cls-1" points="133.32 91.8 159.6 118.08 185.88 91.8 159.6 65.52 133.32 91.8 133.32 91.8"/></svg>
