<svg width="148" height="40" viewBox="0 0 148 40" fill="none" xmlns="http://www.w3.org/2000/svg">
<path d="M44.6437 13.0348C43.585 8.06747 41.5286 5.58379 38.4743 5.5838C36.1198 5.5838 34.696 7.18559 34.696 9.45332C34.696 12.5669 37.6165 13.5568 40.1353 14.4387C44.1143 15.8425 47.3451 17.5163 47.3451 22.0877C47.3451 26.4432 44.2057 29.9527 39.6972 29.9527C36.8133 29.9527 34.3857 28.3509 33.4183 27.523L32.5787 29.3612H31.1915V20.108H32.6517C33.181 22.4297 33.8381 24.1934 34.6413 25.4353C35.9007 27.361 37.5434 28.3329 39.5877 28.3329C42.3621 28.3329 43.9137 26.4792 43.9137 23.8335C43.9137 20.3779 41.1757 19.3881 38.2918 18.4162C34.3857 17.1203 31.374 15.4645 31.374 11.0191C31.374 6.98759 34.1849 4 38.3283 4C40.7012 4 42.4899 5.02586 43.9501 6.10573L44.6437 4.55807H45.9944V13.0348H44.6437ZM55.7332 29.5568L50.4764 16.0225C49.6734 13.9527 49.3813 13.6288 48.3044 13.6288H47.702V12.189H56.1165V13.6288H54.8389C54.1817 13.6288 53.908 13.8807 53.908 14.3847C53.9317 14.6827 54.0057 14.9746 54.127 15.2486L57.7227 24.2835L60.7527 15.9505C60.9106 15.5278 61.0088 15.0857 61.0447 14.6367C61.0447 13.9527 60.6979 13.6288 59.8949 13.6288H58.5807V12.189H65.1516V13.6288H64.531C63.7644 13.6288 63.4723 14.0427 62.9795 15.3566L57.1569 30.7266C55.7515 34.4522 54.5833 36 51.9732 36C49.9836 36 48.1766 34.7401 48.1766 32.6524C48.1766 31.3026 49.0893 30.2767 50.4947 30.2767C51.7177 30.2767 52.7215 31.0866 52.7215 32.3284C52.7215 33.2103 52.2835 33.8762 51.4073 34.3082C51.6305 34.3833 51.8652 34.4198 52.101 34.4162C53.5429 34.4162 54.3461 33.4443 55.3682 30.5826L55.7332 29.5568ZM75.8137 17.8943C75.0653 14.7446 73.5869 13.1788 71.3966 13.1788C69.8816 13.1788 68.8959 14.0427 68.8959 15.5545C68.8959 17.3903 71.0863 17.9483 72.51 18.4162C75.5398 19.3881 78.2048 20.6839 78.2048 24.1755C78.2048 27.613 75.5946 29.7367 72.2179 29.7367C70.4346 29.7268 68.7109 29.103 67.3445 27.973L66.8881 29.3612H65.6104V22.7536H66.8881C67.6913 25.3273 69.0055 28.261 72.2179 28.261C73.8971 28.261 74.9923 27.1091 74.9923 25.4713C74.9923 23.2936 72.7472 22.5557 71.0133 21.9617C68.2754 21.0258 65.793 19.802 65.793 16.5984C65.793 13.5748 68.2206 11.811 71.141 11.811C72.7335 11.8525 74.275 12.3738 75.5581 13.3048L75.9232 12.189H77.2008V17.8943H75.8137ZM90.886 25.1113C90.886 28.045 89.1702 29.7367 86.2133 29.7367C83.2563 29.7367 81.5224 28.045 81.5224 25.1113V13.8807H78.8392V12.4049C80.5367 12.009 81.6684 11.397 82.362 10.5512C83.1104 9.65127 83.585 7.94147 83.8404 5.79977H85.2642V12.189H90.3201V13.8807H85.2642V25.3273C85.2642 27.2711 86.0673 27.865 86.9435 27.865C88.2211 27.865 89.1155 26.9471 89.1155 24.8054V23.0956H90.886V25.1113ZM96.4504 20.8459C96.5782 23.7075 96.706 28.1529 100.466 28.1529C102.93 28.1529 104.171 26.1552 105.047 24.1934L106.544 24.9674C105.12 27.811 103.368 29.8807 99.882 29.8807C94.5522 29.8807 92.3801 25.3813 92.3801 20.7739C92.3801 16.3464 94.5704 11.667 99.5534 11.667C104.92 11.667 106.581 16.7424 106.69 20.8459H96.4504ZM102.62 19.2621C102.547 15.1226 101.525 13.1788 99.6264 13.1788C97.7281 13.1788 96.6147 15.2845 96.4869 19.2621H102.62ZM131.709 16.7784V26.1552C131.727 27.4511 132.22 27.955 133.534 27.955H134.027V29.3612H127.967V17.1203C127.967 14.7086 127.237 13.7188 125.667 13.7188C123.696 13.7188 122.784 15.9505 122.784 19.0461V26.1552C122.802 27.4511 123.295 27.955 124.609 27.955H125.211V29.3612H119.042V17.1203C119.042 14.7086 118.293 13.7188 116.724 13.7188C114.679 13.7188 113.84 15.9505 113.84 19.0461V26.1552C113.858 27.4511 114.351 27.955 115.665 27.955H116.267V29.3612H107.597V27.955H108.273C109.587 27.955 110.098 27.4511 110.098 26.1552V15.2306C110.08 13.9348 109.587 13.4308 108.273 13.4308H107.78V12.027H113.621V13.9527C114.085 13.2923 114.704 12.7525 115.425 12.3796C116.147 12.0066 116.949 11.8115 117.764 11.811C119.954 11.811 121.396 12.8009 122.272 14.4387C122.699 13.6516 123.332 12.9922 124.106 12.5298C124.88 12.0674 125.766 11.8191 126.671 11.811C129.884 11.811 131.709 13.6288 131.709 16.7784ZM145.609 17.8943C144.86 14.7447 143.382 13.1788 141.192 13.1788C139.677 13.1788 138.691 14.0427 138.691 15.5545C138.691 17.3903 140.881 17.9483 142.305 18.4162C145.335 19.3881 148 20.6839 148 24.1755C148 27.613 145.39 29.7368 142.013 29.7368C140.23 29.7268 138.506 29.103 137.14 27.973L136.683 29.3612H135.406V22.7536H136.683C137.486 25.3273 138.801 28.261 142.013 28.261C143.692 28.261 144.788 27.1091 144.788 25.4713C144.788 23.2936 142.542 22.5557 140.808 21.9617C138.071 21.0258 135.588 19.802 135.588 16.5984C135.588 13.5748 138.016 11.811 140.936 11.811C142.529 11.8525 144.07 12.3738 145.353 13.3048L145.718 12.189H146.996V17.8943L145.609 17.8943ZM5.03089 20.9281H0V15.9675H5.03089V20.9281ZM0 4.55807V12.9911H1.50927V12.7431C1.50927 8.77461 3.77317 6.29429 8.04942 6.29429H8.30097V24.1526C8.30097 26.6329 7.29479 27.625 4.77935 27.625H4.02471V29.3612H17.105V27.625H16.3504C13.8349 27.625 12.8288 26.6329 12.8288 24.1526V6.29429H13.0803C17.3566 6.29429 19.6205 8.77461 19.6205 12.7431V12.9911H21.1297V4.55807H0ZM16.0988 20.9281H21.1297V15.9675H16.0988V20.9281Z" fill="#E20074"/>
</svg>
