<svg width="127" height="40" viewBox="0 0 127 40" fill="none" xmlns="http://www.w3.org/2000/svg">
<path d="M49.8365 17.0917V4.95442H46.4916C46.3857 4.95442 46.2799 4.91234 46.1952 4.8282C46.1105 4.74406 46.0682 4.63889 46.0682 4.53371V2.74572C46.047 2.53537 46.2164 2.34606 46.4281 2.32502C46.4493 2.32502 46.4704 2.32502 46.4704 2.32502H56.0181C56.2298 2.30399 56.4204 2.47227 56.4416 2.68262C56.4416 2.70365 56.4416 2.72469 56.4416 2.72469V4.49164C56.4416 4.59682 56.3992 4.70199 56.3145 4.78613C56.2298 4.87028 56.124 4.91234 56.0181 4.91234H52.6521V17.0496C52.6521 17.1548 52.6098 17.26 52.5251 17.3231C52.4616 17.4072 52.3557 17.4493 52.2499 17.4493H50.2387C50.1329 17.4493 50.027 17.4072 49.9423 17.3231C49.8788 17.3021 49.8365 17.1969 49.8365 17.0917Z" fill="#E23C52"/>
<path d="M57.8414 17.5124C57.6932 17.5334 57.5662 17.4493 57.4815 17.3441C57.3968 17.2179 57.3968 17.0706 57.4815 16.9655L64.2348 2.40912C64.2983 2.26188 64.4465 2.17773 64.6158 2.17773H64.8275C64.9969 2.17773 65.1451 2.26188 65.2086 2.40912L71.9195 16.9655C72.0042 17.0917 72.0042 17.2389 71.9195 17.3441C71.8348 17.4703 71.7078 17.5334 71.5596 17.5124H69.6543C69.3791 17.5124 69.1251 17.3231 69.0192 17.0706L67.9395 14.6726H61.4191L60.3606 17.0706C60.2759 17.3441 60.0219 17.5334 59.7255 17.5124H57.8414ZM62.4988 12.3377H66.881L64.7005 7.58377H64.6158L62.4988 12.3377Z" fill="#E23C52"/>
<path d="M75.4531 17.0918V2.76685C75.4531 2.66168 75.4955 2.5565 75.5801 2.4934C75.6648 2.40926 75.7707 2.36719 75.8765 2.36719H77.8877C77.9935 2.36719 78.0994 2.40926 78.1629 2.4934C78.2475 2.5565 78.2899 2.66168 78.2899 2.76685V17.0918C78.2899 17.197 78.2475 17.3021 78.1629 17.3653C78.0994 17.4494 77.9935 17.4915 77.8877 17.4915H75.8765C75.7707 17.4915 75.6648 17.4494 75.5801 17.3653C75.4955 17.3021 75.4531 17.197 75.4531 17.0918Z" fill="#E23C52"/>
<path d="M83.8338 17.0914V2.76641C83.8127 2.55605 83.982 2.36674 84.1937 2.3457C84.2149 2.3457 84.2361 2.3457 84.2361 2.3457H86.2472C86.3531 2.3457 86.4589 2.38777 86.5436 2.47192C86.6283 2.55606 86.6706 2.6402 86.6706 2.74537V14.9247H92.2172C92.4289 14.9037 92.6194 15.072 92.6406 15.2823C92.6406 15.3034 92.6406 15.3244 92.6406 15.3244V17.0914C92.6617 17.3017 92.4924 17.491 92.2807 17.5121C92.2595 17.5121 92.2383 17.5121 92.2383 17.5121H84.2784C84.0667 17.5331 83.8762 17.3648 83.855 17.1545C83.8338 17.1334 83.8338 17.1124 83.8338 17.0914Z" fill="#E23C52"/>
<path d="M97.423 15.4716C95.9411 14.0202 95.1155 12.0429 95.1578 9.96043C95.1155 7.87796 95.9411 5.87962 97.423 4.4282C100.493 1.3781 105.446 1.3781 108.516 4.4282C110.019 5.87962 110.845 7.87796 110.802 9.96043C110.781 14.2726 107.246 17.7434 102.906 17.7224C100.853 17.7224 98.8837 16.902 97.423 15.4716ZM99.4553 6.42653C98.5027 7.35208 97.9734 8.63522 97.9946 9.96043C97.9946 12.695 100.239 14.9247 102.991 14.9247C105.743 14.9247 107.987 12.695 107.987 9.96043C107.966 7.22587 105.743 4.99614 102.991 4.97511C101.636 4.95407 100.366 5.47995 99.4553 6.42653Z" fill="#E23C52"/>
<path d="M115.23 17.092V2.76704C115.209 2.55669 115.378 2.36737 115.59 2.34634C115.611 2.34634 115.632 2.34634 115.632 2.34634H121.877C123.126 2.3253 124.354 2.83014 125.222 3.71362C126.132 4.57606 126.641 5.75403 126.619 6.9951C126.641 7.94168 126.323 8.88827 125.73 9.64553C125.137 10.4238 124.312 11.0339 123.38 11.3915L126.365 16.8606C126.45 16.9868 126.45 17.1551 126.365 17.2813C126.281 17.4285 126.132 17.5127 125.984 17.4916H123.698C123.55 17.4916 123.423 17.4285 123.359 17.3023L120.459 11.6018H118.045V17.092C118.045 17.1971 118.003 17.3023 117.918 17.3654C117.834 17.4496 117.728 17.4916 117.622 17.4916H115.611C115.399 17.5127 115.209 17.3444 115.188 17.134C115.23 17.134 115.23 17.113 115.23 17.092ZM118.088 9.2669H121.644C122.216 9.2669 122.745 9.03551 123.147 8.61481C123.571 8.21514 123.804 7.64719 123.783 7.05821C123.783 6.49026 123.55 5.94335 123.147 5.56471C122.745 5.16505 122.216 4.9547 121.644 4.9547H118.088V9.2669Z" fill="#E23C52"/>
<path d="M47.8867 22.6882C47.8867 22.4778 48.0561 22.3096 48.2678 22.3096H52.7558C55.2539 22.3096 56.9687 23.9082 56.9687 26.0538C56.9263 27.4211 56.1642 28.6622 54.9575 29.3143C56.0372 29.756 57.4132 30.7657 57.4132 32.6378C57.4132 34.9307 55.5926 36.5714 52.9464 36.5714H48.2678C48.0561 36.5714 47.8867 36.4031 47.8867 36.1928V22.6882ZM53.1369 35.2041C54.5341 35.2251 55.6985 34.1313 55.7196 32.743C55.7196 32.7009 55.7196 32.6589 55.7196 32.6168C55.7196 31.1654 54.3859 30.1136 52.777 30.1136H49.3898V35.2041H53.1369ZM52.777 28.7043C54.3436 28.7043 55.2327 27.5894 55.2327 26.159C55.2327 24.7286 54.3436 23.7189 52.777 23.7189H49.4321V28.7043H52.777Z" fill="#E23C52"/>
<path d="M60.6953 22.6879C60.6953 22.4775 60.8647 22.3093 61.0764 22.3093H66.3901C68.8246 22.2672 70.8358 24.2024 70.857 26.6215V26.6425C70.857 28.5146 69.6079 30.0923 67.8296 30.8075L70.6453 35.9821C70.7511 36.1714 70.7088 36.4028 70.5182 36.508C70.4547 36.5501 70.37 36.5711 70.3065 36.5711H69.2904C69.1634 36.5711 69.0363 36.508 68.9728 36.3818L66.2419 30.9757H62.3466V36.1714C62.3466 36.3818 62.1772 36.5501 61.9655 36.5501H61.1187C60.907 36.5501 60.7377 36.3818 60.7377 36.1714V22.6879H60.6953ZM66.3054 29.6505C67.9355 29.6505 69.248 28.3464 69.248 26.7266C69.248 25.1069 67.9355 23.8028 66.3054 23.8028H62.3254V29.6505H66.3054Z" fill="#E23C52"/>
<path d="M72.3001 36.0449L78.5453 22.33C78.6088 22.1828 78.7358 22.0986 78.884 22.0986H79.0957C79.2439 22.0986 79.371 22.1828 79.4345 22.33L85.6373 36.0449C85.7431 36.2132 85.6585 36.4446 85.4891 36.5287C85.4256 36.5708 85.3621 36.5708 85.2986 36.5708H84.4729C84.3247 36.5708 84.1977 36.4867 84.1342 36.3394L82.61 32.9738H75.3275L73.8244 36.3394C73.7609 36.4656 73.6339 36.5708 73.4857 36.5708H72.66C72.4695 36.5918 72.279 36.4446 72.2578 36.2342C72.2578 36.1711 72.279 36.108 72.3001 36.0449ZM82.0595 31.7117C81.0434 29.482 80.0696 27.2522 79.0534 25.0225H78.884L75.8779 31.7117H82.0595Z" fill="#E23C52"/>
<path d="M87.8789 22.4773C87.8789 22.2669 88.0694 22.0986 88.26 22.0986H88.7892L98.0406 33.5418H98.0829V22.7087C98.0829 22.4983 98.2523 22.33 98.464 22.33H99.1837C99.3954 22.33 99.5648 22.4983 99.5648 22.7087V36.4236C99.5648 36.634 99.3743 36.8022 99.1837 36.8022H98.8027L89.382 25.1277V36.2132C89.382 36.4236 89.2126 36.5919 89.0009 36.5919H88.2811C88.0694 36.5919 87.9001 36.4236 87.9001 36.2132V22.4773H87.8789Z" fill="#E23C52"/>
<path d="M103.754 22.6882C103.754 22.4778 103.923 22.3096 104.135 22.3096H108.729C112.688 22.3096 115.906 25.5069 115.906 29.4405C115.906 33.3741 112.688 36.5714 108.729 36.5714H104.135C103.923 36.5714 103.754 36.3821 103.754 36.1928V22.6882ZM108.39 35.162C111.756 35.162 114.191 32.7851 114.191 29.4194C114.191 26.0538 111.756 23.6979 108.39 23.6979H105.32V35.1831L108.39 35.162Z" fill="#E23C52"/>
<path d="M118.151 34.4248C118.256 34.2986 118.362 34.1513 118.468 34.0462C118.68 33.7727 118.891 33.6255 119.188 33.8568C119.336 33.9831 120.839 35.4135 122.66 35.4135C124.332 35.4135 125.391 34.3827 125.391 33.1627C125.391 31.7533 124.163 30.9119 121.792 29.9443C119.527 28.9767 118.193 28.0511 118.193 25.7162C118.193 24.3279 119.294 22.0771 122.554 22.0771C123.803 22.0982 125.01 22.4558 126.068 23.1079C126.28 23.2341 126.365 23.5075 126.238 23.7179C126.216 23.7389 126.195 23.781 126.174 23.802C126.089 23.9282 126.005 24.0755 125.92 24.1807C125.814 24.4121 125.539 24.5172 125.306 24.4331C125.264 24.4121 125.221 24.391 125.2 24.37C125.052 24.2858 123.761 23.4234 122.512 23.4234C120.331 23.4234 119.675 24.8117 119.675 25.6742C119.675 27.0415 120.712 27.8408 122.448 28.556C125.221 29.6708 127 30.7226 127 33.0785C127 35.2031 124.967 36.7387 122.575 36.7387C120.987 36.7176 119.442 36.1286 118.256 35.0769C118.045 34.9507 117.96 34.6772 118.087 34.4669C118.108 34.4879 118.129 34.4669 118.151 34.4248Z" fill="#E23C52"/>
<path d="M36.7089 8.69886C36.6878 8.65679 36.6878 8.63576 36.6666 8.61472C36.6454 8.57265 36.6242 8.55162 36.6031 8.50955C36.5819 8.46748 36.5396 8.42541 36.5184 8.38334L36.4972 8.3623C36.4549 8.32023 36.4125 8.27816 36.3702 8.25712V8.23609L28.008 1.25242C27.9445 1.21035 27.9022 1.16828 27.8387 1.12621C27.8175 1.10517 27.7752 1.08414 27.754 1.08414C27.7116 1.0631 27.6905 1.04207 27.6481 1.04207L27.5635 1.02103L27.4576 1H27.3517H27.2247H18.3756H9.56888H9.44186C9.42069 1 9.37835 1 9.35718 1C9.31484 1 9.29367 1.02103 9.25133 1.02103C9.20899 1.02103 9.18782 1.04207 9.16665 1.04207C9.03963 1.08414 8.91261 1.14725 8.78559 1.25242L0.444572 8.15195C0.317551 8.25712 0.211701 8.38334 0.148191 8.50955C0.127021 8.55162 0.10585 8.57265 0.10585 8.61472C0.0423402 8.76197 0 8.93025 0 9.0775V23.4235C0 23.7811 0.148191 24.1387 0.423402 24.37L17.5923 38.716C18.0369 39.0947 18.6932 39.0947 19.1589 38.716L36.3702 24.2649C36.6454 24.0335 36.7936 23.6969 36.7936 23.3393V9.18268C36.7936 9.01439 36.7724 8.84611 36.7089 8.69886ZM19.6035 3.35594H25.9757V9.32992L19.6035 14.3994V3.35594ZM10.7756 3.35594H17.1478V14.3994L10.7756 9.32992V3.35594ZM2.43456 9.62441L8.34101 4.74426V9.35095L2.43456 14.3153V9.62441ZM18.3756 36.1708L14.5227 32.9524C16.6185 30.912 19.9846 30.9541 22.0381 33.0576L22.0592 33.0786L18.3756 36.1708ZM34.3802 22.7503L23.9434 31.522C21.0219 28.4088 16.1104 28.2195 12.9773 31.1013C12.8714 31.2065 12.7656 31.2906 12.6809 31.3958L2.45573 22.8766V17.4916L9.61122 11.4965L17.6135 17.8702C18.0581 18.2278 18.6932 18.2278 19.1378 17.8702L27.1612 11.4755L34.3591 17.4916L34.3802 22.7503ZM34.3802 14.3153L28.4103 9.35095V4.76529L34.3591 9.72958L34.3802 14.3153Z" fill="#E23C52"/>
</svg>
