<?xml version="1.0" encoding="UTF-8" standalone="no"?>
<svg
   version="1.1"
   width="202.80942"
   height="50.229237"
   style="clip-rule:evenodd;fill-rule:evenodd;image-rendering:optimizeQuality;shape-rendering:geometricPrecision;text-rendering:geometricPrecision"
   id="svg8"
   xmlns="http://www.w3.org/2000/svg"
   xmlns:svg="http://www.w3.org/2000/svg">
  <defs
     id="defs8" />
  <g
     id="g1"
     transform="matrix(0.15459674,0,0,0.14309476,-3.0146364,-2.9334426)">
    <path
       style="opacity:0.915"
       fill="#1bbfd3"
       d="m 191.5,20.5 c 1.317,5.8456 1.317,11.8456 0,18 -38.489,19.0776 -76.822,38.411 -115,58 -4.311,-3.1434 -8.4776,-6.4767 -12.5,-10 -0.6877,-0.8317 -0.521,-1.4984 0.5,-2 42.55,-21.1078 84.883,-42.4412 127,-64 z"
       id="path1" />
  </g>
  <g
     id="g2"
     transform="matrix(0.15459674,0,0,0.14309476,-3.0146364,-2.9334426)">
    <path
       style="opacity:0.917"
       fill="#1bbfd3"
       d="m 206.5,20.5 c 43.097,21.0483 86.097,42.3817 129,64 1.021,0.5016 1.188,1.1683 0.5,2 -4,3.3333 -8,6.6667 -12,10 -38.88,-19.1898 -77.713,-38.5231 -116.5,-58 -0.996,-5.9632 -1.329,-11.9632 -1,-18 z"
       id="path2" />
  </g>
  <g
     id="g3"
     transform="matrix(0.15459674,0,0,0.14309476,-3.0146364,-2.9334426)">
    <path
       style="opacity:0.916"
       fill="#238fcf"
       d="m 195.5,64.5 c 3.773,-0.2367 7.44,0.2633 11,1.5 32.877,16.605 65.877,32.9384 99,49 1.5,1.5 3,3 4.5,4.5 10.102,37.744 19.269,75.744 27.5,114 -0.079,3.738 -1.246,7.072 -3.5,10 -23.713,29.592 -47.547,59.092 -71.5,88.5 -1.587,0.862 -3.254,1.529 -5,2 -39,0.667 -78,0.667 -117,0 -3.741,-1.738 -6.908,-4.238 -9.5,-7.5 -21.953,-28.288 -44.2865,-56.288 -67,-84 -2.2202,-4.095 -2.8869,-8.428 -2,-13 8.7107,-36.843 18.0441,-73.51 28,-110 1.5,-1.5 3,-3 4.5,-4.5 33.759,-16.8793 67.425,-33.7126 101,-50.5 z m 3,16 c 32.89,15.4448 65.557,31.445 98,48 9.126,35.167 17.293,70.501 24.5,106 -22.5,27.833 -45,55.667 -67.5,83.5 -36.333,0.667 -72.667,0.667 -109,0 -22.557,-28.382 -44.8899,-56.882 -67,-85.5 8.3426,-34.371 16.8426,-68.704 25.5,-103 31.816,-16.491 63.65,-32.8241 95.5,-49 z"
       id="path3" />
  </g>
  <g
     id="g4"
     transform="matrix(0.15459674,0,0,0.14309476,-3.0146364,-2.9334426)">
    <path
       style="opacity:0.92"
       fill="#1d4389"
       d="m 54.5,96.5 c 3.4563,2.2833 6.7896,4.783 10,7.5 1.8569,1.182 2.8569,2.849 3,5 -10.2454,41.148 -20.412,82.315 -30.5,123.5 -5.6455,2.204 -11.4788,3.371 -17.5,3.5 12.0557,-46.389 23.7223,-92.889 35,-139.5 z"
       id="path4" />
  </g>
  <g
     id="g5"
     transform="matrix(0.15459674,0,0,0.14309476,-3.0146364,-2.9334426)">
    <path
       style="opacity:0.92"
       fill="#1d4389"
       d="m 344.5,96.5 c 1.086,0.12 1.753,0.7867 2,2 10.687,45.943 21.687,91.777 33,137.5 -6.074,0.119 -11.907,-1.048 -17.5,-3.5 -9.598,-41.557 -19.431,-83.057 -29.5,-124.5 3.83,-3.997 7.83,-7.83 12,-11.5 z"
       id="path5" />
  </g>
  <g
     id="g6"
     transform="matrix(0.15459674,0,0,0.14309476,-3.0146364,-2.9334426)">
    <path
       style="opacity:0.912"
       fill="#78bf42"
       d="m 36.5,246.5 c 1.6439,-0.214 3.1439,0.12 4.5,1 26.286,33.954 52.9526,67.621 80,101 -1.275,5.571 -3.442,10.904 -6.5,16 -30.3261,-37.164 -60.4927,-74.497 -90.5,-112 -0.4828,-0.948 -0.6495,-1.948 -0.5,-3 4.5918,-0.382 8.9251,-1.382 13,-3 z"
       id="path6" />
  </g>
  <g
     id="g7"
     transform="matrix(0.15459674,0,0,0.14309476,-3.0146364,-2.9334426)">
    <path
       style="opacity:0.91"
       fill="#78bf42"
       d="m 358.5,246.5 c 5.772,0.86 11.439,2.193 17,4 -0.5,1 -1,2 -1.5,3 -29.769,37.215 -59.769,74.215 -90,111 -4.003,-4.666 -6.336,-10 -7,-16 27.38,-33.875 54.547,-67.875 81.5,-102 z"
       id="path7" />
  </g>
  <g
     id="g8"
     transform="matrix(0.15459674,0,0,0.14309476,-3.0146364,-2.9334426)">
    <path
       style="opacity:0.903"
       fill="#1bbfd3"
       d="m 133.5,355.5 c 43.672,-0.333 87.338,0 131,1 2.048,4.98 4.381,9.814 7,14.5 -48.337,0.833 -96.67,0.667 -145,-0.5 2.618,-4.901 4.952,-9.901 7,-15 z"
       id="path8" />
  </g>
  <path
     class="st4"
     d="m 97.986187,35.32255 -3.57868,-11.48998 c -0.10526,-0.117244 -0.10526,-0.351734 -0.10526,-0.586223 0,-0.234489 0.10526,-0.468979 0.21051,-0.703468 0.21051,-0.23449 0.42102,-0.23449 0.63154,-0.23449 0.42102,0 0.84204,0.351735 0.94729,0.820713 l 2.94715,9.848554 3.052413,-9.848554 c 0.10526,-0.468978 0.42102,-0.820713 0.84204,-0.820713 h 0.10526 c 0.42102,0 0.84204,0.351735 0.9473,0.820713 l 2.94715,9.848554 3.0524,-9.848554 c 0.10526,-0.468978 0.42103,-0.820713 0.84205,-0.820713 0.10525,0 0.21051,0 0.31576,0.117245 0.10526,0 0.21051,0.117245 0.31577,0.23449 0.10525,0.117244 0.10525,0.234489 0.21051,0.351734 0,0.117244 0.10526,0.234489 0.10526,0.351734 0,0.234489 -0.10526,0.351734 -0.10526,0.586223 l -3.57868,11.48998 c -0.10526,0.468979 -0.52628,0.937958 -0.9473,0.937958 h -0.10526 c -0.42102,0 -0.84204,-0.351735 -0.9473,-0.937958 l -2.94715,-9.731309 -2.94715,9.731309 c -0.10525,0.468979 -0.526273,0.937958 -0.947303,0.937958 v 0 c -0.73678,-0.117245 -1.15781,-0.468979 -1.26306,-1.055203 z"
     id="path9"
     style="fill:#314351;stroke-width:1.11088" />
  <path
     class="st4"
     d="m 124.19478,23.363592 c 0,-0.23449 0.10526,-0.468979 0.21051,-0.703468 0.21051,-0.23449 0.42102,-0.351735 0.63153,-0.351735 0.10526,0 0.21051,0 0.31577,0.117245 0.10526,0 0.21051,0.117245 0.31577,0.23449 0.10525,0.117244 0.10525,0.234489 0.21051,0.351734 0,0.117244 0.10525,0.234489 0.10525,0.351734 v 2.344894 c 0.73679,-1.875916 2.31562,-3.165607 4.10496,-3.282852 0.52628,0 0.84205,0.351734 0.84205,0.937958 0,0 0,0 0,0.117244 0,0.23449 -0.10526,0.468979 -0.21052,0.703469 -0.10525,0.234489 -0.31576,0.351734 -0.52627,0.351734 -2.31562,0.351734 -4.21022,2.227649 -4.21022,6.213968 v 4.455299 c 0,0.234489 -0.10525,0.468978 -0.21051,0.703468 -0.31576,0.351734 -0.84204,0.351734 -1.26306,0 0,0 0,0 0,0 -0.21051,-0.23449 -0.21051,-0.468979 -0.21051,-0.703468 z"
     id="path10"
     style="fill:#314351;stroke-width:1.11088" />
  <path
     class="st4"
     d="m 136.61492,36.377753 c -3.26292,0 -5.89431,-3.048362 -5.78905,-6.682948 0,-0.117245 0,-0.234489 0,-0.351734 v 0 c 0,-3.869075 2.31562,-6.917437 5.57854,-6.917437 3.47342,0 5.36802,3.282852 5.36802,6.800192 0,0.117245 0,0.23449 -0.10525,0.351734 0,0.117245 -0.10526,0.23449 -0.21052,0.351734 -0.10525,0.117245 -0.21051,0.117245 -0.21051,0.23449 -0.10525,0 -0.21051,0.117245 -0.31576,0.117245 h -8.42043 c 0,2.462138 1.89459,4.572543 4.10496,4.572543 1.26306,0 2.42087,-0.586224 3.36817,-1.524181 0.21051,-0.23449 0.63153,-0.351735 0.9473,-0.117245 0.10525,0.117245 0.21051,0.234489 0.31576,0.351734 0,0.117245 0,0.351734 0,0.468979 0,0.117244 -0.10525,0.351734 -0.21051,0.468978 -1.15781,1.172447 -2.73664,1.875916 -4.42072,1.875916 z m 3.47342,-7.73815 c -0.21051,-2.462139 -1.36832,-4.572543 -3.68393,-4.572543 -1.99986,0 -3.57869,1.99316 -3.7892,4.572543 z"
     id="path11"
     style="fill:#314351;stroke-width:1.11088" />
  <path
     class="st4"
     d="m 111.66939,32.156944 v 0 c 0,-2.931118 2.10511,-4.455299 5.05226,-4.455299 1.26306,0 2.42087,0.23449 3.68394,0.586224 V 27.81889 c 0,-2.462139 -1.26307,-3.634585 -3.57869,-3.634585 -0.94729,0 -1.89459,0.117244 -2.73664,0.586223 -0.10525,0 -0.21051,0.117245 -0.31576,0.117245 -0.21051,0 -0.42102,-0.117245 -0.52628,-0.23449 -0.10525,-0.117244 -0.21051,-0.351734 -0.21051,-0.586223 0,-0.351734 0.21051,-0.703468 0.52628,-0.820713 1.15781,-0.586223 2.31562,-0.820713 3.57868,-0.820713 1.36832,-0.117245 2.8419,0.468979 3.78919,1.524181 0.84205,1.055202 1.26307,2.462139 1.26307,3.98632 v 7.269171 c 0,0.468978 -0.31577,0.937957 -0.73679,0.937957 0,0 0,0 -0.10525,0 -0.10526,0 -0.21052,0 -0.31577,-0.117245 -0.10526,0 -0.21051,-0.117244 -0.31577,-0.234489 -0.10525,-0.117245 -0.10525,-0.234489 -0.21051,-0.351734 0,-0.117245 0,-0.234489 0,-0.351734 v -1.055202 c -1.05255,1.524181 -2.63138,2.344894 -4.31547,2.344894 -2.31562,0 -4.52598,-1.406937 -4.52598,-4.220809 z m 8.7362,-1.055203 V 29.81205 c -1.15781,-0.351734 -2.31562,-0.586224 -3.47343,-0.586224 -2.21036,0 -3.47343,1.055203 -3.47343,2.813873 v 0 c 0,1.641426 1.36832,2.696628 2.94715,2.696628 2.21037,0 3.99971,-1.524181 3.99971,-3.634586"
     id="path12"
     style="fill:#314351;stroke-width:1.11088" />
  <path
     class="st4"
     d="m 65.883294,23.246347 c -0.105255,-0.234489 -0.21051,-0.468979 -0.421021,-0.586223 -0.210511,-0.117245 -0.315766,-0.351735 -0.526277,-0.351735 -0.210511,-0.117244 -0.421022,-0.117244 -0.631532,-0.117244 -0.210511,0 -0.421022,0.117244 -0.631533,0.234489 -0.842043,0.468979 -1.263064,1.524181 -0.842043,2.462139 0,0 0,0 0,0.117244 l 3.789194,9.262331 c 0.631532,1.406936 1.263065,2.227649 2.420874,2.227649 1.157809,0 1.789341,-0.820713 2.420874,-2.227649 l 3.368172,-8.207128 c 0,-0.117245 0.105256,-0.23449 0.210511,-0.23449 0.105255,0 0.105255,-0.117244 0.210511,-0.117244 0.105255,0 0.105255,0 0.21051,0 0.105256,0 0.105256,0.117244 0.210511,0.117244 0,0 0.105256,0.117245 0.105256,0.23449 0,0.117244 0,0.117244 0,0.234489 v 7.73815 c -0.105256,1.055202 0.526277,2.110404 1.57883,2.227649 0.105256,0 0.105256,0 0.210511,0 0.947299,0 1.789342,-0.937958 1.789342,-1.99316 0,-0.117245 0,-0.117245 0,-0.234489 v -6.565703 c 0,-1.055202 0.736787,-1.99316 1.684086,-2.110405 0.105255,0 0.105255,0 0.210511,0 0.947298,0 1.789341,0.820713 1.789341,1.875916 0,0.117244 0,0.117244 0,0.234489 v 6.565703 c -0.105255,1.055202 0.526277,2.110404 1.473576,2.227649 0.947298,0.117245 1.894597,-0.586224 1.999852,-1.641426 0,-0.234489 0,-0.351734 0,-0.586223 v -6.565703 c 0,-1.055202 0.736788,-1.99316 1.684086,-2.110405 0.105256,0 0.105256,0 0.210511,0 0.947298,0 1.789342,0.820713 1.789342,1.875916 0,0.117244 0,0.117244 0,0.234489 v 6.565703 c -0.105256,1.055202 0.526276,2.110404 1.473575,2.227649 0.947298,0.117245 1.894593,-0.586224 1.999853,-1.641426 0,-0.234489 0,-0.351734 0,-0.586223 v -7.386416 c 0,-2.579383 -1.789342,-4.572543 -4.104961,-4.689788 0,0 -0.105255,0 -0.105255,0 -1.36832,0 -2.73664,0.703469 -3.789194,1.875915 -0.842043,-1.289691 -2.210363,-1.993159 -3.578683,-1.875915 -1.36832,0.117245 -2.631385,0.820713 -3.578683,1.875915 -0.736788,-1.055202 -1.894597,-1.75867 -3.157662,-1.875915 -1.684086,-0.117244 -3.262917,1.172447 -3.789194,2.931118 l -2.315618,6.565702 -3.368173,-8.207128"
     id="path13"
     style="fill:#314351;stroke-width:1.11088" />
  <path
     class="st4"
     d="m 141.98294,24.06706 v 0 c 0,-0.23449 0,-0.468979 0.10526,-0.586224 0.10525,-0.234489 0.21051,-0.351734 0.31576,-0.586223 0.10526,-0.117245 0.31577,-0.234489 0.42102,-0.351734 0.21052,-0.117245 0.42103,-0.117245 0.52628,-0.117245 0.21051,0 0.42102,0 0.52628,0.117245 0.21051,0.117245 0.31576,0.234489 0.42102,0.351734 0.31577,0.351734 0.42102,0.703468 0.42102,1.172447 v 0 c 0,0.234489 0,0.468979 -0.10525,0.703468 -0.10526,0.234489 -0.21051,0.351734 -0.31577,0.586223 -0.10526,0.117245 -0.31577,0.23449 -0.52628,0.351735 -0.52627,0.234489 -1.15781,0.117244 -1.68408,-0.351735 -0.10526,-0.117244 -0.21051,-0.351734 -0.31577,-0.586223 0.21051,-0.234489 0.21051,-0.468979 0.21051,-0.703468 z m 2.63139,0 v 0 c 0,-0.23449 0,-0.351734 -0.10526,-0.468979 -0.10525,-0.117245 -0.10525,-0.351734 -0.21051,-0.468979 -0.10526,-0.117244 -0.21051,-0.234489 -0.42102,-0.351734 -0.10526,-0.117244 -0.31577,-0.117244 -0.42102,-0.117244 -0.21051,0 -0.31577,0 -0.42102,0.117244 -0.10526,0.117245 -0.31577,0.23449 -0.42103,0.351734 -0.10525,0.117245 -0.21051,0.23449 -0.21051,0.468979 -0.10525,0.117245 -0.10525,0.351734 -0.10525,0.468979 v 0 c 0,0.234489 0,0.351734 0.10525,0.468979 0.10526,0.117244 0.10526,0.351734 0.21051,0.468978 0.10526,0.117245 0.21051,0.23449 0.42103,0.23449 0.10525,0.117244 0.31576,0.117244 0.42102,0.117244 0.21051,0 0.31576,0 0.42102,-0.117244 0.10525,-0.117245 0.31576,-0.23449 0.42102,-0.351734 0.21051,-0.117245 0.31577,-0.468979 0.31577,-0.820713"
     id="path14"
     style="fill:#314351;stroke-width:1.11088" />
  <path
     class="st4"
     d="m 142.82498,23.363592 c 0,0 0,-0.117245 0,0 v 0 0 0 l 0.63154,-0.117245 c 0.10525,0 0.10525,0 0.21051,0 0.10525,0 0.10525,0.117245 0.21051,0.117245 0,0 0.10525,0.117244 0.10525,0.117244 0,0.117245 0,0.117245 0,0.23449 v 0 c 0,0.117244 0,0.234489 -0.10525,0.234489 0,0.117245 -0.10526,0.117245 -0.21051,0.23449 l 0.21051,0.234489 c 0,0 0,0.117245 0,0.117245 v 0 0 0 h -0.10526 -0.10525 c 0,0 -0.10526,0 -0.10526,-0.117245 l -0.31576,-0.468979 h -0.21051 v 0.351734 c 0,0 0,0 0,0.117245 v 0 0 0 h -0.10526 v 0 c 0,0 0,0 0,-0.117245 z m 0.63154,0.586223 c 0.10525,0 0.21051,-0.117245 0.21051,-0.234489 0,-0.117245 -0.10526,-0.23449 -0.21051,-0.23449 h -0.31577 v 0.468979 z"
     id="path15"
     style="fill:#314351;stroke-width:1.11088" />
  <path
     class="st4"
     d="m 156.07603,24.301549 h -4.10496 v -1.875915 h 9.99927 v 1.875915 h -4.10496 v 11.958959 h -1.78935 z"
     id="path16"
     style="fill:#314351;stroke-width:1.11088" />
  <path
     class="st4"
     d="m 171.75909,29.929294 v 6.331214 h -1.78935 v -1.406936 c -0.73678,1.055202 -1.89459,1.75867 -3.15766,1.641425 -1.99985,0 -3.47342,-1.289691 -3.47342,-3.282851 0,-1.99316 1.68408,-3.517341 3.78919,-3.517341 0.9473,0 1.8946,0.234489 2.84189,0.586224 v -0.351735 c 0.10526,-1.289691 -0.73678,-2.579383 -1.99985,-2.696627 -0.10525,0 -0.31576,0 -0.42102,0 -0.9473,0 -1.78934,0.351734 -2.63138,0.820712 l -0.63154,-1.524181 c 1.05256,-0.703468 2.31562,-1.055202 3.57869,-1.055202 1.99985,-0.234489 3.78919,1.406936 3.9997,3.634586 0,0.351734 0,0.586223 -0.10525,0.820712 z M 170.075,32.977656 V 31.57072 c -0.84204,-0.234489 -1.68409,-0.468979 -2.52613,-0.351734 -1.26306,0 -2.31562,0.820713 -2.31562,1.875915 0,1.172447 0.9473,1.875915 2.10511,1.875915 1.15781,0 2.31562,-0.820713 2.73664,-1.99316 z"
     id="path17"
     style="fill:#314351;stroke-width:1.11088" />
  <path
     class="st4"
     d="m 182.60039,29.57756 v 6.565703 h -1.78934 V 29.81205 c 0.10525,-1.289692 -0.73679,-2.462139 -1.99985,-2.579383 0,0 -0.10526,0 -0.10526,0 -1.26306,-0.117245 -2.31562,0.820712 -2.52613,2.110404 v 6.800192 h -1.78934 V 25.82573 h 1.78934 v 1.524181 c 0.63153,-1.055202 1.78934,-1.75867 2.94715,-1.75867 1.8946,0 3.47343,1.641426 3.47343,3.75183 0,0.117245 0,0.117245 0,0.234489 z"
     id="path18"
     style="fill:#314351;stroke-width:1.11088" />
  <path
     class="st4"
     d="m 184.81075,34.736327 5.26277,-7.151926 h -5.15751 V 25.82573 h 7.47313 v 1.524181 l -5.26277,7.151926 h 5.26277 v 1.758671 h -7.57839 z"
     id="path19"
     style="fill:#314351;stroke-width:1.11088" />
  <path
     class="st4"
     d="m 202.80943,25.82573 v 10.434778 h -1.78935 v -1.524181 c -0.63153,1.055202 -1.78934,1.75867 -2.94715,1.75867 -1.89459,0 -3.47342,-1.641425 -3.47342,-3.75183 0,-0.117245 0,-0.234489 0,-0.351734 V 25.82573 h 1.78934 v 6.213969 c -0.10526,1.289692 0.73678,2.462138 1.99985,2.579383 0.10525,0 0.10525,0 0.21051,0 1.26306,0.117245 2.31562,-0.820713 2.52613,-2.110404 V 25.82573 Z"
     id="path20"
     style="fill:#314351;stroke-width:1.11088" />
</svg>
