<svg width="174" height="30" viewBox="0 0 174 30" fill="none" xmlns="http://www.w3.org/2000/svg">
<path d="M8.38554 2.07129V4.14272H6.28916H4.19277V6.21415V8.28557H2.09639H0V12.4284V16.5713H4.19277H8.38554V12.4284V8.28557H12.5783H16.7711V4.14272V-0.000141144H12.5783H8.38554V2.07129Z" fill="#24026C"/>
<path d="M43.2387 3.30148V6.60282H41.5353H39.832V8.28585V9.96889H41.5222H43.2125L43.2649 13.0372C43.3173 15.9372 43.3435 16.1832 43.671 17.1671C44.7585 20.4426 47.6673 22.3975 51.4277 22.3975H52.4103V20.7144V19.0314H49.5278H46.6453V14.5001V9.96889H48.7417H50.8381V8.28585V6.60282H48.7417H46.6453V3.30148V0.000137329H44.942H43.2387V3.30148Z" fill="#24026C"/>
<path d="M85.2973 3.30148V6.60282H83.5939H81.8906V8.28585V9.96889H83.5939H85.2973V12.5452C85.2973 15.5747 85.4807 16.7269 86.1358 18.0604C86.9482 19.6658 88.0619 20.7662 89.6866 21.5689C90.8789 22.1515 92.1105 22.3975 93.8531 22.3975H95.2551V20.7144V19.0314H91.9795H88.7039V14.5001V9.96889H91.1933H93.6828V8.28585V6.60282H91.1933H88.7039V3.30148V0.000137329H87.0006H85.2973V3.30148Z" fill="#24026C"/>
<path d="M57.5848 1.21696C57.1 1.43705 56.5366 2.01964 56.3532 2.49866C55.8291 3.84509 56.9559 5.4375 58.4365 5.4375C59.5633 5.4375 60.6639 4.36295 60.6639 3.27545C60.6639 1.72187 58.9868 0.608482 57.5848 1.21696Z" fill="#24026C"/>
<path d="M71.8269 6.53783C69.4554 7.06864 67.1756 8.86819 66.0881 11.095C64.6337 14.0597 65.1578 17.5035 67.4114 19.9115C68.3155 20.8695 69.2458 21.478 70.5953 21.9829C71.4601 22.3195 71.5256 22.3195 75.6397 22.3713L79.7932 22.4102V20.7271V19.0311H74.4212H69.0492V17.4776V15.924H75.4039H81.7586V14.8494C81.7455 11.6517 80.147 8.94587 77.3037 7.34051C75.797 6.499 73.504 6.14944 71.8269 6.53783ZM77.9589 11.5222V13.0758H73.504H69.0492V11.5222V9.96864H73.504H77.9589V11.5222Z" fill="#24026C"/>
<path d="M102.525 6.52553C100.665 6.95276 99.394 7.69071 98.0837 9.07597C95.0964 12.2608 95.2143 17.1416 98.3458 20.2487C99.3022 21.1809 100.246 21.7764 101.569 22.2425C102.408 22.5403 102.722 22.5791 104.163 22.5791C105.604 22.5791 105.919 22.5403 106.758 22.2425C108.081 21.7764 109.024 21.1809 109.981 20.2487C110.937 19.2907 111.527 18.3586 111.985 17.0639C112.287 16.2483 112.339 15.9117 112.339 14.5653C112.339 13.2318 112.287 12.8693 111.985 11.976C111.147 9.46437 109.037 7.47062 106.391 6.68088C105.395 6.37017 103.508 6.30544 102.525 6.52553ZM108.749 14.5005V19.0318H104.163H99.5774V14.5005V9.96928H104.163H108.749V14.5005Z" fill="#24026C"/>
<path d="M120.436 6.53783C118.065 7.06864 115.785 8.86819 114.697 11.095C113.243 14.0597 113.767 17.5035 116.021 19.9115C116.925 20.8695 117.855 21.478 119.205 21.9829C120.069 22.3195 120.135 22.3195 124.249 22.3713L128.403 22.4102V20.7271V19.0311H123.031H117.659V17.4776V15.924H124.013H130.368V14.8494C130.355 11.6517 128.756 8.94587 125.913 7.34051C124.406 6.499 122.113 6.14944 120.436 6.53783ZM126.568 11.5222V13.0758H122.113H117.659V11.5222V9.96864H122.113H126.568V11.5222Z" fill="#24026C"/>
<path d="M53.7188 8.28585V9.96889H56.0772H58.4356V14.5001V19.0314H56.8633H55.291V20.7144V22.3975H60.1389H64.9868V20.7144V19.0314H63.4145H61.8422V16.455C61.8422 13.4774 61.685 12.4805 60.9906 11.0693C60.2044 9.47692 58.9597 8.24701 57.3219 7.43139C56.4834 7.03005 54.8194 6.60282 54.0332 6.60282H53.7188V8.28585Z" fill="#24026C"/>
<path d="M154.452 6.73228C151.504 7.22425 149.303 9.01085 148.241 11.7814C147.888 12.7265 147.875 12.8301 147.822 15.8854L147.77 19.0314H146.604H145.438V20.7144V22.3975H151.203H156.968V20.7144V19.0314H154.085H151.203V14.5001V9.96889H153.561H155.919V8.28585V6.60282L155.5 6.61576C155.264 6.62871 154.793 6.6805 154.452 6.73228Z" fill="#24026C"/>
<path d="M130.813 7.08197C130.852 7.21144 131.599 10.0855 132.477 13.4646C133.355 16.8954 134.207 19.873 134.377 20.2226C134.809 21.0771 135.622 21.8409 136.513 22.2552C137.155 22.553 137.404 22.5918 138.622 22.5918C139.841 22.5918 140.09 22.553 140.732 22.2552C141.623 21.8409 142.435 21.0771 142.867 20.2226C143.038 19.873 143.889 16.8954 144.767 13.4646C145.645 10.0855 146.392 7.21144 146.431 7.08197C146.497 6.87483 146.353 6.86189 144.662 6.86189H142.841L142.631 7.7293C142.527 8.22126 141.963 10.8494 141.374 13.594C140.784 16.3387 140.286 18.682 140.247 18.7985C140.181 19.0056 139.985 19.0315 138.622 19.0315C137.259 19.0315 137.063 19.0056 136.997 18.7985C136.958 18.682 136.395 16.0668 135.74 13.0114C135.084 9.94314 134.521 7.31501 134.469 7.14671C134.403 6.87483 134.364 6.86189 132.569 6.86189C130.892 6.86189 130.748 6.87483 130.813 7.08197Z" fill="#24026C"/>
<path d="M158.067 7.08192C158.106 7.21138 158.853 10.0855 159.718 13.4645C161.46 20.2096 161.644 20.7016 162.771 21.6984C163.57 22.3975 164.369 22.6565 165.837 22.6565H166.924V24.21V25.7636H163.911H160.897V27.3949V29.0391L162.181 28.9614C165.339 28.7801 167.959 27.1877 169.204 24.6632C169.558 23.977 170.16 21.8279 171.772 15.5359C172.938 11.0176 173.908 7.21138 173.947 7.08192C174.013 6.87477 173.868 6.86183 172.178 6.86183H170.344L170.213 7.53504C170.134 7.91049 169.623 10.5257 169.086 13.335C168.549 16.1444 168.077 18.5783 168.038 18.7337C167.972 19.0315 167.933 19.0315 166.007 19.0315C164.081 19.0315 164.042 19.0315 163.976 18.7337C163.937 18.5783 163.465 16.1444 162.928 13.335C162.391 10.5257 161.88 7.91049 161.801 7.53504L161.67 6.86183H159.836C158.146 6.86183 158.001 6.87477 158.067 7.08192Z" fill="#24026C"/>
<path d="M22.2105 12.6097C21.3326 12.9851 20.8347 13.982 21.0312 14.9789C21.123 15.4967 21.9877 16.4418 22.3415 16.4418C22.6559 16.4418 22.5642 16.6619 22.2236 16.7525C21.7781 16.8561 21.123 17.6458 21.0181 18.1896C20.874 18.9534 21.0706 19.5619 21.634 20.0927C22.5249 20.9342 23.6386 20.9213 24.5034 20.0668C25.3681 19.2123 25.3812 18.1119 24.5165 17.2186C24.2413 16.9338 23.9269 16.7007 23.809 16.7007C23.4683 16.7007 23.5469 16.5195 23.9793 16.3382C24.202 16.2347 24.5427 15.9498 24.7392 15.6909C25.0275 15.3155 25.093 15.0954 25.093 14.4998C25.093 13.8914 25.0275 13.6842 24.713 13.2829C24.1103 12.4931 23.1014 12.2213 22.2105 12.6097Z" fill="#24026C"/>
<path d="M26.4803 12.9078C24.8556 13.7493 25.2618 16.0409 27.0699 16.2609C28.0264 16.3775 28.9173 15.6654 29.0353 14.6815C29.2056 13.3351 27.6857 12.2734 26.4803 12.9078Z" fill="#24026C"/>
<path d="M26.6633 17.2059C26.0737 17.4649 25.7461 17.9827 25.7461 18.6559C25.7461 19.1997 25.8116 19.3421 26.1785 19.7046C26.5453 20.0671 26.6895 20.1318 27.2529 20.1318C27.8163 20.1318 27.9604 20.0671 28.3273 19.7046C28.6941 19.3421 28.7596 19.1997 28.7596 18.643C28.7596 18.0992 28.6941 17.9439 28.3535 17.5943C27.9211 17.1671 27.1481 16.9988 26.6633 17.2059Z" fill="#24026C"/>
<path d="M13.8245 20.8957C12.4749 21.4783 12.1736 23.226 13.2479 24.2358C14.1389 25.0774 15.2526 25.0644 16.1305 24.197C16.4056 23.9251 16.6415 23.6015 16.6415 23.4979C16.6415 23.3943 16.707 23.3037 16.7725 23.3037C16.8511 23.3037 16.9035 23.3943 16.9035 23.5238C16.9035 23.6403 17.1394 23.951 17.4276 24.2229C18.3317 25.0774 19.4454 25.0644 20.3101 24.21C21.1749 23.3555 21.188 22.255 20.3364 21.3747C19.7992 20.818 19.1833 20.6238 18.4103 20.7662C17.86 20.8698 17.0608 21.5171 16.9559 21.9573C16.8773 22.268 16.6415 22.3975 16.6415 22.1126C16.6415 22.035 16.4842 21.7631 16.3008 21.5171C15.7243 20.7791 14.7023 20.5202 13.8245 20.8957Z" fill="#24026C"/>
<path d="M22.2889 21.194C20.6642 22.0355 21.0704 24.327 22.8785 24.5471C23.835 24.6636 24.7259 23.9515 24.8439 22.9676C25.0142 21.6212 23.4943 20.5596 22.2889 21.194Z" fill="#24026C"/>
<path d="M13.9022 25.3365C12.2775 26.1781 12.6836 28.4696 14.4918 28.6897C15.4482 28.8062 16.3392 28.0941 16.4571 27.1102C16.6275 25.7638 15.1076 24.7022 13.9022 25.3365Z" fill="#24026C"/>
<path d="M18.2765 25.4913C17.6869 25.7503 17.3594 26.2681 17.3594 26.9413C17.3594 27.4851 17.4249 27.6275 17.7918 27.99C18.4076 28.6114 19.3247 28.6114 19.9406 27.99C20.3074 27.6275 20.3729 27.4851 20.3729 26.9284C20.3729 26.3846 20.3074 26.2293 19.9668 25.8797C19.5344 25.4525 18.7613 25.2842 18.2765 25.4913Z" fill="#24026C"/>
</svg>
