<?xml version="1.0" encoding="UTF-8"?>
<svg xmlns="http://www.w3.org/2000/svg" xmlns:xlink="http://www.w3.org/1999/xlink" width="120px" height="30px" viewBox="0 0 66 27" version="1.1">
<g id="surface1">
<path style=" stroke:none;fill-rule:nonzero;fill:rgb(13.72549%,12.156863%,12.54902%);fill-opacity:1;" d="M 23.597656 14.242188 L 16.125 14.242188 C 16.46875 15.660156 17.605469 16.726562 19.085938 16.726562 C 19.917969 16.726562 20.738281 16.367188 21.285156 15.742188 L 23.09375 15.785156 C 22.296875 17.308594 20.78125 18.289062 19.019531 18.289062 C 16.453125 18.289062 14.429688 16.039062 14.429688 13.492188 C 14.429688 10.867188 16.417969 8.710938 19.058594 8.710938 C 21.613281 8.710938 23.652344 10.835938 23.652344 13.398438 C 23.648438 13.675781 23.628906 13.972656 23.597656 14.242188 Z M 19.03125 10.265625 C 17.570312 10.265625 16.214844 11.429688 16.121094 12.929688 L 21.945312 12.929688 C 21.855469 11.441406 20.507812 10.265625 19.03125 10.265625 Z M 31.085938 18.058594 L 31.085938 13.117188 C 31.085938 11.574219 30.628906 10.273438 28.832031 10.273438 C 27.171875 10.273438 26.453125 11.566406 26.453125 13.105469 L 26.453125 18.066406 L 24.765625 18.066406 L 24.765625 8.957031 L 26.347656 8.957031 L 26.347656 9.925781 L 26.375 9.925781 C 27.03125 9.054688 27.976562 8.707031 29.015625 8.707031 C 30.300781 8.707031 31.507812 9.214844 32.210938 10.332031 C 32.644531 11.023438 32.78125 11.855469 32.78125 12.664062 L 32.78125 18.058594 Z M 41.78125 18.058594 L 41.78125 16.765625 L 41.753906 16.765625 C 41.003906 17.820312 39.8125 18.289062 38.558594 18.289062 C 35.855469 18.289062 33.867188 16.253906 33.867188 13.542969 C 33.867188 10.8125 35.824219 8.707031 38.558594 8.707031 C 39.695312 8.707031 40.902344 9.144531 41.621094 10.066406 L 41.652344 10.066406 L 41.652344 5.898438 L 43.339844 5.898438 L 43.339844 18.058594 Z M 38.65625 10.265625 C 36.863281 10.265625 35.5625 11.742188 35.5625 13.523438 C 35.5625 15.226562 36.917969 16.734375 38.644531 16.734375 C 40.402344 16.734375 41.78125 15.289062 41.78125 13.523438 C 41.78125 11.699219 40.496094 10.265625 38.65625 10.265625 Z M 48.246094 21.101562 L 46.492188 21.101562 L 47.804688 17.878906 L 44.207031 8.957031 L 46.035156 8.957031 L 48.691406 16.027344 L 51.410156 8.957031 L 53.234375 8.957031 Z M 58.050781 18.289062 C 55.390625 18.289062 53.179688 16.132812 53.179688 13.441406 C 53.179688 10.757812 55.445312 8.707031 58.050781 8.707031 C 60.691406 8.707031 62.921875 10.777344 62.921875 13.46875 C 62.921875 16.066406 60.785156 18.289062 58.050781 18.289062 Z M 58.050781 10.265625 C 56.289062 10.265625 54.871094 11.710938 54.871094 13.488281 C 54.871094 15.265625 56.285156 16.726562 58.050781 16.726562 C 59.828125 16.726562 61.230469 15.253906 61.230469 13.476562 C 61.226562 11.699219 59.804688 10.265625 58.050781 10.265625 Z M 64.300781 18.058594 L 64.300781 5.898438 L 66 5.898438 L 66 18.058594 Z M 1.675781 16.265625 C 1.75 16.554688 1.84375 16.792969 1.949219 16.972656 C 2.058594 17.152344 2.199219 17.308594 2.359375 17.460938 C 2.894531 17.933594 3.574219 18.175781 4.375 18.175781 C 5.171875 18.175781 5.917969 17.976562 6.59375 17.597656 L 6.59375 15.960938 C 5.890625 16.375 5.21875 16.589844 4.589844 16.589844 C 3.734375 16.589844 3.289062 16.0625 3.289062 15.019531 L 3.289062 10.558594 L 6.128906 10.558594 L 6.128906 8.980469 L 3.304688 8.980469 L 3.304688 6.058594 L 1.628906 6.058594 L 1.628906 8.976562 L 0 8.976562 L 0 10.554688 L 1.558594 10.554688 L 1.558594 14.597656 C 1.558594 15.421875 1.597656 15.976562 1.675781 16.265625 Z M 11.921875 10.480469 C 12.445312 10.480469 13.023438 10.769531 13.632812 11.351562 L 14.554688 9.808594 C 13.804688 9.121094 12.902344 8.800781 12.375 8.800781 L 12.253906 8.800781 C 11.648438 8.800781 10.632812 8.800781 9.8125 10.152344 L 9.78125 10.207031 L 9.785156 8.980469 L 8.03125 8.980469 L 8.03125 18.007812 L 9.785156 18.007812 L 9.785156 13.289062 C 9.785156 12.535156 9.996094 11.875 10.417969 11.316406 C 10.839844 10.765625 11.34375 10.480469 11.921875 10.480469 Z M 11.921875 10.480469 "/>
</g>
</svg>
