<svg width="186" height="28" viewBox="0 0 1502 323" fill="none" xmlns="http://www.w3.org/2000/svg">
  <g clip-path="url(#clip0)" fill="#52BD94">
    <path d="M286.356 106.796H118.507c-3.202 0-5.797 2.589-5.797 5.784v19.494c0 3.194 2.595 5.784 5.797 5.784h167.849c3.202 0 5.797-2.59 5.797-5.784V112.58c0-3.195-2.595-5.784-5.797-5.784zM175.329 184.41H7.48c-3.202 0-5.797 2.59-5.797 5.784v19.495c0 3.194 2.595 5.783 5.797 5.783H175.33c3.202 0 5.797-2.589 5.797-5.783v-19.495c0-3.194-2.595-5.784-5.797-5.784z"/>
    <path fill-rule="evenodd" clip-rule="evenodd" d="M23.21 128.05a5.832 5.832 0 004.355-.588 5.807 5.807 0 002.7-3.457C39.56 94.983 59.388 70.472 85.86 55.279a122.737 122.737 0 0187.502-13.398 5.77 5.77 0 004.198-.745 5.741 5.741 0 002.532-3.42l5.068-18.869a5.783 5.783 0 00-.673-4.505 5.814 5.814 0 00-3.726-2.633 153.899 153.899 0 00-110.62 16.848C36.702 47.85 11.78 79.007.344 115.815a5.77 5.77 0 002.005 6.18 5.797 5.797 0 002.049 1.019l18.812 5.036zM270.666 194.137a5.853 5.853 0 00-4.401.561 5.83 5.83 0 00-2.735 3.484c-9.274 29.041-29.094 53.575-55.568 68.788a122.735 122.735 0 01-87.529 13.437 5.746 5.746 0 00-4.201.739 5.723 5.723 0 00-2.529 3.427l-4.966 18.767a5.797 5.797 0 002.26 6.22 5.83 5.83 0 002.139.939 153.981 153.981 0 00110.611-16.882c33.434-19.295 58.356-50.444 69.805-87.245a5.727 5.727 0 00-.505-4.444 5.756 5.756 0 00-3.549-2.735l-18.832-5.056z"/>
    <path d="M235.636 72.7c9.427 0 17.069-7.623 17.069-17.027s-7.642-17.028-17.069-17.028c-9.426 0-17.068 7.624-17.068 17.028S226.21 72.7 235.636 72.7zM58.24 283.602c9.427 0 17.069-7.623 17.069-17.027s-7.642-17.028-17.069-17.028-17.069 7.624-17.069 17.028 7.642 17.027 17.069 17.027z"/>
    <path fill-rule="evenodd" clip-rule="evenodd" d="M710.173 130.254a65.3 65.3 0 0122.31-15.908 65.436 65.436 0 0126.889-5.366c17.961 0 31.948 5.541 40.787 16.178v-8.817a4.926 4.926 0 011.428-3.239 4.95 4.95 0 013.234-1.453h23.677a4.97 4.97 0 013.23 1.458 4.95 4.95 0 011.433 3.234v131.144a79.766 79.766 0 01-16.218 51.446c-12.771 15.491-32.15 23.337-57.611 23.337-35.394 0-63.329-22.346-67.93-54.257a4.948 4.948 0 013.568-5.238l23.129-5.42a2.47 2.47 0 01.365 0 4.642 4.642 0 013.451.856 4.61 4.61 0 011.82 3.047 34.879 34.879 0 0011.849 22.262 35.045 35.045 0 0023.788 8.497c27.651 0 40.543-14.156 40.543-43.742v-11.486a52.017 52.017 0 01-18.341 13.154 52.14 52.14 0 01-22.202 4.157c-39.347 0-67.889-30.476-67.889-72.418a76.25 76.25 0 0118.69-51.426zM1169.3 107.18h1.24c42.31.566 68.52 29.95 68.52 76.967a71.566 71.566 0 01-.41 7.463 4.595 4.595 0 01-1.5 2.878 4.625 4.625 0 01-3.04 1.166h-100.57a38.58 38.58 0 0011.93 26.734 38.723 38.723 0 0027.3 10.698 35.343 35.343 0 0022.38-6.262 35.152 35.152 0 0013.6-18.794 4.647 4.647 0 015.78-2.77l20.01 7.078a4.289 4.289 0 012.61 2.366c.28.537.44 1.123.48 1.724.04.601-.04 1.205-.23 1.774a66.079 66.079 0 01-24.93 33.1 66.336 66.336 0 01-39.78 11.795 71.667 71.667 0 01-27.59-5.235 71.421 71.421 0 01-23.43-15.433 79.443 79.443 0 01-16.8-26.671 79.278 79.278 0 01-5.12-31.085c0-48.534 35.36-77.594 69.51-77.594l.04.101zm-568.978 0c43.057 0 69.815 29.505 69.815 76.988a70.745 70.745 0 01-.406 7.462 4.54 4.54 0 01-4.54 4.044H564.624a38.538 38.538 0 0011.983 26.872 38.73 38.73 0 0027.485 10.641 35.276 35.276 0 0022.382-6.252 35.133 35.133 0 0013.6-18.804 4.578 4.578 0 012.322-2.561 4.591 4.591 0 013.456-.209l20.089 7.058a4.282 4.282 0 012.615 2.366 4.564 4.564 0 010 3.498 66.065 66.065 0 01-24.911 33.087 66.318 66.318 0 01-39.756 11.808 71.704 71.704 0 01-27.639-5.221 71.534 71.534 0 01-23.485-15.447 79.846 79.846 0 01-16.778-26.68 79.72 79.72 0 01-5.136-31.076c0-48.534 35.354-77.594 69.532-77.594l-.061.02zm-152.321 0c19.319 0 34.948 4.671 46.523 13.913a50.561 50.561 0 0116.664 24.106 3.136 3.136 0 01-.394 2.385 3.138 3.138 0 01-1.978 1.396l-23.981 7.907a4.647 4.647 0 01-3.305 0 3.488 3.488 0 01-1.885-2.184c-2.027-7.745-9-20.748-31.684-20.748-15.832 0-25.319 9.059-25.319 17.836 0 5.824 3.02 13.327 17.291 16.037l26.353 4.934c29.455 5.925 46.321 22.002 46.321 44.389v-.384c0 22.244-21.448 46.006-61.301 46.006-46.22 0-64.383-26.087-67.728-41.477a3.322 3.322 0 012.453-3.66l24.731-7.685a3.76 3.76 0 011.338 0 4.177 4.177 0 012.028.486 3.406 3.406 0 011.824 2.224c3.122 14.803 16.521 23.62 35.8 23.62 17.94 0 26.109-9.363 26.109-17.856 0-8.494-7.277-14.743-19.785-17.25l-27.731-5.379c-25.867-4.874-41.983-20.911-41.983-41.78 0-25.4 27.347-46.836 59.639-46.836zM1466.75 66.027a4.936 4.936 0 014.64 4.934v40.445h26.01a4.961 4.961 0 014.6 4.935v21.557a4.595 4.595 0 01-1.34 3.281 4.653 4.653 0 01-3.26 1.391h-26.01v71.972c0 11.931 4.74 16.866 16.95 16.866 2.78-.047 5.56-.276 8.31-.688a4.63 4.63 0 013.77 1.031 5.1 5.1 0 011.16 1.618c.27.612.41 1.272.42 1.942v20.222a4.622 4.622 0 01-.91 2.798 4.689 4.689 0 01-2.41 1.692 64.252 64.252 0 01-18.25 2.366c-26.07 0-42.22-16.724-42.22-43.701v-75.815h-22.51a4.969 4.969 0 01-3.22-1.459 4.972 4.972 0 01-1.42-3.233v-21.598a4.873 4.873 0 011.34-3.391 4.907 4.907 0 013.3-1.543h5.84c7.08 0 19-2.467 19-19.292V70.96a4.909 4.909 0 014.64-4.934h21.57zm-488.141 65.258a53.47 53.47 0 0120.367-18.277 53.617 53.617 0 0126.764-5.828c25.7 0 51.67 18.059 51.67 57.513v91.326a4.935 4.935 0 01-1.43 3.234 4.974 4.974 0 01-3.23 1.457h-23.7a4.947 4.947 0 01-3.21-1.464 4.922 4.922 0 01-1.43-3.227v-88.394c0-11.183-3.51-30.03-27.24-30.03-17.357 0-29.682 13.61-29.682 33.347v85.077a4.933 4.933 0 01-1.42 3.232 4.951 4.951 0 01-3.222 1.459h-24.002a4.974 4.974 0 01-3.229-1.457 4.952 4.952 0 01-1.433-3.234v-88.394c.04-11.183-3.446-30.111-27.205-30.111-18.041 0-30.204 13.509-30.204 33.63v84.875a4.962 4.962 0 01-4.642 4.691h-23.678a4.934 4.934 0 01-4.601-4.691V116.037a4.953 4.953 0 011.41-3.215 4.972 4.972 0 013.191-1.476h22.786a4.97 4.97 0 013.216 1.464 4.949 4.949 0 011.426 3.227v8.433a53.287 53.287 0 0118.173-12.923 53.41 53.41 0 0121.884-4.367 47.428 47.428 0 0124.708 6.11 47.278 47.278 0 0117.963 17.995zm361.061-24.105a50.132 50.132 0 0122.08 4.092 49.992 49.992 0 0118.07 13.32 64.965 64.965 0 0113.24 42.164v89.263a4.921 4.921 0 01-1.39 3.218 4.942 4.942 0 01-3.19 1.473h-23.98a4.999 4.999 0 01-3.23-1.462 4.924 4.924 0 01-1.43-3.229v-84.491c0-22.103-10.42-33.347-30.21-33.347-4.31-.138-8.58.736-12.49 2.552a27.4 27.4 0 00-9.99 7.903 43.18 43.18 0 00-7.72 26.29v81.093a4.97 4.97 0 01-4.65 4.691h-23.94a4.947 4.947 0 01-3.21-1.464 4.922 4.922 0 01-1.43-3.227V115.936c.05-1.22.55-2.379 1.41-3.25a4.936 4.936 0 013.23-1.462h23.4c1.21.079 2.34.598 3.19 1.46a4.92 4.92 0 011.41 3.212v9.869a51.506 51.506 0 0118.28-13.961 51.618 51.618 0 0122.55-4.624zm-576.183 31.305c-23.352 0-38.171 16.562-38.171 43.195s14.636 43.176 38.171 43.176c22.441 0 37.564-17.372 37.564-43.176 0-25.804-15.123-43.195-37.564-43.195zm-162.922-1.335a34.653 34.653 0 00-23.45 8.594 34.492 34.492 0 00-11.539 22.104h70.343c-1.683-18.949-15.184-30.698-35.354-30.698zm569.125 0a34.666 34.666 0 00-23.42 8.613 34.537 34.537 0 00-11.53 22.085h70.36c-1.74-18.949-15.16-30.698-35.43-30.698h.02z"/>
    <path d="M423.25 12.518v47.038h-13.359V12.518h-18.468V1.112h50.497v11.406h-18.67zM525.297 59.758h-13.886L498.68 16.684l-12.953 43.074h-13.603l-17.23-58.646h14.19l10.926 42.245 12.325-42.245h14.19l12.163 42.245L529.27 1.112h13.055l-17.028 58.646zM560.711 59.556V1.112h13.156v58.444h-13.156zM597.544 59.556V1.112h13.359V48.05h22.867v11.507h-36.226zM653.676 59.556V1.112h13.258v58.444h-13.258zM716.538 60.668c-16.217 0-29.191-11.608-29.191-30.233S700.504.101 716.64.101s29.17 11.608 29.17 30.334-13.054 30.233-29.272 30.233zm0-49.87c-10.135 0-16.034 8.333-16.034 19.536 0 11.203 6.081 19.636 16.034 19.636 9.954 0 15.812-8.534 15.812-19.535S726.431 10.8 716.64 10.8h-.102z"/>
  </g>
  <defs>
    <clipPath id="clip0">
      <path fill="#fff" d="M0 0h1502v322.268H0z"/>
    </clipPath>
  </defs>
</svg>
