<svg width="138" height="40" viewBox="0 0 138 40" fill="none" xmlns="http://www.w3.org/2000/svg">
<path d="M38.3125 34.308C38.3125 33.7805 38.4437 33.2531 38.8372 32.7256C39.2307 32.1981 39.7555 31.6706 40.5425 31.275V31.1432C40.149 30.8794 39.8866 30.6157 39.4931 30.2201C39.2307 29.8245 39.0996 29.297 39.0996 28.7695C39.0996 28.3739 39.2307 27.8464 39.4931 27.3189C39.7555 26.7915 40.149 26.3959 40.6737 26.1321V26.0003C40.149 25.6046 39.7555 25.209 39.3619 24.5497C38.9684 23.8903 38.8372 23.231 38.8372 22.4398C38.8372 21.6486 38.9684 20.9892 39.2307 20.3299C39.4931 19.6705 39.8866 19.143 40.4113 18.7474C40.9361 18.3518 41.4608 17.9562 42.2478 17.6925C42.9037 17.4287 43.6908 17.2969 44.3467 17.2969C45.1337 17.2969 45.7896 17.4287 46.4455 17.6925H52.2173V19.9343H49.0691C49.3314 20.198 49.5938 20.5936 49.8561 21.1211C50.1185 21.5167 50.2497 22.0442 50.2497 22.5716C50.2497 23.3629 50.1185 24.0222 49.8561 24.5497C49.5938 25.209 49.2002 25.6046 48.6755 26.0003C48.1508 26.3959 47.6261 26.6596 46.9702 26.9233C46.3143 27.1871 45.5273 27.1871 44.8714 27.1871C44.4778 27.1871 44.2155 27.1871 43.822 27.0552C43.4284 26.9233 43.0349 26.9233 42.6414 26.6596C41.9855 27.0552 41.7231 27.5827 41.7231 28.1102C41.7231 28.6376 41.9855 29.0332 42.379 29.297C42.9037 29.5607 43.5596 29.6926 44.4778 29.6926H47.4949C49.3314 29.6926 50.6432 29.9563 51.5614 30.4838C52.4797 31.0113 52.8732 31.9344 52.8732 33.1212C52.8732 33.7805 52.742 34.4399 52.3485 34.9674C51.955 35.6267 51.4303 36.0223 50.7744 36.5498C50.1185 36.9454 49.2002 37.341 48.282 37.6047C47.3638 37.8685 46.1832 38.0004 45.0026 38.0004C43.0349 38.0004 41.4608 37.7366 40.2802 37.0773C38.8372 36.5498 38.3125 35.6267 38.3125 34.308ZM40.6737 34.0443C40.6737 34.7036 41.0672 35.2311 41.7231 35.6267C42.5102 36.0223 43.5596 36.2861 44.8714 36.2861C45.6584 36.2861 46.3143 36.1542 46.839 36.0223C47.4949 35.8904 48.0196 35.6267 48.4132 35.4948C48.8067 35.2311 49.2002 34.9674 49.4626 34.7036C49.725 34.4399 49.8561 34.0443 49.8561 33.7805C49.8561 33.1212 49.5938 32.7256 49.0691 32.5937C48.5444 32.33 47.7573 32.33 46.839 32.33H44.3467C43.9531 32.33 43.5596 32.33 43.1661 32.33C42.7725 32.33 42.5102 32.1981 42.2478 32.1981C41.7231 32.4618 41.3296 32.8575 41.0672 33.2531C40.8049 33.2531 40.6737 33.6487 40.6737 34.0443ZM44.609 25.6046C45.3961 25.6046 46.052 25.3409 46.7079 24.8134C47.2326 24.2859 47.6261 23.4947 47.6261 22.5716C47.6261 21.6486 47.3638 20.8573 46.7079 20.3299C46.1832 19.8024 45.3961 19.5387 44.609 19.5387C43.822 19.5387 43.1661 19.8024 42.5102 20.3299C41.9855 20.8573 41.5919 21.6486 41.5919 22.5716C41.5919 23.4947 41.8543 24.2859 42.5102 24.8134C43.1661 25.3409 43.822 25.6046 44.609 25.6046Z" fill="#050505"/>
<path d="M16.7907 32.1982H14.4295L14.1672 29.8246H14.036C13.3801 30.6158 12.593 31.2752 11.6748 31.8026C10.8877 32.3301 9.83832 32.5938 8.7889 32.5938C7.08359 32.5938 5.77181 32.0664 4.98475 31.1433C4.19768 30.0883 3.80415 28.6378 3.80415 26.7916V19.5388L0 19.4069L6.82124 16.7695V18.7476V26.396C6.82124 27.7147 7.08359 28.6378 7.47712 29.2971C7.87066 29.9565 8.65772 30.2202 9.83832 30.2202C10.6254 30.2202 11.2813 30.0883 11.9372 29.6927C12.593 29.2971 13.2489 28.7696 13.9048 27.8466V17.8245H16.7907V32.1982Z" fill="#050505"/>
<path d="M21.6445 17.6935H24.0057L24.2681 20.0671H24.3993C25.1863 19.2759 25.9734 18.6165 26.7605 18.0891C27.5475 17.5616 28.5969 17.2979 29.7775 17.2979C31.4829 17.2979 32.6635 17.8253 33.4505 18.7484C34.2376 19.8034 34.6311 21.2539 34.6311 23.1001V32.0672H31.7452V23.4957C31.7452 22.177 31.4829 21.2539 31.0893 20.7265C30.6958 20.0671 29.9087 19.8034 28.7281 19.8034C27.9411 19.8034 27.2852 19.9352 26.6293 20.3308C25.9734 20.7265 25.3175 21.2539 24.5304 22.0451V32.0672H21.6445V17.6935Z" fill="#050505"/>
<path d="M67.293 24.9463C67.293 23.7594 67.5553 22.7045 67.9489 21.7814C68.3424 20.8583 68.8671 20.0671 69.6542 19.4078C70.3101 18.7484 71.0971 18.2209 72.0154 17.8253C72.9336 17.4297 73.8518 17.2979 74.7701 17.2979C75.8195 17.2979 76.7378 17.4297 77.656 17.8253C78.4431 18.2209 79.2301 18.6165 79.7548 19.2759C80.2796 19.9352 80.8043 20.5946 81.0666 21.3858C81.329 22.177 81.4601 23.1001 81.4601 24.1551C81.4601 24.4188 81.4601 24.6825 81.4601 24.9463C81.4601 25.21 81.4601 25.4737 81.329 25.6056H70.4412C70.5724 27.0562 71.0971 28.1111 72.0154 28.9023C72.9336 29.6936 74.1142 30.0892 75.6883 30.0892C76.4754 30.0892 77.2625 29.9573 77.9184 29.8254C78.5742 29.5617 79.2301 29.298 79.886 28.9023L80.9354 30.7485C80.1484 31.276 79.3613 31.6716 78.4431 31.9353C77.5248 32.1991 76.4754 32.4628 75.2948 32.4628C74.2454 32.4628 73.196 32.331 72.2777 31.9353C71.3595 31.5397 70.4412 31.1441 69.7853 30.4848C69.1295 29.8254 68.4736 29.0342 68.08 28.1111C67.5553 27.1881 67.293 26.1331 67.293 24.9463ZM78.7054 23.6276C78.7054 22.3089 78.3119 21.2539 77.656 20.5946C77.0001 19.9352 76.0819 19.5396 74.7701 19.5396C73.7207 19.5396 72.6713 19.9352 71.8842 20.5946C71.0971 21.2539 70.5724 22.3089 70.3101 23.6276H78.7054Z" fill="#050505"/>
<path d="M91.0399 17.1649V32.4617H88.154V21.2528H82.6445L91.0399 17.1649ZM89.3346 14.2638C88.6787 14.2638 88.154 14.1319 87.7605 13.7363C87.3669 13.3407 87.1046 12.8132 87.1046 12.1539C87.1046 11.4945 87.3669 10.967 87.7605 10.5714C88.154 10.1758 88.6787 10.0439 89.3346 10.0439C89.9905 10.0439 90.5152 10.1758 90.9087 10.5714C91.3023 10.967 91.5646 11.4945 91.5646 12.1539C91.5646 12.8132 91.3023 13.3407 90.9087 13.7363C90.5152 14 89.9905 14.2638 89.3346 14.2638Z" fill="#050505"/>
<path d="M95.1055 25.209C95.1055 24.0221 95.3678 22.9672 95.7614 21.9122C96.1549 20.9891 96.8108 20.1979 97.5978 19.5386C98.3849 18.8792 99.172 18.3518 100.221 18.088C101.14 17.6924 102.189 17.5605 103.37 17.5605C104.55 17.5605 105.6 17.8243 106.518 18.2199C107.436 18.6155 108.092 19.143 108.748 19.6705L107.305 21.5166C106.78 20.9891 106.124 20.7254 105.469 20.4617C104.813 20.1979 104.157 20.0661 103.501 20.0661C102.714 20.0661 102.058 20.1979 101.402 20.4617C100.746 20.7254 100.221 21.121 99.6967 21.5166C99.172 21.9122 98.9096 22.5716 98.6473 23.2309C98.3849 23.8903 98.2537 24.5496 98.2537 25.3408C98.2537 26.1321 98.3849 26.7914 98.6473 27.4507C98.9096 28.1101 99.3032 28.6376 99.6967 29.165C100.221 29.5607 100.746 29.9563 101.402 30.22C102.058 30.4837 102.714 30.6156 103.501 30.6156C104.419 30.6156 105.206 30.4837 105.862 30.0881C106.518 29.6925 107.174 29.2969 107.83 28.9013L109.01 30.7475C108.223 31.4068 107.305 32.0662 106.256 32.4618C105.206 32.8574 104.288 32.9893 103.238 32.9893C102.058 32.9893 101.008 32.8574 100.09 32.4618C99.172 32.0662 98.2537 31.6706 97.5978 31.0112C96.942 30.3519 96.2861 29.5607 95.8925 28.6376C95.2366 27.5826 95.1055 26.5277 95.1055 25.209Z" fill="#050505"/>
<path d="M109.004 11.4949L115.169 8.46191V17.0334L115.038 20.3302C115.825 19.5389 116.612 18.8796 117.399 18.484C118.186 17.9565 119.236 17.6928 120.416 17.6928C122.122 17.6928 123.302 18.2202 124.089 19.1433C124.876 20.1983 125.27 21.6488 125.27 23.495V32.4621H122.384V23.8906C122.384 22.5719 122.122 21.6488 121.728 21.1214C121.335 20.462 120.548 20.1983 119.367 20.1983C118.58 20.1983 117.924 20.3302 117.268 20.7258C116.612 21.1214 115.956 21.6488 115.169 22.4401V32.4621H112.283V11.363L109.004 11.4949Z" fill="#050505"/>
<path d="M125.668 4.90137L124.75 7.01128H136.95L137.999 4.90137H125.668Z" fill="#050505"/>
<path d="M124.749 9.51758L123.699 11.6275H136.03L136.948 9.51758H124.749Z" fill="#050505"/>
<path d="M127.109 14.132L132.75 2L134.98 2.13187L129.339 14.132H127.109Z" fill="#050505"/>
<path d="M59.9436 27.4496C59.9436 28.3727 60.206 29.1639 60.7307 29.5595C61.2554 29.9551 61.9113 30.2188 62.5672 30.2188C62.9607 30.2188 63.3542 30.2188 63.7478 30.087C64.1413 29.9551 64.5348 29.8232 65.0595 29.6913L65.7154 31.8013C65.4531 31.9331 65.0595 32.065 64.7972 32.065C64.5348 32.1969 64.1413 32.1969 63.8789 32.3287C63.6166 32.4606 63.223 32.4606 62.9607 32.4606C62.5672 32.4606 62.3048 32.5925 61.9113 32.5925C60.3371 32.5925 59.1565 32.1969 58.3695 31.2738C57.5824 30.3507 57.1889 29.032 57.1889 27.3177V8.19665H52.5977L59.9436 2.92188" fill="#050505"/>
</svg>
