<svg width="181" height="37" viewBox="0 0 181 37" fill="none" xmlns="http://www.w3.org/2000/svg">
<path d="M58.4145 20.6246C58.4145 24.2479 55.8554 25.8113 52.9873 25.8113C50.1078 25.8113 47.5481 24.2479 47.5481 20.6246V14.0406H50.6411V20.3522C50.6411 22.1879 51.6482 22.9335 52.9873 22.9335C54.3149 22.9335 55.3335 22.1879 55.3335 20.3522V14.0406H58.4145V20.6246ZM71.9469 18.2093C71.9469 15.5444 70.0866 13.7327 67.4794 13.7327C66.1764 13.7327 64.9198 14.171 64.1026 15.391V14.0406H61.0926V25.5154H64.1856V19.2272C64.1856 17.4985 65.2877 16.6339 66.6148 16.6339C68.0248 16.6339 68.8539 17.546 68.8539 19.2038V25.5154H71.9469V18.2093ZM77.7181 14.0406H74.6251V25.5154H77.7181V14.0406ZM78.1329 10.2862C78.1329 9.17318 77.2683 8.29651 76.1541 8.29651C75.0399 8.29651 74.1873 9.17318 74.1873 10.2862C74.1873 11.3997 75.0399 12.2523 76.1541 12.2523C77.2683 12.2523 78.1329 11.3997 78.1329 10.2862ZM88.8213 14.0406H84.6623V10.6301H81.5693V14.0406H79.3529V16.7878H81.5693V21.2289C81.5693 24.201 83.0268 25.8119 85.8702 25.8119C87.5057 25.8119 88.6674 25.2906 89.6746 24.6039L88.5369 22.1879C87.9086 22.5668 87.1149 22.9341 86.3801 22.9341C85.4205 22.9341 84.6623 22.4128 84.6623 20.98V16.7878H88.8213V14.0406ZM93.5613 18.6945C93.8336 17.2737 94.6869 16.397 96.1444 16.397C97.4714 16.397 98.3601 17.2262 98.6445 18.6945H93.5613ZM101.75 19.7606C101.738 16.1841 99.4749 13.7327 96.169 13.7327C92.7321 13.7327 90.3624 16.1962 90.3624 19.8081C90.3624 23.4194 92.8036 25.8119 96.3229 25.8119C98.2543 25.8119 99.9132 25.2671 101.217 24.0706L99.4039 22.0815C98.5741 22.7802 97.496 23.1825 96.5009 23.1825C95.0428 23.1825 93.8817 22.4603 93.5498 20.8026H101.691C101.725 20.5422 101.75 20.1159 101.75 19.7606ZM106.253 19.772C106.253 18.0193 107.402 16.6104 109.216 16.6104C110.981 16.6104 112.178 17.9603 112.178 19.772C112.178 21.5843 110.981 22.9341 109.216 22.9341C107.402 22.9341 106.253 21.5247 106.253 19.772ZM112.024 15.2365C111.277 14.3364 110.187 13.7327 108.646 13.7327C105.483 13.7327 103.089 16.326 103.089 19.772C103.089 23.2179 105.483 25.8119 108.646 25.8119C110.222 25.8119 111.336 25.1721 112.083 24.2485V25.5154H115.105V8.46306H112.024V15.2365ZM121.836 23.5023C121.836 22.2709 120.769 21.2169 119.549 21.2169C118.316 21.2169 117.239 22.2709 117.239 23.5023C117.239 24.7458 118.316 25.8119 119.549 25.8119C120.769 25.8119 121.836 24.7458 121.836 23.5023ZM133.97 15.8997C132.915 14.5144 131.292 13.7327 129.372 13.7327C125.711 13.7327 123.258 16.3026 123.258 19.772C123.258 23.2534 125.711 25.8119 129.372 25.8119C131.292 25.8119 132.904 25.0422 133.982 23.6563L131.778 21.7737C131.126 22.4844 130.273 22.9341 129.277 22.9341C127.677 22.9341 126.41 21.6907 126.41 19.772C126.41 17.8659 127.689 16.6104 129.289 16.6104C130.297 16.6104 131.043 17.0133 131.742 17.7589L133.97 15.8997ZM138.842 8.36085H135.749V25.4132H138.842V8.36085ZM144.038 19.7149C144.038 17.8557 145.342 16.5533 147.084 16.5533C148.826 16.5533 150.141 17.8557 150.141 19.7149C150.141 21.574 148.826 22.8764 147.084 22.8764C145.342 22.8764 144.038 21.574 144.038 19.7149ZM153.305 19.7149C153.305 16.2569 150.663 13.6756 147.084 13.6756C143.517 13.6756 140.886 16.2569 140.886 19.7149C140.886 23.1728 143.517 25.7542 147.084 25.7542C150.663 25.7542 153.305 23.1728 153.305 19.7149ZM166.184 13.9834H163.103V20.2951C163.103 22.1308 162.083 22.8764 160.756 22.8764C159.417 22.8764 158.41 22.1308 158.41 20.2951V13.9834H155.317V20.5675C155.317 24.1908 157.877 25.7542 160.756 25.7542C163.624 25.7542 166.184 24.1908 166.184 20.5675V13.9834ZM171.315 19.7149C171.315 17.9621 172.464 16.5533 174.277 16.5533C176.043 16.5533 177.239 17.9032 177.239 19.7149C177.239 21.5271 176.043 22.877 174.277 22.877C172.464 22.877 171.315 21.4676 171.315 19.7149ZM177.085 15.1794C176.339 14.2793 175.249 13.6756 173.709 13.6756C170.545 13.6756 168.151 16.2689 168.151 19.7149C168.151 23.1608 170.545 25.7548 173.709 25.7548C175.284 25.7548 176.398 25.115 177.145 24.1914V25.4583H180.166V8.40594H177.085V15.1794Z" fill="black"/>
<mask id="mask0_1254_5832" style="mask-type:luminance" maskUnits="userSpaceOnUse" x="0" y="0" width="37" height="37">
<path d="M7.83666 15.038L1.48171 12.8962C2.54417 9.74727 4.45926 6.9489 7.01892 4.80593C9.61045 2.63711 12.7425 1.24093 16.079 0.768921L17.0189 7.40588C14.9246 7.70231 12.9566 8.58018 11.3259 9.9445C9.71146 11.2962 8.50469 13.0573 7.83666 15.038ZM18.6357 36.7689C28.6164 36.7689 36.7361 28.654 36.7361 18.6793H30.0288C30.0288 24.9579 24.9179 30.0652 18.6357 30.0652C12.3535 30.0652 7.2426 24.9579 7.2426 18.6793C7.2426 18.5308 7.2462 18.3805 7.25101 18.2314L0.549117 17.9758C0.540098 18.2091 0.535889 18.446 0.535889 18.6793C0.535889 28.654 8.65501 36.7689 18.6357 36.7689ZM30.511 5.0266C27.8696 2.73031 24.6473 1.25837 21.193 0.768921L20.2526 7.40588C22.4214 7.71314 24.4471 8.63911 26.109 10.084L30.511 5.0266Z" fill="white"/>
</mask>
<g mask="url(#mask0_1254_5832)">
<path d="M37.0427 0.768921H0.229736V36.7689H37.0427V0.768921Z" fill="url(#paint0_linear_1254_5832)"/>
</g>
<defs>
<linearGradient id="paint0_linear_1254_5832" x1="0.432911" y1="0.565746" x2="36.8394" y2="36.9722" gradientUnits="userSpaceOnUse">
<stop stop-color="#00BEFF"/>
<stop offset="1" stop-color="#00F0BE"/>
</linearGradient>
</defs>
</svg>
