<svg width="130" height="40" viewBox="0 0 130 40" fill="none" xmlns="http://www.w3.org/2000/svg">
<path d="M0 22.4964V8.00098H3.88777V22.4278C3.88777 25.6416 6.22664 28.0683 9.32444 28.0683C12.4547 28.0683 14.7604 25.6409 14.7604 22.4278V8.00098H18.6813V22.4964C18.6813 27.9318 14.6609 32 9.32444 32C4.02037 32 0 27.9318 0 22.4964Z" fill="#152E30"/>
<path d="M27.4924 17.6399V28.0692H31.8746V31.5902H23.8021V17.6399H20.6719V14.1545H23.8021V8.0293H27.4924V14.1545H31.8746V17.6399H27.4924Z" fill="#152E30"/>
<path d="M60.3416 20.2726V31.5864H56.6513V21.4005C56.6513 19.0075 55.2011 17.4352 52.9279 17.4352C50.5551 17.4352 48.9414 19.0418 48.9414 21.4691V31.5884H45.2518V21.4005C45.2518 19.0075 43.8023 17.4352 41.5291 17.4352C39.1563 17.4352 37.5425 19.0418 37.5425 21.4691V31.5884H33.8516V14.1528H37.5425V16.4094C38.103 15.569 38.876 14.8825 39.7876 14.4156C40.6991 13.9487 41.7186 13.717 42.7486 13.7428C43.9113 13.6928 45.0623 13.9861 46.0503 14.5841C47.0383 15.182 47.817 16.0567 48.284 17.093C48.8417 16.0573 49.687 15.1944 50.7238 14.6022C51.7606 14.01 52.9474 13.7123 54.1495 13.7428C57.8701 13.7428 60.3416 16.3408 60.3416 20.2726Z" fill="#152E30"/>
<path d="M61.8398 22.8717C61.8398 17.6749 65.6952 13.7432 70.8349 13.7432C75.9415 13.7432 79.8292 17.6749 79.8292 22.8717C79.8292 28.0685 75.9415 31.9996 70.8349 31.9996C65.6952 31.9989 61.8398 28.0678 61.8398 22.8717ZM76.0078 22.8717C76.0078 19.795 73.8008 17.4356 70.8356 17.4356C67.8704 17.4356 65.6296 19.795 65.6296 22.8717C65.6296 25.9484 67.8704 28.3071 70.8356 28.3071C73.8008 28.3071 76.0078 25.9477 76.0078 22.8717Z" fill="#152E30"/>
<path d="M81.1602 26.4612H84.916C84.9122 26.753 84.9682 27.0426 85.081 27.3131C85.1937 27.5837 85.3608 27.8296 85.5725 28.0365C85.7842 28.2435 86.0362 28.4073 86.3138 28.5184C86.5914 28.6295 86.8891 28.6856 87.1893 28.6835C87.4552 28.7018 87.7222 28.6683 87.9746 28.5849C88.227 28.5016 88.4597 28.3701 88.6592 28.1982C88.8586 28.0263 89.0208 27.8174 89.1361 27.5837C89.2514 27.3501 89.3175 27.0964 89.3307 26.8376C89.3307 25.5382 88.0787 24.8546 86.3683 24.376C83.8996 23.7266 81.3929 22.393 81.3929 19.0084C81.3929 15.6582 84.0287 13.7437 87.0927 13.7437C87.8323 13.7113 88.571 13.8239 89.265 14.0748C89.9589 14.3258 90.5938 14.7099 91.1318 15.2043C91.6698 15.6988 92.1 16.2934 92.3967 16.9528C92.6933 17.6123 92.8505 18.323 92.8587 19.0427H89.1028C89.1074 18.7807 89.0575 18.5204 88.9562 18.2775C88.8549 18.0346 88.7043 17.8141 88.5134 17.629C88.3225 17.444 88.0951 17.2983 87.845 17.2006C87.5948 17.1029 87.3269 17.0552 87.0574 17.0604C86.8165 17.0504 86.5759 17.0866 86.3494 17.1671C86.1229 17.2476 85.9149 17.3708 85.7375 17.5295C85.56 17.6882 85.4164 17.8794 85.3151 18.0921C85.2137 18.3048 85.1565 18.5349 85.1467 18.7691C85.1467 19.9999 86.333 20.7178 88.1796 21.1965C90.9141 21.9144 93.0887 23.3845 93.0887 26.4954C93.0887 29.9486 90.4535 31.9994 87.1583 31.9994C83.6641 31.9988 81.1602 29.5371 81.1602 26.4612Z" fill="#152E30"/>
<path d="M101.375 17.6417V28.0683H105.757V31.5886H97.6849V17.6417H94.5547V14.1543H97.6849V8.00098H101.375V14.1543H105.757V17.6417H101.375Z" fill="#152E30"/>
<path d="M130 16.1948L127.519 18.6064L122.598 23.3904L120.117 20.9788L125.038 16.1948L120.117 11.4108L122.598 9.00195L130 16.1948Z" fill="#FF3300"/>
<path d="M117.442 8.00079H120.117V11.4114H117.502C116.853 11.3974 116.209 11.5113 115.607 11.746C115.006 11.9808 114.459 12.3316 114.001 12.7774C113.542 13.2231 113.182 13.7545 112.94 14.3394C112.699 14.9244 112.582 15.5509 112.596 16.181C112.578 16.8134 112.693 17.4428 112.933 18.0309C113.172 18.619 113.533 19.1537 113.991 19.6025C114.45 20.0513 114.998 20.4049 115.601 20.6418C116.204 20.8787 116.851 20.9941 117.502 20.9808H120.117V24.3887H117.442C116.338 24.4029 115.242 24.199 114.221 23.7893C113.2 23.3796 112.275 22.7727 111.502 22.0054C110.729 21.238 110.125 20.3261 109.725 19.325C109.325 18.3239 109.139 17.2543 109.177 16.181C109.142 15.1098 109.33 14.0427 109.731 13.0443C110.132 12.0459 110.737 11.1369 111.51 10.3723C112.282 9.60765 113.207 9.00327 114.226 8.59566C115.246 8.18806 116.34 7.98569 117.442 8.00079Z" fill="#152E30"/>
<path d="M118.058 13.5283L119.046 14.4883L121.009 16.3972L120.022 17.3572L118.058 15.4482L116.097 17.3613L115.109 16.4013L118.058 13.5283Z" fill="#152E30"/>
</svg>
