<svg width="122" height="48" viewBox="0 0 122 48" fill="none" xmlns="http://www.w3.org/2000/svg">
<path d="M0 25.8924V12.001H3.64852V25.8267C3.64852 28.9066 5.84346 31.2321 8.75062 31.2321C11.6882 31.2321 13.8521 28.9059 13.8521 25.8267V12.001H17.5317V25.8924C17.5317 31.1014 13.7587 35 8.75062 35C3.77296 35 0 31.1014 0 25.8924Z" fill="#141A1F"/>
<path d="M25.8012 21.2385V31.2332H29.9137V34.6075H22.338V21.2385H19.4004V17.8983H22.338V12.0283H25.8012V17.8983H29.9137V21.2385H25.8012Z" fill="#141A1F"/>
<path d="M56.6294 23.761V34.6034H53.1662V24.842C53.1662 22.5486 51.8053 21.0419 49.6719 21.0419C47.4452 21.0419 45.9307 22.5815 45.9307 24.9077V34.6054H42.4682V24.842C42.4682 22.5486 41.1079 21.0419 38.9746 21.0419C36.7479 21.0419 35.2334 22.5815 35.2334 24.9077V34.6054H31.7695V17.8962H35.2334V20.0588C35.7594 19.2534 36.4848 18.5955 37.3402 18.1481C38.1957 17.7006 39.1525 17.4786 40.119 17.5033C41.2102 17.4554 42.2904 17.7365 43.2176 18.3095C44.1447 18.8826 44.8755 19.7208 45.3138 20.714C45.8372 19.7214 46.6304 18.8944 47.6034 18.3269C48.5764 17.7594 49.6902 17.474 50.8184 17.5033C54.31 17.5033 56.6294 19.9931 56.6294 23.761Z" fill="#141A1F"/>
<path d="M58.0352 26.2521C58.0352 21.2718 61.6532 17.5039 66.4767 17.5039C71.269 17.5039 74.9175 21.2718 74.9175 26.2521C74.9175 31.2324 71.269 34.9996 66.4767 34.9996C61.6532 34.999 58.0352 31.2317 58.0352 26.2521ZM71.3312 26.2521C71.3312 23.3036 69.26 21.0425 66.4773 21.0425C63.6946 21.0425 61.5917 23.3036 61.5917 26.2521C61.5917 29.2006 63.6946 31.4611 66.4773 31.4611C69.26 31.4611 71.3312 29.1999 71.3312 26.2521Z" fill="#141A1F"/>
<path d="M76.166 29.6918H79.6908C79.6871 29.9714 79.7398 30.249 79.8455 30.5083C79.9513 30.7675 80.1081 31.0032 80.3068 31.2015C80.5055 31.3998 80.742 31.5568 81.0025 31.6633C81.2631 31.7697 81.5424 31.8235 81.8241 31.8215C82.0737 31.839 82.3242 31.8069 82.5611 31.7271C82.798 31.6472 83.0164 31.5212 83.2036 31.3564C83.3907 31.1917 83.5429 30.9915 83.6511 30.7676C83.7593 30.5437 83.8214 30.3006 83.8337 30.0525C83.8337 28.8073 82.6588 28.1522 81.0537 27.6935C78.7369 27.0712 76.3845 25.7931 76.3845 22.5496C76.3845 19.3389 78.8581 17.5042 81.7334 17.5042C82.4275 17.4732 83.1209 17.5811 83.7721 17.8215C84.4233 18.062 85.0191 18.4301 85.524 18.904C86.0289 19.3778 86.4326 19.9477 86.711 20.5796C86.9895 21.2116 87.1369 21.8927 87.1447 22.5824H83.6199C83.6242 22.3313 83.5774 22.0819 83.4823 21.8491C83.3873 21.6164 83.2459 21.405 83.0667 21.2277C82.8876 21.0503 82.6742 20.9107 82.4395 20.8171C82.2047 20.7234 81.9533 20.6777 81.7004 20.6827C81.4743 20.6731 81.2485 20.7079 81.0359 20.785C80.8233 20.8621 80.6282 20.9801 80.4616 21.1323C80.2951 21.2844 80.1604 21.4676 80.0652 21.6714C79.9701 21.8753 79.9164 22.0958 79.9072 22.3202C79.9072 23.4998 81.0206 24.1878 82.7535 24.6464C85.3197 25.3344 87.3605 26.7433 87.3605 29.7246C87.3605 33.0339 84.8875 34.9993 81.795 34.9993C78.5158 34.9986 76.166 32.6396 76.166 29.6918Z" fill="#141A1F"/>
<path d="M95.1352 21.24V31.2321H99.2477V34.6058H91.672V21.24H88.7344V17.8979H91.672V12.001H95.1352V17.8979H99.2477V21.24H95.1352Z" fill="#141A1F"/>
<path d="M122.001 19.8531L119.673 22.1642L115.055 26.7489L112.727 24.4378L117.345 19.8531L112.727 15.2684L115.055 12.96L122.001 19.8531Z" fill="#141A1F"/>
<path d="M110.215 12.0008H112.725V15.2692H110.27C109.662 15.2559 109.057 15.365 108.493 15.59C107.928 15.8149 107.415 16.1511 106.985 16.5783C106.555 17.0054 106.216 17.5147 105.989 18.0753C105.763 18.6359 105.653 19.2363 105.667 19.8401C105.65 20.4462 105.757 21.0493 105.982 21.613C106.207 22.1766 106.545 22.689 106.976 23.1191C107.406 23.5492 107.92 23.888 108.487 24.1151C109.053 24.3421 109.66 24.4526 110.27 24.44H112.725V27.7058H110.215C109.178 27.7194 108.15 27.524 107.191 27.1314C106.233 26.7388 105.365 26.1572 104.64 25.4218C103.914 24.6864 103.347 23.8126 102.972 22.8531C102.597 21.8937 102.422 20.8687 102.458 19.8401C102.425 18.8135 102.602 17.7909 102.978 16.8341C103.354 15.8773 103.922 15.0062 104.647 14.2734C105.372 13.5407 106.24 12.9615 107.196 12.5708C108.153 12.1802 109.18 11.9863 110.215 12.0008Z" fill="#141A1F"/>
<path d="M110.793 17.2979L111.72 18.2178L113.562 20.0472L112.636 20.9672L110.793 19.1378L108.952 20.9711L108.025 20.0512L110.793 17.2979Z" fill="#141A1F"/>
</svg>
