<?xml version="1.0" encoding="UTF-8"?>
<svg xmlns="http://www.w3.org/2000/svg" xmlns:xlink="http://www.w3.org/1999/xlink" width="205px" height="56px" viewBox="0 0 205 56" version="1.1">
<defs>
<radialGradient id="radial0" gradientUnits="userSpaceOnUse" cx="541.72998" cy="27.469999" fx="541.72998" fy="27.469999" r="119.080002" gradientTransform="matrix(0.183743,0,0,0.184258,-82.050436,22.595097)">
<stop offset="0.17" style="stop-color:rgb(100%,100%,100%);stop-opacity:1;"/>
<stop offset="0.3" style="stop-color:rgb(96.470588%,92.941176%,89.411765%);stop-opacity:1;"/>
<stop offset="0.69" style="stop-color:rgb(87.058824%,74.509804%,60.784314%);stop-opacity:1;"/>
<stop offset="0.87" style="stop-color:rgb(83.137255%,67.45098%,49.803922%);stop-opacity:1;"/>
</radialGradient>
</defs>
<g id="surface1">
<path style=" stroke:none;fill-rule:nonzero;fill:rgb(77.254903%,1.960784%,4.705882%);fill-opacity:1;" d="M 63.851562 16.15625 C 66.375 17.0625 65.292969 19.769531 64.722656 21.699219 L 61.074219 33.984375 L 56.589844 19.449219 C 56.136719 17.96875 55.910156 16.898438 56.101562 16.058594 L 51.546875 16.058594 L 51.546875 16.15625 C 53.320312 17.101562 52.675781 19.28125 52.0625 21.332031 L 48.304688 34.085938 L 43.480469 18.476562 C 43.289062 17.835938 42.964844 16.796875 43.09375 16.058594 L 38.378906 16.058594 L 38.378906 16.15625 C 39.996094 17.296875 40.480469 19.484375 41.0625 21.332031 L 44.871094 33.71875 C 45.949219 37.175781 46.222656 36.941406 49.160156 39.136719 L 54.203125 22.183594 L 57.753906 33.746094 C 58.832031 37.203125 59.046875 37.035156 62.015625 39.164062 L 68.839844 16.058594 L 63.867188 16.058594 Z M 63.851562 16.15625 "/>
<path style=" stroke:none;fill-rule:nonzero;fill:rgb(77.254903%,1.960784%,4.705882%);fill-opacity:1;" d="M 69.917969 16.15625 C 71.566406 16.796875 71.339844 19.25 71.339844 20.792969 L 71.339844 33.4375 C 71.339844 34.949219 71.53125 37.433594 69.917969 38.039062 L 69.917969 38.140625 L 76.042969 38.140625 L 76.042969 38.039062 C 74.429688 37.402344 74.625 34.949219 74.625 33.4375 L 74.625 20.792969 C 74.625 19.28125 74.429688 16.796875 76.042969 16.15625 L 76.042969 16.058594 L 69.917969 16.058594 Z M 69.917969 16.15625 "/>
<path style=" stroke:none;fill-rule:nonzero;fill:rgb(77.254903%,1.960784%,4.705882%);fill-opacity:1;" d="M 81.703125 20.996094 C 81.703125 18.679688 84.03125 17.9375 85.871094 17.9375 C 87.769531 17.945312 89.59375 18.703125 90.9375 20.050781 L 90.9375 16.257812 C 89.382812 15.769531 87.761719 15.523438 86.132812 15.535156 C 82.195312 15.535156 78.03125 17.152344 78.03125 21.378906 C 78.03125 28.496094 89.132812 27.554688 89.132812 32.792969 C 89.132812 35.144531 86.359375 36.285156 84.519531 36.285156 C 81.90625 36.230469 79.398438 35.242188 77.445312 33.5 L 78.382812 37.695312 C 80.226562 38.378906 82.179688 38.722656 84.148438 38.703125 C 89.191406 38.703125 92.792969 35.339844 92.792969 31.753906 C 92.8125 25.523438 81.703125 25.59375 81.703125 20.996094 Z M 81.703125 20.996094 "/>
<path style=" stroke:none;fill-rule:nonzero;fill:rgb(77.254903%,1.960784%,4.705882%);fill-opacity:1;" d="M 105.898438 35.902344 C 100.925781 35.902344 97.699219 31.5 97.699219 26.570312 C 97.699219 21.699219 100.796875 18.304688 105.261719 18.304688 C 107.394531 18.351562 109.46875 19.023438 111.226562 20.230469 L 111.226562 16.363281 C 109.308594 15.851562 107.335938 15.574219 105.351562 15.535156 C 98.730469 15.535156 94.015625 20.132812 94.015625 27.097656 C 94.015625 34.28125 98.730469 38.710938 106.351562 38.710938 C 108.03125 38.75 109.699219 38.40625 111.226562 37.703125 L 112.871094 33.8125 L 112.773438 33.8125 C 110.738281 34.996094 108.320312 35.902344 105.898438 35.902344 Z M 105.898438 35.902344 "/>
<path style=" stroke:none;fill-rule:nonzero;fill:rgb(77.254903%,1.960784%,4.705882%);fill-opacity:1;" d="M 124.511719 15.488281 C 117.734375 15.320312 112.40625 20.660156 112.40625 27.050781 C 112.40625 33.9375 117.8125 38.703125 124.191406 38.703125 C 130.574219 38.703125 136.082031 33.734375 136.082031 26.878906 C 136.089844 23.820312 134.867188 20.886719 132.6875 18.742188 C 130.511719 16.597656 127.5625 15.425781 124.511719 15.488281 Z M 124.355469 36.269531 C 119.277344 36.269531 116.089844 31.433594 116.089844 26.734375 C 116.089844 21.675781 119.285156 17.910156 124.292969 17.910156 C 129.386719 17.910156 132.390625 22.640625 132.390625 27.542969 C 132.390625 32.546875 129.261719 36.269531 124.355469 36.269531 Z M 124.355469 36.269531 "/>
<path style=" stroke:none;fill-rule:nonzero;fill:rgb(77.254903%,1.960784%,4.705882%);fill-opacity:1;" d="M 152.660156 16.15625 C 154.371094 17.164062 154.335938 18.507812 154.335938 20.390625 L 154.335938 33.117188 L 142.519531 17.605469 L 142.066406 16.933594 C 141.84375 16.695312 141.675781 16.40625 141.582031 16.09375 L 141.582031 16.058594 L 136.871094 16.058594 L 136.871094 16.15625 C 138.550781 17.164062 138.550781 18.507812 138.550781 20.390625 L 138.550781 33.789062 C 138.550781 35.667969 138.550781 37.007812 136.839844 38.050781 L 136.839844 38.152344 L 142.550781 38.152344 L 142.550781 38.050781 C 140.839844 37.007812 140.875 35.667969 140.875 33.789062 L 140.875 20.78125 L 151.949219 35.40625 C 153.367188 37.320312 154.371094 38.429688 156.660156 39.234375 L 156.660156 20.390625 C 156.660156 18.507812 156.660156 17.164062 158.339844 16.15625 L 158.339844 16.058594 L 152.660156 16.058594 Z M 152.660156 16.15625 "/>
<path style=" stroke:none;fill-rule:nonzero;fill:rgb(77.254903%,1.960784%,4.705882%);fill-opacity:1;" d="M 163.0625 20.996094 C 163.0625 18.679688 165.386719 17.9375 167.226562 17.9375 C 169.128906 17.945312 170.953125 18.703125 172.296875 20.050781 L 172.296875 16.257812 C 170.738281 15.769531 169.117188 15.523438 167.484375 15.535156 C 163.550781 15.535156 159.386719 17.152344 159.386719 21.378906 C 159.386719 28.496094 170.488281 27.554688 170.488281 32.792969 C 170.488281 35.144531 167.710938 36.285156 165.871094 36.285156 C 163.257812 36.230469 160.75 35.242188 158.800781 33.5 L 159.738281 37.695312 C 161.585938 38.382812 163.546875 38.722656 165.519531 38.703125 C 170.5625 38.703125 174.167969 35.339844 174.167969 31.753906 C 174.171875 25.523438 163.0625 25.59375 163.0625 20.996094 Z M 163.0625 20.996094 "/>
<path style=" stroke:none;fill-rule:nonzero;fill:rgb(77.254903%,1.960784%,4.705882%);fill-opacity:1;" d="M 175.386719 16.15625 C 177.03125 16.796875 176.808594 19.25 176.808594 20.792969 L 176.808594 33.4375 C 176.808594 34.949219 177.003906 37.433594 175.386719 38.039062 L 175.386719 38.140625 L 181.511719 38.140625 L 181.511719 38.039062 C 179.894531 37.402344 180.09375 34.949219 180.09375 33.4375 L 180.09375 20.792969 C 180.09375 19.28125 179.894531 16.796875 181.511719 16.15625 L 181.511719 16.058594 L 175.386719 16.058594 Z M 175.386719 16.15625 "/>
<path style=" stroke:none;fill-rule:nonzero;fill:rgb(77.254903%,1.960784%,4.705882%);fill-opacity:1;" d="M 198.933594 16.058594 L 198.933594 16.15625 C 200.648438 17.164062 200.613281 18.507812 200.613281 20.390625 L 200.613281 33.117188 L 188.8125 17.605469 L 188.359375 16.933594 C 188.136719 16.691406 187.972656 16.40625 187.875 16.09375 L 187.875 16.058594 L 183.144531 16.058594 L 183.144531 16.15625 C 184.820312 17.164062 184.820312 18.507812 184.820312 20.390625 L 184.820312 33.789062 C 184.820312 35.667969 184.820312 37.007812 183.113281 38.050781 L 183.113281 38.152344 L 188.8125 38.152344 L 188.8125 38.050781 C 187.101562 37.007812 187.136719 35.667969 187.136719 33.789062 L 187.136719 20.78125 L 198.222656 35.40625 C 199.644531 37.320312 200.648438 38.429688 202.9375 39.234375 L 202.9375 20.390625 C 202.9375 18.507812 202.9375 17.164062 204.613281 16.15625 L 204.613281 16.058594 Z M 198.933594 16.058594 "/>
<path style=" stroke:none;fill-rule:nonzero;fill:rgb(15.686275%,15.294118%,15.686275%);fill-opacity:1;" d="M 48.800781 43.171875 L 48.800781 47.074219 C 48.808594 47.480469 48.710938 47.886719 48.515625 48.242188 C 48.320312 48.578125 48.035156 48.84375 47.6875 49.011719 C 47.285156 49.203125 46.84375 49.292969 46.398438 49.28125 C 45.761719 49.320312 45.136719 49.105469 44.65625 48.6875 C 44.226562 48.257812 44.003906 47.664062 44.039062 47.054688 L 44.039062 43.171875 L 45.019531 43.171875 L 45.019531 46.984375 C 44.996094 47.378906 45.125 47.769531 45.382812 48.070312 C 45.675781 48.332031 46.066406 48.464844 46.460938 48.429688 C 47.386719 48.429688 47.847656 47.941406 47.847656 46.96875 L 47.847656 43.171875 Z M 48.800781 43.171875 "/>
<path style=" stroke:none;fill-rule:nonzero;fill:rgb(15.686275%,15.294118%,15.686275%);fill-opacity:1;" d="M 55.445312 49.199219 L 54.242188 49.199219 L 51.285156 44.394531 L 51.253906 44.394531 L 51.273438 44.667969 C 51.3125 45.175781 51.328125 45.640625 51.328125 46.066406 L 51.328125 49.199219 L 50.4375 49.199219 L 50.4375 43.171875 L 51.632812 43.171875 L 54.578125 47.949219 L 54.605469 47.949219 C 54.605469 47.886719 54.585938 47.65625 54.566406 47.261719 C 54.550781 46.863281 54.542969 46.539062 54.542969 46.328125 L 54.542969 43.171875 L 55.445312 43.171875 Z M 55.445312 49.199219 "/>
<path style=" stroke:none;fill-rule:nonzero;fill:rgb(15.686275%,15.294118%,15.686275%);fill-opacity:1;" d="M 57.214844 49.199219 L 57.214844 43.171875 L 58.199219 43.171875 L 58.199219 49.199219 Z M 57.214844 49.199219 "/>
<path style=" stroke:none;fill-rule:nonzero;fill:rgb(15.686275%,15.294118%,15.686275%);fill-opacity:1;" d="M 63.394531 43.171875 L 64.414062 43.171875 L 62.3125 49.199219 L 61.273438 49.199219 L 59.171875 43.171875 L 60.191406 43.171875 L 61.445312 46.921875 C 61.511719 47.097656 61.582031 47.328125 61.65625 47.609375 C 61.726562 47.894531 61.777344 48.101562 61.800781 48.238281 C 61.835938 48.03125 61.890625 47.789062 61.964844 47.515625 C 62.039062 47.246094 62.097656 47.039062 62.144531 46.90625 Z M 63.394531 43.171875 "/>
<path style=" stroke:none;fill-rule:nonzero;fill:rgb(15.686275%,15.294118%,15.686275%);fill-opacity:1;" d="M 68.792969 49.199219 L 65.390625 49.199219 L 65.390625 43.171875 L 68.792969 43.171875 L 68.792969 44.003906 L 66.375 44.003906 L 66.375 45.644531 L 68.640625 45.644531 L 68.640625 46.46875 L 66.375 46.46875 L 66.375 48.363281 L 68.792969 48.363281 Z M 68.792969 49.199219 "/>
<path style=" stroke:none;fill-rule:nonzero;fill:rgb(15.686275%,15.294118%,15.686275%);fill-opacity:1;" d="M 71.261719 46.789062 L 71.261719 49.199219 L 70.28125 49.199219 L 70.28125 43.171875 L 71.976562 43.171875 C 72.582031 43.125 73.1875 43.277344 73.699219 43.609375 C 74.085938 43.933594 74.292969 44.425781 74.257812 44.929688 C 74.269531 45.664062 73.792969 46.316406 73.09375 46.53125 L 74.789062 49.199219 L 73.667969 49.199219 L 72.226562 46.789062 Z M 71.261719 45.972656 L 71.941406 45.972656 C 72.292969 46.003906 72.640625 45.914062 72.933594 45.722656 C 73.148438 45.53125 73.265625 45.25 73.246094 44.960938 C 73.265625 44.679688 73.140625 44.40625 72.914062 44.238281 C 72.605469 44.070312 72.257812 43.992188 71.910156 44.015625 L 71.261719 44.015625 Z M 71.261719 45.972656 "/>
<path style=" stroke:none;fill-rule:nonzero;fill:rgb(15.686275%,15.294118%,15.686275%);fill-opacity:1;" d="M 79.308594 47.5625 C 79.328125 48.054688 79.113281 48.523438 78.730469 48.824219 C 78.261719 49.152344 77.695312 49.316406 77.125 49.28125 C 76.554688 49.300781 75.984375 49.195312 75.457031 48.964844 L 75.457031 48.050781 C 75.738281 48.183594 76.027344 48.285156 76.328125 48.355469 C 76.613281 48.425781 76.902344 48.464844 77.195312 48.46875 C 77.496094 48.492188 77.796875 48.410156 78.050781 48.242188 C 78.234375 48.101562 78.335938 47.878906 78.328125 47.648438 C 78.332031 47.429688 78.238281 47.21875 78.078125 47.074219 C 77.753906 46.835938 77.402344 46.648438 77.023438 46.515625 C 76.578125 46.367188 76.179688 46.101562 75.863281 45.753906 C 75.636719 45.460938 75.515625 45.097656 75.527344 44.722656 C 75.507812 44.265625 75.707031 43.824219 76.0625 43.535156 C 76.480469 43.230469 76.988281 43.078125 77.503906 43.105469 C 78.09375 43.105469 78.679688 43.226562 79.222656 43.46875 L 78.910156 44.269531 C 78.457031 44.0625 77.964844 43.945312 77.46875 43.929688 C 77.210938 43.914062 76.957031 43.988281 76.746094 44.140625 C 76.585938 44.273438 76.496094 44.476562 76.503906 44.6875 C 76.496094 44.828125 76.53125 44.96875 76.597656 45.09375 C 76.683594 45.21875 76.792969 45.328125 76.921875 45.40625 C 77.183594 45.558594 77.457031 45.691406 77.738281 45.796875 C 78.082031 45.929688 78.40625 46.101562 78.710938 46.3125 C 78.902344 46.457031 79.054688 46.640625 79.160156 46.855469 C 79.261719 47.078125 79.3125 47.320312 79.308594 47.5625 Z M 79.308594 47.5625 "/>
<path style=" stroke:none;fill-rule:nonzero;fill:rgb(15.686275%,15.294118%,15.686275%);fill-opacity:1;" d="M 80.65625 49.199219 L 80.65625 43.171875 L 81.640625 43.171875 L 81.640625 49.199219 Z M 80.65625 49.199219 "/>
<path style=" stroke:none;fill-rule:nonzero;fill:rgb(15.686275%,15.294118%,15.686275%);fill-opacity:1;" d="M 85.488281 49.199219 L 84.503906 49.199219 L 84.503906 44.015625 L 82.734375 44.015625 L 82.734375 43.171875 L 87.253906 43.171875 L 87.253906 44.015625 L 85.488281 44.015625 Z M 85.488281 49.199219 "/>
<path style=" stroke:none;fill-rule:nonzero;fill:rgb(15.686275%,15.294118%,15.686275%);fill-opacity:1;" d="M 90.054688 45.921875 L 91.496094 43.171875 L 92.578125 43.171875 L 90.574219 46.863281 L 90.574219 49.199219 L 89.585938 49.199219 L 89.585938 46.894531 L 87.574219 43.171875 L 88.65625 43.171875 Z M 90.054688 45.921875 "/>
<path style=" stroke:none;fill-rule:nonzero;fill:rgb(15.686275%,15.294118%,15.686275%);fill-opacity:1;" d="M 101.234375 46.175781 C 101.292969 47.003906 101.035156 47.820312 100.515625 48.464844 C 99.335938 49.546875 97.527344 49.546875 96.347656 48.464844 C 95.828125 47.8125 95.570312 46.992188 95.625 46.160156 C 95.566406 45.335938 95.824219 44.515625 96.347656 43.871094 C 96.898438 43.3125 97.660156 43.019531 98.441406 43.070312 C 99.21875 43.023438 99.976562 43.320312 100.515625 43.882812 C 101.035156 44.527344 101.292969 45.347656 101.234375 46.175781 Z M 96.644531 46.175781 C 96.605469 46.773438 96.761719 47.371094 97.097656 47.867188 C 97.441406 48.234375 97.917969 48.441406 98.417969 48.441406 C 98.921875 48.441406 99.398438 48.234375 99.742188 47.867188 C 100.335938 46.820312 100.335938 45.539062 99.742188 44.492188 C 99.425781 44.097656 98.933594 43.882812 98.429688 43.917969 C 97.917969 43.882812 97.421875 44.097656 97.09375 44.492188 C 96.761719 44.988281 96.605469 45.582031 96.644531 46.175781 Z M 96.644531 46.175781 "/>
<path style=" stroke:none;fill-rule:nonzero;fill:rgb(15.686275%,15.294118%,15.686275%);fill-opacity:1;" d="M 103.683594 49.199219 L 102.707031 49.199219 L 102.707031 43.171875 L 106.09375 43.171875 L 106.09375 44.003906 L 103.679688 44.003906 L 103.679688 45.882812 L 105.949219 45.882812 L 105.949219 46.722656 L 103.683594 46.722656 Z M 103.683594 49.199219 "/>
<path style=" stroke:none;fill-rule:nonzero;fill:rgb(15.686275%,15.294118%,15.686275%);fill-opacity:1;" d="M 115.292969 49.199219 L 114.210938 49.199219 L 113.191406 45.585938 C 113.148438 45.429688 113.097656 45.203125 113.03125 44.910156 C 112.980469 44.707031 112.941406 44.5 112.914062 44.292969 C 112.882812 44.46875 112.839844 44.695312 112.777344 44.976562 C 112.71875 45.257812 112.664062 45.464844 112.625 45.601562 L 111.628906 49.183594 L 110.546875 49.183594 L 109.769531 46.164062 L 108.980469 43.152344 L 109.988281 43.152344 L 110.84375 46.667969 C 110.976562 47.226562 111.074219 47.726562 111.132812 48.160156 C 111.160156 47.925781 111.207031 47.664062 111.269531 47.375 C 111.332031 47.085938 111.382812 46.855469 111.429688 46.675781 L 112.410156 43.152344 L 113.382812 43.152344 L 114.386719 46.691406 C 114.515625 47.175781 114.617188 47.664062 114.691406 48.160156 C 114.757812 47.652344 114.855469 47.152344 114.988281 46.65625 L 115.84375 43.152344 L 116.839844 43.152344 Z M 115.292969 49.199219 "/>
<path style=" stroke:none;fill-rule:nonzero;fill:rgb(15.686275%,15.294118%,15.686275%);fill-opacity:1;" d="M 117.894531 49.199219 L 117.894531 43.171875 L 118.878906 43.171875 L 118.878906 49.199219 Z M 117.894531 49.199219 "/>
<path style=" stroke:none;fill-rule:nonzero;fill:rgb(15.686275%,15.294118%,15.686275%);fill-opacity:1;" d="M 124.113281 47.5625 C 124.132812 48.050781 123.921875 48.523438 123.535156 48.824219 C 123.070312 49.152344 122.507812 49.3125 121.9375 49.28125 C 121.363281 49.300781 120.792969 49.195312 120.269531 48.964844 L 120.269531 48.050781 C 120.546875 48.183594 120.839844 48.285156 121.140625 48.355469 C 121.421875 48.425781 121.710938 48.464844 122.003906 48.46875 C 122.304688 48.492188 122.609375 48.410156 122.863281 48.242188 C 123.046875 48.101562 123.148438 47.878906 123.140625 47.648438 C 123.144531 47.425781 123.050781 47.21875 122.882812 47.074219 C 122.5625 46.835938 122.210938 46.648438 121.832031 46.515625 C 121.386719 46.363281 120.992188 46.101562 120.675781 45.753906 C 120.449219 45.460938 120.328125 45.097656 120.335938 44.722656 C 120.316406 44.265625 120.515625 43.824219 120.871094 43.535156 C 121.289062 43.230469 121.796875 43.078125 122.3125 43.105469 C 122.902344 43.105469 123.488281 43.226562 124.027344 43.46875 L 123.71875 44.269531 C 123.261719 44.0625 122.773438 43.945312 122.277344 43.929688 C 122.019531 43.914062 121.765625 43.988281 121.554688 44.140625 C 121.390625 44.273438 121.300781 44.476562 121.308594 44.6875 C 121.304688 44.828125 121.339844 44.96875 121.40625 45.09375 C 121.492188 45.21875 121.601562 45.328125 121.730469 45.40625 C 121.992188 45.558594 122.265625 45.691406 122.546875 45.796875 C 122.890625 45.929688 123.214844 46.101562 123.515625 46.3125 C 123.707031 46.457031 123.863281 46.640625 123.96875 46.855469 C 124.070312 47.078125 124.117188 47.320312 124.113281 47.5625 Z M 124.113281 47.5625 "/>
<path style=" stroke:none;fill-rule:nonzero;fill:rgb(15.686275%,15.294118%,15.686275%);fill-opacity:1;" d="M 128.019531 43.929688 C 127.503906 43.90625 127.011719 44.132812 126.6875 44.53125 C 126.339844 45.011719 126.167969 45.601562 126.203125 46.195312 C 126.160156 46.789062 126.328125 47.382812 126.671875 47.871094 C 127.007812 48.261719 127.503906 48.472656 128.019531 48.441406 C 128.269531 48.441406 128.515625 48.417969 128.761719 48.367188 C 129.011719 48.3125 129.257812 48.246094 129.503906 48.167969 L 129.503906 49.011719 C 128.988281 49.199219 128.445312 49.289062 127.898438 49.28125 C 127.140625 49.328125 126.394531 49.035156 125.875 48.476562 C 125.359375 47.832031 125.101562 47.015625 125.15625 46.1875 C 125.140625 45.621094 125.257812 45.054688 125.496094 44.539062 C 125.710938 44.085938 126.054688 43.707031 126.488281 43.457031 C 126.957031 43.203125 127.484375 43.078125 128.015625 43.09375 C 128.605469 43.089844 129.1875 43.21875 129.714844 43.480469 L 129.355469 44.300781 C 129.148438 44.203125 128.929688 44.117188 128.710938 44.046875 C 128.488281 43.972656 128.253906 43.933594 128.019531 43.929688 Z M 128.019531 43.929688 "/>
<path style=" stroke:none;fill-rule:nonzero;fill:rgb(15.686275%,15.294118%,15.686275%);fill-opacity:1;" d="M 136.320312 46.175781 C 136.375 47.003906 136.117188 47.820312 135.597656 48.464844 C 135.0625 49.027344 134.300781 49.328125 133.523438 49.28125 C 132.742188 49.332031 131.976562 49.035156 131.429688 48.472656 C 130.914062 47.820312 130.65625 47 130.710938 46.167969 C 130.648438 45.339844 130.90625 44.523438 131.429688 43.878906 C 131.980469 43.320312 132.742188 43.027344 133.523438 43.078125 C 134.300781 43.03125 135.058594 43.328125 135.59375 43.890625 C 136.113281 44.535156 136.371094 45.351562 136.320312 46.175781 Z M 131.734375 46.175781 C 131.691406 46.773438 131.847656 47.367188 132.179688 47.867188 C 132.523438 48.234375 133.003906 48.441406 133.503906 48.441406 C 134.007812 48.441406 134.488281 48.234375 134.832031 47.867188 C 135.421875 46.820312 135.421875 45.539062 134.832031 44.492188 C 134.511719 44.097656 134.019531 43.882812 133.511719 43.917969 C 133.003906 43.882812 132.507812 44.097656 132.179688 44.492188 C 131.847656 44.988281 131.6875 45.582031 131.734375 46.175781 Z M 131.734375 46.175781 "/>
<path style=" stroke:none;fill-rule:nonzero;fill:rgb(15.686275%,15.294118%,15.686275%);fill-opacity:1;" d="M 142.800781 49.199219 L 141.617188 49.199219 L 138.660156 44.394531 L 138.628906 44.394531 L 138.628906 44.667969 C 138.667969 45.175781 138.6875 45.640625 138.6875 46.066406 L 138.6875 49.199219 L 137.796875 49.199219 L 137.796875 43.171875 L 138.988281 43.171875 L 141.9375 47.949219 L 141.976562 47.949219 C 141.976562 47.886719 141.976562 47.65625 141.941406 47.261719 C 141.902344 46.863281 141.914062 46.539062 141.914062 46.328125 L 141.914062 43.171875 L 142.816406 43.171875 Z M 142.800781 49.199219 "/>
<path style=" stroke:none;fill-rule:nonzero;fill:rgb(15.686275%,15.294118%,15.686275%);fill-opacity:1;" d="M 148.039062 47.5625 C 148.058594 48.054688 147.84375 48.523438 147.460938 48.824219 C 146.992188 49.152344 146.429688 49.3125 145.859375 49.28125 C 145.289062 49.300781 144.71875 49.195312 144.191406 48.964844 L 144.191406 48.050781 C 144.472656 48.183594 144.765625 48.285156 145.066406 48.355469 C 145.347656 48.425781 145.636719 48.464844 145.929688 48.46875 C 146.230469 48.488281 146.535156 48.410156 146.789062 48.242188 C 146.96875 48.101562 147.074219 47.878906 147.0625 47.648438 C 147.066406 47.429688 146.972656 47.21875 146.8125 47.074219 C 146.492188 46.835938 146.136719 46.648438 145.757812 46.515625 C 145.3125 46.363281 144.914062 46.101562 144.597656 45.753906 C 144.371094 45.460938 144.253906 45.097656 144.265625 44.722656 C 144.242188 44.265625 144.441406 43.824219 144.796875 43.535156 C 145.214844 43.230469 145.722656 43.078125 146.238281 43.105469 C 146.828125 43.101562 147.414062 43.226562 147.957031 43.46875 L 147.644531 44.269531 C 147.191406 44.0625 146.699219 43.945312 146.203125 43.929688 C 145.945312 43.914062 145.691406 43.988281 145.480469 44.140625 C 145.320312 44.273438 145.230469 44.476562 145.238281 44.6875 C 145.230469 44.828125 145.265625 44.96875 145.332031 45.09375 C 145.417969 45.21875 145.527344 45.328125 145.65625 45.40625 C 145.917969 45.558594 146.191406 45.691406 146.472656 45.796875 C 146.816406 45.929688 147.144531 46.101562 147.445312 46.3125 C 147.636719 46.457031 147.789062 46.640625 147.894531 46.855469 C 147.996094 47.078125 148.046875 47.320312 148.039062 47.5625 Z M 148.039062 47.5625 "/>
<path style=" stroke:none;fill-rule:nonzero;fill:rgb(15.686275%,15.294118%,15.686275%);fill-opacity:1;" d="M 149.386719 49.199219 L 149.386719 43.171875 L 150.371094 43.171875 L 150.371094 49.199219 Z M 149.386719 49.199219 "/>
<path style=" stroke:none;fill-rule:nonzero;fill:rgb(15.686275%,15.294118%,15.686275%);fill-opacity:1;" d="M 157.152344 49.199219 L 155.945312 49.199219 L 152.988281 44.394531 L 152.957031 44.394531 L 152.957031 44.667969 C 152.996094 45.175781 153.015625 45.640625 153.015625 46.066406 L 153.015625 49.199219 L 152.125 49.199219 L 152.125 43.171875 L 153.316406 43.171875 L 156.265625 47.949219 L 156.285156 47.949219 C 156.285156 47.886719 156.285156 47.65625 156.253906 47.261719 C 156.222656 46.863281 156.230469 46.539062 156.230469 46.328125 L 156.230469 43.171875 L 157.132812 43.171875 Z M 157.152344 49.199219 "/>
<path style=" stroke:none;fill-rule:nonzero;fill:rgb(15.686275%,15.294118%,15.686275%);fill-opacity:1;" d="M 158.464844 47.328125 L 158.464844 46.546875 L 162 46.546875 L 162 47.328125 Z M 158.464844 47.328125 "/>
<path style=" stroke:none;fill-rule:nonzero;fill:rgb(15.686275%,15.294118%,15.686275%);fill-opacity:1;" d="M 165.914062 49.199219 L 164.167969 44.167969 L 164.136719 44.167969 C 164.183594 44.914062 164.207031 45.613281 164.207031 46.265625 L 164.207031 49.199219 L 163.316406 49.199219 L 163.316406 43.171875 L 164.699219 43.171875 L 166.371094 47.96875 L 166.394531 47.96875 L 168.109375 43.171875 L 169.5 43.171875 L 169.5 49.199219 L 168.558594 49.199219 L 168.558594 46.21875 C 168.558594 45.917969 168.566406 45.527344 168.578125 45.050781 C 168.578125 44.566406 168.609375 44.277344 168.617188 44.175781 L 168.582031 44.175781 L 166.78125 49.199219 Z M 165.914062 49.199219 "/>
<path style=" stroke:none;fill-rule:nonzero;fill:rgb(15.686275%,15.294118%,15.686275%);fill-opacity:1;" d="M 174.996094 49.199219 L 174.402344 47.527344 L 172.101562 47.527344 L 171.519531 49.199219 L 170.472656 49.199219 L 172.722656 43.148438 L 173.804688 43.148438 L 176.050781 49.199219 Z M 174.136719 46.671875 L 173.578125 45.03125 C 173.53125 44.921875 173.480469 44.75 173.402344 44.511719 C 173.328125 44.273438 173.28125 44.101562 173.253906 43.996094 C 173.167969 44.371094 173.058594 44.742188 172.929688 45.101562 L 172.386719 46.671875 Z M 174.136719 46.671875 "/>
<path style=" stroke:none;fill-rule:nonzero;fill:rgb(15.686275%,15.294118%,15.686275%);fill-opacity:1;" d="M 181.910156 46.128906 C 181.964844 46.972656 181.664062 47.800781 181.082031 48.410156 C 180.527344 48.9375 179.734375 49.199219 178.703125 49.199219 L 177.019531 49.199219 L 177.019531 43.171875 L 178.878906 43.171875 C 179.695312 43.121094 180.5 43.402344 181.109375 43.949219 C 181.667969 44.53125 181.960938 45.320312 181.910156 46.128906 Z M 180.871094 46.160156 C 180.871094 44.71875 180.199219 43.996094 178.855469 43.996094 L 178.003906 43.996094 L 178.003906 48.367188 L 178.703125 48.367188 C 180.160156 48.367188 180.886719 47.632812 180.886719 46.160156 Z M 180.871094 46.160156 "/>
<path style=" stroke:none;fill-rule:nonzero;fill:rgb(15.686275%,15.294118%,15.686275%);fill-opacity:1;" d="M 183.382812 49.199219 L 183.382812 43.171875 L 184.367188 43.171875 L 184.367188 49.199219 Z M 183.382812 49.199219 "/>
<path style=" stroke:none;fill-rule:nonzero;fill:rgb(15.686275%,15.294118%,15.686275%);fill-opacity:1;" d="M 189.601562 47.5625 C 189.621094 48.050781 189.410156 48.523438 189.023438 48.824219 C 188.558594 49.152344 187.996094 49.3125 187.425781 49.28125 C 186.851562 49.300781 186.28125 49.195312 185.757812 48.964844 L 185.757812 48.050781 C 186.035156 48.183594 186.328125 48.285156 186.628906 48.355469 C 186.910156 48.425781 187.199219 48.464844 187.492188 48.46875 C 187.792969 48.492188 188.097656 48.410156 188.351562 48.242188 C 188.535156 48.101562 188.636719 47.878906 188.628906 47.648438 C 188.628906 47.425781 188.535156 47.21875 188.371094 47.074219 C 188.054688 46.835938 187.699219 46.648438 187.320312 46.515625 C 186.878906 46.363281 186.480469 46.101562 186.164062 45.753906 C 185.9375 45.460938 185.816406 45.097656 185.824219 44.722656 C 185.804688 44.265625 186.003906 43.824219 186.359375 43.535156 C 186.777344 43.230469 187.285156 43.078125 187.800781 43.105469 C 188.390625 43.105469 188.976562 43.226562 189.515625 43.46875 L 189.207031 44.269531 C 188.75 44.0625 188.261719 43.945312 187.765625 43.929688 C 187.507812 43.910156 187.25 43.984375 187.042969 44.140625 C 186.878906 44.273438 186.789062 44.476562 186.796875 44.6875 C 186.789062 44.828125 186.824219 44.96875 186.894531 45.09375 C 186.980469 45.21875 187.089844 45.328125 187.21875 45.40625 C 187.480469 45.558594 187.753906 45.691406 188.035156 45.796875 C 188.378906 45.929688 188.703125 46.101562 189.003906 46.3125 C 189.195312 46.457031 189.347656 46.640625 189.453125 46.855469 C 189.558594 47.078125 189.605469 47.320312 189.601562 47.5625 Z M 189.601562 47.5625 "/>
<path style=" stroke:none;fill-rule:nonzero;fill:rgb(15.686275%,15.294118%,15.686275%);fill-opacity:1;" d="M 196.289062 46.175781 C 196.34375 47.003906 196.085938 47.820312 195.566406 48.464844 C 195.03125 49.027344 194.273438 49.328125 193.496094 49.28125 C 192.714844 49.332031 191.949219 49.035156 191.402344 48.472656 C 190.882812 47.820312 190.628906 47 190.683594 46.167969 C 190.621094 45.339844 190.878906 44.523438 191.402344 43.878906 C 191.953125 43.320312 192.714844 43.027344 193.496094 43.078125 C 194.273438 43.027344 195.03125 43.328125 195.566406 43.890625 C 196.085938 44.535156 196.34375 45.351562 196.289062 46.175781 Z M 191.703125 46.175781 C 191.660156 46.773438 191.816406 47.367188 192.148438 47.867188 C 192.492188 48.234375 192.972656 48.441406 193.472656 48.441406 C 193.976562 48.441406 194.457031 48.234375 194.800781 47.867188 C 195.390625 46.820312 195.390625 45.539062 194.800781 44.492188 C 194.480469 44.097656 193.988281 43.882812 193.480469 43.917969 C 192.972656 43.882812 192.476562 44.097656 192.148438 44.492188 C 191.8125 44.988281 191.652344 45.582031 191.695312 46.175781 Z M 191.703125 46.175781 "/>
<path style=" stroke:none;fill-rule:nonzero;fill:rgb(15.686275%,15.294118%,15.686275%);fill-opacity:1;" d="M 202.769531 49.199219 L 201.566406 49.199219 L 198.613281 44.394531 L 198.578125 44.394531 L 198.578125 44.667969 C 198.621094 45.175781 198.636719 45.640625 198.636719 46.066406 L 198.636719 49.199219 L 197.746094 49.199219 L 197.746094 43.171875 L 198.941406 43.171875 L 201.886719 47.949219 L 201.910156 47.949219 C 201.910156 47.886719 201.910156 47.65625 201.875 47.261719 C 201.84375 46.863281 201.855469 46.539062 201.855469 46.328125 L 201.855469 43.171875 L 202.75 43.171875 Z M 202.769531 49.199219 "/>
<path style=" stroke:none;fill-rule:nonzero;fill:url(#radial0);" d="M 18.417969 54.15625 C 18.15625 53.964844 17.9375 53.71875 17.777344 53.433594 L 17.742188 53.378906 L 17.671875 53.378906 C 6.648438 50.800781 0.503906 33.828125 1.886719 20.207031 C 2.035156 18.714844 2.296875 17.234375 2.667969 15.78125 C 3.015625 14.4375 3.488281 13.132812 4.085938 11.882812 C 4.679688 10.632812 5.445312 9.472656 6.371094 8.441406 C 8.199219 6.425781 10.464844 5.34375 12.917969 5.308594 C 12.972656 5.308594 13.132812 5.308594 13.148438 5.15625 C 13.65625 4.289062 14.527344 3.703125 15.515625 3.550781 L 15.632812 3.535156 L 15.660156 3.421875 C 15.683594 3.332031 16.210938 1.253906 18.4375 1.253906 C 20.664062 1.253906 21.203125 3.390625 21.210938 3.421875 L 21.234375 3.535156 L 21.351562 3.535156 C 22.335938 3.695312 23.199219 4.285156 23.707031 5.148438 C 23.707031 5.300781 23.878906 5.304688 23.933594 5.304688 C 26.386719 5.339844 28.648438 6.421875 30.484375 8.4375 C 31.5625 9.648438 32.433594 11.03125 33.0625 12.53125 L 33.207031 12.867188 C 34.144531 15.210938 34.734375 17.683594 34.960938 20.203125 C 36.34375 33.824219 30.203125 50.796875 19.179688 53.375 L 19.113281 53.375 L 19.074219 53.425781 C 18.910156 53.714844 18.6875 53.964844 18.417969 54.15625 Z M 18.417969 54.15625 "/>
<path style=" stroke:none;fill-rule:nonzero;fill:rgb(15.686275%,15.294118%,15.686275%);fill-opacity:1;" d="M 35.105469 20.191406 C 34.992188 19.066406 34.816406 17.945312 34.578125 16.835938 C 34.359375 15.816406 34.078125 14.8125 33.734375 13.832031 C 33.367188 12.796875 32.914062 11.792969 32.378906 10.839844 C 31.871094 9.9375 31.269531 9.101562 30.578125 8.335938 C 28.726562 6.300781 26.441406 5.179688 23.910156 5.144531 L 23.851562 5.144531 C 23.328125 4.195312 22.398438 3.539062 21.328125 3.371094 C 21.328125 3.371094 20.796875 1.082031 18.417969 1.082031 C 16.039062 1.082031 15.515625 3.359375 15.515625 3.359375 C 14.449219 3.53125 13.519531 4.183594 12.996094 5.132812 L 12.921875 5.132812 C 10.402344 5.171875 8.105469 6.289062 6.253906 8.324219 C 5.5625 9.089844 4.957031 9.929688 4.453125 10.828125 C 3.917969 11.789062 3.464844 12.792969 3.101562 13.832031 C 2.757812 14.8125 2.476562 15.816406 2.253906 16.835938 C 2.019531 17.945312 1.84375 19.066406 1.734375 20.191406 C 0.332031 33.988281 6.511719 50.941406 17.648438 53.546875 C 17.816406 53.804688 18.203125 54.332031 18.417969 54.332031 C 18.628906 54.332031 19.019531 53.804688 19.1875 53.546875 C 30.316406 50.941406 36.507812 33.988281 35.105469 20.191406 Z M 18.417969 1.617188 C 19.503906 1.5625 20.488281 2.257812 20.804688 3.296875 C 19.824219 3.378906 18.945312 3.941406 18.460938 4.804688 C 18.460938 4.804688 18.4375 4.863281 18.417969 4.863281 C 18.398438 4.863281 18.382812 4.820312 18.375 4.804688 C 17.890625 3.941406 17.011719 3.378906 16.027344 3.296875 C 16.347656 2.257812 17.332031 1.566406 18.417969 1.617188 Z M 17.285156 4.230469 C 17.765625 4.515625 18.113281 4.976562 18.253906 5.515625 C 18.296875 5.675781 18.351562 5.769531 18.417969 5.769531 C 18.484375 5.769531 18.539062 5.675781 18.578125 5.515625 C 18.726562 4.980469 19.074219 4.519531 19.550781 4.230469 C 20.152344 3.832031 20.902344 3.707031 21.601562 3.890625 C 22.304688 4.078125 22.894531 4.550781 23.222656 5.199219 C 22.878906 5.261719 22.539062 5.347656 22.207031 5.457031 C 21.675781 5.617188 21.183594 5.894531 20.765625 6.261719 C 19.707031 7.222656 19.046875 8.550781 18.914062 9.980469 C 18.507812 14.453125 23.609375 13.730469 23.863281 13.730469 C 24.523438 13.730469 25.023438 12.6875 25.023438 11.308594 C 25.023438 9.929688 24.523438 8.875 23.863281 8.875 C 23.472656 8.875 22.785156 9.191406 22.722656 10.425781 C 22.679688 11.296875 23.082031 12.449219 23.648438 12.523438 C 23.933594 12.5625 24.191406 12.054688 24.277344 11.546875 C 24.347656 11.101562 24.308594 10.40625 23.914062 10.308594 C 23.789062 10.277344 23.664062 10.351562 23.628906 10.476562 C 23.601562 10.59375 23.875 10.785156 23.863281 11.296875 C 23.863281 12.058594 23.085938 11.675781 23.1875 10.464844 C 23.28125 9.382812 23.828125 9.457031 23.851562 9.457031 C 24.15625 9.457031 24.617188 10.097656 24.617188 11.296875 C 24.617188 12.363281 24.105469 13.511719 23.121094 12.914062 C 22.296875 12.304688 21.972656 10.910156 22.199219 9.835938 C 22.304688 9.339844 22.730469 7.992188 24.105469 7.992188 C 26.089844 7.992188 27.9375 9.035156 29.410156 10.980469 C 29.246094 11.5 28.222656 13.480469 24.976562 15.375 C 24.910156 15.414062 24.804688 15.472656 24.800781 15.46875 C 23.859375 15.042969 22.832031 14.835938 21.796875 14.875 C 20.84375 14.941406 19.902344 15.09375 18.976562 15.324219 C 18.792969 15.378906 18.605469 15.40625 18.417969 15.417969 C 18.230469 15.40625 18.042969 15.378906 17.859375 15.324219 C 16.933594 15.09375 15.988281 14.941406 15.039062 14.875 C 14.003906 14.835938 12.976562 15.042969 12.035156 15.46875 C 12.035156 15.46875 11.929688 15.414062 11.855469 15.375 C 8.613281 13.480469 7.585938 11.5 7.425781 10.980469 C 8.902344 9.035156 10.746094 7.992188 12.730469 7.992188 C 14.105469 7.992188 14.535156 9.339844 14.632812 9.835938 C 14.863281 10.917969 14.539062 12.304688 13.710938 12.914062 C 12.730469 13.511719 12.21875 12.363281 12.21875 11.296875 C 12.21875 10.097656 12.679688 9.457031 12.984375 9.457031 C 13.007812 9.457031 13.558594 9.390625 13.648438 10.464844 C 13.75 11.675781 12.984375 12.058594 12.96875 11.296875 C 12.96875 10.785156 13.234375 10.59375 13.203125 10.476562 C 13.191406 10.417969 13.152344 10.367188 13.097656 10.332031 C 13.046875 10.300781 12.984375 10.292969 12.921875 10.308594 C 12.527344 10.40625 12.492188 11.101562 12.5625 11.546875 C 12.640625 12.054688 12.902344 12.5625 13.1875 12.523438 C 13.734375 12.449219 14.160156 11.296875 14.113281 10.425781 C 14.050781 9.191406 13.367188 8.875 12.96875 8.875 C 12.324219 8.875 11.8125 9.917969 11.8125 11.296875 C 11.8125 12.675781 12.3125 13.730469 12.96875 13.730469 C 13.226562 13.75 18.328125 14.453125 17.925781 9.988281 C 17.792969 8.5625 17.132812 7.234375 16.070312 6.273438 C 15.65625 5.902344 15.164062 5.628906 14.632812 5.464844 C 14.300781 5.359375 13.960938 5.273438 13.617188 5.210938 C 13.945312 4.5625 14.535156 4.085938 15.234375 3.898438 C 15.933594 3.710938 16.679688 3.832031 17.285156 4.230469 Z M 7.636719 22.933594 C 7.539062 23.605469 7.472656 24.277344 7.445312 24.953125 C 7.3125 28.101562 7.726562 31.25 8.671875 34.253906 C 9.316406 36.230469 10.160156 38.136719 11.195312 39.941406 C 10.148438 40.886719 8.589844 41.261719 8.0625 41.386719 C 5.246094 35.765625 3.8125 28.507812 4.128906 21.972656 C 5.230469 22.511719 6.417969 22.835938 7.636719 22.933594 Z M 4.15625 21.59375 C 4.425781 17.132812 5.550781 13.644531 7.191406 11.300781 C 7.484375 12.058594 8.753906 13.953125 11.6875 15.679688 C 9.195312 17.1875 8.085938 20.292969 7.6875 22.613281 C 6.457031 22.503906 5.257812 22.160156 4.15625 21.59375 Z M 11.363281 40.230469 C 13.234375 43.480469 15.089844 45.390625 16.5 46.410156 C 15.988281 47.714844 14.773438 48.738281 14.339844 49.066406 C 11.898438 47.421875 9.835938 44.8125 8.214844 41.667969 C 9.367188 41.453125 10.449219 40.960938 11.371094 40.230469 Z M 16.792969 46.605469 C 17.296875 46.972656 17.839844 47.273438 18.417969 47.503906 C 18.996094 47.273438 19.542969 46.972656 20.046875 46.605469 C 20.546875 47.648438 21.289062 48.554688 22.207031 49.253906 C 21.527344 49.691406 20.804688 50.054688 20.046875 50.339844 L 20.046875 50.257812 C 19.886719 49.453125 18.839844 49.289062 18.457031 49.289062 C 18.074219 49.289062 17.015625 49.453125 16.871094 50.257812 C 16.871094 50.285156 16.871094 50.308594 16.871094 50.339844 C 16.117188 50.054688 15.390625 49.691406 14.710938 49.253906 C 15.601562 48.546875 16.3125 47.640625 16.792969 46.605469 Z M 20.328125 46.40625 C 21.742188 45.390625 23.59375 43.460938 25.46875 40.226562 C 26.382812 40.957031 27.457031 41.453125 28.605469 41.671875 C 26.980469 44.816406 24.917969 47.425781 22.480469 49.070312 C 22.054688 48.738281 20.839844 47.714844 20.328125 46.410156 Z M 25.632812 39.9375 C 26.667969 38.132812 27.511719 36.226562 28.15625 34.25 C 28.617188 32.792969 28.957031 31.296875 29.164062 29.78125 C 29.386719 28.179688 29.464844 26.566406 29.398438 24.949219 C 29.367188 24.277344 29.304688 23.601562 29.207031 22.933594 C 30.421875 22.828125 31.609375 22.496094 32.703125 21.957031 C 33.023438 28.492188 31.589844 35.746094 28.769531 41.367188 C 28.234375 41.261719 26.6875 40.886719 25.632812 39.941406 Z M 29.148438 22.59375 C 28.785156 20.277344 27.625 17.226562 25.148438 15.660156 C 28.082031 13.933594 29.355469 12.050781 29.644531 11.28125 C 31.285156 13.617188 32.410156 17.113281 32.675781 21.578125 C 31.578125 22.148438 30.378906 22.5 29.148438 22.613281 Z M 16.597656 52.566406 C 15.328125 52.144531 14.125 51.542969 13.027344 50.78125 C 12.328125 50.300781 11.667969 49.765625 11.054688 49.183594 C 10.546875 48.707031 10.066406 48.203125 9.613281 47.675781 C 9.304688 47.316406 9.011719 46.953125 8.726562 46.574219 C 7.371094 44.742188 6.234375 42.757812 5.335938 40.664062 C 4.472656 38.652344 3.78125 36.570312 3.269531 34.441406 C 2.738281 32.265625 2.375 30.050781 2.1875 27.820312 C 1.988281 25.621094 1.972656 23.410156 2.144531 21.207031 C 2.242188 20.03125 2.382812 18.851562 2.59375 17.6875 C 2.800781 16.527344 3.089844 15.386719 3.460938 14.265625 C 3.804688 13.242188 4.230469 12.25 4.742188 11.300781 C 5.257812 10.320312 5.902344 9.410156 6.65625 8.59375 C 7.359375 7.84375 8.171875 7.203125 9.066406 6.703125 C 9.445312 6.496094 9.839844 6.320312 10.242188 6.171875 C 10.449219 6.097656 10.65625 6.03125 10.871094 5.976562 C 11.074219 5.910156 11.285156 5.855469 11.496094 5.816406 C 12.011719 5.726562 12.53125 5.683594 13.054688 5.691406 C 13.882812 5.683594 14.699219 5.90625 15.417969 6.328125 C 16.613281 7.183594 17.359375 8.539062 17.445312 10.015625 C 17.6875 12.773438 14.882812 13.207031 14.335938 13.203125 C 14.253906 13.203125 14.210938 13.117188 14.480469 12.839844 C 15.113281 11.9375 15.34375 10.808594 15.117188 9.730469 C 14.855469 8.464844 13.964844 7.476562 12.671875 7.480469 C 10.742188 7.480469 9.019531 8.449219 7.734375 9.855469 C 6.519531 11.257812 5.59375 12.886719 5.019531 14.652344 C 4.257812 16.894531 3.808594 19.230469 3.679688 21.59375 C 3.539062 23.761719 3.589844 25.9375 3.820312 28.097656 C 4.039062 30.277344 4.433594 32.433594 4.996094 34.550781 C 5.539062 36.613281 6.253906 38.625 7.140625 40.5625 C 8.023438 42.527344 9.144531 44.375 10.472656 46.066406 C 11.8125 47.792969 13.5 49.222656 15.421875 50.257812 C 15.855469 50.484375 16.304688 50.679688 16.765625 50.84375 C 16.746094 51.503906 16.886719 52.15625 17.171875 52.75 C 16.976562 52.703125 16.785156 52.644531 16.597656 52.566406 Z M 18.601562 53.511719 C 18.554688 53.574219 18.488281 53.621094 18.410156 53.640625 C 18.335938 53.621094 18.265625 53.574219 18.21875 53.511719 C 17.742188 52.910156 17.035156 51.746094 17.300781 50.355469 C 17.375 49.964844 18.019531 49.789062 18.410156 49.785156 C 18.800781 49.78125 19.445312 49.964844 19.519531 50.355469 C 19.792969 51.746094 19.085938 52.910156 18.609375 53.511719 Z M 34.660156 27.820312 C 34.472656 30.050781 34.109375 32.261719 33.578125 34.433594 C 33.058594 36.5625 32.363281 38.644531 31.496094 40.65625 C 30.601562 42.753906 29.464844 44.738281 28.105469 46.566406 C 27.820312 46.929688 27.527344 47.3125 27.21875 47.667969 C 26.765625 48.195312 26.285156 48.699219 25.777344 49.175781 C 25.160156 49.761719 24.503906 50.296875 23.804688 50.78125 C 22.703125 51.542969 21.503906 52.144531 20.234375 52.566406 C 20.046875 52.640625 19.859375 52.695312 19.664062 52.738281 C 19.949219 52.148438 20.085938 51.5 20.066406 50.84375 C 20.527344 50.679688 20.976562 50.484375 21.410156 50.257812 C 23.332031 49.222656 25.019531 47.792969 26.363281 46.066406 C 27.691406 44.375 28.808594 42.527344 29.695312 40.5625 C 30.585938 38.625 31.308594 36.613281 31.855469 34.550781 C 32.414062 32.429688 32.804688 30.269531 33.027344 28.089844 C 33.257812 25.929688 33.304688 23.753906 33.164062 21.585938 C 33.035156 19.222656 32.585938 16.890625 31.828125 14.648438 C 31.25 12.878906 30.324219 11.25 29.105469 9.847656 C 27.824219 8.441406 26.101562 7.476562 24.171875 7.472656 C 22.882812 7.472656 22.007812 8.457031 21.726562 9.722656 C 21.492188 10.804688 21.726562 11.9375 22.363281 12.84375 C 22.636719 13.125 22.589844 13.207031 22.507812 13.207031 C 21.960938 13.207031 19.160156 12.773438 19.398438 10.019531 C 19.484375 8.546875 20.230469 7.191406 21.425781 6.332031 C 22.148438 5.910156 22.96875 5.691406 23.804688 5.699219 C 24.324219 5.691406 24.847656 5.734375 25.359375 5.824219 C 25.574219 5.863281 25.785156 5.917969 25.992188 5.984375 C 26.199219 6.039062 26.410156 6.105469 26.613281 6.179688 C 27.011719 6.328125 27.394531 6.503906 27.765625 6.710938 C 28.664062 7.210938 29.480469 7.847656 30.179688 8.601562 C 30.929688 9.417969 31.574219 10.328125 32.089844 11.308594 C 32.597656 12.257812 33.027344 13.25 33.371094 14.273438 C 33.746094 15.394531 34.042969 16.539062 34.25 17.703125 C 34.464844 18.867188 34.613281 20.042969 34.703125 21.222656 C 34.871094 23.417969 34.855469 25.625 34.660156 27.820312 Z M 34.660156 27.820312 "/>
<path style=" stroke:none;fill-rule:nonzero;fill:rgb(77.254903%,1.960784%,4.705882%);fill-opacity:1;" d="M 28.785156 25.042969 C 28.71875 23.402344 28.242188 18.394531 24.84375 16.222656 C 24.027344 15.765625 23.109375 15.519531 22.175781 15.5 C 20.507812 15.390625 19.269531 16.03125 18.4375 16.054688 L 18.398438 16.054688 C 17.566406 16.03125 16.320312 15.390625 14.652344 15.5 C 13.722656 15.519531 12.808594 15.765625 11.996094 16.222656 C 8.601562 18.390625 8.121094 23.402344 8.050781 25.042969 C 7.898438 29.015625 8.636719 32.972656 10.214844 36.625 C 12.5625 41.8125 15.402344 45.484375 18.203125 46.738281 L 18.429688 46.839844 L 18.65625 46.738281 C 21.453125 45.492188 24.292969 41.824219 26.644531 36.625 C 28.214844 32.972656 28.945312 29.015625 28.785156 25.042969 Z M 28.785156 25.042969 "/>
<path style=" stroke:none;fill-rule:nonzero;fill:rgb(100%,100%,100%);fill-opacity:1;" d="M 23.464844 21.101562 L 23.464844 22.238281 L 23.691406 22.203125 L 23.804688 22.203125 C 23.984375 22.191406 24.164062 22.25 24.304688 22.367188 C 24.449219 22.5625 24.496094 22.8125 24.433594 23.046875 C 24.433594 23.046875 22.160156 32.925781 21.730469 34.804688 C 21.230469 32.425781 18.527344 19.445312 18.527344 19.445312 L 18.527344 19.390625 L 17.976562 19.390625 L 17.976562 19.449219 C 17.976562 19.449219 16.023438 32.09375 15.632812 34.621094 C 15.121094 32.433594 12.941406 23.0625 12.941406 23.0625 C 12.9375 23.003906 12.9375 22.949219 12.941406 22.890625 C 12.921875 22.679688 12.992188 22.46875 13.128906 22.308594 C 13.25 22.207031 13.40625 22.160156 13.566406 22.175781 L 13.792969 22.203125 L 13.792969 21.121094 L 9.976562 21.121094 L 9.976562 22.203125 L 10.144531 22.230469 C 10.226562 22.230469 10.652344 22.347656 10.722656 22.734375 C 10.722656 22.734375 15.164062 41.855469 15.351562 42.667969 L 15.351562 42.722656 L 16.019531 42.722656 L 16.019531 42.664062 C 16.039062 42.53125 17.847656 30.671875 18.179688 28.449219 L 20.964844 42.632812 L 20.964844 42.691406 L 21.570312 42.691406 L 25.964844 22.695312 C 26.03125 22.414062 26.292969 22.21875 26.582031 22.238281 L 26.84375 22.238281 L 26.84375 21.082031 Z M 23.464844 21.101562 "/>
</g>
</svg>
