<?xml version="1.0" encoding="UTF-8" standalone="no"?>
<svg
   version="1.1"
   width="117.68421"
   height="48.200001"
   style="clip-rule:evenodd;fill-rule:evenodd;image-rendering:optimizeQuality;shape-rendering:geometricPrecision;text-rendering:geometricPrecision"
   id="svg7"
   xmlns="http://www.w3.org/2000/svg"
   xmlns:svg="http://www.w3.org/2000/svg">
  <defs
     id="defs7" />
  <g
     id="g1"
     transform="matrix(0.28289474,0,0,0.39834711,0.14144739,0.19917353)">
    <path
       style="opacity:0.836"
       fill="#ea0389"
       d="m 374.5,-0.5 c 1.333,0 2.667,0 4,0 6.933,5.09834 13.1,11.0983 18.5,18 3.355,-4.3518 7.021,-8.35178 11,-12 3.393,5.3716 5.893,11.0383 7.5,17 0,7 0,14 0,21 -1.375,5.4444 -3.375,10.7777 -6,16 1.72,0.2463 3.72,0.2463 6,0 0,2 0,4 0,6 -8.889,11.3036 -20.222,19.4703 -34,24.5 -14.423,6.0237 -29.423,9.0237 -45,9 12.804,-3.3713 25.47,-7.3713 38,-12 12.659,-5.3355 20.159,-14.8355 22.5,-28.5 1.901,-13.2854 -1.099,-25.2854 -9,-36 -3.026,-2.5263 -6.193,-4.8596 -9.5,-7 -6.962,10.3878 -10.628,21.8878 -11,34.5 0.665,5.4824 0.998,10.9824 1,16.5 -11.069,0.0767 -18.069,5.41 -21,16 0.605,2.8162 1.605,5.4828 3,8 -0.502,1.021 -1.168,1.1877 -2,0.5 -4.878,-6.1833 -6.044,-13.0166 -3.5,-20.5 4.342,-5.7549 10.175,-8.7549 17.5,-9 -5.031,-22.4905 -1.031,-43.1572 12,-62 z m 32,19 c 5.397,14.4979 4.563,28.8312 -2.5,43 2.371,-11.8448 1.538,-23.5115 -2.5,-35 1.177,-3.0315 2.844,-5.6981 5,-8 z"
       id="path1" />
  </g>
  <g
     id="g2"
     transform="matrix(0.28289474,0,0,0.39834711,0.14144739,0.19917353)">
    <path
       style="opacity:0.871"
       fill="#22201f"
       d="m -0.5,33.5 c 3.93669,-0.2935 7.77002,0.0399 11.5,1 7.9727,17.2788 16.4727,34.2788 25.5,51 8.4844,-16.9689 16.9844,-33.9689 25.5,-51 3.73,-0.9601 7.5633,-1.2935 11.5,-1 -9.8501,22.034 -20.5168,43.7006 -32,65 -3.5447,1.2914 -7.0447,1.2914 -10.5,0 -10.2744,-20.8835 -20.7744,-41.5502 -31.5,-62 0,-1 0,-2 0,-3 z"
       id="path2" />
  </g>
  <g
     id="g3"
     transform="matrix(0.28289474,0,0,0.39834711,0.14144739,0.19917353)">
    <path
       style="opacity:0.899"
       fill="#22201f"
       d="m 76.5,55.5 c 6.675,-0.1663 13.3417,4e-4 20,0.5 6.4,1.3994 10.566,5.2327 12.5,11.5 1.075,4.27 1.575,8.6033 1.5,13 -12.6711,-0.1666 -25.3377,1e-4 -38,0.5 0.4147,3.5053 2.0814,6.1719 5,8 10.2683,1.3991 20.6017,1.8991 31,1.5 0,3 0,6 0,9 C 98.4944,99.6665 88.4944,99.4998 78.5,99 70.2262,98.0591 65.0595,93.5591 63,85.5 c -1.3559,-8.0285 -0.3559,-15.6952 3,-23 2.9978,-3.2377 6.4978,-5.5711 10.5,-7 z m 4,9 c 5.0988,-0.3254 10.0988,0.1746 15,1.5 1.7134,1.3782 3.0467,3.0448 4,5 -8.6858,0.8319 -17.3525,0.6652 -26,-0.5 1.3917,-3.1827 3.725,-5.1827 7,-6 z"
       id="path3" />
  </g>
  <g
     id="g4"
     transform="matrix(0.28289474,0,0,0.39834711,0.14144739,0.19917353)">
    <path
       style="opacity:0.905"
       fill="#22201f"
       d="m 130.5,55.5 c 6.342,-0.1662 12.675,5e-4 19,0.5 7.348,1.0908 11.848,5.2575 13.5,12.5 0.642,3.9908 1.142,7.9908 1.5,12 -12.667,0 -25.333,0 -38,0 -0.089,3.9326 1.578,6.7659 5,8.5 9.934,1.3952 19.934,1.8952 30,1.5 0,3 0,6 0,9 -10.006,0.1665 -20.006,-2e-4 -30,-0.5 -10.77,-3.0132 -16.103,-10.1799 -16,-21.5 -0.39,-11.2385 4.61,-18.5718 15,-22 z m 3,9 c 5.43,-0.339 10.764,0.161 16,1.5 2.107,1.2635 3.107,3.0968 3,5.5 -8.36,0.3312 -16.693,-0.0021 -25,-1 1.077,-3.0772 3.077,-5.0772 6,-6 z"
       id="path4" />
  </g>
  <g
     id="g5"
     transform="matrix(0.28289474,0,0,0.39834711,0.14144739,0.19917353)">
    <path
       style="opacity:0.893"
       fill="#22201f"
       d="m 180.5,120.5 c -3.667,0 -7.333,0 -11,0 -0.167,-16.337 0,-32.6701 0.5,-49 0.453,-7.0835 3.953,-11.9168 10.5,-14.5 9.653,-1.9709 19.32,-1.9709 29,0 5.338,2.0073 8.504,5.8406 9.5,11.5 0.667,6 0.667,12 0,18 -1.333,5.8444 -4.833,9.6777 -10.5,11.5 -9.257,2.143 -18.424,1.9761 -27.5,-0.5 -0.5,7.659 -0.666,15.326 -0.5,23 z m 7,-56 c 5.011,-0.1659 10.011,7e-4 15,0.5 5.632,1.914 7.965,5.914 7,12 0.723,10.2492 -4.11,14.7492 -14.5,13.5 -4.609,0.0128 -8.942,-0.9872 -13,-3 -1.576,-5.8877 -1.909,-11.8877 -1,-18 1.563,-2.5229 3.73,-4.1896 6.5,-5 z"
       id="path5" />
  </g>
  <g
     id="g6"
     transform="matrix(0.28289474,0,0,0.39834711,0.14144739,0.19917353)">
    <path
       style="opacity:0.9"
       fill="#22201f"
       d="m 239.5,55.5 c 6.675,-0.1663 13.342,4e-4 20,0.5 7.167,1.8333 11.667,6.3333 13.5,13.5 0.499,3.6516 0.665,7.3183 0.5,11 -12.333,0 -24.667,0 -37,0 -0.154,3.5254 1.179,6.3587 4,8.5 10.277,1.3698 20.611,1.8698 31,1.5 0,3 0,6 0,9 -10.006,0.1665 -20.006,-2e-4 -30,-0.5 -8.833,-1.5 -14,-6.6667 -15.5,-15.5 -1.796,-9.3198 0.37,-17.4865 6.5,-24.5 2.425,-1.2126 4.759,-2.3793 7,-3.5 z m 4,9 c 5.902,-0.538 11.568,0.2953 17,2.5 0.793,1.0852 1.46,2.2519 2,3.5 -8.647,1.1652 -17.314,1.3319 -26,0.5 1.601,-3.1068 3.935,-5.2735 7,-6.5 z"
       id="path6" />
  </g>
  <g
     id="g7"
     transform="matrix(0.28289474,0,0,0.39834711,0.14144739,0.19917353)">
    <path
       style="opacity:0.9"
       fill="#22201f"
       d="m 293.5,55.5 c 6.342,-0.1662 12.675,5e-4 19,0.5 6.794,1.1462 11.294,4.9795 13.5,11.5 1.075,4.27 1.575,8.6033 1.5,13 -12.684,-0.3324 -25.351,9e-4 -38,1 0.566,3.3171 2.233,5.8171 5,7.5 10.268,1.3991 20.602,1.8991 31,1.5 0,3 0,6 0,9 -10.339,0.1665 -20.672,-2e-4 -31,-0.5 -7.728,-1.395 -12.562,-5.895 -14.5,-13.5 -1.356,-8.0285 -0.356,-15.6952 3,-23 2.998,-3.2377 6.498,-5.5711 10.5,-7 z m 3,9 c 5.43,-0.339 10.764,0.161 16,1.5 1.713,1.3782 3.047,3.0448 4,5 -8.686,0.8319 -17.353,0.6652 -26,-0.5 1.174,-2.9029 3.174,-4.9029 6,-6 z"
       id="path7" />
  </g>
</svg>
