<svg width="220" height="40" viewBox="0 0 220 40" fill="none" xmlns="http://www.w3.org/2000/svg">
<g clip-path="url(#clip0_445_6181)">
<path d="M57.3647 14.9707H57.1274L56.6346 10.8224H52.7109V38.8096H57.8575V21.0365C59.0803 17.6257 61.5993 15.7451 65.1398 15.3395V10.7302C61.453 10.5827 58.7701 12.4817 57.3647 14.9707Z" fill="black"/>
<path d="M33.5274 0.0183105L20.0945 31.0477L19.8573 31.7852H19.6383L19.401 31.0477L5.8769 0.0183105H0L17.3569 38.8096H22.1387L39.4042 0.0183105H33.5274Z" fill="black"/>
<path d="M108.995 27.3785C108.995 34.9193 105.035 39.9895 97.4241 39.9895C89.8132 39.9895 85.8161 34.9193 85.8528 27.3785V10.73H91.1456V26.8808C91.1456 32.7621 93.9745 35.0668 97.4241 35.0668C100.873 35.0668 103.611 32.7621 103.702 26.8808V10.73H108.995V27.3785Z" fill="black"/>
<path d="M44.3138 10.73H38.9297V38.8095H44.3138V10.73Z" fill="black"/>
<path d="M68.7725 28.5404C68.7725 35.1593 71.9115 39.0863 78.4818 39.0863H79.9419V34.4772C75.2515 34.385 73.974 32.1725 73.974 26.7889V15.2474H80.7632V10.7303H73.974V0H68.7725V28.5404Z" fill="black"/>
<path d="M165.464 10.7119H147.924V15.1368H157.689L147.249 38.7914H166.285V34.3665H154.896L165.464 10.7119Z" fill="black"/>
<path d="M187.421 10.7119H169.881V15.1368H179.646L169.206 38.7914H188.297V34.3665H176.908L187.421 10.7119Z" fill="black"/>
<path d="M129.382 9.60571C120.914 9.60571 114.489 16.2246 114.489 24.7977C114.489 33.3525 120.914 39.9897 129.382 39.9897C137.851 39.9897 144.275 33.3709 144.275 24.7977C144.275 16.243 137.851 9.60571 129.382 9.60571ZM129.382 35.0672C123.962 35.0672 120.001 30.421 120.001 24.7977C120.001 19.1929 123.962 14.5284 129.382 14.5284C134.803 14.5284 138.763 19.1745 138.763 24.7977C138.763 30.421 134.803 35.0672 129.382 35.0672Z" fill="black"/>
<path d="M205.107 9.60547C196.638 9.60547 190.214 16.2244 190.214 24.7975C190.214 33.3523 196.638 39.9895 205.107 39.9895C213.575 39.9895 220 33.3707 220 24.7975C220 16.2428 213.575 9.60547 205.107 9.60547ZM205.107 35.0669C199.686 35.0669 195.726 30.4208 195.726 24.7975C195.726 19.1927 199.686 14.5281 205.107 14.5281C210.527 14.5281 214.488 19.1743 214.488 24.7975C214.488 30.4208 210.527 35.0669 205.107 35.0669Z" fill="black"/>
</g>
<defs>
<clipPath id="clip0_445_6181">
<rect width="220" height="40" fill="white"/>
</clipPath>
</defs>
</svg>
