<svg xmlns="http://www.w3.org/2000/svg" viewBox="0 0 203 268" width="203" height="268">
	<style>
		tspan { white-space:pre }
		.shp0 { fill: none;stroke: #1e82c8;stroke-width: 0.45 } 
		.shp1 { fill: #1265b6 } 
		.shp2 { fill: #1265b6;stroke: #1e82c8;stroke-width: 0.45 } 
	</style>
	<path id="Path 5" class="shp0" d="M18.86 267.21L1.29 231.72L10.42 231.72L23.01 256.68L23.13 256.68L34.93 231.72L44.11 231.72L27.1 267.21L18.86 267.21Z" />
	<path id="Path 3" class="shp1" d="M186.1 77.99C186.97 83.17 187.32 88.91 187.32 94.35C187.32 142.88 148.79 182.34 100.79 183.53C100.79 183.53 127.23 171.65 156.01 133.61C184.01 96.48 186.1 77.99 186.1 77.99Z" />
	<path id="Path 6" class="shp2" d="M67.11 231.72L88.61 255.53L88.73 255.53L88.61 231.72L96.99 231.72L96.99 267.21L88.07 267.21L65.83 242.95L65.73 242.95L65.73 267.21L57.35 267.21L57.35 231.72L67.11 231.72Z" />
	<path id="Path 4" fill-rule="evenodd" class="shp1" d="M186.53 2.72C195.66 10.14 195.66 25.59 183.66 57.53C168.45 97.88 132.53 137.14 114.52 155.69C94.26 176.53 55.04 204.34 38.86 194.54C23.98 185.47 34.51 158.28 35.47 155.4C43.64 130.76 65.38 98.87 68.43 77.42C71.64 54.13 64.08 48.26 57.82 45C53.99 43 35.38 37.22 20.16 68.31C4.94 99.38 18.68 133.17 18.68 133.17C13.03 121.44 9.9 108.27 9.9 94.35C9.9 45.08 49.56 5.13 98.61 5.13C113.82 5.13 128.26 9.03 140.79 15.86C140.79 15.86 173.49 -7.78 186.53 2.72ZM177.58 11.87C169.23 2.77 146.27 19.09 146.27 19.09C156.79 25.82 165.75 34.77 172.62 45.23C172.62 45.23 185.4 20.46 177.58 11.87ZM18.86 267.21L1.29 231.72L10.42 231.72L23.01 256.68L23.13 256.68L34.93 231.72L44.11 231.72L27.1 267.21L18.86 267.21Z" />
	<path id="Path 8" class="shp2" d="M164.38 239.2L164.38 231.72L201.67 231.72L201.67 239.2L187.22 239.2L187.22 267.21L178.31 267.21L178.31 239.2L164.38 239.2Z" />
	<path id="Path 7" fill-rule="evenodd" class="shp2" d="M141.56 231.72C144 231.74 146.06 232.06 147.79 232.69C149.57 233.34 151.01 234.19 152.11 235.25C153.24 236.31 154.06 237.53 154.56 238.88C155.08 240.25 155.32 241.66 155.32 243.12C155.32 244.54 155.08 245.94 154.56 247.32C154.06 248.7 153.24 249.92 152.14 250.98C151.01 252.04 149.57 252.9 147.79 253.54C146.02 254.19 143.88 254.51 141.34 254.51L127.09 254.51L127.09 267.21L118.15 267.21L118.15 231.72L141.56 231.72ZM138.91 248.46C139.93 248.46 140.92 248.39 141.86 248.26C142.8 248.13 143.64 247.87 144.36 247.49C145.06 247.1 145.64 246.56 146.08 245.86C146.53 245.16 146.72 244.25 146.72 243.12C146.72 241.98 146.53 241.07 146.08 240.37C145.64 239.67 145.06 239.13 144.36 238.75C143.64 238.36 142.8 238.11 141.86 237.98C140.92 237.84 139.93 237.77 138.91 237.77L127.09 237.77L127.09 248.46L138.91 248.46Z" />
</svg>