<svg width="509" height="191" viewBox="0 0 509 191" fill="none" xmlns="http://www.w3.org/2000/svg">
<rect width="509" height="190.474" fill="#09090B"/>
<path fill-rule="evenodd" clip-rule="evenodd" d="M374.353 80.156V65.4069H357.585V46.1914H342.374C342.367 77.9998 342.283 72.2468 342.374 106.392C342.435 130.458 354.947 142.722 374.353 143.498V128.751C363.173 127.661 357.585 120.676 357.585 106.237V80.156H374.353ZM215.296 90.248L233.459 65.4069H250.692L224.231 102.824C233.786 116.219 243.325 129.623 252.864 143.031H235.474L215.449 115.243L195.424 143.031H177.882L206.755 102.669L180.211 65.4069H197.442C203.404 73.7027 209.354 82.0085 215.296 90.3176V90.248ZM315.742 101.302V107.12C314.385 119.845 304.21 129.526 291.21 129.526C277.236 129.526 266.216 118.348 266.216 104.219C266.216 90.0939 277.082 78.915 291.21 78.915C304.348 78.915 314.398 88.5852 315.742 101.302ZM442.971 101.302V107.12C441.619 119.845 431.444 129.526 418.443 129.526C404.472 129.526 393.446 118.348 393.446 104.219C393.446 90.0939 404.315 78.915 418.443 78.915C431.583 78.915 441.633 88.5852 442.971 101.302ZM458.186 102.791V64.1647H442.971V72.7634C436.081 67.2608 427.433 63.9684 418.289 64.1647C396.708 63.7014 377.77 82.6432 378.231 104.219C377.77 125.8 396.708 144.738 418.289 144.274C429 144.274 439.247 138.375 442.971 130.768V143.031H458.186V104.219C458.194 103.742 458.193 103.265 458.186 102.791ZM251.002 104.219C250.537 125.8 269.474 144.738 291.058 144.274C301.769 144.274 312.013 138.375 315.742 130.768V143.031H330.951V104.219C330.96 103.742 330.96 103.265 330.951 102.791V64.1647H315.742V72.7648C308.85 67.2627 300.204 63.9684 291.058 64.1647C269.474 63.7014 250.537 82.6432 251.002 104.219Z" fill="white"/>
<path fill-rule="evenodd" clip-rule="evenodd" d="M135.85 101.384C143.598 114.932 141.743 132.479 130.276 144.108L130.103 144.283L111.528 125.705L135.85 101.384ZM90.7655 105.934C89.2421 111.427 86.3842 116.626 82.1854 121.017L81.6053 121.596L56.636 96.6159C42.7715 82.7501 42.7094 60.3042 56.4544 46.3642L56.6286 46.1914L82.2869 71.8495C91.1773 81.2228 94.0031 94.2422 90.7655 105.934ZM53.6386 101.384C45.889 114.932 47.7494 132.479 59.2141 144.108L59.389 144.283L77.9638 125.705L53.6386 101.384ZM98.7254 105.934C100.244 111.427 103.108 116.626 107.306 121.017L107.886 121.596L132.852 96.6159C146.719 82.7501 146.778 60.3042 133.034 46.3642L132.861 46.1914L107.201 71.8495C98.3142 81.2228 95.4844 94.2422 98.7254 105.934Z" fill="#8468F6"/>
</svg>
