<svg width="104" height="40" viewBox="0 0 104 40" fill="none" xmlns="http://www.w3.org/2000/svg">
<path d="M0 12.8164H6.18729L9.79007 21.7649L13.4396 12.8164H19.464L10.3926 34.0004H4.33012L6.81324 28.387L0 12.8164Z" fill="#141A1F"/>
<path d="M25.74 12.46C21.0912 12.46 18.1523 16.5076 18.1523 20.5384C18.1523 25.0743 21.3744 28.6704 25.6518 28.6704C28.8426 28.6704 30.0456 26.783 30.0456 26.783V28.2532H35.4421V12.8163H30.0456V14.2196C30.0456 14.2196 28.7034 12.46 25.74 12.46ZM26.8879 17.4208C29.0328 17.4208 30.1397 19.0686 30.1397 20.5554C30.1397 22.1564 28.9539 23.7275 26.8879 23.7275C25.1756 23.7275 23.6282 22.369 23.6282 20.6235C23.6282 18.8533 24.8728 17.4208 26.8879 17.4208Z" fill="#141A1F"/>
<path d="M37.3008 28.2532V6H42.9452V14.2732C42.9452 14.2732 44.2859 12.462 47.0938 12.462C50.5284 12.462 52.5407 14.9464 52.5407 18.4966V28.2532H46.9376V19.8331C46.9376 18.6316 46.3481 17.471 45.0128 17.471C43.6536 17.471 42.9452 18.6492 42.9452 19.8331V28.2532H37.3008Z" fill="#141A1F"/>
<path d="M62.1618 12.4609C56.838 12.4609 53.668 16.391 53.668 20.6018C53.668 25.3937 57.5062 28.6695 62.1819 28.6695C66.7139 28.6695 70.6795 25.5423 70.6795 20.6822C70.6795 15.3643 66.5274 12.4609 62.1618 12.4609ZM62.2126 17.4654C64.0931 17.4654 65.3943 18.986 65.3943 20.6075C65.3943 21.9906 64.1818 23.6964 62.2126 23.6964C60.4082 23.6964 59.054 22.2912 59.054 20.5924C59.054 18.9559 60.1799 17.4654 62.2126 17.4654Z" fill="#141A1F"/>
<path d="M80.0836 12.4609C74.7599 12.4609 71.5898 16.391 71.5898 20.6018C71.5898 25.3937 75.428 28.6695 80.1038 28.6695C84.6357 28.6695 88.6013 25.5423 88.6013 20.6822C88.6013 15.3643 84.4492 12.4609 80.0836 12.4609ZM80.1345 17.4654C82.015 17.4654 83.3162 18.986 83.3162 20.6075C83.3162 21.9906 82.1037 23.6964 80.1345 23.6964C78.33 23.6964 76.9759 22.2912 76.9759 20.5924C76.9759 18.9559 78.1017 17.4654 80.1345 17.4654Z" fill="#141A1F"/>
<path d="M93.0567 28.5813C95.1267 28.5813 96.8048 26.9521 96.8048 24.9425C96.8048 22.9328 95.1267 21.3037 93.0567 21.3037C90.9867 21.3037 89.3086 22.9328 89.3086 24.9425C89.3086 26.9521 90.9867 28.5813 93.0567 28.5813Z" fill="#141A1F"/>
<path d="M98.0366 19.9668H91.2891L97.2776 6H104L98.0366 19.9668Z" fill="#141A1F"/>
</svg>
