<svg width="200" height="80" viewBox="0 0 100 80" fill="none" xmlns="http://www.w3.org/2000/svg">
<path d="M99.4966 18.9277L16.877 18.9277V79.4956H42.0659H99.4966V53.2495V45.1738V18.9277Z" fill="#F9F8FC" stroke="#BEB9D7" stroke-linecap="round" stroke-linejoin="round"/>
<rect width="75.5763" height="60.5602" transform="matrix(0.965803 -0.259276 0.258363 0.966048 0.755371 20.3516)" fill="white"/>
<path d="M73.7472 0.756431L0.755371 20.3516L16.4019 78.8556L89.3937 59.2605L82.6136 33.9087L80.5274 26.1082L73.7472 0.756431Z" stroke="#3C3C64" stroke-width="1.5" stroke-linecap="round" stroke-linejoin="round"/>
<path fill-rule="evenodd" clip-rule="evenodd" d="M12.6341 21.8657C12.8501 22.6735 12.3717 23.5038 11.5654 23.7202C10.7592 23.9367 9.93047 23.4573 9.71444 22.6495C9.49841 21.8417 9.97687 21.0115 10.7831 20.795C11.5894 20.5786 12.4181 21.0579 12.6341 21.8657ZM7.76846 23.1724C7.9845 23.9801 7.50603 24.8104 6.69979 25.0269C5.89354 25.2433 5.06482 24.7639 4.84879 23.9562C4.63275 23.1484 5.11122 22.3181 5.91746 22.1017C6.72371 21.8852 7.55243 22.3646 7.76846 23.1724ZM16.4317 22.4146C17.238 22.1981 17.7164 21.3678 17.5004 20.5601C17.2844 19.7523 16.4556 19.2729 15.6494 19.4894C14.8431 19.7058 14.3647 20.5361 14.5807 21.3439C14.7968 22.1516 15.6255 22.631 16.4317 22.4146Z" fill="#3C3C64"/>
<path d="M11.7397 34.125L24.8092 36.1901L14.869 45.8258" stroke="#7D64FF" stroke-width="2" stroke-linejoin="round"/>
<line y1="-1" x2="14.1076" y2="-1" transform="matrix(0.965803 -0.259276 0.258363 0.966048 27.7817 43.4043)" stroke="#7D64FF" stroke-width="2"/>
<line x1="0.5" y1="-0.5" x2="12.5999" y2="-0.5" transform="matrix(0.965803 -0.259276 0.258363 0.966048 20.8311 64.3516)" stroke="#3C3C64" stroke-linecap="round"/>
<line x1="0.5" y1="-0.5" x2="30.7382" y2="-0.5" transform="matrix(0.965803 -0.259276 0.258363 0.966048 36.4028 60.1709)" stroke="#3C3C64" stroke-linecap="round"/>
<line x1="0.5" y1="-0.5" x2="8.56916" y2="-0.5" transform="matrix(0.965803 -0.259276 0.258363 0.966048 69.4927 51.2871)" stroke="#3C3C64" stroke-linecap="round"/>
<line x1="0.5" y1="-0.5" x2="32.7536" y2="-0.5" transform="matrix(0.965803 -0.259276 0.258363 0.966048 19.5273 59.4766)" stroke="#7D64FF" stroke-linecap="round"/>
<line x1="0.5" y1="-0.5" x2="22.6767" y2="-0.5" transform="matrix(0.965803 -0.259276 0.258363 0.966048 54.564 50.0703)" stroke="#7D64FF" stroke-linecap="round"/>
<line x1="0.5" y1="-0.5" x2="20.6614" y2="-0.5" transform="matrix(0.965803 -0.259276 0.258363 0.966048 18.2236 54.6006)" stroke="#3C3C64" stroke-linecap="round"/>
<line x1="0.5" y1="-0.5" x2="2.52305" y2="-0.5" transform="matrix(0.965803 -0.259276 0.258363 0.966048 41.5811 48.3301)" stroke="#3C3C64" stroke-linecap="round"/>
<line x1="0.5" y1="-0.5" x2="2.52305" y2="-0.5" transform="matrix(0.965803 -0.259276 0.258363 0.966048 47.4199 46.7627)" stroke="#3C3C64" stroke-linecap="round"/>
<line x1="0.5" y1="-0.5" x2="2.52305" y2="-0.5" transform="matrix(0.965803 -0.259276 0.258363 0.966048 53.2603 45.1953)" stroke="#3C3C64" stroke-linecap="round"/>
<line x1="0.5" y1="-0.5" x2="16.6306" y2="-0.5" transform="matrix(0.965803 -0.259276 0.258363 0.966048 59.0991 43.6279)" stroke="#3C3C64" stroke-linecap="round"/>
<line x1="0.5" y1="-0.5" x2="29.7305" y2="-0.5" transform="matrix(0.965803 -0.259276 0.258363 0.966048 22.1353 69.2275)" stroke="#3C3C64" stroke-linecap="round"/>
<line x1="0.5" y1="-0.5" x2="2.52305" y2="-0.5" transform="matrix(0.965803 -0.259276 0.258363 0.966048 54.252 60.6045)" stroke="#3C3C64" stroke-linecap="round"/>
<line x1="0.5" y1="-0.5" x2="2.52305" y2="-0.5" transform="matrix(0.965803 -0.259276 0.258363 0.966048 60.0908 59.0371)" stroke="#3C3C64" stroke-linecap="round"/>
<line x1="0.5" y1="-0.5" x2="13.6076" y2="-0.5" transform="matrix(0.965803 -0.259276 0.258363 0.966048 65.9312 57.4697)" stroke="#3C3C64" stroke-linecap="round"/>
<path d="M3.10254 29.1289L69.2818 11.3627" stroke="#3C3C64" stroke-linecap="round"/>
<path d="M99.4966 18.9277L16.877 18.9277V79.4956H42.0659H99.4966V53.2495V45.1738V18.9277Z" fill="#F9F8FC"/>
<path fill-rule="evenodd" clip-rule="evenodd" d="M16.373 18.9276C16.373 18.6488 16.5986 18.4229 16.8768 18.4229L99.4965 18.4229C99.7747 18.4229 100 18.6488 100 18.9276V79.4954C100 79.7742 99.7747 80.0001 99.4965 80.0001H16.8768C16.5986 80.0001 16.373 79.7742 16.373 79.4954V18.9276ZM17.3806 19.4323V78.9907H98.9927V19.4323L17.3806 19.4323Z" fill="#BEB9D7"/>
<rect width="75.5763" height="60.5602" transform="matrix(0.965803 -0.259276 0.258363 0.966048 0.755859 20.3516)" fill="white"/>
<path fill-rule="evenodd" clip-rule="evenodd" d="M73.552 0.0259854C73.9551 -0.0822355 74.3694 0.157448 74.4775 0.561334L90.124 59.0654C90.1758 59.2593 90.1487 59.466 90.0485 59.6399C89.9483 59.8137 89.7832 59.9406 89.5896 59.9926L16.5977 79.5877C16.1946 79.696 15.7803 79.4563 15.6722 79.0524L0.0257506 20.5484C-0.0261207 20.3544 0.00103443 20.1478 0.101242 19.9739C0.20145 19.8 0.366502 19.6731 0.560088 19.6211L73.552 0.0259854ZM1.68117 20.8878L16.9365 77.9292L88.4685 58.726L73.2132 1.68454L1.68117 20.8878Z" fill="#3C3C64"/>
<path fill-rule="evenodd" clip-rule="evenodd" d="M12.6346 21.8667C12.8506 22.6745 12.3722 23.5048 11.5659 23.7212C10.7597 23.9376 9.93096 23.4583 9.71493 22.6505C9.4989 21.8427 9.97736 21.0124 10.7836 20.796C11.5899 20.5796 12.4186 21.0589 12.6346 21.8667ZM7.76895 23.1733C7.98498 23.9811 7.50652 24.8114 6.70028 25.0278C5.89403 25.2443 5.06531 24.7649 4.84928 23.9571C4.63324 23.1494 5.11171 22.3191 5.91795 22.1026C6.7242 21.8862 7.55292 22.3656 7.76895 23.1733ZM16.4322 22.4155C17.2385 22.1991 17.7169 21.3688 17.5009 20.561C17.2848 19.7533 16.4561 19.2739 15.6499 19.4903C14.8436 19.7068 14.3652 20.5371 14.5812 21.3448C14.7972 22.1526 15.626 22.632 16.4322 22.4155Z" fill="#3C3C64"/>
<path fill-rule="evenodd" clip-rule="evenodd" d="M11.5835 35.1216L22.6609 36.8756L14.1739 45.0985L15.576 46.5497L25.5146 36.9204C25.7891 36.6544 25.8896 36.2558 25.7743 35.8909C25.659 35.526 25.3476 35.2577 24.9701 35.1979L11.8967 33.1279L11.5835 35.1216ZM27.7831 43.4038L41.4083 39.7461L40.8867 37.7959L27.2616 41.4537L27.7831 43.4038Z" fill="#7D64FF"/>
<path fill-rule="evenodd" clip-rule="evenodd" d="M69.7194 50.1827C69.4506 50.2548 69.2911 50.5316 69.3632 50.8008C69.4352 51.0701 69.7114 51.2299 69.9802 51.1577L77.766 49.0676C78.0347 48.9954 78.1942 48.7187 78.1222 48.4494C78.0502 48.1802 77.7739 48.0204 77.5052 48.0925L69.7194 50.1827ZM36.2734 59.6836C36.2014 59.4144 36.3609 59.1376 36.6297 59.0655L65.8264 51.2274C66.0952 51.1553 66.3714 51.3151 66.4434 51.5843C66.5154 51.8536 66.3559 52.1303 66.0872 52.2025L36.8904 60.0405C36.6217 60.1127 36.3455 59.9529 36.2734 59.6836ZM20.7024 63.8635C20.6303 63.5943 20.7897 63.3176 21.0585 63.2456L32.7386 60.1159C33.0074 60.0439 33.2838 60.2038 33.3559 60.473C33.4281 60.7422 33.2687 61.0188 32.9999 61.0909L21.3197 64.2206C21.0509 64.2926 20.7745 64.1327 20.7024 63.8635Z" fill="#3C3C64"/>
<path fill-rule="evenodd" clip-rule="evenodd" d="M54.7906 48.9644C54.5219 49.0366 54.3624 49.3134 54.4344 49.5826C54.5064 49.8519 54.7826 50.0117 55.0514 49.9395L76.4623 44.1916C76.7311 44.1195 76.8906 43.8427 76.8186 43.5734C76.7465 43.3042 76.4703 43.1444 76.2016 43.2165L54.7906 48.9644ZM19.7543 58.3716C19.4855 58.4436 19.3261 58.7202 19.3982 58.9895C19.4703 59.2587 19.7467 59.4185 20.0155 59.3465L51.1627 51.0007C51.4314 50.9286 51.5908 50.652 51.5187 50.3828C51.4466 50.1136 51.1702 49.9537 50.9014 50.0257L19.7543 58.3716Z" fill="#7D64FF"/>
<path fill-rule="evenodd" clip-rule="evenodd" d="M59.3255 42.5218C59.0567 42.594 58.8972 42.8707 58.9693 43.14C59.0413 43.4093 59.3175 43.5691 59.5863 43.4969L75.1579 39.3166C75.4266 39.2445 75.5861 38.9677 75.5141 38.6984C75.4421 38.4292 75.1658 38.2694 74.8971 38.3415L59.3255 42.5218ZM53.1302 44.7074C53.0582 44.4381 53.2177 44.1614 53.4864 44.0892L55.4329 43.5667C55.7016 43.4945 55.9779 43.6543 56.0499 43.9236C56.1219 44.1928 55.9624 44.4696 55.6937 44.5417L53.7472 45.0643C53.4785 45.1364 53.2022 44.9766 53.1302 44.7074ZM47.6469 45.6566C47.3782 45.7287 47.2187 46.0055 47.2907 46.2748C47.3627 46.544 47.6389 46.7038 47.9077 46.6317L49.8541 46.1091C50.1229 46.037 50.2824 45.7602 50.2104 45.491C50.1383 45.2217 49.8621 45.0619 49.5934 45.1341L47.6469 45.6566ZM41.4511 47.8422C41.3791 47.5729 41.5386 47.2961 41.8074 47.224L43.7538 46.7014C44.0226 46.6293 44.2988 46.7891 44.3708 47.0583C44.4428 47.3276 44.2833 47.6044 44.0146 47.6765L42.0681 48.1991C41.7994 48.2712 41.5232 48.1114 41.4511 47.8422ZM18.094 54.1131C18.0219 53.8438 18.1813 53.5672 18.4501 53.4952L37.917 48.279C38.1858 48.207 38.4622 48.3669 38.5343 48.6361C38.6065 48.9053 38.4471 49.1819 38.1783 49.254L18.7113 54.4701C18.4425 54.5421 18.1661 54.3823 18.094 54.1131Z" fill="#3C3C64"/>
<path fill-rule="evenodd" clip-rule="evenodd" d="M66.1573 56.364C65.8885 56.4362 65.729 56.7129 65.8011 56.9822C65.8731 57.2514 66.1493 57.4112 66.4181 57.3391L79.07 53.9426C79.3387 53.8704 79.4982 53.5937 79.4262 53.3244C79.3542 53.0552 79.0779 52.8954 78.8092 52.9675L66.1573 56.364ZM59.9615 58.5496C59.8895 58.2803 60.049 58.0035 60.3177 57.9314L62.2642 57.4089C62.5329 57.3367 62.8092 57.4965 62.8812 57.7658C62.9532 58.035 62.7937 58.3118 62.525 58.3839L60.5785 58.9065C60.3098 58.9786 60.0335 58.8188 59.9615 58.5496ZM54.4787 59.4997C54.2099 59.5719 54.0505 59.8487 54.1225 60.1179C54.1945 60.3872 54.4707 60.547 54.7395 60.4748L56.6859 59.9523C56.9547 59.8801 57.1142 59.6034 57.0421 59.3341C56.9701 59.0649 56.6939 58.9051 56.4251 58.9772L54.4787 59.4997ZM22.3622 68.1215C22.0934 68.1935 21.934 68.4701 22.0061 68.7393C22.0783 69.0085 22.3546 69.1684 22.6234 69.0964L50.8505 61.533C51.1193 61.4609 51.2787 61.1843 51.2066 60.9151C51.1344 60.6459 50.8581 60.486 50.5893 60.558L22.3622 68.1215Z" fill="#3C3C64"/>
<path fill-rule="evenodd" clip-rule="evenodd" d="M2.61574 29.258C2.54373 28.9888 2.70322 28.712 2.97196 28.6399L69.1513 10.8736C69.42 10.8015 69.6963 10.9613 69.7683 11.2305C69.8403 11.4998 69.6808 11.7765 69.412 11.8487L3.23274 29.6149C2.96399 29.6871 2.68775 29.5273 2.61574 29.258Z" fill="#3C3C64"/>
</svg>
