<svg width="682" height="413" viewBox="0 0 682 413" fill="none" xmlns="http://www.w3.org/2000/svg">
<g clip-path="url(#clip0)">
<path d="M627.801 34.4016L668.601 28.1016L682.101 35.9016V34.7016L669.001 27.2016L668.801 27.1016L627.601 33.5016L598.001 16.4016L605.301 0.701562H604.201L597.001 16.1016L576.601 19.3016L556.201 22.5016L526.501 5.30156L528.701 0.601562H527.601L525.501 5.00156L505.101 8.20156L484.701 11.4016L466.201 0.601562H464.201L484.001 12.1016L473.301 35.2016L452.901 38.4016L432.501 41.6016L402.901 24.5016L408.301 12.9016L413.701 1.30156L418.001 0.601562H411.901L412.601 1.00156L401.901 24.1016L381.501 27.3016L361.101 30.5016L331.501 13.4016L336.901 1.80156L337.501 0.601562H336.401L336.001 1.50156L330.601 13.1016L310.201 16.3016L289.801 19.5016L260.101 2.30156L260.901 0.601562H259.801L259.101 2.10156L238.701 5.30156L218.301 8.40156L204.801 0.601562H202.801L217.501 9.10156L206.801 32.2016L186.401 35.4016L166.001 38.6016L136.401 21.5016L146.101 0.701562H145.001L135.401 21.3016L115.001 24.4016L94.6008 27.6016L65.0008 10.4016L69.5008 0.601562H68.4008L64.0008 10.2016L22.8008 16.6016L11.8008 40.4016L-0.0992187 42.2016V43.2016L12.0008 41.3016L41.6008 58.4016L36.2008 70.0016L30.8008 81.6016L10.4008 84.8016L-0.199219 86.4016V87.4016L10.6008 85.7016L31.0008 82.6016L60.6008 99.7016L55.2008 111.302L50.0008 122.802L29.6008 126.002L9.20078 129.202L-0.0992187 123.802V124.902L8.50078 129.902L-0.0992187 148.402V150.802L9.50078 130.202L29.9008 127.102L50.3008 123.902L79.9008 141.002L74.5008 152.602L69.1008 164.002L48.7008 167.202L28.3008 170.302L-0.199219 153.902V155.102L27.5008 171.102L16.8008 194.202L-0.199219 196.802V197.802L17.0008 195.102L46.6008 212.202L41.2008 223.802L36.0008 235.502L15.6008 238.602L-0.0992187 241.002V242.002L15.9008 239.502L36.3008 236.302L65.9008 253.402L60.5008 265.002L55.1008 276.602L34.7008 279.802L14.3008 283.002L-0.199219 274.602V275.802L13.5008 283.702L2.90078 306.802L-0.0992187 307.302V308.302L3.10078 307.802L32.7008 324.902L27.3008 336.502L22.0008 348.102L1.60078 351.302L-0.0992187 351.602V352.602L1.90078 352.302L22.3008 349.102L51.9008 366.202L46.5008 377.802L41.1008 389.402L20.7008 392.602L0.300781 395.802L-0.199219 395.502V398.302L0.500781 396.802L20.9008 393.602L41.3008 390.402L71.0008 407.402L68.7008 412.402H69.8008L72.0008 407.702L92.4008 404.602L112.801 401.402L131.901 412.502H133.901L113.501 400.702L118.901 389.102L124.301 377.502L144.701 374.402L165.101 371.202L194.701 388.302L189.301 399.902L183.901 411.502L177.601 412.502H186.101L184.901 411.802L190.301 400.202L195.701 388.602L216.101 385.502L236.501 382.302L266.101 399.402L260.701 411.002L260.001 412.502H261.101L261.701 411.302L267.101 399.702L287.501 396.502L307.901 393.402L337.501 410.502L336.601 412.502H337.701L338.501 410.702L358.901 407.502L379.301 404.402L393.301 412.502H395.301L380.001 403.702L390.701 380.602L411.101 377.402L431.501 374.302L461.101 391.402L455.701 403.002L451.201 412.602H452.301L456.601 403.302L462.001 391.702L482.401 388.602L502.801 385.402L532.401 402.502L527.701 412.602H528.801L533.401 402.702L553.801 399.602L574.201 396.402L602.201 412.602H604.201L574.901 395.702L580.301 384.102L585.701 372.502L606.101 369.402L626.501 366.202L656.101 383.302L645.401 406.402L625.001 409.602L606.001 412.502H612.601L625.301 410.502L645.701 407.302L654.601 412.402H656.601L646.501 406.502L657.201 383.402L677.601 380.202L682.101 379.502V378.502L677.301 379.202L656.901 382.402L627.301 365.302L632.701 353.702L638.101 342.102L658.501 339.002L678.901 335.802L682.201 337.702V336.502L679.701 335.002L682.201 329.602V327.202L678.701 334.802L658.301 337.902L637.901 341.102L608.301 324.002L619.001 300.902L639.401 297.702L659.801 294.602L682.201 307.502V306.302L660.501 293.802L665.901 282.202L671.301 270.602L682.201 268.902V267.902L671.001 269.602L641.401 252.502L646.801 240.902L652.201 229.302L672.601 226.202L682.301 224.702V223.702L672.401 225.202L652.001 228.402L622.401 211.302L633.101 188.202L653.501 185.002L673.901 181.902L682.301 186.702V185.502L674.701 181.102L682.301 164.602V162.202L679.001 169.302L673.601 180.902L653.201 184.102L632.801 187.302L603.201 170.202L608.601 158.602L614.001 147.002L634.401 143.802L654.801 140.602L682.301 156.502V155.302L655.301 140.002L660.701 128.402L666.101 116.802L682.201 114.302V113.302L665.901 115.802L636.301 98.7016L647.001 75.7016L667.401 72.5016L682.201 70.2016V69.2016L667.201 71.5016L646.801 74.7016L617.201 57.6016L622.601 46.0016L627.801 34.4016ZM485.001 12.3016L505.401 9.10156L525.801 6.00156L555.401 23.1016L550.001 34.7016L544.601 46.3016L524.201 49.5016L503.801 52.7016L474.201 35.6016L485.001 12.3016ZM295.101 174.302L315.501 171.102L335.901 167.902L365.501 185.002L354.801 208.102L334.401 211.302L314.001 214.502L284.401 197.402L295.101 174.302ZM294.801 173.302L265.201 156.202L270.601 144.602L276.001 133.002L296.401 129.802L316.801 126.602L346.401 143.702L335.601 167.002L315.201 170.202L294.801 173.302ZM313.201 215.302L307.801 226.902L302.401 238.502L282.001 241.702L261.601 244.902L232.001 227.802L242.701 204.702L263.101 201.502L283.501 198.302L313.201 215.302ZM261.901 245.702L282.301 242.502L302.701 239.302L332.301 256.402L326.901 268.002L321.501 279.602L301.101 282.802L280.701 286.002L251.101 268.902L256.501 257.302L261.901 245.702ZM303.501 238.702L308.901 227.102L314.301 215.502L355.101 209.202L384.701 226.302L379.301 237.902L373.901 249.502L353.501 252.702L333.101 255.902L303.501 238.702ZM380.201 238.102L385.601 226.502L406.001 223.302L426.401 220.102L456.001 237.202L445.301 260.302L424.901 263.502L404.501 266.702L374.901 249.602L380.201 238.102ZM426.101 219.302L405.701 222.502L385.301 225.702L355.701 208.602L366.401 185.502L386.801 182.302L407.201 179.102L436.801 196.202L431.401 207.802L426.101 219.302ZM407.001 178.002L386.601 181.202L366.201 184.402L336.601 167.302L347.301 144.202L367.701 141.002L388.101 137.802L417.701 154.902L407.001 178.002ZM387.901 136.802L367.501 140.002L347.101 143.202L317.501 126.002L322.901 114.402L328.301 102.802L348.701 99.6016L369.101 96.4016L398.701 113.502L387.901 136.802ZM321.801 114.202L316.401 125.802L296.001 129.002L275.601 132.202L246.101 115.002L251.501 103.402L256.901 91.8016L277.301 88.6016L297.701 85.4016L327.301 102.502L321.801 114.202ZM274.901 132.802L269.501 144.402L264.101 156.002L243.701 159.202L223.301 162.402L193.701 145.302L204.401 122.202L224.801 119.002L245.201 115.802L274.901 132.802ZM223.701 163.202L244.101 160.002L264.501 156.802L294.101 173.902L283.401 197.002L263.001 200.202L242.601 203.402L213.001 186.302L223.701 163.202ZM241.801 204.202L231.101 227.302L210.701 230.502L190.301 233.702L160.701 216.602L171.401 193.502L191.801 190.302L212.201 187.102L241.801 204.202ZM190.501 234.602L210.901 231.402L231.301 228.202L260.901 245.302L255.501 256.902L250.101 268.502L229.701 271.702L209.301 274.902L179.701 257.802L190.501 234.602ZM209.701 275.902L230.101 272.702L250.501 269.502L280.101 286.602L269.401 309.702L249.001 312.902L228.601 316.102L198.901 299.002L204.301 287.402L209.701 275.902ZM281.101 286.902L301.501 283.702L321.901 280.502L351.501 297.602L340.801 320.702L320.401 323.902L300.001 327.102L270.401 310.002L281.101 286.902ZM322.601 279.902L333.301 256.802L353.701 253.602L374.101 250.402L403.701 267.502L393.001 290.702L372.601 293.902L352.201 297.102L322.601 279.902ZM399.401 279.402L404.801 267.802L425.201 264.602L445.601 261.402L475.201 278.502L469.801 290.102L464.401 301.702L444.001 304.902L423.601 308.102L394.001 290.902L399.401 279.402ZM446.301 260.802L457.001 237.702L477.401 234.502L497.801 231.302L527.401 248.402L522.001 260.002L516.601 271.602L496.201 274.802L475.801 278.002L446.301 260.802ZM497.601 230.302L477.201 233.502L456.801 236.702L427.201 219.602L432.601 208.002L438.001 196.402L458.401 193.202L478.801 190.002L508.401 207.102L497.601 230.302ZM478.401 189.102L458.001 192.302L437.601 195.502L408.001 178.302L413.401 166.702L418.801 155.102L439.201 151.902L459.601 148.702L489.201 165.802L483.801 177.402L478.401 189.102ZM459.301 147.902L438.901 151.102L418.501 154.302L388.901 137.202L394.301 125.602L399.701 114.002L420.101 110.802L440.501 107.602L470.101 124.702L459.301 147.902ZM441.101 106.902L446.501 95.3016L451.901 83.7016L472.301 80.5016L492.701 77.3016L522.301 94.4016L516.901 106.002L511.501 117.602L491.101 120.802L470.701 124.002L441.101 106.902ZM445.501 95.1016L440.101 106.702L419.701 109.902L399.301 113.102L369.701 96.0016L375.101 84.4016L380.501 72.8016L400.901 69.6016L421.301 66.4016L450.901 83.5016L445.501 95.1016ZM374.101 84.0016L368.701 95.6016L348.301 98.8016L327.901 102.002L298.301 84.9016L309.001 61.8016L329.401 58.6016L349.801 55.4016L379.401 72.5016L374.101 84.0016ZM297.301 84.5016L277.001 87.7016L256.601 90.9016L227.001 73.8016L237.701 50.7016L258.101 47.5016L278.501 44.3016L308.101 61.4016L297.301 84.5016ZM255.801 91.6016L245.101 114.702L224.701 117.902L204.301 121.102L174.701 104.002L185.401 80.9016L205.801 77.7016L226.201 74.5016L255.801 91.6016ZM173.701 103.702L153.301 106.902L132.901 110.102L103.301 93.0016L108.701 81.4016L114.101 69.8016L134.501 66.6016L154.901 63.4016L184.501 80.5016L173.701 103.702ZM133.101 111.002L153.501 107.802L173.901 104.602L203.501 121.702L192.801 144.802L172.401 148.002L152.001 151.102L122.401 134.002L133.101 111.002ZM152.201 152.202L172.601 149.002L193.001 145.802L222.601 162.902L217.201 174.502L211.801 186.102L191.401 189.302L171.001 192.502L141.401 175.402L146.801 163.802L152.201 152.202ZM170.401 193.202L159.701 216.302L139.301 219.502L118.901 222.702L89.3008 205.602L94.7008 194.002L100.101 182.402L120.501 179.202L140.901 176.002L170.401 193.202ZM119.101 223.602L139.501 220.402L159.901 217.202L189.501 234.302L178.801 257.402L158.401 260.602L138.001 263.702L108.401 246.602L119.101 223.602ZM138.201 264.802L158.601 261.602L179.001 258.402L208.601 275.502L203.201 287.102L197.801 298.702L177.401 301.902L157.001 305.102L127.501 288.002L132.901 276.402L138.201 264.802ZM156.401 305.802L145.701 328.902L125.301 332.102L104.901 335.302L75.3008 318.202L80.7008 306.602L86.0008 295.002L106.401 291.802L126.801 288.602L156.401 305.802ZM157.401 306.002L177.801 302.802L198.201 299.602L227.801 316.702L222.401 328.302L217.001 339.902L196.601 343.102L176.201 346.302L146.601 329.202L157.401 306.002ZM228.801 317.102L249.201 313.902L269.601 310.702L299.201 327.802L293.801 339.402L288.401 351.002L268.001 354.202L247.601 357.402L218.001 340.302L228.801 317.102ZM294.801 339.702L300.201 328.102L320.601 325.002L341.001 321.802L370.601 338.902L365.201 350.502L359.801 362.102L339.401 365.302L319.001 368.402L289.401 351.302L294.801 339.702ZM341.701 321.102L352.401 298.002L372.801 294.802L393.201 291.602L422.801 308.702L417.401 320.302L412.001 331.902L391.601 335.102L371.201 338.302L341.701 321.102ZM418.501 320.602L423.901 309.002L444.301 305.802L464.701 302.602L494.301 319.702L483.601 343.002L463.201 346.202L442.801 349.402L413.201 332.302L418.501 320.602ZM495.301 320.102L515.701 316.902L536.101 313.802L565.701 330.902L555.001 354.002L534.601 357.202L514.201 360.402L484.601 343.302L495.301 320.102ZM535.801 312.802L515.401 316.002L495.001 319.102L465.401 302.002L470.801 290.402L476.201 278.802L496.601 275.702L517.001 272.502L546.601 289.602L541.201 301.202L535.801 312.802ZM517.701 271.802L523.101 260.202L528.501 248.602L548.901 245.502L569.301 242.302L598.901 259.402L593.501 271.002L588.101 282.602L567.701 285.802L547.301 289.002L517.701 271.802ZM569.001 241.402L548.601 244.602L528.201 247.802L498.601 230.702L509.301 207.602L529.701 204.402L550.101 201.302L579.701 218.402L569.001 241.402ZM549.801 200.102L529.401 203.302L509.001 206.502L479.401 189.402L484.801 177.802L490.201 166.202L510.601 163.002L531.001 159.802L560.601 176.902L555.201 188.502L549.801 200.102ZM530.701 158.902L510.301 162.102L489.901 165.302L460.301 148.202L471.001 125.002L491.401 121.802L511.801 118.602L541.401 135.702L536.001 147.302L530.701 158.902ZM512.501 117.902L523.201 94.8016L543.601 91.6016L564.001 88.5016L593.601 105.602L583.001 128.702L562.601 131.902L542.201 135.102L512.501 117.902ZM563.801 87.5016L543.401 90.7016L523.001 93.8016L493.401 76.7016L498.801 65.1016L504.201 53.5016L524.601 50.3016L545.001 47.1016L574.601 64.2016L563.801 87.5016ZM432.701 42.5016L453.101 39.3016L473.501 36.1016L503.101 53.2016L497.701 64.8016L492.301 76.4016L472.001 79.6016L451.601 82.8016L422.001 65.7016L427.401 54.1016L432.701 42.5016ZM361.301 31.5016L381.701 28.3016L402.101 25.1016L431.701 42.2016L421.001 65.4016L400.601 68.6016L380.201 71.8016L350.601 54.7016L361.301 31.5016ZM289.901 20.4016L310.301 17.2016L330.701 14.0016L360.301 31.1016L349.601 54.2016L329.201 57.4016L308.801 60.6016L279.201 43.5016L284.601 31.9016L289.901 20.4016ZM218.501 9.40156L238.901 6.20156L259.301 3.00156L289.001 20.2016L283.601 31.8016L278.201 43.4016L257.801 46.6016L237.401 49.8016L207.801 32.7016L218.501 9.40156ZM166.301 39.6016L186.701 36.4016L207.101 33.2016L236.701 50.3016L231.301 61.9016L225.901 73.5016L205.501 76.6016L185.101 79.8016L155.501 62.7016L160.901 51.1016L166.301 39.6016ZM94.9008 28.5016L115.301 25.3016L135.701 22.1016L165.301 39.2016L159.901 50.8016L154.501 62.4016L134.101 65.6016L113.701 68.8016L84.1008 51.7016L94.9008 28.5016ZM12.7008 40.6016L23.4008 17.5016L64.2008 11.2016L93.8008 28.3016L83.1008 51.4016L62.7008 54.6016L42.3008 57.7016L12.7008 40.6016ZM31.8008 81.8016L37.2008 70.2016L42.6008 58.6016L63.0008 55.5016L83.4008 52.3016L113.001 69.5016L107.601 81.1016L102.201 92.7016L81.8008 95.9016L61.5008 99.0016L31.8008 81.8016ZM51.0008 123.102L56.4008 111.502L61.8008 99.9016L82.2008 96.7016L102.601 93.5016L132.201 110.602L121.501 133.702L101.001 137.002L80.6008 140.202L51.0008 123.102ZM80.9008 141.102L101.301 137.902L121.701 134.702L151.301 151.802L145.901 163.402L140.501 175.002L120.101 178.202L99.7008 181.402L70.1008 164.302L80.9008 141.102ZM17.8008 194.502L28.5008 171.402L48.9008 168.202L69.3008 165.002L99.0008 182.102L93.6008 193.702L88.2008 205.302L67.8008 208.502L47.4008 211.702L17.8008 194.502ZM37.0008 235.702L42.4008 224.102L47.8008 212.502L68.2008 209.302L88.6008 206.102L118.201 223.202L107.501 246.302L87.0008 249.602L66.6008 252.802L37.0008 235.702ZM66.9008 253.802L87.3008 250.602L107.701 247.402L137.301 264.502L126.601 287.602L106.201 290.802L85.7008 294.002L56.1008 276.902L66.9008 253.802ZM3.80078 307.102L9.20078 295.502L14.6008 283.902L35.0008 280.702L55.4008 277.502L85.0008 294.802L79.6008 306.402L74.2008 318.002L53.9008 321.002L33.5008 324.202L3.80078 307.102ZM23.0008 348.302L28.4008 336.702L33.8008 325.102L54.2008 321.902L74.6008 318.702L104.201 335.802L93.5008 358.902L73.0008 362.302L52.6008 365.502L23.0008 348.302ZM112.501 400.302L92.1008 403.402L71.7008 406.602L42.1008 389.502L52.8008 366.402L73.2008 363.202L93.6008 360.002L123.201 377.102L112.501 400.302ZM164.801 370.202L144.401 373.402L124.001 376.602L94.4008 359.502L99.8008 347.902L105.201 336.302L125.601 333.102L146.001 329.902L175.601 347.002L164.801 370.202ZM236.201 381.202L215.801 384.402L195.401 387.602L165.801 370.502L176.501 347.402L196.901 344.202L217.301 341.002L246.901 358.102L241.501 369.702L236.201 381.202ZM307.601 392.302L287.201 395.502L266.801 398.602L237.201 381.502L242.601 369.902L248.001 358.302L268.401 355.102L288.801 351.902L318.401 369.002L313.001 380.602L307.601 392.302ZM379.001 403.302L358.601 406.502L338.201 409.702L308.601 392.602L314.001 381.002L319.401 369.402L339.801 366.202L360.201 363.102L389.801 380.202L379.001 403.302ZM431.301 373.102L410.901 376.302L390.501 379.402L360.901 362.302L366.301 350.702L371.701 339.102L392.001 336.002L412.401 332.802L442.001 350.002L436.601 361.602L431.301 373.102ZM502.701 384.202L482.301 387.302L461.901 390.502L432.301 373.402L437.701 361.802L443.101 350.202L463.501 347.002L483.901 343.902L513.501 361.002L502.701 384.202ZM579.501 383.602L574.101 395.202L553.701 398.302L533.301 401.502L503.701 384.402L509.101 372.802L514.501 361.202L534.901 358.102L555.301 354.902L584.901 372.002L579.501 383.602ZM637.101 341.902L631.701 353.502L626.301 365.102L605.901 368.202L585.501 371.402L555.901 354.302L561.301 342.702L566.701 331.102L587.101 327.902L607.501 324.702L637.101 341.902ZM612.601 312.202L607.201 323.802L586.801 327.002L566.401 330.202L536.801 313.002L542.201 301.402L547.601 289.802L568.001 286.602L588.401 283.402L618.001 300.502L612.601 312.202ZM670.201 270.502L664.801 282.102L659.401 293.702L639.001 296.902L618.601 300.102L589.001 283.002L594.401 271.402L599.801 259.802L620.201 256.602L640.601 253.402L670.201 270.502ZM651.101 229.302L645.701 240.902L640.301 252.502L619.901 255.702L599.501 258.902L569.901 241.802L575.301 230.202L580.701 218.602L601.101 215.402L621.501 212.202L651.101 229.302ZM632.001 188.002L621.301 211.102L600.901 214.302L580.501 217.502L550.901 200.402L556.301 188.802L561.701 177.202L582.101 174.002L602.501 170.802L632.001 188.002ZM607.501 158.402L602.101 170.002L581.701 173.202L561.301 176.402L531.701 159.302L537.101 147.702L542.501 136.102L562.901 133.002L583.301 129.802L612.901 146.902L607.501 158.402ZM665.101 116.602L659.701 128.202L654.301 139.802L633.901 143.002L613.501 146.202L584.001 129.002L594.701 105.902L615.101 102.702L635.501 99.5016L665.101 116.602ZM646.001 75.4016L635.301 98.5016L614.901 101.702L594.501 104.902L564.901 87.8016L570.301 76.2016L575.701 64.6016L596.101 61.4016L616.501 58.2016L646.001 75.4016ZM616.101 57.3016L595.701 60.5016L575.301 63.7016L545.701 46.6016L551.001 35.0016L556.401 23.4016L576.801 20.3016L597.201 17.1016L626.801 34.2016L621.401 45.8016L616.101 57.3016Z" fill="url(#paint0_radial)"/>
<path d="M205.801 133.902L276.801 174.902L277.601 173.602L206.601 132.602L205.801 133.902ZM159.901 161.002L206.501 133.902L205.701 132.602L159.101 159.702L159.901 161.002ZM276.801 175.002C277.201 175.202 277.601 175.102 277.801 174.702C278.001 174.302 277.901 173.902 277.501 173.702L276.801 175.002ZM206.201 133.302L206.601 132.702C206.401 132.602 206.101 132.602 205.801 132.702L206.201 133.302ZM159.201 159.702C158.801 159.902 158.701 160.402 158.901 160.702C159.101 161.102 159.601 161.202 159.901 161.002L159.201 159.702Z" fill="#3388FF"/>
<path d="M478.199 133.898L533.399 165.798L534.199 164.498L478.999 132.598L478.199 133.898ZM402.799 178.198L478.899 133.898L478.099 132.598L401.999 176.898L402.799 178.198ZM533.399 165.798C533.799 165.998 534.199 165.898 534.399 165.498C534.599 165.098 534.499 164.698 534.099 164.498L533.399 165.798ZM478.599 133.198L478.999 132.598C478.799 132.498 478.499 132.498 478.199 132.598L478.599 133.198ZM402.099 176.898C401.699 177.098 401.599 177.598 401.799 177.898C401.999 178.298 402.499 178.398 402.799 178.198L402.099 176.898Z" fill="#3388FF"/>
<path d="M448.8 240.599L398.2 269.999L347.4 240.599L397.9 211.199L448.8 240.599Z" fill="white"/>
<path d="M397.5 211.898L448.4 241.298L449.2 239.998L398.3 210.598L397.5 211.898ZM347.7 241.298L398.2 211.898L397.4 210.598L347 239.998L347.7 241.298ZM398.6 269.398L347.7 239.998L346.9 241.298L397.8 270.698L398.6 269.398ZM448.4 239.998L397.9 269.398L398.7 270.698L449.2 241.298L448.4 239.998ZM397.9 211.198L398.3 210.598C398.1 210.498 397.8 210.498 397.5 210.598L397.9 211.198ZM347.4 240.598L347 239.998C346.8 240.098 346.6 240.398 346.6 240.598C346.6 240.898 346.7 241.098 347 241.198L347.4 240.598ZM398.2 269.998L397.8 270.598C398 270.698 398.3 270.698 398.6 270.598L398.2 269.998ZM448.8 240.598L449.2 241.198C449.4 241.098 449.6 240.798 449.6 240.598C449.6 240.298 449.5 240.098 449.2 239.998L448.8 240.598Z" fill="#E1E5EA"/>
<path d="M398.2 270.002V281.302L347.4 251.902V240.602L398.2 270.002Z" fill="#F6F7F8"/>
<path d="M347 241.301L397.9 270.701L398.7 269.401L347.7 240.001L347 241.301ZM348.1 251.901V240.701H346.6V251.901H348.1ZM398.6 280.601L347.7 251.201L346.9 252.501L397.8 281.901L398.6 280.601ZM397.5 270.001V281.201H399V270.001H397.5ZM347.4 240.601L347.8 240.001C347.6 239.901 347.3 239.901 347 240.001C346.8 240.101 346.6 240.401 346.6 240.601H347.4ZM347.4 251.901H346.6C346.6 252.201 346.7 252.401 347 252.501L347.4 251.901ZM398.2 281.301L397.8 281.901C398 282.001 398.3 282.001 398.6 281.901C398.8 281.801 399 281.501 399 281.301H398.2ZM398.2 270.001H399C399 269.701 398.9 269.501 398.6 269.401L398.2 270.001Z" fill="#E1E5EA"/>
<path d="M448.799 240.602L398.199 270.002V281.302L448.799 251.902V240.602Z" fill="#F6F7F8"/>
<path d="M449.5 251.899V240.699H448V251.899H449.5ZM398.6 281.899L449.1 252.499L448.3 251.199L397.8 280.599L398.6 281.899ZM397.5 269.999V281.199H399V269.999H397.5ZM448.4 239.999L397.9 269.399L398.7 270.699L449.2 241.299L448.4 239.999ZM448.8 251.899L449.2 252.499C449.4 252.399 449.6 252.099 449.6 251.899H448.8ZM398.2 281.299H397.4C397.4 281.599 397.5 281.799 397.8 281.999C398 282.099 398.3 282.099 398.6 281.999L398.2 281.299ZM398.2 269.999L397.8 269.399C397.6 269.499 397.4 269.799 397.4 269.999H398.2ZM448.8 240.599H449.6C449.6 240.299 449.5 240.099 449.2 239.899C449 239.799 448.7 239.799 448.4 239.899L448.8 240.599Z" fill="#E1E5EA"/>
<path d="M394.599 257.901C394.999 257.701 395.399 257.501 395.899 257.401C396.299 257.301 396.699 257.301 397.099 257.301C397.499 257.301 397.799 257.401 398.199 257.601C398.499 257.801 398.899 257.901 399.199 258.201L401.999 260.001L400.799 260.701L397.999 259.001C397.799 258.801 397.499 258.701 397.299 258.601C397.099 258.501 396.899 258.401 396.699 258.401C396.499 258.401 396.299 258.401 396.099 258.401C395.899 258.501 395.699 258.501 395.499 258.701C395.299 258.801 395.199 258.901 394.999 259.001L394.699 259.201L398.799 261.901L397.599 262.601L392.699 259.401C392.899 259.201 393.199 258.901 393.399 258.701C393.699 258.401 394.099 258.201 394.599 257.901Z" fill="#9EA5B0"/>
<path d="M401.4 256.598L403.7 255.298C403.5 255.198 403.4 255.098 403.2 254.998C403 254.898 402.8 254.898 402.6 254.898C402.4 254.898 402.2 254.898 402 254.898C401.8 254.898 401.6 254.998 401.4 255.098C401.2 255.198 401.1 255.298 401 255.498C400.9 255.598 400.9 255.698 400.9 255.898C400.9 255.998 401 256.198 401 256.298C401.2 256.298 401.3 256.398 401.4 256.598ZM402.8 253.898C403.7 253.998 404.6 254.298 405.3 254.798L405.5 254.998C405.6 255.098 405.6 255.098 405.7 255.198L402.2 257.198C402.6 257.398 403.1 257.598 403.6 257.598C404.1 257.598 404.6 257.398 405.1 257.098C405.4 256.898 405.6 256.798 405.8 256.598C406 256.498 406.1 256.298 406.2 256.198L407.3 256.698L407.1 256.898C407 256.998 406.9 257.098 406.8 257.198L406.4 257.498L405.9 257.798C405.5 258.098 405 258.298 404.5 258.398C404 258.498 403.6 258.598 403.1 258.498C402.6 258.498 402.2 258.398 401.8 258.298C401.4 258.198 401 257.998 400.6 257.698C400.2 257.498 399.9 257.198 399.7 256.798C399.5 256.498 399.4 256.198 399.4 255.898C399.4 255.598 399.5 255.298 399.7 255.098C399.9 254.798 400.2 254.598 400.4 254.498C401.2 254.098 402 253.898 402.8 253.898Z" fill="#9EA5B0"/>
<path d="M424.299 240.702L424.599 240.502L424.999 240.302L425.399 240.202L425.699 240.102L426.499 240.902L425.999 241.102C425.799 241.202 425.499 241.302 425.299 241.402C425.199 241.502 424.999 241.602 424.899 241.702C424.799 241.802 424.699 241.802 424.699 241.902L428.699 244.502L427.499 245.202L422.699 242.102C422.899 241.902 423.099 241.602 423.299 241.402C423.599 241.202 423.999 240.902 424.299 240.702Z" fill="#9EA5B0"/>
<path d="M425.3 237.3L429.7 240.2V237.8L431.1 237C431.1 237.5 431.1 237.9 431.1 238.4C431.1 238.9 431.1 239.3 431.1 239.8H432.3C432.8 239.8 433.2 239.9 433.7 239.9L435.1 240.1C435.5 240.2 435.9 240.2 436.3 240.3L434.9 241.1L433.9 240.9C433.6 240.8 433.1 240.8 432.8 240.8C432.4 240.8 432 240.8 431.7 240.8H430.7L433 242.3L431.8 243L424.4 238.2L425.3 237.3Z" fill="#9EA5B0"/>
<path d="M423.2 246.099C423 245.699 422.7 245.299 422.3 245.099C421.8 244.799 421.3 244.599 420.8 244.499C420.3 244.399 419.8 244.499 419.4 244.799C419 244.999 418.8 245.299 418.9 245.599C419 245.799 419.1 245.999 419.2 246.199C419.3 246.399 419.5 246.499 419.7 246.599C420.2 246.899 420.7 247.099 421.2 247.199C421.7 247.299 422.2 247.199 422.6 246.899C423.1 246.699 423.3 246.399 423.2 246.099ZM422.4 243.799C422.8 243.899 423.3 244.099 423.7 244.399C424 244.599 424.4 244.899 424.6 245.199C424.8 245.399 424.9 245.699 424.9 246.099C424.9 246.399 424.8 246.699 424.6 246.899C424.4 247.199 424.1 247.399 423.8 247.599C423.4 247.799 423 247.999 422.6 248.099C422.2 248.199 421.7 248.199 421.3 248.199C420.8 248.199 420.4 248.099 419.9 247.999C419.4 247.899 419 247.699 418.6 247.399C418.2 247.199 417.9 246.899 417.7 246.599C417.5 246.399 417.4 246.099 417.4 245.799C417.4 245.499 417.5 245.199 417.7 244.999C417.9 244.699 418.2 244.499 418.5 244.299C418.9 244.099 419.3 243.899 419.7 243.799C420.1 243.699 420.6 243.699 421 243.699C421.5 243.499 421.9 243.599 422.4 243.799Z" fill="#9EA5B0"/>
<path d="M415.5 246C415.9 246.4 416.2 246.8 416.5 247.2C416.8 247.6 417.1 248 417.4 248.4C417.7 248.8 417.9 249.1 418.2 249.4C418.4 249.7 418.6 250 418.8 250.3L417.8 250.9L415.8 250.2C415.1 250 414.4 249.7 413.6 249.4C414 249.9 414.4 250.3 414.7 250.8C415.1 251.3 415.4 251.7 415.7 252.1L414.7 252.7L413.3 252.3C412.8 252.1 412.2 252 411.6 251.8L409.8 251.2L407.9 250.5L409.2 249.7C409.5 249.8 409.9 250 410.3 250.1L411.5 250.6L412.7 251.1L413.8 251.5L413.2 250.7C413 250.4 412.8 250.2 412.5 249.9L411.8 249.1C411.6 248.9 411.4 248.6 411.2 248.4L412.1 247.9L413.1 248.3L414.3 248.8L415.5 249.3L416.7 249.7L416.1 249L415.4 248.2L414.7 247.4L414 246.7L415.5 246Z" fill="#9EA5B0"/>
<path d="M403.901 250.799L405.401 251.799L407.301 250.699L408.301 251.299L406.401 252.399L408.401 253.699C408.701 253.899 409.101 254.099 409.501 254.099C409.801 254.099 410.201 253.999 410.401 253.899C410.601 253.799 410.801 253.699 410.901 253.499L411.201 253.199L412.301 253.699C412.201 253.899 412.101 253.999 411.901 254.099C411.701 254.299 411.401 254.499 411.201 254.599C410.901 254.799 410.501 254.999 410.101 255.099C409.801 255.199 409.401 255.199 409.101 255.199C408.801 255.199 408.401 255.099 408.101 254.899C407.701 254.799 407.401 254.599 407.101 254.399L402.801 251.599L403.901 250.799Z" fill="#9EA5B0"/>
<path d="M338.9 222.9L288.3 252.3L237.5 222.9L288 193.5L338.9 222.9Z" fill="white"/>
<path d="M287.599 194.199L338.499 223.599L339.299 222.299L288.399 192.899L287.599 194.199ZM237.799 223.599L288.299 194.199L287.499 192.899L236.999 222.299L237.799 223.599ZM288.699 251.699L237.799 222.299L236.999 223.599L287.899 252.999L288.699 251.699ZM338.499 222.299L287.999 251.699L288.799 252.999L339.299 223.599L338.499 222.299ZM287.999 193.499L288.399 192.899C288.199 192.799 287.899 192.799 287.599 192.899L287.999 193.499ZM237.499 222.899L237.099 222.299C236.899 222.399 236.699 222.699 236.699 222.899C236.699 223.199 236.799 223.399 237.099 223.499L237.499 222.899ZM288.299 252.299L287.899 252.899C288.099 252.999 288.399 252.999 288.699 252.899L288.299 252.299ZM338.899 222.899L339.299 223.499C339.499 223.399 339.699 223.099 339.699 222.899C339.699 222.599 339.599 222.399 339.299 222.299L338.899 222.899Z" fill="#E1E5EA"/>
<path d="M288.3 252.298V263.498L237.5 234.198V222.898L288.3 252.298Z" fill="#F6F7F8"/>
<path d="M237.099 223.602L287.999 253.002L288.799 251.702L237.899 222.302L237.099 223.602ZM238.199 234.202V222.902H236.699V234.202H238.199ZM288.699 262.902L237.799 233.502L236.999 234.802L287.899 264.202L288.699 262.902ZM287.599 252.302V263.502H289.099V252.302H287.599ZM237.499 222.902L237.899 222.302C237.699 222.202 237.399 222.202 237.099 222.302C236.799 222.402 236.699 222.702 236.699 222.902H237.499ZM237.499 234.202H236.699C236.699 234.502 236.799 234.702 237.099 234.802L237.499 234.202ZM288.299 263.502L287.899 264.102C288.099 264.202 288.399 264.202 288.699 264.102C288.899 264.002 289.099 263.702 289.099 263.502H288.299ZM288.299 252.302H289.099C289.099 252.002 288.999 251.802 288.699 251.702L288.299 252.302Z" fill="#E1E5EA"/>
<path d="M338.901 222.898L288.301 252.298V263.498L338.901 234.198V222.898Z" fill="#F6F7F8"/>
<path d="M339.6 234.2V223H338.1V234.2H339.6ZM288.7 264.2L339.2 234.8L338.4 233.5L287.9 262.9L288.7 264.2ZM287.6 252.3V263.5H289.1V252.3H287.6ZM338.5 222.3L288 251.7L288.8 253L339.3 223.6L338.5 222.3ZM338.9 234.2L339.3 234.8C339.5 234.7 339.7 234.4 339.7 234.2H338.9ZM288.3 263.5H287.5C287.5 263.8 287.6 264 287.9 264.2C288.1 264.3 288.4 264.3 288.7 264.2L288.3 263.5ZM288.3 252.3L287.9 251.7C287.7 251.8 287.5 252.1 287.5 252.3H288.3ZM338.9 222.9H339.7C339.7 222.6 339.6 222.4 339.3 222.2C339.1 222.1 338.8 222.1 338.5 222.2L338.9 222.9Z" fill="#E1E5EA"/>
<path d="M295.9 228.602L302.6 232.902L301.3 233.702L294.6 229.302L295.9 228.602Z" fill="#A5ACB8"/>
<path d="M294.6 232.998C294.8 232.698 294.6 232.398 294.2 232.098C294 231.998 293.8 231.898 293.5 231.798C293.3 231.798 293 231.798 292.8 231.798C292.5 231.798 292.3 231.898 292.1 231.998C291.8 232.098 291.6 232.198 291.4 232.398C291.1 232.598 290.8 232.798 290.6 232.898L292.9 234.398L293.5 233.998C293.9 233.798 294.3 233.498 294.6 232.998ZM293.1 230.798C294 230.698 294.8 230.898 295.6 231.398C295.9 231.598 296.2 231.898 296.4 232.198C296.5 232.298 296.5 232.498 296.5 232.598C296.5 232.698 296.5 232.898 296.4 232.998C296.3 233.298 296 233.598 295.8 233.798C295.4 234.098 295 234.398 294.6 234.698L294 235.098L296.3 236.598L295 237.298L288.4 232.998C288.7 232.798 289 232.498 289.3 232.298L290.3 231.698C291.1 231.198 292.1 230.898 293.1 230.798Z" fill="#A5ACB8"/>
<path d="M286.901 238.801L289.201 237.501L287.001 236.801L285.201 236.301C285.401 236.601 285.601 237.001 285.901 237.401C286.201 237.901 286.501 238.301 286.901 238.801ZM291.301 237.001C292.101 237.301 293.101 237.501 294.001 237.801L292.601 238.601L291.501 238.301L290.401 238.001L287.401 239.701C287.601 239.901 287.701 240.201 287.901 240.401C288.001 240.601 288.201 240.801 288.401 241.101L287.101 241.901L285.901 240.201C285.501 239.701 285.201 239.201 284.901 238.701C284.601 238.201 284.301 237.701 284.001 237.301C283.701 236.901 283.501 236.401 283.301 236.001L284.501 235.301L286.601 235.801L288.801 236.401C289.701 236.501 290.501 236.701 291.301 237.001Z" fill="#A5ACB8"/>
<path d="M394 295.502L343.5 324.902L292.6 295.502L343.1 266.102L394 295.502Z" fill="white"/>
<path d="M342.701 266.801L393.601 296.201L394.401 294.901L343.501 265.501L342.701 266.801ZM293.001 296.201L343.501 266.801L342.701 265.501L292.201 294.901L293.001 296.201ZM343.801 324.301L293.001 294.901L292.201 296.201L343.101 325.601L343.801 324.301ZM393.601 294.901L343.101 324.301L343.901 325.601L394.401 296.201L393.601 294.901ZM343.101 266.101L343.501 265.501C343.301 265.401 343.001 265.401 342.701 265.501L343.101 266.101ZM292.601 295.501L292.201 294.901C292.001 295.001 291.801 295.301 291.801 295.501C291.801 295.801 291.901 296.001 292.201 296.101L292.601 295.501ZM343.501 324.901L343.101 325.501C343.301 325.601 343.601 325.601 343.901 325.501L343.501 324.901ZM394.001 295.501L394.401 296.101C394.601 296.001 394.801 295.701 394.801 295.501C394.801 295.201 394.701 295.001 394.401 294.901L394.001 295.501Z" fill="#E1E5EA"/>
<path d="M343.5 324.9V336.2L292.6 306.8V295.5L343.5 324.9Z" fill="#F6F7F8"/>
<path d="M292.201 296.199L343.101 325.599L343.901 324.299L293.001 294.899L292.201 296.199ZM293.301 306.799V295.599H291.801V306.799H293.301ZM343.801 335.499L293.001 306.099L292.201 307.399L343.101 336.799L343.801 335.499ZM342.701 324.899V336.099H344.201V324.899H342.701ZM292.601 295.499L293.001 294.899C292.801 294.799 292.501 294.799 292.201 294.899C291.901 294.999 291.801 295.299 291.801 295.499H292.601ZM292.601 306.799H291.801C291.801 307.099 291.901 307.299 292.201 307.399L292.601 306.799ZM343.501 336.199L343.101 336.799C343.301 336.899 343.601 336.899 343.901 336.799C344.101 336.699 344.301 336.399 344.301 336.199H343.501ZM343.501 324.899H344.301C344.301 324.599 344.201 324.399 343.901 324.299L343.501 324.899Z" fill="#E1E5EA"/>
<path d="M394 295.5L343.5 324.9V336.2L394 306.8V295.5Z" fill="#F6F7F8"/>
<path d="M394.699 306.802V295.602H393.199V306.802H394.699ZM343.799 336.802L394.299 307.402L393.499 306.102L342.999 335.502L343.799 336.802ZM342.699 324.902V336.102H344.199V324.902H342.699ZM393.599 294.902L343.099 324.302L343.899 325.602L394.399 296.202L393.599 294.902ZM393.999 306.802L394.399 307.402C394.599 307.302 394.799 307.002 394.799 306.802H393.999ZM343.499 336.202H342.699C342.699 336.502 342.799 336.702 343.099 336.902C343.299 337.002 343.599 337.002 343.899 336.902L343.499 336.202ZM343.499 324.902L343.099 324.302C342.899 324.402 342.699 324.702 342.699 324.902H343.499ZM393.999 295.502H394.799C394.799 295.202 394.699 295.002 394.399 294.802C394.199 294.702 393.899 294.702 393.599 294.802L393.999 295.502Z" fill="#E1E5EA"/>
<path d="M236.7 185.601V222.901H238.2V185.601H236.7ZM236.7 222.901C236.7 223.301 237 223.701 237.5 223.701C237.9 223.701 238.3 223.401 238.3 222.901H236.7ZM238.2 185.601C238.2 185.201 237.9 184.801 237.4 184.801C237 184.801 236.6 185.101 236.6 185.601H238.2Z" fill="#E1E5EA"/>
<path d="M448 185.601V240.201H449.5V185.601H448ZM448 240.201C448 240.601 448.3 241.001 448.8 241.001C449.2 241.001 449.6 240.701 449.6 240.201H448ZM449.5 185.601C449.5 185.201 449.2 184.801 448.7 184.801C448.3 184.801 447.9 185.101 447.9 185.601H449.5Z" fill="#E1E5EA"/>
<path d="M342.7 246.8V266.1H344.2V246.8H342.7ZM342.7 266.1C342.7 266.5 343 266.9 343.5 266.9C343.9 266.9 344.3 266.6 344.3 266.1H342.7ZM344.2 246.8C344.2 246.4 343.9 246 343.4 246C343 246 342.6 246.3 342.6 246.8H344.2Z" fill="#E1E5EA"/>
<path d="M343.5 207.198V246.798L237.5 185.598V145.898L343.5 207.198Z" fill="#FFF5D6"/>
<path d="M237.099 146.602L343.099 207.902L343.899 206.602L237.899 145.302L237.099 146.602ZM238.199 185.602V146.002H236.699V185.602H238.199ZM343.799 246.202L237.799 184.902L236.999 186.202L342.999 247.502L343.799 246.202ZM342.699 207.202V246.802H344.199V207.202H342.699ZM237.499 145.902L237.899 145.302C237.699 145.202 237.399 145.202 237.099 145.302C236.899 145.402 236.699 145.702 236.699 145.902H237.499ZM237.499 185.602H236.699C236.699 185.902 236.799 186.102 237.099 186.202L237.499 185.602ZM343.499 246.802L343.099 247.402C343.299 247.502 343.599 247.502 343.899 247.402C344.099 247.302 344.299 247.002 344.299 246.802H343.499ZM343.499 207.202H344.299C344.299 206.902 344.199 206.702 343.899 206.602L343.499 207.202Z" fill="#FFBF00"/>
<path d="M448.8 145.898L343.5 207.198V246.798L448.8 185.598V145.898Z" fill="#FFF5D6"/>
<path d="M449.499 185.6V146H447.999V185.6H449.499ZM343.799 247.5L449.099 186.2L448.299 184.9L342.999 246.2L343.799 247.5ZM342.699 207.2V246.8H344.199V207.2H342.699ZM448.399 145.3L343.099 206.6L343.899 207.9L449.199 146.6L448.399 145.3ZM448.799 185.6L449.199 186.2C449.399 186.1 449.599 185.8 449.599 185.6H448.799ZM343.499 246.8H342.699C342.699 247.1 342.799 247.3 343.099 247.5C343.299 247.6 343.599 247.6 343.899 247.5L343.499 246.8ZM343.499 207.2L343.099 206.6C342.899 206.7 342.699 207 342.699 207.2H343.499ZM448.799 145.9H449.599C449.599 145.6 449.499 145.4 449.199 145.2C448.999 145.1 448.699 145.1 448.399 145.2L448.799 145.9Z" fill="#FFBF00"/>
<path d="M448.8 145.899L343.5 207.199L237.5 145.899L342.8 84.6992L448.8 145.899Z" fill="white"/>
<path d="M342.399 85.3L448.399 146.6L449.199 145.3L343.199 84L342.399 85.3ZM237.799 146.6L343.099 85.3L342.299 84L236.999 145.3L237.799 146.6ZM343.799 206.5L237.799 145.2L236.999 146.5L342.999 207.8L343.799 206.5ZM448.399 145.3L343.099 206.6L343.899 207.9L449.199 146.6L448.399 145.3ZM342.799 84.7L343.199 84.1C342.999 84 342.699 84 342.399 84.1L342.799 84.7ZM237.499 145.9L237.099 145.3C236.899 145.4 236.699 145.7 236.699 145.9C236.699 146.2 236.799 146.4 237.099 146.5L237.499 145.9ZM343.499 207.2L343.099 207.8C343.299 207.9 343.599 207.9 343.899 207.8L343.499 207.2ZM448.799 145.9L449.199 146.5C449.399 146.4 449.599 146.1 449.599 145.9C449.599 145.6 449.499 145.4 449.199 145.3L448.799 145.9Z" fill="#FFBF00"/>
<path d="M270.699 183.899L272.299 186.499L271.299 189.999L272.299 193.699L269.799 193.999L265.499 190.599L263.699 185.299L264.199 182.699L267.099 183.499L269.499 184.199L270.699 183.899Z" fill="#F9C515"/>
<path d="M263.2 175.199L270.7 179.399L272.5 182.899L269.5 184.199L265.8 183.499L262.4 179.999L261 176.799L261.4 175.199H263.2Z" fill="#D6E7FF"/>
<path d="M274.399 185.602L276.199 188.202L277.699 193.502L278.099 198.002L277.299 199.102L274.099 197.102L271.699 192.002V187.302L274.399 185.602Z" fill="#D6E7FF"/>
<path d="M276.2 198.101C276.9 198.501 277.6 198.201 277.5 197.301C277.5 197.201 277.5 197.201 277.5 197.201L277.4 197.101C276.9 196.701 276.4 196.201 276 195.601C276 196.301 275.9 196.901 275.8 197.601C275.8 197.701 275.8 197.701 275.8 197.801C275.8 197.901 275.9 197.901 275.9 197.901C276 198.001 276.1 198.001 276.2 198.101ZM261.9 177.601H262C262.6 177.601 263.2 177.701 263.7 177.801C263.3 177.201 263 176.501 262.8 175.901C262.8 175.801 262.8 175.801 262.8 175.801L262.7 175.701C261.9 175.401 261.4 176.301 261.8 177.401C261.8 177.501 261.8 177.601 261.9 177.601ZM275.2 196.901C275.3 195.301 275.2 193.701 274.9 192.201C274.7 192.501 274.4 192.801 274 192.901C273.6 193.001 273.2 193.101 272.9 193.001C272.8 193.001 272.8 193.001 272.8 193.201C273.3 194.601 274 195.901 274.9 197.001C274.9 197.101 275 197.101 275 197.201C275.1 197.001 275.1 197.001 275.2 196.901ZM262.1 178.301C262.7 179.501 263.5 180.601 264.5 181.501C264.6 181.601 264.8 181.801 264.9 181.901C265.1 182.001 265.1 181.801 265.2 181.401V181.301C265.2 181.001 265.4 180.701 265.5 180.401C265.7 180.101 265.9 179.901 266.2 179.701C264.9 178.801 263.5 178.401 262.1 178.301ZM271.2 186.901C271.5 186.301 271.4 185.801 270.8 185.001C270.7 184.901 270.6 184.801 270.6 184.701H270.5H270.4C269.7 184.901 269 185.001 268.3 184.801C268.1 184.701 268 184.901 268.1 185.201C268.5 186.701 269.4 188.001 270.6 188.901L270.7 189.001C270.9 189.101 270.9 189.101 271 188.701C270.9 188.101 271 187.501 271.2 186.901ZM272.5 192.201H272.6C273 192.301 273.4 192.301 273.8 192.101C274.2 191.901 274.4 191.601 274.6 191.201C274.6 191.101 274.6 190.901 274.6 190.801C274.2 189.401 273.8 188.001 273.3 186.601C272.9 186.801 272.6 187.201 272.5 187.601C272 188.901 272 190.401 272.4 191.801C272.4 191.901 272.4 191.901 272.4 192.001C272.4 192.101 272.4 192.101 272.5 192.201ZM266.2 182.801C267.1 183.401 268.1 183.601 269.2 183.501C269.5 183.501 269.7 183.401 270 183.201C270.2 183.101 270.4 182.901 270.6 182.601C269.8 181.901 268.9 181.301 268 180.601C267.9 180.501 267.8 180.401 267.7 180.401C267.5 180.301 267.3 180.201 267 180.201C266.7 180.201 266.5 180.301 266.4 180.501C266 181.001 265.8 181.601 265.8 182.201C265.8 182.301 265.8 182.401 265.9 182.501C265.9 182.601 266 182.601 266.1 182.701L266.2 182.801ZM265.7 176.801C264.9 176.301 264.1 176.001 263.3 175.801C263.5 176.601 263.9 177.301 264.4 177.901C264.5 178.001 264.6 178.201 264.7 178.201H264.8C265.5 178.501 266.3 178.901 266.9 179.301C268.2 180.101 269.5 181.001 270.6 182.001L270.7 182.101C270.9 182.201 270.9 182.101 270.9 181.801C270.8 181.201 270.5 180.701 270.1 180.301C268.9 179.001 267.6 178.001 266.2 177.101C266 177.001 265.8 176.901 265.7 176.801ZM277.5 196.001C277.3 193.901 276.8 191.901 276.1 190.001C275.8 189.101 275.4 188.201 274.9 187.401C274.7 187.101 274.5 186.901 274.3 186.701C274.2 186.701 274.2 186.601 274.1 186.601C273.9 186.501 273.8 186.601 274 186.901C274.9 189.201 275.5 191.601 275.8 194.001C275.9 194.601 276.1 195.101 276.5 195.501C276.7 195.701 276.9 196.001 277.2 196.201C277.3 196.301 277.4 196.401 277.6 196.501C277.6 196.601 277.6 196.501 277.5 196.001ZM271.5 193.201C271.6 193.201 271.8 193.201 271.7 192.901C271.6 192.601 271.6 192.501 271.3 192.301L271.2 192.201C271 192.101 270.8 192.001 270.6 191.901C270.1 191.601 269.6 191.301 269.2 190.901C267.2 189.101 265.9 186.701 265.4 184.001C265.4 183.901 265.3 183.701 265.3 183.601C265.3 183.501 265.1 183.401 265 183.301C264.8 183.201 264.8 183.401 264.7 183.501C264.5 184.001 264.4 184.501 264.4 185.001V185.501C264.4 185.601 264.4 185.701 264.4 185.801C264.7 187.601 265.5 189.401 266.7 190.801C267.3 191.701 268.1 192.401 269 192.901C269.3 193.101 269.7 193.301 270.2 193.401C270.6 193.501 271 193.401 271.5 193.201ZM277.9 184.401C277.6 184.301 277.6 184.401 277.7 184.801C278.2 186.701 278.1 188.101 277 188.801C276.9 188.901 277 189.101 277 189.201C278 191.501 278.6 193.901 278.8 196.301C278.9 197.001 278.8 197.701 278.7 198.401C278.4 199.701 277.5 200.101 276.3 199.401C276 199.201 275.7 199.001 275.5 198.801C274.3 197.701 273.4 196.401 272.7 195.001C272.6 194.901 272.6 194.801 272.5 194.701H272.4H272.3C271.8 194.801 271.2 194.901 270.7 194.801C270.2 194.701 269.7 194.501 269.2 194.201C268.4 193.701 267.6 193.001 266.9 192.301C266.8 192.201 266.7 192.101 266.7 192.101C266.6 192.101 266.5 192.001 266.5 192.001H264.4C264.5 191.201 264.7 190.401 264.8 189.701C264.8 189.401 264.8 189.101 264.7 188.901C263.4 186.301 263.1 184.101 263.8 182.401C263.9 182.201 263.9 182.101 263.6 181.901C262.5 180.701 261.7 179.401 261.1 178.001C260.1 175.601 260.6 174.101 262.3 174.201C263.6 174.401 264.8 174.801 265.9 175.501L266.6 175.901C267.6 176.501 268.5 177.201 269.4 178.001L269.5 178.101C269.6 178.201 269.6 178.101 269.7 178.101C270.4 177.101 271.5 177.201 272.8 177.901C273.1 178.101 273.1 178.001 273.1 177.701C273 176.401 273.3 175.101 274 174.001L274.1 173.901L274.2 173.801H274.3H274.4C274.5 173.901 274.6 173.901 274.7 174.001C274.9 174.101 275 174.301 275 174.501C275 174.701 275 174.901 274.9 175.101C274.3 176.101 274 177.401 274.2 178.601C274.2 178.701 274.2 178.801 274.3 178.901C274.4 179.001 274.4 179.101 274.5 179.201C275.4 180.101 276.1 181.101 276.7 182.201C276.8 182.301 276.9 182.501 277 182.501L277.1 182.601C277.5 182.801 278 182.901 278.5 182.801C279 182.801 279.5 182.701 279.9 182.401C280 182.301 280.1 182.301 280.2 182.301C280.3 182.301 280.4 182.301 280.5 182.401L280.6 182.501C280.8 182.701 281 182.901 281.1 183.201C281.2 183.501 281.1 183.701 280.9 183.801C280.5 184.001 280 184.201 279.5 184.201C278.8 184.601 278.3 184.501 277.9 184.401Z" fill="#020202"/>
<path d="M294.099 196.098V198.098C294.099 198.298 294.099 198.398 294.299 198.498L294.599 198.698L295.199 199.098L295.699 199.398L296.699 199.998C297.299 200.298 297.699 199.998 297.699 199.198C297.699 198.798 297.599 198.498 297.399 198.198C297.199 197.898 296.999 197.598 296.699 197.498L296.299 197.298L295.599 196.898L294.899 196.498L294.399 196.198C294.199 195.898 294.099 195.898 294.099 196.098ZM296.999 205.398C297.699 205.698 298.099 205.298 298.099 204.498C298.099 204.098 297.999 203.698 297.699 203.298C297.499 202.898 297.199 202.598 296.799 202.398C296.699 202.298 296.499 202.198 296.399 202.098L295.699 201.698L294.999 201.298L294.499 200.998C294.299 200.898 294.299 200.998 294.299 201.098V203.498C294.299 203.598 294.299 203.598 294.299 203.698C294.299 203.798 294.399 203.798 294.399 203.898L294.699 204.098L295.399 204.498L295.999 204.898C296.299 205.098 296.599 205.298 296.999 205.398ZM282.999 193.998C282.999 194.098 282.999 194.098 282.999 194.198C282.999 194.298 283.099 194.298 283.099 194.298H283.199C284.799 194.898 286.199 194.898 287.199 193.898C287.399 193.698 287.499 193.498 287.499 193.198C287.499 192.798 287.299 192.498 287.099 192.198C286.899 191.998 286.699 191.798 286.399 191.598C286.199 191.498 285.899 191.398 285.699 191.398C284.299 191.498 283.399 192.298 282.999 193.998ZM300.799 205.698C301.299 208.398 299.999 209.698 297.799 208.598C296.999 208.198 296.199 207.698 295.399 207.298L293.999 206.398L292.599 205.598L291.799 205.098C291.699 205.098 291.599 204.998 291.599 204.898C291.599 204.798 291.499 204.698 291.599 204.598V201.398C291.199 201.798 290.799 201.998 290.299 202.198C289.799 202.398 289.299 202.398 288.799 202.398C287.899 202.398 286.999 202.098 286.199 201.598C285.699 201.298 285.299 200.998 284.799 200.598C283.799 199.698 283.099 198.598 282.499 197.498C281.899 196.398 281.699 194.998 281.699 193.698C281.799 190.998 282.999 189.698 285.199 189.798C285.699 189.798 286.099 189.998 286.499 190.198C287.099 190.498 287.499 190.998 287.899 191.498C288.799 192.698 289.099 194.098 288.699 194.898C288.399 195.298 287.999 195.698 287.499 195.898C286.999 196.098 286.499 196.198 285.999 196.198C285.199 196.198 284.299 196.098 283.599 195.798C283.299 195.698 283.299 195.798 283.399 196.098C283.799 197.698 284.699 198.998 286.099 199.898C286.299 199.998 286.499 200.098 286.799 200.198C287.499 200.498 288.299 200.598 288.999 200.398C289.699 200.198 290.399 199.998 290.999 199.498C291.199 199.298 291.399 198.998 291.499 198.798C291.599 198.498 291.599 198.198 291.599 197.898C291.599 195.898 291.599 193.998 291.599 192.098C291.599 191.798 291.699 191.798 291.899 191.898L297.199 194.998C297.999 195.498 298.699 196.098 299.299 196.798C300.199 197.798 300.699 199.098 300.599 200.498C300.599 201.698 300.099 202.298 298.999 202.198H298.699C298.899 202.398 299.099 202.598 299.299 202.798C299.999 203.598 300.599 204.598 300.799 205.698Z" fill="#020202"/>
<path d="M307.5 207.098C308.3 207.498 308.8 206.998 308.7 205.998C308.7 205.498 308.6 205.098 308.3 204.698C308 204.298 307.7 203.998 307.3 203.698L306.7 203.298L306.3 203.098L305.4 202.498C305.2 202.398 305.2 202.398 305.2 202.698V205.498C305.2 205.598 305.2 205.598 305.2 205.698C305.2 205.798 305.3 205.798 305.3 205.898L305.5 205.998L306 206.298L306.5 206.598C306.9 206.798 307.2 206.998 307.5 207.098ZM311.5 207.098C311.6 208.998 311.2 210.398 309.7 210.498C308.8 210.498 307.9 210.198 307.2 209.698L306.2 209.098L305.4 208.598C305.2 208.398 305.1 208.498 305.1 208.798V212.498C305.1 212.798 305.1 212.898 304.8 212.698L303.8 212.098L302.7 211.498C302.6 211.498 302.5 211.398 302.5 211.298C302.5 211.198 302.4 211.098 302.4 210.998V198.498C302.4 198.198 302.5 198.198 302.7 198.298L305.6 199.998L307.4 200.998C308 201.298 308.5 201.698 309 202.198C310.5 203.498 311.4 205.198 311.5 207.098Z" fill="#020202"/>
<path d="M320.8 208.699C320.9 208.799 321 208.799 321.1 208.999C321.2 209.099 321.2 209.199 321.2 209.399V211.399C321.2 211.699 321.2 211.799 320.9 211.599C319.3 210.599 317.7 209.699 316.1 208.799C315.8 208.599 315.8 208.699 315.8 208.999V210.899C315.8 210.999 315.8 211.099 315.9 211.199C316 211.299 316 211.399 316.1 211.399L316.8 211.799L318.2 212.599L319.2 213.199L320.2 213.799C320.3 213.799 320.4 213.899 320.5 213.999C320.6 214.099 320.6 214.199 320.6 214.299V216.299C320.6 216.599 320.5 216.599 320.3 216.499L318.5 215.499L316.2 214.099C315.9 213.899 315.8 213.999 315.8 214.299V218.599C315.8 218.899 315.7 218.899 315.5 218.799C315.2 218.599 314.8 218.399 314.4 218.199C314 217.999 313.8 217.799 313.4 217.599C313.3 217.499 313.2 217.499 313.1 217.299C313 217.199 313 217.099 313 216.899V204.499C313 204.199 313.1 204.099 313.3 204.299L317.1 206.499C318.3 207.299 319.6 207.999 320.8 208.699Z" fill="#020202"/>
<path d="M448.8 122.499L343.5 183.699L237.5 122.499L342.8 61.1992L448.8 122.499Z" fill="white"/>
<path d="M342.399 61.9L448.399 123.2L449.199 121.9L343.199 60.6L342.399 61.9ZM237.799 123.1L343.099 61.8L342.299 60.5L236.999 121.8L237.799 123.1ZM343.799 183.1L237.799 121.8L236.999 123.1L342.999 184.4L343.799 183.1ZM448.399 121.8L343.099 183.1L343.899 184.4L449.199 123.1L448.399 121.8ZM342.799 61.2L343.199 60.6C342.999 60.5 342.699 60.5 342.399 60.6L342.799 61.2ZM237.499 122.5L237.099 121.9C236.899 122 236.699 122.3 236.699 122.5C236.699 122.8 236.799 123 237.099 123.1L237.499 122.5ZM343.499 183.7L343.099 184.3C343.299 184.4 343.599 184.4 343.899 184.3L343.499 183.7ZM448.799 122.5L449.199 123.1C449.399 123 449.599 122.7 449.599 122.5C449.599 122.2 449.499 122 449.199 121.9L448.799 122.5Z" fill="#3388FF"/>
<path d="M343.5 183.7V194.2L237.5 132.9V122.5L343.5 183.7Z" fill="#D6E7FF"/>
<path d="M237.099 123.101L343.099 184.401L343.899 183.101L237.899 121.801L237.099 123.101ZM238.199 132.901V122.501H236.699V132.901H238.199ZM343.799 193.501L237.799 132.201L236.999 133.501L342.999 194.801L343.799 193.501ZM342.699 183.701V194.101H344.199V183.701H342.699ZM237.499 122.501L237.899 121.901C237.699 121.801 237.399 121.801 237.099 121.901C236.899 122.001 236.699 122.301 236.699 122.501H237.499ZM237.499 132.901H236.699C236.699 133.201 236.799 133.401 237.099 133.501L237.499 132.901ZM343.499 194.201L343.099 194.801C343.299 194.901 343.599 194.901 343.899 194.801C344.199 194.701 344.299 194.401 344.299 194.201H343.499ZM343.499 183.701H344.299C344.299 183.401 344.199 183.201 343.899 183.101L343.499 183.701Z" fill="#3388FF"/>
<path d="M448.8 122.5L343.5 183.7V194.2L448.8 132.9V122.5Z" fill="#D6E7FF"/>
<path d="M449.499 132.899V122.499H447.999V132.899H449.499ZM343.799 194.799L449.099 133.499L448.299 132.199L342.999 193.499L343.799 194.799ZM342.699 183.699V194.099H344.199V183.699H342.699ZM448.399 121.799L343.099 183.099L343.899 184.399L449.199 123.099L448.399 121.799ZM448.799 132.899L449.199 133.499C449.399 133.399 449.599 133.099 449.599 132.899H448.799ZM343.499 194.199H342.699C342.699 194.499 342.799 194.699 343.099 194.899C343.299 194.999 343.599 194.999 343.899 194.899L343.499 194.199ZM343.499 183.699L343.099 183.099C342.899 183.199 342.699 183.499 342.699 183.699H343.499ZM448.799 122.499H449.599C449.599 122.199 449.499 121.999 449.199 121.799C448.899 121.599 448.699 121.699 448.399 121.799L448.799 122.499Z" fill="#3388FF"/>
<path d="M288 126.098C288.5 126.398 289 126.598 289.5 126.798C290 126.998 290.6 127.198 291.2 127.298L289.7 128.198C289.4 128.198 289.2 128.098 289 127.998C288.7 127.898 288.4 127.798 288.1 127.698C287.8 127.598 287.5 127.498 287.2 127.298L286.3 126.898L286.2 126.798C285.6 126.498 285 125.998 284.6 125.498C284.2 125.098 284 124.498 283.9 123.898C283.9 123.298 284.1 122.698 284.5 122.198C285 121.498 285.7 120.898 286.5 120.498C287.2 120.098 287.9 119.798 288.6 119.498C289.3 119.298 290 119.098 290.7 118.998C291.4 118.898 292 118.898 292.7 118.898C293.3 118.898 293.9 118.998 294.5 119.098C295.1 119.198 295.6 119.398 296.1 119.498L297.5 120.198C298 120.498 298.4 120.798 298.8 121.198C299.1 121.498 299.4 121.798 299.6 122.198L298.1 123.098C297.8 122.698 297.5 122.398 297.2 122.098C296.9 121.798 296.5 121.498 296.1 121.298C295.6 120.998 295.1 120.798 294.6 120.698C294 120.498 293.4 120.398 292.7 120.398C291.1 120.398 289.6 120.798 288.3 121.698C287.8 121.998 287.3 122.298 286.9 122.798C286.6 123.098 286.4 123.498 286.3 123.998C286.3 124.398 286.4 124.798 286.6 125.098C287 125.398 287.4 125.798 288 126.098Z" fill="#151A1F"/>
<path d="M292 129.899L302.8 123.699L304.5 124.699L293.8 130.999L292 129.899Z" fill="#151A1F"/>
<path d="M297.4 133.102L313.8 123.602L315.5 124.602L299.2 134.102L297.4 133.102Z" fill="#151A1F"/>
<path d="M302.801 136.198L313.501 129.898L315.301 130.898L304.601 137.198L302.801 136.198Z" fill="#151A1F"/>
<path d="M319.3 140.801L325.9 137.001L327.7 138.001L321.1 141.801C320.8 142.001 320.4 142.201 320 142.301C319.7 142.501 319.3 142.601 318.9 142.701C318.4 142.801 317.8 142.901 317.3 143.001C316.7 143.001 316.2 143.001 315.6 143.001C314.4 142.801 313.3 142.501 312.2 141.901H312.1L312 141.801C311.6 141.501 311.1 141.201 310.8 140.901C310.5 140.601 310.3 140.301 310.1 139.901C310 139.601 309.9 139.201 310 138.901C310.1 138.601 310.2 138.301 310.4 138.001C310.6 137.801 310.8 137.501 311.1 137.301L312.1 136.601L318.7 132.801L320.5 133.801L313.9 137.601C313.4 137.801 313 138.201 312.7 138.601C312.6 138.801 312.5 138.901 312.4 139.101C312.4 139.301 312.4 139.501 312.5 139.701C312.7 140.201 313.1 140.601 313.6 140.801C314.2 141.201 314.9 141.401 315.6 141.501C316.3 141.601 317 141.501 317.6 141.301C318.2 141.301 318.7 141.101 319.3 140.801Z" fill="#151A1F"/>
<path d="M344.7 149.801C344.3 150.401 343.8 150.801 343.1 151.101L335.9 155.301L334.2 154.301L341.1 150.301C341.5 150.101 341.8 149.801 342.1 149.501C342.3 149.301 342.4 149.101 342.5 148.801C342.5 148.601 342.4 148.301 342.3 148.101C342.1 147.901 341.8 147.701 341.5 147.501C340.8 147.101 340.1 146.901 339.3 146.801C338.4 146.701 337.4 146.701 336.5 146.801L328.9 151.201L327.1 150.201L334 146.201C334.4 146.001 334.7 145.701 335 145.401C335.2 145.201 335.3 145.001 335.4 144.701C335.4 144.501 335.3 144.201 335.2 144.001C335 143.801 334.7 143.501 334.4 143.401C333.7 143.001 333 142.801 332.2 142.701C331.3 142.601 330.4 142.601 329.4 142.701L321.8 147.101L320 146.101L330.8 139.801L332.2 140.601L331 141.701H332.4C332.8 141.701 333.3 141.701 333.7 141.801C334.1 141.901 334.6 142.001 335 142.101C335.4 142.201 335.9 142.401 336.2 142.701C336.8 143.001 337.4 143.501 337.6 144.201C337.7 144.501 337.7 144.801 337.6 145.001C337.5 145.301 337.4 145.501 337.3 145.801C338.4 145.701 339.4 145.701 340.5 145.801C341.5 145.901 342.4 146.201 343.2 146.701C343.6 146.901 343.9 147.201 344.2 147.501C344.5 147.801 344.7 148.101 344.8 148.501C344.9 148.701 344.9 148.901 344.8 149.101C344.9 149.501 344.8 149.701 344.7 149.801Z" fill="#151A1F"/>
<path d="M319.7 128.301L317.8 129.501L316 128.501L318 127.301L319.7 128.301Z" fill="#151A1F"/>
<path d="M308.999 122.102L306.999 123.302L305.199 122.202L307.199 121.102L308.999 122.102Z" fill="#151A1F"/>
<path d="M338.5 101.202L341 95.7016L351.6 94.1016L359 98.4016L356.6 104.002L346 105.602L338.5 101.202Z" fill="#CADD72"/>
<path d="M351.7 93.3008L340.5 95.0008L337.6 101.501L345.9 106.301L357.1 104.601L360 98.0008L351.7 93.3008ZM351.4 94.9008L358 98.7008L356 103.301L346.1 104.801L339.4 100.901L341.4 96.4008L351.4 94.9008Z" fill="#151A1F"/>
<path d="M360.4 104.702L362.8 99.2016L373.4 97.6016L380.8 101.902L378.3 107.402L367.8 109.102L360.4 104.702Z" fill="#F9C515"/>
<path d="M373.5 96.8008L362.3 98.6008L359.4 105.101L367.7 109.901L378.8 108.201L381.8 101.701L373.5 96.8008ZM373.3 98.4008L379.9 102.201L377.8 106.801L368 108.301L361.4 104.501L363.4 100.001L373.3 98.4008Z" fill="#151A1F"/>
<path d="M366.5 117.401L369 111.901L379.5 110.301L387 114.601L384.5 120.101L374 121.701L366.5 117.401Z" fill="#F17423"/>
<path d="M379.6 109.398L368.4 111.098L365.5 117.598L373.8 122.398L385 120.698L387.9 114.098L379.6 109.398ZM379.4 111.098L386 114.898L384 119.498L374.1 120.998L367.4 117.098L369.4 112.598L379.4 111.098Z" fill="#151A1F"/>
<path d="M322.699 110.501L325.199 105.001L335.799 103.301L343.099 107.601L340.699 113.201L330.199 114.801L322.699 110.501Z" fill="#97C93D"/>
<path d="M335.901 102.5L324.701 104.3L321.801 110.8L330.101 115.6L341.301 113.9L344.201 107.3L335.901 102.5ZM335.601 104.1L342.201 107.9L340.201 112.5L330.401 114L323.801 110.2L325.801 105.7L335.601 104.1Z" fill="#151A1F"/>
<path d="M344.6 113.901L347.1 108.401L357.6 106.801L365.1 111.101L362.5 116.601L352 118.201L344.6 113.901Z" fill="#E82429"/>
<path d="M357.7 106L346.4 107.8L343.5 114.3L351.8 119.1L363 117.4L366 110.9L357.7 106ZM357.5 107.6L364.1 111.4L362 115.9L352.2 117.4L345.6 113.6L347.6 109.1L357.5 107.6Z" fill="#151A1F"/>
<path d="M350.699 126.6L353.199 121.1L363.699 119.5L371.099 123.7L368.599 129.3L358.099 130.9L350.699 126.6Z" fill="#8061A9"/>
<path d="M363.901 118.699L352.701 120.499L349.801 126.999L358.101 131.799L369.301 130.099L372.201 123.499L363.901 118.699ZM363.601 120.299L370.201 124.099L368.201 128.699L358.401 130.199L351.801 126.399L353.801 121.899L363.601 120.299Z" fill="#151A1F"/>
<path d="M328.801 123.098L331.301 117.598L341.901 115.898L349.301 120.198L346.801 125.698L336.301 127.398L328.801 123.098Z" fill="#3388FF"/>
<path d="M342.1 115.199L330.9 116.899L328 123.399L336.3 128.199L347.5 126.499L350.5 119.999L342.1 115.199ZM341.8 116.699L348.4 120.499L346.3 124.999L336.4 126.499L329.8 122.699L331.8 118.199L341.8 116.699Z" fill="#151A1F"/>
<path d="M531.4 245.199C531.9 245.399 532.3 245.799 532.6 246.199C532.9 246.599 533.1 247.099 533.1 247.599C533.1 248.099 532.9 248.599 532.6 248.999C532.3 249.399 531.9 249.799 531.4 249.999C530.1 250.699 528.7 250.999 527.3 250.999C525.8 250.999 524.4 250.699 523.1 249.999C522.6 249.799 522.2 249.399 521.9 248.999C521.6 248.599 521.4 248.099 521.4 247.599C521.4 247.099 521.6 246.599 521.9 246.199C522.2 245.799 522.6 245.399 523.1 245.199C524.4 244.499 525.8 244.199 527.2 244.199C528.7 244.199 530.2 244.499 531.4 245.199Z" fill="#E1E5EA"/>
<path d="M482.699 186.801C483.199 187.001 483.599 187.401 483.899 187.801C484.199 188.201 484.399 188.701 484.399 189.201C484.399 189.701 484.199 190.201 483.899 190.601C483.599 191.001 483.199 191.401 482.699 191.601C481.399 192.301 479.999 192.601 478.599 192.601C477.099 192.601 475.699 192.301 474.399 191.601C473.899 191.401 473.499 191.001 473.199 190.601C472.899 190.201 472.699 189.701 472.699 189.201C472.699 188.701 472.899 188.201 473.199 187.801C473.499 187.401 473.899 187.001 474.399 186.801C475.699 186.101 477.099 185.801 478.499 185.801C479.999 185.801 481.399 186.101 482.699 186.801Z" fill="#E1E5EA"/>
<path d="M625.4 208.898C625.9 209.098 626.3 209.498 626.6 209.898C626.9 210.298 627.1 210.798 627.1 211.298C627.1 211.798 626.9 212.298 626.6 212.698C626.3 213.098 625.9 213.498 625.4 213.698C624.1 214.398 622.7 214.698 621.3 214.698C619.8 214.698 618.4 214.398 617.1 213.698C616.6 213.498 616.2 213.098 615.9 212.698C615.6 212.298 615.4 211.798 615.4 211.298C615.4 210.798 615.6 210.298 615.9 209.898C616.2 209.498 616.6 209.098 617.1 208.898C618.4 208.198 619.8 207.898 621.2 207.898C622.7 207.898 624.1 208.198 625.4 208.898Z" fill="#E1E5EA"/>
<path d="M232.401 313.5C233.001 313.7 233.601 314.2 233.901 314.8C234.201 315.4 234.201 316.1 234.001 316.7C233.901 317.1 233.701 317.4 233.401 317.7C233.101 318 232.801 318.2 232.401 318.3C231.101 319 229.701 319.3 228.201 319.3C226.701 319.3 225.301 319 224.001 318.3C223.501 318.1 223.101 317.7 222.801 317.3C222.501 316.9 222.301 316.4 222.301 315.9C222.301 315.4 222.501 314.9 222.801 314.5C223.101 314.1 223.501 313.7 224.001 313.5C225.301 312.8 226.701 312.5 228.101 312.5C229.601 312.5 231.101 312.9 232.401 313.5Z" fill="#E1E5EA"/>
<path d="M375.2 335.398C375.7 335.598 376.1 335.898 376.5 336.298C376.8 336.698 377 337.298 377 337.798C377 338.298 376.8 338.898 376.5 339.298C376.2 339.698 375.7 340.098 375.2 340.198C373.9 340.898 372.5 341.198 371 341.198C369.6 341.198 368.1 340.898 366.8 340.198C366.2 339.998 365.6 339.498 365.3 338.898C365 338.298 365 337.598 365.2 336.998C365.3 336.598 365.5 336.298 365.8 335.998C366.1 335.698 366.4 335.498 366.8 335.398C368.1 334.698 369.5 334.398 371 334.398C372.5 334.398 373.9 334.698 375.2 335.398Z" fill="#E1E5EA"/>
<path d="M194.501 230.801C195.101 231.001 195.701 231.501 196.001 232.101C196.301 232.701 196.301 233.401 196.101 234.001C196.001 234.401 195.801 234.701 195.501 235.001C195.201 235.301 194.901 235.501 194.501 235.601C193.201 236.301 191.801 236.601 190.301 236.601C188.901 236.601 187.401 236.301 186.101 235.601C185.501 235.401 184.901 234.901 184.601 234.301C184.301 233.701 184.301 233.001 184.501 232.401C184.601 232.001 184.801 231.701 185.101 231.401C185.401 231.101 185.701 230.901 186.101 230.801C187.401 230.101 188.801 229.801 190.301 229.801C191.801 229.801 193.301 230.101 194.501 230.801Z" fill="#E1E5EA"/>
<path d="M123.2 219.699C123.8 219.899 124.4 220.399 124.7 220.999C125 221.599 125 222.299 124.8 222.899C124.7 223.299 124.5 223.599 124.2 223.899C123.9 224.199 123.6 224.399 123.2 224.499C121.9 225.199 120.5 225.499 119 225.499C117.5 225.499 116.1 225.199 114.8 224.499C114.2 224.299 113.6 223.799 113.3 223.199C113 222.599 113 221.899 113.2 221.299C113.3 220.899 113.5 220.599 113.8 220.299C114.1 219.999 114.4 219.799 114.8 219.699C116.1 218.999 117.5 218.699 119 218.699C120.5 218.699 121.9 218.999 123.2 219.699Z" fill="#E1E5EA"/>
<path d="M217.2 183.398C217.8 183.598 218.4 184.098 218.7 184.698C219 185.298 219 185.998 218.8 186.598C218.7 186.998 218.5 187.298 218.2 187.598C217.9 187.898 217.6 188.098 217.2 188.198C215.9 188.898 214.5 189.198 213 189.198C211.6 189.198 210.1 188.898 208.8 188.198C208.2 187.998 207.6 187.498 207.3 186.898C207 186.298 207 185.598 207.2 184.998C207.3 184.598 207.5 184.298 207.8 183.998C208.1 183.698 208.4 183.498 208.8 183.398C210.1 182.698 211.5 182.398 213 182.398C214.5 182.398 215.9 182.798 217.2 183.398Z" fill="#E1E5EA"/>
<path d="M129.899 203.799V211.599L76.1992 180.599V172.699L129.899 203.799Z" fill="#D6E7FF"/>
<path d="M75.8004 173.3L129.6 204.4L130.4 203.1L76.6004 172L75.8004 173.3ZM76.9004 180.6V172.7H75.4004V180.6H76.9004ZM130.3 211L76.5004 179.9L75.7004 181.2L129.5 212.3L130.3 211ZM129.2 203.8V211.7H130.7V203.8H129.2ZM76.2004 172.7L76.6004 172.1C76.4004 172 76.1004 172 75.8004 172.1C75.6004 172.2 75.4004 172.5 75.4004 172.7H76.2004ZM76.2004 180.6H75.4004C75.4004 180.9 75.5004 181.1 75.8004 181.2L76.2004 180.6ZM129.9 211.6L129.5 212.2C129.7 212.3 130 212.3 130.3 212.2C130.5 212.1 130.7 211.8 130.7 211.6H129.9ZM129.9 203.8H130.7C130.7 203.5 130.6 203.3 130.3 203.2L129.9 203.8Z" fill="#3388FF"/>
<path d="M183.4 172.699L129.9 203.799V211.599L183.4 180.599V172.699Z" fill="#D6E7FF"/>
<path d="M184.1 180.601V172.701H182.6V180.601H184.1ZM130.3 212.301L183.7 181.201L182.9 179.901L129.6 211.001L130.3 212.301ZM129.2 203.801V211.701H130.7V203.801H129.2ZM183 172.001L129.6 203.101L130.4 204.401L183.8 173.301L183 172.001ZM183.4 180.601L183.8 181.201C184 181.101 184.2 180.801 184.2 180.601H183.4ZM129.9 211.601H129.1C129.1 211.901 129.2 212.101 129.5 212.301C129.7 212.401 130 212.401 130.3 212.301L129.9 211.601ZM129.9 203.801L129.5 203.201C129.3 203.301 129.1 203.601 129.1 203.801H129.9ZM183.4 172.701H184.2C184.2 172.401 184.1 172.201 183.8 172.001C183.6 171.901 183.3 171.901 183 172.001L183.4 172.701Z" fill="#3388FF"/>
<path d="M183.399 172.702L129.899 203.802L76.1992 172.702L129.599 141.602L183.399 172.702Z" fill="white"/>
<path d="M129.2 142.298L183 173.398L183.8 172.098L130 140.998L129.2 142.298ZM76.6004 173.298L130 142.198L129.2 140.898L75.8004 171.998L76.6004 173.298ZM130.3 203.098L76.6004 171.998L75.8004 173.298L129.6 204.398L130.3 203.098ZM183 171.998L129.6 203.098L130.4 204.398L183.8 173.298L183 171.998ZM129.6 141.598L130 140.998C129.8 140.898 129.5 140.898 129.2 140.998L129.6 141.598ZM76.2004 172.698L75.8004 172.098C75.6004 172.198 75.4004 172.498 75.4004 172.698C75.4004 172.998 75.5004 173.198 75.8004 173.298L76.2004 172.698ZM129.9 203.798L129.5 204.398C129.7 204.498 130 204.498 130.3 204.398L129.9 203.798ZM183.4 172.698L183.8 173.298C184 173.198 184.2 172.898 184.2 172.698C184.2 172.398 184.1 172.198 183.8 172.098L183.4 172.698Z" fill="#3388FF"/>
<path d="M132.5 180.499C133.3 180.899 134.3 181.099 135.2 181.099C136.1 181.099 137.1 180.899 137.9 180.499C139.4 179.599 139.4 178.199 137.9 177.399L136.5 176.599L137.8 175.999L138.2 175.799C140.2 174.699 140.1 172.799 138.2 171.699C137.8 171.499 137.4 171.299 137 171.199L136 170.899L136.3 170.199C136.8 168.899 136.2 167.499 134.5 166.599C133 165.899 131.4 165.499 129.8 165.499C128.2 165.499 126.6 165.899 125.1 166.599C124.5 166.899 124.1 167.299 123.7 167.799L123.2 168.599L121.8 168.299C120.4 167.999 119 168.199 117.8 168.799C116.3 169.699 116.3 171.099 117.8 171.899L132.7 180.499H132.5ZM140.7 176.599C142.6 178.099 142.4 180.299 140 181.699C138.5 182.499 136.9 182.899 135.2 182.899C133.5 182.899 131.9 182.499 130.4 181.699L115.5 173.099C112.8 171.599 112.8 169.099 115.5 167.499C117.3 166.599 119.4 166.199 121.4 166.399C121.8 165.999 122.3 165.599 122.9 165.299C125 164.199 127.3 163.699 129.7 163.699C132.1 163.699 134.4 164.299 136.5 165.299C138.6 166.499 139.6 168.199 139.3 169.899C139.6 169.999 140 170.199 140.3 170.399C143.1 172.099 143.3 174.799 140.7 176.599Z" fill="black"/>
<path d="M336.5 310.802L341.1 313.502C341.1 313.302 341.1 313.102 341.1 312.902C341.1 312.702 341.1 312.502 341 312.302C341 312.102 341 311.902 340.9 311.702C340.9 311.502 340.9 311.402 340.8 311.202L342.2 310.402C342.2 310.802 342.3 311.202 342.3 311.702C342.3 312.102 342.4 312.602 342.4 313.002C342.8 313.002 343.2 313.002 343.6 313.002C344.1 313.002 344.5 313.002 345 313.102C345.5 313.102 345.9 313.202 346.4 313.202C346.8 313.302 347.2 313.302 347.6 313.402L346.2 314.202C345.9 314.102 345.5 314.102 345.1 314.102C344.7 314.102 344.3 314.002 344 314.002C343.6 314.002 343.2 314.002 342.8 314.002C342.4 314.002 342.1 314.002 341.8 314.002L344.2 315.402L343 316.102L335.5 311.702L336.5 310.802Z" fill="#989FAA"/>
<path d="M354.599 303.202C354.999 303.002 355.399 302.802 355.799 302.702C356.199 302.602 356.599 302.602 356.999 302.602C357.399 302.602 357.699 302.702 358.099 302.802C358.499 302.902 358.799 303.102 359.199 303.302L362.099 305.002L360.899 305.702L358.199 304.102C357.899 303.902 357.699 303.802 357.399 303.702C357.199 303.602 356.999 303.502 356.699 303.502C356.399 303.502 356.299 303.502 356.099 303.502C355.899 303.502 355.699 303.602 355.499 303.702C355.299 303.802 355.199 303.902 355.099 304.002C354.999 304.102 354.899 304.202 354.799 304.202L358.999 306.702L357.799 307.402L352.699 304.402C352.899 304.202 353.099 304.002 353.399 303.802C353.799 303.702 354.099 303.502 354.599 303.202Z" fill="#989FAA"/>
<path d="M350.501 305.6C350.601 305.6 350.701 305.5 350.801 305.4C350.901 305.3 351.001 305.3 351.101 305.2C351.201 305.1 351.301 305.1 351.501 305.1C351.601 305.1 351.701 305 351.801 305L352.601 305.7C352.501 305.7 352.301 305.8 352.101 305.9C351.901 306 351.701 306.1 351.401 306.2C351.301 306.3 351.101 306.4 351.001 306.5C350.901 306.6 350.801 306.7 350.801 306.7L355.001 309.2L353.801 309.9L348.801 307C348.901 306.8 349.101 306.6 349.401 306.4C349.801 306.1 350.101 305.8 350.501 305.6Z" fill="#989FAA"/>
<path d="M347.3 308.2C348.1 308.2 349 308.5 349.9 309C350 309 350 309.1 350.1 309.1C350.2 309.2 350.2 309.2 350.3 309.2L346.9 311.2C347.3 311.4 347.8 311.5 348.3 311.5C348.8 311.5 349.3 311.3 349.8 311.1C350.1 310.9 350.3 310.8 350.5 310.6C350.7 310.4 350.8 310.3 350.9 310.2L352 310.7C352 310.8 351.9 310.8 351.8 310.9C351.7 311 351.6 311.1 351.5 311.2C351.4 311.3 351.2 311.4 351.1 311.5C350.9 311.6 350.8 311.7 350.6 311.8C350.1 312.1 349.7 312.2 349.2 312.4C348.7 312.5 348.3 312.6 347.8 312.5C347.3 312.5 346.9 312.4 346.5 312.3C346.1 312.2 345.7 312 345.3 311.8C344.8 311.5 344.5 311.3 344.3 311C344.1 310.7 344 310.4 344 310.2C344 309.9 344.1 309.7 344.2 309.5C344.4 309.3 344.6 309.1 344.9 308.9C345.7 308.3 346.5 308.1 347.3 308.2ZM346.1 310.7L348.3 309.4C348.1 309.3 348 309.2 347.8 309.2C347.6 309.1 347.4 309.1 347.2 309.1C347 309.1 346.8 309.1 346.6 309.1C346.4 309.1 346.2 309.2 346.1 309.3C345.9 309.4 345.8 309.5 345.7 309.6C345.6 309.7 345.6 309.8 345.6 310C345.6 310.1 345.7 310.2 345.8 310.4C345.8 310.5 346 310.6 346.1 310.7Z" fill="#989FAA"/>
<path d="M362.6 295.801L368.6 299.301C368.7 299.401 368.9 299.501 369 299.501C369.1 299.501 369.2 299.601 369.4 299.601C369.5 299.601 369.7 299.601 369.8 299.601C369.9 299.601 370.1 299.501 370.3 299.401L371.1 300.101C370.7 300.301 370.4 300.401 370.1 300.501C369.8 300.601 369.5 300.601 369.2 300.601C368.9 300.601 368.7 300.601 368.4 300.501C368.1 300.401 367.9 300.301 367.6 300.101L361.6 296.601L362.6 295.801Z" fill="#989FAA"/>
<path d="M362.601 299.301C363.401 299.301 364.301 299.601 365.201 300.101C365.301 300.101 365.301 300.201 365.401 300.201C365.501 300.301 365.601 300.301 365.601 300.301L362.201 302.301C362.601 302.501 363.101 302.601 363.601 302.601C364.101 302.601 364.601 302.401 365.101 302.201C365.401 302.001 365.601 301.901 365.801 301.701C366.001 301.501 366.101 301.401 366.201 301.301L367.301 301.801C367.301 301.901 367.201 301.901 367.101 302.001C367.001 302.101 366.901 302.201 366.801 302.301C366.701 302.401 366.501 302.501 366.401 302.601C366.201 302.701 366.101 302.801 365.901 302.901C365.401 303.201 365.001 303.301 364.501 303.501C364.001 303.601 363.601 303.701 363.101 303.601C362.601 303.601 362.201 303.501 361.801 303.401C361.401 303.301 361.001 303.101 360.601 302.901C360.101 302.601 359.801 302.401 359.601 302.101C359.401 301.801 359.301 301.501 359.301 301.301C359.301 301.001 359.401 300.801 359.501 300.601C359.701 300.401 359.901 300.201 360.201 300.001C361.001 299.501 361.801 299.301 362.601 299.301ZM361.401 301.901L363.601 300.601C363.401 300.501 363.301 300.401 363.101 300.401C362.901 300.301 362.701 300.301 362.501 300.301C362.301 300.301 362.101 300.301 361.901 300.301C361.701 300.301 361.501 300.401 361.401 300.501C361.201 300.601 361.101 300.701 361.001 300.801C360.901 300.901 360.901 301.001 360.901 301.201C360.901 301.301 361.001 301.401 361.101 301.601C361.101 301.701 361.201 301.801 361.401 301.901Z" fill="#989FAA"/>
<path d="M579.408 163.599C579.908 163.899 580.308 164.199 580.708 164.699L590.808 181.199C591.008 181.599 591.108 182.099 591.108 182.499C591.008 182.999 590.808 183.399 590.508 183.699L574.708 198.499C573.608 199.299 572.308 199.699 570.908 199.799L541.108 201.599C539.808 201.799 538.408 201.499 537.208 200.899L536.908 200.699L515.608 188.399C515.208 188.199 514.808 187.799 514.508 187.399C514.208 186.999 514.108 186.499 514.008 185.999L517.108 168.699C517.308 168.199 517.608 167.699 518.008 167.299C518.408 166.899 518.908 166.599 519.408 166.499L544.908 157.199C546.308 156.699 547.708 156.599 549.108 156.899L577.808 162.699C578.308 162.899 578.808 163.199 579.408 163.599Z" fill="#326CE5"/>
<path d="M566.107 190.299C566.507 190.699 566.407 191.199 565.807 191.399C565.307 191.599 564.607 191.499 564.207 191.299C564.107 191.299 564.107 191.199 564.007 191.099L563.907 190.999L563.807 190.899C563.607 190.699 563.507 190.599 563.407 190.399C563.307 190.299 563.307 190.199 563.207 190.199C562.807 189.699 562.407 189.299 562.007 188.899C561.707 188.699 561.507 188.699 561.307 188.699C561.207 188.599 561.007 188.499 560.907 188.399C556.907 189.599 552.407 189.899 548.107 189.199C548.007 189.299 547.907 189.299 547.907 189.299C547.807 189.399 547.807 189.499 547.807 189.499C547.507 189.599 547.307 189.599 547.107 189.799C546.807 190.199 546.607 190.699 546.407 191.199C546.407 191.299 546.307 191.399 546.307 191.499C546.307 191.699 546.207 191.799 546.107 191.999L546.007 192.099C545.707 192.599 544.907 192.799 544.307 192.699C544.107 192.699 544.007 192.599 543.907 192.499C543.507 192.299 543.407 191.899 543.607 191.599C543.707 191.499 543.707 191.399 543.707 191.399C543.807 191.199 543.907 191.099 544.107 190.999C544.207 190.899 544.207 190.899 544.307 190.799C544.707 190.299 545.107 189.899 545.307 189.399C545.407 189.199 545.207 189.099 545.107 188.999C545.107 188.899 545.107 188.899 545.107 188.799C545.107 188.699 545.207 188.699 545.207 188.599C544.407 188.299 543.707 188.099 543.007 187.899C541.907 187.499 540.807 186.999 539.907 186.499C538.407 185.599 537.107 184.599 536.207 183.399L535.507 183.499C535.307 183.399 535.107 183.399 534.907 183.399C534.307 183.399 533.807 183.599 533.107 183.799C532.807 183.899 532.607 183.899 532.307 183.999C532.207 183.999 532.007 184.099 531.907 184.099C531.707 184.199 531.407 184.299 531.107 184.299C531.007 184.299 530.907 184.299 530.907 184.299C530.207 184.399 529.607 184.399 529.307 184.199C529.207 184.099 529.107 183.999 529.007 183.899C528.807 183.499 529.207 183.099 529.907 182.899H530.107C530.207 182.899 530.307 182.899 530.307 182.899C530.607 182.799 530.907 182.799 531.207 182.799C531.307 182.799 531.507 182.799 531.607 182.799C532.607 182.699 533.407 182.599 534.107 182.399C534.307 182.299 534.507 182.199 534.607 181.999L535.207 181.799C534.107 179.299 534.607 176.699 536.507 174.399L536.007 174.099C535.907 173.999 535.907 173.799 535.707 173.699C535.107 173.399 534.307 173.199 533.507 172.999C533.307 172.999 533.207 172.899 533.007 172.899C532.707 172.799 532.507 172.799 532.207 172.699C532.107 172.699 532.107 172.599 532.007 172.599C531.807 172.499 531.707 172.499 531.607 172.399C531.107 172.099 531.007 171.699 531.307 171.399C531.707 171.099 532.507 170.999 533.207 171.199C533.407 171.299 533.507 171.299 533.507 171.299C533.807 171.399 534.007 171.499 534.207 171.599C534.307 171.699 534.407 171.699 534.507 171.799C535.307 172.199 535.907 172.499 536.607 172.699C536.807 172.799 537.107 172.699 537.407 172.699L538.007 172.899C540.707 170.799 544.507 169.399 548.807 168.899V168.499C548.907 168.399 549.207 168.199 549.207 167.999C549.207 167.599 549.007 167.099 548.807 166.599C548.807 166.499 548.707 166.399 548.707 166.299C548.607 166.099 548.507 165.999 548.507 165.799V165.699C548.407 165.199 548.907 164.699 549.607 164.699C550.007 164.699 550.307 164.699 550.607 164.899C550.907 165.099 551.007 165.199 551.007 165.399C551.007 165.499 551.007 165.599 551.007 165.599C551.007 165.799 551.007 165.899 551.007 166.099C551.007 166.199 551.007 166.299 551.007 166.399C551.007 166.999 551.007 167.399 551.107 167.899C551.107 167.999 551.207 168.099 551.307 168.199C551.407 168.199 551.507 168.299 551.507 168.299C551.607 168.399 551.607 168.599 551.607 168.699C555.207 168.699 558.707 169.199 561.707 170.299C562.407 170.599 563.107 170.799 563.707 171.199L564.207 170.999C564.407 170.999 564.807 170.999 565.107 170.899C565.707 170.599 566.207 170.199 566.707 169.799C566.807 169.699 566.907 169.599 567.007 169.599C567.207 169.499 567.307 169.299 567.507 169.199C567.607 169.199 567.607 169.099 567.707 169.099C568.407 168.699 569.207 168.699 569.707 168.999C570.207 169.299 570.207 169.799 569.607 170.099C569.407 170.199 569.407 170.199 569.307 170.299C569.107 170.399 568.807 170.499 568.607 170.599C568.507 170.599 568.407 170.699 568.207 170.799C567.407 171.199 566.807 171.399 566.307 171.799C566.107 171.999 566.107 172.099 566.107 172.199C566.007 172.299 565.807 172.399 565.707 172.499C568.507 174.499 570.007 176.999 569.907 179.499L570.607 179.599C570.707 179.599 570.707 179.699 570.807 179.699C570.907 179.799 571.107 179.799 571.307 179.899C572.007 179.999 572.807 179.999 573.807 179.999C574.007 179.999 574.207 179.999 574.307 179.999C574.607 179.999 574.907 179.999 575.207 179.999C575.307 179.999 575.407 179.999 575.507 179.999C576.007 179.999 576.307 180.099 576.507 180.299C576.807 180.499 576.907 180.699 576.907 180.899C576.807 181.299 576.107 181.599 575.307 181.499C575.107 181.499 575.007 181.499 574.907 181.499C574.607 181.499 574.307 181.399 574.107 181.399C574.007 181.399 573.807 181.299 573.707 181.299C572.807 181.199 572.007 181.099 571.207 180.999C570.807 180.999 570.707 181.099 570.507 181.199C570.407 181.199 570.307 181.199 570.207 181.199C570.107 181.199 569.907 181.199 569.807 181.199C569.307 182.499 568.507 183.699 567.307 184.699C566.107 185.799 564.707 186.699 563.007 187.499L563.207 187.799C563.207 187.899 563.107 188.099 563.207 188.299C563.507 188.699 564.107 189.099 564.707 189.499C564.807 189.599 564.907 189.599 565.007 189.699C565.207 189.799 565.407 189.899 565.607 190.099C566.007 190.099 566.007 190.199 566.107 190.299ZM558.707 186.799H558.807L554.507 183.299H554.407C554.307 183.299 554.307 183.199 554.207 183.199C554.107 183.099 553.907 183.099 553.707 182.999C553.107 182.899 552.307 182.999 552.107 183.399L549.307 187.299V187.399H549.407C552.507 187.799 555.807 187.599 558.707 186.799ZM545.307 179.399C545.507 179.299 545.707 179.199 545.907 179.099C546.207 178.799 546.107 178.399 545.707 178.199C545.707 178.199 545.607 178.199 545.607 178.099L539.507 175.599L539.407 175.699C538.107 177.399 537.707 179.199 538.407 180.999V181.099L545.307 179.399ZM546.107 186.699H546.207L548.207 182.599C548.207 182.399 548.207 182.299 548.107 182.199C548.007 182.099 547.907 181.999 547.807 181.899C547.507 181.699 547.007 181.699 546.607 181.699L539.507 182.899L539.607 182.999C540.307 183.799 541.207 184.599 542.307 185.199C543.107 185.599 543.907 185.999 544.807 186.399C545.307 186.399 545.707 186.599 546.107 186.699ZM561.607 185.699C562.807 185.099 563.807 184.399 564.707 183.699C565.507 182.899 566.207 182.099 566.507 181.199V181.099L559.107 180.899H559.007C558.707 180.899 558.507 180.899 558.307 180.999C557.707 181.199 557.507 181.599 557.807 181.999L561.607 185.699ZM552.607 170.799H552.507L553.807 174.999C553.907 175.099 554.007 175.299 554.207 175.399C554.707 175.699 555.507 175.699 556.007 175.399L561.507 172.599H561.607H561.507C561.107 172.399 560.707 172.199 560.307 172.099C557.807 171.299 555.207 170.799 552.607 170.799ZM563.807 173.999L558.807 177.099C558.607 177.199 558.507 177.399 558.507 177.499C558.507 177.699 558.607 177.999 558.907 178.099C559.107 178.199 559.307 178.299 559.607 178.299L566.907 178.999V178.899C566.907 177.299 565.807 175.499 563.807 173.999ZM541.207 173.899L547.607 175.999C547.807 176.099 548.107 176.099 548.407 176.099C549.107 176.099 549.607 175.699 549.607 175.299L549.207 170.999H549.107C546.007 171.499 543.207 172.499 541.207 173.899ZM553.307 177.699L551.107 177.799L549.907 178.899L550.707 180.199L552.907 180.599L554.907 179.899L555.107 178.599L553.307 177.699Z" fill="white"/>
<path d="M590.861 183.331L575.178 198.675C574.979 198.877 574.481 199.079 574.481 199.079L574.282 199.18L573.585 199.484L573.386 199.585C573.386 199.585 572.789 199.787 572.49 199.787C572.092 199.888 571.694 199.989 571.296 199.989L541.335 201.91C539.842 202.011 538.449 201.809 537.354 201.202C537.254 201.101 537.155 201.101 537.055 201L515.655 188.465C515.456 188.364 515.356 188.263 515.157 188.061L515.058 187.96C514.958 187.859 514.759 187.657 514.66 187.556L514.56 187.455C514.461 187.354 514.461 187.252 514.361 187.252L514.261 187.151C514.261 187.05 514.162 186.949 514.162 186.949C514.162 186.949 514.162 186.848 514.062 186.848C514.062 186.747 513.963 186.646 513.963 186.545V186.444C513.963 186.343 513.963 186.242 513.963 186.039V193.115C513.963 193.216 513.963 193.318 513.963 193.52V193.621C513.963 193.722 513.963 193.823 514.062 193.924C514.062 193.924 514.062 194.025 514.162 194.025C514.162 194.126 514.261 194.227 514.261 194.227C514.261 194.227 514.261 194.328 514.361 194.328C514.361 194.429 514.461 194.531 514.56 194.531C514.56 194.531 514.56 194.632 514.66 194.632C514.759 194.733 514.859 194.935 515.058 195.036L515.157 195.137C515.356 195.238 515.456 195.44 515.655 195.541L537.055 208.076C537.155 208.177 537.254 208.177 537.354 208.278C538.349 208.884 539.842 209.087 541.335 208.986L571.296 207.065C571.694 207.065 572.092 206.964 572.49 206.863H572.59C572.889 206.762 573.088 206.762 573.386 206.661C573.486 206.661 573.486 206.661 573.585 206.56C573.784 206.458 574.083 206.357 574.282 206.256C574.382 206.256 574.382 206.155 574.481 206.155C574.68 206.054 574.979 205.852 575.178 205.751L591.004 190.689C591.303 190.386 591.502 189.982 591.601 189.577C591.601 189.476 591.601 189.274 591.601 189.173L591.382 181.891C591.382 182.497 591.259 182.926 590.861 183.331Z" fill="#D6E7FF" stroke="#326CE5" stroke-width="1.3" stroke-miterlimit="10" stroke-linecap="round" stroke-linejoin="round"/>
<path d="M579.66 163.201C580.157 163.501 580.655 163.901 580.953 164.301L591.099 181.001C591.597 181.901 591.415 182.691 590.719 183.491L574.985 198.501C574.089 199.201 572.697 199.701 571.205 199.801L541.263 201.701C539.771 201.801 538.379 201.601 537.284 201.001C537.185 200.901 537.086 200.901 536.986 200.801L515.599 188.401C514.605 187.701 514.008 186.801 514.008 185.901L517.092 168.401C517.29 167.501 518.186 166.701 519.379 166.201L545.043 156.801C546.336 156.301 547.928 156.201 549.321 156.501L578.068 162.301C578.566 162.501 579.162 162.901 579.66 163.201Z" stroke="#326CE5" stroke-width="1.5" stroke-miterlimit="10" stroke-linecap="round" stroke-linejoin="round"/>
</g>
<defs>
<radialGradient id="paint0_radial" cx="0" cy="0" r="1" gradientUnits="userSpaceOnUse" gradientTransform="translate(341.051 206.602) scale(330.905 206.551)">
<stop offset="0.8543" stop-color="#F6F7F8"/>
<stop offset="0.9923" stop-color="#F6F7F8" stop-opacity="0.0525525"/>
<stop offset="1" stop-color="#F6F7F8" stop-opacity="0"/>
</radialGradient>
<clipPath id="clip0">
<rect width="682" height="413" fill="white"/>
</clipPath>
</defs>
</svg>
