<svg width="741" height="558" viewBox="0 0 741 558" fill="none" xmlns="http://www.w3.org/2000/svg">
<g clip-path="url(#clip0_3563_11009)">
<g clip-path="url(#clip1_3563_11009)">
<g opacity="0.6">
<mask id="mask0_3563_11009" style="mask-type:alpha" maskUnits="userSpaceOnUse" x="25" y="143" width="684" height="396">
<circle r="278.94" transform="matrix(0.866025 0.5 -0.866025 0.5 366.752 340.95)" fill="#C4C4C4"/>
</mask>
<g mask="url(#mask0_3563_11009)">
<path d="M-120.994 462.855L620.309 34.8633" stroke="#E0E5EB" stroke-width="1.06466"/>
<path d="M-167.096 436.238L574.207 8.24658" stroke="#E0E5EB" stroke-width="1.06466"/>
<path d="M-213.197 409.622L528.105 -18.3696" stroke="#E0E5EB" stroke-width="1.06466"/>
<path d="M-259.299 383.006L482.004 -44.9858" stroke="#E0E5EB" stroke-width="1.06466"/>
<path d="M-305.398 356.389L435.904 -71.6025" stroke="#E0E5EB" stroke-width="1.06466"/>
<path d="M-74.8946 489.471L666.408 61.4795" stroke="#E0E5EB" stroke-width="1.06466"/>
<path d="M-28.7949 516.087L712.508 88.0957" stroke="#E0E5EB" stroke-width="1.06466"/>
<path d="M17.3086 542.704L758.611 114.712" stroke="#E0E5EB" stroke-width="1.06466"/>
<path d="M63.4082 569.32L804.711 141.329" stroke="#E0E5EB" stroke-width="1.06466"/>
<path d="M109.51 595.936L850.812 167.945" stroke="#E0E5EB" stroke-width="1.06466"/>
<path d="M155.609 622.553L896.912 194.562" stroke="#E0E5EB" stroke-width="1.06466"/>
<path d="M201.713 649.169L943.016 221.178" stroke="#E0E5EB" stroke-width="1.06466"/>
<path d="M247.812 675.786L989.115 247.794" stroke="#E0E5EB" stroke-width="1.06466"/>
<path d="M293.912 702.402L1035.21 274.411" stroke="#E0E5EB" stroke-width="1.06466"/>
<path d="M340.014 729.018L1081.32 301.027" stroke="#E0E5EB" stroke-width="1.06466"/>
<path d="M386.115 755.635L1127.42 327.644" stroke="#E0E5EB" stroke-width="1.06466"/>
<path d="M635.59 600.499L-152.395 145.556" stroke="#E0E5EB" stroke-width="1.06466"/>
<path d="M589.49 627.116L-198.494 172.173" stroke="#E0E5EB" stroke-width="1.06466"/>
<path d="M543.389 653.731L-244.596 198.788" stroke="#E0E5EB" stroke-width="1.06466"/>
<path d="M497.289 680.349L-290.695 225.406" stroke="#E0E5EB" stroke-width="1.06466"/>
<path d="M451.187 706.965L-336.797 252.022" stroke="#E0E5EB" stroke-width="1.06466"/>
<path d="M681.693 573.883L-106.291 118.94" stroke="#E0E5EB" stroke-width="1.06466"/>
<path d="M727.791 547.266L-60.1934 92.3228" stroke="#E0E5EB" stroke-width="1.06466"/>
<path d="M773.894 520.65L-14.0898 65.7075" stroke="#E0E5EB" stroke-width="1.06466"/>
<path d="M819.992 494.033L32.0078 39.0898" stroke="#E0E5EB" stroke-width="1.06466"/>
<path d="M848.967 457.528L78.1602 12.5024" stroke="#E0E5EB" stroke-width="1.06466"/>
<path d="M912.195 440.8L124.211 -14.1426" stroke="#E0E5EB" stroke-width="1.06466"/>
<path d="M958.297 414.184L170.312 -40.7593" stroke="#E0E5EB" stroke-width="1.06466"/>
<path d="M1004.4 387.568L216.414 -67.3745" stroke="#E0E5EB" stroke-width="1.06466"/>
<path d="M1050.5 360.951L262.514 -93.9922" stroke="#E0E5EB" stroke-width="1.06466"/>
<path d="M1096.6 334.335L308.617 -120.607" stroke="#E0E5EB" stroke-width="1.06466"/>
<path d="M1052.39 255.579L264.408 -199.364" stroke="#E0E5EB" stroke-width="1.06466"/>
<circle r="203.349" transform="matrix(0.866025 0.5 -0.866025 0.5 366.752 340.95)" stroke="white" stroke-width="4.25862" stroke-linecap="round" stroke-linejoin="round"/>
</g>
</g>
<rect width="211.866" height="211.866" transform="matrix(0.866025 0.5 -0.866025 0.5 368.598 233.952)" fill="#F6F7F9"/>
<circle r="6.38793" transform="matrix(0.866025 0.5 -0.866025 0.5 117.809 342.015)" fill="#0073E6" stroke="#F6F7F8" stroke-width="2.12931"/>
<circle r="5.8556" transform="matrix(0.866025 0.5 -0.866025 0.5 615.699 340.95)" fill="#EB4748" stroke="#F6F7F8" stroke-width="1.06466"/>
<circle r="6.92026" transform="matrix(0.866025 0.5 -0.866025 0.5 367.676 485.211)" fill="#FFBF00" stroke="#F6F7F8" stroke-width="3.19397"/>
<g opacity="0.18" filter="url(#filter0_f_3563_11009)">
<path d="M578.82 425.057L540.486 417.192L505.424 429.105L502.66 452.418L531.411 469.018L571.809 467.432L592.445 447.188L578.82 425.057Z" fill="#0A53A5"/>
</g>
<path d="M573.55 423.444L537.758 416.194L504.859 427.437L502.077 449.253L528.832 464.7L566.635 463.103L586.109 444.108L573.55 423.444Z" fill="#0073E6"/>
<path d="M558.568 453.205C558.511 453.172 558.454 453.139 558.511 453.106C558.568 453.072 558.454 453.006 558.339 452.94C558.167 452.775 557.938 452.642 557.709 452.51C557.594 452.444 557.479 452.377 557.422 452.278L557.365 452.245C556.792 451.848 556.219 451.384 555.761 450.921C555.646 450.788 555.646 450.59 555.761 450.457C555.819 450.49 555.761 450.457 555.761 450.457L555.418 450.126C557.313 449.297 558.921 448.236 560.243 447.075C561.508 445.882 562.428 444.556 562.947 443.198L563.635 443.197L563.693 443.164C563.865 443.065 564.152 442.965 564.382 442.965C565.357 442.997 566.218 443.096 567.135 443.228C567.308 443.261 567.48 443.294 567.652 443.327C567.996 443.393 568.283 443.426 568.627 443.492C568.742 443.492 568.799 443.525 568.914 443.525C569.028 443.525 568.971 443.492 569.029 443.459C569.947 443.525 570.75 443.193 570.866 442.663C570.924 442.431 570.752 442.133 570.466 441.967C570.179 441.802 569.778 441.703 569.376 441.67L569.261 441.67C569.147 441.67 569.032 441.67 568.974 441.637C568.63 441.637 568.286 441.637 567.999 441.671C567.827 441.704 567.655 441.671 567.54 441.671C566.679 441.705 565.704 441.672 564.843 441.573C564.671 441.54 564.499 441.507 564.384 441.441C564.327 441.408 564.212 441.342 564.213 441.275L564.155 441.242L563.41 441.143C563.41 440.613 563.354 440.05 563.355 439.52C562.9 437.334 561.297 435.215 558.89 433.494L559.292 433.195L559.235 433.228C559.178 433.063 559.293 432.93 559.408 432.798C560.04 432.433 560.671 432.068 561.475 431.736L561.533 431.703C561.648 431.637 561.82 431.603 561.935 431.537C562.222 431.438 562.452 431.305 562.739 431.205L563.083 431.006C563.715 430.708 563.831 430.112 563.315 429.747C563.029 429.516 562.512 429.417 561.939 429.417C561.479 429.417 561.078 429.517 560.79 429.683L560.503 429.848C560.274 429.981 560.101 430.147 559.929 430.313C559.871 430.412 559.756 430.478 559.641 430.545L559.584 430.578C559.067 431.009 558.435 431.374 557.746 431.772C557.516 431.838 557.286 431.904 557 431.871L556.885 431.938L556.368 432.17C555.68 431.839 554.934 431.541 554.132 431.211C550.863 429.987 546.963 429.393 543.061 429.461L542.946 429.13L542.889 429.097C542.832 429.064 542.717 429.064 542.602 428.998C542.488 428.932 542.431 428.832 542.373 428.733C542.259 428.203 542.203 427.64 542.261 427.143C542.319 427.043 542.262 426.944 542.262 426.878C542.262 426.679 542.32 426.513 542.32 426.315C542.32 426.248 542.263 426.215 542.263 426.149C542.263 426.083 542.263 426.083 542.263 426.083C542.206 425.851 542.035 425.619 541.748 425.454C541.404 425.255 541.003 425.156 540.543 425.222C539.683 425.322 539.108 425.786 539.164 426.283C539.222 426.316 539.164 426.35 539.164 426.35C539.164 426.35 539.164 426.482 539.221 426.515C539.278 426.681 539.393 426.879 539.507 427.078C539.564 427.178 539.622 427.277 539.679 427.376C539.907 427.906 540.136 428.436 540.135 428.966C540.135 429.099 540.02 429.297 539.79 429.364L539.848 429.331L539.847 429.728C539.675 429.761 539.56 429.762 539.388 429.795C534.796 430.394 530.72 431.887 527.962 434.075L527.388 433.877C527.331 433.91 527.273 433.877 527.273 433.877C527.044 433.943 526.757 433.91 526.47 433.877C525.667 433.613 524.922 433.315 524.176 432.951C524.062 432.885 523.947 432.819 523.775 432.786C523.546 432.653 523.259 432.554 523.03 432.422C522.973 432.388 522.858 432.389 522.743 432.322C522.686 432.289 522.686 432.289 522.571 432.289C521.826 431.992 520.85 432.092 520.333 432.523C519.93 432.887 520.102 433.384 520.675 433.649C520.79 433.715 520.847 433.748 521.019 433.781C521.076 433.814 521.076 433.814 521.134 433.781C521.191 433.748 521.306 433.88 521.363 433.913C521.65 434.013 521.994 434.079 522.223 434.145C522.396 434.178 522.568 434.211 522.682 434.277L522.74 434.31C523.6 434.541 524.345 434.773 525.148 435.104L525.205 435.137C525.377 435.236 525.492 435.369 525.492 435.501C525.549 435.534 525.492 435.567 525.492 435.567L526.065 435.832C524.283 437.854 523.533 440.14 524.045 442.426C524.159 442.956 524.273 443.419 524.559 443.916L523.87 443.983C523.813 444.016 523.87 444.049 523.87 444.049C523.812 444.215 523.582 444.347 523.353 444.414C522.549 444.613 521.631 444.746 520.77 444.846L520.712 444.879C520.54 444.912 520.426 444.912 520.196 444.913C519.966 444.913 519.622 444.979 519.22 445.013C519.106 445.013 519.048 445.046 518.933 445.046C518.933 445.046 518.876 445.079 518.819 445.046C517.958 445.212 517.498 445.742 517.726 446.206C517.784 446.305 517.898 446.438 518.013 446.504C518.471 446.769 519.16 446.835 519.791 446.735C519.791 446.735 519.849 446.702 519.906 446.735C519.963 446.702 520.078 446.702 520.193 446.701C520.48 446.602 520.767 446.569 521.054 446.469L521.513 446.336C522.317 446.071 523.178 445.905 524.039 445.738C524.326 445.705 524.613 445.738 524.842 445.804C524.899 445.837 524.899 445.837 524.957 445.804L525.646 445.671C526.619 446.963 527.994 448.088 529.714 449.081C530.745 449.677 531.892 450.206 533.211 450.636C533.956 450.934 534.817 451.165 535.562 451.397L535.389 451.761C535.447 451.794 535.447 451.794 535.389 451.827C535.504 451.96 535.561 452.125 535.503 452.291C535.215 452.788 534.928 453.285 534.468 453.749L534.41 453.782L534.18 454.048C534.008 454.213 533.835 454.379 533.778 454.545C533.778 454.611 533.72 454.644 533.72 454.71C533.72 454.71 533.663 454.744 533.72 454.777C533.547 455.141 533.661 455.539 534.12 455.803C534.292 455.903 534.464 455.936 534.693 456.002C535.037 456.068 535.496 456.068 535.841 455.935C536.186 455.802 536.473 455.636 536.645 455.404C536.703 455.371 536.645 455.338 536.645 455.338C536.703 455.305 536.703 455.239 536.703 455.172C536.818 454.974 536.876 454.808 536.876 454.609C536.934 454.51 536.934 454.444 536.934 454.311L537.049 454.245C537.165 453.715 537.452 453.217 537.798 452.753C537.913 452.621 538.142 452.488 538.429 452.455C538.487 452.422 538.544 452.455 538.544 452.455L538.832 452.09C543.536 452.75 548.528 452.449 552.834 451.154L553.235 451.452C553.292 451.485 553.35 451.452 553.35 451.452C553.579 451.452 553.809 451.518 553.981 451.618L554.038 451.651C554.554 452.081 555.012 452.545 555.355 453.008L555.413 453.041C555.47 453.141 555.527 453.24 555.642 453.306C555.756 453.505 555.813 453.67 555.985 453.836C556.042 453.869 556.042 453.935 556.157 454.001C556.214 454.035 556.214 454.035 556.214 454.101C556.271 454.2 556.329 454.233 556.443 454.299C556.959 454.597 557.762 454.663 558.394 454.497C558.968 454.099 558.969 453.569 558.568 453.205ZM543.783 442.613L541.489 442.15L540.688 440.826L541.952 439.632L544.42 439.465L546.139 440.458L545.85 441.883L543.783 442.613ZM556.86 445.852C555.94 446.713 554.791 447.443 553.471 448.073L549.576 444.034C549.175 443.67 549.405 443.206 550.037 442.973C550.266 442.907 550.439 442.874 550.668 442.874L558.873 443.101C558.47 444.062 557.779 444.99 556.86 445.852ZM559.279 440.881L551.247 440.091C550.616 439.992 550.1 439.627 550.216 439.23C550.216 439.097 550.273 438.998 550.446 438.898L555.903 435.35C558.138 436.972 559.282 438.893 559.279 440.881ZM551.833 433.2L553.209 433.729L547.179 436.88C546.662 437.178 545.801 437.145 545.285 436.848C545.113 436.748 545.056 436.649 544.942 436.516L543.573 431.813C546.499 431.844 549.367 432.307 551.833 433.2ZM539.785 432.08L540.236 436.718C540.293 437.149 539.776 437.513 539.03 437.547C538.743 437.58 538.571 437.547 538.284 437.448L531.115 435.166C533.356 433.674 536.399 432.579 539.785 432.08ZM529.104 437.122L535.755 439.835C536.213 440.099 536.385 440.53 535.983 440.828C535.868 440.961 535.638 441.094 535.351 441.127L527.888 442.92C527.203 440.999 527.609 438.912 529.104 437.122ZM534.993 448.747C534.018 448.383 533.101 447.986 532.241 447.489C531.037 446.794 530.006 445.934 529.204 445.073L537.125 443.743C537.756 443.71 538.33 443.908 538.501 444.272C538.558 444.438 538.558 444.57 538.558 444.769L536.312 449.243C535.911 449.077 535.509 448.912 534.993 448.747ZM546.983 449.899C544.745 450.199 542.335 450.2 540.098 449.903L543.262 445.495C543.606 445.164 544.295 445.031 544.869 445.163C545.098 445.229 545.328 445.295 545.5 445.394L550.255 449.268C549.164 449.566 548.074 449.799 546.983 449.899Z" fill="white"/>
<path d="M502.094 452.457L502.094 449.263L528.832 464.7L528.832 467.894L502.094 452.457Z" fill="#1A8CFF"/>
<path d="M528.833 467.894L528.833 464.7L566.636 463.103L566.636 466.297L528.833 467.894Z" fill="#0073E6"/>
<path d="M586.122 447.362L586.102 444.099L566.635 463.103L566.635 466.297L586.122 447.362Z" fill="#0059B3"/>
<g opacity="0.12" filter="url(#filter1_f_3563_11009)">
<path d="M262.63 295.739C266.703 293.387 273.308 293.387 277.382 295.739L345.611 335.131C349.685 337.483 349.685 341.297 345.611 343.649L277.382 383.041C273.308 385.393 266.703 385.393 262.63 383.041L194.4 343.649C190.327 341.297 190.327 337.483 194.4 335.131L262.63 295.739Z" fill="#141A1F"/>
</g>
<path d="M262.63 291.48C266.703 289.128 273.308 289.128 277.382 291.48L345.611 330.873C349.685 333.225 349.685 337.038 345.611 339.39L277.382 378.782C273.308 381.134 266.703 381.134 262.63 378.782L194.4 339.39C190.327 337.038 190.327 333.225 194.4 330.873L262.63 291.48Z" fill="white"/>
<path d="M238.545 336.58L230.498 341.226L229.555 340.682L231.488 334.502L231.41 334.457L225.092 338.105L224.118 337.542L232.164 332.896L233.107 333.441L231.174 339.638L231.253 339.684L237.586 336.027L238.545 336.58ZM234.727 343.813C234.145 343.477 233.772 343.113 233.607 342.722C233.447 342.33 233.485 341.934 233.721 341.535C233.962 341.136 234.392 340.758 235.01 340.401C235.628 340.044 236.285 339.794 236.982 339.652C237.684 339.51 238.37 339.48 239.041 339.562C239.717 339.643 240.327 339.841 240.872 340.156C241.186 340.337 241.444 340.547 241.646 340.784C241.848 341.022 241.956 341.281 241.972 341.562C241.99 341.842 241.882 342.136 241.646 342.445C241.41 342.753 241.011 343.07 240.448 343.395L240.055 343.622L235.403 340.936L236.204 340.474L239.913 342.615C240.254 342.418 240.49 342.204 240.621 341.971C240.754 341.739 240.774 341.507 240.679 341.274C240.588 341.043 240.374 340.83 240.039 340.637C239.67 340.424 239.258 340.292 238.805 340.242C238.357 340.192 237.916 340.21 237.481 340.294C237.046 340.379 236.663 340.517 236.33 340.709L235.796 341.018C235.34 341.281 235.032 341.55 234.872 341.823C234.718 342.097 234.699 342.363 234.817 342.622C234.938 342.879 235.185 343.115 235.56 343.332C235.804 343.472 236.058 343.58 236.322 343.654C236.592 343.728 236.868 343.767 237.151 343.77C237.437 343.771 237.723 343.734 238.012 343.658L238.656 344.321C238.258 344.442 237.832 344.505 237.379 344.509C236.929 344.512 236.475 344.456 236.02 344.341C235.566 344.225 235.136 344.049 234.727 343.813ZM247.422 344.028L246.636 344.482L243.508 342.676L244.294 342.222L247.422 344.028ZM246.652 341.914L247.579 342.449L241.827 345.77C241.565 345.922 241.406 346.057 241.351 346.176C241.302 346.296 241.315 346.403 241.391 346.498C241.472 346.594 241.581 346.681 241.717 346.759C241.819 346.818 241.908 346.864 241.984 346.895C242.062 346.926 242.125 346.95 242.172 346.968L241.528 347.558C241.442 347.535 241.33 347.498 241.194 347.447C241.055 347.397 240.899 347.322 240.727 347.222C240.465 347.071 240.264 346.89 240.125 346.68C239.989 346.471 239.954 346.253 240.019 346.024C240.087 345.798 240.297 345.583 240.648 345.38L246.652 341.914ZM244.149 349.107L248.345 344.561L249.319 345.124L246.003 348.545L246.066 348.581L251.975 346.657L252.966 347.229L249.634 350.623L249.697 350.659L255.606 348.753L256.58 349.316L248.707 351.739L247.795 351.212L251.111 347.773L251.017 347.719L245.06 349.633L244.149 349.107ZM253.892 354.878C253.347 354.563 252.999 354.212 252.847 353.825C252.697 353.439 252.741 353.045 252.976 352.643C253.215 352.242 253.646 351.862 254.269 351.502C254.898 351.139 255.56 350.888 256.257 350.749C256.957 350.611 257.64 350.586 258.308 350.672C258.979 350.76 259.586 350.961 260.131 351.275C260.676 351.59 261.023 351.94 261.172 352.326C261.324 352.713 261.28 353.107 261.039 353.51C260.8 353.913 260.367 354.297 259.738 354.66C259.115 355.02 258.455 355.268 257.758 355.404C257.064 355.541 256.382 355.566 255.711 355.479C255.043 355.392 254.437 355.192 253.892 354.878ZM254.725 354.397C255.139 354.636 255.585 354.771 256.065 354.803C256.544 354.834 257.021 354.788 257.495 354.662C257.969 354.537 258.408 354.357 258.811 354.124C259.214 353.892 259.526 353.637 259.746 353.362C259.966 353.087 260.05 352.81 259.998 352.532C259.945 352.254 259.712 351.995 259.298 351.756C258.884 351.517 258.436 351.383 257.955 351.352C257.473 351.322 256.993 351.371 256.516 351.498C256.04 351.625 255.6 351.805 255.196 352.037C254.793 352.27 254.483 352.524 254.265 352.797C254.048 353.071 253.967 353.346 254.022 353.623C254.077 353.9 254.311 354.158 254.725 354.397ZM258.168 357.201L264.203 353.717L265.099 354.234L264.187 354.76L264.25 354.796C264.658 354.688 265.1 354.663 265.574 354.722C266.048 354.781 266.466 354.914 266.827 355.123C266.895 355.162 266.979 355.212 267.079 355.273C267.178 355.333 267.252 355.38 267.299 355.413L266.356 355.958C266.332 355.935 266.272 355.887 266.175 355.813C266.083 355.739 265.976 355.666 265.853 355.595C265.56 355.426 265.236 355.31 264.882 355.248C264.534 355.186 264.186 355.178 263.837 355.225C263.494 355.272 263.186 355.374 262.914 355.531L259.095 357.736L258.168 357.201ZM265.349 358.806L266.481 358.135L266.669 358.244L271.997 358.217L273.144 358.879L267.486 358.897L267.408 358.852L265.349 358.806ZM262.284 359.578L270.331 354.932L271.258 355.467L263.212 360.113L262.284 359.578ZM266.119 361.792L266.748 358.707L268.052 358.716L267.298 362.472L266.119 361.792Z" fill="#141A1F"/>
<circle r="19.1638" transform="matrix(0.866025 0.5 -0.866025 0.5 279.164 330.836)" fill="#EB4748"/>
<path d="M288.385 325.513L279.165 330.836" stroke="white" stroke-width="2.12931" stroke-linecap="round"/>
<path d="M265.334 329.239L279.164 330.836" stroke="white" stroke-width="2.12931" stroke-linecap="round"/>
<path d="M279.164 330.836L281.93 338.821" stroke="white" stroke-width="2.12931" stroke-linecap="round"/>
<circle r="3.19397" transform="matrix(0.866025 0.5 -0.866025 0.5 281.93 338.821)" fill="white"/>
<circle r="3.19397" transform="matrix(0.866025 0.5 -0.866025 0.5 288.385 325.513)" fill="white"/>
<circle r="3.19397" transform="matrix(0.866025 0.5 -0.866025 0.5 265.334 329.239)" fill="white"/>
<circle r="4.25862" transform="matrix(0.866025 0.5 -0.866025 0.5 279.164 330.836)" fill="white"/>
<g opacity="0.12" filter="url(#filter2_f_3563_11009)">
<path d="M458.097 295.739C462.17 293.387 468.775 293.387 472.849 295.739L541.078 335.131C545.152 337.483 545.152 341.297 541.078 343.649L472.849 383.041C468.775 385.393 462.17 385.393 458.097 383.041L389.867 343.649C385.793 341.297 385.793 337.483 389.867 335.131L458.097 295.739Z" fill="#141A1F"/>
</g>
<path d="M458.097 291.48C462.17 289.128 468.775 289.128 472.849 291.48L541.078 330.873C545.152 333.225 545.152 337.038 541.078 339.39L472.849 378.782C468.775 381.134 462.17 381.134 458.097 378.782L389.867 339.39C385.793 337.038 385.793 333.225 389.867 330.873L458.097 291.48Z" fill="white"/>
<path d="M434.684 346.26L433.663 345.67L444.664 342.73L445.67 343.311L440.578 349.663L439.556 349.073L443.925 343.774L443.862 343.738L434.684 346.26ZM438.205 344.663L442.322 347.04L441.458 347.539L437.34 345.162L438.205 344.663ZM441.831 350.386L449.878 345.741L452.597 347.31C453.228 347.675 453.63 348.039 453.803 348.401C453.981 348.764 453.975 349.113 453.783 349.447C453.592 349.781 453.259 350.085 452.785 350.359C452.311 350.633 451.783 350.826 451.202 350.938C450.623 351.051 450.018 351.059 449.387 350.96C448.758 350.86 448.131 350.63 447.505 350.268L445.556 349.143L446.42 348.644L448.338 349.751C448.77 350.001 449.192 350.158 449.603 350.223C450.014 350.288 450.406 350.281 450.778 350.203C451.155 350.124 451.504 349.992 451.827 349.806C452.149 349.62 452.377 349.419 452.51 349.202C452.647 348.988 452.654 348.762 452.534 348.526C452.416 348.289 452.138 348.044 451.701 347.791L449.988 346.802L442.806 350.949L441.831 350.386ZM457.875 350.358L449.829 355.004L448.854 354.441L456.901 349.795L457.875 350.358Z" fill="#141A1F"/>
<circle r="19.1638" transform="matrix(0.866025 0.5 -0.866025 0.5 474.631 330.836)" fill="#00877C"/>
<path d="M480.149 337.101L479.701 335.144C480.169 334.959 480.607 334.749 481.009 334.517C481.41 334.284 481.773 334.031 482.093 333.76L485.484 334.02C485.583 334.027 485.684 334.014 485.768 333.981C485.852 333.949 485.913 333.9 485.939 333.844L487.083 331.427C487.109 331.371 487.099 331.312 487.055 331.26C487.011 331.208 486.936 331.168 486.843 331.147L483.671 330.412C483.594 329.761 483.307 329.126 482.827 328.538L484.945 326.97C485.007 326.924 485.038 326.867 485.032 326.81C485.027 326.752 484.985 326.698 484.914 326.657L481.87 324.9C481.8 324.859 481.706 324.835 481.606 324.832C481.506 324.829 481.408 324.846 481.328 324.882L478.613 326.105C477.595 325.827 476.494 325.662 475.367 325.617L474.095 323.786C474.058 323.732 473.988 323.689 473.898 323.663C473.809 323.638 473.706 323.632 473.609 323.647L469.42 324.308C469.323 324.323 469.238 324.358 469.182 324.407C469.126 324.455 469.103 324.514 469.116 324.571L469.567 326.528C468.628 326.899 467.815 327.368 467.173 327.911L463.781 327.651C463.682 327.643 463.581 327.657 463.497 327.689C463.413 327.721 463.353 327.77 463.326 327.826L462.182 330.244C462.155 330.3 462.165 330.359 462.209 330.411C462.253 330.463 462.328 330.503 462.421 330.524L465.594 331.259C465.671 331.91 465.958 332.546 466.439 333.133L464.321 334.701C464.259 334.747 464.228 334.804 464.234 334.861C464.24 334.919 464.281 334.973 464.352 335.014L467.396 336.771C467.466 336.812 467.56 336.836 467.66 336.84C467.76 336.843 467.859 336.825 467.938 336.789L470.654 335.566C471.671 335.844 472.772 336.009 473.899 336.054L475.172 337.886C475.209 337.939 475.279 337.983 475.368 338.008C475.457 338.034 475.56 338.039 475.657 338.024L479.845 337.363C479.942 337.348 480.026 337.313 480.082 337.265C480.138 337.217 480.162 337.158 480.149 337.101ZM471.422 332.69C470.794 332.327 470.368 331.864 470.199 331.359C470.03 330.854 470.124 330.329 470.471 329.852C470.817 329.374 471.4 328.965 472.146 328.676C472.891 328.387 473.766 328.231 474.659 328.228C475.552 328.225 476.424 328.375 477.164 328.659C477.904 328.943 478.478 329.349 478.815 329.824C479.153 330.299 479.237 330.823 479.057 331.33C478.878 331.836 478.443 332.302 477.808 332.669C476.956 333.161 475.805 333.439 474.607 333.443C473.41 333.447 472.264 333.176 471.422 332.69Z" fill="white"/>
<g opacity="0.12" filter="url(#filter3_f_3563_11009)">
<path d="M360.362 352.166C364.436 349.814 371.041 349.814 375.114 352.166L443.344 391.558C447.418 393.91 447.418 397.723 443.344 400.075L375.114 439.468C371.041 441.82 364.436 441.82 360.362 439.468L292.133 400.075C288.059 397.723 288.059 393.91 292.133 391.558L360.362 352.166Z" fill="#141A1F"/>
</g>
<path d="M360.362 347.907C364.436 345.555 371.041 345.555 375.114 347.907L443.344 387.299C447.418 389.651 447.418 393.465 443.344 395.817L375.114 435.209C371.041 437.561 364.436 437.561 360.362 435.209L292.133 395.817C288.059 393.465 288.059 389.651 292.133 387.299L360.362 347.907Z" fill="white"/>
<path d="M336.823 395.645C337.174 395.388 337.292 395.099 337.176 394.779C337.061 394.458 336.76 394.157 336.273 393.876C335.916 393.67 335.547 393.523 335.165 393.436C334.785 393.349 334.419 393.322 334.068 393.352C333.72 393.384 333.418 393.473 333.161 393.622C332.946 393.746 332.812 393.882 332.76 394.03C332.713 394.178 332.719 394.329 332.78 394.481C332.843 394.633 332.93 394.779 333.043 394.919C333.158 395.058 333.271 395.182 333.381 395.291L333.978 395.89C334.133 396.043 334.29 396.221 334.45 396.425C334.612 396.631 334.727 396.85 334.795 397.083C334.869 397.316 334.853 397.552 334.748 397.791C334.643 398.03 334.402 398.258 334.025 398.476C333.59 398.727 333.084 398.888 332.505 398.959C331.928 399.032 331.319 399.002 330.678 398.871C330.039 398.741 329.41 398.497 328.792 398.14C328.215 397.808 327.809 397.466 327.574 397.115C327.341 396.766 327.27 396.425 327.362 396.094C327.456 395.765 327.707 395.464 328.116 395.191L329.122 395.772C328.844 395.963 328.695 396.167 328.674 396.385C328.658 396.602 328.739 396.819 328.917 397.033C329.101 397.248 329.352 397.448 329.672 397.632C330.044 397.847 330.438 398.005 330.854 398.106C331.274 398.206 331.678 398.243 332.069 398.218C332.461 398.19 332.805 398.092 333.098 397.923C333.365 397.768 333.508 397.6 333.526 397.417C333.545 397.234 333.484 397.042 333.345 396.841C333.207 396.639 333.035 396.435 332.831 396.226L332.124 395.491C331.676 395.024 331.436 394.587 331.405 394.182C331.373 393.777 331.628 393.418 332.171 393.104C332.621 392.844 333.136 392.688 333.715 392.635C334.299 392.582 334.891 392.621 335.491 392.753C336.096 392.884 336.655 393.098 337.168 393.395C337.687 393.694 338.055 394.014 338.273 394.354C338.493 394.693 338.561 395.023 338.477 395.343C338.396 395.666 338.159 395.948 337.766 396.19L336.823 395.645ZM331.651 402.241C331.494 402.15 331.367 402.062 331.27 401.976C331.17 401.891 331.109 401.828 331.085 401.788L332.138 401.452C332.306 401.615 332.484 401.742 332.673 401.833C332.861 401.924 333.092 401.967 333.364 401.964C333.637 401.964 333.982 401.909 334.401 401.797L335.046 401.624L338.881 396.833L339.886 397.414L336.743 401.152L336.806 401.189L343.281 399.374L344.287 399.955L334.81 402.468C334.383 402.581 333.982 402.648 333.608 402.668C333.231 402.689 332.88 402.663 332.555 402.591C332.233 402.519 331.931 402.403 331.651 402.241ZM348.434 403.91L347.365 403.565C347.452 403.454 347.509 403.332 347.538 403.197C347.572 403.063 347.546 402.921 347.46 402.771C347.373 402.621 347.195 402.468 346.925 402.313C346.556 402.099 346.163 401.971 345.747 401.927C345.335 401.883 345 401.936 344.741 402.086C344.51 402.219 344.412 402.372 344.446 402.546C344.48 402.72 344.631 402.936 344.898 403.193L345.574 403.837C345.982 404.224 346.184 404.572 346.179 404.881C346.176 405.188 345.964 405.463 345.542 405.706C345.196 405.906 344.788 406.027 344.316 406.069C343.848 406.113 343.358 406.078 342.847 405.965C342.336 405.851 341.846 405.659 341.377 405.389C340.762 405.033 340.386 404.662 340.25 404.275C340.114 403.888 340.249 403.515 340.655 403.157L341.755 403.538C341.514 403.774 341.429 404.006 341.499 404.234C341.573 404.464 341.799 404.688 342.179 404.908C342.611 405.157 343.046 405.302 343.483 405.343C343.926 405.384 344.277 405.33 344.536 405.18C344.746 405.059 344.848 404.915 344.843 404.749C344.84 404.581 344.722 404.389 344.489 404.173L343.719 403.456C343.297 403.061 343.094 402.71 343.11 402.401C343.131 402.093 343.35 401.818 343.766 401.578C344.107 401.381 344.504 401.262 344.957 401.222C345.413 401.182 345.881 401.215 346.363 401.321C346.848 401.429 347.302 401.605 347.727 401.85C348.324 402.195 348.662 402.541 348.741 402.889C348.822 403.238 348.72 403.578 348.434 403.91ZM347.582 408.971C347.017 408.644 346.663 408.286 346.522 407.896C346.38 407.506 346.434 407.112 346.683 406.714C346.932 406.316 347.357 405.943 347.96 405.596C348.573 405.242 349.226 404.995 349.92 404.854C350.62 404.713 351.305 404.684 351.975 404.765C352.651 404.847 353.261 405.045 353.806 405.36C354.23 405.605 354.534 405.871 354.718 406.158C354.901 406.446 354.96 406.734 354.894 407.023C354.829 407.311 354.634 407.58 354.309 407.828L353.382 407.292C353.586 407.093 353.672 406.861 353.641 406.598C353.615 406.335 353.397 406.086 352.989 405.85C352.627 405.641 352.216 405.512 351.755 405.464C351.299 405.416 350.825 405.446 350.333 405.555C349.846 405.664 349.374 405.85 348.918 406.113C348.452 406.382 348.119 406.659 347.92 406.943C347.724 407.229 347.665 407.505 347.744 407.771C347.825 408.039 348.049 408.278 348.415 408.49C348.656 408.629 348.917 408.731 349.197 408.796C349.478 408.861 349.764 408.888 350.058 408.876C350.351 408.864 350.637 408.811 350.914 408.717L351.842 409.252C351.433 409.428 350.982 409.538 350.49 409.584C350.003 409.629 349.506 409.602 349.001 409.504C348.501 409.406 348.028 409.228 347.582 408.971ZM353.071 412.158C352.689 411.937 352.414 411.696 352.246 411.432C352.081 411.168 352.045 410.903 352.136 410.638C352.23 410.372 352.474 410.126 352.867 409.899C353.213 409.699 353.561 409.577 353.912 409.531C354.266 409.485 354.618 409.491 354.969 409.552C355.32 409.612 355.663 409.705 355.998 409.829C356.339 409.953 356.668 410.085 356.985 410.226C357.399 410.41 357.731 410.561 357.983 410.679C358.239 410.797 358.45 410.869 358.615 410.895C358.783 410.922 358.941 410.892 359.091 410.806L359.122 410.788C359.51 410.564 359.705 410.329 359.707 410.083C359.713 409.838 359.502 409.592 359.075 409.345C358.632 409.09 358.188 408.945 357.743 408.912C357.298 408.879 356.914 408.896 356.592 408.964L356.026 408.275C356.55 408.154 357.045 408.11 357.511 408.143C357.983 408.176 358.415 408.26 358.808 408.393C359.206 408.526 359.557 408.68 359.861 408.855C360.055 408.967 360.254 409.109 360.458 409.282C360.667 409.454 360.819 409.649 360.914 409.867C361.011 410.086 360.995 410.324 360.867 410.579C360.738 410.835 360.434 411.101 359.955 411.378L355.979 413.674L355.052 413.138L355.869 412.666L355.822 412.639C355.628 412.678 355.383 412.699 355.087 412.7C354.791 412.702 354.469 412.663 354.12 412.582C353.772 412.502 353.422 412.361 353.071 412.158ZM354.046 411.759C354.412 411.971 354.794 412.108 355.189 412.17C355.587 412.233 355.964 412.236 356.321 412.179C356.679 412.123 356.985 412.022 357.236 411.877L358.085 411.387C357.998 411.392 357.869 411.367 357.696 411.312C357.528 411.258 357.343 411.189 357.142 411.106C356.945 411.023 356.755 410.94 356.572 410.858C356.394 410.777 356.249 410.711 356.136 410.661C355.864 410.54 355.587 410.44 355.307 410.359C355.032 410.279 354.761 410.242 354.494 410.248C354.232 410.254 353.983 410.325 353.747 410.461C353.425 410.647 353.301 410.857 353.374 411.09C353.452 411.323 353.676 411.546 354.046 411.759ZM366.645 410.54L358.599 415.186L357.671 414.651L365.718 410.005L366.645 410.54ZM369.271 412.056L361.224 416.702L360.297 416.167L368.344 411.521L369.271 412.056Z" fill="#141A1F"/>
<circle r="19.1638" transform="matrix(0.866025 0.5 -0.866025 0.5 376.896 387.262)" fill="#0073E6"/>
<rect width="16.4261" height="13.6884" rx="1.7041" transform="matrix(0.866025 0.5 -0.866025 0.5 375.709 379.733)" fill="white"/>
<rect width="21.2931" height="17.0345" rx="1.7041" transform="matrix(0.866025 0.5 -0.866025 0.5 375.051 377.68)" fill="white"/>
<path d="M375.973 383.535L371.363 384.067L370.441 386.729" stroke="#0073E6" stroke-width="2.13012" stroke-linecap="round" stroke-linejoin="round"/>
<path d="M383.347 387.793L382.425 390.455L377.815 390.987" stroke="#0073E6" stroke-width="2.13012" stroke-linecap="round" stroke-linejoin="round"/>
<path d="M381.504 385.664L372.284 388.858" stroke="#0073E6" stroke-width="2.13012" stroke-linecap="round" stroke-linejoin="round"/>
<g opacity="0.14" filter="url(#filter4_f_3563_11009)">
<circle r="36.1983" transform="matrix(0.866025 0.5 -0.866025 0.5 194.338 442.625)" fill="#00332F"/>
</g>
<path d="M233.413 443.997L233.413 439.632L222.545 439.632C222.096 439.348 221.634 439.068 221.158 438.793C204.818 429.359 178.326 429.359 161.986 438.793C161.51 439.067 161.047 439.347 160.599 439.632L149.732 439.632L149.732 442.923C149.731 443.016 149.731 443.109 149.732 443.202L149.732 443.996L149.762 443.996C150.153 449.864 154.228 455.665 161.986 460.144C178.326 469.578 204.818 469.578 221.158 460.144C228.916 455.665 232.991 449.864 233.381 443.997L233.413 443.997Z" fill="#00665E"/>
<circle r="34.069" transform="matrix(0.866025 0.5 -0.866025 0.5 191.572 439.963)" fill="#00877C"/>
<path d="M206.387 443.547C206.185 443.431 205.97 443.324 205.753 443.22C207.29 441.504 207.905 439.602 207.512 437.779C207.119 435.955 205.737 434.3 203.559 433.042C201.381 431.785 198.515 430.988 195.356 430.761C192.198 430.534 188.904 430.889 185.932 431.776C185.751 431.651 185.567 431.527 185.365 431.41C183.506 430.337 180.914 429.775 178.159 429.849C175.404 429.922 172.712 430.624 170.674 431.8C168.636 432.977 167.42 434.531 167.293 436.122C167.167 437.713 168.139 439.209 169.998 440.282L191.02 452.419C192.878 453.492 195.47 454.054 198.225 453.981C200.98 453.907 203.673 453.205 205.711 452.029C207.748 450.852 208.964 449.298 209.091 447.707C209.218 446.117 208.245 444.62 206.387 443.547Z" fill="white"/>
<path d="M196.182 437.301L198.026 447.947" stroke="#00877C" stroke-width="2.12931" stroke-linecap="round"/>
<path d="M177.742 436.236L196.183 437.301" stroke="#00877C" stroke-width="2.12931" stroke-linecap="round"/>
<circle r="3.19397" transform="matrix(0.866025 0.5 -0.866025 0.5 196.182 437.301)" fill="#00877C" stroke="white" stroke-width="2.12931"/>
<circle r="3.19397" transform="matrix(0.866025 0.5 -0.866025 0.5 177.742 436.236)" fill="#00877C" stroke="white" stroke-width="2.12931"/>
<circle r="3.19397" transform="matrix(0.866025 0.5 -0.866025 0.5 198.027 447.948)" fill="#00877C" stroke="white" stroke-width="2.12931"/>
<path d="M359.841 130.415C364.169 127.916 371.187 127.916 375.515 130.415L539.634 225.169C543.962 227.668 543.962 231.72 539.634 234.219L375.515 328.973C371.187 331.472 364.169 331.472 359.841 328.973L195.721 234.219C191.393 231.72 191.393 227.668 195.721 225.169L359.841 130.415Z" fill="#FFF5D6" stroke="#FFBF00" stroke-width="3.19397" stroke-linejoin="round"/>
<path d="M376.898 295.702L482.008 235.017" stroke="white" stroke-width="3.19397" stroke-linecap="round" stroke-linejoin="round" stroke-dasharray="0.01 6.39"/>
<path d="M253.347 224.37L358.457 163.685" stroke="white" stroke-width="3.19397" stroke-linecap="round" stroke-linejoin="round" stroke-dasharray="0.01 6.39"/>
<path d="M482.009 224.37L376.898 163.685" stroke="white" stroke-width="3.19397" stroke-linecap="round" stroke-linejoin="round" stroke-dasharray="0.01 6.39"/>
<path d="M358.457 295.702L348.314 289.847" stroke="white" stroke-width="3.19397" stroke-linecap="round" stroke-linejoin="round" stroke-dasharray="0.01 7.45"/>
<path d="M263.49 240.873L253.348 235.017" stroke="white" stroke-width="3.19397" stroke-linecap="round" stroke-linejoin="round" stroke-dasharray="0.01 7.45"/>
<rect width="10.6466" height="10.6466" rx="5.32328" transform="matrix(0.866025 0.5 -0.866025 0.5 244.127 224.371)" fill="white" stroke="#FFBF00" stroke-width="3.19397"/>
<rect width="10.6466" height="10.6466" rx="5.32328" transform="matrix(0.866025 0.5 -0.866025 0.5 367.678 295.703)" fill="white" stroke="#FFBF00" stroke-width="3.19397"/>
<rect width="10.6466" height="10.6466" rx="5.32328" transform="matrix(0.866025 -0.5 0.866025 0.5 482.008 229.694)" fill="white" stroke="#FFBF00" stroke-width="3.19397"/>
<path d="M316.034 271.835C315.971 271.318 315.655 270.826 315.122 270.414C315.743 270.604 316.429 270.715 317.135 270.742C317.739 270.752 318.342 270.686 318.902 270.548C319.462 270.409 319.965 270.202 320.376 269.941C322.527 268.7 322.3 267.079 319.729 265.594L313.372 261.924C313.372 261.924 311.944 262.749 311.076 263.25L305.966 266.201C304.772 266.344 303.557 266.412 302.343 266.404C300.273 266.404 298.251 266.087 296.484 265.484C295.694 265.207 295.033 264.826 294.553 264.37C294.141 263.976 293.929 263.522 293.938 263.058C293.948 262.593 294.18 262.137 294.608 261.739C294.704 261.626 294.772 261.645 294.924 261.693C295.076 261.741 295.457 261.911 295.744 262.008C297.193 262.524 298.806 262.872 300.495 263.032C301.617 263.138 302.766 263.133 303.893 263.017C304.563 262.962 305.206 262.821 305.773 262.603C306.249 262.423 306.632 262.173 306.881 261.878C307.13 261.583 307.234 261.256 307.182 260.933C307.106 260.359 306.678 259.823 305.974 259.421C305.283 259.01 304.422 258.708 303.469 258.541C302.019 258.274 300.471 258.215 298.959 258.371C297.714 258.483 296.517 258.742 295.446 259.134C294.377 259.546 293.459 260.076 292.745 260.693C292.467 260.935 292.231 261.192 292.041 261.459C291.545 262.101 291.351 262.804 291.48 263.497C291.608 264.189 292.054 264.845 292.773 265.398C293.477 265.965 294.39 266.434 295.448 266.774C297.392 267.429 299.623 267.758 301.894 267.724C302.5 267.693 303.102 267.635 303.694 267.551L302.171 268.43C301.036 269.086 299.823 269.786 299.823 269.786L306.373 273.568C309.146 275.169 312.158 275.309 314.498 273.958C315.007 273.688 315.408 273.358 315.673 272.991C315.939 272.624 316.062 272.229 316.034 271.835ZM296.228 260.629C296.732 260.397 297.292 260.212 297.89 260.078C299.389 259.717 301.033 259.627 302.604 259.819C303.188 259.888 303.737 260.029 304.214 260.233L304.518 260.408C304.78 260.561 304.975 260.749 305.087 260.955C305.184 261.123 305.165 261.307 305.034 261.47C304.903 261.633 304.669 261.761 304.382 261.83C304.086 261.909 303.772 261.962 303.451 261.987C302.412 262.071 301.36 262.046 300.344 261.912C298.981 261.74 297.691 261.422 296.537 260.976L296.191 260.835C296.047 260.753 296.014 260.733 296.203 260.643L296.228 260.629ZM313.79 265.275L316.564 266.876C317.474 267.402 317.507 267.947 316.716 268.404C316.542 268.513 316.331 268.599 316.096 268.656C315.861 268.714 315.609 268.742 315.356 268.738C315.103 268.735 314.855 268.7 314.63 268.635C314.405 268.571 314.207 268.479 314.051 268.366L311.244 266.745L313.79 265.275ZM308.552 271.687L305.618 269.993L308.646 268.245L311.563 269.929C311.794 270.036 311.982 270.17 312.115 270.323C312.249 270.476 312.324 270.644 312.337 270.817C312.35 270.989 312.3 271.162 312.19 271.323C312.08 271.485 311.913 271.633 311.699 271.756C311.486 271.879 311.23 271.976 310.95 272.039C310.67 272.103 310.371 272.132 310.072 272.124C309.774 272.117 309.483 272.073 309.218 271.996C308.953 271.919 308.72 271.81 308.535 271.677L308.552 271.687Z" fill="black"/>
<path d="M331.725 272.55L326.035 269.265C326.035 269.265 324.59 270.1 323.712 270.606L314.921 275.682C313.966 276.233 312.512 277.073 312.512 277.073L315.673 278.898L320.215 276.275L322.744 277.735C325.83 279.517 329.371 279.575 332.261 277.906C335.152 276.237 334.844 274.351 331.725 272.55ZM325.345 276.049L322.977 274.681L326.418 272.694L328.786 274.062C329.057 274.176 329.277 274.324 329.43 274.496C329.584 274.667 329.666 274.858 329.671 275.053C329.676 275.247 329.603 275.441 329.458 275.619C329.313 275.796 329.101 275.953 328.836 276.077C328.613 276.222 328.338 276.338 328.032 276.416C327.726 276.494 327.395 276.533 327.063 276.53C326.731 276.528 326.405 276.483 326.108 276.4C325.812 276.317 325.551 276.197 325.345 276.049Z" fill="black"/>
<path d="M342.101 281.84L344.765 283.378L347.621 281.729L338.213 276.298L324.69 284.105L327.843 285.926L333.064 282.911L338.594 286.104L341.373 284.499L335.809 281.287L338.476 279.748L342.101 281.84Z" fill="black"/>
<path d="M278.096 256.898C278.617 255.903 279.548 254.992 280.809 254.243C282.071 253.494 283.624 252.932 285.333 252.603L285.659 251.51L284.842 250.522C283.052 250.505 281.305 250.235 279.754 249.735C278.203 249.236 276.894 248.523 275.943 247.659C271.785 248.735 270.005 249.724 269.616 252.946C271.454 255.944 273.615 256.576 278.096 256.898Z" fill="#FFE100"/>
<path d="M288.843 248.974C289.084 247.862 285.641 244.145 280.447 242.716C273.71 240.813 273.003 247.13 278.974 249.474C282.78 250.966 288.418 250.884 288.843 248.974Z" fill="#D9F1FD"/>
<path d="M281.967 246.477L282.134 246.137C281.83 246.092 281.514 246.074 281.199 246.083C280.658 245.82 280.094 245.574 279.509 245.346L279.595 245.296C279.405 244.911 279.354 244.506 279.444 244.105C279.535 243.705 279.765 243.318 280.121 242.967L279.579 242.784L279.02 242.6C278.345 243.289 278.021 244.07 278.087 244.853C277.035 244.524 275.916 244.272 274.753 244.1L274.409 244.825C276.257 245.102 277.983 245.592 279.484 246.265C278.084 246.586 276.863 247.128 275.965 247.829L276.962 248.286C277.851 247.549 279.189 247.03 280.7 246.838C282.595 247.824 284.196 248.984 285.442 250.271L286.572 249.931C285.346 248.643 283.778 247.476 281.924 246.472L281.967 246.477Z" fill="#00AEEF"/>
<path d="M289.883 253.401C290.623 254.424 288.949 258.573 284.66 260.865C279.064 263.862 275.515 257.929 280.179 254.643C283.154 252.546 288.603 251.639 289.883 253.401Z" fill="#D9F1FD"/>
<path d="M283.391 261.225L284.303 260.698C283.801 260.424 283.404 260.092 283.136 259.724C282.867 259.355 282.732 258.957 282.739 258.554L282.612 258.54C283.077 258.221 283.509 257.887 283.907 257.54C284.21 257.49 284.503 257.418 284.779 257.328L284.469 257.03C285.789 255.744 286.761 254.352 287.352 252.903L286.094 252.763C285.48 254.216 284.47 255.608 283.101 256.886C281.562 256.963 280.043 256.697 278.856 256.143L278.148 256.728C279.327 257.25 280.75 257.56 282.245 257.623C281.104 258.527 279.673 259.297 278.032 259.89L278.652 260.505C279.7 260.136 280.669 259.694 281.536 259.191C281.82 259.934 282.463 260.612 283.392 261.146L283.391 261.225Z" fill="#00AEEF"/>
<path d="M303.647 253.36C303.648 253.287 303.623 253.215 303.574 253.149C303.509 253.087 303.42 253.035 303.313 252.998C303.223 252.946 303.117 252.905 303 252.877C302.884 252.851 302.759 252.84 302.634 252.845C300.605 252.877 298.625 252.526 296.998 251.845C297.088 251.406 297.084 250.964 296.987 250.528C296.849 249.962 296.557 249.415 296.121 248.905C297.374 247.899 299.183 247.167 301.241 246.835C301.362 246.811 301.477 246.777 301.584 246.735C301.689 246.694 301.779 246.642 301.85 246.581C301.919 246.518 301.961 246.447 301.973 246.374C301.996 246.3 301.989 246.224 301.951 246.153C301.917 246.082 301.857 246.017 301.776 245.962C301.712 245.9 301.622 245.848 301.515 245.811C301.406 245.775 301.285 245.752 301.159 245.744C301.033 245.736 300.905 245.744 300.783 245.766C298.533 246.13 296.523 246.892 295.04 247.943C294.4 247.485 293.567 247.13 292.618 246.911C291.67 246.691 290.636 246.614 289.612 246.687C289.291 246.718 288.974 246.764 288.664 246.825C286.933 244.88 284.228 243.287 280.894 242.249C278.292 241.522 276.005 241.791 274.792 242.978C273.675 244.062 273.679 245.763 274.776 247.31C273.136 247.646 271.711 248.269 270.702 249.091C269.692 249.913 269.15 250.892 269.152 251.89L265.602 253.317L269.659 254.08C270.06 254.865 270.783 255.579 271.768 256.162C272.103 256.354 272.467 256.528 272.857 256.681C274.121 257.176 275.605 257.454 277.143 257.487C276.942 258.214 277.009 258.955 277.34 259.66C277.671 260.364 278.259 261.018 279.064 261.576L279.165 261.635C280.903 262.578 283.196 262.432 285.388 261.254C288.125 259.675 290.002 257.67 290.777 255.495C291.098 255.502 291.421 255.492 291.74 255.465C292.622 255.377 293.462 255.177 294.198 254.878C294.935 254.579 295.548 254.19 295.994 253.739C296.247 253.493 296.463 253.235 296.638 252.968C298.461 253.626 300.59 253.957 302.76 253.92C302.887 253.919 303.012 253.902 303.128 253.872C303.244 253.842 303.349 253.798 303.436 253.744C303.527 253.692 303.6 253.629 303.649 253.56C303.699 253.492 303.724 253.418 303.724 253.345L303.647 253.36ZM287.031 253.024C286.505 254.098 285.791 255.14 284.899 256.134C284.114 256.39 283.229 256.522 282.335 256.516C281.442 256.51 280.572 256.366 279.816 256.1C280.093 255.706 280.467 255.336 280.925 255.002C281.666 254.453 282.589 253.995 283.639 253.655C284.688 253.315 285.843 253.1 287.031 253.024ZM284.448 252.209C282.882 252.551 281.456 253.082 280.266 253.767C279.377 253.365 278.808 252.772 278.685 252.119C278.597 251.802 278.619 251.477 278.75 251.162C278.882 250.848 279.119 250.55 279.45 250.286C280.917 250.737 282.542 250.997 284.213 251.05C284.224 251.437 284.311 251.82 284.474 252.194L284.448 252.209ZM282.842 247.218C284.124 248.027 285.264 248.908 286.244 249.848C285.07 249.987 283.865 249.986 282.702 249.845C281.539 249.705 280.443 249.428 279.48 249.032C278.879 248.796 278.339 248.511 277.877 248.186C278.489 247.791 279.274 247.497 280.145 247.337C281.017 247.177 281.943 247.156 282.823 247.277L282.842 247.218ZM283.685 244.785C286.441 246.376 288.041 248.382 287.912 248.934C287.882 249.079 287.795 249.219 287.658 249.343C287.525 249.469 287.342 249.574 287.125 249.651C286.263 248.823 285.277 248.041 284.177 247.314C283.02 246.548 281.715 245.861 280.287 245.267C279.943 244.651 280.004 243.979 280.457 243.378C281.65 243.76 282.739 244.238 283.693 244.799L283.685 244.785ZM276.469 243.519C277.11 242.896 278.176 242.786 279.669 243.151C279.272 243.694 279.109 244.283 279.196 244.865C278.215 244.523 277.165 244.25 276.068 244.052C276.146 243.875 276.267 243.704 276.426 243.544L276.469 243.519ZM275.958 244.515C278.197 244.98 280.229 245.72 281.914 246.683C281.083 246.68 280.257 246.777 279.487 246.966C278.718 247.156 278.021 247.435 277.441 247.786C276.314 246.826 275.782 245.67 275.932 244.501L275.958 244.515ZM274.024 255.706C273.222 255.363 272.558 254.925 272.072 254.42C271.587 253.916 271.292 253.357 271.206 252.778C270.778 250.932 272.031 248.924 275.688 248.243C275.847 248.395 276.032 248.541 276.216 248.688C275.489 249.222 274.957 249.834 274.652 250.487C274.348 251.14 274.278 251.82 274.447 252.484C274.684 253.567 275.531 254.569 276.858 255.336C277.174 255.518 277.515 255.686 277.879 255.836C277.766 255.999 277.669 256.162 277.581 256.329C276.305 256.327 275.065 256.109 274.016 255.701L274.024 255.706ZM279.502 259.941C278.846 258.845 278.861 257.645 279.544 256.539C280.253 256.767 281.038 256.909 281.852 256.955C282.665 257.001 283.489 256.95 284.274 256.806C283.072 258.039 281.433 259.115 279.467 259.961L279.502 259.941ZM280.491 260.791C280.272 260.666 280.075 260.529 279.903 260.382C280.86 259.991 281.74 259.538 282.523 259.034C282.704 259.604 283.121 260.138 283.739 260.59C282.468 261.197 281.369 261.268 280.491 260.791ZM284.384 260.247C283.677 259.75 283.31 259.118 283.351 258.469C284.457 257.648 285.398 256.758 286.156 255.817C286.888 254.93 287.48 254.009 287.925 253.063C288.169 253.099 288.396 253.166 288.586 253.26C288.776 253.355 288.926 253.473 289.022 253.608C289.521 254.293 288.221 258.022 284.384 260.247Z" fill="black"/>
<rect x="-9.51876e-08" y="1.59698" width="207.608" height="207.608" rx="9.04957" transform="matrix(0.866025 0.5 -0.866025 0.5 369.063 55.8893)" fill="white" stroke="#E0E5EB" stroke-width="3.19397"/>
<path opacity="0.8" d="M367.678 58.2842L367.678 262.698" stroke="#E0E5EB" stroke-width="1.06466"/>
<path opacity="0.8" d="M544.705 160.491L190.65 160.491" stroke="#E0E5EB" stroke-width="1.06466"/>
<circle r="80.9138" transform="matrix(0.866025 0.5 -0.866025 0.5 367.678 160.491)" fill="white"/>
<circle r="80.3815" transform="matrix(0.866025 0.5 -0.866025 0.5 367.678 160.491)" stroke="#E0E5EB" stroke-opacity="0.8" stroke-width="1.06466"/>
<circle r="63.8793" transform="matrix(0.866025 0.5 -0.866025 0.5 367.678 160.491)" fill="white" stroke="#E0E5EB" stroke-opacity="0.8" stroke-width="2.12931" stroke-linecap="round" stroke-dasharray="0.01 5.32"/>
<circle r="5.32328" transform="matrix(0.866025 0.5 -0.866025 0.5 367.68 231.823)" fill="white" stroke="#0073E5" stroke-width="3.19397" stroke-linejoin="round"/>
<circle r="5.32328" transform="matrix(0.866025 0.5 -0.866025 0.5 491.23 160.491)" fill="white" stroke="#0073E5" stroke-width="3.19397" stroke-linejoin="round"/>
<circle r="5.32328" transform="matrix(0.866025 0.5 -0.866025 0.5 367.68 89.1592)" fill="white" stroke="#0073E5" stroke-width="3.19397" stroke-linejoin="round"/>
<circle r="5.32328" transform="matrix(0.866025 0.5 -0.866025 0.5 244.129 160.491)" fill="white" stroke="#0073E5" stroke-width="3.19397" stroke-linejoin="round"/>
<path d="M386.191 157.426L372.882 149.743L354.389 152.703L349.352 163.292L362.689 170.993L381.031 168.084L386.191 157.426ZM364.12 168.119L354.326 162.464L357.965 154.731L371.451 152.581L381.246 158.236L377.522 166.022L364.12 168.119Z" fill="#141A1F"/>
<path d="M357.932 154.744L354.326 162.462L364.121 168.117L377.519 166.053L381.332 158.18L371.537 152.525L357.932 154.744Z" fill="#E83030"/>
<path d="M361.091 171.918L347.782 164.234L329.321 167.177L324.283 177.766L337.621 185.466L355.962 182.558L361.091 171.918ZM338.931 182.662L329.136 177.007L332.775 169.275L346.262 167.124L356.057 172.779L352.332 180.566L338.931 182.662Z" fill="#141A1F"/>
<path d="M332.859 169.219L329.135 177.005L338.929 182.66L352.447 180.528L356.141 172.724L346.346 167.069L332.859 169.219Z" fill="#6B91C7"/>
<path d="M411.384 142.881L398.075 135.198L379.582 138.158L374.576 148.765L387.913 156.465L406.255 153.557L411.384 142.881ZM389.314 153.574L379.519 147.919L383.158 140.186L396.732 137.985L406.527 143.64L402.802 151.427L389.314 153.574Z" fill="#141A1F"/>
<path d="M383.125 140.199L379.52 147.917L389.314 153.572L402.713 151.508L406.525 143.635L396.731 137.98L383.125 140.199Z" fill="#F9C31F"/>
<path d="M395.2 177.222L381.998 169.599L363.535 172.577L358.498 183.167L371.835 190.867L390.177 187.959L395.2 177.222ZM373.08 187.943L363.285 182.288L366.92 174.553L380.407 172.403L390.202 178.058L386.477 185.845L373.08 187.943Z" fill="#141A1F"/>
<path d="M366.875 174.555L363.31 182.33L373.078 187.969L386.594 185.939L390.318 178.016L380.551 172.376L366.875 174.555Z" fill="#795AA5"/>
<path d="M420.39 162.678L407.187 155.056L388.846 157.964L383.809 168.554L397.146 176.254L415.487 173.346L420.39 162.678ZM398.29 173.388L388.496 167.733L392.131 159.998L405.617 157.848L415.412 163.503L411.687 171.289L398.29 173.388Z" fill="#141A1F"/>
<path d="M392.107 159.987L388.349 167.784L398.196 173.468L411.711 171.438L415.436 163.515L405.59 157.83L392.107 159.987Z" fill="#F17423"/>
<path d="M351.787 152.158L338.564 144.524L320.102 147.502L315.065 158.091L328.402 165.792L346.744 162.883L351.787 152.158ZM329.686 162.868L320.009 157.282L323.644 149.547L337.131 147.397L346.926 153.052L343.201 160.838L329.686 162.868Z" fill="#141A1F"/>
<path d="M323.649 149.546L320.014 157.281L329.69 162.867L343.206 160.837L346.93 152.914L337.254 147.327L323.649 149.546Z" fill="#97C639"/>
<path d="M376.981 137.613L363.758 129.979L345.416 132.887L340.379 143.477L353.716 151.177L372.058 148.269L376.981 137.613ZM354.879 148.323L345.203 142.737L348.838 135.002L362.324 132.852L372.119 138.507L368.394 146.293L354.879 148.323Z" fill="#141A1F"/>
<path d="M348.84 135.001L345.205 142.736L354.882 148.322L368.397 146.292L372.122 138.369L362.445 132.782L348.84 135.001Z" fill="#C9DB70"/>
<path d="M232.143 134.94L195.723 155.967C191.395 158.466 191.395 162.517 195.723 165.016L232.143 186.043" stroke="#0073E5" stroke-width="3.19397" stroke-linecap="round" stroke-linejoin="round"/>
<path d="M411.936 238.744L375.516 259.771C371.187 262.27 364.17 262.27 359.842 259.771L323.422 238.744" stroke="#0073E5" stroke-width="3.19397" stroke-linecap="round" stroke-linejoin="round"/>
<path d="M503.217 186.043L539.637 165.016C543.965 162.517 543.965 158.465 539.637 155.966L503.217 134.94" stroke="#0073E5" stroke-width="3.19397" stroke-linecap="round" stroke-linejoin="round"/>
<path d="M323.424 82.2393L359.844 61.2123C364.172 58.7134 371.19 58.7133 375.518 61.2123L411.938 82.2393" stroke="#0073E5" stroke-width="3.19397" stroke-linecap="round" stroke-linejoin="round"/>
</g>
<path opacity="0.4" d="M191 330L191 165" stroke="#A7B1BE" stroke-linecap="round" stroke-linejoin="round" stroke-dasharray="0.01 6"/>
<path opacity="0.4" d="M368 433L368 266" stroke="#A7B1BE" stroke-linecap="round" stroke-linejoin="round" stroke-dasharray="0.01 6"/>
<path opacity="0.4" d="M544 329L544 166" stroke="#A7B1BE" stroke-linecap="round" stroke-linejoin="round" stroke-dasharray="0.01 6"/>
</g>
<defs>
<filter id="filter0_f_3563_11009" x="489.884" y="404.416" width="115.337" height="77.3779" filterUnits="userSpaceOnUse" color-interpolation-filters="sRGB">
<feFlood flood-opacity="0" result="BackgroundImageFix"/>
<feBlend mode="normal" in="SourceGraphic" in2="BackgroundImageFix" result="shape"/>
<feGaussianBlur stdDeviation="6.38793" result="effect1_foregroundBlur_3563_11009"/>
</filter>
<filter id="filter1_f_3563_11009" x="183.893" y="286.523" width="172.225" height="105.735" filterUnits="userSpaceOnUse" color-interpolation-filters="sRGB">
<feFlood flood-opacity="0" result="BackgroundImageFix"/>
<feBlend mode="normal" in="SourceGraphic" in2="BackgroundImageFix" result="shape"/>
<feGaussianBlur stdDeviation="3.72629" result="effect1_foregroundBlur_3563_11009"/>
</filter>
<filter id="filter2_f_3563_11009" x="379.36" y="286.523" width="172.225" height="105.735" filterUnits="userSpaceOnUse" color-interpolation-filters="sRGB">
<feFlood flood-opacity="0" result="BackgroundImageFix"/>
<feBlend mode="normal" in="SourceGraphic" in2="BackgroundImageFix" result="shape"/>
<feGaussianBlur stdDeviation="3.72629" result="effect1_foregroundBlur_3563_11009"/>
</filter>
<filter id="filter3_f_3563_11009" x="281.626" y="342.949" width="172.225" height="105.735" filterUnits="userSpaceOnUse" color-interpolation-filters="sRGB">
<feFlood flood-opacity="0" result="BackgroundImageFix"/>
<feBlend mode="normal" in="SourceGraphic" in2="BackgroundImageFix" result="shape"/>
<feGaussianBlur stdDeviation="3.72629" result="effect1_foregroundBlur_3563_11009"/>
</filter>
<filter id="filter4_f_3563_11009" x="137.228" y="404.252" width="114.22" height="76.7441" filterUnits="userSpaceOnUse" color-interpolation-filters="sRGB">
<feFlood flood-opacity="0" result="BackgroundImageFix"/>
<feBlend mode="normal" in="SourceGraphic" in2="BackgroundImageFix" result="shape"/>
<feGaussianBlur stdDeviation="6.38793" result="effect1_foregroundBlur_3563_11009"/>
</filter>
<clipPath id="clip0_3563_11009">
<rect width="741" height="556.815" fill="white" transform="translate(0 0.260254)"/>
</clipPath>
<clipPath id="clip1_3563_11009">
<rect width="1348.92" height="995.453" fill="white" transform="matrix(0.866025 0.5 -0.866025 0.5 138.094 -280.809)"/>
</clipPath>
</defs>
</svg>
