<?xml version="1.0" encoding="utf-8"?>
<!-- Generator: Adobe Illustrator 25.2.3, SVG Export Plug-In . SVG Version: 6.00 Build 0)  -->
<svg version="1.1" id="Layer_1" xmlns="http://www.w3.org/2000/svg" xmlns:xlink="http://www.w3.org/1999/xlink" x="0px" y="0px"
	 width="682px" height="413px" viewBox="0 0 682 413" style="enable-background: new 0 0 682 413;" xml:space="preserve">
<style type="text/css">
  .st0 { fill: url(#SVGID_1_); }
  .st1 { fill: #38f; }
  .st2 { fill: #fff; }
  .st3 { fill: #e1e5ea; }
  .st4 { fill: #f6f7f8; }
  .st5 { fill: #9ea5b0; }
  .st6 { fill: #a5acb8; }
  .st7 { fill: #fff5d6; }
  .st8 { fill: #ffbf00; }
  .st9 { fill: #f9c515; }
  .st10 { fill: #d6e7ff; }
  .st11 { fill: #020202; }
  .st12 { fill: #151a1f; }
  .st13 { fill: #cadd72; }
  .st14 { fill: #f17423; }
  .st15 { fill: #97c93d; }
  .st16 { fill: #e82429; }
  .st17 { fill: #8061a9; }
  .st18 { fill: #0080ff; }
  .st19 { fill: #989faa; }
  .st20 { enable-background: new; }
</style>
<radialGradient id="SVGID_1_" cx="341" cy="206.5" r="330.8558" gradientTransform="matrix(1 0 0 0.6242 0 77.6061)" gradientUnits="userSpaceOnUse">
	<stop  offset="0.8543" style="stop-color: #f6f7f8;"/>
	<stop  offset="0.9923" style="stop-color: #f6f7f8; stop-opacity: 5.255246e-02;"/>
	<stop  offset="1" style="stop-color: #f6f7f8; stop-opacity: 0;"/>
</radialGradient>
<path class="st0" d="M627.8,34.4l40.8-6.3l13.5,7.8v-1.2L669,27.2l-0.2-0.1l-41.2,6.4L598,16.4l7.3-15.7h-1.1L597,16.1l-20.4,3.2
	l-20.4,3.2L526.5,5.3l2.2-4.7h-1.1l-2.1,4.4l-20.4,3.2l-20.4,3.2L466.2,0.6h-2L484,12.1l-10.7,23.1l-20.4,3.2l-20.4,3.2l-29.6-17.1
	l5.4-11.6l5.4-11.6l4.3-0.7h-6.1l0.7,0.4l-10.7,23.1l-20.4,3.2l-20.4,3.2l-29.6-17.1l5.4-11.6l0.6-1.2h-1.1l-0.4,0.9l-5.4,11.6
	l-20.4,3.2l-20.4,3.2L260.1,2.3l0.8-1.7h-1.1l-0.7,1.5l-20.4,3.2l-20.4,3.1l-13.5-7.8h-2l14.7,8.5l-10.7,23.1l-20.4,3.2L166,38.6
	l-29.6-17.1l9.7-20.8H145l-9.6,20.6L115,24.4l-20.4,3.2L65,10.4l4.5-9.8h-1.1L64,10.2l-41.2,6.4l-11,23.8l-11.9,1.8v1L12,41.3
	l29.6,17.1L36.2,70l-5.4,11.6l-20.4,3.2l-10.6,1.6v1l10.8-1.7l20.4-3.1l29.6,17.1l-5.4,11.6L50,122.8L29.6,126l-20.4,3.2l-9.3-5.4
	v1.1l8.6,5l-8.6,18.5v2.4l9.6-20.6l20.4-3.1l20.4-3.2l29.6,17.1l-5.4,11.6L69.1,164l-20.4,3.2l-20.4,3.1l-28.5-16.4v1.2l27.7,16
	l-10.7,23.1l-17,2.6v1l17.2-2.7l29.6,17.1l-5.4,11.6L36,235.5l-20.4,3.1L-0.1,241v1l16-2.5l20.4-3.2l29.6,17.1l-5.4,11.6l-5.4,11.6
	l-20.4,3.2L14.3,283l-14.5-8.4v1.2l13.7,7.9L2.9,306.8l-3,0.5v1l3.2-0.5l29.6,17.1l-5.4,11.6L22,348.1l-20.4,3.2l-1.7,0.3v1l2-0.3
	l20.4-3.2l29.6,17.1l-5.4,11.6l-5.4,11.6l-20.4,3.2l-20.4,3.2l-0.5-0.3v2.8l0.7-1.5l20.4-3.2l20.4-3.2L71,407.4l-2.3,5h1.1l2.2-4.7
	l20.4-3.1l20.4-3.2l19.1,11.1h2l-20.4-11.8l5.4-11.6l5.4-11.6l20.4-3.1l20.4-3.2l29.6,17.1l-5.4,11.6l-5.4,11.6l-6.3,1h8.5l-1.2-0.7
	l5.4-11.6l5.4-11.6l20.4-3.1l20.4-3.2l29.6,17.1l-5.4,11.6l-0.7,1.5h1.1l0.6-1.2l5.4-11.6l20.4-3.2l20.4-3.1l29.6,17.1l-0.9,2h1.1
	l0.8-1.8l20.4-3.2l20.4-3.1l14,8.1h2l-15.3-8.8l10.7-23.1l20.4-3.2l20.4-3.1l29.6,17.1l-5.4,11.6l-4.5,9.6h1.1l4.3-9.3l5.4-11.6
	l20.4-3.1l20.4-3.2l29.6,17.1l-4.7,10.1h1.1l4.6-9.9l20.4-3.1l20.4-3.2l28,16.2h2l-29.3-16.9l5.4-11.6l5.4-11.6l20.4-3.1l20.4-3.2
	l29.6,17.1l-10.7,23.1l-20.4,3.2l-19,2.9h6.6l12.7-2l20.4-3.2l8.9,5.1h2l-10.1-5.9l10.7-23.1l20.4-3.2l4.5-0.7v-1l-4.8,0.7
	l-20.4,3.2l-29.6-17.1l5.4-11.6l5.4-11.6l20.4-3.1l20.4-3.2l3.3,1.9v-1.2l-2.5-1.5l2.5-5.4v-2.4l-3.5,7.6l-20.4,3.1l-20.4,3.2
	l-29.6-17.1l10.7-23.1l20.4-3.2l20.4-3.1l22.4,12.9v-1.2l-21.7-12.5l5.4-11.6l5.4-11.6l10.9-1.7v-1l-11.2,1.7l-29.6-17.1l5.4-11.6
	l5.4-11.6l20.4-3.1l9.7-1.5v-1l-9.9,1.5l-20.4,3.2l-29.6-17.1l10.7-23.1l20.4-3.2l20.4-3.1l8.4,4.8v-1.2l-7.6-4.4l7.6-16.5v-2.4
	l-3.3,7.1l-5.4,11.6l-20.4,3.2l-20.4,3.2l-29.6-17.1l5.4-11.6l5.4-11.6l20.4-3.2l20.4-3.2l27.5,15.9v-1.2L655.3,140l5.4-11.6
	l5.4-11.6l16.1-2.5v-1l-16.3,2.5l-29.6-17.1L647,75.7l20.4-3.2l14.8-2.3v-1l-15,2.3l-20.4,3.2l-29.6-17.1l5.4-11.6L627.8,34.4z
	 M485,12.3l20.4-3.2L525.8,6l29.6,17.1l-5.4,11.6l-5.4,11.6l-20.4,3.2l-20.4,3.2l-29.6-17.1L485,12.3z M295.1,174.3l20.4-3.2
	l20.4-3.2l29.6,17.1l-10.7,23.1l-20.4,3.2l-20.4,3.2l-29.6-17.1L295.1,174.3z M294.8,173.3l-29.6-17.1l5.4-11.6l5.4-11.6l20.4-3.2
	l20.4-3.2l29.6,17.1L335.6,167l-20.4,3.2L294.8,173.3z M313.2,215.3l-5.4,11.6l-5.4,11.6l-20.4,3.2l-20.4,3.2l-29.6-17.1l10.7-23.1
	l20.4-3.2l20.4-3.2L313.2,215.3z M261.9,245.7l20.4-3.2l20.4-3.2l29.6,17.1l-5.4,11.6l-5.4,11.6l-20.4,3.2l-20.4,3.2l-29.6-17.1
	l5.4-11.6L261.9,245.7z M303.5,238.7l5.4-11.6l5.4-11.6l40.8-6.3l29.6,17.1l-5.4,11.6l-5.4,11.6l-20.4,3.2l-20.4,3.2L303.5,238.7z
	 M380.2,238.1l5.4-11.6l20.4-3.2l20.4-3.2l29.6,17.1l-10.7,23.1l-20.4,3.2l-20.4,3.2l-29.6-17.1L380.2,238.1z M426.1,219.3
	l-20.4,3.2l-20.4,3.2l-29.6-17.1l10.7-23.1l20.4-3.2l20.4-3.2l29.6,17.1l-5.4,11.6L426.1,219.3z M407,178l-20.4,3.2l-20.4,3.2
	l-29.6-17.1l10.7-23.1l20.4-3.2l20.4-3.2l29.6,17.1L407,178z M387.9,136.8l-20.4,3.2l-20.4,3.2L317.5,126l5.4-11.6l5.4-11.6
	l20.4-3.2l20.4-3.2l29.6,17.1L387.9,136.8z M321.8,114.2l-5.4,11.6l-20.4,3.2l-20.4,3.2L246.1,115l5.4-11.6l5.4-11.6l20.4-3.2
	l20.4-3.2l29.6,17.1L321.8,114.2z M274.9,132.8l-5.4,11.6l-5.4,11.6l-20.4,3.2l-20.4,3.2l-29.6-17.1l10.7-23.1l20.4-3.2l20.4-3.2
	L274.9,132.8z M223.7,163.2l20.4-3.2l20.4-3.2l29.6,17.1l-10.7,23.1l-20.4,3.2l-20.4,3.2l-29.6-17.1L223.7,163.2z M241.8,204.2
	l-10.7,23.1l-20.4,3.2l-20.4,3.2l-29.6-17.1l10.7-23.1l20.4-3.2l20.4-3.2L241.8,204.2z M190.5,234.6l20.4-3.2l20.4-3.2l29.6,17.1
	l-5.4,11.6l-5.4,11.6l-20.4,3.2l-20.4,3.2l-29.6-17.1L190.5,234.6z M209.7,275.9l20.4-3.2l20.4-3.2l29.6,17.1l-10.7,23.1l-20.4,3.2
	l-20.4,3.2L198.9,299l5.4-11.6L209.7,275.9z M281.1,286.9l20.4-3.2l20.4-3.2l29.6,17.1l-10.7,23.1l-20.4,3.2l-20.4,3.2l-29.6-17.1
	L281.1,286.9z M322.6,279.9l10.7-23.1l20.4-3.2l20.4-3.2l29.6,17.1L393,290.7l-20.4,3.2l-20.4,3.2L322.6,279.9z M399.4,279.4
	l5.4-11.6l20.4-3.2l20.4-3.2l29.6,17.1l-5.4,11.6l-5.4,11.6l-20.4,3.2l-20.4,3.2L394,290.9L399.4,279.4z M446.3,260.8l10.7-23.1
	l20.4-3.2l20.4-3.2l29.6,17.1l-5.4,11.6l-5.4,11.6l-20.4,3.2l-20.4,3.2L446.3,260.8z M497.6,230.3l-20.4,3.2l-20.4,3.2l-29.6-17.1
	l5.4-11.6l5.4-11.6l20.4-3.2l20.4-3.2l29.6,17.1L497.6,230.3z M478.4,189.1l-20.4,3.2l-20.4,3.2L408,178.3l5.4-11.6l5.4-11.6
	l20.4-3.2l20.4-3.2l29.6,17.1l-5.4,11.6L478.4,189.1z M459.3,147.9l-20.4,3.2l-20.4,3.2l-29.6-17.1l5.4-11.6l5.4-11.6l20.4-3.2
	l20.4-3.2l29.6,17.1L459.3,147.9z M441.1,106.9l5.4-11.6l5.4-11.6l20.4-3.2l20.4-3.2l29.6,17.1l-5.4,11.6l-5.4,11.6l-20.4,3.2
	l-20.4,3.2L441.1,106.9z M445.5,95.1l-5.4,11.6l-20.4,3.2l-20.4,3.2l-29.6-17.1l5.4-11.6l5.4-11.6l20.4-3.2l20.4-3.2l29.6,17.1
	L445.5,95.1z M374.1,84l-5.4,11.6l-20.4,3.2l-20.4,3.2l-29.6-17.1l10.7-23.1l20.4-3.2l20.4-3.2l29.6,17.1L374.1,84z M297.3,84.5
	L277,87.7l-20.4,3.2l-29.6-17.1l10.7-23.1l20.4-3.2l20.4-3.2l29.6,17.1L297.3,84.5z M255.8,91.6l-10.7,23.1l-20.4,3.2l-20.4,3.2
	l-29.6-17.1l10.7-23.1l20.4-3.2l20.4-3.2L255.8,91.6z M173.7,103.7l-20.4,3.2l-20.4,3.2l-29.6-17.1l5.4-11.6l5.4-11.6l20.4-3.2
	l20.4-3.2l29.6,17.1L173.7,103.7z M133.1,111l20.4-3.2l20.4-3.2l29.6,17.1l-10.7,23.1l-20.4,3.2l-20.4,3.1l-29.6-17.1L133.1,111z
	 M152.2,152.2l20.4-3.2l20.4-3.2l29.6,17.1l-5.4,11.6l-5.4,11.6l-20.4,3.2l-20.4,3.2l-29.6-17.1l5.4-11.6L152.2,152.2z M170.4,193.2
	l-10.7,23.1l-20.4,3.2l-20.4,3.2l-29.6-17.1l5.4-11.6l5.4-11.6l20.4-3.2l20.4-3.2L170.4,193.2z M119.1,223.6l20.4-3.2l20.4-3.2
	l29.6,17.1l-10.7,23.1l-20.4,3.2l-20.4,3.1l-29.6-17.1L119.1,223.6z M138.2,264.8l20.4-3.2l20.4-3.2l29.6,17.1l-5.4,11.6l-5.4,11.6
	l-20.4,3.2l-20.4,3.2L127.5,288l5.4-11.6L138.2,264.8z M156.4,305.8l-10.7,23.1l-20.4,3.2l-20.4,3.2l-29.6-17.1l5.4-11.6L86,295
	l20.4-3.2l20.4-3.2L156.4,305.8z M157.4,306l20.4-3.2l20.4-3.2l29.6,17.1l-5.4,11.6l-5.4,11.6l-20.4,3.2l-20.4,3.2l-29.6-17.1
	L157.4,306z M228.8,317.1l20.4-3.2l20.4-3.2l29.6,17.1l-5.4,11.6l-5.4,11.6l-20.4,3.2l-20.4,3.2l-29.6-17.1L228.8,317.1z
	 M294.8,339.7l5.4-11.6l20.4-3.1l20.4-3.2l29.6,17.1l-5.4,11.6l-5.4,11.6l-20.4,3.2l-20.4,3.1l-29.6-17.1L294.8,339.7z M341.7,321.1
	l10.7-23.1l20.4-3.2l20.4-3.2l29.6,17.1l-5.4,11.6l-5.4,11.6l-20.4,3.2l-20.4,3.2L341.7,321.1z M418.5,320.6l5.4-11.6l20.4-3.2
	l20.4-3.2l29.6,17.1L483.6,343l-20.4,3.2l-20.4,3.2l-29.6-17.1L418.5,320.6z M495.3,320.1l20.4-3.2l20.4-3.1l29.6,17.1L555,354
	l-20.4,3.2l-20.4,3.2l-29.6-17.1L495.3,320.1z M535.8,312.8l-20.4,3.2l-20.4,3.1L465.4,302l5.4-11.6l5.4-11.6l20.4-3.1l20.4-3.2
	l29.6,17.1l-5.4,11.6L535.8,312.8z M517.7,271.8l5.4-11.6l5.4-11.6l20.4-3.1l20.4-3.2l29.6,17.1l-5.4,11.6l-5.4,11.6l-20.4,3.2
	l-20.4,3.2L517.7,271.8z M569,241.4l-20.4,3.2l-20.4,3.2l-29.6-17.1l10.7-23.1l20.4-3.2l20.4-3.1l29.6,17.1L569,241.4z M549.8,200.1
	l-20.4,3.2l-20.4,3.2l-29.6-17.1l5.4-11.6l5.4-11.6l20.4-3.2l20.4-3.2l29.6,17.1l-5.4,11.6L549.8,200.1z M530.7,158.9l-20.4,3.2
	l-20.4,3.2l-29.6-17.1L471,125l20.4-3.2l20.4-3.2l29.6,17.1l-5.4,11.6L530.7,158.9z M512.5,117.9l10.7-23.1l20.4-3.2l20.4-3.1
	l29.6,17.1L583,128.7l-20.4,3.2l-20.4,3.2L512.5,117.9z M563.8,87.5l-20.4,3.2L523,93.8l-29.6-17.1l5.4-11.6l5.4-11.6l20.4-3.2
	l20.4-3.2l29.6,17.1L563.8,87.5z M432.7,42.5l20.4-3.2l20.4-3.2l29.6,17.1l-5.4,11.6l-5.4,11.6L472,79.6l-20.4,3.2L422,65.7
	l5.4-11.6L432.7,42.5z M361.3,31.5l20.4-3.2l20.4-3.2l29.6,17.1L421,65.4l-20.4,3.2l-20.4,3.2l-29.6-17.1L361.3,31.5z M289.9,20.4
	l20.4-3.2l20.4-3.2l29.6,17.1l-10.7,23.1l-20.4,3.2l-20.4,3.2l-29.6-17.1l5.4-11.6L289.9,20.4z M218.5,9.4l20.4-3.2l20.4-3.2
	L289,20.2l-5.4,11.6l-5.4,11.6l-20.4,3.2l-20.4,3.2l-29.6-17.1L218.5,9.4z M166.3,39.6l20.4-3.2l20.4-3.2l29.6,17.1l-5.4,11.6
	l-5.4,11.6l-20.4,3.1l-20.4,3.2l-29.6-17.1l5.4-11.6L166.3,39.6z M94.9,28.5l20.4-3.2l20.4-3.2l29.6,17.1l-5.4,11.6l-5.4,11.6
	l-20.4,3.2l-20.4,3.2L84.1,51.7L94.9,28.5z M12.7,40.6l10.7-23.1l40.8-6.3l29.6,17.1L83.1,51.4l-20.4,3.2l-20.4,3.1L12.7,40.6z
	 M31.8,81.8l5.4-11.6l5.4-11.6L63,55.5l20.4-3.2L113,69.5l-5.4,11.6l-5.4,11.6l-20.4,3.2L61.5,99L31.8,81.8z M51,123.1l5.4-11.6
	l5.4-11.6l20.4-3.2l20.4-3.2l29.6,17.1l-10.7,23.1L101,137l-20.4,3.2L51,123.1z M80.9,141.1l20.4-3.2l20.4-3.2l29.6,17.1l-5.4,11.6
	l-5.4,11.6l-20.4,3.2l-20.4,3.2l-29.6-17.1L80.9,141.1z M17.8,194.5l10.7-23.1l20.4-3.2l20.4-3.2L99,182.1l-5.4,11.6l-5.4,11.6
	l-20.4,3.2l-20.4,3.2L17.8,194.5z M37,235.7l5.4-11.6l5.4-11.6l20.4-3.2l20.4-3.2l29.6,17.1l-10.7,23.1L87,249.6l-20.4,3.2L37,235.7
	z M66.9,253.8l20.4-3.2l20.4-3.2l29.6,17.1l-10.7,23.1l-20.4,3.2L85.7,294l-29.6-17.1L66.9,253.8z M3.8,307.1l5.4-11.6l5.4-11.6
	l20.4-3.2l20.4-3.2L85,294.8l-5.4,11.6l-5.4,11.6L53.9,321l-20.4,3.2L3.8,307.1z M23,348.3l5.4-11.6l5.4-11.6l20.4-3.2l20.4-3.2
	l29.6,17.1l-10.7,23.1L73,362.3l-20.4,3.2L23,348.3z M112.5,400.3l-20.4,3.1l-20.4,3.2l-29.6-17.1l10.7-23.1l20.4-3.2l20.4-3.2
	l29.6,17.1L112.5,400.3z M164.8,370.2l-20.4,3.2l-20.4,3.2l-29.6-17.1l5.4-11.6l5.4-11.6l20.4-3.2l20.4-3.2l29.6,17.1L164.8,370.2z
	 M236.2,381.2l-20.4,3.2l-20.4,3.2l-29.6-17.1l10.7-23.1l20.4-3.2l20.4-3.2l29.6,17.1l-5.4,11.6L236.2,381.2z M307.6,392.3
	l-20.4,3.2l-20.4,3.1l-29.6-17.1l5.4-11.6l5.4-11.6l20.4-3.2l20.4-3.2l29.6,17.1l-5.4,11.6L307.6,392.3z M379,403.3l-20.4,3.2
	l-20.4,3.2l-29.6-17.1l5.4-11.6l5.4-11.6l20.4-3.2l20.4-3.1l29.6,17.1L379,403.3z M431.3,373.1l-20.4,3.2l-20.4,3.1l-29.6-17.1
	l5.4-11.6l5.4-11.6L392,336l20.4-3.2L442,350l-5.4,11.6L431.3,373.1z M502.7,384.2l-20.4,3.1l-20.4,3.2l-29.6-17.1l5.4-11.6
	l5.4-11.6l20.4-3.2l20.4-3.1l29.6,17.1L502.7,384.2z M579.5,383.6l-5.4,11.6l-20.4,3.1l-20.4,3.2l-29.6-17.1l5.4-11.6l5.4-11.6
	l20.4-3.1l20.4-3.2l29.6,17.1L579.5,383.6z M637.1,341.9l-5.4,11.6l-5.4,11.6l-20.4,3.1l-20.4,3.2l-29.6-17.1l5.4-11.6l5.4-11.6
	l20.4-3.2l20.4-3.2L637.1,341.9z M612.6,312.2l-5.4,11.6l-20.4,3.2l-20.4,3.2L536.8,313l5.4-11.6l5.4-11.6l20.4-3.2l20.4-3.2
	l29.6,17.1L612.6,312.2z M670.2,270.5l-5.4,11.6l-5.4,11.6l-20.4,3.2l-20.4,3.2l-29.6-17.1l5.4-11.6l5.4-11.6l20.4-3.2l20.4-3.2
	L670.2,270.5z M651.1,229.3l-5.4,11.6l-5.4,11.6l-20.4,3.2l-20.4,3.2l-29.6-17.1l5.4-11.6l5.4-11.6l20.4-3.2l20.4-3.2L651.1,229.3z
	 M632,188l-10.7,23.1l-20.4,3.2l-20.4,3.2l-29.6-17.1l5.4-11.6l5.4-11.6l20.4-3.2l20.4-3.2L632,188z M607.5,158.4l-5.4,11.6
	l-20.4,3.2l-20.4,3.2l-29.6-17.1l5.4-11.6l5.4-11.6l20.4-3.1l20.4-3.2l29.6,17.1L607.5,158.4z M665.1,116.6l-5.4,11.6l-5.4,11.6
	l-20.4,3.2l-20.4,3.2L584,129l10.7-23.1l20.4-3.2l20.4-3.2L665.1,116.6z M646,75.4l-10.7,23.1l-20.4,3.2l-20.4,3.2l-29.6-17.1
	l5.4-11.6l5.4-11.6l20.4-3.2l20.4-3.2L646,75.4z M616.1,57.3l-20.4,3.2l-20.4,3.2l-29.6-17.1L551,35l5.4-11.6l20.4-3.1l20.4-3.2
	l29.6,17.1l-5.4,11.6L616.1,57.3z"/>
<path class="st1" d="M205.8,133.9l71,41l0.8-1.3l-71-41L205.8,133.9z M159.9,161l46.6-27.1l-0.8-1.3l-46.6,27.1L159.9,161z
	 M276.8,175c0.4,0.2,0.8,0.1,1-0.3s0.1-0.8-0.3-1L276.8,175z M206.2,133.3l0.4-0.6c-0.2-0.1-0.5-0.1-0.8,0L206.2,133.3z
	 M159.2,159.7c-0.4,0.2-0.5,0.7-0.3,1c0.2,0.4,0.7,0.5,1,0.3L159.2,159.7z"/>
<path class="st1" d="M478.2,133.9l55.2,31.9l0.8-1.3l-55.2-31.9L478.2,133.9z M402.8,178.2l76.1-44.3l-0.8-1.3l-76.1,44.3
	L402.8,178.2z M533.4,165.8c0.4,0.2,0.8,0.1,1-0.3c0.2-0.4,0.1-0.8-0.3-1L533.4,165.8z M478.6,133.2l0.4-0.6c-0.2-0.1-0.5-0.1-0.8,0
	L478.6,133.2z M402.1,176.9c-0.4,0.2-0.5,0.7-0.3,1c0.2,0.4,0.7,0.5,1,0.3L402.1,176.9z"/>
<polygon class="st2" points="448.8,240.6 398.2,270 347.4,240.6 397.9,211.2 "/>
<path class="st3" d="M397.5,211.9l50.9,29.4l0.8-1.3l-50.9-29.4L397.5,211.9z M347.7,241.3l50.5-29.4l-0.8-1.3L347,240L347.7,241.3z
	 M398.6,269.4L347.7,240l-0.8,1.3l50.9,29.4L398.6,269.4z M448.4,240l-50.5,29.4l0.8,1.3l50.5-29.4L448.4,240z M397.9,211.2l0.4-0.6
	c-0.2-0.1-0.5-0.1-0.8,0L397.9,211.2z M347.4,240.6L347,240c-0.2,0.1-0.4,0.4-0.4,0.6c0,0.3,0.1,0.5,0.4,0.6L347.4,240.6z
	 M398.2,270l-0.4,0.6c0.2,0.1,0.5,0.1,0.8,0L398.2,270z M448.8,240.6l0.4,0.6c0.2-0.1,0.4-0.4,0.4-0.6c0-0.3-0.1-0.5-0.4-0.6
	L448.8,240.6z"/>
<polygon class="st4" points="398.2,270 398.2,281.3 347.4,251.9 347.4,240.6 "/>
<path class="st3" d="M347,241.3l50.9,29.4l0.8-1.3L347.7,240L347,241.3z M348.1,251.9v-11.2h-1.5v11.2H348.1z M398.6,280.6
	l-50.9-29.4l-0.8,1.3l50.9,29.4L398.6,280.6z M397.5,270v11.2h1.5V270H397.5z M347.4,240.6l0.4-0.6c-0.2-0.1-0.5-0.1-0.8,0
	c-0.2,0.1-0.4,0.4-0.4,0.6H347.4z M347.4,251.9h-0.8c0,0.3,0.1,0.5,0.4,0.6L347.4,251.9z M398.2,281.3l-0.4,0.6
	c0.2,0.1,0.5,0.1,0.8,0c0.2-0.1,0.4-0.4,0.4-0.6H398.2z M398.2,270h0.8c0-0.3-0.1-0.5-0.4-0.6L398.2,270z"/>
<polygon class="st4" points="448.8,240.6 398.2,270 398.2,281.3 448.8,251.9 "/>
<path class="st3" d="M449.5,251.9v-11.2H448v11.2H449.5z M398.6,281.9l50.5-29.4l-0.8-1.3l-50.5,29.4L398.6,281.9z M397.5,270v11.2
	h1.5V270H397.5z M448.4,240l-50.5,29.4l0.8,1.3l50.5-29.4L448.4,240z M448.8,251.9l0.4,0.6c0.2-0.1,0.4-0.4,0.4-0.6H448.8z
	 M398.2,281.3h-0.8c0,0.3,0.1,0.5,0.4,0.7c0.2,0.1,0.5,0.1,0.8,0L398.2,281.3z M398.2,270l-0.4-0.6c-0.2,0.1-0.4,0.4-0.4,0.6H398.2z
	 M448.8,240.6h0.8c0-0.3-0.1-0.5-0.4-0.7c-0.2-0.1-0.5-0.1-0.8,0L448.8,240.6z"/>
<path class="st5" d="M394.6,257.9c0.4-0.2,0.8-0.4,1.3-0.5c0.4-0.1,0.8-0.1,1.2-0.1c0.4,0,0.7,0.1,1.1,0.3c0.3,0.2,0.7,0.3,1,0.6
	l2.8,1.8l-1.2,0.7L398,259c-0.2-0.2-0.5-0.3-0.7-0.4c-0.2-0.1-0.4-0.2-0.6-0.2c-0.2,0-0.4,0-0.6,0c-0.2,0.1-0.4,0.1-0.6,0.3
	c-0.2,0.1-0.3,0.2-0.5,0.3l-0.3,0.2l4.1,2.7l-1.2,0.7l-4.9-3.2c0.2-0.2,0.5-0.5,0.7-0.7C393.7,258.4,394.1,258.2,394.6,257.9z"/>
<path class="st5" d="M401.4,256.6l2.3-1.3c-0.2-0.1-0.3-0.2-0.5-0.3c-0.2-0.1-0.4-0.1-0.6-0.1c-0.2,0-0.4,0-0.6,0
	c-0.2,0-0.4,0.1-0.6,0.2c-0.2,0.1-0.3,0.2-0.4,0.4c-0.1,0.1-0.1,0.2-0.1,0.4c0,0.1,0.1,0.3,0.1,0.4
	C401.2,256.3,401.3,256.4,401.4,256.6 M402.8,253.9c0.9,0.1,1.8,0.4,2.5,0.9l0.2,0.2c0.1,0.1,0.1,0.1,0.2,0.2l-3.5,2
	c0.4,0.2,0.9,0.4,1.4,0.4c0.5,0,1-0.2,1.5-0.5c0.3-0.2,0.5-0.3,0.7-0.5c0.2-0.1,0.3-0.3,0.4-0.4l1.1,0.5l-0.2,0.2
	c-0.1,0.1-0.2,0.2-0.3,0.3l-0.4,0.3l-0.5,0.3c-0.4,0.3-0.9,0.5-1.4,0.6c-0.5,0.1-0.9,0.2-1.4,0.1c-0.5,0-0.9-0.1-1.3-0.2
	c-0.4-0.1-0.8-0.3-1.2-0.6c-0.4-0.2-0.7-0.5-0.9-0.9c-0.2-0.3-0.3-0.6-0.3-0.9c0-0.3,0.1-0.6,0.3-0.8c0.2-0.3,0.5-0.5,0.7-0.6
	C401.2,254.1,402,253.9,402.8,253.9z"/>
<path class="st5" d="M424.3,240.7l0.3-0.2l0.4-0.2l0.4-0.1l0.3-0.1l0.8,0.8l-0.5,0.2c-0.2,0.1-0.5,0.2-0.7,0.3
	c-0.1,0.1-0.3,0.2-0.4,0.3c-0.1,0.1-0.2,0.1-0.2,0.2l4,2.6l-1.2,0.7l-4.8-3.1c0.2-0.2,0.4-0.5,0.6-0.7
	C423.6,241.2,424,240.9,424.3,240.7z"/>
<path class="st5" d="M425.3,237.3l4.4,2.9v-2.4l1.4-0.8c0,0.5,0,0.9,0,1.4c0,0.5,0,0.9,0,1.4h1.2c0.5,0,0.9,0.1,1.4,0.1l1.4,0.2
	c0.4,0.1,0.8,0.1,1.2,0.2l-1.4,0.8l-1-0.2c-0.3-0.1-0.8-0.1-1.1-0.1c-0.4,0-0.8,0-1.1,0h-1l2.3,1.5l-1.2,0.7l-7.4-4.8L425.3,237.3z"
	/>
<path class="st5" d="M423.2,246.1c-0.2-0.4-0.5-0.8-0.9-1c-0.5-0.3-1-0.5-1.5-0.6c-0.5-0.1-1,0-1.4,0.3c-0.4,0.2-0.6,0.5-0.5,0.8
	c0.1,0.2,0.2,0.4,0.3,0.6s0.3,0.3,0.5,0.4c0.5,0.3,1,0.5,1.5,0.6c0.5,0.1,1,0,1.4-0.3C423.1,246.7,423.3,246.4,423.2,246.1
	 M422.4,243.8c0.4,0.1,0.9,0.3,1.3,0.6c0.3,0.2,0.7,0.5,0.9,0.8c0.2,0.2,0.3,0.5,0.3,0.9c0,0.3-0.1,0.6-0.3,0.8
	c-0.2,0.3-0.5,0.5-0.8,0.7c-0.4,0.2-0.8,0.4-1.2,0.5c-0.4,0.1-0.9,0.1-1.3,0.1c-0.5,0-0.9-0.1-1.4-0.2c-0.5-0.1-0.9-0.3-1.3-0.6
	c-0.4-0.2-0.7-0.5-0.9-0.8c-0.2-0.2-0.3-0.5-0.3-0.8c0-0.3,0.1-0.6,0.3-0.8c0.2-0.3,0.5-0.5,0.8-0.7c0.4-0.2,0.8-0.4,1.2-0.5
	c0.4-0.1,0.9-0.1,1.3-0.1C421.5,243.5,421.9,243.6,422.4,243.8z"/>
<path class="st5" d="M415.5,246c0.4,0.4,0.7,0.8,1,1.2c0.3,0.4,0.6,0.8,0.9,1.2s0.5,0.7,0.8,1c0.2,0.3,0.4,0.6,0.6,0.9l-1,0.6
	l-2-0.7c-0.7-0.2-1.4-0.5-2.2-0.8c0.4,0.5,0.8,0.9,1.1,1.4c0.4,0.5,0.7,0.9,1,1.3l-1,0.6l-1.4-0.4c-0.5-0.2-1.1-0.3-1.7-0.5
	l-1.8-0.6l-1.9-0.7l1.3-0.8c0.3,0.1,0.7,0.3,1.1,0.4l1.2,0.5l1.2,0.5l1.1,0.4l-0.6-0.8c-0.2-0.3-0.4-0.5-0.7-0.8l-0.7-0.8
	c-0.2-0.2-0.4-0.5-0.6-0.7l0.9-0.5l1,0.4l1.2,0.5l1.2,0.5l1.2,0.4l-0.6-0.7l-0.7-0.8l-0.7-0.8l-0.7-0.7L415.5,246z"/>
<path class="st5" d="M403.9,250.8l1.5,1l1.9-1.1l1,0.6l-1.9,1.1l2,1.3c0.3,0.2,0.7,0.4,1.1,0.4c0.3,0,0.7-0.1,0.9-0.2
	c0.2-0.1,0.4-0.2,0.5-0.4l0.3-0.3l1.1,0.5c-0.1,0.2-0.2,0.3-0.4,0.4c-0.2,0.2-0.5,0.4-0.7,0.5c-0.3,0.2-0.7,0.4-1.1,0.5
	c-0.3,0.1-0.7,0.1-1,0.1c-0.3,0-0.7-0.1-1-0.3c-0.4-0.1-0.7-0.3-1-0.5l-4.3-2.8L403.9,250.8z"/>
<polygon class="st2" points="338.9,222.9 288.3,252.3 237.5,222.9 288,193.5 "/>
<path class="st3" d="M287.6,194.2l50.9,29.4l0.8-1.3l-50.9-29.4L287.6,194.2z M237.8,223.6l50.5-29.4l-0.8-1.3l-50.5,29.4
	L237.8,223.6z M288.7,251.7l-50.9-29.4l-0.8,1.3l50.9,29.4L288.7,251.7z M338.5,222.3l-50.5,29.4l0.8,1.3l50.5-29.4L338.5,222.3z
	 M288,193.5l0.4-0.6c-0.2-0.1-0.5-0.1-0.8,0L288,193.5z M237.5,222.9l-0.4-0.6c-0.2,0.1-0.4,0.4-0.4,0.6c0,0.3,0.1,0.5,0.4,0.6
	L237.5,222.9z M288.3,252.3l-0.4,0.6c0.2,0.1,0.5,0.1,0.8,0L288.3,252.3z M338.9,222.9l0.4,0.6c0.2-0.1,0.4-0.4,0.4-0.6
	c0-0.3-0.1-0.5-0.4-0.6L338.9,222.9z"/>
<polygon class="st4" points="288.3,252.3 288.3,263.5 237.5,234.2 237.5,222.9 "/>
<path class="st3" d="M237.1,223.6l50.9,29.4l0.8-1.3l-50.9-29.4L237.1,223.6z M238.2,234.2v-11.3h-1.5v11.3H238.2z M288.7,262.9
	l-50.9-29.4l-0.8,1.3l50.9,29.4L288.7,262.9z M287.6,252.3v11.2h1.5v-11.2H287.6z M237.5,222.9l0.4-0.6c-0.2-0.1-0.5-0.1-0.8,0
	s-0.4,0.4-0.4,0.6H237.5z M237.5,234.2h-0.8c0,0.3,0.1,0.5,0.4,0.6L237.5,234.2z M288.3,263.5l-0.4,0.6c0.2,0.1,0.5,0.1,0.8,0
	c0.2-0.1,0.4-0.4,0.4-0.6H288.3z M288.3,252.3h0.8c0-0.3-0.1-0.5-0.4-0.6L288.3,252.3z"/>
<polygon class="st4" points="338.9,222.9 288.3,252.3 288.3,263.5 338.9,234.2 "/>
<path class="st3" d="M339.6,234.2v-11.2h-1.5v11.2H339.6z M288.7,264.2l50.5-29.4l-0.8-1.3l-50.5,29.4L288.7,264.2z M287.6,252.3
	v11.2h1.5v-11.2H287.6z M338.5,222.3l-50.5,29.4l0.8,1.3l50.5-29.4L338.5,222.3z M338.9,234.2l0.4,0.6c0.2-0.1,0.4-0.4,0.4-0.6
	H338.9z M288.3,263.5h-0.8c0,0.3,0.1,0.5,0.4,0.7c0.2,0.1,0.5,0.1,0.8,0L288.3,263.5z M288.3,252.3l-0.4-0.6
	c-0.2,0.1-0.4,0.4-0.4,0.6H288.3z M338.9,222.9h0.8c0-0.3-0.1-0.5-0.4-0.7c-0.2-0.1-0.5-0.1-0.8,0L338.9,222.9z"/>
<polygon class="st6" points="295.9,228.6 302.6,232.9 301.3,233.7 294.6,229.3 "/>
<path class="st6" d="M294.6,233c0.2-0.3,0-0.6-0.4-0.9c-0.2-0.1-0.4-0.2-0.7-0.3c-0.2,0-0.5,0-0.7,0c-0.3,0-0.5,0.1-0.7,0.2
	c-0.3,0.1-0.5,0.2-0.7,0.4c-0.3,0.2-0.6,0.4-0.8,0.5l2.3,1.5l0.6-0.4C293.9,233.8,294.3,233.5,294.6,233 M293.1,230.8
	c0.9-0.1,1.7,0.1,2.5,0.6c0.3,0.2,0.6,0.5,0.8,0.8c0.1,0.1,0.1,0.3,0.1,0.4c0,0.1,0,0.3-0.1,0.4c-0.1,0.3-0.4,0.6-0.6,0.8
	c-0.4,0.3-0.8,0.6-1.2,0.9l-0.6,0.4l2.3,1.5l-1.3,0.7l-6.6-4.3c0.3-0.2,0.6-0.5,0.9-0.7l1-0.6C291.1,231.2,292.1,230.9,293.1,230.8z
	"/>
<path class="st6" d="M286.9,238.8l2.3-1.3l-2.2-0.7l-1.8-0.5c0.2,0.3,0.4,0.7,0.7,1.1C286.2,237.9,286.5,238.3,286.9,238.8
	 M291.3,237c0.8,0.3,1.8,0.5,2.7,0.8l-1.4,0.8l-1.1-0.3l-1.1-0.3l-3,1.7c0.2,0.2,0.3,0.5,0.5,0.7c0.1,0.2,0.3,0.4,0.5,0.7l-1.3,0.8
	l-1.2-1.7c-0.4-0.5-0.7-1-1-1.5c-0.3-0.5-0.6-1-0.9-1.4c-0.3-0.4-0.5-0.9-0.7-1.3l1.2-0.7l2.1,0.5l2.2,0.6
	C289.7,236.5,290.5,236.7,291.3,237z"/>
<polygon class="st2" points="394,295.5 343.5,324.9 292.6,295.5 343.1,266.1 "/>
<path class="st3" d="M342.7,266.8l50.9,29.4l0.8-1.3l-50.9-29.4L342.7,266.8z M293,296.2l50.5-29.4l-0.8-1.3l-50.5,29.4L293,296.2z
	 M343.8,324.3L293,294.9l-0.8,1.3l50.9,29.4L343.8,324.3z M393.6,294.9l-50.5,29.4l0.8,1.3l50.5-29.4L393.6,294.9z M343.1,266.1
	l0.4-0.6c-0.2-0.1-0.5-0.1-0.8,0L343.1,266.1z M292.6,295.5l-0.4-0.6c-0.2,0.1-0.4,0.4-0.4,0.6c0,0.3,0.1,0.5,0.4,0.6L292.6,295.5z
	 M343.5,324.9l-0.4,0.6c0.2,0.1,0.5,0.1,0.8,0L343.5,324.9z M394,295.5l0.4,0.6c0.2-0.1,0.4-0.4,0.4-0.6c0-0.3-0.1-0.5-0.4-0.6
	L394,295.5z"/>
<polygon class="st4" points="343.5,324.9 343.5,336.2 292.6,306.8 292.6,295.5 "/>
<path class="st3" d="M292.2,296.2l50.9,29.4l0.8-1.3L293,294.9L292.2,296.2z M293.3,306.8v-11.2h-1.5v11.2H293.3z M343.8,335.5
	L293,306.1l-0.8,1.3l50.9,29.4L343.8,335.5z M342.7,324.9v11.2h1.5v-11.2H342.7z M292.6,295.5l0.4-0.6c-0.2-0.1-0.5-0.1-0.8,0
	s-0.4,0.4-0.4,0.6H292.6z M292.6,306.8h-0.8c0,0.3,0.1,0.5,0.4,0.6L292.6,306.8z M343.5,336.2l-0.4,0.6c0.2,0.1,0.5,0.1,0.8,0
	c0.2-0.1,0.4-0.4,0.4-0.6H343.5z M343.5,324.9h0.8c0-0.3-0.1-0.5-0.4-0.6L343.5,324.9z"/>
<polygon class="st4" points="394,295.5 343.5,324.9 343.5,336.2 394,306.8 "/>
<path class="st3" d="M394.7,306.8v-11.2h-1.5v11.2H394.7z M343.8,336.8l50.5-29.4l-0.8-1.3l-50.5,29.4L343.8,336.8z M342.7,324.9
	v11.2h1.5v-11.2H342.7z M393.6,294.9l-50.5,29.4l0.8,1.3l50.5-29.4L393.6,294.9z M394,306.8l0.4,0.6c0.2-0.1,0.4-0.4,0.4-0.6H394z
	 M343.5,336.2h-0.8c0,0.3,0.1,0.5,0.4,0.7c0.2,0.1,0.5,0.1,0.8,0L343.5,336.2z M343.5,324.9l-0.4-0.6c-0.2,0.1-0.4,0.4-0.4,0.6
	H343.5z M394,295.5h0.8c0-0.3-0.1-0.5-0.4-0.7c-0.2-0.1-0.5-0.1-0.8,0L394,295.5z"/>
<path class="st3" d="M236.7,185.6v37.3h1.5v-37.3H236.7z M236.7,222.9c0,0.4,0.3,0.8,0.8,0.8c0.4,0,0.8-0.3,0.8-0.8H236.7z
	 M238.2,185.6c0-0.4-0.3-0.8-0.8-0.8c-0.4,0-0.8,0.3-0.8,0.8H238.2z"/>
<path class="st3" d="M448,185.6v54.6h1.5v-54.6H448z M448,240.2c0,0.4,0.3,0.8,0.8,0.8c0.4,0,0.8-0.3,0.8-0.8H448z M449.5,185.6
	c0-0.4-0.3-0.8-0.8-0.8c-0.4,0-0.8,0.3-0.8,0.8H449.5z"/>
<path class="st3" d="M342.7,246.8v19.3h1.5v-19.3H342.7z M342.7,266.1c0,0.4,0.3,0.8,0.8,0.8c0.4,0,0.8-0.3,0.8-0.8H342.7z
	 M344.2,246.8c0-0.4-0.3-0.8-0.8-0.8c-0.4,0-0.8,0.3-0.8,0.8H344.2z"/>
<polygon class="st7" points="343.5,207.2 343.5,246.8 237.5,185.6 237.5,145.9 "/>
<path class="st8" d="M237.1,146.6l106,61.3l0.8-1.3l-106-61.3L237.1,146.6z M238.2,185.6v-39.6h-1.5v39.6H238.2z M343.8,246.2
	l-106-61.3l-0.8,1.3l106,61.3L343.8,246.2z M342.7,207.2v39.6h1.5v-39.6H342.7z M237.5,145.9l0.4-0.6c-0.2-0.1-0.5-0.1-0.8,0
	c-0.2,0.1-0.4,0.4-0.4,0.6H237.5z M237.5,185.6h-0.8c0,0.3,0.1,0.5,0.4,0.6L237.5,185.6z M343.5,246.8l-0.4,0.6
	c0.2,0.1,0.5,0.1,0.8,0c0.2-0.1,0.4-0.4,0.4-0.6H343.5z M343.5,207.2h0.8c0-0.3-0.1-0.5-0.4-0.6L343.5,207.2z"/>
<polygon class="st7" points="448.8,145.9 343.5,207.2 343.5,246.8 448.8,185.6 "/>
<path class="st8" d="M449.5,185.6v-39.6H448v39.6H449.5z M343.8,247.5l105.3-61.3l-0.8-1.3l-105.3,61.3L343.8,247.5z M342.7,207.2
	v39.6h1.5v-39.6H342.7z M448.4,145.3l-105.3,61.3l0.8,1.3l105.3-61.3L448.4,145.3z M448.8,185.6l0.4,0.6c0.2-0.1,0.4-0.4,0.4-0.6
	H448.8z M343.5,246.8h-0.8c0,0.3,0.1,0.5,0.4,0.7c0.2,0.1,0.5,0.1,0.8,0L343.5,246.8z M343.5,207.2l-0.4-0.6
	c-0.2,0.1-0.4,0.4-0.4,0.6H343.5z M448.8,145.9h0.8c0-0.3-0.1-0.5-0.4-0.7c-0.2-0.1-0.5-0.1-0.8,0L448.8,145.9z"/>
<polygon class="st2" points="448.8,145.9 343.5,207.2 237.5,145.9 342.8,84.7 "/>
<path class="st8" d="M342.4,85.3l106,61.3l0.8-1.3L343.2,84L342.4,85.3z M237.8,146.6l105.3-61.3l-0.8-1.3l-105.3,61.3L237.8,146.6z
	 M343.8,206.5l-106-61.3l-0.8,1.3l106,61.3L343.8,206.5z M448.4,145.3l-105.3,61.3l0.8,1.3l105.3-61.3L448.4,145.3z M342.8,84.7
	l0.4-0.6c-0.2-0.1-0.5-0.1-0.8,0L342.8,84.7z M237.5,145.9l-0.4-0.6c-0.2,0.1-0.4,0.4-0.4,0.6c0,0.3,0.1,0.5,0.4,0.6L237.5,145.9z
	 M343.5,207.2l-0.4,0.6c0.2,0.1,0.5,0.1,0.8,0L343.5,207.2z M448.8,145.9l0.4,0.6c0.2-0.1,0.4-0.4,0.4-0.6c0-0.3-0.1-0.5-0.4-0.6
	L448.8,145.9z"/>
<polygon class="st9" points="270.7,183.9 272.3,186.5 271.3,190 272.3,193.7 269.8,194 265.5,190.6 263.7,185.3 264.2,182.7 
	267.1,183.5 269.5,184.2 "/>
<polygon class="st10" points="263.2,175.2 270.7,179.4 272.5,182.9 269.5,184.2 265.8,183.5 262.4,180 261,176.8 261.4,175.2 "/>
<polygon class="st10" points="274.4,185.6 276.2,188.2 277.7,193.5 278.1,198 277.3,199.1 274.1,197.1 271.7,192 271.7,187.3 "/>
<path class="st11" d="M276.2,198.1c0.7,0.4,1.4,0.1,1.3-0.8c0-0.1,0-0.1,0-0.1s-0.1-0.1-0.1-0.1c-0.5-0.4-1-0.9-1.4-1.5
	c0,0.7-0.1,1.3-0.2,2c0,0.1,0,0.1,0,0.2c0,0.1,0.1,0.1,0.1,0.1C276,198,276.1,198,276.2,198.1 M261.9,177.6c0,0,0.1,0,0.1,0
	c0.6,0,1.2,0.1,1.7,0.2c-0.4-0.6-0.7-1.3-0.9-1.9c0-0.1,0-0.1,0-0.1c0,0-0.1-0.1-0.1-0.1c-0.8-0.3-1.3,0.6-0.9,1.7
	C261.8,177.5,261.8,177.6,261.9,177.6L261.9,177.6z M275.2,196.9c0.1-1.6,0-3.2-0.3-4.7c-0.2,0.3-0.5,0.6-0.9,0.7
	c-0.4,0.1-0.8,0.2-1.1,0.1c-0.1,0-0.1,0-0.1,0.2c0.5,1.4,1.2,2.7,2.1,3.8c0,0.1,0.1,0.1,0.1,0.2C275.1,197,275.1,197,275.2,196.9z
	 M262.1,178.3c0.6,1.2,1.4,2.3,2.4,3.2c0.1,0.1,0.3,0.3,0.4,0.4c0.2,0.1,0.2-0.1,0.3-0.5v-0.1c0-0.3,0.2-0.6,0.3-0.9
	c0.2-0.3,0.4-0.5,0.7-0.7C264.9,178.8,263.5,178.4,262.1,178.3L262.1,178.3z M271.2,186.9c0.3-0.6,0.2-1.1-0.4-1.9
	c-0.1-0.1-0.2-0.2-0.2-0.3c0,0-0.1,0-0.1,0s-0.1,0-0.1,0c-0.7,0.2-1.4,0.3-2.1,0.1c-0.2-0.1-0.3,0.1-0.2,0.4
	c0.4,1.5,1.3,2.8,2.5,3.7l0.1,0.1c0.2,0.1,0.2,0.1,0.3-0.3C270.9,188.1,271,187.5,271.2,186.9L271.2,186.9z M272.5,192.2h0.1
	c0.4,0.1,0.8,0.1,1.2-0.1s0.6-0.5,0.8-0.9c0-0.1,0-0.3,0-0.4c-0.4-1.4-0.8-2.8-1.3-4.2c-0.4,0.2-0.7,0.6-0.8,1
	c-0.5,1.3-0.5,2.8-0.1,4.2c0,0.1,0,0.1,0,0.2S272.4,192.1,272.5,192.2L272.5,192.2z M266.2,182.8c0.9,0.6,1.9,0.8,3,0.7
	c0.3,0,0.5-0.1,0.8-0.3c0.2-0.1,0.4-0.3,0.6-0.6c-0.8-0.7-1.7-1.3-2.6-2c-0.1-0.1-0.2-0.2-0.3-0.2c-0.2-0.1-0.4-0.2-0.7-0.2
	s-0.5,0.1-0.6,0.3c-0.4,0.5-0.6,1.1-0.6,1.7c0,0.1,0,0.2,0.1,0.3c0,0.1,0.1,0.1,0.2,0.2L266.2,182.8L266.2,182.8z M265.7,176.8
	c-0.8-0.5-1.6-0.8-2.4-1c0.2,0.8,0.6,1.5,1.1,2.1c0.1,0.1,0.2,0.3,0.3,0.3h0.1c0.7,0.3,1.5,0.7,2.1,1.1c1.3,0.8,2.6,1.7,3.7,2.7
	l0.1,0.1c0.2,0.1,0.2,0,0.2-0.3c-0.1-0.6-0.4-1.1-0.8-1.5c-1.2-1.3-2.5-2.3-3.9-3.2C266,177,265.8,176.9,265.7,176.8L265.7,176.8z
	 M277.5,196c-0.2-2.1-0.7-4.1-1.4-6c-0.3-0.9-0.7-1.8-1.2-2.6c-0.2-0.3-0.4-0.5-0.6-0.7c-0.1,0-0.1-0.1-0.2-0.1
	c-0.2-0.1-0.3,0-0.1,0.3c0.9,2.3,1.5,4.7,1.8,7.1c0.1,0.6,0.3,1.1,0.7,1.5c0.2,0.2,0.4,0.5,0.7,0.7c0.1,0.1,0.2,0.2,0.4,0.3
	C277.6,196.6,277.6,196.5,277.5,196L277.5,196z M271.5,193.2c0.1,0,0.3,0,0.2-0.3c-0.1-0.3-0.1-0.4-0.4-0.6l-0.1-0.1
	c-0.2-0.1-0.4-0.2-0.6-0.3c-0.5-0.3-1-0.6-1.4-1c-2-1.8-3.3-4.2-3.8-6.9c0-0.1-0.1-0.3-0.1-0.4s-0.2-0.2-0.3-0.3H265
	c-0.2-0.1-0.2,0.1-0.3,0.2c-0.2,0.5-0.3,1-0.3,1.5v0.5c0,0.1,0,0.2,0,0.3c0.3,1.8,1.1,3.6,2.3,5c0.6,0.9,1.4,1.6,2.3,2.1
	c0.3,0.2,0.7,0.4,1.2,0.5C270.6,193.5,271,193.4,271.5,193.2L271.5,193.2z M277.9,184.4c-0.3-0.1-0.3,0-0.2,0.4
	c0.5,1.9,0.4,3.3-0.7,4c-0.1,0.1,0,0.3,0,0.4c1,2.3,1.6,4.7,1.8,7.1c0.1,0.7,0,1.4-0.1,2.1c-0.3,1.3-1.2,1.7-2.4,1
	c-0.3-0.2-0.6-0.4-0.8-0.6c-1.2-1.1-2.1-2.4-2.8-3.8c-0.1-0.1-0.1-0.2-0.2-0.3c0,0-0.1,0-0.1,0s-0.1,0-0.1,0
	c-0.5,0.1-1.1,0.2-1.6,0.1c-0.5-0.1-1-0.3-1.5-0.6c-0.8-0.5-1.6-1.2-2.3-1.9c-0.1-0.1-0.2-0.2-0.2-0.2c-0.1,0-0.2-0.1-0.2-0.1h-2.1
	c0.1-0.8,0.3-1.6,0.4-2.3c0-0.3,0-0.6-0.1-0.8c-1.3-2.6-1.6-4.8-0.9-6.5c0.1-0.2,0.1-0.3-0.2-0.5c-1.1-1.2-1.9-2.5-2.5-3.9
	c-1-2.4-0.5-3.9,1.2-3.8c1.3,0.2,2.5,0.6,3.6,1.3l0.7,0.4c1,0.6,1.9,1.3,2.8,2.1l0.1,0.1c0.1,0.1,0.1,0,0.2,0c0.7-1,1.8-0.9,3.1-0.2
	c0.3,0.2,0.3,0.1,0.3-0.2c-0.1-1.3,0.2-2.6,0.9-3.7c0,0,0.1-0.1,0.1-0.1c0,0,0.1-0.1,0.1-0.1s0.1,0,0.1,0c0,0,0.1,0,0.1,0
	c0.1,0.1,0.2,0.1,0.3,0.2c0.2,0.1,0.3,0.3,0.3,0.5c0,0.2,0,0.4-0.1,0.6c-0.6,1-0.9,2.3-0.7,3.5c0,0.1,0,0.2,0.1,0.3s0.1,0.2,0.2,0.3
	c0.9,0.9,1.6,1.9,2.2,3c0.1,0.1,0.2,0.3,0.3,0.3l0.1,0.1c0.4,0.2,0.9,0.3,1.4,0.2c0.5,0,1-0.1,1.4-0.4c0.1-0.1,0.2-0.1,0.3-0.1
	c0.1,0,0.2,0,0.3,0.1l0.1,0.1c0.2,0.2,0.4,0.4,0.5,0.7c0.1,0.3,0,0.5-0.2,0.6c-0.4,0.2-0.9,0.4-1.4,0.4
	C278.8,184.6,278.3,184.5,277.9,184.4z"/>
<path class="st11" d="M294.1,196.1v2c0,0.2,0,0.3,0.2,0.4l0.3,0.2l0.6,0.4l0.5,0.3l1,0.6c0.6,0.3,1,0,1-0.8c0-0.4-0.1-0.7-0.3-1
	c-0.2-0.3-0.4-0.6-0.7-0.7l-0.4-0.2l-0.7-0.4l-0.7-0.4l-0.5-0.3C294.2,195.9,294.1,195.9,294.1,196.1 M297,205.4
	c0.7,0.3,1.1-0.1,1.1-0.9c0-0.4-0.1-0.8-0.4-1.2c-0.2-0.4-0.5-0.7-0.9-0.9c-0.1-0.1-0.3-0.2-0.4-0.3l-0.7-0.4l-0.7-0.4l-0.5-0.3
	c-0.2-0.1-0.2,0-0.2,0.1v2.4c0,0.1,0,0.1,0,0.2c0,0.1,0.1,0.1,0.1,0.2l0.3,0.2l0.7,0.4l0.6,0.4C296.3,205.1,296.6,205.3,297,205.4
	L297,205.4z M283,194c0,0.1,0,0.1,0,0.2c0,0.1,0.1,0.1,0.1,0.1h0.1c1.6,0.6,3,0.6,4-0.4c0.2-0.2,0.3-0.4,0.3-0.7
	c0-0.4-0.2-0.7-0.4-1c-0.2-0.2-0.4-0.4-0.7-0.6c-0.2-0.1-0.5-0.2-0.7-0.2C284.3,191.5,283.4,192.3,283,194L283,194z M300.8,205.7
	c0.5,2.7-0.8,4-3,2.9c-0.8-0.4-1.6-0.9-2.4-1.3l-1.4-0.9l-1.4-0.8l-0.8-0.5c-0.1,0-0.2-0.1-0.2-0.2s-0.1-0.2,0-0.3v-3.2
	c-0.4,0.4-0.8,0.6-1.3,0.8c-0.5,0.2-1,0.2-1.5,0.2c-0.9,0-1.8-0.3-2.6-0.8c-0.5-0.3-0.9-0.6-1.4-1c-1-0.9-1.7-2-2.3-3.1
	s-0.8-2.5-0.8-3.8c0.1-2.7,1.3-4,3.5-3.9c0.5,0,0.9,0.2,1.3,0.4c0.6,0.3,1,0.8,1.4,1.3c0.9,1.2,1.2,2.6,0.8,3.4
	c-0.3,0.4-0.7,0.8-1.2,1c-0.5,0.2-1,0.3-1.5,0.3c-0.8,0-1.7-0.1-2.4-0.4c-0.3-0.1-0.3,0-0.2,0.3c0.4,1.6,1.3,2.9,2.7,3.8
	c0.2,0.1,0.4,0.2,0.7,0.3c0.7,0.3,1.5,0.4,2.2,0.2s1.4-0.4,2-0.9c0.2-0.2,0.4-0.5,0.5-0.7c0.1-0.3,0.1-0.6,0.1-0.9c0-2,0-3.9,0-5.8
	c0-0.3,0.1-0.3,0.3-0.2l5.3,3.1c0.8,0.5,1.5,1.1,2.1,1.8c0.9,1,1.4,2.3,1.3,3.7c0,1.2-0.5,1.8-1.6,1.7h-0.3c0.2,0.2,0.4,0.4,0.6,0.6
	C300,203.6,300.6,204.6,300.8,205.7z"/>
<path class="st11" d="M307.5,207.1c0.8,0.4,1.3-0.1,1.2-1.1c0-0.5-0.1-0.9-0.4-1.3s-0.6-0.7-1-1l-0.6-0.4l-0.4-0.2l-0.9-0.6
	c-0.2-0.1-0.2-0.1-0.2,0.2v2.8c0,0.1,0,0.1,0,0.2c0,0.1,0.1,0.1,0.1,0.2l0.2,0.1l0.5,0.3l0.5,0.3C306.9,206.8,307.2,207,307.5,207.1
	 M311.5,207.1c0.1,1.9-0.3,3.3-1.8,3.4c-0.9,0-1.8-0.3-2.5-0.8l-1-0.6l-0.8-0.5c-0.2-0.2-0.3-0.1-0.3,0.2v3.7c0,0.3,0,0.4-0.3,0.2
	l-1-0.6l-1.1-0.6c-0.1,0-0.2-0.1-0.2-0.2s-0.1-0.2-0.1-0.3v-12.5c0-0.3,0.1-0.3,0.3-0.2l2.9,1.7l1.8,1c0.6,0.3,1.1,0.7,1.6,1.2
	C310.5,203.5,311.4,205.2,311.5,207.1z"/>
<path class="st11" d="M320.8,208.7c0.1,0.1,0.2,0.1,0.3,0.3c0.1,0.1,0.1,0.2,0.1,0.4v2c0,0.3,0,0.4-0.3,0.2c-1.6-1-3.2-1.9-4.8-2.8
	c-0.3-0.2-0.3-0.1-0.3,0.2v1.9c0,0.1,0,0.2,0.1,0.3c0.1,0.1,0.1,0.2,0.2,0.2l0.7,0.4l1.4,0.8l1,0.6l1,0.6c0.1,0,0.2,0.1,0.3,0.2
	s0.1,0.2,0.1,0.3v2c0,0.3-0.1,0.3-0.3,0.2l-1.8-1l-2.3-1.4c-0.3-0.2-0.4-0.1-0.4,0.2v4.3c0,0.3-0.1,0.3-0.3,0.2
	c-0.3-0.2-0.7-0.4-1.1-0.6c-0.4-0.2-0.6-0.4-1-0.6c-0.1-0.1-0.2-0.1-0.3-0.3c-0.1-0.1-0.1-0.2-0.1-0.4v-12.4c0-0.3,0.1-0.4,0.3-0.2
	l3.8,2.2C318.3,207.3,319.6,208,320.8,208.7z"/>
<polygon class="st2" points="448.8,122.5 343.5,183.7 237.5,122.5 342.8,61.2 "/>
<path class="st1" d="M342.4,61.9l106,61.3l0.8-1.3l-106-61.3L342.4,61.9z M237.8,123.1l105.3-61.3l-0.8-1.3l-105.3,61.3L237.8,123.1
	z M343.8,183.1l-106-61.3l-0.8,1.3l106,61.3L343.8,183.1z M448.4,121.8l-105.3,61.3l0.8,1.3l105.3-61.3L448.4,121.8z M342.8,61.2
	l0.4-0.6c-0.2-0.1-0.5-0.1-0.8,0L342.8,61.2z M237.5,122.5l-0.4-0.6c-0.2,0.1-0.4,0.4-0.4,0.6c0,0.3,0.1,0.5,0.4,0.6L237.5,122.5z
	 M343.5,183.7l-0.4,0.6c0.2,0.1,0.5,0.1,0.8,0L343.5,183.7z M448.8,122.5l0.4,0.6c0.2-0.1,0.4-0.4,0.4-0.6c0-0.3-0.1-0.5-0.4-0.6
	L448.8,122.5z"/>
<polygon class="st10" points="343.5,183.7 343.5,194.2 237.5,132.9 237.5,122.5 "/>
<path class="st1" d="M237.1,123.1l106,61.3l0.8-1.3l-106-61.3L237.1,123.1z M238.2,132.9v-10.4h-1.5v10.4H238.2z M343.8,193.5
	l-106-61.3l-0.8,1.3l106,61.3L343.8,193.5z M342.7,183.7v10.4h1.5v-10.4H342.7z M237.5,122.5l0.4-0.6c-0.2-0.1-0.5-0.1-0.8,0
	c-0.2,0.1-0.4,0.4-0.4,0.6H237.5z M237.5,132.9h-0.8c0,0.3,0.1,0.5,0.4,0.6L237.5,132.9z M343.5,194.2l-0.4,0.6
	c0.2,0.1,0.5,0.1,0.8,0s0.4-0.4,0.4-0.6H343.5z M343.5,183.7h0.8c0-0.3-0.1-0.5-0.4-0.6L343.5,183.7z"/>
<polygon class="st10" points="448.8,122.5 343.5,183.7 343.5,194.2 448.8,132.9 "/>
<path class="st1" d="M449.5,132.9v-10.4H448v10.4H449.5z M343.8,194.8l105.3-61.3l-0.8-1.3l-105.3,61.3L343.8,194.8z M342.7,183.7
	v10.4h1.5v-10.4H342.7z M448.4,121.8l-105.3,61.3l0.8,1.3l105.3-61.3L448.4,121.8z M448.8,132.9l0.4,0.6c0.2-0.1,0.4-0.4,0.4-0.6
	H448.8z M343.5,194.2h-0.8c0,0.3,0.1,0.5,0.4,0.7c0.2,0.1,0.5,0.1,0.8,0L343.5,194.2z M343.5,183.7l-0.4-0.6
	c-0.2,0.1-0.4,0.4-0.4,0.6H343.5z M448.8,122.5h0.8c0-0.3-0.1-0.5-0.4-0.7s-0.5-0.1-0.8,0L448.8,122.5z"/>
<path class="st12" d="M288,126.1c0.5,0.3,1,0.5,1.5,0.7c0.5,0.2,1.1,0.4,1.7,0.5l-1.5,0.9c-0.3,0-0.5-0.1-0.7-0.2
	c-0.3-0.1-0.6-0.2-0.9-0.3c-0.3-0.1-0.6-0.2-0.9-0.4l-0.9-0.4l-0.1-0.1c-0.6-0.3-1.2-0.8-1.6-1.3c-0.4-0.4-0.6-1-0.7-1.6
	c0-0.6,0.2-1.2,0.6-1.7c0.5-0.7,1.2-1.3,2-1.7c0.7-0.4,1.4-0.7,2.1-1c0.7-0.2,1.4-0.4,2.1-0.5c0.7-0.1,1.3-0.1,2-0.1
	c0.6,0,1.2,0.1,1.8,0.2c0.6,0.1,1.1,0.3,1.6,0.4l1.4,0.7c0.5,0.3,0.9,0.6,1.3,1c0.3,0.3,0.6,0.6,0.8,1l-1.5,0.9
	c-0.3-0.4-0.6-0.7-0.9-1c-0.3-0.3-0.7-0.6-1.1-0.8c-0.5-0.3-1-0.5-1.5-0.6c-0.6-0.2-1.2-0.3-1.9-0.3c-1.6,0-3.1,0.4-4.4,1.3
	c-0.5,0.3-1,0.6-1.4,1.1c-0.3,0.3-0.5,0.7-0.6,1.2c0,0.4,0.1,0.8,0.3,1.1C287,125.4,287.4,125.8,288,126.1z"/>
<polygon class="st12" points="292,129.9 302.8,123.7 304.5,124.7 293.8,131 "/>
<polygon class="st12" points="297.4,133.1 313.8,123.6 315.5,124.6 299.2,134.1 "/>
<polygon class="st12" points="302.8,136.2 313.5,129.9 315.3,130.9 304.6,137.2 "/>
<path class="st12" d="M319.3,140.8l6.6-3.8l1.8,1l-6.6,3.8c-0.3,0.2-0.7,0.4-1.1,0.5c-0.3,0.2-0.7,0.3-1.1,0.4
	c-0.5,0.1-1.1,0.2-1.6,0.3c-0.6,0-1.1,0-1.7,0c-1.2-0.2-2.3-0.5-3.4-1.1h-0.1l-0.1-0.1c-0.4-0.3-0.9-0.6-1.2-0.9
	c-0.3-0.3-0.5-0.6-0.7-1c-0.1-0.3-0.2-0.7-0.1-1c0.1-0.3,0.2-0.6,0.4-0.9c0.2-0.2,0.4-0.5,0.7-0.7l1-0.7l6.6-3.8l1.8,1l-6.6,3.8
	c-0.5,0.2-0.9,0.6-1.2,1c-0.1,0.2-0.2,0.3-0.3,0.5c0,0.2,0,0.4,0.1,0.6c0.2,0.5,0.6,0.9,1.1,1.1c0.6,0.4,1.3,0.6,2,0.7
	c0.7,0.1,1.4,0,2-0.2C318.2,141.3,318.7,141.1,319.3,140.8z"/>
<path class="st12" d="M344.7,149.8c-0.4,0.6-0.9,1-1.6,1.3l-7.2,4.2l-1.7-1l6.9-4c0.4-0.2,0.7-0.5,1-0.8c0.2-0.2,0.3-0.4,0.4-0.7
	c0-0.2-0.1-0.5-0.2-0.7c-0.2-0.2-0.5-0.4-0.8-0.6c-0.7-0.4-1.4-0.6-2.2-0.7c-0.9-0.1-1.9-0.1-2.8,0l-7.6,4.4l-1.8-1l6.9-4
	c0.4-0.2,0.7-0.5,1-0.8c0.2-0.2,0.3-0.4,0.4-0.7c0-0.2-0.1-0.5-0.2-0.7c-0.2-0.2-0.5-0.5-0.8-0.6c-0.7-0.4-1.4-0.6-2.2-0.7
	c-0.9-0.1-1.8-0.1-2.8,0l-7.6,4.4l-1.8-1l10.8-6.3l1.4,0.8l-1.2,1.1h1.4c0.4,0,0.9,0,1.3,0.1c0.4,0.1,0.9,0.2,1.3,0.3
	c0.4,0.1,0.9,0.3,1.2,0.6c0.6,0.3,1.2,0.8,1.4,1.5c0.1,0.3,0.1,0.6,0,0.8c-0.1,0.3-0.2,0.5-0.3,0.8c1.1-0.1,2.1-0.1,3.2,0
	c1,0.1,1.9,0.4,2.7,0.9c0.4,0.2,0.7,0.5,1,0.8c0.3,0.3,0.5,0.6,0.6,1c0.1,0.2,0.1,0.4,0,0.6C344.9,149.5,344.8,149.7,344.7,149.8z"
	/>
<polygon class="st12" points="319.7,128.3 317.8,129.5 316,128.5 318,127.3 "/>
<polygon class="st12" points="309,122.1 307,123.3 305.2,122.2 307.2,121.1 "/>
<polygon class="st13" points="338.5,101.2 341,95.7 351.6,94.1 359,98.4 356.6,104 346,105.6 "/>
<path class="st12" d="M351.7,93.3l-11.2,1.7l-2.9,6.5l8.3,4.8l11.2-1.7l2.9-6.6L351.7,93.3L351.7,93.3z M351.4,94.9l6.6,3.8l-2,4.6
	l-9.9,1.5l-6.7-3.9l2-4.5L351.4,94.9L351.4,94.9z"/>
<polygon class="st9" points="360.4,104.7 362.8,99.2 373.4,97.6 380.8,101.9 378.3,107.4 367.8,109.1 "/>
<path class="st12" d="M373.5,96.8l-11.2,1.8l-2.9,6.5l8.3,4.8l11.1-1.7l3-6.5L373.5,96.8L373.5,96.8z M373.3,98.4l6.6,3.8l-2.1,4.6
	l-9.8,1.5l-6.6-3.8l2-4.5L373.3,98.4L373.3,98.4z"/>
<polygon class="st14" points="366.5,117.4 369,111.9 379.5,110.3 387,114.6 384.5,120.1 374,121.7 "/>
<path class="st12" d="M379.6,109.4l-11.2,1.7l-2.9,6.5l8.3,4.8l11.2-1.7l2.9-6.6L379.6,109.4z M379.4,111.1l6.6,3.8l-2,4.6l-9.9,1.5
	l-6.7-3.9l2-4.5L379.4,111.1L379.4,111.1z"/>
<polygon class="st15" points="322.7,110.5 325.2,105 335.8,103.3 343.1,107.6 340.7,113.2 330.2,114.8 "/>
<path class="st12" d="M335.9,102.5l-11.2,1.8l-2.9,6.5l8.3,4.8l11.2-1.7l2.9-6.6L335.9,102.5z M335.6,104.1l6.6,3.8l-2,4.6l-9.8,1.5
	l-6.6-3.8l2-4.5L335.6,104.1L335.6,104.1z"/>
<polygon class="st16" points="344.6,113.9 347.1,108.4 357.6,106.8 365.1,111.1 362.5,116.6 352,118.2 "/>
<path class="st12" d="M357.7,106l-11.3,1.8l-2.9,6.5l8.3,4.8l11.2-1.7l3-6.5L357.7,106L357.7,106z M357.5,107.6l6.6,3.8l-2.1,4.5
	l-9.8,1.5l-6.6-3.8l2-4.5L357.5,107.6L357.5,107.6z"/>
<polygon class="st17" points="350.7,126.6 353.2,121.1 363.7,119.5 371.1,123.7 368.6,129.3 358.1,130.9 "/>
<path class="st12" d="M363.9,118.7l-11.2,1.8l-2.9,6.5l8.3,4.8l11.2-1.7l2.9-6.6L363.9,118.7z M363.6,120.3l6.6,3.8l-2,4.6l-9.8,1.5
	l-6.6-3.8l2-4.5L363.6,120.3z"/>
<polygon class="st1" points="328.8,123.1 331.3,117.6 341.9,115.9 349.3,120.2 346.8,125.7 336.3,127.4 "/>
<path class="st12" d="M342.1,115.2l-11.2,1.7l-2.9,6.5l8.3,4.8l11.2-1.7l3-6.5L342.1,115.2L342.1,115.2z M341.8,116.7l6.6,3.8
	l-2.1,4.5l-9.9,1.5l-6.6-3.8l2-4.5L341.8,116.7L341.8,116.7z"/>
<path class="st3" d="M531.4,245.2c0.5,0.2,0.9,0.6,1.2,1c0.3,0.4,0.5,0.9,0.5,1.4c0,0.5-0.2,1-0.5,1.4c-0.3,0.4-0.7,0.8-1.2,1
	c-1.3,0.7-2.7,1-4.1,1c-1.5,0-2.9-0.3-4.2-1c-0.5-0.2-0.9-0.6-1.2-1s-0.5-0.9-0.5-1.4c0-0.5,0.2-1,0.5-1.4c0.3-0.4,0.7-0.8,1.2-1
	c1.3-0.7,2.7-1,4.1-1C528.7,244.2,530.2,244.5,531.4,245.2z"/>
<path class="st3" d="M482.7,186.8c0.5,0.2,0.9,0.6,1.2,1c0.3,0.4,0.5,0.9,0.5,1.4c0,0.5-0.2,1-0.5,1.4c-0.3,0.4-0.7,0.8-1.2,1
	c-1.3,0.7-2.7,1-4.1,1c-1.5,0-2.9-0.3-4.2-1c-0.5-0.2-0.9-0.6-1.2-1c-0.3-0.4-0.5-0.9-0.5-1.4c0-0.5,0.2-1,0.5-1.4s0.7-0.8,1.2-1
	c1.3-0.7,2.7-1,4.1-1C480,185.8,481.4,186.1,482.7,186.8z"/>
<path class="st3" d="M625.4,208.9c0.5,0.2,0.9,0.6,1.2,1s0.5,0.9,0.5,1.4c0,0.5-0.2,1-0.5,1.4c-0.3,0.4-0.7,0.8-1.2,1
	c-1.3,0.7-2.7,1-4.1,1c-1.5,0-2.9-0.3-4.2-1c-0.5-0.2-0.9-0.6-1.2-1s-0.5-0.9-0.5-1.4c0-0.5,0.2-1,0.5-1.4c0.3-0.4,0.7-0.8,1.2-1
	c1.3-0.7,2.7-1,4.1-1C622.7,207.9,624.1,208.2,625.4,208.9z"/>
<path class="st3" d="M232.4,313.5c0.6,0.2,1.2,0.7,1.5,1.3c0.3,0.6,0.3,1.3,0.1,1.9c-0.1,0.4-0.3,0.7-0.6,1c-0.3,0.3-0.6,0.5-1,0.6
	c-1.3,0.7-2.7,1-4.2,1s-2.9-0.3-4.2-1c-0.5-0.2-0.9-0.6-1.2-1s-0.5-0.9-0.5-1.4c0-0.5,0.2-1,0.5-1.4c0.3-0.4,0.7-0.8,1.2-1
	c1.3-0.7,2.7-1,4.1-1C229.6,312.5,231.1,312.9,232.4,313.5z"/>
<path class="st3" d="M375.2,335.4c0.5,0.2,0.9,0.5,1.3,0.9c0.3,0.4,0.5,1,0.5,1.5s-0.2,1.1-0.5,1.5c-0.3,0.4-0.8,0.8-1.3,0.9
	c-1.3,0.7-2.7,1-4.2,1c-1.4,0-2.9-0.3-4.2-1c-0.6-0.2-1.2-0.7-1.5-1.3s-0.3-1.3-0.1-1.9c0.1-0.4,0.3-0.7,0.6-1s0.6-0.5,1-0.6
	c1.3-0.7,2.7-1,4.2-1C372.5,334.4,373.9,334.7,375.2,335.4L375.2,335.4z"/>
<path class="st3" d="M194.5,230.8c0.6,0.2,1.2,0.7,1.5,1.3c0.3,0.6,0.3,1.3,0.1,1.9c-0.1,0.4-0.3,0.7-0.6,1c-0.3,0.3-0.6,0.5-1,0.6
	c-1.3,0.7-2.7,1-4.2,1c-1.4,0-2.9-0.3-4.2-1c-0.6-0.2-1.2-0.7-1.5-1.3c-0.3-0.6-0.3-1.3-0.1-1.9c0.1-0.4,0.3-0.7,0.6-1
	c0.3-0.3,0.6-0.5,1-0.6c1.3-0.7,2.7-1,4.2-1C191.8,229.8,193.3,230.1,194.5,230.8z"/>
<path class="st3" d="M123.2,219.7c0.6,0.2,1.2,0.7,1.5,1.3c0.3,0.6,0.3,1.3,0.1,1.9c-0.1,0.4-0.3,0.7-0.6,1c-0.3,0.3-0.6,0.5-1,0.6
	c-1.3,0.7-2.7,1-4.2,1s-2.9-0.3-4.2-1c-0.6-0.2-1.2-0.7-1.5-1.3c-0.3-0.6-0.3-1.3-0.1-1.9c0.1-0.4,0.3-0.7,0.6-1
	c0.3-0.3,0.6-0.5,1-0.6c1.3-0.7,2.7-1,4.2-1S121.9,219,123.2,219.7z"/>
<path class="st3" d="M217.2,183.4c0.6,0.2,1.2,0.7,1.5,1.3c0.3,0.6,0.3,1.3,0.1,1.9c-0.1,0.4-0.3,0.7-0.6,1c-0.3,0.3-0.6,0.5-1,0.6
	c-1.3,0.7-2.7,1-4.2,1c-1.4,0-2.9-0.3-4.2-1c-0.6-0.2-1.2-0.7-1.5-1.3c-0.3-0.6-0.3-1.3-0.1-1.9c0.1-0.4,0.3-0.7,0.6-1
	c0.3-0.3,0.6-0.5,1-0.6c1.3-0.7,2.7-1,4.2-1C214.5,182.4,215.9,182.8,217.2,183.4z"/>
<path class="st10" d="M590.5,183.7l-15.8,14.8c-0.2,0.2-0.5,0.3-0.7,0.4l-0.2,0.1c-0.2,0.1-0.4,0.2-0.7,0.3l-0.2,0.1
	c-0.3,0.1-0.6,0.2-0.9,0.2c-0.4,0.1-0.8,0.2-1.2,0.2l-29.8,1.8c-1.3,0.2-2.7-0.1-3.9-0.7l-0.3-0.2l-21.3-12.3
	c-0.2-0.1-0.3-0.3-0.5-0.4l-0.1-0.1c-0.1-0.1-0.3-0.3-0.4-0.4l-0.1-0.1l-0.2-0.2l-0.1-0.1l-0.1-0.2c0,0,0-0.1,0-0.1
	c0-0.1-0.1-0.2-0.1-0.3v6.9c0,0,0,0.1,0,0.1c0,0,0,0.1,0.1,0.1c0,0,0,0.1,0,0.1c0,0.1,0.1,0.2,0.1,0.2c0,0,0,0.1,0,0.1s0,0,0.1,0.1
	c0.1,0.1,0.1,0.1,0.2,0.2v0.1c0.1,0.1,0.3,0.3,0.4,0.4l0.1,0.1c0.2,0.1,0.3,0.3,0.5,0.4l21.3,12.3l0.3,0.2c1.2,0.6,2.6,0.9,3.9,0.7
	l29.8-1.8c0.4,0,0.8-0.1,1.2-0.2h0.1c0.3-0.1,0.5-0.1,0.8-0.2l0.2-0.1c0.2-0.1,0.4-0.2,0.7-0.3l0.2-0.1c0.2-0.1,0.5-0.3,0.7-0.4
	l15.8-14.8c0.3-0.3,0.5-0.7,0.6-1.1c0-0.1,0-0.2,0-0.4v-6.9C591,182.8,590.8,183.3,590.5,183.7z"/>
<path class="st1" d="M590.2,182.3c0,0.3-0.1,0.7-0.3,0.9l1.2,0.9c0.4-0.6,0.7-1.3,0.6-2L590.2,182.3z M591.7,189.2v-6.9h-1.5v6.9
	H591.7z M591.7,189.6c0-0.2,0-0.3,0-0.5l-1.5,0.1c0,0.1,0,0.2,0,0.2L591.7,189.6z M590.9,191.2c0.4-0.4,0.7-0.9,0.8-1.4l-1.5-0.3
	c0,0.3-0.2,0.5-0.4,0.7L590.9,191.2z M575.1,206l15.8-14.8l-1-1.1l-15.8,14.8L575.1,206z M574.3,206.5c0.3-0.1,0.5-0.3,0.8-0.5
	l-0.9-1.2c-0.2,0.1-0.4,0.3-0.6,0.4L574.3,206.5z M574,206.6l0.2-0.1l-0.7-1.3l-0.2,0.1L574,206.6z M573.3,206.9
	c0.2-0.1,0.5-0.2,0.7-0.3l-0.6-1.4c-0.2,0.1-0.4,0.2-0.6,0.3L573.3,206.9z M573.1,207l0.2-0.1l-0.5-1.4l-0.2,0.1L573.1,207z
	 M572.3,207.3c0.3-0.1,0.6-0.2,0.9-0.3l-0.5-1.4c-0.2,0.1-0.5,0.2-0.7,0.2L572.3,207.3z M572,207.3L572,207.3l0.1-1.5H572V207.3z
	 M570.9,207.5c0.4,0,0.9-0.1,1.3-0.2l-0.3-1.5c-0.4,0.1-0.7,0.1-1.1,0.2L570.9,207.5z M541,209.3l29.8-1.8l-0.1-1.5l-29.8,1.8
	L541,209.3z M536.7,208.5c1.3,0.7,2.8,1,4.3,0.8l-0.2-1.5c-1.2,0.1-2.4-0.1-3.5-0.6L536.7,208.5z M536.3,208.3l0.3,0.2l0.8-1.3
	l-0.3-0.2L536.3,208.3z M515.1,196l21.3,12.3l0.8-1.3l-21.3-12.3L515.1,196z M514.4,195.5c0.2,0.2,0.4,0.3,0.6,0.5l0.8-1.3
	c-0.1-0.1-0.3-0.2-0.4-0.3L514.4,195.5z M514.4,195.4L514.4,195.4l1.1-1l-0.1-0.1L514.4,195.4z M513.9,194.9
	c0.1,0.2,0.3,0.3,0.4,0.5l1-1.1c-0.1-0.1-0.2-0.2-0.3-0.3L513.9,194.9z M513.7,194.4L513.7,194.4l1.5,0.1v-0.1H513.7z M513.8,194.7
	C513.8,194.7,513.8,194.7,513.8,194.7l1.4-0.7c-0.1-0.1-0.2-0.3-0.3-0.4L513.8,194.7z M513.6,194.4c0.1,0.2,0.2,0.3,0.4,0.4l0.7-1.3
	c0.1,0.1,0.2,0.1,0.2,0.3L513.6,194.4z M513.5,193.9c0,0.2,0,0.4,0.1,0.5l1.3-0.7c0.1,0.1,0.1,0.2,0.1,0.4L513.5,193.9z M513.4,194
	c0,0.1,0.1,0.2,0.2,0.3l1.3-0.8c0,0,0-0.1-0.1-0.1L513.4,194z M513.4,193.6c0,0.1,0,0.2,0,0.3l1.5-0.1c0,0,0,0,0,0L513.4,193.6z
	 M513.3,193.7c0,0.1,0.1,0.3,0.2,0.4l1.1-1c0,0,0.1,0.1,0.1,0.2L513.3,193.7z M513.3,193.3c0,0.2,0,0.3,0,0.4l1.4-0.5
	c0,0.1,0,0.1,0,0.2L513.3,193.3z M513.3,186.5v6.9h1.5v-6.9H513.3z M514.8,186.4c0-0.1,0-0.1-0.1-0.2l-1.5,0.4
	c0,0.1,0.1,0.2,0.1,0.3L514.8,186.4z M514.9,186.8C514.9,186.8,514.9,186.8,514.9,186.8l-1.5-0.1c0,0.1,0,0.2,0,0.3L514.9,186.8z
	 M514.9,186.8l-0.1-0.2l-1.4,0.6l0.1,0.2L514.9,186.8z M515,186.8l-0.1-0.1l-1.3,0.7l0.1,0.1L515,186.8z M515.1,187l-0.2-0.2
	l-1.2,0.8l0.2,0.2L515.1,187z M515.1,187.1L515,187l-1.2,0.9l0.1,0.1L515.1,187.1z M515.4,187.4c-0.1-0.1-0.2-0.2-0.3-0.3L514,188
	c0.1,0.2,0.3,0.3,0.5,0.5L515.4,187.4z M515.5,187.5L515.5,187.5l-1.1,1l0.1,0.1L515.5,187.5z M515.9,187.8
	c-0.1-0.1-0.3-0.2-0.4-0.3l-0.9,1.2c0.2,0.1,0.3,0.3,0.6,0.4L515.9,187.8z M537.2,200.1l-21.3-12.3l-0.8,1.3l21.3,12.3L537.2,200.1z
	 M537.6,200.3l-0.3-0.2l-0.8,1.3l0.3,0.2L537.6,200.3z M541,200.9c-1.2,0.1-2.4-0.1-3.5-0.6l-0.7,1.3c1.3,0.7,2.8,1,4.3,0.8
	L541,200.9z M570.9,199.1l-29.8,1.8l0.1,1.5l29.8-1.8L570.9,199.1z M571.9,198.9c-0.4,0.1-0.7,0.1-1.1,0.2l0.2,1.5
	c0.4,0,0.9-0.1,1.3-0.2L571.9,198.9z M572.7,198.7c-0.3,0.1-0.5,0.2-0.8,0.2l0.3,1.5c0.3-0.1,0.6-0.2,0.9-0.3L572.7,198.7z
	 M572.9,198.6l-0.2,0.1l0.5,1.4l0.2-0.1L572.9,198.6z M573.5,198.4c-0.2,0.1-0.4,0.2-0.6,0.2l0.5,1.4c0.3-0.1,0.5-0.2,0.8-0.3
	L573.5,198.4z M573.7,198.3l-0.2,0.1l0.6,1.4l0.2-0.1L573.7,198.3z M574.3,197.9c-0.2,0.1-0.4,0.3-0.6,0.4l0.7,1.3
	c0.3-0.1,0.5-0.3,0.8-0.5L574.3,197.9z M590,183.2L574.2,198l1,1.1l15.8-14.8L590,183.2z M590.9,182.3l0.7,0c0-0.4-0.4-0.7-0.8-0.7
	s-0.7,0.3-0.7,0.7H590.9z M590.9,189.2h-0.8c0,0,0,0,0,0.1L590.9,189.2z M590.9,189.6l0.7,0.1c0,0,0-0.1,0-0.1L590.9,189.6z
	 M590.4,190.6l0.5,0.5c0,0,0,0,0,0L590.4,190.6z M574.6,205.4l0.4,0.6c0,0,0.1,0,0.1-0.1L574.6,205.4z M573.9,205.8l0.3,0.7l0,0
	L573.9,205.8z M573.7,206l0.3,0.7c0,0,0,0,0,0L573.7,206z M573,206.2l0.3,0.7l0,0L573,206.2z M572.9,206.3l0.3,0.7l0,0L572.9,206.3z
	 M572.1,206.5v0.8c0.1,0,0.1,0,0.2,0L572.1,206.5z M572,206.5v-0.8c-0.1,0-0.1,0-0.2,0L572,206.5z M570.8,206.7l0,0.7c0,0,0,0,0,0
	L570.8,206.7z M541,208.6l0-0.7c0,0,0,0,0,0L541,208.6z M537.1,207.9l-0.4,0.6c0,0,0,0,0.1,0L537.1,207.9z M536.7,207.6l0.4-0.6
	c0,0,0,0,0,0L536.7,207.6z M515.4,195.3L515,196c0,0,0,0,0,0L515.4,195.3z M514.9,194.9l0.5-0.6l0,0L514.9,194.9z M514.9,194.9
	l-0.5,0.5c0,0,0,0,0,0L514.9,194.9z M514.5,194.4h-0.8c0,0.2,0.1,0.3,0.2,0.5L514.5,194.4z M514.5,194.4h0.8c0-0.1,0-0.2-0.1-0.4
	L514.5,194.4z M514.3,194.1l0.5-0.5c0-0.1-0.1-0.1-0.2-0.1L514.3,194.1z M514.2,194l0.7,0.1c0-0.2,0-0.3-0.1-0.5L514.2,194z
	 M514.1,193.8l-0.7,0.1c0,0.1,0,0.1,0,0.2L514.1,193.8z M514.1,193.6l0.7,0.1c0-0.2,0-0.4-0.2-0.6L514.1,193.6z M514,193.4l0.7,0.1
	c0,0,0-0.1,0-0.1H514z M514,186.5l0.7-0.2c-0.1-0.4-0.4-0.6-0.8-0.6c-0.4,0-0.7,0.4-0.7,0.7H514z M514.1,186.7l0.7,0.1
	c0-0.1,0-0.2,0-0.3L514.1,186.7z M514.1,186.8l-0.7,0.1c0,0.1,0,0.2,0.1,0.3L514.1,186.8z M514.2,187.1l-0.7,0.3c0,0,0,0,0,0
	L514.2,187.1z M514.3,187.2l-0.7,0.4c0,0,0,0,0,0.1L514.3,187.2z M514.5,187.4l-0.6,0.4c0,0,0,0,0,0.1L514.5,187.4z M514.5,187.5
	l0.6-0.5l0,0L514.5,187.5z M514.9,188l-0.5,0.5c0,0,0,0,0,0L514.9,188z M515,188l-0.5,0.6c0,0,0,0,0,0L515,188z M515.5,188.4
	l-0.4,0.6c0,0,0,0,0,0L515.5,188.4z M536.8,200.8l0.4-0.6c0,0,0,0,0,0L536.8,200.8z M537.2,201l-0.4,0.6c0,0,0,0,0,0L537.2,201z
	 M541.1,201.7l0-0.7c0,0,0,0,0,0L541.1,201.7z M570.9,199.8l0,0.7c0,0,0,0,0,0L570.9,199.8z M572.1,199.6l-0.2-0.7l0,0L572.1,199.6z
	 M573,199.4l0.2,0.7c0,0,0,0,0,0L573,199.4z M573.1,199.3l-0.3-0.7l0,0L573.1,199.3z M573.8,199l-0.3-0.7c0,0,0,0,0,0L573.8,199z
	 M574,198.9l0.3,0.7c0,0,0,0,0,0L574,198.9z M574.7,198.5l0.4,0.6c0,0,0.1,0,0.1-0.1L574.7,198.5z"/>
<path class="st2" d="M579.4,163.6c0.5,0.3,0.9,0.6,1.3,1.1l10.1,16.5c0.2,0.4,0.3,0.9,0.3,1.3c-0.1,0.5-0.3,0.9-0.6,1.2l-15.8,14.8
	c-1.1,0.8-2.4,1.2-3.8,1.3l-29.8,1.8c-1.3,0.2-2.7-0.1-3.9-0.7l-0.3-0.2l-21.3-12.3c-0.4-0.2-0.8-0.6-1.1-1
	c-0.3-0.4-0.4-0.9-0.5-1.4l3.1-17.3c0.2-0.5,0.5-1,0.9-1.4c0.4-0.4,0.9-0.7,1.4-0.8l25.5-9.3c1.4-0.5,2.8-0.6,4.2-0.3l28.7,5.8
	C578.3,162.9,578.8,163.2,579.4,163.6z"/>
<path class="st1" d="M577.4,163.4c0.5,0.2,1,0.5,1.5,0.8l0.8-1.3c-0.6-0.4-1.2-0.7-1.8-0.9L577.4,163.4z M548.9,157.7l28.7,5.8
	l0.3-1.5l-28.7-5.8L548.9,157.7z M545.1,157.9c1.2-0.4,2.6-0.5,3.8-0.2l0.3-1.5c-1.5-0.3-3.1-0.2-4.6,0.3L545.1,157.9z M519.6,167.2
	l25.5-9.3l-0.5-1.4l-25.5,9.3L519.6,167.2z M518.4,167.9c0.3-0.3,0.7-0.5,1.1-0.6l-0.4-1.4c-0.6,0.2-1.2,0.5-1.7,1L518.4,167.9z
	 M517.7,168.9c0.2-0.4,0.4-0.8,0.7-1.1l-1-1.1c-0.5,0.5-0.9,1-1.1,1.6L517.7,168.9z M514.7,186.1l3.1-17.3l-1.5-0.3l-3.1,17.3
	L514.7,186.1z M515,187c-0.2-0.3-0.3-0.7-0.4-1.1l-1.5,0.1c0.1,0.6,0.3,1.2,0.6,1.8L515,187z M515.9,187.8c-0.3-0.2-0.6-0.5-0.8-0.8
	l-1.3,0.8c0.3,0.5,0.8,1,1.4,1.3L515.9,187.8z M537.2,200.1l-21.3-12.3l-0.8,1.3l21.3,12.3L537.2,200.1z M537.6,200.3l-0.3-0.2
	l-0.8,1.3l0.3,0.2L537.6,200.3z M541,200.9c-1.2,0.1-2.4-0.1-3.5-0.6l-0.7,1.3c1.3,0.7,2.8,1,4.3,0.8L541,200.9z M570.9,199.1
	l-29.8,1.8l0.1,1.5l29.8-1.8L570.9,199.1z M574.3,197.9c-1,0.7-2.2,1.1-3.4,1.2l0.1,1.5c1.5-0.1,2.9-0.6,4.2-1.4L574.3,197.9z
	 M590,183.2L574.2,198l1,1.1l15.8-14.8L590,183.2z M590.3,182.4c0,0.3-0.2,0.6-0.4,0.8l1.1,1c0.4-0.4,0.7-1,0.8-1.6L590.3,182.4z
	 M590.1,181.6c0.1,0.3,0.2,0.6,0.2,0.8l1.5,0.2c0.1-0.6-0.1-1.2-0.4-1.8L590.1,181.6z M580,165.1l10.1,16.5l1.3-0.8l-10.1-16.5
	L580,165.1z M579,164.2c0.4,0.2,0.7,0.5,1,0.9l1.2-0.9c-0.4-0.6-0.9-1-1.5-1.3L579,164.2z M577.7,162.7l0.3-0.7c0,0-0.1,0-0.1,0
	L577.7,162.7z M549,156.9l-0.2,0.7l0,0L549,156.9z M544.8,157.2l-0.2-0.7c0,0,0,0,0,0L544.8,157.2z M519.3,166.5l0.2,0.7
	c0,0,0,0,0,0L519.3,166.5z M517,168.7l-0.7-0.3c0,0,0,0.1,0,0.1L517,168.7z M513.9,186l-0.7-0.1c0,0.1,0,0.1,0,0.2L513.9,186z
	 M515.5,188.4l0.4-0.6l0,0L515.5,188.4z M536.8,200.8l0.4-0.6c0,0,0,0,0,0L536.8,200.8z M537.2,201l-0.4,0.6c0,0,0,0,0,0L537.2,201z
	 M541.1,201.7l0-0.7c0,0,0,0,0,0L541.1,201.7z M570.9,199.8l0,0.7l0,0L570.9,199.8z M574.7,198.5l0.4,0.6c0,0,0.1,0,0.1-0.1
	L574.7,198.5z M590.5,183.7l0.5,0.5c0,0,0,0,0,0L590.5,183.7z M590.8,181.2l0.6-0.4c0,0,0,0,0,0L590.8,181.2z M580.6,164.7l0.6-0.4
	c0,0,0,0,0,0L580.6,164.7z"/>
<path class="st18" d="M552.5,177.6l-1.6,0.1l-0.8,0.8l0.5,0.9l1.5,0.3l1.3-0.5l0.2-0.9L552.5,177.6 M563,178.5
	c-0.1-0.8-0.3-1.5-0.7-2.2c-0.4-0.7-1-1.2-1.6-1.6l-3.8,2.4c-0.1,0-0.1,0.1-0.2,0.1c0,0.1-0.1,0.1-0.1,0.2c0,0.1,0,0.2,0.1,0.2
	c0,0.1,0.1,0.1,0.2,0.1c0.2,0.1,0.3,0.1,0.5,0.2L563,178.5L563,178.5z M544.2,174.1c-0.2,0.2-0.5,0.3-0.7,0.5l4.9,1.6
	c0.6,0.2,1.4-0.1,1.4-0.5l-0.5-3.2C547.5,172.6,545.7,173.2,544.2,174.1z M558.7,173.5c-2.1-0.9-4.4-1.4-6.7-1.4l1,3.3
	c0,0.1,0.1,0.2,0.3,0.3c0.2,0.1,0.4,0.2,0.6,0.2s0.4-0.1,0.6-0.2L558.7,173.5L558.7,173.5z M559,183.5c0.3-0.1,0.5-0.3,0.8-0.4
	c1.3-0.7,2.3-1.7,2.9-3l-5.6-0.2c-0.7,0-1.2,0.4-0.9,0.8L559,183.5L559,183.5z M544.2,183.1c0.9,0.5,1.9,0.9,2.9,1.2l1.6-3.2
	c0.1-0.2,0-0.4-0.2-0.5c-0.3-0.1-0.6-0.2-0.9-0.1l-5.4,1C542.7,182.1,543.4,182.7,544.2,183.1L544.2,183.1z M546.5,178.6
	c0.6-0.2,0.8-0.6,0.3-0.9l-0.1-0.1l-4.7-1.8c-0.5,0.5-0.8,1.2-0.9,1.9c-0.1,0.7-0.1,1.4,0.2,2.1L546.5,178.6L546.5,178.6z
	 M549.7,184.8c2.3,0.3,4.7,0.1,7-0.5l-3.3-2.7c0,0-0.1-0.1-0.1-0.1c-0.2-0.1-0.5-0.2-0.8-0.2c-0.3,0-0.5,0.2-0.7,0.3L549.7,184.8
	L549.7,184.8z M562.7,187.1c0.3,0.3,0.2,0.7-0.3,0.9c-0.2,0.1-0.4,0.1-0.7,0.1c-0.2,0-0.5-0.1-0.7-0.2c-0.1,0-0.1-0.1-0.2-0.2
	l-1.2-1.5c-0.1-0.1-0.1-0.1-0.2-0.2c-0.2-0.1-0.3-0.1-0.5-0.2h-0.2c-0.1,0-0.1,0-0.2-0.1l-0.2-0.2c-3.1,0.9-6.4,1.1-9.6,0.6
	l-0.1,0.2c-0.1,0.1-0.1,0.1-0.2,0.1h-0.1c-0.1,0-0.2,0.1-0.3,0.1c-0.1,0.1-0.2,0.2-0.2,0.3l-0.6,1.6v0.1c-0.2,0.2-0.4,0.3-0.6,0.4
	c-0.2,0.1-0.5,0.1-0.7,0c-0.1,0-0.2-0.1-0.3-0.1c-0.1,0-0.1-0.1-0.2-0.1c-0.3-0.3-0.2-0.5-0.1-0.6l1.2-1.5c0,0,0.1-0.1,0.1-0.1
	c0,0,0-0.1,0-0.1s0-0.1,0-0.1c0,0,0-0.1-0.1-0.1l-0.1-0.1c0,0,0-0.1,0-0.1c0,0,0-0.1,0-0.1l0.1-0.2c-1.4-0.4-2.7-0.9-4-1.6
	c-1.1-0.6-2-1.4-2.8-2.3l-0.3,0.1h-0.4c-0.3-0.1-0.6-0.1-0.9,0l-2.5,0.7h-0.1c-0.4,0.1-0.8,0-1.1-0.1c-0.1-0.1-0.2-0.1-0.2-0.2
	c0-0.1-0.1-0.1-0.1-0.2s0-0.1,0.1-0.2c0.1-0.1,0.2-0.2,0.3-0.3c0.1-0.1,0.3-0.1,0.4-0.1l2.7-0.4c0.3,0,0.5-0.1,0.7-0.3l0-0.1
	c0.1-0.1,0.1-0.1,0.2-0.1l0.3-0.1c-0.4-0.9-0.5-1.9-0.3-2.9c0.2-1,0.6-1.9,1.3-2.6l-0.3-0.1c-0.1-0.1-0.1-0.1-0.2-0.1v-0.1
	c-0.1-0.1-0.2-0.2-0.3-0.3c-0.1-0.1-0.2-0.1-0.3-0.1l-2.5-0.7c-0.1,0-0.2-0.1-0.3-0.1c-0.3-0.2-0.4-0.5-0.2-0.8
	c0.1-0.1,0.3-0.2,0.5-0.2c0.3-0.1,0.7-0.1,1,0.1l2.2,1c0.3,0.1,0.6,0.1,0.9,0.1h0.1c0.1,0,0.2,0,0.3,0l0.3,0.1
	c0.4-0.3,0.8-0.6,1.2-0.8c2.1-1.2,4.5-1.9,6.9-2.2v-0.2c0,0,0-0.1,0-0.1c0,0,0,0,0.1-0.1l0.1-0.1c0.1,0,0.2-0.1,0.2-0.2
	c0-0.1,0-0.2,0-0.3l-0.7-1.6v-0.1c-0.1-0.4,0.3-0.7,0.9-0.7c0.2,0,0.4,0,0.7,0.1l0.3,0.1c0.2,0.1,0.3,0.3,0.3,0.4v1.6
	c0,0.1,0,0.2,0.1,0.2s0.1,0.1,0.2,0.2l0.1,0.1l0.1,0.1c0.1,0,0.1,0.1,0.1,0.1l0.1,0.2c3.2-0.1,6.3,0.5,9.2,1.9l0.3-0.2
	c0.1,0,0.2-0.1,0.3-0.1h0.1c0.3,0,0.6-0.1,0.8-0.2l1.7-1.3h0.1c0.2-0.1,0.5-0.2,0.8-0.2s0.5,0.1,0.8,0.2c0.1,0,0.1,0.1,0.2,0.1
	s0.1,0.1,0.1,0.2c0,0.1,0,0.2-0.1,0.3c-0.1,0.1-0.2,0.2-0.3,0.2l-2.2,1c-0.1,0-0.2,0.1-0.3,0.2c-0.1,0.1-0.1,0.2-0.1,0.3
	c0,0,0,0.1,0,0.1c0,0,0,0-0.1,0.1l-0.3,0.2c2.2,1.5,3.2,3.4,3.2,5.2h0.4c0.1,0,0.1,0,0.2,0.1l0.1,0.1c0.2,0.1,0.5,0.2,0.8,0.2h2.8
	c0.3,0,0.5,0.1,0.8,0.2c0.1,0,0.2,0.1,0.2,0.2c0.1,0.1,0.1,0.2,0.1,0.3c0,0.1-0.1,0.1-0.1,0.2s-0.1,0.1-0.2,0.1
	c-0.3,0.2-0.7,0.3-1,0.2l-2.7-0.4c-0.3,0-0.6,0-0.9,0.1l-0.1,0.1c-0.1,0-0.2,0-0.3,0h-0.4c-0.7,1.7-2.1,3.1-3.7,4
	c-0.4,0.2-0.9,0.5-1.3,0.7l0.2,0.2c0,0,0,0.1,0,0.1c0,0,0,0.1,0,0.1v0.1c0,0.1,0,0.2,0,0.3c0,0.1,0.1,0.2,0.2,0.2l1.8,1.3
	L562.7,187.1z"/>
<polygon class="st10" points="129.9,203.8 129.9,211.6 76.2,180.6 76.2,172.7 "/>
<path class="st1" d="M75.8,173.3l53.8,31.1l0.8-1.3L76.6,172L75.8,173.3z M76.9,180.6v-7.9h-1.5v7.9H76.9z M130.3,211l-53.8-31.1
	l-0.8,1.3l53.8,31.1L130.3,211z M129.2,203.8v7.9h1.5v-7.9H129.2z M76.2,172.7l0.4-0.6c-0.2-0.1-0.5-0.1-0.8,0
	c-0.2,0.1-0.4,0.4-0.4,0.6H76.2z M76.2,180.6h-0.8c0,0.3,0.1,0.5,0.4,0.6L76.2,180.6z M129.9,211.6l-0.4,0.6c0.2,0.1,0.5,0.1,0.8,0
	c0.2-0.1,0.4-0.4,0.4-0.6H129.9z M129.9,203.8h0.8c0-0.3-0.1-0.5-0.4-0.6L129.9,203.8z"/>
<polygon class="st10" points="183.4,172.7 129.9,203.8 129.9,211.6 183.4,180.6 "/>
<path class="st1" d="M184.1,180.6v-7.9h-1.5v7.9H184.1z M130.3,212.3l53.4-31.1l-0.8-1.3L129.6,211L130.3,212.3z M129.2,203.8v7.9
	h1.5v-7.9H129.2z M183,172l-53.4,31.1l0.8,1.3l53.4-31.1L183,172z M183.4,180.6l0.4,0.6c0.2-0.1,0.4-0.4,0.4-0.6H183.4z
	 M129.9,211.6h-0.8c0,0.3,0.1,0.5,0.4,0.7c0.2,0.1,0.5,0.1,0.8,0L129.9,211.6z M129.9,203.8l-0.4-0.6c-0.2,0.1-0.4,0.4-0.4,0.6
	H129.9z M183.4,172.7h0.8c0-0.3-0.1-0.5-0.4-0.7c-0.2-0.1-0.5-0.1-0.8,0L183.4,172.7z"/>
<polygon class="st2" points="183.4,172.7 129.9,203.8 76.2,172.7 129.6,141.6 "/>
<path class="st1" d="M129.2,142.3l53.8,31.1l0.8-1.3L130,141L129.2,142.3z M76.6,173.3l53.4-31.1l-0.8-1.3L75.8,172L76.6,173.3z
	 M130.3,203.1L76.6,172l-0.8,1.3l53.8,31.1L130.3,203.1z M183,172l-53.4,31.1l0.8,1.3l53.4-31.1L183,172z M129.6,141.6l0.4-0.6
	c-0.2-0.1-0.5-0.1-0.8,0L129.6,141.6z M76.2,172.7l-0.4-0.6c-0.2,0.1-0.4,0.4-0.4,0.6c0,0.3,0.1,0.5,0.4,0.6L76.2,172.7z
	 M129.9,203.8l-0.4,0.6c0.2,0.1,0.5,0.1,0.8,0L129.9,203.8z M183.4,172.7l0.4,0.6c0.2-0.1,0.4-0.4,0.4-0.6c0-0.3-0.1-0.5-0.4-0.6
	L183.4,172.7z"/>
<path d="M132.5,180.5c0.8,0.4,1.8,0.6,2.7,0.6s1.9-0.2,2.7-0.6c1.5-0.9,1.5-2.3,0-3.1l-1.4-0.8l1.3-0.6l0.4-0.2c2-1.1,1.9-3,0-4.1
	c-0.4-0.2-0.8-0.4-1.2-0.5l-1-0.3l0.3-0.7c0.5-1.3-0.1-2.7-1.8-3.6c-1.5-0.7-3.1-1.1-4.7-1.1s-3.2,0.4-4.7,1.1
	c-0.6,0.3-1,0.7-1.4,1.2l-0.5,0.8l-1.4-0.3c-1.4-0.3-2.8-0.1-4,0.5c-1.5,0.9-1.5,2.3,0,3.1l14.9,8.6 M140.7,176.6
	c1.9,1.5,1.7,3.7-0.7,5.1c-1.5,0.8-3.1,1.2-4.8,1.2c-1.7,0-3.3-0.4-4.8-1.2l-14.9-8.6c-2.7-1.5-2.7-4,0-5.6c1.8-0.9,3.9-1.3,5.9-1.1
	c0.4-0.4,0.9-0.8,1.5-1.1c2.1-1.1,4.4-1.6,6.8-1.6c2.4,0,4.7,0.6,6.8,1.6c2.1,1.2,3.1,2.9,2.8,4.6c0.3,0.1,0.7,0.3,1,0.5
	C143.1,172.1,143.3,174.8,140.7,176.6z"/>
<g>
	<g>
		<path class="st19" d="M336.5,310.8l4.6,2.7c0-0.2,0-0.4,0-0.6c0-0.2,0-0.4-0.1-0.6c0-0.2,0-0.4-0.1-0.6c0-0.2,0-0.3-0.1-0.5
			l1.4-0.8c0,0.4,0.1,0.8,0.1,1.3c0,0.4,0.1,0.9,0.1,1.3c0.4,0,0.8,0,1.2,0c0.5,0,0.9,0,1.4,0.1c0.5,0,0.9,0.1,1.4,0.1
			c0.4,0.1,0.8,0.1,1.2,0.2l-1.4,0.8c-0.3-0.1-0.7-0.1-1.1-0.1s-0.8-0.1-1.1-0.1c-0.4,0-0.8,0-1.2,0c-0.4,0-0.7,0-1,0l2.4,1.4
			l-1.2,0.7l-7.5-4.4L336.5,310.8z"/>
	</g>
	<g class="st20">
		<g>
			<path class="st19" d="M354.6,303.2c0.4-0.2,0.8-0.4,1.2-0.5c0.4-0.1,0.8-0.1,1.2-0.1c0.4,0,0.7,0.1,1.1,0.2
				c0.4,0.1,0.7,0.3,1.1,0.5l2.9,1.7l-1.2,0.7l-2.7-1.6c-0.3-0.2-0.5-0.3-0.8-0.4c-0.2-0.1-0.4-0.2-0.7-0.2s-0.4,0-0.6,0
				s-0.4,0.1-0.6,0.2c-0.2,0.1-0.3,0.2-0.4,0.3c-0.1,0.1-0.2,0.2-0.3,0.2l4.2,2.5l-1.2,0.7l-5.1-3c0.2-0.2,0.4-0.4,0.7-0.6
				C353.8,303.7,354.1,303.5,354.6,303.2z"/>
		</g>
		<g>
			<path class="st19" d="M350.5,305.6c0.1,0,0.2-0.1,0.3-0.2c0.1-0.1,0.2-0.1,0.3-0.2c0.1-0.1,0.2-0.1,0.4-0.1
				c0.1,0,0.2-0.1,0.3-0.1l0.8,0.7c-0.1,0-0.3,0.1-0.5,0.2c-0.2,0.1-0.4,0.2-0.7,0.3c-0.1,0.1-0.3,0.2-0.4,0.3
				c-0.1,0.1-0.2,0.2-0.2,0.2l4.2,2.5l-1.2,0.7l-5-2.9c0.1-0.2,0.3-0.4,0.6-0.6C349.8,306.1,350.1,305.8,350.5,305.6z"/>
		</g>
		<g>
			<path class="st19" d="M347.3,308.2c0.8,0,1.7,0.3,2.6,0.8c0.1,0,0.1,0.1,0.2,0.1c0.1,0.1,0.1,0.1,0.2,0.1l-3.4,2
				c0.4,0.2,0.9,0.3,1.4,0.3c0.5,0,1-0.2,1.5-0.4c0.3-0.2,0.5-0.3,0.7-0.5c0.2-0.2,0.3-0.3,0.4-0.4l1.1,0.5c0,0.1-0.1,0.1-0.2,0.2
				c-0.1,0.1-0.2,0.2-0.3,0.3c-0.1,0.1-0.3,0.2-0.4,0.3c-0.2,0.1-0.3,0.2-0.5,0.3c-0.5,0.3-0.9,0.4-1.4,0.6
				c-0.5,0.1-0.9,0.2-1.4,0.1c-0.5,0-0.9-0.1-1.3-0.2c-0.4-0.1-0.8-0.3-1.2-0.5c-0.5-0.3-0.8-0.5-1-0.8c-0.2-0.3-0.3-0.6-0.3-0.8
				c0-0.3,0.1-0.5,0.2-0.7c0.2-0.2,0.4-0.4,0.7-0.6C345.7,308.3,346.5,308.1,347.3,308.2z M346.1,310.7l2.2-1.3
				c-0.2-0.1-0.3-0.2-0.5-0.2c-0.2-0.1-0.4-0.1-0.6-0.1c-0.2,0-0.4,0-0.6,0c-0.2,0-0.4,0.1-0.5,0.2c-0.2,0.1-0.3,0.2-0.4,0.3
				c-0.1,0.1-0.1,0.2-0.1,0.4c0,0.1,0.1,0.2,0.2,0.4C345.8,310.5,346,310.6,346.1,310.7"/>
		</g>
	</g>
	<g>
		<path class="st19" d="M362.6,295.8l6,3.5c0.1,0.1,0.3,0.2,0.4,0.2c0.1,0,0.2,0.1,0.4,0.1c0.1,0,0.3,0,0.4,0c0.1,0,0.3-0.1,0.5-0.2
			l0.8,0.7c-0.4,0.2-0.7,0.3-1,0.4c-0.3,0.1-0.6,0.1-0.9,0.1c-0.3,0-0.5,0-0.8-0.1c-0.3-0.1-0.5-0.2-0.8-0.4l-6-3.5L362.6,295.8z"/>
	</g>
	<g>
		<path class="st19" d="M362.6,299.3c0.8,0,1.7,0.3,2.6,0.8c0.1,0,0.1,0.1,0.2,0.1c0.1,0.1,0.2,0.1,0.2,0.1l-3.4,2
			c0.4,0.2,0.9,0.3,1.4,0.3c0.5,0,1-0.2,1.5-0.4c0.3-0.2,0.5-0.3,0.7-0.5c0.2-0.2,0.3-0.3,0.4-0.4l1.1,0.5c0,0.1-0.1,0.1-0.2,0.2
			c-0.1,0.1-0.2,0.2-0.3,0.3c-0.1,0.1-0.3,0.2-0.4,0.3c-0.2,0.1-0.3,0.2-0.5,0.3c-0.5,0.3-0.9,0.4-1.4,0.6c-0.5,0.1-0.9,0.2-1.4,0.1
			c-0.5,0-0.9-0.1-1.3-0.2c-0.4-0.1-0.8-0.3-1.2-0.5c-0.5-0.3-0.8-0.5-1-0.8c-0.2-0.3-0.3-0.6-0.3-0.8c0-0.3,0.1-0.5,0.2-0.7
			c0.2-0.2,0.4-0.4,0.7-0.6C361,299.5,361.8,299.3,362.6,299.3z M361.4,301.9l2.2-1.3c-0.2-0.1-0.3-0.2-0.5-0.2
			c-0.2-0.1-0.4-0.1-0.6-0.1c-0.2,0-0.4,0-0.6,0c-0.2,0-0.4,0.1-0.5,0.2c-0.2,0.1-0.3,0.2-0.4,0.3c-0.1,0.1-0.1,0.2-0.1,0.4
			c0,0.1,0.1,0.2,0.2,0.4C361.1,301.7,361.2,301.8,361.4,301.9"/>
	</g>
</g>
</svg>
