<svg width="64" height="64" viewBox="0 0 64 64" fill="none" xmlns="http://www.w3.org/2000/svg">
<circle cx="32" cy="32" r="32" fill="#FFBF00"/>
<path fill-rule="evenodd" clip-rule="evenodd" d="M24.8049 17.1924C23.4419 17.1924 22.337 18.2973 22.337 19.6604C22.337 21.0234 23.4419 22.1283 24.8049 22.1283H39.6128C40.9758 22.1283 42.0808 21.0234 42.0808 19.6604C42.0808 18.2973 40.9758 17.1924 39.6128 17.1924H24.8049ZM37.4579 32.0001V24.5962H26.9523V32.0001L20.5307 41.0526C20.1356 41.6096 19.9086 42.2569 19.8738 42.9254C19.8391 43.594 19.9979 44.259 20.3334 44.8495C20.6689 45.44 21.1685 45.934 21.7791 46.2788C22.3896 46.6237 23.0882 46.8066 23.8006 46.808H40.6096C41.3226 46.8079 42.0222 46.626 42.6339 46.2817C43.2456 45.9374 43.7463 45.4435 44.0828 44.8527C44.4192 44.262 44.5787 43.5965 44.5443 42.9273C44.5099 42.2581 44.2828 41.6101 43.8873 41.0526L37.4579 32.0001Z" fill="white"/>
</svg>
