<svg width="384" height="224" viewBox="0 0 384 224" fill="none" xmlns="http://www.w3.org/2000/svg">
<mask id="mask0_3200_10204" style="mask-type:alpha" maskUnits="userSpaceOnUse" x="0" y="0" width="384" height="224">
<rect width="384" height="224" fill="url(#paint0_radial_3200_10204)"/>
</mask>
<g mask="url(#mask0_3200_10204)">
<rect x="-32" width="56" height="56" stroke="#E0E5EB"/>
<rect x="24" width="56" height="56" stroke="#E0E5EB"/>
<rect x="80" width="56" height="56" stroke="#E0E5EB"/>
<rect x="136" width="56" height="56" stroke="#E0E5EB"/>
<rect x="192" width="56" height="56" stroke="#E0E5EB"/>
<rect x="248" width="56" height="56" stroke="#E0E5EB"/>
<rect x="304" width="56" height="56" stroke="#E0E5EB"/>
<rect x="360" width="56" height="56" stroke="#E0E5EB"/>
<rect x="-32" y="56" width="56" height="56" stroke="#E0E5EB"/>
<rect x="24" y="56" width="56" height="56" stroke="#E0E5EB"/>
<rect x="80" y="56" width="56" height="56" stroke="#E0E5EB"/>
<rect x="136" y="56" width="56" height="56" stroke="#E0E5EB"/>
<rect x="192" y="56" width="56" height="56" stroke="#E0E5EB"/>
<rect x="248" y="56" width="56" height="56" stroke="#E0E5EB"/>
<rect x="304" y="56" width="56" height="56" stroke="#E0E5EB"/>
<rect x="360" y="56" width="56" height="56" stroke="#E0E5EB"/>
<rect x="-32" y="112" width="56" height="56" stroke="#E0E5EB"/>
<rect x="24" y="112" width="56" height="56" stroke="#E0E5EB"/>
<rect x="80" y="112" width="56" height="56" stroke="#E0E5EB"/>
<rect x="136" y="112" width="56" height="56" stroke="#E0E5EB"/>
<rect x="192" y="112" width="56" height="56" stroke="#E0E5EB"/>
<rect x="248" y="112" width="56" height="56" stroke="#E0E5EB"/>
<rect x="304" y="112" width="56" height="56" stroke="#E0E5EB"/>
<rect x="360" y="112" width="56" height="56" stroke="#E0E5EB"/>
<rect x="-32" y="168" width="56" height="56" stroke="#E0E5EB"/>
<rect x="24" y="168" width="56" height="56" stroke="#E0E5EB"/>
<rect x="80" y="168" width="56" height="56" stroke="#E0E5EB"/>
<rect x="136" y="168" width="56" height="56" stroke="#E0E5EB"/>
<rect x="192" y="168" width="56" height="56" stroke="#E0E5EB"/>
<rect x="248" y="168" width="56" height="56" stroke="#E0E5EB"/>
<rect x="304" y="168" width="56" height="56" stroke="#E0E5EB"/>
<rect x="360" y="168" width="56" height="56" stroke="#E0E5EB"/>
</g>
<path d="M52 163.5V194H332V105" stroke="#A7B1BE" stroke-width="3" stroke-linecap="round" stroke-linejoin="round" stroke-dasharray="0.01 10"/>
<rect x="80.5" y="56.5" width="223" height="111" fill="white"/>
<circle cx="52" cy="140" r="18" fill="#EB4748"/>
<g clip-path="url(#clip0_3200_10204)">
<path d="M52 140C54.4853 140 56.5 137.985 56.5 135.5C56.5 133.015 54.4853 131 52 131C49.5147 131 47.5 133.015 47.5 135.5C47.5 137.985 49.5147 140 52 140Z" fill="white"/>
<path d="M61 145.849C61.0019 145.419 60.8794 144.997 60.6473 144.634C60.4153 144.271 60.0834 143.983 59.6916 143.804C57.2663 142.749 54.6449 142.219 52 142.249C49.3551 142.219 46.7338 142.749 44.3084 143.804C43.9166 143.983 43.5848 144.271 43.3527 144.634C43.1206 144.997 42.9982 145.419 43 145.849V148.999H61V145.849Z" fill="white"/>
</g>
<rect x="52" y="93.192" width="13" height="13" transform="rotate(-135 52 93.192)" fill="white" stroke="#0073E6" stroke-width="5"/>
<circle cx="332" cy="84" r="18" fill="#FFBF00"/>
<g clip-path="url(#clip1_3200_10204)">
<path d="M332 84C334.485 84 336.5 81.9853 336.5 79.5C336.5 77.0147 334.485 75 332 75C329.515 75 327.5 77.0147 327.5 79.5C327.5 81.9853 329.515 84 332 84Z" fill="#141A1F"/>
<path d="M341 89.8493C341.002 89.4186 340.879 88.9966 340.647 88.6338C340.415 88.271 340.083 87.9829 339.692 87.804C337.266 86.7487 334.645 86.2188 332 86.2493C329.355 86.2188 326.734 86.7487 324.308 87.804C323.917 87.9829 323.585 88.271 323.353 88.6338C323.121 88.9966 322.998 89.4186 323 89.8493V92.9993H341V89.8493Z" fill="#141A1F"/>
</g>
<defs>
<radialGradient id="paint0_radial_3200_10204" cx="0" cy="0" r="1" gradientUnits="userSpaceOnUse" gradientTransform="translate(192 112) rotate(90) scale(112 192)">
<stop offset="0.0892857" stop-color="#F6F7F8"/>
<stop offset="1" stop-color="#F6F7F8" stop-opacity="0"/>
</radialGradient>
<clipPath id="clip0_3200_10204">
<rect width="18" height="18" fill="white" transform="translate(43 131)"/>
</clipPath>
<clipPath id="clip1_3200_10204">
<rect width="18" height="18" fill="white" transform="translate(323 75)"/>
</clipPath>
</defs>
</svg>
