<svg width="16" height="16" viewBox="0 0 16 16" fill="none" xmlns="http://www.w3.org/2000/svg">
<path fill-rule="evenodd" clip-rule="evenodd" d="M7.33316 2.66646C4.75583 2.66646 2.66649 4.7558 2.66649 7.33313C2.66649 9.91046 4.75583 11.9998 7.33316 11.9998C9.91049 11.9998 11.9998 9.91046 11.9998 7.33313C11.9998 4.7558 9.91049 2.66646 7.33316 2.66646ZM1.33316 7.33313C1.33316 4.01942 4.01945 1.33313 7.33316 1.33313C10.6469 1.33313 13.3332 4.01942 13.3332 7.33313C13.3332 10.6468 10.6469 13.3331 7.33316 13.3331C4.01945 13.3331 1.33316 10.6468 1.33316 7.33313Z" fill="black"/>
<path fill-rule="evenodd" clip-rule="evenodd" d="M10.6302 10.6302C10.8905 10.3698 11.3126 10.3698 11.573 10.6302L14.473 13.5302C14.7333 13.7905 14.7333 14.2127 14.473 14.473C14.2126 14.7334 13.7905 14.7334 13.5302 14.473L10.6302 11.573C10.3698 11.3127 10.3698 10.8905 10.6302 10.6302Z" fill="black"/>
</svg>
