<svg width="384" height="224" viewBox="0 0 384 224" fill="none" xmlns="http://www.w3.org/2000/svg">
<mask id="mask0_3200_10125" style="mask-type:alpha" maskUnits="userSpaceOnUse" x="0" y="0" width="384" height="224">
<rect width="384" height="224" fill="url(#paint0_radial_3200_10125)"/>
</mask>
<g mask="url(#mask0_3200_10125)">
<rect x="-32" width="56" height="56" stroke="#E0E5EB"/>
<rect x="24" width="56" height="56" stroke="#E0E5EB"/>
<rect x="80" width="56" height="56" stroke="#E0E5EB"/>
<rect x="136" width="56" height="56" stroke="#E0E5EB"/>
<rect x="192" width="56" height="56" stroke="#E0E5EB"/>
<rect x="248" width="56" height="56" stroke="#E0E5EB"/>
<rect x="304" width="56" height="56" stroke="#E0E5EB"/>
<rect x="360" width="56" height="56" stroke="#E0E5EB"/>
<rect x="-32" y="56" width="56" height="56" stroke="#E0E5EB"/>
<rect x="24" y="56" width="56" height="56" stroke="#E0E5EB"/>
<rect x="80" y="56" width="56" height="56" stroke="#E0E5EB"/>
<rect x="136" y="56" width="56" height="56" stroke="#E0E5EB"/>
<rect x="192" y="56" width="56" height="56" stroke="#E0E5EB"/>
<rect x="248" y="56" width="56" height="56" stroke="#E0E5EB"/>
<rect x="304" y="56" width="56" height="56" stroke="#E0E5EB"/>
<rect x="360" y="56" width="56" height="56" stroke="#E0E5EB"/>
<rect x="-32" y="112" width="56" height="56" stroke="#E0E5EB"/>
<rect x="24" y="112" width="56" height="56" stroke="#E0E5EB"/>
<rect x="80" y="112" width="56" height="56" stroke="#E0E5EB"/>
<rect x="136" y="112" width="56" height="56" stroke="#E0E5EB"/>
<rect x="192" y="112" width="56" height="56" stroke="#E0E5EB"/>
<rect x="248" y="112" width="56" height="56" stroke="#E0E5EB"/>
<rect x="304" y="112" width="56" height="56" stroke="#E0E5EB"/>
<rect x="360" y="112" width="56" height="56" stroke="#E0E5EB"/>
<rect x="-32" y="168" width="56" height="56" stroke="#E0E5EB"/>
<rect x="24" y="168" width="56" height="56" stroke="#E0E5EB"/>
<rect x="80" y="168" width="56" height="56" stroke="#E0E5EB"/>
<rect x="136" y="168" width="56" height="56" stroke="#E0E5EB"/>
<rect x="192" y="168" width="56" height="56" stroke="#E0E5EB"/>
<rect x="248" y="168" width="56" height="56" stroke="#E0E5EB"/>
<rect x="304" y="168" width="56" height="56" stroke="#E0E5EB"/>
<rect x="360" y="168" width="56" height="56" stroke="#E0E5EB"/>
</g>
<circle cx="332" cy="142" r="20" fill="#00877C"/>
<g clip-path="url(#clip0_3200_10125)">
<path d="M339.971 144.7L336.442 143.134C336.093 142.98 335.703 142.945 335.332 143.035C334.961 143.125 334.63 143.335 334.39 143.632L333.325 144.965C331.598 143.866 330.134 142.402 329.035 140.676L330.367 139.612C330.665 139.373 330.876 139.041 330.966 138.67C331.057 138.298 331.021 137.907 330.867 137.558L329.299 134.029C329.133 133.654 328.839 133.35 328.469 133.172C328.1 132.994 327.679 132.952 327.282 133.055L324.299 133.831C323.887 133.938 323.529 134.193 323.293 134.547C323.057 134.9 322.958 135.328 323.016 135.75C323.569 139.594 325.352 143.156 328.098 145.902C330.845 148.649 334.407 150.431 338.251 150.983C338.33 150.995 338.41 151 338.49 151C338.874 151 339.247 150.873 339.551 150.638C339.855 150.403 340.072 150.074 340.169 149.702L340.943 146.717C341.048 146.321 341.007 145.899 340.829 145.53C340.651 145.16 340.347 144.866 339.971 144.7Z" fill="white"/>
</g>
<rect x="266.102" y="84" width="14" height="14" transform="rotate(-45 266.102 84)" fill="#FFBF00"/>
<path d="M52 58.5V28H332V117" stroke="#A7B1BE" stroke-width="3" stroke-linecap="round" stroke-linejoin="round" stroke-dasharray="0.01 10"/>
<path d="M55.771 77.3418H48.1741L44.3594 84.0665L48.1567 90.7224H55.7699L59.5671 84.0665L55.771 77.3418ZM54.7576 88.8977H49.1665L46.3827 84.0487L49.1689 79.1487H54.76L57.5462 84.0487L54.7576 88.8977Z" fill="#141A1F"/>
<path d="M46.3828 84.0672L49.169 88.8996H54.7601L57.5638 84.0672L54.7601 79.0996H49.169L46.3828 84.0672Z" fill="#E83030"/>
<path d="M55.771 91.6377H48.1741L44.3594 98.3446L48.1567 105.001H55.7699L59.5671 98.3446L55.771 91.6377ZM54.7576 103.245H49.1665L46.3827 98.3956L49.1689 93.4957H54.76L57.5462 98.3956L54.7576 103.245Z" fill="#141A1F"/>
<path d="M46.3828 98.3453L49.169 103.245H54.7601L57.5638 98.3453L54.7601 93.4453H49.169L46.3828 98.3453Z" fill="#6B91C7"/>
<path d="M55.771 63H48.1741L44.3594 69.7247L48.1741 76.3807H55.7873L59.5846 69.7247L55.771 63ZM54.7576 74.5559H49.1665L46.3827 69.7069L49.1689 64.7571H54.76L57.5462 69.6571L54.7576 74.5559Z" fill="#141A1F"/>
<path d="M46.3828 69.7225L49.169 74.5549H54.7601L57.5638 69.7225L54.7601 64.7549H49.169L46.3828 69.7225Z" fill="#F9C31F"/>
<path d="M68.1227 84.542H60.5863L56.7891 91.2667L60.5863 97.9226H68.1995L71.9968 91.2667L68.1227 84.542ZM67.1093 96.1264H61.5182L58.732 91.2774L61.5182 86.3774H67.1093L69.8955 91.2774L67.1093 96.1264Z" fill="#141A1F"/>
<path d="M58.7265 91.2889L61.5528 96.1379H67.1285L69.9823 91.2889L67.1285 86.3213H61.5528L58.7265 91.2889Z" fill="#795AA5"/>
<path d="M68.1227 70.1973H60.5863L56.7891 76.8532L60.5863 83.5091H68.1995L71.9968 76.8532L68.1227 70.1973ZM67.1093 81.7698H61.5182L58.732 76.9208L61.5182 72.0208H67.1093L69.8955 76.9208L67.1093 81.7698Z" fill="#141A1F"/>
<path d="M58.7266 76.9247L61.508 81.8391H67.1286L69.9824 76.9901L67.1286 72.0225L61.508 72.0225L58.7266 76.9247Z" fill="#F17423"/>
<path d="M43.3453 84.542H35.7973L32 91.2667L35.7973 97.9226H43.4105L47.2078 91.2667L43.3453 84.542ZM42.3319 96.1157H36.8083L34.0221 91.2667L36.8083 86.3667H42.3994L45.1857 91.2667L42.3319 96.1157Z" fill="#141A1F"/>
<path d="M34.0195 91.2645L36.8058 96.1135H42.3293L45.1831 91.2645L42.3293 86.2969H36.8058L34.0195 91.2645Z" fill="#97C639"/>
<path d="M43.3453 70.1973H35.7973L32 76.8532L35.7973 83.5091H43.4105L47.2078 76.8532L43.3453 70.1973ZM42.3319 81.771H36.8083L34.0221 76.922L36.8083 72.022H42.3994L45.1857 76.922L42.3319 81.771Z" fill="#141A1F"/>
<path d="M34.0195 76.9227L36.8058 81.7717H42.3293L45.1831 76.9227L42.3293 71.9551H36.8058L34.0195 76.9227Z" fill="#C9DB70"/>
<rect x="136.5" y="56.5" width="111" height="111" fill="white"/>
<rect x="101.5" y="133.5" width="13" height="13" fill="white" stroke="#EB4748" stroke-width="5"/>
<defs>
<radialGradient id="paint0_radial_3200_10125" cx="0" cy="0" r="1" gradientUnits="userSpaceOnUse" gradientTransform="translate(192 112) rotate(90) scale(112 192)">
<stop offset="0.0892857" stop-color="#F6F7F8"/>
<stop offset="1" stop-color="#F6F7F8" stop-opacity="0"/>
</radialGradient>
<clipPath id="clip0_3200_10125">
<rect width="18" height="18" fill="white" transform="translate(323 133)"/>
</clipPath>
</defs>
</svg>
