<svg xmlns="http://www.w3.org/2000/svg" width="118" height="42" fill="none" viewBox="0 0 118 42"><path fill="#141A1F" d="M23.79 14.344h-7.604l-3.818 6.725 3.8 6.656h7.62l3.8-6.656zM22.775 25.9H17.18l-2.786-4.849 2.789-4.9h5.596l2.788 4.9z"></path><path fill="#E83030" d="M14.392 21.068 17.18 25.9h5.596l2.806-4.832-2.806-4.968H17.18z"></path><path fill="#141A1F" d="M23.79 28.637h-7.604l-3.818 6.707 3.8 6.656h7.62l3.8-6.656zm-1.015 11.607H17.18l-2.786-4.849 2.789-4.9h5.596l2.788 4.9z"></path><path fill="#6B91C7" d="m14.392 35.344 2.788 4.9h5.596l2.806-4.9-2.806-4.9H17.18z"></path><path fill="#141A1F" d="M23.79 0h-7.604l-3.818 6.725 3.818 6.656h7.62l3.8-6.656zm-1.015 11.556H17.18l-2.786-4.849 2.789-4.95h5.596l2.788 4.9z"></path><path fill="#F9C31F" d="m14.392 6.723 2.788 4.833h5.596l2.806-4.833-2.806-4.967H17.18z"></path><path fill="#141A1F" d="M36.159 21.541h-7.543l-3.8 6.725 3.8 6.656h7.62l3.8-6.656zm-1.015 11.585H29.55l-2.789-4.85 2.789-4.9h5.595l2.789 4.9z"></path><path fill="#795AA5" d="m26.747 28.29 2.829 4.85h5.58l2.856-4.85-2.856-4.967h-5.58z"></path><path fill="#141A1F" d="M36.159 7.197h-7.543l-3.8 6.656 3.8 6.656h7.62l3.8-6.656zM35.144 18.77H29.55l-2.789-4.85 2.789-4.9h5.595l2.789 4.9z"></path><path fill="#F17423" d="m26.747 13.924 2.784 4.914h5.625l2.856-4.849-2.856-4.968h-5.625z"></path><path fill="#141A1F" d="M11.355 21.541H3.8L0 28.266l3.8 6.656h7.62l3.8-6.656zM10.34 33.115H4.812l-2.788-4.85 2.788-4.9h5.596l2.789 4.9z"></path><path fill="#97C639" d="m2.023 28.265 2.789 4.849h5.528l2.856-4.85-2.856-4.967H4.812z"></path><path fill="#141A1F" d="M11.355 7.197H3.8L0 13.853l3.8 6.656h7.62l3.8-6.656zM10.34 18.771H4.812l-2.788-4.85 2.788-4.9h5.596l2.789 4.9z"></path><path fill="#C9DB70" d="m2.023 13.92 2.789 4.85h5.528l2.856-4.85-2.856-4.967H4.812z"></path><path fill="#FFFFFF" d="M57.088 14.074c.62.004 1.239.075 1.844.213.574.124 1.06.35 1.53.587v1.838a16 16 0 0 0-1.6-.498c-.538-.125-1.024-.214-1.564-.214s-1.06.089-1.6.25c-.54.16-.99.462-1.443.888-.417.427-.748.961-1.025 1.637-.243.676-.364 1.512-.364 2.525 0 .7.086 1.398.296 2.027.187.585.482 1.129.869 1.6.383.463.869.801 1.391 1.05q.861.372 1.982.372c.538 0 1.059-.035 1.651-.16q.815-.2 1.6-.498v1.85c-.156.088-.364.213-.608.302-.244.09-.539.16-.869.25-.296.088-.608.124-.99.16l-1.026.088a7.3 7.3 0 0 1-2.556-.427 6.9 6.9 0 0 1-2.105-1.262 6.15 6.15 0 0 1-1.391-2.188c-.342-.889-.539-1.887-.539-3.112 0-.89.087-1.69.296-2.4a6.2 6.2 0 0 1 .749-1.887c.33-.536.683-1.014 1.112-1.398a6.4 6.4 0 0 1 1.355-.925c.486-.249.991-.426 1.478-.55l1.53-.143zm6.904-2.775v-2.49h2.163v2.49zM64.026 28V14.447h2.163v13.564zm6.625.011V7.35h2.164v20.661zM77.23 11.3v-2.49h2.163v2.49zM77.264 28V14.447h2.164v13.564zm11.784.349a8 8 0 0 1-1.844-.213 6.4 6.4 0 0 1-1.443-.622c-.416-.303-.782-.587-1.059-1.014a3.9 3.9 0 0 1-.683-1.262 8 8 0 0 1-.296-1.138l-.087-1.352v-8.287H85.8v8.287c0 .766.087 1.398.296 1.888.209.587.574 1.013 1.06 1.35.484.339 1.147.5 1.894.5.818 0 1.478-.16 1.981-.552.488-.372.87-.836 1.06-1.476.156-.462.243-1.048.243-1.724v-8.293h2.164v8.324q0 .634-.087 1.262a4.3 4.3 0 0 1-.243 1.085c-.156.462-.417.889-.684 1.299-.296.373-.66.699-1.059 1.013-.416.303-.904.499-1.478.676a7.1 7.1 0 0 1-1.895.249zm20.31-.35h-2.164v-8.725a5.4 5.4 0 0 0-.208-1.512c-.122-.427-.296-.766-.539-1.014a2.4 2.4 0 0 0-.869-.587c-.342-.124-.683-.16-1.112-.16a3.76 3.76 0 0 0-2.105.623 6.4 6.4 0 0 0-1.685 1.76v9.641H98.52V14.448h1.685l.417 1.887h.034l.783-.89c.296-.248.608-.498.939-.698a3.7 3.7 0 0 1 1.148-.463c.417-.124.869-.16 1.367-.16.99 0 1.808.25 2.468.7.661.498 1.148 1.138 1.531 1.974h.034c.574-.836 1.27-1.512 2.016-1.974.746-.463 1.651-.7 2.626-.7.452 0 .939.09 1.478.214.538.125.991.373 1.443.699s.782.836 1.059 1.476c.296.622.452 1.423.452 2.437v9.089h-2.086v-8.733a5.5 5.5 0 0 0-.209-1.512c-.122-.426-.296-.765-.539-1.013a2.44 2.44 0 0 0-.868-.587c-.342-.125-.684-.16-1.113-.16-.782 0-1.478.213-2.104.622a7.1 7.1 0 0 0-1.722 1.761z"></path></svg>