<svg width="592" height="352" viewBox="0 0 592 352" fill="none" xmlns="http://www.w3.org/2000/svg">
<rect x="0.5" y="0.5" width="591" height="351" rx="11.5" fill="white" stroke="#E0E5EB"/>
<rect y="59" width="1" height="592" transform="rotate(-90 0 59)" fill="#E0E5EB"/>
<rect y="118" width="1" height="592" transform="rotate(-90 0 118)" fill="#E0E5EB"/>
<rect y="177" width="1" height="592" transform="rotate(-90 0 177)" fill="#E0E5EB"/>
<rect y="236" width="1" height="592" transform="rotate(-90 0 236)" fill="#E0E5EB"/>
<rect y="295" width="1" height="592" transform="rotate(-90 0 295)" fill="#E0E5EB"/>
<rect x="59" width="1" height="352" fill="#E0E5EB"/>
<rect x="118" width="1" height="352" fill="#E0E5EB"/>
<rect x="177" width="1" height="352" fill="#E0E5EB"/>
<rect x="236" width="1" height="352" fill="#E0E5EB"/>
<rect x="295" width="1" height="352" fill="#E0E5EB"/>
<rect x="354" width="1" height="352" fill="#E0E5EB"/>
<rect x="413" width="1" height="352" fill="#E0E5EB"/>
<rect x="472" width="1" height="352" fill="#E0E5EB"/>
<rect x="531" width="1" height="352" fill="#E0E5EB"/>
<path d="M374 313L384 323M394 333L384 323M384 323L394 313M384 323L374 333" stroke="#D1D7E0" stroke-width="3"/>
<circle cx="207" cy="323" r="13" stroke="#D1D7E0" stroke-width="3"/>
<path d="M178 59H413V294H178V59Z" fill="white"/>
<path d="M93.5 265H149V28H502V74.5" stroke="#A7B1BE" stroke-width="3" stroke-linecap="round" stroke-linejoin="round" stroke-dasharray="0.01 10"/>
<path d="M481 88.0234L490.231 106H513.769L523 88.0234L513.769 70H490.231L481 88.0234Z" fill="#EB4748"/>
<circle cx="502" cy="88" r="10" fill="white"/>
<circle cx="295.5" cy="176.5" r="110.5" fill="white" stroke="#0073E6" stroke-width="6"/>
<rect x="238" y="116" width="116" height="120" stroke="#0073E6" stroke-width="2"/>
<rect x="233" y="111" width="11" height="11" fill="white" stroke="#0073E6" stroke-width="2"/>
<rect x="233" y="230" width="11" height="11" fill="white" stroke="#0073E6" stroke-width="2"/>
<rect x="348" y="111" width="11" height="11" fill="white" stroke="#0073E6" stroke-width="2"/>
<rect x="348" y="230" width="11" height="11" fill="white" stroke="#0073E6" stroke-width="2"/>
<path d="M278 176.221L286.971 192H304.973L314 176.221L304.973 160H286.971L278 176.221Z" fill="#E83030" stroke="#141A1F" stroke-width="4"/>
<path d="M278 216L286.971 232H304.973L314 216L304.973 200H286.971L278 216Z" fill="#6B91C7" stroke="#141A1F" stroke-width="4"/>
<path d="M278 136.221L286.971 152H304.973L314 136.221L304.973 120H286.971L278 136.221Z" fill="#F9C31F" stroke="#141A1F" stroke-width="4"/>
<path d="M314 196.193L323.039 212H340.873L350 196.193L340.873 180H323.039L314 196.193Z" fill="#795AA5" stroke="#141A1F" stroke-width="4"/>
<path d="M314 155.98L322.896 172H340.873L350 156.193L340.873 140L322.896 140L314 155.98Z" fill="#F17423" stroke="#141A1F" stroke-width="4"/>
<path d="M242 196.193L250.985 212H268.797L278 196.193L268.797 180H250.985L242 196.193Z" fill="#97C639" stroke="#141A1F" stroke-width="4"/>
<path d="M242 156.193L250.985 172H268.797L278 156.193L268.797 140H250.985L242 156.193Z" fill="#C9DB70" stroke="#141A1F" stroke-width="4"/>
<path d="M1 12C1 5.92487 5.92487 1 12 1H118V117H1V12Z" fill="white"/>
<path d="M591 340C591 346.075 586.075 351 580 351L473 351L473 236L591 236L591 340Z" fill="white"/>
<rect x="492" y="333" width="80" height="80" transform="rotate(-90 492 333)" fill="#FFBF00"/>
<circle cx="532" cy="293" r="32" fill="white"/>
<path d="M544.5 273.625H526.658C521.274 273.625 516.64 277.763 516.387 283.142C516.321 284.494 516.531 285.846 517.004 287.115C517.476 288.383 518.201 289.543 519.135 290.523C520.069 291.504 521.193 292.284 522.437 292.817C523.682 293.35 525.021 293.625 526.375 293.625H527.625V311.75C527.625 311.916 527.691 312.075 527.808 312.192C527.926 312.309 528.085 312.375 528.25 312.375H529.5C529.666 312.375 529.825 312.309 529.942 312.192C530.06 312.075 530.125 311.916 530.125 311.75V276.125H537.625V311.75C537.625 311.916 537.691 312.075 537.808 312.192C537.926 312.309 538.085 312.375 538.25 312.375H539.5C539.666 312.375 539.825 312.309 539.942 312.192C540.06 312.075 540.125 311.916 540.125 311.75V276.125H544.5C544.666 276.125 544.825 276.059 544.942 275.942C545.06 275.825 545.125 275.666 545.125 275.5V274.25C545.125 274.084 545.06 273.925 544.942 273.808C544.825 273.691 544.666 273.625 544.5 273.625Z" fill="#212121"/>
<rect x="6.82843" y="59" width="74" height="74" transform="rotate(-45 6.82843 59)" fill="#00877C" fill-opacity="0.05" stroke="#00877C" stroke-width="4"/>
<path fill-rule="evenodd" clip-rule="evenodd" d="M51.0782 70.4176C50.5362 68.3665 48.8186 62.6855 45.5226 58.6648C44.9533 57.9703 44.8208 56.9867 45.2661 56.2068C52.2249 44.0191 54.2772 40.4636 54.8824 39.4264C55.0215 39.1881 55.359 38.9997 55.635 39L58.0388 39.0027V53.7552C56.37 54.187 55.1365 55.7158 55.1365 57.5355C55.1365 59.6907 56.8668 61.4379 59.0012 61.4379C61.1356 61.4379 62.8659 59.6907 62.8659 57.5355C62.8659 55.7188 61.6364 54.192 59.9717 53.7573V39.0048L62.3625 39.0075C62.6389 39.0078 62.9775 39.1972 63.1168 39.4358C63.7229 40.4738 65.7764 44.0291 72.7338 56.2067C73.1794 56.9866 73.047 57.9705 72.4776 58.6651C69.1817 62.6858 67.4643 68.3665 66.9223 70.4176C66.8024 70.8715 66.3953 71.1941 65.9258 71.1941H52.0747C51.6052 71.1941 51.1981 70.8715 51.0782 70.4176Z" fill="#00877C"/>
<path d="M48.375 76.1475C48.375 74.4906 49.7181 73.1475 51.375 73.1475H66.6309C68.2878 73.1475 69.6309 74.4906 69.6309 76.1475V78.0009C69.6309 78.5532 69.1832 79.0009 68.6309 79.0009H49.375C48.8227 79.0009 48.375 78.5532 48.375 78.0009V76.1475Z" fill="#00877C"/>
<rect x="71" y="247" width="36" height="36" fill="#0073E6"/>
<circle cx="89" cy="265" r="9" fill="white"/>
<rect x="526" y="170" width="12" height="12" fill="#00877C"/>
<rect x="54" y="170" width="12" height="12" fill="#FFBF00"/>
</svg>
