<svg width="64" height="64" viewBox="0 0 64 64" fill="none" xmlns="http://www.w3.org/2000/svg">
<path fill-rule="evenodd" clip-rule="evenodd" d="M32 64C49.6731 64 64 49.6731 64 32C64 14.3269 49.6731 0 32 0C14.3269 0 0 14.3269 0 32C0 49.6731 14.3269 64 32 64ZM22.3077 14.7695H44.9231C45.5186 14.7695 46 15.252 46 15.8465V41.6926V48.1541C46 48.7486 45.5186 49.2311 44.9231 49.2311H22.3077C19.932 49.2311 18 47.2991 18 44.9234V19.0772C18 16.7015 19.932 14.7695 22.3077 14.7695ZM40.6154 18.0003H32V29.8465L36.3077 26.6157L40.6154 29.8465V18.0003ZM22.3077 47.0772H43.8462V42.7695H22.3077C21.1198 42.7695 20.1538 43.7355 20.1538 44.9234C20.1538 46.1112 21.1198 47.0772 22.3077 47.0772Z" fill="#00877C"/>
</svg>
