<svg width="64" height="64" viewBox="0 0 64 64" fill="none" xmlns="http://www.w3.org/2000/svg">
<circle cx="32" cy="32" r="32" fill="#0073E6"/>
<ellipse cx="32" cy="31.9999" rx="19" ry="16" fill="white"/>
<path d="M44 47.9999V39.9999L32 47.9999H44Z" fill="white"/>
<path d="M29.712 35.3904V35.0398C29.712 34.0707 29.7919 33.2982 29.9515 32.7224C30.1169 32.1467 30.3564 31.6849 30.67 31.3372C30.9836 30.9837 31.3656 30.6616 31.8161 30.3709C32.1753 30.1429 32.4947 29.912 32.7741 29.6783C33.0592 29.4388 33.2844 29.1823 33.4498 28.9087C33.6151 28.635 33.6978 28.3243 33.6978 27.9766C33.6978 27.6403 33.618 27.3438 33.4583 27.0873C33.2986 26.8308 33.0791 26.6341 32.7997 26.4973C32.526 26.3547 32.221 26.2835 31.8845 26.2835C31.5481 26.2835 31.2316 26.3604 30.9351 26.5144C30.6443 26.6683 30.4048 26.8878 30.2167 27.1728C30.0342 27.4521 29.9401 27.7913 29.9344 28.1904H26C26.0171 26.9932 26.2937 26.0127 26.8297 25.2488C27.3713 24.4849 28.087 23.9205 28.9765 23.5557C29.866 23.1852 30.8468 22.9999 31.9187 22.9999C33.0934 22.9999 34.1368 23.1823 35.0492 23.5471C35.9672 23.912 36.6885 24.4507 37.2131 25.1633C37.7377 25.8759 38 26.7481 38 27.7799C38 28.4583 37.886 29.0569 37.6579 29.5756C37.4298 30.0944 37.1105 30.5533 36.6999 30.9524C36.2951 31.3457 35.819 31.7049 35.2716 32.0298C34.8439 32.2806 34.4875 32.5429 34.2024 32.8165C33.923 33.0901 33.712 33.4037 33.5695 33.7571C33.4269 34.1049 33.3557 34.5324 33.3557 35.0398V35.3904H29.712ZM31.6023 40.9999C30.9865 40.9999 30.459 40.7833 30.02 40.35C29.5866 39.9167 29.3728 39.3923 29.3785 38.7766C29.3728 38.1723 29.5866 37.6564 30.02 37.2289C30.459 36.7956 30.9865 36.579 31.6023 36.579C32.1896 36.579 32.7056 36.7956 33.1504 37.2289C33.5952 37.6564 33.8204 38.1723 33.8261 38.7766C33.8204 39.187 33.712 39.5604 33.5011 39.8968C33.2958 40.2331 33.0249 40.5011 32.6885 40.7006C32.3578 40.9001 31.9957 40.9999 31.6023 40.9999Z" fill="#0073E6"/>
</svg>
