<svg width="215" height="45" viewBox="0 0 215 57" fill="none" xmlns="http://www.w3.org/2000/svg">
<g clip-path="url(#clip0_847_1540)">
<path d="M23.6871 0H0V57L23.6871 0Z" fill="#6C7993"/>
<path d="M40.3525 0H64.0088V57L40.3525 0Z" fill="#6C7993"/>
<path d="M32.0205 21.0083L47.0969 57.0001H37.2054L32.6994 45.5411H21.666L32.0205 21.0083Z" fill="#6C7993"/>
<path d="M102.653 36.2486L105.446 44.3071C105.538 44.509 105.677 44.6022 105.924 44.6022H111.294C111.588 44.6022 111.634 44.4624 111.588 44.1674L100.492 13.1598C100.446 12.9113 100.4 12.8647 100.153 12.8647H93.4865C93.3014 12.8647 93.1933 13.0045 93.1933 13.2063C93.1007 14.8367 92.9619 15.3336 92.7612 15.8149L82.8697 44.1208C82.8234 44.4624 82.9315 44.6021 83.2092 44.6021H88.0084C88.3016 44.6021 88.4405 44.509 88.5485 44.214L91.1873 36.2486H102.653ZM92.715 30.9849C94.1655 26.5752 96.079 20.9233 96.8506 17.6937H96.8969C97.8536 21.0786 100.107 27.7863 101.125 30.9849H92.715Z" fill="#6C7993"/>
<path d="M125.851 45.0834C128.736 45.0834 131.807 44.5554 134.924 43.2046C135.171 43.1114 135.218 43.0027 135.218 42.7698C135.125 41.9003 135.017 40.6426 135.017 39.6799V10.489C135.017 10.3026 135.017 10.2095 134.786 10.2095H129.554C129.354 10.2095 129.261 10.3026 129.261 10.5511V20.4418C128.443 20.3487 127.872 20.3021 127.193 20.3021C118.752 20.3021 113.567 25.9074 113.567 32.9101C113.567 41.0308 118.891 45.0834 125.851 45.0834ZM129.261 39.6799C128.397 39.9594 127.44 40.0681 126.468 40.0681C122.641 40.0681 119.508 37.8943 119.508 32.6151C119.508 27.9414 122.734 25.1776 127.008 25.1776C127.872 25.1776 128.628 25.2708 129.261 25.5192V39.6799Z" fill="#6C7993"/>
<path d="M151.906 20.3022C144.7 20.3022 140.24 25.8609 140.24 32.7239C140.24 38.8571 143.789 45.0835 151.798 45.0835C158.573 45.0835 163.326 40.0682 163.326 32.5687C163.326 25.9541 159.298 20.3022 151.906 20.3022ZM151.613 25.1778C155.687 25.1778 157.415 28.7024 157.415 32.7239C157.415 37.6926 154.869 40.1614 151.906 40.1614C148.249 40.1614 146.089 37.0715 146.089 32.6152C146.089 28.0347 148.388 25.1778 151.613 25.1778Z" fill="#6C7993"/>
<path d="M168.734 10.2095C168.533 10.2095 168.395 10.3026 168.395 10.5511V43.5927C168.395 43.7325 168.533 43.9809 168.734 44.0275C171.033 44.7418 173.441 45.0834 175.925 45.0834C183.039 45.0834 189.952 40.6426 189.952 31.699C189.952 25.2242 185.539 20.3021 178.626 20.3021C177.036 20.3021 175.555 20.5505 174.258 20.9853L174.197 10.5976C174.197 10.2561 174.104 10.2095 173.765 10.2095H168.734ZM184.042 32.289C184.042 37.6459 180.4 40.1613 176.465 40.1613C175.647 40.1613 174.922 40.1147 174.258 39.9128V25.8142C175.015 25.5192 175.925 25.2708 177.607 25.2708C181.403 25.2708 184.042 27.693 184.042 32.289Z" fill="#6C7993"/>
<path d="M209.475 34.0282C211.821 34.0282 213.75 33.9816 214.413 33.8264C214.66 33.7798 214.753 33.6866 214.799 33.4848C214.938 32.9568 215 31.8544 215 30.5036C215 25.9075 212.253 20.3022 205.154 20.3022C197.902 20.3022 193.874 26.2491 193.874 32.9568C193.874 38.9037 196.991 45.0835 205.725 45.0835C208.997 45.0835 211.111 44.5556 212.932 43.6861C213.117 43.5929 213.21 43.4376 213.21 43.1581V39.1366C213.21 38.9037 213.071 38.8571 212.932 38.9503C211.111 39.7267 209.136 40.1148 206.975 40.1148C202.084 40.1148 199.861 37.3976 199.723 34.0282H209.475ZM199.722 29.8669C200.108 27.5068 201.59 24.9448 204.907 24.9448C208.565 24.9448 209.521 28.0347 209.521 29.4322C209.521 29.4788 209.521 29.6806 209.521 29.8204C209.321 29.8669 208.704 29.8669 206.883 29.8669H199.722Z" fill="#6C7993"/>
</g>
<defs>
<clipPath id="clip0_847_1540">
<rect width="215" height="57" fill="white"/>
</clipPath>
</defs>
</svg>
