<svg width="299" height="38" viewBox="0 0 299 38" fill="none" xmlns="http://www.w3.org/2000/svg">
<g clip-path="url(#clip0_703_853)">
<path d="M40.6541 16.6187H20.5771V21.1787H40.6541V16.6187Z" fill="#6C7993"/>
<path d="M50.6672 0H37.3994L40.6037 4.61067L50.3168 7.6C52.1192 8.15733 53.2707 9.88 53.2207 11.6533V26.3467C53.2207 28.1707 52.0691 29.8427 50.3168 30.4L40.6538 33.3893L37.3994 38H50.6672C56.2247 38 60.6807 33.44 60.6807 27.8667V10.1333C60.7307 4.56 56.2247 0 50.6672 0Z" fill="#6C7993"/>
<path d="M10.5134 0H23.7812L20.5769 4.61067L10.914 7.6C9.11156 8.15733 7.96001 9.88 8.01008 11.6533V26.3467C8.01008 28.1707 9.16163 29.8427 10.914 30.4L20.5769 33.3893L23.7812 38H10.5134C5.00605 38 0.5 33.44 0.5 27.8667V10.1333C0.5 4.56 5.00605 0 10.5134 0Z" fill="#6C7993"/>
<path d="M223.249 26.5494C223.249 29.8427 220.596 32.4774 217.291 32.4774C213.987 32.4774 211.333 29.792 211.333 26.5494V12.008C211.333 8.71469 213.987 6.08002 217.291 6.08002C220.546 6.08002 223.249 8.76535 223.249 12.008V12.16H227.806V11.9574C227.806 6.23202 223.099 1.52002 217.291 1.52002C211.484 1.52002 206.777 6.23202 206.777 12.008V26.4987C206.777 32.2747 211.484 36.9867 217.291 36.9867C223.049 36.9867 227.756 32.2747 227.806 26.4987V26.3467H223.249V26.5494Z" fill="#6C7993"/>
<path d="M246.88 10.8936C242.074 10.8936 238.068 14.6936 237.868 19.5069V28.4242C238.119 33.2376 242.074 37.0376 246.88 37.0376C251.687 37.0376 255.642 33.2376 255.892 28.4242V19.5069C255.692 14.6936 251.737 10.8936 246.88 10.8936ZM251.336 27.8669C251.286 30.4002 249.334 32.3762 246.88 32.3762C244.427 32.3762 242.474 30.4002 242.424 27.8669V20.0136C242.424 17.5309 244.427 15.5042 246.88 15.5042C249.334 15.5042 251.336 17.5309 251.336 20.0136V27.8669Z" fill="#6C7993"/>
<path d="M234.615 1.52002H230.059V36.48H234.615V1.52002Z" fill="#6C7993"/>
<path d="M109.596 10.8936H105.04V36.4296H109.596V10.8936Z" fill="#6C7993"/>
<path d="M100.535 1.52002H95.9785V36.48H100.535V1.52002Z" fill="#6C7993"/>
<path d="M84.5127 1.52002H78.9553L69.793 36.4294V36.48H74.299L76.7523 27.208L86.7658 27.2587L89.169 36.48V36.5307H93.675L84.5127 1.52002ZM85.5641 22.648H77.9539L81.759 8.15735L85.5641 22.648Z" fill="#6C7993"/>
<path d="M272.665 28.3736C272.665 30.8562 270.663 32.8829 268.209 32.8829C265.756 32.8829 263.753 30.8562 263.753 28.3736V10.8936H259.197V29.1336C259.197 33.4909 262.702 37.0376 267.008 37.0376C267.809 37.0376 268.56 36.9362 269.311 36.6829C269.761 36.5309 270.162 36.3789 270.563 36.1762C271.263 35.8216 271.914 35.3656 272.465 34.8082L272.665 34.6056V36.4802H277.221V10.8936H272.665V28.3736Z" fill="#6C7993"/>
<path d="M109.596 1.52002H105.04V6.13069H109.596V1.52002Z" fill="#6C7993"/>
<path d="M124.316 10.8934C122.263 10.8934 120.311 11.704 118.859 13.1734L118.659 13.376V1.52002H114.103V36.48H118.659V34.6054L118.859 34.808C120.311 36.2774 122.263 37.088 124.316 37.088C128.622 37.088 132.127 33.5414 132.127 29.184V18.7974C132.127 14.3894 128.622 10.8934 124.316 10.8934ZM127.621 19.608V28.272C127.621 30.7547 125.618 32.832 123.115 32.832C120.661 32.832 118.609 30.8054 118.609 28.272V19.608C118.609 17.1254 120.611 15.048 123.115 15.048C125.618 15.0987 127.621 17.1254 127.621 19.608Z" fill="#6C7993"/>
<path d="M166.573 10.8427C164.52 10.8427 162.568 11.6534 161.116 13.1227L160.915 13.3254V1.52002H156.359V36.48H160.915V34.6054L161.116 34.808C162.568 36.2774 164.52 37.088 166.573 37.088C170.879 37.088 174.384 33.5414 174.384 29.184V18.7467C174.384 14.3894 170.879 10.8427 166.573 10.8427ZM169.878 19.608V28.272C169.878 30.7547 167.875 32.832 165.371 32.832C162.918 32.832 160.865 30.8054 160.865 28.272V19.608C160.865 17.1254 162.868 15.048 165.371 15.048C167.875 15.048 169.878 17.1254 169.878 19.608Z" fill="#6C7993"/>
<path d="M293.993 1.52002V13.3254L293.793 13.1227C292.341 11.6534 290.389 10.8427 288.336 10.8427C284.03 10.8427 280.525 14.3894 280.525 18.7467V29.0827V29.1334C280.525 33.4907 284.03 36.9867 288.336 36.9867C290.389 36.9867 292.341 36.176 293.793 34.7067L293.993 34.504V36.3787H298.55V1.52002H293.993ZM293.943 19.608V28.272C293.943 30.7547 291.941 32.832 289.437 32.832C286.984 32.832 284.931 30.8054 284.931 28.272V19.608C284.931 17.1254 286.934 15.048 289.437 15.048C291.941 15.048 293.943 17.1254 293.943 19.608Z" fill="#6C7993"/>
<path d="M153.105 19.5576C153.105 19.3042 153.054 19.0002 153.004 18.6456V18.5442C152.754 17.1762 152.253 15.8589 151.452 14.6936C149.85 12.4136 147.397 11.0456 144.693 10.8936C144.643 10.8936 144.343 10.8936 144.193 10.8936C142.09 10.8936 140.037 11.6536 138.385 13.0216C136.783 14.3896 135.681 16.2642 135.281 18.3922V18.4429H139.737V18.3922C140.137 16.2642 141.99 14.7442 144.092 14.7442C145.244 14.7442 146.345 15.2002 147.197 16.0109C148.048 16.8216 148.498 17.9362 148.548 19.1016V21.2296H142.09C137.784 21.2296 134.279 24.7762 134.279 29.1336C134.279 32.7816 136.783 35.8722 140.137 36.7842C140.187 36.7842 140.237 36.7842 140.237 36.8349C140.387 36.8856 140.538 36.8856 140.688 36.9362C140.838 36.9869 141.038 36.9869 141.239 37.0376C141.289 37.0376 141.289 37.0376 141.339 37.0376C141.689 37.0882 142.09 37.0882 142.54 37.0882C143.642 37.0882 144.593 36.9362 145.244 36.6829C146.396 36.3282 147.447 35.6696 148.348 34.8082L148.548 34.6056V36.4802H153.105V33.4402V19.5576ZM142.991 24.6749H148.498V27.9176C148.498 30.3496 146.746 32.4776 144.393 32.9336C144.042 33.0349 143.692 33.0349 143.392 33.0349C142.59 33.0349 141.839 32.8322 141.088 32.3762C140.888 32.2749 140.688 32.1229 140.488 32.0216C140.237 31.8189 139.987 31.5656 139.787 31.3122L139.737 31.2616C139.186 30.5522 138.885 29.6909 138.885 28.7789C138.936 26.4989 140.738 24.6749 142.991 24.6749Z" fill="#6C7993"/>
<path d="M195.411 19.5576C195.411 19.3042 195.361 19.0002 195.311 18.6456V18.5442C195.061 17.1762 194.56 15.8589 193.759 14.6936C192.157 12.4136 189.704 11.0456 187 10.8936C186.95 10.8936 186.649 10.8936 186.499 10.8936C184.396 10.8936 182.344 11.6536 180.691 13.0216C179.089 14.3896 177.988 16.2642 177.587 18.3922V18.4429H182.043V18.3922C182.444 16.2642 184.296 14.7442 186.399 14.7442C187.551 14.7442 188.652 15.2002 189.503 16.0109C190.354 16.8216 190.805 17.9362 190.855 19.1016V21.2296H184.396C180.091 21.2296 176.586 24.7762 176.586 29.1336C176.586 32.7816 179.089 35.8722 182.444 36.7842C182.494 36.7842 182.544 36.7842 182.544 36.8349C182.694 36.8856 182.844 36.8856 182.995 36.9362C183.145 36.9869 183.345 36.9869 183.545 37.0376C183.595 37.0376 183.595 37.0376 183.645 37.0376C183.996 37.0882 184.396 37.0882 184.847 37.0882C185.949 37.0882 186.9 36.9362 187.551 36.6829C188.702 36.3282 189.754 35.6696 190.655 34.8082L190.855 34.6056V36.4802H195.411V33.4402V19.5576ZM185.298 24.6749H190.805V27.9176C190.805 30.3496 189.053 32.4776 186.7 32.9336C186.349 33.0349 185.999 33.0349 185.698 33.0349C184.897 33.0349 184.146 32.8322 183.395 32.3762C183.195 32.2749 182.995 32.1229 182.794 32.0216C182.544 31.8189 182.294 31.5656 182.093 31.3122L182.043 31.2616C181.493 30.5522 181.192 29.6909 181.192 28.7789C181.242 26.5496 183.045 24.6749 185.298 24.6749Z" fill="#6C7993"/>
</g>
<defs>
<clipPath id="clip0_703_853">
<rect width="298" height="38" fill="white" transform="translate(0.5)"/>
</clipPath>
</defs>
</svg>
