<svg width="275" height="68" viewBox="0 0 275 68" fill="none" xmlns="http://www.w3.org/2000/svg">
<path d="M270.262 29.7077L270.73 29.4046C274.57 27.4519 274.153 21.7596 271.386 19.6983C269.383 18.2116 267.106 17.7684 264.689 17.7141C261.123 17.6855 257.556 17.7427 254.018 17.6855C253.225 17.6855 252.977 17.8771 253 18.7062C253.057 20.7075 253.028 20.7075 254.974 21.1249C255.442 21.2107 255.716 21.3451 255.716 21.9197V38.502C255.716 38.9967 255.55 39.2168 255.06 39.2969C254.375 39.4341 253.442 39.2111 253.111 39.82C252.808 40.369 253.025 41.1924 252.997 41.9071V41.9929C252.883 42.5647 253.188 42.7076 253.738 42.7076L265.893 42.6791C268.09 42.6505 270.282 42.2931 272.042 40.8636C275.965 37.7301 275.061 31.709 270.259 29.6448L270.262 29.7077ZM261.26 21.651C262.852 21.7368 264.444 21.4852 266.036 21.8711C267.605 22.2285 268.478 23.3007 268.507 24.8731C268.535 26.4942 267.657 27.7092 266.122 28.0066C264.475 28.364 262.829 28.1209 261.157 28.1724C260.746 28.1724 260.772 27.8694 260.772 27.5949V22.2628C260.743 21.8769 260.829 21.691 261.265 21.691L261.26 21.651ZM266.752 38.6679C264.912 38.9967 263.02 38.7536 261.154 38.8108C260.743 38.8108 260.769 38.5078 260.769 38.2333V32.238C260.769 31.7977 260.906 31.6661 261.34 31.6661L266.475 31.7519C268.344 31.972 269.329 33.1814 269.414 35.1341C269.471 37.2212 268.644 38.3791 266.752 38.7079V38.6679ZM241.338 17.7456C237.909 17.7456 234.451 17.7742 231.021 17.717C230.171 17.717 229.84 17.8828 229.897 18.8177C229.982 20.7704 229.925 20.7962 231.871 21.1535C232.365 21.2393 232.585 21.3994 232.585 22.0055V38.5878C232.585 39.0824 232.419 39.274 231.928 39.3826C229.931 39.7686 229.925 39.7943 229.931 41.8557C229.931 42.5419 230.068 42.8192 230.836 42.7906L236.542 42.762H241.507C246.528 42.6762 250.343 39.6828 251.47 34.8139C251.992 32.5267 251.744 30.2766 251.716 27.9951C251.687 22.057 247.327 17.7685 241.37 17.7399L241.338 17.7456ZM246.523 33.7218C246.22 36.5579 244.24 39.0024 240.873 38.868C240.079 38.8255 239.283 38.8255 238.488 38.868C237.86 38.8966 237.638 38.7308 237.638 38.0732L237.666 30.2395L237.638 22.4858C237.638 21.8283 237.829 21.6339 238.488 21.691C239.281 21.7482 240.08 21.691 240.873 21.691C243.972 21.7196 246.252 23.6923 246.58 26.8373C246.779 29.133 246.768 31.4117 246.551 33.7389L246.523 33.7218Z" fill="#6C7993"/>
<path d="M208.959 24.4044C209.016 23.9355 208.793 23.7754 208.331 23.7754H202.625C202.077 23.7754 201.854 23.9927 201.774 24.5187L201.526 26.2198C201.281 26.2484 201.198 26.1055 201.115 26.0026C198.59 22.6204 192.801 23.4438 190.881 27.4321C189.069 31.1488 188.932 34.9399 190.31 38.7881C191.103 41.0753 192.724 42.6649 195.166 43.0766C197.392 43.4883 199.446 43.1624 201.175 41.1754V42.8765C200.956 45.3238 199.635 46.4789 197.169 46.4503C196.427 46.4503 195.743 46.2301 195.001 46.1215C194.151 45.9785 193.246 45.0722 192.616 45.6812C192.068 46.2044 192.093 47.3308 191.845 48.1828C191.68 48.7318 191.874 49.0348 192.393 49.2264C194.778 50.1899 197.221 50.5186 199.774 50.1327C202.959 49.6638 205.481 47.2737 206.003 44.1402C206.388 41.9959 206.146 39.8517 206.168 37.7017V28.244C206.168 27.8038 206.111 27.3921 206.745 27.3092C208.913 26.8975 208.913 26.8689 208.856 24.6417C208.942 24.5273 208.942 24.4758 208.942 24.4215L208.959 24.4044ZM200.179 38.648C197.982 39.9917 195.486 39.1169 194.887 36.641C194.316 34.1937 194.316 31.6949 195.435 29.3505C195.982 28.224 196.975 27.778 198.151 27.8066C199.412 27.8352 200.482 28.3012 201.147 29.4563C201.261 29.6478 201.232 29.9251 201.261 30.171V33.579L201.289 36.7954C201.346 37.7017 200.879 38.2249 200.191 38.6394L200.179 38.648ZM130.646 39.6058C129.99 39.6344 129.713 39.3313 129.493 38.6995L122.469 18.4348C122.303 17.9402 122.084 17.7486 121.564 17.7772H117.778C117.256 17.7772 117.036 17.943 116.845 18.4348L113.552 27.8123L109.712 38.8367C109.598 39.1941 109.492 39.4943 109.027 39.58C107.658 39.8002 107.686 39.8259 107.686 41.1754C107.686 41.4212 107.715 41.67 107.686 41.9187C107.6 42.6049 107.852 42.825 108.536 42.7707L114.157 42.7421C116.212 42.7421 116.154 42.7421 116.24 40.6551C116.269 39.8831 116.075 39.4714 115.25 39.5257C114.728 39.5543 114.508 39.3599 114.702 38.811L115.992 34.8798C116.106 34.4939 116.32 34.3566 116.734 34.3566H122.526C122.994 34.3566 123.153 34.5224 123.29 34.9341L124.58 38.8653C124.694 39.1941 124.717 39.5229 124.252 39.4943C123.042 39.4085 122.911 40.0661 122.991 41.0381C123.019 41.3812 123.019 41.7186 122.991 42.0559C122.934 42.5791 123.182 42.7421 123.704 42.7421H129.496C131.608 42.7421 131.579 42.7421 131.608 40.6264C131.636 39.8831 131.391 39.5257 130.646 39.5829V39.6058ZM121.345 30.6999H117.935C117.495 30.6999 117.364 30.557 117.467 30.1281L119.464 23.8869C119.55 23.8869 119.601 23.8869 119.684 23.8583L121.681 30.2111C121.847 30.6514 121.681 30.7885 121.27 30.76L121.345 30.6999ZM186.732 39.5257C185.42 39.3599 185.442 39.3056 185.42 37.9304C185.363 34.957 185.639 31.9636 185.229 28.996C184.652 24.7074 180.615 22.6146 176.726 24.4587C175.736 24.9276 175.028 25.751 174.255 26.4657C173.955 26.0254 174.01 25.5594 174.01 25.1506C174.038 24.3844 173.736 24.1585 172.968 24.1871H167.447C166.677 24.1585 166.457 24.3787 166.457 25.1506C166.486 27.1576 166.457 27.1519 168.383 27.5693C168.959 27.6837 169.233 27.8724 169.233 28.5328V38.4593C169.233 39.0082 169.096 39.3113 168.491 39.3942C166.794 39.723 166.794 39.7516 166.794 41.5099C166.794 41.6757 166.822 41.8129 166.794 41.9788C166.708 42.5506 166.959 42.7736 167.564 42.745H174.369C176.238 42.745 176.181 42.745 176.266 40.8437C176.295 39.9374 176.047 39.4142 175.114 39.4142C174.372 39.4142 174.264 39.0283 174.264 38.3421L174.292 29.9537C174.292 29.6793 174.264 29.4048 174.406 29.1589C174.928 28.224 176.766 27.5378 178.115 27.8152C179.485 28.0896 180.198 28.8587 180.341 30.2625C180.615 33.0415 180.398 35.8433 180.478 38.6509C180.506 39.1998 180.204 39.3084 179.765 39.3942C178.252 39.7516 178.252 39.7516 178.252 41.3469C178.252 41.567 178.281 41.7872 178.252 41.9759C178.167 42.5477 178.444 42.7707 179.017 42.7707H185.822C187.819 42.7707 187.796 42.7707 187.876 40.7637C187.876 39.9117 187.605 39.58 186.781 39.5L186.732 39.5257ZM164.779 39.6344C163.875 39.7201 163.818 39.1655 163.818 38.4793V30.091C163.789 28.0897 162.968 26.3742 161.27 25.2535C159.101 23.7668 156.656 23.6324 154.194 23.9898C152.362 24.2757 150.616 24.9247 149.058 25.9683C148.536 26.3256 148.487 26.6544 148.867 27.1519L150.436 29.1532C150.739 29.5649 150.904 29.5392 151.286 29.239C152.214 28.5295 153.265 27.9974 154.385 27.6694C157.019 26.9032 158.665 28.1383 158.722 30.8029C158.75 31.6549 158.531 31.8521 157.703 31.8235C155.15 31.7092 152.682 31.9894 150.399 33.253C147.132 35.0685 147.489 39.4142 149.218 41.2526C151.415 43.5884 155.643 43.7542 158.191 41.5813C158.408 41.3898 158.576 41.0867 158.956 41.0324C159.041 41.2811 159.176 41.527 159.201 41.8044C159.315 42.5763 159.695 42.825 160.462 42.7392C161.313 42.6535 162.246 42.7107 163.124 42.7107C165.538 42.7107 165.538 42.7107 165.43 40.292C165.401 39.7945 165.21 39.5486 164.745 39.5772L164.779 39.6344ZM157.917 38.5622C156.79 39.2484 155.635 39.6629 154.351 39.277C153.5 39.0311 153.061 38.425 153.01 37.4901C152.953 36.418 153.558 35.403 154.436 35.0142C154.682 34.8998 154.958 34.8484 155.23 34.7683C155.789 34.6454 156.359 34.5968 156.93 34.6254C158.713 34.6254 158.685 34.6253 158.713 36.275C158.685 37.127 158.828 37.9761 157.863 38.5622H157.917ZM218.566 23.8526C214.697 23.8526 211.649 25.8596 210.5 29.2418C209.649 31.6063 209.567 34.0536 210.143 36.5037C210.554 38.3478 211.404 39.9403 212.859 41.2068C214.834 42.9079 217.139 43.2653 219.664 43.1081C222.848 42.8879 225.128 41.264 226.469 38.3764C227.431 36.3179 227.511 34.0879 227.319 31.8864C226.852 26.9632 223.505 23.8583 218.589 23.8583L218.566 23.8526ZM221.199 38.039C219.858 39.8831 216.754 39.6601 215.707 37.6273C215.022 36.3351 214.802 34.9599 214.857 33.639C214.828 32.2095 214.971 30.9172 215.57 29.6793C216.694 27.3692 219.85 27.069 221.276 29.1561C222.703 31.1917 222.646 36.0034 221.139 38.0333L221.199 38.039ZM146.176 23.9326C144.479 23.5209 142.747 24.2071 141.705 25.6338C141.514 25.9082 141.431 26.2627 141.049 26.4285C140.891 25.9992 140.826 25.5412 140.858 25.0848C140.915 24.3987 140.612 24.2328 139.953 24.2328H134.632C133.782 24.2043 133.397 24.3758 133.451 25.3593C133.536 27.2319 133.479 27.2605 135.32 27.6465C135.842 27.7609 136.113 27.921 136.084 28.4985V38.5051C136.084 39.0769 135.919 39.2998 135.342 39.4113C133.645 39.7144 133.696 39.7402 133.696 41.4127C133.696 42.705 133.696 42.7278 134.957 42.7278H141.297C143.628 42.7278 143.628 42.7278 143.58 40.4177C143.58 39.8459 143.414 39.5657 142.809 39.5657C142.536 39.5657 142.262 39.4285 141.959 39.4285C141.303 39.3999 141.109 39.0997 141.109 38.4365L141.137 31.1459C141.137 29.7164 141.851 28.8587 143.277 28.6986C143.991 28.6129 144.761 28.67 145.474 28.67C145.802 28.67 146.045 28.6986 146.131 28.2297L146.544 24.4901C146.63 24.1328 146.516 23.9955 146.159 23.9184L146.176 23.9326Z" fill="#A7B1BE"/>
<path d="M96.7308 30.8283C94.8819 24.6528 90.7589 19.9068 87.0297 14.8178C80.0108 5.31726 70.8947 0.0652641 62.4919 0.00808374C46.4139 -0.277818 35.0837 7.04125 30.2161 18.586C30.0112 19.2213 29.6301 19.7851 29.1172 20.2114C28.6044 20.6377 27.981 20.9089 27.32 20.9933C21.9616 22.2284 16.6033 23.4606 11.6101 25.9908C8.22046 27.7205 4.77375 29.3244 2.6167 32.6523C-0.0938751 36.8494 0.211427 41.2923 1.25857 45.9182C3.96914 57.3971 10.9596 64.4961 22.4467 67.0863C29.5284 68.6302 36.4276 68.4472 42.8959 64.7419C46.9617 62.4547 50.2287 59.1897 53.4529 55.879C54.2518 55.0156 54.8681 54.8297 55.9152 55.3243L61.8299 58.2262C68.1128 61.3712 74.5211 63.9643 81.7227 63.5297C93.1785 62.8493 100.018 55.1328 99.2787 43.9025C99.0333 39.4596 97.9862 35.1111 96.6908 30.8197L96.7308 30.8283ZM54.2945 46.4385C47.3954 51.0701 40.2566 55.0785 31.9965 56.7453C29.343 57.2999 26.7037 57.4829 24.9148 57.3628C18.2667 57.3628 12.6572 56.6824 7.73255 53.2887C1.94048 49.2146 -0.521857 40.3259 2.80787 34.0961C3.85501 32.0605 5.63828 30.5795 7.61272 29.4074C14.4491 25.1531 22.0872 23.1747 29.848 21.5737C37.9141 19.8439 46.1115 17.9942 54.5456 18.057C58.6115 18.057 62.2437 19.6638 64.8316 22.9345C67.1142 25.8965 66.4351 29.2301 65.3252 32.3807C63.2825 38.1505 59.4102 43.0912 54.3003 46.4471L54.2945 46.4385ZM96.2371 51.499C93.6493 57.9804 88.1711 60.1389 81.9481 61.0624C75.3001 62.0488 69.8133 58.9067 64.1496 56.2478C62.3007 55.3844 60.5146 54.2465 58.6086 53.5317C56.9452 52.9142 56.697 52.2966 58.0551 51.1216C60.1494 48.4627 62.2437 45.8181 63.9043 42.8504C65.9358 38.4676 67.1684 33.8388 67.1684 28.9642C67.1684 21.4336 63.1653 18.0999 55.5899 17.2422C54.1119 17.0593 52.5712 17.1793 51.0618 17.1793C45.9488 17.551 40.8387 18.3229 35.7884 19.2779C34.7413 19.215 33.4488 20.4214 32.7697 19.3407C32.2761 18.5402 33.5058 17.5539 34.0622 16.6819C37.76 10.2634 43.301 6.3122 50.2629 4.08789C56.3603 2.17234 62.3977 1.74349 68.6777 3.40744C73.8535 4.76833 77.5456 7.91039 80.9352 11.6786C85.1238 16.3102 88.9471 21.1248 92.0229 26.4883C95.0416 31.7346 96.551 37.3525 97.0161 43.3365C97.1388 46.1154 97.387 48.8315 96.28 51.4847L96.2371 51.499Z" fill="#6C7993"/>
<path d="M73.1975 57.8002C77.7256 59.8016 82.3136 59.407 86.8131 57.7373C92.297 55.7017 94.8792 51.5047 95.2473 45.8867C95.7409 37.9872 93.25 30.9512 88.779 24.5928L79.72 12.8708C75.1919 7.93611 69.7422 4.84266 62.8431 4.66541C55.6986 4.48243 49.0477 6.14637 43.0701 10.0346C39.7432 12.1903 36.9728 15.158 35.7373 19.1692L51.0107 17.0707C51.296 16.9449 51.627 16.699 51.9351 16.7848C54.5886 16.9678 57.0481 16.4131 59.5732 15.5497C62.5292 14.5004 65.3026 15.6755 67.6394 17.4023C72.6896 21.1648 76.1991 25.9222 76.1991 32.5208C76.1991 37.2725 72.0733 42.7647 66.2213 42.3901C65.4224 42.333 64.5578 42.2672 63.816 42.8247C62.2125 45.8495 60.0612 48.4398 57.9669 51.093C59.9642 53.1286 62.7118 53.4374 65.1114 54.5238C67.6993 55.8847 70.5325 56.6852 73.1775 57.7945L73.1975 57.8002Z" fill="#A7B1BE"/>
<path d="M91.9877 26.5086C88.8491 21.1394 85.0258 16.2648 80.9 11.699C77.5104 7.93649 73.8183 4.78586 68.6425 3.42782C62.3597 1.76102 56.3222 2.19273 50.2277 4.10827C43.2658 6.26969 37.7248 10.2837 34.027 16.7022C33.5334 17.5685 32.2438 18.5549 32.7345 19.3611C33.4136 20.4104 34.7318 19.2382 35.7532 19.2982C36.9858 15.287 39.6964 12.3222 43.1146 10.1637C49.0579 6.27539 55.7402 4.66863 62.8875 4.79443C69.7867 4.9774 75.2078 8.00511 79.7644 12.9998C83.0913 16.6422 85.9845 20.7134 88.8235 24.7218C93.3173 31.0745 95.7854 38.1163 95.2918 46.0158C94.9208 51.6309 92.3358 55.8307 86.8576 57.8664C82.3637 59.5303 77.7986 59.902 73.2705 57.9293L65.2586 54.7186C62.8619 53.575 60.0828 53.2376 58.1141 51.2649C56.6989 52.4085 56.9728 53.0518 58.6676 53.6751C60.5793 54.4127 62.3654 55.5277 64.2086 56.3911C69.8751 59.05 75.4218 62.1949 82.0071 61.2057C88.2271 60.2822 93.7054 58.0608 96.2961 51.6394C97.3432 48.9805 97.1606 46.2702 96.9752 43.557C96.6042 37.3815 95.0635 31.7693 92.0505 26.5258L91.9877 26.5086ZM65.2529 32.3754C66.3942 29.2304 67.0361 25.894 64.7593 22.9292C62.1714 19.5956 58.5963 18.0517 54.4733 18.0517C46.0934 17.9888 37.9046 19.8386 29.7129 21.5683C21.9521 23.2351 14.314 25.1478 7.47766 29.402C5.4804 30.6371 3.72279 32.1181 2.6728 34.0908C-0.591309 40.3234 1.80828 49.2093 7.5975 53.2834C12.5222 56.7371 18.1545 57.3575 24.7797 57.3575C26.563 57.4804 29.2735 57.2317 31.8614 56.7399C40.1158 55.076 47.2604 51.0619 54.1595 46.4332C59.3313 43.1299 63.2383 38.1734 65.2472 32.3668L65.2529 32.3754ZM51.0238 46.8791C45.1746 50.3957 39.2599 53.7923 32.4264 55.0274C26.8854 56.0137 21.2131 56.3225 15.6693 54.9044C9.20101 53.3606 4.21355 47.5282 3.97102 40.8381C3.84548 37.1957 5.63446 34.2623 8.40781 31.8893C12.6877 28.2469 17.8349 26.3371 23.2504 25.1621C23.3731 25.1621 23.5357 25.345 23.744 25.448C28.2721 21.9314 33.445 21.2509 39.0174 21.6855C39.511 20.5419 40.6779 20.885 41.5425 20.6362C46.2845 19.4926 51.0866 18.9694 55.8315 19.9558C64.7621 21.7427 65.8749 26.746 62.976 34.0222C60.6934 39.8831 56.2024 43.7428 51.0295 46.8877L51.0238 46.8791ZM66.2401 42.4334C72.0892 42.8051 76.2179 37.31 76.2179 32.5641C76.2179 25.9883 72.7084 21.2081 67.6581 17.4456C65.2529 15.7445 62.5452 14.5465 59.5921 15.5929C57.0669 16.4592 54.6046 17.011 51.9539 16.828C51.6686 16.828 51.3376 17.0739 51.0295 17.1139C52.5702 17.1139 54.0482 16.9881 55.5576 17.1768C63.1329 18.0431 67.1645 21.3739 67.1645 28.9045C67.1645 33.782 65.9319 38.405 63.9004 42.7908C64.5795 42.3562 65.3784 42.3562 66.2401 42.4191V42.4334Z" fill="#A7B1BE"/>
<path d="M55.8344 20.0274C51.0895 19.0411 46.2247 19.5986 41.5454 20.7079C40.6808 20.8908 39.5139 20.5849 39.0203 21.7571C44.4414 22.8064 48.6271 25.7683 51.4604 30.5486C53.8001 34.4369 53.1866 38.2022 49.6115 41.2242C45.8538 44.4949 41.3571 46.0388 36.4295 46.5934C29.8671 47.331 23.9266 45.3583 18.38 41.9618C16.8392 41.0355 16.3827 39.8004 16.5967 38.1307C17.2101 32.8844 19.8608 28.8103 23.7412 25.4796C23.5586 25.3566 23.3703 25.1937 23.2476 25.1937C17.8264 26.3373 12.6906 28.2814 8.40503 31.9209C5.63168 34.2653 3.87694 37.2244 3.96824 40.8697C4.21362 47.4454 9.261 53.335 15.6665 54.936C21.2703 56.2969 26.8797 56.0425 32.4236 55.059C39.1972 53.8239 45.1719 50.4273 50.9639 46.9107C56.1397 43.7658 60.6649 39.9348 62.9104 34.1967C65.8664 26.8205 64.7593 21.8515 55.8287 20.0617L55.8344 20.0274Z" fill="#A7B1BE"/>
<path d="M16.6029 38.1077C16.4203 39.7145 16.8483 41.0096 18.3862 41.9388C23.9272 45.3353 29.8419 47.3081 36.4357 46.5704C41.3034 46.0158 45.8629 44.4719 49.6177 41.2012C53.1272 38.1763 53.8063 34.4139 51.4666 30.5256C48.5706 25.7739 44.4477 22.812 39.0265 21.7341C33.5426 21.3053 28.3097 21.98 23.7531 25.4966C19.8099 28.8302 17.1907 32.93 16.6086 38.0906L16.6029 38.1077Z" fill="#6C7993"/>
</svg>
