<svg width="278" height="50" viewBox="0 0 278 61" fill="none" xmlns="http://www.w3.org/2000/svg">
<path d="M77.1686 17.8273C74.3122 11.5508 69.4162 6.43152 63.2813 3.30642C57.1464 0.181321 50.1354 -0.764705 43.3946 0.623011C36.6538 2.01073 30.5821 5.65008 26.172 10.9461C21.7619 16.2421 19.2744 22.8813 19.1163 29.7785C17.721 29.3552 16.2711 29.1408 14.8135 29.142C10.7962 29.411 7.03111 31.2005 4.28065 34.1483C1.53019 37.096 0 40.9816 0 45.018C0 49.0544 1.53019 52.94 4.28065 55.8877C7.03111 58.8354 10.7962 60.625 14.8135 60.8939H17.5644C17.8427 60.9029 18.1196 60.8505 18.3755 60.7405C18.6315 60.6306 18.8602 60.4657 19.0457 60.2575L48.1777 31.1221L53.3975 25.889V32.395C53.341 32.7011 53.3524 33.0159 53.4309 33.317C53.5094 33.6182 53.6531 33.8983 53.8517 34.1376C54.0503 34.3769 54.2989 34.5694 54.58 34.7016C54.8612 34.8337 55.1679 34.9022 55.4783 34.9022C55.7888 34.9022 56.0955 34.8337 56.3766 34.7016C56.6578 34.5694 56.9064 34.3769 57.105 34.1376C57.3036 33.8983 57.4472 33.6182 57.5257 33.317C57.6042 33.0159 57.6157 32.7011 57.5592 32.395V20.7974C57.5564 20.2503 57.3559 19.7227 56.9949 19.3124C56.7907 19.1091 56.5485 18.9483 56.2822 18.8391C56.0159 18.7299 55.7308 18.6744 55.4431 18.6759H43.9455C43.6676 18.6759 43.3924 18.7308 43.1356 18.8374C42.8789 18.944 42.6456 19.1003 42.4491 19.2973C42.2526 19.4943 42.0968 19.7281 41.9904 19.9855C41.8841 20.2429 41.8293 20.5188 41.8293 20.7974C41.8195 21.0787 41.8675 21.359 41.9703 21.6208C42.0732 21.8827 42.2287 22.1205 42.4272 22.3195C42.6257 22.5185 42.8629 22.6744 43.1241 22.7775C43.3853 22.8807 43.6649 22.9288 43.9455 22.9189H50.4349L41.124 32.1828L17.0707 56.7216H15.1661C12.0794 56.7216 9.11903 55.4923 6.93635 53.3041C4.75367 51.1158 3.52747 48.148 3.52747 45.0533C3.52747 41.9587 4.75367 38.9908 6.93635 36.8026C9.11903 34.6144 12.0794 33.385 15.1661 33.385C17.0808 33.3861 18.9674 33.8468 20.6681 34.7287C20.9949 34.9301 21.3716 35.0353 21.7552 35.0323C22.1389 35.0293 22.514 34.9183 22.8376 34.7118C23.1613 34.5053 23.4205 34.2117 23.5857 33.8646C23.7508 33.5174 23.8153 33.1307 23.7717 32.7486C23.7717 32.1121 23.7717 31.2635 23.7717 30.4149C23.7625 24.3054 25.8804 18.3842 29.76 13.6728C33.6395 8.96128 39.0376 5.75491 45.023 4.60674C51.0085 3.45857 57.2059 4.4406 62.5464 7.38342C67.8868 10.3262 72.0355 15.0453 74.2766 20.7267C74.4407 21.1473 74.7345 21.5044 75.1151 21.7461C75.4957 21.9878 75.9433 22.1013 76.3927 22.0703H77.5213C81.923 22.3521 86.0525 24.3038 89.0703 27.5286C92.0881 30.7535 93.7678 35.0094 93.7678 39.4313C93.7678 43.8532 92.0881 48.1092 89.0703 51.334C86.0525 54.5589 81.923 56.5106 77.5213 56.7923H35.1988C34.8935 56.7358 34.5795 56.7472 34.2791 56.8259C33.9787 56.9046 33.6992 57.0486 33.4606 57.2477C33.2219 57.4468 33.0299 57.6961 32.8981 57.9779C32.7663 58.2598 32.6979 58.5672 32.6979 58.8785C32.6979 59.1898 32.7663 59.4972 32.8981 59.7791C33.0299 60.0609 33.2219 60.3102 33.4606 60.5093C33.6992 60.7084 33.9787 60.8524 34.2791 60.9311C34.5795 61.0098 34.8935 61.0212 35.1988 60.9646H77.5213C83.2178 60.9646 88.681 58.696 92.709 54.6577C96.7371 50.6194 99 45.1423 99 39.4313C99 33.7203 96.7371 28.2433 92.709 24.205C88.681 20.1667 83.2178 17.898 77.5213 17.898L77.1686 17.8273Z" fill="#6C7993"/>
<path d="M119.879 60L118.287 50.7692H111.367L109.706 60H105L112.405 20H117.664L125 60H119.879ZM114.827 29.3706L112.059 46.5035H117.526L114.827 29.3706Z" fill="#6C7993"/>
<path d="M136.089 60.9764C134.903 61.0668 133.712 60.8968 132.593 60.4777C131.474 60.0585 130.453 59.3995 129.596 58.5436C128.739 57.6877 128.066 56.6541 127.619 55.5101C127.173 54.3661 126.964 53.1373 127.005 51.9038V48.218H131.786V51.3367C131.786 54.739 133.357 56.7236 136.089 56.7236C136.683 56.7701 137.28 56.6792 137.837 56.4574C138.393 56.2356 138.895 55.8885 139.307 55.441C139.718 54.9936 140.029 54.4569 140.217 53.8697C140.404 53.2826 140.464 52.6595 140.392 52.0455C140.308 50.0206 139.77 48.0438 138.822 46.2721C137.873 44.5004 136.54 42.9824 134.928 41.8387C132.867 40.2656 131.138 38.2723 129.846 35.9808C128.554 33.6894 127.727 31.1483 127.415 28.5132C127.307 27.2803 127.454 26.0377 127.846 24.8682C128.237 23.6986 128.864 22.629 129.684 21.7304C130.505 20.8319 131.5 20.125 132.605 19.6569C133.709 19.1887 134.897 18.97 136.089 19.0153C137.255 18.943 138.423 19.1281 139.515 19.5585C140.607 19.9889 141.599 20.6547 142.425 21.512C143.251 22.3693 143.893 23.3987 144.308 24.5322C144.722 25.6658 144.901 26.8776 144.831 28.088V31.9155H140.187V28.655C140.187 25.5363 138.889 23.4098 136.021 23.4098C135.481 23.3528 134.936 23.4223 134.425 23.6134C133.915 23.8044 133.453 24.1121 133.072 24.5136C132.692 24.9151 132.403 25.4002 132.228 25.933C132.053 26.4658 131.995 27.0327 132.059 27.5918C132.059 31.5611 133.63 33.8293 138.138 38.153C140.15 39.6352 141.811 41.5734 142.994 43.8209C144.178 46.0683 144.853 48.5658 144.968 51.1241C145.073 52.3914 144.921 53.6677 144.52 54.8699C144.12 56.0722 143.48 57.1736 142.643 58.1027C141.805 59.0318 140.789 59.7677 139.66 60.2628C138.531 60.7579 137.314 61.001 136.089 60.9764Z" fill="#6C7993"/>
<path d="M158.636 60.9743C157.338 61.0377 156.042 60.8284 154.832 60.3601C153.622 59.8917 152.526 59.1751 151.618 58.2575C150.709 57.34 150.008 56.2424 149.561 55.0373C149.114 53.8322 148.931 52.5471 149.024 51.2668V28.7341C148.931 27.4539 149.114 26.1688 149.561 24.9637C150.008 23.7586 150.709 22.661 151.618 21.7434C152.526 20.8259 153.622 20.1092 154.832 19.6409C156.042 19.1726 157.338 18.9632 158.636 19.0267C159.898 18.9281 161.167 19.1036 162.354 19.5408C163.54 19.978 164.616 20.6664 165.504 21.5576C166.393 22.4489 167.073 23.5214 167.498 24.7C167.922 25.8785 168.081 27.1345 167.962 28.3799V33.9067H163.442V28.2381C163.497 27.6197 163.414 26.9969 163.199 26.4136C162.984 25.8302 162.642 25.3004 162.198 24.8615C161.754 24.4225 161.217 24.085 160.627 23.8726C160.036 23.6603 159.406 23.5783 158.779 23.6324C158.164 23.5686 157.541 23.639 156.956 23.8387C156.371 24.0384 155.837 24.3625 155.392 24.7882C154.947 25.2139 154.603 25.7308 154.382 26.3024C154.162 26.874 154.071 27.4864 154.117 28.0964V51.9045C154.117 53.1261 154.608 54.2976 155.482 55.1613C156.357 56.025 157.543 56.5103 158.779 56.5103C160.016 56.5103 161.202 56.025 162.077 55.1613C162.951 54.2976 163.442 53.1261 163.442 51.9045V46.1651H167.962V51.7628C168.059 52.9969 167.884 54.2371 167.449 55.3981C167.015 56.5592 166.331 57.6136 165.445 58.4888C164.559 59.3641 163.492 60.0394 162.316 60.4685C161.141 60.8975 159.885 61.0701 158.636 60.9743Z" fill="#6C7993"/>
<path d="M172 60V20H188V24.5455H177.071V36.993H185V41.3986H177.071V55.3846H188V60H172Z" fill="#6C7993"/>
<path d="M207.433 60L199.271 40.1399L196.664 33.1469V59.7902H192V20H196.184L203.935 40.1399L206.336 47.1329V20H211V60H207.433Z" fill="#6C7993"/>
<path d="M226.306 60H217V20H226.306C232.419 20 235 23.9161 235 29.7902V50.3497C235 56.0839 232.419 60 226.306 60ZM230.177 29.7902C230.177 26.4336 228.955 24.6853 226.034 24.6853H221.891V55.3147H226.034C228.955 55.3147 230.177 53.5664 230.177 50.2797V29.7902Z" fill="#6C7993"/>
<path d="M249 60V20H254V60H249Z" fill="#6C7993"/>
<path d="M268.542 60.9837C267.238 61.0624 265.933 60.8554 264.717 60.3768C263.501 59.8983 262.403 59.1597 261.5 58.2125C260.596 57.2653 259.909 56.132 259.486 54.8913C259.063 53.6507 258.913 52.3325 259.048 51.0281V29.3516C258.935 28.0357 259.096 26.7105 259.52 25.4601C259.943 24.2097 260.622 23.0614 261.511 22.0881C262.4 21.1148 263.481 20.3377 264.686 19.8061C265.89 19.2745 267.191 19 268.507 19C269.822 19 271.123 19.2745 272.327 19.8061C273.532 20.3377 274.613 21.1148 275.502 22.0881C276.391 23.0614 277.07 24.2097 277.493 25.4601C277.917 26.7105 278.078 28.0357 277.965 29.3516V51.3105C278.056 52.5862 277.876 53.8668 277.438 55.0676C277 56.2685 276.312 57.3622 275.422 58.2765C274.531 59.1909 273.457 59.905 272.271 60.3716C271.085 60.8383 269.814 61.0469 268.542 60.9837ZM272.972 28.5749C273.052 27.9389 272.996 27.2932 272.808 26.6806C272.62 26.068 272.304 25.5025 271.882 25.0218C271.459 24.5411 270.94 24.1561 270.358 23.8924C269.776 23.6287 269.145 23.4923 268.507 23.4923C267.868 23.4923 267.237 23.6287 266.655 23.8924C266.073 24.1561 265.554 24.5411 265.131 25.0218C264.709 25.5025 264.393 26.068 264.205 26.6806C264.017 27.2932 263.961 27.9389 264.041 28.5749V51.5929C263.961 52.2289 264.017 52.8747 264.205 53.4873C264.393 54.0999 264.709 54.6653 265.131 55.146C265.554 55.6268 266.073 56.0118 266.655 56.2755C267.237 56.5392 267.868 56.6755 268.507 56.6755C269.145 56.6755 269.776 56.5392 270.358 56.2755C270.94 56.0118 271.459 55.6268 271.882 55.146C272.304 54.6653 272.62 54.0999 272.808 53.4873C272.996 52.8747 273.052 52.2289 272.972 51.5929V28.5749Z" fill="#6C7993"/>
</svg>
