<svg width="200" height="64" viewBox="0 0 339 99" fill="none" xmlns="http://www.w3.org/2000/svg">
<g clip-path="url(#clip0_703_870)">
<path d="M58.3321 93.2664C74.5317 90.3949 87.9116 88.0187 88.0653 87.986L88.3447 87.9265L73.0507 69.6721C64.639 59.6322 57.7567 51.3788 57.7567 51.3312C57.7567 51.2411 73.5491 7.60262 73.6378 7.44737C73.6675 7.39546 84.4147 26.0141 99.6897 52.5801C113.99 77.4517 125.781 97.9584 125.89 98.1506L126.09 98.5L77.4839 98.4937L28.8784 98.4874L58.3321 93.2664ZM244.729 88.8517C237.33 88.3757 233.027 84.1482 231.887 76.2352C231.583 74.1303 231.582 74.0757 231.551 60.4102L231.521 47.1843H234.796H238.07L238.096 59.9771C238.119 71.507 238.134 72.8588 238.244 73.6699C238.689 76.9617 239.577 79.1753 241.088 80.7642C242.297 82.0358 243.713 82.7804 245.673 83.1754C246.598 83.3618 249.228 83.3622 250.071 83.1762C252.057 82.7375 253.65 81.8699 255.055 80.4608C256.656 78.8548 257.84 76.5761 258.413 73.9994L258.607 73.131L258.628 60.2299L258.65 47.3288H261.993H265.336V67.6097V87.8906H262.027H258.719V84.6728C258.719 82.4865 258.695 81.4631 258.644 81.48C258.603 81.4937 258.433 81.7545 258.266 82.0596C257.126 84.1462 255.227 86.0543 253.145 87.2039C250.65 88.5818 248.148 89.0717 244.729 88.8517ZM319.827 88.8189C317.215 88.6219 314.465 87.7209 312.217 86.3258C307.48 83.3852 304.676 78.5382 303.856 71.8678C303.572 69.5596 303.538 66.4591 303.775 64.4978C304.304 60.1153 306.02 55.8131 308.464 52.7417C309.091 51.9543 310.512 50.5282 311.297 49.8996C313.415 48.202 315.894 47.015 318.525 46.4374C320.058 46.1008 322.758 45.9428 324.387 46.0943C328.479 46.4748 332.229 48.4081 334.778 51.4508C337.368 54.5423 338.791 58.862 338.973 64.1813C339.002 65.0149 339.009 66.4764 338.989 67.4291L338.952 69.1613L324.621 69.1795L310.29 69.1977V69.8394C310.29 71.793 310.763 74.0181 311.581 75.9113C312.287 77.5438 313.501 79.3265 314.496 80.1892C316.535 81.9581 319.031 83.0168 321.762 83.2716C322.774 83.3661 325.355 83.2667 326.509 83.0887C329.801 82.581 332.931 81.2853 335.459 79.3837C335.756 79.16 336.041 78.9509 336.091 78.9192C336.165 78.8727 336.183 79.4573 336.181 81.9144L336.178 84.9674L335.501 85.3877C332.642 87.1622 329.366 88.3017 325.898 88.7283C324.863 88.8556 321.064 88.9123 319.827 88.8189ZM332.299 63.0702C332.299 59.7978 330.925 56.1626 328.98 54.2907C327.592 52.9549 325.914 52.1385 323.92 51.8285C322.976 51.6818 320.987 51.7383 319.992 51.94C317.889 52.3664 316.149 53.2942 314.632 54.7987C313.035 56.382 311.838 58.3051 311.085 60.4962C310.814 61.2841 310.498 62.5776 310.4 63.2971L310.353 63.64H321.326H332.299V63.0702ZM137.898 87.8002C137.914 87.7506 142.781 74.9218 148.712 59.2917L159.496 30.8735L162.961 30.8733L166.426 30.8731L166.714 31.6128C167.592 33.8736 188.303 87.8288 188.303 87.8568C188.303 87.8753 186.644 87.8902 184.617 87.8899L180.93 87.8891L177.945 79.9146L174.96 71.9401L162.942 71.9399L150.923 71.9398L150.819 72.2104C150.761 72.3593 149.486 75.9476 147.984 80.1844L145.255 87.8877L141.561 87.889C138.637 87.89 137.873 87.8716 137.898 87.8002ZM172.767 65.8544C172.767 65.8418 170.758 60.3773 168.303 53.7111C163.71 41.2399 163.453 40.4895 163.09 38.4873C162.92 37.5485 162.834 37.5224 162.733 38.3791C162.66 38.9914 162.347 40.3617 162.106 41.1217C161.986 41.4988 159.918 47.1953 157.51 53.7806C155.101 60.3659 153.131 65.7817 153.131 65.8156C153.131 65.8496 157.549 65.8774 162.949 65.8774C168.349 65.8774 172.767 65.867 172.767 65.8544ZM190.532 86.8518V85.8132L202.507 69.2955L214.481 52.7778L203.64 52.7417L192.798 52.7056L192.779 49.945L192.76 47.1843H208.441H224.122V48.1167V49.0492L212.146 65.6569C205.56 74.7912 200.171 82.2801 200.171 82.2989C200.171 82.3177 205.495 82.333 212.002 82.333H223.834V85.1117V87.8904H207.183H190.532V86.8518ZM278.402 87.8423C278.376 87.8158 278.354 78.657 278.354 67.4893V47.1843H281.627H284.9V51.3704C284.9 53.6727 284.927 55.5565 284.962 55.5565C284.996 55.5565 285.155 55.1796 285.316 54.719C286.051 52.6083 287.327 50.636 288.971 49.0685C290.452 47.6564 292.145 46.812 294.142 46.4889C294.703 46.3981 295.178 46.3807 296.3 46.4101C297.709 46.4469 298.446 46.5503 299.303 46.8314L299.573 46.9198V50.3285V53.7372L298.799 53.3488C297.434 52.6627 296.086 52.3913 294.466 52.4758C293.411 52.5308 292.719 52.6666 291.876 52.9841C290.142 53.6372 288.735 54.7901 287.752 56.3638C286.329 58.6419 285.314 61.5702 285.015 64.2616C284.961 64.7446 284.93 68.6782 284.917 76.4328L284.898 87.8904H281.674C279.901 87.8904 278.429 87.8688 278.402 87.8423ZM0 87.6997C0 87.674 7.20646 75.1211 16.0144 59.8043L32.0287 31.9556L50.6916 16.2397C60.9561 7.59598 69.3821 0.513272 69.4159 0.500355C69.4496 0.48744 69.3146 0.828461 69.1158 1.25818C68.917 1.6879 59.7976 21.3154 48.8505 44.8747L28.9468 87.71L14.4734 87.7282C6.51303 87.7382 0 87.7254 0 87.6997Z" fill="#6C7993"/>
</g>
<defs>
<clipPath id="clip0_703_870">
<rect width="339" height="98" fill="white" transform="translate(0 0.5)"/>
</clipPath>
</defs>
</svg>
