<svg width="533" height="61" viewBox="0 0 533 61" fill="none" xmlns="http://www.w3.org/2000/svg">
<g clip-path="url(#clip0_1466_1945)">
<path d="M79.4375 59.6465V0.756046H101.988C112.284 0.756046 119.432 7.41323 119.432 16.8869C119.432 21.9225 116.964 26.5313 112.539 29.0064C118.411 31.2255 121.815 36.261 121.815 42.8329C121.815 52.7333 114.837 59.6465 104.2 59.6465H79.4375ZM89.2234 25.6778H100.966C106.327 25.6778 109.731 22.4346 109.731 17.5697C109.731 12.7048 106.327 9.37624 100.966 9.37624H89.2234V25.6778ZM89.2234 51.0263H102.158C108.114 51.0263 112.029 47.6977 112.029 42.4915C112.029 37.2852 108.114 33.9566 102.158 33.9566H89.2234V51.0263ZM125.927 38.4801C125.927 26.1046 135.118 16.4602 147.201 16.4602C153.158 16.4602 158.178 18.8499 161.327 22.9467V17.3137H170.347V59.6465H161.327V54.0135C158.263 58.1102 153.158 60.5 147.201 60.5C135.118 60.5 125.927 50.8556 125.927 38.4801ZM160.986 38.4801C160.986 30.8841 155.625 25.3364 148.222 25.3364C140.819 25.3364 135.373 30.8841 135.373 38.4801C135.373 46.0761 140.819 51.5384 148.222 51.5384C155.625 51.5384 160.986 46.0761 160.986 38.4801ZM175.52 38.4801C175.52 26.1046 185.135 16.4602 197.729 16.4602C208.111 16.4602 215.174 22.8613 217.812 29.6038L208.962 33.0178C207.26 28.5797 202.92 25.3364 197.729 25.3364C190.326 25.3364 184.965 31.0548 184.965 38.4801C184.965 45.9054 190.411 51.6238 197.729 51.6238C203.005 51.6238 207.26 48.4659 208.962 44.0277L217.812 47.3563C215.174 54.1842 208.111 60.5 197.729 60.5C185.135 60.5 175.52 50.8556 175.52 38.4801ZM223.853 59.6465V0.756046H233.299V36.0903L249.807 17.3137H260.955L243.425 37.5413L261.72 59.6465H250.233L233.299 39.5043V59.6465H223.853ZM274.701 59.6358V0.5H286.483L307.079 39.4936L327.587 0.5H339.107V59.6358H329.42V17.2105L310.657 52.776H303.151L284.388 17.2105V59.6323H274.701V59.6358ZM344.298 38.4694C344.298 26.0939 353.488 16.4495 365.571 16.4495C371.528 16.4495 376.548 18.8393 379.697 22.936V17.303H388.717V59.6358H379.697V54.0028C376.633 58.0996 371.528 60.4893 365.571 60.4893C353.488 60.4893 344.298 50.8449 344.298 38.4694ZM379.356 38.4694C379.356 30.8734 373.996 25.3257 366.592 25.3257C359.189 25.3257 353.743 30.8734 353.743 38.4694C353.743 46.0654 359.189 51.5277 366.592 51.5277C373.996 51.5277 379.356 46.0654 379.356 38.4694ZM395.212 59.6358V17.303H404.232V23.192C406.615 19.522 410.615 17.303 416.571 17.303H419.464V26.7767H415.465C407.806 26.7767 404.658 30.9587 404.658 37.5306V59.6358H395.212ZM424.825 59.6358V0.741821H434.271V36.0797L450.779 17.303H461.927L444.397 37.5306L462.692 59.6358H451.205L434.271 39.4936V59.6358H424.825Z" fill="#6C7993"/>
<path d="M460.466 38.4692C460.466 26.0937 469.911 16.4493 481.91 16.4493C493.908 16.4493 503.013 25.667 503.013 38.2132C503.013 39.2374 503.013 40.3469 502.843 41.3711H469.826C470.933 48.2843 475.698 52.2103 482.335 52.2103C487.441 52.2103 491.355 49.6499 493.568 45.8092L501.396 50.2473C497.142 56.6485 490.504 60.4891 482.335 60.4891C469.911 60.4891 460.466 50.7594 460.466 38.4692ZM470.082 34.4578H493.483C492.632 28.7395 488.207 24.6428 481.825 24.6428C475.953 24.6428 471.443 28.3128 470.082 34.4578ZM526.496 59.6357C516.88 59.6357 512.285 55.4536 512.285 46.6627V26.0083H505.307V17.3028H510.158C511.434 17.3028 512.285 16.4493 512.285 14.913V6.71603H521.73V17.2992H532.963V26.0048H521.73V45.7203C521.73 49.0489 523.347 50.7559 527.176 50.7559H532.963V59.6321H526.496V59.6357ZM60.334 0.755859H6.12174C3.27108 0.755859 0.962891 3.06382 0.962891 5.91589V54.4863C0.962891 57.3384 3.27108 59.6463 6.12174 59.6463H60.334C63.1811 59.6463 65.4929 57.3348 65.4929 54.4863V5.91589C65.4929 3.06738 63.1847 0.755859 60.334 0.755859ZM36.114 48.0425H25.4736C25.1333 48.0425 24.8106 47.9074 24.5695 47.6655L7.53644 30.5816C7.32725 30.3718 7.32725 30.0304 7.53644 29.817L24.5695 12.7331C24.8106 12.4913 25.1333 12.3561 25.4736 12.3561H36.114C36.4047 12.3561 36.5501 12.7082 36.3445 12.9109L19.4887 29.817C19.2795 30.0268 19.2795 30.3682 19.4887 30.5816L36.3445 47.4877C36.5501 47.694 36.4047 48.0425 36.114 48.0425ZM41.8011 30.5816L58.6569 47.4877C58.8626 47.694 58.7172 48.0425 58.4265 48.0425H47.7861C47.4457 48.0425 47.1231 47.9074 46.882 47.6655L29.8489 30.5781C29.6397 30.3682 29.6397 30.0268 29.8489 29.8135L46.882 12.7295C47.1231 12.4877 47.4457 12.3526 47.7861 12.3526H58.4265C58.7172 12.3526 58.8626 12.7046 58.6569 12.9074L41.8011 29.8135C41.592 30.0233 41.592 30.3647 41.8011 30.5781V30.5816Z" fill="#6C7993"/>
</g>
<defs>
<clipPath id="clip0_1466_1945">
<rect width="532" height="60" fill="white" transform="translate(0.962891 0.5)"/>
</clipPath>
</defs>
</svg>
