<svg width="164" height="45" viewBox="0 0 164 95" fill="none" xmlns="http://www.w3.org/2000/svg">
<path d="M121.736 54.7197C120.881 50.5823 119.244 47.1615 116.883 44.0473C112.044 37.661 104.206 33.6246 93.5966 33.6246C77.104 33.6246 66.9637 44.8243 63.9608 56.63C61.2638 48.3056 54.0461 42.6897 46.422 40.3169C52.1606 36.1336 55.1648 30.1494 55.1648 23.3181C55.1648 16.9772 52.5252 11.2053 48.1067 7.44888C41.6243 1.93822 32.7883 0.813477 21.9007 0.813477C13.5431 0.813477 10.3902 0.813477 0.618164 0.813477V92.7132C6.64826 92.7132 12.8465 92.6866 18.8887 92.7132C24.2645 92.738 29.5145 92.7059 34.4102 92.51C49.9063 91.889 60.5128 84.0889 63.9076 72.3758C65.0734 77.5835 67.3157 81.8291 70.2436 85.051C76.2108 91.6193 84.8623 94.1868 93.5749 94.1868C104.302 94.1868 112.058 91.0756 117.357 86.3081L109.773 77.3948C105.957 80.272 101.052 81.9682 95.5438 81.9682C84.7408 81.9343 79.9769 75.0988 79.55 68.5263H121.736V92.7132H137.537V1.27245H121.736V54.7197H121.736ZM16.855 13.2292L21.2458 13.2268C25.486 13.2268 28.8348 13.6828 31.2464 14.6188C36.0078 16.4662 38.2712 20.2522 38.2712 24.9816C38.2766 28.9805 36.7467 35.2646 28.3347 36.9826C26.9276 37.2698 24.9006 37.4288 22.0367 37.4288C17.9925 37.4288 16.855 37.4288 16.855 37.4288V13.2292ZM34.7186 79.2628C32.7406 79.6183 30.3218 79.6975 28.3571 79.6975C22.4135 79.6975 16.8538 79.6975 16.8538 79.6975L16.8544 49.7164C16.8544 49.7164 22.8924 49.7164 27.1471 49.7164C30.3955 49.7164 34.0715 50.0816 36.1777 50.6331C43.3985 52.5276 47.5467 57.7051 47.5467 64.5612C47.5467 71.6604 43.7268 77.6397 34.7186 79.2628ZM79.8409 57.1004C81.2335 50.4064 86.1818 45.5881 93.4745 45.5881C100.775 45.5881 105.631 49.9051 106.89 57.1004H79.8409Z" fill="#6C7993"/>
<path d="M163.618 1.27246H148.086V92.7126H163.618V1.27246Z" fill="#6C7993"/>
</svg>
