<svg width="318" height="56" viewBox="0 0 318 56" fill="none" xmlns="http://www.w3.org/2000/svg">
<g clip-path="url(#clip0_1323_1616)">
<path d="M0.5 2.20312L10.1817 5.06708V44.7219L0.5 47.5858V2.20312Z" fill="#6C7993"/>
<path d="M15.7754 22.4709L25.242 24.8943V46.2638L15.7754 48.2466V22.4709Z" fill="#6C7993"/>
<path d="M31.9116 18.2852L40.7327 15.8618V42.078L31.9116 39.4344V18.2852Z" fill="#6C7993"/>
<path d="M46.542 0L56.2237 2.86396V47.3654L46.542 49.7888V0Z" fill="#6C7993"/>
<path d="M295.376 29.9974H312.459C312.172 27.7841 311.248 25.9908 309.687 24.6176C308.126 23.2443 306.231 22.5577 304.001 22.5577C301.739 22.5577 299.796 23.2605 298.171 24.666C296.563 26.0554 295.631 27.8325 295.376 29.9974ZM295.376 33.6809C295.535 36.0719 296.459 38.0106 298.147 39.4969C299.852 40.9833 301.994 41.7264 304.574 41.7264C306.231 41.7264 307.776 41.371 309.209 40.6601C310.643 39.9493 311.957 38.8992 313.152 37.5098L316.425 40.1755C314.784 42.1142 312.984 43.5439 311.025 44.4648C309.082 45.3857 306.884 45.8461 304.431 45.8461C302.408 45.8461 300.521 45.4745 298.769 44.7314C297.017 43.9882 295.511 42.93 294.253 41.5568C293.154 40.3451 292.31 38.9476 291.72 37.3644C291.131 35.765 290.836 34.0929 290.836 32.348C290.836 28.2122 292.055 24.868 294.492 22.3154C296.929 19.7628 300.115 18.4865 304.049 18.4865C308.063 18.4865 311.304 19.8516 313.773 22.5819C316.258 25.2961 317.5 28.8827 317.5 33.3416V33.6809H295.376ZM285.358 25.1992C284.567 24.2944 283.662 23.6321 282.645 23.212C281.643 22.7758 280.496 22.5577 279.204 22.5577C276.7 22.5577 274.641 23.4624 273.025 25.2719C271.426 27.0651 270.627 29.3673 270.627 32.1784C270.627 34.9895 271.418 37.2836 273.001 39.0607C274.6 40.8379 276.668 41.7264 279.204 41.7264C280.577 41.7264 281.788 41.4841 282.838 40.9994C283.905 40.5147 284.809 39.7958 285.552 38.8426L288.532 42.2596C287.176 43.5035 285.746 44.4163 284.244 44.9979C282.758 45.5634 281.078 45.8461 279.204 45.8461C277.282 45.8461 275.505 45.523 273.873 44.8768C272.242 44.2305 270.828 43.2935 269.633 42.0657C268.357 40.7732 267.388 39.295 266.725 37.631C266.079 35.9508 265.756 34.1332 265.756 32.1784C265.756 30.2236 266.079 28.4061 266.725 26.7259C267.388 25.0457 268.357 23.5594 269.633 22.2669C270.845 21.0229 272.258 20.0859 273.873 19.4558C275.489 18.8096 277.266 18.4865 279.204 18.4865C281.045 18.4865 282.709 18.7611 284.195 19.3104C285.698 19.8597 287.063 20.6917 288.29 21.8065L285.358 25.1992ZM241.245 45.1918V19.1408H245.78V22.1215C246.922 20.9421 248.12 20.0697 249.375 19.5043C250.645 18.9227 252.004 18.6319 253.452 18.6319C256.427 18.6319 258.775 19.6497 260.496 21.6853C262.217 23.7209 263.077 26.5239 263.077 30.0943V45.1918H258.494V30.5548C258.494 27.8245 258.019 25.8292 257.07 24.5691C256.137 23.2928 254.666 22.6546 252.656 22.6546C250.372 22.6546 248.651 23.3332 247.493 24.6903C246.351 26.0312 245.78 28.0506 245.78 30.7486V45.1918H241.245ZM223.797 41.5568C226.354 41.5568 228.456 40.6763 230.103 38.9153C231.75 37.1544 232.574 34.8926 232.574 32.1299C232.574 29.3835 231.75 27.1298 230.103 25.3688C228.456 23.5917 226.354 22.7031 223.797 22.7031C221.24 22.7031 219.138 23.5836 217.491 25.3446C215.843 27.1055 215.02 29.3673 215.02 32.1299C215.02 34.9087 215.843 37.1786 217.491 38.9396C219.138 40.6844 221.24 41.5568 223.797 41.5568ZM236.81 45.1918H232.339V40.9267C231.272 42.4615 229.97 43.6166 228.433 44.3921C226.911 45.1514 225.162 45.5311 223.185 45.5311C221.428 45.5311 219.75 45.1918 218.15 44.5133C216.565 43.8186 215.153 42.8169 213.914 41.5083C212.737 40.2482 211.851 38.8265 211.255 37.2432C210.659 35.66 210.361 33.9394 210.361 32.0815C210.361 28.0587 211.529 24.8114 213.867 22.3396C216.22 19.8678 219.326 18.6319 223.185 18.6319C225.13 18.6319 226.911 19.0438 228.527 19.8678C230.143 20.6756 231.523 21.8549 232.668 23.4059V19.1408H236.81V45.1918ZM183.845 11.7496V40.7328H187.364C192.493 40.7328 196.356 39.5131 198.952 37.0736C201.564 34.6341 202.869 31.0233 202.869 26.2412C202.869 21.443 201.564 17.8322 198.952 15.4088C196.356 12.9693 192.493 11.7496 187.364 11.7496H183.845ZM186.636 7.26636C193.517 7.26636 198.749 8.88192 202.33 12.1131C205.927 15.328 207.725 20.0374 207.725 26.2412C207.725 32.4288 205.927 37.1382 202.33 40.3693C198.749 43.5843 193.517 45.1918 186.636 45.1918H179.036V7.26636H186.636ZM150.463 29.9974H167.27C166.988 27.7841 166.079 25.9908 164.543 24.6176C163.008 23.2443 161.143 22.5577 158.949 22.5577C156.724 22.5577 154.812 23.2605 153.213 24.666C151.631 26.0554 150.714 27.8325 150.463 29.9974ZM150.463 33.6809C150.62 36.0719 151.529 38.0106 153.19 39.4969C154.867 40.9833 156.974 41.7264 159.513 41.7264C161.143 41.7264 162.663 41.371 164.073 40.6601C165.484 39.9493 166.776 38.8992 167.952 37.5098L171.172 40.1755C169.558 42.1142 167.787 43.5439 165.86 44.4648C163.948 45.3857 161.785 45.8461 159.372 45.8461C157.382 45.8461 155.525 45.4745 153.801 44.7314C152.077 43.9882 150.596 42.93 149.358 41.5568C148.277 40.3451 147.446 38.9476 146.867 37.3644C146.287 35.765 145.997 34.0929 145.997 32.348C145.997 28.2122 147.196 24.868 149.593 22.3154C151.991 19.7628 155.125 18.4865 158.996 18.4865C162.945 18.4865 166.134 19.8516 168.563 22.5819C171.008 25.2961 172.23 28.8827 172.23 33.3416V33.6809H150.463ZM133.484 12.7917V19.1408H129.68H124.595L117.758 35.6197C117.644 35.8944 117.425 36.508 117.101 37.4612C116.793 38.3982 116.412 39.5535 115.958 40.9267C115.552 39.4727 115.203 38.2851 114.911 37.3642C114.636 36.4434 114.441 35.8621 114.327 35.6197L107.588 19.1408H102.406L113.33 45.1917L108.731 56H113.427L128.043 22.8527L133.484 23.018V39.7877C133.484 41.9687 134.032 43.5276 135.129 44.4646C136.226 45.3855 138.07 45.846 140.659 45.846H143.546V41.4599H140.848C140.075 41.4599 139.509 41.2822 139.149 40.9267C138.807 40.5713 138.636 40.0058 138.636 39.2303V23.018H143.546V19.1408H138.636V12.7917H133.484ZM74.5234 45.1918V7.26636H81.6992C84.4688 7.26636 86.6539 7.3956 88.2545 7.65409C89.8731 7.89643 91.2129 8.30032 92.274 8.86577C94.0904 9.83511 95.4662 11.0629 96.4014 12.5493C97.3546 14.0194 97.8312 15.6835 97.8312 17.5414C97.8312 19.0762 97.3906 20.4817 96.5093 21.758C95.6461 23.0343 94.4142 24.0763 92.8135 24.8841C95.4392 25.6596 97.4265 26.8713 98.7754 28.5191C100.142 30.1509 100.826 32.1703 100.826 34.5775C100.826 37.5663 99.5127 40.0866 96.887 42.1384C94.2793 44.174 91.0241 45.1918 87.1215 45.1918H74.5234ZM79.9997 23.5997H84.5317C87.0496 23.5997 88.9919 23.0747 90.3587 22.0246C91.7435 20.9744 92.4359 19.4962 92.4359 17.5898C92.4359 15.5865 91.7435 14.076 90.3587 13.0582C88.9739 12.0404 86.9057 11.5315 84.1541 11.5315H79.9997V23.5997ZM79.9997 40.7328H85.5838C88.7311 40.7328 91.114 40.1916 92.7326 39.1092C94.3692 38.0268 95.1875 36.4274 95.1875 34.311C95.1875 32.2269 94.3962 30.6517 92.8135 29.5854C91.2309 28.503 88.893 27.9618 85.7996 27.9618H79.9997V40.7328Z" fill="#6C7993"/>
</g>
<defs>
<clipPath id="clip0_1323_1616">
<rect width="317" height="56" fill="white" transform="translate(0.5)"/>
</clipPath>
</defs>
</svg>
