<svg width="312" height="41" viewBox="0 0 312 41" fill="none" xmlns="http://www.w3.org/2000/svg">
<g clip-path="url(#clip0_847_1657)">
<path d="M18.8791 40.1565C16.1533 40.1565 13.671 39.7225 11.4306 38.8544C9.19071 37.9858 7.26709 36.7106 5.66264 35.0282C4.05656 33.3458 2.81501 31.2928 1.93841 28.8682C1.06058 26.4449 0.62207 23.6583 0.62207 20.5102C0.62207 17.3625 1.10716 14.5676 2.07817 12.1252C3.04836 9.68327 4.3741 7.6302 6.05415 5.96564C7.7342 4.30188 9.67499 3.03495 11.8786 2.16604C14.0813 1.29871 16.4152 0.864258 18.8791 0.864258C20.5592 0.864258 22.0619 0.972377 23.3872 1.1898C24.7121 1.40683 25.8601 1.6603 26.8315 1.94941C27.8017 2.23931 28.5859 2.52881 29.1834 2.81792C29.7805 3.10782 30.1916 3.32446 30.416 3.46901L28.7915 7.81119C28.4555 7.59376 27.97 7.35891 27.3358 7.10545C26.7003 6.85277 25.9639 6.59931 25.1236 6.34545C24.2834 6.09317 23.3598 5.88446 22.3516 5.72129C21.3438 5.55891 20.2796 5.47733 19.1595 5.47733C17.2555 5.47733 15.5194 5.82188 13.9513 6.50861C12.3829 7.19654 11.0391 8.19099 9.91897 9.49357C8.7992 10.7965 7.93118 12.3795 7.31491 14.2425C6.69904 16.1062 6.3909 18.1957 6.3909 20.5106C6.3909 22.7546 6.66144 24.7985 7.20293 26.6437C7.74319 28.4888 8.56503 30.0718 9.66682 31.3922C10.7674 32.7134 12.1307 33.7351 13.7548 34.4587C15.3792 35.1827 17.2918 35.5439 19.4954 35.5439C21.9593 35.5439 24.0035 35.2908 25.6275 34.7839C27.252 34.2777 28.4739 33.8258 29.2958 33.427L30.6959 37.7688C30.4343 37.9502 29.968 38.1759 29.2958 38.4472C28.6235 38.7185 27.7837 38.9819 26.7755 39.2338C25.7677 39.4868 24.5915 39.7039 23.2474 39.8856C21.9033 40.0662 20.4472 40.1565 18.8791 40.1565Z" fill="#6C7993"/>
<path d="M53.3765 1.73291C54.7207 4.44657 56.0088 7.18677 57.241 9.95509C58.4731 12.7226 59.7138 15.626 60.9648 18.6652C62.2153 21.7044 63.4936 24.9163 64.8014 28.2985C66.1075 31.6822 67.5076 35.3634 69.0013 39.3428H63.0649C62.4295 37.7151 61.8328 36.1052 61.2729 34.5131C60.7126 32.921 60.1335 31.3111 59.5369 29.683H41.9521L38.424 39.3432H32.7676C34.2605 35.3638 35.6606 31.6826 36.9675 28.2989C38.274 24.9167 39.5524 21.7052 40.8041 18.6656C42.0547 15.6264 43.2962 12.723 44.528 9.95548C45.7601 7.18717 47.0482 4.44697 48.392 1.73331L53.3765 1.73291ZM50.7447 7.75667C49.4373 10.4703 48.197 13.2925 47.0205 16.2232C45.8447 19.1535 44.6775 22.2121 43.5206 25.3951H57.9692C56.7738 22.2478 55.5891 19.1994 54.4129 16.2501C53.2364 13.3016 52.0132 10.4703 50.7447 7.75667Z" fill="#6C7993"/>
<path d="M101.09 39.3428C100.268 38.0046 99.3263 36.5028 98.2622 34.8383C97.198 33.1745 96.05 31.4466 94.8175 29.6553C93.5853 27.8648 92.3066 26.0466 90.9812 24.2014C89.6559 22.3559 88.34 20.5737 87.0331 18.8553C85.7261 17.1369 84.4572 15.5171 83.2255 13.9975C81.9937 12.4779 80.8535 11.1396 79.8094 9.98123V39.342H74.4893V1.73291H78.8012C80.556 3.54202 82.4318 5.64935 84.4294 8.05529C86.4262 10.4616 88.4054 12.9396 90.3654 15.4901C92.3254 18.0406 94.1734 20.5468 95.9094 23.007C97.6455 25.468 99.1106 27.6565 100.306 29.5737V1.73291H105.626V39.3424L101.09 39.3428Z" fill="#6C7993"/>
<path d="M185.878 39.3428C185.055 38.0046 184.114 36.5028 183.05 34.8383C181.985 33.1745 180.837 31.4466 179.605 29.6553C178.373 27.8648 177.094 26.0466 175.769 24.2014C174.443 22.3559 173.127 20.5737 171.821 18.8553C170.514 17.1369 169.245 15.5171 168.013 13.9975C166.781 12.4779 165.641 11.1396 164.596 9.98123V39.342H159.276V1.73291H163.588C165.344 3.54202 167.219 5.64935 169.217 8.05529C171.214 10.4616 173.193 12.9396 175.153 15.4901C177.113 18.0406 178.961 20.5468 180.697 23.007C182.433 25.468 183.898 27.6565 185.093 29.5737V1.73291H190.414V39.3424L185.878 39.3428Z" fill="#6C7993"/>
<path d="M200.27 1.73291H205.702V39.3424H200.27V1.73291Z" fill="#6C7993"/>
<path d="M232.246 40.1565C229.52 40.1565 227.038 39.7225 224.797 38.8544C222.558 37.9858 220.634 36.7106 219.03 35.0282C217.424 33.3458 216.182 31.2928 215.306 28.8682C214.429 26.4449 213.989 23.6583 213.989 20.5102C213.989 17.3625 214.475 14.5676 215.445 12.1252C216.416 9.68327 217.741 7.6302 219.421 5.96564C221.101 4.30188 223.043 3.03495 225.246 2.16604C227.448 1.29871 229.782 0.864258 232.246 0.864258C233.926 0.864258 235.429 0.972377 236.754 1.1898C238.079 1.40683 239.227 1.6603 240.199 1.94941C241.169 2.23931 241.953 2.52881 242.551 2.81792C243.147 3.10782 243.559 3.32446 243.783 3.46901L242.159 7.81119C241.823 7.59376 241.337 7.35891 240.703 7.10545C240.067 6.85277 239.331 6.59931 238.491 6.34545C237.651 6.09317 236.727 5.88446 235.719 5.72129C234.711 5.55891 233.647 5.47733 232.527 5.47733C230.623 5.47733 228.886 5.82188 227.319 6.50861C225.75 7.19654 224.407 8.19099 223.286 9.49357C222.166 10.7965 221.298 12.3795 220.682 14.2425C220.066 16.1062 219.758 18.1957 219.758 20.5106C219.758 22.7546 220.029 24.7985 220.57 26.6437C221.111 28.4888 221.932 30.0718 223.034 31.3922C224.134 32.7134 225.497 33.7351 227.122 34.4587C228.746 35.1827 230.659 35.5439 232.863 35.5439C235.326 35.5439 237.371 35.2908 238.995 34.7839C240.619 34.2777 241.842 33.8258 242.663 33.427L244.063 37.7688C243.801 37.9502 243.335 38.1759 242.663 38.4472C241.991 38.7185 241.151 38.9819 240.143 39.2338C239.135 39.4868 237.959 39.7039 236.615 39.8856C235.271 40.0662 233.815 40.1565 232.246 40.1565Z" fill="#6C7993"/>
<path d="M266.744 1.73291C268.088 4.44657 269.376 7.18677 270.609 9.95509C271.84 12.7226 273.081 15.626 274.332 18.6652C275.583 21.7044 276.861 24.9163 278.169 28.2985C279.475 31.6822 280.875 35.3634 282.369 39.3428H276.432C275.797 37.7151 275.2 36.1052 274.64 34.5131C274.08 32.921 273.501 31.3111 272.904 29.683H255.32L251.791 39.3432H246.135C247.627 35.3638 249.027 31.6826 250.335 28.2989C251.641 24.9167 252.92 21.7052 254.171 18.6656C255.422 15.6264 256.663 12.723 257.895 9.95548C259.127 7.18717 260.415 4.44697 261.759 1.73331L266.744 1.73291ZM264.112 7.75667C262.805 10.4703 261.563 13.2925 260.388 16.2232C259.212 19.1535 258.044 22.2121 256.888 25.3951H271.336C270.141 22.2478 268.956 19.1994 267.78 16.2501C266.604 13.3016 265.38 10.4703 264.112 7.75667Z" fill="#6C7993"/>
<path d="M311.209 34.9468V39.3428H287.856V1.73291H293.289V34.9468H311.209Z" fill="#6C7993"/>
<path d="M132.452 33.0205C125.322 33.0205 119.543 27.4213 119.543 20.5108C119.543 13.6015 125.322 8.00146 132.452 8.00146C139.581 8.00146 145.36 13.6015 145.36 20.5108C145.36 27.4213 139.581 33.0205 132.452 33.0205Z" fill="#6C7993"/>
<path d="M152.725 20.5112C152.725 31.3611 143.648 40.1567 132.452 40.1567C121.255 40.1567 112.18 31.3607 112.18 20.5112C112.18 9.66088 121.255 0.865234 132.452 0.865234C143.648 0.864838 152.725 9.66048 152.725 20.5112ZM132.452 5.64385C123.978 5.64385 117.111 12.3005 117.111 20.5112C117.111 28.7231 123.978 35.3777 132.452 35.3777C140.925 35.3777 147.793 28.7231 147.793 20.5112C147.793 12.3001 140.925 5.64385 132.452 5.64385Z" fill="#6C7993"/>
</g>
<defs>
<clipPath id="clip0_847_1657">
<rect width="311" height="40" fill="white" transform="translate(0.28125 0.5)"/>
</clipPath>
</defs>
</svg>
