<svg width="215" height="50" viewBox="0 0 215 79" fill="none" xmlns="http://www.w3.org/2000/svg">
<g clip-path="url(#clip0_1197_1581)">
<path fill-rule="evenodd" clip-rule="evenodd" d="M143.188 58.9267C134.532 65.0839 124.295 71.5156 113.3 78.222L112.863 78.4966C112.7 78.6036 112.7 78.8223 112.807 78.934C112.914 79.0969 113.133 79.0969 113.244 78.9899L113.625 78.7712C122.937 73.9217 133.663 68.0903 144.439 62.1472L144.602 62.0402C144.062 61.1606 143.57 60.0715 143.188 58.9267ZM199.865 12.9781C186.252 -2.06349 98.7066 11.4516 61.4679 19.6286L60.5985 19.7915C60.4358 19.8474 60.3242 20.0102 60.3242 20.1731C60.38 20.336 60.5427 20.4477 60.7054 20.4477L61.5748 20.2848C92.4443 14.7792 156.582 7.15135 170.409 20.8852C174.602 25.0831 173.621 30.477 168.721 36.8017C171.334 38.4911 173.24 41.1625 174.058 44.4854C193.114 31.7848 205.964 19.6845 199.865 12.9781Z" fill="#6C7993"/>
<path fill-rule="evenodd" clip-rule="evenodd" d="M148.745 54.9476C148.907 60.2345 152.282 64.5395 156.639 64.5395C165.077 64.5395 168.67 54.1844 168.452 47.2081C168.289 41.9212 164.858 37.5605 160.502 37.5605C153.152 37.6675 148.47 47.9714 148.745 54.9476ZM144.281 54.6731C143.956 45.6258 151.032 36.4156 161.269 36.4156C168.131 36.4156 172.594 40.9951 172.864 48.0226C173.189 57.5585 166.601 66.28 155.876 66.28C149.014 66.2847 144.495 61.7052 144.281 54.6731ZM47.0936 52.2763C46.7124 52.4392 46.2754 52.5509 45.6803 52.6579C45.0806 52.7649 44.0485 52.9837 42.4678 53.2024C41.3799 53.3653 40.6733 53.584 40.2363 53.9098C39.8551 54.2356 39.5808 54.566 39.5296 54.9988C39.4227 55.4875 39.5854 55.8179 40.0178 56.1437C40.4548 56.4183 41.1056 56.5812 42.0866 56.5812C42.7932 56.5812 43.4999 56.4741 44.2112 56.2554C44.9178 56.0367 45.5176 55.7109 45.9546 55.3293C46.28 55.0547 46.4985 54.6731 46.717 54.2402C46.7682 53.9657 46.9309 53.3095 47.0936 52.2763ZM56.0244 46.7706C55.9686 47.5897 55.8617 48.353 55.6432 49.6049L54.1183 58.1077C54.0113 58.8709 54.281 59.4713 54.9876 59.8529L54.9318 60.1787H46.2754L46.2196 58.0006C44.969 58.7639 43.4441 59.4154 42.0819 59.7971C40.7198 60.1229 39.6319 60.2857 37.9443 60.2857C35.1688 60.2857 33.5324 60.0112 32.4445 59.0338C31.3008 58.0518 30.7569 57.4003 30.8127 55.9808C30.8685 55.2176 31.2497 54.1844 31.8494 53.4723C32.4492 52.7649 33.2627 52.2716 34.1367 51.89C35.0061 51.4525 36.0986 51.1826 37.6235 50.908C39.1484 50.6334 41.273 50.4193 44.1043 50.2006C45.5734 50.0936 46.4985 49.7119 46.9355 49.5444C47.5352 49.3257 47.7538 49.0557 47.8607 48.5624C48.0234 47.6921 47.7538 47.1988 46.6101 46.9801C43.5045 46.3797 37.6793 47.3617 34.6342 48.1249L36.266 43.7083C40.2409 43.108 43.9415 42.7822 47.8607 42.7822C54.0625 42.6845 56.0802 44.4809 56.0244 46.7706ZM81.0687 60.1228L84.0626 43.1731H92.3379L89.3439 60.1228H81.0687ZM84.4996 39.2498C84.7739 37.835 86.9497 36.7414 89.3997 36.7414C91.8498 36.7414 93.6443 37.8862 93.4304 39.2498C93.1561 40.6646 90.9804 41.7583 88.5304 41.7583C86.0245 41.8095 84.2811 40.6693 84.4996 39.2498ZM121.683 52.3321C121.301 52.4392 120.813 52.6067 120.269 52.7137C119.67 52.8766 118.637 53.0395 117.057 53.2583C115.969 53.4211 115.262 53.6399 114.825 53.9657C114.444 54.2402 114.17 54.6219 114.119 55.0547C114.012 55.5434 114.226 55.925 114.607 56.1996C115.044 56.4741 115.695 56.637 116.676 56.637C117.382 56.637 118.089 56.53 118.8 56.3113C119.507 56.0925 120.107 55.7667 120.544 55.3851C120.869 55.1105 121.087 54.7289 121.306 54.2961C121.357 54.0215 121.52 53.3653 121.683 52.3321ZM130.613 46.7706C130.558 47.5897 130.451 48.353 130.176 49.6049L128.651 58.1077C128.545 58.8709 128.814 59.4713 129.47 59.8529L129.414 60.1275H120.757L120.702 57.9495C119.451 58.7127 117.926 59.3643 116.564 59.7459C115.202 60.1275 114.058 60.2345 112.426 60.2345C109.651 60.2345 108.07 59.96 106.927 58.9826C105.783 58.0053 105.239 57.3491 105.295 55.9296C105.351 55.1105 105.732 54.1332 106.331 53.4211C106.931 52.7091 107.745 52.2204 108.619 51.7876C109.488 51.3501 110.581 51.0802 112.05 50.8056C113.575 50.5869 115.699 50.317 118.582 50.0982C120.051 49.9912 120.976 49.6607 121.413 49.4979C122.013 49.2791 122.231 49.0092 122.338 48.5159C122.501 47.6456 122.231 47.1523 121.087 46.9335C117.982 46.3332 112.157 47.3152 109.112 48.0784L110.743 43.6618C114.718 43.0614 118.419 42.6798 122.338 42.6798C128.651 42.7403 130.669 44.4809 130.613 46.7706ZM29.6737 54.0215C27.0051 54.566 25.4803 54.7848 22.8117 54.7848C18.8368 54.7848 15.7359 52.8208 15.8986 49.2233C16.0056 46.8265 18.8368 41.7583 26.08 41.7583C28.3673 41.7583 30.1107 42.14 32.5049 43.5036L33.5417 37.6163C30.2734 36.3644 28.1535 36.2015 25.3733 36.2527C15.8986 36.3597 6.86092 40.6693 5.71726 49.3862C4.57359 58.2706 15.4105 60.5045 20.199 60.5045C22.9744 60.5045 25.8615 60.3974 28.5812 60.1228L29.6737 54.0215ZM96.8568 43.1219L97.4565 39.6873L106.113 37.7792L105.188 43.1219H109.432L108.614 46.5566H104.532L102.026 60.1834C102.026 60.1834 93.6954 60.1275 93.6443 60.1834L96.1501 46.6124H92.9934L93.6489 43.1778H96.8614L96.8568 43.1219ZM139 60.1228H130.562L134.807 36.5226L143.026 36.7414L139 60.1228ZM70.1249 47.1523C69.037 47.1523 68.056 47.478 67.1867 48.1342C66.3173 48.7905 65.7734 49.7678 65.5549 51.0244C65.2806 52.495 65.4479 53.584 66.043 54.2402C66.6427 54.8965 67.4563 55.2222 68.6 55.2222C69.3624 55.2222 70.1249 55.1152 70.7246 54.7848C71.4312 54.4031 71.924 54.0215 72.3564 53.37C72.7934 52.7137 73.1188 52.0063 73.2815 51.1361C73.5001 49.7724 73.3373 48.7905 72.6818 48.1389C72.0263 47.4873 71.1616 47.1523 70.1249 47.1523ZM55.0434 65.9543L59.0741 43.2802H66.3173L65.7734 46.1703C66.4289 45.3 67.4052 44.5879 68.8231 43.9922C70.2364 43.3919 71.8171 43.0102 73.5047 43.0102C75.4108 43.0102 76.5545 43.1173 77.9678 43.8293C79.3811 44.5926 80.362 45.6258 80.906 47.0452C81.4499 48.4088 81.5615 49.9865 81.2872 51.6759C80.799 54.4543 79.4369 56.6882 77.2053 58.3264C74.9738 59.96 73.0119 60.3974 70.1295 60.3974C69.0928 60.3974 68.2792 60.2904 67.5725 60.1228C66.8659 59.96 66.322 59.7412 65.9407 59.4666C65.5595 59.1921 65.1225 58.8104 64.5786 58.2147L63.2164 66.0101H55.0481V65.9543H55.0434ZM205.202 49.2233C205.147 47.8597 204.496 46.9335 203.078 46.9335C199.703 46.9335 196.053 53.584 195.453 56.2554C201.009 56.3113 205.314 52.9837 205.202 49.2233ZM205.909 59.69L206.564 60.1275C204.933 63.5063 201.557 66.2335 197.583 66.2335C194.37 66.2335 191.702 64.0554 191.539 60.0205C191.265 52.7696 198.071 46.012 203.626 46.012C206.021 46.012 208.201 47.0499 208.308 49.6096C208.526 55.3851 200.414 57.1304 195.077 57.242C194.914 57.8424 194.858 58.4428 194.858 59.3689C194.965 61.7657 196.383 63.7855 199.377 63.7855C202.046 63.7762 204.603 61.7052 205.909 59.69ZM172.752 49.0604C173.352 49.0045 174.277 48.8975 174.658 48.8975C175.258 48.8975 175.858 49.0045 175.858 49.6049C175.858 49.9865 175.202 52.5462 175.095 53.1466L173.789 58.8151C173.245 61.1607 172.701 63.6133 172.208 65.5168H175.528L177.378 56.4695C183.04 50.531 185.272 48.6229 186.578 48.6229C187.178 48.6229 187.615 48.9487 187.615 49.6607C187.671 50.6986 187.015 53.0954 186.797 53.7469L184.891 60.3416C184.454 61.8122 184.128 63.1758 184.184 64.102C184.24 65.5726 185.109 66.173 186.416 66.173C188.81 66.173 190.609 63.6645 192.134 61.1607L191.697 60.3416C191.097 61.3236 189.628 63.5016 188.484 63.5016C188.103 63.5016 187.778 63.2829 187.778 62.6825C187.722 61.9193 188.052 60.7744 188.266 60.0112L190.391 52.3275C190.934 50.2006 191.209 48.837 191.209 48.1296C191.153 46.7148 190.339 46.0027 189.033 46.0027C186.857 46.0027 183.97 47.5851 177.82 54.6684H177.713L178.475 51.2338C178.912 49.3257 179.293 47.3663 179.726 46.0027C177.601 46.766 174.551 47.6363 172.701 47.9667L172.752 49.0604Z" fill="#6C7993"/>
<path fill-rule="evenodd" clip-rule="evenodd" d="M208.852 42.9032C208.852 41.2138 210.214 39.9619 211.846 39.9619C213.426 39.9619 214.84 41.2138 214.84 42.9032C214.84 44.5926 213.477 45.8445 211.846 45.8445C210.214 45.9004 208.852 44.6438 208.852 42.9032ZM211.846 45.407C213.152 45.407 214.24 44.3692 214.24 42.9544C214.24 41.5396 213.203 40.5018 211.846 40.5018C210.483 40.5018 209.451 41.5396 209.451 42.9544C209.451 44.3739 210.483 45.407 211.846 45.407ZM211.246 44.6438H210.702V41.265H212.008C212.826 41.265 213.208 41.5396 213.208 42.247C213.208 42.8474 212.826 43.1173 212.338 43.1731L213.319 44.6438H212.72L211.85 43.1731H211.25L211.246 44.6438ZM211.846 42.7403C212.283 42.7403 212.664 42.6845 212.664 42.1958C212.664 41.7583 212.283 41.7071 211.901 41.7071H211.195V42.745H211.846V42.7403Z" fill="#004977"/>
</g>
<defs>
<clipPath id="clip0_1197_1581">
<rect width="215" height="79" fill="white"/>
</clipPath>
</defs>
</svg>
