
<svg
  xmlns="http://www.w3.org/2000/svg"
  viewBox="0 0 107 25"
>
<path d="M13.9099 9.17396C15.3528 10.3413 16.2507 11.923 16.6035 13.919H12.8594C12.6538 12.8469 12.1541 12.0069 11.3604 11.399C10.5667 10.7911 9.57227 10.4872 8.37719 10.4872C7.74087 10.4719 7.10857 10.5922 6.52226 10.8399C5.93596 11.0877 5.40904 11.4573 4.97648 11.9243C4.07053 12.8833 3.61755 14.2899 3.61755 16.1441C3.61755 17.9983 4.07053 19.4099 4.97648 20.3787C5.40666 20.8498 5.93275 21.2232 6.51935 21.4739C7.10595 21.7246 7.73945 21.8467 8.37719 21.832C9.57227 21.832 10.5667 21.5227 11.3604 20.904C12.1541 20.2853 12.6538 19.4404 12.8594 18.3692H16.5995C16.2484 20.3697 15.3506 21.9568 13.9059 23.1304C12.4612 24.304 10.6371 24.8913 8.43376 24.8922C6.78346 24.8922 5.32531 24.542 4.0593 23.8416C2.79257 23.1419 1.75657 22.089 1.07745 20.8111C0.359151 19.4929 0 17.9373 0 16.1441C0 14.3716 0.359151 12.8263 1.07745 11.5081C1.75733 10.2307 2.79313 9.17804 4.0593 8.47762C5.32621 7.77724 6.78436 7.42704 8.43376 7.42704C10.6425 7.42704 12.4679 8.00935 13.9099 9.17396Z" fill="currentColor"/>
<path d="M42.0678 1.80116H38.5445V24.6754H42.0678V1.80116Z" fill="currentColor"/>
<path d="M61.2289 11.5082C60.5161 10.2183 59.4417 9.16495 58.138 8.47773C56.7642 7.76411 55.2346 7.4031 53.6867 7.42716C52.0382 7.42716 50.5599 7.77735 49.2517 8.47773C47.952 9.17049 46.879 10.2225 46.1607 11.5082C45.4083 12.8273 45.0321 14.3726 45.0321 16.1442C45.0321 17.9158 45.4083 19.4665 46.1607 20.7964C46.8748 22.0891 47.9485 23.1469 49.2517 23.8417C50.5599 24.5421 52.0382 24.8923 53.6867 24.8923C55.2346 24.9163 56.7642 24.5553 58.138 23.8417C59.4422 23.1553 60.5168 22.1017 61.2289 20.8112C61.9706 19.493 62.3414 17.9374 62.3414 16.1442C62.3432 14.3717 61.9723 12.8264 61.2289 11.5082ZM58.0302 19.2973C57.6149 20.0925 56.9752 20.7482 56.1905 21.1829C55.4184 21.589 54.5591 21.8012 53.6867 21.8012C52.8144 21.8012 51.9551 21.589 51.183 21.1829C50.3988 20.748 49.7596 20.0923 49.3446 19.2973C48.8813 18.4532 48.6492 17.4022 48.6483 16.1442C48.6483 14.9078 48.8804 13.8621 49.3446 13.0073C49.7557 12.2054 50.3955 11.5436 51.183 11.1055C51.9551 10.6995 52.8144 10.4873 53.6867 10.4873C54.5591 10.4873 55.4184 10.6995 56.1905 11.1055C56.9783 11.5435 57.6186 12.2053 58.0302 13.0073C58.4935 13.8621 58.7252 14.9078 58.7252 16.1442C58.727 17.4013 58.4962 18.4523 58.0329 19.2973H58.0302Z" fill="currentColor"/>
<path d="M84.9867 1.21408C85.3998 0.823398 85.9461 0.62761 86.6258 0.626712C87.3055 0.625814 87.8568 0.821602 88.2797 1.21408C88.4852 1.40128 88.6481 1.63049 88.7573 1.88616C88.8665 2.14184 88.9195 2.41801 88.9127 2.69596C88.9219 2.96989 88.8698 3.24241 88.7603 3.49365C88.6508 3.74489 88.4866 3.96851 88.2797 4.14821C87.8568 4.52002 87.3055 4.70548 86.6258 4.70458C85.9461 4.70369 85.3998 4.51913 84.9867 4.1509C84.7835 3.96902 84.6227 3.74464 84.5159 3.49366C84.4091 3.24268 84.3588 2.97126 84.3685 2.69865C84.3609 2.42156 84.412 2.14598 84.5185 1.89008C84.6251 1.63418 84.7847 1.40379 84.9867 1.21408Z" fill="currentColor"/>
<path d="M88.3875 7.64409H84.8642V24.6755H88.3875V7.64409Z" fill="currentColor"/>
<path d="M35.529 16.1441C35.529 14.3716 35.1698 12.8263 34.4515 11.5081C33.7696 10.2304 32.732 9.17777 31.4643 8.47762C30.1965 7.77724 28.7388 7.42704 27.0912 7.42704C25.4436 7.42704 23.9854 7.77724 22.7167 8.47762C21.4505 9.17839 20.4143 10.231 19.7335 11.5081C19.0152 12.8272 18.6561 14.3725 18.6561 16.1441C18.6561 17.94 19.0152 19.4961 19.7335 20.8124C20.414 22.0895 21.4502 23.1417 22.7167 23.8416C23.9845 24.542 25.4427 24.8922 27.0912 24.8922C28.7397 24.8922 30.1974 24.542 31.4643 23.8416C32.7308 23.1417 33.767 22.0895 34.4475 20.8124C34.8006 20.1598 35.0655 19.4632 35.2354 18.7409H31.7875C31.5874 19.5059 31.1806 20.2012 30.6117 20.7505C29.7053 21.595 28.4272 22.0179 27.0885 22.0179C25.7497 22.0179 24.4703 21.595 23.5639 20.7505C22.6575 19.906 22.1713 18.6076 22.1147 16.8553H35.5047C35.5209 16.6227 35.529 16.3856 35.529 16.1441ZM22.1955 14.408C22.3867 13.1706 22.8631 12.204 23.6245 11.5081C24.5529 10.6623 25.7071 10.2398 27.0871 10.2407C28.4672 10.2416 29.6209 10.6641 30.5484 11.5081C31.3107 12.2022 31.7871 13.1688 31.9774 14.408H22.1955Z" fill="currentColor"/>
<path d="M79.3826 9.23881C80.5813 10.521 81.1806 12.3501 81.1806 14.726V24.6755H77.6466V15.0978C77.6466 13.5713 77.2542 12.3883 76.4695 11.5487C75.6847 10.7092 74.61 10.2907 73.2452 10.2934C71.84 10.2934 70.7141 10.7424 69.8674 11.6403C69.0207 12.5382 68.5969 13.8541 68.596 15.588V24.6701H65.0633V7.68585H68.596V10.7594C69.4903 9.06371 71.5118 7.3168 74.6095 7.3168C76.5938 7.3168 78.1849 7.95747 79.3826 9.23881Z" fill="currentColor"/>
<path d="M105.608 12.6129H102.172C102.172 10.8081 100.355 9.94202 98.5155 9.94202C97.1094 9.94202 95.5 10.672 95.5 12.0391C95.5 13.4561 97.0232 13.9248 99.7936 14.7194C103.414 15.7538 106.027 16.6684 106.027 20.0854C106.027 23.2601 102.375 24.8494 98.898 24.8494C94.6811 24.8494 91.1174 22.7132 91.1174 19.1547H94.7228C94.805 21.0525 97.0124 22.0425 98.8023 22.0425C100.645 22.0425 102.653 21.5037 102.653 19.9629C102.653 18.1782 101.163 17.8725 98.2084 16.9782C94.4952 15.8576 91.9605 15.1841 91.9605 12.0863C91.9605 8.98843 95.2683 7.31559 98.6434 7.31559C102.862 7.31155 105.608 9.58779 105.608 12.6129Z" fill="currentColor"/>
</svg>