<svg version="1.1" id="Layer_1" xmlns="http://www.w3.org/2000/svg" xmlns:xlink="http://www.w3.org/1999/xlink" x="0px" y="0px"
	 width="100%" viewBox="0 0 2075 864" enable-background="new 0 0 2075 864" xml:space="preserve">
<path fill="#FFFFFF" opacity="1.000000" stroke="none" 
	d="
M1.000000,487.000000 
	C1.000000,325.042328 1.000000,163.084656 1.000000,1.000000 
	C369.361359,1.000000 737.722717,1.000000 1106.376831,1.350933 
	C1101.308105,3.054647 1095.917969,4.303663 1090.590210,5.778184 
	C1067.873657,12.065377 1051.663574,27.248735 1038.320190,45.577461 
	C1024.680908,64.312477 1012.728516,84.290321 998.826355,102.815033 
	C984.850830,121.437553 969.794678,139.302551 954.402100,156.786362 
	C946.246521,166.049927 936.565918,174.023117 927.216614,182.168961 
	C917.441101,190.686050 907.619202,199.239456 897.131531,206.828934 
	C881.134094,218.405518 864.636169,229.301910 848.169495,240.213516 
	C840.725891,245.146057 832.846130,249.420410 825.087952,253.528809 
	C825.011719,242.140503 825.011719,231.216736 825.011719,220.210861 
	C801.794250,220.210861 779.082703,220.210861 756.000000,220.210861 
	C756.000000,222.027725 756.000000,223.655472 756.000000,225.283218 
	C756.000000,247.080170 756.022461,268.877197 755.956787,290.673950 
	C755.951599,292.397980 755.334045,294.120148 754.678772,296.000397 
	C753.210815,296.778809 752.005249,297.310852 750.928345,298.034485 
	C734.139099,309.315857 717.046509,320.183472 700.718567,332.098511 
	C691.909607,338.526672 684.047180,346.400543 676.434021,354.276001 
	C669.163513,361.796997 662.770264,370.165955 655.677429,378.026794 
	C651.833618,374.686249 648.549316,371.146240 644.725464,368.341949 
	C635.229004,361.377563 626.001770,353.808624 615.735840,348.179779 
	C593.931641,336.224548 569.999023,330.651184 545.339966,329.173584 
	C527.463196,328.102386 509.601288,329.215332 491.872406,332.854858 
	C465.615753,338.244995 441.921967,348.914642 421.534698,366.170319 
	C402.465454,382.310486 388.443726,402.493011 379.204681,425.669464 
	C369.525421,449.950287 366.537323,475.573059 366.057922,501.524658 
	C365.979553,505.767181 366.690125,510.022186 366.993835,514.274414 
	C367.356750,519.354431 367.253845,524.508057 368.091064,529.506165 
	C370.509125,543.942017 373.488342,558.259216 379.004852,571.920593 
	C385.581879,588.208313 394.280029,603.274414 405.990509,616.346741 
	C421.033020,633.138489 438.616943,646.484924 459.622711,655.389587 
	C477.995331,663.178101 497.083527,667.575867 516.791321,668.798218 
	C528.969299,669.553589 541.359131,669.134399 553.490845,667.781128 
	C566.280823,666.354431 579.287415,664.454346 591.466553,660.502625 
	C612.451660,653.693665 631.747620,643.213989 648.315430,628.031311 
	C650.944519,633.378906 653.252075,638.531799 655.413208,644.032898 
	C656.806152,647.267883 658.345459,650.154724 659.932861,653.414795 
	C661.618591,656.875244 663.256165,659.962463 664.945435,663.395752 
	C665.720154,665.160950 666.443298,666.580078 667.208252,668.344360 
	C668.259338,670.359009 669.309814,672.005249 670.272034,673.701477 
	C684.005615,697.910828 700.370117,720.293152 719.884888,740.030029 
	C733.878723,754.182922 749.188782,767.112244 764.577576,779.778442 
	C773.603516,787.207458 783.934387,793.051086 793.893677,799.744751 
	C794.279053,799.876648 794.449097,799.871765 794.789062,800.124878 
	C796.958801,801.627136 798.958679,802.871277 801.138428,804.421875 
	C802.417847,805.107544 803.517395,805.486755 804.780273,806.114746 
	C805.948608,806.947449 806.953552,807.531433 808.138428,808.421875 
	C809.417847,809.107544 810.517395,809.486755 811.780273,810.114746 
	C812.948608,810.947449 813.953552,811.531433 815.132935,812.419983 
	C822.974976,816.288940 830.642700,819.853333 838.486328,823.726990 
	C839.761353,824.396240 840.860352,824.756226 842.124878,825.414062 
	C843.964111,826.279968 845.637756,826.847961 847.489990,827.728394 
	C848.781494,828.412903 849.894531,828.785034 851.159485,829.377991 
	C851.644409,829.538452 851.977417,829.478088 852.486328,829.727051 
	C853.761292,830.396301 854.860352,830.756287 856.138794,831.422363 
	C857.416016,832.106567 858.513794,832.484619 859.799927,833.128296 
	C862.004700,833.913147 864.021179,834.432556 866.206299,835.113037 
	C866.786743,835.470093 867.198425,835.666016 867.810547,836.140503 
	C871.993652,837.651245 875.976257,838.883423 880.155518,840.433411 
	C881.516663,841.104004 882.681091,841.456787 884.178223,841.892456 
	C889.018799,843.300293 893.526611,844.625305 898.217285,846.140076 
	C898.881714,846.489868 899.363159,846.650024 900.144531,846.889038 
	C901.977112,847.297852 903.509888,847.627686 905.215759,848.088562 
	C905.777649,848.397461 906.166443,848.575256 906.931396,848.856323 
	C907.923767,849.161560 908.530334,849.401123 909.157349,849.560303 
	C933.931152,855.848572 958.941711,860.804016 984.440796,863.077698 
	C985.343811,863.158203 986.149170,864.334412 987.000000,865.000000 
	C658.435425,865.000000 329.870850,865.000000 1.000000,865.000000 
	C1.000000,747.305481 1.000000,629.610657 1.406499,511.622009 
	C1.954990,517.098877 1.563758,522.945618 2.372251,528.621460 
	C3.411848,535.919678 5.341340,543.097656 7.014479,550.297913 
	C13.674256,578.957825 27.092741,604.178406 47.827957,624.893494 
	C56.779293,633.836182 67.583206,641.271362 78.473320,647.857178 
	C104.312675,663.483826 133.175919,668.930054 162.927231,669.846130 
	C172.897598,670.153198 182.965530,669.034668 192.910843,667.889954 
	C201.725891,666.875244 210.537842,665.357178 219.163559,663.281616 
	C233.446213,659.845032 246.758194,653.903687 259.339447,646.270508 
	C273.305847,637.796997 285.466461,627.190063 295.687134,614.573364 
	C308.144928,599.195190 317.148376,581.824829 322.615540,562.750061 
	C324.531586,556.065186 325.919769,549.229004 327.633026,542.112854 
	C302.143829,542.112854 277.847015,542.112854 253.930740,542.112854 
	C250.899658,550.230774 248.735092,558.551208 244.840851,565.962830 
	C234.973236,584.743347 219.430130,597.377930 199.302017,603.926514 
	C182.132767,609.512451 164.622757,610.594849 146.709106,607.114502 
	C123.327896,602.571777 105.259399,590.395569 91.598022,571.151978 
	C78.876488,553.232239 74.620598,532.581177 73.195129,511.355103 
	C72.205452,496.618347 72.788429,481.806030 75.890976,467.129364 
	C80.494431,445.352661 89.274483,426.347046 106.714500,411.581573 
	C123.283295,397.553741 142.390884,391.010193 163.591934,390.111450 
	C177.482559,389.522583 191.234573,391.667175 204.070480,397.134705 
	C218.594543,403.321198 231.122894,412.163116 240.378540,425.551300 
	C247.036682,435.182190 250.156052,445.964203 253.361206,456.757690 
	C277.987427,456.757690 302.426849,456.757690 326.998291,456.757690 
	C326.998291,455.692902 327.128937,454.845978 326.978882,454.052094 
	C324.374939,440.277313 320.593445,426.826904 314.559509,414.158783 
	C304.460266,392.955566 290.178345,375.023071 271.342743,360.877197 
	C255.883942,349.267365 238.952896,340.426605 220.060181,336.108521 
	C208.257172,333.410889 196.226334,331.109253 184.180984,330.231232 
	C170.421417,329.228241 156.440903,329.010254 142.724121,330.273010 
	C127.859337,331.641418 113.325386,335.509186 99.257637,340.950348 
	C73.539101,350.897827 52.198013,366.797180 35.363388,388.407166 
	C22.006742,405.552551 12.641540,424.969269 7.520114,446.158447 
	C5.365098,455.074493 4.444441,464.290710 3.005299,473.377228 
	C2.287335,477.910309 1.665381,482.458588 1.000000,487.000000 
z"/>
<path fill="#FFFFFF" opacity="1.000000" stroke="none" 
	d="
M2076.000000,596.000000 
	C2076.000000,685.636841 2076.000000,775.273621 2076.000000,865.000000 
	C1745.639771,865.000000 1415.279663,865.000000 1084.632690,864.643677 
	C1097.075073,862.191345 1109.858521,860.374756 1122.515869,857.910522 
	C1132.560059,855.955139 1142.450073,853.206848 1152.652588,850.838745 
	C1152.896606,850.866821 1153.307983,850.597778 1153.646118,850.502075 
	C1155.720459,849.875610 1157.456787,849.344910 1159.483398,848.844604 
	C1159.943726,848.780579 1160.113892,848.686096 1160.653687,848.484192 
	C1164.744751,847.187805 1168.466309,845.998901 1172.477539,844.844116 
	C1172.939941,844.788757 1173.112793,844.699341 1173.625000,844.514526 
	C1175.658203,843.649597 1177.351807,842.880188 1179.371338,842.062927 
	C1180.131348,841.954529 1180.565186,841.894043 1181.353271,841.783813 
	C1184.486816,840.526306 1187.266235,839.318542 1190.371582,838.062866 
	C1191.131348,837.954529 1191.565308,837.893982 1192.309326,837.818787 
	C1193.429321,837.238342 1194.239136,836.672668 1195.374512,836.060608 
	C1196.133057,835.954041 1196.566040,835.893799 1197.309326,835.818848 
	C1198.429321,835.238403 1199.239136,834.672729 1200.374512,834.060608 
	C1201.133057,833.953979 1201.566040,833.893738 1202.330811,833.801514 
	C1204.124756,832.881897 1205.587036,831.994202 1207.374878,831.060425 
	C1208.133301,830.954041 1208.566284,830.893738 1209.345825,830.790039 
	C1212.478149,829.199890 1215.263794,827.653259 1218.374878,826.060425 
	C1219.133301,825.954041 1219.566284,825.893799 1220.348389,825.788330 
	C1224.929321,823.390015 1229.161011,821.036865 1233.482178,818.628906 
	C1233.571533,818.574097 1233.714600,818.420776 1234.012085,818.292969 
	C1237.669922,816.341614 1241.030151,814.518005 1244.480225,812.637695 
	C1244.570068,812.580994 1244.711548,812.422485 1245.004761,812.296692 
	C1247.328735,811.012146 1249.359497,809.853455 1251.477539,808.637817 
	C1251.564941,808.580933 1251.705200,808.426575 1251.987793,808.305664 
	C1253.644043,807.354980 1255.017700,806.525269 1256.474854,805.638428 
	C1256.558228,805.581360 1256.696899,805.434265 1256.955078,805.324890 
	C1257.941406,804.711487 1258.669678,804.207397 1259.483154,803.643494 
	C1259.568359,803.583679 1259.705200,803.426575 1259.987793,803.305603 
	C1261.644043,802.354919 1263.017700,801.525208 1264.474854,800.638428 
	C1264.558228,800.581360 1264.696899,800.434265 1264.955078,800.324951 
	C1265.941528,799.711548 1266.669800,799.207458 1267.479492,798.643799 
	C1267.561157,798.584167 1267.696899,798.434265 1267.955078,798.324951 
	C1268.941406,797.711487 1269.669678,797.207397 1270.479492,796.643799 
	C1270.561157,796.584167 1270.696899,796.434265 1270.955078,796.324951 
	C1271.941528,795.711487 1272.669678,795.207458 1273.479492,794.643799 
	C1273.561157,794.584167 1273.696899,794.434265 1273.955078,794.324951 
	C1274.941528,793.711548 1275.669800,793.207458 1276.478760,792.643860 
	C1276.559692,792.584290 1276.695190,792.436157 1276.966064,792.321228 
	C1278.186890,791.489807 1279.137085,790.773376 1280.048584,790.033447 
	C1280.009766,790.009949 1280.057007,790.087341 1280.350098,789.962341 
	C1281.563721,789.126343 1282.484253,788.415283 1283.483276,787.643555 
	C1283.561768,787.582825 1283.695190,787.436157 1283.966064,787.321289 
	C1285.187012,786.489929 1286.137207,785.773438 1287.048584,785.033569 
	C1287.009766,785.010071 1287.056763,785.087524 1287.358154,784.956787 
	C1288.811035,783.898071 1289.962646,782.970154 1291.339478,781.970581 
	C1291.851074,781.714722 1292.010376,781.453125 1292.342285,780.978638 
	C1293.790771,779.914429 1294.939087,778.985718 1296.048584,778.033447 
	C1296.009766,778.009827 1296.056763,778.087524 1296.358154,777.956787 
	C1297.811035,776.898071 1298.962646,775.970154 1300.339478,774.970581 
	C1300.851074,774.714722 1301.010376,774.453125 1301.343262,773.977783 
	C1302.800903,772.908386 1303.957642,771.975342 1305.393799,770.926575 
	C1306.463013,769.911987 1307.252686,769.013062 1308.343262,767.977783 
	C1309.800903,766.908386 1310.957642,765.975342 1312.402466,764.918579 
	C1313.807861,763.568054 1314.925171,762.341125 1316.343384,760.977905 
	C1317.801025,759.908447 1318.957642,758.975342 1320.415894,757.906372 
	C1339.391602,739.745117 1357.322876,721.028381 1372.498047,699.902527 
	C1379.709961,689.862549 1386.259521,679.346924 1393.410645,668.878174 
	C1394.518066,667.303467 1395.381470,665.926880 1396.121216,664.486755 
	C1404.099854,648.959167 1412.576538,633.659302 1419.853149,617.808655 
	C1425.316284,605.908447 1429.230103,593.296997 1433.903320,580.679688 
	C1434.018677,579.920166 1434.064331,579.483032 1434.425781,578.849792 
	C1435.772217,575.103149 1436.802856,571.552612 1437.903320,567.679688 
	C1438.018555,566.920166 1438.064331,566.483032 1438.415283,565.866455 
	C1439.091553,564.125244 1439.462524,562.563660 1439.903320,560.679688 
	C1440.018555,559.920288 1440.064209,559.483215 1440.385864,558.909668 
	C1440.719116,558.182617 1440.776367,557.592224 1440.903320,556.679443 
	C1441.018555,555.920166 1441.064209,555.483154 1441.385742,554.909668 
	C1441.718994,554.182617 1441.776245,553.592224 1441.903320,552.679443 
	C1442.018677,551.920166 1442.064331,551.483154 1442.385864,550.909668 
	C1442.718994,550.182617 1442.776245,549.592224 1442.903320,548.679443 
	C1443.018555,547.920166 1443.064209,547.483154 1443.385742,546.909668 
	C1443.718994,546.182617 1443.776245,545.592224 1443.901855,544.636292 
	C1444.016602,543.529297 1444.063232,542.787720 1444.385864,541.909668 
	C1444.719116,541.182678 1444.776489,540.592224 1444.903320,539.679443 
	C1445.018555,538.920166 1445.064209,538.483154 1445.385742,537.909668 
	C1445.718994,537.182617 1445.776367,536.592224 1445.901855,535.636292 
	C1446.016602,534.529297 1446.063232,533.787720 1446.385742,532.909668 
	C1446.718994,532.182617 1446.776367,531.592224 1446.901611,530.610352 
	C1447.016357,529.161316 1447.063110,528.103760 1447.385864,526.909668 
	C1447.719116,526.182617 1447.776367,525.592224 1447.901855,524.636292 
	C1448.016602,523.529297 1448.063232,522.787720 1448.385742,521.909668 
	C1448.718994,521.182617 1448.776245,520.592224 1448.901611,519.593018 
	C1449.016357,517.804932 1449.063110,516.425537 1449.385742,514.909668 
	C1449.719116,514.182617 1449.776367,513.592224 1449.901611,512.593018 
	C1450.016357,510.805054 1450.062988,509.425781 1450.385620,507.909912 
	C1450.718872,507.182800 1450.776245,506.592255 1450.901611,505.580658 
	C1451.016235,503.455231 1451.062866,501.750885 1451.385498,499.909912 
	C1451.718872,499.182800 1451.776245,498.592255 1451.901611,497.563995 
	C1452.016357,494.766357 1452.062988,492.406433 1452.385620,489.909912 
	C1452.718994,489.182800 1452.776245,488.592255 1452.901978,487.543396 
	C1453.016724,483.072235 1453.063110,479.059357 1453.385498,474.909912 
	C1453.718872,474.182800 1453.776245,473.592255 1453.902100,472.537476 
	C1454.600220,444.614380 1453.322510,417.251709 1449.896729,389.694092 
	C1449.642700,388.646301 1449.325806,387.904877 1449.432739,387.087616 
	C1451.932251,387.340790 1454.014648,387.633392 1456.082764,388.004547 
	C1474.002563,391.220490 1489.187866,399.108978 1500.966064,413.372833 
	C1514.321289,429.546539 1520.550659,448.591858 1520.759888,468.892181 
	C1521.413940,532.367065 1521.000000,595.852905 1521.000000,659.334534 
	C1521.000000,661.114624 1521.000000,662.894714 1521.000000,664.772827 
	C1544.527466,664.772827 1567.594604,664.772827 1591.000000,664.772827 
	C1591.000000,658.256958 1591.026855,651.962280 1590.995850,645.667786 
	C1590.669189,579.436096 1590.527710,513.202209 1589.783325,446.975189 
	C1589.675781,437.405579 1587.293579,427.704742 1584.869629,418.348114 
	C1578.242065,392.765137 1565.362793,371.074371 1544.673584,353.979858 
	C1522.700195,335.824127 1497.135864,328.365814 1469.420044,327.172058 
	C1458.992188,326.722931 1448.480103,328.223816 1438.002319,328.439331 
	C1432.363403,309.464325 1426.754395,290.877808 1421.058228,272.318085 
	C1420.420288,270.239319 1419.289062,268.312042 1418.554199,266.025452 
	C1418.425659,265.157043 1418.129639,264.577637 1417.892090,263.629608 
	C1417.100098,261.611053 1416.250000,259.961121 1415.561768,258.020203 
	C1415.427124,257.152161 1415.130371,256.575104 1414.892822,255.658875 
	C1414.444824,254.647430 1413.937744,253.975128 1413.579834,253.007751 
	C1413.430664,252.141129 1413.132202,251.569565 1412.892822,250.658890 
	C1412.444824,249.647461 1411.937622,248.975159 1411.579834,248.007797 
	C1411.430542,247.141174 1411.132080,246.569626 1410.892822,245.658905 
	C1410.444824,244.647430 1409.937744,243.975128 1409.580688,242.976349 
	C1409.098389,241.432587 1408.465942,240.215317 1407.892822,238.658905 
	C1407.444824,237.647430 1406.937744,236.975128 1406.580322,235.964508 
	C1405.764648,233.750122 1404.799072,231.874069 1403.892822,229.658859 
	C1403.444946,228.647400 1402.937744,227.975098 1402.579590,226.954376 
	C1401.096924,223.403320 1399.465210,220.200684 1397.892822,216.658905 
	C1397.444824,215.647446 1396.937622,214.975143 1396.579346,213.952698 
	C1391.749268,204.208267 1386.928955,194.725662 1381.758789,185.437820 
	C1370.490723,165.195587 1358.568604,145.374969 1343.324829,127.766632 
	C1341.451782,125.603004 1340.116455,122.978760 1338.284668,120.773422 
	C1334.297485,115.973289 1330.073730,111.369400 1326.090332,106.566170 
	C1322.077637,101.727570 1318.677490,96.300591 1314.235962,91.914101 
	C1303.745605,81.554016 1292.907837,71.535583 1281.979614,61.633911 
	C1277.321777,57.413597 1272.086792,53.830296 1266.975586,49.658028 
	C1265.905151,48.866989 1264.972900,48.375458 1263.913086,47.592087 
	C1262.561523,46.519337 1261.337769,45.738422 1259.976440,44.658928 
	C1258.910278,43.875488 1257.981567,43.390633 1257.030273,42.943573 
	C1257.007690,42.981365 1257.087158,42.943108 1256.941406,42.628857 
	C1254.214722,40.845020 1251.634033,39.375439 1249.030396,37.943604 
	C1249.007568,37.981358 1249.087158,37.943111 1248.940186,37.627567 
	C1233.547974,27.104050 1217.247192,18.879133 1199.854004,13.192178 
	C1188.152588,9.366220 1175.994263,6.937400 1163.869385,3.584871 
	C1162.798340,3.246332 1161.898438,3.206472 1160.632568,3.098273 
	C1159.524780,2.981223 1158.782715,2.932512 1157.845215,2.570426 
	C1156.099731,1.838034 1154.549927,1.419018 1153.000000,1.000001 
	C1460.579102,1.000000 1768.158203,1.000000 2076.000000,1.000000 
	C2076.000000,184.360107 2076.000000,367.720337 2075.632812,551.426575 
	C2074.635498,549.788513 2073.989746,547.809204 2073.376953,545.819763 
	C2066.326904,522.937195 2050.397461,507.900848 2029.929443,497.026459 
	C2012.129028,487.569397 1993.071655,481.388947 1973.739014,475.925385 
	C1957.530640,471.344696 1941.275391,466.856934 1925.298584,461.551727 
	C1911.192993,456.867828 1897.091797,452.263306 1884.584351,443.429718 
	C1867.639160,431.461853 1867.582275,408.430908 1882.286255,395.400574 
	C1894.416504,384.650940 1909.277344,379.593964 1925.358887,379.158386 
	C1933.827271,378.929047 1942.426270,379.791748 1950.812256,381.128082 
	C1963.372559,383.129669 1974.967407,387.924347 1984.747314,396.298126 
	C1995.253174,405.293427 2000.855469,416.798492 2001.082520,430.768860 
	C2023.850830,430.768860 2046.266479,430.768860 2069.000000,430.768860 
	C2069.000000,428.411469 2069.129883,426.270538 2068.963379,424.152954 
	C2068.798584,422.058075 2068.237549,419.996918 2068.017090,417.903412 
	C2065.977295,398.548553 2057.580078,382.159210 2044.511108,368.052948 
	C2032.853394,355.469727 2018.692383,346.574951 2002.916016,339.927307 
	C1983.397217,331.702759 1962.902344,328.259857 1941.995972,327.110657 
	C1927.696533,326.324615 1913.463745,327.562012 1899.239624,329.855469 
	C1877.621094,333.341125 1857.352783,340.224274 1839.256714,352.469910 
	C1823.878540,362.876160 1811.520874,376.236908 1805.374390,394.264923 
	C1801.220825,406.447571 1799.990479,418.878540 1801.817017,431.825317 
	C1803.217773,441.754211 1805.720825,451.083069 1811.067505,459.485321 
	C1821.657227,476.126892 1837.786621,485.890778 1855.483765,492.821320 
	C1873.514038,499.882263 1892.021851,505.762024 1910.458008,511.734955 
	C1924.183716,516.181763 1938.269043,519.534119 1951.938354,524.134399 
	C1967.551025,529.388733 1983.782959,533.480835 1997.084961,544.021912 
	C2008.562866,553.117554 2012.155518,566.308289 2009.188354,580.286316 
	C2006.943726,590.860596 1999.383179,597.121033 1990.433838,601.835815 
	C1975.666870,609.615723 1959.457520,611.803406 1943.128540,612.922791 
	C1929.989990,613.823425 1917.052856,611.990295 1904.495483,607.976379 
	C1887.849609,602.655640 1872.647095,594.789612 1863.245605,579.407654 
	C1859.189209,572.771057 1857.322876,564.796021 1854.364746,557.179932 
	C1831.621338,557.179932 1807.994385,557.179932 1783.848145,557.179932 
	C1784.582764,563.160767 1785.140015,568.941101 1786.024414,574.670898 
	C1788.930054,593.496887 1797.769165,609.511230 1810.735474,623.040039 
	C1823.533325,636.393127 1839.019165,646.030640 1856.195801,653.079895 
	C1878.776123,662.346863 1902.299072,667.010071 1926.554810,667.881775 
	C1936.947021,668.255249 1947.427612,667.799194 1957.791504,666.867737 
	C1967.950195,665.954773 1978.170288,664.633850 1988.083618,662.301880 
	C2010.518677,657.024231 2031.570801,648.662659 2049.435791,633.321167 
	C2058.739746,625.331421 2066.034424,616.155273 2071.058594,605.032471 
	C2072.467285,601.913879 2074.340332,599.005127 2076.000000,596.000000 
M1732.000000,658.400269 
	C1732.000000,549.984009 1732.000000,441.567749 1732.000000,333.324005 
	C1708.285645,333.324005 1685.213135,333.324005 1662.324585,333.324005 
	C1662.324585,443.717682 1662.324585,553.787109 1662.324585,663.848755 
	C1685.602539,663.848755 1708.555664,663.848755 1732.000000,663.848755 
	C1732.000000,662.262451 1732.000000,660.819885 1732.000000,658.400269 
M1731.493530,265.003204 
	C1740.622681,255.116196 1743.389893,243.647095 1741.102417,230.408203 
	C1738.485962,215.265991 1729.591309,205.652771 1715.778320,200.487595 
	C1707.406616,197.357071 1698.605347,196.630081 1689.481079,197.852646 
	C1676.855591,199.544373 1666.494873,204.836044 1659.091919,215.050323 
	C1652.996338,223.460541 1651.554688,233.044632 1652.833862,243.509430 
	C1654.426758,256.539978 1660.884521,265.822357 1672.020264,271.926483 
	C1681.620483,277.188904 1691.912720,278.442047 1702.952637,277.209137 
	C1713.663330,276.012970 1722.948242,272.568085 1731.493530,265.003204 
z"/>
<path fill="#000000" opacity="1.000000" stroke="none" 
	d="
M1.000000,487.468628 
	C1.665381,482.458588 2.287335,477.910309 3.005299,473.377228 
	C4.444441,464.290710 5.365098,455.074493 7.520114,446.158447 
	C12.641540,424.969269 22.006742,405.552551 35.363388,388.407166 
	C52.198013,366.797180 73.539101,350.897827 99.257637,340.950348 
	C113.325386,335.509186 127.859337,331.641418 142.724121,330.273010 
	C156.440903,329.010254 170.421417,329.228241 184.180984,330.231232 
	C196.226334,331.109253 208.257172,333.410889 220.060181,336.108521 
	C238.952896,340.426605 255.883942,349.267365 271.342743,360.877197 
	C290.178345,375.023071 304.460266,392.955566 314.559509,414.158783 
	C320.593445,426.826904 324.374939,440.277313 326.978882,454.052094 
	C327.128937,454.845978 326.998291,455.692902 326.998291,456.757690 
	C302.426849,456.757690 277.987427,456.757690 253.361206,456.757690 
	C250.156052,445.964203 247.036682,435.182190 240.378540,425.551300 
	C231.122894,412.163116 218.594543,403.321198 204.070480,397.134705 
	C191.234573,391.667175 177.482559,389.522583 163.591934,390.111450 
	C142.390884,391.010193 123.283295,397.553741 106.714500,411.581573 
	C89.274483,426.347046 80.494431,445.352661 75.890976,467.129364 
	C72.788429,481.806030 72.205452,496.618347 73.195129,511.355103 
	C74.620598,532.581177 78.876488,553.232239 91.598022,571.151978 
	C105.259399,590.395569 123.327896,602.571777 146.709106,607.114502 
	C164.622757,610.594849 182.132767,609.512451 199.302017,603.926514 
	C219.430130,597.377930 234.973236,584.743347 244.840851,565.962830 
	C248.735092,558.551208 250.899658,550.230774 253.930740,542.112854 
	C277.847015,542.112854 302.143829,542.112854 327.633026,542.112854 
	C325.919769,549.229004 324.531586,556.065186 322.615540,562.750061 
	C317.148376,581.824829 308.144928,599.195190 295.687134,614.573364 
	C285.466461,627.190063 273.305847,637.796997 259.339447,646.270508 
	C246.758194,653.903687 233.446213,659.845032 219.163559,663.281616 
	C210.537842,665.357178 201.725891,666.875244 192.910843,667.889954 
	C182.965530,669.034668 172.897598,670.153198 162.927231,669.846130 
	C133.175919,668.930054 104.312675,663.483826 78.473320,647.857178 
	C67.583206,641.271362 56.779293,633.836182 47.827957,624.893494 
	C27.092741,604.178406 13.674256,578.957825 7.014479,550.297913 
	C5.341340,543.097656 3.411848,535.919678 2.372251,528.621460 
	C1.563758,522.945618 1.954990,517.098877 1.406499,511.164062 
	C1.000000,503.312408 1.000000,495.624847 1.000000,487.468628 
z"/>
<path fill="#000000" opacity="1.000000" stroke="none" 
	d="
M2076.000000,595.531372 
	C2074.340332,599.005127 2072.467285,601.913879 2071.058594,605.032471 
	C2066.034424,616.155273 2058.739746,625.331421 2049.435791,633.321167 
	C2031.570801,648.662659 2010.518677,657.024231 1988.083618,662.301880 
	C1978.170288,664.633850 1967.950195,665.954773 1957.791504,666.867737 
	C1947.427612,667.799194 1936.947021,668.255249 1926.554810,667.881775 
	C1902.299072,667.010071 1878.776123,662.346863 1856.195801,653.079895 
	C1839.019165,646.030640 1823.533325,636.393127 1810.735474,623.040039 
	C1797.769165,609.511230 1788.930054,593.496887 1786.024414,574.670898 
	C1785.140015,568.941101 1784.582764,563.160767 1783.848145,557.179932 
	C1807.994385,557.179932 1831.621338,557.179932 1854.364746,557.179932 
	C1857.322876,564.796021 1859.189209,572.771057 1863.245605,579.407654 
	C1872.647095,594.789612 1887.849609,602.655640 1904.495483,607.976379 
	C1917.052856,611.990295 1929.989990,613.823425 1943.128540,612.922791 
	C1959.457520,611.803406 1975.666870,609.615723 1990.433838,601.835815 
	C1999.383179,597.121033 2006.943726,590.860596 2009.188354,580.286316 
	C2012.155518,566.308289 2008.562866,553.117554 1997.084961,544.021912 
	C1983.782959,533.480835 1967.551025,529.388733 1951.938354,524.134399 
	C1938.269043,519.534119 1924.183716,516.181763 1910.458008,511.734955 
	C1892.021851,505.762024 1873.514038,499.882263 1855.483765,492.821320 
	C1837.786621,485.890778 1821.657227,476.126892 1811.067505,459.485321 
	C1805.720825,451.083069 1803.217773,441.754211 1801.817017,431.825317 
	C1799.990479,418.878540 1801.220825,406.447571 1805.374390,394.264923 
	C1811.520874,376.236908 1823.878540,362.876160 1839.256714,352.469910 
	C1857.352783,340.224274 1877.621094,333.341125 1899.239624,329.855469 
	C1913.463745,327.562012 1927.696533,326.324615 1941.995972,327.110657 
	C1962.902344,328.259857 1983.397217,331.702759 2002.916016,339.927307 
	C2018.692383,346.574951 2032.853394,355.469727 2044.511108,368.052948 
	C2057.580078,382.159210 2065.977295,398.548553 2068.017090,417.903412 
	C2068.237549,419.996918 2068.798584,422.058075 2068.963379,424.152954 
	C2069.129883,426.270538 2069.000000,428.411469 2069.000000,430.768860 
	C2046.266479,430.768860 2023.850830,430.768860 2001.082520,430.768860 
	C2000.855469,416.798492 1995.253174,405.293427 1984.747314,396.298126 
	C1974.967407,387.924347 1963.372559,383.129669 1950.812256,381.128082 
	C1942.426270,379.791748 1933.827271,378.929047 1925.358887,379.158386 
	C1909.277344,379.593964 1894.416504,384.650940 1882.286255,395.400574 
	C1867.582275,408.430908 1867.639160,431.461853 1884.584351,443.429718 
	C1897.091797,452.263306 1911.192993,456.867828 1925.298584,461.551727 
	C1941.275391,466.856934 1957.530640,471.344696 1973.739014,475.925385 
	C1993.071655,481.388947 2012.129028,487.569397 2029.929443,497.026459 
	C2050.397461,507.900848 2066.326904,522.937195 2073.376953,545.819763 
	C2073.989746,547.809204 2074.635498,549.788513 2075.632812,551.886292 
	C2076.000000,566.354248 2076.000000,580.708435 2076.000000,595.531372 
z"/>
<path fill="#5CFE4F" opacity="1.000000" stroke="none" 
	d="
M1152.531372,1.000001 
	C1154.549927,1.419018 1156.099731,1.838034 1157.873535,2.907175 
	C1159.064453,3.427068 1160.031494,3.296838 1160.998413,3.166610 
	C1161.898438,3.206472 1162.798340,3.246332 1163.923828,3.969143 
	C1164.939331,5.100966 1165.677979,5.742196 1166.527222,5.968055 
	C1173.005981,7.690965 1179.506348,9.332885 1185.764038,11.273832 
	C1184.581177,11.491502 1183.599976,11.577541 1182.692627,11.357879 
	C1168.351929,7.886092 1153.948486,4.772312 1139.084229,5.030707 
	C1129.129761,5.203756 1119.109741,5.055563 1109.249878,6.188536 
	C1100.623047,7.179830 1092.109863,9.497103 1083.673096,11.710949 
	C1075.565552,13.838393 1069.697632,19.646523 1064.015869,25.377769 
	C1055.856567,33.608150 1047.218262,41.531662 1040.173950,50.658646 
	C1030.413208,63.305294 1022.257019,77.176514 1012.845947,90.110168 
	C998.714355,109.531067 984.557739,128.971069 969.477478,147.648544 
	C961.986572,156.926300 952.553101,164.673019 943.745667,172.839752 
	C935.302185,180.668900 926.660339,188.297577 917.866394,195.731277 
	C910.121399,202.278381 902.357239,208.881943 894.047729,214.664719 
	C879.227844,224.978256 864.028381,234.750092 848.900452,244.614670 
	C845.122742,247.078003 840.705078,248.624405 837.133484,251.322800 
	C832.690308,254.679672 828.656677,257.450714 828.682190,265.080933 
	C829.123413,397.180756 829.000610,529.282471 828.997864,661.383789 
	C828.997742,667.609009 827.661865,668.983887 821.417847,668.991211 
	C801.427734,669.014648 781.437378,668.953613 761.447754,669.048096 
	C758.327393,669.062866 756.189514,668.431824 756.506592,664.935059 
	C779.560120,664.983765 802.150024,664.983765 825.000000,664.983765 
	C825.000000,662.371277 825.000000,660.392212 825.000000,658.413208 
	C825.000000,525.602600 824.999207,392.792023 825.006775,259.981415 
	C825.006897,257.985382 825.109497,255.989365 825.164185,253.993347 
	C832.846130,249.420410 840.725891,245.146057 848.169495,240.213516 
	C864.636169,229.301910 881.134094,218.405518 897.131531,206.828934 
	C907.619202,199.239456 917.441101,190.686050 927.216614,182.168961 
	C936.565918,174.023117 946.246521,166.049927 954.402100,156.786362 
	C969.794678,139.302551 984.850830,121.437553 998.826355,102.815033 
	C1012.728516,84.290321 1024.680908,64.312477 1038.320190,45.577461 
	C1051.663574,27.248735 1067.873657,12.065377 1090.590210,5.778184 
	C1095.917969,4.303663 1101.308105,3.054647 1106.834717,1.350933 
	C1122.020874,1.000000 1137.041870,1.000000 1152.531372,1.000001 
z"/>
<path fill="#5CFE4F" opacity="1.000000" stroke="none" 
	d="
M1152.408447,850.810669 
	C1142.450073,853.206848 1132.560059,855.955139 1122.515869,857.910522 
	C1109.858521,860.374756 1097.075073,862.191345 1084.172974,864.643677 
	C1054.645752,865.000000 1025.291504,865.000000 995.332947,864.669250 
	C993.485718,864.559021 992.242859,864.779541 991.000000,865.000000 
	C989.933289,865.000000 988.866638,865.000000 987.399963,865.000000 
	C986.149170,864.334412 985.343811,863.158203 984.440796,863.077698 
	C958.941711,860.804016 933.931152,855.848572 909.157349,849.560303 
	C908.530334,849.401123 907.923767,849.161560 907.137756,848.471313 
	C908.201782,847.445129 909.558167,846.267761 910.648926,846.476746 
	C916.222778,847.544434 921.729370,848.964844 927.257080,850.271851 
	C932.195679,851.439575 937.093994,852.823914 942.078857,853.736877 
	C946.880615,854.616211 951.791260,854.884644 956.616150,855.658203 
	C962.202698,856.553772 967.715637,857.965332 973.321411,858.665283 
	C977.551575,859.193420 981.890198,858.780884 986.157715,859.096497 
	C992.891357,859.594604 999.617065,861.004761 1006.326538,860.889038 
	C1038.335449,860.337280 1070.465942,863.271973 1102.320068,857.979492 
	C1116.785278,855.576172 1131.197144,852.851685 1145.661743,850.444458 
	C1147.830322,850.083496 1150.155640,850.665039 1152.408447,850.810669 
z"/>
<path fill="#FFFFFF" opacity="1.000000" stroke="none" 
	d="
M991.399963,865.000000 
	C992.242859,864.779541 993.485718,864.559021 994.864258,864.669250 
	C993.933289,865.000000 992.866638,865.000000 991.399963,865.000000 
z"/>
<path fill="#5CFE4F" opacity="1.000000" stroke="none" 
	d="
M1152.652588,850.838745 
	C1150.155640,850.665039 1147.830322,850.083496 1145.661743,850.444458 
	C1131.197144,852.851685 1116.785278,855.576172 1102.320068,857.979492 
	C1070.465942,863.271973 1038.335449,860.337280 1006.326538,860.889038 
	C999.617065,861.004761 992.891357,859.594604 986.157715,859.096497 
	C981.890198,858.780884 977.551575,859.193420 973.321411,858.665283 
	C967.715637,857.965332 962.202698,856.553772 956.616150,855.658203 
	C951.791260,854.884644 946.880615,854.616211 942.078857,853.736877 
	C937.093994,852.823914 932.195679,851.439575 927.257080,850.271851 
	C921.729370,848.964844 916.222778,847.544434 910.648926,846.476746 
	C909.558167,846.267761 908.201782,847.445129 906.761597,848.368042 
	C906.166443,848.575256 905.777649,848.397461 905.175415,847.659302 
	C903.450256,843.566284 901.795166,842.571960 899.844666,846.810120 
	C899.363159,846.650024 898.881714,846.489868 898.176270,845.713745 
	C894.265625,843.122192 890.637024,841.015259 886.824158,839.324280 
	C886.301453,839.092468 884.861023,840.930115 883.845459,841.809570 
	C882.681091,841.456787 881.516663,841.104004 880.133728,840.065125 
	C877.009888,834.957825 870.890320,833.208740 867.610107,835.862000 
	C867.198425,835.666016 866.786743,835.470093 866.158997,834.674500 
	C864.249329,831.493347 862.479858,829.308655 859.611633,832.862732 
	C858.513794,832.484619 857.416016,832.106567 856.076782,831.022278 
	C854.660400,830.016663 853.485413,829.717224 852.310364,829.417725 
	C851.977417,829.478088 851.644409,829.538452 851.086548,828.972961 
	C849.678223,828.036682 848.494812,827.726318 847.311401,827.416016 
	C845.637756,826.847961 843.964111,826.279968 842.062988,825.014038 
	C840.660400,824.016663 839.485413,823.717163 838.310364,823.417725 
	C830.642700,819.853333 822.974976,816.288940 815.144775,812.012939 
	C814.872375,810.033203 814.762573,808.765015 814.534790,806.133423 
	C813.055542,808.025696 812.336243,808.945801 811.616882,809.865967 
	C810.517395,809.486755 809.417847,809.107544 808.150269,808.014893 
	C807.872437,806.033203 807.762695,804.765015 807.534973,802.133972 
	C806.055786,804.025818 805.336365,804.945862 804.616882,805.865967 
	C803.517395,805.486755 802.417847,805.107544 801.150269,804.014893 
	C799.880310,801.365356 798.778381,799.429382 797.676453,797.493408 
	C796.657349,798.284485 795.638245,799.075623 794.619141,799.866821 
	C794.449097,799.871765 794.279053,799.876648 794.009033,799.326233 
	C792.554565,796.678772 791.613831,794.065491 789.764221,792.596985 
	C785.112976,788.904175 779.876587,785.952148 775.192627,782.295837 
	C766.955200,775.865784 758.957825,769.128357 750.854309,762.526489 
	C746.343933,758.851990 741.309143,755.665649 737.400330,751.437012 
	C724.790833,737.795776 712.058716,724.205322 700.400024,709.766785 
	C690.254089,697.201660 681.561279,683.468018 672.035767,670.389587 
	C671.093994,669.096558 668.821411,668.772827 667.166504,667.999146 
	C666.443298,666.580078 665.720154,665.160950 665.242065,663.152100 
	C666.353088,656.308838 664.673584,653.454651 659.884766,653.041565 
	C658.345459,650.154724 656.806152,647.267883 655.562866,643.650269 
	C655.392578,639.903748 655.287537,636.771240 654.360229,633.904785 
	C653.401794,630.942200 653.675171,629.104065 655.788879,626.454407 
	C662.230286,618.379883 668.348633,609.998962 673.960449,601.328125 
	C677.770752,595.440674 680.767700,588.978699 683.681213,582.570435 
	C687.898438,573.294922 692.120544,563.982117 695.549133,554.401917 
	C697.742981,548.271851 694.682983,545.011658 688.079102,545.005310 
	C671.258789,544.989258 654.434021,544.782471 637.620789,545.126953 
	C632.287231,545.236267 631.145508,542.893494 630.947083,538.405518 
	C630.640869,531.482178 629.977783,524.574707 629.417236,517.000000 
	C631.369995,517.000000 633.152222,517.000000 634.934448,517.000000 
	C654.419373,517.000000 673.904358,517.000549 693.389282,516.999695 
	C701.084045,516.999329 702.084167,516.171143 701.959717,508.494995 
	C701.787537,497.877014 701.406555,487.260803 700.987244,476.648865 
	C700.334045,460.118835 696.514221,444.242096 690.805237,428.780853 
	C689.880676,426.277100 688.628357,424.112122 685.193970,425.204651 
	C685.085083,424.743927 685.098267,424.549225 685.449768,424.207214 
	C686.171021,421.605774 687.026062,418.878601 682.577271,418.881775 
	C681.477173,416.830627 680.684814,414.939575 680.186768,412.810303 
	C682.098572,408.698578 678.297852,406.744751 677.502869,403.942200 
	C675.149048,395.643982 669.776733,389.456787 664.994629,382.764252 
	C662.841003,379.750366 661.887756,376.692841 665.166870,373.430695 
	C669.346497,369.272552 673.246338,364.820007 677.087769,360.340759 
	C678.973816,358.141602 680.150818,355.282806 682.198914,353.287231 
	C684.727356,350.823669 687.940613,349.081085 690.659363,346.791077 
	C697.300415,341.197052 703.488831,335.005035 710.473999,329.893463 
	C722.935730,320.774170 735.818848,312.227081 748.607300,303.561035 
	C750.809143,302.068970 753.414490,301.172302 755.904785,300.464355 
	C755.984070,313.426575 755.997375,325.925110 755.999207,338.423615 
	C756.015015,447.244507 756.028687,556.065430 756.043030,664.886292 
	C756.189514,668.431824 758.327393,669.062866 761.447754,669.048096 
	C781.437378,668.953613 801.427734,669.014648 821.417847,668.991211 
	C827.661865,668.983887 828.997742,667.609009 828.997864,661.383789 
	C829.000610,529.282471 829.123413,397.180756 828.682190,265.080933 
	C828.656677,257.450714 832.690308,254.679672 837.133484,251.322800 
	C840.705078,248.624405 845.122742,247.078003 848.900452,244.614670 
	C864.028381,234.750092 879.227844,224.978256 894.047729,214.664719 
	C902.357239,208.881943 910.121399,202.278381 917.866394,195.731277 
	C926.660339,188.297577 935.302185,180.668900 943.745667,172.839752 
	C952.553101,164.673019 961.986572,156.926300 969.477478,147.648544 
	C984.557739,128.971069 998.714355,109.531067 1012.845947,90.110168 
	C1022.257019,77.176514 1030.413208,63.305294 1040.173950,50.658646 
	C1047.218262,41.531662 1055.856567,33.608150 1064.015869,25.377769 
	C1069.697632,19.646523 1075.565552,13.838393 1083.673096,11.710949 
	C1092.109863,9.497103 1100.623047,7.179830 1109.249878,6.188536 
	C1119.109741,5.055563 1129.129761,5.203756 1139.084229,5.030707 
	C1153.948486,4.772312 1168.351929,7.886092 1182.692627,11.357879 
	C1183.599976,11.577541 1184.581177,11.491502 1186.152344,11.319371 
	C1188.861328,11.575647 1191.086304,11.743731 1193.008423,12.595453 
	C1206.970093,18.781998 1220.873901,25.099052 1234.788696,31.391163 
	C1239.565674,33.551212 1244.321655,35.757786 1249.087158,37.943115 
	C1249.087158,37.943111 1249.007568,37.981358 1249.059814,38.295818 
	C1251.770508,40.054554 1254.428833,41.498833 1257.087158,42.943108 
	C1257.087158,42.943108 1257.007690,42.981365 1257.066162,43.304798 
	C1258.120972,44.071331 1259.117554,44.514431 1260.114014,44.957520 
	C1261.337769,45.738422 1262.561523,46.519337 1263.951904,47.954369 
	C1265.116943,49.058174 1266.115479,49.507862 1267.114014,49.957542 
	C1272.086792,53.830296 1277.321777,57.413597 1281.979614,61.633911 
	C1292.907837,71.535583 1303.745605,81.554016 1314.235962,91.914101 
	C1318.677490,96.300591 1322.077637,101.727570 1326.090332,106.566170 
	C1330.073730,111.369400 1334.297485,115.973289 1338.284668,120.773422 
	C1340.116455,122.978760 1341.451782,125.603004 1343.324829,127.766632 
	C1358.568604,145.374969 1370.490723,165.195587 1381.758789,185.437820 
	C1386.928955,194.725662 1391.749268,204.208267 1396.459229,214.311768 
	C1396.738159,215.679993 1397.285889,216.339005 1397.833618,216.998032 
	C1399.465210,220.200684 1401.096924,223.403320 1402.459473,227.313477 
	C1402.738159,228.679993 1403.285889,229.339005 1403.833618,229.998016 
	C1404.799072,231.874069 1405.764648,233.750122 1406.460205,236.323608 
	C1406.738037,237.680038 1407.285767,238.339050 1407.833618,238.998062 
	C1408.465942,240.215317 1409.098389,241.432587 1409.460571,243.335434 
	C1409.738037,244.680023 1410.285889,245.339035 1410.833618,245.998047 
	C1411.132080,246.569626 1411.430542,247.141174 1411.459717,248.366852 
	C1411.738159,249.679977 1412.285889,250.338974 1412.833618,250.998001 
	C1413.132202,251.569565 1413.430664,252.141129 1413.459717,253.366852 
	C1413.738037,254.680038 1414.285767,255.339050 1414.833618,255.998032 
	C1415.130371,256.575104 1415.427124,257.152161 1415.452637,258.413452 
	C1416.065430,260.731171 1416.949585,262.364716 1417.833740,263.998230 
	C1418.129639,264.577637 1418.425659,265.157043 1418.450928,266.442932 
	C1421.289062,276.772003 1424.547363,286.349457 1427.465088,296.029602 
	C1430.454834,305.948456 1433.110962,315.967865 1436.079712,326.536560 
	C1433.676392,326.749847 1432.147583,326.610626 1430.819580,327.062256 
	C1428.283691,327.924622 1425.273560,328.325867 1424.167480,331.791809 
	C1423.621948,331.889801 1423.395142,331.860016 1423.074707,331.492249 
	C1419.723145,331.735901 1415.389038,329.690460 1413.677490,334.905457 
	C1412.919189,335.021973 1412.482422,335.066345 1411.847900,334.836853 
	C1410.766479,335.319794 1409.882812,336.076599 1408.677490,336.905518 
	C1407.919312,337.021942 1407.482544,337.066223 1406.822021,336.821472 
	C1401.262207,338.747681 1395.915771,340.939087 1390.627808,343.263092 
	C1390.411133,343.358337 1390.742188,344.700073 1390.740234,345.562012 
	C1390.662354,345.662994 1390.448730,345.802246 1390.038452,345.561890 
	C1387.434448,345.257721 1383.987915,343.676178 1385.730469,348.572693 
	C1385.653564,348.670441 1385.448608,348.811584 1385.089966,348.580872 
	C1383.840698,349.263794 1382.950073,350.177460 1382.035400,351.051056 
	C1382.011230,351.010956 1382.091309,351.059387 1381.691162,351.042664 
	C1380.213745,352.047699 1379.136597,353.069397 1378.035400,354.051025 
	C1378.011230,354.010895 1378.091309,354.059387 1377.689697,354.042694 
	C1376.206299,355.055389 1375.124512,356.084778 1373.924316,357.405273 
	C1372.575439,358.811768 1371.344849,359.927063 1369.711426,361.031311 
	C1368.219849,362.051544 1367.131348,363.082825 1365.911499,364.419250 
	C1360.891602,370.497101 1356.002930,376.269806 1350.709595,381.950104 
	C1349.869995,380.213348 1349.070801,378.571930 1349.057617,376.924164 
	C1348.953735,363.958130 1349.029297,350.990784 1348.985107,338.024078 
	C1348.968140,333.014618 1347.046753,331.028320 1342.128418,331.017792 
	C1322.345581,330.975403 1302.561035,330.876343 1282.782471,331.168854 
	C1280.504272,331.202576 1278.260254,333.555634 1275.631348,335.078339 
	C1275.174927,336.312073 1275.010986,337.300842 1275.010986,338.289581 
	C1275.013306,447.154633 1275.027832,556.019653 1275.069336,665.282288 
	C1275.646240,669.050781 1278.085938,669.034241 1280.740967,669.027588 
	C1300.892700,668.977173 1321.044556,669.011597 1341.196411,668.993286 
	C1347.753784,668.987366 1348.998291,667.702454 1348.998535,661.108459 
	C1349.001099,602.984497 1348.944824,544.860352 1349.080078,486.736694 
	C1349.094604,480.489502 1349.955811,474.205444 1350.891968,468.009094 
	C1352.047363,460.359680 1353.367554,452.703217 1355.237305,445.204590 
	C1356.542969,439.968506 1357.942871,434.312134 1360.994263,430.058380 
	C1365.657104,423.557953 1371.589600,417.911163 1377.329712,412.253632 
	C1386.491455,403.223663 1395.945312,395.564301 1409.834229,393.433502 
	C1423.183105,391.385590 1436.373657,389.747894 1449.833618,390.000488 
	C1453.322510,417.251709 1454.600220,444.614380 1453.615845,472.579285 
	C1453.210571,473.739105 1453.160156,474.392792 1453.109619,475.046509 
	C1453.063110,479.059357 1453.016724,483.072235 1452.615723,487.585236 
	C1452.210571,488.739105 1452.160034,489.392792 1452.109619,490.046509 
	C1452.062988,492.406433 1452.016357,494.766357 1451.615479,497.605835 
	C1451.210571,498.739105 1451.160156,499.392792 1451.109619,500.046509 
	C1451.062866,501.750885 1451.016235,503.455231 1450.615234,505.622498 
	C1450.210693,506.739105 1450.160156,507.392792 1450.109619,508.046509 
	C1450.062988,509.425781 1450.016357,510.805054 1449.615479,512.634888 
	C1449.210815,513.739014 1449.160400,514.392639 1449.109863,515.046204 
	C1449.063110,516.425537 1449.016357,517.804932 1448.615479,519.634888 
	C1448.210938,520.739014 1448.160400,521.392639 1448.109863,522.046204 
	C1448.063232,522.787720 1448.016602,523.529297 1447.615723,524.678101 
	C1447.210815,525.739014 1447.160278,526.392639 1447.109863,527.046204 
	C1447.063110,528.103760 1447.016357,529.161316 1446.615479,530.652161 
	C1446.210938,531.739014 1446.160400,532.392639 1446.109863,533.046204 
	C1446.063232,533.787720 1446.016602,534.529297 1445.615723,535.678101 
	C1445.210815,536.739014 1445.160278,537.392639 1445.109863,538.046204 
	C1445.064209,538.483154 1445.018555,538.920166 1444.617065,539.721313 
	C1444.210815,540.739014 1444.160278,541.392639 1444.109863,542.046204 
	C1444.063232,542.787720 1444.016602,543.529297 1443.615723,544.678101 
	C1443.210938,545.739014 1443.160400,546.392639 1443.109863,547.046204 
	C1443.064209,547.483154 1443.018555,547.920166 1442.617188,548.721313 
	C1442.210815,549.739014 1442.160400,550.392639 1442.109863,551.046204 
	C1442.064331,551.483154 1442.018677,551.920166 1441.617188,552.721313 
	C1441.210938,553.739014 1441.160400,554.392639 1441.109863,555.046204 
	C1441.064209,555.483154 1441.018555,555.920166 1440.617188,556.721313 
	C1440.210815,557.739014 1440.160400,558.392639 1440.109863,559.046204 
	C1440.064209,559.483215 1440.018555,559.920288 1439.577637,560.742981 
	C1438.825073,562.767761 1438.467529,564.406860 1438.110107,566.045959 
	C1438.064331,566.483032 1438.018555,566.920166 1437.559937,567.753174 
	C1436.134644,571.781372 1435.122314,575.413696 1434.110107,579.045959 
	C1434.064331,579.483032 1434.018677,579.920166 1433.559204,580.752686 
	C1432.108276,582.761353 1430.756958,584.254333 1430.086182,586.007751 
	C1426.497803,595.387085 1423.518066,605.024475 1419.481567,614.200378 
	C1415.251587,623.816345 1410.082397,633.020508 1405.279541,642.381958 
	C1404.312622,644.266479 1403.008179,645.983215 1402.102417,647.892639 
	C1400.054688,652.209045 1397.765869,656.474182 1396.345459,661.001831 
	C1395.464600,663.809082 1391.083740,665.182068 1393.109253,669.046753 
	C1386.259521,679.346924 1379.709961,689.862549 1372.498047,699.902527 
	C1357.322876,721.028381 1339.391602,739.745117 1320.012939,757.895203 
	C1318.219604,759.051392 1317.130981,760.082764 1316.042480,761.114197 
	C1314.925171,762.341125 1313.807861,763.568054 1311.999512,764.907410 
	C1310.219604,766.051331 1309.130981,767.082764 1308.042358,768.114136 
	C1307.252686,769.013062 1306.463013,769.911987 1304.990723,770.915405 
	C1303.219604,772.051331 1302.130981,773.082764 1301.042358,774.114136 
	C1301.010376,774.453125 1300.851074,774.714722 1299.937988,774.959351 
	C1298.226562,776.042480 1297.141724,777.065063 1296.056885,778.087524 
	C1296.056763,778.087524 1296.009766,778.009827 1295.646851,778.017029 
	C1294.203369,779.054199 1293.122803,780.084167 1292.042358,781.114136 
	C1292.010376,781.453125 1291.851074,781.714722 1290.937988,781.959351 
	C1289.226440,783.042358 1288.141602,784.064880 1287.056763,785.087524 
	C1287.056763,785.087524 1287.009766,785.010071 1286.644897,785.017090 
	C1285.418457,785.828186 1284.556885,786.632202 1283.695190,787.436157 
	C1283.695190,787.436157 1283.561768,787.582825 1283.113281,787.423584 
	C1281.795654,788.205383 1280.926392,789.146362 1280.057007,790.087341 
	C1280.057007,790.087341 1280.009766,790.009949 1279.644897,790.017090 
	C1278.418457,790.828186 1277.556885,791.632202 1276.695190,792.436157 
	C1276.695190,792.436157 1276.559692,792.584290 1276.103271,792.421753 
	C1274.996826,792.984192 1274.346802,793.709229 1273.696899,794.434204 
	C1273.696899,794.434265 1273.561157,794.584167 1273.104004,794.421753 
	C1271.996948,794.984314 1271.346924,795.709290 1270.697021,796.434326 
	C1270.696899,796.434265 1270.561157,796.584167 1270.104004,796.421753 
	C1268.996948,796.984314 1268.346924,797.709290 1267.697021,798.434326 
	C1267.696899,798.434265 1267.561157,798.584167 1267.104004,798.421692 
	C1265.996826,798.984253 1265.346924,799.709229 1264.696899,800.434265 
	C1264.696899,800.434265 1264.558228,800.581360 1264.085815,800.414307 
	C1261.283081,800.043823 1258.736816,799.575012 1259.705200,803.426575 
	C1259.705200,803.426575 1259.568359,803.583679 1259.107666,803.421448 
	C1257.996948,803.984253 1257.346924,804.709290 1256.696899,805.434265 
	C1256.696899,805.434265 1256.558228,805.581360 1256.085815,805.414307 
	C1253.283081,805.043823 1250.736816,804.575012 1251.705200,808.426575 
	C1251.705200,808.426575 1251.564941,808.580933 1251.090088,808.414246 
	C1247.657715,808.239807 1244.235840,807.575439 1244.711548,812.422485 
	C1244.711548,812.422485 1244.570068,812.580994 1244.092651,812.414551 
	C1238.024414,812.333191 1233.976196,814.857056 1233.714600,818.420776 
	C1233.714600,818.420776 1233.571533,818.574097 1233.072021,818.408447 
	C1227.227417,817.893616 1221.103638,821.590637 1219.999146,825.833496 
	C1219.566284,825.893799 1219.133301,825.954041 1218.151367,825.772827 
	C1213.247437,824.885559 1210.177490,826.324829 1208.999146,830.833496 
	C1208.566284,830.893738 1208.133301,830.954041 1207.153320,830.774170 
	C1203.364502,829.251770 1202.040649,830.647339 1201.999146,833.833496 
	C1201.566040,833.893738 1201.133057,833.953979 1200.175293,833.787109 
	C1198.766724,834.317871 1197.882935,835.075684 1196.999146,835.833496 
	C1196.566040,835.893799 1196.133057,835.954041 1195.175293,835.787109 
	C1193.766724,836.317810 1192.882935,837.075623 1191.999146,837.833496 
	C1191.565308,837.893982 1191.131348,837.954529 1190.216187,837.746460 
	C1186.831665,835.975464 1182.357056,838.206543 1180.999146,841.833496 
	C1180.565186,841.894043 1180.131348,841.954529 1179.216553,841.747070 
	C1174.620483,838.521912 1174.038818,841.715210 1173.285522,844.609985 
	C1173.112793,844.699341 1172.939941,844.788757 1172.351807,844.471680 
	C1168.008301,845.251526 1164.079224,846.434326 1160.164429,847.662415 
	C1160.112305,847.678894 1160.240234,848.269226 1160.284180,848.591675 
	C1160.113892,848.686096 1159.943726,848.780579 1159.385254,848.502686 
	C1155.643188,847.572266 1153.964478,848.300293 1153.307983,850.597778 
	C1153.307983,850.597778 1152.896606,850.866821 1152.652588,850.838745 
M904.935120,590.649658 
	C914.207153,608.250305 927.271057,622.726990 942.790344,634.858765 
	C958.822510,647.391541 977.026245,656.036255 996.535522,661.773682 
	C1010.997437,666.026733 1025.808594,668.883179 1040.889771,668.862549 
	C1054.743896,668.843567 1068.635010,668.107971 1082.439087,666.887146 
	C1098.241821,665.489502 1113.426270,661.008301 1127.850220,654.504089 
	C1148.285767,645.289062 1167.298584,633.805359 1181.484619,615.905762 
	C1188.263794,607.351868 1195.218384,598.769348 1200.694824,589.383545 
	C1214.522217,565.685364 1220.303101,539.414124 1221.818604,512.353210 
	C1222.988770,491.457458 1222.165405,470.533783 1217.050903,449.977875 
	C1211.053345,425.872345 1200.533813,403.937805 1184.416504,385.177612 
	C1168.978882,367.208740 1150.315186,353.213959 1128.172363,343.907257 
	C1107.804077,335.346375 1086.629272,330.513306 1064.772461,329.184296 
	C1048.986084,328.224365 1033.174805,329.083710 1017.414917,331.815735 
	C998.481689,335.097961 980.611267,340.885925 963.738220,350.020142 
	C940.337891,362.687927 921.837341,380.286804 907.456482,402.778870 
	C890.378601,429.488953 883.574707,458.920105 882.064880,489.952484 
	C881.141602,508.929260 882.832947,527.796204 887.085938,546.315918 
	C890.627136,561.736084 896.075928,576.506714 904.935120,590.649658 
z"/>
<path fill="#000000" opacity="1.000000" stroke="none" 
	d="
M679.892456,413.048523 
	C680.684814,414.939575 681.477173,416.830627 682.626099,419.227539 
	C683.692261,421.273804 684.401917,422.814178 685.111572,424.354553 
	C685.098267,424.549225 685.085083,424.743927 685.368164,425.530945 
	C695.300903,452.483826 698.985107,479.741608 698.039429,507.712189 
	C697.985901,509.297363 698.497986,510.901672 698.850769,513.163818 
	C674.200623,513.163818 649.596619,513.163818 624.528320,513.087769 
	C561.829590,513.011719 499.595184,513.011719 436.624847,513.011719 
	C437.115845,517.659180 437.735199,521.833130 437.967712,526.028564 
	C438.764465,540.407104 442.769409,553.965820 449.063232,566.754089 
	C456.823425,582.521912 469.152649,594.176270 484.787018,601.862488 
	C501.237396,609.949829 518.782776,613.090942 537.264404,612.172607 
	C549.885437,611.545471 562.037292,609.532654 573.734436,604.949097 
	C584.988586,600.539124 595.365356,594.366028 603.655273,585.605652 
	C612.337585,576.430664 619.172363,565.824768 622.260010,553.282654 
	C623.041504,550.108459 624.599548,548.411072 628.456970,548.906372 
	C649.845215,548.976501 670.769104,548.976501 691.955139,548.976501 
	C691.955139,550.227417 692.174072,551.107056 691.922119,551.820312 
	C688.473633,561.581604 685.523987,571.569824 681.341187,581.010132 
	C673.449097,598.822205 661.833679,614.165955 647.993896,627.836670 
	C631.747620,643.213989 612.451660,653.693665 591.466553,660.502625 
	C579.287415,664.454346 566.280823,666.354431 553.490845,667.781128 
	C541.359131,669.134399 528.969299,669.553589 516.791321,668.798218 
	C497.083527,667.575867 477.995331,663.178101 459.622711,655.389587 
	C438.616943,646.484924 421.033020,633.138489 405.990509,616.346741 
	C394.280029,603.274414 385.581879,588.208313 379.004852,571.920593 
	C373.488342,558.259216 370.509125,543.942017 368.091064,529.506165 
	C367.253845,524.508057 367.356750,519.354431 366.993835,514.274414 
	C366.690125,510.022186 365.979553,505.767181 366.057922,501.524658 
	C366.537323,475.573059 369.525421,449.950287 379.204681,425.669464 
	C388.443726,402.493011 402.465454,382.310486 421.534698,366.170319 
	C441.921967,348.914642 465.615753,338.244995 491.872406,332.854858 
	C509.601288,329.215332 527.463196,328.102386 545.339966,329.173584 
	C569.999023,330.651184 593.931641,336.224548 615.735840,348.179779 
	C626.001770,353.808624 635.229004,361.377563 644.725464,368.341949 
	C648.549316,371.146240 651.833618,374.686249 655.688110,378.370789 
	C663.972656,390.249634 671.932556,401.649078 679.892456,413.048523 
M547.706482,385.954681 
	C546.624817,385.636627 545.527222,384.996979 544.463989,385.049835 
	C532.638977,385.637543 520.625732,385.219666 509.039307,387.234924 
	C486.410065,391.170776 467.699585,402.261230 454.106903,421.333435 
	C444.789429,434.406982 439.555817,448.942383 437.031921,464.842499 
	C500.515839,464.842499 563.627625,464.842499 626.920471,464.842499 
	C625.920776,460.121552 625.178528,455.527954 623.961060,451.063965 
	C619.764404,435.677704 612.674622,421.748749 601.014465,410.741425 
	C595.290771,405.338257 588.737610,400.567444 581.911621,396.636047 
	C571.687195,390.747314 560.530029,387.000549 547.706482,385.954681 
z"/>
<path fill="#000000" opacity="1.000000" stroke="none" 
	d="
M756.506592,664.935059 
	C756.028687,556.065430 756.015015,447.244507 755.999207,338.423615 
	C755.997375,325.925110 755.984070,313.426575 755.975586,300.086823 
	C755.650391,298.111450 755.325684,296.977295 755.001038,295.843170 
	C755.334045,294.120148 755.951599,292.397980 755.956787,290.673950 
	C756.022461,268.877197 756.000000,247.080170 756.000000,225.283218 
	C756.000000,223.655472 756.000000,222.027725 756.000000,220.210861 
	C779.082703,220.210861 801.794250,220.210861 825.011719,220.210861 
	C825.011719,231.216736 825.011719,242.140503 825.087952,253.528809 
	C825.109497,255.989365 825.006897,257.985382 825.006775,259.981415 
	C824.999207,392.792023 825.000000,525.602600 825.000000,658.413208 
	C825.000000,660.392212 825.000000,662.371277 825.000000,664.983765 
	C802.150024,664.983765 779.560120,664.983765 756.506592,664.935059 
z"/>
<path fill="#5CFE4F" opacity="1.000000" stroke="none" 
	d="
M624.992615,513.163818 
	C649.596619,513.163818 674.200623,513.163818 698.850769,513.163818 
	C698.497986,510.901672 697.985901,509.297363 698.039429,507.712189 
	C698.985107,479.741608 695.300903,452.483826 685.490234,425.796967 
	C688.628357,424.112122 689.880676,426.277100 690.805237,428.780853 
	C696.514221,444.242096 700.334045,460.118835 700.987244,476.648865 
	C701.406555,487.260803 701.787537,497.877014 701.959717,508.494995 
	C702.084167,516.171143 701.084045,516.999329 693.389282,516.999695 
	C673.904358,517.000549 654.419373,517.000000 634.934448,517.000000 
	C633.152222,517.000000 631.369995,517.000000 629.417236,517.000000 
	C629.977783,524.574707 630.640869,531.482178 630.947083,538.405518 
	C631.145508,542.893494 632.287231,545.236267 637.620789,545.126953 
	C654.434021,544.782471 671.258789,544.989258 688.079102,545.005310 
	C694.682983,545.011658 697.742981,548.271851 695.549133,554.401917 
	C692.120544,563.982117 687.898438,573.294922 683.681213,582.570435 
	C680.767700,588.978699 677.770752,595.440674 673.960449,601.328125 
	C668.348633,609.998962 662.230286,618.379883 655.788879,626.454407 
	C653.675171,629.104065 653.401794,630.942200 654.360229,633.904785 
	C655.287537,636.771240 655.392578,639.903748 655.709229,643.302124 
	C653.252075,638.531799 650.944519,633.378906 648.315430,628.031311 
	C661.833679,614.165955 673.449097,598.822205 681.341187,581.010132 
	C685.523987,571.569824 688.473633,561.581604 691.922119,551.820312 
	C692.174072,551.107056 691.955139,550.227417 691.955139,548.976501 
	C670.769104,548.976501 649.845215,548.976501 628.459412,548.481934 
	C626.995850,536.379456 625.994263,524.771667 624.992615,513.163818 
z"/>
<path fill="#5CFE4F" opacity="1.000000" stroke="none" 
	d="
M667.208252,668.344360 
	C668.821411,668.772827 671.093994,669.096558 672.035767,670.389587 
	C681.561279,683.468018 690.254089,697.201660 700.400024,709.766785 
	C712.058716,724.205322 724.790833,737.795776 737.400330,751.437012 
	C741.309143,755.665649 746.343933,758.851990 750.854309,762.526489 
	C758.957825,769.128357 766.955200,775.865784 775.192627,782.295837 
	C779.876587,785.952148 785.112976,788.904175 789.764221,792.596985 
	C791.613831,794.065491 792.554565,796.678772 793.793701,799.189392 
	C783.934387,793.051086 773.603516,787.207458 764.577576,779.778442 
	C749.188782,767.112244 733.878723,754.182922 719.884888,740.030029 
	C700.370117,720.293152 684.005615,697.910828 670.272034,673.701477 
	C669.309814,672.005249 668.259338,670.359009 667.208252,668.344360 
z"/>
<path fill="#5CFE4F" opacity="1.000000" stroke="none" 
	d="
M754.678772,296.000397 
	C755.325684,296.977295 755.650391,298.111450 755.904236,299.623108 
	C753.414490,301.172302 750.809143,302.068970 748.607300,303.561035 
	C735.818848,312.227081 722.935730,320.774170 710.473999,329.893463 
	C703.488831,335.005035 697.300415,341.197052 690.659363,346.791077 
	C687.940613,349.081085 684.727356,350.823669 682.198914,353.287231 
	C680.150818,355.282806 678.973816,358.141602 677.087769,360.340759 
	C673.246338,364.820007 669.346497,369.272552 665.166870,373.430695 
	C661.887756,376.692841 662.841003,379.750366 664.994629,382.764252 
	C669.776733,389.456787 675.149048,395.643982 677.502869,403.942200 
	C678.297852,406.744751 682.098572,408.698578 680.186829,412.810303 
	C671.932556,401.649078 663.972656,390.249634 656.002075,378.506165 
	C662.770264,370.165955 669.163513,361.796997 676.434021,354.276001 
	C684.047180,346.400543 691.909607,338.526672 700.718567,332.098511 
	C717.046509,320.183472 734.139099,309.315857 750.928345,298.034485 
	C752.005249,297.310852 753.210815,296.778809 754.678772,296.000397 
z"/>
<path fill="#5CFE4F" opacity="1.000000" stroke="none" 
	d="
M884.178223,841.892456 
	C884.861023,840.930115 886.301453,839.092468 886.824158,839.324280 
	C890.637024,841.015259 894.265625,843.122192 897.993408,845.524048 
	C893.526611,844.625305 889.018799,843.300293 884.178223,841.892456 
z"/>
<path fill="#5CFE4F" opacity="1.000000" stroke="none" 
	d="
M867.810547,836.140503 
	C870.890320,833.208740 877.009888,834.957825 879.937012,839.747314 
	C875.976257,838.883423 871.993652,837.651245 867.810547,836.140503 
z"/>
<path fill="#5CFE4F" opacity="1.000000" stroke="none" 
	d="
M659.932861,653.414795 
	C664.673584,653.454651 666.353088,656.308838 665.190430,662.806030 
	C663.256165,659.962463 661.618591,656.875244 659.932861,653.414795 
z"/>
<path fill="#5CFE4F" opacity="1.000000" stroke="none" 
	d="
M794.789062,800.124878 
	C795.638245,799.075623 796.657349,798.284485 797.676453,797.493408 
	C798.778381,799.429382 799.880310,801.365356 800.970337,803.708374 
	C798.958679,802.871277 796.958801,801.627136 794.789062,800.124878 
z"/>
<path fill="#5CFE4F" opacity="1.000000" stroke="none" 
	d="
M859.799927,833.128296 
	C862.479858,829.308655 864.249329,831.493347 865.990234,834.513367 
	C864.021179,834.432556 862.004700,833.913147 859.799927,833.128296 
z"/>
<path fill="#5CFE4F" opacity="1.000000" stroke="none" 
	d="
M900.144531,846.889038 
	C901.795166,842.571960 903.450256,843.566284 905.002319,847.528259 
	C903.509888,847.627686 901.977112,847.297852 900.144531,846.889038 
z"/>
<path fill="#5CFE4F" opacity="1.000000" stroke="none" 
	d="
M811.780273,810.114746 
	C812.336243,808.945801 813.055542,808.025696 814.534790,806.133423 
	C814.762573,808.765015 814.872375,810.033203 814.970337,811.708374 
	C813.953552,811.531433 812.948608,810.947449 811.780273,810.114746 
z"/>
<path fill="#5CFE4F" opacity="1.000000" stroke="none" 
	d="
M804.780273,806.114746 
	C805.336365,804.945862 806.055786,804.025818 807.534973,802.133972 
	C807.762695,804.765015 807.872437,806.033203 807.970337,807.708374 
	C806.953552,807.531433 805.948608,806.947449 804.780273,806.114746 
z"/>
<path fill="#5CFE4F" opacity="1.000000" stroke="none" 
	d="
M852.486328,829.727051 
	C853.485413,829.717224 854.660400,830.016663 855.897400,830.716187 
	C854.860352,830.756287 853.761292,830.396301 852.486328,829.727051 
z"/>
<path fill="#5CFE4F" opacity="1.000000" stroke="none" 
	d="
M847.489990,827.728394 
	C848.494812,827.726318 849.678223,828.036682 850.934570,828.752075 
	C849.894531,828.785034 848.781494,828.412903 847.489990,827.728394 
z"/>
<path fill="#5CFE4F" opacity="1.000000" stroke="none" 
	d="
M838.486328,823.726990 
	C839.485413,823.717163 840.660400,824.016663 841.897400,824.716187 
	C840.860352,824.756226 839.761353,824.396240 838.486328,823.726990 
z"/>
<path fill="#000000" opacity="1.000000" stroke="none" 
	d="
M1412.045654,335.110779 
	C1412.482422,335.066345 1412.919189,335.021973 1414.042114,334.857300 
	C1417.541626,333.768097 1420.354858,332.799164 1423.168213,331.830200 
	C1423.395142,331.860016 1423.621948,331.889801 1424.510010,331.609192 
	C1429.449707,330.477783 1433.728027,329.656738 1438.006470,328.835693 
	C1448.480103,328.223816 1458.992188,326.722931 1469.420044,327.172058 
	C1497.135864,328.365814 1522.700195,335.824127 1544.673584,353.979858 
	C1565.362793,371.074371 1578.242065,392.765137 1584.869629,418.348114 
	C1587.293579,427.704742 1589.675781,437.405579 1589.783325,446.975189 
	C1590.527710,513.202209 1590.669189,579.436096 1590.995850,645.667786 
	C1591.026855,651.962280 1591.000000,658.256958 1591.000000,664.772827 
	C1567.594604,664.772827 1544.527466,664.772827 1521.000000,664.772827 
	C1521.000000,662.894714 1521.000000,661.114624 1521.000000,659.334534 
	C1521.000000,595.852905 1521.413940,532.367065 1520.759888,468.892181 
	C1520.550659,448.591858 1514.321289,429.546539 1500.966064,413.372833 
	C1489.187866,399.108978 1474.002563,391.220490 1456.082764,388.004547 
	C1454.014648,387.633392 1451.932251,387.340790 1449.008789,387.015747 
	C1445.246338,386.679840 1442.308960,385.922516 1439.421265,386.079712 
	C1431.388062,386.517090 1423.262695,386.705688 1415.376587,388.121857 
	C1393.520020,392.046783 1375.918579,403.010132 1362.927856,421.248383 
	C1349.657349,439.879608 1345.427124,461.333740 1345.202515,483.342255 
	C1344.605957,541.834778 1345.000000,600.337402 1345.000000,658.836060 
	C1345.000000,660.776550 1345.000000,662.717102 1345.000000,664.884705 
	C1321.304688,664.884705 1298.173096,664.884705 1275.041626,664.884705 
	C1275.027832,556.019653 1275.013306,447.154633 1275.010986,338.289581 
	C1275.010986,337.300842 1275.174927,336.312073 1276.095215,335.149658 
	C1288.426758,334.984009 1299.925415,334.994659 1311.424072,334.999176 
	C1321.422974,335.003082 1331.421875,335.019318 1341.420776,334.988403 
	C1344.411255,334.979156 1346.999878,335.111633 1345.075684,339.293335 
	C1344.757446,339.984924 1345.001465,340.939545 1345.001343,341.772614 
	C1344.999390,355.937714 1344.978638,370.102905 1345.031982,384.267822 
	C1345.037598,385.738922 1345.488403,387.208313 1345.732666,388.678497 
	C1346.161133,388.770752 1346.589600,388.862976 1347.018066,388.955200 
	C1348.383423,386.650970 1349.748901,384.346741 1351.114258,382.042480 
	C1356.002930,376.269806 1360.891602,370.497101 1366.215698,364.286896 
	C1367.805420,362.913727 1368.959839,361.978058 1370.114258,361.042358 
	C1371.344849,359.927063 1372.575439,358.811768 1374.227539,357.273743 
	C1375.796509,355.920502 1376.943848,354.989929 1378.091309,354.059387 
	C1378.091309,354.059387 1378.011230,354.010895 1378.338257,353.923523 
	C1379.807251,352.910583 1380.949341,351.984985 1382.091309,351.059387 
	C1382.091309,351.059387 1382.011230,351.010956 1382.324707,350.933838 
	C1383.574951,350.175049 1384.511719,349.493317 1385.448608,348.811584 
	C1385.448608,348.811584 1385.653564,348.670441 1385.990234,348.412476 
	C1387.700928,347.370422 1389.074829,346.586334 1390.448730,345.802246 
	C1390.448730,345.802246 1390.662354,345.662994 1391.020264,345.394623 
	C1396.600586,342.454315 1401.823242,339.782379 1407.045898,337.110474 
	C1407.482544,337.066223 1407.919312,337.021942 1408.990479,336.900513 
	C1410.432007,336.252533 1411.238770,335.681641 1412.045654,335.110779 
z"/>
<path fill="#000000" opacity="1.000000" stroke="none" 
	d="
M1732.000000,658.888794 
	C1732.000000,660.819885 1732.000000,662.262451 1732.000000,663.848755 
	C1708.555664,663.848755 1685.602539,663.848755 1662.324585,663.848755 
	C1662.324585,553.787109 1662.324585,443.717682 1662.324585,333.324005 
	C1685.213135,333.324005 1708.285645,333.324005 1732.000000,333.324005 
	C1732.000000,441.567749 1732.000000,549.984009 1732.000000,658.888794 
z"/>
<path fill="#000000" opacity="1.000000" stroke="none" 
	d="
M1731.238647,265.264526 
	C1722.948242,272.568085 1713.663330,276.012970 1702.952637,277.209137 
	C1691.912720,278.442047 1681.620483,277.188904 1672.020264,271.926483 
	C1660.884521,265.822357 1654.426758,256.539978 1652.833862,243.509430 
	C1651.554688,233.044632 1652.996338,223.460541 1659.091919,215.050323 
	C1666.494873,204.836044 1676.855591,199.544373 1689.481079,197.852646 
	C1698.605347,196.630081 1707.406616,197.357071 1715.778320,200.487595 
	C1729.591309,205.652771 1738.485962,215.265991 1741.102417,230.408203 
	C1743.389893,243.647095 1740.622681,255.116196 1731.238647,265.264526 
z"/>
<path fill="#5CFE4F" opacity="1.000000" stroke="none" 
	d="
M1275.069336,665.282288 
	C1298.173096,664.884705 1321.304688,664.884705 1345.000000,664.884705 
	C1345.000000,662.717102 1345.000000,660.776550 1345.000000,658.836060 
	C1345.000000,600.337402 1344.605957,541.834778 1345.202515,483.342255 
	C1345.427124,461.333740 1349.657349,439.879608 1362.927856,421.248383 
	C1375.918579,403.010132 1393.520020,392.046783 1415.376587,388.121857 
	C1423.262695,386.705688 1431.388062,386.517090 1439.421265,386.079712 
	C1442.308960,385.922516 1445.246338,386.679840 1448.584961,387.091614 
	C1449.325806,387.904877 1449.642700,388.646301 1449.896729,389.694092 
	C1436.373657,389.747894 1423.183105,391.385590 1409.834229,393.433502 
	C1395.945312,395.564301 1386.491455,403.223663 1377.329712,412.253632 
	C1371.589600,417.911163 1365.657104,423.557953 1360.994263,430.058380 
	C1357.942871,434.312134 1356.542969,439.968506 1355.237305,445.204590 
	C1353.367554,452.703217 1352.047363,460.359680 1350.891968,468.009094 
	C1349.955811,474.205444 1349.094604,480.489502 1349.080078,486.736694 
	C1348.944824,544.860352 1349.001099,602.984497 1348.998535,661.108459 
	C1348.998291,667.702454 1347.753784,668.987366 1341.196411,668.993286 
	C1321.044556,669.011597 1300.892700,668.977173 1280.740967,669.027588 
	C1278.085938,669.034241 1275.646240,669.050781 1275.069336,665.282288 
z"/>
<path fill="#5CFE4F" opacity="1.000000" stroke="none" 
	d="
M1393.410645,668.878174 
	C1391.083740,665.182068 1395.464600,663.809082 1396.345459,661.001831 
	C1397.765869,656.474182 1400.054688,652.209045 1402.102417,647.892639 
	C1403.008179,645.983215 1404.312622,644.266479 1405.279541,642.381958 
	C1410.082397,633.020508 1415.251587,623.816345 1419.481567,614.200378 
	C1423.518066,605.024475 1426.497803,595.387085 1430.086182,586.007751 
	C1430.756958,584.254333 1432.108276,582.761353 1433.489502,581.075134 
	C1429.230103,593.296997 1425.316284,605.908447 1419.853149,617.808655 
	C1412.576538,633.659302 1404.099854,648.959167 1396.121216,664.486755 
	C1395.381470,665.926880 1394.518066,667.303467 1393.410645,668.878174 
z"/>
<path fill="#5CFE4F" opacity="1.000000" stroke="none" 
	d="
M1248.940186,37.627571 
	C1244.321655,35.757786 1239.565674,33.551212 1234.788696,31.391163 
	C1220.873901,25.099052 1206.970093,18.781998 1193.008423,12.595453 
	C1191.086304,11.743731 1188.861328,11.575647 1186.388184,11.045531 
	C1179.506348,9.332885 1173.005981,7.690965 1166.527222,5.968055 
	C1165.677979,5.742196 1164.939331,5.100966 1164.094971,4.267821 
	C1175.994263,6.937400 1188.152588,9.366220 1199.854004,13.192178 
	C1217.247192,18.879133 1233.547974,27.104050 1248.940186,37.627571 
z"/>
<path fill="#5CFE4F" opacity="1.000000" stroke="none" 
	d="
M1438.002319,328.439331 
	C1433.728027,329.656738 1429.449707,330.477783 1424.828613,331.481384 
	C1425.273560,328.325867 1428.283691,327.924622 1430.819580,327.062256 
	C1432.147583,326.610626 1433.676392,326.749847 1436.079712,326.536560 
	C1433.110962,315.967865 1430.454834,305.948456 1427.465088,296.029602 
	C1424.547363,286.349457 1421.289062,276.772003 1418.283447,266.731964 
	C1419.289062,268.312042 1420.420288,270.239319 1421.058228,272.318085 
	C1426.754395,290.877808 1432.363403,309.464325 1438.002319,328.439331 
z"/>
<path fill="#5CFE4F" opacity="1.000000" stroke="none" 
	d="
M1220.348389,825.788330 
	C1221.103638,821.590637 1227.227417,817.893616 1232.982666,818.463318 
	C1229.161011,821.036865 1224.929321,823.390015 1220.348389,825.788330 
z"/>
<path fill="#5CFE4F" opacity="1.000000" stroke="none" 
	d="
M1234.012085,818.292969 
	C1233.976196,814.857056 1238.024414,812.333191 1244.002930,812.471252 
	C1241.030151,814.518005 1237.669922,816.341614 1234.012085,818.292969 
z"/>
<path fill="#5CFE4F" opacity="1.000000" stroke="none" 
	d="
M1160.653809,848.484192 
	C1160.240234,848.269226 1160.112305,847.678894 1160.164429,847.662415 
	C1164.079224,846.434326 1168.008301,845.251526 1172.062012,844.437622 
	C1168.466309,845.998901 1164.744751,847.187805 1160.653809,848.484192 
z"/>
<path fill="#5CFE4F" opacity="1.000000" stroke="none" 
	d="
M1209.345825,830.790039 
	C1210.177490,826.324829 1213.247437,824.885559 1217.825928,825.818970 
	C1215.263794,827.653259 1212.478149,829.199890 1209.345825,830.790039 
z"/>
<path fill="#5CFE4F" opacity="1.000000" stroke="none" 
	d="
M1181.353271,841.783813 
	C1182.357056,838.206543 1186.831665,835.975464 1189.890137,837.794312 
	C1187.266235,839.318542 1184.486816,840.526306 1181.353271,841.783813 
z"/>
<path fill="#5CFE4F" opacity="1.000000" stroke="none" 
	d="
M1434.425781,578.849792 
	C1435.122314,575.413696 1436.134644,571.781372 1437.490234,568.075623 
	C1436.802856,571.552612 1435.772217,575.103149 1434.425781,578.849792 
z"/>
<path fill="#5CFE4F" opacity="1.000000" stroke="none" 
	d="
M1245.004761,812.296692 
	C1244.235840,807.575439 1247.657715,808.239807 1251.002686,808.471130 
	C1249.359497,809.853455 1247.328735,811.012146 1245.004761,812.296692 
z"/>
<path fill="#5CFE4F" opacity="1.000000" stroke="none" 
	d="
M1256.941406,42.628860 
	C1254.428833,41.498833 1251.770508,40.054554 1249.082764,38.258064 
	C1251.634033,39.375439 1254.214722,40.845020 1256.941406,42.628860 
z"/>
<path fill="#5CFE4F" opacity="1.000000" stroke="none" 
	d="
M1173.625000,844.514526 
	C1174.038818,841.715210 1174.620483,838.521912 1178.890503,841.794922 
	C1177.351807,842.880188 1175.658203,843.649597 1173.625000,844.514526 
z"/>
<path fill="#5CFE4F" opacity="1.000000" stroke="none" 
	d="
M1202.330811,833.801514 
	C1202.040649,830.647339 1203.364502,829.251770 1206.827759,830.820251 
	C1205.587036,831.994202 1204.124756,832.881897 1202.330811,833.801514 
z"/>
<path fill="#5CFE4F" opacity="1.000000" stroke="none" 
	d="
M1259.987793,803.305603 
	C1258.736816,799.575012 1261.283081,800.043823 1264.002441,800.471313 
	C1263.017700,801.525208 1261.644043,802.354919 1259.987793,803.305603 
z"/>
<path fill="#5CFE4F" opacity="1.000000" stroke="none" 
	d="
M1251.987793,808.305664 
	C1250.736816,804.575012 1253.283081,805.043823 1256.002441,805.471375 
	C1255.017700,806.525269 1253.644043,807.354980 1251.987793,808.305664 
z"/>
<path fill="#5CFE4F" opacity="1.000000" stroke="none" 
	d="
M1153.646118,850.502075 
	C1153.964478,848.300293 1155.643188,847.572266 1159.095093,848.472290 
	C1157.456787,849.344910 1155.720459,849.875610 1153.646118,850.502075 
z"/>
<path fill="#5CFE4F" opacity="1.000000" stroke="none" 
	d="
M1417.891968,263.629639 
	C1416.949585,262.364716 1416.065430,260.731171 1415.290527,258.704407 
	C1416.250000,259.961121 1417.100098,261.611053 1417.891968,263.629639 
z"/>
<path fill="#5CFE4F" opacity="1.000000" stroke="none" 
	d="
M1438.415283,565.866455 
	C1438.467529,564.406860 1438.825073,562.767761 1439.508057,561.065369 
	C1439.462524,562.563660 1439.091553,564.125244 1438.415283,565.866455 
z"/>
<path fill="#5CFE4F" opacity="1.000000" stroke="none" 
	d="
M1287.358154,784.956726 
	C1288.141602,784.064880 1289.226440,783.042358 1290.712769,782.031006 
	C1289.962646,782.970154 1288.811035,783.898071 1287.358154,784.956726 
z"/>
<path fill="#5CFE4F" opacity="1.000000" stroke="none" 
	d="
M1292.342285,780.978638 
	C1293.122803,780.084167 1294.203369,779.054199 1295.685669,778.040649 
	C1294.939087,778.985718 1293.790771,779.914429 1292.342285,780.978638 
z"/>
<path fill="#5CFE4F" opacity="1.000000" stroke="none" 
	d="
M1296.358154,777.956787 
	C1297.141724,777.065063 1298.226562,776.042480 1299.712891,775.031067 
	C1298.962646,775.970154 1297.811035,776.898071 1296.358154,777.956787 
z"/>
<path fill="#5CFE4F" opacity="1.000000" stroke="none" 
	d="
M1301.343262,773.977844 
	C1302.130981,773.082764 1303.219604,772.051331 1304.711182,771.031128 
	C1303.957642,771.975342 1302.800903,772.908386 1301.343262,773.977844 
z"/>
<path fill="#5CFE4F" opacity="1.000000" stroke="none" 
	d="
M1308.343262,767.977783 
	C1309.130981,767.082764 1310.219604,766.051331 1311.711182,765.031067 
	C1310.957642,765.975342 1309.800903,766.908386 1308.343262,767.977783 
z"/>
<path fill="#5CFE4F" opacity="1.000000" stroke="none" 
	d="
M1316.343262,760.977905 
	C1317.130981,760.082764 1318.219604,759.051392 1319.711182,758.031128 
	C1318.957642,758.975342 1317.801025,759.908447 1316.343262,760.977905 
z"/>
<path fill="#5CFE4F" opacity="1.000000" stroke="none" 
	d="
M1192.309326,837.818726 
	C1192.882935,837.075623 1193.766724,836.317810 1194.849731,835.833496 
	C1194.239136,836.672668 1193.429321,837.238342 1192.309326,837.818726 
z"/>
<path fill="#5CFE4F" opacity="1.000000" stroke="none" 
	d="
M1197.309326,835.818848 
	C1197.882935,835.075684 1198.766724,834.317871 1199.849731,833.833496 
	C1199.239136,834.672729 1198.429321,835.238403 1197.309326,835.818848 
z"/>
<path fill="#5CFE4F" opacity="1.000000" stroke="none" 
	d="
M1283.966064,787.321289 
	C1284.556885,786.632202 1285.418457,785.828186 1286.683594,785.040588 
	C1286.137207,785.773438 1285.187012,786.489929 1283.966064,787.321289 
z"/>
<path fill="#5CFE4F" opacity="1.000000" stroke="none" 
	d="
M1280.350098,789.962341 
	C1280.926392,789.146362 1281.795654,788.205383 1283.034912,787.484375 
	C1282.484253,788.415283 1281.563721,789.126343 1280.350098,789.962341 
z"/>
<path fill="#5CFE4F" opacity="1.000000" stroke="none" 
	d="
M1276.966064,792.321289 
	C1277.556885,791.632202 1278.418457,790.828186 1279.683594,790.040527 
	C1279.137085,790.773376 1278.186890,791.489807 1276.966064,792.321289 
z"/>
<path fill="#5CFE4F" opacity="1.000000" stroke="none" 
	d="
M1256.955078,805.324890 
	C1257.346924,804.709290 1257.996948,803.984253 1259.022461,803.481262 
	C1258.669678,804.207397 1257.941406,804.711487 1256.955078,805.324890 
z"/>
<path fill="#5CFE4F" opacity="1.000000" stroke="none" 
	d="
M1160.632568,3.098271 
	C1160.031494,3.296838 1159.064453,3.427068 1158.069092,3.220550 
	C1158.782715,2.932512 1159.524780,2.981223 1160.632568,3.098271 
z"/>
<path fill="#5CFE4F" opacity="1.000000" stroke="none" 
	d="
M1267.955078,798.324951 
	C1268.346924,797.709290 1268.996948,796.984314 1270.022461,796.481323 
	C1269.669678,797.207397 1268.941406,797.711487 1267.955078,798.324951 
z"/>
<path fill="#5CFE4F" opacity="1.000000" stroke="none" 
	d="
M1270.955078,796.324951 
	C1271.346924,795.709290 1271.996948,794.984314 1273.022461,794.481323 
	C1272.669678,795.207458 1271.941528,795.711487 1270.955078,796.324951 
z"/>
<path fill="#5CFE4F" opacity="1.000000" stroke="none" 
	d="
M1273.955078,794.324951 
	C1274.346802,793.709229 1274.996826,792.984192 1276.022461,792.481323 
	C1275.669800,793.207458 1274.941528,793.711548 1273.955078,794.324951 
z"/>
<path fill="#5CFE4F" opacity="1.000000" stroke="none" 
	d="
M1264.955078,800.324951 
	C1265.346924,799.709229 1265.996826,798.984253 1267.022461,798.481323 
	C1266.669800,799.207458 1265.941528,799.711548 1264.955078,800.324951 
z"/>
<path fill="#5CFE4F" opacity="1.000000" stroke="none" 
	d="
M1259.976440,44.658936 
	C1259.117554,44.514431 1258.120972,44.071331 1257.088745,43.267006 
	C1257.981567,43.390633 1258.910278,43.875488 1259.976440,44.658936 
z"/>
<path fill="#5CFE4F" opacity="1.000000" stroke="none" 
	d="
M1266.975586,49.658035 
	C1266.115479,49.507862 1265.116943,49.058174 1264.079590,48.246208 
	C1264.972900,48.375458 1265.905151,48.866989 1266.975586,49.658035 
z"/>
<path fill="#5CFE4F" opacity="1.000000" stroke="none" 
	d="
M1397.892822,216.658875 
	C1397.285889,216.339005 1396.738159,215.679993 1396.310425,214.661926 
	C1396.937622,214.975143 1397.444824,215.647446 1397.892822,216.658875 
z"/>
<path fill="#5CFE4F" opacity="1.000000" stroke="none" 
	d="
M1403.892822,229.658859 
	C1403.285889,229.339005 1402.738159,228.679993 1402.310425,227.661896 
	C1402.937744,227.975098 1403.444946,228.647400 1403.892822,229.658859 
z"/>
<path fill="#5CFE4F" opacity="1.000000" stroke="none" 
	d="
M1407.892822,238.658905 
	C1407.285767,238.339050 1406.738037,237.680038 1406.310425,236.661926 
	C1406.937744,236.975128 1407.444824,237.647430 1407.892822,238.658905 
z"/>
<path fill="#5CFE4F" opacity="1.000000" stroke="none" 
	d="
M1410.892822,245.658875 
	C1410.285889,245.339035 1409.738037,244.680023 1409.310425,243.661926 
	C1409.937744,243.975128 1410.444824,244.647430 1410.892822,245.658875 
z"/>
<path fill="#5CFE4F" opacity="1.000000" stroke="none" 
	d="
M1412.892822,250.658875 
	C1412.285889,250.338974 1411.738159,249.679977 1411.310425,248.661911 
	C1411.937622,248.975159 1412.444824,249.647461 1412.892822,250.658875 
z"/>
<path fill="#5CFE4F" opacity="1.000000" stroke="none" 
	d="
M1414.892822,255.658890 
	C1414.285767,255.339050 1413.738037,254.680038 1413.310425,253.661926 
	C1413.937744,253.975128 1414.444824,254.647430 1414.892822,255.658890 
z"/>
<path fill="#5CFE4F" opacity="1.000000" stroke="none" 
	d="
M1453.385498,474.909912 
	C1453.160156,474.392792 1453.210571,473.739105 1453.547363,473.043549 
	C1453.776245,473.592255 1453.718872,474.182800 1453.385498,474.909912 
z"/>
<path fill="#5CFE4F" opacity="1.000000" stroke="none" 
	d="
M1452.385620,489.909912 
	C1452.160034,489.392792 1452.210571,488.739105 1452.547363,488.043549 
	C1452.776245,488.592255 1452.718994,489.182800 1452.385620,489.909912 
z"/>
<path fill="#5CFE4F" opacity="1.000000" stroke="none" 
	d="
M1451.385620,499.909912 
	C1451.160156,499.392792 1451.210571,498.739105 1451.547363,498.043549 
	C1451.776245,498.592255 1451.718872,499.182800 1451.385620,499.909912 
z"/>
<path fill="#5CFE4F" opacity="1.000000" stroke="none" 
	d="
M1450.385620,507.909912 
	C1450.160156,507.392792 1450.210693,506.739105 1450.547363,506.043549 
	C1450.776245,506.592255 1450.718872,507.182800 1450.385620,507.909912 
z"/>
<path fill="#5CFE4F" opacity="1.000000" stroke="none" 
	d="
M1449.385742,514.909668 
	C1449.160400,514.392639 1449.210815,513.739014 1449.547485,513.043579 
	C1449.776367,513.592224 1449.719116,514.182617 1449.385742,514.909668 
z"/>
<path fill="#5CFE4F" opacity="1.000000" stroke="none" 
	d="
M1448.385742,521.909668 
	C1448.160400,521.392639 1448.210938,520.739014 1448.547485,520.043579 
	C1448.776245,520.592224 1448.718994,521.182617 1448.385742,521.909668 
z"/>
<path fill="#5CFE4F" opacity="1.000000" stroke="none" 
	d="
M1447.385864,526.909668 
	C1447.160278,526.392639 1447.210815,525.739014 1447.547607,525.043579 
	C1447.776367,525.592224 1447.719116,526.182617 1447.385864,526.909668 
z"/>
<path fill="#5CFE4F" opacity="1.000000" stroke="none" 
	d="
M1446.385742,532.909668 
	C1446.160400,532.392639 1446.210938,531.739014 1446.547485,531.043579 
	C1446.776367,531.592224 1446.718994,532.182617 1446.385742,532.909668 
z"/>
<path fill="#5CFE4F" opacity="1.000000" stroke="none" 
	d="
M1445.385742,537.909668 
	C1445.160278,537.392639 1445.210815,536.739014 1445.547485,536.043579 
	C1445.776367,536.592224 1445.718994,537.182617 1445.385742,537.909668 
z"/>
<path fill="#5CFE4F" opacity="1.000000" stroke="none" 
	d="
M1444.385742,541.909668 
	C1444.160278,541.392639 1444.210815,540.739014 1444.547485,540.043579 
	C1444.776489,540.592224 1444.719116,541.182678 1444.385742,541.909668 
z"/>
<path fill="#5CFE4F" opacity="1.000000" stroke="none" 
	d="
M1443.385864,546.909668 
	C1443.160400,546.392639 1443.210938,545.739014 1443.547607,545.043579 
	C1443.776245,545.592224 1443.718994,546.182617 1443.385864,546.909668 
z"/>
<path fill="#5CFE4F" opacity="1.000000" stroke="none" 
	d="
M1442.385742,550.909668 
	C1442.160400,550.392639 1442.210815,549.739014 1442.547485,549.043579 
	C1442.776245,549.592224 1442.718994,550.182617 1442.385742,550.909668 
z"/>
<path fill="#5CFE4F" opacity="1.000000" stroke="none" 
	d="
M1441.385864,554.909668 
	C1441.160400,554.392639 1441.210938,553.739014 1441.547607,553.043579 
	C1441.776245,553.592224 1441.718994,554.182617 1441.385864,554.909668 
z"/>
<path fill="#5CFE4F" opacity="1.000000" stroke="none" 
	d="
M1440.385864,558.909668 
	C1440.160400,558.392639 1440.210815,557.739014 1440.547607,557.043579 
	C1440.776367,557.592224 1440.719116,558.182617 1440.385864,558.909668 
z"/>
<path fill="#000000" opacity="1.000000" stroke="none" 
	d="
M904.723389,590.339966 
	C896.075928,576.506714 890.627136,561.736084 887.085938,546.315918 
	C882.832947,527.796204 881.141602,508.929260 882.064880,489.952484 
	C883.574707,458.920105 890.378601,429.488953 907.456482,402.778870 
	C921.837341,380.286804 940.337891,362.687927 963.738220,350.020142 
	C980.611267,340.885925 998.481689,335.097961 1017.414917,331.815735 
	C1033.174805,329.083710 1048.986084,328.224365 1064.772461,329.184296 
	C1086.629272,330.513306 1107.804077,335.346375 1128.172363,343.907257 
	C1150.315186,353.213959 1168.978882,367.208740 1184.416504,385.177612 
	C1200.533813,403.937805 1211.053345,425.872345 1217.050903,449.977875 
	C1222.165405,470.533783 1222.988770,491.457458 1221.818604,512.353210 
	C1220.303101,539.414124 1214.522217,565.685364 1200.694824,589.383545 
	C1195.218384,598.769348 1188.263794,607.351868 1181.484619,615.905762 
	C1167.298584,633.805359 1148.285767,645.289062 1127.850220,654.504089 
	C1113.426270,661.008301 1098.241821,665.489502 1082.439087,666.887146 
	C1068.635010,668.107971 1054.743896,668.843567 1040.889771,668.862549 
	C1025.808594,668.883179 1010.997437,666.026733 996.535522,661.773682 
	C977.026245,656.036255 958.822510,647.391541 942.790344,634.858765 
	C927.271057,622.726990 914.207153,608.250305 904.723389,590.339966 
M1136.066772,560.640503 
	C1136.381836,560.254517 1136.756470,559.903076 1137.003296,559.477539 
	C1147.575195,541.250427 1150.049561,521.057556 1150.751709,500.582489 
	C1151.002808,493.259766 1149.575806,485.885834 1149.014893,478.527649 
	C1147.801758,462.618744 1142.630981,447.883881 1134.511353,434.390564 
	C1130.078125,427.023041 1124.451050,420.121979 1118.290283,414.109039 
	C1110.468262,406.474945 1100.926636,401.104950 1090.714478,396.846771 
	C1078.129150,391.599030 1064.869751,389.681152 1051.579712,389.313416 
	C1042.761230,389.069427 1033.667480,390.912750 1025.040649,393.148560 
	C1003.497803,398.731812 985.690063,410.076355 972.969971,428.872345 
	C961.622131,445.640686 955.466919,464.284363 954.216125,484.174072 
	C952.841675,506.031952 953.709106,527.848145 961.938477,548.777893 
	C968.253784,564.839417 978.190674,578.410278 991.615845,588.581665 
	C1014.032166,605.565186 1039.946167,611.107971 1067.745361,606.972900 
	C1097.594116,602.532837 1120.861572,588.023254 1136.066772,560.640503 
z"/>
<path fill="#5CFE4F" opacity="1.000000" stroke="none" 
	d="
M1350.709595,381.950104 
	C1349.748901,384.346741 1348.383423,386.650970 1347.018066,388.955200 
	C1346.589600,388.862976 1346.161133,388.770752 1345.732666,388.678497 
	C1345.488403,387.208313 1345.037598,385.738922 1345.031982,384.267822 
	C1344.978638,370.102905 1344.999390,355.937714 1345.001343,341.772614 
	C1345.001465,340.939545 1344.757446,339.984924 1345.075684,339.293335 
	C1346.999878,335.111633 1344.411255,334.979156 1341.420776,334.988403 
	C1331.421875,335.019318 1321.422974,335.003082 1311.424072,334.999176 
	C1299.925415,334.994659 1288.426758,334.984009 1276.464233,334.904663 
	C1278.260254,333.555634 1280.504272,331.202576 1282.782471,331.168854 
	C1302.561035,330.876343 1322.345581,330.975403 1342.128418,331.017792 
	C1347.046753,331.028320 1348.968140,333.014618 1348.985107,338.024078 
	C1349.029297,350.990784 1348.953735,363.958130 1349.057617,376.924164 
	C1349.070801,378.571930 1349.869995,380.213348 1350.709595,381.950104 
z"/>
<path fill="#5CFE4F" opacity="1.000000" stroke="none" 
	d="
M1406.822021,336.821411 
	C1401.823242,339.782379 1396.600586,342.454315 1391.098145,345.293640 
	C1390.742188,344.700073 1390.411133,343.358337 1390.627808,343.263092 
	C1395.915771,340.939087 1401.262207,338.747681 1406.822021,336.821411 
z"/>
<path fill="#5CFE4F" opacity="1.000000" stroke="none" 
	d="
M1423.074707,331.492249 
	C1420.354858,332.799164 1417.541626,333.768097 1414.363770,334.785217 
	C1415.389038,329.690460 1419.723145,331.735901 1423.074707,331.492249 
z"/>
<path fill="#5CFE4F" opacity="1.000000" stroke="none" 
	d="
M685.449829,424.207214 
	C684.401917,422.814178 683.692261,421.273804 682.933838,419.387634 
	C687.026062,418.878601 686.171021,421.605774 685.449829,424.207214 
z"/>
<path fill="#5CFE4F" opacity="1.000000" stroke="none" 
	d="
M1390.038452,345.561890 
	C1389.074829,346.586334 1387.700928,347.370422 1386.067261,348.314697 
	C1383.987915,343.676178 1387.434448,345.257721 1390.038452,345.561890 
z"/>
<path fill="#5CFE4F" opacity="1.000000" stroke="none" 
	d="
M1377.689697,354.042694 
	C1376.943848,354.989929 1375.796509,355.920502 1374.345947,356.982605 
	C1375.124512,356.084778 1376.206299,355.055389 1377.689697,354.042694 
z"/>
<path fill="#5CFE4F" opacity="1.000000" stroke="none" 
	d="
M1369.711426,361.031311 
	C1368.959839,361.978058 1367.805420,362.913727 1366.346924,363.981750 
	C1367.131348,363.082825 1368.219849,362.051544 1369.711426,361.031311 
z"/>
<path fill="#5CFE4F" opacity="1.000000" stroke="none" 
	d="
M1381.691162,351.042664 
	C1380.949341,351.984985 1379.807251,352.910583 1378.362305,353.963654 
	C1379.136597,353.069397 1380.213745,352.047699 1381.691162,351.042664 
z"/>
<path fill="#5CFE4F" opacity="1.000000" stroke="none" 
	d="
M1411.847900,334.836884 
	C1411.238770,335.681641 1410.432007,336.252533 1409.312134,336.828430 
	C1409.882812,336.076599 1410.766479,335.319794 1411.847900,334.836884 
z"/>
<path fill="#5CFE4F" opacity="1.000000" stroke="none" 
	d="
M1385.089966,348.580872 
	C1384.511719,349.493317 1383.574951,350.175049 1382.348755,350.973938 
	C1382.950073,350.177460 1383.840698,349.263794 1385.089966,348.580872 
z"/>
<path fill="#FFFFFF" opacity="1.000000" stroke="none" 
	d="
M624.528320,513.087769 
	C625.994263,524.771667 626.995850,536.379456 627.994995,548.411743 
	C624.599548,548.411072 623.041504,550.108459 622.260010,553.282654 
	C619.172363,565.824768 612.337585,576.430664 603.655273,585.605652 
	C595.365356,594.366028 584.988586,600.539124 573.734436,604.949097 
	C562.037292,609.532654 549.885437,611.545471 537.264404,612.172607 
	C518.782776,613.090942 501.237396,609.949829 484.787018,601.862488 
	C469.152649,594.176270 456.823425,582.521912 449.063232,566.754089 
	C442.769409,553.965820 438.764465,540.407104 437.967712,526.028564 
	C437.735199,521.833130 437.115845,517.659180 436.624847,513.011719 
	C499.595184,513.011719 561.829590,513.011719 624.528320,513.087769 
z"/>
<path fill="#FFFFFF" opacity="1.000000" stroke="none" 
	d="
M548.163757,385.975616 
	C560.530029,387.000549 571.687195,390.747314 581.911621,396.636047 
	C588.737610,400.567444 595.290771,405.338257 601.014465,410.741425 
	C612.674622,421.748749 619.764404,435.677704 623.961060,451.063965 
	C625.178528,455.527954 625.920776,460.121552 626.920471,464.842499 
	C563.627625,464.842499 500.515839,464.842499 437.031921,464.842499 
	C439.555817,448.942383 444.789429,434.406982 454.106903,421.333435 
	C467.699585,402.261230 486.410065,391.170776 509.039307,387.234924 
	C520.625732,385.219666 532.638977,385.637543 544.463989,385.049835 
	C545.527222,384.996979 546.624817,385.636627 548.163757,385.975616 
z"/>
<path fill="#5CFE4F" opacity="1.000000" stroke="none" 
	d="
M1136.001465,561.008057 
	C1120.861572,588.023254 1097.594116,602.532837 1067.745361,606.972900 
	C1039.946167,611.107971 1014.032166,605.565186 991.615845,588.581665 
	C978.190674,578.410278 968.253784,564.839417 961.938477,548.777893 
	C953.709106,527.848145 952.841675,506.031952 954.216125,484.174072 
	C955.466919,464.284363 961.622131,445.640686 972.969971,428.872345 
	C985.690063,410.076355 1003.497803,398.731812 1025.040649,393.148560 
	C1033.667480,390.912750 1042.761230,389.069427 1051.579712,389.313416 
	C1064.869751,389.681152 1078.129150,391.599030 1090.714478,396.846771 
	C1100.926636,401.104950 1110.468262,406.474945 1118.290283,414.109039 
	C1124.451050,420.121979 1130.078125,427.023041 1134.511353,434.390564 
	C1142.630981,447.883881 1147.801758,462.618744 1149.014893,478.527649 
	C1149.575806,485.885834 1151.002808,493.259766 1150.751709,500.582489 
	C1150.049561,521.057556 1147.575195,541.250427 1137.003296,559.477539 
	C1136.756470,559.903076 1136.381836,560.254517 1136.001465,561.008057 
z"/>
</svg>