<svg width="314" height="60" viewBox="0 0 314 131" fill="none" xmlns="http://www.w3.org/2000/svg">
<g clip-path="url(#clip0_1527_1445)">
<path fill-rule="evenodd" clip-rule="evenodd" d="M51.0777 0.0981659C49.5895 0.265191 46.963 0.844866 45.4911 1.33284C43.1787 2.09592 40.0452 3.80219 37.7851 5.52812C36.444 6.54992 33.9222 9.06512 32.6433 10.6535C26.831 17.8585 23.0434 28.404 21.6958 41.1372C21.5715 42.326 21.4538 43.3511 21.4342 43.4231C21.4113 43.4919 20.5281 43.7244 19.4651 43.9406C9.92083 45.8728 3.68662 51.5058 2.29978 59.4477C1.84841 62.0284 2.06428 66.0501 2.8133 68.978C3.50999 71.7093 5.20755 75.6884 6.87895 78.4984C7.24855 79.1206 7.54947 79.6774 7.54947 79.7429C7.54947 79.8084 7.12426 80.3651 6.60093 80.9874C3.69643 84.4622 1.35451 89.0341 0.523721 92.8724C-1.76586 103.454 3.50999 113.374 15.2065 120.471C24.6265 126.189 37.0262 129.654 52.2192 130.82C55.8335 131.098 65.767 131.049 69.7444 130.738C71.0869 130.639 72.428 130.522 73.7675 130.387L74.5558 130.289L73.0021 129.962C65.4509 128.353 58.4537 124.788 52.7103 119.622C46.9669 114.457 42.6786 107.872 40.2742 100.526C39.5172 98.1044 38.9432 95.6291 38.557 93.1213C38.2626 91.1726 38.2201 90.3866 38.2233 86.866C38.2299 83.4993 38.2822 82.5234 38.5341 80.899C39.8162 72.682 42.8679 65.6309 47.833 59.4019C49.3507 57.4958 52.6281 54.2306 54.5906 52.6652C64.1251 45.0574 76.5019 41.671 88.2998 43.4461C96.8724 44.7016 104.885 48.4596 111.336 54.2503C112.834 55.5832 112.841 55.5275 111.389 53.5036C110.918 52.842 109.923 51.0277 109.066 49.2592C102.561 35.835 94.7139 24.5591 85.7943 15.8214C76.7341 6.94292 67.9323 1.88959 58.8263 0.350341C56.8965 0.0228409 52.8865 -0.108159 51.0777 0.0948909V0.0981659ZM57.6979 4.69299C65.4956 5.48554 73.6465 9.44829 82.2455 16.6336C84.4926 18.5102 89.1829 23.1116 91.5445 25.7512C96.696 31.5152 101.942 38.825 106.149 46.0988L107.568 48.542C107.765 48.8793 107.261 48.4634 106.06 47.3106C99.1295 40.6361 90.802 36.2509 81.6665 34.466C76.5019 33.454 70.3495 33.3198 65.0082 34.1025C57.2236 35.2422 49.2788 38.6318 42.8254 43.5738L41.5465 44.5563L39.4499 44.1764C36.4734 43.6393 34.4782 43.3937 31.456 43.2004L28.8164 43.0269L28.8818 42.2278L29.101 39.4833C30.5369 21.6018 37.7033 9.15682 48.5886 5.63947C51.5223 4.67428 54.6288 4.3515 57.6979 4.69299ZM36.9673 46.1054C38.1285 46.1872 39.1653 46.2855 39.2766 46.3248C39.4041 46.3674 38.8154 47.0682 37.6215 48.2931C36.6043 49.3411 35.2273 50.877 34.56 51.7056C33.2157 53.389 31.0046 56.6738 30.1215 58.3113C29.6145 59.2479 29.5327 59.3364 29.4641 59.0318C29.2416 58.0558 28.9244 53.3562 28.8491 49.9568L28.7641 46.125L29.1828 46.0595C30.0397 45.9318 34.9362 45.9613 36.9673 46.1054ZM21.1496 52.1707C21.1594 57.3321 21.2935 60.0438 21.7809 64.9333L22.1014 68.1494C22.121 68.3524 21.6762 68.6963 20.3352 69.5216C17.8755 71.0281 16.5475 71.932 14.4542 73.5302C12.4067 75.0957 12.7632 75.1448 11.5006 73.111C7.71955 67.0195 6.67616 61.3472 8.4882 56.7229C10.0222 52.8027 13.872 49.6718 19.4226 47.8247L21.1332 47.2516C21.1365 47.2516 21.1463 49.4622 21.1496 52.1707ZM79.7956 60.2042C73.4044 60.8461 67.4221 63.8166 63.5658 68.2673C59.3398 73.147 57.0961 79.4678 57.1059 86.4599C57.1255 98.7084 65.489 109.126 77.3556 111.684C78.6901 111.972 79.2854 112.011 82.4581 112.015C85.3266 112.021 86.3177 111.972 87.4101 111.766C91.5837 110.98 96.2708 108.615 99.1688 105.841C100.356 104.705 101.782 103.038 101.769 102.799C101.769 102.733 100.265 101.554 98.4328 100.185L95.0966 97.6964L94.7368 98.1713C91.5968 102.311 88.2704 104.158 83.4622 104.43C80.5431 104.58 77.6319 104.007 74.9875 102.76C70.199 100.418 67.0852 96.1441 65.9142 90.2917C65.525 88.3594 65.561 84.1969 65.9796 82.2352C66.3296 80.6173 67.131 78.2036 67.6903 77.0901C68.8056 74.8697 70.827 72.42 72.7535 70.9528C74.0619 69.9572 76.5804 68.7454 78.2911 68.2869C79.5928 67.9365 79.9755 67.9005 82.3829 67.8907C84.6986 67.8808 85.1892 67.9201 86.1901 68.1952C89.4053 69.0795 91.9795 70.7563 93.8373 73.1765L94.1513 73.5859L97.3927 71.1067C98.5193 70.2636 99.6263 69.3944 100.713 68.4998C100.824 68.323 99.4959 66.6986 98.3969 65.6702C97.0381 64.3955 95.4886 63.3413 93.8046 62.5459C89.5918 60.5055 84.7935 59.7032 79.7956 60.2042ZM223.078 60.2042C213.782 61.1802 206.253 66.597 202.54 74.9745C200.987 78.482 200.313 81.852 200.313 86.0931C200.313 95.0208 203.96 102.527 210.616 107.302C214.018 109.739 218.145 111.32 222.577 111.887C225.148 112.215 230.221 112.113 233.031 111.681C237.456 110.999 241.852 109.617 244.659 108.026L245.702 107.436V82.4742H227.029V90.0919L232.308 90.1279L237.587 90.1672L237.623 96.226L237.659 102.288L236.619 102.72C233.211 104.129 227.68 104.806 224.013 104.269C216.124 103.11 210.322 97.251 208.98 89.0897C208.686 87.2983 208.791 83.6794 209.19 81.8258C210.171 77.2834 212.431 73.6219 215.83 71.0838C218.858 68.824 222.067 67.8088 226.149 67.8088C231.167 67.8088 235.082 69.2367 238.425 72.2792L239.406 73.1732L239.949 72.6099C241.633 70.8676 244.986 67.2062 244.986 67.1047C244.986 67.0392 244.482 66.5053 243.87 65.9191C241.143 63.3122 237.051 61.3145 233.028 60.6234C229.865 60.0831 225.832 59.916 223.078 60.2042ZM107.807 86.1422V110.944H141.562V103.179H115.853L115.889 96.3144L115.925 89.4467L127.308 89.414L138.694 89.3747V81.757L127.311 81.721L115.929 81.6817V69.0369L128.171 69.0009L140.417 68.9616V61.3407H107.807V86.1455V86.1422ZM149.32 86.139V110.944H157.363L157.396 92.0536L157.435 73.1601L170.211 92.0536L182.987 110.944H192.41V61.3407H184.367L184.335 80.185L184.295 99.0294L171.709 80.221L159.12 61.4127L154.22 61.3734L149.32 61.3374V86.139ZM256.044 86.139V110.944H264.087L264.12 92.0274L264.159 73.1143L276.942 92.0274L289.728 110.941L294.503 110.944L299.278 110.947V61.3407H291.091L291.059 80.1555L291.02 98.9737L278.446 80.1916L265.87 61.4127L260.957 61.3734L256.044 61.3374V86.139ZM22.7654 72.7344C22.857 73.3894 23.1644 75.1186 23.4424 76.5825C23.9069 79.0126 23.956 79.5038 23.992 82.2614C24.0148 83.9218 24.0835 85.5953 24.1391 85.9785C24.2373 86.6335 24.2274 86.6662 23.9756 86.5254C22.5233 85.7067 15.2817 78.708 14.9088 77.7615C14.8369 77.5781 15.6219 76.8085 17.4568 75.266C19.0792 73.9003 22.2649 71.5488 22.4906 71.5488C22.5462 71.5488 22.6705 72.0827 22.7654 72.7344ZM11.6053 85.2449C15.4256 89.974 20.2109 94.5459 25.5718 98.5741L27.4427 99.9824L28.1197 101.548C31.0308 108.239 36.2314 115.018 41.9456 119.551L44.2449 121.378L44.6767 121.725L44.101 121.66C43.216 121.559 42.3307 121.461 41.4451 121.365C35.3025 120.703 28.3847 119.043 23.1285 116.976C20.7506 116.036 16.9629 114.094 15.1607 112.892C5.15849 106.202 2.33249 97.2052 7.18641 87.5079C8.00412 85.8704 9.69187 83.198 9.90447 83.198C9.93064 83.198 10.696 84.1183 11.6053 85.2449Z" fill="#6C7993"/>
<path d="M80.4815 79.4644C80.6647 79.4644 81.0049 78.9601 81.6558 77.7189L82.5716 75.9766L83.4972 77.7189C84.5341 79.6773 84.593 79.7166 85.656 79.0911C86.0027 78.8848 86.3036 78.7407 86.3232 78.7669C86.3461 78.7931 86.1433 80.0343 85.8751 81.5211C85.4924 83.6368 85.4237 84.2721 85.5546 84.4359C85.6527 84.5472 85.7835 84.6389 85.849 84.6389C85.9144 84.6389 86.5031 84.0167 87.1508 83.2536L88.3348 81.8683L88.567 82.5724C88.8549 83.4272 89.0249 83.4698 90.6865 83.0833C91.3341 82.9327 91.864 82.8475 91.864 82.8966C91.864 82.9458 91.6776 83.7088 91.4519 84.5898C91.2262 85.4741 91.0823 86.2568 91.1314 86.3321C91.1804 86.4074 91.4683 86.5941 91.7724 86.748L92.3219 87.0297L89.9768 89.0111C88.6848 90.1016 87.5727 91.1169 87.5007 91.2675C87.3863 91.5099 87.4942 92.1289 87.7886 92.8952C87.8376 93.0229 87.2587 92.9935 85.5513 92.7937C84.2822 92.643 83.144 92.5579 83.0164 92.607C82.8136 92.6856 82.794 93.0164 82.8365 95.3187L82.8889 97.9387L82.5454 97.9878L82.1987 98.037L82.2968 95.3613C82.3786 93.0033 82.3623 92.6758 82.166 92.5972C82.0417 92.5481 80.9427 92.6299 79.7227 92.7708C78.5059 92.9149 77.4756 93 77.4331 92.9574C77.3939 92.9181 77.4527 92.5743 77.5639 92.1976C77.6784 91.821 77.734 91.4215 77.6915 91.3068C77.649 91.1922 76.5205 90.1671 75.186 89.0307L72.7656 86.9642L73.2562 86.8004C74.1132 86.5155 74.1361 86.4042 73.6945 84.6357C73.4787 83.7612 73.3413 83.008 73.3904 82.9589C73.4394 82.9097 73.966 82.9752 74.5613 83.1062C76.2425 83.4763 76.3112 83.4599 76.5434 82.6608C76.6546 82.2875 76.8018 82.0091 76.8705 82.0484C76.9425 82.0844 77.4462 82.6379 77.9891 83.27C79.0424 84.4981 79.2877 84.7077 79.5166 84.5669C79.739 84.4293 79.69 83.8431 79.2288 81.2853C78.99 79.9721 78.797 78.8618 78.797 78.8193C78.797 78.7734 79.1176 78.9011 79.5101 79.1009C79.9026 79.2974 80.3376 79.4644 80.4815 79.4644Z" fill="#6C7993"/>
<g clip-path="url(#clip1_1527_1445)">
<path fill-rule="evenodd" clip-rule="evenodd" d="M51.0777 0.0981659C49.5895 0.265191 46.963 0.844866 45.4911 1.33284C43.1787 2.09592 40.0452 3.80219 37.7851 5.52812C36.444 6.54992 33.9222 9.06512 32.6433 10.6535C26.831 17.8585 23.0434 28.404 21.6958 41.1372C21.5715 42.326 21.4538 43.3511 21.4342 43.4231C21.4113 43.4919 20.5281 43.7244 19.4651 43.9406C9.92083 45.8728 3.68662 51.5058 2.29978 59.4477C1.84841 62.0284 2.06428 66.0501 2.8133 68.978C3.50999 71.7093 5.20755 75.6884 6.87895 78.4984C7.24855 79.1206 7.54947 79.6774 7.54947 79.7429C7.54947 79.8084 7.12426 80.3651 6.60093 80.9874C3.69643 84.4622 1.35451 89.0341 0.523721 92.8724C-1.76586 103.454 3.50999 113.374 15.2065 120.471C24.6265 126.189 37.0262 129.654 52.2192 130.82C55.8335 131.098 65.767 131.049 69.7444 130.738C71.0869 130.639 72.428 130.522 73.7675 130.387L74.5558 130.289L73.0021 129.962C65.4509 128.353 58.4537 124.788 52.7103 119.622C46.9669 114.457 42.6786 107.872 40.2742 100.526C39.5172 98.1044 38.9432 95.6291 38.557 93.1213C38.2626 91.1726 38.2201 90.3866 38.2233 86.866C38.2299 83.4993 38.2822 82.5234 38.5341 80.899C39.8162 72.682 42.8679 65.6309 47.833 59.4019C49.3507 57.4958 52.6281 54.2306 54.5906 52.6652C64.1251 45.0574 76.5019 41.671 88.2998 43.4461C96.8725 44.7016 104.885 48.4596 111.336 54.2503C112.834 55.5832 112.841 55.5275 111.389 53.5036C110.918 52.842 109.923 51.0277 109.066 49.2592C102.561 35.835 94.7139 24.5591 85.7943 15.8214C76.7341 6.94291 67.9323 1.88959 58.8263 0.350341C56.8965 0.0228409 52.8865 -0.108159 51.0777 0.0948909V0.0981659ZM57.6979 4.69299C65.4956 5.48554 73.6465 9.44829 82.2455 16.6336C84.4926 18.5102 89.1829 23.1116 91.5445 25.7512C96.696 31.5152 101.942 38.825 106.149 46.0988L107.568 48.542C107.765 48.8793 107.261 48.4634 106.06 47.3106C99.1295 40.6361 90.802 36.2509 81.6665 34.466C76.5019 33.454 70.3495 33.3198 65.0082 34.1025C57.2236 35.2422 49.2788 38.6318 42.8254 43.5738L41.5465 44.5563L39.4499 44.1764C36.4734 43.6393 34.4782 43.3937 31.456 43.2004L28.8164 43.0269L28.8818 42.2278L29.101 39.4833C30.5369 21.6018 37.7033 9.15682 48.5886 5.63947C51.5223 4.67428 54.6288 4.3515 57.6979 4.69299ZM36.9673 46.1054C38.1285 46.1872 39.1653 46.2855 39.2766 46.3248C39.4041 46.3674 38.8154 47.0682 37.6215 48.2931C36.6043 49.3411 35.2273 50.877 34.56 51.7056C33.2157 53.389 31.0046 56.6738 30.1215 58.3113C29.6145 59.2479 29.5327 59.3364 29.4641 59.0318C29.2416 58.0558 28.9244 53.3562 28.8491 49.9568L28.7641 46.125L29.1828 46.0595C30.0397 45.9318 34.9362 45.9613 36.9673 46.1054ZM21.1496 52.1707C21.1594 57.3321 21.2935 60.0438 21.7809 64.9333L22.1014 68.1494C22.121 68.3524 21.6762 68.6963 20.3352 69.5216C17.8755 71.0281 16.5475 71.932 14.4542 73.5302C12.4067 75.0957 12.7632 75.1448 11.5006 73.111C7.71955 67.0195 6.67616 61.3472 8.4882 56.7229C10.0222 52.8027 13.872 49.6718 19.4226 47.8247L21.1332 47.2516C21.1365 47.2516 21.1463 49.4622 21.1496 52.1707ZM79.7956 60.2042C73.4044 60.8461 67.4221 63.8166 63.5658 68.2673C59.3398 73.147 57.0961 79.4678 57.1059 86.4599C57.1255 98.7084 65.489 109.126 77.3556 111.684C78.6901 111.972 79.2854 112.011 82.4581 112.015C85.3266 112.021 86.3177 111.972 87.4101 111.766C91.5837 110.98 96.2708 108.615 99.1688 105.841C100.356 104.705 101.782 103.038 101.769 102.799C101.769 102.733 100.265 101.554 98.4328 100.185L95.0966 97.6964L94.7368 98.1713C91.5968 102.311 88.2704 104.158 83.4622 104.43C80.5431 104.58 77.6319 104.007 74.9875 102.76C70.199 100.418 67.0852 96.1441 65.9142 90.2917C65.525 88.3594 65.561 84.1969 65.9796 82.2352C66.3296 80.6173 67.131 78.2036 67.6903 77.0901C68.8056 74.8697 70.827 72.42 72.7535 70.9528C74.0619 69.9572 76.5804 68.7454 78.2911 68.2869C79.5928 67.9365 79.9755 67.9005 82.3829 67.8907C84.6986 67.8808 85.1892 67.9201 86.1901 68.1952C89.4053 69.0795 91.9795 70.7563 93.8373 73.1765L94.1513 73.5859L97.3927 71.1067C98.5193 70.2636 99.6263 69.3944 100.713 68.4998C100.824 68.323 99.4959 66.6986 98.3969 65.6702C97.0381 64.3955 95.4886 63.3413 93.8046 62.5459C89.5918 60.5055 84.7935 59.7032 79.7956 60.2042ZM223.078 60.2042C213.782 61.1802 206.253 66.597 202.54 74.9745C200.987 78.482 200.313 81.852 200.313 86.0931C200.313 95.0208 203.96 102.527 210.616 107.302C214.018 109.739 218.145 111.32 222.577 111.887C225.148 112.215 230.221 112.113 233.031 111.681C237.456 110.999 241.852 109.617 244.659 108.026L245.702 107.436V82.4742H227.029V90.0919L232.308 90.1279L237.587 90.1672L237.623 96.226L237.659 102.288L236.619 102.72C233.211 104.129 227.68 104.806 224.013 104.269C216.124 103.11 210.322 97.251 208.98 89.0897C208.686 87.2983 208.791 83.6794 209.19 81.8258C210.171 77.2834 212.431 73.6219 215.83 71.0838C218.858 68.824 222.067 67.8088 226.149 67.8088C231.167 67.8088 235.082 69.2367 238.425 72.2792L239.406 73.1732L239.949 72.6099C241.633 70.8676 244.986 67.2062 244.986 67.1047C244.986 67.0392 244.482 66.5053 243.87 65.9191C241.143 63.3122 237.051 61.3145 233.028 60.6234C229.865 60.0831 225.832 59.916 223.078 60.2042ZM107.807 86.1422V110.944H141.562V103.179H115.853L115.889 96.3144L115.925 89.4467L127.308 89.414L138.694 89.3747V81.757L127.311 81.721L115.929 81.6817V69.0369L128.171 69.0009L140.417 68.9616V61.3407H107.807V86.1455V86.1422ZM149.32 86.139V110.944H157.363L157.396 92.0536L157.435 73.1601L170.211 92.0536L182.987 110.944H192.41V61.3407H184.367L184.335 80.185L184.295 99.0294L171.709 80.221L159.12 61.4127L154.22 61.3734L149.32 61.3374V86.139ZM256.044 86.139V110.944H264.087L264.12 92.0274L264.159 73.1143L276.942 92.0274L289.728 110.941L294.503 110.944L299.278 110.947V61.3407H291.091L291.059 80.1555L291.02 98.9737L278.446 80.1916L265.87 61.4127L260.957 61.3734L256.044 61.3374V86.139ZM22.7654 72.7344C22.857 73.3894 23.1644 75.1186 23.4424 76.5825C23.9069 79.0126 23.956 79.5038 23.992 82.2614C24.0148 83.9218 24.0835 85.5953 24.1391 85.9785C24.2373 86.6335 24.2274 86.6662 23.9756 86.5254C22.5233 85.7067 15.2817 78.708 14.9088 77.7615C14.8369 77.5781 15.6219 76.8085 17.4568 75.266C19.0792 73.9003 22.2649 71.5488 22.4906 71.5488C22.5462 71.5488 22.6705 72.0827 22.7654 72.7344ZM11.6053 85.2449C15.4256 89.974 20.2109 94.5459 25.5718 98.5741L27.4427 99.9824L28.1197 101.548C31.0308 108.239 36.2314 115.018 41.9456 119.551L44.2449 121.378L44.6767 121.725L44.101 121.66C43.216 121.559 42.3307 121.461 41.4451 121.365C35.3025 120.703 28.3847 119.043 23.1285 116.976C20.7506 116.036 16.9629 114.094 15.1607 112.892C5.15849 106.202 2.33249 97.2052 7.18641 87.5079C8.00412 85.8704 9.69187 83.198 9.90447 83.198C9.93064 83.198 10.696 84.1183 11.6053 85.2449Z" fill="#6C7993"/>
<path d="M80.4815 79.4644C80.6647 79.4644 81.0049 78.9601 81.6558 77.7189L82.5716 75.9766L83.4972 77.7189C84.5341 79.6773 84.593 79.7166 85.656 79.0911C86.0027 78.8848 86.3036 78.7407 86.3232 78.7669C86.3461 78.7931 86.1433 80.0343 85.8751 81.5211C85.4924 83.6368 85.4237 84.2721 85.5546 84.4359C85.6527 84.5472 85.7835 84.6389 85.849 84.6389C85.9144 84.6389 86.5031 84.0167 87.1508 83.2536L88.3348 81.8683L88.567 82.5724C88.8549 83.4272 89.0249 83.4698 90.6865 83.0833C91.3341 82.9327 91.864 82.8475 91.864 82.8966C91.864 82.9458 91.6776 83.7088 91.4519 84.5898C91.2262 85.4741 91.0823 86.2568 91.1314 86.3321C91.1804 86.4074 91.4683 86.5941 91.7724 86.748L92.3219 87.0297L89.9768 89.0111C88.6848 90.1016 87.5727 91.1169 87.5007 91.2675C87.3863 91.5099 87.4942 92.1289 87.7886 92.8952C87.8376 93.0229 87.2587 92.9935 85.5513 92.7937C84.2822 92.643 83.144 92.5579 83.0164 92.607C82.8136 92.6856 82.794 93.0164 82.8365 95.3187L82.8889 97.9387L82.5454 97.9878L82.1987 98.037L82.2968 95.3613C82.3786 93.0033 82.3623 92.6758 82.166 92.5972C82.0417 92.5481 80.9427 92.6299 79.7227 92.7708C78.5059 92.9149 77.4756 93 77.4331 92.9574C77.3939 92.9181 77.4527 92.5743 77.5639 92.1976C77.6784 91.821 77.734 91.4215 77.6915 91.3068C77.649 91.1922 76.5205 90.1671 75.186 89.0307L72.7656 86.9642L73.2562 86.8004C74.1132 86.5155 74.1361 86.4042 73.6945 84.6357C73.4787 83.7612 73.3413 83.008 73.3904 82.9589C73.4394 82.9097 73.966 82.9752 74.5613 83.1062C76.2425 83.4763 76.3112 83.4599 76.5434 82.6608C76.6546 82.2875 76.8018 82.0091 76.8705 82.0484C76.9425 82.0844 77.4462 82.6379 77.9891 83.27C79.0424 84.4981 79.2877 84.7077 79.5166 84.5669C79.739 84.4293 79.69 83.8431 79.2288 81.2853C78.99 79.9721 78.797 78.8618 78.797 78.8193C78.797 78.7734 79.1176 78.9011 79.5101 79.1009C79.9026 79.2974 80.3376 79.4644 80.4815 79.4644Z" fill="#6C7993"/>
</g>
</g>
<defs>
<clipPath id="clip0_1527_1445">
<rect width="314" height="131" fill="white"/>
</clipPath>
<clipPath id="clip1_1527_1445">
<rect width="314" height="131" fill="white"/>
</clipPath>
</defs>
</svg>
