<svg width="121" height="50" viewBox="0 0 60 100" fill="none" xmlns="http://www.w3.org/2000/svg">
<g clip-path="url(#clip0_730_786)">
<path d="M46.581 23.1232H41.6174C40.7024 23.1232 40.1024 23.8396 40.1024 24.7381V62.2542C40.1024 63.1514 40.7024 63.8718 41.616 63.8718H46.5797C47.496 63.8718 48.1996 63.1514 48.1996 62.2542V24.7381C48.1996 23.841 47.496 23.1232 46.581 23.1232ZM31.0846 52.7494C30.6333 51.7462 29.3419 51.4703 28.5483 52.2233C26.3931 54.2891 23.5199 55.4435 20.5301 55.4451C12.396 55.4451 6.1901 47.0713 9.82147 38.355C10.8878 35.787 12.9143 33.7332 15.4724 32.628C20.436 30.5019 25.2633 31.7131 28.4678 34.6996C29.2683 35.4459 30.5542 35.1809 31.0042 34.1763L33.1546 29.3913C33.3203 29.0197 33.3556 28.6033 33.2549 28.2092C33.1542 27.8152 32.9234 27.4664 32.5996 27.219C27.5624 23.3557 20.6883 21.84 13.5224 24.3167C7.77465 26.3055 3.28965 31.0117 1.46238 36.8937C-2.90535 50.9591 7.32601 63.8909 20.5301 63.8909C25.1256 63.8909 29.3501 62.314 32.7306 59.6741C33.3687 59.1752 33.5692 58.2848 33.2351 57.5399L31.0833 52.7508L31.0846 52.7494ZM119.416 36.8937C117.588 31.0117 113.106 26.3055 107.354 24.3167C103.285 22.9098 99.3087 22.7929 95.7087 23.6602C89.7074 25.0209 85.3587 27.9096 81.5378 36.2371L73.8715 53.1178L60.8569 24.0816C60.5978 23.5011 60.0278 23.13 59.4019 23.1286L53.7156 23.1191C52.5497 23.1178 51.7724 24.3426 52.2565 25.4192L69.1356 62.8781C69.396 63.4572 69.966 63.8487 70.5919 63.8487L70.8687 63.8718H77.2519C77.3801 63.8718 77.5083 63.8446 77.631 63.8039C78.0701 63.6516 78.4397 63.3335 78.6319 62.8931C78.6319 62.8931 87.0824 43.3711 87.1819 43.1359C89.7524 36.9807 91.3137 34.4169 95.3951 32.6565C97.0174 31.947 98.7731 31.5915 100.545 31.6138C102.316 31.6361 104.062 32.0356 105.666 32.7856C108.123 33.9153 110.057 35.9802 111.084 38.5113C111.713 40.0432 112.063 41.6746 112.117 43.329C112.209 50.0048 106.906 55.4464 100.349 55.4464C97.3594 55.4449 94.4862 54.2904 92.331 52.2247C91.5374 51.4703 90.246 51.7476 89.7947 52.7508L87.6442 57.5399C87.3101 58.2848 87.5106 59.1752 88.1487 59.6741C91.6246 62.4056 95.9218 63.891 100.348 63.8909C113.553 63.8909 123.783 50.9605 119.416 36.8937Z" fill="#6C7993"/>
</g>
<defs>
<clipPath id="clip0_730_786">
<rect width="120" height="87" fill="white" transform="translate(0.439453)"/>
</clipPath>
</defs>
</svg>
