<svg width="301" height="66" viewBox="0 0 301 66" fill="none" xmlns="http://www.w3.org/2000/svg">
<g clip-path="url(#clip0_847_1589)">
<path d="M149.777 31.4066C149.174 31.1863 148.555 31.013 147.925 30.8884C146.355 30.5743 144.785 30.3387 143.215 29.9933C142.245 29.8013 141.302 29.4956 140.404 29.0825C140.062 28.9195 139.763 28.6766 139.534 28.3743C139.305 28.072 139.152 27.7191 139.087 27.3453C139.023 26.9715 139.049 26.5876 139.163 26.2259C139.277 25.8642 139.477 25.5352 139.745 25.2667C140.143 24.8254 140.637 24.4815 141.189 24.2617C142.976 23.5628 144.961 23.5628 146.747 24.2617C147.374 24.4712 147.928 24.8563 148.343 25.3713C148.757 25.8862 149.016 26.5094 149.087 27.1667C149.094 27.203 149.094 27.2404 149.087 27.2766C149.094 27.3226 149.116 27.3647 149.15 27.3962C149.185 27.4276 149.229 27.4463 149.275 27.4494L153.388 26.2088C153.555 26.161 153.696 26.0513 153.784 25.9023C153.871 25.7533 153.898 25.5764 153.859 25.408C153.508 23.7834 152.569 22.346 151.222 21.3723C149.559 20.1697 147.619 19.4067 145.583 19.1541C143.546 18.9016 141.479 19.1676 139.572 19.9276C137.787 20.5762 136.27 21.8035 135.263 23.4142C134.256 25.0248 133.816 26.9262 134.014 28.8155C134.214 30.0324 134.766 31.1636 135.604 32.0684C136.441 32.9731 137.527 33.6113 138.724 33.9033C140.624 34.4844 142.618 34.7827 144.565 35.2695C145.757 35.5067 146.92 35.8699 148.035 36.353C148.436 36.5471 148.781 36.8402 149.037 37.2048C149.294 37.5693 149.453 37.9931 149.5 38.4363C149.547 38.8795 149.481 39.3273 149.307 39.7376C149.133 40.148 148.857 40.5071 148.506 40.7813C148.046 41.176 147.512 41.4749 146.936 41.6607C145.353 42.2277 143.631 42.2717 142.022 41.7863C141.249 41.6288 140.535 41.2588 139.961 40.7179C139.387 40.1769 138.975 39.4865 138.772 38.7242C138.772 38.6143 138.662 38.3944 138.662 38.3944C138.662 38.3486 138.643 38.3047 138.611 38.2723C138.579 38.2399 138.535 38.2217 138.489 38.2217L134.234 39.4936C134.064 39.5446 133.921 39.6605 133.836 39.8163C133.751 39.9721 133.73 40.1552 133.779 40.3259C134.038 41.3283 134.495 42.2686 135.123 43.0913C135.751 43.9139 136.538 44.6022 137.437 45.1153C139.297 46.1805 141.38 46.7962 143.519 46.9135C145.659 47.0307 147.797 46.6462 149.762 45.7906C150.991 45.3508 152.087 44.6031 152.944 43.6189C153.802 42.6346 154.393 41.4467 154.66 40.1689C155.085 38.3624 154.82 36.4624 153.916 34.8414C153.013 33.2205 151.537 31.9954 149.777 31.4066Z" fill="#6C7993"/>
<path d="M195.011 21.2148C192.919 19.6311 190.293 18.9227 187.689 19.2391C185.084 19.5556 182.705 20.8722 181.053 22.9108L180.409 23.7116C177.269 18.0428 169.027 17.4304 164.081 23.0207C163.751 21.8901 163.437 20.8066 163.155 19.7702H159.387V46.2141H164.772V45.2091C164.772 40.7809 164.772 36.3526 164.772 31.9243C164.688 30.6713 164.896 29.4158 165.381 28.2574C165.866 27.099 166.615 26.0695 167.567 25.2505C168.246 24.6472 169.076 24.2383 169.969 24.0668C170.861 23.8954 171.783 23.9678 172.638 24.2764C173.493 24.585 174.249 25.1183 174.826 25.8203C175.404 26.5223 175.781 27.367 175.919 28.2655C176.101 29.2548 176.191 30.2589 176.186 31.2648C176.186 35.8972 176.186 40.5296 176.186 45.162V46.1984H181.508C181.508 44.6281 181.508 43.0578 181.508 41.5817C181.508 37.8915 181.508 34.217 181.618 30.5896C181.661 28.823 182.373 27.1387 183.612 25.8787C184.317 25.0859 185.237 24.5153 186.26 24.2364C187.283 23.9576 188.365 23.9826 189.374 24.3083C190.28 24.5792 191.083 25.1164 191.68 25.8502C192.276 26.584 192.638 27.4803 192.718 28.4226C192.888 29.3551 192.972 30.3012 192.97 31.2491C192.97 35.96 192.97 40.5767 192.97 45.2248V46.2612H198.323C198.334 46.1096 198.334 45.9574 198.323 45.8058C198.323 40.0271 198.323 34.2327 198.323 28.5325C198.354 27.1424 198.073 25.7632 197.5 24.4966C196.926 23.23 196.076 22.1085 195.011 21.2148Z" fill="#6C7993"/>
<path d="M117.137 19.0478C115.275 18.9795 113.419 19.2906 111.681 19.9624C109.943 20.6341 108.36 21.6524 107.028 22.9553C105.696 24.2582 104.643 25.8184 103.933 27.5412C103.223 29.2639 102.87 31.1132 102.897 32.9764C103.02 36.674 104.575 40.1792 107.233 42.7514C109.892 45.3237 113.446 46.7617 117.145 46.7617C120.844 46.7617 124.398 45.3237 127.057 42.7514C129.715 40.1792 131.27 36.674 131.393 32.9764C131.415 31.1131 131.059 29.2645 130.347 27.5427C129.634 25.8209 128.579 24.2617 127.246 22.9595C125.914 21.6573 124.33 20.6392 122.593 19.9668C120.855 19.2945 118.999 18.9818 117.137 19.0478ZM116.996 41.7231C115.845 41.7396 114.703 41.5197 113.64 41.0772C112.578 40.6346 111.617 39.9787 110.818 39.1501C110.019 38.3215 109.398 37.3377 108.995 36.2596C108.591 35.1815 108.412 34.032 108.471 32.8822C108.385 31.6855 108.549 30.4841 108.951 29.3539C109.354 28.2238 109.987 27.1895 110.809 26.3166C111.632 25.4437 112.627 24.7512 113.732 24.2828C114.836 23.8145 116.026 23.5806 117.225 23.5958C118.425 23.6111 119.608 23.8753 120.7 24.3715C121.792 24.8678 122.769 25.5855 123.57 26.479C124.37 27.3726 124.976 28.4226 125.35 29.5627C125.724 30.7027 125.857 31.9079 125.741 33.1021C125.777 34.2546 125.574 35.4021 125.145 36.4726C124.717 37.5431 124.072 38.5135 123.251 39.3229C122.43 40.1324 121.45 40.7634 120.374 41.1764C119.298 41.5894 118.147 41.7755 116.996 41.7231Z" fill="#6C7993"/>
<path d="M216.473 19.048C214.605 18.9686 212.741 19.2717 210.995 19.9387C209.248 20.6057 207.657 21.6225 206.317 22.9268C204.978 24.231 203.919 25.7952 203.206 27.5234C202.493 29.2516 202.14 31.1073 202.17 32.9766C202.275 36.6755 203.814 40.1885 206.461 42.7734C209.109 45.3582 212.657 46.8125 216.357 46.8288C220.057 46.8451 223.618 45.4222 226.288 42.8608C228.958 40.2994 230.528 36.8001 230.666 33.1023C230.705 31.2339 230.363 29.377 229.662 27.6448C228.961 25.9126 227.915 24.3412 226.587 23.0264C225.259 21.7116 223.678 20.6808 221.939 19.9969C220.2 19.3129 218.34 18.9901 216.473 19.048ZM216.394 41.7233C215.241 41.7564 214.093 41.5522 213.023 41.1231C211.952 40.6941 210.981 40.0494 210.169 39.2292C209.358 38.4089 208.724 37.4306 208.307 36.355C207.889 35.2794 207.698 34.1295 207.743 32.9766C207.641 31.7805 207.789 30.5763 208.176 29.4401C208.564 28.304 209.183 27.2608 209.995 26.3766C210.807 25.4924 211.793 24.7865 212.892 24.3036C213.991 23.8207 215.178 23.5713 216.378 23.5713C217.579 23.5713 218.766 23.8207 219.865 24.3036C220.963 24.7865 221.95 25.4924 222.762 26.3766C223.574 27.2608 224.193 28.304 224.581 29.4401C224.968 30.5763 225.116 31.7805 225.014 32.9766C225.066 34.1285 224.88 35.2789 224.467 36.3554C224.054 37.432 223.423 38.4117 222.614 39.2329C221.805 40.0541 220.834 40.6992 219.764 41.1278C218.694 41.5563 217.546 41.7591 216.394 41.7233Z" fill="#6C7993"/>
<path d="M255.865 22.8167C254.566 21.2389 252.83 20.0797 250.875 19.4847C248.919 18.8897 246.832 18.8852 244.875 19.472C242.467 20.0532 240.325 21.431 238.799 23.382C238.406 22.1101 238.061 20.9324 237.7 19.7546H233.963V46.2143H239.395V45.1308C239.395 40.5769 239.395 36.0387 239.395 31.4848C239.323 29.7085 239.912 27.9686 241.049 26.6022C242.186 25.2357 243.79 24.3401 245.55 24.0887C246.301 23.9181 247.08 23.9045 247.837 24.0486C248.595 24.1927 249.314 24.4914 249.95 24.9262C250.587 25.361 251.127 25.9224 251.537 26.5753C251.947 27.2283 252.217 27.9587 252.332 28.7211C252.518 29.7096 252.602 30.7146 252.583 31.7204C252.583 36.2271 252.583 40.7496 252.583 45.2721V46.1986H258.016C258.024 46.0993 258.024 45.9995 258.016 45.9002C258.016 40.3728 258.016 34.9081 258.016 29.3335C258.012 26.9873 257.259 24.7037 255.865 22.8167Z" fill="#6C7993"/>
<path d="M93.4929 37.3421C92.7407 38.8575 91.5102 40.0828 89.9917 40.8282C88.2296 41.7249 86.2081 41.9724 84.2817 41.5273C82.3554 41.0822 80.6473 39.973 79.4569 38.3942C78.2068 36.6603 77.5971 34.5462 77.7317 32.4127C77.8662 30.2792 78.7368 28.2586 80.1948 26.6954C81.1229 25.7835 82.2467 25.0953 83.4807 24.6831C84.7147 24.2709 86.0264 24.1456 87.3161 24.3167C88.6059 24.4878 89.8396 24.9508 90.9235 25.6705C92.0074 26.3901 92.913 27.3475 93.5714 28.4699C93.7284 28.7368 93.9953 29.1294 94.2308 29.1451C95.895 29.1451 97.5592 29.1451 99.2234 29.1451C98.9094 23.7904 92.5037 18.9538 85.9097 19.0009C82.3031 18.9715 78.8313 20.37 76.2518 22.8911C73.6722 25.4123 72.1943 28.8516 72.1405 32.4585C72.0369 34.2642 72.2937 36.0725 72.8958 37.7779C73.498 39.4834 74.4335 41.0519 75.6478 42.3922C76.8621 43.7324 78.331 44.8175 79.9688 45.5843C81.6066 46.351 83.3806 46.7841 85.1874 46.8582C88.3951 47.1815 91.6094 46.3113 94.216 44.4138C96.8227 42.5164 98.6389 39.7249 99.3176 36.5727C97.7476 36.5727 96.2561 36.5727 94.7646 36.5727C94.4961 36.5321 94.2219 36.5868 93.9896 36.7274C93.7573 36.868 93.5815 37.0855 93.4929 37.3421Z" fill="#6C7993"/>
<path d="M295.916 36.6039C295.668 36.5656 295.414 36.6132 295.197 36.7389C294.98 36.8646 294.813 37.0608 294.722 37.2948C293.985 38.8214 292.765 40.063 291.253 40.828C289.471 41.7496 287.418 42.0029 285.465 41.542C283.513 41.0812 281.79 39.9367 280.608 38.3155C279.397 36.5695 278.828 34.4581 278.997 32.34C279.165 30.2218 280.062 28.2274 281.534 26.6952C282.47 25.8023 283.595 25.1327 284.826 24.7366C286.058 24.3404 287.362 24.228 288.643 24.4078C289.924 24.5876 291.147 25.0548 292.222 25.7746C293.296 26.4943 294.194 27.4479 294.848 28.5639C295.005 28.8309 295.288 29.2077 295.523 29.2234C297.172 29.2234 298.836 29.2234 300.516 29.2234C299.837 26.1065 298.029 23.3508 295.441 21.4867C292.852 19.6226 289.666 18.7819 286.495 19.1264C284.697 19.1908 282.929 19.6116 281.295 20.3644C279.661 21.1173 278.192 22.1871 276.974 23.5119C275.756 24.8368 274.813 26.3903 274.2 28.0823C273.586 29.7744 273.315 31.5713 273.401 33.3691C273.426 36.9735 274.871 40.4228 277.422 42.9686C279.973 45.5144 283.425 46.9515 287.029 46.9679C293.608 47.1563 300.107 42.257 300.547 36.651C298.961 36.6196 297.438 36.6353 295.916 36.6039Z" fill="#6C7993"/>
<path d="M263.855 46.1984H269.241V19.7388H263.855V46.1984Z" fill="#6C7993"/>
<path d="M269.241 11.0708H263.871V16.4413H269.241V11.0708Z" fill="#6C7993"/>
<path d="M27.9283 50.8467C24.6156 41.9902 20.2666 37.6875 11.3646 34.3742C11.0818 34.2724 10.8374 34.0858 10.6646 33.8399C10.4918 33.594 10.3991 33.3007 10.3991 33.0002C10.3991 32.6996 10.4918 32.4064 10.6646 32.1605C10.8374 31.9146 11.0818 31.728 11.3646 31.6262C20.2666 28.3128 24.6156 23.9945 27.9283 15.1379C28.0268 14.8497 28.213 14.5995 28.4607 14.4224C28.7085 14.2452 29.0054 14.15 29.3099 14.15C29.6145 14.15 29.9114 14.2452 30.1591 14.4224C30.4069 14.5995 30.593 14.8497 30.6915 15.1379C33.3606 24.0887 36.4535 30.1658 56.7853 30.5584C56.9784 30.5604 57.17 30.5242 57.3489 30.4517C57.5279 30.3793 57.6907 30.272 57.828 30.1362C57.9652 30.0004 58.0742 29.8387 58.1485 29.6605C58.2229 29.4823 58.2612 29.2911 58.2612 29.098V19.1108C58.2594 18.1969 58.0195 17.2992 57.5653 16.5061C57.111 15.7131 56.458 15.0521 55.6706 14.5883L32.0104 0.722525C31.2135 0.252992 30.3055 0.00537109 29.3806 0.00537109C28.4557 0.00537109 27.5477 0.252992 26.7508 0.722525L3.09054 14.5883C2.30086 15.0535 1.64641 15.7169 1.19202 16.5129C0.737626 17.309 0.499078 18.2099 0.500006 19.1265V46.9053C0.498675 47.8198 0.737195 48.7188 1.19176 49.5123C1.64632 50.3059 2.30103 50.9663 3.09054 51.4277L26.7508 65.2935C27.5498 65.7568 28.457 66.0008 29.3806 66.0008C30.3041 66.0008 31.2113 65.7568 32.0104 65.2935L55.6706 51.4277C56.4601 50.9663 57.1148 50.3059 57.5694 49.5123C58.024 48.7188 58.2625 47.8198 58.2612 46.9053V36.8239C58.2612 36.6294 58.2224 36.4369 58.1471 36.2577C58.0718 36.0784 57.9614 35.916 57.8225 35.78C57.6835 35.6439 57.5188 35.537 57.338 35.4655C57.1573 35.394 56.964 35.3593 56.7696 35.3635C36.3593 35.7561 33.3606 41.8332 30.6915 50.7682C30.61 51.0672 30.4345 51.332 30.191 51.5236C29.9474 51.7152 29.6488 51.8234 29.339 51.8322C29.0293 51.841 28.725 51.75 28.4709 51.5725C28.2169 51.3951 28.0267 51.1406 27.9283 50.8467Z" fill="#6C7993"/>
<path d="M193.937 55.4692H197.414V58.9992H193.937V55.4692Z" fill="#6C7993"/>
</g>
<defs>
<clipPath id="clip0_847_1589">
<rect width="300" height="66" fill="white" transform="translate(0.5)"/>
</clipPath>
</defs>
</svg>
