<svg width="208" height="65" viewBox="0 0 208 65" fill="none" xmlns="http://www.w3.org/2000/svg">
<g clip-path="url(#clip0_1411_1417)">
<mask id="mask0_1411_1417" style="mask-type:luminance" maskUnits="userSpaceOnUse" x="0" y="0" width="208" height="65">
<path d="M0 0H208V65H0V0Z" fill="white"/>
</mask>
<g mask="url(#mask0_1411_1417)">
<path d="M56.4769 34.2436L58.0726 54.6585L29.8334 59.7382L27.3959 39.3234L31.4291 38.7595C32.0856 39.0422 32.5536 39.1365 33.3044 39.3234C34.5231 39.6061 35.932 39.9831 37.9958 38.8521C38.4654 38.571 39.4972 37.7244 39.8726 37.1605L56.4769 34.2436ZM12.8538 58.5162C12.3857 57.7622 11.5408 56.9156 10.2277 55.8821C8.35087 54.3757 9.009 51.7416 10.1335 50.1426C11.5408 47.4142 18.9524 43.8392 18.577 39.4176C18.3901 37.8186 18.2032 35.7484 16.7017 34.2436C16.6465 34.6174 16.6465 34.9992 16.7017 35.373C16.7017 35.373 16.0436 34.6206 15.7625 33.4912C15.4814 33.1143 15.2003 32.9274 14.9175 32.3619C14.7306 33.02 14.7306 33.6781 14.7306 33.6781C14.7306 33.6781 14.261 32.4561 14.1684 31.5169C13.8856 31.9865 13.793 32.8331 13.793 32.8331C13.793 32.8331 13.1365 30.9514 13.3234 29.9162C13.0423 29.0696 12.1046 27.2821 12.3858 23.3301C13.9799 24.4595 17.5451 24.1784 18.9524 22.1081C19.422 21.45 19.7031 19.5682 18.7655 15.899C18.1074 13.5476 16.5133 10.0652 15.8568 8.749L15.7625 8.84325C16.1379 9.87837 16.7944 12.1355 17.0755 13.2632C17.8263 16.5571 18.109 17.6865 17.7336 19.1912C17.4509 20.5075 16.7001 21.3557 14.7306 22.295C12.8537 23.2375 10.2277 20.8845 10.1335 20.7902C8.25825 19.2855 6.851 16.8399 6.6625 15.7105C6.47563 14.3942 7.41325 13.6419 7.88125 12.6067C7.3988 12.758 6.92884 12.9465 6.47563 13.1706C6.47563 13.1706 7.32063 12.2297 8.44512 11.4774C8.91475 11.1946 9.19588 11.0061 9.66387 10.6307H8.44512C8.44512 10.6307 9.57125 9.97262 10.79 9.59562H9.1L13.6029 7.62125C15.0101 7.05737 16.3248 7.24587 17.0739 8.281C18.1074 9.6915 19.1376 10.4439 21.2956 11.0094C22.6102 10.4439 23.0783 10.0669 24.7666 9.59725C26.2681 7.904 27.4885 7.7155 27.4885 7.7155C27.4885 7.7155 26.6435 8.46787 26.5492 9.3145C27.3942 8.65637 28.3319 8.0925 28.3319 8.0925C28.3319 8.0925 27.9581 8.56375 27.6754 9.22187L27.7696 9.3145C28.8015 8.75062 29.9276 8.281 29.9276 8.281C29.9276 8.281 29.5522 8.65637 29.1769 9.22187C29.9276 9.22187 31.4291 9.22187 31.9914 9.3145C35.4624 9.40875 36.2131 5.64687 37.5261 5.08137C39.2161 4.5175 39.9653 4.1405 42.7798 6.96312C45.2189 9.40875 47.0958 13.6419 46.1581 14.5844C45.4074 15.3367 43.8116 14.3016 42.0306 12.1371C41.0914 11.0094 40.4349 9.59725 40.0595 7.904C39.8726 6.4935 38.8408 5.64525 38.8408 5.64525C38.8408 5.64525 39.4972 7.05737 39.4972 8.281C39.4972 8.93913 39.5899 11.3847 40.6217 12.7952C40.5291 12.9837 40.4349 13.8304 40.3406 13.9246C39.1219 12.4199 36.4 11.3847 36.0262 11.0094C37.5261 12.2314 40.9045 14.9597 42.2175 17.5939C43.4362 20.1337 42.6871 22.3925 43.3436 22.9564C43.5305 23.1449 45.9696 26.1544 46.4392 27.7534C47.2842 30.4834 46.5335 33.3044 45.4074 34.9976L42.4044 35.4689C42.0128 35.4003 41.6337 35.2732 41.2799 35.0919C41.4668 34.7165 41.9364 33.7756 41.9364 33.5871L41.7479 33.3044C40.8102 34.6206 39.2145 35.9385 37.9015 36.6909C36.2131 37.6334 34.2436 37.5375 32.929 37.0679C29.2711 35.9385 25.8001 33.4929 25.0477 32.8347C25.0477 32.8347 25.0477 33.306 25.1436 33.4929C26.0812 34.528 28.145 36.4097 30.2087 37.726L25.8927 38.1972L27.9565 54.1889C27.0189 54.2831 26.9246 54.3774 25.8927 54.5659C25.0478 51.4621 23.361 49.4861 21.4841 48.2625C19.8884 47.2274 17.6378 46.9462 15.4797 47.4175L15.3855 47.6044C16.887 47.4159 18.668 47.6986 20.4523 48.828C22.2349 49.9557 23.6421 52.8726 24.206 54.5659C24.8609 56.8246 25.3305 59.176 23.5479 61.7159C22.2349 63.5034 18.4811 64.5385 15.4797 62.374C16.3248 63.6902 17.3566 64.7254 18.8565 64.9139C21.0145 65.1966 23.0783 64.8196 24.5798 63.4091C25.7985 62.1855 26.4566 59.5514 26.2698 56.7304L28.2393 56.4476L28.8958 61.4331L60.8871 57.577L58.0726 31.9881L56.4769 32.2692L53.287 0L0 6.20912L6.56662 59.4555L12.8538 58.5162Z" fill="#6C7993"/>
<path d="M38.1925 30.5274C39.5998 31.5609 40.8185 32.2044 42.0405 32.1264C42.7913 32.0321 43.542 30.8085 44.01 29.6807C44.3854 28.9284 44.3854 28.0817 43.8248 27.8169C43.5453 27.7242 42.4175 27.7242 41.5936 27.8169C40.0011 28.0037 38.4054 28.5709 38.03 28.852C37.4661 29.2274 37.7505 30.1682 38.2153 30.529L38.1925 30.5274ZM38.5874 19.5034V19.596L38.68 19.7829C39.0554 20.5352 39.4308 21.2892 40.1815 21.6467C40.3684 21.6467 40.5569 21.5541 40.7454 21.5541C41.1906 21.5395 41.6343 21.6029 42.0584 21.741V21.1771C41.9658 20.2346 42.2453 18.5446 40.3863 17.6021C39.6355 17.2251 38.7125 17.4152 38.342 17.789H38.5273C38.9953 17.9759 38.7141 18.166 38.6215 18.3529C38.5273 18.7299 38.4346 18.8241 38.6215 19.4822M30.1358 19.7081C30.6038 19.3311 27.9794 18.7656 25.9124 20.0851C24.4109 21.1186 24.4109 23.2831 25.8198 24.5051C26.0066 24.5977 26.0993 24.692 26.1951 24.7846C26.5705 24.5977 27.1344 24.4076 27.6024 24.2191C28.5416 23.9412 29.2761 23.7511 29.9489 23.6552C30.2268 23.2782 30.6038 22.7127 30.5111 21.6792C30.4185 20.2687 29.2924 20.5499 30.1374 19.7049L30.1358 19.7081ZM50.7765 46.1452L45.4303 42.5702L40.9274 50.0956L35.6721 48.4966L31.0766 55.5524L31.2619 57.7884L56.4055 53.1799L54.9024 37.4694L50.7765 46.1452ZM177.148 39.6989C172.855 39.6989 170.544 37.2159 170.544 32.414C170.544 27.6137 172.691 25.1291 177.148 25.1291C181.441 25.1291 183.586 27.6137 183.586 32.414C183.586 37.2159 181.441 39.6989 177.148 39.6989ZM177.148 21.819C170.214 21.819 166.582 25.2965 166.582 32.414C166.912 39.5331 170.544 43.009 177.148 43.009C184.082 43.009 187.55 39.5331 187.55 32.414C187.714 25.2965 184.248 21.819 177.148 21.819ZM201.898 25.1291C204.045 25.1291 206.026 25.4606 207.841 26.2877V22.8119C206.026 22.1489 204.045 21.819 201.733 21.819C194.139 21.819 190.341 25.2965 190.341 32.2482C190.341 39.5331 194.139 43.1747 201.568 43.1747C204.209 43.1747 206.19 42.8449 208.007 42.0161V30.9239H201.568L200.247 34.4014H204.045V39.3674C203.219 39.5331 202.394 39.6989 201.568 39.6989C196.78 39.6989 194.303 37.2159 194.303 32.0825C194.303 27.448 196.945 25.1291 201.898 25.1291ZM153.566 39.4551H148.943V25.2201H153.566C157.859 25.2201 160.17 27.37 160.17 31.8404C160.004 36.9737 157.859 39.4551 153.566 39.4551ZM154.062 21.9067H144.981V42.9342H154.062C160.666 42.9342 163.968 39.291 163.968 31.8404C163.968 25.2185 160.666 21.9067 154.062 21.9067ZM75.4765 39.4827H70.8534V25.2461H75.4765C79.9339 25.2461 82.0805 27.3976 82.0805 31.868C82.0805 36.9997 79.7698 39.4827 75.4765 39.4827ZM75.9721 21.9344H66.8916V42.9602H75.9721C82.5761 42.9602 85.8781 39.3186 85.8781 31.868C85.8781 25.2461 82.5761 21.9344 75.9721 21.9344ZM135.579 37.1395L138.219 42.9326H142.347L133.268 21.9067H128.975L120.06 42.9342H124.022L131.121 25.8815L134.423 33.8277H130.13L128.809 37.1395H135.579ZM101.403 37.1395L104.046 42.9326H108.337L99.091 21.9067H94.9635L86.0488 42.9342H90.0105L96.946 25.8815L100.412 33.8277H95.9564L94.6353 37.1395H101.403ZM106.027 25.2185H112.135V42.9326H116.097V25.2201H122.041V21.9051H106.027V25.2169V25.2185Z" fill="#6C7993"/>
</g>
</g>
<defs>
<clipPath id="clip0_1411_1417">
<rect width="208" height="65" fill="white"/>
</clipPath>
</defs>
</svg>
