<svg width="382" height="68" viewBox="0 0 382 68" fill="none" xmlns="http://www.w3.org/2000/svg">
<path d="M373.746 37.2956C372.7 35.5845 371.654 34.5315 370.478 33.8075C375.25 32.228 377.407 29.4639 377.407 24.5279C377.407 17.0911 372.962 13.5372 363.744 13.5372H349.754V50.7214H359.168V36.0452H360.345C362.437 36.0452 363.221 36.6375 364.855 39.4674L371.393 50.7214H381.657L373.746 37.2956ZM359.168 20.645H363.417C367.078 20.645 368.255 21.698 368.255 24.9886C368.255 28.2134 366.947 29.4639 363.417 29.4639H359.168V20.645ZM326.546 43.153V35.3871H339.032V28.2134H326.546V21.1057H342.366V13.5372H317.132V50.7214H343.086L343.739 43.153H326.546ZM297.912 31.0434C298.238 30.5827 311.64 13.5372 311.64 13.5372H301.899C301.899 13.5372 291.113 27.8186 289.936 29.3981V13.5372H280.522V50.7214H289.936V34.9264C291.178 36.5717 301.703 50.6556 301.703 50.6556H312.882C312.817 50.6556 298.238 31.5041 297.912 31.0434ZM264.636 13.4714V33.8075C263.394 32.1622 249.534 13.4714 249.534 13.4714H241.689V50.6556H249.6V28.1476C250.842 29.793 266.336 50.6556 266.336 50.6556H272.611V13.4714H264.636ZM218.35 43.153V35.3871H230.837V28.2134H218.35V21.1057H234.171V13.5372H208.936V50.7214H234.89L235.544 43.153H218.35ZM191.677 13.4714V27.8844H178.733V13.4714H169.319V50.6556H178.733V35.3212H191.677V50.6556H201.091V13.4714H191.677ZM162.52 42.2974C159.055 43.6136 156.767 44.0743 153.891 44.0743C147.811 44.0743 145.457 40.7837 145.457 32.228C145.457 23.3433 147.746 20.0527 153.956 20.0527C156.833 20.0527 159.317 20.5792 162.324 21.7638L162.847 21.9612V14.2611L162.586 14.1953C159.775 13.1423 156.963 12.6816 153.695 12.6816C148.661 12.6816 144.346 14.1295 141.208 16.8937C137.351 20.3159 135.52 25.2519 135.52 32.2938C135.52 38.2828 136.763 42.6264 139.378 45.7855C142.45 49.471 147.288 51.4454 153.368 51.4454C156.767 51.4454 160.036 50.7214 162.782 49.4052L162.978 49.3393V42.0999L162.52 42.2974ZM122.249 28.4109L121.661 28.1476C117.869 26.5023 117.739 26.4365 116.823 25.7784C115.581 24.9228 115.189 24.1989 115.189 23.0142C115.189 20.974 116.823 19.921 120.157 19.921C123.099 19.921 125.191 20.4475 128.591 21.9612L129.114 22.2245V14.4586L128.852 14.3928C125.583 13.2081 122.903 12.6816 119.765 12.6816C111.332 12.6816 106.559 16.8278 106.559 24.0014C106.559 29.3981 108.978 32.4913 115.124 35.058C121.661 37.8221 122.315 38.5461 122.315 40.5863C122.315 42.9555 120.353 44.1401 116.496 44.1401C113.162 44.1401 110.678 43.482 106.886 41.5734L106.363 41.3102V49.0761L106.559 49.2077C110.024 50.8531 113.097 51.5112 117.085 51.5112C126.303 51.5112 131.336 47.365 131.336 39.9281C131.336 34.1366 129.048 31.2408 122.249 28.4109Z" fill="#6C7993"/>
<path d="M29.2467 55.8621H13.5154V12.0064H29.2467C40.3434 12.0064 46.2834 19.1075 46.2834 33.7041C46.2834 46.4598 42.3669 55.7964 29.2467 55.8621ZM36.1005 34.6904C36.1005 25.8798 35.1867 18.9759 25.9176 18.9759H23.8288V48.761H27.4842C32.9673 48.761 36.1005 44.29 36.1005 34.6904ZM67.4977 55.8621H50.8526V12.0064H68.281C76.5057 12.0064 80.9444 15.4912 80.9444 23.6442C80.9444 27.918 77.4848 30.9426 73.6989 32.8494C78.9208 34.3616 82.511 37.6492 82.511 43.1065C82.511 52.1143 75.2002 55.8621 67.4977 55.8621ZM61.0355 29.4303H64.6256C68.0199 29.4303 70.4351 27.9181 70.4351 24.1703C70.4351 20.028 67.2366 18.9102 63.9076 18.9102H61.0355V29.4303ZM71.6101 42.975C71.6101 38.5039 68.8685 37.5177 64.7562 37.5177H60.9703V48.761H64.6256C68.3463 48.761 71.6101 47.5775 71.6101 42.975ZM84.9261 0.5H10.0558C4.89912 0.5 0.65625 4.6423 0.65625 10.0339V57.8346C0.65625 63.2262 4.89912 67.5 10.0558 67.5H84.8609C89.887 67.5 94.1952 63.2262 94.1952 57.8346V10.0339C94.1952 4.6423 89.9523 0.5 84.9261 0.5ZM87.4066 57.8346C87.4066 59.3469 86.4275 60.5962 84.9261 60.5962H10.0558C8.55451 60.5962 7.51011 59.3469 7.51011 57.8346V10.0339C7.51011 8.52159 8.61979 7.27232 10.0558 7.27232H84.8609C86.3622 7.27232 87.3413 8.45584 87.3413 10.0339V57.8346H87.4066Z" fill="#6C7993"/>
</svg>
