<svg width="288" height="55" viewBox="0 0 288 91" fill="none" xmlns="http://www.w3.org/2000/svg">
<g clip-path="url(#clip0_1507_1369)">
<mask id="mask0_1507_1369" style="mask-type:luminance" maskUnits="userSpaceOnUse" x="0" y="0" width="288" height="91">
<path d="M0.5 0H287.5V91H0.5V0Z" fill="white"/>
</mask>
<g mask="url(#mask0_1507_1369)">
<path d="M84.3063 38.0312V18.3661H97.2737V21.021H87.3972V26.7449H95.9002V29.4021H87.3949V35.2944H97.2714V37.9493H84.3063V38.0312ZM123.639 36.2066C122.35 37.4511 120.459 38.0312 118.4 38.0312H111.271V18.3661H118.4C120.546 18.3661 122.35 18.9462 123.639 20.1906C125.871 22.3473 125.7 25.1683 125.7 28.0758C125.7 30.8968 125.787 34.0499 123.639 36.2066ZM121.491 22.3473C120.632 21.4373 119.516 21.021 118.054 21.021H114.277V35.2921H118.054C119.516 35.2921 120.632 34.878 121.493 33.9658C122.523 32.8032 122.609 30.7284 122.609 27.9916C122.609 25.3367 122.609 23.5099 121.493 22.3496L121.491 22.3473ZM152.15 35.9564C150.603 37.533 148.713 38.1973 146.567 38.1973C144.421 38.1973 142.617 37.4511 141.244 36.1225C139.267 34.216 139.267 31.9751 139.267 28.2396C139.267 24.4221 139.267 22.2654 141.242 20.3567C142.615 19.0304 144.421 18.2819 146.567 18.2819C150.861 18.2819 153.437 21.021 153.952 24.4244H150.861C150.346 22.2654 148.886 21.021 146.567 21.021C145.364 21.021 144.248 21.5192 143.56 22.2654C142.531 23.3438 142.358 24.4221 142.358 28.4079C142.358 32.3892 142.615 33.4675 143.56 34.5459C144.248 35.2921 145.364 35.7084 146.567 35.7084C147.941 35.7084 149.057 35.2102 149.915 34.2979C150.69 33.4675 150.947 32.4711 150.947 31.2267V29.9845H146.567V27.4092H154.038V30.3963C153.952 32.9693 153.526 34.6301 152.15 35.9564ZM168.208 38.0312V18.3661H181.178V21.021H171.301V26.7449H179.802V29.4021H171.301V35.2944H181.178V37.9493H168.208V38.0312ZM195.177 38.0312V18.3661H198.27V35.3763H208.06V38.0312H195.177ZM221.287 38.0312V18.3661H234.255V21.021H224.378V26.7449H232.881V29.4021H224.378V35.2944H234.255V37.9493H221.287V38.0312ZM253.661 38.1995C250.573 38.1995 248.425 37.533 246.448 35.6242L248.509 33.6336C249.969 35.0441 251.602 35.5401 253.75 35.5401C256.411 35.5401 257.957 34.464 257.957 32.5553C257.957 31.7249 257.698 30.9787 257.183 30.4805C256.668 29.9845 256.153 29.8162 254.951 29.6501L252.547 29.3179C250.914 29.07 249.541 28.5717 248.682 27.7436C247.65 26.8291 247.222 25.5824 247.222 24.0081C247.222 20.607 249.798 18.2 254.005 18.2C256.668 18.2 258.559 18.8643 260.363 20.4409L258.385 22.3473C257.098 21.1871 255.638 20.8549 253.921 20.8549C251.516 20.8549 250.229 22.1813 250.229 23.9262C250.229 24.6724 250.484 25.2525 251.001 25.7507C251.516 26.1648 252.374 26.4969 253.32 26.663L255.638 26.9952C257.527 27.2454 258.559 27.7436 259.417 28.4898C260.533 29.3998 261.048 30.8126 261.048 32.5553C260.964 36.0406 257.957 38.1995 253.661 38.1995ZM280.113 38.1995C277.022 38.1995 274.874 37.533 272.899 35.6242L274.961 33.6336C276.421 35.0441 278.052 35.5401 280.2 35.5401C282.862 35.5401 284.409 34.464 284.409 32.5553C284.409 31.7249 284.149 30.9787 283.635 30.4805C283.12 29.9845 282.603 29.8162 281.402 29.6501L278.997 29.3179C277.366 29.07 275.993 28.5717 275.134 27.7436C274.102 26.8291 273.672 25.5824 273.672 24.0081C273.672 20.607 276.248 18.2 280.457 18.2C283.12 18.2 285.008 18.8643 286.812 20.4409L284.837 22.3473C283.55 21.1871 282.088 20.8549 280.371 20.8549C277.967 20.8549 276.678 22.1813 276.678 23.9262C276.678 24.6724 276.936 25.2525 277.45 25.7507C277.967 26.1648 278.826 26.4969 279.769 26.663L282.088 26.9952C283.979 27.2454 285.008 27.7436 285.867 28.4898C286.983 29.3998 287.5 30.8126 287.5 32.5553C287.413 36.0406 284.322 38.1995 280.113 38.1995ZM89.7137 72.8C86.6228 72.8 84.4748 72.1357 82.5 70.227L84.5614 68.2364C86.0214 69.6469 87.6523 70.1428 89.8003 70.1428C92.463 70.1428 94.0096 69.0667 94.0096 67.158C94.0096 66.3276 93.7499 65.5792 93.2352 65.0832C92.7204 64.5827 92.2056 64.4189 91.0029 64.2528L88.5976 63.9207C86.9667 63.6727 85.5909 63.1745 84.7322 62.3441C83.7027 61.4341 83.2744 60.1874 83.2744 58.6108C83.2744 55.2074 85.8483 52.8005 90.0554 52.8005C92.7204 52.8005 94.6109 53.4648 96.4127 55.0414L94.4378 56.9501C93.1486 55.7898 91.6908 55.4577 89.9734 55.4577C87.568 55.4577 86.2788 56.784 86.2788 58.5289C86.2788 59.2729 86.5385 59.8553 87.0533 60.3535C87.5681 60.7675 88.4245 61.0997 89.372 61.2658L91.6908 61.5979C93.5791 61.8482 94.6109 62.3441 95.4674 63.0926C96.5835 64.0026 97.0983 65.4131 97.0983 67.158C97.014 70.641 93.9208 72.8 89.7137 72.8ZM116.94 64.585V72.7158H113.849V64.5873L107.749 53.053H111.097L115.396 61.6821L119.687 53.053H123.035L116.94 64.585ZM140.986 72.8C137.896 72.8 135.748 72.1357 133.773 70.227L135.834 68.2364C137.294 69.6469 138.927 70.1428 141.073 70.1428C143.736 70.1428 145.282 69.0667 145.282 67.158C145.282 66.3276 145.023 65.5792 144.508 65.0832C143.993 64.5827 143.478 64.4189 142.276 64.2528L139.87 63.9207C138.239 63.6727 136.864 63.1745 136.005 62.3441C134.975 61.4341 134.547 60.1874 134.547 58.6108C134.547 55.2074 137.121 52.8005 141.33 52.8005C143.993 52.8005 145.881 53.4648 147.685 55.0414L145.711 56.9501C144.421 55.7898 142.964 55.4577 141.246 55.4577C138.839 55.4577 137.552 56.784 137.552 58.5289C137.552 59.2729 137.809 59.8553 138.326 60.3535C138.839 60.7675 139.7 61.0997 140.643 61.2658L142.964 61.5979C144.852 61.8482 145.881 62.3441 146.74 63.0926C147.856 64.0026 148.373 65.4131 148.373 67.158C148.287 70.641 145.196 72.8 140.986 72.8ZM168.985 55.7057V72.7158H165.889V55.7057H160.309V53.0507H174.565V55.7057H168.985ZM187.879 72.6339V52.9666H200.846V55.6238H190.972V61.3477H199.473V64.0026H190.972V69.8948H200.846V72.5498H187.879V72.6339ZM229.704 72.6339V59.5231L224.98 69.0667H222.661L217.85 59.5231V72.6339H214.759V52.9666H217.85L223.777 65.1651L229.615 52.9666H232.708V72.6339H229.704ZM253.147 72.8C250.056 72.8 247.91 72.1357 245.933 70.227L247.994 68.2364C249.454 69.6469 251.087 70.1428 253.235 70.1428C255.896 70.1428 257.442 69.0667 257.442 67.158C257.442 66.3276 257.185 65.5792 256.668 65.0832C256.153 64.5827 255.638 64.4189 254.436 64.2528L252.033 63.9207C250.4 63.6727 249.026 63.1745 248.167 62.3441C247.135 61.4341 246.707 60.1874 246.707 58.6108C246.707 55.2074 249.283 52.8005 253.49 52.8005C256.153 52.8005 258.044 53.4648 259.845 55.0414L257.871 56.9501C256.584 55.7898 255.124 55.4577 253.406 55.4577C251.001 55.4577 249.714 56.784 249.714 58.5289C249.714 59.2729 249.969 59.8553 250.486 60.3535C251.001 60.7675 251.86 61.0997 252.805 61.2658L255.124 61.5979C257.012 61.8482 258.044 62.3441 258.902 63.0926C260.019 64.0026 260.533 65.4131 260.533 67.158C260.449 70.641 257.442 72.8 253.147 72.8ZM55.1667 31.7294H4.40639V27.275H55.1667V15.8431H4.40639V11.4319H55.1667V0H0.5V43.1613H55.1667V31.7294ZM55.1667 70.9163V63.725H4.40639V59.3115H55.1667V47.8819H0.5V75.1592H51.258V79.6114H0.5V91H55.1667V70.9163Z" fill="#6C7993"/>
</g>
</g>
<defs>
<clipPath id="clip0_1507_1369">
<rect width="287" height="91" fill="white" transform="translate(0.5)"/>
</clipPath>
</defs>
</svg>
