<svg width="367" height="90" viewBox="0 0 367 100" fill="none" xmlns="http://www.w3.org/2000/svg">
<g clip-path="url(#clip0_1466_1956)">
<path d="M63.0361 21.9824H89.307V30.517H70.9175V43.0247H88.6809V51.5592H70.9175V66.4215H89.9324V74.9557H63.0361V21.9824Z" fill="#6C7993"/>
<path d="M102.559 74.9557H95.0537V21.9824H102.559V74.9557Z" fill="#6C7993"/>
<path d="M133.439 40.7518C134.377 42.8121 134.878 45.3136 134.878 49.6543V65.7668C134.878 67.3858 135.441 68.1213 136.504 68.1213C136.942 68.1213 137.255 68.1213 137.693 68.0476V75.4788C137.192 75.6263 135.691 75.8471 134.878 75.8471C131.125 75.8471 128.436 73.7131 127.56 69.5928L127.372 68.7103C125.246 73.0513 122.181 75.8471 117.49 75.8471C111.109 75.8471 106.919 71.6531 106.919 65.0311C106.919 58.4093 110.547 55.0253 117.927 53.2596L124.433 51.7146C126.434 51.2731 127.372 50.3166 127.372 48.0358C127.372 44.4306 125.183 42.2233 121.555 42.2233C117.803 42.2233 115.738 44.2098 115.238 47.4471L107.795 46.8586C108.483 39.9426 113.612 34.2773 121.868 34.2773C127.372 34.2773 131.563 36.6318 133.439 40.7518ZM127.372 56.1288C126.684 56.6438 125.996 57.0118 123.932 57.6741L119.491 59.0718C115.738 60.2491 114.362 62.1621 114.362 64.5161C114.362 67.0913 116.113 68.4158 118.928 68.4158C122.932 68.4158 127.372 65.1786 127.372 57.9683V56.1288Z" fill="#6C7993"/>
<path d="M152.589 75.8471C145.084 75.8471 141.206 71.6531 139.267 66.5031L145.397 61.7941C146.835 65.5463 149.024 67.9008 152.715 67.9008C155.467 67.9008 156.655 66.2088 156.655 64.4431C156.655 62.7503 155.592 61.4266 152.965 59.9548L147.523 56.9383C142.832 54.3631 140.58 50.7581 140.58 45.9021C140.58 39.7953 145.084 34.2773 151.276 34.2773C157.093 34.2773 160.408 37.8091 162.284 41.4141L156.593 46.5643C155.404 44.3571 153.778 42.2233 151.214 42.2233C149.087 42.2233 147.648 43.6213 147.648 45.4606C147.648 46.9321 148.399 48.1093 150.15 49.0658L155.905 52.1558C161.158 54.9518 163.848 58.5568 163.848 64.2956C163.848 71.2116 159.095 75.8471 152.589 75.8471Z" fill="#6C7993"/>
<path d="M178.109 43.1062V74.9637H170.603V43.1062H164.349V35.1602H170.603V27.0672L178.109 25.5957V35.1602H184.364V43.1062H178.109Z" fill="#6C7993"/>
<path d="M190.654 21.25C193.281 21.25 195.033 23.31 195.033 26.4002C195.033 29.4902 193.281 31.5505 190.654 31.5505C188.027 31.5505 186.275 29.4902 186.275 26.4002C186.275 23.31 188.027 21.25 190.654 21.25ZM194.407 74.959H186.901V35.1555H194.407V74.959Z" fill="#6C7993"/>
<path d="M198.56 55.0988C198.56 43.0328 206.378 34.2773 216.135 34.2773C224.142 34.2773 228.707 38.8391 231.021 44.7986L224.704 49.1393C222.89 45.1663 220.264 42.5178 216.199 42.5178C210.381 42.5178 206.19 47.8886 206.19 55.0988C206.19 62.2353 210.381 67.6063 216.199 67.6063C220.578 67.6063 223.204 64.8843 224.893 60.1018L231.647 63.4861C229.583 70.6966 224.517 75.8471 216.135 75.8471C206.19 75.8471 198.56 67.0913 198.56 55.0988Z" fill="#6C7993"/>
<path d="M258.417 54.6492V74.9557H250.536V21.9824H267.673C277.495 21.9824 283.061 28.6777 283.061 38.316C283.061 47.9542 277.495 54.6492 267.047 54.6492H258.417ZM258.417 30.517V46.1147H267.047C271.99 46.1147 274.68 43.0247 274.68 38.316C274.68 33.6072 272.051 30.517 267.422 30.517H258.417Z" fill="#6C7993"/>
<path d="M310.781 40.7518C311.719 42.8121 312.219 45.3136 312.219 49.6543V65.7668C312.219 67.3858 312.782 68.1213 313.847 68.1213C314.284 68.1213 314.598 68.1213 315.035 68.0476V75.4788C314.534 75.6263 313.032 75.8471 312.219 75.8471C308.467 75.8471 305.777 73.7131 304.901 69.5928L304.714 68.7103C302.588 73.0513 299.523 75.8471 294.83 75.8471C288.451 75.8471 284.262 71.6531 284.262 65.0311C284.262 58.4093 287.889 55.0253 295.27 53.2596L301.774 51.7146C303.776 51.2731 304.714 50.3166 304.714 48.0358C304.714 44.4306 302.525 42.2233 298.897 42.2233C295.144 42.2233 293.08 44.2098 292.58 47.4471L285.136 46.8586C285.825 39.9426 290.953 34.2773 299.209 34.2773C304.714 34.2773 308.904 36.6318 310.781 40.7518ZM304.714 56.1288C304.027 56.6438 303.337 57.0118 301.273 57.6741L296.833 59.0718C293.08 60.2491 291.704 62.1621 291.704 64.5161C291.704 67.0913 293.456 68.4158 296.271 68.4158C300.272 68.4158 304.714 65.1786 304.714 57.9683V56.1288Z" fill="#6C7993"/>
<path d="M328.263 43.1062V74.9637H320.756V43.1062H314.502V35.1602H320.756V27.0672L328.263 25.5957V35.1602H334.517V43.1062H328.263Z" fill="#6C7993"/>
<path d="M364.764 43.319C365.203 45.4525 365.265 47.2185 365.265 50.897V74.9557H357.759V52.9572C357.759 50.5292 357.696 49.2785 357.509 47.9542C356.883 44.4225 355.006 42.436 351.754 42.436C348.251 42.436 345.937 44.7167 345.063 48.1747C344.812 49.2047 344.562 50.382 344.562 53.5457V74.9557H337.057V21.9824H344.562V41.406C346.437 37.5065 349.753 34.2692 354.507 34.2692C360.074 34.2692 363.638 38.0952 364.764 43.319Z" fill="#6C7993"/>
<path d="M14.0381 63.0566L14.0673 63.0909C14.0712 63.0796 14.0751 63.0679 14.079 63.0566H14.0381Z" fill="#6C7993"/>
<path d="M36.1883 36.9397H14.038L29.7007 18.4699L14.038 0L0 16.5541L7.54601 25.4527C10.4143 28.835 12.5691 32.7402 14.0109 36.9077C14.0199 36.9337 14.0291 36.9598 14.038 36.9858C16.9034 45.326 16.9165 54.71 14.0782 63.0603H36.1883V36.9397Z" fill="#6C7993"/>
<path d="M0.0753782 83.5227H0.0634766L14.0377 100.002L29.7003 81.5317L14.0664 63.0957C12.6246 67.3245 10.4513 71.2872 7.54565 74.7135L0.0753782 83.5227Z" fill="#6C7993"/>
</g>
<defs>
<clipPath id="clip0_1466_1956">
<rect width="367" height="100" fill="white"/>
</clipPath>
</defs>
</svg>
