<svg width="301" height="80" viewBox="0 0 301 115" fill="none" xmlns="http://www.w3.org/2000/svg">
<path d="M0.618164 88.8273V113.102H27.9059V109.985H5.0972V102.113H19.8436V98.9416H5.0972V92.0529H27.1479V88.8819L0.618164 88.8273Z" fill="#6C7993"/>
<path d="M121.689 103.424C121.689 107.743 118.105 110.641 112.731 110.641C107.494 110.641 104.255 107.743 104.255 103.424V88.8812H99.8447V103.588C99.8447 110.203 105.84 113.812 112.731 113.812C122.86 113.812 126.099 108.344 126.099 103.588V88.8812H121.689V103.424Z" fill="#6C7993"/>
<path d="M150.631 113.102H155.041V88.8273H150.631V113.102Z" fill="#6C7993"/>
<path d="M207.41 88.8268V107.798L185.704 88.8268H181.362V113.046H185.772V93.9112L207.479 113.046H211.751V88.8268H207.41Z" fill="#6C7993"/>
<path d="M238.419 113.102H242.829V88.8273H238.419V113.102Z" fill="#6C7993"/>
<path d="M292.789 88.8273L282.659 97.5201L272.806 88.8273H267.086L279.352 99.9803L263.985 113.102H269.567L282.177 102.331L294.167 113.102H300.231L285.347 99.9256L298.095 88.8273H292.789Z" fill="#6C7993"/>
<path d="M72.9708 100.964C72.9708 104.408 71.5926 106.65 69.043 108.509L66.7001 106.322H61.6009L65.7354 110.094C64.7018 110.477 62.9102 110.805 61.4631 110.805C54.9168 110.86 49.7487 106.65 49.7487 100.964V100.855C49.7487 95.0594 54.6412 90.959 61.1875 90.9044C67.8027 90.8497 73.0397 95.0047 73.0397 100.8V100.964H72.9708ZM61.2564 87.8427C52.1605 87.8974 45.1318 93.3646 45.1318 101.019V101.128C45.1318 108.727 52.2983 114.031 61.3942 113.976C63.7371 113.976 66.4934 113.484 68.5607 112.664L71.0414 114.96H76.1406L71.7994 111.024C75.3826 108.837 77.5876 105.283 77.5876 100.909V100.8C77.5187 93.2006 70.3523 87.7881 61.2564 87.8427Z" fill="#6C7993"/>
<path d="M152.835 0.039968L140.362 3.48429V55.3132L132.093 53.017V5.78051L107.217 12.6691V46.0736L98.9483 43.7774V14.9654L90.6104 17.2616V48.4792L115.486 55.3679V17.3163L123.824 15.02V57.6641L148.7 64.5527V8.13139L152.835 6.98328L156.969 8.13139V64.5527L181.914 57.6641V15.02L190.183 17.3163V55.3679L215.059 48.4792V17.2616L206.79 14.9654V43.7774L198.521 46.0736V12.6691L173.645 5.78051V53.017L165.307 55.3132V3.48429L152.835 0.039968Z" fill="#6C7993"/>
<path d="M229.806 40.1141V38.4193H231.46C232.287 38.4193 232.769 38.7473 232.769 39.294C232.769 39.7861 232.287 40.1688 231.46 40.1688L229.806 40.1141ZM227.876 43.285H229.737V41.3169H230.908L232.562 43.285H234.836L232.838 41.0982C233.871 40.8248 234.56 40.1687 234.56 39.1847C234.56 37.7632 233.251 37.1071 231.391 37.1071H227.739V43.285H227.876ZM230.977 45.6359C227.187 45.6359 224.362 43.2304 224.362 40.3328V40.2781C224.362 37.3805 227.256 34.9749 230.977 34.9749C234.767 34.9749 237.592 37.3805 237.592 40.2781V40.3328C237.592 43.2304 234.698 45.6359 230.977 45.6359ZM230.977 46.292C235.181 46.292 238.488 43.5584 238.488 40.3328V40.2781C238.488 37.0525 235.25 34.3189 230.977 34.3189C226.774 34.3189 223.535 37.0525 223.535 40.2781V40.3328C223.535 43.6131 226.774 46.292 230.977 46.292Z" fill="#6C7993"/>
</svg>
