<svg width="237" height="45" viewBox="0 0 237 72" fill="none" xmlns="http://www.w3.org/2000/svg">
<g clip-path="url(#clip0_1377_1844)">
<path d="M13.3897 34.7964C13.3853 26.5206 13.3348 18.2443 13.4056 9.96903C13.4261 7.58202 14.6769 5.95031 17.227 5.28287C17.4177 5.23298 17.6281 5.2498 17.8294 5.24979C34.9883 5.24849 52.1472 5.24856 69.3061 5.24865C70.4307 5.24865 71.3763 5.72145 72.2262 6.41421C71.7641 6.68261 71.3345 6.89682 70.8577 7.12009C69.6812 7.66775 68.552 8.20634 67.3739 8.74941C66.0065 9.37974 64.6881 10.0056 63.3209 10.6365C62.1737 11.1658 61.0752 11.6901 59.9286 12.2253C58.7459 12.7776 57.6114 13.3189 56.4274 13.8611C55.4645 14.305 54.5512 14.748 53.5893 15.2009C52.4028 15.7476 51.2648 16.2844 50.0773 16.8218C49.0216 17.3081 48.0154 17.794 46.9604 18.2865C45.8963 18.7809 44.8809 19.2687 43.8175 19.7614C42.735 20.2612 41.7004 20.7559 40.6163 21.2537C39.2463 21.8854 37.9258 22.5139 36.5566 23.1467C35.322 23.7154 34.136 24.2799 32.9012 24.8566C31.7161 25.4088 30.5798 25.9488 29.3947 26.4955C28.3901 26.9497 27.4344 27.3972 26.4297 27.8527C25.2843 28.3956 24.1878 28.9306 23.0424 29.4689C22.0381 29.9169 21.0828 30.3617 20.0784 30.8142C19.0728 31.2761 18.1163 31.7302 17.1124 32.1884C16.6036 32.409 16.15 32.6444 15.6791 32.8383C14.6972 33.2426 13.8461 33.7877 13.3897 34.7964Z" fill="#6C7993"/>
<path d="M73.9081 36.0723C73.9089 44.1656 73.9295 52.259 73.8983 60.3523C73.8889 62.7899 72.8033 64.5719 70.4402 65.2862C69.9222 65.4428 69.3615 65.5296 68.8203 65.5299C51.9834 65.5424 35.1465 65.5426 18.3095 65.5345C17.2139 65.5339 16.2018 65.1961 15.3267 64.5006C16.3612 63.9523 17.3675 63.4672 18.4205 62.9672C19.6573 62.3911 20.8474 61.8299 22.0838 61.2589C22.1883 61.2254 22.2464 61.2018 22.3297 61.1754C22.3859 61.1553 22.4073 61.13 22.4662 61.0837C23.432 60.6325 24.3506 60.1941 25.3152 59.7394C26.2834 59.2893 27.2055 58.8554 28.1756 58.416C29.3566 57.8716 30.4896 57.3327 31.6684 56.7779C32.633 56.3266 33.552 55.8914 34.5193 55.4511C35.5823 54.9621 36.5969 54.478 37.6536 53.9723C38.8281 53.4201 39.9605 52.8896 41.1371 52.3391C42.0965 51.8969 43.0116 51.4747 43.9758 51.0406C45.2512 50.4439 46.4777 49.8591 47.7533 49.2687C49.029 48.6778 50.2554 48.0925 51.5309 47.5042C52.6776 46.9814 53.7753 46.4617 54.9214 45.9285C56.2883 45.2887 57.6066 44.6622 58.9742 44.0276C60.3476 43.3911 61.6718 42.7628 63.0382 42.1109C64.0796 41.6102 65.0788 41.133 66.1286 40.6505C67.045 40.2338 67.9108 39.8225 68.8252 39.4175C69.942 38.9286 71.0253 38.4629 72.071 37.9248C72.5341 37.6864 72.9538 37.3351 73.331 36.9711C73.5806 36.7303 73.7196 36.3758 73.9081 36.0723Z" fill="#6C7993"/>
<path d="M219.482 6.15177C220.519 6.37881 221.508 6.57472 222.635 6.79827C219.778 9.63636 216.466 11.5626 212.711 12.841C213.986 13.6935 214.533 14.8294 213.99 16.3695C214.802 16.4641 215.572 16.584 216.067 15.7972C216.721 14.7597 217.568 14.9507 218.534 15.2856C219.973 15.7847 221.447 16.1825 222.945 16.6349C222.908 16.7104 222.878 16.8108 222.819 16.89C222.143 17.7959 222.118 18.8292 222.124 19.9065C222.153 24.9292 222.149 29.9522 222.13 34.975C222.124 36.7305 221.333 37.5164 219.528 37.5449C218.56 37.5602 217.588 37.4967 216.625 37.5668C216.052 37.6086 215.785 37.3339 215.522 36.9323C214.856 35.9161 213.365 34.7123 212.29 34.3319C212.29 35.3896 212.29 36.4302 212.29 37.5088C210.201 37.5088 208.166 37.5088 206.071 37.5088C206.071 35.1205 206.071 32.734 206.071 30.3142C204.786 30.3142 203.562 30.3142 202.277 30.3142C202.277 32.718 202.277 35.1045 202.277 37.5189C200.198 37.5189 198.179 37.5189 196.109 37.5189C196.109 30.214 196.109 22.8944 196.109 15.5257C198.109 15.5257 200.144 15.5257 202.243 15.5257C202.259 15.7743 202.276 16.0535 202.297 16.3758C204.059 16.3758 205.825 16.3758 207.607 16.3758C206.867 15.5181 206.16 14.6244 205.373 13.8057C204.535 12.9324 203.617 12.1351 202.747 11.2904C202.633 11.1799 202.568 10.9886 202.552 10.8276C202.546 10.7739 202.764 10.6394 202.879 10.6404C205.334 10.6622 207.786 10.7151 210.231 11.5826C210.624 11.0476 211.044 10.477 211.529 9.81758C205.985 9.81758 200.588 9.81758 195.152 9.81758C195.152 8.74869 195.152 7.70814 195.152 6.59436C195.393 6.59436 195.632 6.59436 195.872 6.59436C201.455 6.59436 207.039 6.5902 212.622 6.60176C213.101 6.60275 213.42 6.54996 213.655 6.03112C213.977 5.31987 214.759 5.09094 215.592 5.2794C216.87 5.56864 218.152 5.84108 219.482 6.15177ZM212.273 32.3637C212.273 32.8253 212.273 33.287 212.273 33.7395C213.532 33.7395 214.71 33.7395 215.881 33.7395C215.881 32.5707 215.881 31.4422 215.881 30.3203C214.663 30.3203 213.485 30.3203 212.273 30.3203C212.273 30.9832 212.273 31.6066 212.273 32.3637ZM204.903 24.628C204.036 24.628 203.169 24.628 202.317 24.628C202.317 25.6619 202.317 26.6114 202.317 27.5465C203.583 27.5465 204.806 27.5465 206.015 27.5465C206.015 26.5542 206.015 25.6047 206.015 24.628C205.66 24.628 205.348 24.628 204.903 24.628ZM205.955 19.122C204.732 19.122 203.508 19.122 202.303 19.122C202.303 20.1464 202.303 21.0801 202.303 22.042C203.554 22.042 204.777 22.042 206.046 22.042C206.046 21.0818 206.046 20.1482 205.955 19.122ZM215.557 24.6281C214.467 24.6281 213.377 24.6281 212.323 24.6281C212.323 25.6758 212.323 26.6258 212.323 27.5392C213.551 27.5392 214.73 27.5392 215.921 27.5392C215.921 26.6848 215.933 25.8794 215.911 25.075C215.907 24.9245 215.765 24.7777 215.557 24.6281ZM215.921 20.259C215.921 19.887 215.921 19.515 215.921 19.1493C214.664 19.1493 213.486 19.1493 212.313 19.1493C212.313 20.1381 212.313 21.0875 212.313 22.0317C213.531 22.0317 214.709 22.0317 215.921 22.0317C215.921 21.4594 215.921 20.9257 215.921 20.259Z" fill="#6C7993"/>
<path d="M123.499 39.8357C125.32 39.8357 127.073 39.8357 128.865 39.8357C128.865 40.9113 128.865 41.9519 128.865 43.0293C118.541 43.0293 108.219 43.0293 97.8618 43.0293C97.8618 41.9814 97.8618 40.9409 97.8618 39.8401C99.7766 39.8401 101.678 39.8401 103.637 39.8401C103.637 31.9668 103.637 24.1532 103.637 16.3121C105.94 16.3121 108.185 16.3121 110.489 16.3121C110.489 24.1142 110.489 31.9278 110.489 39.7885C111.546 39.7885 112.546 39.7885 113.591 39.7885C113.591 29.8435 113.591 19.8771 113.591 9.85101C109.411 9.85101 105.213 9.85101 100.975 9.85101C100.975 8.75183 100.975 7.71118 100.975 6.63232C110.259 6.63232 119.545 6.63232 128.868 6.63232C128.868 7.67624 128.868 8.71682 128.868 9.81748C126.101 9.81748 123.344 9.81748 120.558 9.81748C120.558 13.5193 120.558 17.1613 120.558 20.8394C123.099 20.8394 125.614 20.8394 128.179 20.8394C128.179 21.9142 128.179 22.9552 128.179 24.0567C125.677 24.0567 123.146 24.0567 120.571 24.0567C120.571 29.3282 120.571 34.5402 120.571 39.8357C121.514 39.8357 122.473 39.8357 123.499 39.8357Z" fill="#6C7993"/>
<path d="M136.874 19.6484C135.639 19.6484 134.472 19.6484 133.267 19.6484C133.267 18.6153 133.267 17.6195 133.267 16.5531C134.885 16.5531 136.503 16.4823 138.11 16.5826C138.928 16.6336 139.432 16.2583 139.771 15.7085C140.074 15.2184 140.436 15.1336 140.878 15.2172C142.402 15.5058 143.925 15.8053 145.434 16.161C146.224 16.3472 146.22 16.5814 145.732 17.251C145.478 17.5999 145.276 18.0815 145.274 18.5043C145.244 24.2905 145.266 30.077 145.234 35.8633C145.231 36.4141 145.606 36.5641 145.893 36.7447C147.846 37.9739 149.904 39.0286 152.256 39.1419C155.033 39.2758 157.818 39.296 160.599 39.2815C162.494 39.2716 164.388 39.1288 166.281 39.0248C168.503 38.9028 170.724 38.7733 172.944 38.6178C174.239 38.5271 175.53 38.3793 176.886 38.2512C176.124 40.0029 175.376 41.7217 174.616 43.469C171.931 43.469 169.23 43.469 166.529 43.469C162.611 43.469 158.693 43.4834 154.775 43.4651C150.346 43.4445 146.385 42.0369 142.853 39.3969C142.801 39.358 142.726 39.342 142.686 39.2948C141.938 38.4046 141.241 38.5287 140.278 39.1252C138.021 40.5241 135.659 41.7571 133.281 43.0906C133.281 41.0691 133.281 39.0922 133.281 37.0639C134.752 36.5621 136.268 36.0393 137.788 35.53C138.158 35.4062 138.376 35.2552 138.374 34.7929C138.356 29.8364 138.362 24.8798 138.361 19.9232C138.361 19.8586 138.346 19.7939 138.328 19.6484C137.87 19.6484 137.405 19.6484 136.874 19.6484Z" fill="#6C7993"/>
<path d="M192.276 19.5185C192.276 24.8773 192.295 30.1696 192.251 35.4614C192.246 36.1492 192.499 36.5443 193.012 36.8424C194.983 37.9878 197.008 39.0538 199.345 39.1478C202.123 39.2595 204.906 39.2634 207.688 39.289C208.398 39.2955 209.108 39.1984 209.819 39.1644C211.802 39.0696 213.786 38.9936 215.769 38.8893C217.1 38.8193 218.431 38.7251 219.76 38.6213C221.123 38.515 222.483 38.3838 223.883 38.2601C223.141 39.9885 222.406 41.7018 221.647 43.4693C221.407 43.4693 221.117 43.4693 220.826 43.4693C214.365 43.4693 207.903 43.4854 201.441 43.4609C199.025 43.4517 196.708 42.9106 194.463 42.0038C192.433 41.1837 190.629 40.0166 188.896 38.708C188.738 38.5883 188.387 38.5492 188.218 38.6416C186.382 39.6509 184.565 40.6962 182.741 41.7268C181.947 42.175 181.147 42.6121 180.296 43.084C180.296 41.0623 180.296 39.0833 180.296 37.0653C181.782 36.5597 183.3 36.0408 184.821 35.5275C185.185 35.4045 185.399 35.2456 185.397 34.782C185.377 29.8487 185.384 24.9153 185.383 19.9819C185.383 19.8956 185.372 19.8092 185.361 19.6644C183.671 19.6644 181.995 19.6644 180.285 19.6644C180.285 18.6093 180.285 17.6137 180.285 16.5534C181.913 16.5534 183.531 16.4858 185.139 16.5816C185.954 16.6301 186.461 16.2552 186.796 15.7027C187.099 15.204 187.471 15.1364 187.906 15.2184C189.43 15.505 190.953 15.8071 192.462 16.1613C193.231 16.3418 193.296 16.6378 192.777 17.1926C192.16 17.8519 192.285 18.6644 192.276 19.5185Z" fill="#6C7993"/>
<path d="M155.114 22.8593C155.607 20.8433 156.096 18.8826 156.606 16.8366C153.69 16.8366 150.929 16.8366 148.13 16.8366C148.13 15.7891 148.13 14.7932 148.13 13.737C151.027 13.737 153.92 13.737 156.905 13.737C157.01 11.3539 157.113 9.02648 157.218 6.64551C159.48 6.64551 161.803 6.64551 164.187 6.64551C164.021 8.99086 163.856 11.3212 163.687 13.7033C167.306 13.7033 170.966 13.7033 174.668 13.7033C174.668 14.7532 174.668 15.7491 174.668 16.8008C170.878 16.8008 167.083 16.8008 163.229 16.8008C163.852 19.6463 165.067 22.1232 166.808 24.3775C168.575 26.6652 170.751 28.4777 173.174 30.008C174.146 30.6218 175.206 31.0983 176.23 31.6304C176.538 31.7905 176.742 31.8982 176.424 32.296C175.398 33.5802 174.417 34.9005 173.421 36.2081C173.156 36.5558 172.897 36.9081 172.636 37.2568C166.953 34.1832 162.815 28.124 161.958 21.5292C161.66 22.2784 161.418 22.8527 161.203 23.437C159.963 26.8082 158.133 29.8044 155.412 32.1898C153.348 33.9999 150.93 35.1252 148.193 35.5325C148.043 35.5549 147.892 35.6684 147.754 35.6506C147.509 35.6192 147.071 35.5255 147.069 35.4468C147.059 35.1433 147.09 34.7337 147.284 34.5448C149.541 32.3446 151.759 30.1101 153.188 27.2577C153.897 25.8438 154.474 24.3644 155.114 22.8593Z" fill="#6C7993"/>
<path d="M98.0971 37.0085C95.8672 39.451 93.31 41.4175 90.4297 42.9677C89.642 43.3917 89.5919 43.3808 89.2685 42.5507C88.6862 41.0556 88.1618 39.5367 87.5304 38.0629C87.2979 37.5204 87.6209 37.4316 87.9258 37.293C88.5798 36.9958 89.2614 36.7573 89.9073 36.4447C90.0718 36.3651 90.245 36.0984 90.2455 35.9172C90.2618 30.3796 90.2571 24.8419 90.254 19.3041C90.254 19.2634 90.2315 19.2226 90.2021 19.1231C88.0029 19.1231 85.7871 19.1231 83.5381 19.1231C83.5381 18.0238 83.5381 16.9835 83.5381 15.8805C85.6196 15.8805 87.6837 15.8671 89.7475 15.89C90.2587 15.8957 90.696 15.7831 90.9684 15.3634C91.4609 14.6046 92.133 14.6258 92.8833 14.823C94.2534 15.183 95.6278 15.5267 96.9979 15.8866C97.4456 16.0041 97.6063 16.1979 97.4501 16.7411C97.2109 17.5723 97.0423 18.4539 97.0344 19.3158C96.9946 23.7098 97.016 28.1043 97.016 32.4987C97.016 32.7379 97.016 32.977 97.016 33.3762C97.9151 32.8981 98.7103 32.5056 99.4739 32.0594C100.058 31.7182 100.594 31.297 101.17 30.941C101.277 30.8747 101.497 30.9056 101.617 30.9746C101.688 31.0154 101.724 31.2509 101.674 31.3443C100.974 32.6454 100.296 33.9608 99.5278 35.2212C99.1416 35.8546 98.5835 36.384 98.0971 37.0085Z" fill="#6C7993"/>
<path d="M18.3738 62.9819C17.3675 63.467 16.3612 63.9522 15.3095 64.456C13.919 63.4801 13.3832 62.0896 13.3809 60.483C13.3691 52.4812 13.3767 44.4793 13.4233 36.4336C13.8288 36.8267 14.1078 37.3971 14.5657 37.6717C15.4115 38.179 16.3621 38.5128 17.2757 38.916C17.2825 38.9131 17.2845 38.8988 17.3028 38.9374C17.4024 38.9972 17.4837 39.0185 17.5645 39.0349C17.5639 39.03 17.5546 39.0333 17.5744 39.0707C17.6747 39.1303 17.7552 39.1525 17.835 39.1699C17.8342 39.1649 17.8245 39.1674 17.8456 39.1992C17.9513 39.2845 18.0359 39.338 18.0985 39.4461C18.0412 39.7855 17.9757 40.0702 17.9753 40.355C17.9692 45.5685 17.9708 50.7819 17.9708 55.9954C17.9708 58.0315 17.9547 60.0679 17.9888 62.1035C17.9937 62.3984 18.2395 62.6892 18.3738 62.9819Z" fill="#E6AB4F"/>
<path d="M126.437 59.1133C126.2 58.8204 125.998 58.562 125.698 58.1792C125.698 60.7025 125.698 63.0786 125.698 65.4972C124.815 65.4972 123.995 65.4972 123.135 65.4972C123.135 61.7311 123.135 57.9555 123.135 54.1014C123.794 54.1014 124.462 54.0821 125.127 54.1148C125.295 54.123 125.5 54.261 125.613 54.4C126.71 55.7465 127.805 57.0957 128.871 58.4666C129.337 59.0662 129.736 59.7175 130.222 60.4271C130.222 58.2972 130.222 56.2395 130.222 54.1416C131.152 54.1416 132.017 54.1416 132.92 54.1416C132.92 57.9144 132.92 61.69 132.92 65.5394C132.253 65.5394 131.578 65.5986 130.923 65.5076C130.692 65.4754 130.484 65.0955 130.312 64.8427C129.025 62.9488 127.751 61.047 126.437 59.1133Z" fill="#6C7993"/>
<path d="M201.116 65.5402C200.877 65.4497 200.624 65.4063 200.531 65.2613C199.747 64.0303 198.999 62.7772 198.221 61.542C198.133 61.4031 197.939 61.2608 197.783 61.2477C197.32 61.2089 196.851 61.2338 196.351 61.2338C196.351 62.6726 196.351 64.0559 196.351 65.4895C195.454 65.4895 194.589 65.4895 193.675 65.4895C193.675 61.7485 193.675 57.9737 193.675 54.1009C194.147 54.1009 194.654 54.1009 195.16 54.1009C196.532 54.1009 197.907 54.0556 199.276 54.1154C200.355 54.1625 201.371 54.4457 202.234 55.1899C203.52 56.2994 203.535 59.4383 201.477 60.4838C201.264 60.5921 201.054 60.7055 200.769 60.8552C201.271 61.6389 201.756 62.396 202.242 63.1522C202.729 63.9096 203.217 64.666 203.781 65.5402C202.787 65.5402 201.982 65.5402 201.116 65.5402ZM200.046 56.5238C198.901 55.647 197.595 56.101 196.379 55.9787C196.379 57.1222 196.379 58.1624 196.379 59.2149C197.171 59.2149 197.916 59.2619 198.653 59.2049C200.081 59.0944 200.979 57.9874 200.046 56.5238Z" fill="#6C7993"/>
<path d="M70.9053 7.11092C71.3349 6.89672 71.7644 6.68251 72.2419 6.4585C73.2491 7.21721 73.7603 8.22957 73.7686 9.44018C73.8263 17.8626 73.8628 26.2851 73.8582 34.7545C73.4379 34.2974 73.1327 33.7183 72.6739 33.3107C72.2226 32.9097 71.6155 32.6827 71.0756 32.3204C71.074 24.1503 71.0752 16.039 71.066 7.92768C71.0657 7.65537 70.9612 7.38317 70.9053 7.11092Z" fill="#E5A94D"/>
<path d="M219.881 59.0433C220.678 61.2021 221.441 63.318 222.229 65.5021C221.207 65.5021 220.296 65.5021 219.352 65.5021C219.056 64.5546 218.753 63.5878 218.437 62.5797C217.21 62.5797 215.975 62.5671 214.741 62.5961C214.591 62.5996 214.369 62.7989 214.311 62.9554C214.056 63.6466 213.829 64.3499 213.634 65.0601C213.537 65.4128 213.386 65.5648 213.001 65.5488C212.285 65.519 211.567 65.5402 210.673 65.5402C212.083 61.6815 213.461 57.9116 214.854 54.1012C215.835 54.1012 216.797 54.0813 217.758 54.121C217.916 54.1275 218.137 54.3677 218.205 54.5467C218.769 56.0251 219.304 57.5145 219.881 59.0433ZM215.505 60.6954C216.264 60.6954 217.023 60.6954 217.838 60.6954C217.348 59.1059 216.877 57.5799 216.407 56.055C215.938 57.6056 215.475 59.1344 215.002 60.6954C215.161 60.6954 215.273 60.6954 215.505 60.6954Z" fill="#6C7993"/>
<path d="M110.526 54.1011C111.131 54.1011 111.668 54.1011 112.244 54.1011C112.244 54.7715 112.244 55.4081 112.244 56.1045C110.48 56.1045 108.715 56.1045 106.915 56.1045C106.915 56.9341 106.915 57.7053 106.915 58.536C108.423 58.536 109.918 58.536 111.443 58.536C111.443 59.2317 111.443 59.8683 111.443 60.5404C109.937 60.5404 108.458 60.5404 106.929 60.5404C106.929 61.4796 106.929 62.3859 106.929 63.3518C108.708 63.3518 110.518 63.3518 112.374 63.3518C112.374 64.0908 112.374 64.7726 112.374 65.4977C109.681 65.4977 106.971 65.4977 104.219 65.4977C104.219 61.7339 104.219 57.9585 104.219 54.1011C106.292 54.1011 108.376 54.1011 110.526 54.1011Z" fill="#6C7993"/>
<path d="M181.196 65.5403C179.556 65.5403 177.984 65.5403 176.372 65.5403C176.372 61.731 176.372 57.9557 176.372 54.1406C178.986 54.1406 181.606 54.1406 184.265 54.1406C184.265 54.7744 184.265 55.411 184.265 56.1073C182.542 56.1073 180.821 56.1073 179.068 56.1073C179.068 56.9371 179.068 57.7082 179.068 58.5389C180.535 58.5389 181.985 58.5389 183.463 58.5389C183.463 59.2179 183.463 59.839 183.463 60.5196C182.031 60.5196 180.581 60.5196 179.082 60.5196C179.082 61.4826 179.082 62.3888 179.082 63.3546C180.865 63.3546 182.676 63.3546 184.53 63.3546C184.53 64.0939 184.53 64.7755 184.53 65.5403C183.45 65.5403 182.357 65.5403 181.196 65.5403Z" fill="#6C7993"/>
<path d="M90.2801 63.3868C91.9146 63.3868 93.4847 63.3868 95.0894 63.3868C95.0894 64.1121 95.0894 64.7933 95.0894 65.5075C91.9607 65.5075 88.8464 65.5075 85.7427 65.5075C85.3483 64.3681 85.9907 63.5882 86.6106 62.7737C88.275 60.587 89.912 58.3798 91.6013 56.1256C89.8299 56.1256 88.1295 56.1256 86.3854 56.1256C86.3854 55.4571 86.3854 54.8206 86.3854 54.1421C89.2168 54.1421 92.0611 54.1421 94.9192 54.1421C95.2076 55.1179 94.8049 55.8549 94.2016 56.6343C92.5049 58.8261 90.8942 61.0838 89.197 63.3868C89.5674 63.3868 89.8915 63.3868 90.2801 63.3868Z" fill="#6C7993"/>
<path d="M142.043 13.5926C140.43 13.4964 139.442 12.5873 138.776 11.2974C137.945 9.68656 136.987 8.17517 135.653 6.92786C135.301 6.59839 134.918 6.30112 134.486 5.93528C134.996 5.45201 135.57 5.62405 136.042 5.67889C137.435 5.8409 138.825 6.06216 140.201 6.33635C141.697 6.63455 143.189 6.99776 144.438 7.94449C145.486 8.73891 145.979 9.8375 145.77 11.1185C145.571 12.3373 144.839 13.237 143.583 13.544C143.115 13.6584 142.6 13.582 142.043 13.5926Z" fill="#6C7993"/>
<path d="M190.513 7.40128C192 8.08391 192.857 9.16551 192.806 10.7918C192.759 12.2983 191.5 13.5607 189.987 13.6166C188.321 13.6781 186.983 13.2109 186.078 11.7813C185.672 11.1395 185.371 10.4316 184.967 9.78852C184.204 8.57504 183.372 7.41208 182.185 6.55429C181.953 6.38715 181.754 6.17591 181.539 5.98359C182.321 5.26867 188.452 6.29238 190.513 7.40128Z" fill="#6C7993"/>
<path d="M89.0123 5.78739C90.1785 5.96697 91.2921 6.10069 92.3835 6.33642C93.9333 6.67118 95.4973 6.99011 96.8213 7.96101C97.6656 8.58021 98.2559 10.0048 97.9391 11.0327C97.6178 12.0755 96.8971 12.7928 95.7957 13.0526C94.2783 13.4106 92.8222 13.2326 91.658 12.1722C91.0461 11.6149 90.6498 10.8114 90.1991 10.0923C89.3112 8.67559 88.2145 7.45456 86.9091 6.40846C86.7278 6.26318 86.646 5.99477 86.417 5.61621C87.4093 5.68315 88.1796 5.73511 89.0123 5.78739Z" fill="#6C7993"/>
<path d="M163.9 59.888C163.9 61.791 163.9 63.6267 163.9 65.5013C163 65.5013 162.135 65.5013 161.21 65.5013C161.21 62.3945 161.21 59.29 161.21 56.1259C159.97 56.1259 158.789 56.1259 157.58 56.1259C157.58 55.4457 157.58 54.8243 157.58 54.1519C160.858 54.1519 164.155 54.1519 167.5 54.1519C167.5 54.7547 167.5 55.3917 167.5 56.0901C166.346 56.0901 165.164 56.0901 163.9 56.0901C163.9 57.3725 163.9 58.5966 163.9 59.888Z" fill="#6C7993"/>
<path d="M144.578 59.6185C144.578 57.7619 144.578 55.9726 144.578 54.1421C145.473 54.1421 146.337 54.1421 147.241 54.1421C147.241 57.9097 147.241 61.6834 147.241 65.4986C146.386 65.4986 145.522 65.4986 144.578 65.4986C144.578 63.5657 144.578 61.6257 144.578 59.6185Z" fill="#6C7993"/>
<path d="M71.0769 32.3795C71.6156 32.6829 72.2227 32.91 72.674 33.311C73.1328 33.7186 73.4379 34.2976 73.8531 34.816C73.9019 35.2034 73.908 35.5764 73.9112 36.0109C73.7199 36.3761 73.5809 36.7305 73.3314 36.9713C72.9541 37.3353 72.5344 37.6867 72.0713 37.925C71.0256 38.4632 69.9423 38.9288 68.8237 39.3621C68.7291 38.994 68.6482 38.6879 68.6469 38.3815C68.6372 36.127 68.6433 33.8725 68.6955 31.6211C69.1644 31.7568 69.5823 31.8894 69.997 32.0257C69.9937 32.0295 69.9947 32.0196 70.0203 32.0584C70.1664 32.1177 70.2869 32.1381 70.4031 32.1606C70.3988 32.1627 70.398 32.1532 70.4242 32.1931C70.5428 32.2525 70.6353 32.2721 70.7592 32.3144C70.886 32.3513 70.9814 32.3654 71.0769 32.3795Z" fill="#FEF7C9"/>
<path d="M17.2691 38.9193C16.3621 38.5132 15.4115 38.1794 14.5658 37.6721C14.1079 37.3975 13.8288 36.827 13.428 36.3721C13.385 35.8794 13.383 35.4046 13.3854 34.8631C13.8463 33.7878 14.6974 33.2427 15.6793 32.8384C16.1501 32.6446 16.6037 32.4091 17.1142 32.2441C17.2071 32.5132 17.2886 32.7306 17.2887 32.9481C17.2902 34.9385 17.2776 36.9289 17.2691 38.9193Z" fill="#FEF7C9"/>
<path d="M71.0753 32.3206C70.981 32.3653 70.8855 32.3512 70.7276 32.2786C70.576 32.1978 70.4868 32.1754 70.3976 32.153C70.3976 32.153 70.3983 32.1626 70.3771 32.1205C70.2353 32.0587 70.1148 32.0391 69.9943 32.0195C69.9943 32.0195 69.9933 32.0294 69.9886 31.9785C69.1759 31.5122 68.3679 31.097 67.5598 30.6188C67.5597 23.6597 67.5618 16.7635 67.5538 9.8673C67.5534 9.49313 67.4685 9.11907 67.4229 8.74496C68.552 8.20637 69.6812 7.66778 70.8577 7.12012C70.9609 7.3833 71.0654 7.6555 71.0657 7.92781C71.0748 16.0391 71.0737 24.1504 71.0753 32.3206Z" fill="#E7AE54"/>
<path d="M67.3739 8.74951C67.4684 9.11914 67.5534 9.49321 67.5538 9.86737C67.5618 16.7636 67.5597 23.6597 67.5112 30.6142C66.186 30.0567 64.9094 29.441 63.6354 28.766C63.6839 28.4217 63.7694 28.1367 63.7698 27.8516C63.7778 22.4337 63.7828 17.0157 63.7585 11.5979C63.7571 11.2752 63.505 10.9537 63.3696 10.6316C64.6881 10.0057 66.0065 9.37985 67.3739 8.74951Z" fill="#E9B35C"/>
<path d="M32.9502 24.8444C34.1362 24.2799 35.3222 23.7155 36.6084 23.1572C36.8134 23.4811 37.0078 23.7983 37.0092 24.1163C37.0292 28.5657 37.0192 33.0151 37.0288 37.4645C37.0297 37.8606 37.1162 38.2564 37.1338 38.6856C35.8178 39.3683 34.5311 40.0178 33.2232 40.6135C33.1694 40.2749 33.1089 39.99 33.1085 39.7051C33.1024 35.4377 33.1111 31.1702 33.0974 26.9028C33.0952 26.2165 33.0016 25.5305 32.9502 24.8444Z" fill="#F7DEA0"/>
<path d="M63.3212 10.6367C63.5054 10.9537 63.7574 11.2753 63.7588 11.598C63.7831 17.0158 63.7782 22.4338 63.7702 27.8517C63.7697 28.1368 63.6842 28.4218 63.586 28.7561C62.4479 28.3362 61.3247 28.0475 60.1293 28.0425C60.1287 23.0296 60.1312 18.0784 60.1219 13.1271C60.1213 12.8228 60.0275 12.5187 59.9771 12.2145C61.0755 11.6903 62.174 11.166 63.3212 10.6367Z" fill="#EBB964"/>
<path d="M37.1631 38.6525C37.1164 38.2566 37.0298 37.8607 37.029 37.4647C37.0193 33.0153 37.0293 28.5658 37.0094 24.1165C37.0079 23.7984 36.8135 23.4812 36.6572 23.1531C37.9261 22.5141 39.2466 21.8856 40.6182 21.3179C40.67 26.1145 40.6672 30.8503 40.6773 35.586C40.6781 35.9816 40.7661 36.377 40.788 36.8084C39.5627 37.447 38.3629 38.0498 37.1631 38.6525Z" fill="#F5D997"/>
<path d="M32.9016 24.8564C33.0018 25.5303 33.0954 26.2163 33.0976 26.9026C33.1113 31.17 33.1026 35.4375 33.1087 39.7049C33.1091 39.9899 33.1696 40.2747 33.1992 40.6507C31.9949 41.2495 30.7935 41.7571 29.5919 42.2012C29.5916 37.2261 29.5941 32.3145 29.585 27.4029C29.5845 27.098 29.493 26.7934 29.4438 26.4886C30.5801 25.9486 31.7165 25.4087 32.9016 24.8564Z" fill="#F8E4A9"/>
<path d="M59.9288 12.2251C60.0274 12.5184 60.1212 12.8225 60.1218 13.1268C60.1311 18.078 60.1285 23.0293 60.0672 28.0507C58.8729 28.033 57.8069 28.3198 56.7539 28.6368C56.7057 28.1362 56.6221 27.6945 56.6211 27.2527C56.6111 23.0427 56.6175 18.8326 56.6092 14.6226C56.6087 14.3684 56.5231 14.1143 56.4771 13.8602C57.6116 13.3188 58.7461 12.7774 59.9288 12.2251Z" fill="#ECBD6B"/>
<path d="M40.8133 36.7725C40.7658 36.377 40.6778 35.9816 40.677 35.586C40.6668 30.8503 40.6696 26.1145 40.6675 21.3147C41.7004 20.7561 42.7349 20.2614 43.8652 19.7983C43.9902 20.0925 44.0447 20.3549 44.045 20.6174C44.0503 25.0757 44.0432 29.5339 44.0602 33.9921C44.0615 34.3248 44.2253 34.6569 44.2861 35.0259C43.1103 35.6324 41.9618 36.2025 40.8133 36.7725Z" fill="#F3D48F"/>
<path d="M47.0093 18.2798C48.0155 17.794 49.0217 17.3081 50.1228 16.8452C50.3233 17.1659 50.5197 17.4633 50.5211 17.7616C50.5408 22.1755 50.5323 26.5896 50.5408 31.0036C50.5413 31.257 50.6304 31.5103 50.6494 31.8002C49.5636 32.3535 48.5066 32.8702 47.4009 33.3611C47.2869 33.0663 47.1658 32.7975 47.165 32.5285C47.1533 28.0825 47.1596 23.6365 47.1504 19.1905C47.1497 18.8868 47.0584 18.5834 47.0093 18.2798Z" fill="#F0CB81"/>
<path d="M50.6783 31.7634C50.6305 31.5101 50.5414 31.2568 50.5409 31.0034C50.5324 26.5894 50.5409 22.1753 50.5211 17.7614C50.5198 17.4631 50.3234 17.1657 50.1724 16.8445C51.265 16.2843 52.4029 15.7474 53.5972 15.2578C53.6948 15.6128 53.7717 15.9204 53.7723 16.2281C53.7801 20.5556 53.7722 24.8831 53.7905 29.2106C53.7916 29.4826 53.9774 29.7539 54.0466 30.0622C52.9034 30.6537 51.7909 31.2085 50.6783 31.7634Z" fill="#EFC77A"/>
<path d="M46.9608 18.2866C47.0586 18.5835 47.15 18.887 47.1506 19.1906C47.1598 23.6366 47.1535 28.0826 47.1653 32.5286C47.166 32.7977 47.2872 33.0664 47.3714 33.3982C46.365 33.9704 45.3394 34.4798 44.3139 34.9892C44.2256 34.6568 44.0619 34.3247 44.0606 33.992C44.0435 29.5338 44.0507 25.0756 44.0454 20.6174C44.0451 20.3549 43.9906 20.0924 43.9136 19.7933C44.8813 19.2688 45.8967 18.781 46.9608 18.2866Z" fill="#F2CF88"/>
<path d="M29.3951 26.4956C29.4931 26.7936 29.5845 27.0983 29.5851 27.4032C29.5941 32.3148 29.5916 37.2264 29.5531 42.2385C28.5433 42.5138 27.5775 42.5139 26.6196 42.1871C26.6191 37.7384 26.6223 33.3523 26.6127 28.9662C26.6119 28.5923 26.5256 28.2186 26.479 27.8448C27.4348 27.3973 28.3906 26.9498 29.3951 26.4956Z" fill="#FAE8B0"/>
<path d="M26.4297 27.8525C26.5252 28.2183 26.6115 28.592 26.6123 28.9659C26.6219 33.3521 26.6187 37.7382 26.5663 42.1887C25.4232 41.8923 24.3326 41.5315 23.2415 41.1084C23.2408 37.4384 23.2436 33.8308 23.234 30.2233C23.2333 29.9705 23.141 29.7181 23.0913 29.4655C24.1878 28.9305 25.2843 28.3955 26.4297 27.8525Z" fill="#FBECB7"/>
<path d="M54.0771 30.0255C53.9772 29.7538 53.7914 29.4825 53.7903 29.2105C53.772 24.883 53.7799 20.5555 53.7721 16.228C53.7715 15.9203 53.6946 15.6127 53.6455 15.2479C54.5512 14.7478 55.4645 14.3047 56.4274 13.8608C56.5229 14.1142 56.6085 14.3683 56.609 14.6225C56.6173 18.8325 56.6109 23.0425 56.6209 27.2525C56.6219 27.6944 56.7055 28.1361 56.7235 28.67C55.8232 29.1833 54.9501 29.6044 54.0771 30.0255Z" fill="#EDC273"/>
<path d="M23.0424 29.4688C23.141 29.7181 23.2333 29.9706 23.234 30.2233C23.2435 33.8308 23.2408 37.4384 23.1958 41.0936C22.19 40.7492 21.2293 40.3572 20.2684 39.9023C20.268 37.1107 20.2719 34.3817 20.2616 31.6529C20.2605 31.3705 20.1742 31.0885 20.1274 30.8064C21.0828 30.3616 22.0381 29.9168 23.0424 29.4688Z" fill="#FCF1BE"/>
<path d="M20.0785 30.814C20.1744 31.0884 20.2607 31.3704 20.2618 31.6527C20.2721 34.3816 20.2681 37.1105 20.2189 39.8984C19.3879 39.6941 18.6062 39.4307 17.8246 39.1674C17.8246 39.1674 17.8343 39.1649 17.8147 39.1323C17.715 39.0776 17.6348 39.0554 17.5547 39.0333C17.5547 39.0333 17.5639 39.03 17.5434 38.9983C17.4435 38.9439 17.364 38.9214 17.2846 38.8988C17.2846 38.8988 17.2825 38.9131 17.2758 38.916C17.2776 36.9285 17.2902 34.9381 17.2887 32.9477C17.2886 32.7302 17.2071 32.5128 17.1616 32.2397C18.1164 31.73 19.073 31.2758 20.0785 30.814Z" fill="#FDF5C5"/>
<path d="M18.4208 62.9672C18.2398 62.6894 17.994 62.3986 17.9891 62.1037C17.955 60.0682 17.9711 58.0317 17.9711 55.9956C17.9711 50.7821 17.9694 45.5687 17.9756 40.3552C17.9759 40.0704 18.0415 39.7857 18.1475 39.458C19.4932 39.9867 20.768 40.5584 22.0377 41.1961C22.0342 47.9311 22.036 54.5999 22.0378 61.2688C20.8476 61.83 19.6575 62.3912 18.4208 62.9672Z" fill="#E8B159"/>
<path d="M58.925 44.0359C57.6066 44.6623 56.2883 45.2887 54.9172 45.8619C54.8625 41.0511 54.8659 36.2935 54.8467 31.536C54.8454 31.2062 54.6756 30.8771 54.6123 30.5108C55.0976 30.239 55.5389 29.9637 56.0153 29.7775C56.9223 29.4231 57.8494 29.1197 58.8096 28.834C58.8715 29.138 58.9091 29.4029 58.9095 29.668C58.9174 34.4573 58.9207 39.2466 58.925 44.0359Z" fill="#F9E5AA"/>
<path d="M54.5842 30.5474C54.6757 30.8768 54.8455 31.2059 54.8468 31.5358C54.866 36.2933 54.8626 41.0509 54.8688 45.8751C53.7753 46.4615 52.6776 46.9812 51.4842 47.4774C51.3291 47.1814 51.2186 46.909 51.218 46.6364C51.2072 42.1768 51.2153 37.7171 51.1985 33.2576C51.1974 32.9815 51.0256 32.706 50.9614 32.3933C52.1878 31.7533 53.386 31.1503 54.5842 30.5474Z" fill="#F7DFA1"/>
<path d="M22.0838 61.2589C22.0357 54.5999 22.0339 47.931 22.0862 41.2095C23.0921 41.5748 24.044 41.9929 24.9962 42.4729C24.9967 47.8909 24.9913 53.2469 25.0088 58.6029C25.01 58.9875 25.1784 59.3714 25.2691 59.7557C24.3506 60.1941 23.432 60.6325 22.4437 61.0921C22.3445 61.1283 22.3214 61.1499 22.3045 61.1781C22.2464 61.2018 22.1883 61.2255 22.0838 61.2589Z" fill="#EAB660"/>
<path d="M50.9334 32.4307C51.0257 32.7064 51.1975 32.9819 51.1986 33.2579C51.2153 37.7175 51.2073 42.1772 51.218 46.6368C51.2187 46.9094 51.3292 47.1818 51.4353 47.4808C50.2556 48.0927 49.0291 48.678 47.745 49.2119C47.6456 48.854 47.5681 48.5476 47.5676 48.2411C47.5591 43.5505 47.5606 38.8598 47.5878 34.1334C48.7217 33.542 49.8275 32.9863 50.9334 32.4307Z" fill="#F6DA99"/>
<path d="M47.5597 34.1689C47.5604 38.8596 47.5589 43.5503 47.5674 48.2409C47.5679 48.5474 47.6455 48.8537 47.6956 49.2173C46.4776 49.8591 45.2512 50.4439 43.9719 50.9739C43.9162 45.9623 43.9132 41.0054 43.9389 36.0135C45.165 35.3753 46.3623 34.7721 47.5597 34.1689Z" fill="#F4D590"/>
<path d="M58.9741 44.0274C58.9206 39.2463 58.9173 34.457 58.9094 29.6677C58.909 29.4027 58.8714 29.1377 58.8516 28.7954C60.1514 28.6375 61.4558 28.5023 62.6961 29.129C62.6956 33.2716 62.6905 37.3509 62.7082 41.4301C62.7092 41.6653 62.8957 41.8996 62.9958 42.1343C61.6717 42.7626 60.3475 43.3909 58.9741 44.0274Z" fill="#FAEAB3"/>
<path d="M41.0931 52.3589C39.9607 52.8895 38.8282 53.42 37.6059 53.9353C37.4868 53.6578 37.4323 53.3956 37.432 53.1334C37.4267 48.8142 37.4308 44.495 37.4216 40.1759C37.421 39.9245 37.3248 39.6734 37.3032 39.3859C38.4479 38.7944 39.5623 38.2391 40.7158 37.7241C40.772 38.0077 40.8038 38.2511 40.804 38.4944C40.807 42.7884 40.7999 47.0824 40.8186 51.3763C40.82 51.7042 40.9975 52.0314 41.0931 52.3589Z" fill="#F0CC82"/>
<path d="M25.3154 59.7395C25.1787 59.3715 25.0103 58.9875 25.009 58.603C24.9916 53.247 24.997 47.8909 25.047 42.4736C26.0544 42.6355 27.0117 42.8587 27.9693 43.1439C27.9697 48.0264 27.9675 52.8468 27.9767 57.6672C27.9771 57.9188 28.0753 58.1701 28.1279 58.4216C27.2058 58.8555 26.2836 59.2894 25.3154 59.7395Z" fill="#EBBA66"/>
<path d="M28.1759 58.4159C28.0753 58.17 27.9772 57.9186 27.9767 57.6671C27.9675 52.8466 27.9698 48.0262 28.0293 43.1352C29.0825 42.8843 30.0761 42.704 31.1112 42.5625C31.1727 42.8435 31.2101 43.0856 31.2103 43.3278C31.2139 47.5038 31.2041 51.6798 31.2305 55.8556C31.2325 56.1692 31.4863 56.4811 31.623 56.7938C30.4899 57.3327 29.3569 57.8715 28.1759 58.4159Z" fill="#ECBE6C"/>
<path d="M41.137 52.3393C40.9972 52.0317 40.8198 51.7046 40.8183 51.3766C40.7997 47.0827 40.8068 42.7887 40.8037 38.4947C40.8036 38.2514 40.7717 38.0081 40.7432 37.6881C41.7912 37.0906 42.8507 36.5697 43.9101 36.0488C43.9131 41.0057 43.916 45.9626 43.9229 50.9861C43.0115 51.475 42.0963 51.8972 41.137 52.3393Z" fill="#F2D089"/>
<path d="M37.2728 39.4224C37.3245 39.6736 37.4208 39.9247 37.4213 40.176C37.4305 44.4952 37.4264 48.8144 37.4317 53.1336C37.432 53.3958 37.4865 53.6579 37.5636 53.957C36.5967 54.4781 35.5821 54.9621 34.4765 55.4125C34.3637 55.1369 34.3231 54.8952 34.3229 54.6533C34.3191 50.0729 34.3201 45.4925 34.3468 40.8743C35.3399 40.3652 36.3063 39.8938 37.2728 39.4224Z" fill="#EFC77B"/>
<path d="M34.3204 40.9121C34.3204 45.4925 34.3193 50.0729 34.3231 54.6534C34.3233 54.8952 34.3639 55.137 34.4283 55.4175C33.552 55.8915 32.6331 56.3267 31.6685 56.778C31.486 56.4813 31.2323 56.1693 31.2303 55.8558C31.2038 51.68 31.2136 47.5039 31.2101 43.3279C31.2098 43.0858 31.1725 42.8436 31.1426 42.5274C32.1953 41.9395 33.2578 41.4258 34.3204 40.9121Z" fill="#EDC273"/>
<path d="M63.0383 42.1109C62.8959 41.8997 62.7095 41.6654 62.7084 41.4302C62.6908 37.351 62.6959 33.2717 62.7474 29.1304C63.8915 29.5617 64.9842 30.0551 66.0362 30.5876C65.9764 32.8584 65.9396 35.0902 65.946 37.3219C65.9492 38.4333 66.0315 39.5444 66.0781 40.6557C65.0789 41.1329 64.0797 41.6101 63.0383 42.1109Z" fill="#FBEFBB"/>
<path d="M66.1287 40.6504C66.0315 39.5445 65.9492 38.4333 65.946 37.3219C65.9396 35.0903 65.9764 32.8585 66.0872 30.5889C67.0008 30.9066 67.8226 31.2621 68.6443 31.6177C68.6432 33.8722 68.637 36.1267 68.6468 38.3812C68.6481 38.6876 68.729 38.9937 68.7748 39.3556C67.9109 39.8225 67.0452 40.2338 66.1287 40.6504Z" fill="#FCF3C2"/>
<path d="M22.3298 61.1755C22.3215 61.1499 22.3446 61.1283 22.3967 61.105C22.4075 61.13 22.3861 61.1554 22.3298 61.1755Z" fill="#E8B159"/>
<path d="M68.6953 31.6208C67.8226 31.2621 67.0008 30.9066 66.128 30.5497C64.9842 30.0551 63.8915 29.5618 62.7477 29.0671C61.456 28.5025 60.1517 28.6377 58.8103 28.7566C57.8495 29.1196 56.9224 29.423 56.0154 29.7774C55.539 29.9636 55.0977 30.2389 54.6124 30.5107C53.3861 31.1505 52.1879 31.7534 50.9615 32.3934C49.8275 32.9861 48.7217 33.5417 47.5878 34.1331C46.3625 34.7721 45.1651 35.3753 43.9391 36.0135C42.8509 36.5694 41.7915 37.0903 40.7044 37.6475C39.5623 38.2392 38.4479 38.7944 37.3032 39.386C36.3066 39.8937 35.3402 40.3651 34.3471 40.8742C33.2579 41.4257 32.1953 41.9394 31.1012 42.4884C30.0759 42.704 29.0823 42.8844 28.0288 43.0732C27.0116 42.8586 26.0543 42.6354 25.0464 42.4116C24.0441 41.9929 23.0922 41.5748 22.0916 41.1433C20.7679 40.5583 19.493 39.9866 18.1694 39.4032C18.0361 39.3381 17.9514 39.2846 17.8457 39.1993C18.6063 39.4309 19.3879 39.6942 20.2193 39.9613C21.2296 40.3571 22.1902 40.7492 23.1966 41.156C24.3329 41.5316 25.4234 41.8923 26.567 42.2512C27.5774 42.5137 28.5431 42.5136 29.5532 42.3018C30.7934 41.7571 31.9948 41.2495 33.2203 40.7045C34.5312 40.0177 35.8179 39.3682 37.1339 38.6854C38.3629 38.0495 39.5626 37.4467 40.788 36.808C41.9621 36.2021 43.1106 35.6321 44.2864 35.0255C45.3393 34.4795 46.3649 33.9701 47.4201 33.4237C48.5068 32.8701 49.5637 32.3534 50.6495 31.8001C51.7909 31.2086 52.9035 30.6537 54.0467 30.0623C54.9504 29.6045 55.8234 29.1834 56.7267 28.729C57.807 28.3198 58.8729 28.0331 60.0677 28.1123C61.3246 28.0472 62.4478 28.3359 63.5833 28.8151C64.9097 29.4407 66.1863 30.0565 67.5115 30.6769C68.3682 31.0968 69.1762 31.5121 69.9921 31.9745C69.5821 31.8891 69.1642 31.7565 68.6953 31.6208Z" fill="#FEFDF9"/>
<path d="M17.5747 39.0711C17.6351 39.0558 17.7153 39.078 17.8157 39.1377C17.7555 39.1529 17.675 39.1307 17.5747 39.0711Z" fill="#FEFDF9"/>
<path d="M17.3027 38.9376C17.364 38.9216 17.4434 38.9442 17.544 39.0034C17.4837 39.0187 17.4023 38.9974 17.3027 38.9376Z" fill="#FEFDF9"/>
<path d="M70.02 32.0584C70.1149 32.0392 70.2354 32.0588 70.3815 32.1184C70.2866 32.138 70.1661 32.1176 70.02 32.0584Z" fill="#FEFDF9"/>
<path d="M70.4238 32.1929C70.4868 32.1753 70.576 32.1977 70.6963 32.2557C70.635 32.2718 70.5425 32.2523 70.4238 32.1929Z" fill="#FEFDF9"/>
</g>
<defs>
<clipPath id="clip0_1377_1844">
<rect width="237" height="72" fill="white"/>
</clipPath>
</defs>
</svg>
