<?xml version="1.0" encoding="UTF-8"?>
<svg version="1.1" xmlns="http://www.w3.org/2000/svg" width="628" height="192" viewBox="-90 0 720 200">
    <path
        d="M0 0 C5.54184334 0.04996449 11.08353888 0.07573876 16.6255579 0.09643078 C20.93145966 0.11679479 25.23708079 0.15465026 29.54281425 0.19729042 C31.58760586 0.21454582 33.63246367 0.22530597 35.6773243 0.22923851 C38.52335328 0.23633707 41.36810377 0.26827462 44.21386719 0.30615234 C45.04349976 0.30269302 45.87313232 0.2992337 46.72790527 0.29566956 C52.27578436 0.40453899 57.0046303 1.49790431 61.5378418 4.86791992 C62.1862793 7.41870117 62.1862793 7.41870117 61.9128418 10.18041992 C61.79275479 13.03516081 61.79275479 13.03516081 62.5378418 15.86791992 C64.7518134 17.60135625 64.7518134 17.60135625 67.50099182 18.92036438 C72.24928462 22.02753438 72.24928462 22.02753438 73.47208977 25.58879662 C73.80365743 28.99868112 73.83245499 32.29095275 73.75244141 35.71630859 C73.76193314 36.99837692 73.77142487 38.28044525 73.78120422 39.60136414 C73.80534131 43.10230626 73.76732573 46.60003773 73.71643901 50.10059142 C73.67236949 53.76886926 73.68132676 57.43705642 73.6832428 61.10554504 C73.67856797 67.26182515 73.63526015 73.41686885 73.56689453 79.57275391 C73.48816829 86.68780233 73.46190781 93.80149981 73.4655723 100.91695231 C73.46894993 108.49989331 73.43425487 116.08231437 73.38833928 123.66509843 C73.3776885 125.84778398 73.3741343 128.03038554 73.3721447 130.21309471 C73.36618675 134.27861614 73.31762671 138.34254101 73.26416016 142.40771484 C73.26642609 143.61663391 73.26869202 144.82555298 73.27102661 146.07110596 C73.11515763 154.15549813 73.11515763 154.15549813 70.30905151 157.61830139 C67.42504917 158.91878138 65.61809476 159.35453752 62.47216797 159.32202148 C61.49152878 159.32171936 60.51088959 159.32141724 59.50053406 159.32110596 C58.4545253 159.30046082 57.40851654 159.27981567 56.33081055 159.25854492 C55.25027908 159.25288513 54.16974762 159.24722534 53.05647278 159.24139404 C49.61230791 159.21904035 46.16919115 159.16884383 42.7253418 159.11791992 C40.38746622 159.09785371 38.0495743 159.07960315 35.71166992 159.06323242 C29.98670418 159.01917887 24.26234788 158.95227613 18.5378418 158.86791992 C18.68802809 157.45825341 18.84009357 156.04878704 18.99291992 154.6394043 C19.0773938 153.85448608 19.16186768 153.06956787 19.24890137 152.26086426 C19.69097108 148.59973513 20.34775501 144.98916742 21.0378418 141.36791992 C21.16803711 140.6537793 21.29823242 139.93963867 21.43237305 139.20385742 C22.41320772 133.992554 22.41320772 133.992554 23.5378418 132.86791992 C25.7873054 132.78842317 28.0375078 132.72944172 30.2878418 132.68041992 C36.15214457 132.47678893 36.15214457 132.47678893 40.8503418 129.43041992 C43.28009624 124.30093832 43.5378418 119.47506374 43.5378418 113.86791992 C38.2578418 113.53791992 32.9778418 113.20791992 27.5378418 112.86791992 C27.5378418 104.07690795 28.40287199 94.68455304 34.5378418 87.86791992 C39.70832609 84.41445109 43.76678179 83.18410256 49.9128418 82.68041992 C54.6062846 82.63912128 54.6062846 82.63912128 58.5378418 80.86791992 C58.47353049 79.07304987 58.33644193 77.28053214 58.1628418 75.49291992 C58.02749023 74.02725586 58.02749023 74.02725586 57.8894043 72.53198242 C57.61051378 69.77028094 57.61051378 69.77028094 56.5378418 66.86791992 C52.78172109 64.36383945 49.76586523 64.52362897 45.4128418 64.55541992 C44.64528564 64.55960937 43.87772949 64.56379883 43.08691406 64.56811523 C37.43676539 64.68072288 32.67063952 65.39001757 27.5378418 67.86791992 C26.80952148 68.2159668 26.08120117 68.56401367 25.33081055 68.92260742 C23.96587384 69.59646806 22.60891168 70.28698159 21.2644043 71.00073242 C19.5378418 71.86791992 19.5378418 71.86791992 16.5378418 72.86791992 C16.2490918 73.44541992 15.9603418 74.02291992 15.6628418 74.61791992 C14.5378418 76.86791992 14.5378418 76.86791992 12.2878418 78.86791992 C4.38236894 86.6334729 2.33914936 97.82070914 0.29956055 108.25463867 C-0.4621582 111.86791992 -0.4621582 111.86791992 -1.4621582 112.86791992 C-3.44200404 113.01481354 -5.42681425 113.09552152 -7.41137695 113.14916992 C-8.65338867 113.18655273 -9.89540039 113.22393555 -11.17504883 113.26245117 C-13.14248047 113.3146582 -13.14248047 113.3146582 -15.1496582 113.36791992 C-24.94954819 113.63833079 -34.68966291 114.08906934 -44.4621582 114.86791992 C-44.4621582 115.52791992 -44.4621582 116.18791992 -44.4621582 116.86791992 C-42.98102539 116.94139648 -42.98102539 116.94139648 -41.4699707 117.01635742 C-40.18864258 117.09112305 -38.90731445 117.16588867 -37.5871582 117.24291992 C-36.31098633 117.3125293 -35.03481445 117.38213867 -33.7199707 117.45385742 C-30.4621582 117.86791992 -30.4621582 117.86791992 -28.4621582 119.86791992 C-28.4621582 120.85791992 -28.4621582 121.84791992 -28.4621582 122.86791992 C-30.7721582 122.86791992 -33.0821582 122.86791992 -35.4621582 122.86791992 C-35.4621582 123.52791992 -35.4621582 124.18791992 -35.4621582 124.86791992 C-34.5134082 124.84729492 -33.5646582 124.82666992 -32.5871582 124.80541992 C-29.4621582 124.86791992 -29.4621582 124.86791992 -27.4621582 125.86791992 C-27.4621582 126.85791992 -27.4621582 127.84791992 -27.4621582 128.86791992 C-30.3870215 129.70983774 -32.96957476 129.98611305 -36.0090332 129.96557617 C-36.85336914 129.96235352 -37.69770508 129.95913086 -38.56762695 129.95581055 C-39.44032227 129.94743164 -40.31301758 129.93905273 -41.2121582 129.93041992 C-42.5444043 129.92365234 -42.5444043 129.92365234 -43.90356445 129.91674805 C-46.08983149 129.90499392 -48.27595999 129.88856241 -50.4621582 129.86791992 C-50.4621582 130.52791992 -50.4621582 131.18791992 -50.4621582 131.86791992 C-49.56424561 131.86211914 -48.66633301 131.85631836 -47.74121094 131.8503418 C-38.32268272 131.81630259 -28.9380646 132.02392384 -19.5246582 132.36791992 C-18.14771347 132.41633639 -16.77076034 132.46451432 -15.39379883 132.51245117 C-12.08316217 132.62861386 -8.77262871 132.74713031 -5.4621582 132.86791992 C-5.84833272 139.27309043 -6.7009613 145.48815624 -8.00512695 151.77026367 C-8.14511108 152.45664917 -8.28509521 153.14303467 -8.42932129 153.85021973 C-8.77093641 155.52333257 -9.11616911 157.19570611 -9.4621582 158.86791992 C-18.89371882 158.98383067 -28.32503383 159.07264332 -37.7571516 159.12698078 C-42.13702256 159.1530618 -46.51640582 159.18843173 -50.89599609 159.24511719 C-55.12354123 159.29949155 -59.35061763 159.32935172 -63.57848549 159.34230614 C-65.19046723 159.3515364 -66.80242366 159.36956151 -68.41420555 159.39657021 C-70.67448484 159.43293539 -72.93283406 159.43786256 -75.19335938 159.43554688 C-76.47909348 159.44664993 -77.76482758 159.45775299 -79.08952332 159.4691925 C-82.4621582 158.86791992 -82.4621582 158.86791992 -85.37205505 157.11355591 C-88.61876775 152.07186811 -88.19144594 147.24973768 -88.17260742 141.37011719 C-88.18779419 140.10130707 -88.20298096 138.83249695 -88.21862793 137.52523804 C-88.25844993 134.05195501 -88.26613036 130.57931419 -88.26551199 127.10582852 C-88.26729474 124.2032177 -88.28322504 121.30074747 -88.29863369 118.39818233 C-88.33412847 111.54905976 -88.34192554 104.70027195 -88.33374023 97.85107422 C-88.32589631 90.7914264 -88.36987936 83.73340532 -88.43854129 76.67412335 C-88.49542538 70.60679986 -88.51747653 64.540003 -88.51230633 58.47241634 C-88.50973104 54.85112335 -88.52084484 51.23117336 -88.56655502 47.61013985 C-88.61600069 43.5706912 -88.59294626 39.53475898 -88.56323242 35.49511719 C-88.58773468 34.29959732 -88.61223694 33.10407745 -88.63748169 31.87232971 C-88.49686029 23.95590839 -88.49686029 23.95590839 -85.45526505 20.75767326 C-79.80946541 16.86791992 -79.80946541 16.86791992 -76.4621582 16.86791992 C-76.4621582 12.90791992 -76.4621582 8.94791992 -76.4621582 4.86791992 C-69.86662883 1.54501635 -64.80746056 0.22283106 -57.46606445 0.10620117 C-55.90427208 0.06297478 -55.90427208 0.06297478 -54.31092834 0.01887512 C-36.21421709 -0.38270288 -18.09835233 -0.16645087 0 0 Z M-43.2121582 10.05541992 C-44.76055243 11.87463439 -44.76055243 11.87463439 -44.1496582 14.55541992 C-43.9227832 15.31854492 -43.6959082 16.08166992 -43.4621582 16.86791992 C-41.61490768 17.55951393 -41.61490768 17.55951393 -39.4621582 17.86791992 C-38.4721582 17.20791992 -37.4821582 16.54791992 -36.4621582 15.86791992 C-37.1180101 12.25799613 -37.1180101 12.25799613 -38.4621582 8.86791992 C-41.40089791 8.58716921 -41.40089791 8.58716921 -43.2121582 10.05541992 Z M21.5378418 10.86791992 C21.8678418 12.84791992 22.1978418 14.82791992 22.5378418 16.86791992 C24.38509232 17.55951393 24.38509232 17.55951393 26.5378418 17.86791992 C27.5278418 17.20791992 28.5178418 16.54791992 29.5378418 15.86791992 C28.8819899 12.25799613 28.8819899 12.25799613 27.5378418 8.86791992 C25.07505379 8.86791992 23.68560061 9.72244855 21.5378418 10.86791992 Z M-43.4621582 33.86791992 C-44.18896595 40.55455119 -42.06464278 45.2660564 -38.4621582 50.86791992 C-36.29459195 53.41287495 -33.94423798 55.63571395 -31.4621582 57.86791992 C-30.52823242 58.88499023 -30.52823242 58.88499023 -29.57543945 59.92260742 C-23.22582002 65.76754361 -13.75129393 66.45246452 -5.47485352 66.34008789 C4.64449557 65.89685168 14.23765287 63.11621177 21.5378418 55.86791992 C27.49392323 49.10242229 28.89222336 42.72745912 28.5378418 33.86791992 C27.2178418 33.53791992 25.8978418 33.20791992 24.5378418 32.86791992 C24.46307617 33.62975586 24.38831055 34.3915918 24.3112793 35.17651367 C23.2501699 43.50934334 21.22541991 49.91640779 14.6472168 55.46166992 C5.80660534 61.44822571 -4.07148407 61.77861259 -14.4621582 60.86791992 C-18.03970376 59.91609587 -21.17671976 58.5538686 -24.4621582 56.86791992 C-25.5552832 56.41416992 -26.6484082 55.96041992 -27.7746582 55.49291992 C-36.14919251 50.42924802 -38.06198661 41.73009196 -40.4621582 32.86791992 C-41.685765 32.79338432 -41.685765 32.79338432 -43.4621582 33.86791992 Z "
        fill="#6A7892" transform="translate(537.462158203125,15.132080078125)" />
    <path
        d="M0 0 C5.68835199 5.54614319 8.27668157 9.8464885 8.66796875 17.890625 C8.73608576 31.13257087 7.16616982 42.4951539 -2.5 52.4375 C-12.7204634 60.12526085 -24.10385667 60.53047108 -36.5 60.4375 C-36.58040527 61.00259277 -36.66081055 61.56768555 -36.74365234 62.14990234 C-37.11218188 64.70542602 -37.49342652 67.25889284 -37.875 69.8125 C-38.00132812 70.70195312 -38.12765625 71.59140625 -38.2578125 72.5078125 C-38.45117188 73.78398437 -38.45117188 73.78398437 -38.6484375 75.0859375 C-38.76364746 75.87145996 -38.87885742 76.65698242 -38.99755859 77.46630859 C-39.5 79.4375 -39.5 79.4375 -41.5 81.4375 C-44.7578125 81.6328125 -44.7578125 81.6328125 -48.625 81.5625 C-50.54699219 81.53542969 -50.54699219 81.53542969 -52.5078125 81.5078125 C-53.49523437 81.48460937 -54.48265625 81.46140625 -55.5 81.4375 C-57.68176426 77.12608935 -57.50293956 74.26276001 -56.74902344 69.53930664 C-56.6452388 68.86546432 -56.54145416 68.19162201 -56.43452454 67.49736023 C-56.08928374 65.27849403 -55.72468117 63.06329993 -55.359375 60.84765625 C-55.11364503 59.29992368 -54.86897094 57.75202313 -54.62530518 56.20396423 C-54.11218527 52.96213702 -53.59014756 49.72192081 -53.06103516 46.48266602 C-52.38469892 42.34103365 -51.72465124 38.19702387 -51.07055283 34.05182743 C-50.56535913 30.85543854 -50.05449492 27.65997814 -49.54163361 24.46481133 C-49.2966133 22.93763308 -49.05263767 21.41028684 -48.80974579 19.88276863 C-48.46795501 17.74264708 -48.11928553 15.6037602 -47.76855469 13.46508789 C-47.57154968 12.2499501 -47.37454468 11.03481232 -47.17156982 9.78285217 C-45.49532612 1.43282612 -45.49532612 1.43282612 -43.5 -0.5625 C-41.66884117 -0.66101171 -39.83380067 -0.69222629 -38 -0.6875 C-36.9996875 -0.69007812 -35.999375 -0.69265625 -34.96875 -0.6953125 C-32.5 -0.5625 -32.5 -0.5625 -31.5 0.4375 C-31.45907063 2.77047433 -31.45758277 5.10455225 -31.5 7.4375 C-30.83613281 6.95539063 -30.17226562 6.47328125 -29.48828125 5.9765625 C-28.60527344 5.34492187 -27.72226563 4.71328125 -26.8125 4.0625 C-25.94238281 3.43601562 -25.07226562 2.80953125 -24.17578125 2.1640625 C-16.92400453 -2.51518613 -7.98703916 -3.56564248 0 0 Z M-21.125 15.5625 C-21.90875 16.51125 -22.6925 17.46 -23.5 18.4375 C-24.345625 19.22125 -25.19125 20.005 -26.0625 20.8125 C-32.7090368 27.97030887 -33.66270851 35.00040621 -33.5 44.4375 C-27.97483137 46.20555396 -23.23083526 46.02624138 -18.0625 43.4375 C-16.86746945 42.78442828 -15.67710176 42.12235921 -14.5 41.4375 C-14.5 40.4475 -14.5 39.4575 -14.5 38.4375 C-13.84 38.4375 -13.18 38.4375 -12.5 38.4375 C-9.29865749 31.5012579 -7.67849241 23.5780046 -10.3125 16.14453125 C-11.50108252 14.06740229 -11.50108252 14.06740229 -14.8125 13.375 C-18.58505449 13.06028878 -18.58505449 13.06028878 -21.125 15.5625 Z "
        fill="#697790" transform="translate(181.5,82.5625)" />
    <path
        d="M0 0 C1.26972656 -0.00257812 2.53945312 -0.00515625 3.84765625 -0.0078125 C6.9375 0.125 6.9375 0.125 7.9375 1.125 C8.46479536 9.58022742 6.8295177 17.71087482 5.375 26 C4.88620017 28.7877113 4.40699627 31.57682522 3.93359375 34.3671875 C3.71888428 35.5929248 3.5041748 36.81866211 3.28295898 38.08154297 C2.71662304 41.16438053 2.71662304 41.16438053 3.9375 44.125 C5.2575 44.125 6.5775 44.125 7.9375 44.125 C8.205625 43.485625 8.47375 42.84625 8.75 42.1875 C9.9375 40.125 9.9375 40.125 12.9375 39.125 C14.00149247 36.84987353 14.00149247 36.84987353 14.9375 34.125 C15.93179484 32.19443283 16.9534802 30.27776328 18 28.375 C18.52722656 27.41078125 19.05445313 26.4465625 19.59765625 25.453125 C20.9375 23.125 20.9375 23.125 21.9375 22.125 C24.44886104 22.02524968 26.92653415 21.98617817 29.4375 22 C30.14003906 21.99613281 30.84257812 21.99226563 31.56640625 21.98828125 C36.81088622 21.99838622 36.81088622 21.99838622 37.9375 23.125 C37.9375 31.45599419 34.68256345 37.37451712 29.9375 44.125 C28.9475 44.62 28.9475 44.62 27.9375 45.125 C27.628125 45.764375 27.31875 46.40375 27 47.0625 C25.9375 49.125 25.9375 49.125 22.9375 51.125 C23.40004664 59.14247504 26.36899718 65.98799435 29.9375 73.125 C29.97772391 75.4579866 29.98070247 77.79206666 29.9375 80.125 C26.98547558 81.60101221 24.28422048 81.37310352 21 81.4375 C19.75347656 81.47488281 18.50695312 81.51226562 17.22265625 81.55078125 C13.9375 81.125 13.9375 81.125 12.1953125 79.578125 C10.51975574 76.31026895 9.08462466 72.9797982 7.75 69.5625 C7.47736328 68.89025391 7.20472656 68.21800781 6.92382812 67.52539062 C5.75612715 64.57833577 4.9375 62.32343856 4.9375 59.125 C2.4625 59.62 2.4625 59.62 -0.0625 60.125 C-0.14290527 60.69009277 -0.22331055 61.25518555 -0.30615234 61.83740234 C-0.67468188 64.39292602 -1.05592652 66.94639284 -1.4375 69.5 C-1.56382812 70.38945312 -1.69015625 71.27890625 -1.8203125 72.1953125 C-2.01367188 73.47148437 -2.01367188 73.47148437 -2.2109375 74.7734375 C-2.32614746 75.55895996 -2.44135742 76.34448242 -2.56005859 77.15380859 C-3.0625 79.125 -3.0625 79.125 -5.0625 81.125 C-7.62542317 81.29663731 -10.06595857 81.35764558 -12.625 81.3125 C-13.32302734 81.31185547 -14.02105469 81.31121094 -14.74023438 81.31054688 C-19.92218842 81.26531158 -19.92218842 81.26531158 -21.0625 80.125 C-20.88886127 70.94306534 -19.55790841 61.86869595 -18.06640625 52.82421875 C-17.87280014 51.62239456 -17.67919403 50.42057037 -17.47972107 49.18232727 C-17.07327358 46.66689992 -16.66390741 44.15194253 -16.25170898 41.63745117 C-15.62386938 37.80559955 -15.00553051 33.97230502 -14.38867188 30.13867188 C-13.99013599 27.67959787 -13.59106599 25.22061035 -13.19140625 22.76171875 C-13.00800186 21.62715744 -12.82459747 20.49259613 -12.63563538 19.32365417 C-10.61278615 7.02127663 -10.61278615 7.02127663 -9.0625 1.125 C-6.07566593 -0.36841703 -3.31850226 -0.00675178 0 0 Z "
        fill="#697691" transform="translate(214.0625,59.875)" />
    <path
        d="M0 0 C0.97775391 -0.00773437 1.95550781 -0.01546875 2.96289062 -0.0234375 C17.48373148 0.01495203 17.48373148 0.01495203 22.8125 2.25 C24.71343489 5.8942868 24.98531122 8.34266814 24.32104492 12.35986328 C24.16395554 13.35084015 24.00686615 14.34181702 23.84501648 15.36282349 C23.66284073 16.42129486 23.48066498 17.47976624 23.29296875 18.5703125 C23.11494217 19.66592499 22.93691559 20.76153748 22.75349426 21.89035034 C22.18174101 25.38746978 21.59081343 28.88105575 21 32.375 C20.61273609 34.73548114 20.22665448 37.09615658 19.84179688 39.45703125 C19.13208374 43.77215328 18.42143922 48.08706718 17.69213867 52.39892578 C17.54620773 53.26542755 17.40027679 54.13192932 17.24992371 55.02468872 C16.8125 57.25 16.8125 57.25 15.8125 60.25 C13.85483719 60.33082094 11.89623272 60.38910778 9.9375 60.4375 C8.30167969 60.48970703 8.30167969 60.48970703 6.6328125 60.54296875 C5.70210938 60.44628906 4.77140625 60.34960938 3.8125 60.25 C1.8125 57.25 1.8125 57.25 1.8125 53.25 C1.05324219 53.74371094 0.29398437 54.23742187 -0.48828125 54.74609375 C-1.48214844 55.38675781 -2.47601563 56.02742188 -3.5 56.6875 C-4.48613281 57.32558594 -5.47226562 57.96367187 -6.48828125 58.62109375 C-12.34495951 62.15544228 -18.52746728 61.84054477 -25.1875 61.25 C-30.49401457 58.73638783 -34.04452091 55.04988762 -36.2734375 49.58984375 C-39.1973235 38.90641412 -37.86895663 26.19463271 -33.1875 16.25 C-25.40789928 4.03642995 -13.8372752 -0.10733504 0 0 Z M-13.8125 18.4375 C-18.96969635 24.5447062 -19.66908626 29.59309729 -19.4921875 37.42578125 C-19.10096824 41.05208288 -18.19481928 43.23902108 -16.1875 46.25 C-13.00128867 46.80758698 -10.92397701 46.73237091 -8.18359375 44.9375 C-0.40909033 38.32843447 3.68177742 32.50843966 4.8125 22.25 C4.93454247 19.88490105 4.91552818 17.61964806 4.8125 15.25 C-2.15036283 13.0218839 -8.22804709 13.78378924 -13.8125 18.4375 Z "
        fill="#6A7790" transform="translate(289.1875,80.75)" />
    <path
        d="M0 0 C0.84827362 0.00444122 1.69654724 0.00888245 2.57052612 0.01345825 C3.53137115 0.01360931 4.49221619 0.01376038 5.48217773 0.01391602 C6.52179657 0.02423859 7.56141541 0.03456116 8.63253784 0.04519653 C9.6951181 0.04802643 10.75769836 0.05085632 11.85247803 0.05377197 C15.25584033 0.06499264 18.6589422 0.09010066 22.06222534 0.11550903 C24.36560697 0.12553639 26.6689927 0.13466266 28.97238159 0.14285278 C34.6274188 0.1649381 40.28230347 0.19843415 45.93722534 0.24050903 C47.15203124 2.67012083 47.17329802 4.40435019 47.24972534 7.11550903 C47.30579956 8.41101685 47.30579956 8.41101685 47.36300659 9.73269653 C46.78350562 13.14590411 45.65137048 14.11993695 42.93722534 16.24050903 C39.72921753 16.78640747 39.72921753 16.78640747 35.98410034 16.84988403 C34.99376801 16.87468842 34.99376801 16.87468842 33.98342896 16.8999939 C31.88459908 16.94839354 29.78649313 16.96982422 27.68722534 16.99050903 C26.26010574 17.01867587 24.83301975 17.04860432 23.40597534 17.08035278 C19.91654925 17.15414667 16.42726062 17.20377182 12.93722534 17.24050903 C12.72150879 18.92309814 12.72150879 18.92309814 12.50143433 20.63967896 C12.33587036 21.93107788 12.1703064 23.22247681 11.99972534 24.55300903 C11.90441528 25.30880249 11.80910522 26.06459595 11.71090698 26.84329224 C11.32728019 29.77526893 10.87472366 32.42801407 9.93722534 35.24050903 C10.68407593 35.2300354 11.43092651 35.21956177 12.20040894 35.20877075 C15.57098043 35.16730133 18.94149834 35.14121174 22.31222534 35.11550903 C23.48785034 35.09875122 24.66347534 35.08199341 25.87472534 35.06472778 C27.5569519 35.05505981 27.5569519 35.05505981 29.27316284 35.04519653 C30.31005249 35.0347229 31.34694214 35.02424927 32.41525269 35.01345825 C34.93722534 35.24050903 34.93722534 35.24050903 36.93722534 37.24050903 C37.01925659 39.51785278 37.01925659 39.51785278 36.74972534 42.17800903 C36.67367065 43.05328247 36.59761597 43.92855591 36.51925659 44.83035278 C35.83037832 47.68295609 35.27711694 48.49880391 32.93722534 50.24050903 C30.20993042 50.58108521 30.20993042 50.58108521 26.95675659 50.53347778 C25.79337769 50.52380981 24.62999878 50.51414185 23.43136597 50.50418091 C22.21642456 50.47904419 21.00148315 50.45390747 19.74972534 50.42800903 C18.52318237 50.41447388 17.2966394 50.40093872 16.03292847 50.38699341 C13.0005887 50.35159645 9.96912538 50.30221663 6.93722534 50.24050903 C6.88244019 50.9943689 6.82765503 51.74822876 6.77120972 52.52493286 C6.26676101 59.05559551 5.55236488 65.47455297 4.43722534 71.92800903 C4.30703003 72.72400513 4.17683472 73.52000122 4.04269409 74.34011841 C3.06695459 80.11077978 3.06695459 80.11077978 1.93722534 81.24050903 C-0.75932319 81.31370525 -3.42968924 81.33293441 -6.12527466 81.30300903 C-6.88388794 81.29849731 -7.64250122 81.2939856 -8.42410278 81.28933716 C-10.30369337 81.27751583 -12.18324365 81.25957981 -14.06277466 81.24050903 C-17.38677584 74.59250666 -14.30497654 64.25690932 -13.16433716 57.27957153 C-12.9693161 56.05321991 -12.77429504 54.82686829 -12.57336426 53.56335449 C-11.9513428 49.66299869 -11.31956667 45.76429273 -10.68777466 41.86550903 C-10.27049566 39.25362762 -9.8538231 36.64164925 -9.43777466 34.02957153 C-8.32913803 27.09708075 -7.21539541 20.1658331 -6.06277466 13.24050903 C-5.89477356 12.1854718 -5.72677246 11.13043457 -5.55368042 10.04342651 C-5.30560638 8.55616058 -5.30560638 8.55616058 -5.05252075 7.03884888 C-4.90962616 6.16046356 -4.76673157 5.28207825 -4.61950684 4.3770752 C-3.871548 1.50664016 -3.01050794 0.35100991 0 0 Z "
        fill="#6A7790" transform="translate(25.062774658203125,59.759490966796875)" />
    <path
        d="M0 0 C0.97066406 -0.00515625 1.94132812 -0.0103125 2.94140625 -0.015625 C5.4375 0.25 5.4375 0.25 7.4375 2.25 C7.4140625 5.2890625 7.4140625 5.2890625 7.0625 8.875 C6.89621094 10.65777344 6.89621094 10.65777344 6.7265625 12.4765625 C6.63117188 13.39179687 6.53578125 14.30703125 6.4375 15.25 C7.07558594 15.23839844 7.71367187 15.22679688 8.37109375 15.21484375 C9.19738281 15.20582031 10.02367187 15.19679688 10.875 15.1875 C11.69871094 15.17589844 12.52242188 15.16429688 13.37109375 15.15234375 C15.4375 15.25 15.4375 15.25 16.4375 16.25 C16.70808664 20.30879956 16.69991385 23.35029537 15.5625 27.25 C12.90843032 29.74794793 11.81705049 29.547364 8.25 29.5625 C6.64446626 29.48210847 5.03934626 29.3852403 3.4375 29.25 C3.38851563 29.94222656 3.33953125 30.63445312 3.2890625 31.34765625 C2.73135885 38.64588159 1.86400496 45.85377146 0.83984375 53.09765625 C0.37419692 56.21632383 0.37419692 56.21632383 0.4375 59.25 C1.39462891 59.34087891 1.39462891 59.34087891 2.37109375 59.43359375 C3.19738281 59.51738281 4.02367187 59.60117188 4.875 59.6875 C5.69871094 59.76871094 6.52242188 59.84992188 7.37109375 59.93359375 C9.4375 60.25 9.4375 60.25 10.4375 61.25 C10.59767882 65.41464926 10.41998196 69.19726192 9.4375 73.25 C2.65469804 75.79992555 -4.84864877 76.71319208 -11.890625 74.52734375 C-14.64613537 73.09748858 -16.32062657 71.72987851 -17.72265625 68.94824219 C-20.48485348 60.07388062 -18.12232264 49.92682283 -16.5625 41 C-16.37171875 39.86175781 -16.1809375 38.72351563 -15.984375 37.55078125 C-15.51907733 34.78226008 -15.04502932 32.01556031 -14.5625 29.25 C-15.19414062 29.12882812 -15.82578125 29.00765625 -16.4765625 28.8828125 C-18.5625 28.25 -18.5625 28.25 -19.9375 26.125 C-20.76485206 22.31918051 -19.88305715 19.86415642 -18.5625 16.25 C-17.5625 15.25 -17.5625 15.25 -14.5 15.1875 C-13.0459375 15.2184375 -13.0459375 15.2184375 -11.5625 15.25 C-11.38074219 14.33476563 -11.19898438 13.41953125 -11.01171875 12.4765625 C-10.76035156 11.28804687 -10.50898438 10.09953125 -10.25 8.875 C-10.00636719 7.69164063 -9.76273437 6.50828125 -9.51171875 5.2890625 C-7.88459105 0.07957547 -4.9269738 -0.0262422 0 0 Z "
        fill="#697790" transform="translate(382.5625,66.75)" />
    <path
        d="M0 0 C1.1653125 -0.01417969 2.330625 -0.02835938 3.53125 -0.04296875 C6.5 0.1875 6.5 0.1875 8.5 2.1875 C9.10775944 14.35434842 5.42839645 27.50227829 3.43579102 39.44433594 C2.95052768 42.36307673 2.47299145 45.28300748 1.99609375 48.203125 C1.84611435 49.08663635 1.69613495 49.97014771 1.54161072 50.88043213 C0.69922129 56.05825679 0.35469214 60.94124121 0.5 66.1875 C2.15 66.8475 3.8 67.5075 5.5 68.1875 C5.5 72.1475 5.5 76.1075 5.5 80.1875 C-0.44935718 82.56724287 -5.16901507 82.88142392 -11.5 82.1875 C-15.11682335 80.50380637 -16.84323873 79.46982741 -18.65649414 75.92944336 C-22.27731248 64.15942576 -17.00335079 47.3976375 -15.11645508 35.59594727 C-14.55889724 32.10242601 -14.01412742 28.60707281 -13.47070312 25.11132812 C-13.11793893 22.87488134 -12.76444949 20.63854881 -12.41015625 18.40234375 C-12.24862564 17.36480453 -12.08709503 16.32726532 -11.92066956 15.25828552 C-10.35336643 5.53991892 -10.35336643 5.53991892 -8.5 1.1875 C-5.65161879 -0.2366906 -3.17212092 0.01754492 0 0 Z "
        fill="#6A7790" transform="translate(89.5,59.8125)" />
    <path
        d="M0 0 C1.2714223 2.5428446 0.97026024 3.99755846 0.6875 6.8125 C0.60886719 7.66457031 0.53023438 8.51664063 0.44921875 9.39453125 C-0.04182338 12.24257561 -0.61810666 14.45349214 -2 17 C-4.06640625 18.08203125 -4.06640625 18.08203125 -6.5625 18.8125 C-12.58778128 21.00216567 -17.09090545 23.84530213 -21 29 C-22.69324647 33.88124795 -23.33438865 38.7573857 -23.9375 43.875 C-24.2874024 46.49942631 -24.65757408 49.12042711 -25.02734375 51.7421875 C-25.16906006 52.8957373 -25.31077637 54.04928711 -25.45678711 55.23779297 C-26 58 -26 58 -28 60 C-30.58064129 60.14497985 -33.04943884 60.18677545 -35.625 60.125 C-36.33140625 60.11597656 -37.0378125 60.10695312 -37.765625 60.09765625 C-39.51056098 60.07407603 -41.25532295 60.03820461 -43 60 C-46.06214586 53.87570829 -42.45829115 42.75193052 -41.44140625 36.1171875 C-41.29219223 35.13630157 -41.14297821 34.15541565 -40.98924255 33.14480591 C-40.67593038 31.09592518 -40.36073217 29.04733203 -40.04370117 26.99902344 C-39.55858785 23.84960179 -39.08683149 20.69834533 -38.61523438 17.546875 C-38.30810719 15.54935361 -38.00019352 13.55195294 -37.69140625 11.5546875 C-37.55174942 10.61003632 -37.41209259 9.66538513 -37.26820374 8.69210815 C-37.13143723 7.82675446 -36.99467072 6.96140076 -36.85375977 6.06982422 C-36.73686295 5.30580292 -36.61996613 4.54178162 -36.49952698 3.75460815 C-36.25226112 2.88607712 -36.25226112 2.88607712 -36 2 C-33.23547967 0.61773984 -30.9538637 0.90474613 -27.875 0.9375 C-26.77929688 0.94652344 -25.68359375 0.95554687 -24.5546875 0.96484375 C-23.71164062 0.97644531 -22.86859375 0.98804687 -22 1 C-21.23588533 4.73567172 -20.92825237 7.34811918 -22 11 C-21.34773438 10.45730469 -20.69546875 9.91460937 -20.0234375 9.35546875 C-7.90482955 -0.56463068 -7.90482955 -0.56463068 0 0 Z "
        fill="#697691" transform="translate(359,81)" />
    <path
        d="M0 0 C1.38294718 0.01329757 2.76582404 0.03715018 4.1484375 0.0703125 C4.85484375 0.07933594 5.56125 0.08835937 6.2890625 0.09765625 C8.03399848 0.12123647 9.77876045 0.15710789 11.5234375 0.1953125 C12.9136757 6.64436285 12.00962404 12.28750751 10.94140625 18.74609375 C10.76716629 19.84124802 10.59292633 20.93640228 10.41340637 22.06474304 C10.04420197 24.36924651 9.66988774 26.67293647 9.29077148 28.97583008 C8.71040185 32.51107535 8.14998774 36.04908325 7.59179688 39.58789062 C7.23034822 41.82831594 6.86775789 44.06855743 6.50390625 46.30859375 C6.33610153 47.37000076 6.16829681 48.43140778 5.9954071 49.52497864 C5.83216446 50.50327133 5.66892181 51.48156403 5.50073242 52.48950195 C5.28969124 53.78353691 5.28969124 53.78353691 5.0743866 55.10371399 C4.5234375 57.1953125 4.5234375 57.1953125 2.5234375 59.1953125 C-0.05720379 59.34029235 -2.52600134 59.38208795 -5.1015625 59.3203125 C-5.80796875 59.31128906 -6.514375 59.30226562 -7.2421875 59.29296875 C-8.98712348 59.26938853 -10.73188545 59.23351711 -12.4765625 59.1953125 C-15.76655474 52.61532803 -11.64365264 40.45631049 -10.4765625 33.4453125 C-10.12190131 31.28393525 -9.7677213 29.12247899 -9.4140625 26.9609375 C-9.24914307 25.95571045 -9.08422363 24.9504834 -8.91430664 23.91479492 C-8.39367446 20.68037113 -7.92624405 17.44031181 -7.4765625 14.1953125 C-7.17430222 12.08965053 -6.86232471 9.98535267 -6.5390625 7.8828125 C-6.38566406 6.85542969 -6.23226562 5.82804687 -6.07421875 4.76953125 C-5.12620772 0.68626804 -4.17393088 0.2344905 0 0 Z "
        fill="#697690" transform="translate(114.4765625,81.8046875)" />
    <path
        d="M0 0 C1.31677734 0.10054687 1.31677734 0.10054687 2.66015625 0.203125 C4.9375 0.75 4.9375 0.75 6.9375 3.75 C7.16796875 5.6875 7.16796875 5.6875 7.125 7.75 C7.11855469 8.430625 7.11210937 9.11125 7.10546875 9.8125 C6.9375 11.75 6.9375 11.75 5.9375 14.75 C1.13944848 18.10863606 -2.06293254 19.52772171 -8.0625 18.75 C-11 17.875 -11 17.875 -13.0625 15.75 C-13.8015083 12.28927823 -13.76435135 9.21504564 -13.0625 5.75 C-9.26977844 0.72720659 -6.13202377 -0.54185777 0 0 Z "
        fill="#67748F" transform="translate(124.0625,59.25)" />
    <path
        d="M0 0 C0.99 0 1.98 0 3 0 C3.66 0.66 4.32 1.32 5 2 C4.67 2.33 4.34 2.66 4 3 C23.305 3.495 23.305 3.495 43 4 C43 4.33 43 4.66 43 5 C28.48 5 13.96 5 -1 5 C-0.67 3.35 -0.34 1.7 0 0 Z "
        fill="#677084" transform="translate(557,169)" />
    <path
        d="M0 0 C2.6015625 -0.29296875 2.6015625 -0.29296875 5.625 -0.1875 C7.12933594 -0.14689453 7.12933594 -0.14689453 8.6640625 -0.10546875 C9.43492188 -0.07066406 10.20578125 -0.03585938 11 0 C11 0.33 11 0.66 11 1 C6.545 1.495 6.545 1.495 2 2 C1.86722656 3.05960937 1.73445313 4.11921875 1.59765625 5.2109375 C1.41946125 6.59898279 1.2410654 7.98700231 1.0625 9.375 C0.97548828 10.07367188 0.88847656 10.77234375 0.79882812 11.4921875 C0.11328125 16.7734375 0.11328125 16.7734375 -1 19 C-1.66 18.67 -2.32 18.34 -3 18 C-2.505 16.515 -2.505 16.515 -2 15 C-2.185625 14.34 -2.37125 13.68 -2.5625 13 C-2.706875 12.34 -2.85125 11.68 -3 11 C-2.34 10.01 -1.68 9.02 -1 8 C-1.165 7.175 -1.33 6.35 -1.5 5.5 C-1.665 4.675 -1.83 3.85 -2 3 C-1.34 2.01 -0.68 1.02 0 0 Z "
        fill="#666F80" transform="translate(36,75)" />
    <path
        d="M0 0 C1.47906892 -0.02689216 2.95827483 -0.04634621 4.4375 -0.0625 C5.26121094 -0.07410156 6.08492188 -0.08570312 6.93359375 -0.09765625 C9 0 9 0 10 1 C10.36090226 8.45864662 10.36090226 8.45864662 8 12 C8 11.34 8 10.68 8 10 C7.01 9.67 6.02 9.34 5 9 C5 5 5 5 6.5 3.25 C6.995 2.8375 7.49 2.425 8 2 C5.03 1.505 5.03 1.505 2 1 C1.67 1.66 1.34 2.32 1 3 C0.67 2.01 0.34 1.02 0 0 Z "
        fill="#656E84" transform="translate(389,82)" />
    <path
        d="M0 0 C0.05416188 1.60379341 0.09286638 3.20811406 0.125 4.8125 C0.14820313 5.70582031 0.17140625 6.59914063 0.1953125 7.51953125 C0 10 0 10 -2 13 C-2.99 10.03 -3.98 7.06 -5 4 C-1.125 0 -1.125 0 0 0 Z "
        fill="#677286" transform="translate(30,119)" />
    <path
        d="M0 0 C0.66 0.66 1.32 1.32 2 2 C1.67 2.99 1.34 3.98 1 5 C0.34 5 -0.32 5 -1 5 C-1.12117188 5.62648438 -1.24234375 6.25296875 -1.3671875 6.8984375 C-1.53476563 7.71570313 -1.70234375 8.53296875 -1.875 9.375 C-2.03742188 10.18710938 -2.19984375 10.99921875 -2.3671875 11.8359375 C-3 14 -3 14 -5 16 C-4.3436214 4.3436214 -4.3436214 4.3436214 0 0 Z "
        fill="#677186" transform="translate(110,97)" />
    <path
        d="M0 0 C0.66 0.33 1.32 0.66 2 1 C1.52949219 1.36351563 1.05898438 1.72703125 0.57421875 2.1015625 C-3.47192944 5.36863868 -6.00283426 8.06582581 -8 13 C-8.66 13 -9.32 13 -10 13 C-8.39112383 6.7107568 -5.32988263 3.55325509 0 0 Z "
        fill="#5C668A" transform="translate(577,100)" />
    <path
        d="M0 0 C1.32 0.33 2.64 0.66 4 1 C2.84414715 4.91211733 1.64465038 7.8745041 -1 11 C-1 9.35 -1 7.7 -1 6 C-1.66 6 -2.32 6 -3 6 C-2 4 -1 2 0 0 Z "
        fill="#626C93" transform="translate(541,98)" />
    <path
        d="M0 0 C2.59400506 2.59400506 2.32711615 3.83184616 2.375 7.4375 C2.40335937 8.40558594 2.43171875 9.37367187 2.4609375 10.37109375 C2 13 2 13 -2 16 C-1.34 10.72 -0.68 5.44 0 0 Z "
        fill="#657081" transform="translate(77,81)" />
    <path
        d="M0 0 C0.94875 0.04125 1.8975 0.0825 2.875 0.125 C2.545 1.115 2.215 2.105 1.875 3.125 C1.875 2.465 1.875 1.805 1.875 1.125 C0.885 1.62 0.885 1.62 -0.125 2.125 C-0.125 3.115 -0.125 4.105 -0.125 5.125 C-1.115 5.455 -2.105 5.785 -3.125 6.125 C-3.785 6.785 -4.445 7.445 -5.125 8.125 C-5.25 5.25 -5.25 5.25 -5.125 2.125 C-3.125 0.125 -3.125 0.125 0 0 Z "
        fill="#646F82" transform="translate(114.125,81.875)" />
    <path
        d="M0 0 C0.66 0 1.32 0 2 0 C2.125 2.375 2.125 2.375 2 5 C0 7 0 7 -3.2578125 7.1953125 C-4.53398437 7.17210937 -5.81015625 7.14890625 -7.125 7.125 C-9.04699219 7.09792969 -9.04699219 7.09792969 -11.0078125 7.0703125 C-12.48894531 7.03550781 -12.48894531 7.03550781 -14 7 C-14 6.67 -14 6.34 -14 6 C-8.06 5.505 -8.06 5.505 -2 5 C-1.34 3.35 -0.68 1.7 0 0 Z "
        fill="#697182" transform="translate(140,157)" />
    <path
        d="M0 0 C0 0.66 0 1.32 0 2 C0.556875 1.814375 1.11375 1.62875 1.6875 1.4375 C4.399133 0.92448835 6.34371039 1.3359276 9 2 C9 2.33 9 2.66 9 3 C3.0885256 3.77313045 -2.1314592 4.14819277 -8 3 C-5.48696401 0.48696401 -3.51117809 0 0 0 Z "
        fill="#687285" transform="translate(153,139)" />
    <path
        d="M0 0 C1.33417969 0.13148437 1.33417969 0.13148437 2.6953125 0.265625 C3.77425781 0.50539062 3.77425781 0.50539062 4.875 0.75 C5.205 1.41 5.535 2.07 5.875 2.75 C0.53498179 4.08500455 -2.96455235 3.262545 -8.125 1.75 C-4.71992291 -0.52005139 -3.91021579 -0.43320175 0 0 Z "
        fill="#5F6879" transform="translate(124.125,59.25)" />
    <path
        d="M0 0 C2.12472576 -0.05386629 4.24983652 -0.09273071 6.375 -0.125 C7.55835937 -0.14820313 8.74171875 -0.17140625 9.9609375 -0.1953125 C13 0 13 0 15 2 C15.125 4.625 15.125 4.625 15 7 C14.67 5.68 14.34 4.36 14 3 C13.15695313 2.95101562 12.31390625 2.90203125 11.4453125 2.8515625 C9.80175781 2.73941406 9.80175781 2.73941406 8.125 2.625 C7.03445312 2.55539063 5.94390625 2.48578125 4.8203125 2.4140625 C2 2 2 2 0 0 Z "
        fill="#5F6984" transform="translate(83,60)" />
    <path
        d="M0 0 C0.66666667 2.66666667 1.33333333 5.33333333 2 8 C0.02 8.66 -1.96 9.32 -4 10 C-3.52449439 8.51965236 -3.04448784 7.04074979 -2.5625 5.5625 C-2.29566406 4.73878906 -2.02882812 3.91507812 -1.75390625 3.06640625 C-1 1 -1 1 0 0 Z "
        fill="#545E96" transform="translate(258,94)" />
    <path
        d="M0 0 C0.99 0 1.98 0 3 0 C3.66 0.66 4.32 1.32 5 2 C7.36509361 2.30059943 9.74441881 2.49515012 12.125 2.625 C14.04699219 2.73714844 14.04699219 2.73714844 16.0078125 2.8515625 C16.99523437 2.90054688 17.98265625 2.94953125 19 3 C19 3.33 19 3.66 19 4 C16.62468606 4.0543965 14.25064117 4.09385864 11.875 4.125 C11.20984375 4.14175781 10.5446875 4.15851563 9.859375 4.17578125 C5.50483944 4.21847278 2.04399886 3.59996217 -2 2 C-1.34 1.34 -0.68 0.68 0 0 Z "
        fill="#697286" transform="translate(519,73)" />
    <path
        d="M0 0 C0.66 0.33 1.32 0.66 2 1 C2 1.66 2 2.32 2 3 C3.423125 2.9690625 3.423125 2.9690625 4.875 2.9375 C8 3 8 3 10 4 C10 4.99 10 5.98 10 7 C9.01 6.67 8.02 6.34 7 6 C7 5.67 7 5.34 7 5 C3.7 4.34 0.4 3.68 -3 3 C-2.01 2.67 -1.02 2.34 0 2 C0 1.34 0 0.68 0 0 Z "
        fill="#606B8A" transform="translate(500,137)" />
    <path
        d="M0 0 C0.33 0 0.66 0 1 0 C1.28571429 8.57142857 1.28571429 8.57142857 -1 12 C-1.66 11.01 -2.32 10.02 -3 9 C-2.1875 6 -2.1875 6 -1 3 C-0.67 2.01 -0.34 1.02 0 0 Z "
        fill="#656D7D" transform="translate(333,126)" />
    <path
        d="M0 0 C-0.72316406 0.50660156 -0.72316406 0.50660156 -1.4609375 1.0234375 C-2.09257812 1.46945313 -2.72421875 1.91546875 -3.375 2.375 C-4.00148438 2.81585937 -4.62796875 3.25671875 -5.2734375 3.7109375 C-7.12380509 5.02808866 -7.12380509 5.02808866 -9 7 C-9 5.35 -9 3.7 -9 2 C-3.375 -1.125 -3.375 -1.125 0 0 Z "
        fill="#626D7E" transform="translate(470,18)" />
    <path
        d="M0 0 C1.5625 1.125 1.5625 1.125 3 3 C2.6875 6.1875 2.6875 6.1875 2 9 C1.67 8.01 1.34 7.02 1 6 C0.34 6 -0.32 6 -1 6 C-1.66 4.68 -2.32 3.36 -3 2 C-2.01 2 -1.02 2 0 2 C0 1.34 0 0.68 0 0 Z "
        fill="#5F6C98" transform="translate(29,113)" />
    <path d="M0 0 C0.33 0 0.66 0 1 0 C1 4.95 1 9.9 1 15 C0.01 15.33 -0.98 15.66 -2 16 C-1.34 10.72 -0.68 5.44 0 0 Z "
        fill="#677083" transform="translate(202,77)" />
    <path
        d="M0 0 C2.67927341 4.01891012 2.15601248 6.24161923 2 11 C1.01 11.33 0.02 11.66 -1 12 C-0.67 8.04 -0.34 4.08 0 0 Z "
        fill="#5E6778" transform="translate(195,120)" />
    <path
        d="M0 0 C0.33 0.66 0.66 1.32 1 2 C1.66 2 2.32 2 3 2 C3.33 3.32 3.66 4.64 4 6 C2.68 6.33 1.36 6.66 0 7 C0 4.69 0 2.38 0 0 Z "
        fill="#637082" transform="translate(129,127)" />
    <path d="M0 0 C0.99 0 1.98 0 3 0 C3.33 1.32 3.66 2.64 4 4 C2.02 4.99 2.02 4.99 0 6 C-1 3 -1 3 0 0 Z " fill="#5F678F"
        transform="translate(356,81)" />
    <path
        d="M0 0 C2.875 -0.125 2.875 -0.125 6 0 C6.66 0.66 7.32 1.32 8 2 C7.67 2.66 7.34 3.32 7 4 C4.03 3.505 4.03 3.505 1 3 C0.67 2.01 0.34 1.02 0 0 Z "
        fill="#6D7B97" transform="translate(114,73)" />
    <path d="M0 0 C0.66 0 1.32 0 2 0 C5 6.75 5 6.75 5 9 C4.01 9 3.02 9 2 9 C1.34 6.03 0.68 3.06 0 0 Z " fill="#687385"
        transform="translate(594,81)" />
    <path
        d="M0 0 C0.33 0 0.66 0 1 0 C1.24954005 1.43410368 1.47392642 2.87260072 1.6875 4.3125 C1.87892578 5.51326172 1.87892578 5.51326172 2.07421875 6.73828125 C2 9 2 9 -1 12 C-0.67 8.04 -0.34 4.08 0 0 Z "
        fill="#687383" transform="translate(197,108)" />
    <path
        d="M0 0 C1.2380014 3.57644848 0.74926071 6.33694766 0 10 C-0.66 10 -1.32 10 -2 10 C-2.25 3.375 -2.25 3.375 0 0 Z "
        fill="#677282" transform="translate(92,95)" />
    <path d="" fill="#FFFFFF" transform="translate(0,0)" />
    <path d="" fill="#FFFFFF" transform="translate(0,0)" />
    <path d="" fill="#FFFFFF" transform="translate(0,0)" />
    <path d="" fill="#FFFFFF" transform="translate(0,0)" />
    <path d="" fill="#FFFFFF" transform="translate(0,0)" />
    <path d="" fill="#FFFFFF" transform="translate(0,0)" />
    <path d="" fill="#FFFFFF" transform="translate(0,0)" />
    <path d="" fill="#FFFFFF" transform="translate(0,0)" />
    <path d="" fill="#FFFFFF" transform="translate(0,0)" />
    <path d="" fill="#FFFFFF" transform="translate(0,0)" />
    <path d="" fill="#FFFFFF" transform="translate(0,0)" />
    <path d="" fill="#FFFFFF" transform="translate(0,0)" />
    <path d="" fill="#FFFFFF" transform="translate(0,0)" />
    <path d="" fill="#FFFFFF" transform="translate(0,0)" />
    <path d="" fill="#FFFFFF" transform="translate(0,0)" />
    <path d="" fill="#FFFFFF" transform="translate(0,0)" />
    <path d="" fill="#FFFFFF" transform="translate(0,0)" />
    <path d="" fill="#FFFFFF" transform="translate(0,0)" />
    <path d="" fill="#FFFFFF" transform="translate(0,0)" />
    <path d="" fill="#FFFFFF" transform="translate(0,0)" />
    <path d="" fill="#FFFFFF" transform="translate(0,0)" />
    <path d="" fill="#FFFFFF" transform="translate(0,0)" />
    <path d="" fill="#FFFFFF" transform="translate(0,0)" />
    <path d="" fill="#FFFFFF" transform="translate(0,0)" />
    <path d="" fill="#FFFFFF" transform="translate(0,0)" />
    <path d="" fill="#FFFFFF" transform="translate(0,0)" />
    <path d="" fill="#FFFFFF" transform="translate(0,0)" />
    <path d="" fill="#FFFFFF" transform="translate(0,0)" />
    <path d="" fill="#FFFFFF" transform="translate(0,0)" />
    <path d="" fill="#FFFFFF" transform="translate(0,0)" />
    <path d="" fill="#FFFFFF" transform="translate(0,0)" />
    <path d="" fill="#FFFFFF" transform="translate(0,0)" />
    <path d="" fill="#FFFFFF" transform="translate(0,0)" />
    <path d="" fill="#FFFFFF" transform="translate(0,0)" />
    <path d="" fill="#FFFFFF" transform="translate(0,0)" />
    <path d="" fill="#FFFFFF" transform="translate(0,0)" />
    <path d="" fill="#FFFFFF" transform="translate(0,0)" />
    <path d="" fill="#FFFFFF" transform="translate(0,0)" />
    <path d="" fill="#FFFFFF" transform="translate(0,0)" />
    <path d="" fill="#FFFFFF" transform="translate(0,0)" />
    <path d="" fill="#FFFFFF" transform="translate(0,0)" />
    <path d="" fill="#FFFFFF" transform="translate(0,0)" />
    <path d="" fill="#FFFFFF" transform="translate(0,0)" />
    <path d="" fill="#FFFFFF" transform="translate(0,0)" />
    <path d="" fill="#FFFFFF" transform="translate(0,0)" />
    <path d="" fill="#FFFFFF" transform="translate(0,0)" />
    <path d="" fill="#FFFFFF" transform="translate(0,0)" />
    <path d="" fill="#FFFFFF" transform="translate(0,0)" />
    <path d="" fill="#FFFFFF" transform="translate(0,0)" />
    <path d="" fill="#FFFFFF" transform="translate(0,0)" />
    <path d="" fill="#FFFFFF" transform="translate(0,0)" />
    <path d="" fill="#FFFFFF" transform="translate(0,0)" />
    <path d="" fill="#FFFFFF" transform="translate(0,0)" />
    <path d="" fill="#FFFFFF" transform="translate(0,0)" />
    <path d="" fill="#FFFFFF" transform="translate(0,0)" />
    <path d="" fill="#FFFFFF" transform="translate(0,0)" />
    <path d="" fill="#FFFFFF" transform="translate(0,0)" />
    <path d="" fill="#FFFFFF" transform="translate(0,0)" />
    <path d="" fill="#FFFFFF" transform="translate(0,0)" />
</svg>