<svg width="259" height="40" viewBox="0 0 259 41" fill="none" xmlns="http://www.w3.org/2000/svg">
<g clip-path="url(#clip0_1700_1303)">
<path d="M144.69 0.0917969L133.724 17.5256L122.717 0.0917969H113.925V40.0918H122.717V16.6295L129.066 26.7585H138.314L144.69 16.6023V40.0918H153.495V0.0917969H144.69Z" fill="#6C7993"/>
<path d="M25.2009 8.97165L30.6558 0.0917969H0V8.94448V17.8108V26.6635V40.0918H8.8216V26.7585H25.2009L25.1738 17.8651H8.8216V8.97165H25.2009Z" fill="#6C7993"/>
<path d="M50.7681 0.0917969C39.902 0.0917969 31.0918 9.04701 31.0918 20.0918C31.0918 31.1366 39.902 40.0918 50.7681 40.0918C61.6341 40.0918 70.4444 31.1366 70.4444 20.0918C70.4444 9.04701 61.6341 0.0917969 50.7681 0.0917969ZM50.7681 30.8381C44.7343 30.8381 39.8353 25.8585 39.8353 19.7255C39.8353 13.5925 44.7343 8.61283 50.7681 8.61283C56.8018 8.61283 61.7009 13.5925 61.7009 19.7255C61.7009 25.8585 56.8018 30.8381 50.7681 30.8381Z" fill="#6C7993"/>
<path d="M106.44 21.599C107.6 19.9153 108.261 17.8786 108.396 15.4618C108.477 14.5656 108.504 13.5881 108.423 12.5697C108.113 8.6186 107.452 6.22891 105.024 3.55411C102.502 0.770682 99.6562 0.186841 96.3114 0.0917969H84.5234H75.8779V40.0918H84.7123V26.7585H91.7257L98.4558 40.0918H108.491L100.263 25.6858C102.88 24.8981 105.078 23.5948 106.44 21.599ZM95.1381 18.2453C95.1246 18.2588 84.7123 18.2453 84.7123 18.2453V8.57786H94.7604C94.8142 8.57786 95.4481 8.60503 95.5022 8.6186C97.849 8.90375 99.6831 10.9268 99.6831 13.4115C99.6697 16.0185 97.6601 18.123 95.1381 18.2453Z" fill="#6C7993"/>
<path d="M167.411 24.5974H158.931C158.931 33.1547 165.794 40.092 174.258 40.092C182.724 40.092 189.586 33.1547 189.586 24.5974C189.586 19.0857 186.739 14.2463 182.452 11.4995L177.92 18.7452C179.835 19.9724 181.107 22.1347 181.107 24.5974C181.107 28.421 178.041 31.5205 174.258 31.5205C170.477 31.5205 167.411 28.421 167.411 24.5974Z" fill="#6C7993"/>
<path d="M184.042 8.95778H158.931V0.0917969H189.586L184.042 8.95778Z" fill="#6C7993"/>
</g>
<defs>
<clipPath id="clip0_1700_1303">
<rect width="258.776" height="40" fill="white" transform="translate(0 0.5)"/>
</clipPath>
</defs>
</svg>
