<svg width="193" height="45" viewBox="0 0 193 79" fill="none" xmlns="http://www.w3.org/2000/svg">
<path d="M11.3211 28.4842H29.532V20.0017H11.3211V28.4842ZM11.3211 44.5132H28.9501V36.5572H11.3211V44.5132ZM4.80469 20.0017V60.9517H14.2301V20.0017H4.80469ZM47.6692 42.4072L59.131 60.9517H70.651L57.9092 42.4072H47.6692ZM37.5455 20.0017V60.9517H47.3783V20.0017H37.5455ZM43.7128 28.3672H51.6837C53.0025 28.3672 54.1274 28.5817 55.0583 29.0107C56.028 29.4397 56.7649 30.0637 57.2692 30.8827C57.7734 31.6627 58.0255 32.6182 58.0255 33.7492C58.0255 34.8802 57.7734 35.8552 57.2692 36.6742C56.7649 37.4542 56.028 38.0587 55.0583 38.4877C54.1274 38.8777 53.0025 39.0727 51.6837 39.0727H43.7128V46.7362H52.3819C55.8728 46.7362 58.7819 46.1707 61.1092 45.0397C63.4364 43.9087 65.2013 42.3487 66.4037 40.3597C67.6061 38.3317 68.2073 36.0112 68.2073 33.3982C68.2073 30.7462 67.6061 28.4257 66.4037 26.4367C65.2013 24.4087 63.4364 22.8292 61.1092 21.6982C58.7819 20.5672 55.8728 20.0017 52.3819 20.0017H43.7128V28.3672ZM80.2781 46.5607L73.4127 51.5332C74.3436 53.4832 75.643 55.2772 77.3109 56.9152C78.9787 58.5532 80.9375 59.8597 83.1872 60.8347C85.4757 61.7707 87.9387 62.2387 90.5763 62.2387C92.4769 62.2387 94.3194 61.9462 96.1036 61.3612C97.9266 60.8152 99.5363 59.9962 100.933 58.9042C102.349 57.835 103.503 56.4543 104.307 54.8677C105.161 53.2297 105.587 51.3772 105.587 49.3102C105.587 47.5942 105.316 46.0732 104.773 44.7472C104.23 43.4212 103.473 42.2512 102.504 41.2372C101.573 40.2232 100.487 39.3652 99.2454 38.6632C98.0042 37.9222 96.666 37.2787 95.2309 36.7327C93.3303 36.0697 91.7012 35.4457 90.3436 34.8607C89.0248 34.2757 87.9969 33.6322 87.26 32.9302C86.5618 32.2282 86.2127 31.4092 86.2127 30.4732C86.2127 29.5762 86.5812 28.8352 87.3181 28.2502C88.0551 27.6262 89.1218 27.3142 90.5181 27.3142C91.5654 27.3142 92.5351 27.5287 93.4272 27.9577C94.3581 28.3477 95.1921 28.9132 95.929 29.6542C96.7048 30.3562 97.3836 31.1947 97.9654 32.1697L105.471 27.9577C104.773 26.5537 103.764 25.1692 102.445 23.8042C101.127 22.4392 99.4587 21.3082 97.4418 20.4112C95.4636 19.5142 93.1169 19.0657 90.4018 19.0657C87.7642 19.0657 85.3594 19.5337 83.1872 20.4697C81.0539 21.3667 79.3472 22.6927 78.0672 24.4477C76.826 26.2027 76.2054 28.2892 76.2054 30.7072C76.2054 32.7352 76.5739 34.4707 77.3109 35.9137C78.0478 37.3177 78.9787 38.5267 80.1036 39.5407C81.2284 40.5157 82.4115 41.3152 83.6527 41.9392C84.9327 42.5632 86.0575 43.0507 87.0272 43.4017C89.0054 44.1427 90.5957 44.8057 91.7981 45.3907C93.0006 45.9757 93.8733 46.5997 94.4163 47.2627C94.9593 47.8867 95.2309 48.7252 95.2309 49.7782C95.2309 51.0262 94.7654 52.0207 93.8345 52.7617C92.9036 53.4637 91.7206 53.8147 90.2854 53.8147C88.9278 53.8147 87.6284 53.5222 86.3872 52.9372C85.1848 52.3522 84.06 51.5137 83.0127 50.4217C81.9484 49.2513 81.0301 47.9548 80.2781 46.5607ZM121.122 40.4767C121.122 37.9417 121.684 35.7772 122.809 33.9832C123.882 32.237 125.412 30.8205 127.231 29.8882C129.093 28.9522 131.129 28.4842 133.34 28.4842C135.279 28.4842 136.986 28.7377 138.46 29.2447C139.934 29.7127 141.253 30.3757 142.416 31.2337C143.58 32.0527 144.608 32.9302 145.5 33.8662V23.2192C143.88 21.9374 142.075 20.9116 140.147 20.1772C138.208 19.4362 135.745 19.0657 132.758 19.0657C129.5 19.0657 126.494 19.5727 123.74 20.5867C120.986 21.6007 118.62 23.0632 116.642 24.9742C114.664 26.8852 113.131 29.1472 112.045 31.7602C110.959 34.3732 110.416 37.2787 110.416 40.4767C110.416 43.6747 110.959 46.5802 112.045 49.1932C113.131 51.8062 114.664 54.0682 116.642 55.9792C118.62 57.8902 120.986 59.3527 123.74 60.3667C126.494 61.3807 129.5 61.8877 132.758 61.8877C135.745 61.8877 138.208 61.5172 140.147 60.7762C142.087 60.0352 143.871 59.0212 145.5 57.7342V47.0872C144.608 48.0232 143.58 48.9007 142.416 49.7197C141.253 50.5387 139.934 51.2017 138.46 51.7087C136.986 52.2157 135.279 52.4692 133.34 52.4692C131.129 52.4692 129.093 52.0012 127.231 51.0652C125.412 50.133 123.882 48.7165 122.809 46.9702C121.684 45.1372 121.122 42.9727 121.122 40.4767ZM159.669 53.0542H181.196L180.556 45.5077H160.367L159.669 53.0542ZM170.316 35.0362L176.076 48.3157L175.727 50.8312L180.615 60.9517H191.786L170.316 17.4277L148.906 60.9517H160.018L165.08 50.4217L164.615 48.2572L170.316 35.0362Z" fill="#6C7993"/>
</svg>
