<svg width="237" height="50" viewBox="0 0 237 83" fill="none" xmlns="http://www.w3.org/2000/svg">
<path d="M70.7602 24.0171L70.4096 23.8766C62.6135 20.7383 50.8669 18.49 35.6957 18.49C30.1321 18.49 24.8374 19.0286 19.9283 20.024L20.3842 35.727C20.6179 47.3198 31.7918 55.9384 35.6957 58.538C39.5528 56.2077 48.5994 50.4464 49.2773 43.2916C49.3358 42.6476 49.6747 40.9496 46.4137 40.247C43.9592 39.7084 38.8982 39.6967 35.8009 39.6264V22.5768C46.9748 22.5768 61.8187 23.9702 70.6199 28.057L70.4212 35.7856C69.6615 61.5591 35.6957 83 35.6957 83C35.6957 83 2.10387 61.5708 1.18051 35.7856L0 6.22968C8.45055 2.08437 23.7737 0 35.7074 0C47.641 0 62.859 2.08437 71.4147 6.22968L70.7719 24.0171H70.7602Z" fill="#6C7993"/>
<path d="M85.5684 25.3756C85.5684 17.2021 91.1787 12.5649 97.689 12.5649C101.277 12.5649 103.895 14.0638 105.614 15.7852L102.247 19.9071C101.055 18.8532 99.8513 18.1037 97.9111 18.1037C94.615 18.1037 92.1488 20.7268 92.1488 25.1531C92.1488 29.5795 94.1709 32.2728 98.5072 32.2728C99.1851 32.2728 99.9331 32.1205 100.377 31.8278V28.4553H96.789V23.2093H106.069V34.8255C104.351 36.4766 101.277 37.8233 97.8409 37.8233C91.0384 37.8233 85.5684 33.7014 85.5684 25.3873V25.3756ZM118.26 13.0099H125.437C132.847 13.0099 137.931 16.4526 137.931 25.0711C137.931 33.6897 132.847 37.3666 125.811 37.3666H118.26V13.0099ZM125.063 32.1908C128.581 32.1908 131.351 30.7622 131.351 25.0711C131.351 19.3801 128.581 18.174 125.063 18.174H124.689V32.1908H125.063Z" fill="#6C7993"/>
<path d="M145.492 13.0098H153.277L160.687 37.3664H153.885L152.692 32.1906H145.89L144.698 37.3664H138.117L145.527 13.0098H145.492ZM147.024 27.2139H151.512L151.103 25.5277L149.303 17.8108H149.151L147.433 25.5277L147.024 27.2139Z" fill="#6C7993"/>
<path d="M164.637 18.408H158.209V13.0098H177.506V18.408H171.078V37.3664H164.649V18.408H164.637Z" fill="#6C7993"/>
<path d="M182.44 13.0098H190.224L197.634 37.3664H190.832L189.64 32.1906H182.837L181.645 37.3664H175.064L182.475 13.0098H182.44ZM183.971 27.2139H188.459L188.05 25.5277L186.25 17.8108H186.098L184.38 25.5277L183.971 27.2139Z" fill="#6C7993"/>
<path d="M85.3808 58.5964C85.3808 52.6711 88.8639 49.0411 93.5392 49.0411C95.7833 49.0411 97.5248 50.1067 98.5885 51.3128L97.3261 52.8351C96.3443 51.7929 95.1405 51.0903 93.5626 51.0903C90.0795 51.0903 87.7886 53.9592 87.7886 58.5378C87.7886 63.1164 90.0093 66.1024 93.4807 66.1024C95.2456 66.1024 96.5664 65.3179 97.7469 64.0181L99.0326 65.4818C97.5716 67.168 95.7833 68.1517 93.3872 68.1517C88.7821 68.1517 85.3691 64.6153 85.3691 58.5964H85.3808ZM99.4885 73.4094L99.9326 71.5827C100.213 71.6646 100.634 71.7817 100.973 71.7817C102.516 71.7817 103.497 70.5405 104.059 68.8543L104.362 67.8472L98.8924 54.1583H101.277L104.059 61.7229L105.379 65.5755H105.496L106.642 61.7229L109.084 54.1583H111.329L106.197 68.9362C105.239 71.6295 103.836 73.6905 101.09 73.6905C100.47 73.6905 99.9443 73.5734 99.4885 73.4094ZM115.396 66.4069H115.314L115.116 67.8121H113.269V47.7998H115.571V53.2566L115.513 55.7274C116.752 54.6267 118.26 53.8187 119.779 53.8187C123.309 53.8187 125.191 56.5471 125.191 60.7627C125.191 65.4233 122.409 68.1517 119.3 68.1517C118.038 68.1517 116.612 67.5076 115.396 66.4069ZM122.806 60.7861C122.806 57.7767 121.801 55.7508 119.218 55.7508C118.073 55.7508 116.857 56.3949 115.571 57.601V64.7675C116.775 65.8097 118.014 66.1961 118.914 66.1961C121.158 66.1961 122.818 64.1469 122.818 60.7744L122.806 60.7861Z" fill="#6C7993"/>
<path d="M127.154 61.0092C127.154 56.536 130.158 53.8193 133.267 53.8193C136.75 53.8193 138.714 56.3253 138.714 60.2247C138.714 60.7048 138.691 61.2083 138.632 61.5479H129.433C129.597 64.4402 131.374 66.3021 133.98 66.3021C135.266 66.3021 136.365 65.8806 137.37 65.2365L138.188 66.7588C137.007 67.52 135.546 68.164 133.7 68.164C130.053 68.164 127.166 65.4941 127.166 61.0209L127.154 61.0092ZM136.692 59.8851C136.692 57.1332 135.453 55.6461 133.326 55.6461C131.42 55.6461 129.679 57.1918 129.398 59.8851H136.692Z" fill="#6C7993"/>
<path d="M141.379 54.1585H143.284L143.483 56.6293H143.565C144.488 54.9196 145.891 53.8189 147.433 53.8189C148.018 53.8189 148.439 53.9009 148.894 54.1L148.45 56.1258C148.027 55.9741 147.579 55.8987 147.129 55.9033C145.984 55.9033 144.605 56.7464 143.681 59.0533V67.824H141.379V54.1585ZM150.788 49.3808H155.393C161.062 49.3808 164.089 52.6713 164.089 58.5146C164.089 64.3579 161.062 67.8123 155.51 67.8123H150.8V49.3691L150.788 49.3808ZM155.218 65.9036C159.507 65.9036 161.67 63.1752 161.67 58.5146C161.67 53.854 159.507 51.2896 155.218 51.2896H153.114V65.9036H155.218Z" fill="#6C7993"/>
<path d="M166.135 61.0083C166.135 56.5351 169.139 53.8184 172.248 53.8184C175.731 53.8184 177.694 56.3243 177.694 60.2237C177.694 60.7038 177.671 61.2073 177.613 61.5469H168.414C168.578 64.4393 170.354 66.3011 172.961 66.3011C174.246 66.3011 175.345 65.8796 176.35 65.2355L177.168 66.7578C175.988 67.519 174.527 68.163 172.68 68.163C169.033 68.163 166.146 65.4932 166.146 61.02L166.135 61.0083ZM175.672 59.8841C175.672 57.1323 174.433 55.6451 172.306 55.6451C170.401 55.6451 168.659 57.1908 168.379 59.8841H175.672Z" fill="#6C7993"/>
<path d="M180.687 56.0326H178.84V54.2878L180.687 54.1473V51.981C180.687 49.194 181.949 47.4492 184.672 47.4492C185.514 47.4492 186.332 47.6483 186.94 47.8942L186.437 49.6624C185.935 49.4399 185.397 49.3228 184.894 49.3228C183.609 49.3228 182.989 50.2245 182.989 51.9693V54.1356H185.876V56.0209H182.989V67.8011H180.687V56.0209V56.0326Z" fill="#6C7993"/>
<path d="M186.564 61.0083C186.564 56.5351 189.568 53.8184 192.677 53.8184C196.16 53.8184 198.124 56.3243 198.124 60.2237C198.124 60.7038 198.101 61.2073 198.042 61.5469H188.844C189.007 64.4393 190.784 66.3011 193.39 66.3011C194.676 66.3011 195.775 65.8796 196.78 65.2355L197.598 66.7578C196.418 67.519 194.957 68.163 193.11 68.163C189.463 68.163 186.576 65.4932 186.576 61.02L186.564 61.0083ZM196.102 59.8841C196.102 57.1323 194.863 55.6451 192.736 55.6451C190.831 55.6451 189.089 57.1908 188.809 59.8841H196.102Z" fill="#6C7993"/>
<path d="M200.789 54.1579H202.694L202.893 56.1252H202.975C204.26 54.8371 205.663 53.8184 207.545 53.8184C210.408 53.8184 211.694 55.6685 211.694 59.1581V67.8117H209.392V59.4625C209.392 56.9098 208.608 55.809 206.808 55.809C205.406 55.809 204.447 56.5351 203.08 57.9168V67.8117H200.777V54.1462L200.789 54.1579ZM213.775 66.266L214.92 64.7203C216.101 65.6805 217.304 66.348 218.929 66.348C220.729 66.348 221.617 65.3878 221.617 64.2168C221.617 62.8116 219.993 62.191 218.508 61.6289C216.568 60.9263 214.441 60.0012 214.441 57.6943C214.441 55.3875 216.182 53.8184 219.128 53.8184C220.834 53.8184 222.33 54.521 223.359 55.3641L222.26 56.8278C221.337 56.1252 220.355 55.6217 219.151 55.6217C217.445 55.6217 216.65 56.5468 216.65 57.589C216.65 58.8771 218.134 59.3572 219.677 59.9544C221.641 60.6804 223.826 61.5001 223.826 64.088C223.826 66.3129 222.062 68.163 218.836 68.163C216.895 68.163 215.049 67.3433 213.763 66.2777L213.775 66.266Z" fill="#6C7993"/>
<path d="M225.439 61.0083C225.439 56.5351 228.443 53.8184 231.552 53.8184C235.035 53.8184 236.999 56.3243 236.999 60.2237C236.999 60.7038 236.976 61.2073 236.917 61.5469H227.719C227.882 64.4393 229.659 66.3011 232.265 66.3011C233.551 66.3011 234.65 65.8796 235.655 65.2355L236.473 66.7578C235.293 67.519 233.832 68.163 231.985 68.163C228.338 68.163 225.451 65.4932 225.451 61.02L225.439 61.0083ZM234.977 59.8841C234.977 57.1323 233.738 55.6451 231.611 55.6451C229.706 55.6451 227.964 57.1908 227.684 59.8841H234.977Z" fill="#6C7993"/>
</svg>
