<svg width="211" height="40" viewBox="0 0 211 47" fill="none" xmlns="http://www.w3.org/2000/svg">
<path d="M46.7426 18.76L46.6789 18.5902L40.2483 1.8158C40.1181 1.48643 39.8865 1.20702 39.587 1.01803C39.3635 0.874966 39.1096 0.78625 38.8457 0.758989C38.5817 0.731727 38.3151 0.76668 38.0671 0.861045C37.8191 0.95541 37.5966 1.10656 37.4176 1.30239C37.2385 1.49821 37.1078 1.73326 37.036 1.9887L32.6953 15.2778H15.1171L10.7763 1.9887C10.7039 1.73364 10.5729 1.49904 10.3938 1.30359C10.2146 1.10814 9.99229 0.957252 9.74449 0.862964C9.49669 0.768676 9.23029 0.733594 8.96653 0.760516C8.70277 0.787439 8.44895 0.87562 8.2253 1.01803C7.92579 1.20702 7.69419 1.48643 7.56403 1.8158L1.13639 18.5932L1.06965 18.76C0.144261 21.1785 0.0302559 23.8323 0.744825 26.3213C1.45939 28.8102 2.9638 30.9994 5.0312 32.5587L5.05547 32.5769L5.11006 32.6194L14.8926 39.9509L19.7459 43.6182L22.6943 45.8478C23.0403 46.1091 23.462 46.2504 23.8955 46.2504C24.3291 46.2504 24.7508 46.1091 25.0967 45.8478L28.0451 43.6182L32.8985 39.9509L42.7508 32.5769L42.7781 32.5557C44.8453 30.997 46.3499 28.8085 47.065 26.3202C47.7801 23.8318 47.667 21.1785 46.7426 18.76Z" fill="#6C7993"/>
<path d="M46.743 18.7602L46.6793 18.5903C43.5461 19.2333 40.5939 20.5612 38.0343 22.4791L23.9141 33.1564L32.9049 39.9511L42.7572 32.5771L42.7845 32.5558C44.8507 30.9963 46.3541 28.8075 47.0681 26.3192C47.782 23.8309 47.668 21.178 46.743 18.7602Z" fill="#6C7993"/>
<path d="M14.8926 39.9509L19.7459 43.6182L22.6943 45.8477C23.0403 46.1091 23.462 46.2504 23.8955 46.2504C24.3291 46.2504 24.7508 46.1091 25.0967 45.8477L28.0451 43.6182L32.8985 39.9509L23.9077 33.1562L14.8926 39.9509Z" fill="#6C7993"/>
<path d="M9.77837 22.479C7.21962 20.5621 4.26842 19.2351 1.13639 18.5933L1.06965 18.7601C0.144261 21.1786 0.0302559 23.8324 0.744825 26.3214C1.45939 28.8103 2.9638 30.9995 5.0312 32.5588L5.05547 32.577L5.11006 32.6194L14.8926 39.951L23.8895 33.1563L9.77837 22.479Z" fill="#6C7993"/>
<path d="M85.2419 17.8927H92.1518C90.9992 10.546 84.6382 5.42871 76.3603 5.42871C66.5656 5.42871 59.2158 12.6299 59.2158 24.6904C59.2158 36.5356 66.235 43.8824 76.5605 43.8824C85.8273 43.8824 92.4612 37.9218 92.4612 28.2728V23.7774H77.2733V29.0766H85.9001C85.7909 34.4153 82.2267 37.7944 76.5969 37.7944C70.33 37.7944 66.0348 33.0988 66.0348 24.6176C66.0348 16.191 70.4028 11.5136 76.4513 11.5136C80.9649 11.5136 84.0528 13.9251 85.2419 17.8927Z" fill="#6C7993"/>
<path d="M97.0288 43.3693H103.645V15.3109H97.0288V43.3693ZM100.365 10.8519C102.468 10.8519 104.184 9.24119 104.184 7.26952C104.184 5.29785 102.468 3.66895 100.365 3.66895C98.2634 3.66895 96.5283 5.27662 96.5283 7.26952C96.5283 9.26242 98.2331 10.8519 100.353 10.8519H100.365Z" fill="#6C7993"/>
<path d="M123.456 15.3114H117.917V8.57129H111.301V15.3114H107.318V20.4286H111.301V36.0382C111.265 41.3192 115.105 43.9249 120.074 43.7702C121.397 43.7438 122.71 43.522 123.968 43.1119L122.852 37.937C122.22 38.1011 121.57 38.1877 120.917 38.1949C119.252 38.1949 117.917 37.6094 117.917 34.9401V20.4134H123.456V15.3114Z" fill="#6C7993"/>
<path d="M128.576 43.3694H151.842V37.6849H135.359V5.93799H128.576V43.3694Z" fill="#6C7993"/>
<path d="M164.515 43.9369C168.919 43.9369 171.549 41.8712 172.756 39.5143H172.975V43.3697H179.345V24.5812C179.345 17.1616 173.296 14.9321 167.939 14.9321C162.037 14.9321 157.505 17.562 156.043 22.6793L162.222 23.5589C162.877 21.6388 164.742 19.9948 167.985 19.9948C171.058 19.9948 172.738 21.566 172.738 24.3264V24.4356C172.738 26.3345 170.745 26.4285 165.792 26.9563C160.347 27.5417 155.139 29.1676 155.139 35.4921C155.121 41.0128 159.158 43.9369 164.515 43.9369ZM166.69 39.0836C163.929 39.0836 161.955 37.8217 161.955 35.392C161.955 32.8501 164.166 31.7914 167.111 31.3698C168.849 31.1332 172.323 30.6934 173.178 30.0018V33.3081C173.196 36.4233 170.672 39.0745 166.69 39.0745V39.0836Z" fill="#6C7993"/>
<path d="M184.216 43.3694H190.722V38.9468H191.105C192.148 40.9943 194.323 43.8638 199.149 43.8638C205.765 43.8638 210.718 38.6161 210.718 29.3705C210.718 20.0127 205.619 14.9318 199.131 14.9318C194.177 14.9318 192.112 17.9106 191.105 19.9399H190.825V5.93799H184.216V43.3694ZM190.704 29.3341C190.704 23.8741 193.043 20.3585 197.302 20.3585C201.706 20.3585 203.975 24.1047 203.975 29.3341C203.975 34.5636 201.673 38.4341 197.302 38.4341C193.079 38.4341 190.704 34.779 190.704 29.3341Z" fill="#6C7993"/>
</svg>
