<svg viewBox="0 0 210 64" fill="currentColor" xmlns="http://www.w3.org/2000/svg" class="mt-4 h-12 w-auto text-gray-1 md:mt-6 md:h-14 lg:mt-8 lg:h-16 mx-4 md:mx-6 lg:mx-[26px]"><g clip-path="url(#google-cloud_inline_svg__a)" fill="currentColor"><path d="m26.278 24.301 1.323.024 3.593-3.642.173-1.543C28.512 16.566 24.754 15 20.642 15c-7.445 0-13.73 5.134-15.591 12.088.393-.277 1.231-.07 1.231-.07l7.182-1.197s.37-.621.555-.583a8.927 8.927 0 0 1 5.947-2.931 8.891 8.891 0 0 1 6.313 1.994Z"/><path d="M36.256 27.102a16.424 16.424 0 0 0-4.874-7.962l-5.09 5.157a9.061 9.061 0 0 1 2.467 3.152c.58 1.225.88 2.565.88 3.923v.91c2.477 0 4.486 2.043 4.486 4.546 0 2.504-2.015 4.546-4.485 4.546h-8.974l-.898.914v5.457l.898.906h8.974a11.611 11.611 0 0 0 8.236-3.472 11.925 11.925 0 0 0 3.42-8.35 11.886 11.886 0 0 0-5.052-9.727h.012Z"/><path d="M11.672 48.658h8.971V41.38h-8.971a4.39 4.39 0 0 1-1.846-.406l-1.295.402-3.593 3.64-.315 1.23a11.416 11.416 0 0 0 7.05 2.414l-.001-.002Z"/><path d="M11.67 25.007a11.61 11.61 0 0 0-8.247 3.47A11.925 11.925 0 0 0 1.22 42.092a11.775 11.775 0 0 0 3.404 4.16l5.203-5.273A4.503 4.503 0 0 1 7.9 39.303a4.59 4.59 0 0 1-.72-2.468c0-2.51 2.016-4.546 4.486-4.546a4.453 4.453 0 0 1 2.435.73 4.54 4.54 0 0 1 1.656 1.951l5.202-5.272c-2.134-2.847-5.503-4.686-9.295-4.686l.005-.005ZM66.656 42.753c-2.928 0-5.442-1.05-7.561-3.152-2.119-2.1-3.177-4.628-3.177-7.575s1.057-5.474 3.177-7.575 4.637-3.153 7.561-3.153a9.988 9.988 0 0 1 3.918.739 10.1 10.1 0 0 1 3.333 2.216l-2.04 2.07a7.294 7.294 0 0 0-5.212-2.095c-2.114 0-3.91.757-5.382 2.28a7.585 7.585 0 0 0-1.66 2.53 7.67 7.67 0 0 0-.546 2.99c0 2.165.733 4.001 2.206 5.518a7.251 7.251 0 0 0 2.455 1.713 7.163 7.163 0 0 0 2.927.566c2.152 0 3.93-.7 5.346-2.148.828-.84 1.381-2.101 1.574-3.691H66.66v-2.93h9.73c.104.52.139 1.12.139 1.82 0 2.88-.833 5.163-2.505 6.857-1.895 2.01-4.35 3.012-7.383 3.012l.015.008Zm22.612-1.961c-1.326 1.317-2.942 1.96-4.85 1.96-1.91 0-3.529-.657-4.852-1.96-1.323-1.303-1.986-2.96-1.986-4.93 0-1.971.663-3.614 1.986-4.931 1.323-1.317 2.942-1.961 4.851-1.961 1.91 0 3.528.658 4.852 1.96 1.323 1.303 1.986 2.965 1.986 4.931 0 1.967-.663 3.614-1.986 4.93Zm-7.56-1.933c.344.38.763.682 1.23.887.468.204.972.308 1.48.302 1.05 0 1.954-.395 2.712-1.19.759-.796 1.136-1.793 1.136-2.998 0-1.219-.373-2.224-1.123-3.012-.75-.787-1.655-1.176-2.724-1.176a3.601 3.601 0 0 0-1.485.295c-.47.203-.892.503-1.24.881-.75.785-1.122 1.788-1.122 3.012 0 1.202.377 2.203 1.135 2.998Zm22.477 1.933c-1.326 1.317-2.942 1.96-4.85 1.96-1.91 0-3.529-.657-4.852-1.96-1.323-1.303-1.986-2.96-1.986-4.93 0-1.971.663-3.614 1.986-4.931 1.323-1.317 2.942-1.961 4.851-1.961 1.909 0 3.528.658 4.851 1.96 1.324 1.303 1.987 2.965 1.987 4.931 0 1.967-.663 3.614-1.987 4.93Zm-7.561-1.933c.345.38.764.682 1.231.887.467.204.972.308 1.48.302 1.05 0 1.954-.395 2.712-1.19.758-.796 1.136-1.793 1.136-2.998 0-1.219-.373-2.224-1.123-3.012-.751-.787-1.655-1.176-2.724-1.176a3.601 3.601 0 0 0-1.486.295c-.469.203-.89.503-1.238.881-.75.785-1.123 1.788-1.123 3.012 0 1.202.377 2.203 1.135 2.998Zm17.367 10.113c-1.512 0-2.786-.412-3.818-1.233-1.031-.82-1.77-1.77-2.218-2.854l2.608-1.097c.273.664.691 1.24 1.289 1.729.598.488 1.298.73 2.143.73 1.136 0 2.028-.35 2.671-1.046.642-.696.966-1.703.966-3.011v-.98h-.103c-.829 1.046-2.04 1.571-3.586 1.571-1.738 0-3.26-.672-4.568-2.014a6.676 6.676 0 0 1-1.474-2.23 6.747 6.747 0 0 1-.487-2.64 6.835 6.835 0 0 1 .486-2.656 6.76 6.76 0 0 1 1.475-2.25c1.305-1.349 2.832-2.027 4.568-2.027.774 0 1.475.147 2.102.446.627.298 1.123.663 1.484 1.096h.103v-1.112h2.84V41.8c0 2.41-.605 4.208-1.82 5.407-1.216 1.19-2.765 1.793-4.659 1.793l-.002-.028Zm.208-8.925a3.29 3.29 0 0 0 1.429-.3c.449-.205.847-.509 1.166-.89.696-.794 1.044-1.783 1.044-2.972 0-1.202-.348-2.207-1.044-3.011a3.321 3.321 0 0 0-1.164-.899 3.274 3.274 0 0 0-1.431-.303c-1.05 0-1.945.403-2.683 1.202-.738.798-1.111 1.804-1.111 3.011 0 1.185.369 2.178 1.111 2.973.742.794 1.634 1.19 2.683 1.19v-.001Zm11.329-18.02v20.31h-2.993v-20.31h2.993Zm8.205 20.724c-1.928 0-3.536-.663-4.826-1.988-1.29-1.326-1.937-2.964-1.937-4.92 0-2.023.622-3.684 1.871-4.973a6.138 6.138 0 0 1 2.077-1.453 6.071 6.071 0 0 1 2.478-.485c.825 0 1.593.151 2.297.458a5.419 5.419 0 0 1 1.755 1.177c.419.423.792.892 1.11 1.399.263.433.488.888.671 1.361l.311.785-9.108 3.827c.69 1.395 1.796 2.094 3.304 2.094 1.376 0 2.496-.635 3.354-1.91l2.32 1.572c-.518.785-1.247 1.492-2.193 2.12-.946.627-2.111.938-3.487.938l.003-.002Zm-3.793-7.115 6.078-2.564c-.174-.437-.489-.79-.967-1.059a3.09 3.09 0 0 0-1.575-.403c-.878 0-1.699.364-2.463 1.097s-1.132 1.712-1.098 2.93l.025-.001Zm25.32 7.115c-2.722 0-5.001-.932-6.841-2.8-1.84-1.87-2.762-4.196-2.762-6.988 0-2.791.92-5.12 2.762-6.987 1.843-1.865 4.121-2.801 6.841-2.801 2.786 0 5.05 1.023 6.786 3.06l-1.651 1.625c-1.243-1.588-2.969-2.38-5.138-2.38-2.017 0-3.71.688-5.111 2.068-1.401 1.38-2.078 3.183-2.078 5.415 0 2.233.691 4.04 2.078 5.421 1.387 1.381 3.084 2.069 5.111 2.069 2.218 0 4.112-.908 5.663-2.72l1.651 1.674a9.01 9.01 0 0 1-3.177 2.447 9.585 9.585 0 0 1-4.15.899l.016-.002Zm11.818-.414h-2.376V23.599h2.376v18.738Zm3.872-11.29c1.222-1.298 2.763-1.951 4.672-1.951 1.909 0 3.449.651 4.671 1.951 1.223 1.3 1.833 2.942 1.833 4.882 0 1.94-.608 3.581-1.833 4.881-1.225 1.3-2.762 1.951-4.671 1.951-1.909 0-3.45-.651-4.672-1.95-1.222-1.3-1.833-2.942-1.833-4.882 0-1.94.608-3.582 1.833-4.882Zm1.768 8.24c.829.845 1.788 1.27 2.901 1.27 1.113 0 2.072-.425 2.901-1.27.828-.844 1.226-1.968 1.226-3.361 0-1.394-.41-2.519-1.226-3.362-.817-.843-1.788-1.269-2.901-1.269-1.113 0-2.072.424-2.901 1.269-.829.845-1.227 1.968-1.227 3.362 0 1.393.411 2.518 1.227 3.361Zm22.543 3.05h-2.272v-1.779h-.104c-.359.61-.911 1.13-1.65 1.54-.739.411-1.52.645-2.349.645-1.584 0-2.782-.487-3.598-1.466-.816-.98-1.227-2.288-1.227-3.927v-7.852h2.376v7.457c0 2.393 1.04 3.586 3.122 3.586.466.01.927-.094 1.345-.303.418-.21.78-.517 1.056-.899.614-.79.942-1.769.928-2.774v-7.067h2.376v12.826l-.003.013Zm8.051.416c-1.635 0-3.048-.656-4.233-1.964-1.185-1.308-1.779-2.93-1.779-4.869 0-1.938.594-3.56 1.779-4.869 1.185-1.308 2.6-1.964 4.233-1.964.961 0 1.828.21 2.596.627.768.416 1.34.94 1.717 1.571h.104l-.104-1.779v-5.91h2.376v18.74h-2.272v-1.778h-.104c-.377.626-.949 1.151-1.717 1.572-.766.411-1.634.621-2.596.621v.002Zm.386-2.2c.536.008 1.068-.1 1.56-.317a3.797 3.797 0 0 0 1.293-.939c.783-.836 1.174-1.963 1.174-3.361 0-1.398-.39-2.54-1.174-3.362a3.798 3.798 0 0 0-1.293-.94 3.744 3.744 0 0 0-1.56-.317c-1.102 0-2.048.425-2.84 1.27-.791.844-1.185 1.967-1.185 3.361 0 1.394.394 2.519 1.185 3.362.358.404.796.726 1.286.944.489.22 1.019.33 1.554.325v-.025Z"/></g><defs><clipPath id="google-cloud_inline_svg__a"><path fill="currentColor" d="M0 0h210v64H0z"/></clipPath></defs></svg>