<svg width="164" height="20" viewBox="0 0 164 20" fill="none" xmlns="http://www.w3.org/2000/svg">
<path d="M157.113 12.6921C158.599 12.4357 159.998 11.8184 161.188 10.8944C161.731 10.3266 162.146 9.64967 162.407 8.9088C162.668 8.16794 162.767 7.3801 162.699 6.59775C162.703 5.30968 162.348 4.04593 161.674 2.94831C161.184 2.11304 160.493 1.41329 159.663 0.912555C158.834 0.411823 157.892 0.125959 156.925 0.0808989H155.944L153.65 0H143.271C142.641 0 142.371 0.260674 142.371 0.898876V19.0742C142.371 19.7034 142.632 19.973 143.271 19.973H145.969C146.599 19.973 146.868 19.7124 146.868 19.0742V13.0517H150.17C150.895 13.0896 151.586 13.3788 152.121 13.8697L157.356 19.1281C157.834 19.6158 158.474 19.9103 159.155 19.9551H163.176C163.806 19.9551 163.958 19.5865 163.518 19.1371L157.113 12.6921ZM156.43 8.82697H146.85V4.2427H156.43C156.9 4.30036 157.331 4.5297 157.642 4.88653C157.952 5.24336 158.12 5.70243 158.112 6.17528V6.88539C158.12 7.35925 157.953 7.81945 157.643 8.17776C157.332 8.53606 156.9 8.76724 156.43 8.82697Z" fill="#6C7993"/>
<path d="M138.18 15.7483H123.312V12H135.176C135.805 12 136.075 11.7393 136.075 11.1011V8.91685C136.075 8.28764 135.814 8.01798 135.176 8.01798H123.303V4.27865H138.18C138.81 4.27865 139.079 4.01798 139.079 3.37978V0.898876C139.079 0.269663 138.819 0 138.18 0H119.633C119.003 0 118.733 0.260674 118.733 0.898876V19.0921C118.733 19.7213 118.994 19.991 119.633 19.991H138.18C138.81 19.991 139.079 19.7303 139.079 19.0921V16.6382C139.079 16.009 138.783 15.7483 138.18 15.7483Z" fill="#6C7993"/>
<path d="M115.45 6.5618C115.47 5.28985 115.117 4.03997 114.434 2.96629C113.94 2.11029 113.241 1.39078 112.399 0.872844C111.557 0.354913 110.6 0.0549158 109.613 0L95.9766 0C95.338 0 95.0771 0.260674 95.0771 0.898876V19.0742C95.0771 19.7034 95.338 19.973 95.9766 19.973H98.9089C99.5385 19.973 99.8084 19.7213 99.8084 19.0742V4.25169H107.706C109.388 4.25169 111.025 5.36629 111.025 7.04719V19.0921C111.025 19.7213 111.286 19.991 111.924 19.991H114.578C115.216 19.991 115.477 19.7303 115.477 19.0921L115.45 6.5618Z" fill="#6C7993"/>
<path d="M90.9303 15.6315H78.1128L90.9573 4.35056C91.215 4.15342 91.4282 3.90427 91.5832 3.6193C91.7382 3.33434 91.8314 3.01996 91.8567 2.69663V0.898876C91.8567 0.269663 91.5869 0 90.9573 0H72.3651C71.7355 0 71.4657 0.260674 71.4657 0.898876V3.38876C71.4657 4.01798 71.7265 4.28764 72.3651 4.28764H84.2832L72.3292 15.4966C72.0735 15.6957 71.8616 15.9453 71.7069 16.2299C71.5521 16.5145 71.4577 16.8279 71.4297 17.1506V19.1011C71.4297 19.7303 71.6905 20 72.3292 20H90.9033C91.5329 20 91.8028 19.7393 91.8028 19.1011V16.5213C91.8207 15.8921 91.5599 15.6315 90.9303 15.6315Z" fill="#6C7993"/>
<path d="M67.2927 0H48.7276C48.089 0 47.8281 0.251685 47.8281 0.898876V3.37978C47.8281 4.00899 48.08 4.27865 48.7276 4.27865H55.7255V19.0921C55.7255 19.7213 55.9864 19.991 56.625 19.991H59.5932C60.2229 19.991 60.4927 19.7303 60.4927 19.0921V4.26966H67.3017C67.9314 4.26966 68.2012 4.00899 68.2012 3.37079V0.898876C68.1832 0.28764 67.9224 0 67.2927 0Z" fill="#6C7993"/>
<path d="M43.6548 15.7483H28.8135V12H40.6775C41.3071 12 41.577 11.7393 41.577 11.1011V8.91685C41.577 8.28764 41.3251 8.01798 40.6775 8.01798H28.8135V4.27865H43.6548C44.2844 4.27865 44.5542 4.01798 44.5542 3.37978V0.898876C44.5542 0.269663 44.2934 0 43.6548 0H25.1436C24.514 0 24.2441 0.260674 24.2441 0.898876V19.0921C24.2441 19.7213 24.505 19.991 25.1436 19.991H43.6548C44.2844 19.991 44.5542 19.7303 44.5542 19.0921V16.6382C44.5453 16.009 44.2844 15.7483 43.6548 15.7483Z" fill="#6C7993"/>
<path d="M20.0162 0H17.2188C16.5892 0 16.3193 0.260674 16.3193 0.898876V7.97303H5.17485V0.898876C5.17485 0.269663 4.914 0 4.27537 0H1.46002C0.821394 0 0.560547 0.260674 0.560547 0.898876V19.1011C0.560547 19.7393 0.821394 20 1.46002 20H4.27537C4.905 20 5.17485 19.7483 5.17485 19.1011V11.9101H16.3283V19.1011C16.3283 19.7303 16.5892 20 17.2278 20H20.0251C20.6548 20 20.9246 19.7393 20.9246 19.1011V0.898876C20.9066 0.28764 20.6458 0 20.0162 0Z" fill="#6C7993"/>
</svg>
