<svg width="352" height="40" viewBox="0 0 352 43" fill="none" xmlns="http://www.w3.org/2000/svg">
<g clip-path="url(#clip0_719_723)">
<path d="M337.301 27.3004C340.496 26.7489 343.505 25.4209 346.066 23.4335C347.233 22.2121 348.127 20.7561 348.687 19.1625C349.248 17.569 349.462 15.8744 349.316 14.1915C349.325 11.421 348.561 8.70266 347.11 6.34173C346.056 4.54507 344.569 3.03993 342.785 1.96288C341.002 0.885818 338.977 0.270934 336.895 0.174011H334.786L329.852 0H307.526C306.171 0 305.591 0.560701 305.591 1.93345V41.0279C305.591 42.3813 306.152 42.9613 307.526 42.9613H313.33C314.684 42.9613 315.265 42.4006 315.265 41.0279V28.0737H322.365C323.926 28.1553 325.411 28.7773 326.563 29.8332L337.824 41.1439C338.85 42.1929 340.228 42.8264 341.693 42.9227H350.341C351.696 42.9227 352.024 42.13 351.076 41.1632L337.301 27.3004ZM335.831 18.9865H315.226V9.1259H335.831C336.841 9.24992 337.77 9.74323 338.438 10.5108C339.106 11.2783 339.466 12.2657 339.449 13.2828V14.8103C339.466 15.8295 339.107 16.8194 338.439 17.5901C337.772 18.3608 336.843 18.858 335.831 18.9865Z" fill="#6C7993"/>
<path d="M296.575 33.8741H264.594V25.8116H290.113C291.467 25.8116 292.048 25.2509 292.048 23.8781V19.1799C292.048 17.8264 291.487 17.2464 290.113 17.2464H264.575V9.20324H296.575C297.929 9.20324 298.51 8.64254 298.51 7.26978V1.93345C298.51 0.580036 297.949 0 296.575 0H256.681C255.327 0 254.746 0.560701 254.746 1.93345V41.0665C254.746 42.42 255.307 43 256.681 43H296.575C297.929 43 298.51 42.4393 298.51 41.0665V35.7882C298.51 34.4348 297.871 33.8741 296.575 33.8741Z" fill="#6C7993"/>
<path d="M247.684 14.1142C247.726 11.3783 246.966 8.68984 245.498 6.3804C244.436 4.53917 242.932 2.99151 241.122 1.87746C239.311 0.763405 237.251 0.118122 235.128 0L205.797 0C204.423 0 203.862 0.560701 203.862 1.93345V41.0279C203.862 42.3813 204.423 42.9613 205.797 42.9613H212.104C213.459 42.9613 214.039 42.42 214.039 41.0279V9.14523H231.026C234.644 9.14523 238.165 11.5427 238.165 15.1583V41.0665C238.165 42.42 238.726 43 240.1 43H245.807C247.181 43 247.742 42.4393 247.742 41.0665L247.684 14.1142Z" fill="#6C7993"/>
<path d="M194.943 33.6228H167.373L195.001 9.35791C195.556 8.93388 196.014 8.39795 196.348 7.785C196.681 7.17206 196.881 6.49584 196.936 5.80036V1.93345C196.936 0.580036 196.356 0 195.001 0H155.01C153.656 0 153.075 0.560701 153.075 1.93345V7.28912C153.075 8.64254 153.637 9.22257 155.01 9.22257H180.645L154.933 33.3327C154.383 33.7609 153.927 34.2978 153.594 34.9099C153.261 35.5221 153.058 36.1962 152.998 36.8903V41.0859C152.998 42.4393 153.559 43.0193 154.933 43.0193H194.885C196.239 43.0193 196.82 42.4586 196.82 41.0859V35.5369C196.859 34.1835 196.297 33.6228 194.943 33.6228Z" fill="#6C7993"/>
<path d="M144.099 0H104.166C102.793 0 102.231 0.541367 102.231 1.93345V7.26978C102.231 8.6232 102.773 9.20324 104.166 9.20324H119.218V41.0665C119.218 42.42 119.78 43 121.153 43H127.538C128.892 43 129.473 42.4393 129.473 41.0665V9.1839H144.118C145.473 9.1839 146.053 8.6232 146.053 7.25045V1.93345C146.015 0.618705 145.453 0 144.099 0Z" fill="#6C7993"/>
<path d="M93.2536 33.8741H61.3304V25.8116H86.8496C88.2039 25.8116 88.7843 25.2509 88.7843 23.8781V19.1799C88.7843 17.8264 88.2426 17.2464 86.8496 17.2464H61.3304V9.20324H93.2536C94.6079 9.20324 95.1883 8.64254 95.1883 7.26978V1.93345C95.1883 0.580036 94.6272 0 93.2536 0H53.4367C52.0824 0 51.502 0.560701 51.502 1.93345V41.0665C51.502 42.42 52.063 43 53.4367 43H93.2536C94.6079 43 95.1883 42.4393 95.1883 41.0665V35.7882C95.169 34.4348 94.6079 33.8741 93.2536 33.8741Z" fill="#6C7993"/>
<path d="M42.4089 0H36.3919C35.0376 0 34.4571 0.560701 34.4571 1.93345V17.1497H10.4857V1.93345C10.4857 0.580036 9.92467 0 8.55101 0H2.49528C1.12162 0 0.560547 0.560701 0.560547 1.93345V41.0859C0.560547 42.4586 1.12162 43.0193 2.49528 43.0193H8.55101C9.90533 43.0193 10.4857 42.478 10.4857 41.0859V25.6183H34.4765V41.0859C34.4765 42.4393 35.0376 43.0193 36.4112 43.0193H42.4283C43.7826 43.0193 44.363 42.4586 44.363 41.0859V1.93345C44.3243 0.618705 43.7632 0 42.4089 0Z" fill="#6C7993"/>
</g>
<defs>
<clipPath id="clip0_719_723">
<rect width="351" height="43" fill="white" transform="translate(0.560547)"/>
</clipPath>
</defs>
</svg>
