<svg width="330" height="43" viewBox="0 0 330 43" fill="none" xmlns="http://www.w3.org/2000/svg">
<path d="M0.560547 1.4707H11.6894V9.04492H0.560547V1.4707ZM0.560547 12.5175H11.6894V41.5566H0.560547V12.5175ZM18.0684 12.5175H28.4317V17.248C29.9811 15.3157 31.5489 13.9394 33.1348 13.1191C34.7207 12.2806 36.653 11.8613 38.9317 11.8613C42.0124 11.8613 44.4186 12.7819 46.1504 14.623C47.9004 16.4459 48.7754 19.2714 48.7754 23.0996V41.5566H37.5918V25.5878C37.5918 23.7649 37.2546 22.4798 36.5801 21.7324C35.9056 20.9668 34.9577 20.5839 33.7364 20.5839C32.3874 20.5839 31.2936 21.0944 30.4551 22.1152C29.6166 23.136 29.1973 24.9681 29.1973 27.6113V41.5566H18.0684V12.5175ZM67.0762 12.5175H72.3809V20.666H67.0762V41.5566H55.92V20.666H51.7637V12.5175H55.92V11.205C55.92 10.0202 56.0476 8.7168 56.3028 7.29492C56.558 5.87305 57.032 4.71549 57.7247 3.82226C58.4356 2.91081 59.42 2.18164 60.6778 1.63476C61.9538 1.06966 63.8132 0.787109 66.2559 0.787109C68.2064 0.787109 71.0411 1.01497 74.7598 1.4707L73.5294 8.19726C72.1986 7.97852 71.1231 7.86914 70.3028 7.86914C69.3002 7.86914 68.5801 8.04232 68.1426 8.38867C67.7051 8.7168 67.3952 9.24544 67.2129 9.97461C67.1218 10.3757 67.0762 11.2233 67.0762 12.5175ZM74.4122 27.1191C74.4122 22.6894 75.907 19.0436 78.8966 16.1816C81.8862 13.3014 85.9239 11.8613 91.0099 11.8613C96.825 11.8613 101.218 13.5475 104.189 16.9199C106.577 19.636 107.771 22.9811 107.771 26.955C107.771 31.4212 106.286 35.0852 103.314 37.9472C100.361 40.791 96.269 42.2128 91.0372 42.2128C86.3705 42.2128 82.5971 41.028 79.7169 38.6582C76.1804 35.7233 74.4122 31.8769 74.4122 27.1191ZM85.5684 27.0918C85.5684 29.6803 86.088 31.5944 87.127 32.8339C88.1843 34.0735 89.5059 34.6933 91.0919 34.6933C92.6961 34.6933 94.0086 34.0826 95.0294 32.8613C96.0684 31.6399 96.588 29.6803 96.588 26.9824C96.588 24.4668 96.0684 22.5983 95.0294 21.3769C93.9903 20.1373 92.7052 19.5175 91.1739 19.5175C89.5515 19.5175 88.2117 20.1464 87.1544 21.4043C86.0971 22.6438 85.5684 24.5397 85.5684 27.0918ZM112.482 12.5175H122.873V16.7558C124.368 14.9876 125.872 13.7298 127.385 12.9824C128.916 12.235 130.757 11.8613 132.908 11.8613C135.223 11.8613 137.055 12.2714 138.404 13.0918C139.753 13.9121 140.856 15.1334 141.713 16.7558C143.463 14.86 145.058 13.5748 146.498 12.9004C147.938 12.2076 149.716 11.8613 151.83 11.8613C154.947 11.8613 157.381 12.791 159.131 14.6504C160.881 16.4915 161.756 19.3808 161.756 23.3183V41.5566H150.6V25.0136C150.6 23.7011 150.344 22.7259 149.834 22.0878C149.087 21.0852 148.157 20.5839 147.045 20.5839C145.732 20.5839 144.675 21.0579 143.873 22.0058C143.071 22.9537 142.67 24.4759 142.67 26.5722V41.5566H131.514V25.5605C131.514 24.2845 131.441 23.4186 131.295 22.9628C131.058 22.2337 130.648 21.6504 130.064 21.2128C129.481 20.7571 128.798 20.5293 128.014 20.5293C126.738 20.5293 125.689 21.0123 124.869 21.9785C124.049 22.9446 123.639 24.5306 123.639 26.7363V41.5566H112.482V12.5175ZM177.815 21.9238L167.178 20.8027C167.579 18.9433 168.153 17.485 168.9 16.4277C169.666 15.3522 170.76 14.4225 172.182 13.6386C173.203 13.0735 174.606 12.636 176.393 12.3261C178.179 12.0162 180.111 11.8613 182.19 11.8613C185.525 11.8613 188.205 12.0527 190.229 12.4355C192.252 12.8001 193.938 13.5748 195.287 14.7597C196.235 15.58 196.982 16.7467 197.529 18.2597C198.076 19.7545 198.35 21.1855 198.35 22.5527V35.3769C198.35 36.7441 198.432 37.8196 198.596 38.6035C198.778 39.3691 199.161 40.3535 199.744 41.5566H189.299C188.88 40.8092 188.606 40.2441 188.479 39.8613C188.351 39.4602 188.223 38.8405 188.096 38.0019C186.637 39.4056 185.188 40.4082 183.748 41.0097C181.779 41.8118 179.492 42.2128 176.885 42.2128C173.421 42.2128 170.787 41.4108 168.982 39.8066C167.196 38.2024 166.303 36.2246 166.303 33.873C166.303 31.6673 166.95 29.8535 168.244 28.4316C169.538 27.0097 171.926 25.9524 175.408 25.2597C179.583 24.4212 182.29 23.8378 183.529 23.5097C184.769 23.1634 186.081 22.7168 187.467 22.1699C187.467 20.8027 187.184 19.8457 186.619 19.2988C186.054 18.7519 185.061 18.4785 183.639 18.4785C181.816 18.4785 180.449 18.7701 179.537 19.3535C178.826 19.8092 178.252 20.666 177.815 21.9238ZM187.467 27.7754C185.936 28.3222 184.341 28.8053 182.682 29.2246C180.421 29.8261 178.99 30.4186 178.389 31.0019C177.769 31.6035 177.459 32.2871 177.459 33.0527C177.459 33.9277 177.76 34.6477 178.361 35.2128C178.981 35.7597 179.884 36.0332 181.068 36.0332C182.308 36.0332 183.456 35.7324 184.514 35.1308C185.589 34.5293 186.346 33.8001 186.783 32.9433C187.239 32.0683 187.467 30.9381 187.467 29.5527V27.7754ZM204.291 12.5175H214.654V17.248C216.204 15.3157 217.772 13.9394 219.358 13.1191C220.943 12.2806 222.876 11.8613 225.154 11.8613C228.235 11.8613 230.641 12.7819 232.373 14.623C234.123 16.4459 234.998 19.2714 234.998 23.0996V41.5566H223.815V25.5878C223.815 23.7649 223.477 22.4798 222.803 21.7324C222.128 20.9668 221.18 20.5839 219.959 20.5839C218.61 20.5839 217.516 21.0944 216.678 22.1152C215.839 23.136 215.42 24.9681 215.42 27.6113V41.5566H204.291V12.5175ZM241.322 1.4707H252.451V9.04492H241.322V1.4707ZM241.322 12.5175H252.451V41.5566H241.322V12.5175ZM268.975 21.9238L258.338 20.8027C258.739 18.9433 259.313 17.485 260.061 16.4277C260.826 15.3522 261.92 14.4225 263.342 13.6386C264.363 13.0735 265.766 12.636 267.553 12.3261C269.339 12.0162 271.272 11.8613 273.35 11.8613C276.686 11.8613 279.365 12.0527 281.389 12.4355C283.412 12.8001 285.098 13.5748 286.447 14.7597C287.395 15.58 288.143 16.7467 288.69 18.2597C289.236 19.7545 289.51 21.1855 289.51 22.5527V35.3769C289.51 36.7441 289.592 37.8196 289.756 38.6035C289.938 39.3691 290.321 40.3535 290.904 41.5566H280.459C280.04 40.8092 279.766 40.2441 279.639 39.8613C279.511 39.4602 279.384 38.8405 279.256 38.0019C277.798 39.4056 276.348 40.4082 274.908 41.0097C272.94 41.8118 270.652 42.2128 268.045 42.2128C264.582 42.2128 261.947 41.4108 260.143 39.8066C258.356 38.2024 257.463 36.2246 257.463 33.873C257.463 31.6673 258.11 29.8535 259.404 28.4316C260.699 27.0097 263.087 25.9524 266.569 25.2597C270.743 24.4212 273.45 23.8378 274.69 23.5097C275.929 23.1634 277.242 22.7168 278.627 22.1699C278.627 20.8027 278.345 19.8457 277.779 19.2988C277.214 18.7519 276.221 18.4785 274.799 18.4785C272.976 18.4785 271.609 18.7701 270.697 19.3535C269.986 19.8092 269.412 20.666 268.975 21.9238ZM278.627 27.7754C277.096 28.3222 275.501 28.8053 273.842 29.2246C271.582 29.8261 270.151 30.4186 269.549 31.0019C268.929 31.6035 268.619 32.2871 268.619 33.0527C268.619 33.9277 268.92 34.6477 269.522 35.2128C270.141 35.7597 271.044 36.0332 272.229 36.0332C273.468 36.0332 274.617 35.7324 275.674 35.1308C276.75 34.5293 277.506 33.8001 277.944 32.9433C278.399 32.0683 278.627 30.9381 278.627 29.5527V27.7754ZM295.451 1.4707H306.826V22.1425L315.139 12.5175H328.838L318.42 22.6894L329.44 41.5566H316.889L311.01 29.9082L306.826 34.0097V41.5566H295.451V1.4707Z" fill="#6C7993"/>
</svg>
