<svg width="214" height="40" viewBox="0 0 214 82" fill="none" xmlns="http://www.w3.org/2000/svg">
<g clip-path="url(#clip0_1377_1830)">
<mask id="mask0_1377_1830" style="mask-type:luminance" maskUnits="userSpaceOnUse" x="0" y="0" width="214" height="82">
<path d="M0 0H214V82H0V0Z" fill="white"/>
<g clip-path="url(#clip1_1377_1830)">
<mask id="mask1_1377_1830" style="mask-type:luminance" maskUnits="userSpaceOnUse" x="0" y="0" width="214" height="82">
<path d="M0 0H214V82H0V0Z" fill="white"/>
</mask>
<g mask="url(#mask1_1377_1830)">
<path d="M186.188 12.7588C170.79 12.7588 158.378 24.9132 158.378 39.991C158.378 55.0687 170.788 67.2252 186.188 67.2252C201.586 67.2252 214 55.0687 214 39.991C214 25.067 201.427 12.7588 186.188 12.7588ZM186.188 57.377C176.447 57.377 168.591 49.6834 168.591 40.1447C168.591 30.6061 176.447 22.9124 186.188 22.9124C195.929 22.9124 203.786 30.6061 203.786 40.1447C203.786 49.5296 195.929 57.377 186.188 57.377Z" fill="white"/>
<path d="M85.7873 13.5298C84.8084 12.7409 83.5894 12.3071 82.3303 12.2998C81.0751 12.2998 79.8158 12.7611 78.8734 13.5298C77.7746 14.4523 77.3034 15.6844 77.3034 17.2239V42.6111C77.3034 52.7648 69.4471 57.2276 62.0621 57.2276C54.677 57.2276 46.8207 52.611 46.8207 42.6111V17.3756C46.8207 15.9919 46.1931 14.7619 45.2507 13.8394C44.2718 13.0506 43.0528 12.6168 41.7938 12.6094C40.5365 12.6094 39.2793 13.0686 38.3369 13.8394C37.236 14.7619 36.7648 15.9919 36.7648 17.3777V42.9186C36.7648 59.0726 49.6501 67.3813 62.2184 67.3813C68.6611 67.3813 75.1037 65.073 79.6595 61.2272C84.8448 56.7643 87.6721 50.4565 87.6721 42.9186V17.2239C87.3593 15.6864 86.8881 14.4544 85.7873 13.5298ZM145.01 12.7611C143.125 12.7611 141.553 13.6836 140.454 15.3769L123.169 41.9961L105.728 15.3748C104.786 13.6836 103.057 12.6073 101.173 12.6073C98.8166 12.6073 96.3021 14.4523 96.3021 17.8369V62.4572C96.3021 63.9947 96.9297 65.2247 97.8721 66.1492C98.8166 66.918 100.074 67.3792 101.329 67.3792C102.586 67.3792 103.844 66.918 104.786 66.1492C105.887 65.2267 106.358 63.9967 106.358 62.4572V34.4542L118.457 52.9165C119.4 54.6098 121.126 55.686 123.013 55.686C124.898 55.686 126.626 54.6098 127.569 52.9185L139.668 34.3004V62.3034C139.668 63.8409 140.296 65.0709 141.238 65.9934C142.182 66.7642 143.44 67.2255 144.695 67.2255C145.952 67.2255 147.209 66.7642 148.152 65.9955C149.253 65.073 149.724 63.843 149.724 62.3034V17.6852C149.88 14.9177 147.837 12.7611 145.01 12.7611ZM206.609 74.462C206.609 71.8462 204.407 69.6916 201.738 69.6916C201.109 69.6916 200.637 69.8454 200.01 69.9991C199.697 70.1529 199.382 70.3066 199.067 70.3066C194.983 71.6924 190.74 72.6149 186.182 72.6149C181.783 72.6149 177.54 71.8462 173.614 70.4624C173.14 70.3066 172.828 70.1549 172.354 69.9991C171.729 69.8454 171.258 69.6916 170.628 69.6916C167.957 69.6916 165.757 71.8441 165.757 74.462C165.757 76.4607 167.013 78.154 168.741 78.769H168.9C169.371 78.9228 169.686 79.0765 170.155 79.2302C175.186 81.0773 180.525 81.9998 186.184 81.9998C191.839 81.9998 197.18 81.0773 202.209 79.2323L203.623 78.769C204.505 78.4438 205.264 77.8558 205.799 77.0851C206.333 76.3145 206.616 75.3985 206.609 74.462ZM27.4969 17.0702C27.3385 14.6102 25.1388 12.6073 22.6264 12.6073H22.3116C20.2683 12.7611 18.3834 14.3006 17.9122 16.3014L17.7558 16.4552V47.2257C17.7558 53.6893 10.9984 58.1522 4.87056 58.1522C2.20173 58.1501 0 60.3026 0 62.9184C0 65.5342 2.19967 67.6888 4.87056 67.6888C11.1548 67.6888 17.441 65.073 21.8403 60.9176C25.61 57.2256 27.6533 52.4552 27.6533 47.3794V17.3777L27.4969 17.0702Z" fill="white"/>
</g>
</g>
</mask>
<g mask="url(#mask0_1377_1830)">
<path d="M186.188 12.7588C170.79 12.7588 158.378 24.9132 158.378 39.991C158.378 55.0687 170.788 67.2252 186.188 67.2252C201.586 67.2252 214 55.0687 214 39.991C214 25.067 201.427 12.7588 186.188 12.7588ZM186.188 57.377C176.447 57.377 168.591 49.6834 168.591 40.1447C168.591 30.6061 176.447 22.9124 186.188 22.9124C195.929 22.9124 203.786 30.6061 203.786 40.1447C203.786 49.5296 195.929 57.377 186.188 57.377Z" fill="#A7B1BE"/>
<path d="M85.7873 13.5298C84.8084 12.7409 83.5894 12.3071 82.3303 12.2998C81.0751 12.2998 79.8158 12.7611 78.8734 13.5298C77.7746 14.4523 77.3034 15.6844 77.3034 17.2239V42.6111C77.3034 52.7648 69.4471 57.2276 62.0621 57.2276C54.677 57.2276 46.8207 52.611 46.8207 42.6111V17.3756C46.8207 15.9919 46.1931 14.7619 45.2507 13.8394C44.2718 13.0506 43.0528 12.6168 41.7938 12.6094C40.5365 12.6094 39.2793 13.0686 38.3369 13.8394C37.236 14.7619 36.7648 15.9919 36.7648 17.3777V42.9186C36.7648 59.0726 49.6501 67.3813 62.2184 67.3813C68.6611 67.3813 75.1037 65.073 79.6595 61.2272C84.8448 56.7643 87.6721 50.4565 87.6721 42.9186V17.2239C87.3593 15.6864 86.8881 14.4544 85.7873 13.5298ZM145.01 12.7611C143.125 12.7611 141.553 13.6836 140.454 15.3769L123.169 41.9961L105.728 15.3748C104.786 13.6836 103.057 12.6073 101.173 12.6073C98.8166 12.6073 96.3021 14.4523 96.3021 17.8369V62.4572C96.3021 63.9947 96.9297 65.2247 97.8721 66.1492C98.8166 66.918 100.074 67.3792 101.329 67.3792C102.586 67.3792 103.844 66.918 104.786 66.1492C105.887 65.2267 106.358 63.9967 106.358 62.4572V34.4542L118.457 52.9165C119.4 54.6098 121.126 55.686 123.013 55.686C124.898 55.686 126.626 54.6098 127.569 52.9185L139.668 34.3004V62.3034C139.668 63.8409 140.296 65.0709 141.238 65.9934C142.182 66.7642 143.44 67.2255 144.695 67.2255C145.952 67.2255 147.209 66.7642 148.152 65.9955C149.253 65.073 149.724 63.843 149.724 62.3034V17.6852C149.88 14.9177 147.837 12.7611 145.01 12.7611ZM206.609 74.462C206.609 71.8462 204.407 69.6916 201.738 69.6916C201.109 69.6916 200.637 69.8454 200.01 69.9991C199.697 70.1529 199.382 70.3066 199.067 70.3066C194.983 71.6924 190.74 72.6149 186.182 72.6149C181.783 72.6149 177.54 71.8462 173.614 70.4624C173.14 70.3066 172.828 70.1549 172.354 69.9991C171.729 69.8454 171.258 69.6916 170.628 69.6916C167.957 69.6916 165.757 71.8441 165.757 74.462C165.757 76.4607 167.013 78.154 168.741 78.769H168.9C169.371 78.9228 169.686 79.0765 170.155 79.2302C175.186 81.0773 180.525 81.9998 186.184 81.9998C191.839 81.9998 197.18 81.0773 202.209 79.2323L203.623 78.769C204.505 78.4438 205.264 77.8558 205.799 77.0851C206.333 76.3145 206.616 75.3985 206.609 74.462ZM27.4969 17.0702C27.3385 14.6102 25.1388 12.6073 22.6264 12.6073H22.3116C20.2683 12.7611 18.3834 14.3006 17.9122 16.3014L17.7558 16.4552V47.2257C17.7558 53.6893 10.9984 58.1522 4.87056 58.1522C2.20173 58.1501 0 60.3026 0 62.9184C0 65.5342 2.19967 67.6888 4.87056 67.6888C11.1548 67.6888 17.441 65.073 21.8403 60.9176C25.61 57.2256 27.6533 52.4552 27.6533 47.3794V17.3777L27.4969 17.0702Z" fill="#6C7993"/>
</g>
</g>
<defs>
<clipPath id="clip0_1377_1830">
<rect width="214" height="82" fill="white"/>
</clipPath>
<clipPath id="clip1_1377_1830">
<rect width="214" height="82" fill="white"/>
</clipPath>
</defs>
</svg>
