<svg width="399" height="43" viewBox="0 0 399 43" fill="none" xmlns="http://www.w3.org/2000/svg">
<path d="M261.805 38.7112H280.714V41.9405H258.076V1.06055H261.805V38.7112Z" fill="#6C7993"/>
<path d="M301.938 42.5C291.354 42.5 287.506 37.378 287.506 30.3902V12.6098C287.506 5.65854 291.354 0.5 301.938 0.5C312.521 0.5 316.37 5.65854 316.37 12.6098V30.3902C316.37 37.378 312.521 42.5 301.938 42.5ZM312.706 30.2439V12.7561C312.706 6.93902 309.857 3.7561 301.938 3.7561C294.019 3.7561 291.132 6.93902 291.132 12.7561V30.2439C291.132 36.061 293.982 39.2439 301.938 39.2439C309.894 39.2439 312.706 36.061 312.706 30.2439Z" fill="#6C7993"/>
<path d="M365.609 41.9396H362.213V5.0228L365.609 1.05957V41.9396Z" fill="#6C7993"/>
<path d="M378.919 30.6098C378.919 37.0122 381.788 39.2439 389.351 39.2439C392.434 39.2197 395.511 38.9628 398.554 38.4756L399.001 41.5854C395.708 42.1927 392.366 42.4989 389.016 42.5C378.993 42.5 375.23 38.2927 375.23 30.6829V12.3171C375.23 4.70732 378.993 0.5 389.016 0.5C392.366 0.501059 395.708 0.807249 399.001 1.41463L398.554 4.52439C395.511 4.03715 392.434 3.7803 389.351 3.7561C381.788 3.7561 378.919 6.02439 378.919 12.3902V30.6098Z" fill="#6C7993"/>
<path d="M347.637 7.81707H350.894V1.92683C347.857 1.26829 342.441 0.5 338.965 0.5C329.048 0.5 325.426 4.70732 325.426 12.3902V30.6098C325.426 38.2195 328.536 42.5 338.489 42.5C342.682 42.4802 346.854 41.9019 350.894 40.7805V23.878H343.319L345.734 26.878H347.308V38.3293C344.482 38.9409 341.6 39.2475 338.709 39.2439C331.061 39.2439 329.048 36.5732 329.048 30.5732V12.4268C329.048 6.20732 331.427 3.7561 339.038 3.7561C341.782 3.7561 344.82 4.19512 347.637 4.63415V7.81707Z" fill="#6C7993"/>
<path d="M3.67763 41.9396H0V1.05957H3.67763V41.9396ZM8.61829 21.1326L28.8638 41.9396H24.2575L4.1977 21.1326L23.1431 1.05957H27.6751L8.61829 21.1326Z" fill="#6C7993"/>
<path d="M43.3873 22.9684H51.9596C57.1104 22.9684 59.5386 21.2437 59.5386 16.7667V10.4916C59.5386 6.01459 57.1104 4.28985 51.9596 4.28985H40.9958V41.9405H37.3535V1.06055H51.886C60.1272 1.06055 63.1441 4.8036 63.1441 10.4916V16.7667C63.1441 21.1336 61.4149 24.3996 56.8528 25.6473C54.351 26.2711 50.4144 26.1243 50.304 26.161L63.9535 41.9405H59.8329L43.3873 22.9684Z" fill="#6C7993"/>
<path d="M86.5725 23.2253L98.6744 1.06055H102.438L88.4173 26.0509V41.9405H84.7646V26.0509L70.7441 1.06055H74.5075L86.5725 23.2253Z" fill="#6C7993"/>
<path d="M113.051 23.1142H122.792C128.035 23.1142 130.451 21.3895 130.451 16.9125V10.4906C130.451 6.01361 128.035 4.28887 122.792 4.28887H112.345V41.9396H108.664V1.05957H122.718C131.083 1.05957 134.132 4.80262 134.132 10.4906V16.9125C134.132 22.6005 131.083 26.3435 122.718 26.3435H115.914L113.051 23.1142Z" fill="#6C7993"/>
<path d="M150.706 4.28887H138.094V1.05957H166.958V4.28887H154.346V41.9396H150.706V4.28887Z" fill="#6C7993"/>
<path d="M187.333 42.5C176.957 42.5 173.184 37.378 173.184 30.3902V12.6098C173.184 5.65854 176.957 0.5 187.333 0.5C197.708 0.5 201.481 5.65854 201.481 12.6098V30.3902C201.481 37.378 197.708 42.5 187.333 42.5ZM197.89 30.2439V12.7561C197.89 6.93902 195.096 3.7561 187.333 3.7561C179.569 3.7561 176.775 6.93902 176.775 12.7561V30.2439C176.775 36.061 179.569 39.2439 187.333 39.2439C195.096 39.2439 197.89 36.061 197.89 30.2439Z" fill="#6C7993"/>
<path d="M222.152 42.5C218.187 42.4557 214.258 41.738 210.537 40.378L212.897 37.7805C216.474 38.6219 218.686 39.2439 222.263 39.2439C229.305 39.2439 231.223 37.1951 231.223 31.9634C231.223 25.6707 231.149 24.9756 222.041 22.9268C212.086 20.6585 210.98 18.8659 210.98 10.6707C210.98 3.97561 213.45 0.5 223.738 0.5C227.331 0.568586 230.9 1.09735 234.357 2.07317L231.96 4.78049C229.047 4.23171 227.093 3.7561 223.885 3.7561C215.736 3.7561 214.63 5.69512 214.63 10.7805C214.63 17.4024 214.814 17.6951 223.443 19.8537C234.246 22.561 234.873 24.061 234.873 31.7805C234.873 38.4756 232.587 42.5 222.152 42.5Z" fill="#6C7993"/>
</svg>
