<svg width="134" height="40" viewBox="0 0 134 40" fill="none" xmlns="http://www.w3.org/2000/svg">
<g clip-path="url(#clip0_5316_16208)">
<path d="M15.266 28.0599C15.266 28.9216 15.1184 29.6609 14.8233 30.2808C14.5282 30.9007 14.1481 31.435 13.683 31.8828C12.9501 32.5883 12.0599 33.0925 11.0134 33.3926C9.96689 33.6936 8.85392 33.8441 7.67353 33.8441C6.65339 33.8441 5.64791 33.7021 4.65513 33.418C3.66234 33.1339 2.77216 32.6476 1.98556 31.959C1.41295 31.4595 0.939038 30.8434 0.563814 30.1125C0.187612 29.3816 0 28.5763 0 27.6987H3.54216C3.54216 28.1474 3.63498 28.5641 3.82357 28.9507C4.01119 29.3383 4.24766 29.6703 4.53494 29.945C4.94534 30.3429 5.44173 30.6035 6.02313 30.7342C6.60453 30.8631 7.17226 30.9271 7.72727 30.9271C8.3888 30.9271 9.01515 30.8546 9.60535 30.7079C10.1955 30.5621 10.6695 30.3081 11.0271 29.945C11.2421 29.723 11.4199 29.486 11.5636 29.2348C11.7072 28.9855 11.7775 28.6375 11.7775 28.1897C11.7775 27.519 11.5508 27.0148 11.0945 26.679C10.6382 26.3441 10.1154 26.124 9.52425 26.0205C8.88031 25.9001 8.17383 25.8136 7.40482 25.7628C6.6358 25.712 5.93812 25.632 5.31275 25.5286C4.65024 25.4251 4.02877 25.2445 3.44835 24.9867C2.86695 24.7281 2.35688 24.3885 1.91814 23.9661C1.48038 23.5447 1.13154 23.0367 0.872592 22.4422C0.612671 21.8487 0.48271 21.1733 0.48271 20.4151C0.48271 19.6917 0.635145 19.0295 0.939038 18.4265C1.24293 17.8235 1.64551 17.2817 2.14679 16.7991C2.77216 16.1962 3.57733 15.723 4.56132 15.3787C5.54531 15.0344 6.60062 14.8623 7.72727 14.8623C8.74644 14.8623 9.72554 15.0128 10.6646 15.3138C11.6036 15.6158 12.3961 16.0588 13.039 16.6439C13.6116 17.1604 14.0719 17.7464 14.4207 18.4002C14.7696 19.0549 14.9523 19.7688 14.9709 20.544H11.4297C11.4111 20.2175 11.3261 19.894 11.1746 19.576C11.0222 19.2571 10.8297 18.9777 10.5981 18.736C10.2933 18.4265 9.86429 18.1857 9.31025 18.0126C8.75523 17.8414 8.21878 17.7549 7.69991 17.7549C7.16346 17.7549 6.61333 17.8235 6.05049 17.9609C5.48668 18.0992 5.00788 18.3663 4.61506 18.7623C4.41768 18.9683 4.26134 19.1922 4.14506 19.434C4.02877 19.6748 3.97112 19.9673 3.97112 20.3116C3.97112 20.9146 4.14994 21.3746 4.50758 21.6935C4.86521 22.0123 5.33033 22.2146 5.90294 22.3002C6.51073 22.3877 7.19473 22.4648 7.95495 22.5325C8.71517 22.6021 9.40797 22.6793 10.0343 22.7649C10.7496 22.8684 11.4248 23.0546 12.0599 23.3208C12.6951 23.588 13.2491 23.9407 13.724 24.3791C14.197 24.8193 14.5732 25.348 14.8507 25.9679C15.1262 26.5878 15.266 27.2848 15.266 28.0599Z" fill="#6C7993"/>
<path d="M30.2422 33.5355L28.9015 32.0887C28.1315 32.7434 27.2863 33.225 26.3658 33.5355C25.4444 33.8449 24.4917 34.0002 23.5077 34.0002C22.6673 34.0002 21.8622 33.8713 21.0931 33.6126C20.3241 33.3558 19.6538 32.9889 19.0812 32.5148C18.5096 32.0417 18.0532 31.4603 17.7132 30.7718C17.3731 30.0832 17.2031 29.3071 17.2031 28.4464C17.2031 27.3101 17.5119 26.3384 18.1295 25.5275C18.746 24.7186 19.5649 24.0131 20.5841 23.4101C20.2792 23.0997 20.0026 22.7949 19.7525 22.492C19.5014 22.1919 19.2874 21.8853 19.1086 21.5748C18.9288 21.2654 18.791 20.938 18.6923 20.5937C18.5946 20.2494 18.5447 19.8619 18.5447 19.432C18.5447 18.7086 18.6835 18.0624 18.961 17.4942C19.2375 16.926 19.6089 16.4397 20.074 16.0352C20.5391 15.6307 21.0892 15.325 21.7244 15.1181C22.3585 14.9121 23.0338 14.8086 23.75 14.8086C24.4477 14.8086 25.1131 14.9074 25.7483 15.1058C26.3834 15.3034 26.9423 15.5959 27.426 15.9835C27.9087 16.371 28.2928 16.8451 28.5791 17.4039C28.8654 17.9636 29.009 18.6051 29.009 19.3285C29.009 19.9315 28.9191 20.4686 28.7393 20.9427C28.5615 21.4159 28.3103 21.8467 27.9889 22.2342C27.6674 22.6209 27.2863 22.9783 26.8485 23.3057C26.4098 23.634 25.932 23.9425 25.4131 24.2351L28.7129 27.6967C28.8742 27.4042 28.9856 27.0636 29.0481 26.6761C29.1106 26.2885 29.1595 25.8803 29.1956 25.4495C29.2318 25.0365 29.2504 24.632 29.2504 24.2351V23.205H34.1595V25.7618H31.96C31.9229 26.4851 31.8251 27.1991 31.6649 27.9046C31.5037 28.612 31.2174 29.2648 30.806 29.8687L34.3198 33.5355H30.2422ZM22.5423 25.425C22.2208 25.615 21.9257 25.7966 21.657 25.9678C21.3892 26.1399 21.1508 26.3393 20.9456 26.5623C20.7404 26.7862 20.5792 27.0392 20.4629 27.3242C20.3466 27.6092 20.289 27.9394 20.289 28.3194C20.289 28.7841 20.3828 29.1971 20.5704 29.5592C20.759 29.9205 21.0091 30.2215 21.3218 30.4632C21.6345 30.704 21.996 30.8837 22.4084 31.0051C22.8198 31.1255 23.2487 31.1847 23.6963 31.1847C24.2679 31.1847 24.8405 31.1076 25.4131 30.9524C25.9857 30.7972 26.4772 30.4971 26.8886 30.0484L22.5423 25.425ZM25.8694 19.4593C25.8694 18.8224 25.6681 18.3314 25.2656 17.9871C24.864 17.6428 24.3578 17.4707 23.75 17.4707C23.196 17.4707 22.7035 17.6297 22.2745 17.9486C21.8455 18.2674 21.6306 18.7453 21.6306 19.3821C21.6306 19.6747 21.6882 19.9503 21.8045 20.208C21.9208 20.4667 22.0635 20.7122 22.2345 20.9446C22.4035 21.1769 22.596 21.3952 22.811 21.6031C23.025 21.8091 23.2311 22.0075 23.4285 22.1966C23.7139 22.0424 24.0041 21.8824 24.3001 21.7188C24.5943 21.556 24.8581 21.3707 25.0907 21.1628C25.3232 20.9559 25.5108 20.7151 25.6545 20.4394C25.7981 20.1657 25.8694 19.8384 25.8694 19.4593Z" fill="#6C7993"/>
<path d="M51.0173 21.0605C51.0173 21.9391 50.8746 22.7387 50.5883 23.463C50.302 24.1863 49.8769 24.8063 49.3131 25.3227C48.7503 25.8391 48.0487 26.2408 47.2074 26.5239C46.367 26.808 45.4006 26.95 44.3101 26.95H40.2862V33.5103H36.8516V15.1982H44.3101C45.4006 15.1982 46.367 15.3403 47.2074 15.6244C48.0487 15.9084 48.7503 16.3045 49.3131 16.8124C49.8769 17.3204 50.302 17.9356 50.5883 18.659C50.8746 19.3823 51.0173 20.1829 51.0173 21.0605ZM47.5308 21.0868C47.5308 20.2083 47.2621 19.4943 46.7256 18.9431C46.1892 18.3928 45.3391 18.1171 44.1772 18.1171H40.2872V24.0311H44.1772C45.3391 24.0311 46.1892 23.7602 46.7256 23.2175C47.2611 22.6756 47.5308 21.9654 47.5308 21.0868Z" fill="#6C7993"/>
<path d="M71.4074 33.5101L71.0048 31.4943C70.8621 31.7529 70.6472 32.0239 70.3618 32.3079C70.0745 32.592 69.7228 32.847 69.3016 33.0708C68.8805 33.2947 68.4114 33.48 67.8936 33.6268C67.3757 33.7716 66.8197 33.845 66.2304 33.845C65.1214 33.845 64.0876 33.6992 63.1319 33.4057C62.1743 33.1132 61.3203 32.5798 60.5698 31.8047C60.0686 31.3061 59.6611 30.7803 59.3494 30.2291C59.0357 29.6778 58.7856 29.0927 58.598 28.4728C58.4094 27.8529 58.2804 27.2029 58.2081 26.5238C58.1367 25.8427 58.1016 25.125 58.1016 24.3659C58.1016 23.6274 58.1319 22.9172 58.1954 22.2352C58.2579 21.5551 58.3791 20.9145 58.5569 20.3116C58.7357 19.7086 58.9869 19.132 59.3083 18.5807C59.6308 18.0304 60.05 17.5046 60.5698 17.0051C61.3027 16.2996 62.1743 15.7653 63.1847 15.4041C64.1951 15.0419 65.2113 14.8613 66.2304 14.8613C67.4108 14.8613 68.4837 15.0513 69.4501 15.4295C70.4156 15.8086 71.2207 16.3165 71.8647 16.9534C72.3308 17.419 72.7226 17.9477 73.0451 18.5422C73.3665 19.1357 73.5551 19.8384 73.6079 20.6474H70.0667C70.0306 20.2852 69.9329 19.9758 69.7716 19.7171C69.6104 19.4593 69.4326 19.21 69.2352 18.9683C68.5727 18.228 67.5623 17.8574 66.2021 17.8574C65.6481 17.8574 65.0843 17.9655 64.5126 18.181C63.94 18.3964 63.4661 18.7011 63.0909 19.0972C62.7684 19.4245 62.5095 19.8036 62.3121 20.2335C62.1157 20.6643 61.9632 21.1168 61.8567 21.5899C61.7493 22.064 61.6818 22.541 61.6554 23.0226C61.6281 23.5052 61.6154 23.952 61.6154 24.3649C61.6154 24.7788 61.632 25.2313 61.6681 25.7214C61.7043 26.2124 61.7756 26.6987 61.8831 27.1804C61.9906 27.6639 62.1421 28.1229 62.3394 28.5631C62.5359 29.0024 62.7948 29.3853 63.1173 29.7126C63.4925 30.1087 63.9625 30.4003 64.5263 30.5903C65.0891 30.7803 65.6481 30.8753 66.2021 30.8753C66.8294 30.8753 67.3786 30.7803 67.8525 30.5903C68.3254 30.4012 68.7241 30.1435 69.0466 29.817C69.5654 29.2997 69.9006 28.7532 70.053 28.1765C70.2045 27.5999 70.2797 26.9584 70.2797 26.2528H65.7458V23.4892H73.6333V33.5101H71.4074Z" fill="#6C7993"/>
<path d="M82.0276 33.4838C81.6865 33.5515 81.4403 33.6004 81.2898 33.6249C81.1384 33.6512 80.8921 33.6635 80.5521 33.6635C79.4069 33.6635 78.4864 33.3794 77.7887 32.8112C77.091 32.243 76.7422 31.3221 76.7422 30.0475V14.8359H80.1231V29.5066C80.1231 29.9027 80.2032 30.2168 80.3645 30.4492C80.5257 30.6815 80.8921 30.7982 81.4647 30.7982C81.6074 30.7982 81.7149 30.7935 81.7862 30.785C81.8575 30.7765 81.9377 30.7709 82.0276 30.7709V33.4838Z" fill="#6C7993"/>
<path d="M96.2646 26.7944C96.2646 27.9308 96.121 28.8827 95.8357 29.6484C95.5494 30.4141 95.1468 31.1168 94.6279 31.7527C94.1462 32.3209 93.4788 32.811 92.6296 33.2249C91.7795 33.6369 90.818 33.8448 89.7451 33.8448C88.6722 33.8448 87.7107 33.6369 86.8625 33.2249C86.0124 32.811 85.345 32.3209 84.8633 31.7527C84.3444 31.1159 83.9418 30.4141 83.6555 29.6484C83.3702 28.8827 83.2266 27.9308 83.2266 26.7944C83.2266 25.6581 83.3702 24.7061 83.6555 23.9404C83.9418 23.1747 84.3444 22.472 84.8633 21.8352C85.345 21.2671 86.0124 20.777 86.8625 20.3631C87.7107 19.9501 88.6722 19.7432 89.7451 19.7432C90.818 19.7432 91.7795 19.9501 92.6296 20.3631C93.4788 20.777 94.1462 21.2671 94.6279 21.8352C95.1468 22.473 95.5494 23.1747 95.8357 23.9404C96.12 24.7061 96.2646 25.6581 96.2646 26.7944ZM92.8563 26.7944C92.8563 26.1576 92.7938 25.5415 92.6687 24.9479C92.5427 24.3524 92.2759 23.8407 91.8645 23.4099C91.632 23.1691 91.3369 22.9668 90.9792 22.8032C90.6216 22.6395 90.2102 22.5577 89.7441 22.5577C89.279 22.5577 88.8686 22.6395 88.51 22.8032C88.1514 22.9668 87.8563 23.1691 87.6247 23.4099C87.2133 23.8407 86.9456 24.3524 86.8205 24.9479C86.6954 25.5415 86.6329 26.1576 86.6329 26.7944C86.6329 27.4313 86.6954 28.0474 86.8205 28.641C86.9456 29.2355 87.2133 29.7481 87.6247 30.178C87.8563 30.4188 88.1524 30.6211 88.51 30.7857C88.8676 30.9494 89.279 31.0312 89.7441 31.0312C90.2102 31.0312 90.6206 30.9494 90.9792 30.7857C91.3369 30.6211 91.632 30.4188 91.8645 30.178C92.2759 29.7481 92.5427 29.2355 92.6687 28.641C92.7938 28.0474 92.8563 27.4313 92.8563 26.7944Z" fill="#6C7993"/>
<path d="M111.74 26.8201C111.74 28.0937 111.534 29.2263 111.122 30.2159C110.71 31.2064 110.085 32.0286 109.244 32.6833C108.816 33.0266 108.319 33.3022 107.756 33.5092C107.192 33.7161 106.561 33.8187 105.864 33.8187C105.095 33.8187 104.352 33.6776 103.638 33.3935C102.922 33.1085 102.358 32.6569 101.947 32.037L101.732 33.5092H98.8359V14.8613H102.189V21.0603C102.511 20.6822 102.99 20.368 103.624 20.1178C104.259 19.8685 104.997 19.7434 105.838 19.7434C106.552 19.7434 107.193 19.8384 107.757 20.0275C108.32 20.2166 108.817 20.4837 109.245 20.828C110.908 22.1543 111.74 24.1514 111.74 26.8201ZM108.332 26.7693C108.332 26.1842 108.272 25.6066 108.157 25.0375C108.041 24.4693 107.804 23.9623 107.446 23.5155C107.194 23.2211 106.886 22.9727 106.52 22.7648C106.153 22.5588 105.711 22.4563 105.192 22.4563C104.531 22.4563 103.993 22.5899 103.583 22.8561C103.172 23.1232 102.849 23.4666 102.618 23.8899C102.386 24.3113 102.229 24.7769 102.148 25.284C102.068 25.7919 102.028 26.2867 102.028 26.7693C102.028 27.423 102.108 28.09 102.27 28.771C102.43 29.4511 102.752 30.0061 103.235 30.437C103.467 30.6439 103.744 30.8085 104.068 30.928C104.389 31.0484 104.764 31.1076 105.193 31.1076C105.712 31.1076 106.154 31.0051 106.521 30.7972C106.887 30.5912 107.195 30.3419 107.447 30.0485C107.804 29.6007 108.041 29.089 108.158 28.5114C108.273 27.9348 108.332 27.3553 108.332 26.7693Z" fill="#6C7993"/>
<path d="M126.629 33.3547C126.343 33.476 126.097 33.5663 125.891 33.6256C125.686 33.6858 125.378 33.7168 124.967 33.7168C124.233 33.7168 123.67 33.5268 123.276 33.1487C122.883 32.7715 122.66 32.3312 122.606 31.8327C122.284 32.3839 121.747 32.8571 120.996 33.2531C120.244 33.6491 119.369 33.8466 118.368 33.8466C117.527 33.8466 116.793 33.7309 116.167 33.4986C115.54 33.2662 115.018 32.9558 114.597 32.5683C114.178 32.1807 113.86 31.7339 113.646 31.2259C113.431 30.718 113.324 30.1884 113.324 29.6381C113.324 29.0003 113.444 28.4331 113.686 27.9326C113.926 27.4331 114.263 27.0023 114.691 26.6411C115.12 26.2799 115.621 25.9996 116.194 25.802C116.766 25.6035 117.382 25.4775 118.046 25.4267L122.15 25.1426V24.3148C122.15 23.678 121.993 23.1644 121.681 22.7778C121.368 22.3902 120.738 22.1964 119.788 22.1964C119.001 22.1964 118.39 22.3611 117.951 22.6865C117.513 23.0148 117.277 23.488 117.24 24.1079H113.994C114.047 23.3497 114.23 22.695 114.544 22.1447C114.855 21.5935 115.273 21.1419 115.79 20.7892C116.308 20.4364 116.908 20.174 117.588 20.0018C118.268 19.8297 119 19.7432 119.787 19.7432C120.987 19.7432 122.055 19.9454 122.994 20.3499C123.932 20.7553 124.608 21.4655 125.019 22.4805C125.198 22.9113 125.31 23.3591 125.355 23.8238C125.399 24.2885 125.422 24.7457 125.422 25.1925V30.178C125.422 30.4875 125.48 30.7076 125.596 30.8365C125.712 30.9654 125.914 31.0303 126.2 31.0303C126.343 31.0303 126.441 31.0218 126.495 31.0039C126.55 31.0039 126.594 30.9955 126.629 30.9795V33.3547ZM122.149 27.5432L118.608 27.8009C118.09 27.8358 117.624 27.9994 117.212 28.291C116.8 28.5855 116.595 29.0069 116.595 29.5581C116.595 30.0745 116.796 30.4828 117.199 30.7848C117.601 31.0867 118.061 31.2353 118.58 31.2353C119.636 31.2353 120.495 30.9738 121.156 30.448C121.818 29.9231 122.149 29.1612 122.149 28.1622V27.5432Z" fill="#6C7993"/>
<path d="M134 33.4838C133.66 33.5515 133.414 33.6004 133.262 33.6249C133.11 33.6512 132.864 33.6635 132.525 33.6635C131.38 33.6635 130.459 33.3794 129.761 32.8112C129.064 32.243 128.715 31.3221 128.715 30.0475V14.8359H132.095V29.5066C132.095 29.9027 132.176 30.2168 132.337 30.4492C132.498 30.6815 132.864 30.7982 133.436 30.7982C133.58 30.7982 133.687 30.7935 133.759 30.785C133.83 30.7765 133.91 30.7709 134 30.7709V33.4838Z" fill="#6C7993"/>
<path d="M134 6H0V8.97252H134V6Z" fill="#6C7993"/>
</g>
<defs>
<clipPath id="clip0_5316_16208">
<rect width="134" height="28" fill="white" transform="translate(0 6)"/>
</clipPath>
</defs>
</svg>
