<svg width="271" height="50" viewBox="0 0 271 61" fill="none" xmlns="http://www.w3.org/2000/svg">
<path fill-rule="evenodd" clip-rule="evenodd" d="M231.711 51.0363C229.186 51.0363 226.434 52.4735 226.434 55.2101V56.3463C226.434 59.176 229.269 60.4618 231.711 60.4618C234.268 60.4618 237.05 59.1935 237.05 56.3463V55.2101C237.05 52.7571 234.736 51.0363 231.711 51.0363ZM231.711 12.7305C229.186 12.7305 226.434 14.3794 226.434 17.5277V41.4846C226.434 44.7339 229.269 46.2177 231.711 46.2177C234.268 46.2177 237.05 44.7533 237.05 41.4846V17.5277C237.05 14.7037 234.736 12.7305 231.711 12.7305Z" fill="#6C7993"/>
<path fill-rule="evenodd" clip-rule="evenodd" d="M171.573 9.49304C171.953 9.49304 172.382 9.39981 172.812 9.16287L180.439 5.62614C181.532 5.1134 181.963 4.21222 181.963 3.32076C181.961 1.95345 180.862 0.537595 179.339 0.537595C178.908 0.522797 178.48 0.620521 178.098 0.821155L170.475 4.40256C169.38 4.91918 168.951 5.81453 168.951 6.71376C168.951 8.07718 170.05 9.49304 171.573 9.49304ZM57.6824 9.49304C58.1137 9.48979 58.537 9.37612 58.9118 9.16287L66.5427 5.62808C67.6362 5.1134 68.0654 4.21222 68.0654 3.32076C68.0654 1.95345 66.9719 0.537595 65.4434 0.537595C65.0608 0.537595 64.6335 0.584208 64.2082 0.821155L56.5831 4.40256C55.4878 4.91918 55.0585 5.81453 55.0585 6.71376C55.0585 8.07718 56.1578 9.49304 57.6824 9.49304ZM217.381 12.7287C215.73 12.7287 214.081 13.6144 213.6 15.7197L207.136 42.924L200.674 15.7197C200.198 13.6144 198.542 12.7287 196.963 12.7287C194.836 12.7287 192.838 14.1543 192.838 16.5393C192.838 16.7374 192.909 17.087 192.975 17.5551L202.669 57.3389C203.151 59.2384 204.732 60.462 207.136 60.462C209.546 60.462 211.127 59.2384 211.607 57.3389L221.298 17.5551C221.366 17.3531 221.438 17.0113 221.438 16.5393C221.438 14.1543 219.382 12.7287 217.381 12.7287ZM266.396 52.3067H252.857V16.6733C252.857 14.0203 250.857 12.7307 248.866 12.7307C246.869 12.7307 244.879 14.0203 244.879 16.6733V56.1814C244.879 58.2867 246.733 60.126 248.866 60.126H266.396C269.076 60.126 270.382 58.1508 270.382 56.2494C270.382 54.2761 269.078 52.3067 266.396 52.3067ZM179.367 47.2046C179.367 50.3995 176.826 52.7126 173.59 52.7126H172.977C169.745 52.7126 167.199 50.3315 167.199 47.1385V26.058C167.199 22.8611 169.743 20.5422 172.977 20.5422H173.59C176.826 20.5422 179.367 22.8611 179.367 26.058V47.2046ZM173.59 12.7307H172.977C165.484 12.7307 159.222 18.5048 159.222 26.0599V47.2046C159.222 54.75 165.484 60.462 172.977 60.462H173.59C181.293 60.462 187.341 54.8238 187.341 47.1385V26.058C187.341 18.5029 181.293 12.7268 173.59 12.7268V12.7307ZM54.8099 41.6965L59.1391 27.3437L63.4702 41.6965H54.806H54.8099ZM63.5401 16.0596C62.433 13.0686 60.8579 12.7268 59.1391 12.7268C57.4183 12.7268 55.7713 13.0026 54.7381 16.0596L42.1546 55.4278C41.9546 55.9075 41.9546 56.2474 41.9546 56.7232C41.9546 59.1005 43.9473 60.46 46.0798 60.46C47.6588 60.46 49.1717 59.7103 49.7894 57.7429L52.3336 49.5138H65.9445L68.4888 57.7429C69.0404 59.7103 70.5514 60.46 72.1304 60.46C74.2649 60.46 76.2537 59.1005 76.2537 56.7232C76.2537 56.3154 76.1837 55.9075 76.042 55.4297L63.5401 16.0615V16.0596ZM31.9814 12.7287H30.9559C28.4117 12.7287 27.3784 14.2961 26.6287 16.1276L18.0986 35.1669L9.57241 16.1276C8.7528 14.2961 7.78754 12.7287 5.24132 12.7287H4.2139C2.08332 12.7287 0.230469 14.566 0.230469 16.6733V56.5892C0.230469 59.2403 2.21539 60.4639 4.21585 60.4639C6.20659 60.4639 8.20122 59.2403 8.20122 56.5892V31.7001L14.0433 45.0313C15.0727 47.2725 16.7935 47.6785 18.1006 47.6785C19.4096 47.6785 21.1265 47.2706 22.1578 45.0313L27.996 31.7001V56.5873C27.996 59.2384 29.9965 60.462 31.9814 60.462C33.9838 60.462 35.9687 59.2384 35.9687 56.5873V16.6772C35.9687 14.568 34.1178 12.7287 31.9814 12.7287ZM88.6293 25.7803V24.7664C88.6293 22.1134 90.9697 20.5461 93.9898 20.5461H94.6113C97.9072 20.5461 100.108 21.9774 100.108 23.8128C100.108 28.713 108.01 28.6411 108.01 23.6108C108.01 17.0851 101.687 12.7287 94.6113 12.7287H93.9898C88.0156 12.7287 80.6547 17.0113 80.6547 24.3566V25.7822C80.6547 38.2258 100.659 39.0474 100.659 47.5425C100.659 51.0151 98.1169 52.7126 94.6113 52.7126H93.9898C90.486 52.7126 88.1476 50.6733 88.1476 46.9327C88.1476 44.2757 86.153 42.99 84.1564 42.99C82.1715 42.99 80.1749 44.2757 80.1749 46.9327C80.1749 55.5016 86.5686 60.462 93.9898 60.462H94.6113C102.586 60.462 108.632 55.3618 108.632 47.5425C108.632 33.4694 88.6274 31.2223 88.6274 25.7822L88.6293 25.7803ZM147.338 12.7287H146.301C143.753 12.7287 142.727 14.2961 141.974 16.1276L133.451 35.1649L124.923 16.1276C124.098 14.2961 123.136 12.7287 120.596 12.7287H119.566C117.43 12.7287 115.577 14.566 115.577 16.6733V56.5892C115.577 59.2423 117.572 60.4639 119.566 60.4639C121.553 60.4639 123.55 59.2423 123.55 56.5892V31.7001L129.388 45.0313C130.421 47.2725 132.146 47.6785 133.451 47.6785C134.756 47.6785 136.475 47.2706 137.501 45.0313L143.347 31.7001V56.5873C143.347 59.2384 145.339 60.462 147.338 60.462C149.331 60.462 151.319 59.2384 151.319 56.5873V16.6772C151.319 14.568 149.459 12.7287 147.338 12.7287Z" fill="#6C7993"/>
</svg>
