<svg width="209" height="65" viewBox="0 0 209 65" fill="none" xmlns="http://www.w3.org/2000/svg">
<path d="M129.44 0C124.92 0 121.26 3.64 121.26 8.12V32.5C121.26 41.46 113.91 48.75 104.88 48.75C95.8501 48.75 88.5001 41.46 88.5001 32.5V8.12C88.5001 3.63 84.8401 0 80.3201 0C75.8001 0 72.1401 3.64 72.1401 8.12V32.5C72.1401 50.42 86.8301 65 104.88 65C122.93 65 137.62 50.42 137.62 32.5V8.12C137.63 3.64 133.96 0 129.44 0ZM129.44 13.71C126.33 13.71 123.81 11.21 123.81 8.12C123.81 5.03 126.33 2.53 129.44 2.53C132.55 2.53 135.07 5.03 135.07 8.12C135.07 11.21 132.55 13.71 129.44 13.71Z" fill="#6C7993"/>
<path d="M163.93 32.4999L145.16 51.1299C141.96 54.2999 141.96 59.4499 145.16 62.6199C148.36 65.7899 153.54 65.7899 156.73 62.6199L175.5 43.9899L194.27 62.6199C197.47 65.7899 202.65 65.7899 205.84 62.6199C209.04 59.4499 209.04 54.2999 205.84 51.1299L187.08 32.4999L205.85 13.8699C209.05 10.6999 209.05 5.54994 205.85 2.37994C202.65 -0.790059 197.47 -0.790059 194.28 2.37994L175.51 21.0099L156.73 2.37994C153.53 -0.790059 148.35 -0.790059 145.16 2.37994C141.96 5.54994 141.96 10.6999 145.16 13.8699L163.93 32.4999ZM200.07 62.4699C196.96 62.4699 194.44 59.9699 194.44 56.8799C194.44 53.7899 196.96 51.2899 200.07 51.2899C203.18 51.2899 205.7 53.7899 205.7 56.8799C205.7 59.9599 203.18 62.4699 200.07 62.4699Z" fill="#6C7993"/>
<path d="M60.44 0.620024C57.38 -0.639976 53.86 0.0600238 51.52 2.38002L32.74 21.01L13.97 2.38002C11.63 0.0600238 8.11 -0.639976 5.05 0.620024C1.99 1.88002 0 4.84002 0 8.12002V56.87C0 61.36 3.66 65 8.18 65C12.7 65 16.36 61.36 16.36 56.88V27.73L26.95 38.24C30.15 41.41 35.33 41.41 38.52 38.24L49.11 27.73V56.87C49.11 61.36 52.77 64.99 57.29 64.99C61.81 64.99 65.47 61.35 65.47 56.87V8.12002C65.49 4.84002 63.5 1.88002 60.44 0.620024ZM57.3 62.47C54.19 62.47 51.67 59.97 51.67 56.88C51.67 53.79 54.19 51.29 57.3 51.29C60.41 51.29 62.93 53.79 62.93 56.88C62.94 59.96 60.41 62.47 57.3 62.47Z" fill="#6C7993"/>
</svg>
