<?xml version="1.0" encoding="UTF-8"?>
<svg xmlns="http://www.w3.org/2000/svg" xmlns:xlink="http://www.w3.org/1999/xlink" width="100px" height="40px" viewBox="0 0 152 34" version="1.1">
<g id="surface1">
<path style=" stroke:none;fill-rule:nonzero;fill:rgb(42.352941%,47.45098%,57.647059%);fill-opacity:1;" d="M 25.949219 22.917969 C 25.949219 22.917969 25.671875 24.015625 25.417969 24.789062 L 22.464844 33.710938 L 21.425781 33.710938 L 17.773438 21.878906 L 18.644531 21.878906 L 21.597656 31.5 C 21.777344 32.082031 21.957031 32.78125 21.957031 32.78125 L 22.019531 32.78125 C 22.019531 32.78125 22.199219 32.082031 22.367188 31.5 L 25.550781 21.925781 L 26.492188 21.925781 L 29.671875 31.550781 C 29.839844 32.128906 30.023438 32.828125 30.023438 32.828125 L 30.082031 32.828125 C 30.082031 32.828125 30.261719 32.128906 30.445312 31.550781 L 33.445312 21.925781 L 34.3125 21.925781 L 30.554688 33.746094 L 29.445312 33.746094 L 26.492188 24.824219 C 26.261719 24.0625 25.949219 22.964844 25.949219 22.964844 L 25.949219 22.890625 Z M 37.316406 21.925781 L 44.898438 21.925781 L 44.898438 22.625 L 38.113281 22.625 L 38.113281 27.46875 L 43.621094 27.46875 L 43.621094 28.097656 L 38.050781 28.097656 L 38.050781 33.058594 L 45.222656 33.058594 L 45.222656 33.746094 L 37.292969 33.746094 L 37.292969 21.925781 Z M 48.609375 21.925781 L 53.253906 21.925781 C 55.289062 21.925781 56.796875 23.097656 56.796875 24.894531 C 56.796875 26.066406 56.109375 27.058594 55 27.46875 L 55 27.527344 C 56.398438 27.890625 57.363281 29.109375 57.363281 30.511719 C 57.363281 32.492188 55.746094 33.769531 53.46875 33.769531 L 48.609375 33.769531 Z M 53.253906 27.179688 C 54.820312 27.179688 55.929688 26.25 55.929688 24.824219 C 55.929688 23.410156 54.890625 22.554688 53.253906 22.554688 L 49.492188 22.554688 L 49.492188 27.152344 L 53.253906 27.152344 Z M 53.359375 33.058594 C 55.21875 33.058594 56.433594 32.066406 56.433594 30.488281 C 56.433594 28.90625 55.15625 27.867188 53.359375 27.867188 L 49.480469 27.867188 L 49.480469 33.058594 Z M 65.945312 31.886719 C 66.984375 32.757812 68.308594 33.238281 69.660156 33.167969 C 71.40625 33.167969 72.734375 32.238281 72.734375 30.824219 C 72.734375 27.445312 65.609375 28.363281 65.609375 24.691406 C 65.609375 23.121094 67.222656 21.648438 69.792969 21.648438 C 71.070312 21.589844 72.285156 22.011719 73.324219 22.757812 L 72.867188 23.386719 C 71.996094 22.757812 70.9375 22.398438 69.851562 22.398438 C 67.777344 22.398438 66.5625 23.566406 66.5625 24.738281 C 66.5625 27.890625 73.671875 26.902344 73.671875 30.871094 C 73.671875 32.5625 72.105469 33.953125 69.683594 33.953125 C 68.105469 34.023438 66.609375 33.480469 65.453125 32.492188 L 65.980469 31.863281 Z M 76.878906 21.902344 L 84.460938 21.902344 L 84.460938 22.601562 L 77.746094 22.601562 L 77.746094 27.445312 L 83.246094 27.445312 L 83.246094 28.070312 L 77.675781 28.070312 L 77.675781 33.035156 L 84.800781 33.035156 L 84.800781 33.734375 L 76.867188 33.734375 L 76.867188 21.902344 Z M 88.175781 21.902344 L 92.226562 21.902344 C 93.503906 21.902344 94.191406 22.011719 94.722656 22.265625 C 95.867188 22.734375 96.6875 23.832031 96.648438 25.125 C 96.710938 26.695312 95.492188 28.097656 93.867188 28.386719 L 93.867188 28.457031 C 93.972656 28.566406 94.082031 28.746094 94.144531 28.867188 L 97.289062 33.746094 L 96.289062 33.746094 L 92.996094 28.507812 L 88.996094 28.507812 L 88.996094 33.746094 L 88.140625 33.746094 L 88.199219 21.925781 Z M 92.757812 27.78125 C 94.539062 27.78125 95.757812 26.683594 95.757812 25.027344 C 95.757812 23.980469 95.117188 23.121094 94.144531 22.757812 C 93.746094 22.578125 93.335938 22.53125 92.175781 22.53125 L 88.996094 22.53125 L 88.996094 27.78125 Z M 98.664062 21.902344 L 99.589844 21.902344 L 103.761719 31.476562 C 103.980469 32.066406 104.292969 32.878906 104.292969 32.878906 L 104.367188 32.878906 C 104.367188 32.878906 104.640625 31.996094 104.894531 31.476562 L 109.066406 21.902344 L 109.996094 21.902344 L 104.773438 33.734375 L 103.847656 33.734375 L 98.699219 21.902344 Z M 112.453125 21.902344 L 113.308594 21.902344 L 113.308594 33.734375 L 112.453125 33.734375 Z M 123.570312 21.671875 C 126.859375 21.671875 128.546875 23.144531 128.546875 23.144531 L 128.015625 23.652344 C 126.726562 22.785156 125.183594 22.300781 123.617188 22.300781 C 120.191406 22.300781 117.578125 24.582031 117.578125 27.625 C 117.578125 30.667969 120.191406 33.09375 123.652344 33.09375 C 125.402344 33.167969 127.015625 32.574219 128.34375 31.476562 L 128.871094 31.996094 C 128.871094 31.996094 127.015625 33.792969 123.652344 33.792969 C 119.613281 33.792969 116.699219 31.054688 116.699219 27.625 C 116.625 24.292969 119.589844 21.671875 123.519531 21.671875 M 132.105469 21.902344 L 139.6875 21.902344 L 139.6875 22.601562 L 132.960938 22.601562 L 132.960938 27.445312 L 138.46875 27.445312 L 138.46875 28.070312 L 132.960938 28.070312 L 132.960938 33.035156 L 140.082031 33.035156 L 140.082031 33.734375 L 132.078125 33.734375 L 132.078125 21.902344 Z M 143 31.886719 C 144.039062 32.757812 145.363281 33.238281 146.714844 33.167969 C 148.460938 33.167969 149.789062 32.238281 149.789062 30.824219 C 149.789062 27.445312 142.664062 28.363281 142.664062 24.691406 C 142.664062 23.121094 144.277344 21.648438 146.847656 21.648438 C 148.125 21.589844 149.34375 22.011719 150.378906 22.757812 L 149.921875 23.386719 C 149.054688 22.757812 147.992188 22.398438 146.917969 22.398438 C 144.832031 22.398438 143.617188 23.566406 143.617188 24.738281 C 143.617188 27.890625 150.742188 26.902344 150.742188 30.871094 C 150.742188 32.5625 149.171875 33.953125 146.738281 33.953125 C 145.171875 34.023438 143.664062 33.480469 142.519531 32.492188 L 143.050781 31.863281 Z M 30.238281 17.820312 L 26.816406 17.820312 L 21.03125 8.609375 L 21.03125 17.761719 L 17.773438 17.761719 L 17.773438 4.347656 L 21.992188 4.347656 L 26.972656 12.050781 L 26.972656 4.417969 L 30.214844 4.417969 L 30.214844 17.820312 Z M 43.679688 17.820312 L 33.785156 17.820312 L 33.785156 4.417969 L 43.679688 4.417969 L 43.679688 7.027344 L 37.316406 7.027344 L 37.316406 9.371094 L 43.28125 9.371094 L 43.28125 11.988281 L 37.316406 11.988281 L 37.316406 15.25 L 43.753906 15.25 L 43.753906 17.820312 Z M 57.410156 6.992188 L 53.121094 6.992188 L 53.121094 17.773438 L 49.585938 17.773438 L 49.585938 6.992188 L 45.355469 6.992188 L 45.355469 4.371094 L 57.410156 4.371094 Z M 77.398438 4.480469 L 70.890625 17.738281 L 68.816406 17.738281 L 68.417969 6.820312 L 63.136719 17.796875 L 61.101562 17.796875 L 60.519531 4.550781 L 62.378906 4.550781 L 62.738281 15.527344 L 68.066406 4.550781 L 69.925781 4.550781 L 70.273438 15.636719 L 75.601562 4.550781 L 77.398438 4.550781 Z M 87.933594 17.738281 L 86.078125 17.738281 L 85.621094 13.992188 L 79.761719 13.992188 L 77.507812 17.738281 L 75.578125 17.738281 L 83.628906 4.480469 L 85.992188 4.480469 L 87.910156 17.738281 Z M 85.5 12.59375 L 84.644531 6.0625 L 80.714844 12.59375 L 85.523438 12.59375 Z M 102.59375 4.480469 L 96.09375 11.894531 L 94.769531 17.664062 L 92.972656 17.664062 L 94.300781 12.050781 L 91.296875 4.457031 L 93.214844 4.457031 L 95.589844 10.40625 L 100.628906 4.457031 L 102.59375 4.457031 Z M 106.199219 17.953125 C 105.328125 17.953125 104.511719 17.84375 103.703125 17.664062 C 102.882812 17.484375 102.085938 17.191406 101.375 16.855469 L 101.847656 14.800781 L 101.953125 14.800781 C 102.59375 15.394531 103.28125 15.792969 104.101562 16.023438 C 104.90625 16.3125 105.703125 16.421875 106.523438 16.421875 C 107.570312 16.492188 108.609375 16.238281 109.535156 15.660156 C 110.175781 15.25 110.574219 14.488281 110.574219 13.738281 C 110.574219 13.378906 110.464844 12.980469 110.222656 12.691406 C 109.933594 12.386719 109.535156 12.171875 109.113281 12.097656 C 108.71875 11.988281 108.246094 11.867188 107.714844 11.808594 C 107.1875 11.734375 106.679688 11.578125 106.148438 11.519531 C 105.328125 11.398438 104.535156 11 103.894531 10.457031 C 103.363281 9.984375 103.074219 9.285156 103.074219 8.585938 C 103.074219 7.363281 103.652344 6.132812 104.691406 5.433594 C 105.910156 4.550781 107.414062 4.140625 108.910156 4.214844 C 110.488281 4.214844 112.054688 4.503906 113.492188 5.203125 L 113.09375 7.074219 L 112.984375 7.074219 C 112.453125 6.605469 111.828125 6.316406 111.128906 6.085938 C 110.308594 5.796875 109.441406 5.675781 108.632812 5.613281 C 107.703125 5.542969 106.777344 5.832031 105.957031 6.375 C 105.304688 6.785156 104.957031 7.4375 104.957031 8.175781 C 104.957031 8.535156 105.0625 8.945312 105.304688 9.238281 C 105.667969 9.597656 106.066406 9.828125 106.59375 9.9375 C 106.945312 10.046875 107.453125 10.117188 108.164062 10.300781 C 108.800781 10.40625 109.378906 10.515625 109.777344 10.660156 C 110.523438 10.84375 111.164062 11.179688 111.742188 11.710938 C 112.214844 12.195312 112.429688 12.824219 112.429688 13.472656 C 112.429688 14.054688 112.25 14.695312 111.960938 15.238281 C 111.683594 15.816406 111.285156 16.289062 110.753906 16.699219 C 110.175781 17.167969 109.535156 17.457031 108.777344 17.6875 C 107.921875 17.871094 106.992188 18.050781 106.113281 17.976562 M 1.222656 4.527344 L 15.074219 4.527344 L 15.074219 17.820312 L 1.222656 17.820312 Z M 116.878906 11 L 116.878906 17.761719 L 122.84375 14.257812 L 128.582031 11 L 122.84375 7.726562 L 116.878906 4.527344 Z M 128.582031 2.546875 C 128.582031 3.246094 128.304688 3.898438 127.835938 4.347656 C 126.800781 5.335938 125.160156 5.335938 124.125 4.347656 C 123.59375 3.875 123.375 3.175781 123.375 2.546875 C 123.375 1.847656 123.652344 1.195312 124.125 0.75 C 125.160156 -0.253906 126.800781 -0.253906 127.835938 0.75 C 128.367188 1.21875 128.65625 1.847656 128.582031 2.546875 M 128.234375 2.546875 C 128.234375 1.957031 128.015625 1.375 127.546875 0.964844 C 126.691406 0.0859375 125.292969 0.0859375 124.363281 0.90625 C 123.964844 1.304688 123.675781 1.894531 123.726562 2.476562 C 123.726562 3.695312 124.714844 4.683594 125.980469 4.683594 C 126.558594 4.683594 127.125 4.457031 127.59375 4.058594 C 127.992188 3.695312 128.234375 3.128906 128.234375 2.546875 M 127.65625 3.898438 L 126.980469 3.898438 L 125.980469 2.835938 L 125.449219 2.835938 L 125.449219 3.898438 L 124.917969 3.898438 L 124.917969 1.21875 L 126.316406 1.21875 C 126.425781 1.21875 126.535156 1.28125 126.667969 1.328125 C 126.773438 1.402344 126.882812 1.4375 126.957031 1.558594 C 127.015625 1.667969 127.066406 1.773438 127.066406 1.917969 C 127.066406 2.101562 126.992188 2.269531 126.882812 2.390625 C 126.773438 2.5 126.59375 2.609375 126.425781 2.679688 L 127.644531 3.898438 Z M 126.617188 1.917969 C 126.617188 1.917969 126.617188 1.800781 126.558594 1.738281 C 126.484375 1.667969 126.484375 1.617188 126.378906 1.617188 C 126.316406 1.558594 126.269531 1.558594 126.195312 1.558594 L 125.449219 1.558594 L 125.449219 2.4375 L 125.800781 2.4375 C 125.917969 2.4375 126.027344 2.4375 126.160156 2.367188 C 126.222656 2.367188 126.328125 2.292969 126.378906 2.257812 C 126.449219 2.183594 126.484375 2.136719 126.484375 2.078125 C 126.558594 2.078125 126.59375 2.003906 126.59375 1.894531 "/>
</g>
</svg>
