<svg width="227" height="70" viewBox="0 0 227 75" fill="none" xmlns="http://www.w3.org/2000/svg">
<g clip-path="url(#clip0_730_781)">
<path d="M56.0058 25.0414C55.3914 23.755 54.6699 22.5234 53.849 21.3599L45.0087 24.5962C46.0254 25.6489 46.8991 26.8328 47.6071 28.117L56.0058 25.0414ZM16.9296 34.8764L8.08691 38.1139C8.20049 39.5396 8.44484 40.949 8.78901 42.3296L17.1889 39.2528C16.9097 37.8121 16.8225 36.3404 16.9296 34.8764Z" fill="#6C7993"/>
<path d="M36.551 22.5221C38.3346 23.364 39.9529 24.5234 41.3279 25.9446L50.1672 22.7071C47.6423 19.1384 44.2416 16.2914 40.2977 14.4446C27.6589 8.51648 12.5812 14.0364 6.69027 26.7482C4.8465 30.7141 4.05968 35.0956 4.40733 39.4612L13.2477 36.2249C13.3921 34.2478 13.8903 32.3134 14.7184 30.5153C18.5478 22.2562 28.3415 18.6718 36.551 22.5221ZM45.9833 38.7721C45.8379 40.7513 45.3348 42.6871 44.4988 44.484C40.6717 52.743 30.8769 56.3274 22.6674 52.4771C20.8798 51.6399 19.2581 50.4822 17.8813 49.0604L9.05926 52.2898C11.58 55.8609 14.9792 58.7096 18.923 60.5558C31.5606 66.4828 46.6361 60.9628 52.5293 48.2499C54.3728 44.2861 55.1574 39.9059 54.8053 35.5427L45.9833 38.7732V38.7721Z" fill="#6C7993"/>
<path d="M48.1562 27.9146L39.7564 30.9903C41.3327 33.8225 42.0476 37.0594 41.8122 40.2981L50.6342 37.0698C50.3817 33.8895 49.5413 30.7847 48.1562 27.9158V27.9146ZM9.33931 42.1273L0.939453 45.204C1.7142 48.2976 3.05364 51.2187 4.88929 53.8181L13.7113 50.5876C11.4637 48.2587 9.94354 45.3163 9.33931 42.125V42.1273ZM54.7252 22.6988C54.4464 22.2432 54.1573 21.7958 53.8487 21.3599L45.0095 24.5962C45.3984 24.9963 45.7551 25.4218 46.0982 25.8565L54.7252 22.6988ZM16.896 36.6628C16.8742 36.0697 16.8845 35.4742 16.9304 34.8776L8.08656 38.1128C8.13245 38.6816 8.20358 39.2482 8.28847 39.8125L16.896 36.6628Z" fill="#6C7993"/>
<path d="M54.8045 35.5436L45.9825 38.773C45.8867 40.0705 45.6363 41.3515 45.2368 42.5887L54.8389 39.0679C54.9077 37.8885 54.8974 36.7091 54.8045 35.5436ZM9.05957 52.2908C9.74388 53.2588 10.4953 54.1768 11.3081 55.038L20.9125 51.5149C19.8083 50.8215 18.7904 49.9974 17.8805 49.0602L9.05957 52.2908ZM212.953 27.4129V29.4594H218.831V47.5894H221.057V29.4594H226.94V27.4129H212.953ZM199.453 29.4583V36.146H204.93V38.1926H199.453V47.5871H197.227V27.4152H208.957V29.4583H199.453ZM189.269 27.4152H191.494V47.5918H189.269V27.4152ZM181.313 47.5894V38.077H171.38V47.5894H169.155V27.4129H171.38V36.0327H181.313V27.4129H183.538V47.5894H181.313ZM157.573 47.9062C154.862 47.9062 152.433 46.7234 150.865 45.1127L152.352 43.4385C153.861 44.9081 155.604 45.8632 157.659 45.8632C160.312 45.8632 161.97 44.5346 161.97 42.4013C161.97 40.5282 160.857 39.4622 157.203 38.1348C152.892 36.5785 151.437 35.1678 151.437 32.2564C151.437 29.027 153.947 27.0938 157.686 27.0938C160.371 27.0938 162.082 27.9031 163.767 29.2582L162.339 31.0158C160.885 29.8052 159.542 29.1403 157.546 29.1403C154.803 29.1403 153.663 30.5243 153.663 32.1119C153.663 33.785 154.406 34.7319 158.402 36.1773C162.826 37.7891 164.195 39.2899 164.195 42.2869C164.195 45.4585 161.74 47.9062 157.573 47.9062ZM141.845 47.5894L134.511 36.5796C134.025 35.8292 133.368 34.8198 133.111 34.3018C133.111 35.0511 133.169 37.5856 133.169 38.7094V47.5894H129.228V27.4129H133.053L140.134 38.077C140.62 38.8274 141.274 39.8368 141.531 40.3548C141.531 39.6055 141.476 37.071 141.476 35.9437V27.4129H145.413V47.5894H141.845ZM110.342 47.5894V27.4129H124.213V31.3615H114.338V34.851H120.076V38.7684H114.338V43.6408H124.641V47.5894H110.342ZM98.9881 40.4427H94.592V47.5894H90.5962V27.4129H99.3311C103.097 27.4129 106.21 29.5196 106.21 33.8104C106.21 38.4817 103.128 40.4427 98.9881 40.4427ZM99.19 31.3349H94.592V36.5207H99.245C101.101 36.5207 102.102 35.6535 102.102 33.896C102.102 32.1396 100.957 31.3349 99.19 31.3349ZM77.4183 47.9062C72.1927 47.9062 68.6249 44.0444 68.6249 37.5289C68.6249 31.0146 72.2501 27.0938 77.4756 27.0938C82.6702 27.0938 86.238 30.9591 86.238 37.4746C86.238 43.9889 82.6128 47.9062 77.4183 47.9062ZM77.3907 31.1013C74.5927 31.1013 72.7377 33.3791 72.7377 37.4746C72.7377 41.5677 74.6787 43.8987 77.4756 43.8987C80.2737 43.8987 82.1253 41.6232 82.1253 37.5289C82.1253 33.4358 80.1876 31.1013 77.3907 31.1013Z" fill="#6C7993"/>
</g>
<defs>
<clipPath id="clip0_730_781">
<rect width="226" height="74" fill="white" transform="translate(0.939453 0.5)"/>
</clipPath>
</defs>
</svg>
