<svg width="313" height="123" viewBox="0 0 313 123" fill="none" xmlns="http://www.w3.org/2000/svg">
<path d="M53.105 32.9063H5.46032C4.01894 32.9108 2.63786 33.4846 1.61846 34.5024C0.599066 35.5202 0.0241181 36.8994 0.0190854 38.3391V51.13H13.2376V49.0408C13.2381 48.2603 13.5487 47.512 14.1013 46.9601C14.6538 46.4083 15.403 46.098 16.1844 46.0975H42.402C43.1818 46.0995 43.9291 46.4103 44.48 46.9616C45.031 47.5129 45.3406 48.2599 45.3411 49.0389V51.1281H58.5673V38.3372C58.5658 37.6223 58.4233 36.9148 58.1479 36.2549C57.8726 35.5951 57.4698 34.9959 56.9626 34.4915C56.4553 33.9872 55.8536 33.5876 55.1917 33.3156C54.5298 33.0436 53.8207 32.9045 53.105 32.9063ZM45.3239 73.9612C45.3239 74.7401 45.0144 75.4872 44.4633 76.0383C43.9122 76.5895 43.1646 76.8996 42.3848 76.9006H16.1653C15.3854 76.8981 14.6381 76.5877 14.0864 76.037C13.5347 75.4864 13.2235 74.7402 13.2204 73.9612V71.87H0V84.661C0.00252545 86.1017 0.576931 87.4827 1.59728 88.5011C2.61763 89.5195 4.00066 90.0923 5.44315 90.0938H53.0879C54.5292 90.0892 55.9103 89.5155 56.9297 88.4977C57.9491 87.4798 58.5241 86.1006 58.5291 84.661V71.87H45.322L45.3239 73.9612ZM13.2204 54.9006H0V68.0937H13.2204V54.9006ZM58.552 54.9006H45.3316V68.0937H58.552V54.9006ZM99.1199 61.7516V61.2503C99.1199 52.4701 93.3484 46.0937 85.4967 46.0937C77.6469 46.0937 71.7667 52.575 71.7667 61.3037V61.8126C71.7667 70.5928 77.5381 76.914 85.3898 76.914C93.2416 76.914 99.1199 70.4785 99.1199 61.7516ZM78.103 61.6582V61.3151C78.103 55.7775 80.9601 51.7 85.3898 51.7C89.705 51.7 92.7721 55.8365 92.7721 61.3761V61.7116C92.7721 67.2512 89.9131 71.3896 85.4834 71.3896C81.1834 71.3763 78.103 67.1768 78.103 61.6582ZM129.271 61.866V61.0825C129.271 51.069 123.667 46.0937 117.72 46.0937C113.466 46.0937 110.884 48.5528 109.037 51.4045V46.6503H102.702V84.7429H109.039V71.8243C110.831 74.4511 113.407 76.8549 117.722 76.8549C123.721 76.8549 129.271 71.8243 129.271 61.866ZM108.924 61.7516V61.1969C108.924 55.3771 112.172 51.6847 115.984 51.6847C119.795 51.6847 122.881 55.3219 122.881 61.2503V61.7516C122.881 67.6858 119.856 71.2638 115.984 71.2638C112.111 71.2638 108.924 67.5714 108.924 61.7516ZM156.712 72.3275L153.41 68.4083C151.444 70.3107 149.383 71.5441 146.574 71.5441C142.699 71.5441 139.621 68.8639 139.058 63.8809H157.666C157.725 62.985 157.725 62.0871 157.725 61.6983C157.725 52.8037 153.465 46.0937 145.392 46.0937C138.104 46.0937 132.729 52.4701 132.729 61.3628V61.8126C132.729 71.0961 138.669 76.914 146.291 76.914C148.256 76.9435 150.205 76.549 152.003 75.7574C153.801 74.9659 155.408 73.7959 156.712 72.3275ZM145.392 51.4045C149.089 51.4045 151.223 54.8205 151.559 59.5156H139.003C139.426 54.4793 141.915 51.4045 145.392 51.4045ZM176.337 46.0937C172.31 46.0937 169.894 48.3831 168.211 51.0156V46.6503H161.874V76.2982H168.211V58.3414C168.211 54.2582 170.505 51.7991 173.814 51.7991C177.122 51.7991 179.141 54.0904 179.141 58.2289V76.3116H185.47V56.4408C185.456 50.1178 182.04 46.0937 176.337 46.0937ZM210.989 67.8535V67.7925C210.989 63.1527 207.513 61.0292 202.937 58.959C199.461 57.392 197.112 56.3817 197.112 54.4259V54.2925C197.112 52.6722 198.507 51.3855 200.862 51.3855C203.219 51.3855 205.681 52.5044 207.922 54.0161L210.607 49.3686C207.795 47.3498 204.433 46.2377 200.971 46.1814C195.421 46.1814 191.159 49.5307 191.159 54.8548V54.9616C191.159 59.8225 194.858 61.8393 199.286 63.7418C202.816 65.2477 205.118 66.2008 205.118 68.3301V68.3835C205.118 70.2325 203.601 71.6317 200.971 71.6317C198.339 71.6317 195.474 70.3393 192.783 68.1624L189.817 72.6897C192.908 75.3009 196.809 76.7632 200.856 76.8282C206.534 76.8549 210.989 73.6676 210.989 67.8535ZM230.595 75.4614V70.2573C229.544 70.8148 228.371 71.103 227.181 71.0961C225.167 71.0961 223.986 70.143 223.986 67.8535V52.0736H230.691V46.6503H223.98V38.6536H217.644V46.6503H214.39L215.438 52.0736H217.644V69.1384C217.644 74.899 220.953 76.7481 225.322 76.7481C227.161 76.7738 228.975 76.331 230.595 75.4614ZM254.847 49.3343C252.94 47.3785 249.967 46.3129 246.123 46.3129C242.71 46.2944 239.344 47.1015 236.311 48.6652L238.103 53.7015C240.332 52.5806 242.783 51.9673 245.277 51.9059C249.303 51.9059 251.665 53.976 251.665 57.9334V59.1649C249.47 58.3843 247.157 57.9884 244.827 57.9944C238.552 57.9944 234.292 61.1207 234.292 67.4971V67.7792C234.292 73.5456 238.439 76.8396 243.371 76.8396C244.989 76.9046 246.597 76.5531 248.04 75.8187C249.483 75.0843 250.713 73.9917 251.612 72.6459V76.2849H257.832V57.8934C257.832 54.2029 256.858 51.2901 254.847 49.3343ZM251.726 66.3457C251.726 69.6931 248.921 72.1655 245.277 72.1045C242.533 72.0511 240.458 70.3698 240.458 67.417V67.3026C240.458 64.1688 242.586 62.3273 246.23 62.3273C248.114 62.3181 249.981 62.6775 251.726 63.3853V66.3457ZM284.757 72.4343L281.343 68.2405C279.604 69.9752 277.866 71.2619 275.303 71.2619C270.982 71.2619 267.92 67.4037 267.92 61.6449V61.3628C267.92 55.7641 270.947 51.7991 275.102 51.7991C277.786 51.7991 279.524 53.1392 281.095 54.7595L284.624 50.1178C283.415 48.8096 281.94 47.7743 280.298 47.0813C278.656 46.3883 276.884 46.0536 275.102 46.0994C267.312 46.0994 261.533 52.4758 261.533 61.3094V61.8717C261.533 70.7129 267.144 76.9216 274.873 76.9216C276.753 76.9691 278.62 76.5899 280.332 75.8126C282.044 75.0353 283.557 73.8802 284.757 72.4343ZM304.142 60.9091L299.692 65.6766L305.658 76.2982H313L304.142 60.9091Z" fill="#6C7993"/>
<path d="M305.208 46.6484L295.062 59.6814V35.9048H288.733V76.2982H295.062V67.7392L312.718 46.6484H305.208Z" fill="#6C7993"/>
</svg>
