<svg width="318" height="70" viewBox="0 0 318 64" fill="none" xmlns="http://www.w3.org/2000/svg">
<g clip-path="url(#clip0_1467_1984)">
<path fill-rule="evenodd" clip-rule="evenodd" d="M0 36.7765C0 48.7211 5.22829 52.9389 14.6529 52.9389H36.835C38.57 52.9389 39.9776 51.5122 39.9776 49.7514V15.5894C39.9776 13.8302 38.57 12.405 36.8366 12.405H3.14103C1.40762 12.4035 0 13.8302 0 15.5879V36.7734V36.7765Z" fill="white"/>
<path fill-rule="evenodd" clip-rule="evenodd" d="M0 12.4036V34.7911C0.997647 31.2773 2.96644 28.0945 5.91885 25.2473C10.3771 20.9499 15.6366 18.8004 21.6941 18.8004C25.4509 18.8004 28.5015 20.0586 30.8382 22.5764C33.1733 25.0943 34.3456 28.3817 34.3456 32.4418C34.3456 38.3158 32.104 43.3952 27.627 47.6769C25.0082 50.1839 22.1026 51.9493 18.9163 52.9889H40.029V12.4036H0ZM25.0768 47.1509C27.6769 43.876 28.977 39.8127 28.977 34.9565C28.977 30.8949 27.9606 27.5263 25.9295 24.8523C23.8983 22.1768 21.3434 20.8406 18.2694 20.8406C14.3724 20.8406 11.1206 22.475 8.51118 25.7421C5.90326 29.0061 4.59853 33.0834 4.59853 37.9677C4.59853 42.0512 5.61488 45.4166 7.64603 48.075C9.67718 50.7333 12.2586 52.0602 15.3903 52.0602C19.2468 52.0602 22.4767 50.4227 25.0768 47.1509Z" fill="#6C7993"/>
<path d="M224.865 25.8466H220.101L210.53 35.3779V17.4392H206.916V48.4012H210.53V39.8642L213.635 37.017L220.57 48.4012H225.373L216.357 34.2572L224.865 25.8466ZM194.408 28.608C197.559 28.608 199.214 30.4187 199.682 33.4376H203.298C203.001 29.5134 200.789 25.2019 194.96 25.2019C187.603 25.2019 184.285 30.7653 184.285 37.7491C184.285 44.2615 187.986 49.0505 194.24 49.0505C200.745 49.0505 202.913 44.0023 203.298 40.423H199.682C199.044 43.8743 196.874 45.7725 194.363 45.7725C189.218 45.7725 188.284 40.985 188.284 37.1044C188.284 33.0927 189.772 28.608 194.408 28.608ZM170.546 45.7272C165.188 45.7272 164.08 40.1233 164.08 37.1044C164.08 34.0839 165.188 28.4784 170.546 28.4784C175.905 28.4784 177.01 34.0839 177.01 37.1044C177.01 40.1217 175.905 45.7272 170.546 45.7272ZM170.546 25.2004C163.441 25.2004 160.209 31.2819 160.209 37.1044C160.209 42.9237 163.441 49.0053 170.546 49.0053C177.648 49.0053 180.881 42.9237 180.881 37.1044C180.881 31.2819 177.648 25.2019 170.546 25.2019V25.2004ZM154.467 19.5528H150.725V25.8466H147.704V28.9951H150.724V43.8743C150.724 46.5904 151.531 48.704 155.232 48.704C155.617 48.704 156.677 48.5323 158.041 48.4012V45.4259H156.721C155.955 45.4259 154.467 45.4259 154.467 43.6589V28.9951H158.041V25.8466H154.467V19.5528ZM139.326 35.6371L135.585 34.688C132.693 33.9543 131.546 33.5235 131.546 31.6691C131.546 28.8687 134.819 28.4784 135.97 28.4784C140.688 28.4784 141.2 30.8511 141.242 32.2732H144.858C144.858 31.1524 144.305 25.2019 136.352 25.2019C131.97 25.2019 127.929 27.4435 127.929 32.4027C127.929 35.5091 129.971 37.1044 133.075 37.8786L137.415 38.9588C140.601 39.7752 141.839 40.3793 141.839 42.19C141.839 44.6923 139.413 45.7725 136.733 45.7725C131.458 45.7725 130.949 42.9237 130.822 41.1582H127.206C127.335 43.8743 127.971 49.049 136.777 49.049C141.793 49.049 145.581 46.2455 145.581 41.5875C145.581 38.528 143.965 36.8016 139.326 35.6371ZM118.782 29.5992H118.698V25.8466H115.169V48.4027H118.91V35.2921C118.91 32.014 121.122 29.2542 124.611 29.2542H126.013V25.3299C125.697 25.2341 125.368 25.1908 125.038 25.2019C122.227 25.2019 120.272 26.969 118.782 29.5992ZM94.5891 35.3358C94.5891 31.8423 97.3108 28.608 100.759 28.608C105.309 28.608 106.754 31.8423 106.968 35.3358H94.5891ZM101.269 25.2019C93.911 25.2019 90.5923 30.7653 90.5923 37.7491C90.5923 44.2615 94.2914 49.0505 100.545 49.0505C104.117 49.0505 105.565 48.1873 106.584 47.4942C109.39 45.5977 110.411 42.407 110.541 41.3284H106.799C106.67 43.0127 104.586 45.7725 101.057 45.7725C96.759 45.7725 94.5907 43.0548 94.5907 38.3532H110.838C110.838 30.3766 107.689 25.2019 101.269 25.2019ZM79.2379 44.2193H79.1537L73.3704 25.8466H69.0322L77.1537 48.4027H81.1536L89.6149 25.8466H85.5339L79.2379 44.2193ZM57.5078 45.7272C52.1486 45.7272 51.0434 40.1233 51.0434 37.1044C51.0434 34.0839 52.1502 28.4784 57.5078 28.4784C62.8655 28.4784 63.9739 34.0839 63.9739 37.1044C63.9739 40.1217 62.8671 45.7272 57.5078 45.7272ZM57.5078 25.2004C50.4043 25.2004 47.1729 31.2819 47.1729 37.1044C47.1729 42.9237 50.4043 49.0053 57.5078 49.0053C64.6114 49.0053 67.8429 42.9237 67.8429 37.1044C67.8429 31.2819 64.6114 25.2019 57.5078 25.2019V25.2004ZM232.752 43.8712H228.416V48.4589H232.752V43.8712ZM252.058 27.1563C253.628 28.3895 254.571 30.5155 254.891 33.5313H251.259C251.037 32.142 250.532 30.9885 249.745 30.0706C248.956 29.1512 247.691 28.6923 245.948 28.6923C243.567 28.6923 241.867 29.8693 240.844 32.2216C240.179 33.7483 239.847 35.6339 239.847 37.8755C239.847 40.1296 240.317 42.0277 241.257 43.5684C242.199 45.1106 243.678 45.8802 245.698 45.8802C247.248 45.8802 248.475 45.4025 249.382 44.4441C250.288 43.4872 250.913 42.1776 251.259 40.5151H254.891C254.475 43.5028 253.438 45.6866 251.778 47.0681C250.118 48.4496 247.995 49.1411 245.408 49.1411C242.503 49.1411 240.186 48.064 238.458 45.9114C236.727 43.7573 235.864 41.0693 235.864 37.8443C235.864 33.8888 236.81 30.8105 238.705 28.608C240.601 26.407 243.014 25.305 245.948 25.305C248.451 25.305 250.489 25.9215 252.058 27.1563ZM273.508 43.1813C274.418 41.2831 274.873 39.1696 274.873 36.8437C274.873 34.7442 274.543 33.0349 273.887 31.7175C272.848 29.6445 271.056 28.608 268.512 28.608C266.255 28.608 264.615 29.4899 263.587 31.2554C262.562 33.0209 262.049 35.15 262.049 37.6429C262.049 40.039 262.562 42.0355 263.587 43.6324C264.615 45.2293 266.241 46.0285 268.471 46.0285C270.92 46.0285 272.597 45.0794 273.508 43.1813ZM275.827 28.2068C277.791 30.1393 278.773 32.9834 278.773 36.7391C278.773 40.3699 277.907 43.3686 276.176 45.7366C274.446 48.1046 271.76 49.2894 268.12 49.2894C265.085 49.2894 262.674 48.2404 260.889 46.1456C259.103 44.0507 258.211 41.2378 258.211 37.7069C258.211 33.9231 259.151 30.9104 261.033 28.6689C262.914 26.4257 265.442 25.305 268.615 25.305C271.46 25.305 273.863 26.2728 275.827 28.2068ZM283.042 26.1229H286.736V29.3214C287.621 28.2131 288.423 27.4076 289.143 26.9018C290.374 26.0464 291.769 25.6187 293.333 25.6187C295.104 25.6187 296.529 26.0605 297.609 26.944C298.217 27.4497 298.77 28.1928 299.269 29.1731C300.098 27.968 301.074 27.0736 302.193 26.4913C303.314 25.9091 304.574 25.6187 305.97 25.6187C308.959 25.6187 310.991 26.713 312.07 28.8999C312.651 30.0784 312.941 31.6628 312.941 33.6562V48.6556H309.063V33.0037C309.063 31.502 308.692 30.4718 307.952 29.9114C307.211 29.3495 306.31 29.0685 305.244 29.0685C303.777 29.0685 302.516 29.568 301.457 30.5623C300.399 31.5582 299.869 33.2207 299.869 35.5481V48.6556H296.073V33.9496C296.073 32.4215 295.892 31.3054 295.534 30.6045C294.965 29.5524 293.908 29.0279 292.359 29.0279C290.948 29.0279 289.665 29.5805 288.51 30.6888C287.355 31.7971 286.777 33.8014 286.777 36.7063V48.6556H283.042V26.1229ZM315.654 22.016C315.514 21.9698 315.366 21.9492 315.219 21.9551H315.038V22.798H315.328C315.504 22.798 315.64 22.7606 315.738 22.6903C315.836 22.6201 315.884 22.5046 315.884 22.3469C315.884 22.1877 315.808 22.0769 315.654 22.016ZM314.287 24.3465V21.4431C314.75 21.4445 315.213 21.4471 315.676 21.4509C315.902 21.4665 316.09 21.5165 316.238 21.6008C316.494 21.7413 316.622 21.9738 316.622 22.2938C316.622 22.5374 316.553 22.7137 316.419 22.8215C316.276 22.9333 316.104 23.0006 315.923 23.015C316.104 23.054 316.238 23.1087 316.33 23.1836C316.499 23.3225 316.583 23.5395 316.583 23.8361V24.0936C316.581 24.1519 316.59 24.2099 316.608 24.2654L316.634 24.3465H315.92C315.892 24.2146 315.876 24.0803 315.874 23.9454C315.874 23.8251 315.857 23.7053 315.825 23.5895C315.808 23.5406 315.78 23.4961 315.744 23.4594C315.708 23.4227 315.663 23.3946 315.615 23.3772C315.533 23.3482 315.447 23.3324 315.361 23.3303L315.195 23.321H315.038V24.3465H314.287ZM313.903 21.3729C313.704 21.5715 313.547 21.8081 313.441 22.0688C313.335 22.3294 313.282 22.6087 313.286 22.8901C313.286 23.4958 313.495 24.0109 313.913 24.4355C314.329 24.8585 314.831 25.0708 315.42 25.0708C315.701 25.0744 315.98 25.0193 316.238 24.9091C316.497 24.7989 316.73 24.636 316.923 24.4308C317.339 24.0031 317.546 23.4896 317.546 22.8901C317.546 22.3079 317.34 21.8006 316.926 21.3729C316.508 20.9374 316.006 20.7188 315.42 20.7188C314.826 20.7188 314.319 20.9358 313.903 21.3729ZM317.228 24.7696C316.992 25.0081 316.71 25.1964 316.399 25.3233C316.088 25.4502 315.755 25.513 315.42 25.5079C314.693 25.5079 314.081 25.2566 313.584 24.7524C313.34 24.5088 313.148 24.2181 313.019 23.898C312.891 23.5779 312.829 23.235 312.837 22.8901C312.837 22.1253 313.105 21.4884 313.643 20.9811C314.119 20.5192 314.757 20.264 315.42 20.2708C316.132 20.2708 316.74 20.5268 317.245 21.0388C317.75 21.5508 318.001 22.1674 318.001 22.8901C318.001 23.6332 317.744 24.2607 317.228 24.7696Z" fill="#6C7993"/>
</g>
<defs>
<clipPath id="clip0_1467_1984">
<rect width="318" height="64" fill="white"/>
</clipPath>
</defs>
</svg>
