<svg width="315" height="67" viewBox="0 0 315 67" fill="none" xmlns="http://www.w3.org/2000/svg">
<path fill-rule="evenodd" clip-rule="evenodd" d="M121.649 18.6035C123.625 22.2827 124.498 26.4857 124.156 30.6785C123.815 34.8713 122.276 38.8647 119.733 42.1515H108.75L112.131 35.9747H107.659L112.93 26.3787H117.428L121.649 18.6141V18.6035ZM99.959 42.1515H88.7605C86.1705 38.879 84.5991 34.8737 84.2526 30.6617C83.9061 26.4496 84.8007 22.2277 86.8189 18.5505L94.0831 31.5869L102.09 17.1797H113.873L99.9641 42.1409L99.959 42.1515Z" fill="#6B7892"/>
<path d="M130.907 30.5601C130.907 23.8964 134.119 20.6942 139.395 20.6942C144.672 20.6942 147.879 23.8964 147.879 30.5601C147.879 37.2239 144.646 40.389 139.395 40.389C134.144 40.389 130.907 37.1603 130.907 30.5601ZM132.812 30.5601C132.812 36.0383 135.23 38.6476 139.395 38.6476C143.56 38.6476 145.973 36.0383 145.973 30.5601C145.973 25.082 143.555 22.4355 139.395 22.4355C135.236 22.4355 132.812 25.0502 132.812 30.5601ZM161.746 21.4828C161.814 21.3007 161.933 21.1439 162.089 21.0333C162.244 20.9228 162.428 20.8636 162.617 20.8636C162.739 20.8628 162.86 20.8872 162.972 20.9351C163.085 20.9831 163.187 21.0537 163.273 21.1429C163.358 21.2321 163.426 21.338 163.472 21.4545C163.518 21.571 163.541 21.6958 163.539 21.8216C163.535 21.9647 163.507 22.106 163.457 22.2397L157.095 39.5739C157.036 39.764 156.92 39.9297 156.764 40.0474C156.608 40.165 156.42 40.2284 156.226 40.2284C156.033 40.2284 155.845 40.165 155.689 40.0474C155.533 39.9297 155.417 39.764 155.358 39.5739L148.996 22.2397C148.946 22.106 148.918 21.9647 148.914 21.8216C148.912 21.6958 148.935 21.571 148.981 21.4545C149.027 21.338 149.094 21.2321 149.18 21.1429C149.266 21.0537 149.368 20.9831 149.481 20.9351C149.593 20.8872 149.714 20.8628 149.836 20.8636C150.024 20.8636 150.209 20.9228 150.364 21.0333C150.52 21.1439 150.639 21.3007 150.707 21.4828L156.224 36.5993L161.746 21.4828ZM167.402 31.1741V39.2669C167.411 39.3984 167.395 39.5304 167.352 39.6548C167.31 39.7792 167.244 39.8932 167.157 39.9898C167.07 40.0864 166.965 40.1635 166.848 40.2162C166.731 40.2689 166.605 40.2961 166.477 40.2961C166.35 40.2961 166.223 40.2689 166.107 40.2162C165.99 40.1635 165.884 40.0864 165.798 39.9898C165.711 39.8932 165.644 39.7792 165.602 39.6548C165.56 39.5304 165.543 39.3984 165.553 39.2669V21.8004C165.543 21.669 165.56 21.5369 165.602 21.4125C165.644 21.2881 165.711 21.1741 165.798 21.0775C165.884 20.9809 165.99 20.9038 166.107 20.8511C166.223 20.7984 166.35 20.7712 166.477 20.7712C166.605 20.7712 166.731 20.7984 166.848 20.8511C166.965 20.9038 167.07 20.9809 167.157 21.0775C167.244 21.1741 167.31 21.2881 167.352 21.4125C167.395 21.5369 167.411 21.669 167.402 21.8004V29.4327H176.869V21.8216C176.859 21.6901 176.876 21.5581 176.919 21.4337C176.961 21.3093 177.027 21.1952 177.114 21.0986C177.201 21.002 177.306 20.925 177.423 20.8723C177.54 20.8196 177.666 20.7924 177.794 20.7924C177.921 20.7924 178.047 20.8196 178.164 20.8723C178.281 20.925 178.386 21.002 178.473 21.0986C178.56 21.1952 178.627 21.3093 178.669 21.4337C178.711 21.5581 178.728 21.6901 178.718 21.8216V39.2881C178.728 39.4195 178.711 39.5516 178.669 39.676C178.627 39.8004 178.56 39.9144 178.473 40.011C178.386 40.1076 178.281 40.1847 178.164 40.2374C178.047 40.2901 177.921 40.3173 177.794 40.3173C177.666 40.3173 177.54 40.2901 177.423 40.2374C177.306 40.1847 177.201 40.1076 177.114 40.011C177.027 39.9144 176.961 39.8004 176.919 39.676C176.876 39.5516 176.859 39.4195 176.869 39.2881V31.1741H167.402ZM187.448 26.8498C188.243 26.8145 189.035 26.9712 189.762 27.3075C190.488 27.6437 191.129 28.1503 191.633 28.787C191.754 28.935 191.821 29.1223 191.823 29.3163C191.825 29.4239 191.806 29.5309 191.767 29.6308C191.728 29.7306 191.67 29.8213 191.596 29.8975C191.522 29.9736 191.435 30.0336 191.338 30.0738C191.241 30.114 191.138 30.1336 191.034 30.1314C190.907 30.1322 190.782 30.102 190.669 30.0431C190.556 29.9842 190.458 29.8984 190.383 29.7927C190.029 29.3504 189.578 29.002 189.068 28.7764C188.557 28.5508 188.002 28.4547 187.448 28.4959C184.943 28.4959 183.611 30.1526 183.611 33.6088C183.611 37.0651 184.943 38.7482 187.448 38.7482C188.602 38.737 189.716 38.3102 190.598 37.5414C190.741 37.416 190.923 37.3467 191.11 37.3456C191.32 37.3456 191.52 37.4315 191.668 37.5843C191.816 37.7372 191.899 37.9445 191.899 38.1607C191.898 38.2978 191.866 38.4327 191.804 38.5542C191.743 38.6757 191.654 38.7803 191.546 38.8594C190.403 39.8628 188.947 40.4027 187.448 40.3784C183.938 40.3784 181.843 38.2136 181.843 33.6088C181.843 29.004 183.938 26.8498 187.448 26.8498ZM196.121 20.89V36.9645C196.121 38.0866 196.474 38.5524 197.207 38.5524C197.319 38.5431 197.433 38.5581 197.54 38.5964C197.646 38.6346 197.745 38.6953 197.828 38.7746C197.911 38.8539 197.977 38.9501 198.022 39.0571C198.068 39.1642 198.091 39.2797 198.091 39.3966C198.091 39.5134 198.068 39.629 198.022 39.7361C197.977 39.8431 197.911 39.9393 197.828 40.0186C197.745 40.0979 197.646 40.1586 197.54 40.1968C197.433 40.2351 197.319 40.25 197.207 40.2408C195.388 40.2408 194.379 39.1134 194.379 36.9539V20.89C194.385 20.654 194.479 20.4296 194.641 20.2631C194.803 20.0967 195.021 20.0009 195.25 19.9955C195.48 19.9955 195.701 20.0896 195.864 20.2572C196.027 20.4248 196.119 20.6523 196.121 20.89ZM210.941 33.5929C210.941 38.1978 208.764 40.3625 205.229 40.3625C201.694 40.3625 199.522 38.1978 199.522 33.5929C199.522 28.9881 201.725 26.8498 205.229 26.8498C208.733 26.8498 210.941 28.9828 210.941 33.5929ZM209.174 33.5929C209.174 30.052 207.734 28.48 205.229 28.48C202.724 28.48 201.29 30.0679 201.29 33.5929C201.29 37.118 202.729 38.7323 205.229 38.7323C207.729 38.7323 209.194 37.1868 209.194 33.5929H209.174ZM215.131 27.919V35.2496C215.131 37.0757 215.7 38.6476 218.446 38.6476C221.192 38.6476 221.766 37.0598 221.766 35.2496V27.919C221.767 27.799 221.791 27.6804 221.837 27.5701C221.883 27.4599 221.949 27.3601 222.033 27.2764C222.116 27.1928 222.215 27.127 222.323 27.0829C222.431 27.0387 222.546 27.0171 222.662 27.0192C222.775 27.0206 222.886 27.045 222.99 27.091C223.094 27.137 223.187 27.2038 223.266 27.2874C223.344 27.371 223.406 27.4699 223.448 27.5783C223.489 27.6867 223.509 27.8025 223.507 27.919V35.2496C223.507 37.8961 222.662 40.3625 218.446 40.3625C214.23 40.3625 213.39 37.9172 213.39 35.2496V27.919C213.388 27.8002 213.409 27.6822 213.452 27.5721C213.495 27.462 213.559 27.3619 213.64 27.2779C213.721 27.1939 213.818 27.1277 213.925 27.0833C214.031 27.0388 214.146 27.017 214.261 27.0192C214.491 27.0206 214.712 27.1158 214.875 27.2843C215.038 27.4527 215.13 27.6808 215.131 27.919ZM235.116 28.6759V20.89C235.116 20.6514 235.207 20.4225 235.371 20.2538C235.534 20.085 235.756 19.9902 235.987 19.9902C236.218 19.9902 236.439 20.085 236.602 20.2538C236.766 20.4225 236.857 20.6514 236.857 20.89V34.8474C236.857 38.5524 234.629 40.3837 231.53 40.3837C228.021 40.3837 225.951 38.2189 225.951 33.6141C225.951 29.0093 227.913 26.871 231.417 26.871C232.126 26.8575 232.829 27.0134 233.471 27.3264C234.112 27.6395 234.675 28.1013 235.116 28.6759ZM235.116 30.9518C235.116 30.9518 234.091 28.48 231.53 28.48C228.968 28.48 227.693 30.1367 227.693 33.5929C227.693 37.0492 229.025 38.7323 231.53 38.7323C233.62 38.7323 235.116 37.4991 235.116 34.8262V30.9518Z" fill="#6B7892"/>
</svg>
