<svg width="202" height="50" viewBox="0 0 202 87" fill="none" xmlns="http://www.w3.org/2000/svg">
<g clip-path="url(#clip0_1507_1361)">
<path d="M49.4937 25.2677H61.945C66.5626 25.2677 69.5758 25.4701 72.1852 28.3045C73.9924 30.3291 74.9956 32.7568 74.9956 35.5913C74.9956 38.4239 73.9924 40.8534 71.9842 42.878C69.976 44.9025 67.3666 46.1155 60.739 46.1155H54.7162V62.916H49.4937V25.2677ZM54.7162 41.8657H60.739C64.1524 41.8657 69.3748 41.6632 69.3748 35.3888C69.3748 29.5193 64.5544 29.5193 61.744 29.5193H54.7162V41.8657ZM91.6625 62.916C91.2605 61.7012 91.2605 60.284 91.2605 59.0693C88.8521 63.3209 85.4386 63.7258 83.2294 63.7258C77.2048 63.7258 73.9924 60.2858 73.9924 56.0342C73.9924 54.0096 74.7964 50.5696 78.6118 48.3425C81.4222 46.7229 85.4386 46.7229 87.6461 46.7229C88.8521 46.7229 89.6561 46.7229 91.0613 46.9253C91.0613 43.6878 91.0613 42.2706 90.0563 41.0558C89.0513 39.8411 87.0449 39.4362 85.6397 39.4362C80.8192 39.4362 80.4172 42.8762 80.4172 43.8903H75.5986C75.7996 42.473 76.0006 40.6509 77.4058 39.0313C79.414 36.806 83.0284 36.1986 85.8407 36.1986C89.6543 36.1986 93.6707 37.4116 95.0759 40.0435C95.8799 41.6632 95.8799 42.878 95.8799 44.0927L95.6789 56.6415C95.6789 57.0465 95.6789 60.4865 96.0809 63.1184H91.6625V62.916ZM88.2491 49.9622C86.2409 49.9622 78.811 49.9622 78.811 55.2243C78.811 56.844 79.816 59.6766 84.2327 59.6766C86.6429 59.6766 88.6511 58.6643 89.8553 56.844C90.8603 55.0219 91.0613 53.6047 91.0613 49.9622C90.2573 50.1647 89.4533 49.9622 88.2491 49.9622ZM100.095 25.2677H104.916V62.916H100.095V25.2677ZM125.798 62.916C125.396 61.7012 125.396 60.284 125.396 59.0693C122.988 63.3209 119.575 63.7258 117.365 63.7258C111.341 63.7258 108.128 60.2858 108.128 56.0342C108.128 54.0096 108.932 50.5696 112.746 48.3425C115.558 46.7229 119.575 46.7229 121.782 46.7229C122.988 46.7229 123.792 46.7229 125.197 46.9253C125.197 43.6878 125.197 42.2706 124.192 41.0558C123.187 39.8411 121.181 39.4362 119.774 39.4362C114.955 39.4362 114.553 42.8762 114.553 43.8903H109.735C109.936 42.473 110.137 40.6509 111.542 39.0313C113.55 36.806 117.164 36.1986 119.977 36.1986C123.79 36.1986 127.807 37.4116 129.212 40.0435C130.016 41.6632 130.016 42.878 130.016 44.0927L129.815 56.6415C129.815 57.0465 129.815 60.4865 130.217 63.1184H125.798V62.916ZM122.586 49.9622C120.578 49.9622 113.148 49.9622 113.148 55.2243C113.148 56.844 114.153 59.6766 118.57 59.6766C120.98 59.6766 122.988 58.6643 124.192 56.844C125.197 55.0219 125.396 53.6047 125.396 49.9622C124.393 50.1647 123.79 49.9622 122.586 49.9622ZM134.432 39.8411V36.806H139.253V41.0558C139.854 40.0435 141.661 36.4011 147.485 36.4011C149.895 36.4011 156.923 37.2091 156.923 45.3057V63.1184H151.903V46.5204C151.903 44.9008 151.702 43.2829 150.496 42.0681C149.294 40.8534 147.485 40.246 145.879 40.246C142.264 40.246 139.052 42.878 139.052 48.1401V63.1184H134.231V39.8411H134.432ZM158.529 36.806H163.147V31.1372L167.967 29.5193V36.6035H173.789V40.246H167.967V55.8317C167.967 57.0465 167.967 59.2717 171.381 59.2717C172.386 59.2717 173.389 59.0693 173.789 59.0693V62.916C172.987 63.1184 171.582 63.3209 169.774 63.3209C165.155 63.3209 163.147 61.9037 163.147 57.6538V40.246H158.529V36.806ZM177.204 25.2677H183.026V30.7323H177.202L177.204 25.2677ZM177.604 36.806H182.425V62.916H177.604V36.806ZM187.042 42.0681C187.042 40.246 186.841 38.4239 186.841 36.806H191.66L191.861 41.8657C192.866 38.2214 195.877 37.0085 198.087 36.806C199.492 36.6035 200.696 36.6035 201.5 36.6035V41.459C201.299 41.459 200.897 41.2583 200.497 41.2583H199.09C193.268 41.2583 192.062 44.6983 192.062 49.1524V63.1184H187.243V42.0663L187.042 42.0681ZM19.5753 20.208C9.53603 20.208 1.304 28.507 1.304 38.6263C1.304 48.7475 9.53603 57.0447 19.5753 57.0447C29.6163 57.0447 37.8483 48.7475 37.8483 38.6263C37.8483 28.507 29.6163 20.208 19.5753 20.208ZM19.5753 51.3794C12.5474 51.3794 6.92482 45.7106 6.92482 38.6263C6.92482 31.5421 12.5474 25.875 19.5771 25.875C26.6031 25.875 32.2257 31.5421 32.2257 38.6263C32.0247 45.7106 26.4039 51.3776 19.5753 51.3776V51.3794ZM35.8401 55.4268L19.5771 62.5093L3.31221 55.425L0.5 60.4847L19.5771 68.583L38.6523 60.4865L35.8401 55.4268Z" fill="#6C7993"/>
</g>
<defs>
<clipPath id="clip0_1507_1361">
<rect width="201" height="86" fill="white" transform="translate(0.5 0.5)"/>
</clipPath>
</defs>
</svg>
