<svg width="468" height="76" viewBox="0 0 468 76" fill="none" xmlns="http://www.w3.org/2000/svg">
<path d="M410.764 12.5651H396.817V76H410.764V12.5651ZM468 12.5651H450.778L418.72 44.2591L450.778 76H468L435.942 44.2591L468 12.5651ZM146.624 57.1055L109.512 0L72.54 57.1055H89.1072L109.512 24.1456L129.964 57.1055H146.578H146.624ZM291.33 57.1055L254.264 0L217.292 57.1055H233.86L254.264 24.1456L274.669 57.1055H291.33ZM375.055 76L357.458 55.5583C362.23 53.6168 366.184 50.0786 368.645 45.546C371.106 41.0133 371.924 35.7663 370.958 30.6979C369.993 25.6294 367.304 21.0527 363.349 17.7467C359.395 14.4407 354.419 12.6096 349.268 12.5651H306.119V76H320.065V25.3646H349.315C351.816 25.3646 354.215 26.3599 355.983 28.1316C357.752 29.9033 358.745 32.3063 358.745 34.8118C358.745 37.3174 357.752 39.7204 355.983 41.4921C354.215 43.2638 351.816 44.2591 349.315 44.2591H333.216L326.383 57.1055H342.763L359.05 76H375.149H375.055ZM43.1964 12.5651H0V76H13.9932V25.3646H43.2432C45.7442 25.3646 48.1428 26.3599 49.9114 28.1316C51.6799 29.9033 52.6734 32.3063 52.6734 34.8118C52.6734 37.3174 51.6799 39.7204 49.9114 41.4921C48.1428 43.2638 45.7442 44.2591 43.2432 44.2591H27.0504L20.2176 57.1055H43.2432C49.139 57.1055 54.7932 54.7592 58.9622 50.5827C63.1311 46.4062 65.4732 40.7417 65.4732 34.8353C65.4732 28.9289 63.1311 23.2643 58.9622 19.0879C54.7932 14.9114 49.139 12.5651 43.2432 12.5651H43.1964ZM176.81 63.2005V12.5651H162.864V76H204.048L212.285 63.2005H176.81Z" fill="#6C7993"/>
</svg>
