<svg width="344" height="55" viewBox="0 0 344 55" fill="none" xmlns="http://www.w3.org/2000/svg">
<path d="M34.1158 34.596C29.1635 39.4352 24.4882 44.3185 19.3862 48.7671C18.5589 49.4885 17.6913 50.168 16.81 50.8245C15.7676 51.6009 14.635 51.9055 13.6304 50.8341C12.5309 49.6614 13.5433 48.8252 14.2973 48.0551C19.738 42.4983 25.2011 36.9628 30.6511 31.4148C31.6689 30.3786 32.6594 29.3161 33.9551 27.9594C30.1453 27.5881 27.1969 27.3297 24.51 30.3289C20.2222 35.1152 15.4408 39.4758 10.7811 43.9275C8.01892 46.5663 7.32485 46.4133 5.17091 43.252C-6.32321 26.3822 3.49272 3.87312 23.7045 0.752268C33.8441 -0.813362 46.1262 5.07299 51.2397 13.8431C52.2534 15.5817 52.2902 16.7633 50.7033 18.2757C45.1283 23.5891 39.7112 29.0645 34.1158 34.596Z" fill="#6C7993"/>
<path d="M275.314 24.0007C280.664 16.5893 287.841 15.6364 297.008 21.0266C297.878 20.175 296.648 18.0643 299.044 18.0063C302.135 17.9314 302.452 18.0406 302.455 21.1098C302.463 28.3005 302.44 35.4912 302.471 42.6817C302.478 44.3558 302.535 45.68 300.089 45.6644C297.845 45.65 297.08 44.868 297.363 42.7932C297.394 42.5681 297.337 42.3313 297.295 41.7343C294.511 44.5583 291.574 46.3066 287.528 46.1659C283.594 46.0291 280.234 44.9228 277.377 42.3673C272.375 37.8946 271.581 30.846 275.314 24.0007ZM284.189 40.6369C287.92 42.427 291.08 41.1988 293.956 38.7579C297.185 36.0173 297.487 32.506 296.425 28.7272C295.489 25.3933 293.131 23.3998 289.805 22.7615C286.409 22.1099 283.217 22.5792 280.829 25.508C276.496 30.8244 277.639 36.5613 284.189 40.6369Z" fill="#6C7993"/>
<path d="M121.405 17.5947C124.917 17.8061 127.894 18.8315 130.234 21.3162C131.226 20.061 130.112 18.0358 132.533 18.0121C135.672 17.9814 135.874 17.9892 135.876 21.1591C135.881 28.3472 135.851 35.5354 135.89 42.7232C135.9 44.4369 135.884 45.6647 133.474 45.6668C131.162 45.6689 130.531 44.7891 130.788 42.7682C130.817 42.5446 130.744 42.3084 130.694 41.8554C124.543 47.5706 118 47.7963 111.515 42.9588C106.366 39.118 105.306 33.2596 107.52 26.3977C109.318 20.8227 114.436 17.6611 121.405 17.5947ZM130.178 29.6538C128.341 23.8746 123.425 21.0234 118.217 22.7166C113.159 24.3613 110.54 29.8447 112.323 35.0553C114.016 40.001 119.111 42.5493 124.071 40.9319C128.376 39.5282 130.506 35.7839 130.178 29.6538Z" fill="#6C7993"/>
<path d="M338.94 42.2454C334.346 46.4426 329.151 47.1896 323.657 45.0827C318.074 42.9419 315.263 38.4237 315.064 32.7052C314.777 24.465 320.312 16.4546 330.494 17.9239C338.74 19.1138 342.891 23.6835 343.274 31.9635C343.362 33.8532 342.667 34.388 340.838 34.3621C334.995 34.2796 329.149 34.3273 323.305 34.3497C322.375 34.3533 321.411 34.1626 320.523 34.6098C320.836 38.9233 326.949 42.9563 331.176 41.6697C333.104 41.083 334.688 39.9524 336.254 38.7383C337.863 37.4902 339.626 36.7447 341.707 38.0071C341.383 39.7966 340.077 40.8729 338.94 42.2454ZM321.323 26.9833C320.498 28.6478 321.17 29.3075 322.892 29.3046C326.846 29.298 330.8 29.314 334.754 29.3056C335.609 29.3037 336.624 29.4708 337.077 28.5353C337.561 27.5345 336.855 26.7589 336.252 26.0222C332.314 21.216 325 21.3339 321.323 26.9833Z" fill="#6C7993"/>
<path d="M188.623 44.8731C180.426 48.2658 171.355 44.4116 169.232 36.3995C166.788 27.1752 171.437 19.1069 180.338 17.8613C189.969 16.5135 196.805 23.0602 196.653 31.857C196.622 33.6476 195.889 34.1699 194.259 34.1768C188.413 34.2015 182.567 34.2696 176.721 34.3402C175.787 34.3515 174.827 34.1649 173.924 34.5584C174.159 38.7927 180.004 42.8104 184.28 41.7255C186.326 41.2065 188.065 40.1617 189.601 38.7821C190.715 37.7822 191.981 37.2898 193.468 37.3074C194.123 37.3151 194.799 37.4176 195.126 38.0193C195.477 38.664 195.038 39.2343 194.621 39.6962C192.883 41.6219 191.093 43.4963 188.623 44.8731ZM188.766 25.0947C186.122 22.544 182.975 22.0439 179.564 23.0612C176.603 23.9443 174.921 26.0422 174.171 28.9958C178.174 29.77 189.389 29.4308 190.893 28.4792C190.628 27.235 189.823 26.2819 188.766 25.0947Z" fill="#6C7993"/>
<path d="M92.2167 13.4133C96.839 20.3231 95.4705 28.5218 89.1256 32.2433C85.7999 34.1939 82.0048 34.1309 78.3171 34.3013C74.7007 34.4685 74.6858 34.3639 74.6988 37.9701C74.7058 39.9236 74.6907 41.8804 74.8023 43.8292C74.8929 45.4106 74.007 45.7155 72.737 45.5761C71.6248 45.454 69.9924 46.1895 69.9844 44.0568C69.9433 33.0378 69.8887 22.0189 69.8623 11C69.8607 10.3154 70.0597 9.6304 70.1938 8.76189C75.543 8.59071 80.8097 8.39183 86.0161 9.48137C88.484 9.99783 90.533 11.2997 92.2167 13.4133ZM76.104 13.4514C75.286 13.7371 75.1398 14.3908 75.1402 15.1395C75.1425 19.1953 75.1537 23.2512 75.13 27.3069C75.1211 28.8326 75.9186 29.3737 77.3554 29.3403C79.1691 29.2981 80.9896 29.3952 82.7975 29.281C86.9581 29.0181 89.7825 26.1079 89.9801 21.9991C90.1802 17.839 87.6909 14.4203 83.7696 13.8322C81.3691 13.4722 78.9098 13.4948 76.104 13.4514Z" fill="#6C7993"/>
<path d="M227.327 29.5481C224.335 28.4874 221.477 27.673 218.859 26.1055C214.168 23.2959 214.93 15.3014 217.856 12.6398C223.595 7.41978 233.589 7.69389 238.836 13.4969C239.827 14.5934 241.347 15.7891 240.281 17.5162C239.637 18.5588 236.116 17.7812 234.978 16.5066C232.115 13.2996 228.482 12.336 224.744 13.7499C222.42 14.6286 220.678 16.1876 220.499 18.6346C220.325 21.0114 222.209 22.3524 224.149 23.387C226.111 24.4328 228.285 24.9096 230.399 25.5391C232.825 26.2617 235.243 27.0059 237.343 28.461C242.586 32.0948 242.524 40.0801 237.242 43.6639C232.025 47.2029 223.303 47.1257 218.213 43.4576C217.455 42.9112 216.735 42.2649 216.147 41.5453C215.317 40.5281 214.123 39.2887 214.968 38.0262C215.89 36.6496 217.518 37.3383 218.897 37.6828C220.048 37.9701 220.733 38.8583 221.575 39.5508C225.289 42.6047 230.803 42.5922 234.174 39.5261C237.141 36.8279 236.786 33.6008 233.277 31.7017C231.465 30.7216 229.471 30.1939 227.327 29.5481Z" fill="#6C7993"/>
<path d="M159.92 27.6471C158.862 23.4 156.362 21.7112 152.029 22.1595C148.457 22.529 145.97 25.5351 145.872 29.8453C145.773 34.2177 145.718 38.5975 145.869 42.9665C145.95 45.3148 144.836 45.5832 142.866 45.6445C140.666 45.7129 140.235 44.8122 140.258 42.8723C140.347 35.6087 140.26 28.3431 140.33 21.0791C140.34 20.0146 139.56 18.3267 141.583 18.1165C143.291 17.9392 145.215 17.6263 145.653 20.4996C147.865 18.8085 150.167 17.9179 152.694 17.7101C158.244 17.2538 162.82 19.3533 164.501 24.552C165.204 26.7245 165.16 29.1699 165.229 31.4978C165.346 35.4784 165.233 39.4654 165.323 43.4474C165.36 45.0741 164.766 45.6846 163.118 45.6122C161.607 45.5458 160.235 45.6254 160.255 43.5108C160.293 39.3714 160.257 35.2309 160.214 31.0913C160.203 30.0056 160.055 28.9213 159.92 27.6471Z" fill="#6C7993"/>
<path d="M243.969 33.8993C243.576 29.5839 244.576 25.8354 247.056 22.486C252.23 15.4976 265.655 15.9764 270.321 24.3282C270.654 24.9248 271.113 25.5068 270.901 26.4363C268.674 27.1756 266.666 26.8939 264.859 25.288C261.123 21.9686 257.199 21.182 253.706 23.0283C250.377 24.7875 248.311 29.1531 248.873 33.2366C249.498 37.7673 252.446 40.9468 257.025 41.7761C259.903 42.2973 262.196 40.9499 264.293 39.1406C266.668 37.0921 268.516 36.8367 270.894 38.0989C268.918 43.2549 262.902 46.7546 257.047 46.1549C249.932 45.4259 245.151 40.9984 243.969 33.8993Z" fill="#6C7993"/>
<path d="M206.293 37.9815C206.562 40.5491 207.817 41.8681 210.276 41.9929C211.448 42.0523 212.08 42.8484 212.613 43.7502C213.433 45.1363 213.169 46.0015 211.411 46.0398C209.991 46.0707 208.555 46.1491 207.15 45.9962C203.571 45.6068 201.733 43.5006 201.533 39.6504C201.283 34.82 200.845 29.9928 201.056 25.1501C201.128 23.5037 200.858 22.3999 198.794 22.5677C197.094 22.7059 197.26 21.3809 197.255 20.2958C197.25 19.2009 197.104 17.9365 198.827 18.0698C200.671 18.2124 201.155 17.2822 201.055 15.6548C200.969 14.2544 201.032 12.8445 201.043 11.4389C201.062 8.99526 203.514 7.61685 205.654 8.83276C206.322 9.21269 206.299 9.84156 206.31 10.4643C206.339 12.1002 206.441 13.7397 206.366 15.3712C206.274 17.3817 207.093 18.1891 209.161 18.0894C210.348 18.0323 211.991 17.4796 212.269 19.5905C212.597 22.0767 212.189 22.5749 209.564 22.5972C206.123 22.6265 206.105 22.6266 206.122 26.0819C206.141 29.9843 206.196 33.8865 206.293 37.9815Z" fill="#6C7993"/>
<path d="M49.4527 33.3317C51.0486 31.8509 52.5245 30.4852 54.0946 29.0322C55.4373 32.5577 52.6161 40.1365 48.4356 44.9262C43.3018 50.8081 36.8498 53.9751 29.1147 54.5C28.9417 54.2747 28.7687 54.0495 28.5957 53.8242C35.508 47.0317 42.4203 40.2393 49.4527 33.3317Z" fill="#6C7993"/>
<path d="M309.408 8.66019C311.343 8.47951 311.986 9.17567 311.976 10.9238C311.916 21.7643 311.91 32.6054 311.977 43.4458C311.988 45.3163 311.129 45.6546 309.528 45.6191C307.977 45.5847 306.821 45.5758 306.838 43.4411C306.925 32.601 306.91 21.7597 306.852 10.9192C306.843 9.18074 307.446 8.44975 309.408 8.66019Z" fill="#6C7993"/>
<path d="M98.0579 31.8171C98.0601 24.7817 98.118 17.9802 98.0288 11.1806C98.0036 9.26011 98.6119 8.59519 100.59 8.60659C102.541 8.61785 103.181 9.23871 103.167 11.1786C103.092 21.8092 103.092 32.4409 103.167 43.0715C103.181 45.0015 102.572 45.6481 100.602 45.6398C98.6529 45.6315 97.9572 45.0207 98.0228 43.0725C98.1463 39.4026 98.0582 35.7257 98.0579 31.8171Z" fill="#6C7993"/>
</svg>
