<svg width="386" height="67" viewBox="0 -10  386 67" fill="none" xmlns="http://www.w3.org/2000/svg">
<g clip-path="url(#clip0_1413_1489)">
<path d="M376.729 28.0422C377.864 29.3596 378.999 31.0534 379.378 32.7472H385.811C384.865 30.1124 383.73 27.4776 382.216 25.4074C380.702 23.1489 378.621 21.4551 375.972 20.7023C374.269 20.1377 372.566 20.1377 371.052 20.1377C367.079 20.1377 363.862 21.4551 361.592 22.7725C360.456 23.5253 359.51 24.2781 358.943 24.8428V20.1377L352.888 22.2079V53.2613H358.943V31.2416C364.43 26.3484 368.403 25.4074 371.431 25.4074C373.891 25.4074 375.594 26.3484 376.729 28.0422Z" fill="#6C7993"/>
<path d="M231.978 43.2866C231.978 43.8512 231.789 44.2276 231.789 44.4158C231.6 44.7922 231.41 44.9804 231.032 45.3568C230.654 45.7332 230.275 46.1096 229.707 46.486C229.14 46.8624 228.383 47.0506 227.626 47.2388C226.68 47.427 225.734 47.6152 224.409 47.6152C223.085 47.6152 221.571 47.8034 219.868 47.8034C217.408 47.8034 215.516 47.8034 213.813 47.6152C212.11 47.6152 210.786 47.427 209.651 47.2388C208.515 47.0506 207.569 46.8624 207.002 46.486C206.245 46.1096 205.866 45.7332 205.299 45.3568C204.542 44.604 204.163 43.663 203.785 42.5338C203.406 41.4046 203.217 39.8989 203.217 38.2051H238.411V37.6405C238.411 35.7585 238.222 34.2529 238.222 32.9354C238.033 31.618 237.844 30.4888 237.655 29.3596C237.465 28.4186 237.087 27.4776 236.708 26.5366C236.33 25.7838 235.762 25.031 235.195 24.2781C234.438 23.3371 233.492 22.7725 232.546 22.2079C231.6 21.6433 230.464 21.2669 228.951 20.8905C227.626 20.5141 225.923 20.3259 224.031 20.3259C222.139 20.1377 219.679 20.1377 217.03 20.1377C215.138 20.1377 213.435 20.1377 211.921 20.3259C210.407 20.3259 209.272 20.5141 208.137 20.7023C207.002 20.8905 206.056 21.0787 205.109 21.2669C204.163 21.4551 203.406 21.8315 202.839 22.2079C200.757 23.3371 199.055 25.2192 198.108 27.4776C197.162 29.9242 196.595 32.9354 196.595 36.8877C196.595 40.0871 196.973 42.9102 197.73 45.1686C198.487 47.427 199.622 49.1208 201.325 50.4383C202.082 51.0029 203.028 51.5675 203.974 51.9439C205.109 52.3203 206.245 52.6967 207.758 52.8849C209.272 53.0731 210.975 53.2613 213.056 53.4495C215.138 53.4495 217.408 53.6377 220.247 53.6377C223.463 53.6377 226.302 53.4495 228.572 53.0731C230.843 52.6967 232.735 52.1321 234.059 51.3793C235.573 50.6265 236.519 49.4972 237.276 47.9916C237.844 46.8624 238.222 45.545 238.222 43.8512H231.978V43.2866ZM203.785 28.9832C204.163 28.0422 204.92 27.2894 205.866 26.7248C206.812 26.1602 208.137 25.7838 210.029 25.4074C211.732 25.2192 214.003 25.031 216.652 25.031C219.679 25.031 222.328 25.2192 224.22 25.4074C226.112 25.5956 227.815 26.1602 228.761 26.7248C229.897 27.2894 230.654 28.0422 231.032 29.1714C231.41 30.1124 231.6 31.2416 231.6 32.7472H202.839C203.217 31.2416 203.406 29.9242 203.785 28.9832Z" fill="#6C7993"/>
<path d="M298.583 20.1377L285.148 57.7781L278.147 38.0169H271.903L282.121 67.0001H288.365L304.827 20.1377H298.583Z" fill="#6C7993"/>
<path d="M267.172 28.0422C268.308 29.3596 269.443 31.0534 269.821 32.7472H276.255C275.308 30.1124 274.173 27.4776 272.659 25.4074C271.146 23.1489 269.064 21.4551 266.415 20.7023C264.712 20.1377 263.009 20.1377 261.496 20.1377C257.522 20.1377 254.306 21.4551 252.035 22.7725C250.9 23.5253 249.954 24.2781 249.386 24.8428V20.1377L243.331 22.2079V53.2613H249.386V31.2416C254.873 26.3484 258.847 25.4074 261.874 25.4074C264.145 25.4074 265.848 26.3484 267.172 28.0422Z" fill="#6C7993"/>
<path d="M341.534 43.2866C341.534 43.8512 341.345 44.2276 341.345 44.4158C341.156 44.7922 340.967 44.9804 340.588 45.3568C340.21 45.7332 339.831 46.1096 339.264 46.486C338.696 46.8624 337.939 47.0506 337.182 47.2388C336.236 47.427 335.29 47.6152 333.966 47.6152C332.641 47.6152 331.127 47.8034 329.424 47.8034C326.965 47.8034 325.072 47.8034 323.369 47.6152C321.667 47.6152 320.342 47.427 319.207 47.2388C318.071 47.0506 317.125 46.8624 316.558 46.486C315.801 46.1096 315.422 45.7332 314.855 45.3568C314.098 44.604 313.72 43.663 313.341 42.5338C312.963 41.4046 312.773 39.8989 312.773 38.2051H348.346V37.6405C348.346 35.7585 348.157 34.2529 348.157 32.9354C347.968 31.618 347.778 30.4888 347.589 29.3596C347.4 28.4186 347.021 27.4776 346.643 26.5366C346.265 25.7838 345.697 25.031 345.129 24.2781C344.372 23.3371 343.426 22.7725 342.48 22.2079C341.534 21.6433 340.399 21.2669 338.885 20.8905C337.561 20.5141 335.858 20.3259 333.966 20.3259C332.073 20.1377 329.614 20.1377 326.965 20.1377C325.072 20.1377 323.37 20.1377 321.856 20.3259C320.342 20.3259 319.207 20.5141 318.071 20.7023C316.936 20.8905 315.99 21.0787 315.044 21.2669C314.098 21.4551 313.341 21.8315 312.773 22.2079C310.692 23.3371 308.989 25.2192 308.043 27.4776C307.097 29.9242 306.529 32.9354 306.529 36.8877C306.529 40.0871 306.908 42.9102 307.665 45.1686C308.421 47.427 309.557 49.1208 311.26 50.4383C312.017 51.0029 312.963 51.5675 313.909 51.9439C315.044 52.3203 316.179 52.6967 317.693 52.8849C319.207 53.0731 320.91 53.2613 322.991 53.4495C325.072 53.4495 327.343 53.6377 330.181 53.6377C333.398 53.6377 336.236 53.4495 338.507 53.0731C340.777 52.6967 342.669 52.1321 343.994 51.3793C345.508 50.6265 346.454 49.4972 347.211 47.9916C347.778 46.8624 348.157 45.545 348.157 43.8512H341.534V43.2866ZM313.53 28.9832C313.909 28.0422 314.666 27.2894 315.612 26.7248C316.558 26.1602 317.882 25.7838 319.774 25.4074C321.477 25.2192 323.748 25.031 326.397 25.031C329.424 25.031 332.073 25.2192 333.966 25.4074C335.858 25.5956 337.561 26.1602 338.507 26.7248C339.642 27.2894 340.399 28.0422 340.777 29.1714C341.156 30.1124 341.345 31.2416 341.345 32.7472H312.584C312.773 31.2416 313.152 29.9242 313.53 28.9832Z" fill="#6C7993"/>
<path d="M189.594 35.9468C187.891 34.4412 185.053 33.6884 181.458 33.5002C180.701 33.5002 179.566 33.5002 178.052 33.312C176.538 33.312 175.214 33.312 173.7 33.1238C172.186 33.1238 170.862 33.1238 169.537 33.1238C168.213 33.1238 167.267 33.1238 166.699 33.1238C166.131 33.1238 165.564 33.1238 165.185 33.1238C164.05 33.1238 162.915 33.1238 162.158 32.9356C161.023 32.7474 160.076 32.5592 159.32 32.371C158.752 32.1828 158.374 31.8064 158.184 31.2418C157.995 30.6772 157.806 30.1126 157.806 29.3598C157.806 28.607 157.995 28.0423 158.184 27.4777C158.374 26.9131 158.752 26.5367 159.13 26.3485C159.698 25.9721 161.023 25.5957 163.104 25.2193C165.185 25.0311 168.024 24.8429 171.619 24.8429C175.403 24.8429 178.241 25.0311 180.323 25.2193C182.215 25.4075 183.539 25.9721 184.107 26.5367C184.485 26.9131 184.675 27.1013 184.675 27.6659C184.675 27.6659 184.675 27.8541 184.675 28.2305C185.242 28.2305 190.54 28.2305 191.108 28.2305C191.108 28.0423 191.108 27.8541 191.108 27.6659C191.108 27.1013 190.919 26.5367 190.919 25.9721C190.729 25.4075 190.729 25.0311 190.351 24.6547C190.162 24.2783 189.973 23.9019 189.594 23.5255C189.026 22.7727 188.27 22.0199 187.324 21.6435C186.377 21.0789 185.242 20.7025 183.918 20.3261C182.593 19.9496 180.89 19.7614 178.809 19.7614C176.917 19.5732 174.457 19.5732 171.808 19.5732C167.077 19.5732 163.482 19.7614 160.833 20.1378C158.184 20.5143 156.292 20.8907 155.157 21.8317C152.697 23.3373 151.562 25.9721 151.562 29.548C151.562 31.2418 151.751 32.5592 152.129 33.6884C152.508 34.8176 153.265 35.7586 154.211 36.5114C155.157 37.2643 156.481 37.8289 157.995 38.0171C159.509 38.3935 161.212 38.5817 163.482 38.5817C166.51 38.5817 168.97 38.5817 170.673 38.7699C172.376 38.7699 173.889 38.7699 174.835 38.7699C175.781 38.7699 176.538 38.7699 176.917 38.7699C177.295 38.7699 177.674 38.7699 178.052 38.7699C178.241 38.7699 178.43 38.7699 178.62 38.7699C181.458 38.7699 183.539 39.1463 184.485 39.7109C185.053 40.0873 185.431 40.4637 185.621 41.0283C185.81 41.5929 185.999 42.3457 185.999 43.0985C185.999 44.6041 185.621 45.5452 184.864 46.1098C184.485 46.298 184.107 46.6744 183.728 46.6744C183.161 46.8626 182.593 47.0508 181.647 47.0508C180.701 47.239 179.566 47.239 178.052 47.239C176.538 47.239 174.835 47.239 172.565 47.239C168.97 47.239 166.131 47.239 164.05 47.0508C161.969 47.0508 160.455 46.6744 159.509 46.298C158.563 45.9216 157.995 45.3569 157.806 44.7923C157.617 44.4159 157.617 43.6631 157.427 42.9103C155.914 42.9103 151.751 42.9103 150.994 42.9103C150.994 44.6041 151.183 46.1098 151.751 47.0508C152.129 48.18 153.076 49.3092 154.211 50.062C154.778 50.6266 155.725 51.003 156.671 51.1912C157.617 51.5676 158.752 51.7558 160.076 51.944C161.401 52.1322 163.104 52.3204 165.185 52.3204C167.077 52.3204 169.537 52.5086 172.186 52.5086C176.727 52.5086 180.323 52.3204 182.782 52.1322C185.242 51.944 187.134 51.3794 188.459 50.8148C189.783 50.062 190.919 48.9328 191.486 47.8036C192.054 46.4862 192.432 44.7923 192.432 42.9103C192.054 39.8991 191.297 37.4525 189.594 35.9468Z" fill="#6C7993"/>
<path d="M144.182 35.9468C142.479 34.4412 139.641 33.6884 136.046 33.5002C135.289 33.5002 134.154 33.5002 132.64 33.312C131.126 33.312 129.802 33.312 128.288 33.1238C126.774 33.1238 125.45 33.1238 124.125 33.1238C122.801 33.1238 121.855 33.1238 121.287 33.1238C120.719 33.1238 120.152 33.1238 119.773 33.1238C118.638 33.1238 117.503 33.1238 116.746 32.9356C115.61 32.7474 114.664 32.5592 113.908 32.371C113.34 32.1828 112.961 31.8064 112.772 31.2418C112.583 30.6772 112.394 30.1126 112.394 29.3598C112.394 28.607 112.583 28.0423 112.772 27.4777C112.961 26.9131 113.34 26.5367 113.718 26.3485C114.286 25.9721 115.61 25.5957 117.692 25.2193C119.773 25.0311 122.611 24.8429 126.207 24.8429C129.991 24.8429 132.829 25.0311 134.91 25.2193C136.803 25.4075 138.127 25.9721 138.695 26.5367C139.073 26.9131 139.262 27.1013 139.262 27.6659C139.262 27.6659 139.262 27.8541 139.262 28.2305C139.83 28.2305 145.128 28.2305 145.696 28.2305C145.696 28.0423 145.696 27.8541 145.696 27.6659C145.696 27.1013 145.507 26.5367 145.507 25.9721C145.317 25.4075 145.317 25.0311 144.939 24.6547C144.75 24.2783 144.56 23.9019 144.182 23.5255C143.614 22.7727 142.858 22.0199 141.911 21.6435C140.965 21.0789 139.83 20.7025 138.506 20.3261C137.181 19.9496 135.478 19.7614 133.397 19.7614C131.505 19.5732 129.045 19.5732 126.396 19.5732C121.665 19.5732 118.07 19.7614 115.421 20.1378C112.772 20.5143 110.88 20.8907 109.745 21.8317C107.285 23.3373 106.15 25.9721 106.15 29.548C106.15 31.2418 106.339 32.5592 106.717 33.6884C107.096 34.8176 107.853 35.7586 108.799 36.5114C109.745 37.2643 111.069 37.8289 112.583 38.0171C114.097 38.3935 115.8 38.5817 118.07 38.5817C121.098 38.5817 123.558 38.5817 125.26 38.7699C126.963 38.7699 128.477 38.7699 129.423 38.7699C130.369 38.7699 131.126 38.7699 131.505 38.7699C131.883 38.7699 132.261 38.7699 132.64 38.7699C132.829 38.7699 133.018 38.7699 133.208 38.7699C136.046 38.7699 138.127 39.1463 139.073 39.7109C139.641 40.0873 140.019 40.4637 140.209 41.0283C140.398 41.5929 140.587 42.3457 140.587 43.0985C140.587 44.6041 140.208 45.5452 139.452 46.1098C139.073 46.298 138.695 46.6744 138.316 46.6744C137.749 46.8626 137.181 47.0508 136.235 47.0508C135.289 47.239 134.154 47.239 132.64 47.239C131.126 47.239 129.423 47.239 127.153 47.239C123.558 47.239 120.719 47.239 118.638 47.0508C116.557 47.0508 115.043 46.6744 114.097 46.298C113.151 45.9216 112.583 45.3569 112.394 44.7923C112.205 44.4159 112.205 43.6631 112.015 42.9103C110.502 42.9103 106.339 42.9103 105.582 42.9103C105.582 44.6041 105.771 46.1098 106.339 47.0508C106.717 48.18 107.663 49.3092 108.799 50.062C109.366 50.6266 110.312 51.003 111.259 51.1912C112.205 51.5676 113.34 51.7558 114.664 51.944C115.989 52.1322 117.692 52.3204 119.773 52.3204C121.665 52.3204 124.125 52.5086 126.774 52.5086C131.315 52.5086 134.91 52.3204 137.37 52.1322C139.83 51.944 141.722 51.3794 143.047 50.8148C144.371 50.062 145.507 48.9328 146.074 47.8036C146.642 46.4862 147.02 44.7923 147.02 42.9103C146.642 39.8991 145.885 37.4525 144.182 35.9468Z" fill="#6C7993"/>
<path d="M94.2295 20.1374V36.1346C94.2295 38.393 94.0402 40.0869 93.851 41.2161C93.6618 42.3453 93.0942 43.2863 92.5265 44.0391C91.5804 45.3565 90.0667 46.1093 87.9853 46.6739C85.904 47.2385 83.0657 47.4268 79.2814 47.4268C76.254 47.4268 73.9834 47.2385 72.4697 47.0503C70.9559 46.6739 69.8206 46.2975 68.8746 45.5447C68.4961 45.1683 68.1177 44.7919 67.9285 44.2273C67.7393 43.8509 67.3608 43.2863 67.1716 42.5335C66.9824 41.9689 66.7932 41.0279 66.7932 40.0869C66.7932 39.1458 66.604 37.8284 66.604 36.3228V19.9492H66.2255H60.7383V37.8284C60.7383 39.5223 60.7383 40.8397 60.9275 42.1571C61.1167 43.4745 61.3059 44.4155 61.4951 45.3565C61.6844 46.2975 62.0628 47.0503 62.4412 47.8032C62.8197 48.556 63.3873 49.1206 63.9549 49.497C65.2795 50.6262 67.1716 51.379 69.253 51.9436C71.5236 52.32 74.551 52.6964 78.5246 52.6964C80.9844 52.6964 83.0657 52.6964 84.9579 52.5082C86.6608 52.32 88.1746 52.1318 89.4991 51.7554C90.8236 51.379 91.7697 50.8144 92.7157 50.0616C93.2834 49.497 93.851 48.9324 94.2295 48.3678V52.32H100.284V20.1374H94.2295Z" fill="#6C7993"/>
<path d="M48.6289 2.07022V52.8848H54.6838V0L48.6289 2.07022Z" fill="#6C7993"/>
<path d="M41.0598 27.4775C40.1137 25.2191 38.7892 23.5253 36.7078 22.2079C35.951 21.8315 35.1941 21.2668 34.248 21.0786C33.302 20.7022 32.3559 20.514 31.0314 20.3258C29.7069 20.1376 28.3824 19.9494 26.6794 19.9494C24.9765 19.9494 23.0843 19.7612 20.8137 19.7612C18.3539 19.7612 16.0833 19.7612 14.5696 19.9494C12.8667 20.1376 11.3529 20.3258 10.2176 20.7022C9.08235 21.0786 7.94706 21.4551 7.1902 22.2079C6.62255 22.5843 6.24412 23.1489 5.86569 23.7135V19.9494L0 21.8315V67L6.0549 64.9298V49.309C6.43333 49.8736 7.00098 50.25 7.56863 50.6264C8.32549 51.191 9.27157 51.5674 10.4069 51.9438C11.5422 52.3202 12.8667 52.5084 14.5696 52.5084C16.2725 52.6966 18.1647 52.6966 20.4353 52.6966C22.7059 52.6966 24.598 52.6966 26.1118 52.5084C27.8147 52.5084 29.1392 52.3202 30.4637 52.132C31.7882 51.9438 32.7343 51.7556 33.6804 51.3792C34.6265 51.191 35.3833 50.8146 36.1402 50.4382C38.2216 49.309 39.9245 47.427 40.8706 45.1685C41.8167 42.9101 42.3843 39.8989 42.3843 36.1348C42.3843 32.559 42.0059 29.5477 41.0598 27.4775ZM8.89314 26.9129C9.27157 26.7247 9.83922 26.3483 10.5961 26.1601C11.3529 25.9719 12.1098 25.7837 13.0559 25.5955C14.002 25.4073 15.3265 25.4073 16.8402 25.2191C18.3539 25.2191 20.0569 25.0309 22.1382 25.0309C25.1657 25.0309 27.6255 25.2191 29.3284 25.4073C31.2206 25.7837 32.5451 26.1601 33.4912 27.1011C34.4373 27.8539 35.0049 28.9831 35.3833 30.4888C35.7618 31.9944 35.951 34.0646 35.951 36.5112C35.951 39.1461 35.7618 41.2163 35.1941 42.7219C34.8157 44.0393 34.0588 45.1685 32.9235 45.9213C32.5451 46.2977 31.9775 46.4859 31.2206 46.8624C30.6529 47.0506 29.7069 47.2388 28.7608 47.427C27.8147 47.6152 26.4902 47.6152 25.1657 47.8034C23.8412 47.8034 22.1382 47.9916 20.2461 47.9916C17.0294 47.9916 14.5696 47.8034 12.6775 47.6152C10.7853 47.2388 9.27157 46.6742 8.32549 45.9213C7.37941 45.1685 6.62255 44.0393 6.24412 42.5337C5.86569 41.0281 5.67647 38.9579 5.67647 36.5112C5.67647 33.8764 5.86569 31.9944 6.43333 30.4888C7.00098 28.6067 7.75784 27.6657 8.89314 26.9129Z" fill="#6C7993"/>
</g>
<defs>
<clipPath id="clip0_1413_1489">
<rect width="386" height="67" fill="white"/>
</clipPath>
</defs>
</svg>
