<svg width="385" height="111" viewBox="0 0 385 111" fill="none" xmlns="http://www.w3.org/2000/svg">
<path d="M16.4872 67.3752L12.7441 85.4667H319.764L323.507 67.3752H16.4872Z" fill="white"/>
<path d="M356.749 42.5996C356.749 42.5996 360.848 23.3496 360.938 23.1714H334.736C334.736 23.2605 329.389 48.6598 329.389 48.8381H336.073C336.162 48.8381 340.173 29.6772 340.173 29.6772H352.828C352.828 29.6772 348.817 48.9272 348.728 49.0163H368.067L365.572 60.8693H346.322C346.322 60.9584 342.401 78.9607 342.401 78.9607H327.874C327.874 79.0499 326.537 85.4665 326.537 85.4665H347.926C347.926 85.3774 351.758 67.286 351.758 67.286H371.008C371.008 67.1968 376.088 42.6887 376.088 42.5105H356.749V42.5996Z" fill="#6C7993"/>
<path d="M309.337 48.3031C312.099 48.3031 313.971 50.2638 313.971 53.383C313.971 53.9177 313.882 54.4524 313.882 54.9872H301.94C303.187 50.9767 305.861 48.3031 309.337 48.3031ZM315.308 72.1874L316.823 65.0578C314.238 65.949 311.743 66.6619 308.446 66.6619C304.702 66.6619 301.405 65.3251 301.227 60.6909H320.655C321.368 58.3737 321.724 56.0566 321.724 53.8286C321.724 47.2337 317.981 41.7974 309.871 41.7974C299.444 41.7974 293.028 50.5312 293.028 60.2453C293.028 68.4443 298.464 73.346 306.841 73.346C310.406 73.4351 313.08 72.9004 315.308 72.1874ZM283.403 66.1272C279.571 66.1272 276.986 64.4339 276.986 59.6214C276.986 53.9177 280.551 49.1943 286.076 49.1943C287.859 49.1943 289.819 49.7291 291.869 50.5311L293.295 43.6689C290.978 42.8668 288.304 42.243 285.631 42.243C276.362 42.243 268.52 49.2835 268.52 60.067C268.52 68.89 273.867 73.0786 281.531 73.0786C284.116 73.0786 286.255 72.633 287.859 71.92L289.374 64.8795C287.591 65.5925 285.72 66.1272 283.403 66.1272ZM242.764 72.5439L245.972 57.3934C247.22 51.2441 250.25 49.1943 253.28 49.1943C257.201 49.1943 257.647 52.1353 256.934 55.611L253.369 72.5439H261.746L265.49 55.1654C267.361 46.5207 263.351 41.8865 257.201 41.8865C253.815 41.8865 250.517 43.3124 247.665 46.3425L248.468 42.7777H240.625L234.387 72.5439H242.764ZM212.552 63.8992C212.552 60.8691 215.136 59.2649 219.414 59.2649C220.216 59.2649 222.088 59.3541 223.692 59.5323L223.336 61.2256C222.355 64.7904 219.503 67.1967 216.206 67.1967C213.8 67.1967 212.552 65.949 212.552 63.8992ZM220.662 42.0647C216.741 42.0647 212.819 42.9559 211.572 43.4015L210.146 50.2638C212.017 49.7291 215.76 48.6596 219.058 48.6596C223.425 48.6596 225.029 50.0856 225.029 52.4027C225.029 52.8483 225.029 53.2939 224.94 53.7395L224.851 54.3633C222.712 54.096 220.751 53.9177 219.771 53.9177C211.393 53.9177 204.709 57.2152 204.709 64.9687C204.709 70.0485 208.631 73.0786 213.621 73.0786C217.186 73.0786 220.305 71.6527 222.266 69.2464L221.642 72.3656H229.128L232.782 55.3437C233.05 54.096 233.228 52.7592 233.228 51.5115C233.139 46.5207 230.376 42.0647 220.662 42.0647ZM179.934 72.5439L183.142 57.3934C184.479 51.2441 187.42 49.1943 190.45 49.1943C194.371 49.1943 194.817 52.1353 194.104 55.611L190.539 72.5439H198.917L202.66 55.1654C204.442 46.5207 200.521 41.8865 194.371 41.8865C190.985 41.8865 187.687 43.3124 184.836 46.3425L185.549 42.7777H177.706L171.378 72.5439H179.934ZM164.873 34.5786C164.694 37.2522 166.655 39.3911 169.24 39.3911C172.18 39.3911 174.141 37.3413 174.319 34.5786C174.498 31.905 172.537 29.7661 169.952 29.7661C167.101 29.7661 165.051 31.905 164.873 34.5786ZM163.714 42.7777L157.387 72.5439H165.764L172.002 42.7777H163.714ZM139.919 72.5439L143.216 57.0369H155.871L157.387 49.4617H144.731L146.692 39.9258H160.06L161.664 32.3506H139.652L131.274 72.633H139.919V72.5439ZM131.631 49.3726L132.968 42.8668H123.966L125.749 34.5786L117.015 36.5393L111.579 61.9386C110.064 69.1573 113.896 73.0786 120.936 73.0786C122.451 73.0786 124.858 72.8112 126.64 72.1874L128.066 65.6816C126.64 66.0381 124.858 66.3946 123.343 66.3946C120.936 66.3946 119.243 65.5925 119.778 62.5624L122.54 49.3726H131.631ZM99.8148 63.721C99.8148 66.1272 96.9629 66.5728 94.5566 66.5728C91.5265 66.5728 88.14 65.7707 86.2684 65.1469L84.8425 71.8309C87.5161 72.4548 90.9027 72.9895 94.0219 72.9895C101.508 72.9895 107.657 70.1376 107.657 62.9189C107.657 53.6504 96.6955 55.2545 96.6955 51.155C96.6955 49.2835 98.4779 48.6596 101.241 48.6596C103.914 48.6596 107.657 49.7291 108.816 50.0855L110.242 43.3124C107.657 42.5994 104.716 42.1538 102.043 42.1538C93.8437 42.1538 88.9421 45.8969 88.9421 52.0462C88.8529 61.1365 99.8148 59.6214 99.8148 63.721ZM68.177 73.4351C77.4455 73.4351 83.684 66.5728 85.0208 57.6608C86.4467 48.7487 81.6342 41.8865 72.3657 41.8865C63.1863 41.8865 56.8587 48.7487 55.5219 57.6608C54.0069 66.5728 58.9085 73.4351 68.177 73.4351ZM68.89 66.4837C65.5034 66.4837 62.9189 63.8101 64.0775 57.6608C65.3252 51.5115 68.2661 48.8379 71.5636 48.8379C74.861 48.8379 77.5346 51.6006 76.287 57.6608C75.1284 63.721 72.2765 66.4837 68.89 66.4837ZM33.4201 60.2453H37.1631C49.0161 60.2453 55.611 54.2742 55.611 44.471C55.611 37.074 50.5312 32.3506 41.7083 32.3506H30.7465L22.3691 72.633H30.8356L33.4201 60.2453ZM34.9351 52.8483L37.6978 39.6585H41.2627C45.184 39.6585 47.0555 41.2626 47.0555 45.0057C47.0555 49.8182 44.0254 52.8483 38.4999 52.8483H34.9351Z" fill="#6C7993"/>
</svg>
