<svg width="277" height="45" viewBox="0 0 277 71" fill="none" xmlns="http://www.w3.org/2000/svg">
<mask id="mask0_1507_1343" style="mask-type:luminance" maskUnits="userSpaceOnUse" x="0" y="0" width="277" height="71">
<path d="M0 0.5H277V70.5H0V0.5Z" fill="white"/>
</mask>
<g mask="url(#mask0_1507_1343)">
<path d="M56.9825 69.4072V42.0708C56.9825 30.918 63.5406 22.036 76.6588 22.036C78.7642 22.0053 80.8652 22.2371 82.9129 22.726V33.972C81.4223 33.8736 80.1333 33.8736 79.5355 33.8736C72.5864 33.8736 69.5985 37.0308 69.5985 43.446V69.4072H56.9825ZM86.6898 46.222C86.6898 32.5036 97.1238 22.0428 111.633 22.0428C126.143 22.0428 136.573 32.4968 136.573 46.222C136.573 59.9472 126.14 70.4924 111.632 70.4924C97.1238 70.4924 86.6898 59.9332 86.6898 46.222ZM124.154 46.222C124.154 38.4248 118.886 32.8988 111.633 32.8988C104.38 32.8988 99.111 38.42 99.111 46.222C99.111 54.1172 104.378 59.5452 111.633 59.5452C118.888 59.5452 124.152 54.1104 124.152 46.222H124.154ZM173.141 32.99H159.528V50.2608C159.528 56.2808 161.713 59.0448 167.975 59.0448C168.571 59.0448 170.06 59.0448 171.95 58.9464V69.1124C169.366 69.8024 167.085 70.1976 164.596 70.1976C154.063 70.1976 146.907 63.8808 146.907 51.9396V32.9904H138.46V23.0224H140.566C142.248 23.0222 143.861 22.3582 145.052 21.1756C145.641 20.5911 146.108 19.8964 146.426 19.1314C146.745 18.3664 146.908 17.5462 146.907 16.718V7.33H159.528V23.0224H173.141V32.99ZM176.916 46.222C176.916 32.5036 187.35 22.0428 201.86 22.0428C216.37 22.0428 226.802 32.4968 226.802 46.222C226.802 59.9472 216.368 70.4992 201.86 70.4992C187.352 70.4992 176.916 59.9332 176.916 46.222ZM214.379 46.222C214.379 38.4248 209.111 32.8988 201.858 32.8988C194.605 32.8988 189.336 38.4196 189.336 46.222C189.336 54.1172 194.604 59.5452 201.858 59.5452C209.113 59.5452 214.379 54.11 214.379 46.222ZM233.36 69.4072V43.0576C233.36 30.8196 241.211 22.036 255.222 22.036C269.134 22.036 276.985 30.82 276.985 43.0576V69.4072H264.464V44.0444C264.464 37.2364 261.382 32.992 255.222 32.992C249.062 32.992 245.98 37.236 245.98 44.0444V69.4072H233.36ZM2.1068e-06 51.462V69.4056H12.6818V52.2384C12.6818 50.568 13.3502 48.9664 14.5393 47.7852C15.7301 46.6035 17.3424 45.9403 19.0231 45.9408H32.0264C38.0887 45.9405 43.9038 43.5469 48.1988 39.284C50.3211 37.1774 52.0053 34.6742 53.1549 31.9178C54.3044 29.1614 54.8967 26.2061 54.8978 23.2212C54.897 20.2358 54.3048 17.28 53.1551 14.5232C52.0054 11.7664 50.3208 9.26278 48.198 7.156C43.9024 2.89265 38.0862 0.499258 32.0232 0.5H2.1068e-06V22.9296H12.6818V12.3548H31.1685C34.0369 12.3543 36.7887 13.4862 38.8214 15.5028C39.8259 16.4992 40.6231 17.6834 41.1674 18.9874C41.7117 20.2914 41.9923 21.6897 41.9932 23.102C41.9928 24.5147 41.7125 25.9134 41.1684 27.2179C40.6243 28.5225 39.8271 29.7071 38.8226 30.704C36.7897 32.7213 34.0372 33.8536 31.1681 33.8528H17.7292C15.401 33.8516 13.0953 34.3062 10.9431 35.1908C8.79255 36.0747 6.83766 37.3717 5.18994 39.008C3.54425 40.6422 2.23841 42.584 1.34727 44.722C0.456733 46.8582 -0.00113338 49.1488 2.1068e-06 51.462Z" fill="#6C7993"/>
</g>
</svg>
