<svg width="208" height="35" viewBox="0 0 208 59" fill="none" xmlns="http://www.w3.org/2000/svg">
<g clip-path="url(#clip0_1377_1920)">
<path d="M99.6761 17.2344L107.53 45.3319L114.787 17.2344H125.305L113.227 58.3019H101.96L94.1824 30.1409L86.4048 58.3019H75.1382L63.0596 17.2344H73.5777L80.835 45.3319L88.6886 17.2344H99.6508H99.6761Z" fill="#6C7993"/>
<path d="M139.881 17.2344V58.3019H129.503V17.2344H139.881Z" fill="#6C7993"/>
<path d="M154.307 57.1469C151.643 55.9413 149.524 54.2914 147.976 52.2229C146.415 50.1416 145.565 47.8445 145.413 45.3317H155.868C156.057 46.9182 156.844 48.2253 158.202 49.2659C159.559 50.3066 161.248 50.8269 163.277 50.8269C165.307 50.8269 166.791 50.4335 167.909 49.6466C169.025 48.8597 169.571 47.8445 169.571 46.6135C169.571 45.2809 168.885 44.2784 167.528 43.6058C166.17 42.9332 164.012 42.2098 161.045 41.4229C157.974 40.6868 155.474 39.9127 153.52 39.126C151.567 38.3391 149.892 37.1207 148.483 35.4964C147.075 33.8719 146.377 31.6637 146.377 28.8971C146.377 26.6254 147.037 24.5441 148.344 22.6659C149.651 20.7877 151.528 19.3027 153.977 18.224C156.427 17.1326 159.294 16.5996 162.605 16.5996C167.502 16.5996 171.398 17.818 174.316 20.2672C177.234 22.7167 178.832 26.0162 179.137 30.1662H169.203C169.049 28.5417 168.377 27.2345 167.16 26.27C165.954 25.3055 164.331 24.8233 162.3 24.8233C160.422 24.8233 158.975 25.1659 157.962 25.864C156.947 26.5619 156.439 27.5138 156.439 28.7575C156.439 30.1407 157.124 31.194 158.519 31.9048C159.902 32.6155 162.047 33.3516 164.964 34.0877C167.933 34.8236 170.37 35.5978 172.298 36.3846C174.226 37.1715 175.889 38.4026 177.297 40.0523C178.706 41.7148 179.429 43.8977 179.479 46.6135C179.479 48.9867 178.819 51.1061 177.512 52.9843C176.205 54.8625 174.329 56.3347 171.879 57.4007C169.431 58.4668 166.577 58.9998 163.316 58.9998C160.054 58.9998 156.947 58.3906 154.269 57.1849L154.307 57.1469Z" fill="#6C7993"/>
<path d="M198.284 25.7623V45.6234C198.284 47.0068 198.615 48.0093 199.287 48.6312C199.959 49.253 201.075 49.5576 202.662 49.5576H207.483V58.3016H200.962C192.22 58.3016 187.842 54.0502 187.842 45.5473V25.7623H182.958V17.234H187.842V6.37061H198.297V17.2467H207.483V25.7749H198.297L198.284 25.7623Z" fill="#6C7993"/>
<path d="M63.0703 48.5933H50.8394C55.4703 43.4408 58.287 36.6258 58.287 29.151C58.2745 13.0462 45.2315 0 29.1309 0C13.0302 0 0 13.0462 0 29.1382C0 45.2302 13.0429 58.2765 29.1309 58.2765H65.9124L63.0577 48.5806L63.0703 48.5933ZM10.3785 29.1382C10.3785 18.7698 18.7777 10.3684 29.1436 10.3684C39.5093 10.3684 47.9086 18.7698 47.9086 29.1382C47.9086 39.5067 39.5093 47.908 29.1436 47.908C18.7777 47.908 10.3785 39.5067 10.3785 29.1382Z" fill="#6C7993"/>
<path d="M139.881 0.67334H129.503V11.0545H139.881V0.67334Z" fill="#6C7993"/>
</g>
<defs>
<clipPath id="clip0_1377_1920">
<rect width="208" height="59" fill="white"/>
</clipPath>
</defs>
</svg>
