<svg width="364" height="55" viewBox="0 0 364 88" fill="none" xmlns="http://www.w3.org/2000/svg">
<path d="M30.4971 36.511C38.2463 36.511 44.5089 42.539 44.5089 49.9618C44.5161 52.1733 43.9493 54.3486 42.8643 56.2736H60.2442C60.7228 54.2042 60.9619 52.0862 60.9568 49.9618C60.9568 37.5164 52.8392 26.8816 41.4193 22.6664V9.4554H26.3308V37.1226C27.6465 36.7288 29.0498 36.511 30.4971 36.511ZM35.3826 62.5612C33.8096 63.1244 32.1519 63.4124 30.4817 63.4126C22.7325 63.4126 16.4699 57.3846 16.4699 49.9596C16.4699 47.8872 16.9677 45.9204 17.8294 44.1736H0.607398C0.207524 46.077 0.0039858 48.0166 0 49.9618C0 66.0988 13.6434 79.1998 30.4576 79.1998C32.1219 79.1998 33.7621 79.0678 35.3606 78.828V62.5612H35.3826ZM72.5807 32.0978C72.5807 28.7582 72.5807 25.8762 72.5149 23.058H81.4527C81.5842 23.8236 81.7114 27.0994 81.7114 28.888C83.1806 25.1106 86.6561 22.3386 92.2455 22.2726V31.0506C85.6409 30.8526 81.7114 32.6456 81.7114 41.7734V56.2714H72.5807V32.1022V32.0978ZM154.047 9.4532V47.1656C154.047 50.1796 154.047 53.2596 154.112 56.2714H145.433C145.234 55.1211 145.082 53.9629 144.979 52.7998C143.403 55.4178 140.532 57.0348 135.654 57.0348C127.343 57.0348 122.076 50.3094 122.076 39.9144C122.076 29.7174 127.668 22.2704 136.971 22.2704C141.721 22.2704 144.267 23.9974 144.958 25.4824V9.451L154.047 9.4532ZM138.375 49.6758C144.591 49.6758 145.348 44.4134 145.348 39.6746C145.348 33.9766 144.526 29.6734 138.568 29.6734C133.818 29.6734 131.402 33.4508 131.402 39.7406C131.402 46.2042 133.862 49.6758 138.375 49.6758ZM157.673 17.6636V9.4532H166.806V17.6636H157.673ZM157.673 23.058H166.806V56.2714H157.673V23.0558V23.058ZM201.215 39.5888C201.215 49.656 195.257 57.037 184.853 57.037C174.707 57.037 168.749 49.656 168.749 39.7868C168.749 29.5216 174.902 22.2726 185.305 22.2726C194.935 22.2726 201.215 29.2158 201.215 39.5888ZM177.946 39.6548C177.946 46.0744 180.665 49.8518 185.048 49.8518C189.558 49.8518 192.021 46.0744 192.021 39.7208C192.021 32.7974 189.473 29.5216 184.916 29.5216C180.728 29.5216 177.946 32.6676 177.946 39.6548ZM204.395 56.2736V29.9836H201.72V23.0602H204.395V20.1562C204.395 13.2966 207.763 8.7998 214.865 8.7998C216.334 8.7998 218.231 8.9318 219.053 9.1936V16.4426C218.423 16.3591 217.788 16.315 217.152 16.3106C214.499 16.3106 213.484 17.272 213.484 20.8756V23.0602H218.124V29.9814H213.484V56.2714H204.395V56.2736ZM219.523 32.0978C219.523 28.7582 219.523 25.8762 219.457 23.058H228.395C228.524 23.8236 228.653 27.0994 228.653 28.888C230.12 25.1106 233.596 22.3386 239.187 22.2726V31.0506C232.603 30.8526 228.653 32.6456 228.653 41.7734V56.2714H219.523V32.1022V32.0978ZM270.812 31.4444C270.812 28.6284 270.812 25.5484 270.748 23.036H279.554C279.749 23.9314 279.879 26.248 279.944 27.2732C281.023 25.2206 283.679 22.2726 289.463 22.2726C296.07 22.2726 300.3 26.8354 300.3 35.1558V56.2736H291.233V36.2052C291.233 32.4256 290.025 29.7196 285.966 29.7196C282.102 29.7196 279.944 31.902 279.944 37.798V56.2736H270.812V31.4444ZM332.314 45.575C331.236 51.097 327.372 57.059 317.592 57.059C307.38 57.059 302.113 49.942 302.113 39.9408C302.113 30.1354 308.008 22.2968 318.024 22.2968C329.056 22.2968 332.163 30.3752 332.292 34.0888H323.486C322.925 31.4026 321.392 29.5238 317.851 29.5238C313.663 29.5238 311.31 33.1714 311.31 39.591C311.31 46.7102 313.836 49.92 317.787 49.92C320.96 49.92 322.6 48.0632 323.421 45.553H332.314V45.575ZM342.193 41.6414C342.193 45.8126 344.287 49.8518 348.798 49.8518C352.598 49.8518 353.676 48.325 354.562 46.3142H363.629C362.485 50.3556 358.88 57.037 348.605 57.037C337.768 57.037 333.062 48.8926 333.062 40.1564C333.062 29.6976 338.329 22.2506 348.907 22.2506C360.132 22.2506 363.996 30.527 363.996 38.8034C363.996 39.9606 363.996 40.6602 363.866 41.6194H342.193V41.6414ZM354.887 36.0094C354.821 32.166 353.31 28.8902 348.863 28.8902C344.546 28.8902 342.776 31.9042 342.388 36.0094H354.887ZM120.232 47.6914V33.783C120.232 25.8344 115.419 22.3628 106.654 22.2968C97.6529 22.2968 93.8089 26.1402 92.8178 31.2068L101.216 32.9536C101.604 30.5072 102.488 28.9122 106.288 28.9122C110.542 28.9122 111.36 31.2266 111.36 33.585V35.5738H106.678C97.0301 35.5738 91.0702 39.1114 91.0702 46.6662C91.0702 51.7988 94.3747 57.0612 102.297 57.0612C108.126 57.0612 110.349 54.8766 111.557 53.0198C111.557 53.8514 111.75 55.64 112.011 56.2978H120.688C120.495 55.5102 120.236 50.8814 120.236 47.6914H120.232ZM111.36 42.0374C111.36 46.4044 110.669 50.5096 104.885 50.5096C101.582 50.5096 100.135 48.457 100.135 46.0766C100.135 42.8646 102.163 41.142 107.691 41.142H111.36V42.0374ZM267.141 47.6914V33.783C267.141 25.8344 262.326 22.3628 253.561 22.2968C244.56 22.2968 240.718 26.1402 239.725 31.2068L248.121 32.9536C248.511 30.5072 249.395 28.9122 253.195 28.9122C257.447 28.9122 258.267 31.2266 258.267 33.585V35.5738H253.583C243.933 35.5738 237.975 39.1114 237.975 46.6662C237.975 51.7988 241.279 57.0612 249.202 57.0612C255.03 57.0612 257.254 54.8766 258.462 53.0198C258.462 53.8514 258.657 55.64 258.916 56.2978H267.593C267.4 55.5102 267.141 50.8814 267.141 47.6914ZM258.267 42.0374C258.267 46.4044 257.576 50.5096 251.792 50.5096C248.489 50.5096 247.042 48.457 247.042 46.0766C247.042 42.8646 249.072 41.142 254.598 41.142H258.267V42.0374Z" fill="#6C7993"/>
</svg>
