<svg width="366" height="91" viewBox="0 0 366 91" fill="none" xmlns="http://www.w3.org/2000/svg">
<path d="M89.6751 30.7197C86.2629 30.7197 82.6574 32.3942 80.4042 34.9706H80.2754V18.8044H74.0303V65.8215H79.7603V62.5368H79.889C82.078 65.0488 86.0696 66.7876 89.5464 66.7876C98.5598 66.7876 104.354 59.7028 104.354 48.7537C104.354 38.1265 98.3023 30.7197 89.6751 30.7197ZM88.5807 61.1199C83.8806 61.1199 80.2754 57.8995 80.2754 53.6486V44.5028C80.2754 39.9301 83.8806 36.452 88.5807 36.452C94.6967 36.452 98.109 40.8962 98.109 48.7537C98.109 56.6757 94.6967 61.1199 88.5807 61.1199Z" fill="#6C7993"/>
<path d="M53.7501 30.7197C44.4791 30.7197 38.1055 38.1265 38.1055 48.7537C38.1055 59.6385 44.286 66.7876 53.7501 66.7876C63.0856 66.7876 69.2019 59.6385 69.2019 48.7537C69.2019 38.1265 62.8923 30.7197 53.7501 30.7197ZM53.7501 61.1199C47.8913 61.1199 44.286 56.3538 44.286 48.7537C44.286 41.1538 47.8913 36.452 53.7501 36.452C59.4158 36.452 63.0211 41.2824 63.0211 48.7537C63.0211 56.2892 59.4158 61.1199 53.7501 61.1199Z" fill="#6C7993"/>
<path d="M35.2079 33.8113C35.2079 25.8247 29.2847 20.7366 20.0137 20.7366H2.37305V65.8215H8.81125V47.9806H18.0179C25.0999 47.9806 27.6751 50.8146 27.6751 58.6721V65.8215H33.9202V58.6721C33.9202 51.478 31.7312 47.2012 26.9605 45.4431C31.8471 43.7298 35.2079 39.6981 35.2079 33.8113ZM19.4987 42.2484H8.81125V26.5977H19.4343C25.5506 26.5977 28.7053 29.2383 28.7053 34.4552C28.7053 39.479 25.4862 42.2484 19.4987 42.2484Z" fill="#6C7993"/>
<path d="M138.412 30.7197C134.807 30.7197 130.944 32.4588 129.077 34.9706H128.948V31.6858H122.832V65.8215H129.077V44.374C129.077 39.5436 132.232 36.5162 137.189 36.5162C142.082 36.5162 144.4 39.3502 144.4 45.2756V65.8215H150.709V43.4722C150.709 35.6147 145.945 30.7197 138.412 30.7197Z" fill="#6C7993"/>
<path d="M240.264 30.7197C230.993 30.7197 224.619 38.1265 224.619 48.7537C224.619 59.6385 230.799 66.7876 240.264 66.7876C249.599 66.7876 255.716 59.6385 255.716 48.7537C255.716 38.1265 249.406 30.7197 240.264 30.7197ZM240.264 61.1199C234.405 61.1199 230.799 56.3538 230.799 48.7537C230.799 41.1538 234.405 36.452 240.264 36.452C245.93 36.452 249.535 41.2824 249.535 48.7537C249.535 56.2892 245.93 61.1199 240.264 61.1199Z" fill="#6C7993"/>
<path d="M283.658 18.8044V34.9706H283.529C281.275 32.33 277.736 30.7197 274.322 30.7197C265.696 30.7197 259.578 38.2553 259.578 48.7537C259.578 59.7028 265.374 66.7876 274.386 66.7876C277.864 66.7876 281.856 65.0488 284.043 62.5368H284.172V65.8215H289.904V18.8044H283.658ZM283.658 53.6486C283.658 57.8995 280.052 61.1199 275.353 61.1199C269.235 61.1199 265.824 56.6757 265.824 48.7537C265.824 40.8962 269.235 36.452 275.353 36.452C280.052 36.452 283.658 39.9301 283.658 44.5028V53.6486Z" fill="#6C7993"/>
<path d="M205.305 30.7197C196.034 30.7197 189.66 38.1265 189.66 48.7537C189.66 59.6385 195.841 66.7876 205.305 66.7876C214.641 66.7876 220.757 59.6385 220.757 48.7537C220.757 38.1265 214.447 30.7197 205.305 30.7197ZM205.305 61.1199C199.446 61.1199 195.841 56.3538 195.841 48.7537C195.841 41.1538 199.446 36.452 205.305 36.452C210.971 36.452 214.576 41.2824 214.576 48.7537C214.576 56.2892 210.971 61.1199 205.305 61.1199Z" fill="#6C7993"/>
<path d="M116.007 18.8044H109.247V25.4384H116.007V18.8044Z" fill="#6C7993"/>
<path d="M172.985 30.7197C169.187 30.7197 165.324 32.5231 163.521 35.0994H163.392V18.8044H157.147V65.8215H163.392V44.374C163.392 39.7367 166.74 36.5162 171.505 36.5162C176.204 36.5162 178.908 39.6079 178.908 44.9536V65.8215H185.154V43.4079C185.154 35.6147 180.454 30.7197 172.985 30.7197Z" fill="#6C7993"/>
<path d="M115.75 31.6858H109.505V65.8215H115.75V31.6858Z" fill="#6C7993"/>
<path d="M332.956 67.4447L332.486 67.5995C329.46 68.6041 324.985 70.1562 320.968 72.0048C320.754 72.1079 320.613 72.3913 320.613 72.3913C320.536 72.5652 320.446 72.7778 320.343 73.0159L320.33 73.0483C319.878 74.0723 319.261 75.6115 318.991 76.2428L318.785 76.7388C318.752 76.816 318.773 76.9062 318.837 76.9641C318.875 77.0029 318.919 77.0222 318.97 77.0222C318.996 77.0222 319.03 77.0158 319.06 77.0029L319.544 76.771C320.646 76.2492 322.037 75.457 323.492 74.7614L323.543 74.7357C326.317 73.4217 329.447 71.9339 331.332 71.0323C331.332 71.0323 331.635 70.8713 331.789 70.5684L333.2 67.7347C333.239 67.6637 333.226 67.5735 333.175 67.5092C333.123 67.4447 333.033 67.419 332.956 67.4447Z" fill="#6C7993"/>
<path d="M321.674 63.052C321.875 62.6655 322.79 60.9007 322.995 60.5078L323.034 60.4371C329.162 48.876 336.632 37.9654 345.227 28.0209L345.466 27.744C345.535 27.6604 345.548 27.5316 345.497 27.4349C345.44 27.3318 345.33 27.2803 345.219 27.2932L344.859 27.3446C339.22 28.124 333.508 29.1997 327.882 30.5458C327.321 30.7003 326.962 31.0675 326.884 31.1511C322.674 36.1942 318.687 41.5014 315.03 46.9438C314.85 47.2207 314.785 47.5815 314.832 47.8777C314.87 48.1675 315.752 54.9625 317.091 60.1795C313.77 69.7439 310.801 82.3483 310.801 82.3483C310.776 82.4321 310.794 82.5159 310.84 82.5866C310.891 82.6576 310.968 82.6962 311.058 82.6962H312.95C313.074 82.6962 313.176 82.6252 313.223 82.5157L313.351 82.1616C315.282 76.893 317.484 71.6889 319.919 66.6137C320.484 65.4414 321.674 63.052 321.674 63.052Z" fill="#6C7993"/>
<path d="M348.001 30.0947L347.993 29.7342C347.988 29.6182 347.916 29.5216 347.813 29.483C347.71 29.4444 347.589 29.4766 347.512 29.5604L347.273 29.8309C337.249 41.4306 328.82 54.2991 322.23 68.0886L322.075 68.4106C322.024 68.5137 322.042 68.6361 322.119 68.7196C322.171 68.7713 322.243 68.8035 322.312 68.8035C322.345 68.8035 322.384 68.797 322.422 68.7842L322.752 68.6489C328.383 66.3174 334.133 64.295 339.842 62.6398C340.184 62.5431 340.475 62.2983 340.636 61.9828C343.14 57.1006 348.954 47.6458 348.954 47.6458C349.101 47.4331 349.062 47.1176 349.062 47.1176C349.062 47.1176 348.065 35.8141 348.001 30.0947Z" fill="#6C7993"/>
<path d="M360.966 13.7871C359.544 12.5505 357.478 11.9708 354.272 11.9C351.36 11.8356 347.903 12.4668 343.983 13.7549C343.397 13.961 342.927 14.2895 342.51 14.6953C338.523 18.4373 334.647 22.4112 330.984 26.5074L330.702 26.8165C330.625 26.9068 330.612 27.0356 330.668 27.1323C330.727 27.2354 330.851 27.2868 330.966 27.2611L331.378 27.1709C337.282 25.9085 343.243 24.9424 349.096 24.3048C349.481 24.2597 349.88 24.3885 350.165 24.6526C350.453 24.9166 350.615 25.2966 350.607 25.6895C350.512 31.4991 350.723 37.3344 351.239 43.0343L351.27 43.4079C351.283 43.5239 351.36 43.6141 351.478 43.6463C351.496 43.6527 351.517 43.6527 351.543 43.6591C351.625 43.6591 351.715 43.6206 351.774 43.5432L351.985 43.2405C355.283 38.5386 358.868 33.9659 362.642 29.6376C363.066 29.1547 363.176 28.8518 363.253 28.4139C364.436 20.8268 362.603 15.2105 360.966 13.7871Z" fill="#6C7993"/>
</svg>
