<svg width="318" height="55" viewBox="0 0 318 78" fill="none" xmlns="http://www.w3.org/2000/svg">
<path d="M30.2235 59.942H42.8793C44.2247 59.7791 45.4692 59.1441 46.3925 58.1495C47.3157 57.1549 47.8582 55.8649 47.9239 54.5079V36.2035C47.9239 35.0365 47.4615 33.9173 46.6384 33.0921C45.8153 32.2669 44.699 31.8033 43.535 31.8033C42.371 31.8033 41.2547 32.2669 40.4316 33.0921C39.6086 33.9173 39.1462 35.0365 39.1462 36.2035V47.8349C39.1462 48.711 38.799 49.5513 38.1811 50.1708C37.5632 50.7903 36.7251 51.1384 35.8512 51.1384H30.1147C29.5336 51.1387 28.9584 51.2548 28.4224 51.4799C27.8864 51.7049 27.4003 52.0344 26.9923 52.4493C26.5843 52.8641 26.2626 53.3561 26.0457 53.8966C25.8289 54.4371 25.7213 55.0155 25.7292 55.598C25.7619 56.7678 26.251 57.8781 27.0913 58.6904C27.9316 59.5026 29.0562 59.952 30.2235 59.942ZM35.9303 18.1535H23.2711C21.9257 18.3164 20.6812 18.9514 19.758 19.946C18.8347 20.9405 18.2922 22.2305 18.2266 23.5876V41.8887C18.2266 43.0557 18.689 44.1749 19.512 45.0001C20.3351 45.8253 21.4514 46.2889 22.6154 46.2889C23.7794 46.2889 24.8958 45.8253 25.7188 45.0001C26.5419 44.1749 27.0043 43.0557 27.0043 41.8887V30.2606C27.0043 29.3845 27.3514 28.5442 27.9694 27.9247C28.5873 27.3052 29.4254 26.9571 30.2992 26.9571H36.0324C36.6135 26.9568 37.1888 26.8407 37.7248 26.6156C38.2608 26.3906 38.7469 26.0611 39.1549 25.6462C39.5628 25.2314 39.8846 24.7394 40.1014 24.1989C40.3183 23.6583 40.4259 23.08 40.418 22.4975C40.3861 21.3285 39.8982 20.2187 39.0591 19.4065C38.22 18.5943 37.0966 18.1444 35.9303 18.1535Z" fill="#6C7993"/>
<path d="M38.0624 9.30038C43.0072 9.30563 47.748 11.2771 51.2449 14.7823C54.7417 18.2876 56.7089 23.0403 56.715 27.9979V63.9592C56.5068 65.173 55.9161 66.2879 55.0296 67.1405C54.1431 67.993 53.0074 68.5383 51.7891 68.6963H27.937C22.9883 68.6963 18.2422 66.7254 14.7429 63.2171C11.2436 59.7087 9.27773 54.9504 9.27773 49.9889V15.0847C9.27773 13.5506 9.88558 12.0793 10.9676 10.9946C12.0495 9.9098 13.517 9.30038 15.0472 9.30038H38.0624ZM38.0624 0.500003H15.0472C11.189 0.500003 7.48889 2.0366 4.76077 4.77177C2.03264 7.50693 0.5 11.2166 0.5 15.0847L0.5 49.9922C0.5 57.2877 3.39068 64.2845 8.53611 69.4432C13.6815 74.6019 20.6603 77.5 27.937 77.5H52.2306C55.6015 77.2231 58.7707 75.777 61.193 73.4106C63.6153 71.0441 65.1393 67.9052 65.5027 64.534V27.9979C65.5027 24.3857 64.7928 20.8089 63.4136 17.4718C62.0345 14.1348 60.013 11.1029 57.4648 8.54927C54.9165 5.99569 51.8914 3.97048 48.5623 2.58936C45.2332 1.20824 41.6653 0.498267 38.0624 0.500003ZM99.1506 60.4476C96.1193 60.4304 93.1387 59.6658 90.4717 58.2211C87.7336 56.7767 85.3604 54.7249 83.5326 52.222C83.3083 51.9192 83.2058 51.5428 83.2455 51.1676C83.2852 50.7925 83.4641 50.446 83.7468 50.197L87.078 47.2405C87.3507 46.998 87.7019 46.8631 88.0664 46.8606C88.1377 46.8556 88.2093 46.8556 88.2806 46.8606C88.496 46.8915 88.7022 46.9689 88.8848 47.0876C89.0674 47.2062 89.2221 47.3632 89.3383 47.5477C90.4699 49.3805 92.0193 50.918 93.8589 52.0338C95.6196 53.1018 97.6397 53.663 99.6976 53.6557C101.902 53.6557 103.559 53.1966 104.62 52.2914C105.609 51.4325 106.11 50.2796 106.11 48.7567C106.11 47.072 105.589 45.8365 104.521 44.9809C103.25 43.9667 101.128 43.0385 98.2149 42.2225C89.648 40.1083 85.302 36.0087 85.302 30.0295C85.302 26.3263 86.5508 23.4226 89.0154 21.3646C91.3943 19.3825 94.6761 18.3915 98.7684 18.3915C101.521 18.3524 104.249 18.9243 106.755 20.0663C109.23 21.2725 111.4 23.0254 113.101 25.1933C113.346 25.5009 113.463 25.8919 113.426 26.2838C113.389 26.6757 113.202 27.0379 112.904 27.2942L109.681 30.0328C109.524 30.1663 109.341 30.2659 109.143 30.3255C108.946 30.3851 108.738 30.4034 108.533 30.3792C108.328 30.355 108.131 30.289 107.952 30.1851C107.774 30.0811 107.619 29.9416 107.497 29.7751C106.494 28.3299 105.188 27.1213 103.671 26.2338C102.155 25.4615 100.469 25.0833 98.7684 25.1338C96.8145 25.1338 95.2231 25.5765 94.0369 26.4552C93.5293 26.8136 93.1193 27.2936 92.8442 27.8516C92.5692 28.4096 92.4377 29.0277 92.4619 29.6496C92.4619 31.0866 92.9463 32.1833 93.9347 33.0026C95.0978 33.9639 97.1901 34.8096 100.156 35.5198C104.182 36.6067 107.348 38.1295 109.602 40.0555C112.037 42.1366 113.273 45.0668 113.273 48.76C113.308 50.9423 112.687 53.0845 111.49 54.9077C110.24 56.7386 108.493 58.1717 106.456 59.0371C104.147 60.0175 101.657 60.4981 99.1506 60.4476ZM131.102 60.5996C128.512 60.6393 125.961 59.9614 123.731 58.6406C121.565 57.3257 119.805 55.4358 118.644 53.18C117.416 50.7771 116.794 48.1097 116.831 45.4103C116.792 42.7185 117.404 40.0572 118.614 37.6539C119.758 35.3908 121.512 33.4953 123.678 32.1833C125.892 30.8559 128.43 30.1699 131.009 30.2013C133.171 30.1579 135.305 30.6902 137.194 31.744C139.002 32.8262 140.584 34.2485 141.853 35.9328C142.096 36.2493 142.205 36.6493 142.156 37.0459C142.106 37.4424 141.903 37.8033 141.59 38.0503L138.858 40.1843C138.595 40.3958 138.269 40.5122 137.932 40.5146C137.856 40.5195 137.78 40.5195 137.705 40.5146C137.502 40.4832 137.308 40.4108 137.134 40.3017C136.96 40.1927 136.81 40.0493 136.693 39.8804C135.194 37.7001 133.332 36.643 130.996 36.643C129.651 36.6194 128.328 36.9939 127.194 37.7199C126.042 38.4719 125.122 39.5313 124.538 40.7789C123.882 42.2408 123.543 43.8255 123.543 45.4285C123.543 47.0315 123.882 48.6162 124.538 50.0781C125.117 51.329 126.038 52.3896 127.194 53.1371C128.326 53.8507 129.643 54.2159 130.98 54.1876C132.469 54.1876 133.685 53.9431 134.588 53.4608C135.596 52.8992 136.474 52.1316 137.168 51.2079C137.405 50.9043 137.749 50.7033 138.13 50.6462C138.51 50.589 138.898 50.6801 139.214 50.9007L142.11 52.9257C142.28 53.0439 142.423 53.1959 142.531 53.3721C142.639 53.5483 142.71 53.745 142.739 53.9499C142.768 54.1547 142.755 54.3634 142.7 54.5629C142.645 54.7624 142.55 54.9484 142.42 55.1093C141.076 56.7779 139.391 58.1377 137.477 59.0965C135.5 60.0948 133.315 60.6099 131.102 60.5996ZM158.835 60.5996C156.255 60.6309 153.716 59.9449 151.501 58.6175C149.335 57.3042 147.574 55.4138 146.417 53.1569C145.183 50.7373 144.561 48.0513 144.604 45.3344C144.564 42.649 145.174 39.994 146.384 37.5977C147.53 35.3624 149.269 33.4868 151.408 32.1767C153.613 30.8478 156.144 30.1615 158.717 30.1947C160.74 30.1759 162.737 30.6594 164.529 31.6019C165.126 31.9196 165.697 32.2853 166.236 32.6954V32.5897C166.237 32.1895 166.395 31.8061 166.678 31.5231C166.96 31.2402 167.342 31.0809 167.741 31.08H171.455C171.854 31.0809 172.236 31.2402 172.519 31.5231C172.801 31.8061 172.96 32.1895 172.961 32.5897V58.2145C172.96 58.6146 172.801 58.9981 172.519 59.281C172.236 59.564 171.854 59.7233 171.455 59.7242H167.738C167.339 59.7233 166.957 59.564 166.674 59.281C166.392 58.9981 166.233 58.6146 166.232 58.2145V58.122C165.706 58.5208 165.15 58.8775 164.568 59.189C162.805 60.1314 160.834 60.6163 158.835 60.5996ZM158.727 36.6166C157.392 36.5894 156.079 36.962 154.957 37.6869C153.819 38.4431 152.907 39.4961 152.321 40.7327C151.64 42.1772 151.302 43.7601 151.333 45.3575C151.3 46.9806 151.638 48.5896 152.321 50.0616C152.898 51.3095 153.811 52.3712 154.957 53.1272C156.078 53.8516 157.39 54.2242 158.723 54.1975C160.088 54.2262 161.431 53.8517 162.585 53.1206C163.744 52.3707 164.667 51.3065 165.247 50.0517C165.903 48.5898 166.242 47.0051 166.242 45.4021C166.242 43.7991 165.903 42.2144 165.247 40.7525C164.663 39.5063 163.744 38.4474 162.595 37.6935C161.439 36.961 160.094 36.5864 158.727 36.6166Z" fill="#6C7993"/>
<path d="M183 18.3882H179.287C178.455 18.3882 177.781 19.0641 177.781 19.8979V58.0824C177.781 58.9161 178.455 59.5921 179.287 59.5921H183C183.832 59.5921 184.506 58.9161 184.506 58.0824V19.8979C184.506 19.0641 183.832 18.3882 183 18.3882Z" fill="#6C7993"/>
<path d="M244.145 59.724C243.825 59.7253 243.514 59.6241 243.256 59.435C242.998 59.246 242.807 58.9792 242.712 58.6736L237.865 43.372L232.626 58.7033C232.524 59.0012 232.331 59.2596 232.075 59.4426C231.82 59.6256 231.513 59.724 231.199 59.724H227.486C227.169 59.724 226.86 59.6237 226.603 59.4375C226.346 59.2512 226.155 58.9885 226.056 58.6868L217.637 33.0619C217.53 32.7352 217.537 32.3816 217.657 32.0592C217.776 31.7368 218.002 31.4649 218.296 31.288C218.542 31.1469 218.82 31.075 219.103 31.0799H223.008C223.327 31.0789 223.638 31.1799 223.896 31.3682C224.153 31.5565 224.344 31.8224 224.441 32.1271L229.575 48.0695L234.794 32.1072C234.893 31.8052 235.084 31.5422 235.341 31.3559C235.598 31.1696 235.907 31.0695 236.224 31.07H239.829C240.148 31.069 240.46 31.1703 240.718 31.3593C240.977 31.5482 241.168 31.8149 241.265 32.1205L246.28 47.8911L251.341 32.1172C251.438 31.8124 251.629 31.5466 251.887 31.3583C252.144 31.17 252.455 31.069 252.774 31.07H256.297C256.498 31.0669 256.698 31.1028 256.886 31.1757C257.24 31.3198 257.526 31.5926 257.687 31.9394C257.849 32.2861 257.873 32.6812 257.756 33.0454L249.453 58.6736C249.355 58.9762 249.164 59.2399 248.907 59.4269C248.65 59.6138 248.34 59.7144 248.023 59.7141L244.145 59.724ZM272.897 60.6028C270.316 60.6341 267.777 59.948 265.562 58.6207C263.396 57.3097 261.634 55.4232 260.471 53.17C259.241 50.7494 258.62 48.0639 258.662 45.3475C258.622 42.6632 259.232 40.0092 260.442 37.6141C261.587 35.3714 263.328 33.4897 265.473 32.1766C267.679 30.8471 270.211 30.1607 272.785 30.1946C274.808 30.1797 276.803 30.6665 278.594 31.6117C279.187 31.9267 279.755 32.289 280.29 32.6953V32.5896C280.291 32.1894 280.45 31.8059 280.732 31.523C281.015 31.2401 281.397 31.0807 281.796 31.0799H285.513C285.912 31.0807 286.295 31.2401 286.577 31.523C286.859 31.8059 287.018 32.1894 287.019 32.5896V58.2144C287.018 58.6145 286.859 58.998 286.577 59.2809C286.295 59.5638 285.912 59.7232 285.513 59.724H281.8C281.4 59.7232 281.018 59.5638 280.736 59.2809C280.454 58.998 280.295 58.6145 280.294 58.2144V58.1219C279.773 58.5199 279.222 58.8767 278.646 59.1889C276.878 60.135 274.901 60.6211 272.897 60.6028ZM272.788 36.6164C271.453 36.5893 270.141 36.9619 269.018 37.6868C267.88 38.443 266.969 39.496 266.382 40.7325C265.702 42.1771 265.363 43.76 265.394 45.3574C265.362 46.9804 265.7 48.5895 266.382 50.0615C266.958 51.31 267.872 52.372 269.018 53.1271C270.141 53.8519 271.453 54.2246 272.788 54.1974C274.152 54.2276 275.494 53.8529 276.646 53.1205C277.794 52.3695 278.708 51.3093 279.282 50.0615C279.938 48.5996 280.277 47.0148 280.277 45.4119C280.277 43.8089 279.938 42.2242 279.282 40.7623C278.702 39.5182 277.79 38.4595 276.646 37.7033C275.494 36.9691 274.153 36.5912 272.788 36.6164ZM211.993 50.6726C211.652 50.435 211.236 50.3332 210.825 50.387C210.413 50.4407 210.037 50.6462 209.769 50.9633C209.093 51.8237 208.278 52.5641 207.357 53.1535C206.148 53.8307 204.576 54.1875 202.668 54.1875C200.418 54.1875 198.714 53.4508 197.426 51.9312C196.394 50.7135 195.698 49.2468 195.406 47.6764H214.738C215.112 47.6773 215.472 47.5383 215.75 47.2866C216.027 47.0349 216.201 46.6886 216.237 46.3154C216.276 45.8991 216.296 45.3243 216.296 44.5811C216.326 42.0482 215.719 39.5485 214.53 37.3135C213.388 35.1713 211.692 33.3766 209.62 32.1172C207.507 30.8385 205.08 30.175 202.612 30.2012C200.039 30.1673 197.507 30.8537 195.301 32.1832C193.15 33.5024 191.408 35.3954 190.269 37.6504C189.062 40.0558 188.452 42.7177 188.49 45.4102C188.452 48.1086 189.074 50.7751 190.302 53.1766C191.461 55.4349 193.222 57.3264 195.39 58.6405C197.622 59.9727 200.179 60.6587 202.777 60.6226C205.713 60.6226 208.322 60.0478 210.487 58.8255C212.241 57.8476 213.782 56.5266 215.018 54.9407C215.157 54.7628 215.259 54.5581 215.316 54.3393C215.373 54.1205 215.385 53.8922 215.351 53.6685C215.317 53.4449 215.237 53.2307 215.117 53.0393C214.996 52.8478 214.838 52.6832 214.652 52.5556L211.993 50.6726ZM197.861 38.4499C199.09 37.2177 200.642 36.6198 202.612 36.6198C204.675 36.6198 206.237 37.1417 207.373 38.212C208.297 39.1456 208.945 40.3177 209.245 41.598H195.871C196.292 40.4106 196.974 39.3335 197.867 38.4466L197.861 38.4499ZM317.233 31.7307C317.096 31.5282 316.911 31.3622 316.695 31.2472C316.479 31.1321 316.239 31.0713 315.994 31.07H312.499C312.195 31.0717 311.899 31.1649 311.648 31.3375C311.398 31.5101 311.205 31.7541 311.095 32.0379L303.879 50.7486L297.016 32.0247C296.905 31.7434 296.713 31.5022 296.464 31.3324C296.214 31.1626 295.92 31.0723 295.619 31.0733H291.74C291.494 31.0747 291.253 31.1363 291.036 31.2527C290.819 31.3691 290.634 31.5367 290.496 31.7411C290.358 31.9454 290.273 32.1804 290.246 32.4255C290.219 32.6706 290.253 32.9186 290.343 33.1478L300.419 59.7439C300.123 60.9265 299.636 61.7414 298.96 62.1884C298.014 62.8194 296.231 62.9053 295.249 62.968C294.836 62.9962 294.449 63.1795 294.164 63.4813C293.88 63.7831 293.719 64.1813 293.714 64.5966V67.1601C293.714 67.3764 293.756 67.5906 293.839 67.7902C293.922 67.9899 294.043 68.1711 294.197 68.3232C294.35 68.4754 294.532 68.5955 294.732 68.6765C294.932 68.7575 295.146 68.7979 295.362 68.7953C296.937 68.7953 299.46 68.9473 301.424 67.9034C305.48 65.7561 306.087 63.0936 307.227 60.0676L317.405 33.1214C317.49 32.893 317.52 32.6471 317.49 32.4049C317.46 32.1627 317.372 31.9313 317.233 31.7307Z" fill="#6C7993"/>
</svg>
