<svg xmlns="http://www.w3.org/2000/svg" fill="none" preserveAspectRatio="xMinYMid meet" viewBox="0 0 410 410"><path d="M354.489 137.618a63.667 63.667 0 0 0-3.36-8.518v-.178a62.173 62.173 0 0 0-29.037-28.771 61.87 61.87 0 0 0-40.563-4.46 62.036 62.036 0 0 0-34.556 21.779 62.425 62.425 0 0 0-13.615 38.604 61.817 61.817 0 0 0 1.415 13.133c.004.059.004.118 0 .177.354 1.775.884 3.55 1.415 5.324a96.339 96.339 0 0 1 1.805 38.258 96.208 96.208 0 0 1-13.24 35.921 95.862 95.862 0 0 1-26.179 27.87 95.51 95.51 0 0 1-34.951 15.381 95.343 95.343 0 0 1-38.162.446 95.493 95.493 0 0 1-35.299-14.561 95.847 95.847 0 0 1-26.818-27.25 96.212 96.212 0 0 1-14.07-35.603 159.181 159.181 0 0 0 22.792 61.899 158.562 158.562 0 0 0 45.891 47.26 157.935 157.935 0 0 0 61.069 24.465 157.732 157.732 0 0 0 65.706-2.554 158.066 158.066 0 0 0 59-29.132 158.706 158.706 0 0 0 42.111-50.682 159.278 159.278 0 0 0 17.952-63.483 159.354 159.354 0 0 0-9.306-65.325Z" style="fill:#6c7993"/><path d="M103.211 191.034c20.513 29.991 62.953 27.329 62.953 27.329-10.61-10.293-17.507-19.698-18.214-46.495-.708-26.797-15.915-33.896-15.915-33.896 27.232-17.214 17.506-35.848 16.622-56.611-.53-12.955 7.073-22.538 13.086-28.04-34.605 5.203-65.874 23.609-87.288 51.381s-31.32 62.767-27.654 97.689c2.476-6.921 37.489-39.042 56.41-11.357Z" style="fill:#6c7993"/><path d="M354.489 137.618a63.667 63.667 0 0 0-3.36-8.518v-.178a62.173 62.173 0 0 0-29.037-28.771 61.87 61.87 0 0 0-40.563-4.46 62.036 62.036 0 0 0-34.556 21.779 62.425 62.425 0 0 0-13.615 38.604 61.817 61.817 0 0 0 1.415 13.133c.004.059.004.118 0 .177.354 1.775.884 3.55 1.415 5.324a96.339 96.339 0 0 1 1.805 38.258 96.208 96.208 0 0 1-13.24 35.921 95.862 95.862 0 0 1-26.179 27.87 95.51 95.51 0 0 1-34.951 15.381 95.343 95.343 0 0 1-38.162.446 95.493 95.493 0 0 1-35.299-14.561 95.847 95.847 0 0 1-26.818-27.25 96.212 96.212 0 0 1-14.07-35.603 159.181 159.181 0 0 0 22.792 61.899 158.562 158.562 0 0 0 45.891 47.26 157.935 157.935 0 0 0 61.069 24.465 157.732 157.732 0 0 0 65.706-2.554 158.066 158.066 0 0 0 59-29.132 158.706 158.706 0 0 0 42.111-50.682 159.278 159.278 0 0 0 17.952-63.483 159.354 159.354 0 0 0-9.306-65.325Z" style="fill:#6c7993"/><path fill="url(#a)" fill-rule="evenodd" d="M328.142 180.387c0 77.33-62.466 140.019-139.521 140.019-40.903 0-77.695-17.664-103.215-45.805a95.473 95.473 0 0 0 40.06 17.982 95.324 95.324 0 0 0 38.162-.446 95.49 95.49 0 0 0 34.952-15.381 95.868 95.868 0 0 0 26.178-27.869 96.225 96.225 0 0 0 13.241-35.922 96.352 96.352 0 0 0-1.806-38.257c-.531-1.775-1.061-3.55-1.415-5.324a1.322 1.322 0 0 0 0-.178 61.807 61.807 0 0 1-1.414-13.132 62.43 62.43 0 0 1 13.614-38.605 62.045 62.045 0 0 1 34.556-21.779 61.854 61.854 0 0 1 17.045-1.5c18.523 23.764 29.563 53.686 29.563 86.197Z" clip-rule="evenodd"/><defs><linearGradient id="a" x1="290.963" x2="93.598" y1="94.166" y2="295.111" gradientUnits="userSpaceOnUse"><stop stop-color="#6C7993"/><stop offset="1" stop-color="#6C7993" stop-opacity="0"/></linearGradient></defs></svg>
