<svg width="260" height="65" viewBox="0 0 260 106" fill="none" xmlns="http://www.w3.org/2000/svg">
<path d="M242.538 19.54H126.027C123.445 19.54 121.34 21.6525 121.34 24.2432V85.4644C121.34 88.0551 123.445 90.1676 126.027 90.1676H242.538C245.12 90.1676 247.225 88.0551 247.225 85.4644V24.2432C247.225 21.6525 245.12 19.54 242.538 19.54Z" fill="white"/>
<path opacity="0.4" d="M124.716 54.5748C124.716 54.5748 124.875 54.5749 125.153 54.535C139.017 54.0567 243.729 50.3898 243.729 50.3898C245.477 50.3101 247.225 48.9948 247.225 46.8026V24.2034C247.225 21.6127 245.12 19.5002 242.538 19.5002H126.027C123.445 19.5002 121.34 21.6127 121.34 24.2034V58.2019C121.34 57.883 121.459 54.8937 124.716 54.5748Z" fill="#6C7993"/>
<path d="M79.2329 85.1058C80.0671 85.5443 81.7752 86.0624 83.9203 86.1023C87.6147 86.182 89.6009 84.787 91.0706 81.4788L110.774 37.4363C109.979 36.9978 108.152 36.5195 106.682 36.4797C104.14 36.4398 100.724 36.958 98.5785 42.1395L92.1829 57.2454L79.6699 36.8384C78.8754 36.5993 76.8892 36.2405 75.4591 36.2405C71.0101 36.2405 68.5472 37.8747 66.0048 40.6647L53.8493 53.9771L63.6214 69.4418C65.4487 72.2717 67.8321 73.7066 71.6854 73.7066C74.2277 73.7066 76.3331 73.1087 77.3262 72.6703L65.5282 54.854L73.8702 45.9658L87.5749 67.5287L79.2329 85.1058ZM53.3726 68.4454C53.3726 71.7137 52.1015 73.5472 45.7854 73.5472C44.9512 73.5472 44.2361 73.5073 43.5211 73.3877V30.3018C43.5211 27.0335 44.6334 23.6057 51.0289 23.6057C51.8234 23.6057 52.6576 23.6854 53.4124 23.8449V68.4454H53.3726ZM40.3035 61.9088C40.3035 67.9671 36.3708 72.3913 28.3068 73.2682C22.5071 73.9059 14.0857 73.1486 10.0736 72.7102C9.95438 72.0724 9.83521 71.2354 9.83521 70.5977C9.83521 65.2967 12.6556 64.1009 15.3568 64.1009C18.1375 64.1009 22.5071 64.5792 25.7645 64.5792C29.3794 64.5792 30.4519 63.3436 30.4519 62.1878C30.4519 60.6732 29.0219 60.0355 26.2412 59.5173L18.6142 58.0426C12.2584 56.8469 8.88184 52.4227 8.88184 47.7594C8.88184 42.0996 12.894 37.3565 20.7593 36.4797C26.7179 35.842 33.9476 36.5594 37.92 37.0377C38.0392 37.7153 38.1186 38.353 38.1186 39.0704C38.1186 44.3316 35.338 45.4875 32.6765 45.4875C30.6108 45.4875 27.4329 45.1288 23.7783 45.1288C20.084 45.1288 18.5348 46.1651 18.5348 47.4006C18.5348 48.7159 20.0045 49.2739 22.3085 49.6725L29.578 51.0277C37.0858 52.4227 40.3035 56.6874 40.3035 61.9088Z" fill="#6C7993"/>
<path opacity="0.25" d="M110.813 37.3964L103.583 53.5387C103.385 53.9771 102.551 55.3721 100.564 55.412C100.088 55.412 93.9703 55.6511 93.9703 55.6511C92.7786 55.691 92.3814 56.8469 92.3814 56.8469L98.618 42.0996C100.763 36.8783 104.179 36.4 106.722 36.4398C108.191 36.4797 109.979 36.958 110.813 37.3964ZM91.9047 56.6874L79.7094 36.7986C78.9149 36.5594 76.9288 36.2007 75.4987 36.2007C71.0496 36.2007 68.5867 37.8348 66.0444 40.6249L53.8491 53.9373L54.8422 55.4519C55.2395 56.0099 56.0737 56.9665 57.7421 56.9266C58.338 56.9266 64.2171 56.6874 64.6938 56.6874C66.2033 56.6476 67.1964 57.2853 67.7525 58.0825L65.5677 54.8141L73.9097 45.9259L79.5108 54.7743C80.5436 56.0896 82.0531 56.1294 82.3709 56.1294C82.649 56.1294 90.0376 55.8504 90.3554 55.8504C90.8718 55.7707 91.428 56.0497 91.9047 56.6874ZM50.989 23.6057C44.5935 23.6057 43.4812 27.0335 43.4812 30.3018V59.8362C43.4812 58.6405 44.3949 57.4049 45.9044 57.3252C46.9769 57.2853 49.9562 57.1657 50.8301 57.1657C51.8232 57.1259 53.293 56.4483 53.3327 54.6547V23.8847C52.6177 23.6854 51.7835 23.6057 50.989 23.6057ZM29.6176 51.0675L22.3481 49.7124C20.0044 49.3138 18.5743 48.7558 18.5743 47.4405C18.5743 46.2049 20.1235 45.1686 23.8179 45.1686C27.4725 45.1686 30.6504 45.5273 32.716 45.5273C35.3775 45.5273 38.1582 44.3715 38.1582 39.1103C38.1582 38.3928 38.0788 37.7551 37.9596 37.0775C33.9872 36.5993 26.7177 35.842 20.7988 36.5195C12.9335 37.3964 8.92139 42.1394 8.92139 47.7992C8.92139 50.7088 10.2323 53.4988 12.7746 55.4917C14.6814 56.7672 16.6278 57.2454 18.614 57.6042C20.2427 57.8832 23.9768 58.1223 26.7574 58.0426C27.6314 58.0027 34.0269 57.8035 35.457 57.7237C38.7143 57.6042 40.4622 60.3942 40.3033 63.1842C40.3033 63.1444 40.3033 63.1045 40.3033 63.0646V63.0248C40.343 62.6661 40.343 62.3074 40.343 61.9088C40.3033 56.6874 37.0856 52.4227 29.6176 51.0675Z" fill="#6C7993"/>
<path d="M169.525 55.2526C169.525 66.1337 161.938 72.5907 153.556 72.5907C148.591 72.5907 144.499 70.2391 142.076 66.891V70.0796C142.076 71.4746 141.321 72.2319 139.017 72.2319C138.064 72.2319 136.952 72.0725 136.396 71.9529V28.8271C136.396 27.5118 137.15 26.6748 139.454 26.6748C140.408 26.6748 141.52 26.8342 142.076 26.9538V43.6541C144.499 40.3459 148.551 37.9545 153.556 37.9545C161.938 37.9943 169.525 44.4114 169.525 55.2526ZM163.805 55.2526C163.805 47.9587 158.959 42.9765 152.484 42.9765C148.074 42.9765 143.983 45.5274 142.116 49.274V61.2711C143.983 65.0177 148.074 67.5686 152.484 67.5686C158.959 67.5686 163.805 62.5864 163.805 55.2526ZM206.389 57.3252H180.688C181.442 63.7822 185.852 67.3693 192.446 67.3693C195.266 67.3693 197.491 66.8113 199.557 66.1337C200.987 65.6554 201.622 65.4562 202.178 65.4562C203.767 65.4562 204.8 66.7715 204.522 69.8405C201.543 71.1558 196.974 72.6305 192.208 72.6305C181.84 72.6305 174.848 65.6156 174.848 55.2128C174.848 45.2484 182.237 38.0342 191.294 38.0342C201.503 38.0342 206.548 46.0057 206.548 54.0569C206.588 54.9736 206.508 56.1295 206.389 57.3252ZM180.688 52.901H201.066C200.867 47.2014 197.213 42.7772 191.334 42.7772C186.209 42.7374 181.562 46.2847 180.688 52.901ZM233.52 70.2789C230.621 71.6739 227.284 72.5508 223.987 72.5508C217.432 72.5508 213.46 68.6846 213.46 62.2277V33.5702C213.46 32.1353 214.294 31.1388 216.519 31.1388C217.472 31.1388 218.584 31.3381 219.14 31.4976V38.7118H232.051C232.13 39.1901 232.249 40.1466 232.249 40.9837C232.249 43.0164 231.415 43.694 230.184 43.694H219.14V61.7893C219.14 65.6554 220.928 67.5287 224.583 67.5287C227.88 67.5287 229.747 66.0939 231.336 66.0939C233.004 66.1337 233.838 67.5288 233.52 70.2789Z" fill="#6C7993"/>
</svg>
