<svg width="241" height="70" viewBox="0 0 241 95" fill="none" xmlns="http://www.w3.org/2000/svg">
<g clip-path="url(#clip0_729_765)">
<path d="M125.173 68.1254C126.298 68.1254 127.142 67.6994 127.705 66.9898C128.266 66.2788 128.547 65.0008 128.547 63.5817C128.547 62.0202 128.267 60.8846 127.705 60.1736C127.142 59.4641 126.298 59.038 125.174 59.038C124.05 59.038 123.205 59.4641 122.644 60.1736C122.082 60.8846 121.8 62.1627 121.8 63.5817C121.8 65.1433 122.082 66.2788 122.644 66.9898C123.206 67.6994 124.048 68.1254 125.173 68.1254ZM125.173 55.9149C126.298 55.9149 127.283 56.0574 128.126 56.4834C129.005 56.7832 129.783 57.3238 130.375 58.045C131.077 58.7545 131.499 59.4641 131.921 60.4586C132.201 61.4531 132.483 62.4462 132.483 63.5817C132.483 64.7173 132.342 65.8528 131.921 66.7048C131.64 67.6994 131.077 68.4089 130.375 69.1199C129.672 69.8295 128.968 70.2555 128.126 70.6815C127.283 71.1075 126.298 71.2485 125.173 71.2485C124.05 71.2485 123.065 71.1075 122.222 70.6815C121.343 70.3819 120.565 69.8412 119.973 69.1199C119.271 68.4089 118.849 67.6994 118.428 66.7048C118.006 65.7103 117.865 64.7173 117.865 63.5817C117.865 62.4462 118.006 61.3106 118.428 60.4586C118.849 59.4641 119.27 58.7545 119.973 58.045C120.676 57.3355 121.378 56.9095 122.222 56.482C123.065 56.0574 124.048 55.9149 125.173 55.9149ZM104.514 26.9518C104.375 27.2338 104.234 27.3763 104.092 27.3763C103.953 27.5188 103.813 27.5188 103.531 27.5188C103.39 27.5188 103.109 27.3763 102.829 27.2353L101.985 26.8093C101.619 26.6439 101.243 26.5016 100.86 26.3833C100.438 26.2408 100.016 26.0998 99.4547 26.0998C98.4701 26.0998 97.7677 26.3818 97.2063 26.8093C96.7846 27.2353 96.5024 27.8038 96.5024 28.5134C96.5024 28.9394 96.6435 29.3654 96.9242 29.6489C97.2063 29.9324 97.487 30.2174 98.0483 30.3584C98.4701 30.642 99.0329 30.7845 99.5957 30.927C100.157 31.068 100.72 31.353 101.281 31.494C101.844 31.6365 102.407 31.92 102.968 32.205C103.531 32.487 103.953 32.772 104.514 33.1995C104.936 33.6241 105.358 34.1926 105.64 34.7596C105.919 35.3281 106.06 36.0377 106.06 36.8897C106.069 37.8061 105.926 38.7176 105.638 39.5868C105.359 40.4388 104.796 41.1498 104.234 41.7169C103.596 42.3507 102.828 42.8356 101.985 43.1374C101.142 43.4209 100.016 43.7045 98.8918 43.7045C98.1894 43.7045 97.6281 43.7045 96.9242 43.5634C96.2217 43.4209 95.6604 43.2784 95.0976 42.9949L93.4106 42.1429C92.8477 41.8594 92.426 41.4334 92.0042 41.0073L93.2695 39.0183L93.6912 38.5938C93.8323 38.4513 93.9734 38.4512 94.2541 38.4512C94.5347 38.4512 94.8154 38.5938 95.0976 38.7363C95.3782 38.8773 95.6589 39.1623 96.0821 39.3033C96.5024 39.5868 96.9242 39.7293 97.3459 39.8718C97.7677 40.0128 98.4701 40.1553 99.0329 40.1553C100.017 40.1553 100.72 39.8718 101.281 39.4458C101.844 39.0198 102.125 38.3102 102.125 37.4567C102.125 36.8897 101.985 36.4637 101.703 36.1802C101.422 35.8966 101.142 35.6116 100.718 35.3281C100.298 35.0446 99.7353 34.9021 99.174 34.7596C98.6112 34.6186 98.0483 34.4761 97.487 34.1926C96.9242 34.0501 96.3628 33.7666 95.8 33.4816C95.254 33.2014 94.7363 32.8683 94.2541 32.487C93.8323 32.0625 93.4106 31.494 93.2695 30.927C92.9888 30.2159 92.8477 29.5064 92.8477 28.5134C92.8477 27.8023 92.9888 26.9518 93.2695 26.2423C93.5502 25.5313 93.9734 24.8217 94.5347 24.2532C95.0976 23.6862 95.8 23.2587 96.6435 22.8341C97.487 22.5491 98.4701 22.2656 99.5943 22.2656C100.86 22.2656 101.985 22.4081 102.968 22.8341C103.953 23.2602 104.937 23.6862 105.64 24.3957L104.514 26.9518ZM114.911 41.0073C116.035 41.0073 116.879 40.5813 117.44 39.8718C118.003 39.1623 118.284 37.8842 118.284 36.4652C118.284 34.9021 118.003 33.7666 117.44 33.057C116.879 32.3475 116.035 31.9215 114.91 31.9215C113.785 31.9215 112.942 32.3475 112.38 33.057C111.818 33.7666 111.537 35.0446 111.537 36.4652C111.537 38.0267 111.818 39.1623 112.38 39.8718C112.942 40.5813 113.785 41.0073 114.911 41.0073ZM114.911 28.7969C116.035 28.7969 117.018 28.9394 117.862 29.3654C118.74 29.665 119.519 30.2057 120.11 30.927C120.814 31.6365 121.236 32.3475 121.658 33.3405C121.938 34.3351 122.219 35.3296 122.219 36.4652C122.219 37.6007 122.079 38.7362 121.658 39.5883C121.377 40.5828 120.814 41.2923 120.112 42.0019C119.408 42.7114 118.705 43.1374 117.863 43.5634C117.018 43.847 116.035 44.132 114.91 44.132C113.785 44.132 112.802 43.9895 111.959 43.5634C111.08 43.2638 110.302 42.7231 109.71 42.0019C109.006 41.2923 108.585 40.5813 108.163 39.5883C107.741 38.5938 107.602 37.5992 107.602 36.4652C107.602 35.3281 107.741 34.1941 108.163 33.3405C108.585 32.346 109.006 31.6365 109.709 30.927C110.413 30.2174 111.115 29.7914 111.957 29.3654C112.802 28.9394 113.785 28.7969 114.911 28.7969ZM137.543 29.0819L131.78 43.7059H128.266L122.502 29.0819H125.735C126.018 29.0819 126.298 29.0819 126.438 29.2229C126.579 29.3654 126.72 29.5079 126.861 29.7914L129.251 37.0322C129.39 37.4582 129.53 38.0267 129.672 38.4527C129.812 38.8788 129.951 39.4473 129.951 39.8718C130.093 39.4458 130.234 38.8773 130.234 38.4527C130.375 38.0267 130.514 37.4582 130.655 37.0322L133.186 29.7914C133.186 29.6489 133.325 29.3654 133.608 29.2229C133.747 29.0819 134.029 29.0819 134.31 29.0819H137.543ZM147.947 34.6186C147.947 34.1926 147.947 33.7666 147.806 33.483C147.666 33.057 147.525 32.7735 147.245 32.4885C146.963 32.205 146.682 31.9215 146.401 31.779C145.979 31.6365 145.558 31.4955 145.136 31.4955C144.151 31.4955 143.449 31.779 142.888 32.3475C142.325 32.9145 142.044 33.6241 141.903 34.6186H147.947ZM141.903 37.0322C142.044 38.4527 142.466 39.4458 143.027 40.0143C143.73 40.5813 144.573 41.0088 145.558 41.0088C146.119 41.0088 146.542 41.0088 146.963 40.8663C147.384 40.7238 147.666 40.5813 147.947 40.4403L148.791 40.0143C149.071 39.8718 149.212 39.8718 149.493 39.8718C149.774 39.8718 150.056 40.0143 150.195 40.1553L151.321 41.5759C150.899 42.0019 150.478 42.4279 149.915 42.7114C149.352 42.9949 148.932 43.2799 148.369 43.4224L146.682 43.847C146.12 43.9895 145.558 43.9895 145.136 43.9895C144.151 43.9895 143.167 43.847 142.325 43.4209C141.446 43.1214 140.668 42.5806 140.076 41.8594C139.372 41.1498 138.951 40.4403 138.529 39.4458C138.107 38.4512 137.968 37.3172 137.968 36.0391C137.968 35.0446 138.107 34.0501 138.389 33.1995C138.688 32.3479 139.167 31.5727 139.794 30.9284C140.357 30.2159 141.201 29.7914 142.043 29.3654C142.888 28.9394 143.871 28.7969 144.996 28.7969C145.979 28.7969 146.823 28.9394 147.525 29.2229C148.369 29.5079 148.932 29.9339 149.493 30.5009C150.056 31.0695 150.478 31.779 150.758 32.631C151.039 33.483 151.18 34.4761 151.18 35.4706V36.1802C151.18 36.3227 151.039 36.4652 151.039 36.6062C151.039 36.7487 150.899 36.7487 150.758 36.8897H141.903V37.0322ZM157.511 31.4955C157.932 30.6434 158.495 29.9339 159.057 29.5064C159.663 29.0417 160.404 28.7923 161.165 28.7969C161.868 28.7969 162.29 28.9394 162.711 29.2229L162.431 32.0625C162.431 32.205 162.29 32.3475 162.15 32.4885C162.009 32.631 161.868 32.631 161.728 32.631H160.182C159.761 32.631 159.478 32.631 159.198 32.7735C158.917 32.9145 158.635 33.0555 158.495 33.1995C158.213 33.3405 158.074 33.6255 157.932 33.9091C157.766 34.2289 157.625 34.5615 157.511 34.9036V43.847H153.856V29.0819H156.106C156.528 29.0819 156.808 29.2229 156.949 29.3654C157.125 29.5599 157.224 29.8119 157.23 30.0749L157.511 31.4955ZM173.393 34.6186C173.393 34.1926 173.393 33.7666 173.254 33.483C173.113 33.057 172.971 32.7735 172.691 32.4885C172.41 32.205 172.129 31.9215 171.847 31.779C171.426 31.6365 171.004 31.4955 170.582 31.4955C169.599 31.4955 168.896 31.779 168.334 32.3475C167.771 32.9145 167.49 33.6241 167.349 34.6186H173.393ZM167.349 37.0322C167.49 38.4527 167.912 39.4458 168.475 40.0143C169.177 40.5813 170.021 41.0088 171.004 41.0088C171.567 41.0088 171.988 41.0088 172.41 40.8663C172.832 40.7238 173.113 40.5813 173.393 40.4403L174.237 40.0143C174.519 39.8718 174.658 39.8718 174.941 39.8718C175.221 39.8718 175.502 40.0143 175.643 40.1553L176.767 41.5759C176.345 42.0019 175.924 42.4279 175.361 42.7114C174.799 42.9949 174.378 43.2799 173.815 43.4224L172.128 43.847C171.567 43.9895 171.004 43.9895 170.582 43.9895C169.599 43.9895 168.614 43.847 167.771 43.4209C166.892 43.1216 166.114 42.5809 165.522 41.8594C164.82 41.1498 164.398 40.4403 163.977 39.4458C163.555 38.4512 163.414 37.3172 163.414 36.0391C163.414 35.0446 163.555 34.0501 163.835 33.1995C164.134 32.3476 164.614 31.5723 165.242 30.9284C165.803 30.2159 166.647 29.7914 167.49 29.3654C168.334 28.9394 169.317 28.7969 170.442 28.7969C171.425 28.7969 172.269 28.9394 172.971 29.2229C173.815 29.5079 174.378 29.9339 174.941 30.5009C175.502 31.0695 175.924 31.779 176.204 32.631C176.486 33.483 176.626 34.4761 176.626 35.4706V36.1802C176.626 36.3227 176.486 36.4652 176.486 36.6062C176.486 36.7487 176.345 36.7487 176.204 36.8897H167.349V37.0322ZM183.227 43.7045H179.292V29.0804H183.227V43.7045ZM183.79 24.8217C183.79 25.1052 183.79 25.5313 183.649 25.8163C183.508 26.0983 183.368 26.3833 183.086 26.5258C182.805 26.8078 182.664 26.9518 182.243 27.0928C181.962 27.2353 181.681 27.2353 181.259 27.2353C180.979 27.2353 180.697 27.2353 180.416 27.0928C180.135 26.9518 179.853 26.8093 179.714 26.5258C179.431 26.2408 179.292 26.0998 179.151 25.8148C179.01 25.5313 179.01 25.2477 179.01 24.8202C179.01 24.5382 179.01 24.1122 179.151 23.8272C179.292 23.5437 179.431 23.2602 179.714 23.1177C179.994 22.8341 180.135 22.6916 180.416 22.5491C180.697 22.4081 180.979 22.4081 181.259 22.4081C181.54 22.4081 181.962 22.4081 182.243 22.5491C182.525 22.6916 182.805 22.8341 183.086 23.1177C183.368 23.4012 183.508 23.5437 183.649 23.8272C183.649 24.2532 183.79 24.5382 183.79 24.8217ZM192.087 35.8966C192.929 35.8966 193.492 35.7541 193.913 35.3281C194.335 34.9021 194.476 34.3336 194.476 33.7666C194.476 33.057 194.335 32.631 193.913 32.205C193.492 31.779 192.929 31.6365 192.087 31.6365C191.243 31.6365 190.681 31.779 190.259 32.205C189.837 32.631 189.697 33.057 189.697 33.7666C189.697 34.3351 189.837 34.9021 190.259 35.3281C190.681 35.6131 191.243 35.8966 192.087 35.8966ZM195.742 44.273C195.742 43.9909 195.6 43.847 195.459 43.7059C195.32 43.5634 195.038 43.4224 194.757 43.2799C194.476 43.1374 194.194 43.1374 193.772 43.1374C193.351 43.1374 193.07 42.9964 192.648 42.9964H191.383C190.961 42.9964 190.539 42.9964 190.118 42.8539C189.837 42.9964 189.556 43.2799 189.276 43.5634C188.994 43.8484 188.994 44.132 188.994 44.4155C188.994 44.699 188.994 44.8415 189.135 45.125C189.276 45.2675 189.415 45.551 189.697 45.6935C189.978 45.836 190.259 45.977 190.681 45.977C191.102 46.1195 191.665 46.1195 192.226 46.1195C192.929 46.1195 193.351 46.1195 193.913 45.977C194.335 45.836 194.757 45.836 195.038 45.551C195.32 45.2675 195.459 45.2675 195.6 44.984C195.6 44.8415 195.742 44.558 195.742 44.273ZM199.536 29.5079V30.927C199.536 31.2105 199.536 31.353 199.395 31.4955C199.255 31.638 199.114 31.779 198.833 31.779L197.709 32.0625C197.849 32.4885 197.99 33.057 197.99 33.6255C197.99 34.3351 197.849 35.0446 197.568 35.6131C197.271 36.2251 196.838 36.7595 196.303 37.1747C195.74 37.6007 195.179 37.8842 194.476 38.1692C193.772 38.4513 193.07 38.4512 192.226 38.4512C191.665 38.4512 191.243 38.4513 190.822 38.3102C190.4 38.5938 190.259 38.8787 190.259 39.1623C190.259 39.4458 190.4 39.5883 190.681 39.7308C190.961 39.8718 191.243 39.8718 191.805 40.0128C192.226 40.0128 192.789 40.1553 193.351 40.1553C193.913 40.1553 194.476 40.1553 195.038 40.2978C195.6 40.2978 196.162 40.4403 196.725 40.5828C197.287 40.7238 197.849 40.8648 198.271 41.1498C198.692 41.4334 199.114 41.7184 199.395 42.2854C199.677 42.7114 199.816 43.2799 199.816 43.9895C199.816 44.699 199.677 45.2675 199.395 45.836C199.114 46.403 198.553 46.9716 197.99 47.5386C197.427 47.9646 196.584 48.3906 195.742 48.6756C194.898 48.9577 193.913 49.1016 192.789 49.1016C191.665 49.1016 190.681 48.9591 189.837 48.8166C188.994 48.6756 188.291 48.2496 187.728 47.9646C187.167 47.5386 186.745 47.2551 186.464 46.688C186.197 46.2629 186.051 45.7712 186.043 45.2675C186.043 44.558 186.182 43.9909 186.604 43.5634C187.026 43.1374 187.589 42.7114 188.291 42.4279C188.092 42.3666 187.911 42.2569 187.764 42.1083C187.617 41.9597 187.508 41.7769 187.448 41.5759C187.167 41.2923 187.167 40.8663 187.167 40.2993C187.167 39.8718 187.307 39.4458 187.589 38.8787C187.869 38.4527 188.432 38.0267 188.994 37.6007C188.291 37.1747 187.728 36.6062 187.167 36.0391C186.745 35.3281 186.464 34.6186 186.464 33.768C186.464 33.057 186.604 32.3475 186.885 31.779C187.167 31.2105 187.589 30.6434 188.15 30.2174C188.713 29.7914 189.276 29.5079 189.978 29.2229C190.681 28.9409 191.524 28.9409 192.368 28.9409C193.633 28.9409 194.757 29.2229 195.6 29.6489H199.536V29.5079ZM205.158 30.7859L206.002 29.9339C206.282 29.6489 206.704 29.5079 206.985 29.3654C207.407 29.2229 207.689 29.0819 208.11 28.9394C208.532 28.7969 208.954 28.7969 209.376 28.7969C210.218 28.7969 210.922 28.9394 211.483 29.2229C212.046 29.5079 212.609 29.9339 213.03 30.3599C213.451 30.7859 213.733 31.4955 214.013 32.0625C214.294 32.7735 214.294 33.483 214.294 34.3336V43.7059H210.359V34.3336C210.359 33.4816 210.218 32.913 209.797 32.487C209.578 32.26 209.316 32.0801 209.026 31.9582C208.736 31.8362 208.424 31.7748 208.11 31.7775C207.548 31.7775 206.985 31.92 206.564 32.2035C206.143 32.487 205.58 32.772 205.158 33.198V43.7045H201.645V29.0804H204.034C204.456 29.0804 204.878 29.3639 205.017 29.7899L205.158 30.7859ZM107.325 65.7133C107.608 65.7133 107.747 65.8543 107.888 65.9953L109.575 67.8419C108.732 68.8364 107.747 69.6884 106.483 70.257C105.218 70.824 103.812 71.1075 102.125 71.1075C100.579 71.1075 99.174 70.8255 98.0498 70.2555C96.8954 69.7487 95.846 69.0265 94.9565 68.1269C94.113 67.1323 93.4106 66.1378 92.9888 64.7187C92.528 63.3465 92.2907 61.9077 92.2864 60.4586C92.2864 59.4655 92.426 58.471 92.5671 57.478C92.8477 56.4834 93.1299 55.6314 93.5516 54.9219C93.9734 54.2123 94.5362 53.5028 95.0976 52.7918C95.6589 52.2248 96.3613 51.6562 97.0652 51.2302C97.7677 50.8042 98.6112 50.5207 99.4547 50.2357C100.298 49.9537 101.281 49.9537 102.266 49.9537C102.968 49.9537 103.672 49.9537 104.375 50.0947C105.077 50.2372 105.638 50.3782 106.201 50.6632C106.764 50.9452 107.327 51.2302 107.747 51.5152C108.31 51.7973 108.732 52.2248 109.012 52.6508L107.608 54.6384C107.466 54.7809 107.466 54.9219 107.325 54.9219C107.186 55.0644 107.046 55.0644 106.764 55.0644C106.483 55.0644 106.342 54.9219 106.062 54.7809C105.779 54.6384 105.499 54.4959 105.218 54.2123C104.936 54.0698 104.514 53.7863 103.953 53.6438C103.39 53.5028 102.829 53.3603 101.984 53.3603C101.142 53.3603 100.298 53.5028 99.5957 53.7863C98.8918 54.0698 98.3305 54.4959 97.7677 55.2054C97.2063 55.7739 96.9242 56.4834 96.6435 57.3355C96.3628 58.1875 96.2217 59.182 96.2217 60.3176C96.2217 61.4531 96.3628 62.4477 96.6435 63.2997C96.9242 64.1517 97.3459 64.8612 97.9073 65.4283C98.4701 65.9968 99.0329 66.4228 99.7353 66.8488C100.439 67.1323 101.142 67.2748 101.984 67.2748C102.407 67.2748 102.829 67.2748 103.25 67.1323C103.672 67.1323 103.953 66.9898 104.375 66.8488C104.655 66.7063 105.077 66.5653 105.359 66.4228C105.638 66.2803 105.921 65.9968 106.201 65.7133C106.342 65.5708 106.483 65.5708 106.483 65.4283C107.045 65.7133 107.186 65.7133 107.325 65.7133ZM147.669 56.1984V70.8225H145.28C144.719 70.8225 144.436 70.5405 144.295 70.113L144.016 69.1184L143.173 69.972C142.891 70.254 142.469 70.3965 142.188 70.539C141.766 70.6815 141.486 70.8225 141.064 70.965C140.642 71.1075 140.22 71.1075 139.799 71.1075C138.955 71.1075 138.253 70.965 137.69 70.6815C137.12 70.3853 136.599 70.0023 136.144 69.5459C135.722 69.1199 135.442 68.4089 135.159 67.8419C134.88 67.1309 134.88 66.4213 134.88 65.5708V56.1984H138.814V65.5693C138.814 66.4213 138.955 66.9898 139.377 67.4159C139.799 67.8419 140.361 68.1254 141.064 68.1254C141.625 68.1254 142.188 67.9829 142.61 67.6994C143.032 67.4159 143.594 67.1309 144.015 66.7048V56.1984H147.669ZM159.896 60.0341C159.474 59.6066 159.193 59.323 158.772 59.182C158.35 59.0395 157.928 58.897 157.365 58.897C156.943 58.897 156.522 59.0395 156.1 59.182C155.678 59.323 155.398 59.608 155.117 60.0341C154.835 60.4586 154.695 60.8846 154.413 61.4531C154.273 62.0216 154.132 62.7297 154.132 63.5832C154.132 64.4352 154.132 65.1448 154.273 65.7118C154.413 66.2803 154.554 66.7063 154.835 67.1323C155.117 67.4159 155.398 67.7009 155.678 67.8419C155.96 67.9844 156.382 68.1269 156.804 68.1269C157.506 68.1269 158.068 67.9844 158.489 67.7009C158.911 67.4159 159.333 66.9898 159.755 66.5638V60.0326L159.896 60.0341ZM163.69 49.6687V70.824H161.301C160.739 70.824 160.457 70.5405 160.317 70.1145L160.037 68.8364C159.755 69.1199 159.474 69.4049 159.052 69.6884C158.772 69.972 158.35 70.1145 158.068 70.398L156.804 70.824C156.382 70.9665 155.96 70.9665 155.398 70.9665C154.554 70.9665 153.852 70.824 153.289 70.398C152.586 70.1145 152.024 69.5459 151.602 68.9774C151.18 68.4104 150.76 67.5584 150.478 66.5638C150.191 65.5484 150.048 64.4967 150.056 63.4407C150.056 62.3052 150.197 61.3106 150.478 60.4586C150.76 59.4641 151.18 58.756 151.743 58.045C152.306 57.3355 153.008 56.7684 153.711 56.4834C154.413 56.0574 155.398 55.9164 156.241 55.9164C157.085 55.9164 157.646 56.0574 158.209 56.3409C158.772 56.6259 159.193 56.9095 159.615 57.3355V49.8097H163.69V49.6687ZM185.337 54.0698C185.198 54.3534 185.057 54.4959 184.916 54.4959C184.776 54.6384 184.635 54.6384 184.354 54.6384C184.213 54.6384 183.933 54.4959 183.652 54.3534L182.808 53.9273C182.526 53.7863 182.104 53.6453 181.683 53.5013C181.261 53.3603 180.839 53.2193 180.278 53.2193C179.293 53.2193 178.591 53.5013 178.028 53.9273C177.608 54.3534 177.326 54.9219 177.326 55.6314C177.326 56.0574 177.467 56.4834 177.747 56.767C178.028 57.052 178.31 57.3355 178.872 57.478C179.293 57.7615 179.856 57.904 180.419 58.045C180.98 58.1875 181.543 58.471 182.104 58.6135C182.667 58.756 183.23 59.0395 183.791 59.323C184.354 59.6066 184.776 59.8916 185.337 60.3176C185.759 60.7436 186.181 61.3121 186.463 61.8791C186.744 62.4462 186.883 63.1557 186.883 64.0092C186.883 65.0038 186.744 65.8543 186.463 66.7063C186.181 67.5584 185.62 68.2679 185.057 68.8364C184.419 69.4696 183.651 69.954 182.808 70.2555C181.965 70.5405 180.839 70.824 179.715 70.824C179.013 70.824 178.45 70.824 177.747 70.6815C177.045 70.5405 176.482 70.398 175.921 70.1145L174.234 69.2624C173.671 68.9774 173.249 68.5514 172.827 68.1254L174.093 66.1378C174.234 65.9968 174.375 65.8558 174.514 65.7118C174.655 65.5708 174.795 65.5708 175.077 65.5708C175.358 65.5708 175.639 65.7118 175.921 65.8543C176.201 65.9968 176.482 66.2803 176.904 66.4228C177.326 66.7063 177.747 66.8488 178.169 66.9898C178.591 67.1323 179.293 67.2748 179.856 67.2748C180.839 67.2748 181.543 66.9898 182.104 66.5638C182.667 66.1378 182.948 65.4283 182.948 64.5763C182.948 64.0092 182.808 63.5817 182.526 63.2997C182.229 62.9807 181.9 62.6945 181.543 62.4462C181.121 62.1641 180.559 62.0202 179.997 61.8791C179.434 61.7366 178.872 61.5956 178.31 61.3106C177.747 61.1696 177.186 60.8846 176.623 60.6011C176.077 60.3213 175.559 59.9882 175.077 59.6066C174.655 59.182 174.234 58.612 174.093 58.045C173.812 57.3355 173.671 56.6259 173.671 55.6314C173.671 54.9219 173.812 54.0698 174.093 53.3603C174.375 52.6493 174.795 51.9398 175.358 51.3713C175.921 50.8042 176.623 50.3782 177.467 49.9522C178.31 49.6687 179.293 49.3837 180.419 49.3837C181.683 49.3837 182.808 49.5262 183.791 49.9522C184.776 50.3782 185.759 50.8042 186.463 51.5137L185.337 54.0698ZM115.481 49.6672H111.544V70.824H115.48V49.6687L115.481 49.6672ZM193.63 71.1075C192.927 71.1075 192.365 70.965 191.943 70.824C191.381 70.6815 190.96 70.398 190.679 69.972L189.836 68.6939C189.694 68.1254 189.553 67.5584 189.553 66.9898V59.0395H188.149C188.007 59.0395 187.727 59.0395 187.586 58.897C187.446 58.7545 187.305 58.6135 187.305 58.3285V56.767L189.694 56.3409L190.538 52.5083C190.679 52.0823 190.96 51.7973 191.381 51.7973H193.349V56.1999H197.145V58.897H193.349V66.5638C193.349 66.9898 193.49 67.2734 193.63 67.5584C193.771 67.8419 194.052 67.9844 194.473 67.9844H194.895C195.036 67.9844 195.176 67.8419 195.176 67.8419C195.317 67.8419 195.317 67.6994 195.458 67.6994H195.739C195.88 67.6994 195.88 67.6994 196.019 67.8419C196.16 67.8419 196.16 67.9844 196.301 68.1254L197.426 69.972C196.863 70.398 196.301 70.6815 195.598 70.9665C195.036 70.9665 194.332 71.1075 193.63 71.1075ZM206.845 64.7187C205.862 64.7187 205.16 64.8598 204.456 65.0008C203.894 65.1433 203.332 65.2858 202.91 65.4283C202.547 65.543 202.244 65.7981 202.066 66.1378C201.927 66.4213 201.786 66.7048 201.786 66.9898C201.786 67.5569 201.927 67.9844 202.207 68.2664C202.488 68.5514 202.91 68.6939 203.473 68.6939C204.175 68.6939 204.738 68.5514 205.16 68.4089C205.581 68.1254 206.143 67.8419 206.564 67.2734V64.7173L206.845 64.7187ZM198.833 58.1875C199.677 57.4765 200.661 56.767 201.645 56.482C202.629 56.0574 203.753 55.9149 205.019 55.9149C205.862 55.9149 206.706 56.0574 207.267 56.3409C207.83 56.6245 208.532 57.0505 208.954 57.4765C209.376 58.045 209.797 58.612 210.078 59.323C210.36 60.0326 210.5 60.7421 210.5 61.5941V70.8225H208.673C208.251 70.8225 207.971 70.8225 207.83 70.6815C207.689 70.539 207.549 70.3965 207.408 69.9705L207.127 68.9759C206.706 69.2609 206.425 69.5445 206.003 69.8295C205.721 70.113 205.299 70.2555 204.877 70.3965C204.456 70.539 204.175 70.6815 203.753 70.8225C203.332 70.965 202.91 70.965 202.348 70.965C201.645 70.965 201.083 70.8225 200.661 70.6815C200.099 70.539 199.677 70.2555 199.255 69.9705C198.833 69.6884 198.553 69.2609 198.412 68.6939C198.272 68.1254 198.131 67.5569 198.131 66.9898C198.131 66.4213 198.272 65.8528 198.553 65.4283C198.833 64.8598 199.255 64.4337 199.959 64.0077C200.787 63.494 201.687 63.111 202.629 62.8722C203.753 62.5872 205.16 62.4462 206.845 62.4462V61.7366C206.845 60.8846 206.706 60.1736 206.284 59.7476C206.064 59.5205 205.802 59.3406 205.512 59.2187C205.222 59.0968 204.911 59.0353 204.597 59.038C204.034 59.038 203.614 59.038 203.192 59.1805C202.853 59.2963 202.524 59.4388 202.207 59.6066C201.927 59.7491 201.645 59.8901 201.505 60.0326C201.223 60.1751 200.942 60.1751 200.661 60.1751C200.381 60.1751 200.099 60.1751 199.959 60.0326C199.818 59.8909 199.678 59.7489 199.537 59.6066L198.833 58.1875ZM224.134 59.4641L223.853 59.7476C223.712 59.8901 223.573 59.8901 223.432 59.8901C223.29 59.8901 223.01 59.8901 222.869 59.7476C222.729 59.6066 222.447 59.4641 222.307 59.3216C222.027 59.1805 221.745 59.0395 221.464 58.8955C221.183 58.7545 220.761 58.7545 220.34 58.7545C219.777 58.7545 219.216 58.8955 218.794 59.038C218.372 59.3216 217.95 59.6066 217.668 59.8901C217.387 60.3161 217.246 60.7421 217.107 61.3091C216.966 61.8777 216.966 62.5872 216.966 63.2982C216.966 64.8598 217.246 65.9953 217.809 66.7048C218.372 67.5569 219.216 67.8404 220.199 67.8404C220.62 67.8404 220.901 67.8404 221.183 67.6994C221.464 67.6994 221.605 67.5569 221.886 67.4159C222.027 67.2734 222.307 67.2734 222.447 67.1309C222.588 66.9884 222.729 66.8473 222.869 66.8473C223.01 66.7048 223.151 66.7048 223.29 66.5638C223.432 66.5638 223.573 66.4213 223.712 66.4213C223.994 66.4213 224.275 66.5638 224.416 66.7048L225.54 68.1254C225.119 68.5514 224.697 68.9774 224.275 69.2609C223.853 69.5445 223.29 69.8295 222.869 69.9705C222.307 70.113 221.886 70.2555 221.323 70.3965C220.761 70.539 220.34 70.539 219.777 70.539C218.933 70.539 218.09 70.3965 217.246 69.9705C216.403 69.687 215.7 69.1184 215.139 68.5514C214.576 67.8404 214.013 67.1309 213.733 66.1378C213.311 65.1433 213.17 64.1488 213.17 62.8722C213.17 61.7352 213.311 60.7421 213.592 59.8901C213.874 59.038 214.296 58.186 214.998 57.4765C215.561 56.767 216.403 56.3409 217.246 55.9149C218.09 55.4889 219.215 55.3464 220.34 55.3464C221.464 55.3464 222.447 55.4889 223.29 55.9149C224.134 56.3409 224.838 56.767 225.54 57.4765L224.134 59.4641ZM231.158 49.6672V61.7366H231.861C232.143 61.7366 232.282 61.7366 232.423 61.5956C232.565 61.4531 232.704 61.4531 232.845 61.1696L236.078 56.9095C236.189 56.6554 236.389 56.4525 236.641 56.3409C236.781 56.1999 237.063 56.1999 237.343 56.1999H240.857L236.641 61.5956C236.359 62.0216 235.937 62.4462 235.515 62.5902C235.767 62.7014 235.967 62.9037 236.078 63.1572C236.219 63.2997 236.359 63.5832 236.5 63.8667L240.998 70.9665H237.484C237.202 70.9665 236.922 70.9665 236.641 70.824C236.389 70.7124 236.189 70.5095 236.078 70.2555L232.845 64.8612C232.704 64.5762 232.565 64.4352 232.423 64.4352C232.282 64.4352 232.002 64.2927 231.721 64.2927H231.158V70.9665H227.223V49.8112H231.158V49.6672ZM80.7625 23.2602C79.7779 22.6916 78.0924 22.6916 75.7015 22.6916H30.8652C30.3024 22.6916 29.741 22.6916 29.0371 22.8341C28.1113 22.9875 27.2121 23.2744 26.367 23.6862C25.5235 24.1122 24.9607 24.6807 24.2583 25.2477L3.03262 46.8291C-1.0438 51.0892 -0.764595 53.9273 2.75195 54.9219C3.73652 55.2054 4.85923 55.0644 6.40515 55.0644H51.6661C52.7903 55.0644 53.7749 54.9219 54.7595 54.4959C55.7426 54.0698 57.0078 53.2193 57.4296 52.9343L61.506 48.8166H9.91876L28.6124 29.9324C28.8946 29.6489 29.1752 29.5064 29.3163 29.3654C29.5955 29.2229 29.5955 29.2229 29.7381 29.2229C29.8777 29.2229 30.2994 29.0804 31.0019 29.0804H72.3289L66.9873 34.4761H75.8425L79.3561 30.927C81.747 28.3709 83.7147 24.8217 80.7625 23.2602Z" fill="#6C7993"/>
<path d="M1.48433 70.2569C2.4689 70.8254 4.1559 70.8254 6.54533 70.8254H51.2435C51.8063 70.8254 52.3677 70.8254 53.0716 70.6829C53.9974 70.5294 54.8966 70.2425 55.7417 69.8308C56.5852 69.4048 57.1465 68.8363 57.8504 68.2693L79.2156 46.6879C83.2921 42.4278 83.0099 39.5897 79.4963 38.5951C78.5117 38.4526 77.3876 38.4526 75.8417 38.4526H30.5807C29.4565 38.4526 28.4734 38.5951 27.4888 39.0212C26.5042 39.4472 25.2405 40.2977 24.8187 40.5827L20.7423 44.7004H72.328L53.6329 63.5846C53.3522 63.8666 53.0716 64.0106 52.9305 64.1516C52.6498 64.2941 52.6498 64.2941 52.5087 64.2941C52.3677 64.2941 51.9459 64.4366 51.245 64.4366H9.91933L15.2595 59.0409H6.40426L2.89212 62.5901C0.499756 65.2872 -1.46792 68.6953 1.48433 70.2569Z" fill="#6C7993"/>
</g>
<defs>
<clipPath id="clip0_729_765">
<rect width="241" height="95" fill="white"/>
</clipPath>
</defs>
</svg>
