<svg width="520" height="83" viewBox="0 0 520 83" fill="none" xmlns="http://www.w3.org/2000/svg">
<path fill-rule="evenodd" clip-rule="evenodd" d="M59.0631 58.9757C52.6955 65.3432 45.9382 70.8661 39.2457 75.2844C40.0254 75.3494 40.8051 75.3494 41.5848 75.3494C60.2976 75.3494 75.4368 60.2102 75.4368 41.4974C75.4368 40.7177 75.4368 39.938 75.3718 39.1583C70.9535 45.8507 65.4306 52.6081 59.0631 58.9757ZM79.5318 3.52505C74.3158 -1.6936 63.623 -0.323703 50.1918 7.43904C49.8006 7.63474 49.5398 8.02614 49.4746 8.41753C48.4314 8.1566 47.3882 7.9609 46.345 7.83044C44.7802 7.63474 43.2154 7.50427 41.5854 7.50427C22.8079 7.50427 7.61628 22.7036 7.61628 41.4907C7.61628 43.1216 7.74668 44.6872 7.94228 46.2527C8.07268 47.2965 8.26828 48.3402 8.52908 49.3839C8.13788 49.5144 7.74668 49.7753 7.55108 50.1015C-0.207716 63.5395 -1.64212 74.2378 3.63908 79.4564C5.72548 81.5439 8.65948 82.5876 12.3107 82.5876C17.8527 82.5876 24.8943 80.2392 32.9791 75.5424C40.9334 70.9109 49.2138 64.4528 56.9074 56.7553C64.5358 49.123 71.0558 40.8384 75.685 32.8147C83.3786 19.4419 84.813 8.7437 79.5318 3.52505ZM72.7237 31.0058C68.2192 38.7717 61.9522 46.8639 54.4447 54.3035C46.9373 61.8084 38.9076 68.0734 31.1391 72.5763C19.3883 79.3633 9.66133 81.0601 5.61385 77.014C1.76222 73.0984 3.19842 63.8967 9.33493 52.7373C9.7919 54.0425 10.3142 55.2824 10.967 56.5224C14.2311 63.0484 19.5842 68.3997 26.1124 71.6627C27.2222 71.0753 28.3973 70.488 29.5723 69.8354C37.0798 65.5282 44.9136 59.3286 52.1599 52.0847C59.4715 44.7756 65.608 37.0097 69.9166 29.5048C70.6347 28.3301 71.2222 27.1555 71.7445 26.046C68.4804 19.5201 63.1272 14.1688 56.5991 10.9058C55.3587 10.3184 54.1183 9.73109 52.8127 9.27427C63.9759 3.13984 73.1807 1.63887 77.0976 5.55446C81.1451 9.53531 79.4477 19.3243 72.7237 31.0058Z" fill="#6C7993"/>
<path fill-rule="evenodd" clip-rule="evenodd" d="M107.281 68.8168C104.328 68.8168 101.387 68.2747 98.4577 67.1906C95.5282 66.1065 92.9102 64.4803 90.6035 62.312L96.4163 55.3228C98.031 56.7068 99.8186 57.8371 101.779 58.7136C103.74 59.5901 105.666 60.0284 107.558 60.0284C109.68 60.0284 111.26 59.6363 112.298 58.852C113.336 58.0677 113.855 57.0067 113.855 55.6688C113.855 54.9768 113.705 54.3771 113.405 53.8696C113.105 53.3621 112.667 52.9123 112.09 52.5202C111.513 52.1281 110.821 51.759 110.014 51.413L107.35 50.2712L101.468 47.78C100.315 47.3187 99.1959 46.7189 98.1117 45.9808C97.0276 45.2427 96.0588 44.3777 95.2053 43.3858C94.3518 42.3939 93.6714 41.2406 93.1639 39.9258C92.6564 38.611 92.4027 37.1232 92.4027 35.4624C92.4027 33.6171 92.7948 31.8755 93.5791 30.2378C94.3634 28.6001 95.4706 27.1699 96.9007 25.9474C98.3309 24.7249 100.026 23.7676 101.987 23.0756C103.948 22.3836 106.104 22.0376 108.457 22.0376C111.087 22.0376 113.682 22.5451 116.242 23.56C118.803 24.5749 121.052 26.0512 122.989 27.9888L117.799 34.4244C116.323 33.2711 114.847 32.383 113.37 31.7602C111.894 31.1374 110.256 30.826 108.457 30.826C106.704 30.826 105.309 31.1835 104.271 31.8986C103.233 32.6137 102.714 33.6171 102.714 34.9088C102.714 35.6008 102.887 36.189 103.233 36.6734C103.579 37.1578 104.063 37.5961 104.686 37.9882C105.309 38.3803 106.035 38.7494 106.866 39.0954C107.696 39.4414 108.596 39.822 109.564 40.2372L115.377 42.59C118.145 43.6972 120.325 45.2196 121.917 47.1572C123.508 49.0948 124.304 51.6552 124.304 54.8384C124.304 56.7299 123.923 58.5175 123.162 60.2014C122.401 61.8853 121.294 63.3615 119.841 64.6302C118.387 65.8989 116.6 66.9138 114.478 67.675C112.355 68.4362 109.956 68.8168 107.281 68.8168ZM149.77 68.8168C143.911 68.8168 139.436 67.0868 136.345 63.6268C133.254 60.1668 131.708 54.6539 131.708 47.088V22.868H141.95V48.126C141.95 52.5548 142.619 55.6457 143.957 57.3988C145.295 59.1519 147.232 60.0284 149.77 60.0284C152.307 60.0284 154.268 59.1519 155.652 57.3988C157.036 55.6457 157.728 52.5548 157.728 48.126V22.868H167.554V47.088C167.554 54.6539 166.043 60.1668 163.021 63.6268C160 67.0868 155.582 68.8168 149.77 68.8168ZM178.003 67.9864V22.868H193.504C195.995 22.868 198.325 23.1102 200.493 23.5946C202.661 24.079 204.553 24.8863 206.168 26.0166C207.782 27.1469 209.062 28.6462 210.008 30.5146C210.954 32.383 211.427 34.6781 211.427 37.4C211.427 40.0296 210.954 42.3132 210.008 44.2508C209.062 46.1884 207.782 47.78 206.168 49.0256C204.553 50.2712 202.684 51.1939 200.562 51.7936C198.44 52.3933 196.18 52.6932 193.781 52.6932H188.176V67.9864H178.003ZM188.176 44.5968H193.158C198.694 44.5968 201.462 42.1979 201.462 37.4C201.462 35.0472 200.724 33.3864 199.248 32.4176C197.771 31.4488 195.649 30.9644 192.881 30.9644H188.176V44.5968ZM219.246 67.9864V22.868H247.48V31.4488H229.419V40.514H244.781V49.0256H229.419V59.4056H248.172V67.9864H219.246ZM257.168 67.9864V22.868H273.43C275.829 22.868 278.078 23.0987 280.177 23.56C282.276 24.0213 284.11 24.7941 285.678 25.8782C287.247 26.9623 288.492 28.404 289.415 30.2032C290.338 32.0024 290.799 34.2399 290.799 36.9156C290.799 40.2372 290.073 42.9706 288.619 45.1158C287.166 47.261 285.217 48.8641 282.772 49.9252L293.013 67.9864H281.596L272.946 51.7244H267.34V67.9864H257.168ZM267.34 43.628H272.6C275.275 43.628 277.317 43.0629 278.724 41.9326C280.131 40.8023 280.834 39.13 280.834 36.9156C280.834 34.7012 280.131 33.1557 278.724 32.2792C277.317 31.4027 275.275 30.9644 272.6 30.9644H267.34V43.628Z" fill="#6C7993"/>
<path fill-rule="evenodd" clip-rule="evenodd" d="M315.096 69.3012C312.539 69.3012 310.178 68.7361 308.011 67.6058C305.845 66.4755 303.982 64.8724 302.422 62.7964C300.862 60.7204 299.649 58.2177 298.782 55.2882C297.916 52.3587 297.482 49.0948 297.482 45.4964C297.482 41.898 297.916 38.6571 298.782 35.7738C299.649 32.8904 300.862 30.4223 302.422 28.3694C303.982 26.3165 305.845 24.7479 308.011 23.6638C310.178 22.5797 312.539 22.0376 315.096 22.0376C317.695 22.0376 320.078 22.5797 322.245 23.6638C324.411 24.7479 326.274 26.3165 327.834 28.3694C329.394 30.4223 330.607 32.8904 331.474 35.7738C332.34 38.6571 332.774 41.898 332.774 45.4964C332.774 49.0948 332.34 52.3587 331.474 55.2882C330.607 58.2177 329.394 60.7204 327.834 62.7964C326.274 64.8724 324.411 66.4755 322.245 67.6058C320.078 68.7361 317.695 69.3012 315.096 69.3012ZM315.096 66.3948C317.262 66.3948 319.233 65.8989 321.01 64.907C322.786 63.9151 324.314 62.5081 325.592 60.6858C326.87 58.8635 327.856 56.6722 328.549 54.1118C329.242 51.5514 329.589 48.6796 329.589 45.4964C329.589 42.3593 329.242 39.5221 328.549 36.9848C327.856 34.4475 326.87 32.2907 325.592 30.5146C324.314 28.7385 322.786 27.366 321.01 26.3972C319.233 25.4284 317.262 24.944 315.096 24.944C312.929 24.944 310.947 25.4284 309.149 26.3972C307.351 27.366 305.823 28.7385 304.567 30.5146C303.31 32.2907 302.335 34.4475 301.642 36.9848C300.949 39.5221 300.602 42.3593 300.602 45.4964C300.602 48.6796 300.949 51.5514 301.642 54.1118C302.335 56.6722 303.31 58.8635 304.567 60.6858C305.823 62.5081 307.351 63.9151 309.149 64.907C310.947 65.8989 312.929 66.3948 315.096 66.3948ZM342.588 68.4708V22.868H354.871C356.995 22.868 358.923 23.0871 360.656 23.5254C362.389 23.9637 363.862 24.6672 365.075 25.636C366.289 26.6048 367.231 27.8504 367.903 29.3728C368.574 30.8952 368.91 32.7405 368.91 34.9088C368.91 38.5533 367.924 41.4136 365.953 43.4896C363.981 45.5656 361.306 46.8343 357.926 47.2956L369.755 68.4708H366.31L354.676 47.5032H345.577V68.4708H342.588ZM345.577 44.8736H354.091C357.904 44.8736 360.818 44.0547 362.833 42.417C364.848 40.7793 365.855 38.2765 365.855 34.9088C365.855 31.4949 364.837 29.0845 362.801 27.6774C360.764 26.2703 357.861 25.5668 354.091 25.5668H345.577V44.8736ZM377.944 68.4708V22.868H389.513C393.846 22.868 397.29 23.7561 399.847 25.5322C402.403 27.3083 403.681 30.1109 403.681 33.94C403.681 36.3389 403.118 38.4265 401.991 40.2026C400.865 41.9787 399.218 43.2128 397.052 43.9048V44.1816C399.825 44.6891 402.056 45.8539 403.746 47.6762C405.436 49.4985 406.281 52.0012 406.281 55.1844C406.281 57.3988 405.902 59.3364 405.144 60.9972C404.385 62.658 403.313 64.042 401.926 65.1492C400.54 66.2564 398.872 67.0868 396.922 67.6404C394.972 68.194 392.784 68.4708 390.358 68.4708H377.944ZM380.934 42.936H388.343C392.719 42.936 395.871 42.1633 397.799 40.6178C399.728 39.0723 400.692 36.9617 400.692 34.286C400.692 31.0566 399.673 28.7846 397.637 27.4698C395.6 26.155 392.611 25.4976 388.668 25.4976H380.934V42.936ZM380.934 65.8412H389.578C393.867 65.8412 397.236 64.9877 399.684 63.2808C402.132 61.5739 403.356 58.8981 403.356 55.2536C403.356 51.932 402.165 49.4869 399.782 47.9184C397.399 46.3499 393.997 45.5656 389.578 45.5656H380.934V65.8412ZM415.51 68.4708V22.868H418.5V68.4708H415.51ZM440.337 68.4708V25.636H426.689V22.868H456.976V25.636H443.327V68.4708H440.337ZM468.479 41.6212L465.75 50.1328H480.958L478.228 41.6212C477.362 38.8993 476.539 36.2928 475.759 33.8016C474.979 31.3104 474.221 28.6577 473.484 25.8436H473.224C472.487 28.6577 471.729 31.3104 470.949 33.8016C470.169 36.2928 469.346 38.8993 468.479 41.6212ZM456.781 68.4708L471.859 22.868H474.849L489.927 68.4708H486.808L481.803 52.8316H464.84L459.77 68.4708H456.781ZM496.751 68.4708V22.868H499.741V65.7028H519.499V68.4708H496.751Z" fill="#6C7993"/>
</svg>
