<?xml version="1.0" encoding="UTF-8" standalone="no"?>
<svg
   id="Ebene_1"
   data-name="Ebene 1"
   viewBox="0 1 250 97.96"
   version="1.1"
   xmlns="http://www.w3.org/2000/svg"
   xmlns:svg="http://www.w3.org/2000/svg">
  <defs
     id="defs1">
    <!-- <style
       id="style1">.cls-1{fill:#afca0b;}.cls-2,.cls-4{fill:none;stroke-width:1.52px;}.cls-2{stroke:#afca0b;}.cls-3{fill:#1d1d1b;}.cls-4{stroke:#1d1d1b;}</style> -->
  </defs>
  <path
     class="cls-1"
     d="m 55.738322,46.512161 c 0,6.769777 6.048034,7.811776 10.40613,9.416584 2.508256,0.913357 4.389449,1.997164 4.389449,4.341662 0,2.775448 -1.649179,4.206589 -5.584006,4.206589 -3.934828,0 -7.951174,-1.344308 -7.951174,-1.344308 a 7.9010081,8.1044367 0 0 0 -1.269805,4.42528 c 0,0 3.636972,1.910332 9.43418,1.910332 7.233185,0 10.914052,-3.299664 10.914052,-9.326535 0,-5.554112 -3.80628,-7.634894 -7.615694,-9.06925 -3.680867,-1.344308 -7.358598,-2.080782 -7.358598,-4.82407 0,-2.820473 1.943899,-4.209805 6.048034,-4.209805 a 21.730907,22.290417 0 0 1 6.301994,0.964814 c 0.975085,-1.087023 1.439112,-2.820472 1.439112,-4.341662 0,0 -3.257598,-1.286419 -8.502989,-1.286419 -7.189291,0 -10.660091,3.688805 -10.660091,9.152868"
     id="path1"
     style="fill:#6c7993;fill-opacity:1;stroke-width:0.317543" />
  <path
     class="cls-2"
     d="m 55.738322,46.512161 c 0,6.769777 6.048034,7.811776 10.40613,9.416584 2.508256,0.913357 4.389449,1.997164 4.389449,4.341662 0,2.775448 -1.649179,4.206589 -5.584006,4.206589 -3.934828,0 -7.951174,-1.344308 -7.951174,-1.344308 a 7.9010081,8.1044367 0 0 0 -1.269805,4.42528 c 0,0 3.636972,1.910332 9.43418,1.910332 7.233185,0 10.914052,-3.299664 10.914052,-9.326535 0,-5.554112 -3.80628,-7.634894 -7.615694,-9.06925 -3.680867,-1.344308 -7.358598,-2.080782 -7.358598,-4.82407 0,-2.820473 1.943899,-4.209805 6.048034,-4.209805 a 21.730907,22.290417 0 0 1 6.301994,0.964814 c 0.975085,-1.087023 1.439112,-2.820472 1.439112,-4.341662 0,0 -3.257598,-1.286419 -8.502989,-1.286419 -7.189291,0 -10.660091,3.688805 -10.660091,9.152868 z"
     id="path2"
     style="fill:#6c7993;fill-opacity:1;stroke:#6c7993;stroke-opacity:1" />
  <path
     class="cls-1"
     d="m 99.181324,46.557186 a 8.2929231,8.5064425 0 0 0 -2.508255,-0.347333 c -1.733832,0 -2.580369,0.347333 -2.580369,0.347333 l -3.414364,11.629223 a 53.012002,54.376911 0 0 0 -1.354459,5.467279 H 89.15457 A 38.319889,39.306518 0 0 0 87.674699,58.186409 L 83.699112,46.557186 a 8.8321983,9.0596025 0 0 0 -2.749676,-0.347333 9.5156982,9.7607006 0 0 0 -2.749676,0.347333 c 0,0 8.289787,23.644372 8.593914,24.580242 -1.272941,3.791718 -2.037959,4.232317 -4.110406,4.232317 a 14.676436,15.054313 0 0 1 -1.947034,-0.173667 6.2047996,6.3645557 0 0 0 -0.379374,2.170831 5.6435772,5.7888834 0 0 0 0.379374,2.038974 6.2047996,6.3645557 0 0 0 2.454956,0.475975 c 5.330045,0 6.897706,-2.99414 8.543749,-8.361721 L 99.181324,46.57005 Z"
     id="path3"
     style="fill:#6c7993;fill-opacity:1;stroke-width:0.317543" />
  <path
     class="cls-2"
     d="m 99.181324,46.557186 a 8.2929231,8.5064425 0 0 0 -2.508255,-0.347333 c -1.733832,0 -2.580369,0.347333 -2.580369,0.347333 l -3.414364,11.629223 a 53.012002,54.376911 0 0 0 -1.354459,5.467279 H 89.15457 A 38.319889,39.306518 0 0 0 87.674699,58.186409 L 83.699112,46.557186 a 8.8321983,9.0596025 0 0 0 -2.749676,-0.347333 9.5156982,9.7607006 0 0 0 -2.749676,0.347333 c 0,0 8.289787,23.644372 8.593914,24.580242 -1.272941,3.791718 -2.037959,4.232317 -4.110406,4.232317 a 14.676436,15.054313 0 0 1 -1.947034,-0.173667 6.2047996,6.3645557 0 0 0 -0.379374,2.170831 5.6435772,5.7888834 0 0 0 0.379374,2.038974 6.2047996,6.3645557 0 0 0 2.454956,0.475975 c 5.330045,0 6.897706,-2.99414 8.543749,-8.361721 L 99.181324,46.57005 Z"
     id="path4"
     style="fill:#6c7993;fill-opacity:1;stroke:#6c7993;stroke-opacity:1" />
  <path
     class="cls-1"
     d="m 102.81829,52.799531 c 0,4.470305 3.09143,5.682754 5.88186,6.551087 2.28565,0.694666 4.3581,1.170641 4.3581,3.039164 0,1.608023 -1.01584,2.428115 -3.30149,2.428115 a 18.498392,18.974673 0 0 1 -5.6279,-1.035567 c -0.97195,0.964814 -1.43911,2.431331 -1.43911,4.036138 0,0 2.70578,1.649832 7.31783,1.649832 5.54325,0 8.29293,-2.601782 8.29293,-7.203944 0,-4.077947 -2.50826,-5.595921 -5.03533,-6.509278 -2.66502,-0.964814 -5.37394,-1.257474 -5.37394,-3.122781 0,-1.562998 1.18515,-2.431331 3.64011,-2.431331 a 14.968021,15.353405 0 0 1 4.3142,0.694666 c 0.9406,-0.910141 1.35446,-2.47314 1.35446,-3.859256 0,0 -1.69307,-1.26069 -6.21734,-1.26069 -5.54325,0 -8.16751,2.820473 -8.16751,7.030278"
     id="path5"
     style="fill:#6c7993;fill-opacity:1;stroke-width:0.317543" />
  <path
     class="cls-2"
     d="m 102.81829,52.799531 c 0,4.470305 3.09143,5.682754 5.88186,6.551087 2.28565,0.694666 4.3581,1.170641 4.3581,3.039164 0,1.608023 -1.01584,2.428115 -3.30149,2.428115 a 18.498392,18.974673 0 0 1 -5.6279,-1.035567 c -0.97195,0.964814 -1.43911,2.431331 -1.43911,4.036138 0,0 2.70578,1.649832 7.31783,1.649832 5.54325,0 8.29293,-2.601782 8.29293,-7.203944 0,-4.077947 -2.50826,-5.595921 -5.03533,-6.509278 -2.66502,-0.964814 -5.37394,-1.257474 -5.37394,-3.122781 0,-1.562998 1.18515,-2.431331 3.64011,-2.431331 a 14.968021,15.353405 0 0 1 4.3142,0.694666 c 0.9406,-0.910141 1.35446,-2.47314 1.35446,-3.859256 0,0 -1.69307,-1.26069 -6.21734,-1.26069 -5.54325,0 -8.16751,2.820473 -8.16751,7.030278 z"
     id="path6"
     style="fill:#6c7993;fill-opacity:1;stroke:#6c7993;stroke-opacity:1" />
  <path
     class="cls-3"
     d="m 124.35168,37.793459 v 31.240674 h 18.73981 a 5.8818616,6.0333029 0 0 0 0.42327,-2.299473 6.0887927,6.245562 0 0 0 -0.42327,-2.170831 h -13.32512 v -9.069251 h 10.78551 a 5.8222905,5.972198 0 0 0 0.42327,-2.299473 6.0731161,6.2294817 0 0 0 -0.42327,-2.167615 h -10.78551 v -8.766942 h 12.90185 a 6.1640404,6.3227471 0 0 0 0.42327,-2.386307 5.4335107,5.5734083 0 0 0 -0.42327,-2.080782 z"
     id="path7"
     style="fill:#6c7993;fill-opacity:1;stroke-width:0.317543" />
  <path
     class="cls-4"
     d="m 124.35168,37.793459 v 31.240674 h 18.73981 a 5.8818616,6.0333029 0 0 0 0.42327,-2.299473 6.0887927,6.245562 0 0 0 -0.42327,-2.170831 h -13.32512 v -9.069251 h 10.78551 a 5.8222905,5.972198 0 0 0 0.42327,-2.299473 6.0731161,6.2294817 0 0 0 -0.42327,-2.167615 h -10.78551 v -8.766942 h 12.90185 a 6.1640404,6.3227471 0 0 0 0.42327,-2.386307 5.4335107,5.5734083 0 0 0 -0.42327,-2.080782 z"
     id="path8"
     style="fill:#6c7993;fill-opacity:1;stroke:#6c7993;stroke-opacity:1" />
  <path
     class="cls-3"
     d="m 154.63887,36.838294 a 8.5343428,8.7540781 0 0 0 -2.66502,-0.347333 c -1.86238,0 -2.66502,0.347333 -2.66502,0.347333 v 31.838858 c 0,0 0.80264,0.347333 2.66502,0.347333 a 8.5343428,8.7540781 0 0 0 2.66502,-0.347333 z"
     id="path9"
     style="fill:#6c7993;fill-opacity:1;stroke-width:0.317543" />
  <path
     class="cls-4"
     d="m 154.63887,36.838294 a 8.5343428,8.7540781 0 0 0 -2.66502,-0.347333 c -1.86238,0 -2.66502,0.347333 -2.66502,0.347333 v 31.838858 c 0,0 0.80264,0.347333 2.66502,0.347333 a 8.5343428,8.7540781 0 0 0 2.66502,-0.347333 z"
     id="path10"
     style="fill:#6c7993;fill-opacity:1;stroke:#6c7993;stroke-opacity:1" />
  <path
     class="cls-3"
     d="m 178.96269,54.758104 c 0,-6.203754 -3.4269,-8.982418 -8.6723,-8.982418 -5.83796,0 -9.64424,3.515139 -9.64424,11.716057 0,7.853585 3.04439,11.976557 9.9421,11.976557 4.70298,0 7.19242,-1.778474 7.19242,-1.778474 a 5.6435772,5.7888834 0 0 0 -1.60841,-3.859256 11.559927,11.857563 0 0 1 -4.82213,1.041999 c -2.96288,0 -4.86602,-1.128832 -5.24539,-5.554112 h 12.39392 a 18.877766,19.363815 0 0 0 0.46403,-4.557137 m -5.28929,-0.64321 c 0,0.479191 -0.0408,0.964814 -0.0815,1.434357 h -7.44639 c 0.37624,-4.039354 1.98779,-5.525167 4.13862,-5.525167 2.66503,0 3.38301,1.823498 3.38301,4.077946"
     id="path11"
     style="fill:#6c7993;fill-opacity:1;stroke-width:0.317543" />
  <path
     class="cls-4"
     d="m 178.96269,54.758104 c 0,-6.203754 -3.4269,-8.982418 -8.6723,-8.982418 -5.83796,0 -9.64424,3.515139 -9.64424,11.716057 0,7.853585 3.04439,11.976557 9.9421,11.976557 4.70298,0 7.19242,-1.778474 7.19242,-1.778474 a 5.6435772,5.7888834 0 0 0 -1.60841,-3.859256 11.559927,11.857563 0 0 1 -4.82213,1.041999 c -2.96288,0 -4.86602,-1.128832 -5.24539,-5.554112 h 12.39392 a 18.877766,19.363815 0 0 0 0.46403,-4.557137 z m -5.28929,-0.64321 c 0,0.479191 -0.0408,0.964814 -0.0815,1.434357 h -7.44639 c 0.37624,-4.036138 1.98779,-5.521951 4.13862,-5.521951 2.66503,0 3.38301,1.823498 3.38301,4.077946 z"
     id="path12"
     style="fill:#6c7993;fill-opacity:1;stroke:#6c7993;stroke-opacity:1" />
  <path
     class="cls-3"
     d="m 187.71964,46.557186 c 0,0 -0.88729,-0.347333 -2.74967,-0.347333 a 9.5156982,9.7607006 0 0 0 -2.74968,0.347333 l 7.18929,22.129614 a 14.061913,14.423968 0 0 0 3.29836,0.347333 15.501025,15.900133 0 0 0 3.30149,-0.347333 l 7.01998,-22.129614 c 0,0 -0.80264,-0.347333 -2.45182,-0.347333 a 7.3711389,7.5609249 0 0 0 -2.41106,0.347333 l -3.93483,12.54258 c -0.80577,2.572837 -1.31056,4.904471 -1.31056,4.904471 h -0.16931 a 38.592662,39.586314 0 0 0 -1.14753,-4.862662 l -3.89093,-12.584389 z"
     id="path13"
     style="fill:#6c7993;fill-opacity:1;stroke-width:0.317543" />
  <path
     class="cls-4"
     d="m 187.71964,46.557186 c 0,0 -0.88729,-0.347333 -2.74967,-0.347333 a 9.5156982,9.7607006 0 0 0 -2.74968,0.347333 l 7.18929,22.129614 a 14.061913,14.423968 0 0 0 3.29836,0.347333 15.501025,15.900133 0 0 0 3.30149,-0.347333 l 7.01998,-22.129614 c 0,0 -0.80264,-0.347333 -2.45182,-0.347333 a 7.3711389,7.5609249 0 0 0 -2.41106,0.347333 l -3.93483,12.54258 c -0.80577,2.572837 -1.31056,4.904471 -1.31056,4.904471 h -0.16931 a 38.592662,39.586314 0 0 0 -1.14753,-4.862662 l -3.89093,-12.584389 z"
     id="path14"
     style="fill:#6c7993;fill-opacity:1;stroke:#6c7993;stroke-opacity:1" />
  <path
     class="cls-3"
     d="m 224.69134,54.758104 c 0,-6.203754 -3.42377,-8.982418 -8.67229,-8.982418 -5.83484,0 -9.64425,3.515139 -9.64425,11.716057 0,7.853585 3.04753,11.976557 9.9421,11.976557 4.70298,0 7.19243,-1.778474 7.19243,-1.778474 a 5.6435772,5.7888834 0 0 0 -1.60842,-3.859256 11.544251,11.841483 0 0 1 -4.82213,1.041999 c -2.96287,0 -4.86601,-1.128832 -5.24539,-5.554112 h 12.39393 a 18.877766,19.363815 0 0 0 0.46402,-4.557137 m -5.28615,-0.64321 c 0,0.479191 -0.0408,0.964814 -0.0846,1.434357 h -7.44639 c 0.37938,-4.036138 1.9878,-5.512303 4.1449,-5.512303 2.66502,0 3.38614,1.823498 3.38614,4.077946"
     id="path15"
     style="fill:#6c7993;fill-opacity:1;stroke-width:0.317543" />
  <path
     class="cls-4"
     d="m 224.69134,54.758104 c 0,-6.203754 -3.42377,-8.982418 -8.67229,-8.982418 -5.83484,0 -9.64425,3.515139 -9.64425,11.716057 0,7.853585 3.04753,11.976557 9.9421,11.976557 4.70298,0 7.19243,-1.778474 7.19243,-1.778474 a 5.6435772,5.7888834 0 0 0 -1.60842,-3.859256 11.544251,11.841483 0 0 1 -4.82213,1.041999 c -2.96287,0 -4.86601,-1.128832 -5.24539,-5.554112 h 12.39393 a 18.877766,19.363815 0 0 0 0.46402,-4.557137 z m -5.28615,-0.64321 c 0,0.479191 -0.0408,0.964814 -0.0846,1.434357 h -7.44639 c 0.37938,-4.036138 1.9878,-5.512303 4.1449,-5.512303 2.66502,0 3.38614,1.823498 3.38614,4.077946 z"
     id="path16"
     style="fill:#6c7993;fill-opacity:1;stroke:#6c7993;stroke-opacity:1" />
  <path
     class="cls-3"
     d="m 248.12786,52.371797 c 0,-3.90428 -2.28564,-6.596111 -6.6406,-6.596111 -2.32641,0 -4.31421,0.694666 -5.79721,2.083998 v -1.302498 a 8.5249369,8.7444299 0 0 0 -2.66189,-0.347333 c -1.88119,0 -2.66816,0.347333 -2.66816,0.347333 V 68.6868 c 0,0 0.80264,0.347333 2.66816,0.347333 A 8.5249369,8.7444299 0 0 0 235.69005,68.6868 V 51.808989 a 5.3958868,5.5348157 0 0 1 3.72476,-1.608023 c 2.41106,0 3.38301,1.26069 3.38301,3.125997 V 68.6868 c 0,0 0.80264,0.347333 2.66502,0.347333 a 8.5343428,8.7540781 0 0 0 2.66502,-0.347333 z"
     id="path17"
     style="fill:#6c7993;fill-opacity:1;stroke-width:0.317543" />
  <path
     class="cls-4"
     d="m 248.12786,52.371797 c 0,-3.90428 -2.28564,-6.596111 -6.6406,-6.596111 -2.32641,0 -4.31421,0.694666 -5.79721,2.083998 v -1.302498 a 8.5249369,8.7444299 0 0 0 -2.66189,-0.347333 c -1.88119,0 -2.66816,0.347333 -2.66816,0.347333 V 68.6868 c 0,0 0.80264,0.347333 2.66816,0.347333 A 8.5249369,8.7444299 0 0 0 235.69005,68.6868 V 51.808989 a 5.3958868,5.5348157 0 0 1 3.72476,-1.608023 c 2.41106,0 3.38301,1.26069 3.38301,3.125997 V 68.6868 c 0,0 0.80264,0.347333 2.66502,0.347333 a 8.5343428,8.7540781 0 0 0 2.66502,-0.347333 z"
     id="path18"
     style="fill:#6c7993;fill-opacity:1;stroke:#6c7993;stroke-opacity:1" />
  <polygon
     class="cls-1"
     points="26.29,133.31 0,159.6 26.29,185.88 52.56,159.6 "
     id="polygon18"
     style="fill:#6c7993;fill-opacity:1"
     transform="matrix(0.31353207,0,0,0.32160463,-1.2116423,0.38119265)" />
  <polygon
     class="cls-1"
     points="93.32,66.28 67.04,92.56 93.32,118.84 119.6,92.56 "
     id="polygon19"
     style="fill:#6c7993;fill-opacity:1"
     transform="matrix(0.31353207,0,0,0.32160463,-1.2116423,0.38119265)" />
  <polygon
     class="cls-1"
     points="60.56,33.52 34.28,59.8 60.56,86.08 86.84,59.8 "
     id="polygon20"
     style="fill:#6c7993;fill-opacity:1"
     transform="matrix(0.31353207,0,0,0.32160463,-1.2116423,0.38119265)" />
  <polygon
     class="cls-1"
     points="59.8,99.8 33.52,126.08 59.8,152.36 86.08,126.08 "
     id="polygon21"
     style="fill:#6c7993;fill-opacity:1"
     transform="matrix(0.31353207,0,0,0.32160463,-1.2116423,0.38119265)" />
  <polygon
     class="cls-1"
     points="27.04,67.04 0.76,93.32 27.04,119.61 53.33,93.32 "
     id="polygon22"
     style="fill:#6c7993;fill-opacity:1"
     transform="matrix(0.31353207,0,0,0.32160463,-1.2116423,0.38119265)" />
  <polygon
     class="cls-1"
     points="126.84,32.76 100.56,59.04 126.84,85.32 153.12,59.04 "
     id="polygon23"
     style="fill:#6c7993;fill-opacity:1"
     transform="matrix(0.31353207,0,0,0.32160463,-1.2116423,0.38119265)" />
  <polygon
     class="cls-1"
     points="120.36,26.28 94.08,0 67.8,26.28 94.08,52.56 "
     id="polygon24"
     style="fill:#6c7993;fill-opacity:1"
     transform="matrix(0.31353207,0,0,0.32160463,-1.2116423,0.38119265)" />
  <polygon
     class="cls-1"
     points="59.04,166.08 32.76,192.36 59.04,218.64 85.32,192.36 "
     id="polygon25"
     style="fill:#6c7993;fill-opacity:1"
     transform="matrix(0.31353207,0,0,0.32160463,-1.2116423,0.38119265)" />
  <polygon
     class="cls-1"
     points="126.08,99.04 99.8,125.32 126.08,151.6 152.36,125.32 "
     id="polygon26"
     style="fill:#6c7993;fill-opacity:1"
     transform="matrix(0.31353207,0,0,0.32160463,-1.2116423,0.38119265)" />
  <polygon
     class="cls-1"
     points="92.56,132.55 66.28,158.84 92.56,185.12 118.84,158.84 "
     id="polygon27"
     style="fill:#6c7993;fill-opacity:1"
     transform="matrix(0.31353207,0,0,0.32160463,-1.2116423,0.38119265)" />
  <polygon
     class="cls-1"
     points="159.6,65.52 133.32,91.8 159.6,118.08 185.88,91.8 "
     id="polygon28"
     style="fill:#6c7993;fill-opacity:1"
     transform="matrix(0.31353207,0,0,0.32160463,-1.2116423,0.38119265)" />
</svg>
