<svg width="234" height="55" viewBox="0 0 234 107" fill="none" xmlns="http://www.w3.org/2000/svg">
<g clip-path="url(#clip0_1521_1398)">
<path d="M55.3254 32.707C56.8661 32.9675 57.1766 32.6202 57.3835 31.045C57.8895 27.3738 58.9013 23.8017 60.3846 20.4529C62.4083 15.9879 65.6048 11.0763 70.1121 7.77716C74.6539 4.61442 79.6556 2.29507 84.8988 0.918348C88.4402 0.0749491 92.0737 -0.185512 95.6841 0.149367C102.169 0.781916 105.757 2.77879 107.562 5.35859C108.16 6.2144 108.516 7.24384 108.597 8.32289C108.654 9.6128 108.137 11.2872 106.412 12.9244C104.699 14.574 101.192 16.5212 96.351 18.27C91.3263 20.0685 84.4619 21.9785 77.6089 23.6777C73.642 24.6451 69.7211 25.8606 65.8807 27.3118C61.3504 28.9738 59.9821 33.8357 62.7992 35.3241C65.9727 36.9984 68.9278 39.0945 71.6183 41.5503C75.9302 45.2464 79.8741 49.4262 83.3695 54.0153C87.6354 59.6338 94.6148 70.3499 97.1099 80.756C99.8925 92.179 98.1562 103.007 92.1657 106.033C86.2901 109.01 78.4598 104.718 72.9636 98.5541C67.7434 92.7372 64.087 85.8536 60.6375 75.2863C57.6595 66.1453 56.4637 52.961 56.4637 46.0402C56.4637 43.7332 56.4637 43.2495 56.5212 41.1658C56.7166 39.355 52.1863 37.8418 47.3226 41.2278C41.7804 45.0727 36.3648 52.0308 33.1568 56.0865C31.7655 57.8602 29.8683 60.4524 27.8676 63.1686C25.223 66.7407 22.314 70.4615 19.6579 72.5452C15.6795 75.6087 9.25198 76.9359 4.73317 73.4878C2.22656 71.5654 0.88127 67.9189 0.88127 64.2105C0.846775 61.6555 1.45618 59.1377 2.652 56.9175C4.19276 54.0649 6.63038 51.0013 10.5743 47.4913C15.7715 43.1379 21.5206 39.6031 27.6376 36.9984C37.5606 32.6946 48.2425 31.3427 55.3254 32.707Z" fill="#6C7993"/>
<path d="M115.668 64.5818C112.368 64.5818 111.138 62.4981 111.138 59.6951V41.7233H107.792C107.481 41.7233 107.481 41.1527 107.481 40.6814C107.481 40.2101 107.481 39.59 107.792 39.59H111.138V33.3761C111.138 33.0908 111.885 33.0908 112.322 33.0908C112.759 33.0908 113.507 33.0908 113.507 33.3761V39.59H118.692C118.957 39.59 118.957 40.1109 118.957 40.6814C118.957 41.2519 118.957 41.7233 118.692 41.7233H113.507V59.5959C113.507 61.5927 114.3 62.3493 116.232 62.3493H118.646C118.957 62.3493 119.037 62.4485 119.037 63.3912C119.037 64.433 118.945 64.5818 118.646 64.5818H115.668Z" fill="#6C7993"/>
<path d="M124.683 53.0099V55.478C124.683 60.0299 126.925 62.833 131.456 62.833C134.882 62.833 136.952 61.8407 138.665 60.8361C139.021 60.6501 140.114 62.6841 139.677 62.9694C137.435 64.3461 134.664 65.1523 131.548 65.1523C125.741 65.1523 122.314 61.6423 122.314 55.6641V47.8378C122.314 42.0581 126.097 38.3496 131.065 38.3496C136.423 38.3496 140.079 42.0457 140.079 48.3588V53.0099H124.683ZM137.688 48.1355C137.688 43.0627 134.652 40.5945 131.053 40.5945C127.581 40.5945 124.683 43.0627 124.683 47.9867V50.9262H137.699V48.1355H137.688Z" fill="#6C7993"/>
<path d="M149.91 64.582C146.656 64.582 145.38 62.4983 145.38 59.6953V29.3453C145.38 29.0601 146.127 29.0601 146.564 29.0601C147.001 29.0601 147.749 29.0601 147.749 29.3453V59.5961C147.749 61.5929 148.588 62.3991 150.52 62.3991H151.704C152.014 62.3991 152.095 62.4983 152.095 63.441C152.095 64.4828 152.003 64.582 151.704 64.582H149.91Z" fill="#6C7993"/>
<path d="M157.303 53.0099V55.478C157.303 60.0299 159.545 62.833 164.076 62.833C167.502 62.833 169.572 61.8407 171.285 60.8361C171.641 60.6501 172.734 62.6841 172.297 62.9694C170.055 64.3461 167.284 65.1523 164.168 65.1523C158.361 65.1523 154.935 61.6423 154.935 55.6641V47.8378C154.935 42.0581 158.717 38.3496 163.685 38.3496C169.043 38.3496 172.699 42.0457 172.699 48.3588V53.0099H157.303ZM170.308 48.1355C170.308 43.0627 167.272 40.5945 163.673 40.5945C160.201 40.5945 157.303 43.0627 157.303 47.9867V50.9262H170.319V48.1355H170.308Z" fill="#6C7993"/>
<path d="M193.787 64.7805C193.35 64.7805 192.603 64.7805 192.603 64.4953V47.0816C192.603 42.8646 190.889 40.9173 188.026 40.9173C184.991 40.9173 182.174 43.7204 180.46 46.4242V64.4953C180.46 64.7805 179.713 64.7805 179.276 64.7805C178.839 64.7805 178.092 64.7805 178.092 64.4953V38.9825C178.092 38.6972 178.839 38.6972 179.276 38.6972C179.713 38.6972 180.414 38.6972 180.414 38.9825V43.5839C182.3 40.6941 185.209 38.3623 188.728 38.3623C192.557 38.3623 194.971 41.4506 194.971 45.9529V64.4953C194.971 64.7805 194.224 64.7805 193.787 64.7805Z" fill="#6C7993"/>
<path d="M200.03 55.9124V47.6149C200.03 41.6367 203.376 38.3623 209.171 38.3623C215.024 38.3623 218.404 41.6367 218.404 47.6149V55.9124C218.404 61.841 215.024 65.165 209.171 65.165C203.376 65.1526 200.03 61.841 200.03 55.9124ZM209.171 40.6817C204.952 40.6817 202.399 42.6289 202.399 48.0366V55.4783C202.399 60.8364 204.952 62.8705 209.171 62.8705C213.437 62.8705 216.024 60.9232 216.024 55.4783V48.0366C216.036 42.6785 213.437 40.6817 209.171 40.6817Z" fill="#6C7993"/>
<path d="M232.122 41.4383C230.19 41.4383 228.558 43.336 226.143 47.3173V64.4953C226.143 64.7806 225.396 64.7806 224.959 64.7806C224.522 64.7806 223.82 64.7806 223.82 64.4953V38.9825C223.82 38.6973 224.522 38.6973 224.959 38.6973C225.396 38.6973 226.062 38.6973 226.062 38.9825V44.7251C228.696 40.4089 230.11 38.7965 232.743 38.7965H233.617C233.881 38.7965 233.881 39.7019 233.881 40.1732C233.881 40.6445 233.789 41.4507 233.525 41.4507H232.122V41.4383Z" fill="#6C7993"/>
</g>
<defs>
<clipPath id="clip0_1521_1398">
<rect width="233" height="107" fill="white" transform="translate(0.881836)"/>
</clipPath>
</defs>
</svg>
