<svg width="289" height="89" viewBox="0 20 289 89" fill="none" xmlns="http://www.w3.org/2000/svg">
<g clip-path="url(#clip0_729_768)">
<path fill-rule="evenodd" clip-rule="evenodd" d="M49.7929 58.5526C48.7387 59.6196 46.8575 60.8324 43.7679 60.9396C42.3408 60.9905 40.6729 60.9946 39.9091 60.9946H23.3122L35.2149 49.1696C36.147 48.2451 37.0944 47.3361 38.0567 46.443C40.3866 44.2953 42.4881 43.8649 43.9702 43.8786C45.0833 43.8879 46.1833 44.1193 47.2056 44.5592C48.228 44.9991 49.1521 45.6386 49.9236 46.4403C53.1577 49.82 53.0834 55.2238 49.7943 58.5499L49.7929 58.5526ZM53.7687 42.593C52.5029 41.2628 50.9818 40.2012 49.2961 39.4718C47.6211 38.7484 45.8157 38.375 43.9909 38.3745C40.6687 38.3745 37.8104 39.5433 35.3112 41.625C34.224 42.5325 33.0818 43.616 31.6451 45.0433L10.248 66.2801C11.3311 66.4383 12.8229 66.4864 14.1537 66.496C15.3964 66.5001 39.1646 66.5001 40.1582 66.5001C42.1619 66.5001 43.4638 66.4974 44.8647 66.3929C48.0726 66.1523 51.1058 64.9491 53.5581 62.4879C54.8552 61.1903 55.8856 59.6516 56.5913 57.9586C58.0287 54.5194 58.0702 50.6562 56.7069 47.1869C56.037 45.4785 55.0394 43.9175 53.7701 42.5916" fill="#6C7993"/>
<path fill-rule="evenodd" clip-rule="evenodd" d="M21.9072 41.237C19.4796 39.3766 16.763 38.3357 13.6845 38.3399C11.8619 38.3404 10.0588 38.7138 8.38615 39.4371C6.70305 40.1663 5.1846 41.2274 3.92179 42.557C2.6548 43.8836 1.6591 45.4445 0.990506 47.1522C-0.369907 50.621 -0.328954 54.4821 1.10473 57.9212C1.80899 59.614 2.83746 61.1531 4.13235 62.4519C6.31499 64.6464 6.70583 64.9736 10.2523 66.2826L15.5685 60.9999C15.1033 60.9999 14.8859 60.9999 13.9033 60.9064C10.6459 60.6011 8.94213 59.5864 7.88935 58.5194C4.60713 55.1919 4.53144 49.7881 7.75999 46.407C8.52979 45.6062 9.45203 44.9672 10.4725 44.5275C11.493 44.0878 12.5911 43.8564 13.7024 43.8467C15.157 43.8399 17.1305 44.273 19.3626 46.1677C20.8704 47.4772 22.3596 48.8079 23.8298 50.1594C23.8821 50.2075 23.9454 50.213 24.0073 50.1594L27.668 46.5005C27.6826 46.4876 27.6943 46.4718 27.7021 46.4539C27.7099 46.4361 27.7138 46.4168 27.7134 46.3974C27.7131 46.3779 27.7086 46.3588 27.7003 46.3413C27.692 46.3237 27.68 46.3082 27.6652 46.2956C25.9037 44.6662 23.4086 42.3824 21.9072 41.237Z" fill="#6C7993"/>
<mask id="mask0_729_768" style="mask-type:alpha" maskUnits="userSpaceOnUse" x="10" y="22" width="36" height="16">
<path d="M10.1895 22.5H45.2975V37.8161H10.1908V22.5H10.1895Z" fill="black"/>
</mask>
<g mask="url(#mask0_729_768)">
<path fill-rule="evenodd" clip-rule="evenodd" d="M45.28 34.4309C42.7822 27.4803 36.0567 22.5 28.1436 22.5C19.0704 22.5 11.5495 29.0725 10.1885 37.636C11.9531 37.3436 13.758 37.4006 15.5006 37.8037L15.5556 37.8148C16.7873 32.0343 21.9742 27.7401 28.1436 27.7401C33.2823 27.7401 37.7907 30.7926 39.822 35.1184C39.8523 35.1871 39.9073 35.2091 39.9637 35.1954C41.4913 34.7815 43.3258 34.5395 45.0956 34.6688C45.2676 34.6825 45.335 34.5863 45.28 34.4309Z" fill="#6C7993"/>
</g>
<path d="M220.609 50.5885C220.61 50.5611 220.604 50.5339 220.593 50.5091C220.582 50.4842 220.565 50.4622 220.543 50.445C220.522 50.4277 220.497 50.4155 220.47 50.4094C220.444 50.4033 220.416 50.4034 220.389 50.4098C220.354 50.4184 220.322 50.4376 220.298 50.4648C219.196 51.7551 217.83 52.7957 216.294 53.5173C214.768 54.233 213.106 54.6101 211.42 54.6228C205.707 54.6228 202.014 50.5775 202.014 44.3172C202.014 37.9385 205.532 33.9771 211.195 33.9771C214.505 34.0476 217.657 35.4109 219.973 37.7749C219.992 37.7947 220.014 37.81 220.04 37.8197C220.065 37.8294 220.092 37.8332 220.119 37.8308C220.145 37.8285 220.171 37.8199 220.194 37.8059C220.217 37.792 220.237 37.7729 220.251 37.7501C220.271 37.7195 220.281 37.6835 220.28 37.647V34.4213C217.777 32.2015 214.542 30.9824 211.195 30.9975C209.568 30.9407 207.949 31.2402 206.451 31.8748C204.943 32.5149 203.591 33.4721 202.486 34.6811C200.366 37.0681 199.247 40.4011 199.247 44.3199C199.247 52.288 204.139 57.6409 211.42 57.6409C214.816 57.6611 218.096 56.4063 220.609 54.125V50.5885ZM65.2539 31.6603V34.4268H73.7932V56.9795H76.7492V34.4268H85.2885V31.6603H65.2539ZM286.053 40.3118C284.524 38.615 281.969 37.9976 280.131 37.9976C278.972 37.9736 277.822 38.1962 276.756 38.6508C275.684 39.1089 274.719 39.7867 273.924 40.6404C272.261 42.5962 271.393 45.1047 271.493 47.6694C271.493 54.4248 275.867 57.4484 280.202 57.4484C282.735 57.4484 284.824 56.5216 286.053 54.8785V57.0166H288.999V31.7001H286.053V40.3118ZM285.974 47.7409C285.974 51.1976 284.016 54.697 280.273 54.697C277.461 54.697 274.435 52.5658 274.435 47.8853C274.435 44.4464 276.207 40.7449 280.098 40.7449C284.436 40.7449 285.974 44.5124 285.974 47.7409ZM224.52 31.7001H227.512V57.0166H224.52V31.7001ZM138.405 52.3293C138.406 52.2937 138.396 52.2588 138.377 52.2286C138.358 52.1984 138.331 52.1742 138.299 52.1588C138.267 52.1442 138.232 52.1395 138.197 52.1454C138.163 52.1513 138.131 52.1674 138.105 52.1918C136.449 53.6431 134.362 54.5124 132.164 54.6668C128.198 54.6668 125.636 51.9429 125.636 47.7258C125.636 43.5086 128.198 40.7834 132.164 40.7834C134.331 40.7937 136.43 41.5454 138.109 42.9133C138.135 42.9365 138.167 42.9517 138.201 42.9568C138.235 42.962 138.27 42.9569 138.301 42.9422C138.332 42.927 138.359 42.9032 138.378 42.8734C138.396 42.843 138.405 42.8084 138.405 42.773V39.9845C136.487 38.7661 134.278 38.0798 132.006 37.9963C126.529 37.9963 122.847 41.9054 122.847 47.7258C122.847 53.5448 126.529 57.4553 132.006 57.4553C134.296 57.4805 136.535 56.7822 138.404 55.4601L138.405 52.3293ZM99.7756 51.7311C99.7755 51.6927 99.7635 51.6553 99.7412 51.6239C99.7198 51.5925 99.6888 51.569 99.6528 51.5568C99.6168 51.5446 99.5778 51.5445 99.5417 51.5565C99.5056 51.5685 99.4743 51.5916 99.4522 51.6225C97.8233 53.4815 95.5319 54.6312 93.0667 54.8263C91.4014 54.8966 89.7747 54.3127 88.5349 53.1996C87.3776 51.9434 86.7475 50.291 86.7748 48.5838H100.601V48.3665C100.601 44.3721 99.9353 42.1061 98.2302 40.287C97.4724 39.5147 96.5604 38.9104 95.5535 38.5133C94.5526 38.1195 93.4791 37.9437 92.4048 37.9976C87.233 37.9976 83.8903 41.7899 83.8917 47.6667C84.0802 53.7813 87.4697 57.4319 92.9594 57.4319C95.4792 57.4525 97.9137 56.4969 99.7756 54.7548V51.7311ZM97.8077 45.9795H86.7693L86.7734 45.9231C86.8535 44.4885 87.4763 43.1378 88.5157 42.1446C89.5401 41.1669 90.9084 40.631 92.3249 40.6528C95.5466 40.6528 97.6467 42.674 97.8022 45.9245L97.8077 45.9795ZM265.201 47.8853C265.201 52.9288 262.363 54.719 259.931 54.719C259.303 54.7456 258.676 54.6421 258.09 54.4151C257.5 54.1869 256.964 53.8407 256.513 53.3976C256.057 52.95 255.695 52.4156 255.449 51.826C255.201 51.2335 255.073 50.5981 255.07 49.956V38.4294H252.259V49.9038C252.259 54.345 255.354 57.4484 259.788 57.4484C262.243 57.4484 264.159 56.6014 265.377 54.9885V57.0125H268.059V38.4308H265.201V47.8853ZM112.216 37.999C111.205 37.9556 110.196 38.1286 109.258 38.5064C108.313 38.8871 107.459 39.4625 106.752 40.1949V38.4198H103.958V57.0166H106.813V46.4195C106.776 45.6571 106.886 44.8946 107.138 44.1741C107.389 43.4574 107.779 42.7968 108.285 42.2299C108.787 41.7245 109.393 41.3325 110.06 41.0804C110.724 40.83 111.434 40.7267 112.142 40.7779C112.752 40.7696 113.357 40.892 113.919 41.134C114.483 41.376 114.989 41.7349 115.411 42.1873C115.833 42.6397 116.159 43.1745 116.37 43.7616C116.58 44.3488 116.671 44.9744 116.635 45.5973V57.0166H119.491V45.4598C119.536 44.4457 119.377 43.433 119.023 42.4815C118.672 41.5355 118.133 40.6705 117.438 39.9391C116.739 39.2876 115.917 38.7807 115.021 38.4477C114.125 38.1147 113.172 37.9622 112.216 37.999ZM157.05 51.7311C157.051 51.6928 157.04 51.655 157.018 51.6236C156.996 51.5921 156.964 51.5686 156.927 51.5565C156.892 51.5445 156.853 51.5445 156.817 51.5565C156.781 51.5684 156.749 51.5915 156.727 51.6225C155.098 53.4817 152.806 54.6313 150.341 54.8263C148.676 54.8962 147.05 54.3124 145.811 53.1996C144.653 51.9437 144.023 50.2911 144.05 48.5838H157.876V48.3665C157.876 44.3721 157.212 42.1061 155.506 40.287C154.748 39.5145 153.835 38.9101 152.828 38.5133C151.827 38.1196 150.754 37.9438 149.68 37.9976C144.509 37.9976 141.166 41.7899 141.166 47.6667C141.354 53.7813 144.745 57.4319 150.235 57.4319C152.767 57.4487 155.208 56.4899 157.05 54.7548V51.7311ZM155.082 45.9795H144.045L144.049 45.9231C144.129 44.4884 144.752 43.1376 145.791 42.1446C146.816 41.1669 148.184 40.631 149.601 40.6528C152.824 40.6528 154.922 42.674 155.079 45.9245L155.082 45.9795ZM169.445 37.999C168.434 37.9556 167.425 38.1286 166.486 38.5064C165.541 38.8872 164.687 39.4625 163.979 40.1949V38.4198H161.188V57.0166H164.042V46.4195C164.005 45.657 164.116 44.8945 164.369 44.1741C164.619 43.4573 165.008 42.7967 165.514 42.2299C166.02 41.7212 166.625 41.3306 167.29 41.0804C167.953 40.8302 168.663 40.727 169.37 40.7779C169.981 40.7696 170.585 40.8906 171.148 41.134C171.71 41.376 172.218 41.7349 172.639 42.1873C173.062 42.6383 173.388 43.1745 173.599 43.7616C173.809 44.3488 173.9 44.973 173.864 45.5973V57.0166H176.718V45.4598C176.764 44.4458 176.606 43.433 176.252 42.4815C175.901 41.5354 175.361 40.6704 174.665 39.9391C173.966 39.2877 173.145 38.7808 172.249 38.4479C171.353 38.1149 170.4 37.9623 169.445 37.999ZM186.055 57.2628C187.325 57.1404 188.574 56.8503 189.773 56.3993V53.5984C189.773 53.5687 189.766 53.5395 189.752 53.5131C189.74 53.4871 189.721 53.4646 189.698 53.4476C189.675 53.4305 189.647 53.4195 189.619 53.4155C189.59 53.4113 189.561 53.4142 189.534 53.4238C188.536 53.7868 187.513 54.0741 186.473 54.2859C186.176 54.334 185.913 54.3766 185.716 54.2061C185.64 54.1293 185.583 54.036 185.549 53.9334C185.515 53.8309 185.505 53.7218 185.521 53.6149V41.1216H190.746V38.4156H185.521V33.4601H182.555V38.4156H179.577V41.1216H182.555V53.9091C182.526 54.3766 182.598 54.8469 182.765 55.2841C182.933 55.7214 183.193 56.116 183.526 56.4391C184.238 57.0166 185.139 57.3091 186.055 57.2628ZM240.224 38.0348C234.96 38.0348 231.423 41.9356 231.423 47.7409C231.423 53.5461 234.96 57.4484 240.224 57.4484C245.489 57.4484 249.025 53.5461 249.025 47.7409C249.025 41.9356 245.489 38.0348 240.224 38.0348ZM234.154 47.7216L234.152 47.7148C234.163 43.6008 236.602 40.837 240.224 40.837C243.856 40.837 246.294 43.6118 246.296 47.7409C246.294 51.8686 243.855 54.6434 240.224 54.6434C236.595 54.6434 234.158 51.8466 234.154 47.7216Z" fill="#6C7993"/>
</g>
<defs>
<clipPath id="clip0_729_768">
<rect width="289" height="88" fill="white" transform="translate(0 0.5)"/>
</clipPath>
</defs>
</svg>
