<svg width="295" height="89" viewBox="0 0 295 89" fill="none" xmlns="http://www.w3.org/2000/svg">
<g clip-path="url(#clip0_729_754)">
<path fill-rule="evenodd" clip-rule="evenodd" d="M51.5942 58.7121C50.5218 59.7912 48.608 61.0178 45.465 61.1262C44.0132 61.1777 42.3164 61.1819 41.5394 61.1819H24.6554L36.764 49.2225C37.7123 48.2875 38.6761 47.3682 39.655 46.4649C42.0252 44.2927 44.163 43.8575 45.6708 43.8714C46.8032 43.8807 47.9222 44.1148 48.9622 44.5596C50.0023 45.0045 50.9423 45.6513 51.7272 46.4621C55.0172 49.8802 54.9416 55.3454 51.5956 58.7093L51.5942 58.7121ZM55.6388 42.5711C54.3512 41.2258 52.8037 40.1522 51.0888 39.4144C49.3848 38.6828 47.5482 38.3052 45.6918 38.3047C42.3122 38.3047 39.4044 39.4867 36.862 41.5921C35.756 42.5099 34.594 43.6058 33.1324 45.0492L11.3652 66.5274C12.467 66.6873 13.9846 66.736 15.3384 66.7458C16.6026 66.7499 40.782 66.7499 41.7928 66.7499C43.8312 66.7499 45.1556 66.7471 46.5808 66.6415C49.8442 66.3981 52.9298 65.1813 55.4246 62.6921C56.7441 61.3797 57.7924 59.8236 58.5102 58.1114C59.9726 54.633 60.0147 50.7259 58.6278 47.2172C57.9464 45.4894 56.9315 43.9107 55.6402 42.5697" fill="#6C7993"/>
<path fill-rule="evenodd" clip-rule="evenodd" d="M23.2257 41.2001C20.7561 39.3186 17.9925 38.2659 14.8607 38.27C13.0066 38.2706 11.1723 38.6482 9.47071 39.3798C7.75849 40.1172 6.21377 41.1904 4.92911 42.5351C3.6402 43.8768 2.62728 45.4555 1.94711 47.1825C0.563163 50.6907 0.604824 54.5957 2.06331 58.0739C2.77976 59.786 3.82602 61.3425 5.14331 62.656C7.36371 64.8755 7.76131 65.2064 11.3691 66.5303L16.7773 61.1875C16.3041 61.1875 16.0829 61.1875 15.0833 61.093C11.7695 60.7843 10.0363 59.758 8.96531 58.6788C5.62631 55.3135 5.54931 49.8484 8.83371 46.4288C9.61684 45.6189 10.555 44.9726 11.5932 44.528C12.6313 44.0833 13.7484 43.8492 14.8789 43.8395C16.3587 43.8325 18.3663 44.2706 20.6371 46.1869C22.1709 47.5113 23.6859 48.857 25.1815 50.2238C25.2347 50.2725 25.2991 50.2781 25.3621 50.2238L29.0861 46.5234C29.101 46.5104 29.1129 46.4943 29.1208 46.4763C29.1288 46.4583 29.1327 46.4388 29.1323 46.4191C29.132 46.3995 29.1275 46.3801 29.119 46.3624C29.1106 46.3446 29.0984 46.3289 29.0833 46.3162C27.2913 44.6683 24.7531 42.3585 23.2257 41.2001Z" fill="#6C7993"/>
<mask id="mask0_729_754" style="mask-type:alpha" maskUnits="userSpaceOnUse" x="11" y="22" width="37" height="16">
<path d="M11.3047 22.25H47.0201V37.7402H11.3061V22.25H11.3047Z" fill="black"/>
</mask>
<g mask="url(#mask0_729_754)">
<path fill-rule="evenodd" clip-rule="evenodd" d="M47.0023 34.3165C44.4613 27.2868 37.6195 22.25 29.5695 22.25C20.3393 22.25 12.6883 28.8972 11.3037 37.558C13.0988 37.2623 14.935 37.3199 16.7077 37.7277L16.7637 37.7388C18.0167 31.8926 23.2933 27.5497 29.5695 27.5497C34.7971 27.5497 39.3835 30.6369 41.4499 35.0118C41.4807 35.0813 41.5367 35.1035 41.5941 35.0896C43.1481 34.6711 45.0143 34.4263 46.8147 34.557C46.9897 34.5709 47.0583 34.4736 47.0023 34.3165Z" fill="#6C7993"/>
</g>
<path d="M225.365 50.6579C225.366 50.6302 225.361 50.6027 225.349 50.5775C225.337 50.5524 225.32 50.5302 225.298 50.5127C225.277 50.4952 225.251 50.4829 225.224 50.4768C225.197 50.4706 225.169 50.4707 225.141 50.4771C225.106 50.4859 225.073 50.5053 225.049 50.5328C223.927 51.8377 222.539 52.8902 220.975 53.6199C219.423 54.3438 217.732 54.7252 216.018 54.738C210.205 54.738 206.449 50.6468 206.449 44.3153C206.449 37.8642 210.027 33.8578 215.788 33.8578C219.156 33.929 222.362 35.3078 224.719 37.6987C224.737 37.7187 224.76 37.7342 224.786 37.744C224.811 37.7538 224.839 37.7577 224.866 37.7553C224.894 37.7528 224.92 37.7442 224.943 37.7301C224.967 37.7159 224.987 37.6966 225.001 37.6736C225.022 37.6426 225.032 37.6063 225.031 37.5693V34.3069C222.484 32.0619 219.193 30.829 215.788 30.8443C214.134 30.7868 212.486 31.0897 210.962 31.7315C209.428 32.3789 208.053 33.347 206.929 34.5698C204.771 36.9839 203.633 40.3548 203.633 44.318C203.633 52.3767 208.61 57.7904 216.018 57.7904C219.472 57.8109 222.808 56.5418 225.365 54.2346V50.6579ZM67.3223 31.5146V34.3125H76.0093V57.1215H79.0165V34.3125H87.7035V31.5146H67.3223ZM291.941 40.2644C290.386 38.5483 287.787 37.924 285.917 37.924C284.738 37.8996 283.568 38.1248 282.484 38.5845C281.393 39.0479 280.411 39.7334 279.603 40.5967C277.911 42.5747 277.028 45.1118 277.129 47.7056C277.129 54.5378 281.58 57.5957 285.99 57.5957C288.566 57.5957 290.691 56.6585 291.941 54.9967V57.1591H294.938V31.5549H291.941V40.2644ZM291.861 47.7779C291.861 51.274 289.869 54.8131 286.061 54.8131C283.201 54.8131 280.122 52.6576 280.122 47.9239C280.122 44.446 281.925 40.7024 285.883 40.7024C290.296 40.7024 291.861 44.5127 291.861 47.7779ZM229.344 31.5549H232.388V57.1591H229.344V31.5549ZM141.739 52.4184C141.74 52.3825 141.73 52.3472 141.711 52.3166C141.692 52.2861 141.664 52.2616 141.631 52.246C141.599 52.2312 141.563 52.2265 141.528 52.2325C141.492 52.2384 141.46 52.2548 141.434 52.2794C139.749 53.7472 137.626 54.6264 135.39 54.7825C131.355 54.7825 128.749 52.0277 128.749 47.7626C128.749 43.4976 131.355 40.7414 135.39 40.7414C137.595 40.7518 139.729 41.512 141.438 42.8954C141.464 42.919 141.496 42.9343 141.531 42.9395C141.566 42.9447 141.601 42.9395 141.633 42.9246C141.665 42.9094 141.692 42.8852 141.711 42.8551C141.73 42.8244 141.739 42.7893 141.739 42.7536V39.9334C139.787 38.7011 137.54 38.0071 135.229 37.9226C129.657 37.9226 125.912 41.8761 125.912 47.7626C125.912 53.6478 129.657 57.6027 135.229 57.6027C137.559 57.6282 139.837 56.922 141.738 55.5849L141.739 52.4184ZM102.441 51.8135C102.441 51.7746 102.429 51.7368 102.406 51.705C102.384 51.6733 102.353 51.6495 102.316 51.6372C102.28 51.6249 102.24 51.6248 102.203 51.6369C102.167 51.649 102.135 51.6724 102.112 51.7037C100.455 53.5838 98.1241 54.7465 95.6163 54.9438C93.9221 55.0149 92.2673 54.4244 91.0061 53.2987C89.8288 52.0282 89.1877 50.357 89.2155 48.6304H103.281V48.4107C103.281 44.3709 102.604 42.0791 100.869 40.2393C100.098 39.4582 99.1704 38.847 98.1461 38.4454C97.1279 38.0472 96.0358 37.8694 94.9429 37.924C89.6817 37.924 86.2811 41.7593 86.2825 47.7028C86.4743 53.8869 89.9225 57.579 95.5071 57.579C98.0705 57.5999 100.547 56.6334 102.441 54.8715V51.8135ZM100.439 45.9965H89.2099L89.2141 45.9395C89.2956 44.4885 89.9291 43.1225 90.9865 42.1181C92.0286 41.1292 93.4206 40.5872 94.8617 40.6092C98.1391 40.6092 100.275 42.6535 100.434 45.9409L100.439 45.9965ZM270.728 47.9239C270.728 53.0248 267.841 54.8353 265.368 54.8353C264.729 54.8622 264.091 54.7575 263.494 54.528C262.895 54.2972 262.349 53.947 261.89 53.499C261.426 53.0462 261.058 52.5057 260.808 51.9095C260.556 51.3102 260.425 50.6676 260.423 50.0182V38.3606H257.563V49.9654C257.563 54.4571 260.711 57.5957 265.222 57.5957C267.72 57.5957 269.668 56.7391 270.907 55.1079V57.1549H273.636V38.362H270.728V47.9239ZM115.097 37.9253C114.069 37.8814 113.042 38.0564 112.087 38.4385C111.126 38.8235 110.257 39.4054 109.538 40.1462V38.3509H106.696V57.1591H109.601V46.4415C109.562 45.6705 109.675 44.8993 109.931 44.1706C110.187 43.4457 110.583 42.7776 111.097 42.2043C111.609 41.6932 112.225 41.2967 112.903 41.0417C113.579 40.7885 114.302 40.6841 115.022 40.7358C115.642 40.7275 116.258 40.8512 116.829 41.096C117.403 41.3407 117.918 41.7037 118.347 42.1612C118.776 42.6187 119.108 43.1597 119.322 43.7535C119.537 44.3472 119.629 44.98 119.593 45.6099V57.1591H122.498V45.4709C122.543 44.4453 122.382 43.4211 122.022 42.4588C121.665 41.502 121.116 40.6272 120.409 39.8875C119.698 39.2285 118.862 38.7159 117.95 38.3791C117.039 38.0424 116.069 37.8881 115.097 37.9253ZM160.706 51.8135C160.708 51.7747 160.696 51.7365 160.674 51.7047C160.651 51.6729 160.619 51.6491 160.582 51.6369C160.546 51.6247 160.506 51.6247 160.47 51.6369C160.433 51.6489 160.4 51.6723 160.377 51.7037C158.72 53.5839 156.389 54.7466 153.881 54.9438C152.188 55.0146 150.534 54.4241 149.273 53.2987C148.095 52.0285 147.454 50.3571 147.482 48.6304H161.546V48.4107C161.546 44.3709 160.872 42.0791 159.136 40.2393C158.364 39.458 157.436 38.8468 156.411 38.4454C155.394 38.0473 154.302 37.8695 153.209 37.924C147.948 37.924 144.548 41.7593 144.548 47.7028C144.739 53.8869 148.189 57.579 153.774 57.579C156.349 57.5961 158.832 56.6263 160.706 54.8715V51.8135ZM158.704 45.9965H147.476L147.481 45.9395C147.562 44.4884 148.195 43.1223 149.253 42.1181C150.295 41.1292 151.687 40.5872 153.128 40.6092C156.407 40.6092 158.542 42.6535 158.702 45.9409L158.704 45.9965ZM173.316 37.9253C172.288 37.8814 171.261 38.0564 170.306 38.4385C169.345 38.8236 168.476 39.4054 167.755 40.1462V38.3509H164.916V57.1591H167.82V46.4415C167.782 45.6704 167.894 44.8992 168.152 44.1706C168.406 43.4457 168.802 42.7776 169.316 42.2043C169.832 41.6898 170.448 41.2948 171.124 41.0417C171.798 40.7887 172.52 40.6843 173.239 40.7358C173.861 40.7275 174.475 40.8498 175.048 41.096C175.621 41.3407 176.137 41.7037 176.566 42.1612C176.995 42.6173 177.327 43.1597 177.541 43.7535C177.756 44.3472 177.848 44.9786 177.812 45.6099V57.1591H180.715V45.4709C180.762 44.4454 180.6 43.4211 180.241 42.4588C179.884 41.5019 179.334 40.6271 178.626 39.8875C177.915 39.2286 177.08 38.7161 176.169 38.3793C175.257 38.0425 174.288 37.8882 173.316 37.9253ZM190.213 57.408C191.505 57.2842 192.776 56.9908 193.996 56.5347V53.702C193.996 53.672 193.989 53.6424 193.975 53.6158C193.962 53.5894 193.943 53.5667 193.919 53.5494C193.896 53.5322 193.868 53.5211 193.839 53.517C193.81 53.5128 193.78 53.5156 193.752 53.5254C192.737 53.8925 191.697 54.1831 190.638 54.3973C190.336 54.446 190.069 54.4891 189.868 54.3166C189.791 54.239 189.733 54.1446 189.698 54.0408C189.664 53.9371 189.654 53.8268 189.67 53.7187V41.0835H194.985V38.3467H189.67V33.3349H186.653V38.3467H183.623V41.0835H186.653V54.0163C186.623 54.4891 186.696 54.9647 186.867 55.4069C187.038 55.8491 187.302 56.2482 187.641 56.575C188.365 57.159 189.281 57.4548 190.213 57.408ZM245.32 37.9615C239.965 37.9615 236.367 41.9067 236.367 47.7779C236.367 53.6491 239.965 57.5957 245.32 57.5957C250.676 57.5957 254.273 53.6491 254.273 47.7779C254.273 41.9067 250.676 37.9615 245.32 37.9615ZM239.144 47.7585L239.143 47.7515C239.154 43.5908 241.635 40.7956 245.32 40.7956C249.014 40.7956 251.495 43.6019 251.496 47.7779C251.495 51.9526 249.013 54.7589 245.32 54.7589C241.628 54.7589 239.148 51.9303 239.144 47.7585Z" fill="#6C7993"/>
</g>
<defs>
<clipPath id="clip0_729_754">
<rect width="294" height="89" fill="white" transform="translate(0.939453)"/>
</clipPath>
</defs>
</svg>
