<svg width="427" height="65" viewBox="0 0 427 89" fill="none" xmlns="http://www.w3.org/2000/svg">
<path fill-rule="evenodd" clip-rule="evenodd" d="M2.08789 9.75614C52.3791 -2.57522 44.8644 -2.42343 95.211 9.75614C91.8823 39.2196 80.4186 63.6108 58.8293 81.7101C48.2141 90.5758 49.2254 90.7066 38.6324 81.8408C16.9766 63.7283 5.3933 39.296 2.08789 9.75614ZM63.0707 34.4399C60.482 44.5764 59.6335 55.7456 59.2857 66.1314C59.2857 67.9783 59.1882 69.8352 59.166 71.6711C74.0238 57.32 82.5277 39.5464 86.4002 19.5337C77.841 23.2708 68.3667 29.1052 63.0718 34.4399H63.0707ZM51.9006 78.147C51.9006 74.062 51.9006 69.9881 52.0424 65.9032C52.4123 54.6254 53.3915 42.6309 56.3059 31.669L56.5452 30.7893L57.1655 30.1267C62.5933 24.3787 72.2293 18.1211 81.441 13.819C75.9047 12.4606 70.4669 11.1355 64.9638 9.95224C59.6035 8.6455 54.1202 7.90906 48.6051 7.7552C43.0996 7.90547 37.6262 8.64838 32.2797 9.97108C26.7444 11.1455 21.2945 12.4817 15.8135 13.8511C25.0474 18.1421 34.6402 24.3676 40.1765 30.1688L40.7969 30.8314L41.035 31.7111C43.9505 42.6298 44.9397 54.6675 45.3108 65.9453C45.4404 70.0302 45.4725 74.093 45.4515 78.1348C46.5603 79.0588 47.7677 80.0903 48.7691 80.7529C49.715 80.0903 50.9225 79.0799 52.0102 78.157L51.9006 78.147ZM34.1739 34.4388C28.92 29.1052 19.4579 23.2708 10.8765 19.5337C14.769 39.6007 23.2851 57.331 38.1317 71.6722C38.1317 69.8352 38.0653 67.9783 38.0121 66.1314C37.6643 55.7445 36.7936 44.5764 34.216 34.4399L34.1739 34.4388Z" fill="#6C7993" stroke="#6C7993" stroke-width="0.3981" stroke-miterlimit="10"/>
<path d="M122.022 66.6854V27.9087H106.512V23.4769H143.066V27.9087H127.558V66.6865L122.022 66.6854ZM148.604 66.6854V23.4769H172.967V27.9087H154.139V41.2072H169.649V46.7469H154.139V62.2514H174.075V66.6832L148.604 66.6854ZM178.513 65.4789V59.4927C183.309 61.7085 187.257 62.8165 190.358 62.8165C192.427 62.9132 194.46 62.2443 196.068 60.9374C196.782 60.3374 197.352 59.5847 197.736 58.7348C198.12 57.8848 198.308 56.9595 198.287 56.027C198.32 54.4849 197.816 52.9792 196.861 51.7681C195.349 50.1786 193.576 48.8596 191.619 47.8682L188.683 46.173C185.773 44.6986 183.147 42.7198 180.928 40.3286C179.461 38.5341 178.675 36.279 178.709 33.9613C178.665 32.4272 178.963 30.9024 179.58 29.4971C180.196 28.0918 181.117 26.8409 182.276 25.8346C184.791 23.6603 188.037 22.5225 191.359 22.6515C194.882 22.6958 198.373 23.2498 201.734 24.2923V29.8331C197.253 28.0726 193.913 27.1929 191.706 27.1929C189.856 27.1088 188.035 27.6778 186.562 28.8005C185.917 29.2931 185.397 29.9302 185.044 30.6605C184.691 31.3909 184.514 32.194 184.528 33.0052C184.517 34.4075 185.051 35.7592 186.018 36.7755C187.648 38.3266 189.486 39.643 191.479 40.6865L194.523 42.4149C197.452 43.887 200.081 45.891 202.278 48.3246C203.766 50.2374 204.549 52.6046 204.497 55.0277C204.545 56.7209 204.202 58.4025 203.492 59.9407C202.783 61.4788 201.727 62.8317 200.407 63.8934C197.689 66.1093 194.077 67.2172 189.573 67.2172C185.826 67.1299 182.107 66.5453 178.513 65.4789ZM222.824 66.6854V27.9087H207.313V23.4769H243.868V27.9087H228.36V66.6865L222.824 66.6854ZM250.514 66.6854V23.4769H256.051V66.6843L250.514 66.6854ZM268.232 66.6854V23.4769H291.496V27.9087H273.768V42.3152H289.277V46.7469H273.768V66.6865L268.232 66.6854ZM309.225 66.6854V48.6493L296.195 23.4769H302.513L312.651 43.0099L323.571 23.4769H328.715L314.76 48.5296V66.6843L309.225 66.6854Z" fill="#6C7993" stroke="#6C7993" stroke-width="0.3981" stroke-miterlimit="10"/>
<path d="M333.032 63.155V57.7006C337.371 59.7104 340.95 60.7098 343.756 60.7098C345.631 60.8055 347.473 60.1969 348.922 59.0036C349.562 58.4633 350.071 57.7845 350.41 57.0187C350.749 56.2528 350.91 55.4199 350.88 54.5829C350.924 53.1857 350.469 51.8184 349.597 50.7262C348.236 49.281 346.635 48.0826 344.865 47.1841L342.211 45.6518C339.603 44.308 337.253 42.5132 335.271 40.3503C333.937 38.7315 333.224 36.6899 333.259 34.5924C333.22 33.2046 333.488 31.8253 334.044 30.5535C334.601 29.2817 335.432 28.149 336.478 27.2368C338.756 25.28 341.69 24.259 344.69 24.3794C347.877 24.4126 351.043 24.9112 354.077 25.8574V30.8542C350.03 29.2587 347.007 28.4644 345.006 28.4644C343.321 28.3776 341.661 28.8898 340.318 29.9102C339.738 30.3592 339.27 30.9358 338.949 31.5953C338.628 32.2548 338.464 32.9793 338.469 33.7127C338.469 34.9835 338.948 36.2 339.829 37.1129C341.3 38.5278 342.967 39.7244 344.777 40.6661L347.518 42.2194C350.163 43.5762 352.531 45.4147 354.501 47.6406C355.837 49.3734 356.533 51.5156 356.469 53.7032C356.52 55.2405 356.213 56.7685 355.573 58.1673C354.934 59.566 353.979 60.7974 352.783 61.7646C349.977 63.9118 346.5 64.9934 342.972 64.8169C339.6 64.6996 336.258 64.1408 333.031 63.155H333.032ZM365.16 63.9151V25.1405H387.316V29.5723H370.697V41.7629H383.988V46.1947H370.697V60.5913H388.426V63.9151H365.16ZM423.871 62.1878C419.909 64.1847 415.528 65.209 411.092 65.1759C405 65.1759 400.291 63.3932 396.974 59.8301C393.646 56.267 391.981 51.1826 391.981 44.6092C391.981 38.0469 393.678 32.9737 397.061 29.3773C400.443 25.792 405.219 23.9994 411.384 23.9883C415.236 24.0215 419.064 24.5976 422.761 25.7056V30.9306C419.156 29.3026 415.28 28.356 411.33 28.1386C407.067 28.1386 403.772 29.5834 401.434 32.4629C399.106 35.3424 397.942 39.4052 397.942 44.6524C397.942 49.6714 399.194 53.6157 401.684 56.4952C402.954 57.9377 404.533 59.0754 406.303 59.8238C408.073 60.5723 409.989 60.9122 411.908 60.8184C416.128 60.6707 420.248 59.5001 423.916 57.407L423.871 62.1878Z" fill="#6C7993" stroke="#6C7993" stroke-width="1.1943" stroke-miterlimit="10"/>
</svg>
