<svg width="434" height="75" viewBox="0 0 434 75" fill="none" xmlns="http://www.w3.org/2000/svg">
<path d="M20.9168 5.1775V10.3575H10.4584V20.715H0V41.4275H20.9168V20.715H41.8311V0H20.9168V5.175V5.1775ZM107.849 8.2525V16.5075H99.3511V24.9225H107.782L107.914 32.5925C108.044 39.8425 108.108 40.4575 108.927 42.9175C111.638 51.1075 118.894 55.9925 128.274 55.9925H130.724V47.5775H116.344V24.925H126.803V16.5075H116.344V0H107.852V8.25L107.849 8.2525ZM212.752 8.2525V16.5075H204.257V24.9225H212.752V31.3625C212.752 38.9375 213.211 41.8175 214.845 45.15C216.87 49.165 219.649 51.915 223.7 53.9225C226.675 55.3775 229.746 55.995 234.093 55.995H237.59V47.575H221.25V24.925H233.669V16.5075H221.248V0H212.755V8.25L212.752 8.2525ZM143.632 3.0425C142.422 3.5925 141.018 5.05 140.559 6.2475C139.252 9.6125 142.063 13.5925 145.757 13.5925C148.565 13.5925 151.311 10.9075 151.311 8.1875C151.311 4.305 147.131 1.52 143.632 3.0425ZM179.155 16.345C173.238 17.67 167.554 22.17 164.84 27.7375C161.214 35.15 162.521 43.7575 168.14 49.7775C170.395 52.1725 172.717 53.695 176.082 54.9575C178.239 55.8 178.401 55.8 188.665 55.9275L199.024 56.0275V47.5775H172.228V39.81H203.93V37.1225C203.898 29.13 199.909 22.365 192.818 18.3525C189.059 16.2475 183.338 15.3725 179.155 16.345ZM194.449 28.805V32.69H172.226V24.9225H194.449V28.805ZM255.723 16.315C251.084 17.3825 247.914 19.2275 244.646 22.69C237.193 30.6525 237.488 42.855 245.3 50.6225C247.684 52.9525 250.039 54.44 253.339 55.6075C255.431 56.35 256.215 56.4475 259.809 56.4475C263.403 56.4475 264.189 56.35 266.281 55.605C269.581 54.44 271.933 52.9525 274.32 50.6225C276.705 48.2275 278.177 45.8975 279.319 42.66C280.072 40.62 280.202 39.78 280.202 36.4125C280.202 33.08 280.072 32.1725 279.319 29.94C277.229 23.66 271.966 18.6775 265.366 16.7025C262.882 15.9275 258.175 15.7625 255.723 16.315ZM271.248 36.2525V47.5775H248.37V24.925H271.248V36.2525ZM300.398 16.345C294.484 17.67 288.797 22.17 286.083 27.7375C282.457 35.15 283.764 43.7575 289.386 49.7775C291.641 52.1725 293.96 53.695 297.327 54.9575C299.482 55.8 299.647 55.8 309.908 55.9275L320.27 56.0275V47.5775H293.471V39.81H325.171V37.1225C325.138 29.13 321.15 22.365 314.059 18.3525C310.3 16.2475 304.581 15.3725 300.398 16.345ZM315.693 28.805V32.69H293.471V24.9225H315.693V28.805ZM133.989 20.715V24.9225H145.754V47.5775H137.907V55.995H162.092V47.575H154.247V41.135C154.247 33.69 153.856 31.2 152.124 27.67C150.162 23.69 147.059 20.615 142.971 18.575C140.88 17.575 136.73 16.505 134.769 16.505H133.986V20.7125L133.989 20.715ZM385.242 16.83C377.889 18.06 372.399 22.5275 369.751 29.455C368.87 31.815 368.838 32.075 368.705 39.7125L368.576 47.5775H362.759V55.995H391.518V47.575H377.139V24.925H388.901V16.5075L387.856 16.54C387.268 16.5725 386.093 16.7025 385.242 16.83ZM326.281 17.705C326.378 18.03 328.241 25.2125 330.431 33.6625C332.621 42.2375 334.746 49.6825 335.17 50.5575C336.248 52.6925 338.276 54.6025 340.498 55.6375C342.099 56.3825 342.72 56.48 345.758 56.48C348.799 56.48 349.42 56.3825 351.021 55.6375C353.244 54.6025 355.269 52.6925 356.346 50.5575C356.773 49.6825 358.896 42.2375 361.086 33.6625C363.275 25.2125 365.139 18.0275 365.236 17.705C365.401 17.1875 365.041 17.155 360.824 17.155H356.282L355.758 19.3225C355.498 20.5525 354.092 27.1225 352.622 33.985C351.151 40.8475 349.909 46.705 349.811 46.9975C349.647 47.515 349.158 47.58 345.758 47.58C342.359 47.58 341.87 47.515 341.705 46.9975C341.608 46.705 340.204 40.1675 338.57 32.5275C336.934 24.8575 335.529 18.2875 335.4 17.8675C335.235 17.1875 335.138 17.155 330.661 17.155C326.478 17.155 326.119 17.1875 326.281 17.705ZM394.259 17.705C394.356 18.03 396.22 25.2125 398.377 33.66C402.722 50.525 403.181 51.755 405.992 54.245C407.985 55.995 409.978 56.6425 413.639 56.6425H416.351V64.41H401.318V72.5975L404.52 72.4025C412.397 71.9525 418.932 67.97 422.038 61.6575C422.921 59.9425 424.422 54.57 428.443 38.84C431.351 27.545 433.771 18.0275 433.868 17.705C434.032 17.1875 433.671 17.155 429.455 17.155H424.881L424.554 18.8375C424.357 19.775 423.083 26.3125 421.743 33.3375C420.896 37.8413 420.024 42.3405 419.129 46.835C418.965 47.5775 418.867 47.5775 414.063 47.5775C409.26 47.5775 409.162 47.5775 408.998 46.835C408.9 46.445 407.723 40.36 406.384 33.3375C405.467 28.5003 404.53 23.6669 403.573 18.8375L403.246 17.155H398.671C394.456 17.155 394.094 17.1875 394.259 17.705ZM55.3974 31.525C53.2099 32.4625 51.9678 34.955 52.4566 37.4475C52.6861 38.7425 54.8436 41.105 55.7241 41.105C56.5098 41.105 56.2803 41.655 55.4323 41.88C54.3198 42.14 52.6861 44.115 52.4242 45.475C52.065 47.3825 52.5564 48.905 53.9607 50.2325C56.1806 52.335 58.9616 52.3025 61.1192 50.1675C63.2742 48.03 63.3066 45.28 61.1491 43.0475C60.4632 42.335 59.6775 41.7525 59.3857 41.7525C58.5376 41.7525 58.7322 41.3 59.8097 40.845C60.3659 40.5875 61.2165 39.875 61.7053 39.2275C62.4237 38.2875 62.5883 37.7375 62.5883 36.25C62.5883 34.7275 62.4237 34.21 61.6405 33.2075C60.1364 31.2325 57.6197 30.5525 55.3974 31.525Z" fill="#6C7993"/>
<path d="M66.0471 32.2702C61.9964 34.3727 63.0091 40.1027 67.5187 40.6527C69.9032 40.9452 72.1256 39.1627 72.4199 36.7027C72.8439 33.3377 69.0526 30.6827 66.0471 32.2702ZM66.5035 43.0152C65.0319 43.6627 64.2163 44.9577 64.2163 46.6402C64.2163 48.0002 64.3809 48.3552 65.2963 49.2627C66.2092 50.1677 66.5684 50.3302 67.9751 50.3302C69.3794 50.3302 69.7386 50.1677 70.654 49.2627C71.5693 48.3552 71.734 48.0002 71.734 46.6077C71.734 45.2477 71.5694 44.8577 70.7188 43.9852C69.6413 42.9177 67.7132 42.4977 66.5035 43.0152ZM34.4823 52.2402C33.7084 52.57 33.0294 53.089 32.5072 53.7497C31.9851 54.4104 31.6365 55.1917 31.4934 56.0223C31.3502 56.8528 31.417 57.7061 31.6878 58.5041C31.9585 59.3021 32.4245 60.0193 33.0431 60.5902C35.263 62.6927 38.0441 62.6602 40.2341 60.4927C40.92 59.8127 41.5061 59.0052 41.5061 58.7427C41.5061 58.4852 41.6707 58.2602 41.8354 58.2602C42.0299 58.2602 42.1596 58.4852 42.1596 58.8102C42.1596 59.1002 42.7483 59.8777 43.4691 60.5577C45.7239 62.6927 48.5 62.6602 50.6575 60.5252C52.8151 58.3877 52.8475 55.6377 50.7224 53.4377C49.383 52.0452 47.8465 51.5602 45.9185 51.9152C44.5466 52.1752 42.5512 53.7927 42.2918 54.8927C42.0948 55.6702 41.5086 55.9927 41.5086 55.2827C41.5086 55.0877 41.1145 54.4077 40.6581 53.7927C39.9418 52.8899 38.9488 52.2486 37.8326 51.968C36.7163 51.6874 35.5389 51.783 34.4823 52.2402Z" fill="#6C7993"/>
<path d="M55.5954 52.9851C51.5422 55.0876 52.5549 60.8176 57.067 61.3676C59.4515 61.6601 61.6739 59.8776 61.9682 57.4176C62.3922 54.0526 58.6009 51.4001 55.5954 52.9851ZM34.6761 63.3426C30.6254 65.4451 31.6381 71.1751 36.1477 71.7251C38.5322 72.0151 40.7546 70.2351 41.0489 67.7751C41.4729 64.4101 37.6816 61.7551 34.6761 63.3426ZM45.5859 63.7276C44.1143 64.3776 43.2987 65.6701 43.2987 67.3526C43.2987 68.7126 43.4633 69.0701 44.3787 69.9751C45.9152 71.5276 48.2024 71.5276 49.7389 69.9751C50.6518 69.0701 50.8164 68.7126 50.8164 67.3201C50.8164 65.9626 50.6518 65.5726 49.8037 64.7001C48.7237 63.6326 46.7956 63.2101 45.5884 63.7276H45.5859Z" fill="#6C7993"/>
</svg>
