<svg width="282" height="65" viewBox="0 0 282 65" fill="none" xmlns="http://www.w3.org/2000/svg">
<path d="M100.834 35.5478H68.8995C70.373 41.5789 75.2254 46.1278 81.5513 46.1278C85.1081 46.1278 88.614 44.5944 90.9513 41.9367L98.6746 42.1156C95.2703 48.6067 88.7919 52.7722 81.2719 52.7722C70.2968 52.7722 61.6589 43.1889 61.6589 32.3533C61.6589 21.16 70.1443 11.9856 81.4243 11.9856C92.3486 11.9856 101.063 21.0322 101.063 31.9444C101.037 33.12 100.961 34.3978 100.834 35.5478ZM81.3227 18.6044C75.073 18.6044 69.2805 23.5622 68.8741 29.9511H93.7713C93.3903 23.6133 87.6232 18.6044 81.3227 18.6044ZM132.819 51.8011V30.7433C132.819 24.1756 130.863 18.63 123.191 18.63C116.103 18.63 113.029 24.15 113.029 30.6922V51.8267H105.814V13.0333H112.571V17.1478H112.698C115.493 13.4422 119.532 11.96 123.978 11.96C129.466 11.96 134.623 14.1322 137.621 18.8856C139.476 21.8244 140.06 25.3767 140.06 28.8267V51.8011H132.819ZM178.524 51.8011V46.2811H178.397C175.196 50.7789 170.115 52.7722 164.754 52.7722C153.195 52.7722 144.709 44.1089 144.709 32.5578C144.709 20.93 153.068 11.96 164.754 11.96C169.606 11.96 174.764 13.8256 177.838 17.7611H177.965V0H185.18V51.8011H178.524ZM165.161 18.6044C157.514 18.6044 151.95 24.8911 151.95 32.4811C151.95 39.7389 157.742 46.1533 165.11 46.1533C172.63 46.1533 178.524 39.9944 178.524 32.4811C178.524 24.7122 173.036 18.6044 165.161 18.6044ZM206.139 64.7578H198.645L204.259 51.0344L188.889 13.0333H196.689L208.045 43.1378L219.655 13.0333H227.455L206.139 64.7578ZM248.033 52.7722C236.677 52.7722 227.226 43.5978 227.226 32.1233C227.226 20.7 236.905 11.96 248.033 11.96C259.313 11.96 268.84 20.7767 268.84 32.2511C268.84 43.3167 259.719 52.7722 248.033 52.7722ZM248.033 18.6044C240.513 18.6044 234.441 24.7633 234.441 32.3278C234.441 39.8922 240.488 46.1278 248.033 46.1278C255.629 46.1278 261.625 39.8411 261.625 32.2767C261.599 24.7122 255.528 18.6044 248.033 18.6044ZM274.734 51.8011V0H282V51.8011H274.734ZM7.16432 44.16C7.46919 45.3867 7.87568 46.4089 8.33297 47.1756C8.79027 47.9422 9.4 48.6067 10.0859 49.2456C12.3724 51.2644 15.2686 52.2867 18.6984 52.2867C22.1027 52.2867 25.2784 51.4433 28.1746 49.8333V42.8567C25.1768 44.62 22.3059 45.54 19.613 45.54C15.9546 45.54 14.0492 43.2911 14.0492 38.8444V19.8567H26.193V13.1356H14.1254V0.690001H6.96108V13.11H0V19.8311H6.65622V37.0556C6.65622 40.5567 6.83405 42.9333 7.16432 44.16ZM50.9378 19.5244C53.1735 19.5244 55.6378 20.7511 58.2546 23.23L62.1924 16.6622C58.9913 13.7233 55.1297 12.3689 52.8686 12.3689H52.3605C49.7692 12.3689 45.4249 12.3689 41.9189 18.1189L41.7919 18.3489L41.8173 13.1356H34.3227V51.5711H41.8173V31.4844C41.8173 28.2644 42.7065 25.4533 44.5103 23.0767C46.3141 20.7256 48.4735 19.5244 50.9378 19.5244Z" fill="#6C7993"/>
</svg>
