<svg width="182" height="40" viewBox="0 0 182 40" fill="none" xmlns="http://www.w3.org/2000/svg">
<path d="M54.7054 11.2936C53.4081 5.08434 50.8882 1.97973 47.1455 1.97975C44.2603 1.97975 42.5157 3.98198 42.5157 6.81666C42.5157 10.7087 46.0944 11.9459 49.1809 13.0484C54.0567 14.8031 58.0156 16.8954 58.0156 22.6096C58.0156 28.054 54.1687 32.4409 48.6441 32.4409C45.1102 32.4409 42.1355 30.4387 40.9501 29.4037L39.9212 31.7015H38.2214V20.135H40.0107C40.6593 23.0371 41.4645 25.2418 42.4486 26.7941C43.9919 29.2013 46.0049 30.4162 48.5099 30.4162C51.9096 30.4162 53.8108 28.0989 53.8108 24.7919C53.8108 20.4724 50.4558 19.2351 46.9219 18.0202C42.1355 16.4004 38.445 14.3307 38.445 8.77387C38.445 3.73449 41.8894 0 46.9666 0C49.8743 0 52.0662 1.28232 53.8555 2.63216L54.7054 0.697589H56.3606V11.2936H54.7054ZM68.2943 31.946L61.8527 15.0281C60.8687 12.4409 60.5108 12.036 59.1912 12.036H58.453V10.2362H68.7639V12.036H67.1984C66.3931 12.036 66.0577 12.3509 66.0577 12.9809C66.0867 13.3533 66.1774 13.7183 66.326 14.0607L70.7322 25.3543L74.445 14.9381C74.6385 14.4098 74.7589 13.8572 74.8029 13.2958C74.8029 12.4409 74.3779 12.036 73.3938 12.036H71.7835V10.2362H79.8354V12.036H79.0748C78.1355 12.036 77.7776 12.5534 77.1737 14.1957L70.0389 33.4083C68.3167 38.0652 66.8852 40 63.6868 40C61.2488 40 59.0345 38.4252 59.0345 35.8155C59.0345 34.1282 60.1529 32.8459 61.8751 32.8459C63.3737 32.8459 64.6038 33.8582 64.6038 35.4105C64.6038 36.5129 64.067 37.3453 62.9934 37.8852C63.2669 37.9791 63.5544 38.0247 63.8434 38.0202C65.6103 38.0202 66.5945 36.8054 67.847 33.2283L68.2943 31.946ZM92.9004 17.3678C91.9834 13.4308 90.1717 11.4735 87.4878 11.4735C85.6314 11.4735 84.4235 12.5534 84.4235 14.4432C84.4235 16.7379 87.1075 17.4353 88.8521 18.0202C92.5649 19.2351 95.8304 20.8549 95.8304 25.2193C95.8304 29.5163 92.632 32.1709 88.4943 32.1709C86.309 32.1585 84.1968 31.3787 82.5224 29.9662L81.9632 31.7015H80.3975V23.442H81.9632C82.9474 26.6591 84.5578 30.3262 88.4942 30.3262C90.5519 30.3262 91.8939 28.8864 91.8939 26.8391C91.8939 24.117 89.1429 23.1946 87.0181 22.4521C83.6631 21.2823 80.6213 19.7525 80.6213 15.748C80.6213 11.9685 83.596 9.76375 87.1746 9.76375C89.1261 9.8156 91.015 10.4672 92.5873 11.631L93.0346 10.2362H94.6002V17.3678H92.9004ZM111.37 26.3892C111.37 30.0562 109.267 32.1709 105.644 32.1709C102.02 32.1709 99.8957 30.0562 99.8957 26.3892V12.3509H96.6078V10.5061C98.6879 10.0112 100.075 9.2463 100.925 8.18897C101.842 7.06409 102.423 4.92684 102.736 2.24972H104.481V10.2362H110.676V12.3509H104.481V26.6591C104.481 29.0888 105.465 29.8312 106.539 29.8312C108.104 29.8312 109.2 28.6839 109.2 26.0067V23.8695H111.37V26.3892ZM118.188 21.0574C118.345 24.6344 118.501 30.1912 123.109 30.1912C126.128 30.1912 127.649 27.694 128.723 25.2418L130.557 26.2092C128.812 29.7637 126.665 32.3509 122.393 32.3509C115.862 32.3509 113.201 26.7266 113.201 20.9674C113.201 15.433 115.885 9.58377 121.99 9.58377C128.566 9.58377 130.602 15.928 130.736 21.0574H118.188ZM125.748 19.0776C125.659 13.9032 124.406 11.4735 122.08 11.4735C119.754 11.4735 118.39 14.1057 118.233 19.0776H125.748ZM161.393 15.973V27.694C161.416 29.3138 162.02 29.9437 163.63 29.9437H164.234V31.7015H156.808V16.4004C156.808 13.3858 155.914 12.1485 153.99 12.1485C151.575 12.1485 150.456 14.9381 150.456 18.8076V27.694C150.479 29.3138 151.082 29.9437 152.693 29.9437H153.431V31.7015H145.871V16.4004C145.871 13.3858 144.954 12.1485 143.031 12.1485C140.526 12.1485 139.497 14.9381 139.497 18.8076V27.694C139.519 29.3138 140.123 29.9437 141.733 29.9437H142.471V31.7015H131.847V29.9437H132.675C134.285 29.9437 134.912 29.3138 134.912 27.694V14.0382C134.889 12.4184 134.285 11.7885 132.675 11.7885H132.071V10.0337H139.228V12.4409C139.797 11.6154 140.555 10.9407 141.44 10.4744C142.324 10.0082 143.307 9.76437 144.306 9.76376C146.989 9.76376 148.756 11.0011 149.83 13.0484C150.352 12.0644 151.129 11.2402 152.077 10.6622C153.026 10.0843 154.111 9.77391 155.22 9.76376C159.157 9.76376 161.393 12.036 161.393 15.973ZM178.426 17.3678C177.509 13.4308 175.697 11.4735 173.013 11.4735C171.157 11.4735 169.949 12.5534 169.949 14.4432C169.949 16.7379 172.633 17.4353 174.378 18.0202C178.09 19.2351 181.356 20.8549 181.356 25.2193C181.356 29.5163 178.157 32.1709 174.02 32.1709C171.835 32.1585 169.722 31.3787 168.048 29.9663L167.489 31.7015H165.923V23.442H167.489C168.473 26.6591 170.083 30.3262 174.02 30.3262C176.077 30.3262 177.419 28.8864 177.419 26.8391C177.419 24.117 174.668 23.1946 172.544 22.4521C169.189 21.2823 166.147 19.7525 166.147 15.748C166.147 11.9685 169.121 9.76375 172.7 9.76375C174.652 9.8156 176.54 10.4672 178.113 11.631L178.56 10.2362H180.126V17.3678L178.426 17.3678ZM6.16474 21.1602H0V14.9594H6.16474V21.1602ZM0 0.697589V11.2389H1.84942V10.9289C1.84942 5.96826 4.62356 2.86786 9.86359 2.86786H10.1718V25.1907C10.1718 28.2911 8.93888 29.5312 5.8565 29.5312H4.93179V31.7015H20.9601V29.5312H20.0354C16.953 29.5312 15.7201 28.2911 15.7201 25.1907V2.86786H16.0283C21.2684 2.86786 24.0425 5.96826 24.0425 10.9289V11.2389H25.8919V0.697589H0ZM19.7272 21.1602H25.8919V14.9594H19.7272V21.1602Z" fill="#6C7993"/>
</svg>
