<svg width="144" height="40" viewBox="0 0 144 80" fill="none" xmlns="http://www.w3.org/2000/svg">
<path d="M15.75 8.27539H28.7134L35.2287 20.7081L32.9147 8.27539H43.0248L49.5626 20.6124L47.3609 8.27539H55.3591L58.9988 34.7347H47.3385L41.3173 24.4697L42.7776 34.7347H31.8812L15.75 8.27539ZM56.7744 8.27539H68.592L78.5223 34.7347H66.7272L56.7744 8.27539ZM81.6676 34.7347L71.7373 8.27539H83.2403L90.5647 27.7852H100.383L102.989 34.7347H81.6676ZM126.444 31.8337C124.512 34.5753 121.277 34.7664 118.446 34.7664H104.854L94.9231 8.30728H110.762C117.457 8.30728 120.333 10.2837 122.445 13.2803C124.782 16.5957 127.612 23.3221 127.612 27.6257C127.612 29.634 127.096 30.8773 126.444 31.8337ZM115.75 23.5133L113.93 18.6678C112.987 16.1175 111.773 15.0018 109.998 15.0018H108.493L113.391 28.0721H114.874C115.997 28.0721 116.671 27.5937 116.671 26.6694C116.649 25.9361 116.334 25.0435 115.75 23.5133Z" fill="#6C7993"/>
<path d="M58.4374 68.973H37.1162L47.0465 42.5137H58.5495L51.2254 62.0235H61.0436L58.4374 68.973ZM72.142 68.973H60.3244L70.2548 42.5137H82.0724L72.142 68.973ZM103.978 50.069H93.6203L92.1151 53.9264H101.686L99.1023 60.8439H89.5538L86.4534 68.973H75.2873L85.2179 42.5137H106.809L103.978 50.069ZM128.871 49.2083H117.525L116.244 52.4279H126.804L124.378 58.9313H113.841L112.538 62.2786H124.288L121.771 68.973H99.2596L109.19 42.5137H131.387L128.871 49.2083Z" fill="#6C7993"/>
</svg>
