<?xml version="1.0" encoding="UTF-8" standalone="no"?>
<!-- Generator: Adobe Illustrator 24.1.2, SVG Export Plug-In . SVG Version: 6.00 Build 0)  -->

<svg
   version="1.1"
   x="0px"
   y="0px"
   viewBox="0 0 246.065 132.691"
   enable-background="new 0 0 246.065 132.691"
   xml:space="preserve"
   id="svg5"
   sodipodi:docname="wso2-logo.svg"
   inkscape:version="1.3.2 (091e20e, 2023-11-25)"
   xmlns:inkscape="http://www.inkscape.org/namespaces/inkscape"
   xmlns:sodipodi="http://sodipodi.sourceforge.net/DTD/sodipodi-0.dtd"
   xmlns="http://www.w3.org/2000/svg"
   xmlns:svg="http://www.w3.org/2000/svg"><defs
   id="defs5" /><sodipodi:namedview
   id="namedview5"
   pagecolor="#ffffff"
   bordercolor="#000000"
   borderopacity="0.25"
   inkscape:showpageshadow="2"
   inkscape:pageopacity="0.0"
   inkscape:pagecheckerboard="0"
   inkscape:deskcolor="#d1d1d1"
   inkscape:zoom="1.7785683"
   inkscape:cx="122.85162"
   inkscape:cy="66.064373"
   inkscape:window-width="1480"
   inkscape:window-height="842"
   inkscape:window-x="0"
   inkscape:window-y="38"
   inkscape:window-maximized="0"
   inkscape:current-layer="g5" />
<g
   id="Layer_3">
</g>
<g
   id="Layer_1">
	<g
   id="g5">
		<polygon
   fill="#FF7300"
   points="83.101,73.322 67.303,30.43 50.56,73.226 36.279,33.216 29.781,33.216 50.305,89.405 67.145,46.608 82.926,89.452 105.31,33.216 98.814,33.216 "
   id="polygon1"
   style="fill:#6c7993;fill-opacity:1"
   transform="matrix(1.1899137,0,0,1.2688169,-23.52732,-13.985478)" />
		<path
   fill="#FF7300"
   d="m 131.66599,64.381735 c -3.11877,-2.717805 -19.45391,-11.767007 -21.5553,-13.331459 -2.09424,-1.559377 -3.14613,-3.831828 -3.14613,-6.814817 0,-2.986795 1.06735,-5.411504 3.19612,-7.274127 2.12875,-1.874043 4.72037,-2.799011 7.77252,-2.799011 1.96811,0 3.64945,0.403483 5.05237,1.22314 1.39815,0.815849 2.73441,2.140493 4.00286,3.971397 l 0.67229,1.111484 c 0.18683,0.143376 0.44742,0.48215 0.76512,1.016322 l 5.62711,-3.859741 c -1.84436,-3.460065 -4.14804,-6.086515 -6.91817,-7.886966 -2.76177,-1.794108 -5.73775,-2.6937 -8.91126,-2.6937 -5.40696,0 -9.83106,1.622819 -13.26516,4.879871 -3.42932,3.254516 -5.14399,7.43273 -5.14399,12.520687 0,4.808816 1.55046,8.523912 4.66684,11.13133 3.11996,2.60869 18.66379,11.212537 21.07933,12.976192 2.4179,1.759849 3.6209,4.369807 3.6209,7.82987 0,3.933333 -1.2149,7.199269 -3.66731,9.805417 -2.45004,2.617572 -5.55214,3.918108 -9.2968,3.918108 -3.30439,0 -6.0388,-1.08357 -8.19851,-3.257053 -2.16326,-2.172215 -3.69349,-5.279548 -4.58235,-9.349913 l -6.869362,2.240731 c 0.598518,2.74572 1.473092,5.191999 2.603522,7.322344 1.16255,2.174751 2.59996,4.019611 4.31463,5.534579 3.39958,3.022322 7.70826,4.533483 12.92603,4.533483 5.53072,0 10.23087,-2.023763 14.11476,-6.054795 3.87435,-4.034837 5.81391,-8.96673 5.81391,-14.802018 0,-5.216108 -1.5564,-9.184967 -4.67397,-11.891355 z"
   id="path1"
   style="fill:#6c7993;fill-opacity:1;stroke-width:1.22873" />
		<path
   d="m 211.74956,59.715027 c 1.60281,-0.485957 3.30439,-0.730839 5.12377,-0.730839 4.84532,0 8.76965,1.672302 11.75991,5.013096 3.00095,3.328108 4.50619,7.26144 4.50619,11.792385 0,3.184731 -0.71869,6.168989 -2.1573,8.957849 -1.4279,2.786321 -4.21229,6.572472 -8.34963,11.32673 l -13.11166,15.088772 h 24.32541 v 5.42673 h -35.78546 l 20.13572,-23.185094 c 4.07902,-4.670515 6.73847,-8.126773 7.97122,-10.380192 1.23395,-2.247075 1.84675,-4.624838 1.84675,-7.112988 0,-3.160623 -1.10304,-5.883505 -3.31985,-8.158494 -2.20611,-2.273719 -4.91316,-3.418193 -8.1176,-3.418193 -1.83247,0 -3.49358,0.35527 -4.99406,1.062 0.13445,-1.362709 0.18324,-5.174235 0.16659,-5.681762 z"
   id="path2"
   style="fill:#6c7993;fill-opacity:1;stroke-width:1.22873" />
		<g
   id="g4"
   transform="matrix(1.1899137,0,0,1.2688169,-23.52732,-13.985478)">
			<ellipse
   fill-rule="evenodd"
   clip-rule="evenodd"
   fill="#FF7300"
   cx="165.38499"
   cy="59.941002"
   rx="24.356001"
   ry="24.615999"
   id="ellipse2"
   style="fill:#6c7993;fill-opacity:1" />
			<path
   d="m 165.385,29.706 c -16.745,0 -30.319,13.537 -30.319,30.235 0,16.698 13.574,30.235 30.319,30.235 16.744,0 30.319,-13.537 30.319,-30.235 0,-16.698 -13.575,-30.235 -30.319,-30.235 z m 0,54.851 c -13.451,0 -24.356,-11.021 -24.356,-24.616 0,-13.595 10.905,-24.616 24.356,-24.616 13.451,0 24.356,11.021 24.356,24.616 0,13.595 -10.905,24.616 -24.356,24.616 z"
   id="path3"
   style="fill:#6c7993;fill-opacity:1" />
			<path
   fill="#ffffff"
   d="m 189.66,58.023 -8.826,0.021 -4.4,7.918 -10.98,-26.767 -9.878,21.988 -14.517,-0.031 c 0.058,1.211 0.205,2.399 0.431,3.558 l 16.385,0.035 7.43,-16.54 10.645,25.949 6.979,-12.558 6.752,-0.016 c 0.035,-0.542 0.06,-1.088 0.06,-1.639 0,-0.646 -0.033,-1.284 -0.081,-1.918 z"
   id="path4" />
		</g>
	</g>
</g>
<g
   id="menu">
</g>
</svg>
