<svg width="262" height="55" viewBox="0 0 262 92" fill="none" xmlns="http://www.w3.org/2000/svg">
<path d="M0 28.7983H15.5867L24.6648 51.5108L33.8578 28.7983H49.0354L26.1816 82.5631H10.9075L17.1633 68.3169L0 28.8006V28.7983ZM64.8473 27.8944C53.1354 27.8944 45.7305 38.1662 45.7305 48.3966C45.7305 59.9081 53.8479 69.0345 64.6244 69.0345C72.6613 69.0345 75.6927 64.2459 75.6927 64.2459V67.9765H89.2891V28.7983H75.6927V32.361C75.6927 32.361 72.3143 27.8944 64.8473 27.8944ZM67.7385 40.4846C73.1417 40.4846 75.9294 44.666 75.9294 48.4403C75.9294 52.5021 72.9417 56.4903 67.7385 56.4903C63.4247 56.4903 59.5269 53.0426 59.5269 48.6128C59.5269 44.1209 62.6617 40.4846 67.7385 40.4846ZM93.9684 67.9765V11.5H108.188V32.499C108.188 32.499 111.566 27.899 118.638 27.899C127.291 27.899 132.361 34.2056 132.361 43.217V67.9765H118.245V46.6095C118.245 43.5574 116.76 40.6134 113.395 40.6134C109.971 40.6134 108.188 43.6034 108.188 46.6072V67.9765H93.9684ZM156.6 27.8967C143.188 27.8967 135.203 37.8718 135.203 48.5576C135.203 60.72 144.87 69.0322 156.651 69.0322C168.066 69.0322 178.057 61.0972 178.057 48.7623C178.057 35.2659 167.597 27.8967 156.6 27.8967ZM156.727 40.5973C161.466 40.5973 164.743 44.4567 164.743 48.5714C164.743 52.0812 161.686 56.4121 156.727 56.4121C152.181 56.4121 148.77 52.8471 148.77 48.5346C148.77 44.3808 151.606 40.5973 156.727 40.5973ZM201.747 27.8967C188.337 27.8967 180.35 37.8718 180.35 48.5576C180.35 60.72 190.019 69.0322 201.797 69.0322C213.215 69.0322 223.206 61.0972 223.206 48.7623C223.206 35.2659 212.744 27.8967 201.747 27.8967ZM201.876 40.5973C206.612 40.5973 209.89 44.4567 209.89 48.5714C209.89 52.0812 206.838 56.4121 201.876 56.4121C197.33 56.4121 193.919 52.8471 193.919 48.5346C193.919 44.3808 196.755 40.5973 201.876 40.5973ZM234.437 68.8091C239.652 68.8091 243.878 64.6737 243.878 59.5746C243.878 54.4732 239.652 50.3401 234.437 50.3401C229.22 50.3401 224.994 54.4732 224.994 59.5746C224.994 64.6737 229.222 68.8091 234.437 68.8091ZM246.976 46.9476H229.976L245.064 11.5H262L246.976 46.9476Z" fill="#6C7993"/>
</svg>
