<svg width="61" height="14" viewBox="0 0 61 14" fill="none" xmlns="http://www.w3.org/2000/svg">
<path d="M1.69602 11L2.49716 8.69034H5.90625L6.70312 11H8.10085L4.96023 2.27273H3.43892L0.298295 11H1.69602ZM2.88068 7.58239L4.16761 3.85795H4.2358L5.52273 7.58239H2.88068ZM11.133 2.27273H9.85888V11H11.133V2.27273ZM16.1915 13.5909C17.8577 13.5909 19.1446 12.8281 19.1446 11.1449V4.45455H17.896V5.51562H17.8023C17.5764 5.1108 17.1247 4.36932 15.906 4.36932C14.325 4.36932 13.1616 5.6179 13.1616 7.7017C13.1616 9.78977 14.3506 10.902 15.8974 10.902C17.0991 10.902 17.5636 10.2244 17.7937 9.80682H17.8747V11.0938C17.8747 12.1207 17.1716 12.5639 16.2043 12.5639C15.1432 12.5639 14.7298 12.0312 14.504 11.6562L13.4088 12.108C13.754 12.9091 14.6276 13.5909 16.1915 13.5909ZM16.1787 9.84517C15.0409 9.84517 14.4486 8.97159 14.4486 7.68466C14.4486 6.42756 15.0281 5.4517 16.1787 5.4517C17.2909 5.4517 17.8875 6.35938 17.8875 7.68466C17.8875 9.03551 17.2781 9.84517 16.1787 9.84517ZM24.2105 11.1321C26.0557 11.1321 27.2616 9.78125 27.2616 7.7571C27.2616 5.72017 26.0557 4.36932 24.2105 4.36932C22.3653 4.36932 21.1594 5.72017 21.1594 7.7571C21.1594 9.78125 22.3653 11.1321 24.2105 11.1321ZM24.2148 10.0625C23.0088 10.0625 22.4463 9.00994 22.4463 7.75284C22.4463 6.5 23.0088 5.43466 24.2148 5.43466C25.4122 5.43466 25.9747 6.5 25.9747 7.75284C25.9747 9.00994 25.4122 10.0625 24.2148 10.0625ZM30.558 2.27273H29.2839V11H30.558V2.27273ZM32.8722 11H34.1463V4.45455H32.8722V11ZM33.5156 3.4446C33.9545 3.4446 34.321 3.10369 34.321 2.68608C34.321 2.26847 33.9545 1.9233 33.5156 1.9233C33.0724 1.9233 32.7102 2.26847 32.7102 2.68608C32.7102 3.10369 33.0724 3.4446 33.5156 3.4446ZM38.3653 11.1449C39.4477 11.1449 40.057 10.5952 40.2999 10.1051H40.3511V11H41.5954V6.65341C41.5954 4.74858 40.0954 4.36932 39.0556 4.36932C37.871 4.36932 36.78 4.84659 36.3539 6.03977L37.5513 6.3125C37.7388 5.84801 38.2161 5.40057 39.0727 5.40057C39.8951 5.40057 40.317 5.83097 40.317 6.57244V6.60227C40.317 7.06676 39.8397 7.05824 38.6636 7.1946C37.4235 7.33949 36.1536 7.66335 36.1536 9.15057C36.1536 10.4375 37.121 11.1449 38.3653 11.1449ZM38.6423 10.1222C37.9221 10.1222 37.4022 9.7983 37.4022 9.16761C37.4022 8.4858 38.0073 8.2429 38.7445 8.14489C39.1579 8.08949 40.138 7.97869 40.3212 7.79545V8.6392C40.3212 9.41477 39.7033 10.1222 38.6423 10.1222Z" fill="#D1D7E0"/>
<path d="M54.134 2.60281C51.1394 2.60281 48.71 5.0315 48.71 8.03096C48.71 11.0304 51.1394 13.4533 54.134 13.4533C57.1285 13.4533 59.5579 11.0246 59.5579 8.02513C59.5579 5.02567 57.1343 2.60281 54.134 2.60281ZM54.134 11.8516C52.025 11.8516 50.3121 10.1393 50.3121 8.03096C50.3121 5.9226 52.025 4.21029 54.134 4.21029C56.243 4.21029 57.9558 5.9226 57.9558 8.03096C57.9558 10.1393 56.2488 11.8516 54.134 11.8516ZM54.134 4.99073V7.83876C54.134 7.9203 54.2214 7.97854 54.2971 7.93777L56.8256 6.62733C56.8838 6.59821 56.9013 6.52832 56.8722 6.47007C56.3478 5.54985 55.3749 4.92084 54.2505 4.88007C54.1922 4.88007 54.134 4.92666 54.134 4.99073ZM50.5918 2.89985L50.2597 2.56787C49.9335 2.24171 49.4091 2.24171 49.0829 2.56787L48.6867 2.96391C48.3605 3.29007 48.3605 3.81424 48.6867 4.1404L49.013 4.46655C49.0654 4.51897 49.1411 4.50732 49.1877 4.4549C49.38 4.19282 49.5897 3.94238 49.8228 3.70941C50.0616 3.47062 50.3063 3.26095 50.5743 3.06875C50.6326 3.0338 50.6384 2.95226 50.5918 2.89985ZM55.9109 2.03787V1.37973C55.9109 0.919623 55.538 0.546875 55.0778 0.546875H53.1377C52.6775 0.546875 52.3046 0.919623 52.3046 1.37973V2.05534C52.3046 2.13105 52.3745 2.18347 52.4503 2.166C52.9921 2.00875 53.563 1.92721 54.1398 1.92721C54.6933 1.92721 55.2409 2.00292 55.7711 2.14853C55.841 2.166 55.9109 2.11358 55.9109 2.03787Z" fill="#D1D7E0"/>
</svg>
