<svg width="87" height="20" viewBox="0 0 87 20" fill="none" xmlns="http://www.w3.org/2000/svg">
  <g clip-path="url(#clip0_15873_133145)">
    <path fill-rule="evenodd" clip-rule="evenodd"
      d="M42.4043 11.0122V0.236584C42.4043 0.0913837 42.2759 -0.0190163 42.1341 0.00338373L40.1352 0.320984C40.0215 0.338984 39.9375 0.438184 39.9375 0.554584L39.9442 11.4834C39.9442 12.0002 39.9442 15.1914 43.746 15.303C43.8779 15.307 43.9872 15.1998 43.9872 15.0666V13.4354C43.9872 13.317 43.9005 13.215 43.7844 13.2018C42.4039 13.0414 42.4039 11.299 42.4039 11.013L42.4043 11.0122Z"
      fill="#003DFF" />
    <path
      d="M75.3703 4.18896H73.3587C73.2296 4.18896 73.125 4.29463 73.125 4.42496V15.069C73.125 15.1993 73.2296 15.305 73.3587 15.305H75.3703C75.4994 15.305 75.604 15.1993 75.604 15.069V4.42496C75.604 4.29463 75.4994 4.18896 75.3703 4.18896Z"
      fill="#003DFF" />
    <path fill-rule="evenodd" clip-rule="evenodd"
      d="M73.3591 2.85529H75.3703C75.4995 2.85529 75.604 2.74969 75.604 2.61929V0.236087C75.604 0.0912872 75.4757 -0.0195128 75.3339 0.00288716L73.3227 0.320887C73.209 0.338887 73.125 0.437687 73.125 0.554087V2.61889C73.125 2.74929 73.2296 2.85489 73.3587 2.85489L73.3591 2.85529Z"
      fill="#003DFF" />
    <path fill-rule="evenodd" clip-rule="evenodd"
      d="M69.8808 11.0122V0.236584C69.8808 0.0913837 69.7525 -0.0190163 69.6107 0.00338373L67.6117 0.320984C67.498 0.338984 67.4141 0.438184 67.4141 0.554584L67.4208 11.4834C67.4208 12.0002 67.4208 15.1914 71.2225 15.303C71.3545 15.307 71.4638 15.1998 71.4638 15.0666V13.4354C71.4638 13.317 71.377 13.215 71.261 13.2018C69.8804 13.0414 69.8804 11.299 69.8804 11.013L69.8808 11.0122Z"
      fill="#003DFF" />
    <path fill-rule="evenodd" clip-rule="evenodd"
      d="M64.6507 5.70902C64.2094 5.21902 63.6671 4.84302 63.0352 4.57662C62.4046 4.31542 61.7176 4.18262 60.9725 4.18262C60.2286 4.18262 59.5405 4.30942 58.9158 4.57662C58.2982 4.84302 57.7555 5.21862 57.3011 5.70902C56.8467 6.19822 56.4938 6.78382 56.241 7.47022C55.9883 8.15702 55.875 8.96502 55.875 9.80462C55.875 10.6442 56.0014 11.2794 56.2533 11.973C56.506 12.6658 56.8531 13.2574 57.3011 13.7474C57.7483 14.2366 58.2847 14.6122 58.9094 14.8858C59.5341 15.159 60.4987 15.299 60.9852 15.305C61.4705 15.305 62.4422 15.1522 63.0728 14.8858C63.7035 14.6186 64.2399 14.2366 64.6883 13.7474C65.1355 13.2574 65.4826 12.6658 65.7282 11.973C65.9746 11.2794 66.0942 10.6442 66.0942 9.80462C66.0942 8.96502 65.9619 8.15702 65.6969 7.47022C65.4441 6.78342 65.0971 6.19822 64.6499 5.70902H64.6507ZM62.8906 12.259C62.4362 12.889 61.7989 13.207 60.9856 13.207C60.1715 13.207 59.5345 12.895 59.0802 12.259C58.6258 11.629 58.3984 10.8986 58.3984 9.81102C58.3984 8.73542 58.6198 7.84542 59.0742 7.21622C59.5278 6.58622 60.1652 6.27542 60.9785 6.27542C61.7925 6.27542 62.4295 6.58662 62.8835 7.21622C63.3379 7.83902 63.5712 8.73542 63.5712 9.81102C63.5712 10.8986 63.3446 11.623 62.8902 12.259H62.8906Z"
      fill="#003DFF" />
    <path fill-rule="evenodd" clip-rule="evenodd"
      d="M35.4346 4.18896H33.4804C31.5647 4.18896 29.8791 5.20816 28.8951 6.75296C28.3199 7.65616 27.9844 8.73816 27.9844 9.90216C27.9844 11.6978 28.7818 13.299 30.0281 14.3462C30.1441 14.4502 30.2677 14.5454 30.3969 14.6318C30.9063 14.9714 31.5104 15.1706 32.1605 15.1706C32.2092 15.1706 32.2579 15.1694 32.3063 15.167C32.3205 15.1662 32.3344 15.165 32.3486 15.1642C32.3831 15.1622 32.418 15.1598 32.4524 15.1562C32.4659 15.155 32.4794 15.153 32.4928 15.1514C32.5289 15.1474 32.5649 15.143 32.601 15.1378C32.6093 15.1366 32.6176 15.135 32.6259 15.1338C33.9288 14.931 35.0646 13.901 35.4346 12.6214V14.9346C35.4346 15.065 35.5391 15.1706 35.6683 15.1706H37.6656C37.7948 15.1706 37.8993 15.065 37.8993 14.9346V4.42496C37.8993 4.29456 37.7948 4.18896 37.6656 4.18896H35.4346ZM35.4346 12.4658C34.9513 12.8722 34.3266 13.025 33.6583 13.0706C33.6519 13.071 33.6452 13.0718 33.6389 13.0722C33.5945 13.075 33.5501 13.0762 33.5058 13.0762C31.8325 13.0762 30.4507 11.6406 30.4507 9.90136C30.4507 9.49136 30.5284 9.10096 30.6654 8.74216C31.1099 7.57736 32.2013 6.75256 33.4804 6.75256H35.4346V12.4658Z"
      fill="#003DFF" />
    <path fill-rule="evenodd" clip-rule="evenodd"
      d="M84.5361 4.18896H82.582C80.6662 4.18896 78.9807 5.20816 77.9967 6.75296C77.4215 7.65616 77.0859 8.73816 77.0859 9.90216C77.0859 11.6978 77.8834 13.299 79.1296 14.3462C79.2457 14.4502 79.3693 14.5454 79.4984 14.6318C80.0079 14.9714 80.612 15.1706 81.262 15.1706C81.3108 15.1706 81.3595 15.1694 81.4078 15.167C81.4221 15.1662 81.4359 15.165 81.4502 15.1642C81.4847 15.1622 81.5195 15.1598 81.554 15.1562C81.5675 15.155 81.5809 15.153 81.5944 15.1514C81.6304 15.1474 81.6665 15.143 81.7025 15.1378C81.7109 15.1366 81.7192 15.135 81.7275 15.1338C83.0304 14.931 84.1661 13.901 84.5361 12.6214V14.9346C84.5361 15.065 84.6407 15.1706 84.7698 15.1706H86.7672C86.8963 15.1706 87.0009 15.065 87.0009 14.9346V4.42496C87.0009 4.29456 86.8963 4.18896 86.7672 4.18896H84.5361ZM84.5361 12.4658C84.0528 12.8722 83.4281 13.025 82.7598 13.0706C82.7535 13.071 82.7468 13.0718 82.7404 13.0722C82.6961 13.075 82.6517 13.0762 82.6073 13.0762C80.934 13.0762 79.5523 11.6406 79.5523 9.90136C79.5523 9.49136 79.6299 9.10096 79.767 8.74216C80.2115 7.57736 81.3028 6.75256 82.582 6.75256H84.5361V12.4658Z"
      fill="#003DFF" />
    <path fill-rule="evenodd" clip-rule="evenodd"
      d="M52.0517 4.18896H50.0976C48.1819 4.18896 46.4963 5.20816 45.5123 6.75296C45.0452 7.48656 44.7359 8.33856 44.6364 9.25656C44.6134 9.46856 44.6016 9.68376 44.6016 9.90216C44.6016 10.1206 44.6138 10.3482 44.6384 10.5658C44.808 12.0894 45.5551 13.4302 46.6452 14.3466C46.7613 14.4506 46.8849 14.5458 47.014 14.6322C47.5235 14.9718 48.1276 15.171 48.7777 15.171C49.4903 15.171 50.1487 14.9338 50.6855 14.5322C51.3308 14.069 51.8295 13.3906 52.0514 12.6222V14.6326H52.047V15.0758C52.047 15.9494 51.8208 16.6066 51.3601 17.0502C50.9002 17.4934 50.1305 17.7154 49.0526 17.7154C48.6121 17.7154 47.9121 17.6918 47.2066 17.619C47.0945 17.6074 46.9903 17.679 46.9582 17.7878L46.4519 19.5122C46.4115 19.6506 46.5022 19.793 46.6433 19.8134C47.4958 19.9366 48.3276 20.0006 48.8082 20.0006C50.7457 20.0006 52.1817 19.5706 53.1217 18.7122C53.9726 17.9358 54.4349 16.7566 54.5161 15.1714V4.42496C54.5161 4.29456 54.4115 4.18896 54.2824 4.18896H52.0514H52.0517ZM52.0517 6.75296C52.0517 6.75296 52.0775 12.3182 52.0517 12.4874C51.5732 12.8782 50.9778 13.031 50.3289 13.0754C50.3226 13.0758 50.3159 13.0766 50.3095 13.077C50.2652 13.0798 50.2208 13.081 50.1764 13.081C50.1241 13.081 50.0722 13.0798 50.0203 13.077C48.4195 12.9926 47.0683 11.5866 47.0683 9.90176C47.0683 9.49177 47.146 9.10137 47.283 8.74256C47.7275 7.57776 48.8189 6.75296 50.098 6.75296H52.0521H52.0517Z"
      fill="#003DFF" />
    <path
      d="M9.89659 0C4.48811 0 0.0790831 4.4036 0.00104373 9.8464C-0.078184 15.374 4.36332 19.9544 9.83836 19.9864C11.5291 19.9964 13.1576 19.5788 14.6039 18.7852C14.7449 18.708 14.7667 18.512 14.6467 18.4048L13.7205 17.576C13.5324 17.4076 13.2646 17.36 13.0328 17.4592C12.0235 17.8928 10.9266 18.1144 9.79597 18.1004C5.37189 18.0456 1.79753 14.3288 1.86805 9.862C1.93777 5.4516 5.51252 1.8856 9.89659 1.8856H17.9259V16.2964L13.3703 12.2092C13.223 12.0768 12.9972 12.1028 12.8783 12.2616C12.1471 13.2392 10.9559 13.8472 9.63276 13.7552C7.79745 13.6272 6.31035 12.1352 6.17289 10.2828C6.00849 8.0732 7.74278 6.222 9.89659 6.222C11.8448 6.222 13.4492 7.736 13.6167 9.66C13.6318 9.8312 13.7082 9.9908 13.8354 10.1048L15.0218 11.1668C15.1565 11.2872 15.37 11.2136 15.4033 11.0348C15.4889 10.5728 15.519 10.0916 15.4853 9.598C15.2944 6.7844 13.0372 4.5208 10.2495 4.3476C7.0535 4.1488 4.38155 6.6732 4.29677 9.8376C4.21398 12.9216 6.71639 15.58 9.77102 15.648C11.0462 15.6764 12.2283 15.2716 13.1834 14.57L19.1357 19.898C19.3909 20.1264 19.7937 19.9436 19.7937 19.5992V0.3792C19.7933 0.17 19.6254 0 19.4178 0H9.89659Z"
      fill="#003DFF" />
  </g>
  <defs>
    <clipPath id="clip0_15873_133145">
      <rect width="87" height="20" fill="white" />
    </clipPath>
  </defs>
</svg>
