<svg width="345" height="214" viewBox="0 0 345 214" fill="none" xmlns="http://www.w3.org/2000/svg">
<g clip-path="url(#clip0)">
<path d="M166.339 213.999C208.965 213.999 243.521 211.213 243.521 207.776C243.521 204.339 208.965 201.553 166.339 201.553C123.713 201.553 89.1582 204.339 89.1582 207.776C89.1582 211.213 123.713 213.999 166.339 213.999Z" fill="#F4F4F4"/>
<path d="M343.137 135.658H173.268C173.011 135.658 172.765 135.76 172.584 135.942C172.403 136.124 172.301 136.37 172.301 136.627V140.699C172.301 140.956 172.403 141.203 172.584 141.384C172.765 141.566 173.011 141.668 173.268 141.668H343.137C343.265 141.669 343.392 141.645 343.51 141.597C343.629 141.549 343.736 141.478 343.827 141.387C343.918 141.297 343.99 141.19 344.039 141.072C344.088 140.954 344.113 140.827 344.113 140.699V136.61C344.109 136.354 344.003 136.111 343.821 135.933C343.638 135.754 343.392 135.656 343.137 135.658V135.658Z" fill="#FAFAFA" stroke="#CECECE" stroke-width="2" stroke-miterlimit="10"/>
<path d="M286.449 82.2461H273.852C273.595 82.2461 273.349 82.3482 273.168 82.5299C272.987 82.7116 272.885 82.9581 272.885 83.2151V134.681C272.884 134.809 272.908 134.936 272.956 135.055C273.004 135.174 273.075 135.281 273.165 135.372C273.255 135.463 273.362 135.536 273.48 135.585C273.598 135.634 273.724 135.659 273.852 135.659H286.449C286.577 135.659 286.703 135.634 286.821 135.585C286.939 135.536 287.046 135.463 287.136 135.372C287.226 135.281 287.297 135.174 287.345 135.055C287.393 134.936 287.417 134.809 287.416 134.681V83.2151C287.416 82.9581 287.314 82.7116 287.133 82.5299C286.952 82.3482 286.706 82.2461 286.449 82.2461Z" fill="#FAFAFA"/>
<path d="M286.981 90.4238H272.787V93.98H286.981V90.4238Z" fill="#DEDEDE"/>
<path d="M286.981 124.207H272.787V127.763H286.981V124.207Z" fill="#DEDEDE"/>
<path d="M311.208 82.2461H305.885C305.629 82.2461 305.383 82.3482 305.201 82.5299C305.02 82.7116 304.918 82.9581 304.918 83.2151V134.681C304.917 134.809 304.941 134.936 304.989 135.055C305.037 135.174 305.108 135.281 305.198 135.372C305.288 135.463 305.395 135.536 305.513 135.585C305.631 135.634 305.757 135.659 305.885 135.659H311.208C311.336 135.659 311.462 135.634 311.58 135.585C311.698 135.536 311.805 135.463 311.895 135.372C311.985 135.281 312.056 135.174 312.104 135.055C312.152 134.936 312.176 134.809 312.175 134.681V83.2151C312.175 82.9581 312.073 82.7116 311.892 82.5299C311.71 82.3482 311.464 82.2461 311.208 82.2461Z" fill="#FAFAFA"/>
<path d="M311.822 88.6465H304.725V91.3136H311.822V88.6465Z" fill="#DEDEDE"/>
<path d="M311.822 126.875H304.725V129.542H311.822V126.875Z" fill="#DEDEDE"/>
<path d="M303.934 82.2461H288.373C288.117 82.2461 287.871 82.3482 287.689 82.5299C287.508 82.7116 287.406 82.9581 287.406 83.2151V134.681C287.405 134.809 287.429 134.936 287.477 135.055C287.525 135.174 287.596 135.281 287.686 135.372C287.776 135.463 287.883 135.536 288.001 135.585C288.119 135.634 288.246 135.659 288.373 135.659H303.934C304.061 135.659 304.188 135.634 304.306 135.585C304.424 135.536 304.531 135.463 304.621 135.372C304.711 135.281 304.782 135.174 304.83 135.055C304.878 134.936 304.902 134.809 304.901 134.681V83.2151C304.901 82.9581 304.799 82.7116 304.617 82.5299C304.436 82.3482 304.19 82.2461 303.934 82.2461Z" fill="#FAFAFA"/>
<path d="M298.842 97.5363H293.767C293.275 97.4804 292.777 97.5413 292.312 97.7141V116.908C292.312 117.015 292.969 117.095 293.767 117.095H298.842C299.649 117.095 300.297 117.015 300.297 116.908V97.7141C299.833 97.5403 299.334 97.4794 298.842 97.5363V97.5363Z" fill="#DEDEDE"/>
<path d="M271.9 84.1035H261.938C261.81 84.1035 261.684 84.1289 261.566 84.1781C261.448 84.2274 261.341 84.2996 261.251 84.3905C261.161 84.4814 261.09 84.5893 261.042 84.7079C260.994 84.8265 260.97 84.9534 260.971 85.0814V134.681C260.97 134.809 260.994 134.936 261.042 135.054C261.09 135.173 261.161 135.281 261.251 135.372C261.341 135.463 261.448 135.535 261.566 135.584C261.684 135.633 261.81 135.659 261.938 135.659H271.9C272.028 135.659 272.154 135.633 272.272 135.584C272.39 135.535 272.497 135.463 272.587 135.372C272.677 135.281 272.748 135.173 272.796 135.054C272.844 134.936 272.868 134.809 272.867 134.681V85.0459C272.86 84.7935 272.755 84.5539 272.575 84.3779C272.394 84.2018 272.152 84.1034 271.9 84.1035Z" fill="#FAFAFA"/>
<path d="M269.663 87.5879H264.189V118.144H269.663V87.5879Z" fill="#DEDEDE"/>
<path d="M260.092 84.1035H250.129C250.001 84.1035 249.875 84.1289 249.757 84.1781C249.639 84.2274 249.532 84.2996 249.442 84.3905C249.352 84.4814 249.281 84.5893 249.233 84.7079C249.185 84.8265 249.161 84.9534 249.162 85.0814V134.681C249.161 134.809 249.185 134.936 249.233 135.054C249.281 135.173 249.352 135.281 249.442 135.372C249.532 135.463 249.639 135.535 249.757 135.584C249.875 135.633 250.001 135.659 250.129 135.659H260.092C260.219 135.659 260.346 135.633 260.464 135.584C260.582 135.535 260.689 135.463 260.779 135.372C260.869 135.281 260.94 135.173 260.988 135.054C261.036 134.936 261.06 134.809 261.059 134.681V85.0459C261.052 84.7935 260.947 84.5539 260.766 84.3779C260.586 84.2018 260.344 84.1034 260.092 84.1035V84.1035Z" fill="#FAFAFA"/>
<path d="M257.848 87.5879H252.383V118.144H257.857L257.848 87.5879Z" fill="#DEDEDE"/>
<path d="M286.449 82.2461H273.852C273.595 82.2461 273.349 82.3482 273.168 82.5299C272.987 82.7116 272.885 82.9581 272.885 83.2151V134.681C272.884 134.809 272.908 134.936 272.956 135.055C273.004 135.174 273.075 135.281 273.165 135.372C273.255 135.463 273.362 135.536 273.48 135.585C273.598 135.634 273.724 135.659 273.852 135.659H286.449C286.577 135.659 286.703 135.634 286.821 135.585C286.939 135.536 287.046 135.463 287.136 135.372C287.226 135.281 287.297 135.174 287.345 135.055C287.393 134.936 287.417 134.809 287.416 134.681V83.2151C287.416 82.9581 287.314 82.7116 287.133 82.5299C286.952 82.3482 286.706 82.2461 286.449 82.2461Z" stroke="#CECECE" stroke-width="2" stroke-miterlimit="10"/>
<path d="M311.208 82.2461H305.885C305.629 82.2461 305.383 82.3482 305.201 82.5299C305.02 82.7116 304.918 82.9581 304.918 83.2151V134.681C304.917 134.809 304.941 134.936 304.989 135.055C305.037 135.174 305.108 135.281 305.198 135.372C305.288 135.463 305.395 135.536 305.513 135.585C305.631 135.634 305.757 135.659 305.885 135.659H311.208C311.336 135.659 311.462 135.634 311.58 135.585C311.698 135.536 311.805 135.463 311.895 135.372C311.985 135.281 312.056 135.174 312.104 135.055C312.152 134.936 312.176 134.809 312.175 134.681V83.2151C312.175 82.9581 312.073 82.7116 311.892 82.5299C311.71 82.3482 311.464 82.2461 311.208 82.2461Z" stroke="#CECECE" stroke-width="2" stroke-miterlimit="10"/>
<path d="M303.934 82.2461H288.373C288.117 82.2461 287.871 82.3482 287.689 82.5299C287.508 82.7116 287.406 82.9581 287.406 83.2151V134.681C287.405 134.809 287.429 134.936 287.477 135.055C287.525 135.174 287.596 135.281 287.686 135.372C287.776 135.463 287.883 135.536 288.001 135.585C288.119 135.634 288.246 135.659 288.373 135.659H303.934C304.061 135.659 304.188 135.634 304.306 135.585C304.424 135.536 304.531 135.463 304.621 135.372C304.711 135.281 304.782 135.174 304.83 135.055C304.878 134.936 304.902 134.809 304.901 134.681V83.2151C304.901 82.9581 304.799 82.7116 304.617 82.5299C304.436 82.3482 304.19 82.2461 303.934 82.2461Z" stroke="#CECECE" stroke-width="2" stroke-miterlimit="10"/>
<path d="M271.9 84.1035H261.938C261.81 84.1035 261.684 84.1289 261.566 84.1781C261.448 84.2274 261.341 84.2996 261.251 84.3905C261.161 84.4814 261.09 84.5893 261.042 84.7079C260.994 84.8265 260.97 84.9534 260.971 85.0814V134.681C260.97 134.809 260.994 134.936 261.042 135.054C261.09 135.173 261.161 135.281 261.251 135.372C261.341 135.463 261.448 135.535 261.566 135.584C261.684 135.633 261.81 135.659 261.938 135.659H271.9C272.028 135.659 272.154 135.633 272.272 135.584C272.39 135.535 272.497 135.463 272.587 135.372C272.677 135.281 272.748 135.173 272.796 135.054C272.844 134.936 272.868 134.809 272.867 134.681V85.0459C272.86 84.7935 272.755 84.5539 272.575 84.3779C272.394 84.2018 272.152 84.1034 271.9 84.1035Z" stroke="#CECECE" stroke-width="2" stroke-miterlimit="10"/>
<path d="M260.092 84.1035H250.129C250.001 84.1035 249.875 84.1289 249.757 84.1781C249.639 84.2274 249.532 84.2996 249.442 84.3905C249.352 84.4814 249.281 84.5893 249.233 84.7079C249.185 84.8265 249.161 84.9534 249.162 85.0814V134.681C249.161 134.809 249.185 134.936 249.233 135.054C249.281 135.173 249.352 135.281 249.442 135.372C249.532 135.463 249.639 135.535 249.757 135.584C249.875 135.633 250.001 135.659 250.129 135.659H260.092C260.219 135.659 260.346 135.633 260.464 135.584C260.582 135.535 260.689 135.463 260.779 135.372C260.869 135.281 260.94 135.173 260.988 135.054C261.036 134.936 261.06 134.809 261.059 134.681V85.0459C261.052 84.7935 260.947 84.5539 260.766 84.3779C260.586 84.2018 260.344 84.1034 260.092 84.1035V84.1035Z" stroke="#CECECE" stroke-width="2" stroke-miterlimit="10"/>
<path d="M340.484 121.202C340.235 119.83 339.603 118.557 338.661 117.531C337.718 116.505 336.505 115.768 335.162 115.405C334.028 115.148 332.843 115.253 331.773 115.708V115.708C331.383 115.859 331.011 116.053 330.664 116.285C330.167 116.558 329.627 116.742 329.067 116.828C328.96 116.828 328.801 116.917 328.721 116.73L325.997 115.574C325.343 115.282 324.615 115.201 323.913 115.343C322.738 115.516 321.629 115.993 320.696 116.728C319.762 117.462 319.036 118.428 318.59 119.53C317.785 121.682 317.601 124.017 318.057 126.269C318.486 128.694 319.518 130.972 321.056 132.893C321.501 133.497 322.003 134.057 322.555 134.564C323.097 135.022 323.736 135.35 324.422 135.526C325.109 135.701 325.826 135.719 326.521 135.578L327.337 135.382C328.48 135.104 329.671 135.083 330.823 135.32C331.668 135.547 332.539 135.66 333.414 135.658C334.521 135.626 335.57 135.156 336.333 134.351C336.687 133.948 337.025 133.53 337.344 133.097C338.664 131.442 339.626 129.53 340.166 127.481C340.707 125.433 340.816 123.294 340.484 121.202V121.202Z" fill="#FAFAFA"/>
<path d="M340.484 121.202C340.235 119.83 339.603 118.557 338.661 117.531C337.718 116.505 336.505 115.768 335.162 115.405C334.521 115.262 333.861 115.229 333.21 115.308C332.721 115.395 332.24 115.523 331.773 115.69C331.381 115.838 331.009 116.032 330.664 116.268C330.303 116.598 329.83 116.776 329.342 116.766C328.175 116.52 327.049 116.11 325.997 115.548C325.343 115.258 324.614 115.18 323.913 115.325C322.738 115.498 321.629 115.976 320.696 116.71C319.762 117.445 319.036 118.411 318.59 119.513C317.785 121.665 317.601 124 318.057 126.252C318.488 128.676 319.519 130.954 321.056 132.875C321.501 133.479 322.003 134.039 322.555 134.546C323.097 135.004 323.736 135.333 324.422 135.508C325.109 135.684 325.826 135.701 326.521 135.56L327.337 135.364C328.48 135.082 329.671 135.06 330.823 135.302C331.669 135.525 332.54 135.638 333.414 135.64C334.52 135.604 335.568 135.135 336.333 134.333C336.687 133.93 337.025 133.512 337.344 133.08C338.665 131.429 339.627 129.519 340.168 127.474C340.709 125.428 340.817 123.292 340.484 121.202V121.202Z" stroke="#CECECE" stroke-width="2" stroke-miterlimit="10"/>
<path d="M336.475 107.564C336.044 107.423 335.597 107.333 335.144 107.298C334.193 107.208 333.238 107.416 332.41 107.894C331.582 108.372 330.922 109.095 330.522 109.965C330.335 110.423 330.175 110.892 330.043 111.369C329.963 111.885 330.496 111.93 330.726 112.001C332.155 112.419 333.814 112.179 334.568 111.281C334.931 110.847 335.252 110.38 335.526 109.885C335.836 109.316 336.573 107.84 336.581 107.822C336.661 107.627 336.661 107.627 336.475 107.564Z" fill="#F2F2F2"/>
<path d="M336.475 107.564C336.044 107.423 335.597 107.333 335.144 107.298C334.193 107.208 333.238 107.416 332.41 107.894C331.582 108.372 330.922 109.095 330.522 109.965C330.335 110.423 330.175 110.892 330.043 111.369C329.963 111.885 330.496 111.93 330.726 112.001C332.155 112.419 333.814 112.179 334.568 111.281C334.931 110.847 335.252 110.38 335.526 109.885C335.836 109.316 336.573 107.84 336.581 107.822C336.661 107.627 336.661 107.627 336.475 107.564Z" stroke="#CECECE" stroke-width="2" stroke-miterlimit="10"/>
<path d="M337.265 129.205C337.265 129.205 338.649 124.555 337.744 121.71C337.49 120.793 337.041 119.942 336.429 119.215C335.816 118.488 335.054 117.901 334.195 117.496C333.69 117.354 336.227 119.159 336.706 122.164C337.122 124.487 337.309 126.845 337.265 129.205Z" fill="#CECECE"/>
<path d="M329.289 116.784C329.555 114.935 329.111 111.272 328.047 109.734" stroke="#CECECE" stroke-width="2" stroke-miterlimit="10"/>
<path d="M129.957 135.844H1.85371C1.72598 135.844 1.59952 135.869 1.48162 135.918C1.36371 135.968 1.25672 136.04 1.16681 136.131C1.0769 136.222 1.00587 136.329 0.9578 136.448C0.909729 136.567 0.885588 136.694 0.886759 136.822V140.885C0.885588 141.013 0.909729 141.14 0.9578 141.258C1.00587 141.377 1.0769 141.485 1.16681 141.576C1.25672 141.666 1.36371 141.739 1.48162 141.788C1.59952 141.837 1.72598 141.863 1.85371 141.863H129.957C130.216 141.863 130.464 141.759 130.647 141.576C130.83 141.393 130.933 141.144 130.933 140.885V136.822C130.933 136.562 130.83 136.314 130.647 136.13C130.464 135.947 130.216 135.844 129.957 135.844Z" fill="#FAFAFA" stroke="#CECECE" stroke-width="2" stroke-miterlimit="10"/>
<path d="M274.02 53.9727H83.5066C82.7082 53.9727 82.0605 54.4172 82.0605 54.9773V59.1913C82.0605 59.7425 82.7082 60.1959 83.5066 60.1959H274.02C274.81 60.1959 275.457 59.7425 275.457 59.1913V54.9773C275.448 54.4172 274.81 53.9727 274.02 53.9727Z" fill="#FAFAFA" stroke="#CECECE" stroke-width="2" stroke-miterlimit="10"/>
<path d="M48.0643 84.2988H38.1017C37.8453 84.2988 37.5993 84.4009 37.418 84.5826C37.2366 84.7644 37.1348 85.0109 37.1348 85.2679V134.876C37.1348 135.133 37.2366 135.38 37.418 135.561C37.5993 135.743 37.8453 135.845 38.1017 135.845H48.0643C48.3207 135.845 48.5667 135.743 48.748 135.561C48.9294 135.38 49.0313 135.133 49.0313 134.876V85.2679C49.0313 85.0109 48.9294 84.7644 48.748 84.5826C48.5667 84.4009 48.3207 84.2988 48.0643 84.2988Z" fill="#FAFAFA"/>
<path d="M45.8203 87.7754H40.3555V118.332H45.8292L45.8203 87.7754Z" fill="#DEDEDE"/>
<path d="M48.0643 84.2988H38.1017C37.8453 84.2988 37.5993 84.4009 37.418 84.5826C37.2366 84.7644 37.1348 85.0109 37.1348 85.2679V134.876C37.1348 135.133 37.2366 135.38 37.418 135.561C37.5993 135.743 37.8453 135.845 38.1017 135.845H48.0643C48.3207 135.845 48.5667 135.743 48.748 135.561C48.9294 135.38 49.0313 135.133 49.0313 134.876V85.2679C49.0313 85.0109 48.9294 84.7644 48.748 84.5826C48.5667 84.4009 48.3207 84.2988 48.0643 84.2988Z" stroke="#CECECE" stroke-width="2" stroke-miterlimit="10"/>
<path d="M36.3636 89.9615L25.8333 88.0589C25.708 88.0359 25.5794 88.0378 25.4549 88.0647C25.3304 88.0916 25.2124 88.1428 25.1077 88.2155C25.003 88.2882 24.9137 88.3809 24.8449 88.4883C24.776 88.5957 24.729 88.7156 24.7066 88.8413L16.8376 132.689C16.8134 132.814 16.8146 132.942 16.841 133.067C16.8674 133.192 16.9185 133.31 16.9913 133.414C17.0641 133.519 17.1572 133.608 17.2649 133.675C17.3726 133.743 17.4928 133.788 17.6183 133.809L28.1487 135.711C28.274 135.734 28.4026 135.732 28.5271 135.706C28.6516 135.679 28.7696 135.627 28.8743 135.555C28.9789 135.482 29.0682 135.389 29.1371 135.282C29.2059 135.175 29.2529 135.055 29.2754 134.929L37.1443 91.0817C37.1685 90.9565 37.1673 90.8278 37.1409 90.7032C37.1145 90.5785 37.0635 90.4604 36.9906 90.3559C36.9178 90.2514 36.8248 90.1627 36.7171 90.0949C36.6094 90.0271 36.4892 89.9818 36.3636 89.9615V89.9615Z" fill="#FAFAFA"/>
<path d="M33.4011 92.6113L27.679 91.5801L22.8086 118.696L28.5307 119.727L33.4011 92.6113Z" fill="#DEDEDE"/>
<path d="M36.3636 89.9615L25.8333 88.0589C25.708 88.0359 25.5794 88.0378 25.4549 88.0647C25.3304 88.0916 25.2124 88.1428 25.1077 88.2155C25.003 88.2882 24.9137 88.3809 24.8449 88.4883C24.776 88.5957 24.729 88.7156 24.7066 88.8413L16.8376 132.689C16.8134 132.814 16.8146 132.942 16.841 133.067C16.8674 133.192 16.9185 133.31 16.9913 133.414C17.0641 133.519 17.1572 133.608 17.2649 133.675C17.3726 133.743 17.4928 133.788 17.6183 133.809L28.1487 135.711C28.274 135.734 28.4026 135.732 28.5271 135.706C28.6516 135.679 28.7696 135.627 28.8743 135.555C28.9789 135.482 29.0682 135.389 29.1371 135.282C29.2059 135.175 29.2529 135.055 29.2754 134.929L37.1443 91.0817C37.1685 90.9565 37.1673 90.8278 37.1409 90.7032C37.1145 90.5785 37.0635 90.4604 36.9906 90.3559C36.9178 90.2514 36.8248 90.1627 36.7171 90.0949C36.6094 90.0271 36.4892 89.9818 36.3636 89.9615V89.9615Z" stroke="#CECECE" stroke-width="2" stroke-miterlimit="10"/>
<path d="M62.6596 82.439H50.1154C49.8589 82.439 49.613 82.5411 49.4316 82.7228C49.2503 82.9045 49.1484 83.151 49.1484 83.408V134.874C49.1484 135.131 49.2503 135.378 49.4316 135.56C49.613 135.741 49.8589 135.843 50.1154 135.843H62.7038C62.8316 135.845 62.9584 135.82 63.0767 135.772C63.195 135.724 63.3026 135.653 63.3934 135.563C63.4841 135.473 63.5561 135.365 63.6053 135.247C63.6544 135.129 63.6798 135.002 63.6798 134.874V83.408C63.68 83.2761 63.6533 83.1456 63.6014 83.0244C63.5495 82.9032 63.4735 82.7939 63.378 82.7032C63.2825 82.6125 63.1695 82.5423 63.0459 82.4968C62.9224 82.4514 62.7909 82.4317 62.6596 82.439V82.439Z" fill="#FAFAFA"/>
<path d="M63.6349 90.8594H49.1035V94.0154H63.6349V90.8594Z" fill="#DEDEDE"/>
<path d="M63.6349 124.029H49.1035V127.194H63.6349V124.029Z" fill="#DEDEDE"/>
<path d="M62.6596 82.439H50.1154C49.8589 82.439 49.613 82.5411 49.4316 82.7228C49.2503 82.9045 49.1484 83.151 49.1484 83.408V134.874C49.1484 135.131 49.2503 135.378 49.4316 135.56C49.613 135.741 49.8589 135.843 50.1154 135.843H62.7038C62.8316 135.845 62.9584 135.82 63.0767 135.772C63.195 135.724 63.3026 135.653 63.3934 135.563C63.4841 135.473 63.5561 135.365 63.6053 135.247C63.6544 135.129 63.6798 135.002 63.6798 134.874V83.408C63.68 83.2761 63.6533 83.1456 63.6014 83.0244C63.5495 82.9032 63.4735 82.7939 63.378 82.7032C63.2825 82.6125 63.1695 82.5423 63.0459 82.4968C62.9224 82.4514 62.7909 82.4317 62.6596 82.439V82.439Z" stroke="#CECECE" stroke-width="2" stroke-miterlimit="10"/>
<path d="M77.1992 84.2988H64.6017C64.3453 84.2988 64.0993 84.4009 63.918 84.5826C63.7366 84.7644 63.6348 85.0109 63.6348 85.2679V134.876C63.6348 135.133 63.7366 135.38 63.918 135.561C64.0993 135.743 64.3453 135.845 64.6017 135.845H77.1992C77.4556 135.845 77.7016 135.743 77.8829 135.561C78.0643 135.38 78.1661 135.133 78.1661 134.876V85.2679C78.1661 85.0109 78.0643 84.7644 77.8829 84.5826C77.7016 84.4009 77.4556 84.2988 77.1992 84.2988Z" fill="#FAFAFA"/>
<path d="M78.1661 93.1719H63.6348V96.3369H78.1661V93.1719Z" fill="#DEDEDE"/>
<path d="M78.1661 122.002H63.6348V125.167H78.1661V122.002Z" fill="#DEDEDE"/>
<path d="M77.1992 84.2988H64.6017C64.3453 84.2988 64.0993 84.4009 63.918 84.5826C63.7366 84.7644 63.6348 85.0109 63.6348 85.2679V134.876C63.6348 135.133 63.7366 135.38 63.918 135.561C64.0993 135.743 64.3453 135.845 64.6017 135.845H77.1992C77.4556 135.845 77.7016 135.743 77.8829 135.561C78.0643 135.38 78.1661 135.133 78.1661 134.876V85.2679C78.1661 85.0109 78.0643 84.7644 77.8829 84.5826C77.7016 84.4009 77.4556 84.2988 77.1992 84.2988Z" stroke="#CECECE" stroke-width="2" stroke-miterlimit="10"/>
<path d="M91.7304 84.2988H79.133C78.8765 84.2988 78.6305 84.4009 78.4492 84.5826C78.2679 84.7644 78.166 85.0109 78.166 85.2679V134.876C78.166 135.133 78.2679 135.38 78.4492 135.561C78.6305 135.743 78.8765 135.845 79.133 135.845H91.7304C91.9869 135.845 92.2328 135.743 92.4142 135.561C92.5955 135.38 92.6974 135.133 92.6974 134.876V85.2679C92.6974 85.0109 92.5955 84.7644 92.4142 84.5826C92.2328 84.4009 91.9869 84.2988 91.7304 84.2988Z" fill="#FAFAFA"/>
<path d="M88.2623 93.0918H82.9395V126.875H88.2623V93.0918Z" fill="#DEDEDE"/>
<path d="M91.7304 84.2988H79.133C78.8765 84.2988 78.6305 84.4009 78.4492 84.5826C78.2679 84.7644 78.166 85.0109 78.166 85.2679V134.876C78.166 135.133 78.2679 135.38 78.4492 135.561C78.6305 135.743 78.8765 135.845 79.133 135.845H91.7304C91.9869 135.845 92.2328 135.743 92.4142 135.561C92.5955 135.38 92.6974 135.133 92.6974 134.876V85.2679C92.6974 85.0109 92.5955 84.7644 92.4142 84.5826C92.2328 84.4009 91.9869 84.2988 91.7304 84.2988Z" stroke="#CECECE" stroke-width="2" stroke-miterlimit="10"/>
<path d="M205.045 130.385C205.045 130.385 213.455 141.054 217.82 141.818C222.185 142.583 227.88 141.534 226.381 138.013C224.881 134.493 219.496 132.404 212.887 122.1" fill="#F6D2A2"/>
<path d="M205.045 130.385C205.045 130.385 213.455 141.054 217.82 141.818C222.185 142.583 227.88 141.534 226.381 138.013C224.881 134.493 219.496 132.404 212.887 122.1" stroke="black" stroke-width="2" stroke-miterlimit="10"/>
<path d="M123.746 192.992C123.746 192.992 127.002 205.439 133.274 208.586C139.546 211.733 144.984 209.235 142.598 204.461C140.211 199.687 139.75 200.798 138.002 197.277" fill="#F6D2A2"/>
<path d="M123.516 191.57C123.516 191.57 126.993 205.43 133.274 208.569C139.555 211.707 144.984 209.218 142.598 204.444C140.212 199.669 139.75 200.781 137.994 197.26" stroke="black" stroke-width="2" stroke-miterlimit="10"/>
<path d="M178.111 199.945C180.995 202.986 185.794 207.289 190.265 207.591C197.256 208.071 202.029 202.559 197.282 200.176C194.461 198.772 192.172 196.949 189.254 195.064" fill="#F6D2A2"/>
<path d="M178.111 199.945C180.995 202.986 185.794 207.289 190.265 207.591C197.256 208.071 200.609 203.333 197.096 200.657C194.586 198.754 192.013 197.989 189.254 195.064" stroke="black" stroke-width="2" stroke-miterlimit="10"/>
<path d="M193.637 40.8074C194.923 39.5894 204.087 32.7438 210.164 37.7402C215.585 42.1854 209.277 47.7952 205.959 48.9687" fill="#71C2FF"/>
<path d="M193.637 40.8074C194.923 39.5894 204.087 32.7438 210.164 37.7402C215.585 42.1854 208.159 48.5598 204.841 49.7333" stroke="black" stroke-width="2" stroke-miterlimit="10"/>
<path d="M113.846 184.948C127.73 200.675 168.902 204.569 185.705 196.745C200.263 189.989 205.976 166.829 208.646 156.028C211.317 145.226 222.699 80.1661 208.904 54.7396C202.756 43.4222 184.702 31.9892 156.988 35.3853C131.261 38.5325 116.685 55.4953 115.222 71.4535C113.03 95.2441 97.1328 166.029 113.846 184.948Z" fill="#8FCFFF"/>
<path d="M174.128 177.016C177.756 175.673 191.098 170.215 203.155 173.993C204.485 170.437 206.26 166.881 206.26 166.881L184.968 163.769C184.968 163.769 175.21 150.051 174.828 154.434C174.19 162.258 173.365 172.784 173.054 176.225C173.047 176.356 173.071 176.487 173.125 176.607C173.179 176.726 173.261 176.83 173.365 176.909C173.471 176.982 173.592 177.03 173.719 177.051C173.856 177.076 173.997 177.064 174.128 177.016V177.016Z" fill="#71C2FF"/>
<path d="M162.479 148.496C167.997 159.431 181.225 155.608 182.351 159.28C183.478 162.952 177.197 164.232 172.77 163.805C165.859 163.139 160.279 153.332 160.279 152.079C160.279 150.825 162.479 148.496 162.479 148.496Z" fill="#71C2FF"/>
<path d="M112.959 184.057C116.756 188.191 132.893 198.77 137.489 187.035C142.368 174.588 132.636 131.532 144.799 76.1098C146.041 70.4645 159.312 52.2748 159.348 48.5497C159.41 43.2155 158.292 33.9073 143.167 38.7081C133.408 41.793 117.022 54.364 115.204 71.4513C114.334 79.7104 99.0401 158.835 112.959 184.057Z" fill="#71C2FF"/>
<path d="M113.838 184.948C128.92 200.319 168.77 205.049 185.697 196.745C200.131 189.678 205.977 166.829 208.647 156.028C211.317 145.226 222.699 80.1661 208.896 54.7396C202.756 43.4222 184.694 31.9892 156.98 35.3853C131.253 38.5325 118.106 55.682 115.214 71.4535C110.707 96.1065 100.026 170.874 113.838 184.948Z" stroke="black" stroke-width="2" stroke-miterlimit="10"/>
<path d="M174.837 86.1477C174.837 100.675 163.543 112.463 148.223 112.463C132.902 112.463 120.455 100.666 120.455 86.1477C120.455 71.6297 132.875 57.9297 148.223 57.9297C163.57 57.9297 174.837 71.6209 174.837 86.1477Z" fill="#71C2FF"/>
<path d="M226.824 85.186C226.824 99.7218 227.206 105.536 212.399 109.599C197.593 113.662 185.785 103.198 185.785 88.6711C185.785 74.1442 196.147 59.2617 211.512 59.2617C226.877 59.2617 226.824 70.6681 226.824 85.186Z" fill="#71C2FF"/>
<path d="M177.499 79.2922C177.499 93.828 166.206 105.608 150.885 105.608C135.564 105.608 123.117 93.8102 123.117 79.2922C123.117 64.7743 135.537 51.0742 150.885 51.0742C166.232 51.0742 177.499 64.7654 177.499 79.2922Z" fill="white" stroke="black" stroke-width="2" stroke-miterlimit="10"/>
<path d="M184.019 98.1325C178.146 96.9856 172.894 98.5859 172.264 101.742C171.891 103.644 173.311 105.689 175.813 107.254C175.431 109.157 174.704 113.042 174.482 114.082C173.595 118.145 179.512 120.172 181.02 116.091C180.763 119.896 186.547 120.758 187.576 116.091C188.392 112.437 188.721 110.526 188.88 109.557C191.409 108.97 193.192 107.69 193.538 105.938C194.132 102.827 189.883 99.2704 184.019 98.1325Z" fill="#71C2FF"/>
<path d="M179.034 104.604L177.517 112.525C176.63 116.766 183.088 118.81 184.241 113.947C184.963 111.189 185.534 108.393 185.954 105.573" fill="white"/>
<path d="M179.034 104.604L177.517 112.525C176.63 116.766 183.088 118.81 184.241 113.947C184.963 111.189 185.534 108.393 185.954 105.573" stroke="black" stroke-width="2" stroke-miterlimit="10"/>
<path d="M185.545 106.15C185.545 106.15 184.374 112.667 184.108 114.063C183.274 118.304 189.51 119.397 190.593 114.57C192.012 108.177 191.994 107.128 191.994 107.128" fill="white"/>
<path d="M185.545 106.15C185.545 106.15 184.374 112.667 184.108 114.063C183.274 118.304 189.51 119.397 190.593 114.57C192.012 108.177 191.994 107.128 191.994 107.128" stroke="black" stroke-width="2" stroke-miterlimit="10"/>
<path d="M196.493 104.372C197.114 101.225 192.855 97.7224 186.991 96.5667C181.127 95.4109 175.867 97.029 175.246 100.176C174.625 103.323 178.883 106.835 184.747 107.991C190.611 109.147 195.881 107.528 196.493 104.372Z" fill="#F6D2A2"/>
<path d="M196.493 104.372C197.114 101.225 192.855 97.7224 186.991 96.5667C181.127 95.4109 175.867 97.029 175.246 100.176C174.625 103.323 178.883 106.835 184.747 107.991C190.611 109.147 195.881 107.528 196.493 104.372Z" stroke="black" stroke-width="2" stroke-miterlimit="10"/>
<path d="M169.951 91.1976C170.944 88.2727 169.951 85.2767 167.662 84.5032C165.373 83.7297 162.765 85.4811 161.771 88.4061C160.777 91.331 161.771 94.3181 164.051 95.0916C166.331 95.8651 168.992 94.1226 169.951 91.1976Z" fill="black"/>
<path d="M167.819 92.807C168.28 92.8087 168.73 92.6736 169.113 92.4188C169.497 92.1639 169.796 91.8007 169.973 91.3753C170.15 90.9498 170.198 90.4812 170.109 90.0288C170.02 89.5763 169.8 89.1605 169.475 88.8338C169.15 88.5072 168.736 88.2844 168.285 88.1938C167.834 88.1033 167.366 88.1489 166.941 88.3249C166.516 88.5009 166.152 88.7995 165.896 89.1827C165.64 89.5659 165.504 90.0166 165.504 90.4777C165.506 91.0932 165.751 91.683 166.184 92.119C166.618 92.5551 167.205 92.8023 167.819 92.807V92.807Z" fill="white"/>
<path d="M235.216 84.2345C233.699 97.8279 224.428 108.052 214.332 108.052C202.312 108.052 192.943 98.1924 192.943 84.2345C192.943 70.2767 202.312 57.1367 214.332 57.1367C226.353 57.1367 236.546 72.2059 235.216 84.2345Z" fill="white" stroke="black" stroke-width="2" stroke-miterlimit="10"/>
<path d="M230.726 95.2857C231.844 92.5208 230.966 89.5604 228.757 88.6624C226.548 87.7645 223.869 89.2848 222.751 92.0497C221.633 94.8146 222.512 97.7839 224.712 98.673C226.912 99.562 229.609 98.0506 230.726 95.2857Z" fill="black"/>
<path d="M228.598 96.2108C229.033 96.1916 229.454 96.0447 229.807 95.7881C230.16 95.5316 230.43 95.1768 230.584 94.7677C230.738 94.3586 230.768 93.9134 230.672 93.4871C230.575 93.0609 230.356 92.6725 230.041 92.3701C229.726 92.0677 229.329 91.8647 228.9 91.7863C228.471 91.7078 228.028 91.7573 227.627 91.9287C227.226 92.1001 226.884 92.3858 226.643 92.7504C226.402 93.1149 226.274 93.5422 226.273 93.9793C226.287 94.5838 226.54 95.1581 226.976 95.5763C227.411 95.9946 227.995 96.2227 228.598 96.2108V96.2108Z" fill="white"/>
<path d="M193.503 98.6747C193.885 96.7366 191.498 94.6385 188.18 93.9806C184.863 93.3227 181.855 94.3629 181.474 96.301C181.092 98.2391 183.479 100.346 186.796 100.995C190.114 101.644 193.122 100.613 193.503 98.6747Z" fill="black"/>
<path d="M132.068 47.9725C132.068 47.4036 123.649 42.5316 120.42 41.3492C117.191 40.1668 103.733 40.0157 107.193 50.4885C109.73 58.1342 119.613 61.3792 123.33 61.3792C123.33 61.3792 128.147 58.6054 129.54 55.5116C130.933 52.4177 131.882 50.4174 132.068 47.9725Z" fill="#71C2FF"/>
<path d="M132.068 47.9725C131.589 47.6792 123.649 42.5316 120.42 41.3492C117.191 40.1668 103.733 40.0157 107.193 50.4885C109.73 58.1342 119.613 61.3792 123.33 61.3792" stroke="black" stroke-width="2" stroke-miterlimit="10"/>
<path d="M113.695 46.3281C113.695 46.3281 119.843 47.2172 123.862 50.7733C123.862 50.7733 122.717 52.6759 118.965 51.9113C115.212 51.1467 113.695 46.3281 113.695 46.3281Z" fill="#57ABEB"/>
<path d="M113.695 46.3281C113.695 46.3281 119.843 47.2172 123.862 50.7733" stroke="black" stroke-width="2" stroke-miterlimit="10"/>
<path d="M117.023 51.0847C118.082 50.0104 119.434 49.2742 120.909 48.9688" stroke="black" stroke-width="2" stroke-miterlimit="10"/>
<path d="M138.9 209.92C139.186 209.301 139.335 208.628 139.335 207.946C139.335 207.265 139.186 206.591 138.9 205.973" stroke="black" stroke-width="2" stroke-miterlimit="10"/>
<path d="M196.359 206.355C196.359 206.355 196.359 204.87 193.742 203.395" stroke="black" stroke-width="2" stroke-miterlimit="10"/>
<path d="M135.847 42.9953C136.229 43.3865 152.588 44.32 160.181 41.2617C167.775 38.2034 170.206 34.3005 169.94 33.0914C169.674 31.8823 165.664 16.8398 165.664 16.8398C165.664 16.8398 142.9 19.5692 142.598 19.6225C142.297 19.6759 128.635 25.6947 128.635 25.6947C128.635 25.6947 135.457 42.6041 135.847 42.9953Z" fill="#424546"/>
<path d="M135.848 42.9939C136.052 43.1983 145.864 43.1539 151.382 42.9939C148.836 34.7792 145.278 28.9471 142.51 19.6211C142.173 19.6833 128.547 25.6932 128.547 25.6932C128.547 25.6932 135.458 42.6027 135.848 42.9939Z" fill="#303233"/>
<path d="M135.847 42.9953C136.229 43.3865 152.588 44.32 160.181 41.2617C167.775 38.2034 170.206 34.3005 169.94 33.0914C169.674 31.8823 165.664 16.8398 165.664 16.8398C165.664 16.8398 142.9 19.5692 142.598 19.6225C142.297 19.6759 128.635 25.6947 128.635 25.6947C128.635 25.6947 135.457 42.6041 135.847 42.9953Z" stroke="black" stroke-width="2" stroke-miterlimit="10"/>
<path d="M110.777 26.8213C110.458 26.8258 110.147 26.726 109.89 26.5369C109.614 26.3511 109.403 26.0838 109.286 25.7723C109.16 25.4594 109.129 25.116 109.198 24.7855C109.263 24.4509 109.423 24.1423 109.659 23.8964C114.591 18.9712 125.335 8.90727 130.063 4.50654C131.506 3.15028 133.408 2.39393 135.386 2.39062C143.841 2.39062 167.598 2.45285 177.197 2.62177C177.518 2.63171 177.827 2.74036 178.084 2.93294C178.359 3.13797 178.564 3.42386 178.67 3.75085C178.768 4.08153 178.768 4.43367 178.67 4.76435C178.581 5.09299 178.395 5.38726 178.137 5.60893C172.664 10.3208 161.282 19.6913 156.074 23.932C154.371 25.3425 152.242 26.1324 150.033 26.1724C141.632 26.3679 119.701 26.7413 110.777 26.8213Z" fill="#696A6B" stroke="black" stroke-width="2" stroke-miterlimit="10"/>
<path d="M181.652 140.112V134.876L186.744 133.098V127.319C186.744 127.319 204.283 122.358 214.547 136.023C214.84 136.654 215.044 136.787 214.689 139.321C214.334 141.855 210.493 148.123 210.493 148.123L181.084 147.429L181.652 140.112Z" fill="white"/>
<path d="M214.803 146.238C214.073 142.979 214.461 139.568 215.903 136.556C223.054 122.421 237.718 122.172 237.718 122.172L236.733 126.804L240.61 127.23L238.188 136.69L214.803 146.238Z" fill="white"/>
<path d="M186.539 133.693L186.646 127.088C186.646 127.088 204.495 122.331 215.034 136.565C215.034 136.565 215.451 136.147 214.448 141.125" stroke="black" stroke-width="2" stroke-miterlimit="10"/>
<path d="M238.889 133.427L240.61 127.203C236.208 126.371 231.661 126.804 227.494 128.453C223.328 130.102 219.712 132.899 217.065 136.52C217.065 136.52 212.283 137.241 213.41 142.984" stroke="black" stroke-width="2" stroke-miterlimit="10"/>
<path d="M214.803 146.238C214.073 142.979 214.461 139.568 215.903 136.556C223.054 122.421 237.718 122.172 237.718 122.172L236.733 126.804" stroke="black" stroke-width="2" stroke-miterlimit="10"/>
<path d="M181.652 139.33L181.767 134.939C181.767 134.939 196.671 126.937 214.165 136.921C214.165 136.921 215.416 136.165 214.414 141.135C213.411 146.105 198.268 149.056 198.268 149.056L180.986 147.723L181.652 139.33Z" stroke="black" stroke-width="2" stroke-miterlimit="10"/>
<path d="M178.563 170.792C182.192 169.45 193.813 165.84 205.869 169.61C207.956 169.528 210.033 169.275 212.079 168.854C212.079 168.854 221.039 162.444 231.827 164.578C234.533 157.688 237.957 146.575 242.81 134.075C242.832 133.976 242.832 133.872 242.81 133.773C242.801 133.668 242.774 133.566 242.73 133.471C242.674 133.381 242.606 133.3 242.526 133.231C242.444 133.169 242.35 133.123 242.251 133.097C231.996 130.786 226.77 131.035 218.99 137.187C216.68 137.434 214.358 137.562 212.035 137.569C212.035 137.569 195.791 131.052 179.991 141.081C179.663 143.819 177.916 164.631 177.472 170.001C177.465 170.132 177.489 170.263 177.543 170.383C177.597 170.502 177.679 170.606 177.782 170.686C177.889 170.758 178.01 170.807 178.137 170.828C178.28 170.856 178.427 170.844 178.563 170.792Z" fill="#009245"/>
<path d="M212.08 168.854C214.846 158.466 216.988 147.921 218.494 137.275" stroke="black" stroke-width="2" stroke-miterlimit="10"/>
<path d="M205.666 169.735C208.431 159.346 210.573 148.801 212.08 138.156" stroke="black" stroke-width="2" stroke-miterlimit="10"/>
<path d="M178.652 170.757C182.378 169.397 193.902 165.894 205.869 169.61C207.956 169.528 210.033 169.275 212.079 168.855C212.079 168.855 220.498 162.836 230.824 164.41C231.11 164.455 231.402 164.399 231.649 164.25C231.901 164.106 232.096 163.88 232.2 163.609C234.861 156.71 238.134 146.131 242.721 134.271C242.771 134.147 242.792 134.013 242.783 133.88C242.775 133.746 242.739 133.616 242.677 133.498C242.614 133.38 242.526 133.277 242.419 133.195C242.314 133.116 242.193 133.062 242.065 133.035C231.969 130.777 226.752 131.062 218.999 137.169C216.689 137.417 214.367 137.545 212.044 137.552C212.044 137.552 195.791 131.035 180 141.063C179.672 143.784 177.942 164.374 177.49 169.877C177.473 170.017 177.497 170.16 177.561 170.286C177.612 170.419 177.702 170.533 177.818 170.615C177.93 170.701 178.061 170.759 178.199 170.784C178.35 170.812 178.505 170.803 178.652 170.757V170.757Z" stroke="black" stroke-width="2" stroke-miterlimit="10"/>
<path d="M162.48 148.497C162.48 148.497 169.755 159.912 174.013 161.192C178.272 162.472 184.038 161.957 182.885 158.303C181.731 154.649 176.613 152.017 171.095 141.082" fill="#F6D2A2"/>
<path d="M162.48 148.497C162.48 148.497 169.755 159.912 174.013 161.192C178.272 162.472 184.038 161.957 182.885 158.303C181.731 154.649 176.613 152.017 171.095 141.082" stroke="black" stroke-width="2" stroke-miterlimit="10"/>
<path d="M264.803 37.9688C264.803 42.4487 263.027 46.7452 259.866 49.913C256.705 53.0808 252.418 54.8604 247.947 54.8604C243.477 54.8604 239.19 53.0808 236.029 49.913C232.868 46.7452 231.092 42.4487 231.092 37.9688H264.803Z" fill="#FAFAFA"/>
<path d="M248.399 37.9688C248.399 50.6642 245.738 56.6385 236.564 50.4153C234.84 48.8354 233.463 46.9125 232.522 44.7694C231.582 42.6263 231.097 40.3101 231.1 37.9688H248.399Z" fill="#F1F1F1"/>
<path d="M246.626 26.4141L245.295 38.8606H250.618L249.287 26.4141H246.626Z" fill="#DEDEDE" stroke="#CECECE" stroke-width="2"/>
<path d="M247.947 29.0789C255.044 27.5942 272.787 21.0775 264.803 1.07422C255.497 3.74133 246.173 12.6317 247.947 29.0789Z" fill="#FAFAFA"/>
<path d="M260.819 11.7422C252.835 22.4106 249.286 26.2602 247.068 27.3003L248.843 28.6339C253.939 23.8774 258.014 18.1298 260.819 11.7422V11.7422Z" fill="#DEDEDE"/>
<path d="M247.947 29.0789C255.044 27.5942 272.787 21.0775 264.803 1.07422C255.497 3.74133 246.173 12.6317 247.947 29.0789Z" stroke="#CECECE" stroke-width="2"/>
<path d="M247.645 29.3819C241.879 29.6486 226.904 28.1372 229.113 11.1211C236.822 11.3345 245.765 16.3486 247.645 29.3819Z" fill="#FAFAFA"/>
<path d="M234.205 17.5234C237.763 22.0582 242.317 25.709 247.512 28.1919L245.738 29.5254C243.813 27.7474 239.963 26.4138 234.205 17.5234Z" fill="#DEDEDE"/>
<path d="M247.645 29.3819C241.879 29.6486 226.904 28.1372 229.113 11.1211C236.822 11.3345 245.765 16.3486 247.645 29.3819Z" stroke="#CECECE" stroke-width="2"/>
<path d="M263.915 38.8594C263.68 42.9369 261.898 46.7699 258.934 49.5734C255.97 52.3768 252.049 53.9385 247.973 53.9385C243.898 53.9385 239.976 52.3768 237.012 49.5734C234.048 46.7699 232.266 42.9369 232.031 38.8594H263.915Z" stroke="#CECECE" stroke-width="2"/>
</g>
<defs>
<clipPath id="clip0">
<rect width="345" height="214" fill="white"/>
</clipPath>
</defs>
</svg>
