<svg width="341" height="214" viewBox="0 0 341 214" fill="none" xmlns="http://www.w3.org/2000/svg">
<g clip-path="url(#clip0)">
<path d="M164.415 214.001C206.548 214.001 240.704 211.226 240.704 207.803C240.704 204.38 206.548 201.605 164.415 201.605C122.282 201.605 88.127 204.38 88.127 207.803C88.127 211.226 122.282 214.001 164.415 214.001Z" fill="#F4F4F4"/>
<path d="M339.141 135.096H171.263C171.009 135.096 170.766 135.197 170.587 135.378C170.407 135.559 170.307 135.805 170.307 136.061V140.116C170.307 140.372 170.407 140.617 170.587 140.798C170.766 140.979 171.009 141.081 171.263 141.081H339.141C339.394 141.081 339.637 140.979 339.816 140.798C339.996 140.617 340.096 140.372 340.096 140.116V136.043C340.095 135.918 340.07 135.793 340.021 135.678C339.972 135.562 339.902 135.457 339.813 135.37C339.724 135.282 339.619 135.212 339.504 135.165C339.388 135.118 339.265 135.095 339.141 135.096Z" fill="#FAF1E6" stroke="black" stroke-width="2" stroke-miterlimit="10"/>
<path d="M283.125 81.9024H270.682C270.429 81.9024 270.186 82.004 270.007 82.185C269.827 82.366 269.727 82.6115 269.727 82.8674V134.121C269.725 134.248 269.749 134.375 269.797 134.493C269.844 134.611 269.915 134.718 270.003 134.809C270.092 134.899 270.198 134.971 270.315 135.02C270.431 135.069 270.556 135.095 270.682 135.095H283.125C283.381 135.095 283.626 134.992 283.807 134.809C283.988 134.627 284.09 134.379 284.09 134.121V82.8674C284.09 82.7399 284.065 82.6137 284.016 82.4961C283.968 82.3784 283.897 82.2716 283.807 82.1819C283.717 82.0922 283.611 82.0213 283.494 81.9733C283.377 81.9253 283.252 81.9012 283.125 81.9024Z" fill="#01517B"/>
<path d="M284.09 90.2891H269.727V93.4409H284.09V90.2891Z" fill="#FDA821"/>
<path d="M284.09 123.328H269.727V126.471H284.09V123.328Z" fill="#FDA821"/>
<path d="M307.575 81.9023H302.313C302.06 81.9023 301.817 82.004 301.637 82.185C301.458 82.366 301.357 82.6114 301.357 82.8674V134.121C301.356 134.248 301.38 134.375 301.428 134.493C301.475 134.611 301.545 134.718 301.634 134.809C301.723 134.899 301.829 134.971 301.945 135.02C302.062 135.069 302.187 135.095 302.313 135.095H307.575C307.701 135.095 307.826 135.069 307.942 135.02C308.059 134.971 308.165 134.899 308.253 134.809C308.342 134.718 308.413 134.611 308.46 134.493C308.508 134.375 308.531 134.248 308.53 134.121V82.8674C308.53 82.6114 308.43 82.366 308.25 82.185C308.071 82.004 307.828 81.9023 307.575 81.9023Z" fill="#314757"/>
<path d="M308.565 88.3945H301.383V90.2892H308.565V88.3945Z" fill="white"/>
<path d="M308.565 126.941H301.383V129.128H308.565V126.941Z" fill="white"/>
<path d="M300.416 81.9023H285.036C284.782 81.9023 284.539 82.004 284.36 82.185C284.181 82.366 284.08 82.6114 284.08 82.8674V134.121C284.079 134.248 284.103 134.375 284.15 134.493C284.198 134.611 284.268 134.718 284.357 134.809C284.446 134.899 284.552 134.971 284.668 135.02C284.785 135.069 284.91 135.095 285.036 135.095H300.416C300.543 135.095 300.668 135.069 300.784 135.02C300.901 134.971 301.006 134.899 301.095 134.809C301.184 134.718 301.254 134.611 301.302 134.493C301.35 134.375 301.373 134.248 301.372 134.121V82.8674C301.372 82.6114 301.271 82.366 301.092 82.185C300.913 82.004 300.67 81.9023 300.416 81.9023Z" fill="#E34A3E"/>
<path d="M290.606 86.3398H289.159C289.049 86.3398 288.943 86.3834 288.865 86.4612C288.786 86.539 288.741 86.6448 288.738 86.756V131.511C288.741 131.622 288.786 131.728 288.865 131.806C288.943 131.883 289.049 131.927 289.159 131.927H290.589C290.699 131.927 290.804 131.883 290.883 131.806C290.962 131.728 291.007 131.622 291.009 131.511V86.756C291.007 86.6478 290.964 86.5445 290.889 86.4672C290.814 86.3899 290.713 86.3443 290.606 86.3398Z" fill="#F26F68"/>
<path d="M296.174 86.3398H294.736C294.627 86.3398 294.522 86.3837 294.445 86.4617C294.368 86.5398 294.324 86.6456 294.324 86.756V131.511C294.324 131.565 294.335 131.62 294.356 131.67C294.376 131.721 294.407 131.766 294.445 131.805C294.483 131.844 294.529 131.874 294.579 131.895C294.629 131.916 294.682 131.927 294.736 131.927H296.174C296.229 131.927 296.282 131.916 296.332 131.895C296.382 131.874 296.428 131.844 296.466 131.805C296.504 131.766 296.534 131.721 296.555 131.67C296.576 131.62 296.586 131.565 296.586 131.511V86.756C296.586 86.7013 296.576 86.6472 296.555 86.5967C296.534 86.5462 296.504 86.5004 296.466 86.4617C296.428 86.4231 296.382 86.3924 296.332 86.3715C296.282 86.3506 296.229 86.3398 296.174 86.3398Z" fill="#F26F68"/>
<path d="M268.764 83.7559H258.917C258.79 83.7559 258.665 83.7811 258.549 83.8301C258.432 83.8792 258.327 83.9511 258.238 84.0416C258.149 84.1322 258.079 84.2396 258.031 84.3577C257.984 84.4758 257.96 84.6023 257.961 84.7297V134.124C257.96 134.251 257.984 134.378 258.031 134.496C258.079 134.614 258.149 134.721 258.238 134.812C258.327 134.903 258.432 134.974 258.549 135.024C258.665 135.073 258.79 135.098 258.917 135.098H268.764C268.89 135.098 269.015 135.073 269.132 135.024C269.248 134.974 269.354 134.903 269.443 134.812C269.532 134.721 269.602 134.614 269.65 134.496C269.697 134.378 269.721 134.251 269.72 134.124V84.6943C269.713 84.443 269.609 84.2043 269.431 84.0291C269.252 83.8538 269.013 83.7558 268.764 83.7559Z" fill="#FBA422"/>
<path d="M266.536 87.2266H261.1V117.656H266.501L266.536 87.2266Z" fill="#FDD768"/>
<path d="M257.084 83.7559H247.237C247.111 83.7559 246.986 83.7811 246.869 83.8301C246.753 83.8792 246.647 83.9511 246.558 84.0416C246.469 84.1322 246.399 84.2396 246.352 84.3577C246.304 84.4758 246.28 84.6023 246.281 84.7297V134.124C246.28 134.251 246.304 134.378 246.352 134.496C246.399 134.614 246.469 134.721 246.558 134.812C246.647 134.903 246.753 134.974 246.869 135.024C246.986 135.073 247.111 135.098 247.237 135.098H257.084C257.211 135.098 257.336 135.073 257.452 135.024C257.569 134.974 257.675 134.903 257.763 134.812C257.852 134.721 257.923 134.614 257.97 134.496C258.018 134.378 258.041 134.251 258.04 134.124V84.6943C258.033 84.443 257.93 84.2043 257.751 84.0291C257.573 83.8538 257.333 83.7558 257.084 83.7559Z" fill="#E34A3E"/>
<path d="M254.855 87.2266H249.453V117.656H254.855V87.2266Z" fill="#BC2833"/>
<path d="M283.125 81.9024H270.682C270.429 81.9024 270.186 82.004 270.007 82.185C269.827 82.366 269.727 82.6115 269.727 82.8674V134.121C269.725 134.248 269.749 134.375 269.797 134.493C269.844 134.611 269.915 134.718 270.003 134.809C270.092 134.899 270.198 134.971 270.315 135.02C270.431 135.069 270.556 135.095 270.682 135.095H283.125C283.381 135.095 283.626 134.992 283.807 134.809C283.988 134.627 284.09 134.379 284.09 134.121V82.8674C284.09 82.7399 284.065 82.6137 284.016 82.4961C283.968 82.3784 283.897 82.2716 283.807 82.1819C283.717 82.0922 283.611 82.0213 283.494 81.9733C283.377 81.9253 283.252 81.9012 283.125 81.9024Z" stroke="black" stroke-width="2" stroke-miterlimit="10"/>
<path d="M307.575 81.9023H302.313C302.06 81.9023 301.817 82.004 301.637 82.185C301.458 82.366 301.357 82.6114 301.357 82.8674V134.121C301.356 134.248 301.38 134.375 301.428 134.493C301.475 134.611 301.545 134.718 301.634 134.809C301.723 134.899 301.829 134.971 301.945 135.02C302.062 135.069 302.187 135.095 302.313 135.095H307.575C307.701 135.095 307.826 135.069 307.942 135.02C308.059 134.971 308.165 134.899 308.253 134.809C308.342 134.718 308.413 134.611 308.46 134.493C308.508 134.375 308.531 134.248 308.53 134.121V82.8674C308.53 82.6114 308.43 82.366 308.25 82.185C308.071 82.004 307.828 81.9023 307.575 81.9023Z" stroke="black" stroke-width="2" stroke-miterlimit="10"/>
<path d="M300.416 81.9023H285.036C284.782 81.9023 284.539 82.004 284.36 82.185C284.181 82.366 284.08 82.6114 284.08 82.8674V134.121C284.079 134.248 284.103 134.375 284.15 134.493C284.198 134.611 284.268 134.718 284.357 134.809C284.446 134.899 284.552 134.971 284.668 135.02C284.785 135.069 284.91 135.095 285.036 135.095H300.416C300.543 135.095 300.668 135.069 300.784 135.02C300.901 134.971 301.006 134.899 301.095 134.809C301.184 134.718 301.254 134.611 301.302 134.493C301.35 134.375 301.373 134.248 301.372 134.121V82.8674C301.372 82.6114 301.271 82.366 301.092 82.185C300.913 82.004 300.67 81.9023 300.416 81.9023Z" stroke="black" stroke-width="2" stroke-miterlimit="10"/>
<path d="M268.764 83.7559H258.917C258.79 83.7559 258.665 83.7811 258.549 83.8301C258.432 83.8792 258.327 83.9511 258.238 84.0416C258.149 84.1322 258.079 84.2396 258.031 84.3577C257.984 84.4758 257.96 84.6023 257.961 84.7297V134.124C257.96 134.251 257.984 134.378 258.031 134.496C258.079 134.614 258.149 134.721 258.238 134.812C258.327 134.903 258.432 134.974 258.549 135.024C258.665 135.073 258.79 135.098 258.917 135.098H268.764C268.89 135.098 269.015 135.073 269.132 135.024C269.248 134.974 269.354 134.903 269.443 134.812C269.532 134.721 269.602 134.614 269.65 134.496C269.697 134.378 269.721 134.251 269.72 134.124V84.6943C269.713 84.443 269.609 84.2043 269.431 84.0291C269.252 83.8538 269.013 83.7558 268.764 83.7559V83.7559Z" stroke="black" stroke-width="2" stroke-miterlimit="10"/>
<path d="M257.084 83.7559H247.237C247.111 83.7559 246.986 83.7811 246.869 83.8301C246.753 83.8792 246.647 83.9511 246.558 84.0416C246.469 84.1322 246.399 84.2396 246.352 84.3577C246.304 84.4758 246.28 84.6023 246.281 84.7297V134.124C246.28 134.251 246.304 134.378 246.352 134.496C246.399 134.614 246.469 134.721 246.558 134.812C246.647 134.903 246.753 134.974 246.869 135.024C246.986 135.073 247.111 135.098 247.237 135.098H257.084C257.211 135.098 257.336 135.073 257.452 135.024C257.569 134.974 257.675 134.903 257.763 134.812C257.852 134.721 257.923 134.614 257.97 134.496C258.018 134.378 258.041 134.251 258.04 134.124V84.6943C258.033 84.443 257.93 84.2043 257.751 84.0291C257.573 83.8538 257.333 83.7558 257.084 83.7559V83.7559Z" stroke="black" stroke-width="2" stroke-miterlimit="10"/>
<path d="M336.51 120.703C336.265 119.336 335.64 118.068 334.709 117.046C333.777 116.024 332.577 115.29 331.249 114.93C330.132 114.674 328.963 114.779 327.908 115.231C327.523 115.382 327.155 115.575 326.812 115.807C326.317 116.077 325.781 116.259 325.225 116.347C325.12 116.347 324.962 116.435 324.892 116.249C324.015 115.869 323.085 115.488 322.2 115.098C321.553 114.807 320.833 114.726 320.139 114.868C318.978 115.04 317.882 115.516 316.959 116.247C316.037 116.978 315.319 117.941 314.878 119.038C314.082 121.181 313.9 123.507 314.352 125.749C314.775 128.164 315.795 130.432 317.315 132.345C317.755 132.944 318.248 133.502 318.789 134.01C319.326 134.465 319.959 134.792 320.639 134.967C321.319 135.141 322.029 135.159 322.717 135.019L323.524 134.824C324.654 134.547 325.831 134.526 326.97 134.762C327.805 134.989 328.666 135.102 329.53 135.098C330.625 135.067 331.662 134.599 332.415 133.797C333.965 132.025 335.126 129.943 335.822 127.686C336.519 125.429 336.735 123.05 336.458 120.703H336.51Z" fill="#C81E3B"/>
<path d="M336.51 120.703C336.265 119.336 335.64 118.068 334.709 117.046C333.777 116.024 332.577 115.29 331.249 114.93C330.616 114.787 329.964 114.754 329.32 114.833C328.839 114.919 328.367 115.046 327.908 115.214C327.521 115.361 327.153 115.554 326.812 115.789C326.456 116.118 325.988 116.295 325.505 116.285C324.352 116.042 323.239 115.633 322.2 115.072C321.552 114.783 320.832 114.706 320.139 114.851C318.978 115.023 317.882 115.498 316.959 116.229C316.037 116.961 315.319 117.923 314.878 119.021C314.082 121.164 313.9 123.489 314.352 125.732C314.777 128.146 315.796 130.414 317.315 132.328C317.755 132.927 318.248 133.484 318.789 133.992C319.326 134.447 319.959 134.774 320.639 134.949C321.319 135.124 322.029 135.142 322.717 135.001L323.524 134.807C324.653 134.525 325.831 134.504 326.97 134.745C327.806 134.967 328.666 135.08 329.53 135.081C330.624 135.046 331.66 134.578 332.415 133.78C333.963 132.01 335.123 129.93 335.819 127.677C336.516 125.423 336.733 123.047 336.458 120.703H336.51Z" stroke="black" stroke-width="2" stroke-miterlimit="10"/>
<path d="M332.582 107.119C332.156 106.978 331.714 106.889 331.267 106.853C330.326 106.761 329.381 106.968 328.562 107.444C327.743 107.92 327.092 108.642 326.698 109.51C326.513 109.966 326.355 110.433 326.225 110.908C326.146 111.422 326.672 111.466 326.9 111.537C328.312 111.953 329.943 111.714 330.697 110.82C331.056 110.39 331.37 109.924 331.635 109.43C331.951 108.863 332.67 107.394 332.687 107.376C332.784 107.181 332.784 107.181 332.582 107.119Z" fill="#38A54C"/>
<path d="M332.582 107.119C332.156 106.978 331.714 106.889 331.267 106.853C330.326 106.761 329.381 106.968 328.562 107.444C327.743 107.92 327.092 108.642 326.698 109.51C326.513 109.966 326.355 110.433 326.225 110.908C326.146 111.422 326.672 111.466 326.9 111.537C328.312 111.953 329.943 111.714 330.697 110.82C331.056 110.39 331.37 109.924 331.635 109.43C331.951 108.863 332.67 107.394 332.687 107.376C332.784 107.181 332.784 107.181 332.582 107.119Z" stroke="black" stroke-width="2" stroke-miterlimit="10"/>
<path d="M334.24 127.785C334.24 127.785 335.608 123.155 334.714 120.322C334.461 119.409 334.017 118.562 333.412 117.838C332.807 117.114 332.054 116.53 331.206 116.125C330.706 115.983 333.214 117.781 333.688 120.773C334.099 123.086 334.284 125.435 334.24 127.785Z" fill="white"/>
<path d="M325.48 116.301C325.743 114.457 325.304 112.581 324.252 111.051" stroke="black" stroke-width="2" stroke-miterlimit="10"/>
<path d="M128.454 135.281H1.83276C1.7065 135.281 1.58151 135.306 1.46497 135.356C1.34843 135.405 1.24267 135.476 1.1538 135.567C1.06493 135.658 0.994726 135.765 0.947212 135.883C0.899698 136.001 0.875835 136.128 0.876993 136.255V140.301C0.875835 140.429 0.899698 140.555 0.947212 140.673C0.994726 140.791 1.06493 140.899 1.1538 140.989C1.24267 141.08 1.34843 141.152 1.46497 141.201C1.58151 141.25 1.7065 141.275 1.83276 141.275H128.454C128.58 141.275 128.705 141.25 128.822 141.201C128.938 141.152 129.044 141.08 129.133 140.989C129.222 140.899 129.292 140.791 129.339 140.673C129.387 140.555 129.411 140.429 129.41 140.301V136.255C129.411 136.128 129.387 136.001 129.339 135.883C129.292 135.765 129.222 135.658 129.133 135.567C129.044 135.476 128.938 135.405 128.822 135.356C128.705 135.306 128.58 135.281 128.454 135.281Z" fill="#FAF1E6" stroke="black" stroke-width="2" stroke-miterlimit="10"/>
<path d="M270.85 53.75H82.5319C81.7514 53.75 81.1113 54.1927 81.1113 54.7504V58.947C81.1113 59.496 81.7514 59.9475 82.5319 59.9475H270.85C271.63 59.9475 272.271 59.496 272.271 58.947V54.7504C272.271 54.1927 271.622 53.75 270.85 53.75Z" fill="#FAF1E6" stroke="black" stroke-width="2" stroke-miterlimit="10"/>
<path d="M47.5092 83.9493H37.6618C37.5356 83.9481 37.4104 83.9722 37.2934 84.0202C37.1764 84.0681 37.0701 84.139 36.9804 84.2288C36.8907 84.3185 36.8195 84.4253 36.7709 84.5429C36.7223 84.6606 36.6973 84.7868 36.6973 84.9143V134.317C36.6973 134.445 36.7223 134.571 36.7709 134.689C36.8195 134.806 36.8907 134.913 36.9804 135.003C37.0701 135.093 37.1764 135.163 37.2934 135.211C37.4104 135.259 37.5356 135.284 37.6618 135.282H47.5092C47.7627 135.282 48.0058 135.181 48.1851 135C48.3643 134.819 48.465 134.573 48.465 134.317V84.9143C48.465 84.6584 48.3643 84.4129 48.1851 84.2319C48.0058 84.0509 47.7627 83.9493 47.5092 83.9493Z" fill="#FBA422"/>
<path d="M45.2824 87.4121H39.8809V117.842H45.2824V87.4121Z" fill="#FDD768"/>
<path d="M47.5092 83.9493H37.6618C37.5356 83.9481 37.4104 83.9722 37.2934 84.0202C37.1764 84.0681 37.0701 84.139 36.9804 84.2288C36.8907 84.3185 36.8195 84.4253 36.7709 84.5429C36.7223 84.6606 36.6973 84.7868 36.6973 84.9143V134.317C36.6973 134.445 36.7223 134.571 36.7709 134.689C36.8195 134.806 36.8907 134.913 36.9804 135.003C37.0701 135.093 37.1764 135.163 37.2934 135.211C37.4104 135.259 37.5356 135.284 37.6618 135.282H47.5092C47.7627 135.282 48.0058 135.181 48.1851 135C48.3643 134.819 48.465 134.573 48.465 134.317V84.9143C48.465 84.6584 48.3643 84.4129 48.1851 84.2319C48.0058 84.0509 47.7627 83.9493 47.5092 83.9493Z" stroke="black" stroke-width="2" stroke-miterlimit="10"/>
<path d="M35.9442 89.5883L25.5356 87.6936C25.4118 87.6707 25.2847 87.6726 25.1616 87.6994C25.0386 87.7261 24.922 87.7772 24.8185 87.8495C24.715 87.9219 24.6267 88.0143 24.5587 88.1212C24.4906 88.2282 24.4442 88.3476 24.422 88.4728L16.6353 132.139C16.5919 132.39 16.6487 132.648 16.7933 132.857C16.9379 133.066 17.1585 133.209 17.407 133.254L27.8506 135.158C28.1004 135.202 28.3573 135.145 28.5658 134.999C28.7742 134.853 28.9173 134.63 28.9643 134.379L36.7422 90.7127C36.766 90.5857 36.764 90.4551 36.7364 90.3288C36.7088 90.2025 36.656 90.0833 36.5814 89.9781C36.5068 89.873 36.4119 89.7843 36.3023 89.7173C36.1928 89.6503 36.071 89.6064 35.9442 89.5883Z" fill="#445E71"/>
<path d="M33.0061 92.2282L27.359 91.2012L22.5449 118.205L28.1921 119.232L33.0061 92.2282Z" fill="#90B1C0"/>
<path d="M35.9442 89.5883L25.5356 87.6936C25.4118 87.6707 25.2847 87.6726 25.1616 87.6994C25.0386 87.7261 24.922 87.7772 24.8185 87.8495C24.715 87.9219 24.6267 88.0143 24.5587 88.1212C24.4906 88.2282 24.4442 88.3476 24.422 88.4728L16.6353 132.139C16.5919 132.39 16.6487 132.648 16.7933 132.857C16.9379 133.066 17.1585 133.209 17.407 133.254L27.8506 135.158C28.1004 135.202 28.3573 135.145 28.5658 134.999C28.7742 134.853 28.9173 134.63 28.9643 134.379L36.7422 90.7127C36.766 90.5857 36.764 90.4551 36.7364 90.3288C36.7088 90.2025 36.656 90.0833 36.5814 89.9781C36.5068 89.873 36.4119 89.7843 36.3023 89.7173C36.1928 89.6503 36.071 89.6064 35.9442 89.5883V89.5883Z" stroke="black" stroke-width="2" stroke-miterlimit="10"/>
<path d="M61.9329 82.0977H49.49C49.3638 82.0965 49.2385 82.1206 49.1215 82.1686C49.0045 82.2166 48.8982 82.2875 48.8085 82.3772C48.7188 82.4669 48.6476 82.5737 48.599 82.6914C48.5505 82.809 48.5254 82.9353 48.5254 83.0627V134.316C48.5254 134.444 48.5505 134.57 48.599 134.687C48.6476 134.805 48.7188 134.912 48.8085 135.002C48.8982 135.091 49.0045 135.162 49.1215 135.21C49.2385 135.258 49.3638 135.282 49.49 135.281H61.9329C62.1864 135.281 62.4295 135.179 62.6087 134.999C62.788 134.818 62.8886 134.572 62.8886 134.316V83.0627C62.8886 82.8068 62.788 82.5613 62.6087 82.3803C62.4295 82.1994 62.1864 82.0977 61.9329 82.0977Z" fill="#E05162"/>
<path d="M62.9238 90.4863H48.5605V93.6293H62.9238V90.4863Z" fill="#BC2833"/>
<path d="M62.9238 123.518H48.5605V126.669H62.9238V123.518Z" fill="#BC2833"/>
<path d="M61.9329 82.0977H49.49C49.3638 82.0965 49.2385 82.1206 49.1215 82.1686C49.0045 82.2166 48.8982 82.2875 48.8085 82.3772C48.7188 82.4669 48.6476 82.5737 48.599 82.6914C48.5505 82.809 48.5254 82.9353 48.5254 83.0627V134.316C48.5254 134.444 48.5505 134.57 48.599 134.687C48.6476 134.805 48.7188 134.912 48.8085 135.002C48.8982 135.091 49.0045 135.162 49.1215 135.21C49.2385 135.258 49.3638 135.282 49.49 135.281H61.9329C62.1864 135.281 62.4295 135.179 62.6087 134.999C62.788 134.818 62.8886 134.572 62.8886 134.316V83.0627C62.8886 82.8068 62.788 82.5613 62.6087 82.3803C62.4295 82.1994 62.1864 82.0977 61.9329 82.0977Z" stroke="black" stroke-width="2" stroke-miterlimit="10"/>
<path d="M76.2962 83.9493H63.8533C63.7271 83.9481 63.6018 83.9722 63.4848 84.0202C63.3678 84.0681 63.2615 84.139 63.1718 84.2288C63.0821 84.3185 63.0109 84.4253 62.9623 84.5429C62.9137 84.6606 62.8887 84.7868 62.8887 84.9143V134.317C62.8887 134.445 62.9137 134.571 62.9623 134.689C63.0109 134.806 63.0821 134.913 63.1718 135.003C63.2615 135.093 63.3678 135.163 63.4848 135.211C63.6018 135.259 63.7271 135.284 63.8533 135.282H76.2962C76.422 135.284 76.5468 135.259 76.6633 135.211C76.7798 135.163 76.8856 135.092 76.9746 135.002C77.0636 134.912 77.134 134.806 77.1816 134.688C77.2292 134.57 77.2531 134.444 77.2519 134.317V84.9143C77.2519 84.6584 77.1513 84.4129 76.972 84.2319C76.7928 84.0509 76.5496 83.9493 76.2962 83.9493Z" fill="#25BFC7"/>
<path d="M77.252 92.7832H62.9238V95.9351H77.2871L77.252 92.7832Z" fill="#149692"/>
<path d="M77.252 121.498H62.9238V124.65H77.2871L77.252 121.498Z" fill="#149692"/>
<path d="M76.2962 83.9493H63.8533C63.7271 83.9481 63.6018 83.9722 63.4848 84.0202C63.3678 84.0681 63.2615 84.139 63.1718 84.2288C63.0821 84.3185 63.0109 84.4253 62.9623 84.5429C62.9137 84.6606 62.8887 84.7868 62.8887 84.9143V134.317C62.8887 134.445 62.9137 134.571 62.9623 134.689C63.0109 134.806 63.0821 134.913 63.1718 135.003C63.2615 135.093 63.3678 135.163 63.4848 135.211C63.6018 135.259 63.7271 135.284 63.8533 135.282H76.2962C76.422 135.284 76.5468 135.259 76.6633 135.211C76.7798 135.163 76.8856 135.092 76.9746 135.002C77.0636 134.912 77.134 134.806 77.1816 134.688C77.2292 134.57 77.2531 134.444 77.2519 134.317V84.9143C77.2519 84.6584 77.1513 84.4129 76.972 84.2319C76.7928 84.0509 76.5496 83.9493 76.2962 83.9493Z" stroke="black" stroke-width="2" stroke-miterlimit="10"/>
<path d="M90.6614 83.9493H78.2184C78.0922 83.9481 77.967 83.9722 77.85 84.0202C77.733 84.0681 77.6267 84.139 77.537 84.2288C77.4473 84.3185 77.3761 84.4253 77.3276 84.5429C77.279 84.6606 77.2539 84.7868 77.2539 84.9143V134.317C77.2539 134.445 77.279 134.571 77.3276 134.689C77.3761 134.806 77.4473 134.913 77.537 135.003C77.6267 135.093 77.733 135.163 77.85 135.211C77.967 135.259 78.0922 135.284 78.2184 135.282H90.6614C90.7872 135.284 90.9121 135.259 91.0285 135.211C91.145 135.163 91.2508 135.092 91.3398 135.002C91.4288 134.912 91.4992 134.806 91.5468 134.688C91.5945 134.57 91.6183 134.444 91.6172 134.317V84.9143C91.6172 84.6584 91.5165 84.4129 91.3372 84.2319C91.158 84.0509 90.9149 83.9493 90.6614 83.9493Z" fill="#009245"/>
<path d="M87.2496 92.7051H81.9883V126.349H87.2496V92.7051Z" fill="#047137"/>
<path d="M90.6614 83.9493H78.2184C78.0922 83.9481 77.967 83.9722 77.85 84.0202C77.733 84.0681 77.6267 84.139 77.537 84.2288C77.4473 84.3185 77.3761 84.4253 77.3276 84.5429C77.279 84.6606 77.2539 84.7868 77.2539 84.9143V134.317C77.2539 134.445 77.279 134.571 77.3276 134.689C77.3761 134.806 77.4473 134.913 77.537 135.003C77.6267 135.093 77.733 135.163 77.85 135.211C77.967 135.259 78.0922 135.284 78.2184 135.282H90.6614C90.7872 135.284 90.9121 135.259 91.0285 135.211C91.145 135.163 91.2508 135.092 91.3398 135.002C91.4288 134.912 91.4992 134.806 91.5468 134.688C91.5945 134.57 91.6183 134.444 91.6172 134.317V84.9143C91.6172 84.6584 91.5165 84.4129 91.3372 84.2319C91.158 84.0509 90.9149 83.9493 90.6614 83.9493Z" stroke="black" stroke-width="2" stroke-miterlimit="10"/>
<path d="M202.664 129.847C202.664 129.847 210.986 140.472 215.3 141.233C219.614 141.994 225.244 140.95 223.762 137.444C222.28 133.938 216.957 131.857 210.424 121.596" fill="#F6D2A2"/>
<path d="M202.664 129.847C202.664 129.847 210.986 140.472 215.3 141.233C219.614 141.994 225.244 140.95 223.762 137.444C222.28 133.938 216.957 131.857 210.424 121.596" stroke="black" stroke-width="2" stroke-miterlimit="10"/>
<path d="M122.307 192.193C122.307 192.193 125.525 204.588 131.724 207.723C137.924 210.857 143.299 208.369 140.94 203.614C138.581 198.86 138.126 199.967 136.389 196.461" fill="#F6D2A2"/>
<path d="M122.078 190.777C122.078 190.777 125.524 204.58 131.724 207.705C137.923 210.831 143.29 208.352 140.94 203.597C138.59 198.843 138.125 199.95 136.389 196.444" stroke="black" stroke-width="2" stroke-miterlimit="10"/>
<path d="M176.041 199.116C178.882 202.144 183.626 206.43 188.054 206.731C194.964 207.209 199.682 201.719 194.99 199.347C192.202 197.948 189.931 196.133 187.098 194.256" fill="#F6D2A2"/>
<path d="M176.041 199.116C178.882 202.144 183.626 206.43 188.054 206.731C194.964 207.209 198.27 202.49 194.806 199.825C192.325 197.93 189.782 197.169 187.055 194.256" stroke="black" stroke-width="2" stroke-miterlimit="10"/>
<path d="M191.396 40.6388C192.668 39.4259 201.717 32.6086 207.733 37.5843C213.09 42.0111 206.856 47.5977 203.576 48.7664" fill="#71C2FF"/>
<path d="M191.396 40.6388C192.668 39.4259 201.717 32.6086 207.733 37.5843C213.09 42.0111 205.751 48.3591 202.471 49.5278" stroke="black" stroke-width="2" stroke-miterlimit="10"/>
<path d="M112.53 184.182C126.253 199.844 166.949 203.722 183.557 195.931C197.947 189.202 203.603 166.139 206.242 155.381C208.881 144.624 220.132 79.8338 206.496 54.5125C200.42 43.2419 182.566 31.8562 155.181 35.2383C129.752 38.3724 115.345 55.2651 113.898 71.1573C111.724 94.8495 96.0098 165.342 112.53 184.182Z" fill="#8FCFFF"/>
<path d="M160.6 147.883C166.055 158.773 179.129 154.966 180.242 158.622C181.356 162.279 175.148 163.554 170.772 163.129C163.941 162.465 158.426 152.699 158.426 151.451C158.426 150.202 160.6 147.883 160.6 147.883Z" fill="#71C2FF"/>
<path d="M111.653 183.294C115.407 187.41 131.357 197.946 135.899 186.26C140.722 173.864 131.103 130.987 143.125 75.7933C144.352 70.1713 157.462 52.0569 157.505 48.3472C157.567 43.0351 156.462 33.7654 141.511 38.5463C131.866 41.6185 115.67 54.1375 113.872 71.1541C113.004 79.379 97.8865 158.176 111.653 183.294Z" fill="#71C2FF"/>
<path d="M112.522 184.182C127.429 199.49 166.818 204.2 183.549 195.931C197.807 188.892 203.595 166.139 206.234 155.381C208.873 144.624 220.124 79.8338 206.479 54.5125C200.411 43.2419 182.558 31.8562 155.164 35.2383C129.735 38.3724 116.731 55.451 113.881 71.1573C109.4 95.7083 98.8779 170.167 112.522 184.182Z" stroke="black" stroke-width="2" stroke-miterlimit="10"/>
<path d="M172.815 83.1364C172.815 97.6032 161.652 109.343 146.509 109.343C131.365 109.343 119.062 97.5943 119.062 83.1364C119.062 68.6785 131.339 55.0352 146.509 55.0352C161.679 55.0352 172.815 68.6697 172.815 83.1364Z" fill="#71C2FF"/>
<path d="M225.954 83.9499C225.954 98.4255 226.331 104.216 211.687 108.262C197.043 112.308 185.381 101.887 185.381 87.4205C185.381 72.9537 195.623 58.1328 210.81 58.1328C225.998 58.1328 225.954 69.492 225.954 83.9499Z" fill="#71C2FF"/>
<path d="M175.446 78.9646C175.446 93.4402 164.283 105.171 149.14 105.171C133.996 105.171 121.693 93.4225 121.693 78.9646C121.693 64.5067 133.97 50.8633 149.14 50.8633C164.31 50.8633 175.446 64.4978 175.446 78.9646Z" fill="white" stroke="black" stroke-width="2" stroke-miterlimit="10"/>
<path d="M181.892 97.7247C176.087 96.5826 170.887 98.1762 170.273 101.319C169.905 103.214 171.308 105.25 173.781 106.808C173.404 108.703 172.684 112.572 172.465 113.608C171.588 117.654 177.437 119.673 178.928 115.609C178.674 119.398 184.391 120.257 185.408 115.609C186.215 111.97 186.53 110.067 186.688 109.102C189.187 108.517 190.959 107.242 191.301 105.498C191.888 102.399 187.688 98.8579 181.892 97.7247Z" fill="#71C2FF"/>
<path d="M176.963 104.172L175.463 112.06C174.587 116.284 180.961 118.32 182.101 113.477C182.821 110.731 183.386 107.947 183.794 105.137" fill="white"/>
<path d="M176.963 104.172L175.463 112.06C174.587 116.284 180.961 118.32 182.101 113.477C182.821 110.731 183.386 107.947 183.794 105.137" stroke="black" stroke-width="2" stroke-miterlimit="10"/>
<path d="M183.4 105.713C183.4 105.713 182.242 112.203 181.971 113.593C181.155 117.816 187.319 118.905 188.389 114.097C189.792 107.732 189.775 106.687 189.775 106.687" fill="white"/>
<path d="M183.4 105.713C183.4 105.713 182.242 112.203 181.971 113.593C181.155 117.816 187.319 118.905 188.389 114.097C189.792 107.732 189.775 106.687 189.775 106.687" stroke="black" stroke-width="2" stroke-miterlimit="10"/>
<path d="M194.229 103.942C194.842 100.808 190.633 97.3196 184.837 96.1686C179.041 95.0177 173.841 96.629 173.227 99.7632C172.614 102.897 176.823 106.395 182.619 107.546C188.415 108.696 193.58 107.085 194.229 103.942Z" fill="#F6D2A2"/>
<path d="M194.229 103.942C194.842 100.808 190.633 97.3196 184.837 96.1686C179.041 95.0177 173.841 96.629 173.227 99.7632C172.614 102.897 176.823 106.395 182.619 107.546C188.415 108.696 193.58 107.085 194.229 103.942Z" stroke="black" stroke-width="2" stroke-miterlimit="10"/>
<path d="M167.976 90.8215C168.966 87.9087 167.975 84.925 165.722 84.1548C163.468 83.3845 160.882 85.1287 159.899 88.0415C158.917 90.9543 159.899 93.9291 162.153 94.6994C164.407 95.4697 166.993 93.7344 167.976 90.8215Z" fill="black"/>
<path d="M165.879 92.4205C166.334 92.4205 166.778 92.2845 167.156 92.0296C167.534 91.7747 167.828 91.4124 168.002 90.9886C168.176 90.5647 168.221 90.0983 168.133 89.6483C168.044 89.1984 167.825 88.7851 167.504 88.4607C167.183 88.1363 166.773 87.9153 166.328 87.8258C165.882 87.7363 165.42 87.7823 165 87.9578C164.58 88.1334 164.222 88.4307 163.969 88.8122C163.717 89.1936 163.582 89.6421 163.582 90.1009C163.582 90.7161 163.824 91.3061 164.255 91.7411C164.686 92.1761 165.27 92.4205 165.879 92.4205Z" fill="white"/>
<path d="M232.494 83.8881C230.986 97.4252 221.831 107.607 211.852 107.607C199.971 107.607 190.711 97.7882 190.711 83.8881C190.711 69.9879 199.971 56.9023 211.852 56.9023C223.734 56.9023 233.801 71.9092 232.494 83.8881Z" fill="white" stroke="black" stroke-width="2" stroke-miterlimit="10"/>
<path d="M228.058 94.892C229.163 92.1386 228.295 89.1903 226.112 88.2961C223.928 87.4019 221.28 88.9159 220.175 91.6693C219.07 94.4228 219.938 97.3799 222.113 98.2653C224.288 99.1506 226.953 97.6455 228.058 94.892Z" fill="black"/>
<path d="M225.954 95.8115C226.384 95.7924 226.8 95.6461 227.149 95.3906C227.498 95.1351 227.765 94.7817 227.917 94.3744C228.069 93.967 228.099 93.5235 228.004 93.0991C227.908 92.6746 227.691 92.2878 227.38 91.9867C227.068 91.6856 226.676 91.4834 226.252 91.4052C225.828 91.3271 225.391 91.3764 224.994 91.5471C224.598 91.7178 224.259 92.0023 224.021 92.3654C223.784 92.7284 223.657 93.154 223.656 93.5892C223.662 93.8877 223.726 94.182 223.845 94.4554C223.963 94.7288 224.134 94.9758 224.348 95.1823C224.561 95.3888 224.813 95.5506 225.088 95.6586C225.364 95.7666 225.658 95.8186 225.954 95.8115Z" fill="white"/>
<path d="M191.264 98.2658C191.641 96.3358 189.282 94.2463 186.003 93.5911C182.723 92.936 179.751 93.9719 179.374 95.9019C178.997 97.832 181.355 99.9303 184.635 100.577C187.914 101.223 190.887 100.196 191.264 98.2658Z" fill="black"/>
<path d="M130.542 47.771C130.585 47.2044 122.22 42.3526 119.028 41.1751C115.836 39.9976 102.534 39.8471 105.954 50.2766C108.462 57.8907 118.23 61.1222 121.904 61.1222C121.904 61.1222 126.666 58.3599 128.043 55.2788C129.419 52.1978 130.358 50.2058 130.542 47.771Z" fill="#71C2FF"/>
<path d="M130.542 47.771C130.059 47.4788 122.22 42.3526 119.028 41.1751C115.836 39.9976 102.534 39.8471 105.954 50.2766C108.462 57.8907 118.23 61.1222 121.904 61.1222" stroke="black" stroke-width="2" stroke-miterlimit="10"/>
<path d="M112.381 46.1367C112.381 46.1367 118.458 47.0221 122.421 50.5635C122.421 50.5635 121.299 52.4582 117.589 51.6968C113.88 50.9354 112.381 46.1367 112.381 46.1367Z" fill="#57ABEB"/>
<path d="M112.381 46.1367C112.381 46.1367 118.458 47.0221 122.421 50.5635" stroke="black" stroke-width="2" stroke-miterlimit="10"/>
<path d="M115.668 50.8728C116.714 49.803 118.051 49.0698 119.509 48.7656" stroke="black" stroke-width="2" stroke-miterlimit="10"/>
<path d="M137.293 209.05C137.576 208.434 137.723 207.763 137.723 207.085C137.723 206.406 137.576 205.735 137.293 205.119" stroke="black" stroke-width="2" stroke-miterlimit="10"/>
<path d="M194.087 205.501C194.087 205.501 194.087 204.022 191.5 202.553" stroke="black" stroke-width="2" stroke-miterlimit="10"/>
<path d="M134.267 42.8168C134.653 43.2063 150.822 44.136 158.319 41.0903C165.817 38.0447 168.237 34.158 167.965 32.9539C167.693 31.7498 163.739 16.7695 163.739 16.7695C163.739 16.7695 141.238 19.4876 140.94 19.5407C140.642 19.5938 127.129 25.5877 127.129 25.5877C127.129 25.5877 133.89 42.4272 134.267 42.8168Z" fill="#424546"/>
<path d="M134.267 42.8151C134.478 43.0188 144.176 42.9745 149.63 42.8151C147.114 34.6344 143.589 28.8265 140.862 19.5391C140.528 19.601 127.051 25.5861 127.051 25.5861C127.051 25.5861 133.89 42.4256 134.267 42.8151Z" fill="#303233"/>
<path d="M134.267 42.8168C134.653 43.2063 150.822 44.136 158.319 41.0903C165.817 38.0447 168.237 34.158 167.965 32.9539C167.693 31.7498 163.739 16.7695 163.739 16.7695C163.739 16.7695 141.238 19.4876 140.94 19.5407C140.642 19.5938 127.129 25.5877 127.129 25.5877C127.129 25.5877 133.89 42.4272 134.267 42.8168Z" stroke="black" stroke-width="2" stroke-miterlimit="10"/>
<path d="M109.496 26.7125C109.181 26.7138 108.874 26.6146 108.619 26.4292C108.351 26.2389 108.144 25.9744 108.023 25.6677C107.905 25.3543 107.877 25.0135 107.944 24.685C108.008 24.3518 108.167 24.0445 108.4 23.7996C113.275 18.8948 123.894 8.87249 128.568 4.48997C129.993 3.13933 131.874 2.3861 133.829 2.38281C142.186 2.38281 165.668 2.44478 175.156 2.613C175.473 2.6229 175.779 2.73111 176.033 2.92288C176.303 3.12948 176.504 3.41333 176.612 3.73741C176.709 4.06672 176.709 4.41741 176.612 4.74672C176.524 5.074 176.341 5.36705 176.086 5.58781C170.675 10.2802 159.425 19.6119 154.278 23.835C152.595 25.2398 150.49 26.0264 148.306 26.0662C139.993 26.2609 118.317 26.6328 109.496 26.7125Z" fill="#696A6B" stroke="black" stroke-width="2" stroke-miterlimit="10"/>
<path d="M179.549 139.532V134.318L184.583 132.547V126.792C184.583 126.792 201.919 121.852 212.064 135.46C212.353 136.088 212.546 136.221 212.204 138.744C211.862 141.268 208.048 147.51 208.048 147.51L178.988 146.819L179.549 139.532Z" fill="white"/>
<path d="M212.31 145.633C211.594 142.386 211.98 138.99 213.406 135.991C220.474 121.914 234.968 121.666 234.968 121.666L233.995 126.279L237.827 126.704L235.407 136.124L212.31 145.633Z" fill="white"/>
<path d="M184.381 133.141L184.486 126.563C184.486 126.563 202.129 121.826 212.546 136.001C212.546 136.001 212.958 135.585 211.967 140.543" stroke="black" stroke-width="2" stroke-miterlimit="10"/>
<path d="M236.125 132.874L237.826 126.676C233.475 125.847 228.981 126.279 224.863 127.921C220.744 129.563 217.17 132.348 214.554 135.955C214.554 135.955 209.828 136.672 210.941 142.391" stroke="black" stroke-width="2" stroke-miterlimit="10"/>
<path d="M212.31 145.633C211.594 142.386 211.98 138.99 213.406 135.991C220.474 121.914 234.969 121.666 234.969 121.666L233.995 126.279" stroke="black" stroke-width="2" stroke-miterlimit="10"/>
<path d="M179.551 138.753L179.665 134.379C179.665 134.379 194.397 126.411 211.689 136.353C211.689 136.353 212.925 135.601 211.934 140.55C210.943 145.499 196.01 148.456 196.01 148.456L178.92 147.128L179.551 138.753Z" stroke="black" stroke-width="2" stroke-miterlimit="10"/>
<path d="M176.497 170.088C180.084 168.751 191.571 165.156 203.488 168.91C205.551 168.828 207.603 168.577 209.626 168.158C209.626 168.158 218.482 161.774 229.145 163.899C231.776 157.038 235.204 145.971 240.001 133.523C240.023 133.423 240.023 133.321 240.001 133.222C239.993 133.116 239.963 133.013 239.913 132.92C239.864 132.829 239.799 132.748 239.72 132.681C239.637 132.618 239.541 132.573 239.44 132.549C229.312 130.247 224.138 130.495 216.457 136.621C214.173 136.868 211.879 136.995 209.582 137.002C209.582 137.002 193.518 130.512 177.909 140.499C177.585 143.226 175.857 163.952 175.419 169.3C175.407 169.431 175.431 169.563 175.489 169.681C175.542 169.799 175.623 169.903 175.726 169.982C175.831 170.054 175.951 170.102 176.077 170.123C176.217 170.151 176.363 170.139 176.497 170.088Z" fill="#009245"/>
<path d="M209.625 168.155C212.355 157.809 214.472 147.307 215.965 136.707" stroke="black" stroke-width="2" stroke-miterlimit="10"/>
<path d="M203.285 169.032C206.018 158.686 208.136 148.185 209.625 137.584" stroke="black" stroke-width="2" stroke-miterlimit="10"/>
<path d="M176.585 170.049C180.268 168.694 191.659 165.206 203.488 168.907C205.55 168.824 207.603 168.573 209.626 168.154C209.626 168.154 217.939 162.16 228.154 163.727C228.436 163.773 228.725 163.717 228.97 163.568C229.218 163.426 229.411 163.2 229.513 162.931C232.144 156.06 235.38 145.525 239.913 133.714C239.96 133.59 239.981 133.457 239.974 133.324C239.967 133.191 239.931 133.062 239.869 132.944C239.807 132.826 239.72 132.723 239.615 132.643C239.511 132.564 239.391 132.509 239.264 132.483C229.285 130.234 224.129 130.518 216.465 136.6C214.182 136.846 211.887 136.973 209.591 136.981C209.591 136.981 193.526 130.491 177.918 140.478C177.593 143.187 175.884 163.692 175.428 169.172C175.419 169.312 175.443 169.451 175.498 169.58C175.555 169.711 175.646 169.824 175.761 169.907C175.87 169.995 176 170.053 176.138 170.076C176.287 170.103 176.44 170.094 176.585 170.049V170.049Z" stroke="black" stroke-width="2" stroke-miterlimit="10"/>
<path d="M160.6 147.882C160.6 147.882 167.79 159.25 171.999 160.525C176.208 161.8 181.908 161.286 180.768 157.647C179.628 154.009 174.568 151.388 169.114 140.498" fill="#F6D2A2"/>
<path d="M160.6 147.882C160.6 147.882 167.79 159.25 171.999 160.525C176.208 161.8 181.908 161.286 180.768 157.647C179.628 154.009 174.568 151.388 169.114 140.498" stroke="black" stroke-width="2" stroke-miterlimit="10"/>
<path d="M261.749 37.8125C261.749 42.2739 259.994 46.5526 256.869 49.7073C253.745 52.862 249.507 54.6343 245.088 54.6343C240.67 54.6343 236.432 52.862 233.308 49.7073C230.183 46.5526 228.428 42.2739 228.428 37.8125H261.749Z" fill="#94574C"/>
<path d="M245.527 37.8125C245.527 50.4554 242.896 56.405 233.821 50.2075C232.12 48.6313 230.763 46.7157 229.835 44.5819C228.906 42.4482 228.427 40.143 228.428 37.8125H245.527Z" fill="#6C3C33"/>
<path d="M243.772 26.3047L242.457 38.6997H247.718L246.403 26.3047H243.772Z" fill="#0E6F5C" stroke="black" stroke-width="2"/>
<path d="M245.086 28.9591C252.101 27.4806 269.638 20.9909 261.746 1.07031C252.539 3.72639 243.332 12.58 245.086 28.9591Z" fill="#0E6E5C"/>
<path d="M257.801 11.6953C249.909 22.3196 246.401 26.1532 244.209 27.1891L245.963 28.5171C251 23.7803 255.028 18.0565 257.801 11.6953Z" fill="#1DA88E"/>
<path d="M245.086 28.9591C252.101 27.4806 269.638 20.9909 261.746 1.07031C252.539 3.72639 243.332 12.58 245.086 28.9591Z" stroke="black" stroke-width="2"/>
<path d="M244.78 29.2595C239.08 29.5251 224.279 28.02 226.462 11.0742C234.082 11.2867 242.921 16.2801 244.78 29.2595Z" fill="#0E6E5C"/>
<path d="M231.496 17.4492C235.013 21.9652 239.514 25.6009 244.649 28.0735L242.895 29.4016C240.993 27.6308 237.196 26.3028 231.496 17.4492Z" fill="#1DA88E"/>
<path d="M244.78 29.2595C239.08 29.5251 224.279 28.02 226.462 11.0742C234.082 11.2867 242.921 16.2801 244.78 29.2595Z" stroke="black" stroke-width="2"/>
<path d="M260.845 38.6992C260.613 42.7598 258.851 46.577 255.922 49.3689C252.992 52.1607 249.116 53.716 245.088 53.716C241.059 53.716 237.183 52.1607 234.254 49.3689C231.324 46.577 229.563 42.7598 229.33 38.6992H260.845Z" stroke="black" stroke-width="2"/>
</g>
<defs>
<clipPath id="clip0">
<rect width="341" height="214" fill="white"/>
</clipPath>
</defs>
</svg>
