<svg width="123" height="72" viewBox="0 0 123 72" fill="none" xmlns="http://www.w3.org/2000/svg">
<g clip-path="url(#clip0)">
<path d="M61.2592 71.997C95.0917 71.997 122.518 70.8902 122.518 69.5249C122.518 68.1596 95.0917 67.0527 61.2592 67.0527C27.4267 67.0527 0 68.1596 0 69.5249C0 70.8902 27.4267 71.997 61.2592 71.997Z" fill="#F4F4F4"/>
<path d="M41.6816 63.1277C43.0175 67.6019 45.936 69.8915 47.5898 70.0166C50.1769 70.2094 50.7112 68.6165 50.4035 67.6899C50.2073 67.1116 46.051 63.9495 44.8978 62.377" fill="#F6D2A2"/>
<path d="M23.3429 66.0234C23.3429 66.0234 21.5607 69.6251 18.8552 70.2947C16.1497 70.9644 14.2524 69.5101 15.6018 67.8699C16.9512 66.2297 18.8281 65.1272 19.819 63.9199" fill="#F6D2A2"/>
<path d="M23.3225 65.9392C23.3225 65.9392 21.0262 69.7269 18.8821 70.2511C16.1766 70.9275 14.2794 69.4631 15.6254 67.8229C16.9714 66.1827 18.6183 65.2054 19.6126 63.998" stroke="black" stroke-width="0.676374" stroke-miterlimit="10"/>
<path d="M16.3438 70.2063C16.3719 69.9351 16.4591 69.6735 16.5994 69.4398C16.7396 69.206 16.9294 69.0059 17.1554 68.8535" stroke="black" stroke-width="0.676374" stroke-miterlimit="10"/>
<path d="M22.036 6.2848C20.4364 3.88367 16.1685 1.92895 14.0007 4.48903C12.0696 6.77517 14.0007 8.86855 18.228 9.39951" fill="#71C2FF"/>
<path d="M19.5719 8.40252C18.9767 8.74071 17.1234 7.68557 16.19 6.78599C15.6354 6.10962 17.0524 5.54485 17.8201 5.89318C18.5878 6.24151 20.3125 7.9967 19.5719 8.40252Z" fill="#64B6F4"/>
<path d="M22.0359 6.2848C20.4363 3.88367 16.1684 1.92895 14.0006 4.48903C12.0695 6.77517 14.5146 9.22365 17.8728 9.22365" stroke="black" stroke-width="0.676374" stroke-miterlimit="10"/>
<path d="M48.707 35.9612C48.707 35.9612 53.7528 38.1932 55.4099 37.571C57.067 36.9487 57.8787 35.6873 56.6477 34.7978C55.4167 33.9084 54.0571 34.02 49.6878 31.8691" fill="#F6D2A2"/>
<path d="M48.7168 35.829C48.7168 35.829 52.8427 37.5774 54.7703 37.5368C56.698 37.4962 57.7058 35.714 56.5695 34.767C55.4332 33.8201 53.4142 34.0366 49.4168 31.6523" stroke="black" stroke-width="0.676374" stroke-miterlimit="10"/>
<path d="M42.6074 6.19078C43.6465 4.46463 45.2643 3.16318 47.1729 2.51807C48.2551 2.13592 52.7699 2.08181 51.6066 5.50088C50.7543 7.9967 47.4435 9.05861 46.1956 9.05522" fill="#8FCFFF"/>
<path d="M44.9785 7.06868C44.9785 6.39231 46.7811 5.26276 48.0222 4.87046C48.8677 4.70137 48.6986 6.22321 48.0222 6.73049C47.3458 7.23777 44.9785 7.93106 44.9785 7.06868Z" fill="#71C2FF"/>
<path d="M42.2578 6.39486C43.2627 4.5962 44.8825 3.22018 46.82 2.51923C47.9055 2.11341 52.4169 2.0593 51.257 5.65761C50.4047 8.28532 47.0939 9.40134 45.846 9.40134" stroke="black" stroke-width="0.676374" stroke-miterlimit="10"/>
<path d="M48.1503 5.00391C48.1503 5.00391 46.1854 5.64646 45.0762 7.04993" stroke="black" stroke-width="0.676374" stroke-miterlimit="10"/>
<path d="M17.166 6.0399C17.166 6.0399 18.7555 5.86404 18.9347 7.09842" stroke="black" stroke-width="0.676374" stroke-miterlimit="10"/>
<path d="M47.6936 6.39639C47.2835 6.10792 46.798 5.94569 46.2969 5.92969" stroke="black" stroke-width="0.676374" stroke-miterlimit="10"/>
<path d="M16.9903 60.8142C21.5829 68.5925 38.9014 70.5303 48.4856 60.1074C52.6825 54.4529 51.4448 47.209 51.4448 37.6687C51.4448 28.1285 52.3579 18.666 48.4856 11.5505C46.0405 7.05604 40.031 2.55815 30.281 2.79827C20.5311 3.03838 15.137 9.8055 13.9973 16.0721C13.2094 20.3671 12.3233 24.7568 12.3605 36.1604C12.3977 47.5641 12.3977 53.0393 16.9903 60.8142Z" fill="#8FCFFF"/>
<path d="M53.602 21.3819C52.9257 26.3803 48.7491 30.1409 44.2004 30.1409C38.7895 30.1409 34.5723 26.5155 34.5723 21.3819C34.5723 16.2482 38.7895 11.4121 44.2004 11.4121C49.6114 11.4121 54.2006 16.955 53.602 21.3819Z" fill="#71C2FF"/>
<path d="M28.4981 22.1084C27.8218 27.1068 23.6418 30.8675 19.0965 30.8675C13.6855 30.8675 13.6855 27.2421 13.6855 22.1084C13.6855 16.9747 13.6855 12.1387 19.0965 12.1387C24.5075 12.1387 29.0967 17.6816 28.4981 22.1084Z" fill="#71C2FF"/>
<path d="M16.2346 59.3335C19.4474 64.6836 29.4239 71.17 27.2257 56.9662C25.0275 42.7623 24.5202 47.3279 24.0129 36.1034C23.5056 24.879 25.9304 14.0672 24.5202 6.74543C23.6747 2.349 19.2783 6.91452 17.7564 8.43636C16.2346 9.9582 13.6745 15.8562 13.0218 22.1329C12.5754 26.4313 12.4942 24.6829 12.5145 36.1034C12.5348 47.524 13.0218 53.9631 16.2346 59.3335Z" fill="#71C2FF"/>
<path d="M16.9903 60.8142C21.5829 68.5925 38.0154 69.296 45.7903 62.7588C53.5652 56.2217 51.4448 47.2022 51.4448 37.6687C51.4448 28.1352 52.3579 18.666 48.4856 11.5505C46.0405 7.05604 40.031 2.55815 30.281 2.79827C20.5311 3.03838 15.137 9.80888 13.9973 16.0721C13.2094 20.3671 12.3233 24.7568 12.3605 36.1604C12.3977 47.5641 12.3977 53.0393 16.9903 60.8142Z" stroke="black" stroke-width="0.676374" stroke-miterlimit="10"/>
<path d="M33.2857 25.5913C30.9488 25.1381 28.8555 25.7739 28.6086 27.0286C28.4564 27.7861 29.0212 28.5978 30.0087 29.22C29.8565 29.9776 29.5657 31.5197 29.4811 31.9255C29.1429 33.5387 31.4798 34.347 32.0851 32.7237C31.9803 34.2354 34.2834 34.5803 34.6959 32.7237C35.0172 31.2695 35.1491 30.5119 35.2134 30.1298C36.2279 29.8964 36.9314 29.3858 37.07 28.6891C37.3169 27.4446 35.6226 26.0512 33.2857 25.5913Z" fill="#71C2FF"/>
<path d="M31.4814 27.9375L30.9775 31.157C30.6799 32.8852 32.824 33.7137 33.2061 31.7353C33.71 29.1381 33.7743 28.3332 33.7743 28.3332" fill="white"/>
<path d="M31.4814 27.9375L30.9775 31.157C30.6799 32.8852 32.824 33.7137 33.2061 31.7353C33.71 29.1381 33.7743 28.3332 33.7743 28.3332" stroke="black" stroke-width="0.676374" stroke-miterlimit="10"/>
<path d="M33.6058 28.291C33.6058 28.291 33.1933 30.8714 33.0952 31.4226C32.801 33.1136 35.0161 33.5464 35.3982 31.6222C35.9021 29.0925 35.8954 28.6766 35.8954 28.6766" fill="white"/>
<path d="M33.6058 28.291C33.6058 28.291 33.1933 30.8714 33.0952 31.4226C32.801 33.1136 35.0161 33.5464 35.3982 31.6222C35.9021 29.0925 35.8954 28.6766 35.8954 28.6766" stroke="black" stroke-width="0.676374" stroke-miterlimit="10"/>
<path d="M49.0049 69.9225C49.0403 69.5982 49.0014 69.2702 48.8912 68.9632C48.7811 68.6562 48.6025 68.3782 48.3691 68.1504" stroke="black" stroke-width="0.676374" stroke-miterlimit="10"/>
<path d="M42.2734 64.7456C44.3026 69.1421 46.051 69.8421 47.7013 69.9638C50.2817 70.1532 50.745 68.6111 50.2208 67.5627C49.6966 66.5143 46.352 64.9959 45.3171 63.0547" stroke="black" stroke-width="0.676374" stroke-miterlimit="10"/>
<path d="M37.3403 26.5779C37.3403 25.4348 35.6933 24.4981 33.6439 24.4845C31.5945 24.471 29.9238 25.3807 29.9238 26.5136C29.9238 27.6466 31.5708 28.5935 33.6202 28.607C35.6696 28.6206 37.3301 27.7176 37.3403 26.5779Z" fill="#F6D2A2"/>
<path d="M37.5144 26.5802C37.5144 25.3052 35.8235 24.2534 33.6997 24.2365C31.5758 24.2196 29.8578 25.2511 29.8477 26.5193C29.8376 27.7875 31.5386 28.846 33.6624 28.8629C35.7863 28.8798 37.5043 27.8585 37.5144 26.5802Z" stroke="black" stroke-width="0.676374" stroke-miterlimit="10"/>
<path d="M14.3735 38.1802C14.3735 38.1802 10.9409 41.1732 9.16882 41.1529C7.04839 41.508 6.18939 40.2871 7.04839 39.0325C8.63448 36.7193 9.97371 36.6077 13.359 33.1074" fill="#F6D2A2"/>
<path d="M55.6333 19.0147C54.9569 24.0131 50.7803 27.7737 46.2317 27.7737C40.8207 27.7737 36.6035 24.1483 36.6035 19.0147C36.6035 13.881 40.8207 9.04492 46.2317 9.04492C51.6427 9.04492 56.2319 14.5878 55.6333 19.0147Z" fill="white" stroke="black" stroke-width="0.676374" stroke-miterlimit="10"/>
<path d="M29.1272 19.5558C28.417 24.6489 24.0916 28.4805 19.3773 28.4805C13.7634 28.4805 9.39062 24.7875 9.39062 19.5558C9.39062 14.324 13.7634 9.41016 19.3773 9.41016C24.9912 9.41016 29.7461 15.0308 29.1272 19.5558Z" fill="white" stroke="black" stroke-width="0.676374" stroke-miterlimit="10"/>
<path d="M15.3059 17.0182C15.0049 18.2086 15.5088 19.3618 16.4287 19.5951C17.3485 19.8285 18.3428 19.0541 18.6438 17.8636C18.9448 16.6732 18.4409 15.5166 17.5176 15.2866C16.5944 15.0567 15.6069 15.8277 15.3059 17.0182Z" fill="black"/>
<path d="M16.4357 15.9776C16.2538 15.9929 16.0806 16.0617 15.9379 16.1754C15.7951 16.2891 15.6893 16.4426 15.6337 16.6164C15.5781 16.7902 15.5753 16.9765 15.6256 17.152C15.6758 17.3274 15.777 17.484 15.9162 17.6019C16.0554 17.7199 16.2265 17.794 16.4077 17.8148C16.589 17.8356 16.7724 17.8023 16.9348 17.7189C17.0971 17.6356 17.2311 17.506 17.3198 17.3466C17.4086 17.1871 17.4481 17.0049 17.4333 16.8231C17.4127 16.5789 17.2961 16.3528 17.1091 16.1943C16.9221 16.0359 16.68 15.9579 16.4357 15.9776Z" fill="white"/>
<path d="M50.7038 17.7574C50.5922 16.5771 49.7365 15.6945 48.793 15.7858C47.8495 15.8771 47.1798 16.9052 47.2914 18.0855C47.403 19.2657 48.2621 20.1484 49.2022 20.0571C50.1424 19.9658 50.8187 18.9377 50.7038 17.7574Z" fill="black"/>
<path d="M50.1229 18.1365C50.2734 18.0499 50.3952 17.9209 50.473 17.7657C50.5509 17.6104 50.5814 17.4357 50.5608 17.2633C50.5401 17.0908 50.4693 16.9283 50.357 16.7957C50.2448 16.6632 50.0961 16.5666 49.9293 16.5179C49.7626 16.4693 49.5853 16.4706 49.4194 16.5219C49.2534 16.5732 49.1062 16.6721 48.996 16.8064C48.8859 16.9406 48.8176 17.1043 48.7997 17.277C48.7817 17.4498 48.815 17.624 48.8952 17.778C48.9522 17.8823 49.0291 17.9743 49.1217 18.0488C49.2143 18.1232 49.3206 18.1787 49.4347 18.212C49.5487 18.2453 49.6682 18.2558 49.7863 18.2428C49.9044 18.2299 50.0188 18.1937 50.1229 18.1365Z" fill="white"/>
<path d="M36.0777 24.3966C36.0439 23.612 34.9211 23.0235 33.5718 23.0844C32.2224 23.1453 31.1605 23.8284 31.2044 24.613C31.2484 25.3976 32.361 25.9658 33.707 25.9252C35.053 25.8846 36.1048 25.1778 36.0777 24.3966Z" fill="black"/>
<path d="M14.5152 38.0268C14.5152 38.0268 11.7421 40.3942 10.0444 40.8913C8.3467 41.3884 7.20362 41.1551 6.74031 40.1473C6.40212 39.4202 6.74031 38.7337 8.86074 37.1442C10.9812 35.5547 11.3363 35.1996 13.4567 33.0859" stroke="black" stroke-width="0.676374" stroke-miterlimit="10"/>
<path d="M90.2969 43.9297V69.2937" stroke="black" stroke-width="0.676374"/>
<path d="M78.291 67.7898L90.2967 63.5625" stroke="black" stroke-width="0.676374"/>
<path d="M101.964 67.7898L90.2969 63.5625" stroke="black" stroke-width="0.676374"/>
<path d="M115.488 1.68945H66.6538C66.4509 1.68945 66.2852 4.81092 66.2852 8.66287V37.9228C66.2852 41.7748 66.4509 44.8962 66.6538 44.8962H115.488C115.694 44.8962 115.86 41.7748 115.86 37.9228V8.66287C115.86 4.81092 115.694 1.68945 115.488 1.68945Z" fill="white"/>
<path d="M115.487 2.36719H66.6528C66.5481 2.37499 66.4507 2.42374 66.3817 2.50287C66.3127 2.582 66.2777 2.68514 66.2842 2.78992V4.5654C66.2767 4.67075 66.3114 4.77476 66.3805 4.85463C66.4496 4.9345 66.5475 4.98372 66.6528 4.99152H115.487C115.539 4.98808 115.591 4.97432 115.638 4.95102C115.685 4.92773 115.727 4.89535 115.762 4.85575C115.796 4.81616 115.823 4.77013 115.839 4.7203C115.856 4.67047 115.863 4.61783 115.859 4.5654V2.78992C115.866 2.68459 115.83 2.58097 115.76 2.50175C115.691 2.42252 115.592 2.37414 115.487 2.36719Z" fill="#ECECEC"/>
<path d="M115.488 1.68945H66.6538C66.4509 1.68945 66.2852 4.81092 66.2852 8.66287V37.9228C66.2852 41.7748 66.4509 44.8962 66.6538 44.8962H115.488C115.694 44.8962 115.86 41.7748 115.86 37.9228V8.66287C115.86 4.81092 115.694 1.68945 115.488 1.68945Z" stroke="black" stroke-width="0.676374" stroke-miterlimit="10"/>
<path d="M117.152 0.337891H64.6518C64.5435 0.342296 64.4414 0.389095 64.3673 0.468189C64.2933 0.547283 64.2533 0.652324 64.2561 0.760624V2.53611C64.2524 2.64498 64.292 2.75089 64.3661 2.83071C64.4402 2.91054 64.5429 2.95782 64.6518 2.96222H117.152C117.206 2.96047 117.259 2.94806 117.309 2.92569C117.358 2.90333 117.403 2.87145 117.44 2.83188C117.477 2.7923 117.506 2.74581 117.525 2.69506C117.544 2.64431 117.553 2.5903 117.551 2.53611V0.760624C117.554 0.651759 117.513 0.546227 117.439 0.467038C117.364 0.387849 117.261 0.341427 117.152 0.337891Z" fill="#B86B0F" stroke="black" stroke-width="0.676374" stroke-miterlimit="10"/>
<path d="M117.152 42.9141H64.6517C64.5434 42.9185 64.4413 42.9653 64.3672 43.0444C64.2932 43.1235 64.2532 43.2285 64.256 43.3368V45.1292C64.2532 45.2375 64.2932 45.3425 64.3672 45.4216C64.4413 45.5007 64.5434 45.5475 64.6517 45.5519H117.152C117.261 45.5484 117.364 45.502 117.438 45.4228C117.513 45.3436 117.554 45.238 117.551 45.1292V43.3368C117.554 43.2279 117.513 43.1224 117.438 43.0432C117.364 42.964 117.261 42.9176 117.152 42.9141Z" fill="#B86B0F" stroke="black" stroke-width="0.676374" stroke-miterlimit="10"/>
<path d="M54.1113 40.0568L72.3734 15.3691" stroke="black" stroke-width="0.676374"/>
<path d="M105.854 10.4492H74.4023V11.1256H105.854V10.4492Z" fill="#C4C4C4"/>
<path d="M105.854 21.2695H74.4023V21.9459H105.854V21.2695Z" fill="#C4C4C4"/>
<path d="M105.854 32.0918H74.4023V32.7682H105.854V32.0918Z" fill="#C4C4C4"/>
<path d="M99.09 13.8301H74.4023V14.5065H99.09V13.8301Z" fill="#C4C4C4"/>
<path d="M99.09 24.6523H74.4023V25.3287H99.09V24.6523Z" fill="#C4C4C4"/>
<path d="M99.09 35.4766H74.4023V36.1529H99.09V35.4766Z" fill="#C4C4C4"/>
</g>
<defs>
<clipPath id="clip0">
<rect width="122.515" height="72" fill="white"/>
</clipPath>
</defs>
</svg>
