<svg width="72" height="72" viewBox="0 0 72 72" fill="none" xmlns="http://www.w3.org/2000/svg">
<path d="M42.4096 24.5781H29.4873L22.9922 36.0169L29.4533 47.3197H42.4096L48.8708 36.0169L42.4096 24.5781ZM40.7093 44.2263H31.1706L26.4268 35.9829L31.1706 27.6545H40.6923L45.4361 35.9829L40.7093 44.2263Z" fill="#141A1F"/>
<path d="M26.4277 36.0198L31.1716 44.2292H40.6932L45.4541 36.0198L40.6932 27.5215H31.1716L26.4277 36.0198Z" fill="#E83030"/>
<path d="M42.4096 48.8867H29.4873L22.9922 60.2745L29.4533 71.5943H42.4096L48.8708 60.2745L42.4096 48.8867ZM40.7093 68.6029H31.1706L26.4268 60.3595L31.1706 52.0311H40.6923L45.4361 60.3595L40.7093 68.6029Z" fill="#141A1F"/>
<path d="M26.4277 60.2893L31.1716 68.6177H40.6932L45.4541 60.2893L40.6932 51.9609H31.1716L26.4277 60.2893Z" fill="#6B91C7"/>
<path d="M42.4096 0.207031H29.4873L22.9922 11.6288L29.4873 22.9486H42.4266L48.9048 11.6288L42.4096 0.207031ZM40.7093 19.8552H31.1706L26.4268 11.6118L31.1706 3.19845H40.6923L45.4361 11.5268L40.7093 19.8552Z" fill="#141A1F"/>
<path d="M26.4277 11.6312L31.1716 19.8406H40.6932L45.4541 11.6312L40.6932 3.13281H31.1716L26.4277 11.6312Z" fill="#F9C31F"/>
<path d="M63.4449 36.8164H50.6076L44.1465 48.2552L50.6076 59.558H63.5639L69.974 48.2552L63.4449 36.8164ZM61.7446 56.5156H52.2059L47.4621 48.2722L52.2059 39.9438H61.7106L66.4544 48.2722L61.7446 56.5156Z" fill="#141A1F"/>
<path d="M47.4434 48.2894L52.2382 56.5328H61.7429L66.5717 48.2894L61.7259 39.791H52.2382L47.4434 48.2894Z" fill="#795AA5"/>
<path d="M63.4449 12.4453H50.6076L44.1465 23.7481L50.6076 35.0679H63.5639L69.974 23.7481L63.4449 12.4453ZM61.7446 32.1105H52.2059L47.4621 23.8671L52.2059 15.5047H61.7106L66.4544 23.8331L61.7446 32.1105Z" fill="#141A1F"/>
<path d="M47.4434 23.8833L52.1702 32.2287H61.7429L66.5717 24.0023L61.7429 15.5039H52.1702L47.4434 23.8833Z" fill="#F17423"/>
<path d="M21.2593 36.8164H8.42208L1.96094 48.2552L8.42208 59.558H21.3784L27.8395 48.2552L21.2593 36.8164ZM19.559 56.4986H10.1394L5.36154 48.2552L10.1054 39.9268H19.6271L24.3709 48.2552L19.559 56.4986Z" fill="#141A1F"/>
<path d="M5.36133 48.2386L10.1052 56.482H19.5078L24.3707 48.2386L19.5078 39.7402H10.1392L5.36133 48.2386Z" fill="#97C639"/>
<path d="M21.2593 12.4453H8.42208L1.96094 23.7481L8.42208 35.0679H21.3784L27.8395 23.7481L21.2593 12.4453ZM19.559 32.1105H10.1394L5.36154 23.8671L10.1394 15.5047H19.6611L24.4049 23.8331L19.559 32.1105Z" fill="#141A1F"/>
<path d="M5.36133 23.8663L10.1052 32.1097H19.5078L24.3707 23.8663L19.5418 15.5039H10.1392L5.36133 23.8663Z" fill="#C9DB70"/>
</svg>
