<svg width="72" height="72" viewBox="0 0 72 72" fill="none" xmlns="http://www.w3.org/2000/svg">
<path d="M0 32L64 32" stroke="#E0E5EB" stroke-width="2" stroke-linejoin="round"/>
<rect x="1" y="1" width="62" height="62" rx="5" stroke="#E0E5EB" stroke-width="2"/>
<path d="M1 5C1 2.79086 2.79086 1 5 1H5.72596L32 16.5698V47.4302L5.72596 63H5C2.79086 63 1 61.2091 1 59V5Z" stroke="#E0E5EB" stroke-width="2"/>
<path d="M63 5C63 2.79086 61.2091 1 59 1H58.274L32 16.5698V47.4302L58.274 63H59C61.2091 63 63 61.2091 63 59V5Z" stroke="#E0E5EB" stroke-width="2"/>
<circle cx="56" cy="56" r="15" fill="#D6EBFF" stroke="#0080FF" stroke-width="2"/>
<path d="M56 49L62 52.5V59.5L56 63L50 59.5V52.5L56 49Z" stroke="#0080FF" stroke-width="2" stroke-linejoin="round"/>
<path d="M32 32.0001H1L19.2208 8.95993L32 16.5001V32.0001Z" stroke="#A7B1BE" stroke-width="2" stroke-linejoin="round"/>
</svg>
