<svg width="72" height="72" viewBox="0 0 72 72" fill="none" xmlns="http://www.w3.org/2000/svg">
<g clip-path="url(#clip0)">
<path fill-rule="evenodd" clip-rule="evenodd" d="M46.7656 0.206187C47.2214 0.447259 47.5646 0.85654 47.722 1.34662C47.8794 1.83669 47.8384 2.36871 47.6078 2.82904C46.5805 5.15827 45.9976 7.65813 45.8891 10.2005C45.73 12.4857 45.776 14.7805 46.0266 17.0576C46.0604 17.3098 46.0441 17.5661 45.9787 17.8119C45.9132 18.0578 45.7999 18.2884 45.645 18.4906C45.4902 18.6927 45.297 18.8625 45.0764 18.9902C44.8558 19.1179 44.6122 19.201 44.3594 19.2348C44.1066 19.2685 43.8496 19.2523 43.6031 19.187C43.3566 19.1217 43.1254 19.0086 42.9228 18.8542C42.7201 18.6998 42.5499 18.5071 42.4218 18.2871C42.2938 18.0671 42.2105 17.824 42.1767 17.5719C41.8794 15.0286 41.8219 12.4631 42.0048 9.90904C42.1454 6.85221 42.8687 3.8501 44.136 1.06333C44.3714 0.602453 44.7803 0.25344 45.2732 0.092773C45.7661 -0.0678939 46.3028 -0.0271101 46.7656 0.206187Z" fill="#1A1A1A"/>
<path d="M35.4572 30.9608C36.6259 25.4236 24.7496 24.5151 18.6654 24.7551C-5.39661 25.2694 4.69223 39.9436 17.9779 41.5894C23.4434 42.2579 33.9963 37.8865 35.4572 30.9608Z" fill="#CFEDFC"/>
<path d="M5.92851 27.8391C6.73058 27.2027 7.63007 26.6991 8.59252 26.3477L8.93626 27.4105L10.655 29.6219L13.2159 31.9191L15.1752 31.6277L24.9718 30.6162L35.2841 31.7134C34.9406 32.7578 34.4235 33.7371 33.7545 34.6105C29.1034 34.0252 24.4173 33.7617 19.7298 33.8219C18.6985 35.0219 18.3204 39.1534 18.2345 41.6048H17.9939C16.9246 41.4688 15.8673 41.251 14.8314 40.9534C14.8619 38.8436 15.2155 36.7509 15.8799 34.7477C13.0479 35.0502 10.3184 35.9753 7.88784 37.4562C7.1101 36.8488 6.40636 36.1527 5.79102 35.3819L9.70968 33.2391C8.24604 31.5895 6.97732 29.7776 5.92851 27.8391Z" fill="#00ACE6"/>
<path d="M33.4285 37.7148L36.9518 40.0977L21.0022 63.5491L17.1866 60.9777L14.2304 56.572L12.7695 49.4234L15.4679 43.2177L21.81 45.1377L33.4285 37.7148Z" fill="#FFE100"/>
<path fill-rule="evenodd" clip-rule="evenodd" d="M30.2149 22.0111C34.9413 11.8283 46.4051 14.3311 51.8878 17.9826L36.9522 40.0283L35.2335 38.8626C32.7993 41.2076 29.8599 42.9667 26.6399 44.0054C26.8228 45.1718 27.255 46.2853 27.9075 47.2703C28.5599 48.2553 29.4172 49.0887 30.4211 49.714L25.5056 56.914C23.4815 55.6299 21.7615 53.9223 20.4646 51.9095C19.1677 49.8966 18.325 47.6267 17.9948 45.2568L15.8636 45.1368C12.1168 53.7083 17.9948 60.2054 21.6213 62.6568L15.2793 71.9997L16.3964 63.2226C9.24657 57.1197 10.5184 47.794 12.0481 44.0397C7.13256 43.0626 -1.40944 35.9997 0.206145 29.8797C2.99046 19.354 21.3291 19.5254 30.2149 22.0111ZM35.4741 30.8568C36.5741 25.354 24.7322 24.4454 18.6651 24.6854C15.5974 24.675 12.5432 25.0904 9.59031 25.9197C9.92176 27.0196 10.4861 28.0356 11.2452 28.8992C12.0042 29.7628 12.9403 30.4538 13.9902 30.9254C21.0369 29.3826 30.1805 30.1197 35.4741 30.8568ZM35.0273 32.314C31.0309 31.895 27.0146 31.6947 22.9963 31.714C21.4616 32.834 20.2674 34.3554 19.5455 36.1102C18.8236 37.8649 18.6022 39.7845 18.9057 41.6568C24.1994 41.7426 32.6554 38.0911 35.0273 32.3826V32.314ZM17.187 41.4683C16.9933 39.7833 17.1564 38.0764 17.6656 36.4582C18.1748 34.84 19.0189 33.3464 20.1432 32.074C12.9762 32.3483 8.47315 34.3711 6.25601 35.9654C9.21313 38.9223 13.0457 40.8517 17.187 41.4683ZM5.01854 34.2854C7.13183 33.1854 9.37104 32.345 11.6871 31.7826C9.87329 30.5448 8.48675 28.7786 7.71692 26.7254C3.81544 28.594 3.43732 31.5254 5.01854 34.2854Z" fill="#1A1A1A"/>
<path fill-rule="evenodd" clip-rule="evenodd" d="M70.3293 16.1153C69.9413 15.7802 69.436 15.6119 68.9239 15.6472C68.4119 15.6825 67.9346 15.9186 67.5966 16.3039C65.7949 18.0938 63.6805 19.5403 61.3577 20.5724C59.3168 21.5893 57.1885 22.4212 54.9984 23.0582C54.7513 23.1212 54.519 23.2322 54.3148 23.3847C54.1107 23.5373 53.9387 23.7285 53.8086 23.9474C53.5459 24.3894 53.47 24.9175 53.5977 25.4153C53.7253 25.9132 54.046 26.34 54.4892 26.6021C54.9324 26.8641 55.4618 26.9398 55.9609 26.8124C58.4362 26.1386 60.8418 25.2316 63.1451 24.1039C65.8952 22.831 68.3794 21.0512 70.4668 18.8582C70.6411 18.6704 70.776 18.4498 70.8636 18.2094C70.9512 17.9689 70.9897 17.7134 70.9769 17.4579C70.9641 17.2023 70.9002 16.9519 70.789 16.7214C70.6778 16.4908 70.5215 16.2848 70.3293 16.1153Z" fill="#1A1A1A"/>
<path d="M45.942 38.0386C50.6685 34.8843 55.9277 45.5472 57.973 51.2729C66.4462 73.6786 49.0529 69.8729 42.5046 58.13C39.9093 53.3643 40.0468 41.9643 45.942 38.0386Z" fill="#CFEDFC"/>
<path d="M59.8625 64.201C60.1433 63.2263 60.2766 62.2151 60.2578 61.201H59.1235L56.4251 60.3953L53.2798 58.9896L52.833 57.0696L50.1174 47.6239L45.2535 38.5039C44.4158 39.2102 43.7014 40.0501 43.1394 40.9896C45.4228 45.0737 47.4156 49.3127 49.1034 53.6753C48.3643 55.081 44.6691 56.9668 42.4004 57.961C42.4505 58.0295 42.491 58.1045 42.5207 58.1839C43.0281 59.121 43.6025 60.0205 44.2394 60.8753C46.1869 60.0515 48.0001 58.9421 49.619 57.5839C50.3952 60.321 50.5537 63.1956 50.083 66.001C50.9423 66.4763 51.846 66.8667 52.7814 67.1668L53.3314 62.7268C55.4426 63.4733 57.6348 63.9681 59.8625 64.201Z" fill="#00ACE6"/>
<path d="M40.4769 42.4102L36.9536 40.0273L21.0039 63.5473L24.8366 66.1359L29.9928 67.2502L37.1942 65.9474L42.0581 61.1645L37.8988 56.0216L40.4769 42.4102Z" fill="#FFE100"/>
<path fill-rule="evenodd" clip-rule="evenodd" d="M56.2362 39.5481C63.936 31.371 57.319 21.651 51.8879 17.9824L36.9523 40.0281L38.671 41.1767C37.4226 44.2932 36.9053 47.6531 37.1585 50.9996C36.0088 51.2799 34.812 51.3101 33.6495 51.0883C32.487 50.8664 31.386 50.3977 30.4212 49.7139L25.5056 56.9139C27.4552 58.3085 29.6847 59.2652 32.0405 59.718C34.3964 60.1708 36.8226 60.1089 39.1522 59.5367L40.0631 61.4567C33.5664 68.091 25.2478 65.091 21.6213 62.6567L15.2793 71.9996L23.0479 67.7139C31.3836 71.9996 39.5303 67.4224 42.5037 64.5767C45.2365 68.7596 54.9987 74.0224 60.1549 70.2853C68.8516 63.7539 61.8736 46.851 56.2362 39.5481ZM45.9239 38.0053C50.6332 34.9367 55.8925 45.5653 57.9549 51.2739C59.106 54.1091 59.8467 57.0933 60.1549 60.1367C59.0071 60.2418 57.8501 60.0969 56.764 59.7122C55.6779 59.3274 54.6885 58.7118 53.8644 57.9081C52.7816 50.7939 48.6911 42.5996 45.9755 38.0053H45.9239ZM44.738 38.9653C46.6369 42.5043 48.341 46.144 49.8426 49.8681C49.3649 51.6878 48.3961 53.342 47.0416 54.6507C45.687 55.9595 43.9986 56.8727 42.16 57.291C40.1147 52.4739 40.3381 43.251 44.7896 38.9653H44.738ZM42.9678 58.851C44.6088 58.4013 46.1372 57.6137 47.4545 56.5389C48.7717 55.4642 49.8487 54.1261 50.616 52.611C53.0222 59.331 52.816 64.2681 52.1629 66.9081C48.3066 65.2822 45.0811 62.4558 42.9678 58.851ZM54.1909 67.4224C54.435 65.0538 54.383 62.664 54.0363 60.3081C55.8691 61.5089 58.0324 62.1083 60.2236 62.0224C59.9486 66.4453 57.3877 67.9367 54.1909 67.4567V67.4224Z" fill="#1A1A1A"/>
</g>
<defs>
<clipPath id="clip0">
<rect width="72" height="72" fill="white"/>
</clipPath>
</defs>
</svg>
