<svg width="71" height="72" viewBox="0 0 71 72" fill="none" xmlns="http://www.w3.org/2000/svg">
<path fill-rule="evenodd" clip-rule="evenodd" d="M46.6385 0.213861C47.5934 0.702721 47.9714 1.87294 47.4828 2.82763C46.5179 4.71267 45.9959 7.41642 45.7963 10.1955C45.5993 12.9385 45.7304 15.5343 45.9322 17.0621C46.0727 18.1255 45.3244 19.1011 44.261 19.2413C43.1975 19.3814 42.2216 18.633 42.0811 17.5696C41.8438 15.7729 41.7065 12.9132 41.9217 9.91621C42.1344 6.95533 42.7055 3.63464 44.0247 1.05731C44.5133 0.102626 45.6836 -0.274998 46.6385 0.213861Z" fill="#1A1A1A"/>
<path d="M35.3681 30.9613C36.5343 25.421 24.6817 24.5168 18.6096 24.7572C-5.32829 25.2722 4.6777 39.9489 17.9309 41.5853C23.385 42.2587 33.9105 37.8866 35.3681 30.9613Z" fill="#CFEDFC"/>
<path d="M5.92071 27.8318C6.5926 27.2776 7.46492 26.776 8.55907 26.3457L8.90023 27.4176L10.6368 29.6173L13.1806 31.9233L15.1348 31.6332L24.9035 30.6204L35.1721 31.719C34.8491 32.749 34.3262 33.7171 33.654 34.6144C30.6148 34.0055 23.5193 33.8251 19.6655 33.8177C18.6343 35.0295 18.261 39.1495 18.1803 41.6099C18.097 41.6021 18.0148 41.5932 17.9337 41.5832C16.852 41.4497 15.7919 41.2292 14.7702 40.9367C14.6757 39.013 15.3393 36.2619 15.8221 34.7349C12.8012 34.8994 9.6058 36.3916 7.84344 37.4313C7.03118 36.779 6.3269 36.0826 5.75586 35.3646L9.67147 33.2131C9.0671 32.9059 7.15716 29.8924 5.92071 27.8318Z" fill="#00ACE6"/>
<path d="M33.3378 37.6465L36.8573 40.0263L20.9543 63.5541L17.1331 60.9704L14.1981 56.6419L12.7285 49.4952L15.3603 43.2172L21.6767 45.1441L33.3378 37.6465Z" fill="#FFE100"/>
<path fill-rule="evenodd" clip-rule="evenodd" d="M30.1397 22.0047C34.8574 11.8321 46.3337 14.3263 51.7535 17.991L36.8593 40.0263L35.1498 38.8704C32.9795 41.3877 28.5464 43.293 26.6011 43.931C26.7987 46.7602 29.1727 48.9417 30.335 49.6788L25.4417 56.9181C19.73 53.056 18.0616 47.5329 17.9414 45.2541L15.8214 45.1391C12.0782 53.625 17.9478 60.2015 21.5679 62.6492L15.2852 71.8945L16.3466 63.2207C9.22174 57.114 10.4964 47.8869 12.0244 44.0367C7.11583 43.0618 -1.40315 35.9395 0.197227 29.8866C2.98373 19.3477 21.2685 19.5224 30.1397 22.0047ZM35.3758 30.926C36.4849 25.4168 24.6694 24.5169 18.6101 24.7569C14.7582 24.8397 11.7852 25.2893 9.56317 25.9922C10.552 29.0637 12.845 30.5911 13.9585 30.9875C20.984 29.3899 30.1063 30.127 35.3758 30.926ZM34.9326 32.3806C31.2579 31.9033 25.7823 31.7802 22.9414 31.7875C19.0837 34.4213 18.5889 38.863 18.9171 41.6515C24.1425 41.7413 32.611 38.0993 34.9326 32.3806ZM17.1552 41.4737C16.4503 37.4342 18.7194 33.6231 20.1119 32.0718C12.9677 32.3444 8.4639 34.3719 6.26364 35.9634C8.61798 38.5392 12.6605 40.741 17.1552 41.4737ZM5.01249 34.2967C6.77861 33.2174 9.94272 32.2245 11.6644 31.7803C9.17532 29.9189 8.08846 27.9757 7.70415 26.7181C3.81075 28.5897 3.3694 31.5199 5.01249 34.2967Z" fill="#1A1A1A"/>
<path fill-rule="evenodd" clip-rule="evenodd" d="M70.0831 16.0687C69.2737 15.3647 68.0472 15.45 67.3435 16.2592C65.954 17.8571 63.6399 19.349 61.1358 20.5699C58.6643 21.7749 56.207 22.6205 54.7143 23.0026C53.6754 23.2685 53.0489 24.3264 53.3151 25.3655C53.5813 26.4046 54.6394 27.0313 55.6783 26.7654C57.4337 26.3161 60.1381 25.3779 62.8386 24.0613C65.5065 22.7605 68.3746 20.9931 70.2744 18.8085C70.9781 17.9993 70.8924 16.7726 70.0831 16.0687Z" fill="#1A1A1A"/>
<path d="M45.7574 37.9854C50.4632 34.8384 55.7189 45.5023 57.7586 51.2276C66.2013 73.6372 48.8554 69.8195 42.3984 58.1285C39.7411 53.3174 39.8752 41.919 45.7574 37.9854Z" fill="#CFEDFC"/>
<path d="M59.643 64.0796C59.9068 63.2495 60.0472 62.2529 60.0386 61.0771L58.917 61.1599L56.229 60.3678L53.1415 58.8662L52.6824 56.9442L49.9818 47.5002L45.1359 38.3789C44.3006 39.0625 43.5972 39.9086 43.0153 40.8668C44.7127 43.4608 47.5243 49.9791 48.9672 53.5532C48.2272 54.9619 44.5437 56.8437 42.291 57.8354C42.3293 57.9098 42.3682 57.9828 42.4077 58.0544C42.9347 59.0086 43.5343 59.9103 44.1864 60.7496C46.0065 60.1205 48.3116 58.4794 49.5484 57.4622C50.5216 60.3273 50.3279 63.8491 50.02 65.8723C50.9279 66.3831 51.8364 66.7773 52.7155 67.0397L53.2525 62.6037C53.7627 63.0502 57.2704 63.6999 59.643 64.0796Z" fill="#00ACE6"/>
<path d="M40.3777 42.4052L36.8581 40.0254L20.9551 63.5533L24.7763 66.137L29.886 67.248L37.0644 65.9488L41.9085 61.1667L37.7668 56.0223L40.3777 42.4052Z" fill="#FFE100"/>
<path fill-rule="evenodd" clip-rule="evenodd" d="M56.0142 39.5017C63.6944 31.3322 57.1037 21.61 51.6838 17.9453L36.7896 39.9806L38.4991 41.1365C36.9723 44.089 36.8565 48.9135 36.9894 50.9568C34.2909 51.8277 31.3823 50.4372 30.2653 49.6331L25.372 56.8724C31.0837 60.7345 36.8298 60.2248 38.9889 59.4872L39.8856 61.412C33.4073 68.0484 25.1183 65.0514 21.4982 62.6036L15.2773 71.9023L22.9137 67.6627C31.2346 71.9998 39.3205 67.3783 42.3234 64.5254C45.0571 68.7178 54.8398 73.9705 59.8593 70.2296C68.5991 63.716 61.6232 46.8103 56.0142 39.5017ZM45.7858 37.9663C50.4839 34.8839 55.7218 45.515 57.7572 51.2282C59.1157 54.8343 59.8065 57.7612 59.9824 60.0854C56.7641 60.3122 54.4926 58.7532 53.7098 57.8675C52.574 50.7515 48.4907 42.5594 45.7858 37.9663ZM44.6013 38.9197C46.4136 42.1525 48.5682 47.1887 49.6201 49.8282C48.614 54.3902 44.6773 56.5046 41.9679 57.2391C39.9374 52.4227 40.1606 43.2055 44.6013 38.9197ZM42.7894 58.8081C46.7999 57.9571 49.4903 54.4308 50.4108 52.5603C52.8201 59.2927 52.6173 64.2284 51.9606 66.8636C48.6935 65.6383 45.1441 62.7068 42.7894 58.8081ZM53.9732 67.4037C54.3165 65.3623 54.0586 62.0556 53.8291 60.2921C56.4837 61.9087 58.6917 62.1933 60.0017 62.0813C59.7161 66.3924 57.1619 67.894 53.9732 67.4037Z" fill="#1A1A1A"/>
</svg>
