<svg xmlns="http://www.w3.org/2000/svg" width="44" height="44" fill="none" viewBox="0 0 44 44"><path fill="#3A83F7" d="M10.67 6.393C15.257 9.87 20.19 16.916 22 20.698v9.989c0-.213-.081.028-.256.545-.945 2.803-4.636 13.74-13.077 4.996-4.444-4.603-2.387-9.207 5.703-10.597-4.628.795-9.831-.519-11.259-5.67C2.7 18.48 2 9.352 2 8.12c0-6.175 5.362-4.234 8.67-1.727Zm22.66 0C28.743 9.87 23.81 16.916 22 20.698v9.989c0-.213.081.028.256.545.945 2.803 4.636 13.74 13.077 4.996 4.445-4.603 2.387-9.207-5.703-10.597 4.628.795 9.831-.519 11.259-5.67C41.3 18.48 42 9.352 42 8.12c0-6.175-5.361-4.234-8.67-1.727Z"/></svg>