<svg width="44" height="44" viewBox="0 0 44 44" fill="none" xmlns="http://www.w3.org/2000/svg">
<path fill-rule="evenodd" clip-rule="evenodd" d="M22.1055 1.00001C16.8577 0.994811 11.7796 2.81187 7.78112 6.12555C3.78264 9.43924 1.12517 14.033 0.284945 19.0835C-0.555282 24.134 0.476658 29.3112 3.19583 33.6873C5.91501 38.0633 10.1437 41.3522 15.124 42.9646C16.2356 43.1629 16.6288 42.4888 16.6288 41.9205C16.6288 41.3521 16.6288 40.0568 16.6288 38.2593C10.4607 39.5678 9.15934 35.3647 9.15934 35.3647C8.75014 34.0621 7.88083 32.9429 6.70567 32.2058C4.71292 30.8841 6.86835 30.8841 6.86835 30.8841C7.56689 30.9803 8.23383 31.2302 8.81864 31.6149C9.40346 31.9996 9.89083 32.509 10.2438 33.1046C10.5438 33.6349 10.9482 34.1022 11.4338 34.4797C11.9194 34.8572 12.4767 35.1375 13.0737 35.3045C13.6707 35.4715 14.2957 35.522 14.9127 35.4529C15.5298 35.3839 16.1268 35.1967 16.6694 34.9021C16.7545 33.8148 17.2353 32.7929 18.0251 32.0208C13.1177 31.4789 7.9664 29.6285 7.9664 21.447C7.9327 19.3098 8.74327 17.2417 10.2303 15.6711C9.56799 13.8128 9.6454 11.7798 10.4472 9.97449C10.4472 9.97449 12.3044 9.39293 16.5203 12.1818C20.1406 11.2126 23.9619 11.2126 27.5821 12.1818C31.7981 9.39293 33.6417 9.97449 33.6417 9.97449C34.4547 11.7607 34.5514 13.7791 33.9129 15.6314C35.3999 17.2021 36.2104 19.2701 36.1767 21.4074C36.1767 29.6813 31.0118 31.4921 26.091 31.9811C26.6186 32.4983 27.0261 33.12 27.2857 33.8041C27.5453 34.4883 27.651 35.2188 27.5957 35.9463C27.5957 38.8276 27.5957 41.1539 27.5957 41.8544C27.5957 42.5549 27.9888 43.0968 29.114 42.8853C34.0376 41.2304 38.203 37.9321 40.8741 33.5731C43.5453 29.214 44.5504 24.0748 43.7118 19.0633C42.8732 14.0517 40.245 9.49043 36.2914 6.18515C32.3378 2.87988 27.3133 1.04335 22.1055 1.00001Z" fill="#141A1F"/>
</svg>
