<svg width="44" height="44" viewBox="0 0 44 44" fill="none" xmlns="http://www.w3.org/2000/svg">
<path d="M38.189 3H5.80287C4.2566 3 3 4.22667 3 5.7399V38.258C3 39.7712 4.2566 41 5.80287 41H38.189C39.7384 41 41.0001 39.7712 41.0001 38.258V5.7399C41.0001 4.22667 39.7384 3 38.189 3Z" fill="#007BB5"/>
<path d="M8.629 17.245H14.2707V35.3791H8.629V17.245ZM11.4514 8.23047C13.2543 8.23047 14.718 9.69474 14.718 11.4987C14.718 13.3031 13.2543 14.7674 11.4514 14.7674C9.64128 14.7674 8.18164 13.3031 8.18164 11.4987C8.18164 9.69474 9.64127 8.23047 11.4514 8.23047Z" fill="white"/>
<path d="M17.8071 17.2469H23.2098V19.7259H23.2871C24.0386 18.3003 25.8776 16.7969 28.6197 16.7969C34.3265 16.7969 35.3811 20.5517 35.3811 25.4356V35.381H29.7454V26.5623C29.7454 24.4595 29.7093 21.7541 26.8168 21.7541C23.884 21.7541 23.4366 24.0461 23.4366 26.4118V35.381H17.8071V17.2469Z" fill="white"/>
</svg>
