<svg width="44" height="44" viewBox="0 0 44 44" fill="none" xmlns="http://www.w3.org/2000/svg">
<path d="M9.97856 27.7734C9.97856 28.6017 9.73297 29.4113 9.27284 30.0999C8.81271 30.7885 8.15871 31.3253 7.39354 31.6422C6.62837 31.9592 5.78639 32.0421 4.97409 31.8805C4.16179 31.7189 3.41565 31.3201 2.83001 30.7345C2.24438 30.1488 1.84556 29.4027 1.68398 28.5904C1.5224 27.7781 1.60533 26.9361 1.92227 26.171C2.23922 25.4058 2.77594 24.7518 3.46458 24.2917C4.15321 23.8315 4.96283 23.5859 5.79104 23.5859H9.97856V27.7734Z" fill="#E01E5A"/>
<path d="M12.0703 27.7734C12.0703 26.6628 12.5115 25.5977 13.2968 24.8124C14.0821 24.0271 15.1472 23.5859 16.2578 23.5859C17.3684 23.5859 18.4335 24.0271 19.2189 24.8124C20.0042 25.5977 20.4454 26.6628 20.4454 27.7734V38.2392C20.4454 39.3498 20.0042 40.4149 19.2189 41.2002C18.4335 41.9855 17.3684 42.4267 16.2578 42.4267C15.1472 42.4267 14.0821 41.9855 13.2968 41.2002C12.5115 40.4149 12.0703 39.3498 12.0703 38.2392V27.7734Z" fill="#E01E5A"/>
<path d="M16.2578 9.94534C15.4296 9.94534 14.62 9.69975 13.9314 9.23962C13.2427 8.77949 12.706 8.12549 12.3891 7.36032C12.0721 6.59515 11.9892 5.75318 12.1508 4.94089C12.3124 4.12859 12.7112 3.38244 13.2968 2.79681C13.8825 2.21117 14.6286 1.81235 15.4409 1.65078C16.2532 1.4892 17.0952 1.57213 17.8603 1.88907C18.6255 2.20601 19.2795 2.74274 19.7396 3.43137C20.1998 4.12001 20.4454 4.92961 20.4454 5.75782V9.94534H16.2578Z" fill="#36C5F0"/>
<path d="M16.2562 12.0664C17.3668 12.0664 18.4319 12.5076 19.2172 13.2929C20.0025 14.0782 20.4437 15.1433 20.4437 16.2539C20.4437 17.3645 20.0025 18.4296 19.2172 19.2149C18.4319 20.0003 17.3668 20.4414 16.2562 20.4414H5.75979C4.64919 20.4414 3.58408 20.0003 2.79876 19.2149C2.01345 18.4296 1.57227 17.3645 1.57227 16.2539C1.57227 15.1433 2.01345 14.0782 2.79876 13.2929C3.58408 12.5076 4.64919 12.0664 5.75979 12.0664H16.2562Z" fill="#36C5F0"/>
<path d="M34.0273 16.2578C34.0273 15.4296 34.2729 14.62 34.7331 13.9314C35.1932 13.2427 35.8472 12.706 36.6124 12.3891C37.3776 12.0721 38.2195 11.9892 39.0318 12.1508C39.8441 12.3124 40.5903 12.7112 41.1759 13.2968C41.7615 13.8824 42.1604 14.6286 42.3219 15.4409C42.4835 16.2532 42.4006 17.0952 42.0836 17.8603C41.7667 18.6255 41.23 19.2795 40.5413 19.7396C39.8527 20.1997 39.0431 20.4453 38.2149 20.4453H34.0273V16.2578Z" fill="#2EB67D"/>
<path d="M31.9298 16.2542C31.9298 16.8041 31.8214 17.3486 31.611 17.8567C31.4005 18.3647 31.0921 18.8264 30.7032 19.2152C30.3144 19.6041 29.8528 19.9125 29.3447 20.1229C28.8367 20.3334 28.2921 20.4417 27.7422 20.4417C27.1923 20.4417 26.6478 20.3334 26.1397 20.1229C25.6317 19.9125 25.17 19.6041 24.7812 19.2152C24.3923 18.8264 24.0839 18.3647 23.8735 17.8567C23.663 17.3486 23.5547 16.8041 23.5547 16.2542V5.75782C23.5547 4.64723 23.9959 3.58212 24.7812 2.79681C25.5665 2.0115 26.6316 1.57031 27.7422 1.57031C28.8528 1.57031 29.9179 2.0115 30.7032 2.79681C31.4886 3.58212 31.9298 4.64723 31.9298 5.75782V16.2542Z" fill="#2EB67D"/>
<path d="M27.7422 34.0547C28.5704 34.0547 29.38 34.3003 30.0687 34.7604C30.7573 35.2205 31.294 35.8745 31.611 36.6397C31.9279 37.4049 32.0109 38.2468 31.8493 39.0591C31.6877 39.8714 31.2889 40.6176 30.7032 41.2032C30.1176 41.7888 29.3715 42.1877 28.5592 42.3492C27.7469 42.5108 26.9049 42.4279 26.1397 42.111C25.3746 41.794 24.7205 41.2573 24.2604 40.5687C23.8003 39.88 23.5547 39.0704 23.5547 38.2422V34.0547H27.7422Z" fill="#ECB22E"/>
<path d="M27.7422 31.961C26.6316 31.961 25.5665 31.5198 24.7812 30.7345C23.9959 29.9492 23.5547 28.884 23.5547 27.7734C23.5547 26.6628 23.9959 25.5977 24.7812 24.8124C25.5665 24.0271 26.6316 23.5859 27.7422 23.5859H38.2396C39.3502 23.5859 40.4153 24.0271 41.2007 24.8124C41.986 25.5977 42.4272 26.6628 42.4272 27.7734C42.4272 28.884 41.986 29.9492 41.2007 30.7345C40.4153 31.5198 39.3502 31.961 38.2396 31.961H27.7422Z" fill="#ECB22E"/>
</svg>
