<svg width="137" height="100" viewBox="0 0 137 100" fill="none" xmlns="http://www.w3.org/2000/svg">
<mask id="path-1-outside-1_116_379" maskUnits="userSpaceOnUse" x="0" y="0" width="137" height="100" fill="black">
<rect fill="white" width="137" height="100"/>
<path fill-rule="evenodd" clip-rule="evenodd" d="M27.501 47.3787H57.7742V98H2.01897V47.3787C1.58672 32.2525 8.37962 2 39.0093 2H43.9544V21.5311H40.4545C36.1367 21.7095 27.501 27.1288 27.501 47.3787ZM104.728 47.3787H135.001V98H79.2455V47.3787C78.8133 32.2525 85.6062 2 116.236 2H121.181V21.5311H117.681C113.363 21.7095 104.728 27.1288 104.728 47.3787Z"/>
</mask>
<path d="M57.7742 47.3787H58.9742V46.1787H57.7742V47.3787ZM27.501 47.3787H26.301V48.5787H27.501V47.3787ZM57.7742 98V99.2H58.9742V98H57.7742ZM2.01897 98H0.818972V99.2H2.01897V98ZM2.01897 47.3787H3.21897V47.3616L3.21848 47.3445L2.01897 47.3787ZM43.9544 2H45.1544V0.8H43.9544V2ZM43.9544 21.5311V22.7311H45.1544V21.5311H43.9544ZM40.4545 21.5311V20.3311H40.4297L40.405 20.3321L40.4545 21.5311ZM135.001 47.3787H136.201V46.1787H135.001V47.3787ZM104.728 47.3787H103.528V48.5787H104.728V47.3787ZM135.001 98V99.2H136.201V98H135.001ZM79.2455 98H78.0455V99.2H79.2455V98ZM79.2455 47.3787H80.4455V47.3616L80.445 47.3445L79.2455 47.3787ZM121.181 2H122.381V0.8H121.181V2ZM121.181 21.5311V22.7311H122.381V21.5311H121.181ZM117.681 21.5311V20.3311H117.656L117.632 20.3321L117.681 21.5311ZM57.7742 46.1787H27.501V48.5787H57.7742V46.1787ZM58.9742 98V47.3787H56.5742V98H58.9742ZM2.01897 99.2H57.7742V96.8H2.01897V99.2ZM0.818972 47.3787V98H3.21897V47.3787H0.818972ZM39.0093 0.8C23.2059 0.8 13.4828 8.64664 7.82738 18.4158C2.21281 28.1144 0.598937 39.696 0.819461 47.413L3.21848 47.3445C3.00675 39.9352 4.5732 28.8274 9.90444 19.6182C15.1948 10.4796 24.183 3.2 39.0093 3.2V0.8ZM43.9544 0.8H39.0093V3.2H43.9544V0.8ZM45.1544 21.5311V2H42.7544V21.5311H45.1544ZM40.4545 22.7311H43.9544V20.3311H40.4545V22.7311ZM28.701 47.3787C28.701 27.3883 37.1534 22.8685 40.504 22.7301L40.405 20.3321C35.1199 20.5505 26.301 26.8692 26.301 47.3787H28.701ZM135.001 46.1787H104.728V48.5787H135.001V46.1787ZM136.201 98V47.3787H133.801V98H136.201ZM79.2455 99.2H135.001V96.8H79.2455V99.2ZM78.0455 47.3787V98H80.4455V47.3787H78.0455ZM116.236 0.8C100.432 0.8 90.7094 8.64664 85.0539 18.4158C79.4394 28.1144 77.8255 39.696 78.046 47.413L80.445 47.3445C80.2333 39.9352 81.7998 28.8274 87.131 19.6182C92.4214 10.4796 101.41 3.2 116.236 3.2V0.8ZM121.181 0.8H116.236V3.2H121.181V0.8ZM122.381 21.5311V2H119.981V21.5311H122.381ZM117.681 22.7311H121.181V20.3311H117.681V22.7311ZM105.928 47.3787C105.928 27.3883 114.38 22.8685 117.731 22.7301L117.632 20.3321C112.346 20.5505 103.528 26.8692 103.528 47.3787H105.928Z" fill="url(#paint0_linear_116_379)" mask="url(#path-1-outside-1_116_379)"/>
<defs>
<linearGradient id="paint0_linear_116_379" x1="122.13" y1="-28.4" x2="47.129" y2="98.3648" gradientUnits="userSpaceOnUse">
<stop offset="0.304118" stop-color="#E0A66C"/>
<stop offset="0.883748" stop-color="#E0A66C" stop-opacity="0"/>
</linearGradient>
</defs>
</svg>
