<svg width="592" height="194" viewBox="0 0 592 194" fill="none" xmlns="http://www.w3.org/2000/svg">
<mask id="mask0" style="mask-type: alpha;" maskUnits="userSpaceOnUse" x="0" y="0" width="592" height="194">
<rect width="592" height="194" fill="#C4C4C4"/>
</mask>
<g mask="url(#mask0)">
</g>
<g clip-path="url(#clip0)">
<path d="M292.806 162C318.382 162 339.116 160.315 339.116 158.236C339.116 156.156 318.382 154.471 292.806 154.471C267.23 154.471 246.496 156.156 246.496 158.236C246.496 160.315 267.23 162 292.806 162Z" fill="#F4F4F4"/>
<path d="M398.871 114.068H296.963C296.809 114.068 296.662 114.13 296.553 114.24C296.444 114.35 296.383 114.499 296.383 114.655V117.118C296.383 117.273 296.444 117.423 296.553 117.532C296.662 117.642 296.809 117.704 296.963 117.704H398.871C399.025 117.704 399.173 117.642 399.282 117.532C399.391 117.423 399.452 117.273 399.452 117.118V114.644C399.451 114.568 399.435 114.492 399.406 114.422C399.376 114.352 399.333 114.288 399.28 114.235C399.226 114.181 399.162 114.139 399.092 114.111C399.022 114.082 398.947 114.068 398.871 114.068Z" fill="#FAF1E6" stroke="black" stroke-width="2" stroke-miterlimit="10"/>
<path d="M364.868 81.7559H357.315C357.161 81.7559 357.013 81.8176 356.904 81.9276C356.796 82.0375 356.734 82.1866 356.734 82.3421V113.477C356.734 113.555 356.748 113.632 356.777 113.703C356.806 113.775 356.848 113.84 356.902 113.895C356.956 113.95 357.021 113.994 357.091 114.024C357.162 114.054 357.238 114.069 357.315 114.069H364.868C365.023 114.069 365.172 114.007 365.282 113.896C365.392 113.785 365.453 113.634 365.453 113.477V82.3421C365.453 82.2647 365.438 82.188 365.409 82.1165C365.379 82.045 365.336 81.9802 365.282 81.9257C365.227 81.8712 365.163 81.8281 365.092 81.799C365.021 81.7698 364.945 81.7552 364.868 81.7559Z" fill="#01517B"/>
<path d="M365.453 86.8477H356.734V88.7623H365.453V86.8477Z" fill="#FDA821"/>
<path d="M365.453 106.92H356.734V108.829H365.453V106.92Z" fill="#FDA821"/>
<path d="M379.71 81.7559H376.516C376.362 81.7559 376.214 81.8176 376.105 81.9276C375.997 82.0375 375.936 82.1866 375.936 82.3421V113.477C375.935 113.555 375.949 113.632 375.978 113.703C376.007 113.775 376.05 113.84 376.104 113.895C376.158 113.95 376.222 113.994 376.292 114.024C376.363 114.054 376.439 114.069 376.516 114.069H379.71C379.786 114.069 379.862 114.054 379.933 114.024C380.004 113.994 380.068 113.95 380.122 113.895C380.176 113.84 380.218 113.775 380.247 113.703C380.276 113.632 380.29 113.555 380.29 113.477V82.3421C380.29 82.1866 380.229 82.0375 380.12 81.9276C380.011 81.8176 379.863 81.7559 379.71 81.7559Z" fill="#314757"/>
<path d="M380.311 85.6973H375.951V86.8482H380.311V85.6973Z" fill="white"/>
<path d="M380.311 109.115H375.951V110.444H380.311V109.115Z" fill="white"/>
<path d="M375.364 81.7559H366.028C365.874 81.7559 365.726 81.8176 365.617 81.9276C365.508 82.0375 365.447 82.1866 365.447 82.3421V113.477C365.447 113.555 365.461 113.632 365.49 113.703C365.519 113.775 365.561 113.84 365.615 113.895C365.669 113.95 365.733 113.994 365.804 114.024C365.875 114.054 365.951 114.069 366.028 114.069H375.364C375.441 114.069 375.517 114.054 375.587 114.024C375.658 113.994 375.722 113.95 375.776 113.895C375.83 113.84 375.873 113.775 375.902 113.703C375.93 113.632 375.945 113.555 375.944 113.477V82.3421C375.944 82.1866 375.883 82.0375 375.774 81.9276C375.665 81.8176 375.518 81.7559 375.364 81.7559Z" fill="#E34A3E"/>
<path d="M369.409 84.4492H368.531C368.464 84.4492 368.4 84.4757 368.352 84.5229C368.304 84.5702 368.277 84.6345 368.275 84.702V111.89C368.277 111.957 368.304 112.021 368.352 112.069C368.4 112.116 368.464 112.142 368.531 112.142H369.399C369.465 112.142 369.53 112.116 369.577 112.069C369.625 112.021 369.653 111.957 369.654 111.89V84.702C369.653 84.6363 369.627 84.5736 369.581 84.5266C369.536 84.4796 369.474 84.4519 369.409 84.4492Z" fill="#F26F68"/>
<path d="M372.789 84.4492H371.916C371.85 84.4492 371.786 84.4759 371.739 84.5233C371.692 84.5707 371.666 84.635 371.666 84.702V111.89C371.666 111.923 371.672 111.956 371.685 111.986C371.698 112.017 371.716 112.045 371.739 112.068C371.763 112.092 371.79 112.11 371.82 112.123C371.851 112.136 371.883 112.142 371.916 112.142H372.789C372.822 112.142 372.855 112.136 372.885 112.123C372.915 112.11 372.943 112.092 372.966 112.068C372.989 112.045 373.008 112.017 373.02 111.986C373.033 111.956 373.039 111.923 373.039 111.89V84.702C373.039 84.6688 373.033 84.6359 373.02 84.6053C373.008 84.5746 372.989 84.5467 372.966 84.5233C372.943 84.4998 372.915 84.4812 372.885 84.4685C372.855 84.4558 372.822 84.4492 372.789 84.4492Z" fill="#F26F68"/>
<path d="M356.15 82.8789H350.172C350.095 82.8789 350.019 82.8942 349.949 82.924C349.878 82.9538 349.814 82.9975 349.76 83.0525C349.706 83.1075 349.663 83.1728 349.634 83.2445C349.606 83.3163 349.591 83.3931 349.592 83.4705V113.476C349.591 113.554 349.606 113.631 349.634 113.702C349.663 113.774 349.706 113.839 349.76 113.894C349.814 113.949 349.878 113.993 349.949 114.023C350.019 114.053 350.095 114.068 350.172 114.068H356.15C356.226 114.068 356.302 114.053 356.373 114.023C356.444 113.993 356.508 113.949 356.562 113.894C356.616 113.839 356.658 113.774 356.687 113.702C356.716 113.631 356.731 113.554 356.73 113.476V83.449C356.726 83.2963 356.663 83.1513 356.554 83.0449C356.446 82.9384 356.301 82.8788 356.15 82.8789Z" fill="#FBA422"/>
<path d="M354.798 84.9883H351.498V103.474H354.777L354.798 84.9883Z" fill="#FDD768"/>
<path d="M349.06 82.8789H343.082C343.006 82.8789 342.93 82.8942 342.859 82.924C342.788 82.9538 342.724 82.9975 342.67 83.0525C342.616 83.1075 342.573 83.1728 342.545 83.2445C342.516 83.3163 342.501 83.3931 342.502 83.4705V113.476C342.501 113.554 342.516 113.631 342.545 113.702C342.573 113.774 342.616 113.839 342.67 113.894C342.724 113.949 342.788 113.993 342.859 114.023C342.93 114.053 343.006 114.068 343.082 114.068H349.06C349.137 114.068 349.212 114.053 349.283 114.023C349.354 113.993 349.418 113.949 349.472 113.894C349.526 113.839 349.569 113.774 349.598 113.702C349.626 113.631 349.641 113.554 349.64 113.476V83.449C349.636 83.2963 349.573 83.1513 349.465 83.0449C349.356 82.9384 349.211 82.8788 349.06 82.8789Z" fill="#E34A3E"/>
<path d="M347.707 84.9883H344.428V103.474H347.707V84.9883Z" fill="#BC2833"/>
<path d="M364.868 81.7559H357.315C357.161 81.7559 357.013 81.8176 356.904 81.9276C356.796 82.0375 356.734 82.1866 356.734 82.3421V113.477C356.734 113.555 356.748 113.632 356.777 113.703C356.806 113.775 356.848 113.84 356.902 113.895C356.956 113.95 357.021 113.994 357.091 114.024C357.162 114.054 357.238 114.069 357.315 114.069H364.868C365.023 114.069 365.172 114.007 365.282 113.896C365.392 113.785 365.453 113.634 365.453 113.477V82.3421C365.453 82.2647 365.438 82.188 365.409 82.1165C365.379 82.045 365.336 81.9802 365.282 81.9257C365.227 81.8712 365.163 81.8281 365.092 81.799C365.021 81.7698 364.945 81.7552 364.868 81.7559Z" stroke="black" stroke-width="2" stroke-miterlimit="10"/>
<path d="M379.71 81.7559H376.516C376.362 81.7559 376.214 81.8176 376.105 81.9276C375.997 82.0375 375.936 82.1866 375.936 82.3421V113.477C375.935 113.555 375.949 113.632 375.978 113.703C376.007 113.775 376.05 113.84 376.104 113.895C376.158 113.95 376.222 113.994 376.292 114.024C376.363 114.054 376.439 114.069 376.516 114.069H379.71C379.786 114.069 379.862 114.054 379.933 114.024C380.004 113.994 380.068 113.95 380.122 113.895C380.176 113.84 380.218 113.775 380.247 113.703C380.276 113.632 380.29 113.555 380.29 113.477V82.3421C380.29 82.1866 380.229 82.0375 380.12 81.9276C380.011 81.8176 379.863 81.7559 379.71 81.7559Z" stroke="black" stroke-width="2" stroke-miterlimit="10"/>
<path d="M375.364 81.7559H366.028C365.874 81.7559 365.726 81.8176 365.617 81.9276C365.508 82.0375 365.447 82.1866 365.447 82.3421V113.477C365.447 113.555 365.461 113.632 365.49 113.703C365.519 113.775 365.561 113.84 365.615 113.895C365.669 113.95 365.733 113.994 365.804 114.024C365.875 114.054 365.951 114.069 366.028 114.069H375.364C375.441 114.069 375.517 114.054 375.587 114.024C375.658 113.994 375.722 113.95 375.776 113.895C375.83 113.84 375.873 113.775 375.902 113.703C375.93 113.632 375.945 113.555 375.944 113.477V82.3421C375.944 82.1866 375.883 82.0375 375.774 81.9276C375.665 81.8176 375.518 81.7559 375.364 81.7559Z" stroke="black" stroke-width="2" stroke-miterlimit="10"/>
<path d="M356.15 82.8789H350.172C350.095 82.8789 350.019 82.8942 349.949 82.924C349.878 82.9538 349.814 82.9975 349.76 83.0525C349.706 83.1075 349.663 83.1728 349.634 83.2445C349.606 83.3163 349.591 83.3931 349.592 83.4705V113.476C349.591 113.554 349.606 113.631 349.634 113.702C349.663 113.774 349.706 113.839 349.76 113.894C349.814 113.949 349.878 113.993 349.949 114.023C350.019 114.053 350.095 114.068 350.172 114.068H356.15C356.226 114.068 356.302 114.053 356.373 114.023C356.444 113.993 356.508 113.949 356.562 113.894C356.616 113.839 356.658 113.774 356.687 113.702C356.716 113.631 356.731 113.554 356.73 113.476V83.449C356.726 83.2963 356.663 83.1513 356.554 83.0449C356.446 82.9384 356.301 82.8788 356.15 82.8789V82.8789Z" stroke="black" stroke-width="2" stroke-miterlimit="10"/>
<path d="M349.06 82.8789H343.082C343.006 82.8789 342.93 82.8942 342.859 82.924C342.788 82.9538 342.724 82.9975 342.67 83.0525C342.616 83.1075 342.573 83.1728 342.545 83.2445C342.516 83.3163 342.501 83.3931 342.502 83.4705V113.476C342.501 113.554 342.516 113.631 342.545 113.702C342.573 113.774 342.616 113.839 342.67 113.894C342.724 113.949 342.788 113.993 342.859 114.023C342.93 114.053 343.006 114.068 343.082 114.068H349.06C349.137 114.068 349.212 114.053 349.283 114.023C349.354 113.993 349.418 113.949 349.472 113.894C349.526 113.839 349.569 113.774 349.598 113.702C349.626 113.631 349.641 113.554 349.64 113.476V83.449C349.636 83.2963 349.573 83.1513 349.465 83.0449C349.356 82.9384 349.211 82.8788 349.06 82.8789V82.8789Z" stroke="black" stroke-width="2" stroke-miterlimit="10"/>
<path d="M397.274 105.324C397.125 104.494 396.746 103.724 396.18 103.103C395.615 102.482 394.887 102.036 394.08 101.818C393.402 101.662 392.692 101.726 392.052 102C391.818 102.092 391.595 102.209 391.387 102.35C391.086 102.514 390.761 102.625 390.423 102.678C390.359 102.678 390.264 102.732 390.221 102.619C389.689 102.388 389.125 102.156 388.587 101.92C388.194 101.743 387.757 101.694 387.336 101.78C386.631 101.885 385.966 102.173 385.406 102.618C384.846 103.062 384.41 103.646 384.142 104.313C383.659 105.615 383.549 107.028 383.823 108.39C384.08 109.857 384.699 111.235 385.622 112.397C385.889 112.761 386.188 113.099 386.516 113.408C386.843 113.685 387.227 113.883 387.639 113.989C388.052 114.095 388.483 114.106 388.901 114.021L389.391 113.903C390.077 113.735 390.791 113.722 391.483 113.865C391.989 114.003 392.512 114.071 393.037 114.069C393.701 114.05 394.331 113.766 394.788 113.279C395.729 112.202 396.433 110.937 396.856 109.567C397.279 108.196 397.411 106.75 397.242 105.324H397.274Z" fill="#C81E3B"/>
<path d="M397.274 105.323C397.125 104.493 396.746 103.722 396.18 103.102C395.615 102.481 394.887 102.035 394.08 101.816C393.696 101.729 393.3 101.709 392.909 101.757C392.617 101.809 392.331 101.887 392.052 101.988C391.817 102.078 391.594 102.195 391.387 102.338C391.17 102.538 390.886 102.646 390.594 102.639C389.893 102.492 389.218 102.243 388.587 101.902C388.194 101.727 387.757 101.68 387.336 101.768C386.631 101.872 385.966 102.161 385.406 102.606C384.846 103.05 384.41 103.634 384.142 104.301C383.659 105.603 383.549 107.016 383.823 108.378C384.081 109.845 384.7 111.222 385.622 112.385C385.889 112.749 386.188 113.087 386.516 113.396C386.843 113.672 387.227 113.871 387.639 113.977C388.052 114.083 388.483 114.094 388.901 114.009L389.391 113.891C390.076 113.72 390.791 113.707 391.483 113.853C391.99 113.988 392.512 114.057 393.037 114.057C393.701 114.036 394.329 113.752 394.788 113.267C395.727 112.192 396.432 110.929 396.855 109.56C397.277 108.191 397.409 106.747 397.242 105.323H397.274Z" stroke="black" stroke-width="2" stroke-miterlimit="10"/>
<path d="M394.889 97.0728C394.631 96.9871 394.363 96.933 394.091 96.9114C393.52 96.8555 392.946 96.9809 392.449 97.2701C391.952 97.5593 391.556 97.9979 391.318 98.5249C391.205 98.8022 391.109 99.0859 391.03 99.3747C390.982 99.6867 391.302 99.7136 391.44 99.7566C392.297 100.009 393.287 99.8642 393.745 99.3209C393.963 99.06 394.154 98.777 394.314 98.4765C394.506 98.1323 394.943 97.2395 394.953 97.2288C395.012 97.1104 395.012 97.1104 394.889 97.0728Z" fill="#38A54C"/>
<path d="M394.889 97.0728C394.631 96.9871 394.363 96.933 394.091 96.9114C393.52 96.8555 392.946 96.9809 392.449 97.2701C391.952 97.5593 391.556 97.9979 391.318 98.5249C391.205 98.8022 391.109 99.0859 391.03 99.3747C390.982 99.6867 391.302 99.7136 391.44 99.7566C392.297 100.009 393.287 99.8642 393.745 99.3209C393.963 99.06 394.154 98.777 394.314 98.4765C394.506 98.1323 394.943 97.2395 394.953 97.2288C395.012 97.1104 395.012 97.1104 394.889 97.0728Z" stroke="black" stroke-width="2" stroke-miterlimit="10"/>
<path d="M395.897 109.627C395.897 109.627 396.728 106.814 396.185 105.093C396.031 104.539 395.762 104.024 395.394 103.585C395.027 103.145 394.57 102.79 394.055 102.544C393.752 102.458 395.274 103.55 395.562 105.367C395.812 106.773 395.924 108.2 395.897 109.627Z" fill="white"/>
<path d="M390.579 102.65C390.739 101.53 390.473 100.391 389.834 99.4609" stroke="black" stroke-width="2" stroke-miterlimit="10"/>
<path d="M270.975 114.182H194.111C194.035 114.182 193.959 114.197 193.888 114.227C193.817 114.257 193.753 114.3 193.699 114.355C193.645 114.41 193.603 114.476 193.574 114.547C193.545 114.619 193.531 114.696 193.531 114.773V117.231C193.531 117.309 193.545 117.385 193.574 117.457C193.603 117.529 193.645 117.594 193.699 117.649C193.753 117.704 193.817 117.748 193.888 117.778C193.959 117.807 194.035 117.823 194.111 117.823H270.975C271.052 117.823 271.128 117.807 271.199 117.778C271.269 117.748 271.333 117.704 271.387 117.649C271.441 117.594 271.484 117.529 271.513 117.457C271.542 117.385 271.556 117.309 271.555 117.231V114.773C271.556 114.696 271.542 114.619 271.513 114.547C271.484 114.476 271.441 114.41 271.387 114.355C271.333 114.3 271.269 114.257 271.199 114.227C271.128 114.197 271.052 114.182 270.975 114.182Z" fill="#FAF1E6" stroke="black" stroke-width="2" stroke-miterlimit="10"/>
<path d="M357.417 64.6523H243.101C242.627 64.6523 242.238 64.9213 242.238 65.2601V67.8094C242.238 68.1429 242.627 68.4172 243.101 68.4172H357.417C357.891 68.4172 358.279 68.1429 358.279 67.8094V65.2601C358.279 64.9213 357.885 64.6523 357.417 64.6523Z" fill="#FAF1E6" stroke="black" stroke-width="2" stroke-miterlimit="10"/>
<path d="M221.841 82.9981H215.863C215.786 82.9974 215.71 83.012 215.639 83.0411C215.568 83.0703 215.504 83.1134 215.449 83.1679C215.395 83.2224 215.352 83.2872 215.322 83.3587C215.293 83.4302 215.277 83.5069 215.277 83.5843V113.595C215.277 113.673 215.293 113.75 215.322 113.821C215.352 113.893 215.395 113.957 215.449 114.012C215.504 114.066 215.568 114.109 215.639 114.139C215.71 114.168 215.786 114.182 215.863 114.182H221.841C221.994 114.182 222.142 114.12 222.251 114.01C222.36 113.9 222.421 113.751 222.421 113.595V83.5843C222.421 83.4288 222.36 83.2797 222.251 83.1698C222.142 83.0598 221.994 82.9981 221.841 82.9981Z" fill="#FBA422"/>
<path d="M220.488 85.0996H217.209V103.585H220.488V85.0996Z" fill="#FDD768"/>
<path d="M221.841 82.9981H215.863C215.786 82.9974 215.71 83.012 215.639 83.0411C215.568 83.0703 215.504 83.1134 215.449 83.1679C215.395 83.2224 215.352 83.2872 215.322 83.3587C215.293 83.4302 215.277 83.5069 215.277 83.5843V113.595C215.277 113.673 215.293 113.75 215.322 113.821C215.352 113.893 215.395 113.957 215.449 114.012C215.504 114.066 215.568 114.109 215.639 114.139C215.71 114.168 215.786 114.182 215.863 114.182H221.841C221.994 114.182 222.142 114.12 222.251 114.01C222.36 113.9 222.421 113.751 222.421 113.595V83.5843C222.421 83.4288 222.36 83.2797 222.251 83.1698C222.142 83.0598 221.994 82.9981 221.841 82.9981Z" stroke="black" stroke-width="2" stroke-miterlimit="10"/>
<path d="M214.82 86.4243L208.501 85.2733C208.426 85.2594 208.349 85.2606 208.274 85.2768C208.2 85.2931 208.129 85.3241 208.066 85.368C208.003 85.412 207.95 85.4681 207.908 85.5331C207.867 85.598 207.839 85.6706 207.825 85.7466L203.098 112.273C203.072 112.425 203.107 112.582 203.194 112.709C203.282 112.836 203.416 112.923 203.567 112.95L209.907 114.107C210.058 114.133 210.214 114.099 210.341 114.01C210.467 113.922 210.554 113.786 210.583 113.633L215.304 87.1073C215.319 87.0302 215.317 86.9508 215.301 86.8741C215.284 86.7974 215.252 86.725 215.207 86.6611C215.161 86.5973 215.104 86.5434 215.037 86.5027C214.971 86.4619 214.897 86.4353 214.82 86.4243Z" fill="#445E71"/>
<path d="M213.036 88.0262L209.608 87.4023L206.686 103.806L210.114 104.43L213.036 88.0262Z" fill="#90B1C0"/>
<path d="M214.82 86.4243L208.501 85.2733C208.426 85.2594 208.349 85.2606 208.274 85.2768C208.2 85.2931 208.129 85.3241 208.066 85.368C208.003 85.412 207.95 85.4681 207.908 85.5331C207.867 85.598 207.839 85.6706 207.825 85.7466L203.098 112.273C203.072 112.425 203.107 112.582 203.194 112.709C203.282 112.836 203.416 112.923 203.567 112.95L209.907 114.107C210.058 114.133 210.214 114.099 210.341 114.01C210.467 113.922 210.554 113.786 210.583 113.633L215.304 87.1073C215.319 87.0302 215.317 86.9508 215.301 86.8741C215.284 86.7974 215.252 86.725 215.207 86.6611C215.161 86.5973 215.104 86.5434 215.037 86.5027C214.971 86.4619 214.897 86.4353 214.82 86.4243V86.4243Z" stroke="black" stroke-width="2" stroke-miterlimit="10"/>
<path d="M230.596 81.8731H223.043C222.966 81.8724 222.89 81.887 222.819 81.9161C222.748 81.9453 222.683 81.9884 222.629 82.0429C222.574 82.0974 222.531 82.1622 222.502 82.2337C222.472 82.3052 222.457 82.3819 222.457 82.4593V113.595C222.457 113.672 222.472 113.749 222.502 113.82C222.531 113.892 222.574 113.956 222.629 114.011C222.683 114.066 222.748 114.109 222.819 114.138C222.89 114.167 222.966 114.182 223.043 114.181H230.596C230.75 114.181 230.897 114.119 231.006 114.009C231.115 113.899 231.176 113.75 231.176 113.595V82.4593C231.176 82.3038 231.115 82.1547 231.006 82.0448C230.897 81.9348 230.75 81.8731 230.596 81.8731Z" fill="#E05162"/>
<path d="M231.198 86.9668H222.479V88.8761H231.198V86.9668Z" fill="#BC2833"/>
<path d="M231.198 107.033H222.479V108.948H231.198V107.033Z" fill="#BC2833"/>
<path d="M230.596 81.8731H223.043C222.966 81.8724 222.89 81.887 222.819 81.9161C222.748 81.9453 222.683 81.9884 222.629 82.0429C222.574 82.0974 222.531 82.1622 222.502 82.2337C222.472 82.3052 222.457 82.3819 222.457 82.4593V113.595C222.457 113.672 222.472 113.749 222.502 113.82C222.531 113.892 222.574 113.956 222.629 114.011C222.683 114.066 222.748 114.109 222.819 114.138C222.89 114.167 222.966 114.182 223.043 114.181H230.596C230.75 114.181 230.897 114.119 231.006 114.009C231.115 113.899 231.176 113.75 231.176 113.595V82.4593C231.176 82.3038 231.115 82.1547 231.006 82.0448C230.897 81.9348 230.75 81.8731 230.596 81.8731Z" stroke="black" stroke-width="2" stroke-miterlimit="10"/>
<path d="M239.315 82.9981H231.761C231.685 82.9974 231.609 83.012 231.538 83.0411C231.467 83.0703 231.402 83.1134 231.348 83.1679C231.293 83.2224 231.25 83.2872 231.22 83.3587C231.191 83.4302 231.176 83.5069 231.176 83.5843V113.595C231.176 113.673 231.191 113.75 231.22 113.821C231.25 113.893 231.293 113.957 231.348 114.012C231.402 114.066 231.467 114.109 231.538 114.139C231.609 114.168 231.685 114.182 231.761 114.182H239.315C239.391 114.182 239.467 114.168 239.538 114.139C239.608 114.109 239.672 114.066 239.726 114.012C239.78 113.957 239.823 113.892 239.852 113.821C239.881 113.749 239.896 113.673 239.895 113.595V83.5843C239.895 83.4288 239.834 83.2797 239.725 83.1698C239.616 83.0598 239.469 82.9981 239.315 82.9981Z" fill="#25BFC7"/>
<path d="M239.895 88.3652H231.197V90.2799H239.916L239.895 88.3652Z" fill="#149692"/>
<path d="M239.895 105.807H231.197V107.721H239.916L239.895 105.807Z" fill="#149692"/>
<path d="M239.315 82.9981H231.761C231.685 82.9974 231.609 83.012 231.538 83.0411C231.467 83.0703 231.402 83.1134 231.348 83.1679C231.293 83.2224 231.25 83.2872 231.22 83.3587C231.191 83.4302 231.176 83.5069 231.176 83.5843V113.595C231.176 113.673 231.191 113.75 231.22 113.821C231.25 113.893 231.293 113.957 231.348 114.012C231.402 114.066 231.467 114.109 231.538 114.139C231.609 114.168 231.685 114.182 231.761 114.182H239.315C239.391 114.182 239.467 114.168 239.538 114.139C239.608 114.109 239.672 114.066 239.726 114.012C239.78 113.957 239.823 113.892 239.852 113.821C239.881 113.749 239.896 113.673 239.895 113.595V83.5843C239.895 83.4288 239.834 83.2797 239.725 83.1698C239.616 83.0598 239.469 82.9981 239.315 82.9981Z" stroke="black" stroke-width="2" stroke-miterlimit="10"/>
<path d="M248.035 82.9981H240.482C240.405 82.9974 240.329 83.012 240.258 83.0411C240.187 83.0703 240.123 83.1134 240.068 83.1679C240.014 83.2224 239.971 83.2872 239.941 83.3587C239.912 83.4302 239.896 83.5069 239.896 83.5843V113.595C239.896 113.673 239.912 113.75 239.941 113.821C239.971 113.893 240.014 113.957 240.068 114.012C240.123 114.066 240.187 114.109 240.258 114.139C240.329 114.168 240.405 114.182 240.482 114.182H248.035C248.112 114.182 248.187 114.168 248.258 114.139C248.329 114.109 248.393 114.066 248.447 114.012C248.501 113.957 248.544 113.892 248.573 113.821C248.602 113.749 248.616 113.673 248.616 113.595V83.5843C248.616 83.4288 248.554 83.2797 248.446 83.1698C248.337 83.0598 248.189 82.9981 248.035 82.9981Z" fill="#009245"/>
<path d="M245.963 88.3164H242.77V108.754H245.963V88.3164Z" fill="#047137"/>
<path d="M248.035 82.9981H240.482C240.405 82.9974 240.329 83.012 240.258 83.0411C240.187 83.0703 240.123 83.1134 240.068 83.1679C240.014 83.2224 239.971 83.2872 239.941 83.3587C239.912 83.4302 239.896 83.5069 239.896 83.5843V113.595C239.896 113.673 239.912 113.75 239.941 113.821C239.971 113.893 240.014 113.957 240.068 114.012C240.123 114.066 240.187 114.109 240.258 114.139C240.329 114.168 240.405 114.182 240.482 114.182H248.035C248.112 114.182 248.187 114.168 248.258 114.139C248.329 114.109 248.393 114.066 248.447 114.012C248.501 113.957 248.544 113.892 248.573 113.821C248.602 113.749 248.616 113.673 248.616 113.595V83.5843C248.616 83.4288 248.554 83.2797 248.446 83.1698C248.337 83.0598 248.189 82.9981 248.035 82.9981Z" stroke="black" stroke-width="2" stroke-miterlimit="10"/>
<path d="M316.025 110.878C316.025 110.878 321.077 117.332 323.696 117.794C326.315 118.257 329.732 117.622 328.833 115.492C327.933 113.363 324.702 112.099 320.736 105.865" fill="#F6D2A2"/>
<path d="M316.025 110.878C316.025 110.878 321.077 117.332 323.696 117.794C326.315 118.257 329.732 117.622 328.833 115.492C327.933 113.363 324.702 112.099 320.736 105.865" stroke="black" stroke-width="2" stroke-miterlimit="10"/>
<path d="M267.244 148.754C267.244 148.754 269.198 156.284 272.961 158.188C276.724 160.091 279.987 158.58 278.555 155.692C277.124 152.804 276.847 153.476 275.793 151.346" fill="#F6D2A2"/>
<path d="M267.105 147.893C267.105 147.893 269.197 156.277 272.961 158.176C276.724 160.075 279.982 158.569 278.555 155.68C277.129 152.792 276.847 153.465 275.793 151.335" stroke="black" stroke-width="2" stroke-miterlimit="10"/>
<path d="M299.863 152.959C301.588 154.798 304.468 157.401 307.156 157.584C311.35 157.874 314.214 154.54 311.366 153.098C309.674 152.249 308.295 151.146 306.576 150.006" fill="#F6D2A2"/>
<path d="M299.863 152.959C301.588 154.798 304.468 157.401 307.156 157.584C311.35 157.874 313.357 155.008 311.254 153.389C309.748 152.238 308.204 151.775 306.549 150.006" stroke="black" stroke-width="2" stroke-miterlimit="10"/>
<path d="M309.186 56.6863C309.957 55.9495 315.451 51.8082 319.102 54.8308C322.355 57.52 318.57 60.9137 316.579 61.6237" fill="#71C2FF"/>
<path d="M309.186 56.6863C309.957 55.9495 315.451 51.8082 319.102 54.8308C322.355 57.52 317.899 61.3763 315.908 62.0862" stroke="black" stroke-width="2" stroke-miterlimit="10"/>
<path d="M261.311 143.887C269.641 153.401 294.345 155.757 304.427 151.024C313.162 146.936 316.595 132.926 318.198 126.391C319.8 119.856 326.629 80.4976 318.352 65.1155C314.663 58.2689 303.826 51.3523 287.202 53.4069C271.765 55.3108 263.02 65.5727 262.141 75.2268C260.821 89.6193 251.282 132.442 261.311 143.887Z" fill="#8FCFFF"/>
<path d="M290.49 121.836C293.801 128.451 301.737 126.139 302.413 128.36C303.089 130.581 299.321 131.356 296.665 131.097C292.518 130.694 289.17 124.762 289.17 124.003C289.17 123.245 290.49 121.836 290.49 121.836Z" fill="#71C2FF"/>
<path d="M260.778 143.348C263.057 145.849 272.739 152.25 275.496 145.15C278.424 137.62 272.585 111.573 279.883 78.0445C280.628 74.6292 288.586 63.6251 288.612 61.3716C288.649 58.1446 287.979 52.5135 278.903 55.4178C273.048 57.2841 263.216 64.8891 262.125 75.2262C261.598 80.2227 252.421 128.09 260.778 143.348Z" fill="#71C2FF"/>
<path d="M261.305 143.887C270.354 153.186 294.265 156.047 304.421 151.024C313.076 146.748 316.589 132.926 318.192 126.391C319.794 119.856 326.623 80.4976 318.341 65.1155C314.657 58.2689 303.819 51.3523 287.19 53.4069C271.754 55.3108 263.86 65.6856 262.13 75.2268C259.41 90.141 253.022 135.373 261.305 143.887Z" stroke="black" stroke-width="2" stroke-miterlimit="10"/>
<path d="M297.905 82.5025C297.905 91.2907 291.129 98.4224 281.936 98.4224C272.743 98.4224 265.275 91.2854 265.275 82.5025C265.275 73.7197 272.728 65.4316 281.936 65.4316C291.145 65.4316 297.905 73.7143 297.905 82.5025Z" fill="#71C2FF"/>
<path d="M330.163 82.9977C330.163 91.7913 330.392 95.3087 321.502 97.7666C312.613 100.225 305.533 93.8942 305.533 85.106C305.533 76.3178 311.75 67.3145 320.97 67.3145C330.189 67.3145 330.163 74.2149 330.163 82.9977Z" fill="#71C2FF"/>
<path d="M299.503 79.9693C299.503 88.7629 292.727 95.8892 283.534 95.8892C274.341 95.8892 266.873 88.7522 266.873 79.9693C266.873 71.1865 274.325 62.8984 283.534 62.8984C292.743 62.8984 299.503 71.1811 299.503 79.9693Z" fill="white" stroke="black" stroke-width="2" stroke-miterlimit="10"/>
<path d="M303.414 91.3669C299.891 90.6731 296.734 91.6412 296.362 93.5505C296.138 94.7014 296.99 95.9385 298.491 96.885C298.262 98.036 297.825 100.386 297.692 101.016C297.16 103.474 300.71 104.7 301.615 102.231C301.461 104.533 304.932 105.055 305.549 102.231C306.039 100.021 306.23 98.8643 306.326 98.278C307.843 97.9231 308.918 97.1486 309.126 96.089C309.483 94.2066 306.933 92.0553 303.414 91.3669Z" fill="#71C2FF"/>
<path d="M300.423 95.2812L299.513 100.073C298.981 102.639 302.851 103.876 303.543 100.934C303.979 99.266 304.322 97.5745 304.57 95.8675" fill="white"/>
<path d="M300.423 95.2812L299.513 100.073C298.981 102.639 302.851 103.876 303.543 100.934C303.979 99.266 304.322 97.5745 304.57 95.8675" stroke="black" stroke-width="2" stroke-miterlimit="10"/>
<path d="M304.331 96.2168C304.331 96.2168 303.628 100.159 303.463 101.004C302.968 103.569 306.71 104.231 307.359 101.31C308.211 97.4431 308.2 96.8084 308.2 96.8084" fill="white"/>
<path d="M304.331 96.2168C304.331 96.2168 303.628 100.159 303.463 101.004C302.968 103.569 306.71 104.231 307.359 101.31C308.211 97.4431 308.2 96.8084 308.2 96.8084" stroke="black" stroke-width="2" stroke-miterlimit="10"/>
<path d="M310.904 95.1414C311.276 93.2374 308.721 91.1184 305.203 90.4192C301.684 89.72 298.528 90.6989 298.155 92.6028C297.783 94.5067 300.338 96.6312 303.856 97.3304C307.375 98.0296 310.51 97.0507 310.904 95.1414Z" fill="#F6D2A2"/>
<path d="M310.904 95.1414C311.276 93.2374 308.721 91.1184 305.203 90.4192C301.684 89.72 298.528 90.6989 298.155 92.6028C297.783 94.5067 300.338 96.6312 303.856 97.3304C307.375 98.0296 310.51 97.0507 310.904 95.1414Z" stroke="black" stroke-width="2" stroke-miterlimit="10"/>
<path d="M294.967 87.1723C295.569 85.4028 294.967 83.5903 293.599 83.1224C292.231 82.6544 290.661 83.714 290.065 85.4835C289.468 87.2529 290.065 89.06 291.433 89.528C292.801 89.9959 294.371 88.9417 294.967 87.1723Z" fill="black"/>
<path d="M293.695 88.1444C293.971 88.1444 294.241 88.0618 294.47 87.9069C294.7 87.7521 294.878 87.532 294.984 87.2745C295.089 87.0171 295.117 86.7337 295.063 86.4604C295.009 86.187 294.877 85.936 294.682 85.7389C294.486 85.5418 294.238 85.4076 293.967 85.3532C293.697 85.2989 293.417 85.3268 293.162 85.4334C292.907 85.5401 292.689 85.7207 292.536 85.9524C292.383 86.1842 292.301 86.4566 292.301 86.7353C292.301 87.109 292.448 87.4674 292.709 87.7317C292.971 87.996 293.326 88.1444 293.695 88.1444Z" fill="white"/>
<path d="M334.134 82.9596C333.218 91.1831 327.661 97.3682 321.603 97.3682C314.391 97.3682 308.77 91.4036 308.77 82.9596C308.77 74.5156 314.391 66.5664 321.603 66.5664C328.816 66.5664 334.927 75.6827 334.134 82.9596Z" fill="white" stroke="black" stroke-width="2" stroke-miterlimit="10"/>
<path d="M331.44 89.6454C332.111 87.9728 331.584 86.1818 330.258 85.6386C328.933 85.0954 327.325 86.0151 326.655 87.6877C325.984 89.3604 326.511 91.1568 327.831 91.6946C329.151 92.2324 330.769 91.3181 331.44 89.6454Z" fill="black"/>
<path d="M330.162 90.2045C330.424 90.1929 330.676 90.104 330.888 89.9488C331.1 89.7936 331.262 89.5789 331.354 89.3315C331.446 89.084 331.465 88.8146 331.407 88.5568C331.349 88.2989 331.217 88.0639 331.028 87.881C330.839 87.6981 330.601 87.5753 330.343 87.5278C330.086 87.4803 329.82 87.5103 329.58 87.614C329.339 87.7177 329.134 87.8905 328.989 88.111C328.845 88.3316 328.768 88.5901 328.768 88.8545C328.771 89.0358 328.81 89.2146 328.882 89.3807C328.954 89.5468 329.058 89.6968 329.187 89.8223C329.317 89.9477 329.47 90.046 329.637 90.1116C329.804 90.1772 329.983 90.2088 330.162 90.2045Z" fill="white"/>
<path d="M309.105 91.6936C309.334 90.5211 307.902 89.2518 305.911 88.8538C303.921 88.4558 302.116 89.0851 301.887 90.2576C301.658 91.43 303.09 92.7047 305.081 93.0973C307.072 93.49 308.876 92.8661 309.105 91.6936Z" fill="black"/>
<path d="M272.245 61.0218C272.271 60.6776 267.193 57.7303 265.255 57.015C263.318 56.2997 255.243 56.2082 257.319 62.5439C258.841 67.1693 264.771 69.1324 267.001 69.1324C267.001 69.1324 269.892 67.4543 270.728 65.5827C271.563 63.711 272.133 62.5009 272.245 61.0218Z" fill="#71C2FF"/>
<path d="M272.245 61.0218C271.952 60.8444 267.193 57.7303 265.255 57.015C263.318 56.2997 255.243 56.2082 257.319 62.5439C258.841 67.1693 264.771 69.1324 267.001 69.1324" stroke="black" stroke-width="2" stroke-miterlimit="10"/>
<path d="M261.219 60.0273C261.219 60.0273 264.908 60.5652 267.314 62.7165C267.314 62.7165 266.632 63.8675 264.381 63.4049C262.129 62.9424 261.219 60.0273 261.219 60.0273Z" fill="#57ABEB"/>
<path d="M261.219 60.0273C261.219 60.0273 264.908 60.5652 267.314 62.7165" stroke="black" stroke-width="2" stroke-miterlimit="10"/>
<path d="M263.215 62.9031C263.85 62.2532 264.661 61.8078 265.546 61.623" stroke="black" stroke-width="2" stroke-miterlimit="10"/>
<path d="M276.342 158.993C276.514 158.619 276.603 158.212 276.603 157.799C276.603 157.387 276.514 156.98 276.342 156.605" stroke="black" stroke-width="2" stroke-miterlimit="10"/>
<path d="M310.818 156.838C310.818 156.838 310.818 155.94 309.248 155.047" stroke="black" stroke-width="2" stroke-miterlimit="10"/>
<path d="M274.505 58.0106C274.739 58.2472 284.555 58.812 289.106 56.9618C293.657 55.1117 295.126 52.7506 294.961 52.0191C294.796 51.2877 292.395 42.1875 292.395 42.1875C292.395 42.1875 278.737 43.8387 278.556 43.8709C278.375 43.9032 270.172 47.5443 270.172 47.5443C270.172 47.5443 274.276 57.7739 274.505 58.0106Z" fill="#424546"/>
<path d="M274.506 58.0088C274.634 58.1325 280.521 58.1056 283.832 58.0088C282.304 53.0392 280.164 49.511 278.509 43.8691C278.306 43.9068 270.125 47.5426 270.125 47.5426C270.125 47.5426 274.277 57.7722 274.506 58.0088Z" fill="#303233"/>
<path d="M274.505 58.0106C274.739 58.2472 284.555 58.812 289.106 56.9618C293.657 55.1117 295.126 52.7506 294.961 52.0191C294.796 51.2877 292.395 42.1875 292.395 42.1875C292.395 42.1875 278.737 43.8387 278.556 43.8709C278.375 43.9032 270.172 47.5443 270.172 47.5443C270.172 47.5443 274.276 57.7739 274.505 58.0106Z" stroke="black" stroke-width="2" stroke-miterlimit="10"/>
<path d="M259.468 48.227C259.277 48.2278 259.09 48.1675 258.935 48.0549C258.773 47.9393 258.647 47.7786 258.573 47.5923C258.502 47.4019 258.485 47.1949 258.525 46.9953C258.565 46.7929 258.661 46.6062 258.802 46.4575C261.762 43.4779 268.208 37.3896 271.045 34.7273C271.91 33.9068 273.052 33.4493 274.239 33.4473C279.312 33.4473 293.567 33.4849 299.326 33.5871C299.518 33.5931 299.704 33.6588 299.858 33.7753C300.022 33.9008 300.144 34.0733 300.21 34.2702C300.269 34.4702 300.269 34.6832 300.21 34.8833C300.156 35.0821 300.045 35.2601 299.89 35.3942C296.606 38.2447 289.777 43.9135 286.652 46.479C285.63 47.3323 284.352 47.8102 283.027 47.8343C277.981 47.9527 264.822 48.1786 259.468 48.227Z" fill="#696A6B" stroke="black" stroke-width="2" stroke-miterlimit="10"/>
<path d="M301.993 116.763V113.595L305.048 112.519V109.023C305.048 109.023 315.572 106.022 321.731 114.289C321.906 114.671 322.023 114.751 321.816 116.284C321.608 117.817 319.293 121.609 319.293 121.609L301.652 121.189L301.993 116.763Z" fill="white"/>
<path d="M321.881 120.469C321.446 118.497 321.681 116.434 322.546 114.612C326.837 106.061 335.636 105.91 335.636 105.91L335.045 108.712L337.371 108.97L335.902 114.693L321.881 120.469Z" fill="white"/>
<path d="M304.926 112.88L304.99 108.884C304.99 108.884 315.699 106.006 322.023 114.617C322.023 114.617 322.273 114.364 321.672 117.376" stroke="black" stroke-width="2" stroke-miterlimit="10"/>
<path d="M336.336 112.717L337.369 108.953C334.727 108.449 331.999 108.711 329.499 109.709C326.999 110.706 324.83 112.398 323.241 114.589C323.241 114.589 320.372 115.025 321.048 118.499" stroke="black" stroke-width="2" stroke-miterlimit="10"/>
<path d="M321.881 120.469C321.446 118.497 321.681 116.434 322.546 114.612C326.837 106.061 335.636 105.91 335.636 105.91L335.045 108.712" stroke="black" stroke-width="2" stroke-miterlimit="10"/>
<path d="M301.995 116.289L302.064 113.632C302.064 113.632 311.006 108.792 321.503 114.832C321.503 114.832 322.254 114.375 321.652 117.381C321.051 120.388 311.986 122.184 311.986 122.184L301.611 121.377L301.995 116.289Z" stroke="black" stroke-width="2" stroke-miterlimit="10"/>
<path d="M300.141 135.323C302.318 134.511 309.291 132.327 316.525 134.608C317.777 134.558 319.023 134.405 320.251 134.151C320.251 134.151 325.627 130.273 332.1 131.564C333.697 127.395 335.778 120.672 338.69 113.11C338.703 113.05 338.703 112.988 338.69 112.928C338.685 112.864 338.667 112.801 338.637 112.745C338.607 112.689 338.567 112.64 338.519 112.6C338.469 112.561 338.411 112.534 338.349 112.519C332.201 111.121 329.061 111.271 324.398 114.993C323.011 115.143 321.618 115.22 320.224 115.224C320.224 115.224 310.473 111.282 300.998 117.349C300.801 119.005 299.752 131.596 299.486 134.844C299.479 134.924 299.494 135.004 299.529 135.076C299.561 135.148 299.61 135.21 299.672 135.259C299.736 135.302 299.809 135.332 299.885 135.345C299.971 135.362 300.059 135.354 300.141 135.323Z" fill="#009245"/>
<path d="M320.25 134.151C321.907 127.866 323.192 121.486 324.099 115.047" stroke="black" stroke-width="2" stroke-miterlimit="10"/>
<path d="M316.402 134.684C318.061 128.399 319.347 122.02 320.251 115.58" stroke="black" stroke-width="2" stroke-miterlimit="10"/>
<path d="M300.194 135.302C302.43 134.479 309.344 132.36 316.525 134.609C317.777 134.558 319.023 134.405 320.251 134.151C320.251 134.151 325.297 130.51 331.498 131.462C331.67 131.49 331.845 131.456 331.993 131.365C332.144 131.279 332.261 131.142 332.323 130.978C333.92 126.805 335.884 120.404 338.636 113.23C338.665 113.154 338.677 113.074 338.674 112.993C338.669 112.912 338.647 112.833 338.61 112.762C338.572 112.69 338.519 112.628 338.455 112.579C338.392 112.531 338.32 112.498 338.243 112.482C332.185 111.116 329.055 111.288 324.403 114.983C323.017 115.133 321.624 115.21 320.23 115.214C320.23 115.214 310.478 111.272 301.003 117.339C300.806 118.984 299.768 131.441 299.491 134.77C299.486 134.855 299.501 134.939 299.534 135.017C299.569 135.097 299.624 135.165 299.694 135.216C299.76 135.27 299.839 135.305 299.922 135.318C300.013 135.335 300.106 135.33 300.194 135.302V135.302Z" stroke="black" stroke-width="2" stroke-miterlimit="10"/>
<path d="M290.49 121.835C290.49 121.835 294.855 128.741 297.41 129.515C299.965 130.29 303.425 129.978 302.733 127.767C302.041 125.557 298.97 123.965 295.659 117.35" fill="#F6D2A2"/>
<path d="M290.49 121.835C290.49 121.835 294.855 128.741 297.41 129.515C299.965 130.29 303.425 129.978 302.733 127.767C302.041 125.557 298.97 123.965 295.659 117.35" stroke="black" stroke-width="2" stroke-miterlimit="10"/>
<path d="M351.891 54.9707C351.891 57.6809 350.826 60.2801 348.929 62.1965C347.032 64.1129 344.46 65.1896 341.778 65.1896C339.095 65.1896 336.523 64.1129 334.626 62.1965C332.73 60.2801 331.664 57.6809 331.664 54.9707H351.891Z" fill="#94574C"/>
<path d="M342.044 54.9707C342.044 62.651 340.447 66.2652 334.938 62.5004C333.906 61.5429 333.082 60.3792 332.518 59.083C331.955 57.7868 331.664 56.3864 331.664 54.9707H342.044Z" fill="#6C3C33"/>
<path d="M340.978 47.9785L340.18 55.5082H343.373L342.575 47.9785H340.978Z" fill="#0E6F5C" stroke="black" stroke-width="2"/>
<path d="M341.776 49.5922C346.034 48.694 356.68 44.7517 351.89 32.6504C346.3 34.2639 340.711 39.6422 341.776 49.5922Z" fill="#0E6E5C"/>
<path d="M349.495 39.1035C344.704 45.5575 342.575 47.8864 341.244 48.5156L342.309 49.3224C345.366 46.4449 347.812 42.9678 349.495 39.1035Z" fill="#1DA88E"/>
<path d="M341.776 49.5922C346.034 48.694 356.68 44.7517 351.89 32.6504C346.3 34.2639 340.711 39.6422 341.776 49.5922Z" stroke="black" stroke-width="2"/>
<path d="M341.59 49.7756C338.13 49.937 329.145 49.0227 330.47 38.7285C335.096 38.8576 340.461 41.891 341.59 49.7756Z" fill="#0E6E5C"/>
<path d="M333.527 42.5996C335.662 45.3429 338.394 47.5516 341.512 49.0536L340.447 49.8604C339.292 48.7847 336.987 47.978 333.527 42.5996Z" fill="#1DA88E"/>
<path d="M341.59 49.7756C338.13 49.937 329.145 49.0227 330.47 38.7285C335.096 38.8576 340.461 41.891 341.59 49.7756Z" stroke="black" stroke-width="2"/>
<path d="M351.344 55.5078C351.203 57.9745 350.133 60.2934 348.355 61.9894C346.577 63.6854 344.224 64.6301 341.778 64.6301C339.333 64.6301 336.98 63.6854 335.202 61.9894C333.423 60.2934 332.354 57.9745 332.213 55.5078H351.344Z" stroke="black" stroke-width="2"/>
</g>
<defs>
<clipPath id="clip0">
<rect width="207" height="130" fill="white" transform="translate(193 32)"/>
</clipPath>
</defs>
</svg>
