<svg width="592" height="194" viewBox="0 0 592 194" fill="none" xmlns="http://www.w3.org/2000/svg">
<mask id="mask0" style="mask-type: alpha;" maskUnits="userSpaceOnUse" x="0" y="0" width="592" height="194">
<rect width="592" height="194" fill="#C4C4C4"/>
</mask>
<g mask="url(#mask0)">
<path d="M296.5 162C340.959 162 377 159.992 377 157.516C377 155.039 340.959 153.031 296.5 153.031C252.041 153.031 216 155.039 216 157.516C216 159.992 252.041 162 296.5 162Z" fill="#F4F4F4"/>
<path d="M293.357 94.6318C293.357 94.6318 285.589 101.173 282.382 101.14C278.534 101.781 276.975 99.571 278.534 97.2968C281.414 93.1071 284.897 92.4345 291.042 86.0859" fill="#F6D2A2"/>
<path d="M312.857 148.227C312.857 148.227 310.24 154.761 305.307 155.972C300.374 157.182 296.968 154.549 299.399 151.577C301.83 148.605 304.646 147.214 306.455 145.023" fill="#F6D2A2"/>
<path d="M313.17 148.228C313.17 148.228 309.001 155.096 305.114 156.044C300.188 157.248 296.775 154.622 299.2 151.649C301.624 148.677 304.639 146.896 306.435 144.705" stroke="black" stroke-width="2" stroke-miterlimit="10"/>
<path d="M301.131 155.969C301.184 155.481 301.343 155.011 301.596 154.59C301.85 154.17 302.192 153.81 302.6 153.535" stroke="black" stroke-width="2" stroke-miterlimit="10"/>
<path d="M361.041 137.291C361.041 137.291 365.262 137.771 368.257 137.15C371.253 136.528 371.516 134.517 370.015 133.684C368.514 132.851 365.05 132.595 363.209 132.102" fill="#8FCFFF"/>
<path d="M361.041 137.291C361.041 137.291 365.262 137.771 368.257 137.15C371.253 136.528 371.516 134.517 370.015 133.684C368.514 132.851 365.05 132.595 363.209 132.102" stroke="black" stroke-width="2" stroke-miterlimit="10"/>
<path d="M297.552 43.4863C286.52 43.4863 277.578 52.66 277.578 62.3846C277.578 69.4314 282.305 75.5557 289.124 78.3616C288.162 72.3142 284.935 56.856 298.745 43.5248C298.356 43.4991 297.959 43.4863 297.552 43.4863Z" fill="white"/>
<path d="M312.243 37.0794C309.537 33.0179 302.308 29.7059 298.639 34.0429C295.367 37.8866 300.088 41.2114 302.615 41.6022" fill="#8FCFFF"/>
<path d="M312.248 37.0794C309.541 33.0179 302.312 29.7059 298.643 34.0429C295.372 37.8866 300.522 41.6342 303.05 42.025" stroke="black" stroke-width="2" stroke-miterlimit="10"/>
<path d="M300.671 135.735C305.482 156.234 345.251 153.467 355.514 144.383C365.777 135.299 368.984 120.039 366.739 100.821C364.494 81.6022 366.052 66.5477 359.041 53.652C354.603 45.4969 337.695 32.7742 317.656 35.2214C299.055 37.4892 290.831 50.4874 288.74 61.8519C287.316 69.6355 289.516 83.7996 292.185 98.2583C295.584 116.798 295.854 115.235 300.671 135.735Z" fill="#8FCFFF"/>
<path d="M300.669 135.734C305.479 156.234 337.23 148.867 327.609 131.25C317.987 113.632 318.95 107.547 316.705 88.328C314.46 69.1095 317.987 68.8788 310.932 55.9768C306.493 47.8281 337.673 32.7736 317.635 35.2207C299.033 37.4885 290.81 50.4867 288.719 61.8513C287.295 69.6348 289.495 83.7989 292.163 98.2576C295.582 116.797 295.852 115.234 300.669 135.734Z" fill="#71C2FF"/>
<path d="M313.075 96.2225C313.075 96.2225 306.994 103.878 303.832 104.461C300.67 105.044 296.558 104.256 297.642 101.719C298.726 99.1822 302.62 97.6831 307.398 90.252" fill="#F6D2A2"/>
<path d="M313.474 96.0155C313.474 96.0155 307.798 102.55 304.231 104.254C300.665 105.958 296.964 104.049 298.042 101.512C299.119 98.9751 303.019 97.4697 307.804 90.0449" stroke="black" stroke-width="2" stroke-miterlimit="10"/>
<path d="M300.671 135.735C305.482 156.234 345.251 153.467 355.514 144.383C365.777 135.299 368.984 120.039 366.739 100.821C364.494 81.6022 366.052 66.5477 359.041 53.652C354.603 45.4969 337.695 32.7742 317.656 35.2214C299.055 37.4892 290.831 50.4874 288.74 61.8519C287.316 69.6355 289.516 83.7996 292.185 98.2583C295.584 116.798 295.854 115.235 300.671 135.735Z" stroke="black" stroke-width="2" stroke-miterlimit="10"/>
<path d="M289.124 78.3616C282.305 75.5557 277.578 69.4506 277.578 62.3846C277.578 52.66 286.52 43.4863 297.552 43.4863C297.959 43.4863 298.356 43.4991 298.745 43.5248" stroke="black" stroke-width="2" stroke-miterlimit="10"/>
<path d="M295.096 66.1753C290.856 65.3489 287.052 66.5021 286.603 68.7763C286.327 70.1472 287.354 71.6206 289.169 72.7545C288.899 74.1254 288.373 76.9249 288.213 77.6681C287.572 80.5957 291.844 82.0563 292.94 79.1159C292.754 81.8577 296.93 82.4791 297.681 79.1159C298.264 76.4829 298.502 75.1056 298.617 74.4137C300.445 73.9845 301.741 73.062 301.991 71.8C302.414 69.5322 299.342 67.0082 295.096 66.1753Z" fill="#71C2FF"/>
<path d="M287.514 71.0312L286.597 76.8737C286.064 79.9999 289.951 81.5054 290.644 77.9243C291.561 73.2094 291.677 71.7487 291.677 71.7487" fill="white"/>
<path d="M287.514 71.0312L286.597 76.8737C286.064 79.9999 289.951 81.5054 290.644 77.9243C291.561 73.2094 291.677 71.7487 291.677 71.7487" stroke="black" stroke-width="2" stroke-miterlimit="10"/>
<path d="M291.362 71.6738C291.362 71.6738 290.611 76.3568 290.438 77.3561C289.899 80.3991 293.921 81.1998 294.62 77.7213C295.531 73.1344 295.518 72.3785 295.518 72.3785" fill="white"/>
<path d="M291.362 71.6738C291.362 71.6738 290.611 76.3568 290.438 77.3561C289.899 80.3991 293.921 81.1998 294.62 77.7213C295.531 73.1344 295.518 72.3785 295.518 72.3785" stroke="black" stroke-width="2" stroke-miterlimit="10"/>
<path d="M346.852 146.947C342.682 154.635 338.513 159.222 335.306 159.439C330.251 159.785 327.288 156.236 329.802 154.609C331.842 153.597 334.344 151.406 336.589 148.549" fill="#F6D2A2"/>
<path d="M331.773 158.42C331.773 158.42 331.773 157.35 333.659 156.287" stroke="black" stroke-width="2" stroke-miterlimit="10"/>
<path d="M346.857 146.629C342.688 155.918 338.121 159.095 334.888 159.313C329.827 159.659 328.897 156.879 329.942 154.957C330.988 153.035 334.888 151.754 336.915 148.23" stroke="black" stroke-width="2" stroke-miterlimit="10"/>
<path d="M298.769 68.5642C298.769 66.495 295.786 64.7974 292.066 64.7718C288.346 64.7462 285.318 66.399 285.299 68.4682C285.28 70.5374 288.288 72.2414 292.008 72.267C295.729 72.2926 298.756 70.6398 298.769 68.5642Z" fill="#F6D2A2"/>
<path d="M299.089 68.5783C299.089 66.2593 296.01 64.3567 292.168 64.3246C288.325 64.2926 285.195 66.144 285.176 68.463C285.157 70.7821 288.255 72.6847 292.097 72.7167C295.939 72.7488 299.057 70.8974 299.089 68.5783Z" stroke="black" stroke-width="2" stroke-miterlimit="10"/>
<path d="M276.77 57.6476C276.218 59.8065 277.135 61.9013 278.81 62.3241C280.484 62.7469 282.28 61.3375 282.825 59.1786C283.37 57.0198 282.459 54.9313 280.785 54.5085C279.111 54.0857 277.315 55.4951 276.77 57.6476Z" fill="black"/>
<path d="M278.206 56.3759C277.877 56.4035 277.563 56.5279 277.304 56.7333C277.045 56.9388 276.853 57.2162 276.752 57.5306C276.651 57.8449 276.645 58.1821 276.736 58.4997C276.826 58.8172 277.009 59.1009 277.261 59.3149C277.513 59.5288 277.822 59.6636 278.151 59.7021C278.479 59.7406 278.812 59.6811 279.106 59.5312C279.401 59.3813 279.644 59.1476 279.806 58.8596C279.968 58.5717 280.041 58.2423 280.015 57.9131C279.978 57.4705 279.766 57.0607 279.428 56.7728C279.089 56.4849 278.65 56.3423 278.206 56.3759Z" fill="white"/>
<path d="M337.624 68.1619C336.296 77.7712 328.194 85.023 319.362 85.023C308.855 85.023 300.664 78.0467 300.664 68.1619C300.664 58.2772 308.855 48.9434 319.362 48.9434C329.869 48.9434 338.784 59.6417 337.624 68.1619Z" fill="#71C2FF"/>
<path d="M340.186 64.3182C338.858 73.9275 330.757 81.1793 321.924 81.1793C311.418 81.1793 303.227 74.2029 303.227 64.3182C303.227 54.4334 311.418 45.0996 321.924 45.0996C332.431 45.0996 341.347 55.7979 340.186 64.3182Z" fill="white" stroke="black" stroke-width="2" stroke-miterlimit="10"/>
<path d="M310.53 59.8812C309.991 62.0145 310.94 64.1029 312.647 64.5321C314.353 64.9614 316.181 63.5776 316.726 61.4379C317.271 59.2983 316.316 57.2163 314.603 56.787C312.89 56.3578 311.069 57.7416 310.53 59.8812Z" fill="black"/>
<path d="M311.816 59.1005C311.51 59.184 311.234 59.356 311.025 59.5949C310.816 59.8339 310.681 60.1292 310.639 60.4439C310.597 60.7586 310.649 61.0787 310.788 61.3642C310.927 61.6496 311.148 61.8878 311.422 62.0488C311.696 62.2098 312.011 62.2865 312.329 62.2694C312.646 62.2522 312.952 62.142 313.207 61.9524C313.462 61.7628 313.655 61.5023 313.763 61.2035C313.87 60.9047 313.887 60.5809 313.811 60.2726C313.7 59.8547 313.428 59.4975 313.054 59.2782C312.681 59.0588 312.236 58.995 311.816 59.1005Z" fill="white"/>
<path d="M296.491 64.6266C296.427 63.2044 294.394 62.141 291.943 62.2499C289.493 62.3588 287.562 63.5952 287.627 65.0173C287.691 66.4395 289.724 67.5093 292.168 67.4004C294.612 67.2915 296.542 66.0359 296.491 64.6266Z" fill="black"/>
<path d="M343.318 47.0093C345.52 43.215 349.008 40.3317 353.152 38.8799C355.493 38.0343 365.217 37.919 362.715 45.4654C360.881 50.9748 353.735 53.313 351.048 53.313" fill="#8FCFFF"/>
<path d="M343.318 47.0093C345.52 43.215 349.008 40.3317 353.152 38.8799C355.493 38.0343 365.217 37.919 362.715 45.4654C360.881 50.9748 353.735 53.313 351.048 53.313" stroke="black" stroke-width="2" stroke-miterlimit="10"/>
<path d="M355.744 43.7832C355.744 43.7832 351.472 45.1795 349.066 48.2218" stroke="black" stroke-width="2" stroke-miterlimit="10"/>
<path d="M353.973 47.575C353.086 46.9422 352.03 46.5877 350.939 46.5566" stroke="black" stroke-width="2" stroke-miterlimit="10"/>
<path d="M292.004 95.6991C292.004 95.6991 286.976 99.9721 283.89 100.895C280.805 101.817 278.759 101.375 277.893 99.5429C277.29 98.2232 277.893 96.9804 281.741 94.0976C285.59 91.2148 286.231 90.5742 290.08 86.7305" stroke="black" stroke-width="2" stroke-miterlimit="10"/>
<path d="M320.15 115.941H216.783C216.678 115.943 216.575 115.965 216.479 116.007C216.383 116.048 216.297 116.108 216.224 116.183C216.151 116.258 216.094 116.347 216.056 116.444C216.017 116.541 215.998 116.644 216 116.749V120.112C215.998 120.322 216.079 120.524 216.226 120.675C216.372 120.827 216.572 120.914 216.783 120.919H320.15C320.36 120.914 320.56 120.827 320.707 120.675C320.853 120.524 320.934 120.322 320.932 120.112V116.749C320.934 116.644 320.915 116.541 320.877 116.444C320.838 116.347 320.781 116.258 320.708 116.183C320.636 116.108 320.549 116.048 320.453 116.007C320.357 115.965 320.254 115.943 320.15 115.941Z" fill="#B86B0F" stroke="black" stroke-width="2" stroke-miterlimit="10"/>
<path d="M268.596 121.002V158.798" stroke="black" stroke-width="2"/>
<path d="M219.287 74.3349L220.801 72.3105H265.554L277.978 112.029H233.758L219.287 74.3349Z" fill="#C4C4C4" stroke="black" stroke-width="2"/>
<path d="M265.704 72.3105L263.779 74.8725" stroke="black" stroke-width="2"/>
<path d="M218.566 74.2363H264.108L275.654 112.673H230.112L218.566 74.2363Z" fill="#A5A5A5"/>
<path d="M230.593 112.031L219.432 74.875H263.633L274.794 112.031H230.593Z" stroke="black" stroke-width="2"/>
<path d="M230.111 111.389H303.235C303.405 111.389 303.568 111.456 303.688 111.576C303.809 111.696 303.876 111.859 303.876 112.029V116.514H230.111V111.389Z" fill="#C4C4C4"/>
<path d="M230.111 111.389H276.295C276.465 111.389 276.628 111.456 276.748 111.576C276.868 111.696 276.936 111.859 276.936 112.029V116.514H230.111V111.389Z" fill="#A5A5A5"/>
<path d="M230.756 112.031H303.238V115.874H230.756V112.031Z" stroke="black" stroke-width="2"/>
<path d="M276.293 111.389V116.514" stroke="black" stroke-width="2"/>
<path d="M252.561 158.156H282.708" stroke="black" stroke-width="2"/>
<path d="M253.081 94.0264C254.165 98.0175 251.599 100.49 248.893 100.157C246.186 99.824 244.775 99.2923 243.261 96.3134C241.747 93.3345 243.581 89.2666 246.699 89.3691C249.816 89.4716 252.196 90.7592 253.081 94.0264Z" fill="#8D8D8D"/>
</g>
</svg>
