<svg width="118" height="42" viewBox="0 0 118 42" fill="none" xmlns="http://www.w3.org/2000/svg">
<path d="M23.7895 14.3441H16.1861L12.3682 21.0689L16.1687 27.7248H23.7883L27.5888 21.0689L23.7895 14.3441ZM22.7752 25.9001H17.1794L14.3932 21.0511L17.1817 16.1511H22.7775L25.5661 21.0511L22.7752 25.9001Z" fill="#141A1F"/>
<path d="M14.3916 21.0676L17.1802 25.9H22.776L25.5821 21.0676L22.776 16.1H17.1802L14.3916 21.0676Z" fill="#E83030"/>
<path d="M23.7895 28.6372H16.1861L12.3682 35.3442L16.1687 42.0001H23.7883L27.5888 35.3442L23.7895 28.6372ZM22.7752 40.2442H17.1794L14.3932 35.3952L17.1817 30.4952H22.7775L25.5661 35.3952L22.7752 40.2442Z" fill="#141A1F"/>
<path d="M14.3916 35.3441L17.1802 40.2441H22.776L25.5821 35.3441L22.776 30.4441H17.1802L14.3916 35.3441Z" fill="#6B91C7"/>
<path d="M23.7895 0H16.1861L12.3682 6.72475L16.1861 13.3807H23.8058L27.6063 6.72475L23.7895 0ZM22.7752 11.5559H17.1794L14.3932 6.70696L17.1817 1.75712H22.7775L25.5661 6.65713L22.7752 11.5559Z" fill="#141A1F"/>
<path d="M14.3916 6.72337L17.1802 11.5557H22.776L25.5821 6.72337L22.776 1.75574H17.1802L14.3916 6.72337Z" fill="#F9C31F"/>
<path d="M36.1586 21.5411H28.6159L24.8154 28.2659L28.6159 34.9218H36.2356L40.036 28.2659L36.1586 21.5411ZM35.1444 33.1256H29.5486L26.76 28.2766L29.5486 23.3766H35.1444L37.9329 28.2766L35.1444 33.1256Z" fill="#141A1F"/>
<path d="M26.747 28.2906L29.5757 33.1396H35.1561L38.0123 28.2906L35.1561 23.323H29.5757L26.747 28.2906Z" fill="#795AA5"/>
<path d="M36.1586 7.19702H28.6159L24.8154 13.853L28.6159 20.5089H36.2356L40.036 13.853L36.1586 7.19702ZM35.1444 18.7696H29.5486L26.76 13.9206L29.5486 9.02058H35.1444L37.9329 13.9206L35.1444 18.7696Z" fill="#141A1F"/>
<path d="M26.7471 13.9237L29.5309 18.8381H35.1562L38.0124 13.9891L35.1562 9.02149L29.5309 9.02148L26.7471 13.9237Z" fill="#F17423"/>
<path d="M11.3548 21.5411H3.80049L0 28.2658L3.80049 34.9218H11.4201L15.2206 28.2658L11.3548 21.5411ZM10.3406 33.1148H4.8124L2.02382 28.2658L4.8124 23.3658H10.4082L13.1968 28.2658L10.3406 33.1148Z" fill="#141A1F"/>
<path d="M2.02344 28.2646L4.81202 33.1136H10.3402L13.1964 28.2646L10.3402 23.297H4.81202L2.02344 28.2646Z" fill="#97C639"/>
<path d="M11.3548 7.19702H3.80049L0 13.853L3.80049 20.5089H11.4201L15.2206 13.853L11.3548 7.19702ZM10.3406 18.7708H4.8124L2.02382 13.9218L4.8124 9.02177H10.4082L13.1968 13.9218L10.3406 18.7708Z" fill="#141A1F"/>
<path d="M2.02344 13.9204L4.81202 18.7694H10.3402L13.1964 13.9204L10.3402 8.95276H4.81202L2.02344 13.9204Z" fill="#C9DB70"/>
<path d="M57.0884 14.0736C57.7086 14.078 58.3266 14.1494 58.9321 14.2868C59.506 14.4114 59.9911 14.6362 60.4626 14.8739V16.712C59.9381 16.5175 59.404 16.3511 58.8626 16.2135C58.324 16.0888 57.8377 16.0003 57.298 16.0003C56.7582 16.0003 56.2389 16.0888 55.698 16.2496C55.1571 16.4103 54.7073 16.712 54.2552 17.1383C53.8384 17.5647 53.507 18.0993 53.2303 18.775C52.9866 19.4506 52.8659 20.2869 52.8659 21.3004C52.8659 21.9993 52.9524 22.6982 53.162 23.3272C53.3493 23.9124 53.6442 24.4557 54.0309 24.9277C54.4135 25.3902 54.8997 25.728 55.4224 25.9761C55.9964 26.2254 56.6568 26.3488 57.4039 26.3488C57.9425 26.3488 58.4629 26.3139 59.0551 26.1892C59.5976 26.0558 60.1319 25.8893 60.655 25.6907V27.5405C60.499 27.629 60.2906 27.7536 60.0469 27.8433C59.8032 27.933 59.5083 28.0029 59.1781 28.0926C58.882 28.1811 58.57 28.2173 58.1873 28.2522L57.1625 28.3407C56.2925 28.3527 55.4272 28.2084 54.6059 27.9144C53.8368 27.6245 53.1242 27.1969 52.5015 26.6517C51.8897 26.033 51.4151 25.2869 51.1099 24.4641C50.7683 23.5753 50.5713 22.577 50.5713 21.3516C50.5713 20.4628 50.6578 19.6626 50.8674 18.952C51.0234 18.2531 51.2842 17.6008 51.6155 17.065C51.9469 16.5291 52.2988 16.0515 52.7281 15.6671C53.1396 15.3013 53.595 14.9905 54.0832 14.7422C54.5695 14.493 55.074 14.3159 55.5613 14.1913L57.0918 14.0492L57.0884 14.0736ZM63.9916 11.2989V8.80849H66.1553V11.2989H63.9916ZM64.0258 28.0006V14.4475H66.1894V28.0111L64.0258 28.0006ZM70.6511 28.0122V7.3501H72.8147V28.0111L70.6511 28.0122ZM77.2297 11.2989V8.80849H79.3934V11.2989H77.2297ZM77.2639 28.0006V14.4475H79.4276V28.0111L77.2639 28.0006ZM89.0478 28.35C88.4273 28.351 87.8088 28.2795 87.2042 28.1369C86.7003 27.9904 86.2157 27.7815 85.7614 27.5148C85.3446 27.212 84.979 26.9278 84.7023 26.5014C84.4 26.1275 84.1683 25.6993 84.019 25.2387C83.8972 24.8893 83.8106 24.5398 83.723 24.1007L83.6364 22.7494V14.4615H85.8001V22.7494C85.8001 23.5147 85.8866 24.1473 86.0961 24.6365C86.3045 25.2236 86.6701 25.6499 87.1552 25.9877C87.6403 26.3255 88.3031 26.4863 89.0501 26.4863C89.8677 26.4863 90.5282 26.3267 91.0315 25.9353C91.5189 25.5626 91.9004 25.0989 92.0906 24.4594C92.2466 23.997 92.3343 23.4111 92.3343 22.7355V14.4417H94.4979V22.7657C94.4982 23.1882 94.4693 23.6102 94.4114 24.0284C94.3775 24.3994 94.2955 24.7641 94.1677 25.1129C94.0117 25.5754 93.7509 26.0017 93.4844 26.4117C93.1884 26.7845 92.824 27.1106 92.4254 27.4251C92.0086 27.728 91.5212 27.9237 90.9473 28.1008C90.3291 28.2687 89.692 28.3525 89.0524 28.35H89.0478ZM109.358 28.0006H107.194V19.2747C107.196 18.7631 107.126 18.2539 106.986 17.7627C106.864 17.3364 106.69 16.9974 106.447 16.7493C106.202 16.4921 105.906 16.2919 105.578 16.1622C105.236 16.0376 104.895 16.0026 104.466 16.0026C103.683 16.0026 102.987 16.2158 102.361 16.6246C101.753 17.051 101.161 17.6381 100.676 18.3859V28.0262H98.5201V14.4475H100.205L100.622 16.3346H100.656L101.439 15.4458C101.735 15.1965 102.047 14.9473 102.378 14.7469C102.733 14.5289 103.121 14.3727 103.526 14.2845C103.943 14.1598 104.395 14.1249 104.893 14.1249C105.883 14.1249 106.701 14.3742 107.361 14.8238C108.022 15.3223 108.509 15.9618 108.892 16.7982H108.926C109.5 15.9618 110.196 15.2862 110.942 14.8238C111.688 14.3613 112.593 14.1249 113.568 14.1249C114.02 14.1249 114.507 14.2134 115.046 14.338C115.584 14.4627 116.037 14.7108 116.489 15.037C116.941 15.3631 117.271 15.8733 117.548 16.5128C117.844 17.1349 118 17.9363 118 18.9497V28.039H115.914V19.3061C115.915 18.7945 115.845 18.2853 115.705 17.7942C115.583 17.3678 115.409 17.0288 115.166 16.7807C114.921 16.5236 114.625 16.3234 114.298 16.1937C113.956 16.069 113.614 16.0341 113.185 16.0341C112.403 16.0341 111.707 16.2472 111.081 16.6561C110.473 17.0824 109.88 17.6695 109.359 18.4174L109.358 28.0006Z" fill="#141A1F"/>
</svg>
