<svg width="677" height="397" viewBox="0 0 677 397" fill="none" xmlns="http://www.w3.org/2000/svg">
<circle cx="52" cy="328" r="50" stroke="#00877C" stroke-width="4"/>
<path d="M57.0711 38L78 17.0711L98.9289 38L78 58.9289L57.0711 38Z" fill="white" stroke="#0073E6" stroke-width="10"/>
<rect x="284" width="140" height="10" rx="5" fill="#EB4748"/>
<rect x="294" y="24" width="100" height="10" rx="5" fill="#EB4748"/>
<rect x="304" y="48" width="60" height="10" rx="5" fill="#EB4748"/>
<path d="M523.876 322.432L522.014 326.076L523.88 329.718L552.011 384.647L554.241 389H559.132H630.868H635.759L637.989 384.647L666.12 329.718L667.986 326.076L666.124 322.432L637.992 267.361L635.765 263H630.868H559.132H554.235L552.008 267.361L523.876 322.432Z" fill="#0073E6" stroke="#F6F7F8" stroke-width="16"/>
<circle cx="595" cy="326" r="33" fill="white"/>
<path d="M595 308C585.627 308 578 315.627 578 325V335.625C578 339.14 580.86 342 584.375 342H586.5C587.675 342 588.625 341.048 588.625 339.875V329.25C588.625 328.077 587.675 327.125 586.5 327.125H582.25V325C582.25 317.968 587.968 312.25 595 312.25C602.032 312.25 607.75 317.968 607.75 325V327.125H603.5C602.325 327.125 601.375 328.077 601.375 329.25V339.875C601.375 341.048 602.325 342 603.5 342H605.625C609.14 342 612 339.14 612 335.625V325C612 315.627 604.373 308 595 308Z" fill="#212121"/>
</svg>
