<svg width="726" height="440" viewBox="0 0 726 440" fill="none" xmlns="http://www.w3.org/2000/svg">
<g clip-path="url(#clip0_3962_10154)">
<g clip-path="url(#clip1_3962_10154)">
<rect width="1267" height="935" transform="matrix(0.866025 0.5 -0.866025 0.5 186.734 -368)" fill="#F6F7F8"/>
<g opacity="0.6">
<mask id="mask0_3962_10154" style="mask-type:alpha" maskUnits="userSpaceOnUse" x="80" y="30" width="643" height="372">
<circle r="262" transform="matrix(0.866025 0.5 -0.866025 0.5 401.508 216)" fill="#C4C4C4"/>
</mask>
<g mask="url(#mask0_3962_10154)">
<g opacity="0.7">
<path d="M-56.6204 330.501L639.664 -71.499" stroke="#E0E5EB"/>
<path d="M-99.9212 305.501L596.363 -96.499" stroke="#E0E5EB"/>
<path d="M-143.222 280.501L553.062 -121.499" stroke="#E0E5EB"/>
<path d="M-186.523 255.501L509.762 -146.499" stroke="#E0E5EB"/>
<path d="M-229.823 230.501L466.461 -171.499" stroke="#E0E5EB"/>
<path d="M-13.3157 355.501L682.969 -46.499" stroke="#E0E5EB"/>
<path d="M29.9851 380.501L726.27 -21.499" stroke="#E0E5EB"/>
<path d="M73.2859 405.501L769.57 3.50098" stroke="#E0E5EB"/>
<path d="M116.587 430.501L812.871 28.501" stroke="#E0E5EB"/>
<path d="M159.887 455.501L856.172 53.501" stroke="#E0E5EB"/>
<path d="M203.188 480.501L899.473 78.501" stroke="#E0E5EB"/>
<path d="M246.489 505.501L942.773 103.501" stroke="#E0E5EB"/>
<path d="M289.79 530.501L986.074 128.501" stroke="#E0E5EB"/>
<path d="M333.094 555.501L1029.38 153.501" stroke="#E0E5EB"/>
<path d="M376.395 580.501L1072.68 178.501" stroke="#E0E5EB"/>
<path d="M419.696 605.501L1115.98 203.501" stroke="#E0E5EB"/>
<path d="M654.018 459.786L-86.1133 32.4717" stroke="#E0E5EB"/>
<path d="M610.721 484.787L-129.41 57.4727" stroke="#E0E5EB"/>
<path d="M567.416 509.786L-172.715 82.4717" stroke="#E0E5EB"/>
<path d="M524.115 534.787L-216.016 107.473" stroke="#E0E5EB"/>
<path d="M480.815 559.787L-259.316 132.473" stroke="#E0E5EB"/>
<path d="M697.322 434.787L-42.8086 7.47266" stroke="#E0E5EB"/>
<path d="M740.619 409.786L0.488281 -17.5283" stroke="#E0E5EB"/>
<path d="M783.924 384.787L43.793 -42.5273" stroke="#E0E5EB"/>
<path d="M827.225 359.786L87.0938 -67.5283" stroke="#E0E5EB"/>
<path d="M854.439 325.499L130.441 -92.501" stroke="#E0E5EB"/>
<path d="M913.826 309.786L173.695 -117.528" stroke="#E0E5EB"/>
<path d="M957.127 284.786L216.996 -142.528" stroke="#E0E5EB"/>
<path d="M1000.43 259.787L260.301 -167.527" stroke="#E0E5EB"/>
<path d="M1043.73 234.786L303.598 -192.528" stroke="#E0E5EB"/>
<path d="M1087.03 209.787L346.902 -217.527" stroke="#E0E5EB"/>
<path d="M1045.51 135.814L305.379 -291.501" stroke="#E0E5EB"/>
</g>
<circle r="201" transform="matrix(0.866025 0.5 -0.866025 0.5 402.375 215.5)" stroke="white" stroke-width="4" stroke-linecap="round" stroke-linejoin="round"/>
</g>
</g>
<rect width="199" height="199" transform="matrix(0.866025 0.5 -0.866025 0.5 403.242 115.5)" fill="#F6F7F9"/>
<path d="M155.557 215L647.459 215" stroke="#E0E5EB" stroke-width="2" stroke-linecap="round" stroke-dasharray="0.01 5"/>
<path d="M403.241 358L403.241 73" stroke="#E0E5EB" stroke-width="2" stroke-linecap="round" stroke-dasharray="0.01 5"/>
<circle r="5" transform="matrix(0.866025 0.5 -0.866025 0.5 155.559 215)" fill="#00877C"/>
<circle r="5" transform="matrix(0.866025 0.5 -0.866025 0.5 403.242 73)" fill="#0073E6"/>
<circle r="5" transform="matrix(0.866025 0.5 -0.866025 0.5 647.461 215)" fill="#FFBF00"/>
<circle r="5" transform="matrix(0.866025 0.5 -0.866025 0.5 403.242 358)" fill="#EB4748"/>
<g opacity="0.14" filter="url(#filter0_f_3962_10154)">
<circle r="29" transform="matrix(0.866025 0.5 -0.866025 0.5 231.766 314)" fill="#00332F"/>
</g>
<path d="M263.914 315.094L263.914 311.56L255.114 311.56C254.751 311.33 254.376 311.103 253.991 310.88C240.76 303.242 219.309 303.242 206.079 310.88C205.693 311.103 205.319 311.329 204.956 311.56L196.156 311.56L196.156 314.225C196.156 314.3 196.156 314.375 196.156 314.451L196.156 315.094L196.181 315.094C196.497 319.845 199.797 324.542 206.079 328.169C219.31 335.808 240.761 335.808 253.991 328.169C260.273 324.542 263.572 319.845 263.889 315.094L263.914 315.094Z" fill="#CC9900"/>
<circle r="28" transform="matrix(0.866025 0.5 -0.866025 0.5 230.035 312)" fill="#FFBF00"/>
<circle r="7" transform="matrix(0.866025 0.5 0.866025 -0.5 230.035 312)" fill="white"/>
<path d="M230.033 312L245.621 303" stroke="white" stroke-width="2.5" stroke-linecap="round" stroke-linejoin="round"/>
<path d="M245.623 306L246.489 302.5L240.427 303L245.623 306Z" fill="white" stroke="white" stroke-width="2.5" stroke-linecap="round" stroke-linejoin="round"/>
<path d="M231.241 322.794L236.058 324.977L238.339 321.696L231.241 322.794Z" fill="white"/>
<path d="M231.514 311.771C231.295 311.3 230.456 311.02 229.639 311.146C228.822 311.273 228.338 311.757 228.556 312.229L231.514 311.771ZM234.262 324.523C234.481 324.995 235.32 325.274 236.137 325.148C236.954 325.022 237.439 324.537 237.22 324.065L234.262 324.523ZM236.058 324.977L235.113 325.673C235.492 325.844 235.989 325.903 236.454 325.831C236.92 325.759 237.299 325.565 237.479 325.306L236.058 324.977ZM231.241 322.794L230.845 321.94C230.285 322.027 229.857 322.289 229.741 322.617C229.625 322.945 229.84 323.283 230.296 323.49L231.241 322.794ZM238.339 321.696L239.76 322.025C239.976 321.715 239.869 321.36 239.484 321.11C239.1 320.859 238.503 320.756 237.943 320.842L238.339 321.696ZM228.556 312.229L234.262 324.523L237.22 324.065L231.514 311.771L228.556 312.229ZM237.003 324.282L232.186 322.099L230.296 323.49L235.113 325.673L237.003 324.282ZM237.479 325.306L239.76 322.025L236.918 321.367L234.637 324.648L237.479 325.306ZM231.637 323.648L238.735 322.55L237.943 320.842L230.845 321.94L231.637 323.648Z" fill="white"/>
<path d="M211.339 311.304L207.558 308.523L213.241 307.206L211.339 311.304Z" fill="white"/>
<path d="M230.431 311.146C231.248 311.273 231.733 311.757 231.514 312.229C231.295 312.7 230.456 312.98 229.639 312.854L230.431 311.146ZM208.345 309.56C207.528 309.433 207.043 308.949 207.262 308.477C207.481 308.005 208.32 307.726 209.137 307.852L208.345 309.56ZM207.558 308.523L206.354 309.069C206.056 308.85 205.954 308.563 206.079 308.294C206.204 308.025 206.54 307.806 206.988 307.702L207.558 308.523ZM211.339 311.304L212.818 311.533C212.668 311.856 212.214 312.103 211.646 312.17C211.078 312.237 210.493 312.113 210.135 311.85L211.339 311.304ZM213.241 307.206L212.671 306.385C213.209 306.261 213.823 306.322 214.257 306.544C214.691 306.767 214.87 307.111 214.72 307.435L213.241 307.206ZM229.639 312.854L208.345 309.56L209.137 307.852L230.431 311.146L229.639 312.854ZM208.762 307.977L212.543 310.758L210.135 311.85L206.354 309.069L208.762 307.977ZM206.988 307.702L212.671 306.385L213.811 308.026L208.128 309.343L206.988 307.702ZM209.86 311.075L211.762 306.977L214.72 307.435L212.818 311.533L209.86 311.075Z" fill="white"/>
<g opacity="0.14" filter="url(#filter1_f_3962_10154)">
<circle r="29" transform="matrix(0.866025 0.5 -0.866025 0.5 575.578 116.5)" fill="#00332F"/>
</g>
<path d="M607.727 117.594L607.727 114.06L598.927 114.06C598.563 113.83 598.189 113.603 597.803 113.38C584.573 105.742 563.122 105.742 549.891 113.38C549.506 113.603 549.131 113.829 548.768 114.06L539.969 114.06L539.969 116.725C539.968 116.8 539.968 116.875 539.969 116.951L539.969 117.594L539.994 117.594C540.31 122.345 543.609 127.042 549.891 130.669C563.122 138.308 584.573 138.308 597.804 130.669C604.086 127.042 607.385 122.345 607.701 117.594L607.727 117.594Z" fill="#005C54"/>
<circle r="28" transform="matrix(0.866025 0.5 -0.866025 0.5 573.848 114.5)" fill="#00877C"/>
<g opacity="0.14" filter="url(#filter2_f_3962_10154)">
<circle r="29" transform="matrix(0.866025 0.5 -0.866025 0.5 575.578 314.5)" fill="#00332F"/>
</g>
<path d="M607.727 315.594L607.727 312.06L598.927 312.06C598.563 311.83 598.189 311.603 597.803 311.38C584.573 303.742 563.122 303.742 549.891 311.38C549.506 311.603 549.131 311.829 548.768 312.06L539.969 312.06L539.969 314.725C539.968 314.8 539.968 314.875 539.969 314.951L539.969 315.594L539.994 315.594C540.31 320.345 543.609 325.042 549.891 328.669C563.122 336.308 584.573 336.308 597.804 328.669C604.086 325.042 607.385 320.345 607.701 315.594L607.727 315.594Z" fill="#004D99"/>
<circle r="28" transform="matrix(0.866025 0.5 -0.866025 0.5 573.848 312.5)" fill="#0073E6"/>
<g clip-path="url(#clip2_3962_10154)">
<path d="M585.973 305.5C579.766 301.916 569.664 301.916 563.457 305.5L556.42 309.563C554.092 310.906 554.092 313.094 556.42 314.438L557.827 315.25C558.606 315.699 559.865 315.699 560.642 315.25L567.678 311.188C568.455 310.739 568.457 310.012 567.678 309.563L564.864 307.938L566.271 307.125C570.928 304.436 578.502 304.436 583.159 307.125C587.815 309.814 587.815 314.186 583.159 316.875L581.751 317.688L578.937 316.063C578.158 315.613 576.899 315.614 576.122 316.063L569.086 320.125C568.309 320.574 568.307 321.301 569.086 321.75L570.493 322.563C572.821 323.906 576.609 323.906 578.937 322.563L585.973 318.5C592.181 314.916 592.181 309.084 585.973 305.5Z" fill="white"/>
</g>
<g opacity="0.14" filter="url(#filter3_f_3962_10154)">
<circle r="29" transform="matrix(0.866025 0.5 -0.866025 0.5 230.035 115)" fill="#00332F"/>
</g>
<path d="M262.184 116.094L262.184 112.56L253.384 112.56C253.02 112.33 252.646 112.103 252.26 111.88C239.03 104.242 217.579 104.242 204.348 111.88C203.963 112.103 203.588 112.329 203.225 112.56L194.426 112.56L194.426 115.225C194.425 115.3 194.425 115.375 194.426 115.451L194.426 116.094L194.451 116.094C194.767 120.845 198.066 125.542 204.348 129.169C217.579 136.808 239.03 136.808 252.261 129.169C258.543 125.542 261.842 120.845 262.158 116.094L262.184 116.094Z" fill="#B81415"/>
<circle r="28" transform="matrix(0.866025 0.5 -0.866025 0.5 228.305 113)" fill="#EB4748"/>
<path fill-rule="evenodd" clip-rule="evenodd" d="M239.772 116.892C239.215 117.46 238.533 117.983 237.745 118.45C236.937 118.905 236.03 119.298 235.048 119.62L235.482 122.857L230.642 123.608L228.227 120.7C225.949 120.686 223.715 120.336 221.74 119.682L217.085 121.522L213.546 119.478L216.721 116.798C215.588 115.657 214.981 114.368 214.958 113.053L209.921 111.658L211.222 108.864L216.84 109.108C217.397 108.54 218.078 108.017 218.867 107.55C219.675 107.095 220.582 106.702 221.564 106.38L221.141 103.136L225.982 102.385L228.385 105.3C230.663 105.314 232.896 105.664 234.872 106.318L239.526 104.478L243.066 106.522L239.889 109.204C241.022 110.344 241.629 111.634 241.652 112.949L246.691 114.342L245.39 117.136L239.772 116.892ZM232.636 115.5C230.245 116.881 226.367 116.881 223.976 115.5C221.584 114.119 221.584 111.881 223.976 110.5C226.367 109.119 230.245 109.119 232.636 110.5C235.027 111.881 235.027 114.119 232.636 115.5Z" fill="white"/>
<g opacity="0.2" filter="url(#filter4_f_3962_10154)">
<rect width="198" height="198" rx="10" transform="matrix(0.866025 0.5 -0.866025 0.5 403.242 117)" fill="#003366"/>
</g>
<rect x="-8.9407e-08" y="1.5" width="195" height="195" rx="8.5" transform="matrix(0.866025 0.5 -0.866025 0.5 404.541 102.75)" fill="white" stroke="#E0E5EB" stroke-width="3"/>
<path opacity="0.8" d="M403.242 104L403.242 296" stroke="#E0E5EB"/>
<path opacity="0.8" d="M569.52 200L236.966 200" stroke="#E0E5EB"/>
<circle r="80" transform="matrix(0.866025 0.5 -0.866025 0.5 403.242 200)" fill="white"/>
<circle r="79.5" transform="matrix(0.866025 0.5 -0.866025 0.5 403.242 200)" stroke="#E0E5EB" stroke-opacity="0.8"/>
<circle r="64" transform="matrix(0.866025 0.5 -0.866025 0.5 403.242 200)" fill="white" stroke="#E0E5EB" stroke-opacity="0.8" stroke-width="2" stroke-linecap="round" stroke-dasharray="0.01 5"/>
<path d="M422.167 197.982L408.352 190.005L389.212 193.045L384.04 204.005L397.886 211.999L416.869 209.013L422.167 197.982ZM399.356 209.024L389.188 203.154L392.924 195.151L406.882 192.943L417.05 198.813L413.226 206.872L399.356 209.024Z" fill="#141A1F"/>
<path d="M392.892 195.166L389.191 203.154L399.359 209.025L413.226 206.906L417.141 198.758L406.973 192.887L392.892 195.166Z" fill="#E83030"/>
<path d="M396.234 212.956L382.418 204.979L363.311 208L358.139 218.96L371.984 226.954L390.968 223.968L396.234 212.956ZM373.33 224.051L363.162 218.181L366.898 210.178L380.856 207.97L391.024 213.84L387.2 221.899L373.33 224.051Z" fill="#141A1F"/>
<path d="M366.988 210.122L363.164 218.18L373.332 224.051L387.322 221.861L391.114 213.784L380.946 207.914L366.988 210.122Z" fill="#6B91C7"/>
<path d="M448.195 182.955L434.379 174.978L415.239 178.018L410.099 188.996L423.945 196.99L442.928 194.004L448.195 182.955ZM425.383 193.997L415.215 188.126L418.951 180.123L433 177.863L443.168 183.734L439.344 191.793L425.383 193.997Z" fill="#141A1F"/>
<path d="M418.92 180.138L415.218 188.126L425.386 193.996L439.254 191.878L443.169 183.73L433.001 177.859L418.92 180.138Z" fill="#F9C31F"/>
<path d="M431.584 218.498L417.878 210.585L398.77 213.643L393.599 224.603L407.444 232.596L426.428 229.61L431.584 218.498ZM408.721 229.57L398.553 223.699L402.284 215.694L416.243 213.486L426.411 219.356L422.587 227.415L408.721 229.57Z" fill="#141A1F"/>
<path d="M402.24 215.696L398.581 223.744L408.721 229.598L422.71 227.515L426.534 219.314L416.394 213.46L402.24 215.696Z" fill="#795AA5"/>
<path d="M457.611 203.472L443.906 195.559L424.923 198.545L419.751 209.505L433.597 217.499L452.58 214.513L457.611 203.472ZM434.77 214.532L424.602 208.661L428.333 200.656L442.292 198.448L452.46 204.319L448.636 212.377L434.77 214.532Z" fill="#141A1F"/>
<path d="M428.308 200.644L424.449 208.713L434.671 214.615L448.659 212.531L452.483 204.331L442.262 198.429L428.308 200.644Z" fill="#F17423"/>
<path d="M386.519 192.479L372.793 184.553L353.684 187.611L348.513 198.571L362.358 206.565L381.342 203.579L386.519 192.479ZM363.676 203.539L353.63 197.74L357.362 189.735L371.32 187.527L381.488 193.397L377.664 201.456L363.676 203.539Z" fill="#141A1F"/>
<path d="M357.365 189.735L353.633 197.741L363.679 203.54L377.667 201.457L381.491 193.256L371.446 187.457L357.365 189.735Z" fill="#97C639"/>
<path d="M412.547 177.451L398.82 169.526L379.837 172.512L374.665 183.472L388.511 191.466L407.494 188.48L412.547 177.451ZM389.703 188.512L379.658 182.713L383.389 174.707L397.348 172.499L407.516 178.37L403.691 186.429L389.703 188.512Z" fill="#141A1F"/>
<path d="M383.396 174.708L379.665 182.713L389.71 188.513L403.698 186.43L407.522 178.229L397.477 172.429L383.396 174.708Z" fill="#C9DB70"/>
<path d="M275.938 177L241.729 196.75C237.664 199.097 237.664 202.903 241.729 205.25L275.937 225" stroke="#0073E5" stroke-width="3" stroke-linecap="round" stroke-linejoin="round"/>
<path d="M444.812 274.5L410.604 294.25C406.539 296.597 399.948 296.597 395.882 294.25L361.674 274.5" stroke="#0073E5" stroke-width="3" stroke-linecap="round" stroke-linejoin="round"/>
<path d="M530.547 225L564.755 205.25C568.82 202.903 568.82 199.097 564.755 196.75L530.547 177" stroke="#0073E5" stroke-width="3" stroke-linecap="round" stroke-linejoin="round"/>
<path d="M361.672 127.5L395.88 107.75C399.945 105.403 406.537 105.403 410.602 107.75L444.81 127.5" stroke="#0073E5" stroke-width="3" stroke-linecap="round" stroke-linejoin="round"/>
<rect width="28" height="20" rx="2" transform="matrix(0.866025 0.5 -0.866025 0.5 570.383 102.5)" fill="white"/>
<path d="M566.715 114.617L574.049 110.383C574.722 109.994 575.872 110.178 576.103 110.712L578.547 116.357C578.771 116.875 577.959 117.344 577.062 117.214L567.284 115.803C566.361 115.67 566.042 115.006 566.715 114.617Z" fill="#00877C"/>
</g>
</g>
<defs>
<filter id="filter0_f_3962_10154" x="184.246" y="281.494" width="95.0391" height="65.0117" filterUnits="userSpaceOnUse" color-interpolation-filters="sRGB">
<feFlood flood-opacity="0" result="BackgroundImageFix"/>
<feBlend mode="normal" in="SourceGraphic" in2="BackgroundImageFix" result="shape"/>
<feGaussianBlur stdDeviation="6" result="effect1_foregroundBlur_3962_10154"/>
</filter>
<filter id="filter1_f_3962_10154" x="528.059" y="83.9941" width="95.0391" height="65.0117" filterUnits="userSpaceOnUse" color-interpolation-filters="sRGB">
<feFlood flood-opacity="0" result="BackgroundImageFix"/>
<feBlend mode="normal" in="SourceGraphic" in2="BackgroundImageFix" result="shape"/>
<feGaussianBlur stdDeviation="6" result="effect1_foregroundBlur_3962_10154"/>
</filter>
<filter id="filter2_f_3962_10154" x="528.059" y="281.994" width="95.0391" height="65.0117" filterUnits="userSpaceOnUse" color-interpolation-filters="sRGB">
<feFlood flood-opacity="0" result="BackgroundImageFix"/>
<feBlend mode="normal" in="SourceGraphic" in2="BackgroundImageFix" result="shape"/>
<feGaussianBlur stdDeviation="6" result="effect1_foregroundBlur_3962_10154"/>
</filter>
<filter id="filter3_f_3962_10154" x="182.516" y="82.4941" width="95.0391" height="65.0117" filterUnits="userSpaceOnUse" color-interpolation-filters="sRGB">
<feFlood flood-opacity="0" result="BackgroundImageFix"/>
<feBlend mode="normal" in="SourceGraphic" in2="BackgroundImageFix" result="shape"/>
<feGaussianBlur stdDeviation="6" result="effect1_foregroundBlur_3962_10154"/>
</filter>
<filter id="filter4_f_3962_10154" x="216.844" y="99.9287" width="372.797" height="232.143" filterUnits="userSpaceOnUse" color-interpolation-filters="sRGB">
<feFlood flood-opacity="0" result="BackgroundImageFix"/>
<feBlend mode="normal" in="SourceGraphic" in2="BackgroundImageFix" result="shape"/>
<feGaussianBlur stdDeviation="10" result="effect1_foregroundBlur_3962_10154"/>
</filter>
<clipPath id="clip0_3962_10154">
<rect width="726" height="440" fill="white"/>
</clipPath>
<clipPath id="clip1_3962_10154">
<rect width="1267" height="935" fill="white" transform="matrix(0.866025 0.5 -0.866025 0.5 186.734 -368)"/>
</clipPath>
<clipPath id="clip2_3962_10154">
<rect width="26" height="26" fill="white" transform="matrix(0.866025 0.5 -0.866025 0.5 574.715 299)"/>
</clipPath>
</defs>
</svg>
