<svg width="600" height="500" viewBox="0 0 600 500" fill="none" xmlns="http://www.w3.org/2000/svg">
<circle cx="258" cy="249" r="151" stroke="#E0E5EB" stroke-width="2"/>
<circle cx="470" cy="249" r="128" stroke="white" stroke-width="4"/>
<rect x="578" y="249" width="140" height="10" rx="5" transform="rotate(90 578 249)" fill="#FFBF00"/>
<rect x="558" y="249" width="115" height="10" rx="5" transform="rotate(90 558 249)" fill="#FFBF00"/>
<circle cx="258" cy="249" r="204" stroke="#D1D7E0" stroke-width="3" stroke-linecap="round" stroke-linejoin="round" stroke-dasharray="0.01 10"/>
<circle cx="258" cy="249" r="180" stroke="white" stroke-width="4"/>
<circle cx="470" cy="249" r="103" fill="#FFF9E6" stroke="#FFBF00" stroke-width="10"/>
<path d="M490.11 254.259C489.209 253.49 488.107 252.994 486.934 252.829C487.828 252.558 488.656 252.103 489.364 251.494C489.95 250.952 490.41 250.289 490.712 249.55C491.014 248.811 491.15 248.015 491.111 247.218C491.111 243.244 488.252 240.859 483.409 240.859H471.437C471.437 240.859 471.437 243.498 471.437 245.103V254.545C470.546 255.878 469.513 257.109 468.356 258.217C466.407 260.13 463.985 261.491 461.338 262.159C460.143 262.446 458.897 262.446 457.701 262.159C456.671 261.91 455.73 261.38 454.982 260.628C454.233 259.876 453.707 258.932 453.462 257.899C453.367 257.629 453.462 257.597 453.684 257.534C453.906 257.47 454.542 257.391 454.97 257.28C457.177 256.768 459.263 255.834 461.115 254.53C462.345 253.662 463.418 252.592 464.291 251.366C464.833 250.659 465.207 249.839 465.387 248.966C465.542 248.239 465.494 247.483 465.247 246.782C465 246.081 464.565 245.462 463.989 244.992C462.98 244.144 461.703 243.682 460.385 243.689C459.064 243.67 457.76 243.982 456.59 244.595C454.788 245.506 453.235 246.843 452.064 248.489C451.074 249.819 450.371 251.34 450 252.956C449.667 254.603 449.667 256.3 450 257.947C450.133 258.59 450.33 259.219 450.588 259.823C451.167 261.309 452.132 262.613 453.382 263.602C454.633 264.591 456.123 265.229 457.701 265.45C459.29 265.706 460.916 265.614 462.465 265.18C465.365 264.432 468.003 262.898 470.087 260.745C470.606 260.135 471.079 259.487 471.5 258.806V261.619C471.5 263.717 471.5 265.959 471.5 265.959H483.838C489.062 265.959 492.127 263.399 492.127 259.076C492.165 258.174 492.005 257.275 491.656 256.442C491.307 255.609 490.78 254.864 490.11 254.259ZM453.176 254.625C453.273 253.79 453.498 252.975 453.843 252.209C454.666 250.247 456.068 248.584 457.86 247.44C458.523 247.01 459.27 246.728 460.052 246.614H460.623C461.12 246.617 461.61 246.736 462.052 246.963C462.417 247.142 462.7 247.455 462.842 247.836C462.984 248.218 462.974 248.639 462.814 249.014C462.665 249.414 462.456 249.789 462.195 250.126C461.353 251.22 460.32 252.152 459.146 252.876C457.581 253.859 455.848 254.544 454.033 254.895L453.478 254.991C453.208 254.991 453.144 254.991 453.176 254.673V254.625ZM477.296 245.835H482.52C484.235 245.835 485.156 246.677 485.156 248.14C485.17 248.474 485.111 248.807 484.984 249.116C484.857 249.425 484.665 249.703 484.42 249.931C484.176 250.159 483.885 250.331 483.568 250.436C483.251 250.541 482.916 250.577 482.584 250.54H477.296V245.835ZM482.822 260.936H477.296V255.34H482.79C483.182 255.298 483.579 255.34 483.954 255.461C484.329 255.583 484.674 255.782 484.967 256.046C485.261 256.309 485.495 256.632 485.655 256.993C485.816 257.353 485.899 257.743 485.899 258.138C485.899 258.533 485.816 258.923 485.655 259.283C485.495 259.644 485.261 259.966 484.967 260.23C484.674 260.494 484.329 260.693 483.954 260.815C483.579 260.936 483.182 260.977 482.79 260.936H482.822Z" fill="black"/>
<path d="M506.05 240.908H495.332C495.332 240.908 495.332 243.579 495.332 245.2V261.445C495.332 263.21 495.332 265.896 495.332 265.896H501.287V257.503H506.05C511.862 257.503 515.292 254.324 515.292 248.983C515.292 243.642 511.925 240.908 506.05 240.908ZM505.749 252.401H501.287V246.043H505.749C506.188 245.974 506.638 246.008 507.062 246.141C507.487 246.274 507.875 246.504 508.197 246.811C508.519 247.118 508.767 247.495 508.92 247.913C509.074 248.331 509.13 248.779 509.083 249.222C509.109 249.66 509.039 250.098 508.878 250.506C508.717 250.914 508.469 251.282 508.152 251.585C507.835 251.888 507.455 252.117 507.04 252.258C506.625 252.399 506.184 252.448 505.749 252.401Z" fill="black"/>
<path d="M530.98 246.186H535.998V240.908H518.277V265.896H524.216V256.247H534.633V251.113H524.153V246.186H530.98Z" fill="black"/>
<path d="M430.016 265.407C428.882 263.334 428.272 261.014 428.239 258.651C428.206 256.288 428.75 253.952 429.825 251.848L428.348 249.797L425.967 248.971C424.252 250.597 422.167 251.779 419.892 252.413C417.617 253.048 415.221 253.116 412.914 252.611C410.755 258.174 410.691 261.401 415.582 266.917C422.203 270.017 425.268 269.031 430.016 265.407Z" fill="#FFE100"/>
<path d="M427.207 242.796C425.619 240.794 416.314 238.028 409.089 240.539C399.641 243.718 409.28 254.48 418.728 252.715C424.746 251.587 429.922 246.246 427.207 242.796Z" fill="#D9F1FD"/>
<path d="M416.655 245.154L416.258 244.455C415.898 244.665 415.572 244.927 415.289 245.234C414.352 245.313 413.419 245.44 412.495 245.615V245.457C411.688 245.015 410.979 244.414 410.411 243.69C409.843 242.966 409.428 242.134 409.192 241.244L408.382 241.451L407.556 241.673C408.043 243.399 409.013 244.949 410.351 246.14C408.825 246.586 407.359 247.216 405.984 248.016L406.842 249.494C409.035 248.23 411.46 247.42 413.971 247.11C413.176 248.916 412.911 250.912 413.209 252.864L414.892 252.673C414.527 250.672 414.942 248.607 416.052 246.903C419.445 246.731 422.844 247.106 426.119 248.016L426.627 246.426C423.371 245.499 419.991 245.081 416.607 245.186L416.655 245.154Z" fill="#00AEEF"/>
<path d="M435.401 248.922C437.767 249.876 442.96 258.062 442.658 265.692C442.277 275.659 429.256 269.443 428.288 259.874C427.668 253.77 431.32 247.285 435.401 248.922Z" fill="#D9F1FD"/>
<path d="M442.06 267.438V265.754C441.14 265.777 440.225 265.613 439.371 265.272C438.517 264.93 437.741 264.418 437.09 263.767L436.947 263.862C436.865 262.922 436.727 261.988 436.534 261.064C436.739 260.703 436.899 260.319 437.011 259.92L436.233 259.729C435.378 256.452 434.023 253.326 432.215 250.462L430.802 251.4C432.595 254.292 433.914 257.453 434.708 260.762C433.386 262.307 431.522 263.286 429.5 263.496L429.786 265.086C431.748 264.831 433.595 264.014 435.105 262.733C435.505 265.233 435.414 267.787 434.835 270.252L436.423 270.665C436.808 269.105 436.999 267.504 436.995 265.897C438.475 266.824 440.187 267.315 441.933 267.311L442.06 267.438Z" fill="#00AEEF"/>
<path d="M448.302 236.139C448.184 236.023 448.044 235.931 447.889 235.869C447.728 235.831 447.559 235.831 447.397 235.869C447.229 235.87 447.062 235.902 446.905 235.965C446.754 236.03 446.618 236.128 446.508 236.251C444.65 238.179 442.213 239.446 439.569 239.859C438.938 239.073 438.213 238.369 437.409 237.761C436.358 236.983 435.189 236.377 433.948 235.965C433.486 233.197 433.996 230.354 435.393 227.921C435.467 227.77 435.52 227.61 435.552 227.445C435.584 227.282 435.584 227.114 435.552 226.952C435.514 226.788 435.437 226.635 435.329 226.507C435.23 226.367 435.099 226.253 434.948 226.173C434.801 226.092 434.639 226.043 434.472 226.03C434.31 225.99 434.141 225.99 433.98 226.03C433.818 226.072 433.666 226.148 433.535 226.252C433.404 226.356 433.296 226.486 433.217 226.634C431.692 229.296 431.042 232.371 431.36 235.424C430.01 235.283 428.646 235.484 427.395 236.009C426.143 236.534 425.044 237.366 424.198 238.428C423.946 238.775 423.723 239.142 423.531 239.525C418.727 238.012 413.581 237.962 408.748 239.382C405.112 240.622 403.397 243.165 404.191 246.185C404.905 248.951 407.684 251.669 411.241 253.132C410.245 255.184 409.919 257.498 410.309 259.746C410.7 261.994 411.787 264.062 413.416 265.658L412.4 271.221L417.466 268.694C419.124 269.579 420.97 270.053 422.848 270.077C423.477 270.074 424.104 270.016 424.722 269.902C426.718 269.525 428.571 268.6 430.073 267.231C431.07 268.581 432.341 269.704 433.802 270.526C435.264 271.348 436.883 271.85 438.553 272H438.743C441.919 271.905 443.84 269.552 443.983 265.642C443.985 260.586 442.481 255.644 439.664 251.447C439.979 251.162 440.266 250.848 440.522 250.509C441.209 249.555 441.673 248.458 441.88 247.299C442.086 246.141 442.029 244.95 441.713 243.817C441.55 243.19 441.332 242.578 441.062 241.989C443.853 241.357 446.398 239.92 448.382 237.856C448.498 237.736 448.589 237.594 448.649 237.439C448.709 237.283 448.737 237.117 448.731 236.95C448.731 236.781 448.697 236.614 448.631 236.459C448.566 236.303 448.47 236.162 448.35 236.044L448.302 236.139ZM432.106 250.954C433.362 253.159 434.389 255.486 435.17 257.901C434.849 259.036 434.231 260.064 433.379 260.88C432.528 261.696 431.474 262.27 430.327 262.542C429.946 261.656 429.695 260.719 429.581 259.76C429.383 258.198 429.505 256.611 429.939 255.097C430.373 253.583 431.11 252.174 432.106 250.954ZM428.343 252.035C427.425 254.029 426.949 256.198 426.945 258.393C425.452 258.571 423.95 258.148 422.769 257.217C422.169 256.791 421.659 256.25 421.269 255.625C420.879 255 420.617 254.304 420.498 253.577C422.615 252.942 424.57 251.858 426.231 250.398C426.871 251.007 427.58 251.541 428.343 251.987V252.035ZM418.688 245.534C421.215 245.642 423.726 245.999 426.183 246.599C425.304 247.905 424.167 249.017 422.843 249.867C421.518 250.717 420.034 251.287 418.482 251.542C417.529 251.72 416.556 251.762 415.592 251.669C415.524 250.471 415.783 249.277 416.343 248.215C416.902 247.154 417.741 246.265 418.768 245.645L418.688 245.534ZM415.512 240.86C420.705 240.86 425.484 242.593 426.262 243.594C426.471 243.855 426.617 244.159 426.691 244.485C426.77 244.808 426.77 245.146 426.691 245.47C424.528 244.941 422.323 244.6 420.101 244.453C417.763 244.296 415.414 244.403 413.099 244.771C411.77 244.103 410.731 242.972 410.177 241.592C411.923 241.1 413.73 240.86 415.544 240.876L415.512 240.86ZM406.652 245.502C406.239 243.912 407.065 242.752 409.066 241.957C409.578 243.193 410.385 244.285 411.416 245.136C409.934 245.496 408.501 246.029 407.144 246.726C406.928 246.369 406.763 245.984 406.652 245.581V245.502ZM407.795 247.568C410.664 246.244 413.783 245.55 416.942 245.534C416.155 246.297 415.534 247.215 415.118 248.23C414.703 249.245 414.502 250.335 414.528 251.431C411.9 250.937 409.514 249.578 407.748 247.568H407.795ZM424.23 267.263C422.915 267.454 421.574 267.367 420.294 267.009C419.014 266.65 417.824 266.028 416.799 265.181C413.385 262.622 411.289 258.25 413.623 253.784C414.02 253.879 414.433 253.943 414.846 254.006C415.032 255.533 415.53 257.005 416.308 258.332C417.087 259.658 418.129 260.81 419.371 261.716C421.362 263.23 423.793 264.051 426.294 264.052C426.89 264.052 427.485 264.004 428.073 263.909C428.231 264.275 428.406 264.624 428.597 264.974C427.391 266.15 425.867 266.946 424.214 267.263H424.23ZM436.298 268.98C433.892 267.831 431.949 265.897 430.788 263.496C431.828 263.206 432.798 262.707 433.639 262.029C434.48 261.352 435.174 260.509 435.679 259.554C436.558 262.637 436.769 265.872 436.298 269.043V268.98ZM438.616 269.425C438.206 269.428 437.796 269.391 437.394 269.314C437.658 267.803 437.748 266.267 437.663 264.736C438.764 265.481 440.027 265.95 441.347 266.103C441.141 268.249 440.22 269.377 438.616 269.425ZM441.395 264.958C439.918 264.815 438.542 264.144 437.521 263.067C437.223 260.731 436.658 258.438 435.837 256.232C435.08 254.136 434.134 252.115 433.011 250.191C433.299 250.021 433.622 249.92 433.955 249.895C434.288 249.87 434.623 249.923 434.932 250.048C436.52 250.684 441.379 257.853 441.395 264.958Z" fill="black"/>
<circle cx="258" cy="249" r="130" fill="white" stroke="#0073E6" stroke-width="12"/>
<path d="M268.55 230.614H247.279L236.598 249.187L247.23 267.569H268.546L279.179 249.187L268.55 230.614ZM265.712 262.529H250.058L242.263 249.137L250.064 235.605H265.719L273.52 249.137L265.712 262.529Z" fill="#141A1F"/>
<path d="M242.258 249.182L250.059 262.528H265.714L273.564 249.182L265.714 235.463H250.059L242.258 249.182Z" fill="#E83030"/>
<path d="M268.55 270.095H247.279L236.598 288.618L247.23 307H268.546L279.179 288.618L268.55 270.095ZM265.712 302.151H250.058L242.263 288.759L250.064 275.226H265.719L273.52 288.759L265.712 302.151Z" fill="#141A1F"/>
<path d="M242.258 288.613L250.059 302.146H265.714L273.564 288.613L265.714 275.08H250.059L242.258 288.613Z" fill="#6B91C7"/>
<path d="M268.55 191H247.279L236.598 209.572L247.279 227.955H268.595L279.228 209.572L268.55 191ZM265.712 222.915H250.058L242.263 209.523L250.064 195.853H265.719L273.52 209.386L265.712 222.915Z" fill="#141A1F"/>
<path d="M242.258 209.571L250.059 222.917H265.714L273.564 209.571L265.714 195.852H250.059L242.258 209.571Z" fill="#F9C31F"/>
<path d="M303.155 250.493H282.054L271.422 269.066L282.054 287.448H303.371L314.003 269.066L303.155 250.493ZM300.318 282.487H284.663L276.862 269.095L284.663 255.562H300.318L308.119 269.095L300.318 282.487Z" fill="#141A1F"/>
<path d="M276.824 269.126L284.738 282.518H300.349L308.34 269.126L300.349 255.406H284.738L276.824 269.126Z" fill="#795AA5"/>
<path d="M303.155 210.876H282.054L271.422 229.258L282.054 247.641H303.371L314.003 229.258L303.155 210.876ZM300.318 242.837H284.663L276.862 229.445L284.663 215.912H300.318L308.119 229.445L300.318 242.837Z" fill="#141A1F"/>
<path d="M276.824 229.456L284.612 243.028H300.35L308.34 229.637L300.35 215.917L284.612 215.917L276.824 229.456Z" fill="#F17423"/>
<path d="M233.766 250.493H212.632L202 269.066L212.632 287.448H233.949L244.581 269.066L233.766 250.493ZM230.929 282.457H215.463L207.662 269.066L215.463 255.533H231.118L238.919 269.066L230.929 282.457Z" fill="#141A1F"/>
<path d="M207.664 269.06L215.465 282.452H230.931L238.921 269.06L230.931 255.341H215.465L207.664 269.06Z" fill="#97C639"/>
<path d="M233.766 210.876H212.632L202 229.258L212.632 247.641H233.949L244.581 229.258L233.766 210.876ZM230.929 242.84H215.463L207.662 229.448L215.463 215.916H231.118L238.919 229.448L230.929 242.84Z" fill="#141A1F"/>
<path d="M207.664 229.443L215.465 242.835H230.931L238.921 229.443L230.931 215.724H215.465L207.664 229.443Z" fill="#C9DB70"/>
<g filter="url(#filter0_d_4104_11625)">
<circle cx="297" cy="49" r="42" fill="white"/>
</g>
<path d="M285.499 48.5671C285.499 49.2338 285.572 49.7744 285.7 50.1709C285.847 50.5673 286.03 50.9998 286.286 51.4683C286.377 51.6125 286.414 51.7566 286.414 51.8828C286.414 52.063 286.304 52.2432 286.066 52.4234L284.914 53.1802C284.749 53.2884 284.585 53.3424 284.438 53.3424C284.255 53.3424 284.072 53.2523 283.889 53.0901C283.633 52.8198 283.414 52.5315 283.231 52.2432C283.048 51.9368 282.865 51.5945 282.664 51.18C281.237 52.8379 279.444 53.6668 277.286 53.6668C275.749 53.6668 274.523 53.2343 273.627 52.3693C272.731 51.5044 272.273 50.3511 272.273 48.9094C272.273 47.3777 272.822 46.1343 273.938 45.1973C275.054 44.2602 276.536 43.7917 278.42 43.7917C279.042 43.7917 279.682 43.8457 280.359 43.9358C281.036 44.0259 281.731 44.1701 282.463 44.3323V43.0168C282.463 41.6473 282.17 40.6922 281.603 40.1336C281.017 39.5749 280.03 39.3046 278.621 39.3046C277.981 39.3046 277.322 39.3767 276.645 39.5389C275.969 39.7011 275.31 39.8993 274.67 40.1516C274.377 40.2777 274.158 40.3498 274.03 40.3858C273.901 40.4219 273.81 40.4399 273.737 40.4399C273.481 40.4399 273.353 40.2597 273.353 39.8813V38.9983C273.353 38.71 273.389 38.4937 273.481 38.3676C273.572 38.2414 273.737 38.1153 273.993 37.9891C274.633 37.6648 275.402 37.3945 276.298 37.1782C277.194 36.944 278.145 36.8358 279.152 36.8358C281.328 36.8358 282.92 37.3224 283.944 38.2955C284.95 39.2686 285.463 40.7462 285.463 42.7285V48.5671H285.499ZM278.072 51.3061C278.676 51.3061 279.298 51.198 279.956 50.9818C280.615 50.7655 281.2 50.3691 281.694 49.8285C281.987 49.4861 282.206 49.1077 282.316 48.6752C282.426 48.2427 282.499 47.7201 282.499 47.1074V46.3506C281.969 46.2244 281.402 46.1163 280.816 46.0442C280.231 45.9721 279.664 45.9361 279.097 45.9361C277.871 45.9361 276.975 46.1704 276.371 46.6569C275.767 47.1435 275.475 47.8282 275.475 48.7292C275.475 49.5762 275.694 50.2069 276.152 50.6394C276.591 51.0899 277.231 51.3061 278.072 51.3061ZM292.761 53.2523C292.432 53.2523 292.213 53.1983 292.066 53.0721C291.92 52.964 291.792 52.7117 291.682 52.3693L287.383 38.4397C287.274 38.0792 287.219 37.845 287.219 37.7188C287.219 37.4305 287.365 37.2683 287.658 37.2683H289.45C289.798 37.2683 290.036 37.3224 290.164 37.4485C290.31 37.5567 290.42 37.8089 290.53 38.1513L293.603 50.0808L296.457 38.1513C296.548 37.7909 296.658 37.5567 296.804 37.4485C296.95 37.3404 297.207 37.2683 297.536 37.2683H298.999C299.347 37.2683 299.585 37.3224 299.731 37.4485C299.877 37.5567 300.005 37.8089 300.079 38.1513L302.969 50.2249L306.133 38.1513C306.243 37.7909 306.371 37.5567 306.499 37.4485C306.646 37.3404 306.883 37.2683 307.213 37.2683H308.914C309.207 37.2683 309.371 37.4125 309.371 37.7188C309.371 37.8089 309.353 37.899 309.335 38.0072C309.316 38.1153 309.28 38.2594 309.207 38.4577L304.798 52.3874C304.688 52.7478 304.56 52.982 304.414 53.0901C304.268 53.1983 304.03 53.2703 303.719 53.2703H302.146C301.798 53.2703 301.56 53.2163 301.414 53.0901C301.268 52.964 301.14 52.7297 301.066 52.3693L298.231 40.7462L295.414 52.3513C295.322 52.7117 295.213 52.946 295.066 53.0721C294.92 53.1983 294.664 53.2523 294.335 53.2523H292.761ZM316.268 53.7389C315.316 53.7389 314.365 53.6308 313.451 53.4145C312.536 53.1983 311.823 52.964 311.347 52.6937C311.054 52.5315 310.853 52.3513 310.78 52.1891C310.707 52.0269 310.67 51.8467 310.67 51.6846V50.7655C310.67 50.3871 310.816 50.2069 311.091 50.2069C311.201 50.2069 311.31 50.2249 311.42 50.261C311.53 50.297 311.694 50.3691 311.877 50.4412C312.499 50.7115 313.176 50.9277 313.89 51.0719C314.621 51.216 315.335 51.2881 316.066 51.2881C317.219 51.2881 318.115 51.0899 318.737 50.6934C319.359 50.297 319.688 49.7204 319.688 48.9815C319.688 48.477 319.524 48.0625 319.195 47.7201C318.865 47.3777 318.243 47.0714 317.347 46.783L314.694 45.9721C313.359 45.5577 312.371 44.945 311.768 44.1341C311.164 43.3412 310.853 42.4582 310.853 41.5211C310.853 40.7643 311.018 40.0975 311.347 39.5209C311.676 38.9442 312.115 38.4397 312.664 38.0432C313.213 37.6287 313.835 37.3224 314.566 37.1061C315.298 36.8899 316.066 36.7998 316.871 36.7998C317.274 36.7998 317.695 36.8178 318.097 36.8719C318.518 36.9259 318.902 36.998 319.286 37.0701C319.652 37.1602 319.999 37.2503 320.329 37.3584C320.658 37.4666 320.914 37.5747 321.097 37.6828C321.353 37.827 321.536 37.9711 321.646 38.1333C321.756 38.2775 321.81 38.4757 321.81 38.728V39.5749C321.81 39.9534 321.664 40.1516 321.39 40.1516C321.243 40.1516 321.006 40.0795 320.695 39.9353C319.652 39.4668 318.481 39.2325 317.182 39.2325C316.14 39.2325 315.316 39.3947 314.749 39.7371C314.182 40.0795 313.89 40.6021 313.89 41.3409C313.89 41.8455 314.073 42.278 314.438 42.6204C314.804 42.9627 315.481 43.3051 316.451 43.6115L319.048 44.4224C320.365 44.8369 321.316 45.4135 321.884 46.1523C322.451 46.8912 322.725 47.7381 322.725 48.6752C322.725 49.45 322.56 50.1528 322.249 50.7655C321.92 51.3782 321.481 51.9188 320.914 52.3513C320.347 52.8018 319.67 53.1262 318.884 53.3605C318.06 53.6127 317.201 53.7389 316.268 53.7389Z" fill="#252F3E"/>
<path fill-rule="evenodd" clip-rule="evenodd" d="M319.726 62.4965C313.707 66.8755 304.963 69.2001 297.445 69.2001C286.908 69.2001 277.414 65.3618 270.244 58.9826C269.677 58.478 270.189 57.7932 270.866 58.1897C278.622 62.6227 288.189 65.3077 298.085 65.3077C304.762 65.3077 312.098 63.9382 318.848 61.127C319.854 60.6765 320.714 61.7757 319.726 62.4965Z" fill="#FF9900"/>
<path fill-rule="evenodd" clip-rule="evenodd" d="M322.231 59.6894C321.462 58.7163 317.145 59.2208 315.188 59.4551C314.602 59.5272 314.511 59.0226 315.041 58.6442C318.48 56.2655 324.133 56.9503 324.791 57.7432C325.45 58.5541 324.609 64.1223 321.389 66.7893C320.895 67.2038 320.42 66.9876 320.639 66.447C321.371 64.6629 322.999 60.6444 322.231 59.6894Z" fill="#FF9900"/>
<g filter="url(#filter1_d_4104_11625)">
<circle cx="297" cy="449" r="42" fill="white"/>
</g>
<path d="M304.431 440.939L308.343 437.046L308.603 435.407C301.475 428.957 290.144 429.689 283.718 436.933C281.933 438.946 280.608 441.454 279.902 444.045L281.303 443.848L289.127 442.564L289.731 441.95C293.211 438.146 299.095 437.635 303.113 440.871L304.431 440.939Z" fill="#EA4335"/>
<path d="M313.912 443.928C313.013 440.633 311.167 437.671 308.6 435.405L303.11 440.869C305.428 442.754 306.749 445.593 306.692 448.572V449.542C309.391 449.542 311.579 451.718 311.579 454.404C311.579 457.089 309.391 459.212 306.692 459.212H296.906L295.945 460.25V466.082L296.906 466.997H306.692C313.712 467.051 319.446 461.488 319.501 454.503C319.534 450.269 317.436 446.3 313.912 443.928Z" fill="#4285F4"/>
<path d="M287.133 466.995H296.905V459.21H287.133C286.437 459.21 285.763 459.061 285.129 458.773L283.743 459.197L279.804 463.089L279.461 464.414C281.67 466.074 284.365 467.007 287.133 466.995Z" fill="#34A853"/>
<path d="M287.133 441.747C280.114 441.789 274.458 447.485 274.5 454.469C274.524 458.37 276.354 462.041 279.461 464.419L285.13 458.778C282.67 457.673 281.577 454.793 282.689 452.345C283.8 449.898 286.694 448.811 289.153 449.916C290.237 450.403 291.104 451.267 291.594 452.345L297.262 446.705C294.851 443.567 291.103 441.733 287.133 441.747Z" fill="#FBBC05"/>
<g filter="url(#filter2_d_4104_11625)">
<circle cx="113" cy="95" r="42" fill="white"/>
</g>
<path d="M110.907 111.704C118.102 110.444 124.044 109.401 124.112 109.387L124.236 109.361L117.444 101.351C113.708 96.9458 110.651 93.3244 110.651 93.3035C110.651 93.264 117.665 74.1165 117.705 74.0483C117.718 74.0256 122.491 82.195 129.275 93.8515C135.626 104.765 140.863 113.762 140.912 113.847L141 114L119.413 113.997L97.8257 113.994L110.907 111.704ZM85 109.261C85 109.25 88.2006 103.742 92.1124 97.0213L99.2249 84.8019L107.514 77.9062C112.072 74.1135 115.815 71.0058 115.83 71.0002C115.845 70.9945 115.785 71.1441 115.696 71.3327C115.608 71.5212 111.558 80.1333 106.696 90.4706L97.8561 109.266L91.4281 109.274C87.8926 109.278 85 109.272 85 109.261Z" fill="#0089D6"/>
<g filter="url(#filter3_d_4104_11625)">
<circle cx="50" cy="249" r="42" fill="white"/>
</g>
<path d="M75.9999 237.245C75.418 236.037 74.7446 234.871 73.9632 233.771L65.6157 236.825C66.5864 237.823 67.4021 238.946 68.0691 240.146L75.9999 237.245ZM39.1001 246.524L30.75 249.578C30.8567 250.924 31.088 252.253 31.412 253.556L39.344 250.653C39.0861 249.305 38.9946 247.915 39.1001 246.524Z" fill="#C22133"/>
<path d="M57.633 234.869C59.3698 235.683 60.8742 236.794 62.1435 238.097L70.491 235.044C68.1786 231.782 65.0289 229.057 61.1702 227.248C49.2359 221.654 34.998 226.862 29.4343 238.856C27.6326 242.736 26.9631 246.858 27.2782 250.85L35.627 247.797C35.7655 245.979 36.2063 244.156 37.0157 242.409C40.6317 234.617 49.8801 231.236 57.633 234.869Z" fill="#DB212E"/>
<path d="M66.5319 250.201C66.3985 252.018 65.9424 253.841 65.1305 255.589C61.5158 263.382 52.2661 266.764 44.5145 263.131C42.7751 262.315 41.2593 261.213 39.9951 259.908L31.6641 262.955C33.9714 266.216 37.1173 268.942 40.9785 270.753C52.9128 276.345 67.1481 271.138 72.7132 259.143C74.5161 255.265 75.1806 251.142 74.8629 247.154L66.5319 250.201Z" fill="#DB212E"/>
<path d="M68.5879 239.957L60.6558 242.858C62.1296 245.512 62.8259 248.567 62.5972 251.639L70.9282 248.593C70.6893 245.589 69.8927 242.655 68.5879 239.957ZM31.9321 253.364L24 256.268C24.728 259.175 25.9922 261.937 27.7304 264.395L36.0601 261.347C33.9218 259.14 32.5 256.348 31.9321 253.364Z" fill="#EB2126"/>
<path d="M74.791 235.034C74.528 234.605 74.2549 234.183 73.9639 233.771L65.6164 236.825C65.9836 237.203 66.3215 237.604 66.6442 238.015L74.791 235.034ZM39.0684 248.209C39.048 247.65 39.0569 247.088 39.1001 246.525L30.75 249.578C30.7932 250.116 30.8605 250.65 30.9406 251.182L39.0683 248.209H39.0684Z" fill="#AD213B"/>
<path d="M74.8617 247.153L66.5306 250.2C66.4429 251.406 66.2092 252.614 65.8267 253.801L74.8947 250.479C74.9595 249.365 74.9493 248.254 74.8617 247.153ZM31.6641 262.955C32.3057 263.863 33.0159 264.729 33.7872 265.546L42.8564 262.222C41.7967 261.555 40.8387 260.778 39.9938 259.907L31.6641 262.955Z" fill="#BA2133"/>
<g filter="url(#filter4_d_4104_11625)">
<circle cx="113" cy="403" r="42" fill="white"/>
</g>
<path d="M135.363 388.343C135.06 387.377 134.333 386.593 133.424 386.11L114.939 377.302C114.454 377.06 113.908 377 113.423 377C112.939 377 112.393 377 111.908 377.121L93.4229 385.99C92.5138 386.412 91.8471 387.196 91.6046 388.222L87.0591 408.072C86.8772 409.097 87.1197 410.123 87.7257 410.968L100.514 426.715C101.241 427.439 102.272 427.921 103.302 427.982H123.666C124.757 428.102 125.787 427.62 126.454 426.715L139.242 410.968C139.848 410.123 140.091 409.097 139.97 408.072L135.363 388.343Z" fill="#326DE6"/>
<path d="M132.517 407.287C132.456 407.287 132.396 407.287 132.396 407.226C132.396 407.166 132.275 407.166 132.153 407.166C131.911 407.106 131.669 407.106 131.426 407.106C131.305 407.106 131.184 407.106 131.062 407.045H131.002C130.335 406.985 129.608 406.864 128.941 406.683C128.759 406.623 128.578 406.442 128.517 406.261C128.578 406.261 128.517 406.261 128.517 406.261L128.032 406.14C128.274 404.391 128.153 402.581 127.79 400.831C127.365 399.081 126.638 397.392 125.668 395.884L126.032 395.522V395.461C126.032 395.28 126.093 395.039 126.214 394.918C126.759 394.436 127.305 394.074 127.911 393.712C128.032 393.651 128.153 393.591 128.275 393.531C128.517 393.41 128.699 393.289 128.941 393.169C129.002 393.108 129.062 393.108 129.123 393.048C129.184 392.988 129.123 392.988 129.123 392.927C129.668 392.505 129.79 391.781 129.365 391.238C129.184 390.997 128.82 390.816 128.517 390.816C128.214 390.816 127.911 390.936 127.668 391.117L127.608 391.178C127.547 391.238 127.487 391.298 127.426 391.298C127.244 391.479 127.062 391.66 126.941 391.841C126.881 391.962 126.759 392.022 126.699 392.083C126.274 392.565 125.729 393.048 125.184 393.41C125.062 393.47 124.941 393.531 124.82 393.531C124.759 393.531 124.638 393.531 124.577 393.47H124.517L124.032 393.772C123.547 393.289 123.002 392.807 122.517 392.324C120.274 390.574 117.486 389.488 114.638 389.187L114.577 388.704V388.764C114.395 388.644 114.335 388.463 114.274 388.282C114.274 387.618 114.274 386.954 114.395 386.23V386.17C114.395 386.049 114.456 385.929 114.456 385.808C114.517 385.567 114.517 385.325 114.577 385.084V384.722C114.638 384.119 114.153 383.515 113.547 383.455C113.183 383.395 112.82 383.576 112.516 383.877C112.274 384.119 112.153 384.42 112.153 384.722V385.024C112.153 385.265 112.213 385.506 112.274 385.748C112.335 385.868 112.335 385.989 112.335 386.11V386.17C112.456 386.834 112.456 387.497 112.456 388.221C112.395 388.402 112.335 388.583 112.153 388.704V388.825L112.092 389.307C111.426 389.368 110.759 389.488 110.032 389.609C107.183 390.212 104.577 391.721 102.577 393.832L102.213 393.591H102.153C102.092 393.591 102.031 393.651 101.91 393.651C101.789 393.651 101.668 393.591 101.546 393.531C101.001 393.108 100.456 392.626 100.031 392.143C99.9706 392.022 99.8494 391.962 99.7888 391.902C99.607 391.721 99.4858 391.54 99.304 391.359C99.2433 391.298 99.1827 391.298 99.1221 391.238C99.0615 391.178 99.0615 391.178 99.0615 391.178C98.8191 390.997 98.5161 390.876 98.213 390.876C97.8494 390.876 97.5463 390.997 97.3645 391.298C97.0009 391.841 97.1221 392.565 97.6069 392.988C97.6675 392.988 97.6675 393.048 97.6675 393.048C97.6675 393.048 97.7888 393.169 97.8494 393.169C98.0312 393.289 98.2736 393.41 98.5161 393.531C98.6373 393.591 98.7585 393.651 98.8797 393.712C99.4858 394.074 100.092 394.436 100.577 394.918C100.698 395.039 100.819 395.28 100.759 395.461V395.401L101.122 395.763C101.062 395.884 101.001 395.944 100.94 396.065C99.0615 399.021 98.2736 402.52 98.8191 405.959L98.3342 406.08C98.3342 406.14 98.2736 406.14 98.2736 406.14C98.213 406.321 98.0312 406.442 97.8494 406.563C97.1827 406.744 96.516 406.864 95.7887 406.925C95.6675 406.925 95.5463 406.925 95.4251 406.985C95.1826 406.985 94.9402 407.045 94.6978 407.045C94.6372 407.045 94.5765 407.106 94.4553 407.106C94.3947 407.106 94.3947 407.106 94.3341 407.166C93.6674 407.287 93.2432 407.89 93.3644 408.554C93.4856 409.097 94.0311 409.459 94.5765 409.398C94.6978 409.398 94.7584 409.398 94.8796 409.338C94.9402 409.338 94.9402 409.338 94.9402 409.278C94.9402 409.217 95.122 409.278 95.1826 409.278C95.4251 409.217 95.6675 409.097 95.8493 409.036C95.9705 408.976 96.0917 408.916 96.213 408.916H96.2736C96.9403 408.674 97.5463 408.493 98.2736 408.373H98.3342C98.5161 408.373 98.6979 408.433 98.8191 408.554C98.8797 408.554 98.8797 408.614 98.8797 408.614L99.4252 408.554C100.334 411.329 102.031 413.803 104.395 415.613C104.94 416.035 105.425 416.397 106.031 416.699L105.728 417.121C105.728 417.181 105.789 417.181 105.789 417.181C105.91 417.362 105.91 417.604 105.85 417.785C105.607 418.388 105.244 418.991 104.88 419.534V419.595C104.819 419.715 104.759 419.776 104.637 419.896C104.516 420.017 104.395 420.258 104.213 420.5C104.153 420.56 104.153 420.62 104.092 420.681C104.092 420.681 104.092 420.741 104.031 420.741C103.728 421.344 103.971 422.068 104.516 422.37C104.637 422.43 104.819 422.491 104.94 422.491C105.425 422.491 105.85 422.189 106.092 421.767C106.092 421.767 106.092 421.706 106.153 421.706C106.153 421.646 106.213 421.586 106.274 421.525C106.334 421.284 106.456 421.103 106.516 420.862L106.638 420.5C106.819 419.836 107.122 419.233 107.425 418.629C107.547 418.448 107.728 418.328 107.91 418.267C107.971 418.267 107.971 418.267 107.971 418.207L108.213 417.724C109.91 418.388 111.668 418.69 113.486 418.69C114.577 418.69 115.668 418.569 116.759 418.267C117.426 418.147 118.092 417.905 118.698 417.724L118.941 418.147C119.002 418.147 119.002 418.147 119.002 418.207C119.183 418.267 119.365 418.388 119.486 418.569C119.789 419.172 120.092 419.776 120.274 420.439V420.5L120.395 420.862C120.456 421.103 120.517 421.344 120.638 421.525C120.699 421.586 120.699 421.646 120.759 421.706C120.759 421.706 120.759 421.767 120.82 421.767C121.062 422.189 121.486 422.491 121.971 422.491C122.153 422.491 122.274 422.43 122.456 422.37C122.699 422.249 122.941 422.008 123.002 421.706C123.062 421.405 123.062 421.103 122.941 420.801C122.941 420.741 122.88 420.741 122.88 420.741C122.88 420.681 122.82 420.62 122.759 420.56C122.638 420.319 122.517 420.138 122.335 419.957C122.274 419.836 122.214 419.776 122.093 419.655V419.534C121.668 418.991 121.365 418.388 121.123 417.785C121.062 417.604 121.062 417.362 121.183 417.181C121.183 417.121 121.244 417.121 121.244 417.121L121.062 416.638C124.153 414.768 126.517 411.872 127.608 408.433L128.093 408.493C128.153 408.493 128.153 408.433 128.153 408.433C128.275 408.312 128.456 408.252 128.638 408.252H128.699C129.365 408.373 130.032 408.554 130.638 408.795H130.699C130.82 408.855 130.941 408.916 131.062 408.916C131.305 409.036 131.487 409.157 131.729 409.217C131.79 409.217 131.85 409.278 131.972 409.278C132.032 409.278 132.032 409.278 132.093 409.338C132.214 409.398 132.275 409.398 132.396 409.398C132.941 409.398 133.426 409.036 133.608 408.554C133.547 407.89 133.063 407.407 132.517 407.287ZM115.001 405.416L113.365 406.201L111.729 405.416L111.304 403.667L112.456 402.219H114.274L115.426 403.667L115.001 405.416ZM124.88 401.495C125.184 402.762 125.244 404.029 125.123 405.296L119.365 403.667C118.82 403.546 118.517 403.003 118.638 402.46C118.698 402.279 118.759 402.158 118.88 402.038L123.426 397.935C124.093 399.021 124.577 400.228 124.88 401.495ZM121.608 395.703L116.638 399.202C116.214 399.443 115.607 399.383 115.304 398.961C115.183 398.84 115.123 398.719 115.123 398.538L114.759 392.445C117.426 392.746 119.789 393.893 121.608 395.703ZM110.638 392.626L111.85 392.384L111.547 398.418C111.547 398.961 111.062 399.383 110.516 399.383C110.335 399.383 110.213 399.323 110.032 399.262L105.001 395.703C106.577 394.194 108.516 393.108 110.638 392.626ZM103.243 397.935L107.728 401.917C108.153 402.279 108.213 402.882 107.85 403.305C107.728 403.486 107.607 403.546 107.365 403.606L101.486 405.296C101.304 402.762 101.91 400.167 103.243 397.935ZM102.213 408.131L108.213 407.106C108.698 407.106 109.183 407.407 109.244 407.89C109.304 408.071 109.304 408.312 109.183 408.493L106.88 414.044C104.759 412.656 103.062 410.545 102.213 408.131ZM115.971 415.613C115.123 415.794 114.274 415.914 113.365 415.914C112.092 415.914 110.759 415.673 109.547 415.311L112.516 409.941C112.82 409.579 113.304 409.459 113.729 409.7C113.91 409.821 114.032 409.941 114.213 410.122L117.123 415.371C116.759 415.432 116.395 415.492 115.971 415.613ZM123.365 410.364C122.456 411.812 121.183 413.079 119.729 413.984L117.365 408.312C117.244 407.83 117.486 407.347 117.911 407.166C118.092 407.106 118.274 407.045 118.456 407.045L124.517 408.071C124.214 408.916 123.85 409.7 123.365 410.364Z" fill="white"/>
<circle cx="199" cy="53" r="5" fill="#EB4748"/>
<circle cx="69" cy="169" r="5" fill="#0073E6"/>
<circle cx="69" cy="326" r="5" fill="#FFBF00"/>
<circle cx="198" cy="444" r="5" fill="#00877C"/>
<defs>
<filter id="filter0_d_4104_11625" x="247" y="0" width="100" height="100" filterUnits="userSpaceOnUse" color-interpolation-filters="sRGB">
<feFlood flood-opacity="0" result="BackgroundImageFix"/>
<feColorMatrix in="SourceAlpha" type="matrix" values="0 0 0 0 0 0 0 0 0 0 0 0 0 0 0 0 0 0 127 0" result="hardAlpha"/>
<feOffset dy="1"/>
<feGaussianBlur stdDeviation="4"/>
<feComposite in2="hardAlpha" operator="out"/>
<feColorMatrix type="matrix" values="0 0 0 0 0.0784314 0 0 0 0 0.101961 0 0 0 0 0.121569 0 0 0 0.2 0"/>
<feBlend mode="normal" in2="BackgroundImageFix" result="effect1_dropShadow_4104_11625"/>
<feBlend mode="normal" in="SourceGraphic" in2="effect1_dropShadow_4104_11625" result="shape"/>
</filter>
<filter id="filter1_d_4104_11625" x="247" y="400" width="100" height="100" filterUnits="userSpaceOnUse" color-interpolation-filters="sRGB">
<feFlood flood-opacity="0" result="BackgroundImageFix"/>
<feColorMatrix in="SourceAlpha" type="matrix" values="0 0 0 0 0 0 0 0 0 0 0 0 0 0 0 0 0 0 127 0" result="hardAlpha"/>
<feOffset dy="1"/>
<feGaussianBlur stdDeviation="4"/>
<feComposite in2="hardAlpha" operator="out"/>
<feColorMatrix type="matrix" values="0 0 0 0 0.0784314 0 0 0 0 0.101961 0 0 0 0 0.121569 0 0 0 0.2 0"/>
<feBlend mode="normal" in2="BackgroundImageFix" result="effect1_dropShadow_4104_11625"/>
<feBlend mode="normal" in="SourceGraphic" in2="effect1_dropShadow_4104_11625" result="shape"/>
</filter>
<filter id="filter2_d_4104_11625" x="63" y="46" width="100" height="100" filterUnits="userSpaceOnUse" color-interpolation-filters="sRGB">
<feFlood flood-opacity="0" result="BackgroundImageFix"/>
<feColorMatrix in="SourceAlpha" type="matrix" values="0 0 0 0 0 0 0 0 0 0 0 0 0 0 0 0 0 0 127 0" result="hardAlpha"/>
<feOffset dy="1"/>
<feGaussianBlur stdDeviation="4"/>
<feComposite in2="hardAlpha" operator="out"/>
<feColorMatrix type="matrix" values="0 0 0 0 0.0784314 0 0 0 0 0.101961 0 0 0 0 0.121569 0 0 0 0.2 0"/>
<feBlend mode="normal" in2="BackgroundImageFix" result="effect1_dropShadow_4104_11625"/>
<feBlend mode="normal" in="SourceGraphic" in2="effect1_dropShadow_4104_11625" result="shape"/>
</filter>
<filter id="filter3_d_4104_11625" x="0" y="200" width="100" height="100" filterUnits="userSpaceOnUse" color-interpolation-filters="sRGB">
<feFlood flood-opacity="0" result="BackgroundImageFix"/>
<feColorMatrix in="SourceAlpha" type="matrix" values="0 0 0 0 0 0 0 0 0 0 0 0 0 0 0 0 0 0 127 0" result="hardAlpha"/>
<feOffset dy="1"/>
<feGaussianBlur stdDeviation="4"/>
<feComposite in2="hardAlpha" operator="out"/>
<feColorMatrix type="matrix" values="0 0 0 0 0.0784314 0 0 0 0 0.101961 0 0 0 0 0.121569 0 0 0 0.2 0"/>
<feBlend mode="normal" in2="BackgroundImageFix" result="effect1_dropShadow_4104_11625"/>
<feBlend mode="normal" in="SourceGraphic" in2="effect1_dropShadow_4104_11625" result="shape"/>
</filter>
<filter id="filter4_d_4104_11625" x="63" y="354" width="100" height="100" filterUnits="userSpaceOnUse" color-interpolation-filters="sRGB">
<feFlood flood-opacity="0" result="BackgroundImageFix"/>
<feColorMatrix in="SourceAlpha" type="matrix" values="0 0 0 0 0 0 0 0 0 0 0 0 0 0 0 0 0 0 127 0" result="hardAlpha"/>
<feOffset dy="1"/>
<feGaussianBlur stdDeviation="4"/>
<feComposite in2="hardAlpha" operator="out"/>
<feColorMatrix type="matrix" values="0 0 0 0 0.0784314 0 0 0 0 0.101961 0 0 0 0 0.121569 0 0 0 0.2 0"/>
<feBlend mode="normal" in2="BackgroundImageFix" result="effect1_dropShadow_4104_11625"/>
<feBlend mode="normal" in="SourceGraphic" in2="effect1_dropShadow_4104_11625" result="shape"/>
</filter>
</defs>
</svg>
