<svg width="80" height="80" viewBox="0 0 80 80" fill="none" xmlns="http://www.w3.org/2000/svg">
<path d="M13.7974 61.5L39.9251 19.3929L66.1974 61.5H13.7974Z" stroke="#E0E5EB" stroke-width="2"/>
<path d="M21.9766 54.7733C21.48 55.0149 21.2732 55.6133 21.5148 56.11C21.7564 56.6066 22.3548 56.8134 22.8515 56.5718L21.9766 54.7733ZM36.3627 49.9994C36.8594 49.7578 37.0661 49.1594 36.8246 48.6627C36.583 48.1661 35.9845 47.9593 35.4879 48.2009L36.3627 49.9994ZM57.1618 56.58C57.6617 56.8148 58.2573 56.5998 58.492 56.0999C58.7268 55.6 58.5118 55.0045 58.0119 54.7697L57.1618 56.58ZM44.3274 48.3434C43.8275 48.1086 43.2319 48.3236 42.9972 48.8235C42.7624 49.3234 42.9774 49.9189 43.4773 50.1537L44.3274 48.3434ZM38.9975 43.2991C38.9975 43.8514 39.4452 44.2991 39.9975 44.2991C40.5497 44.2991 40.9975 43.8514 40.9975 43.2991L38.9975 43.2991ZM40.9975 29.8125C40.9975 29.2602 40.5498 28.8125 39.9975 28.8125C39.4452 28.8125 38.9975 29.2602 38.9975 29.8125L40.9975 29.8125ZM22.8515 56.5718L36.3627 49.9994L35.4879 48.2009L21.9766 54.7733L22.8515 56.5718ZM58.0119 54.7697L44.3274 48.3434L43.4773 50.1537L57.1618 56.58L58.0119 54.7697ZM40.9975 43.2991L40.9975 29.8125L38.9975 29.8125L38.9975 43.2991L40.9975 43.2991Z" fill="#D1D7E0"/>
<path d="M36.363 49.9983C36.8596 49.7567 37.0664 49.1583 36.8248 48.6617C36.5832 48.165 35.9848 47.9582 35.4881 48.1998L36.363 49.9983ZM44.3276 48.3423C43.8277 48.1075 43.2322 48.3225 42.9974 48.8224C42.7626 49.3223 42.9776 49.9178 43.4775 50.1526L44.3276 48.3423ZM38.9977 43.298C38.9977 43.8503 39.4454 44.298 39.9977 44.298C40.55 44.298 40.9977 43.8503 40.9977 43.298L38.9977 43.298ZM28.7325 51.486C28.2358 51.7276 28.0291 52.3261 28.2707 52.8227C28.5123 53.3193 29.1107 53.5261 29.6074 53.2845L28.7325 51.486ZM40.9977 36.5547C40.9977 36.0024 40.55 35.5547 39.9977 35.5547C39.4454 35.5547 38.9977 36.0024 38.9977 36.5547L40.9977 36.5547ZM50.3198 53.3658C50.8197 53.6005 51.4152 53.3856 51.65 52.8857C51.8848 52.3858 51.6698 51.7902 51.1699 51.5554L50.3198 53.3658ZM29.6074 53.2845L36.363 49.9983L35.4881 48.1998L28.7325 51.486L29.6074 53.2845ZM40.9977 43.298L40.9977 36.5547L38.9977 36.5547L38.9977 43.298L40.9977 43.298ZM51.1699 51.5554L44.3276 48.3423L43.4775 50.1526L50.3198 53.3658L51.1699 51.5554Z" fill="#A7B1BE"/>
<path d="M43.8749 47.5312C43.8749 45.3595 42.1312 43.6132 39.998 43.6132C37.8647 43.6132 36.1211 45.3595 36.1211 47.5312C36.1211 49.703 37.8647 51.4492 39.998 51.4492C42.1312 51.4492 43.8749 49.703 43.8749 47.5312Z" fill="white" stroke="#A7B1BE" stroke-width="2"/>
<path d="M58 64.5225V56.4842C58 56.3177 58.0829 56.1622 58.2211 56.0693L66.2211 50.6914C66.3897 50.578 66.6103 50.578 66.7789 50.6914L74.7789 56.0693C74.9171 56.1622 75 56.3177 75 56.4842V64.5225C75 64.689 74.9171 64.8445 74.7789 64.9374L66.7789 70.3153C66.6103 70.4287 66.3897 70.4287 66.2211 70.3153L58.2211 64.9374C58.0829 64.8445 58 64.689 58 64.5225Z" fill="#FBDADA" stroke="#EB4748" stroke-width="2" stroke-linecap="round" stroke-linejoin="round"/>
<path d="M58 56.2188L66.5 61.412M66.5 61.412L75 56.2188M66.5 61.412V70.5037" stroke="#EB4748" stroke-width="2" stroke-linecap="round" stroke-linejoin="round"/>
<path d="M51.9265 49.7368L52.6771 53.6657L48.7506 54.429" stroke="#A7B1BE" stroke-width="2" stroke-linecap="round" stroke-linejoin="round"/>
<path d="M28.1363 49.4686L27.1168 53.3365L30.9805 54.3718" stroke="#A7B1BE" stroke-width="2" stroke-linecap="round" stroke-linejoin="round"/>
<path d="M42.8284 37.6716L40.0238 34.8195L37.1954 37.6479" stroke="#A7B1BE" stroke-width="2" stroke-linecap="round" stroke-linejoin="round"/>
<path d="M31.498 23.5184V15.4803C31.498 15.3138 31.5809 15.1582 31.7191 15.0653L39.7191 9.68751C39.8878 9.57412 40.1083 9.57412 40.277 9.68751L48.277 15.0653C48.4152 15.1582 48.498 15.3138 48.498 15.4803V23.5184C48.498 23.6849 48.4152 23.8405 48.277 23.9334L40.277 29.3112C40.1083 29.4246 39.8878 29.4246 39.7191 29.3112L31.7191 23.9334C31.5809 23.8405 31.498 23.6849 31.498 23.5184Z" fill="#D6FFFC" stroke="#00877C" stroke-width="2" stroke-linecap="round" stroke-linejoin="round"/>
<path d="M31.498 15.2148L39.998 20.408M39.998 20.408L48.498 15.2148M39.998 20.408V29.4996" stroke="#00877C" stroke-width="2" stroke-linecap="round" stroke-linejoin="round"/>
<path d="M5 64.5186V56.4803C5 56.3138 5.08288 56.1583 5.22105 56.0654L13.2211 50.6875C13.3897 50.5741 13.6103 50.5741 13.7789 50.6875L21.7789 56.0654C21.9171 56.1583 22 56.3138 22 56.4803V64.5186C22 64.6851 21.9171 64.8407 21.7789 64.9335L13.7789 70.3114C13.6103 70.4248 13.3897 70.4248 13.2211 70.3114L5.22105 64.9335C5.08288 64.8407 5 64.6851 5 64.5186Z" fill="#FFF5D6" stroke="#FFBF00" stroke-width="2" stroke-linecap="round" stroke-linejoin="round"/>
<path d="M5 56.2148L13.5 61.4081M13.5 61.4081L22 56.2148M13.5 61.4081V70.4998" stroke="#FFBF00" stroke-width="2" stroke-linecap="round" stroke-linejoin="round"/>
</svg>
