<svg width="80" height="80" viewBox="0 0 80 80" fill="none" xmlns="http://www.w3.org/2000/svg">
<path d="M18 28.1742L40.0089 14.1794L62 27.7019V51.8258L40 65.815L18 51.8258V28.1742Z" stroke="#D1D7E0" stroke-width="2"/>
<path d="M39.1419 27.4075C39.6849 27.1497 40.3151 27.1497 40.8581 27.4075L49.5526 31.5371C50.1038 31.7989 50.5054 32.2982 50.643 32.8927L52.7801 42.1275C52.9189 42.7272 52.7738 43.3573 52.3868 43.8359L46.3859 51.2575C46.0062 51.7271 45.4346 52 44.8307 52H35.1693C34.5654 52 33.9938 51.7271 33.6141 51.2575L27.6132 43.8359C27.2262 43.3573 27.0811 42.7272 27.2199 42.1275L29.357 32.8927C29.4946 32.2982 29.8962 31.7989 30.4474 31.5371L39.1419 27.4075Z" fill="#0080FF"/>
<circle cx="40" cy="40" r="6" stroke="white" stroke-width="2"/>
<path d="M39.9994 40V31M39.9994 40L32.9628 34.3886M39.9994 40L31.2246 42.0031M39.9994 40L36.0957 48.109M40.0006 40L47.0372 34.3886M40.0006 40L48.7754 42.0031M40.0006 40L43.9043 48.109" stroke="white" stroke-width="2" stroke-linecap="round"/>
<circle cx="40" cy="40" r="1" fill="#0080FF"/>
<path d="M39 16C39 16.5523 39.4477 17 40 17C40.5523 17 41 16.5523 41 16H39ZM40 1L40.7266 0.312989C40.5378 0.113202 40.2749 0 40 0C39.7251 0 39.4622 0.113202 39.2734 0.312989L40 1ZM35.2734 4.54376C34.8939 4.94507 34.9117 5.57799 35.313 5.95742C35.7143 6.33684 36.3472 6.3191 36.7266 5.91778L35.2734 4.54376ZM43.2734 5.91778C43.6528 6.3191 44.2857 6.33684 44.687 5.95742C45.0883 5.57799 45.1061 4.94507 44.7266 4.54376L43.2734 5.91778ZM41 16V1H39V16H41ZM39.2734 0.312989L35.2734 4.54376L36.7266 5.91778L40.7266 1.68701L39.2734 0.312989ZM39.2734 1.68701L43.2734 5.91778L44.7266 4.54376L40.7266 0.312989L39.2734 1.68701Z" fill="#0080FF"/>
<path d="M17.5001 29.8668C17.9784 30.1429 18.59 29.979 18.8662 29.5007C19.1423 29.0224 18.9784 28.4109 18.5001 28.1347L17.5001 29.8668ZM5.00977 21.5007L4.77812 20.5279C4.51065 20.5916 4.28121 20.7626 4.14374 21.0007C4.00627 21.2388 3.9729 21.5231 4.05147 21.7865L5.00977 21.5007ZM5.71543 27.366C5.87326 27.8953 6.43026 28.1964 6.95951 28.0385C7.48876 27.8807 7.78985 27.3237 7.63201 26.7944L5.71543 27.366ZM10.9054 21.1248C11.4426 20.9969 11.7745 20.4576 11.6465 19.9204C11.5186 19.3831 10.9793 19.0513 10.4421 19.1792L10.9054 21.1248ZM18.5001 28.1347L5.50977 20.6347L4.50977 22.3668L17.5001 29.8668L18.5001 28.1347ZM4.05147 21.7865L5.71543 27.366L7.63201 26.7944L5.96806 21.215L4.05147 21.7865ZM5.24141 22.4735L10.9054 21.1248L10.4421 19.1792L4.77812 20.5279L5.24141 22.4735Z" fill="#A7B1BE"/>
<path d="M17.5001 50.1332C17.9784 49.8571 18.59 50.021 18.8662 50.4993C19.1423 50.9776 18.9784 51.5891 18.5001 51.8653L17.5001 50.1332ZM5.00977 58.4993L4.77812 59.4721C4.51065 59.4084 4.28121 59.2374 4.14374 58.9993C4.00627 58.7612 3.9729 58.4769 4.05147 58.2135L5.00977 58.4993ZM5.71543 52.634C5.87326 52.1047 6.43026 51.8036 6.95951 51.9615C7.48876 52.1193 7.78985 52.6763 7.63201 53.2056L5.71543 52.634ZM10.9054 58.8752C11.4426 59.0031 11.7745 59.5424 11.6465 60.0796C11.5186 60.6169 10.9793 60.9487 10.4421 60.8208L10.9054 58.8752ZM18.5001 51.8653L5.50977 59.3653L4.50977 57.6332L17.5001 50.1332L18.5001 51.8653ZM4.05147 58.2135L5.71543 52.634L7.63201 53.2056L5.96806 58.785L4.05147 58.2135ZM5.24141 57.5265L10.9054 58.8752L10.4421 60.8208L4.77812 59.4721L5.24141 57.5265Z" fill="#EB4748"/>
<path d="M62.5096 29.8668C62.0313 30.1429 61.4197 29.979 61.1436 29.5007C60.8675 29.0224 61.0313 28.4109 61.5096 28.1347L62.5096 29.8668ZM75 21.5007L75.2316 20.5279C75.4991 20.5916 75.7286 20.7626 75.866 21.0007C76.0035 21.2388 76.0369 21.5231 75.9583 21.7865L75 21.5007ZM74.2943 27.366C74.1365 27.8953 73.5795 28.1964 73.0503 28.0385C72.521 27.8807 72.2199 27.3237 72.3778 26.7944L74.2943 27.366ZM69.1044 21.1248C68.5671 20.9969 68.2353 20.4576 68.3632 19.9204C68.4912 19.3831 69.0304 19.0513 69.5677 19.1792L69.1044 21.1248ZM61.5096 28.1347L74.5 20.6347L75.5 22.3668L62.5096 29.8668L61.5096 28.1347ZM75.9583 21.7865L74.2943 27.366L72.3778 26.7944L74.0417 21.215L75.9583 21.7865ZM74.7684 22.4735L69.1044 21.1248L69.5677 19.1792L75.2316 20.5279L74.7684 22.4735Z" fill="#A7B1BE"/>
<path d="M62.4999 50.1332C62.0216 49.8571 61.41 50.021 61.1338 50.4993C60.8577 50.9776 61.0216 51.5891 61.4999 51.8653L62.4999 50.1332ZM74.9902 58.4993L75.2219 59.4721C75.4893 59.4084 75.7188 59.2374 75.8563 58.9993C75.9937 58.7612 76.0271 58.4769 75.9485 58.2135L74.9902 58.4993ZM74.2846 52.634C74.1267 52.1047 73.5697 51.8036 73.0405 51.9615C72.5112 52.1193 72.2102 52.6763 72.368 53.2056L74.2846 52.634ZM69.0946 58.8752C68.5574 59.0031 68.2255 59.5424 68.3535 60.0796C68.4814 60.6169 69.0207 60.9487 69.5579 60.8208L69.0946 58.8752ZM61.4999 51.8653L74.4902 59.3653L75.4902 57.6332L62.4999 50.1332L61.4999 51.8653ZM75.9485 58.2135L74.2846 52.634L72.368 53.2056L74.0319 58.785L75.9485 58.2135ZM74.7586 57.5265L69.0946 58.8752L69.5579 60.8208L75.2219 59.4721L74.7586 57.5265Z" fill="#FFBF00"/>
<path d="M41 64C41 63.4477 40.5523 63 40 63C39.4477 63 39 63.4477 39 64H41ZM40 79L39.2734 79.687C39.4622 79.8868 39.7251 80 40 80C40.2749 80 40.5378 79.8868 40.7266 79.687L40 79ZM44.7266 75.4562C45.1061 75.0549 45.0883 74.422 44.687 74.0426C44.2857 73.6632 43.6528 73.6809 43.2734 74.0822L44.7266 75.4562ZM36.7266 74.0822C36.3472 73.6809 35.7143 73.6632 35.313 74.0426C34.9117 74.422 34.8939 75.0549 35.2734 75.4562L36.7266 74.0822ZM39 64V79H41V64H39ZM40.7266 79.687L44.7266 75.4562L43.2734 74.0822L39.2734 78.313L40.7266 79.687ZM40.7266 78.313L36.7266 74.0822L35.2734 75.4562L39.2734 79.687L40.7266 78.313Z" fill="#A7B1BE"/>
<circle cx="40" cy="16" r="5" fill="#0080FF"/>
<circle cx="40" cy="64" r="4" fill="white" stroke="#A7B1BE" stroke-width="2"/>
<circle cx="18" cy="29" r="4" fill="white" stroke="#A7B1BE" stroke-width="2"/>
<circle cx="18" cy="51" r="5" fill="#EB4748"/>
<circle cx="62" cy="29" r="4" fill="white" stroke="#A7B1BE" stroke-width="2"/>
<circle cx="62" cy="51" r="5" fill="#FFBF00"/>
</svg>
