<svg width="80" height="80" viewBox="0 0 80 80" fill="none" xmlns="http://www.w3.org/2000/svg">
<path d="M40 20L40 48" stroke="#D1D7E0" stroke-width="2" stroke-linecap="round" stroke-linejoin="round"/>
<path d="M66 40L66 65" stroke="#D1D7E0" stroke-width="2" stroke-linecap="round" stroke-linejoin="round"/>
<path d="M14 40L14 63" stroke="#D1D7E0" stroke-width="2" stroke-linecap="round" stroke-linejoin="round"/>
<path d="M52 15H65C65.5523 15 66 15.4477 66 16V28" stroke="#D1D7E0" stroke-width="2" stroke-linecap="round" stroke-linejoin="round"/>
<path d="M28 15H15C14.4477 15 14 15.4477 14 16L14 28" stroke="#D1D7E0" stroke-width="2" stroke-linecap="round" stroke-linejoin="round"/>
<rect x="56" y="9" width="12" height="32" rx="1" transform="rotate(90 56 9)" fill="#D6EBFF" stroke="#0073E6" stroke-width="2" stroke-linejoin="round"/>
<rect x="25" y="28" width="12" height="22" rx="1" transform="rotate(90 25 28)" stroke="#A7B1BE" stroke-width="2" stroke-linecap="round" stroke-linejoin="round"/>
<rect x="51" y="45" width="12" height="22" rx="1" transform="rotate(90 51 45)" fill="#FFF5D6" stroke="#FFBF00" stroke-width="2" stroke-linejoin="round"/>
<path d="M36 51H44" stroke="#FFBF00" stroke-width="2" stroke-linecap="round" stroke-linejoin="round"/>
<rect x="77" y="28" width="12" height="22" rx="1" transform="rotate(90 77 28)" stroke="#A7B1BE" stroke-width="2" stroke-linecap="round" stroke-linejoin="round"/>
<path d="M10 34H18" stroke="#A7B1BE" stroke-width="2" stroke-linecap="round" stroke-linejoin="round"/>
<path d="M62 34H70" stroke="#A7B1BE" stroke-width="2" stroke-linecap="round" stroke-linejoin="round"/>
<path d="M31 15H49" stroke="#0073E6" stroke-width="2" stroke-linecap="round" stroke-linejoin="round"/>
<circle cx="14" cy="65" r="6" fill="#FBDADA" stroke="#EB4748" stroke-width="2"/>
<circle cx="66" cy="65" r="6" fill="#D6FFFC" stroke="#00877C" stroke-width="2" stroke-linejoin="round"/>
</svg>
