<svg width="80" height="80" viewBox="0 0 80 80" fill="none" xmlns="http://www.w3.org/2000/svg">
<path d="M18.5996 50.0764C21.0027 45.2106 22.2494 39.8495 22.2415 34.416C22.239 31.7755 22.8277 29.1685 23.9639 26.7884C25.1002 24.4083 26.7547 22.3164 28.8046 20.668" stroke="#EB4748" stroke-width="2" stroke-linecap="round" stroke-linejoin="round"/>
<path d="M39.7422 34.4141C39.7559 43.3648 37.4992 52.171 33.1855 59.999" stroke="#A7B1BE" stroke-width="2" stroke-linecap="round" stroke-linejoin="round"/>
<path d="M30.9941 34.4146C30.9941 32.0793 31.9161 29.8397 33.5573 28.1884C35.1984 26.5371 37.4242 25.6094 39.7452 25.6094C42.0661 25.6094 44.2919 26.5371 45.9331 28.1884C47.5742 29.8397 48.4962 32.0793 48.4962 34.4146C48.4997 36.9196 48.3942 39.3541 48.1273 41.6525" stroke="#0080FF" stroke-width="2" stroke-linecap="round" stroke-linejoin="round"/>
<path d="M12 43.2212C12.9919 40.3929 13.4971 37.415 13.4939 34.4158C13.4939 27.4099 16.2598 20.6909 21.1832 15.737C26.1066 10.7831 32.7842 8 39.7469 8C46.7097 8 53.3872 10.7831 58.3106 15.737C63.234 20.6909 66 27.4099 66 34.4158C66.0012 36.9238 65.6446 40.705 65.3655 43.4733" stroke="#D1D7E0" stroke-width="2" stroke-linecap="round" stroke-linejoin="round"/>
<path d="M30.114 43.2227C29.18 47.8514 27.5071 52.2974 25.1602 56.3879" stroke="#00877C" stroke-width="2" stroke-linecap="round" stroke-linejoin="round"/>
<path d="M37.5547 16.9448C40.0181 16.6348 42.5188 16.8553 44.8911 17.5915C47.2634 18.3278 49.4531 19.563 51.3149 21.2154C53.1768 22.8677 54.6683 24.8994 55.6906 27.1758C56.7128 29.4522 57.2425 31.9212 57.2445 34.4191C57.2449 36.0349 57.0206 37.8537 56.7958 39.6092" stroke="#FFBF00" stroke-width="2" stroke-linecap="round" stroke-linejoin="round"/>
<path d="M55.1419 47.4075C55.6849 47.1497 56.3151 47.1497 56.8581 47.4075L65.5526 51.5371C66.1038 51.7989 66.5054 52.2982 66.643 52.8927L68.7801 62.1275C68.9189 62.7272 68.7738 63.3573 68.3868 63.8359L62.3859 71.2575C62.0062 71.7271 61.4346 72 60.8307 72H51.1693C50.5654 72 49.9938 71.7271 49.6141 71.2575L43.6132 63.8359C43.2262 63.3573 43.0811 62.7272 43.2199 62.1275L45.357 52.8927C45.4946 52.2982 45.8962 51.7989 46.4474 51.5371L55.1419 47.4075Z" fill="#0080FF"/>
<circle cx="56" cy="60" r="6" stroke="white" stroke-width="2"/>
<path d="M55.9994 60V51M55.9994 60L48.9628 54.3886M55.9994 60L47.2246 62.0031M55.9994 60L52.0957 68.109M56.0006 60L63.0372 54.3886M56.0006 60L64.7754 62.0031M56.0006 60L59.9043 68.109" stroke="white" stroke-width="2" stroke-linecap="round"/>
<circle cx="56" cy="60" r="1" fill="#0080FF"/>
</svg>
