<svg width="220" height="162" viewBox="0 0 220 162" fill="none" xmlns="http://www.w3.org/2000/svg">
<circle cx="156" cy="81" r="62" stroke="white" stroke-width="2.5"/>
<circle cx="81" cy="81" r="79" stroke="#E0E5EB" stroke-width="2.36585" stroke-linecap="round" stroke-linejoin="round" stroke-dasharray="0.01 7.89"/>
<circle cx="25" cy="25" r="2" fill="#EB4748"/>
<circle cx="25" cy="137" r="2" fill="#FFBF00"/>
<circle cx="2" cy="81" r="2" fill="#00877C"/>
<circle cx="81" cy="81" r="62" fill="#0080FF" fill-opacity="0.06" stroke="#0073E6" stroke-width="1.5"/>
<circle cx="156" cy="81" r="42" fill="#EB4748"/>
<path d="M147 93.9446V68.0554C147 67.3649 147.748 66.9339 148.345 67.2804L170.664 80.225C171.259 80.5702 171.259 81.4298 170.664 81.775L148.345 94.7196C147.748 95.0661 147 94.6351 147 93.9446Z" fill="white"/>
<g filter="url(#filter0_d_1279_5847)">
<circle cx="81" cy="81" r="45" fill="white"/>
</g>
<path d="M85.4425 71.8252H75.6459L70.7266 80.3789L75.6233 88.8451H85.4409L90.3377 80.3789L85.4425 71.8252ZM84.1356 86.524H76.9257L73.3357 80.3563L76.9287 74.1236H84.1386L87.7316 80.3563L84.1356 86.524Z" fill="#141A1F"/>
<path d="M73.3281 80.3783L76.9211 86.5249H84.1311L87.7466 80.3783L84.1311 74.0596H76.9211L73.3281 80.3783Z" fill="#E83030"/>
<path d="M85.4425 90.0088H75.6459L70.7266 98.5399L75.6233 107.006H85.4409L90.3377 98.5399L85.4425 90.0088ZM84.1356 104.773H76.9257L73.3357 98.6047L76.9287 92.3721H84.1386L87.7316 98.6047L84.1356 104.773Z" fill="#141A1F"/>
<path d="M73.3281 98.5384L76.9211 104.771H84.1311L87.7466 98.5384L84.1311 92.3057H76.9211L73.3281 98.5384Z" fill="#6B91C7"/>
<path d="M85.4424 53.582H75.6459L70.7266 62.1357L75.6459 70.6019H85.4635L90.3603 62.1357L85.4424 53.582ZM84.1356 68.2809H76.9257L73.3357 62.1131L76.9287 55.817H84.1386L87.7316 62.0497L84.1356 68.2809Z" fill="#141A1F"/>
<path d="M73.3281 62.1361L76.9211 68.2827H84.1311L87.7466 62.1361L84.1311 55.8174H76.9211L73.3281 62.1361Z" fill="#F9C31F"/>
<path d="M101.385 80.9834H91.6663L86.7695 89.5371L91.6663 98.0033H101.484L106.381 89.5371L101.385 80.9834ZM100.078 95.7185H92.868L89.275 89.5507L92.868 83.318H100.078L103.671 89.5507L100.078 95.7185Z" fill="#141A1F"/>
<path d="M89.2617 89.5638L92.9063 95.7316H100.096L103.777 89.5638L100.096 83.2451H92.9063L89.2617 89.5638Z" fill="#795AA5"/>
<path d="M101.385 62.7363H91.6663L86.7695 71.2025L91.6663 79.6687H101.484L106.381 71.2025L101.385 62.7363ZM100.078 77.4563H92.868L89.275 71.2885L92.868 65.0558H100.078L103.671 71.2885L100.078 77.4563Z" fill="#141A1F"/>
<path d="M89.2617 71.2921L92.8486 77.5431H100.097L103.777 71.3753L100.097 65.0566L92.8486 65.0566L89.2617 71.2921Z" fill="#F17423"/>
<path d="M69.4232 80.9833H59.6898L54.793 89.537L59.6898 98.0032H69.5073L74.4041 89.537L69.4232 80.9833ZM68.1164 95.7048H60.9936L57.4006 89.537L60.9936 83.3043H68.2035L71.7965 89.537L68.1164 95.7048Z" fill="#141A1F"/>
<path d="M57.3945 89.5335L60.9875 95.7013H68.1104L71.7905 89.5335L68.1104 83.2148H60.9875L57.3945 89.5335Z" fill="#97C639"/>
<path d="M69.4232 62.7363H59.6898L54.793 71.2025L59.6898 79.6687H69.5073L74.4041 71.2025L69.4232 62.7363ZM68.1164 77.4578H60.9936L57.4006 71.29L60.9936 65.0574H68.2035L71.7965 71.29L68.1164 77.4578Z" fill="#141A1F"/>
<path d="M57.3945 71.2865L60.9875 77.4543H68.1104L71.7905 71.2865L68.1104 64.9678H60.9875L57.3945 71.2865Z" fill="#C9DB70"/>
<defs>
<filter id="filter0_d_1279_5847" x="28" y="29" width="106" height="106" filterUnits="userSpaceOnUse" color-interpolation-filters="sRGB">
<feFlood flood-opacity="0" result="BackgroundImageFix"/>
<feColorMatrix in="SourceAlpha" type="matrix" values="0 0 0 0 0 0 0 0 0 0 0 0 0 0 0 0 0 0 127 0" result="hardAlpha"/>
<feOffset dy="1"/>
<feGaussianBlur stdDeviation="4"/>
<feComposite in2="hardAlpha" operator="out"/>
<feColorMatrix type="matrix" values="0 0 0 0 0.203 0 0 0 0 0.35 0 0 0 0 0.497 0 0 0 0.16 0"/>
<feBlend mode="normal" in2="BackgroundImageFix" result="effect1_dropShadow_1279_5847"/>
<feBlend mode="normal" in="SourceGraphic" in2="effect1_dropShadow_1279_5847" result="shape"/>
</filter>
</defs>
</svg>
