<svg width="80" height="80" viewBox="0 0 80 80" fill="none" xmlns="http://www.w3.org/2000/svg">
<path d="M33 59L12 59C11.4477 59 11 58.5523 11 58L11 21C11 20.4477 11.4477 20 12 20L33 20" stroke="#D1D7E0" stroke-width="2"/>
<path d="M11 43.5L11 53.5M11 53.5L8 50.6795M11 53.5L14 50.6795" stroke="#0073E6" stroke-width="2" stroke-linecap="round" stroke-linejoin="round"/>
<path d="M11 35.5L11 25.5M11 25.5L8 28.3205M11 25.5L14 28.3205" stroke="#0073E6" stroke-width="2" stroke-linecap="round" stroke-linejoin="round"/>
<circle cx="11" cy="39.5" r="6" fill="#D6EBFF" stroke="#0073E6" stroke-width="2" stroke-linejoin="round"/>
<circle cx="11" cy="39.5" r="1" fill="#D6EBFF" stroke="#0073E6" stroke-width="2" stroke-linejoin="round"/>
<path d="M41.4122 43.0001C45.6196 42.9875 49.6727 44.544 52.7409 47.3507C55.8091 50.1573 57.6601 54.0017 57.9146 58.0959C59.1453 57.6478 60.462 57.4692 61.7714 57.5728C63.0808 57.6764 64.3507 58.0597 65.4912 58.6954C66.6316 59.3311 67.6145 60.2037 68.3703 61.2512C69.126 62.2988 69.636 63.4956 69.864 64.7568C70.0921 66.0181 70.0327 67.3128 69.69 68.5491C69.3472 69.7854 68.7296 70.9331 67.8809 71.9106C67.0322 72.8882 65.9733 73.6717 64.7792 74.2055C63.585 74.7394 62.2851 75.0105 60.9714 74.9997H41.4122C37.0594 74.9997 32.8849 73.314 29.807 70.3135C26.7291 67.3129 25 63.2433 25 58.9999C25 54.7565 26.7291 50.6869 29.807 47.6863C32.8849 44.6858 37.0594 43.0001 41.4122 43.0001Z" stroke="#D1D7E0" stroke-width="2" stroke-linecap="round" stroke-linejoin="round"/>
<path d="M34 54.5007V63.3126C34 65.0735 37.3571 66.4998 41.4996 66.4998C45.6421 66.4998 48.9992 65.0735 48.9992 63.3126V54.5007" fill="#D6FFFC"/>
<path d="M34 54.5007V63.3126C34 65.0735 37.3571 66.4998 41.4996 66.4998C45.6421 66.4998 48.9992 65.0735 48.9992 63.3126V54.5007" stroke="#00877C" stroke-width="2"/>
<path d="M41.4996 57.4995C45.6415 57.4995 48.9992 56.1565 48.9992 54.4998C48.9992 52.843 45.6415 51.5 41.4996 51.5C37.3577 51.5 34 52.843 34 54.4998C34 56.1565 37.3577 57.4995 41.4996 57.4995Z" fill="#D6FFFC" stroke="#00877C" stroke-width="2"/>
<path d="M41.4122 4.00008C45.6196 3.98746 49.6727 5.54397 52.7409 8.35065C55.8091 11.1573 57.6601 15.0017 57.9146 19.0959C59.1453 18.6478 60.462 18.4692 61.7714 18.5728C63.0808 18.6764 64.3507 19.0597 65.4912 19.6954C66.6316 20.3311 67.6145 21.2037 68.3703 22.2512C69.126 23.2988 69.636 24.4956 69.864 25.7568C70.0921 27.0181 70.0327 28.3128 69.69 29.5491C69.3472 30.7854 68.7296 31.9331 67.8809 32.9106C67.0322 33.8882 65.9733 34.6717 64.7792 35.2055C63.585 35.7394 62.2851 36.0105 60.9714 35.9997H41.4122C37.0594 35.9997 32.8849 34.314 29.807 31.3135C26.7291 28.3129 25 24.2433 25 19.9999C25 15.7565 26.7291 11.6869 29.807 8.68631C32.8849 5.68577 37.0594 4.00008 41.4122 4.00008Z" stroke="#D1D7E0" stroke-width="2" stroke-linecap="round" stroke-linejoin="round"/>
<path d="M34 15.5004V24.3127C34 26.0738 37.3573 27.5001 41.5 27.5001C45.6427 27.5001 49 26.0738 49 24.3127V15.5004" fill="#FFF5D6"/>
<path d="M34 15.5004V24.3127C34 26.0738 37.3573 27.5001 41.5 27.5001C45.6427 27.5001 49 26.0738 49 24.3127V15.5004" stroke="#FFBF00" stroke-width="2"/>
<path d="M41.5 18.4999C45.6421 18.4999 49 17.1568 49 15.4999C49 13.8431 45.6421 12.5 41.5 12.5C37.3579 12.5 34 13.8431 34 15.4999C34 17.1568 37.3579 18.4999 41.5 18.4999Z" fill="#FFF5D6" stroke="#FFBF00" stroke-width="2"/>
</svg>
