<svg width="80" height="80" viewBox="0 0 80 80" fill="none" xmlns="http://www.w3.org/2000/svg">
<path d="M70 40.0005L19 9V71L70 40.0005Z" stroke="#E0E5EB" stroke-width="2" stroke-linecap="round"/>
<path d="M58.5594 22.1115C58.837 22.6713 58.837 23.3287 58.5594 23.8885L56.2727 28.5L54.0966 32.8885C53.759 33.5693 53.0647 34 52.3048 34L41.6952 34C40.9353 34 40.241 33.5693 39.9034 32.8885L35.4406 23.8885C35.163 23.3287 35.163 22.6713 35.4406 22.1115L39.9034 13.1115C40.241 12.4307 40.9353 12 41.6952 12L47 12L52.3048 12C53.0647 12 53.759 12.4307 54.0966 13.1115L58.5594 22.1115Z" fill="#D6EBFF"/>
<path d="M47 12L41.6952 12C40.9353 12 40.241 12.4307 39.9034 13.1115L35.4406 22.1115C35.163 22.6713 35.163 23.3287 35.4406 23.8885L39.9034 32.8885C40.241 33.5693 40.9353 34 41.6952 34L52.3048 34C53.0647 34 53.759 33.5693 54.0966 32.8885L56.2727 28.5M47 12L52.3048 12C53.0647 12 53.759 12.4307 54.0966 13.1115L58.5594 22.1115C58.837 22.6713 58.837 23.3287 58.5594 23.8885L56.2727 28.5M47 12L56.2727 28.5" stroke="#0080FF" stroke-width="2" stroke-linejoin="round"/>
<path d="M58.5594 56.1115C58.837 56.6713 58.837 57.3287 58.5594 57.8885L56.2727 62.5L54.0966 66.8885C53.759 67.5693 53.0647 68 52.3048 68L41.6952 68C40.9353 68 40.241 67.5693 39.9034 66.8885L35.4406 57.8885C35.163 57.3287 35.163 56.6713 35.4406 56.1115L39.9034 47.1115C40.241 46.4307 40.9353 46 41.6952 46L47 46L52.3048 46C53.0647 46 53.759 46.4307 54.0966 47.1115L58.5594 56.1115Z" fill="#D6FFFC"/>
<path d="M47 46L41.6952 46C40.9353 46 40.241 46.4307 39.9034 47.1115L35.4406 56.1115C35.163 56.6713 35.163 57.3287 35.4406 57.8885L39.9034 66.8885C40.241 67.5693 40.9353 68 41.6952 68L52.3048 68C53.0647 68 53.759 67.5693 54.0966 66.8885L56.2727 62.5M47 46L52.3048 46C53.0647 46 53.759 46.4307 54.0966 47.1115L58.5594 56.1115C58.837 56.6713 58.837 57.3287 58.5594 57.8885L56.2727 62.5M47 46L56.2727 62.5" stroke="#00877C" stroke-width="2" stroke-linejoin="round"/>
<path d="M29.5594 39.1115C29.837 39.6713 29.837 40.3287 29.5594 40.8885L27.2727 45.5L25.0966 49.8885C24.759 50.5693 24.0647 51 23.3048 51L12.6952 51C11.9353 51 11.241 50.5693 10.9034 49.8885L6.44058 40.8885C6.16299 40.3287 6.16299 39.6713 6.44058 39.1115L10.9034 30.1115C11.241 29.4307 11.9353 29 12.6952 29L18 29L23.3048 29C24.0647 29 24.759 29.4307 25.0966 30.1115L29.5594 39.1115Z" fill="#FBDADA"/>
<path d="M18 29L12.6952 29C11.9353 29 11.241 29.4307 10.9034 30.1115L6.44058 39.1115C6.16299 39.6713 6.16299 40.3287 6.44058 40.8885L10.9034 49.8885C11.241 50.5693 11.9353 51 12.6952 51L23.3048 51C24.0647 51 24.759 50.5693 25.0966 49.8885L27.2727 45.5M18 29L23.3048 29C24.0647 29 24.759 29.4307 25.0966 30.1115L29.5594 39.1115C29.837 39.6713 29.837 40.3287 29.5594 40.8885L27.2727 45.5M18 29L27.2727 45.5" stroke="#EB4748" stroke-width="2" stroke-linejoin="round"/>
<circle cx="19" cy="9" r="4" fill="white" stroke="#A7B1BE" stroke-width="2"/>
<circle cx="19" cy="71" r="4" fill="white" stroke="#A7B1BE" stroke-width="2"/>
<circle cx="70" cy="40" r="4" fill="white" stroke="#A7B1BE" stroke-width="2"/>
</svg>
