<svg width="80" height="80" viewBox="0 0 80 80" fill="none" xmlns="http://www.w3.org/2000/svg">
<path d="M17.5 40L26.5 40" stroke="#D1D7E0" stroke-width="2" stroke-linecap="round"/>
<path d="M26.5 32H14.5V21" stroke="#D1D7E0" stroke-width="2" stroke-linecap="round"/>
<circle r="5" transform="matrix(1 0 0 -1 14.5 19)" fill="#D6FFFC" stroke="#00877C" stroke-width="2"/>
<path d="M26.5 48H14.5V59" stroke="#D1D7E0" stroke-width="2" stroke-linecap="round"/>
<circle r="5" transform="matrix(1 0 0 -1 14.5 61)" fill="#FBDADA" stroke="#EB4748" stroke-width="2"/>
<path d="M53.5 40L63.5 40" stroke="#D1D7E0" stroke-width="2" stroke-linecap="round"/>
<path d="M53.5 32H65.5V21" stroke="#D1D7E0" stroke-width="2" stroke-linecap="round"/>
<path d="M53.5 48H65.5V59" stroke="#D1D7E0" stroke-width="2" stroke-linecap="round"/>
<circle r="5" transform="matrix(1 0 0 -1 65.5 19)" fill="#FBDADA" stroke="#EB4748" stroke-width="2"/>
<circle r="5" transform="matrix(1 0 0 -1 65.5 61)" fill="#FFF5D6" stroke="#FFBF00" stroke-width="2"/>
<path d="M32.5 21.5C32.5 17.3579 35.8579 14 40 14C44.1421 14 47.5 17.3579 47.5 21.5V27H32.5V21.5Z" stroke="#0080FF" stroke-width="2"/>
<rect x="26.5" y="27" width="27" height="26" rx="5" fill="#D6EBFF" stroke="#0080FF" stroke-width="2"/>
<path fill-rule="evenodd" clip-rule="evenodd" d="M39.9961 35C39.1677 35 38.4961 35.6716 38.4961 36.5V39.8644C38.4961 39.8795 38.4963 39.8946 38.4968 39.9096C37.6018 40.3816 37 41.2622 37 42.2706C37 43.777 38.3431 44.9982 40 44.9982C41.6569 44.9982 43 43.777 43 42.2706C43 41.2593 42.3947 40.3766 41.4955 39.9055C41.4959 39.8919 41.4961 39.8781 41.4961 39.8644V36.5C41.4961 35.6716 40.8245 35 39.9961 35Z" fill="#0080FF"/>
</svg>
