<svg width="72" height="72" viewBox="0 0 72 72" fill="none" xmlns="http://www.w3.org/2000/svg">
<path d="M0 32L64 32" stroke="#E0E5EB" stroke-width="2" stroke-linejoin="round"/>
<rect x="1" y="1" width="62" height="62" rx="5" stroke="#E0E5EB" stroke-width="2"/>
<path d="M1 5C1 2.79086 2.79086 1 5 1H5.72596L32 16.5698V47.4302L5.72596 63H5C2.79086 63 1 61.2091 1 59V5Z" stroke="#E0E5EB" stroke-width="2"/>
<path d="M63 5C63 2.79086 61.2091 1 59 1H58.274L32 16.5698V47.4302L58.274 63H59C61.2091 63 63 61.2091 63 59V5Z" stroke="#E0E5EB" stroke-width="2"/>
<circle cx="56" cy="56" r="15" fill="#FFF5D6" stroke="#FFBF00" stroke-width="2"/>
<circle cx="55" cy="55" r="5" stroke="#FFBF00" stroke-width="2"/>
<path d="M59 59L62 62" stroke="#FFBF00" stroke-width="2" stroke-linecap="round"/>
<path d="M32 32.0011H1L19.2208 8.96091L32 16.5011V32.0011Z" stroke="#A7B1BE" stroke-width="2" stroke-linejoin="round"/>
</svg>
