<svg width="73" height="73" viewBox="0 0 73 73" fill="none" xmlns="http://www.w3.org/2000/svg">
<path d="M2 2.00195L16.5002 16.5022M62.0008 62.0028L32.0004 32.0024" stroke="#E0E5EB" stroke-width="2" stroke-linejoin="round"/>
<path d="M62.0039 2.00195L2.00309 62.0028" stroke="#E0E5EB" stroke-width="2" stroke-linejoin="round"/>
<path d="M1 6C1 3.23858 3.23858 1 6 1H58.0009C60.7623 1 63.0009 3.23858 63.0009 6V58.0009C63.0009 60.7623 60.7623 63.0009 58.0009 63.0009H6C3.23858 63.0009 1 60.7623 1 58.0009V6Z" stroke="#E0E5EB" stroke-width="2"/>
<path d="M32.0004 1.00195L5.84931 27.1531C2.74435 30.258 1 34.4693 1 38.8603C1 47.7695 11.7716 52.2312 18.0713 45.9315L32.0004 32.0024V1.00195Z" stroke="#A7B1BE" stroke-width="2" stroke-linejoin="round"/>
<circle cx="56.0002" cy="56.0022" r="15.0002" fill="#D6EBFF" stroke="#0080FF" stroke-width="2"/>
<circle cx="56.0001" cy="56.002" r="3.00005" stroke="#0080FF" stroke-width="2"/>
<path d="M56 53.0001V48" stroke="#0080FF" stroke-width="2" stroke-linecap="round" stroke-linejoin="round"/>
<path d="M58.9999 56H64" stroke="#0080FF" stroke-width="2" stroke-linecap="round" stroke-linejoin="round"/>
<path d="M47.9999 56H53" stroke="#0080FF" stroke-width="2" stroke-linecap="round" stroke-linejoin="round"/>
<path d="M56 64.004V59.0039" stroke="#0080FF" stroke-width="2" stroke-linecap="round" stroke-linejoin="round"/>
</svg>
