<svg width="592" height="444" viewBox="0 0 592 444" fill="none" xmlns="http://www.w3.org/2000/svg">
<path d="M0 55.0716L28.5714 110H101.429L130 55.0716L101.429 0H28.5714L0 55.0716Z" fill="#EB4748"/>
<path d="M279 192.036L293.505 220H330.495L345 192.036L330.495 164H293.505L279 192.036Z" fill="#00877C"/>
<circle cx="312" cy="192" r="14" fill="white"/>
<path fill-rule="evenodd" clip-rule="evenodd" d="M469.995 10.5H470.005C470.833 10.5 471.505 11.1716 471.505 12.0001C471.505 12.8285 470.833 13.5 470.005 13.5H469.995C469.167 13.5 468.495 12.8285 468.495 12.0001C468.495 11.1716 469.167 10.5 469.995 10.5ZM478.419 12.2814C478.486 11.4557 479.21 10.8411 480.036 10.9086L480.046 10.9095C480.872 10.977 481.486 11.7012 481.419 12.5268C481.351 13.3525 480.627 13.967 479.801 13.8995L479.791 13.8987C478.966 13.8311 478.351 13.1071 478.419 12.2814ZM461.581 12.2814C461.649 13.1071 461.034 13.8311 460.209 13.8987L460.199 13.8995C459.373 13.967 458.649 13.3525 458.582 12.5268C458.514 11.7012 459.128 10.977 459.954 10.9095L459.964 10.9086C460.79 10.8411 461.514 11.4557 461.581 12.2814ZM488.276 13.3733C488.411 12.556 489.183 12.0032 490.001 12.1386L490.011 12.1402C490.828 12.2757 491.381 13.048 491.245 13.8653C491.11 14.6826 490.337 15.2353 489.52 15.0999L489.51 15.0983C488.693 14.9629 488.14 14.1906 488.276 13.3733ZM451.724 13.3733C451.86 14.1906 451.307 14.9629 450.49 15.0983L450.48 15.0999C449.663 15.2353 448.89 14.6826 448.755 13.8653C448.619 13.048 449.172 12.2757 449.989 12.1402L449.999 12.1386C450.817 12.0032 451.589 12.556 451.724 13.3733ZM441.991 15.2766C442.194 16.0798 441.707 16.8953 440.904 17.0981L440.894 17.1005C440.091 17.3033 439.276 16.8166 439.073 16.0134C438.87 15.2101 439.357 14.3946 440.16 14.1918L440.17 14.1893C440.973 13.9866 441.788 14.4733 441.991 15.2766ZM498.009 15.2766C498.212 14.4733 499.027 13.9866 499.83 14.1893L499.84 14.1918C500.643 14.3946 501.13 15.2101 500.927 16.0134C500.724 16.8166 499.909 17.3033 499.106 17.1005L499.096 17.0981C498.293 16.8953 497.806 16.0798 498.009 15.2766ZM432.445 17.9837C432.714 18.7672 432.297 19.6204 431.514 19.8894L431.504 19.8926C430.721 20.1615 429.868 19.7444 429.599 18.9609C429.33 18.1773 429.747 17.3241 430.53 17.0551L430.54 17.0518C431.323 16.7829 432.177 17.2001 432.445 17.9837ZM507.555 17.9837C507.823 17.2001 508.677 16.7829 509.46 17.0518L509.47 17.0551C510.253 17.3241 510.67 18.1773 510.401 18.9609C510.132 19.7444 509.279 20.1616 508.496 19.8926L508.486 19.8894C507.703 19.6205 507.286 18.7672 507.555 17.9837ZM423.161 21.4747C423.495 22.2332 423.15 23.1181 422.391 23.4512L422.382 23.4552C421.624 23.7884 420.739 23.4437 420.406 22.6852C420.072 21.9268 420.417 21.0418 421.176 20.7086L421.185 20.7045C421.943 20.3714 422.828 20.7162 423.161 21.4747ZM516.839 21.4747C517.172 20.7162 518.057 20.3714 518.815 20.7045L518.824 20.7086C519.583 21.0418 519.928 21.9268 519.594 22.6852C519.261 23.4437 518.376 23.7884 517.618 23.4552L517.609 23.4513C516.85 23.1181 516.505 22.2332 516.839 21.4747ZM414.2 25.7246C414.595 26.4528 414.325 27.3633 413.597 27.7582L413.588 27.7629C412.86 28.1578 411.949 27.8876 411.554 27.1594C411.159 26.4312 411.429 25.5207 412.158 25.1257L412.167 25.121C412.895 24.7261 413.805 24.9963 414.2 25.7246ZM525.8 25.7246C526.195 24.9963 527.105 24.7261 527.834 25.121L527.842 25.1258C528.571 25.5207 528.841 26.4312 528.446 27.1594C528.051 27.8877 527.14 28.1578 526.412 27.7629L526.404 27.7582C525.675 27.3633 525.405 26.4528 525.8 25.7246ZM405.619 30.7037C406.073 31.3968 405.878 32.3265 405.185 32.7802L405.177 32.7856C404.484 33.2394 403.554 33.0454 403.101 32.3523C402.647 31.6592 402.841 30.7294 403.534 30.2757L403.542 30.2702C404.235 29.8165 405.165 30.0105 405.619 30.7037ZM534.381 30.7037C534.835 30.0106 535.765 29.8165 536.458 30.2702L536.466 30.2757C537.159 30.7295 537.353 31.6592 536.899 32.3523C536.446 33.0454 535.516 33.2394 534.823 32.7856L534.815 32.7802C534.122 32.3265 533.927 31.3968 534.381 30.7037ZM397.479 36.3731C397.988 37.0265 397.871 37.969 397.218 38.4783L397.21 38.4843C396.557 38.9936 395.614 38.8768 395.105 38.2234C394.596 37.5701 394.712 36.6275 395.366 36.1182L395.374 36.112C396.027 35.6028 396.97 35.7197 397.479 36.3731ZM542.521 36.3731C543.03 35.7197 543.973 35.6028 544.626 36.1121L544.634 36.1182C545.288 36.6275 545.404 37.5701 544.895 38.2235C544.386 38.8768 543.443 38.9936 542.79 38.4843L542.782 38.4783C542.129 37.969 542.012 37.0265 542.521 36.3731ZM389.833 42.6928C390.394 43.3021 390.355 44.2511 389.746 44.8123L389.739 44.8189C389.129 45.3802 388.181 45.3412 387.619 44.7319C387.058 44.1225 387.097 43.1736 387.706 42.6123L387.714 42.6055C388.323 42.0443 389.272 42.0834 389.833 42.6928ZM550.167 42.6928C550.728 42.0834 551.677 42.0444 552.286 42.6056L552.294 42.6124C552.903 43.1736 552.942 44.1226 552.381 44.7319C551.819 45.3412 550.871 45.3802 550.261 44.8189L550.254 44.8123C549.645 44.2511 549.606 43.3022 550.167 42.6928ZM382.732 49.6193C383.341 50.1805 383.38 51.1295 382.819 51.7388L382.812 51.746C382.251 52.3554 381.302 52.3944 380.693 51.8332C380.083 51.272 380.044 50.3231 380.606 49.7137L380.612 49.7063C381.174 49.097 382.123 49.058 382.732 49.6193ZM557.268 49.6193C557.877 49.058 558.826 49.097 559.388 49.7063L559.394 49.7137C559.956 50.3231 559.917 51.272 559.307 51.8332C558.698 52.3944 557.749 52.3554 557.188 51.746L557.181 51.7388C556.62 51.1295 556.659 50.1805 557.268 49.6193ZM376.223 57.1049C376.877 57.6143 376.994 58.5568 376.484 59.2102L376.478 59.2179C375.969 59.8713 375.027 59.9882 374.373 59.4789C373.72 58.9697 373.603 58.0271 374.112 57.3737L374.118 57.3658C374.628 56.7124 375.57 56.5956 376.223 57.1049ZM563.777 57.105C564.43 56.5957 565.372 56.7125 565.882 57.3658L565.888 57.3738C566.397 58.0272 566.28 58.9697 565.627 59.479C564.974 59.9882 564.031 59.8713 563.522 59.2179L563.516 59.2102C563.006 58.5568 563.123 57.6143 563.777 57.105ZM370.352 65.1005C371.045 65.5543 371.239 66.484 370.786 67.1771L370.78 67.1853C370.327 67.8784 369.397 68.0725 368.704 67.6188C368.011 67.1651 367.816 66.2354 368.27 65.5422L368.276 65.5338C368.729 64.8407 369.659 64.6467 370.352 65.1005ZM569.648 65.1005C570.341 64.6468 571.271 64.8408 571.724 65.5339L571.73 65.5423C572.184 66.2354 571.989 67.1651 571.296 67.6188C570.603 68.0725 569.673 67.8785 569.22 67.1853L569.214 67.1771C568.761 66.484 568.955 65.5543 569.648 65.1005ZM365.159 73.5542C365.888 73.9492 366.158 74.8597 365.763 75.5879L365.758 75.5965C365.363 76.3248 364.453 76.595 363.725 76.2001C362.996 75.8052 362.726 74.8947 363.121 74.1665L363.126 74.1577C363.521 73.4294 364.431 73.1593 365.159 73.5542ZM574.841 73.5543C575.569 73.1593 576.479 73.4295 576.874 74.1577L576.879 74.1665C577.274 74.8948 577.004 75.8052 576.275 76.2001C575.547 76.595 574.637 76.3248 574.242 75.5965L574.237 75.5879C573.842 74.8597 574.112 73.9492 574.841 73.5543ZM360.685 82.4057C361.444 82.7389 361.788 83.6238 361.455 84.3823L361.451 84.3913C361.118 85.1498 360.233 85.4946 359.475 85.1614C358.716 84.8283 358.371 83.9433 358.705 83.1848L358.709 83.1756C359.042 82.4172 359.927 82.0724 360.685 82.4057ZM579.315 82.4057C580.073 82.0725 580.958 82.4172 581.291 83.1757L581.295 83.1849C581.629 83.9433 581.284 84.8283 580.525 85.1614C579.767 85.4946 578.882 85.1498 578.549 84.3913L578.545 84.3823C578.212 83.6239 578.556 82.7389 579.315 82.4057ZM356.961 91.5986C357.744 91.8676 358.162 92.7208 357.893 93.5043L357.889 93.5136C357.62 94.2972 356.767 94.7144 355.984 94.4454C355.2 94.1765 354.783 93.3233 355.052 92.5397L355.055 92.5302C355.324 91.7467 356.177 91.3296 356.961 91.5986ZM583.039 91.5986C583.823 91.3296 584.676 91.7467 584.945 92.5303L584.948 92.5397C585.217 93.3233 584.8 94.1765 584.016 94.4454C583.233 94.7144 582.38 94.2972 582.111 93.5136L582.107 93.5044C581.838 92.7208 582.256 91.8676 583.039 91.5986ZM354.013 101.073C354.817 101.276 355.303 102.091 355.1 102.894L355.098 102.904C354.895 103.707 354.08 104.194 353.277 103.991C352.473 103.788 351.987 102.973 352.189 102.17L352.192 102.16C352.395 101.357 353.21 100.87 354.013 101.073ZM585.987 101.073C586.79 100.87 587.605 101.357 587.808 102.16L587.811 102.17C588.013 102.973 587.527 103.788 586.723 103.991C585.92 104.194 585.105 103.707 584.902 102.904L584.9 102.894C584.697 102.091 585.183 101.276 585.987 101.073ZM351.865 110.755C352.683 110.89 353.235 111.663 353.1 112.48L353.098 112.49C352.963 113.307 352.191 113.86 351.373 113.724C350.556 113.589 350.003 112.817 350.139 111.999L350.14 111.989C350.276 111.172 351.048 110.619 351.865 110.755ZM588.135 110.755C588.952 110.619 589.724 111.172 589.86 111.989L589.861 111.999C589.997 112.817 589.444 113.589 588.627 113.724C587.809 113.86 587.037 113.307 586.902 112.49L586.9 112.48C586.765 111.663 587.317 110.89 588.135 110.755ZM350.527 120.582C351.352 120.649 351.967 121.373 351.899 122.199L351.899 122.209C351.831 123.034 351.107 123.649 350.281 123.581C349.456 123.514 348.841 122.79 348.909 121.964L348.909 121.954C348.977 121.128 349.701 120.514 350.527 120.582ZM589.473 120.582C590.299 120.514 591.023 121.128 591.091 121.954L591.091 121.964C591.159 122.79 590.544 123.514 589.719 123.581C588.893 123.649 588.169 123.034 588.101 122.209L588.101 122.199C588.033 121.373 588.648 120.649 589.473 120.582ZM590 130.495C590.828 130.495 591.5 131.167 591.5 131.995V132.005C591.5 132.833 590.828 133.505 590 133.505C589.172 133.505 588.5 132.833 588.5 132.005V131.995C588.5 131.167 589.172 130.495 590 130.495ZM350 130.495C350.828 130.495 351.5 131.167 351.5 131.995V132.005C351.5 132.833 350.828 133.505 350 133.505C349.172 133.505 348.5 132.833 348.5 132.005V131.995C348.5 131.167 349.172 130.495 350 130.495ZM589.719 140.419C590.544 140.486 591.159 141.21 591.091 142.036L591.091 142.046C591.023 142.872 590.299 143.486 589.473 143.419C588.648 143.351 588.033 142.627 588.101 141.801L588.101 141.791C588.169 140.966 588.893 140.351 589.719 140.419ZM350.281 140.419C351.107 140.351 351.831 140.966 351.899 141.791L351.899 141.801C351.967 142.627 351.352 143.351 350.527 143.419C349.701 143.486 348.977 142.872 348.909 142.046L348.909 142.036C348.841 141.21 349.456 140.486 350.281 140.419ZM588.627 150.276C589.444 150.411 589.997 151.183 589.861 152.001L589.86 152.011C589.724 152.828 588.952 153.381 588.135 153.245C587.317 153.11 586.765 152.337 586.9 151.52L586.902 151.51C587.037 150.693 587.809 150.14 588.627 150.276ZM351.373 150.276C352.191 150.14 352.963 150.693 353.098 151.51L353.1 151.52C353.235 152.337 352.683 153.11 351.865 153.245C351.048 153.381 350.276 152.828 350.14 152.011L350.139 152.001C350.003 151.183 350.556 150.411 351.373 150.276ZM353.277 160.009C354.08 159.806 354.895 160.293 355.098 161.096L355.1 161.106C355.303 161.909 354.817 162.724 354.013 162.927C353.21 163.13 352.395 162.643 352.192 161.84L352.189 161.83C351.987 161.027 352.473 160.212 353.277 160.009ZM586.723 160.009C587.527 160.212 588.013 161.027 587.811 161.83L587.808 161.84C587.605 162.643 586.79 163.13 585.987 162.927C585.183 162.724 584.697 161.909 584.9 161.106L584.902 161.096C585.105 160.293 585.92 159.806 586.723 160.009ZM355.984 169.555C356.767 169.286 357.62 169.703 357.889 170.486L357.893 170.496C358.162 171.279 357.744 172.132 356.961 172.401C356.177 172.67 355.324 172.253 355.055 171.47L355.052 171.46C354.783 170.677 355.2 169.823 355.984 169.555ZM584.016 169.555C584.8 169.823 585.217 170.677 584.948 171.46L584.945 171.47C584.676 172.253 583.823 172.67 583.039 172.401C582.256 172.132 581.838 171.279 582.107 170.496L582.111 170.486C582.38 169.703 583.233 169.286 584.016 169.555ZM359.475 178.839C360.233 178.505 361.118 178.85 361.451 179.609L361.455 179.618C361.788 180.376 361.444 181.261 360.685 181.594C359.927 181.928 359.042 181.583 358.709 180.824L358.705 180.815C358.371 180.057 358.716 179.172 359.475 178.839ZM580.525 178.839C581.284 179.172 581.629 180.057 581.295 180.815L581.291 180.824C580.958 181.583 580.073 181.928 579.315 181.594C578.556 181.261 578.212 180.376 578.545 179.618L578.549 179.609C578.882 178.85 579.767 178.505 580.525 178.839ZM363.725 187.8C364.453 187.405 365.363 187.675 365.758 188.403L365.763 188.412C366.158 189.14 365.888 190.051 365.159 190.446C364.431 190.841 363.521 190.571 363.126 189.842L363.121 189.833C362.726 189.105 362.996 188.195 363.725 187.8ZM576.275 187.8C577.004 188.195 577.274 189.105 576.879 189.834L576.874 189.842C576.479 190.571 575.569 190.841 574.841 190.446C574.112 190.051 573.842 189.14 574.237 188.412L574.242 188.404C574.637 187.675 575.547 187.405 576.275 187.8ZM368.704 196.381C369.397 195.927 370.327 196.122 370.78 196.815L370.786 196.823C371.239 197.516 371.045 198.446 370.352 198.899C369.659 199.353 368.729 199.159 368.276 198.466L368.27 198.458C367.816 197.765 368.011 196.835 368.704 196.381ZM571.296 196.381C571.989 196.835 572.184 197.765 571.73 198.458L571.724 198.466C571.271 199.159 570.341 199.353 569.648 198.899C568.955 198.446 568.761 197.516 569.214 196.823L569.22 196.815C569.673 196.122 570.603 195.927 571.296 196.381ZM374.373 204.521C375.026 204.012 375.969 204.129 376.478 204.782L376.484 204.79C376.994 205.443 376.877 206.386 376.223 206.895C375.57 207.404 374.628 207.288 374.118 206.634L374.112 206.626C373.603 205.973 373.72 205.03 374.373 204.521ZM565.627 204.521C566.28 205.03 566.397 205.973 565.888 206.626L565.882 206.634C565.372 207.288 564.43 207.404 563.777 206.895C563.123 206.386 563.006 205.443 563.516 204.79L563.522 204.782C564.031 204.129 564.973 204.012 565.627 204.521ZM380.693 212.167C381.302 211.606 382.251 211.645 382.812 212.254L382.819 212.261C383.38 212.871 383.341 213.819 382.732 214.381C382.123 214.942 381.174 214.903 380.612 214.294L380.606 214.286C380.044 213.677 380.083 212.728 380.693 212.167ZM559.307 212.167C559.917 212.728 559.956 213.677 559.394 214.286L559.388 214.294C558.826 214.903 557.877 214.942 557.268 214.381C556.659 213.819 556.62 212.871 557.181 212.261L557.188 212.254C557.749 211.645 558.698 211.606 559.307 212.167ZM387.619 219.268C388.181 218.659 389.129 218.62 389.739 219.181L389.746 219.188C390.355 219.749 390.394 220.698 389.833 221.307C389.272 221.917 388.323 221.956 387.714 221.394L387.706 221.388C387.097 220.826 387.058 219.877 387.619 219.268ZM552.381 219.268C552.942 219.877 552.903 220.826 552.294 221.388L552.286 221.394C551.677 221.956 550.728 221.917 550.167 221.307C549.606 220.698 549.645 219.749 550.254 219.188L550.261 219.181C550.871 218.62 551.819 218.659 552.381 219.268ZM395.105 225.777C395.614 225.123 396.557 225.006 397.21 225.516L397.218 225.522C397.871 226.031 397.988 226.973 397.479 227.627C396.97 228.28 396.027 228.397 395.374 227.888L395.366 227.882C394.712 227.372 394.596 226.43 395.105 225.777ZM544.895 225.777C545.404 226.43 545.288 227.372 544.634 227.882L544.626 227.888C543.973 228.397 543.03 228.28 542.521 227.627C542.012 226.974 542.129 226.031 542.782 225.522L542.79 225.516C543.443 225.006 544.386 225.123 544.895 225.777ZM403.101 231.648C403.554 230.955 404.484 230.761 405.177 231.214L405.185 231.22C405.878 231.673 406.073 232.603 405.619 233.296C405.165 233.989 404.235 234.184 403.542 233.73L403.534 233.724C402.841 233.271 402.647 232.341 403.101 231.648ZM536.899 231.648C537.353 232.341 537.159 233.271 536.466 233.724L536.458 233.73C535.765 234.184 534.835 233.989 534.381 233.296C533.927 232.603 534.122 231.673 534.815 231.22L534.823 231.214C535.516 230.761 536.446 230.955 536.899 231.648ZM411.554 236.841C411.949 236.112 412.86 235.842 413.588 236.237L413.596 236.242C414.325 236.637 414.595 237.547 414.2 238.275C413.805 239.004 412.895 239.274 412.166 238.879L412.158 238.874C411.429 238.479 411.159 237.569 411.554 236.841ZM528.446 236.841C528.841 237.569 528.571 238.479 527.842 238.874L527.833 238.879C527.105 239.274 526.195 239.004 525.8 238.275C525.405 237.547 525.675 236.637 526.403 236.242L526.412 236.237C527.14 235.842 528.051 236.112 528.446 236.841ZM420.406 241.315C420.739 240.556 421.624 240.212 422.382 240.545L422.391 240.549C423.15 240.882 423.495 241.767 423.161 242.525C422.828 243.284 421.943 243.629 421.185 243.295L421.176 243.291C420.417 242.958 420.072 242.073 420.406 241.315ZM519.594 241.315C519.928 242.073 519.583 242.958 518.824 243.291L518.815 243.295C518.057 243.629 517.172 243.284 516.839 242.525C516.505 241.767 516.85 240.882 517.609 240.549L517.618 240.545C518.376 240.212 519.261 240.556 519.594 241.315ZM429.599 245.039C429.868 244.256 430.721 243.838 431.504 244.107L431.514 244.111C432.297 244.38 432.714 245.233 432.445 246.016C432.177 246.8 431.323 247.217 430.54 246.948L430.53 246.945C429.747 246.676 429.33 245.823 429.599 245.039ZM510.401 245.039C510.67 245.823 510.253 246.676 509.47 246.945L509.46 246.948C508.677 247.217 507.823 246.8 507.555 246.016C507.286 245.233 507.703 244.38 508.486 244.111L508.496 244.107C509.279 243.838 510.132 244.256 510.401 245.039ZM439.073 247.987C439.276 247.183 440.091 246.697 440.894 246.9L440.904 246.902C441.707 247.105 442.194 247.92 441.991 248.723C441.788 249.527 440.973 250.013 440.17 249.811L440.16 249.808C439.357 249.605 438.87 248.79 439.073 247.987ZM500.927 247.987C501.13 248.79 500.643 249.605 499.84 249.808L499.83 249.811C499.027 250.013 498.212 249.527 498.009 248.723C497.806 247.92 498.293 247.105 499.096 246.902L499.106 246.9C499.909 246.697 500.724 247.183 500.927 247.987ZM448.755 250.135C448.89 249.317 449.663 248.765 450.48 248.9L450.49 248.902C451.307 249.037 451.86 249.809 451.724 250.627C451.589 251.444 450.817 251.997 449.999 251.861L449.989 251.86C449.172 251.724 448.619 250.952 448.755 250.135ZM491.245 250.135C491.381 250.952 490.828 251.724 490.011 251.86L490.001 251.861C489.183 251.997 488.411 251.444 488.276 250.627C488.14 249.809 488.693 249.037 489.51 248.902L489.52 248.9C490.337 248.765 491.11 249.317 491.245 250.135ZM458.582 251.473C458.649 250.648 459.373 250.033 460.199 250.101L460.209 250.101C461.034 250.169 461.649 250.893 461.581 251.719C461.514 252.544 460.79 253.159 459.964 253.091L459.954 253.091C459.128 253.023 458.514 252.299 458.582 251.473ZM481.419 251.473C481.486 252.299 480.872 253.023 480.046 253.091L480.036 253.091C479.21 253.159 478.486 252.544 478.419 251.719C478.351 250.893 478.966 250.169 479.791 250.101L479.801 250.101C480.627 250.033 481.351 250.648 481.419 251.473ZM468.495 252C468.495 251.172 469.167 250.5 469.995 250.5H470.005C470.833 250.5 471.505 251.172 471.505 252C471.505 252.828 470.833 253.5 470.005 253.5H469.995C469.167 253.5 468.495 252.828 468.495 252Z" fill="#D1D7E0"/>
<circle cx="295" cy="222" r="98" stroke="white" stroke-width="4"/>
<circle cx="148" cy="132" r="124" stroke="white" stroke-width="4"/>
<circle cx="148" cy="132" r="110" fill="#E0E5EB"/>
<circle cx="331" cy="339" r="93.5" stroke="#FFBF00" stroke-width="3"/>
<circle cx="331" cy="339" r="104" stroke="white" stroke-width="2"/>
<circle cx="470" cy="132" r="88" fill="#E0E5EB"/>
<circle cx="389" cy="221" r="5" fill="#EB4748"/>
<circle cx="518" cy="21.5" r="5" fill="#FFBF00"/>
<circle cx="544" cy="227" r="5" fill="#0073E6"/>
</svg>
