<svg width="158" height="56" viewBox="0 0 158 56" fill="none" xmlns="http://www.w3.org/2000/svg">
<g opacity="0.6">
<path d="M31.7561 19.125H21.6077L16.5117 28.0913L21.5844 36.9659H31.7545L36.8272 28.0913L31.7561 19.125ZM30.4023 34.5329H22.9334L19.2145 28.0676L22.9365 21.5343H30.4055L34.1275 28.0676L30.4023 34.5329Z" fill="#E0E5EB"/>
<path opacity="0.2" d="M19.2031 28.0903L22.9251 34.5335H30.394L34.1394 28.0903L30.394 21.4668H22.9251L19.2031 28.0903Z" fill="#E0E5EB"/>
<path d="M31.7561 38.1836H21.6077L16.5117 47.1262L21.5844 56.0008H31.7545L36.8272 47.1262L31.7561 38.1836ZM30.4023 53.6595H22.9334L19.2145 47.1942L22.9365 40.6609H30.4055L34.1275 47.1942L30.4023 53.6595Z" fill="#E0E5EB"/>
<path opacity="0.2" d="M19.2031 47.1251L22.9251 53.6585H30.394L34.1394 47.1251L30.394 40.5918H22.9251L19.2031 47.1251Z" fill="#E0E5EB"/>
<path d="M31.7561 0H21.6077L16.5117 8.96632L21.6077 17.8409H31.7779L36.8505 8.96632L31.7561 0ZM30.4023 15.4079H22.9334L19.2145 8.94259L22.9365 2.34282H30.4055L34.1275 8.87615L30.4023 15.4079Z" fill="#E0E5EB"/>
<path opacity="0.2" d="M19.2031 8.96529L22.9251 15.4085H30.394L34.1394 8.96529L30.394 2.3418H22.9251L19.2031 8.96529Z" fill="#E0E5EB"/>
<path d="M48.2651 28.7227H38.1976L33.125 37.689L38.1976 46.5635H48.3678L53.4404 37.689L48.2651 28.7227ZM46.9114 44.1685H39.4425L35.7204 37.7032L39.4425 31.1699H46.9114L50.6334 37.7032L46.9114 44.1685Z" fill="#E0E5EB"/>
<path opacity="0.2" d="M35.6953 37.7192L39.4708 44.1845H46.9191L50.7314 37.7192L46.9191 31.0957H39.4708L35.6953 37.7192Z" fill="#E0E5EB"/>
<path d="M48.2651 9.5957H38.1976L33.125 18.4703L38.1976 27.3448H48.3678L53.4404 18.4703L48.2651 9.5957ZM46.9114 25.0257H39.4425L35.7204 18.5604L39.4425 12.0271H46.9114L50.6334 18.5604L46.9114 25.0257Z" fill="#E0E5EB"/>
<path opacity="0.2" d="M35.6953 18.5656L39.411 25.1181H46.9192L50.7315 18.6528L46.9192 12.0293L39.411 12.0293L35.6953 18.5656Z" fill="#E0E5EB"/>
<path d="M15.1557 28.7227H5.07264L0 37.689L5.07264 46.5635H15.2428L20.3154 37.689L15.1557 28.7227ZM13.8019 44.1543H6.42326L2.70126 37.689L6.42326 31.1556H13.8922L17.6142 37.689L13.8019 44.1543Z" fill="#E0E5EB"/>
<path opacity="0.2" d="M2.70312 37.686L6.42513 44.1513H13.8038L17.6161 37.686L13.8038 31.0625H6.42513L2.70312 37.686Z" fill="#E0E5EB"/>
<path d="M15.1557 9.5957H5.07264L0 18.4703L5.07264 27.3448H15.2428L20.3154 18.4703L15.1557 9.5957ZM13.8019 25.0273H6.42326L2.70126 18.562L6.42326 12.0287H13.8922L17.6142 18.562L13.8019 25.0273Z" fill="#E0E5EB"/>
<path opacity="0.2" d="M2.70312 18.561L6.42513 25.0263H13.8038L17.6161 18.561L13.8038 11.9375H6.42513L2.70312 18.561Z" fill="#E0E5EB"/>
<path d="M76.1986 18.7635C77.0264 18.7693 77.8513 18.8646 78.6594 19.0477C79.4255 19.2139 80.073 19.5137 80.7022 19.8305V22.2814C80.0022 22.0221 79.2894 21.8002 78.5667 21.6166C77.8478 21.4504 77.1988 21.3324 76.4783 21.3324C75.7579 21.3324 75.0648 21.4504 74.3428 21.6648C73.6208 21.8791 73.0204 22.2814 72.417 22.8498C71.8607 23.4182 71.4184 24.1311 71.0491 25.032C70.7238 25.9328 70.5627 27.0479 70.5627 28.3991C70.5627 29.331 70.6782 30.2629 70.9579 31.1016C71.2079 31.8819 71.6015 32.6062 72.1176 33.2356C72.6283 33.8522 73.2773 34.3026 73.975 34.6334C74.741 34.9658 75.6226 35.1304 76.6197 35.1304C77.3386 35.1304 78.0332 35.0838 78.8236 34.9176C79.5477 34.7397 80.2608 34.5177 80.9591 34.2529V36.7193C80.7509 36.8373 80.4727 37.0035 80.1475 37.1231C79.8222 37.2427 79.4285 37.3359 78.9877 37.4555C78.5926 37.5735 78.1761 37.6216 77.6654 37.6682L76.2974 37.7863C75.1362 37.8022 73.9813 37.6098 72.8852 37.2178C71.8586 36.8312 70.9075 36.2612 70.0763 35.5342C69.2597 34.7093 68.6263 33.7145 68.2189 32.6174C67.7629 31.4324 67.5 30.1014 67.5 28.4675C67.5 27.2824 67.6155 26.2154 67.8952 25.268C68.1034 24.3361 68.4515 23.4664 68.8938 22.752C69.3361 22.0375 69.8058 21.4007 70.3788 20.8882C70.928 20.4003 71.5358 19.986 72.1875 19.655C72.8365 19.3226 73.5099 19.0866 74.1604 18.9204L76.2032 18.7309L76.1986 18.7635ZM85.4125 15.0639V11.7434H88.3004V15.0639H85.4125ZM85.4581 37.3328V19.2621H88.346V37.3467L85.4581 37.3328ZM94.3012 37.3483V9.79883H97.1891V37.3467L94.3012 37.3483ZM103.082 15.0639V11.7434H105.97V15.0639H103.082ZM103.127 37.3328V19.2621H106.015V37.3467L103.127 37.3328ZM118.856 37.7987C118.028 37.7999 117.202 37.7046 116.395 37.5145C115.723 37.3192 115.076 37.0406 114.469 36.6851C113.913 36.2813 113.425 35.9023 113.056 35.3339C112.652 34.8353 112.343 34.2644 112.144 33.6503C111.981 33.1843 111.866 32.7184 111.749 32.1329L111.633 30.3312V19.2807H114.521V30.3312C114.521 31.3516 114.637 32.195 114.916 32.8473C115.194 33.6301 115.682 34.1985 116.33 34.649C116.977 35.0994 117.862 35.3137 118.859 35.3137C119.95 35.3137 120.832 35.1009 121.504 34.5791C122.154 34.0821 122.663 33.4639 122.917 32.6112C123.125 31.9946 123.242 31.2134 123.242 30.3126V19.2543H126.13V30.353C126.131 30.9163 126.092 31.4789 126.015 32.0366C125.97 32.5312 125.86 33.0174 125.69 33.4825C125.481 34.0991 125.133 34.6676 124.778 35.2143C124.382 35.7113 123.896 36.1462 123.364 36.5655C122.808 36.9693 122.157 37.2303 121.391 37.4663C120.566 37.6902 119.716 37.802 118.862 37.7987H118.856ZM145.964 37.3328H143.076V25.6982C143.079 25.0161 142.985 24.3372 142.798 23.6823C142.635 23.1138 142.403 22.6619 142.079 22.3311C141.752 21.9882 141.356 21.7212 140.919 21.5483C140.463 21.3821 140.007 21.3355 139.434 21.3355C138.39 21.3355 137.462 21.6197 136.626 22.1649C135.814 22.7333 135.024 23.5161 134.376 24.5132V37.3669H131.499V19.2621H133.748L134.305 21.7781H134.35L135.394 20.5931C135.79 20.2607 136.206 19.9284 136.648 19.6612C137.122 19.3706 137.64 19.1622 138.18 19.0446C138.737 18.8784 139.34 18.8318 140.004 18.8318C141.327 18.8318 142.418 19.1642 143.3 19.7637C144.181 20.4285 144.832 21.2811 145.342 22.3963H145.388C146.154 21.2811 147.083 20.3803 148.078 19.7637C149.074 19.1471 150.282 18.8318 151.583 18.8318C152.187 18.8318 152.837 18.9499 153.556 19.1161C154.275 19.2823 154.879 19.6131 155.482 20.048C156.085 20.4828 156.526 21.1631 156.896 22.0158C157.291 22.8451 157.499 23.9137 157.499 25.2649V37.384H154.714V25.7402C154.717 25.058 154.623 24.3791 154.436 23.7242C154.274 23.1558 154.041 22.7038 153.717 22.373C153.39 22.0301 152.995 21.7631 152.558 21.5902C152.102 21.424 151.646 21.3774 151.073 21.3774C150.028 21.3774 149.1 21.6617 148.264 22.2068C147.452 22.7752 146.662 23.558 145.966 24.5551L145.964 37.3328Z" fill="#E0E5EB"/>
</g>
</svg>
