<svg width="118" height="48" viewBox="0 0 118 48" fill="none" xmlns="http://www.w3.org/2000/svg">
<path d="M112.342 25.1248H114.848L117.515 13.9564L118 12H112.342V25.1248Z" fill="#141A1F"/>
<path d="M111.211 30.4236L112.908 30.3422H114.525L114.848 27.489L113.231 27.5703L111.534 27.489L111.211 30.4236Z" fill="#141A1F"/>
<path d="M32.8137 16.2392C32.2479 16.3206 29.8233 16.8097 29.0151 16.9728C28.1259 17.2174 19.8821 23.7394 19.3165 25.288C19.2356 25.7771 19.3165 31.4836 19.3165 31.4836L24.004 31.81L23.8425 33.3587C23.196 33.2773 18.8316 33.3587 16.0835 33.3587C15.9385 33.3587 15.762 33.3605 15.5606 33.3638C15.3522 33.367 15.1169 33.3717 14.8622 33.3773L14.5345 33.3842L13.8629 33.4005H13.8526C12.9162 33.4228 11.8705 33.4479 10.9569 33.4582C10.1747 33.467 9.48932 33.4647 9.05212 33.44L9.21368 31.9727C10.1028 32.0546 11.4767 31.8914 12.2849 31.6468C13.0932 31.4023 13.7396 31.0759 13.7396 30.2609V25.3694C13.4165 24.473 6.5467 15.7501 4.7684 14.3641C4.49022 14.2707 3.22656 14.0963 2.04795 13.9341L2.03412 13.9327C1.1641 13.8127 0.342477 13.6998 0 13.6305L0.161559 12.1632H15.9219L15.6795 13.5491C15.3594 13.6207 14.5384 13.677 13.6438 13.7379L12.9835 13.7839C12.7636 13.7993 12.5453 13.8155 12.3349 13.8327C12.1674 13.8462 12.0049 13.8606 11.8505 13.8755C11.3778 13.9215 10.9811 13.9745 10.7493 14.0382C12.1392 16.0913 14.0173 18.5443 15.5216 20.5086C15.8779 20.974 16.2132 21.4119 16.5163 21.8109C16.7297 22.0917 16.927 22.3534 17.104 22.5915C17.3421 22.9113 17.544 23.1884 17.7 23.413C17.9316 23.0917 18.8593 22.3302 19.9616 21.4254C21.9342 19.8066 24.4661 17.7283 24.5698 16.8915C24.1992 16.8236 23.4917 16.7129 22.7574 16.6069C21.73 16.4591 20.65 16.3206 20.3672 16.3206L20.1248 14.8532H33.7028L32.8137 16.2392Z" fill="#141A1F"/>
<path d="M66.4356 28.9563C63.9302 28.7936 59.5658 28.8749 57.0604 28.9563L57.2219 27.6522C57.6259 27.6522 59.6467 27.3263 60.1316 27.2444V22.6793C58.9191 22.6793 51.9686 22.8425 50.9179 23.0871V27.1631C50.9179 27.1631 53.9083 27.489 54.555 27.5708L54.3932 28.9563C51.7262 28.7936 46.3111 28.7936 43.7248 28.9563L43.8863 27.489C44.6946 27.489 46.8767 27.2444 47.3618 27.1631C47.3782 26.9641 47.3913 26.7386 47.4017 26.4917C47.4111 26.2704 47.4183 26.0314 47.4238 25.7795C47.4293 25.5307 47.4332 25.269 47.4358 24.9979C47.4376 24.8119 47.439 24.6218 47.4399 24.4288C47.4425 23.9402 47.4425 23.432 47.4425 22.9239V20.8857C47.4425 20.152 47.4425 18.1956 47.3618 17.4619C46.796 17.4619 44.2906 17.2174 43.6439 17.2174L43.8054 15.9133C46.0686 16.076 52.9384 16.076 54.7974 15.9133L54.6356 17.136C54.6114 17.136 54.5838 17.137 54.5529 17.1384C54.5158 17.1402 54.4738 17.1425 54.4282 17.1463C54.3664 17.1514 54.2973 17.1579 54.2219 17.1658C53.8928 17.1997 53.4455 17.2592 52.9808 17.3211H52.9767C52.6031 17.3708 52.2182 17.422 51.8741 17.4629C51.4722 17.5103 51.1258 17.5433 50.9179 17.5433V21.1302H60.1316V15.8314C59.9422 15.8077 59.6624 15.7626 59.3432 15.7092C58.5734 15.5799 57.5746 15.4 57.0604 15.3423L57.2219 14.1196C58.7575 14.201 64.9 14.201 66.5165 14.1196L66.4356 15.4237C65.9507 15.4237 64.1726 15.7501 63.5259 15.8314V27.4076C63.5259 27.4076 66.1123 27.7335 66.6781 27.8154L66.4356 28.9563Z" fill="#141A1F"/>
<path fill-rule="evenodd" clip-rule="evenodd" d="M98.9259 13.3046C92.2177 13.4678 88.0151 16.0765 87.9342 20.6416V20.8048C88.0958 25.3699 92.2177 28.0599 98.9259 28.2231H99.4109C106.038 28.0599 110.241 25.3699 110.403 20.7229C110.241 16.321 106.119 13.4678 99.4109 13.3046H98.9259ZM98.1986 15.3428H99.9767C102.24 15.5055 106.362 16.8101 106.442 20.7229C106.442 24.6357 102.24 26.1035 99.9767 26.1849H98.1986C95.9356 26.0217 91.8137 24.6357 91.7328 20.7229C91.8137 16.8101 95.9356 15.5055 98.1986 15.3428Z" fill="#141A1F"/>
<path fill-rule="evenodd" clip-rule="evenodd" d="M66.2741 22.4348C66.2741 18.2774 69.8302 15.7501 76.2151 15.5869H76.8616C82.9231 15.7501 86.8835 18.2774 86.8835 22.4348V22.5975C86.8026 26.674 82.9231 29.2827 76.8616 29.4459H76.2151C70.1535 29.2827 66.2741 26.5108 66.2741 22.5975V22.4348ZM77.1849 17.4619H75.8917C73.7903 17.5433 69.7493 18.7661 69.7493 22.353V22.6793C69.7493 26.3476 73.7903 27.489 75.8917 27.5703H77.1849C79.2863 27.489 83.3274 26.2662 83.3274 22.6793V22.353C83.3274 18.6847 79.2863 17.5433 77.1849 17.4619Z" fill="#141A1F"/>
<path fill-rule="evenodd" clip-rule="evenodd" d="M30.5507 18.6029L30.4698 19.7443L33.0561 20.3966C33.0561 20.3966 29.2575 28.0594 28.4493 29.1195C28.1495 29.1948 27.6238 29.3231 27.0815 29.4473C26.6576 29.544 26.2239 29.6379 25.8803 29.7025C25.7155 29.7332 25.5714 29.7574 25.459 29.7713L25.2972 31.1572C25.7821 31.0759 32.4903 31.1572 33.137 31.1572L33.2986 29.8531L30.9547 29.2822L31.1594 28.8559C31.2647 28.6369 31.3998 28.357 31.5371 28.0757C31.8091 27.5187 32.0898 26.9539 32.167 26.8367C32.8943 26.6735 37.259 26.5921 37.259 26.5921L38.7946 30.8313C38.7946 30.8313 36.9356 31.1572 36.2083 31.1572L36.0465 32.5432H45.6644L45.8259 31.3204C45.5775 31.3562 45.0954 31.2818 44.5782 31.1805C44.4321 31.1521 44.2832 31.1214 44.1362 31.0903L43.8243 31.0238L43.8202 31.0224C43.6086 30.9769 43.4076 30.9341 43.2323 30.8997C43.1246 30.8783 43.0269 30.8602 42.9416 30.8467C42.9036 30.8406 42.8681 30.8355 42.8356 30.8313C42.2813 29.9615 40.6478 25.9208 39.3652 22.7481C38.9647 21.7569 38.5982 20.8503 38.3097 20.152L40.4917 19.8256L40.7342 18.6847H37.4205C36.9587 18.6847 35.9222 18.6847 34.7893 18.68C34.037 18.6768 33.2424 18.6717 32.5447 18.6633C31.5346 18.6517 30.7284 18.6326 30.5507 18.6029ZM34.996 20.4779L36.8547 25.2876H32.8137C33.0561 24.7171 34.996 20.4779 34.996 20.4779Z" fill="#141A1F"/>
<path d="M74.1137 32.1359C74.437 31.9727 75.4877 31.6468 75.8111 31.565L75.8109 30.9945C75.0028 31.0759 74.0328 31.0759 73.2248 31.0759C72.8793 31.0759 72.2238 31.0578 71.5354 31.0382C70.7747 31.0168 69.9738 30.9945 69.5068 30.9945V31.6468C69.9917 31.7282 71.4465 32.0541 71.7698 32.1359C71.8 32.4088 71.8189 32.8742 71.8307 33.3508C71.8399 33.7171 71.8447 34.09 71.8475 34.3871C71.8507 34.7418 71.8507 34.9892 71.8507 34.9892C71.8507 37.7606 71.7698 39.3097 71.5274 39.9618C71.4467 40.4509 70.8809 41.1032 69.7493 41.7552L70.6384 42C72.9823 41.0216 73.8712 39.6359 73.9521 37.5979C73.9521 37.5979 74.1137 33.1141 74.1137 32.1359Z" fill="#141A1F"/>
<path d="M113.555 32.8691C113.457 32.9184 113.243 32.9672 112.982 33.016L112.794 33.0509C112.674 33.0718 112.549 33.0927 112.423 33.1137C112.423 33.4265 112.438 34.5679 112.455 35.8693L112.456 35.9655L112.457 36.0789C112.479 37.7829 112.504 39.6954 112.504 40.3693C112.504 40.5322 112.342 40.6138 112.1 40.4509C110.969 39.3095 107.332 35.1519 106.119 33.6846L106.12 33.8487L106.121 34.023C106.123 34.2927 106.128 34.6409 106.135 35.0291C106.143 35.5894 106.155 36.2324 106.166 36.8414L106.166 36.8637L106.18 37.6606C106.192 38.3203 106.2 38.8541 106.2 39.0649C106.442 39.1461 106.824 39.2476 107.167 39.329C107.315 39.3641 107.455 39.3955 107.574 39.4199C107.732 39.4524 107.851 39.4724 107.897 39.4724L107.978 40.2061H104.018V39.4724L104.146 39.4197L104.284 39.3618C104.445 39.2937 104.598 39.229 104.755 39.1744C104.881 39.1305 105.011 39.0931 105.149 39.0649C105.168 38.9685 105.183 38.6021 105.194 38.0935C105.203 37.7034 105.209 37.2292 105.214 36.7294C105.219 36.2779 105.222 35.8056 105.224 35.3546C105.228 34.7046 105.229 34.0998 105.23 33.6669L105.23 33.0323C105.153 33.0323 105.063 33.0276 104.964 33.0207C104.648 32.9983 104.245 32.9509 103.937 32.9509V32.0541H106.847C107.473 32.7831 108.616 34.0626 109.711 35.2876L109.747 35.3281C110.477 36.144 111.182 36.933 111.696 37.516C111.696 36.2933 111.615 33.44 111.615 32.9509C111.559 32.9509 111.491 32.9467 111.412 32.9388C111.357 32.9337 111.298 32.9268 111.235 32.9184C110.994 32.8872 110.698 32.8375 110.403 32.7877L110.322 32.0541C110.564 32.0541 111.938 32.1354 112.181 32.1354C112.302 32.1354 112.646 32.1155 112.989 32.095C113.333 32.0745 113.676 32.0541 113.797 32.0541L113.555 32.8691Z" fill="#141A1F"/>
<path d="M90.1165 36.6197C91.1672 36.4565 92.0561 36.0487 92.0561 35.0705L92.137 34.9892C92.137 34.3369 91.8946 33.44 91.0054 33.1955C90.6823 33.1141 89.8741 33.1141 89.3892 33.1141C89.3892 33.2085 89.3961 33.7673 89.4057 34.5196L89.4666 39.2507L89.4698 39.5543C89.7125 39.5543 90.8439 39.7988 91.1672 39.8804V40.4511H86.1561L86.237 39.7174C86.353 39.6882 86.5311 39.6486 86.7229 39.6056L86.7461 39.6008C87.0842 39.5257 87.459 39.4424 87.6111 39.3913C87.6657 38.5626 87.6092 36.3858 87.5671 34.7641C87.5585 34.4354 87.5505 34.1295 87.5442 33.8622C87.5357 33.5028 87.5302 33.2136 87.5302 33.0328C87.1262 33.0328 86.5604 33.0328 86.1561 32.9509L85.9946 32.1359H90.359C92.6219 32.1359 93.5917 33.44 93.5917 34.9078V34.9892C93.5917 36.2933 92.2179 37.1088 90.1165 37.3533V36.6197Z" fill="#141A1F"/>
<path fill-rule="evenodd" clip-rule="evenodd" d="M82.4384 32.0546L78.0741 32.2177V32.7882L79.2054 32.9514C78.4781 34.5814 76.5384 38.7392 76.2151 39.2283C75.8917 39.3913 75.5686 39.4729 75.2453 39.5545L75.1644 40.2066H78.6396V39.6359L77.5891 39.3099C77.5891 39.3099 77.8503 38.6514 78.1029 38.046C78.2478 37.6987 78.3898 37.3686 78.4781 37.1906H81.4684L82.2766 39.3099C82.2766 39.3099 81.5493 39.4729 80.9835 39.5545L80.9028 40.1252H85.2672L85.3479 39.4729C85.1886 39.5371 84.9542 39.538 84.7286 39.5157C84.3813 39.4813 84.0547 39.3913 84.0547 39.3913C83.6532 38.5816 82.8044 36.5411 82.0854 34.8125L82.0771 34.793C81.7858 34.0923 81.5163 33.4442 81.3068 32.9514L82.4384 32.7068V32.0546ZM80.0946 33.5219L81.3068 36.6197H78.8014C78.963 36.2119 80.0946 33.5219 80.0946 33.5219Z" fill="#141A1F"/>
<path fill-rule="evenodd" clip-rule="evenodd" d="M96.1781 32.2177L100.462 32.0546L100.381 32.7882L99.3302 32.9514C99.7342 33.9296 101.189 37.5165 102.078 39.3913C102.078 39.3913 102.967 39.6359 103.452 39.4729L103.371 40.125H99.0068L99.0877 39.5545C99.6535 39.4729 100.381 39.3099 100.381 39.3099L99.5726 37.1906H96.5823C96.3399 37.6797 95.6932 39.3099 95.6932 39.3099L96.7439 39.6359V40.2066C96.4205 40.2066 94.2382 40.125 93.2684 40.2066L93.3493 39.5545C93.6726 39.4729 93.9958 39.3099 94.3191 39.2283C94.6425 38.7392 96.5823 34.5814 97.3097 32.9514L96.1781 32.7882V32.2177ZM96.8248 36.6197H99.3302L98.1179 33.5219C98.1179 33.5219 97.8073 34.2606 97.4881 35.0226C97.1983 35.7144 96.9017 36.4258 96.8248 36.6197Z" fill="#141A1F"/>
</svg>
