<svg width="167" height="48" viewBox="0 0 167 48" fill="none" xmlns="http://www.w3.org/2000/svg">
<path d="M5.24639 12.1447C3.48706 12.5004 1.61403 13.9119 0.813333 15.4546C0.0126348 16.9973 0 17.3751 0 23.8636L0.145294 30.6288C0.661721 33.2685 2.72427 35.3344 5.36325 35.8513C6.16237 35.9967 16.5699 36.0694 16.5699 35.9097C16.5699 35.7928 15.6855 32.3027 15.6223 32.2742C15.6065 32.2458 13.7619 31.838 11.524 31.3575C6.30609 30.2226 6.4656 30.251 6.02813 29.7421L5.64911 29.2916V18.7297L6.02813 18.2555C6.46402 17.7339 6.30451 17.775 11.524 16.6401L15.6223 15.7233C15.6665 15.679 16.5699 12.189 16.5699 12.0878C16.5699 11.9503 5.94443 12.0151 5.24639 12.1605V12.1447ZM22.0926 12.1668C22.1084 12.4292 22.9218 15.6443 23.0086 15.717C23.037 15.7612 25.0301 16.2117 27.4306 16.7207L32.1258 17.8556C32.3818 18.0044 32.5967 18.2146 32.7512 18.4673C32.9834 18.8751 33.0134 19.3114 33.0134 23.9948L32.7512 29.5223C32.5928 29.7719 32.3787 29.9813 32.1258 30.1341C31.9363 30.2352 29.8295 30.7458 27.4306 31.269L23.0086 32.2727C22.6482 33.4411 22.3426 34.6258 22.0926 35.8228C22.0926 35.9809 23.1397 36.0125 27.7307 35.9682C34.0684 35.9097 34.1426 35.8955 35.7535 34.8049C36.9126 34.0067 37.7881 32.8603 38.2535 31.5313C38.5883 30.5561 38.5883 30.4692 38.5883 23.9964L38.2535 16.4567C37.7881 15.1278 36.9126 13.9814 35.7535 13.1832C34.1394 12.0767 34.0668 12.0767 27.7307 12.0198C23.1381 11.9756 22.0926 11.9977 22.0926 12.1653V12.1668ZM49.1411 17.1143C48.1382 19.2086 47.1354 21.7977 46.1041 24.9385L44.04 32.0229C44.4269 32.0609 44.8296 32.0751 45.2023 32.0672H46.3505L46.5084 31.4412L47.0769 29.4496L47.4686 28.0681H55.4487L55.8562 29.5223L56.4089 31.514L56.5542 32.0672H57.7024L58.8647 32.0229C58.8647 31.9945 58.5741 30.9165 58.2109 29.6077C56.889 24.8215 55.2024 20.1238 53.7778 17.1554L53.0198 15.6285H49.8517L49.1411 17.1143ZM52.5839 20.0227L54.648 25.6087C54.648 25.6371 53.2267 25.6671 51.45 25.6671C49.6733 25.6671 48.2519 25.6087 48.2519 25.5502C48.2519 25.3036 49.7207 21.3899 50.4313 19.7018C50.9841 18.4057 51.2605 17.9409 51.4484 17.9409C51.6363 17.9409 51.9285 18.4784 52.5823 20.0068L52.5839 20.0227ZM60.3161 23.8478V32.0672H62.6424V15.6285H60.3161V23.8478ZM65.5483 15.8181C65.2758 16.001 65.0554 16.2515 64.9086 16.5452C64.6765 17.04 64.6623 17.1569 64.8502 17.6517C65.1029 18.3819 65.8862 18.7803 66.6238 18.5526C67.3502 18.3203 67.655 17.8983 67.655 17.1411C67.655 16.5879 67.5824 16.4298 67.1749 16.0663C66.6664 15.6158 66.1437 15.5289 65.5483 15.8339V15.8181ZM69.765 23.8194V32.0387L71.5527 32.1699L74.9245 32.3011C76.3932 32.3011 76.5954 32.2727 77.3661 31.8791C78.2741 31.4681 78.9548 30.6731 79.2265 29.7136C79.3133 29.3659 79.3575 27.8231 79.3275 25.7146C79.2833 22.4711 79.2691 22.2371 78.9643 21.6555C78.3958 20.6075 77.5398 20.0985 75.9558 19.8804C75.1124 19.7634 73.0183 19.8804 72.3802 20.0859C72.1039 20.1728 72.0897 20.1143 72.0897 17.9204V15.6348H69.7634L69.765 23.8194ZM76.3774 22.2482C76.6615 22.3515 76.8954 22.5596 77.0312 22.8299C77.2208 23.3246 77.2208 28.7368 77.0312 29.2157C76.8133 29.8116 76.0837 30.0882 74.705 30.0882C74.0634 30.0953 73.4221 30.0562 72.7861 29.9712L72.0881 29.8701V22.3494L72.9314 22.2039C74.2264 21.9858 75.8089 21.9985 76.3743 22.2482H76.3774ZM92.8746 23.8336V32.053L94.2992 32.1257L97.2635 32.3153C99.2534 32.4323 100.504 32.1099 101.319 31.2532C102.366 30.1783 102.393 30.0455 102.425 26.38C102.469 23.7182 102.44 22.9026 102.267 22.3067C101.875 20.9394 100.741 20.0811 99.0102 19.8772C98.1384 19.7761 95.8563 19.893 95.3904 20.0827C95.2452 20.127 95.2009 19.6322 95.2009 17.9014V15.6458H92.8746V23.8336ZM99.4003 22.1818C99.6466 22.2688 99.9214 22.4584 99.9956 22.6038C100.154 22.8947 100.201 28.9739 100.054 29.369C99.8077 30.0092 97.8431 30.2858 95.8974 29.9649L95.1994 29.8638V22.3525L96.0427 22.2071C97.205 22.0174 98.8475 22.0016 99.4003 22.185V22.1818ZM122.496 15.7739C121.043 16.0363 120.285 16.3856 119.546 17.1411C118.383 18.3045 118.311 18.7265 118.311 23.9932C118.311 29.26 118.383 29.6804 119.574 30.8596C120.185 31.4855 120.522 31.6736 121.39 31.966C122.338 32.2569 122.771 32.3011 124.719 32.3011C126.406 32.3011 127.278 32.2284 128.15 32.0245C128.614 31.9321 129.07 31.8058 129.516 31.6467C129.633 31.574 129.617 31.3116 129.443 30.6146C129.361 30.2616 129.249 29.9163 129.108 29.5824C129.05 29.5239 128.687 29.5666 128.309 29.6836C127.014 30.0756 124.748 30.2368 123.337 30.0629C121.927 29.8891 121.404 29.6551 120.969 29.0877C120.678 28.7083 120.664 28.5502 120.664 24.0106C120.664 19.471 120.68 19.3114 120.969 18.9336C121.419 18.3646 121.927 18.148 123.337 17.9583C124.748 17.7686 127.014 17.9425 128.309 18.3377L129.094 18.5558C129.211 18.5558 129.719 16.5326 129.631 16.4472C129.587 16.403 129.05 16.2417 128.41 16.0679C127.147 15.7328 123.715 15.5731 122.508 15.7913L122.496 15.7739ZM131.681 23.8478V32.0672H133.86V15.6285H131.681V23.8478ZM164.688 17.8097V19.991L163.859 19.9041L162.696 19.7587C162.202 19.6717 160.37 19.9642 159.847 20.225C159.171 20.5848 158.615 21.1362 158.249 21.8104C157.959 22.3478 157.93 22.6544 157.886 25.6039C157.828 29.5745 157.944 30.1562 158.991 31.1899C159.936 32.1067 161.056 32.4118 162.959 32.2964L165.662 32.1383L167 32.0514V15.6443H164.675L164.688 17.8097ZM164.442 22.2466C164.674 22.3478 164.688 22.6687 164.688 26.116V29.8685L164.151 29.9697C163.203 30.1593 161.447 30.1151 160.939 29.897C160.677 29.78 160.402 29.5777 160.328 29.4307C160.253 29.2837 160.182 27.7425 160.182 25.9975C160.182 22.5201 160.211 22.4189 160.981 22.1723C161.447 22.0269 164.004 22.0854 164.456 22.245L164.442 22.2466ZM84.7508 19.8551C84.1005 19.9422 83.4553 20.0636 82.8178 20.2187C82.0329 20.4083 81.8433 20.5095 81.9018 20.6992C81.946 20.8304 82.0471 21.2524 82.1481 21.6586C82.2492 22.0648 82.3534 22.43 82.4103 22.4727C82.4672 22.5153 83.0941 22.4442 83.8064 22.3146C86.2337 21.8056 87.8762 22.038 88.1084 22.9105C88.1817 23.2988 88.2208 23.6929 88.2252 24.0881L88.241 24.9021L86.8607 24.8294C83.1684 24.6397 80.9447 26.0228 80.9163 28.5091C80.9005 29.6867 81.2795 30.6035 82.0644 31.3306C82.9804 32.1747 83.9533 32.4371 85.8295 32.3059L88.8664 32.1478L90.4362 32.0466L90.3494 22.2703L89.9419 21.5859C89.1286 20.2107 87.194 19.5706 84.7524 19.8836L84.7508 19.8551ZM88.1368 27.2162C88.2821 27.3031 88.2679 29.878 88.121 29.878C88.0483 29.878 87.3077 29.9507 86.4627 30.0361C84.0354 30.2684 83.1494 29.9049 83.1494 28.6546C83.1494 28.1171 83.2221 27.9559 83.5853 27.6366C83.9011 27.3916 84.3086 27.2367 84.7192 27.1861L85.6194 27.0407C85.8816 26.9822 87.9883 27.1198 88.1336 27.2225L88.1368 27.2162ZM107.933 19.8346L106 20.2139C105.026 20.4463 104.939 20.5047 105.011 20.7829L105.274 21.8578C105.432 22.5849 105.463 22.6291 105.811 22.5422C107.758 22.0332 109.632 21.8878 110.391 22.1628C111.074 22.4252 111.22 22.7161 111.22 23.8225V24.8705H109.416C107.134 24.8705 106.087 25.1613 105.084 26.0639C104.668 26.4155 104.347 26.8665 104.151 27.3752C103.956 27.8839 103.891 28.4337 103.964 28.9739C104.211 31.3448 105.897 32.494 108.92 32.3059L111.957 32.1478L113.527 32.0466L113.483 27.232C113.439 22.6054 113.424 22.3873 113.12 21.8198C112.29 20.2629 110.416 19.5643 107.916 19.8567L107.933 19.8346ZM110.811 27.1055H111.202V29.8559L110.373 29.957C108.775 30.1625 107.219 30.1151 106.812 29.8401C105.999 29.3026 106.027 27.8911 106.856 27.4691C107.425 27.1782 108.775 26.9743 109.675 27.0613L110.809 27.1198L110.811 27.1055ZM138.979 19.8314C138.096 20.0236 137.303 20.5047 136.725 21.1987C135.983 22.1739 135.912 22.6529 135.912 26.1461C135.912 29.7247 136.013 30.1451 136.973 31.1504C137.921 32.1257 138.369 32.2569 140.563 32.2569C142.816 32.2569 143.327 32.0988 144.255 30.9923C145.14 29.9444 145.244 29.4212 145.203 25.7414C145.158 22.7445 145.13 22.4537 144.839 21.9005C144.409 21.1067 143.744 20.4661 142.935 20.0669C142.193 19.7318 140.013 19.5864 138.996 19.8045L138.979 19.8314ZM142.177 22.2466C142.919 22.626 143.034 23.1476 143.034 26.0149C143.034 28.7336 142.933 29.2441 142.308 29.7974C141.858 30.2052 139.808 30.3063 139.067 29.9428C138.195 29.535 138.093 29.113 138.093 26.0149C138.093 23.048 138.18 22.6544 138.936 22.2466C139.489 21.9416 141.596 21.9416 142.177 22.2466ZM65.1282 26.0149V32.053H67.3076V19.9768H65.1282V26.0149ZM147.014 20.1665C146.97 20.2835 146.956 22.4648 146.986 25.0112C147.03 29.1999 147.058 29.6946 147.305 30.1609C148.162 31.7763 149.615 32.445 151.984 32.2853L156.116 32.0372V19.9926H153.905V29.8717L153.221 29.9728C151.957 30.1783 150.386 30.104 149.877 29.8416L149.369 29.5508C149.353 29.535 149.296 27.398 149.252 24.8089L149.179 20.0669L148.118 20.0227C147.319 19.9942 147.044 20.0227 146.984 20.1807L147.014 20.1665ZM15.6065 23.6866C15.5591 23.8423 15.5494 24.0069 15.5781 24.1671C15.6223 24.4137 15.8829 24.4295 19.2989 24.4722L22.9628 24.5006V23.4827H19.3305C16.2935 23.4827 15.6665 23.5111 15.6097 23.6882L15.6065 23.6866Z" fill="#141A1F"/>
</svg>
