<svg width="1250" height="455" viewBox="0 0 1250 455" fill="none" xmlns="http://www.w3.org/2000/svg">
<path d="M805 5C805 2.23858 807.239 0 810 0H1000C1002.76 0 1005 2.23858 1005 5C1005 7.76142 1002.76 10 1000 10H810C807.239 10 805 7.76142 805 5Z" fill="#FFBF00"/>
<path d="M845 29C845 26.2386 847.239 24 850 24H990C992.761 24 995 26.2386 995 29C995 31.7614 992.761 34 990 34H850C847.239 34 845 31.7614 845 29Z" fill="#FFBF00"/>
<path d="M885 53C885 50.2386 887.239 48 890 48H980C982.761 48 985 50.2386 985 53C985 55.7614 982.761 58 980 58H890C887.239 58 885 55.7614 885 53Z" fill="#FFBF00"/>
<path d="M1201.07 427L1222 406.071L1242.93 427L1222 447.929L1201.07 427Z" fill="white" stroke="#EB4748" stroke-width="10"/>
<path d="M9.79279 117.827L8.10376 121.067L9.79625 124.305L34.8512 172.242L36.8151 176H41.0549H104.945H109.185L111.149 172.242L136.204 124.305L137.896 121.067L136.207 117.827L111.152 69.7642L109.19 66H104.945H41.0549H36.81L34.8477 69.7642L9.79279 117.827Z" fill="#00877C" stroke="#F6F7F8" stroke-width="14"/>
<circle cx="73" cy="121" r="28" fill="#F6F7F8"/>
</svg>
