<svg width="139" height="48" viewBox="0 0 139 48" fill="none" xmlns="http://www.w3.org/2000/svg">
<path d="M133.037 12C133.015 12.0695 131.397 19.4775 131.397 19.4775H139C139 19.5042 138.321 22.747 137.757 25.4422C137.356 27.3585 137.012 28.998 137.012 29.0076H129.456C129.456 29.0076 127.953 35.977 127.953 36H119.543C119.565 35.977 120.074 33.5076 120.074 33.4849H125.781C125.781 33.4849 127.306 26.562 127.306 26.5156H134.863L135.856 21.9469H128.254C128.3 21.9 129.871 14.4923 129.871 14.4923H124.88C124.88 14.4923 123.286 21.8774 123.263 21.8774H120.629C120.629 21.8542 121.158 19.4072 121.688 16.9549C122.221 14.4919 122.755 12.0235 122.755 12H133.037Z" fill="#141A1F"/>
<path fill-rule="evenodd" clip-rule="evenodd" d="M115.724 28.11L115.123 30.8564C114.245 31.1323 113.182 31.3408 111.842 31.3408C108.537 31.3408 106.411 29.4709 106.411 26.287C106.411 22.5718 108.907 19.2013 113.02 19.2013C116.186 19.2013 117.665 21.2787 117.665 23.8176C117.665 24.6482 117.503 25.5473 117.227 26.4478H109.601C109.67 28.2251 110.964 28.7321 112.443 28.7321C113.713 28.7321 114.708 28.4554 115.724 28.11ZM114.615 23.633C114.615 22.4098 113.875 21.6717 112.789 21.6717C111.402 21.6717 110.363 22.687 109.878 24.2325H114.569C114.572 24.2075 114.575 24.1828 114.577 24.1584C114.597 23.9801 114.615 23.8152 114.615 23.633Z" fill="#141A1F"/>
<path d="M100.057 26.0098C100.057 27.879 101.074 28.5248 102.576 28.5248C103.476 28.5248 104.24 28.3172 104.933 28.0631L104.332 30.7639C103.707 31.0173 102.853 31.2014 101.836 31.2014C98.8093 31.2014 96.7057 29.5868 96.7057 26.1718C96.7057 22.0172 99.8025 19.3175 103.431 19.3175C104.493 19.3175 105.557 19.5486 106.458 19.8714L105.904 22.5023C105.118 22.2018 104.332 21.9941 103.639 21.9941C101.443 21.9941 100.057 23.8176 100.057 26.0098Z" fill="#141A1F"/>
<path d="M87.8792 25.1555L86.6083 30.9942H83.3036L85.7762 19.5486H88.8492L88.5491 20.9095C89.6587 19.7324 90.9521 19.2013 92.2931 19.2013C94.7191 19.2013 96.2671 20.9559 95.5506 24.3019L94.0953 30.9942H90.7904L92.177 24.4635C92.478 23.1487 92.2931 21.9941 90.7446 21.9941C89.5434 21.9941 88.3872 22.802 87.8792 25.1555Z" fill="#141A1F"/>
<path fill-rule="evenodd" clip-rule="evenodd" d="M74.3383 19.7788C74.8464 19.6173 76.3947 19.2707 77.9202 19.2707C81.7325 19.2707 82.8178 21.0017 82.8178 22.964C82.8178 23.4484 82.7721 23.9553 82.6568 24.4409L81.2237 30.9942H78.2891L78.5435 29.7944C77.7583 30.7175 76.5565 31.2714 75.1465 31.2714C73.1596 31.2714 71.6351 30.0942 71.6351 28.133C71.6351 25.1324 74.2688 23.8641 77.5492 23.8641C77.9202 23.8641 78.7053 23.9328 79.537 24.0248L79.5838 23.7937C79.6296 23.61 79.6296 23.4246 79.6296 23.2637C79.6296 22.3634 79.0054 21.8325 77.2729 21.8325C75.9782 21.8325 74.522 22.2256 73.7837 22.4329L74.3383 19.7788ZM77.4339 25.8939C75.7476 25.8939 74.7311 26.5411 74.7311 27.6943C74.7311 28.4792 75.216 28.9409 76.1642 28.9409C77.4808 28.9409 78.5888 28.0167 78.9823 26.6561L79.1214 26.0098C78.4735 25.9178 77.7583 25.8939 77.4339 25.8939Z" fill="#141A1F"/>
<path d="M63.1767 25.1555L61.9061 30.9942H58.601L61.0737 19.5486H64.1467L63.8465 20.9095C64.9552 19.7324 66.2492 19.2013 67.5914 19.2013C70.0171 19.2013 71.5647 20.9559 70.848 24.3019L69.393 30.9942H66.0886L67.476 24.4635C67.7758 23.1487 67.5914 21.9941 66.0429 21.9941C64.8399 21.9941 63.6855 22.802 63.1767 25.1555Z" fill="#141A1F"/>
<path d="M57.7002 18.2326C56.6837 18.2326 55.9204 17.4246 55.9907 16.3865C56.0595 15.3484 56.8685 14.5404 58.0003 14.5404C59.0173 14.5404 59.7797 15.3484 59.7097 16.3865C59.6413 17.4246 58.8323 18.2326 57.7002 18.2326Z" fill="#141A1F"/>
<path d="M53.0554 30.9942L55.5277 19.5486H58.8098L56.3371 30.9942H53.0554Z" fill="#141A1F"/>
<path d="M47.4854 25.0173L46.1914 30.9942H42.8188L46.1005 15.4861H54.7655L54.1188 18.4172H48.8733L48.11 22.0866H53.0792L52.4778 25.0173H47.4854Z" fill="#141A1F"/>
<path d="M43.4655 19.5486L42.9337 22.0636H39.376L38.2896 27.1401C38.0578 28.2945 38.7277 28.6173 39.6763 28.6173C40.2761 28.6173 40.9703 28.4792 41.5248 28.3403L40.9703 30.8564C40.2761 31.0867 39.3065 31.2014 38.7277 31.2014C35.9548 31.2014 34.4307 29.6793 35.0306 26.9091L37.1796 17.1249L40.6231 16.3639L39.9307 19.5486H43.4655Z" fill="#141A1F"/>
<path d="M28.3301 28.7095C29.2774 28.7095 30.4092 28.5486 30.4092 27.6249C30.4092 26.9828 29.7102 26.6934 28.876 26.3481C27.6419 25.8373 26.1122 25.2042 26.1122 23.1256C26.1122 20.7487 28.053 19.3175 31.2643 19.3175C32.3278 19.3175 33.5065 19.4791 34.4998 19.7563L33.9453 22.3634L33.9363 22.3608C33.443 22.2206 31.997 21.8096 30.9638 21.8096C29.8785 21.8096 29.1852 22.0636 29.1852 22.7794C29.1852 23.4165 29.8735 23.6988 30.6992 24.0375C31.9369 24.5452 33.4834 25.1795 33.4834 27.3251C33.4834 30.0941 31.0791 31.2014 28.1218 31.2014C26.8744 31.2014 25.5573 30.9942 24.517 30.7401L25.0727 28.1556C25.7883 28.3871 27.128 28.7095 28.3301 28.7095Z" fill="#141A1F"/>
<path fill-rule="evenodd" clip-rule="evenodd" d="M24.6096 25.2714C24.055 28.7095 21.6057 31.3408 17.9775 31.3408C14.3499 31.3408 12.4318 28.7095 13.0094 25.2714C13.564 21.8325 16.0136 19.2013 19.6412 19.2013C23.2699 19.2013 25.1876 21.8325 24.6096 25.2714ZM16.4059 25.2714C15.9214 27.6483 16.961 28.6868 18.2788 28.6868C19.5954 28.6868 20.7272 27.6249 21.2126 25.2714C21.7215 22.9172 20.6815 21.8564 19.3641 21.8564C18.047 21.8564 16.891 22.8946 16.4059 25.2714Z" fill="#141A1F"/>
<path fill-rule="evenodd" clip-rule="evenodd" d="M5.80011 26.2631H4.34389L3.32742 30.9942H0L3.28172 15.4861H7.57864C11.0213 15.4861 13.0333 17.3325 13.0333 20.1711C13.0333 23.9792 10.4449 26.2631 5.80011 26.2631ZM6.00762 18.3251L4.92154 23.4246H6.30896C8.48032 23.4246 9.6582 22.2713 9.6582 20.4022C9.6582 18.9484 8.91955 18.3251 7.39423 18.3251H6.00762Z" fill="#141A1F"/>
</svg>
