<svg width="102" height="48" viewBox="0 0 102 48" fill="none" xmlns="http://www.w3.org/2000/svg">
<path d="M26.8333 19.8535H12.3893L8.03943 6.51476C7.81571 5.82832 6.84137 5.82851 6.61746 6.51476L0.0731749 26.5836C-0.0243928 26.8828 -0.0243916 27.2051 0.0731784 27.5044C0.170748 27.8036 0.360879 28.0643 0.616321 28.2493L19.6113 42L38.6063 28.2493C38.8618 28.0643 39.0519 27.8036 39.1495 27.5044C39.247 27.2051 39.247 26.8828 39.1495 26.5836L32.6049 6.51476C32.3814 5.82851 31.4068 5.82832 31.1831 6.51476L26.8333 19.8535Z" fill="#141A1F"/>
<path d="M54.5522 24.0001C54.5522 20.3586 56.3272 18.0966 59.1847 18.0966C60.6253 18.0966 61.7841 18.5816 62.6302 19.5377L63.7509 18.6099C62.6287 17.3234 61.0522 16.6441 59.1847 16.6441C55.3488 16.6441 52.8699 19.5315 52.8699 24.0001C52.8699 28.4686 55.3488 31.356 59.1847 31.356C60.9722 31.356 62.5639 30.7321 63.7906 29.5507V23.4546H57.9965V24.9072H62.1085V28.9982L62.069 29.026C61.2559 29.6001 60.2583 29.9035 59.1847 29.9035C56.3272 29.9035 54.5522 27.6416 54.5522 24.0001Z" fill="#141A1F"/>
<path fill-rule="evenodd" clip-rule="evenodd" d="M90.2379 31.1232H91.5367V25.5996C91.5367 23.2429 89.9848 21.8357 87.3854 21.8357C85.8901 21.8357 84.5544 22.4909 83.6749 23.0611L84.3484 24.218C85.3448 23.7559 86.3932 23.5118 87.3854 23.5118C89.0232 23.5118 89.8534 24.1837 89.8534 25.5087V25.804L89.7369 25.7744C89.7246 25.7713 88.49 25.4621 87.1121 25.4621C85.3429 25.4621 83.2338 25.9731 83.2338 28.4075C83.2338 30.0889 84.5702 31.3095 86.4112 31.3095C88.2352 31.3095 89.6841 30.028 89.6985 30.015L89.8018 29.9224L90.2379 31.1232ZM84.9159 28.4075C84.9159 27.3244 85.9647 26.752 87.9489 26.752C88.9188 26.752 89.7684 26.8942 89.7767 26.8957L89.8546 26.9089V28.6185L89.8131 28.6461C89.2645 29.0129 87.9307 29.6334 86.4112 29.6334C85.4887 29.6334 84.9159 29.1638 84.9159 28.4075Z" fill="#141A1F"/>
<path d="M82.299 31.1232V29.6707H78.3743V17.3424H76.6921V31.1232H82.299Z" fill="#141A1F"/>
<path fill-rule="evenodd" clip-rule="evenodd" d="M93.7812 30.9109C95.0513 31.2063 96.249 31.356 97.3415 31.356C100.084 31.356 102 29.3603 102 26.5028C102 24.0801 100.734 22.3754 98.6137 21.9426C98.3644 21.8957 98.1063 21.8717 97.8485 21.8717C96.5632 21.8717 95.6286 22.4619 95.608 22.4749L95.4633 22.5685V17.3424H93.7812V30.9109ZM95.5052 24.1712C96.1599 23.7399 96.8596 23.5118 97.5285 23.5118C99.3011 23.5118 100.318 24.602 100.318 26.5028C100.318 28.5062 99.0939 29.9057 97.3415 29.9057C96.7796 29.9057 96.1748 29.8589 95.5431 29.7666L95.4633 29.7548V24.199L95.5052 24.1712Z" fill="#141A1F"/>
<path d="M74.4476 23.4507V21.9981H71.6439V17.3424H69.9618V27.4918C69.9618 29.4942 71.597 31.1232 73.6066 31.1232H74.4476V29.6707H73.6066C73.3487 29.6714 73.0932 29.6211 72.855 29.5229C72.6168 29.4245 72.4006 29.2801 72.219 29.0979C71.848 28.7288 71.6441 28.2377 71.6441 27.7153V23.4507H74.4476Z" fill="#141A1F"/>
<path d="M67.7173 18.2736H66.0351V19.9496H67.7173V18.2736Z" fill="#141A1F"/>
<path d="M67.7173 21.9981H66.0351V31.1232H67.7173V21.9981Z" fill="#141A1F"/>
</svg>
