<svg width="105" height="48" viewBox="0 0 105 48" fill="none" xmlns="http://www.w3.org/2000/svg">
<path d="M0 26.0806V14.0005H3.13991V26.0225C3.13991 28.701 5.02919 30.7233 7.53155 30.7233C10.0595 30.7233 11.9221 28.701 11.9221 26.0225V14.0005H15.0887V26.0806C15.0887 30.6095 11.8409 34 7.53155 34C3.24672 34 0 30.6095 0 26.0806Z" fill="#141A1F"/>
<path d="M22.2063 22.0316V30.7233H25.7457V33.6563H19.2255V22.0316H16.6976V19.1276H19.2255V14.0228H22.2063V19.1276H25.7457V22.0316H22.2063Z" fill="#141A1F"/>
<path d="M48.7365 33.6563V24.2279C48.7365 20.9512 46.7403 18.7861 43.7351 18.7861C42.7648 18.7616 41.8057 19.0093 40.969 19.5026C40.1312 19.9959 39.448 20.7146 38.9985 21.5785C38.6213 20.7146 37.9916 19.9847 37.1938 19.487C36.396 18.9892 35.4658 18.7437 34.5268 18.7861C33.6956 18.7638 32.8722 18.958 32.1357 19.3464C31.3991 19.737 30.7749 20.3084 30.322 21.0093V19.1276H27.3412V33.6585H30.322V25.2257C30.322 23.2012 31.6261 21.8642 33.5421 21.8642C35.3779 21.8642 36.5484 23.1744 36.5484 25.1676V33.6585H39.5292V25.2257C39.5292 23.2012 40.8322 21.8642 42.7493 21.8642C44.5851 21.8642 45.7556 23.1744 45.7556 25.1676V33.6563H48.7365Z" fill="#141A1F"/>
<path fill-rule="evenodd" clip-rule="evenodd" d="M49.9459 26.3931C49.9459 22.0628 53.0602 18.7861 57.2115 18.7861C61.335 18.7861 64.476 22.0628 64.476 26.3931C64.476 30.7233 61.335 34 57.2115 34C53.0602 34 49.9459 30.7233 49.9459 26.3931ZM61.3895 26.3931C61.3895 23.8284 59.606 21.8642 57.2115 21.8642C54.8171 21.8642 53.0068 23.8284 53.0068 26.3931C53.0068 28.9577 54.8171 30.922 57.2115 30.922C58.5923 30.922 59.7695 30.268 60.5195 29.2233C60.7153 28.951 60.8822 28.6519 61.0157 28.3305C61.058 28.2278 61.0969 28.1229 61.1325 28.0158C61.2994 27.5158 61.3895 26.9689 61.3895 26.3931Z" fill="#141A1F"/>
<path d="M68.5862 29.384H65.5531C65.5531 31.9465 67.5759 34 70.3976 34C73.0591 34 75.1876 32.2902 75.1876 29.4131C75.1876 28.085 74.728 27.1185 73.9826 26.4087C73.6577 26.0984 73.2783 25.8395 72.8599 25.6185C72.3625 25.3574 71.8084 25.1542 71.2221 24.9958C69.7311 24.5985 68.7731 24.0003 68.7731 22.9735C68.7809 22.7793 68.8265 22.5874 68.9089 22.4088C68.9912 22.2325 69.1069 22.074 69.2504 21.94C69.394 21.8084 69.5609 21.7057 69.7445 21.6387C69.9269 21.5718 70.1217 21.5427 70.3164 21.5494C70.5333 21.545 70.7503 21.5851 70.9528 21.6677C71.1542 21.7481 71.3378 21.8709 71.4924 22.0249C71.646 22.1789 71.7684 22.3619 71.8496 22.565C71.9319 22.7659 71.972 22.9847 71.9687 23.2012H75.0017C74.9984 22.8998 74.965 22.6007 74.9016 22.3061C74.8393 22.0159 74.7481 21.7325 74.629 21.4601C74.3887 20.9111 74.0415 20.4155 73.6065 20.0026C73.1725 19.5919 72.6596 19.2705 72.0988 19.0629C71.5392 18.8531 70.9417 18.7593 70.3442 18.7861C67.8696 18.7861 65.7411 20.3821 65.7411 23.1744C65.7411 25.9935 67.7662 27.1051 69.76 27.6475C71.1408 28.0448 72.1522 28.614 72.1522 29.6988C72.1411 29.9131 72.0877 30.1251 71.9954 30.3193C71.9687 30.3729 71.9397 30.4264 71.9075 30.4778C71.8529 30.5671 71.7895 30.6496 71.7194 30.7255L71.6482 30.7992L71.6104 30.8327C71.5225 30.9108 71.4268 30.9778 71.3267 31.0336C71.241 31.0827 71.1509 31.1228 71.0574 31.1541C70.8527 31.2233 70.6379 31.2523 70.4232 31.2367C70.1806 31.2389 69.9403 31.192 69.7155 31.0983C69.4919 31.0068 69.2883 30.8684 69.1169 30.6965C68.9456 30.5246 68.8109 30.3193 68.7197 30.0939C68.6285 29.8684 68.584 29.6273 68.5862 29.384Z" fill="#141A1F"/>
<path d="M81.8779 22.0338V30.7233H85.4173V33.6563H78.8971V22.0338H76.3692V19.1276H78.8971V14.0005H81.8779V19.1276H85.4173V22.0338H81.8779Z" fill="#141A1F"/>
<path d="M95.3533 18.6075L92.9711 21.0026L93.7689 21.8017L95.3533 20.208L96.9388 21.7994L97.7366 20.9981L95.3533 18.6075Z" fill="#141A1F"/>
<path fill-rule="evenodd" clip-rule="evenodd" d="M105 20.8285L99.0217 14.8353L97.0178 16.842L97.0167 14.0005H94.857C93.9658 13.9894 93.0824 14.1568 92.259 14.496C91.8918 14.6478 91.5402 14.8309 91.2087 15.0451C90.7948 15.3108 90.4109 15.6232 90.0648 15.9782C89.4407 16.6143 88.9522 17.3732 88.6284 18.2035C88.3046 19.0361 88.1522 19.9245 88.1811 20.8173C88.15 21.7124 88.3002 22.603 88.6229 23.4378C88.9466 24.2726 89.434 25.0315 90.0582 25.6721C90.2273 25.844 90.4042 26.0069 90.59 26.1609C90.8159 26.3462 91.054 26.5158 91.3021 26.6698C91.6059 26.8596 91.9241 27.0225 92.2546 27.1587C93.079 27.5002 93.9647 27.6698 94.857 27.6586H97.0167L97.0178 24.8172L99.0217 26.8261L105 20.8285ZM100.992 20.8285L97.0178 24.8172H94.9049C94.3786 24.8284 93.8568 24.7324 93.3694 24.536C92.8821 24.3373 92.4393 24.0427 92.0687 23.6699C91.9374 23.5382 91.8173 23.3976 91.7071 23.248C91.5057 22.9757 91.34 22.6766 91.2142 22.3597C91.1575 22.2168 91.1096 22.0717 91.0707 21.9244C91.0262 21.7526 90.9928 21.5785 90.9717 21.4043C90.9472 21.2102 90.9372 21.0137 90.9427 20.8173C90.9305 20.2928 91.0251 19.7705 91.2198 19.2839C91.2954 19.0941 91.3856 18.9111 91.4891 18.737C91.6526 18.4625 91.8495 18.2102 92.0765 17.9826C92.447 17.6098 92.8888 17.3174 93.375 17.1232C93.4707 17.0853 93.5675 17.0496 93.6654 17.0183C93.879 16.9513 94.0993 16.9022 94.323 16.8732C94.4175 16.8621 94.5121 16.8531 94.6078 16.8487C94.7068 16.8442 94.8059 16.842 94.9049 16.8442L97.0178 16.842L100.992 20.8285Z" fill="#141A1F"/>
</svg>
