<svg width="115" height="48" viewBox="0 0 115 48" fill="none" xmlns="http://www.w3.org/2000/svg">
<path d="M43.8734 27.9941L42.134 32.8375C42.134 33.0321 41.9406 33.0321 41.9406 33.0321H39.2346C39.0412 33.0321 39.0412 33.0321 39.0412 32.8375C40.587 28.7697 42.9067 21.7953 44.6462 17.1452C44.6462 16.9522 44.8398 16.5644 44.8398 15.5958C44.8398 15.4019 44.8398 15.4019 45.0332 15.4019H48.7054C48.899 15.208 48.899 15.4019 48.899 15.4019C50.8307 21.0198 53.1506 27.0256 55.0833 32.6445C55.0833 32.8377 55.0833 32.8377 54.8908 32.8377H51.7971C51.6046 32.8377 51.6046 32.8377 51.6046 32.6445L49.8644 27.8014H43.8734V27.9941ZM49.2847 25.2823C48.7053 23.5389 47.352 19.8583 46.9659 17.9209C46.5791 19.6644 45.4191 22.7641 44.6462 25.2823H49.2847ZM56.8237 26.4448C56.8237 22.5702 59.7227 19.4703 64.3603 19.4703C64.9417 19.4703 65.5212 19.4703 65.9082 19.6642V13.8523C65.9082 13.6584 65.9082 13.6584 66.1007 13.6584H68.9999C69.1924 13.6584 69.1924 13.6584 69.1924 13.8523V31.4811C69.1924 31.6757 69.1924 31.6757 68.9999 31.6757C67.2597 32.4495 65.3266 33.0321 63.5885 33.0321C59.5284 33.2253 56.8237 31.0949 56.8237 26.4448ZM65.7136 22.3763C65.3266 22.1823 64.7473 22.1823 64.1676 22.1823C61.6556 22.1823 60.1096 23.7328 60.1096 26.4448C60.1096 29.5437 61.8481 30.7071 63.9753 30.7071C64.5548 30.7071 65.3266 30.5123 65.908 30.5123V22.3763H65.7136ZM85.4287 26.2519C85.4287 30.5125 82.7219 33.2253 78.8564 33.2253C74.2186 33.2253 72.2859 29.7385 72.2859 26.4448C72.2859 22.3763 74.9908 19.6642 79.0507 19.6642C83.109 19.4703 85.4287 22.5702 85.4287 26.2519ZM75.5722 26.2519C75.5722 28.963 76.7312 30.7073 78.8566 30.7073C80.5968 30.7073 81.9501 29.5437 81.9501 26.2519C81.9501 23.7328 80.9838 21.7955 78.6641 21.7955C76.9235 21.9884 75.5722 23.5389 75.5722 26.2519ZM91.2271 13.8523C91.4198 13.8523 91.4198 13.8523 91.4198 14.0462V20.245C92.3861 19.8581 93.3525 19.6642 94.3188 19.6642C97.9921 19.6642 100.312 22.3763 100.312 25.8641C100.312 30.5123 96.6385 33.4183 92.3861 33.4183C91.0344 33.4183 89.6813 33.2251 88.3279 32.8375C88.1354 32.8375 88.1354 32.6443 88.1354 32.6443V14.0462C88.1354 13.8523 88.1354 13.8523 88.3279 13.8523H91.2271ZM93.7395 22.1823C92.9675 22.1823 92.1936 22.3763 91.6141 22.5702V30.5123C92.001 30.7071 92.5805 30.7071 93.16 30.7071C95.0927 30.7071 97.4124 29.1577 97.4124 26.0567C97.218 23.5389 95.6724 22.1823 93.7395 22.1823ZM106.497 27.0256C106.497 29.1578 107.849 30.5123 110.555 30.5123C111.521 30.5123 112.681 30.3193 113.841 29.9315C113.841 29.9315 114.034 29.9315 114.034 30.1263V32.2567C114.034 32.4495 114.034 32.4495 113.841 32.6443C112.875 33.2251 111.521 33.4183 109.781 33.4183C104.949 33.4183 103.016 30.1263 103.016 26.6375C103.016 22.7639 105.336 19.6641 109.396 19.6641C113.454 19.6641 115 22.7639 115 25.2821C115 26.4447 114.808 27.0255 114.808 27.0255H106.497V27.0256ZM110.748 24.8944C111.714 24.8944 111.908 24.7016 111.908 24.7016V24.3136C111.908 23.5389 111.329 21.7955 109.202 21.7955C107.463 21.7955 106.497 23.1509 106.303 24.8944H110.748ZM18.5867 11L29.5202 37V11H18.5867ZM0 11V37L10.9335 11H0ZM9.9961 31.7075H14.9946L17.1812 37H21.7107L14.682 20.4965L9.9961 31.7075Z" fill="#141A1F"/>
</svg>
