<svg width="107" height="48" viewBox="0 0 107 48" fill="none" xmlns="http://www.w3.org/2000/svg">
<path d="M26.0813 13.7196H32.7095C35.1679 13.7196 36.7718 13.8288 38.1605 15.3511C39.1226 16.4392 39.6568 17.7444 39.6568 19.268C39.6568 20.7903 39.1226 22.0968 38.0542 23.1836C36.9845 24.2717 35.5958 24.9256 32.0677 24.9256H28.8625V33.9541H26.0826V13.7196H26.0813ZM28.8612 22.6402H32.0677C33.8856 22.6402 36.6642 22.531 36.6642 19.1588C36.6642 16.0037 34.0982 16.0037 32.6019 16.0037H28.8625V22.6402H28.8612ZM48.5295 33.9541C48.3155 33.3015 48.3155 32.5397 48.3155 31.8871C47.0319 34.1712 45.2166 34.3896 44.0393 34.3896C40.8328 34.3896 39.1226 32.5397 39.1226 30.2556C39.1226 29.1675 39.5504 27.3176 41.5809 26.1216C43.0772 25.2506 45.2153 25.2506 46.3913 25.2506C47.0332 25.2506 47.4598 25.2506 48.2092 25.3598C48.2092 23.6191 48.2092 22.8573 47.6737 22.2047C47.1395 21.5521 46.0711 21.3337 45.3229 21.3337C42.757 21.3337 42.543 23.1849 42.543 23.7283H39.9783C40.0846 22.9665 40.1923 21.9876 40.9404 21.1179C42.0088 19.9219 43.933 19.5943 45.4293 19.5943C47.4597 19.5943 49.5979 20.2469 50.346 21.6613C50.7739 22.5323 50.7739 23.1849 50.7739 23.8375L50.6676 30.5819C50.6676 30.799 50.6676 32.6489 50.8815 34.0633H48.5295V33.9541ZM46.7116 26.99C45.6432 26.99 41.6885 26.99 41.6885 29.8188C41.6885 30.6898 42.2227 32.2121 44.5748 32.2121C45.8571 32.2121 46.9255 31.6687 47.5674 30.6885C48.1016 29.7096 48.2092 28.9491 48.2092 26.99C47.7813 27.0992 47.3534 26.99 46.7116 26.99ZM53.0183 13.7196H55.5843V33.9541H53.0183V13.7196ZM66.7014 33.9541C66.4875 33.3015 66.4875 32.5397 66.4875 31.8871C65.2038 34.1712 63.3886 34.3896 62.2113 34.3896C59.0047 34.3896 57.2945 32.5397 57.2945 30.2556C57.2945 29.1675 57.7224 27.3176 59.7529 26.1216C61.2492 25.2506 63.3873 25.2506 64.5633 25.2506C65.2051 25.2506 65.6317 25.2506 66.3811 25.3598C66.3811 23.6191 66.3812 22.8573 65.8457 22.2047C65.3115 21.5521 64.243 21.3337 63.4949 21.3337C60.9289 21.3337 60.715 23.1849 60.715 23.7283H58.1503C58.2566 22.9665 58.3629 21.9876 59.1124 21.1179C60.1808 19.9219 62.1049 19.5943 63.6012 19.5943C65.6317 19.5943 67.7698 20.2469 68.518 21.6613C68.9458 22.5323 68.9458 23.1849 68.9458 23.8375L68.8395 30.5819C68.8395 30.799 68.8395 32.6489 69.0535 34.0633H66.7014V33.9541ZM64.9899 26.9913C63.9215 26.9913 59.9668 26.9913 59.9668 29.8201C59.9668 30.6911 60.501 32.2134 62.8531 32.2134C64.1367 32.2134 65.2051 31.67 65.8457 30.6898C66.3812 29.7109 66.4875 28.9504 66.4875 26.9913C65.9533 27.1005 65.6317 26.9913 64.9912 26.9913H64.9899ZM71.2979 21.5521V19.9206H73.8626V22.2047C74.1841 21.6613 75.1462 19.7035 78.2451 19.7035C79.5288 19.7035 83.2695 20.1377 83.2695 24.4901V34.0633H80.5972V25.1427C80.5972 24.2717 80.4908 23.4007 79.849 22.7494C79.2072 22.0968 78.2451 21.7705 77.3907 21.7705C75.4665 21.7705 73.7563 23.1836 73.7563 26.0124V34.0633H71.1903V21.5521H71.2979ZM84.1252 19.9206H86.5836V16.8747L89.1483 16.0037V19.8127H92.2485V21.7705H89.1496V30.1464C89.1496 30.799 89.1496 31.9963 90.9648 31.9963C91.5003 31.9963 92.0346 31.8871 92.2485 31.8871V33.9541C91.8206 34.0633 91.0725 34.1712 90.1104 34.1712C87.652 34.1712 86.5836 33.4094 86.5836 31.1253V21.7692H84.1239V19.9206H84.1252ZM94.065 13.7196H97.1652V16.6576H94.0663V13.7196H94.065ZM94.279 19.9206H96.845V33.9541H94.279V19.9206ZM99.3033 22.7494C99.3033 21.7705 99.197 20.7903 99.197 19.9206H101.762L101.869 22.6402C102.404 20.6824 104.006 20.0298 105.182 19.9206C105.785 19.8387 106.392 19.8022 107 19.8114V22.4231C106.892 22.4231 106.678 22.3139 106.466 22.3139H105.716C102.617 22.3139 101.976 24.1625 101.976 26.5558V34.062H99.4109V22.7481H99.3033V22.7494ZM10.155 11C4.81042 11 0.427881 15.4603 0.427881 20.8995C0.427881 26.3387 4.81042 30.799 10.155 30.799C15.4997 30.799 19.8822 26.34 19.8822 20.8995C19.8822 15.4603 15.4997 11 10.155 11ZM10.155 27.7531C6.41302 27.7531 3.42045 24.7072 3.42045 20.8995C3.42045 17.0918 6.41302 14.0459 10.155 14.0459C13.8958 14.0459 16.8896 17.0918 16.8896 20.8995C16.782 24.7072 13.7894 27.7531 10.155 27.7531ZM18.8125 29.9293L10.155 33.7357L1.49629 29.9293L0 32.6489L10.155 37L20.3101 32.6489L18.8125 29.9293Z" fill="#141A1F"/>
</svg>
