<svg width="384" height="224" viewBox="0 0 384 224" fill="none" xmlns="http://www.w3.org/2000/svg">
<mask id="mask0_3705_7998" style="mask-type:alpha" maskUnits="userSpaceOnUse" x="0" y="0" width="384" height="224">
<rect width="384" height="224" fill="url(#paint0_radial_3705_7998)"/>
</mask>
<g mask="url(#mask0_3705_7998)">
<rect x="-32" width="56" height="56" stroke="#E0E5EB"/>
<rect x="24" width="56" height="56" stroke="#E0E5EB"/>
<rect x="80" width="56" height="56" stroke="#E0E5EB"/>
<rect x="136" width="56" height="56" stroke="#E0E5EB"/>
<rect x="192" width="56" height="56" stroke="#E0E5EB"/>
<rect x="248" width="56" height="56" stroke="#E0E5EB"/>
<rect x="304" width="56" height="56" stroke="#E0E5EB"/>
<rect x="360" width="56" height="56" stroke="#E0E5EB"/>
<rect x="-32" y="56" width="56" height="56" stroke="#E0E5EB"/>
<rect x="24" y="56" width="56" height="56" stroke="#E0E5EB"/>
<rect x="80" y="56" width="56" height="56" stroke="#E0E5EB"/>
<rect x="136" y="56" width="56" height="56" stroke="#E0E5EB"/>
<rect x="192" y="56" width="56" height="56" stroke="#E0E5EB"/>
<rect x="248" y="56" width="56" height="56" stroke="#E0E5EB"/>
<rect x="304" y="56" width="56" height="56" stroke="#E0E5EB"/>
<rect x="360" y="56" width="56" height="56" stroke="#E0E5EB"/>
<rect x="-32" y="112" width="56" height="56" stroke="#E0E5EB"/>
<rect x="24" y="112" width="56" height="56" stroke="#E0E5EB"/>
<rect x="80" y="112" width="56" height="56" stroke="#E0E5EB"/>
<rect x="136" y="112" width="56" height="56" stroke="#E0E5EB"/>
<rect x="192" y="112" width="56" height="56" stroke="#E0E5EB"/>
<rect x="248" y="112" width="56" height="56" stroke="#E0E5EB"/>
<rect x="304" y="112" width="56" height="56" stroke="#E0E5EB"/>
<rect x="360" y="112" width="56" height="56" stroke="#E0E5EB"/>
<rect x="-32" y="168" width="56" height="56" stroke="#E0E5EB"/>
<rect x="24" y="168" width="56" height="56" stroke="#E0E5EB"/>
<rect x="80" y="168" width="56" height="56" stroke="#E0E5EB"/>
<rect x="136" y="168" width="56" height="56" stroke="#E0E5EB"/>
<rect x="192" y="168" width="56" height="56" stroke="#E0E5EB"/>
<rect x="248" y="168" width="56" height="56" stroke="#E0E5EB"/>
<rect x="304" y="168" width="56" height="56" stroke="#E0E5EB"/>
<rect x="360" y="168" width="56" height="56" stroke="#E0E5EB"/>
<rect x="137" y="56" width="111" height="111" fill="white"/>
</g>
<path d="M52 166.871V196H332V111" stroke="#A7B1BE" stroke-width="3" stroke-linecap="round" stroke-linejoin="round" stroke-dasharray="0.01 10"/>
<rect x="267.536" y="139.728" width="13" height="13" transform="rotate(-45 267.536 139.728)" fill="white" stroke="#FFBF00" stroke-width="5"/>
<rect x="101.5" y="77.5" width="13" height="13" fill="white" stroke="#0073E6" stroke-width="5"/>
<path d="M335.771 77.3418H328.174L324.359 84.0665L328.157 90.7224H335.77L339.567 84.0665L335.771 77.3418ZM334.758 88.8977H329.167L326.383 84.0487L329.169 79.1487H334.76L337.546 84.0487L334.758 88.8977Z" fill="#141A1F"/>
<path d="M326.383 84.0672L329.169 88.8996H334.76L337.564 84.0672L334.76 79.0996H329.169L326.383 84.0672Z" fill="#E83030"/>
<path d="M335.771 91.6377H328.174L324.359 98.3446L328.157 105.001H335.77L339.567 98.3446L335.771 91.6377ZM334.758 103.245H329.167L326.383 98.3956L329.169 93.4957H334.76L337.546 98.3956L334.758 103.245Z" fill="#141A1F"/>
<path d="M326.383 98.3453L329.169 103.245H334.76L337.564 98.3453L334.76 93.4453H329.169L326.383 98.3453Z" fill="#6B91C7"/>
<path d="M335.771 63H328.174L324.359 69.7247L328.174 76.3807H335.787L339.585 69.7247L335.771 63ZM334.758 74.5559H329.167L326.383 69.7069L329.169 64.7571H334.76L337.546 69.6571L334.758 74.5559Z" fill="#141A1F"/>
<path d="M326.383 69.7225L329.169 74.5549H334.76L337.564 69.7225L334.76 64.7549H329.169L326.383 69.7225Z" fill="#F9C31F"/>
<path d="M348.123 84.542H340.586L336.789 91.2667L340.586 97.9226H348.2L351.997 91.2667L348.123 84.542ZM347.109 96.1264H341.518L338.732 91.2774L341.518 86.3774H347.109L349.896 91.2774L347.109 96.1264Z" fill="#141A1F"/>
<path d="M338.727 91.2889L341.553 96.1379H347.128L349.982 91.2889L347.128 86.3213H341.553L338.727 91.2889Z" fill="#795AA5"/>
<path d="M348.123 70.1973H340.586L336.789 76.8532L340.586 83.5091H348.2L351.997 76.8532L348.123 70.1973ZM347.109 81.7698H341.518L338.732 76.9208L341.518 72.0208H347.109L349.896 76.9208L347.109 81.7698Z" fill="#141A1F"/>
<path d="M338.727 76.9247L341.508 81.8391H347.129L349.982 76.9901L347.129 72.0225L341.508 72.0225L338.727 76.9247Z" fill="#F17423"/>
<path d="M323.345 84.542H315.797L312 91.2667L315.797 97.9226H323.41L327.208 91.2667L323.345 84.542ZM322.332 96.1157H316.808L314.022 91.2667L316.808 86.3667H322.399L325.186 91.2667L322.332 96.1157Z" fill="#141A1F"/>
<path d="M314.02 91.2645L316.806 96.1135H322.329L325.183 91.2645L322.329 86.2969H316.806L314.02 91.2645Z" fill="#97C639"/>
<path d="M323.345 70.1973H315.797L312 76.8532L315.797 83.5091H323.41L327.208 76.8532L323.345 70.1973ZM322.332 81.771H316.808L314.022 76.922L316.808 72.022H322.399L325.186 76.922L322.332 81.771Z" fill="#141A1F"/>
<path d="M314.02 76.9227L316.806 81.7717H322.329L325.183 76.9227L322.329 71.9551H316.806L314.02 76.9227Z" fill="#C9DB70"/>
<path fill-rule="evenodd" clip-rule="evenodd" d="M206.602 66.2733C207.822 66.8979 208.305 68.3932 207.68 69.6131C206.447 72.0217 205.78 75.4765 205.525 79.0276C205.274 82.5325 205.441 85.8494 205.699 87.8016C205.879 89.1603 204.922 90.407 203.564 90.5861C202.205 90.7651 200.958 89.8088 200.778 88.4501C200.475 86.1542 200.3 82.5002 200.575 78.6707C200.846 74.8874 201.576 70.6443 203.262 67.351C203.886 66.1311 205.381 65.6486 206.602 66.2733Z" fill="#1A1A1A"/>
<path d="M192.189 105.561C193.679 98.4821 178.534 97.3268 170.776 97.634C140.188 98.292 152.974 117.046 169.908 119.137C176.877 119.997 190.327 114.41 192.189 105.561Z" fill="#CFEDFC"/>
<path d="M154.57 101.564C155.429 100.856 156.543 100.215 157.941 99.665L158.377 101.035L160.596 103.845L163.846 106.792L166.344 106.421L178.826 105.127L191.947 106.531C191.534 107.847 190.866 109.084 190.007 110.231C186.124 109.453 177.057 109.222 172.133 109.213C170.815 110.761 170.338 116.025 170.235 119.169C170.129 119.159 170.024 119.148 169.92 119.135C168.538 118.965 167.183 118.683 165.878 118.309C165.757 115.851 166.605 112.336 167.222 110.385C163.362 110.595 159.279 112.501 157.027 113.83C155.989 112.996 155.089 112.107 154.359 111.189L159.363 108.44C158.59 108.048 156.15 104.197 154.57 101.564Z" fill="#00ACE6"/>
<path d="M189.608 114.109L194.105 117.15L173.784 147.214L168.901 143.912L165.151 138.381L163.273 129.249L166.636 121.227L174.707 123.69L189.608 114.109Z" fill="#FFE100"/>
<path fill-rule="evenodd" clip-rule="evenodd" d="M185.512 94.1173C191.54 81.119 206.204 84.306 213.13 88.9887L194.098 117.145L191.914 115.668C189.14 118.884 183.476 121.319 180.99 122.134C181.243 125.749 184.276 128.537 185.761 129.479L179.509 138.729C172.211 133.794 170.079 126.737 169.925 123.825L167.216 123.678C162.433 134.521 169.933 142.924 174.559 146.052L166.531 157.865L167.887 146.782C158.783 138.979 160.412 127.189 162.364 122.269C156.092 121.024 145.207 111.923 147.252 104.189C150.813 90.7222 174.176 90.9454 185.512 94.1173ZM192.202 105.517C193.62 98.4772 178.522 97.3274 170.78 97.634C165.858 97.7399 162.059 98.3143 159.22 99.2125C160.483 103.137 163.413 105.089 164.836 105.595C173.813 103.554 185.469 104.496 192.202 105.517ZM191.636 107.375C186.941 106.765 179.944 106.608 176.314 106.618C171.385 109.983 170.753 115.659 171.172 119.222C177.849 119.336 188.67 114.683 191.636 107.375ZM168.921 118.994C168.02 113.833 170.919 108.963 172.699 106.981C163.57 107.329 157.815 109.92 155.004 111.953C158.012 115.245 163.177 118.058 168.921 118.994ZM153.405 109.824C155.662 108.445 159.705 107.176 161.905 106.608C158.724 104.23 157.335 101.747 156.844 100.14C151.869 102.531 151.305 106.276 153.405 109.824Z" fill="#1A1A1A"/>
<path fill-rule="evenodd" clip-rule="evenodd" d="M236.535 86.5293C235.501 85.6297 233.934 85.7388 233.035 86.7728C231.259 88.8144 228.302 90.7208 225.103 92.2808C221.945 93.8205 218.805 94.901 216.897 95.3892C215.57 95.729 214.769 97.0808 215.109 98.4085C215.45 99.7362 216.802 100.537 218.129 100.197C220.372 99.6232 223.828 98.4244 227.278 96.742C230.687 95.08 234.352 92.8217 236.78 90.0302C237.679 88.9962 237.569 87.4288 236.535 86.5293Z" fill="#1A1A1A"/>
<path d="M205.484 114.534C211.497 110.513 218.212 124.139 220.818 131.455C231.606 160.089 209.442 155.211 201.192 140.273C197.796 134.125 197.967 119.56 205.484 114.534Z" fill="#CFEDFC"/>
<path d="M223.215 147.885C223.552 146.824 223.731 145.551 223.72 144.048L222.287 144.154L218.853 143.142L214.907 141.223L214.321 138.767L210.87 126.7L204.678 115.045C203.611 115.918 202.712 116.999 201.968 118.224C204.137 121.538 207.73 129.867 209.574 134.434C208.628 136.234 203.921 138.639 201.043 139.906C201.092 140.001 201.142 140.094 201.192 140.186C201.865 141.405 202.632 142.557 203.465 143.63C205.791 142.826 208.736 140.729 210.316 139.429C211.56 143.09 211.312 147.59 210.919 150.175C212.079 150.828 213.24 151.332 214.363 151.667L215.049 145.999C215.701 146.569 220.183 147.4 223.215 147.885Z" fill="#00ACE6"/>
<path d="M198.587 120.187L194.09 117.146L173.77 147.21L178.652 150.511L185.181 151.931L194.354 150.271L200.543 144.16L195.251 137.587L198.587 120.187Z" fill="#FFE100"/>
<path fill-rule="evenodd" clip-rule="evenodd" d="M218.568 116.48C228.382 106.041 219.96 93.6182 213.035 88.9355L194.003 117.092L196.188 118.569C194.237 122.341 194.089 128.506 194.259 131.117C190.811 132.23 187.094 130.453 185.667 129.425L179.414 138.676C186.713 143.611 194.055 142.959 196.814 142.017L197.96 144.476C189.682 152.956 179.09 149.127 174.464 145.999L166.516 157.881L176.273 152.463C186.905 158.005 197.237 152.1 201.074 148.455C204.568 153.812 217.068 160.523 223.481 155.743C234.649 147.42 225.735 125.819 218.568 116.48ZM205.499 114.518C211.502 110.579 218.195 124.163 220.795 131.464C222.531 136.071 223.414 139.811 223.639 142.781C219.527 143.071 216.624 141.079 215.624 139.947C214.172 130.855 208.955 120.387 205.499 114.518ZM203.985 115.736C206.301 119.867 209.054 126.302 210.398 129.675C209.112 135.504 204.082 138.206 200.62 139.144C198.026 132.99 198.311 121.213 203.985 115.736ZM201.67 141.149C206.794 140.062 210.232 135.556 211.408 133.166C214.487 141.768 214.228 148.075 213.389 151.442C209.214 149.877 204.679 146.131 201.67 141.149ZM215.96 152.132C216.399 149.524 216.069 145.299 215.776 143.045C219.168 145.111 221.99 145.475 223.663 145.332C223.298 150.84 220.035 152.759 215.96 152.132Z" fill="#1A1A1A"/>
<circle cx="52" cy="140" r="18" fill="#00877C"/>
<path d="M58 136H57V134C57 131.24 54.76 129 52 129C49.24 129 47 131.24 47 134V136H46C44.9 136 44 136.9 44 138V148C44 149.1 44.9 150 46 150H58C59.1 150 60 149.1 60 148V138C60 136.9 59.1 136 58 136ZM52 145C50.9 145 50 144.1 50 143C50 141.9 50.9 141 52 141C53.1 141 54 141.9 54 143C54 144.1 53.1 145 52 145ZM55.1 136H48.9V134C48.9 132.29 50.29 130.9 52 130.9C53.71 130.9 55.1 132.29 55.1 134V136Z" fill="white"/>
<defs>
<radialGradient id="paint0_radial_3705_7998" cx="0" cy="0" r="1" gradientUnits="userSpaceOnUse" gradientTransform="translate(192 112) rotate(90) scale(112 192)">
<stop offset="0.0892857" stop-color="#F6F7F8"/>
<stop offset="1" stop-color="#F6F7F8" stop-opacity="0"/>
</radialGradient>
</defs>
</svg>
