<svg width="384" height="224" viewBox="0 0 384 224" fill="none" xmlns="http://www.w3.org/2000/svg">
<mask id="mask0_4718_15563" style="mask-type:alpha" maskUnits="userSpaceOnUse" x="0" y="0" width="384" height="224">
<rect width="384" height="224" fill="url(#paint0_radial_4718_15563)"/>
</mask>
<g mask="url(#mask0_4718_15563)">
<rect x="-32" width="56" height="56" stroke="#E0E5EB"/>
<rect x="24" width="56" height="56" stroke="#E0E5EB"/>
<rect x="80" width="56" height="56" stroke="#E0E5EB"/>
<rect x="136" width="56" height="56" stroke="#E0E5EB"/>
<rect x="192" width="56" height="56" stroke="#E0E5EB"/>
<rect x="248" width="56" height="56" stroke="#E0E5EB"/>
<rect x="304" width="56" height="56" stroke="#E0E5EB"/>
<rect x="360" width="56" height="56" stroke="#E0E5EB"/>
<rect x="-32" y="56" width="56" height="56" stroke="#E0E5EB"/>
<rect x="24" y="56" width="56" height="56" stroke="#E0E5EB"/>
<rect x="80" y="56" width="56" height="56" stroke="#E0E5EB"/>
<rect x="136" y="56" width="56" height="56" stroke="#E0E5EB"/>
<rect x="192" y="56" width="56" height="56" stroke="#E0E5EB"/>
<rect x="248" y="56" width="56" height="56" stroke="#E0E5EB"/>
<rect x="304" y="56" width="56" height="56" stroke="#E0E5EB"/>
<rect x="360" y="56" width="56" height="56" stroke="#E0E5EB"/>
<rect x="-32" y="112" width="56" height="56" stroke="#E0E5EB"/>
<rect x="24" y="112" width="56" height="56" stroke="#E0E5EB"/>
<rect x="80" y="112" width="56" height="56" stroke="#E0E5EB"/>
<rect x="136" y="112" width="56" height="56" stroke="#E0E5EB"/>
<rect x="192" y="112" width="56" height="56" stroke="#E0E5EB"/>
<rect x="248" y="112" width="56" height="56" stroke="#E0E5EB"/>
<rect x="304" y="112" width="56" height="56" stroke="#E0E5EB"/>
<rect x="360" y="112" width="56" height="56" stroke="#E0E5EB"/>
<rect x="-32" y="168" width="56" height="56" stroke="#E0E5EB"/>
<rect x="24" y="168" width="56" height="56" stroke="#E0E5EB"/>
<rect x="80" y="168" width="56" height="56" stroke="#E0E5EB"/>
<rect x="136" y="168" width="56" height="56" stroke="#E0E5EB"/>
<rect x="192" y="168" width="56" height="56" stroke="#E0E5EB"/>
<rect x="248" y="168" width="56" height="56" stroke="#E0E5EB"/>
<rect x="304" y="168" width="56" height="56" stroke="#E0E5EB"/>
<rect x="360" y="168" width="56" height="56" stroke="#E0E5EB"/>
</g>
<circle cx="332" cy="84" r="18" fill="#0073E6"/>
<path d="M338.749 76.6875H325.25C324.653 76.6875 324.081 76.913 323.659 77.3145C323.237 77.716 323 78.2605 323 78.8283V79.2564L331.999 84.0731L340.999 79.3635V78.8283C340.999 78.2605 340.762 77.716 340.34 77.3145C339.918 76.913 339.346 76.6875 338.749 76.6875Z" fill="white"/>
<path d="M331.437 85.854L323 81.3584V89.1722C323 89.74 323.237 90.2845 323.659 90.6859C324.081 91.0874 324.653 91.3129 325.25 91.3129H338.749C339.346 91.3129 339.918 91.0874 340.34 90.6859C340.762 90.2845 340.999 89.74 340.999 89.1722V81.3584L332.562 85.854C332.385 85.9281 332.193 85.9664 331.999 85.9664C331.806 85.9664 331.614 85.9281 331.437 85.854Z" fill="white"/>
<path d="M55.2094 134.293H48.7509L45.5078 140.057L48.7361 145.762H55.2084L58.4366 140.057L55.2094 134.293ZM54.3479 144.198H49.5946L47.2279 140.042L49.5966 135.842H54.3498L56.7185 140.042L54.3479 144.198Z" fill="#141A1F"/>
<path d="M47.2266 140.058L49.5953 144.2H54.3485L56.7321 140.058L54.3485 135.8H49.5953L47.2266 140.058Z" fill="#E83030"/>
<path d="M55.2094 146.547H48.7509L45.5078 152.296L48.7361 158.001H55.2084L58.4366 152.296L55.2094 146.547ZM54.3479 156.496H49.5946L47.2279 152.339L49.5966 148.139H54.3498L56.7185 152.339L54.3479 156.496Z" fill="#141A1F"/>
<path d="M47.2266 152.296L49.5953 156.496H54.3485L56.7321 152.296L54.3485 148.096H49.5953L47.2266 152.296Z" fill="#6B91C7"/>
<path d="M55.2094 122H48.7509L45.5078 127.764L48.7509 133.469H55.2233L58.4515 127.764L55.2094 122ZM54.3479 131.905H49.5946L47.2279 127.749L49.5966 123.506H54.3498L56.7185 127.706L54.3479 131.905Z" fill="#141A1F"/>
<path d="M47.2266 127.763L49.5953 131.905H54.3485L56.7321 127.763L54.3485 123.505H49.5953L47.2266 127.763Z" fill="#F9C31F"/>
<path d="M65.7094 140.464H59.3025L56.0742 146.228L59.3025 151.933H65.7748L69.0031 146.228L65.7094 140.464ZM64.8479 150.393H60.0947L57.726 146.237L60.0947 142.037H64.8479L67.2166 146.237L64.8479 150.393Z" fill="#141A1F"/>
<path d="M57.7226 146.247L60.1254 150.403H64.8655L67.2917 146.247L64.8655 141.989H60.1254L57.7226 146.247Z" fill="#795AA5"/>
<path d="M65.7094 128.169H59.3025L56.0742 133.874L59.3025 139.579H65.7748L69.0031 133.874L65.7094 128.169ZM64.8479 138.088H60.0947L57.726 133.932L60.0947 129.732H64.8479L67.2166 133.932L64.8479 138.088Z" fill="#141A1F"/>
<path d="M57.7227 133.936L60.0873 138.148H64.8656L67.2918 133.992L64.8656 129.734L60.0873 129.734L57.7227 133.936Z" fill="#F17423"/>
<path d="M44.6451 140.464H38.2282L35 146.228L38.2282 151.933H44.7006L47.9288 146.228L44.6451 140.464ZM43.7836 150.384H39.0878L36.7191 146.228L39.0878 142.028H43.841L46.2097 146.228L43.7836 150.384Z" fill="#141A1F"/>
<path d="M36.7188 146.227L39.0875 150.383H43.7833L46.2094 146.227L43.7833 141.969H39.0875L36.7188 146.227Z" fill="#97C639"/>
<path d="M44.6451 128.169H38.2282L35 133.874L38.2282 139.579H44.7006L47.9288 133.874L44.6451 128.169ZM43.7836 138.089H39.0878L36.7191 133.933L39.0878 129.733H43.841L46.2097 133.933L43.7836 138.089Z" fill="#141A1F"/>
<path d="M36.7188 133.934L39.0875 138.09H43.7833L46.2094 133.934L43.7833 129.676H39.0875L36.7188 133.934Z" fill="#C9DB70"/>
<rect x="136.5" y="56.5" width="111" height="111" fill="white"/>
<circle cx="192.5" cy="111.5" r="47" fill="#F2F9F9" stroke="#00877C" stroke-width="4"/>
<path fill-rule="evenodd" clip-rule="evenodd" d="M166.5 134V98C166.5 96.3431 167.843 95 169.5 95H171.5H185.757C186.023 95 186.277 95.1054 186.464 95.2929L193.707 102.536C194.645 103.473 195.917 104 197.243 104H213.5H215.5C217.157 104 218.5 105.343 218.5 107V134C218.5 135.657 217.157 137 215.5 137H169.5C167.843 137 166.5 135.657 166.5 134ZM213.5 100V87C213.5 85.3431 212.157 84 210.5 84H174.5C172.843 84 171.5 85.3431 171.5 87V91H185.757C187.083 91 188.355 91.5268 189.293 92.4645L196.536 99.7071C196.723 99.8946 196.977 100 197.243 100H213.5ZM192.5 109.496C193.328 109.496 194 110.167 194 110.996V118.379L195.439 116.939C196.025 116.354 196.975 116.354 197.561 116.939C198.146 117.525 198.146 118.475 197.561 119.061L193.561 123.061C192.975 123.646 192.025 123.646 191.439 123.061L187.439 119.061C186.854 118.475 186.854 117.525 187.439 116.939C188.025 116.354 188.975 116.354 189.561 116.939L191 118.379V110.996C191 110.167 191.672 109.496 192.5 109.496ZM183.5 126.5C182.672 126.5 182 127.171 182 128C182 128.828 182.672 129.5 183.5 129.5H201.5C202.328 129.5 203 128.828 203 128C203 127.171 202.328 126.5 201.5 126.5H183.5Z" fill="#00877C"/>
<path d="M51.6562 116.5V84H107.656V141H144.156" stroke="#A7B1BE" stroke-width="3" stroke-linecap="round" stroke-linejoin="round" stroke-dasharray="0.01 10"/>
<path d="M73 83L79 77L85 83L79 89L73 83Z" fill="#0073E6"/>
<path d="M332 107V140H276V84H242" stroke="#A7B1BE" stroke-width="3" stroke-linecap="round" stroke-linejoin="round" stroke-dasharray="0.01 10"/>
<path d="M299.5 144.5V135.5L308.5 135.5V144.5L299.5 144.5Z" fill="#00877C"/>
<circle cx="108" cy="140" r="5" fill="#EB4748"/>
<circle cx="276" cy="84" r="5" fill="#FFBF00"/>
<defs>
<radialGradient id="paint0_radial_4718_15563" cx="0" cy="0" r="1" gradientUnits="userSpaceOnUse" gradientTransform="translate(192 112) rotate(90) scale(112 192)">
<stop offset="0.0892857" stop-color="#F6F7F8"/>
<stop offset="1" stop-color="#F6F7F8" stop-opacity="0"/>
</radialGradient>
</defs>
</svg>
