<svg width="384" height="224" viewBox="0 0 384 224" fill="none" xmlns="http://www.w3.org/2000/svg">
<mask id="mask0_4718_15481" style="mask-type:alpha" maskUnits="userSpaceOnUse" x="0" y="0" width="384" height="224">
<rect width="384" height="224" fill="url(#paint0_radial_4718_15481)"/>
</mask>
<g mask="url(#mask0_4718_15481)">
<rect x="-32" width="56" height="56" stroke="#E0E5EB"/>
<rect x="24" width="56" height="56" stroke="#E0E5EB"/>
<rect x="80" width="56" height="56" stroke="#E0E5EB"/>
<rect x="136" width="56" height="56" stroke="#E0E5EB"/>
<rect x="192" width="56" height="56" stroke="#E0E5EB"/>
<rect x="248" width="56" height="56" stroke="#E0E5EB"/>
<rect x="304" width="56" height="56" stroke="#E0E5EB"/>
<rect x="360" width="56" height="56" stroke="#E0E5EB"/>
<rect x="-32" y="56" width="56" height="56" stroke="#E0E5EB"/>
<rect x="24" y="56" width="56" height="56" stroke="#E0E5EB"/>
<rect x="80" y="56" width="56" height="56" stroke="#E0E5EB"/>
<rect x="136" y="56" width="56" height="56" stroke="#E0E5EB"/>
<rect x="192" y="56" width="56" height="56" stroke="#E0E5EB"/>
<rect x="248" y="56" width="56" height="56" stroke="#E0E5EB"/>
<rect x="304" y="56" width="56" height="56" stroke="#E0E5EB"/>
<rect x="360" y="56" width="56" height="56" stroke="#E0E5EB"/>
<rect x="-32" y="112" width="56" height="56" stroke="#E0E5EB"/>
<rect x="24" y="112" width="56" height="56" stroke="#E0E5EB"/>
<rect x="80" y="112" width="56" height="56" stroke="#E0E5EB"/>
<rect x="136" y="112" width="56" height="56" stroke="#E0E5EB"/>
<rect x="192" y="112" width="56" height="56" stroke="#E0E5EB"/>
<rect x="248" y="112" width="56" height="56" stroke="#E0E5EB"/>
<rect x="304" y="112" width="56" height="56" stroke="#E0E5EB"/>
<rect x="360" y="112" width="56" height="56" stroke="#E0E5EB"/>
<rect x="-32" y="168" width="56" height="56" stroke="#E0E5EB"/>
<rect x="24" y="168" width="56" height="56" stroke="#E0E5EB"/>
<rect x="80" y="168" width="56" height="56" stroke="#E0E5EB"/>
<rect x="136" y="168" width="56" height="56" stroke="#E0E5EB"/>
<rect x="192" y="168" width="56" height="56" stroke="#E0E5EB"/>
<rect x="248" y="168" width="56" height="56" stroke="#E0E5EB"/>
<rect x="304" y="168" width="56" height="56" stroke="#E0E5EB"/>
<rect x="360" y="168" width="56" height="56" stroke="#E0E5EB"/>
</g>
<path fill-rule="evenodd" clip-rule="evenodd" d="M70 140C70 149.941 61.9411 158 52 158C42.0589 158 34 149.941 34 140C34 130.059 42.0589 122 52 122C61.9411 122 70 130.059 70 140ZM52.6926 134.012L44.8514 141.852C44.7825 141.921 44.7329 142.007 44.7074 142.102L43.0199 148.289C42.9938 148.385 42.9934 148.486 43.0189 148.582C43.0443 148.677 43.0947 148.765 43.1648 148.835C43.2349 148.905 43.3224 148.955 43.4182 148.981C43.5141 149.006 43.615 149.006 43.7106 148.98L49.8981 147.292C49.9925 147.267 50.0786 147.217 50.1479 147.148L57.988 139.307L52.6926 134.012ZM57.597 131.494L60.5062 134.403C60.8226 134.72 61.0003 135.149 61.0003 135.596C61.0003 136.044 60.8226 136.473 60.5062 136.789L59.1821 138.114L53.8867 132.818L55.2108 131.494C55.5273 131.178 55.9564 131 56.4039 131C56.8514 131 57.2805 131.178 57.597 131.494Z" fill="#00877C"/>
<circle cx="332" cy="84" r="18" fill="#3B2642"/>
<path fill-rule="evenodd" clip-rule="evenodd" d="M328.999 72.751C327.755 72.7519 326.749 73.7592 326.75 75.0004C326.749 76.2415 327.756 77.2488 329 77.2497H331.25V75.0013C331.251 73.7601 330.244 72.7528 328.999 72.751C329 72.751 329 72.751 328.999 72.751V72.751ZM328.999 78.7505H323C321.757 78.7515 320.749 79.7587 320.75 80.9999C320.748 82.2411 321.756 83.2484 322.999 83.2502H328.999C330.243 83.2493 331.25 82.242 331.249 81.0008C331.25 79.7587 330.243 78.7515 328.999 78.7505V78.7505Z" fill="#36C5F0"/>
<path fill-rule="evenodd" clip-rule="evenodd" d="M343.245 80.9989C343.246 79.7577 342.239 78.7505 340.995 78.7496C339.751 78.7505 338.744 79.7577 338.745 80.9989V83.2492H340.995C342.239 83.2483 343.246 82.241 343.245 80.9989ZM337.246 80.9989V74.9994C337.246 73.7591 336.24 72.7518 334.996 72.75C333.753 72.7509 332.745 73.7582 332.746 74.9994V80.9989C332.744 82.2401 333.752 83.2474 334.995 83.2492C336.239 83.2483 337.246 82.241 337.246 80.9989Z" fill="#2EB67D"/>
<path fill-rule="evenodd" clip-rule="evenodd" d="M334.992 95.2472C336.236 95.2463 337.244 94.239 337.243 92.9978C337.244 91.7566 336.236 90.7494 334.992 90.7485H332.742V92.9978C332.741 94.2381 333.749 95.2454 334.992 95.2472ZM334.992 89.2467H340.992C342.236 89.2458 343.243 88.2386 343.242 86.9974C343.244 85.7562 342.237 84.7489 340.993 84.7471H334.993C333.75 84.748 332.742 85.7553 332.743 86.9964C332.742 88.2386 333.749 89.2458 334.992 89.2467V89.2467Z" fill="#ECB22E"/>
<path fill-rule="evenodd" clip-rule="evenodd" d="M320.75 87.0004C320.749 88.2415 321.757 89.2488 323 89.2497C324.244 89.2488 325.251 88.2415 325.25 87.0004V84.751H323C321.757 84.7519 320.749 85.7592 320.75 87.0004ZM326.75 87.0004V92.9999C326.748 94.2411 327.755 95.2484 328.999 95.2502C330.243 95.2493 331.25 94.242 331.249 93.0008V87.0022C331.251 85.761 330.243 84.7537 329 84.7519C327.755 84.7519 326.749 85.7592 326.75 87.0004C326.75 87.0013 326.75 87.0004 326.75 87.0004Z" fill="#E01E5A"/>
<rect x="136.5" y="56.5" width="111" height="111" fill="white"/>
<path d="M52 165.556V192H192V165" stroke="#A7B1BE" stroke-width="3" stroke-linecap="round" stroke-linejoin="round" stroke-dasharray="0.01 10"/>
<path d="M332 56.7778L332 32L192 32L192 59" stroke="#A7B1BE" stroke-width="3" stroke-linecap="round" stroke-linejoin="round" stroke-dasharray="0.01 10"/>
<rect x="266.102" y="141.899" width="14" height="14" transform="rotate(-45 266.102 141.899)" fill="#FFBF00"/>
<circle cx="192" cy="112" r="47" fill="#EBF5FF" stroke="#0073E6" stroke-width="4"/>
<path fill-rule="evenodd" clip-rule="evenodd" d="M214 140C215.657 140 217 138.657 217 137L217 87C217 85.3432 215.657 84 214 84L170 84C168.343 84 167 85.3431 167 87L167 137C167 138.657 168.343 140 170 140L214 140ZM199 92C197.895 92 197 92.8954 197 94C197 95.1046 197.895 96 199 96L208 96C209.105 96 210 95.1046 210 94C210 92.8954 209.105 92 208 92H199ZM199 104C197.895 104 197 104.895 197 106C197 107.105 197.895 108 199 108H208C209.105 108 210 107.105 210 106C210 104.895 209.105 104 208 104H199ZM174 130C174 128.895 174.895 128 176 128L198 128C199.105 128 200 128.895 200 130C200 131.105 199.105 132 198 132L176 132C174.895 132 174 131.105 174 130ZM176 116C174.895 116 174 116.895 174 118C174 119.105 174.895 120 176 120L208 120C209.105 120 210 119.105 210 118C210 116.895 209.105 116 208 116L176 116ZM174 94C174 92.8954 174.895 92 176 92H188C189.105 92 190 92.8954 190 94V106C190 107.105 189.105 108 188 108H176C174.895 108 174 107.105 174 106V94Z" fill="#0073E6"/>
<rect x="101.5" y="76.5" width="13" height="13" fill="white" stroke="#EB4748" stroke-width="5"/>
<defs>
<radialGradient id="paint0_radial_4718_15481" cx="0" cy="0" r="1" gradientUnits="userSpaceOnUse" gradientTransform="translate(192 112) rotate(90) scale(112 192)">
<stop offset="0.0892857" stop-color="#F6F7F8"/>
<stop offset="1" stop-color="#F6F7F8" stop-opacity="0"/>
</radialGradient>
</defs>
</svg>
