<svg width="309" height="280" viewBox="0 0 309 280" fill="none" xmlns="http://www.w3.org/2000/svg">
<circle cx="169" cy="140" r="99" stroke="#F0F2F4" stroke-width="2"/>
<circle cx="169" cy="140" r="138" stroke="#D1D7E0" stroke-width="2.5" stroke-linecap="round" stroke-linejoin="round" stroke-dasharray="0.01 10"/>
<circle cx="253" cy="86" r="4" fill="#FFBF00"/>
<circle cx="86" cy="194" r="4" fill="#EB4748"/>
<path d="M93.6083 90.5033L91.4938 88.3885C91.2438 88.1385 90.9047 87.998 90.5512 87.998C90.1976 87.998 89.8586 88.1385 89.6086 88.3885L87.8047 90.1926L91.8044 94.1929L93.6083 92.3887C93.8582 92.1387 93.9987 91.7996 93.9987 91.446C93.9987 91.0924 93.8582 90.7533 93.6083 90.5033Z" fill="white"/>
<path d="M86.8607 91.1348L79.3332 98.6633L78 103.997L83.333 102.664L90.8605 95.135L86.8607 91.1348Z" fill="white"/>
<circle cx="86" cy="86" r="16" fill="#0073E6"/>
<path d="M91.9992 79.5H79.9999C79.4695 79.5 78.9608 79.7005 78.5858 80.0573C78.2107 80.4142 78 80.8982 78 81.4029V81.7835L85.9995 86.065L93.999 81.8786V81.4029C93.999 80.8982 93.7883 80.4142 93.4133 80.0573C93.0382 79.7005 92.5296 79.5 91.9992 79.5Z" fill="white"/>
<path d="M85.4995 87.6475L78 83.6514V90.597C78 91.1016 78.2107 91.5856 78.5858 91.9425C78.9608 92.2994 79.4695 92.4999 79.9999 92.4999H91.9992C92.5296 92.4999 93.0382 92.2994 93.4133 91.9425C93.7883 91.5856 93.999 91.1016 93.999 90.597V83.6514L86.4995 87.6475C86.3419 87.7133 86.1716 87.7474 85.9995 87.7474C85.8274 87.7474 85.6571 87.7133 85.4995 87.6475Z" fill="white"/>
<path d="M262 199.723C261.362 200.006 260.69 200.183 259.981 200.289C260.69 199.864 261.256 199.191 261.504 198.377C260.831 198.766 260.087 199.05 259.273 199.227C258.635 198.554 257.715 198.129 256.723 198.129C254.81 198.129 253.252 199.687 253.252 201.6C253.252 201.883 253.287 202.131 253.358 202.379C250.49 202.237 247.904 200.856 246.169 198.731C245.885 199.262 245.708 199.829 245.708 200.466C245.708 201.671 246.31 202.733 247.267 203.371C246.7 203.335 246.169 203.193 245.673 202.946V202.981C245.673 204.681 246.877 206.098 248.471 206.416C248.188 206.487 247.869 206.523 247.55 206.523C247.337 206.523 247.09 206.487 246.877 206.452C247.338 207.833 248.612 208.86 250.135 208.86C248.931 209.781 247.444 210.348 245.815 210.348C245.531 210.348 245.248 210.348 245 210.312C246.558 211.304 248.365 211.871 250.348 211.871C256.758 211.871 260.265 206.558 260.265 201.954C260.265 201.812 260.265 201.635 260.265 201.493C260.937 201.033 261.54 200.431 262 199.723Z" fill="white"/>
<circle cx="253" cy="194" r="16" fill="#3B2642"/>
<path fill-rule="evenodd" clip-rule="evenodd" d="M250.332 184.001C249.227 184.002 248.332 184.897 248.333 186C248.332 187.104 249.228 187.999 250.333 188H252.333V186.001C252.334 184.898 251.439 184.003 250.332 184.001C250.333 184.001 250.333 184.001 250.332 184.001V184.001ZM250.332 189.334H245C243.895 189.335 242.999 190.23 243 191.333C242.998 192.437 243.894 193.332 244.999 193.334H250.332C251.438 193.333 252.333 192.437 252.333 191.334C252.333 190.23 251.438 189.335 250.332 189.334Z" fill="#36C5F0"/>
<path fill-rule="evenodd" clip-rule="evenodd" d="M262.997 191.332C262.997 190.229 262.102 189.334 260.996 189.333C259.891 189.334 258.995 190.229 258.996 191.332V193.333H260.996C262.102 193.332 262.997 192.436 262.997 191.332ZM257.664 191.332V185.999C257.664 184.897 256.77 184.002 255.664 184C254.559 184.001 253.663 184.896 253.664 185.999V191.332C253.662 192.436 254.558 193.331 255.663 193.333C256.769 193.332 257.664 192.436 257.664 191.332Z" fill="#2EB67D"/>
<path fill-rule="evenodd" clip-rule="evenodd" d="M255.66 203.998C256.766 203.997 257.661 203.101 257.661 201.998C257.661 200.895 256.766 199.999 255.66 199.999H253.66V201.998C253.659 203.101 254.555 203.996 255.66 203.998ZM255.66 198.664H260.993C262.099 198.663 262.994 197.768 262.994 196.664C262.995 195.561 262.1 194.666 260.994 194.664H255.661C254.556 194.665 253.66 195.56 253.661 196.664C253.66 197.768 254.555 198.663 255.66 198.664Z" fill="#ECB22E"/>
<path fill-rule="evenodd" clip-rule="evenodd" d="M243 196.666C242.999 197.77 243.895 198.665 245 198.666C246.106 198.665 247.001 197.77 247 196.666V194.667H245C243.895 194.668 242.999 195.563 243 196.666ZM248.333 196.666V201.999C248.331 203.103 249.227 203.998 250.332 204C251.438 203.999 252.333 203.103 252.333 202V196.668C252.334 195.565 251.439 194.669 250.333 194.668C249.227 194.668 248.332 195.563 248.333 196.666C248.333 196.666 248.333 196.667 248.333 196.666Z" fill="#E01E5A"/>
<circle cx="169" cy="140" r="57.5" fill="#F2F9F9" stroke="#00877C" stroke-width="5"/>
<path d="M197 169C197 170.105 196.105 171 195 171L143 171C141.895 171 141 170.105 141 169L141 111C141 109.895 141.895 109 143 109L195 109C196.105 109 197 109.895 197 111L197 169Z" fill="#00877C"/>
<path d="M173 120L187 120" stroke="#F2F9F9" stroke-width="4" stroke-linecap="round"/>
<path d="M151 150L187 150" stroke="#F2F9F9" stroke-width="4" stroke-linecap="round"/>
<path d="M173 130L187 130" stroke="#F2F9F9" stroke-width="4" stroke-linecap="round"/>
<path d="M151 160L175 160" stroke="#F2F9F9" stroke-width="4" stroke-linecap="round"/>
<path d="M151 140L187 140" stroke="#F2F9F9" stroke-width="4" stroke-linecap="round"/>
<rect x="149" y="118" width="17" height="14" rx="2" fill="#F2F9F9"/>
</svg>
