<svg width="134" height="60" viewBox="0 0 134 111" fill="none" xmlns="http://www.w3.org/2000/svg">
<path d="M46.2273 64.4049C46.2273 65.9106 46.3899 67.1314 46.6744 68.0267C46.9996 68.9219 47.4061 69.8986 47.9751 70.9567C48.1784 71.2822 48.2597 71.6078 48.2597 71.8926C48.2597 72.2996 48.0158 72.7065 47.4874 73.1134L44.9266 74.8226C44.5608 75.0668 44.195 75.1889 43.8698 75.1889C43.4634 75.1889 43.0569 74.9854 42.6504 74.6191C42.0814 74.0087 41.5936 73.3576 41.1871 72.7065C40.7807 72.0147 40.3742 71.2415 39.9271 70.3055C36.7567 74.0494 32.7733 75.9214 27.977 75.9214C24.5627 75.9214 21.8394 74.9447 19.8477 72.9914C17.856 71.038 16.8398 68.4336 16.8398 65.1781C16.8398 61.7191 18.0592 58.9112 20.5387 56.7951C23.0181 54.679 26.3105 53.6209 30.4971 53.6209C31.8791 53.6209 33.3017 53.743 34.8056 53.9465C36.3096 54.1499 37.8541 54.4755 39.48 54.8417V51.8711C39.48 48.7783 38.8296 46.6215 37.5696 45.36C36.2689 44.0985 34.074 43.488 30.9442 43.488C29.5216 43.488 28.0583 43.6508 26.5544 44.0171C25.0505 44.3833 23.5872 44.831 22.1645 45.4007C21.5142 45.6855 21.0264 45.8483 20.7419 45.9297C20.4574 46.0111 20.2542 46.0518 20.0916 46.0518C19.5225 46.0518 19.238 45.6448 19.238 44.7903V42.7962C19.238 42.1451 19.3193 41.6568 19.5225 41.3719C19.7258 41.0871 20.0916 40.8022 20.6606 40.5174C22.0833 39.7849 23.7904 39.1745 25.7821 38.6861C27.7738 38.1571 29.8874 37.9129 32.123 37.9129C36.9599 37.9129 40.4962 39.0117 42.7724 41.2092C45.0079 43.4067 46.146 46.7436 46.146 51.2199V64.4049H46.2273ZM29.7248 70.5904C31.0661 70.5904 32.4481 70.3462 33.9114 69.8579C35.3747 69.3696 36.6754 68.4743 37.7728 67.2535C38.4232 66.4803 38.9109 65.6257 39.1548 64.649C39.3987 63.6724 39.5613 62.4923 39.5613 61.1086V59.3995C38.3825 59.1146 37.1225 58.8705 35.8218 58.7077C34.5211 58.5449 33.2611 58.4635 32.001 58.4635C29.2777 58.4635 27.286 58.9925 25.9447 60.0913C24.6033 61.19 23.953 62.7364 23.953 64.7711C23.953 66.6838 24.4408 68.1081 25.4569 69.0847C26.4324 70.1021 27.8551 70.5904 29.7248 70.5904ZM62.364 74.9854C61.6324 74.9854 61.1446 74.8633 60.8195 74.5784C60.4943 74.3343 60.2098 73.7646 59.9659 72.9914L50.4139 41.5347C50.17 40.7208 50.0481 40.1918 50.0481 39.9069C50.0481 39.2558 50.3733 38.8896 51.0236 38.8896H55.007C55.7793 38.8896 56.3077 39.0117 56.5922 39.2965C56.9174 39.5407 57.1613 40.1104 57.4051 40.8836L64.2338 67.8232L70.5746 40.8836C70.7779 40.0697 71.0217 39.5407 71.3469 39.2965C71.6721 39.0524 72.2411 38.8896 72.9728 38.8896H76.2245C76.9968 38.8896 77.5252 39.0117 77.8504 39.2965C78.1755 39.5407 78.4601 40.1104 78.6227 40.8836L85.0448 68.1488L92.0767 40.8836C92.3205 40.0697 92.6051 39.5407 92.8896 39.2965C93.2148 39.0524 93.7432 38.8896 94.4748 38.8896H98.255C98.9053 38.8896 99.2711 39.2151 99.2711 39.9069C99.2711 40.1104 99.2305 40.3139 99.1898 40.5581C99.1492 40.8022 99.0679 41.1278 98.9053 41.5754L89.1095 73.0321C88.8656 73.8459 88.5811 74.375 88.2559 74.6191C87.9307 74.8633 87.4023 75.0261 86.7113 75.0261H83.2157C82.4434 75.0261 81.915 74.904 81.5899 74.6191C81.2647 74.3343 80.9802 73.8053 80.8176 72.9914L74.5173 46.7436L68.2578 72.9507C68.0545 73.7646 67.8107 74.2936 67.4855 74.5784C67.1603 74.8633 66.5913 74.9854 65.8596 74.9854H62.364ZM114.595 76.0841C112.481 76.0841 110.368 75.84 108.335 75.3516C106.303 74.8633 104.718 74.3343 103.661 73.7239C103.011 73.3576 102.563 72.9507 102.401 72.5844C102.238 72.2182 102.157 71.8112 102.157 71.445V69.3696C102.157 68.515 102.482 68.1081 103.092 68.1081C103.336 68.1081 103.58 68.1488 103.824 68.2301C104.067 68.3115 104.433 68.4743 104.84 68.6371C106.222 69.2475 107.726 69.7358 109.311 70.0614C110.937 70.3869 112.522 70.5497 114.148 70.5497C116.709 70.5497 118.7 70.1021 120.082 69.2068C121.464 68.3115 122.196 67.0093 122.196 65.3408C122.196 64.2014 121.83 63.2654 121.098 62.4923C120.367 61.7191 118.985 61.0273 116.993 60.3762L111.099 58.5449C108.132 57.6089 105.937 56.2253 104.596 54.3941C103.254 52.6036 102.563 50.6095 102.563 48.4934C102.563 46.7843 102.929 45.2786 103.661 43.9764C104.393 42.6742 105.368 41.5347 106.588 40.6394C107.807 39.7035 109.189 39.0117 110.815 38.5233C112.441 38.035 114.148 37.8315 115.936 37.8315C116.83 37.8315 117.765 37.8722 118.66 37.9943C119.594 38.1164 120.448 38.2792 121.302 38.442C122.115 38.6454 122.887 38.8489 123.618 39.0931C124.35 39.3372 124.919 39.5814 125.326 39.8256C125.895 40.1511 126.301 40.4767 126.545 40.8429C126.789 41.1685 126.911 41.6161 126.911 42.1858V44.0985C126.911 44.953 126.586 45.4007 125.976 45.4007C125.651 45.4007 125.122 45.2379 124.431 44.9123C122.114 43.8543 119.513 43.3253 116.627 43.3253C114.31 43.3253 112.481 43.6915 111.221 44.4647C109.961 45.2379 109.311 46.418 109.311 48.0865C109.311 49.2259 109.717 50.2026 110.53 50.9758C111.343 51.749 112.847 52.5222 115.001 53.214L120.773 55.0452C123.7 55.9812 125.813 57.2834 127.073 58.9519C128.333 60.6203 128.943 62.5329 128.943 64.649C128.943 66.3989 128.577 67.986 127.886 69.3696C127.155 70.7532 126.179 71.974 124.919 72.9507C123.659 73.968 122.155 74.7005 120.407 75.2295C118.578 75.7993 116.668 76.0841 114.595 76.0841Z" fill="#6C7993"/>
<path fill-rule="evenodd" clip-rule="evenodd" d="M122.278 95.8615C108.905 105.75 89.4757 111 72.77 111C49.3576 111 28.262 102.332 12.3285 87.9261C11.0685 86.7867 12.2066 85.2403 13.7105 86.1355C30.9447 96.1463 52.2028 102.21 74.1926 102.21C89.0286 102.21 105.328 99.117 120.327 92.7687C122.562 91.7514 124.472 94.2337 122.278 95.8615Z" fill="#6C7993"/>
<path fill-rule="evenodd" clip-rule="evenodd" d="M127.846 89.5134C126.138 87.3159 116.546 88.4553 112.197 88.9844C110.896 89.1471 110.693 88.0077 111.871 87.1531C119.513 81.7815 132.073 83.3278 133.536 85.1184C134.999 86.9496 133.13 99.5242 125.976 105.547C124.878 106.483 123.822 105.995 124.309 104.774C125.935 100.745 129.553 91.6702 127.846 89.5134Z" fill="#6C7993"/>
</svg>
