<svg width="268" height="89" viewBox="0 0 268 89" fill="none" xmlns="http://www.w3.org/2000/svg">
<mask id="mask0_1529_1331" style="mask-type:luminance" maskUnits="userSpaceOnUse" x="0" y="6" width="268" height="79">
<path d="M0 6.6748H268V84.5498H0V6.6748Z" fill="white"/>
</mask>
<g mask="url(#mask0_1529_1331)">
<path d="M72.7216 67.6711C71.3948 67.6706 70.0914 67.3233 68.9416 66.6638C67.7917 66.0044 66.8357 65.0559 66.169 63.9131L39.5544 18.0491C38.6913 16.3326 38.5225 14.3515 39.0826 12.5146C39.6428 10.6776 40.8893 9.12495 42.5649 8.17681C44.2401 7.22463 46.2166 6.94426 48.092 7.39276C49.9674 7.84126 51.6007 8.98492 52.6596 10.5909L79.2608 56.4571C80.2475 58.1795 80.5086 60.2213 79.987 62.1352C79.4654 64.049 78.2036 65.6789 76.4781 66.6676C75.335 67.3253 74.0394 67.6742 72.7194 67.68L72.7216 67.6711Z" fill="#6C7993"/>
<path d="M48.442 25.2825C49.4143 23.6972 50.9444 22.5295 52.7338 22.0071C54.5233 21.4847 56.444 21.645 58.1213 22.4567C59.1419 22.9596 60.033 23.6871 60.7209 24.586L60.808 24.6973C60.9107 24.8397 61.0157 24.9799 61.1095 25.1312L61.1765 25.2246L52.6675 10.4306C52.6479 10.4084 52.6313 10.3837 52.6184 10.3572C52.5335 10.2059 52.4308 10.0657 52.3347 9.92329L52.203 9.72749C52.1002 9.58509 51.9863 9.45381 51.8724 9.31364C51.8324 9.26921 51.7951 9.2224 51.7608 9.17346C51.2223 8.56354 50.5815 8.05158 49.8669 7.66046C48.1296 6.67582 46.0723 6.41445 44.1425 6.93322C42.2127 7.45198 40.5666 8.70891 39.5623 10.4306L12.9566 56.4547C12.4599 57.3095 12.1376 58.2535 12.008 59.2327C11.8784 60.2119 11.9441 61.2069 12.2014 62.1607C12.4587 63.1145 12.9025 64.0083 13.5073 64.7909C14.1121 65.5734 14.8661 66.2293 15.7259 66.7209C17.4633 67.7188 19.5269 67.9897 21.4644 67.4742C23.4019 66.9587 25.0552 65.6988 26.0618 63.9708L48.413 25.2713L48.4398 25.2825H48.442Z" fill="#6C7993"/>
<path d="M69.6972 39.8786C68.839 38.2282 67.4003 36.9509 65.6562 36.2908C63.9122 35.6308 61.9851 35.6343 60.2435 36.3008L24.5794 50.1447L24.0791 50.3427C23.2269 50.6083 22.3078 50.5656 21.4841 50.222C20.6604 49.8784 19.9849 49.2561 19.5767 48.4648C19.2899 47.9091 19.1493 47.29 19.1681 46.6655C19.1868 46.0409 19.3643 45.4313 19.6839 44.8937L12.9504 56.457L12.7628 56.8241L12.6199 57.1045L12.4502 57.5272L12.3653 57.752C12.2983 57.9411 12.2536 58.1391 12.1956 58.3349C12.1999 58.36 12.1999 58.3855 12.1956 58.4106C11.8629 59.8001 11.9356 61.2554 12.4053 62.6051C12.875 63.9548 13.7219 65.1428 14.8465 66.029C15.8821 66.8459 17.1141 67.3788 18.4203 67.5747C19.7265 67.7707 21.0614 67.6228 22.2925 67.1459L65.7844 50.2382L67.5621 49.5439C69.2247 48.8197 71.0927 48.7133 72.8273 49.244C74.5618 49.7747 76.0479 50.9074 77.0158 52.4364L69.6972 39.8786Z" fill="#6C7993"/>
<path fill-rule="evenodd" clip-rule="evenodd" d="M84.5372 35.6887C86.0557 35.6894 87.5405 35.2429 88.805 34.4052C90.0694 33.5675 91.057 32.376 91.6437 30.9806C92.2273 29.5854 92.3812 28.0487 92.0857 26.566C91.7903 25.0834 91.0587 23.7219 89.9843 22.6546C88.9085 21.5848 87.5387 20.8564 86.0478 20.5614C84.5568 20.2664 83.0116 20.418 81.6071 20.997C80.4393 21.4732 79.4079 22.2298 78.6048 23.1994C77.8017 24.169 77.2518 25.3215 77.0042 26.5542C76.7566 27.7868 76.8189 29.0613 77.1855 30.2642C77.5522 31.467 78.2119 32.5608 79.1057 33.4481C80.5474 34.8814 82.5005 35.6871 84.5372 35.6887Z" fill="#6C7993"/>
<path fill-rule="evenodd" clip-rule="evenodd" d="M46.1071 84.5497C47.6255 84.5487 49.1098 84.1006 50.3734 83.2618C51.637 82.4229 52.6235 81.2307 53.2091 79.8349C53.7912 78.4397 53.9437 76.9034 53.647 75.4216C53.3503 73.9398 52.6179 72.5794 51.543 71.5134C50.4669 70.444 49.097 69.716 47.6061 69.4214C46.1152 69.1268 44.5701 69.2787 43.1658 69.858C41.7642 70.4357 40.5656 71.4137 39.7211 72.6689C38.8765 73.924 38.4238 75.4002 38.4199 76.9113C38.4199 78.9383 39.2306 80.8807 40.6711 82.3136C42.1147 83.7463 44.0694 84.5504 46.1071 84.5497Z" fill="#6C7993"/>
<path fill-rule="evenodd" clip-rule="evenodd" d="M7.68741 35.6887C9.20585 35.6877 10.6901 35.2396 11.9537 34.4008C13.2173 33.5619 14.2039 32.3697 14.7894 30.9739C15.3713 29.5785 15.5234 28.0421 15.2263 26.5602C14.9292 25.0784 14.1964 23.7181 13.1211 22.6524C12.0452 21.5834 10.6757 20.8557 9.18525 20.5611C7.6948 20.2665 6.15015 20.4182 4.74611 20.997C3.57802 21.4737 2.54647 22.2309 1.74347 23.2012C0.940468 24.1714 0.390966 25.3246 0.143967 26.5579C-0.103033 27.7911 -0.0398507 29.0661 0.327878 30.2691C0.695606 31.4722 1.35645 32.5658 2.25148 33.4526C3.69487 34.8855 5.64975 35.6897 7.68741 35.6887Z" fill="#6C7993"/>
<path d="M135.381 47.3656L134.077 48.4915C131.981 50.2614 129.318 51.2245 126.571 51.206H123.735C118.902 51.206 115.829 48.3224 115.829 43.8056V41.4849C115.811 40.19 116.275 38.9351 117.14 37.965C118.002 36.9938 119.196 36.3768 120.49 36.2339L133.519 34.939V33.5773C133.519 31.8284 132.261 30.6358 130.05 30.6358H124.925C122.959 30.5715 121.008 31.0016 119.252 31.8863L116.805 26.9646C118.562 25.5539 121.635 24.6528 125.445 24.6528H133.121C137.963 24.6528 141.15 27.5364 141.15 32.0554V41.8899L145.13 50.643H136.829L135.381 47.3656ZM133.566 39.963L125.823 40.902C124.235 41.0711 123.498 41.9255 123.498 42.9979V43.4474C123.498 45.0828 124.632 45.5433 126.685 45.5433H127.63C129.226 45.4651 130.757 44.8892 132.007 43.8968L133.604 42.8845L133.566 39.963ZM162.621 54.8216C161.489 57.2011 159.587 59.1326 157.221 60.3062L152.618 62.5045L149.715 56.8686L151.703 55.9296C153.413 54.9907 155.343 54.0517 156.542 51.6354L156.938 50.8477L145.507 25.2157H154.376L160.996 42.9023L168.955 25.2157H177.768L162.621 54.8216ZM202.205 49.7397C200.153 50.979 197.939 51.206 194.813 51.206H187.869C183.039 51.206 179.965 48.3224 179.965 43.8034V32.0331C179.965 27.5164 183.039 24.6328 187.871 24.6328H197.995C202.826 24.6328 205.901 27.5164 205.901 32.0354V40.0565H187.588V42.2081C187.588 43.8991 188.834 45.0805 190.886 45.0805H194.527C196.115 45.1594 197.701 44.9102 199.188 44.3485L203.27 42.2815L206.174 47.3078L202.205 49.7397ZM187.588 33.6307V34.8544H198.281V33.6307C198.281 31.9397 196.977 30.7471 194.982 30.7471H190.889C188.836 30.7471 187.588 31.9419 187.588 33.6307ZM229.959 47.2499L228.71 48.1889C226.772 49.7197 224.786 51.1859 221.602 51.1859H217.394C212.563 51.1859 209.488 48.2467 209.488 43.6721V32.0354C209.488 27.5164 212.563 24.6328 217.394 24.6328H221.602C223.642 24.6606 225.623 25.3166 227.274 26.5107L228.219 27.1315V8.26123H235.839V41.9411L239.763 50.6408H231.52L229.959 47.2499ZM228.201 33.2925L226.66 32.2223C225.602 31.3187 224.269 30.7987 222.877 30.7471H220.494C218.444 30.7471 217.139 31.9397 217.139 33.6307V42.0857C217.139 43.7767 218.444 45.0138 220.494 45.0138H222.877C224.287 44.9126 225.621 44.3367 226.66 43.3806L228.201 42.2526V33.2925ZM241.559 43.8034V32.0331C241.559 27.5164 244.632 24.6328 249.462 24.6328H260.1C264.939 24.6328 268.003 27.5164 268.003 32.0354V43.8056C268.003 48.3224 264.939 51.206 260.1 51.206H249.462C244.632 51.206 241.559 48.3224 241.559 43.8034ZM260.383 41.832V34.0267C260.383 32.3357 259.079 31.152 257.027 31.152H252.442C250.398 31.152 249.141 32.3357 249.141 34.0267V41.8298C249.141 43.5208 250.398 44.7045 252.442 44.7045H256.989C259.059 44.7045 260.383 43.5208 260.383 41.8298V41.832Z" fill="#6C7993"/>
</g>
</svg>
