<svg width="327" height="58" viewBox="0 0 327 58" fill="none" xmlns="http://www.w3.org/2000/svg">
<path d="M7.68022 7.40243H14.0702C19.9071 7.40243 22.4262 9.18181 22.4262 12.7999C22.4262 15.9435 19.8457 18.0788 14.746 18.0788H7.74167V7.40243H7.68022ZM0 42.8124H15.6062C23.778 42.8124 32.0112 39.9654 32.0112 30.8904C32.0112 25.4929 28.0789 21.4003 22.672 20.8072V20.6886C27.1573 19.3837 30.1679 16.2401 30.1679 11.5544C30.1679 3.96226 23.4708 1.05591 16.8965 1.05591H0V42.8124ZM7.68022 24.4253H15.0532C21.3203 24.4253 24.2081 25.9674 24.2081 30.3566C24.2081 35.8727 18.6783 36.5252 14.746 36.5252H7.68022V24.4253Z" fill="#6C7993"/>
<path d="M36.9878 0.0476074H44.2994V42.8124H36.9878V0.0476074Z" fill="#6C7993"/>
<path d="M56.5879 28.6367C56.5879 24.1882 59.8443 20.1549 65.1898 20.1549C70.5967 20.1549 73.7916 24.2475 73.7916 28.6367C73.7916 33.0852 70.5352 37.1184 65.1898 37.1184C59.8443 37.1778 56.5879 33.0852 56.5879 28.6367ZM49.2764 28.6367C49.2764 37.5336 56.3422 43.5243 65.2512 43.5243C74.0988 43.5243 81.2261 37.5336 81.2261 28.6367C81.2261 19.7397 74.1603 13.749 65.2512 13.749C56.3422 13.8083 49.2764 19.7397 49.2764 28.6367Z" fill="#6C7993"/>
<path d="M91.8554 28.6367C91.8554 24.1882 95.1118 20.1549 100.457 20.1549C105.864 20.1549 109.059 24.2475 109.059 28.6367C109.059 33.0852 105.803 37.1184 100.457 37.1184C95.0504 37.1778 91.8554 33.0852 91.8554 28.6367ZM84.4824 28.6367C84.4824 37.5336 91.5482 43.5243 100.457 43.5243C109.305 43.5243 116.432 37.5336 116.432 28.6367C116.432 19.7397 109.366 13.749 100.457 13.749C91.6097 13.8083 84.4824 19.7397 84.4824 28.6367Z" fill="#6C7993"/>
<path d="M120.917 14.5201H127.86V18.9686H127.983C129.273 16.2995 132.1 13.8083 136.954 13.8083C141.5 13.8083 144.572 15.5284 146.109 19.0872C148.259 15.4691 151.393 13.8083 155.755 13.8083C163.558 13.8083 166.323 19.2059 166.323 25.9676V42.8718H159.011V26.7979C159.011 23.2391 157.905 20.2142 153.543 20.2142C148.935 20.2142 147.214 23.8916 147.214 27.5097V42.8718H139.903V25.9676C139.903 22.4681 138.428 20.1549 134.865 20.1549C130.011 20.1549 128.168 23.595 128.168 27.3318V42.8125H120.856V14.5201H120.917Z" fill="#6C7993"/>
<path d="M196.675 28.6366C196.675 33.0851 193.419 37.1184 188.073 37.1184C182.666 37.1184 179.471 33.0258 179.471 28.6366C179.471 24.1881 182.728 20.1548 188.073 20.1548C193.419 20.1548 196.675 24.2474 196.675 28.6366ZM172.344 42.8124H179.287V38.5419H179.41C181.561 41.9821 185.431 43.5242 189.487 43.5242C198.518 43.5242 203.987 37.0591 203.987 28.6366C203.987 20.2734 198.15 13.7489 189.794 13.7489C184.264 13.7489 181.376 16.2401 179.84 18.0788H179.656V0.0476074H172.344V42.8124Z" fill="#6C7993"/>
<path d="M214.678 25.8489C215.231 21.7563 217.934 19.1465 222.235 19.1465C226.843 19.1465 229.608 21.7563 229.669 25.8489H214.678ZM237.042 31.1278V29.1705C237.042 19.3245 231.451 13.749 223.28 13.749C214.432 13.749 207.305 19.7397 207.305 28.6367C207.305 37.5336 214.37 43.5243 223.28 43.5243C227.949 43.5243 232.25 41.9228 235.691 37.8302L230.407 33.9749C228.564 36.1694 226.167 37.8302 222.542 37.8302C218.426 37.8302 215.169 35.2797 214.678 31.1278H237.042Z" fill="#6C7993"/>
<path d="M241.835 14.5201H249.147V19.0279H249.269C250.867 15.7657 254.123 13.8083 257.933 13.8083C258.854 13.8083 259.715 13.9863 260.575 14.2235V21.0446C259.346 20.748 258.178 20.5107 257.011 20.5107C250.13 20.5107 249.147 26.1455 249.147 27.6283V42.8125H241.835V14.5201Z" fill="#6C7993"/>
<path d="M277.041 20.1549C282.387 20.1549 285.704 23.595 285.704 28.4587C285.704 33.2038 282.387 36.7626 276.98 36.7626C272.003 36.7626 268.378 33.0258 268.378 28.5773C268.378 23.595 271.88 20.1549 277.041 20.1549ZM285.704 14.5201V18.7906H285.582C283.431 15.3505 279.56 13.8083 275.505 13.8083C266.473 13.8083 261.005 20.3328 261.005 28.696C261.005 36.7032 266.842 43.2277 275.628 43.2277C279.315 43.2277 283.062 41.8635 285.213 39.0758H285.336V41.1517C285.336 46.7865 283.124 50.6418 276.058 50.6418C271.942 50.6418 268.931 49.159 265.982 46.5493L261.558 52.3619C265.736 55.9207 270.651 57.0477 276.12 57.0477C287.548 57.0477 292.709 50.5825 292.709 40.3214V14.5201H285.704Z" fill="#6C7993"/>
</svg>
