<svg width="375" height="65" viewBox="0 0 375 65" fill="none" xmlns="http://www.w3.org/2000/svg">
<g clip-path="url(#clip0_1527_1451)">
<path fill-rule="evenodd" clip-rule="evenodd" d="M116.071 63.6549C97.5927 63.6549 89.957 49.7269 89.957 33.5429C89.957 18.2069 97.2443 1.51622 115.489 1.51622C123.531 1.51622 130.819 4.78555 135.074 11.6655L128.718 15.3295C126.271 10.9882 121.609 8.33755 116.478 8.33755H115.957C102.319 8.33755 98.4118 22.3802 98.4118 33.1482C98.4118 44.6522 102.901 56.8895 116.774 56.8895H116.891C121.784 56.8895 126.391 54.6335 129.247 50.7989L135.311 54.6895C131.17 61.1162 123.649 63.6549 116.071 63.6549ZM149.529 62.4709V2.92422H157.454V62.4709H149.529ZM195.111 64.1055H194.643C187.3 64.1055 180.13 61.5669 174.534 56.9429L179.43 51.6442C183.51 55.4229 188.93 57.5082 194.526 57.5642C200.707 57.5642 207.585 55.2522 207.585 48.1482C207.585 40.4229 198.664 38.1669 190.271 34.7269C182.694 31.6255 175.526 27.6789 175.526 18.3749C175.526 7.54822 185.143 1.28955 195.633 1.28955H196.159C202.223 1.28955 208.167 3.09488 213.18 6.42022L208.808 12.1722C205.018 9.35355 200.356 7.83088 195.577 7.71888C189.688 7.71888 183.742 10.8176 183.742 17.2469C183.742 24.0122 190.391 26.6629 197.617 29.3136C206.244 32.6416 215.627 35.9109 215.627 47.0202C215.627 58.0709 205.776 64.1055 195.111 64.1055ZM355.696 63.6549C337.218 63.6549 329.641 49.7269 329.641 33.5429C329.641 18.2069 336.869 1.51622 355.114 1.51622C363.215 1.51622 370.444 4.78555 374.699 11.6655L368.404 15.3295C365.896 10.9882 361.234 8.33755 356.162 8.33755H355.579C341.941 8.33755 338.034 22.3802 338.034 33.1482C338.034 44.6522 342.523 56.8895 356.454 56.8895H356.513C361.409 56.8895 366.013 54.6335 368.869 50.7989L374.933 54.6895C370.851 61.1162 363.332 63.6549 355.696 63.6549ZM264.526 2.86822H227.454V9.74822H242.26V62.4682H250.186V9.74822H264.526V2.86822ZM318.51 9.74555V2.86555H279.223V62.4122H318.51V55.5935H287.21V35.9669H310.058V29.1429H287.21V9.74555H318.51Z" fill="#6C7993"/>
<path fill-rule="evenodd" clip-rule="evenodd" d="M48.9765 21.14V43.8067H54.3409C60.8116 43.8067 66.0563 38.732 66.0563 32.4733C66.0563 26.212 60.809 21.14 54.3409 21.14H48.9765ZM21.1733 12.0013V20.908H12.0802C5.43663 20.9133 0.0722656 26.1 0.0722656 32.4733C0.0722656 38.9027 5.43663 44.0893 12.0802 44.0893H21.176V52.9427C21.176 59.316 26.4792 64.5027 33.0643 64.5027C39.6521 64.5027 45.0138 59.316 45.0138 52.9427V12.004C45.0138 5.68667 39.6547 0.5 33.0643 0.5C26.4792 0.5 21.176 5.68667 21.176 12.004L21.1733 12.0013Z" fill="#6C7993"/>
</g>
<defs>
<clipPath id="clip0_1527_1451">
<rect width="375" height="64" fill="white" transform="translate(0 0.5)"/>
</clipPath>
</defs>
</svg>
