<svg width="323" height="48" viewBox="0 0 323 48" fill="none" xmlns="http://www.w3.org/2000/svg">
<path d="M42.7081 0V48H36.6887V0H42.7081ZM30.6694 0V48H24.65V0H30.6694ZM54.8194 19.4949V28.5051H48.7984V19.4949H54.8177H54.8194ZM18.558 0V48H12.5387V0H18.5597H18.558ZM6.5176 0V42.0171H0.5V0H6.5176Z" fill="#6C7993"/>
<path d="M287.604 16.188C289.162 16.188 290.72 16.3286 292.208 16.6097C293.278 16.8317 294.322 17.162 295.324 17.5955L294.261 21.1852C293.419 20.7614 292.543 20.4082 291.641 20.1292C290.366 19.7057 289.02 19.4949 287.746 19.5652C286.357 19.5013 284.973 19.7669 283.709 20.34C283.197 20.5984 282.779 21.0082 282.512 21.5126C282.246 22.0169 282.144 22.5909 282.222 23.1549C282.222 23.7189 282.364 24.2812 282.717 24.7046C283.072 25.1263 283.496 25.548 283.993 25.8292C284.559 26.1823 285.196 26.4635 285.833 26.6743L288.028 27.3086L291.003 28.2926C291.949 28.6633 292.852 29.1353 293.695 29.7C295.466 30.9686 296.456 33.0086 296.314 35.1206C296.385 36.3875 296.103 37.6543 295.466 38.7103C294.898 39.6943 294.119 40.4692 293.2 41.1035C292.222 41.7415 291.145 42.2163 290.012 42.5092C288.737 42.6515 287.462 42.7217 286.188 42.5812C285.054 42.6497 283.991 42.6497 282.859 42.5812C282.026 42.4505 281.199 42.2858 280.38 42.0875C279.723 41.94 279.083 41.7275 278.469 41.4532C277.959 41.2242 277.462 40.9667 276.982 40.6818L278.398 37.0903C278.751 37.3732 279.035 37.584 279.459 37.7932C280.027 38.076 280.522 38.3589 281.159 38.5697C281.867 38.8509 282.646 39.0617 283.425 39.2023C284.346 39.3429 285.267 39.4835 286.188 39.4835C287.679 39.5616 289.16 39.1937 290.437 38.4275C290.903 38.0746 291.275 37.6148 291.522 37.0877C291.768 36.5606 291.882 35.982 291.853 35.4017C291.924 34.416 291.429 33.4303 290.649 32.796C289.375 31.9526 288.028 31.32 286.541 30.9669L283.354 29.9126C282.389 29.5845 281.481 29.1091 280.664 28.5035C279.885 27.9399 279.233 27.2211 278.751 26.3932C278.256 25.4075 277.972 24.2812 278.043 23.2252C277.901 21.1149 278.893 19.1452 280.593 17.8766C282.717 16.68 285.125 16.0475 287.604 16.188ZM255.027 16.5395V33.7132C255.027 34.5566 255.098 35.4017 255.382 36.2469C255.593 36.8812 255.948 37.4435 256.443 37.8652C256.869 38.2869 257.435 38.568 258.001 38.7103C258.638 38.8509 259.277 38.9915 259.914 38.9915C261.589 39.0681 263.24 38.5711 264.588 37.584C265.862 36.5983 266.925 35.4017 267.633 33.9943V16.5395H272.024V41.8766H268.128L267.704 37.3012C266.996 38.8509 265.791 40.1177 264.304 41.1035C262.604 42.1577 260.622 42.6515 258.569 42.5812C256.395 42.6539 254.28 41.869 252.69 40.3989C251.884 39.4906 251.274 38.4293 250.897 37.2798C250.52 36.1304 250.383 34.9168 250.495 33.7132V16.5395H255.027ZM101.703 6.96689C103.261 7.39032 104.75 7.95261 106.166 8.65718L104.819 12.7389C103.545 11.8937 102.199 11.2612 100.783 10.6989C99.0748 10.1225 97.2742 9.85986 95.4704 9.92403C92.143 9.92403 88.9559 11.2612 86.7608 13.7949C85.5559 15.132 84.7058 16.68 84.0688 18.3686C83.3557 20.3793 83.0201 22.5023 83.0785 24.6326C83.0785 26.6743 83.3607 28.7863 83.9978 30.756C84.5484 32.4057 85.4141 33.9352 86.5478 35.2612C87.6212 36.4719 88.9512 37.4331 90.443 38.076C92.0703 38.7103 93.7721 39.0617 95.5413 39.0617C97.1704 39.0617 98.7285 38.8509 100.216 38.3589C101.666 37.8556 103.065 37.2185 104.395 36.456L105.669 39.5537C104.401 40.4774 102.99 41.1907 101.491 41.6657C99.5075 42.3686 97.3833 42.6515 95.2592 42.6515C92.8511 42.6515 90.514 42.2983 88.3171 41.4549C86.2639 40.6097 84.3527 39.4149 82.8639 37.8652C81.2365 36.2469 79.9624 34.3457 79.1834 32.2337C77.4128 27.2938 77.4128 21.9011 79.1834 16.9612C80.8107 12.6686 84.3527 9.28975 88.743 7.67146C91.0108 6.82632 93.4172 6.40461 95.8962 6.47489C97.8784 6.26403 99.7914 6.47489 101.703 6.96689ZM146.674 16.0475C148.09 16.0475 149.506 16.188 150.851 16.5395C151.985 16.7503 152.977 17.2423 153.967 17.8063L152.551 21.6069C151.658 20.9263 150.683 20.359 149.648 19.9183C148.57 19.4875 147.41 19.295 146.25 19.3543C145.116 19.3543 144.053 19.5652 142.991 19.9886C141.948 20.3889 141.022 21.042 140.299 21.888C139.512 22.8093 138.89 23.857 138.459 24.9858C137.977 26.3903 137.737 27.8652 137.749 29.3486C137.538 31.9543 138.459 34.5566 140.157 36.5983C141.928 38.2869 144.337 39.132 146.816 38.9915C148.94 38.9212 151.064 38.2886 152.835 37.0903L153.827 40.2583C152.833 40.9632 151.734 41.5092 150.569 41.8766C149.153 42.3686 147.735 42.5795 146.248 42.6515C144.549 42.6515 142.778 42.3686 141.149 41.736C139.605 41.1731 138.203 40.2839 137.041 39.1303C135.851 37.9426 134.912 36.5316 134.28 34.98C132.935 31.3929 132.935 27.4466 134.28 23.8595C134.912 22.2901 135.878 20.8739 137.112 19.7075C138.331 18.505 139.808 17.5908 141.433 17.0332C143.132 16.3286 144.903 16.0475 146.674 16.0475ZM232.295 16.0475C233.924 16.0475 235.622 16.3286 237.109 16.9612C238.623 17.5422 239.998 18.4297 241.146 19.5669C242.337 20.7551 243.276 22.1667 243.909 23.7189C245.254 27.3786 245.254 31.3906 243.909 35.0503C243.328 36.5955 242.436 38.0079 241.288 39.2023C240.154 40.3286 238.738 41.1737 237.251 41.8063C235.648 42.4214 233.943 42.7319 232.224 42.7217C230.573 42.7316 228.937 42.4205 227.408 41.8063C225.92 41.244 224.575 40.3286 223.441 39.2023C222.249 38.0296 221.331 36.6123 220.751 35.0503C219.404 31.3909 219.404 27.3783 220.751 23.7189C221.384 22.1832 222.296 20.7754 223.441 19.5652C224.575 18.4406 225.92 17.5937 227.408 16.9612C228.964 16.3535 230.622 16.0434 232.295 16.0475ZM312.178 15.9069C313.808 15.9069 315.437 16.188 316.924 16.8206C318.295 17.3978 319.491 18.3196 320.393 19.4949C321.391 20.76 322.027 22.2674 322.235 23.8595C322.588 25.8309 322.588 27.8709 322.235 29.8423H304.601C304.812 35.8937 307.717 38.9212 313.382 38.9212C314.729 38.9212 316.074 38.7103 317.348 38.2869C318.482 37.8652 319.614 37.3715 320.606 36.6686L321.88 39.8366C320.819 40.68 319.543 41.3846 318.198 41.736C316.569 42.2983 314.869 42.5109 313.1 42.5109C309.558 42.7217 306.088 41.3846 303.538 38.9212C301.201 36.1766 299.998 32.6572 300.209 29.1377C300.209 27.2383 300.493 25.4075 301.13 23.5783C301.685 22.0359 302.553 20.6223 303.68 19.4246C304.743 18.2983 305.946 17.3846 307.362 16.8206C308.92 16.1863 310.549 15.9069 312.178 15.9069ZM115.867 5.27832V42.0172H111.477V5.28003L115.867 5.27832ZM163.67 5.27832V42.0172H159.209V5.28003L163.67 5.27832ZM179.604 16.5395L168.982 27.9412L180.312 42.0875H175.143L164.237 28.5052L175.001 16.6097H179.604V16.5395ZM190.227 6.82632V22.8737H208.711V6.82803H213.456V42.0857H208.711V26.4618H190.227V42.0155H185.482V6.82632H190.227ZM127.553 16.5395V41.8766H123.161V16.5395H127.553ZM232.295 19.3543C231.303 19.3543 230.311 19.5652 229.32 19.9183C228.328 20.2698 227.479 20.904 226.77 21.6772C225.983 22.598 225.36 23.645 224.928 24.7732C224.435 26.2474 224.219 27.7989 224.291 29.3503C224.22 30.8966 224.504 32.4463 224.928 33.924C225.305 35.0778 225.934 36.135 226.77 37.02C227.479 37.7949 228.328 38.3572 229.32 38.7806C230.27 39.1429 231.277 39.3334 232.295 39.3429C233.356 39.3429 234.348 39.132 235.34 38.7806C236.344 38.4119 237.242 37.8078 237.959 37.02C238.796 36.135 239.425 35.0778 239.801 33.924C240.283 32.4462 240.522 30.9014 240.509 29.3486C240.58 27.8006 240.296 26.2526 239.801 24.7732C239.369 23.645 238.746 22.598 237.959 21.6772C237.242 20.89 236.344 20.2865 235.34 19.9183C234.348 19.4949 233.356 19.3543 232.295 19.3543ZM312.32 19.0732C310.549 19.0732 308.778 19.776 307.575 21.0446C306.088 22.6629 305.238 24.7046 305.025 26.8852H318.269C318.616 24.8166 318.133 22.6955 316.924 20.9743C315.719 19.7057 314.019 19.0029 312.32 19.0732ZM127.34 8.02289C127.835 8.58689 128.119 9.29146 128.119 9.99432C128.119 10.6972 127.835 11.4 127.34 11.8937C126.795 12.3807 126.091 12.6559 125.358 12.6686C124.579 12.7389 123.869 12.4577 123.303 11.9657C123.022 11.7234 122.805 11.4176 122.67 11.0744C122.534 10.7312 122.484 10.3607 122.524 9.99432C122.524 9.29146 122.737 8.51661 123.233 8.02289C124.437 6.96689 126.208 6.96689 127.34 8.02289Z" fill="#6C7993"/>
</svg>
