<svg width="254" height="40" viewBox="0 0 254 42" fill="none" xmlns="http://www.w3.org/2000/svg">
<path d="M22.3385 4.26892C19.1626 2.12551 15.1923 1.02132 10.5591 1.02132H0.5V32.47H10.5591C15.1923 32.47 19.1626 31.2991 22.3385 29.0258C24.0589 27.7917 25.4487 26.1013 26.3763 23.9579C27.3023 21.8128 27.8319 19.3446 27.8319 16.5499C27.8319 13.7553 27.3681 11.2871 26.3763 9.20697C25.4487 7.06356 24.1264 5.37481 22.3385 4.26892ZM6.39318 6.28413H9.56909C13.0773 6.28413 15.9884 6.93365 18.1726 8.29764C20.6216 9.72829 21.8781 12.5212 21.8781 16.485C21.8781 20.5787 20.6216 23.4383 18.1726 24.9971C16.0542 26.3611 13.2088 27.0773 9.63486 27.0773H6.45895V6.28413H6.39318ZM34.9141 0.564952C33.9207 0.564952 33.128 0.891421 32.4651 1.54094C31.8039 2.19046 31.4059 2.96988 31.4059 3.94416C31.4059 4.91844 31.7382 5.69957 32.3993 6.41404C33.0605 7.06356 33.9207 7.38832 34.9141 7.38832C35.9075 7.38832 36.7002 7.06356 37.4289 6.41404C38.09 5.76452 38.4223 4.91844 38.4223 3.94416C38.4223 2.96988 38.09 2.19046 37.4289 1.54094C36.7002 0.956373 35.84 0.564952 34.9141 0.564952ZM32.0013 10.2462H37.6919V32.4033H32.0013V10.2462ZM58.2687 12.1315C56.5484 10.6376 54.629 9.79153 52.5781 9.79153C49.4679 9.79153 46.8199 10.8325 44.8347 12.9759C42.7838 15.0561 41.7903 17.7191 41.7903 20.9034C41.7903 24.0228 42.7838 26.6859 44.769 28.831C46.7541 30.9094 49.4021 31.9487 52.5123 31.9487C54.6965 31.9487 56.5484 31.3641 58.1372 30.195V30.7146C58.1372 32.5332 57.6076 33.9639 56.6816 34.9382C55.6882 35.9124 54.2984 36.432 52.6438 36.432C49.9975 36.432 48.4087 35.3928 46.3578 32.7947L42.519 36.432L42.6505 36.562C43.5124 37.7328 44.7689 38.837 46.4235 39.8762C48.0781 40.9154 50.2623 41.5 52.7113 41.5C56.0863 41.5 58.7984 40.4608 60.7835 38.4473C62.7704 36.432 63.8279 33.7041 63.8279 30.3898V10.2479H58.2687V12.1315ZM56.7491 25.192C55.7557 26.2961 54.4992 26.8158 52.8446 26.8158C51.19 26.8158 49.9318 26.2961 49.0058 25.192C48.0124 24.0878 47.5502 22.6571 47.5502 20.8385C47.5502 19.0198 48.0124 17.5892 49.0058 16.485C49.9993 15.3808 51.2558 14.8612 52.8446 14.8612C54.4992 14.8612 55.7557 15.3808 56.7491 16.485C57.7409 17.5892 58.2047 19.0848 58.2047 20.8385C58.2705 22.6571 57.7409 24.0878 56.7491 25.192ZM68.6619 10.2462H74.3525V32.4033H68.6619V10.2462ZM71.5782 0.564952C70.5847 0.564952 69.7903 0.891421 69.1292 1.54094C68.468 2.19046 68.0699 2.96988 68.0699 3.94416C68.0699 4.91844 68.4005 5.69957 69.0634 6.41404C69.7245 7.06356 70.5847 7.38832 71.5782 7.38832C72.5699 7.38832 73.3643 7.06356 74.0929 6.41404C74.7541 5.76452 75.0846 4.91844 75.0846 3.94416C75.0846 2.96988 74.7541 2.19046 74.0929 1.54094C73.3643 0.956373 72.5699 0.564952 71.5782 0.564952ZM86.7966 4.26892H81.2374V10.2479H77.994V15.3159H81.2374V24.4775C81.2374 27.3354 81.8328 29.4155 82.9578 30.5847C84.1503 31.7538 86.2012 32.4033 89.0465 32.4033C89.9725 32.4033 90.9002 32.4033 91.8261 32.3384H92.0909V27.2704L90.1715 27.4003C88.8475 27.4003 87.9216 27.1405 87.4577 26.6859C86.9956 26.2312 86.7966 25.2569 86.7966 23.763V15.3808H92.0909V10.3129H86.7966V4.26892ZM118.694 0.954663H124.385V32.405H118.694V0.954663ZM181.631 24.4775C180.637 25.5817 179.578 26.5559 178.784 27.0756C177.991 27.5952 176.998 27.79 175.873 27.79C174.218 27.79 172.828 27.2055 171.769 25.9714C170.71 24.7373 170.115 23.1767 170.115 21.2931C170.115 19.4095 170.644 17.849 171.703 16.6149C172.763 15.3808 174.152 14.7962 175.807 14.7962C177.659 14.7962 179.578 15.9004 181.233 17.849L185.006 14.3399C182.557 11.2222 179.447 9.79153 175.739 9.79153C172.629 9.79153 169.917 10.8974 167.733 13.1058C165.549 15.3159 164.424 18.0438 164.424 21.3581C164.424 24.6723 165.549 27.4653 167.733 29.6104C169.917 31.8188 172.629 32.9246 175.739 32.9246C179.843 32.9246 183.152 31.1692 185.402 27.9849L181.631 24.4775ZM204.925 13.3656C204.131 12.2614 203.006 11.3521 201.682 10.7026C200.358 10.0531 198.769 9.72829 196.983 9.72829C193.807 9.72829 191.224 10.8974 189.307 13.1058C187.387 15.3808 186.46 18.1737 186.46 21.423C186.46 24.8022 187.519 27.5319 189.57 29.6753C191.622 31.7538 194.402 32.8597 197.777 32.8597C201.616 32.8597 204.726 31.3641 207.107 28.3763L207.241 28.2464L203.535 24.7373C203.203 25.127 202.673 25.5817 202.277 26.0363C201.747 26.556 201.218 26.9457 200.622 27.2055C199.734 27.6274 198.763 27.8498 197.777 27.8567C196.188 27.8567 194.932 27.402 193.938 26.491C193.012 25.6466 192.483 24.5424 192.349 23.1135H207.372L207.44 21.0983C207.44 19.6693 207.241 18.3036 206.843 17.0046C206.315 15.6406 205.718 14.4715 204.925 13.3656ZM192.55 18.5652C192.79 17.5851 193.293 16.6869 194.006 15.9654C194.8 15.2509 195.792 14.8612 196.984 14.8612C198.374 14.8612 199.432 15.2509 200.16 16.0303C200.821 16.7448 201.219 17.5892 201.285 18.6301H192.55V18.5652ZM226.699 11.9367C224.979 10.5077 222.598 9.79153 219.619 9.79153C217.7 9.79153 215.979 10.183 214.39 10.9624C212.784 11.7561 211.449 12.9983 210.552 14.5347L210.619 14.5997L214.259 18.0438C215.78 15.7056 217.435 14.8612 219.619 14.8612C220.81 14.8612 221.803 15.186 222.53 15.7705C223.259 16.3551 223.655 17.1345 223.655 18.1737V19.2796C222.265 18.8882 220.876 18.6284 219.486 18.6284C216.64 18.6284 214.39 19.2796 212.67 20.5787C210.95 21.8777 210.09 23.763 210.09 26.1013C210.09 28.1815 210.816 29.8702 212.274 31.1043C213.729 32.3384 215.581 32.9246 217.765 32.9246C219.95 32.9246 221.935 32.0786 223.788 30.5847V32.4033H229.348V18.1737C229.28 15.4458 228.42 13.3656 226.699 11.9367ZM216.639 23.9562C217.302 23.5015 218.162 23.3066 219.352 23.3066C220.821 23.3185 222.276 23.5828 223.653 24.0878V26.2312C222.397 27.3354 220.742 27.9199 218.757 27.9199C217.764 27.9199 217.037 27.7251 216.507 27.2704C215.977 26.8807 215.713 26.3611 215.713 25.6466C215.713 24.9322 215.978 24.3476 216.639 23.9562ZM251.118 12.3264C249.53 10.5727 247.346 9.72829 244.5 9.72829C242.25 9.72829 240.398 10.3778 239.074 11.6119V10.2479H233.515V32.405H239.206V20.189C239.206 18.5002 239.604 17.1995 240.398 16.2252C241.191 15.2509 242.316 14.7962 243.773 14.7962C245.03 14.7962 246.023 15.186 246.75 16.0303C247.479 16.8747 247.809 18.0438 247.809 19.5394V32.3401H253.5V19.5394C253.5 16.485 252.707 14.0818 251.118 12.3264ZM111.551 11.9367C109.831 10.5077 107.448 9.79153 104.471 9.79153C102.552 9.79153 100.831 10.183 99.2424 10.9624C97.6357 11.7556 96.3007 12.9979 95.4036 14.5347L95.4693 14.5997L99.1091 18.0438C100.632 15.7056 102.287 14.8612 104.471 14.8612C105.662 14.8612 106.653 15.186 107.382 15.7705C108.111 16.3551 108.507 17.1345 108.507 18.1737V19.2796C107.117 18.8882 105.727 18.6284 104.338 18.6284C101.492 18.6284 99.2423 19.2796 97.522 20.5787C95.8016 21.8777 94.9397 23.763 94.9397 26.1013C94.9397 28.1815 95.6684 29.8702 97.1239 31.1043C98.5795 32.3384 100.433 32.9246 102.617 32.9246C104.801 32.9246 106.787 32.0786 108.64 30.5847V32.4033H114.198V18.1737C114.132 15.4458 113.272 13.3656 111.551 11.9367ZM101.491 23.9562C102.153 23.5015 103.014 23.3066 104.204 23.3066C105.673 23.3185 107.128 23.5828 108.505 24.0878V26.2312C107.249 27.3354 105.594 27.9199 103.609 27.9199C102.616 27.9199 101.889 27.7251 101.359 27.2704C100.829 26.8807 100.565 26.3611 100.565 25.6466C100.565 24.9322 100.829 24.3476 101.491 23.9562ZM144.901 32.8597C135.835 32.8597 128.423 25.5817 128.423 16.6798C128.423 7.77803 135.835 0.5 144.901 0.5C153.968 0.5 161.379 7.77803 161.379 16.6798C161.379 25.5817 154.034 32.8597 144.901 32.8597ZM144.899 6.15423C139.01 6.15423 134.245 10.8325 134.245 16.6149C134.245 22.3973 139.01 27.0773 144.899 27.0773C150.789 27.0773 155.554 22.3973 155.554 16.6149C155.554 10.8325 150.789 6.15423 144.899 6.15423Z" fill="#6C7993"/>
</svg>
