<svg width="312" height="76" viewBox="0 0 312 76" fill="none" xmlns="http://www.w3.org/2000/svg">
<g clip-path="url(#clip0_1529_1329)">
<path d="M25.4592 70.1444C31.6541 70.1496 37.8421 69.5571 43.9296 68.3895L44.9315 73.6991C44.9315 73.6991 37.6116 75.9187 25.8995 75.9187C8.67187 75.9187 0 72.8096 0 49.3826C0 42.3871 1.01573 35.8339 2.70227 31.9475C5.74773 24.9521 12.506 22.8396 24.5579 22.8396C33.9092 22.8396 40.6657 23.8449 44.1532 28.0611C46.9699 31.6107 48.0931 36.5023 48.0931 45.1594C48.0931 47.1561 47.9856 49.0458 47.8695 51.1358C45.9541 51.2446 38.8579 52.0201 30.4079 52.0201C22.2768 52.0201 14.8685 51.5952 14.8685 51.5952L11.3759 49.2617C10.6981 48.8351 10.2509 48.4844 9.3444 48.4844C7.20373 48.4844 7.43427 50.4829 7.43427 51.9251C7.43427 56.5888 7.54347 62.4788 10.8143 66.0145C13.5217 69.0372 18.4704 70.1427 25.4575 70.1427L25.4592 70.1444ZM25.2477 28.3928C8.6944 28.3928 8.24027 31.2791 7.56253 45.6033C15.3227 46.8245 24.4435 46.6155 24.4435 46.6155C24.4435 46.6155 33.7931 46.8314 40.5513 46.1837C40.5513 30.0579 37.3967 28.3928 25.2477 28.3928ZM86.6129 5.96415C84.2567 5.69762 81.888 5.55578 79.5167 5.53924C76.0292 5.53924 72.5365 5.76205 70.9575 7.42887C69.2727 9.3116 69.0491 12.8663 69.0491 16.6456V23.5063H85.5903V28.9455H69.0491V68.1391C69.0491 69.5831 69.2727 69.9199 70.6195 70.1427L73.5523 70.6954V75.1431H57.4427V70.8111L60.3668 70.2584C61.7205 69.9199 61.9441 69.59 61.9441 68.2617V28.9455H52.0347V23.5063H61.9459V16.5126C61.9459 10.9663 62.2856 5.62905 67.0176 2.42324C69.836 0.410964 74.3444 0.0810547 78.5079 0.0810547C81.3713 0.1346 84.2365 0.397146 87.0653 0.858327L86.6129 5.96415ZM92.0088 75.1431V70.8111L94.9347 70.2584C96.2867 69.9199 96.512 69.59 96.512 68.2617V30.5035C96.512 29.0595 96.2867 28.7296 94.9347 28.5068L92.0088 27.9471V23.5081H103.607V68.146C103.607 69.59 103.837 69.9199 105.184 70.1427L108.117 70.6954V75.1431H92.0088ZM94.3713 9.62769V1.18824H103.269V9.62769H94.3713ZM154.877 25.0591L153.969 30.2807C148.557 29.1744 143.053 28.5805 137.53 28.5068C123.223 28.5068 120.068 31.6159 120.068 49.3826C120.068 67.1545 123.223 70.2584 137.53 70.2584C143.053 70.1875 148.558 69.5929 153.969 68.4828L154.877 73.6991C148.82 75.1246 142.622 75.8691 136.399 75.9187C118.829 75.9187 112.632 71.255 112.632 49.3826C112.632 27.5084 118.829 22.8465 136.398 22.8465C142.62 22.8983 148.815 23.6411 154.875 25.0574L154.877 25.0591ZM183.482 75.9187C163.32 75.9187 159.718 71.255 159.718 49.3826C159.718 27.5084 163.32 22.8465 183.482 22.8465C203.646 22.8465 207.248 27.5084 207.248 49.3826C207.248 71.2568 203.644 75.9187 183.482 75.9187ZM183.482 28.398C168.613 28.398 167.145 30.6192 167.145 49.3826C167.145 68.1529 168.613 70.3724 183.482 70.3724C198.352 70.3724 199.813 68.1529 199.813 49.3826C199.813 30.6192 198.352 28.3928 183.482 28.3928V28.398ZM251.403 75.1431L250.947 72.3691C250.839 71.7024 250.616 70.5952 249.031 70.5952C248.246 70.5952 247.454 71.148 246.783 71.5936L241.353 75.1431C238.191 75.6613 234.988 75.9204 231.785 75.9204C214.663 75.9204 211.846 65.0351 211.846 49.3826C211.846 34.2828 214.547 22.8465 232.686 22.8465C238.732 22.8811 244.766 23.4735 250.704 24.6204V8.1906C250.704 6.7466 250.487 6.41669 249.132 6.19387L246.22 5.62733V1.18824H257.826V68.146C257.826 69.59 258.05 69.9199 259.397 70.1427L262.323 70.6954V75.1431H251.403ZM250.723 29.842C245.541 29.0329 240.308 28.5867 235.063 28.5068C222.002 28.5068 219.294 32.8388 219.294 49.3826C219.294 66.0335 222.002 70.1496 235.063 70.1496C242.951 70.1496 250.723 67.93 250.723 67.93V29.842ZM289.359 70.1444C295.561 70.1496 301.742 69.5571 307.83 68.3895L308.845 73.713C308.845 73.713 301.525 75.9325 289.813 75.9325C272.581 75.9325 263.907 72.8286 263.907 49.3964C263.907 42.3992 264.916 35.8477 266.609 31.9682C269.648 24.9711 276.406 22.8586 288.458 22.8586C297.807 22.8586 304.566 23.8587 308.06 28.075C310.877 31.6297 312 36.5161 312 45.1715C312 47.17 311.891 49.0579 311.776 51.1496C309.852 51.2653 302.758 52.0409 294.315 52.0409C286.182 52.0409 278.769 51.609 278.769 51.609L275.274 49.2807C274.598 48.8558 274.151 48.5051 273.244 48.5051C271.104 48.5051 271.334 50.5019 271.334 51.9459C271.334 56.6095 271.443 62.4926 274.714 66.0335C277.422 69.0372 282.37 70.1444 289.357 70.1444H289.359ZM289.129 28.3928C272.574 28.3928 272.119 31.2791 271.449 45.6033C279.223 46.8245 288.343 46.6155 288.343 46.6155C288.343 46.6155 297.693 46.8314 304.451 46.1837C304.451 30.0579 301.297 28.3928 289.136 28.3928H289.129Z" fill="#6C7993"/>
</g>
<defs>
<clipPath id="clip0_1529_1329">
<rect width="312" height="76" fill="white"/>
</clipPath>
</defs>
</svg>
