<svg width="100" height="50" viewBox="0 0 100 101" fill="none" xmlns="http://www.w3.org/2000/svg">
<path d="M94.0401 89.954C94.3474 90.2514 94.5896 90.6094 94.7514 91.0053C94.9132 91.4012 94.9911 91.8264 94.9801 92.254C94.9837 92.8974 94.7956 93.5273 94.4398 94.0634C94.084 94.5996 93.5767 95.0176 92.9824 95.2644C92.3882 95.5111 91.7339 95.5753 91.1031 95.4487C90.4722 95.3222 89.8933 95.0107 89.4401 94.554C89.138 94.2526 88.8992 93.8939 88.7377 93.4989C88.5763 93.1039 88.4955 92.6806 88.5001 92.254C88.4988 91.8272 88.5815 91.4043 88.7436 91.0095C88.9058 90.6147 89.144 90.2556 89.4449 89.9529C89.7458 89.6502 90.1033 89.4097 90.4971 89.2452C90.8909 89.0806 91.3133 88.9953 91.7401 88.994C92.1691 88.9855 92.5952 89.0665 92.9912 89.2318C93.3872 89.3971 93.7444 89.643 94.0401 89.954ZM94.4201 89.584C94.0717 89.2279 93.6544 88.9467 93.1935 88.7575C92.7327 88.5684 92.2381 88.4753 91.7401 88.484C91.1201 88.4853 90.5101 88.6396 89.9639 88.9331C89.4178 89.2265 88.9525 89.6502 88.6092 90.1664C88.2659 90.6827 88.0553 91.2756 87.9959 91.8927C87.9365 92.5098 88.0302 93.1321 88.2687 93.7043C88.5072 94.2766 88.8831 94.7812 89.3633 95.1734C89.8434 95.5657 90.4128 95.8335 91.0211 95.9531C91.6294 96.0727 92.2579 96.0405 92.8507 95.8592C93.4436 95.678 93.9826 95.3533 94.4201 94.914C94.7714 94.5637 95.0502 94.1476 95.2404 93.6894C95.4306 93.2312 95.5285 92.74 95.5285 92.244C95.5285 91.7479 95.4306 91.2567 95.2404 90.7985C95.0502 90.3403 94.7714 89.9242 94.4201 89.574V89.584ZM92.3001 92.074C92.0745 92.1479 91.837 92.1784 91.6001 92.164H90.9501V90.664H91.5801C91.9801 90.664 92.2801 90.714 92.4501 90.814C92.6201 90.914 92.7301 91.124 92.7301 91.414C92.74 91.5545 92.7032 91.6944 92.6254 91.812C92.5477 91.9295 92.4333 92.0181 92.3001 92.064V92.074ZM90.2201 94.294H90.9501V92.674H91.5301C91.9101 92.674 92.1901 92.714 92.3401 92.804C92.6001 92.964 92.7301 93.274 92.7301 93.754V94.084L92.7401 94.214C92.7448 94.2303 92.7482 94.247 92.7501 94.264C92.7501 94.284 92.7601 94.294 92.7701 94.294H93.4501L93.4301 94.254C93.3997 94.1883 93.3859 94.1162 93.3901 94.044V93.434C93.3788 93.1978 93.295 92.9708 93.1501 92.784C93.0001 92.564 92.7601 92.434 92.4401 92.374C92.6508 92.3454 92.8544 92.2776 93.0401 92.174C93.3101 91.994 93.4401 91.714 93.4401 91.354C93.4401 90.834 93.2401 90.484 92.8001 90.304C92.5601 90.204 92.1901 90.154 91.6701 90.154H90.2201V94.294Z" fill="#6C7993"/>
<path d="M95.8597 62.5342C96.1297 57.2042 95.1397 51.4542 90.4997 46.2542C85.7297 41.1142 77.6797 36.7542 61.1297 35.7342C61.9897 33.0542 62.7397 30.5942 63.5297 28.0842C73.4297 28.4342 82.2397 29.1442 89.7297 30.1142C90.3297 27.4342 90.6497 24.8142 91.2597 22.2742C90.4997 21.1609 89.693 20.0809 88.8397 19.0342C85.2797 18.6142 81.7197 17.7342 77.8997 17.2342C72.4415 16.5377 66.9568 16.0673 61.4597 15.8242C57.0916 28.8304 52.755 41.8471 48.4497 54.8742C73.0697 57.0042 82.5497 63.6442 81.9997 73.0042C81.4997 78.0642 76.8897 82.6542 70.7997 83.2042C63.5797 83.6942 60.2697 80.7642 58.0997 77.5642C56.1265 74.6084 54.1698 71.6417 52.2297 68.6642C51.6797 67.7442 50.9497 68.3442 50.2897 68.9842C48.8308 70.3988 47.3674 71.8088 45.8997 73.2142C44.9597 74.0342 45.1697 74.7442 45.4997 75.4342C46.8006 78.5024 48.1207 81.5625 49.4597 84.6142C51.6097 85.9342 61.7497 87.7342 69.3297 87.1742C75.4325 86.6095 81.2655 84.3897 86.1997 80.7542C91.4497 76.6842 95.2697 71.2042 95.8597 62.5342Z" fill="white"/>
<path d="M9.72914 80.1339C10.6758 81.4205 11.6825 82.6572 12.7491 83.8439C22.7329 85.5393 32.8255 86.5151 42.9491 86.7639L42.8491 83.3139C36.0591 82.9339 32.9391 81.8939 32.3991 80.5539C31.9391 79.4839 31.8591 77.8839 31.7691 76.3139C31.2522 65.3053 31.0855 54.283 31.2691 43.2639C35.0691 43.1939 38.8491 43.1639 42.8191 43.1139C44.7391 42.2439 46.5491 41.3739 48.4691 40.5139L48.4791 36.5839C42.5991 36.6039 37.0191 36.7039 31.4191 36.8639C31.5791 32.0939 31.7691 27.7039 32.0491 23.4139C32.2491 20.5939 34.1991 18.5339 36.2091 18.3739C39.4391 18.2439 42.3291 19.5339 45.1391 20.7739C46.6791 21.5239 48.2091 22.2739 49.7891 23.0739C50.5491 23.2739 51.4491 23.4539 51.9891 22.8039C52.9291 21.6839 53.8191 20.6539 54.7391 19.5739C55.2391 18.8339 55.0291 18.4139 54.8191 18.1439C52.8985 16.6322 50.9583 15.1454 48.9991 13.6839C47.8191 12.8839 45.9491 12.7139 44.0991 12.7139C43.3691 12.7139 42.6391 12.7339 41.9491 12.7539C40.0591 12.8539 37.6491 13.1539 33.7091 14.1239C24.8291 16.5139 14.1691 22.7039 13.0391 32.8239C12.8948 34.4856 12.7715 36.149 12.6691 37.8139C10.1591 38.0139 7.86914 38.2039 5.71914 38.4139C5.5669 40.3315 5.45021 42.2519 5.36914 44.1739C7.54914 44.0439 9.82914 43.9239 12.3691 43.8139C11.9891 54.4339 12.3391 65.0239 13.3391 74.8439C13.5091 76.3339 13.6691 77.8139 13.4791 78.7639C13.3191 79.6739 11.8491 80.1539 9.72914 80.1339Z" fill="white"/>
<path d="M91.2701 22.2741C90.6501 24.8041 90.3301 27.4341 89.7401 30.1141C82.2401 29.1441 73.4401 28.4341 63.5401 28.0841C62.7401 30.5841 61.9901 33.0541 61.1401 35.7341C77.6901 36.7541 85.7401 41.1141 90.5101 46.2541C95.1501 51.4541 96.1301 57.2041 95.8601 62.5341C95.2601 71.2041 91.4501 76.6841 86.2001 80.7441C80.9001 84.7441 74.4701 86.7241 69.3301 87.1641C61.7601 87.7241 51.6301 85.9241 49.4701 84.6041C48.1294 81.5531 46.8094 78.493 45.5101 75.4241C45.1801 74.7341 44.9701 74.0241 45.9101 73.2041C47.3778 71.7987 48.8411 70.3887 50.3001 68.9741C50.9601 68.3341 51.6901 67.7341 52.2401 68.6541C54.2801 71.7941 56.1901 74.6841 58.1001 77.5541C60.2701 80.7541 63.5801 83.6841 70.8201 83.1941C76.8901 82.6541 81.5201 78.0541 82.0101 72.9941C82.5401 63.6341 73.0701 56.9941 48.4401 54.8641C53.1701 40.6041 57.7801 26.8041 61.4601 15.8341C67.3101 16.1041 72.7201 16.5841 77.9001 17.2541C81.7201 17.7341 85.2801 18.6241 88.8401 19.0341C82.3338 11.0085 73.501 5.1955 63.5564 2.39431C53.6118 -0.406869 43.0436 -0.0586468 33.3049 3.3911C23.5663 6.84085 15.1354 13.2227 9.17152 21.6592C3.20765 30.0957 0.00364068 40.1725 5.24776e-05 50.5041C-0.0154304 61.1682 3.39549 71.5553 9.73005 80.1341C11.8501 80.1541 13.3201 79.6741 13.4801 78.7641C13.6701 77.8041 13.5101 76.3341 13.3401 74.8441C12.3401 65.0241 11.9901 54.4341 12.3601 43.8141C10.0258 43.9157 7.6924 44.0357 5.36005 44.1741C5.46005 42.2041 5.56005 40.3441 5.72005 38.4141C7.88005 38.2041 10.1601 38.0141 12.6701 37.8141C12.7701 36.1141 12.8901 34.4841 13.0401 32.8341C14.1701 22.7041 24.8301 16.5041 33.7101 14.1241C36.4068 13.4078 39.1662 12.9524 41.9501 12.7641C42.6401 12.7341 43.3701 12.7141 44.1101 12.7141C45.9501 12.7141 47.8101 12.8841 49.0001 13.6841C50.9201 15.1241 52.8001 16.5541 54.8201 18.1441C55.0201 18.4141 55.2401 18.8441 54.7401 19.5741L52.0001 22.8041C51.4601 23.4541 50.5601 23.2841 49.8001 23.0841C48.2201 22.2741 46.7001 21.5241 45.1501 20.7841C42.3501 19.5341 39.4501 18.2441 36.2201 18.3841C34.2101 18.5341 32.2601 20.5941 32.0601 23.4141C31.7801 27.7041 31.5901 32.0941 31.4301 36.8641C37.0301 36.7041 42.6101 36.6041 48.5001 36.5741L48.4901 40.5141C46.5701 41.3741 44.7601 42.2441 42.8301 43.1141C38.8601 43.1641 35.0801 43.1941 31.2801 43.2641C31.095 54.2833 31.2617 65.3056 31.7801 76.3141C31.8801 77.8841 31.9601 79.4841 32.4101 80.5441C32.9501 81.8941 36.0701 82.9241 42.8701 83.3141L42.9701 86.7541C32.8469 86.5125 22.7542 85.5433 12.7701 83.8541C19.5248 91.3889 28.4067 96.6968 38.2422 99.0765C48.0777 101.456 58.4037 100.795 67.8557 97.1817C77.3077 93.5679 85.4407 87.1713 91.1801 78.8371C96.9194 70.5029 99.9949 60.6234 100 50.5041C100.018 40.4238 96.9733 30.5759 91.2701 22.2641V22.2741Z" fill="#6C7993"/>
</svg>
