<svg width="317" height="50" viewBox="0 0 317 50" fill="none" xmlns="http://www.w3.org/2000/svg">
<g clip-path="url(#clip0_1198_1606)">
<path d="M177.246 0L163.812 21.3564L150.329 0H139.559V49H150.329V20.2586L158.106 32.6667H169.435L177.246 20.2254V49H188.032V0H177.246Z" fill="#6C7993"/>
<path d="M30.8711 10.8778L37.5534 0H0V10.8445V21.7058V32.5503V49H10.8065V32.6667H30.8711L30.838 21.7723H10.8065V10.8778H30.8711Z" fill="#6C7993"/>
<path d="M62.1909 0C48.8799 0 38.0874 10.9701 38.0874 24.5C38.0874 38.0299 48.8799 49 62.1909 49C75.5018 49 86.2943 38.0299 86.2943 24.5C86.2943 10.9701 75.5018 0 62.1909 0ZM62.1909 37.6643C54.7995 37.6643 48.7982 31.5642 48.7982 24.0512C48.7982 16.5383 54.7995 10.4383 62.1909 10.4383C69.5822 10.4383 75.5835 16.5383 75.5835 24.0512C75.5835 31.5642 69.5822 37.6643 62.1909 37.6643Z" fill="#6C7993"/>
<path d="M130.39 26.3463C131.811 24.2838 132.62 21.7889 132.785 18.8282C132.885 17.7305 132.918 16.5329 132.819 15.2855C132.439 10.4453 131.629 7.51797 128.655 4.24134C125.565 0.831634 122.079 0.116429 117.982 0H103.541H92.9507V49H103.773V32.6667H112.364L120.609 49H132.901L122.823 31.3527C126.028 30.3878 128.721 28.7912 130.39 26.3463ZM116.544 22.238C116.528 22.2546 103.773 22.238 103.773 22.238V10.3954H116.082C116.148 10.3954 116.924 10.4287 116.99 10.4453C119.865 10.7946 122.112 13.2729 122.112 16.3167C122.096 19.5102 119.634 22.0882 116.544 22.238Z" fill="#6C7993"/>
<path d="M205.078 30.019H194.69C194.69 40.5017 203.098 49 213.466 49C223.837 49 232.243 40.5017 232.243 30.019C232.243 23.2672 228.756 17.3389 223.503 13.9741L217.951 22.8501C220.297 24.3534 221.856 27.0022 221.856 30.019C221.856 34.703 218.1 38.4999 213.466 38.4999C208.834 38.4999 205.078 34.703 205.078 30.019Z" fill="#6C7993"/>
<path d="M225.452 10.8608H194.69V0H232.243L225.452 10.8608Z" fill="#6C7993"/>
</g>
<defs>
<clipPath id="clip0_1198_1606">
<rect width="317" height="49" fill="white" transform="translate(0 0.5)"/>
</clipPath>
</defs>
</svg>
