<svg width="415" height="65" viewBox="0 0 415 73" fill="none" xmlns="http://www.w3.org/2000/svg">
<g clip-path="url(#clip0_703_838)">
<path d="M269.218 56.3598C265.81 56.439 262.423 55.8226 259.261 54.5483C256.1 53.274 253.232 51.3686 250.831 48.9484C248.431 46.5282 246.549 43.644 245.301 40.4721C244.053 37.3001 243.464 33.9069 243.571 30.4998C243.483 27.1147 244.084 23.747 245.337 20.6012C246.59 17.4554 248.469 14.5971 250.86 12.1998C253.243 9.76216 256.103 7.84304 259.262 6.56277C262.421 5.2825 265.811 4.66869 269.218 4.75982C272.63 4.67572 276.017 5.3569 279.132 6.75337C282.246 8.14983 285.009 10.2261 287.216 12.8298L282.806 17.2398C281.189 15.195 279.121 13.5516 276.764 12.438C274.407 11.3244 271.824 10.7706 269.218 10.8198C266.677 10.7578 264.151 11.2154 261.794 12.1646C259.437 13.1138 257.298 14.5346 255.51 16.3398C253.682 18.2031 252.255 20.4205 251.317 22.8555C250.378 25.2906 249.947 27.892 250.05 30.4998C249.939 33.1176 250.365 35.7304 251.304 38.1764C252.244 40.6224 253.675 42.8495 255.51 44.7198C257.294 46.5308 259.432 47.9554 261.79 48.905C264.148 49.8546 266.677 50.309 269.218 50.2398C272.101 50.2258 274.945 49.5665 277.54 48.3102C280.135 47.054 282.416 45.2327 284.216 42.9798L288.835 47.4798C286.497 50.2754 283.553 52.5017 280.227 53.9898C276.774 55.5744 273.016 56.3834 269.218 56.3598ZM300.324 5.86982V55.2798H293.965V5.86982H300.324ZM305.783 38.3598C305.714 35.9916 306.113 33.633 306.957 31.4194C307.802 29.2057 309.074 27.1804 310.703 25.4598C312.315 23.7895 314.257 22.4734 316.405 21.5953C318.553 20.7173 320.861 20.2965 323.181 20.3598C325.493 20.2938 327.793 20.7135 329.932 21.592C332.071 22.4705 334.002 23.7882 335.6 25.4598C337.245 27.1703 338.53 29.193 339.38 31.4087C340.23 33.6244 340.628 35.9879 340.549 38.3598C340.636 40.7327 340.243 43.0987 339.392 45.3156C338.542 47.5324 337.252 49.5544 335.6 51.2598C334.006 52.9375 332.076 54.2592 329.936 55.1382C327.796 56.0171 325.494 56.4334 323.181 56.3598C320.86 56.4306 318.55 56.0132 316.401 55.1347C314.251 54.2562 312.31 52.9361 310.703 51.2598C309.074 49.5392 307.802 47.514 306.957 45.3003C306.113 43.0866 305.714 40.728 305.783 38.3598ZM312.143 38.3598C311.997 41.6044 313.14 44.775 315.322 47.1798C316.332 48.2513 317.55 49.105 318.901 49.6885C320.253 50.272 321.709 50.573 323.181 50.573C324.653 50.573 326.11 50.272 327.461 49.6885C328.813 49.105 330.031 48.2513 331.04 47.1798C333.223 44.775 334.366 41.6044 334.22 38.3598C334.36 35.1342 333.217 31.9845 331.04 29.5998C330.04 28.5125 328.825 27.6445 327.473 27.0508C326.12 26.4571 324.659 26.1505 323.181 26.1505C321.704 26.1505 320.243 26.4571 318.89 27.0508C317.537 27.6445 316.322 28.5125 315.322 29.5998C313.146 31.9845 312.003 35.1342 312.143 38.3598ZM375.645 55.2798H369.646V50.5698H369.346C368.273 52.3306 366.738 53.7628 364.906 54.7098C363.004 55.7884 360.854 56.3568 358.667 56.3598C356.913 56.4735 355.155 56.2171 353.506 55.6072C351.858 54.9974 350.356 54.0477 349.098 52.8198C346.722 50.008 345.528 46.3838 345.769 42.7098V21.4998H352.098V42.3198C351.966 43.447 352.092 44.5894 352.467 45.6605C352.842 46.7315 353.457 47.703 354.263 48.5012C355.07 49.2993 356.048 49.9031 357.123 50.2667C358.198 50.6304 359.341 50.7443 360.467 50.5998C361.682 50.6209 362.885 50.3612 363.983 49.8408C365.08 49.3204 366.043 48.5535 366.796 47.5998C368.507 45.539 369.413 42.9277 369.346 40.2498V21.4998H375.705L375.645 55.2798ZM397.122 56.3598C394.963 56.3594 392.83 55.8927 390.868 54.9918C388.906 54.0909 387.161 52.777 385.754 51.1398C382.603 47.6359 380.889 43.0722 380.954 38.3598C380.851 33.6718 382.523 29.118 385.634 25.6098C387.031 23.9578 388.772 22.6318 390.736 21.7248C392.7 20.8178 394.839 20.3519 397.002 20.3598C399.369 20.3197 401.708 20.866 403.812 21.9498C405.739 22.9001 407.376 24.3506 408.551 26.1498H408.821L408.671 21.4998V5.86982H415V55.2798H409.001V50.5698H408.731C407.556 52.369 405.919 53.8195 403.992 54.7698C401.87 55.8634 399.509 56.4099 397.122 56.3598ZM398.172 50.5698C399.62 50.6166 401.06 50.3361 402.384 49.7491C403.709 49.1622 404.883 48.2839 405.821 47.1798C407.919 44.7357 408.994 41.5764 408.821 38.3598C408.966 35.1653 407.894 32.0347 405.821 29.5998C404.886 28.4881 403.714 27.6009 402.39 27.0037C401.066 26.4065 399.624 26.1147 398.172 26.1498C396.722 26.1274 395.285 26.425 393.963 27.0213C392.641 27.6176 391.466 28.498 390.523 29.5998C388.451 32.0347 387.379 35.1653 387.524 38.3598C387.357 41.5574 388.432 44.6957 390.523 47.1198C391.466 48.2217 392.641 49.1021 393.963 49.6984C395.285 50.2947 396.722 50.5922 398.172 50.5698Z" fill="#6C7993"/>
<path d="M28.4666 56.3603C21.0024 56.3849 13.8291 53.4672 8.50077 48.2393C3.17247 43.0115 0.118314 35.8945 0 28.4303C0.118314 20.9661 3.17247 13.8491 8.50077 8.62123C13.8291 3.39337 21.0024 0.475676 28.4666 0.500288C32.0233 0.441051 35.556 1.09249 38.8577 2.41642C42.1594 3.74034 45.1636 5.71012 47.6942 8.21029L42.2649 13.5803C38.563 10.0153 33.6052 8.05352 28.4666 8.12029C25.8059 8.11214 23.1702 8.63324 20.7127 9.65327C18.2553 10.6733 16.0252 12.1719 14.1522 14.0619C12.2792 15.9518 10.8007 18.1954 9.80271 20.6622C8.80472 23.1289 8.30717 25.7695 8.33899 28.4303C8.30717 31.0911 8.80472 33.7317 9.80271 36.1984C10.8007 38.6651 12.2792 40.9087 14.1522 42.7987C16.0252 44.6887 18.2553 46.1873 20.7127 47.2073C23.1702 48.2273 25.8059 48.7484 28.4666 48.7403C31.0876 48.8479 33.7021 48.4042 36.1409 47.4378C38.5798 46.4715 40.7887 45.004 42.6249 43.1303C45.0725 40.49 46.5437 37.092 46.7944 33.5003H28.4666V25.9103H54.2635C54.5448 27.4843 54.6754 29.0815 54.6534 30.6803C54.8565 37.2639 52.465 43.6637 47.9942 48.5003C45.4781 51.1144 42.4373 53.1662 39.0717 54.5209C35.706 55.8756 32.0918 56.5025 28.4666 56.3603Z" fill="#6C7993"/>
<path d="M94.5484 38.3601C94.647 40.7598 94.2594 43.1546 93.4092 45.4007C92.5589 47.6468 91.2634 49.6978 89.6005 51.4306C87.9377 53.1633 85.9418 54.542 83.7327 55.4838C81.5236 56.4256 79.147 56.9111 76.7456 56.9111C74.3442 56.9111 71.9676 56.4256 69.7585 55.4838C67.5494 54.542 65.5535 53.1633 63.8906 51.4306C62.2278 49.6978 60.9323 47.6468 60.082 45.4007C59.2318 43.1546 58.8442 40.7598 58.9427 38.3601C58.8442 35.9604 59.2318 33.5656 60.082 31.3195C60.9323 29.0734 62.2278 27.0223 63.8906 25.2896C65.5535 23.5569 67.5494 22.1782 69.7585 21.2364C71.9676 20.2946 74.3442 19.8091 76.7456 19.8091C79.147 19.8091 81.5236 20.2946 83.7327 21.2364C85.9418 22.1782 87.9377 23.5569 89.6005 25.2896C91.2634 27.0223 92.5589 29.0734 93.4092 31.3195C94.2594 33.5656 94.647 35.9604 94.5484 38.3601ZM86.7494 38.3601C86.8817 36.9665 86.7214 35.5606 86.2789 34.2325C85.8363 32.9044 85.1212 31.6835 84.1794 30.6479C83.2376 29.6123 82.0898 28.7849 80.8097 28.2187C79.5296 27.6526 78.1453 27.3601 76.7456 27.3601C75.3459 27.3601 73.9616 27.6526 72.6815 28.2187C71.4013 28.7849 70.2536 29.6123 69.3118 30.6479C68.37 31.6835 67.6549 32.9044 67.2123 34.2325C66.7697 35.5606 66.6095 36.9665 66.7418 38.3601C66.6095 39.7537 66.7697 41.1596 67.2123 42.4877C67.6549 43.8157 68.37 45.0367 69.3118 46.0723C70.2536 47.1079 71.4013 47.9353 72.6815 48.5014C73.9616 49.0676 75.3459 49.3601 76.7456 49.3601C78.1453 49.3601 79.5296 49.0676 80.8097 48.5014C82.0898 47.9353 83.2376 47.1079 84.1794 46.0723C85.1212 45.0367 85.8363 43.8157 86.2789 42.4877C86.7214 41.1596 86.8817 39.7537 86.7494 38.3601Z" fill="#6C7993"/>
<path d="M134.474 38.3601C134.573 40.7598 134.185 43.1546 133.335 45.4007C132.485 47.6468 131.189 49.6978 129.526 51.4306C127.863 53.1633 125.868 54.542 123.658 55.4838C121.449 56.4256 119.073 56.9111 116.671 56.9111C114.27 56.9111 111.893 56.4256 109.684 55.4838C107.475 54.542 105.479 53.1633 103.816 51.4306C102.154 49.6978 100.858 47.6468 100.008 45.4007C99.1575 43.1546 98.77 40.7598 98.8685 38.3601C98.77 35.9604 99.1575 33.5656 100.008 31.3195C100.858 29.0734 102.154 27.0223 103.816 25.2896C105.479 23.5569 107.475 22.1782 109.684 21.2364C111.893 20.2946 114.27 19.8091 116.671 19.8091C119.073 19.8091 121.449 20.2946 123.658 21.2364C125.868 22.1782 127.863 23.5569 129.526 25.2896C131.189 27.0223 132.485 29.0734 133.335 31.3195C134.185 33.5656 134.573 35.9604 134.474 38.3601ZM126.675 38.3601C126.782 36.9791 126.602 35.5908 126.147 34.2825C125.692 32.9742 124.972 31.7741 124.031 30.7576C123.09 29.741 121.95 28.9299 120.681 28.3752C119.411 27.8205 118.041 27.5341 116.656 27.5341C115.271 27.5341 113.901 27.8205 112.632 28.3752C111.363 28.9299 110.222 29.741 109.282 30.7576C108.341 31.7741 107.62 32.9742 107.165 34.2825C106.71 35.5908 106.531 36.9791 106.638 38.3601C106.531 39.7411 106.71 41.1294 107.165 42.4377C107.62 43.7459 108.341 44.946 109.282 45.9626C110.222 46.9792 111.363 47.7903 112.632 48.345C113.901 48.8997 115.271 49.186 116.656 49.186C118.041 49.186 119.411 48.8997 120.681 48.345C121.95 47.7903 123.09 46.9792 124.031 45.9626C124.972 44.946 125.692 43.7459 126.147 42.4377C126.602 41.1294 126.782 39.7411 126.675 38.3601Z" fill="#6C7993"/>
<path d="M173.379 21.5001V53.7801C173.379 67.0401 165.49 72.5001 156.191 72.5001C152.769 72.5189 149.419 71.5191 146.566 69.628C143.714 67.7369 141.488 65.0398 140.173 61.8801L147.102 58.8801C147.801 60.7195 149.028 62.3108 150.629 63.4534C152.231 64.5959 154.135 65.2385 156.101 65.3001C162.1 65.3001 165.76 61.6101 165.76 54.7401V52.1601H165.58C164.38 53.5142 162.9 54.5912 161.243 55.3164C159.585 56.0417 157.79 56.3978 155.981 56.3601C151.208 56.3601 146.63 54.4636 143.255 51.088C139.88 47.7123 137.983 43.134 137.983 38.3601C137.983 33.5862 139.88 29.0078 143.255 25.6322C146.63 22.2565 151.208 20.3601 155.981 20.3601C157.784 20.3267 159.573 20.6789 161.228 21.3928C162.883 22.1068 164.367 23.1662 165.58 24.5001H165.85V21.5001H173.379ZM166.39 38.4801C166.5 37.1199 166.336 35.7515 165.906 34.4564C165.476 33.1612 164.79 31.9658 163.889 30.9412C162.988 29.9167 161.89 29.0841 160.66 28.4929C159.43 27.9017 158.094 27.564 156.731 27.5001C155.347 27.5499 153.986 27.8748 152.729 28.4559C151.471 29.0369 150.342 29.8625 149.407 30.8845C148.471 31.9064 147.749 33.1043 147.281 34.4084C146.813 35.7124 146.61 37.0966 146.682 38.4801C146.618 39.8542 146.828 41.2274 147.301 42.5193C147.773 43.8112 148.498 44.996 149.434 46.0044C150.37 47.0127 151.497 47.8244 152.75 48.392C154.003 48.9596 155.356 49.2717 156.731 49.3101C158.089 49.2618 159.422 48.9389 160.651 48.3606C161.881 47.7824 162.98 46.9609 163.883 45.9458C164.785 44.9308 165.473 43.7432 165.904 42.4548C166.335 41.1665 166.5 39.8041 166.39 38.4501V38.4801Z" fill="#6C7993"/>
<path d="M187.268 2.42041V55.2804H179.349V2.42041H187.268Z" fill="#6C7993"/>
<path d="M218.464 44.3002L224.643 48.5002C222.993 50.9625 220.761 52.9793 218.145 54.3714C215.528 55.7635 212.608 56.4879 209.645 56.4802C207.287 56.5139 204.947 56.0689 202.767 55.172C200.586 54.2752 198.61 52.9451 196.959 51.2623C195.307 49.5796 194.014 47.5791 193.157 45.3821C192.301 43.185 191.9 40.837 191.977 38.4802C191.626 34.4285 192.778 30.3893 195.213 27.1324C197.648 23.8756 201.197 21.6289 205.182 20.8206C209.168 20.0124 213.311 20.699 216.822 22.7497C220.334 24.8004 222.968 28.0718 224.223 31.9402L225.033 34.0102L201.036 43.9402C201.784 45.6211 203.017 47.0396 204.579 48.0128C206.14 48.9859 207.957 49.4691 209.795 49.4002C211.555 49.3603 213.275 48.8707 214.793 47.978C216.31 47.0854 217.574 45.8193 218.464 44.3002ZM199.536 37.8202L215.674 31.1602C215.028 29.9655 214.05 28.9837 212.857 28.3341C211.664 27.6845 210.309 27.3948 208.955 27.5002C207.658 27.558 206.386 27.8709 205.211 28.4211C204.035 28.9712 202.98 29.7478 202.105 30.7064C201.23 31.665 200.553 32.7867 200.112 34.0074C199.671 35.2281 199.476 36.5237 199.536 37.8202Z" fill="#6C7993"/>
</g>
<defs>
<clipPath id="clip0_703_838">
<rect width="415" height="72" fill="white" transform="translate(0 0.5)"/>
</clipPath>
</defs>
</svg>
