<svg width="226" height="35" viewBox="0 0 226 56" fill="none" xmlns="http://www.w3.org/2000/svg">
<path d="M0.400391 1.8999H12.9004V54.3999H0.400391V1.8999Z" fill="#6C7993"/>
<path d="M103.3 54.3999V1.8999H90.8004V33.9999L66.8004 1.8999H61.3004H54.8004V33.9999L30.9004 1.8999H18.9004V54.3999H31.4004V22.3999L55.3004 54.3999H57.4004H64.5004H67.4004V22.3999L91.3004 54.3999H103.3Z" fill="#6C7993"/>
<path d="M135.3 12.8999C143.8 12.8999 149.9 19.0999 149.9 28.0999C149.9 37.0999 143.8 43.2999 135.3 43.2999C126.7 43.2999 120.7 37.0999 120.7 28.0999C120.7 19.0999 126.8 12.8999 135.3 12.8999ZM135.3 0.899902C119.1 0.899902 107.6 12.4999 107.6 28.0999C107.6 43.6999 119.1 55.2999 135.3 55.2999C151.5 55.2999 163 43.6999 163 28.0999C163 12.4999 151.5 0.899902 135.3 0.899902Z" fill="#6C7993"/>
<path d="M194.2 12.8999C202.7 12.8999 208.8 19.0999 208.8 28.0999C208.8 29.7999 208.6 31.3999 208.2 32.8999L206.5 30.5999H192.9L201.2 41.6999C199.2 42.6999 196.8 43.2999 194.3 43.2999C185.8 43.2999 179.7 37.0999 179.7 28.0999C179.6 19.1999 185.7 12.8999 194.2 12.8999ZM194.2 0.899902C178 0.899902 166.5 12.4999 166.5 28.0999C166.5 43.6999 178 55.2999 194.2 55.2999C199.7 55.2999 204.4 53.7999 208.4 51.1999L210.7 54.2999H225.4L217.1 43.0999C220 38.8999 221.7 33.9999 221.7 28.0999C221.9 12.4999 210.4 0.899902 194.2 0.899902Z" fill="#6C7993"/>
</svg>
