<svg width="230" height="73" viewBox="0 0 230 73" fill="none" xmlns="http://www.w3.org/2000/svg">
<g clip-path="url(#clip0_1527_1415)">
<path d="M102.941 47.3592L94.646 33.3606C98.6274 32.4246 102.719 28.9524 102.719 22.449C102.719 15.6162 98.0197 10.5996 90.3347 10.5996H73.084V47.3592H80.9349V34.1886H86.6851L93.9284 47.3592H102.941ZM94.7019 22.3932C94.7019 25.4802 92.3236 27.4638 89.1735 27.4638H80.9349V17.3244H89.1735C92.3254 17.3244 94.7019 19.3062 94.7019 22.3932ZM134.708 47.3592V40.5804H116.461V32.0394H134.319V25.3146H116.461V17.3226H134.708V10.6014H108.611V47.361L134.708 47.3592ZM148.697 47.3592V34.1886H158.095C166.058 34.1886 170.481 28.8426 170.481 22.449C170.481 16.0014 166.114 10.5996 158.095 10.5996H140.846V47.3592H148.697ZM162.464 22.3932C162.464 25.4802 160.142 27.4638 157.046 27.4638H148.697V17.3244H157.046C160.142 17.3244 162.464 19.362 162.464 22.3932ZM198.791 47.3592V40.4706H183.199V10.5996H175.348V47.3592H198.791ZM215.405 47.3592V32.3148L229.504 10.5996H220.546L211.479 25.3704L202.301 10.5996H193.343L207.552 32.3148V47.3592H215.405Z" fill="#6C7993"/>
<path d="M82.3414 71.6684V69.3572H75.7202V56.6924H73.084V71.6684H82.3414ZM87.3559 71.6684V56.6924H84.7197V71.6684H87.3559ZM105.236 64.193C105.236 59.7236 102.061 56.4458 97.5545 56.4458C93.0503 56.4458 89.8731 59.7236 89.8731 64.193C89.8731 68.6606 93.0503 71.9384 97.5545 71.9384C98.9736 71.9384 100.259 71.6234 101.339 71.0402L102.647 72.4982L104.47 70.9736L103.231 69.5804C104.493 68.2124 105.236 66.3476 105.236 64.193ZM97.5545 69.6038C94.5144 69.6038 92.5778 67.2692 92.5778 64.193C92.5778 61.0934 94.5144 58.7804 97.5545 58.7804C100.573 58.7804 102.533 61.0934 102.533 64.193C102.533 65.5178 102.172 66.7076 101.52 67.6274L99.6498 65.5394L97.825 67.0442L99.6949 69.1538C99.0638 69.4472 98.3425 69.6038 97.5545 69.6038ZM107.773 65.7644C107.773 69.4454 109.913 71.9384 114.282 71.9384C118.632 71.9384 120.77 69.4688 120.77 65.741V56.6924H118.112V65.6744C118.112 68.054 116.783 69.6038 114.284 69.6038C111.76 69.6038 110.433 68.0558 110.433 65.6744V56.6924H107.773V65.7644ZM126.6 71.6684V56.6924H123.962V71.6684H126.6ZM135.379 71.6684C140.064 71.6684 143.241 68.5922 143.241 64.193C143.241 59.792 140.064 56.6924 135.379 56.6924H129.793V71.6684H135.379ZM132.429 59.0054H135.379C138.735 59.0054 140.536 61.295 140.536 64.193C140.536 67.0208 138.645 69.3572 135.379 69.3572H132.429V59.0072V59.0054Z" fill="#6C7993"/>
<path fill-rule="evenodd" clip-rule="evenodd" d="M54.9249 12.8534C55.7381 12.8539 56.5434 12.6945 57.2948 12.3843C58.0462 12.0741 58.7291 11.6192 59.3044 11.0455C59.8797 10.4719 60.3362 9.79073 60.6478 9.04097C60.9594 8.29121 61.1201 7.48753 61.1205 6.6758C61.1191 5.03676 60.4656 3.46539 59.3038 2.30725C58.1419 1.14912 56.5668 0.499047 54.9249 0.500002C54.1118 0.499293 53.3065 0.658472 52.5549 0.968451C51.8034 1.27843 51.1204 1.73314 50.5449 2.30661C49.9694 2.88009 49.5127 3.5611 49.2009 4.31077C48.8891 5.06044 48.7282 5.86408 48.7275 6.6758C48.728 7.48768 48.8887 8.29151 49.2004 9.04139C49.5121 9.79126 49.9688 10.4725 50.5443 11.0462C51.1198 11.6198 51.8029 12.0747 52.5545 12.3848C53.3062 12.6949 54.1116 12.8541 54.9249 12.8534ZM0.725856 37.427L2.50016 39.2972C2.65523 39.4592 2.8716 39.5528 3.09519 39.5528H25.2379C25.3858 39.5529 25.5309 39.5131 25.658 39.4376L31.3812 36.0482C31.5232 35.9643 31.6873 35.925 31.852 35.9356C32.0167 35.9462 32.1744 36.0062 32.3044 36.1076L42.9466 44.4362C43.1141 44.5667 43.224 44.7571 43.2531 44.9672L45.471 61.0106C45.498 61.2062 45.5951 61.3855 45.7443 61.5152C45.8934 61.6449 46.0846 61.7163 46.2824 61.7162H48.0279C48.4805 61.7162 48.8483 61.3508 48.8483 60.899V42.809C48.8483 42.629 48.7888 42.4544 48.6788 42.3122L39.0103 29.6996C38.9003 29.5564 38.841 29.3808 38.8416 29.2004C38.8423 29.0199 38.9029 28.8448 39.0139 28.7024L48.9078 15.989C49.0135 15.8539 49.0739 15.6891 49.0803 15.5178C49.0868 15.3466 49.0391 15.1776 48.9439 15.035L44.9806 9.122C44.9056 9.01017 44.8042 8.91849 44.6853 8.85507C44.5665 8.79166 44.4338 8.75845 44.299 8.7584H23.8278C23.6609 8.75887 23.4981 8.81025 23.3613 8.90567C23.2245 9.00108 23.1201 9.13597 23.0623 9.29224C23.0044 9.44852 22.9958 9.61872 23.0375 9.78004C23.0793 9.94135 23.1694 10.0861 23.2959 10.1948L26.0691 12.5618C26.1879 12.6626 26.333 12.7276 26.4875 12.749L37.3496 14.2934C37.4408 14.3063 37.5267 14.3435 37.5984 14.4011C37.67 14.4588 37.7248 14.5347 37.7567 14.6208C37.7887 14.707 37.7967 14.8002 37.78 14.8905C37.7632 14.9808 37.7223 15.065 37.6616 15.134L22.7549 32.1404C22.6314 32.2808 22.4634 32.3748 22.2789 32.4068L1.18025 36.0608C1.03385 36.0854 0.896932 36.1494 0.784219 36.2458C0.671506 36.3423 0.587258 36.4676 0.540533 36.6083C0.493808 36.7489 0.486372 36.8997 0.519025 37.0442C0.551677 37.1888 0.623183 37.3218 0.725856 37.4288V37.427Z" fill="#6C7993"/>
</g>
<defs>
<clipPath id="clip0_1527_1415">
<rect width="229" height="72" fill="white" transform="translate(0.5 0.5)"/>
</clipPath>
</defs>
</svg>
