<svg width="385" height="87" viewBox="0 0 385 87" fill="none" xmlns="http://www.w3.org/2000/svg">
<path d="M27.4869 45.4223C26.9807 45.8213 26.35 46.0263 25.7073 46.0007C25.0057 46.0007 24.5052 45.848 23.962 45.4503L7.39414 29.3941L5.65094 27.6956V27.702L0 22.226V20.9274C0 19.3471 1.25125 18.0937 2.82333 18.0937C3.83717 18.0937 4.4275 18.4076 5.34936 19.3321L25.7073 39.2002L46.061 19.3364C46.985 18.4097 47.5753 18.0937 48.5891 18.0937C50.1634 18.0937 51.4125 19.3471 51.4125 20.9274V22.2324L45.7658 27.7085V27.6956L42.2923 31.0732L27.4869 45.4223ZM45.7637 34.7476L51.4146 29.2715V66.129C51.4146 67.7092 50.1634 68.967 48.5913 68.967C47.0149 68.967 45.7637 67.7092 45.7637 66.129V34.7497V34.7476ZM5.65094 34.7411V66.1311C5.65094 67.7092 4.39969 68.9648 2.82547 68.9648C1.25125 68.9648 0 67.7092 0 66.129V29.2672L5.65094 34.7433V34.7411ZM99.2231 17.8335V23.5418C89.3991 24.8382 81.7975 33.2899 81.7975 43.5002C81.7975 54.6071 90.7894 63.6307 101.854 63.6307C112.92 63.6307 121.912 54.6071 121.912 43.5002C121.912 33.2146 114.2 24.7135 104.267 23.5138V17.812C117.35 19.0289 127.563 30.052 127.563 43.5002C127.563 57.7655 116.069 69.3002 101.854 69.3002C87.641 69.3002 76.1487 57.7655 76.1487 43.5002C76.1487 30.1272 86.2486 19.1515 99.2231 17.8335ZM152.31 29.0823H157.963V37.5963H164.145C166.012 37.5901 167.801 36.8425 169.122 35.5164C170.443 34.1903 171.19 32.3931 171.199 30.5164C171.199 26.7646 168.162 24.0212 164.145 24.0212H152.312V21.2671C152.312 19.6868 153.564 18.4291 155.136 18.4291H164.581C166.193 18.4228 167.789 18.737 169.279 19.3534C170.77 19.9699 172.124 20.8765 173.264 22.0211C174.404 23.1657 175.308 24.5257 175.924 26.0228C176.539 27.5198 176.854 29.1244 176.85 30.7443C176.85 34.0553 175.566 36.9664 173.316 39.0497C179.055 41.318 182.877 46.6951 182.877 53.0527C182.877 55.093 182.477 57.1133 181.7 58.998C180.922 60.8828 179.783 62.595 178.346 64.0367C176.91 65.4784 175.205 66.6214 173.329 67.4002C171.453 68.1791 169.443 68.5785 167.413 68.5757H155.136C153.564 68.5757 152.312 67.3179 152.312 65.7377V29.0845L152.31 29.0823ZM157.963 63.0502H167.051C172.523 63.0502 177.01 58.5459 177.01 53.0527C177.01 47.5616 172.523 43.0552 167.051 43.0552H157.961L157.963 63.0502ZM354.429 29.0823H360.08V37.5963H366.261C368.128 37.5901 369.917 36.8425 371.239 35.5164C372.56 34.1903 373.306 32.3931 373.315 30.5164C373.315 26.7646 370.28 24.0212 366.261 24.0212H354.429V21.2671C354.429 19.6868 355.68 18.4291 357.254 18.4291H366.698C368.309 18.4231 369.906 18.7375 371.396 19.354C372.886 19.9706 374.24 20.8772 375.38 22.0218C376.52 23.1663 377.424 24.5262 378.039 26.0231C378.655 27.52 378.97 29.1245 378.966 30.7443C378.966 34.0553 377.683 36.9664 375.433 39.0497C381.171 41.318 384.996 46.6951 384.996 53.0527C384.996 61.6312 378.079 68.5757 369.529 68.5757H357.254C356.883 68.5782 356.514 68.5066 356.171 68.3649C355.827 68.2232 355.514 68.0143 355.251 67.7503C354.989 67.4863 354.781 67.1724 354.639 66.8269C354.498 66.4814 354.427 66.1112 354.429 65.7377V29.0845V29.0823ZM360.08 63.0502H369.168C374.639 63.0502 379.127 58.5459 379.127 53.0527C379.127 47.5616 374.639 43.0552 369.168 43.0552H360.08V63.0502ZM213.256 20.9016V66.1032C213.256 67.6834 212.005 68.9369 210.432 68.9369C208.856 68.9369 207.605 67.6834 207.605 66.1032V20.9016C207.605 19.3213 208.856 18.0636 210.43 18.0636C212.005 18.0636 213.256 19.3213 213.256 20.9016Z" fill="#6C7993"/>
<path d="M323.122 68.8183C323.079 68.8212 323.035 68.8226 322.992 68.8226H292.936C292.79 68.8231 292.644 68.8072 292.502 68.7753L295.184 63.252H320.419L323.122 68.8183Z" fill="#6C7993"/>
<path d="M265.066 63.4089C266.508 63.5422 267.61 64.6817 267.61 66.1717C267.61 67.7562 266.363 68.9473 264.784 68.9473H243.718C243.346 68.9491 242.977 68.8765 242.633 68.7338C242.289 68.5912 241.976 68.3812 241.713 68.1163C241.451 67.8513 241.243 67.5365 241.102 67.1901C240.961 66.8438 240.89 66.4728 240.893 66.0986V63.4089H265.066ZM240.893 58.3457V20.9142C240.893 19.3275 242.142 18.0654 243.718 18.0654C245.297 18.0654 246.544 19.2565 246.544 20.8411V58.3457H240.893Z" fill="#6C7993"/>
<path d="M287.519 67.4942C286.79 68.7842 285.241 69.3324 283.815 68.6702C282.407 67.9091 281.845 66.3138 282.512 64.8626L304.012 19.8846C304.748 18.3237 306.213 17.7002 307.758 17.7002C309.302 17.7002 310.765 18.3237 311.501 19.8781L333.009 64.8755C333.67 66.316 333.108 67.907 331.643 68.6982C330.573 69.1927 329.371 68.9777 328.539 68.1908C328.45 68.1068 328.376 68.0069 328.323 67.8962L307.76 25.4122L287.519 67.4942Z" fill="#6C7993"/>
</svg>
