<svg width="395" height="65" viewBox="0 0 395 54" fill="none" xmlns="http://www.w3.org/2000/svg">
<g clip-path="url(#clip0_1323_1613)">
<path d="M31.699 5.55131C31.699 1.18811 27.5877 -0.129492 24.1402 0.021708V0.410508C26.1958 0.561708 27.7804 1.40411 27.7804 2.80811C27.7804 3.78011 27.0952 4.98971 25.0395 4.98971C23.4121 4.98971 20.7141 4.01771 18.1873 3.17531C15.4036 2.20331 12.7484 1.29611 10.5429 1.29611C6.21743 1.29611 2.94124 4.53611 2.94124 8.55371C2.94124 11.7937 5.42515 12.9169 6.43156 13.3273L6.4958 13.1761C5.85341 12.7441 5.44656 12.2689 5.44656 10.8865C5.44656 9.72011 6.28167 8.16491 8.50863 8.16491C10.5215 8.16491 13.1553 9.07211 16.6456 10.0657C19.6434 10.9081 22.8768 11.7073 24.6755 11.9449V19.0297L21.2922 21.8377L24.6755 24.7753V34.4737C22.941 35.4673 20.9282 35.7913 19.1937 35.7913C15.9818 35.7913 13.0268 34.8841 10.5857 32.1625L19.7077 27.6913V12.3769L8.57287 17.3881C9.72917 14.4073 11.8919 12.1825 14.2687 10.7353L14.2045 10.5625C7.58787 12.3769 1.5708 18.4897 1.5708 26.0497C1.5708 35.1001 8.74417 41.8177 17.031 41.8177C26.0031 41.8177 31.2707 34.7329 31.185 27.2377H31.0137C29.7075 30.1105 27.5234 32.8321 25.0609 34.2577V24.7969L28.5941 21.9241L25.0609 19.0513V11.9665C28.3371 11.9665 31.7204 9.78491 31.7204 5.57291M12.9197 30.5209L10.3287 31.8385C8.74417 29.7649 7.69493 26.8273 7.69493 23.0473C7.69493 21.4921 7.86624 19.3753 8.38015 17.8849L12.9625 15.8113L12.8983 30.4993L12.9197 30.5209ZM54.6109 18.0793L52.8765 19.4617L47.5874 14.7097L41.4633 19.4833V1.03691L33.1336 6.84731C34.0972 7.17131 35.2535 7.68971 35.2535 9.93611V35.4457L32.4056 37.6273L32.6625 37.8865L34.0972 36.8929L39.065 41.4721L45.7245 37.0009L45.5104 36.6769L43.8187 37.8001L41.5061 35.4673V20.0881L43.0907 18.9217L46.7309 22.1185V35.4889C46.7309 43.9561 44.868 45.7057 41.0993 47.0881V47.3041C47.3733 47.5633 53.0263 45.4249 53.0263 34.5817V20.0017L54.9107 18.4465L54.6537 18.1225L54.6109 18.0793ZM65.7885 41.4073L75.4458 33.5881L75.1889 33.2209L70.1354 37.2601L64.3324 32.6377V29.7649L74.3537 22.6369L69.3003 14.7097L58.1655 20.8873V35.5753L56.0028 37.2817L56.2597 37.6057L58.3154 35.9641L65.8099 41.4505H65.7885V41.4073ZM64.311 29.1601V18.0361L69.1718 25.7041L64.311 29.1601ZM115.381 3.47771C115.381 2.78651 115.21 2.20331 114.953 1.40411H114.803C114.118 3.28331 113.368 4.27691 111.206 4.27691C109.321 4.27691 107.822 3.11051 107.03 2.24651C107.03 2.31131 100.692 9.63371 100.692 9.63371L101.013 9.89291L102.812 7.81931C104.182 8.87771 105.403 10.1089 108.443 10.1521V28.8145L95.467 6.13451C94.4606 4.42811 92.7261 1.87931 89.7711 1.87931C86.2808 1.87931 83.647 4.90331 84.0753 10.0225H84.2894C84.5464 8.74811 85.2958 7.14971 86.8161 7.14971C88.0367 7.14971 89.0217 8.31611 89.5998 9.37451V16.6753C85.5956 16.6753 83.3258 18.5545 83.3258 21.7297C83.3258 23.0473 84.2894 25.9201 87.0089 26.4169V26.2657C86.6448 25.8985 86.2808 25.5745 86.2808 24.8185C86.2808 23.5873 87.1802 22.9177 88.8075 22.9177C89.0645 22.9177 89.4499 22.9825 89.5998 23.0257V32.4865C84.889 32.5513 81.2702 35.1433 81.2702 39.6361C81.2702 44.1289 84.9104 45.8569 88.7005 45.6409V45.4897C86.3236 45.2305 85.1031 43.9993 85.1031 42.2497C85.1031 40.3489 86.4735 39.3121 88.208 39.3121C89.9424 39.3121 91.27 40.4353 92.3835 41.7097L98.7218 34.5169L98.4648 34.2577L96.8374 36.1369C94.3964 33.9553 92.8332 32.9401 90.0281 32.5081V10.0873L107.929 41.5585H108.893V10.1953C112.319 9.97931 115.381 7.38731 115.381 3.47771ZM121.398 41.3641L131.055 33.5449L130.799 33.1777L125.745 37.2169L119.942 32.5945V29.7217L129.963 22.5937L124.91 14.6665L113.775 20.8441V35.5321L111.612 37.2385L111.869 37.5625L113.925 35.9209L121.42 41.4073L121.398 41.3641ZM119.921 29.1169V17.9929L124.781 25.6609L119.921 29.1169ZM165.359 17.1937L163.882 18.3169L159.663 14.6881L154.76 19.1593L156.773 21.0601V37.7353L151.762 34.2793V20.7577L153.496 19.5265L148.336 14.6881L143.539 19.1593L145.552 21.0601V37.1737L145.231 37.3897L140.52 33.9337V20.6929C140.52 17.6041 138.978 16.6969 137.03 15.4873C135.402 14.4721 134.546 13.5217 134.546 11.9665C134.546 10.2601 136.023 9.56891 136.494 9.30971C134.803 9.24491 130.113 10.9513 130.006 15.2713C129.942 17.4961 131.013 18.4681 132.126 19.5265C133.24 20.5849 134.289 21.6001 134.289 23.4793V36.4609L132.019 38.2753L132.276 38.5345L134.439 36.8281L140.07 41.4505L145.445 37.6705L151.355 41.4505L162.961 34.5385V19.5265L165.552 17.4961L165.338 17.1721L165.359 17.1937ZM204.224 4.57931L202.018 6.60971L197.05 2.24651L190.348 7.66811V2.57051H189.941V39.1393C189.213 39.0313 187.672 38.5993 185.98 38.3401V7.73291C185.98 5.50811 184.395 2.39771 180.434 2.39771C176.473 2.39771 173.989 5.76731 173.989 8.68331H174.16C174.374 7.36571 175.273 6.17771 176.58 6.17771C177.886 6.17771 179.106 7.02011 179.106 10.0225V18.7489C175.359 18.9001 173.089 21.2545 173.089 23.8033C173.089 25.2505 173.989 27.9505 176.837 28.0585V27.8425C175.873 27.4321 175.68 26.9353 175.68 26.3953C175.68 25.1209 176.901 24.6889 178.592 24.6889H178.999V38.7505C175.787 39.8737 174.288 42.0553 174.288 44.7553C174.288 48.4705 177.243 51.3433 181.569 51.3433C184.631 51.3433 186.794 50.8033 189.599 50.1769C191.869 49.7017 194.331 49.1617 195.659 49.1617C197.35 49.1617 198.1 49.9177 198.1 51.1273C198.1 52.6825 197.522 53.4601 196.622 53.7409V53.9569C200.262 53.2657 202.382 51.1489 202.382 47.8441C202.382 44.5393 199.17 42.3577 195.573 42.3577C193.71 42.3577 190.348 42.9409 187.607 43.5889C184.545 44.2801 181.911 44.6041 180.948 44.6041C179.406 44.6041 177.522 43.9129 177.522 41.8393C177.522 39.9601 179.064 38.4697 182.854 38.4697C184.909 38.4697 186.922 38.7937 189.449 39.3769C192.147 39.9601 193.988 40.7593 196.301 40.7593C199.513 40.7593 202.104 39.5929 202.104 34.8409V7.10651L204.481 4.92491L204.224 4.60091V4.57931ZM195.145 19.2241C194.567 19.8721 193.881 20.3905 192.768 20.3905C191.547 20.3905 190.905 19.7425 190.327 19.2241V8.22971L191.911 6.95531L195.123 9.72011V19.2457L195.145 19.2241ZM195.145 24.4297C194.609 23.8897 193.924 23.4145 192.768 23.4145C191.612 23.4145 190.819 23.9977 190.327 24.4297V19.7425C190.798 20.1529 191.59 20.8009 192.768 20.8009C193.946 20.8009 194.631 20.2609 195.145 19.7425V24.4297ZM195.145 35.4457C195.145 37.2601 194.245 39.2905 191.933 39.2905C191.569 39.2905 190.712 39.2257 190.348 39.1825V24.9697C190.884 24.4945 191.569 23.8465 192.789 23.8465C193.903 23.8465 194.524 24.3865 195.166 24.9697V35.4673L195.145 35.4457ZM213.945 41.3641L224.716 34.6033V19.8073L217.757 14.6449L206.986 20.8657V35.5105L204.866 37.2169L205.08 37.5409L206.815 36.0937L213.945 41.3641ZM213.153 33.6961V17.9281L218.528 21.9673V37.7353L213.153 33.6961ZM245.294 15.0121C244.459 15.5953 243.71 15.9193 242.917 15.9193C242.082 15.9193 241.033 15.3793 240.476 14.6881C240.476 14.7529 236.472 19.0513 236.472 19.0513L232.468 14.6881L225.937 19.2673L226.151 19.6345L227.885 18.4681L230.262 21.0817V35.4025L227.414 37.5841L227.671 37.8433L229.106 36.8497L234.438 41.4289L241.183 36.9145L240.969 36.5905L239.234 37.6489L236.493 35.1433V19.4185C237.607 20.6497 238.87 21.7081 240.39 21.7081C243.131 21.7081 244.973 18.4033 245.294 14.9905M270.733 36.1801L268.72 37.4545L257.585 20.6929L258.163 19.8937C259.384 20.6281 260.476 21.6433 262.81 21.6433C265.144 21.6433 268.099 19.1809 268.356 14.6665C267.778 15.4657 266.621 16.4161 264.716 16.4161C263.345 16.4161 261.975 15.5089 261.14 14.6665L253.538 25.9417L263.624 41.4289L270.947 36.5257L270.733 36.1585V36.1801ZM257.221 36.5905L255.53 37.7137L253.217 35.3809V1.03691L244.887 6.84731C245.851 7.17131 247.007 7.68971 247.007 9.93611V35.4457L244.159 37.6273L244.416 37.8865L245.851 36.8929L250.819 41.4721L257.478 37.0009L257.264 36.6769L257.221 36.5905ZM306.236 5.50811C306.236 1.14491 302.124 -0.172692 298.677 -0.021492V0.410508C300.732 0.561708 302.317 1.40411 302.317 2.80811C302.317 3.78011 301.632 4.98971 299.576 4.98971C297.949 4.98971 295.251 4.01771 292.724 3.17531C289.94 2.20331 287.285 1.29611 285.08 1.29611C280.754 1.29611 277.478 4.53611 277.478 8.53211C277.478 11.7721 279.962 12.8953 280.968 13.3057L281.032 13.1545C280.39 12.7225 279.983 12.2473 279.983 10.8649C279.983 9.69851 280.818 8.14331 283.045 8.14331C285.058 8.14331 287.692 9.05051 291.182 10.0441C294.18 10.8865 297.413 11.6857 299.212 11.9233V19.0081L295.829 21.8161L299.212 24.7537V34.4521C297.478 35.4457 295.465 35.7697 293.73 35.7697C290.518 35.7697 287.542 34.8625 285.122 32.1409L294.244 27.6697V12.3769L283.11 17.3881C284.266 14.4073 286.429 12.1825 288.805 10.7353L288.741 10.5625C282.146 12.3769 276.129 18.4897 276.129 26.0497C276.129 35.1001 283.302 41.8177 291.589 41.8177C300.561 41.8177 305.829 34.7329 305.743 27.2377H305.593C304.287 30.1105 302.103 32.8321 299.64 34.2577V24.7969L303.174 21.9241L299.64 19.0513V11.9665C302.917 11.9665 306.3 9.78491 306.3 5.57291M287.499 30.5425L284.908 31.8601C283.324 29.7865 282.274 26.8489 282.274 23.0689C282.274 21.5137 282.424 19.3969 282.96 17.9065L287.542 15.8329L287.478 30.5209L287.499 30.5425ZM313.045 3.95291L308.398 7.88411L312.36 12.3985L317.006 8.46731L313.045 3.95291ZM320.111 36.6769L318.42 37.8001L316.107 35.4673V19.9801L318.056 18.4249L317.799 18.1009L316.171 19.3753L312.317 14.7529L305.979 19.2241L306.193 19.5913L307.777 18.5329L309.897 21.1897V35.4673L307.049 37.6489L307.306 37.9081L308.741 36.9145L313.709 41.4937L320.368 37.0225L320.154 36.6985L320.111 36.6769ZM355.721 36.4609L354.137 37.5193L351.653 35.1217V19.9369L353.665 18.3817L353.409 18.0577L351.61 19.4401L346.321 14.6881L340.368 19.3753L335.143 14.6881L329.276 19.3105L325.315 14.6881L318.976 19.1593L319.191 19.5265L320.775 18.4681L323.045 21.0817V35.3593L321.31 37.1089L326.364 41.4289L331.267 36.9577L329.255 35.0569V19.8505L330.561 18.8785L334.201 22.0753V35.3809L332.509 37.1305L337.627 41.4505L342.424 36.9793L340.411 35.0785V19.8721L341.674 18.8569L345.357 22.0969V35.1865L343.88 36.7417L349.04 41.4937L355.85 36.8065L355.636 36.4825H355.678L355.721 36.4609ZM374.136 33.2209L369.083 37.2601L363.28 32.6377V29.7649L373.301 22.6369L368.248 14.7097L357.113 20.8873V35.8561L364.757 41.4505L374.415 33.6313L374.158 33.2641L374.136 33.2209ZM363.259 29.1601V18.0361L368.119 25.7041L363.259 29.1601ZM393.494 27.0649L389.211 23.7601C392.059 21.2545 393.066 18.0793 393.066 15.7897C393.066 15.4657 393.001 14.8825 392.958 14.3425H392.787C392.38 15.5089 391.245 16.5241 389.511 16.5241C387.776 16.5241 386.813 15.5521 385.764 14.3857L375.956 19.8721V27.9073L379.704 30.8881C375.956 34.2361 375.228 36.3097 375.228 38.2321C375.228 40.1545 376.342 41.8393 378.248 42.5953L378.398 42.3361C377.926 41.9257 377.498 41.6449 377.498 40.6297C377.498 39.8953 378.248 38.7289 379.939 38.7289C382.102 38.7289 383.43 40.2193 384.115 41.0185C384.115 40.9537 393.494 35.2081 393.494 35.2081V27.0649ZM391.288 20.4769C389.811 23.1337 386.556 25.7473 384.629 27.2377L382.252 25.2073V17.3881C383.215 19.5265 385.164 21.3193 387.691 21.3193C389.168 21.3193 390.132 21.0601 391.267 20.4769M387.198 38.0377C386.085 35.5321 383.708 33.7177 381.074 33.7177C380.432 33.7177 378.483 33.6529 376.792 34.7113C377.798 33.0049 380.796 29.9377 384.607 27.6265L387.198 29.8081V38.0161V38.0377Z" fill="#6C7993"/>
</g>
<defs>
<clipPath id="clip0_1323_1613">
<rect width="394" height="54" fill="white" transform="translate(0.5)"/>
</clipPath>
</defs>
</svg>
