<svg width="324" height="99" viewBox="0 0 324 99" fill="none" xmlns="http://www.w3.org/2000/svg">
<g clip-path="url(#clip0_1527_1427)">
<path d="M38.995 0.573249C32.1964 1.70654 24.6502 6.2918 20.2246 11.9478C18.7893 13.7715 16.8565 15.8427 15.8589 16.5331C13.4885 18.1692 12.5507 21.1835 12.5507 26.7145C12.6158 31.1747 12.5507 31.2372 10.868 31.6124C9.93286 31.8651 8.81017 32.4304 8.37516 32.9332C7.12744 34.5042 5.94224 40.7881 5.50723 48.3902C5.19465 54.8617 5.00711 55.6798 4.197 55.0519C3.44681 54.3615 3.32438 52.7879 3.63436 45.7511L3.94694 37.2684L2.57419 38.9019C1.32647 40.3478 1.07901 41.541 0.703912 47.6999C0.328815 54.2964 0.391331 54.9269 1.57653 56.4327C2.26421 57.3133 3.26186 58.8842 3.75939 60.0149C4.94459 62.5915 7.56245 64.6002 9.6854 64.6002C11.2431 64.6002 11.4306 64.8529 11.8656 67.5546C12.0532 69.2506 12.6784 71.2019 13.1759 72.0174C13.676 72.7729 19.1019 77.6708 25.2754 82.824C33.5692 89.7983 37.1248 92.3749 39.1201 92.9403C42.548 93.8208 49.9692 93.3805 52.4048 92.0597C55.0851 90.6789 75.3534 73.5258 76.226 71.8897C76.661 71.1993 77.1611 69.2506 77.4086 67.6171C77.7837 64.978 78.0338 64.6028 79.2815 64.6028C81.7743 64.6028 83.7696 63.2819 84.8923 60.8955C85.4549 59.6372 86.6375 57.8161 87.3877 56.873C89.0079 54.9269 89.1955 52.2877 88.3255 44.3078C88.0129 41.1659 87.5128 39.7199 86.45 38.6518L85.0799 37.271L85.4549 41.9813C85.6425 44.5605 85.9525 48.1401 86.14 49.9013C86.3901 52.4753 86.2025 53.3559 85.2049 54.6116L83.9572 56.1201L83.8946 51.0294C83.8946 45.5635 82.5245 36.1377 81.3393 33.5611C80.8392 32.5555 79.9066 31.9276 78.4714 31.615C76.351 31.2372 76.351 31.2372 76.7261 28.5355C76.9736 27.0896 76.8486 24.2004 76.4735 22.1266C75.9759 19.2347 75.4133 18.1666 74.1031 17.1636C73.0165 16.3192 72.0142 15.3717 71.1101 14.3342C64.5016 6.2918 57.5154 1.82899 49.5941 0.510723C44.9836 -0.179672 43.7359 -0.179672 38.995 0.573249ZM39.4926 15.3399C41.1154 16.4706 41.1779 17.979 39.8677 22.4418C38.4949 27.2147 34.1292 31.4873 29.3285 32.9332C20.472 35.5124 14.6737 31.615 15.4213 23.6324C15.8589 19.1097 18.1042 17.101 24.7752 15.3399C29.391 14.0841 37.6848 14.0841 39.4926 15.3399ZM67.182 16.1579C71.9228 17.9816 73.9181 20.4306 73.9181 24.2629C73.9181 30.7344 70.175 34.189 63.8139 33.5637C59.5108 33.1208 56.8304 32.1178 54.0849 29.7288C51.592 27.5924 49.0966 22.817 48.5991 19.1097C48.224 16.7233 48.4115 16.283 49.6593 15.3399C51.8421 13.7689 62.2563 14.2717 67.182 16.1579ZM57.3305 40.0977C63.939 40.723 68.1171 41.9214 69.0523 43.4272C69.3023 43.8675 69.5524 47.072 69.5524 50.5917C69.5524 56.6229 69.4899 57.0632 67.8697 59.0093C66.2469 60.8955 66.1244 61.5885 65.8119 67.9975L65.4993 74.9691L58.9507 80.5001C49.9093 88.1648 49.4092 88.48 44.7309 88.48C42.548 88.48 40.1802 88.1648 39.4301 87.7245C38.6825 87.3468 34.7544 84.2074 30.7638 80.8127L23.4051 74.594V68.1199C23.4051 61.836 23.3426 61.5234 21.5322 59.262C19.787 57.0632 19.6619 56.5604 19.6619 51.342C19.6619 44.4954 20.2871 42.7967 23.0925 41.6035C27.5832 39.7199 45.1685 38.967 57.3305 40.0977Z" fill="#6C7993"/>
<path d="M27.9558 46.5042C24.5877 47.2597 24.4627 48.2653 27.7057 48.2653C30.1986 48.2653 32.134 49.5211 32.134 51.092C32.134 52.4728 34.7518 53.9187 37.2473 53.9187C40.1777 53.9187 42.1105 52.1602 42.1105 49.4585C42.1105 47.8876 41.7354 47.4473 39.9276 46.6318C37.5572 45.6262 32.0089 45.5637 27.9532 46.5042H27.9558ZM49.1592 46.6944C46.7289 47.7625 46.4163 49.7738 48.4116 52.2853C49.4118 53.5436 50.222 53.9187 52.1547 53.9187C54.6502 53.9187 54.9602 53.6686 58.5783 49.4585C59.2034 48.703 60.386 48.2653 61.7562 48.2653C64.8143 48.2653 64.5017 47.3222 61.1961 46.4416C57.3931 45.5011 51.5921 45.6262 49.1592 46.6944ZM38.0548 65.2308C37.4921 66.1114 38.2423 67.117 39.4249 67.117C39.9875 67.117 41.3603 67.8699 42.5429 68.7505L44.6632 70.384L46.6611 68.813C47.7812 67.9325 49.2165 67.1795 49.9016 67.0519C51.5244 66.7392 51.5244 64.9807 49.9016 64.6655C49.279 64.5404 47.8437 64.9156 46.7237 65.5434C44.9133 66.4865 44.6007 66.5491 42.8555 65.6086C40.6726 64.4779 38.6148 64.2877 38.0548 65.2308ZM34.6294 72.4552C34.0068 73.2107 34.0693 73.3983 35.0045 73.3983C35.6896 73.3983 36.8748 73.9636 37.7474 74.654C38.9977 75.6597 40.3053 75.9124 44.6085 75.9124C48.9117 75.9124 50.222 75.6597 51.4671 74.654C52.3423 73.9636 53.5874 73.3983 54.2751 73.3983C55.3353 73.3983 55.3952 73.2733 54.5251 72.4552C53.6499 71.5772 53.3399 71.5772 51.2821 72.4552C48.3491 73.6484 40.8654 73.7135 37.9349 72.4552C37.1561 72.1131 36.3655 71.7985 35.5645 71.5121C35.502 71.5121 35.067 71.955 34.6294 72.4552Z" fill="#6C7993"/>
<path d="M137.151 25.8964C135.405 26.3367 132.91 27.2772 131.662 28.0327C128.794 29.7287 128.419 29.7287 127.981 28.1577C127.669 26.9645 127.109 26.902 117.942 26.902H108.211V29.5411C108.211 31.0496 108.023 33.7512 107.836 35.5098L107.401 38.8393H109.396C110.456 38.8393 111.329 39.092 111.329 39.3421C111.329 39.9075 107.151 67.6796 106.65 70.4464L106.338 72.2049L114.572 72.0173L122.803 71.8272L123.303 69.0005C123.863 66.1086 127.544 41.541 127.544 41.1033C127.544 40.4103 132.907 38.8393 135.4 38.8393C139.143 38.8393 140.638 39.7199 140.638 41.8562C140.638 42.7993 139.766 48.6429 138.768 54.8617C137.77 61.0831 136.898 66.8016 136.898 67.5545C136.898 68.3101 137.583 69.7534 138.396 70.6965C139.828 72.3925 140.141 72.455 145.129 72.3925C147.937 72.3925 152.175 72.0174 154.546 71.5771L158.724 70.759V68.4351C158.724 67.1768 158.911 64.6653 159.099 62.8416L159.534 59.5746H157.229C154.483 59.5746 154.483 59.4496 156.231 48.2652C158.536 33.7512 157.789 29.7939 152.238 26.9645C148.622 25.1409 141.889 24.6406 137.151 25.8964ZM227.08 25.9615C225.082 26.5269 222.527 27.47 221.401 28.1604C218.909 29.7313 218.849 29.7313 218.411 28.1604C218.098 26.9671 217.536 26.9046 208.369 26.9046H198.64V28.598C198.64 29.6063 198.455 32.2454 198.205 34.5693L197.83 38.8419H199.453C200.326 38.8419 201.198 39.092 201.386 39.3447C201.636 39.7225 198.578 61.4634 197.083 70.1337L196.708 72.2075L205.001 72.0173L213.233 71.8298L213.67 69.2532C213.92 67.8072 214.855 61.5885 215.728 55.4296C217.973 39.9101 217.661 40.9782 220.531 39.8476C223.774 38.5267 228.825 38.5267 230.073 39.8476C231.381 41.1033 231.381 41.0408 229.2 54.2364C226.892 68.2475 226.892 69.0031 228.95 70.9492C230.383 72.2701 231.071 72.4602 235.621 72.3951C238.429 72.3951 242.607 72.0174 244.975 71.5771L249.156 70.7616V67.1168C249.156 65.1056 249.341 62.5941 249.528 61.526C249.904 59.6397 249.904 59.5772 247.658 59.5772C245.538 59.5772 245.413 59.4522 245.413 57.5034C245.413 56.4353 245.975 51.9751 246.661 47.6373C248.221 37.5211 248.221 34.2541 246.598 30.9245C245.66 28.9133 244.603 27.9076 242.607 26.9046C238.989 25.1435 232.006 24.7032 227.08 25.9615ZM276.275 25.8312C271.55 27.01 267.211 29.3911 263.678 32.743C257.689 38.3964 255.134 44.7429 255.134 53.6034C255.134 58.001 255.384 59.8872 256.382 62.1486C259.312 68.5576 264.301 71.9496 272.719 73.3955C277.833 74.2761 283.696 73.5206 288.249 71.5119C291.055 70.2536 297.166 64.9128 297.166 63.7196C297.166 63.2793 295.483 61.7709 293.425 60.265L289.62 57.6259L287.749 59.1942C284.071 62.3362 277.523 62.9041 274.155 60.3275C272.472 59.1317 270.599 55.9898 271.162 55.3619C271.349 55.1743 274.715 54.7966 278.583 54.4839C289.807 53.6034 296.668 50.9668 299.161 46.5639C300.721 43.9274 301.219 39.152 300.284 35.8224C299.349 32.1751 295.233 28.0926 291.18 26.6467C287.127 25.2034 280.141 24.8256 276.275 25.8312ZM285.131 37.8311C286.627 39.152 286.752 39.5297 286.251 41.0981C285.379 43.5496 282.761 44.6803 277.085 44.9956C272.844 45.2457 272.222 45.1206 272.222 44.24C272.222 41.9161 275.402 37.6435 277.833 36.7629C280.203 35.885 283.446 36.3878 285.131 37.8311ZM167.841 27.6549C167.656 28.0926 167.406 30.7943 167.218 33.621L166.843 38.8393H168.716C170.086 38.8393 170.586 39.152 170.586 39.9075C170.586 40.5327 169.714 46.5665 168.716 53.2282C166.158 70.1285 166.221 70.759 170.336 72.1424C174.389 73.5232 187.736 71.6995 188.297 69.7534C188.484 69.188 188.672 66.674 188.797 64.2849L188.982 59.8872L187.111 59.6997C186.114 59.572 185.054 59.2568 184.803 59.0067C184.368 58.6315 187.799 34.439 189.044 28.5954L189.419 26.902H178.692C170.711 26.902 167.966 27.0896 167.841 27.6549ZM165.257 90.5799C165.257 93.1799 167.028 95.0687 170.07 95.0687C171.133 95.0736 172.181 94.8139 173.118 94.3132C173.535 94.0943 173.897 93.8364 174.181 93.5785L173.535 91.6715C173.248 91.9111 172.944 92.1274 172.623 92.3071C171.92 92.7088 171.127 92.9273 170.318 92.9428C168.567 92.9428 167.713 91.8486 167.713 90.4001C167.713 88.4331 169.292 86.6068 171.269 86.6068C172.144 86.6068 172.983 86.9637 172.886 87.6385L172.774 88.2742H174.848L175.095 87.0028C175.457 85.0567 172.964 84.4627 171.48 84.4627C167.885 84.4627 165.257 87.4587 165.257 90.5799ZM176.398 92.6641C176.398 94.6519 177.768 94.9098 178.927 94.9098C179.156 94.9098 179.365 94.9098 179.518 94.889L179.766 94.8499L180.146 92.8438H180.031C179.953 92.8438 179.841 92.8647 179.708 92.8647C179.195 92.8647 178.89 92.724 178.89 92.1091C178.89 91.9111 178.927 91.6715 178.984 91.3745L180.946 80.7267H177.044L176.682 82.6156H178.187L176.512 91.6115C176.434 92.0101 176.398 92.3671 176.398 92.6641ZM181.907 90.5799C181.907 93.2815 183.847 95.0687 186.512 95.0687C189.654 95.0687 192.678 92.4869 192.678 88.9307C192.678 86.289 190.756 84.4627 188.073 84.4627C184.876 84.4627 181.907 87.0627 181.907 90.5799ZM184.363 90.46C184.363 88.2351 186.15 86.6068 187.882 86.6068C189.252 86.6068 190.224 87.5812 190.224 89.0896C190.224 91.3145 188.435 92.922 186.702 92.922C185.332 92.922 184.363 91.9685 184.363 90.46ZM194.715 92.3462C194.715 94.2533 195.991 95.0687 197.512 95.0687C199.357 95.0687 200.612 93.8963 201.316 92.8021H201.355C201.355 94.433 202.365 94.889 203.563 94.889C203.868 94.889 204.095 94.889 204.306 94.8707L204.592 94.829L204.931 92.9428C204.913 92.9428 204.876 92.9428 204.819 92.9637C204.762 92.9819 204.665 92.9819 204.532 92.9819C204.019 92.9819 203.715 92.7839 203.715 92.1691C203.715 91.9502 203.735 91.7522 203.772 91.5516L205.066 84.6998H201.146L200.784 86.586H202.287L201.792 89.2694C201.487 90.9576 200.138 92.823 198.445 92.823C197.549 92.823 197.226 92.4061 197.226 91.6324C197.226 91.3719 197.283 91.0358 197.341 90.6997L198.461 84.6998H194.543L194.181 86.586H195.684L194.848 91.1348C194.77 91.5933 194.715 91.9685 194.715 92.3462ZM206.679 90.8378C206.679 93.4404 207.992 95.0687 210.373 95.0687C211.685 95.0687 212.959 94.235 213.626 93.1825H213.662C213.759 94.5893 214.73 94.889 216.004 94.889C216.252 94.889 216.46 94.889 216.632 94.8707L216.898 94.829L217.262 92.9428C217.241 92.9428 217.202 92.9428 217.145 92.9637C217.07 92.9819 216.976 92.9819 216.84 92.9819C216.327 92.9819 216.022 92.7839 216.022 92.1691C216.022 91.9893 216.043 91.7705 216.101 91.5516L218.098 80.7267H214.196L213.834 82.6156H215.337L214.842 85.2964L214.785 85.7132C214.767 85.7731 214.767 85.8513 214.767 85.9112H214.73C214.215 84.8587 213.131 84.4627 212.066 84.4627C209.25 84.4627 206.679 87.0419 206.679 90.8378ZM209.135 90.658C209.135 88.1361 210.81 86.6277 212.235 86.6277C213.55 86.6277 214.157 87.6593 214.157 88.8916C214.157 91.0358 212.673 92.9428 211.058 92.9428C209.839 92.9428 209.135 92.0883 209.135 90.658ZM224.327 94.8316H226.744L227.58 90.3792C227.945 88.4748 229.312 86.7657 230.987 86.7657C231.881 86.7657 232.225 87.2034 232.225 87.9772C232.225 88.8708 231.482 91.7522 231.482 92.8047C231.482 94.7118 232.871 94.889 233.879 94.889C234.183 94.889 234.431 94.889 234.603 94.8707C234.699 94.8499 234.793 94.8499 234.85 94.829L235.194 92.9428C235.173 92.9428 235.137 92.9428 235.079 92.9637C235.001 92.9819 234.908 92.9819 234.775 92.9819C234.259 92.9819 233.957 92.8047 233.957 92.1691C233.957 91.3536 234.738 88.454 234.738 87.2034C234.738 85.3745 233.67 84.4627 232.014 84.4627C229.674 84.4627 228.304 86.3281 228.151 86.7267H228.114C228.247 86.4088 228.343 85.8122 228.343 85.5934C228.343 85.0202 228.018 84.6998 227.257 84.6998H224.707L224.366 86.586H225.449C225.715 86.586 225.83 86.7267 225.793 87.0237L224.327 94.829V94.8316ZM236.252 92.4661C236.252 94.2142 237.564 95.0687 239.028 95.0687C241.123 95.0479 242.321 93.2007 242.321 93.1825H242.36C242.511 94.5893 243.558 94.889 244.626 94.889C244.986 94.889 245.215 94.889 245.384 94.8707C245.481 94.8499 245.574 94.8499 245.632 94.829L245.975 92.9428C245.957 92.9428 245.918 92.9428 245.861 92.9637C245.783 92.9819 245.689 92.9819 245.556 92.9819C245.043 92.9819 244.738 92.7839 244.738 92.1691C244.738 91.2937 245.538 88.6337 245.538 87.4613C245.538 85.2156 243.767 84.4627 242.055 84.4627C240.987 84.4627 240.057 84.6998 239.315 84.9994C238.898 85.1557 238.515 85.3381 238.153 85.5543L238.705 87.4223C238.992 87.2425 239.297 87.0836 239.617 86.9455C240.172 86.7058 240.893 86.487 241.597 86.487C242.607 86.487 243.139 86.9455 243.139 87.7375C243.138 87.9118 243.118 88.0856 243.081 88.256L243.027 88.5738H242.683C240.115 88.5738 236.252 89.3866 236.252 92.4661ZM238.648 92.0492C238.648 90.3037 241.219 90.1031 242.321 90.1031H242.738L242.665 90.4209C242.36 91.6506 241.162 93.2007 239.846 93.2007C239.013 93.2007 238.648 92.7448 238.648 92.0492ZM250.005 94.8316H252.785L257.275 86.586H258.455L258.817 84.6998H254.077L253.717 86.586H254.819L252.193 91.5933C252.069 91.8376 251.961 92.09 251.87 92.3488C251.821 92.463 251.782 92.5816 251.756 92.7031H251.698C251.719 92.6041 251.719 92.4869 251.719 92.3462C251.719 92.0883 251.698 91.8512 251.662 91.5907L250.899 86.5886H252.003L252.365 84.6998H247.781L247.416 86.586H248.599L250.005 94.829V94.8316ZM261.302 82.9725H263.738L264.157 80.7267H261.722L261.302 82.9725ZM259.552 92.7839C259.552 94.73 260.922 94.889 262.081 94.889C262.292 94.889 262.501 94.889 262.672 94.8707L262.938 94.829L263.282 92.9428C263.261 92.9428 263.225 92.9428 263.167 92.9637C263.092 92.9819 262.995 92.9819 262.863 92.9819C262.349 92.9819 262.045 92.7839 262.045 92.1691C262.045 91.9893 262.063 91.7705 262.12 91.5516L263.394 84.6998H259.495L259.133 86.586H260.635L259.667 91.7522C259.588 92.1482 259.552 92.4869 259.552 92.7839ZM264.498 98.0465C264.821 98.2263 266.041 99.0001 268.19 99.0001C270.531 99.0001 273.063 97.7886 273.727 94.3132L275.098 86.9846C275.137 86.7241 275.309 86.586 275.593 86.586H276.507L276.869 84.6998H274.433C273.652 84.6998 273.253 85.1557 273.175 85.6533C273.157 85.7914 273.139 85.8513 273.139 85.9138V86.0102H273.1C272.949 85.4735 272.149 84.4627 270.208 84.4627C266.934 84.4627 265.069 87.6802 265.069 90.4808C265.069 92.8647 266.364 94.631 268.799 94.631C270.018 94.631 270.854 94.136 271.56 93.2007H271.578C271.56 93.2789 271.521 93.3597 271.503 93.4613C271.446 93.6176 271.407 93.8573 271.331 94.1933C270.93 96.2593 269.674 96.9341 268.078 96.9341C267.26 96.9341 266.629 96.7778 266.173 96.6188C265.927 96.5337 265.691 96.42 265.47 96.2802L264.498 98.0465ZM267.525 90.2828C267.525 88.4149 268.609 86.6068 270.417 86.6068C271.503 86.6068 272.378 87.0237 272.378 88.5139C272.378 90.2594 271.407 92.5051 269.466 92.5051C268.171 92.5051 267.525 91.635 267.525 90.2828ZM276.559 92.4661C276.559 94.2142 277.872 95.0687 279.336 95.0687C281.43 95.0479 282.628 93.2007 282.628 93.1825H282.667C282.818 94.5893 283.865 94.889 284.931 94.889C285.293 94.889 285.522 94.889 285.691 94.8707C285.788 94.8499 285.882 94.8499 285.939 94.829L286.283 92.9428C286.264 92.9428 286.225 92.9428 286.168 92.9637C286.093 92.9819 285.996 92.9819 285.863 92.9819C285.35 92.9819 285.045 92.7839 285.045 92.1691C285.045 91.2937 285.845 88.6337 285.845 87.4613C285.845 85.2156 284.074 84.4627 282.362 84.4627C281.297 84.4627 280.365 84.6998 279.622 84.9994C279.203 85.1557 278.822 85.3381 278.46 85.5543L279.013 87.4223C279.299 87.2425 279.604 87.0836 279.927 86.9455C280.479 86.7058 281.201 86.487 281.907 86.487C282.915 86.487 283.446 86.9455 283.446 87.7375C283.446 87.899 283.428 88.0762 283.389 88.256L283.331 88.5738H282.99C280.422 88.5738 276.559 89.3866 276.559 92.4661ZM278.955 92.0492C278.955 90.3037 281.524 90.1031 282.628 90.1031H283.048L282.972 90.4209C282.667 91.6506 281.469 93.2007 280.154 93.2007C279.317 93.2007 278.955 92.7448 278.955 92.0492ZM288.617 91.8512C288.617 94.2142 290.31 94.928 292.06 94.928C292.232 94.928 292.404 94.928 292.537 94.9098L292.764 94.8707L293.144 92.8438C293.089 92.8438 293.05 92.8438 292.993 92.8647C292.896 92.8829 292.764 92.8829 292.613 92.8829C291.927 92.8829 291.089 92.6849 291.089 91.5125C291.089 91.3562 291.089 91.0749 291.146 90.8352L291.927 86.5886H294.155L294.496 84.6998H292.269L292.784 81.9382H290.461L289.948 84.6998H288.387L288.025 86.586H289.528L288.71 90.9159C288.653 91.2937 288.617 91.5933 288.617 91.8512ZM294.913 90.5799C294.913 93.2815 296.853 95.0687 299.518 95.0687C302.657 95.0687 305.684 92.4869 305.684 88.9307C305.684 86.289 303.761 84.4627 301.078 84.4627C297.882 84.4627 294.913 87.0627 294.913 90.5799ZM297.366 90.46C297.366 88.2351 299.156 86.6068 300.888 86.6068C302.258 86.6068 303.227 87.5812 303.227 89.0896C303.227 91.3145 301.44 92.922 299.708 92.922C298.338 92.922 297.366 91.9685 297.366 90.46ZM307.413 94.8316H309.83L310.495 91.1348C310.953 88.652 312.646 87.0445 314.11 87.0445C314.415 87.0445 314.626 87.0836 314.683 87.0836L315.157 84.6008C315.082 84.6008 314.873 84.5617 314.587 84.5617C313.084 84.5617 311.808 85.8122 311.143 87.1826H311.104C311.258 86.7267 311.427 85.893 311.427 85.5934C311.427 84.9994 311.068 84.6998 310.325 84.6998H307.794L307.431 86.586H308.518C308.841 86.586 308.916 86.8048 308.859 87.0237L307.413 94.829V94.8316ZM314.657 92.4452C314.313 94.394 316.673 95.0687 318.33 95.0687C320.995 95.0687 322.857 93.6984 322.857 91.6506C322.857 88.553 318.291 89.2486 318.291 87.5213C318.291 86.8048 318.994 86.4479 319.966 86.4479C320.518 86.4479 321.375 86.5677 321.279 87.2633L321.185 87.8573H323.258L323.467 86.7449C323.772 85.1375 321.888 84.4627 320.271 84.4627C318.083 84.4627 315.931 85.4527 315.931 87.6802C315.931 90.7987 320.479 90.2802 320.479 91.9294C320.479 92.625 319.794 93.1017 318.653 93.1017C317.968 93.1017 316.598 92.9428 316.806 91.9711L316.903 91.4526H314.847L314.657 92.4452Z" fill="#6C7993"/>
</g>
<defs>
<clipPath id="clip0_1527_1427">
<rect width="323" height="99" fill="white" transform="translate(0.5)"/>
</clipPath>
</defs>
</svg>
