<svg width="375" height="104" viewBox="0 0 375 104" fill="none" xmlns="http://www.w3.org/2000/svg">
<path fill-rule="evenodd" clip-rule="evenodd" d="M251.313 56.62C254.967 56.3722 258.636 56.7412 262.167 57.7114C262.985 58.2805 263.668 59.0208 264.168 59.8806C264.669 60.7403 264.975 61.6987 265.064 62.6885C265.073 62.821 265.052 62.9537 265.004 63.0773C264.955 63.2009 264.88 63.3123 264.783 63.4036C264.686 63.4949 264.57 63.5639 264.444 63.6057C264.318 63.6474 264.183 63.6609 264.051 63.6452L263.384 63.5696L261.899 63.4052C258.562 62.9995 255.204 62.78 251.841 62.7477C248.253 62.3738 244.632 63.0117 241.39 64.5887C240.643 65.3903 240.072 66.338 239.712 67.3713C239.353 68.4047 239.213 69.5013 239.301 70.5915C239.171 71.9173 239.453 73.2509 240.11 74.4114C241.727 76.3839 260.537 78.6391 263.566 80.6181C265.051 81.5714 266.13 84.2342 266.13 88.8037C266.13 95.0761 264.579 98.8303 262.22 100.875C260.131 102.647 256.154 103.942 247.459 103.942C243.45 104.177 239.432 103.693 235.595 102.512C234.771 101.907 234.091 101.129 233.602 100.233C233.112 99.3377 232.826 98.3459 232.764 97.328C232.767 97.1872 232.8 97.0486 232.861 96.9216C232.922 96.7947 233.01 96.6822 233.119 96.5919C233.227 96.5016 233.354 96.4355 233.49 96.398C233.627 96.3605 233.769 96.3525 233.909 96.3746C238.34 97.1654 242.824 97.6203 247.323 97.7356C253.389 97.7356 255.95 97.1209 257.029 96.0919C257.802 95.353 258.389 94.4418 258.741 93.4332C259.092 92.4246 259.199 91.3472 259.052 90.2896C259.052 87.7024 258.514 86.542 257.837 85.9963C255.95 84.2901 237.684 81.7654 234.787 79.7896C233.856 78.6841 233.165 77.398 232.759 76.0127C232.353 74.6274 232.24 73.1731 232.427 71.7421C232.198 69.6527 232.429 67.5387 233.105 65.5474C233.78 63.5562 234.883 61.7358 236.338 60.2131C238.978 57.9645 243.684 56.597 251.3 56.597L251.313 56.62ZM188.125 57.2314C189.742 57.2314 190.28 57.7804 190.28 59.8285V95.4246C190.28 96.9236 190.821 97.397 192.233 97.397C193.517 97.397 192.022 97.4628 196.137 97.4628C202.737 97.4628 207.73 97.1899 211.03 96.9171C211.637 96.9171 212.043 97.1899 212.043 97.8704C211.873 98.8616 211.505 99.8086 210.961 100.656C210.416 101.503 209.707 102.232 208.875 102.802C204.742 103.564 200.527 103.793 196.335 103.482H192.276C189.263 103.482 188.019 103.433 185.089 103.281C184.551 103.281 183.538 103.009 183.538 101.441V58.119C183.538 57.6424 183.677 57.2314 184.198 57.2314H188.125ZM93.8739 57.0999C102.503 57.0999 105.331 57.7114 107.42 59.1414C109.513 60.6438 111.466 63.78 111.466 70.5323C111.638 72.8494 111.319 75.1766 110.529 77.3627C109.74 79.5489 108.497 81.5451 106.882 83.2217C104.794 84.8654 101.22 85.4703 95.4909 85.4703H86.1915C85.1784 85.4703 84.7725 85.799 84.7725 87.1765V101.838C84.7725 102.999 84.5052 103.341 83.4261 103.341H78.9151C78.2386 103.341 78.1033 103.012 78.1033 102.387V58.4576C78.0855 58.3317 78.0948 58.2033 78.1305 58.0812C78.1663 57.9591 78.2277 57.8459 78.3107 57.7493C78.3938 57.6526 78.4964 57.5746 78.612 57.5204C78.7276 57.4663 78.8534 57.4373 78.9811 57.4352C83.4295 57.2281 88.551 57.1065 93.8772 57.1065L93.8739 57.0999ZM171.843 57.2314C172.503 57.2314 172.651 57.6424 172.651 58.2571V101.375C172.651 102.808 172.047 103.347 170.698 103.347H166.738C166.13 103.347 165.929 102.871 165.929 102.322V59.1414C165.929 57.8462 166.467 57.2347 167.678 57.2347L171.843 57.2314ZM122.64 57.2314C124.455 57.2314 124.996 57.6424 124.996 59.8942V73.4647C124.996 76.808 125.402 76.9428 128.032 76.9428H145.621C147.981 76.9428 148.452 76.5351 148.452 73.8066V59.7562C148.452 57.6424 148.858 57.2314 150.762 57.2314H154.333C155.076 57.2314 155.142 57.5766 155.142 58.2571V102.384C155.142 103.068 154.812 103.341 154.333 103.341H150.703C148.881 103.341 148.476 102.864 148.476 100.885V86.4204C148.476 83.3532 148.073 83.0113 145.578 83.0113H128.055C125.415 83.0113 125.019 83.2842 125.019 86.4204V100.816C125.019 102.999 124.481 103.341 122.594 103.341H119.066C118.406 103.341 118.258 102.864 118.258 102.315V58.1881C118.258 57.5076 118.528 57.2347 119.066 57.2347L122.64 57.2314ZM223.775 57.2314C224.435 57.2314 224.583 57.6424 224.583 58.2571V101.375C224.583 102.808 223.976 103.347 222.63 103.347H218.653C218.046 103.347 217.841 102.871 217.841 102.322V59.1414C217.841 57.8462 218.383 57.2347 219.597 57.2347H223.785L223.775 57.2314ZM93.8739 62.9121C90.6399 62.9121 87.6699 62.9121 85.9209 63.0436C85.1124 63.1159 84.7065 63.3723 84.7065 64.3421V78.3235C84.7065 79.4839 84.9771 79.8258 86.1222 79.8258H94.6164C96.8689 80.0359 99.1407 79.7796 101.289 79.073C102.482 78.1539 103.413 76.9411 103.992 75.5541C104.57 74.1671 104.776 72.6539 104.589 71.1635C104.589 67.1397 103.648 65.1607 102.299 64.2073C101.154 63.369 99.2661 62.9121 93.8739 62.9121ZM52.9738 0.309897C56.6276 0.0636504 60.2969 0.432625 63.8275 1.40132C64.644 1.96953 65.3263 2.70837 65.8267 3.56628C66.3272 4.42419 66.6337 5.38053 66.7249 6.3686C66.733 6.50047 66.712 6.63252 66.6634 6.75544C66.6147 6.87835 66.5396 6.98915 66.4433 7.08004C66.3471 7.17092 66.232 7.23968 66.1062 7.28148C65.9803 7.32327 65.8469 7.33709 65.7151 7.32195C61.6646 6.80308 57.5884 6.50676 53.5051 6.43434C49.9182 6.05961 46.2977 6.69755 43.0574 8.2753C42.3083 9.07825 41.7353 10.0279 41.3751 11.0637C41.0149 12.0995 40.8753 13.1987 40.9652 14.2913C40.8328 15.6172 41.1152 16.9514 41.7737 18.1112C43.3907 20.0837 62.1973 22.3388 65.23 24.3179C66.715 25.2712 67.7908 27.934 67.7908 32.5035C67.7908 38.7759 66.2398 42.5301 63.8803 44.5749C61.7914 46.3501 57.8149 47.642 49.1195 47.642C45.1109 47.8772 41.0926 47.3928 37.256 46.212C36.4325 45.6067 35.7524 44.8287 35.2638 43.9329C34.7751 43.0371 34.4898 42.0454 34.4279 41.0278C34.4309 40.887 34.4641 40.7484 34.5253 40.6214C34.5865 40.4945 34.6743 40.382 34.7828 40.2917C34.8913 40.2014 35.018 40.1352 35.1543 40.0978C35.2906 40.0603 35.4334 40.0523 35.573 40.0744C40.0024 40.8654 44.4857 41.3203 48.9842 41.4354C55.0528 41.4354 57.6136 40.824 58.6927 39.7917C59.4659 39.0539 60.0522 38.1438 60.4033 37.1362C60.7544 36.1286 60.8603 35.0523 60.7123 33.996C60.7123 31.4055 60.1744 30.2484 59.5012 29.6994C57.6136 27.9932 39.3449 25.4717 36.4475 23.4927C35.5163 22.3872 34.8257 21.101 34.4195 19.7157C34.0134 18.3304 33.9005 16.8762 34.088 15.4451C33.8586 13.3563 34.0897 11.2427 34.7651 9.25196C35.4405 7.26125 36.544 5.4414 37.9985 3.91947C40.6352 1.67417 45.3575 0.309897 52.9738 0.309897ZM168.282 0.924643C171.179 0.924643 172.057 1.25338 172.057 4.67558V29.4298C172.057 34.7554 172.595 36.9908 174.011 38.7102C176.725 40.8211 180.156 41.7994 183.581 41.4387C187.007 41.7932 190.448 40.9229 193.289 38.983C194.774 37.5497 195.649 35.2321 195.649 29.5679V4.53751C195.649 1.2501 196.593 0.921355 199.424 0.921355H201.579C202.239 0.921355 202.457 1.1975 202.457 1.80896V29.775C202.457 37.5497 201.378 41.0278 198.682 43.5492C196.457 45.6663 191.537 47.642 183.502 47.642C175.684 47.642 170.493 45.7354 168.137 43.1416C165.909 40.5511 165.167 37.3459 165.167 30.3864V1.88128C165.167 1.20079 165.497 0.92793 165.979 0.92793H168.269L168.282 0.924643ZM97.1838 0.451256C100.964 0.0880809 104.779 0.536477 108.371 1.76622C109.171 2.28477 109.841 2.9778 110.332 3.79283C110.824 4.60787 111.122 5.52354 111.205 6.47051C111.205 7.01622 110.935 7.49618 110.262 7.42386C106.175 6.84639 102.054 6.55092 97.9263 6.53954C91.2537 6.53954 87.9504 7.56193 85.9935 9.33384C83.5681 11.4509 81.8158 16.1552 81.8158 24.068C81.8158 31.9808 83.3007 36.958 85.7262 38.7989C87.7491 40.367 91.455 41.3236 97.791 41.3236C102.03 41.2069 106.26 40.8656 110.463 40.3013C110.935 40.2322 111.337 40.436 111.271 41.1198C110.964 43.0632 109.929 44.8182 108.374 46.0312C104.275 47.3925 99.9445 47.9256 95.6361 47.5993C87.7491 47.5993 82.9641 45.9556 80.4001 43.5722C77.4301 41.0508 74.7901 35.4589 74.7901 24.6137C74.7901 13.4957 77.7601 7.49618 81.3274 4.49477C84.1059 2.15085 88.6236 0.451256 97.1838 0.451256ZM228.923 0.924643C238.024 0.924643 241.133 1.74321 243.01 3.03845C244.239 4.14817 245.19 5.52884 245.787 7.07007C246.384 8.61129 246.611 10.2703 246.449 11.9145C246.532 14.6985 245.886 17.4562 244.575 19.916L244.36 20.2941C243.899 20.8913 243.598 21.5946 243.482 22.3388C243.482 22.8846 243.812 23.4303 244.561 24.3113C246.84 26.9651 248.04 30.3711 247.927 33.8612C248.135 35.9856 247.805 38.1279 246.97 40.0932C246.134 42.0585 244.818 43.7844 243.142 45.114C241.123 46.4783 237.552 47.2969 228.989 47.2969C222.989 47.2969 218.072 47.1588 214.093 46.9681C213.555 46.9681 212.542 46.6953 212.542 45.1272V2.56177C212.527 2.38423 212.553 2.20575 212.616 2.03909C212.679 1.87243 212.778 1.72169 212.906 1.59765C213.035 1.47361 213.189 1.37932 213.358 1.32151C213.527 1.2637 213.707 1.24381 213.885 1.26325C218.894 1.03134 223.908 0.918439 228.923 0.924643ZM359.879 0.122514C363.852 -0.252687 367.86 0.23636 371.624 1.55583C372.45 2.10756 373.145 2.83351 373.658 3.68224C374.171 4.53098 374.491 5.48175 374.594 6.46722C374.596 6.59782 374.571 6.72744 374.52 6.84782C374.469 6.9682 374.394 7.0767 374.299 7.16639C374.203 7.25609 374.09 7.32501 373.967 7.36878C373.843 7.41254 373.712 7.43018 373.581 7.42057C369.322 6.75814 365.021 6.39344 360.711 6.32915C353.9 6.32915 349.993 7.42057 347.966 9.19577C345.742 11.2405 343.657 16.0993 343.657 23.7919C343.657 31.7704 345.138 36.4747 347.498 38.5852C350.453 40.6216 354.03 41.5636 357.609 41.248C360.555 41.3 363.496 41.002 366.371 40.3604C367.651 40.0876 368.12 39.5386 368.12 38.0395V28.9728C368.12 27.7433 367.651 27.3291 366.371 27.3291H357.942C357.338 27.3291 356.933 27.1911 356.933 26.4415C357.227 24.7372 358.081 23.1785 359.361 22.0101C360.145 21.6018 361.033 21.4358 361.912 21.5334H372.505C374.056 21.5334 375 21.8622 375 23.9201V42.3296C375 43.9733 374.34 44.8543 372.505 45.4C367.744 46.5929 362.852 47.1893 357.942 47.1752C349.247 47.1752 344.934 45.4658 342.238 43.0824C339.476 40.4886 336.849 35.1696 336.849 24.3935C336.849 12.7297 340.287 7.06882 343.251 4.47833C345.99 2.02921 350.983 0.122514 359.879 0.122514ZM284.834 1.1975C286.115 1.52624 287.666 4.53751 287.666 6.17464C287.66 6.30011 287.63 6.42321 287.575 6.53651C287.521 6.64982 287.444 6.75099 287.349 6.83392C287.255 6.91686 287.144 6.97984 287.025 7.01908C286.905 7.05832 286.778 7.073 286.653 7.06224C282.004 6.88598 277.352 6.79501 272.7 6.78939C269.334 6.78939 266.364 6.78938 264.345 6.92746C262.926 6.9932 262.592 7.40413 262.592 8.83416V19.4065C262.592 20.4979 263.064 20.7214 263.939 20.7214H284.702C284.832 20.7021 284.964 20.7136 285.089 20.7548C285.213 20.7961 285.326 20.8661 285.418 20.959C285.51 21.052 285.578 21.1652 285.618 21.2896C285.658 21.414 285.667 21.546 285.646 21.6748C285.356 23.3761 284.502 24.9315 283.221 26.0931C282.263 26.5741 281.184 26.7639 280.119 26.6388H264.011C262.998 26.6388 262.592 26.9675 262.592 28.2102V39.1244C262.592 40.6234 263.134 41.0968 264.549 41.0968C265.869 41.0968 267.816 41.1593 271.328 41.1691H272.166C279.244 41.1691 284.098 40.962 287.735 40.7582C288.276 40.7582 288.679 40.962 288.679 41.5801C288.507 42.5925 288.125 43.558 287.557 44.4146C286.988 45.2711 286.247 45.9999 285.379 46.5539C281.562 47.2513 277.672 47.4579 273.803 47.1687H269.984C264.879 47.1687 260.655 47.1358 257.345 46.9648C256.808 46.9648 255.794 46.692 255.794 45.1239V2.49274C255.78 2.30552 255.807 2.11734 255.873 1.94171C255.94 1.76608 256.045 1.60736 256.181 1.47694C256.316 1.34652 256.479 1.24763 256.658 1.18738C256.836 1.12713 257.026 1.10701 257.213 1.12846C261.451 0.990391 265.628 0.779997 271.427 0.779997H274.809C278.157 0.646526 281.51 0.786159 284.834 1.1975ZM122.637 0.931218C124.455 0.931218 124.993 1.33886 124.993 3.59073V17.1645C124.993 20.3401 125.359 20.6162 127.633 20.6393H145.605C147.964 20.6393 148.436 20.2316 148.436 17.5063V3.45266C148.436 1.33886 148.842 0.931218 150.726 0.931218H154.3C155.043 0.931218 155.109 1.25996 155.109 1.95032V46.0805C155.109 46.7643 154.779 47.0339 154.3 47.0339H150.67C148.852 47.0339 148.446 46.5572 148.446 44.5815V30.1169C148.446 27.0497 148.04 26.7078 145.548 26.7078H128.029C125.389 26.7078 124.993 26.9807 124.993 30.1169V44.5026C124.993 46.6854 124.455 47.0273 122.567 47.0273H119.063C118.403 47.0273 118.254 46.5473 118.254 46.0016V1.88457C118.254 1.20407 118.525 0.931218 119.063 0.931218H122.637ZM311.828 0.720823C320.738 0.720823 323.962 1.40132 326.117 2.90038C327.491 4.09897 328.547 5.61525 329.195 7.31598C329.842 9.0167 330.06 10.8498 329.83 12.6541C330.023 16.9078 328.742 21.0983 326.2 24.5217C325.488 25.2359 325.057 26.1807 324.985 27.1845C325.134 28.8073 325.544 30.3957 326.2 31.8888L331.391 45.663C331.469 45.8034 331.509 45.9618 331.507 46.1225C331.505 46.2831 331.46 46.4404 331.378 46.5787C331.296 46.7169 331.179 46.8314 331.039 46.9107C330.899 46.99 330.74 47.0313 330.579 47.0306H328.962C325.728 47.0306 324.243 46.143 323.022 42.5268L319.514 32.9112C318.3 29.5679 317.019 28.8183 313.782 28.8183H304.542C303.466 28.8183 303.057 29.0912 303.057 30.3897V45.5315C303.057 46.6887 302.793 47.0306 301.714 47.0306H297.193C296.533 47.0306 296.388 46.7019 296.388 46.0772V2.09496C296.37 1.9727 296.38 1.84804 296.416 1.72996C296.453 1.61189 296.515 1.50334 296.598 1.41215C296.682 1.32095 296.785 1.24938 296.9 1.2026C297.015 1.15582 297.138 1.13499 297.262 1.14161C301.249 0.987104 307.38 0.717536 311.828 0.717536V0.720823ZM231.889 26.2969H221.032C219.755 26.2969 219.349 26.7736 219.349 28.1378V39.4597C219.349 40.893 219.821 41.1658 221.171 41.2349C222.854 41.3006 225.689 41.4354 229.058 41.4354C232.198 41.7618 235.37 41.3171 238.298 40.1402C239.226 39.3536 239.946 38.3512 240.392 37.2215C240.839 36.0919 240.999 34.87 240.859 33.664C240.968 32.3842 240.747 31.0978 240.216 29.9273C239.686 28.7568 238.863 27.7412 237.826 26.9774C235.932 26.273 233.894 26.0395 231.889 26.2969ZM311.96 6.44749C309.06 6.44749 305.895 6.51653 304.205 6.6546C303.4 6.72035 302.998 6.98334 302.998 8.01888V21.4545C302.998 22.7498 303.268 23.0226 304.413 23.0226H314.643C316.21 23.1367 317.785 22.9753 319.296 22.5459C320.573 21.5135 321.573 20.1819 322.206 18.6702C322.84 17.1585 323.087 15.5139 322.926 13.8836C323.055 12.7855 322.94 11.6727 322.59 10.6237C322.24 9.57458 321.663 8.61474 320.9 7.81177C318.101 6.55298 315.009 6.08119 311.96 6.44749ZM228.312 6.72035C225.672 6.72035 223.055 6.78938 221.032 6.9932C219.617 7.06224 219.349 7.47317 219.349 8.83416V18.9988C219.349 20.2941 219.818 20.4979 220.966 20.4979H231.681C233.414 20.6556 235.16 20.4472 236.806 19.8864C237.78 19.1584 238.546 18.1907 239.03 17.0783C239.515 15.9659 239.7 14.7471 239.568 13.5417C239.568 10.1327 238.559 8.83416 237.344 8.01888C235.929 7.06224 233.638 6.72035 228.312 6.72035Z" fill="#6C7993"/>
<path fill-rule="evenodd" clip-rule="evenodd" d="M0.0457063 1.10309C-0.149244 0.345745 0.303438 0 0.947766 0H6.93837C9.39342 0 10.6821 0.757345 11.7163 4.06991L42.9282 102.897C43.1199 103.519 42.9282 104 42.3467 104H36.2305C34.0332 104 32.3546 103.174 31.3865 99.9301L0.0457063 1.10309Z" fill="#6C7993"/>
</svg>
