<svg width="381" height="68" viewBox="0 0 381 76" fill="none" xmlns="http://www.w3.org/2000/svg">
<path fill-rule="evenodd" clip-rule="evenodd" d="M37.3536 4.16643C35.2137 4.50835 33.0832 4.90698 30.9645 5.36189C29.5622 5.65758 28.1618 5.93331 26.7777 6.2798C25.5006 6.60088 24.1909 6.88569 22.9392 7.28115C21.7314 7.65246 20.5354 8.06081 19.3528 8.50563C17.0395 9.39464 14.8851 10.6517 12.9728 12.2281C11.8118 13.1968 10.7288 14.2489 9.81998 15.4625C9.19307 16.3271 8.62751 17.2345 8.12748 18.1781C7.64313 19.0797 7.31116 20.1482 7.30027 21.1822C7.28395 24.2225 9.22679 26.7694 11.4635 28.6597C12.1982 29.2765 12.9801 29.8461 13.7728 30.3885C16.1256 32.003 18.687 33.4216 21.2884 34.6569C23.9732 35.9267 26.6761 37.1458 29.4117 38.3068C31.9985 39.4006 34.6416 40.3258 37.31 41.2093C38.0774 41.4596 38.8538 41.7099 39.6211 41.9621C42.0393 42.7603 44.51 43.4986 46.91 44.3639C48.4047 44.9008 49.9975 45.4033 51.4904 46.0745C53.0414 46.7711 54.6523 47.4659 56.0201 48.4672C56.9408 49.1195 57.7206 49.9505 58.3131 50.9108C58.8881 51.8577 59.2473 52.9425 59.2727 54.0491C59.2992 55.1114 59.0018 56.1566 58.4201 57.0459C56.9199 59.3769 54.3095 60.966 51.7916 62.0254C48.0256 63.6033 44.1737 64.9678 40.2542 66.1125C38.0193 66.7637 35.7844 67.4095 33.5332 67.9918C31.2729 68.576 28.9691 69.1891 26.6852 69.7587C24.4085 70.3283 22.1319 70.8417 19.8462 71.3315C18.5365 71.609 17.2177 71.883 15.917 72.1533C15.1333 72.3093 14.366 72.4743 13.5805 72.643C11.946 72.9968 10.3116 73.3469 8.66988 73.6952C6.80141 74.1052 4.93294 74.5024 3.06448 74.9088C2.52026 75.0267 1.97968 75.17 1.43728 75.2897C0.952927 75.4004 -0.855677 75.8176 0.486718 75.7378C2.35518 75.6362 7.34381 75.2027 18.0013 73.7859C21.8652 73.151 25.7419 72.6068 29.6112 71.9791C34.4308 71.208 39.2216 70.2671 43.9748 69.1583C45.3354 68.839 46.685 68.4979 48.0383 68.1315C48.9308 67.8848 49.8143 67.629 50.6904 67.3569C54.4274 66.2068 60.4228 64.1751 61.8414 63.5619C67.2636 61.2037 70.6395 59.4295 72.4009 55.2028C73.0014 53.7026 73.2844 52.0228 73.1012 50.4137C72.9162 48.9137 72.4194 47.469 71.6427 46.1725C70.8989 44.948 69.883 43.9031 68.8218 42.938C66.8445 41.1494 64.6278 39.7054 62.2586 38.4809C61.5869 38.1328 60.9057 37.8032 60.216 37.4923C59.3595 37.1054 58.4971 36.7317 57.6292 36.3712C56.4071 35.8742 55.1692 35.4169 53.9176 34.9998C50.665 33.8932 47.3617 32.9064 44.0928 31.847C42.2413 31.2567 40.4154 30.5892 38.6198 29.8461C37.8629 29.5328 37.1152 29.1976 36.3776 28.8411C35.5105 28.4239 34.667 27.9667 33.8325 27.4769C32.8076 26.862 31.1296 25.8044 31.5976 24.3658C31.9241 23.3409 33.0488 22.9418 33.9668 22.5736C34.8175 22.2325 35.7173 21.9931 36.6026 21.7627C39.3055 21.0733 42.0647 20.6089 44.793 20.0321C45.5952 19.8642 46.3958 19.6888 47.1948 19.506C49.3227 19.0108 51.5158 18.6407 53.5439 17.8407C55.2854 17.1604 57.5203 16.0738 58.1716 14.1763C59.1058 11.4135 58.0446 8.42581 56.5208 6.09476C55.969 5.25892 55.4017 4.43338 54.8192 3.61859C54.0174 2.50658 53.1321 1.45987 52.2668 0.400472C51.875 -0.0802504 51.3979 -0.0439695 50.997 0.0793856C50.4637 0.26079 49.0052 1.95511 37.3536 4.16643Z" fill="black"/>
<path fill-rule="evenodd" clip-rule="evenodd" d="M216.005 28.3801L216.162 28.0173L216.346 27.7034L216.505 27.415L216.663 27.1683L216.772 26.9252L216.888 26.7438L216.979 26.566L217.097 26.4572L217.38 25.9656L217.547 25.6717L217.746 25.3833L218.172 24.6685L218.432 24.284L218.698 23.8849L218.766 23.8177L218.856 23.7942L219.056 23.8649L219.156 23.9302L219.29 24.0862L219.556 24.4672L219.832 24.9751L220.141 25.6717L220.467 26.5007L220.824 27.5057L220.892 27.6817L221.008 27.9755L221.158 28.3565L221.367 28.8463L221.392 28.937L221.434 29.0495L221.501 29.2726L221.55 29.4504L221.592 29.6318V29.7642L221.617 29.9002L221.592 29.9402V30.1216L221.459 30.2993L221.369 30.41L221.142 30.5007L220.841 30.5914L220.467 30.6367H220.231L220.008 30.6567L217.788 30.8345H217.363L217.03 30.8599H216.679L216.413 30.8798L216.137 30.8599H215.62L215.37 30.8145L215.212 30.7692L215.079 30.6821L215.001 30.5678L214.936 30.41L214.969 30.2576L215.001 30.0508L215.119 29.8295L215.286 29.5411L215.437 29.2944L215.569 29.0712L215.703 28.8898L215.803 28.712L215.896 28.5778L215.937 28.4454L216.005 28.3801ZM201.79 38.9306C201.79 38.9306 202.109 39.0122 202.109 39.0158C203.317 39.3605 203.91 40.1659 202.985 41.2217C202.693 41.5591 202.459 41.9364 202.223 42.3047L202.024 42.6385C201.824 42.9686 201.675 43.2752 201.643 43.6652L201.657 43.8702C201.715 44.409 202.151 44.9859 202.417 45.4484C202.974 46.3954 203.56 47.2389 204.211 48.1078C204.309 48.2493 205.735 45.9128 205.828 45.7804C206.338 45.0802 206.929 44.4598 207.455 43.7741C208.112 42.9142 208.832 42.0997 209.782 41.55C210.733 40.9986 211.825 40.7791 212.919 40.6648C214.002 40.5451 215.087 40.4961 216.162 40.438C218.379 40.3219 220.583 40.0752 222.784 39.8612C223.636 39.7777 224.895 39.5691 225.663 39.9845C226.406 40.3836 226.972 41.0766 227.547 41.6698C228.238 42.3918 228.915 43.1283 229.566 43.8811C230.343 44.7718 231.034 45.7242 231.892 46.5477C232.434 47.0738 232.995 47.5364 233.612 47.9808L233.929 48.184C235.021 48.7228 235.789 48.0135 236.023 46.9178C236.356 45.2997 235.429 43.7251 234.671 42.3627C234.255 41.6175 233.872 40.855 233.521 40.077C233.22 39.4421 232.919 38.4607 233.454 37.8512C233.871 37.385 234.727 37.3614 235.297 37.2127C235.97 37.0349 236.632 36.8317 237.307 36.6975C238.658 36.4217 239.999 36.0626 241.376 35.8902C242.143 35.7995 243.402 35.2354 244.062 35.9011C244.93 36.7628 244.104 38.3864 243.77 39.3079C243.228 40.8462 242.678 42.4389 242.504 44.0679C242.352 45.55 242.718 47.1446 243.671 48.3273C244.371 49.1981 245.548 49.9473 246.647 49.316C247.524 48.808 248.166 47.7269 248.558 46.8289C249.292 45.1146 249.8 43.3351 250.384 41.57C250.91 39.9809 251.455 38.3954 252.053 36.8245C252.494 35.6816 253.002 34.5551 253.446 33.4141C253.729 32.6721 254.121 31.981 254.432 31.2499C254.68 30.6331 254.765 29.8295 255.38 29.4413C256.131 28.9769 257.056 30.3229 257.416 30.7928C258.1 31.6708 258.709 32.5887 259.335 33.5048C260.024 34.4934 260.652 35.8032 261.769 36.3673C263.696 37.3469 265.423 35.0576 266.508 33.8277C267.259 32.9896 268.017 32.1243 268.793 31.2826C269.617 30.381 270.46 29.4866 271.279 28.5851C271.812 28.0082 272.512 26.8762 273.388 26.8581C274.147 26.8472 274.323 27.6672 274.39 28.2549C274.725 31.0703 274.849 33.9329 275.273 36.7555C275.44 37.804 275.649 38.8471 275.832 39.8902L276.098 41.365C276.233 42.0652 276.374 42.7655 276.525 43.4621C276.849 44.9078 277.192 46.3536 277.635 47.7686C278.025 48.9659 278.526 50.2629 279.529 51.1046C280.719 52.1024 282.905 51.7686 283.672 50.3754C283.83 50.0833 283.899 49.7278 283.964 49.3994C284.098 48.7065 284.031 47.9808 283.973 47.2842C283.774 44.8008 283.073 42.3736 283.03 39.8684C283.021 38.8344 283.106 37.8095 283.188 36.7791C283.364 34.3773 283.672 31.9828 283.805 29.5773C283.973 26.6368 284.24 23.5257 283.382 20.6577C283.141 19.8319 282.796 19.0405 282.353 18.303C281.964 17.6427 281.497 17.0313 280.962 16.4817C280.417 15.9002 279.784 15.408 279.086 15.0233C278.419 14.6641 277.55 14.3811 276.791 14.343C274.967 14.2523 273.073 15.2536 271.645 16.3003C270.426 17.1892 269.327 18.2033 268.284 19.2863C266.433 21.2309 264.572 23.2391 262.929 25.3724C262.453 25.9946 261.876 27.1175 260.919 26.9996C259.785 26.8508 259.182 25.162 258.832 24.2713C258.487 23.4316 258.114 22.6034 257.715 21.7878C257.2 20.7484 256.674 19.7198 256.182 18.6677C255.772 17.7969 255.355 16.8899 254.722 16.1588C253.996 15.328 253.062 14.9253 252.028 14.5861C251.295 14.3484 250.25 14.0473 249.535 14.4718C248.574 15.0396 248.759 16.4654 248.701 17.387C248.641 18.2123 248.55 19.0105 248.474 19.8359C248.266 21.8241 248.142 23.8722 247.691 25.8241C247.491 26.6894 247.199 27.7778 246.446 28.3347C245.864 28.7628 245.129 28.7048 244.454 28.7338C243.903 28.7574 243.346 28.7411 242.785 28.7247C241.517 28.6975 240.251 28.6467 238.983 28.6794C237.898 28.712 236.806 28.7792 235.714 28.8191C234.745 28.8608 233.77 28.9551 232.794 28.9551C231.702 29.0168 230.366 29.191 229.341 28.712C228.532 28.3311 228.097 27.4658 227.738 26.6985C227.221 25.6082 226.564 24.5851 225.946 23.5456C225.387 22.6205 224.846 21.6881 224.278 20.7702C223.462 19.4459 222.651 18.1289 221.817 16.8192C221.273 15.9504 220.708 15.0946 220.124 14.2523C219.649 13.5684 219.047 12.6505 218.212 12.3657C217.449 12.1026 216.696 12.6015 216.538 13.3507C216.429 13.8369 216.545 14.3339 216.445 14.8201C216.337 15.3353 216.13 15.8432 215.912 16.3257C215.488 17.2963 214.92 18.2033 214.345 19.0922C212.409 22.0672 210.965 25.3688 209.24 28.4617C208.913 29.0386 208.572 29.6027 208.246 30.1796C207.805 30.9869 207.515 31.6544 206.546 31.9102C205.675 32.137 204.745 32.0209 203.869 32.2349C202.786 32.5034 202.466 33.4268 202.283 34.4281C202.133 35.2753 202.109 36.1406 201.975 36.995C201.875 37.6118 201.724 38.3065 201.79 38.9306ZM83.5266 56.349C82.6341 56.3781 81.7489 56.5431 80.8672 56.4942C79.8332 56.4343 79.1802 55.8139 78.7992 54.9069C78.3475 53.8221 78.0899 52.5958 77.8142 51.4584C77.5638 50.3826 77.3625 49.325 77.4804 48.2257C77.5548 47.6271 77.6473 47.1917 78.1389 46.7781C78.9153 46.1432 79.9983 46.5568 80.8164 46.1033C81.5511 45.6951 81.7924 44.8081 81.8595 44.0389C81.9756 42.7455 81.8341 41.3578 81.7688 40.0589C81.5674 36.7211 81.7924 33.3179 81.3661 30.0018C81.2754 29.2363 81.025 28.3583 80.1652 28.1315C78.4636 27.6817 78.4473 26.0146 78.3403 24.576C78.2731 23.6744 78.2641 22.6114 78.6305 21.7642C79.1221 20.6014 80.4337 19.9992 81.5838 19.6491C82.7012 19.308 83.8368 18.996 84.9706 18.6894C86.1207 18.3811 87.3143 18.2123 88.4898 18.0128C89.6998 17.8114 90.9098 17.6391 92.127 17.4523C93.3116 17.269 94.4962 17.1076 95.697 16.9806C96.8145 16.8554 97.9392 16.7194 99.0657 16.6541C100.385 16.5761 101.718 16.4981 103.037 16.4491C104.221 16.3983 105.404 16.4237 106.581 16.431C107.759 16.44 108.925 16.489 110.093 16.5253C111.294 16.567 112.511 16.6668 113.696 16.8264C115.423 17.0586 117.065 17.3543 118.55 18.3139C120.092 19.3225 121.119 21.3869 119.593 22.9125C118.05 24.4563 115.564 24.2005 113.564 24.2005C111.923 24.2047 110.282 24.2337 108.642 24.2876C107.064 24.3384 105.487 24.498 103.904 24.596C102.434 24.6867 100.976 24.7901 99.5011 24.9025C97.9827 25.0168 96.4553 25.162 94.937 25.3107C93.727 25.425 92.5116 25.5411 91.3179 25.7588C90.3166 25.9402 89.1411 26.118 88.3737 26.8436C87.806 27.3824 87.7806 28.2839 88.0146 28.9896C88.4735 30.3501 90.5597 30.0055 91.6608 29.9783C94.1624 29.9039 96.6385 29.4957 99.1329 29.3306C100.283 29.2526 101.428 29.2109 102.569 29.1456C103.955 29.064 105.33 29.0186 106.723 29.0839C107.94 29.142 109.134 29.2817 110.326 29.5247C111.786 29.8259 113.146 30.381 114.489 30.9941C116.207 31.5837 115.933 33.7315 115.648 35.112C115.497 35.8358 115.256 36.4725 114.596 36.8789C113.096 37.7932 110.968 37.5628 109.292 37.6063C107.641 37.6535 105.981 37.7968 104.339 37.9455C101.745 38.1886 99.151 38.4426 96.5642 38.7619C94.9787 38.9596 93.395 39.2317 91.8114 39.3968C90.7411 39.5111 89.3406 39.404 88.4663 40.1496L88.3066 40.2857L88.1905 40.351L88.1071 40.507L88.0055 40.7138C87.8894 41.3723 87.2055 43.5437 87.8894 44.0643L88.0309 44.1296H88.2558C89.1248 44.1332 89.9828 44.0843 90.8499 44.0462C92.1687 43.9899 93.4857 43.9373 94.8118 43.8285C97.3478 43.6235 99.8839 43.4167 102.42 43.199C104.071 43.0539 105.772 42.9632 107.439 42.8144C109.938 42.6029 112.442 42.4517 114.948 42.3609C116.464 42.3011 117.925 42.3246 119.35 41.7024C121.001 40.9732 122.371 39.6979 123.989 38.8689C126.032 37.8258 128.125 36.8952 130.193 35.912C132.729 34.7038 135.207 33.3143 137.785 32.1932C139.769 31.3333 141.763 30.4807 143.747 29.6227C144.709 29.2109 145.69 28.8245 146.608 28.3057C147.243 27.9393 148.885 27.1447 148.468 26.1579C148.252 25.6481 147.593 25.5737 147.109 25.5157C145.208 25.2889 140.437 25.6391 137.516 26.0835C132.787 26.8998 132.129 27.513 130.812 26.225C129.81 25.1656 130.061 23.6708 130.211 22.3611C130.36 21.0132 131.013 18.9742 131.47 18.4663C132.838 16.6958 137.349 16.489 139.452 16.3366C140.537 16.2586 141.638 16.2278 142.73 16.2169C144.265 16.206 145.792 16.3076 147.318 16.3076C148.64 16.3614 149.962 16.4521 151.279 16.5797C152.781 16.7285 154.425 16.7647 155.883 17.2273C156.361 17.3797 156.834 17.5357 157.286 17.7461C158.795 18.4427 160.17 19.3534 161.197 20.6541C161.806 21.425 162.205 22.3103 162.407 23.2627C162.507 23.7198 162.574 24.1697 162.507 24.6341C162.456 24.9769 162.356 25.6608 162.14 25.9329L162.049 26.0472C161.839 26.5007 161.438 26.9089 161.072 27.2336C159.287 28.7828 156.685 29.347 154.532 30.225C153.465 30.6603 152.415 31.1646 151.363 31.6381C148.41 32.9696 145.484 34.3519 142.47 35.5601C139.994 36.5614 137.525 37.5882 135.149 38.8108C134.496 39.1483 133.547 39.6308 133.153 40.2857C132.763 40.9768 133.614 40.975 134.164 40.9859C134.764 41.0058 135.374 40.9696 135.983 40.9242C137.808 40.7791 139.635 40.6067 141.471 40.409C143.339 40.2022 145.224 40.0371 147.094 39.8031C148.854 39.58 150.614 39.3551 152.364 39.1646C154.26 38.9741 156.164 38.8821 158.069 38.8888C159.996 38.8888 161.872 38.9124 163.775 39.2263L164.058 39.2716L164.558 39.297C165.36 39.297 166.202 39.19 166.61 38.3954C167.277 37.1075 167.662 35.5564 168.145 34.1923C168.761 32.4254 169.404 30.6621 170.046 28.9025C170.129 28.6594 170.222 28.4164 170.314 28.1733C171.047 26.1833 171.765 24.1842 172.564 22.2196C172.881 21.425 173.217 20.6377 173.474 19.8178C173.667 19.2046 173.757 18.5824 174.049 17.9965C174.534 17.0586 175.41 16.4527 176.393 17.1366C177.188 17.6881 177.728 18.6477 178.187 19.4804C178.662 20.3584 179.072 21.2309 179.296 22.2087C179.522 23.1919 179.281 24.0663 178.98 25.0096C178.672 25.9783 178.271 26.9379 178.013 27.9211C177.452 30.0363 179.555 31.7415 181.173 32.7048C182.633 33.5773 184.31 34.1687 185.877 34.8218C187.052 35.3115 188.23 35.8285 189.472 36.0698C190.216 36.2113 191.158 36.3601 191.816 35.8939C192.883 35.1283 193.207 33.6317 193.568 32.4526C194.002 31.0032 194.325 29.5157 194.651 28.0372C194.934 26.8127 195.127 25.5701 195.261 24.3202C195.37 23.337 195.461 22.3484 195.52 21.3633C195.584 20.0808 195.486 18.8454 195.468 17.5684C195.468 16.7448 195.618 15.6781 196.204 15.036C196.953 14.1852 198.256 14.6223 198.889 15.4296C198.907 15.4477 199.121 15.7235 199.121 15.7235C199.508 16.3656 199.789 17.0713 200.005 17.786C200.38 19.0722 200.591 20.3946 200.725 21.7225C200.841 22.8164 200.915 23.9121 200.957 25.0132C201.089 28.8082 200.825 32.6104 200.306 36.3673C200.023 38.3954 199.573 40.3673 199.139 42.3627C198.889 43.4584 198.697 44.5868 198.221 45.6171C197.895 46.3026 197.471 46.9369 196.963 47.5001C196.719 47.7686 196.455 47.9935 196.152 48.184C195.11 48.8316 193.75 48.8062 192.567 48.6901C190.916 48.5378 189.331 48.1169 187.778 47.5527C186.801 47.2093 185.841 46.8188 184.901 46.3827C183.941 45.9292 182.974 45.4756 182.049 44.9568C181.116 44.4332 180.211 43.861 179.337 43.2426C178.503 42.6621 177.686 42.0163 176.979 41.2961C176.351 40.6612 175.885 39.8448 175.301 39.1736C174.675 38.4644 174.193 38.2267 173.783 39.2027C173.534 39.8376 173.4 40.5033 173.249 41.1709C172.999 42.3373 172.649 43.4929 172.282 44.6321C171.932 45.7568 170.421 48.8788 168.778 47.4257C168.246 46.9541 167.862 46.35 167.06 46.3591C166.243 46.37 165.467 46.7001 164.674 46.8725C163.84 47.0593 162.973 47.1573 162.122 47.326C160.513 47.6507 158.902 48.0226 157.302 48.3418C156.234 48.545 155.167 48.6938 154.106 48.8752C153.083 49.0493 152.047 49.1799 151.013 49.3341C149.946 49.4901 148.885 49.6588 147.825 49.7822C146.158 49.9872 144.499 50.1849 142.837 50.3591C141.504 50.5332 140.179 50.6638 138.851 50.8162C137.743 50.9359 136.642 51.0502 135.532 51.159C133.68 51.3501 131.823 51.4832 129.963 51.5581C127.151 51.6561 124.239 51.8212 121.469 51.2679C120.852 51.15 119.935 51.0756 119.468 50.6221C119.135 50.301 119.401 49.7514 119.151 49.374L119.109 49.3069L119 49.1926L118.901 49.1237L118.792 49.0765H118.567L118.451 49.1237L118.316 49.169L118.2 49.2597L117.964 49.4194L117.816 49.5953L117.7 49.7985L117.632 50.0253C117.032 51.9409 114.997 52.6611 113.146 52.8969L83.5266 56.349ZM360.051 41.4847C356.163 41.7605 352.501 42.4099 348.555 42.0398C347.28 41.9165 345.087 41.8131 344.011 41.1183C340.858 39.0666 351.902 35.4113 353.261 34.9324C357.088 33.5828 364.804 31.3823 364.804 31.3823C364.804 31.3823 372.052 29.6027 372.27 25.7461C372.535 21.0658 367.662 18.9488 363.936 17.7788C362.401 17.4342 360.847 17.181 359.282 17.0205C358.217 16.9222 357.149 16.8593 356.08 16.8319C354.07 16.7611 352.109 16.9552 350.106 17.1947C348.056 17.4377 343.693 17.5647 343.059 20.1117C342.741 21.4087 341.257 24.0826 342.5 25.2563C343.817 26.5044 345.963 25.9855 347.581 25.8295C349.816 25.6118 352.025 25.1982 354.251 24.9806C355.897 24.8191 358.039 24.4617 359.39 25.6517C361.05 27.132 356.646 28.5325 355.77 28.9025C352.444 30.303 348.967 31.3079 345.629 32.6812C342.5 33.9655 339.363 35.2027 336.312 36.6431C334.91 37.3016 333.602 38.1142 332.285 38.9052L331.65 38.4771L327.804 38.8798L323.951 39.1936C321.375 39.404 318.763 39.4766 316.178 39.5981C314.885 39.6417 312.858 39.6925 311.839 38.7401C309.615 36.6539 310.856 33.7605 312.323 31.7415C313.932 29.5465 316.193 27.9175 318.513 26.5352C320.073 25.6082 321.798 24.8481 323.55 24.3293C324.735 23.9756 325.963 23.6817 327.197 23.5021C327.371 23.8395 327.57 24.1769 327.762 24.5071C327.862 24.6957 330.741 23.5021 331.015 23.3606C331.899 22.9071 333.134 21.9983 333.159 20.8971C333.201 19.5584 332.033 18.2232 330.973 17.5557C329.789 16.8119 328.446 16.5634 327.055 16.5507C325.544 16.5307 324.026 16.6214 322.54 16.8155C321.488 16.9609 320.448 17.1822 319.429 17.4777C317.729 17.9675 316.109 18.6314 314.567 19.484C312.474 20.6398 310.566 22.1024 308.906 23.8232C308.133 24.6288 307.45 25.5156 306.868 26.4681C306.125 27.678 305.584 29.0168 305.149 30.3646C303.975 34.0943 304.332 38.7365 306.036 42.2557C307.202 44.672 309.013 46.7709 311.331 48.1786C314.251 49.9545 317.945 50.5405 321.29 49.9055C322.638 49.6594 323.957 49.2765 325.226 48.7627C326.594 48.2167 327.929 47.8121 329.206 47.0829C329.455 46.9505 332.183 45.4067 332.339 45.6135C332.767 46.1614 333.016 46.8325 333.475 47.355C333.918 47.8629 334.476 48.3237 335.01 48.7192C336.138 49.5536 337.413 49.8838 338.788 50.0452C342.233 50.4534 345.729 50.6602 349.201 50.7055C351.967 50.7418 354.77 50.555 357.522 50.301C359.309 50.1377 361.092 49.9055 362.868 49.6915C367.39 49.1436 371.127 48.1495 376.023 46.0634C377.798 45.2495 379.376 44.0628 380.651 42.5841C380.114 42.2605 379.55 41.9837 378.966 41.7568C375.405 40.3419 371.343 40.2857 367.555 40.7646C365.812 40.9823 364.071 41.151 362.327 41.3033C361.569 41.3723 360.809 41.4303 360.051 41.4847ZM299.721 45.4811C299.763 44.828 299.688 44.1695 299.496 43.6652C298.986 42.3446 297.577 41.0058 296.176 40.7501C294.907 40.5251 293.383 40.7646 292.347 41.5664C291.788 42.0036 291.18 42.7092 290.888 43.3623C290.244 44.8008 290.312 46.936 291.255 48.2076C292.848 50.3627 296.218 50.3627 298.094 48.6158C298.994 47.7813 299.628 46.7219 299.721 45.4811Z" fill="#6C7993"/>
</svg>
