<svg width="409" height="51" viewBox="0 0 409 51" fill="none" xmlns="http://www.w3.org/2000/svg">
<path d="M0.984375 30.9103H5.44954V32.3097C5.44954 35.8252 7.29014 37.2588 12.1984 37.2588H22.4581C29.65 37.2588 31.9337 36.9857 31.9337 32.7534V32.5144C31.9337 29.7839 31.1498 28.3162 25.4235 28.3162H10.6305C3.88162 28.2821 1.3934 26.0977 1.3934 20.7049V19.0665C1.3934 14.4246 4.01796 11.8647 15.8114 11.8647H23.1398C33.9448 11.8647 35.4445 14.9707 35.4445 18.9983V20.5001H30.9794V20.227C30.9794 15.8582 28.0821 15.7558 22.8671 15.7558H14.5162C7.66508 15.7899 6.16533 16.4384 6.16533 19.6468V20.7049C6.16533 23.06 6.94929 24.3911 11.9598 24.3911H24.5713C31.7633 24.3911 36.6716 25.1079 36.6716 32.7875V32.8899C36.7057 40.8767 29.3433 41.1498 23.5147 41.1498H14.6866C7.63099 41.1498 0.984375 41.1498 0.984375 32.5827V30.9103Z" fill="#6C7993"/>
<path d="M43.1816 12.2743H47.6468V16.7797H47.7491C49.1466 13.3324 53.0323 11.8306 57.2588 11.8306H66.3596C73.1425 11.8306 79.4824 14.015 79.4824 23.8108V28.8282C79.4824 38.0096 75.4262 41.1497 65.5756 41.1497H56.4749C51.3962 41.1497 49.1466 39.8869 48.124 36.9515H48.0217V50.6384H43.1816V12.2743ZM74.6764 23.8791C74.6764 18.3497 72.9039 15.7557 66.1551 15.7557H56.6453C50.3395 15.7557 47.9536 19.0324 47.9536 23.9473V29.3743C47.9536 36.1665 52.1461 37.2928 57.2588 37.2928H65.7801C71.3701 37.2928 74.6764 36.0641 74.6764 29.4767V23.8791Z" fill="#6C7993"/>
<path d="M140.154 12.2743H144.619V16.4042H144.722C146.494 12.718 150.141 11.8306 153.413 11.8306H157.913C166.877 11.8306 169.808 14.7318 169.808 21.6946V25.1078H165.377V23.8791C165.377 16.8821 163.912 15.7557 155.424 15.7557H152.459C147.38 15.7557 144.96 18.9982 144.96 22.6503V40.706H140.188L140.154 12.2743Z" fill="#6C7993"/>
<path d="M179.523 16.1994H173.285V12.2742H179.523V5.55029H184.295V12.2742H203.314V16.1653H184.329V30.3299C184.329 35.6204 186.169 37.2587 191.384 37.2587H192.884C199.224 37.2587 200.247 35.9275 200.247 29.9545V27.8383H204.132V30.9443C204.132 36.6443 203.587 41.1497 193.225 41.1497H190.6C181.602 41.1497 179.523 36.815 179.523 32.173V16.1994Z" fill="#6C7993"/>
<path d="M210.233 12.2742H220.254V17.667H220.357C221.584 13.1617 225.913 11.7964 230.753 11.7964C238.558 11.7964 241.592 15.1413 241.592 23.0257C241.592 23.7425 241.524 24.5275 241.49 25.5515H232.252C232.252 21.9335 231.4 20.1928 227.14 20.1928C223.458 20.1928 220.902 21.5922 220.902 24.9712V40.706H210.233V12.2742Z" fill="#6C7993"/>
<path d="M245.58 30.7395C245.58 23.0258 250.931 22.5479 261.293 22.5479C267.156 22.5479 270.394 22.7186 272.439 24.8348V22.309C272.439 19.5102 271.621 18.5204 267.429 18.5204H261.123C258.021 18.5204 257.135 18.7934 256.999 20.8072H246.637C246.637 13.0934 250.42 11.8306 259.453 11.8306H271.86C279.188 11.8306 283.108 15.3461 283.108 22.036V40.706H272.985V37.4976C270.019 40.5695 268.928 41.1839 263.577 41.1839H256.283C249.773 41.2521 245.614 39.7845 245.614 33.0946V30.7395H245.58ZM264.634 34.4599C271.996 34.4599 272.644 33.3336 272.644 31.4563C272.644 29.3401 272.03 28.5551 266.133 28.5551H261.43C256.93 28.5551 255.976 29.5449 255.976 31.9C255.976 33.7431 257.442 34.4599 261.566 34.4599H264.634Z" fill="#6C7993"/>
<path d="M288.493 23.9473C288.493 16.7114 290.163 11.8647 303.695 11.8647H306.865C311.262 11.8647 315.761 13.0934 316.443 17.5647H316.545V0.362305H327.214V40.706H317.193V35.4497H317.091C315.932 38.9653 313.239 41.1497 306.797 41.1497H303.695C290.163 41.1497 288.493 36.303 288.493 29.0671V23.9473ZM298.855 28.1455C298.855 31.3198 299.366 33.0946 304.445 33.0946H310.751C314.943 33.0946 317.193 32.139 317.193 27.8725V25.0737C317.193 20.7731 314.977 19.8515 310.751 19.8515H304.445C299.332 19.8515 298.855 21.6264 298.855 24.8006V28.1455Z" fill="#6C7993"/>
<path d="M333.179 30.7395C333.179 23.0258 338.53 22.5479 348.892 22.5479C354.721 22.5479 357.993 22.7186 360.038 24.8348V22.309C360.038 19.5102 359.22 18.5204 355.027 18.5204H348.722C345.586 18.5204 344.7 18.7934 344.597 20.8072H334.269C334.269 13.0934 338.053 11.8306 347.085 11.8306H359.493C366.855 11.8306 370.741 15.3461 370.741 22.036V40.706H360.617V37.4976C357.686 40.5695 356.561 41.1839 351.21 41.1839H343.881C337.371 41.2521 333.179 39.7845 333.179 33.0946V30.7395ZM352.232 34.4599C359.561 34.4599 360.242 33.3336 360.242 31.4563C360.242 29.3401 359.629 28.5551 353.732 28.5551H348.994C344.495 28.5551 343.541 29.5449 343.541 31.9C343.541 33.7431 345.006 34.4599 349.131 34.4599H352.232Z" fill="#6C7993"/>
<path d="M377.523 12.2742H387.544V17.667H387.647C388.874 13.1617 393.203 11.7964 398.043 11.7964C405.848 11.7964 408.916 15.1413 408.916 23.0257C408.916 23.7425 408.848 24.5275 408.814 25.5515H399.577C399.577 21.9335 398.759 20.1928 394.464 20.1928C390.783 20.1928 388.226 21.5922 388.226 24.9712V40.706H377.523V12.2742Z" fill="#6C7993"/>
<path d="M114.386 15.6875H104.604C99.0136 15.6875 95.1279 16.9504 95.1279 23.6061V29.3061C95.1279 35.9276 99.0136 37.2246 104.604 37.2246H114.386C119.942 37.2246 123.862 35.9276 123.862 29.3061V23.6061C123.828 16.9504 119.942 15.6875 114.386 15.6875Z" fill="#6C7993"/>
<path d="M113.874 7.70068H105.114C93.5253 7.70068 85.0381 10.4995 85.0381 22.4456V30.4324C85.0381 42.4127 93.5253 45.1432 105.114 45.1432H113.874C125.463 45.1432 133.95 42.3444 133.95 30.4324V22.4456C133.95 10.4654 125.497 7.70068 113.874 7.70068ZM128.633 29.5791C128.633 38.9312 122.021 41.1157 112.92 41.1157H106.069C96.9679 41.1157 90.3554 38.9312 90.3554 29.5791V23.333C90.3554 13.9809 97.002 11.7965 106.069 11.7965H112.92C122.021 11.7965 128.633 13.9809 128.633 23.333V29.5791Z" fill="#6C7993"/>
</svg>
