<svg width="201" height="63" viewBox="0 0 201 63" fill="none" xmlns="http://www.w3.org/2000/svg">
<path d="M78.8759 26.9201V7.80275H73.5818C73.4942 7.80213 73.4076 7.78428 73.3269 7.75023C73.2462 7.71617 73.1731 7.66657 73.1118 7.6043C73.049 7.54426 72.999 7.4724 72.9645 7.3929C72.9299 7.31339 72.9117 7.22784 72.9108 7.14125V4.32515C72.8775 3.9944 73.145 3.69515 73.4805 3.66207H88.6584C88.822 3.65062 88.9837 3.70313 89.109 3.80842C89.2343 3.91371 89.3134 4.06349 89.3295 4.22592V7.0751C89.3295 7.24047 89.2614 7.40585 89.1285 7.53815C89.0671 7.60042 88.994 7.65002 88.9133 7.68408C88.8327 7.71813 88.746 7.73598 88.6584 7.7366H83.3311V26.8539C83.3311 27.0193 83.2646 27.1847 83.1301 27.2839C83.0777 27.348 83.0112 27.3992 82.9357 27.4336C82.8603 27.468 82.7779 27.4847 82.6949 27.4824H79.5121C79.4245 27.4818 79.3378 27.4639 79.2572 27.4299C79.1765 27.3958 79.1034 27.3462 79.0421 27.2839C78.9424 27.2524 78.8759 27.0855 78.8759 26.9201ZM91.5436 27.5816C91.3094 27.6147 91.1084 27.4824 90.9739 27.317C90.8409 27.1185 90.8409 26.887 90.9739 26.7201L101.665 3.79595C101.765 3.56442 102 3.43212 102.266 3.43212H102.603C102.871 3.43212 103.105 3.56442 103.205 3.79595L113.828 26.7216C113.961 26.9217 113.961 27.1532 113.828 27.3201C113.769 27.415 113.684 27.4906 113.583 27.5374C113.481 27.5842 113.368 27.6001 113.258 27.5832H110.241C110.024 27.5758 109.814 27.5064 109.636 27.3832C109.458 27.26 109.319 27.0883 109.236 26.8886L107.527 23.1117H97.208L95.5336 26.8886C95.4703 27.1011 95.3361 27.2858 95.153 27.4121C94.97 27.5384 94.7492 27.5988 94.527 27.5832H91.5452L91.5436 27.5816ZM98.9157 19.4325H105.851L102.401 11.945H102.266L98.9157 19.4325ZM119.418 26.9201V4.35822C119.418 4.19285 119.486 4.02747 119.619 3.92667C119.68 3.86458 119.753 3.81509 119.833 3.78104C119.914 3.74699 120 3.72904 120.087 3.72822H123.272C123.438 3.72822 123.606 3.79437 123.707 3.92667C123.772 3.97825 123.823 4.04406 123.858 4.11894C123.893 4.19382 123.91 4.27572 123.908 4.35822V26.9201C123.908 27.0855 123.84 27.2508 123.707 27.3501C123.655 27.4144 123.588 27.466 123.513 27.5007C123.437 27.5353 123.355 27.5523 123.272 27.5501H120.087C120 27.5491 119.913 27.5309 119.833 27.4966C119.753 27.4622 119.68 27.4124 119.619 27.3501C119.554 27.2987 119.503 27.2331 119.468 27.1585C119.433 27.0839 119.416 27.0023 119.418 26.9201ZM132.682 26.9185V4.35665C132.649 4.0259 132.916 3.72665 133.252 3.69515H136.501C136.589 3.69576 136.675 3.71361 136.756 3.74766C136.837 3.78172 136.91 3.83132 136.971 3.8936C137.033 3.94724 137.083 4.01324 137.118 4.08732C137.152 4.16139 137.171 4.24188 137.172 4.32357V23.5071H145.95C146.113 23.4956 146.275 23.5479 146.4 23.6529C146.525 23.7578 146.604 23.9072 146.621 24.0693V26.9185C146.652 27.2493 146.385 27.5485 146.051 27.5816H133.385C133.222 27.5926 133.06 27.5399 132.935 27.4347C132.81 27.3294 132.731 27.1799 132.715 27.0177C132.682 26.9862 132.682 26.9516 132.682 26.9185ZM154.189 24.3686C153.026 23.2431 152.108 21.8917 151.491 20.3983C150.874 18.905 150.573 17.3014 150.604 15.6872C150.573 14.0683 150.874 12.4601 151.491 10.9616C152.107 9.46311 153.026 8.10614 154.189 6.9743C156.522 4.66668 159.678 3.37145 162.967 3.37145C166.257 3.37145 169.413 4.66668 171.746 6.9743C172.92 8.09963 173.848 9.45466 174.471 10.9541C175.093 12.4536 175.397 14.0651 175.364 15.6872C175.331 22.4802 169.736 27.9454 162.867 27.9123C159.62 27.9042 156.506 26.6323 154.189 24.3686ZM157.405 10.1227C156.66 10.8448 156.07 11.7108 155.673 12.6677C155.275 13.6245 155.079 14.652 155.094 15.6872C155.094 19.9948 158.646 23.5071 163.001 23.5071C167.357 23.5071 170.909 19.9948 170.909 15.6872C170.888 13.6083 170.048 11.6206 168.569 10.1521C167.09 8.68361 165.091 7.85182 163.001 7.83582C161.961 7.81296 160.926 8.00428 159.963 8.39781C159 8.79133 158.129 9.37857 157.405 10.1227ZM182.372 26.9201V4.35822C182.339 4.02747 182.606 3.72822 182.942 3.69672H192.892C193.874 3.68318 194.85 3.86686 195.759 4.23679C196.669 4.60671 197.494 5.15529 198.186 5.84975C198.896 6.51008 199.46 7.31093 199.841 8.20087C200.221 9.09081 200.411 10.0502 200.397 11.0173C200.424 12.5282 199.928 14.0023 198.99 15.1911C198.029 16.432 196.742 17.3843 195.271 17.9426L199.995 26.5563C200.061 26.6543 200.095 26.7693 200.095 26.887C200.095 27.0047 200.061 27.1198 199.995 27.2178C199.862 27.4509 199.626 27.5832 199.392 27.5485H195.774C195.54 27.5485 195.339 27.4493 195.237 27.2508L190.648 18.2733H186.827V26.9201C186.827 27.0855 186.761 27.2508 186.626 27.3501C186.565 27.4127 186.493 27.4626 186.412 27.4969C186.332 27.5313 186.245 27.5493 186.158 27.5501H182.975C182.811 27.5615 182.65 27.509 182.525 27.4036C182.4 27.2983 182.321 27.1485 182.305 26.9862C182.372 26.9862 182.372 26.9532 182.372 26.9201ZM186.895 14.5957H192.523C193.428 14.5957 194.266 14.2319 194.902 13.5688C195.573 12.9388 195.942 12.0442 195.909 11.1165C195.909 10.2219 195.54 9.36042 194.902 8.76507C194.266 8.13507 193.428 7.80432 192.523 7.80432H186.895V14.5957ZM75.7897 35.7338C75.7897 35.403 76.0587 35.1384 76.3911 35.1384H83.4957C87.4492 35.1384 90.1635 37.6553 90.1635 41.0353C90.1316 42.0936 89.8208 43.125 89.2622 44.0261C88.7036 44.9273 87.9169 45.6665 86.9808 46.1697C88.6901 46.8659 90.8662 48.4567 90.8662 51.4051C90.8662 55.0165 87.9858 57.5995 83.7964 57.5995H76.3927C76.3137 57.6001 76.2354 57.5852 76.1623 57.5556C76.0891 57.5259 76.0226 57.4822 75.9666 57.4268C75.9105 57.3715 75.866 57.3056 75.8356 57.2331C75.8053 57.1606 75.7897 57.0828 75.7897 57.0042V35.7338ZM84.0987 55.4465C86.3097 55.4796 88.1535 53.7565 88.1868 51.5704V51.372C88.1868 49.0851 86.0755 47.4298 83.529 47.4298H78.1684V55.4465H84.0987ZM83.529 45.209C86.009 45.209 87.416 43.4529 87.416 41.2006C87.416 38.9484 86.0074 37.3576 83.529 37.3576H78.2349V45.209H83.529ZM96.0606 35.7338C96.0606 35.403 96.3296 35.1369 96.6636 35.1369H105.074C108.928 35.0707 112.111 38.1183 112.144 41.9298V41.9613C112.144 44.9113 110.165 47.3951 107.353 48.5228L111.808 56.6718C111.976 56.9711 111.91 57.3334 111.607 57.5003C111.507 57.5633 111.391 57.5977 111.272 57.5995H109.664C109.56 57.6012 109.459 57.5741 109.37 57.5212C109.281 57.4683 109.209 57.3918 109.162 57.3003L104.84 48.7874H98.6752V56.9695C98.6752 57.3003 98.4061 57.568 98.0706 57.568H96.7316C96.6524 57.5687 96.5739 57.5536 96.5005 57.5238C96.4272 57.4939 96.3605 57.4499 96.3044 57.3942C96.2483 57.3385 96.2039 57.2723 96.1737 57.1994C96.1435 57.1265 96.1282 57.0484 96.1286 56.9695V35.7338H96.0606ZM104.939 46.7005C105.549 46.7038 106.154 46.5872 106.719 46.3573C107.284 46.1274 107.797 45.7888 108.23 45.3609C108.663 44.933 109.006 44.4242 109.241 43.8638C109.475 43.3034 109.597 42.7023 109.597 42.0952C109.597 41.4881 109.475 40.8871 109.241 40.3267C109.006 39.7662 108.663 39.2575 108.23 38.8296C107.797 38.4016 107.284 38.063 106.719 37.8331C106.154 37.6032 105.549 37.4866 104.939 37.4899H98.6404V46.7005H104.939ZM114.428 56.7711L124.311 35.1699C124.354 35.0625 124.427 34.9703 124.523 34.9054C124.619 34.8405 124.732 34.8059 124.848 34.8061H125.183C125.418 34.8061 125.619 34.9384 125.718 35.1699L135.536 56.7711C135.703 57.0357 135.571 57.4011 135.301 57.5334C135.202 57.5995 135.1 57.5995 135.001 57.5995H133.693C133.577 57.5997 133.464 57.5648 133.368 57.4996C133.273 57.4344 133.199 57.3418 133.157 57.2341L130.745 51.9342H119.22L116.84 57.2341C116.74 57.4342 116.539 57.5995 116.305 57.5995H114.997C114.843 57.6118 114.689 57.563 114.57 57.4638C114.451 57.3645 114.376 57.2226 114.361 57.0688C114.361 56.9695 114.394 56.8719 114.428 56.7711ZM129.874 49.9466C128.265 46.4343 126.725 42.9221 125.115 39.4098H124.848L120.09 49.9466H129.874ZM139.084 35.4015C139.084 35.0707 139.385 34.8061 139.687 34.8061H140.526L155.166 52.8289H155.234V35.7669C155.234 35.4361 155.503 35.1699 155.837 35.1699H156.976C157.31 35.1699 157.578 35.4345 157.578 35.7669V57.368C157.578 57.6988 157.277 57.9633 156.976 57.9633H156.373L141.463 39.5768V57.0357C141.463 57.3664 141.194 57.6326 140.86 57.6326H139.72C139.641 57.633 139.563 57.6179 139.49 57.588C139.417 57.5582 139.351 57.5143 139.295 57.4588C139.239 57.4033 139.194 57.3373 139.164 57.2647C139.134 57.1921 139.119 57.1143 139.119 57.0357V35.4015H139.084ZM164.209 35.7338C164.209 35.403 164.477 35.1384 164.812 35.1384H172.083C178.349 35.1384 183.442 40.1737 183.442 46.3682C183.442 52.5643 178.349 57.5995 172.083 57.5995H164.812C164.654 57.5952 164.504 57.5313 164.392 57.4207C164.28 57.31 164.215 57.1611 164.209 57.0042V35.7338ZM171.546 55.3803C176.874 55.3803 180.727 51.6366 180.727 46.3351C180.727 41.0353 176.874 37.3245 171.546 37.3245H166.688V55.4134L171.546 55.3803ZM186.995 54.2196C187.161 54.0211 187.329 53.788 187.497 53.6227C187.832 53.1927 188.166 52.9611 188.636 53.3234C188.87 53.5234 191.249 55.7757 194.131 55.7757C196.777 55.7757 198.453 54.1534 198.453 52.2319C198.453 50.0112 196.51 48.6866 192.757 47.162C189.173 45.639 187.061 44.1805 187.061 40.5029C187.061 38.3168 188.804 34.7715 193.963 34.7715C195.93 34.8042 197.852 35.3647 199.525 36.3937C199.86 36.5937 199.995 37.0237 199.794 37.3545C199.759 37.3891 199.726 37.4553 199.693 37.4883C199.558 37.6868 199.425 37.9199 199.291 38.0853C199.207 38.2592 199.061 38.396 198.881 38.4693C198.702 38.5426 198.502 38.5472 198.319 38.4822C198.252 38.4507 198.184 38.416 198.151 38.383C197.917 38.2507 195.874 36.8914 193.897 36.8914C190.445 36.8914 189.407 39.0791 189.407 40.4367C189.407 42.5898 191.048 43.8498 193.796 44.9759C198.184 46.732 201 48.3889 201 52.098C201 55.4449 197.782 57.8625 193.997 57.8625C191.477 57.8316 189.052 56.9035 187.161 55.2465C186.827 55.048 186.693 54.6165 186.894 54.2857C186.927 54.3172 186.96 54.2857 186.995 54.2196ZM58.0985 13.7011C58.0653 13.635 58.0653 13.6019 58.032 13.5688C57.9972 13.5027 57.964 13.4696 57.9307 13.4034C57.8975 13.3357 57.831 13.2696 57.7962 13.2034L57.7646 13.1719C57.7057 13.1066 57.6375 13.0503 57.562 13.005V12.9735L44.3276 1.9721C44.2279 1.90595 44.1599 1.8398 44.0586 1.77365C44.0219 1.73886 43.9756 1.71581 43.9256 1.7075C43.8591 1.676 43.8243 1.64135 43.7579 1.64135L43.6249 1.60827L43.4556 1.5752H14.8091C14.7426 1.5752 14.7094 1.60827 14.6413 1.60827C14.5749 1.60827 14.5416 1.64135 14.5084 1.64135C14.2881 1.71241 14.0834 1.82467 13.9054 1.9721L0.704291 12.8396C0.51108 12.9942 0.351204 13.1859 0.234236 13.4034C0.201 13.4696 0.167764 13.5027 0.167764 13.5688C0.0645312 13.7987 0.00753707 14.0464 0 14.298L0 36.893C0 37.4553 0.234236 38.0191 0.669472 38.383L27.844 60.9779C28.5467 61.5748 29.585 61.5748 30.3225 60.9779L57.562 38.2176C57.9972 37.8522 58.233 37.323 58.233 36.7591V14.4634C58.233 14.1972 58.1982 13.9326 58.0985 13.7011ZM31.0252 5.2859H41.1116V14.6949L31.0268 22.6802V5.28432L31.0252 5.2859ZM17.0549 5.2859H27.1397V22.6786L17.0549 14.6934V5.28747V5.2859ZM3.85382 15.158L13.2011 7.472V14.728L3.85382 22.5463V15.1596V15.158ZM29.0817 56.9695L22.9852 51.8996C26.3025 48.6866 31.6298 48.7527 34.879 52.0665L34.9123 52.098L29.0817 56.9695ZM54.4124 35.8314L37.894 49.6458C33.271 44.7428 25.4969 44.4451 20.5384 48.9843C20.3706 49.1481 20.2045 49.282 20.0699 49.4473L3.88706 36.0283V27.5485L15.2111 18.1048L27.8757 28.1439C28.58 28.7077 29.585 28.7077 30.2893 28.1439L42.9871 18.0717L54.3792 27.5485L54.4124 35.8314ZM54.4124 22.5447L44.9639 14.7264V7.50507L54.3808 15.3249L54.4124 22.5447Z" fill="#6C7993"/>
</svg>
