<svg width="322" height="55" viewBox="0 0 322 79" fill="none" xmlns="http://www.w3.org/2000/svg">
<path d="M123.044 18.8472C120.8 18.8533 118.585 19.3487 116.553 20.2987C114.521 21.2488 112.72 22.6307 111.277 24.3481V20.8084H99.4854V78.3773H112.592V58.215C115.521 60.6716 119.221 62.018 123.044 62.0179C128.675 61.936 134.043 59.6235 137.971 55.588C141.899 51.5524 144.066 46.1234 143.995 40.4923C144.066 34.8612 141.899 29.4322 137.971 25.3967C134.043 21.3611 128.675 19.0487 123.044 18.9668M143.995 40.4923C144.066 34.8612 141.899 29.4322 137.971 25.3967C134.043 21.3611 128.675 19.0487 123.044 18.9668M121.752 50.0592C119.845 50.1404 117.957 49.649 116.331 48.6483C114.705 47.6476 113.416 46.1834 112.629 44.4439C111.842 42.7045 111.594 40.7695 111.916 38.8877C112.238 37.0059 113.115 35.2635 114.436 33.8846C115.756 32.5056 117.459 31.5533 119.325 31.15C121.191 30.7467 123.135 30.9109 124.907 31.6215C126.679 32.3321 128.197 33.5565 129.268 35.1374C130.338 36.7183 130.911 38.5832 130.913 40.4923C130.941 41.7225 130.727 42.9461 130.282 44.0932C129.836 45.2403 129.169 46.2883 128.318 47.177C127.467 48.0658 126.449 48.7778 125.322 49.2724C124.196 49.767 122.983 50.0344 121.752 50.0592Z" fill="#6C7993"/>
<path d="M165.592 54.173C165.597 55.7303 165.139 57.254 164.278 58.5512C163.416 59.8484 162.189 60.8606 160.751 61.4599C159.314 62.0591 157.731 62.2184 156.203 61.9175C154.675 61.6165 153.271 60.869 152.168 59.7695C151.065 58.67 150.313 57.2679 150.007 55.7409C149.702 54.2138 149.856 52.6305 150.451 51.1912C151.046 49.752 152.055 48.5217 153.349 47.656C154.644 46.7903 156.166 46.3282 157.723 46.3282C158.755 46.325 159.778 46.5256 160.733 46.9184C161.687 47.3113 162.555 47.8886 163.286 48.6174C164.017 49.3462 164.597 50.2121 164.993 51.1654C165.388 52.1187 165.592 53.1408 165.592 54.173Z" fill="#6C7993"/>
<path fill-rule="evenodd" clip-rule="evenodd" d="M83.7474 15.3077C82.2941 15.3125 80.8722 14.8859 79.6616 14.0819C78.4509 13.278 77.5061 12.1329 76.9467 10.7916C76.3873 9.45038 76.2384 7.97328 76.519 6.54738C76.7997 5.12148 77.4971 3.81092 78.523 2.78164C79.5489 1.75236 80.8572 1.05067 82.2822 0.765408C83.7072 0.480148 85.1847 0.624153 86.5278 1.17919C87.8709 1.73422 89.0191 2.67532 89.8269 3.88332C90.6348 5.09132 91.0661 6.51189 91.0661 7.96513C91.0692 8.92825 90.8823 9.88252 90.5159 10.7732C90.1495 11.6639 89.6109 12.4736 88.931 13.1557C88.251 13.8378 87.4432 14.3791 86.5537 14.7484C85.6642 15.1177 84.7105 15.3078 83.7474 15.3077Z" fill="#6C7993"/>
<path d="M90.3259 20.8086H77.2432V60.0808H90.3259V20.8086Z" fill="#6C7993"/>
<path fill-rule="evenodd" clip-rule="evenodd" d="M0.0371094 2.48828V13.4663H17.0423V60.0572H30.149V13.4663H47.1542V2.48828H0.0371094Z" fill="#6C7993"/>
<path d="M193.073 49.9878C190.536 49.9878 188.103 48.9798 186.309 47.1857C184.514 45.3915 183.507 42.9581 183.507 40.4208C183.507 37.8835 184.514 35.4502 186.309 33.656C188.103 31.8619 190.536 30.8539 193.073 30.8539C194.318 30.8581 195.548 31.1219 196.684 31.6285C197.821 32.1351 198.839 32.8732 199.675 33.7957L208.333 25.1377C205.317 22.1415 201.481 20.1056 197.309 19.2866C193.138 18.4675 188.817 18.9021 184.892 20.5355C180.967 22.1689 177.613 24.928 175.255 28.4647C172.896 32.0015 171.637 36.1576 171.637 40.4089C171.637 44.6602 172.896 48.8163 175.255 52.353C177.613 55.8898 180.967 58.6489 184.892 60.2822C188.817 61.9156 193.138 62.3502 197.309 61.5312C201.481 60.7122 205.317 58.6762 208.333 55.6801L199.675 47.0459C198.836 47.9639 197.817 48.699 196.681 49.2051C195.545 49.7113 194.317 49.9777 193.073 49.9878Z" fill="#6C7993"/>
<path fill-rule="evenodd" clip-rule="evenodd" d="M307.613 18.8237C305.184 18.6704 302.761 19.1899 300.609 20.325C298.457 21.4601 296.66 23.1669 295.415 25.2575C294.222 23.2286 292.504 21.5596 290.441 20.4271C288.378 19.2946 286.047 18.7406 283.695 18.8237C281.382 18.7575 279.094 19.3212 277.076 20.4544C275.059 21.5875 273.387 23.2477 272.239 25.2575V20.8088H260.472V60.0571H273.554V35.5658C273.504 34.7792 273.615 33.9906 273.881 33.2487C274.147 32.5068 274.562 31.8273 275.102 31.2523C275.641 30.6773 276.292 30.2189 277.015 29.9056C277.739 29.5923 278.518 29.4306 279.307 29.4306C280.095 29.4306 280.875 29.5923 281.598 29.9056C282.321 30.2189 282.972 30.6773 283.512 31.2523C284.051 31.8273 284.466 32.5068 284.732 33.2487C284.998 33.9906 285.109 34.7792 285.059 35.5658V60.0571H297.376V35.5658C297.325 34.7792 297.436 33.9906 297.703 33.2487C297.969 32.5068 298.384 31.8273 298.923 31.2523C299.462 30.6773 300.114 30.2189 300.837 29.9056C301.56 29.5923 302.34 29.4306 303.128 29.4306C303.916 29.4306 304.696 29.5923 305.419 29.9056C306.143 30.2189 306.794 30.6773 307.333 31.2523C307.872 31.8273 308.288 32.5068 308.554 33.2487C308.82 33.9906 308.931 34.7792 308.88 35.5658V60.0571H321.963V33.1023C321.963 24.2529 316.414 18.752 307.613 18.752" fill="#6C7993"/>
<path d="M232.322 18.8472C228.065 18.8472 223.903 20.1096 220.363 22.4749C216.824 24.8401 214.065 28.202 212.435 32.1353C210.806 36.0685 210.38 40.3966 211.21 44.5722C212.041 48.7477 214.091 52.5832 217.102 55.5936C220.112 58.604 223.947 60.6541 228.123 61.4847C232.299 62.3153 236.627 61.889 240.56 60.2598C244.493 58.6305 247.855 55.8716 250.22 52.3317C252.586 48.7918 253.848 44.6301 253.848 40.3727C253.848 34.6638 251.58 29.1887 247.543 25.1519C243.507 21.115 238.031 18.8472 232.322 18.8472ZM232.322 49.9397C230.415 50.0208 228.527 49.5294 226.901 48.5287C225.275 47.528 223.986 46.0638 223.199 44.3244C222.412 42.5849 222.164 40.6499 222.486 38.7681C222.808 36.8863 223.685 35.1439 225.006 33.765C226.326 32.386 228.029 31.4337 229.895 31.0304C231.761 30.6271 233.705 30.7913 235.477 31.5019C237.249 32.2125 238.768 33.437 239.838 35.0178C240.908 36.5987 241.481 38.4636 241.483 40.3727C241.534 42.8554 240.598 45.257 238.881 47.0506C237.164 48.8441 234.805 49.8832 232.322 49.9397Z" fill="#6C7993"/>
<path d="M68.081 20.5933C65.7448 20.589 63.4445 21.1687 61.3894 22.2798C59.3342 23.3909 57.5895 24.9981 56.3137 26.9553V20.8085H44.5225V60.0568H57.677V43.6974C57.6161 42.2395 57.8585 40.7848 58.3887 39.4254C58.9188 38.0659 59.7253 36.8313 60.7571 35.7995C61.7889 34.7677 63.0235 33.9612 64.383 33.431C65.7424 32.9009 67.1971 32.6585 68.655 32.7194C69.3456 32.7306 70.0339 32.8026 70.7119 32.9346V20.976C69.841 20.843 68.9619 20.771 68.081 20.7607" fill="#6C7993"/>
</svg>
