<svg width="301" height="50" viewBox="0 0 301 76" fill="none" xmlns="http://www.w3.org/2000/svg">
<path d="M90.46 51.7933H99.3259C99.8309 56.4702 102.209 58.1254 107.617 58.1254C112.879 58.1254 114.969 56.4702 114.969 53.664C114.969 51.0004 113.311 49.7033 107.691 48.7679L103.435 48.0371C95.4363 46.6706 91.254 43.1446 91.254 36.8088C91.254 29.8263 96.7426 25.5806 106.681 25.5806C118.141 25.5806 122.828 30.5461 123.117 38.1754H114.537C114.321 33.4254 111.364 32.0588 106.681 32.0588C102.29 32.0588 100.193 33.714 100.193 36.3777C100.193 39.1108 102.356 40.1923 106.392 40.9121L111.079 41.6429C120.014 43.225 123.981 46.539 123.981 52.9442C123.981 60.431 117.852 64.6073 107.475 64.6073C96.878 64.6073 91.0381 60.789 90.46 51.7933Z" fill="#6C7993"/>
<path d="M184.099 26.4536L171.845 63.5986H162.331L157.644 48.3255C156.546 44.6534 155.481 40.9119 154.472 37.2398C153.462 40.9119 152.452 44.6534 151.372 48.3255L146.758 63.5986H137.245L124.99 26.4536H134.72L138.902 40.3382C140.197 44.5876 141.423 48.9759 142.561 53.2253C143.659 48.9065 144.797 44.5876 146.096 40.2688L150.205 26.4463H158.855L162.979 40.2871C164.274 44.6059 165.431 48.9248 166.51 53.2436C167.663 48.9942 168.888 44.6059 170.187 40.3565L174.366 26.4719L184.099 26.4536Z" fill="#6C7993"/>
<path d="M187.631 26.4538H196.713V63.5988H187.631V26.4538ZM187.704 13.1392H196.64V21.6307H187.704V13.1392Z" fill="#6C7993"/>
<path d="M216.102 33.3633V53.4594C216.102 55.9075 217.327 56.6967 220.357 56.6967H223.456V63.5989C221.799 63.7414 220.141 63.8839 218.7 63.8839C210.84 63.8839 207.093 61.2239 207.093 54.3839V33.3633H201.326V26.4539H207.093V15.6567H216.102V26.4539H223.456V33.3633H216.102Z" fill="#6C7993"/>
<path d="M226.41 45.0373C226.41 33.1587 233.692 25.6025 244.793 25.6025C254.523 25.6025 261.011 31.1454 262.094 39.8525H253.012C252.145 35.2487 248.829 33.1587 244.793 33.1587C239.385 33.1587 235.712 36.9039 235.712 45.0373C235.712 53.1708 239.532 56.916 244.793 56.916C248.903 56.916 252.434 54.6835 253.154 49.7873H262.236C261.23 58.8562 254.307 64.4722 244.793 64.4722C233.765 64.4612 226.41 56.905 226.41 45.0373Z" fill="#6C7993"/>
<path d="M300.657 38.9791V63.5987H291.575V40.4918C291.575 35.7418 289.196 33.4362 284.582 33.4362C280.62 33.4362 276.295 36.1729 276.295 42.7937V63.5987H267.224V12.3462H276.309V31.4193C277.576 29.5983 279.27 28.1139 281.242 27.0951C283.214 26.0763 285.406 25.5538 287.627 25.5731C295.399 25.5914 300.657 30.1258 300.657 38.9791Z" fill="#6C7993"/>
<path d="M0.34375 0.182617V75.8172H76.0869V0.182617H0.34375ZM59.6979 44.3065C59.6979 57.6247 51.4064 64.6803 38.2153 64.6803C25.3134 64.6803 16.7328 57.6247 16.7328 44.3065V12.3426H26.455V44.3759C26.455 52.4363 30.8459 56.2545 38.2044 56.2545C45.5628 56.2545 49.9537 52.4363 49.9537 44.3759V12.3426H59.6869L59.6979 44.3065Z" fill="#6C7993"/>
</svg>
