<svg width="676" height="374" viewBox="0 0 676 374" fill="none" xmlns="http://www.w3.org/2000/svg">
<circle cx="54" cy="306" r="52" stroke="#0073E6" stroke-width="4"/>
<path d="M512.858 294.473L511.036 298.083L512.862 301.691L543.192 361.613L545.413 366H550.33H627.67H632.588L634.808 361.613L665.138 301.691L666.964 298.083L665.142 294.473L634.812 234.395L632.593 230H627.67H550.33H545.407L543.188 234.395L512.858 294.473Z" fill="#FFBF00" stroke="#F6F7F8" stroke-width="16"/>
<ellipse cx="589" cy="298" rx="35" ry="29" fill="white"/>
<path d="M611 327V311L591 327H611Z" fill="white"/>
<path d="M584.496 304.028V303.404C584.496 301.681 584.636 300.308 584.915 299.285C585.205 298.261 585.624 297.44 586.172 296.822C586.721 296.194 587.39 295.621 588.178 295.104C588.807 294.699 589.366 294.288 589.855 293.873C590.354 293.447 590.748 292.991 591.037 292.505C591.326 292.018 591.471 291.466 591.471 290.848C591.471 290.25 591.331 289.723 591.052 289.267C590.773 288.81 590.388 288.461 589.9 288.218C589.421 287.964 588.887 287.838 588.298 287.838C587.709 287.838 587.155 287.974 586.636 288.248C586.128 288.522 585.708 288.912 585.379 289.419C585.06 289.915 584.895 290.518 584.885 291.228H578C578.03 289.099 578.514 287.356 579.452 285.998C580.4 284.64 581.652 283.637 583.209 282.988C584.766 282.329 586.482 282 588.358 282C590.413 282 592.239 282.324 593.836 282.973C595.443 283.622 596.705 284.579 597.623 285.846C598.541 287.113 599 288.663 599 290.498C599 291.704 598.8 292.768 598.401 293.69C598.002 294.613 597.443 295.428 596.725 296.138C596.016 296.837 595.183 297.476 594.225 298.053C593.477 298.499 592.853 298.965 592.354 299.452C591.865 299.938 591.496 300.496 591.247 301.124C590.997 301.742 590.872 302.502 590.872 303.404V304.028H584.496ZM587.804 314C586.726 314 585.803 313.615 585.035 312.845C584.277 312.074 583.902 311.142 583.912 310.048C583.902 308.973 584.277 308.056 585.035 307.296C585.803 306.526 586.726 306.141 587.804 306.141C588.832 306.141 589.735 306.526 590.513 307.296C591.292 308.056 591.686 308.973 591.696 310.048C591.686 310.777 591.496 311.441 591.127 312.039C590.768 312.637 590.294 313.113 589.705 313.468C589.126 313.823 588.493 314 587.804 314Z" fill="black"/>
<rect x="34" y="18" width="140" height="10" fill="#FFBF00"/>
<rect x="34" y="42" width="100" height="10" fill="#FFBF00"/>
<rect x="34" y="66" width="60" height="10" fill="#FFBF00"/>
<rect x="553.899" y="34" width="34" height="34" transform="rotate(-45 553.899 34)" fill="white" stroke="#0073E6" stroke-width="14"/>
</svg>
